<svg width="50" height="50" viewBox="0 0 50 50" fill="none" xmlns="http://www.w3.org/2000/svg">
<path d="M0 30.4869C0 29.7574 0.591386 29.166 1.3209 29.166H7.01244C7.74195 29.166 8.33333 29.7574 8.33333 30.4869V43.7493H0V30.4869Z" fill="#00C2FF"/>
<path d="M10.418 17.9869C10.418 17.2574 11.0094 16.666 11.7389 16.666H17.4304C18.1599 16.666 18.7513 17.2574 18.7513 17.9869V43.7493H10.418V17.9869Z" fill="#00C2FF"/>
<path d="M20.832 24.2369C20.832 23.5074 21.4234 22.916 22.1529 22.916H27.8445C28.574 22.916 29.1654 23.5074 29.1654 24.2369V43.7493H20.832V24.2369Z" fill="#00C2FF"/>
<path d="M31.25 13.8209C31.25 13.0914 31.8414 12.5 32.5709 12.5H38.2624C38.9919 12.5 39.5833 13.0914 39.5833 13.8209V43.75H31.25V13.8209Z" fill="#00C2FF"/>
<path d="M41.666 5.48691C41.666 4.7574 42.2574 4.16602 42.9869 4.16602H48.6785C49.408 4.16602 49.9993 4.7574 49.9993 5.48691V43.7493H41.666V5.48691Z" fill="#00C2FF"/>
</svg>
