<?xml version="1.0" encoding="UTF-8"?> <svg xmlns="http://www.w3.org/2000/svg" width="100" height="14" viewBox="0 0 100 14" fill="none"><path d="M87.3254 4.94312C88.7861 4.94312 89.6903 5.83018 89.8118 6.83704H84.8841C85.0169 5.87297 85.9917 4.94312 87.3254 4.94312ZM89.4586 10.0288C89.0122 10.642 88.5121 11.087 87.3338 11.087C86.0934 11.087 84.9887 10.2969 84.9152 8.86788H92.5893V8.31168C92.5893 4.88893 90.473 2.57572 87.3282 2.57572C86.6104 2.55858 85.8965 2.68852 85.2299 2.9577C84.5632 3.22688 83.9575 3.62971 83.4494 4.14185C82.9413 4.65398 82.5413 5.26479 82.2736 5.93736C82.0059 6.60994 81.8761 7.33032 81.8919 8.05497C81.8919 11.2952 84.2456 13.5456 87.331 13.5599C90.4164 13.5742 91.8518 11.8114 92.4988 10.0259L89.4586 10.0288Z" fill="#767676"></path><path d="M75.764 4.94312C77.2276 4.94312 78.1318 5.83019 78.2504 6.83705H73.3256C73.464 5.87297 74.4332 4.94312 75.764 4.94312ZM77.8972 10.0288C77.4536 10.642 76.9535 11.087 75.7725 11.087C74.5349 11.087 73.4301 10.2969 73.3538 8.86788H81.0307V8.31168C81.0307 4.88893 78.9144 2.57572 75.7668 2.57572C75.0491 2.55856 74.3354 2.68852 73.6689 2.95773C73.0024 3.22695 72.3969 3.62982 71.889 4.142C71.3811 4.65417 70.9814 5.26501 70.714 5.93757C70.4466 6.61014 70.3171 7.33046 70.3334 8.05497C70.3334 11.2952 72.687 13.5456 75.7725 13.5599C78.8579 13.5742 80.2933 11.8114 80.9403 10.0259L77.8972 10.0288Z" fill="#767676"></path><path d="M16.5884 4.94387C18.052 4.94387 18.9562 5.83094 19.0749 6.83779H14.15C14.28 5.87372 15.2576 4.94387 16.5884 4.94387ZM18.7245 10.0295C18.2781 10.6428 17.7751 11.0877 16.5969 11.0877C15.3621 11.0877 14.2517 10.2976 14.1783 8.86863H21.8551V8.31243C21.8551 4.88112 19.7388 2.56791 16.5912 2.56791C15.8728 2.55071 15.1584 2.68093 14.4913 2.95066C13.8242 3.2204 13.2183 3.62404 12.7103 4.13714C12.2023 4.65024 11.8027 5.26211 11.5359 5.93568C11.269 6.60925 11.1404 7.3305 11.1578 8.05572C11.1578 11.2959 13.5114 13.5464 16.5969 13.5606C19.6823 13.5749 21.1177 11.8122 21.7619 10.0267L18.7245 10.0295Z" fill="#767676"></path><path d="M2.8707 4.0364V2.82132H0V13.2892H2.8707V6.27545C3.1441 5.92681 3.49064 5.64368 3.88539 5.4464C4.28015 5.24913 4.7133 5.14262 5.15371 5.13453C6.4054 5.13453 6.98745 5.72496 6.98745 6.98567V13.2892H9.88924V5.93032C9.88924 3.75973 8.65167 2.56747 6.41953 2.56747C5.76121 2.56359 5.10865 2.6914 4.49954 2.94353C3.89042 3.19565 3.33682 3.56709 2.8707 4.0364Z" fill="#767676"></path><path d="M38.0123 0H35.2151V2.82092H33.5V5.33949H35.2151V10.6305C35.2151 12.5358 36.2492 13.5455 38.2045 13.5455C39.4929 13.5455 40.1823 13.1747 40.527 12.8667L40.5609 12.8353L39.9337 10.5849L39.8432 10.6875C39.5919 10.8888 39.2763 10.9902 38.956 10.9728C38.4277 10.9728 38.0858 10.5506 38.0858 9.8946V5.33094H40.188V2.82092H38.0858V0H38.0123Z" fill="#767676"></path><path d="M46.1421 5.88776C46.1421 8.41489 48.5127 8.89122 50.2447 9.2392C51.3749 9.46738 52.2734 9.64423 52.2734 10.2461C52.2734 10.8479 51.6659 11.2615 50.612 11.2615C49.312 11.2039 48.069 10.7066 47.083 9.84959L47.0152 9.78684L45.7578 11.8833L45.8002 11.9232C46.9078 12.9415 48.6568 13.5462 50.482 13.5462C53.2623 13.5462 55.0593 12.2256 55.0593 10.1833C55.0593 7.52212 52.5983 7.03153 50.8042 6.66929C49.7446 6.45822 48.9054 6.28993 48.9054 5.77937C48.9054 5.26881 49.5468 4.84952 50.4623 4.84952C51.5767 4.8459 52.6519 5.26536 53.4742 6.02467L53.5421 6.09598L54.7146 4.03092L54.6638 3.99098C53.4626 3.05112 51.982 2.54856 50.4623 2.56484C47.4927 2.56769 46.1421 4.27906 46.1421 5.88776Z" fill="#767676"></path><path d="M59.9587 0H57.1615V2.82092H55.4492V5.33949H57.1615V10.6305C57.1615 12.5358 58.1956 13.5455 60.1537 13.5455C61.4393 13.5455 62.1315 13.1747 62.4762 12.8667L62.5101 12.8353L61.8772 10.5849L61.7868 10.6875C61.536 10.8897 61.22 10.9913 60.8996 10.9728C60.3712 10.9728 60.0322 10.5506 60.0322 9.8946V5.33094H62.1315V2.82092H60.0322V0H59.9587Z" fill="#767676"></path><path d="M69.9501 2.56738C69.3373 2.59471 68.7361 2.74558 68.1819 3.01108C67.6277 3.27658 67.1318 3.65136 66.7233 4.11333V2.82124H63.8555V13.2892H66.7262V6.42939C67.1472 5.8247 68.2971 5.28847 69.2013 5.28847C69.4485 5.28368 69.6955 5.30374 69.9388 5.34837L70.0264 5.36833V2.56738H69.9501Z" fill="#767676"></path><path d="M97.4552 0H94.6523V2.82092H92.957V5.33949H94.6523V10.6305C94.6523 12.5358 95.6865 13.5455 97.6417 13.5455C98.9301 13.5455 99.6196 13.1747 99.9643 12.8667L99.9982 12.8353L99.3681 10.5849L99.2805 10.6875C99.0283 10.8892 98.7117 10.9907 98.3905 10.9728C97.8649 10.9728 97.523 10.5506 97.523 9.8946V5.33094H99.6252V2.82092H97.523V0H97.4552Z" fill="#767676"></path><path d="M25.1387 2.79297H21.7227L24.9805 7.15698L26.6899 4.87229L25.1387 2.79297Z" fill="#AAB7C2"></path><path d="M27.9844 11.1694L29.5554 13.2744H32.9714L29.6938 8.88184L27.9844 11.1694Z" fill="#AAB7C2"></path><path d="M32.971 2.79297H29.5549L27.3454 5.74794L25.6388 8.03263L21.7227 13.2751H25.1387L27.3454 10.3202L29.0548 8.03263L32.971 2.79297Z" fill="#AAB7C2"></path></svg> 