<?xml version="1.0" encoding="UTF-8" standalone="no"?>
<!-- This is a Stata 16.1 generated SVG file (http://www.stata.com) -->

<svg version="1.1" width="4.04in" height="4.00in" viewBox="0 0 2908 2880" xmlns="http://www.w3.org/2000/svg" xmlns:xlink="http://www.w3.org/1999/xlink">
	<desc>Stata Graph - Graph</desc>
	<rect x="0" y="0" width="2908" height="2880" style="fill:#FFFFFF;stroke:none"/>
	<defs>
		<path id="path_QWGIlPIy" d="M898.03 2851.83 L898.03 2851.83 L882.12 2849.01 L840.96 2842.11 L554.79 2776.86 L443.65 2761.78 L354.96 2740.24 L98.69 2683.90 L83.42 2677.18 L28.44 2667.46 L60.52 2497.44 L78.33 2388.31 L78.79 2387.94 L79.06 2387.58 L79.06 2387.04 L78.97 2386.40 L78.79 2385.85 L79.24 2383.13 L123.77 2139.05 L180.48 1811.93 L180.84 1810.11 L182.11 1803.02 L194.02 1736.41 L194.20 1710.61 L202.47 1659.63 L218.46 1612.74 L230.37 1547.86 L230.37 1546.32 L238.82 1495.79 L241.91 1477.17 L242.27 1474.62 L244.00 1466.72 L244.00 1465.17 L253.63 1466.90 L297.80 1474.53 L310.52 1476.71 L315.15 1477.53 L316.52 1477.80 L318.70 1478.16 L349.96 1483.71 L364.23 1486.16 L367.13 1486.71 L408.76 1493.98 L411.03 1494.34 L444.56 1500.34 L467.46 1504.34 L490.54 1508.33 L509.99 1511.79 L523.44 1514.06 L577.69 1523.60 L606.05 1528.51 L616.04 1530.23 L629.67 1532.69 L688.74 1542.95 L735.36 1551.13 L738.27 1551.68 L747.72 1553.31 L761.17 1555.68 L763.99 1556.13 L767.80 1556.86 L776.44 1558.31 L786.61 1560.04 L812.88 1564.58 L827.96 1567.22 L834.69 1568.31 L856.59 1571.94 L872.40 1574.67 L887.85 1577.30 L900.75 1579.48 L910.48 1581.21 L915.75 1582.30 L920.20 1583.21 L923.29 1583.94 L927.92 1585.03 L932.38 1586.12 L936.83 1587.30 L943.65 1589.21 L949.01 1590.93 L955.46 1593.02 L960.19 1594.66 L966.18 1596.84 L972.36 1599.20 L978.54 1601.75 L984.63 1604.38 L990.26 1607.02 L990.72 1607.20 L996.81 1610.11 L1002.08 1612.74 L1006.08 1614.83 L1012.26 1618.28 L1015.26 1619.92 L1020.25 1622.92 L1026.07 1626.37 L1031.70 1630.01 L1037.34 1633.73 L1042.88 1637.55 L1048.42 1641.46 L1053.88 1645.55 L1058.51 1649.18 L1061.33 1651.45 L1065.87 1655.09 L1070.33 1658.99 L1075.60 1663.63 L1080.87 1668.35 L1083.41 1670.90 L1083.96 1671.35 L1089.23 1676.53 L1094.41 1681.80 L1099.50 1687.16 L1104.49 1692.71 L1109.40 1698.34 L1114.13 1704.07 L1118.85 1709.88 L1123.49 1715.79 L1127.94 1721.78 L1132.30 1728.05 L1136.57 1734.32 L1141.03 1740.87 L1145.84 1748.14 L1147.66 1750.77 L1151.20 1755.95 L1153.84 1759.95 L1160.02 1769.13 L1167.93 1780.85 L1172.65 1787.85 L1177.38 1794.84 L1182.65 1802.84 L1184.10 1804.84 L1186.01 1807.84 L1188.83 1811.84 L1192.83 1817.83 L1194.73 1820.74 L1199.55 1827.74 L1200.82 1829.74 L1202.09 1831.74 L1203.64 1833.92 L1207.55 1839.73 L1210.27 1843.91 L1212.18 1846.73 L1214.27 1849.73 L1216.45 1852.73 L1218.63 1855.63 L1220.00 1857.45 L1223.00 1861.09 L1224.63 1862.99 L1226.18 1864.81 L1228.54 1867.36 L1230.99 1869.99 L1233.54 1872.54 L1235.26 1874.17 L1237.81 1876.53 L1241.35 1879.62 L1244.08 1881.90 L1246.81 1884.08 L1250.62 1886.80 L1252.44 1888.17 L1255.35 1890.16 L1259.16 1892.53 L1262.25 1894.34 L1264.34 1895.62 L1267.43 1897.25 L1271.43 1899.34 L1274.52 1900.80 L1277.79 1902.25 L1280.88 1903.52 L1284.15 1904.79 L1287.34 1905.98 L1290.61 1906.98 L1292.88 1907.70 L1296.15 1908.70 L1299.42 1909.52 L1302.78 1910.25 L1306.15 1910.97 L1309.60 1911.61 L1314.14 1912.43 L1357.31 1919.79 L1372.76 1922.42 L1377.57 1923.24 L1382.66 1924.06 L1387.12 1924.88 L1388.66 1925.15 L1444.37 1934.96 L1466.81 1938.87 L1482.08 1941.60 L1489.80 1942.96 L1494.71 1943.78 L1496.71 1944.23 L1498.53 1944.50 L1503.89 1945.50 L1507.43 1946.14 L1508.53 1946.32 L1511.07 1946.78 L1512.07 1946.96 L1516.89 1947.68 L1523.61 1948.78 L1526.97 1949.14 L1528.43 1949.32 L1529.97 1949.41 L1531.33 1949.50 L1533.24 1949.59 L1549.15 1950.14 L1555.78 1950.59 L1562.32 1951.14 L1564.87 1951.50 L1569.32 1952.14 L1576.14 1953.32 L1594.95 1956.59 L1604.40 1958.23 L1605.03 1958.41 L1605.76 1958.50 L1605.49 1960.04 L1606.76 1960.22 L1619.48 1962.41 L1623.57 1963.13 L1628.75 1964.04 L1643.11 1966.40 L1658.29 1969.04 L1667.28 1970.67 L1676.28 1972.49 L1678.01 1972.86 L1682.28 1973.58 L1683.37 1973.85 L1687.55 1974.49 L1718.45 1979.76 L1737.71 1982.94 L1746.89 1984.30 L1754.89 1985.49 L1767.16 1987.67 L1768.52 1987.94 L1772.70 1988.67 L1778.79 1989.76 L1786.69 1991.21 L1791.15 1992.03 L1798.69 1993.39 L1802.51 1994.03 L1811.41 1995.66 L1820.86 1997.30 L1825.50 1998.12 L1827.41 1998.57 L1828.95 1998.84 L1830.86 1999.12 L1832.22 1999.39 L1836.77 2000.30 L1840.95 2001.02 L1846.40 2002.02 L1853.49 2003.30 L1857.58 2004.02 L1861.21 2004.66 L1865.75 2005.57 L1867.39 2005.84 L1870.57 2006.39 L1873.12 2006.84 L1879.20 2007.93 L1880.02 2008.02 L1885.38 2008.75 L1888.84 2009.29 L1894.83 2010.38 L1896.38 2010.66 L1902.65 2011.93 L1902.01 2015.11 L1900.92 2020.74 L1899.38 2030.01 L1898.47 2034.37 L1897.74 2039.19 L1897.47 2040.64 L1895.93 2051.09 L1893.38 2065.27 L1892.84 2067.81 L1874.12 2174.95 L1873.57 2177.86 L1871.93 2188.21 L1870.30 2196.67 L1866.75 2216.66 L1865.39 2224.02 L1864.85 2227.20 L1863.03 2237.19 L1859.48 2257.55 L1855.85 2277.36 L1852.21 2297.53 L1850.49 2306.89 L1848.40 2317.61 L1844.31 2339.42 L1840.95 2357.69 L1840.58 2359.59 L1829.86 2419.39 L1825.13 2445.65 L1824.95 2447.10 L1824.86 2447.92 L1824.95 2448.83 L1824.95 2449.46 L1825.22 2451.64 L1825.59 2453.10 L1825.77 2453.64 L1825.86 2453.92 L1826.13 2454.64 L1827.13 2456.73 L1827.86 2457.73 L1828.77 2458.64 L1829.50 2459.37 L1831.95 2462.37 L1832.40 2463.00 L1832.68 2463.28 L1832.77 2463.46 L1832.86 2463.73 L1832.86 2463.91 L1832.86 2464.27 L1832.77 2464.55 L1832.59 2464.82 L1831.95 2465.55 L1831.49 2466.00 L1829.40 2468.45 L1827.13 2471.00 L1825.77 2472.91 L1824.41 2474.72 L1823.50 2476.27 L1822.41 2478.00 L1821.32 2479.81 L1820.04 2482.18 L1819.04 2484.54 L1818.59 2485.63 L1818.23 2486.45 L1818.14 2486.54 L1817.50 2488.90 L1817.23 2490.08 L1816.95 2491.26 L1815.77 2496.90 L1815.05 2501.99 L1811.05 2525.88 L1807.87 2544.24 L1805.14 2559.32 L1804.32 2564.68 L1804.14 2565.50 L1803.23 2570.86 L1801.51 2580.22 L1800.60 2585.49 L1799.87 2589.76 L1796.60 2607.76 L1795.60 2613.84 L1794.96 2617.30 L1793.05 2628.11 L1788.24 2655.46 L1787.06 2662.10 L1786.33 2667.00 L1780.70 2666.00 L1759.70 2662.10 L1758.43 2661.91 L1751.98 2660.73 L1748.25 2660.19 L1747.80 2659.64 L1733.53 2656.83 L1730.81 2656.28 L1719.81 2654.19 L1715.45 2653.46 L1711.72 2652.74 L1707.00 2651.83 L1705.54 2651.46 L1697.91 2650.37 L1683.19 2648.38 L1682.37 2648.65 L1679.01 2647.92 L1654.47 2643.83 L1645.02 2642.20 L1638.75 2641.11 L1637.84 2640.92 L1632.66 2640.02 L1623.21 2638.56 L1614.94 2637.20 L1601.22 2634.93 L1563.78 2628.57 L1535.70 2623.66 L1534.24 2623.48 L1519.79 2620.93 L1504.62 2618.30 L1491.62 2615.84 L1490.71 2615.66 L1485.53 2614.94 L1481.81 2614.48 L1475.54 2613.75 L1474.17 2613.48 L1452.46 2610.30 L1444.46 2608.85 L1436.73 2607.48 L1428.01 2605.39 L1424.28 2604.58 L1416.29 2603.21 L1407.29 2601.67 L1387.48 2598.12 L1384.48 2597.58 L1378.57 2596.40 L1373.30 2595.40 L1369.30 2594.67 L1369.12 2594.67 L1363.22 2593.49 L1362.67 2593.40 L1361.67 2593.85 L1355.58 2592.76 L1354.58 2592.58 L1351.86 2592.13 L1351.31 2592.04 L1350.49 2591.40 L1341.59 2590.04 L1313.51 2585.31 L1292.15 2581.31 L1270.80 2577.68 L1268.71 2577.32 L1267.98 2577.32 L1267.34 2577.22 L1267.25 2577.95 L1192.64 2567.68 L1162.93 2564.68 L1120.03 2551.42 L1118.13 2551.24 L1116.85 2550.96 L1078.78 2541.06 L1040.70 2531.70 L1038.97 2541.88 L1036.34 2563.50 L1035.16 2572.86 L1027.52 2626.93 L1026.80 2629.93 L1024.34 2642.01 L1018.25 2672.73 L1012.89 2702.26 L1007.08 2738.34 L948.74 2728.16 L920.65 2723.16 L898.03 2851.83 L898.03 2851.83 Z" stroke-linejoin="round"/>
	</defs>
	<use xlink:href="#path_QWGIlPIy" style="fill:#9DC8CA;stroke:#9DD7F0;stroke-width:5.76"/>
	<defs>
		<path id="path_AkPpwhEg" d="M2751.51 2338.06 L2751.51 2338.06 L2751.51 2338.06 L2754.88 2344.60 L2744.61 2342.78 L2743.33 2342.06 L2740.24 2340.33 L2738.52 2339.42 L2737.25 2339.06 L2733.07 2338.42 L2730.98 2337.69 L2730.34 2337.33 L2729.70 2336.79 L2728.61 2335.06 L2726.98 2332.42 L2726.61 2331.79 L2726.25 2330.79 L2725.07 2328.70 L2724.52 2328.15 L2722.98 2326.79 L2722.25 2325.88 L2717.34 2313.16 L2717.34 2312.61 L2717.44 2312.07 L2713.25 2311.34 L2711.26 2310.98 L2710.35 2310.80 L2709.44 2310.62 L2706.26 2309.98 L2698.17 2308.62 L2695.17 2305.80 L2693.26 2303.25 L2692.26 2302.44 L2691.81 2301.53 L2690.72 2299.35 L2689.63 2297.53 L2686.26 2292.99 L2685.99 2292.62 L2685.45 2290.71 L2684.45 2289.17 L2682.27 2287.53 L2679.72 2284.26 L2678.18 2281.99 L2677.18 2280.90 L2676.54 2280.54 L2675.18 2280.08 L2674.36 2279.54 L2673.72 2278.81 L2673.18 2278.08 L2671.63 2274.45 L2670.18 2271.54 L2668.45 2266.82 L2667.82 2266.09 L2667.18 2265.73 L2666.82 2265.36 L2666.45 2264.45 L2666.27 2263.82 L2666.27 2262.45 L2666.82 2259.27 L2666.73 2257.18 L2665.36 2250.46 L2665.27 2249.37 L2665.73 2247.28 L2666.45 2245.28 L2643.28 2241.10 L2643.74 2238.10 L2643.74 2237.74 L2643.37 2237.19 L2643.10 2237.10 L2625.74 2233.92 L2615.66 2232.20 L2614.56 2232.10 L2614.11 2232.47 L2613.93 2232.92 L2613.47 2235.38 L2613.38 2235.83 L2609.38 2235.01 L2606.11 2254.55 L2605.02 2260.82 L2603.30 2270.09 L2600.39 2287.35 L2599.39 2293.35 L2598.48 2297.80 L2598.12 2299.62 L2598.03 2300.98 L2598.21 2303.44 L2598.66 2305.07 L2599.30 2306.34 L2600.66 2308.43 L2599.03 2309.80 L2598.48 2310.16 L2597.93 2310.34 L2596.75 2310.25 L2596.03 2310.16 L2589.85 2308.98 L2577.85 2306.98 L2568.67 2305.16 L2567.04 2304.89 L2559.49 2303.44 L2556.40 2302.80 L2555.95 2302.71 L2555.41 2302.44 L2554.86 2301.98 L2553.41 2299.98 L2550.32 2295.53 L2549.77 2294.62 L2542.77 2284.17 L2538.59 2278.18 L2536.05 2274.36 L2528.42 2263.09 L2517.15 2246.46 L2511.51 2238.19 L2511.06 2237.47 L2505.06 2228.47 L2505.42 2228.11 L2505.61 2227.74 L2506.42 2223.65 L2506.97 2220.11 L2508.33 2212.11 L2508.88 2209.11 L2509.79 2204.39 L2511.33 2198.39 L2512.97 2188.76 L2499.24 2186.31 L2492.07 2184.94 L2487.34 2184.13 L2474.80 2181.76 L2474.25 2182.04 L2473.71 2182.40 L2469.44 2176.22 L2468.89 2175.49 L2468.35 2175.04 L2467.80 2174.68 L2467.62 2175.49 L2467.89 2176.40 L2467.62 2177.67 L2467.17 2179.85 L2466.98 2180.76 L2466.53 2182.76 L2465.89 2181.76 L2463.80 2178.86 L2452.90 2162.95 L2447.26 2155.50 L2441.45 2148.14 L2436.99 2142.33 L2433.72 2137.78 L2432.27 2135.78 L2430.27 2132.60 L2425.82 2126.15 L2422.91 2121.97 L2419.73 2117.25 L2413.55 2108.16 L2412.19 2106.07 L2409.82 2102.53 L2408.37 2100.44 L2403.28 2092.98 L2397.28 2084.17 L2395.10 2080.99 L2392.28 2076.72 L2382.92 2063.00 L2378.38 2056.18 L2375.75 2052.37 L2366.02 2038.01 L2360.57 2029.92 L2359.75 2028.74 L2359.21 2028.01 L2358.66 2027.20 L2354.30 2020.74 L2345.12 2007.11 L2342.30 2003.02 L2340.39 2000.21 L2339.58 1999.12 L2340.39 1999.03 L2341.12 1999.03 L2344.94 1998.93 L2346.03 2000.57 L2348.39 2004.11 L2354.84 1996.30 L2355.12 1993.57 L2355.30 1993.03 L2357.84 1988.21 L2359.57 1984.58 L2364.20 1987.39 L2361.57 1992.66 L2361.21 1994.03 L2360.84 1997.84 L2361.02 1998.66 L2361.39 1999.03 L2374.29 2006.75 L2378.20 2009.11 L2398.83 2022.02 L2410.28 2029.38 L2414.37 2032.19 L2432.63 2042.46 L2450.90 2052.73 L2453.63 2053.37 L2472.16 2056.55 L2473.53 2057.00 L2476.62 2057.91 L2481.89 2058.82 L2482.43 2058.82 L2485.07 2058.09 L2486.34 2058.18 L2487.61 2058.91 L2488.07 2059.27 L2488.34 2059.82 L2488.98 2061.45 L2490.34 2070.18 L2490.61 2071.08 L2490.88 2072.08 L2491.61 2073.99 L2492.16 2075.08 L2494.70 2079.99 L2499.24 2089.62 L2500.97 2094.07 L2502.15 2098.16 L2502.61 2099.98 L2503.06 2103.80 L2503.24 2106.89 L2503.06 2110.61 L2502.97 2113.07 L2503.06 2114.07 L2503.61 2116.88 L2505.79 2117.25 L2510.33 2118.06 L2512.69 2118.43 L2514.87 2118.88 L2516.96 2119.43 L2519.33 2119.97 L2521.24 2120.52 L2523.42 2121.06 L2524.87 2121.43 L2535.50 2124.06 L2542.23 2125.33 L2543.41 2125.61 L2544.23 2125.70 L2551.86 2126.97 L2558.86 2128.15 L2565.86 2129.42 L2566.76 2129.51 L2570.58 2130.24 L2573.31 2130.69 L2580.40 2131.88 L2583.94 2132.51 L2585.21 2132.69 L2586.21 2132.78 L2587.30 2132.88 L2589.03 2133.06 L2590.85 2133.24 L2593.03 2133.33 L2595.57 2133.42 L2600.21 2133.88 L2601.57 2133.97 L2603.02 2134.15 L2605.11 2134.51 L2605.84 2134.60 L2608.84 2135.06 L2614.47 2136.06 L2626.29 2138.06 L2627.92 2138.33 L2629.47 2138.60 L2632.83 2139.15 L2634.83 2139.51 L2650.01 2142.14 L2655.73 2143.23 L2661.00 2144.23 L2667.27 2145.32 L2681.27 2147.87 L2686.36 2148.69 L2690.90 2123.06 L2692.35 2115.07 L2695.53 2109.89 L2696.26 2108.61 L2697.08 2107.43 L2703.08 2086.35 L2719.07 2024.47 L2725.80 1998.12 L2736.88 1967.59 L2740.70 1957.04 L2740.88 1956.41 L2742.24 1952.68 L2770.05 1875.81 L2777.14 1865.18 L2776.05 1865.72 L2782.23 1844.73 L2783.41 1840.91 L2784.59 1836.82 L2790.95 1835.55 L2791.68 1836.19 L2795.77 1839.64 L2795.86 1839.55 L2798.13 1838.91 L2802.95 1850.55 L2804.22 1850.45 L2804.95 1849.46 L2809.04 1848.73 L2810.58 1851.82 L2812.85 1851.73 L2812.58 1847.82 L2812.22 1840.73 L2811.58 1831.65 L2825.39 1833.64 L2828.30 1834.01 L2828.30 1836.28 L2827.76 1843.00 L2827.58 1844.91 L2826.30 1850.27 L2825.94 1853.73 L2827.03 1852.82 L2827.39 1852.64 L2822.94 1899.71 L2821.21 1903.98 L2820.31 1906.61 L2819.12 1911.79 L2818.40 1913.79 L2817.67 1916.43 L2816.58 1919.15 L2815.31 1920.97 L2814.94 1921.88 L2814.49 1922.60 L2813.58 1923.70 L2807.22 1959.95 L2803.04 1982.03 L2802.40 1992.94 L2799.86 2008.84 L2800.49 2009.02 L2805.40 2009.93 L2805.67 2010.02 L2817.40 2011.93 L2820.12 2012.38 L2825.58 2013.38 L2838.57 2015.56 L2840.30 2015.84 L2844.11 2016.47 L2849.93 2017.47 L2863.74 2019.74 L2871.56 2020.56 L2875.47 2021.02 L2878.10 2021.20 L2879.47 2046.64 L2878.74 2047.64 L2877.38 2050.55 L2876.83 2052.18 L2876.56 2054.18 L2872.65 2077.54 L2871.83 2083.44 L2869.56 2083.90 L2866.92 2084.44 L2860.74 2088.71 L2860.84 2089.26 L2860.84 2090.35 L2859.84 2095.62 L2859.65 2096.44 L2859.11 2096.80 L2858.56 2096.89 L2851.48 2095.71 L2851.02 2102.07 L2842.75 2100.07 L2842.21 2099.98 L2827.03 2169.22 L2826.30 2173.04 L2825.67 2176.22 L2824.76 2177.67 L2823.21 2176.86 L2819.31 2175.04 L2816.31 2173.95 L2813.49 2172.95 L2811.13 2172.22 L2807.76 2171.31 L2807.49 2171.31 L2803.22 2170.50 L2800.86 2170.04 L2796.41 2169.22 L2796.22 2170.59 L2796.13 2171.31 L2795.59 2174.68 L2791.50 2176.04 L2791.13 2177.95 L2790.77 2179.13 L2790.23 2180.31 L2789.77 2181.13 L2788.23 2182.76 L2787.41 2183.49 L2789.50 2187.03 L2790.23 2188.21 L2791.68 2187.03 L2792.95 2185.76 L2793.86 2184.49 L2794.77 2182.85 L2795.22 2182.49 L2795.77 2182.31 L2796.86 2182.49 L2808.76 2184.49 L2809.40 2184.67 L2809.67 2184.94 L2809.76 2185.49 L2805.67 2204.93 L2805.40 2205.48 L2805.22 2205.57 L2804.95 2205.66 L2798.04 2204.48 L2796.68 2204.21 L2795.77 2209.11 L2795.41 2212.75 L2795.13 2216.38 L2795.59 2216.38 L2798.68 2216.84 L2802.04 2217.38 L2802.40 2217.57 L2802.59 2217.84 L2802.68 2218.11 L2802.68 2219.11 L2802.04 2223.20 L2801.40 2225.65 L2799.40 2233.83 L2798.31 2238.10 L2798.04 2238.74 L2797.77 2239.10 L2797.59 2239.19 L2797.13 2239.19 L2790.68 2238.10 L2774.32 2235.28 L2771.87 2234.83 L2769.78 2234.29 L2765.33 2232.01 L2764.60 2231.74 L2763.60 2231.56 L2762.51 2238.01 L2760.87 2246.92 L2760.06 2252.10 L2759.78 2255.82 L2759.78 2260.09 L2760.06 2265.82 L2760.42 2268.45 L2761.42 2274.90 L2761.78 2279.08 L2761.87 2288.44 L2761.96 2290.08 L2762.05 2290.99 L2762.33 2293.44 L2762.96 2296.98 L2763.87 2301.44 L2764.05 2302.53 L2764.33 2304.07 L2764.51 2307.53 L2764.51 2309.34 L2764.42 2311.07 L2763.60 2317.52 L2763.33 2319.88 L2761.69 2336.97 L2761.60 2337.60 L2761.69 2338.24 L2756.51 2338.15 L2752.97 2338.24 L2751.51 2338.06 L2751.51 2338.06 Z" stroke-linejoin="round"/>
	</defs>
	<use xlink:href="#path_AkPpwhEg" style="fill:#9DC8CA;stroke:#9DD7F0;stroke-width:5.76"/>
	<defs>
		<path id="path_LZyiYHLv" d="M2543.68 2300.44 L2543.68 2300.44 L2543.05 2300.53 L2542.14 2300.62 L2541.32 2300.44 L2539.77 2300.26 L2532.78 2298.71 L2531.60 2298.53 L2528.32 2297.98 L2519.42 2296.44 L2512.15 2295.17 L2507.33 2294.26 L2499.34 2292.71 L2486.43 2290.44 L2458.35 2285.63 L2449.17 2283.99 L2448.81 2283.81 L2447.35 2283.54 L2445.63 2283.26 L2444.45 2282.99 L2423.36 2278.72 L2413.46 2277.27 L2410.01 2276.63 L2400.92 2274.90 L2396.10 2274.00 L2394.92 2273.81 L2388.10 2272.54 L2378.65 2270.81 L2376.65 2270.36 L2374.38 2269.91 L2372.47 2269.63 L2361.30 2267.54 L2341.76 2263.82 L2340.67 2263.55 L2338.94 2263.18 L2338.03 2263.00 L2335.03 2262.55 L2332.67 2262.09 L2329.67 2261.46 L2325.85 2260.82 L2324.86 2260.09 L2324.13 2259.91 L2322.67 2259.46 L2317.13 2258.46 L2312.22 2257.55 L2309.59 2257.09 L2307.77 2256.82 L2302.32 2256.00 L2301.86 2255.91 L2301.23 2255.82 L2300.41 2255.73 L2299.41 2256.18 L2295.50 2255.55 L2288.51 2254.28 L2273.87 2251.73 L2273.06 2251.64 L2248.70 2247.19 L2237.71 2245.28 L2233.07 2244.46 L2227.07 2243.37 L2226.26 2243.19 L2222.89 2242.65 L2220.44 2242.19 L2219.71 2242.01 L2203.08 2239.10 L2202.08 2238.92 L2196.54 2237.92 L2191.63 2237.10 L2167.46 2232.74 L2160.19 2231.29 L2158.01 2230.83 L2153.46 2230.01 L2149.01 2229.11 L2146.01 2228.47 L2142.20 2227.74 L2128.02 2224.65 L2123.75 2223.84 L2121.39 2223.38 L2116.93 2222.47 L2086.85 2216.48 L2084.40 2216.02 L2080.13 2215.11 L2079.40 2214.93 L2072.68 2213.66 L2068.04 2212.84 L2059.41 2211.11 L2051.14 2209.48 L2045.51 2208.30 L2043.51 2207.93 L2042.87 2207.84 L2039.42 2207.21 L2029.97 2205.30 L2029.42 2205.21 L2027.78 2204.93 L2026.51 2204.66 L2025.79 2204.48 L2024.51 2204.21 L2023.79 2203.39 L2022.33 2203.12 L2021.24 2202.94 L2020.06 2202.66 L2018.06 2202.21 L2016.97 2202.03 L2012.52 2201.12 L2011.34 2200.94 L2008.34 2200.39 L2007.43 2200.75 L2006.34 2200.48 L1999.70 2199.21 L1989.71 2197.30 L1970.62 2193.76 L1964.63 2192.49 L1960.26 2191.67 L1955.72 2190.85 L1944.45 2188.76 L1935.09 2187.03 L1931.46 2186.31 L1926.64 2185.40 L1910.19 2182.31 L1897.02 2179.76 L1892.29 2178.86 L1888.66 2178.22 L1884.93 2177.40 L1882.93 2176.86 L1882.02 2176.67 L1880.93 2176.40 L1879.11 2176.04 L1875.93 2175.40 L1874.12 2174.95 L1892.84 2067.81 L1893.38 2065.27 L1895.93 2051.09 L1897.47 2040.64 L1897.74 2039.19 L1898.47 2034.37 L1899.38 2030.01 L1900.92 2020.74 L1902.01 2015.11 L1902.65 2011.93 L1896.38 2010.66 L1894.83 2010.38 L1888.84 2009.29 L1885.38 2008.75 L1880.02 2008.02 L1879.20 2007.93 L1873.12 2006.84 L1870.57 2006.39 L1867.39 2005.84 L1865.75 2005.57 L1861.21 2004.66 L1857.58 2004.02 L1853.49 2003.30 L1846.40 2002.02 L1840.95 2001.02 L1836.77 2000.30 L1832.22 1999.39 L1830.86 1999.12 L1828.95 1998.84 L1827.41 1998.57 L1825.50 1998.12 L1820.86 1997.30 L1811.41 1995.66 L1802.51 1994.03 L1798.69 1993.39 L1791.15 1992.03 L1786.69 1991.21 L1778.79 1989.76 L1772.70 1988.67 L1768.52 1987.94 L1767.16 1987.67 L1754.89 1985.49 L1746.89 1984.30 L1737.71 1982.94 L1718.45 1979.76 L1687.55 1974.49 L1683.37 1973.85 L1682.28 1973.58 L1678.01 1972.86 L1676.28 1972.49 L1667.28 1970.67 L1658.29 1969.04 L1643.11 1966.40 L1628.75 1964.04 L1623.57 1963.13 L1619.48 1962.41 L1606.76 1960.22 L1605.49 1960.04 L1605.76 1958.50 L1605.03 1958.41 L1604.40 1958.23 L1594.95 1956.59 L1576.14 1953.32 L1569.32 1952.14 L1564.87 1951.50 L1562.32 1951.14 L1555.78 1950.59 L1549.15 1950.14 L1533.24 1949.59 L1531.33 1949.50 L1529.97 1949.41 L1528.43 1949.32 L1526.97 1949.14 L1523.61 1948.78 L1516.89 1947.68 L1512.07 1946.96 L1511.07 1946.78 L1508.53 1946.32 L1507.43 1946.14 L1503.89 1945.50 L1498.53 1944.50 L1496.71 1944.23 L1494.71 1943.78 L1489.80 1942.96 L1482.08 1941.60 L1466.81 1938.87 L1476.99 1917.70 L1484.44 1902.52 L1489.90 1891.16 L1493.44 1884.26 L1495.35 1879.44 L1498.80 1874.81 L1501.89 1870.45 L1504.89 1866.36 L1510.25 1858.91 L1520.07 1845.28 L1526.43 1836.37 L1531.43 1830.01 L1535.24 1824.56 L1540.88 1816.47 L1544.42 1811.47 L1549.51 1804.57 L1558.32 1792.39 L1561.23 1788.03 L1573.05 1771.94 L1575.23 1768.95 L1583.68 1780.03 L1584.59 1781.03 L1588.68 1785.48 L1591.40 1788.66 L1593.13 1789.57 L1595.40 1790.48 L1622.03 1794.30 L1635.11 1796.48 L1664.38 1801.20 L1689.37 1805.29 L1698.18 1806.93 L1706.91 1808.56 L1708.36 1808.75 L1709.81 1809.02 L1715.90 1810.11 L1743.53 1814.83 L1782.79 1821.92 L1856.49 1833.74 L1859.76 1834.19 L1860.76 1829.56 L1862.21 1820.56 L1862.66 1818.01 L1863.21 1814.02 L1864.39 1805.57 L1864.57 1803.48 L1865.03 1800.57 L1865.12 1799.66 L1862.30 1793.75 L1862.66 1790.94 L1863.30 1787.03 L1865.21 1778.67 L1866.12 1775.03 L1866.94 1772.94 L1867.94 1769.76 L1868.75 1767.86 L1869.57 1765.86 L1871.66 1761.04 L1873.30 1757.95 L1874.66 1755.50 L1875.48 1754.13 L1876.30 1752.86 L1877.57 1750.86 L1878.30 1749.77 L1879.20 1748.50 L1882.11 1744.23 L1887.84 1735.78 L1889.47 1733.32 L1891.02 1731.23 L1894.65 1725.96 L1899.74 1718.88 L1901.83 1715.79 L1906.38 1709.24 L1909.10 1705.34 L1910.74 1702.97 L1912.56 1700.70 L1915.10 1697.07 L1916.92 1694.34 L1918.55 1691.98 L1920.46 1689.16 L1922.73 1685.89 L1924.82 1682.80 L1926.64 1679.89 L1928.09 1677.44 L1929.00 1676.99 L1931.37 1672.72 L1935.09 1665.99 L1938.64 1659.45 L1942.18 1652.91 L1943.82 1649.82 L1948.36 1641.37 L1950.00 1638.19 L1950.54 1637.37 L1952.18 1634.28 L1952.36 1633.91 L1953.99 1630.92 L1954.63 1629.73 L1954.90 1629.37 L1955.54 1628.10 L1958.72 1622.19 L1961.99 1616.38 L1964.35 1612.47 L1965.17 1611.29 L1966.99 1608.56 L1967.44 1607.93 L1967.81 1607.74 L1967.90 1607.65 L1968.35 1607.02 L1970.26 1604.38 L1972.26 1601.84 L1974.26 1599.38 L1976.35 1596.93 L1977.89 1595.30 L1980.44 1592.66 L1981.62 1591.39 L1982.98 1590.12 L1984.44 1588.66 L1986.16 1587.21 L1987.07 1586.39 L1989.16 1584.57 L1990.71 1587.30 L1990.89 1587.75 L1991.25 1588.39 L1991.71 1589.03 L1992.16 1589.66 L1992.71 1590.30 L1995.25 1592.11 L1996.07 1592.39 L1997.25 1592.57 L1998.52 1592.48 L2000.07 1592.02 L2001.43 1591.21 L2002.52 1590.57 L2004.16 1589.30 L2016.52 1578.67 L2028.42 1568.76 L2030.15 1567.31 L2039.33 1559.58 L2040.05 1559.04 L2040.96 1558.22 L2049.14 1570.31 L2050.96 1573.03 L2055.96 1580.30 L2057.77 1583.03 L2062.41 1589.75 L2075.86 1609.65 L2082.04 1618.92 L2087.22 1626.55 L2089.94 1630.55 L2092.58 1634.64 L2094.58 1637.82 L2097.03 1641.91 L2098.94 1645.09 L2099.49 1646.18 L2101.21 1649.27 L2104.21 1654.81 L2106.94 1660.08 L2108.66 1663.45 L2110.94 1667.90 L2113.84 1673.35 L2115.57 1676.53 L2118.11 1681.08 L2121.20 1686.25 L2121.75 1687.07 L2124.20 1691.16 L2124.48 1691.71 L2124.93 1692.34 L2128.02 1697.07 L2130.66 1701.16 L2133.74 1705.79 L2134.65 1706.97 L2135.29 1707.79 L2140.02 1714.33 L2142.83 1718.06 L2146.56 1722.87 L2149.56 1726.60 L2153.46 1731.23 L2155.01 1733.05 L2156.19 1734.42 L2164.92 1744.41 L2169.82 1750.23 L2174.64 1756.31 L2179.18 1762.49 L2183.64 1768.76 L2187.72 1774.76 L2197.99 1789.85 L2205.35 1800.75 L2208.17 1804.84 L2212.99 1812.11 L2217.44 1818.74 L2218.53 1820.38 L2222.62 1826.37 L2230.98 1838.64 L2231.71 1839.73 L2234.80 1844.28 L2243.07 1856.54 L2244.89 1859.18 L2245.43 1860.00 L2245.88 1860.81 L2249.88 1866.63 L2261.88 1884.26 L2269.69 1895.89 L2276.24 1905.43 L2278.42 1908.61 L2285.32 1918.88 L2296.68 1935.69 L2302.41 1944.14 L2303.68 1945.96 L2313.31 1960.32 L2319.13 1968.77 L2320.31 1970.58 L2324.67 1977.04 L2332.49 1988.48 L2333.58 1990.12 L2339.58 1999.12 L2340.39 2000.21 L2342.30 2003.02 L2345.12 2007.11 L2354.30 2020.74 L2358.66 2027.20 L2359.21 2028.01 L2359.75 2028.74 L2360.57 2029.92 L2366.02 2038.01 L2375.75 2052.37 L2378.38 2056.18 L2382.92 2063.00 L2392.28 2076.72 L2395.10 2080.99 L2397.28 2084.17 L2403.28 2092.98 L2408.37 2100.44 L2409.82 2102.53 L2412.19 2106.07 L2413.55 2108.16 L2419.73 2117.25 L2422.91 2121.97 L2425.82 2126.15 L2430.27 2132.60 L2432.27 2135.78 L2433.72 2137.78 L2436.99 2142.33 L2441.45 2148.14 L2447.26 2155.50 L2452.90 2162.95 L2463.80 2178.86 L2465.89 2181.76 L2466.53 2182.76 L2466.98 2180.76 L2467.17 2179.85 L2467.62 2177.67 L2467.89 2176.40 L2467.62 2175.49 L2467.80 2174.68 L2468.35 2175.04 L2468.89 2175.49 L2469.44 2176.22 L2473.71 2182.40 L2474.25 2182.04 L2474.80 2181.76 L2487.34 2184.13 L2492.07 2184.94 L2499.24 2186.31 L2512.97 2188.76 L2511.33 2198.39 L2509.79 2204.39 L2508.88 2209.11 L2508.33 2212.11 L2506.97 2220.11 L2506.42 2223.65 L2505.61 2227.74 L2505.42 2228.11 L2505.06 2228.47 L2511.06 2237.47 L2511.51 2238.19 L2517.15 2246.46 L2528.42 2263.09 L2536.05 2274.36 L2538.59 2278.18 L2542.77 2284.17 L2549.77 2294.62 L2550.32 2295.53 L2547.23 2298.35 L2545.59 2299.53 L2544.68 2300.07 L2543.68 2300.44 L2543.68 2300.44 Z" stroke-linejoin="round"/>
	</defs>
	<use xlink:href="#path_LZyiYHLv" style="fill:#6BACAF;stroke:#6BB4D2;stroke-width:5.76"/>
	<defs>
		<path id="path_WVqQeaTf" d="M2365.39 2775.32 L2365.39 2775.32 L2361.48 2774.41 L2360.66 2774.23 L2359.21 2773.96 L2358.93 2773.87 L2358.21 2773.77 L2354.66 2772.96 L2352.39 2772.59 L2347.57 2771.68 L2329.94 2769.05 L2328.58 2768.78 L2321.49 2767.41 L2308.86 2765.05 L2296.32 2762.69 L2291.96 2761.87 L2290.41 2761.60 L2289.69 2761.51 L2282.23 2760.14 L2281.69 2760.05 L2273.78 2758.51 L2267.15 2757.33 L2239.61 2752.15 L2228.53 2750.15 L2218.35 2748.33 L2211.99 2746.97 L2208.81 2746.33 L2205.99 2745.88 L2196.63 2743.79 L2173.37 2739.43 L2157.37 2736.61 L2156.74 2736.43 L2144.29 2734.16 L2142.65 2733.79 L2139.56 2733.25 L2123.48 2730.34 L2119.48 2729.61 L2112.66 2728.34 L2100.48 2726.25 L2087.94 2723.98 L2086.94 2723.80 L2081.86 2722.98 L2078.31 2722.52 L2070.13 2721.25 L2067.77 2720.89 L2067.04 2720.80 L2062.68 2719.89 L2019.88 2711.62 L2007.16 2709.26 L1988.07 2705.44 L1944.18 2696.99 L1938.09 2695.72 L1936.82 2695.54 L1922.19 2692.81 L1919.64 2692.36 L1906.28 2689.99 L1890.84 2687.27 L1877.48 2684.72 L1852.21 2679.82 L1848.12 2679.00 L1842.67 2677.91 L1827.50 2675.00 L1822.13 2673.91 L1792.33 2668.18 L1786.33 2667.00 L1787.06 2662.10 L1788.24 2655.46 L1793.05 2628.11 L1794.96 2617.30 L1795.60 2613.84 L1796.60 2607.76 L1799.87 2589.76 L1800.60 2585.49 L1801.51 2580.22 L1803.23 2570.86 L1804.14 2565.50 L1804.32 2564.68 L1805.14 2559.32 L1807.87 2544.24 L1811.05 2525.88 L1815.05 2501.99 L1815.77 2496.90 L1816.95 2491.26 L1817.23 2490.08 L1817.50 2488.90 L1818.14 2486.54 L1818.23 2486.45 L1818.59 2485.63 L1819.04 2484.54 L1820.04 2482.18 L1821.32 2479.81 L1822.41 2478.00 L1823.50 2476.27 L1824.41 2474.72 L1825.77 2472.91 L1827.13 2471.00 L1829.40 2468.45 L1831.49 2466.00 L1831.95 2465.55 L1832.59 2464.82 L1832.77 2464.55 L1832.86 2464.27 L1832.86 2463.91 L1832.86 2463.73 L1832.77 2463.46 L1832.68 2463.28 L1832.40 2463.00 L1831.95 2462.37 L1829.50 2459.37 L1828.77 2458.64 L1827.86 2457.73 L1827.13 2456.73 L1826.13 2454.64 L1825.86 2453.92 L1825.77 2453.64 L1825.59 2453.10 L1825.22 2451.64 L1824.95 2449.46 L1824.95 2448.83 L1824.86 2447.92 L1824.95 2447.10 L1825.13 2445.65 L1829.86 2419.39 L1840.58 2359.59 L1840.95 2357.69 L1844.31 2339.42 L1848.40 2317.61 L1850.49 2306.89 L1852.21 2297.53 L1855.85 2277.36 L1859.48 2257.55 L1863.03 2237.19 L1864.85 2227.20 L1865.39 2224.02 L1866.75 2216.66 L1870.30 2196.67 L1871.93 2188.21 L1873.57 2177.86 L1874.12 2174.95 L1875.93 2175.40 L1879.11 2176.04 L1880.93 2176.40 L1882.02 2176.67 L1882.93 2176.86 L1884.93 2177.40 L1888.66 2178.22 L1892.29 2178.86 L1897.02 2179.76 L1910.19 2182.31 L1926.64 2185.40 L1931.46 2186.31 L1935.09 2187.03 L1944.45 2188.76 L1955.72 2190.85 L1960.26 2191.67 L1964.63 2192.49 L1970.62 2193.76 L1989.71 2197.30 L1999.70 2199.21 L2006.34 2200.48 L2007.43 2200.75 L2008.34 2200.39 L2011.34 2200.94 L2012.52 2201.12 L2016.97 2202.03 L2018.06 2202.21 L2020.06 2202.66 L2021.24 2202.94 L2022.33 2203.12 L2023.79 2203.39 L2024.51 2204.21 L2025.79 2204.48 L2026.51 2204.66 L2027.78 2204.93 L2029.42 2205.21 L2029.97 2205.30 L2039.42 2207.21 L2042.87 2207.84 L2043.51 2207.93 L2045.51 2208.30 L2051.14 2209.48 L2059.41 2211.11 L2068.04 2212.84 L2072.68 2213.66 L2079.40 2214.93 L2080.13 2215.11 L2084.40 2216.02 L2086.85 2216.48 L2116.93 2222.47 L2121.39 2223.38 L2123.75 2223.84 L2128.02 2224.65 L2142.20 2227.74 L2146.01 2228.47 L2149.01 2229.11 L2153.46 2230.01 L2158.01 2230.83 L2160.19 2231.29 L2167.46 2232.74 L2191.63 2237.10 L2196.54 2237.92 L2202.08 2238.92 L2203.08 2239.10 L2219.71 2242.01 L2220.44 2242.19 L2222.89 2242.65 L2226.26 2243.19 L2227.07 2243.37 L2233.07 2244.46 L2237.71 2245.28 L2248.70 2247.19 L2273.06 2251.64 L2273.87 2251.73 L2288.51 2254.28 L2295.50 2255.55 L2299.41 2256.18 L2300.41 2255.73 L2301.23 2255.82 L2301.86 2255.91 L2302.32 2256.00 L2307.77 2256.82 L2309.59 2257.09 L2312.22 2257.55 L2317.13 2258.46 L2322.67 2259.46 L2324.13 2259.91 L2324.86 2260.09 L2325.85 2260.82 L2329.67 2261.46 L2332.67 2262.09 L2335.03 2262.55 L2338.03 2263.00 L2338.94 2263.18 L2340.67 2263.55 L2341.76 2263.82 L2361.30 2267.54 L2372.47 2269.63 L2374.38 2269.91 L2376.65 2270.36 L2378.65 2270.81 L2388.10 2272.54 L2394.92 2273.81 L2396.10 2274.00 L2400.92 2274.90 L2410.01 2276.63 L2413.46 2277.27 L2423.36 2278.72 L2444.45 2282.99 L2445.63 2283.26 L2447.35 2283.54 L2448.81 2283.81 L2449.17 2283.99 L2448.26 2289.62 L2447.63 2293.62 L2447.63 2294.08 L2447.54 2294.44 L2446.81 2295.17 L2446.08 2299.80 L2444.81 2307.80 L2443.99 2312.61 L2443.17 2317.34 L2442.90 2319.34 L2442.72 2320.16 L2441.99 2324.34 L2441.27 2328.70 L2440.99 2330.33 L2439.45 2339.33 L2435.90 2360.05 L2435.00 2365.50 L2434.90 2365.95 L2434.81 2366.50 L2428.27 2405.94 L2425.73 2418.48 L2425.45 2420.29 L2426.00 2421.48 L2425.91 2421.93 L2425.82 2422.57 L2425.54 2424.02 L2424.82 2428.93 L2424.45 2431.02 L2424.09 2433.65 L2423.91 2434.65 L2423.82 2435.56 L2423.64 2436.92 L2423.36 2438.47 L2423.00 2441.01 L2422.64 2443.19 L2422.55 2444.19 L2422.36 2444.83 L2422.18 2446.01 L2421.27 2445.83 L2421.09 2445.83 L2420.91 2445.83 L2420.46 2446.01 L2420.09 2446.10 L2419.37 2446.46 L2417.46 2446.19 L2417.82 2447.37 L2416.46 2448.37 L2402.92 2529.16 L2395.74 2567.05 L2388.10 2610.03 L2390.47 2610.57 L2391.65 2611.48 L2393.56 2611.75 L2392.56 2617.12 L2391.28 2623.20 L2390.56 2627.02 L2389.83 2631.20 L2388.01 2641.29 L2387.47 2644.10 L2386.83 2647.74 L2385.83 2653.19 L2383.11 2668.82 L2382.20 2673.45 L2381.65 2677.36 L2380.56 2683.63 L2379.83 2687.36 L2378.74 2693.90 L2378.38 2696.26 L2378.02 2697.99 L2377.74 2700.08 L2377.38 2701.99 L2376.02 2710.08 L2375.29 2714.26 L2372.84 2730.43 L2372.11 2734.52 L2370.75 2742.97 L2369.47 2750.51 L2368.75 2754.96 L2367.75 2761.33 L2367.02 2765.05 L2366.75 2766.87 L2366.39 2769.14 L2365.39 2775.32 L2365.39 2775.32 Z" stroke-linejoin="round"/>
	</defs>
	<use xlink:href="#path_WVqQeaTf" style="fill:#09757A;stroke:#097D9B;stroke-width:5.76"/>
	<defs>
		<path id="path_bCPjgHBz" d="M1357.31 1919.79 L1357.31 1919.79 L1314.14 1912.43 L1309.60 1911.61 L1306.15 1910.97 L1302.78 1910.25 L1299.42 1909.52 L1296.15 1908.70 L1292.88 1907.70 L1290.61 1906.98 L1287.34 1905.98 L1284.15 1904.79 L1280.88 1903.52 L1277.79 1902.25 L1274.52 1900.80 L1271.43 1899.34 L1267.43 1897.25 L1264.34 1895.62 L1262.25 1894.34 L1259.16 1892.53 L1255.35 1890.16 L1252.44 1888.17 L1250.62 1886.80 L1246.81 1884.08 L1244.08 1881.90 L1241.35 1879.62 L1237.81 1876.53 L1235.26 1874.17 L1233.54 1872.54 L1230.99 1869.99 L1228.54 1867.36 L1226.18 1864.81 L1224.63 1862.99 L1223.00 1861.09 L1220.00 1857.45 L1218.63 1855.63 L1216.45 1852.73 L1214.27 1849.73 L1212.18 1846.73 L1210.27 1843.91 L1207.55 1839.73 L1203.64 1833.92 L1202.09 1831.74 L1200.82 1829.74 L1199.55 1827.74 L1194.73 1820.74 L1192.83 1817.83 L1188.83 1811.84 L1186.01 1807.84 L1184.10 1804.84 L1182.65 1802.84 L1177.38 1794.84 L1172.65 1787.85 L1167.93 1780.85 L1160.02 1769.13 L1153.84 1759.95 L1151.20 1755.95 L1147.66 1750.77 L1145.84 1748.14 L1141.03 1740.87 L1136.57 1734.32 L1132.30 1728.05 L1127.94 1721.78 L1123.49 1715.79 L1118.85 1709.88 L1114.13 1704.07 L1109.40 1698.34 L1104.49 1692.71 L1099.50 1687.16 L1094.41 1681.80 L1089.23 1676.53 L1083.96 1671.35 L1083.41 1670.90 L1080.87 1668.35 L1075.60 1663.63 L1070.33 1658.99 L1065.87 1655.09 L1061.33 1651.45 L1058.51 1649.18 L1053.88 1645.55 L1048.42 1641.46 L1042.88 1637.55 L1037.34 1633.73 L1031.70 1630.01 L1026.07 1626.37 L1020.25 1622.92 L1015.26 1619.92 L1012.26 1618.28 L1006.08 1614.83 L1002.08 1612.74 L996.81 1610.11 L990.72 1607.20 L990.26 1607.02 L984.63 1604.38 L978.54 1601.75 L972.36 1599.20 L966.18 1596.84 L960.19 1594.66 L955.46 1593.02 L949.01 1590.93 L943.65 1589.21 L936.83 1587.30 L932.38 1586.12 L927.92 1585.03 L923.29 1583.94 L920.20 1583.21 L915.75 1582.30 L910.48 1581.21 L900.75 1579.48 L887.85 1577.30 L872.40 1574.67 L856.59 1571.94 L834.69 1568.31 L827.96 1567.22 L812.88 1564.58 L786.61 1560.04 L776.44 1558.31 L767.80 1556.86 L763.99 1556.13 L761.17 1555.68 L747.72 1553.31 L738.27 1551.68 L735.36 1551.13 L688.74 1542.95 L629.67 1532.69 L616.04 1530.23 L606.05 1528.51 L577.69 1523.60 L523.44 1514.06 L509.99 1511.79 L490.54 1508.33 L467.46 1504.34 L444.56 1500.34 L411.03 1494.34 L408.76 1493.98 L367.13 1486.71 L364.23 1486.16 L349.96 1483.71 L318.70 1478.16 L316.52 1477.80 L315.15 1477.53 L310.52 1476.71 L297.80 1474.53 L253.63 1466.90 L244.00 1465.17 L244.27 1463.54 L251.36 1428.55 L256.27 1399.20 L259.90 1382.48 L259.90 1381.84 L262.36 1367.49 L263.90 1359.22 L268.81 1329.05 L268.90 1328.14 L269.72 1324.69 L270.08 1322.51 L271.08 1317.96 L273.81 1302.88 L287.07 1221.82 L287.07 1219.82 L297.62 1158.85 L297.89 1156.94 L298.25 1154.94 L299.43 1148.86 L299.61 1147.86 L301.70 1135.86 L316.34 1055.08 L327.97 989.02 L345.51 892.33 L359.68 861.89 L378.13 743.67 L415.48 748.40 L519.44 769.48 L519.17 769.84 L514.63 782.02 L511.63 790.65 L507.90 801.65 L506.81 804.46 L506.72 805.19 L506.36 807.01 L504.54 817.91 L503.63 823.18 L503.36 823.91 L503.08 824.54 L502.54 825.27 L501.99 825.91 L499.63 827.82 L492.54 833.81 L501.27 835.36 L518.35 838.36 L552.34 844.26 L584.96 849.81 L587.69 834.18 L588.51 829.63 L594.05 798.19 L594.96 793.01 L595.41 790.29 L595.87 788.83 L596.32 788.11 L596.69 787.74 L597.50 787.38 L598.59 787.20 L602.59 787.92 L611.77 789.65 L617.50 790.65 L626.22 792.29 L632.94 793.47 L634.94 793.83 L639.31 794.01 L639.58 794.10 L640.31 794.29 L641.12 794.65 L643.58 795.28 L645.21 795.83 L646.58 796.19 L650.85 796.83 L653.57 797.47 L656.94 798.37 L659.84 799.01 L661.30 799.10 L662.48 799.19 L664.30 799.56 L666.39 799.83 L667.84 800.10 L669.75 800.10 L670.93 800.28 L672.38 800.56 L675.75 801.28 L683.65 803.19 L690.74 804.46 L698.92 805.37 L708.37 807.01 L709.82 807.37 L712.55 808.28 L714.73 808.82 L718.37 809.55 L721.64 810.19 L727.36 810.64 L729.18 810.55 L730.09 810.73 L732.27 811.37 L733.27 811.82 L734.72 812.28 L736.81 812.64 L740.18 813.10 L742.90 813.73 L743.63 814.09 L744.54 814.82 L745.45 815.28 L746.63 815.82 L750.35 817.00 L751.35 817.37 L752.08 817.73 L766.62 818.64 L788.52 821.73 L817.78 827.54 L836.96 830.27 L837.32 830.45 L837.59 830.45 L838.14 830.63 L840.78 831.09 L841.68 831.18 L844.86 831.81 L845.59 831.81 L845.77 831.81 L846.32 831.81 L846.86 831.91 L847.50 832.09 L854.59 833.45 L855.95 833.81 L857.22 834.18 L857.77 834.36 L859.13 834.54 L859.31 834.54 L859.95 834.81 L860.13 834.90 L860.40 835.18 L860.95 835.36 L861.68 835.54 L861.95 835.54 L862.13 835.54 L862.31 835.45 L862.49 835.27 L862.68 835.09 L862.77 834.90 L862.86 834.63 L880.40 836.36 L895.75 837.90 L898.30 837.99 L907.48 839.63 L922.29 842.72 L927.38 842.54 L932.92 842.08 L935.01 841.99 L957.37 846.99 L959.64 846.63 L963.09 846.35 L964.82 846.35 L966.82 846.63 L969.82 847.08 L971.45 847.35 L987.18 850.17 L1006.35 853.44 L1008.99 852.90 L1011.17 852.62 L1012.80 852.71 L1015.98 853.90 L1019.34 855.71 L1026.89 857.08 L1028.34 856.98 L1030.07 857.17 L1031.89 858.80 L1033.79 860.53 L1036.34 864.25 L1036.97 864.25 L1037.70 864.07 L1038.52 863.89 L1040.25 863.53 L1042.88 863.25 L1045.15 863.35 L1045.79 863.53 L1049.06 864.80 L1054.24 865.98 L1055.42 866.16 L1061.78 867.25 L1065.51 867.98 L1069.05 868.89 L1074.96 872.52 L1078.87 873.34 L1080.41 873.70 L1086.77 874.70 L1093.04 875.43 L1094.41 875.43 L1095.04 875.25 L1112.13 879.25 L1114.76 879.88 L1117.31 880.52 L1118.04 880.70 L1118.85 880.88 L1126.49 882.16 L1130.12 882.61 L1135.85 883.61 L1155.29 886.79 L1160.75 887.52 L1160.56 885.79 L1161.56 886.34 L1162.84 886.79 L1182.19 890.24 L1185.37 890.79 L1185.01 892.06 L1185.10 892.97 L1185.46 894.06 L1185.83 896.06 L1185.92 897.60 L1185.65 900.24 L1185.37 901.97 L1184.46 907.60 L1180.56 930.23 L1179.47 936.77 L1178.38 943.40 L1177.74 946.49 L1177.10 949.04 L1176.01 955.85 L1175.65 957.85 L1175.47 959.67 L1173.01 974.11 L1172.47 976.93 L1172.01 977.75 L1169.83 989.02 L1170.02 989.93 L1169.92 991.11 L1168.83 995.29 L1168.65 996.83 L1168.56 998.38 L1167.20 1005.74 L1166.84 1008.55 L1164.84 1017.73 L1164.02 1023.00 L1162.47 1030.36 L1161.84 1033.18 L1160.75 1035.27 L1162.02 1035.45 L1169.47 1037.09 L1174.47 1038.18 L1187.55 1040.54 L1198.55 1042.54 L1218.18 1045.99 L1230.63 1048.08 L1259.62 1053.35 L1272.16 1055.81 L1288.43 1058.71 L1296.88 1060.17 L1300.88 1060.99 L1310.87 1062.71 L1329.77 1066.07 L1355.58 1070.53 L1375.12 1073.98 L1381.21 1074.98 L1418.92 1081.61 L1441.46 1085.61 L1453.00 1087.70 L1455.36 1088.16 L1457.09 1088.43 L1468.90 1090.52 L1494.08 1095.15 L1537.42 1102.97 L1563.60 1107.96 L1587.13 1112.05 L1599.67 1113.87 L1602.04 1114.14 L1603.22 1114.23 L1604.22 1114.42 L1619.39 1116.78 L1631.12 1118.78 L1640.48 1120.32 L1672.10 1126.23 L1677.73 1127.14 L1692.27 1129.59 L1693.82 1129.86 L1696.82 1130.23 L1699.91 1130.32 L1701.45 1130.23 L1704.09 1129.86 L1708.09 1128.96 L1709.45 1128.59 L1710.81 1128.14 L1712.63 1127.41 L1715.90 1125.78 L1717.99 1124.50 L1721.63 1121.87 L1722.99 1120.69 L1727.81 1116.32 L1734.08 1110.96 L1734.71 1110.51 L1735.08 1110.24 L1736.17 1109.33 L1740.62 1112.42 L1747.44 1121.87 L1757.70 1135.41 L1761.79 1138.32 L1735.17 1098.88 L1718.36 1074.16 L1701.54 1049.63 L1695.73 1040.81 L1684.37 1024.27 L1676.01 1011.46 L1658.47 985.66 L1649.47 972.75 L1647.02 969.03 L1643.38 963.39 L1610.58 915.14 L1608.40 911.96 L1605.22 916.05 L1584.31 885.25 L1568.78 862.26 L1565.05 856.71 L1556.05 843.45 L1546.60 829.63 L1537.51 816.09 L1533.88 810.73 L1524.97 797.65 L1516.16 784.56 L1509.62 774.93 L1507.89 772.48 L1504.44 767.30 L1495.17 753.58 L1487.53 742.31 L1486.71 740.95 L1486.44 740.49 L1459.63 700.96 L1454.09 692.78 L1452.09 689.88 L1450.73 687.79 L1447.09 682.52 L1442.10 675.07 L1441.73 674.52 L1441.28 673.97 L1431.28 659.07 L1394.84 605.28 L1391.57 600.46 L1382.30 586.74 L1372.58 572.47 L1371.58 570.84 L1369.49 567.84 L1367.58 564.93 L1366.21 562.93 L1357.13 549.48 L1360.76 546.49 L1362.13 545.58 L1363.40 544.76 L1366.03 542.40 L1367.85 540.31 L1368.76 539.03 L1369.94 537.13 L1370.67 535.58 L1371.21 534.22 L1372.21 531.04 L1374.39 519.23 L1382.12 474.70 L1391.66 420.09 L1404.02 348.57 L1417.83 269.88 L1420.01 256.07 L1424.83 257.16 L1433.28 259.34 L1436.64 260.07 L1448.37 262.07 L1456.36 263.43 L1464.81 264.79 L1484.35 268.15 L1493.98 270.06 L1495.80 270.24 L1503.44 270.61 L1508.43 271.15 L1511.61 271.70 L1519.88 273.42 L1526.97 274.79 L1531.52 275.42 L1540.51 276.88 L1554.87 279.51 L1568.14 281.60 L1580.23 283.78 L1585.50 284.87 L1592.04 286.06 L1619.94 291.05 L1625.75 292.23 L1633.30 293.51 L1638.75 294.51 L1653.02 296.78 L1660.83 298.41 L1664.01 298.87 L1676.73 301.23 L1684.10 302.50 L1704.36 306.23 L1716.36 308.05 L1718.08 308.32 L1730.62 310.59 L1733.35 310.50 L1734.08 310.68 L1735.53 311.32 L1737.80 311.86 L1741.16 312.41 L1756.80 315.22 L1775.61 318.68 L1780.60 319.68 L1784.60 320.31 L1789.87 321.13 L1789.96 321.13 L1813.14 325.31 L1831.13 328.76 L1836.95 329.58 L1841.58 330.49 L1847.03 331.40 L1850.94 332.31 L1853.03 332.58 L1864.48 334.49 L1867.21 335.03 L1879.75 337.21 L1889.38 338.85 L1895.74 339.76 L1899.74 340.67 L1905.01 341.39 L1915.92 343.21 L1925.55 344.94 L1933.18 346.21 L1936.00 346.76 L1939.00 347.39 L1946.45 348.66 L1957.63 350.66 L1968.72 352.48 L1973.17 353.39 L1975.99 354.12 L1980.98 354.84 L1996.52 357.30 L2000.16 357.93 L2012.70 360.20 L2014.15 360.48 L2013.61 358.02 L2014.15 355.84 L2015.79 345.85 L2016.43 342.49 L2016.97 337.94 L2017.06 337.21 L2018.61 330.76 L2021.79 312.13 L2021.61 310.68 L2021.42 309.05 L2021.24 307.14 L2021.88 302.23 L2022.06 301.23 L2022.60 300.14 L2024.15 297.87 L2024.42 297.23 L2025.33 292.33 L2026.42 284.96 L2026.79 280.15 L2027.69 278.06 L2033.33 246.25 L2034.15 240.89 L2036.60 226.54 L2041.42 198.82 L2041.51 198.00 L2041.23 197.37 L2040.78 196.91 L2042.42 187.83 L2053.14 129.40 L2070.86 28.26 L2104.66 30.90 L2146.92 37.89 L2174.64 42.53 L2176.37 42.71 L2222.98 48.89 L2223.62 51.70 L2224.07 56.25 L2222.17 57.79 L2220.53 59.16 L2218.99 75.24 L2211.99 119.86 L2205.45 164.38 L2198.45 208.45 L2197.36 209.45 L2195.27 212.18 L2193.18 213.81 L2192.36 214.81 L2191.81 215.90 L2190.45 222.36 L2190.72 224.45 L2190.54 227.54 L2189.91 230.72 L2188.54 237.44 L2186.00 253.16 L2184.18 263.07 L2182.73 268.06 L2181.00 271.70 L2180.64 273.15 L2180.91 276.42 L2180.91 277.79 L2180.45 281.15 L2179.18 288.05 L2177.00 299.50 L2176.18 303.96 L2176.18 305.68 L2176.55 307.41 L2176.46 310.59 L2177.27 314.59 L2177.09 315.77 L2177.18 319.59 L2177.09 321.68 L2176.46 324.31 L2175.27 324.13 L2174.09 324.22 L2172.73 324.22 L2172.46 324.40 L2172.19 324.77 L2170.91 330.67 L2170.55 333.85 L2168.73 344.03 L2167.64 349.48 L2167.10 351.94 L2166.55 353.75 L2165.46 361.11 L2165.01 363.29 L2165.01 364.20 L2164.82 365.75 L2164.19 368.02 L2163.73 368.84 L2163.73 370.75 L2163.37 372.56 L2162.92 376.11 L2162.01 383.83 L2203.81 395.83 L2236.25 401.28 L2249.88 403.91 L2296.05 411.64 L2310.86 414.09 L2343.58 420.27 L2344.21 420.18 L2346.21 420.54 L2347.21 421.00 L2348.57 422.63 L2348.85 422.72 L2349.21 422.90 L2349.75 422.72 L2350.30 422.36 L2351.30 421.27 L2452.17 438.99 L2452.90 439.08 L2459.99 440.35 L2451.35 490.51 L2441.99 549.39 L2434.72 594.74 L2430.63 604.10 L2429.00 623.91 L2428.73 625.72 L2428.36 627.54 L2428.00 629.54 L2410.10 684.79 L2410.19 686.06 L2410.10 689.51 L2410.28 693.42 L2410.82 695.51 L2411.73 698.24 L2412.10 700.42 L2412.37 703.05 L2412.55 706.87 L2412.73 708.05 L2413.19 709.23 L2413.37 713.23 L2413.28 715.50 L2413.00 718.23 L2407.10 747.22 L2406.92 748.21 L2406.55 749.76 L2405.64 758.57 L2404.10 767.12 L2403.92 768.30 L2406.19 768.75 L2408.37 769.11 L2410.46 769.48 L2415.18 770.11 L2416.00 770.30 L2429.09 772.30 L2432.45 772.93 L2436.45 773.75 L2438.54 774.39 L2438.99 774.57 L2439.90 774.75 L2441.27 775.66 L2442.72 776.20 L2443.08 776.11 L2444.45 775.29 L2445.45 775.20 L2445.81 775.20 L2446.45 774.84 L2446.99 774.84 L2447.90 775.48 L2448.72 775.75 L2451.17 776.29 L2457.26 777.29 L2467.35 779.11 L2476.16 781.20 L2476.80 781.20 L2484.34 782.29 L2490.97 783.84 L2493.25 784.20 L2499.24 785.65 L2504.33 786.65 L2511.69 787.74 L2515.24 788.47 L2521.24 789.83 L2526.42 790.83 L2530.32 791.83 L2539.32 793.38 L2541.05 793.29 L2547.77 794.01 L2549.50 794.01 L2550.68 794.19 L2557.68 795.28 L2558.86 795.28 L2559.68 795.28 L2560.40 795.28 L2561.68 795.56 L2563.04 796.28 L2563.67 796.47 L2565.76 796.47 L2566.86 796.74 L2567.49 797.10 L2568.58 798.83 L2569.13 799.28 L2569.95 799.37 L2571.13 799.37 L2571.40 799.28 L2572.13 798.92 L2573.22 798.28 L2574.40 798.01 L2575.22 798.10 L2580.40 799.01 L2582.76 799.56 L2585.67 800.10 L2590.66 801.01 L2594.03 801.65 L2603.75 803.28 L2611.84 804.92 L2621.65 806.55 L2624.11 806.83 L2624.29 806.83 L2618.11 848.17 L2612.47 880.70 L2610.93 889.06 L2625.47 893.24 L2641.46 895.88 L2684.08 902.51 L2680.18 924.32 L2677.45 940.13 L2673.00 966.30 L2670.73 978.66 L2666.18 1005.46 L2658.64 1049.08 L2657.82 1053.53 L2655.28 1067.62 L2650.91 1092.70 L2647.10 1113.33 L2644.10 1129.86 L2643.19 1135.23 L2642.64 1138.13 L2644.92 1138.77 L2650.91 1139.77 L2660.46 1141.40 L2672.18 1143.59 L2681.90 1145.95 L2685.72 1147.22 L2687.99 1148.40 L2690.72 1147.58 L2703.80 1148.86 L2708.26 1148.22 L2714.80 1148.86 L2719.34 1149.22 L2727.07 1150.13 L2739.52 1151.85 L2756.60 1157.49 L2764.24 1159.40 L2791.68 1163.58 L2788.95 1173.48 L2787.50 1181.93 L2786.95 1189.93 L2784.23 1202.01 L2782.96 1209.65 L2780.87 1222.19 L2778.41 1236.45 L2776.32 1248.99 L2771.51 1276.80 L2771.23 1278.16 L2762.15 1318.33 L2761.42 1319.60 L2760.78 1319.51 L2716.34 1309.88 L2660.27 1299.97 L2650.73 1299.43 L2647.46 1298.79 L2625.83 1295.34 L2614.84 1293.34 L2614.02 1300.24 L2609.75 1329.41 L2606.66 1347.22 L2605.02 1355.13 L2603.57 1364.03 L2490.07 1380.75 L2449.81 1386.02 L2447.72 1386.30 L2397.92 1392.84 L2347.30 1399.65 L2345.30 1399.93 L2305.77 1405.11 L2294.14 1406.92 L2292.32 1418.46 L2291.59 1421.55 L2290.78 1425.46 L2289.23 1433.91 L2284.32 1434.18 L2283.33 1433.73 L2282.87 1433.64 L2282.33 1433.73 L2280.42 1434.28 L2273.51 1436.73 L2270.15 1437.36 L2267.24 1437.46 L2260.79 1436.73 L2258.06 1436.82 L2254.70 1437.09 L2246.61 1438.09 L2245.43 1438.27 L2244.98 1438.46 L2244.79 1438.64 L2244.61 1439.00 L2244.52 1439.91 L2244.79 1444.54 L2244.79 1447.00 L2244.61 1450.18 L2244.43 1451.99 L2243.98 1454.54 L2243.25 1457.54 L2242.43 1459.54 L2239.80 1465.72 L2236.07 1463.81 L2237.43 1461.08 L2239.25 1456.45 L2239.98 1454.27 L2240.80 1447.91 L2240.07 1432.00 L2239.71 1431.46 L2219.89 1434.28 L2219.35 1434.00 L2203.26 1436.18 L2199.54 1436.64 L2199.08 1437.00 L2184.36 1439.00 L2181.55 1439.64 L2177.82 1440.36 L2173.18 1441.82 L2169.91 1443.09 L2165.01 1445.09 L2161.46 1446.91 L2156.19 1450.00 L2151.74 1453.18 L2147.92 1456.27 L2140.74 1462.26 L2136.65 1466.08 L2129.20 1473.53 L2129.29 1472.71 L2130.20 1467.17 L2129.84 1466.90 L2126.84 1469.35 L2125.38 1470.62 L2122.02 1473.44 L2116.75 1477.98 L2115.21 1479.16 L2112.57 1481.35 L2110.03 1483.44 L2108.30 1484.89 L2106.39 1486.52 L2104.57 1488.07 L2102.21 1490.07 L2100.21 1491.70 L2094.49 1496.70 L2091.22 1499.52 L2089.31 1501.06 L2087.49 1502.61 L2085.58 1504.06 L2083.67 1505.52 L2081.13 1507.33 L2077.86 1509.79 L2072.95 1513.33 L2071.59 1513.60 L2050.32 1530.60 L2049.59 1530.78 L2042.23 1529.87 L2037.05 1529.05 L2033.24 1528.14 L2030.69 1527.33 L2030.06 1526.87 L2026.97 1527.51 L2025.79 1528.32 L2019.42 1527.23 L2026.33 1536.78 L2031.33 1543.95 L2032.06 1545.04 L2032.42 1545.50 L2033.06 1546.41 L2035.42 1550.04 L2040.96 1558.22 L2040.05 1559.04 L2039.33 1559.58 L2030.15 1567.31 L2028.42 1568.76 L2016.52 1578.67 L2004.16 1589.30 L2002.52 1590.57 L2001.43 1591.21 L2000.07 1592.02 L1998.52 1592.48 L1997.25 1592.57 L1996.07 1592.39 L1995.25 1592.11 L1992.71 1590.30 L1992.16 1589.66 L1991.71 1589.03 L1991.25 1588.39 L1990.89 1587.75 L1990.71 1587.30 L1989.16 1584.57 L1987.07 1586.39 L1986.16 1587.21 L1984.44 1588.66 L1982.98 1590.12 L1981.62 1591.39 L1980.44 1592.66 L1977.89 1595.30 L1976.35 1596.93 L1974.26 1599.38 L1972.26 1601.84 L1970.26 1604.38 L1968.35 1607.02 L1967.90 1607.65 L1967.81 1607.74 L1967.44 1607.93 L1966.99 1608.56 L1965.17 1611.29 L1964.35 1612.47 L1961.99 1616.38 L1958.72 1622.19 L1955.54 1628.10 L1954.90 1629.37 L1954.63 1629.73 L1953.99 1630.92 L1952.36 1633.91 L1952.18 1634.28 L1950.54 1637.37 L1950.00 1638.19 L1948.36 1641.37 L1943.82 1649.82 L1942.18 1652.91 L1938.64 1659.45 L1935.09 1665.99 L1931.37 1672.72 L1929.00 1676.99 L1928.09 1677.44 L1926.64 1679.89 L1924.82 1682.80 L1922.73 1685.89 L1920.46 1689.16 L1918.55 1691.98 L1916.92 1694.34 L1915.10 1697.07 L1912.56 1700.70 L1910.74 1702.97 L1909.10 1705.34 L1906.38 1709.24 L1901.83 1715.79 L1899.74 1718.88 L1894.65 1725.96 L1891.02 1731.23 L1889.47 1733.32 L1887.84 1735.78 L1882.11 1744.23 L1879.20 1748.50 L1878.30 1749.77 L1877.57 1750.86 L1876.30 1752.86 L1875.48 1754.13 L1874.66 1755.50 L1873.30 1757.95 L1871.66 1761.04 L1869.57 1765.86 L1868.75 1767.86 L1867.94 1769.76 L1866.94 1772.94 L1866.12 1775.03 L1865.21 1778.67 L1863.30 1787.03 L1862.66 1790.94 L1862.30 1793.75 L1865.12 1799.66 L1865.03 1800.57 L1864.57 1803.48 L1864.39 1805.57 L1863.21 1814.02 L1862.66 1818.01 L1862.21 1820.56 L1860.76 1829.56 L1859.76 1834.19 L1856.49 1833.74 L1782.79 1821.92 L1743.53 1814.83 L1715.90 1810.11 L1709.81 1809.02 L1708.36 1808.75 L1706.91 1808.56 L1698.18 1806.93 L1689.37 1805.29 L1664.38 1801.20 L1635.11 1796.48 L1622.03 1794.30 L1595.40 1790.48 L1593.13 1789.57 L1591.40 1788.66 L1588.68 1785.48 L1584.59 1781.03 L1583.68 1780.03 L1575.23 1768.95 L1573.05 1771.94 L1561.23 1788.03 L1558.32 1792.39 L1549.51 1804.57 L1544.42 1811.47 L1540.88 1816.47 L1535.24 1824.56 L1531.43 1830.01 L1526.43 1836.37 L1520.07 1845.28 L1510.25 1858.91 L1504.89 1866.36 L1501.89 1870.45 L1498.80 1874.81 L1495.35 1879.44 L1493.44 1884.26 L1489.90 1891.16 L1484.44 1902.52 L1476.99 1917.70 L1466.81 1938.87 L1444.37 1934.96 L1388.66 1925.15 L1387.12 1924.88 L1382.66 1924.06 L1377.57 1923.24 L1372.76 1922.42 L1357.31 1919.79 L1357.31 1919.79 Z" stroke-linejoin="round"/>
	</defs>
	<use xlink:href="#path_bCPjgHBz" style="fill:#004249;stroke:#00465F;stroke-width:5.76"/>
</svg>
