<?xml version="1.0" encoding="UTF-8" standalone="no"?>
<!-- This is a Stata 16.1 generated SVG file (http://www.stata.com) -->

<svg version="1.1" width="6.50in" height="4.00in" viewBox="0 0 4680 2880" xmlns="http://www.w3.org/2000/svg" xmlns:xlink="http://www.w3.org/1999/xlink">
	<desc>Stata Graph - Graph</desc>
	<rect x="0" y="0" width="4680" height="2880" style="fill:#FFFFFF;stroke:none"/>
	<defs>
		<path id="path_zHnSIbIK" d="M4124.54 2811.99 L4124.54 2811.99 L4123.08 2811.99 L4120.15 2811.55 L4120.45 2783.17 L4106.11 2782.88 L4104.94 2782.88 L4103.63 2782.59 L4101.73 2782.00 L4089.59 2777.76 L4086.66 2776.88 L4080.52 2723.49 L4072.92 2663.23 L4103.92 2666.16 L4120.45 2662.06 L4120.45 2654.46 L4093.24 2649.78 L4089.00 2648.46 L4081.84 2646.41 L4075.55 2642.61 L4062.53 2631.35 L4061.07 2630.32 L4054.05 2626.96 L4048.35 2625.50 L4042.64 2625.50 L4039.72 2625.64 L4033.72 2626.08 L4030.94 2626.81 L4028.46 2627.69 L4025.09 2628.86 L4022.02 2630.47 L4018.95 2632.22 L4015.73 2634.27 L4012.08 2636.61 L4006.52 2639.68 L3996.72 2644.22 L3989.11 2647.14 L3984.14 2648.90 L3980.34 2650.07 L3976.98 2650.36 L3974.34 2650.51 L3971.42 2650.07 L3968.64 2649.19 L3966.15 2648.17 L3962.64 2646.12 L3955.04 2642.17 L3958.84 2630.47 L3960.89 2624.33 L3961.47 2622.57 L3962.35 2619.50 L3963.52 2616.28 L3965.28 2609.26 L3966.74 2602.38 L3963.08 2601.80 L3957.96 2600.48 L3952.99 2599.17 L3948.46 2597.85 L3941.00 2595.80 L3936.32 2594.63 L3930.61 2593.46 L3923.74 2592.29 L3918.48 2591.71 L3913.50 2591.27 L3906.48 2590.98 L3907.65 2635.44 L3908.09 2652.12 L3841.26 2652.99 L3841.26 2638.22 L3841.70 2615.99 L3841.99 2614.23 L3836.58 2611.89 L3799.57 2667.33 L3696.32 2669.67 L3693.98 2669.38 L3692.52 2669.52 L3692.81 2648.02 L3692.52 2627.25 L3693.11 2621.84 L3693.25 2609.11 L3692.81 2580.30 L3693.25 2573.13 L3693.69 2569.77 L3693.40 2564.50 L3692.67 2554.41 L3696.47 2547.68 L3699.98 2541.68 L3703.49 2535.25 L3719.72 2507.46 L3730.84 2488.00 L3740.64 2471.18 L3757.16 2442.22 L3758.33 2440.17 L3762.87 2432.28 L3764.47 2429.35 L3766.23 2426.13 L3760.23 2426.13 L3749.56 2426.43 L3742.24 2426.57 L3729.81 2426.72 L3713.29 2426.86 L3693.98 2426.72 L3693.54 2416.33 L3693.25 2410.48 L3692.37 2408.73 L3692.37 2402.29 L3689.74 2401.56 L3690.33 2400.24 L3692.37 2400.39 L3692.52 2392.78 L3692.08 2376.11 L3691.93 2366.31 L3691.20 2318.33 L3691.06 2308.53 L3691.06 2306.34 L3690.91 2304.15 L3689.30 2187.72 L3689.30 2184.94 L3689.16 2180.84 L3689.16 2176.31 L3690.18 2174.11 L3689.74 2120.87 L3689.74 2118.97 L3689.45 2112.54 L3689.01 2067.19 L3689.01 2063.24 L3688.57 2046.57 L3688.43 2042.91 L3688.28 2027.70 L3688.28 2020.53 L3688.28 2012.93 L3688.28 2010.15 L3688.28 2007.22 L3688.13 2004.01 L3688.13 1988.65 L3688.13 1971.24 L3687.84 1958.66 L3686.96 1916.25 L3686.82 1905.42 L3686.09 1884.51 L3686.09 1881.00 L3686.09 1867.39 L3685.94 1849.69 L3685.94 1846.04 L3685.65 1817.52 L3685.35 1802.45 L3685.06 1793.09 L3684.91 1791.19 L3683.74 1788.85 L3683.01 1762.37 L3682.28 1725.95 L3681.99 1716.01 L3681.41 1704.60 L3681.26 1697.87 L3681.11 1686.31 L3680.53 1626.05 L3679.07 1538.15 L3678.92 1531.86 L3678.77 1522.79 L3678.63 1502.02 L3678.63 1497.48 L3678.63 1492.66 L3678.48 1487.68 L3678.48 1483.44 L3678.48 1473.20 L3678.33 1464.57 L3678.48 1463.11 L3678.48 1461.50 L3678.33 1452.14 L3678.33 1444.97 L3678.19 1436.64 L3678.19 1430.49 L3678.04 1418.50 L3677.75 1393.49 L3677.16 1367.60 L3676.43 1332.79 L3676.14 1321.23 L3675.41 1283.49 L3674.82 1258.34 L3674.53 1233.03 L3674.39 1207.14 L3674.09 1192.52 L3674.09 1188.27 L3674.09 1186.52 L3673.95 1180.08 L3673.80 1173.50 L3673.80 1167.21 L3673.65 1154.93 L3673.07 1116.90 L3672.63 1106.36 L3672.48 1099.93 L3672.34 1086.47 L3670.88 1042.74 L3670.58 1028.40 L3670.44 1021.82 L3670.29 1018.02 L3670.14 1014.36 L3671.31 1011.73 L3671.61 1004.12 L3671.61 997.25 L3671.75 983.50 L3671.61 979.40 L3671.61 976.19 L3670.44 951.03 L3670.14 944.30 L3668.68 941.67 L3668.83 934.79 L3668.83 928.94 L3668.83 924.12 L3668.53 904.81 L3668.39 883.89 L3667.66 844.40 L3667.36 827.14 L3666.63 792.77 L3666.34 774.05 L3665.76 749.62 L3665.76 743.91 L3665.61 737.33 L3665.46 731.92 L3665.32 725.92 L3665.03 711.30 L3664.73 700.91 L3663.86 649.86 L3663.71 635.82 L3663.42 616.52 L3662.83 583.75 L3661.66 532.70 L3661.66 524.51 L3661.81 515.59 L3661.81 506.96 L3661.81 501.84 L3661.81 501.40 L3661.66 498.19 L3661.37 495.26 L3665.61 495.11 L3670.00 495.11 L3674.53 495.11 L3693.69 494.82 L3712.41 494.53 L3744.88 494.09 L3747.80 494.09 L3754.24 493.94 L3758.48 493.94 L3780.12 493.51 L3835.11 492.77 L3860.12 492.48 L3876.50 492.19 L3885.13 492.04 L3899.32 491.90 L3909.41 491.90 L3919.50 491.75 L3925.35 491.75 L3926.52 491.75 L3934.86 491.75 L3964.98 491.02 L3986.19 490.73 L3990.72 490.58 L3996.72 490.43 L4002.72 490.29 L4009.15 490.29 L4026.85 490.14 L4045.42 489.85 L4047.76 489.85 L4051.71 489.85 L4079.79 489.41 L4085.79 489.26 L4092.51 489.12 L4098.51 489.12 L4104.51 489.12 L4124.10 488.82 L4145.46 488.68 L4149.26 488.68 L4159.35 488.53 L4182.75 488.24 L4201.76 488.09 L4212.59 488.09 L4220.19 487.95 L4238.62 487.65 L4245.35 487.51 L4283.22 486.78 L4297.85 486.63 L4320.81 486.05 L4331.63 485.90 L4346.40 485.75 L4373.17 485.31 L4378.43 485.31 L4424.50 484.58 L4499.23 483.85 L4501.87 483.85 L4504.35 483.71 L4511.23 483.71 L4520.00 483.56 L4521.90 483.56 L4523.51 483.56 L4542.23 483.12 L4588.74 481.95 L4589.62 539.87 L4586.11 539.87 L4524.39 541.48 L4524.83 572.05 L4524.98 584.63 L4525.27 596.92 L4525.27 599.26 L4525.27 602.04 L4525.56 613.44 L4526.44 657.18 L4526.88 677.95 L4526.88 694.04 L4527.02 700.62 L4527.17 724.31 L4527.31 737.04 L4528.34 804.47 L4528.48 814.56 L4528.78 845.57 L4528.92 869.70 L4529.07 875.70 L4529.36 896.33 L4529.65 928.21 L4529.65 932.75 L4529.80 937.57 L4529.95 962.29 L4530.24 967.56 L4535.21 967.56 L4539.45 967.41 L4545.16 967.26 L4561.54 966.97 L4571.63 966.83 L4574.26 966.97 L4576.02 966.83 L4577.63 966.83 L4580.55 966.83 L4583.04 966.68 L4585.96 966.68 L4590.20 966.68 L4606.00 966.53 L4608.05 966.53 L4621.35 966.24 L4629.84 965.80 L4633.93 965.80 L4616.67 994.03 L4607.46 1008.07 L4595.18 1027.38 L4565.78 1073.02 L4545.16 1105.34 L4538.14 1116.16 L4535.80 1119.53 L4533.31 1123.62 L4533.31 1126.70 L4533.46 1132.84 L4533.46 1134.89 L4533.31 1142.64 L4533.60 1157.56 L4533.90 1174.09 L4533.90 1175.84 L4533.75 1201.88 L4532.87 1203.92 L4532.87 1205.53 L4532.87 1207.58 L4533.16 1219.14 L4533.16 1222.35 L4533.31 1228.21 L4533.31 1235.52 L4533.46 1254.83 L4533.60 1286.71 L4534.04 1307.34 L4534.19 1313.48 L4534.48 1327.67 L4535.21 1331.18 L4535.51 1333.52 L4535.51 1338.05 L4535.94 1364.53 L4536.24 1375.35 L4536.38 1379.74 L4536.68 1392.02 L4536.97 1403.43 L4537.26 1418.50 L4537.55 1427.86 L4537.99 1445.70 L4538.14 1450.68 L4538.43 1466.04 L4538.58 1471.74 L4538.72 1477.30 L4539.31 1501.58 L4539.31 1504.36 L4539.45 1518.40 L4539.89 1547.80 L4540.04 1566.23 L4540.48 1600.31 L4540.48 1603.82 L4540.77 1618.30 L4540.92 1624.30 L4541.06 1636.44 L4541.06 1642.29 L4541.79 1684.41 L4541.79 1702.70 L4541.94 1709.42 L4542.09 1715.42 L4542.67 1742.19 L4542.82 1752.13 L4542.96 1762.96 L4542.96 1768.08 L4543.26 1775.24 L4543.84 1793.67 L4543.99 1805.23 L4544.57 1839.75 L4544.72 1847.79 L4546.03 1921.22 L4546.03 1927.51 L4546.18 1931.46 L4546.47 1940.53 L4546.62 1951.64 L4547.20 1996.99 L4547.64 2037.36 L4547.79 2049.20 L4547.79 2060.47 L4547.64 2080.36 L4547.64 2084.75 L4547.50 2093.52 L4547.35 2098.49 L4547.20 2105.95 L4547.20 2116.92 L4547.20 2120.14 L4547.20 2132.43 L4547.35 2148.66 L4547.50 2153.64 L4547.50 2156.42 L4547.64 2159.63 L4545.01 2159.78 L4542.38 2159.78 L4528.78 2160.51 L4521.76 2160.95 L4501.57 2161.97 L4497.48 2162.12 L4476.86 2163.14 L4462.82 2163.73 L4461.36 2163.73 L4455.65 2164.02 L4444.98 2164.61 L4431.81 2165.19 L4399.49 2166.80 L4377.85 2167.68 L4356.06 2168.70 L4323.88 2170.31 L4303.11 2171.34 L4273.86 2172.65 L4259.82 2173.53 L4243.30 2173.53 L4235.55 2173.09 L4226.77 2172.07 L4226.04 2172.07 L4218.14 2170.90 L4209.66 2169.29 L4199.57 2166.95 L4192.84 2165.19 L4191.96 2164.90 L4182.75 2162.12 L4181.73 2161.68 L4174.71 2159.20 L4166.66 2155.98 L4159.64 2152.76 L4157.45 2151.74 L4152.62 2149.25 L4146.77 2146.03 L4136.10 2139.74 L4132.88 2137.84 L4127.32 2134.33 L4118.11 2128.19 L4117.67 2127.75 L4117.96 2150.27 L4119.28 2151.59 L4119.57 2152.47 L4119.42 2156.12 L4120.15 2175.87 L4120.30 2178.50 L4120.30 2180.40 L4120.89 2220.34 L4120.89 2237.45 L4122.49 2308.68 L4122.35 2312.34 L4127.32 2372.31 L4124.40 2397.46 L4124.40 2401.12 L4124.40 2407.56 L4124.69 2414.72 L4123.96 2415.02 L4123.96 2417.50 L4124.10 2420.43 L4124.10 2423.79 L4123.96 2433.15 L4124.10 2447.49 L4124.10 2450.12 L4124.25 2471.18 L4124.40 2481.86 L4124.54 2491.81 L4124.54 2524.72 L4124.54 2545.78 L4124.40 2571.52 L4124.54 2592.59 L4124.69 2620.52 L4124.84 2648.31 L4124.54 2670.25 L4124.54 2672.01 L4124.54 2683.71 L4124.84 2721.30 L4124.84 2723.49 L4124.69 2736.66 L4124.69 2746.60 L4124.54 2783.17 L4124.54 2801.31 L4124.54 2807.74 L4124.54 2811.99 L4124.54 2811.99 Z" stroke-linejoin="round"/>
	</defs>
	<use xlink:href="#path_zHnSIbIK" style="fill:#9DC8CA;stroke:#6BB4D2;stroke-width:5.76"/>
	<defs>
		<path id="path_qtmKqthJ" d="M1575.11 1997.86 L1575.11 1997.86 L1575.11 1997.86 L1572.77 1997.86 L1566.05 1997.86 L1560.19 1997.72 L1545.13 1997.28 L1529.34 1997.28 L1511.35 1997.28 L1495.41 1997.57 L1476.54 1997.72 L1448.75 1998.01 L1444.66 1998.01 L1427.98 1998.30 L1386.16 1998.59 L1370.36 1998.89 L1345.65 1998.74 L1339.50 1998.45 L1335.12 1998.16 L1327.22 1997.42 L1318.59 1996.55 L1302.21 1994.21 L1285.83 1991.28 L1277.49 1989.67 L1269.16 1987.62 L1253.95 1983.53 L1238.44 1978.99 L1230.69 1976.80 L1224.55 1974.61 L1216.51 1971.39 L1200.13 1964.81 L1183.02 1957.05 L1177.02 1954.28 L1168.24 1950.18 L1154.79 1943.74 L1132.85 1932.77 L1110.91 1921.80 L1102.29 1917.56 L1088.98 1911.13 L1067.48 1900.30 L1045.54 1889.63 L1025.07 1880.26 L1001.81 1869.15 L925.03 1832.29 L913.18 1826.44 L895.05 1818.98 L878.38 1812.54 L871.94 1810.35 L863.90 1807.72 L856.59 1805.52 L849.57 1803.62 L842.40 1801.86 L836.55 1800.40 L831.72 1799.23 L827.77 1798.35 L817.39 1796.01 L811.54 1794.99 L809.93 1794.84 L802.47 1793.67 L796.92 1792.94 L794.28 1792.65 L788.58 1791.92 L779.66 1791.33 L771.91 1790.60 L764.16 1790.02 L755.53 1789.58 L739.44 1789.58 L733.88 1789.72 L729.79 1789.72 L721.89 1790.02 L705.66 1790.75 L688.69 1792.65 L681.96 1793.53 L659.44 1796.75 L650.08 1797.48 L638.97 1798.35 L605.48 1802.30 L591.43 1803.91 L581.93 1804.64 L574.03 1804.94 L568.62 1804.79 L558.97 1804.64 L551.36 1804.35 L545.66 1804.06 L538.64 1803.47 L532.35 1802.45 L526.35 1801.57 L519.19 1800.11 L513.48 1798.65 L508.22 1797.18 L504.56 1796.31 L500.32 1794.99 L496.52 1793.67 L491.69 1792.07 L487.01 1790.31 L481.31 1787.97 L476.34 1786.07 L471.07 1784.02 L467.27 1782.41 L462.30 1780.22 L457.32 1777.88 L451.77 1775.24 L447.23 1773.05 L444.45 1771.44 L441.38 1769.69 L433.19 1764.57 L427.49 1760.76 L421.49 1756.52 L416.52 1752.72 L409.35 1747.01 L408.04 1745.84 L403.50 1741.90 L398.82 1737.80 L385.95 1725.81 L366.94 1708.40 L359.48 1701.53 L363.72 1695.53 L372.21 1683.53 L374.84 1679.73 L375.86 1677.83 L377.03 1675.78 L377.47 1674.03 L377.76 1672.27 L378.06 1670.96 L378.20 1668.76 L378.06 1666.71 L377.91 1665.25 L377.76 1663.79 L377.47 1662.76 L377.03 1661.59 L376.30 1659.84 L375.28 1657.94 L374.55 1656.62 L373.52 1655.16 L372.21 1653.70 L370.60 1652.38 L369.13 1651.36 L366.06 1649.75 L361.97 1648.28 L355.68 1645.80 L347.64 1643.02 L342.08 1640.97 L339.88 1640.09 L337.40 1638.92 L335.50 1637.90 L333.60 1636.58 L331.69 1635.12 L330.09 1633.66 L327.60 1631.32 L325.11 1628.10 L323.36 1625.61 L321.90 1623.27 L320.58 1620.64 L319.56 1618.74 L317.95 1614.94 L316.34 1610.40 L309.90 1593.29 L308.88 1590.51 L299.81 1569.89 L296.89 1564.62 L294.55 1561.26 L289.72 1555.40 L287.24 1553.65 L284.02 1551.89 L280.65 1550.43 L281.68 1482.27 L282.41 1370.96 L273.78 1342.88 L273.93 1276.62 L273.19 1225.72 L263.25 1225.57 L262.96 1187.69 L215.28 1223.09 L205.63 1236.10 L201.09 1245.46 L198.46 1253.36 L195.97 1259.95 L193.20 1264.77 L191.44 1266.53 L188.66 1268.28 L183.98 1269.45 L177.25 1269.75 L175.35 1269.31 L173.01 1267.99 L171.26 1266.09 L168.92 1260.24 L168.33 1256.87 L168.48 1250.88 L169.06 1247.95 L170.82 1243.56 L172.43 1241.37 L179.74 1236.10 L183.98 1232.74 L186.03 1230.11 L188.08 1225.57 L188.66 1222.06 L189.39 1213.14 L189.83 1146.30 L234.59 1147.03 L232.39 1114.26 L232.10 1105.34 L231.66 1102.27 L230.93 1100.66 L229.76 1099.34 L228.30 1098.17 L226.54 1097.73 L218.64 1097.59 L191.59 1099.49 L152.69 1101.39 L151.37 1100.22 L148.30 1097.73 L140.99 1093.20 L138.79 1092.32 L134.11 1092.32 L118.17 1097.30 L115.39 1097.30 L94.77 1092.91 L46.22 1088.37 L46.07 1086.47 L45.78 1077.26 L47.53 1062.34 L53.67 1021.82 L53.38 1011.58 L52.65 1007.63 L57.77 1006.32 L64.35 1003.83 L66.84 1002.22 L68.44 1000.61 L70.78 996.96 L71.81 994.32 L72.98 990.23 L73.56 985.55 L76.64 960.68 L77.81 955.71 L78.68 953.08 L80.29 950.44 L81.46 948.83 L86.00 945.18 L92.72 942.98 L97.55 941.67 L109.25 939.33 L119.05 938.45 L142.59 937.43 L171.55 937.13 L189.10 936.40 L259.59 935.09 L268.51 935.09 L268.95 908.47 L271.29 751.23 L271.44 738.94 L283.14 691.26 L262.23 548.36 L246.58 542.07 L260.47 485.02 L256.81 424.32 L266.47 413.20 L286.36 386.58 L297.47 368.89 L325.41 327.64 L345.88 296.19 L419.74 167.33 L438.02 136.17 L456.01 104.00 L468.73 82.79 L555.02 80.59 L557.07 80.45 L877.06 47.39 L877.21 53.24 L922.25 52.66 L973.00 51.63 L1024.04 50.32 L1038.81 50.02 L1045.98 49.88 L1052.12 49.73 L1099.21 49.00 L1127.73 49.00 L1136.95 49.00 L1142.65 49.00 L1148.65 48.85 L1161.52 48.85 L1180.53 48.56 L1200.71 48.41 L1206.42 48.41 L1268.28 48.27 L1282.90 47.68 L1298.85 47.83 L1315.81 48.12 L1323.12 47.98 L1331.17 47.54 L1380.45 46.95 L1391.71 46.81 L1423.31 46.81 L1470.69 46.51 L1530.07 45.64 L1532.99 45.78 L1536.65 46.07 L1539.72 45.64 L1543.38 45.78 L1561.51 45.93 L1613.43 45.34 L1632.44 45.20 L1677.93 44.90 L1705.57 44.76 L1742.71 43.88 L1743.59 44.17 L1744.62 45.20 L1757.05 44.47 L1759.53 44.32 L1761.58 42.86 L1763.92 40.37 L1766.55 37.30 L1771.82 28.38 L1853.13 43.59 L1852.99 57.34 L1852.55 69.04 L1848.02 68.89 L1813.65 69.92 L1796.39 69.92 L1795.51 146.85 L1795.22 192.93 L1794.63 221.89 L1794.34 224.52 L1793.90 225.54 L1793.17 226.13 L1791.86 226.86 L1789.81 227.15 L1760.70 227.30 L1749.88 226.86 L1749.73 251.29 L1750.03 287.27 L1750.32 314.18 L1750.17 345.78 L1750.90 408.96 L1750.90 439.83 L1751.64 489.99 L1752.08 530.36 L1753.68 619.59 L1753.83 632.46 L1753.54 649.86 L1753.54 674.88 L1753.68 693.75 L1753.98 745.38 L1753.98 751.08 L1754.12 759.86 L1755.44 761.91 L1756.02 769.80 L1756.17 776.53 L1756.17 807.98 L1754.56 811.05 L1754.71 827.73 L1755.00 840.74 L1755.29 849.23 L1755.59 860.20 L1755.59 863.27 L1755.44 866.19 L1755.00 870.73 L1754.41 875.99 L1753.68 880.53 L1752.95 887.11 L1752.37 892.38 L1752.22 895.89 L1752.22 898.96 L1752.22 903.05 L1752.22 906.71 L1752.81 907.73 L1753.10 911.83 L1753.39 914.75 L1753.68 916.80 L1753.83 918.56 L1754.12 920.31 L1754.41 922.21 L1754.85 923.68 L1755.88 924.41 L1756.46 925.43 L1756.90 926.46 L1757.05 927.33 L1757.19 928.80 L1757.05 930.41 L1756.76 931.58 L1756.02 932.75 L1755.15 933.48 L1753.68 934.06 L1753.10 934.94 L1752.66 936.11 L1752.22 937.72 L1751.93 940.21 L1751.64 944.01 L1751.64 949.13 L1750.76 950.59 L1750.90 957.46 L1751.05 967.26 L1751.20 977.06 L1751.49 983.35 L1751.93 987.16 L1752.66 990.67 L1754.56 996.52 L1755.73 1000.03 L1756.17 1001.34 L1756.90 1004.12 L1757.34 1007.05 L1757.92 1010.56 L1758.07 1014.22 L1758.07 1016.85 L1758.36 1024.16 L1757.63 1025.63 L1757.63 1026.06 L1757.63 1026.21 L1757.63 1031.77 L1757.49 1034.99 L1757.34 1037.18 L1757.05 1038.79 L1756.46 1040.84 L1755.59 1041.57 L1754.85 1042.59 L1754.41 1043.91 L1753.98 1045.52 L1754.12 1046.98 L1754.56 1048.59 L1755.00 1049.47 L1755.88 1050.49 L1756.90 1051.22 L1757.19 1053.42 L1757.63 1058.10 L1758.07 1065.41 L1758.66 1066.43 L1758.95 1079.89 L1759.10 1087.64 L1759.53 1114.85 L1760.27 1131.96 L1760.70 1142.49 L1761.00 1148.05 L1761.29 1162.24 L1761.14 1162.97 L1760.27 1164.73 L1760.56 1184.47 L1760.56 1196.76 L1760.85 1204.80 L1761.29 1211.24 L1762.02 1218.11 L1762.90 1223.38 L1764.51 1230.11 L1768.45 1245.90 L1769.48 1250.44 L1770.06 1252.92 L1770.65 1255.70 L1771.09 1258.19 L1771.38 1260.24 L1771.38 1262.87 L1771.23 1265.50 L1770.65 1269.01 L1770.65 1269.75 L1770.06 1272.52 L1769.04 1275.89 L1767.87 1279.25 L1766.55 1282.62 L1764.94 1285.83 L1761.43 1291.69 L1757.49 1298.41 L1752.81 1306.46 L1750.90 1310.55 L1749.73 1313.33 L1748.71 1316.55 L1747.98 1319.33 L1747.54 1322.40 L1747.10 1326.20 L1747.10 1330.01 L1747.25 1333.81 L1747.83 1337.76 L1748.57 1341.56 L1749.73 1345.22 L1750.90 1348.14 L1758.22 1365.55 L1759.83 1369.65 L1760.56 1371.55 L1761.43 1374.03 L1762.31 1378.13 L1763.04 1382.08 L1763.19 1386.03 L1764.07 1445.85 L1764.21 1451.56 L1764.36 1459.01 L1765.24 1460.48 L1765.38 1465.16 L1765.68 1477.30 L1765.97 1480.22 L1766.26 1481.69 L1766.55 1483.30 L1764.94 1489.00 L1762.90 1493.39 L1763.63 1496.61 L1763.92 1498.95 L1764.07 1502.31 L1764.36 1514.60 L1764.51 1515.33 L1765.53 1517.08 L1765.53 1519.13 L1766.26 1542.83 L1766.85 1570.32 L1765.82 1572.81 L1765.97 1590.80 L1766.12 1598.41 L1766.12 1601.04 L1765.82 1604.26 L1765.53 1606.89 L1765.09 1608.79 L1764.51 1609.96 L1763.63 1610.55 L1762.75 1611.43 L1762.02 1612.30 L1761.43 1613.18 L1761.00 1614.06 L1760.70 1614.94 L1760.70 1615.81 L1760.56 1616.98 L1760.70 1618.01 L1761.00 1619.47 L1761.43 1620.49 L1762.02 1621.66 L1763.78 1623.42 L1764.65 1625.61 L1765.68 1628.10 L1766.55 1631.17 L1766.70 1632.34 L1767.14 1634.83 L1767.43 1638.63 L1767.14 1652.23 L1768.45 1654.57 L1768.60 1670.81 L1769.04 1691.43 L1769.19 1703.57 L1771.38 1769.39 L1773.28 1837.85 L1775.77 1932.04 L1775.47 1944.62 L1774.74 1949.74 L1772.84 1958.22 L1770.36 1964.51 L1767.29 1971.68 L1763.34 1977.97 L1713.32 1978.85 L1699.13 1985.58 L1679.97 1986.16 L1678.37 1988.21 L1677.19 1996.11 L1674.12 1996.11 L1649.12 1996.55 L1620.30 1997.28 L1602.17 1997.42 L1585.35 1997.72 L1575.11 1997.86 L1575.11 1997.86 Z" stroke-linejoin="round"/>
	</defs>
	<use xlink:href="#path_qtmKqthJ" style="fill:#9DC8CA;stroke:#6BB4D2;stroke-width:5.76"/>
	<defs>
		<path id="path_sTyKeLDB" d="M2157.63 1973.88 L2157.63 1973.88 L2094.15 1977.53 L2079.82 1975.05 L2053.93 1975.48 L2002.45 1976.07 L1989.59 1976.36 L1906.95 1976.07 L1833.10 1977.24 L1796.54 1977.39 L1763.34 1977.97 L1767.29 1971.68 L1770.36 1964.51 L1772.84 1958.22 L1774.74 1949.74 L1775.47 1944.62 L1775.77 1932.04 L1773.28 1837.85 L1771.38 1769.39 L1769.19 1703.57 L1769.04 1691.43 L1768.60 1670.81 L1768.45 1654.57 L1767.14 1652.23 L1767.43 1638.63 L1767.14 1634.83 L1766.70 1632.34 L1766.55 1631.17 L1765.68 1628.10 L1764.65 1625.61 L1763.78 1623.42 L1762.02 1621.66 L1761.43 1620.49 L1761.00 1619.47 L1760.70 1618.01 L1760.56 1616.98 L1760.70 1615.81 L1760.70 1614.94 L1761.00 1614.06 L1761.43 1613.18 L1762.02 1612.30 L1762.75 1611.43 L1763.63 1610.55 L1764.51 1609.96 L1765.09 1608.79 L1765.53 1606.89 L1765.82 1604.26 L1766.12 1601.04 L1766.12 1598.41 L1765.97 1590.80 L1765.82 1572.81 L1766.85 1570.32 L1766.26 1542.83 L1765.53 1519.13 L1765.53 1517.08 L1764.51 1515.33 L1764.36 1514.60 L1764.07 1502.31 L1763.92 1498.95 L1763.63 1496.61 L1762.90 1493.39 L1764.94 1489.00 L1766.55 1483.30 L1766.26 1481.69 L1765.97 1480.22 L1765.68 1477.30 L1765.38 1465.16 L1765.24 1460.48 L1764.36 1459.01 L1764.21 1451.56 L1764.07 1445.85 L1763.19 1386.03 L1763.04 1382.08 L1762.31 1378.13 L1761.43 1374.03 L1760.56 1371.55 L1759.83 1369.65 L1758.22 1365.55 L1750.90 1348.14 L1749.73 1345.22 L1748.57 1341.56 L1747.83 1337.76 L1747.25 1333.81 L1747.10 1330.01 L1747.10 1326.20 L1747.54 1322.40 L1747.98 1319.33 L1748.71 1316.55 L1749.73 1313.33 L1750.90 1310.55 L1752.81 1306.46 L1757.49 1298.41 L1761.43 1291.69 L1764.94 1285.83 L1766.55 1282.62 L1767.87 1279.25 L1769.04 1275.89 L1770.06 1272.52 L1770.65 1269.75 L1770.65 1269.01 L1771.23 1265.50 L1771.38 1262.87 L1771.38 1260.24 L1771.09 1258.19 L1770.65 1255.70 L1770.06 1252.92 L1769.48 1250.44 L1768.45 1245.90 L1764.51 1230.11 L1762.90 1223.38 L1762.02 1218.11 L1761.29 1211.24 L1760.85 1204.80 L1760.56 1196.76 L1760.56 1184.47 L1760.27 1164.73 L1761.14 1162.97 L1761.29 1162.24 L1761.00 1148.05 L1760.70 1142.49 L1760.27 1131.96 L1759.53 1114.85 L1759.10 1087.64 L1758.95 1079.89 L1758.66 1066.43 L1758.07 1065.41 L1757.63 1058.10 L1757.19 1053.42 L1756.90 1051.22 L1755.88 1050.49 L1755.00 1049.47 L1754.56 1048.59 L1754.12 1046.98 L1753.98 1045.52 L1754.41 1043.91 L1754.85 1042.59 L1755.59 1041.57 L1756.46 1040.84 L1757.05 1038.79 L1757.34 1037.18 L1757.49 1034.99 L1757.63 1031.77 L1757.63 1026.21 L1757.63 1026.06 L1757.63 1025.63 L1758.36 1024.16 L1758.07 1016.85 L1758.07 1014.22 L1757.92 1010.56 L1757.34 1007.05 L1756.90 1004.12 L1756.17 1001.34 L1755.73 1000.03 L1754.56 996.52 L1752.66 990.67 L1751.93 987.16 L1751.49 983.35 L1751.20 977.06 L1751.05 967.26 L1750.90 957.46 L1750.76 950.59 L1751.64 949.13 L1751.64 944.01 L1751.93 940.21 L1752.22 937.72 L1752.66 936.11 L1753.10 934.94 L1753.68 934.06 L1755.15 933.48 L1756.02 932.75 L1756.76 931.58 L1757.05 930.41 L1757.19 928.80 L1757.05 927.33 L1756.90 926.46 L1756.46 925.43 L1755.88 924.41 L1754.85 923.68 L1754.41 922.21 L1754.12 920.31 L1753.83 918.56 L1753.68 916.80 L1753.39 914.75 L1753.10 911.83 L1752.81 907.73 L1752.22 906.71 L1752.22 903.05 L1752.22 898.96 L1752.22 895.89 L1752.37 892.38 L1752.95 887.11 L1753.68 880.53 L1754.41 875.99 L1755.00 870.73 L1755.44 866.19 L1755.59 863.27 L1755.59 860.20 L1755.29 849.23 L1755.00 840.74 L1754.71 827.73 L1754.56 811.05 L1756.17 807.98 L1756.17 776.53 L1756.02 769.80 L1755.44 761.91 L1754.12 759.86 L1753.98 751.08 L1753.98 745.38 L1753.68 693.75 L1753.54 674.88 L1753.54 649.86 L1753.83 632.46 L1753.68 619.59 L1752.08 530.36 L2180.73 529.19 L2208.23 529.05 L2287.35 529.05 L2372.91 531.53 L2372.03 541.19 L2370.57 550.84 L2364.86 581.56 L2357.99 614.03 L2350.82 646.79 L2348.34 658.93 L2343.66 679.70 L2340.88 693.75 L2337.95 711.88 L2335.91 734.55 L2335.47 745.52 L2335.91 777.41 L2339.27 889.16 L2339.27 893.55 L2342.63 897.50 L2360.04 917.83 L2371.74 931.58 L2392.65 956.15 L2397.18 961.27 L2401.86 966.24 L2405.37 970.19 L2409.32 973.99 L2413.71 977.80 L2417.37 980.72 L2420.58 983.21 L2424.24 985.69 L2428.48 988.33 L2433.60 991.11 L2438.43 993.45 L2444.42 996.08 L2449.83 998.13 L2453.34 999.15 L2459.49 1000.76 L2465.48 1002.08 L2471.63 1002.95 L2477.91 1003.39 L2484.06 1003.54 L2487.57 1003.39 L2492.25 1003.25 L2497.51 1002.66 L2502.34 1002.22 L2508.19 1001.64 L2516.67 1000.61 L2524.42 1000.03 L2566.69 995.93 L2573.71 995.35 L2580.43 994.91 L2587.31 994.62 L2588.77 994.47 L2593.60 994.32 L2599.89 994.18 L2606.47 994.18 L2613.49 994.18 L2620.65 994.18 L2631.33 994.76 L2644.05 995.20 L2656.49 995.93 L2669.94 995.93 L2685.30 996.08 L2704.75 995.93 L2718.49 995.93 L2735.02 995.64 L2758.28 995.49 L2760.47 995.49 L2763.39 995.49 L2774.36 995.35 L2787.53 994.76 L2800.69 993.89 L2803.32 993.59 L2807.71 993.30 L2811.95 992.86 L2817.65 992.28 L2824.97 991.54 L2824.53 992.13 L2830.38 1022.70 L2879.52 1279.69 L2836.08 1320.79 L2817.95 1380.32 L2818.09 1399.78 L2818.09 1413.23 L2818.09 1428.01 L2818.38 1489.44 L2818.38 1496.75 L2818.53 1504.94 L2816.19 1549.12 L2820.14 1560.09 L2820.14 1561.99 L2818.68 1590.36 L2832.28 1639.22 L2834.76 1648.43 L2842.08 1665.84 L2851.29 1686.75 L2889.61 1745.70 L2908.18 1782.70 L2921.93 1827.17 L2947.67 1899.43 L2926.76 1905.57 L2858.31 1886.41 L2732.10 1839.16 L2716.30 1833.60 L2691.44 1834.92 L2669.06 1867.69 L2650.20 1895.48 L2639.23 1913.17 L2636.30 1918.44 L2623.29 1942.87 L2620.07 1950.62 L2616.56 1959.54 L2597.69 1959.10 L2573.71 1957.64 L2562.15 1957.20 L2550.01 1956.32 L2543.73 1956.47 L2537.88 1956.47 L2527.20 1956.18 L2513.31 1955.88 L2503.95 1955.59 L2500.29 1955.45 L2489.47 1955.01 L2482.01 1953.40 L2479.38 1952.67 L2476.89 1952.37 L2474.70 1952.08 L2472.50 1951.64 L2469.43 1951.06 L2466.51 1950.47 L2463.29 1949.74 L2461.09 1949.16 L2450.42 1946.38 L2441.94 1944.18 L2433.89 1942.14 L2425.99 1940.09 L2422.92 1939.36 L2421.46 1939.06 L2420.58 1938.92 L2418.24 1938.33 L2416.64 1938.04 L2416.05 1938.04 L2414.44 1937.89 L2414.88 1952.96 L2414.88 1957.20 L2410.93 1957.35 L2405.52 1957.79 L2399.82 1957.93 L2378.61 1958.37 L2356.97 1959.98 L2335.47 1962.03 L2331.22 1962.61 L2307.39 1964.66 L2295.10 1965.68 L2252.10 1968.46 L2245.52 1968.76 L2236.02 1969.19 L2228.70 1969.63 L2219.49 1970.36 L2216.71 1970.66 L2208.23 1971.24 L2194.92 1972.70 L2194.19 1972.85 L2184.83 1974.02 L2170.35 1975.48 L2166.69 1974.75 L2157.63 1973.88 L2157.63 1973.88 Z" stroke-linejoin="round"/>
	</defs>
	<use xlink:href="#path_sTyKeLDB" style="fill:#6BACAF;stroke:#097D9B;stroke-width:5.76"/>
	<defs>
		<path id="path_NVQyBIcW" d="M3474.17 2851.77 L3474.17 2851.77 L3468.61 2846.07 L3465.98 2844.02 L3464.08 2842.26 L3455.30 2842.41 L3423.42 2843.58 L3422.40 2832.17 L3418.16 2796.04 L3373.84 2796.34 L3368.14 2796.04 L3342.69 2796.04 L3267.08 2797.51 L3266.93 2793.56 L3267.37 2772.05 L3262.69 2775.71 L3262.69 2770.59 L3262.40 2753.63 L3244.41 2754.06 L3236.07 2754.36 L3232.56 2754.06 L3230.08 2758.89 L3052.09 2774.10 L3050.48 2681.37 L3050.19 2660.31 L3049.90 2513.02 L3049.75 2483.32 L3049.61 2438.27 L3028.84 2438.86 L2993.88 2439.59 L2944.45 2440.61 L2939.92 2196.79 L3003.68 2196.49 L3132.68 2194.30 L3152.57 2194.15 L3152.42 2170.17 L3151.10 2071.58 L3068.76 2072.75 L3056.19 2072.75 L3043.17 2073.04 L3042.88 2047.15 L3026.50 2049.20 L3022.70 2047.89 L3018.45 2044.23 L3014.36 2027.70 L3013.19 2022.00 L3011.14 2008.69 L3010.85 2005.18 L3009.82 1991.43 L3009.82 1987.48 L3009.53 1984.99 L3008.80 1983.53 L3006.75 1979.29 L3001.64 1970.36 L3001.20 1969.49 L2990.81 1970.36 L2972.82 1971.24 L2963.90 1971.53 L2954.84 1971.53 L2943.43 1971.53 L2931.87 1974.02 L2929.24 1974.46 L2927.34 1974.75 L2925.59 1975.05 L2922.81 1975.78 L2921.05 1976.36 L2916.66 1977.53 L2909.20 1979.87 L2903.50 1981.77 L2898.68 1983.24 L2887.85 1986.60 L2882.73 1988.06 L2879.37 1989.09 L2876.15 1990.11 L2873.08 1990.99 L2870.74 1991.57 L2868.69 1992.01 L2867.09 1992.30 L2865.04 1992.74 L2863.28 1993.04 L2860.80 1993.33 L2858.60 1993.47 L2854.80 1993.77 L2850.70 1993.91 L2844.12 1994.06 L2842.37 1994.06 L2840.61 1993.91 L2829.79 1993.47 L2826.87 1993.18 L2825.40 1993.04 L2823.36 1992.60 L2821.31 1992.30 L2817.95 1991.43 L2813.85 1990.40 L2809.02 1989.23 L2804.20 1987.77 L2798.49 1986.31 L2792.50 1984.70 L2786.79 1983.38 L2781.97 1982.07 L2776.26 1980.31 L2768.51 1977.97 L2764.13 1976.65 L2761.05 1975.78 L2758.57 1974.90 L2756.52 1974.46 L2751.84 1973.29 L2746.72 1971.97 L2745.26 1980.16 L2711.77 1978.41 L2624.60 1971.97 L2620.65 1970.80 L2620.51 1967.29 L2616.56 1959.54 L2620.07 1950.62 L2623.29 1942.87 L2636.30 1918.44 L2639.23 1913.17 L2650.20 1895.48 L2669.06 1867.69 L2691.44 1834.92 L2716.30 1833.60 L2732.10 1839.16 L2858.31 1886.41 L2926.76 1905.57 L2947.67 1899.43 L2921.93 1827.17 L2908.18 1782.70 L2889.61 1745.70 L2851.29 1686.75 L2842.08 1665.84 L2834.76 1648.43 L2832.28 1639.22 L2818.68 1590.36 L2820.14 1561.99 L2820.14 1560.09 L2816.19 1549.12 L2818.53 1504.94 L2818.38 1496.75 L2818.38 1489.44 L2818.09 1428.01 L2818.09 1413.23 L2818.09 1399.78 L2817.95 1380.32 L2836.08 1320.79 L2879.52 1279.69 L2830.38 1022.70 L2824.53 992.13 L2824.97 991.54 L2817.65 992.28 L2811.95 992.86 L2807.71 993.30 L2803.32 993.59 L2800.69 993.89 L2787.53 994.76 L2774.36 995.35 L2763.39 995.49 L2760.47 995.49 L2758.28 995.49 L2735.02 995.64 L2718.49 995.93 L2704.75 995.93 L2685.30 996.08 L2669.94 995.93 L2656.49 995.93 L2644.05 995.20 L2631.33 994.76 L2620.65 994.18 L2613.49 994.18 L2606.47 994.18 L2599.89 994.18 L2593.60 994.32 L2588.77 994.47 L2587.31 994.62 L2580.43 994.91 L2573.71 995.35 L2566.69 995.93 L2524.42 1000.03 L2516.67 1000.61 L2508.19 1001.64 L2502.34 1002.22 L2497.51 1002.66 L2492.25 1003.25 L2487.57 1003.39 L2484.06 1003.54 L2477.91 1003.39 L2471.63 1002.95 L2465.48 1002.08 L2459.49 1000.76 L2453.34 999.15 L2449.83 998.13 L2444.42 996.08 L2438.43 993.45 L2433.60 991.11 L2428.48 988.33 L2424.24 985.69 L2420.58 983.21 L2417.37 980.72 L2413.71 977.80 L2409.32 973.99 L2405.37 970.19 L2401.86 966.24 L2397.18 961.27 L2392.65 956.15 L2371.74 931.58 L2360.04 917.83 L2342.63 897.50 L2339.27 893.55 L2339.27 889.16 L2335.91 777.41 L2335.47 745.52 L2335.91 734.55 L2337.95 711.88 L2340.88 693.75 L2343.66 679.70 L2348.34 658.93 L2350.82 646.79 L2357.99 614.03 L2364.86 581.56 L2370.57 550.84 L2372.03 541.19 L2372.91 531.53 L2384.02 530.36 L2415.32 517.49 L2429.80 516.47 L2499.41 513.98 L2509.50 514.13 L2541.39 511.93 L2552.36 502.28 L2559.08 509.16 L2562.74 509.89 L2655.02 509.59 L2786.21 511.64 L2826.57 509.45 L2869.13 510.62 L2885.51 511.06 L2905.11 511.79 L2940.80 510.62 L2966.53 510.33 L3041.12 508.57 L3058.82 508.86 L3093.63 507.40 L3097.14 506.52 L3100.06 504.62 L3209.60 502.72 L3214.72 502.87 L3216.18 503.01 L3217.35 503.16 L3221.74 504.04 L3226.86 505.35 L3229.93 505.79 L3232.27 506.08 L3232.13 501.40 L3247.92 501.26 L3261.52 500.96 L3266.93 500.96 L3271.91 500.82 L3299.11 500.23 L3304.81 500.23 L3309.20 500.09 L3319.00 499.94 L3329.09 499.65 L3339.91 499.65 L3396.66 499.06 L3406.89 499.06 L3416.69 498.92 L3443.75 498.62 L3444.77 498.62 L3453.40 498.48 L3466.42 498.19 L3470.22 498.19 L3480.16 498.48 L3496.84 498.92 L3500.93 498.92 L3512.78 498.62 L3542.61 498.19 L3595.85 497.75 L3607.26 497.60 L3619.10 497.31 L3625.39 497.16 L3630.80 496.72 L3635.34 496.43 L3641.04 495.85 L3641.48 495.85 L3648.35 495.55 L3655.52 495.41 L3661.37 495.26 L3661.66 498.19 L3661.81 501.40 L3661.81 501.84 L3661.81 506.96 L3661.81 515.59 L3661.66 524.51 L3661.66 532.70 L3662.83 583.75 L3663.42 616.52 L3663.71 635.82 L3663.86 649.86 L3664.73 700.91 L3665.03 711.30 L3665.32 725.92 L3665.46 731.92 L3665.61 737.33 L3665.76 743.91 L3665.76 749.62 L3666.34 774.05 L3666.63 792.77 L3667.36 827.14 L3667.66 844.40 L3668.39 883.89 L3668.53 904.81 L3668.83 924.12 L3668.83 928.94 L3668.83 934.79 L3668.68 941.67 L3670.14 944.30 L3670.44 951.03 L3671.61 976.19 L3671.61 979.40 L3671.75 983.50 L3671.61 997.25 L3671.61 1004.12 L3671.31 1011.73 L3670.14 1014.36 L3670.29 1018.02 L3670.44 1021.82 L3670.58 1028.40 L3670.88 1042.74 L3672.34 1086.47 L3672.48 1099.93 L3672.63 1106.36 L3673.07 1116.90 L3673.65 1154.93 L3673.80 1167.21 L3673.80 1173.50 L3673.95 1180.08 L3674.09 1186.52 L3674.09 1188.27 L3674.09 1192.52 L3674.39 1207.14 L3674.53 1233.03 L3674.82 1258.34 L3675.41 1283.49 L3676.14 1321.23 L3676.43 1332.79 L3677.16 1367.60 L3677.75 1393.49 L3678.04 1418.50 L3678.19 1430.49 L3678.19 1436.64 L3678.33 1444.97 L3678.33 1452.14 L3678.48 1461.50 L3678.48 1463.11 L3678.33 1464.57 L3678.48 1473.20 L3678.48 1483.44 L3678.48 1487.68 L3678.63 1492.66 L3678.63 1497.48 L3678.63 1502.02 L3678.77 1522.79 L3678.92 1531.86 L3679.07 1538.15 L3680.53 1626.05 L3681.11 1686.31 L3681.26 1697.87 L3681.41 1704.60 L3681.99 1716.01 L3682.28 1725.95 L3683.01 1762.37 L3683.74 1788.85 L3684.91 1791.19 L3685.06 1793.09 L3685.35 1802.45 L3685.65 1817.52 L3685.94 1846.04 L3685.94 1849.69 L3686.09 1867.39 L3686.09 1881.00 L3686.09 1884.51 L3686.82 1905.42 L3686.96 1916.25 L3687.84 1958.66 L3688.13 1971.24 L3688.13 1988.65 L3688.13 2004.01 L3688.28 2007.22 L3688.28 2010.15 L3688.28 2012.93 L3688.28 2020.53 L3688.28 2027.70 L3688.43 2042.91 L3688.57 2046.57 L3689.01 2063.24 L3689.01 2067.19 L3689.45 2112.54 L3689.74 2118.97 L3689.74 2120.87 L3690.18 2174.11 L3689.16 2176.31 L3689.16 2180.84 L3689.30 2184.94 L3689.30 2187.72 L3690.91 2304.15 L3691.06 2306.34 L3691.06 2308.53 L3691.20 2318.33 L3691.93 2366.31 L3692.08 2376.11 L3692.52 2392.78 L3692.37 2400.39 L3690.33 2400.24 L3689.74 2401.56 L3692.37 2402.29 L3692.37 2408.73 L3693.25 2410.48 L3693.54 2416.33 L3693.98 2426.72 L3713.29 2426.86 L3729.81 2426.72 L3742.24 2426.57 L3749.56 2426.43 L3760.23 2426.13 L3766.23 2426.13 L3764.47 2429.35 L3762.87 2432.28 L3758.33 2440.17 L3757.16 2442.22 L3740.64 2471.18 L3730.84 2488.00 L3719.72 2507.46 L3703.49 2535.25 L3699.98 2541.68 L3696.47 2547.68 L3692.67 2554.41 L3685.06 2567.72 L3668.97 2595.95 L3650.40 2628.13 L3643.23 2640.27 L3637.53 2649.78 L3626.56 2669.08 L3624.22 2668.06 L3621.88 2666.74 L3617.79 2664.84 L3599.80 2697.31 L3577.42 2729.34 L3539.10 2776.88 L3523.16 2795.46 L3493.91 2829.39 L3485.43 2838.02 L3474.17 2851.77 L3474.17 2851.77 Z" stroke-linejoin="round"/>
	</defs>
	<use xlink:href="#path_NVQyBIcW" style="fill:#09757A;stroke:#00465F;stroke-width:5.76"/>
</svg>
