<?xml version="1.0" encoding="UTF-8" standalone="no"?>
<!-- This is a Stata 16.1 generated SVG file (http://www.stata.com) -->

<svg version="1.1" width="4.00in" height="5.61in" viewBox="0 0 2880 4039" xmlns="http://www.w3.org/2000/svg" xmlns:xlink="http://www.w3.org/1999/xlink">
	<desc>Stata Graph - Graph</desc>
	<rect x="0" y="0" width="2880" height="4039" style="fill:#FFFFFF;stroke:none"/>
	<defs>
		<path id="path_lMVFzmmZ" d="M1322.18 2534.72 L1322.18 2534.72 L1313.60 2534.85 L1313.47 2533.08 L1313.10 2525.89 L1312.97 2524.63 L1312.46 2520.71 L1311.96 2519.20 L1311.45 2518.06 L1309.18 2513.02 L1305.40 2504.81 L1323.19 2493.70 L1329.76 2489.66 L1355.63 2489.66 L1355.50 2491.68 L1354.37 2503.68 L1332.66 2503.80 L1331.52 2503.93 L1330.64 2503.93 L1330.26 2504.18 L1330.13 2504.43 L1330.01 2504.68 L1330.01 2504.94 L1330.01 2505.44 L1330.51 2518.95 L1330.76 2520.59 L1331.02 2521.22 L1331.52 2521.85 L1332.41 2522.23 L1333.29 2522.61 L1335.06 2522.61 L1352.09 2522.23 L1351.59 2525.64 L1351.34 2528.29 L1350.96 2532.33 L1351.08 2533.97 L1340.74 2534.22 L1322.18 2534.72 L1322.18 2534.72 Z" stroke-linejoin="round"/>
	</defs>
	<use xlink:href="#path_lMVFzmmZ" style="fill:#9DC8CA;stroke:#6BB4D2;stroke-width:5.76"/>
	<defs>
		<path id="path_UnxrOrSS" d="M939.89 3808.90 L939.89 3808.90 L939.89 3808.90 L903.04 3809.66 L707.41 3813.95 L677.25 3814.58 L638.12 3815.59 L599.00 3816.60 L520.74 3818.24 L484.02 3818.87 L274.00 3823.29 L259.74 3823.67 L241.57 3823.92 L175.05 3825.44 L108.54 3826.95 L108.41 3824.81 L35.34 3828.72 L34.71 3795.90 L33.32 3746.05 L32.94 3725.09 L32.94 3721.05 L32.56 3711.21 L31.30 3667.03 L30.29 3639.90 L29.79 3612.63 L29.03 3596.48 L28.14 3573.38 L52.38 3573.00 L56.42 3573.00 L76.99 3572.75 L97.18 3572.37 L106.77 3572.50 L175.43 3571.36 L179.35 3571.36 L217.08 3570.35 L253.18 3569.72 L249.90 3430.25 L249.52 3427.22 L249.14 3412.20 L248.51 3390.87 L248.00 3377.36 L247.63 3366.38 L246.99 3354.77 L246.11 3339.62 L245.61 3329.02 L244.85 3315.89 L240.56 3189.17 L236.27 3062.45 L235.89 3052.47 L230.33 2925.62 L226.80 2808.75 L222.89 2675.59 L221.63 2635.32 L219.48 2562.24 L219.48 2560.09 L219.48 2559.59 L219.48 2557.70 L219.48 2557.19 L219.61 2555.80 L219.61 2554.42 L219.61 2551.89 L219.23 2543.56 L219.61 2530.43 L219.35 2503.80 L219.35 2491.68 L217.21 2440.57 L215.32 2354.99 L300.51 2353.73 L376.36 2350.95 L416.87 2349.56 L429.49 2349.44 L437.45 2349.31 L440.98 2349.31 L440.85 2338.08 L437.57 2263.23 L436.81 2231.30 L436.44 2179.29 L436.18 2116.81 L435.55 2095.74 L489.82 2094.98 L547.00 2094.22 L569.21 2093.97 L579.43 2093.84 L608.34 2093.34 L658.57 2092.96 L658.44 2089.05 L658.19 2077.31 L657.43 2051.43 L656.80 2018.49 L656.67 2011.93 L656.42 2003.47 L655.79 1981.76 L655.41 1966.49 L654.65 1929.51 L653.01 1855.67 L652.51 1835.47 L652.51 1833.07 L651.75 1803.41 L651.12 1781.83 L649.73 1713.04 L648.85 1685.02 L648.09 1653.34 L646.70 1586.57 L646.20 1559.31 L645.57 1541.26 L644.81 1503.90 L644.56 1486.98 L644.31 1475.12 L643.80 1465.53 L643.80 1463.63 L643.42 1443.19 L642.41 1405.82 L641.91 1387.65 L641.65 1372.25 L640.52 1333.63 L623.35 1333.75 L588.65 1334.38 L537.15 1335.14 L532.74 1335.27 L531.85 1335.27 L489.57 1336.15 L481.49 1336.40 L468.62 1336.66 L441.61 1337.16 L440.22 1337.16 L418.51 1337.67 L417.76 1303.33 L416.37 1269.13 L413.84 1208.92 L413.47 1199.71 L413.34 1194.91 L412.46 1158.44 L412.46 1156.67 L412.58 1102.14 L412.58 1084.85 L406.15 929.47 L402.49 916.22 L396.43 893.75 L396.68 877.35 L401.73 862.58 L404.63 854.00 L405.14 847.94 L404.76 804.01 L298.11 807.04 L181.24 810.20 L179.72 776.37 L179.47 765.14 L177.45 674.89 L175.43 584.65 L175.18 578.33 L174.80 558.39 L172.66 498.06 L172.78 445.68 L170.76 438.48 L170.26 437.73 L167.48 433.31 L165.34 432.55 L120.53 435.33 L117.63 432.93 L115.74 427.38 L112.83 352.28 L110.43 339.53 L110.31 335.74 L110.18 331.20 L113.21 324.51 L111.95 310.62 L110.06 303.43 L111.07 303.43 L118.64 303.30 L119.14 300.65 L119.40 299.52 L119.90 298.00 L121.79 294.22 L123.56 290.56 L125.45 286.26 L127.47 281.34 L128.48 278.69 L130.00 272.13 L131.13 263.67 L131.26 259.25 L131.01 252.82 L130.75 250.67 L129.87 242.72 L128.61 230.22 L127.98 225.17 L127.85 220.50 L127.85 216.72 L128.10 213.56 L128.61 211.29 L129.37 207.12 L130.00 204.73 L130.88 201.32 L132.02 197.78 L134.16 191.47 L136.18 185.67 L137.19 183.27 L138.07 181.38 L139.21 180.11 L140.47 178.98 L141.61 177.97 L143.00 177.21 L144.38 176.71 L147.04 176.33 L154.36 175.82 L158.65 175.44 L160.29 175.07 L161.55 174.56 L162.69 173.80 L163.70 172.79 L164.58 171.53 L165.08 169.89 L165.34 168.38 L165.59 165.73 L165.59 161.56 L165.46 155.38 L165.34 151.34 L165.08 139.09 L164.45 115.74 L163.95 88.61 L163.06 48.47 L205.60 47.46 L237.28 46.95 L284.35 46.07 L315.91 45.82 L333.57 45.44 L386.71 44.93 L419.15 44.05 L433.03 43.80 L470.89 43.04 L497.14 42.41 L512.92 41.90 L553.94 41.02 L598.87 39.76 L609.72 39.76 L610.48 60.71 L611.11 86.08 L611.49 99.33 L611.49 106.40 L611.62 113.85 L612.12 130.76 L612.50 154.11 L612.88 161.18 L613.00 164.21 L613.51 195.26 L614.01 212.05 L614.27 218.61 L614.65 241.20 L615.78 291.94 L667.53 290.93 L703.88 290.05 L736.44 289.04 L740.23 288.91 L843.34 286.64 L844.60 351.77 L845.74 406.30 L845.99 413.87 L850.66 539.84 L1061.94 537.69 L1062.19 538.20 L1065.09 542.61 L1072.03 545.14 L1079.98 788.11 L1084.40 940.46 L1084.40 943.99 L1085.54 981.48 L1087.68 1070.34 L1089.70 1141.90 L1091.09 1200.21 L1092.61 1257.26 L1093.36 1278.60 L1094.25 1322.02 L1095.00 1358.24 L1096.52 1462.24 L1097.91 1577.10 L1099.80 1645.01 L1101.06 1690.70 L1101.31 1703.32 L1103.08 1765.80 L1104.09 1797.23 L1104.85 1822.60 L1104.85 1828.78 L1105.48 1840.14 L1105.73 1847.72 L1106.36 1868.92 L1106.49 1874.85 L1107.37 1898.83 L1107.50 1903.50 L1107.62 1904.89 L1107.88 1906.53 L1108.00 1907.67 L1108.13 1908.93 L1108.51 1910.57 L1109.27 1913.73 L1110.02 1916.51 L1110.27 1917.26 L1110.65 1918.40 L1111.03 1919.66 L1112.17 1922.69 L1112.55 1923.57 L1112.67 1923.70 L1113.05 1924.58 L1113.81 1926.10 L1113.93 1926.48 L1114.44 1927.49 L1114.82 1928.12 L1116.08 1930.26 L1117.47 1932.41 L1119.74 1935.19 L1120.88 1936.83 L1122.01 1938.09 L1124.16 1940.49 L1125.67 1942.13 L1126.30 1942.63 L1127.44 1943.52 L1128.95 1944.78 L1130.85 1946.29 L1132.61 1947.56 L1134.00 1948.31 L1138.55 1950.84 L1140.94 1951.85 L1142.84 1952.73 L1148.52 1954.24 L1149.65 1954.50 L1151.04 1954.62 L1151.80 1954.75 L1153.06 1954.75 L1153.94 1954.88 L1157.23 1955.00 L1160.25 1954.88 L1177.04 1954.24 L1188.27 1953.99 L1194.71 1953.99 L1201.15 1953.87 L1203.29 1953.61 L1205.44 1953.74 L1216.29 1953.36 L1218.69 1953.36 L1220.58 1953.36 L1240.52 1952.48 L1249.61 1952.10 L1272.96 1950.21 L1273.59 1950.21 L1274.10 1950.58 L1275.11 1987.31 L1275.61 2012.31 L1275.99 2022.66 L1276.24 2030.48 L1276.24 2038.05 L1276.87 2043.36 L1276.87 2047.65 L1276.75 2048.66 L1275.74 2053.45 L1274.98 2053.45 L1265.39 2050.42 L1261.85 2049.16 L1260.84 2048.91 L1243.68 2038.56 L1233.58 2032.50 L1231.82 2032.25 L1231.31 2032.12 L1225.88 2032.12 L1222.73 2032.12 L1222.85 2034.27 L1222.98 2040.96 L1223.61 2061.53 L1223.86 2073.27 L1224.24 2097.76 L1224.24 2099.27 L1225.88 2099.27 L1227.27 2100.28 L1224.24 2100.28 L1224.37 2101.16 L1224.37 2103.44 L1224.62 2105.71 L1224.75 2107.22 L1225.00 2109.12 L1225.51 2111.26 L1226.14 2113.28 L1226.77 2115.30 L1227.78 2117.95 L1228.91 2120.35 L1230.55 2123.38 L1231.82 2125.40 L1232.83 2126.91 L1234.47 2128.81 L1236.61 2131.20 L1237.62 2131.96 L1225.13 2132.59 L1223.99 2143.07 L1223.86 2144.08 L1222.35 2155.94 L1221.34 2165.03 L1224.50 2186.11 L1225.00 2189.39 L1225.51 2189.64 L1226.26 2189.90 L1227.15 2196.46 L1227.90 2189.90 L1228.16 2188.25 L1227.90 2180.68 L1227.90 2179.04 L1227.90 2178.03 L1228.16 2177.15 L1228.41 2176.52 L1228.91 2175.89 L1229.54 2175.13 L1231.82 2173.23 L1238.13 2167.81 L1242.16 2175.25 L1252.01 2193.30 L1252.77 2194.57 L1253.40 2195.32 L1254.03 2195.95 L1254.79 2196.33 L1255.42 2196.46 L1256.30 2196.58 L1258.57 2196.58 L1269.05 2196.33 L1270.06 2196.21 L1270.81 2195.95 L1271.32 2195.45 L1271.70 2194.94 L1271.82 2194.44 L1272.08 2193.05 L1272.08 2191.54 L1271.82 2184.85 L1271.82 2182.07 L1271.45 2168.94 L1271.45 2167.81 L1276.87 2167.55 L1278.26 2167.55 L1279.14 2168.19 L1280.28 2168.31 L1280.91 2192.80 L1280.91 2198.60 L1281.16 2207.57 L1281.16 2208.58 L1282.93 2253.51 L1282.93 2254.65 L1284.07 2293.90 L1284.70 2309.93 L1284.82 2310.69 L1307.29 2309.93 L1310.19 2309.80 L1310.32 2314.73 L1310.32 2317.00 L1310.57 2328.74 L1310.57 2332.90 L1307.16 2333.03 L1305.02 2333.15 L1304.01 2333.28 L1303.12 2333.53 L1302.49 2334.04 L1302.11 2334.54 L1301.99 2335.30 L1301.86 2336.69 L1301.74 2340.10 L1301.74 2340.85 L1301.86 2342.37 L1302.75 2345.52 L1303.76 2346.66 L1305.02 2346.91 L1306.28 2347.16 L1307.42 2347.16 L1309.69 2347.04 L1313.60 2367.74 L1316.76 2384.15 L1286.97 2370.14 L1287.47 2384.15 L1288.11 2395.38 L1288.23 2400.43 L1273.34 2400.93 L1250.12 2401.56 L1236.99 2401.82 L1231.06 2402.07 L1223.74 2402.32 L1223.49 2402.32 L1222.85 2402.32 L1218.69 2402.57 L1215.79 2402.83 L1211.50 2403.46 L1209.35 2403.84 L1206.95 2404.21 L1204.93 2404.47 L1205.56 2431.10 L1206.32 2460.51 L1206.70 2475.65 L1207.20 2492.57 L1212.63 2492.44 L1214.65 2492.44 L1215.79 2492.69 L1216.54 2492.95 L1221.09 2496.23 L1221.84 2496.86 L1229.54 2502.79 L1232.45 2504.94 L1233.96 2506.58 L1235.35 2508.47 L1236.11 2509.86 L1236.74 2511.12 L1236.99 2512.38 L1237.37 2514.53 L1247.84 2514.78 L1248.22 2514.91 L1249.86 2514.66 L1251.50 2514.28 L1252.64 2513.90 L1253.65 2513.39 L1254.41 2512.89 L1258.70 2509.10 L1260.47 2507.46 L1261.85 2506.45 L1264.13 2510.11 L1265.01 2511.75 L1267.41 2517.05 L1270.18 2524.63 L1270.56 2525.64 L1270.94 2526.65 L1271.07 2527.40 L1271.45 2532.45 L1271.45 2532.83 L1286.34 2533.08 L1290.38 2533.21 L1293.91 2513.52 L1305.40 2504.81 L1309.18 2513.02 L1311.45 2518.06 L1311.96 2519.20 L1312.46 2520.71 L1312.97 2524.63 L1313.10 2525.89 L1313.47 2533.08 L1313.60 2534.85 L1322.18 2534.72 L1340.74 2534.22 L1351.08 2533.97 L1351.08 2534.98 L1351.08 2535.99 L1351.21 2538.13 L1351.59 2548.10 L1351.97 2558.45 L1352.47 2579.41 L1352.60 2581.80 L1352.73 2584.46 L1352.85 2589.88 L1353.10 2595.56 L1353.23 2597.58 L1353.23 2599.22 L1354.11 2624.47 L1354.49 2635.95 L1355.00 2648.83 L1355.63 2672.68 L1356.26 2693.63 L1356.64 2713.07 L1357.65 2712.95 L1358.03 2712.95 L1359.29 2712.69 L1360.17 2712.19 L1361.56 2711.43 L1363.33 2710.30 L1363.83 2710.17 L1364.08 2710.17 L1364.46 2710.30 L1364.84 2710.55 L1365.09 2710.80 L1367.11 2713.70 L1368.50 2715.85 L1369.64 2717.24 L1371.78 2719.51 L1373.17 2720.77 L1374.56 2722.03 L1375.82 2723.17 L1377.59 2724.56 L1378.35 2725.06 L1379.48 2725.82 L1380.62 2726.45 L1382.76 2727.59 L1383.02 2727.71 L1384.28 2728.22 L1385.41 2728.72 L1386.93 2729.23 L1388.19 2729.61 L1389.71 2729.99 L1391.72 2730.49 L1394.25 2730.87 L1396.90 2731.12 L1398.03 2731.12 L1399.30 2731.00 L1399.93 2731.00 L1402.45 2730.87 L1404.72 2730.49 L1406.49 2730.11 L1408.26 2729.61 L1410.78 2728.72 L1413.18 2727.71 L1413.31 2727.59 L1415.70 2726.32 L1416.34 2726.07 L1416.97 2725.69 L1417.47 2725.32 L1418.48 2724.56 L1421.26 2728.98 L1421.89 2729.99 L1420.75 2730.87 L1414.82 2734.28 L1401.70 2740.71 L1391.72 2745.64 L1382.89 2750.31 L1374.81 2756.24 L1370.02 2762.55 L1366.36 2767.98 L1366.23 2768.36 L1364.21 2772.90 L1362.06 2778.58 L1360.68 2781.74 L1359.79 2785.14 L1359.54 2787.29 L1359.29 2788.30 L1359.04 2789.69 L1358.66 2800.42 L1359.16 2810.64 L1359.29 2830.20 L1359.67 2831.97 L1359.92 2835.50 L1360.05 2838.79 L1360.30 2870.09 L1360.42 2876.27 L1360.42 2880.82 L1360.55 2881.57 L1360.55 2882.21 L1360.55 2884.60 L1360.68 2896.59 L1359.67 2896.47 L1359.79 2903.16 L1359.79 2912.37 L1360.55 2930.67 L1360.80 2935.72 L1361.18 2943.04 L1361.69 2955.29 L1361.69 2956.30 L1362.57 2955.79 L1363.20 2975.35 L1363.33 2977.50 L1363.96 3012.97 L1364.08 3019.15 L1364.59 3031.52 L1364.72 3034.30 L1364.72 3037.96 L1364.84 3040.36 L1365.85 3081.13 L1369.39 3180.71 L1370.39 3264.52 L1370.39 3265.03 L1372.29 3294.18 L1377.72 3421.66 L1381.12 3546.75 L1330.13 3547.76 L1223.11 3549.90 L1219.57 3550.03 L1158.23 3551.54 L1136.02 3552.17 L1055.50 3554.07 L974.85 3555.83 L934.72 3556.47 L936.36 3636.49 L938.12 3721.31 L939.76 3806.13 L939.89 3808.90 L939.89 3808.90 Z" stroke-linejoin="round"/>
	</defs>
	<use xlink:href="#path_UnxrOrSS" style="fill:#9DC8CA;stroke:#6BB4D2;stroke-width:5.76"/>
	<defs>
		<path id="path_QYZMZUHw" d="M2249.58 3969.45 L2249.58 3969.45 L2237.08 3980.69 L2235.57 3982.58 L2235.57 3983.72 L2236.58 3986.87 L2236.70 3990.15 L2235.82 3991.29 L2230.39 3992.68 L2228.25 3993.18 L2221.31 3997.73 L2205.66 3999.49 L2204.02 3998.36 L2203.13 3995.08 L2201.49 3992.43 L2199.60 3991.04 L2197.07 3990.41 L2194.42 3990.15 L2193.16 3990.03 L2191.52 3989.52 L2190.01 3988.89 L2184.07 3989.27 L2179.15 3793.63 L2178.02 3789.59 L2176.50 3786.06 L2174.86 3783.79 L2173.09 3782.78 L2170.19 3779.75 L2071.49 3781.51 L2058.50 3781.77 L2058.75 3818.24 L2058.50 3824.43 L2042.09 3826.83 L2036.28 3828.85 L2025.68 3834.65 L1984.54 3854.72 L1975.83 3857.88 L1965.98 3859.90 L1958.91 3860.15 L1953.11 3857.62 L1940.11 3849.92 L1935.44 3848.54 L1931.02 3848.28 L1891.77 3849.67 L1723.91 3849.55 L1723.78 3817.49 L1714.44 3816.86 L1699.43 3815.97 L1695.77 3815.72 L1672.29 3814.08 L1669.64 3813.70 L1665.85 3813.19 L1661.44 3812.44 L1640.86 3808.90 L1432.11 3825.31 L1430.60 3825.44 L1426.05 3825.06 L1410.15 3817.74 L1408.13 3817.23 L1406.36 3817.23 L1400.94 3818.50 L1396.77 3819.51 L1392.61 3820.77 L1387.81 3821.02 L1387.81 3820.26 L1388.19 3804.23 L1388.19 3799.44 L1404.72 3799.18 L1454.32 3798.17 L1533.33 3796.28 L1577.38 3795.02 L1582.18 3795.15 L1585.08 3795.40 L1587.22 3795.90 L1592.53 3797.42 L1609.56 3796.41 L1657.90 3793.63 L1723.41 3789.84 L1723.15 3775.20 L1723.28 3750.97 L1723.28 3744.53 L1721.77 3700.23 L1721.13 3682.94 L1720.38 3659.21 L1718.11 3582.34 L1717.60 3566.31 L1712.43 3411.82 L1626.48 3416.24 L1601.61 3416.99 L1600.73 3416.99 L1601.49 3445.27 L1601.61 3447.67 L1605.27 3555.46 L1608.93 3663.37 L1610.32 3701.87 L1610.45 3709.06 L1610.70 3723.58 L1610.57 3724.84 L1610.45 3725.60 L1609.94 3726.61 L1609.44 3727.37 L1606.16 3730.52 L1604.77 3731.66 L1604.01 3732.29 L1603.13 3732.54 L1601.99 3732.92 L1600.22 3733.17 L1564.38 3734.06 L1562.87 3734.43 L1561.86 3734.94 L1560.72 3735.95 L1544.94 3722.82 L1541.28 3722.44 L1537.62 3722.95 L1527.15 3724.97 L1526.14 3724.46 L1526.52 3719.67 L1526.90 3718.40 L1526.77 3717.77 L1526.39 3717.39 L1525.89 3717.14 L1523.99 3718.40 L1515.54 3715.12 L1514.02 3712.60 L1515.03 3709.82 L1517.94 3708.69 L1519.32 3707.42 L1519.20 3705.91 L1515.03 3701.87 L1514.02 3701.24 L1513.52 3702.12 L1511.75 3706.67 L1509.35 3707.80 L1507.08 3707.04 L1505.95 3701.87 L1504.94 3700.73 L1499.76 3698.21 L1494.71 3687.10 L1492.95 3683.69 L1490.93 3682.56 L1488.02 3684.96 L1486.63 3685.21 L1482.72 3684.96 L1481.21 3685.34 L1474.39 3687.10 L1473.76 3687.86 L1472.12 3692.40 L1469.09 3696.44 L1468.84 3701.11 L1467.20 3706.16 L1464.80 3707.93 L1461.65 3708.05 L1459.12 3706.79 L1458.11 3707.04 L1454.70 3706.16 L1452.68 3703.51 L1448.90 3702.50 L1446.25 3703.51 L1443.60 3703.13 L1440.44 3702.37 L1436.66 3698.59 L1435.39 3698.08 L1430.72 3698.59 L1429.08 3698.34 L1427.82 3696.82 L1426.18 3691.52 L1420.00 3689.12 L1418.23 3689.50 L1415.96 3691.14 L1415.70 3695.43 L1414.82 3696.95 L1412.80 3696.19 L1412.17 3698.97 L1412.68 3701.87 L1417.47 3706.41 L1417.60 3708.31 L1414.95 3712.47 L1412.30 3714.87 L1410.66 3717.39 L1409.27 3721.69 L1407.12 3722.32 L1406.24 3724.46 L1405.86 3730.27 L1405.23 3731.53 L1403.84 3732.41 L1398.03 3732.54 L1397.15 3731.53 L1396.02 3729.13 L1393.87 3727.49 L1391.98 3728.50 L1386.42 3730.14 L1384.91 3670.32 L1384.03 3632.32 L1381.12 3546.75 L1377.72 3421.66 L1372.29 3294.18 L1370.39 3265.03 L1370.39 3264.52 L1369.39 3180.71 L1365.85 3081.13 L1364.84 3040.36 L1364.72 3037.96 L1364.72 3034.30 L1364.59 3031.52 L1364.08 3019.15 L1363.96 3012.97 L1363.33 2977.50 L1363.20 2975.35 L1362.57 2955.79 L1361.69 2956.30 L1361.69 2955.29 L1361.18 2943.04 L1360.80 2935.72 L1360.55 2930.67 L1359.79 2912.37 L1359.79 2903.16 L1359.67 2896.47 L1360.68 2896.59 L1360.55 2884.60 L1360.55 2882.21 L1360.55 2881.57 L1360.42 2880.82 L1360.42 2876.27 L1360.30 2870.09 L1360.05 2838.79 L1359.92 2835.50 L1359.67 2831.97 L1359.29 2830.20 L1359.16 2810.64 L1358.66 2800.42 L1359.04 2789.69 L1359.29 2788.30 L1359.54 2787.29 L1359.79 2785.14 L1360.68 2781.74 L1362.06 2778.58 L1364.21 2772.90 L1366.23 2768.36 L1366.36 2767.98 L1370.02 2762.55 L1374.81 2756.24 L1382.89 2750.31 L1391.72 2745.64 L1401.70 2740.71 L1414.82 2734.28 L1420.75 2730.87 L1421.89 2729.99 L1422.39 2730.74 L1434.51 2750.43 L1436.02 2752.58 L1439.18 2757.12 L1439.94 2758.13 L1441.20 2759.52 L1441.96 2760.53 L1443.47 2761.67 L1446.37 2763.69 L1448.01 2764.82 L1449.15 2765.33 L1450.54 2765.83 L1452.31 2766.46 L1453.69 2766.84 L1456.47 2767.35 L1459.50 2767.60 L1465.31 2767.98 L1470.10 2768.36 L1476.41 2768.86 L1479.82 2768.99 L1481.71 2769.11 L1485.75 2769.49 L1487.27 2770.00 L1488.78 2770.38 L1490.17 2771.01 L1492.57 2772.14 L1494.84 2773.53 L1499.26 2776.43 L1517.18 2739.96 L1525.13 2723.80 L1556.05 2653.50 L1548.98 2656.27 L1522.23 2662.71 L1473.51 2616.14 L1449.78 2597.33 L1451.42 2592.15 L1458.49 2568.55 L1452.43 2531.06 L1451.30 2531.19 L1444.48 2531.19 L1442.97 2530.31 L1427.06 2530.81 L1423.40 2530.94 L1422.52 2530.94 L1421.51 2503.30 L1421.13 2497.74 L1420.63 2488.02 L1420.50 2484.49 L1420.12 2478.94 L1419.62 2470.48 L1418.99 2459.88 L1418.99 2459.50 L1418.99 2458.62 L1417.98 2456.97 L1417.85 2455.84 L1417.72 2454.45 L1417.22 2452.18 L1416.84 2450.92 L1416.46 2449.78 L1415.83 2448.01 L1411.79 2449.40 L1411.03 2449.65 L1410.40 2449.65 L1410.02 2449.65 L1409.77 2449.65 L1409.52 2449.40 L1409.27 2449.15 L1409.14 2448.64 L1409.14 2448.39 L1409.27 2447.76 L1409.39 2447.00 L1409.39 2446.37 L1409.52 2445.99 L1409.39 2445.49 L1409.02 2445.24 L1408.64 2444.98 L1396.39 2442.21 L1395.01 2441.45 L1394.50 2439.30 L1394.00 2437.03 L1393.24 2435.64 L1383.27 2429.84 L1371.91 2439.05 L1370.52 2439.56 L1358.03 2439.93 L1357.27 2438.80 L1356.01 2410.53 L1356.01 2408.63 L1357.65 2403.20 L1316.76 2384.15 L1313.60 2367.74 L1309.69 2347.04 L1307.42 2347.16 L1306.28 2347.16 L1305.02 2346.91 L1303.76 2346.66 L1302.75 2345.52 L1301.86 2342.37 L1301.74 2340.85 L1301.74 2340.10 L1301.86 2336.69 L1301.99 2335.30 L1302.11 2334.54 L1302.49 2334.04 L1303.12 2333.53 L1304.01 2333.28 L1305.02 2333.15 L1307.16 2333.03 L1310.57 2332.90 L1310.57 2328.74 L1310.32 2317.00 L1310.32 2314.73 L1310.19 2309.80 L1307.29 2309.93 L1284.82 2310.69 L1284.70 2309.93 L1284.07 2293.90 L1282.93 2254.65 L1282.93 2253.51 L1281.16 2208.58 L1281.16 2207.57 L1280.91 2198.60 L1280.91 2192.80 L1280.28 2168.31 L1279.14 2168.19 L1278.26 2167.55 L1276.87 2167.55 L1271.45 2167.81 L1271.45 2168.94 L1271.82 2182.07 L1271.82 2184.85 L1272.08 2191.54 L1272.08 2193.05 L1271.82 2194.44 L1271.70 2194.94 L1271.32 2195.45 L1270.81 2195.95 L1270.06 2196.21 L1269.05 2196.33 L1258.57 2196.58 L1256.30 2196.58 L1255.42 2196.46 L1254.79 2196.33 L1254.03 2195.95 L1253.40 2195.32 L1252.77 2194.57 L1252.01 2193.30 L1242.16 2175.25 L1238.13 2167.81 L1231.82 2173.23 L1229.54 2175.13 L1228.91 2175.89 L1228.41 2176.52 L1228.16 2177.15 L1227.90 2178.03 L1227.90 2179.04 L1227.90 2180.68 L1228.16 2188.25 L1227.90 2189.90 L1227.15 2196.46 L1226.26 2189.90 L1225.51 2189.64 L1225.00 2189.39 L1224.50 2186.11 L1221.34 2165.03 L1222.35 2155.94 L1223.86 2144.08 L1223.99 2143.07 L1225.13 2132.59 L1237.62 2131.96 L1236.61 2131.20 L1234.47 2128.81 L1232.83 2126.91 L1231.82 2125.40 L1230.55 2123.38 L1228.91 2120.35 L1227.78 2117.95 L1226.77 2115.30 L1226.14 2113.28 L1225.51 2111.26 L1225.00 2109.12 L1224.75 2107.22 L1224.62 2105.71 L1224.37 2103.44 L1224.37 2101.16 L1224.24 2100.28 L1227.27 2100.28 L1225.88 2099.27 L1224.24 2099.27 L1224.24 2097.76 L1223.86 2073.27 L1223.61 2061.53 L1222.98 2040.96 L1222.85 2034.27 L1222.73 2032.12 L1225.88 2032.12 L1231.31 2032.12 L1231.82 2032.25 L1233.58 2032.50 L1243.68 2038.56 L1260.84 2048.91 L1261.85 2049.16 L1265.39 2050.42 L1274.98 2053.45 L1275.74 2053.45 L1276.75 2048.66 L1276.87 2047.65 L1276.87 2043.36 L1276.24 2038.05 L1276.24 2030.48 L1275.99 2022.66 L1275.61 2012.31 L1275.11 1987.31 L1274.10 1950.58 L1273.59 1950.21 L1272.96 1950.21 L1249.61 1952.10 L1240.52 1952.48 L1220.58 1953.36 L1218.69 1953.36 L1216.29 1953.36 L1205.44 1953.74 L1203.29 1953.61 L1201.15 1953.87 L1194.71 1953.99 L1188.27 1953.99 L1177.04 1954.24 L1160.25 1954.88 L1157.23 1955.00 L1153.94 1954.88 L1153.06 1954.75 L1151.80 1954.75 L1151.04 1954.62 L1149.65 1954.50 L1148.52 1954.24 L1142.84 1952.73 L1140.94 1951.85 L1138.55 1950.84 L1134.00 1948.31 L1132.61 1947.56 L1130.85 1946.29 L1128.95 1944.78 L1127.44 1943.52 L1126.30 1942.63 L1125.67 1942.13 L1124.16 1940.49 L1122.01 1938.09 L1120.88 1936.83 L1119.74 1935.19 L1117.47 1932.41 L1116.08 1930.26 L1114.82 1928.12 L1114.44 1927.49 L1113.93 1926.48 L1113.81 1926.10 L1113.05 1924.58 L1112.67 1923.70 L1112.55 1923.57 L1112.17 1922.69 L1111.03 1919.66 L1110.65 1918.40 L1110.27 1917.26 L1110.02 1916.51 L1109.27 1913.73 L1108.51 1910.57 L1108.13 1908.93 L1108.00 1907.67 L1107.88 1906.53 L1107.62 1904.89 L1107.50 1903.50 L1107.37 1898.83 L1106.49 1874.85 L1106.36 1868.92 L1105.73 1847.72 L1105.48 1840.14 L1104.85 1828.78 L1104.85 1822.60 L1104.09 1797.23 L1103.08 1765.80 L1101.31 1703.32 L1101.06 1690.70 L1099.80 1645.01 L1097.91 1577.10 L1096.52 1462.24 L1095.00 1358.24 L1094.25 1322.02 L1206.19 1320.25 L1254.28 1319.36 L1308.43 1318.61 L1315.49 1318.48 L1415.83 1316.08 L1476.92 1314.44 L1486.26 1314.69 L1527.27 1315.45 L1540.78 1315.70 L1539.77 1285.29 L1536.61 1196.81 L1534.97 1117.29 L1533.59 1062.00 L1541.03 1061.88 L1639.60 1060.62 L1655.88 1060.24 L1678.47 1060.11 L1701.95 1059.73 L1711.79 1059.48 L1719.37 1059.35 L1731.36 1059.35 L1744.86 1059.10 L1757.61 1059.10 L1754.96 978.45 L1752.94 918.87 L1748.27 778.64 L1968.63 773.72 L1968.76 773.72 L1972.04 773.97 L2047.77 771.32 L2153.03 768.42 L2183.19 768.17 L2182.06 770.19 L2181.30 772.08 L2180.04 774.73 L2179.40 793.41 L2177.26 798.84 L2172.97 802.50 L2170.57 804.01 L2168.30 805.91 L2163.63 810.96 L2162.37 813.35 L2161.36 816.64 L2161.10 820.67 L2162.24 825.34 L2168.80 839.99 L2170.82 846.17 L2170.95 849.20 L2174.10 863.84 L2173.85 865.73 L2176.12 873.69 L2176.63 875.45 L2182.56 879.87 L2184.71 881.39 L2190.76 884.41 L2192.91 886.81 L2193.29 888.83 L2193.16 893.12 L2188.24 903.85 L2187.23 906.25 L2187.73 908.65 L2187.86 916.10 L2187.61 919.25 L2187.61 920.77 L2190.26 926.95 L2191.52 928.97 L2194.05 932.00 L2194.55 935.15 L2194.55 938.18 L2193.29 941.34 L2191.77 943.99 L2181.68 950.68 L2177.13 954.59 L2174.99 955.73 L2165.52 958.13 L2162.62 958.38 L2160.85 959.64 L2157.95 963.30 L2156.69 965.19 L2154.16 969.86 L2148.74 974.16 L2146.09 975.92 L2145.58 977.06 L2145.83 988.55 L2146.21 990.31 L2148.74 998.01 L2148.48 1001.17 L2148.10 1002.43 L2144.19 1007.73 L2142.55 1009.25 L2140.91 1008.99 L2132.71 1004.70 L2128.92 1005.84 L2126.78 1008.87 L2126.14 1012.53 L2129.93 1030.45 L2130.31 1032.34 L2129.30 1034.36 L2122.61 1046.48 L2119.33 1050.77 L2116.55 1051.91 L2113.78 1055.82 L2110.87 1058.34 L2106.71 1061.12 L2112.13 1068.82 L2114.41 1072.10 L2116.55 1074.37 L2118.95 1075.64 L2121.98 1075.64 L2125.89 1074.25 L2142.80 1064.78 L2147.47 1062.89 L2151.76 1062.00 L2155.93 1061.88 L2179.15 1061.25 L2184.33 1060.74 L2191.52 1059.48 L2197.45 1058.72 L2203.64 1057.46 L2210.20 1054.81 L2216.89 1052.66 L2222.57 1050.90 L2228.88 1049.26 L2230.90 1048.75 L2235.06 1047.74 L2239.86 1046.86 L2244.66 1046.10 L2252.99 1045.09 L2253.74 1044.97 L2254.63 1042.69 L2257.40 1035.50 L2269.14 1004.83 L2281.00 974.28 L2282.27 971.00 L2285.30 963.18 L2292.74 943.61 L2296.40 933.89 L2298.93 926.95 L2300.44 922.03 L2301.45 918.49 L2302.84 913.57 L2303.97 908.27 L2304.98 903.73 L2305.87 899.06 L2306.63 894.51 L2307.26 889.84 L2307.76 885.42 L2308.27 880.50 L2308.64 874.95 L2308.77 869.65 L2308.90 864.72 L2308.77 859.30 L2308.64 852.61 L2308.01 844.40 L2307.26 836.70 L2306.50 829.51 L2305.62 819.41 L2304.98 812.09 L2304.10 803.51 L2303.22 793.54 L2302.59 787.10 L2304.23 786.97 L2302.46 768.29 L2304.10 768.17 L2310.54 768.04 L2333.00 767.16 L2349.16 762.36 L2401.41 758.20 L2432.84 756.81 L2439.02 756.68 L2438.89 768.29 L2442.55 903.22 L2446.21 1038.15 L2449.24 1134.96 L2452.15 1231.77 L2453.91 1289.20 L2456.82 1414.91 L2459.84 1540.63 L2461.23 1616.86 L2462.24 1668.86 L2462.50 1680.48 L2462.50 1681.36 L2463.25 1706.98 L2463.38 1715.06 L2465.27 1791.30 L2468.30 1917.39 L2471.33 2043.36 L2475.12 2176.89 L2476.00 2211.98 L2477.01 2235.71 L2479.41 2297.94 L2481.81 2378.97 L2481.81 2380.49 L2483.32 2422.26 L2484.83 2458.62 L2486.35 2500.01 L2486.22 2503.55 L2486.35 2508.35 L2490.51 2651.73 L2492.28 2726.45 L2492.66 2737.81 L2492.91 2747.91 L2492.91 2750.94 L2494.05 2780.98 L2494.30 2794.36 L2494.43 2794.99 L2495.56 2844.84 L2496.57 2896.59 L2496.57 2924.11 L2496.95 2931.05 L2497.20 2936.61 L2497.71 2945.69 L2499.60 2983.56 L2500.11 3007.29 L2478.65 3008.30 L2463.00 3008.80 L2397.75 3010.95 L2356.73 3011.96 L2345.62 3012.21 L2329.60 3012.72 L2329.60 3014.23 L2330.98 3089.96 L2330.98 3092.74 L2331.11 3096.15 L2333.00 3149.79 L2334.01 3179.07 L2336.28 3244.96 L2336.41 3250.51 L2337.04 3265.66 L2353.07 3265.15 L2439.78 3262.88 L2506.67 3261.24 L2509.07 3376.23 L2510.58 3441.99 L2511.21 3455.74 L2511.47 3469.25 L2511.72 3479.47 L2511.59 3489.19 L2511.34 3497.27 L2511.09 3504.84 L2510.71 3513.30 L2517.90 3512.79 L2526.23 3512.16 L2529.13 3512.04 L2531.28 3512.16 L2534.94 3512.79 L2541.76 3514.06 L2543.77 3514.18 L2545.79 3514.18 L2565.61 3513.55 L2617.86 3512.04 L2672.26 3510.77 L2715.80 3509.39 L2732.96 3509.01 L2757.58 3508.50 L2815.25 3507.11 L2848.19 3506.61 L2851.73 3760.69 L2776.76 3762.20 L2692.83 3764.35 L2648.91 3765.61 L2593.50 3767.12 L2515.76 3768.77 L2495.81 3769.78 L2400.15 3772.17 L2403.68 3782.14 L2407.34 3798.93 L2408.22 3801.33 L2410.37 3803.22 L2429.68 3831.12 L2432.08 3834.15 L2433.09 3838.19 L2435.49 3844.75 L2438.01 3854.85 L2447.35 3875.55 L2450.63 3882.49 L2454.80 3888.55 L2458.84 3894.98 L2463.13 3902.31 L2468.81 3918.46 L2471.08 3923.64 L2474.86 3929.32 L2480.92 3940.80 L2485.97 3951.91 L2491.90 3963.65 L2492.03 3964.03 L2425.77 3964.28 L2327.20 3964.78 L2325.43 3964.91 L2318.62 3966.68 L2314.20 3964.78 L2306.25 3966.42 L2300.19 3965.67 L2254.63 3967.94 L2251.09 3968.19 L2249.58 3969.45 L2249.58 3969.45 Z" stroke-linejoin="round"/>
	</defs>
	<use xlink:href="#path_QYZMZUHw" style="fill:#6BACAF;stroke:#097D9B;stroke-width:5.76"/>
	<defs>
		<path id="path_nOyDxIeW" d="M1499.26 2776.43 L1499.26 2776.43 L1494.84 2773.53 L1492.57 2772.14 L1490.17 2771.01 L1488.78 2770.38 L1487.27 2770.00 L1485.75 2769.49 L1481.71 2769.11 L1479.82 2768.99 L1476.41 2768.86 L1470.10 2768.36 L1465.31 2767.98 L1459.50 2767.60 L1456.47 2767.35 L1453.69 2766.84 L1452.31 2766.46 L1450.54 2765.83 L1449.15 2765.33 L1448.01 2764.82 L1446.37 2763.69 L1443.47 2761.67 L1441.96 2760.53 L1441.20 2759.52 L1439.94 2758.13 L1439.18 2757.12 L1436.02 2752.58 L1434.51 2750.43 L1422.39 2730.74 L1421.89 2729.99 L1421.26 2728.98 L1418.48 2724.56 L1417.47 2725.32 L1416.97 2725.69 L1416.34 2726.07 L1415.70 2726.32 L1413.31 2727.59 L1413.18 2727.71 L1410.78 2728.72 L1408.26 2729.61 L1406.49 2730.11 L1404.72 2730.49 L1402.45 2730.87 L1399.93 2731.00 L1399.30 2731.00 L1398.03 2731.12 L1396.90 2731.12 L1394.25 2730.87 L1391.72 2730.49 L1389.71 2729.99 L1388.19 2729.61 L1386.93 2729.23 L1385.41 2728.72 L1384.28 2728.22 L1383.02 2727.71 L1382.76 2727.59 L1380.62 2726.45 L1379.48 2725.82 L1378.35 2725.06 L1377.59 2724.56 L1375.82 2723.17 L1374.56 2722.03 L1373.17 2720.77 L1371.78 2719.51 L1369.64 2717.24 L1368.50 2715.85 L1367.11 2713.70 L1365.09 2710.80 L1364.84 2710.55 L1364.46 2710.30 L1364.08 2710.17 L1363.83 2710.17 L1363.33 2710.30 L1361.56 2711.43 L1360.17 2712.19 L1359.29 2712.69 L1358.03 2712.95 L1357.65 2712.95 L1356.64 2713.07 L1356.26 2693.63 L1355.63 2672.68 L1355.00 2648.83 L1354.49 2635.95 L1354.11 2624.47 L1353.23 2599.22 L1353.23 2597.58 L1353.10 2595.56 L1352.85 2589.88 L1352.73 2584.46 L1352.60 2581.80 L1352.47 2579.41 L1351.97 2558.45 L1351.59 2548.10 L1351.21 2538.13 L1351.08 2535.99 L1351.08 2534.98 L1351.08 2533.97 L1350.96 2532.33 L1351.34 2528.29 L1351.59 2525.64 L1352.09 2522.23 L1335.06 2522.61 L1333.29 2522.61 L1332.41 2522.23 L1331.52 2521.85 L1331.02 2521.22 L1330.76 2520.59 L1330.51 2518.95 L1330.01 2505.44 L1330.01 2504.94 L1330.01 2504.68 L1330.13 2504.43 L1330.26 2504.18 L1330.64 2503.93 L1331.52 2503.93 L1332.66 2503.80 L1354.37 2503.68 L1355.50 2491.68 L1355.63 2489.66 L1329.76 2489.66 L1323.19 2493.70 L1305.40 2504.81 L1293.91 2513.52 L1290.38 2533.21 L1286.34 2533.08 L1271.45 2532.83 L1271.45 2532.45 L1271.07 2527.40 L1270.94 2526.65 L1270.56 2525.64 L1270.18 2524.63 L1267.41 2517.05 L1265.01 2511.75 L1264.13 2510.11 L1261.85 2506.45 L1260.47 2507.46 L1258.70 2509.10 L1254.41 2512.89 L1253.65 2513.39 L1252.64 2513.90 L1251.50 2514.28 L1249.86 2514.66 L1248.22 2514.91 L1247.84 2514.78 L1237.37 2514.53 L1236.99 2512.38 L1236.74 2511.12 L1236.11 2509.86 L1235.35 2508.47 L1233.96 2506.58 L1232.45 2504.94 L1229.54 2502.79 L1221.84 2496.86 L1221.09 2496.23 L1216.54 2492.95 L1215.79 2492.69 L1214.65 2492.44 L1212.63 2492.44 L1207.20 2492.57 L1206.70 2475.65 L1206.32 2460.51 L1205.56 2431.10 L1204.93 2404.47 L1206.95 2404.21 L1209.35 2403.84 L1211.50 2403.46 L1215.79 2402.83 L1218.69 2402.57 L1222.85 2402.32 L1223.49 2402.32 L1223.74 2402.32 L1231.06 2402.07 L1236.99 2401.82 L1250.12 2401.56 L1273.34 2400.93 L1288.23 2400.43 L1288.11 2395.38 L1287.47 2384.15 L1286.97 2370.14 L1316.76 2384.15 L1357.65 2403.20 L1356.01 2408.63 L1356.01 2410.53 L1357.27 2438.80 L1358.03 2439.93 L1370.52 2439.56 L1371.91 2439.05 L1383.27 2429.84 L1393.24 2435.64 L1394.00 2437.03 L1394.50 2439.30 L1395.01 2441.45 L1396.39 2442.21 L1408.64 2444.98 L1409.02 2445.24 L1409.39 2445.49 L1409.52 2445.99 L1409.39 2446.37 L1409.39 2447.00 L1409.27 2447.76 L1409.14 2448.39 L1409.14 2448.64 L1409.27 2449.15 L1409.52 2449.40 L1409.77 2449.65 L1410.02 2449.65 L1410.40 2449.65 L1411.03 2449.65 L1411.79 2449.40 L1415.83 2448.01 L1416.46 2449.78 L1416.84 2450.92 L1417.22 2452.18 L1417.72 2454.45 L1417.85 2455.84 L1417.98 2456.97 L1418.99 2458.62 L1418.99 2459.50 L1418.99 2459.88 L1419.62 2470.48 L1420.12 2478.94 L1420.50 2484.49 L1420.63 2488.02 L1421.13 2497.74 L1421.51 2503.30 L1422.52 2530.94 L1423.40 2530.94 L1427.06 2530.81 L1442.97 2530.31 L1444.48 2531.19 L1451.30 2531.19 L1452.43 2531.06 L1458.49 2568.55 L1451.42 2592.15 L1449.78 2597.33 L1473.51 2616.14 L1522.23 2662.71 L1548.98 2656.27 L1556.05 2653.50 L1525.13 2723.80 L1517.18 2739.96 L1499.26 2776.43 L1499.26 2776.43 Z" stroke-linejoin="round"/>
	</defs>
	<use xlink:href="#path_nOyDxIeW" style="fill:#09757A;stroke:#00465F;stroke-width:5.76"/>
</svg>
