<?xml version="1.0" encoding="UTF-8" standalone="no"?>
<!-- This is a Stata 16.1 generated SVG file (http://www.stata.com) -->

<svg version="1.1" width="4.00in" height="5.04in" viewBox="0 0 2880 3625" xmlns="http://www.w3.org/2000/svg" xmlns:xlink="http://www.w3.org/1999/xlink">
	<desc>Stata Graph - Graph</desc>
	<rect x="0" y="0" width="2880" height="3625" style="fill:#FFFFFF;stroke:none"/>
	<defs>
		<path id="path_CtwaUvkr" d="M970.23 1535.30 L970.23 1535.30 L949.05 1533.71 L948.14 1541.42 L932.96 1539.72 L930.13 1573.25 L918.91 1569.17 L915.63 1568.04 L909.96 1565.89 L905.32 1564.19 L899.99 1562.38 L897.05 1561.47 L892.29 1560.00 L886.40 1558.07 L881.07 1556.37 L876.09 1554.67 L874.05 1554.11 L872.46 1553.54 L869.97 1552.75 L868.04 1552.29 L866.23 1551.73 L864.99 1551.39 L861.70 1550.71 L863.17 1539.15 L866.91 1497.35 L873.26 1431.54 L876.99 1388.04 L879.37 1363.23 L886.17 1357.68 L903.62 1318.71 L912.46 1300.36 L924.24 1302.28 L924.92 1294.92 L930.24 1293.33 L930.24 1286.99 L932.51 1287.10 L934.43 1286.65 L939.87 1239.18 L941.00 1208.37 L941.00 1203.50 L938.06 1189.68 L944.97 1189.91 L953.47 1191.04 L955.05 1174.27 L959.81 1175.07 L963.66 1161.02 L961.17 1152.75 L965.25 1126.24 L960.83 1124.88 L962.76 1113.10 L963.89 1105.40 L963.89 1103.93 L963.44 1102.68 L963.10 1102.23 L964.00 1101.09 L964.23 1099.39 L964.00 1096.90 L946.90 1094.18 L923.44 1090.33 L891.50 1084.44 L890.59 1078.44 L888.78 1067.34 L909.28 1070.96 L928.09 1074.25 L947.01 1077.87 L966.50 1081.27 L968.19 1081.61 L971.37 1082.29 L970.35 1098.04 L967.85 1114.69 L979.52 1118.31 L981.68 1118.77 L991.99 1122.96 L990.06 1133.15 L1005.58 1137.12 L1009.66 1109.25 L1009.89 1106.19 L1010.00 1104.72 L1010.23 1103.59 L1010.34 1102.34 L1010.45 1100.41 L1004.22 1099.39 L985.42 1094.07 L984.96 1093.50 L984.62 1092.82 L984.51 1092.03 L985.30 1084.55 L989.72 1047.06 L992.21 1022.02 L993.80 1009.34 L998.56 964.93 L1000.82 947.37 L1002.98 948.16 L1004.79 948.84 L1007.28 949.64 L1008.87 927.43 L1015.32 878.50 L985.98 871.93 L982.24 870.79 L977.82 868.87 L965.48 841.57 L963.21 835.45 L951.77 807.13 L949.05 799.99 L949.95 792.06 L947.12 792.86 L946.90 791.72 L946.56 786.96 L948.14 788.21 L949.50 789.34 L952.33 790.02 L956.53 790.70 L957.89 791.38 L964.46 794.89 L990.97 806.68 L1020.54 819.93 L1021.33 811.43 L1026.88 754.11 L1040.36 756.72 L1042.51 735.88 L1030.39 733.50 L1029.94 713.79 L1044.10 723.07 L1044.89 716.96 L1050.11 671.08 L1053.50 635.05 L1056.56 606.05 L1047.27 604.24 L1042.06 603.11 L1037.19 602.09 L1042.06 554.85 L1046.25 556.21 L1047.61 556.55 L1055.77 558.02 L1057.58 534.01 L1063.47 518.04 L1065.17 519.96 L1065.85 520.64 L1066.31 522.57 L1067.21 523.81 L1068.80 522.57 L1068.46 519.51 L1067.55 511.69 L1075.94 491.53 L1078.43 491.98 L1086.13 493.45 L1097.57 495.61 L1107.66 497.53 L1109.13 480.31 L1111.17 466.61 L1111.96 457.32 L1112.42 455.50 L1112.98 455.05 L1113.89 454.94 L1117.63 455.28 L1120.01 455.73 L1121.93 456.07 L1131.56 457.77 L1133.49 438.85 L1133.60 437.72 L1135.64 420.39 L1150.26 404.75 L1152.86 401.92 L1160.23 402.15 L1159.55 408.61 L1166.57 411.21 L1169.85 410.42 L1177.33 402.60 L1177.67 399.88 L1184.24 402.83 L1188.55 403.62 L1189.91 403.96 L1191.38 404.19 L1193.99 404.75 L1202.26 406.68 L1203.73 392.75 L1205.20 383.12 L1209.28 347.32 L1216.42 348.79 L1216.87 333.39 L1216.76 329.54 L1212.11 330.33 L1211.32 329.88 L1211.66 323.19 L1211.89 320.47 L1212.68 313.90 L1212.57 310.16 L1211.66 303.25 L1204.75 298.38 L1199.08 294.42 L1197.27 295.55 L1198.29 293.51 L1202.14 286.38 L1203.05 284.68 L1199.20 285.24 L1194.10 286.04 L1187.19 287.17 L1173.48 279.58 L1177.56 269.27 L1183.34 253.30 L1190.81 233.02 L1195.35 221.35 L1195.57 220.67 L1195.46 220.11 L1195.23 219.54 L1194.78 218.86 L1187.87 215.01 L1192.63 203.91 L1205.77 171.51 L1206.90 168.68 L1208.60 163.92 L1209.39 160.75 L1210.41 156.44 L1210.75 154.63 L1211.32 152.82 L1212.34 149.42 L1212.91 148.06 L1213.59 146.47 L1214.72 144.32 L1216.08 142.51 L1217.21 141.60 L1215.06 137.64 L1213.81 135.37 L1212.34 132.31 L1210.98 129.48 L1210.19 126.99 L1209.28 124.50 L1208.49 121.66 L1207.69 118.15 L1207.24 114.30 L1207.01 109.54 L1206.90 106.03 L1207.35 102.29 L1207.92 97.76 L1208.37 94.36 L1209.05 91.98 L1209.62 90.29 L1210.41 87.79 L1211.55 85.30 L1213.59 80.77 L1215.06 77.94 L1216.64 74.65 L1218.68 69.89 L1221.18 64.57 L1224.57 56.87 L1226.27 53.36 L1228.20 48.94 L1230.01 44.75 L1234.20 35.68 L1235.79 37.27 L1237.60 38.74 L1240.21 40.44 L1242.70 41.80 L1246.21 43.84 L1250.29 46.33 L1252.44 47.92 L1254.14 49.50 L1255.39 50.86 L1256.98 52.79 L1258.45 54.94 L1260.26 57.55 L1262.19 60.61 L1263.21 62.64 L1263.55 63.55 L1263.89 64.68 L1264.23 67.40 L1269.21 68.31 L1271.02 68.88 L1272.61 69.67 L1275.67 71.48 L1278.62 73.63 L1282.13 75.79 L1285.64 78.16 L1287.23 79.30 L1291.19 81.68 L1292.21 82.13 L1293.46 82.70 L1296.06 83.71 L1298.55 84.51 L1293.23 101.16 L1285.98 101.84 L1255.73 104.67 L1267.17 157.69 L1280.77 220.22 L1266.72 233.25 L1263.21 236.19 L1243.15 255.00 L1240.21 257.83 L1252.78 284.79 L1255.84 292.15 L1258.56 305.07 L1260.83 314.02 L1262.64 327.61 L1258.68 332.59 L1257.88 343.81 L1255.96 354.23 L1253.01 368.96 L1249.50 383.00 L1244.97 400.79 L1239.98 419.37 L1235.11 441.57 L1228.43 478.50 L1227.52 488.13 L1227.41 499.00 L1228.09 508.29 L1230.24 522.11 L1231.71 528.00 L1233.53 533.89 L1237.60 545.68 L1245.08 562.89 L1262.53 596.99 L1264.79 601.07 L1271.48 615.12 L1273.86 621.23 L1275.78 629.39 L1276.80 639.70 L1276.92 646.27 L1275.44 659.52 L1271.59 677.42 L1263.32 712.20 L1261.39 719.90 L1259.92 725.57 L1259.02 729.42 L1258.00 734.40 L1255.96 744.82 L1254.60 751.51 L1253.35 757.63 L1252.90 760.46 L1251.65 766.57 L1250.75 770.65 L1249.50 776.54 L1233.30 844.17 L1223.67 867.28 L1215.40 885.97 L1208.37 908.06 L1206.56 915.65 L1205.09 924.26 L1202.48 943.07 L1201.92 947.48 L1201.58 952.36 L1201.01 958.59 L1200.56 965.27 L1200.44 968.21 L1200.33 971.05 L1200.22 976.14 L1200.10 987.25 L1200.22 998.01 L1200.67 1004.58 L1201.24 1010.47 L1201.92 1015.79 L1202.37 1019.87 L1203.05 1024.18 L1203.73 1028.37 L1204.30 1032.22 L1205.43 1037.66 L1206.56 1042.87 L1208.03 1048.19 L1209.51 1052.72 L1211.09 1057.37 L1213.25 1063.14 L1216.87 1070.73 L1222.76 1081.61 L1226.39 1087.05 L1237.83 1103.02 L1241.34 1108.57 L1243.95 1114.12 L1248.59 1123.07 L1250.97 1129.07 L1258.34 1147.54 L1261.39 1156.15 L1262.30 1158.64 L1263.43 1162.27 L1264.45 1165.78 L1265.36 1168.95 L1266.04 1171.67 L1266.95 1175.86 L1267.40 1178.13 L1267.63 1180.16 L1267.74 1181.75 L1267.63 1183.68 L1267.40 1185.83 L1267.17 1187.87 L1266.72 1189.91 L1266.15 1192.06 L1265.70 1193.76 L1265.02 1195.91 L1264.11 1198.18 L1263.21 1200.89 L1262.64 1202.71 L1261.28 1206.22 L1259.58 1210.41 L1258.11 1214.15 L1248.71 1232.61 L1247.35 1235.33 L1246.10 1238.16 L1245.42 1240.20 L1244.74 1242.24 L1243.95 1245.19 L1243.15 1249.15 L1242.25 1253.57 L1241.80 1257.76 L1241.23 1262.41 L1241.12 1265.01 L1241.00 1268.07 L1241.12 1270.90 L1241.23 1274.07 L1241.57 1277.36 L1233.64 1274.87 L1228.31 1273.28 L1218.57 1270.22 L1216.76 1278.95 L1209.51 1312.70 L1202.94 1342.61 L1196.93 1369.57 L1195.69 1374.44 L1195.23 1376.71 L1194.89 1378.86 L1194.67 1382.94 L1194.55 1385.66 L1194.78 1388.71 L1194.89 1392.11 L1195.01 1395.63 L1195.01 1398.00 L1194.89 1402.20 L1194.21 1409.67 L1193.99 1411.48 L1193.31 1417.49 L1189.57 1449.66 L1186.51 1477.75 L1185.49 1486.48 L1165.66 1482.40 L1146.06 1479.57 L1125.56 1475.26 L1104.37 1471.41 L1083.64 1468.13 L1064.49 1464.73 L1045.46 1459.63 L1026.54 1456.00 L1006.94 1452.83 L988.25 1449.89 L987.23 1460.99 L982.02 1516.61 L980.54 1515.48 L979.18 1514.68 L972.84 1514.00 L970.23 1535.30 L970.23 1535.30 Z" stroke-linejoin="round"/>
	</defs>
	<use xlink:href="#path_CtwaUvkr" style="fill:#CEE3E4;stroke:#CEF5F5;stroke-width:5.76"/>
	<defs>
		<path id="path_TYtnWMWq" d="M1345.12 2366.79 L1345.12 2366.79 L1345.12 2366.79 L1323.82 2362.37 L1303.99 2358.74 L1300.14 2357.95 L1298.89 2357.72 L1296.29 2357.27 L1294.93 2356.93 L1293.68 2356.59 L1291.64 2356.25 L1284.73 2355.00 L1280.54 2354.21 L1274.76 2353.19 L1249.39 2348.55 L1229.11 2345.04 L1229.33 2342.43 L1222.99 2334.05 L1220.95 2330.08 L1222.99 2289.87 L1210.64 2288.62 L1209.39 2318.30 L1208.83 2337.33 L1208.60 2341.18 L1196.25 2339.03 L1191.04 2338.13 L1181.52 2336.31 L1165.21 2332.12 L1157.39 2329.74 L1146.40 2326.91 L1126.24 2322.61 L1105.05 2317.62 L1083.53 2312.75 L1063.25 2307.88 L1056.79 2306.18 L1037.64 2302.21 L1018.16 2300.40 L999.46 2298.02 L975.79 2295.08 L967.52 2294.51 L950.07 2292.36 L946.33 2291.68 L942.25 2290.43 L928.88 2286.24 L910.53 2280.24 L905.32 2278.65 L902.03 2277.75 L899.43 2277.07 L896.71 2276.39 L894.33 2275.93 L892.06 2275.59 L886.51 2274.69 L879.26 2274.12 L875.86 2273.67 L872.80 2273.10 L867.25 2271.06 L855.92 2266.19 L837.91 2258.60 L819.78 2251.35 L801.66 2243.65 L799.84 2242.86 L798.26 2242.18 L784.55 2236.40 L789.42 2211.25 L795.31 2213.52 L796.78 2214.31 L797.69 2214.76 L798.48 2215.78 L798.94 2217.03 L799.62 2219.29 L799.84 2219.52 L800.75 2220.31 L802.00 2220.88 L811.29 2224.84 L809.47 2213.40 L808.00 2207.63 L806.07 2201.05 L804.83 2190.52 L803.92 2189.50 L804.60 2185.08 L794.18 2184.86 L796.67 2172.51 L796.90 2170.70 L796.78 2169.34 L796.67 2166.84 L798.94 2142.26 L800.07 2120.40 L782.51 2119.38 L785.23 2110.77 L794.63 2078.37 L798.48 2065.91 L805.73 2041.55 L797.35 2040.65 L800.64 2008.36 L807.43 2008.93 L815.14 2009.50 L824.65 2010.29 L831.90 2010.74 L851.28 2012.21 L870.76 2013.80 L889.91 2015.27 L909.06 2016.75 L927.98 2018.22 L947.58 2019.58 L966.84 2021.16 L985.53 2022.52 L1008.30 2024.45 L1008.98 1999.41 L1009.21 1985.48 L1009.66 1967.24 L1010.00 1957.61 L1009.89 1946.74 L1010.68 1924.31 L1010.68 1912.30 L1011.25 1888.51 L1011.47 1876.73 L1011.47 1873.56 L1011.47 1871.18 L1016.80 1868.35 L1022.12 1865.40 L1025.86 1865.63 L1031.64 1866.31 L1047.27 1867.67 L1059.62 1868.57 L1068.57 1869.37 L1079.56 1870.16 L1092.36 1871.18 L1094.40 1871.29 L1120.35 1873.45 L1129.86 1874.24 L1148.33 1875.60 L1156.83 1876.05 L1166.12 1876.73 L1184.70 1878.09 L1200.10 1879.22 L1207.69 1879.79 L1213.36 1880.36 L1218.80 1881.04 L1224.12 1881.60 L1232.39 1882.39 L1234.20 1882.62 L1242.59 1883.30 L1254.71 1884.32 L1272.84 1885.23 L1293.34 1886.59 L1313.96 1888.17 L1332.77 1889.76 L1348.29 1890.89 L1351.92 1891.12 L1370.50 1892.93 L1381.60 1894.06 L1388.85 1894.63 L1407.88 1896.33 L1423.63 1897.46 L1426.35 1897.57 L1435.98 1898.37 L1453.76 1899.61 L1452.52 1969.51 L1451.95 1985.25 L1452.07 1986.95 L1452.41 1988.31 L1453.09 1989.33 L1454.67 1991.26 L1448.55 1997.49 L1443.80 2002.36 L1440.51 2005.53 L1435.75 2009.84 L1432.69 2012.44 L1422.38 2021.16 L1416.61 2025.92 L1412.19 2029.66 L1409.92 2031.81 L1408.33 2033.29 L1402.78 2039.06 L1401.76 2040.08 L1400.18 2042.01 L1399.04 2043.82 L1397.80 2046.31 L1396.67 2048.58 L1396.21 2049.71 L1395.76 2050.73 L1395.19 2053.11 L1395.08 2054.02 L1393.15 2067.84 L1391.00 2083.70 L1390.43 2088.57 L1389.64 2094.57 L1388.74 2101.59 L1386.92 2115.87 L1384.66 2135.80 L1384.54 2136.82 L1381.94 2157.89 L1380.13 2172.39 L1379.33 2179.08 L1378.43 2185.88 L1376.61 2200.15 L1373.89 2220.99 L1372.19 2234.36 L1371.29 2242.06 L1370.16 2247.27 L1368.91 2253.16 L1367.44 2260.30 L1366.87 2262.91 L1364.83 2273.89 L1363.47 2281.03 L1363.02 2283.64 L1362.68 2285.45 L1361.43 2292.13 L1360.19 2299.27 L1358.83 2304.82 L1358.15 2309.80 L1354.97 2324.87 L1353.05 2335.29 L1351.80 2342.43 L1350.67 2347.07 L1349.31 2352.40 L1348.18 2356.14 L1347.61 2358.52 L1347.16 2360.33 L1346.93 2361.23 L1346.48 2362.71 L1345.91 2364.75 L1345.12 2366.79 L1345.12 2366.79 Z" stroke-linejoin="round"/>
	</defs>
	<use xlink:href="#path_TYtnWMWq" style="fill:#CEE3E4;stroke:#CEF5F5;stroke-width:5.76"/>
	<defs>
		<path id="path_vtTnxOHn" d="M1624.27 1234.54 L1624.27 1234.54 L1620.08 1235.79 L1613.96 1237.71 L1606.37 1240.09 L1596.17 1243.49 L1592.32 1244.51 L1588.81 1245.41 L1577.37 1248.25 L1567.28 1250.29 L1565.36 1245.64 L1564.22 1243.04 L1563.88 1242.47 L1563.21 1240.88 L1560.71 1241.56 L1559.81 1239.07 L1558.79 1236.35 L1557.99 1233.86 L1557.20 1239.64 L1556.97 1240.66 L1556.63 1242.47 L1556.41 1243.60 L1555.84 1245.75 L1554.37 1251.42 L1544.74 1251.19 L1535.79 1250.85 L1517.55 1249.61 L1516.64 1249.38 L1515.85 1249.38 L1499.54 1247.68 L1499.54 1248.36 L1499.54 1248.93 L1462.49 1246.32 L1462.49 1244.62 L1462.26 1240.54 L1462.15 1239.75 L1447.76 1237.48 L1430.20 1232.95 L1425.90 1232.61 L1420.46 1232.05 L1414.00 1231.37 L1406.64 1230.23 L1399.16 1227.97 L1387.60 1224.68 L1380.80 1223.10 L1371.40 1221.51 L1368.91 1221.29 L1364.83 1220.95 L1362.11 1220.49 L1349.65 1218.57 L1345.46 1217.77 L1337.87 1216.30 L1306.37 1210.18 L1303.54 1212.68 L1298.89 1214.38 L1288.02 1219.25 L1297.65 1220.95 L1294.48 1221.17 L1290.51 1220.61 L1288.36 1222.08 L1286.89 1226.72 L1283.03 1225.14 L1274.88 1221.51 L1258.11 1214.15 L1259.58 1210.41 L1261.28 1206.22 L1262.64 1202.71 L1263.21 1200.89 L1264.11 1198.18 L1265.02 1195.91 L1265.70 1193.76 L1266.15 1192.06 L1266.72 1189.91 L1267.17 1187.87 L1267.40 1185.83 L1267.63 1183.68 L1267.74 1181.75 L1267.63 1180.16 L1267.40 1178.13 L1266.95 1175.86 L1266.04 1171.67 L1265.36 1168.95 L1264.45 1165.78 L1263.43 1162.27 L1262.30 1158.64 L1261.39 1156.15 L1258.34 1147.54 L1250.97 1129.07 L1248.59 1123.07 L1243.95 1114.12 L1241.34 1108.57 L1237.83 1103.02 L1226.39 1087.05 L1222.76 1081.61 L1216.87 1070.73 L1213.25 1063.14 L1211.09 1057.37 L1209.51 1052.72 L1208.03 1048.19 L1206.56 1042.87 L1205.43 1037.66 L1204.30 1032.22 L1203.73 1028.37 L1203.05 1024.18 L1202.37 1019.87 L1201.92 1015.79 L1201.24 1010.47 L1200.67 1004.58 L1200.22 998.01 L1200.10 987.25 L1200.22 976.14 L1200.33 971.05 L1200.44 968.21 L1200.56 965.27 L1201.01 958.59 L1201.58 952.36 L1201.92 947.48 L1202.48 943.07 L1205.09 924.26 L1206.56 915.65 L1208.37 908.06 L1215.40 885.97 L1223.67 867.28 L1233.30 844.17 L1249.50 776.54 L1250.75 770.65 L1251.65 766.57 L1252.90 760.46 L1253.35 757.63 L1254.60 751.51 L1255.96 744.82 L1258.00 734.40 L1259.02 729.42 L1259.92 725.57 L1261.39 719.90 L1263.32 712.20 L1271.59 677.42 L1275.44 659.52 L1276.92 646.27 L1276.80 639.70 L1275.78 629.39 L1273.86 621.23 L1271.48 615.12 L1264.79 601.07 L1262.53 596.99 L1245.08 562.89 L1237.60 545.68 L1233.53 533.89 L1231.71 528.00 L1230.24 522.11 L1228.09 508.29 L1227.41 499.00 L1227.52 488.13 L1228.43 478.50 L1235.11 441.57 L1239.98 419.37 L1244.97 400.79 L1249.50 383.00 L1253.01 368.96 L1255.96 354.23 L1257.88 343.81 L1258.68 332.59 L1262.64 327.61 L1260.83 314.02 L1258.56 305.07 L1255.84 292.15 L1252.78 284.79 L1240.21 257.83 L1243.15 255.00 L1263.21 236.19 L1266.72 233.25 L1280.77 220.22 L1267.17 157.69 L1255.73 104.67 L1285.98 101.84 L1293.23 101.16 L1298.55 84.51 L1300.14 84.73 L1300.71 84.85 L1303.31 84.96 L1305.81 84.73 L1308.52 84.05 L1313.17 83.04 L1316.79 82.13 L1319.51 81.68 L1322.23 81.45 L1324.84 81.34 L1327.33 81.45 L1331.30 81.90 L1335.94 82.36 L1340.36 82.92 L1344.32 83.26 L1348.97 83.38 L1353.39 83.04 L1354.29 83.04 L1358.37 82.70 L1361.77 82.36 L1362.56 82.24 L1366.08 81.79 L1369.14 81.34 L1370.72 81.22 L1372.08 81.11 L1375.25 81.11 L1378.31 81.45 L1381.03 82.02 L1384.20 83.15 L1385.22 83.49 L1387.26 84.28 L1390.43 85.41 L1393.38 86.43 L1393.61 86.43 L1395.53 86.89 L1397.69 87.00 L1400.06 86.66 L1402.56 85.64 L1404.94 84.17 L1407.43 82.36 L1410.83 86.66 L1412.87 88.59 L1414.91 90.17 L1420.91 93.34 L1423.18 94.36 L1428.39 96.74 L1436.20 99.69 L1446.40 103.20 L1458.18 106.82 L1464.30 108.75 L1469.97 110.56 L1474.04 112.26 L1477.90 113.85 L1482.09 116.11 L1487.07 118.83 L1492.85 121.55 L1498.29 124.27 L1504.07 127.21 L1508.71 129.59 L1509.96 130.27 L1516.19 133.33 L1520.15 135.37 L1523.67 137.07 L1527.52 138.66 L1533.41 140.58 L1539.07 142.17 L1542.93 143.19 L1548.82 145.34 L1555.61 147.83 L1561.62 149.98 L1567.51 151.91 L1575.21 154.06 L1582.69 155.88 L1588.13 157.23 L1589.94 157.69 L1596.29 159.27 L1602.06 160.86 L1607.62 162.45 L1612.83 164.37 L1618.83 166.41 L1625.18 168.56 L1632.54 171.17 L1640.24 173.89 L1647.95 177.06 L1652.14 178.53 L1658.26 180.57 L1665.62 182.72 L1672.76 184.42 L1678.88 186.12 L1685.56 187.82 L1690.89 189.41 L1695.19 190.88 L1699.04 191.90 L1702.67 192.24 L1706.41 192.46 L1709.81 192.46 L1714.00 192.13 L1716.83 191.45 L1720.00 190.43 L1722.95 189.52 L1725.33 189.18 L1728.95 189.29 L1731.33 189.52 L1735.52 189.97 L1742.21 190.65 L1748.66 191.22 L1750.48 191.45 L1752.18 191.56 L1756.82 192.13 L1764.75 193.26 L1768.83 194.05 L1771.89 194.96 L1777.67 193.94 L1781.86 197.90 L1780.16 246.27 L1776.42 256.47 L1767.92 265.76 L1763.17 277.43 L1760.45 285.02 L1755.24 297.36 L1743.00 324.21 L1734.16 343.58 L1721.25 379.04 L1719.66 390.93 L1712.86 411.66 L1700.86 458.90 L1700.29 462.07 L1694.40 490.17 L1695.98 534.01 L1695.98 544.66 L1696.78 549.41 L1696.89 560.74 L1697.46 576.71 L1695.98 585.78 L1692.24 620.67 L1690.09 637.55 L1689.30 640.38 L1681.37 665.19 L1678.08 676.40 L1672.31 691.58 L1657.35 730.89 L1652.71 743.01 L1644.55 765.89 L1634.58 794.21 L1633.79 797.27 L1629.93 815.63 L1628.57 826.16 L1627.90 829.90 L1626.20 845.19 L1625.63 853.35 L1623.14 861.50 L1623.93 884.27 L1623.82 892.20 L1626.08 917.92 L1621.66 950.54 L1622.68 962.55 L1626.88 1006.28 L1628.35 1018.06 L1638.43 1105.85 L1639.68 1118.77 L1640.36 1130.21 L1641.38 1139.84 L1642.51 1150.26 L1649.19 1203.27 L1649.53 1207.92 L1649.65 1209.28 L1650.21 1212.68 L1650.78 1217.09 L1653.27 1229.21 L1649.53 1230.01 L1644.66 1231.03 L1625.97 1234.09 L1624.27 1234.54 L1624.27 1234.54 Z" stroke-linejoin="round"/>
	</defs>
	<use xlink:href="#path_vtTnxOHn" style="fill:#9DC8CA;stroke:#9DD7F0;stroke-width:5.76"/>
	<defs>
		<path id="path_AZZLWkty" d="M228.28 2078.82 L228.28 2078.82 L228.28 2078.82 L219.67 2077.92 L221.71 2051.18 L223.64 2040.42 L220.13 2039.40 L208.80 2037.59 L210.72 2017.43 L207.44 2016.29 L195.66 2012.21 L194.86 2010.40 L193.62 2009.04 L192.71 2008.25 L191.46 2007.68 L190.10 2007.23 L188.63 2007.00 L186.71 2006.66 L176.96 2005.53 L175.60 2006.10 L174.70 2005.98 L172.66 2005.64 L163.93 2004.51 L153.74 2003.27 L133.68 2000.55 L112.73 1997.38 L102.98 1995.68 L96.19 1994.32 L92.90 1993.64 L90.18 1992.84 L87.46 1992.16 L84.18 1991.14 L79.64 1989.33 L77.95 1988.31 L75.91 1987.18 L73.64 1985.25 L71.71 1983.55 L68.43 1980.50 L64.35 1976.98 L61.18 1973.93 L58.46 1971.43 L56.19 1969.17 L54.38 1967.36 L52.91 1965.88 L51.09 1963.96 L49.17 1961.92 L47.58 1960.11 L46.22 1958.18 L43.62 1954.21 L41.24 1950.14 L39.20 1945.83 L37.95 1942.77 L28.21 1920.12 L51.89 1876.16 L72.96 1872.65 L78.62 1844.56 L81.00 1839.80 L83.61 1836.06 L85.99 1831.98 L108.76 1790.18 L130.85 1796.30 L139.35 1767.64 L142.29 1759.48 L180.59 1766.05 L215.82 1776.59 L222.85 1767.07 L237.69 1713.27 L241.99 1714.29 L242.33 1706.58 L242.22 1693.21 L242.33 1684.72 L243.12 1657.30 L243.01 1634.42 L252.08 1620.38 L261.70 1613.13 L254.00 1612.79 L255.36 1611.31 L252.19 1574.95 L251.17 1531.22 L252.64 1508.79 L255.93 1487.95 L254.79 1476.39 L252.08 1463.82 L255.81 1465.29 L258.76 1466.54 L261.25 1467.22 L258.99 1457.59 L280.96 1446.26 L273.83 1422.25 L281.42 1422.13 L282.32 1423.04 L283.80 1423.95 L295.35 1424.63 L303.96 1425.19 L308.38 1425.42 L313.82 1425.30 L313.25 1418.39 L312.91 1413.07 L330.36 1406.61 L350.98 1408.31 L371.03 1405.25 L389.84 1406.16 L408.64 1405.37 L425.98 1398.12 L421.22 1421.23 L415.33 1451.59 L411.14 1466.65 L414.42 1546.86 L418.39 1546.06 L422.81 1545.50 L426.77 1545.16 L434.02 1544.70 L438.89 1544.48 L441.39 1544.25 L446.26 1544.02 L452.15 1544.36 L457.25 1544.48 L458.61 1544.59 L462.35 1544.93 L468.80 1545.72 L489.54 1549.69 L491.69 1550.03 L507.44 1552.75 L507.78 1554.67 L509.59 1555.13 L509.93 1553.20 L514.23 1553.65 L518.09 1554.22 L523.30 1554.56 L528.05 1554.56 L533.15 1554.56 L537.34 1554.79 L539.16 1554.79 L545.62 1554.79 L551.85 1554.67 L555.81 1554.56 L556.60 1554.45 L560.80 1554.22 L562.50 1554.11 L565.10 1553.88 L569.07 1553.43 L568.50 1496.45 L565.21 1477.75 L567.93 1452.04 L573.60 1451.93 L575.30 1439.46 L596.03 1428.82 L618.12 1413.18 L637.04 1417.38 L657.89 1407.18 L681.68 1401.06 L699.81 1402.88 L699.47 1404.46 L697.43 1412.50 L696.75 1415.56 L696.29 1418.62 L696.18 1420.89 L696.41 1422.70 L696.86 1425.08 L697.77 1422.47 L698.79 1419.07 L699.81 1416.24 L701.28 1413.41 L703.43 1409.90 L706.04 1406.16 L714.19 1395.63 L716.57 1392.23 L720.42 1387.58 L736.74 1383.96 L762.68 1378.29 L785.57 1373.20 L812.53 1367.30 L820.80 1365.49 L810.83 1416.36 L808.91 1427.34 L805.96 1442.07 L804.71 1447.85 L803.81 1452.15 L802.11 1461.44 L798.14 1482.40 L795.20 1496.33 L794.06 1503.02 L788.40 1535.19 L788.29 1537.23 L788.29 1539.38 L788.17 1541.42 L787.95 1544.70 L787.61 1547.20 L787.38 1548.44 L787.15 1550.25 L786.81 1553.65 L786.70 1556.94 L786.59 1560.22 L786.93 1564.19 L787.27 1568.38 L787.38 1569.63 L787.72 1570.98 L788.17 1572.34 L788.51 1573.48 L779.00 1573.48 L774.92 1589.68 L773.56 1596.81 L752.83 1593.41 L749.20 1602.70 L753.28 1612.33 L744.56 1608.82 L737.99 1624.57 L748.75 1628.76 L743.99 1631.14 L726.88 1633.63 L725.75 1632.72 L722.80 1615.50 L721.56 1614.94 L721.10 1618.00 L718.39 1633.86 L717.25 1634.08 L713.40 1646.66 L713.17 1647.45 L710.91 1663.20 L708.98 1664.21 L708.08 1669.09 L705.36 1671.58 L690.52 1660.36 L684.62 1661.61 L681.79 1669.09 L678.17 1677.13 L675.90 1682.79 L675.67 1683.36 L675.22 1684.61 L674.77 1685.96 L674.65 1686.64 L674.20 1689.14 L674.09 1691.63 L674.20 1694.23 L674.43 1695.59 L654.26 1696.73 L641.57 1694.57 L640.67 1702.96 L635.00 1701.03 L634.78 1705.45 L622.09 1704.32 L622.99 1720.18 L623.45 1721.31 L623.79 1722.21 L622.65 1731.62 L614.95 1731.28 L608.04 1730.37 L607.02 1736.15 L605.55 1735.70 L597.05 1733.09 L588.21 1732.52 L583.23 1731.50 L582.32 1754.16 L576.43 1752.57 L570.09 1770.81 L572.13 1777.72 L571.90 1781.80 L556.94 1781.35 L549.13 1776.82 L537.46 1791.43 L526.36 1784.75 L530.32 1769.57 L516.84 1769.91 L513.33 1770.02 L510.72 1769.91 L508.80 1777.16 L503.24 1797.43 L506.30 1798.34 L509.13 1799.13 L512.99 1799.93 L489.76 1835.27 L493.05 1843.09 L495.31 1850.79 L491.01 1843.88 L487.61 1838.89 L464.84 1855.32 L457.13 1871.63 L456.34 1872.65 L452.04 1878.77 L446.37 1887.04 L435.50 1902.33 L429.72 1901.09 L398.56 1894.86 L376.47 1892.25 L374.54 1900.41 L372.96 1912.30 L363.67 1909.24 L351.21 1916.15 L352.34 1920.46 L350.98 1941.75 L346.90 1947.30 L341.92 1952.63 L339.42 1955.12 L337.61 1970.41 L317.56 1969.28 L316.43 1979.48 L314.73 1995.79 L303.28 1993.98 L298.07 2032.61 L281.76 2032.95 L274.17 2030.00 L267.48 2053.56 L259.21 2051.41 L247.43 2052.32 L245.73 2073.73 L236.10 2073.73 L228.28 2078.82 L228.28 2078.82 Z" stroke-linejoin="round"/>
	</defs>
	<use xlink:href="#path_AZZLWkty" style="fill:#9DC8CA;stroke:#9DD7F0;stroke-width:5.76"/>
	<defs>
		<path id="path_eYrKnYYV" d="M1064.27 2865.00 L1064.27 2865.00 L1057.92 2855.59 L1056.90 2853.44 L1044.89 2820.02 L1043.76 2818.89 L1006.83 2794.76 L903.84 2733.25 L872.35 2718.30 L873.82 2713.31 L876.43 2704.70 L859.89 2694.73 L856.94 2701.87 L856.15 2704.14 L855.47 2706.18 L839.83 2694.73 L833.60 2689.98 L823.41 2683.29 L815.36 2678.31 L810.15 2674.80 L806.30 2674.46 L786.81 2672.53 L763.93 2672.30 L761.44 2671.17 L743.42 2663.02 L738.78 2660.98 L736.51 2665.96 L734.93 2669.25 L732.43 2675.36 L730.85 2679.33 L730.39 2680.69 L722.35 2701.30 L719.63 2708.44 L702.86 2699.38 L706.72 2689.75 L711.36 2677.18 L712.95 2673.10 L693.46 2672.76 L680.66 2672.53 L680.77 2671.40 L680.66 2669.47 L680.55 2668.45 L679.98 2666.19 L679.19 2662.68 L678.96 2660.30 L679.07 2657.80 L679.53 2655.43 L680.43 2652.59 L682.81 2646.59 L684.40 2642.85 L689.04 2630.62 L693.57 2619.18 L695.61 2613.17 L700.03 2600.48 L702.52 2594.25 L695.27 2592.33 L693.12 2588.59 L689.84 2589.61 L683.15 2595.05 L680.43 2581.91 L673.64 2575.34 L689.84 2548.83 L695.27 2551.21 L697.54 2552.23 L703.54 2534.67 L704.22 2530.82 L704.90 2527.98 L705.36 2525.27 L705.36 2522.66 L705.02 2520.28 L704.34 2518.02 L703.54 2515.86 L702.41 2513.94 L701.39 2512.58 L702.07 2510.09 L699.35 2506.91 L722.80 2461.60 L729.26 2452.99 L723.94 2449.93 L727.45 2440.53 L731.41 2441.78 L731.87 2437.13 L742.74 2403.94 L752.49 2385.82 L766.53 2351.38 L773.11 2340.28 L776.96 2333.93 L779.34 2331.33 L780.58 2329.97 L790.78 2288.73 L792.59 2278.09 L789.42 2272.65 L784.77 2271.06 L776.96 2267.78 L784.55 2236.40 L798.26 2242.18 L799.84 2242.86 L801.66 2243.65 L819.78 2251.35 L837.91 2258.60 L855.92 2266.19 L867.25 2271.06 L872.80 2273.10 L875.86 2273.67 L879.26 2274.12 L886.51 2274.69 L892.06 2275.59 L894.33 2275.93 L896.71 2276.39 L899.43 2277.07 L902.03 2277.75 L905.32 2278.65 L910.53 2280.24 L928.88 2286.24 L942.25 2290.43 L946.33 2291.68 L950.07 2292.36 L967.52 2294.51 L975.79 2295.08 L999.46 2298.02 L1018.16 2300.40 L1037.64 2302.21 L1056.79 2306.18 L1063.25 2307.88 L1083.53 2312.75 L1105.05 2317.62 L1126.24 2322.61 L1146.40 2326.91 L1157.39 2329.74 L1165.21 2332.12 L1181.52 2336.31 L1191.04 2338.13 L1196.25 2339.03 L1208.60 2341.18 L1208.83 2337.33 L1209.39 2318.30 L1210.64 2288.62 L1222.99 2289.87 L1220.95 2330.08 L1222.99 2334.05 L1229.33 2342.43 L1229.11 2345.04 L1249.39 2348.55 L1274.76 2353.19 L1280.54 2354.21 L1284.73 2355.00 L1291.64 2356.25 L1293.68 2356.59 L1294.93 2356.93 L1296.29 2357.27 L1298.89 2357.72 L1300.14 2357.95 L1303.99 2358.74 L1323.82 2362.37 L1345.12 2366.79 L1346.25 2367.01 L1347.16 2367.13 L1348.06 2367.35 L1362.79 2370.30 L1388.85 2377.32 L1387.26 2392.61 L1386.13 2412.44 L1381.37 2416.74 L1377.18 2420.82 L1373.10 2425.46 L1369.36 2429.88 L1344.10 2462.39 L1342.17 2464.43 L1341.04 2465.79 L1338.66 2468.51 L1336.85 2470.78 L1335.49 2472.48 L1332.32 2476.33 L1330.50 2478.59 L1328.80 2481.31 L1325.07 2486.64 L1322.01 2491.51 L1315.66 2501.82 L1303.65 2526.29 L1298.10 2534.10 L1291.87 2543.62 L1277.71 2563.89 L1249.61 2603.09 L1246.10 2608.30 L1240.78 2616.34 L1192.17 2686.35 L1171.78 2714.56 L1157.85 2734.16 L1143.68 2753.64 L1141.98 2756.13 L1140.29 2758.63 L1126.01 2778.56 L1104.94 2807.34 L1092.25 2825.69 L1091.23 2827.16 L1089.76 2829.65 L1088.62 2831.92 L1087.60 2833.84 L1086.47 2836.34 L1084.66 2840.19 L1064.27 2865.00 L1064.27 2865.00 Z" stroke-linejoin="round"/>
	</defs>
	<use xlink:href="#path_eYrKnYYV" style="fill:#6BACAF;stroke:#6BB4D2;stroke-width:5.76"/>
	<defs>
		<path id="path_vVmvEKRy" d="M1998.70 3587.28 L1998.70 3587.28 L1998.70 3587.28 L1998.13 3589.54 L1997.23 3589.20 L1978.19 3582.63 L1970.26 3579.91 L1964.60 3578.33 L1955.54 3575.61 L1951.46 3574.14 L1949.87 3573.68 L1942.28 3571.30 L1940.47 3570.63 L1937.07 3569.61 L1928.80 3567.79 L1919.62 3565.64 L1904.55 3562.13 L1899.68 3560.77 L1895.04 3559.41 L1891.07 3558.39 L1884.84 3556.92 L1880.20 3555.79 L1877.25 3554.99 L1859.80 3550.35 L1855.84 3549.21 L1849.04 3548.31 L1852.21 3546.61 L1835.79 3542.30 L1834.77 3540.95 L1826.95 3538.68 L1809.39 3533.47 L1804.74 3532.11 L1802.03 3531.43 L1795.11 3529.73 L1793.19 3529.28 L1792.17 3529.05 L1788.32 3528.71 L1786.28 3528.60 L1783.79 3528.82 L1780.95 3526.22 L1779.03 3524.41 L1776.42 3522.14 L1773.48 3519.54 L1769.17 3516.14 L1766.45 3514.10 L1764.41 3512.74 L1758.63 3509.00 L1752.29 3504.02 L1749.57 3502.43 L1747.64 3501.30 L1746.74 3500.84 L1738.81 3496.54 L1730.31 3491.21 L1727.82 3489.74 L1725.10 3487.93 L1722.15 3486.12 L1720.00 3484.76 L1717.06 3482.95 L1710.60 3478.98 L1705.39 3475.47 L1700.40 3471.84 L1693.15 3466.18 L1689.53 3463.23 L1685.45 3459.50 L1683.52 3457.91 L1681.71 3456.32 L1659.16 3430.84 L1655.31 3426.53 L1651.12 3421.43 L1646.47 3415.32 L1643.30 3410.79 L1640.02 3405.91 L1637.07 3401.38 L1635.83 3399.57 L1629.82 3389.60 L1617.02 3367.06 L1610.90 3355.62 L1607.16 3348.48 L1605.69 3345.42 L1602.06 3339.19 L1598.78 3331.26 L1597.87 3329.34 L1595.95 3323.22 L1594.36 3317.55 L1593.23 3312.12 L1591.30 3305.32 L1590.28 3301.36 L1589.72 3298.86 L1589.26 3296.71 L1588.58 3293.77 L1587.79 3289.80 L1587.00 3286.06 L1584.62 3272.92 L1575.10 3245.96 L1570.00 3232.14 L1567.85 3225.46 L1567.17 3220.47 L1558.79 3194.87 L1556.75 3186.26 L1556.18 3183.88 L1551.76 3164.06 L1544.85 3133.25 L1543.15 3125.77 L1542.25 3125.77 L1540.55 3126.11 L1539.87 3126.00 L1539.07 3126.22 L1538.51 3126.22 L1537.60 3126.45 L1537.15 3126.79 L1535.68 3127.36 L1535.11 3127.58 L1534.32 3127.92 L1532.62 3128.60 L1531.60 3128.94 L1530.69 3129.28 L1507.69 3138.91 L1499.99 3142.08 L1499.65 3142.31 L1497.50 3143.21 L1495.12 3144.12 L1493.42 3144.91 L1492.62 3145.14 L1490.02 3145.82 L1487.41 3146.61 L1484.92 3147.29 L1482.31 3147.97 L1479.94 3148.65 L1471.89 3151.03 L1464.87 3152.96 L1462.83 3153.52 L1451.16 3156.92 L1435.75 3161.57 L1413.43 3169.72 L1406.07 3172.44 L1399.38 3174.37 L1384.88 3178.45 L1381.37 3179.46 L1370.84 3182.52 L1369.48 3181.62 L1312.94 3156.92 L1308.30 3153.86 L1305.47 3151.48 L1276.92 3141.29 L1253.12 3133.02 L1251.43 3132.45 L1228.99 3123.16 L1210.75 3111.72 L1199.65 3106.29 L1178.47 3071.05 L1174.95 3065.16 L1146.97 3018.72 L1146.63 3018.04 L1143.57 3013.05 L1126.35 2984.39 L1123.86 2980.20 L1110.72 2958.34 L1098.03 2934.10 L1064.27 2865.00 L1084.66 2840.19 L1086.47 2836.34 L1087.60 2833.84 L1088.62 2831.92 L1089.76 2829.65 L1091.23 2827.16 L1092.25 2825.69 L1104.94 2807.34 L1126.01 2778.56 L1140.29 2758.63 L1141.98 2756.13 L1143.68 2753.64 L1157.85 2734.16 L1171.78 2714.56 L1192.17 2686.35 L1240.78 2616.34 L1246.10 2608.30 L1249.61 2603.09 L1277.71 2563.89 L1291.87 2543.62 L1298.10 2534.10 L1303.65 2526.29 L1315.66 2501.82 L1322.01 2491.51 L1325.07 2486.64 L1328.80 2481.31 L1330.50 2478.59 L1332.32 2476.33 L1335.49 2472.48 L1336.85 2470.78 L1338.66 2468.51 L1341.04 2465.79 L1342.17 2464.43 L1344.10 2462.39 L1369.36 2429.88 L1373.10 2425.46 L1377.18 2420.82 L1381.37 2416.74 L1386.13 2412.44 L1387.26 2392.61 L1388.85 2377.32 L1362.79 2370.30 L1348.06 2367.35 L1347.16 2367.13 L1346.25 2367.01 L1345.12 2366.79 L1345.91 2364.75 L1346.48 2362.71 L1346.93 2361.23 L1347.16 2360.33 L1347.61 2358.52 L1348.18 2356.14 L1349.31 2352.40 L1350.67 2347.07 L1351.80 2342.43 L1353.05 2335.29 L1354.97 2324.87 L1358.15 2309.80 L1358.83 2304.82 L1360.19 2299.27 L1361.43 2292.13 L1362.68 2285.45 L1363.02 2283.64 L1363.47 2281.03 L1364.83 2273.89 L1366.87 2262.91 L1367.44 2260.30 L1368.91 2253.16 L1370.16 2247.27 L1371.29 2242.06 L1372.19 2234.36 L1373.89 2220.99 L1376.61 2200.15 L1378.43 2185.88 L1379.33 2179.08 L1380.13 2172.39 L1381.94 2157.89 L1384.54 2136.82 L1384.66 2135.80 L1386.92 2115.87 L1388.74 2101.59 L1389.64 2094.57 L1390.43 2088.57 L1391.00 2083.70 L1393.15 2067.84 L1395.08 2054.02 L1395.19 2053.11 L1395.76 2050.73 L1396.21 2049.71 L1396.67 2048.58 L1397.80 2046.31 L1399.04 2043.82 L1400.18 2042.01 L1401.76 2040.08 L1402.78 2039.06 L1408.33 2033.29 L1409.92 2031.81 L1412.19 2029.66 L1416.61 2025.92 L1422.38 2021.16 L1432.69 2012.44 L1435.75 2009.84 L1440.51 2005.53 L1443.80 2002.36 L1448.55 1997.49 L1454.67 1991.26 L1460.00 1985.71 L1464.87 1980.50 L1473.48 1971.21 L1482.99 1960.90 L1488.09 1954.89 L1493.19 1948.89 L1497.50 1943.79 L1504.52 1935.64 L1509.73 1929.75 L1512.00 1928.39 L1514.04 1927.14 L1516.19 1925.89 L1517.32 1925.33 L1518.23 1924.88 L1519.25 1924.76 L1520.49 1924.65 L1521.29 1924.65 L1522.42 1924.88 L1526.16 1925.67 L1532.05 1926.91 L1529.22 1943.79 L1527.97 1952.63 L1535.00 1954.78 L1560.71 1961.24 L1565.81 1962.48 L1598.33 1970.64 L1596.97 1981.74 L1595.72 1992.05 L1603.31 1994.43 L1605.69 1995.56 L1607.50 1996.81 L1609.66 1992.96 L1617.81 1979.14 L1619.51 1976.19 L1622.46 1976.87 L1625.86 1977.66 L1627.67 1978.00 L1630.05 1978.57 L1632.31 1979.02 L1638.54 1964.86 L1639.00 1964.07 L1640.02 1961.35 L1648.74 1963.73 L1664.49 1967.81 L1666.19 1968.26 L1679.22 1971.89 L1690.77 1975.17 L1707.43 1979.59 L1704.48 1997.83 L1715.70 2000.66 L1738.35 2005.98 L1769.51 2013.91 L1780.16 2016.63 L1798.63 2021.28 L1826.16 2027.85 L1831.82 2029.32 L1888.58 2042.91 L1922.79 2051.30 L1957.46 2062.51 L1951.12 2102.61 L1880.42 2134.56 L1875.44 2136.60 L1855.84 2145.66 L1834.65 2155.06 L1820.61 2161.29 L1803.16 2169.00 L1785.48 2180.55 L1770.19 2191.09 L1747.30 2205.70 L1715.36 2223.37 L1782.65 2195.84 L1819.81 2181.12 L1841.34 2172.96 L1871.02 2163.56 L1905.46 2155.86 L1920.42 2153.59 L1938.09 2151.66 L1953.72 2151.10 L1969.58 2151.10 L2001.76 2151.78 L2029.74 2152.34 L2042.88 2153.25 L2051.04 2154.04 L2057.16 2154.95 L2060.33 2155.29 L2061.80 2155.52 L2064.75 2156.20 L2107.69 2164.80 L2110.75 2165.26 L2155.84 2173.30 L2186.20 2178.40 L2208.52 2181.68 L2238.09 2186.89 L2262.78 2191.31 L2281.02 2194.03 L2286.24 2194.94 L2286.01 2198.79 L2285.33 2203.77 L2286.24 2210.12 L2284.08 2220.31 L2288.16 2222.92 L2290.88 2237.19 L2291.56 2238.78 L2293.49 2242.97 L2300.96 2245.23 L2311.73 2248.75 L2322.94 2252.71 L2332.46 2257.36 L2336.20 2259.28 L2353.19 2267.32 L2375.40 2278.43 L2394.54 2286.70 L2421.62 2295.30 L2516.11 2320.00 L2547.03 2327.70 L2560.63 2331.67 L2561.54 2325.55 L2566.63 2291.45 L2567.99 2283.18 L2569.58 2272.42 L2571.17 2261.89 L2572.75 2251.69 L2583.17 2186.33 L2585.89 2170.24 L2588.84 2170.70 L2591.56 2171.26 L2596.20 2172.39 L2616.71 2177.61 L2650.13 2185.99 L2688.08 2195.62 L2720.03 2203.43 L2747.45 2210.34 L2772.15 2217.03 L2804.09 2225.07 L2832.08 2231.07 L2838.08 2233.79 L2840.80 2240.36 L2845.33 2255.77 L2848.73 2271.52 L2851.00 2287.83 L2851.56 2304.14 L2851.68 2310.26 L2851.45 2316.26 L2849.98 2327.59 L2849.64 2336.88 L2849.41 2338.24 L2849.41 2341.75 L2848.73 2344.02 L2847.37 2344.36 L2844.31 2344.02 L2841.25 2344.47 L2838.87 2346.17 L2835.82 2349.23 L2833.44 2355.23 L2832.19 2360.67 L2831.74 2368.60 L2832.30 2376.87 L2833.10 2380.38 L2835.14 2384.00 L2837.52 2386.50 L2840.35 2388.42 L2842.84 2389.55 L2844.43 2389.55 L2845.11 2390.46 L2844.99 2391.59 L2844.43 2394.54 L2843.97 2396.46 L2844.65 2403.15 L2844.31 2405.30 L2844.65 2408.25 L2844.54 2410.85 L2843.75 2411.87 L2843.52 2413.68 L2843.18 2417.65 L2842.84 2419.57 L2842.95 2422.41 L2843.07 2424.79 L2843.41 2427.39 L2843.18 2430.34 L2842.84 2432.49 L2840.69 2438.61 L2840.12 2440.76 L2839.78 2445.63 L2837.74 2460.02 L2837.29 2468.96 L2835.36 2492.07 L2834.46 2492.64 L2831.74 2490.49 L2829.02 2488.79 L2826.75 2489.02 L2824.37 2489.02 L2821.65 2489.70 L2818.82 2491.39 L2816.78 2494.57 L2816.56 2497.85 L2817.58 2500.68 L2820.07 2502.84 L2823.58 2506.80 L2825.51 2508.84 L2826.19 2510.77 L2826.07 2513.26 L2824.83 2517.22 L2824.15 2519.94 L2823.24 2520.85 L2822.22 2521.64 L2819.96 2521.98 L2817.80 2522.66 L2815.76 2520.73 L2813.16 2520.39 L2810.67 2520.17 L2808.29 2519.94 L2806.25 2520.17 L2804.66 2520.51 L2801.72 2521.64 L2796.50 2528.21 L2793.78 2533.08 L2793.44 2537.27 L2794.24 2541.69 L2795.26 2545.09 L2796.96 2548.38 L2798.43 2551.09 L2803.87 2555.63 L2805.68 2557.66 L2806.81 2558.91 L2807.72 2560.84 L2809.65 2562.99 L2812.59 2564.57 L2815.20 2569.33 L2816.44 2573.18 L2815.88 2580.32 L2816.22 2585.08 L2817.58 2589.27 L2818.48 2593.01 L2819.50 2597.20 L2819.28 2601.39 L2817.92 2605.58 L2816.44 2607.96 L2814.52 2609.77 L2812.02 2610.00 L2809.31 2610.00 L2807.83 2611.13 L2806.36 2614.64 L2804.55 2619.52 L2802.73 2624.61 L2801.04 2629.60 L2801.26 2631.64 L2800.81 2634.58 L2800.47 2636.73 L2801.04 2639.00 L2801.94 2642.85 L2801.26 2647.27 L2800.24 2649.99 L2797.07 2653.73 L2795.03 2657.80 L2793.90 2660.52 L2792.88 2663.92 L2792.77 2666.30 L2792.99 2669.59 L2791.86 2672.98 L2790.16 2677.06 L2786.99 2678.76 L2784.83 2680.01 L2783.14 2682.61 L2781.32 2685.67 L2779.28 2688.96 L2778.49 2691.11 L2778.38 2693.60 L2777.24 2696.77 L2775.77 2705.38 L2774.19 2714.45 L2774.07 2716.60 L2774.64 2718.75 L2775.66 2721.81 L2775.88 2724.64 L2775.20 2726.00 L2773.96 2727.70 L2771.69 2729.74 L2769.43 2731.78 L2767.61 2732.80 L2763.99 2739.37 L2762.29 2742.43 L2761.50 2745.94 L2760.14 2749.90 L2756.51 2760.78 L2755.38 2764.63 L2753.79 2770.52 L2752.43 2773.69 L2752.32 2777.77 L2752.55 2781.28 L2751.19 2786.15 L2750.62 2788.19 L2749.49 2791.48 L2749.26 2794.88 L2747.33 2799.07 L2744.05 2801.56 L2741.78 2803.48 L2739.97 2806.88 L2738.61 2809.83 L2737.59 2810.73 L2736.12 2810.51 L2730.11 2804.39 L2718.22 2792.38 L2715.27 2790.23 L2714.37 2790.46 L2712.10 2792.38 L2711.08 2792.16 L2693.97 2774.82 L2687.86 2769.05 L2669.50 2751.94 L2668.94 2751.26 L2642.77 2724.64 L2641.18 2723.17 L2615.69 2698.02 L2574.22 2657.69 L2554.62 2638.77 L2551.45 2636.51 L2547.71 2634.81 L2511.57 2625.86 L2445.07 2609.77 L2411.31 2601.28 L2361.01 2588.48 L2358.18 2587.91 L2304.93 2575.45 L2270.49 2565.37 L2242.17 2559.25 L2239.22 2558.57 L2237.63 2558.34 L2236.95 2559.82 L2234.80 2570.01 L2235.03 2572.28 L2230.27 2598.56 L2229.70 2599.13 L2227.44 2609.43 L2228.23 2611.81 L2228.68 2612.61 L2229.70 2613.29 L2231.29 2613.63 L2243.52 2616.68 L2317.73 2634.92 L2318.75 2635.26 L2318.98 2636.28 L2318.98 2637.98 L2318.98 2640.70 L2364.86 2651.91 L2365.20 2647.16 L2365.54 2646.59 L2366.79 2647.04 L2396.58 2654.29 L2434.76 2663.92 L2465.12 2671.17 L2484.16 2676.16 L2520.98 2684.88 L2525.62 2686.01 L2529.59 2687.26 L2531.17 2688.73 L2553.95 2711.16 L2577.62 2734.04 L2588.61 2744.80 L2602.66 2758.51 L2624.75 2780.04 L2651.72 2807.00 L2652.62 2807.90 L2651.60 2811.30 L2645.83 2829.54 L2645.83 2830.45 L2636.76 2857.52 L2610.70 2938.52 L2590.99 2999.01 L2554.06 3114.10 L2240.24 2937.50 L2202.17 2916.54 L2195.04 2912.12 L2194.70 2913.37 L2194.13 2915.86 L2193.34 2919.94 L2187.90 2948.26 L2188.35 2951.09 L2185.07 2968.65 L2184.61 2974.99 L2182.35 2976.13 L2185.41 2960.04 L2187.45 2948.60 L2165.92 2941.35 L2163.99 2938.40 L2163.65 2937.84 L2162.29 2936.25 L2160.71 2933.53 L2158.10 2930.36 L2154.36 2927.19 L2149.04 2924.36 L2138.62 2920.73 L2138.16 2923.00 L2135.44 2936.36 L2123.21 2996.97 L2078.12 3206.31 L2045.15 3366.83 L2040.39 3390.73 L2030.31 3438.99 L2007.76 3542.42 L2006.18 3550.01 L2006.29 3552.50 L2004.48 3562.47 L2002.10 3573.00 L1999.27 3585.01 L1998.70 3587.28 L1998.70 3587.28 Z" stroke-linejoin="round"/>
	</defs>
	<use xlink:href="#path_vVmvEKRy" style="fill:#6BACAF;stroke:#6BB4D2;stroke-width:5.76"/>
	<defs>
		<path id="path_PRNKPCGa" d="M1008.98 1999.41 L1008.98 1999.41 L1008.30 2024.45 L985.53 2022.52 L966.84 2021.16 L947.58 2019.58 L927.98 2018.22 L909.06 2016.75 L889.91 2015.27 L870.76 2013.80 L851.28 2012.21 L831.90 2010.74 L824.65 2010.29 L815.14 2009.50 L807.43 2008.93 L800.64 2008.36 L800.86 1991.03 L800.75 1987.29 L808.57 1982.42 L813.78 1979.25 L813.44 1974.95 L814.00 1947.30 L814.57 1921.93 L814.91 1899.05 L807.66 1898.14 L802.22 1896.55 L805.05 1851.13 L802.56 1846.71 L807.09 1786.79 L817.40 1787.69 L818.88 1727.43 L819.78 1691.06 L820.58 1668.86 L821.25 1619.02 L818.20 1550.71 L823.75 1543.23 L811.96 1542.44 L810.61 1552.29 L801.66 1555.24 L799.50 1576.31 L788.51 1573.48 L788.17 1572.34 L787.72 1570.98 L787.38 1569.63 L787.27 1568.38 L786.93 1564.19 L786.59 1560.22 L786.70 1556.94 L786.81 1553.65 L787.15 1550.25 L787.38 1548.44 L787.61 1547.20 L787.95 1544.70 L788.17 1541.42 L788.29 1539.38 L788.29 1537.23 L788.40 1535.19 L794.06 1503.02 L795.20 1496.33 L798.14 1482.40 L802.11 1461.44 L803.81 1452.15 L804.71 1447.85 L805.96 1442.07 L808.91 1427.34 L810.83 1416.36 L820.80 1365.49 L822.50 1356.88 L823.63 1351.22 L824.31 1347.37 L824.77 1344.76 L826.92 1345.67 L841.65 1351.45 L860.79 1354.73 L860.11 1360.39 L879.37 1363.23 L876.99 1388.04 L873.26 1431.54 L866.91 1497.35 L863.17 1539.15 L861.70 1550.71 L864.99 1551.39 L866.23 1551.73 L868.04 1552.29 L869.97 1552.75 L872.46 1553.54 L874.05 1554.11 L876.09 1554.67 L881.07 1556.37 L886.40 1558.07 L892.29 1560.00 L897.05 1561.47 L899.99 1562.38 L905.32 1564.19 L909.96 1565.89 L915.63 1568.04 L918.91 1569.17 L930.13 1573.25 L932.96 1539.72 L948.14 1541.42 L949.05 1533.71 L970.23 1535.30 L972.84 1514.00 L979.18 1514.68 L980.54 1515.48 L982.02 1516.61 L987.23 1460.99 L988.25 1449.89 L1006.94 1452.83 L1026.54 1456.00 L1045.46 1459.63 L1064.49 1464.73 L1083.64 1468.13 L1104.37 1471.41 L1125.56 1475.26 L1146.06 1479.57 L1165.66 1482.40 L1185.49 1486.48 L1186.51 1477.75 L1189.57 1449.66 L1193.31 1417.49 L1193.99 1411.48 L1194.21 1409.67 L1194.89 1402.20 L1195.01 1398.00 L1195.01 1395.63 L1194.89 1392.11 L1194.78 1388.71 L1194.55 1385.66 L1194.67 1382.94 L1194.89 1378.86 L1195.23 1376.71 L1195.69 1374.44 L1196.93 1369.57 L1202.94 1342.61 L1209.51 1312.70 L1216.76 1278.95 L1218.57 1270.22 L1228.31 1273.28 L1233.64 1274.87 L1241.57 1277.36 L1241.23 1274.07 L1241.12 1270.90 L1241.00 1268.07 L1241.12 1265.01 L1241.23 1262.41 L1241.80 1257.76 L1242.25 1253.57 L1243.15 1249.15 L1243.95 1245.19 L1244.74 1242.24 L1245.42 1240.20 L1246.10 1238.16 L1247.35 1235.33 L1248.71 1232.61 L1258.11 1214.15 L1274.88 1221.51 L1283.03 1225.14 L1286.89 1226.72 L1288.36 1222.08 L1290.51 1220.61 L1294.48 1221.17 L1297.65 1220.95 L1288.02 1219.25 L1298.89 1214.38 L1303.54 1212.68 L1306.37 1210.18 L1337.87 1216.30 L1345.46 1217.77 L1349.65 1218.57 L1362.11 1220.49 L1364.83 1220.95 L1368.91 1221.29 L1371.40 1221.51 L1380.80 1223.10 L1387.60 1224.68 L1399.16 1227.97 L1406.64 1230.23 L1414.00 1231.37 L1420.46 1232.05 L1425.90 1232.61 L1430.20 1232.95 L1447.76 1237.48 L1462.15 1239.75 L1462.26 1240.54 L1462.49 1244.62 L1462.49 1246.32 L1499.54 1248.93 L1499.65 1250.96 L1499.76 1251.98 L1500.67 1260.82 L1501.23 1266.71 L1501.80 1277.25 L1493.19 1277.02 L1492.74 1290.39 L1489.57 1331.28 L1487.64 1353.37 L1485.26 1389.96 L1483.56 1408.88 L1483.11 1413.18 L1480.50 1435.95 L1478.69 1449.77 L1476.20 1466.99 L1475.06 1475.71 L1474.61 1479.57 L1473.36 1489.08 L1470.19 1511.51 L1469.74 1515.02 L1469.06 1518.99 L1468.38 1522.84 L1464.07 1552.86 L1462.04 1573.70 L1460.34 1573.02 L1459.09 1572.57 L1456.94 1571.66 L1452.41 1569.51 L1448.10 1567.02 L1443.80 1564.30 L1439.60 1561.36 L1435.30 1558.07 L1416.61 1540.51 L1412.30 1536.55 L1408.90 1533.94 L1405.73 1532.02 L1403.92 1531.11 L1401.99 1530.43 L1400.29 1529.86 L1394.51 1528.28 L1394.29 1530.43 L1393.27 1542.89 L1392.59 1551.84 L1392.02 1562.26 L1390.55 1582.77 L1405.39 1585.71 L1420.80 1588.66 L1433.49 1591.04 L1435.64 1591.38 L1451.73 1595.11 L1459.09 1596.81 L1457.62 1611.09 L1457.16 1615.39 L1457.05 1618.11 L1457.05 1621.17 L1457.16 1660.93 L1456.60 1693.21 L1455.58 1730.48 L1455.69 1736.60 L1455.58 1746.00 L1455.01 1777.61 L1455.01 1781.69 L1454.67 1803.21 L1454.44 1825.30 L1454.44 1841.05 L1454.10 1850.00 L1453.99 1878.43 L1453.76 1899.61 L1435.98 1898.37 L1426.35 1897.57 L1423.63 1897.46 L1407.88 1896.33 L1388.85 1894.63 L1381.60 1894.06 L1370.50 1892.93 L1351.92 1891.12 L1348.29 1890.89 L1332.77 1889.76 L1313.96 1888.17 L1293.34 1886.59 L1272.84 1885.23 L1254.71 1884.32 L1242.59 1883.30 L1234.20 1882.62 L1232.39 1882.39 L1224.12 1881.60 L1218.80 1881.04 L1213.36 1880.36 L1207.69 1879.79 L1200.10 1879.22 L1184.70 1878.09 L1166.12 1876.73 L1156.83 1876.05 L1148.33 1875.60 L1129.86 1874.24 L1120.35 1873.45 L1094.40 1871.29 L1092.36 1871.18 L1079.56 1870.16 L1068.57 1869.37 L1059.62 1868.57 L1047.27 1867.67 L1031.64 1866.31 L1025.86 1865.63 L1022.12 1865.40 L1016.80 1868.35 L1011.47 1871.18 L1011.47 1873.56 L1011.47 1876.73 L1011.25 1888.51 L1010.68 1912.30 L1010.68 1924.31 L1009.89 1946.74 L1010.00 1957.61 L1009.66 1967.24 L1009.21 1985.48 L1008.98 1999.41 L1008.98 1999.41 Z" stroke-linejoin="round"/>
	</defs>
	<use xlink:href="#path_PRNKPCGa" style="fill:#09757A;stroke:#097D9B;stroke-width:5.76"/>
	<defs>
		<path id="path_lTJrmVBL" d="M2561.54 2325.55 L2561.54 2325.55 L2561.54 2325.55 L2560.63 2331.67 L2547.03 2327.70 L2516.11 2320.00 L2421.62 2295.30 L2394.54 2286.70 L2375.40 2278.43 L2353.19 2267.32 L2336.20 2259.28 L2332.46 2257.36 L2322.94 2252.71 L2311.73 2248.75 L2300.96 2245.23 L2293.49 2242.97 L2291.56 2238.78 L2290.88 2237.19 L2288.16 2222.92 L2284.08 2220.31 L2286.24 2210.12 L2285.33 2203.77 L2286.01 2198.79 L2286.24 2194.94 L2281.02 2194.03 L2262.78 2191.31 L2238.09 2186.89 L2208.52 2181.68 L2186.20 2178.40 L2155.84 2173.30 L2110.75 2165.26 L2107.69 2164.80 L2064.75 2156.20 L2061.80 2155.52 L2060.33 2155.29 L2057.16 2154.95 L2051.04 2154.04 L2042.88 2153.25 L2029.74 2152.34 L2001.76 2151.78 L1969.58 2151.10 L1953.72 2151.10 L1938.09 2151.66 L1920.42 2153.59 L1905.46 2155.86 L1871.02 2163.56 L1841.34 2172.96 L1819.81 2181.12 L1782.65 2195.84 L1715.36 2223.37 L1747.30 2205.70 L1770.19 2191.09 L1785.48 2180.55 L1803.16 2169.00 L1820.61 2161.29 L1834.65 2155.06 L1855.84 2145.66 L1875.44 2136.60 L1880.42 2134.56 L1951.12 2102.61 L1957.46 2062.51 L1922.79 2051.30 L1888.58 2042.91 L1831.82 2029.32 L1826.16 2027.85 L1798.63 2021.28 L1780.16 2016.63 L1769.51 2013.91 L1738.35 2005.98 L1715.70 2000.66 L1704.48 1997.83 L1707.43 1979.59 L1690.77 1975.17 L1679.22 1971.89 L1666.19 1968.26 L1664.49 1967.81 L1648.74 1963.73 L1640.02 1961.35 L1640.70 1959.09 L1647.49 1942.09 L1653.95 1926.23 L1661.77 1907.88 L1666.07 1897.46 L1671.17 1884.21 L1668.45 1883.64 L1676.27 1864.27 L1684.65 1843.43 L1698.36 1809.33 L1695.19 1808.88 L1691.79 1808.08 L1689.30 1807.40 L1691.11 1801.85 L1692.47 1797.66 L1696.10 1787.92 L1698.36 1781.46 L1699.84 1777.38 L1701.42 1773.30 L1703.35 1767.75 L1705.73 1768.32 L1709.58 1769.11 L1713.09 1769.68 L1724.87 1736.49 L1727.37 1730.03 L1734.73 1710.55 L1747.76 1672.82 L1757.05 1647.34 L1764.30 1629.21 L1766.90 1623.21 L1769.17 1618.90 L1773.02 1611.54 L1776.65 1604.40 L1779.93 1598.29 L1785.37 1588.88 L1792.06 1577.89 L1810.18 1553.99 L1814.03 1557.96 L1818.91 1562.83 L1823.78 1553.20 L1868.64 1581.07 L1886.88 1587.30 L1907.27 1589.56 L1949.98 1587.86 L1962.45 1584.58 L1995.87 1573.14 L2042.09 1556.94 L2102.14 1530.54 L2118.68 1523.18 L2147.11 1475.71 L2173.17 1357.90 L2203.42 1328.56 L2234.12 1298.66 L2261.54 1272.15 L2380.27 1234.99 L2445.64 1215.17 L2492.99 1200.55 L2534.35 1187.30 L2544.09 1184.24 L2547.37 1183.22 L2552.25 1183.34 L2555.76 1183.90 L2561.65 1184.58 L2581.36 1187.07 L2584.87 1187.75 L2586.23 1188.89 L2627.36 1210.86 L2652.28 1223.78 L2668.48 1231.59 L2698.05 1302.51 L2701.34 1353.03 L2702.13 1363.91 L2702.36 1366.96 L2702.36 1368.32 L2702.47 1368.89 L2702.70 1370.48 L2708.14 1443.77 L2708.48 1446.49 L2717.99 1735.24 L2696.58 1734.22 L2696.81 1738.87 L2695.79 1748.16 L2695.22 1755.07 L2694.77 1760.28 L2695.33 1763.79 L2696.58 1765.71 L2697.83 1773.53 L2698.39 1781.12 L2698.17 1792.90 L2696.69 1802.42 L2696.81 1807.06 L2699.30 1810.01 L2698.85 1810.91 L2697.60 1813.07 L2695.45 1817.48 L2694.43 1820.66 L2692.95 1824.85 L2692.84 1827.91 L2693.86 1830.85 L2694.09 1833.57 L2694.65 1837.54 L2694.09 1840.03 L2694.09 1843.43 L2695.90 1847.50 L2699.64 1848.64 L2701.11 1851.13 L2702.02 1854.53 L2700.43 1864.61 L2699.87 1868.80 L2699.87 1872.77 L2700.09 1874.80 L2700.09 1876.39 L2700.32 1877.52 L2700.32 1878.09 L2700.43 1881.26 L2700.43 1883.53 L2700.77 1886.93 L2701.11 1889.19 L2701.68 1890.44 L2702.58 1891.00 L2703.49 1891.68 L2704.17 1892.14 L2705.53 1896.89 L2705.76 1899.84 L2705.76 1904.48 L2705.87 1909.92 L2706.10 1913.21 L2706.44 1919.78 L2705.76 1922.72 L2705.53 1924.99 L2705.76 1926.57 L2706.66 1928.84 L2707.46 1930.20 L2708.93 1932.46 L2710.63 1933.60 L2712.55 1934.28 L2713.80 1935.52 L2714.59 1937.22 L2721.16 1963.50 L2726.72 1987.18 L2730.68 1997.83 L2737.59 2018.22 L2738.95 2023.66 L2739.86 2026.49 L2740.08 2028.41 L2739.74 2030.23 L2738.84 2033.85 L2738.84 2035.32 L2739.06 2036.12 L2739.63 2036.80 L2740.42 2037.48 L2742.58 2036.80 L2743.14 2037.25 L2743.71 2038.61 L2747.67 2050.84 L2751.41 2062.74 L2753.11 2068.29 L2755.04 2074.18 L2762.06 2096.84 L2763.76 2099.55 L2765.57 2100.69 L2767.61 2102.16 L2781.66 2127.08 L2794.24 2151.89 L2809.08 2177.61 L2818.71 2195.05 L2828.68 2213.06 L2831.96 2218.61 L2835.82 2225.18 L2836.50 2228.81 L2838.08 2233.79 L2832.08 2231.07 L2804.09 2225.07 L2772.15 2217.03 L2747.45 2210.34 L2720.03 2203.43 L2688.08 2195.62 L2650.13 2185.99 L2616.71 2177.61 L2596.20 2172.39 L2591.56 2171.26 L2588.84 2170.70 L2585.89 2170.24 L2583.17 2186.33 L2572.75 2251.69 L2571.17 2261.89 L2569.58 2272.42 L2567.99 2283.18 L2566.63 2291.45 L2561.54 2325.55 L2561.54 2325.55 Z" stroke-linejoin="round"/>
	</defs>
	<use xlink:href="#path_lTJrmVBL" style="fill:#09757A;stroke:#097D9B;stroke-width:5.76"/>
	<defs>
		<path id="path_EPypsUlL" d="M1617.81 1979.14 L1617.81 1979.14 L1609.66 1992.96 L1607.50 1996.81 L1605.69 1995.56 L1603.31 1994.43 L1595.72 1992.05 L1596.97 1981.74 L1598.33 1970.64 L1565.81 1962.48 L1560.71 1961.24 L1535.00 1954.78 L1527.97 1952.63 L1529.22 1943.79 L1532.05 1926.91 L1526.16 1925.67 L1522.42 1924.88 L1521.29 1924.65 L1520.49 1924.65 L1519.25 1924.76 L1518.23 1924.88 L1517.32 1925.33 L1516.19 1925.89 L1514.04 1927.14 L1512.00 1928.39 L1509.73 1929.75 L1504.52 1935.64 L1497.50 1943.79 L1493.19 1948.89 L1488.09 1954.89 L1482.99 1960.90 L1473.48 1971.21 L1464.87 1980.50 L1460.00 1985.71 L1454.67 1991.26 L1453.09 1989.33 L1452.41 1988.31 L1452.07 1986.95 L1451.95 1985.25 L1452.52 1969.51 L1453.76 1899.61 L1453.99 1878.43 L1454.10 1850.00 L1454.44 1841.05 L1454.44 1825.30 L1454.67 1803.21 L1455.01 1781.69 L1455.01 1777.61 L1455.58 1746.00 L1455.69 1736.60 L1455.58 1730.48 L1456.60 1693.21 L1457.16 1660.93 L1457.05 1621.17 L1457.05 1618.11 L1457.16 1615.39 L1457.62 1611.09 L1459.09 1596.81 L1451.73 1595.11 L1435.64 1591.38 L1433.49 1591.04 L1420.80 1588.66 L1405.39 1585.71 L1390.55 1582.77 L1392.02 1562.26 L1392.59 1551.84 L1393.27 1542.89 L1394.29 1530.43 L1394.51 1528.28 L1400.29 1529.86 L1401.99 1530.43 L1403.92 1531.11 L1405.73 1532.02 L1408.90 1533.94 L1412.30 1536.55 L1416.61 1540.51 L1435.30 1558.07 L1439.60 1561.36 L1443.80 1564.30 L1448.10 1567.02 L1452.41 1569.51 L1456.94 1571.66 L1459.09 1572.57 L1460.34 1573.02 L1462.04 1573.70 L1464.07 1552.86 L1468.38 1522.84 L1469.06 1518.99 L1469.74 1515.02 L1470.19 1511.51 L1473.36 1489.08 L1474.61 1479.57 L1475.06 1475.71 L1476.20 1466.99 L1478.69 1449.77 L1480.50 1435.95 L1483.11 1413.18 L1483.56 1408.88 L1485.26 1389.96 L1487.64 1353.37 L1489.57 1331.28 L1492.74 1290.39 L1493.19 1277.02 L1501.80 1277.25 L1501.23 1266.71 L1500.67 1260.82 L1499.76 1251.98 L1499.65 1250.96 L1499.54 1248.93 L1499.54 1248.36 L1499.54 1247.68 L1515.85 1249.38 L1516.64 1249.38 L1517.55 1249.61 L1535.79 1250.85 L1544.74 1251.19 L1554.37 1251.42 L1555.84 1245.75 L1556.41 1243.60 L1556.63 1242.47 L1556.97 1240.66 L1557.20 1239.64 L1557.99 1233.86 L1558.79 1236.35 L1559.81 1239.07 L1560.71 1241.56 L1563.21 1240.88 L1563.88 1242.47 L1564.22 1243.04 L1565.36 1245.64 L1567.28 1250.29 L1577.37 1248.25 L1588.81 1245.41 L1592.32 1244.51 L1596.17 1243.49 L1606.37 1240.09 L1613.96 1237.71 L1620.08 1235.79 L1624.27 1234.54 L1625.97 1234.09 L1644.66 1231.03 L1649.53 1230.01 L1653.27 1229.21 L1665.62 1279.17 L1668.11 1288.35 L1669.47 1293.22 L1671.06 1296.05 L1673.33 1300.58 L1676.16 1306.36 L1709.92 1372.18 L1755.12 1459.40 L1803.16 1534.17 L1815.28 1546.40 L1818.91 1550.37 L1823.78 1553.20 L1818.91 1562.83 L1814.03 1557.96 L1810.18 1553.99 L1792.06 1577.89 L1785.37 1588.88 L1779.93 1598.29 L1776.65 1604.40 L1773.02 1611.54 L1769.17 1618.90 L1766.90 1623.21 L1764.30 1629.21 L1757.05 1647.34 L1747.76 1672.82 L1734.73 1710.55 L1727.37 1730.03 L1724.87 1736.49 L1713.09 1769.68 L1709.58 1769.11 L1705.73 1768.32 L1703.35 1767.75 L1701.42 1773.30 L1699.84 1777.38 L1698.36 1781.46 L1696.10 1787.92 L1692.47 1797.66 L1691.11 1801.85 L1689.30 1807.40 L1691.79 1808.08 L1695.19 1808.88 L1698.36 1809.33 L1684.65 1843.43 L1676.27 1864.27 L1668.45 1883.64 L1671.17 1884.21 L1666.07 1897.46 L1661.77 1907.88 L1653.95 1926.23 L1647.49 1942.09 L1640.70 1959.09 L1640.02 1961.35 L1639.00 1964.07 L1638.54 1964.86 L1632.31 1979.02 L1630.05 1978.57 L1627.67 1978.00 L1625.86 1977.66 L1622.46 1976.87 L1619.51 1976.19 L1617.81 1979.14 L1617.81 1979.14 Z" stroke-linejoin="round"/>
	</defs>
	<use xlink:href="#path_EPypsUlL" style="fill:#004249;stroke:#00465F;stroke-width:5.76"/>
</svg>
