<?xml version="1.0" encoding="UTF-8" standalone="no"?>
<!-- This is a Stata 16.1 generated SVG file (http://www.stata.com) -->

<svg version="1.1" width="4.00in" height="6.05in" viewBox="0 0 2880 4354" xmlns="http://www.w3.org/2000/svg" xmlns:xlink="http://www.w3.org/1999/xlink">
	<desc>Stata Graph - Graph</desc>
	<rect x="0" y="0" width="2880" height="4354" style="fill:#FFFFFF;stroke:none"/>
	<defs>
		<path id="path_wcALreMU" d="M2165.99 4253.72 L2165.99 4253.72 L2086.26 4238.62 L2083.81 4235.49 L2082.99 4234.27 L2080.27 4230.73 L2080.00 4228.82 L2079.86 4228.01 L2079.46 4227.33 L2077.69 4225.01 L2076.46 4223.38 L2067.21 4211.13 L2062.31 4205.01 L2056.87 4198.07 L2053.20 4192.77 L2050.61 4188.41 L2048.98 4185.55 L2048.44 4184.60 L2047.07 4181.74 L2046.39 4180.52 L2043.81 4173.45 L2038.91 4160.52 L2036.33 4153.99 L2033.47 4146.91 L2031.56 4141.47 L2030.88 4139.84 L2030.34 4138.20 L2029.66 4135.89 L2028.57 4132.22 L2027.07 4127.46 L2025.58 4122.01 L2024.63 4119.02 L2024.22 4117.80 L2023.95 4117.12 L2022.45 4113.17 L2022.18 4112.76 L2022.04 4112.35 L2020.41 4108.54 L2017.41 4102.83 L2014.97 4098.07 L2012.65 4093.71 L2010.88 4090.17 L2010.07 4088.27 L2009.52 4086.91 L2008.84 4085.41 L2008.03 4083.37 L2007.35 4081.19 L2005.58 4075.48 L2004.76 4072.21 L2004.49 4070.72 L2003.95 4068.00 L2003.27 4062.15 L2002.86 4058.61 L2002.04 4050.85 L2001.77 4048.40 L2001.50 4045.55 L2000.41 4033.57 L2000.27 4032.08 L2000.14 4030.85 L1999.32 4017.25 L1999.05 4014.52 L1997.41 3999.83 L1997.28 3997.92 L1997.14 3996.70 L1996.46 3990.99 L1996.19 3987.58 L1995.65 3984.73 L1995.51 3980.92 L1995.51 3979.42 L1995.10 3976.29 L1994.69 3973.16 L1994.29 3969.62 L1993.74 3966.09 L1993.61 3964.73 L1993.61 3963.23 L1993.74 3961.60 L1993.88 3960.92 L1994.01 3960.24 L1994.15 3959.55 L1994.56 3957.92 L1995.37 3956.15 L1996.33 3954.11 L1997.96 3951.80 L2001.50 3946.22 L1992.38 3953.84 L1989.66 3956.29 L1984.76 3960.37 L1983.27 3957.79 L1978.91 3961.46 L1976.33 3963.36 L1972.79 3965.95 L1968.98 3968.40 L1966.12 3970.17 L1962.45 3972.21 L1957.82 3974.52 L1953.47 3976.15 L1948.84 3977.92 L1944.63 3979.28 L1940.54 3980.37 L1935.37 3981.60 L1932.11 3982.14 L1928.98 3982.55 L1925.85 3982.82 L1922.86 3982.82 L1919.18 3982.82 L1915.10 3982.55 L1909.52 3981.87 L1874.83 3976.29 L1853.33 3972.75 L1788.44 3961.87 L1773.20 3959.28 L1749.52 3955.20 L1740.00 3953.43 L1735.10 3952.62 L1727.62 3951.39 L1715.24 3949.49 L1709.66 3948.40 L1704.08 3947.31 L1697.69 3945.68 L1695.65 3944.86 L1691.84 3943.64 L1687.35 3941.87 L1682.86 3939.96 L1678.91 3937.78 L1672.65 3934.25 L1667.48 3931.53 L1654.01 3924.04 L1648.84 3921.19 L1642.99 3918.33 L1636.05 3914.11 L1632.65 3912.61 L1628.71 3910.98 L1624.22 3909.21 L1617.41 3907.03 L1612.52 3905.81 L1613.88 3900.50 L1616.19 3891.39 L1618.10 3883.77 L1621.09 3868.80 L1622.59 3861.32 L1625.85 3843.63 L1633.20 3796.69 L1637.41 3769.34 L1641.90 3741.17 L1642.04 3739.54 L1642.31 3738.05 L1637.82 3737.36 L1637.69 3739.13 L1637.55 3740.63 L1634.97 3740.36 L1633.20 3749.47 L1611.16 3839.14 L1594.29 3835.33 L1591.16 3834.38 L1573.47 3828.39 L1545.17 3823.63 L1541.90 3822.27 L1540.41 3821.59 L1538.50 3820.64 L1505.03 3814.65 L1503.27 3814.24 L1501.36 3813.97 L1473.74 3802.67 L1467.07 3831.66 L1371.97 3813.97 L1402.45 3658.45 L1411.43 3612.60 L1422.99 3570.28 L1429.12 3531.77 L1440.27 3528.64 L1443.67 3513.81 L1443.13 3482.52 L1456.46 3440.07 L1529.25 3458.44 L1532.79 3460.34 L1535.24 3454.08 L1537.41 3453.54 L1538.78 3453.81 L1540.54 3455.58 L1541.90 3457.21 L1558.10 3482.38 L1558.91 3484.15 L1558.91 3486.06 L1557.28 3496.53 L1555.51 3506.74 L1554.69 3508.92 L1553.47 3510.68 L1550.48 3513.13 L1543.81 3517.90 L1541.22 3519.94 L1539.73 3521.98 L1538.91 3524.70 L1538.64 3528.37 L1539.18 3534.77 L1540.82 3534.50 L1542.59 3534.50 L1544.22 3535.58 L1545.58 3537.76 L1546.12 3539.94 L1546.67 3549.19 L1548.57 3554.09 L1551.97 3558.71 L1556.87 3565.79 L1557.69 3569.06 L1558.23 3570.14 L1558.37 3570.82 L1560.41 3570.14 L1572.79 3566.33 L1574.97 3566.88 L1578.23 3565.93 L1584.08 3564.16 L1587.07 3563.34 L1588.98 3562.93 L1591.02 3562.66 L1605.71 3562.25 L1607.07 3545.79 L1607.76 3535.99 L1607.89 3533.54 L1608.44 3523.47 L1608.71 3515.17 L1608.84 3506.19 L1608.71 3500.48 L1608.57 3497.49 L1608.57 3494.09 L1608.30 3487.69 L1607.62 3481.30 L1607.07 3474.76 L1606.53 3470.55 L1605.58 3464.42 L1604.76 3459.25 L1599.59 3431.50 L1598.50 3424.83 L1594.29 3401.70 L1590.20 3379.66 L1588.84 3371.49 L1587.76 3362.51 L1587.07 3355.57 L1586.67 3351.08 L1586.26 3347.00 L1585.58 3338.29 L1585.44 3336.39 L1585.44 3334.21 L1585.44 3327.54 L1585.85 3320.88 L1585.99 3313.26 L1586.12 3311.90 L1586.53 3302.92 L1586.67 3291.90 L1588.84 3271.21 L1589.52 3263.73 L1590.20 3257.20 L1590.48 3253.39 L1592.52 3224.68 L1592.79 3216.11 L1593.20 3212.30 L1593.74 3207.81 L1594.69 3201.82 L1594.83 3200.46 L1595.51 3197.60 L1595.92 3195.29 L1596.46 3193.11 L1597.41 3189.17 L1598.50 3185.22 L1599.86 3181.41 L1601.09 3177.60 L1601.77 3175.70 L1604.49 3168.76 L1605.03 3167.26 L1605.71 3165.90 L1607.35 3162.64 L1609.39 3158.28 L1610.48 3156.24 L1611.29 3154.88 L1627.62 3127.12 L1633.88 3116.51 L1640.14 3106.03 L1648.84 3091.07 L1658.37 3074.88 L1666.26 3061.13 L1670.88 3053.11 L1675.78 3044.94 L1678.50 3040.32 L1703.81 2997.46 L1719.32 2971.88 L1720.41 2969.97 L1722.18 2966.98 L1723.81 2963.99 L1725.44 2960.72 L1725.71 2960.18 L1728.44 2954.33 L1729.93 2950.79 L1731.56 2946.43 L1733.20 2942.35 L1734.42 2939.09 L1735.37 2935.96 L1736.19 2932.83 L1736.46 2931.87 L1736.87 2930.51 L1737.14 2929.56 L1737.69 2927.38 L1738.37 2924.80 L1739.05 2922.08 L1739.86 2918.40 L1740.68 2914.59 L1741.36 2910.65 L1741.63 2908.88 L1742.31 2904.39 L1742.86 2900.72 L1743.27 2895.95 L1743.54 2892.69 L1744.22 2883.71 L1745.03 2873.78 L1747.07 2850.10 L1748.16 2837.58 L1748.71 2833.50 L1749.12 2829.01 L1749.80 2823.43 L1750.75 2814.72 L1751.43 2806.83 L1753.20 2789.83 L1753.74 2784.11 L1754.01 2780.98 L1754.56 2774.31 L1755.65 2764.11 L1756.60 2755.27 L1757.82 2743.43 L1757.96 2739.62 L1758.37 2734.31 L1758.37 2732.00 L1758.37 2729.82 L1758.23 2725.88 L1758.23 2725.33 L1758.10 2723.70 L1757.96 2721.79 L1757.96 2721.11 L1757.69 2717.58 L1757.55 2716.22 L1757.28 2713.49 L1756.73 2709.41 L1756.46 2707.51 L1756.05 2705.19 L1755.92 2704.79 L1755.24 2701.52 L1753.88 2696.21 L1751.97 2689.28 L1749.66 2681.66 L1740.14 2652.54 L1735.10 2637.71 L1730.20 2622.88 L1726.67 2612.13 L1722.99 2601.11 L1721.63 2597.16 L1718.78 2588.04 L1715.92 2579.20 L1713.74 2572.13 L1711.56 2564.64 L1709.80 2558.38 L1708.44 2552.80 L1707.07 2547.36 L1706.12 2542.60 L1705.03 2537.84 L1704.22 2533.21 L1702.99 2527.09 L1702.72 2523.14 L1702.31 2518.52 L1702.18 2515.66 L1702.18 2511.31 L1702.04 2507.22 L1702.18 2503.28 L1702.45 2498.79 L1702.72 2496.20 L1702.99 2493.75 L1703.40 2490.90 L1703.81 2487.63 L1704.49 2483.55 L1705.31 2479.60 L1706.12 2475.79 L1708.30 2467.63 L1710.34 2461.91 L1713.74 2451.57 L1720.41 2439.46 L1722.45 2435.93 L1723.40 2434.43 L1725.03 2431.85 L1726.12 2430.35 L1727.07 2428.85 L1727.21 2428.58 L1728.57 2426.81 L1729.52 2425.45 L1730.34 2424.36 L1731.02 2423.55 L1731.70 2422.46 L1732.38 2421.64 L1733.33 2420.55 L1735.10 2418.37 L1736.19 2417.29 L1737.01 2416.33 L1738.37 2414.84 L1740.00 2413.20 L1743.40 2409.80 L1743.81 2409.26 L1746.12 2406.95 L1748.44 2404.90 L1748.71 2404.50 L1758.50 2395.24 L1763.54 2390.48 L1771.43 2382.59 L1820.82 2336.19 L1824.90 2332.11 L1827.07 2330.07 L1829.39 2327.89 L1831.16 2326.12 L1834.56 2322.59 L1835.65 2321.23 L1836.19 2320.68 L1837.55 2319.19 L1839.46 2316.87 L1841.50 2314.29 L1843.81 2311.29 L1849.12 2304.08 L1852.79 2298.91 L1857.14 2290.88 L1857.55 2289.93 L1859.73 2285.71 L1861.77 2281.36 L1862.86 2279.18 L1863.81 2277.01 L1864.90 2274.42 L1866.12 2271.29 L1867.21 2268.57 L1867.76 2266.80 L1875.10 2245.85 L1879.59 2233.74 L1881.50 2228.57 L1895.65 2188.57 L1900.95 2174.01 L1903.54 2166.93 L1905.44 2161.62 L1906.12 2159.72 L1909.12 2151.15 L1916.73 2129.92 L1917.82 2127.07 L1922.18 2114.55 L1924.63 2107.61 L1926.12 2103.53 L1927.35 2099.58 L1928.44 2096.04 L1929.66 2091.55 L1930.75 2086.79 L1931.84 2081.35 L1932.79 2075.77 L1934.15 2066.93 L1934.83 2058.63 L1935.10 2052.23 L1935.24 2045.16 L1934.69 2033.18 L1934.56 2031.28 L1934.01 2024.75 L1933.20 2019.17 L1931.70 2010.60 L1930.34 2005.15 L1933.47 2005.02 L1935.92 2005.02 L1944.90 2004.61 L1956.87 2004.20 L1967.35 2003.79 L1980.14 2003.66 L1992.65 2003.25 L2002.45 2003.25 L2008.84 2003.52 L2015.92 2003.93 L2022.59 2004.61 L2031.56 2005.70 L2040.41 2006.65 L2052.52 2008.15 L2071.02 2010.05 L2110.75 2014.81 L2139.73 2019.03 L2141.77 2019.44 L2146.94 2020.66 L2151.97 2021.89 L2156.46 2023.11 L2160.27 2024.20 L2162.86 2024.88 L2165.58 2025.83 L2168.98 2026.92 L2176.60 2029.64 L2184.63 2033.05 L2187.76 2034.41 L2190.61 2035.63 L2192.52 2036.58 L2195.92 2038.35 L2199.59 2040.26 L2206.80 2044.20 L2212.93 2047.88 L2220.27 2052.09 L2234.97 2060.67 L2252.11 2069.78 L2254.01 2070.74 L2256.19 2071.82 L2259.86 2073.32 L2268.44 2077.13 L2271.84 2078.63 L2277.01 2080.26 L2278.37 2080.80 L2282.59 2082.16 L2286.26 2083.25 L2290.75 2084.48 L2300.14 2086.93 L2304.08 2087.74 L2310.61 2088.83 L2315.24 2089.51 L2319.59 2090.19 L2323.67 2090.60 L2327.35 2091.01 L2330.34 2091.14 L2333.06 2091.42 L2337.14 2091.55 L2340.82 2091.69 L2343.40 2091.69 L2351.29 2090.87 L2358.78 2091.14 L2364.49 2091.28 L2373.33 2091.55 L2383.40 2091.82 L2389.12 2091.96 L2395.10 2092.51 L2401.90 2093.19 L2409.80 2094.41 L2415.65 2095.50 L2421.90 2097.13 L2425.99 2098.36 L2429.52 2099.58 L2434.29 2101.21 L2438.78 2102.98 L2443.27 2104.89 L2446.94 2106.38 L2451.29 2108.56 L2455.10 2110.60 L2459.59 2113.05 L2463.95 2115.77 L2469.12 2119.58 L2470.34 2120.53 L2471.70 2121.62 L2478.64 2126.52 L2484.63 2131.01 L2490.34 2135.23 L2499.73 2142.44 L2502.99 2144.62 L2505.71 2146.79 L2508.98 2149.24 L2509.52 2149.65 L2510.75 2150.47 L2512.93 2151.96 L2514.97 2153.46 L2526.39 2160.26 L2530.88 2162.85 L2532.79 2163.80 L2534.97 2164.89 L2537.82 2166.25 L2541.50 2167.88 L2548.30 2170.47 L2550.88 2171.42 L2552.38 2171.97 L2554.42 2172.65 L2556.60 2173.33 L2562.18 2174.82 L2565.85 2175.78 L2569.25 2176.46 L2572.93 2177.27 L2576.46 2177.95 L2580.27 2178.36 L2583.95 2178.77 L2591.29 2179.45 L2598.78 2179.86 L2605.31 2179.86 L2614.56 2179.04 L2617.28 2178.77 L2630.61 2177.00 L2704.35 2162.31 L2717.82 2159.72 L2730.34 2157.54 L2745.85 2155.09 L2746.67 2159.58 L2771.29 2236.32 L2767.89 2250.47 L2754.56 2308.44 L2749.12 2334.56 L2744.22 2354.97 L2738.37 2381.50 L2728.44 2425.86 L2717.82 2472.94 L2714.29 2486.54 L2711.16 2505.32 L2704.08 2563.01 L2699.59 2583.42 L2695.37 2603.83 L2694.56 2607.37 L2679.18 2674.44 L2678.91 2679.07 L2712.93 2688.87 L2712.38 2694.58 L2711.43 2703.15 L2712.52 2710.64 L2723.13 2725.33 L2721.50 2726.28 L2713.06 2733.50 L2711.97 2734.31 L2717.96 2750.50 L2720.54 2757.58 L2722.31 2765.47 L2722.04 2769.14 L2720.82 2769.69 L2716.33 2771.46 L2714.01 2775.54 L2713.61 2778.12 L2714.15 2780.98 L2714.56 2782.48 L2715.10 2786.29 L2714.42 2790.78 L2713.74 2796.63 L2713.61 2802.75 L2714.42 2805.20 L2714.83 2806.83 L2717.41 2811.73 L2723.40 2816.09 L2725.99 2816.77 L2726.53 2817.31 L2738.10 2819.90 L2737.41 2822.48 L2728.84 2856.77 L2728.57 2858.40 L2727.35 2872.14 L2727.21 2875.41 L2702.18 2882.08 L2699.05 2885.61 L2700.95 2888.47 L2701.77 2889.56 L2701.90 2889.83 L2702.99 2891.19 L2705.31 2893.78 L2707.35 2895.82 L2708.16 2896.36 L2709.93 2897.86 L2716.46 2901.53 L2723.67 2905.21 L2729.52 2907.38 L2728.71 2910.24 L2728.44 2911.19 L2727.89 2913.10 L2727.62 2914.32 L2726.67 2918.00 L2725.99 2920.45 L2724.90 2925.07 L2724.22 2928.61 L2723.81 2931.06 L2723.40 2933.51 L2723.27 2934.87 L2722.99 2936.64 L2722.72 2940.31 L2722.45 2944.12 L2722.04 2952.28 L2722.04 2953.24 L2722.04 2956.23 L2722.04 2956.64 L2722.04 2960.18 L2722.04 2961.13 L2722.18 2963.71 L2722.31 2965.48 L2722.45 2966.98 L2722.72 2968.20 L2723.27 2973.10 L2724.76 2981.40 L2726.12 2986.57 L2728.71 2993.92 L2730.61 2998.95 L2733.20 3006.03 L2734.69 3009.97 L2739.59 3022.08 L2745.99 3039.23 L2755.24 3063.31 L2759.86 3078.69 L2762.99 3093.65 L2765.17 3113.38 L2770.20 3112.70 L2773.20 3112.43 L2776.33 3123.18 L2778.91 3135.02 L2779.46 3139.37 L2779.46 3141.27 L2779.32 3143.32 L2772.93 3172.57 L2772.24 3175.43 L2771.70 3179.10 L2770.88 3181.69 L2762.18 3221.55 L2758.64 3236.79 L2757.69 3240.74 L2756.33 3248.22 L2754.69 3256.25 L2753.74 3260.33 L2750.88 3273.66 L2767.35 3276.93 L2851.70 3294.89 L2846.53 3316.12 L2845.85 3319.24 L2822.18 3436.53 L2807.89 3506.47 L2803.40 3528.51 L2799.59 3547.15 L2774.29 3653.82 L2765.85 3712.19 L2756.33 3749.75 L2736.05 3829.62 L2725.17 3880.64 L2724.63 3887.03 L2723.67 3896.97 L2722.86 3912.07 L2722.31 3921.32 L2720.82 3920.23 L2695.10 3900.23 L2682.86 3890.84 L2676.60 3885.95 L2666.12 3873.97 L2606.12 3861.18 L2559.59 3853.83 L2537.14 3874.92 L2527.62 3883.77 L2520.14 3903.50 L2510.88 3927.72 L2504.35 3945.13 L2496.05 3966.90 L2507.21 3967.85 L2522.31 3969.08 L2518.23 4034.53 L2514.42 4053.30 L2510.07 4071.81 L2504.49 4110.04 L2502.18 4113.31 L2501.36 4116.98 L2500.95 4121.06 L2503.67 4127.86 L2493.06 4189.77 L2489.39 4199.16 L2453.61 4291.14 L2448.57 4304.20 L2445.85 4311.41 L2392.38 4294.95 L2342.86 4279.71 L2338.23 4278.35 L2338.50 4273.86 L2340.54 4233.18 L2340.82 4228.01 L2330.48 4225.69 L2292.79 4217.53 L2289.25 4216.71 L2278.64 4214.40 L2276.60 4213.99 L2274.01 4228.55 L2266.26 4269.91 L2265.58 4274.00 L2197.41 4262.84 L2177.01 4258.62 L2165.99 4253.72 L2165.99 4253.72 Z" stroke-linejoin="round"/>
	</defs>
	<use xlink:href="#path_wcALreMU" style="fill:#9DC8CA;stroke:#6BB4D2;stroke-width:5.76"/>
	<defs>
		<path id="path_ZyyUURVP" d="M569.12 3036.78 L569.12 3036.78 L569.12 3036.78 L565.03 3003.72 L564.22 2991.61 L564.49 2967.66 L563.67 2952.01 L506.12 2760.84 L496.46 2496.07 L495.37 2291.56 L491.02 2256.60 L488.03 2155.50 L485.31 2135.23 L451.70 1910.73 L421.63 1820.38 L408.03 1793.03 L402.99 1785.55 L414.15 1784.32 L429.66 1786.91 L431.43 1792.35 L432.79 1795.89 L435.78 1803.24 L437.28 1806.50 L438.78 1809.36 L440.68 1812.76 L442.99 1816.16 L447.21 1822.15 L454.15 1831.40 L460.14 1839.43 L466.12 1847.46 L474.15 1858.21 L478.64 1864.46 L486.67 1875.35 L492.11 1882.42 L497.14 1888.68 L500.41 1892.63 L503.40 1895.62 L506.39 1898.62 L509.52 1901.47 L512.24 1903.92 L515.24 1906.10 L518.37 1908.55 L521.90 1911.27 L525.44 1913.72 L528.30 1915.35 L531.84 1917.26 L534.29 1917.12 L534.83 1917.39 L537.28 1919.16 L541.22 1917.12 L540.95 1919.57 L544.49 1919.43 L555.10 1922.84 L550.88 1923.65 L552.24 1925.83 L554.42 1926.51 L560.14 1928.28 L562.99 1928.96 L571.70 1931.82 L577.14 1933.31 L588.84 1936.31 L599.18 1939.03 L601.63 1939.57 L606.12 1940.66 L607.76 1941.07 L617.14 1943.24 L629.80 1946.65 L638.64 1948.82 L648.84 1951.41 L657.82 1953.59 L664.35 1955.35 L671.97 1957.26 L686.39 1961.07 L696.60 1964.20 L702.99 1965.97 L712.79 1968.55 L718.23 1969.50 L723.81 1970.46 L736.05 1973.04 L740.00 1973.99 L747.76 1975.76 L751.29 1976.72 L755.51 1977.94 L777.14 1983.25 L781.63 1984.47 L792.11 1987.33 L800.27 1989.23 L802.99 1990.05 L822.72 1994.81 L832.24 1997.13 L837.41 1998.35 L842.04 1999.17 L846.26 1999.57 L850.75 2000.12 L855.65 2000.53 L860.27 2000.80 L864.49 2000.80 L869.93 2000.80 L875.24 2000.39 L880.68 1999.98 L885.85 1999.30 L891.84 1998.49 L898.10 1997.40 L906.67 1995.90 L912.52 1994.81 L919.86 1993.45 L927.35 1992.09 L935.10 1990.87 L942.86 1989.51 L983.27 1982.29 L991.84 1980.93 L997.41 1979.98 L1005.31 1978.76 L1011.29 1977.80 L1016.73 1977.26 L1022.45 1976.85 L1027.62 1976.58 L1033.06 1976.58 L1039.05 1976.85 L1044.76 1977.12 L1050.20 1977.67 L1054.83 1978.35 L1060.14 1979.30 L1065.85 1980.39 L1071.02 1981.61 L1076.46 1983.11 L1081.36 1984.61 L1086.39 1986.24 L1089.93 1987.46 L1091.97 1988.15 L1093.61 1988.69 L1098.78 1990.87 L1102.99 1992.64 L1108.30 1994.81 L1114.29 1997.40 L1119.46 1999.71 L1125.85 2002.70 L1131.16 2005.15 L1138.37 2008.69 L1147.89 2013.04 L1158.23 2017.81 L1165.58 2021.34 L1176.19 2026.24 L1189.39 2032.23 L1201.36 2037.94 L1211.16 2042.57 L1216.87 2045.02 L1222.04 2047.74 L1227.89 2051.01 L1232.38 2053.73 L1237.69 2056.99 L1241.36 2059.58 L1244.63 2062.03 L1247.48 2064.20 L1249.66 2065.84 L1251.29 2067.47 L1253.20 2069.37 L1255.10 2071.28 L1258.78 2074.68 L1261.63 2077.67 L1264.35 2080.53 L1267.21 2083.93 L1270.75 2088.02 L1273.06 2091.14 L1276.87 2096.18 L1280.41 2101.21 L1285.58 2108.97 L1288.84 2114.28 L1295.65 2124.34 L1300.14 2131.15 L1302.45 2134.55 L1305.44 2138.77 L1309.52 2143.53 L1313.06 2147.61 L1318.50 2153.46 L1322.72 2157.41 L1325.99 2160.13 L1328.44 2162.03 L1331.29 2164.62 L1332.38 2165.43 L1335.37 2167.75 L1338.78 2170.20 L1342.59 2172.51 L1344.08 2173.46 L1351.97 2177.41 L1354.29 2178.63 L1361.22 2181.63 L1367.76 2184.62 L1377.28 2187.89 L1392.38 2191.97 L1400.82 2194.14 L1418.10 2198.36 L1440.95 2204.35 L1450.61 2206.80 L1458.50 2208.84 L1466.39 2210.88 L1473.06 2212.51 L1478.64 2213.46 L1485.03 2214.01 L1491.02 2214.42 L1496.46 2214.42 L1504.08 2214.01 L1509.12 2213.19 L1515.24 2211.97 L1520.68 2210.61 L1527.21 2208.57 L1534.01 2205.85 L1538.10 2204.08 L1543.67 2201.36 L1552.11 2196.46 L1557.14 2192.78 L1563.40 2188.02 L1569.25 2183.12 L1574.29 2179.04 L1579.59 2174.96 L1591.56 2165.84 L1604.76 2155.23 L1615.37 2147.20 L1644.22 2124.07 L1663.67 2108.97 L1672.93 2102.44 L1677.28 2099.72 L1682.72 2096.86 L1687.89 2094.14 L1694.42 2090.74 L1703.81 2086.11 L1732.24 2071.42 L1737.69 2068.56 L1747.21 2063.80 L1760.41 2057.13 L1769.52 2052.50 L1780.00 2047.33 L1789.12 2042.84 L1798.10 2038.76 L1806.12 2034.68 L1813.20 2031.69 L1819.32 2029.10 L1825.03 2026.92 L1829.93 2025.29 L1835.78 2023.52 L1843.40 2021.48 L1854.42 2018.62 L1864.35 2016.17 L1879.46 2012.09 L1886.94 2010.32 L1894.42 2008.69 L1900.00 2007.60 L1905.85 2006.92 L1911.84 2006.38 L1918.78 2005.83 L1920.95 2005.70 L1930.34 2005.15 L1931.70 2010.60 L1933.20 2019.17 L1934.01 2024.75 L1934.56 2031.28 L1934.69 2033.18 L1935.24 2045.16 L1935.10 2052.23 L1934.83 2058.63 L1934.15 2066.93 L1932.79 2075.77 L1931.84 2081.35 L1930.75 2086.79 L1929.66 2091.55 L1928.44 2096.04 L1927.35 2099.58 L1926.12 2103.53 L1924.63 2107.61 L1922.18 2114.55 L1917.82 2127.07 L1916.73 2129.92 L1909.12 2151.15 L1906.12 2159.72 L1905.44 2161.62 L1903.54 2166.93 L1900.95 2174.01 L1895.65 2188.57 L1881.50 2228.57 L1879.59 2233.74 L1875.10 2245.85 L1867.76 2266.80 L1867.21 2268.57 L1866.12 2271.29 L1864.90 2274.42 L1863.81 2277.01 L1862.86 2279.18 L1861.77 2281.36 L1859.73 2285.71 L1857.55 2289.93 L1857.14 2290.88 L1852.79 2298.91 L1849.12 2304.08 L1843.81 2311.29 L1841.50 2314.29 L1839.46 2316.87 L1837.55 2319.19 L1836.19 2320.68 L1835.65 2321.23 L1834.56 2322.59 L1831.16 2326.12 L1829.39 2327.89 L1827.07 2330.07 L1824.90 2332.11 L1820.82 2336.19 L1771.43 2382.59 L1763.54 2390.48 L1758.50 2395.24 L1748.71 2404.50 L1748.44 2404.90 L1746.12 2406.95 L1743.81 2409.26 L1743.40 2409.80 L1740.00 2413.20 L1738.37 2414.84 L1737.01 2416.33 L1736.19 2417.29 L1735.10 2418.37 L1733.33 2420.55 L1732.38 2421.64 L1731.70 2422.46 L1731.02 2423.55 L1730.34 2424.36 L1729.52 2425.45 L1728.57 2426.81 L1727.21 2428.58 L1727.07 2428.85 L1726.12 2430.35 L1725.03 2431.85 L1723.40 2434.43 L1722.45 2435.93 L1720.41 2439.46 L1713.74 2451.57 L1710.34 2461.91 L1708.30 2467.63 L1706.12 2475.79 L1705.31 2479.60 L1704.49 2483.55 L1703.81 2487.63 L1703.40 2490.90 L1702.99 2493.75 L1702.72 2496.20 L1702.45 2498.79 L1702.18 2503.28 L1702.04 2507.22 L1702.18 2511.31 L1702.18 2515.66 L1702.31 2518.52 L1702.72 2523.14 L1702.99 2527.09 L1704.22 2533.21 L1705.03 2537.84 L1706.12 2542.60 L1707.07 2547.36 L1708.44 2552.80 L1709.80 2558.38 L1711.56 2564.64 L1713.74 2572.13 L1715.92 2579.20 L1718.78 2588.04 L1721.63 2597.16 L1722.99 2601.11 L1726.67 2612.13 L1730.20 2622.88 L1735.10 2637.71 L1740.14 2652.54 L1749.66 2681.66 L1751.97 2689.28 L1753.88 2696.21 L1755.24 2701.52 L1755.92 2704.79 L1756.05 2705.19 L1756.46 2707.51 L1756.73 2709.41 L1757.28 2713.49 L1757.55 2716.22 L1757.69 2717.58 L1757.96 2721.11 L1757.96 2721.79 L1758.10 2723.70 L1758.23 2725.33 L1758.23 2725.88 L1758.37 2729.82 L1758.37 2732.00 L1758.37 2734.31 L1757.96 2739.62 L1757.82 2743.43 L1756.60 2755.27 L1755.65 2764.11 L1754.56 2774.31 L1754.01 2780.98 L1753.74 2784.11 L1753.20 2789.83 L1751.43 2806.83 L1750.75 2814.72 L1749.80 2823.43 L1749.12 2829.01 L1748.71 2833.50 L1748.16 2837.58 L1747.07 2850.10 L1745.03 2873.78 L1744.22 2883.71 L1743.54 2892.69 L1743.27 2895.95 L1742.86 2900.72 L1742.31 2904.39 L1741.63 2908.88 L1741.36 2910.65 L1740.68 2914.59 L1739.86 2918.40 L1739.05 2922.08 L1738.37 2924.80 L1737.69 2927.38 L1737.14 2929.56 L1736.87 2930.51 L1736.46 2931.87 L1736.19 2932.83 L1735.37 2935.96 L1734.42 2939.09 L1733.20 2942.35 L1731.56 2946.43 L1729.93 2950.79 L1728.44 2954.33 L1725.71 2960.18 L1725.44 2960.72 L1723.81 2963.99 L1722.18 2966.98 L1720.41 2969.97 L1719.32 2971.88 L1703.81 2997.46 L1678.50 3040.32 L1675.78 3044.94 L1670.88 3053.11 L1666.26 3061.13 L1658.37 3074.88 L1648.84 3091.07 L1640.14 3106.03 L1633.88 3116.51 L1627.62 3127.12 L1611.29 3154.88 L1610.48 3156.24 L1609.39 3158.28 L1607.35 3162.64 L1605.71 3165.90 L1605.03 3167.26 L1604.49 3168.76 L1601.77 3175.70 L1601.09 3177.60 L1599.86 3181.41 L1598.50 3185.22 L1597.41 3189.17 L1596.46 3193.11 L1595.92 3195.29 L1595.51 3197.60 L1594.83 3200.46 L1594.69 3201.82 L1593.74 3207.81 L1593.20 3212.30 L1592.79 3216.11 L1592.52 3224.68 L1570.75 3215.16 L1537.41 3201.69 L1537.14 3200.19 L1534.01 3197.88 L1529.93 3198.01 L1490.20 3173.11 L1470.75 3153.38 L1394.69 3137.19 L1293.06 3120.46 L1178.37 3095.29 L1128.44 3084.26 L1079.32 3073.79 L1068.03 3071.34 L927.48 3025.35 L917.01 3022.36 L904.08 3016.91 L886.80 3010.25 L862.31 2989.43 L846.80 2996.50 L840.41 2996.23 L811.70 3016.91 L737.69 3047.66 L650.75 3033.24 L631.02 3031.47 L610.75 3033.24 L603.81 3034.06 L591.97 3035.83 L588.03 3036.10 L581.77 3036.64 L569.12 3036.78 L569.12 3036.78 Z" stroke-linejoin="round"/>
	</defs>
	<use xlink:href="#path_ZyyUURVP" style="fill:#9DC8CA;stroke:#6BB4D2;stroke-width:5.76"/>
	<defs>
		<path id="path_AOKglKfC" d="M2591.29 2179.45 L2591.29 2179.45 L2583.95 2178.77 L2580.27 2178.36 L2576.46 2177.95 L2572.93 2177.27 L2569.25 2176.46 L2565.85 2175.78 L2562.18 2174.82 L2556.60 2173.33 L2554.42 2172.65 L2552.38 2171.97 L2550.88 2171.42 L2548.30 2170.47 L2541.50 2167.88 L2537.82 2166.25 L2534.97 2164.89 L2532.79 2163.80 L2530.88 2162.85 L2526.39 2160.26 L2514.97 2153.46 L2512.93 2151.96 L2510.75 2150.47 L2509.52 2149.65 L2508.98 2149.24 L2505.71 2146.79 L2502.99 2144.62 L2499.73 2142.44 L2490.34 2135.23 L2484.63 2131.01 L2478.64 2126.52 L2471.70 2121.62 L2470.34 2120.53 L2469.12 2119.58 L2463.95 2115.77 L2459.59 2113.05 L2455.10 2110.60 L2451.29 2108.56 L2446.94 2106.38 L2443.27 2104.89 L2438.78 2102.98 L2434.29 2101.21 L2429.52 2099.58 L2425.99 2098.36 L2421.90 2097.13 L2415.65 2095.50 L2409.80 2094.41 L2401.90 2093.19 L2395.10 2092.51 L2389.12 2091.96 L2383.40 2091.82 L2373.33 2091.55 L2364.49 2091.28 L2358.78 2091.14 L2351.29 2090.87 L2343.40 2091.69 L2340.82 2091.69 L2337.14 2091.55 L2333.06 2091.42 L2330.34 2091.14 L2327.35 2091.01 L2323.67 2090.60 L2319.59 2090.19 L2315.24 2089.51 L2310.61 2088.83 L2304.08 2087.74 L2300.14 2086.93 L2290.75 2084.48 L2286.26 2083.25 L2282.59 2082.16 L2278.37 2080.80 L2277.01 2080.26 L2271.84 2078.63 L2268.44 2077.13 L2259.86 2073.32 L2256.19 2071.82 L2254.01 2070.74 L2252.11 2069.78 L2234.97 2060.67 L2220.27 2052.09 L2212.93 2047.88 L2206.80 2044.20 L2199.59 2040.26 L2195.92 2038.35 L2192.52 2036.58 L2190.61 2035.63 L2187.76 2034.41 L2184.63 2033.05 L2176.60 2029.64 L2168.98 2026.92 L2165.58 2025.83 L2162.86 2024.88 L2160.27 2024.20 L2156.46 2023.11 L2151.97 2021.89 L2146.94 2020.66 L2141.77 2019.44 L2139.73 2019.03 L2110.75 2014.81 L2071.02 2010.05 L2052.52 2008.15 L2040.41 2006.65 L2031.56 2005.70 L2022.59 2004.61 L2015.92 2003.93 L2008.84 2003.52 L2002.45 2003.25 L1992.65 2003.25 L1980.14 2003.66 L1967.35 2003.79 L1956.87 2004.20 L1944.90 2004.61 L1935.92 2005.02 L1934.15 1998.21 L1932.24 1991.82 L1929.12 1982.29 L1926.53 1975.76 L1924.63 1971.41 L1921.36 1964.33 L1918.37 1957.67 L1916.46 1953.59 L1910.07 1940.93 L1907.62 1934.94 L1875.92 1860.65 L1868.84 1844.19 L1864.76 1834.80 L1859.05 1821.74 L1854.56 1810.99 L1849.12 1798.47 L1845.03 1788.41 L1841.22 1779.83 L1837.69 1771.53 L1833.20 1761.19 L1827.89 1749.36 L1824.90 1742.42 L1823.13 1737.79 L1821.50 1733.16 L1820.00 1727.59 L1819.18 1724.32 L1818.23 1719.97 L1817.14 1715.75 L1816.46 1711.67 L1815.65 1706.09 L1814.97 1701.33 L1813.88 1693.57 L1813.74 1692.75 L1812.52 1683.91 L1811.84 1679.56 L1811.16 1674.25 L1809.25 1665.54 L1808.03 1660.78 L1807.48 1658.19 L1806.39 1654.66 L1805.31 1650.44 L1804.22 1647.44 L1802.72 1643.09 L1801.36 1639.69 L1800.54 1637.92 L1798.50 1633.43 L1796.46 1629.08 L1793.47 1624.04 L1791.84 1621.32 L1790.48 1618.87 L1788.98 1616.56 L1787.48 1614.25 L1785.71 1611.93 L1783.95 1609.35 L1781.36 1605.81 L1776.87 1600.09 L1774.15 1596.42 L1771.43 1593.02 L1768.57 1590.03 L1765.99 1587.31 L1764.08 1585.54 L1759.73 1581.86 L1757.14 1579.96 L1754.97 1578.32 L1752.11 1576.15 L1748.44 1573.56 L1745.31 1571.52 L1742.18 1569.48 L1738.50 1567.58 L1734.97 1565.54 L1728.98 1562.00 L1725.03 1559.82 L1718.10 1556.01 L1711.29 1552.06 L1705.17 1548.39 L1687.62 1538.87 L1684.35 1537.10 L1681.22 1535.33 L1677.69 1533.56 L1673.47 1531.11 L1669.52 1528.53 L1669.12 1528.25 L1665.31 1525.67 L1662.31 1523.49 L1659.32 1521.31 L1654.15 1516.96 L1650.34 1513.83 L1648.98 1512.61 L1647.48 1511.25 L1642.31 1505.67 L1639.73 1502.67 L1637.01 1499.68 L1634.42 1496.42 L1631.43 1492.33 L1628.03 1487.84 L1621.50 1479.54 L1614.29 1469.88 L1600.14 1452.06 L1588.98 1437.36 L1579.73 1425.12 L1573.61 1417.23 L1569.80 1412.87 L1565.99 1408.79 L1561.77 1404.16 L1556.46 1398.99 L1550.34 1393.28 L1545.31 1388.65 L1539.18 1383.35 L1533.06 1378.04 L1525.03 1370.42 L1517.55 1363.75 L1507.76 1355.45 L1497.01 1346.34 L1489.80 1340.35 L1481.77 1333.82 L1469.39 1324.02 L1460.00 1316.68 L1451.84 1310.55 L1444.35 1304.70 L1434.01 1296.54 L1423.54 1288.38 L1412.93 1280.21 L1394.97 1266.47 L1380.68 1255.99 L1374.42 1250.96 L1370.75 1248.65 L1368.03 1246.20 L1365.71 1244.16 L1363.13 1242.11 L1361.77 1244.02 L1360.54 1245.79 L1357.55 1243.48 L1342.04 1230.41 L1334.97 1224.15 L1327.76 1217.22 L1320.68 1210.68 L1314.97 1204.83 L1308.84 1198.71 L1300.95 1190.82 L1295.78 1185.51 L1290.75 1180.61 L1286.39 1176.67 L1281.63 1172.86 L1277.01 1169.59 L1272.93 1166.87 L1271.16 1166.06 L1270.07 1165.24 L1268.30 1162.25 L1263.95 1159.93 L1258.64 1157.08 L1254.42 1155.17 L1250.48 1153.67 L1245.99 1152.04 L1239.59 1150.00 L1233.33 1148.10 L1227.48 1146.73 L1218.10 1144.83 L1208.57 1143.33 L1197.96 1141.43 L1188.57 1139.80 L1179.86 1138.30 L1171.70 1136.94 L1165.31 1135.71 L1159.46 1134.49 L1154.01 1133.13 L1148.98 1131.63 L1143.95 1129.86 L1139.18 1127.96 L1134.29 1125.78 L1128.71 1122.92 L1122.86 1119.66 L1118.64 1116.66 L1113.33 1112.72 L1109.52 1109.45 L1105.17 1105.37 L1100.82 1101.02 L1097.01 1096.66 L1093.61 1092.45 L1090.34 1088.23 L1086.26 1082.65 L1081.22 1075.57 L1077.55 1070.00 L1071.97 1061.70 L1066.67 1053.67 L1060.41 1044.96 L1056.33 1039.52 L1050.07 1032.17 L1045.17 1026.59 L1032.65 1014.07 L1025.99 1007.54 L1021.77 1003.60 L1015.24 997.61 L1009.93 992.03 L1005.99 987.41 L1002.18 982.64 L997.41 976.79 L993.20 971.49 L989.66 966.18 L986.53 961.01 L983.13 955.02 L980.41 950.12 L977.82 944.55 L974.83 937.88 L971.56 929.99 L968.84 922.10 L966.80 915.56 L964.76 908.08 L962.99 900.87 L961.50 893.39 L960.00 884.81 L958.10 875.29 L956.46 866.72 L953.88 853.11 L951.84 842.09 L949.93 831.48 L948.84 825.08 L947.76 819.23 L946.53 811.88 L945.85 806.58 L945.31 801.14 L944.90 794.88 L944.76 788.07 L944.76 780.73 L945.03 773.38 L945.44 767.12 L945.85 759.91 L946.12 752.97 L946.53 745.49 L946.80 737.73 L946.94 730.38 L946.94 723.58 L946.80 716.91 L946.67 710.79 L944.08 707.12 L943.81 706.44 L943.27 693.51 L942.86 681.40 L941.90 666.03 L941.50 658.54 L940.82 648.20 L939.46 622.35 L938.10 595.14 L937.55 579.49 L937.28 572.55 L937.14 566.70 L937.01 559.63 L936.87 545.88 L936.73 536.36 L936.60 526.15 L936.60 515.95 L936.60 505.88 L936.60 496.08 L936.46 486.83 L936.19 475.54 L935.92 467.65 L935.24 460.16 L934.42 452.14 L933.61 445.74 L932.65 439.07 L931.43 431.45 L930.20 425.74 L928.44 418.94 L927.07 414.04 L925.17 406.96 L922.86 399.62 L920.68 393.08 L918.23 386.69 L915.65 380.16 L912.93 374.58 L909.39 366.55 L905.03 356.35 L902.72 350.77 L899.73 343.56 L896.73 336.21 L894.29 329.68 L891.70 322.33 L888.84 311.99 L887.48 306.55 L885.99 298.66 L884.49 290.09 L883.40 280.83 L882.59 273.62 L881.90 265.19 L881.63 258.93 L881.63 251.85 L881.90 245.59 L882.45 237.84 L882.86 233.21 L883.40 228.04 L884.08 222.73 L885.03 215.80 L887.35 202.32 L890.20 185.86 L893.06 170.08 L894.42 161.10 L895.51 154.98 L896.33 150.21 L897.14 146.00 L897.69 143.14 L898.78 137.83 L899.46 134.02 L900.41 129.26 L901.09 125.04 L901.36 122.73 L902.45 117.15 L903.13 112.12 L907.07 111.98 L921.90 110.89 L955.37 109.12 L964.22 109.26 L970.75 109.39 L977.01 110.07 L980.82 110.75 L990.20 112.39 L993.33 112.93 L995.78 113.48 L997.55 114.02 L1000.27 114.84 L1003.13 115.93 L1010.07 118.65 L1015.51 120.82 L1020.00 122.73 L1025.17 125.31 L1029.66 127.76 L1035.10 131.03 L1040.95 134.97 L1085.58 165.32 L1102.45 177.02 L1111.56 183.14 L1119.05 187.90 L1125.71 191.98 L1134.01 196.75 L1141.90 200.96 L1145.99 203.01 L1148.16 204.23 L1155.10 207.50 L1157.82 208.72 L1159.86 209.67 L1166.26 212.39 L1177.01 216.75 L1221.63 234.98 L1245.03 244.23 L1258.23 249.81 L1263.54 251.72 L1268.44 253.35 L1273.33 254.98 L1278.91 256.48 L1285.03 257.97 L1290.61 259.06 L1295.65 260.02 L1301.50 260.83 L1306.53 261.51 L1311.02 261.78 L1316.05 262.06 L1323.13 262.19 L1328.98 262.19 L1334.15 261.92 L1339.18 261.51 L1344.90 260.83 L1353.33 259.47 L1460.27 239.88 L1473.88 237.43 L1476.87 237.43 L1484.49 237.84 L1496.73 235.12 L1500.54 236.88 L1502.18 242.46 L1504.63 249.27 L1478.78 345.46 L1484.49 367.10 L1498.10 419.07 L1500.14 424.51 L1501.50 432.54 L1502.72 438.80 L1504.49 436.35 L1508.30 434.45 L1559.18 444.11 L1625.85 457.17 L1635.24 459.07 L1646.94 460.44 L1650.48 463.56 L1652.24 464.52 L1657.69 466.83 L1680.27 476.63 L1691.02 482.21 L1737.14 493.77 L1746.94 495.68 L1808.71 507.79 L1826.80 510.91 L1842.59 514.45 L1833.88 552.96 L1823.67 598.54 L1837.01 612.96 L1858.91 614.59 L1863.81 615.00 L1887.07 611.87 L1912.24 598.81 L1918.23 592.69 L1927.35 589.69 L1946.12 594.73 L1952.65 596.23 L1957.28 576.22 L1960.95 559.90 L1964.35 545.07 L1973.06 546.84 L1980.14 548.47 L2014.15 556.36 L2048.03 563.71 L2053.20 564.80 L2057.82 544.52 L2059.05 539.22 L2061.09 529.96 L2062.31 524.25 L2071.43 526.29 L2079.46 528.19 L2085.31 529.42 L2090.88 530.78 L2109.66 534.86 L2115.78 536.36 L2150.34 546.56 L2148.03 563.03 L2145.71 575.95 L2135.65 622.49 L2123.81 681.67 L2117.14 714.60 L2096.19 812.97 L2074.97 906.86 L2061.50 966.72 L2044.08 1035.57 L2035.65 1072.17 L2001.77 1214.90 L1985.17 1283.21 L2038.10 1294.23 L2086.53 1304.02 L2151.56 1322.26 L2181.63 1329.87 L2198.10 1334.23 L2199.59 1327.29 L2216.19 1250.14 L2229.12 1239.26 L2231.84 1236.94 L2244.08 1220.21 L2246.26 1218.17 L2254.69 1211.50 L2266.12 1199.12 L2271.43 1193.68 L2288.44 1175.85 L2292.38 1171.77 L2294.56 1175.72 L2296.46 1178.85 L2299.05 1181.70 L2303.13 1186.19 L2304.63 1187.83 L2311.16 1195.04 L2331.70 1215.85 L2336.33 1291.91 L2322.04 1348.92 L2323.13 1350.56 L2324.08 1354.09 L2324.76 1361.31 L2324.49 1366.48 L2326.26 1375.73 L2326.53 1382.53 L2324.22 1391.92 L2323.67 1392.74 L2318.64 1400.36 L2333.61 1401.85 L2357.96 1404.16 L2337.69 1567.71 L2351.29 1569.07 L2511.29 1599.01 L2505.99 1619.82 L2477.69 1741.06 L2466.53 1789.49 L2465.71 1792.62 L2427.76 1957.94 L2422.86 1979.57 L2441.09 1983.11 L2451.29 1985.02 L2484.76 1990.32 L2488.57 1991.82 L2663.54 2014.81 L2682.99 2018.62 L2728.71 2026.38 L2782.04 2038.76 L2810.07 2045.02 L2803.95 2076.59 L2794.69 2125.98 L2790.20 2150.88 L2778.50 2151.83 L2756.05 2154.01 L2745.85 2155.09 L2730.34 2157.54 L2717.82 2159.72 L2704.35 2162.31 L2630.61 2177.00 L2617.28 2178.77 L2614.56 2179.04 L2605.31 2179.86 L2598.78 2179.86 L2591.29 2179.45 L2591.29 2179.45 Z" stroke-linejoin="round"/>
	</defs>
	<use xlink:href="#path_AOKglKfC" style="fill:#6BACAF;stroke:#097D9B;stroke-width:5.76"/>
	<defs>
		<path id="path_YaCztbTg" d="M1520.68 2210.61 L1520.68 2210.61 L1515.24 2211.97 L1509.12 2213.19 L1504.08 2214.01 L1496.46 2214.42 L1491.02 2214.42 L1485.03 2214.01 L1478.64 2213.46 L1473.06 2212.51 L1466.39 2210.88 L1458.50 2208.84 L1450.61 2206.80 L1440.95 2204.35 L1418.10 2198.36 L1400.82 2194.14 L1392.38 2191.97 L1377.28 2187.89 L1367.76 2184.62 L1361.22 2181.63 L1354.29 2178.63 L1351.97 2177.41 L1344.08 2173.46 L1342.59 2172.51 L1338.78 2170.20 L1335.37 2167.75 L1332.38 2165.43 L1331.29 2164.62 L1328.44 2162.03 L1325.99 2160.13 L1322.72 2157.41 L1318.50 2153.46 L1313.06 2147.61 L1309.52 2143.53 L1305.44 2138.77 L1302.45 2134.55 L1300.14 2131.15 L1295.65 2124.34 L1288.84 2114.28 L1285.58 2108.97 L1280.41 2101.21 L1276.87 2096.18 L1273.06 2091.14 L1270.75 2088.02 L1267.21 2083.93 L1264.35 2080.53 L1261.63 2077.67 L1258.78 2074.68 L1255.10 2071.28 L1253.20 2069.37 L1251.29 2067.47 L1249.66 2065.84 L1247.48 2064.20 L1244.63 2062.03 L1241.36 2059.58 L1237.69 2056.99 L1232.38 2053.73 L1227.89 2051.01 L1222.04 2047.74 L1216.87 2045.02 L1211.16 2042.57 L1201.36 2037.94 L1189.39 2032.23 L1176.19 2026.24 L1165.58 2021.34 L1158.23 2017.81 L1147.89 2013.04 L1138.37 2008.69 L1131.16 2005.15 L1125.85 2002.70 L1119.46 1999.71 L1114.29 1997.40 L1108.30 1994.81 L1102.99 1992.64 L1098.78 1990.87 L1093.61 1988.69 L1091.97 1988.15 L1089.93 1987.46 L1086.39 1986.24 L1081.36 1984.61 L1076.46 1983.11 L1071.02 1981.61 L1065.85 1980.39 L1060.14 1979.30 L1054.83 1978.35 L1050.20 1977.67 L1044.76 1977.12 L1039.05 1976.85 L1033.06 1976.58 L1027.62 1976.58 L1022.45 1976.85 L1016.73 1977.26 L1011.29 1977.80 L1005.31 1978.76 L997.41 1979.98 L991.84 1980.93 L983.27 1982.29 L942.86 1989.51 L935.10 1990.87 L927.35 1992.09 L919.86 1993.45 L912.52 1994.81 L906.67 1995.90 L898.10 1997.40 L891.84 1998.49 L885.85 1999.30 L880.68 1999.98 L875.24 2000.39 L869.93 2000.80 L864.49 2000.80 L860.27 2000.80 L855.65 2000.53 L850.75 2000.12 L846.26 1999.57 L842.04 1999.17 L837.41 1998.35 L832.24 1997.13 L822.72 1994.81 L802.99 1990.05 L800.27 1989.23 L792.11 1987.33 L781.63 1984.47 L777.14 1983.25 L755.51 1977.94 L751.29 1976.72 L747.76 1975.76 L740.00 1973.99 L736.05 1973.04 L723.81 1970.46 L718.23 1969.50 L712.79 1968.55 L702.99 1965.97 L696.60 1964.20 L686.39 1961.07 L671.97 1957.26 L664.35 1955.35 L657.82 1953.59 L648.84 1951.41 L638.64 1948.82 L629.80 1946.65 L617.14 1943.24 L607.76 1941.07 L606.12 1940.66 L601.63 1939.57 L599.18 1939.03 L588.84 1936.31 L577.14 1933.31 L571.70 1931.82 L562.99 1928.96 L560.14 1928.28 L554.42 1926.51 L552.24 1925.83 L550.88 1923.65 L555.10 1922.84 L544.49 1919.43 L540.95 1919.57 L541.22 1917.12 L537.28 1919.16 L534.83 1917.39 L534.29 1917.12 L531.84 1917.26 L528.30 1915.35 L525.44 1913.72 L521.90 1911.27 L518.37 1908.55 L515.24 1906.10 L512.24 1903.92 L509.52 1901.47 L506.39 1898.62 L503.40 1895.62 L500.41 1892.63 L497.14 1888.68 L492.11 1882.42 L486.67 1875.35 L478.64 1864.46 L474.15 1858.21 L466.12 1847.46 L460.14 1839.43 L454.15 1831.40 L447.21 1822.15 L442.99 1816.16 L440.68 1812.76 L438.78 1809.36 L437.28 1806.50 L435.78 1803.24 L432.79 1795.89 L431.43 1792.35 L429.66 1786.91 L414.15 1784.32 L402.99 1785.55 L373.47 1713.57 L367.89 1701.60 L326.39 1587.71 L314.83 1443.35 L306.67 1338.17 L300.41 1289.60 L296.33 1269.33 L289.12 1242.93 L254.01 1155.03 L245.17 1138.16 L261.90 1127.55 L266.53 1125.65 L269.52 1124.83 L271.84 1109.32 L264.35 1111.63 L262.86 1112.17 L239.05 1120.75 L156.87 839.91 L135.10 766.71 L122.04 729.70 L120.14 724.12 L107.35 687.80 L80.95 612.96 L56.60 541.26 L36.19 481.12 L31.97 465.88 L30.61 461.25 L28.16 452.14 L35.51 447.24 L44.08 453.22 L50.34 457.58 L54.42 460.30 L56.73 460.30 L59.86 460.16 L68.84 456.35 L70.20 455.67 L75.92 452.95 L80.27 446.28 L82.99 441.52 L84.90 433.50 L86.12 427.78 L88.16 421.52 L88.84 419.07 L92.11 414.58 L98.23 411.45 L94.29 402.74 L93.47 401.25 L91.97 397.71 L89.12 391.86 L86.39 385.47 L84.49 381.11 L78.50 366.01 L67.48 335.12 L71.97 335.53 L73.20 335.39 L74.29 335.39 L75.10 335.39 L81.09 337.03 L93.06 345.60 L107.35 349.95 L111.56 351.18 L114.01 361.65 L114.97 365.87 L112.65 371.86 L114.97 377.85 L115.10 383.42 L121.90 383.42 L120.68 363.15 L120.41 358.12 L119.59 353.90 L118.91 346.82 L122.31 347.64 L126.39 348.05 L134.69 349.27 L159.32 355.40 L218.23 351.04 L240.41 253.48 L244.22 236.34 L257.41 186.54 L292.65 201.78 L293.20 201.78 L296.46 206.27 L298.10 206.27 L300.27 206.13 L302.45 211.71 L306.53 215.39 L308.44 217.16 L310.07 218.65 L312.52 221.24 L315.10 223.96 L318.91 224.09 L321.90 226.00 L322.04 229.40 L322.18 229.95 L326.53 228.86 L334.01 225.86 L340.54 250.22 L341.09 240.15 L344.63 227.22 L340.27 213.89 L339.86 212.53 L338.64 208.72 L334.56 195.66 L333.06 190.76 L331.16 184.64 L329.80 179.47 L328.16 174.16 L325.99 166.81 L323.67 158.92 L319.18 143.82 L314.42 127.63 L314.01 126.54 L313.74 125.45 L313.33 124.36 L312.93 123.27 L314.15 122.59 L314.97 122.32 L316.05 121.78 L319.59 120.01 L320.54 119.60 L321.22 119.33 L331.29 114.56 L409.12 76.88 L412.38 75.38 L416.60 73.07 L421.50 70.62 L426.26 68.44 L431.70 65.72 L435.92 63.81 L440.82 61.77 L447.62 59.32 L451.70 57.83 L455.92 56.47 L459.73 55.38 L463.54 54.29 L467.48 53.20 L470.88 52.38 L474.83 51.57 L479.59 50.62 L483.81 49.80 L488.57 48.98 L492.65 48.17 L495.78 47.62 L499.18 47.21 L502.99 46.94 L507.21 46.53 L513.61 46.26 L518.78 46.13 L524.76 46.13 L531.97 46.26 L536.46 46.67 L549.25 45.17 L550.48 45.17 L552.52 45.31 L554.42 45.31 L555.37 45.44 L568.16 46.40 L570.75 46.67 L572.52 46.81 L573.06 46.81 L575.24 46.67 L580.27 46.40 L592.65 45.04 L596.60 44.63 L599.05 44.22 L600.95 43.81 L603.54 43.13 L605.44 43.00 L609.93 43.13 L612.65 44.08 L614.15 44.90 L616.05 46.26 L620.14 48.85 L624.63 51.70 L631.16 55.65 L634.01 57.42 L635.92 58.51 L638.37 59.73 L641.09 60.82 L643.27 61.77 L645.44 62.59 L648.03 63.54 L657.55 66.94 L659.59 67.76 L662.72 68.98 L664.76 69.80 L667.62 70.75 L671.02 71.98 L673.88 72.93 L678.50 74.43 L688.57 78.51 L695.92 80.28 L720.41 85.58 L731.02 88.03 L753.74 93.20 L799.59 103.27 L820.14 107.76 L834.83 110.75 L840.00 111.71 L842.31 112.12 L844.63 112.39 L846.80 112.66 L848.98 112.93 L851.56 113.07 L853.33 113.20 L855.78 113.48 L858.78 113.61 L861.77 113.88 L864.35 114.02 L866.94 114.02 L869.93 114.02 L873.33 114.02 L876.19 114.02 L879.46 113.88 L884.63 113.61 L891.02 113.07 L898.64 112.52 L903.13 112.12 L902.45 117.15 L901.36 122.73 L901.09 125.04 L900.41 129.26 L899.46 134.02 L898.78 137.83 L897.69 143.14 L897.14 146.00 L896.33 150.21 L895.51 154.98 L894.42 161.10 L893.06 170.08 L890.20 185.86 L887.35 202.32 L885.03 215.80 L884.08 222.73 L883.40 228.04 L882.86 233.21 L882.45 237.84 L881.90 245.59 L881.63 251.85 L881.63 258.93 L881.90 265.19 L882.59 273.62 L883.40 280.83 L884.49 290.09 L885.99 298.66 L887.48 306.55 L888.84 311.99 L891.70 322.33 L894.29 329.68 L896.73 336.21 L899.73 343.56 L902.72 350.77 L905.03 356.35 L909.39 366.55 L912.93 374.58 L915.65 380.16 L918.23 386.69 L920.68 393.08 L922.86 399.62 L925.17 406.96 L927.07 414.04 L928.44 418.94 L930.20 425.74 L931.43 431.45 L932.65 439.07 L933.61 445.74 L934.42 452.14 L935.24 460.16 L935.92 467.65 L936.19 475.54 L936.46 486.83 L936.60 496.08 L936.60 505.88 L936.60 515.95 L936.60 526.15 L936.73 536.36 L936.87 545.88 L937.01 559.63 L937.14 566.70 L937.28 572.55 L937.55 579.49 L938.10 595.14 L939.46 622.35 L940.82 648.20 L941.50 658.54 L941.90 666.03 L942.86 681.40 L943.27 693.51 L943.81 706.44 L944.08 707.12 L946.67 710.79 L946.80 716.91 L946.94 723.58 L946.94 730.38 L946.80 737.73 L946.53 745.49 L946.12 752.97 L945.85 759.91 L945.44 767.12 L945.03 773.38 L944.76 780.73 L944.76 788.07 L944.90 794.88 L945.31 801.14 L945.85 806.58 L946.53 811.88 L947.76 819.23 L948.84 825.08 L949.93 831.48 L951.84 842.09 L953.88 853.11 L956.46 866.72 L958.10 875.29 L960.00 884.81 L961.50 893.39 L962.99 900.87 L964.76 908.08 L966.80 915.56 L968.84 922.10 L971.56 929.99 L974.83 937.88 L977.82 944.55 L980.41 950.12 L983.13 955.02 L986.53 961.01 L989.66 966.18 L993.20 971.49 L997.41 976.79 L1002.18 982.64 L1005.99 987.41 L1009.93 992.03 L1015.24 997.61 L1021.77 1003.60 L1025.99 1007.54 L1032.65 1014.07 L1045.17 1026.59 L1050.07 1032.17 L1056.33 1039.52 L1060.41 1044.96 L1066.67 1053.67 L1071.97 1061.70 L1077.55 1070.00 L1081.22 1075.57 L1086.26 1082.65 L1090.34 1088.23 L1093.61 1092.45 L1097.01 1096.66 L1100.82 1101.02 L1105.17 1105.37 L1109.52 1109.45 L1113.33 1112.72 L1118.64 1116.66 L1122.86 1119.66 L1128.71 1122.92 L1134.29 1125.78 L1139.18 1127.96 L1143.95 1129.86 L1148.98 1131.63 L1154.01 1133.13 L1159.46 1134.49 L1165.31 1135.71 L1171.70 1136.94 L1179.86 1138.30 L1188.57 1139.80 L1197.96 1141.43 L1208.57 1143.33 L1218.10 1144.83 L1227.48 1146.73 L1233.33 1148.10 L1239.59 1150.00 L1245.99 1152.04 L1250.48 1153.67 L1254.42 1155.17 L1258.64 1157.08 L1263.95 1159.93 L1268.30 1162.25 L1270.07 1165.24 L1271.16 1166.06 L1272.93 1166.87 L1277.01 1169.59 L1281.63 1172.86 L1286.39 1176.67 L1290.75 1180.61 L1295.78 1185.51 L1300.95 1190.82 L1308.84 1198.71 L1314.97 1204.83 L1320.68 1210.68 L1327.76 1217.22 L1334.97 1224.15 L1342.04 1230.41 L1357.55 1243.48 L1360.54 1245.79 L1361.77 1244.02 L1363.13 1242.11 L1365.71 1244.16 L1368.03 1246.20 L1370.75 1248.65 L1374.42 1250.96 L1380.68 1255.99 L1394.97 1266.47 L1412.93 1280.21 L1423.54 1288.38 L1434.01 1296.54 L1444.35 1304.70 L1451.84 1310.55 L1460.00 1316.68 L1469.39 1324.02 L1481.77 1333.82 L1489.80 1340.35 L1497.01 1346.34 L1507.76 1355.45 L1517.55 1363.75 L1525.03 1370.42 L1533.06 1378.04 L1539.18 1383.35 L1545.31 1388.65 L1550.34 1393.28 L1556.46 1398.99 L1561.77 1404.16 L1565.99 1408.79 L1569.80 1412.87 L1573.61 1417.23 L1579.73 1425.12 L1588.98 1437.36 L1600.14 1452.06 L1614.29 1469.88 L1621.50 1479.54 L1628.03 1487.84 L1631.43 1492.33 L1634.42 1496.42 L1637.01 1499.68 L1639.73 1502.67 L1642.31 1505.67 L1647.48 1511.25 L1648.98 1512.61 L1650.34 1513.83 L1654.15 1516.96 L1659.32 1521.31 L1662.31 1523.49 L1665.31 1525.67 L1669.12 1528.25 L1669.52 1528.53 L1673.47 1531.11 L1677.69 1533.56 L1681.22 1535.33 L1684.35 1537.10 L1687.62 1538.87 L1705.17 1548.39 L1711.29 1552.06 L1718.10 1556.01 L1725.03 1559.82 L1728.98 1562.00 L1734.97 1565.54 L1738.50 1567.58 L1742.18 1569.48 L1745.31 1571.52 L1748.44 1573.56 L1752.11 1576.15 L1754.97 1578.32 L1757.14 1579.96 L1759.73 1581.86 L1764.08 1585.54 L1765.99 1587.31 L1768.57 1590.03 L1771.43 1593.02 L1774.15 1596.42 L1776.87 1600.09 L1781.36 1605.81 L1783.95 1609.35 L1785.71 1611.93 L1787.48 1614.25 L1788.98 1616.56 L1790.48 1618.87 L1791.84 1621.32 L1793.47 1624.04 L1796.46 1629.08 L1798.50 1633.43 L1800.54 1637.92 L1801.36 1639.69 L1802.72 1643.09 L1804.22 1647.44 L1805.31 1650.44 L1806.39 1654.66 L1807.48 1658.19 L1808.03 1660.78 L1809.25 1665.54 L1811.16 1674.25 L1811.84 1679.56 L1812.52 1683.91 L1813.74 1692.75 L1813.88 1693.57 L1814.97 1701.33 L1815.65 1706.09 L1816.46 1711.67 L1817.14 1715.75 L1818.23 1719.97 L1819.18 1724.32 L1820.00 1727.59 L1821.50 1733.16 L1823.13 1737.79 L1824.90 1742.42 L1827.89 1749.36 L1833.20 1761.19 L1837.69 1771.53 L1841.22 1779.83 L1845.03 1788.41 L1849.12 1798.47 L1854.56 1810.99 L1859.05 1821.74 L1864.76 1834.80 L1868.84 1844.19 L1875.92 1860.65 L1907.62 1934.94 L1910.07 1940.93 L1916.46 1953.59 L1918.37 1957.67 L1921.36 1964.33 L1924.63 1971.41 L1926.53 1975.76 L1929.12 1982.29 L1932.24 1991.82 L1934.15 1998.21 L1935.92 2005.02 L1933.47 2005.02 L1930.34 2005.15 L1920.95 2005.70 L1918.78 2005.83 L1911.84 2006.38 L1905.85 2006.92 L1900.00 2007.60 L1894.42 2008.69 L1886.94 2010.32 L1879.46 2012.09 L1864.35 2016.17 L1854.42 2018.62 L1843.40 2021.48 L1835.78 2023.52 L1829.93 2025.29 L1825.03 2026.92 L1819.32 2029.10 L1813.20 2031.69 L1806.12 2034.68 L1798.10 2038.76 L1789.12 2042.84 L1780.00 2047.33 L1769.52 2052.50 L1760.41 2057.13 L1747.21 2063.80 L1737.69 2068.56 L1732.24 2071.42 L1703.81 2086.11 L1694.42 2090.74 L1687.89 2094.14 L1682.72 2096.86 L1677.28 2099.72 L1672.93 2102.44 L1663.67 2108.97 L1644.22 2124.07 L1615.37 2147.20 L1604.76 2155.23 L1591.56 2165.84 L1579.59 2174.96 L1574.29 2179.04 L1569.25 2183.12 L1563.40 2188.02 L1557.14 2192.78 L1552.11 2196.46 L1543.67 2201.36 L1538.10 2204.08 L1534.01 2205.85 L1527.21 2208.57 L1520.68 2210.61 L1520.68 2210.61 Z" stroke-linejoin="round"/>
	</defs>
	<use xlink:href="#path_YaCztbTg" style="fill:#09757A;stroke:#00465F;stroke-width:5.76"/>
</svg>
