<?xml version="1.0" encoding="UTF-8" standalone="no"?>
<!-- This is a Stata 16.1 generated SVG file (http://www.stata.com) -->

<svg version="1.1" width="6.45in" height="4.00in" viewBox="0 0 4642 2880" xmlns="http://www.w3.org/2000/svg" xmlns:xlink="http://www.w3.org/1999/xlink">
	<desc>Stata Graph - Graph</desc>
	<rect x="0" y="0" width="4642" height="2880" style="fill:#FFFFFF;stroke:none"/>
	<defs>
		<path id="path_Ihgcjnkj" d="M1537.95 2707.38 L1537.95 2707.38 L1535.20 2711.59 L1518.95 2737.12 L1508.07 2753.36 L1507.63 2726.82 L1506.62 2718.69 L1505.60 2713.76 L1504.44 2710.28 L1503.43 2708.11 L1501.98 2706.22 L1498.79 2703.75 L1496.03 2701.43 L1492.84 2697.37 L1488.05 2689.54 L1483.41 2682.86 L1477.32 2673.29 L1475.58 2670.24 L1473.25 2665.02 L1469.77 2655.30 L1467.16 2650.08 L1464.55 2645.58 L1463.39 2642.83 L1461.94 2640.07 L1460.34 2637.75 L1456.86 2633.40 L1455.41 2631.80 L1454.40 2630.79 L1451.35 2629.19 L1448.59 2628.47 L1446.56 2627.60 L1440.76 2626.15 L1437.28 2625.42 L1434.96 2624.84 L1432.93 2624.12 L1431.19 2623.25 L1425.38 2620.05 L1415.37 2614.83 L1414.21 2614.25 L1412.18 2612.66 L1410.44 2610.77 L1408.70 2609.47 L1406.53 2608.30 L1398.84 2606.71 L1397.10 2606.71 L1394.34 2607.00 L1379.98 2610.34 L1375.05 2611.35 L1367.50 2611.50 L1361.41 2612.51 L1358.08 2612.66 L1354.01 2612.51 L1345.60 2610.63 L1342.55 2610.34 L1338.78 2610.34 L1321.37 2612.22 L1317.89 2612.80 L1314.56 2612.80 L1312.96 2612.51 L1310.78 2611.35 L1308.75 2610.34 L1303.24 2608.16 L1296.28 2605.98 L1290.91 2603.37 L1283.37 2600.76 L1274.23 2598.73 L1266.98 2598.01 L1263.35 2598.01 L1256.68 2598.73 L1239.85 2601.34 L1233.61 2603.08 L1227.23 2604.39 L1223.02 2605.11 L1219.83 2604.24 L1217.22 2602.94 L1213.30 2601.05 L1206.63 2599.89 L1203.00 2599.75 L1200.25 2599.17 L1197.35 2598.30 L1194.44 2596.99 L1191.69 2595.68 L1186.90 2594.38 L1184.00 2593.80 L1175.01 2592.49 L1172.83 2592.78 L1165.00 2596.70 L1161.37 2598.88 L1158.76 2599.60 L1157.16 2599.89 L1155.28 2599.60 L1145.41 2597.57 L1134.10 2595.83 L1126.56 2596.12 L1121.91 2595.83 L1116.69 2594.23 L1113.79 2592.78 L1109.87 2589.74 L1105.52 2585.82 L1100.30 2579.58 L1096.82 2575.09 L1088.40 2567.69 L1087.53 2566.96 L1084.63 2565.80 L1083.04 2564.64 L1081.59 2563.77 L1079.99 2563.05 L1074.19 2561.89 L1066.64 2560.87 L1063.74 2560.73 L1057.65 2556.08 L1048.37 2552.75 L1045.61 2550.28 L1029.07 2552.02 L1006.44 2553.76 L992.95 2551.30 L979.32 2539.98 L968.73 2523.45 L958.72 2509.23 L954.22 2504.88 L951.32 2506.33 L943.05 2511.55 L938.55 2512.71 L935.80 2512.57 L938.12 2509.37 L942.04 2503.28 L943.20 2500.09 L947.98 2490.37 L954.08 2480.36 L963.07 2462.09 L970.76 2451.93 L973.51 2445.26 L974.53 2444.24 L977.58 2442.36 L980.91 2440.47 L982.07 2438.59 L983.09 2436.55 L992.52 2420.60 L994.11 2419.00 L995.42 2418.86 L996.72 2419.44 L1000.06 2426.40 L1002.09 2429.16 L1003.40 2430.46 L1004.56 2430.75 L1005.43 2429.88 L1006.88 2428.00 L1013.99 2421.32 L1017.61 2416.83 L1019.64 2412.33 L1021.68 2407.98 L1023.56 2405.51 L1032.70 2400.87 L1040.97 2398.11 L1042.56 2396.52 L1048.66 2391.15 L1051.27 2389.70 L1054.89 2386.22 L1057.65 2383.90 L1059.97 2380.85 L1062.29 2378.82 L1068.68 2374.03 L1071.87 2370.55 L1072.16 2369.25 L1072.30 2364.03 L1072.01 2362.43 L1071.29 2360.25 L1069.55 2358.37 L1066.06 2356.19 L1064.61 2354.31 L1063.45 2353.73 L1062.73 2353.15 L1059.97 2347.92 L1059.54 2346.04 L1058.23 2344.01 L1056.06 2342.27 L1053.88 2340.09 L1049.67 2329.50 L1048.37 2327.33 L1042.13 2320.65 L1038.21 2314.71 L1036.62 2310.93 L1036.18 2309.48 L1035.60 2307.02 L1035.31 2303.39 L1035.60 2301.21 L1037.20 2297.44 L1038.50 2292.80 L1038.07 2288.88 L1037.05 2284.68 L1035.89 2281.92 L1032.85 2277.72 L1025.74 2269.74 L1024.58 2267.85 L1017.90 2263.35 L1015.00 2260.45 L1014.28 2258.57 L1014.28 2256.97 L1013.26 2255.23 L1010.94 2252.33 L1009.63 2248.27 L1006.44 2240.87 L1004.85 2237.68 L999.48 2232.31 L998.76 2230.28 L996.58 2223.90 L995.71 2219.40 L995.56 2216.07 L995.71 2208.52 L994.26 2200.25 L993.39 2194.02 L994.11 2188.07 L995.85 2181.69 L996.72 2176.75 L997.01 2166.31 L997.59 2163.12 L998.61 2161.23 L1001.66 2159.35 L1004.99 2156.74 L1008.62 2152.09 L1011.96 2148.90 L1016.60 2146.15 L1020.22 2143.54 L1037.78 2124.97 L1039.23 2122.79 L1040.10 2120.47 L1043.00 2109.16 L1042.85 2104.95 L1042.13 2100.74 L1042.42 2097.41 L1044.01 2093.93 L1048.95 2084.50 L1049.24 2083.34 L1048.80 2081.89 L1047.64 2079.85 L1046.19 2074.20 L1045.61 2070.14 L1047.35 2065.06 L1049.53 2060.85 L1052.14 2058.39 L1055.33 2054.03 L1056.06 2051.86 L1056.06 2050.26 L1055.18 2047.51 L1053.88 2044.90 L1051.99 2043.01 L1047.93 2040.25 L1045.32 2039.24 L1035.17 2037.79 L1029.80 2036.34 L1013.99 2030.10 L1008.91 2025.46 L1007.31 2022.99 L1005.28 2017.91 L1004.70 2003.12 L1005.72 1995.29 L1005.57 1994.27 L1004.85 1993.11 L1002.53 1991.37 L1000.79 1990.79 L999.34 1989.48 L995.85 1985.42 L991.50 1978.60 L989.18 1975.41 L987.30 1973.82 L984.25 1968.88 L984.83 1964.68 L984.68 1963.37 L982.51 1961.20 L982.22 1960.18 L982.36 1958.44 L983.23 1957.43 L983.38 1956.12 L982.36 1953.94 L979.46 1951.19 L971.77 1946.98 L984.68 1922.47 L978.74 1911.44 L978.74 1909.27 L1027.48 1743.61 L1027.77 1742.59 L1036.18 1742.01 L1038.36 1741.87 L1051.56 1741.43 L1055.62 1741.14 L1062.00 1740.56 L1075.78 1739.84 L1082.02 1739.40 L1091.45 1738.97 L1094.79 1738.82 L1097.54 1738.82 L1102.77 1739.11 L1107.26 1739.69 L1111.61 1740.27 L1131.92 1743.75 L1134.10 1743.90 L1141.64 1744.19 L1144.83 1744.04 L1149.91 1743.32 L1172.54 1740.56 L1178.20 1739.98 L1180.81 1739.84 L1182.98 1739.98 L1186.03 1740.13 L1188.06 1740.42 L1189.95 1741.00 L1194.15 1742.16 L1200.39 1744.04 L1202.71 1744.62 L1204.45 1744.62 L1206.34 1744.62 L1208.81 1744.48 L1210.98 1744.19 L1213.59 1743.46 L1214.90 1742.88 L1215.33 1744.04 L1216.78 1746.94 L1218.96 1750.14 L1223.89 1754.63 L1226.07 1755.50 L1228.24 1755.94 L1229.98 1755.94 L1231.44 1755.50 L1233.47 1754.49 L1235.64 1753.04 L1237.09 1751.44 L1239.41 1747.23 L1240.72 1743.32 L1242.03 1741.00 L1244.06 1738.53 L1246.52 1736.79 L1248.70 1736.07 L1251.45 1735.92 L1258.13 1736.94 L1260.16 1736.50 L1262.04 1735.78 L1264.36 1734.47 L1265.53 1733.45 L1266.54 1731.86 L1267.12 1730.12 L1267.70 1727.22 L1267.85 1724.90 L1267.70 1722.72 L1266.54 1718.66 L1265.53 1715.76 L1265.53 1714.45 L1265.67 1712.86 L1266.25 1710.39 L1266.25 1708.21 L1265.67 1705.46 L1264.22 1702.27 L1262.33 1700.24 L1260.74 1699.22 L1259.00 1698.79 L1257.26 1699.08 L1253.05 1700.53 L1249.42 1701.40 L1246.52 1701.25 L1245.07 1700.96 L1243.91 1700.09 L1241.73 1697.33 L1240.57 1694.00 L1240.14 1692.26 L1240.14 1688.92 L1239.70 1684.57 L1239.27 1682.25 L1237.24 1678.04 L1235.93 1675.72 L1234.48 1674.42 L1228.53 1671.80 L1227.23 1670.93 L1225.92 1669.34 L1223.89 1664.70 L1223.46 1663.39 L1223.60 1662.81 L1223.89 1661.21 L1274.52 1673.83 L1345.74 1690.23 L1349.08 1691.10 L1356.19 1692.84 L1402.46 1703.72 L1405.66 1704.44 L1446.13 1714.16 L1491.97 1724.75 L1498.35 1726.06 L1506.62 1728.23 L1515.61 1730.99 L1517.06 1731.28 L1518.80 1731.28 L1519.67 1731.28 L1545.93 1737.52 L1583.65 1746.22 L1622.52 1755.50 L1628.62 1756.95 L1634.27 1758.11 L1639.35 1759.56 L1709.27 1776.10 L1721.89 1779.15 L1722.33 1779.15 L1725.52 1780.02 L1729.58 1781.03 L1733.79 1781.90 L1744.52 1784.66 L1747.86 1785.39 L1751.48 1786.11 L1765.12 1789.16 L1771.36 1790.75 L1796.89 1796.99 L1924.98 1828.18 L1930.06 1829.48 L1947.46 1833.98 L1965.16 1838.33 L1967.48 1838.62 L1970.53 1839.35 L2018.25 1851.24 L2026.38 1853.13 L2029.13 1853.71 L2052.34 1859.51 L2054.96 1860.09 L2088.46 1868.36 L2133.72 1879.38 L2142.14 1881.41 L2145.18 1882.14 L2146.63 1882.57 L2149.68 1883.30 L2182.18 1891.13 L2183.19 1891.42 L2192.33 1894.03 L2194.07 1894.90 L2204.95 1897.95 L2224.24 1904.48 L2226.13 1905.06 L2246.58 1909.85 L2245.71 1914.34 L2244.26 1921.45 L2256.01 1923.48 L2263.27 1924.64 L2265.59 1918.98 L2266.46 1916.52 L2267.47 1916.08 L2268.63 1916.37 L2294.02 1920.73 L2333.77 1930.01 L2335.22 1930.15 L2354.94 1935.09 L2370.03 1938.71 L2378.88 1940.89 L2380.91 1941.32 L2382.94 1941.90 L2379.32 1956.41 L2377.57 1964.68 L2376.70 1968.16 L2375.83 1971.50 L2370.18 1993.54 L2369.45 1996.16 L2369.16 1997.17 L2368.87 1998.91 L2368.29 2000.94 L2367.13 2005.44 L2364.23 2016.75 L2364.08 2017.48 L2363.36 2020.38 L2362.78 2022.27 L2362.20 2022.70 L2355.96 2046.20 L2356.40 2047.51 L2355.52 2050.70 L2354.51 2054.47 L2353.93 2057.08 L2353.35 2059.40 L2350.45 2070.57 L2348.13 2079.85 L2346.24 2086.96 L2344.50 2093.78 L2344.36 2094.22 L2343.19 2099.15 L2341.31 2106.69 L2332.02 2144.12 L2349.72 2148.47 L2380.04 2156.01 L2379.90 2156.59 L2379.61 2180.09 L2379.32 2183.14 L2378.73 2185.46 L2376.85 2188.21 L2376.56 2189.08 L2375.83 2191.55 L2374.38 2197.35 L2373.66 2199.09 L2372.64 2200.25 L2370.90 2202.43 L2370.47 2203.45 L2370.03 2205.33 L2369.74 2207.07 L2356.25 2203.88 L2345.95 2201.41 L2344.79 2201.12 L2316.65 2193.87 L2294.45 2206.49 L2279.08 2217.37 L2280.53 2221.87 L2280.67 2225.93 L2278.35 2229.85 L2266.89 2235.94 L2260.80 2238.98 L2254.85 2245.66 L2248.61 2253.49 L2244.55 2266.40 L2242.52 2272.35 L2243.54 2279.46 L2246.29 2281.34 L2246.44 2282.79 L2246.15 2284.39 L2245.71 2285.69 L2244.99 2287.29 L2236.86 2300.78 L2234.54 2304.12 L2225.84 2317.17 L2220.47 2322.54 L2219.02 2324.13 L2217.57 2326.17 L2216.26 2328.20 L2212.35 2334.58 L2211.33 2336.17 L2210.17 2337.48 L2208.87 2338.35 L2207.27 2338.93 L2205.68 2339.22 L2202.92 2339.08 L2200.60 2338.64 L2198.28 2344.15 L2196.97 2348.21 L2190.15 2370.26 L2186.96 2370.12 L2185.22 2369.97 L2182.47 2369.68 L2179.71 2369.10 L2176.08 2368.23 L2169.70 2383.32 L2172.17 2383.75 L2160.27 2430.17 L2159.11 2434.81 L2158.53 2436.70 L2157.80 2438.59 L2156.93 2440.33 L2155.92 2441.92 L2154.61 2443.37 L2146.05 2450.77 L2133.29 2461.65 L2131.11 2463.39 L2128.94 2464.70 L2126.91 2465.42 L2124.88 2465.71 L2122.55 2465.86 L2122.41 2468.18 L2121.83 2469.77 L2119.51 2473.83 L2118.93 2476.45 L2116.32 2475.87 L2103.12 2468.03 L2084.26 2461.80 L2078.75 2460.34 L2077.30 2460.05 L2077.44 2459.62 L2077.00 2457.30 L2074.39 2456.57 L2070.77 2454.98 L2068.88 2454.11 L2068.74 2453.96 L2067.72 2453.38 L2066.71 2452.51 L2065.69 2451.79 L2063.22 2450.63 L2062.06 2450.19 L2060.03 2449.47 L2061.34 2444.10 L2063.80 2434.67 L2064.82 2430.46 L2068.88 2414.36 L2072.36 2401.74 L2029.71 2392.60 L2029.42 2392.89 L2024.49 2408.85 L2022.90 2414.22 L2021.59 2417.41 L2019.42 2425.53 L2018.40 2428.72 L2017.53 2430.17 L2016.08 2431.91 L2015.50 2432.78 L2013.03 2438.88 L2008.25 2435.68 L2000.41 2428.14 L1999.69 2426.84 L1999.25 2424.51 L1998.53 2419.44 L1997.95 2406.09 L1997.22 2390.72 L1996.50 2376.07 L1995.33 2361.41 L1995.04 2347.05 L1993.74 2322.68 L1993.45 2318.04 L1993.01 2303.54 L1991.42 2280.62 L1990.98 2279.02 L1990.26 2277.86 L1976.48 2260.89 L1969.51 2252.04 L1961.68 2249.57 L1950.66 2246.53 L1942.68 2243.92 L1941.23 2243.19 L1938.91 2243.19 L1937.89 2238.84 L1936.87 2239.85 L1936.29 2240.15 L1935.28 2240.44 L1933.54 2240.73 L1932.38 2240.58 L1931.65 2240.29 L1930.20 2239.56 L1929.48 2239.56 L1928.32 2239.56 L1927.74 2238.98 L1926.28 2236.95 L1925.41 2236.52 L1923.09 2235.65 L1921.64 2234.63 L1919.90 2233.47 L1915.55 2230.28 L1914.53 2230.14 L1911.78 2231.73 L1909.60 2233.47 L1908.30 2235.79 L1907.72 2236.37 L1906.85 2236.81 L1905.83 2237.82 L1904.82 2238.84 L1901.48 2239.71 L1899.88 2240.29 L1897.71 2240.73 L1894.95 2241.31 L1893.07 2242.32 L1890.74 2243.92 L1886.97 2246.24 L1883.78 2249.43 L1882.48 2250.44 L1882.04 2251.02 L1880.59 2253.64 L1879.28 2255.38 L1877.69 2257.12 L1874.93 2258.86 L1873.92 2259.87 L1872.03 2261.76 L1870.73 2263.64 L1870.29 2263.93 L1868.40 2264.66 L1866.81 2266.26 L1865.94 2266.98 L1865.65 2267.42 L1865.65 2267.56 L1865.79 2268.29 L1866.52 2269.88 L1867.10 2271.77 L1866.52 2273.22 L1856.65 2279.46 L1854.19 2280.18 L1853.61 2280.76 L1851.87 2281.34 L1850.56 2281.92 L1848.97 2283.08 L1847.81 2283.52 L1845.92 2283.95 L1843.74 2284.10 L1842.00 2284.39 L1837.94 2285.69 L1835.62 2286.85 L1834.61 2287.14 L1833.30 2287.00 L1832.14 2286.56 L1830.83 2286.71 L1829.82 2286.27 L1829.38 2286.27 L1828.80 2286.71 L1828.22 2287.29 L1826.19 2288.59 L1823.29 2290.34 L1820.68 2291.06 L1819.08 2291.50 L1818.36 2291.06 L1816.33 2289.90 L1815.31 2289.76 L1811.83 2290.48 L1808.64 2291.50 L1807.77 2292.22 L1807.19 2292.80 L1806.17 2294.25 L1805.45 2294.83 L1803.71 2295.12 L1801.53 2295.12 L1799.21 2294.40 L1795.44 2293.09 L1793.84 2290.77 L1792.39 2289.61 L1790.80 2288.74 L1790.07 2288.01 L1789.49 2287.29 L1786.73 2285.11 L1784.70 2282.94 L1780.93 2280.04 L1780.21 2279.46 L1777.60 2279.17 L1776.44 2278.73 L1775.71 2278.01 L1774.40 2276.55 L1773.97 2278.15 L1773.82 2279.31 L1773.53 2281.05 L1773.10 2282.50 L1772.52 2283.52 L1769.91 2286.71 L1769.18 2288.16 L1768.02 2291.21 L1766.72 2295.70 L1766.57 2296.57 L1759.75 2312.09 L1759.32 2314.13 L1757.29 2317.75 L1756.27 2320.22 L1752.06 2332.55 L1750.03 2348.79 L1749.31 2351.55 L1748.58 2358.08 L1748.58 2361.12 L1748.73 2364.17 L1748.73 2365.48 L1748.87 2367.51 L1749.02 2368.52 L1750.03 2369.97 L1750.32 2370.70 L1750.47 2372.58 L1750.90 2374.47 L1751.63 2376.79 L1752.06 2379.26 L1753.08 2386.51 L1754.10 2390.57 L1754.53 2393.04 L1754.97 2393.91 L1755.11 2394.92 L1755.26 2396.66 L1755.98 2398.84 L1757.00 2403.05 L1757.00 2406.38 L1757.72 2414.65 L1758.30 2417.41 L1758.74 2419.58 L1759.03 2422.77 L1759.46 2423.35 L1760.19 2423.64 L1762.07 2424.08 L1763.09 2424.51 L1763.52 2424.95 L1763.67 2425.53 L1763.67 2428.00 L1763.96 2429.16 L1764.54 2430.03 L1765.27 2430.75 L1765.70 2431.77 L1765.85 2434.52 L1766.14 2435.97 L1766.72 2436.70 L1767.01 2437.86 L1767.01 2439.17 L1766.86 2439.75 L1765.70 2441.92 L1764.98 2442.79 L1763.23 2444.53 L1762.65 2445.40 L1761.78 2447.43 L1761.49 2449.90 L1761.35 2450.48 L1760.91 2451.06 L1757.87 2453.09 L1757.43 2453.82 L1756.56 2454.83 L1754.82 2455.85 L1751.05 2457.44 L1747.86 2459.47 L1746.55 2460.78 L1742.35 2465.42 L1739.88 2467.45 L1738.28 2468.90 L1737.27 2470.50 L1736.25 2473.69 L1735.53 2475.00 L1734.66 2475.87 L1732.77 2477.46 L1732.19 2478.04 L1731.18 2479.35 L1729.87 2481.52 L1729.00 2482.54 L1728.56 2483.41 L1727.84 2485.58 L1727.26 2486.89 L1726.68 2487.91 L1726.24 2489.50 L1726.24 2490.81 L1727.69 2494.00 L1727.98 2495.16 L1727.84 2499.22 L1728.13 2502.56 L1728.56 2504.44 L1729.00 2505.46 L1729.58 2506.04 L1729.87 2507.34 L1729.87 2509.52 L1730.45 2512.13 L1732.77 2515.18 L1733.50 2516.63 L1733.50 2517.79 L1733.93 2519.24 L1734.66 2520.40 L1736.25 2522.72 L1738.57 2524.75 L1739.59 2526.06 L1740.75 2527.80 L1744.96 2535.49 L1745.10 2535.78 L1745.68 2537.08 L1760.48 2541.14 L1759.46 2548.54 L1758.88 2550.86 L1758.16 2552.75 L1756.56 2554.63 L1756.85 2555.50 L1757.14 2556.08 L1757.14 2556.08 L1757.87 2557.24 L1758.88 2559.27 L1759.61 2561.31 L1759.90 2566.38 L1760.48 2570.01 L1761.93 2572.62 L1762.22 2573.64 L1762.22 2574.65 L1762.51 2579.00 L1762.36 2580.89 L1761.93 2582.05 L1761.49 2583.21 L1760.19 2584.81 L1756.71 2588.87 L1754.68 2590.75 L1755.98 2593.65 L1761.35 2605.84 L1764.83 2611.06 L1773.53 2622.23 L1774.98 2627.02 L1769.91 2629.05 L1766.14 2630.64 L1755.55 2635.29 L1746.55 2639.35 L1743.22 2640.94 L1734.80 2644.13 L1733.93 2644.57 L1733.06 2644.86 L1723.92 2640.07 L1698.97 2621.80 L1670.10 2601.78 L1641.96 2593.80 L1593.95 2602.94 L1593.66 2604.10 L1593.08 2605.84 L1589.88 2617.30 L1588.29 2622.67 L1586.26 2629.05 L1585.10 2631.95 L1583.79 2635.14 L1582.49 2637.90 L1580.89 2641.23 L1579.73 2643.70 L1577.41 2647.76 L1573.78 2653.56 L1561.31 2672.42 L1555.36 2681.27 L1546.51 2694.47 L1537.95 2707.38 L1537.95 2707.38 Z" stroke-linejoin="round"/>
	</defs>
	<use xlink:href="#path_Ihgcjnkj" style="fill:#9DC8CA;stroke:#6BB4D2;stroke-width:5.76"/>
	<defs>
		<path id="path_ACKeMrMW" d="M2560.50 1149.74 L2560.50 1149.74 L2560.50 1149.74 L2555.71 1148.58 L2553.68 1147.85 L2545.70 1145.53 L2541.64 1144.37 L2537.87 1143.21 L2540.04 1134.51 L2532.79 1132.77 L2531.78 1132.48 L2533.66 1125.66 L2534.10 1124.06 L2535.11 1119.85 L2537.29 1111.59 L2537.58 1110.43 L2540.33 1100.42 L2542.80 1090.99 L2545.27 1081.70 L2548.31 1069.81 L2557.89 1033.25 L2559.77 1025.71 L2560.21 1024.12 L2560.50 1023.39 L2561.37 1022.23 L2562.09 1019.91 L2561.37 1019.62 L2560.50 1019.47 L2561.22 1015.41 L2561.51 1012.80 L2561.80 1009.90 L2561.95 1007.00 L2562.09 1002.36 L2562.24 998.59 L2562.24 995.10 L2562.09 990.75 L2561.51 982.92 L2559.92 971.46 L2559.48 968.56 L2558.32 960.15 L2554.26 933.74 L2552.37 920.54 L2550.78 909.81 L2550.49 908.36 L2549.47 900.96 L2548.46 894.00 L2548.02 891.24 L2547.88 889.94 L2545.70 876.16 L2542.22 851.21 L2541.35 845.55 L2541.35 844.97 L2541.06 843.81 L2539.03 829.45 L2536.85 814.65 L2536.42 811.75 L2532.79 789.27 L2531.63 780.13 L2529.89 767.65 L2527.42 749.95 L2526.12 740.82 L2525.83 739.37 L2523.94 725.44 L2523.22 721.38 L2521.04 707.02 L2519.74 698.60 L2519.45 696.14 L2519.30 695.12 L2519.16 694.54 L2518.87 692.22 L2517.99 686.42 L2517.27 681.78 L2516.54 678.88 L2515.24 673.94 L2514.37 671.48 L2512.92 667.71 L2511.32 664.37 L2512.48 661.90 L2507.26 652.91 L2509.44 652.62 L2511.76 655.67 L2515.96 656.39 L2527.13 661.61 L2525.10 658.71 L2523.94 656.83 L2522.93 654.80 L2522.35 653.06 L2521.77 650.73 L2521.48 647.83 L2521.33 646.96 L2522.06 643.48 L2523.22 638.40 L2523.65 636.52 L2524.09 634.49 L2526.55 624.19 L2527.13 623.17 L2527.57 611.71 L2527.86 605.04 L2527.28 600.40 L2526.12 596.63 L2524.38 593.58 L2520.61 589.81 L2507.84 581.69 L2505.81 579.66 L2504.36 577.48 L2501.02 570.81 L2499.57 567.91 L2497.11 564.28 L2493.04 559.20 L2485.65 548.47 L2485.07 547.02 L2484.92 546.73 L2484.63 546.00 L2484.63 544.99 L2484.78 542.52 L2484.92 540.49 L2485.21 539.04 L2485.65 537.59 L2486.37 535.56 L2489.56 528.45 L2490.29 526.42 L2491.16 523.23 L2491.88 519.31 L2492.46 517.43 L2493.19 516.12 L2493.62 515.54 L2501.17 510.03 L2502.04 509.74 L2505.52 508.72 L2506.97 508.00 L2510.31 507.56 L2512.48 506.98 L2513.35 506.84 L2514.37 507.13 L2514.95 507.71 L2515.38 508.14 L2515.38 508.87 L2514.95 511.77 L2514.95 513.94 L2515.24 514.81 L2515.67 515.68 L2516.25 516.12 L2516.83 516.26 L2519.30 515.97 L2520.61 515.39 L2522.93 513.94 L2524.52 513.65 L2525.25 513.51 L2527.57 513.80 L2530.76 515.25 L2533.37 516.55 L2534.53 517.43 L2536.71 519.31 L2537.29 519.31 L2537.58 519.02 L2539.17 516.26 L2542.08 512.78 L2544.54 510.46 L2549.18 504.81 L2551.07 502.48 L2554.55 499.00 L2556.00 496.97 L2557.31 495.23 L2559.77 493.20 L2563.54 490.15 L2565.87 488.12 L2567.03 487.25 L2568.04 486.38 L2568.62 485.51 L2570.07 485.80 L2576.02 487.25 L2576.31 487.40 L2581.24 488.70 L2585.01 489.72 L2601.70 493.93 L2612.00 496.54 L2613.74 497.12 L2620.12 498.71 L2625.20 500.02 L2632.30 501.90 L2640.14 503.79 L2646.67 505.53 L2651.74 506.84 L2656.53 488.99 L2659.29 477.82 L2672.05 427.78 L2682.64 386.73 L2686.99 369.90 L2691.49 352.20 L2692.94 345.82 L2703.67 304.19 L2739.07 313.04 L2784.62 324.64 L2824.22 334.07 L2834.67 336.97 L2836.70 337.12 L2842.50 339.29 L2845.55 339.58 L2869.48 345.82 L2883.99 349.16 L2887.76 333.93 L2898.35 293.45 L2906.76 261.25 L2908.79 253.56 L2914.02 233.11 L2916.34 224.26 L2921.27 205.55 L2923.44 196.84 L2926.06 186.69 L2927.80 180.16 L2928.52 177.55 L2931.57 165.66 L2936.21 147.52 L2943.61 149.56 L2950.14 151.15 L2957.39 153.18 L2964.50 154.92 L2974.94 157.68 L2979.00 158.84 L3004.53 165.66 L3021.65 174.07 L3022.96 174.51 L3032.39 176.68 L3042.25 179.15 L3052.99 181.76 L3058.93 183.06 L3072.57 186.55 L3093.17 191.33 L3096.07 192.35 L3105.64 194.52 L3111.30 196.12 L3115.07 196.84 L3117.39 197.28 L3140.02 203.08 L3157.72 206.56 L3222.27 223.39 L3224.45 223.54 L3233.15 225.57 L3240.55 227.16 L3243.02 228.03 L3289.44 239.93 L3301.04 219.18 L3303.36 215.12 L3318.16 188.58 L3320.77 183.93 L3323.09 180.16 L3332.52 166.96 L3338.76 153.33 L3348.33 152.60 L3399.54 148.11 L3547.79 135.63 L3695.03 123.01 L3699.82 122.72 L3806.73 113.73 L3834.73 111.41 L3847.78 110.24 L3856.20 109.52 L3876.80 107.78 L3902.91 105.46 L3925.68 103.57 L3963.25 100.53 L3964.12 100.53 L3971.52 99.80 L3972.54 99.80 L4022.15 95.45 L4050.00 86.46 L4058.12 83.55 L4087.28 73.54 L4089.89 72.53 L4093.37 71.80 L4100.19 70.35 L4104.54 69.48 L4106.43 69.19 L4153.72 55.12 L4205.80 35.54 L4209.57 33.07 L4214.36 29.59 L4224.51 28.29 L4223.78 30.46 L4223.35 32.78 L4222.91 35.54 L4222.33 41.63 L4222.04 45.26 L4221.75 48.30 L4221.46 51.21 L4221.46 53.82 L4221.46 56.14 L4221.75 57.88 L4222.48 59.47 L4223.49 60.78 L4224.51 61.50 L4225.38 62.09 L4226.54 62.52 L4227.70 62.81 L4229.44 62.67 L4231.47 62.23 L4233.07 61.80 L4233.79 61.65 L4239.60 60.05 L4240.76 59.76 L4242.21 59.76 L4243.66 60.34 L4244.53 60.92 L4245.69 62.23 L4246.27 63.10 L4246.56 63.97 L4246.85 65.71 L4246.56 67.60 L4245.98 69.63 L4244.96 71.08 L4243.66 72.09 L4241.63 73.54 L4238.00 75.72 L4236.84 76.45 L4229.73 81.09 L4227.27 82.83 L4225.53 84.42 L4223.93 86.17 L4222.62 87.76 L4222.04 88.63 L4221.17 89.94 L4220.45 91.53 L4219.58 93.27 L4216.82 98.93 L4211.60 110.39 L4209.71 114.45 L4208.70 116.92 L4207.97 118.95 L4207.68 120.69 L4207.68 122.43 L4207.97 124.17 L4208.41 125.77 L4210.73 130.84 L4211.31 132.73 L4211.60 134.18 L4211.45 135.78 L4210.87 137.95 L4210.29 138.97 L4209.28 140.27 L4208.12 141.14 L4207.10 141.87 L4203.48 143.75 L4197.53 146.94 L4195.79 147.52 L4194.05 147.82 L4192.16 147.52 L4190.13 146.65 L4188.97 145.64 L4187.81 144.04 L4187.37 142.88 L4187.37 139.55 L4187.95 137.81 L4188.53 135.78 L4189.55 134.47 L4191.58 132.58 L4192.45 131.86 L4194.92 129.39 L4195.93 128.38 L4196.80 126.20 L4197.24 124.46 L4197.38 122.57 L4197.09 120.83 L4196.51 119.67 L4195.21 117.79 L4191.87 118.80 L4190.13 119.24 L4188.68 119.82 L4187.37 120.11 L4185.92 120.40 L4184.91 120.54 L4183.89 120.69 L4183.17 120.54 L4182.59 120.11 L4182.01 120.83 L4180.70 122.57 L4179.83 123.88 L4179.25 125.04 L4178.67 126.64 L4177.36 131.28 L4175.48 137.81 L4175.04 139.40 L4174.46 140.85 L4173.45 143.03 L4172.43 144.77 L4171.27 146.51 L4169.97 148.11 L4167.94 150.14 L4168.52 153.18 L4168.52 156.23 L4168.37 158.11 L4168.08 159.27 L4167.50 159.85 L4166.92 160.44 L4165.90 161.16 L4164.89 162.18 L4164.45 163.19 L4163.58 164.06 L4162.86 164.93 L4161.84 165.80 L4161.41 166.67 L4161.12 167.69 L4160.83 168.70 L4160.25 169.43 L4159.67 170.15 L4159.23 171.02 L4159.38 171.89 L4158.94 173.06 L4157.93 174.22 L4157.06 175.23 L4156.33 175.67 L4154.30 176.25 L4152.56 176.68 L4150.53 177.26 L4149.08 178.13 L4147.05 179.44 L4145.60 180.16 L4143.57 181.61 L4142.40 182.63 L4141.39 184.37 L4140.66 186.55 L4140.08 188.29 L4139.79 189.74 L4139.65 190.90 L4139.36 192.06 L4138.63 193.80 L4137.18 196.84 L4137.47 198.44 L4137.47 199.02 L4137.91 208.59 L4138.05 210.34 L4137.91 211.79 L4137.76 212.51 L4137.76 212.80 L4137.47 213.82 L4137.18 214.98 L4136.75 215.99 L4136.17 217.30 L4134.57 219.47 L4131.67 223.68 L4128.91 226.58 L4126.59 228.47 L4123.26 230.79 L4122.82 232.53 L4120.21 236.45 L4118.90 240.22 L4121.52 246.17 L4122.39 248.78 L4119.92 253.56 L4118.90 256.61 L4119.48 261.69 L4117.89 265.31 L4114.55 269.37 L4119.05 278.08 L4120.79 280.54 L4121.81 281.41 L4123.55 282.28 L4128.33 284.03 L4132.98 286.93 L4136.31 289.25 L4137.18 290.12 L4138.20 290.99 L4143.28 297.81 L4145.89 302.16 L4148.79 305.93 L4150.82 307.67 L4154.44 310.14 L4158.65 312.31 L4159.38 313.04 L4159.96 313.76 L4160.68 314.78 L4161.26 317.10 L4161.99 321.02 L4162.71 323.05 L4163.58 323.63 L4166.19 325.37 L4167.94 326.67 L4169.24 327.83 L4170.11 328.70 L4171.27 330.15 L4172.29 331.75 L4174.03 334.65 L4175.19 336.68 L4176.49 339.00 L4177.22 341.18 L4177.51 342.63 L4178.24 346.40 L4178.67 347.71 L4179.98 349.88 L4181.28 351.33 L4182.44 352.20 L4184.47 354.09 L4184.91 354.81 L4185.34 356.26 L4188.39 363.81 L4203.04 399.78 L4205.07 404.86 L4227.70 433.58 L4234.81 442.57 L4347.81 492.33 L4358.26 491.17 L4379.87 488.85 L4446.75 512.35 L4466.18 519.31 L4467.34 519.17 L4472.28 518.30 L4474.45 518.01 L4475.90 518.15 L4478.66 518.44 L4480.26 518.44 L4481.85 518.01 L4486.20 516.41 L4487.51 516.12 L4489.25 516.26 L4491.72 516.70 L4494.62 517.43 L4507.96 496.25 L4512.17 490.01 L4518.99 479.42 L4525.37 470.14 L4530.88 479.27 L4530.74 479.85 L4525.08 495.81 L4509.99 540.92 L4485.62 534.25 L4484.03 538.89 L4481.27 548.03 L4480.84 549.05 L4471.55 546.58 L4467.63 545.86 L4463.86 546.15 L4458.79 546.58 L4453.56 549.05 L4447.76 552.09 L4442.68 555.14 L4431.80 563.70 L4449.65 611.28 L4449.36 611.86 L4449.21 612.87 L4448.78 629.41 L4448.63 633.91 L4448.20 644.35 L4447.33 658.71 L4447.18 666.69 L4440.51 681.78 L4437.75 688.74 L4435.14 693.67 L4432.82 697.44 L4429.19 701.36 L4421.36 711.37 L4421.07 711.95 L4420.92 712.82 L4421.07 714.71 L4430.35 707.74 L4435.87 703.39 L4443.41 696.86 L4446.46 693.82 L4449.50 690.48 L4452.98 686.42 L4453.42 686.85 L4456.17 684.97 L4456.03 686.42 L4459.80 690.48 L4467.93 686.71 L4468.65 686.13 L4474.74 681.92 L4480.11 675.39 L4478.80 671.19 L4475.61 665.82 L4475.03 665.39 L4469.67 664.66 L4468.80 664.66 L4472.71 657.41 L4473.15 657.41 L4473.73 657.41 L4474.89 658.13 L4476.48 657.99 L4479.97 657.70 L4483.74 657.41 L4489.68 656.68 L4489.97 661.03 L4490.12 666.40 L4489.83 668.00 L4489.10 670.46 L4487.07 675.97 L4482.00 687.72 L4481.42 688.74 L4480.55 690.05 L4479.97 690.34 L4479.24 690.77 L4474.31 692.37 L4472.86 692.95 L4469.38 695.12 L4467.63 696.86 L4466.76 698.02 L4463.28 703.54 L4456.76 713.54 L4441.67 740.38 L4438.91 744.44 L4433.26 751.84 L4428.76 756.48 L4359.13 767.51 L4356.66 759.53 L4356.37 758.80 L4351.73 760.98 L4341.14 766.06 L4335.34 768.96 L4332.44 770.26 L4326.78 773.16 L4301.54 786.65 L4297.77 788.69 L4294.87 790.57 L4286.74 794.49 L4281.08 797.10 L4277.31 798.40 L4273.98 799.27 L4270.06 800.87 L4270.35 801.16 L4270.35 801.60 L4270.06 802.61 L4269.48 803.19 L4268.17 804.35 L4264.69 806.24 L4258.60 808.70 L4250.04 811.17 L4246.70 811.75 L4243.37 812.04 L4241.19 812.18 L4238.87 812.33 L4238.00 812.48 L4236.41 813.06 L4233.07 815.67 L4229.30 818.86 L4224.95 822.19 L4230.75 820.31 L4235.24 818.71 L4232.92 820.31 L4231.91 821.32 L4230.31 822.34 L4228.14 823.93 L4226.54 824.66 L4225.38 825.68 L4222.33 827.27 L4221.46 827.85 L4220.88 828.87 L4219.00 833.22 L4214.50 844.39 L4208.70 858.60 L4206.96 861.07 L4205.80 863.10 L4204.78 864.70 L4204.06 865.42 L4202.61 866.44 L4201.16 866.87 L4200.43 867.02 L4199.56 867.16 L4199.27 867.45 L4198.98 868.76 L4199.27 870.64 L4199.12 871.80 L4199.27 873.69 L4198.83 880.80 L4198.54 882.54 L4197.53 885.73 L4196.95 886.75 L4196.37 887.47 L4195.06 887.76 L4194.77 888.05 L4194.48 888.34 L4194.05 890.23 L4193.18 891.53 L4191.73 893.42 L4191.44 894.00 L4191.29 894.43 L4191.44 895.01 L4191.73 895.45 L4192.02 896.46 L4192.02 898.79 L4191.58 900.96 L4190.86 902.70 L4189.70 904.73 L4188.10 906.62 L4186.94 907.63 L4186.07 908.94 L4182.88 914.16 L4182.44 914.74 L4182.15 915.47 L4181.86 916.34 L4182.15 917.50 L4182.15 918.22 L4181.86 918.80 L4181.57 919.38 L4180.99 919.67 L4178.24 921.12 L4177.51 922.14 L4176.64 924.32 L4176.20 925.04 L4175.77 925.33 L4173.30 926.93 L4172.29 927.80 L4171.56 929.10 L4170.55 930.41 L4169.97 930.84 L4168.95 931.86 L4167.50 934.76 L4167.21 935.34 L4166.78 935.78 L4165.32 936.50 L4163.73 937.37 L4161.55 938.39 L4160.10 938.53 L4158.51 939.11 L4157.78 939.11 L4155.61 938.82 L4154.88 939.11 L4154.15 939.55 L4149.08 945.20 L4142.11 952.02 L4139.21 955.07 L4136.89 958.11 L4133.70 963.92 L4132.25 966.09 L4129.78 970.01 L4128.33 973.20 L4126.30 977.99 L4125.72 979.29 L4119.34 986.55 L4117.45 989.01 L4115.42 991.19 L4110.64 995.83 L4109.48 996.99 L4109.33 997.43 L4108.32 1001.20 L4107.88 1001.78 L4106.86 1002.50 L4105.99 1002.94 L4105.56 1003.23 L4100.34 1009.03 L4094.53 1015.27 L4092.94 1017.30 L4091.34 1019.18 L4090.33 1019.91 L4088.30 1020.92 L4086.12 1021.50 L4084.23 1021.50 L4079.88 1021.36 L4076.40 1021.07 L4071.18 1021.07 L4069.44 1021.21 L4068.28 1021.65 L4066.97 1021.94 L4058.41 1020.92 L4057.11 1020.78 L4055.66 1021.07 L4053.77 1021.94 L4052.90 1022.09 L4048.11 1022.23 L4045.94 1022.23 L4044.78 1022.38 L4043.62 1022.96 L4043.18 1023.39 L4041.59 1025.42 L4037.96 1031.66 L4036.07 1035.43 L4031.87 1042.97 L4028.39 1048.20 L4027.66 1049.07 L4027.08 1050.23 L4026.35 1054.72 L4026.21 1056.03 L4026.35 1057.04 L4026.50 1057.91 L4026.21 1063.72 L4025.77 1067.05 L4025.19 1068.65 L4024.61 1070.10 L4023.89 1070.83 L4022.73 1071.55 L4031.29 1071.99 L4039.41 1071.99 L4049.13 1073.29 L4052.90 1074.02 L4053.63 1075.03 L4053.63 1078.51 L4054.50 1084.46 L4054.50 1085.04 L4053.34 1089.54 L4053.19 1090.70 L4053.19 1096.36 L4053.05 1099.84 L4052.03 1103.17 L4051.31 1104.62 L4049.27 1107.23 L4048.84 1108.54 L4049.42 1109.85 L4051.16 1112.02 L4053.05 1113.91 L4054.93 1115.50 L4055.95 1116.37 L4056.09 1117.39 L4055.95 1118.11 L4055.08 1120.58 L4054.50 1122.03 L4054.79 1124.64 L4054.79 1125.80 L4054.50 1126.96 L4053.92 1128.56 L4053.19 1132.91 L4052.47 1134.36 L4051.74 1134.94 L4049.42 1136.10 L4047.53 1137.26 L4044.49 1140.31 L4044.05 1141.03 L4043.62 1142.19 L4042.60 1147.13 L4042.75 1149.01 L4042.75 1149.45 L4042.46 1149.88 L4039.12 1153.22 L4038.54 1154.67 L4037.67 1154.52 L3975.29 1139.73 L3937.43 1130.44 L3848.36 1107.82 L3757.55 1086.20 L3753.49 1085.48 L3751.32 1082.86 L3690.83 1019.04 L3662.83 990.46 L3661.67 988.87 L3661.52 988.87 L3659.06 986.26 L3655.43 981.90 L3646.00 973.35 L3606.40 932.73 L3575.36 901.11 L3578.55 897.48 L3580.14 895.88 L3581.45 893.85 L3582.75 891.53 L3583.62 887.04 L3583.33 881.81 L3582.90 870.50 L3583.19 868.61 L3585.36 864.12 L3585.65 863.83 L3580.14 852.95 L3571.29 835.83 L3569.12 837.57 L3566.94 838.59 L3564.19 838.73 L3557.22 837.28 L3548.95 835.39 L3540.54 833.22 L3535.90 832.06 L3535.32 831.91 L3534.74 830.90 L3534.59 830.32 L3534.16 825.82 L3533.72 824.08 L3539.38 801.60 L3539.82 801.02 L3540.69 799.71 L3542.28 799.13 L3554.03 797.10 L3556.93 796.66 L3556.06 786.65 L3556.06 785.78 L3545.62 787.82 L3531.40 790.72 L3515.88 794.78 L3512.54 795.94 L3507.61 797.82 L3505.00 798.84 L3500.79 800.58 L3493.69 804.06 L3488.17 806.96 L3484.11 809.43 L3476.13 814.36 L3472.65 816.68 L3465.69 821.76 L3462.50 824.22 L3460.90 825.39 L3456.40 829.30 L3453.50 831.91 L3450.75 834.52 L3447.41 837.57 L3444.51 840.47 L3441.90 843.37 L3439.58 845.69 L3436.68 848.88 L3435.08 850.77 L3432.90 852.37 L3428.84 857.59 L3420.57 868.61 L3418.40 871.80 L3412.02 882.25 L3410.42 885.15 L3408.97 888.34 L3403.17 900.24 L3397.94 910.68 L3398.67 910.97 L3397.94 912.28 L3395.77 916.77 L3392.58 923.16 L3385.18 935.78 L3383.44 938.68 L3382.28 939.26 L3381.12 941.14 L3378.36 945.06 L3376.76 947.38 L3373.28 952.02 L3369.80 956.08 L3368.64 957.53 L3364.14 962.61 L3361.97 965.08 L3356.89 970.15 L3352.25 974.80 L3348.33 978.71 L3339.19 986.69 L3337.31 988.00 L3334.41 990.17 L3331.07 992.64 L3327.88 994.81 L3325.27 996.55 L3322.80 998.15 L3321.06 999.31 L3320.34 1000.47 L3316.71 1002.65 L3312.94 1005.11 L3311.78 1005.69 L3308.01 1007.58 L3301.77 1010.48 L3300.32 1011.06 L3295.97 1013.09 L3296.69 1012.22 L3294.22 1013.24 L3292.19 1013.82 L3283.63 1016.72 L3280.15 1017.73 L3270.29 1020.78 L3270.00 1020.78 L3256.51 1024.70 L3231.99 1032.38 L3214.73 1037.61 L3202.83 1041.09 L3198.34 1042.54 L3182.82 1047.33 L3172.08 1050.52 L3167.73 1051.82 L3165.99 1052.26 L3145.97 1058.20 L3141.62 1059.51 L3137.56 1060.67 L3133.79 1061.83 L3120.73 1065.89 L3115.80 1067.34 L3114.78 1067.63 L3107.09 1070.10 L3103.61 1071.12 L3090.99 1074.74 L3080.84 1077.64 L3056.76 1085.19 L3053.86 1086.06 L3039.64 1090.41 L3039.49 1091.13 L3031.66 1093.45 L3031.52 1092.87 L3004.68 1101.00 L2996.85 1103.32 L2983.36 1106.36 L2982.92 1106.07 L2981.03 1107.38 L2979.87 1107.67 L2975.38 1109.56 L2968.70 1111.73 L2964.93 1112.75 L2962.76 1113.47 L2954.78 1116.23 L2953.18 1116.66 L2946.51 1118.55 L2929.54 1123.63 L2925.91 1124.79 L2919.53 1126.67 L2916.77 1126.96 L2910.97 1129.28 L2903.72 1131.46 L2901.98 1132.18 L2900.96 1132.48 L2893.71 1134.51 L2885.73 1136.39 L2880.22 1137.41 L2876.44 1137.84 L2866.00 1139.58 L2853.52 1140.31 L2833.51 1141.61 L2831.04 1141.90 L2825.82 1142.34 L2819.14 1143.06 L2814.50 1143.50 L2803.04 1144.95 L2800.58 1145.24 L2799.42 1145.39 L2797.68 1145.53 L2795.35 1145.82 L2789.12 1146.40 L2784.91 1146.98 L2777.95 1147.71 L2761.12 1149.74 L2746.61 1151.48 L2746.47 1149.01 L2739.65 1152.35 L2738.05 1152.49 L2716.88 1155.10 L2704.98 1156.26 L2705.13 1156.99 L2701.79 1157.43 L2689.89 1158.88 L2688.88 1159.02 L2688.30 1159.02 L2688.44 1158.30 L2687.14 1158.59 L2676.69 1159.89 L2667.26 1160.76 L2661.03 1161.63 L2651.60 1162.36 L2645.36 1162.50 L2636.37 1162.65 L2632.59 1162.50 L2631.72 1162.50 L2623.89 1161.78 L2618.52 1161.49 L2616.06 1161.20 L2606.19 1159.75 L2603.58 1159.46 L2594.30 1158.15 L2586.90 1156.26 L2586.03 1155.97 L2569.78 1151.77 L2561.80 1150.03 L2560.50 1149.74 L2560.50 1149.74 Z" stroke-linejoin="round"/>
	</defs>
	<use xlink:href="#path_ACKeMrMW" style="fill:#9DC8CA;stroke:#6BB4D2;stroke-width:5.76"/>
	<defs>
		<path id="path_qKcyQZOa" d="M3086.35 2555.07 L3086.35 2555.07 L3083.74 2554.34 L3002.36 2533.45 L2988.87 2529.68 L2976.68 2526.20 L2908.94 2509.08 L2908.65 2507.34 L2797.97 2479.64 L2768.23 2471.95 L2740.38 2464.70 L2669.30 2446.56 L2509.44 2405.08 L2502.76 2403.77 L2479.55 2397.53 L2446.33 2388.98 L2407.17 2378.53 L2402.24 2377.23 L2400.49 2376.79 L2395.13 2375.34 L2393.10 2374.90 L2388.74 2373.74 L2387.73 2373.45 L2379.90 2371.57 L2375.54 2370.55 L2367.57 2368.52 L2369.60 2359.38 L2373.80 2343.72 L2374.24 2341.83 L2374.53 2340.67 L2395.85 2257.70 L2419.79 2165.87 L2380.04 2156.01 L2349.72 2148.47 L2332.02 2144.12 L2341.31 2106.69 L2343.19 2099.15 L2344.36 2094.22 L2344.50 2093.78 L2346.24 2086.96 L2348.13 2079.85 L2350.45 2070.57 L2353.35 2059.40 L2353.93 2057.08 L2354.51 2054.47 L2355.52 2050.70 L2356.40 2047.51 L2355.96 2046.20 L2362.20 2022.70 L2362.78 2022.27 L2363.36 2020.38 L2364.08 2017.48 L2364.23 2016.75 L2367.13 2005.44 L2368.29 2000.94 L2368.87 1998.91 L2369.16 1997.17 L2369.45 1996.16 L2370.18 1993.54 L2375.83 1971.50 L2376.70 1968.16 L2377.57 1964.68 L2379.32 1956.41 L2382.94 1941.90 L2380.91 1941.32 L2378.88 1940.89 L2370.03 1938.71 L2354.94 1935.09 L2335.22 1930.15 L2333.77 1930.01 L2294.02 1920.73 L2268.63 1916.37 L2267.47 1916.08 L2266.46 1916.52 L2265.59 1918.98 L2263.27 1924.64 L2256.01 1923.48 L2244.26 1921.45 L2245.71 1914.34 L2246.58 1909.85 L2226.13 1905.06 L2234.11 1902.59 L2244.84 1899.98 L2247.02 1899.84 L2248.90 1900.85 L2250.93 1903.03 L2252.68 1904.04 L2253.69 1904.19 L2254.71 1903.61 L2255.14 1902.45 L2256.01 1900.85 L2257.17 1899.26 L2257.90 1898.24 L2258.77 1897.37 L2259.93 1896.65 L2262.25 1895.92 L2264.86 1895.34 L2271.82 1894.32 L2275.31 1893.89 L2281.25 1878.08 L2282.12 1875.47 L2282.56 1874.16 L2283.14 1872.86 L2283.72 1871.41 L2284.59 1869.23 L2295.03 1843.26 L2303.16 1822.38 L2305.48 1816.86 L2305.91 1815.99 L2311.14 1801.78 L2313.02 1796.70 L2317.52 1784.81 L2323.90 1767.98 L2325.50 1764.06 L2329.41 1753.76 L2333.77 1742.30 L2335.07 1738.82 L2336.09 1736.07 L2336.81 1733.74 L2337.97 1730.41 L2341.02 1722.86 L2342.76 1718.08 L2344.21 1714.89 L2346.24 1709.81 L2350.16 1699.80 L2350.59 1698.64 L2350.59 1698.50 L2357.41 1680.36 L2358.28 1678.48 L2361.04 1671.37 L2364.08 1663.10 L2369.60 1649.61 L2371.77 1644.39 L2374.38 1637.43 L2375.25 1634.81 L2376.70 1631.04 L2377.86 1628.14 L2380.91 1620.60 L2381.64 1618.71 L2384.25 1612.18 L2386.28 1607.40 L2390.92 1595.07 L2395.56 1583.32 L2398.46 1575.92 L2398.90 1574.61 L2400.06 1571.71 L2400.49 1570.70 L2401.07 1568.96 L2405.14 1558.66 L2409.34 1547.34 L2413.99 1535.45 L2416.74 1528.34 L2419.64 1520.80 L2430.09 1494.54 L2431.10 1492.22 L2433.28 1486.13 L2434.44 1483.23 L2438.36 1473.07 L2441.55 1464.37 L2447.49 1449.43 L2448.36 1446.82 L2450.69 1439.71 L2454.02 1426.94 L2459.10 1408.09 L2461.28 1400.11 L2463.89 1390.97 L2465.05 1386.18 L2467.22 1378.20 L2467.37 1377.48 L2467.66 1376.32 L2469.69 1368.63 L2470.70 1364.71 L2475.35 1347.45 L2479.12 1333.24 L2484.05 1314.09 L2486.37 1304.81 L2488.69 1295.96 L2491.01 1286.82 L2493.19 1278.69 L2493.33 1277.82 L2495.51 1268.83 L2498.12 1259.55 L2500.30 1250.70 L2502.76 1241.70 L2505.08 1232.42 L2507.41 1222.99 L2509.87 1214.00 L2512.19 1205.00 L2513.79 1199.20 L2514.51 1196.30 L2516.83 1187.02 L2519.16 1178.02 L2521.33 1169.47 L2521.62 1168.30 L2523.94 1159.31 L2525.39 1155.25 L2526.26 1150.75 L2526.84 1150.03 L2528.87 1141.47 L2529.74 1136.25 L2531.20 1132.33 L2532.36 1127.11 L2532.94 1125.51 L2533.37 1124.50 L2533.52 1123.92 L2533.37 1121.45 L2534.82 1119.71 L2535.11 1116.08 L2536.71 1111.44 L2537.00 1110.86 L2537.00 1110.28 L2537.72 1105.35 L2539.61 1100.13 L2540.19 1095.34 L2542.08 1090.84 L2542.80 1085.33 L2544.54 1081.56 L2545.56 1073.29 L2547.73 1069.81 L2550.49 1054.29 L2557.16 1033.11 L2557.89 1028.32 L2559.05 1025.13 L2559.63 1024.12 L2560.21 1021.94 L2560.50 1019.47 L2561.37 1019.62 L2562.09 1019.91 L2561.37 1022.23 L2560.50 1023.39 L2560.21 1024.12 L2559.77 1025.71 L2557.89 1033.25 L2548.31 1069.81 L2545.27 1081.70 L2542.80 1090.99 L2540.33 1100.42 L2537.58 1110.43 L2537.29 1111.59 L2535.11 1119.85 L2534.10 1124.06 L2533.66 1125.66 L2531.78 1132.48 L2532.79 1132.77 L2540.04 1134.51 L2537.87 1143.21 L2541.64 1144.37 L2545.70 1145.53 L2553.68 1147.85 L2555.71 1148.58 L2560.50 1149.74 L2561.80 1150.03 L2569.78 1151.77 L2586.03 1155.97 L2586.90 1156.26 L2594.30 1158.15 L2603.58 1159.46 L2606.19 1159.75 L2616.06 1161.20 L2618.52 1161.49 L2623.89 1161.78 L2631.72 1162.50 L2632.59 1162.50 L2636.37 1162.65 L2645.36 1162.50 L2651.60 1162.36 L2661.03 1161.63 L2667.26 1160.76 L2676.69 1159.89 L2687.14 1158.59 L2688.44 1158.30 L2688.30 1159.02 L2688.88 1159.02 L2689.89 1158.88 L2701.79 1157.43 L2705.13 1156.99 L2704.98 1156.26 L2716.88 1155.10 L2738.05 1152.49 L2739.65 1152.35 L2746.47 1149.01 L2746.61 1151.48 L2761.12 1149.74 L2777.95 1147.71 L2784.91 1146.98 L2789.12 1146.40 L2795.35 1145.82 L2797.68 1145.53 L2799.42 1145.39 L2800.58 1145.24 L2803.04 1144.95 L2814.50 1143.50 L2819.14 1143.06 L2825.82 1142.34 L2831.04 1141.90 L2833.51 1141.61 L2853.52 1140.31 L2866.00 1139.58 L2876.44 1137.84 L2880.22 1137.41 L2885.73 1136.39 L2893.71 1134.51 L2900.96 1132.48 L2901.98 1132.18 L2903.72 1131.46 L2910.97 1129.28 L2916.77 1126.96 L2919.53 1126.67 L2925.91 1124.79 L2929.54 1123.63 L2946.51 1118.55 L2953.18 1116.66 L2954.78 1116.23 L2962.76 1113.47 L2964.93 1112.75 L2968.70 1111.73 L2975.38 1109.56 L2979.87 1107.67 L2981.03 1107.38 L2982.92 1106.07 L2983.36 1106.36 L2996.85 1103.32 L3004.68 1101.00 L3031.52 1092.87 L3031.66 1093.45 L3039.49 1091.13 L3039.64 1090.41 L3053.86 1086.06 L3056.76 1085.19 L3080.84 1077.64 L3090.99 1074.74 L3103.61 1071.12 L3107.09 1070.10 L3114.78 1067.63 L3115.80 1067.34 L3120.73 1065.89 L3133.79 1061.83 L3137.56 1060.67 L3141.62 1059.51 L3145.97 1058.20 L3165.99 1052.26 L3167.73 1051.82 L3172.08 1050.52 L3182.82 1047.33 L3198.34 1042.54 L3202.83 1041.09 L3214.73 1037.61 L3231.99 1032.38 L3256.51 1024.70 L3270.00 1020.78 L3270.29 1020.78 L3280.15 1017.73 L3283.63 1016.72 L3292.19 1013.82 L3294.22 1013.24 L3296.69 1012.22 L3295.97 1013.09 L3300.32 1011.06 L3301.77 1010.48 L3308.01 1007.58 L3311.78 1005.69 L3312.94 1005.11 L3316.71 1002.65 L3320.34 1000.47 L3321.06 999.31 L3322.80 998.15 L3325.27 996.55 L3327.88 994.81 L3331.07 992.64 L3334.41 990.17 L3337.31 988.00 L3339.19 986.69 L3348.33 978.71 L3352.25 974.80 L3356.89 970.15 L3361.97 965.08 L3364.14 962.61 L3368.64 957.53 L3369.80 956.08 L3373.28 952.02 L3376.76 947.38 L3378.36 945.06 L3381.12 941.14 L3382.28 939.26 L3383.44 938.68 L3385.18 935.78 L3392.58 923.16 L3395.77 916.77 L3397.94 912.28 L3398.67 910.97 L3397.94 910.68 L3403.17 900.24 L3408.97 888.34 L3410.42 885.15 L3412.02 882.25 L3418.40 871.80 L3420.57 868.61 L3428.84 857.59 L3432.90 852.37 L3435.08 850.77 L3436.68 848.88 L3439.58 845.69 L3441.90 843.37 L3444.51 840.47 L3447.41 837.57 L3450.75 834.52 L3453.50 831.91 L3456.40 829.30 L3460.90 825.39 L3462.50 824.22 L3465.69 821.76 L3472.65 816.68 L3476.13 814.36 L3484.11 809.43 L3488.17 806.96 L3493.69 804.06 L3500.79 800.58 L3505.00 798.84 L3507.61 797.82 L3512.54 795.94 L3515.88 794.78 L3531.40 790.72 L3545.62 787.82 L3556.06 785.78 L3556.06 786.65 L3556.93 796.66 L3554.03 797.10 L3542.28 799.13 L3540.69 799.71 L3539.82 801.02 L3539.38 801.60 L3533.72 824.08 L3534.16 825.82 L3534.59 830.32 L3534.74 830.90 L3535.32 831.91 L3535.90 832.06 L3540.54 833.22 L3548.95 835.39 L3557.22 837.28 L3564.19 838.73 L3566.94 838.59 L3569.12 837.57 L3571.29 835.83 L3580.14 852.95 L3585.65 863.83 L3585.36 864.12 L3583.19 868.61 L3582.90 870.50 L3583.33 881.81 L3583.62 887.04 L3582.75 891.53 L3581.45 893.85 L3580.14 895.88 L3578.55 897.48 L3575.36 901.11 L3606.40 932.73 L3646.00 973.35 L3655.43 981.90 L3659.06 986.26 L3661.52 988.87 L3661.67 988.87 L3662.83 990.46 L3690.83 1019.04 L3751.32 1082.86 L3753.49 1085.48 L3757.55 1086.20 L3848.36 1107.82 L3937.43 1130.44 L3975.29 1139.73 L4037.67 1154.52 L4038.54 1154.67 L4044.20 1156.70 L4046.08 1157.14 L4163.87 1186.73 L4167.50 1187.74 L4186.21 1192.53 L4194.34 1194.56 L4374.07 1240.54 L4382.05 1242.86 L4416.72 1251.71 L4422.52 1253.16 L4562.07 1288.85 L4563.67 1289.28 L4571.06 1291.17 L4573.24 1291.89 L4575.13 1293.64 L4578.03 1292.91 L4580.06 1293.06 L4588.04 1294.94 L4588.04 1295.38 L4587.75 1296.83 L4587.46 1298.28 L4587.60 1299.15 L4588.04 1300.31 L4589.20 1303.06 L4589.63 1304.51 L4590.07 1305.10 L4592.10 1307.56 L4592.68 1309.01 L4592.97 1310.32 L4593.11 1313.51 L4592.97 1315.39 L4592.68 1316.84 L4591.81 1319.89 L4590.07 1323.95 L4588.62 1326.85 L4587.31 1328.88 L4586.44 1330.19 L4584.70 1331.93 L4584.27 1332.51 L4584.12 1333.24 L4583.83 1334.69 L4583.54 1337.01 L4583.54 1338.89 L4584.56 1345.86 L4586.01 1349.34 L4588.04 1353.98 L4590.94 1357.46 L4591.81 1358.19 L4592.39 1358.48 L4593.55 1358.48 L4593.98 1358.19 L4594.71 1358.33 L4595.43 1358.62 L4595.87 1359.06 L4596.02 1359.78 L4596.45 1361.38 L4596.31 1361.96 L4595.87 1363.99 L4595.73 1364.13 L4596.16 1365.73 L4596.16 1366.60 L4596.02 1367.47 L4595.29 1369.36 L4592.24 1374.14 L4590.79 1375.59 L4590.21 1376.61 L4589.05 1378.50 L4588.18 1379.51 L4587.60 1379.80 L4585.43 1380.67 L4585.14 1380.96 L4584.85 1381.40 L4584.56 1382.41 L4584.41 1384.73 L4584.56 1385.60 L4585.14 1387.78 L4585.72 1389.66 L4586.30 1390.68 L4586.59 1391.41 L4586.73 1393.00 L4586.73 1396.34 L4586.59 1397.93 L4586.30 1399.96 L4586.30 1402.72 L4586.73 1407.22 L4586.59 1408.67 L4586.30 1410.41 L4586.01 1410.99 L4585.72 1411.28 L4584.85 1411.86 L4582.38 1412.15 L4580.20 1412.73 L4578.03 1413.45 L4576.00 1414.90 L4574.55 1416.79 L4573.24 1420.27 L4571.64 1425.35 L4570.77 1427.96 L4570.19 1429.99 L4570.19 1431.44 L4570.48 1432.46 L4570.77 1433.33 L4570.48 1434.78 L4570.19 1436.37 L4570.19 1437.39 L4570.48 1438.40 L4571.35 1439.85 L4572.81 1441.74 L4574.11 1443.05 L4574.55 1444.50 L4574.55 1445.51 L4573.82 1447.11 L4572.22 1448.56 L4571.21 1449.57 L4570.34 1450.73 L4569.32 1452.04 L4568.31 1453.06 L4568.16 1453.49 L4558.44 1494.40 L4558.30 1497.30 L4559.02 1499.47 L4559.46 1501.80 L4559.02 1504.55 L4557.86 1507.16 L4556.41 1508.61 L4554.82 1510.35 L4553.22 1512.96 L4552.64 1514.71 L4551.19 1516.16 L4549.89 1518.33 L4549.01 1521.67 L4549.01 1525.15 L4548.43 1528.34 L4546.84 1531.68 L4545.24 1533.71 L4543.21 1535.88 L4535.96 1542.41 L4527.84 1548.50 L4526.82 1549.52 L4526.10 1550.97 L4525.66 1552.42 L4523.63 1560.40 L4522.90 1563.16 L4521.60 1565.77 L4520.44 1567.94 L4518.84 1569.83 L4517.54 1570.99 L4517.10 1571.42 L4515.94 1572.73 L4515.07 1574.32 L4514.05 1576.94 L4513.33 1578.82 L4512.75 1579.55 L4512.31 1580.13 L4511.15 1581.14 L4509.99 1583.17 L4509.41 1585.06 L4508.11 1585.20 L4505.93 1584.91 L4502.01 1583.61 L4498.24 1585.06 L4497.08 1585.49 L4496.50 1585.78 L4491.72 1587.67 L4489.25 1590.43 L4487.94 1594.49 L4488.09 1595.50 L4488.81 1600.15 L4487.22 1606.53 L4484.46 1610.59 L4474.74 1641.20 L4467.34 1650.63 L4463.57 1668.03 L4459.08 1676.16 L4446.02 1691.97 L4443.99 1699.37 L4442.97 1701.83 L4442.10 1703.14 L4440.80 1704.15 L4438.19 1705.89 L4437.46 1706.04 L4433.69 1707.34 L4430.93 1708.21 L4427.60 1709.95 L4425.42 1711.70 L4423.68 1713.73 L4422.23 1716.05 L4421.80 1718.22 L4421.80 1721.85 L4421.36 1723.45 L4420.49 1724.90 L4417.30 1726.78 L4415.56 1727.65 L4414.25 1728.52 L4413.24 1729.83 L4412.08 1732.87 L4408.74 1740.27 L4407.72 1742.59 L4407.00 1743.46 L4406.13 1744.33 L4403.81 1744.91 L4400.47 1745.20 L4397.13 1745.78 L4393.65 1746.94 L4392.64 1747.82 L4391.48 1749.70 L4390.61 1752.89 L4389.88 1755.36 L4388.72 1757.82 L4386.84 1761.31 L4385.96 1763.34 L4384.80 1765.66 L4383.93 1768.41 L4383.06 1770.01 L4382.05 1770.73 L4379.87 1771.31 L4377.99 1771.75 L4376.39 1772.62 L4375.23 1773.49 L4374.50 1774.65 L4374.36 1775.38 L4374.50 1776.54 L4375.52 1778.42 L4377.70 1781.47 L4378.71 1783.35 L4379.15 1784.81 L4378.86 1786.55 L4378.13 1788.58 L4377.12 1790.61 L4375.67 1792.93 L4373.92 1794.67 L4371.75 1795.97 L4368.41 1797.28 L4361.30 1798.88 L4353.47 1802.07 L4347.38 1805.98 L4339.83 1815.70 L4328.23 1824.41 L4324.89 1833.83 L4325.33 1836.88 L4328.08 1844.86 L4341.87 1862.12 L4343.46 1862.85 L4343.90 1868.07 L4342.01 1875.47 L4336.21 1885.19 L4332.58 1899.84 L4327.94 1904.77 L4325.04 1917.68 L4320.83 1924.35 L4318.95 1930.73 L4318.08 1962.79 L4318.95 1972.51 L4320.25 1985.42 L4322.57 1992.38 L4323.01 1994.71 L4323.15 1996.01 L4324.75 2007.91 L4327.94 2019.95 L4343.46 2049.25 L4345.64 2054.90 L4350.28 2062.88 L4358.69 2070.14 L4365.95 2078.11 L4374.50 2093.20 L4388.00 2112.49 L4390.46 2120.33 L4389.74 2153.11 L4387.42 2162.25 L4377.12 2170.81 L4376.25 2175.01 L4375.67 2177.62 L4373.34 2182.12 L4372.62 2195.61 L4373.49 2199.24 L4370.73 2214.76 L4373.20 2225.20 L4372.33 2234.49 L4373.78 2241.02 L4373.34 2246.24 L4371.75 2248.70 L4367.11 2266.11 L4368.56 2273.22 L4367.69 2279.17 L4368.85 2286.27 L4368.99 2298.31 L4366.82 2302.23 L4360.00 2310.35 L4356.81 2317.46 L4356.37 2318.62 L4357.39 2322.83 L4356.37 2327.47 L4355.07 2333.42 L4355.50 2335.59 L4357.24 2343.86 L4356.23 2352.71 L4355.36 2361.12 L4354.78 2366.49 L4354.34 2370.70 L4356.23 2375.05 L4357.68 2378.68 L4356.95 2382.88 L4353.62 2388.83 L4349.41 2406.82 L4349.26 2407.40 L4348.25 2408.56 L4343.17 2414.65 L4342.74 2416.10 L4341.29 2422.34 L4338.67 2425.24 L4335.77 2428.43 L4334.18 2432.78 L4333.60 2434.67 L4333.60 2438.44 L4333.16 2439.75 L4330.99 2447.58 L4330.12 2450.92 L4329.97 2451.35 L4329.68 2458.17 L4323.15 2483.99 L4324.60 2490.37 L4326.92 2495.16 L4330.70 2502.85 L4331.28 2505.75 L4331.13 2506.47 L4330.55 2520.25 L4329.54 2543.75 L4328.96 2555.07 L4326.92 2558.55 L4326.78 2558.84 L4325.33 2560.44 L4318.08 2568.27 L4313.87 2575.23 L4312.13 2582.05 L4313.87 2592.93 L4316.19 2599.60 L4318.66 2602.50 L4320.25 2604.39 L4329.83 2612.22 L4334.32 2619.18 L4340.56 2624.55 L4342.16 2629.92 L4344.19 2632.53 L4344.77 2632.96 L4349.41 2633.69 L4351.15 2633.98 L4352.60 2635.29 L4353.04 2637.61 L4353.62 2639.64 L4352.60 2649.65 L4355.07 2656.61 L4356.23 2660.09 L4355.94 2661.40 L4352.89 2675.32 L4352.75 2676.19 L4349.26 2683.59 L4340.27 2702.45 L4339.11 2713.04 L4334.03 2736.83 L4334.47 2740.02 L4337.08 2746.55 L4337.95 2754.81 L4338.96 2757.72 L4339.69 2759.75 L4339.83 2766.56 L4339.83 2768.59 L4340.27 2770.77 L4341.29 2772.37 L4346.51 2780.78 L4349.70 2785.71 L4351.73 2791.37 L4351.73 2791.66 L4351.15 2795.58 L4349.55 2796.88 L4347.96 2799.78 L4345.64 2803.99 L4345.20 2804.57 L4332.29 2824.73 L4315.32 2845.19 L4313.43 2848.23 L4312.71 2849.25 L4309.81 2851.86 L4191.44 2821.25 L4073.06 2790.64 L4041.01 2782.38 L3949.33 2758.59 L3794.84 2718.69 L3640.49 2678.66 L3626.71 2675.03 L3613.36 2671.55 L3584.78 2664.15 L3581.30 2663.43 L3579.13 2662.85 L3577.10 2662.56 L3549.97 2655.74 L3549.68 2655.74 L3549.39 2655.30 L3549.24 2655.30 L3548.08 2655.16 L3541.85 2653.42 L3381.41 2610.34 L3380.83 2609.32 L3380.39 2608.74 L3377.93 2608.45 L3357.04 2603.37 L3268.26 2582.34 L3262.02 2581.18 L3168.31 2567.69 L3124.36 2560.87 L3124.07 2560.73 L3087.51 2555.36 L3086.35 2555.07 L3086.35 2555.07 Z" stroke-linejoin="round"/>
	</defs>
	<use xlink:href="#path_qKcyQZOa" style="fill:#6BACAF;stroke:#097D9B;stroke-width:5.76"/>
	<defs>
		<path id="path_fWFEBEyD" d="M174.07 1391.99 L174.07 1391.99 L73.98 1368.63 L45.40 1359.93 L86.02 1188.90 L109.23 1095.05 L138.82 975.52 L168.56 855.85 L197.43 738.20 L226.15 620.56 L264.01 628.83 L269.96 630.28 L335.09 646.96 L351.05 651.17 L468.41 682.21 L598.38 716.01 L600.70 716.88 L610.28 719.20 L620.43 721.67 L651.33 729.79 L692.67 740.53 L732.28 750.83 L767.82 759.96 L808.14 770.55 L845.71 780.42 L887.35 791.15 L887.49 791.15 L903.01 795.21 L904.46 795.50 L922.74 800.44 L926.66 801.45 L945.66 806.38 L969.60 812.48 L996.00 819.44 L1005.57 822.05 L1015.15 824.51 L1022.11 826.26 L1024.58 826.98 L1028.06 827.85 L1032.41 829.01 L1034.44 829.59 L1040.97 831.19 L1044.74 832.20 L1050.11 833.65 L1056.20 835.10 L1062.87 836.84 L1068.68 838.44 L1073.61 839.75 L1076.80 840.47 L1079.56 841.20 L1096.67 845.69 L1107.70 848.59 L1117.56 851.06 L1127.86 853.82 L1167.17 863.83 L1204.60 873.54 L1215.04 876.01 L1228.10 879.64 L1266.54 889.50 L1278.44 892.69 L1301.36 898.93 L1311.37 901.54 L1363.59 915.03 L1379.54 919.82 L1415.96 928.81 L1435.25 853.53 L1442.50 855.56 L1481.09 866.29 L1497.05 870.06 L1524.32 876.16 L1566.24 885.44 L1616.00 896.61 L1622.96 867.60 L1630.07 837.43 L1645.15 773.60 L1649.80 754.45 L1650.09 752.86 L1664.01 693.67 L1696.07 701.36 L1710.29 704.70 L1722.18 707.60 L1741.48 712.09 L1749.74 714.13 L1753.52 714.85 L1753.23 715.72 L1755.26 716.01 L1758.74 704.12 L1757.00 701.07 L1757.00 700.92 L1759.17 692.22 L1762.07 681.49 L1764.40 672.06 L1767.88 659.29 L1773.82 635.94 L1778.90 616.07 L1779.48 613.74 L1779.77 613.74 L1782.38 614.32 L1804.00 619.40 L1813.72 621.72 L1820.53 623.46 L1822.86 624.04 L1838.38 627.52 L1860.43 632.89 L1870.15 635.07 L1875.80 613.60 L1891.03 552.67 L1893.21 545.42 L1894.66 537.59 L1895.68 534.40 L1896.98 528.74 L1897.71 528.01 L1898.00 529.03 L1901.48 529.90 L1917.29 533.82 L1931.51 537.59 L1939.05 539.47 L1939.78 539.62 L2010.42 557.46 L2018.11 559.35 L2050.02 567.62 L2062.79 570.66 L2068.01 550.35 L2071.06 538.75 L2088.46 470.57 L2094.85 472.17 L2098.76 455.63 L2103.84 456.50 L2107.90 457.66 L2114.43 454.90 L2116.75 459.84 L2122.99 443.45 L2125.02 438.66 L2126.33 436.77 L2128.79 434.16 L2130.82 435.32 L2135.61 437.50 L2138.80 436.77 L2143.44 436.92 L2147.65 438.22 L2151.57 439.24 L2154.76 438.95 L2157.08 438.22 L2159.69 436.77 L2162.59 435.03 L2164.77 433.44 L2169.12 428.94 L2171.59 425.17 L2174.49 421.69 L2177.97 418.79 L2181.89 416.46 L2184.79 415.16 L2186.53 413.85 L2188.85 410.66 L2190.88 407.76 L2193.05 405.58 L2195.96 405.00 L2198.71 405.15 L2201.18 406.89 L2203.64 409.36 L2207.56 414.00 L2210.17 417.91 L2214.23 422.99 L2216.70 424.73 L2219.02 425.31 L2222.65 424.73 L2228.31 423.14 L2231.06 421.98 L2241.22 418.06 L2242.67 417.91 L2244.12 418.20 L2248.18 419.66 L2251.95 421.54 L2254.56 422.12 L2257.03 421.69 L2274.87 417.48 L2291.84 412.26 L2299.82 410.23 L2291.70 440.54 L2291.12 444.46 L2290.83 445.91 L2290.68 447.80 L2290.68 454.47 L2291.99 469.99 L2292.57 474.20 L2294.02 482.32 L2295.03 482.76 L2296.34 483.48 L2297.35 484.06 L2297.94 484.35 L2298.37 484.79 L2298.81 485.08 L2299.24 485.37 L2299.97 485.37 L2303.59 486.53 L2302.72 487.98 L2302.43 489.28 L2301.71 491.60 L2302.00 495.38 L2303.45 502.34 L2307.65 513.80 L2308.96 517.57 L2309.98 520.18 L2312.88 520.18 L2313.31 520.18 L2313.60 520.33 L2318.82 526.27 L2320.13 527.72 L2320.56 528.16 L2321.58 529.17 L2322.45 530.05 L2325.50 530.92 L2331.01 532.22 L2335.51 533.38 L2338.26 534.11 L2343.05 535.41 L2346.39 536.28 L2351.17 537.44 L2354.07 538.17 L2356.69 538.89 L2357.12 537.15 L2357.99 533.53 L2358.43 531.79 L2368.58 491.75 L2369.16 489.86 L2374.09 470.43 L2380.19 446.78 L2381.78 440.98 L2382.36 438.51 L2385.84 439.38 L2392.52 441.12 L2405.28 444.32 L2405.72 444.17 L2428.20 449.83 L2440.97 453.02 L2500.44 467.82 L2516.98 472.02 L2568.62 485.51 L2568.04 486.38 L2567.03 487.25 L2565.87 488.12 L2563.54 490.15 L2559.77 493.20 L2557.31 495.23 L2556.00 496.97 L2554.55 499.00 L2551.07 502.48 L2549.18 504.81 L2544.54 510.46 L2542.08 512.78 L2539.17 516.26 L2537.58 519.02 L2537.29 519.31 L2536.71 519.31 L2534.53 517.43 L2533.37 516.55 L2530.76 515.25 L2527.57 513.80 L2525.25 513.51 L2524.52 513.65 L2522.93 513.94 L2520.61 515.39 L2519.30 515.97 L2516.83 516.26 L2516.25 516.12 L2515.67 515.68 L2515.24 514.81 L2514.95 513.94 L2514.95 511.77 L2515.38 508.87 L2515.38 508.14 L2514.95 507.71 L2514.37 507.13 L2513.35 506.84 L2512.48 506.98 L2510.31 507.56 L2506.97 508.00 L2505.52 508.72 L2502.04 509.74 L2501.17 510.03 L2493.62 515.54 L2493.19 516.12 L2492.46 517.43 L2491.88 519.31 L2491.16 523.23 L2490.29 526.42 L2489.56 528.45 L2486.37 535.56 L2485.65 537.59 L2485.21 539.04 L2484.92 540.49 L2484.78 542.52 L2484.63 544.99 L2484.63 546.00 L2484.92 546.73 L2485.07 547.02 L2485.65 548.47 L2493.04 559.20 L2497.11 564.28 L2499.57 567.91 L2501.02 570.81 L2504.36 577.48 L2505.81 579.66 L2507.84 581.69 L2520.61 589.81 L2524.38 593.58 L2526.12 596.63 L2527.28 600.40 L2527.86 605.04 L2527.57 611.71 L2527.13 623.17 L2526.55 624.19 L2524.09 634.49 L2523.65 636.52 L2523.22 638.40 L2522.06 643.48 L2521.33 646.96 L2521.48 647.83 L2521.77 650.73 L2522.35 653.06 L2522.93 654.80 L2523.94 656.83 L2525.10 658.71 L2527.13 661.61 L2515.96 656.39 L2511.76 655.67 L2509.44 652.62 L2507.26 652.91 L2512.48 661.90 L2511.32 664.37 L2512.92 667.71 L2514.37 671.48 L2515.24 673.94 L2516.54 678.88 L2517.27 681.78 L2517.99 686.42 L2518.87 692.22 L2519.16 694.54 L2519.30 695.12 L2519.45 696.14 L2519.74 698.60 L2521.04 707.02 L2523.22 721.38 L2523.94 725.44 L2525.83 739.37 L2526.12 740.82 L2527.42 749.95 L2529.89 767.65 L2531.63 780.13 L2532.79 789.27 L2536.42 811.75 L2536.85 814.65 L2539.03 829.45 L2541.06 843.81 L2541.35 844.97 L2541.35 845.55 L2542.22 851.21 L2545.70 876.16 L2547.88 889.94 L2548.02 891.24 L2548.46 894.00 L2549.47 900.96 L2550.49 908.36 L2550.78 909.81 L2552.37 920.54 L2554.26 933.74 L2558.32 960.15 L2559.48 968.56 L2559.92 971.46 L2561.51 982.92 L2562.09 990.75 L2562.24 995.10 L2562.24 998.59 L2562.09 1002.36 L2561.95 1007.00 L2561.80 1009.90 L2561.51 1012.80 L2561.22 1015.41 L2560.50 1019.47 L2560.21 1021.94 L2559.63 1024.12 L2559.05 1025.13 L2557.89 1028.32 L2557.16 1033.11 L2550.49 1054.29 L2547.73 1069.81 L2545.56 1073.29 L2544.54 1081.56 L2542.80 1085.33 L2542.08 1090.84 L2540.19 1095.34 L2539.61 1100.13 L2537.72 1105.35 L2537.00 1110.28 L2537.00 1110.86 L2536.71 1111.44 L2535.11 1116.08 L2534.82 1119.71 L2533.37 1121.45 L2533.52 1123.92 L2533.37 1124.50 L2532.94 1125.51 L2532.36 1127.11 L2531.20 1132.33 L2529.74 1136.25 L2528.87 1141.47 L2526.84 1150.03 L2526.26 1150.75 L2525.39 1155.25 L2523.94 1159.31 L2521.62 1168.30 L2521.33 1169.47 L2519.16 1178.02 L2516.83 1187.02 L2514.51 1196.30 L2513.79 1199.20 L2512.19 1205.00 L2509.87 1214.00 L2507.41 1222.99 L2505.08 1232.42 L2502.76 1241.70 L2500.30 1250.70 L2498.12 1259.55 L2495.51 1268.83 L2493.33 1277.82 L2493.19 1278.69 L2491.01 1286.82 L2488.69 1295.96 L2486.37 1304.81 L2484.05 1314.09 L2479.12 1333.24 L2475.35 1347.45 L2470.70 1364.71 L2469.69 1368.63 L2467.66 1376.32 L2467.37 1377.48 L2467.22 1378.20 L2465.05 1386.18 L2463.89 1390.97 L2461.28 1400.11 L2459.10 1408.09 L2454.02 1426.94 L2450.69 1439.71 L2448.36 1446.82 L2447.49 1449.43 L2441.55 1464.37 L2438.36 1473.07 L2434.44 1483.23 L2433.28 1486.13 L2431.10 1492.22 L2430.09 1494.54 L2419.64 1520.80 L2416.74 1528.34 L2413.99 1535.45 L2409.34 1547.34 L2405.14 1558.66 L2401.07 1568.96 L2400.49 1570.70 L2400.06 1571.71 L2398.90 1574.61 L2398.46 1575.92 L2395.56 1583.32 L2390.92 1595.07 L2386.28 1607.40 L2384.25 1612.18 L2381.64 1618.71 L2380.91 1620.60 L2377.86 1628.14 L2376.70 1631.04 L2375.25 1634.81 L2374.38 1637.43 L2371.77 1644.39 L2369.60 1649.61 L2364.08 1663.10 L2361.04 1671.37 L2358.28 1678.48 L2357.41 1680.36 L2350.59 1698.50 L2350.59 1698.64 L2350.16 1699.80 L2346.24 1709.81 L2344.21 1714.89 L2342.76 1718.08 L2341.02 1722.86 L2337.97 1730.41 L2336.81 1733.74 L2336.09 1736.07 L2335.07 1738.82 L2333.77 1742.30 L2329.41 1753.76 L2325.50 1764.06 L2323.90 1767.98 L2317.52 1784.81 L2313.02 1796.70 L2311.14 1801.78 L2305.91 1815.99 L2305.48 1816.86 L2303.16 1822.38 L2295.03 1843.26 L2284.59 1869.23 L2283.72 1871.41 L2283.14 1872.86 L2282.56 1874.16 L2282.12 1875.47 L2281.25 1878.08 L2275.31 1893.89 L2271.82 1894.32 L2264.86 1895.34 L2262.25 1895.92 L2259.93 1896.65 L2258.77 1897.37 L2257.90 1898.24 L2257.17 1899.26 L2256.01 1900.85 L2255.14 1902.45 L2254.71 1903.61 L2253.69 1904.19 L2252.68 1904.04 L2250.93 1903.03 L2248.90 1900.85 L2247.02 1899.84 L2244.84 1899.98 L2234.11 1902.59 L2226.13 1905.06 L2224.24 1904.48 L2204.95 1897.95 L2194.07 1894.90 L2192.33 1894.03 L2183.19 1891.42 L2182.18 1891.13 L2149.68 1883.30 L2146.63 1882.57 L2145.18 1882.14 L2142.14 1881.41 L2133.72 1879.38 L2088.46 1868.36 L2054.96 1860.09 L2052.34 1859.51 L2029.13 1853.71 L2026.38 1853.13 L2018.25 1851.24 L1970.53 1839.35 L1967.48 1838.62 L1965.16 1838.33 L1947.46 1833.98 L1930.06 1829.48 L1924.98 1828.18 L1796.89 1796.99 L1771.36 1790.75 L1765.12 1789.16 L1751.48 1786.11 L1747.86 1785.39 L1744.52 1784.66 L1733.79 1781.90 L1729.58 1781.03 L1725.52 1780.02 L1722.33 1779.15 L1721.89 1779.15 L1709.27 1776.10 L1639.35 1759.56 L1634.27 1758.11 L1628.62 1756.95 L1622.52 1755.50 L1583.65 1746.22 L1545.93 1737.52 L1519.67 1731.28 L1518.80 1731.28 L1517.06 1731.28 L1515.61 1730.99 L1506.62 1728.23 L1498.35 1726.06 L1491.97 1724.75 L1446.13 1714.16 L1405.66 1704.44 L1402.46 1703.72 L1356.19 1692.84 L1349.08 1691.10 L1345.74 1690.23 L1274.52 1673.83 L1223.89 1661.21 L1195.61 1654.25 L1193.28 1653.67 L1189.80 1652.66 L1173.85 1648.74 L1099.28 1629.74 L1059.97 1619.87 L901.13 1579.55 L886.62 1575.92 L824.25 1560.25 L819.17 1558.80 L699.78 1528.63 L632.04 1511.22 L630.59 1510.79 L493.65 1474.52 L484.36 1472.06 L387.17 1446.96 L280.70 1419.55 L174.07 1391.99 L174.07 1391.99 Z" stroke-linejoin="round"/>
	</defs>
	<use xlink:href="#path_fWFEBEyD" style="fill:#09757A;stroke:#00465F;stroke-width:5.76"/>
</svg>
