<?xml version="1.0" encoding="UTF-8" standalone="no"?>
<!-- This is a Stata 16.1 generated SVG file (http://www.stata.com) -->

<svg version="1.1" width="4.00in" height="5.79in" viewBox="0 0 2880 4170" xmlns="http://www.w3.org/2000/svg" xmlns:xlink="http://www.w3.org/1999/xlink">
	<desc>Stata Graph - Graph</desc>
	<rect x="0" y="0" width="2880" height="4170" style="fill:#FFFFFF;stroke:none"/>
	<defs>
		<path id="path_iOjaykFz" d="M2549.39 4022.88 L2549.39 4022.88 L2538.31 4025.48 L2531.79 4028.61 L2528.67 4032.52 L2509.12 4045.03 L2502.99 4049.59 L2493.87 4060.02 L2479.02 4103.15 L2478.49 4111.36 L2478.10 4116.18 L2476.67 4128.95 L2472.63 4129.21 L2467.81 4128.04 L2468.20 4122.31 L2468.59 4115.92 L2468.07 4113.57 L2466.77 4110.97 L2462.73 4096.89 L2456.08 4073.44 L2446.70 4046.72 L2434.84 4024.70 L2421.94 3995.38 L2416.46 3982.48 L2413.73 3972.32 L2412.42 3965.67 L2418.29 3932.70 L2417.11 3918.76 L2415.42 3908.46 L2394.31 3841.09 L2387.79 3816.85 L2382.32 3803.17 L2374.37 3793.01 L2339.84 3756.78 L2327.20 3747.40 L2320.29 3739.06 L2319.51 3737.36 L2318.73 3735.93 L2318.73 3734.37 L2318.99 3732.93 L2320.94 3731.37 L2322.90 3727.46 L2324.20 3723.68 L2325.37 3722.12 L2326.54 3720.94 L2330.71 3718.47 L2331.37 3717.82 L2333.71 3712.60 L2334.89 3708.17 L2334.89 3704.00 L2334.62 3701.40 L2334.23 3699.31 L2332.93 3693.19 L2332.02 3691.10 L2329.80 3688.76 L2329.02 3686.28 L2326.68 3685.24 L2324.98 3685.24 L2323.68 3685.89 L2321.98 3687.19 L2320.94 3689.67 L2321.07 3692.01 L2321.98 3694.49 L2322.50 3695.92 L2323.42 3698.79 L2323.68 3701.14 L2323.81 3702.18 L2324.07 3703.87 L2324.07 3708.56 L2323.16 3712.73 L2322.50 3715.08 L2321.85 3716.51 L2320.29 3718.08 L2315.73 3719.77 L2312.73 3722.25 L2305.69 3730.98 L2302.18 3731.76 L2280.67 3736.97 L2265.43 3740.36 L2262.04 3741.01 L2256.83 3740.23 L2251.61 3743.49 L2248.22 3749.74 L2248.22 3759.26 L2248.75 3762.25 L2247.44 3766.55 L2246.92 3774.11 L2244.58 3775.80 L2241.71 3774.50 L2237.67 3768.12 L2199.23 3715.34 L2193.36 3707.52 L2185.54 3696.84 L2177.33 3676.51 L2176.03 3674.42 L2164.95 3655.92 L2165.73 3652.92 L2166.65 3650.57 L2165.08 3647.84 L2162.61 3647.58 L2160.13 3649.92 L2157.00 3649.53 L2154.27 3651.62 L2159.09 3666.47 L2163.78 3685.76 L2194.92 3749.74 L2174.33 3763.29 L2178.37 3780.11 L2168.08 3792.35 L2160.13 3817.77 L2168.47 3849.30 L2167.43 3852.17 L2164.04 3854.25 L2156.48 3858.81 L2153.74 3862.33 L2156.48 3867.68 L2154.40 3881.10 L2150.49 3897.78 L2153.74 3905.47 L2159.61 3911.72 L2162.22 3916.41 L2155.96 3919.02 L2150.36 3923.71 L2148.53 3930.88 L2151.27 3939.48 L2154.92 3950.29 L2156.22 3956.94 L2153.74 3963.85 L2152.31 3964.63 L2149.31 3963.85 L2147.88 3961.76 L2123.77 3928.01 L2107.35 3937.26 L2098.62 3945.34 L2129.11 4036.69 L2132.50 4046.85 L2126.38 4052.72 L2114.00 4050.50 L2103.70 4019.88 L2100.97 4011.41 L2097.71 4005.28 L2091.06 4000.07 L2082.33 3999.29 L2083.90 3992.91 L2082.59 3990.43 L2069.82 3989.00 L2069.30 3981.05 L2061.61 3964.11 L2058.35 3961.11 L2056.79 3956.94 L2057.83 3955.64 L2054.70 3945.34 L2053.14 3939.74 L2054.70 3938.30 L2063.96 3932.57 L2069.04 3933.09 L2070.73 3935.05 L2075.42 3941.95 L2077.90 3941.17 L2082.33 3937.26 L2081.42 3933.48 L2077.51 3929.05 L2079.07 3926.32 L2082.46 3920.32 L2085.07 3916.93 L2088.33 3914.33 L2088.98 3910.29 L2085.33 3907.68 L2082.20 3907.42 L2076.86 3906.38 L2075.95 3904.16 L2075.16 3901.82 L2072.43 3893.09 L2070.47 3886.96 L2070.21 3884.09 L2073.99 3881.36 L2073.73 3879.53 L2071.51 3876.93 L2069.69 3876.54 L2062.78 3871.06 L2058.48 3856.99 L2059.40 3852.82 L2057.96 3850.60 L2054.83 3847.61 L2052.10 3842.00 L2050.27 3839.66 L2047.02 3839.92 L2043.63 3841.35 L2042.19 3844.09 L2041.93 3847.61 L2046.49 3859.47 L2050.27 3866.24 L2052.75 3874.84 L2053.66 3879.27 L2054.18 3884.88 L2054.44 3887.74 L2054.70 3891.52 L2053.53 3894.13 L2051.97 3896.47 L2046.62 3897.91 L2040.63 3901.43 L2037.24 3904.55 L2034.90 3908.33 L2034.90 3911.20 L2035.03 3916.41 L2035.68 3917.85 L2038.54 3917.58 L2040.89 3911.98 L2042.58 3908.07 L2045.97 3907.42 L2050.01 3907.42 L2052.49 3908.33 L2054.05 3912.11 L2053.27 3917.72 L2050.79 3921.49 L2047.02 3923.06 L2044.54 3923.97 L2044.28 3928.01 L2047.02 3932.18 L2048.97 3938.04 L2049.49 3946.25 L2051.97 3953.81 L2055.62 3966.58 L2056.92 3971.27 L2055.88 3980.26 L2047.93 3981.44 L2042.19 3982.74 L2033.46 3991.34 L2020.82 4006.98 L2019.13 4014.93 L2020.95 4033.04 L2021.34 4048.16 L2020.69 4051.29 L2020.43 4051.42 L2014.57 4050.76 L2012.61 4045.81 L2010.66 4041.12 L2009.09 4039.30 L2005.18 4039.43 L2001.67 4035.26 L1999.19 4033.17 L1996.58 4035.26 L1993.72 4035.91 L1991.63 4032.26 L1990.33 4029.13 L1989.94 4021.05 L1990.85 4002.16 L1990.33 3996.68 L1989.42 3993.69 L1987.20 3993.30 L1975.86 3997.86 L1975.60 3997.99 L1975.47 3998.12 L1975.60 3998.38 L1975.73 3999.16 L1977.95 4012.19 L1974.43 4001.38 L1964.13 3992.51 L1956.97 3990.95 L1950.19 3994.34 L1950.19 3989.65 L1950.19 3986.52 L1950.06 3980.53 L1949.15 3966.06 L1948.89 3962.28 L1948.89 3959.68 L1949.02 3957.98 L1949.28 3955.90 L1949.67 3954.20 L1950.06 3952.51 L1941.72 3940.39 L1931.03 3925.66 L1924.91 3915.50 L1839.03 3788.18 L1749.76 3676.25 L1743.25 3663.08 L1733.86 3644.06 L1690.47 3555.97 L1688.38 3551.80 L1686.95 3547.89 L1676.52 3520.26 L1675.09 3515.96 L1671.96 3506.06 L1660.76 3471.53 L1659.19 3466.31 L1657.63 3461.36 L1631.57 3391.12 L1621.14 3395.42 L1617.75 3386.56 L1615.28 3379.39 L1610.06 3363.63 L1593.25 3319.19 L1592.21 3316.45 L1591.43 3314.24 L1580.35 3284.92 L1547.12 3199.43 L1544.90 3193.83 L1542.56 3194.61 L1540.60 3195.26 L1538.39 3196.17 L1537.87 3194.74 L1537.48 3193.57 L1536.96 3192.27 L1536.43 3191.09 L1535.65 3189.66 L1534.74 3188.23 L1533.83 3186.92 L1532.66 3185.36 L1531.74 3184.19 L1530.57 3182.62 L1529.27 3181.06 L1528.09 3179.76 L1526.79 3178.45 L1525.49 3177.28 L1524.05 3176.11 L1522.10 3174.54 L1518.19 3171.28 L1515.71 3169.33 L1513.89 3168.03 L1512.07 3166.72 L1510.50 3165.68 L1508.68 3164.77 L1507.11 3163.86 L1504.77 3162.68 L1502.42 3161.64 L1500.60 3160.99 L1499.16 3160.34 L1493.82 3157.08 L1488.48 3153.69 L1483.79 3150.70 L1478.96 3147.83 L1471.67 3143.79 L1466.71 3140.79 L1462.54 3138.19 L1459.55 3136.23 L1457.20 3134.80 L1454.86 3133.36 L1452.90 3131.93 L1451.21 3130.37 L1449.64 3128.93 L1448.21 3127.50 L1446.39 3125.41 L1444.30 3122.29 L1443.13 3120.33 L1441.82 3117.99 L1439.35 3113.04 L1437.39 3109.39 L1435.83 3106.65 L1434.27 3104.57 L1433.09 3102.87 L1431.92 3101.44 L1430.23 3099.35 L1428.27 3097.66 L1425.67 3095.44 L1423.58 3093.88 L1424.75 3086.19 L1425.01 3083.98 L1425.27 3081.50 L1425.53 3077.59 L1425.93 3074.72 L1426.32 3072.90 L1426.84 3071.86 L1428.14 3070.55 L1430.49 3068.73 L1431.92 3067.56 L1433.22 3066.51 L1434.79 3065.21 L1339.66 2955.36 L1334.57 2966.69 L1333.40 2970.08 L1329.36 2992.63 L1320.24 2975.56 L1319.59 2971.26 L1316.72 2964.87 L1316.59 2961.61 L1312.68 2955.10 L1309.94 2952.10 L1309.29 2950.67 L1309.42 2948.32 L1308.51 2947.15 L1306.16 2947.67 L1305.64 2947.93 L1306.30 2945.97 L1307.34 2945.06 L1308.77 2943.50 L1309.42 2942.07 L1310.20 2939.85 L1310.86 2937.77 L1311.90 2933.07 L1313.98 2924.47 L1309.03 2918.48 L1270.72 2875.22 L1241.66 2844.72 L1239.31 2842.25 L1137.93 2723.14 L1109.52 2689.91 L1077.98 2652.51 L1056.87 2628.27 L961.48 2522.33 L921.99 2478.80 L893.84 2447.79 L898.14 2419.38 L898.92 2352.01 L903.23 2347.97 L907.66 2328.42 L911.96 2300.02 L920.04 2296.76 L935.80 2290.11 L933.20 2284.38 L927.20 2257.01 L930.07 2246.72 L933.20 2232.12 L936.07 2221.31 L936.33 2218.96 L973.60 2213.88 L987.67 2210.62 L986.63 2213.23 L984.15 2229.91 L1003.44 2225.35 L1005.39 2225.09 L1006.96 2224.96 L1008.78 2224.83 L1010.87 2224.83 L1012.43 2224.69 L1013.99 2224.69 L1015.56 2224.83 L1016.99 2225.09 L1018.03 2225.48 L1019.34 2226.00 L1021.16 2227.04 L1022.86 2227.95 L1025.07 2229.00 L1027.03 2230.04 L1028.85 2230.69 L1030.81 2231.47 L1032.63 2231.99 L1034.32 2232.38 L1035.89 2232.64 L1037.32 2232.64 L1039.15 2232.51 L1041.23 2232.12 L1042.79 2231.73 L1044.49 2231.21 L1053.48 2227.56 L1063.12 2223.65 L1064.17 2223.13 L1065.08 2222.61 L1065.99 2222.09 L1066.90 2221.18 L1064.43 2217.79 L1061.56 2213.75 L1059.74 2211.01 L1057.26 2206.97 L1054.78 2202.67 L1050.22 2194.59 L1049.70 2193.55 L1049.18 2192.51 L1047.49 2189.77 L1044.88 2185.34 L1042.92 2182.60 L1042.27 2181.04 L1042.01 2179.87 L1041.62 2178.17 L1041.36 2177.13 L1041.23 2175.70 L1041.23 2174.39 L1041.36 2173.09 L1041.49 2171.53 L1041.75 2169.57 L1042.27 2168.79 L1043.45 2167.75 L1045.01 2166.84 L1047.10 2165.79 L1052.44 2163.71 L1058.17 2161.49 L1060.26 2160.58 L1061.56 2159.67 L1062.60 2158.63 L1063.25 2157.58 L1063.78 2156.41 L1063.91 2154.98 L1063.78 2153.54 L1063.38 2151.72 L1062.08 2147.94 L1060.13 2142.21 L1058.82 2137.78 L1058.17 2133.87 L1057.78 2130.22 L1057.65 2126.96 L1058.04 2123.31 L1058.56 2119.27 L1059.21 2113.93 L1059.74 2111.32 L1060.00 2109.50 L1060.13 2108.07 L1060.26 2106.89 L1064.17 2105.85 L1068.60 2104.68 L1070.81 2104.29 L1071.59 2104.29 L1073.55 2104.68 L1075.63 2105.46 L1077.46 2106.11 L1079.02 2106.89 L1081.24 2108.20 L1083.58 2109.50 L1085.54 2110.93 L1087.75 2112.89 L1090.10 2115.10 L1093.49 2118.62 L1096.09 2121.23 L1099.09 2124.22 L1103.13 2127.87 L1108.08 2132.43 L1114.73 2137.91 L1121.77 2143.64 L1123.72 2145.20 L1126.98 2147.94 L1129.19 2149.90 L1130.76 2151.33 L1132.97 2153.15 L1135.19 2154.72 L1137.01 2155.76 L1138.97 2156.54 L1140.66 2156.93 L1142.62 2156.93 L1146.14 2156.41 L1151.61 2155.63 L1156.30 2153.94 L1192.14 2141.30 L1201.91 2137.78 L1206.73 2136.08 L1211.42 2134.39 L1218.85 2131.78 L1223.54 2130.22 L1228.37 2128.39 L1233.06 2126.83 L1240.49 2124.22 L1247.13 2121.75 L1247.91 2121.49 L1250.00 2120.71 L1252.60 2119.66 L1254.95 2118.62 L1257.04 2117.58 L1261.99 2114.97 L1264.85 2113.28 L1267.33 2111.71 L1269.94 2109.76 L1271.50 2108.46 L1272.41 2107.67 L1274.11 2106.24 L1276.45 2104.16 L1278.93 2101.68 L1281.27 2099.20 L1284.01 2096.21 L1287.14 2092.69 L1289.88 2089.43 L1293.00 2085.91 L1295.87 2082.52 L1297.69 2080.57 L1299.52 2078.48 L1303.30 2073.92 L1306.56 2070.01 L1309.68 2066.37 L1310.60 2065.19 L1312.42 2063.11 L1313.07 2063.89 L1313.72 2064.54 L1316.33 2067.93 L1317.37 2069.36 L1318.94 2071.45 L1321.02 2074.31 L1324.28 2078.48 L1330.40 2087.35 L1333.14 2091.78 L1334.83 2094.25 L1335.75 2095.82 L1339.27 2101.94 L1339.92 2101.16 L1342.65 2098.29 L1343.70 2097.12 L1345.13 2095.03 L1346.95 2091.91 L1348.00 2089.30 L1348.26 2088.39 L1348.65 2087.61 L1348.91 2086.69 L1349.17 2085.65 L1349.43 2083.96 L1349.69 2082.26 L1349.69 2080.70 L1349.95 2076.92 L1350.21 2072.36 L1350.47 2068.19 L1350.73 2065.71 L1350.99 2064.02 L1351.38 2062.07 L1351.91 2060.50 L1352.56 2059.07 L1353.21 2058.16 L1354.38 2057.11 L1355.69 2056.07 L1358.16 2054.77 L1372.89 2047.60 L1384.75 2041.61 L1389.31 2039.13 L1389.70 2039.65 L1390.09 2040.43 L1390.61 2041.35 L1391.26 2042.91 L1393.09 2047.99 L1393.87 2050.34 L1394.78 2052.42 L1395.56 2054.51 L1396.34 2056.33 L1397.26 2058.42 L1398.17 2059.98 L1398.95 2061.28 L1402.08 2067.54 L1410.81 2088.65 L1413.68 2095.43 L1415.89 2111.97 L1412.89 2120.05 L1412.63 2126.31 L1413.81 2129.18 L1417.46 2131.39 L1421.89 2136.47 L1425.67 2140.12 L1428.40 2144.68 L1429.18 2150.68 L1427.75 2155.11 L1425.67 2161.62 L1421.50 2167.10 L1414.33 2177.52 L1469.97 2206.32 L1493.04 2202.67 L1503.99 2204.89 L1536.30 2233.82 L1554.55 2250.24 L1552.46 2259.75 L1550.12 2260.53 L1547.51 2263.40 L1545.69 2266.79 L1545.56 2270.43 L1546.34 2271.61 L1549.99 2277.21 L1552.85 2280.60 L1555.20 2280.86 L1557.81 2278.90 L1562.11 2279.43 L1568.36 2283.60 L1574.36 2291.81 L1576.18 2300.41 L1573.31 2309.53 L1569.80 2317.35 L1569.80 2331.94 L1572.01 2344.84 L1575.14 2350.71 L1579.18 2371.43 L1583.87 2371.69 L1586.48 2371.69 L1590.91 2371.04 L1606.02 2368.69 L1607.59 2368.95 L1608.63 2369.34 L1609.54 2370.12 L1610.71 2372.08 L1611.63 2375.34 L1611.89 2376.64 L1620.10 2418.34 L1620.88 2421.86 L1625.70 2439.58 L1625.83 2441.53 L1625.44 2450.66 L1624.92 2460.43 L1625.44 2465.25 L1627.13 2478.80 L1627.53 2481.80 L1627.66 2484.41 L1627.66 2488.45 L1627.66 2489.88 L1627.53 2491.05 L1627.27 2492.10 L1627.00 2493.01 L1626.61 2493.92 L1626.22 2494.96 L1625.70 2495.88 L1625.05 2496.66 L1624.14 2497.57 L1623.23 2498.35 L1621.92 2499.26 L1617.36 2502.13 L1616.06 2502.91 L1615.15 2503.56 L1614.36 2504.22 L1613.45 2505.13 L1616.71 2508.65 L1617.23 2507.47 L1617.88 2506.43 L1619.06 2505.39 L1620.36 2504.35 L1630.52 2498.09 L1631.17 2497.70 L1632.22 2497.44 L1633.39 2497.18 L1641.99 2499.00 L1647.99 2497.83 L1649.03 2497.57 L1651.37 2496.79 L1659.32 2522.98 L1659.58 2524.15 L1659.06 2527.41 L1658.54 2528.19 L1653.98 2530.41 L1643.69 2535.49 L1642.64 2536.14 L1641.86 2536.66 L1640.69 2537.58 L1643.29 2541.75 L1645.64 2546.57 L1647.72 2551.13 L1649.42 2555.56 L1662.58 2593.35 L1682.65 2586.05 L1687.73 2599.47 L1693.86 2616.68 L1698.03 2630.62 L1678.22 2638.05 L1680.70 2644.69 L1681.09 2645.73 L1685.39 2655.64 L1687.73 2660.33 L1690.99 2666.85 L1691.77 2668.15 L1695.03 2673.88 L1698.55 2679.49 L1700.76 2682.87 L1707.15 2692.00 L1707.93 2693.04 L1712.10 2698.51 L1713.80 2700.60 L1719.53 2708.28 L1725.00 2715.58 L1746.37 2743.47 L1753.93 2753.37 L1762.79 2764.84 L1768.01 2771.62 L1768.92 2772.66 L1770.61 2773.44 L1774.39 2778.00 L1772.18 2778.91 L1662.58 2800.55 L1663.23 2810.97 L1665.45 2819.44 L1667.92 2828.56 L1668.31 2835.21 L1667.27 2840.03 L1666.10 2845.11 L1665.84 2852.80 L1668.31 2861.40 L1671.96 2867.92 L1673.27 2870.00 L1675.09 2870.00 L1678.48 2869.74 L1679.78 2871.44 L1678.61 2883.03 L1679.00 2893.46 L1681.61 2911.83 L1685.91 2979.33 L1680.43 2981.03 L1679.39 2981.29 L1678.35 2981.55 L1677.18 2981.68 L1676.26 2981.68 L1674.83 2981.68 L1674.70 2983.24 L1674.57 2987.54 L1674.44 2991.97 L1674.44 2993.02 L1674.57 2996.01 L1674.96 2998.88 L1675.61 3001.75 L1676.00 3003.05 L1676.39 3004.22 L1677.44 3008.13 L1683.17 3024.55 L1686.56 3034.20 L1689.43 3042.67 L1690.34 3045.79 L1691.12 3048.53 L1691.77 3050.75 L1692.03 3052.83 L1692.29 3054.79 L1692.42 3056.74 L1692.29 3058.56 L1692.29 3060.39 L1692.03 3062.47 L1691.38 3069.90 L1691.38 3072.12 L1691.38 3074.07 L1691.51 3076.29 L1691.51 3078.24 L1691.90 3083.85 L1692.03 3086.32 L1692.16 3088.80 L1692.42 3091.66 L1693.73 3105.09 L1694.25 3110.30 L1694.25 3112.90 L1694.38 3115.38 L1694.38 3117.86 L1694.51 3120.20 L1694.38 3122.16 L1694.38 3124.50 L1694.25 3127.63 L1693.86 3131.28 L1693.47 3134.80 L1691.90 3152.26 L1691.77 3158.51 L1691.64 3162.16 L1691.77 3165.81 L1691.90 3169.33 L1692.16 3172.07 L1692.55 3174.54 L1692.94 3176.89 L1693.47 3179.23 L1694.64 3183.14 L1698.94 3198.00 L1699.72 3200.34 L1700.50 3202.82 L1701.15 3204.51 L1701.81 3205.95 L1702.85 3208.03 L1703.76 3209.34 L1705.06 3210.77 L1706.50 3212.07 L1708.19 3213.25 L1710.15 3214.16 L1712.23 3214.81 L1714.71 3215.20 L1719.79 3215.59 L1722.66 3215.98 L1723.44 3216.11 L1726.31 3216.76 L1728.78 3217.55 L1731.00 3218.59 L1733.34 3220.15 L1737.90 3223.41 L1741.29 3225.63 L1744.16 3227.32 L1745.98 3228.10 L1747.03 3228.49 L1748.59 3229.01 L1749.89 3229.40 L1751.98 3229.80 L1754.32 3230.06 L1757.19 3230.45 L1760.45 3230.71 L1766.31 3231.23 L1777.26 3232.01 L1780.91 3232.27 L1784.17 3232.40 L1785.60 3232.40 L1786.90 3232.40 L1788.47 3232.14 L1790.03 3231.88 L1791.86 3231.62 L1793.42 3231.23 L1795.37 3230.84 L1797.59 3230.06 L1799.80 3229.27 L1802.80 3228.10 L1806.97 3226.28 L1811.27 3224.45 L1813.62 3223.41 L1821.18 3220.15 L1829.26 3216.89 L1835.77 3214.55 L1836.81 3214.16 L1837.99 3213.90 L1839.81 3213.64 L1841.38 3213.38 L1848.80 3212.85 L1848.41 3210.12 L1848.15 3208.03 L1847.76 3206.34 L1847.24 3204.78 L1846.46 3203.08 L1845.55 3201.91 L1829.13 3158.38 L1833.04 3156.82 L1849.46 3148.74 L1866.40 3140.92 L1864.05 3136.23 L1859.75 3126.33 L1857.40 3120.07 L1852.45 3123.20 L1845.29 3126.98 L1837.08 3130.11 L1825.87 3135.19 L1821.05 3137.27 L1811.40 3111.34 L1805.80 3095.44 L1803.58 3089.58 L1821.18 3083.32 L1837.60 3076.29 L1840.59 3075.90 L1854.54 3059.87 L1858.71 3047.23 L1870.96 3040.19 L1873.43 3033.15 L1871.09 3025.60 L1865.35 3015.17 L1862.88 3012.04 L1845.29 2964.61 L1840.85 2950.28 L1838.51 2949.88 L1834.73 2948.97 L1838.12 2944.15 L1839.42 2942.46 L1840.59 2941.28 L1841.90 2940.11 L1843.33 2941.02 L1846.07 2942.07 L1848.67 2942.85 L1849.19 2942.98 L1852.32 2944.02 L1853.76 2944.28 L1859.75 2945.45 L1867.05 2947.41 L1869.00 2948.06 L1872.39 2949.23 L1876.82 2950.93 L1879.43 2952.36 L1881.51 2953.53 L1883.60 2954.71 L1886.33 2956.66 L1888.94 2958.61 L1897.28 2966.04 L1905.49 2973.34 L1906.14 2973.99 L1919.44 2985.85 L1923.08 2989.11 L1925.17 2991.06 L1927.25 2993.15 L1928.69 2994.84 L1930.38 2996.93 L1931.82 2998.75 L1933.25 3000.97 L1936.12 3005.53 L1943.02 3000.97 L1960.09 2985.72 L1961.92 2988.07 L1974.82 3005.40 L1976.77 3008.00 L1974.69 3007.35 L1973.52 3007.22 L1971.17 3008.00 L1960.88 3014.00 L1963.22 3019.47 L1973.91 3044.23 L1980.29 3058.04 L1982.64 3062.86 L1964.26 3071.34 L1978.73 3113.04 L1983.42 3110.82 L2002.19 3100.92 L2014.31 3124.37 L2021.21 3140.14 L2023.56 3145.61 L2024.21 3147.05 L2024.60 3148.22 L2025.51 3150.96 L2028.25 3161.38 L2032.29 3178.06 L2033.07 3182.88 L2008.18 3187.70 L2008.44 3188.88 L2005.31 3189.53 L2002.58 3190.18 L1999.97 3190.83 L1996.84 3191.61 L1995.28 3192.14 L1995.80 3194.61 L1996.32 3197.22 L1996.45 3200.34 L1995.93 3204.64 L1994.89 3208.95 L1992.93 3213.25 L1989.29 3219.24 L1983.94 3226.41 L1980.68 3231.49 L1978.47 3235.14 L1977.43 3237.61 L1976.51 3240.48 L1976.12 3241.78 L1975.73 3243.22 L1975.47 3245.30 L1975.21 3248.04 L1974.95 3254.68 L1974.69 3267.20 L1974.43 3277.23 L1974.56 3278.66 L1974.95 3280.10 L1975.47 3281.66 L1975.99 3282.83 L1976.64 3284.01 L1977.04 3284.66 L1977.43 3285.31 L1978.08 3286.09 L1978.73 3286.87 L1979.12 3287.26 L1979.90 3287.65 L1976.12 3290.39 L1974.17 3292.08 L1973.00 3292.87 L1973.39 3295.73 L1973.39 3301.99 L1971.95 3320.88 L1971.69 3323.36 L1971.82 3324.92 L1971.82 3326.10 L1971.95 3327.27 L1972.60 3332.61 L1973.13 3335.87 L1973.39 3337.43 L1974.04 3340.43 L1974.56 3342.39 L1974.69 3342.52 L1975.60 3344.99 L1977.95 3349.68 L1980.03 3353.33 L1981.86 3356.98 L1983.55 3360.24 L1984.72 3362.71 L1985.51 3364.93 L1986.42 3367.14 L1987.20 3368.97 L1987.72 3370.79 L1988.76 3374.31 L1990.20 3379.92 L1991.89 3386.30 L1993.85 3394.25 L1994.76 3397.38 L2002.06 3394.38 L2006.10 3392.82 L2008.18 3392.16 L2011.96 3390.34 L2013.13 3389.82 L2014.31 3389.56 L2014.83 3389.30 L2017.95 3386.56 L2019.13 3385.26 L2021.60 3382.52 L2024.47 3390.34 L2026.82 3393.86 L2028.25 3395.29 L2034.37 3398.16 L2036.46 3398.55 L2040.24 3398.55 L2049.62 3396.73 L2053.27 3395.94 L2054.70 3401.94 L2056.92 3400.37 L2058.35 3399.46 L2060.83 3397.64 L2065.52 3394.12 L2072.17 3389.04 L2084.42 3379.65 L2092.76 3373.01 L2110.35 3358.54 L2112.17 3356.85 L2112.83 3356.20 L2116.08 3353.07 L2123.90 3345.51 L2130.94 3338.22 L2136.02 3332.35 L2144.62 3322.45 L2151.14 3315.80 L2155.96 3311.37 L2159.87 3308.11 L2161.17 3307.07 L2161.56 3306.68 L2164.17 3304.59 L2168.99 3300.69 L2181.24 3290.39 L2186.58 3286.09 L2191.28 3281.79 L2195.06 3278.01 L2197.27 3276.06 L2199.23 3273.97 L2200.92 3272.15 L2205.48 3267.06 L2210.95 3260.68 L2214.21 3256.38 L2215.38 3254.68 L2217.08 3252.60 L2220.86 3247.65 L2223.33 3244.26 L2226.33 3239.96 L2229.59 3235.01 L2232.59 3230.32 L2233.50 3228.88 L2235.71 3225.10 L2236.24 3224.32 L2236.63 3223.67 L2235.84 3223.28 L2235.06 3223.02 L2233.89 3222.50 L2232.85 3221.98 L2231.80 3221.46 L2230.63 3220.93 L2225.68 3218.20 L2220.73 3215.33 L2217.08 3213.12 L2206.26 3208.03 L2198.96 3202.56 L2199.23 3201.52 L2200.14 3197.87 L2202.48 3184.45 L2202.87 3182.10 L2203.92 3176.37 L2204.05 3169.20 L2204.31 3166.33 L2206.13 3159.17 L2206.65 3157.47 L2207.30 3155.91 L2207.83 3154.74 L2208.35 3153.82 L2208.74 3153.04 L2209.26 3152.26 L2210.04 3151.35 L2211.48 3149.78 L2212.00 3149.26 L2212.65 3148.61 L2214.34 3147.70 L2210.56 3139.62 L2204.18 3120.33 L2191.28 3121.24 L2180.85 3122.03 L2167.17 3123.46 L2161.17 3123.98 L2157.65 3124.37 L2154.79 3124.89 L2152.83 3125.28 L2144.88 3101.44 L2144.23 3099.35 L2143.32 3095.83 L2142.80 3092.71 L2142.67 3091.14 L2142.54 3089.71 L2141.63 3077.98 L2140.58 3064.43 L2139.93 3058.30 L2138.11 3038.63 L2137.85 3035.76 L2137.06 3031.72 L2136.67 3029.64 L2136.67 3025.47 L2136.80 3021.03 L2137.06 3016.60 L2134.85 3016.21 L2133.68 3016.08 L2132.11 3016.08 L2124.68 3016.47 L2123.25 3016.60 L2122.21 3016.86 L2121.43 3017.52 L2120.90 3018.30 L2120.38 3019.73 L2119.60 3019.21 L2118.43 3018.69 L2117.52 3018.30 L2116.47 3018.04 L2115.43 3018.04 L2114.39 3018.30 L2113.61 3018.30 L2110.35 3018.17 L2106.57 3018.17 L2105.27 3018.17 L2103.96 3018.30 L2082.98 3019.60 L2075.95 3020.12 L2071.78 3020.38 L2071.51 3018.56 L2071.51 3016.73 L2071.51 3014.52 L2071.25 3003.44 L2071.12 3001.10 L2070.73 2998.49 L2070.08 2994.45 L2069.43 2991.32 L2068.52 2987.28 L2067.48 2983.37 L2062.91 2971.39 L2057.31 2954.97 L2049.10 2932.16 L2043.50 2915.87 L2041.15 2916.91 L2037.89 2917.70 L2035.16 2917.70 L2032.03 2917.31 L2032.29 2914.57 L2032.03 2912.35 L2025.38 2892.16 L2017.17 2868.83 L2025.38 2864.53 L2037.24 2857.88 L2044.28 2854.76 L2051.45 2851.24 L2063.83 2844.85 L2075.82 2838.60 L2082.59 2834.95 L2084.03 2834.17 L2088.07 2832.08 L2078.29 2811.62 L2075.82 2806.41 L2013.26 2768.23 L2000.23 2760.41 L1976.64 2746.08 L1979.77 2732.00 L1982.25 2719.49 L1982.90 2711.80 L1983.03 2707.50 L1983.81 2700.73 L1984.33 2698.38 L1985.51 2695.38 L1986.42 2693.95 L1987.85 2692.26 L1993.98 2687.43 L1995.02 2686.65 L1984.85 2669.06 L1984.20 2666.58 L1981.99 2659.29 L1980.94 2653.16 L1981.34 2648.47 L1982.77 2644.56 L1983.94 2642.61 L1986.55 2640.00 L1990.33 2637.26 L1996.58 2633.75 L1998.93 2632.70 L1996.19 2625.93 L1993.98 2621.37 L1991.76 2615.89 L1991.50 2615.11 L1990.85 2612.51 L1990.46 2611.07 L1989.42 2606.90 L1989.29 2606.12 L1988.63 2599.73 L2010.27 2602.73 L2015.09 2601.56 L2018.22 2599.08 L2021.21 2593.87 L2024.86 2597.91 L2026.43 2599.47 L2027.47 2600.39 L2028.25 2600.78 L2028.77 2601.04 L2029.16 2601.17 L2029.55 2601.04 L2036.33 2618.24 L2042.71 2636.87 L2045.32 2645.60 L2045.71 2647.95 L2046.23 2651.86 L2046.49 2655.38 L2047.15 2685.74 L2047.28 2696.69 L2047.41 2703.98 L2047.80 2719.10 L2047.93 2720.66 L2048.32 2728.48 L2048.71 2732.65 L2049.49 2736.82 L2050.14 2739.95 L2051.45 2744.51 L2052.49 2747.64 L2055.36 2755.98 L2058.61 2765.49 L2063.57 2778.13 L2070.08 2776.18 L2083.63 2772.40 L2096.54 2768.88 L2106.18 2766.14 L2113.48 2763.80 L2121.43 2761.32 L2128.20 2785.56 L2129.38 2790.12 L2129.77 2792.86 L2129.77 2792.99 L2129.64 2796.51 L2129.11 2801.59 L2128.72 2804.46 L2128.72 2806.41 L2128.98 2807.71 L2129.51 2810.71 L2133.55 2826.22 L2125.21 2829.08 L2104.75 2835.73 L2103.96 2836.77 L2103.96 2837.42 L2104.88 2840.29 L2108.92 2850.98 L2099.01 2856.32 L2108.00 2879.25 L2111.13 2887.33 L2112.96 2892.68 L2118.69 2910.92 L2119.86 2910.53 L2120.64 2910.27 L2121.43 2910.27 L2127.68 2910.01 L2131.46 2910.27 L2137.06 2910.66 L2142.28 2910.14 L2150.62 2908.44 L2156.22 2907.27 L2166.39 2906.75 L2171.73 2906.23 L2182.02 2905.19 L2188.93 2904.40 L2205.74 2902.71 L2211.74 2902.19 L2205.87 2888.38 L2204.44 2884.47 L2203.66 2881.60 L2203.53 2879.39 L2203.92 2877.30 L2205.09 2874.04 L2209.00 2864.66 L2211.21 2860.10 L2212.78 2855.54 L2213.17 2853.06 L2213.43 2848.89 L2223.33 2857.62 L2224.25 2860.36 L2226.85 2868.18 L2227.63 2870.52 L2230.50 2879.39 L2233.89 2890.98 L2238.32 2906.75 L2243.40 2926.17 L2247.57 2942.85 L2250.83 2958.35 L2251.22 2960.57 L2254.87 2979.60 L2255.78 2984.55 L2257.87 2983.90 L2259.04 2983.50 L2259.95 2982.98 L2261.13 2982.20 L2262.17 2981.29 L2263.21 2979.99 L2266.34 2975.82 L2272.33 2966.95 L2273.77 2965.13 L2279.63 2956.79 L2281.72 2952.49 L2282.63 2949.75 L2283.80 2940.89 L2285.50 2933.73 L2286.93 2929.82 L2288.75 2925.65 L2290.84 2921.87 L2291.36 2920.43 L2293.70 2920.43 L2295.79 2919.91 L2297.35 2919.39 L2298.92 2918.74 L2301.00 2917.83 L2308.30 2914.70 L2312.47 2913.01 L2315.08 2911.70 L2319.25 2909.10 L2320.94 2907.92 L2322.37 2906.62 L2325.76 2903.49 L2330.19 2900.23 L2336.32 2895.54 L2339.84 2893.33 L2341.92 2891.89 L2345.96 2889.55 L2348.44 2888.64 L2356.26 2885.64 L2362.25 2883.42 L2364.47 2882.51 L2368.25 2881.08 L2374.11 2879.12 L2377.24 2878.47 L2383.49 2877.04 L2390.14 2875.74 L2392.75 2874.95 L2398.61 2873.13 L2408.90 2869.09 L2414.90 2886.29 L2426.37 2917.70 L2429.63 2926.69 L2436.53 2945.06 L2442.92 2942.46 L2448.78 2939.59 L2450.48 2938.16 L2450.87 2936.98 L2450.35 2933.99 L2443.18 2915.61 L2422.33 2863.62 L2432.23 2859.58 L2433.67 2858.80 L2435.10 2858.01 L2436.53 2857.36 L2437.84 2856.45 L2439.27 2855.93 L2442.27 2855.41 L2464.16 2851.37 L2465.33 2851.11 L2468.46 2850.46 L2472.24 2849.67 L2473.67 2849.15 L2474.98 2848.37 L2478.62 2846.29 L2485.79 2841.99 L2487.10 2840.81 L2488.27 2839.51 L2489.83 2838.08 L2491.27 2837.03 L2493.09 2836.12 L2506.90 2828.95 L2511.86 2827.00 L2512.90 2826.35 L2513.42 2825.70 L2513.68 2824.65 L2513.29 2822.57 L2495.04 2777.48 L2491.53 2768.10 L2487.62 2755.59 L2485.79 2748.55 L2478.62 2719.36 L2489.70 2716.36 L2491.13 2715.97 L2492.44 2715.58 L2498.69 2728.48 L2500.78 2738.13 L2503.12 2748.94 L2503.65 2752.72 L2513.68 2768.62 L2517.07 2772.79 L2519.67 2778.78 L2525.28 2783.47 L2527.36 2786.99 L2528.28 2789.47 L2528.80 2791.16 L2529.97 2795.85 L2533.49 2804.46 L2536.75 2812.66 L2542.74 2824.91 L2544.56 2840.42 L2545.61 2857.23 L2546.39 2859.45 L2547.30 2860.75 L2548.34 2862.05 L2552.51 2866.88 L2552.90 2867.40 L2561.11 2876.65 L2562.42 2877.95 L2564.37 2879.78 L2566.72 2881.86 L2568.54 2883.29 L2570.76 2884.73 L2574.67 2887.46 L2576.23 2888.64 L2577.14 2889.55 L2578.19 2890.59 L2578.84 2891.50 L2586.14 2903.88 L2587.83 2906.88 L2588.74 2910.27 L2601.51 2935.68 L2619.24 2953.14 L2707.72 3013.09 L2777.57 3101.18 L2814.71 3151.09 L2813.15 3151.22 L2787.34 3148.35 L2756.46 3154.34 L2748.64 3155.39 L2747.60 3159.95 L2744.99 3171.15 L2738.74 3174.54 L2734.44 3178.32 L2733.65 3189.01 L2736.65 3193.70 L2738.61 3195.13 L2742.78 3196.96 L2742.65 3199.43 L2742.65 3199.82 L2742.65 3202.43 L2742.39 3207.38 L2742.12 3209.47 L2741.73 3211.29 L2741.21 3212.33 L2740.56 3213.38 L2739.91 3214.55 L2739.78 3215.98 L2739.91 3224.06 L2739.91 3225.36 L2736.65 3227.71 L2736.26 3228.10 L2741.34 3258.72 L2748.51 3302.51 L2745.51 3303.68 L2739.65 3299.12 L2734.83 3298.73 L2728.31 3300.69 L2729.09 3303.94 L2733.52 3310.85 L2736.13 3315.02 L2746.03 3325.44 L2749.81 3332.87 L2750.60 3337.04 L2750.99 3339.00 L2748.64 3346.03 L2740.69 3349.03 L2733.78 3353.72 L2723.10 3369.23 L2719.32 3374.31 L2719.32 3378.48 L2724.14 3385.91 L2726.10 3390.47 L2723.75 3405.46 L2723.36 3417.97 L2717.23 3455.63 L2717.89 3462.40 L2719.97 3469.70 L2721.27 3475.17 L2723.75 3480.91 L2721.27 3486.25 L2744.99 3503.45 L2760.37 3508.01 L2763.89 3507.62 L2765.71 3505.80 L2767.93 3506.84 L2768.06 3509.58 L2767.67 3513.49 L2768.71 3517.53 L2771.45 3521.96 L2775.36 3525.74 L2776.79 3526.78 L2777.83 3528.60 L2780.18 3529.77 L2780.96 3530.43 L2782.91 3531.08 L2783.30 3533.03 L2785.00 3533.81 L2786.95 3533.94 L2787.87 3535.77 L2785.00 3536.68 L2777.31 3530.17 L2774.05 3532.90 L2770.66 3532.90 L2767.41 3530.95 L2764.41 3529.77 L2762.85 3531.47 L2758.81 3532.12 L2755.42 3533.94 L2753.07 3531.73 L2751.90 3528.73 L2748.25 3525.21 L2745.12 3521.70 L2738.87 3520.00 L2737.82 3518.18 L2738.48 3515.44 L2738.22 3512.83 L2737.82 3510.10 L2716.06 3491.46 L2715.41 3491.85 L2714.63 3491.72 L2713.98 3491.33 L2709.42 3487.03 L2706.16 3483.90 L2701.08 3484.56 L2691.69 3488.60 L2688.96 3488.99 L2680.09 3479.34 L2667.32 3468.53 L2670.84 3460.58 L2670.32 3455.63 L2667.97 3451.59 L2663.93 3446.77 L2661.72 3446.90 L2660.81 3449.11 L2662.50 3461.88 L2661.07 3468.40 L2655.86 3478.56 L2640.09 3475.83 L2627.06 3476.22 L2612.72 3478.30 L2609.98 3479.86 L2587.70 3487.55 L2580.79 3489.12 L2561.90 3490.68 L2559.29 3491.33 L2547.30 3494.59 L2524.24 3507.49 L2501.30 3528.34 L2493.87 3534.99 L2489.44 3528.73 L2485.40 3523.13 L2483.45 3520.39 L2481.23 3517.53 L2479.41 3515.18 L2479.02 3510.36 L2480.97 3507.10 L2483.45 3503.32 L2483.32 3501.89 L2482.66 3495.37 L2475.11 3477.39 L2474.19 3471.79 L2476.28 3469.44 L2487.23 3477.13 L2490.48 3479.47 L2497.00 3486.90 L2500.39 3490.68 L2506.25 3496.28 L2509.64 3494.98 L2515.37 3489.77 L2500.78 3468.92 L2494.65 3456.80 L2491.13 3447.94 L2487.10 3446.64 L2476.93 3447.81 L2471.72 3447.16 L2466.50 3442.99 L2453.60 3433.73 L2445.65 3431.00 L2436.01 3431.26 L2433.53 3433.47 L2432.10 3439.21 L2431.71 3445.98 L2442.53 3454.98 L2460.77 3463.45 L2466.50 3467.09 L2462.99 3507.10 L2461.29 3513.22 L2460.77 3519.35 L2463.25 3528.08 L2471.59 3536.94 L2478.49 3542.81 L2474.98 3554.27 L2469.11 3573.56 L2465.85 3588.68 L2466.37 3594.02 L2468.98 3596.10 L2474.58 3598.97 L2474.85 3604.31 L2473.15 3619.17 L2476.93 3631.81 L2481.36 3645.88 L2487.23 3658.78 L2508.86 3696.18 L2526.84 3714.30 L2534.14 3718.47 L2551.99 3714.17 L2568.15 3712.47 L2579.88 3713.65 L2582.75 3717.16 L2588.35 3723.16 L2606.20 3735.54 L2611.16 3738.27 L2612.59 3739.06 L2611.94 3741.53 L2609.72 3750.26 L2607.38 3754.43 L2602.56 3758.99 L2601.25 3763.56 L2600.08 3774.37 L2598.78 3794.44 L2596.95 3804.21 L2597.08 3823.50 L2599.69 3836.79 L2602.30 3844.74 L2610.90 3867.54 L2610.37 3882.79 L2612.20 3893.22 L2610.24 3906.12 L2602.82 3928.53 L2593.43 3942.47 L2589.39 3954.33 L2585.88 3981.18 L2578.19 4006.33 L2572.97 4018.84 L2564.63 4024.44 L2558.51 4025.09 L2549.39 4022.88 L2549.39 4022.88 Z" stroke-linejoin="round"/>
	</defs>
	<use xlink:href="#path_iOjaykFz" style="fill:#CEE3E4;stroke:#CEF5F5;stroke-width:5.76"/>
	<defs>
		<path id="path_OWaAiYaH" d="M2239.36 3920.71 L2239.36 3920.71 L2239.36 3920.71 L2240.01 3921.49 L2241.58 3924.10 L2242.36 3925.01 L2243.92 3924.88 L2244.84 3925.66 L2244.97 3926.58 L2244.58 3928.27 L2243.14 3928.79 L2242.49 3929.96 L2242.88 3933.48 L2244.18 3937.65 L2242.75 3939.35 L2241.19 3937.65 L2240.80 3935.70 L2239.10 3934.39 L2238.06 3934.66 L2236.24 3937.13 L2234.28 3935.70 L2232.72 3933.61 L2231.54 3932.70 L2229.59 3932.83 L2228.94 3933.74 L2227.63 3934.13 L2226.72 3932.05 L2226.85 3929.70 L2229.98 3923.45 L2230.24 3922.80 L2229.59 3920.97 L2228.55 3919.15 L2229.33 3916.67 L2231.93 3912.24 L2232.07 3908.72 L2229.72 3905.47 L2229.33 3902.08 L2230.37 3901.82 L2233.63 3908.07 L2234.93 3911.85 L2235.84 3912.63 L2238.45 3913.02 L2239.49 3912.76 L2241.45 3911.07 L2242.10 3910.81 L2244.71 3911.72 L2245.88 3911.46 L2246.79 3910.03 L2248.62 3911.07 L2246.92 3914.20 L2243.14 3914.20 L2241.06 3912.89 L2239.62 3913.41 L2238.06 3918.11 L2238.45 3919.54 L2239.36 3920.71 L2239.36 3920.71 Z" stroke-linejoin="round"/>
	</defs>
	<use xlink:href="#path_OWaAiYaH" style="fill:#CEE3E4;stroke:#CEF5F5;stroke-width:5.76"/>
	<defs>
		<path id="path_dQKMCscv" d="M2282.11 3809.95 L2282.11 3809.95 L2282.11 3809.95 L2280.67 3809.30 L2271.42 3796.52 L2271.03 3794.57 L2271.55 3793.01 L2275.07 3789.49 L2276.50 3788.58 L2278.72 3789.75 L2285.10 3799.39 L2284.97 3806.69 L2283.80 3808.90 L2282.11 3809.95 L2282.11 3809.95 Z" stroke-linejoin="round"/>
	</defs>
	<use xlink:href="#path_dQKMCscv" style="fill:#CEE3E4;stroke:#CEF5F5;stroke-width:5.76"/>
	<defs>
		<path id="path_AIYHxcmR" d="M2703.42 3573.17 L2703.42 3573.17 L2703.42 3573.17 L2692.21 3570.82 L2689.74 3570.30 L2686.61 3567.04 L2684.00 3565.22 L2682.96 3562.61 L2682.70 3559.10 L2685.18 3555.97 L2687.13 3553.88 L2689.74 3553.49 L2694.69 3553.88 L2698.08 3558.44 L2698.60 3560.92 L2698.99 3564.57 L2699.51 3566.91 L2703.55 3570.30 L2703.42 3573.17 L2703.42 3573.17 Z" stroke-linejoin="round"/>
	</defs>
	<use xlink:href="#path_AIYHxcmR" style="fill:#CEE3E4;stroke:#CEF5F5;stroke-width:5.76"/>
	<defs>
		<path id="path_IvYFKlNS" d="M2809.63 3323.36 L2809.63 3323.36 L2809.63 3323.36 L2805.85 3321.27 L2802.72 3315.54 L2795.03 3309.94 L2789.56 3308.11 L2781.22 3313.98 L2775.49 3326.62 L2773.14 3340.43 L2771.32 3342.39 L2761.41 3327.79 L2760.76 3326.36 L2758.41 3321.01 L2758.28 3314.89 L2758.68 3314.37 L2759.59 3313.07 L2761.15 3311.76 L2757.63 3296.65 L2756.20 3288.44 L2755.03 3281.53 L2754.77 3273.32 L2753.98 3267.06 L2755.29 3263.55 L2756.07 3262.37 L2756.46 3260.16 L2754.90 3236.70 L2754.50 3234.49 L2753.85 3233.05 L2752.55 3231.75 L2750.99 3230.84 L2743.17 3226.93 L2742.65 3223.15 L2742.65 3222.24 L2742.52 3217.29 L2742.52 3216.76 L2742.52 3215.33 L2742.78 3214.42 L2743.17 3213.51 L2744.08 3212.33 L2745.12 3211.42 L2745.90 3211.29 L2746.82 3211.55 L2748.38 3212.33 L2751.25 3213.64 L2755.29 3210.90 L2756.72 3209.60 L2757.11 3208.42 L2759.85 3194.35 L2759.20 3188.75 L2755.68 3182.10 L2750.33 3173.24 L2751.51 3170.50 L2751.64 3165.42 L2751.90 3162.29 L2753.59 3160.86 L2756.20 3161.38 L2786.69 3174.80 L2795.42 3179.36 L2801.03 3176.63 L2804.94 3174.80 L2806.37 3177.80 L2807.54 3180.54 L2807.41 3184.06 L2809.50 3187.44 L2815.88 3188.62 L2829.96 3190.96 L2834.65 3190.83 L2840.12 3184.45 L2842.86 3176.11 L2845.08 3175.98 L2846.64 3175.98 L2849.64 3177.67 L2851.72 3180.15 L2851.20 3183.40 L2847.03 3187.44 L2845.60 3188.75 L2842.34 3195.26 L2840.90 3199.04 L2841.43 3201.26 L2842.99 3204.25 L2847.29 3208.95 L2849.51 3211.16 L2851.20 3212.33 L2849.11 3215.59 L2821.49 3232.01 L2805.20 3242.44 L2796.34 3250.51 L2791.65 3257.42 L2789.69 3264.72 L2789.56 3273.45 L2791.65 3281.92 L2796.60 3284.92 L2807.02 3287.39 L2809.63 3290.13 L2809.76 3299.12 L2811.84 3304.33 L2812.76 3315.41 L2812.37 3319.84 L2812.24 3321.01 L2809.63 3323.36 L2809.63 3323.36 Z" stroke-linejoin="round"/>
	</defs>
	<use xlink:href="#path_IvYFKlNS" style="fill:#CEE3E4;stroke:#CEF5F5;stroke-width:5.76"/>
	<defs>
		<path id="path_WqWQcDsF" d="M2422.33 2863.62 L2422.33 2863.62 L2422.33 2863.62 L2443.18 2915.61 L2450.35 2933.99 L2450.87 2936.98 L2450.48 2938.16 L2448.78 2939.59 L2442.92 2942.46 L2436.53 2945.06 L2429.63 2926.69 L2426.37 2917.70 L2414.90 2886.29 L2408.90 2869.09 L2398.61 2873.13 L2392.75 2874.95 L2390.14 2875.74 L2383.49 2877.04 L2377.24 2878.47 L2374.11 2879.12 L2368.25 2881.08 L2364.47 2882.51 L2362.25 2883.42 L2356.26 2885.64 L2348.44 2888.64 L2345.96 2889.55 L2341.92 2891.89 L2339.84 2893.33 L2336.32 2895.54 L2330.19 2900.23 L2325.76 2903.49 L2322.37 2906.62 L2320.94 2907.92 L2319.25 2909.10 L2315.08 2911.70 L2312.47 2913.01 L2308.30 2914.70 L2301.00 2917.83 L2298.92 2918.74 L2297.35 2919.39 L2295.79 2919.91 L2293.70 2920.43 L2291.36 2920.43 L2290.84 2921.87 L2288.75 2925.65 L2286.93 2929.82 L2285.50 2933.73 L2283.80 2940.89 L2282.63 2949.75 L2281.72 2952.49 L2279.63 2956.79 L2273.77 2965.13 L2272.33 2966.95 L2266.34 2975.82 L2263.21 2979.99 L2262.17 2981.29 L2261.13 2982.20 L2259.95 2982.98 L2259.04 2983.50 L2257.87 2983.90 L2255.78 2984.55 L2254.87 2979.60 L2251.22 2960.57 L2250.83 2958.35 L2247.57 2942.85 L2243.40 2926.17 L2238.32 2906.75 L2233.89 2890.98 L2230.50 2879.39 L2227.63 2870.52 L2226.85 2868.18 L2224.25 2860.36 L2223.33 2857.62 L2213.43 2848.89 L2213.17 2853.06 L2212.78 2855.54 L2211.21 2860.10 L2209.00 2864.66 L2205.09 2874.04 L2203.92 2877.30 L2203.53 2879.39 L2203.66 2881.60 L2204.44 2884.47 L2205.87 2888.38 L2211.74 2902.19 L2205.74 2902.71 L2188.93 2904.40 L2182.02 2905.19 L2171.73 2906.23 L2166.39 2906.75 L2156.22 2907.27 L2150.62 2908.44 L2142.28 2910.14 L2137.06 2910.66 L2131.46 2910.27 L2127.68 2910.01 L2121.43 2910.27 L2120.64 2910.27 L2119.86 2910.53 L2118.69 2910.92 L2112.96 2892.68 L2111.13 2887.33 L2108.00 2879.25 L2099.01 2856.32 L2108.92 2850.98 L2104.88 2840.29 L2103.96 2837.42 L2103.96 2836.77 L2104.75 2835.73 L2125.21 2829.08 L2133.55 2826.22 L2129.51 2810.71 L2128.98 2807.71 L2128.72 2806.41 L2128.72 2804.46 L2129.11 2801.59 L2129.64 2796.51 L2129.77 2792.99 L2129.77 2792.86 L2129.38 2790.12 L2128.20 2785.56 L2121.43 2761.32 L2113.48 2763.80 L2106.18 2766.14 L2096.54 2768.88 L2083.63 2772.40 L2070.08 2776.18 L2063.57 2778.13 L2058.61 2765.49 L2055.36 2755.98 L2052.49 2747.64 L2051.45 2744.51 L2050.14 2739.95 L2049.49 2736.82 L2048.71 2732.65 L2048.32 2728.48 L2047.93 2720.66 L2047.80 2719.10 L2047.41 2703.98 L2048.19 2702.29 L2049.23 2700.73 L2050.40 2699.42 L2053.14 2697.08 L2054.70 2695.25 L2059.13 2691.87 L2063.57 2688.22 L2068.00 2683.92 L2069.69 2681.70 L2071.25 2679.22 L2072.69 2675.97 L2077.38 2660.98 L2079.72 2652.64 L2081.03 2646.65 L2083.37 2635.44 L2083.24 2629.97 L2082.46 2623.84 L2081.42 2617.20 L2080.38 2611.98 L2077.77 2601.30 L2076.60 2597.13 L2072.04 2584.88 L2090.93 2581.36 L2088.72 2569.11 L2085.72 2548.00 L2085.07 2541.22 L2075.95 2540.44 L2069.82 2540.05 L2061.61 2539.66 L2060.57 2528.19 L2073.47 2527.93 L2094.84 2522.85 L2126.77 2393.58 L2143.58 2399.44 L2143.06 2404.40 L2142.02 2415.08 L2140.06 2424.20 L2138.11 2429.94 L2134.07 2436.97 L2134.07 2438.15 L2134.20 2439.06 L2136.93 2439.32 L2139.41 2440.62 L2141.63 2443.62 L2142.54 2445.05 L2145.01 2450.27 L2146.97 2455.61 L2149.31 2464.86 L2151.79 2476.98 L2161.43 2496.27 L2174.86 2493.53 L2201.05 2486.49 L2206.26 2505.91 L2224.25 2505.65 L2224.38 2511.90 L2224.12 2517.12 L2223.72 2521.29 L2223.07 2524.15 L2220.60 2533.01 L2219.55 2537.44 L2219.29 2538.75 L2219.03 2539.92 L2219.03 2541.09 L2218.90 2542.40 L2218.90 2543.96 L2218.90 2545.52 L2219.29 2554.91 L2247.83 2550.09 L2246.53 2544.87 L2243.92 2533.67 L2241.84 2522.72 L2241.06 2514.77 L2240.54 2508.91 L2240.14 2504.48 L2240.14 2498.61 L2240.01 2469.55 L2243.40 2470.20 L2244.31 2476.72 L2245.36 2479.85 L2250.05 2488.71 L2251.48 2492.23 L2253.18 2497.70 L2252.26 2498.61 L2251.22 2500.31 L2250.31 2503.17 L2250.18 2507.73 L2250.31 2510.47 L2250.83 2513.08 L2251.61 2514.64 L2252.13 2515.29 L2253.05 2515.68 L2255.26 2515.42 L2256.56 2521.29 L2258.52 2528.71 L2261.39 2538.49 L2262.43 2540.83 L2263.99 2543.05 L2265.95 2543.57 L2269.99 2542.79 L2282.63 2538.88 L2285.89 2538.49 L2287.58 2538.49 L2289.14 2539.14 L2291.75 2541.48 L2295.40 2546.31 L2305.30 2559.86 L2312.21 2574.06 L2315.47 2581.49 L2315.86 2582.27 L2316.25 2582.79 L2316.64 2583.32 L2317.16 2583.84 L2317.81 2584.36 L2318.33 2584.62 L2318.99 2584.88 L2319.64 2585.14 L2320.42 2585.27 L2333.84 2585.92 L2334.89 2586.05 L2336.06 2586.31 L2336.97 2586.70 L2339.06 2587.75 L2339.71 2586.31 L2340.88 2583.97 L2341.66 2582.66 L2342.83 2580.84 L2344.40 2578.75 L2344.79 2578.23 L2348.05 2573.67 L2353.65 2565.85 L2357.95 2567.81 L2361.08 2568.98 L2363.16 2569.50 L2364.99 2570.15 L2369.68 2572.24 L2370.98 2573.15 L2371.90 2573.93 L2372.94 2575.24 L2373.85 2576.80 L2375.80 2581.36 L2376.98 2584.23 L2383.49 2599.21 L2385.45 2604.69 L2386.49 2606.90 L2387.92 2609.38 L2388.58 2610.03 L2389.62 2611.59 L2392.88 2614.98 L2395.87 2616.94 L2397.83 2618.37 L2399.78 2619.41 L2402.13 2620.32 L2405.39 2620.98 L2412.03 2622.41 L2414.25 2622.41 L2416.07 2622.28 L2418.03 2621.89 L2420.37 2620.98 L2426.11 2617.85 L2428.06 2616.94 L2429.89 2616.28 L2431.97 2615.89 L2433.80 2615.76 L2435.88 2615.89 L2437.57 2616.41 L2439.27 2617.07 L2441.35 2618.24 L2442.79 2619.28 L2449.69 2626.19 L2450.74 2626.97 L2451.52 2628.01 L2452.43 2629.58 L2453.21 2632.05 L2453.73 2634.01 L2454.12 2635.96 L2455.56 2643.00 L2456.60 2646.91 L2457.51 2649.64 L2458.69 2652.12 L2460.12 2654.73 L2461.81 2657.20 L2462.86 2658.64 L2464.03 2659.81 L2465.33 2660.85 L2466.50 2661.63 L2468.20 2661.89 L2470.02 2661.24 L2472.76 2660.98 L2473.80 2660.98 L2475.11 2661.50 L2476.67 2662.68 L2477.71 2663.85 L2478.23 2664.89 L2478.75 2666.19 L2479.80 2670.89 L2480.32 2674.40 L2480.84 2676.36 L2481.49 2677.92 L2487.10 2683.79 L2490.48 2688.87 L2489.83 2695.25 L2488.14 2699.81 L2488.66 2705.94 L2492.44 2715.58 L2491.13 2715.97 L2489.70 2716.36 L2478.62 2719.36 L2485.79 2748.55 L2487.62 2755.59 L2491.53 2768.10 L2495.04 2777.48 L2513.29 2822.57 L2513.68 2824.65 L2513.42 2825.70 L2512.90 2826.35 L2511.86 2827.00 L2506.90 2828.95 L2493.09 2836.12 L2491.27 2837.03 L2489.83 2838.08 L2488.27 2839.51 L2487.10 2840.81 L2485.79 2841.99 L2478.62 2846.29 L2474.98 2848.37 L2473.67 2849.15 L2472.24 2849.67 L2468.46 2850.46 L2465.33 2851.11 L2464.16 2851.37 L2442.27 2855.41 L2439.27 2855.93 L2437.84 2856.45 L2436.53 2857.36 L2435.10 2858.01 L2433.67 2858.80 L2432.23 2859.58 L2422.33 2863.62 L2422.33 2863.62 Z" stroke-linejoin="round"/>
	</defs>
	<use xlink:href="#path_WqWQcDsF" style="fill:#CEE3E4;stroke:#CEF5F5;stroke-width:5.76"/>
	<defs>
		<path id="path_IcmVWfUj" d="M2342.83 2580.84 L2342.83 2580.84 L2341.66 2582.66 L2340.88 2583.97 L2339.71 2586.31 L2339.06 2587.75 L2336.97 2586.70 L2336.06 2586.31 L2334.89 2586.05 L2333.84 2585.92 L2320.42 2585.27 L2319.64 2585.14 L2318.99 2584.88 L2318.33 2584.62 L2317.81 2584.36 L2317.16 2583.84 L2316.64 2583.32 L2316.25 2582.79 L2315.86 2582.27 L2315.47 2581.49 L2312.21 2574.06 L2305.30 2559.86 L2295.40 2546.31 L2291.75 2541.48 L2289.14 2539.14 L2287.58 2538.49 L2285.89 2538.49 L2282.63 2538.88 L2269.99 2542.79 L2265.95 2543.57 L2263.99 2543.05 L2262.43 2540.83 L2261.39 2538.49 L2258.52 2528.71 L2256.56 2521.29 L2255.26 2515.42 L2253.05 2515.68 L2252.13 2515.29 L2251.61 2514.64 L2250.83 2513.08 L2250.31 2510.47 L2250.18 2507.73 L2250.31 2503.17 L2251.22 2500.31 L2252.26 2498.61 L2253.18 2497.70 L2251.48 2492.23 L2250.05 2488.71 L2245.36 2479.85 L2244.31 2476.72 L2243.40 2470.20 L2240.01 2469.55 L2240.14 2498.61 L2240.14 2504.48 L2240.54 2508.91 L2241.06 2514.77 L2241.84 2522.72 L2243.92 2533.67 L2246.53 2544.87 L2247.83 2550.09 L2219.29 2554.91 L2218.90 2545.52 L2218.90 2543.96 L2218.90 2542.40 L2219.03 2541.09 L2219.03 2539.92 L2219.29 2538.75 L2219.55 2537.44 L2220.60 2533.01 L2223.07 2524.15 L2223.72 2521.29 L2224.12 2517.12 L2224.38 2511.90 L2224.25 2505.65 L2206.26 2505.91 L2201.05 2486.49 L2174.86 2493.53 L2161.43 2496.27 L2151.79 2476.98 L2149.31 2464.86 L2146.97 2455.61 L2145.01 2450.27 L2142.54 2445.05 L2141.63 2443.62 L2139.41 2440.62 L2136.93 2439.32 L2134.20 2439.06 L2134.07 2438.15 L2134.07 2436.97 L2138.11 2429.94 L2140.06 2424.20 L2142.02 2415.08 L2143.06 2404.40 L2143.58 2399.44 L2126.77 2393.58 L2061.61 2321.78 L2061.74 2318.00 L2061.74 2309.14 L2061.48 2300.02 L2060.96 2291.02 L2060.31 2284.25 L2059.66 2277.99 L2056.79 2255.84 L2051.97 2210.62 L2051.19 2203.32 L2047.41 2169.05 L2045.84 2154.33 L2044.67 2144.29 L2044.28 2140.38 L2043.76 2138.30 L2042.71 2135.04 L2037.37 2120.18 L2030.86 2102.59 L2024.60 2085.39 L2020.43 2074.05 L2018.35 2068.45 L2016.00 2062.46 L1992.54 2071.84 L1983.68 2075.75 L1981.60 2076.53 L1979.25 2076.79 L1977.30 2076.79 L1975.34 2076.27 L1972.73 2075.23 L1970.65 2075.75 L1968.70 2076.27 L1966.22 2077.18 L1944.07 2085.91 L1941.33 2072.62 L1940.55 2067.28 L1940.03 2061.80 L1939.76 2056.85 L1939.11 2037.96 L1938.98 2030.79 L1938.46 2021.80 L1937.81 2013.07 L1936.64 2000.56 L1934.68 1975.02 L1934.16 1968.37 L1933.77 1962.51 L1933.38 1959.51 L1932.99 1957.03 L1932.60 1953.64 L1932.21 1951.82 L1931.95 1950.13 L1931.55 1948.43 L1931.29 1946.61 L1969.74 1832.98 L1997.50 1751.01 L1998.15 1749.05 L2000.36 1742.54 L1912.66 1624.48 L1909.40 1624.74 L1900.54 1625.13 L1846.33 1628.12 L1805.80 1630.21 L1803.32 1627.47 L1802.67 1626.95 L1801.11 1625.52 L1797.72 1622.52 L1793.29 1618.74 L1791.33 1617.44 L1788.60 1615.48 L1784.95 1612.75 L1783.38 1611.70 L1781.04 1610.14 L1779.87 1609.36 L1778.82 1608.71 L1777.13 1607.67 L1775.30 1606.62 L1773.87 1605.58 L1772.44 1604.41 L1771.27 1603.23 L1769.83 1601.80 L1768.14 1599.85 L1764.75 1595.94 L1767.62 1593.46 L1778.56 1584.08 L1786.90 1576.78 L1792.25 1572.09 L1797.98 1566.62 L1802.28 1562.58 L1806.32 1558.93 L1808.01 1557.36 L1814.53 1551.89 L1821.44 1546.16 L1825.74 1542.38 L1827.95 1540.42 L1829.91 1538.60 L1832.51 1536.12 L1837.34 1531.69 L1840.85 1528.70 L1843.72 1526.22 L1845.42 1524.79 L1849.32 1521.27 L1852.58 1518.53 L1855.58 1516.06 L1857.53 1514.49 L1860.01 1512.80 L1862.10 1511.36 L1864.44 1510.06 L1866.53 1508.76 L1869.39 1507.19 L1872.13 1505.89 L1874.74 1504.59 L1877.73 1503.28 L1880.34 1502.24 L1883.47 1501.07 L1887.51 1499.64 L1892.72 1498.07 L1899.63 1495.99 L1904.06 1494.68 L1915.13 1491.56 L1922.69 1489.34 L1931.29 1486.87 L1937.55 1485.17 L1951.10 1481.13 L1965.44 1477.22 L1976.77 1504.85 L1979.64 1511.23 L1985.38 1525.96 L2006.10 1553.46 L2010.40 1549.94 L2012.61 1552.41 L2011.18 1559.19 L2007.66 1563.75 L2001.01 1570.79 L1998.54 1576.65 L2047.93 1576.39 L2109.96 1565.57 L2185.41 1555.15 L2299.05 1512.41 L2310.91 1484.26 L2315.08 1488.56 L2316.90 1486.87 L2318.07 1483.61 L2324.46 1484.39 L2327.98 1484.39 L2330.85 1482.30 L2333.06 1483.61 L2335.54 1487.91 L2336.97 1488.82 L2338.79 1489.86 L2341.79 1502.76 L2344.53 1510.45 L2343.36 1513.45 L2350.52 1516.06 L2337.75 1571.31 L2336.32 1577.30 L2321.33 1603.23 L2300.61 1638.81 L2296.57 1652.75 L2281.46 1641.81 L2277.94 1637.77 L2274.42 1638.68 L2268.16 1641.29 L2264.51 1646.76 L2258.78 1651.97 L2252.66 1652.75 L2247.96 1654.19 L2245.88 1657.31 L2244.97 1661.09 L2243.92 1664.74 L2241.45 1667.22 L2237.54 1671.39 L2235.84 1677.77 L2234.02 1687.03 L2225.68 1693.28 L2224.51 1699.67 L2227.63 1712.44 L2224.77 1723.38 L2226.46 1733.03 L2228.68 1746.58 L2229.85 1757.92 L2230.89 1763.65 L2231.28 1764.56 L2231.80 1765.60 L2232.72 1766.78 L2233.63 1767.69 L2234.41 1768.34 L2235.97 1769.12 L2237.41 1769.64 L2238.97 1769.90 L2240.54 1770.30 L2241.84 1770.95 L2243.40 1771.47 L2245.10 1771.86 L2246.53 1772.12 L2247.96 1771.99 L2249.27 1771.99 L2250.83 1771.86 L2252.39 1771.60 L2254.35 1771.47 L2255.91 1771.73 L2257.74 1772.38 L2260.34 1773.81 L2262.56 1775.25 L2263.86 1776.16 L2265.17 1777.33 L2266.99 1779.03 L2268.42 1780.72 L2269.60 1782.54 L2271.16 1785.80 L2272.59 1788.28 L2273.90 1791.28 L2274.81 1793.62 L2275.33 1795.45 L2275.85 1797.27 L2275.98 1799.09 L2276.11 1800.92 L2276.11 1806.26 L2276.37 1815.38 L2276.50 1817.21 L2276.89 1819.16 L2277.15 1820.34 L2277.55 1821.51 L2278.07 1822.42 L2278.59 1823.46 L2278.85 1824.77 L2278.85 1826.07 L2278.98 1827.63 L2278.98 1828.81 L2278.85 1830.11 L2278.59 1831.28 L2278.07 1832.19 L2277.94 1833.76 L2277.94 1835.06 L2278.07 1836.36 L2278.33 1837.80 L2278.46 1839.23 L2278.20 1840.53 L2277.81 1841.58 L2277.15 1842.75 L2275.85 1844.05 L2274.81 1844.96 L2273.90 1845.62 L2273.25 1846.40 L2272.72 1847.44 L2272.07 1848.22 L2271.55 1848.74 L2270.64 1849.00 L2269.86 1849.13 L2269.21 1849.53 L2268.81 1850.18 L2268.68 1850.83 L2268.68 1851.87 L2268.94 1852.78 L2269.21 1853.70 L2269.86 1854.35 L2270.51 1855.00 L2271.42 1855.65 L2272.46 1856.43 L2276.37 1858.52 L2277.15 1859.04 L2277.68 1859.43 L2277.94 1860.08 L2278.07 1860.99 L2277.94 1861.91 L2277.42 1863.73 L2276.89 1865.81 L2276.76 1866.99 L2276.50 1868.81 L2276.37 1870.24 L2276.24 1872.07 L2276.11 1874.02 L2275.85 1875.85 L2275.72 1877.02 L2275.59 1878.32 L2275.33 1879.37 L2275.07 1880.54 L2274.55 1881.97 L2273.77 1883.67 L2271.55 1888.36 L2271.42 1900.87 L2270.38 1913.64 L2268.29 1926.80 L2267.25 1928.10 L2266.34 1928.76 L2264.90 1929.02 L2262.04 1928.89 L2260.47 1930.32 L2259.43 1931.49 L2258.91 1932.93 L2258.39 1934.75 L2259.69 1966.68 L2259.69 1967.85 L2259.04 1974.63 L2257.61 1978.01 L2259.56 1985.83 L2259.82 1996.65 L2258.00 2001.86 L2258.00 2017.89 L2257.74 2019.71 L2257.61 2020.50 L2257.35 2021.15 L2256.83 2021.93 L2256.30 2022.84 L2255.78 2023.49 L2255.26 2024.27 L2254.74 2025.19 L2254.35 2026.23 L2254.09 2027.14 L2253.70 2028.18 L2248.75 2048.64 L2247.44 2063.24 L2246.92 2068.58 L2246.40 2072.10 L2246.53 2074.71 L2250.05 2086.82 L2251.87 2094.77 L2252.66 2102.33 L2255.78 2110.54 L2263.99 2116.54 L2271.94 2131.78 L2274.29 2140.90 L2274.29 2149.64 L2273.64 2157.84 L2267.64 2185.99 L2265.69 2193.81 L2264.90 2202.54 L2266.73 2209.84 L2270.64 2214.92 L2278.33 2214.92 L2282.89 2216.49 L2288.23 2218.05 L2291.23 2223.00 L2294.10 2245.55 L2295.40 2268.22 L2294.23 2276.56 L2293.97 2286.59 L2293.05 2294.93 L2288.49 2307.57 L2277.55 2317.48 L2274.42 2321.78 L2272.59 2329.60 L2273.38 2337.68 L2278.20 2343.41 L2283.28 2345.36 L2289.93 2344.32 L2295.14 2352.14 L2296.18 2358.14 L2294.49 2366.34 L2292.92 2369.21 L2291.62 2371.17 L2287.84 2375.73 L2287.58 2382.50 L2291.23 2401.92 L2293.57 2418.60 L2291.62 2430.20 L2287.19 2433.19 L2283.67 2437.89 L2278.46 2442.19 L2278.72 2454.44 L2281.32 2457.95 L2292.53 2471.51 L2298.53 2478.54 L2303.22 2483.63 L2304.26 2484.80 L2304.91 2486.10 L2305.17 2486.75 L2305.30 2487.67 L2305.30 2488.32 L2304.65 2494.05 L2304.39 2495.88 L2304.26 2498.74 L2304.52 2501.61 L2305.04 2504.09 L2305.82 2506.56 L2306.61 2508.26 L2311.17 2515.29 L2316.25 2522.59 L2318.60 2526.24 L2326.54 2539.53 L2337.36 2555.17 L2339.58 2558.03 L2341.66 2559.99 L2344.14 2561.68 L2347.13 2563.12 L2353.65 2565.85 L2348.05 2573.67 L2344.79 2578.23 L2344.40 2578.75 L2342.83 2580.84 L2342.83 2580.84 Z" stroke-linejoin="round"/>
	</defs>
	<use xlink:href="#path_IcmVWfUj" style="fill:#9DC8CA;stroke:#9DD7F0;stroke-width:5.76"/>
	<defs>
		<path id="path_tpkrAeJt" d="M893.84 2447.79 L893.84 2447.79 L865.69 2415.34 L840.41 2377.55 L768.74 2306.01 L767.44 2304.71 L766.39 2303.53 L739.81 2272.39 L670.09 2186.38 L667.61 2182.73 L613.92 2116.80 L597.37 2095.56 L594.90 2093.47 L585.25 2086.95 L575.35 2077.57 L560.49 2058.81 L535.86 2033.79 L525.83 2022.06 L519.44 2013.20 L509.93 2000.95 L483.21 1973.06 L447.64 1935.27 L436.95 1922.76 L428.09 1913.25 L426.27 1911.95 L424.70 1911.03 L421.44 1910.51 L293.60 1773.81 L295.69 1772.77 L297.51 1771.73 L299.73 1770.30 L308.98 1764.17 L310.81 1762.87 L312.24 1761.56 L313.54 1760.13 L314.58 1758.70 L315.37 1757.00 L316.02 1755.05 L316.41 1752.83 L316.93 1750.10 L317.32 1747.49 L317.71 1744.36 L317.97 1735.89 L318.23 1731.98 L318.49 1728.99 L318.89 1726.25 L319.15 1723.64 L319.54 1721.17 L319.93 1718.69 L320.19 1716.22 L320.32 1714.26 L320.32 1712.18 L320.06 1709.96 L319.41 1707.09 L318.89 1704.88 L318.62 1703.45 L318.62 1702.40 L318.75 1701.49 L319.28 1700.71 L319.93 1700.06 L320.84 1699.67 L321.62 1699.41 L322.66 1699.54 L323.45 1700.06 L324.49 1700.84 L327.88 1703.71 L329.96 1705.27 L332.31 1706.96 L335.04 1708.92 L338.04 1710.74 L341.30 1713.09 L342.73 1714.00 L344.69 1715.30 L347.55 1716.74 L349.51 1717.13 L351.46 1717.00 L354.20 1716.48 L356.29 1715.69 L357.85 1715.04 L359.28 1714.13 L360.72 1712.83 L362.41 1711.39 L364.24 1709.83 L366.45 1707.48 L369.45 1704.49 L371.92 1702.14 L373.36 1700.84 L374.66 1699.80 L375.70 1699.01 L377.01 1698.36 L378.70 1697.45 L380.39 1697.06 L382.48 1696.54 L386.26 1695.89 L388.73 1695.50 L391.08 1695.24 L392.90 1695.24 L394.34 1695.50 L395.64 1696.02 L396.81 1696.80 L397.86 1697.84 L399.16 1699.28 L400.46 1700.84 L401.64 1702.14 L403.46 1703.84 L405.15 1705.01 L407.24 1706.44 L409.72 1708.01 L416.36 1711.92 L420.01 1714.00 L422.75 1715.17 L425.61 1716.48 L429.78 1718.17 L441.90 1722.99 L443.34 1723.64 L445.03 1724.16 L446.33 1724.43 L447.38 1724.16 L448.42 1723.77 L449.46 1723.12 L447.64 1722.34 L445.81 1721.69 L442.82 1720.65 L440.47 1719.73 L438.91 1719.08 L436.30 1718.17 L430.18 1716.09 L427.31 1715.17 L423.79 1713.74 L420.27 1711.92 L412.45 1707.61 L408.93 1705.66 L406.59 1703.84 L405.68 1702.92 L404.63 1701.36 L403.98 1699.93 L403.07 1697.84 L402.42 1696.02 L401.38 1694.45 L400.46 1693.28 L399.03 1692.11 L397.73 1691.07 L396.42 1690.15 L395.38 1689.24 L394.34 1688.20 L393.43 1686.76 L393.04 1684.68 L393.69 1681.94 L395.38 1680.38 L397.99 1677.25 L399.81 1675.30 L400.33 1673.34 L399.68 1670.87 L399.03 1668.26 L397.99 1667.09 L396.42 1666.44 L394.21 1665.78 L393.43 1664.61 L391.21 1662.14 L390.04 1660.44 L388.47 1658.23 L387.43 1656.14 L387.04 1654.06 L385.48 1651.71 L383.52 1650.41 L381.31 1647.67 L380.66 1645.98 L380.26 1643.89 L380.79 1642.07 L382.09 1640.37 L380.52 1637.25 L378.57 1634.77 L376.75 1630.60 L375.57 1624.48 L373.49 1620.83 L370.62 1613.92 L366.84 1608.58 L363.06 1606.62 L356.94 1602.19 L349.77 1593.20 L343.51 1577.30 L335.70 1579.00 L333.61 1568.83 L332.18 1567.53 L331.40 1567.40 L330.35 1564.01 L329.83 1563.10 L329.18 1563.23 L327.88 1560.49 L328.14 1559.84 L327.88 1557.36 L328.53 1553.98 L328.92 1551.89 L328.92 1550.33 L329.44 1548.50 L329.83 1546.29 L329.70 1544.99 L328.66 1541.99 L327.10 1540.29 L326.18 1538.34 L324.23 1537.17 L323.97 1536.51 L321.49 1537.43 L319.41 1537.43 L318.36 1535.73 L316.41 1535.34 L315.11 1534.56 L313.67 1534.82 L311.46 1533.65 L310.41 1531.43 L308.20 1529.74 L307.42 1529.09 L304.16 1526.22 L303.90 1525.18 L304.29 1524.79 L305.20 1524.40 L306.24 1524.53 L307.81 1524.00 L310.02 1523.74 L311.20 1523.48 L313.80 1522.70 L315.11 1521.79 L316.67 1520.10 L317.84 1519.05 L320.58 1517.62 L320.84 1517.10 L318.49 1509.93 L319.02 1509.41 L319.41 1509.80 L320.45 1509.28 L320.32 1508.24 L320.97 1507.72 L320.84 1505.63 L321.49 1504.72 L324.23 1503.55 L324.75 1504.46 L324.10 1504.85 L324.49 1505.76 L325.27 1505.24 L325.14 1504.72 L327.88 1503.28 L328.27 1502.37 L328.40 1501.46 L326.96 1495.73 L326.05 1495.34 L324.75 1495.86 L324.10 1493.90 L322.01 1487.91 L320.97 1486.08 L319.15 1484.13 L318.49 1482.83 L317.84 1481.91 L317.32 1481.52 L316.80 1479.57 L318.23 1479.05 L318.36 1479.96 L319.15 1479.57 L319.28 1478.26 L320.06 1476.83 L318.75 1471.88 L319.15 1470.84 L320.06 1470.19 L320.45 1469.14 L320.58 1467.45 L320.97 1466.80 L319.28 1461.19 L318.10 1459.89 L315.89 1455.59 L314.85 1455.33 L314.58 1453.51 L313.80 1453.24 L313.15 1450.90 L312.11 1449.47 L309.24 1446.86 L308.72 1445.95 L307.68 1445.82 L306.50 1444.12 L304.68 1443.08 L301.55 1441.65 L300.64 1441.78 L299.08 1439.69 L296.99 1438.13 L294.26 1435.26 L292.82 1432.66 L290.74 1430.96 L290.22 1429.01 L290.09 1427.96 L290.87 1426.14 L291.39 1424.58 L291.65 1421.97 L291.39 1419.62 L291.26 1418.71 L290.35 1416.11 L289.69 1415.58 L288.26 1415.98 L287.22 1416.89 L285.52 1417.54 L284.22 1419.10 L283.96 1420.54 L283.57 1421.19 L283.44 1421.84 L282.79 1422.10 L282.27 1422.36 L281.88 1423.01 L282.14 1424.19 L283.05 1424.84 L283.44 1426.14 L283.31 1427.31 L283.96 1428.22 L284.74 1427.96 L285.13 1428.22 L285.52 1430.05 L286.05 1430.18 L286.57 1431.09 L286.44 1431.61 L285.78 1433.18 L285.78 1434.09 L285.00 1434.48 L284.22 1434.22 L282.14 1434.09 L280.83 1433.57 L280.31 1433.05 L279.14 1432.39 L278.49 1431.35 L277.97 1431.09 L276.92 1429.79 L276.01 1429.40 L275.23 1428.22 L274.06 1428.09 L273.27 1427.44 L271.84 1426.92 L270.54 1427.31 L269.76 1427.57 L269.23 1427.31 L268.71 1427.05 L268.58 1425.88 L268.06 1426.01 L268.45 1427.70 L268.32 1428.22 L267.54 1428.22 L267.80 1429.40 L267.15 1429.66 L267.02 1429.01 L266.63 1429.01 L266.89 1430.05 L266.37 1430.83 L265.06 1430.70 L263.24 1429.79 L261.55 1430.44 L261.29 1431.74 L261.02 1432.13 L259.72 1432.53 L258.68 1431.87 L258.29 1430.70 L255.81 1430.96 L255.16 1428.88 L254.25 1428.22 L253.73 1426.92 L252.94 1426.66 L250.21 1422.36 L249.17 1421.06 L249.04 1419.89 L249.82 1419.62 L249.17 1417.15 L248.51 1416.63 L247.34 1415.19 L245.52 1415.72 L245.26 1413.11 L246.95 1412.46 L247.08 1409.98 L247.47 1409.07 L252.29 1407.77 L253.86 1406.98 L255.42 1404.25 L257.64 1401.38 L258.16 1400.08 L259.98 1398.77 L259.98 1397.73 L261.42 1397.08 L261.02 1395.13 L261.81 1393.56 L263.63 1392.52 L265.19 1392.00 L265.59 1390.43 L267.15 1390.17 L268.45 1392.00 L270.54 1391.22 L271.45 1393.04 L272.75 1391.87 L273.53 1391.74 L275.75 1388.22 L275.75 1385.35 L275.49 1382.22 L278.10 1376.10 L279.53 1375.06 L281.35 1371.80 L282.27 1368.54 L282.53 1364.76 L282.66 1363.85 L284.87 1355.38 L283.96 1349.52 L284.48 1347.95 L285.91 1347.69 L286.31 1346.52 L282.53 1346.65 L276.53 1359.81 L273.93 1371.41 L265.46 1367.76 L257.25 1365.15 L228.05 1359.03 L223.49 1357.47 L218.80 1356.29 L212.55 1355.77 L196.65 1350.82 L194.82 1347.69 L191.70 1332.45 L189.74 1329.97 L187.40 1329.71 L183.75 1330.49 L181.40 1332.97 L181.27 1338.31 L180.10 1344.30 L176.06 1347.95 L170.98 1349.26 L164.07 1348.60 L145.82 1345.09 L140.74 1342.09 L134.10 1339.22 L132.27 1337.79 L130.97 1336.49 L128.10 1331.92 L126.80 1330.62 L124.97 1330.23 L112.85 1332.18 L109.08 1332.05 L92.79 1330.36 L64.51 1328.67 L62.55 1329.06 L60.99 1326.19 L59.16 1322.93 L56.82 1319.67 L53.17 1314.72 L49.00 1309.77 L46.91 1307.03 L45.35 1304.17 L43.92 1301.30 L42.35 1297.91 L41.31 1295.05 L40.40 1291.79 L39.36 1287.10 L36.62 1276.67 L35.58 1272.50 L35.19 1270.16 L34.79 1265.99 L34.40 1253.09 L33.75 1230.54 L33.23 1215.69 L33.10 1205.78 L33.36 1202.13 L35.45 1182.98 L36.36 1178.03 L36.75 1171.25 L36.62 1168.90 L36.10 1166.30 L32.19 1151.83 L28.15 1141.02 L151.82 1005.36 L172.28 983.34 L184.27 969.13 L256.33 891.60 L269.23 877.52 L294.52 847.03 L376.75 760.76 L381.18 755.42 L405.68 725.19 L419.62 705.64 L420.92 702.91 L496.77 626.93 L578.61 537.28 L682.99 422.73 L685.60 420.00 L783.33 311.45 L865.82 219.71 L886.02 199.38 L906.61 176.70 L975.42 98.91 L1022.33 45.87 L1024.03 45.09 L1030.94 41.57 L1031.59 41.31 L1032.50 41.18 L1033.15 41.05 L1033.80 41.31 L1035.11 42.48 L1035.89 43.39 L1037.19 44.57 L1037.58 44.83 L1038.23 44.83 L1038.75 44.83 L1039.41 44.57 L1039.93 44.31 L1040.45 43.92 L1041.10 43.39 L1041.62 43.13 L1042.14 42.87 L1042.66 42.61 L1043.19 42.61 L1043.84 42.74 L1044.49 43.26 L1046.70 46.26 L1047.23 46.91 L1047.75 47.56 L1048.66 48.22 L1049.57 48.87 L1050.87 49.65 L1051.66 50.17 L1052.31 50.69 L1052.70 51.08 L1053.09 51.73 L1053.48 52.52 L1054.65 55.12 L1054.91 55.90 L1055.17 56.69 L1055.30 57.86 L1055.83 65.03 L1055.96 67.11 L1056.09 67.50 L1056.22 67.89 L1056.48 68.28 L1056.87 68.67 L1057.39 68.94 L1062.08 70.50 L1062.73 70.89 L1063.25 71.41 L1064.95 73.37 L1098.05 127.97 L1095.96 179.83 L1275.54 364.48 L1299.39 362.27 L1294.70 374.78 L1295.87 375.95 L1297.04 377.12 L1298.87 378.82 L1300.17 379.86 L1301.73 381.29 L1302.65 382.34 L1303.69 383.90 L1304.86 385.59 L1306.03 387.55 L1306.56 388.98 L1307.34 390.81 L1307.73 392.50 L1308.25 394.07 L1309.03 397.32 L1309.42 399.02 L1309.94 400.19 L1310.73 401.49 L1312.03 402.93 L1313.20 403.97 L1314.77 405.14 L1317.11 407.10 L1318.54 408.27 L1319.98 409.31 L1321.15 409.83 L1322.32 410.22 L1324.02 410.48 L1325.58 410.74 L1327.93 410.88 L1330.27 411.01 L1332.49 411.14 L1334.31 411.27 L1336.01 411.53 L1337.83 411.92 L1339.53 412.31 L1341.74 413.09 L1343.44 413.87 L1345.39 414.78 L1348.65 416.48 L1352.30 419.35 L1354.51 422.21 L1358.16 429.12 L1361.42 434.20 L1364.55 438.89 L1366.89 442.67 L1374.58 449.71 L1377.32 452.97 L1380.84 458.05 L1383.44 466.65 L1384.75 471.21 L1386.31 473.69 L1388.92 475.12 L1391.65 477.60 L1393.74 480.20 L1396.60 485.02 L1398.56 487.76 L1401.17 489.58 L1404.55 489.06 L1409.51 486.72 L1411.07 484.63 L1412.76 483.20 L1417.06 483.20 L1421.89 483.72 L1425.93 484.76 L1429.97 486.46 L1433.61 490.50 L1436.61 494.67 L1439.74 498.05 L1443.26 500.14 L1446.65 501.18 L1451.08 504.70 L1455.51 508.74 L1458.24 512.13 L1460.46 515.65 L1463.72 517.34 L1472.32 518.64 L1476.36 520.60 L1480.27 523.34 L1483.53 525.16 L1486.26 524.77 L1490.69 521.51 L1492.39 520.60 L1494.99 521.77 L1496.69 524.51 L1496.82 527.90 L1499.03 538.71 L1501.38 544.18 L1505.55 550.57 L1513.76 564.90 L1521.58 579.89 L1524.84 583.54 L1527.83 585.49 L1532.00 586.41 L1536.56 585.10 L1544.38 583.54 L1548.55 583.41 L1551.94 584.84 L1555.33 588.36 L1560.28 591.49 L1567.45 596.31 L1568.62 598.00 L1570.06 601.13 L1568.49 602.70 L1562.63 614.94 L1562.37 618.33 L1564.19 620.81 L1567.32 626.41 L1570.19 629.54 L1573.31 633.19 L1574.10 636.32 L1575.01 645.31 L1576.05 650.39 L1578.53 654.56 L1580.61 659.64 L1581.65 663.94 L1580.09 668.63 L1574.10 672.80 L1573.18 675.67 L1572.14 677.36 L1570.58 678.15 L1568.10 678.15 L1565.89 678.28 L1563.67 678.28 L1561.32 678.28 L1559.63 678.54 L1558.33 678.93 L1556.63 679.84 L1554.94 681.27 L1553.51 682.71 L1552.59 684.01 L1552.33 685.44 L1552.59 686.88 L1553.38 688.70 L1554.68 691.57 L1556.24 695.09 L1558.07 699.00 L1560.15 703.17 L1564.71 713.46 L1565.63 715.02 L1566.80 717.24 L1567.06 721.93 L1569.40 726.23 L1573.31 730.92 L1578.40 736.40 L1597.55 771.71 L1704.28 975.78 L1725.65 1016.70 L1738.03 1040.41 L1740.12 1044.32 L1771.27 1104.01 L1775.96 1113.13 L1856.88 1268.33 L1872.91 1299.35 L1881.38 1315.24 L1963.87 1474.23 L1965.44 1477.22 L1951.10 1481.13 L1937.55 1485.17 L1931.29 1486.87 L1922.69 1489.34 L1915.13 1491.56 L1904.06 1494.68 L1899.63 1495.99 L1892.72 1498.07 L1887.51 1499.64 L1883.47 1501.07 L1880.34 1502.24 L1877.73 1503.28 L1874.74 1504.59 L1872.13 1505.89 L1869.39 1507.19 L1866.53 1508.76 L1864.44 1510.06 L1862.10 1511.36 L1860.01 1512.80 L1857.53 1514.49 L1855.58 1516.06 L1852.58 1518.53 L1849.32 1521.27 L1845.42 1524.79 L1843.72 1526.22 L1840.85 1528.70 L1837.34 1531.69 L1832.51 1536.12 L1829.91 1538.60 L1827.95 1540.42 L1825.74 1542.38 L1821.44 1546.16 L1814.53 1551.89 L1808.01 1557.36 L1806.32 1558.93 L1802.28 1562.58 L1797.98 1566.62 L1792.25 1572.09 L1786.90 1576.78 L1778.56 1584.08 L1767.62 1593.46 L1764.75 1595.94 L1756.67 1603.23 L1744.03 1615.48 L1738.03 1620.83 L1726.18 1631.77 L1711.58 1644.67 L1700.50 1654.58 L1694.64 1659.79 L1690.73 1663.18 L1684.34 1669.17 L1678.35 1674.65 L1669.36 1682.73 L1663.75 1687.94 L1659.58 1691.72 L1652.68 1697.84 L1646.42 1703.84 L1636.91 1712.96 L1632.09 1717.39 L1629.74 1719.73 L1627.27 1722.21 L1624.92 1724.30 L1621.14 1728.07 L1619.19 1729.77 L1616.97 1731.98 L1614.36 1734.59 L1612.28 1736.41 L1610.06 1738.50 L1607.59 1740.84 L1605.11 1743.19 L1602.24 1745.93 L1599.90 1748.27 L1596.12 1751.92 L1594.30 1753.75 L1593.25 1754.66 L1590.26 1757.66 L1588.43 1759.35 L1587.00 1760.78 L1585.43 1762.48 L1583.74 1764.17 L1583.09 1764.95 L1581.78 1766.26 L1578.53 1769.64 L1575.27 1772.90 L1572.53 1775.64 L1566.41 1781.76 L1558.98 1789.06 L1552.07 1795.97 L1548.03 1800.01 L1544.90 1803.00 L1541.26 1806.65 L1537.22 1810.56 L1532.92 1814.73 L1529.27 1818.38 L1526.53 1821.12 L1520.80 1826.85 L1514.02 1833.37 L1506.07 1841.19 L1502.42 1844.57 L1500.60 1846.27 L1498.12 1848.74 L1495.65 1851.22 L1491.48 1855.39 L1489.26 1857.74 L1487.04 1859.82 L1484.83 1862.04 L1482.61 1864.12 L1480.92 1865.68 L1479.36 1867.12 L1477.92 1868.42 L1474.40 1871.68 L1472.06 1873.89 L1468.67 1877.02 L1465.80 1879.76 L1463.07 1882.49 L1460.20 1885.36 L1460.46 1887.97 L1460.72 1889.27 L1460.85 1890.44 L1461.24 1891.62 L1461.63 1892.79 L1462.81 1896.18 L1463.07 1897.09 L1463.07 1897.87 L1463.07 1898.91 L1462.81 1899.83 L1462.41 1901.00 L1461.63 1902.82 L1458.90 1906.99 L1457.20 1909.60 L1456.42 1910.90 L1455.77 1912.73 L1455.12 1914.29 L1454.33 1916.11 L1449.25 1924.98 L1448.47 1926.67 L1447.95 1928.23 L1447.30 1930.45 L1446.78 1932.27 L1445.99 1933.58 L1445.08 1934.62 L1443.91 1935.66 L1442.74 1936.44 L1441.30 1937.49 L1435.83 1941.14 L1434.79 1942.18 L1434.01 1943.35 L1433.22 1944.91 L1432.44 1946.35 L1431.66 1948.56 L1425.01 1967.46 L1423.45 1967.07 L1422.15 1966.68 L1420.97 1966.68 L1419.80 1966.68 L1418.76 1966.94 L1417.72 1967.46 L1416.93 1967.98 L1416.02 1968.76 L1405.86 1977.62 L1404.81 1978.66 L1403.90 1979.58 L1403.25 1980.49 L1402.73 1981.40 L1402.34 1982.31 L1401.95 1983.75 L1401.69 1984.79 L1401.69 1985.96 L1401.69 1987.40 L1401.82 1988.70 L1402.21 1991.31 L1403.64 1998.08 L1404.94 2004.47 L1405.34 2006.81 L1405.47 2008.90 L1405.60 2011.11 L1405.60 2013.20 L1405.47 2015.67 L1405.34 2018.02 L1404.68 2020.23 L1404.03 2022.32 L1403.25 2024.67 L1402.34 2026.62 L1401.30 2028.57 L1399.86 2030.66 L1398.56 2032.22 L1397.26 2033.66 L1395.95 2034.96 L1394.78 2035.87 L1393.61 2036.65 L1392.17 2037.57 L1389.31 2039.13 L1384.75 2041.61 L1372.89 2047.60 L1358.16 2054.77 L1355.69 2056.07 L1354.38 2057.11 L1353.21 2058.16 L1352.56 2059.07 L1351.91 2060.50 L1351.38 2062.07 L1350.99 2064.02 L1350.73 2065.71 L1350.47 2068.19 L1350.21 2072.36 L1349.95 2076.92 L1349.69 2080.70 L1349.69 2082.26 L1349.43 2083.96 L1349.17 2085.65 L1348.91 2086.69 L1348.65 2087.61 L1348.26 2088.39 L1348.00 2089.30 L1346.95 2091.91 L1345.13 2095.03 L1343.70 2097.12 L1342.65 2098.29 L1339.92 2101.16 L1339.27 2101.94 L1335.75 2095.82 L1334.83 2094.25 L1333.14 2091.78 L1330.40 2087.35 L1324.28 2078.48 L1321.02 2074.31 L1318.94 2071.45 L1317.37 2069.36 L1316.33 2067.93 L1313.72 2064.54 L1313.07 2063.89 L1312.42 2063.11 L1310.60 2065.19 L1309.68 2066.37 L1306.56 2070.01 L1303.30 2073.92 L1299.52 2078.48 L1297.69 2080.57 L1295.87 2082.52 L1293.00 2085.91 L1289.88 2089.43 L1287.14 2092.69 L1284.01 2096.21 L1281.27 2099.20 L1278.93 2101.68 L1276.45 2104.16 L1274.11 2106.24 L1272.41 2107.67 L1271.50 2108.46 L1269.94 2109.76 L1267.33 2111.71 L1264.85 2113.28 L1261.99 2114.97 L1257.04 2117.58 L1254.95 2118.62 L1252.60 2119.66 L1250.00 2120.71 L1247.91 2121.49 L1247.13 2121.75 L1240.49 2124.22 L1233.06 2126.83 L1228.37 2128.39 L1223.54 2130.22 L1218.85 2131.78 L1211.42 2134.39 L1206.73 2136.08 L1201.91 2137.78 L1192.14 2141.30 L1156.30 2153.94 L1151.61 2155.63 L1146.14 2156.41 L1142.62 2156.93 L1140.66 2156.93 L1138.97 2156.54 L1137.01 2155.76 L1135.19 2154.72 L1132.97 2153.15 L1130.76 2151.33 L1129.19 2149.90 L1126.98 2147.94 L1123.72 2145.20 L1121.77 2143.64 L1114.73 2137.91 L1108.08 2132.43 L1103.13 2127.87 L1099.09 2124.22 L1096.09 2121.23 L1093.49 2118.62 L1090.10 2115.10 L1087.75 2112.89 L1085.54 2110.93 L1083.58 2109.50 L1081.24 2108.20 L1079.02 2106.89 L1077.46 2106.11 L1075.63 2105.46 L1073.55 2104.68 L1071.59 2104.29 L1070.81 2104.29 L1068.60 2104.68 L1064.17 2105.85 L1060.26 2106.89 L1060.13 2108.07 L1060.00 2109.50 L1059.74 2111.32 L1059.21 2113.93 L1058.56 2119.27 L1058.04 2123.31 L1057.65 2126.96 L1057.78 2130.22 L1058.17 2133.87 L1058.82 2137.78 L1060.13 2142.21 L1062.08 2147.94 L1063.38 2151.72 L1063.78 2153.54 L1063.91 2154.98 L1063.78 2156.41 L1063.25 2157.58 L1062.60 2158.63 L1061.56 2159.67 L1060.26 2160.58 L1058.17 2161.49 L1052.44 2163.71 L1047.10 2165.79 L1045.01 2166.84 L1043.45 2167.75 L1042.27 2168.79 L1041.75 2169.57 L1041.49 2171.53 L1041.36 2173.09 L1041.23 2174.39 L1041.23 2175.70 L1041.36 2177.13 L1041.62 2178.17 L1042.01 2179.87 L1042.27 2181.04 L1042.92 2182.60 L1044.88 2185.34 L1047.49 2189.77 L1049.18 2192.51 L1049.70 2193.55 L1050.22 2194.59 L1054.78 2202.67 L1057.26 2206.97 L1059.74 2211.01 L1061.56 2213.75 L1064.43 2217.79 L1066.90 2221.18 L1065.99 2222.09 L1065.08 2222.61 L1064.17 2223.13 L1063.12 2223.65 L1053.48 2227.56 L1044.49 2231.21 L1042.79 2231.73 L1041.23 2232.12 L1039.15 2232.51 L1037.32 2232.64 L1035.89 2232.64 L1034.32 2232.38 L1032.63 2231.99 L1030.81 2231.47 L1028.85 2230.69 L1027.03 2230.04 L1025.07 2229.00 L1022.86 2227.95 L1021.16 2227.04 L1019.34 2226.00 L1018.03 2225.48 L1016.99 2225.09 L1015.56 2224.83 L1013.99 2224.69 L1012.43 2224.69 L1010.87 2224.83 L1008.78 2224.83 L1006.96 2224.96 L1005.39 2225.09 L1003.44 2225.35 L984.15 2229.91 L986.63 2213.23 L987.67 2210.62 L973.60 2213.88 L936.33 2218.96 L936.07 2221.31 L933.20 2232.12 L930.07 2246.72 L927.20 2257.01 L933.20 2284.38 L935.80 2290.11 L920.04 2296.76 L911.96 2300.02 L907.66 2328.42 L903.23 2347.97 L898.92 2352.01 L898.14 2419.38 L893.84 2447.79 L893.84 2447.79 Z" stroke-linejoin="round"/>
	</defs>
	<use xlink:href="#path_tpkrAeJt" style="fill:#6BACAF;stroke:#6BB4D2;stroke-width:5.76"/>
	<defs>
		<path id="path_leNWUtDO" d="M1795.37 3230.84 L1795.37 3230.84 L1793.42 3231.23 L1791.86 3231.62 L1790.03 3231.88 L1788.47 3232.14 L1786.90 3232.40 L1785.60 3232.40 L1784.17 3232.40 L1780.91 3232.27 L1777.26 3232.01 L1766.31 3231.23 L1760.45 3230.71 L1757.19 3230.45 L1754.32 3230.06 L1751.98 3229.80 L1749.89 3229.40 L1748.59 3229.01 L1747.03 3228.49 L1745.98 3228.10 L1744.16 3227.32 L1741.29 3225.63 L1737.90 3223.41 L1733.34 3220.15 L1731.00 3218.59 L1728.78 3217.55 L1726.31 3216.76 L1723.44 3216.11 L1722.66 3215.98 L1719.79 3215.59 L1714.71 3215.20 L1712.23 3214.81 L1710.15 3214.16 L1708.19 3213.25 L1706.50 3212.07 L1705.06 3210.77 L1703.76 3209.34 L1702.85 3208.03 L1701.81 3205.95 L1701.15 3204.51 L1700.50 3202.82 L1699.72 3200.34 L1698.94 3198.00 L1694.64 3183.14 L1693.47 3179.23 L1692.94 3176.89 L1692.55 3174.54 L1692.16 3172.07 L1691.90 3169.33 L1691.77 3165.81 L1691.64 3162.16 L1691.77 3158.51 L1691.90 3152.26 L1693.47 3134.80 L1693.86 3131.28 L1694.25 3127.63 L1694.38 3124.50 L1694.38 3122.16 L1694.51 3120.20 L1694.38 3117.86 L1694.38 3115.38 L1694.25 3112.90 L1694.25 3110.30 L1693.73 3105.09 L1692.42 3091.66 L1692.16 3088.80 L1692.03 3086.32 L1691.90 3083.85 L1691.51 3078.24 L1691.51 3076.29 L1691.38 3074.07 L1691.38 3072.12 L1691.38 3069.90 L1692.03 3062.47 L1692.29 3060.39 L1692.29 3058.56 L1692.42 3056.74 L1692.29 3054.79 L1692.03 3052.83 L1691.77 3050.75 L1691.12 3048.53 L1690.34 3045.79 L1689.43 3042.67 L1686.56 3034.20 L1683.17 3024.55 L1677.44 3008.13 L1676.39 3004.22 L1676.00 3003.05 L1675.61 3001.75 L1674.96 2998.88 L1674.57 2996.01 L1674.44 2993.02 L1674.44 2991.97 L1674.57 2987.54 L1674.70 2983.24 L1674.83 2981.68 L1676.26 2981.68 L1677.18 2981.68 L1678.35 2981.55 L1679.39 2981.29 L1680.43 2981.03 L1685.91 2979.33 L1681.61 2911.83 L1679.00 2893.46 L1678.61 2883.03 L1679.78 2871.44 L1678.48 2869.74 L1675.09 2870.00 L1673.27 2870.00 L1671.96 2867.92 L1668.31 2861.40 L1665.84 2852.80 L1666.10 2845.11 L1667.27 2840.03 L1668.31 2835.21 L1667.92 2828.56 L1665.45 2819.44 L1663.23 2810.97 L1662.58 2800.55 L1772.18 2778.91 L1774.39 2778.00 L1770.61 2773.44 L1768.92 2772.66 L1768.01 2771.62 L1762.79 2764.84 L1753.93 2753.37 L1746.37 2743.47 L1725.00 2715.58 L1719.53 2708.28 L1713.80 2700.60 L1712.10 2698.51 L1707.93 2693.04 L1707.15 2692.00 L1700.76 2682.87 L1698.55 2679.49 L1695.03 2673.88 L1691.77 2668.15 L1690.99 2666.85 L1687.73 2660.33 L1685.39 2655.64 L1681.09 2645.73 L1680.70 2644.69 L1678.22 2638.05 L1698.03 2630.62 L1693.86 2616.68 L1687.73 2599.47 L1682.65 2586.05 L1662.58 2593.35 L1649.42 2555.56 L1647.72 2551.13 L1645.64 2546.57 L1643.29 2541.75 L1640.69 2537.58 L1641.86 2536.66 L1642.64 2536.14 L1643.69 2535.49 L1653.98 2530.41 L1658.54 2528.19 L1659.06 2527.41 L1659.58 2524.15 L1659.32 2522.98 L1651.37 2496.79 L1649.03 2497.57 L1647.99 2497.83 L1641.99 2499.00 L1633.39 2497.18 L1632.22 2497.44 L1631.17 2497.70 L1630.52 2498.09 L1620.36 2504.35 L1619.06 2505.39 L1617.88 2506.43 L1617.23 2507.47 L1616.71 2508.65 L1613.45 2505.13 L1614.36 2504.22 L1615.15 2503.56 L1616.06 2502.91 L1617.36 2502.13 L1621.92 2499.26 L1623.23 2498.35 L1624.14 2497.57 L1625.05 2496.66 L1625.70 2495.88 L1626.22 2494.96 L1626.61 2493.92 L1627.00 2493.01 L1627.27 2492.10 L1627.53 2491.05 L1627.66 2489.88 L1627.66 2488.45 L1627.66 2484.41 L1627.53 2481.80 L1627.13 2478.80 L1625.44 2465.25 L1624.92 2460.43 L1625.44 2450.66 L1625.83 2441.53 L1625.70 2439.58 L1620.88 2421.86 L1620.10 2418.34 L1611.89 2376.64 L1611.63 2375.34 L1610.71 2372.08 L1609.54 2370.12 L1608.63 2369.34 L1607.59 2368.95 L1606.02 2368.69 L1590.91 2371.04 L1586.48 2371.69 L1583.87 2371.69 L1579.18 2371.43 L1575.14 2350.71 L1572.01 2344.84 L1569.80 2331.94 L1569.80 2317.35 L1573.31 2309.53 L1576.18 2300.41 L1574.36 2291.81 L1568.36 2283.60 L1562.11 2279.43 L1557.81 2278.90 L1555.20 2280.86 L1552.85 2280.60 L1549.99 2277.21 L1546.34 2271.61 L1545.56 2270.43 L1545.69 2266.79 L1547.51 2263.40 L1550.12 2260.53 L1552.46 2259.75 L1554.55 2250.24 L1536.30 2233.82 L1503.99 2204.89 L1493.04 2202.67 L1469.97 2206.32 L1414.33 2177.52 L1421.50 2167.10 L1425.67 2161.62 L1427.75 2155.11 L1429.18 2150.68 L1428.40 2144.68 L1425.67 2140.12 L1421.89 2136.47 L1417.46 2131.39 L1413.81 2129.18 L1412.63 2126.31 L1412.89 2120.05 L1415.89 2111.97 L1413.68 2095.43 L1410.81 2088.65 L1402.08 2067.54 L1398.95 2061.28 L1398.17 2059.98 L1397.26 2058.42 L1396.34 2056.33 L1395.56 2054.51 L1394.78 2052.42 L1393.87 2050.34 L1393.09 2047.99 L1391.26 2042.91 L1390.61 2041.35 L1390.09 2040.43 L1389.70 2039.65 L1389.31 2039.13 L1392.17 2037.57 L1393.61 2036.65 L1394.78 2035.87 L1395.95 2034.96 L1397.26 2033.66 L1398.56 2032.22 L1399.86 2030.66 L1401.30 2028.57 L1402.34 2026.62 L1403.25 2024.67 L1404.03 2022.32 L1404.68 2020.23 L1405.34 2018.02 L1405.47 2015.67 L1405.60 2013.20 L1405.60 2011.11 L1405.47 2008.90 L1405.34 2006.81 L1404.94 2004.47 L1403.64 1998.08 L1402.21 1991.31 L1401.82 1988.70 L1401.69 1987.40 L1401.69 1985.96 L1401.69 1984.79 L1401.95 1983.75 L1402.34 1982.31 L1402.73 1981.40 L1403.25 1980.49 L1403.90 1979.58 L1404.81 1978.66 L1405.86 1977.62 L1416.02 1968.76 L1416.93 1967.98 L1417.72 1967.46 L1418.76 1966.94 L1419.80 1966.68 L1420.97 1966.68 L1422.15 1966.68 L1423.45 1967.07 L1425.01 1967.46 L1431.66 1948.56 L1432.44 1946.35 L1433.22 1944.91 L1434.01 1943.35 L1434.79 1942.18 L1435.83 1941.14 L1441.30 1937.49 L1442.74 1936.44 L1443.91 1935.66 L1445.08 1934.62 L1445.99 1933.58 L1446.78 1932.27 L1447.30 1930.45 L1447.95 1928.23 L1448.47 1926.67 L1449.25 1924.98 L1454.33 1916.11 L1455.12 1914.29 L1455.77 1912.73 L1456.42 1910.90 L1457.20 1909.60 L1458.90 1906.99 L1461.63 1902.82 L1462.41 1901.00 L1462.81 1899.83 L1463.07 1898.91 L1463.07 1897.87 L1463.07 1897.09 L1462.81 1896.18 L1461.63 1892.79 L1461.24 1891.62 L1460.85 1890.44 L1460.72 1889.27 L1460.46 1887.97 L1460.20 1885.36 L1463.07 1882.49 L1465.80 1879.76 L1468.67 1877.02 L1472.06 1873.89 L1474.40 1871.68 L1477.92 1868.42 L1479.36 1867.12 L1480.92 1865.68 L1482.61 1864.12 L1484.83 1862.04 L1487.04 1859.82 L1489.26 1857.74 L1491.48 1855.39 L1495.65 1851.22 L1498.12 1848.74 L1500.60 1846.27 L1502.42 1844.57 L1506.07 1841.19 L1514.02 1833.37 L1520.80 1826.85 L1526.53 1821.12 L1529.27 1818.38 L1532.92 1814.73 L1537.22 1810.56 L1541.26 1806.65 L1544.90 1803.00 L1548.03 1800.01 L1552.07 1795.97 L1558.98 1789.06 L1566.41 1781.76 L1572.53 1775.64 L1575.27 1772.90 L1578.53 1769.64 L1581.78 1766.26 L1583.09 1764.95 L1583.74 1764.17 L1585.43 1762.48 L1587.00 1760.78 L1588.43 1759.35 L1590.26 1757.66 L1593.25 1754.66 L1594.30 1753.75 L1596.12 1751.92 L1599.90 1748.27 L1602.24 1745.93 L1605.11 1743.19 L1607.59 1740.84 L1610.06 1738.50 L1612.28 1736.41 L1614.36 1734.59 L1616.97 1731.98 L1619.19 1729.77 L1621.14 1728.07 L1624.92 1724.30 L1627.27 1722.21 L1629.74 1719.73 L1632.09 1717.39 L1636.91 1712.96 L1646.42 1703.84 L1652.68 1697.84 L1659.58 1691.72 L1663.75 1687.94 L1669.36 1682.73 L1678.35 1674.65 L1684.34 1669.17 L1690.73 1663.18 L1694.64 1659.79 L1700.50 1654.58 L1711.58 1644.67 L1726.18 1631.77 L1738.03 1620.83 L1744.03 1615.48 L1756.67 1603.23 L1764.75 1595.94 L1768.14 1599.85 L1769.83 1601.80 L1771.27 1603.23 L1772.44 1604.41 L1773.87 1605.58 L1775.30 1606.62 L1777.13 1607.67 L1778.82 1608.71 L1779.87 1609.36 L1781.04 1610.14 L1783.38 1611.70 L1784.95 1612.75 L1788.60 1615.48 L1791.33 1617.44 L1793.29 1618.74 L1797.72 1622.52 L1801.11 1625.52 L1802.67 1626.95 L1803.32 1627.47 L1805.80 1630.21 L1846.33 1628.12 L1900.54 1625.13 L1909.40 1624.74 L1912.66 1624.48 L2000.36 1742.54 L1998.15 1749.05 L1997.50 1751.01 L1969.74 1832.98 L1931.29 1946.61 L1931.55 1948.43 L1931.95 1950.13 L1932.21 1951.82 L1932.60 1953.64 L1932.99 1957.03 L1933.38 1959.51 L1933.77 1962.51 L1934.16 1968.37 L1934.68 1975.02 L1936.64 2000.56 L1937.81 2013.07 L1938.46 2021.80 L1938.98 2030.79 L1939.11 2037.96 L1939.76 2056.85 L1940.03 2061.80 L1940.55 2067.28 L1941.33 2072.62 L1944.07 2085.91 L1966.22 2077.18 L1968.70 2076.27 L1970.65 2075.75 L1972.73 2075.23 L1975.34 2076.27 L1977.30 2076.79 L1979.25 2076.79 L1981.60 2076.53 L1983.68 2075.75 L1992.54 2071.84 L2016.00 2062.46 L2018.35 2068.45 L2020.43 2074.05 L2024.60 2085.39 L2030.86 2102.59 L2037.37 2120.18 L2042.71 2135.04 L2043.76 2138.30 L2044.28 2140.38 L2044.67 2144.29 L2045.84 2154.33 L2047.41 2169.05 L2051.19 2203.32 L2051.97 2210.62 L2056.79 2255.84 L2059.66 2277.99 L2060.31 2284.25 L2060.96 2291.02 L2061.48 2300.02 L2061.74 2309.14 L2061.74 2318.00 L2061.61 2321.78 L2126.77 2393.58 L2094.84 2522.85 L2073.47 2527.93 L2060.57 2528.19 L2061.61 2539.66 L2069.82 2540.05 L2075.95 2540.44 L2085.07 2541.22 L2085.72 2548.00 L2088.72 2569.11 L2090.93 2581.36 L2072.04 2584.88 L2076.60 2597.13 L2077.77 2601.30 L2080.38 2611.98 L2081.42 2617.20 L2082.46 2623.84 L2083.24 2629.97 L2083.37 2635.44 L2081.03 2646.65 L2079.72 2652.64 L2077.38 2660.98 L2072.69 2675.97 L2071.25 2679.22 L2069.69 2681.70 L2068.00 2683.92 L2063.57 2688.22 L2059.13 2691.87 L2054.70 2695.25 L2053.14 2697.08 L2050.40 2699.42 L2049.23 2700.73 L2048.19 2702.29 L2047.41 2703.98 L2047.28 2696.69 L2047.15 2685.74 L2046.49 2655.38 L2046.23 2651.86 L2045.71 2647.95 L2045.32 2645.60 L2042.71 2636.87 L2036.33 2618.24 L2029.55 2601.04 L2029.16 2601.17 L2028.77 2601.04 L2028.25 2600.78 L2027.47 2600.39 L2026.43 2599.47 L2024.86 2597.91 L2021.21 2593.87 L2018.22 2599.08 L2015.09 2601.56 L2010.27 2602.73 L1988.63 2599.73 L1989.29 2606.12 L1989.42 2606.90 L1990.46 2611.07 L1990.85 2612.51 L1991.50 2615.11 L1991.76 2615.89 L1993.98 2621.37 L1996.19 2625.93 L1998.93 2632.70 L1996.58 2633.75 L1990.33 2637.26 L1986.55 2640.00 L1983.94 2642.61 L1982.77 2644.56 L1981.34 2648.47 L1980.94 2653.16 L1981.99 2659.29 L1984.20 2666.58 L1984.85 2669.06 L1995.02 2686.65 L1993.98 2687.43 L1987.85 2692.26 L1986.42 2693.95 L1985.51 2695.38 L1984.33 2698.38 L1983.81 2700.73 L1983.03 2707.50 L1982.90 2711.80 L1982.25 2719.49 L1979.77 2732.00 L1976.64 2746.08 L2000.23 2760.41 L2013.26 2768.23 L2075.82 2806.41 L2078.29 2811.62 L2088.07 2832.08 L2084.03 2834.17 L2082.59 2834.95 L2075.82 2838.60 L2063.83 2844.85 L2051.45 2851.24 L2044.28 2854.76 L2037.24 2857.88 L2025.38 2864.53 L2017.17 2868.83 L2025.38 2892.16 L2032.03 2912.35 L2032.29 2914.57 L2032.03 2917.31 L2035.16 2917.70 L2037.89 2917.70 L2041.15 2916.91 L2043.50 2915.87 L2049.10 2932.16 L2057.31 2954.97 L2062.91 2971.39 L2067.48 2983.37 L2068.52 2987.28 L2069.43 2991.32 L2070.08 2994.45 L2070.73 2998.49 L2071.12 3001.10 L2071.25 3003.44 L2071.51 3014.52 L2071.51 3016.73 L2071.51 3018.56 L2071.78 3020.38 L2075.95 3020.12 L2082.98 3019.60 L2103.96 3018.30 L2105.27 3018.17 L2106.57 3018.17 L2110.35 3018.17 L2113.61 3018.30 L2114.39 3018.30 L2115.43 3018.04 L2116.47 3018.04 L2117.52 3018.30 L2118.43 3018.69 L2119.60 3019.21 L2120.38 3019.73 L2120.90 3018.30 L2121.43 3017.52 L2122.21 3016.86 L2123.25 3016.60 L2124.68 3016.47 L2132.11 3016.08 L2133.68 3016.08 L2134.85 3016.21 L2137.06 3016.60 L2136.80 3021.03 L2136.67 3025.47 L2136.67 3029.64 L2132.76 3036.28 L2130.55 3040.45 L2124.29 3049.18 L2118.82 3058.04 L2115.95 3062.73 L2114.52 3065.47 L2113.74 3064.95 L2113.22 3064.69 L2111.52 3064.17 L2102.79 3062.08 L2099.14 3061.56 L2095.62 3061.17 L2085.98 3061.56 L2081.94 3061.82 L2078.94 3062.21 L2076.47 3062.86 L2075.16 3063.39 L2074.77 3060.78 L2073.86 3056.35 L2072.69 3052.05 L2071.25 3047.88 L2070.86 3046.58 L2069.17 3042.02 L2065.13 3031.59 L2064.35 3029.37 L2063.30 3026.90 L2063.04 3026.12 L2060.70 3021.82 L2058.74 3022.60 L2057.18 3023.25 L2055.23 3024.03 L2053.40 3025.07 L2051.71 3026.12 L2020.43 3043.84 L2009.35 3050.62 L1992.93 3029.37 L1979.25 3011.13 L1976.77 3008.00 L1974.82 3005.40 L1961.92 2988.07 L1960.09 2985.72 L1943.02 3000.97 L1936.12 3005.53 L1933.25 3000.97 L1931.82 2998.75 L1930.38 2996.93 L1928.69 2994.84 L1927.25 2993.15 L1925.17 2991.06 L1923.08 2989.11 L1919.44 2985.85 L1906.14 2973.99 L1905.49 2973.34 L1897.28 2966.04 L1888.94 2958.61 L1886.33 2956.66 L1883.60 2954.71 L1881.51 2953.53 L1879.43 2952.36 L1876.82 2950.93 L1872.39 2949.23 L1869.00 2948.06 L1867.05 2947.41 L1859.75 2945.45 L1853.76 2944.28 L1852.32 2944.02 L1849.19 2942.98 L1848.67 2942.85 L1846.07 2942.07 L1843.33 2941.02 L1841.90 2940.11 L1840.59 2941.28 L1839.42 2942.46 L1838.12 2944.15 L1834.73 2948.97 L1838.51 2949.88 L1840.85 2950.28 L1845.29 2964.61 L1862.88 3012.04 L1865.35 3015.17 L1871.09 3025.60 L1873.43 3033.15 L1870.96 3040.19 L1858.71 3047.23 L1854.54 3059.87 L1840.59 3075.90 L1837.60 3076.29 L1821.18 3083.32 L1803.58 3089.58 L1805.80 3095.44 L1811.40 3111.34 L1821.05 3137.27 L1825.87 3135.19 L1837.08 3130.11 L1845.29 3126.98 L1852.45 3123.20 L1857.40 3120.07 L1859.75 3126.33 L1864.05 3136.23 L1866.40 3140.92 L1849.46 3148.74 L1833.04 3156.82 L1829.13 3158.38 L1845.55 3201.91 L1846.46 3203.08 L1847.24 3204.78 L1847.76 3206.34 L1848.15 3208.03 L1848.41 3210.12 L1848.80 3212.85 L1841.38 3213.38 L1839.81 3213.64 L1837.99 3213.90 L1836.81 3214.16 L1835.77 3214.55 L1829.26 3216.89 L1821.18 3220.15 L1813.62 3223.41 L1811.27 3224.45 L1806.97 3226.28 L1802.80 3228.10 L1799.80 3229.27 L1797.59 3230.06 L1795.37 3230.84 L1795.37 3230.84 Z" stroke-linejoin="round"/>
	</defs>
	<use xlink:href="#path_leNWUtDO" style="fill:#09757A;stroke:#097D9B;stroke-width:5.76"/>
	<defs>
		<path id="path_qaoFvbVi" d="M2054.70 3401.94 L2054.70 3401.94 L2053.27 3395.94 L2049.62 3396.73 L2040.24 3398.55 L2036.46 3398.55 L2034.37 3398.16 L2028.25 3395.29 L2026.82 3393.86 L2024.47 3390.34 L2021.60 3382.52 L2019.13 3385.26 L2017.95 3386.56 L2014.83 3389.30 L2014.31 3389.56 L2013.13 3389.82 L2011.96 3390.34 L2008.18 3392.16 L2006.10 3392.82 L2002.06 3394.38 L1994.76 3397.38 L1993.85 3394.25 L1991.89 3386.30 L1990.20 3379.92 L1988.76 3374.31 L1987.72 3370.79 L1987.20 3368.97 L1986.42 3367.14 L1985.51 3364.93 L1984.72 3362.71 L1983.55 3360.24 L1981.86 3356.98 L1980.03 3353.33 L1977.95 3349.68 L1975.60 3344.99 L1974.69 3342.52 L1974.56 3342.39 L1974.04 3340.43 L1973.39 3337.43 L1973.13 3335.87 L1972.60 3332.61 L1971.95 3327.27 L1971.82 3326.10 L1971.82 3324.92 L1971.69 3323.36 L1971.95 3320.88 L1973.39 3301.99 L1973.39 3295.73 L1973.00 3292.87 L1974.17 3292.08 L1976.12 3290.39 L1979.90 3287.65 L1979.12 3287.26 L1978.73 3286.87 L1978.08 3286.09 L1977.43 3285.31 L1977.04 3284.66 L1976.64 3284.01 L1975.99 3282.83 L1975.47 3281.66 L1974.95 3280.10 L1974.56 3278.66 L1974.43 3277.23 L1974.69 3267.20 L1974.95 3254.68 L1975.21 3248.04 L1975.47 3245.30 L1975.73 3243.22 L1976.12 3241.78 L1976.51 3240.48 L1977.43 3237.61 L1978.47 3235.14 L1980.68 3231.49 L1983.94 3226.41 L1989.29 3219.24 L1992.93 3213.25 L1994.89 3208.95 L1995.93 3204.64 L1996.45 3200.34 L1996.32 3197.22 L1995.80 3194.61 L1995.28 3192.14 L1996.84 3191.61 L1999.97 3190.83 L2002.58 3190.18 L2005.31 3189.53 L2008.44 3188.88 L2008.18 3187.70 L2033.07 3182.88 L2032.29 3178.06 L2028.25 3161.38 L2025.51 3150.96 L2024.60 3148.22 L2024.21 3147.05 L2023.56 3145.61 L2021.21 3140.14 L2014.31 3124.37 L2002.19 3100.92 L1983.42 3110.82 L1978.73 3113.04 L1964.26 3071.34 L1982.64 3062.86 L1980.29 3058.04 L1973.91 3044.23 L1963.22 3019.47 L1960.88 3014.00 L1971.17 3008.00 L1973.52 3007.22 L1974.69 3007.35 L1976.77 3008.00 L1979.25 3011.13 L1992.93 3029.37 L2009.35 3050.62 L2020.43 3043.84 L2051.71 3026.12 L2053.40 3025.07 L2055.23 3024.03 L2057.18 3023.25 L2058.74 3022.60 L2060.70 3021.82 L2063.04 3026.12 L2063.30 3026.90 L2064.35 3029.37 L2065.13 3031.59 L2069.17 3042.02 L2070.86 3046.58 L2071.25 3047.88 L2072.69 3052.05 L2073.86 3056.35 L2074.77 3060.78 L2075.16 3063.39 L2076.47 3062.86 L2078.94 3062.21 L2081.94 3061.82 L2085.98 3061.56 L2095.62 3061.17 L2099.14 3061.56 L2102.79 3062.08 L2111.52 3064.17 L2113.22 3064.69 L2113.74 3064.95 L2114.52 3065.47 L2115.95 3062.73 L2118.82 3058.04 L2124.29 3049.18 L2130.55 3040.45 L2132.76 3036.28 L2136.67 3029.64 L2137.06 3031.72 L2137.85 3035.76 L2138.11 3038.63 L2139.93 3058.30 L2140.58 3064.43 L2141.63 3077.98 L2142.54 3089.71 L2142.67 3091.14 L2142.80 3092.71 L2143.32 3095.83 L2144.23 3099.35 L2144.88 3101.44 L2152.83 3125.28 L2154.79 3124.89 L2157.65 3124.37 L2161.17 3123.98 L2167.17 3123.46 L2180.85 3122.03 L2191.28 3121.24 L2204.18 3120.33 L2210.56 3139.62 L2214.34 3147.70 L2212.65 3148.61 L2212.00 3149.26 L2211.48 3149.78 L2210.04 3151.35 L2209.26 3152.26 L2208.74 3153.04 L2208.35 3153.82 L2207.83 3154.74 L2207.30 3155.91 L2206.65 3157.47 L2206.13 3159.17 L2204.31 3166.33 L2204.05 3169.20 L2203.92 3176.37 L2202.87 3182.10 L2202.48 3184.45 L2200.14 3197.87 L2199.23 3201.52 L2198.96 3202.56 L2206.26 3208.03 L2217.08 3213.12 L2220.73 3215.33 L2225.68 3218.20 L2230.63 3220.93 L2231.80 3221.46 L2232.85 3221.98 L2233.89 3222.50 L2235.06 3223.02 L2235.84 3223.28 L2236.63 3223.67 L2236.24 3224.32 L2235.71 3225.10 L2233.50 3228.88 L2232.59 3230.32 L2229.59 3235.01 L2226.33 3239.96 L2223.33 3244.26 L2220.86 3247.65 L2217.08 3252.60 L2215.38 3254.68 L2214.21 3256.38 L2210.95 3260.68 L2205.48 3267.06 L2200.92 3272.15 L2199.23 3273.97 L2197.27 3276.06 L2195.06 3278.01 L2191.28 3281.79 L2186.58 3286.09 L2181.24 3290.39 L2168.99 3300.69 L2164.17 3304.59 L2161.56 3306.68 L2161.17 3307.07 L2159.87 3308.11 L2155.96 3311.37 L2151.14 3315.80 L2144.62 3322.45 L2136.02 3332.35 L2130.94 3338.22 L2123.90 3345.51 L2116.08 3353.07 L2112.83 3356.20 L2112.17 3356.85 L2110.35 3358.54 L2092.76 3373.01 L2084.42 3379.65 L2072.17 3389.04 L2065.52 3394.12 L2060.83 3397.64 L2058.35 3399.46 L2056.92 3400.37 L2054.70 3401.94 L2054.70 3401.94 Z" stroke-linejoin="round"/>
	</defs>
	<use xlink:href="#path_qaoFvbVi" style="fill:#004249;stroke:#00465F;stroke-width:5.76"/>
</svg>
