<?xml version="1.0" encoding="UTF-8" standalone="no"?>
<!-- This is a Stata 16.1 generated SVG file (http://www.stata.com) -->

<svg version="1.1" width="4.00in" height="6.11in" viewBox="0 0 2880 4402" xmlns="http://www.w3.org/2000/svg" xmlns:xlink="http://www.w3.org/1999/xlink">
	<desc>Stata Graph - Graph</desc>
	<rect x="0" y="0" width="2880" height="4402" style="fill:#FFFFFF;stroke:none"/>
	<defs>
		<path id="path_aqkTXYCa" d="M1487.33 3790.67 L1487.33 3790.67 L1475.77 3787.51 L1468.34 3785.31 L1465.73 3784.48 L1458.30 3782.42 L1455.27 3781.59 L1441.65 3777.60 L1435.46 3775.95 L1433.40 3775.27 L1430.37 3774.44 L1423.77 3772.65 L1420.74 3771.83 L1421.15 3770.59 L1424.87 3756.69 L1425.69 3753.39 L1425.97 3752.57 L1426.52 3751.60 L1425.55 3748.85 L1422.53 3739.36 L1431.20 3731.66 L1432.43 3727.26 L1428.99 3727.67 L1411.52 3732.48 L1410.97 3736.61 L1405.88 3736.34 L1406.71 3731.93 L1406.71 3730.97 L1406.57 3729.73 L1406.29 3728.63 L1405.88 3727.67 L1405.33 3726.16 L1404.37 3724.64 L1403.82 3723.95 L1403.27 3723.13 L1402.44 3722.72 L1401.62 3722.44 L1401.07 3722.44 L1400.24 3722.58 L1399.42 3722.85 L1398.73 3723.27 L1397.76 3724.09 L1396.66 3725.05 L1395.98 3725.88 L1395.29 3726.71 L1394.60 3728.08 L1394.05 3729.59 L1393.64 3730.83 L1389.65 3745.69 L1386.76 3757.38 L1386.35 3758.35 L1385.66 3760.41 L1383.59 3759.31 L1381.67 3758.21 L1379.74 3757.24 L1376.99 3755.87 L1374.65 3754.77 L1371.90 3753.12 L1369.42 3751.88 L1367.50 3750.64 L1365.85 3749.68 L1364.06 3748.58 L1361.17 3746.65 L1357.73 3744.31 L1356.63 3743.63 L1354.70 3742.25 L1352.91 3740.87 L1350.44 3739.09 L1346.86 3736.34 L1344.11 3734.13 L1343.70 3733.72 L1341.50 3731.80 L1339.43 3730.01 L1337.51 3728.36 L1335.86 3726.84 L1333.38 3724.50 L1330.63 3721.89 L1327.74 3718.86 L1325.26 3716.25 L1321.96 3712.40 L1319.07 3708.96 L1317.15 3706.35 L1312.74 3699.88 L1310.27 3696.58 L1308.20 3693.97 L1305.86 3690.66 L1304.49 3688.46 L1303.39 3686.81 L1302.29 3684.75 L1300.50 3681.86 L1299.12 3679.66 L1297.88 3677.32 L1296.65 3674.98 L1295.41 3672.78 L1291.56 3664.80 L1287.02 3654.62 L1279.59 3638.94 L1268.58 3615.14 L1260.46 3597.40 L1247.26 3569.33 L1237.76 3548.84 L1236.66 3546.36 L1235.43 3543.75 L1228.55 3529.03 L1224.69 3520.64 L1223.59 3518.44 L1216.58 3503.03 L1210.80 3490.65 L1207.77 3484.05 L1202.27 3472.63 L1195.53 3458.18 L1194.15 3455.16 L1191.13 3448.69 L1188.79 3443.46 L1188.24 3442.09 L1186.59 3444.98 L1186.72 3443.60 L1186.86 3442.50 L1186.86 3442.36 L1186.17 3438.92 L1185.07 3434.66 L1163.75 3389.40 L1161.96 3385.41 L1160.03 3381.29 L1158.66 3378.26 L1153.43 3367.25 L1150.27 3360.65 L1147.10 3353.77 L1145.31 3349.65 L1141.46 3341.39 L1119.86 3294.62 L1118.49 3291.87 L1113.26 3280.73 L1109.13 3271.92 L1107.34 3268.35 L1098.81 3249.91 L1087.39 3225.43 L1090.01 3222.54 L1092.90 3219.51 L1095.65 3216.62 L1108.44 3198.19 L1109.96 3194.20 L1112.02 3188.56 L1113.81 3182.92 L1118.07 3170.27 L1122.34 3160.77 L1131.28 3144.68 L1134.45 3139.73 L1112.71 3128.72 L1105.97 3125.70 L1104.18 3125.01 L1088.08 3119.09 L1081.62 3116.75 L1075.98 3114.69 L1068.27 3111.11 L1066.90 3110.43 L1065.11 3107.81 L1051.76 3100.93 L1051.21 3100.38 L1050.94 3099.70 L1050.80 3099.01 L1050.11 3094.74 L1046.53 3097.63 L1044.61 3100.93 L1041.86 3106.02 L1034.84 3114.83 L1034.02 3113.18 L1030.58 3107.81 L1028.10 3104.37 L1024.11 3099.28 L1021.22 3095.57 L1016.82 3090.48 L1014.89 3088.28 L1009.53 3082.91 L1004.02 3077.96 L1001.13 3075.48 L999.07 3073.83 L996.87 3072.05 L995.22 3070.95 L993.43 3069.57 L990.54 3067.64 L978.85 3060.49 L973.90 3057.46 L970.18 3055.40 L956.01 3047.01 L954.77 3046.32 L951.75 3044.53 L949.41 3043.30 L947.21 3041.92 L945.42 3040.82 L941.84 3038.62 L935.92 3034.77 L933.59 3033.25 L931.66 3031.88 L929.32 3030.36 L902.63 3011.24 L879.38 2994.60 L875.80 2992.12 L870.85 2988.55 L853.79 2976.58 L851.45 2975.06 L826.14 2957.04 L786.66 2928.84 L779.64 2924.03 L774.27 2920.45 L770.97 2918.25 L760.52 2911.37 L730.25 2892.39 L722.27 2887.30 L692.69 2868.59 L690.35 2867.08 L673.29 2856.35 L657.47 2846.44 L641.38 2836.40 L623.22 2823.88 L619.50 2820.99 L609.05 2813.15 L607.81 2812.19 L597.35 2804.07 L580.98 2791.69 L562.41 2777.52 L555.67 2772.43 L537.64 2758.68 L524.71 2748.64 L500.22 2724.98 L493.62 2718.37 L489.63 2714.52 L487.70 2712.59 L478.49 2703.52 L474.77 2699.66 L469.82 2694.71 L465.55 2690.31 L463.63 2688.11 L457.71 2682.47 L453.72 2678.34 L452.48 2677.10 L451.11 2675.73 L465.97 2649.45 L469.13 2643.68 L478.49 2627.17 L515.22 2561.96 L534.75 2527.30 L546.45 2511.34 L561.17 2495.25 L558.42 2493.73 L555.25 2491.94 L551.68 2490.16 L550.03 2490.43 L543.56 2487.27 L540.26 2486.03 L537.51 2484.38 L535.44 2483.00 L528.01 2477.91 L509.58 2466.08 L497.88 2457.69 L492.93 2453.43 L488.94 2449.16 L483.30 2443.39 L478.21 2439.53 L484.68 2428.94 L490.59 2418.35 L500.22 2401.02 L509.17 2384.65 L514.12 2375.84 L515.91 2372.40 L517.28 2369.79 L519.62 2364.56 L521.69 2362.36 L523.47 2359.61 L532.14 2344.07 L536.41 2346.82 L537.78 2347.64 L538.61 2348.05 L539.85 2348.47 L540.95 2348.47 L542.60 2348.19 L544.11 2347.37 L545.49 2346.54 L546.31 2345.99 L551.40 2342.00 L554.43 2339.66 L560.07 2336.09 L562.68 2334.57 L571.63 2330.31 L580.15 2336.09 L595.43 2339.11 L613.31 2345.30 L626.79 2350.39 L633.67 2352.73 L648.67 2358.37 L653.34 2359.75 L664.63 2363.74 L665.73 2364.15 L669.85 2365.66 L699.85 2376.39 L701.63 2375.02 L704.80 2377.63 L706.45 2379.01 L708.24 2380.38 L716.63 2387.40 L722.68 2392.90 L723.51 2391.25 L724.33 2389.87 L722.96 2388.77 L727.22 2385.75 L730.66 2379.42 L732.18 2376.94 L734.10 2373.78 L741.53 2379.69 L743.87 2381.21 L745.52 2382.17 L747.58 2383.41 L752.26 2386.16 L753.36 2386.71 L755.98 2388.09 L759.55 2389.87 L763.13 2391.39 L766.57 2392.90 L770.15 2394.00 L775.51 2395.79 L778.26 2396.48 L779.91 2396.75 L785.28 2397.99 L789.96 2398.68 L796.15 2399.37 L800.41 2399.50 L804.54 2399.64 L810.04 2399.64 L816.92 2399.09 L834.53 2397.30 L843.06 2394.55 L844.85 2394.14 L846.23 2393.86 L847.46 2393.59 L848.56 2393.04 L849.66 2392.49 L850.63 2391.52 L851.18 2390.84 L851.73 2389.87 L852.14 2388.91 L852.42 2387.95 L860.12 2384.92 L868.79 2389.60 L872.23 2392.21 L873.19 2393.59 L883.78 2392.62 L891.90 2392.21 L898.50 2392.21 L899.47 2392.35 L904.28 2392.62 L907.31 2393.04 L909.51 2393.31 L911.85 2393.73 L915.43 2394.28 L920.24 2395.51 L922.99 2396.20 L928.08 2397.85 L929.32 2398.40 L931.25 2399.23 L935.24 2400.88 L936.89 2401.43 L939.78 2402.94 L943.90 2405.28 L947.89 2407.89 L946.24 2411.06 L997.28 2442.15 L1008.98 2449.85 L1017.23 2455.08 L1019.71 2456.87 L1024.94 2460.31 L1029.89 2463.47 L1038.01 2468.56 L1047.22 2474.20 L1062.08 2483.42 L1107.62 2512.99 L1124.68 2524.13 L1147.52 2538.99 L1161.41 2548.76 L1167.19 2553.02 L1186.31 2567.19 L1186.86 2567.60 L1189.06 2568.84 L1190.44 2569.25 L1195.53 2573.24 L1201.99 2575.72 L1205.85 2579.43 L1214.79 2584.66 L1220.29 2588.38 L1233.50 2597.32 L1263.08 2614.93 L1285.23 2628.82 L1305.04 2642.16 L1349.20 2669.54 L1386.21 2693.34 L1395.56 2698.56 L1399.42 2701.04 L1403.68 2703.93 L1406.57 2705.72 L1421.70 2717.68 L1426.93 2722.50 L1434.22 2729.79 L1441.79 2739.14 L1442.61 2740.38 L1448.67 2749.05 L1454.31 2758.54 L1462.42 2773.67 L1464.21 2776.84 L1465.31 2777.94 L1466.14 2779.18 L1469.58 2784.54 L1481.13 2802.15 L1490.21 2814.12 L1495.58 2819.48 L1513.88 2835.16 L1506.72 2833.37 L1505.90 2834.89 L1510.85 2842.59 L1509.89 2845.76 L1520.89 2845.21 L1526.26 2844.93 L1531.07 2849.74 L1533.96 2852.22 L1579.09 2889.78 L1583.22 2892.66 L1634.81 2936.27 L1645.26 2944.94 L1685.02 2978.23 L1692.31 2983.04 L1698.64 2986.48 L1705.80 2989.51 L1716.53 2993.36 L1732.21 2996.80 L1748.31 2998.45 L1759.72 2995.97 L1776.37 2994.74 L1788.07 2993.08 L1789.44 2996.39 L1789.58 2998.72 L1789.58 3000.65 L1789.44 3002.44 L1789.03 3005.05 L1788.34 3007.39 L1787.10 3012.21 L1773.62 3065.99 L1766.74 3089.52 L1766.05 3091.99 L1765.37 3094.06 L1764.40 3097.08 L1763.85 3099.28 L1773.76 3102.17 L1775.41 3102.58 L1789.85 3106.57 L1801.96 3109.74 L1820.53 3114.83 L1836.35 3119.23 L1839.66 3119.92 L1847.09 3121.98 L1863.46 3126.66 L1875.56 3129.82 L1879.55 3130.78 L1884.92 3132.16 L1891.11 3133.67 L1893.04 3136.01 L1894.00 3136.43 L1896.20 3136.98 L1897.58 3137.39 L1899.78 3137.94 L1900.60 3138.21 L1908.99 3138.90 L1914.91 3140.41 L1919.04 3141.65 L1927.02 3143.72 L1929.63 3144.40 L1933.07 3145.23 L1934.86 3145.78 L1938.99 3146.88 L1944.08 3148.26 L1950.54 3150.04 L1955.77 3151.42 L1957.42 3151.83 L1959.07 3152.24 L1963.20 3153.21 L1967.19 3154.31 L1982.46 3158.43 L1985.62 3159.26 L1987.82 3159.81 L1992.23 3161.05 L1995.12 3161.74 L2010.39 3165.73 L2011.21 3166.14 L2017.95 3167.79 L2039.69 3173.29 L2058.95 3178.38 L2082.89 3184.98 L2100.91 3189.80 L2119.07 3194.48 L2129.66 3197.09 L2150.44 3202.87 L2153.33 3203.69 L2158.42 3204.66 L2190.75 3213.46 L2195.43 3214.56 L2200.93 3216.21 L2220.88 3221.16 L2256.37 3230.66 L2241.38 3285.13 L2197.63 3273.71 L2190.61 3273.44 L2184.97 3274.13 L2181.26 3275.78 L2177.40 3278.39 L2171.07 3284.30 L2158.83 3296.55 L2154.02 3300.26 L2150.03 3302.74 L2145.21 3304.39 L2139.29 3305.49 L2134.89 3305.63 L2130.35 3304.80 L2115.77 3302.19 L2111.78 3316.49 L2046.16 3298.75 L1992.64 3284.03 L1905.14 3258.31 L1899.09 3256.24 L1896.89 3255.55 L1895.24 3254.87 L1894.27 3258.03 L1893.59 3260.23 L1892.21 3264.77 L1890.83 3270.41 L1888.50 3278.80 L1886.02 3287.19 L1883.13 3296.41 L1882.44 3298.61 L1881.89 3300.40 L1881.20 3303.01 L1880.38 3306.04 L1879.69 3308.79 L1879.14 3311.27 L1878.45 3313.61 L1877.49 3318.70 L1873.22 3339.05 L1870.47 3356.25 L1868.41 3369.87 L1868.13 3371.11 L1867.58 3374.96 L1867.03 3378.67 L1862.22 3401.10 L1860.57 3414.44 L1858.37 3424.48 L1857.40 3428.47 L1855.20 3437.69 L1852.86 3446.63 L1845.16 3473.59 L1830.99 3523.80 L1824.66 3545.67 L1823.56 3549.39 L1822.32 3553.51 L1814.34 3582.27 L1799.48 3581.85 L1798.80 3583.64 L1797.70 3585.57 L1795.77 3588.04 L1792.33 3591.62 L1789.44 3594.78 L1785.45 3599.05 L1784.08 3601.25 L1783.11 3603.59 L1782.42 3606.34 L1782.15 3609.36 L1782.42 3613.49 L1776.65 3612.80 L1758.90 3607.71 L1720.10 3596.85 L1700.84 3591.48 L1689.70 3588.46 L1678.97 3618.31 L1674.43 3629.04 L1670.71 3636.33 L1659.57 3657.10 L1657.37 3661.36 L1656.54 3663.56 L1655.86 3666.18 L1655.44 3669.34 L1655.31 3673.61 L1655.99 3676.77 L1656.82 3679.25 L1657.78 3681.03 L1659.29 3683.37 L1660.26 3684.47 L1661.08 3685.30 L1658.33 3692.45 L1655.17 3700.98 L1640.45 3751.33 L1636.60 3765.91 L1634.26 3773.48 L1633.16 3777.88 L1631.92 3782.83 L1629.58 3791.08 L1628.62 3795.07 L1627.52 3798.79 L1621.32 3824.79 L1613.62 3823.00 L1606.19 3821.35 L1598.76 3819.56 L1580.46 3814.88 L1561.20 3809.93 L1556.39 3808.83 L1552.95 3808.01 L1536.44 3804.02 L1527.09 3801.54 L1520.76 3799.75 L1505.21 3795.62 L1487.33 3790.67 L1487.33 3790.67 Z" stroke-linejoin="round"/>
	</defs>
	<use xlink:href="#path_aqkTXYCa" style="fill:#9DC8CA;stroke:#6BB4D2;stroke-width:5.76"/>
	<defs>
		<path id="path_EHmUxuKU" d="M2291.73 2714.80 L2291.73 2714.80 L2291.73 2714.80 L2289.53 2722.64 L2286.91 2720.71 L2286.09 2720.02 L2274.12 2711.22 L2251.14 2693.75 L2214.55 2665.41 L2208.63 2660.87 L2196.39 2651.52 L2181.94 2640.37 L2176.99 2636.52 L2156.49 2620.70 L2151.26 2616.58 L2135.31 2603.78 L2118.52 2590.44 L2103.11 2578.33 L2101.87 2577.37 L2101.05 2576.55 L2098.71 2574.62 L2097.33 2573.66 L2084.68 2563.48 L2043.96 2531.01 L2018.23 2510.65 L2007.50 2502.12 L2004.61 2503.22 L1998.69 2503.78 L1992.64 2499.10 L1981.91 2490.84 L1975.31 2485.75 L1959.21 2473.37 L1953.57 2469.25 L1945.45 2462.78 L1920.28 2444.07 L1913.40 2438.98 L1899.09 2428.39 L1884.78 2417.66 L1869.79 2406.24 L1854.79 2395.38 L1849.29 2391.52 L1841.17 2385.88 L1829.61 2378.04 L1822.87 2373.37 L1820.81 2371.99 L1819.85 2371.44 L1815.99 2368.96 L1814.62 2367.86 L1805.12 2362.09 L1796.46 2356.45 L1798.93 2352.87 L1800.03 2351.08 L1794.81 2347.78 L1748.58 2317.38 L1747.34 2316.55 L1746.24 2315.86 L1734.69 2308.85 L1717.21 2297.43 L1698.37 2285.60 L1691.90 2281.34 L1674.70 2270.06 L1663.56 2262.90 L1594.36 2218.33 L1592.43 2216.96 L1576.06 2206.36 L1543.73 2185.59 L1537.68 2181.74 L1514.02 2166.75 L1504.52 2160.14 L1486.09 2148.45 L1468.34 2137.17 L1441.24 2119.56 L1429.96 2112.00 L1427.89 2110.90 L1425.14 2109.11 L1423.90 2108.28 L1422.39 2107.04 L1416.06 2102.23 L1410.28 2098.52 L1395.29 2089.44 L1376.44 2077.88 L1370.11 2073.89 L1365.98 2071.14 L1343.28 2056.42 L1319.76 2041.01 L1294.58 2024.64 L1283.44 2017.49 L1275.18 2012.40 L1271.20 2009.79 L1269.54 2008.55 L1267.21 2007.17 L1265.55 2006.07 L1263.90 2004.97 L1262.94 2004.15 L1258.81 2001.40 L1254.55 1998.92 L1247.12 1994.11 L1246.57 1993.69 L1228.82 1982.28 L1223.18 1978.70 L1224.69 1974.85 L1225.93 1971.96 L1226.35 1968.93 L1226.76 1966.04 L1225.93 1948.02 L1233.77 1937.57 L1269.82 1821.88 L1276.01 1802.07 L1288.12 1758.60 L1317.56 1637.13 L1320.31 1624.61 L1322.92 1619.80 L1334.89 1593.66 L1332.42 1592.15 L1325.40 1589.12 L1316.60 1619.25 L1290.87 1606.32 L1272.71 1596.28 L1257.58 1588.43 L1253.45 1584.58 L1251.11 1579.22 L1248.91 1556.11 L1264.59 1499.43 L1283.03 1448.26 L1320.17 1380.44 L1373.69 1373.56 L1380.71 1372.05 L1386.90 1369.57 L1395.43 1364.48 L1399.97 1360.77 L1408.36 1353.61 L1418.54 1335.46 L1420.19 1336.69 L1519.11 1163.64 L1511.95 1163.64 L1487.60 1147.68 L1429.54 1115.49 L1384.01 1090.18 L1381.94 1089.36 L1323.75 1069.00 L1272.30 1064.87 L1213.69 1060.19 L1191.54 1064.73 L1197.87 1056.20 L1193.88 1054.69 L1191.26 1053.32 L1189.48 1050.98 L1186.72 1043.55 L1183.28 1032.13 L1183.01 1028.83 L1183.56 1024.98 L1184.52 1020.99 L1185.90 1017.00 L1187.69 1012.87 L1171.04 941.20 L1169.39 921.53 L1169.11 921.67 L1168.70 921.26 L1131.83 894.02 L1051.49 829.23 L1005.12 760.17 L1004.99 742.42 L1004.85 740.09 L1007.74 724.40 L1050.66 576.94 L1056.72 558.09 L1056.99 557.68 L1087.12 452.58 L1092.62 425.48 L1093.86 372.38 L1094.00 366.74 L1103.90 366.88 L1108.72 366.74 L1146.83 351.33 L1163.34 347.21 L1165.95 347.07 L1173.52 347.76 L1183.28 346.11 L1191.54 343.91 L1203.51 340.19 L1214.65 338.27 L1219.88 337.85 L1224.56 339.09 L1231.16 339.92 L1242.85 340.19 L1255.37 339.64 L1265.28 338.82 L1281.38 339.50 L1286.74 340.33 L1292.11 341.84 L1300.09 344.87 L1308.62 348.86 L1323.61 352.99 L1331.87 354.77 L1347.41 357.39 L1353.88 359.45 L1357.87 362.75 L1365.02 373.89 L1368.05 376.65 L1371.21 377.47 L1375.89 378.02 L1390.61 377.33 L1404.51 375.13 L1426.24 372.93 L1432.57 374.17 L1437.11 374.58 L1449.77 373.07 L1452.38 373.62 L1454.31 372.52 L1456.10 370.59 L1461.74 362.06 L1466.14 359.18 L1467.93 358.49 L1472.19 356.56 L1479.07 354.36 L1517.45 348.31 L1539.60 345.83 L1551.16 344.32 L1564.92 341.98 L1570.01 340.47 L1576.20 337.85 L1599.04 323.55 L1614.17 315.02 L1625.04 312.82 L1639.62 313.09 L1658.61 318.46 L1659.71 318.73 L1671.40 323.27 L1681.03 327.81 L1705.93 332.08 L1739.78 336.48 L1776.37 350.92 L1778.30 351.75 L1806.78 367.29 L1828.10 379.12 L1842.68 399.21 L1847.36 419.29 L1845.16 446.53 L1840.76 462.21 L1832.91 485.05 L1815.58 514.76 L1792.88 534.84 L1765.37 548.32 L1760.28 547.91 L1755.32 557.68 L1756.97 566.90 L1763.71 566.62 L1769.63 565.79 L1792.47 557.82 L1817.92 539.80 L1824.11 536.77 L1828.93 533.05 L1835.67 525.21 L1843.37 512.28 L1848.60 504.03 L1854.51 492.75 L1858.92 482.02 L1865.52 462.90 L1868.41 452.44 L1869.23 444.60 L1869.37 430.57 L1869.23 404.57 L1868.00 394.94 L1865.25 381.05 L1862.36 370.04 L1857.68 356.01 L1853.14 345.42 L1846.12 331.94 L1845.57 330.84 L1832.23 313.37 L1809.39 297.82 L1794.67 288.06 L1788.07 281.18 L1785.59 279.53 L1780.36 275.81 L1771.69 272.92 L1760.69 271.82 L1750.92 268.11 L1733.59 253.80 L1720.79 248.99 L1707.17 242.52 L1696.44 234.96 L1693.14 228.90 L1689.97 219.41 L1684.33 204.14 L1682.96 198.64 L1682.68 197.54 L1683.10 194.38 L1683.37 193.41 L1684.20 190.94 L1687.09 188.74 L1691.49 186.12 L1697.82 185.57 L1702.63 186.12 L1705.11 186.81 L1706.35 187.36 L1708.00 188.19 L1713.09 188.87 L1718.31 186.53 L1722.44 182.00 L1724.92 176.36 L1728.36 171.95 L1734.41 161.77 L1735.79 160.95 L1739.36 159.71 L1741.01 157.23 L1745.55 144.17 L1746.79 142.79 L1754.91 145.95 L1765.09 148.84 L1769.08 149.53 L1773.90 148.71 L1781.32 145.68 L1786.41 142.79 L1796.46 135.91 L1799.07 133.57 L1800.03 130.96 L1800.86 126.28 L1799.62 119.13 L1800.17 115.97 L1801.13 113.49 L1804.16 110.33 L1830.03 103.17 L1833.05 101.52 L1835.39 98.63 L1838.14 93.54 L1841.17 87.35 L1843.92 83.09 L1848.32 79.65 L1852.59 71.95 L1855.06 70.02 L1857.82 68.78 L1860.02 65.20 L1862.36 58.74 L1864.83 55.30 L1868.13 54.06 L1869.92 54.20 L1872.81 55.16 L1883.27 59.84 L1888.91 61.77 L1897.02 63.00 L1905.00 62.18 L1910.92 59.01 L1922.61 48.56 L1924.82 47.60 L1927.15 47.46 L1929.36 48.15 L1931.01 48.01 L1932.79 47.05 L1935.27 46.36 L1938.30 46.36 L1941.87 46.08 L1946.55 43.74 L1949.44 43.33 L1952.88 44.30 L1957.97 47.46 L1964.44 54.34 L1967.46 56.81 L1970.63 57.64 L1974.07 57.09 L1977.64 55.30 L1980.67 53.37 L1983.42 52.14 L1994.15 50.76 L2000.34 50.62 L2017.82 49.38 L2025.25 50.07 L2035.70 53.10 L2042.03 55.85 L2050.70 58.88 L2067.48 69.06 L2078.62 79.37 L2083.71 86.66 L2086.05 90.65 L2087.57 93.27 L2092.93 107.30 L2097.61 126.56 L2098.85 131.92 L2106.83 169.48 L2112.74 213.22 L2129.53 269.48 L2139.16 306.90 L2139.16 307.86 L2139.71 319.83 L2137.23 333.04 L2131.87 353.67 L2124.99 367.57 L2072.16 449.55 L2063.90 467.85 L2059.23 480.78 L2056.34 496.46 L2055.65 513.93 L2056.20 527.96 L2056.20 544.20 L2057.85 556.72 L2063.90 576.25 L2072.43 592.48 L2074.22 595.10 L2091.01 619.44 L2100.09 628.94 L2109.44 635.26 L2122.37 640.77 L2138.61 647.23 L2163.23 651.08 L2184.97 651.63 L2209.05 646.41 L2253.07 642.00 L2266.69 641.18 L2280.86 643.93 L2295.99 651.08 L2302.73 654.25 L2316.08 664.70 L2331.49 678.46 L2338.09 688.50 L2341.53 701.71 L2345.25 725.64 L2345.80 732.66 L2347.72 758.52 L2351.85 826.89 L2357.76 855.23 L2363.96 872.83 L2374.00 891.82 L2375.24 893.47 L2381.98 902.55 L2398.07 919.74 L2410.46 929.51 L2431.37 942.17 L2458.06 954.82 L2473.33 962.66 L2489.70 972.84 L2511.85 989.21 L2532.62 1006.41 L2551.06 1018.24 L2576.23 1031.17 L2599.48 1044.79 L2610.63 1054.00 L2613.38 1057.44 L2616.82 1062.67 L2618.47 1067.62 L2619.57 1071.89 L2619.71 1079.04 L2618.61 1086.19 L2615.31 1097.89 L2610.77 1111.23 L2599.07 1135.30 L2595.36 1144.38 L2592.88 1153.32 L2591.23 1161.85 L2590.82 1169.83 L2590.68 1182.90 L2592.47 1200.65 L2595.08 1215.91 L2602.24 1232.70 L2606.91 1240.13 L2612.28 1244.12 L2619.98 1248.79 L2632.91 1254.98 L2646.81 1279.61 L2651.07 1290.34 L2657.27 1314.27 L2663.32 1331.19 L2667.86 1339.03 L2674.46 1346.46 L2681.89 1352.10 L2727.98 1379.48 L2741.60 1387.59 L2751.37 1393.78 L2761.55 1402.31 L2775.86 1417.03 L2801.03 1458.85 L2806.53 1475.50 L2809.84 1490.63 L2810.25 1494.48 L2811.35 1505.35 L2809.97 1536.85 L2809.97 1554.87 L2805.57 1594.76 L2801.99 1615.26 L2801.58 1621.31 L2801.58 1632.59 L2802.41 1640.02 L2803.92 1649.37 L2806.53 1655.43 L2809.29 1659.14 L2813.41 1662.31 L2817.82 1665.06 L2824.14 1666.84 L2827.58 1669.05 L2823.46 1688.03 L2821.94 1695.73 L2820.84 1701.10 L2819.74 1708.39 L2819.33 1712.10 L2818.92 1718.71 L2818.64 1729.44 L2818.64 1735.21 L2819.05 1743.05 L2819.33 1747.32 L2819.60 1750.07 L2819.88 1753.51 L2821.12 1762.04 L2822.08 1767.40 L2823.46 1774.56 L2824.69 1779.51 L2826.90 1786.94 L2828.68 1792.71 L2831.57 1801.24 L2838.73 1822.02 L2841.20 1829.03 L2841.62 1830.13 L2845.33 1841.14 L2849.87 1855.72 L2851.66 1861.50 L2843.82 1863.42 L2837.35 1865.21 L2827.03 1867.96 L2786.72 1878.97 L2769.94 1883.37 L2762.51 1885.57 L2756.32 1887.22 L2749.03 1889.15 L2741.32 1891.35 L2737.20 1892.45 L2693.86 1903.86 L2692.21 1904.28 L2690.70 1904.69 L2689.18 1905.10 L2683.27 1906.75 L2661.94 1912.53 L2607.46 1927.11 L2595.36 1930.41 L2588.34 1932.20 L2571.69 1936.74 L2548.03 1943.07 L2539.78 1945.00 L2526.29 1948.02 L2518.04 1949.40 L2515.70 1949.81 L2513.77 1950.09 L2510.20 1950.64 L2508.68 1956.28 L2497.68 1997.55 L2486.67 2037.44 L2472.23 2088.06 L2458.33 2137.86 L2457.78 2139.51 L2452.69 2159.04 L2448.84 2173.63 L2445.54 2186.14 L2441.55 2200.04 L2440.58 2203.06 L2438.93 2207.60 L2437.01 2212.69 L2430.82 2229.48 L2429.99 2231.54 L2428.89 2234.57 L2424.76 2244.88 L2423.66 2248.05 L2422.56 2251.49 L2383.35 2387.67 L2371.80 2429.49 L2366.57 2448.20 L2359.83 2472.41 L2358.04 2478.46 L2341.67 2537.34 L2332.45 2557.42 L2333.14 2568.29 L2323.78 2601.86 L2291.73 2714.80 L2291.73 2714.80 Z" stroke-linejoin="round"/>
	</defs>
	<use xlink:href="#path_EHmUxuKU" style="fill:#9DC8CA;stroke:#6BB4D2;stroke-width:5.76"/>
	<defs>
		<path id="path_dCVLfiPb" d="M157.11 4122.89 L157.11 4122.89 L156.01 4122.89 L155.32 4120.96 L154.77 4119.58 L153.81 4117.11 L153.12 4115.32 L151.06 4110.09 L149.96 4107.20 L147.62 4101.29 L138.40 4076.39 L135.79 4069.51 L134.14 4065.11 L125.47 4041.17 L122.99 4034.02 L120.93 4027.42 L119.55 4021.91 L119.55 4021.50 L115.84 4004.58 L114.74 3997.29 L113.36 3986.56 L112.12 3976.11 L111.71 3969.64 L110.89 3961.11 L110.61 3954.92 L110.34 3946.26 L110.47 3937.73 L110.47 3936.08 L110.61 3933.74 L110.61 3930.85 L110.75 3927.68 L107.72 3926.86 L106.21 3926.45 L104.28 3925.90 L100.71 3924.80 L96.44 3923.56 L93.28 3922.73 L89.56 3921.63 L84.88 3920.39 L77.45 3918.19 L74.70 3917.37 L64.94 3914.75 L53.52 3911.59 L44.71 3909.11 L45.67 3906.09 L46.09 3904.85 L46.64 3903.20 L47.33 3901.27 L48.70 3897.83 L50.21 3895.63 L51.04 3894.39 L51.73 3893.43 L52.14 3892.33 L52.69 3890.27 L53.10 3888.62 L53.38 3886.97 L53.52 3885.59 L53.65 3883.80 L53.65 3881.33 L53.52 3880.09 L53.38 3879.12 L53.10 3877.89 L52.69 3876.10 L47.60 3863.17 L47.19 3861.65 L46.91 3860.83 L46.64 3859.45 L46.64 3858.90 L46.64 3858.22 L46.78 3857.11 L47.46 3854.50 L48.84 3850.79 L49.39 3849.55 L50.08 3848.04 L51.18 3845.97 L52.00 3844.05 L52.55 3841.98 L52.97 3840.06 L53.24 3838.41 L53.24 3837.17 L52.97 3835.79 L52.83 3834.97 L52.28 3833.32 L51.59 3832.22 L50.49 3830.84 L44.71 3824.79 L42.65 3822.17 L41.69 3820.52 L41.00 3819.29 L40.45 3818.05 L40.03 3816.67 L39.62 3815.02 L39.48 3814.20 L39.07 3812.54 L38.93 3810.34 L38.93 3808.14 L39.21 3804.70 L39.62 3802.23 L40.45 3798.93 L42.37 3792.32 L42.79 3790.26 L43.06 3787.92 L43.34 3785.72 L43.47 3783.66 L43.34 3782.01 L43.06 3780.36 L42.24 3777.60 L41.55 3775.95 L40.86 3774.72 L40.03 3773.34 L37.83 3770.59 L36.73 3769.07 L35.49 3767.84 L33.57 3766.05 L31.64 3764.26 L30.95 3763.30 L29.99 3761.92 L29.58 3760.96 L29.44 3759.86 L29.17 3758.07 L28.89 3755.73 L28.20 3749.54 L28.20 3747.89 L28.20 3746.93 L28.20 3745.69 L28.48 3744.86 L28.75 3743.49 L29.17 3742.80 L29.58 3742.25 L30.13 3741.56 L30.82 3740.74 L31.09 3740.19 L31.37 3739.36 L31.37 3738.81 L31.37 3738.12 L31.23 3737.30 L30.95 3736.34 L30.68 3734.55 L30.13 3727.81 L29.17 3715.29 L29.17 3713.50 L29.44 3708.55 L29.85 3703.46 L29.99 3701.94 L30.40 3700.02 L31.09 3698.23 L31.78 3696.72 L33.57 3693.97 L38.25 3686.54 L39.21 3685.44 L39.62 3684.89 L40.03 3684.47 L42.10 3682.00 L43.20 3680.76 L44.02 3679.52 L44.71 3678.42 L45.95 3676.22 L48.29 3670.03 L49.11 3668.52 L49.80 3667.28 L50.77 3665.77 L51.59 3664.94 L52.55 3663.98 L53.52 3663.29 L55.86 3662.19 L69.75 3656.55 L70.58 3656.00 L71.26 3655.45 L71.95 3654.49 L73.05 3652.28 L73.88 3650.22 L74.57 3647.33 L75.25 3644.86 L76.77 3634.81 L77.32 3632.61 L77.87 3627.25 L78.42 3623.53 L79.52 3618.86 L80.62 3616.24 L81.86 3613.90 L83.37 3612.12 L84.88 3610.33 L96.44 3600.01 L98.09 3598.50 L99.19 3596.85 L100.29 3594.23 L101.39 3590.93 L102.08 3588.04 L101.94 3585.84 L101.81 3584.19 L100.84 3581.99 L90.25 3565.76 L85.85 3559.57 L84.61 3557.50 L83.92 3555.72 L83.37 3554.48 L83.10 3553.38 L82.96 3552.41 L82.96 3551.31 L83.23 3550.08 L83.92 3547.74 L84.75 3545.26 L85.71 3542.78 L86.81 3540.72 L88.60 3537.28 L90.25 3534.53 L92.18 3531.09 L99.60 3518.16 L102.08 3514.03 L106.76 3507.16 L127.39 3475.79 L133.45 3466.44 L141.84 3453.23 L143.63 3450.76 L145.55 3448.14 L148.03 3445.25 L149.96 3443.33 L157.94 3436.72 L159.45 3435.49 L160.00 3434.80 L160.28 3434.11 L160.69 3432.87 L160.96 3431.50 L161.24 3429.71 L161.24 3428.47 L161.10 3427.37 L160.55 3424.34 L160.55 3422.83 L160.28 3421.04 L160.28 3420.35 L165.09 3421.73 L175.27 3423.66 L175.68 3413.48 L177.33 3413.89 L208.98 3422.97 L208.56 3426.41 L208.29 3430.67 L208.15 3432.46 L209.66 3433.01 L213.79 3434.11 L218.61 3435.62 L223.70 3436.86 L223.83 3431.36 L223.83 3426.13 L224.11 3420.22 L224.39 3413.89 L224.11 3407.97 L224.11 3407.15 L223.70 3401.65 L223.28 3396.01 L222.73 3386.51 L222.32 3381.56 L221.50 3372.34 L220.81 3366.02 L224.25 3364.37 L225.62 3363.82 L229.06 3362.03 L231.26 3360.38 L233.47 3358.59 L234.98 3357.21 L237.04 3355.15 L238.42 3353.50 L239.93 3351.57 L241.17 3349.37 L241.99 3347.17 L242.55 3344.56 L242.68 3342.77 L242.68 3341.39 L242.41 3340.29 L241.86 3339.05 L240.62 3337.27 L229.61 3325.57 L228.37 3324.06 L227.96 3323.23 L227.69 3322.00 L227.55 3320.35 L227.82 3318.83 L228.24 3317.18 L228.79 3315.94 L229.75 3314.43 L231.54 3312.78 L234.70 3310.17 L246.26 3302.74 L248.05 3301.22 L249.56 3299.85 L251.49 3297.37 L252.86 3295.17 L254.51 3291.46 L256.44 3285.82 L257.82 3280.59 L259.05 3275.36 L260.71 3267.93 L261.39 3263.40 L261.53 3261.19 L261.39 3256.93 L261.12 3253.35 L260.84 3250.74 L260.29 3249.09 L259.47 3247.44 L256.17 3242.21 L248.60 3232.72 L247.50 3231.48 L245.98 3229.97 L239.38 3223.91 L238.69 3223.09 L238.14 3221.99 L237.59 3220.48 L237.18 3218.96 L237.04 3216.90 L237.18 3215.11 L237.73 3212.22 L239.24 3206.86 L241.58 3200.12 L243.51 3195.71 L245.02 3192.55 L246.12 3190.62 L247.64 3187.87 L249.01 3185.95 L250.80 3183.88 L252.86 3181.55 L254.79 3180.03 L256.99 3178.38 L259.88 3176.46 L263.18 3174.39 L264.83 3173.02 L266.21 3172.19 L267.03 3171.37 L268.00 3170.54 L268.82 3169.30 L269.79 3166.83 L272.26 3158.57 L276.39 3144.40 L278.87 3134.91 L279.83 3130.23 L280.24 3126.38 L280.24 3123.22 L279.55 3115.10 L279.28 3110.84 L279.42 3108.50 L279.97 3105.61 L280.79 3102.72 L281.75 3100.66 L283.13 3098.32 L285.47 3093.92 L286.29 3091.99 L286.71 3090.34 L286.98 3088.83 L286.84 3087.45 L286.43 3085.80 L282.30 3076.72 L278.31 3068.33 L277.90 3067.09 L277.76 3065.86 L277.63 3064.20 L277.76 3062.97 L277.90 3061.18 L278.45 3058.84 L279.69 3055.68 L280.65 3054.03 L281.48 3053.06 L282.72 3052.24 L289.46 3047.42 L290.70 3046.32 L291.66 3045.08 L292.62 3043.57 L293.72 3040.82 L298.26 3027.20 L298.95 3024.72 L300.46 3018.95 L301.01 3016.20 L301.29 3013.58 L301.29 3011.79 L301.29 3010.28 L301.01 3008.35 L300.33 3005.74 L299.50 3002.99 L299.09 3001.20 L299.09 2999.83 L299.36 2995.29 L299.78 2988.13 L299.78 2976.16 L301.43 2972.86 L315.60 2917.70 L341.19 2888.40 L346.55 2894.32 L362.24 2875.47 L377.64 2855.25 L394.84 2835.44 L401.58 2828.97 L411.35 2820.99 L412.18 2820.31 L412.73 2819.76 L416.44 2815.90 L412.59 2809.71 L408.05 2802.56 L430.61 2777.80 L483.03 2719.61 L487.29 2718.79 L487.15 2716.31 L483.03 2710.67 L484.54 2711.36 L485.37 2711.63 L486.47 2711.91 L486.88 2712.18 L487.70 2712.59 L489.63 2714.52 L493.62 2718.37 L500.22 2724.98 L524.71 2748.64 L537.64 2758.68 L555.67 2772.43 L562.41 2777.52 L580.98 2791.69 L597.35 2804.07 L607.81 2812.19 L609.05 2813.15 L619.50 2820.99 L623.22 2823.88 L641.38 2836.40 L657.47 2846.44 L673.29 2856.35 L690.35 2867.08 L692.69 2868.59 L722.27 2887.30 L730.25 2892.39 L760.52 2911.37 L770.97 2918.25 L774.27 2920.45 L779.64 2924.03 L786.66 2928.84 L826.14 2957.04 L851.45 2975.06 L853.79 2976.58 L870.85 2988.55 L875.80 2992.12 L879.38 2994.60 L902.63 3011.24 L929.32 3030.36 L931.66 3031.88 L933.59 3033.25 L935.92 3034.77 L941.84 3038.62 L945.42 3040.82 L947.21 3041.92 L949.41 3043.30 L951.75 3044.53 L954.77 3046.32 L956.01 3047.01 L970.18 3055.40 L973.90 3057.46 L978.85 3060.49 L990.54 3067.64 L993.43 3069.57 L995.22 3070.95 L996.87 3072.05 L999.07 3073.83 L1001.13 3075.48 L1004.02 3077.96 L1009.53 3082.91 L1014.89 3088.28 L1016.82 3090.48 L1021.22 3095.57 L1024.11 3099.28 L1028.10 3104.37 L1030.58 3107.81 L1034.02 3113.18 L1034.84 3114.83 L1041.86 3106.02 L1044.61 3100.93 L1046.53 3097.63 L1050.11 3094.74 L1050.80 3099.01 L1050.94 3099.70 L1051.21 3100.38 L1051.76 3100.93 L1065.11 3107.81 L1066.90 3110.43 L1068.27 3111.11 L1075.98 3114.69 L1081.62 3116.75 L1088.08 3119.09 L1104.18 3125.01 L1105.97 3125.70 L1112.71 3128.72 L1134.45 3139.73 L1131.28 3144.68 L1122.34 3160.77 L1118.07 3170.27 L1113.81 3182.92 L1112.02 3188.56 L1109.96 3194.20 L1108.44 3198.19 L1095.65 3216.62 L1092.90 3219.51 L1090.01 3222.54 L1087.39 3225.43 L1098.81 3249.91 L1107.34 3268.35 L1109.13 3271.92 L1113.26 3280.73 L1118.49 3291.87 L1119.86 3294.62 L1141.46 3341.39 L1145.31 3349.65 L1147.10 3353.77 L1150.27 3360.65 L1153.43 3367.25 L1158.66 3378.26 L1160.03 3381.29 L1161.96 3385.41 L1163.75 3389.40 L1185.07 3434.66 L1186.17 3438.92 L1186.86 3442.36 L1186.86 3442.50 L1186.72 3443.60 L1186.59 3444.98 L1188.24 3442.09 L1188.79 3443.46 L1191.13 3448.69 L1194.15 3455.16 L1195.53 3458.18 L1202.27 3472.63 L1207.77 3484.05 L1210.80 3490.65 L1216.58 3503.03 L1223.59 3518.44 L1224.69 3520.64 L1228.55 3529.03 L1235.43 3543.75 L1236.66 3546.36 L1237.76 3548.84 L1247.26 3569.33 L1260.46 3597.40 L1268.58 3615.14 L1279.59 3638.94 L1287.02 3654.62 L1291.56 3664.80 L1295.41 3672.78 L1296.65 3674.98 L1297.88 3677.32 L1299.12 3679.66 L1300.50 3681.86 L1302.29 3684.75 L1303.39 3686.81 L1304.49 3688.46 L1305.86 3690.66 L1308.20 3693.97 L1310.27 3696.58 L1312.74 3699.88 L1317.15 3706.35 L1319.07 3708.96 L1321.96 3712.40 L1325.26 3716.25 L1327.74 3718.86 L1330.63 3721.89 L1333.38 3724.50 L1335.86 3726.84 L1337.51 3728.36 L1339.43 3730.01 L1341.50 3731.80 L1343.70 3733.72 L1344.11 3734.13 L1346.86 3736.34 L1350.44 3739.09 L1352.91 3740.87 L1354.70 3742.25 L1356.63 3743.63 L1357.73 3744.31 L1361.17 3746.65 L1364.06 3748.58 L1365.85 3749.68 L1367.50 3750.64 L1369.42 3751.88 L1371.90 3753.12 L1374.65 3754.77 L1376.99 3755.87 L1379.74 3757.24 L1381.67 3758.21 L1383.59 3759.31 L1385.66 3760.41 L1386.35 3758.35 L1386.76 3757.38 L1389.65 3745.69 L1393.64 3730.83 L1394.05 3729.59 L1394.60 3728.08 L1395.29 3726.71 L1395.98 3725.88 L1396.66 3725.05 L1397.76 3724.09 L1398.73 3723.27 L1399.42 3722.85 L1400.24 3722.58 L1401.07 3722.44 L1401.62 3722.44 L1402.44 3722.72 L1403.27 3723.13 L1403.82 3723.95 L1404.37 3724.64 L1405.33 3726.16 L1405.88 3727.67 L1406.29 3728.63 L1406.57 3729.73 L1406.71 3730.97 L1406.71 3731.93 L1405.88 3736.34 L1410.97 3736.61 L1411.52 3732.48 L1428.99 3727.67 L1432.43 3727.26 L1431.20 3731.66 L1422.53 3739.36 L1425.55 3748.85 L1426.52 3751.60 L1425.97 3752.57 L1425.69 3753.39 L1424.87 3756.69 L1421.15 3770.59 L1420.74 3771.83 L1423.77 3772.65 L1430.37 3774.44 L1433.40 3775.27 L1435.46 3775.95 L1441.65 3777.60 L1455.27 3781.59 L1458.30 3782.42 L1465.73 3784.48 L1468.34 3785.31 L1475.77 3787.51 L1487.33 3790.67 L1505.21 3795.62 L1520.76 3799.75 L1527.09 3801.54 L1536.44 3804.02 L1552.95 3808.01 L1556.39 3808.83 L1561.20 3809.93 L1580.46 3814.88 L1598.76 3819.56 L1606.19 3821.35 L1613.62 3823.00 L1621.32 3824.79 L1629.44 3826.85 L1640.17 3829.60 L1633.43 3831.25 L1632.88 3833.87 L1627.65 3869.36 L1617.20 3894.39 L1614.58 3914.20 L1604.13 3943.50 L1605.92 3944.33 L1606.47 3944.74 L1608.25 3945.84 L1605.78 3951.21 L1611.69 3952.58 L1626.83 3956.02 L1619.54 3980.92 L1618.30 3986.84 L1618.44 3990.00 L1618.99 3990.83 L1620.22 3991.93 L1630.54 3994.54 L1653.52 4001.28 L1646.09 4029.89 L1622.42 4023.98 L1605.92 4019.30 L1603.71 4018.61 L1602.89 4018.34 L1602.20 4018.20 L1601.65 4018.06 L1601.10 4018.20 L1600.14 4018.75 L1599.86 4019.03 L1599.17 4019.71 L1598.76 4020.40 L1598.49 4021.23 L1598.07 4022.19 L1597.66 4023.70 L1597.39 4024.67 L1586.24 4063.18 L1585.42 4065.66 L1584.45 4068.14 L1583.49 4069.92 L1581.84 4072.13 L1574.00 4080.65 L1560.65 4064.01 L1555.56 4060.43 L1553.77 4059.19 L1551.99 4058.23 L1549.79 4057.27 L1545.80 4055.89 L1539.47 4053.83 L1534.51 4052.04 L1527.09 4048.74 L1504.94 4041.45 L1475.63 4147.51 L1471.78 4160.17 L1468.48 4166.91 L1469.03 4173.37 L1477.15 4172.68 L1485.95 4173.92 L1493.65 4175.71 L1514.57 4181.62 L1539.47 4190.02 L1554.46 4194.42 L1569.87 4197.58 L1593.40 4204.32 L1595.74 4201.02 L1596.84 4199.78 L1598.62 4197.86 L1599.59 4197.17 L1600.83 4197.03 L1602.61 4197.03 L1604.26 4197.58 L1605.50 4197.99 L1609.49 4199.10 L1618.02 4201.57 L1624.76 4203.63 L1638.80 4206.94 L1643.75 4208.17 L1640.17 4221.38 L1638.38 4227.98 L1634.53 4242.43 L1627.65 4266.23 L1626.28 4271.73 L1624.63 4277.92 L1620.77 4290.44 L1615.55 4310.11 L1613.34 4318.22 L1610.18 4329.37 L1607.84 4337.76 L1605.37 4337.07 L1583.49 4331.71 L1572.90 4329.23 L1564.23 4327.30 L1562.30 4325.93 L1560.79 4324.83 L1558.18 4323.04 L1543.04 4318.91 L1514.29 4311.07 L1505.21 4308.73 L1489.66 4304.47 L1486.78 4305.43 L1459.26 4297.87 L1448.67 4294.98 L1438.49 4292.09 L1422.39 4287.55 L1409.46 4283.97 L1392.54 4279.29 L1382.36 4276.82 L1363.65 4271.73 L1359.38 4270.63 L1341.50 4265.68 L1332.83 4263.47 L1302.15 4255.08 L1294.17 4252.88 L1291.01 4252.06 L1263.22 4244.35 L1255.37 4242.15 L1236.53 4236.93 L1231.99 4235.69 L1218.09 4231.97 L1210.52 4229.91 L1206.67 4228.81 L1195.53 4225.23 L1182.60 4222.07 L1175.99 4220.28 L1175.03 4220.00 L1174.07 4219.73 L1172.97 4219.59 L1171.73 4219.18 L1157.70 4215.33 L1151.23 4213.54 L1143.66 4211.48 L1132.79 4208.45 L1122.34 4205.56 L1121.51 4208.04 L1114.22 4232.66 L1112.98 4237.06 L1106.10 4260.31 L1096.89 4293.46 L1092.90 4307.91 L1081.20 4350.00 L1078.59 4358.94 L1017.78 4332.39 L1012.28 4329.92 L1010.90 4328.40 L1003.61 4320.98 L1001.55 4319.05 L997.28 4315.20 L1027.96 4208.31 L1037.18 4182.45 L1020.53 4177.91 L987.38 4168.83 L982.84 4167.46 L961.79 4161.82 L944.45 4157.14 L933.86 4154.25 L929.05 4152.74 L920.24 4150.54 L909.92 4147.65 L900.57 4144.90 L887.22 4141.46 L879.11 4139.12 L869.48 4136.50 L856.41 4133.07 L846.36 4130.45 L839.07 4128.39 L833.02 4126.60 L830.27 4127.43 L827.52 4126.74 L811.69 4123.02 L803.30 4121.10 L793.53 4118.76 L778.68 4115.18 L771.93 4113.39 L751.16 4107.89 L748.68 4107.34 L746.07 4106.79 L747.31 4102.39 L752.26 4084.64 L753.91 4079.28 L755.15 4074.60 L757.49 4066.49 L760.93 4053.55 L763.82 4043.65 L764.78 4040.21 L759.14 4039.39 L755.15 4038.01 L753.64 4037.60 L663.25 4015.59 L659.12 4014.49 L641.93 4074.60 L641.24 4077.35 L639.45 4075.29 L632.43 4073.36 L613.72 4068.41 L595.29 4063.18 L573.55 4057.13 L546.72 4049.29 L537.51 4046.68 L536.41 4046.26 L533.38 4045.44 L531.32 4052.04 L530.21 4056.31 L528.98 4056.58 L520.31 4092.90 L515.63 4108.85 L512.33 4121.65 L510.95 4130.59 L508.34 4139.81 L506.69 4145.45 L505.73 4148.61 L482.89 4142.42 L477.25 4140.63 L466.38 4137.47 L459.50 4135.40 L457.58 4134.72 L453.31 4133.48 L449.73 4132.38 L430.34 4127.29 L431.44 4117.93 L429.92 4107.89 L436.25 4085.61 L448.36 4039.66 L450.70 4025.35 L451.25 4022.88 L438.45 4019.30 L434.19 4018.06 L428.96 4016.55 L424.97 4015.45 L417.54 4013.39 L391.40 4006.37 L372.14 4000.87 L353.43 3995.64 L335.27 3990.55 L332.93 3989.86 L328.39 3993.58 L327.57 3994.40 L326.88 3995.23 L324.68 3998.53 L320.14 4004.31 L317.94 4007.20 L314.63 4012.70 L311.88 4017.65 L309.41 4022.47 L307.07 4027.97 L305.55 4031.82 L304.59 4035.53 L303.63 4039.94 L303.35 4041.31 L303.49 4042.00 L304.04 4045.85 L294.27 4071.30 L293.86 4075.01 L293.59 4076.94 L293.17 4078.59 L292.62 4080.79 L291.80 4082.72 L289.60 4087.53 L288.08 4090.70 L287.53 4092.35 L284.51 4103.76 L283.13 4108.85 L281.89 4113.94 L279.69 4121.10 L277.08 4121.10 L264.97 4121.10 L246.95 4121.51 L225.07 4121.79 L209.94 4121.79 L207.74 4121.79 L203.89 4121.92 L200.72 4121.92 L196.32 4122.20 L191.64 4122.34 L182.29 4122.47 L168.39 4122.75 L161.65 4122.89 L157.11 4122.89 L157.11 4122.89 Z" stroke-linejoin="round"/>
	</defs>
	<use xlink:href="#path_dCVLfiPb" style="fill:#6BACAF;stroke:#097D9B;stroke-width:5.76"/>
	<defs>
		<path id="path_SVNVmJUi" d="M1788.07 2993.08 L1788.07 2993.08 L1776.37 2994.74 L1759.72 2995.97 L1748.31 2998.45 L1732.21 2996.80 L1716.53 2993.36 L1705.80 2989.51 L1698.64 2986.48 L1692.31 2983.04 L1685.02 2978.23 L1645.26 2944.94 L1634.81 2936.27 L1583.22 2892.66 L1579.09 2889.78 L1533.96 2852.22 L1531.07 2849.74 L1526.26 2844.93 L1520.89 2845.21 L1509.89 2845.76 L1510.85 2842.59 L1505.90 2834.89 L1506.72 2833.37 L1513.88 2835.16 L1495.58 2819.48 L1490.21 2814.12 L1481.13 2802.15 L1469.58 2784.54 L1466.14 2779.18 L1465.31 2777.94 L1464.21 2776.84 L1462.42 2773.67 L1454.31 2758.54 L1448.67 2749.05 L1442.61 2740.38 L1441.79 2739.14 L1434.22 2729.79 L1426.93 2722.50 L1421.70 2717.68 L1406.57 2705.72 L1403.68 2703.93 L1399.42 2701.04 L1395.56 2698.56 L1386.21 2693.34 L1349.20 2669.54 L1305.04 2642.16 L1285.23 2628.82 L1263.08 2614.93 L1233.50 2597.32 L1220.29 2588.38 L1214.79 2584.66 L1205.85 2579.43 L1201.99 2575.72 L1195.53 2573.24 L1190.44 2569.25 L1189.06 2568.84 L1186.86 2567.60 L1186.31 2567.19 L1167.19 2553.02 L1161.41 2548.76 L1147.52 2538.99 L1124.68 2524.13 L1107.62 2512.99 L1062.08 2483.42 L1047.22 2474.20 L1038.01 2468.56 L1029.89 2463.47 L1024.94 2460.31 L1019.71 2456.87 L1017.23 2455.08 L1008.98 2449.85 L997.28 2442.15 L946.24 2411.06 L947.89 2407.89 L953.81 2397.44 L954.77 2395.51 L960.69 2384.51 L961.10 2383.68 L962.89 2380.66 L965.64 2376.39 L968.94 2371.72 L969.22 2371.30 L971.01 2368.96 L967.98 2366.35 L967.43 2365.94 L949.68 2355.07 L929.18 2342.00 L903.46 2325.22 L903.18 2326.18 L900.98 2330.86 L900.15 2330.31 L899.05 2328.93 L894.38 2323.57 L889.42 2320.13 L887.91 2319.30 L890.66 2314.49 L904.69 2267.99 L923.27 2258.78 L934.00 2216.68 L947.34 2202.10 L958.76 2181.33 L976.10 2148.86 L977.06 2147.76 L978.44 2147.63 L983.11 2151.20 L989.44 2156.70 L1000.86 2166.88 L1010.21 2175.14 L1021.08 2159.46 L1024.11 2156.70 L1027.41 2155.19 L1033.19 2153.68 L1036.63 2152.44 L1038.97 2149.96 L1044.61 2138.41 L1056.72 2113.92 L1059.47 2110.07 L1062.77 2108.28 L1089.87 2096.45 L1092.90 2095.76 L1096.06 2096.73 L1099.64 2098.79 L1101.98 2100.58 L1103.08 2103.33 L1103.63 2107.32 L1104.32 2110.35 L1106.79 2112.82 L1137.88 2134.97 L1131.01 2150.38 L1127.98 2157.26 L1167.46 2180.37 L1168.84 2173.49 L1209.56 2035.37 L1207.77 2034.69 L1205.98 2034.14 L1205.02 2033.86 L1204.06 2033.59 L1203.23 2033.45 L1200.62 2033.04 L1198.69 2032.90 L1197.32 2032.90 L1195.94 2032.90 L1194.57 2033.04 L1192.78 2033.31 L1190.71 2033.72 L1189.75 2034.00 L1179.43 2036.89 L1165.81 2040.19 L1163.47 2040.88 L1161.41 2041.43 L1152.19 2042.94 L1155.49 2041.70 L1160.58 2039.91 L1186.59 2030.15 L1193.74 2027.53 L1225.80 2015.70 L1239.00 2011.44 L1248.08 2008.83 L1249.87 2008.27 L1252.07 2007.72 L1254.69 2007.17 L1257.99 2006.21 L1259.23 2005.80 L1263.90 2004.97 L1265.55 2006.07 L1267.21 2007.17 L1269.54 2008.55 L1271.20 2009.79 L1275.18 2012.40 L1283.44 2017.49 L1294.58 2024.64 L1319.76 2041.01 L1343.28 2056.42 L1365.98 2071.14 L1370.11 2073.89 L1376.44 2077.88 L1395.29 2089.44 L1410.28 2098.52 L1416.06 2102.23 L1422.39 2107.04 L1423.90 2108.28 L1425.14 2109.11 L1427.89 2110.90 L1429.96 2112.00 L1441.24 2119.56 L1468.34 2137.17 L1486.09 2148.45 L1504.52 2160.14 L1514.02 2166.75 L1537.68 2181.74 L1543.73 2185.59 L1576.06 2206.36 L1592.43 2216.96 L1594.36 2218.33 L1663.56 2262.90 L1674.70 2270.06 L1691.90 2281.34 L1698.37 2285.60 L1717.21 2297.43 L1734.69 2308.85 L1746.24 2315.86 L1747.34 2316.55 L1748.58 2317.38 L1794.81 2347.78 L1800.03 2351.08 L1798.93 2352.87 L1796.46 2356.45 L1805.12 2362.09 L1814.62 2367.86 L1815.99 2368.96 L1819.85 2371.44 L1820.81 2371.99 L1822.87 2373.37 L1829.61 2378.04 L1841.17 2385.88 L1849.29 2391.52 L1854.79 2395.38 L1869.79 2406.24 L1884.78 2417.66 L1899.09 2428.39 L1913.40 2438.98 L1920.28 2444.07 L1945.45 2462.78 L1953.57 2469.25 L1959.21 2473.37 L1975.31 2485.75 L1981.91 2490.84 L1992.64 2499.10 L1998.69 2503.78 L2004.61 2503.22 L2007.50 2502.12 L2018.23 2510.65 L2043.96 2531.01 L2084.68 2563.48 L2097.33 2573.66 L2098.71 2574.62 L2101.05 2576.55 L2101.87 2577.37 L2103.11 2578.33 L2118.52 2590.44 L2135.31 2603.78 L2151.26 2616.58 L2156.49 2620.70 L2176.99 2636.52 L2181.94 2640.37 L2196.39 2651.52 L2208.63 2660.87 L2214.55 2665.41 L2251.14 2693.75 L2274.12 2711.22 L2286.09 2720.02 L2286.91 2720.71 L2289.53 2722.64 L2287.33 2729.52 L2284.57 2738.59 L2277.70 2761.29 L2261.60 2818.93 L2247.29 2870.79 L2229.13 2935.58 L2214.14 2988.00 L2213.59 2990.06 L2213.04 2992.12 L2189.65 3078.24 L2189.10 3079.89 L2176.30 3076.45 L2165.98 3073.70 L2163.10 3073.01 L2152.36 3070.12 L2108.89 3058.29 L2100.64 3055.81 L2079.17 3050.17 L2073.53 3048.66 L2068.17 3047.15 L2040.79 3040.13 L2032.26 3037.93 L2019.47 3034.77 L2010.39 3032.43 L2003.23 3030.50 L1991.95 3027.34 L1983.42 3024.86 L1976.82 3023.07 L1974.75 3022.39 L1972.42 3021.84 L1965.67 3020.05 L1948.75 3015.65 L1938.30 3012.76 L1931.42 3010.69 L1922.89 3008.22 L1920.83 3007.53 L1914.77 3005.74 L1911.61 3005.05 L1894.00 2999.96 L1877.76 2995.42 L1865.93 2992.26 L1862.22 2991.30 L1858.09 2990.20 L1851.21 2991.71 L1843.65 2990.88 L1840.34 2990.47 L1829.06 2990.33 L1822.87 2990.61 L1810.90 2991.85 L1788.07 2993.08 L1788.07 2993.08 Z" stroke-linejoin="round"/>
	</defs>
	<use xlink:href="#path_SVNVmJUi" style="fill:#09757A;stroke:#00465F;stroke-width:5.76"/>
</svg>
