<?xml version="1.0" encoding="UTF-8" standalone="no"?>
<!-- This is a Stata 16.1 generated SVG file (http://www.stata.com) -->

<svg version="1.1" width="4.00in" height="4.38in" viewBox="0 0 2880 3156" xmlns="http://www.w3.org/2000/svg" xmlns:xlink="http://www.w3.org/1999/xlink">
	<desc>Stata Graph - Graph</desc>
	<rect x="0" y="0" width="2880" height="3156" style="fill:#FFFFFF;stroke:none"/>
	<defs>
		<path id="path_zgjqPoxN" d="M734.28 1350.77 L734.28 1350.77 L730.63 1352.94 L728.26 1347.91 L723.23 1336.76 L722.74 1335.48 L725.10 1332.03 L726.88 1329.66 L728.16 1327.69 L730.23 1324.73 L732.11 1321.97 L734.37 1318.71 L734.77 1318.02 L735.26 1317.24 L736.25 1315.36 L736.74 1314.18 L736.94 1313.49 L737.14 1312.90 L737.24 1312.60 L737.53 1312.80 L737.63 1312.80 L738.42 1312.99 L738.81 1313.09 L740.88 1313.78 L742.26 1314.28 L742.96 1314.47 L747.00 1315.85 L749.76 1317.43 L752.23 1318.91 L755.09 1319.70 L758.24 1320.10 L760.81 1319.01 L762.48 1316.55 L763.37 1312.99 L764.26 1309.25 L766.13 1303.92 L769.19 1298.89 L768.30 1298.40 L765.54 1296.92 L763.47 1295.93 L761.79 1295.34 L760.22 1294.85 L758.93 1294.45 L755.58 1293.76 L754.20 1293.47 L748.87 1292.78 L747.49 1292.58 L746.41 1292.48 L741.97 1302.34 L741.57 1302.74 L740.79 1303.82 L739.11 1306.88 L738.81 1307.27 L738.52 1307.47 L738.22 1307.57 L738.32 1306.88 L738.42 1305.70 L738.71 1302.93 L739.50 1297.02 L739.90 1294.45 L739.90 1294.26 L740.10 1292.97 L740.29 1291.69 L740.39 1291.10 L743.25 1269.50 L743.84 1265.65 L744.04 1264.47 L744.14 1263.19 L746.21 1247.90 L746.80 1243.66 L749.86 1220.39 L750.25 1217.13 L750.35 1216.05 L750.45 1214.86 L751.54 1206.97 L753.21 1194.05 L754.40 1185.47 L755.38 1177.68 L755.58 1176.60 L755.58 1176.20 L755.78 1174.82 L756.17 1171.96 L756.37 1170.09 L757.85 1159.14 L757.95 1158.15 L758.74 1152.43 L759.13 1149.28 L759.82 1144.05 L760.12 1141.78 L760.71 1137.54 L761.30 1132.81 L761.40 1131.72 L761.50 1130.93 L761.60 1130.74 L761.89 1128.17 L763.08 1118.90 L763.27 1117.72 L764.65 1106.97 L764.85 1105.19 L765.15 1103.61 L766.23 1095.33 L766.63 1092.07 L766.92 1089.61 L767.12 1088.52 L767.22 1087.54 L767.32 1086.75 L767.41 1085.96 L767.81 1083.59 L767.91 1082.31 L768.01 1081.72 L768.30 1079.65 L769.09 1073.43 L769.39 1070.97 L770.27 1064.07 L770.97 1058.64 L772.25 1049.07 L772.94 1044.34 L772.94 1043.85 L773.04 1043.35 L773.14 1042.27 L774.91 1029.35 L776.78 1014.75 L777.77 1007.55 L778.66 1000.55 L778.66 1000.16 L778.86 999.17 L778.95 998.09 L779.05 997.59 L779.15 996.41 L779.94 990.39 L780.04 989.41 L780.43 987.04 L780.83 983.78 L781.22 980.23 L781.91 975.50 L783.00 967.81 L783.79 960.90 L783.98 958.83 L784.18 957.85 L784.58 955.38 L785.07 952.42 L785.07 952.22 L785.66 946.11 L787.44 932.50 L787.93 929.54 L788.62 923.72 L789.90 914.45 L790.30 911.79 L790.49 910.41 L789.51 910.31 L788.52 910.11 L788.62 909.62 L788.62 909.03 L794.64 909.82 L791.78 905.18 L789.41 904.79 L789.61 904.39 L790.10 903.41 L790.79 902.42 L791.68 901.24 L791.97 900.74 L792.27 899.76 L792.66 897.09 L792.86 896.50 L792.96 895.32 L792.96 894.92 L793.55 891.27 L793.65 890.98 L789.31 890.58 L789.70 888.32 L789.70 887.43 L789.90 886.15 L789.90 885.95 L788.72 885.75 L788.42 885.65 L788.23 885.65 L787.73 885.65 L780.53 884.47 L776.19 883.98 L774.42 883.68 L762.19 882.00 L759.33 881.51 L744.34 879.44 L740.69 878.85 L740.10 878.85 L739.80 878.75 L739.60 878.75 L739.50 878.85 L739.40 872.44 L743.84 873.23 L750.65 873.23 L755.58 872.73 L760.12 873.13 L763.08 873.62 L764.26 874.11 L767.22 874.21 L769.68 873.23 L773.04 873.82 L773.73 874.11 L775.01 877.07 L777.38 879.04 L780.33 879.54 L780.73 879.74 L781.03 879.93 L783.20 881.21 L788.42 881.21 L795.03 882.00 L798.48 881.71 L800.85 880.72 L805.58 881.31 L806.18 881.41 L808.84 883.38 L810.71 885.26 L811.99 885.46 L813.77 885.06 L814.36 884.76 L815.45 883.58 L816.33 882.69 L816.83 882.40 L819.29 881.61 L820.48 881.21 L823.34 880.62 L824.91 880.13 L825.41 879.64 L826.39 877.96 L827.58 876.38 L828.27 876.09 L829.25 876.28 L832.11 877.57 L832.80 877.76 L833.59 877.66 L834.48 877.17 L835.17 876.97 L835.86 877.07 L838.43 878.55 L838.62 878.85 L838.82 879.44 L838.92 880.62 L838.82 882.40 L838.92 883.09 L839.02 883.78 L839.22 884.67 L840.10 887.23 L841.09 888.81 L844.64 891.96 L846.12 892.85 L847.50 893.25 L848.98 893.44 L850.46 893.05 L851.44 892.65 L851.84 892.56 L853.32 891.96 L855.69 891.57 L857.46 891.87 L860.03 892.26 L862.39 894.04 L864.27 895.32 L866.44 896.60 L869.39 897.29 L871.76 897.09 L872.26 896.99 L874.42 896.30 L876.50 895.02 L876.69 894.33 L876.99 893.44 L876.20 889.20 L875.51 885.95 L875.41 885.16 L874.72 884.17 L874.13 883.48 L873.44 883.19 L872.06 883.19 L870.09 883.68 L867.62 884.17 L866.24 883.78 L865.84 883.68 L865.45 882.79 L865.35 882.50 L865.25 882.20 L864.96 881.90 L864.36 881.31 L863.87 880.52 L863.38 879.54 L863.18 878.85 L863.08 878.06 L862.98 876.97 L862.98 876.58 L863.67 876.68 L864.17 876.78 L864.96 879.34 L865.75 880.82 L867.23 882.40 L868.31 882.20 L870.58 881.12 L872.85 879.93 L874.13 879.14 L875.12 878.95 L875.31 878.95 L876.59 879.44 L877.98 880.72 L878.07 880.92 L879.36 883.48 L880.34 885.46 L881.13 886.64 L882.12 887.33 L883.20 887.92 L884.98 888.41 L885.47 888.32 L886.85 887.92 L887.44 887.13 L888.33 886.64 L889.81 887.13 L890.01 887.23 L890.80 887.72 L891.78 888.81 L892.97 889.40 L895.73 890.98 L896.32 891.37 L897.11 891.96 L899.38 892.75 L901.55 894.23 L901.94 894.63 L904.60 896.90 L906.38 898.28 L907.07 898.67 L907.46 898.57 L908.35 898.38 L909.54 897.39 L910.52 897.09 L912.59 897.78 L912.79 897.98 L913.68 898.77 L914.96 899.36 L915.65 899.85 L915.85 899.95 L916.44 900.45 L926.11 900.84 L930.05 900.84 L938.93 907.55 L943.76 909.22 L945.34 910.41 L950.07 912.28 L952.73 914.25 L952.83 914.35 L966.94 913.86 L967.13 913.86 L969.01 911.00 L973.45 911.49 L976.21 909.03 L978.08 908.04 L979.17 904.00 L979.66 903.70 L982.62 901.43 L987.94 902.22 L992.28 902.81 L994.95 903.31 L995.74 903.50 L997.02 903.70 L998.40 904.10 L999.78 904.49 L1001.16 904.88 L1002.94 905.57 L1012.31 909.13 L1015.66 910.60 L1018.52 911.79 L1028.68 915.93 L1029.47 916.23 L1034.30 918.00 L1035.38 918.49 L1038.05 919.48 L1041.99 920.47 L1042.68 920.66 L1043.08 920.76 L1066.65 925.20 L1074.44 926.68 L1075.82 926.88 L1079.37 927.67 L1081.34 927.96 L1081.74 927.77 L1084.40 928.16 L1087.75 928.55 L1089.53 928.75 L1089.73 929.34 L1091.80 929.84 L1093.47 930.13 L1098.31 931.12 L1099.00 931.12 L1099.59 931.12 L1100.18 931.02 L1100.48 930.92 L1100.77 930.82 L1101.17 930.72 L1101.46 930.63 L1101.76 930.43 L1102.35 930.23 L1102.55 929.64 L1102.84 929.44 L1103.04 929.24 L1103.14 929.15 L1103.24 928.95 L1103.24 928.85 L1103.44 928.65 L1103.53 928.55 L1103.63 928.55 L1103.83 928.46 L1103.93 928.46 L1104.13 928.46 L1104.32 928.46 L1104.52 928.55 L1104.72 928.65 L1104.92 928.75 L1105.01 928.75 L1105.11 928.85 L1105.21 929.05 L1105.21 929.24 L1105.21 929.34 L1105.21 929.54 L1105.21 929.74 L1105.21 929.94 L1105.01 930.23 L1105.01 930.33 L1104.92 930.43 L1105.01 930.72 L1105.01 931.12 L1104.82 931.32 L1104.42 932.01 L1104.23 932.40 L1102.06 937.04 L1105.70 939.70 L1107.58 939.50 L1107.87 939.50 L1108.07 939.50 L1113.30 939.01 L1115.96 941.08 L1117.84 942.66 L1118.62 943.25 L1123.16 946.31 L1123.85 945.81 L1124.64 946.11 L1125.53 946.50 L1126.42 946.70 L1127.60 946.80 L1128.09 946.90 L1128.68 947.29 L1129.47 947.79 L1129.47 948.77 L1135.98 950.45 L1143.18 952.22 L1151.37 954.39 L1151.86 954.89 L1152.16 955.28 L1152.36 955.68 L1152.45 956.17 L1152.45 956.56 L1152.36 956.86 L1152.26 957.25 L1152.16 957.45 L1152.06 957.75 L1151.76 958.04 L1151.47 958.24 L1151.17 958.44 L1150.78 958.54 L1150.28 958.64 L1149.69 958.64 L1149.10 958.64 L1148.41 958.83 L1146.54 958.73 L1145.45 958.64 L1144.46 958.73 L1142.89 958.83 L1141.51 958.93 L1140.91 958.93 L1139.73 958.93 L1139.73 959.23 L1138.74 965.54 L1137.96 971.95 L1137.36 976.49 L1137.56 976.68 L1137.46 977.18 L1137.27 978.46 L1137.17 979.44 L1135.00 979.15 L1135.00 979.74 L1134.60 981.71 L1134.40 983.39 L1134.31 984.18 L1134.21 984.87 L1134.21 985.07 L1134.11 985.56 L1132.24 985.36 L1131.25 985.26 L1130.07 985.07 L1130.46 982.11 L1130.56 981.52 L1130.66 981.02 L1130.66 980.53 L1130.85 979.44 L1130.95 978.95 L1130.95 978.75 L1127.40 978.26 L1127.21 978.36 L1126.81 978.36 L1126.51 980.14 L1126.32 981.71 L1126.22 982.30 L1125.92 984.47 L1125.13 990.59 L1124.84 992.46 L1124.84 992.76 L1124.84 993.25 L1124.35 996.31 L1124.35 996.41 L1124.15 997.69 L1124.15 997.99 L1123.95 999.37 L1123.56 1002.33 L1123.56 1002.72 L1123.56 1002.82 L1123.26 1005.19 L1123.26 1005.58 L1123.16 1006.07 L1123.06 1007.06 L1122.96 1007.36 L1122.77 1008.64 L1141.21 1010.91 L1140.82 1013.86 L1140.42 1016.73 L1139.93 1020.18 L1139.63 1022.74 L1139.63 1022.94 L1139.43 1023.83 L1139.24 1025.90 L1139.04 1027.57 L1138.84 1028.95 L1138.65 1030.34 L1138.45 1031.81 L1138.05 1034.97 L1137.76 1037.04 L1137.66 1037.93 L1137.36 1040.99 L1137.27 1042.07 L1136.97 1044.04 L1136.67 1046.90 L1132.43 1046.41 L1128.59 1045.92 L1127.21 1045.72 L1126.32 1045.62 L1117.74 1044.44 L1113.99 1044.04 L1110.34 1043.55 L1107.87 1043.16 L1098.31 1041.97 L1091.70 1040.99 L1087.66 1040.20 L1077.99 1039.01 L1077.50 1038.92 L1068.42 1037.63 L1068.42 1037.83 L1067.63 1044.64 L1067.14 1048.29 L1066.75 1050.75 L1066.45 1052.72 L1066.16 1055.39 L1065.86 1057.56 L1065.66 1058.74 L1064.38 1069.39 L1063.79 1074.72 L1063.59 1076.39 L1063.39 1077.48 L1063.10 1080.24 L1063.00 1080.54 L1062.60 1083.69 L1062.51 1084.48 L1062.31 1085.66 L1062.21 1086.75 L1062.01 1088.13 L1061.82 1089.71 L1061.52 1092.76 L1061.32 1095.13 L1061.22 1095.82 L1060.93 1097.70 L1060.73 1098.98 L1060.63 1100.36 L1060.43 1101.84 L1060.14 1103.71 L1059.94 1104.99 L1059.55 1107.95 L1059.25 1111.21 L1063.30 1111.80 L1067.63 1112.39 L1068.72 1112.49 L1078.48 1113.67 L1078.09 1116.73 L1077.89 1119.00 L1077.79 1119.59 L1077.50 1121.76 L1076.71 1127.48 L1079.37 1127.88 L1087.26 1128.86 L1091.50 1129.35 L1095.35 1129.85 L1096.73 1130.05 L1096.63 1130.44 L1097.12 1130.54 L1099.00 1130.34 L1100.77 1130.54 L1103.53 1130.93 L1103.04 1131.13 L1097.12 1134.29 L1096.04 1134.78 L1095.35 1135.17 L1094.95 1135.37 L1094.26 1135.77 L1092.59 1136.65 L1092.00 1137.05 L1091.40 1137.34 L1090.91 1137.64 L1090.52 1137.94 L1090.22 1138.23 L1089.53 1138.82 L1089.33 1139.12 L1089.14 1139.41 L1088.94 1139.61 L1088.64 1139.91 L1088.35 1140.30 L1087.85 1141.09 L1086.18 1143.36 L1084.89 1145.13 L1081.64 1147.11 L1077.79 1149.57 L1073.26 1152.24 L1068.72 1154.80 L1067.83 1155.29 L1068.72 1148.98 L1069.51 1143.56 L1069.71 1142.18 L1070.10 1139.71 L1071.68 1127.48 L1071.68 1126.89 L1066.85 1126.20 L1064.08 1125.80 L1061.82 1125.51 L1059.84 1125.31 L1057.57 1125.02 L1056.59 1124.92 L1052.05 1124.23 L1050.08 1123.93 L1047.91 1123.54 L1045.74 1123.24 L1042.29 1122.85 L1037.55 1122.35 L1033.12 1121.86 L1032.52 1121.76 L1027.69 1121.27 L1018.42 1119.99 L1017.93 1119.89 L1010.63 1119.00 L1009.05 1118.80 L1008.56 1118.70 L1008.46 1119.30 L1008.85 1120.97 L1008.36 1123.73 L1008.56 1125.21 L1008.56 1125.71 L1008.26 1127.68 L1008.06 1128.86 L1007.97 1129.75 L1007.77 1130.64 L1007.18 1131.03 L998.10 1129.75 L997.41 1132.81 L996.52 1140.30 L996.23 1140.40 L996.03 1140.60 L995.93 1140.80 L995.93 1141.29 L990.31 1144.25 L987.65 1139.41 L987.25 1138.33 L982.72 1142.57 L982.52 1142.77 L982.32 1142.87 L982.13 1142.87 L982.03 1142.97 L981.73 1142.97 L978.38 1142.47 L978.38 1142.47 L978.28 1142.47 L978.28 1142.47 L978.18 1142.37 L975.52 1149.47 L975.12 1154.01 L974.14 1159.14 L978.77 1159.83 L986.96 1160.82 L990.21 1161.21 L990.90 1161.41 L991.69 1161.51 L992.48 1161.70 L993.66 1162.10 L993.76 1162.69 L993.76 1163.18 L993.66 1163.58 L993.47 1164.27 L993.27 1166.14 L991.69 1176.60 L991.49 1177.78 L991.40 1178.96 L991.30 1180.15 L990.90 1183.01 L990.71 1184.49 L990.61 1185.47 L990.02 1189.61 L989.92 1190.40 L989.82 1191.29 L989.82 1191.98 L989.82 1192.97 L989.72 1193.86 L989.62 1195.63 L989.52 1196.52 L989.33 1197.50 L989.33 1197.90 L989.13 1199.18 L988.93 1199.28 L987.55 1200.17 L983.31 1202.53 L989.42 1200.56 L999.09 1195.53 L982.62 1205.20 L967.13 1214.27 L962.99 1216.64 L962.50 1216.93 L957.96 1219.60 L926.99 1237.84 L926.40 1238.14 L924.23 1239.42 L920.98 1241.29 L919.79 1241.98 L917.92 1243.17 L899.97 1253.62 L856.67 1279.17 L833.69 1291.99 L818.90 1300.17 L816.53 1301.65 L790.39 1317.83 L787.53 1319.50 L786.94 1319.90 L784.18 1321.48 L780.33 1323.74 L763.57 1333.51 L752.32 1340.12 L746.60 1344.06 L740.69 1347.22 L734.28 1350.77 L734.28 1350.77 Z" stroke-linejoin="round"/>
	</defs>
	<use xlink:href="#path_zgjqPoxN" style="fill:#9DC8CA;stroke:#6BB4D2;stroke-width:5.76"/>
	<defs>
		<path id="path_nyEhXLuq" d="M1304.24 1006.17 L1304.24 1006.17 L1304.24 1006.17 L1303.65 1006.27 L1303.06 1006.27 L1302.07 1006.07 L1301.08 1005.97 L1301.38 1005.28 L1301.48 1004.99 L1301.58 1004.69 L1301.77 1004.10 L1301.77 1004.00 L1301.97 1003.11 L1302.07 1002.62 L1302.46 1000.16 L1302.46 999.96 L1302.96 995.92 L1303.16 994.04 L1303.35 992.66 L1304.04 986.55 L1304.24 985.07 L1304.63 981.61 L1304.73 981.02 L1304.83 980.53 L1304.93 979.15 L1305.13 978.16 L1305.23 977.67 L1305.23 977.37 L1305.42 976.78 L1305.52 976.09 L1305.72 975.50 L1305.82 975.30 L1306.02 974.71 L1305.23 975.11 L1304.83 975.20 L1304.73 975.30 L1303.94 975.70 L1303.65 975.89 L1302.66 976.58 L1302.27 976.98 L1301.38 977.67 L1301.08 977.77 L1300.10 978.56 L1298.42 979.44 L1297.73 979.74 L1285.90 981.42 L1279.29 984.38 L1264.89 982.21 L1248.81 978.46 L1233.43 976.19 L1230.07 973.23 L1207.49 967.31 L1202.26 966.23 L1176.62 958.14 L1161.33 953.70 L1155.51 952.13 L1149.30 950.35 L1141.90 946.70 L1131.45 942.26 L1112.51 934.18 L1111.62 933.78 L1111.33 933.68 L1110.73 933.58 L1110.44 933.58 L1110.04 933.68 L1109.85 933.78 L1109.75 933.78 L1109.55 933.88 L1109.06 934.18 L1106.69 935.56 L1104.92 936.15 L1104.32 936.35 L1102.06 937.04 L1104.23 932.40 L1104.42 932.01 L1104.82 931.32 L1105.01 931.12 L1105.01 930.72 L1104.92 930.43 L1105.01 930.33 L1105.01 930.23 L1105.21 929.94 L1105.21 929.74 L1105.21 929.54 L1105.21 929.34 L1105.21 929.24 L1105.21 929.05 L1105.11 928.85 L1105.01 928.75 L1104.92 928.75 L1104.72 928.65 L1104.52 928.55 L1104.32 928.46 L1104.13 928.46 L1103.93 928.46 L1103.83 928.46 L1103.63 928.55 L1103.53 928.55 L1103.44 928.65 L1103.24 928.85 L1103.24 928.95 L1103.14 929.15 L1103.04 929.24 L1102.84 929.44 L1102.55 929.64 L1102.35 930.23 L1101.76 930.43 L1101.46 930.63 L1101.17 930.72 L1100.77 930.82 L1100.48 930.92 L1100.18 931.02 L1099.59 931.12 L1099.00 931.12 L1098.31 931.12 L1093.47 930.13 L1091.80 929.84 L1089.73 929.34 L1089.53 928.75 L1087.75 928.55 L1084.40 928.16 L1081.74 927.77 L1081.34 927.96 L1079.37 927.67 L1075.82 926.88 L1074.44 926.68 L1066.65 925.20 L1043.08 920.76 L1042.68 920.66 L1041.99 920.47 L1038.05 919.48 L1035.38 918.49 L1034.30 918.00 L1029.47 916.23 L1028.68 915.93 L1018.52 911.79 L1015.66 910.60 L1012.31 909.13 L1012.80 907.94 L1013.00 907.15 L1013.09 906.27 L1013.19 905.28 L1013.19 902.81 L1013.09 901.33 L1012.90 897.98 L1016.74 897.88 L1017.14 897.88 L1017.53 897.88 L1017.93 897.98 L1018.32 898.08 L1018.72 898.38 L1019.11 898.67 L1019.31 898.97 L1019.50 899.36 L1019.60 899.76 L1019.60 900.15 L1019.60 902.71 L1019.70 903.31 L1019.70 903.90 L1019.80 904.49 L1019.90 904.88 L1020.00 905.28 L1020.20 905.77 L1020.39 906.07 L1020.69 906.36 L1021.08 906.76 L1021.18 907.65 L1025.62 897.68 L1019.70 893.84 L1018.91 893.44 L1017.73 893.35 L1005.99 893.05 L1004.12 893.15 L1003.53 891.57 L1003.92 889.50 L1003.72 886.15 L1003.53 883.78 L1002.25 883.29 L999.19 881.02 L988.73 875.49 L987.25 873.62 L987.06 869.38 L987.55 866.03 L988.63 864.84 L1005.99 849.26 L1023.45 851.63 L1029.37 838.90 L1056.10 855.87 L1062.70 860.31 L1063.30 856.95 L1068.13 816.81 L1077.60 818.59 L1072.86 858.73 L1085.39 860.11 L1087.16 858.04 L1093.47 852.61 L1103.53 848.67 L1112.02 844.43 L1116.16 837.52 L1121.58 827.56 L1126.91 823.42 L1133.91 823.42 L1130.85 815.33 L1131.94 810.70 L1131.84 810.11 L1131.35 809.81 L1128.59 810.50 L1126.91 806.26 L1123.65 801.33 L1120.01 802.51 L1117.15 799.65 L1116.85 796.79 L1117.84 792.75 L1121.29 788.90 L1120.79 787.82 L1119.61 784.46 L1118.62 781.11 L1118.33 779.73 L1117.93 776.77 L1117.05 769.37 L1116.55 765.43 L1115.86 758.72 L1115.47 756.75 L1115.17 755.57 L1114.88 754.97 L1114.29 753.79 L1113.40 752.11 L1112.61 751.03 L1111.92 750.04 L1109.35 746.79 L1108.76 745.80 L1108.27 744.72 L1107.87 743.53 L1107.58 742.15 L1107.28 740.08 L1106.79 736.24 L1106.59 733.97 L1106.30 731.70 L1106.00 730.22 L1105.70 728.94 L1105.01 726.87 L1102.65 719.86 L1101.66 716.81 L1099.79 710.59 L1097.52 703.29 L1097.12 702.21 L1096.53 701.13 L1096.14 700.63 L1095.45 699.74 L1094.95 699.35 L1094.17 698.66 L1093.08 697.57 L1092.49 696.98 L1092.29 696.59 L1092.19 696.29 L1092.09 695.90 L1092.09 695.40 L1092.09 695.01 L1092.19 694.42 L1092.78 691.66 L1092.98 690.08 L1093.47 686.92 L1093.87 684.16 L1093.97 683.18 L1093.87 682.68 L1093.77 682.39 L1093.47 682.09 L1092.98 681.79 L1092.29 681.60 L1090.02 681.40 L1086.77 680.91 L1086.08 680.71 L1084.80 680.32 L1084.60 680.22 L1083.91 679.92 L1079.17 677.16 L1076.61 675.68 L1074.74 674.59 L1070.89 672.62 L1068.52 671.44 L1067.83 671.24 L1065.96 670.65 L1057.87 668.38 L1053.53 667.20 L1050.57 666.41 L1039.03 663.25 L1025.62 659.60 L1023.94 659.11 L1022.96 658.62 L1021.67 657.93 L1020.20 657.04 L1018.81 656.05 L1017.43 655.26 L1016.45 654.87 L1014.87 654.67 L1012.90 654.48 L1012.01 654.38 L1009.84 653.88 L1008.95 653.69 L1005.80 652.40 L1005.50 652.31 L1003.82 651.62 L1001.65 650.23 L1000.47 649.35 L998.60 647.97 L994.45 644.61 L991.99 649.05 L979.27 638.10 L973.05 640.96 L971.08 637.22 L967.04 636.43 L962.70 638.60 L961.91 638.79 L961.02 639.09 L959.74 637.51 L958.55 633.37 L957.07 631.79 L952.14 628.34 L951.35 627.95 L949.97 628.73 L949.48 630.31 L945.73 630.51 L943.56 631.00 L942.77 629.72 L943.76 628.34 L944.65 626.47 L944.55 625.68 L941.10 626.86 L940.31 624.79 L939.62 624.39 L938.14 624.69 L937.45 624.39 L937.15 623.41 L937.84 623.11 L938.04 622.82 L937.74 622.52 L936.76 622.23 L934.59 620.65 L933.11 620.55 L932.81 622.62 L930.84 622.82 L930.05 621.34 L929.66 618.87 L928.77 618.08 L926.80 619.27 L923.15 618.18 L922.46 618.97 L920.88 619.56 L919.79 620.65 L918.51 619.07 L916.05 617.59 L912.89 616.80 L912.40 615.91 L911.02 616.41 L905.79 616.90 L902.43 614.73 L899.97 613.64 L899.87 612.56 L898.98 612.56 L896.71 613.64 L894.45 613.84 L890.60 613.15 L887.25 612.76 L883.10 614.73 L879.75 616.41 L879.16 616.70 L878.07 615.91 L876.59 615.12 L874.72 614.34 L873.34 613.15 L872.06 612.86 L870.48 613.94 L869.00 614.43 L867.62 616.21 L866.63 617.29 L865.25 617.10 L864.27 615.81 L862.39 615.42 L861.80 615.12 L860.91 613.74 L859.53 613.55 L859.04 611.97 L857.76 611.97 L856.67 611.18 L855.29 611.28 L854.21 609.80 L854.21 608.22 L853.02 608.42 L850.26 609.11 L848.09 611.47 L847.20 610.59 L845.03 609.70 L842.47 607.92 L840.79 605.26 L839.12 605.06 L837.83 603.88 L837.83 600.82 L835.07 598.26 L831.62 595.99 L826.00 594.41 L823.53 594.91 L820.67 593.53 L818.50 590.47 L818.11 590.47 L817.02 590.07 L815.25 587.80 L813.08 585.93 L811.11 584.06 L811.70 582.68 L811.30 581.59 L809.53 581.79 L805.58 580.21 L802.53 577.35 L798.28 576.86 L795.62 572.62 L791.78 568.08 L788.72 566.90 L787.24 564.63 L785.36 562.56 L784.08 562.66 L783.20 560.39 L781.03 556.74 L778.36 553.09 L776.39 549.74 L774.22 547.66 L771.26 546.38 L769.98 544.11 L768.99 542.54 L768.40 541.65 L766.53 540.96 L765.94 538.69 L765.54 536.03 L764.55 534.45 L763.67 533.86 L762.68 533.27 L762.29 532.38 L761.40 529.52 L761.20 527.35 L759.03 525.77 L756.47 524.88 L753.90 519.85 L752.62 519.06 L750.65 519.56 L748.38 519.46 L745.32 516.89 L743.65 514.72 L741.57 509.79 L740.29 507.62 L740.88 506.64 L741.28 505.45 L740.59 503.38 L739.90 502.40 L739.40 501.80 L739.31 501.51 L739.60 501.21 L740.59 501.21 L741.57 500.62 L741.77 499.83 L741.48 499.14 L740.39 499.14 L739.40 497.76 L738.42 497.66 L736.54 496.48 L735.85 494.21 L734.77 493.82 L732.90 493.82 L731.32 493.22 L730.53 493.32 L728.75 492.43 L728.16 491.65 L727.67 491.65 L727.37 492.24 L727.67 492.73 L727.87 493.13 L726.98 495.00 L727.27 495.69 L726.98 497.07 L725.60 496.77 L724.22 495.69 L723.23 493.72 L721.95 491.55 L721.16 491.84 L720.76 489.67 L718.99 489.18 L716.52 489.48 L714.75 488.19 L712.68 484.94 L711.30 482.87 L710.90 481.68 L709.62 481.68 L708.63 482.37 L707.25 482.37 L706.17 482.18 L705.08 481.68 L704.29 480.50 L703.11 479.02 L701.93 477.94 L700.64 477.34 L699.26 475.57 L697.09 474.68 L696.30 475.08 L694.92 474.68 L694.14 475.37 L693.64 475.37 L693.54 474.88 L693.84 473.70 L694.63 472.41 L694.53 471.72 L692.46 470.93 L691.47 468.96 L691.08 468.86 L688.91 469.85 L687.03 468.57 L671.25 438.98 L666.22 429.51 L663.56 424.58 L662.77 423.10 L661.69 420.93 L660.50 418.56 L659.42 416.10 L658.53 413.53 L657.84 410.97 L657.15 408.31 L656.95 406.93 L656.66 405.64 L656.46 404.36 L656.16 401.70 L656.07 399.04 L656.07 396.28 L656.07 394.89 L656.26 392.43 L656.36 390.85 L656.76 388.09 L657.05 386.71 L657.64 384.05 L659.71 374.38 L668.89 332.86 L681.61 275.76 L684.57 262.24 L685.75 256.62 L688.41 244.98 L691.27 231.57 L691.67 230.19 L692.66 225.46 L693.64 220.53 L694.33 216.38 L695.22 209.58 L696.01 202.67 L696.70 194.49 L696.90 189.66 L716.82 220.23 L746.01 266.98 L745.52 268.95 L745.32 271.22 L745.82 272.20 L748.68 275.26 L749.07 277.73 L751.83 282.36 L757.85 285.91 L765.44 291.04 L766.63 291.63 L783.89 314.81 L784.38 314.71 L786.06 314.71 L786.65 314.61 L787.14 314.52 L787.63 314.61 L788.32 314.71 L791.09 315.80 L793.65 318.36 L795.82 319.55 L800.16 319.74 L801.64 322.11 L805.88 324.77 L810.22 329.11 L812.98 330.79 L814.56 332.86 L818.70 336.41 L819.19 337.79 L817.81 343.41 L818.11 344.30 L816.93 349.63 L817.52 351.20 L820.08 352.98 L822.84 358.99 L824.03 361.66 L823.73 362.84 L823.43 364.32 L823.93 365.80 L824.72 366.29 L825.21 364.72 L825.70 364.72 L826.99 365.50 L829.94 365.60 L831.62 368.96 L831.52 371.91 L831.82 372.61 L835.27 373.39 L837.64 375.86 L841.48 377.14 L844.05 378.62 L848.68 380.40 L849.67 381.09 L850.85 384.44 L853.52 385.13 L857.86 387.60 L860.03 387.20 L863.48 382.37 L866.24 374.08 L868.11 372.11 L871.37 371.03 L872.16 371.03 L875.90 370.73 L877.58 369.94 L881.72 371.82 L884.09 372.01 L887.94 370.04 L892.47 371.03 L895.04 369.94 L896.42 370.04 L898.69 371.72 L901.15 371.62 L904.70 369.84 L905.89 370.44 L908.85 373.99 L913.58 374.87 L916.05 376.75 L918.12 376.75 L920.68 375.17 L923.05 372.61 L926.50 373.30 L927.19 369.55 L928.77 364.22 L928.28 358.50 L926.20 354.56 L926.30 351.60 L923.74 349.63 L923.34 348.54 L925.61 345.58 L926.50 343.91 L926.89 341.44 L926.70 336.80 L925.51 335.32 L925.81 333.35 L924.72 332.27 L921.47 329.80 L919.79 326.55 L919.60 321.71 L918.51 320.24 L915.26 317.67 L913.19 314.81 L901.55 306.53 L899.67 303.67 L899.57 300.51 L896.71 297.85 L895.63 295.28 L892.18 291.54 L890.21 291.04 L886.85 289.27 L887.64 283.84 L888.33 283.05 L892.08 280.98 L893.76 277.83 L894.74 272.50 L897.60 272.01 L901.15 272.40 L902.04 271.71 L902.14 271.51 L902.24 271.42 L902.53 268.85 L902.63 268.65 L902.73 268.56 L902.93 268.46 L903.13 268.46 L903.22 268.26 L903.32 267.96 L903.52 266.98 L903.62 266.68 L903.82 266.58 L903.91 266.29 L910.62 260.17 L920.98 243.80 L929.16 228.91 L929.85 227.23 L930.05 226.74 L930.15 225.95 L930.35 223.88 L930.35 223.29 L930.05 220.23 L931.63 215.99 L932.22 212.04 L932.02 210.66 L931.92 210.37 L931.83 210.17 L931.63 210.07 L930.05 209.68 L928.97 208.49 L928.28 206.72 L928.37 203.96 L932.71 199.12 L934.29 195.67 L937.94 191.33 L938.93 186.20 L937.55 177.72 L938.14 175.65 L938.63 173.19 L941.29 170.03 L945.04 167.27 L945.04 165.59 L945.04 164.41 L944.65 162.44 L945.63 157.11 L950.56 149.91 L949.97 149.42 L949.38 148.13 L947.21 147.15 L947.70 144.58 L948.39 143.30 L946.62 141.82 L942.97 140.24 L940.60 138.07 L931.83 127.23 L927.49 120.52 L926.20 117.07 L925.91 114.41 L925.71 105.92 L923.64 95.47 L923.34 88.96 L925.22 81.27 L925.41 80.68 L926.11 78.80 L929.95 53.55 L930.15 52.86 L928.77 50.30 L929.75 46.75 L930.74 43.99 L931.92 31.07 L934.39 31.36 L937.74 31.86 L967.04 35.70 L971.87 36.39 L982.03 37.67 L997.51 39.65 L1013.00 41.72 L1044.06 45.96 L1050.28 46.75 L1056.69 47.44 L1070.49 49.12 L1082.43 50.50 L1090.02 51.48 L1097.12 52.47 L1102.45 53.16 L1116.55 55.33 L1118.82 55.62 L1125.04 56.51 L1125.33 56.81 L1137.36 67.26 L1148.11 75.15 L1151.07 79.59 L1151.96 80.38 L1159.16 87.38 L1162.22 91.52 L1172.08 95.86 L1174.35 97.54 L1176.91 95.67 L1180.27 95.17 L1182.63 97.44 L1189.14 102.67 L1194.57 106.32 L1199.70 114.11 L1199.79 115.10 L1203.15 120.32 L1203.35 122.39 L1206.11 124.86 L1206.21 126.34 L1210.25 129.69 L1214.29 130.38 L1216.27 131.76 L1221.79 135.41 L1221.69 136.50 L1219.72 138.77 L1219.62 140.64 L1221.79 142.41 L1223.76 146.66 L1226.13 147.74 L1227.02 148.83 L1228.59 153.46 L1230.76 155.83 L1231.16 156.22 L1237.27 159.97 L1242.70 159.28 L1244.18 159.97 L1246.84 163.82 L1245.56 166.97 L1248.61 173.38 L1249.40 177.13 L1249.50 180.29 L1251.67 182.55 L1251.28 183.74 L1251.47 185.51 L1253.55 188.47 L1253.55 189.56 L1257.29 198.53 L1259.76 202.18 L1260.35 204.15 L1259.96 206.32 L1257.49 206.52 L1256.70 207.21 L1257.29 208.79 L1260.06 211.16 L1260.84 214.11 L1262.13 215.99 L1265.48 215.89 L1265.28 217.76 L1266.76 222.20 L1269.13 226.05 L1272.48 228.12 L1274.45 229.99 L1276.82 231.18 L1277.41 234.73 L1279.88 239.17 L1280.67 240.05 L1283.43 243.60 L1288.46 247.65 L1290.93 251.00 L1296.74 255.44 L1304.93 257.02 L1307.99 256.52 L1310.75 255.14 L1316.57 254.45 L1327.02 255.73 L1330.38 255.73 L1332.45 254.65 L1334.81 255.44 L1338.46 254.45 L1345.76 254.75 L1351.09 253.07 L1355.33 251.10 L1360.16 251.49 L1362.73 251.30 L1363.81 253.47 L1366.47 252.97 L1369.33 251.79 L1372.69 248.93 L1373.57 249.13 L1374.17 250.31 L1374.27 251.59 L1375.05 252.87 L1377.32 252.97 L1380.48 252.28 L1392.61 252.87 L1394.78 252.48 L1398.23 253.76 L1399.81 253.66 L1400.30 250.80 L1400.99 250.31 L1407.01 252.28 L1408.78 254.75 L1410.46 254.55 L1412.34 251.00 L1412.93 250.21 L1413.42 250.01 L1415.59 251.00 L1417.86 253.56 L1418.45 254.95 L1419.34 255.44 L1420.92 255.14 L1426.54 252.58 L1427.92 252.58 L1429.20 253.17 L1430.88 254.75 L1432.65 254.65 L1435.22 252.48 L1435.61 250.31 L1438.37 248.53 L1439.26 248.73 L1439.65 249.13 L1440.35 251.49 L1441.92 251.30 L1442.42 250.70 L1442.71 246.96 L1443.50 245.97 L1445.08 245.97 L1446.46 246.66 L1447.84 246.56 L1448.83 244.69 L1449.12 241.83 L1450.11 240.74 L1451.98 240.15 L1453.36 238.57 L1454.65 238.77 L1458.99 240.25 L1455.14 271.61 L1454.15 279.31 L1454.15 279.90 L1455.24 279.50 L1483.25 282.96 L1491.63 284.04 L1496.07 284.63 L1497.15 284.73 L1497.94 284.93 L1499.52 285.03 L1500.61 285.22 L1501.00 285.22 L1504.55 285.72 L1505.24 285.82 L1508.00 286.21 L1508.69 286.21 L1510.07 286.41 L1512.05 286.70 L1512.74 286.80 L1518.36 287.39 L1520.04 287.69 L1520.63 287.79 L1522.11 287.99 L1523.59 288.18 L1524.18 288.18 L1528.32 288.77 L1537.49 289.96 L1541.54 290.55 L1542.42 290.55 L1543.31 290.75 L1546.96 291.14 L1550.51 291.63 L1560.28 292.82 L1566.69 293.61 L1567.48 293.71 L1574.38 294.59 L1575.17 294.69 L1586.61 296.17 L1593.32 297.06 L1601.21 298.04 L1602.88 298.24 L1605.94 298.54 L1622.31 300.71 L1626.75 301.30 L1628.62 301.60 L1629.02 301.60 L1635.43 302.38 L1638.98 302.88 L1641.64 303.17 L1645.59 303.67 L1646.77 303.86 L1647.46 304.06 L1648.25 304.55 L1649.53 305.74 L1651.11 307.32 L1652.10 308.20 L1652.89 308.50 L1654.27 308.89 L1656.24 309.29 L1657.13 309.39 L1657.52 309.39 L1658.41 309.19 L1658.70 308.99 L1659.40 308.50 L1660.09 307.81 L1661.07 307.12 L1661.76 306.82 L1662.55 306.82 L1663.24 306.92 L1664.82 307.32 L1665.31 307.41 L1665.71 307.32 L1667.19 306.92 L1668.17 306.72 L1668.96 306.63 L1669.16 306.63 L1682.57 308.50 L1687.80 309.19 L1689.58 309.39 L1689.77 309.39 L1690.36 309.49 L1716.99 312.94 L1726.46 314.12 L1728.04 314.32 L1728.34 314.32 L1738.69 315.70 L1745.69 316.59 L1747.37 316.78 L1747.07 316.88 L1746.88 317.18 L1746.88 317.77 L1746.78 318.85 L1746.78 319.05 L1746.68 321.22 L1746.58 322.31 L1746.19 324.67 L1747.17 325.46 L1748.46 321.12 L1750.03 323.00 L1750.92 323.98 L1761.57 318.95 L1762.26 318.66 L1764.53 318.95 L1766.11 319.15 L1766.31 319.15 L1769.27 319.55 L1773.61 320.04 L1779.42 320.83 L1783.07 321.22 L1787.91 321.81 L1793.03 322.50 L1798.16 323.10 L1799.05 323.29 L1799.54 323.29 L1799.64 323.29 L1804.97 323.98 L1808.03 324.38 L1813.94 325.17 L1817.59 325.66 L1823.12 326.35 L1827.75 326.94 L1835.44 327.93 L1843.93 329.01 L1849.74 329.80 L1863.75 331.58 L1868.68 332.17 L1871.25 332.46 L1873.02 332.76 L1877.66 333.45 L1877.26 336.11 L1876.87 344.60 L1875.39 355.35 L1880.62 356.13 L1881.50 356.63 L1899.45 358.90 L1915.13 360.87 L1917.60 361.16 L1918.98 352.78 L1920.95 352.88 L1920.36 357.22 L1919.67 361.66 L1919.28 364.91 L1918.98 366.79 L1918.68 369.45 L1918.19 373.59 L1917.60 377.83 L1916.81 383.75 L1906.85 382.37 L1898.17 412.45 L1903.50 412.65 L1906.06 412.84 L1908.43 412.94 L1910.79 413.04 L1913.16 413.14 L1931.90 413.93 L1985.55 416.30 L1993.35 416.69 L1996.80 416.79 L1998.77 416.89 L1999.36 416.89 L1999.85 416.99 L2000.15 416.89 L2001.24 416.99 L2001.83 416.99 L2002.81 417.09 L2003.41 417.09 L2002.71 422.61 L2003.01 426.06 L2003.41 426.45 L2004.00 430.10 L2007.74 437.89 L2011.99 447.46 L2014.55 455.94 L2014.35 457.72 L2014.75 458.01 L2017.31 463.24 L2015.34 477.15 L2014.65 484.45 L2015.24 492.14 L2015.24 495.59 L2014.94 500.03 L2013.27 503.38 L2010.41 508.02 L2008.53 510.29 L2007.45 511.86 L2001.93 519.66 L2000.45 521.33 L1998.97 522.12 L1987.43 531.59 L1982.10 535.53 L1962.57 551.12 L1953.40 557.33 L1949.85 558.81 L1947.88 558.91 L1947.19 558.41 L1947.39 557.03 L1950.05 556.34 L1952.12 555.26 L1952.51 554.47 L1951.63 553.78 L1947.29 553.68 L1932.59 556.44 L1926.67 558.81 L1924.11 562.36 L1923.52 564.33 L1925.19 564.92 L1925.49 566.11 L1924.60 566.80 L1906.06 572.91 L1881.01 580.01 L1871.54 584.16 L1870.65 584.06 L1864.74 585.34 L1862.86 585.73 L1851.13 591.36 L1850.93 591.75 L1850.53 591.75 L1835.74 597.37 L1811.38 611.28 L1810.79 611.47 L1809.41 612.07 L1791.16 619.07 L1786.53 620.06 L1783.47 621.44 L1780.02 624.69 L1774.00 629.13 L1759.60 638.01 L1759.40 638.30 L1756.35 639.58 L1744.51 650.04 L1738.99 653.49 L1733.96 656.15 L1725.48 664.14 L1725.18 664.04 L1725.08 663.84 L1726.76 660.98 L1730.31 656.55 L1735.54 653.19 L1739.18 651.12 L1739.48 650.53 L1739.68 650.14 L1739.18 649.84 L1737.51 650.23 L1723.40 655.26 L1723.90 651.32 L1719.06 655.26 L1717.19 658.12 L1714.82 664.73 L1714.03 666.70 L1712.56 669.37 L1711.37 671.34 L1707.72 674.00 L1703.28 676.57 L1698.55 679.92 L1691.94 686.92 L1685.24 696.69 L1671.53 710.69 L1653.87 710.59 L1636.91 706.06 L1627.14 705.86 L1603.77 723.71 L1568.76 744.91 L1566.19 746.30 L1555.05 752.11 L1549.82 765.03 L1555.54 777.86 L1556.43 799.65 L1556.72 803.00 L1544.10 819.57 L1525.46 853.99 L1514.41 866.12 L1508.10 873.42 L1506.62 875.10 L1500.90 876.87 L1478.91 880.92 L1476.84 881.31 L1472.89 885.75 L1456.32 890.58 L1451.19 892.06 L1441.13 893.35 L1426.34 908.34 L1422.59 910.70 L1404.05 923.52 L1395.57 933.58 L1388.57 938.61 L1375.35 948.38 L1362.92 964.95 L1358.48 974.51 L1348.82 994.93 L1347.64 997.59 L1344.38 996.70 L1342.61 996.41 L1342.70 995.62 L1345.86 988.32 L1348.62 982.40 L1353.65 971.46 L1344.87 969.58 L1341.52 960.80 L1339.06 962.19 L1338.56 962.38 L1338.37 961.69 L1338.27 961.40 L1338.27 961.10 L1338.27 960.90 L1338.37 960.71 L1337.48 960.71 L1337.38 960.31 L1337.38 960.11 L1336.39 957.25 L1330.57 959.62 L1326.23 961.30 L1325.74 961.50 L1324.95 961.89 L1324.06 962.38 L1322.58 963.37 L1322.49 963.37 L1321.40 963.96 L1320.81 964.26 L1320.61 964.36 L1319.23 965.24 L1315.19 968.50 L1313.22 969.98 L1314.10 971.06 L1308.48 975.70 L1307.89 976.29 L1307.49 977.08 L1307.20 978.16 L1307.20 980.23 L1307.30 982.30 L1307.40 982.70 L1307.49 983.00 L1307.59 983.19 L1307.69 983.29 L1308.48 983.69 L1308.97 983.98 L1309.37 984.57 L1309.76 984.97 L1309.66 985.07 L1309.47 985.56 L1309.47 986.25 L1308.78 992.07 L1308.58 992.66 L1308.28 993.25 L1306.90 995.52 L1306.51 996.21 L1306.90 996.61 L1309.17 998.38 L1309.76 998.87 L1310.36 998.68 L1311.14 997.59 L1311.93 996.41 L1312.23 996.01 L1312.62 995.52 L1313.61 993.94 L1316.08 990.10 L1316.57 989.31 L1317.55 989.60 L1318.34 990.20 L1318.74 990.79 L1318.94 991.67 L1319.03 992.56 L1319.23 993.45 L1319.63 994.34 L1320.02 995.22 L1320.51 995.92 L1321.11 996.61 L1321.80 997.10 L1322.58 997.49 L1323.57 997.79 L1324.66 997.69 L1325.54 997.49 L1326.43 997.39 L1327.02 998.18 L1325.74 998.48 L1325.45 998.58 L1323.77 998.97 L1322.49 999.37 L1314.89 1001.14 L1313.02 1001.73 L1312.92 1001.73 L1311.14 1002.42 L1309.57 1003.21 L1308.88 1003.61 L1308.68 1003.81 L1307.20 1004.69 L1305.62 1005.58 L1304.24 1006.17 L1304.24 1006.17 Z" stroke-linejoin="round"/>
	</defs>
	<use xlink:href="#path_nyEhXLuq" style="fill:#9DC8CA;stroke:#6BB4D2;stroke-width:5.76"/>
	<defs>
		<path id="path_OdTlAqUe" d="M1345.96 3085.78 L1345.96 3085.78 L1337.58 3084.30 L1323.28 3082.13 L1266.37 3074.24 L1209.46 3066.35 L1171.19 3061.02 L1173.66 3037.35 L1125.04 3031.24 L1069.02 3024.43 L989.13 3013.98 L982.52 3012.99 L975.71 3012.30 L961.71 3010.82 L960.33 3010.63 L916.24 3004.41 L872.26 2998.20 L796.61 2988.34 L720.86 2978.47 L675.10 2972.56 L629.44 2966.64 L623.42 2965.85 L596.79 2961.71 L589.00 2960.72 L575.88 2958.36 L553.39 2956.09 L486.53 2948.20 L453.88 2943.56 L425.87 2939.62 L413.34 2937.84 L411.08 2937.55 L398.95 2935.67 L367.19 2930.84 L347.86 2927.88 L315.80 2924.82 L302.39 2921.57 L281.78 2917.92 L255.54 2914.66 L224.18 2911.31 L211.36 2910.03 L213.13 2896.62 L214.02 2882.91 L215.01 2876.50 L214.91 2874.43 L217.18 2855.29 L222.50 2811.80 L222.50 2811.50 L225.56 2786.75 L235.22 2707.26 L237.20 2691.38 L244.10 2640.29 L244.79 2635.56 L250.61 2577.96 L251.60 2573.82 L251.79 2575.10 L252.29 2576.48 L252.58 2576.97 L253.27 2577.56 L254.26 2578.06 L255.15 2578.35 L257.32 2578.65 L262.64 2577.86 L264.02 2578.06 L265.60 2579.44 L266.39 2581.90 L268.66 2589.60 L273.39 2596.50 L277.54 2602.91 L277.73 2603.11 L278.23 2603.31 L280.00 2603.70 L283.35 2604.19 L287.10 2604.59 L291.34 2605.38 L300.91 2606.86 L302.69 2607.25 L318.66 2609.81 L331.19 2612.18 L332.87 2612.48 L334.25 2612.58 L334.74 2612.67 L334.94 2612.87 L335.23 2613.17 L335.43 2613.56 L335.63 2615.34 L335.82 2616.03 L336.42 2617.21 L336.71 2617.51 L337.11 2617.80 L337.40 2618.00 L340.56 2618.79 L341.64 2619.18 L347.86 2622.04 L348.94 2622.73 L352.49 2624.21 L352.99 2624.41 L353.28 2624.41 L353.87 2624.21 L354.17 2624.12 L354.56 2623.62 L357.13 2620.07 L358.21 2619.09 L359.20 2618.49 L359.99 2618.00 L362.06 2617.31 L363.54 2616.72 L364.33 2616.13 L364.62 2615.73 L364.82 2615.24 L364.92 2614.84 L366.10 2610.11 L366.40 2609.12 L366.99 2607.84 L368.37 2605.77 L368.67 2605.48 L369.65 2604.59 L371.72 2602.52 L372.41 2601.63 L373.99 2599.56 L374.78 2598.67 L375.57 2597.88 L375.87 2597.29 L376.66 2596.01 L377.05 2595.42 L378.13 2593.64 L380.40 2589.20 L380.70 2588.71 L380.90 2588.41 L382.18 2587.53 L382.57 2587.13 L383.16 2586.44 L391.45 2577.07 L391.84 2576.68 L392.24 2576.58 L393.03 2576.58 L393.72 2576.48 L394.31 2576.28 L395.20 2576.09 L396.28 2575.99 L397.47 2575.69 L398.75 2575.39 L399.64 2575.00 L400.52 2574.21 L405.75 2569.18 L406.44 2568.59 L407.53 2567.80 L408.31 2567.41 L408.61 2567.21 L409.01 2566.62 L409.50 2566.03 L410.29 2565.04 L412.85 2562.77 L413.84 2562.18 L414.33 2561.69 L414.73 2561.29 L415.42 2559.91 L415.71 2559.42 L417.29 2557.84 L419.26 2556.06 L419.85 2555.67 L421.23 2554.78 L422.32 2554.29 L423.90 2553.60 L426.17 2552.91 L427.94 2551.72 L429.91 2551.03 L430.70 2550.64 L432.58 2542.36 L435.24 2534.76 L437.11 2533.58 L439.18 2534.56 L439.68 2534.27 L443.43 2532.00 L445.60 2530.72 L446.38 2530.22 L447.27 2529.83 L447.67 2529.63 L448.16 2529.53 L449.24 2529.53 L450.23 2529.53 L451.32 2529.83 L452.30 2530.13 L453.29 2530.62 L454.18 2531.31 L454.57 2531.70 L456.15 2533.58 L456.54 2534.07 L457.43 2534.96 L458.32 2535.65 L459.30 2536.34 L461.38 2537.42 L462.95 2538.11 L465.22 2538.90 L467.10 2539.40 L468.28 2539.89 L472.13 2540.97 L474.00 2541.37 L475.18 2541.57 L476.96 2541.57 L478.04 2541.37 L479.23 2541.07 L480.31 2540.48 L480.81 2540.19 L481.30 2539.79 L482.19 2538.90 L483.96 2536.83 L484.36 2536.44 L484.85 2536.14 L485.64 2535.75 L486.03 2535.65 L487.51 2535.55 L488.30 2535.45 L488.60 2535.25 L490.27 2534.37 L491.16 2533.97 L491.65 2533.87 L492.15 2533.77 L492.64 2533.77 L494.32 2533.97 L495.40 2534.27 L495.90 2534.47 L496.88 2534.96 L498.95 2536.14 L500.93 2537.42 L501.91 2538.02 L503.00 2538.41 L504.67 2539.00 L505.76 2539.40 L506.84 2539.99 L508.13 2541.07 L509.51 2542.16 L509.90 2542.36 L510.39 2542.55 L510.89 2542.65 L511.77 2542.75 L512.17 2542.65 L513.06 2542.55 L513.45 2542.36 L513.85 2542.16 L514.54 2541.66 L515.13 2541.07 L515.62 2540.38 L517.59 2537.42 L518.28 2536.14 L518.38 2535.75 L518.58 2534.66 L518.88 2532.20 L519.17 2529.44 L519.47 2527.17 L520.16 2521.25 L520.35 2519.87 L520.85 2517.90 L521.64 2515.53 L522.23 2513.46 L522.72 2511.58 L522.92 2510.30 L522.92 2509.12 L522.82 2508.63 L522.72 2508.03 L522.52 2507.54 L522.03 2506.55 L521.14 2505.17 L518.88 2501.52 L516.41 2497.48 L515.72 2496.20 L515.23 2494.92 L514.83 2493.14 L514.44 2491.56 L513.94 2490.87 L513.75 2490.58 L513.45 2490.38 L513.16 2490.38 L512.56 2490.38 L508.62 2491.07 L505.07 2491.46 L503.49 2491.66 L502.40 2491.86 L501.32 2492.25 L500.23 2492.75 L498.46 2493.34 L497.87 2493.44 L495.70 2493.83 L493.82 2494.03 L492.74 2494.03 L491.95 2493.83 L491.56 2493.73 L490.87 2493.34 L490.17 2492.85 L489.88 2492.55 L489.48 2491.76 L489.19 2491.17 L489.19 2490.77 L489.19 2490.48 L489.29 2490.08 L489.39 2489.79 L489.58 2489.39 L489.78 2489.10 L490.77 2488.11 L491.95 2486.93 L492.64 2486.14 L493.33 2485.25 L493.53 2484.76 L494.02 2483.57 L495.99 2477.56 L496.78 2475.29 L496.78 2474.99 L496.88 2474.70 L497.08 2474.11 L497.18 2473.91 L497.47 2472.73 L500.04 2464.64 L502.01 2458.52 L502.70 2456.55 L503.49 2454.28 L503.98 2452.61 L504.77 2450.63 L506.05 2448.07 L537.81 2413.35 L550.04 2400.43 L565.13 2379.13 L568.68 2374.10 L571.64 2369.96 L573.61 2367.00 L574.80 2365.22 L576.18 2362.86 L577.16 2361.48 L578.54 2359.60 L582.39 2354.47 L587.82 2346.88 L589.39 2344.81 L597.09 2334.36 L600.93 2329.13 L603.60 2325.48 L604.68 2324.00 L607.34 2320.35 L612.08 2314.04 L613.85 2311.47 L614.94 2309.80 L616.71 2306.94 L618.19 2304.67 L621.15 2300.53 L623.52 2297.17 L624.50 2295.79 L625.89 2294.12 L627.07 2292.34 L628.65 2290.17 L629.14 2289.38 L629.53 2288.20 L629.93 2286.42 L630.03 2284.94 L633.28 2259.50 L633.58 2256.74 L634.96 2245.99 L635.95 2238.69 L636.24 2236.22 L637.72 2224.19 L639.10 2212.95 L639.79 2207.62 L640.19 2204.76 L641.17 2197.66 L641.76 2193.03 L641.96 2191.45 L642.26 2189.08 L643.05 2183.56 L643.34 2181.19 L645.02 2168.17 L645.81 2162.06 L646.01 2160.08 L646.20 2158.31 L646.20 2157.03 L646.01 2155.65 L645.41 2152.89 L644.82 2150.81 L642.75 2144.50 L641.96 2141.54 L641.37 2139.27 L640.68 2137.11 L639.89 2135.03 L638.12 2130.99 L637.23 2128.43 L636.83 2127.05 L636.64 2125.76 L635.95 2119.25 L635.75 2118.07 L635.45 2116.79 L635.25 2116.20 L634.66 2115.11 L633.78 2113.44 L631.90 2110.67 L630.82 2108.60 L629.73 2105.84 L628.84 2103.67 L628.55 2102.59 L628.45 2102.09 L628.25 2100.32 L627.76 2094.80 L627.76 2093.71 L627.76 2092.53 L627.96 2091.24 L628.75 2088.09 L629.04 2086.81 L629.73 2084.83 L630.13 2083.55 L630.62 2080.89 L631.01 2078.03 L631.70 2071.32 L632.00 2068.46 L632.10 2066.98 L632.10 2065.50 L631.90 2062.54 L631.21 2056.23 L630.92 2052.98 L629.63 2042.92 L629.34 2040.65 L628.94 2038.18 L628.25 2035.03 L626.28 2027.43 L625.20 2023.69 L624.90 2022.50 L624.70 2021.22 L624.60 2019.25 L624.60 2018.56 L624.80 2016.29 L626.08 2007.12 L627.36 1997.25 L627.96 1993.01 L628.35 1990.35 L629.83 1979.21 L630.22 1976.64 L630.52 1974.37 L631.70 1965.99 L633.48 1952.38 L634.47 1945.48 L634.76 1943.31 L635.75 1936.21 L635.95 1934.73 L636.04 1933.94 L635.95 1933.54 L635.85 1933.15 L635.75 1932.95 L635.55 1932.66 L635.25 1932.56 L634.96 1932.46 L633.28 1932.16 L620.86 1930.58 L617.80 1930.09 L617.50 1930.09 L617.21 1929.89 L616.81 1929.50 L616.61 1929.20 L616.52 1928.91 L616.52 1928.12 L616.52 1927.72 L616.61 1926.34 L617.60 1919.93 L618.39 1914.02 L618.98 1910.17 L620.46 1898.43 L620.66 1897.74 L620.66 1897.05 L620.95 1895.18 L621.45 1891.23 L622.53 1884.03 L623.22 1878.81 L623.22 1877.72 L623.22 1876.64 L623.12 1876.14 L623.03 1875.55 L622.14 1873.09 L621.84 1872.20 L621.74 1871.71 L621.74 1870.62 L621.94 1869.54 L622.33 1867.17 L622.43 1865.89 L622.43 1864.60 L622.33 1863.32 L621.94 1861.45 L621.84 1860.66 L621.55 1859.48 L621.35 1858.10 L621.05 1855.83 L621.05 1854.64 L621.05 1853.85 L621.55 1848.53 L621.45 1847.54 L621.25 1846.85 L620.95 1845.96 L619.77 1843.50 L617.50 1838.96 L617.30 1838.27 L617.11 1837.58 L617.01 1836.79 L617.11 1835.51 L617.30 1834.13 L617.90 1831.66 L618.00 1830.97 L617.90 1830.58 L617.80 1830.18 L616.61 1828.41 L615.04 1826.54 L614.74 1826.34 L614.35 1826.24 L613.85 1826.34 L613.26 1826.54 L609.02 1829.00 L608.53 1829.20 L608.13 1829.20 L607.74 1829.00 L607.34 1828.80 L607.15 1828.41 L607.05 1827.92 L606.95 1827.52 L607.24 1826.54 L607.54 1826.04 L609.61 1823.67 L614.35 1818.25 L615.83 1816.28 L616.32 1815.29 L616.71 1814.21 L617.01 1814.60 L617.80 1815.09 L618.09 1815.59 L618.19 1816.08 L618.00 1817.26 L618.00 1817.95 L618.29 1818.64 L618.88 1820.03 L619.77 1821.51 L620.46 1822.59 L621.15 1823.38 L621.84 1824.56 L622.14 1825.55 L623.22 1826.44 L623.62 1826.83 L623.81 1827.13 L623.62 1828.01 L624.31 1828.90 L624.90 1829.40 L625.89 1829.79 L627.07 1830.09 L627.56 1830.48 L627.76 1830.87 L627.86 1831.27 L628.65 1831.96 L629.63 1832.26 L630.32 1832.35 L631.41 1832.65 L632.39 1833.44 L633.58 1833.54 L636.24 1833.54 L638.51 1834.52 L641.07 1833.73 L643.44 1833.24 L645.22 1832.95 L646.30 1833.44 L647.48 1834.62 L648.08 1836.30 L648.18 1839.65 L648.08 1841.33 L648.37 1842.22 L649.26 1842.12 L649.65 1842.91 L650.34 1844.09 L651.53 1844.68 L652.22 1844.68 L653.11 1844.68 L654.19 1843.89 L655.67 1842.41 L656.66 1841.62 L657.25 1841.62 L658.04 1842.61 L661.39 1843.10 L664.35 1842.71 L667.70 1842.22 L669.97 1842.22 L672.34 1842.32 L674.90 1843.79 L676.78 1844.29 L678.26 1845.57 L678.95 1846.26 L679.74 1845.27 L680.82 1845.08 L681.91 1845.27 L682.10 1845.77 L682.30 1846.06 L682.60 1846.85 L682.60 1847.74 L681.61 1850.40 L682.99 1850.30 L683.68 1851.88 L684.77 1852.97 L686.34 1852.87 L687.53 1852.77 L687.63 1853.56 L688.22 1854.64 L690.19 1855.43 L693.64 1855.43 L695.52 1855.23 L697.19 1854.64 L698.57 1853.66 L700.05 1853.07 L700.84 1853.07 L701.83 1853.76 L702.62 1854.74 L704.49 1854.64 L705.48 1855.43 L709.72 1858.69 L714.16 1860.66 L718.40 1862.63 L721.85 1863.22 L725.01 1863.62 L727.18 1864.11 L728.85 1865.10 L730.82 1866.97 L732.11 1868.45 L732.99 1869.24 L733.88 1869.44 L734.87 1868.45 L735.26 1867.27 L735.85 1866.58 L736.54 1867.07 L737.14 1867.86 L737.14 1869.14 L737.04 1870.13 L737.33 1870.72 L738.22 1870.82 L739.40 1870.03 L740.29 1868.65 L741.08 1867.66 L743.05 1867.56 L746.11 1867.86 L747.89 1867.27 L749.27 1866.28 L750.65 1865.49 L751.93 1865.49 L753.31 1866.58 L754.49 1868.35 L756.17 1870.13 L758.24 1871.71 L759.62 1873.09 L761.30 1874.17 L762.48 1874.27 L763.37 1873.28 L764.06 1871.80 L764.65 1871.21 L765.54 1871.61 L766.72 1873.18 L767.12 1871.61 L768.70 1870.32 L772.74 1867.76 L775.11 1866.38 L775.50 1867.17 L776.19 1866.38 L778.07 1866.38 L780.53 1866.18 L782.90 1865.00 L784.67 1864.01 L786.55 1863.72 L788.23 1863.52 L789.11 1862.34 L790.30 1859.67 L795.72 1859.38 L792.37 1854.05 L791.18 1851.39 L788.62 1844.68 L788.03 1838.47 L788.13 1833.54 L789.11 1831.07 L791.38 1829.10 L793.16 1827.82 L796.21 1825.45 L799.37 1822.29 L802.13 1819.73 L805.19 1816.97 L808.15 1815.69 L805.98 1814.90 L798.19 1810.06 L774.22 1806.32 L773.23 1805.63 L772.94 1804.15 L774.52 1792.41 L774.61 1791.72 L777.08 1772.69 L778.36 1763.22 L778.56 1761.54 L780.24 1750.30 L780.24 1749.71 L780.24 1749.21 L780.04 1748.82 L779.84 1748.62 L779.35 1748.42 L761.79 1746.16 L761.30 1746.06 L761.00 1745.86 L760.91 1745.56 L760.81 1744.68 L762.48 1733.04 L762.48 1732.15 L762.48 1731.56 L762.38 1731.16 L759.52 1725.15 L758.83 1723.87 L758.44 1723.57 L758.14 1723.37 L757.65 1723.18 L744.63 1721.50 L744.14 1721.10 L744.04 1720.91 L743.74 1720.22 L742.36 1714.89 L741.08 1708.68 L740.79 1702.46 L740.88 1701.87 L740.88 1701.48 L741.08 1700.99 L741.97 1700.00 L746.70 1695.86 L747.10 1695.27 L747.39 1694.77 L758.24 1695.56 L760.51 1694.08 L761.60 1693.88 L763.77 1690.73 L764.75 1689.45 L765.05 1687.47 L769.19 1678.99 L770.67 1674.16 L772.15 1672.38 L773.83 1671.89 L774.22 1671.00 L776.00 1668.73 L775.90 1667.75 L775.90 1667.26 L776.29 1664.40 L777.57 1660.35 L782.50 1653.25 L783.10 1650.98 L783.49 1649.01 L783.98 1647.33 L785.56 1645.95 L788.52 1644.08 L790.30 1643.39 L791.38 1642.90 L793.45 1642.40 L794.54 1641.91 L795.03 1640.92 L795.13 1639.64 L794.24 1637.37 L793.35 1633.33 L793.45 1631.26 L793.85 1627.81 L794.04 1624.85 L793.75 1622.48 L793.95 1621.10 L794.54 1619.92 L796.12 1618.83 L797.50 1617.94 L798.28 1616.86 L798.58 1615.38 L798.19 1613.80 L796.81 1611.43 L795.72 1608.97 L795.23 1607.49 L795.82 1605.62 L796.71 1603.35 L797.00 1601.67 L797.59 1600.29 L798.09 1599.40 L801.44 1596.44 L801.64 1594.86 L801.54 1593.19 L802.03 1590.53 L801.74 1588.95 L790.30 1595.06 L788.13 1597.53 L787.44 1598.22 L786.65 1598.81 L781.91 1600.59 L781.62 1600.78 L780.14 1601.97 L778.46 1603.25 L778.07 1603.45 L777.57 1603.54 L773.43 1604.33 L772.05 1604.33 L770.87 1604.14 L769.39 1603.54 L763.27 1600.98 L761.30 1606.31 L760.22 1609.95 L759.62 1612.12 L758.83 1615.48 L758.54 1617.84 L756.76 1632.05 L756.66 1632.44 L756.37 1632.74 L755.58 1633.13 L754.99 1632.93 L747.89 1632.05 L739.21 1630.86 L727.37 1629.38 L717.31 1628.00 L708.73 1626.82 L706.46 1626.52 L700.35 1625.64 L665.14 1620.90 L660.21 1620.31 L659.81 1620.21 L655.28 1617.45 L649.26 1613.70 L648.87 1613.51 L648.27 1613.41 L647.78 1613.31 L647.19 1613.31 L646.10 1613.51 L643.64 1614.59 L639.30 1616.07 L638.81 1616.17 L638.12 1616.27 L635.25 1616.07 L634.86 1616.07 L629.53 1617.65 L627.96 1618.04 L627.07 1618.14 L622.04 1618.04 L621.64 1617.35 L619.67 1614.69 L618.69 1613.01 L617.80 1610.94 L617.40 1609.95 L615.33 1602.06 L613.36 1594.67 L612.87 1592.70 L612.67 1591.41 L612.67 1590.03 L612.77 1589.05 L613.56 1583.33 L615.33 1573.07 L616.12 1568.63 L618.00 1557.68 L618.49 1554.92 L618.78 1552.95 L619.77 1548.02 L619.97 1545.55 L619.38 1543.38 L618.78 1542.30 L618.49 1541.51 L617.80 1540.03 L617.11 1538.75 L615.73 1535.59 L614.25 1536.28 L610.30 1538.45 L606.26 1540.13 L595.21 1547.13 L592.75 1547.23 L592.35 1548.02 L588.80 1549.79 L587.13 1551.17 L586.34 1551.86 L585.15 1552.95 L585.05 1554.33 L586.53 1554.72 L588.60 1553.54 L590.58 1553.15 L590.97 1553.74 L588.90 1557.78 L585.25 1560.94 L582.49 1562.71 L579.83 1563.40 L562.27 1563.30 L557.83 1563.30 L548.17 1560.64 L544.52 1560.15 L542.64 1559.95 L542.35 1559.95 L539.78 1559.95 L532.58 1560.05 L531.60 1559.75 L528.54 1558.77 L524.00 1557.19 L519.37 1557.49 L516.90 1557.98 L515.92 1557.09 L512.66 1555.81 L508.52 1555.22 L502.21 1555.22 L500.23 1555.51 L497.37 1558.08 L486.53 1564.69 L486.23 1565.67 L486.92 1568.73 L486.43 1571.98 L482.78 1574.65 L481.00 1575.14 L479.42 1577.21 L474.30 1575.83 L472.42 1576.32 L467.69 1574.84 L461.57 1575.14 L459.50 1577.21 L456.64 1578.10 L454.47 1579.38 L452.70 1581.94 L453.19 1582.93 L453.19 1584.71 L450.43 1592.50 L447.17 1595.56 L447.47 1598.22 L446.29 1600.78 L447.86 1602.36 L448.85 1604.83 L448.46 1608.38 L447.17 1610.55 L445.40 1612.12 L437.21 1616.66 L435.14 1618.44 L432.38 1621.69 L429.03 1624.55 L427.35 1622.78 L422.71 1621.20 L420.25 1621.69 L419.16 1622.68 L403.48 1622.48 L381.00 1620.51 L383.36 1602.85 L384.35 1601.47 L384.64 1601.08 L384.84 1600.39 L387.41 1579.97 L388.00 1577.21 L390.07 1573.76 L392.44 1571.29 L395.30 1570.31 L398.55 1568.04 L400.23 1566.16 L401.41 1563.60 L402.99 1554.33 L432.77 1536.97 L440.07 1534.01 L454.37 1526.71 L458.32 1524.64 L471.53 1516.95 L480.12 1511.63 L485.84 1506.69 L492.34 1500.68 L501.32 1494.96 L503.79 1493.38 L537.02 1473.85 L548.07 1467.64 L556.95 1463.10 L558.82 1462.02 L576.57 1450.77 L581.01 1448.11 L583.18 1446.83 L597.78 1438.35 L610.40 1430.95 L611.09 1430.56 L613.16 1429.37 L617.50 1426.81 L619.38 1425.82 L626.67 1421.48 L632.59 1418.03 L633.58 1417.44 L639.50 1413.79 L639.89 1413.59 L645.31 1410.44 L648.37 1408.56 L651.63 1406.69 L653.60 1405.50 L660.70 1401.46 L671.25 1395.15 L675.00 1392.98 L679.64 1390.32 L682.99 1388.34 L690.29 1384.00 L695.22 1381.05 L696.01 1380.65 L697.88 1379.47 L699.95 1378.09 L704.20 1375.13 L709.72 1371.38 L714.45 1368.22 L718.30 1365.76 L721.75 1363.79 L726.98 1360.73 L730.63 1358.66 L732.60 1357.47 L732.11 1356.19 L731.61 1355.11 L730.63 1352.94 L734.28 1350.77 L740.69 1347.22 L746.60 1344.06 L752.32 1340.12 L763.57 1333.51 L780.33 1323.74 L784.18 1321.48 L786.94 1319.90 L787.53 1319.50 L790.39 1317.83 L816.53 1301.65 L818.90 1300.17 L833.69 1291.99 L856.67 1279.17 L899.97 1253.62 L917.92 1243.17 L919.79 1241.98 L920.98 1241.29 L924.23 1239.42 L926.40 1238.14 L926.99 1237.84 L957.96 1219.60 L962.50 1216.93 L962.99 1216.64 L967.13 1214.27 L982.62 1205.20 L999.09 1195.53 L989.42 1200.56 L983.31 1202.53 L987.55 1200.17 L988.93 1199.28 L989.13 1199.18 L989.33 1197.90 L989.33 1197.50 L989.52 1196.52 L989.62 1195.63 L989.72 1193.86 L989.82 1192.97 L989.82 1191.98 L989.82 1191.29 L989.92 1190.40 L990.02 1189.61 L990.61 1185.47 L990.71 1184.49 L990.90 1183.01 L991.30 1180.15 L991.40 1178.96 L991.49 1177.78 L991.69 1176.60 L993.27 1166.14 L993.47 1164.27 L993.66 1163.58 L993.76 1163.18 L993.76 1162.69 L993.66 1162.10 L992.48 1161.70 L991.69 1161.51 L990.90 1161.41 L990.21 1161.21 L986.96 1160.82 L978.77 1159.83 L974.14 1159.14 L975.12 1154.01 L975.52 1149.47 L978.18 1142.37 L978.28 1142.47 L978.28 1142.47 L978.38 1142.47 L978.38 1142.47 L981.73 1142.97 L982.03 1142.97 L982.13 1142.87 L982.32 1142.87 L982.52 1142.77 L982.72 1142.57 L987.25 1138.33 L987.65 1139.41 L990.31 1144.25 L995.93 1141.29 L995.93 1140.80 L996.03 1140.60 L996.23 1140.40 L996.52 1140.30 L997.41 1132.81 L998.10 1129.75 L1007.18 1131.03 L1007.77 1130.64 L1007.97 1129.75 L1008.06 1128.86 L1008.26 1127.68 L1008.56 1125.71 L1008.56 1125.21 L1008.36 1123.73 L1008.85 1120.97 L1008.46 1119.30 L1008.56 1118.70 L1009.05 1118.80 L1010.63 1119.00 L1017.93 1119.89 L1018.42 1119.99 L1027.69 1121.27 L1032.52 1121.76 L1033.12 1121.86 L1037.55 1122.35 L1042.29 1122.85 L1045.74 1123.24 L1047.91 1123.54 L1050.08 1123.93 L1052.05 1124.23 L1056.59 1124.92 L1057.57 1125.02 L1059.84 1125.31 L1061.82 1125.51 L1064.08 1125.80 L1066.85 1126.20 L1071.68 1126.89 L1071.68 1127.48 L1070.10 1139.71 L1069.71 1142.18 L1069.51 1143.56 L1068.72 1148.98 L1067.83 1155.29 L1068.72 1154.80 L1073.26 1152.24 L1077.79 1149.57 L1081.64 1147.11 L1084.89 1145.13 L1086.18 1143.36 L1087.85 1141.09 L1088.35 1140.30 L1088.64 1139.91 L1088.94 1139.61 L1089.14 1139.41 L1089.33 1139.12 L1089.53 1138.82 L1090.22 1138.23 L1090.52 1137.94 L1090.91 1137.64 L1091.40 1137.34 L1092.00 1137.05 L1092.59 1136.65 L1094.26 1135.77 L1094.95 1135.37 L1095.35 1135.17 L1096.04 1134.78 L1097.12 1134.29 L1103.04 1131.13 L1103.53 1130.93 L1100.77 1130.54 L1099.00 1130.34 L1097.12 1130.54 L1096.63 1130.44 L1096.73 1130.05 L1095.35 1129.85 L1091.50 1129.35 L1087.26 1128.86 L1079.37 1127.88 L1076.71 1127.48 L1077.50 1121.76 L1077.79 1119.59 L1077.89 1119.00 L1078.09 1116.73 L1078.48 1113.67 L1068.72 1112.49 L1067.63 1112.39 L1063.30 1111.80 L1059.25 1111.21 L1059.55 1107.95 L1059.94 1104.99 L1060.14 1103.71 L1060.43 1101.84 L1060.63 1100.36 L1060.73 1098.98 L1060.93 1097.70 L1061.22 1095.82 L1061.32 1095.13 L1061.52 1092.76 L1061.82 1089.71 L1062.01 1088.13 L1062.21 1086.75 L1062.31 1085.66 L1062.51 1084.48 L1062.60 1083.69 L1063.00 1080.54 L1063.10 1080.24 L1063.39 1077.48 L1063.59 1076.39 L1063.79 1074.72 L1064.38 1069.39 L1065.66 1058.74 L1065.86 1057.56 L1066.16 1055.39 L1066.45 1052.72 L1066.75 1050.75 L1067.14 1048.29 L1067.63 1044.64 L1068.42 1037.83 L1068.42 1037.63 L1077.50 1038.92 L1077.99 1039.01 L1087.66 1040.20 L1091.70 1040.99 L1098.31 1041.97 L1107.87 1043.16 L1110.34 1043.55 L1113.99 1044.04 L1117.74 1044.44 L1126.32 1045.62 L1127.21 1045.72 L1128.59 1045.92 L1132.43 1046.41 L1136.67 1046.90 L1136.97 1044.04 L1137.27 1042.07 L1137.36 1040.99 L1137.66 1037.93 L1137.76 1037.04 L1138.05 1034.97 L1138.45 1031.81 L1138.65 1030.34 L1138.84 1028.95 L1139.04 1027.57 L1139.24 1025.90 L1139.43 1023.83 L1139.63 1022.94 L1139.63 1022.74 L1139.93 1020.18 L1140.42 1016.73 L1140.82 1013.86 L1141.21 1010.91 L1122.77 1008.64 L1122.96 1007.36 L1123.06 1007.06 L1123.16 1006.07 L1123.26 1005.58 L1123.26 1005.19 L1123.56 1002.82 L1123.56 1002.72 L1123.56 1002.33 L1123.95 999.37 L1124.15 997.99 L1124.15 997.69 L1124.35 996.41 L1124.35 996.31 L1124.84 993.25 L1124.84 992.76 L1124.84 992.46 L1125.13 990.59 L1125.92 984.47 L1126.22 982.30 L1126.32 981.71 L1126.51 980.14 L1126.81 978.36 L1127.21 978.36 L1127.40 978.26 L1130.95 978.75 L1130.95 978.95 L1130.85 979.44 L1130.66 980.53 L1130.66 981.02 L1130.56 981.52 L1130.46 982.11 L1130.07 985.07 L1131.25 985.26 L1132.24 985.36 L1134.11 985.56 L1134.21 985.07 L1134.21 984.87 L1134.31 984.18 L1134.40 983.39 L1134.60 981.71 L1135.00 979.74 L1135.00 979.15 L1137.17 979.44 L1137.27 978.46 L1137.46 977.18 L1137.56 976.68 L1137.36 976.49 L1137.96 971.95 L1138.74 965.54 L1139.73 959.23 L1139.73 958.93 L1140.91 958.93 L1141.51 958.93 L1142.89 958.83 L1144.46 958.73 L1145.45 958.64 L1146.54 958.73 L1148.41 958.83 L1149.10 958.64 L1149.69 958.64 L1150.28 958.64 L1150.78 958.54 L1151.17 958.44 L1151.47 958.24 L1151.76 958.04 L1152.06 957.75 L1152.16 957.45 L1152.26 957.25 L1152.36 956.86 L1152.45 956.56 L1152.45 956.17 L1152.36 955.68 L1152.16 955.28 L1151.86 954.89 L1151.37 954.39 L1143.18 952.22 L1135.98 950.45 L1129.47 948.77 L1129.47 947.79 L1128.68 947.29 L1128.09 946.90 L1127.60 946.80 L1126.42 946.70 L1125.53 946.50 L1124.64 946.11 L1123.85 945.81 L1123.16 946.31 L1118.62 943.25 L1117.84 942.66 L1115.96 941.08 L1113.30 939.01 L1108.07 939.50 L1107.87 939.50 L1107.58 939.50 L1105.70 939.70 L1102.06 937.04 L1104.32 936.35 L1104.92 936.15 L1106.69 935.56 L1109.06 934.18 L1109.55 933.88 L1109.75 933.78 L1109.85 933.78 L1110.04 933.68 L1110.44 933.58 L1110.73 933.58 L1111.33 933.68 L1111.62 933.78 L1112.51 934.18 L1131.45 942.26 L1141.90 946.70 L1149.30 950.35 L1155.51 952.13 L1161.33 953.70 L1176.62 958.14 L1202.26 966.23 L1207.49 967.31 L1230.07 973.23 L1233.43 976.19 L1248.81 978.46 L1264.89 982.21 L1279.29 984.38 L1285.90 981.42 L1297.73 979.74 L1298.42 979.44 L1300.10 978.56 L1301.08 977.77 L1301.38 977.67 L1302.27 976.98 L1302.66 976.58 L1303.65 975.89 L1303.94 975.70 L1304.73 975.30 L1304.83 975.20 L1305.23 975.11 L1306.02 974.71 L1305.82 975.30 L1305.72 975.50 L1305.52 976.09 L1305.42 976.78 L1305.23 977.37 L1305.23 977.67 L1305.13 978.16 L1304.93 979.15 L1304.83 980.53 L1304.73 981.02 L1304.63 981.61 L1304.24 985.07 L1304.04 986.55 L1303.35 992.66 L1303.16 994.04 L1302.96 995.92 L1302.46 999.96 L1302.46 1000.16 L1302.07 1002.62 L1301.97 1003.11 L1301.77 1004.00 L1301.77 1004.10 L1301.58 1004.69 L1301.48 1004.99 L1301.38 1005.28 L1301.08 1005.97 L1302.07 1006.07 L1303.06 1006.27 L1303.65 1006.27 L1304.24 1006.17 L1305.62 1005.58 L1307.20 1004.69 L1308.68 1003.81 L1308.88 1003.61 L1309.57 1003.21 L1311.14 1002.42 L1312.92 1001.73 L1313.02 1001.73 L1314.89 1001.14 L1322.49 999.37 L1323.77 998.97 L1325.45 998.58 L1325.74 998.48 L1327.02 998.18 L1326.43 997.39 L1325.54 997.49 L1324.66 997.69 L1323.57 997.79 L1322.58 997.49 L1321.80 997.10 L1321.11 996.61 L1320.51 995.92 L1320.02 995.22 L1319.63 994.34 L1319.23 993.45 L1319.03 992.56 L1318.94 991.67 L1318.74 990.79 L1318.34 990.20 L1317.55 989.60 L1316.57 989.31 L1316.08 990.10 L1313.61 993.94 L1312.62 995.52 L1312.23 996.01 L1311.93 996.41 L1311.14 997.59 L1310.36 998.68 L1309.76 998.87 L1309.17 998.38 L1306.90 996.61 L1306.51 996.21 L1306.90 995.52 L1308.28 993.25 L1308.58 992.66 L1308.78 992.07 L1309.47 986.25 L1309.47 985.56 L1309.66 985.07 L1309.76 984.97 L1309.37 984.57 L1308.97 983.98 L1308.48 983.69 L1307.69 983.29 L1307.59 983.19 L1307.49 983.00 L1307.40 982.70 L1307.30 982.30 L1307.20 980.23 L1307.20 978.16 L1307.49 977.08 L1307.89 976.29 L1308.48 975.70 L1314.10 971.06 L1313.22 969.98 L1315.19 968.50 L1319.23 965.24 L1320.61 964.36 L1320.81 964.26 L1321.40 963.96 L1322.49 963.37 L1322.58 963.37 L1324.06 962.38 L1324.95 961.89 L1325.74 961.50 L1326.23 961.30 L1330.57 959.62 L1336.39 957.25 L1337.38 960.11 L1337.38 960.31 L1337.48 960.71 L1338.37 960.71 L1338.27 960.90 L1338.27 961.10 L1338.27 961.40 L1338.37 961.69 L1338.56 962.38 L1339.06 962.19 L1341.52 960.80 L1344.87 969.58 L1353.65 971.46 L1348.62 982.40 L1345.86 988.32 L1342.70 995.62 L1342.61 996.41 L1344.38 996.70 L1347.64 997.59 L1348.82 994.93 L1358.48 974.51 L1362.92 964.95 L1375.35 948.38 L1388.57 938.61 L1395.57 933.58 L1404.05 923.52 L1422.59 910.70 L1426.34 908.34 L1441.13 893.35 L1451.19 892.06 L1456.32 890.58 L1472.89 885.75 L1476.84 881.31 L1478.91 880.92 L1500.90 876.87 L1506.62 875.10 L1508.10 873.42 L1514.41 866.12 L1525.46 853.99 L1544.10 819.57 L1556.72 803.00 L1556.43 799.65 L1555.54 777.86 L1549.82 765.03 L1555.05 752.11 L1566.19 746.30 L1568.76 744.91 L1603.77 723.71 L1627.14 705.86 L1636.91 706.06 L1653.87 710.59 L1671.53 710.69 L1685.24 696.69 L1691.94 686.92 L1698.55 679.92 L1703.28 676.57 L1707.72 674.00 L1711.37 671.34 L1712.56 669.37 L1714.03 666.70 L1714.82 664.73 L1717.19 658.12 L1719.06 655.26 L1723.90 651.32 L1723.40 655.26 L1713.34 670.16 L1713.05 671.44 L1710.68 679.82 L1710.68 679.92 L1709.30 682.19 L1708.81 683.57 L1707.43 685.64 L1705.95 687.91 L1705.06 689.49 L1704.86 689.88 L1703.19 692.54 L1702.50 695.11 L1702.50 695.21 L1702.69 696.69 L1703.68 697.57 L1703.88 697.77 L1705.55 700.83 L1706.24 705.56 L1705.95 711.18 L1703.88 717.40 L1702.59 727.36 L1702.10 731.30 L1701.61 735.55 L1701.51 735.74 L1699.63 743.53 L1698.45 745.80 L1696.48 749.55 L1693.91 751.92 L1692.93 751.92 L1692.53 755.17 L1691.65 760.99 L1690.86 765.92 L1708.31 768.09 L1710.19 768.88 L1710.98 770.46 L1710.98 770.85 L1710.78 772.14 L1710.48 774.40 L1712.75 773.02 L1714.33 772.23 L1715.91 772.04 L1717.59 772.14 L1720.15 772.63 L1721.63 772.92 L1722.91 773.22 L1724.19 773.71 L1726.86 773.61 L1727.94 772.63 L1728.83 771.94 L1729.32 771.64 L1730.21 771.35 L1731.10 771.15 L1731.98 771.05 L1733.37 771.25 L1737.31 772.04 L1737.90 772.14 L1738.30 772.23 L1739.28 772.63 L1739.78 772.83 L1740.27 773.12 L1741.16 773.81 L1742.93 775.59 L1747.27 779.73 L1748.85 781.31 L1749.74 782.29 L1750.13 782.79 L1750.72 783.97 L1750.92 784.56 L1751.22 785.75 L1751.32 787.03 L1751.41 789.79 L1751.51 790.78 L1751.71 791.76 L1752.89 794.42 L1753.58 796.69 L1754.27 798.37 L1754.87 799.55 L1755.46 800.34 L1756.15 801.23 L1757.43 802.31 L1757.92 802.61 L1759.01 803.20 L1760.68 803.99 L1761.77 804.48 L1763.64 804.98 L1770.74 806.75 L1778.04 808.72 L1781.40 809.51 L1783.47 810.01 L1787.22 810.99 L1791.16 812.08 L1792.84 812.37 L1794.42 812.67 L1796.09 812.67 L1796.88 812.67 L1798.66 812.47 L1804.97 811.98 L1805.56 811.88 L1806.45 811.78 L1817.79 810.80 L1820.45 810.60 L1823.41 810.30 L1826.17 810.11 L1828.44 809.81 L1829.03 809.61 L1829.72 809.32 L1830.32 809.02 L1830.91 808.63 L1831.60 807.94 L1833.37 805.96 L1839.68 797.97 L1841.26 795.90 L1842.15 794.42 L1842.94 792.95 L1843.63 791.37 L1844.52 789.10 L1845.31 786.63 L1845.60 785.15 L1845.80 783.67 L1846.19 780.91 L1846.29 780.32 L1846.49 779.73 L1847.08 778.64 L1847.38 778.15 L1847.77 777.76 L1848.27 777.46 L1848.76 777.16 L1849.25 776.87 L1851.03 776.38 L1852.70 775.88 L1853.69 775.49 L1854.77 774.90 L1855.17 774.60 L1856.06 773.61 L1856.85 772.63 L1857.64 771.54 L1858.33 770.36 L1858.82 769.18 L1859.41 767.40 L1859.90 764.94 L1860.30 762.37 L1860.79 760.30 L1860.99 759.61 L1861.58 758.23 L1862.27 756.85 L1865.43 752.02 L1869.17 753.30 L1871.25 753.99 L1881.21 757.05 L1883.67 758.33 L1884.07 759.12 L1884.56 760.00 L1884.56 762.96 L1884.17 764.15 L1879.23 770.46 L1878.94 771.35 L1878.74 771.84 L1878.84 772.23 L1879.23 772.92 L1880.52 774.90 L1882.49 776.28 L1882.78 776.47 L1883.08 776.47 L1885.05 775.78 L1888.51 775.49 L1888.90 775.49 L1889.29 775.69 L1890.77 776.97 L1892.94 780.72 L1894.92 784.56 L1895.61 787.03 L1895.70 789.30 L1897.09 790.97 L1905.67 792.35 L1907.24 792.65 L1909.12 794.52 L1910.40 796.99 L1910.50 797.19 L1910.60 798.47 L1910.50 799.45 L1910.30 800.64 L1909.81 801.62 L1909.22 802.71 L1909.02 803.10 L1907.54 806.85 L1907.44 807.05 L1907.24 810.99 L1907.54 814.15 L1908.23 816.71 L1910.70 819.57 L1910.60 821.74 L1910.70 821.94 L1910.79 822.14 L1912.77 823.91 L1912.96 824.11 L1913.06 824.31 L1912.87 826.97 L1912.87 827.27 L1912.87 827.46 L1918.09 833.09 L1918.29 834.76 L1918.78 835.65 L1922.04 837.92 L1922.24 838.02 L1922.43 838.02 L1935.55 833.58 L1935.85 833.48 L1937.42 833.87 L1937.62 833.87 L1940.19 835.95 L1940.97 836.44 L1942.75 837.52 L1947.19 840.28 L1952.32 843.44 L1959.81 844.23 L1956.85 849.26 L1953.80 860.01 L1952.12 862.38 L1949.06 865.34 L1945.12 867.31 L1941.86 867.31 L1939.10 865.53 L1937.13 865.34 L1934.17 866.62 L1928.74 870.17 L1925.39 870.76 L1923.81 871.55 L1915.73 872.54 L1910.79 874.80 L1906.95 875.00 L1902.71 876.38 L1900.54 878.75 L1893.73 882.10 L1891.46 882.40 L1890.38 886.44 L1890.18 888.32 L1891.07 889.30 L1893.24 889.60 L1894.72 891.96 L1895.61 896.11 L1894.62 903.31 L1896.40 905.97 L1895.70 910.51 L1894.52 915.44 L1895.21 918.10 L1894.92 920.07 L1897.87 925.30 L1898.66 927.17 L1898.17 929.54 L1895.80 931.32 L1894.92 933.49 L1895.80 936.84 L1893.04 935.26 L1892.75 935.85 L1889.29 934.57 L1885.65 933.78 L1883.67 933.39 L1881.21 932.70 L1878.94 932.10 L1877.56 931.81 L1876.57 931.61 L1876.08 931.51 L1875.59 931.51 L1875.09 931.61 L1874.70 931.61 L1873.32 932.20 L1872.23 932.70 L1870.95 933.29 L1870.46 933.49 L1869.96 933.49 L1869.37 933.58 L1868.78 933.49 L1868.29 933.39 L1867.69 933.19 L1867.10 932.99 L1864.83 932.01 L1862.17 931.12 L1860.20 930.63 L1857.54 929.74 L1856.55 929.54 L1856.16 929.44 L1855.76 929.64 L1855.07 930.13 L1854.38 930.72 L1855.76 932.20 L1857.93 934.87 L1859.61 937.13 L1861.38 939.80 L1862.07 940.98 L1863.06 942.56 L1863.75 943.84 L1864.34 944.83 L1864.74 945.81 L1865.33 947.00 L1865.82 948.08 L1866.61 950.05 L1867.50 952.32 L1868.39 954.69 L1869.08 956.47 L1869.67 957.85 L1870.36 959.52 L1871.15 961.20 L1871.84 962.68 L1872.92 964.85 L1873.81 966.53 L1874.60 968.00 L1875.68 969.88 L1876.77 971.65 L1877.75 973.23 L1878.74 974.71 L1879.92 976.39 L1880.91 977.67 L1882.09 979.25 L1882.98 980.43 L1883.97 981.71 L1884.86 982.80 L1885.94 983.98 L1887.52 985.66 L1888.41 986.74 L1889.69 988.03 L1891.56 989.70 L1894.42 992.46 L1897.68 995.32 L1900.44 997.89 L1902.71 999.96 L1905.37 1002.42 L1907.64 1004.50 L1909.41 1006.17 L1911.09 1007.75 L1913.16 1009.53 L1915.13 1011.20 L1916.42 1012.29 L1917.40 1013.08 L1918.49 1013.77 L1919.67 1014.65 L1922.04 1016.33 L1923.12 1017.02 L1924.60 1017.91 L1925.98 1018.70 L1927.07 1019.39 L1929.14 1020.47 L1930.52 1021.16 L1931.61 1021.66 L1933.97 1022.74 L1936.34 1023.73 L1938.41 1024.52 L1940.09 1025.11 L1942.36 1025.80 L1944.13 1026.29 L1947.29 1027.18 L1949.16 1027.67 L1951.33 1028.17 L1953.40 1028.66 L1955.67 1029.25 L1957.54 1029.74 L1959.52 1030.34 L1961.19 1030.83 L1963.26 1031.52 L1964.25 1031.91 L1965.34 1032.31 L1967.21 1033.20 L1968.20 1033.69 L1969.38 1034.28 L1971.45 1035.46 L1973.32 1036.65 L1975.00 1037.63 L1976.68 1038.82 L1977.96 1039.80 L1979.04 1040.69 L1981.02 1042.37 L1982.99 1044.04 L1984.86 1045.62 L1986.74 1047.20 L1988.12 1048.19 L1990.39 1049.96 L1991.67 1050.95 L1992.75 1051.64 L1994.43 1052.72 L1995.91 1053.61 L1998.18 1054.89 L1999.85 1055.88 L2002.12 1057.16 L2004.19 1058.34 L2005.87 1059.33 L2006.86 1059.92 L2010.61 1061.99 L2011.69 1062.59 L2012.68 1062.88 L2016.03 1064.76 L2018.59 1066.04 L2019.19 1066.43 L2019.97 1066.73 L2020.57 1066.93 L2021.16 1067.12 L2022.05 1067.32 L2023.33 1067.62 L2028.36 1068.70 L2030.92 1069.19 L2033.19 1069.69 L2032.60 1074.52 L2032.40 1076.29 L2031.71 1081.13 L2030.72 1088.82 L2032.20 1097.20 L2032.30 1097.40 L2032.50 1097.50 L2034.67 1098.88 L2035.16 1099.27 L2035.56 1099.47 L2035.85 1099.67 L2036.45 1099.96 L2037.14 1100.26 L2037.43 1100.36 L2037.73 1100.46 L2038.22 1100.56 L2041.67 1101.05 L2041.97 1101.15 L2047.10 1102.04 L2053.11 1103.02 L2058.04 1103.81 L2063.27 1104.70 L2067.12 1105.39 L2068.99 1105.78 L2071.75 1106.67 L2077.97 1109.04 L2080.14 1110.12 L2081.22 1110.71 L2082.21 1111.60 L2082.90 1112.29 L2090.59 1119.79 L2094.14 1123.14 L2095.42 1124.82 L2097.00 1127.09 L2098.48 1129.35 L2098.88 1129.85 L2099.57 1130.74 L2100.06 1131.03 L2100.45 1131.23 L2100.95 1131.33 L2101.93 1131.52 L2107.46 1132.21 L2111.89 1132.71 L2113.57 1133.00 L2115.64 1133.40 L2115.35 1134.48 L2112.29 1135.57 L2112.19 1136.55 L2112.68 1137.34 L2116.43 1137.94 L2117.52 1139.12 L2119.98 1140.01 L2120.57 1140.80 L2120.87 1141.98 L2119.59 1142.67 L2119.49 1143.75 L2120.08 1144.54 L2123.04 1144.94 L2123.04 1146.12 L2120.08 1147.30 L2119.98 1148.39 L2120.48 1149.08 L2122.35 1149.77 L2121.86 1153.12 L2122.65 1155.10 L2122.84 1157.27 L2123.83 1157.66 L2125.51 1156.58 L2129.55 1157.27 L2131.72 1156.97 L2133.69 1157.86 L2135.86 1159.63 L2135.96 1162.10 L2135.17 1163.28 L2134.68 1165.55 L2140.00 1167.33 L2142.27 1166.64 L2146.02 1172.45 L2147.40 1173.34 L2148.98 1173.74 L2150.66 1175.91 L2150.56 1178.47 L2152.23 1180.25 L2155.09 1181.43 L2156.67 1179.75 L2157.95 1179.95 L2159.53 1181.13 L2159.53 1182.12 L2159.33 1182.51 L2158.94 1183.11 L2158.84 1185.18 L2160.72 1185.97 L2161.90 1184.88 L2163.48 1184.68 L2164.27 1185.37 L2166.53 1186.06 L2168.11 1186.46 L2169.99 1185.57 L2173.83 1185.47 L2175.41 1186.56 L2175.80 1187.74 L2178.67 1189.12 L2178.57 1190.21 L2182.31 1191.09 L2185.77 1191.19 L2192.37 1189.81 L2192.77 1188.73 L2195.33 1189.12 L2197.40 1189.42 L2204.70 1190.21 L2216.14 1191.98 L2218.21 1192.18 L2218.61 1192.18 L2220.19 1192.18 L2223.44 1191.78 L2224.82 1191.69 L2228.18 1191.69 L2229.75 1191.78 L2232.52 1192.18 L2236.95 1193.07 L2237.64 1193.26 L2238.24 1193.36 L2243.17 1194.35 L2247.01 1194.94 L2254.71 1196.03 L2263.58 1197.21 L2269.80 1198.10 L2271.47 1198.20 L2272.56 1198.20 L2273.15 1198.10 L2273.74 1197.90 L2274.14 1197.80 L2276.01 1196.91 L2276.40 1196.52 L2277.19 1195.63 L2278.28 1194.35 L2281.63 1196.42 L2293.37 1203.52 L2299.38 1207.27 L2312.40 1215.26 L2321.38 1220.68 L2327.20 1224.23 L2328.87 1225.12 L2330.55 1226.11 L2333.21 1227.49 L2335.58 1228.67 L2338.74 1230.05 L2342.78 1231.83 L2355.31 1237.55 L2361.62 1240.41 L2365.86 1242.18 L2379.47 1248.40 L2393.57 1254.71 L2395.05 1255.30 L2396.24 1255.79 L2397.32 1256.19 L2399.29 1256.88 L2401.27 1257.47 L2403.24 1257.96 L2403.93 1258.16 L2405.21 1258.45 L2407.28 1258.85 L2409.25 1259.15 L2411.23 1259.34 L2413.30 1259.54 L2415.37 1259.64 L2417.05 1259.64 L2417.34 1259.64 L2419.41 1259.64 L2421.39 1259.54 L2423.46 1259.44 L2425.53 1259.15 L2427.60 1258.85 L2430.16 1258.36 L2438.05 1256.78 L2443.77 1255.50 L2448.31 1254.61 L2452.35 1253.72 L2456.10 1252.93 L2459.46 1252.34 L2462.71 1251.85 L2465.96 1251.35 L2469.12 1251.06 L2472.28 1250.76 L2475.53 1250.47 L2478.69 1250.17 L2481.84 1250.07 L2485.00 1249.97 L2488.25 1250.07 L2491.41 1250.17 L2494.57 1250.37 L2497.53 1250.66 L2500.29 1251.06 L2503.05 1251.55 L2504.03 1251.65 L2505.81 1252.04 L2508.77 1252.73 L2512.32 1253.62 L2520.01 1255.69 L2526.92 1257.57 L2530.27 1258.45 L2533.62 1259.34 L2535.20 1259.74 L2542.70 1261.81 L2551.08 1264.08 L2556.70 1265.65 L2558.58 1266.05 L2560.75 1266.54 L2562.82 1267.04 L2565.87 1267.53 L2567.55 1267.82 L2570.02 1268.22 L2571.10 1268.32 L2571.99 1268.42 L2573.07 1268.51 L2574.55 1268.61 L2576.03 1268.61 L2577.81 1268.71 L2581.65 1268.91 L2586.88 1269.21 L2594.97 1269.70 L2598.82 1269.90 L2601.97 1270.09 L2613.31 1270.68 L2627.22 1271.47 L2633.24 1271.77 L2634.32 1271.87 L2644.58 1272.46 L2647.14 1272.66 L2649.61 1272.76 L2653.45 1272.95 L2656.31 1273.15 L2659.27 1273.25 L2662.82 1273.54 L2665.88 1273.64 L2669.53 1273.94 L2672.88 1274.04 L2676.83 1274.33 L2680.48 1274.53 L2685.01 1274.73 L2686.79 1274.83 L2688.37 1274.83 L2690.14 1274.83 L2691.82 1274.83 L2693.50 1274.63 L2695.27 1274.53 L2696.95 1274.33 L2698.63 1274.04 L2700.10 1273.74 L2701.98 1273.45 L2703.56 1273.05 L2704.94 1272.66 L2706.52 1272.16 L2707.80 1271.77 L2710.76 1270.68 L2713.32 1269.70 L2715.19 1269.01 L2716.87 1268.42 L2718.75 1267.82 L2720.32 1267.23 L2721.90 1266.64 L2723.48 1266.15 L2725.06 1265.56 L2726.73 1264.96 L2728.61 1264.37 L2730.28 1263.88 L2732.36 1263.39 L2733.93 1262.99 L2736.79 1262.40 L2739.85 1261.91 L2742.22 1261.61 L2744.39 1261.32 L2745.77 1261.22 L2747.25 1261.12 L2749.81 1261.02 L2752.48 1261.02 L2754.94 1261.12 L2757.51 1261.22 L2760.07 1261.51 L2762.44 1261.81 L2765.20 1262.30 L2770.13 1263.19 L2775.65 1264.27 L2780.19 1265.16 L2784.33 1266.05 L2786.30 1266.44 L2787.98 1266.94 L2789.95 1267.43 L2792.12 1268.12 L2793.70 1268.61 L2795.38 1269.21 L2798.53 1270.39 L2801.39 1271.57 L2804.45 1272.76 L2808.50 1274.43 L2812.44 1276.01 L2813.72 1276.50 L2815.00 1277.00 L2816.78 1277.59 L2818.56 1278.08 L2820.92 1278.77 L2822.70 1279.26 L2824.57 1279.66 L2827.04 1280.05 L2829.31 1280.45 L2831.18 1280.65 L2832.86 1280.74 L2834.53 1280.74 L2836.21 1280.74 L2837.99 1280.65 L2850.21 1280.45 L2851.69 1280.45 L2851.60 1281.34 L2851.40 1282.22 L2851.30 1283.11 L2851.20 1284.20 L2845.09 1328.77 L2843.80 1337.55 L2836.51 1391.01 L2824.47 1478.88 L2824.37 1487.27 L2813.23 1569.32 L2813.03 1570.90 L2807.31 1619.82 L2801.49 1668.64 L2794.39 1710.95 L2794.19 1711.54 L2794.00 1713.02 L2793.50 1716.17 L2785.52 1785.70 L2780.39 1825.84 L2779.80 1830.38 L2774.47 1874.37 L2771.61 1898.43 L2768.16 1926.64 L2766.68 1939.16 L2760.37 1984.34 L2752.77 2044.10 L2743.60 2116.39 L2742.22 2122.21 L2734.62 2180.20 L2726.93 2238.10 L2727.03 2242.24 L2726.24 2248.06 L2725.65 2252.79 L2720.92 2289.09 L2714.90 2334.65 L2709.67 2375.58 L2708.39 2385.15 L2701.68 2436.83 L2698.63 2460.89 L2693.89 2496.40 L2693.20 2501.92 L2686.30 2555.18 L2676.93 2628.16 L2676.14 2633.98 L2669.63 2684.57 L2662.82 2737.34 L2656.02 2790.00 L2655.23 2796.41 L2643.49 2887.54 L2642.70 2893.85 L2615.09 2890.30 L2581.26 2885.96 L2535.79 2880.15 L2490.42 2874.23 L2485.89 2873.83 L2475.43 2872.45 L2469.42 2871.66 L2448.31 2868.90 L2447.23 2868.71 L2430.16 2865.55 L2374.83 2858.25 L2362.11 2856.38 L2359.45 2855.69 L2291.79 2847.40 L2224.13 2839.02 L2219.89 2838.23 L2209.44 2836.95 L2173.83 2832.41 L2167.82 2879.85 L2162.88 2917.82 L2160.42 2936.95 L2158.94 2945.14 L2153.22 2990.41 L2150.75 3009.64 L2102.62 3003.53 L2046.11 2996.33 L1989.50 2989.13 L1932.10 2981.83 L1877.66 2974.53 L1817.49 2966.54 L1755.16 2958.16 L1692.73 2949.78 L1683.07 2948.39 L1672.81 3025.22 L1672.32 3029.17 L1666.99 3068.72 L1664.52 3088.05 L1659.49 3125.13 L1658.11 3124.93 L1648.74 3123.75 L1617.28 3119.71 L1601.60 3117.63 L1601.11 3117.54 L1596.37 3116.94 L1540.55 3109.84 L1484.83 3102.74 L1433.84 3096.63 L1387.88 3091.20 L1374.86 3089.43 L1371.90 3088.74 L1345.96 3085.78 L1345.96 3085.78 Z" stroke-linejoin="round"/>
	</defs>
	<use xlink:href="#path_OdTlAqUe" style="fill:#6BACAF;stroke:#097D9B;stroke-width:5.76"/>
	<defs>
		<path id="path_TvMBIkLB" d="M338.59 1567.74 L338.59 1567.74 L332.17 1569.42 L331.78 1569.52 L331.58 1569.42 L331.29 1568.93 L335.73 1567.64 L338.09 1566.36 L339.28 1565.47 L340.46 1564.19 L341.74 1562.42 L342.53 1561.43 L343.42 1560.15 L343.91 1559.36 L347.56 1554.03 L347.96 1553.25 L349.53 1550.29 L350.22 1548.51 L350.91 1546.83 L351.90 1543.78 L352.20 1542.40 L352.99 1539.24 L356.04 1514.19 L356.44 1511.23 L360.38 1482.43 L359.69 1482.33 L353.28 1481.45 L346.08 1480.36 L320.54 1476.71 L320.54 1476.32 L320.64 1475.43 L320.83 1474.35 L320.93 1473.56 L322.11 1464.38 L322.31 1462.81 L323.59 1453.34 L323.99 1450.18 L324.98 1442.88 L325.17 1441.31 L326.36 1432.63 L327.14 1426.41 L327.44 1424.54 L328.23 1418.33 L328.43 1416.45 L329.02 1412.21 L329.22 1410.44 L329.91 1405.31 L330.10 1403.83 L330.30 1402.25 L332.08 1388.25 L331.09 1388.05 L335.33 1381.34 L338.68 1380.65 L340.46 1380.16 L343.02 1376.21 L343.71 1373.35 L343.81 1368.72 L343.52 1368.32 L343.22 1363.39 L344.60 1360.73 L344.90 1358.36 L344.21 1356.88 L344.11 1354.02 L347.56 1347.12 L347.66 1344.75 L347.26 1343.57 L344.01 1340.22 L344.01 1338.24 L346.67 1333.21 L347.26 1329.66 L346.87 1326.11 L349.14 1320.49 L354.17 1313.78 L356.54 1312.70 L362.55 1311.61 L363.64 1311.22 L367.09 1304.91 L367.98 1304.91 L368.27 1304.12 L369.16 1303.33 L363.93 1302.54 L363.54 1302.44 L360.97 1302.05 L354.66 1301.06 L351.31 1300.67 L346.28 1299.88 L343.71 1299.58 L343.52 1301.06 L343.12 1304.32 L343.02 1305.40 L342.93 1306.19 L342.93 1306.49 L342.83 1306.98 L342.53 1308.85 L342.23 1310.33 L337.20 1311.42 L336.91 1312.60 L337.70 1313.68 L336.22 1323.15 L335.43 1323.45 L334.44 1322.27 L333.16 1321.87 L330.70 1322.27 L328.62 1321.38 L328.23 1321.87 L328.43 1323.65 L327.84 1325.52 L328.72 1327.39 L328.62 1328.58 L326.36 1330.65 L322.02 1330.16 L318.27 1328.77 L317.48 1328.97 L317.18 1330.45 L317.58 1331.44 L317.58 1332.82 L318.47 1334.99 L321.03 1339.33 L320.83 1340.91 L319.45 1342.38 L316.39 1343.57 L313.83 1343.37 L312.55 1344.16 L311.66 1347.02 L309.69 1350.57 L304.95 1353.63 L304.86 1355.40 L306.93 1360.43 L306.53 1363.98 L305.05 1367.83 L303.08 1370.10 L300.52 1371.28 L296.08 1370.89 L292.23 1372.17 L289.27 1377.50 L285.33 1379.76 L284.34 1379.27 L283.75 1380.85 L283.85 1381.34 L282.76 1381.24 L272.60 1379.86 L255.15 1377.40 L254.06 1377.30 L254.06 1377.50 L253.96 1378.58 L253.77 1380.06 L253.17 1384.30 L247.65 1425.33 L245.68 1429.08 L244.30 1434.70 L242.03 1438.45 L240.95 1445.65 L240.25 1447.22 L237.30 1448.60 L234.53 1448.90 L233.25 1447.91 L232.27 1448.21 L231.67 1451.66 L229.70 1453.73 L228.12 1454.42 L227.14 1455.41 L226.05 1460.04 L225.36 1461.62 L225.07 1463.40 L222.50 1463.00 L199.92 1459.85 L177.23 1456.59 L173.68 1456.10 L170.43 1455.70 L169.44 1455.51 L169.44 1454.62 L170.43 1454.82 L173.19 1434.30 L209.38 1407.67 L211.26 1397.42 L230.49 1385.19 L230.98 1380.85 L226.25 1372.47 L223.78 1372.96 L169.05 1411.13 L143.40 1407.67 L152.08 1438.35 L148.73 1435.88 L148.33 1434.50 L149.12 1432.73 L147.74 1430.16 L145.97 1428.68 L145.77 1427.79 L146.36 1422.67 L145.67 1421.78 L144.39 1422.07 L143.80 1424.14 L143.01 1424.64 L138.87 1418.52 L139.26 1417.24 L141.63 1415.17 L141.63 1411.82 L141.23 1411.13 L140.25 1411.13 L138.57 1412.31 L137.49 1411.23 L136.80 1406.69 L138.08 1403.43 L137.49 1401.07 L135.61 1398.80 L136.70 1396.04 L134.13 1391.40 L131.07 1392.29 L129.40 1391.40 L128.02 1389.33 L128.02 1385.58 L129.50 1381.93 L128.81 1380.85 L126.54 1380.85 L125.16 1381.83 L123.88 1381.34 L124.17 1376.90 L122.30 1374.44 L118.06 1371.28 L116.77 1371.48 L113.62 1370.89 L111.25 1369.51 L108.79 1369.70 L107.60 1368.22 L107.70 1367.63 L107.11 1366.94 L107.21 1365.86 L106.52 1364.87 L105.33 1365.07 L103.16 1365.56 L101.09 1364.87 L98.73 1361.62 L95.08 1359.15 L93.99 1358.16 L94.09 1357.18 L94.29 1356.49 L94.39 1356.19 L94.68 1355.70 L94.88 1355.21 L95.47 1354.71 L96.26 1353.92 L96.75 1353.53 L97.15 1353.33 L99.61 1352.44 L100.01 1352.15 L100.20 1351.85 L100.50 1351.26 L100.99 1350.27 L101.09 1349.68 L101.19 1349.09 L102.47 1337.95 L102.67 1337.36 L102.77 1336.96 L103.26 1336.37 L103.56 1336.17 L103.95 1335.88 L108.09 1334.20 L108.79 1333.61 L108.98 1333.11 L109.08 1332.72 L109.18 1332.23 L109.67 1328.48 L109.67 1327.59 L109.57 1326.51 L109.28 1325.42 L108.19 1319.50 L107.60 1315.16 L107.80 1312.90 L107.80 1312.30 L107.70 1311.71 L107.21 1310.73 L107.11 1310.13 L107.21 1309.44 L107.60 1307.18 L108.79 1304.41 L109.48 1300.57 L111.25 1297.31 L111.55 1296.43 L111.55 1296.13 L111.55 1295.83 L111.45 1295.74 L110.17 1294.45 L109.48 1294.26 L105.04 1293.37 L101.19 1293.57 L99.61 1292.68 L84.52 1291.49 L69.53 1293.07 L57.89 1292.38 L54.54 1292.88 L53.46 1293.37 L53.06 1293.57 L52.77 1293.96 L50.69 1296.52 L50.40 1296.82 L50.10 1297.71 L49.91 1298.00 L42.90 1304.51 L42.61 1305.01 L42.01 1305.80 L41.82 1306.09 L41.72 1306.39 L41.62 1306.68 L41.32 1309.64 L41.23 1310.04 L41.23 1310.33 L41.03 1310.73 L40.73 1311.02 L40.24 1313.39 L36.69 1309.94 L35.70 1308.85 L33.53 1305.99 L32.15 1303.43 L31.46 1302.15 L30.67 1300.27 L29.98 1298.50 L29.39 1296.33 L29.00 1294.85 L28.50 1291.69 L28.31 1290.11 L28.21 1287.45 L28.31 1284.79 L28.40 1282.91 L29.79 1272.26 L30.28 1268.32 L31.17 1261.32 L31.26 1260.53 L31.56 1258.65 L32.65 1250.27 L33.04 1247.31 L34.22 1237.94 L35.11 1230.45 L35.80 1224.82 L36.69 1218.12 L37.28 1213.28 L37.68 1210.42 L39.35 1197.11 L40.24 1190.70 L40.54 1187.94 L42.11 1175.81 L42.80 1170.19 L43.20 1167.33 L44.68 1155.88 L46.16 1144.35 L46.85 1138.82 L47.34 1134.78 L47.93 1131.03 L48.23 1129.26 L49.12 1125.51 L50.00 1121.76 L51.09 1118.11 L52.96 1112.59 L61.54 1087.24 L67.16 1070.67 L76.14 1043.95 L78.31 1037.53 L79.99 1032.51 L82.06 1026.39 L84.13 1020.28 L86.50 1013.47 L87.48 1010.41 L88.47 1006.96 L89.06 1004.89 L89.55 1002.62 L89.95 1000.95 L90.93 995.92 L91.82 989.41 L92.51 984.08 L93.10 979.84 L93.79 974.61 L93.89 973.82 L94.19 972.05 L94.58 968.69 L95.27 963.37 L95.77 959.72 L73.97 948.58 L72.39 947.79 L72.29 947.59 L72.19 947.39 L72.19 947.00 L72.49 944.83 L73.58 929.44 L74.07 926.48 L78.80 928.06 L80.48 928.65 L83.44 929.64 L84.92 930.13 L85.71 930.53 L86.10 930.72 L86.50 930.92 L87.98 931.81 L88.27 932.01 L88.47 932.20 L90.44 933.78 L90.54 933.88 L90.74 934.08 L92.22 935.75 L92.81 936.44 L93.50 937.53 L94.19 938.71 L94.98 940.39 L95.47 941.47 L95.87 942.76 L95.96 943.05 L96.06 943.35 L96.46 945.02 L96.75 946.90 L96.85 948.77 L96.95 949.76 L96.95 949.96 L96.95 950.25 L96.85 951.73 L96.26 956.17 L100.30 958.83 L104.54 961.59 L113.72 966.03 L118.75 968.89 L121.41 970.47 L125.45 973.33 L144.09 989.90 L148.04 989.60 L149.52 989.11 L152.87 989.70 L157.70 992.96 L166.28 1000.16 L167.67 1002.42 L168.55 1006.07 L169.54 1007.26 L170.13 1007.26 L190.35 1010.02 L210.67 1012.68 L215.30 1013.37 L230.39 1015.34 L237.89 1016.43 L245.38 1017.51 L260.47 1019.59 L260.77 1019.09 L263.04 1017.32 L264.91 1015.44 L271.82 966.33 L278.52 915.34 L285.13 864.65 L291.74 814.05 L299.13 757.64 L304.95 713.45 L305.05 712.66 L307.32 695.31 L311.66 662.17 L315.11 635.93 L316.39 626.07 L316.49 625.68 L321.52 587.71 L327.64 541.94 L328.72 534.25 L330.30 516.70 L332.08 517.88 L333.95 519.36 L335.43 520.64 L337.20 522.52 L338.49 523.90 L339.77 525.28 L342.73 528.43 L345.98 531.39 L348.84 533.76 L350.82 535.14 L353.77 537.11 L355.35 538.10 L357.92 539.58 L361.07 541.16 L363.14 542.04 L367.48 543.72 L368.37 544.02 L370.54 545.10 L372.71 546.38 L375.08 548.16 L376.06 548.95 L377.84 550.62 L379.52 552.50 L380.70 553.98 L382.08 556.05 L383.95 559.11 L384.94 560.78 L385.73 561.77 L387.01 563.15 L387.90 563.94 L389.28 564.92 L390.66 565.61 L392.14 566.21 L393.82 566.60 L398.85 567.39 L399.83 567.59 L401.41 567.98 L402.99 568.57 L404.37 569.16 L405.75 569.95 L407.03 570.84 L408.61 572.03 L409.79 573.11 L418.37 581.89 L423.40 587.11 L424.59 588.30 L426.17 589.97 L427.35 591.16 L427.94 592.05 L428.63 592.93 L429.22 593.03 L430.31 592.64 L431.29 592.64 L432.48 592.74 L441.95 593.92 L452.01 595.20 L457.43 595.89 L458.02 595.99 L458.61 595.99 L458.91 595.99 L459.30 595.79 L459.60 595.50 L459.90 595.20 L460.00 594.91 L460.19 594.41 L460.19 594.02 L460.49 592.24 L461.08 587.11 L461.28 585.93 L461.87 580.51 L462.36 576.36 L465.52 552.10 L470.84 509.00 L470.94 508.51 L470.94 507.82 L471.04 507.33 L471.04 506.83 L471.44 503.97 L471.63 502.59 L471.73 501.90 L471.73 501.71 L472.03 499.34 L472.13 497.66 L472.32 495.69 L472.62 493.91 L472.62 493.22 L472.92 490.86 L473.11 489.28 L473.31 487.80 L473.41 487.31 L473.80 486.32 L474.00 485.83 L474.79 484.54 L476.37 482.18 L476.86 481.29 L477.16 480.60 L477.35 480.21 L477.65 479.51 L478.54 477.74 L479.13 476.56 L479.33 476.46 L479.33 476.26 L479.92 475.47 L480.90 474.39 L481.30 473.99 L481.40 473.89 L481.99 473.50 L482.58 473.01 L483.96 472.12 L484.55 471.82 L486.53 471.13 L488.99 470.34 L489.58 470.15 L491.95 469.45 L494.91 468.86 L495.99 468.67 L496.98 468.37 L497.67 467.98 L497.97 467.78 L498.36 467.29 L498.46 467.09 L498.66 466.89 L498.95 466.40 L499.05 466.10 L499.05 465.71 L499.05 465.41 L499.15 465.12 L499.05 464.03 L499.05 463.64 L499.15 463.24 L499.35 462.95 L499.74 462.45 L500.23 462.16 L500.53 462.06 L502.11 461.86 L504.57 461.66 L507.34 461.17 L509.70 460.58 L510.69 460.28 L515.32 459.30 L516.31 459.10 L516.41 459.10 L518.18 458.80 L520.65 458.31 L520.95 458.21 L521.54 458.01 L522.43 457.82 L522.62 457.82 L523.41 457.52 L523.71 457.42 L523.91 457.42 L524.50 457.13 L525.09 456.93 L526.86 455.94 L529.13 454.46 L529.53 454.07 L530.61 453.38 L530.71 453.18 L532.68 453.77 L541.36 455.94 L546.29 457.03 L553.59 457.03 L555.86 456.63 L557.83 453.38 L559.02 454.76 L560.20 455.55 L561.09 455.55 L561.28 455.55 L561.98 455.25 L562.67 454.46 L565.43 454.56 L566.81 454.17 L567.50 453.48 L567.30 452.79 L566.71 452.20 L567.01 450.42 L568.68 450.12 L570.26 449.24 L570.85 449.43 L571.94 450.22 L573.42 450.91 L574.01 451.90 L574.80 451.60 L575.39 451.80 L576.18 451.60 L578.45 451.70 L580.22 450.81 L580.81 451.01 L581.70 452.59 L582.00 453.38 L581.90 453.77 L582.00 454.17 L582.00 454.27 L582.19 454.27 L582.29 453.97 L582.79 454.17 L583.57 452.98 L584.46 452.29 L585.84 452.00 L586.73 452.39 L587.42 453.68 L589.59 453.97 L591.07 454.76 L591.86 456.14 L591.96 459.20 L595.31 463.04 L597.88 463.34 L600.34 461.86 L602.12 462.16 L604.78 463.93 L605.86 464.62 L606.55 466.30 L608.33 467.19 L610.50 466.20 L611.78 466.20 L613.46 466.89 L617.50 469.55 L619.77 469.26 L620.86 468.17 L623.42 467.98 L628.45 466.99 L629.83 467.48 L632.20 466.40 L632.89 466.50 L636.93 471.72 L638.21 472.71 L641.17 472.32 L642.85 470.93 L646.30 468.96 L654.29 467.38 L655.18 468.96 L656.07 469.45 L662.18 468.67 L663.96 469.16 L665.73 470.44 L666.52 470.74 L670.96 469.65 L674.31 469.85 L677.76 470.24 L678.85 471.82 L679.44 471.82 L680.82 470.54 L683.29 471.53 L683.88 471.23 L684.27 470.34 L687.03 468.57 L688.91 469.85 L691.08 468.86 L691.47 468.96 L692.46 470.93 L694.53 471.72 L694.63 472.41 L693.84 473.70 L693.54 474.88 L693.64 475.37 L694.14 475.37 L694.92 474.68 L696.30 475.08 L697.09 474.68 L699.26 475.57 L700.64 477.34 L701.93 477.94 L703.11 479.02 L704.29 480.50 L705.08 481.68 L706.17 482.18 L707.25 482.37 L708.63 482.37 L709.62 481.68 L710.90 481.68 L711.30 482.87 L712.68 484.94 L714.75 488.19 L716.52 489.48 L718.99 489.18 L720.76 489.67 L721.16 491.84 L721.95 491.55 L723.23 493.72 L724.22 495.69 L725.60 496.77 L726.98 497.07 L727.27 495.69 L726.98 495.00 L727.87 493.13 L727.67 492.73 L727.37 492.24 L727.67 491.65 L728.16 491.65 L728.75 492.43 L730.53 493.32 L731.32 493.22 L732.90 493.82 L734.77 493.82 L735.85 494.21 L736.54 496.48 L738.42 497.66 L739.40 497.76 L740.39 499.14 L741.48 499.14 L741.77 499.83 L741.57 500.62 L740.59 501.21 L739.60 501.21 L739.31 501.51 L739.40 501.80 L739.90 502.40 L740.59 503.38 L741.28 505.45 L740.88 506.64 L740.29 507.62 L741.57 509.79 L743.65 514.72 L745.32 516.89 L748.38 519.46 L750.65 519.56 L752.62 519.06 L753.90 519.85 L756.47 524.88 L759.03 525.77 L761.20 527.35 L761.40 529.52 L762.29 532.38 L762.68 533.27 L763.67 533.86 L764.55 534.45 L765.54 536.03 L765.94 538.69 L766.53 540.96 L768.40 541.65 L768.99 542.54 L769.98 544.11 L771.26 546.38 L774.22 547.66 L776.39 549.74 L778.36 553.09 L781.03 556.74 L783.20 560.39 L784.08 562.66 L785.36 562.56 L787.24 564.63 L788.72 566.90 L791.78 568.08 L795.62 572.62 L798.28 576.86 L802.53 577.35 L805.58 580.21 L809.53 581.79 L811.30 581.59 L811.70 582.68 L811.11 584.06 L813.08 585.93 L815.25 587.80 L817.02 590.07 L818.11 590.47 L818.50 590.47 L820.67 593.53 L823.53 594.91 L826.00 594.41 L831.62 595.99 L835.07 598.26 L837.83 600.82 L837.83 603.88 L839.12 605.06 L840.79 605.26 L842.47 607.92 L845.03 609.70 L847.20 610.59 L848.09 611.47 L850.26 609.11 L853.02 608.42 L854.21 608.22 L854.21 609.80 L855.29 611.28 L856.67 611.18 L857.76 611.97 L859.04 611.97 L859.53 613.55 L860.91 613.74 L861.80 615.12 L862.39 615.42 L864.27 615.81 L865.25 617.10 L866.63 617.29 L867.62 616.21 L869.00 614.43 L870.48 613.94 L872.06 612.86 L873.34 613.15 L874.72 614.34 L876.59 615.12 L878.07 615.91 L879.16 616.70 L879.75 616.41 L883.10 614.73 L887.25 612.76 L890.60 613.15 L894.45 613.84 L896.71 613.64 L898.98 612.56 L899.87 612.56 L899.97 613.64 L902.43 614.73 L905.79 616.90 L911.02 616.41 L912.40 615.91 L912.89 616.80 L916.05 617.59 L918.51 619.07 L919.79 620.65 L920.88 619.56 L922.46 618.97 L923.15 618.18 L926.80 619.27 L928.77 618.08 L929.66 618.87 L930.05 621.34 L930.84 622.82 L932.81 622.62 L933.11 620.55 L934.59 620.65 L936.76 622.23 L937.74 622.52 L938.04 622.82 L937.84 623.11 L937.15 623.41 L937.45 624.39 L938.14 624.69 L939.62 624.39 L940.31 624.79 L941.10 626.86 L944.55 625.68 L944.65 626.47 L943.76 628.34 L942.77 629.72 L943.56 631.00 L945.73 630.51 L949.48 630.31 L949.97 628.73 L951.35 627.95 L952.14 628.34 L957.07 631.79 L958.55 633.37 L959.74 637.51 L961.02 639.09 L961.91 638.79 L962.70 638.60 L967.04 636.43 L971.08 637.22 L973.05 640.96 L979.27 638.10 L991.99 649.05 L994.45 644.61 L998.60 647.97 L1000.47 649.35 L1001.65 650.23 L1003.82 651.62 L1005.50 652.31 L1005.80 652.40 L1008.95 653.69 L1009.84 653.88 L1012.01 654.38 L1012.90 654.48 L1014.87 654.67 L1016.45 654.87 L1017.43 655.26 L1018.81 656.05 L1020.20 657.04 L1021.67 657.93 L1022.96 658.62 L1023.94 659.11 L1025.62 659.60 L1039.03 663.25 L1050.57 666.41 L1053.53 667.20 L1057.87 668.38 L1065.96 670.65 L1067.83 671.24 L1068.52 671.44 L1070.89 672.62 L1074.74 674.59 L1076.61 675.68 L1079.17 677.16 L1083.91 679.92 L1084.60 680.22 L1084.80 680.32 L1086.08 680.71 L1086.77 680.91 L1090.02 681.40 L1092.29 681.60 L1092.98 681.79 L1093.47 682.09 L1093.77 682.39 L1093.87 682.68 L1093.97 683.18 L1093.87 684.16 L1093.47 686.92 L1092.98 690.08 L1092.78 691.66 L1092.19 694.42 L1092.09 695.01 L1092.09 695.40 L1092.09 695.90 L1092.19 696.29 L1092.29 696.59 L1092.49 696.98 L1093.08 697.57 L1094.17 698.66 L1094.95 699.35 L1095.45 699.74 L1096.14 700.63 L1096.53 701.13 L1097.12 702.21 L1097.52 703.29 L1099.79 710.59 L1101.66 716.81 L1102.65 719.86 L1105.01 726.87 L1105.70 728.94 L1106.00 730.22 L1106.30 731.70 L1106.59 733.97 L1106.79 736.24 L1107.28 740.08 L1107.58 742.15 L1107.87 743.53 L1108.27 744.72 L1108.76 745.80 L1109.35 746.79 L1111.92 750.04 L1112.61 751.03 L1113.40 752.11 L1114.29 753.79 L1114.88 754.97 L1115.17 755.57 L1115.47 756.75 L1115.86 758.72 L1116.55 765.43 L1117.05 769.37 L1117.93 776.77 L1118.33 779.73 L1118.62 781.11 L1119.61 784.46 L1120.79 787.82 L1121.29 788.90 L1117.84 792.75 L1116.85 796.79 L1117.15 799.65 L1120.01 802.51 L1123.65 801.33 L1126.91 806.26 L1128.59 810.50 L1131.35 809.81 L1131.84 810.11 L1131.94 810.70 L1130.85 815.33 L1133.91 823.42 L1126.91 823.42 L1121.58 827.56 L1116.16 837.52 L1112.02 844.43 L1103.53 848.67 L1093.47 852.61 L1087.16 858.04 L1085.39 860.11 L1072.86 858.73 L1077.60 818.59 L1068.13 816.81 L1063.30 856.95 L1062.70 860.31 L1056.10 855.87 L1029.37 838.90 L1023.45 851.63 L1005.99 849.26 L988.63 864.84 L987.55 866.03 L987.06 869.38 L987.25 873.62 L988.73 875.49 L999.19 881.02 L1002.25 883.29 L1003.53 883.78 L1003.72 886.15 L1003.92 889.50 L1003.53 891.57 L1004.12 893.15 L1005.99 893.05 L1017.73 893.35 L1018.91 893.44 L1019.70 893.84 L1025.62 897.68 L1021.18 907.65 L1021.08 906.76 L1020.69 906.36 L1020.39 906.07 L1020.20 905.77 L1020.00 905.28 L1019.90 904.88 L1019.80 904.49 L1019.70 903.90 L1019.70 903.31 L1019.60 902.71 L1019.60 900.15 L1019.60 899.76 L1019.50 899.36 L1019.31 898.97 L1019.11 898.67 L1018.72 898.38 L1018.32 898.08 L1017.93 897.98 L1017.53 897.88 L1017.14 897.88 L1016.74 897.88 L1012.90 897.98 L1013.09 901.33 L1013.19 902.81 L1013.19 905.28 L1013.09 906.27 L1013.00 907.15 L1012.80 907.94 L1012.31 909.13 L1002.94 905.57 L1001.16 904.88 L999.78 904.49 L998.40 904.10 L997.02 903.70 L995.74 903.50 L994.95 903.31 L992.28 902.81 L987.94 902.22 L982.62 901.43 L979.66 903.70 L979.17 904.00 L978.08 908.04 L976.21 909.03 L973.45 911.49 L969.01 911.00 L967.13 913.86 L966.94 913.86 L952.83 914.35 L952.73 914.25 L950.07 912.28 L945.34 910.41 L943.76 909.22 L938.93 907.55 L930.05 900.84 L926.11 900.84 L916.44 900.45 L915.85 899.95 L915.65 899.85 L914.96 899.36 L913.68 898.77 L912.79 897.98 L912.59 897.78 L910.52 897.09 L909.54 897.39 L908.35 898.38 L907.46 898.57 L907.07 898.67 L906.38 898.28 L904.60 896.90 L901.94 894.63 L901.55 894.23 L899.38 892.75 L897.11 891.96 L896.32 891.37 L895.73 890.98 L892.97 889.40 L891.78 888.81 L890.80 887.72 L890.01 887.23 L889.81 887.13 L888.33 886.64 L887.44 887.13 L886.85 887.92 L885.47 888.32 L884.98 888.41 L883.20 887.92 L882.12 887.33 L881.13 886.64 L880.34 885.46 L879.36 883.48 L878.07 880.92 L877.98 880.72 L876.59 879.44 L875.31 878.95 L875.12 878.95 L874.13 879.14 L872.85 879.93 L870.58 881.12 L868.31 882.20 L867.23 882.40 L865.75 880.82 L864.96 879.34 L864.17 876.78 L863.67 876.68 L862.98 876.58 L862.98 876.97 L863.08 878.06 L863.18 878.85 L863.38 879.54 L863.87 880.52 L864.36 881.31 L864.96 881.90 L865.25 882.20 L865.35 882.50 L865.45 882.79 L865.84 883.68 L866.24 883.78 L867.62 884.17 L870.09 883.68 L872.06 883.19 L873.44 883.19 L874.13 883.48 L874.72 884.17 L875.41 885.16 L875.51 885.95 L876.20 889.20 L876.99 893.44 L876.69 894.33 L876.50 895.02 L874.42 896.30 L872.26 896.99 L871.76 897.09 L869.39 897.29 L866.44 896.60 L864.27 895.32 L862.39 894.04 L860.03 892.26 L857.46 891.87 L855.69 891.57 L853.32 891.96 L851.84 892.56 L851.44 892.65 L850.46 893.05 L848.98 893.44 L847.50 893.25 L846.12 892.85 L844.64 891.96 L841.09 888.81 L840.10 887.23 L839.22 884.67 L839.02 883.78 L838.92 883.09 L838.82 882.40 L838.92 880.62 L838.82 879.44 L838.62 878.85 L838.43 878.55 L835.86 877.07 L835.17 876.97 L834.48 877.17 L833.59 877.66 L832.80 877.76 L832.11 877.57 L829.25 876.28 L828.27 876.09 L827.58 876.38 L826.39 877.96 L825.41 879.64 L824.91 880.13 L823.34 880.62 L820.48 881.21 L819.29 881.61 L816.83 882.40 L816.33 882.69 L815.45 883.58 L814.36 884.76 L813.77 885.06 L811.99 885.46 L810.71 885.26 L808.84 883.38 L806.18 881.41 L805.58 881.31 L800.85 880.72 L798.48 881.71 L795.03 882.00 L788.42 881.21 L783.20 881.21 L781.03 879.93 L780.73 879.74 L780.33 879.54 L777.38 879.04 L775.01 877.07 L773.73 874.11 L773.04 873.82 L769.68 873.23 L767.22 874.21 L764.26 874.11 L763.08 873.62 L760.12 873.13 L755.58 872.73 L750.65 873.23 L743.84 873.23 L739.40 872.44 L739.50 878.85 L739.60 878.75 L739.80 878.75 L740.10 878.85 L740.69 878.85 L744.34 879.44 L759.33 881.51 L762.19 882.00 L774.42 883.68 L776.19 883.98 L780.53 884.47 L787.73 885.65 L788.23 885.65 L788.42 885.65 L788.72 885.75 L789.90 885.95 L789.90 886.15 L789.70 887.43 L789.70 888.32 L789.31 890.58 L793.65 890.98 L793.55 891.27 L792.96 894.92 L792.96 895.32 L792.86 896.50 L792.66 897.09 L792.27 899.76 L791.97 900.74 L791.68 901.24 L790.79 902.42 L790.10 903.41 L789.61 904.39 L789.41 904.79 L791.78 905.18 L794.64 909.82 L788.62 909.03 L788.62 909.62 L788.52 910.11 L789.51 910.31 L790.49 910.41 L790.30 911.79 L789.90 914.45 L788.62 923.72 L787.93 929.54 L787.44 932.50 L785.66 946.11 L785.07 952.22 L785.07 952.42 L784.58 955.38 L784.18 957.85 L783.98 958.83 L783.79 960.90 L783.00 967.81 L781.91 975.50 L781.22 980.23 L780.83 983.78 L780.43 987.04 L780.04 989.41 L779.94 990.39 L779.15 996.41 L779.05 997.59 L778.95 998.09 L778.86 999.17 L778.66 1000.16 L778.66 1000.55 L777.77 1007.55 L776.78 1014.75 L774.91 1029.35 L773.14 1042.27 L773.04 1043.35 L772.94 1043.85 L772.94 1044.34 L772.25 1049.07 L770.97 1058.64 L770.27 1064.07 L769.39 1070.97 L769.09 1073.43 L768.30 1079.65 L768.01 1081.72 L767.91 1082.31 L767.81 1083.59 L767.41 1085.96 L767.32 1086.75 L767.22 1087.54 L767.12 1088.52 L766.92 1089.61 L766.63 1092.07 L766.23 1095.33 L765.15 1103.61 L764.85 1105.19 L764.65 1106.97 L763.27 1117.72 L763.08 1118.90 L761.89 1128.17 L761.60 1130.74 L761.50 1130.93 L761.40 1131.72 L761.30 1132.81 L760.71 1137.54 L760.12 1141.78 L759.82 1144.05 L759.13 1149.28 L758.74 1152.43 L757.95 1158.15 L757.85 1159.14 L756.37 1170.09 L756.17 1171.96 L755.78 1174.82 L755.58 1176.20 L755.58 1176.60 L755.38 1177.68 L754.40 1185.47 L753.21 1194.05 L751.54 1206.97 L750.45 1214.86 L750.35 1216.05 L750.25 1217.13 L749.86 1220.39 L746.80 1243.66 L746.21 1247.90 L744.14 1263.19 L744.04 1264.47 L743.84 1265.65 L743.25 1269.50 L740.39 1291.10 L740.29 1291.69 L740.10 1292.97 L739.90 1294.26 L739.90 1294.45 L739.50 1297.02 L738.71 1302.93 L738.42 1305.70 L738.32 1306.88 L738.22 1307.57 L738.52 1307.47 L738.81 1307.27 L739.11 1306.88 L740.79 1303.82 L741.57 1302.74 L741.97 1302.34 L746.41 1292.48 L747.49 1292.58 L748.87 1292.78 L754.20 1293.47 L755.58 1293.76 L758.93 1294.45 L760.22 1294.85 L761.79 1295.34 L763.47 1295.93 L765.54 1296.92 L768.30 1298.40 L769.19 1298.89 L766.13 1303.92 L764.26 1309.25 L763.37 1312.99 L762.48 1316.55 L760.81 1319.01 L758.24 1320.10 L755.09 1319.70 L752.23 1318.91 L749.76 1317.43 L747.00 1315.85 L742.96 1314.47 L742.26 1314.28 L740.88 1313.78 L738.81 1313.09 L738.42 1312.99 L737.63 1312.80 L737.53 1312.80 L737.24 1312.60 L737.14 1312.90 L736.94 1313.49 L736.74 1314.18 L736.25 1315.36 L735.26 1317.24 L734.77 1318.02 L734.37 1318.71 L732.11 1321.97 L730.23 1324.73 L728.16 1327.69 L726.88 1329.66 L725.10 1332.03 L722.74 1335.48 L723.23 1336.76 L728.26 1347.91 L730.63 1352.94 L731.61 1355.11 L732.11 1356.19 L732.60 1357.47 L730.63 1358.66 L726.98 1360.73 L721.75 1363.79 L718.30 1365.76 L714.45 1368.22 L709.72 1371.38 L704.20 1375.13 L699.95 1378.09 L697.88 1379.47 L696.01 1380.65 L695.22 1381.05 L690.29 1384.00 L682.99 1388.34 L679.64 1390.32 L675.00 1392.98 L671.25 1395.15 L660.70 1401.46 L653.60 1405.50 L651.63 1406.69 L648.37 1408.56 L645.31 1410.44 L639.89 1413.59 L639.50 1413.79 L633.58 1417.44 L632.59 1418.03 L626.67 1421.48 L619.38 1425.82 L617.50 1426.81 L613.16 1429.37 L611.09 1430.56 L610.40 1430.95 L597.78 1438.35 L583.18 1446.83 L581.01 1448.11 L576.57 1450.77 L558.82 1462.02 L556.95 1463.10 L548.07 1467.64 L537.02 1473.85 L503.79 1493.38 L501.32 1494.96 L492.34 1500.68 L485.84 1506.69 L480.12 1511.63 L471.53 1516.95 L458.32 1524.64 L454.37 1526.71 L440.07 1534.01 L432.77 1536.97 L427.45 1537.86 L423.70 1539.93 L419.26 1542.49 L416.70 1544.07 L416.40 1544.37 L412.46 1546.83 L410.58 1548.02 L408.41 1549.50 L407.23 1550.19 L406.84 1550.38 L406.05 1550.88 L403.09 1552.55 L403.28 1551.08 L403.38 1550.48 L403.48 1549.40 L403.68 1546.14 L403.38 1544.17 L390.46 1550.58 L384.55 1553.15 L375.08 1556.80 L371.82 1558.47 L370.15 1559.06 L368.08 1559.75 L357.42 1563.01 L345.98 1565.87 L338.59 1567.74 L338.59 1567.74 Z" stroke-linejoin="round"/>
	</defs>
	<use xlink:href="#path_TvMBIkLB" style="fill:#09757A;stroke:#00465F;stroke-width:5.76"/>
</svg>
