<?xml version="1.0" encoding="UTF-8" standalone="no"?>
<!-- This is a Stata 16.1 generated SVG file (http://www.stata.com) -->

<svg version="1.1" width="5.33in" height="4.00in" viewBox="0 0 3838 2880" xmlns="http://www.w3.org/2000/svg" xmlns:xlink="http://www.w3.org/1999/xlink">
	<desc>Stata Graph - Graph</desc>
	<rect x="0" y="0" width="3838" height="2880" style="fill:#FFFFFF;stroke:none"/>
	<defs>
		<path id="path_gAssdIrQ" d="M1404.83 2782.12 L1404.83 2782.12 L1398.47 2800.47 L1387.20 2839.82 L1385.16 2842.46 L1384.44 2843.78 L1384.32 2845.69 L1383.48 2848.33 L1382.52 2850.13 L1381.56 2851.21 L1380.60 2851.81 L1379.76 2851.81 L1380.12 2842.46 L1381.20 2834.06 L1381.44 2828.30 L1381.20 2824.34 L1380.48 2819.67 L1378.92 2813.43 L1377.00 2808.03 L1371.85 2795.68 L1369.33 2790.28 L1368.73 2788.24 L1368.25 2785.36 L1368.25 2777.32 L1368.97 2761.73 L1368.37 2752.25 L1366.21 2735.10 L1363.69 2722.27 L1357.69 2694.20 L1352.06 2662.29 L1350.14 2641.42 L1350.14 2639.14 L1350.74 2635.78 L1351.94 2633.50 L1353.49 2631.70 L1356.85 2628.94 L1360.57 2626.43 L1364.89 2623.79 L1386.24 2609.63 L1395.59 2603.04 L1401.23 2598.96 L1397.87 2592.60 L1396.07 2589.60 L1395.23 2588.28 L1391.63 2582.88 L1380.00 2565.97 L1374.48 2558.17 L1369.21 2550.14 L1364.77 2543.06 L1360.81 2536.46 L1359.01 2533.22 L1353.37 2523.15 L1351.70 2520.27 L1350.14 2517.51 L1349.18 2516.07 L1347.86 2514.39 L1347.02 2513.19 L1345.82 2511.75 L1343.06 2508.75 L1339.94 2505.64 L1336.70 2502.16 L1333.70 2498.32 L1331.55 2495.20 L1329.27 2491.60 L1326.51 2486.80 L1323.39 2481.17 L1319.79 2474.09 L1316.67 2468.21 L1314.63 2465.09 L1312.36 2461.97 L1309.00 2457.90 L1306.36 2454.90 L1301.08 2449.14 L1296.28 2443.86 L1293.65 2440.74 L1291.97 2438.82 L1291.01 2437.62 L1288.01 2433.91 L1286.21 2431.87 L1284.17 2429.71 L1281.65 2427.19 L1280.09 2425.39 L1279.37 2424.43 L1278.41 2423.35 L1276.49 2420.83 L1274.34 2417.35 L1272.30 2413.99 L1269.78 2409.68 L1268.10 2407.04 L1266.54 2405.00 L1263.66 2401.64 L1260.78 2398.64 L1253.95 2393.12 L1245.31 2385.93 L1238.47 2380.53 L1235.36 2378.25 L1232.24 2376.21 L1227.56 2373.69 L1220.96 2369.85 L1215.57 2367.09 L1211.37 2364.57 L1208.73 2362.78 L1204.77 2360.14 L1201.53 2357.62 L1196.74 2353.42 L1185.58 2344.06 L1180.42 2339.27 L1178.63 2337.59 L1175.99 2334.71 L1174.31 2332.79 L1173.47 2331.35 L1171.07 2327.27 L1170.11 2325.59 L1168.07 2321.51 L1166.39 2317.31 L1165.43 2314.80 L1160.52 2316.71 L1158.24 2317.55 L1154.16 2319.23 L1150.20 2321.27 L1146.48 2323.19 L1141.81 2325.59 L1136.89 2327.99 L1115.42 2251.10 L1123.93 2248.70 L1146.84 2243.79 L1146.24 2241.63 L1145.40 2239.35 L1143.96 2235.63 L1143.12 2233.83 L1141.81 2231.67 L1140.37 2229.75 L1137.61 2226.75 L1134.13 2223.27 L1129.69 2218.72 L1127.77 2216.44 L1126.45 2214.64 L1123.21 2209.84 L1118.90 2203.12 L1115.42 2198.32 L1105.58 2185.13 L1102.11 2180.93 L1092.27 2170.50 L1080.88 2157.78 L1074.04 2149.50 L1071.28 2145.79 L1069.36 2142.43 L1068.16 2138.71 L1067.32 2134.39 L1066.96 2126.95 L1067.56 2119.04 L1067.68 2114.96 L1067.68 2112.56 L1067.32 2110.88 L1066.48 2109.08 L1065.16 2107.40 L1063.61 2105.72 L1058.69 2099.73 L1057.85 2098.53 L1057.13 2097.21 L1056.41 2095.41 L1055.81 2092.65 L1055.33 2088.69 L1049.69 2088.81 L1046.21 2088.81 L1045.14 2088.81 L1043.22 2088.81 L1039.02 2088.69 L1034.70 2088.45 L1031.10 2088.33 L1026.66 2087.97 L1023.55 2087.61 L1019.83 2087.25 L1015.39 2086.65 L1004.36 2084.73 L988.40 2081.85 L987.33 2081.61 L977.85 2079.81 L961.66 2076.57 L940.43 2072.50 L920.16 2068.66 L905.89 2065.90 L904.93 2062.66 L899.65 2061.58 L894.25 2060.38 L888.86 2058.82 L883.46 2057.38 L878.42 2055.58 L870.63 2052.70 L860.43 2048.63 L855.27 2046.59 L842.44 2041.67 L839.80 2040.59 L837.16 2039.63 L834.76 2038.91 L831.89 2038.07 L828.65 2037.35 L827.21 2037.11 L824.33 2036.63 L821.21 2036.39 L818.57 2036.27 L814.74 2036.39 L810.90 2036.75 L808.02 2037.23 L805.14 2037.71 L802.86 2038.19 L800.22 2038.91 L797.58 2039.87 L795.31 2040.71 L793.15 2041.43 L783.19 2045.39 L781.99 2041.79 L777.67 2028.47 L775.64 2021.88 L774.80 2018.52 L774.08 2014.44 L773.48 2007.96 L773.96 2002.21 L774.68 1995.97 L775.40 1992.61 L777.91 1983.73 L779.83 1978.10 L783.19 1969.70 L784.75 1966.82 L788.59 1960.22 L793.75 1951.59 L795.19 1948.83 L796.74 1943.67 L797.58 1937.43 L797.70 1932.03 L796.98 1927.36 L795.07 1921.48 L792.43 1916.56 L794.59 1915.00 L796.74 1913.44 L799.14 1912.24 L801.54 1911.40 L803.82 1910.80 L806.58 1910.44 L810.30 1910.44 L820.85 1910.80 L825.41 1911.04 L824.69 1871.94 L823.49 1836.07 L823.25 1829.24 L823.25 1825.28 L823.25 1822.28 L823.37 1819.76 L823.61 1817.60 L823.85 1815.68 L824.21 1813.88 L824.69 1812.20 L825.29 1810.17 L826.01 1808.49 L827.09 1805.97 L827.93 1803.93 L828.77 1802.01 L829.61 1800.09 L830.21 1798.53 L831.17 1795.65 L831.65 1793.85 L832.01 1792.29 L832.13 1790.13 L832.25 1788.69 L832.25 1786.18 L832.25 1784.74 L832.01 1782.58 L831.53 1778.98 L830.93 1776.94 L830.57 1775.74 L829.97 1774.06 L829.61 1772.86 L828.77 1770.94 L828.05 1769.26 L826.85 1766.86 L820.97 1753.79 L812.94 1758.23 L812.46 1758.47 L810.90 1759.31 L808.50 1760.75 L805.86 1762.31 L803.82 1763.39 L803.46 1763.51 L801.18 1764.70 L798.30 1766.38 L796.74 1767.22 L794.11 1768.66 L791.83 1769.86 L789.67 1770.94 L787.15 1772.26 L782.95 1774.42 L778.03 1776.82 L771.68 1780.18 L766.76 1782.82 L762.08 1785.10 L759.08 1786.66 L756.09 1788.21 L753.09 1789.77 L749.01 1791.57 L745.65 1793.01 L743.13 1793.97 L740.13 1795.05 L736.54 1796.25 L733.54 1797.33 L730.30 1798.41 L723.94 1800.33 L719.74 1801.53 L713.99 1802.97 L713.15 1803.21 L709.31 1803.93 L703.67 1805.25 L697.56 1806.69 L688.68 1808.73 L683.76 1809.93 L678.49 1811.13 L671.77 1812.56 L667.93 1813.52 L666.01 1814.12 L647.54 1818.80 L645.98 1819.28 L625.95 1823.84 L619.24 1825.40 L617.80 1825.76 L616.48 1826.00 L608.32 1828.04 L592.85 1831.64 L580.50 1834.40 L569.46 1837.03 L567.30 1837.63 L561.55 1839.43 L550.03 1843.63 L546.80 1844.83 L546.56 1842.43 L546.44 1840.87 L549.67 1839.91 L548.23 1838.47 L559.99 1831.16 L615.28 1814.96 L617.20 1812.20 L616.12 1796.25 L615.64 1787.14 L616.60 1780.66 L617.32 1775.50 L619.12 1766.38 L625.59 1742.03 L628.47 1727.04 L629.31 1719.36 L629.43 1714.09 L629.19 1703.65 L627.87 1634.44 L626.91 1613.57 L626.67 1609.49 L625.95 1603.85 L625.23 1599.65 L622.48 1588.02 L621.28 1584.42 L605.80 1546.64 L602.45 1538.84 L599.33 1531.40 L593.33 1515.81 L591.05 1510.17 L590.45 1508.25 L589.61 1506.45 L590.81 1505.85 L603.29 1499.62 L619.72 1491.46 L644.18 1479.94 L650.54 1477.54 L664.09 1470.71 L677.29 1464.83 L678.01 1464.59 L692.64 1459.67 L722.74 1442.76 L763.76 1422.49 L764.12 1421.53 L792.91 1407.97 L828.41 1390.94 L834.29 1387.82 L837.40 1386.86 L838.24 1385.66 L839.20 1385.18 L841.24 1384.82 L858.03 1376.07 L872.31 1369.11 L907.93 1351.84 L920.16 1345.84 L936.11 1338.04 L943.67 1334.44 L1019.23 1297.50 L1060.13 1277.47 L1119.62 1248.44 L1134.37 1241.00 L1137.61 1239.80 L1152.60 1234.29 L1163.39 1228.89 L1253.11 1184.39 L1273.74 1175.03 L1273.74 1173.59 L1275.78 1174.19 L1276.37 1174.91 L1278.41 1176.35 L1283.81 1179.35 L1289.09 1181.75 L1290.29 1181.15 L1284.77 1178.03 L1282.37 1176.71 L1280.09 1175.51 L1292.69 1169.27 L1341.62 1145.64 L1368.13 1132.93 L1389.84 1122.25 L1394.51 1119.97 L1403.51 1115.66 L1411.90 1111.46 L1424.14 1105.34 L1435.77 1099.82 L1439.73 1097.78 L1443.57 1095.86 L1450.28 1092.38 L1464.80 1085.19 L1468.63 1083.27 L1471.75 1078.23 L1471.15 1077.27 L1471.15 1076.55 L1475.71 1074.39 L1516.37 1055.32 L1547.07 1041.53 L1553.79 1038.89 L1557.63 1040.09 L1559.67 1040.81 L1565.06 1043.57 L1568.30 1044.88 L1576.82 1047.76 L1577.06 1045.84 L1578.02 1040.45 L1578.14 1036.37 L1578.14 1033.61 L1577.66 1030.49 L1576.34 1027.73 L1603.56 1014.18 L1634.27 998.22 L1636.67 997.14 L1656.10 988.39 L1700.11 968.12 L1724.70 955.40 L1746.53 944.97 L1812.50 913.42 L1825.69 907.66 L1849.20 894.59 L1849.44 893.27 L1870.31 845.53 L1887.70 849.25 L1889.02 849.61 L1896.21 852.12 L1900.89 852.60 L1912.64 851.89 L1917.92 850.93 L1922.36 849.13 L1948.62 833.65 L1950.78 832.33 L1978.25 818.78 L1981.37 817.58 L1989.88 814.22 L1992.04 813.26 L1994.80 812.06 L1996.84 811.10 L1998.28 810.50 L2001.40 809.78 L2002.84 804.14 L2004.28 798.27 L2007.03 790.35 L2009.19 784.71 L2010.99 780.03 L2014.23 771.52 L2016.15 767.20 L2018.79 761.32 L2026.94 741.17 L2029.22 734.45 L2031.14 729.18 L2033.54 721.14 L2037.98 706.75 L2039.30 702.19 L2041.70 694.39 L2043.50 688.87 L2046.13 681.92 L2047.69 677.96 L2049.97 673.04 L2053.57 666.20 L2056.93 660.44 L2058.97 657.21 L2061.01 653.97 L2062.93 651.09 L2064.72 648.45 L2068.44 642.93 L2072.76 636.93 L2078.28 629.26 L2083.07 622.42 L2087.27 616.78 L2091.83 610.55 L2097.11 603.11 L2104.18 593.03 L2113.90 579.36 L2119.30 571.68 L2122.29 567.24 L2126.01 561.85 L2128.65 557.89 L2131.65 553.45 L2133.69 550.81 L2135.37 548.41 L2138.25 544.69 L2139.57 543.13 L2141.24 541.45 L2143.52 539.06 L2148.92 533.90 L2153.12 529.58 L2157.20 525.02 L2160.79 521.54 L2164.63 518.06 L2168.71 514.83 L2173.63 511.23 L2176.03 509.43 L2179.14 507.27 L2185.14 503.67 L2200.85 494.43 L2202.29 493.47 L2203.25 492.63 L2205.41 492.63 L2205.77 492.39 L2218.36 483.52 L2220.64 481.96 L2222.92 480.52 L2224.36 479.92 L2225.20 479.80 L2225.68 479.68 L2227.36 479.80 L2229.28 480.28 L2231.56 481.12 L2233.96 482.44 L2237.55 484.48 L2239.95 485.68 L2237.79 492.15 L2233.12 505.47 L2229.52 515.67 L2228.20 519.14 L2226.40 523.82 L2222.32 534.38 L2221.72 535.70 L2220.52 538.94 L2219.08 542.53 L2218.12 545.17 L2217.52 546.97 L2216.80 549.61 L2216.21 552.61 L2213.69 569.16 L2213.57 573.00 L2213.45 576.12 L2213.33 577.80 L2213.21 580.32 L2213.45 582.84 L2213.69 587.04 L2213.69 588.35 L2213.69 597.83 L2213.69 603.83 L2214.05 608.39 L2214.65 612.70 L2215.49 617.02 L2216.33 620.26 L2217.76 624.34 L2219.32 628.42 L2221.24 632.26 L2223.40 635.98 L2225.80 639.57 L2228.44 642.93 L2231.20 646.17 L2234.32 649.05 L2237.55 651.81 L2240.91 654.21 L2244.39 656.49 L2248.11 658.41 L2251.95 660.08 L2255.54 661.64 L2264.06 663.56 L2270.54 664.76 L2275.81 665.48 L2281.93 665.84 L2288.41 665.96 L2294.88 665.60 L2300.64 665.00 L2309.52 669.56 L2310.24 670.16 L2312.51 669.92 L2315.51 670.04 L2323.55 666.08 L2373.68 643.41 L2371.88 642.81 L2368.89 642.57 L2397.31 629.02 L2402.59 626.38 L2408.11 623.50 L2415.18 619.78 L2423.34 615.58 L2428.61 612.70 L2441.45 605.39 L2454.16 598.07 L2462.08 593.03 L2474.19 585.36 L2496.74 570.00 L2499.50 568.08 L2508.13 562.09 L2514.01 558.01 L2518.81 554.89 L2526.96 549.13 L2536.56 542.65 L2544.83 537.14 L2546.87 540.49 L2549.27 544.93 L2546.99 550.45 L2547.35 576.60 L2543.99 576.72 L2540.76 576.96 L2539.08 584.52 L2537.76 586.20 L2538.96 592.67 L2539.92 598.67 L2538.96 659.73 L2541.96 661.64 L2547.23 664.76 L2548.55 651.21 L2550.47 655.05 L2552.27 662.00 L2552.75 668.12 L2551.67 674.96 L2550.83 679.64 L2555.75 678.32 L2558.15 679.40 L2573.98 683.96 L2581.41 688.39 L2616.68 680.60 L2636.83 677.48 L2639.10 676.52 L2663.57 675.08 L2669.81 674.84 L2673.89 674.36 L2675.45 678.32 L2721.98 674.00 L2722.82 677.48 L2723.06 688.27 L2722.58 699.07 L2721.74 707.47 L2721.14 709.02 L2719.46 710.82 L2718.50 712.74 L2718.98 715.62 L2720.42 718.86 L2721.98 724.02 L2721.86 725.70 L2720.90 727.26 L2718.14 729.42 L2717.54 730.50 L2717.54 732.05 L2717.78 734.45 L2717.78 737.57 L2719.10 739.37 L2720.42 742.73 L2722.58 750.17 L2723.18 751.73 L2724.02 752.69 L2724.62 753.41 L2727.74 755.09 L2729.06 755.81 L2743.69 750.05 L2750.53 747.41 L2754.60 745.85 L2759.28 744.05 L2770.08 739.73 L2773.07 738.53 L2778.11 736.61 L2786.75 733.25 L2792.14 731.22 L2799.34 728.46 L2806.66 725.70 L2808.70 724.98 L2813.85 723.06 L2819.85 720.78 L2829.81 717.18 L2834.60 715.38 L2840.12 713.34 L2845.88 711.18 L2851.03 710.34 L2853.07 710.22 L2854.75 710.46 L2855.71 711.54 L2856.19 712.50 L2858.95 710.70 L2860.39 710.94 L2861.59 711.06 L2863.39 710.94 L2865.19 710.34 L2867.47 709.38 L2864.47 712.74 L2863.63 713.70 L2862.55 714.78 L2861.35 716.34 L2860.75 717.90 L2856.67 734.21 L2855.83 737.45 L2853.43 746.45 L2852.71 749.45 L2851.87 752.69 L2853.67 756.28 L2854.15 758.32 L2853.91 759.64 L2850.43 782.19 L2849.72 786.99 L2849.48 788.19 L2853.43 791.91 L2854.27 792.63 L2857.87 795.51 L2860.03 796.71 L2863.75 798.39 L2865.55 800.43 L2866.51 802.71 L2870.10 812.90 L2871.30 814.70 L2872.50 816.02 L2873.94 816.50 L2877.30 816.86 L2879.70 816.38 L2878.86 819.74 L2879.10 820.70 L2880.66 822.38 L2881.86 824.42 L2882.58 827.30 L2882.58 828.01 L2881.26 830.41 L2880.06 831.97 L2879.70 832.93 L2879.58 834.01 L2880.30 836.41 L2881.02 837.25 L2882.10 837.25 L2884.02 835.57 L2885.70 835.33 L2886.18 835.45 L2886.78 835.69 L2889.89 838.09 L2890.37 838.69 L2890.73 840.13 L2890.49 841.69 L2889.77 844.45 L2889.41 847.09 L2889.05 847.69 L2887.14 848.89 L2886.78 849.37 L2886.66 850.93 L2887.86 856.08 L2887.62 857.64 L2887.74 859.92 L2887.50 862.44 L2886.78 863.16 L2886.54 864.00 L2886.54 864.96 L2887.14 866.28 L2889.05 869.04 L2890.25 871.08 L2890.97 873.36 L2891.45 877.31 L2891.45 878.27 L2891.21 884.15 L2890.85 887.99 L2890.73 888.83 L2890.49 890.03 L2889.65 893.87 L2886.54 903.94 L2883.90 910.06 L2883.30 911.50 L2881.86 914.14 L2879.82 915.22 L2878.86 915.94 L2877.54 918.22 L2877.18 918.82 L2876.46 920.02 L2874.90 923.26 L2874.30 926.13 L2873.46 930.09 L2873.70 940.41 L2873.46 942.33 L2873.10 943.17 L2872.74 949.28 L2873.22 957.32 L2873.10 957.56 L2872.86 959.48 L2872.38 960.32 L2870.58 962.24 L2869.86 963.68 L2868.67 967.64 L2867.59 968.48 L2866.51 970.40 L2864.95 975.19 L2864.35 978.07 L2864.23 978.19 L2862.07 981.43 L2859.79 988.51 L2859.91 989.71 L2861.95 995.95 L2862.31 998.10 L2862.31 999.18 L2860.75 1004.10 L2859.31 1010.70 L2858.95 1014.06 L2860.03 1019.94 L2851.63 1025.33 L2850.31 1027.01 L2845.76 1029.65 L2838.32 1031.93 L2836.04 1032.53 L2832.92 1032.89 L2824.65 1033.61 L2810.26 1034.09 L2804.98 1034.69 L2803.78 1035.29 L2800.30 1039.01 L2792.03 1045.84 L2790.71 1046.92 L2784.95 1051.24 L2783.87 1052.56 L2783.15 1055.56 L2781.35 1057.48 L2779.07 1058.92 L2777.39 1061.08 L2776.67 1062.76 L2777.27 1065.04 L2777.99 1066.84 L2778.11 1067.80 L2777.51 1069.47 L2776.79 1070.07 L2775.47 1070.55 L2771.76 1071.15 L2770.80 1070.79 L2769.96 1069.95 L2769.48 1069.71 L2767.44 1068.75 L2764.56 1069.11 L2763.96 1069.47 L2763.72 1069.95 L2763.72 1071.15 L2764.80 1073.91 L2764.68 1074.51 L2764.32 1074.87 L2756.16 1077.75 L2753.88 1078.47 L2748.13 1079.43 L2746.57 1079.19 L2744.89 1079.43 L2743.09 1080.51 L2741.41 1082.43 L2739.85 1084.71 L2738.29 1085.91 L2737.21 1086.15 L2735.65 1085.43 L2735.05 1084.23 L2734.46 1083.51 L2732.54 1083.39 L2731.46 1083.27 L2728.58 1081.47 L2727.14 1081.35 L2724.02 1081.95 L2720.06 1084.47 L2718.14 1085.91 L2716.94 1086.51 L2715.74 1086.87 L2715.27 1087.23 L2715.15 1088.55 L2715.74 1090.23 L2716.46 1091.79 L2716.22 1092.74 L2715.39 1093.10 L2712.15 1093.10 L2709.87 1092.38 L2702.19 1092.26 L2700.27 1093.22 L2699.55 1093.82 L2698.59 1094.30 L2696.91 1094.66 L2692.84 1094.78 L2690.80 1094.90 L2685.64 1094.18 L2680.60 1093.58 L2676.53 1093.34 L2673.89 1093.46 L2672.33 1093.70 L2669.81 1095.02 L2664.89 1099.70 L2664.53 1100.06 L2663.93 1101.50 L2663.81 1102.34 L2664.17 1103.54 L2666.09 1104.74 L2666.69 1105.46 L2666.93 1106.54 L2667.05 1107.86 L2666.57 1109.42 L2662.97 1111.70 L2661.77 1112.54 L2660.33 1113.98 L2659.25 1116.85 L2658.17 1118.65 L2656.50 1119.37 L2651.10 1121.05 L2648.94 1122.13 L2647.74 1122.25 L2646.06 1121.89 L2632.75 1116.73 L2621.11 1113.14 L2617.16 1112.54 L2604.92 1112.42 L2595.81 1113.26 L2591.25 1114.46 L2588.25 1116.13 L2584.89 1117.57 L2581.77 1118.89 L2578.90 1120.45 L2577.58 1121.29 L2575.18 1122.37 L2572.42 1122.85 L2570.02 1123.81 L2568.46 1125.49 L2565.46 1128.85 L2563.66 1130.29 L2559.35 1131.97 L2557.67 1132.81 L2565.94 1163.64 L2574.46 1158.84 L2582.61 1155.60 L2584.65 1154.76 L2587.77 1154.40 L2588.97 1154.64 L2589.93 1155.24 L2590.77 1156.20 L2592.21 1160.28 L2593.41 1164.71 L2593.77 1166.27 L2593.77 1167.71 L2593.77 1169.15 L2594.01 1170.71 L2595.57 1173.95 L2596.65 1176.47 L2602.28 1196.38 L2602.88 1199.98 L2602.64 1202.38 L2601.20 1204.18 L2596.77 1206.58 L2590.05 1210.18 L2588.61 1210.90 L2587.05 1211.74 L2580.10 1215.57 L2576.74 1218.21 L2573.74 1222.77 L2572.30 1226.85 L2571.82 1232.97 L2570.74 1237.04 L2568.82 1241.96 L2568.46 1243.52 L2567.14 1248.80 L2566.66 1253.00 L2567.38 1258.28 L2566.42 1259.48 L2566.30 1260.31 L2570.14 1260.31 L2598.81 1255.52 L2600.72 1265.23 L2608.16 1301.94 L2610.80 1315.01 L2599.77 1315.13 L2595.69 1315.13 L2593.29 1315.13 L2591.37 1315.13 L2579.38 1315.13 L2562.82 1315.37 L2562.82 1316.69 L2562.94 1318.13 L2572.78 1329.65 L2581.05 1328.09 L2583.09 1338.04 L2583.81 1341.16 L2584.41 1344.52 L2586.93 1358.43 L2593.05 1389.14 L2594.25 1395.86 L2596.53 1407.73 L2597.73 1413.25 L2598.93 1420.57 L2602.04 1437.24 L2604.68 1451.28 L2605.64 1456.67 L2611.64 1486.90 L2614.64 1499.62 L2616.80 1509.69 L2618.72 1519.05 L2619.20 1521.93 L2619.79 1524.92 L2621.35 1533.56 L2596.53 1542.56 L2558.51 1550.35 L2560.79 1572.30 L2562.58 1572.18 L2563.18 1576.02 L2603.48 1569.07 L2604.20 1578.06 L2604.80 1584.78 L2601.80 1590.06 L2600.36 1595.22 L2600.96 1600.97 L2601.44 1606.37 L2604.44 1634.32 L2606.84 1641.88 L2608.16 1643.80 L2610.56 1647.27 L2609.96 1651.83 L2608.52 1660.47 L2607.68 1665.03 L2605.88 1671.26 L2603.84 1679.30 L2603.00 1683.38 L2601.92 1690.70 L2601.44 1696.69 L2601.56 1701.25 L2602.04 1706.29 L2602.28 1711.21 L2602.04 1715.05 L2601.44 1721.76 L2600.48 1728.48 L2599.65 1735.20 L2599.17 1741.55 L2594.85 1775.74 L2592.57 1793.73 L2591.37 1802.85 L2590.41 1808.85 L2590.17 1811.13 L2590.05 1812.56 L2590.05 1815.80 L2590.05 1817.00 L2590.29 1819.40 L2590.77 1821.08 L2592.21 1824.56 L2586.69 1830.32 L2577.22 1840.15 L2572.78 1844.47 L2569.30 1847.59 L2566.54 1849.99 L2564.02 1851.91 L2561.39 1853.83 L2558.51 1855.63 L2552.51 1859.23 L2547.35 1862.34 L2543.39 1864.74 L2540.40 1866.54 L2529.12 1873.26 L2522.41 1876.98 L2508.49 1884.89 L2504.30 1887.29 L2499.26 1890.17 L2498.30 1890.65 L2497.10 1891.25 L2496.02 1891.49 L2493.86 1892.33 L2490.86 1893.53 L2489.18 1893.89 L2485.94 1894.49 L2481.99 1894.73 L2472.27 1894.73 L2467.35 1894.61 L2460.52 1894.37 L2448.28 1893.89 L2440.73 1893.41 L2434.61 1892.81 L2429.21 1892.09 L2424.30 1891.01 L2419.98 1889.81 L2415.42 1888.13 L2411.58 1886.57 L2408.34 1885.13 L2407.27 1884.53 L2403.19 1882.14 L2402.59 1881.78 L2398.03 1878.78 L2396.11 1877.58 L2387.60 1871.58 L2381.96 1867.62 L2375.72 1863.30 L2374.64 1862.70 L2370.80 1860.06 L2368.77 1858.87 L2365.77 1857.19 L2360.49 1854.55 L2355.21 1852.15 L2350.06 1850.35 L2344.30 1848.19 L2328.23 1842.43 L2317.19 1838.59 L2314.91 1837.75 L2311.68 1836.67 L2306.04 1834.88 L2306.40 1838.35 L2306.64 1840.87 L2307.00 1844.95 L2307.24 1847.35 L2308.08 1858.03 L2309.16 1869.90 L2311.80 1898.57 L2312.51 1907.93 L2313.23 1915.24 L2314.31 1929.52 L2314.67 1938.99 L2314.55 1942.59 L2314.55 1946.07 L2314.31 1949.31 L2314.19 1952.07 L2314.19 1954.83 L2313.95 1957.58 L2313.71 1960.94 L2313.47 1963.94 L2312.87 1967.66 L2312.28 1972.10 L2311.56 1977.74 L2310.72 1982.53 L2309.64 1988.05 L2307.72 1995.73 L2305.80 2003.65 L2303.28 2012.76 L2300.52 2020.56 L2298.60 2026.92 L2297.04 2031.71 L2295.60 2035.67 L2293.80 2041.79 L2292.25 2046.95 L2290.93 2052.22 L2289.97 2056.54 L2289.13 2060.14 L2288.53 2063.26 L2287.93 2067.10 L2287.33 2071.18 L2286.85 2075.50 L2286.49 2080.65 L2286.13 2087.73 L2285.89 2091.57 L2285.65 2096.01 L2285.29 2098.53 L2285.17 2102.60 L2284.69 2107.28 L2284.33 2111.36 L2284.09 2115.08 L2283.37 2120.84 L2282.65 2127.07 L2281.69 2134.03 L2280.85 2139.19 L2279.77 2145.19 L2278.21 2153.58 L2276.89 2161.62 L2274.85 2169.18 L2274.01 2171.22 L2273.18 2174.09 L2272.58 2176.97 L2271.14 2181.89 L2270.06 2186.45 L2268.98 2190.41 L2267.30 2196.04 L2265.02 2202.76 L2263.10 2208.52 L2261.30 2213.44 L2259.38 2219.44 L2257.94 2223.27 L2255.78 2227.71 L2252.31 2235.75 L2248.83 2243.67 L2245.71 2250.74 L2242.83 2256.74 L2242.11 2256.74 L2239.11 2258.30 L2236.71 2256.74 L2210.69 2302.32 L2142.20 2318.63 L2143.40 2323.43 L2101.30 2328.47 L2081.52 2370.69 L2048.41 2408.96 L1969.49 2405.24 L1968.89 2406.32 L1968.77 2408.84 L1969.49 2410.76 L1970.93 2411.60 L1972.01 2412.55 L1972.73 2415.43 L1972.73 2425.99 L1973.21 2434.87 L1972.25 2440.14 L1971.65 2441.10 L1970.33 2441.34 L1968.53 2441.22 L1966.38 2441.46 L1964.10 2442.54 L1962.66 2444.46 L1962.54 2446.02 L1963.50 2447.94 L1964.34 2448.78 L1964.70 2449.62 L1964.94 2451.54 L1964.70 2452.50 L1964.34 2453.10 L1963.02 2453.82 L1962.78 2454.30 L1963.14 2455.74 L1964.22 2458.98 L1964.22 2460.17 L1962.42 2461.73 L1961.58 2463.29 L1961.10 2464.97 L1961.46 2466.89 L1962.30 2468.57 L1963.26 2472.77 L1963.02 2474.57 L1962.30 2476.13 L1959.90 2478.53 L1958.34 2481.53 L1957.86 2483.93 L1958.46 2490.16 L1958.34 2491.36 L1957.74 2492.08 L1956.06 2491.84 L1954.74 2492.56 L1954.26 2496.88 L1953.66 2497.84 L1951.02 2498.44 L1950.42 2499.52 L1950.42 2502.04 L1950.78 2503.00 L1951.50 2503.72 L1952.82 2504.20 L1954.14 2505.52 L1955.10 2507.20 L1955.70 2509.11 L1956.66 2511.15 L1959.06 2513.43 L1959.54 2515.23 L1959.66 2518.23 L1960.62 2521.35 L1961.94 2524.95 L1962.78 2526.63 L1965.30 2529.63 L1965.66 2531.55 L1965.66 2534.06 L1966.14 2537.18 L1967.21 2540.18 L1967.81 2543.30 L1967.81 2550.38 L1967.09 2552.18 L1966.14 2553.74 L1964.82 2554.46 L1963.50 2554.94 L1962.06 2554.82 L1961.22 2554.46 L1960.14 2553.50 L1958.82 2551.34 L1958.10 2549.66 L1957.86 2548.58 L1958.10 2547.98 L1958.70 2547.38 L1959.90 2547.02 L1960.62 2546.42 L1961.10 2545.46 L1961.22 2544.26 L1960.74 2543.18 L1959.78 2541.98 L1958.70 2541.38 L1957.62 2541.14 L1956.66 2541.38 L1955.82 2542.22 L1955.22 2543.18 L1954.86 2544.38 L1954.50 2546.18 L1954.02 2548.10 L1953.42 2548.94 L1952.46 2549.78 L1951.62 2550.62 L1951.38 2551.22 L1951.50 2552.54 L1951.62 2553.62 L1951.98 2555.42 L1951.86 2556.73 L1951.38 2557.45 L1950.54 2558.17 L1948.14 2559.73 L1946.47 2561.17 L1944.55 2562.73 L1943.47 2563.93 L1942.51 2565.01 L1941.43 2566.21 L1940.47 2567.89 L1939.63 2569.69 L1938.91 2572.45 L1938.43 2575.09 L1937.47 2579.53 L1937.11 2582.40 L1936.27 2584.68 L1935.31 2587.20 L1934.83 2588.40 L1934.47 2589.36 L1934.47 2591.16 L1934.95 2593.68 L1934.71 2596.68 L1933.63 2598.12 L1930.63 2599.80 L1925.60 2601.36 L1921.64 2600.88 L1918.64 2600.16 L1914.08 2598.48 L1911.32 2597.40 L1909.52 2595.00 L1908.69 2593.56 L1907.73 2591.76 L1907.37 2591.40 L1906.65 2590.92 L1905.57 2591.40 L1904.49 2592.48 L1898.73 2587.92 L1895.25 2583.72 L1893.81 2578.09 L1892.01 2573.17 L1889.86 2569.57 L1886.74 2565.13 L1882.90 2563.33 L1881.58 2562.97 L1880.14 2561.89 L1879.18 2559.01 L1878.34 2554.10 L1878.94 2550.26 L1882.90 2544.98 L1888.42 2539.34 L1889.74 2537.42 L1890.93 2535.86 L1892.37 2530.23 L1892.49 2528.91 L1892.85 2524.71 L1892.49 2518.83 L1892.49 2508.51 L1893.21 2503.00 L1892.37 2497.24 L1890.10 2489.32 L1887.10 2484.04 L1884.46 2480.45 L1882.78 2476.85 L1882.42 2473.01 L1879.06 2462.69 L1870.31 2439.66 L1866.47 2432.71 L1862.75 2428.87 L1856.87 2425.99 L1856.03 2425.63 L1855.19 2425.27 L1853.63 2423.35 L1835.16 2431.15 L1809.62 2415.55 L1761.16 2406.80 L1739.81 2420.23 L1746.89 2425.63 L1763.92 2441.34 L1769.56 2446.98 L1773.04 2507.92 L1772.20 2507.68 L1769.80 2507.80 L1765.72 2509.23 L1760.56 2511.63 L1757.32 2513.55 L1755.05 2515.47 L1753.61 2517.03 L1752.89 2518.59 L1732.50 2503.24 L1709.11 2481.53 L1702.75 2489.32 L1697.48 2492.44 L1691.12 2497.12 L1688.24 2498.20 L1687.28 2499.16 L1686.44 2500.00 L1684.88 2503.96 L1680.80 2509.11 L1674.69 2512.47 L1670.97 2512.95 L1669.77 2512.35 L1669.05 2512.47 L1668.45 2513.31 L1668.33 2523.51 L1666.05 2534.66 L1663.65 2543.66 L1661.25 2550.14 L1658.38 2556.37 L1657.54 2558.17 L1660.17 2561.53 L1661.97 2562.49 L1662.93 2564.17 L1664.61 2575.93 L1667.01 2582.88 L1668.21 2586.60 L1672.41 2596.44 L1672.89 2597.52 L1676.37 2602.92 L1677.33 2606.27 L1677.45 2609.63 L1676.73 2613.23 L1674.81 2618.99 L1672.53 2624.27 L1671.21 2625.95 L1671.09 2627.39 L1671.45 2628.70 L1672.05 2629.78 L1673.25 2630.26 L1678.41 2630.98 L1681.16 2634.10 L1682.72 2639.38 L1683.80 2645.14 L1685.24 2649.70 L1572.02 2697.80 L1561.83 2716.39 L1556.43 2719.51 L1554.03 2720.11 L1551.03 2719.87 L1548.99 2718.79 L1547.43 2717.35 L1544.68 2713.99 L1536.40 2702.11 L1534.72 2699.36 L1526.20 2681.48 L1525.37 2680.16 L1522.85 2678.24 L1517.57 2680.52 L1508.93 2688.32 L1504.98 2692.28 L1502.82 2693.36 L1499.10 2694.80 L1496.34 2695.04 L1487.22 2692.28 L1473.91 2684.36 L1471.63 2681.84 L1470.55 2679.92 L1469.95 2678.00 L1469.59 2676.20 L1469.35 2672.97 L1468.75 2668.05 L1468.51 2665.17 L1468.04 2662.89 L1467.32 2661.09 L1465.16 2657.01 L1452.68 2665.41 L1440.45 2673.57 L1443.69 2679.56 L1445.49 2682.92 L1446.57 2685.08 L1447.65 2687.24 L1448.25 2689.04 L1448.73 2690.84 L1449.32 2693.72 L1449.56 2695.88 L1450.16 2698.52 L1450.76 2701.27 L1451.48 2704.03 L1452.20 2706.07 L1453.88 2708.95 L1455.92 2711.71 L1457.84 2714.11 L1460.24 2716.51 L1463.24 2718.91 L1470.79 2725.26 L1473.79 2727.78 L1476.19 2729.82 L1478.83 2732.58 L1480.63 2734.86 L1483.75 2739.06 L1486.75 2743.62 L1489.74 2748.41 L1497.54 2761.13 L1507.13 2776.72 L1511.81 2784.76 L1516.37 2792.32 L1522.73 2803.35 L1404.83 2782.12 L1404.83 2782.12 Z" stroke-linejoin="round"/>
	</defs>
	<use xlink:href="#path_gAssdIrQ" style="fill:#9DC8CA;stroke:#6BB4D2;stroke-width:5.76"/>
	<defs>
		<path id="path_AksOzoCI" d="M2791.55 2564.29 L2791.55 2564.29 L2791.55 2564.29 L2789.03 2565.01 L2775.95 2568.49 L2768.64 2570.41 L2762.52 2571.61 L2757.36 2572.33 L2753.05 2572.69 L2747.65 2573.05 L2743.21 2573.05 L2738.77 2572.81 L2733.62 2572.45 L2727.98 2571.73 L2725.58 2571.25 L2724.26 2571.01 L2722.70 2570.65 L2718.86 2569.93 L2663.21 2552.90 L2646.30 2547.98 L2621.23 2540.90 L2613.20 2538.74 L2599.89 2534.90 L2592.33 2533.10 L2577.46 2530.71 L2574.82 2530.47 L2562.34 2529.75 L2553.23 2529.51 L2536.20 2530.95 L2531.28 2531.79 L2526.60 2532.62 L2520.25 2534.42 L2496.50 2539.70 L2474.67 2545.10 L2466.51 2547.14 L2449.60 2550.98 L2440.13 2552.90 L2435.33 2553.98 L2409.06 2557.93 L2381.00 2560.81 L2380.04 2560.93 L2371.52 2562.25 L2349.46 2564.41 L2333.14 2568.01 L2330.27 2568.61 L2310.60 2570.77 L2297.88 2573.29 L2289.73 2575.21 L2284.33 2577.01 L2284.09 2575.81 L2282.41 2567.53 L2281.57 2563.93 L2280.61 2559.61 L2279.53 2554.46 L2277.25 2544.62 L2275.93 2539.82 L2274.37 2534.18 L2272.82 2529.15 L2270.54 2522.67 L2269.34 2519.55 L2267.90 2516.07 L2266.22 2511.99 L2265.74 2511.03 L2264.54 2508.27 L2262.86 2504.56 L2261.90 2502.52 L2260.94 2500.48 L2259.62 2497.72 L2258.78 2496.04 L2255.78 2489.80 L2252.19 2482.61 L2249.67 2477.21 L2247.63 2473.13 L2246.79 2471.21 L2243.91 2464.97 L2241.75 2460.41 L2240.55 2457.54 L2239.47 2454.90 L2238.87 2453.34 L2237.79 2450.70 L2236.11 2446.14 L2234.08 2440.26 L2232.52 2434.99 L2230.60 2427.91 L2229.04 2421.43 L2227.24 2413.15 L2226.76 2410.40 L2226.40 2408.48 L2225.80 2405.48 L2225.32 2402.00 L2224.72 2397.80 L2224.48 2395.16 L2224.12 2392.28 L2223.52 2384.49 L2223.52 2382.81 L2223.52 2379.21 L2223.40 2376.93 L2223.28 2374.05 L2223.40 2370.57 L2223.52 2365.41 L2223.88 2355.34 L2224.12 2350.66 L2224.24 2347.54 L2224.60 2338.67 L2225.20 2329.91 L2225.44 2321.99 L2226.16 2314.44 L2226.28 2311.68 L2226.64 2308.68 L2227.12 2305.68 L2227.48 2302.44 L2228.08 2299.80 L2228.56 2297.04 L2229.28 2293.92 L2229.88 2291.77 L2230.36 2288.89 L2231.08 2285.89 L2231.56 2284.21 L2232.04 2282.29 L2233.24 2279.17 L2234.56 2276.05 L2235.75 2272.81 L2237.07 2269.21 L2238.27 2266.70 L2239.59 2263.58 L2241.03 2260.34 L2242.83 2256.74 L2245.71 2250.74 L2248.83 2243.67 L2252.31 2235.75 L2255.78 2227.71 L2257.94 2223.27 L2259.38 2219.44 L2261.30 2213.44 L2263.10 2208.52 L2265.02 2202.76 L2267.30 2196.04 L2268.98 2190.41 L2270.06 2186.45 L2271.14 2181.89 L2272.58 2176.97 L2273.18 2174.09 L2274.01 2171.22 L2274.85 2169.18 L2276.89 2161.62 L2278.21 2153.58 L2279.77 2145.19 L2280.85 2139.19 L2281.69 2134.03 L2282.65 2127.07 L2283.37 2120.84 L2284.09 2115.08 L2284.33 2111.36 L2284.69 2107.28 L2285.17 2102.60 L2285.29 2098.53 L2285.65 2096.01 L2285.89 2091.57 L2286.13 2087.73 L2286.49 2080.65 L2286.85 2075.50 L2287.33 2071.18 L2287.93 2067.10 L2288.53 2063.26 L2289.13 2060.14 L2289.97 2056.54 L2290.93 2052.22 L2292.25 2046.95 L2293.80 2041.79 L2295.60 2035.67 L2297.04 2031.71 L2298.60 2026.92 L2300.52 2020.56 L2303.28 2012.76 L2305.80 2003.65 L2307.72 1995.73 L2309.64 1988.05 L2310.72 1982.53 L2311.56 1977.74 L2312.28 1972.10 L2312.87 1967.66 L2313.47 1963.94 L2313.71 1960.94 L2313.95 1957.58 L2314.19 1954.83 L2314.19 1952.07 L2314.31 1949.31 L2314.55 1946.07 L2314.55 1942.59 L2314.67 1938.99 L2314.31 1929.52 L2313.23 1915.24 L2312.51 1907.93 L2311.80 1898.57 L2309.16 1869.90 L2308.08 1858.03 L2307.24 1847.35 L2307.00 1844.95 L2306.64 1840.87 L2306.40 1838.35 L2306.04 1834.88 L2311.68 1836.67 L2314.91 1837.75 L2317.19 1838.59 L2328.23 1842.43 L2344.30 1848.19 L2350.06 1850.35 L2355.21 1852.15 L2360.49 1854.55 L2365.77 1857.19 L2368.77 1858.87 L2370.80 1860.06 L2374.64 1862.70 L2375.72 1863.30 L2381.96 1867.62 L2387.60 1871.58 L2396.11 1877.58 L2398.03 1878.78 L2402.59 1881.78 L2403.19 1882.14 L2407.27 1884.53 L2408.34 1885.13 L2411.58 1886.57 L2415.42 1888.13 L2419.98 1889.81 L2424.30 1891.01 L2429.21 1892.09 L2434.61 1892.81 L2440.73 1893.41 L2448.28 1893.89 L2460.52 1894.37 L2467.35 1894.61 L2472.27 1894.73 L2481.99 1894.73 L2485.94 1894.49 L2489.18 1893.89 L2490.86 1893.53 L2493.86 1892.33 L2496.02 1891.49 L2497.10 1891.25 L2498.30 1890.65 L2499.26 1890.17 L2504.30 1887.29 L2508.49 1884.89 L2522.41 1876.98 L2529.12 1873.26 L2540.40 1866.54 L2543.39 1864.74 L2547.35 1862.34 L2552.51 1859.23 L2558.51 1855.63 L2561.39 1853.83 L2564.02 1851.91 L2566.54 1849.99 L2569.30 1847.59 L2572.78 1844.47 L2577.22 1840.15 L2586.69 1830.32 L2592.21 1824.56 L2590.77 1821.08 L2590.29 1819.40 L2590.05 1817.00 L2590.05 1815.80 L2590.05 1812.56 L2590.17 1811.13 L2590.41 1808.85 L2591.37 1802.85 L2592.57 1793.73 L2594.85 1775.74 L2599.17 1741.55 L2599.65 1735.20 L2600.48 1728.48 L2601.44 1721.76 L2602.04 1715.05 L2602.28 1711.21 L2602.04 1706.29 L2601.56 1701.25 L2601.44 1696.69 L2601.92 1690.70 L2603.00 1683.38 L2603.84 1679.30 L2605.88 1671.26 L2607.68 1665.03 L2608.52 1660.47 L2609.96 1651.83 L2610.56 1647.27 L2608.16 1643.80 L2606.84 1641.88 L2604.44 1634.32 L2601.44 1606.37 L2600.96 1600.97 L2600.36 1595.22 L2601.80 1590.06 L2604.80 1584.78 L2604.20 1578.06 L2603.48 1569.07 L2563.18 1576.02 L2562.58 1572.18 L2560.79 1572.30 L2558.51 1550.35 L2596.53 1542.56 L2621.35 1533.56 L2619.79 1524.92 L2619.20 1521.93 L2618.72 1519.05 L2616.80 1509.69 L2614.64 1499.62 L2611.64 1486.90 L2605.64 1456.67 L2604.68 1451.28 L2602.04 1437.24 L2598.93 1420.57 L2597.73 1413.25 L2596.53 1407.73 L2594.25 1395.86 L2593.05 1389.14 L2586.93 1358.43 L2584.41 1344.52 L2583.81 1341.16 L2583.09 1338.04 L2581.05 1328.09 L2572.78 1329.65 L2562.94 1318.13 L2562.82 1316.69 L2562.82 1315.37 L2579.38 1315.13 L2591.37 1315.13 L2593.29 1315.13 L2595.69 1315.13 L2599.77 1315.13 L2610.80 1315.01 L2610.92 1316.33 L2611.16 1317.65 L2613.32 1317.65 L2622.79 1317.41 L2626.75 1317.41 L2633.95 1317.29 L2642.58 1317.05 L2647.74 1316.93 L2656.38 1316.69 L2661.53 1316.69 L2674.37 1317.17 L2681.20 1317.29 L2686.24 1317.29 L2695.60 1317.17 L2696.43 1317.17 L2701.95 1317.05 L2706.63 1316.81 L2711.07 1316.57 L2716.46 1316.33 L2721.50 1315.97 L2724.98 1315.85 L2731.58 1315.85 L2732.30 1315.85 L2736.25 1315.73 L2744.05 1315.49 L2754.00 1315.61 L2772.72 1315.61 L2786.99 1315.37 L2791.55 1315.25 L2799.58 1315.13 L2800.78 1315.25 L2802.22 1315.25 L2804.38 1315.25 L2813.97 1315.49 L2833.64 1315.61 L2836.88 1315.61 L2840.12 1315.61 L2845.40 1315.73 L2849.00 1315.73 L2857.39 1315.85 L2864.59 1315.73 L2867.59 1315.61 L2869.62 1315.61 L2879.82 1315.49 L2883.42 1315.25 L2886.06 1314.89 L2889.05 1314.53 L2895.65 1313.69 L2898.53 1313.45 L2902.85 1312.85 L2905.37 1312.61 L2906.09 1312.61 L2912.68 1312.61 L2924.68 1312.49 L2938.23 1312.13 L2947.22 1312.01 L2958.38 1311.89 L2961.86 1311.89 L2967.25 1311.89 L2974.57 1311.89 L2999.16 1311.65 L3001.56 1311.65 L3007.91 1311.53 L3013.19 1311.53 L3017.27 1311.53 L3019.55 1311.53 L3041.97 1311.41 L3044.49 1311.41 L3049.89 1311.41 L3058.89 1311.05 L3062.96 1310.93 L3065.72 1310.81 L3068.60 1310.81 L3072.20 1310.81 L3075.92 1310.93 L3079.28 1311.05 L3082.75 1311.17 L3087.19 1311.17 L3090.91 1311.17 L3092.71 1311.17 L3099.66 1310.93 L3104.70 1310.69 L3112.14 1310.45 L3123.05 1310.57 L3128.57 1310.45 L3136.73 1310.45 L3139.72 1310.45 L3147.40 1310.45 L3148.72 1310.45 L3155.68 1310.21 L3163.11 1309.85 L3188.30 1309.85 L3195.37 1309.73 L3220.56 1309.37 L3225.72 1309.25 L3229.56 1309.25 L3233.75 1309.25 L3239.87 1309.13 L3242.87 1309.13 L3248.99 1308.89 L3252.47 1308.77 L3255.22 1308.65 L3263.26 1308.41 L3278.85 1307.70 L3290.73 1307.22 L3298.76 1306.98 L3299.96 1306.98 L3309.20 1306.74 L3314.71 1306.50 L3322.87 1306.14 L3323.11 1306.14 L3330.30 1305.78 L3339.06 1305.42 L3348.66 1305.30 L3348.77 1309.13 L3360.17 1308.29 L3375.88 1308.17 L3393.87 1308.05 L3409.46 1308.41 L3429.13 1310.57 L3442.81 1305.90 L3442.57 1309.01 L3438.01 1343.44 L3435.73 1362.99 L3433.33 1379.91 L3431.29 1395.74 L3429.25 1411.21 L3428.17 1417.45 L3427.57 1422.49 L3426.01 1434.60 L3424.82 1446.84 L3423.74 1459.07 L3422.78 1467.11 L3422.42 1469.15 L3422.06 1472.15 L3421.58 1474.91 L3420.98 1477.54 L3420.38 1479.70 L3419.42 1482.22 L3418.34 1484.62 L3411.26 1497.46 L3409.82 1500.45 L3406.94 1506.45 L3404.43 1512.69 L3402.15 1519.05 L3400.83 1522.89 L3399.75 1526.84 L3397.83 1533.20 L3396.75 1539.32 L3390.39 1573.62 L3386.80 1594.02 L3384.64 1605.41 L3383.08 1613.69 L3379.72 1631.68 L3376.60 1646.67 L3376.00 1649.67 L3375.40 1652.55 L3373.96 1661.07 L3373.12 1667.07 L3372.28 1672.82 L3371.80 1677.50 L3371.44 1682.42 L3371.08 1689.98 L3371.08 1695.37 L3371.08 1696.81 L3371.08 1698.01 L3371.08 1703.05 L3371.08 1707.61 L3370.84 1714.45 L3370.12 1729.20 L3369.76 1732.44 L3369.40 1735.08 L3368.80 1738.68 L3368.32 1740.83 L3367.25 1743.83 L3366.29 1745.99 L3365.21 1748.03 L3363.53 1750.91 L3361.85 1753.91 L3360.77 1755.83 L3359.57 1758.11 L3357.77 1762.07 L3356.21 1765.78 L3352.61 1775.38 L3351.65 1780.66 L3348.77 1794.69 L3347.70 1800.69 L3347.10 1803.57 L3346.26 1805.49 L3345.66 1806.81 L3344.82 1808.25 L3341.22 1813.28 L3338.82 1816.52 L3337.14 1819.04 L3336.42 1820.36 L3335.82 1821.80 L3335.34 1822.76 L3334.98 1823.84 L3334.38 1825.76 L3333.66 1828.16 L3329.70 1841.47 L3328.99 1843.75 L3327.19 1848.07 L3323.47 1856.47 L3318.79 1866.90 L3314.71 1876.50 L3320.59 1881.90 L3333.30 1888.25 L3329.23 1900.01 L3327.91 1902.41 L3326.71 1903.73 L3322.87 1907.21 L3320.95 1909.48 L3319.15 1912.60 L3318.79 1913.92 L3318.43 1916.08 L3317.47 1958.54 L3317.47 1973.42 L3317.83 1978.34 L3318.55 1983.37 L3319.51 1989.37 L3307.04 1991.29 L3308.12 1995.85 L3309.08 2001.13 L3313.27 2024.64 L3314.47 2025.84 L3315.79 2029.31 L3316.87 2033.15 L3318.07 2037.95 L3318.91 2042.63 L3319.63 2048.39 L3319.75 2049.23 L3319.75 2051.27 L3319.75 2054.50 L3319.51 2057.14 L3319.39 2058.70 L3318.91 2061.10 L3318.43 2063.38 L3316.27 2070.34 L3314.71 2069.74 L3313.27 2069.14 L3311.11 2068.06 L3308.24 2066.38 L3304.52 2063.86 L3302.60 2062.42 L3293.48 2055.70 L3290.85 2053.66 L3287.49 2051.15 L3283.05 2047.55 L3279.57 2044.31 L3278.01 2042.75 L3275.85 2040.11 L3274.05 2038.07 L3272.73 2036.39 L3270.58 2033.75 L3268.06 2030.75 L3266.98 2029.67 L3262.90 2025.36 L3257.86 2020.56 L3256.78 2019.60 L3252.11 2015.04 L3245.39 2008.44 L3243.11 2006.04 L3241.19 2004.36 L3239.51 2002.69 L3237.59 2000.77 L3233.75 1997.29 L3229.92 1994.17 L3227.52 1992.49 L3222.12 1988.65 L3219.00 1986.49 L3214.92 1984.09 L3211.69 1982.29 L3208.09 1980.37 L3203.29 1978.10 L3200.89 1976.90 L3198.25 1975.70 L3193.34 1973.42 L3190.58 1972.22 L3185.90 1970.30 L3180.62 1967.90 L3177.86 1966.70 L3175.35 1965.62 L3169.83 1962.98 L3167.07 1961.66 L3161.91 1958.66 L3157.47 1956.14 L3154.60 1954.47 L3149.68 1951.59 L3147.76 1950.51 L3143.32 1947.99 L3138.76 1945.23 L3138.16 1948.59 L3137.68 1952.91 L3137.21 1957.82 L3134.69 1974.86 L3133.61 1983.13 L3133.25 1986.85 L3132.65 2004.72 L3132.65 2007.72 L3132.89 2012.52 L3133.97 2023.68 L3135.05 2033.87 L3135.41 2036.87 L3136.01 2042.63 L3136.97 2051.03 L3137.57 2056.54 L3137.68 2059.30 L3137.80 2061.94 L3137.68 2063.74 L3137.45 2065.66 L3136.97 2068.30 L3135.53 2074.54 L3133.97 2080.41 L3132.89 2084.01 L3131.21 2089.05 L3129.77 2093.25 L3128.33 2097.57 L3127.01 2100.56 L3127.37 2102.12 L3127.01 2103.32 L3125.21 2107.76 L3122.57 2114.36 L3119.45 2121.68 L3115.86 2130.19 L3114.54 2133.67 L3113.46 2137.03 L3112.98 2138.47 L3112.50 2139.55 L3111.66 2143.03 L3110.22 2149.50 L3106.98 2163.18 L3103.86 2174.57 L3102.42 2179.85 L3101.10 2184.29 L3098.59 2193.29 L3097.39 2198.44 L3095.95 2204.44 L3094.39 2211.04 L3092.83 2217.52 L3091.99 2221.35 L3091.15 2225.79 L3089.83 2233.35 L3088.27 2242.11 L3087.43 2246.30 L3087.07 2248.22 L3085.99 2251.94 L3085.51 2253.26 L3085.15 2254.58 L3084.31 2256.62 L3083.23 2258.90 L3082.27 2261.18 L3080.83 2264.06 L3079.16 2266.82 L3077.72 2268.97 L3076.16 2271.37 L3073.52 2274.97 L3070.64 2278.57 L3067.76 2282.17 L3065.24 2285.53 L3062.72 2289.61 L3061.16 2292.72 L3059.37 2296.68 L3057.57 2301.60 L3056.25 2305.68 L3055.05 2310.84 L3053.97 2315.64 L3053.13 2318.87 L3051.45 2324.15 L3049.53 2329.31 L3044.97 2342.02 L3038.98 2358.10 L3032.62 2373.81 L3031.66 2375.97 L3029.86 2377.29 L3029.74 2374.77 L3025.54 2354.98 L3016.19 2357.14 L2988.96 2380.05 L2996.64 2401.28 L2986.92 2412.31 L2989.08 2416.99 L2993.76 2422.63 L2999.16 2429.35 L3002.76 2433.79 L3005.39 2430.67 L3006.35 2429.35 L3009.11 2425.51 L3011.03 2422.51 L3013.55 2417.71 L3015.23 2414.23 L3017.99 2407.76 L3018.71 2408.48 L3020.51 2409.92 L3023.14 2411.60 L3028.66 2414.71 L3034.30 2417.47 L3039.94 2419.99 L3042.69 2421.19 L3041.73 2427.67 L3042.09 2429.11 L3042.69 2430.19 L3049.41 2432.47 L3047.61 2436.90 L3044.49 2442.54 L3042.69 2444.82 L3040.30 2446.62 L3039.22 2446.98 L3038.26 2447.10 L3036.10 2446.38 L3034.42 2446.98 L3030.46 2456.82 L3030.10 2458.98 L3030.58 2462.45 L3031.18 2463.65 L3032.02 2464.73 L3033.46 2465.69 L3038.26 2467.49 L3040.30 2467.97 L3042.81 2467.85 L3048.45 2466.29 L3052.29 2464.85 L3053.49 2464.61 L3057.45 2465.45 L3060.92 2468.81 L3062.24 2471.33 L3063.68 2476.49 L3058.77 2487.64 L3045.09 2491.36 L3012.83 2500.12 L2966.65 2513.19 L2935.71 2522.07 L2852.47 2546.90 L2838.56 2551.10 L2817.69 2556.97 L2800.66 2561.53 L2791.55 2564.29 L2791.55 2564.29 Z" stroke-linejoin="round"/>
	</defs>
	<use xlink:href="#path_AksOzoCI" style="fill:#9DC8CA;stroke:#6BB4D2;stroke-width:5.76"/>
	<defs>
		<path id="path_TUBfddSO" d="M589.61 1506.45 L589.61 1506.45 L589.13 1504.89 L587.81 1502.37 L585.77 1497.22 L578.34 1479.58 L566.22 1450.56 L553.27 1417.45 L547.99 1404.73 L547.51 1403.18 L546.44 1401.14 L543.56 1393.46 L538.88 1381.70 L508.54 1309.01 L502.66 1295.34 L501.82 1293.42 L496.66 1280.59 L481.07 1243.04 L477.71 1235.13 L471.35 1219.65 L465.72 1206.82 L461.28 1196.74 L450.01 1169.75 L441.73 1150.08 L428.90 1118.53 L420.26 1097.54 L418.94 1094.30 L417.98 1091.55 L416.90 1088.19 L415.70 1084.71 L413.18 1076.19 L412.58 1074.15 L407.19 1056.52 L403.23 1043.57 L400.35 1032.29 L396.99 1019.70 L393.99 1008.78 L392.68 1004.10 L380.32 964.04 L371.81 936.21 L367.97 923.62 L365.45 915.70 L361.25 902.14 L358.85 894.11 L355.85 884.39 L352.38 871.92 L349.98 863.28 L347.58 854.52 L346.62 851.53 L345.30 847.21 L343.86 842.65 L342.30 837.61 L340.38 831.49 L338.94 826.34 L337.98 822.86 L337.50 819.62 L336.90 815.66 L336.66 813.02 L336.42 810.38 L336.42 806.78 L336.66 802.11 L337.26 796.95 L337.98 790.95 L339.66 782.19 L340.98 775.12 L341.58 771.64 L343.62 760.72 L350.34 728.22 L351.18 724.62 L352.38 719.58 L354.30 711.42 L357.05 700.87 L357.65 698.47 L359.45 690.07 L360.05 687.19 L360.65 684.79 L362.33 677.60 L363.89 670.64 L365.81 662.84 L362.45 661.76 L349.38 657.57 L345.54 656.25 L340.02 654.45 L335.94 653.25 L327.19 650.37 L322.51 648.93 L315.44 646.65 L308.24 644.37 L293.97 639.93 L273.82 633.10 L267.58 630.94 L258.35 627.94 L245.15 623.38 L234.12 620.26 L221.40 616.78 L216.25 615.34 L208.81 612.82 L210.01 607.55 L211.09 600.47 L212.17 592.67 L212.41 590.39 L212.41 588.47 L212.41 585.84 L212.29 583.44 L211.93 580.56 L211.33 577.80 L210.61 575.28 L209.53 572.64 L208.45 570.00 L207.01 566.52 L205.93 564.24 L204.85 561.85 L203.65 559.33 L202.33 556.81 L200.54 553.21 L199.70 551.65 L198.50 549.25 L197.42 546.97 L196.58 545.05 L195.86 543.01 L193.46 537.26 L189.62 527.66 L186.62 519.86 L184.22 513.75 L179.67 501.63 L178.47 498.87 L174.27 487.72 L169.83 476.68 L162.40 457.49 L159.16 449.69 L157.48 445.49 L149.56 424.98 L146.56 417.79 L142.13 406.75 L139.37 399.79 L127.85 371.13 L121.86 355.89 L114.90 337.54 L106.02 314.75 L96.79 291.36 L91.75 278.52 L82.28 254.77 L78.80 246.14 L68.72 220.59 L59.37 196.36 L57.33 191.56 L55.41 186.64 L53.49 181.96 L51.69 178.13 L48.93 173.09 L47.26 169.97 L44.50 165.41 L37.54 154.50 L39.82 153.78 L46.78 151.50 L49.41 150.66 L55.17 149.58 L61.53 148.26 L68.84 145.86 L70.40 145.02 L71.36 144.18 L72.20 143.10 L75.92 136.50 L84.56 123.43 L89.47 117.91 L97.03 107.96 L102.67 103.40 L107.70 101.00 L113.22 100.04 L115.98 99.92 L126.77 122.95 L127.61 123.43 L129.17 124.63 L130.49 126.67 L134.09 135.78 L147.16 129.19 L160.24 122.59 L175.11 114.67 L179.07 112.99 L181.59 112.51 L183.86 112.39 L194.18 113.71 L237.00 166.85 L242.99 174.29 L250.31 181.36 L254.39 181.48 L256.79 181.00 L259.90 178.97 L261.58 179.21 L263.74 179.81 L266.38 175.73 L303.68 175.97 L307.88 175.97 L312.68 176.09 L332.35 176.93 L334.87 177.17 L336.78 177.53 L338.46 178.01 L339.90 178.97 L341.58 180.16 L343.14 182.08 L345.78 185.56 L348.18 188.80 L360.41 205.47 L368.57 217.23 L370.37 219.99 L373.61 225.39 L374.44 227.19 L375.04 229.46 L376.72 238.46 L376.96 239.06 L381.04 238.22 L383.20 237.50 L385.24 236.66 L388.12 235.10 L391.12 232.94 L393.87 230.54 L394.71 229.82 L395.55 229.34 L396.51 228.98 L397.71 228.86 L398.67 228.98 L399.99 229.46 L400.71 229.58 L401.55 229.34 L402.15 228.86 L403.11 227.67 L404.07 226.11 L405.75 223.83 L407.55 220.35 L407.79 220.11 L408.27 219.87 L408.63 219.75 L409.23 219.75 L410.67 220.47 L411.15 220.47 L411.63 220.35 L412.58 220.11 L413.42 219.63 L414.14 219.15 L416.78 216.63 L417.14 216.39 L417.74 216.15 L418.34 216.03 L419.18 216.39 L420.62 217.23 L421.46 217.59 L422.18 217.83 L423.38 217.71 L424.22 217.47 L426.02 216.63 L427.46 215.55 L428.30 214.71 L429.86 212.43 L430.46 211.95 L431.06 211.83 L431.66 211.83 L432.97 212.43 L434.17 212.55 L438.85 212.31 L439.57 212.31 L440.41 211.83 L440.77 211.47 L441.01 210.99 L441.37 210.03 L441.61 209.67 L441.97 209.43 L442.45 209.31 L443.05 209.43 L444.01 209.91 L444.49 210.15 L444.97 210.03 L445.45 209.91 L446.77 209.19 L447.37 208.59 L447.85 208.35 L448.33 208.35 L448.81 208.59 L449.41 208.95 L450.01 209.55 L450.73 210.15 L456.36 211.95 L459.24 212.55 L464.04 213.27 L466.32 213.87 L468.48 214.47 L471.59 216.03 L473.99 217.83 L481.19 223.47 L485.75 226.83 L489.35 229.46 L491.86 231.26 L481.91 240.98 L478.79 244.34 L477.11 247.34 L476.99 249.14 L477.35 250.34 L478.43 251.30 L480.23 252.13 L481.19 253.57 L482.27 254.53 L484.07 257.17 L484.79 257.65 L490.78 258.61 L491.02 258.73 L494.62 261.49 L500.26 264.85 L502.78 265.93 L505.18 267.37 L507.46 269.41 L508.54 270.01 L510.57 270.49 L511.29 270.13 L511.89 269.53 L512.61 268.09 L513.09 270.25 L513.57 273.73 L515.49 282.12 L518.97 290.16 L527.96 300.23 L538.40 305.63 L553.51 307.19 L540.92 321.11 L536.36 326.26 L532.76 330.70 L531.08 332.86 L529.16 335.50 L528.08 336.94 L527.01 338.26 L515.01 350.97 L506.86 359.85 L503.14 364.05 L504.70 365.61 L505.54 366.69 L509.25 370.41 L513.21 374.12 L520.29 379.76 L526.17 384.68 L532.04 390.32 L536.60 394.40 L539.84 397.03 L543.80 400.03 L547.15 402.19 L550.03 403.75 L554.47 405.79 L559.15 407.35 L561.31 408.07 L584.10 414.91 L590.57 416.83 L595.37 417.79 L588.65 392.72 L613.60 380.00 L679.09 291.84 L719.86 324.22 L737.86 324.46 L738.22 304.07 L718.67 297.72 L713.39 297.60 L706.43 287.64 L709.55 284.64 L711.23 283.20 L712.79 281.88 L714.23 280.68 L716.27 279.24 L718.19 277.92 L720.46 276.36 L723.46 274.69 L726.34 273.01 L727.90 272.17 L729.58 271.21 L732.58 269.53 L735.46 267.97 L738.46 266.53 L739.89 265.93 L741.57 265.33 L743.25 264.85 L745.17 264.37 L747.33 264.01 L749.37 263.65 L750.69 263.65 L752.13 263.65 L758.72 263.89 L760.76 263.89 L762.68 263.89 L764.12 263.77 L765.44 263.65 L766.88 263.53 L769.04 263.05 L771.68 262.21 L773.24 268.21 L774.08 271.45 L774.56 275.05 L775.28 279.48 L775.64 283.20 L777.79 301.67 L778.75 307.79 L779.95 313.19 L781.39 318.35 L783.07 323.51 L785.11 328.54 L787.51 333.46 L790.03 338.26 L792.19 341.74 L793.75 344.26 L804.18 344.26 L861.99 382.76 L938.03 356.01 L922.08 333.10 L930.36 330.94 L942.83 330.46 L946.19 329.62 L946.79 328.78 L947.39 326.74 L948.83 325.42 L950.86 324.94 L954.10 325.42 L956.86 326.50 L962.14 326.38 L966.34 325.42 L968.26 324.10 L969.69 322.43 L970.41 318.95 L971.49 317.27 L980.01 313.91 L984.45 311.15 L987.45 308.87 L989.60 309.23 L991.16 309.11 L992.00 308.39 L992.12 305.03 L992.84 303.23 L995.48 300.95 L997.28 301.07 L998.96 303.83 L999.92 304.55 L1001.36 304.79 L1005.08 304.43 L1008.31 304.67 L1009.39 304.31 L1011.91 302.51 L1013.71 300.00 L1014.43 296.40 L1015.39 288.12 L1015.75 277.92 L1016.23 273.61 L1017.19 267.85 L1021.15 263.05 L1030.14 256.45 L1038.90 283.92 L1040.10 287.88 L1041.90 292.32 L1043.46 295.56 L1046.81 300.11 L1048.37 301.79 L1050.05 303.11 L1048.25 306.71 L1047.53 308.27 L1043.82 316.43 L1042.26 324.58 L1041.78 330.22 L1041.30 333.58 L1039.62 338.02 L1038.06 340.78 L1035.54 343.90 L1033.02 346.06 L1027.50 349.05 L1018.75 354.33 L1025.95 368.37 L1028.58 373.28 L1030.62 372.56 L1067.44 345.34 L1084.71 328.42 L1116.74 333.10 L1118.66 337.18 L1127.41 355.17 L1142.16 359.61 L1140.85 369.21 L1138.57 378.44 L1136.89 382.04 L1135.45 383.24 L1133.53 384.80 L1123.69 388.16 L1121.42 389.48 L1119.98 391.52 L1118.90 395.48 L1117.82 396.79 L1113.98 397.75 L1108.70 398.11 L1097.91 400.75 L1079.68 411.31 L1074.76 415.51 L1073.32 419.47 L1073.08 421.38 L1071.04 424.38 L1068.64 425.10 L1063.25 425.34 L1060.73 426.06 L1058.21 428.10 L1056.65 430.38 L1054.01 431.70 L1049.69 432.90 L1045.74 434.82 L1040.10 438.42 L1036.02 443.10 L1043.34 452.09 L1011.67 527.18 L1039.02 592.79 L1043.82 602.03 L1049.21 610.07 L1053.53 617.74 L1058.21 626.14 L1061.21 632.62 L1064.45 635.74 L1066.72 641.73 L1069.60 647.85 L1072.60 653.85 L1075.72 661.04 L1078.84 667.64 L1080.76 672.20 L1082.56 676.40 L1085.91 684.07 L1088.91 691.99 L1089.75 694.15 L1091.67 698.59 L1095.75 696.19 L1100.91 693.55 L1104.02 692.11 L1107.86 690.31 L1113.14 687.91 L1115.90 686.71 L1117.58 685.87 L1118.42 685.39 L1119.62 684.43 L1120.10 683.84 L1120.22 683.00 L1119.62 680.96 L1118.42 677.36 L1117.58 675.32 L1116.38 673.16 L1114.94 670.52 L1112.90 666.68 L1110.86 662.60 L1109.42 659.37 L1108.58 657.21 L1107.98 655.17 L1107.26 652.17 L1107.02 650.49 L1106.78 648.81 L1106.78 647.97 L1106.42 645.45 L1115.78 648.57 L1121.06 650.49 L1124.65 651.69 L1128.61 652.29 L1132.21 652.77 L1135.21 653.13 L1137.97 653.61 L1140.73 654.21 L1143.12 654.57 L1146.00 655.17 L1148.76 655.89 L1151.52 656.73 L1156.68 658.41 L1161.59 660.08 L1167.35 661.88 L1173.83 663.80 L1178.75 665.12 L1184.38 666.32 L1187.86 667.04 L1192.90 667.76 L1199.26 668.36 L1202.01 669.08 L1204.29 669.68 L1206.69 670.40 L1209.33 671.48 L1215.21 673.76 L1220.12 675.44 L1224.08 676.64 L1230.20 678.08 L1233.20 678.80 L1236.92 679.52 L1240.99 680.12 L1244.71 680.48 L1249.39 681.08 L1252.99 681.56 L1256.23 681.92 L1260.78 682.52 L1263.90 682.88 L1266.90 683.24 L1269.90 683.84 L1272.90 684.43 L1277.09 685.51 L1284.53 687.43 L1291.49 689.23 L1296.64 690.55 L1301.68 691.63 L1307.44 692.95 L1312.72 694.03 L1316.79 694.87 L1322.31 696.31 L1325.91 697.39 L1329.75 698.59 L1333.59 700.27 L1338.14 702.19 L1343.18 704.23 L1346.78 706.03 L1350.02 707.59 L1353.49 709.02 L1355.65 709.86 L1358.17 710.70 L1360.45 711.42 L1362.37 711.78 L1364.05 711.78 L1365.49 711.66 L1370.05 710.82 L1372.20 711.06 L1373.04 711.06 L1373.88 711.06 L1374.60 711.06 L1375.44 711.18 L1376.04 711.66 L1377.72 713.46 L1376.64 721.26 L1377.00 725.10 L1376.88 728.82 L1373.04 767.32 L1376.16 768.16 L1380.60 769.84 L1381.68 770.80 L1387.56 776.20 L1399.43 782.79 L1403.51 784.95 L1412.38 787.11 L1417.30 787.47 L1427.26 784.71 L1434.93 781.71 L1441.41 777.52 L1444.77 775.24 L1452.56 770.08 L1462.88 760.48 L1473.19 752.81 L1487.34 745.25 L1489.62 748.37 L1493.34 754.01 L1500.18 757.72 L1513.73 761.68 L1515.77 762.16 L1515.89 762.28 L1524.05 764.20 L1533.52 766.48 L1534.36 766.60 L1536.04 767.08 L1537.24 767.32 L1542.64 768.64 L1553.67 770.08 L1557.03 770.20 L1560.51 770.56 L1560.99 770.92 L1561.35 771.88 L1561.95 774.76 L1562.79 775.84 L1570.58 779.80 L1574.66 782.91 L1577.78 783.15 L1579.70 782.91 L1583.29 780.51 L1588.09 776.32 L1591.33 774.04 L1595.77 773.32 L1597.33 773.80 L1599.01 777.52 L1599.61 775.24 L1601.29 774.16 L1604.16 773.08 L1606.92 769.24 L1609.92 767.68 L1617.48 766.36 L1618.68 765.40 L1619.76 763.96 L1621.20 762.76 L1624.79 762.16 L1627.43 762.16 L1629.95 760.72 L1630.31 758.80 L1630.07 755.93 L1630.55 754.01 L1633.79 747.29 L1633.79 741.53 L1636.07 734.81 L1638.11 722.10 L1638.95 719.58 L1641.58 718.38 L1642.78 717.42 L1643.62 715.86 L1643.98 713.82 L1643.98 710.46 L1645.54 708.54 L1647.34 707.59 L1649.74 707.35 L1651.66 706.51 L1662.33 753.29 L1662.93 755.93 L1663.53 758.44 L1664.37 760.60 L1665.45 763.00 L1667.73 766.12 L1669.53 768.76 L1670.85 770.92 L1671.69 772.48 L1671.93 773.80 L1672.17 775.84 L1672.05 779.80 L1671.81 783.27 L1672.05 785.31 L1672.65 787.23 L1673.49 789.03 L1674.69 790.47 L1675.89 791.67 L1677.09 792.51 L1678.77 793.11 L1680.80 793.59 L1683.20 793.59 L1684.16 793.71 L1687.52 793.71 L1690.52 793.35 L1691.84 792.87 L1693.28 792.03 L1694.84 790.59 L1697.24 788.07 L1698.79 786.27 L1700.35 784.47 L1702.39 782.43 L1703.71 781.71 L1705.03 781.23 L1706.59 780.99 L1708.27 780.99 L1709.95 781.23 L1712.95 781.59 L1712.83 783.51 L1712.83 784.83 L1712.95 787.23 L1713.55 789.87 L1715.23 795.15 L1717.15 801.87 L1718.22 806.90 L1718.82 811.34 L1719.30 815.66 L1719.42 821.30 L1719.54 828.37 L1719.90 831.13 L1720.50 833.65 L1721.22 835.81 L1721.82 837.01 L1714.63 882.11 L1713.91 884.03 L1713.43 885.71 L1713.43 887.15 L1713.79 889.91 L1715.71 899.51 L1717.51 899.51 L1718.94 899.75 L1721.10 899.87 L1723.02 900.22 L1724.70 900.46 L1725.90 900.58 L1735.98 902.62 L1743.53 903.82 L1743.29 908.50 L1743.17 911.74 L1743.05 915.46 L1742.81 919.30 L1742.69 922.54 L1742.69 925.77 L1742.81 928.77 L1743.29 931.77 L1744.13 935.37 L1745.21 939.81 L1745.81 942.21 L1746.53 944.97 L1724.70 955.40 L1700.11 968.12 L1656.10 988.39 L1636.67 997.14 L1634.27 998.22 L1603.56 1014.18 L1576.34 1027.73 L1577.66 1030.49 L1578.14 1033.61 L1578.14 1036.37 L1578.02 1040.45 L1577.06 1045.84 L1576.82 1047.76 L1568.30 1044.88 L1565.06 1043.57 L1559.67 1040.81 L1557.63 1040.09 L1553.79 1038.89 L1547.07 1041.53 L1516.37 1055.32 L1475.71 1074.39 L1471.15 1076.55 L1471.15 1077.27 L1471.75 1078.23 L1468.63 1083.27 L1464.80 1085.19 L1450.28 1092.38 L1443.57 1095.86 L1439.73 1097.78 L1435.77 1099.82 L1424.14 1105.34 L1411.90 1111.46 L1403.51 1115.66 L1394.51 1119.97 L1389.84 1122.25 L1368.13 1132.93 L1341.62 1145.64 L1292.69 1169.27 L1280.09 1175.51 L1282.37 1176.71 L1284.77 1178.03 L1290.29 1181.15 L1289.09 1181.75 L1283.81 1179.35 L1278.41 1176.35 L1276.37 1174.91 L1275.78 1174.19 L1273.74 1173.59 L1273.74 1175.03 L1253.11 1184.39 L1163.39 1228.89 L1152.60 1234.29 L1137.61 1239.80 L1134.37 1241.00 L1119.62 1248.44 L1060.13 1277.47 L1019.23 1297.50 L943.67 1334.44 L936.11 1338.04 L920.16 1345.84 L907.93 1351.84 L872.31 1369.11 L858.03 1376.07 L841.24 1384.82 L839.20 1385.18 L838.24 1385.66 L837.40 1386.86 L834.29 1387.82 L828.41 1390.94 L792.91 1407.97 L764.12 1421.53 L763.76 1422.49 L722.74 1442.76 L692.64 1459.67 L678.01 1464.59 L677.29 1464.83 L664.09 1470.71 L650.54 1477.54 L644.18 1479.94 L619.72 1491.46 L603.29 1499.62 L590.81 1505.85 L589.61 1506.45 L589.61 1506.45 Z" stroke-linejoin="round"/>
	</defs>
	<use xlink:href="#path_TUBfddSO" style="fill:#6BACAF;stroke:#097D9B;stroke-width:5.76"/>
	<defs>
		<path id="path_ohAXLfqs" d="M3518.01 1398.98 L3518.01 1398.98 L3515.85 1402.10 L3509.13 1407.97 L3503.37 1400.42 L3497.98 1396.70 L3491.50 1395.74 L3486.10 1396.46 L3484.54 1396.82 L3482.87 1397.66 L3481.19 1398.86 L3479.27 1395.62 L3478.19 1393.70 L3477.35 1391.90 L3475.79 1385.18 L3475.31 1379.07 L3475.43 1360.83 L3475.07 1355.20 L3474.71 1341.04 L3474.35 1306.26 L3461.28 1306.14 L3442.81 1305.90 L3429.13 1310.57 L3409.46 1308.41 L3393.87 1308.05 L3375.88 1308.17 L3360.17 1308.29 L3348.77 1309.13 L3348.66 1305.30 L3339.06 1305.42 L3330.30 1305.78 L3323.11 1306.14 L3322.87 1306.14 L3314.71 1306.50 L3309.20 1306.74 L3299.96 1306.98 L3298.76 1306.98 L3290.73 1307.22 L3278.85 1307.70 L3263.26 1308.41 L3255.22 1308.65 L3252.47 1308.77 L3248.99 1308.89 L3242.87 1309.13 L3239.87 1309.13 L3233.75 1309.25 L3229.56 1309.25 L3225.72 1309.25 L3220.56 1309.37 L3195.37 1309.73 L3188.30 1309.85 L3163.11 1309.85 L3155.68 1310.21 L3148.72 1310.45 L3147.40 1310.45 L3139.72 1310.45 L3136.73 1310.45 L3128.57 1310.45 L3123.05 1310.57 L3112.14 1310.45 L3104.70 1310.69 L3099.66 1310.93 L3092.71 1311.17 L3090.91 1311.17 L3087.19 1311.17 L3082.75 1311.17 L3079.28 1311.05 L3075.92 1310.93 L3072.20 1310.81 L3068.60 1310.81 L3065.72 1310.81 L3062.96 1310.93 L3058.89 1311.05 L3049.89 1311.41 L3044.49 1311.41 L3041.97 1311.41 L3019.55 1311.53 L3017.27 1311.53 L3013.19 1311.53 L3007.91 1311.53 L3001.56 1311.65 L2999.16 1311.65 L2974.57 1311.89 L2967.25 1311.89 L2961.86 1311.89 L2958.38 1311.89 L2947.22 1312.01 L2938.23 1312.13 L2924.68 1312.49 L2912.68 1312.61 L2906.09 1312.61 L2905.37 1312.61 L2902.85 1312.85 L2898.53 1313.45 L2895.65 1313.69 L2889.05 1314.53 L2886.06 1314.89 L2883.42 1315.25 L2879.82 1315.49 L2869.62 1315.61 L2867.59 1315.61 L2864.59 1315.73 L2857.39 1315.85 L2849.00 1315.73 L2845.40 1315.73 L2840.12 1315.61 L2836.88 1315.61 L2833.64 1315.61 L2813.97 1315.49 L2804.38 1315.25 L2802.22 1315.25 L2800.78 1315.25 L2799.58 1315.13 L2791.55 1315.25 L2786.99 1315.37 L2772.72 1315.61 L2754.00 1315.61 L2744.05 1315.49 L2736.25 1315.73 L2732.30 1315.85 L2731.58 1315.85 L2724.98 1315.85 L2721.50 1315.97 L2716.46 1316.33 L2711.07 1316.57 L2706.63 1316.81 L2701.95 1317.05 L2696.43 1317.17 L2695.60 1317.17 L2686.24 1317.29 L2681.20 1317.29 L2674.37 1317.17 L2661.53 1316.69 L2656.38 1316.69 L2647.74 1316.93 L2642.58 1317.05 L2633.95 1317.29 L2626.75 1317.41 L2622.79 1317.41 L2613.32 1317.65 L2611.16 1317.65 L2610.92 1316.33 L2610.80 1315.01 L2608.16 1301.94 L2600.72 1265.23 L2598.81 1255.52 L2570.14 1260.31 L2566.30 1260.31 L2566.42 1259.48 L2567.38 1258.28 L2566.66 1253.00 L2567.14 1248.80 L2568.46 1243.52 L2568.82 1241.96 L2570.74 1237.04 L2571.82 1232.97 L2572.30 1226.85 L2573.74 1222.77 L2576.74 1218.21 L2580.10 1215.57 L2587.05 1211.74 L2588.61 1210.90 L2590.05 1210.18 L2596.77 1206.58 L2601.20 1204.18 L2602.64 1202.38 L2602.88 1199.98 L2602.28 1196.38 L2596.65 1176.47 L2595.57 1173.95 L2594.01 1170.71 L2593.77 1169.15 L2593.77 1167.71 L2593.77 1166.27 L2593.41 1164.71 L2592.21 1160.28 L2590.77 1156.20 L2589.93 1155.24 L2588.97 1154.64 L2587.77 1154.40 L2584.65 1154.76 L2582.61 1155.60 L2574.46 1158.84 L2565.94 1163.64 L2557.67 1132.81 L2559.35 1131.97 L2563.66 1130.29 L2565.46 1128.85 L2568.46 1125.49 L2570.02 1123.81 L2572.42 1122.85 L2575.18 1122.37 L2577.58 1121.29 L2578.90 1120.45 L2581.77 1118.89 L2584.89 1117.57 L2588.25 1116.13 L2591.25 1114.46 L2595.81 1113.26 L2604.92 1112.42 L2617.16 1112.54 L2621.11 1113.14 L2632.75 1116.73 L2646.06 1121.89 L2647.74 1122.25 L2648.94 1122.13 L2651.10 1121.05 L2656.50 1119.37 L2658.17 1118.65 L2659.25 1116.85 L2660.33 1113.98 L2661.77 1112.54 L2662.97 1111.70 L2666.57 1109.42 L2667.05 1107.86 L2666.93 1106.54 L2666.69 1105.46 L2666.09 1104.74 L2664.17 1103.54 L2663.81 1102.34 L2663.93 1101.50 L2664.53 1100.06 L2664.89 1099.70 L2669.81 1095.02 L2672.33 1093.70 L2673.89 1093.46 L2676.53 1093.34 L2680.60 1093.58 L2685.64 1094.18 L2690.80 1094.90 L2692.84 1094.78 L2696.91 1094.66 L2698.59 1094.30 L2699.55 1093.82 L2700.27 1093.22 L2702.19 1092.26 L2709.87 1092.38 L2712.15 1093.10 L2715.39 1093.10 L2716.22 1092.74 L2716.46 1091.79 L2715.74 1090.23 L2715.15 1088.55 L2715.27 1087.23 L2715.74 1086.87 L2716.94 1086.51 L2718.14 1085.91 L2720.06 1084.47 L2724.02 1081.95 L2727.14 1081.35 L2728.58 1081.47 L2731.46 1083.27 L2732.54 1083.39 L2734.46 1083.51 L2735.05 1084.23 L2735.65 1085.43 L2737.21 1086.15 L2738.29 1085.91 L2739.85 1084.71 L2741.41 1082.43 L2743.09 1080.51 L2744.89 1079.43 L2746.57 1079.19 L2748.13 1079.43 L2753.88 1078.47 L2756.16 1077.75 L2764.32 1074.87 L2764.68 1074.51 L2764.80 1073.91 L2763.72 1071.15 L2763.72 1069.95 L2763.96 1069.47 L2764.56 1069.11 L2767.44 1068.75 L2769.48 1069.71 L2769.96 1069.95 L2770.80 1070.79 L2771.76 1071.15 L2775.47 1070.55 L2776.79 1070.07 L2777.51 1069.47 L2778.11 1067.80 L2777.99 1066.84 L2777.27 1065.04 L2776.67 1062.76 L2777.39 1061.08 L2779.07 1058.92 L2781.35 1057.48 L2783.15 1055.56 L2783.87 1052.56 L2784.95 1051.24 L2790.71 1046.92 L2792.03 1045.84 L2800.30 1039.01 L2803.78 1035.29 L2804.98 1034.69 L2810.26 1034.09 L2824.65 1033.61 L2832.92 1032.89 L2836.04 1032.53 L2838.32 1031.93 L2845.76 1029.65 L2850.31 1027.01 L2851.63 1025.33 L2860.03 1019.94 L2858.95 1014.06 L2859.31 1010.70 L2860.75 1004.10 L2862.31 999.18 L2862.31 998.10 L2861.95 995.95 L2859.91 989.71 L2859.79 988.51 L2862.07 981.43 L2864.23 978.19 L2864.35 978.07 L2864.95 975.19 L2866.51 970.40 L2867.59 968.48 L2868.67 967.64 L2869.86 963.68 L2870.58 962.24 L2872.38 960.32 L2872.86 959.48 L2873.10 957.56 L2873.22 957.32 L2872.74 949.28 L2873.10 943.17 L2873.46 942.33 L2873.70 940.41 L2873.46 930.09 L2874.30 926.13 L2874.90 923.26 L2876.46 920.02 L2877.18 918.82 L2877.54 918.22 L2878.86 915.94 L2879.82 915.22 L2881.86 914.14 L2883.30 911.50 L2883.90 910.06 L2886.54 903.94 L2889.65 893.87 L2890.49 890.03 L2890.73 888.83 L2890.85 887.99 L2891.21 884.15 L2891.45 878.27 L2891.45 877.31 L2890.97 873.36 L2890.25 871.08 L2889.05 869.04 L2887.14 866.28 L2886.54 864.96 L2886.54 864.00 L2886.78 863.16 L2887.50 862.44 L2887.74 859.92 L2887.62 857.64 L2887.86 856.08 L2886.66 850.93 L2886.78 849.37 L2887.14 848.89 L2889.05 847.69 L2889.41 847.09 L2889.77 844.45 L2890.49 841.69 L2890.73 840.13 L2890.37 838.69 L2889.89 838.09 L2886.78 835.69 L2886.18 835.45 L2885.70 835.33 L2884.02 835.57 L2882.10 837.25 L2881.02 837.25 L2880.30 836.41 L2879.58 834.01 L2879.70 832.93 L2880.06 831.97 L2881.26 830.41 L2882.58 828.01 L2882.58 827.30 L2881.86 824.42 L2880.66 822.38 L2879.10 820.70 L2878.86 819.74 L2879.70 816.38 L2877.30 816.86 L2873.94 816.50 L2872.50 816.02 L2871.30 814.70 L2870.10 812.90 L2866.51 802.71 L2865.55 800.43 L2863.75 798.39 L2860.03 796.71 L2857.87 795.51 L2854.27 792.63 L2853.43 791.91 L2849.48 788.19 L2849.72 786.99 L2850.43 782.19 L2853.91 759.64 L2854.15 758.32 L2853.67 756.28 L2851.87 752.69 L2852.71 749.45 L2853.43 746.45 L2855.83 737.45 L2856.67 734.21 L2860.75 717.90 L2861.35 716.34 L2862.55 714.78 L2863.63 713.70 L2864.47 712.74 L2867.47 709.38 L2865.19 710.34 L2863.39 710.94 L2861.59 711.06 L2860.39 710.94 L2858.95 710.70 L2856.19 712.50 L2855.71 711.54 L2854.75 710.46 L2853.07 710.22 L2851.03 710.34 L2845.88 711.18 L2840.12 713.34 L2834.60 715.38 L2829.81 717.18 L2819.85 720.78 L2813.85 723.06 L2808.70 724.98 L2806.66 725.70 L2799.34 728.46 L2792.14 731.22 L2786.75 733.25 L2778.11 736.61 L2773.07 738.53 L2770.08 739.73 L2759.28 744.05 L2754.60 745.85 L2750.53 747.41 L2743.69 750.05 L2729.06 755.81 L2727.74 755.09 L2724.62 753.41 L2724.02 752.69 L2723.18 751.73 L2722.58 750.17 L2720.42 742.73 L2719.10 739.37 L2717.78 737.57 L2717.78 734.45 L2717.54 732.05 L2717.54 730.50 L2718.14 729.42 L2720.90 727.26 L2721.86 725.70 L2721.98 724.02 L2720.42 718.86 L2718.98 715.62 L2718.50 712.74 L2719.46 710.82 L2721.14 709.02 L2721.74 707.47 L2722.58 699.07 L2723.06 688.27 L2722.82 677.48 L2721.98 674.00 L2675.45 678.32 L2673.89 674.36 L2669.81 674.84 L2663.57 675.08 L2639.10 676.52 L2636.83 677.48 L2616.68 680.60 L2581.41 688.39 L2573.98 683.96 L2558.15 679.40 L2555.75 678.32 L2550.83 679.64 L2551.67 674.96 L2552.75 668.12 L2552.27 662.00 L2550.47 655.05 L2548.55 651.21 L2547.23 664.76 L2541.96 661.64 L2538.96 659.73 L2539.92 598.67 L2538.96 592.67 L2537.76 586.20 L2539.08 584.52 L2540.76 576.96 L2543.99 576.72 L2547.35 576.60 L2546.99 550.45 L2549.27 544.93 L2546.87 540.49 L2544.83 537.14 L2548.91 534.38 L2561.63 525.62 L2578.18 514.47 L2582.49 511.47 L2586.57 508.71 L2597.01 501.75 L2601.44 498.75 L2612.00 491.44 L2617.04 488.08 L2623.15 483.88 L2637.67 474.64 L2646.90 469.12 L2661.77 458.81 L2663.69 457.61 L2665.01 456.77 L2708.43 425.46 L2721.98 416.11 L2723.18 415.15 L2727.02 412.87 L2728.10 409.63 L2732.90 406.03 L2742.37 399.67 L2745.49 397.51 L2747.17 396.43 L2751.61 393.20 L2752.45 392.72 L2761.80 386.48 L2767.56 382.64 L2781.11 374.00 L2783.15 372.68 L2788.07 369.45 L2789.03 368.97 L2798.38 363.57 L2806.30 358.89 L2810.62 356.37 L2820.57 350.97 L2835.44 343.06 L2850.31 335.62 L2863.27 329.50 L2864.11 329.26 L2872.86 325.30 L2875.02 324.34 L2884.62 320.51 L2887.86 319.31 L2905.49 312.59 L2924.92 305.39 L2930.19 303.71 L2931.27 303.23 L2934.87 302.03 L2936.55 301.43 L2937.39 304.31 L2938.71 303.95 L2939.79 303.59 L2941.11 303.35 L2960.90 297.36 L3017.75 281.04 L3018.59 280.80 L3048.33 272.05 L3063.32 267.97 L3066.68 267.01 L3106.14 255.49 L3127.97 249.38 L3147.16 243.98 L3170.43 237.14 L3177.74 235.10 L3183.50 233.42 L3192.38 230.78 L3194.30 230.30 L3194.18 233.90 L3197.17 235.82 L3196.81 237.86 L3199.09 238.46 L3246.47 242.06 L3247.79 240.38 L3249.83 238.82 L3253.42 236.42 L3266.98 230.18 L3295.64 209.55 L3300.20 206.79 L3308.24 201.28 L3309.20 205.59 L3310.39 209.67 L3311.35 212.91 L3313.27 219.87 L3314.83 225.87 L3317.23 235.94 L3323.11 256.33 L3324.91 262.33 L3330.90 282.60 L3335.34 298.32 L3339.30 311.27 L3342.06 321.47 L3353.21 359.97 L3356.69 372.56 L3364.25 370.17 L3367.13 369.33 L3371.68 368.01 L3374.92 367.05 L3380.08 365.49 L3385.48 363.81 L3388.23 362.97 L3399.03 359.61 L3412.58 355.29 L3411.74 350.97 L3411.50 349.89 L3411.38 348.93 L3411.38 348.09 L3411.50 347.26 L3411.74 346.54 L3412.10 345.58 L3412.58 344.50 L3413.54 342.70 L3415.34 339.70 L3419.42 332.74 L3427.09 320.87 L3439.09 300.95 L3444.37 292.80 L3449.28 285.36 L3450.60 283.32 L3452.16 281.52 L3453.60 280.08 L3455.40 278.28 L3458.28 276.24 L3461.04 274.45 L3464.03 272.65 L3466.07 271.69 L3468.11 270.97 L3471.35 270.13 L3473.99 269.89 L3477.59 269.53 L3480.95 269.53 L3484.18 269.65 L3489.70 270.25 L3483.82 268.57 L3476.39 267.13 L3467.15 265.93 L3461.28 265.69 L3456.24 264.85 L3449.40 263.29 L3441.37 261.13 L3445.44 252.37 L3453.48 216.63 L3454.68 211.23 L3455.40 205.47 L3458.64 167.45 L3459.00 161.69 L3458.88 156.29 L3457.92 151.98 L3457.08 148.62 L3462.48 145.86 L3468.71 142.50 L3474.47 139.26 L3480.11 135.90 L3484.30 133.26 L3486.82 131.59 L3492.70 127.75 L3500.26 122.47 L3510.33 115.39 L3533.96 98.96 L3555.43 83.61 L3568.62 74.61 L3579.89 66.69 L3587.81 60.81 L3591.17 58.30 L3592.85 57.10 L3598.13 53.14 L3607.12 45.94 L3611.80 42.10 L3621.51 33.59 L3624.27 31.31 L3627.63 28.31 L3628.71 30.35 L3630.51 33.95 L3632.91 38.74 L3633.39 39.94 L3635.67 44.50 L3639.26 52.06 L3640.94 56.02 L3642.74 60.09 L3643.58 62.25 L3644.18 63.57 L3645.26 66.09 L3646.58 69.21 L3646.94 70.29 L3647.54 71.97 L3648.02 73.77 L3648.86 76.41 L3649.10 77.49 L3649.58 79.29 L3650.06 81.09 L3650.42 82.77 L3650.90 85.16 L3651.50 88.52 L3651.98 91.28 L3652.22 92.96 L3652.82 96.92 L3653.30 99.56 L3651.74 99.56 L3652.22 103.88 L3657.37 133.14 L3658.45 133.98 L3656.17 137.82 L3655.93 141.18 L3661.33 170.57 L3675.24 204.51 L3680.04 212.19 L3685.44 215.79 L3689.04 215.31 L3689.76 217.47 L3690.48 219.27 L3691.08 221.31 L3691.56 222.99 L3693.24 231.98 L3695.15 241.94 L3698.15 257.29 L3698.99 261.85 L3691.08 261.37 L3689.88 262.09 L3688.32 262.93 L3685.20 264.49 L3681.36 266.41 L3675.60 269.05 L3674.29 269.65 L3672.37 270.49 L3670.33 271.45 L3666.73 273.01 L3664.21 274.09 L3661.57 281.28 L3667.69 288.12 L3653.06 289.08 L3654.26 297.12 L3656.89 316.43 L3658.45 331.54 L3665.29 331.54 L3674.77 329.98 L3680.40 328.18 L3683.28 326.98 L3685.32 326.26 L3704.03 318.47 L3708.83 320.15 L3709.55 325.06 L3710.03 327.82 L3710.75 332.02 L3711.23 335.38 L3715.78 367.65 L3717.58 378.92 L3718.90 389.72 L3719.74 397.03 L3630.51 445.37 L3628.83 451.13 L3630.75 455.21 L3636.74 463.49 L3646.34 477.88 L3651.74 480.52 L3658.33 481.84 L3671.77 481.48 L3675.24 478.72 L3679.20 485.08 L3681.36 493.47 L3682.08 494.91 L3683.28 495.63 L3684.84 495.87 L3693.84 493.47 L3707.75 490.60 L3711.83 489.04 L3711.71 481.36 L3711.11 478.12 L3710.39 476.80 L3709.79 473.08 L3707.51 464.33 L3704.63 458.21 L3702.59 456.05 L3713.86 447.77 L3718.42 444.41 L3719.98 444.29 L3721.78 443.34 L3723.70 442.14 L3723.22 455.21 L3724.30 461.69 L3726.10 471.28 L3726.34 472.72 L3727.90 481.96 L3728.50 485.44 L3729.94 493.59 L3730.66 497.19 L3731.14 499.95 L3731.50 502.11 L3731.62 503.31 L3731.86 504.87 L3731.98 505.83 L3732.57 509.55 L3735.69 528.98 L3736.41 532.94 L3738.69 544.93 L3741.21 556.81 L3742.29 561.13 L3744.21 569.40 L3744.81 571.80 L3746.85 579.24 L3747.57 581.64 L3748.41 585.00 L3749.37 587.76 L3750.45 590.87 L3751.29 592.91 L3751.88 594.35 L3756.56 602.99 L3758.48 606.23 L3761.96 611.51 L3764.12 610.79 L3765.92 609.95 L3768.08 613.06 L3771.07 617.02 L3774.31 621.22 L3775.99 623.38 L3776.47 624.10 L3779.83 629.02 L3783.55 634.66 L3785.71 638.13 L3786.79 640.17 L3789.79 645.93 L3792.66 652.17 L3795.42 659.25 L3799.74 670.64 L3800.34 671.96 L3796.98 672.92 L3791.10 674.48 L3776.23 678.32 L3765.44 681.32 L3752.96 684.19 L3730.78 689.71 L3712.67 693.31 L3710.51 693.79 L3709.19 694.15 L3696.95 691.63 L3690.36 691.15 L3670.21 688.99 L3670.33 679.40 L3652.22 625.54 L3648.98 616.30 L3648.38 614.50 L3687.12 555.85 L3677.88 553.81 L3672.25 553.09 L3664.69 553.45 L3657.25 557.29 L3652.34 554.29 L3647.90 550.81 L3644.18 549.13 L3639.38 548.65 L3616.48 545.17 L3614.56 560.65 L3613.60 568.80 L3611.20 585.12 L3611.08 586.80 L3610.36 596.87 L3609.64 600.11 L3609.04 602.27 L3608.68 603.83 L3605.80 610.91 L3600.28 622.06 L3594.65 631.54 L3593.81 633.34 L3591.41 638.61 L3571.86 677.36 L3567.66 685.27 L3562.98 695.95 L3557.83 707.35 L3555.91 710.22 L3543.07 726.54 L3532.76 738.17 L3529.88 741.77 L3529.76 742.37 L3529.52 743.33 L3531.20 752.93 L3531.32 753.89 L3533.48 764.68 L3533.72 767.44 L3533.36 769.12 L3532.40 770.68 L3528.20 775.96 L3518.85 783.99 L3516.45 786.39 L3514.89 788.31 L3512.73 792.03 L3509.37 804.38 L3507.09 814.94 L3505.89 820.70 L3510.45 818.42 L3515.61 816.50 L3524.48 815.30 L3520.41 822.26 L3513.81 832.09 L3486.58 818.54 L3482.15 861.48 L3494.38 865.32 L3502.65 869.28 L3509.13 871.68 L3515.13 874.56 L3523.16 879.59 L3534.20 885.71 L3537.80 888.11 L3544.63 894.11 L3551.35 898.91 L3556.15 904.54 L3567.06 918.70 L3576.90 931.65 L3596.21 957.92 L3600.16 962.60 L3607.24 973.51 L3608.92 975.67 L3618.99 988.99 L3626.55 999.78 L3631.35 1004.94 L3638.66 1018.02 L3644.90 1026.89 L3646.82 1029.29 L3648.86 1031.45 L3652.34 1034.33 L3654.14 1036.01 L3655.22 1037.45 L3656.05 1039.01 L3656.65 1040.93 L3657.01 1042.61 L3657.37 1045.12 L3654.86 1051.12 L3653.78 1053.52 L3652.34 1056.64 L3648.98 1064.68 L3648.26 1066.96 L3647.42 1069.83 L3646.82 1072.23 L3646.46 1074.39 L3645.98 1076.79 L3644.90 1087.71 L3644.54 1091.79 L3644.18 1093.70 L3643.70 1095.62 L3643.10 1097.42 L3642.02 1099.46 L3640.58 1101.62 L3639.02 1103.78 L3636.15 1106.54 L3628.35 1114.58 L3626.43 1116.61 L3624.63 1118.77 L3623.79 1120.21 L3622.83 1122.13 L3621.87 1124.29 L3616.96 1136.41 L3610.12 1154.88 L3606.16 1165.43 L3602.56 1175.15 L3598.36 1186.43 L3597.53 1188.46 L3596.33 1190.14 L3595.25 1191.58 L3593.81 1192.66 L3592.61 1193.38 L3589.85 1194.70 L3587.33 1195.78 L3574.26 1201.30 L3571.98 1202.50 L3571.26 1202.98 L3570.54 1203.70 L3570.06 1204.42 L3569.70 1205.14 L3569.34 1206.22 L3569.10 1208.02 L3568.98 1215.57 L3568.86 1275.55 L3568.86 1291.86 L3568.86 1294.62 L3568.62 1300.62 L3564.78 1300.74 L3559.98 1300.86 L3550.39 1301.22 L3550.51 1304.82 L3544.27 1304.94 L3533.72 1305.06 L3519.21 1305.30 L3519.45 1311.65 L3519.81 1320.41 L3519.93 1328.09 L3519.93 1337.92 L3520.17 1364.91 L3520.05 1385.78 L3519.69 1392.50 L3519.09 1396.34 L3518.01 1398.98 L3518.01 1398.98 Z" stroke-linejoin="round"/>
	</defs>
	<use xlink:href="#path_ohAXLfqs" style="fill:#09757A;stroke:#00465F;stroke-width:5.76"/>
</svg>
