<?xml version="1.0" encoding="UTF-8" standalone="no"?>
<!-- This is a Stata 16.1 generated SVG file (http://www.stata.com) -->

<svg version="1.1" width="4.00in" height="8.99in" viewBox="0 0 2880 6473" xmlns="http://www.w3.org/2000/svg" xmlns:xlink="http://www.w3.org/1999/xlink">
	<desc>Stata Graph - Graph</desc>
	<rect x="0" y="0" width="2880" height="6473" style="fill:#FFFFFF;stroke:none"/>
	<defs>
		<path id="path_elzexait" d="M742.25 6398.56 L742.25 6398.56 L631.39 6397.55 L594.37 6398.56 L520.53 6402.00 L355.04 6408.88 L349.99 6409.28 L340.07 6409.69 L337.85 6387.44 L337.85 6380.56 L340.88 6355.07 L340.28 6338.89 L335.62 6326.35 L326.11 6317.04 L314.58 6310.57 L284.44 6299.04 L266.03 6287.91 L248.02 6272.94 L226.78 6251.30 L217.48 6237.14 L214.24 6232.29 L208.58 6212.87 L203.92 6189.40 L199.88 6165.33 L203.11 6144.09 L206.35 6131.14 L212.22 6122.65 L222.13 6119.82 L236.90 6121.44 L283.23 6133.98 L327.53 6139.44 L366.37 6137.82 L399.75 6123.86 L416.95 6110.71 L420.59 6103.63 L420.19 6095.54 L415.13 6085.23 L403.60 6073.49 L383.57 6048.21 L373.25 6032.03 L361.52 5985.30 L357.27 5950.31 L347.36 5903.17 L331.98 5870.00 L319.03 5839.86 L315.39 5827.72 L316.40 5807.70 L323.08 5792.12 L330.56 5782.82 L343.51 5777.35 L353.83 5775.74 L370.01 5775.94 L380.74 5776.75 L394.49 5784.03 L413.10 5795.96 L436.37 5818.82 L462.26 5840.26 L488.36 5859.89 L507.99 5880.32 L522.15 5898.93 L528.82 5919.15 L540.96 5944.64 L556.54 5967.30 L567.87 5979.64 L585.47 5989.35 L595.99 5990.96 L606.91 5985.70 L611.36 5979.43 L616.42 5966.69 L626.94 5934.53 L636.45 5915.11 L649.60 5894.68 L660.12 5883.75 L682.17 5870.81 L695.93 5867.77 L712.51 5864.34 L731.13 5863.53 L751.36 5864.94 L767.54 5870.00 L786.76 5878.90 L800.52 5891.04 L813.87 5912.88 L820.75 5940.80 L826.01 5972.96 L834.30 6002.29 L845.02 6014.83 L857.36 6023.13 L867.08 6026.97 L882.25 6026.57 L902.68 6020.09 L918.26 6008.97 L931.21 5992.58 L940.31 5975.79 L945.97 5953.14 L945.77 5926.03 L940.11 5896.70 L936.67 5863.12 L937.48 5845.12 L941.12 5828.13 L946.38 5811.54 L949.62 5792.93 L948.00 5782.01 L943.95 5774.73 L939.70 5770.88 L924.73 5765.22 L914.82 5764.00 L902.68 5765.62 L887.10 5770.07 L867.88 5777.76 L852.10 5780.39 L831.06 5778.77 L819.74 5777.56 L811.04 5771.89 L804.77 5763.20 L804.56 5752.88 L807.40 5743.78 L816.70 5734.67 L826.82 5725.17 L840.37 5716.27 L860.60 5701.30 L873.75 5689.56 L887.10 5673.38 L898.23 5646.68 L903.69 5619.37 L907.74 5593.08 L911.58 5575.88 L921.09 5558.28 L938.29 5538.26 L956.49 5522.28 L972.27 5503.67 L984.21 5479.60 L990.28 5460.99 L990.68 5427.41 L989.47 5403.34 L983.20 5383.31 L976.12 5366.52 L963.37 5349.33 L943.75 5327.08 L925.14 5311.91 L914.41 5303.81 L901.26 5301.18 L878.00 5301.59 L848.87 5304.62 L825.40 5305.63 L796.27 5302.60 L786.96 5299.36 L773.81 5292.89 L757.02 5279.74 L741.65 5264.17 L714.74 5227.76 L678.93 5166.47 L664.37 5137.74 L645.75 5092.03 L636.04 5059.05 L626.74 5019.00 L618.04 4988.66 L616.22 4983.40 L600.64 4940.52 L597.40 4929.39 L590.93 4897.63 L589.31 4879.23 L590.53 4860.62 L593.76 4843.62 L603.47 4816.92 L618.85 4786.99 L618.85 4786.78 L618.85 4786.58 L618.85 4786.58 L618.65 4786.58 L617.23 4787.19 L617.03 4787.19 L617.03 4787.19 L617.03 4786.99 L616.82 4786.99 L620.06 4777.07 L627.34 4766.15 L638.27 4747.74 L642.72 4739.05 L642.92 4738.64 L644.34 4734.19 L648.79 4722.26 L651.01 4712.34 L652.63 4697.98 L652.43 4685.85 L650.61 4677.75 L646.77 4672.09 L646.16 4670.88 L645.15 4669.66 L643.73 4667.84 L641.10 4664.61 L635.64 4658.74 L627.14 4654.09 L618.24 4650.65 L609.14 4648.42 L605.70 4646.80 L586.07 4646.20 L568.68 4646.40 L550.87 4647.82 L538.74 4648.22 L528.22 4645.79 L515.47 4640.94 L503.33 4634.26 L489.98 4622.53 L482.29 4612.01 L474.00 4598.46 L470.76 4586.53 L470.96 4581.06 L471.57 4576.21 L472.18 4564.88 L476.83 4554.77 L485.73 4541.82 L496.45 4531.71 L506.77 4521.59 L513.65 4513.50 L522.96 4504.80 L530.44 4498.53 L536.11 4491.66 L548.85 4478.30 L558.36 4463.94 L566.25 4450.79 L577.17 4431.78 L583.44 4419.64 L590.12 4407.51 L595.38 4400.02 L596.39 4393.75 L600.24 4388.29 L607.11 4378.98 L623.91 4362.40 L636.25 4351.47 L637.66 4350.06 L646.97 4341.16 L658.09 4333.07 L679.94 4318.91 L694.11 4310.41 L704.83 4304.75 L706.45 4303.74 L711.10 4301.51 L715.35 4299.29 L726.88 4289.58 L741.04 4276.43 L752.17 4265.30 L755.81 4259.64 L755.81 4258.63 L755.81 4253.37 L754.59 4243.66 L752.17 4230.31 L749.74 4223.63 L747.72 4220.19 L746.10 4217.97 L744.48 4215.74 L741.04 4211.09 L735.38 4205.63 L735.17 4205.22 L732.34 4202.60 L727.89 4199.16 L719.80 4194.91 L709.28 4191.67 L697.95 4189.04 L697.14 4188.84 L693.70 4187.83 L674.48 4186.82 L662.55 4187.63 L660.12 4187.83 L651.62 4188.23 L638.07 4192.08 L622.29 4199.36 L609.54 4210.28 L595.58 4220.19 L587.09 4230.31 L552.49 4250.33 L521.54 4270.97 L503.33 4282.29 L482.29 4291.80 L467.32 4302.52 L451.95 4314.05 L439.81 4321.13 L426.05 4326.59 L412.50 4328.82 L396.31 4325.58 L378.92 4319.92 L363.94 4312.64 L349.58 4305.96 L334.21 4295.85 L322.07 4285.33 L312.96 4276.63 L305.07 4269.35 L302.04 4262.88 L289.70 4244.47 L282.21 4229.90 L274.73 4215.95 L271.09 4206.03 L268.66 4189.24 L268.05 4178.12 L268.26 4167.40 L269.87 4153.44 L272.30 4138.07 L271.90 4122.49 L271.29 4108.53 L266.43 4093.16 L259.35 4080.22 L252.27 4070.10 L241.55 4056.75 L233.46 4044.61 L223.55 4030.66 L217.07 4021.55 L209.99 4013.46 L207.97 3999.91 L204.93 3991.21 L196.03 3944.08 L188.35 3913.54 L173.98 3872.27 L171.15 3851.03 L188.14 3821.30 L232.65 3810.37 L235.89 3817.25 L236.49 3829.39 L234.27 3845.97 L230.22 3880.16 L230.83 3908.88 L235.89 3934.37 L246.00 3959.05 L264.82 3987.37 L271.09 3992.43 L281.81 4005.98 L297.39 4017.10 L311.75 4022.56 L332.79 4024.79 L344.52 4025.40 L353.22 4023.58 L359.70 4022.77 L374.67 4018.32 L394.29 4010.43 L412.90 4002.54 L431.72 3991.21 L443.86 3980.69 L451.34 3973.41 L460.24 3965.52 L471.57 3958.24 L489.58 3951.97 L512.44 3944.08 L523.16 3942.66 L537.32 3941.05 L538.94 3940.64 L544.80 3938.21 L567.06 3928.91 L641.91 3902.01 L668.61 3876.32 L677.52 3862.36 L691.27 3822.51 L691.68 3814.42 L672.86 3774.16 L659.31 3760.00 L607.72 3688.60 L603.07 3624.27 L608.94 3566.62 L607.32 3547.20 L608.33 3508.77 L607.11 3462.25 L607.52 3439.39 L607.72 3437.37 L605.50 3388.62 L604.89 3381.74 L561.80 3379.51 L545.61 3378.10 L461.46 3394.08 L428.68 3375.26 L418.97 3332.99 L420.39 3297.18 L441.43 3235.89 L463.48 3233.67 L489.17 3231.85 L529.43 3258.55 L551.89 3278.98 L559.98 3291.52 L597.81 3313.57 L628.96 3306.49 L639.28 3282.01 L635.03 3266.84 L629.77 3251.06 L626.54 3242.37 L624.51 3235.29 L619.86 3222.74 L605.70 3185.73 L602.06 3173.39 L614.40 3171.77 L614.40 3171.57 L618.24 3164.69 L623.30 3162.87 L625.32 3162.26 L632.20 3159.84 L641.10 3156.40 L642.11 3155.99 L643.93 3154.98 L645.15 3154.17 L645.15 3154.17 L645.75 3153.77 L646.97 3152.76 L648.59 3151.14 L658.30 3142.64 L667.81 3133.94 L668.82 3133.13 L678.33 3124.64 L688.44 3115.74 L692.49 3111.89 L698.56 3106.43 L699.57 3105.42 L708.47 3097.33 L718.38 3088.43 L728.50 3079.33 L733.15 3075.08 L735.58 3073.06 L738.61 3070.43 L742.86 3066.58 L748.32 3061.53 L748.73 3061.12 L751.56 3058.29 L752.17 3057.89 L757.83 3052.83 L759.25 3051.61 L760.26 3050.81 L761.07 3050.00 L762.48 3048.78 L765.32 3046.15 L766.53 3045.14 L767.74 3044.33 L768.76 3043.32 L769.36 3042.71 L770.58 3041.70 L832.28 3045.75 L840.57 3046.15 L847.86 3046.15 L849.88 3044.33 L851.90 3042.51 L856.76 3038.06 L858.58 3036.44 L859.99 3035.23 L870.11 3025.72 L882.85 3041.91 L880.02 3045.95 L885.28 3046.15 L887.31 3046.36 L899.85 3047.37 L909.15 3047.77 L914.01 3048.18 L916.23 3048.18 L931.41 3049.39 L937.07 3049.79 L941.52 3050.20 L946.18 3050.60 L946.18 3051.01 L950.02 3051.61 L952.65 3051.61 L953.66 3051.61 L958.52 3052.02 L964.38 3052.22 L981.58 3053.44 L983.00 3053.64 L988.86 3054.04 L996.95 3054.45 L1000.60 3054.65 L1008.49 3055.46 L1017.39 3057.08 L1026.29 3059.10 L1093.25 3075.08 L1103.77 3078.11 L1120.36 3081.75 L1122.38 3082.16 L1163.05 3091.87 L1166.08 3092.88 L1184.09 3097.33 L1193.59 3099.35 L1207.96 3102.19 L1212.61 3102.79 L1217.47 3102.99 L1218.88 3103.20 L1231.22 3104.81 L1235.07 3105.42 L1253.68 3106.43 L1302.23 3110.07 L1305.06 3110.28 L1314.98 3110.88 L1323.88 3111.49 L1437.57 3119.38 L1543.78 3126.46 L1616.41 3131.92 L1616.41 3129.49 L1617.22 3122.21 L1622.68 3080.74 L1616.61 3079.73 L1608.32 3077.91 L1611.15 3064.56 L1613.17 3051.82 L1614.59 3051.82 L1618.03 3052.02 L1625.31 3052.42 L1636.44 3053.03 L1646.15 3053.64 L1650.19 3053.84 L1650.80 3053.84 L1671.23 3055.26 L1705.02 3057.28 L1747.10 3059.30 L1764.29 3060.31 L1788.17 3061.73 L1827.61 3063.55 L1829.03 3063.55 L1829.84 3065.17 L1834.29 3074.07 L1834.49 3077.51 L1837.33 3144.46 L1837.53 3145.47 L1837.53 3146.69 L1853.10 3146.89 L1889.52 3149.72 L1892.15 3149.72 L1904.09 3150.53 L1912.99 3152.15 L1924.32 3151.74 L1930.59 3153.16 L1933.01 3152.76 L1933.82 3152.96 L1935.85 3152.76 L1944.95 3153.16 L1964.37 3154.58 L1965.18 3154.37 L2059.86 3160.85 L2072.00 3161.86 L2225.95 3172.38 L2225.95 3173.39 L2225.95 3174.20 L2299.39 3179.05 L2308.49 3179.66 L2314.56 3180.27 L2329.53 3181.07 L2359.67 3183.30 L2389.82 3185.32 L2413.49 3186.94 L2419.96 3187.35 L2480.25 3191.39 L2490.16 3192.00 L2500.48 3192.81 L2508.57 3193.41 L2515.45 3193.82 L2526.98 3194.63 L2534.46 3195.03 L2538.71 3195.44 L2539.12 3198.47 L2539.52 3200.49 L2539.93 3202.11 L2540.33 3204.14 L2540.74 3205.75 L2541.34 3206.36 L2542.15 3206.56 L2542.96 3206.76 L2542.76 3211.82 L2537.09 3224.16 L2535.68 3230.43 L2533.86 3233.87 L2527.38 3238.12 L2521.52 3242.77 L2518.69 3247.42 L2517.67 3249.45 L2513.22 3257.94 L2511.81 3260.77 L2511.60 3262.39 L2510.80 3263.61 L2508.97 3270.08 L2505.33 3279.99 L2501.29 3289.50 L2500.07 3291.32 L2496.84 3303.25 L2495.62 3309.32 L2494.41 3312.96 L2490.77 3320.45 L2484.09 3327.32 L2478.83 3333.59 L2477.82 3336.63 L2475.39 3345.93 L2474.58 3347.15 L2474.38 3353.22 L2475.39 3356.66 L2476.00 3357.26 L2476.81 3360.09 L2478.02 3361.91 L2479.03 3366.16 L2484.09 3376.28 L2484.70 3377.09 L2485.91 3378.30 L2486.92 3379.11 L2488.95 3380.73 L2489.76 3382.55 L2490.36 3384.37 L2489.76 3386.19 L2488.14 3388.82 L2487.13 3390.23 L2485.91 3393.07 L2485.91 3397.11 L2486.92 3401.16 L2488.95 3408.44 L2483.28 3420.17 L2479.44 3429.07 L2474.99 3435.54 L2468.11 3439.39 L2461.23 3442.83 L2455.36 3456.18 L2451.12 3470.54 L2447.07 3486.92 L2440.60 3507.15 L2437.16 3519.49 L2435.94 3523.54 L2435.94 3528.19 L2438.98 3532.44 L2441.20 3537.49 L2444.44 3543.56 L2444.44 3548.01 L2445.05 3553.07 L2448.69 3558.94 L2452.33 3561.36 L2455.57 3562.98 L2457.59 3561.97 L2459.81 3561.57 L2461.03 3562.98 L2462.65 3565.21 L2467.30 3569.25 L2471.55 3570.67 L2476.61 3572.29 L2478.83 3576.94 L2481.66 3582.40 L2485.30 3588.06 L2486.32 3597.17 L2485.51 3605.87 L2482.27 3609.71 L2476.00 3615.98 L2470.54 3622.05 L2464.06 3630.75 L2460.62 3636.61 L2459.61 3640.86 L2459.81 3645.92 L2460.83 3652.19 L2460.62 3660.08 L2458.60 3663.92 L2457.79 3670.60 L2457.39 3676.87 L2457.59 3684.15 L2456.78 3688.60 L2454.76 3691.63 L2451.72 3691.23 L2443.83 3690.22 L2438.98 3690.62 L2432.50 3688.19 L2429.06 3686.37 L2427.45 3687.18 L2426.03 3685.77 L2424.61 3683.74 L2422.39 3682.13 L2420.77 3681.72 L2418.54 3682.33 L2417.33 3684.96 L2416.72 3688.40 L2414.90 3690.01 L2413.49 3691.03 L2414.09 3693.86 L2414.09 3696.69 L2411.87 3698.91 L2410.86 3700.94 L2410.86 3703.97 L2409.44 3706.80 L2407.01 3709.64 L2405.19 3710.24 L2403.17 3712.06 L2402.97 3714.69 L2403.57 3716.72 L2405.39 3716.92 L2406.61 3717.52 L2407.01 3720.36 L2408.23 3727.84 L2406.61 3735.33 L2401.75 3742.20 L2398.11 3747.06 L2396.49 3750.90 L2390.83 3754.34 L2385.16 3756.97 L2381.32 3761.82 L2380.31 3767.29 L2376.67 3773.15 L2375.25 3778.01 L2374.85 3785.90 L2371.61 3791.56 L2363.52 3797.02 L2355.83 3799.25 L2345.72 3804.91 L2333.78 3809.97 L2332.16 3810.57 L2324.47 3815.23 L2319.42 3821.50 L2301.01 3850.22 L2279.56 3880.36 L2262.77 3905.85 L2251.44 3919.81 L2249.62 3926.89 L2250.63 3930.73 L2254.27 3939.83 L2253.87 3945.90 L2251.04 3952.98 L2248.41 3960.67 L2246.59 3970.98 L2245.37 3981.91 L2240.72 3988.99 L2233.84 3995.46 L2225.34 4002.74 L2221.91 4008.81 L2220.29 4015.28 L2217.05 4021.15 L2214.62 4021.96 L2209.77 4022.56 L2202.28 4022.56 L2196.41 4020.74 L2194.39 4020.14 L2189.33 4020.54 L2171.94 4047.45 L2169.91 4052.30 L2170.72 4057.56 L2172.54 4059.99 L2173.76 4061.81 L2177.80 4064.23 L2179.22 4064.64 L2181.04 4065.04 L2181.65 4065.04 L2184.68 4068.08 L2184.68 4069.09 L2185.29 4069.70 L2185.69 4080.82 L2187.31 4093.97 L2186.30 4095.18 L2184.28 4097.21 L2181.24 4097.41 L2178.01 4096.20 L2175.38 4098.02 L2173.96 4100.04 L2171.33 4101.25 L2169.31 4101.25 L2167.49 4103.68 L2165.46 4104.29 L2163.24 4105.10 L2161.82 4107.73 L2161.21 4109.14 L2160.61 4113.39 L2161.42 4115.21 L2162.23 4118.45 L2160.61 4125.53 L2157.37 4131.80 L2154.74 4133.01 L2151.91 4135.03 L2151.50 4137.26 L2149.48 4140.29 L2146.85 4140.29 L2144.22 4140.29 L2142.80 4140.90 L2141.79 4145.96 L2142.20 4148.59 L2142.60 4152.43 L2142.60 4154.45 L2140.58 4156.27 L2137.75 4156.68 L2134.51 4157.49 L2130.06 4160.12 L2125.61 4159.10 L2123.18 4157.28 L2122.78 4155.67 L2121.97 4153.64 L2120.75 4153.44 L2116.50 4150.61 L2114.08 4147.17 L2111.24 4143.33 L2108.01 4140.90 L2099.92 4152.83 L2091.82 4159.71 L2074.43 4169.02 L2063.70 4179.54 L2057.23 4188.44 L2052.17 4202.19 L2042.66 4230.51 L2034.57 4257.01 L2033.16 4261.66 L2032.75 4262.47 L2028.30 4277.24 L2022.03 4293.42 L2020.01 4297.06 L2014.14 4302.32 L2006.45 4310.21 L1996.94 4325.99 L1984.60 4355.92 L1982.58 4359.57 L1978.74 4359.16 L1975.90 4358.55 L1970.04 4356.53 L1965.59 4356.33 L1961.74 4358.55 L1958.51 4361.18 L1956.28 4363.61 L1954.05 4366.44 L1952.64 4370.08 L1952.64 4377.37 L1952.84 4384.24 L1954.26 4391.32 L1956.28 4396.18 L1957.09 4397.59 L1958.51 4402.65 L1959.31 4405.48 L1959.72 4414.18 L1959.72 4415.19 L1955.88 4424.90 L1949.81 4433.60 L1944.95 4443.51 L1939.89 4453.42 L1938.27 4464.55 L1938.68 4475.47 L1938.07 4483.97 L1930.79 4488.42 L1926.74 4494.08 L1923.91 4503.79 L1924.32 4514.92 L1922.50 4522.00 L1919.66 4530.29 L1917.84 4535.95 L1916.02 4545.66 L1913.19 4552.74 L1911.17 4556.99 L1911.17 4558.41 L1909.14 4561.24 L1908.33 4564.07 L1899.63 4575.20 L1897.00 4578.43 L1882.84 4597.65 L1855.53 4659.75 L1853.51 4694.14 L1854.72 4733.99 L1854.12 4747.34 L1853.51 4756.85 L1847.64 4767.97 L1838.13 4778.69 L1832.07 4787.79 L1826.40 4799.73 L1820.33 4847.27 L1819.52 4873.76 L1817.70 4879.23 L1813.45 4882.26 L1811.43 4883.68 L1802.53 4887.11 L1799.90 4888.13 L1795.04 4890.15 L1792.01 4894.60 L1789.99 4903.30 L1793.22 4910.38 L1799.70 4914.02 L1802.53 4913.41 L1810.01 4912.00 L1811.83 4911.79 L1815.07 4913.21 L1816.49 4919.28 L1820.33 4930.20 L1828.83 4943.15 L1834.09 4952.86 L1835.71 4963.98 L1840.16 4986.03 L1849.67 5013.74 L1851.08 5023.45 L1848.86 5035.18 L1845.42 5043.68 L1838.13 5051.97 L1828.42 5059.86 L1818.71 5070.18 L1806.78 5085.35 L1800.71 5095.87 L1797.88 5107.20 L1797.47 5128.23 L1799.29 5153.52 L1801.92 5172.94 L1804.96 5187.30 L1812.44 5204.09 L1820.53 5220.88 L1824.78 5237.06 L1826.60 5248.19 L1823.16 5288.64 L1812.24 5322.63 L1803.74 5339.01 L1799.29 5350.14 L1800.30 5365.11 L1802.12 5380.28 L1803.14 5389.38 L1801.52 5398.68 L1794.44 5412.24 L1783.92 5431.05 L1778.25 5443.19 L1773.60 5444.00 L1771.37 5444.40 L1760.25 5446.22 L1748.31 5449.25 L1741.23 5455.32 L1741.03 5463.82 L1742.04 5469.48 L1743.05 5474.94 L1742.04 5479.19 L1741.84 5482.23 L1741.03 5483.44 L1741.03 5491.13 L1738.20 5506.10 L1738.60 5515.00 L1740.42 5516.82 L1745.48 5516.82 L1759.64 5513.98 L1767.73 5516.01 L1772.59 5520.26 L1770.97 5544.33 L1767.73 5602.38 L1759.64 5635.35 L1754.79 5657.00 L1754.18 5659.02 L1751.75 5683.09 L1750.13 5701.09 L1747.70 5715.86 L1744.47 5725.98 L1744.06 5744.18 L1743.25 5759.15 L1739.61 5798.19 L1738.20 5811.94 L1734.96 5823.88 L1725.25 5844.51 L1714.93 5866.76 L1704.01 5895.49 L1690.86 5942.21 L1674.87 5986.92 L1664.15 6004.72 L1655.25 6015.24 L1629.36 6043.35 L1617.42 6056.50 L1609.94 6067.83 L1598.61 6076.12 L1593.35 6080.37 L1591.32 6086.85 L1591.32 6094.73 L1594.16 6103.03 L1591.73 6103.63 L1484.10 6106.47 L1376.48 6109.30 L1375.47 6109.50 L1210.59 6120.02 L1045.71 6130.34 L1018.20 6130.94 L1009.29 6130.94 L1006.87 6131.14 L995.34 6131.95 L995.13 6131.95 L985.42 6132.97 L982.39 6132.97 L978.95 6133.17 L847.65 6139.84 L824.39 6140.85 L834.71 6340.51 L838.55 6391.48 L742.25 6398.56 L742.25 6398.56 Z" stroke-linejoin="round"/>
	</defs>
	<use xlink:href="#path_elzexait" style="fill:#9DC8CA;stroke:#6BB4D2;stroke-width:5.76"/>
	<defs>
		<path id="path_pDqulypR" d="M2538.51 3194.02 L2538.51 3194.02 L2538.51 3194.02 L2538.71 3195.44 L2534.46 3195.03 L2526.98 3194.63 L2515.45 3193.82 L2508.57 3193.41 L2500.48 3192.81 L2490.16 3192.00 L2480.25 3191.39 L2419.96 3187.35 L2413.49 3186.94 L2389.82 3185.32 L2359.67 3183.30 L2329.53 3181.07 L2314.56 3180.27 L2308.49 3179.66 L2299.39 3179.05 L2225.95 3174.20 L2225.95 3173.39 L2225.95 3172.38 L2072.00 3161.86 L2059.86 3160.85 L1965.18 3154.37 L1964.37 3154.58 L1944.95 3153.16 L1935.85 3152.76 L1933.82 3152.96 L1933.01 3152.76 L1930.59 3153.16 L1924.32 3151.74 L1912.99 3152.15 L1904.09 3150.53 L1892.15 3149.72 L1889.52 3149.72 L1853.10 3146.89 L1837.53 3146.69 L1837.53 3145.47 L1837.33 3144.46 L1834.49 3077.51 L1834.29 3074.07 L1829.84 3065.17 L1829.03 3063.55 L1827.61 3063.55 L1788.17 3061.73 L1764.29 3060.31 L1747.10 3059.30 L1705.02 3057.28 L1671.23 3055.26 L1650.80 3053.84 L1650.19 3053.84 L1646.15 3053.64 L1636.44 3053.03 L1625.31 3052.42 L1618.03 3052.02 L1614.59 3051.82 L1613.17 3051.82 L1611.15 3064.56 L1608.32 3077.91 L1616.61 3079.73 L1622.68 3080.74 L1617.22 3122.21 L1616.41 3129.49 L1616.41 3131.92 L1543.78 3126.46 L1437.57 3119.38 L1323.88 3111.49 L1314.98 3110.88 L1305.06 3110.28 L1302.23 3110.07 L1253.68 3106.43 L1235.07 3105.42 L1231.22 3104.81 L1218.88 3103.20 L1217.47 3102.99 L1212.61 3102.79 L1207.96 3102.19 L1193.59 3099.35 L1184.09 3097.33 L1166.08 3092.88 L1163.05 3091.87 L1122.38 3082.16 L1120.36 3081.75 L1103.77 3078.11 L1093.25 3075.08 L1026.29 3059.10 L1017.39 3057.08 L1008.49 3055.46 L1000.60 3054.65 L996.95 3054.45 L988.86 3054.04 L983.00 3053.64 L981.58 3053.44 L964.38 3052.22 L958.52 3052.02 L953.66 3051.61 L952.65 3051.61 L950.02 3051.61 L946.18 3051.01 L946.18 3050.60 L946.38 3046.76 L946.99 3037.25 L947.39 3030.17 L947.39 3025.12 L947.39 3020.67 L947.59 3016.62 L947.59 3015.20 L947.79 3013.99 L947.79 3012.37 L947.79 3010.55 L948.00 3007.92 L948.20 3005.90 L945.97 3005.70 L944.56 3005.29 L943.55 3004.89 L943.34 3004.69 L942.94 3004.28 L942.33 3003.27 L941.93 3002.06 L941.93 3000.84 L941.93 2999.43 L942.13 2998.01 L942.74 2995.99 L942.94 2994.57 L943.14 2993.76 L945.57 2982.43 L946.18 2980.01 L946.58 2977.38 L946.99 2974.75 L947.39 2970.30 L948.20 2965.24 L949.82 2947.64 L951.64 2930.65 L951.84 2929.03 L952.25 2925.39 L952.65 2922.15 L952.85 2919.73 L952.85 2917.50 L952.04 2911.43 L951.64 2909.21 L951.64 2907.79 L951.84 2905.37 L951.84 2904.15 L952.04 2902.74 L952.45 2898.89 L952.65 2897.68 L952.85 2896.47 L953.26 2895.05 L953.86 2893.84 L954.27 2892.62 L954.67 2891.61 L955.68 2889.39 L955.89 2888.37 L956.29 2887.36 L956.49 2885.74 L956.90 2882.51 L957.91 2872.39 L958.11 2868.75 L958.31 2866.73 L958.11 2864.50 L957.91 2863.29 L957.50 2861.88 L957.30 2860.05 L957.10 2858.03 L957.10 2856.41 L957.30 2853.38 L957.30 2851.96 L957.71 2849.13 L957.71 2847.72 L958.11 2845.89 L958.72 2844.28 L959.33 2842.46 L959.73 2841.65 L960.34 2840.03 L960.94 2838.41 L961.55 2836.39 L961.96 2834.16 L962.36 2831.74 L962.56 2830.32 L962.76 2827.89 L962.76 2825.46 L962.76 2823.24 L962.56 2821.22 L962.16 2810.90 L961.96 2806.65 L961.96 2805.03 L961.96 2803.62 L962.16 2801.80 L962.36 2800.38 L962.56 2798.36 L968.83 2797.95 L969.04 2795.53 L970.86 2778.13 L971.26 2775.10 L973.89 2774.69 L974.70 2764.98 L974.90 2756.49 L974.50 2752.44 L973.89 2748.80 L973.28 2745.16 L971.87 2741.11 L968.23 2733.02 L967.62 2731.61 L966.20 2728.57 L961.96 2731.20 L960.34 2732.01 L956.29 2734.64 L953.46 2736.26 L952.65 2736.66 L948.60 2739.09 L947.59 2739.09 L943.75 2741.32 L942.53 2741.72 L941.32 2741.92 L942.74 2733.22 L943.95 2726.75 L944.15 2724.12 L945.37 2713.00 L946.38 2703.89 L946.58 2702.28 L947.19 2696.61 L948.00 2689.53 L949.41 2677.39 L944.56 2676.59 L936.67 2675.37 L931.21 2674.56 L924.53 2673.35 L929.79 2668.49 L935.25 2662.63 L941.73 2653.53 L948.60 2641.39 L949.21 2640.78 L949.82 2640.17 L950.42 2639.77 L951.23 2639.77 L953.26 2639.57 L954.47 2628.04 L956.09 2615.29 L957.50 2604.57 L957.71 2602.55 L958.72 2590.01 L959.93 2577.67 L962.16 2557.24 L962.56 2553.40 L962.97 2548.74 L963.57 2544.09 L964.38 2536.20 L965.60 2521.03 L965.80 2519.01 L966.41 2513.95 L966.81 2510.92 L966.81 2509.30 L967.42 2503.23 L968.02 2495.95 L968.43 2491.70 L969.24 2480.17 L969.64 2477.34 L969.85 2471.07 L970.45 2467.02 L970.86 2462.77 L971.46 2456.71 L972.07 2447.60 L973.28 2432.84 L973.89 2426.57 L973.89 2425.76 L974.50 2417.46 L979.76 2409.98 L979.56 2404.52 L979.35 2401.08 L979.15 2396.43 L979.15 2396.22 L979.15 2393.19 L980.16 2381.25 L980.97 2371.95 L980.97 2371.34 L982.19 2357.18 L983.80 2337.97 L984.01 2336.96 L981.38 2336.55 L981.78 2332.71 L981.78 2331.49 L982.79 2319.96 L983.40 2313.90 L984.41 2300.14 L984.82 2294.88 L985.63 2285.37 L986.23 2279.31 L986.84 2272.63 L987.24 2266.76 L987.65 2262.31 L989.27 2243.70 L991.90 2241.48 L992.30 2236.62 L992.71 2231.97 L993.52 2223.07 L992.50 2224.08 L990.89 2225.50 L980.77 2231.16 L975.91 2232.78 L947.79 2225.90 L926.55 2219.03 L890.34 2196.17 L857.97 2142.16 L802.94 2092.80 L778.06 2120.72 L705.84 2128.00 L673.67 2115.26 L654.86 2107.77 L623.70 2104.94 L620.87 2102.71 L619.25 2101.50 L612.98 2096.04 L607.32 2091.99 L607.11 2091.79 L547.23 2085.92 L505.15 2101.50 L495.04 2140.74 L482.70 2178.57 L445.47 2210.73 L430.71 2243.10 L434.35 2254.02 L430.91 2273.64 L427.06 2280.72 L403.60 2270.20 L380.13 2256.85 L356.06 2241.07 L332.79 2220.04 L316.81 2203.25 L277.76 2153.89 L264.01 2128.20 L260.77 2118.90 L264.01 2112.02 L270.48 2108.38 L280.80 2105.55 L289.09 2106.56 L295.97 2108.38 L305.28 2114.45 L318.83 2125.77 L330.36 2130.22 L345.33 2131.84 L355.85 2129.62 L370.82 2122.13 L380.13 2116.67 L400.76 2100.29 L404.41 2094.82 L409.46 2088.15 L419.58 2077.63 L424.43 2069.74 L436.37 2056.80 L452.96 2038.99 L460.85 2028.27 L464.69 2017.96 L467.12 2009.66 L469.95 1998.13 L473.80 1983.37 L476.02 1972.24 L479.66 1961.72 L482.50 1953.83 L488.77 1945.95 L496.25 1940.48 L506.16 1936.84 L514.26 1937.25 L525.79 1938.06 L541.97 1940.48 L552.09 1942.71 L564.83 1944.73 L585.27 1947.36 L610.76 1950.19 L632.00 1953.43 L641.71 1958.49 L662.95 1965.77 L678.12 1977.70 L696.53 1990.65 L712.92 1997.33 L727.49 2002.79 L734.97 2002.58 L747.31 1995.50 L762.69 1982.15 L776.24 1966.58 L779.28 1961.12 L779.48 1950.40 L779.88 1944.33 L778.47 1937.85 L775.84 1929.16 L771.99 1920.86 L763.90 1910.95 L755.61 1903.06 L747.51 1899.22 L736.59 1894.16 L718.79 1888.30 L701.99 1884.86 L692.69 1881.82 L685.00 1877.78 L679.34 1872.52 L673.67 1864.02 L673.07 1859.98 L672.86 1852.09 L674.28 1844.00 L676.91 1838.33 L693.50 1816.08 L699.77 1807.59 L706.45 1800.91 L714.34 1792.01 L725.06 1781.29 L732.95 1773.20 L741.44 1763.29 L750.55 1751.35 L758.03 1741.03 L765.52 1728.09 L770.78 1721.82 L776.24 1711.50 L780.29 1708.06 L786.56 1704.62 L793.64 1697.14 L795.46 1692.69 L797.68 1687.03 L799.10 1677.52 L798.09 1670.64 L794.65 1662.95 L787.77 1654.46 L787.16 1652.64 L776.44 1642.93 L773.41 1642.52 L769.77 1643.13 L768.35 1643.33 L765.52 1643.74 L762.08 1642.52 L758.64 1644.34 L755.00 1648.59 L749.33 1652.64 L743.06 1655.07 L733.55 1656.48 L721.62 1657.69 L708.06 1657.49 L697.34 1657.29 L689.05 1655.07 L679.74 1648.59 L672.26 1641.92 L663.96 1633.62 L657.69 1625.33 L653.04 1617.04 L647.98 1602.88 L645.35 1598.43 L642.11 1591.35 L637.26 1583.86 L635.84 1576.38 L637.86 1568.69 L638.88 1565.66 L622.49 1574.56 L608.13 1582.45 L569.08 1603.69 L563.42 1612.59 L560.18 1619.67 L558.16 1626.34 L557.15 1632.21 L557.95 1638.07 L558.56 1644.75 L560.79 1653.45 L559.98 1662.95 L557.15 1670.64 L552.09 1676.30 L549.46 1679.95 L547.64 1685.61 L546.22 1691.07 L541.97 1699.57 L536.31 1707.05 L530.24 1711.91 L522.15 1718.99 L513.04 1729.71 L504.75 1740.83 L500.30 1748.72 L492.61 1758.84 L487.75 1761.26 L482.50 1763.29 L474.40 1767.74 L444.46 1782.30 L439.20 1786.55 L435.36 1791.81 L432.53 1791.40 L427.67 1793.22 L421.40 1796.06 L414.72 1796.46 L403.39 1801.92 L393.08 1807.59 L386.40 1814.87 L379.93 1820.73 L373.25 1822.55 L369.41 1827.41 L366.37 1832.06 L366.37 1832.26 L366.17 1832.47 L366.17 1832.67 L366.37 1832.87 L368.19 1837.73 L366.98 1845.01 L363.54 1849.26 L351.81 1856.13 L346.55 1859.37 L343.71 1866.45 L336.23 1889.51 L333.19 1891.73 L327.93 1896.39 L322.27 1900.43 L316.20 1902.46 L312.36 1904.68 L308.72 1909.53 L295.57 1917.42 L279.18 1929.97 L277.56 1931.18 L260.57 1943.92 L238.92 1954.85 L229.62 1955.45 L224.15 1951.41 L224.76 1949.99 L226.58 1945.95 L228.00 1942.30 L228.81 1940.08 L230.02 1936.44 L231.23 1932.39 L231.84 1930.17 L232.45 1927.54 L233.86 1921.47 L234.27 1918.84 L234.67 1917.22 L234.87 1915.20 L235.28 1911.15 L235.48 1907.51 L235.89 1903.47 L236.09 1900.23 L236.09 1896.79 L235.89 1893.76 L235.28 1886.88 L234.07 1878.99 L233.26 1874.74 L232.45 1871.30 L231.64 1867.87 L230.63 1864.83 L229.21 1859.98 L227.79 1856.13 L225.16 1850.06 L223.95 1847.43 L222.33 1844.40 L220.51 1840.96 L218.69 1838.13 L215.25 1832.67 L213.84 1830.44 L212.62 1829.03 L210.80 1826.60 L200.48 1813.65 L196.03 1807.99 L189.36 1799.49 L164.27 1767.94 L161.03 1763.69 L158.40 1760.45 L155.77 1757.01 L150.51 1750.34 L139.39 1736.38 L132.10 1726.47 L129.47 1723.03 L124.82 1716.15 L126.24 1714.13 L127.25 1712.92 L128.87 1710.49 L132.10 1705.84 L132.51 1704.62 L132.31 1703.01 L131.90 1695.72 L131.90 1691.48 L132.71 1688.04 L133.32 1683.79 L133.72 1681.97 L133.93 1680.35 L134.33 1676.51 L134.73 1674.89 L135.14 1672.26 L135.75 1669.83 L136.56 1668.01 L137.77 1666.60 L139.19 1664.98 L140.20 1664.17 L141.82 1662.95 L143.03 1662.15 L144.45 1661.34 L146.06 1660.12 L149.30 1658.50 L153.55 1655.67 L154.96 1654.66 L157.80 1652.44 L159.01 1651.02 L160.02 1649.81 L161.24 1648.19 L164.88 1643.94 L166.90 1641.11 L170.74 1635.85 L178.03 1625.53 L181.67 1621.28 L183.89 1618.86 L188.14 1614.20 L190.17 1611.37 L195.02 1603.28 L198.26 1594.58 L202.30 1582.24 L203.52 1578.40 L204.53 1575.77 L205.14 1574.56 L205.74 1573.14 L207.36 1570.51 L209.38 1567.28 L223.55 1551.70 L233.05 1538.96 L233.86 1537.74 L234.27 1536.33 L235.28 1530.26 L239.12 1510.84 L241.15 1500.93 L244.18 1484.74 L245.19 1476.25 L245.39 1474.43 L246.00 1471.80 L252.07 1459.66 L264.01 1435.79 L265.02 1434.38 L265.63 1433.77 L265.63 1432.56 L265.63 1431.95 L265.22 1430.94 L265.22 1430.33 L265.22 1429.52 L265.42 1428.71 L277.36 1376.32 L277.76 1373.89 L277.97 1370.25 L277.97 1367.62 L277.97 1365.40 L277.16 1359.94 L273.72 1345.78 L273.11 1341.53 L272.30 1337.48 L272.30 1335.87 L272.30 1334.25 L272.71 1331.21 L271.90 1330.20 L269.47 1326.97 L267.65 1324.54 L266.64 1323.12 L265.83 1321.50 L264.41 1318.47 L262.79 1314.63 L261.98 1312.60 L259.76 1308.36 L257.74 1303.50 L256.72 1301.28 L255.91 1298.85 L255.51 1296.62 L254.09 1282.26 L253.28 1279.83 L252.27 1275.99 L251.26 1273.56 L250.45 1272.15 L249.64 1271.14 L249.04 1270.12 L247.62 1267.70 L247.22 1266.28 L246.41 1263.85 L245.60 1261.02 L244.99 1257.99 L244.38 1253.54 L244.18 1250.10 L244.38 1245.85 L244.99 1239.98 L244.79 1238.16 L244.38 1235.13 L177.02 1238.16 L173.58 1238.37 L169.33 1238.57 L165.48 1238.97 L160.22 1238.77 L154.36 1239.17 L147.28 1239.17 L145.05 1238.97 L142.02 1237.15 L139.19 1234.52 L134.13 1231.49 L131.90 1230.48 L117.94 1227.44 L105.81 1224.81 L102.37 1225.22 L99.74 1226.43 L44.30 1257.99 L38.44 1235.53 L35.40 1229.67 L34.80 1206.61 L30.55 1107.09 L28.12 1049.64 L71.21 1013.02 L128.06 963.47 L134.13 958.41 L136.56 956.59 L138.78 954.36 L144.65 949.10 L201.70 901.37 L255.11 862.53 L263.20 851.20 L267.65 846.95 L253.28 813.17 L239.73 779.79 L233.66 760.58 L229.62 739.74 L229.62 721.33 L229.62 715.67 L229.21 700.30 L230.02 685.53 L232.04 666.11 L238.52 653.17 L246.41 647.30 L249.85 643.66 L264.82 637.19 L267.45 636.58 L269.06 636.78 L270.68 636.78 L271.29 636.98 L279.79 638.00 L283.83 638.00 L302.65 639.01 L320.25 636.98 L334.81 632.33 L349.99 626.87 L360.71 627.07 L370.82 630.51 L389.03 638.80 L398.54 643.05 L412.09 650.13 L427.67 655.59 L444.46 659.64 L451.74 658.83 L468.33 652.36 L484.72 639.21 L505.36 616.96 L530.04 584.19 L550.47 551.01 L565.24 530.18 L574.14 523.30 L588.30 515.21 L607.11 512.99 L632.00 512.78 L656.68 511.16 L674.48 506.31 L705.64 497.41 L733.55 479.41 L751.15 465.25 L763.29 449.87 L771.39 431.87 L772.80 428.03 L780.08 432.28 L785.55 434.50 L782.71 438.75 L778.87 445.83 L775.23 452.50 L772.19 461.81 L765.52 473.14 L755.40 482.44 L743.26 492.35 L739.83 495.39 L731.94 506.51 L724.25 510.76 L710.09 515.21 L701.99 518.65 L691.68 521.68 L692.49 522.29 L693.30 523.10 L694.11 524.52 L695.12 526.74 L697.14 530.38 L703.41 541.30 L705.64 544.74 L707.66 548.18 L712.31 556.48 L722.02 573.47 L728.50 583.99 L731.73 590.26 L746.30 614.94 L749.33 619.99 L755.61 630.71 L758.44 635.37 L761.27 640.02 L763.90 645.07 L766.33 648.72 L767.95 651.75 L769.97 655.19 L777.86 668.74 L781.91 675.01 L787.97 685.94 L802.34 710.61 L806.59 717.69 L809.82 724.57 L812.45 730.03 L814.07 733.88 L817.31 741.97 L820.75 752.28 L823.18 758.96 L825.81 763.61 L829.45 769.28 L832.28 773.12 L835.72 777.37 L839.76 782.42 L842.19 747.02 L846.44 695.65 L859.59 642.04 L876.99 584.19 L881.24 562.75 L887.71 530.38 L887.10 529.37 L887.91 528.76 L889.13 521.89 L893.98 504.29 L898.84 500.85 L901.47 498.83 L933.03 482.24 L933.43 483.25 L979.96 487.09 L1029.12 490.73 L1083.94 494.78 L1107.21 521.28 L1127.44 508.33 L1151.72 492.76 L1159.20 496.20 L1174.58 499.03 L1183.07 500.65 L1199.66 503.68 L1202.29 504.08 L1205.13 504.49 L1208.77 505.50 L1211.60 506.11 L1217.06 514.40 L1218.07 516.22 L1221.31 520.87 L1223.13 523.50 L1223.74 524.31 L1224.55 525.12 L1225.36 525.73 L1225.96 526.13 L1226.77 526.34 L1227.38 526.34 L1229.20 526.34 L1231.63 525.93 L1235.07 524.72 L1235.67 527.95 L1235.88 528.97 L1237.29 534.22 L1237.90 536.05 L1240.53 545.55 L1245.99 564.97 L1247.81 572.05 L1252.46 589.45 L1253.68 594.71 L1254.69 598.55 L1255.70 603.20 L1255.70 603.40 L1257.32 611.29 L1258.33 618.17 L1259.34 626.26 L1259.75 631.72 L1259.95 634.15 L1260.35 638.40 L1260.35 641.43 L1260.56 646.29 L1260.56 656.81 L1260.35 660.25 L1260.15 665.10 L1259.95 668.94 L1259.75 671.57 L1259.54 673.39 L1258.33 683.91 L1258.13 685.53 L1258.13 686.74 L1253.68 709.00 L1251.05 719.31 L1248.01 729.83 L1245.59 736.51 L1244.57 738.93 L1243.36 742.17 L1241.74 746.42 L1238.30 754.71 L1237.09 757.34 L1232.44 768.47 L1230.82 772.51 L1228.79 777.37 L1228.59 777.57 L1225.36 785.86 L1222.12 793.35 L1220.90 796.58 L1219.08 800.43 L1217.67 804.27 L1217.47 804.67 L1214.63 811.55 L1207.15 821.26 L1197.84 843.72 L1193.80 853.42 L1188.13 867.38 L1187.93 867.99 L1187.52 868.60 L1178.83 890.04 L1178.62 890.24 L1178.22 891.05 L1175.79 897.12 L1164.46 924.02 L1154.75 947.89 L1154.55 948.50 L1153.54 950.92 L1152.32 953.96 L1139.98 983.09 L1132.30 1002.51 L1124.20 1021.72 L1122.79 1024.96 L1120.16 1031.43 L1118.13 1037.10 L1117.93 1037.91 L1120.76 1039.12 L1120.97 1038.31 L1123.19 1032.24 L1128.05 1020.91 L1135.33 1003.11 L1137.76 1003.72 L1139.17 1003.92 L1140.79 1004.12 L1142.21 1004.12 L1143.62 1004.12 L1145.45 1003.72 L1146.46 1003.52 L1148.88 1002.71 L1161.02 998.26 L1163.86 997.04 L1166.08 996.03 L1168.71 994.21 L1170.53 992.59 L1171.34 991.78 L1172.15 990.37 L1172.55 989.56 L1172.96 988.55 L1173.36 986.93 L1173.97 984.10 L1174.17 982.48 L1174.37 981.47 L1174.78 980.46 L1175.39 980.05 L1175.99 979.45 L1176.60 979.04 L1177.61 978.64 L1178.62 978.64 L1180.85 979.04 L1185.10 979.45 L1188.13 979.85 L1189.75 980.46 L1191.57 981.06 L1194.20 982.28 L1198.04 983.90 L1200.07 984.91 L1202.70 986.32 L1205.73 987.94 L1212.61 991.18 L1218.27 994.21 L1226.16 998.26 L1229.60 999.67 L1233.25 1001.09 L1245.79 1005.94 L1253.27 1008.98 L1285.04 1023.75 L1291.31 1026.38 L1304.46 1032.85 L1310.32 1035.68 L1317.20 1039.12 L1322.87 1041.75 L1327.72 1043.97 L1329.95 1044.78 L1331.57 1045.39 L1332.58 1045.79 L1333.79 1046.00 L1335.21 1046.20 L1337.23 1046.40 L1338.85 1046.20 L1340.67 1045.79 L1342.08 1045.59 L1343.70 1044.98 L1344.71 1044.58 L1346.54 1043.37 L1348.96 1041.95 L1350.18 1041.14 L1353.01 1038.92 L1357.26 1035.48 L1358.07 1034.87 L1358.47 1034.67 L1358.88 1034.47 L1359.48 1034.47 L1360.90 1034.26 L1362.32 1034.26 L1364.95 1034.47 L1366.77 1034.67 L1367.37 1034.67 L1367.78 1034.67 L1368.38 1034.47 L1368.79 1034.26 L1368.99 1034.06 L1369.19 1033.86 L1369.60 1033.05 L1370.00 1031.84 L1370.41 1029.81 L1370.61 1027.79 L1372.63 1016.46 L1374.45 1006.15 L1374.86 1002.51 L1378.09 986.12 L1379.11 981.47 L1380.52 977.63 L1381.74 974.79 L1385.38 966.30 L1388.01 959.82 L1389.83 953.76 L1391.45 945.66 L1392.66 935.55 L1393.67 924.02 L1393.87 921.80 L1392.86 895.50 L1392.66 889.03 L1392.46 880.73 L1392.05 870.42 L1392.05 865.97 L1391.85 863.54 L1391.85 860.71 L1392.05 857.87 L1392.86 852.41 L1393.67 848.77 L1395.09 842.30 L1395.49 839.26 L1395.90 836.03 L1396.10 833.60 L1396.30 831.78 L1396.50 827.94 L1396.50 824.09 L1430.69 705.56 L1445.26 657.41 L1471.76 570.03 L1479.65 541.10 L1481.47 541.10 L1488.96 541.51 L1499.28 542.52 L1514.65 544.14 L1524.97 545.35 L1529.42 545.75 L1531.04 545.96 L1547.22 547.78 L1547.63 547.98 L1552.68 548.38 L1555.52 548.59 L1558.15 548.79 L1559.97 548.99 L1561.38 548.99 L1562.80 548.18 L1565.63 545.55 L1569.07 542.92 L1572.91 539.69 L1575.34 538.07 L1576.35 537.46 L1577.16 537.26 L1577.77 537.46 L1578.38 537.87 L1580.40 540.09 L1582.02 541.91 L1583.23 543.33 L1584.85 545.15 L1585.46 545.75 L1585.86 546.16 L1586.06 546.56 L1624.50 447.45 L1663.34 348.33 L1616.21 325.88 L1593.75 314.95 L1572.10 306.05 L1572.31 305.65 L1594.36 247.79 L1620.86 183.47 L1622.88 179.02 L1629.76 166.68 L1633.81 161.02 L1635.02 159.40 L1654.85 137.75 L1657.27 135.93 L1659.30 133.91 L1664.56 139.57 L1673.86 144.43 L1674.27 144.63 L1711.69 155.35 L1716.95 159.20 L1731.92 168.30 L1743.86 173.15 L1749.53 174.16 L1767.73 174.16 L1784.12 171.94 L1788.37 171.74 L1792.01 170.93 L1795.85 169.92 L1809.41 168.90 L1811.23 167.08 L1814.06 163.65 L1814.26 162.03 L1815.07 160.61 L1816.69 155.15 L1818.71 150.09 L1822.35 145.64 L1826.20 143.01 L1831.66 141.60 L1846.23 140.99 L1858.97 142.41 L1868.48 140.99 L1878.19 141.60 L1883.25 142.00 L1888.31 140.18 L1890.73 136.34 L1893.77 132.70 L1896.40 129.46 L1899.63 126.83 L1903.28 124.00 L1907.12 125.82 L1910.76 126.22 L1916.22 124.81 L1924.11 119.14 L1932.61 113.08 L1939.69 110.04 L1945.36 103.97 L1947.78 100.13 L1949.00 97.10 L1950.62 93.86 L1951.83 91.03 L1951.63 88.60 L1951.42 85.56 L1952.64 83.34 L1952.23 80.51 L1951.63 76.66 L1951.42 73.02 L1952.03 70.80 L1955.67 69.99 L1967.61 67.36 L1971.25 63.92 L1972.26 65.74 L1974.69 69.79 L1979.54 76.87 L1981.77 80.31 L1983.59 82.73 L1986.02 86.37 L1987.64 88.60 L1989.26 91.23 L1990.87 93.66 L2000.79 110.04 L2011.91 126.02 L2015.55 132.49 L2017.78 136.94 L2019.80 143.22 L2021.02 158.59 L2021.02 162.43 L2020.81 191.36 L2019.80 195.81 L2016.57 204.51 L2014.34 212.60 L2014.75 219.68 L2015.96 223.93 L2018.59 227.77 L2022.43 233.63 L2023.44 240.92 L2024.05 244.36 L2025.27 249.62 L2026.48 250.22 L2029.92 270.05 L2031.13 271.06 L2031.54 276.72 L2032.14 277.93 L2032.55 281.17 L2033.76 285.82 L2039.22 312.12 L2040.03 315.36 L2041.05 317.58 L2041.45 321.02 L2043.27 325.27 L2045.29 333.97 L2046.10 335.18 L2046.91 340.44 L2048.94 345.29 L2049.74 350.55 L2050.55 351.16 L2053.39 359.66 L2053.99 367.75 L2054.80 368.76 L2056.02 372.60 L2058.24 373.82 L2059.05 377.05 L2062.29 379.88 L2064.92 386.36 L2065.32 387.57 L2067.95 404.76 L2068.76 405.37 L2068.96 407.19 L2069.57 408.20 L2069.57 410.43 L2070.78 413.06 L2081.91 425.80 L2082.52 428.23 L2083.33 429.65 L2083.53 432.28 L2084.34 434.50 L2084.74 437.33 L2086.97 441.18 L2094.66 449.47 L2099.51 457.36 L2107.20 478.60 L2111.85 485.07 L2113.67 489.72 L2122.98 504.29 L2124.39 506.71 L2125.61 508.54 L2126.82 511.77 L2130.87 517.64 L2130.87 518.85 L2136.94 526.13 L2140.58 530.79 L2163.64 551.01 L2168.50 553.64 L2171.73 557.49 L2173.15 560.52 L2175.78 563.96 L2178.01 565.78 L2179.83 567.80 L2181.85 569.22 L2186.10 573.06 L2189.54 573.87 L2193.78 574.88 L2200.26 576.91 L2205.52 577.72 L2210.17 578.73 L2216.65 582.37 L2222.11 585.81 L2228.18 591.07 L2232.63 595.72 L2234.85 599.36 L2236.88 602.60 L2238.49 605.63 L2239.91 608.06 L2242.74 612.31 L2246.38 617.97 L2255.08 627.27 L2264.39 637.19 L2266.82 639.82 L2275.31 648.72 L2281.38 659.64 L2284.21 673.19 L2288.26 689.78 L2292.31 702.32 L2298.38 708.79 L2305.66 713.45 L2315.57 714.46 L2326.70 715.06 L2337.42 718.91 L2348.14 725.99 L2359.07 735.49 L2369.99 744.60 L2382.53 755.12 L2394.87 764.42 L2405.60 771.70 L2417.74 778.58 L2417.33 782.83 L2417.33 787.28 L2417.53 791.32 L2417.74 793.35 L2418.54 800.22 L2419.56 805.89 L2421.17 812.16 L2423.20 818.43 L2424.61 821.67 L2427.04 826.93 L2428.66 829.96 L2430.28 832.79 L2431.90 835.22 L2450.31 863.94 L2456.78 873.25 L2459.01 877.29 L2460.83 880.33 L2462.24 883.16 L2463.46 885.99 L2464.47 888.62 L2466.90 894.69 L2468.51 899.34 L2471.14 906.83 L2476.81 922.40 L2480.65 933.12 L2481.06 934.74 L2482.47 943.04 L2485.10 964.68 L2485.91 970.34 L2489.15 999.67 L2492.79 1030.02 L2495.42 1050.85 L2496.03 1055.50 L2496.23 1058.13 L2496.23 1060.36 L2496.03 1064.61 L2495.22 1070.07 L2494.21 1077.55 L2492.99 1086.45 L2491.78 1094.75 L2491.58 1096.36 L2490.36 1106.88 L2487.73 1130.75 L2486.72 1139.25 L2486.32 1142.48 L2479.84 1140.06 L2463.86 1158.06 L2445.05 1165.75 L2426.03 1176.27 L2435.54 1175.86 L2443.63 1176.47 L2451.52 1176.06 L2451.92 1176.06 L2454.35 1174.85 L2454.55 1174.44 L2456.17 1171.01 L2456.58 1170.20 L2456.58 1169.99 L2456.78 1169.79 L2456.98 1169.79 L2456.98 1169.79 L2457.18 1169.79 L2457.18 1169.79 L2457.39 1169.79 L2457.59 1169.99 L2461.43 1172.42 L2463.66 1176.06 L2464.47 1182.33 L2465.07 1219.96 L2463.66 1222.79 L2459.01 1230.88 L2457.79 1233.31 L2452.33 1242.82 L2449.90 1247.67 L2447.88 1251.31 L2445.86 1255.36 L2444.44 1258.39 L2442.42 1263.04 L2441.81 1264.26 L2441.40 1265.67 L2440.39 1269.11 L2439.18 1273.36 L2438.37 1277.41 L2437.16 1282.87 L2431.49 1308.76 L2429.06 1319.48 L2427.85 1324.13 L2426.84 1328.18 L2426.43 1330.40 L2430.89 1329.19 L2446.26 1324.54 L2452.94 1321.91 L2459.81 1317.86 L2462.85 1315.84 L2464.27 1315.03 L2471.55 1309.97 L2478.83 1304.92 L2482.07 1302.69 L2484.09 1301.28 L2486.52 1299.05 L2501.29 1285.30 L2502.91 1283.47 L2503.92 1282.06 L2505.54 1279.63 L2506.95 1277.20 L2508.77 1273.97 L2511.00 1270.33 L2513.43 1265.47 L2523.14 1246.86 L2528.60 1238.16 L2530.82 1234.93 L2533.05 1232.30 L2534.67 1230.68 L2536.89 1228.86 L2539.52 1226.84 L2542.96 1225.42 L2548.02 1223.80 L2551.66 1222.79 L2554.09 1222.18 L2556.52 1221.78 L2559.55 1220.97 L2559.96 1220.97 L2562.38 1220.57 L2565.62 1220.57 L2568.86 1220.77 L2574.72 1221.17 L2590.50 1222.59 L2597.38 1222.59 L2598.19 1238.97 L2594.35 1247.67 L2590.71 1254.14 L2584.64 1260.82 L2578.36 1266.08 L2573.10 1271.34 L2568.86 1276.80 L2565.42 1282.67 L2561.78 1289.75 L2559.35 1297.63 L2559.15 1306.74 L2561.17 1316.65 L2562.79 1321.71 L2564.20 1328.18 L2565.82 1334.65 L2564.41 1340.72 L2559.15 1346.99 L2554.29 1351.44 L2549.64 1355.89 L2546.60 1361.96 L2545.39 1370.66 L2544.18 1379.76 L2541.14 1386.44 L2538.31 1388.66 L2537.09 1390.08 L2532.85 1392.30 L2525.56 1397.16 L2520.71 1402.42 L2516.46 1408.08 L2511.81 1412.53 L2509.99 1416.98 L2508.37 1423.05 L2506.95 1431.54 L2504.73 1440.65 L2504.12 1442.47 L2502.10 1443.28 L2500.07 1446.72 L2497.65 1454.20 L2493.19 1458.85 L2484.70 1464.72 L2483.08 1468.36 L2481.26 1472.20 L2480.45 1476.25 L2480.45 1481.10 L2481.87 1488.99 L2482.47 1495.26 L2483.48 1500.12 L2485.10 1504.16 L2487.13 1509.22 L2507.56 1615.62 L2508.57 1620.88 L2510.80 1633.62 L2513.83 1634.84 L2514.03 1637.26 L2515.25 1643.54 L2527.79 1733.55 L2528.80 1739.21 L2529.41 1743.26 L2539.72 1800.71 L2540.33 1803.14 L2543.57 1809.20 L2546.81 1811.23 L2551.66 1813.05 L2578.57 1823.57 L2583.83 1826.40 L2587.27 1828.22 L2589.29 1830.44 L2594.35 1836.92 L2597.18 1844.00 L2601.02 1851.68 L2604.46 1859.77 L2607.50 1866.25 L2609.11 1873.33 L2611.34 1881.62 L2613.16 1889.51 L2613.57 1898.81 L2613.57 1906.50 L2611.95 1912.97 L2609.11 1918.64 L2606.48 1923.69 L2602.84 1928.35 L2596.98 1934.01 L2591.11 1939.67 L2589.09 1941.29 L2585.85 1945.14 L2582.82 1951.61 L2580.59 1958.69 L2578.57 1965.57 L2574.72 1971.03 L2574.12 1971.84 L2571.28 1976.29 L2569.46 1978.11 L2568.05 1981.55 L2566.23 1988.22 L2566.43 1993.68 L2567.04 1999.15 L2566.63 2005.42 L2568.45 2014.11 L2569.87 2025.64 L2571.08 2034.75 L2575.13 2045.67 L2577.35 2053.56 L2579.98 2060.84 L2583.83 2067.52 L2588.68 2074.19 L2592.93 2079.45 L2595.76 2087.34 L2597.79 2095.84 L2600.21 2102.92 L2600.42 2105.34 L2600.42 2109.19 L2602.44 2116.47 L2603.86 2123.95 L2606.08 2133.46 L2609.32 2141.55 L2616.20 2149.24 L2624.29 2155.91 L2628.13 2160.36 L2628.74 2161.98 L2627.73 2168.25 L2626.11 2176.75 L2624.89 2186.05 L2625.30 2195.56 L2626.72 2204.26 L2628.94 2209.52 L2631.77 2214.58 L2635.01 2219.83 L2637.24 2226.71 L2638.45 2236.83 L2638.65 2246.74 L2638.65 2256.04 L2638.85 2264.74 L2640.07 2271.82 L2642.50 2278.50 L2645.33 2283.55 L2647.96 2289.42 L2648.97 2296.70 L2648.97 2304.99 L2649.17 2312.88 L2654.43 2324.41 L2660.50 2338.37 L2666.77 2350.51 L2672.84 2360.02 L2677.49 2369.72 L2683.36 2378.83 L2691.86 2389.95 L2700.35 2399.06 L2709.86 2407.15 L2716.74 2414.02 L2718.36 2416.05 L2726.45 2423.33 L2739.60 2433.85 L2751.13 2441.94 L2763.47 2448.01 L2774.80 2454.08 L2783.70 2459.34 L2792.60 2465.20 L2797.26 2470.06 L2796.85 2471.67 L2797.66 2474.71 L2798.27 2477.34 L2796.04 2485.03 L2792.20 2492.71 L2789.37 2498.38 L2786.13 2502.62 L2783.70 2505.05 L2781.68 2507.88 L2782.29 2511.73 L2784.92 2513.95 L2787.14 2515.17 L2791.80 2519.62 L2796.45 2526.09 L2801.71 2533.98 L2804.95 2541.87 L2807.37 2547.73 L2810.61 2552.59 L2814.05 2556.03 L2818.09 2557.85 L2823.35 2560.07 L2826.79 2562.09 L2827.60 2563.71 L2830.03 2566.54 L2832.46 2573.22 L2834.68 2580.30 L2837.31 2595.67 L2839.74 2610.84 L2842.37 2624.19 L2843.79 2635.12 L2846.62 2650.09 L2849.25 2663.64 L2851.48 2677.19 L2851.48 2687.10 L2851.68 2690.95 L2851.27 2696.41 L2850.67 2698.23 L2849.05 2703.89 L2846.62 2714.21 L2843.38 2726.55 L2843.38 2728.37 L2844.39 2734.03 L2845.41 2741.72 L2845.20 2750.01 L2843.59 2755.27 L2842.37 2757.30 L2840.35 2759.72 L2835.29 2765.39 L2830.44 2771.05 L2825.78 2774.29 L2820.72 2776.11 L2819.11 2778.13 L2815.67 2780.76 L2813.24 2787.03 L2810.81 2794.52 L2807.17 2800.79 L2755.99 2884.53 L2731.51 2928.63 L2706.02 2966.25 L2705.21 2967.67 L2704.20 2974.14 L2705.82 2978.39 L2707.23 2981.63 L2707.03 2982.43 L2706.63 2987.90 L2701.57 2993.76 L2691.25 3006.10 L2684.17 3010.75 L2677.09 3014.19 L2674.26 3016.22 L2673.04 3016.42 L2665.76 3017.43 L2659.49 3018.44 L2653.01 3023.50 L2648.16 3028.35 L2644.92 3029.16 L2637.64 3030.38 L2634.61 3030.38 L2630.76 3033.21 L2625.30 3037.05 L2624.49 3037.46 L2616.60 3042.31 L2614.58 3045.34 L2612.96 3050.00 L2610.13 3053.64 L2606.08 3057.28 L2601.23 3059.91 L2598.60 3061.73 L2595.76 3064.76 L2594.35 3069.21 L2590.50 3072.25 L2586.25 3071.84 L2582.41 3070.83 L2580.59 3071.64 L2576.75 3072.85 L2572.50 3073.46 L2568.86 3073.46 L2567.04 3073.26 L2564.81 3074.27 L2558.34 3077.71 L2549.23 3087.62 L2548.02 3090.86 L2544.98 3094.30 L2547.41 3096.32 L2550.24 3099.96 L2550.45 3100.77 L2551.05 3104.21 L2550.45 3122.41 L2549.64 3122.21 L2543.16 3126.46 L2541.75 3127.87 L2540.53 3136.17 L2537.70 3146.48 L2530.22 3174.80 L2530.22 3186.94 L2531.43 3187.35 L2534.06 3187.75 L2535.27 3188.36 L2536.08 3189.37 L2536.89 3190.18 L2538.11 3191.39 L2538.31 3192.00 L2538.51 3194.02 L2538.51 3194.02 Z" stroke-linejoin="round"/>
	</defs>
	<use xlink:href="#path_pDqulypR" style="fill:#9DC8CA;stroke:#6BB4D2;stroke-width:5.76"/>
	<defs>
		<path id="path_npvqXQJM" d="M1003.02 2703.49 L1003.02 2703.49 L1003.02 2703.49 L1005.05 2702.07 L1015.36 2695.60 L1021.64 2691.55 L1028.51 2687.31 L1036.40 2682.25 L1050.16 2673.75 L1054.41 2671.12 L1057.44 2669.30 L1059.26 2668.29 L1059.67 2668.09 L1060.88 2667.69 L1061.29 2667.48 L1062.91 2666.88 L1064.32 2666.67 L1064.93 2666.47 L1065.54 2666.47 L1066.14 2666.27 L1067.36 2666.07 L1068.17 2666.07 L1067.76 2664.65 L1067.96 2662.83 L1068.17 2662.02 L1068.37 2661.41 L1068.77 2660.40 L1069.18 2659.59 L1072.01 2652.72 L1075.04 2645.64 L1080.91 2631.68 L1081.92 2628.85 L1084.55 2615.50 L1079.49 2614.49 L1077.67 2614.89 L1076.26 2615.50 L1076.06 2615.50 L1068.57 2619.74 L1065.94 2621.36 L1054.81 2627.43 L1051.78 2629.45 L1044.09 2633.50 L1036.00 2637.75 L1034.18 2634.31 L1033.37 2632.89 L1032.16 2630.67 L1031.55 2628.44 L1030.54 2625.41 L1027.70 2614.08 L1025.88 2605.99 L1025.28 2603.36 L1024.67 2602.55 L1023.86 2602.15 L1020.42 2601.94 L1013.95 2601.34 L1012.94 2609.83 L1011.72 2622.58 L1010.31 2635.12 L1009.09 2647.86 L1007.68 2660.00 L1007.27 2664.25 L1006.46 2671.33 L1006.46 2672.54 L1006.26 2673.55 L1005.05 2684.88 L1004.03 2694.79 L1003.43 2699.44 L1003.23 2701.06 L1003.02 2703.49 L1003.02 2703.49 Z" stroke-linejoin="round"/>
	</defs>
	<use xlink:href="#path_npvqXQJM" style="fill:#9DC8CA;stroke:#6BB4D2;stroke-width:5.76"/>
	<defs>
		<path id="path_sWMhSocQ" d="M1005.05 2702.07 L1005.05 2702.07 L1003.02 2703.49 L1003.23 2701.06 L1003.43 2699.44 L1004.03 2694.79 L1005.05 2684.88 L1006.26 2673.55 L1006.46 2672.54 L1006.46 2671.33 L1007.27 2664.25 L1007.68 2660.00 L1009.09 2647.86 L1010.31 2635.12 L1011.72 2622.58 L1012.94 2609.83 L1013.95 2601.34 L1020.42 2601.94 L1023.86 2602.15 L1024.67 2602.55 L1025.28 2603.36 L1025.88 2605.99 L1027.70 2614.08 L1030.54 2625.41 L1031.55 2628.44 L1032.16 2630.67 L1033.37 2632.89 L1034.18 2634.31 L1036.00 2637.75 L1044.09 2633.50 L1051.78 2629.45 L1054.81 2627.43 L1065.94 2621.36 L1068.57 2619.74 L1076.06 2615.50 L1076.26 2615.50 L1077.67 2614.89 L1079.49 2614.49 L1084.55 2615.50 L1081.92 2628.85 L1080.91 2631.68 L1075.04 2645.64 L1072.01 2652.72 L1069.18 2659.59 L1068.77 2660.40 L1068.37 2661.41 L1068.17 2662.02 L1067.96 2662.83 L1067.76 2664.65 L1068.17 2666.07 L1067.36 2666.07 L1066.14 2666.27 L1065.54 2666.47 L1064.93 2666.47 L1064.32 2666.67 L1062.91 2666.88 L1061.29 2667.48 L1060.88 2667.69 L1059.67 2668.09 L1059.26 2668.29 L1057.44 2669.30 L1054.41 2671.12 L1050.16 2673.75 L1036.40 2682.25 L1028.51 2687.31 L1021.64 2691.55 L1015.36 2695.60 L1005.05 2702.07 L1005.05 2702.07 Z" stroke-linejoin="round"/>
	</defs>
	<use xlink:href="#path_sWMhSocQ" style="fill:#6BACAF;stroke:#097D9B;stroke-width:5.76"/>
	<defs>
		<path id="path_rcIvFSDi" d="M614.40 3171.57 L614.40 3171.57 L614.40 3171.77 L602.06 3173.39 L579.80 3117.56 L579.40 3116.75 L578.99 3116.14 L578.79 3115.33 L576.57 3110.68 L554.11 3055.86 L548.45 3042.11 L544.20 3034.62 L530.85 3022.49 L519.11 3011.77 L491.40 2983.65 L488.56 2981.42 L481.48 2972.12 L464.49 2946.63 L440.42 2922.56 L438.60 2918.11 L427.67 2887.97 L394.90 2808.07 L371.83 2713.40 L374.67 2705.11 L378.11 2697.02 L433.54 2660.20 L445.68 2652.11 L447.09 2651.10 L452.76 2637.75 L442.03 2624.40 L404.41 2572.21 L397.53 2562.70 L378.31 2536.00 L390.85 2490.49 L456.40 2393.19 L470.56 2331.49 L444.66 2308.03 L434.14 2298.52 L425.24 2290.43 L427.06 2280.72 L430.91 2273.64 L434.35 2254.02 L430.71 2243.10 L445.47 2210.73 L482.70 2178.57 L495.04 2140.74 L505.15 2101.50 L547.23 2085.92 L607.11 2091.79 L607.32 2091.99 L612.98 2096.04 L619.25 2101.50 L620.87 2102.71 L623.70 2104.94 L654.86 2107.77 L673.67 2115.26 L705.84 2128.00 L778.06 2120.72 L802.94 2092.80 L857.97 2142.16 L890.34 2196.17 L926.55 2219.03 L947.79 2225.90 L975.91 2232.78 L980.77 2231.16 L990.89 2225.50 L992.50 2224.08 L993.52 2223.07 L992.71 2231.97 L992.30 2236.62 L991.90 2241.48 L989.27 2243.70 L987.65 2262.31 L987.24 2266.76 L986.84 2272.63 L986.23 2279.31 L985.63 2285.37 L984.82 2294.88 L984.41 2300.14 L983.40 2313.90 L982.79 2319.96 L981.78 2331.49 L981.78 2332.71 L981.38 2336.55 L984.01 2336.96 L983.80 2337.97 L982.19 2357.18 L980.97 2371.34 L980.97 2371.95 L980.16 2381.25 L979.15 2393.19 L979.15 2396.22 L979.15 2396.43 L979.35 2401.08 L979.56 2404.52 L979.76 2409.98 L974.50 2417.46 L973.89 2425.76 L973.89 2426.57 L973.28 2432.84 L972.07 2447.60 L971.46 2456.71 L970.86 2462.77 L970.45 2467.02 L969.85 2471.07 L969.64 2477.34 L969.24 2480.17 L968.43 2491.70 L968.02 2495.95 L967.42 2503.23 L966.81 2509.30 L966.81 2510.92 L966.41 2513.95 L965.80 2519.01 L965.60 2521.03 L964.38 2536.20 L963.57 2544.09 L962.97 2548.74 L962.56 2553.40 L962.16 2557.24 L959.93 2577.67 L958.72 2590.01 L957.71 2602.55 L957.50 2604.57 L956.09 2615.29 L954.47 2628.04 L953.26 2639.57 L951.23 2639.77 L950.42 2639.77 L949.82 2640.17 L949.21 2640.78 L948.60 2641.39 L941.73 2653.53 L935.25 2662.63 L929.79 2668.49 L924.53 2673.35 L931.21 2674.56 L936.67 2675.37 L944.56 2676.59 L949.41 2677.39 L948.00 2689.53 L947.19 2696.61 L946.58 2702.28 L946.38 2703.89 L945.37 2713.00 L944.15 2724.12 L943.95 2726.75 L942.74 2733.22 L941.32 2741.92 L942.53 2741.72 L943.75 2741.32 L947.59 2739.09 L948.60 2739.09 L952.65 2736.66 L953.46 2736.26 L956.29 2734.64 L960.34 2732.01 L961.96 2731.20 L966.20 2728.57 L967.62 2731.61 L968.23 2733.02 L971.87 2741.11 L973.28 2745.16 L973.89 2748.80 L974.50 2752.44 L974.90 2756.49 L974.70 2764.98 L973.89 2774.69 L971.26 2775.10 L970.86 2778.13 L969.04 2795.53 L968.83 2797.95 L962.56 2798.36 L962.36 2800.38 L962.16 2801.80 L961.96 2803.62 L961.96 2805.03 L961.96 2806.65 L962.16 2810.90 L962.56 2821.22 L962.76 2823.24 L962.76 2825.46 L962.76 2827.89 L962.56 2830.32 L962.36 2831.74 L961.96 2834.16 L961.55 2836.39 L960.94 2838.41 L960.34 2840.03 L959.73 2841.65 L959.33 2842.46 L958.72 2844.28 L958.11 2845.89 L957.71 2847.72 L957.71 2849.13 L957.30 2851.96 L957.30 2853.38 L957.10 2856.41 L957.10 2858.03 L957.30 2860.05 L957.50 2861.88 L957.91 2863.29 L958.11 2864.50 L958.31 2866.73 L958.11 2868.75 L957.91 2872.39 L956.90 2882.51 L956.49 2885.74 L956.29 2887.36 L955.89 2888.37 L955.68 2889.39 L954.67 2891.61 L954.27 2892.62 L953.86 2893.84 L953.26 2895.05 L952.85 2896.47 L952.65 2897.68 L952.45 2898.89 L952.04 2902.74 L951.84 2904.15 L951.84 2905.37 L951.64 2907.79 L951.64 2909.21 L952.04 2911.43 L952.85 2917.50 L952.85 2919.73 L952.65 2922.15 L952.25 2925.39 L951.84 2929.03 L951.64 2930.65 L949.82 2947.64 L948.20 2965.24 L947.39 2970.30 L946.99 2974.75 L946.58 2977.38 L946.18 2980.01 L945.57 2982.43 L943.14 2993.76 L942.94 2994.57 L942.74 2995.99 L942.13 2998.01 L941.93 2999.43 L941.93 3000.84 L941.93 3002.06 L942.33 3003.27 L942.94 3004.28 L943.34 3004.69 L943.55 3004.89 L944.56 3005.29 L945.97 3005.70 L948.20 3005.90 L948.00 3007.92 L947.79 3010.55 L947.79 3012.37 L947.79 3013.99 L947.59 3015.20 L947.59 3016.62 L947.39 3020.67 L947.39 3025.12 L947.39 3030.17 L946.99 3037.25 L946.38 3046.76 L946.18 3050.60 L941.52 3050.20 L937.07 3049.79 L931.41 3049.39 L916.23 3048.18 L914.01 3048.18 L909.15 3047.77 L899.85 3047.37 L887.31 3046.36 L885.28 3046.15 L880.02 3045.95 L882.85 3041.91 L870.11 3025.72 L859.99 3035.23 L858.58 3036.44 L856.76 3038.06 L851.90 3042.51 L849.88 3044.33 L847.86 3046.15 L840.57 3046.15 L832.28 3045.75 L770.58 3041.70 L769.36 3042.71 L768.76 3043.32 L767.74 3044.33 L766.53 3045.14 L765.32 3046.15 L762.48 3048.78 L761.07 3050.00 L760.26 3050.81 L759.25 3051.61 L757.83 3052.83 L752.17 3057.89 L751.56 3058.29 L748.73 3061.12 L748.32 3061.53 L742.86 3066.58 L738.61 3070.43 L735.58 3073.06 L733.15 3075.08 L728.50 3079.33 L718.38 3088.43 L708.47 3097.33 L699.57 3105.42 L698.56 3106.43 L692.49 3111.89 L688.44 3115.74 L678.33 3124.64 L668.82 3133.13 L667.81 3133.94 L658.30 3142.64 L648.59 3151.14 L646.97 3152.76 L645.75 3153.77 L645.15 3154.17 L645.15 3154.17 L643.93 3154.98 L642.11 3155.99 L641.10 3156.40 L632.20 3159.84 L625.32 3162.26 L623.30 3162.87 L618.24 3164.69 L614.40 3171.57 L614.40 3171.57 Z" stroke-linejoin="round"/>
	</defs>
	<use xlink:href="#path_rcIvFSDi" style="fill:#09757A;stroke:#00465F;stroke-width:5.76"/>
</svg>
