<?xml version="1.0" encoding="UTF-8"?> <svg xmlns="http://www.w3.org/2000/svg" width="646" height="570" viewBox="0 0 646 570" fill="none"><rect opacity="0.2" x="118" y="226.423" width="151" height="290.928" fill="#D2D2D2"></rect><rect opacity="0.35" x="274" y="226.423" width="151" height="290.928" fill="#D2D2D2"></rect><rect opacity="0.45" x="430" y="226.423" width="151" height="290.928" fill="#D2D2D2"></rect><line x1="97" y1="516.851" x2="602" y2="516.851" stroke="#D2D2D2"></line><line x1="97" y1="225.923" x2="602" y2="225.923" stroke="#D2D2D2"></line><line x1="97" y1="371.387" x2="602" y2="371.387" stroke="#D2D2D2"></line><line x1="97" y1="298.655" x2="602" y2="298.655" stroke="#D2D2D2"></line><line x1="97" y1="444.119" x2="602" y2="444.119" stroke="#D2D2D2"></line><line x1="50" y1="516.85" x2="87" y2="516.85" stroke="#06757A"></line><line x1="50" y1="225.923" x2="87" y2="225.923" stroke="#06757A"></line><path d="M53.917 511.803C56.5967 511.803 57.3896 509.049 57.3896 506.868C57.3896 504.708 56.5898 501.932 53.8965 501.932C51.1621 501.932 50.4307 504.749 50.4307 506.868C50.4307 508.967 51.1689 511.803 53.917 511.803ZM53.9102 510.983C51.8525 510.983 51.2852 508.727 51.2852 506.868C51.2852 504.995 51.8662 502.76 53.8965 502.76C55.9473 502.76 56.5215 505.009 56.5215 506.868C56.5215 508.727 55.9404 510.983 53.9102 510.983ZM60.4863 505.658C61.5049 505.658 62.2568 504.851 62.2568 503.812C62.2568 502.739 61.5391 501.96 60.4863 501.96C59.4609 501.96 58.709 502.766 58.709 503.812C58.709 504.879 59.4268 505.658 60.4863 505.658ZM60.0625 511.728H60.7119L66.0439 501.987H65.3877L60.0625 511.728ZM60.4863 505.104C59.7754 505.104 59.29 504.619 59.29 503.812C59.29 503.012 59.7686 502.513 60.4863 502.513C61.1973 502.513 61.6758 502.999 61.6758 503.812C61.6758 504.605 61.2041 505.104 60.4863 505.104ZM65.6406 511.776C66.6592 511.776 67.4111 510.969 67.4111 509.93C67.4111 508.857 66.6934 508.078 65.6406 508.078C64.6221 508.078 63.8633 508.885 63.8633 509.93C63.8633 510.997 64.5879 511.776 65.6406 511.776ZM65.6406 511.222C64.9297 511.222 64.4512 510.737 64.4512 509.93C64.4512 509.137 64.9229 508.632 65.6406 508.632C66.3516 508.632 66.8301 509.117 66.8301 509.93C66.8301 510.723 66.3584 511.222 65.6406 511.222Z" fill="#06757A"></path><path d="M53.9238 212.323V219.897H54.7715V210.238H53.9512C53.9512 211.482 53.7529 211.653 51.8799 211.653V212.323H53.9238ZM61.2451 219.999C63.9248 219.999 64.7178 217.245 64.7178 215.064C64.7178 212.904 63.918 210.128 61.2246 210.128C58.4902 210.128 57.7588 212.945 57.7588 215.064C57.7588 217.162 58.4971 219.999 61.2451 219.999ZM61.2383 219.179C59.1807 219.179 58.6133 216.923 58.6133 215.064C58.6133 213.191 59.1943 210.955 61.2246 210.955C63.2754 210.955 63.8496 213.204 63.8496 215.064C63.8496 216.923 63.2686 219.179 61.2383 219.179ZM69.0518 219.999C71.7314 219.999 72.5244 217.245 72.5244 215.064C72.5244 212.904 71.7246 210.128 69.0312 210.128C66.2969 210.128 65.5654 212.945 65.5654 215.064C65.5654 217.162 66.3037 219.999 69.0518 219.999ZM69.0449 219.179C66.9873 219.179 66.4199 216.923 66.4199 215.064C66.4199 213.191 67.001 210.955 69.0312 210.955C71.082 210.955 71.6562 213.204 71.6562 215.064C71.6562 216.923 71.0752 219.179 69.0449 219.179ZM75.6211 213.854C76.6396 213.854 77.3916 213.047 77.3916 212.008C77.3916 210.935 76.6738 210.156 75.6211 210.156C74.5957 210.156 73.8438 210.962 73.8438 212.008C73.8438 213.075 74.5615 213.854 75.6211 213.854ZM75.1973 219.924H75.8467L81.1787 210.183H80.5225L75.1973 219.924ZM75.6211 213.3C74.9102 213.3 74.4248 212.815 74.4248 212.008C74.4248 211.208 74.9033 210.709 75.6211 210.709C76.332 210.709 76.8105 211.195 76.8105 212.008C76.8105 212.801 76.3389 213.3 75.6211 213.3ZM80.7754 219.972C81.7939 219.972 82.5459 219.165 82.5459 218.126C82.5459 217.053 81.8281 216.274 80.7754 216.274C79.7568 216.274 78.998 217.08 78.998 218.126C78.998 219.193 79.7227 219.972 80.7754 219.972ZM80.7754 219.418C80.0645 219.418 79.5859 218.933 79.5859 218.126C79.5859 217.333 80.0576 216.828 80.7754 216.828C81.4863 216.828 81.9648 217.313 81.9648 218.126C81.9648 218.919 81.4932 219.418 80.7754 219.418Z" fill="#06757A"></path><path d="M137.539 194.405L139.816 202H141.186L142.781 196.726L144.381 202H145.751L148.028 194.405H146.61L144.994 199.997L143.312 194.405H142.254L140.573 199.997L138.957 194.405H137.539ZM149.135 194.405V202H150.499V198.799H153.824V202H155.188V194.405H153.824V197.563H150.499V194.405H149.135ZM157.127 194.405V202H162.176V200.738H158.491V198.777H161.923V197.542H158.491V195.641H162.176V194.405H157.127ZM163.809 194.405V202H165.119V196.677L168.299 202H169.663V194.405H168.353V199.723L165.178 194.405H163.809ZM176.382 202.107C177.983 202.107 179.036 201.2 179.036 199.905C179.036 197.3 175.373 197.843 175.373 196.301C175.373 195.812 175.781 195.479 176.366 195.479C176.946 195.479 177.306 195.77 177.553 196.323L178.815 195.99C178.413 194.899 177.542 194.298 176.393 194.298C174.997 194.298 174.019 195.152 174.019 196.393C174.019 199.035 177.693 198.503 177.693 200.05C177.693 200.566 177.285 200.926 176.441 200.926C175.63 200.926 175.002 200.496 174.868 199.535L173.514 199.878C173.745 201.227 174.825 202.107 176.382 202.107ZM181.861 195.641V202H183.225V195.641H185.604V194.405H179.481V195.641H181.861ZM189.294 194.405H188.306L185.282 202H186.722L187.35 200.351H190.224L190.847 202H192.318L189.294 194.405ZM188.784 196.333L189.832 199.186H187.748L188.784 196.333ZM198.629 196.597C198.629 195.27 197.604 194.405 196.067 194.405H193.339V202H194.703V198.793H195.686L197.416 202H198.979L197.013 198.648C197.996 198.342 198.629 197.574 198.629 196.597ZM195.971 197.58H194.714V195.641H195.971C196.782 195.641 197.233 196 197.233 196.607C197.233 197.214 196.792 197.58 195.971 197.58ZM201.659 195.641V202H203.023V195.641H205.402V194.405H199.279V195.641H201.659ZM206.477 194.405V202H207.841V194.405H206.477ZM209.774 194.405V202H211.085V196.677L214.265 202H215.629V194.405H214.318V199.723L211.144 194.405H209.774ZM220.667 202.107C221.698 202.107 222.531 201.742 223.036 200.926L223.154 202H224.233V197.939H221.188V199.067H222.939C222.799 200.109 221.94 200.872 220.769 200.872C219.174 200.872 218.497 199.647 218.497 198.149C218.497 196.479 219.383 195.522 220.769 195.522C221.752 195.522 222.439 195.963 222.799 196.908L224.072 196.403C223.471 195.001 222.343 194.298 220.769 194.298C218.497 194.298 217.079 195.839 217.079 198.203C217.079 200.614 218.481 202.107 220.667 202.107ZM231.699 202.107C234.202 202.107 235.352 200.271 235.352 198.203C235.352 196.135 234.202 194.298 231.699 194.298C229.196 194.298 228.047 196.135 228.047 198.203C228.047 200.271 229.196 202.107 231.699 202.107ZM231.699 200.872C230.066 200.872 229.465 199.621 229.465 198.203C229.465 196.785 230.066 195.533 231.699 195.533C233.332 195.533 233.934 196.785 233.934 198.203C233.934 199.621 233.332 200.872 231.699 200.872ZM239.53 202.107C241.566 202.107 242.447 200.894 242.447 198.981V194.405H241.083V198.885C241.083 200.131 240.771 200.824 239.546 200.824C238.327 200.824 238 200.131 238 198.885V194.405H236.641V199.046C236.641 200.904 237.495 202.107 239.53 202.107ZM245.745 195.641V202H247.109V195.641H249.488V194.405H243.365V195.641H245.745Z" fill="#21556D"></path><path d="M313.363 195.641V202H314.728V195.641H317.107V194.405H310.984V195.641H313.363ZM321.243 202.107C323.746 202.107 324.895 200.271 324.895 198.203C324.895 196.135 323.746 194.298 321.243 194.298C318.74 194.298 317.59 196.135 317.59 198.203C317.59 200.271 318.74 202.107 321.243 202.107ZM321.243 200.872C319.61 200.872 319.008 199.621 319.008 198.203C319.008 196.785 319.61 195.533 321.243 195.533C322.875 195.533 323.477 196.785 323.477 198.203C323.477 199.621 322.875 200.872 321.243 200.872ZM328.988 194.405V202H330.352V198.799H333.677V202H335.041V194.405H333.677V197.563H330.352V194.405H328.988ZM336.98 194.405V202H342.029V200.738H338.344V198.777H341.776V197.542H338.344V195.641H342.029V194.405H336.98ZM343.662 194.405V202H348.27V200.711H345.026V194.405H343.662ZM349.538 194.405V202H350.902V198.922H351.912C353.501 198.922 354.64 198.122 354.64 196.672C354.64 195.238 353.512 194.405 351.976 194.405H349.538ZM351.928 197.666H350.902V195.662H351.928C352.825 195.662 353.233 196.043 353.233 196.688C353.233 197.333 352.835 197.666 351.928 197.666ZM359.963 195.641V202H361.327V195.641H363.707V194.405H357.583V195.641H359.963ZM364.781 194.405V202H366.145V198.799H369.47V202H370.834V194.405H369.47V197.563H366.145V194.405H364.781ZM372.773 194.405V202H377.822V200.738H374.137V198.777H377.569V197.542H374.137V195.641H377.822V194.405H372.773ZM379.455 194.405V202H380.765V196.317L382.672 202H383.939L385.846 196.317V202H387.157V194.405H385.266L383.306 200.373L381.345 194.405H379.455ZM321.903 214.107C322.935 214.107 323.767 213.742 324.272 212.926L324.39 214H325.47V209.939H322.424V211.067H324.175C324.036 212.109 323.176 212.872 322.005 212.872C320.41 212.872 319.733 211.647 319.733 210.149C319.733 208.479 320.62 207.522 322.005 207.522C322.988 207.522 323.676 207.963 324.036 208.908L325.309 208.403C324.707 207.001 323.579 206.298 322.005 206.298C319.733 206.298 318.315 207.839 318.315 210.203C318.315 212.614 319.717 214.107 321.903 214.107ZM332.415 208.597C332.415 207.27 331.389 206.405 329.853 206.405H327.124V214H328.488V210.793H329.471L331.201 214H332.764L330.798 210.648C331.781 210.342 332.415 209.574 332.415 208.597ZM329.756 209.58H328.499V207.641H329.756C330.567 207.641 331.018 208 331.018 208.607C331.018 209.214 330.578 209.58 329.756 209.58ZM337.061 214.107C339.563 214.107 340.713 212.271 340.713 210.203C340.713 208.135 339.563 206.298 337.061 206.298C334.558 206.298 333.408 208.135 333.408 210.203C333.408 212.271 334.558 214.107 337.061 214.107ZM337.061 212.872C335.428 212.872 334.826 211.621 334.826 210.203C334.826 208.785 335.428 207.533 337.061 207.533C338.693 207.533 339.295 208.785 339.295 210.203C339.295 211.621 338.693 212.872 337.061 212.872ZM341.202 206.405L343.479 214H344.849L346.444 208.726L348.044 214H349.414L351.691 206.405H350.273L348.657 211.997L346.976 206.405H345.917L344.236 211.997L342.62 206.405H341.202ZM355.44 206.405V214H356.751V208.677L359.931 214H361.295V206.405H359.984V211.723L356.81 206.405H355.44ZM366.397 214.107C368.9 214.107 370.05 212.271 370.05 210.203C370.05 208.135 368.9 206.298 366.397 206.298C363.895 206.298 362.745 208.135 362.745 210.203C362.745 212.271 363.895 214.107 366.397 214.107ZM366.397 212.872C364.765 212.872 364.163 211.621 364.163 210.203C364.163 208.785 364.765 207.533 366.397 207.533C368.03 207.533 368.632 208.785 368.632 210.203C368.632 211.621 368.03 212.872 366.397 212.872ZM370.539 206.405L372.816 214H374.186L375.781 208.726L377.381 214H378.751L381.028 206.405H379.61L377.994 211.997L376.312 206.405H375.254L373.573 211.997L371.957 206.405H370.539Z" fill="#21556D"></path><path d="M450.312 195.405V203H451.676V199.799H455.001V203H456.365V195.405H455.001V198.563H451.676V195.405H450.312ZM461.473 203.107C463.976 203.107 465.125 201.271 465.125 199.203C465.125 197.135 463.976 195.298 461.473 195.298C458.97 195.298 457.821 197.135 457.821 199.203C457.821 201.271 458.97 203.107 461.473 203.107ZM461.473 201.872C459.84 201.872 459.239 200.621 459.239 199.203C459.239 197.785 459.84 196.533 461.473 196.533C463.106 196.533 463.708 197.785 463.708 199.203C463.708 200.621 463.106 201.872 461.473 201.872ZM465.614 195.405L467.892 203H469.261L470.856 197.726L472.457 203H473.827L476.104 195.405H474.686L473.069 200.997L471.388 195.405H470.33L468.649 200.997L467.032 195.405H465.614ZM479.853 195.405V203H481.217V199.922H482.227C483.817 199.922 484.956 199.122 484.956 197.672C484.956 196.238 483.828 195.405 482.292 195.405H479.853ZM482.243 198.666H481.217V196.662H482.243C483.14 196.662 483.548 197.043 483.548 197.688C483.548 198.333 483.151 198.666 482.243 198.666ZM489.285 203.107C491.788 203.107 492.937 201.271 492.937 199.203C492.937 197.135 491.788 195.298 489.285 195.298C486.782 195.298 485.632 197.135 485.632 199.203C485.632 201.271 486.782 203.107 489.285 203.107ZM489.285 201.872C487.652 201.872 487.05 200.621 487.05 199.203C487.05 197.785 487.652 196.533 489.285 196.533C490.917 196.533 491.519 197.785 491.519 199.203C491.519 200.621 490.917 201.872 489.285 201.872ZM494.387 195.405V203H498.996V201.711H495.751V195.405H494.387ZM500.263 195.405V203H501.627V195.405H500.263ZM506.741 203.107C508.438 203.107 509.512 202.382 510.108 200.921L508.846 200.406C508.438 201.41 507.788 201.818 506.768 201.818C505.387 201.818 504.496 200.921 504.496 199.17C504.496 197.532 505.366 196.587 506.768 196.587C507.869 196.587 508.502 197.081 508.825 197.983L510.098 197.479C509.496 196.034 508.427 195.298 506.768 195.298C504.517 195.298 503.078 196.829 503.078 199.224C503.078 201.673 504.571 203.107 506.741 203.107ZM513.057 200.035V203H514.48V200.035L517.316 195.405H515.667L513.761 198.725L511.87 195.405H510.21L513.057 200.035ZM518.278 195.405V203H519.588V197.317L521.495 203H522.763L524.669 197.317V203H525.98V195.405H524.089L522.129 201.373L520.168 195.405H518.278ZM531.013 195.405H530.024L527 203H528.44L529.068 201.351H531.942L532.565 203H534.037L531.013 195.405ZM530.502 197.333L531.55 200.186H529.466L530.502 197.333ZM536.421 195.405H535.057V203H536.421V200.943L537.941 199.401L540.251 203H541.954L538.865 198.467L541.889 195.405H540.117L536.421 199.251V195.405ZM543.028 195.405V203H548.077V201.738H544.392V199.777H547.824V198.542H544.392V196.641H548.077V195.405H543.028ZM555 197.597C555 196.27 553.974 195.405 552.438 195.405H549.709V203H551.074V199.793H552.057L553.786 203H555.349L553.383 199.648C554.366 199.342 555 198.574 555 197.597ZM552.341 198.58H551.084V196.641H552.341C553.152 196.641 553.604 197 553.604 197.607C553.604 198.214 553.163 198.58 552.341 198.58ZM558.652 203.107C560.253 203.107 561.306 202.2 561.306 200.905C561.306 198.3 557.643 198.843 557.643 197.301C557.643 196.812 558.051 196.479 558.636 196.479C559.216 196.479 559.576 196.77 559.823 197.323L561.085 196.99C560.683 195.899 559.812 195.298 558.663 195.298C557.267 195.298 556.289 196.152 556.289 197.393C556.289 200.035 559.963 199.503 559.963 201.05C559.963 201.566 559.555 201.926 558.711 201.926C557.9 201.926 557.272 201.496 557.138 200.535L555.784 200.878C556.015 202.227 557.095 203.107 558.652 203.107ZM483.554 215.107C485.251 215.107 486.325 214.382 486.921 212.921L485.659 212.406C485.251 213.41 484.601 213.818 483.581 213.818C482.2 213.818 481.309 212.921 481.309 211.17C481.309 209.532 482.179 208.587 483.581 208.587C484.682 208.587 485.315 209.081 485.638 209.983L486.911 209.479C486.309 208.034 485.24 207.298 483.581 207.298C481.33 207.298 479.891 208.829 479.891 211.224C479.891 213.673 481.384 215.107 483.554 215.107ZM491.272 207.405H490.284L487.26 215H488.699L489.328 213.351H492.201L492.824 215H494.296L491.272 207.405ZM490.762 209.333L491.809 212.186H489.725L490.762 209.333ZM495.316 207.405V215H496.627V209.677L499.807 215H501.171V207.405H499.86V212.723L496.686 207.405H495.316ZM505.747 207.405V215H507.111V211.799H510.436V215H511.8V207.405H510.436V210.563H507.111V207.405H505.747ZM513.739 207.405V215H518.788V213.738H515.104V211.777H518.536V210.542H515.104V208.641H518.788V207.405H513.739ZM520.421 207.405V215H525.029V213.711H521.785V207.405H520.421ZM526.297 207.405V215H527.661V211.922H528.671C530.261 211.922 531.399 211.122 531.399 209.672C531.399 208.238 530.271 207.405 528.735 207.405H526.297ZM528.687 210.666H527.661V208.662H528.687C529.584 208.662 529.992 209.043 529.992 209.688C529.992 210.333 529.595 210.666 528.687 210.666Z" fill="#21556D"></path><path d="M184.322 300.645C182.828 300.645 181.529 301.172 180.602 302.168C180.641 297.324 181.49 295.312 183.482 295.312H183.756C184.117 295.312 184.176 295.381 184.303 295.605L186.314 299.316H186.354L188.033 295.654C186.51 295.127 184.986 294.912 183.717 294.912C179.098 294.912 176.754 297.637 176.754 302.656C176.754 307.393 178.893 310.215 182.926 310.215C186.383 310.215 188.58 308.184 188.58 305.049C188.58 302.148 186.803 300.645 184.322 300.645ZM182.545 301.621C184.371 301.621 185.064 303.379 185.064 305.664C185.064 308.311 184.117 309.805 182.887 309.805C181.51 309.805 180.602 307.969 180.602 302.656V302.422C181.236 301.875 181.891 301.621 182.545 301.621ZM197.701 300.645C196.207 300.645 194.908 301.172 193.98 302.168C194.02 297.324 194.869 295.312 196.861 295.312H197.135C197.496 295.312 197.555 295.381 197.682 295.605L199.693 299.316H199.732L201.412 295.654C199.889 295.127 198.365 294.912 197.096 294.912C192.477 294.912 190.133 297.637 190.133 302.656C190.133 307.393 192.271 310.215 196.305 310.215C199.762 310.215 201.959 308.184 201.959 305.049C201.959 302.148 200.182 300.645 197.701 300.645ZM195.924 301.621C197.75 301.621 198.443 303.379 198.443 305.664C198.443 308.311 197.496 309.805 196.266 309.805C194.889 309.805 193.98 307.969 193.98 302.656V302.422C194.615 301.875 195.27 301.621 195.924 301.621ZM206.812 295.225C207.594 295.225 207.721 296.094 207.721 298.086C207.721 300.029 207.594 300.918 206.812 300.918C206.051 300.918 205.943 300.029 205.943 298.066C205.943 296.094 206.051 295.225 206.812 295.225ZM206.812 294.912C204.742 294.912 203.805 296.182 203.805 298.066C203.805 299.971 204.742 301.24 206.812 301.24C208.932 301.24 209.859 299.971 209.859 298.086C209.859 296.162 208.932 294.912 206.812 294.912ZM212.838 304.18C213.619 304.18 213.746 305.049 213.746 307.041C213.746 308.984 213.619 309.873 212.838 309.873C212.076 309.873 211.969 308.984 211.969 307.021C211.969 305.049 212.076 304.18 212.838 304.18ZM212.838 303.867C210.768 303.867 209.83 305.137 209.83 307.021C209.83 308.926 210.768 310.195 212.838 310.195C214.957 310.195 215.885 308.926 215.885 307.041C215.885 305.117 214.957 303.867 212.838 303.867ZM215.533 295.254L214.859 294.785L204.195 309.834L204.869 310.322L215.533 295.254Z" fill="#06757A"></path><path d="M342.693 293.645C341.199 293.645 339.9 294.172 338.973 295.168C339.012 290.324 339.861 288.312 341.854 288.312H342.127C342.488 288.312 342.547 288.381 342.674 288.605L344.686 292.316H344.725L346.404 288.654C344.881 288.127 343.357 287.912 342.088 287.912C337.469 287.912 335.125 290.637 335.125 295.656C335.125 300.393 337.264 303.215 341.297 303.215C344.754 303.215 346.951 301.184 346.951 298.049C346.951 295.148 345.174 293.645 342.693 293.645ZM340.916 294.621C342.742 294.621 343.436 296.379 343.436 298.664C343.436 301.311 342.488 302.805 341.258 302.805C339.881 302.805 338.973 300.969 338.973 295.656V295.422C339.607 294.875 340.262 294.621 340.916 294.621ZM354.021 303.215C357.703 303.215 359.715 301.203 359.715 298.898C359.715 296.887 358.514 295.764 356.521 294.68L355.691 294.24C357.557 293.918 358.875 292.99 358.875 291.34C358.875 289.162 356.482 287.912 353.943 287.912C351.023 287.912 348.836 289.543 348.836 292.121C348.836 294.113 350.135 295.236 351.883 296.418L352.01 296.506C349.832 296.887 348.455 297.941 348.455 299.631C348.455 301.711 350.721 303.215 354.021 303.215ZM354.578 297.922C356.033 298.723 356.775 299.377 356.775 300.5C356.775 301.965 355.691 302.785 354.236 302.785C352.391 302.785 351.043 301.311 351.043 299.553C351.043 298.195 351.404 297.199 352.186 296.584L354.578 297.922ZM351.609 290.412C351.609 289.113 352.566 288.312 353.855 288.312C355.438 288.312 356.395 289.709 356.395 291.574C356.395 292.736 356.121 293.518 355.506 294.152L354.021 293.332C352.439 292.443 351.609 291.652 351.609 290.412ZM364.441 288.225C365.223 288.225 365.35 289.094 365.35 291.086C365.35 293.029 365.223 293.918 364.441 293.918C363.68 293.918 363.572 293.029 363.572 291.066C363.572 289.094 363.68 288.225 364.441 288.225ZM364.441 287.912C362.371 287.912 361.434 289.182 361.434 291.066C361.434 292.971 362.371 294.24 364.441 294.24C366.561 294.24 367.488 292.971 367.488 291.086C367.488 289.162 366.561 287.912 364.441 287.912ZM370.467 297.18C371.248 297.18 371.375 298.049 371.375 300.041C371.375 301.984 371.248 302.873 370.467 302.873C369.705 302.873 369.598 301.984 369.598 300.021C369.598 298.049 369.705 297.18 370.467 297.18ZM370.467 296.867C368.396 296.867 367.459 298.137 367.459 300.021C367.459 301.926 368.396 303.195 370.467 303.195C372.586 303.195 373.514 301.926 373.514 300.041C373.514 298.117 372.586 296.867 370.467 296.867ZM373.162 288.254L372.488 287.785L361.824 302.834L362.498 303.322L373.162 288.254Z" fill="#06757A"></path><path d="M499.389 354.127L493.295 365.191V365.211H498.959V367.096C498.959 367.33 498.92 367.438 498.705 367.604L497.182 368.961V369H504.174V368.961L502.67 367.584C502.475 367.389 502.436 367.33 502.436 367.096V365.211H505.248L505.648 360.748H505.609L503.432 364.488C503.256 364.771 503.178 364.791 502.875 364.791H502.436V354.127H499.389ZM493.988 364.791L498.959 355.875V364.791H493.988ZM514.398 359.645C512.904 359.645 511.605 360.172 510.678 361.168C510.717 356.324 511.566 354.312 513.559 354.312H513.832C514.193 354.312 514.252 354.381 514.379 354.605L516.391 358.316H516.43L518.109 354.654C516.586 354.127 515.062 353.912 513.793 353.912C509.174 353.912 506.83 356.637 506.83 361.656C506.83 366.393 508.969 369.215 513.002 369.215C516.459 369.215 518.656 367.184 518.656 364.049C518.656 361.148 516.879 359.645 514.398 359.645ZM512.621 360.621C514.447 360.621 515.141 362.379 515.141 364.664C515.141 367.311 514.193 368.805 512.963 368.805C511.586 368.805 510.678 366.969 510.678 361.656V361.422C511.312 360.875 511.967 360.621 512.621 360.621ZM523.51 354.225C524.291 354.225 524.418 355.094 524.418 357.086C524.418 359.029 524.291 359.918 523.51 359.918C522.748 359.918 522.641 359.029 522.641 357.066C522.641 355.094 522.748 354.225 523.51 354.225ZM523.51 353.912C521.439 353.912 520.502 355.182 520.502 357.066C520.502 358.971 521.439 360.24 523.51 360.24C525.629 360.24 526.557 358.971 526.557 357.086C526.557 355.162 525.629 353.912 523.51 353.912ZM529.535 363.18C530.316 363.18 530.443 364.049 530.443 366.041C530.443 367.984 530.316 368.873 529.535 368.873C528.773 368.873 528.666 367.984 528.666 366.021C528.666 364.049 528.773 363.18 529.535 363.18ZM529.535 362.867C527.465 362.867 526.527 364.137 526.527 366.021C526.527 367.926 527.465 369.195 529.535 369.195C531.654 369.195 532.582 367.926 532.582 366.041C532.582 364.117 531.654 362.867 529.535 362.867ZM532.23 354.254L531.557 353.785L520.893 368.834L521.566 369.322L532.23 354.254Z" fill="#06757A"></path><ellipse cx="189" cy="323.691" rx="5" ry="4.38144" fill="#254759"></ellipse><ellipse cx="350" cy="317.557" rx="5" ry="4.38144" fill="#254759"></ellipse><circle cx="508" cy="383" r="4" fill="#254759"></circle><path d="M189 323.691L348.5 317.557" stroke="#254759"></path><path d="M508 383L349.757 317.994" stroke="#254759"></path><path d="M66.9844 62.9844V45.5781C66.9844 45.1094 67.0156 45.0469 67.3281 44.7344L69.5625 42.2656V42.2031H62.2812L56.0469 57.6406L48.9688 42.2031H40.875V42.2656L43.6562 45.9219C43.9219 46.2656 43.9688 46.3281 43.9688 46.9062V60.3125C43.9688 60.8594 43.8906 60.9219 43.5156 61.4219L40.1094 65.9375V66H48.5312V65.9375L45.1094 61.4219C44.7344 60.9219 44.6719 60.8594 44.6719 60.3125V47.375C44.8438 47.8438 45.1094 48.4219 45.3125 48.8594L53.2344 66.2656H53.3125L60.9531 47.3438C60.8906 48.0156 60.8594 48.7969 60.8594 49.375V62.9844C60.8594 63.4219 60.8281 63.5312 60.5469 63.7969L58.2812 65.9375V66H69.5625V65.9375L67.3281 63.7969C67.0156 63.5312 66.9844 63.4219 66.9844 62.9844ZM84.8675 55.8125C84.8675 53.2031 84.2581 51.5469 83.18 50.5312C81.9613 49.375 80.1956 48.9688 77.93 48.9688C75.7581 48.9688 73.3519 49.4375 71.0863 50.25L73.2269 55.0938H73.2894L76.0394 50.0156C76.2425 49.6406 76.2738 49.6094 76.9456 49.6094C78.7113 49.6094 79.4144 51.1719 79.4144 53.5V53.6719L79.3519 57.2969C78.43 56.6562 77.2113 56.3906 75.7581 56.3906C72.9925 56.3906 70.0706 58.1406 70.0706 61.5C70.0706 64.6094 72.2113 66.2656 74.68 66.2656C76.8831 66.2656 78.6019 64.9531 79.2894 62.9844C79.3831 65.125 81.0394 66.2656 82.9769 66.2656C84.6019 66.2656 85.7425 65.5312 86.2894 64.4062C86.4925 64 86.5706 63.5 86.5706 63.1875H86.4925C86.2894 63.5938 85.9925 63.7969 85.5394 63.7969C84.8675 63.7969 84.5706 63.1562 84.6331 61.8281L84.8363 57.0312C84.8363 56.9219 84.8675 56.1406 84.8675 55.8125ZM78.1019 57.4375C78.5394 57.4375 78.9456 57.5 79.3519 57.6406L79.2894 62.5781V62.6094C78.8363 63.2969 78.1019 63.7969 77.3519 63.7969C76.1956 63.7969 75.3519 62.7812 75.3519 60.9219C75.3519 58.9531 76.3363 57.4375 78.1019 57.4375ZM101.344 50.0938C100.844 49.4062 100.063 48.9688 99.0475 48.9688C96.6725 48.9688 95.2506 51.1719 94.6725 53.5781V49.2344H87.1569V49.3125L88.8288 51C89.0944 51.3125 89.1256 51.4062 89.1256 51.8438V63.5625C89.1256 64 89.1256 64.1094 88.8288 64.375L87.1569 65.9375V66H98.5006V65.9375L95.1881 64C94.7194 63.7031 94.6725 63.5312 94.6725 63.1562V54.0156C95.1881 53.0625 95.5631 52.4531 96.1413 52.0469C96.3756 51.875 96.5788 52.0156 96.7506 52.2188L99.4225 55.4062H99.485L101.344 50.0938ZM113.634 54.625C113.493 54.3125 113.524 54.2188 113.806 54.0156L119.993 49.3125V49.2344H111.696V49.3125L114.009 52.5938C114.212 52.8594 114.212 53.0625 113.931 53.2656L108.446 57.3594V41.3125L100.978 42.2031V42.2656L102.634 43.8281C102.899 44.0938 102.931 44.2344 102.931 44.6719V63.5625C102.931 64 102.899 64.1094 102.634 64.375L100.978 65.9375V66H110.446V65.9375L108.79 64.375C108.493 64.1094 108.446 64 108.446 63.5625V57.7344C108.587 57.6406 108.728 57.6094 108.821 57.6094C109.056 57.6094 109.306 57.7031 109.431 58.0156L113.196 66H120.368V65.9375L118.946 64.6094C118.649 64.3125 118.415 64 118.165 63.5625L113.634 54.625ZM135.439 56.8594C135.47 56.4531 135.47 56.2188 135.47 56.1094C135.47 50.6562 131.642 48.9688 128.048 48.9688C123.548 48.9688 119.564 51.4688 119.564 57.7344C119.564 63.7031 123.579 66.2656 127.845 66.2656C131.814 66.2656 134.454 64.2656 135.329 60H135.267C134.142 62.2344 132.158 63.125 130.126 63.125C127.517 63.125 125.283 61.3281 125.283 56.9219V56.8594H135.439ZM127.986 49.6094C129.376 49.6094 130.283 50.7969 130.283 55.2344C130.283 55.375 130.283 55.8125 130.251 56.25H125.283C125.345 51.3438 126.298 49.6094 127.986 49.6094ZM147.494 49.2344H143.322V43.5469H143.259L138.525 48.8594C138.181 49.2344 138.009 49.2344 137.463 49.2344H135.947V50.0156H137.806V61.625C137.806 64.6719 139.259 66.2656 142.213 66.2656C145.431 66.2656 146.806 64.3125 147.15 62.4062L147.088 62.375C146.713 63.0469 145.994 63.625 145.119 63.625C144.009 63.625 143.322 62.75 143.322 61.2188V50.0156H147.494V49.2344ZM152.205 47.375C153.736 47.375 154.955 46.3906 154.955 44.875C154.955 43.25 153.736 42.2344 152.205 42.2344C150.752 42.2344 149.502 43.25 149.502 44.875C149.502 46.3906 150.752 47.375 152.205 47.375ZM147.564 49.2344V49.3125L149.236 51C149.502 51.3125 149.533 51.4062 149.533 51.8438V63.5625C149.533 64 149.533 64.1094 149.236 64.375L147.564 65.9375V66H157.049V65.9375L155.393 64.375C155.08 64.1094 155.08 64 155.08 63.5625V49.2344H147.564ZM175.932 56.1094C175.932 51.4375 174.041 48.9688 170.651 48.9688C167.901 48.9688 166.119 50.4531 165.26 52.8281V49.2344H157.744V49.3125L159.416 51C159.682 51.3125 159.713 51.4062 159.713 51.8438V63.5625C159.713 64 159.713 64.1094 159.416 64.375L157.744 65.9375V66H167.229V65.9375L165.573 64.375C165.26 64.1094 165.26 64 165.26 63.5625V53.2656C165.869 52.3906 166.682 51.7812 167.776 51.7812C169.869 51.7812 170.338 53.8125 170.338 56.8906C170.338 58.5156 170.244 63.0938 170.244 63.5938C170.244 63.9688 170.213 64.1094 169.932 64.375L168.307 65.9375V66H177.823V65.9375L176.135 64.375C175.869 64.1094 175.838 64 175.838 63.5625C175.869 60.8906 175.932 58.2188 175.932 56.1094ZM178.753 54.5938C178.753 57.4688 180.471 59.0625 183.018 59.7031C180.409 60.3125 178.753 61.8281 178.753 63.8281C178.753 65.5938 180.065 67.0156 182.44 67.5312C179.628 67.9375 178.518 69.2188 178.518 70.5781C178.518 72.9062 182.096 73.9844 185.456 73.9844C190.862 73.9844 195.003 71.2188 195.003 67.0469C195.003 64 192.831 62.5469 188.94 62.5469H185.784C183.487 62.5469 182.331 61.9688 182.331 61.0625C182.331 60.5469 182.674 60.0781 183.393 59.7969C184.237 60 185.143 60.0781 186.128 60.0781C190.331 60.0781 193.503 58.5156 193.503 54.7969C193.503 53.0625 192.799 51.9531 191.784 51.1406H194.971V46.0625L194.893 46.0156L191.378 49.75C191.065 50.0938 190.971 50.0938 190.659 49.9219C189.721 49.4062 188.128 48.9688 186.034 48.9688C181.862 48.9688 178.753 50.7344 178.753 54.5938ZM183.924 67.6875L188.331 67.8281C190.831 67.9375 191.581 68.7031 191.581 70.0312C191.581 72.2344 189.081 73.2812 186.596 73.2812C183.956 73.2812 181.393 72 181.393 69.7188C181.393 68.7031 181.893 68.0625 182.737 67.5625C183.112 67.625 183.487 67.6562 183.924 67.6875ZM183.956 54.4844C183.956 50.8281 184.706 49.5469 186.128 49.5469C187.549 49.5469 188.299 50.8281 188.299 54.5156C188.299 58.25 187.518 59.5 186.128 59.5C184.737 59.5 183.956 58.25 183.956 54.4844ZM211.519 63.1875C211.519 64.6406 210.3 65.6562 208.331 65.6562H207.55C207.175 65.6562 206.972 65.4844 206.847 65.2188L204.128 59.9688H204.066L202.206 65.2188C204.128 65.8906 206.503 66.2656 208.441 66.2656C212.941 66.2656 216.019 64.3125 216.019 60.6562C216.019 58.0469 214.363 56.8906 212.253 55.9844L210.097 55.0312C208.097 54.1562 206.972 53.4375 206.972 51.9531C206.972 50.3594 208.238 49.5781 209.722 49.5781H210.191C210.675 49.5781 210.769 49.75 210.972 50.0938L213.613 54.7969H213.675L215.581 49.8906C213.378 49.2031 211.284 48.9688 209.613 48.9688C205.316 48.9688 202.675 51.1094 202.675 54.3125C202.675 56.7188 204.097 58.25 205.956 59.125L208.269 60.2031C210.472 61.2188 211.519 61.7969 211.519 63.1875ZM234.386 49.2344H226.871V49.3125L228.527 51C228.792 51.3125 228.839 51.4062 228.839 51.8438V61.9688C228.261 62.8125 227.48 63.5 226.402 63.5C224.496 63.5 224.058 61.4688 224.058 58.4531C224.058 58.0156 224.089 49.3438 224.089 49.2344H216.605V49.3125L218.277 51C218.542 51.2656 218.574 51.375 218.574 51.8125C218.542 54.5625 218.511 57 218.511 59.2344C218.511 63.8281 220.308 66.2656 223.652 66.2656C226.152 66.2656 227.98 64.6719 228.839 62.375V66H236.386V65.9375L234.699 64.2656C234.386 64 234.386 63.8594 234.386 63.4219V49.2344ZM238.426 71.2812C238.426 71.7188 238.394 71.8281 238.129 72.0938L236.457 73.6562V73.7188H246.957V73.6562L244.457 71.9219C243.973 71.625 243.941 71.5156 243.941 71.0781V63.7031C244.551 65.2812 245.973 66.2656 248.41 66.2656C252.504 66.2656 255.598 62.7188 255.598 57.2656C255.598 52.1562 252.957 48.9688 249.191 48.9688C246.926 48.9688 245.098 50.1562 243.941 52.8281V49.2344H236.457V49.3125L238.129 51C238.394 51.3125 238.426 51.4062 238.426 51.8438V71.2812ZM246.488 51.6719C248.441 51.6719 249.738 53.4062 249.738 57.5312C249.738 62.4844 247.879 64.3125 246.144 64.3125C245.238 64.3125 244.426 63.9688 243.941 63.4531V53.2656C244.551 52.3594 245.441 51.6719 246.488 51.6719ZM257.949 71.2812C257.949 71.7188 257.918 71.8281 257.652 72.0938L255.981 73.6562V73.7188H266.481V73.6562L263.981 71.9219C263.496 71.625 263.465 71.5156 263.465 71.0781V63.7031C264.074 65.2812 265.496 66.2656 267.934 66.2656C272.027 66.2656 275.121 62.7188 275.121 57.2656C275.121 52.1562 272.481 48.9688 268.715 48.9688C266.449 48.9688 264.621 50.1562 263.465 52.8281V49.2344H255.981V49.3125L257.652 51C257.918 51.3125 257.949 51.4062 257.949 51.8438V71.2812ZM266.012 51.6719C267.965 51.6719 269.262 53.4062 269.262 57.5312C269.262 62.4844 267.402 64.3125 265.668 64.3125C264.762 64.3125 263.949 63.9688 263.465 63.4531V53.2656C264.074 52.3594 264.965 51.6719 266.012 51.6719ZM285.364 49.6094C287.051 49.6094 288.098 51.1094 288.098 57.6406C288.098 64.2031 287.051 65.6562 285.364 65.6562C283.661 65.6562 282.614 64.1406 282.614 57.6094C282.614 51.0312 283.661 49.6094 285.364 49.6094ZM285.364 66.2656C290.708 66.2656 294.301 63.3281 294.301 57.6406C294.301 51.875 290.708 48.9688 285.364 48.9688C280.004 48.9688 276.458 51.9219 276.458 57.6094C276.458 63.3594 280.004 66.2656 285.364 66.2656ZM309.372 50.0938C308.872 49.4062 308.091 48.9688 307.075 48.9688C304.7 48.9688 303.278 51.1719 302.7 53.5781V49.2344H295.184V49.3125L296.856 51C297.122 51.3125 297.153 51.4062 297.153 51.8438V63.5625C297.153 64 297.153 64.1094 296.856 64.375L295.184 65.9375V66H306.528V65.9375L303.216 64C302.747 63.7031 302.7 63.5312 302.7 63.1562V54.0156C303.216 53.0625 303.591 52.4531 304.169 52.0469C304.403 51.875 304.606 52.0156 304.778 52.2188L307.45 55.4062H307.512L309.372 50.0938ZM320.411 49.2344H316.239V43.5469H316.177L311.443 48.8594C311.099 49.2344 310.927 49.2344 310.38 49.2344H308.864V50.0156H310.724V61.625C310.724 64.6719 312.177 66.2656 315.13 66.2656C318.349 66.2656 319.724 64.3125 320.068 62.4062L320.005 62.375C319.63 63.0469 318.911 63.625 318.036 63.625C316.927 63.625 316.239 62.75 316.239 61.2188V50.0156H320.411V49.2344ZM54.8594 87.0938C54.3594 86.4062 53.5781 85.9688 52.5625 85.9688C50.1875 85.9688 48.7656 88.1719 48.1875 90.5781V86.2344H40.6719V86.3125L42.3438 88C42.6094 88.3125 42.6406 88.4062 42.6406 88.8438V100.562C42.6406 101 42.6406 101.109 42.3438 101.375L40.6719 102.938V103H52.0156V102.938L48.7031 101C48.2344 100.703 48.1875 100.531 48.1875 100.156V91.0156C48.7031 90.0625 49.0781 89.4531 49.6562 89.0469C49.8906 88.875 50.0938 89.0156 50.2656 89.2188L52.9375 92.4062H53L54.8594 87.0938ZM70.555 93.8594C70.5863 93.4531 70.5863 93.2188 70.5863 93.1094C70.5863 87.6562 66.7581 85.9688 63.1644 85.9688C58.6644 85.9688 54.68 88.4688 54.68 94.7344C54.68 100.703 58.6956 103.266 62.9613 103.266C66.93 103.266 69.5706 101.266 70.4456 97H70.3831C69.2581 99.2344 67.2738 100.125 65.2425 100.125C62.6331 100.125 60.3988 98.3281 60.3988 93.9219V93.8594H70.555ZM63.1019 86.6094C64.4925 86.6094 65.3988 87.7969 65.3988 92.2344C65.3988 92.375 65.3988 92.8125 65.3675 93.25H60.3988C60.4613 88.3438 61.4144 86.6094 63.1019 86.6094ZM100.094 93.1094C100.094 88.4375 98.2038 85.9688 94.8444 85.9688C92.0006 85.9688 89.9694 87.7344 89.1881 89.9688C88.485 87.3594 86.7819 85.9688 84.2819 85.9688C81.5319 85.9688 79.7506 87.4531 78.8913 89.8281V86.2344H71.3756V86.3125L73.0475 88C73.3131 88.3125 73.3444 88.4062 73.3444 88.8438V100.562C73.3444 101 73.3444 101.109 73.0475 101.375L71.3756 102.938V103H80.86V102.938L79.2038 101.375C78.8913 101.109 78.8913 101 78.8913 100.562V90.2656C79.5006 89.3906 80.3131 88.7812 81.4069 88.7812C83.5006 88.7812 83.9694 90.8125 83.9694 93.8906C83.9694 95.5156 83.8756 100.094 83.8756 100.594C83.8756 100.969 83.8444 101.109 83.5631 101.375L81.9381 102.938V103H91.4538V102.938L89.7663 101.375C89.5006 101.109 89.4694 101 89.4694 100.562C89.5006 97.8906 89.5631 95.2188 89.5631 93.1094C89.5631 92.0312 89.4694 91.0781 89.2663 90.2344C89.9381 89.3594 90.8444 88.7812 91.9381 88.7812C94.0631 88.7812 94.5475 90.8438 94.5475 93.8906C94.5475 95.5156 94.4381 100.047 94.4381 100.594C94.4381 100.969 94.3756 101.109 94.0944 101.375L92.5163 102.938V103H101.985V102.938L100.329 101.375C100.032 101.109 99.985 101 99.985 100.562C100.032 97.8906 100.094 95.3438 100.094 93.1094ZM117.196 92.8125C117.196 90.2031 116.587 88.5469 115.509 87.5312C114.29 86.375 112.524 85.9688 110.259 85.9688C108.087 85.9688 105.681 86.4375 103.415 87.25L105.556 92.0938H105.618L108.368 87.0156C108.571 86.6406 108.603 86.6094 109.274 86.6094C111.04 86.6094 111.743 88.1719 111.743 90.5V90.6719L111.681 94.2969C110.759 93.6562 109.54 93.3906 108.087 93.3906C105.321 93.3906 102.399 95.1406 102.399 98.5C102.399 101.609 104.54 103.266 107.009 103.266C109.212 103.266 110.931 101.953 111.618 99.9844C111.712 102.125 113.368 103.266 115.306 103.266C116.931 103.266 118.071 102.531 118.618 101.406C118.821 101 118.899 100.5 118.899 100.188H118.821C118.618 100.594 118.321 100.797 117.868 100.797C117.196 100.797 116.899 100.156 116.962 98.8281L117.165 94.0312C117.165 93.9219 117.196 93.1406 117.196 92.8125ZM110.431 94.4375C110.868 94.4375 111.274 94.5 111.681 94.6406L111.618 99.5781V99.6094C111.165 100.297 110.431 100.797 109.681 100.797C108.524 100.797 107.681 99.7812 107.681 97.9219C107.681 95.9531 108.665 94.4375 110.431 94.4375ZM124.126 84.375C125.658 84.375 126.876 83.3906 126.876 81.875C126.876 80.25 125.658 79.2344 124.126 79.2344C122.673 79.2344 121.423 80.25 121.423 81.875C121.423 83.3906 122.673 84.375 124.126 84.375ZM119.486 86.2344V86.3125L121.158 88C121.423 88.3125 121.454 88.4062 121.454 88.8438V100.562C121.454 101 121.454 101.109 121.158 101.375L119.486 102.938V103H128.97V102.938L127.314 101.375C127.001 101.109 127.001 101 127.001 100.562V86.2344H119.486ZM147.853 93.1094C147.853 88.4375 145.963 85.9688 142.572 85.9688C139.822 85.9688 138.041 87.4531 137.181 89.8281V86.2344H129.666V86.3125L131.338 88C131.603 88.3125 131.634 88.4062 131.634 88.8438V100.562C131.634 101 131.634 101.109 131.338 101.375L129.666 102.938V103H139.15V102.938L137.494 101.375C137.181 101.109 137.181 101 137.181 100.562V90.2656C137.791 89.3906 138.603 88.7812 139.697 88.7812C141.791 88.7812 142.259 90.8125 142.259 93.8906C142.259 95.5156 142.166 100.094 142.166 100.594C142.166 100.969 142.134 101.109 141.853 101.375L140.228 102.938V103H149.744V102.938L148.056 101.375C147.791 101.109 147.759 101 147.759 100.562C147.791 97.8906 147.853 95.2188 147.853 93.1094ZM159.611 100.188C159.611 101.641 158.393 102.656 156.424 102.656H155.643C155.268 102.656 155.064 102.484 154.939 102.219L152.221 96.9688H152.158L150.299 102.219C152.221 102.891 154.596 103.266 156.533 103.266C161.033 103.266 164.111 101.312 164.111 97.6562C164.111 95.0469 162.455 93.8906 160.346 92.9844L158.189 92.0312C156.189 91.1562 155.064 90.4375 155.064 88.9531C155.064 87.3594 156.33 86.5781 157.814 86.5781H158.283C158.768 86.5781 158.861 86.75 159.064 87.0938L161.705 91.7969H161.768L163.674 86.8906C161.471 86.2031 159.377 85.9688 157.705 85.9688C153.408 85.9688 150.768 88.1094 150.768 91.3125C150.768 93.7188 152.189 95.25 154.049 96.125L156.361 97.2031C158.564 98.2188 159.611 98.7969 159.611 100.188ZM186.44 92.8125C186.44 90.2031 185.831 88.5469 184.753 87.5312C183.534 86.375 181.768 85.9688 179.503 85.9688C177.331 85.9688 174.924 86.4375 172.659 87.25L174.799 92.0938H174.862L177.612 87.0156C177.815 86.6406 177.846 86.6094 178.518 86.6094C180.284 86.6094 180.987 88.1719 180.987 90.5V90.6719L180.924 94.2969C180.003 93.6562 178.784 93.3906 177.331 93.3906C174.565 93.3906 171.643 95.1406 171.643 98.5C171.643 101.609 173.784 103.266 176.253 103.266C178.456 103.266 180.174 101.953 180.862 99.9844C180.956 102.125 182.612 103.266 184.549 103.266C186.174 103.266 187.315 102.531 187.862 101.406C188.065 101 188.143 100.5 188.143 100.188H188.065C187.862 100.594 187.565 100.797 187.112 100.797C186.44 100.797 186.143 100.156 186.206 98.8281L186.409 94.0312C186.409 93.9219 186.44 93.1406 186.44 92.8125ZM179.674 94.4375C180.112 94.4375 180.518 94.5 180.924 94.6406L180.862 99.5781V99.6094C180.409 100.297 179.674 100.797 178.924 100.797C177.768 100.797 176.924 99.7812 176.924 97.9219C176.924 95.9531 177.909 94.4375 179.674 94.4375ZM202.988 103.266C206.878 103.266 209.253 100.969 209.831 97.3125H209.769C208.847 99.0781 207.394 100.094 205.597 100.094C203.3 100.094 201.034 98.3594 201.034 93.1875C201.034 88.8125 202.175 86.6094 204.238 86.6094H204.409C204.816 86.6094 204.894 86.6875 205.019 87.0156L207.628 92.8125H207.691L209.863 86.9844C207.738 86.2812 205.909 85.9688 204.113 85.9688C199.738 85.9688 195.097 88.2656 195.097 94.8125C195.097 100.562 198.956 103.266 202.988 103.266ZM228.527 93.1094C228.527 88.4375 226.667 85.9688 223.246 85.9688C220.464 85.9688 218.714 87.5 217.855 89.9375V78.3125L210.386 79.2031V79.2656L212.042 80.8281C212.308 81.0938 212.339 81.2344 212.339 81.6719V100.562C212.339 101 212.308 101.109 212.042 101.375L210.386 102.938V103H219.855V102.938L218.199 101.375C217.902 101.109 217.855 101 217.855 100.562V90.2969C218.464 89.4219 219.246 88.7812 220.402 88.7812C222.464 88.7812 222.98 90.8125 222.98 93.8906C222.98 95.5156 222.871 100.094 222.871 100.594C222.871 100.969 222.839 101.109 222.527 101.375L220.949 102.938V103H230.417V102.938L228.761 101.375C228.464 101.109 228.433 101 228.433 100.562C228.464 97.8906 228.527 95.2188 228.527 93.1094ZM245.629 92.8125C245.629 90.2031 245.019 88.5469 243.941 87.5312C242.723 86.375 240.957 85.9688 238.691 85.9688C236.519 85.9688 234.113 86.4375 231.848 87.25L233.988 92.0938H234.051L236.801 87.0156C237.004 86.6406 237.035 86.6094 237.707 86.6094C239.473 86.6094 240.176 88.1719 240.176 90.5V90.6719L240.113 94.2969C239.191 93.6562 237.973 93.3906 236.519 93.3906C233.754 93.3906 230.832 95.1406 230.832 98.5C230.832 101.609 232.973 103.266 235.441 103.266C237.644 103.266 239.363 101.953 240.051 99.9844C240.144 102.125 241.801 103.266 243.738 103.266C245.363 103.266 246.504 102.531 247.051 101.406C247.254 101 247.332 100.5 247.332 100.188H247.254C247.051 100.594 246.754 100.797 246.301 100.797C245.629 100.797 245.332 100.156 245.394 98.8281L245.598 94.0312C245.598 93.9219 245.629 93.1406 245.629 92.8125ZM238.863 94.4375C239.301 94.4375 239.707 94.5 240.113 94.6406L240.051 99.5781V99.6094C239.598 100.297 238.863 100.797 238.113 100.797C236.957 100.797 236.113 99.7812 236.113 97.9219C236.113 95.9531 237.098 94.4375 238.863 94.4375ZM255.027 78.3125L247.559 79.2031V79.2656L249.215 80.8281C249.481 81.0938 249.512 81.2344 249.512 81.6719V100.562C249.512 101 249.481 101.109 249.215 101.375L247.559 102.938V103H257.027V102.938L255.371 101.375C255.074 101.109 255.027 101 255.027 100.562V78.3125ZM264.801 78.3125L257.333 79.2031V79.2656L258.989 80.8281C259.254 81.0938 259.286 81.2344 259.286 81.6719V100.562C259.286 101 259.254 101.109 258.989 101.375L257.333 102.938V103H266.801V102.938L265.145 101.375C264.848 101.109 264.801 101 264.801 100.562V78.3125ZM283.106 93.8594C283.137 93.4531 283.137 93.2188 283.137 93.1094C283.137 87.6562 279.309 85.9688 275.716 85.9688C271.216 85.9688 267.231 88.4688 267.231 94.7344C267.231 100.703 271.247 103.266 275.512 103.266C279.481 103.266 282.122 101.266 282.997 97H282.934C281.809 99.2344 279.825 100.125 277.794 100.125C275.184 100.125 272.95 98.3281 272.95 93.9219V93.8594H283.106ZM275.653 86.6094C277.044 86.6094 277.95 87.7969 277.95 92.2344C277.95 92.375 277.95 92.8125 277.919 93.25H272.95C273.012 88.3438 273.966 86.6094 275.653 86.6094ZM302.114 93.1094C302.114 88.4375 300.224 85.9688 296.833 85.9688C294.083 85.9688 292.302 87.4531 291.443 89.8281V86.2344H283.927V86.3125L285.599 88C285.864 88.3125 285.896 88.4062 285.896 88.8438V100.562C285.896 101 285.896 101.109 285.599 101.375L283.927 102.938V103H293.411V102.938L291.755 101.375C291.443 101.109 291.443 101 291.443 100.562V90.2656C292.052 89.3906 292.864 88.7812 293.958 88.7812C296.052 88.7812 296.521 90.8125 296.521 93.8906C296.521 95.5156 296.427 100.094 296.427 100.594C296.427 100.969 296.396 101.109 296.114 101.375L294.489 102.938V103H304.005V102.938L302.318 101.375C302.052 101.109 302.021 101 302.021 100.562C302.052 97.8906 302.114 95.2188 302.114 93.1094ZM304.935 91.5938C304.935 94.4688 306.654 96.0625 309.201 96.7031C306.591 97.3125 304.935 98.8281 304.935 100.828C304.935 102.594 306.247 104.016 308.622 104.531C305.81 104.938 304.701 106.219 304.701 107.578C304.701 109.906 308.279 110.984 311.638 110.984C317.044 110.984 321.185 108.219 321.185 104.047C321.185 101 319.013 99.5469 315.122 99.5469H311.966C309.669 99.5469 308.513 98.9688 308.513 98.0625C308.513 97.5469 308.857 97.0781 309.576 96.7969C310.419 97 311.326 97.0781 312.31 97.0781C316.513 97.0781 319.685 95.5156 319.685 91.7969C319.685 90.0625 318.982 88.9531 317.966 88.1406H321.154V83.0625L321.076 83.0156L317.56 86.75C317.247 87.0938 317.154 87.0938 316.841 86.9219C315.904 86.4062 314.31 85.9688 312.216 85.9688C308.044 85.9688 304.935 87.7344 304.935 91.5938ZM310.107 104.688L314.513 104.828C317.013 104.938 317.763 105.703 317.763 107.031C317.763 109.234 315.263 110.281 312.779 110.281C310.138 110.281 307.576 109 307.576 106.719C307.576 105.703 308.076 105.062 308.919 104.562C309.294 104.625 309.669 104.656 310.107 104.688ZM310.138 91.4844C310.138 87.8281 310.888 86.5469 312.31 86.5469C313.732 86.5469 314.482 87.8281 314.482 91.5156C314.482 95.25 313.701 96.5 312.31 96.5C310.919 96.5 310.138 95.25 310.138 91.4844ZM337.459 93.8594C337.49 93.4531 337.49 93.2188 337.49 93.1094C337.49 87.6562 333.662 85.9688 330.068 85.9688C325.568 85.9688 321.584 88.4688 321.584 94.7344C321.584 100.703 325.599 103.266 329.865 103.266C333.834 103.266 336.474 101.266 337.349 97H337.287C336.162 99.2344 334.177 100.125 332.146 100.125C329.537 100.125 327.302 98.3281 327.302 93.9219V93.8594H337.459ZM330.006 86.6094C331.396 86.6094 332.302 87.7969 332.302 92.2344C332.302 92.375 332.302 92.8125 332.271 93.25H327.302C327.365 88.3438 328.318 86.6094 330.006 86.6094ZM55.4375 129.812C55.4375 127.203 54.8281 125.547 53.75 124.531C52.5312 123.375 50.7656 122.969 48.5 122.969C46.3281 122.969 43.9219 123.438 41.6562 124.25L43.7969 129.094H43.8594L46.6094 124.016C46.8125 123.641 46.8438 123.609 47.5156 123.609C49.2812 123.609 49.9844 125.172 49.9844 127.5V127.672L49.9219 131.297C49 130.656 47.7812 130.391 46.3281 130.391C43.5625 130.391 40.6406 132.141 40.6406 135.5C40.6406 138.609 42.7812 140.266 45.25 140.266C47.4531 140.266 49.1719 138.953 49.8594 136.984C49.9531 139.125 51.6094 140.266 53.5469 140.266C55.1719 140.266 56.3125 139.531 56.8594 138.406C57.0625 138 57.1406 137.5 57.1406 137.188H57.0625C56.8594 137.594 56.5625 137.797 56.1094 137.797C55.4375 137.797 55.1406 137.156 55.2031 135.828L55.4062 131.031C55.4062 130.922 55.4375 130.141 55.4375 129.812ZM48.6719 131.438C49.1094 131.438 49.5156 131.5 49.9219 131.641L49.8594 136.578V136.609C49.4062 137.297 48.6719 137.797 47.9219 137.797C46.7656 137.797 45.9219 136.781 45.9219 134.922C45.9219 132.953 46.9062 131.438 48.6719 131.438ZM68.555 123.234H64.3831V117.547H64.3206L59.5863 122.859C59.2425 123.234 59.0706 123.234 58.5238 123.234H57.0081V124.016H58.8675V135.625C58.8675 138.672 60.3206 140.266 63.2738 140.266C66.4925 140.266 67.8675 138.312 68.2113 136.406L68.1488 136.375C67.7738 137.047 67.055 137.625 66.18 137.625C65.0706 137.625 64.3831 136.75 64.3831 135.219V124.016H68.555V123.234ZM90.915 130.859C90.9463 130.453 90.9463 130.219 90.9463 130.109C90.9463 124.656 87.1181 122.969 83.5244 122.969C79.0244 122.969 75.04 125.469 75.04 131.734C75.04 137.703 79.0556 140.266 83.3213 140.266C87.29 140.266 89.9306 138.266 90.8056 134H90.7431C89.6181 136.234 87.6338 137.125 85.6025 137.125C82.9931 137.125 80.7588 135.328 80.7588 130.922V130.859H90.915ZM83.4619 123.609C84.8525 123.609 85.7588 124.797 85.7588 129.234C85.7588 129.375 85.7588 129.812 85.7275 130.25H80.7588C80.8213 125.344 81.7744 123.609 83.4619 123.609ZM104.736 128.797C104.939 128.188 105.111 127.953 105.517 127.266L107.814 123.312V123.234H101.986V123.312L103.986 127.406C104.22 127.906 104.329 128.047 104.095 128.688L101.486 136.312L98.095 126.078C97.9544 125.672 98.0013 125.578 98.2044 125.234L99.345 123.312V123.234H90.8763V123.312L91.9388 125.344C92.2356 125.953 92.3763 126.359 92.6419 127.141L97.0794 140H100.939L104.736 128.797ZM123.056 130.859C123.088 130.453 123.088 130.219 123.088 130.109C123.088 124.656 119.259 122.969 115.666 122.969C111.166 122.969 107.181 125.469 107.181 131.734C107.181 137.703 111.197 140.266 115.463 140.266C119.431 140.266 122.072 138.266 122.947 134H122.884C121.759 136.234 119.775 137.125 117.744 137.125C115.134 137.125 112.9 135.328 112.9 130.922V130.859H123.056ZM115.603 123.609C116.994 123.609 117.9 124.797 117.9 129.234C117.9 129.375 117.9 129.812 117.869 130.25H112.9C112.963 125.344 113.916 123.609 115.603 123.609ZM138.064 124.094C137.564 123.406 136.783 122.969 135.768 122.969C133.393 122.969 131.971 125.172 131.393 127.578V123.234H123.877V123.312L125.549 125C125.814 125.312 125.846 125.406 125.846 125.844V137.562C125.846 138 125.846 138.109 125.549 138.375L123.877 139.938V140H135.221V139.938L131.908 138C131.439 137.703 131.393 137.531 131.393 137.156V128.016C131.908 127.062 132.283 126.453 132.861 126.047C133.096 125.875 133.299 126.016 133.471 126.219L136.143 129.406H136.205L138.064 124.094ZM151.854 128.859C152.119 128.188 152.291 127.781 152.698 127.094L154.901 123.312V123.234H149.119V123.312L151.182 127.5C151.448 128.047 151.416 128.188 151.182 128.766L148.432 135.422L145.01 125.953C144.854 125.547 144.916 125.406 145.088 125.172L146.432 123.312V123.234H137.666V123.312L138.588 124.938C138.76 125.266 138.916 125.609 139.088 126.047L145.385 142.031L145.182 142.578C144.854 143.359 144.338 144.297 143.901 144.906C143.698 145.219 143.557 145.312 143.385 145.312C143.26 145.312 143.151 145.219 142.979 145.047L139.635 141.734H139.573L138.307 147.656C138.854 147.891 139.401 147.984 139.901 147.984C141.932 147.984 143.229 147.141 144.604 144.984C145.729 143.219 146.744 141.188 147.526 139.359L151.854 128.859ZM162.448 145.281C162.448 145.719 162.417 145.828 162.151 146.094L160.479 147.656V147.719H170.979V147.656L168.479 145.922C167.995 145.625 167.964 145.516 167.964 145.078V137.703C168.573 139.281 169.995 140.266 172.433 140.266C176.526 140.266 179.62 136.719 179.62 131.266C179.62 126.156 176.979 122.969 173.214 122.969C170.948 122.969 169.12 124.156 167.964 126.828V123.234H160.479V123.312L162.151 125C162.417 125.312 162.448 125.406 162.448 125.844V145.281ZM170.511 125.672C172.464 125.672 173.761 127.406 173.761 131.531C173.761 136.484 171.901 138.312 170.167 138.312C169.261 138.312 168.448 137.969 167.964 137.453V127.266C168.573 126.359 169.464 125.672 170.511 125.672ZM198.253 130.109C198.253 125.438 196.394 122.969 192.972 122.969C190.191 122.969 188.441 124.5 187.581 126.938V115.312L180.113 116.203V116.266L181.769 117.828C182.034 118.094 182.066 118.234 182.066 118.672V137.562C182.066 138 182.034 138.109 181.769 138.375L180.113 139.938V140H189.581V139.938L187.925 138.375C187.628 138.109 187.581 138 187.581 137.562V127.297C188.191 126.422 188.972 125.781 190.128 125.781C192.191 125.781 192.706 127.812 192.706 130.891C192.706 132.516 192.597 137.094 192.597 137.594C192.597 137.969 192.566 138.109 192.253 138.375L190.675 139.938V140H200.144V139.938L198.488 138.375C198.191 138.109 198.159 138 198.159 137.562C198.191 134.891 198.253 132.219 198.253 130.109ZM215.355 129.812C215.355 127.203 214.746 125.547 213.667 124.531C212.449 123.375 210.683 122.969 208.417 122.969C206.246 122.969 203.839 123.438 201.574 124.25L203.714 129.094H203.777L206.527 124.016C206.73 123.641 206.761 123.609 207.433 123.609C209.199 123.609 209.902 125.172 209.902 127.5V127.672L209.839 131.297C208.917 130.656 207.699 130.391 206.246 130.391C203.48 130.391 200.558 132.141 200.558 135.5C200.558 138.609 202.699 140.266 205.167 140.266C207.371 140.266 209.089 138.953 209.777 136.984C209.871 139.125 211.527 140.266 213.464 140.266C215.089 140.266 216.23 139.531 216.777 138.406C216.98 138 217.058 137.5 217.058 137.188H216.98C216.777 137.594 216.48 137.797 216.027 137.797C215.355 137.797 215.058 137.156 215.121 135.828L215.324 131.031C215.324 130.922 215.355 130.141 215.355 129.812ZM208.589 131.438C209.027 131.438 209.433 131.5 209.839 131.641L209.777 136.578V136.609C209.324 137.297 208.589 137.797 207.839 137.797C206.683 137.797 205.839 136.781 205.839 134.922C205.839 132.953 206.824 131.438 208.589 131.438ZM227.066 137.188C227.066 138.641 225.848 139.656 223.879 139.656H223.098C222.723 139.656 222.519 139.484 222.394 139.219L219.676 133.969H219.613L217.754 139.219C219.676 139.891 222.051 140.266 223.988 140.266C228.488 140.266 231.566 138.312 231.566 134.656C231.566 132.047 229.91 130.891 227.801 129.984L225.644 129.031C223.644 128.156 222.519 127.438 222.519 125.953C222.519 124.359 223.785 123.578 225.269 123.578H225.738C226.223 123.578 226.316 123.75 226.519 124.094L229.16 128.797H229.223L231.129 123.891C228.926 123.203 226.832 122.969 225.16 122.969C220.863 122.969 218.223 125.109 218.223 128.312C218.223 130.719 219.644 132.25 221.504 133.125L223.816 134.203C226.019 135.219 227.066 135.797 227.066 137.188ZM248.684 130.859C248.715 130.453 248.715 130.219 248.715 130.109C248.715 124.656 244.887 122.969 241.293 122.969C236.793 122.969 232.809 125.469 232.809 131.734C232.809 137.703 236.824 140.266 241.09 140.266C245.059 140.266 247.699 138.266 248.574 134H248.512C247.387 136.234 245.402 137.125 243.371 137.125C240.762 137.125 238.527 135.328 238.527 130.922V130.859H248.684ZM241.231 123.609C242.621 123.609 243.527 124.797 243.527 129.234C243.527 129.375 243.527 129.812 243.496 130.25H238.527C238.59 125.344 239.543 123.609 241.231 123.609Z" fill="#254759"></path><line x1="40" y1="2" x2="123" y2="2" stroke="#254759" stroke-width="4"></line></svg> 