<?xml version="1.0" encoding="UTF-8"?> <svg xmlns="http://www.w3.org/2000/svg" width="646" height="293" viewBox="0 0 646 293" fill="none"><rect width="646" height="293" fill="#E1F9F9"></rect><path d="M55.3916 182.125C57.7158 182.125 59.3179 181.037 60.231 178.945L59.2515 178.547C58.5044 180.315 57.2759 181.137 55.3916 181.137C52.4863 181.137 51.1914 179.003 51.1914 176.098C51.1914 173.019 52.6606 171.126 55.4663 171.126C57.4087 171.126 58.6206 171.923 59.2266 173.683L60.2144 173.292C59.376 171.184 57.832 170.138 55.4663 170.138C51.9883 170.138 50.0874 172.521 50.0874 176.14C50.0874 179.734 51.9966 182.125 55.3916 182.125ZM62.5718 170.263V182H63.5762V177.036C63.5762 175.393 64.5142 174.463 65.9585 174.463C67.27 174.463 68.042 175.26 68.042 176.795V182H69.0464V176.663C69.0464 174.679 67.9507 173.575 66.2075 173.575C65.062 173.575 64.0742 174.139 63.5762 175.144V170.263H62.5718ZM75.1558 182.125C76.4922 182.125 77.4219 181.726 78.3516 180.755L77.6543 180.124C76.9155 180.904 76.21 181.211 75.1724 181.211C73.5371 181.211 72.4497 180.166 72.3584 178.049H78.4927C78.5259 177.825 78.5425 177.601 78.5425 177.343C78.5425 175.235 77.2559 173.575 75.0229 173.575C72.8232 173.575 71.3042 175.31 71.3042 177.891C71.3042 180.481 72.8232 182.125 75.1558 182.125ZM74.9814 174.446C76.5669 174.446 77.5381 175.567 77.5381 177.277H72.3667C72.5327 175.426 73.645 174.446 74.9814 174.446ZM86.0464 180.257L86.1128 182H86.9595V177.161C86.9595 174.729 85.814 173.575 83.772 173.575C82.311 173.575 81.2734 174.106 80.4683 175.276L81.2402 175.849C81.8379 174.919 82.6348 174.471 83.7139 174.471C85.2246 174.471 86.0049 175.227 86.0132 177.219H83.7471C81.3315 177.219 80.1445 178.173 80.1445 179.692C80.1445 181.211 81.2485 182.125 82.9668 182.125C84.3032 182.125 85.3823 181.494 86.0464 180.257ZM83.1577 181.253C81.8711 181.253 81.1738 180.622 81.1738 179.643C81.1738 178.638 81.9292 177.999 83.689 177.999H86.0132V178.53C86.0215 179.684 85.0171 181.253 83.1577 181.253ZM89.8315 185.437H90.8359V180.141C91.334 181.369 92.4463 182.125 93.8657 182.125C96.1069 182.125 97.4185 180.249 97.4185 177.85C97.4185 175.442 96.1069 173.575 93.8574 173.575C92.438 173.575 91.334 174.33 90.8359 175.559V173.699H89.8315V185.437ZM93.6333 174.463C95.4014 174.463 96.356 175.94 96.356 177.85C96.356 179.759 95.4014 181.236 93.6333 181.236C91.8735 181.236 90.7529 179.775 90.7529 177.841C90.7529 175.924 91.8735 174.463 93.6333 174.463ZM102.93 182.125C104.267 182.125 105.196 181.726 106.126 180.755L105.429 180.124C104.69 180.904 103.984 181.211 102.947 181.211C101.312 181.211 100.224 180.166 100.133 178.049H106.267C106.3 177.825 106.317 177.601 106.317 177.343C106.317 175.235 105.03 173.575 102.797 173.575C100.598 173.575 99.0786 175.31 99.0786 177.891C99.0786 180.481 100.598 182.125 102.93 182.125ZM102.756 174.446C104.341 174.446 105.312 175.567 105.312 177.277H100.141C100.307 175.426 101.419 174.446 102.756 174.446ZM108.658 173.699V182H109.654V177.717C109.654 175.509 110.974 174.562 112.169 174.562C112.451 174.562 112.675 174.604 112.908 174.687V173.658C112.708 173.608 112.484 173.575 112.194 173.575C111.123 173.575 110.152 174.189 109.654 175.517V173.699H108.658ZM119.299 182H120.304V180.141C120.802 181.369 121.914 182.125 123.333 182.125C125.575 182.125 126.886 180.249 126.886 177.85C126.886 175.442 125.575 173.575 123.325 173.575C121.906 173.575 120.802 174.33 120.304 175.559V170.263H119.299V182ZM123.101 174.463C124.869 174.463 125.824 175.94 125.824 177.85C125.824 179.759 124.869 181.236 123.101 181.236C121.341 181.236 120.221 179.775 120.221 177.841C120.221 175.924 121.341 174.463 123.101 174.463ZM129.21 173.699V182H130.207V177.717C130.207 175.509 131.526 174.562 132.722 174.562C133.004 174.562 133.228 174.604 133.46 174.687V173.658C133.261 173.608 133.037 173.575 132.747 173.575C131.676 173.575 130.705 174.189 130.207 175.517V173.699H129.21ZM142.691 177.85C142.691 175.417 141.056 173.575 138.707 173.575C136.357 173.575 134.722 175.426 134.722 177.85C134.722 180.282 136.357 182.125 138.707 182.125C141.056 182.125 142.691 180.273 142.691 177.85ZM141.628 177.85C141.628 179.775 140.524 181.236 138.707 181.236C136.88 181.236 135.785 179.767 135.785 177.85C135.785 175.924 136.889 174.463 138.707 174.463C140.524 174.463 141.628 175.932 141.628 177.85ZM150.128 180.257L150.195 182H151.042V177.161C151.042 174.729 149.896 173.575 147.854 173.575C146.393 173.575 145.355 174.106 144.55 175.276L145.322 175.849C145.92 174.919 146.717 174.471 147.796 174.471C149.307 174.471 150.087 175.227 150.095 177.219H147.829C145.414 177.219 144.227 178.173 144.227 179.692C144.227 181.211 145.331 182.125 147.049 182.125C148.385 182.125 149.464 181.494 150.128 180.257ZM147.24 181.253C145.953 181.253 145.256 180.622 145.256 179.643C145.256 178.638 146.011 177.999 147.771 177.999H150.095V178.53C150.104 179.684 149.099 181.253 147.24 181.253ZM160.82 170.263H159.815V175.559C159.317 174.33 158.205 173.575 156.794 173.575C154.544 173.575 153.241 175.451 153.241 177.85C153.241 180.257 154.544 182.125 156.794 182.125C158.213 182.125 159.317 181.369 159.815 180.141V182H160.82V170.263ZM157.018 181.236C155.258 181.236 154.295 179.759 154.295 177.85C154.295 175.94 155.258 174.463 157.018 174.463C158.778 174.463 159.898 175.924 159.898 177.858C159.898 179.775 158.778 181.236 157.018 181.236ZM163.825 182H164.829V180.141C165.327 181.369 166.439 182.125 167.859 182.125C170.1 182.125 171.412 180.249 171.412 177.85C171.412 175.442 170.1 173.575 167.851 173.575C166.431 173.575 165.327 174.33 164.829 175.559V170.263H163.825V182ZM167.626 174.463C169.395 174.463 170.349 175.94 170.349 177.85C170.349 179.759 169.395 181.236 167.626 181.236C165.867 181.236 164.746 179.775 164.746 177.841C164.746 175.924 165.867 174.463 167.626 174.463ZM178.899 180.257L178.965 182H179.812V177.161C179.812 174.729 178.667 173.575 176.625 173.575C175.164 173.575 174.126 174.106 173.321 175.276L174.093 175.849C174.69 174.919 175.487 174.471 176.566 174.471C178.077 174.471 178.857 175.227 178.866 177.219H176.6C174.184 177.219 172.997 178.173 172.997 179.692C172.997 181.211 174.101 182.125 175.819 182.125C177.156 182.125 178.235 181.494 178.899 180.257ZM176.01 181.253C174.724 181.253 174.026 180.622 174.026 179.643C174.026 178.638 174.782 177.999 176.542 177.999H178.866V178.53C178.874 179.684 177.87 181.253 176.01 181.253ZM182.684 173.699V182H183.688V177.036C183.688 175.393 184.626 174.463 186.071 174.463C187.382 174.463 188.154 175.26 188.154 176.795V182H189.159V176.663C189.159 174.679 188.063 173.575 186.32 173.575C185.174 173.575 184.187 174.139 183.688 175.144V173.699H182.684ZM198.987 170.263H197.982V175.559C197.484 174.33 196.372 173.575 194.961 173.575C192.711 173.575 191.408 175.451 191.408 177.85C191.408 180.257 192.711 182.125 194.961 182.125C196.38 182.125 197.484 181.369 197.982 180.141V182H198.987V170.263ZM195.185 181.236C193.425 181.236 192.462 179.759 192.462 177.85C192.462 175.94 193.425 174.463 195.185 174.463C196.945 174.463 198.065 175.924 198.065 177.858C198.065 179.775 196.945 181.236 195.185 181.236ZM206.864 171.624C207.246 171.624 207.562 171.309 207.562 170.927C207.562 170.553 207.246 170.229 206.864 170.229C206.474 170.229 206.167 170.553 206.167 170.927C206.167 171.309 206.474 171.624 206.864 171.624ZM206.358 173.699V182H207.362V173.699H206.358ZM212.891 182.125C214.733 182.125 215.879 181.195 215.879 179.726C215.879 176.455 210.94 177.924 210.94 175.675C210.94 174.944 211.579 174.43 212.725 174.43C213.754 174.43 214.451 174.895 214.85 175.725L215.68 175.285C215.115 174.197 214.103 173.575 212.733 173.575C210.998 173.575 209.952 174.496 209.952 175.733C209.952 178.979 214.875 177.269 214.875 179.833C214.875 180.68 214.177 181.261 212.916 181.261C211.704 181.261 210.882 180.697 210.434 179.609L209.579 180.008C210.102 181.319 211.197 182.125 212.891 182.125ZM53.5322 204.125C55.1094 204.125 56.313 203.294 56.8193 201.85L55.8813 201.501C55.5327 202.564 54.6943 203.203 53.5737 203.203C51.7725 203.203 50.876 201.676 50.876 199.85C50.876 197.766 51.9717 196.496 53.5322 196.496C54.6196 196.496 55.458 197.11 55.873 198.189L56.8276 197.824C56.2051 196.33 55.0679 195.575 53.5405 195.575C51.2661 195.575 49.8218 197.343 49.8218 199.85C49.8218 202.315 51.1997 204.125 53.5322 204.125ZM66.2407 199.85C66.2407 197.417 64.6055 195.575 62.2563 195.575C59.9072 195.575 58.272 197.426 58.272 199.85C58.272 202.282 59.9072 204.125 62.2563 204.125C64.6055 204.125 66.2407 202.273 66.2407 199.85ZM65.1782 199.85C65.1782 201.775 64.0742 203.236 62.2563 203.236C60.4302 203.236 59.3345 201.767 59.3345 199.85C59.3345 197.924 60.4385 196.463 62.2563 196.463C64.0742 196.463 65.1782 197.932 65.1782 199.85ZM68.5151 195.699V204H69.5112V199.717C69.5112 197.509 70.8311 196.562 72.0264 196.562C72.3086 196.562 72.5327 196.604 72.7651 196.687V195.658C72.5659 195.608 72.3418 195.575 72.0513 195.575C70.9805 195.575 70.0093 196.189 69.5112 197.517V195.699H68.5151ZM74.7905 195.699V204H75.7866V199.717C75.7866 197.509 77.1064 196.562 78.3018 196.562C78.584 196.562 78.8081 196.604 79.0405 196.687V195.658C78.8413 195.608 78.6172 195.575 78.3267 195.575C77.2559 195.575 76.2847 196.189 75.7866 197.517V195.699H74.7905ZM84.2202 204.125C85.5566 204.125 86.4863 203.726 87.416 202.755L86.7188 202.124C85.98 202.904 85.2744 203.211 84.2368 203.211C82.6016 203.211 81.5142 202.166 81.4229 200.049H87.5571C87.5903 199.825 87.6069 199.601 87.6069 199.343C87.6069 197.235 86.3203 195.575 84.0874 195.575C81.8877 195.575 80.3687 197.31 80.3687 199.891C80.3687 202.481 81.8877 204.125 84.2202 204.125ZM84.0459 196.446C85.6313 196.446 86.6025 197.567 86.6025 199.277H81.4312C81.5972 197.426 82.7095 196.446 84.0459 196.446ZM89.9478 204H90.9521V192.263H89.9478V204ZM99.1284 202.257L99.1948 204H100.042V199.161C100.042 196.729 98.896 195.575 96.854 195.575C95.3931 195.575 94.3555 196.106 93.5503 197.276L94.3223 197.849C94.9199 196.919 95.7168 196.471 96.7959 196.471C98.3066 196.471 99.0869 197.227 99.0952 199.219H96.8291C94.4136 199.219 93.2266 200.173 93.2266 201.692C93.2266 203.211 94.3306 204.125 96.0488 204.125C97.3853 204.125 98.4644 203.494 99.1284 202.257ZM96.2397 203.253C94.9531 203.253 94.2559 202.622 94.2559 201.643C94.2559 200.638 95.0112 199.999 96.771 199.999H99.0952V200.53C99.1035 201.684 98.0991 203.253 96.2397 203.253ZM105.454 204.125C105.869 204.125 106.284 204.05 106.524 203.967V203.054C106.217 203.17 105.894 203.228 105.545 203.228C104.64 203.228 104.15 202.755 104.15 201.526V196.546H106.491V195.699H104.15V193.026H103.154V195.699H101.776V196.546H103.146V201.584C103.146 203.27 103.959 204.125 105.454 204.125ZM111.829 204.125C113.165 204.125 114.095 203.726 115.024 202.755L114.327 202.124C113.588 202.904 112.883 203.211 111.845 203.211C110.21 203.211 109.123 202.166 109.031 200.049H115.166C115.199 199.825 115.215 199.601 115.215 199.343C115.215 197.235 113.929 195.575 111.696 195.575C109.496 195.575 107.977 197.31 107.977 199.891C107.977 202.481 109.496 204.125 111.829 204.125ZM111.654 196.446C113.24 196.446 114.211 197.567 114.211 199.277H109.04C109.206 197.426 110.318 196.446 111.654 196.446ZM124.462 192.263H123.458V197.559C122.96 196.33 121.848 195.575 120.437 195.575C118.187 195.575 116.884 197.451 116.884 199.85C116.884 202.257 118.187 204.125 120.437 204.125C121.856 204.125 122.96 203.369 123.458 202.141V204H124.462V192.263ZM120.661 203.236C118.901 203.236 117.938 201.759 117.938 199.85C117.938 197.94 118.901 196.463 120.661 196.463C122.42 196.463 123.541 197.924 123.541 199.858C123.541 201.775 122.42 203.236 120.661 203.236ZM130.812 195.699L133.211 204H134.174L136.482 197.085L138.814 204H139.786L142.193 195.699H141.114L139.254 202.489L136.972 195.699H136.034L133.751 202.489L131.892 195.699H130.812ZM144.691 193.624C145.073 193.624 145.389 193.309 145.389 192.927C145.389 192.553 145.073 192.229 144.691 192.229C144.301 192.229 143.994 192.553 143.994 192.927C143.994 193.309 144.301 193.624 144.691 193.624ZM144.185 195.699V204H145.189V195.699H144.185ZM150.759 204.125C151.174 204.125 151.589 204.05 151.83 203.967V203.054C151.523 203.17 151.199 203.228 150.851 203.228C149.946 203.228 149.456 202.755 149.456 201.526V196.546H151.797V195.699H149.456V193.026H148.46V195.699H147.082V196.546H148.452V201.584C148.452 203.27 149.265 204.125 150.759 204.125ZM153.864 192.263V204H154.868V199.036C154.868 197.393 155.806 196.463 157.25 196.463C158.562 196.463 159.334 197.26 159.334 198.795V204H160.338V198.663C160.338 196.679 159.243 195.575 157.5 195.575C156.354 195.575 155.366 196.139 154.868 197.144V192.263H153.864ZM167.626 195.699V204H168.631V199.036C168.631 197.393 169.544 196.463 170.947 196.463C172.233 196.463 172.972 197.26 172.972 198.795V204H173.977V199.011C173.977 197.368 174.898 196.463 176.292 196.463C177.579 196.463 178.318 197.26 178.318 198.795V204H179.322V198.663C179.322 196.67 178.243 195.575 176.517 195.575C175.305 195.575 174.383 196.073 173.752 197.293C173.362 196.181 172.458 195.575 171.212 195.575C170.075 195.575 169.129 196.139 168.631 197.144V195.699H167.626ZM189.491 199.85C189.491 197.417 187.855 195.575 185.506 195.575C183.157 195.575 181.522 197.426 181.522 199.85C181.522 202.282 183.157 204.125 185.506 204.125C187.855 204.125 189.491 202.273 189.491 199.85ZM188.428 199.85C188.428 201.775 187.324 203.236 185.506 203.236C183.68 203.236 182.584 201.767 182.584 199.85C182.584 197.924 183.688 196.463 185.506 196.463C187.324 196.463 188.428 197.932 188.428 199.85ZM191.765 195.699V204H192.761V199.717C192.761 197.509 194.081 196.562 195.276 196.562C195.559 196.562 195.783 196.604 196.015 196.687V195.658C195.816 195.608 195.592 195.575 195.301 195.575C194.23 195.575 193.259 196.189 192.761 197.517V195.699H191.765ZM201.195 204.125C202.531 204.125 203.461 203.726 204.391 202.755L203.693 202.124C202.955 202.904 202.249 203.211 201.211 203.211C199.576 203.211 198.489 202.166 198.397 200.049H204.532C204.565 199.825 204.582 199.601 204.582 199.343C204.582 197.235 203.295 195.575 201.062 195.575C198.862 195.575 197.343 197.31 197.343 199.891C197.343 202.481 198.862 204.125 201.195 204.125ZM201.021 196.446C202.606 196.446 203.577 197.567 203.577 199.277H198.406C198.572 197.426 199.684 196.446 201.021 196.446ZM50.5024 217.699V226H51.5068V221.036C51.5068 219.393 52.4199 218.463 53.8228 218.463C55.1094 218.463 55.8481 219.26 55.8481 220.795V226H56.8525V221.011C56.8525 219.368 57.7739 218.463 59.1685 218.463C60.4551 218.463 61.1938 219.26 61.1938 220.795V226H62.1982V220.663C62.1982 218.67 61.1191 217.575 59.3926 217.575C58.1807 217.575 57.2593 218.073 56.6284 219.293C56.2383 218.181 55.3335 217.575 54.0884 217.575C52.9512 217.575 52.0049 218.139 51.5068 219.144V217.699H50.5024ZM65.6348 215.624C66.0166 215.624 66.332 215.309 66.332 214.927C66.332 214.553 66.0166 214.229 65.6348 214.229C65.2446 214.229 64.9375 214.553 64.9375 214.927C64.9375 215.309 65.2446 215.624 65.6348 215.624ZM65.1284 217.699V226H66.1328V217.699H65.1284ZM72.1426 226.125C73.7197 226.125 74.9233 225.294 75.4297 223.85L74.4917 223.501C74.1431 224.564 73.3047 225.203 72.1841 225.203C70.3828 225.203 69.4863 223.676 69.4863 221.85C69.4863 219.766 70.582 218.496 72.1426 218.496C73.23 218.496 74.0684 219.11 74.4834 220.189L75.438 219.824C74.8154 218.33 73.6782 217.575 72.1509 217.575C69.8765 217.575 68.4321 219.343 68.4321 221.85C68.4321 224.315 69.8101 226.125 72.1426 226.125ZM77.6128 217.699V226H78.6089V221.717C78.6089 219.509 79.9287 218.562 81.124 218.562C81.4062 218.562 81.6304 218.604 81.8628 218.687V217.658C81.6636 217.608 81.4395 217.575 81.1489 217.575C80.0781 217.575 79.1069 218.189 78.6089 219.517V217.699H77.6128ZM91.0933 221.85C91.0933 219.417 89.458 217.575 87.1089 217.575C84.7598 217.575 83.1245 219.426 83.1245 221.85C83.1245 224.282 84.7598 226.125 87.1089 226.125C89.458 226.125 91.0933 224.273 91.0933 221.85ZM90.0308 221.85C90.0308 223.775 88.9268 225.236 87.1089 225.236C85.2827 225.236 84.187 223.767 84.187 221.85C84.187 219.924 85.291 218.463 87.1089 218.463C88.9268 218.463 90.0308 219.932 90.0308 221.85ZM93.3677 226H94.3721V224.141C94.8701 225.369 95.9824 226.125 97.4019 226.125C99.6431 226.125 100.955 224.249 100.955 221.85C100.955 219.442 99.6431 217.575 97.3936 217.575C95.9741 217.575 94.8701 218.33 94.3721 219.559V214.263H93.3677V226ZM97.1694 218.463C98.9375 218.463 99.8921 219.94 99.8921 221.85C99.8921 223.759 98.9375 225.236 97.1694 225.236C95.4097 225.236 94.2891 223.775 94.2891 221.841C94.2891 219.924 95.4097 218.463 97.1694 218.463ZM109.637 226V217.699H108.633V222.663C108.633 224.307 107.695 225.228 106.25 225.228C104.939 225.228 104.167 224.439 104.167 222.904V217.699H103.163V223.037C103.163 225.021 104.258 226.125 106.001 226.125C107.155 226.125 108.135 225.56 108.633 224.556V226H109.637ZM115.157 226.125C117 226.125 118.146 225.195 118.146 223.726C118.146 220.455 113.207 221.924 113.207 219.675C113.207 218.944 113.846 218.43 114.991 218.43C116.021 218.43 116.718 218.895 117.116 219.725L117.946 219.285C117.382 218.197 116.369 217.575 115 217.575C113.265 217.575 112.219 218.496 112.219 219.733C112.219 222.979 117.141 221.269 117.141 223.833C117.141 224.68 116.444 225.261 115.182 225.261C113.97 225.261 113.148 224.697 112.7 223.609L111.845 224.008C112.368 225.319 113.464 226.125 115.157 226.125ZM120.935 215.624C121.316 215.624 121.632 215.309 121.632 214.927C121.632 214.553 121.316 214.229 120.935 214.229C120.544 214.229 120.237 214.553 120.237 214.927C120.237 215.309 120.544 215.624 120.935 215.624ZM120.428 217.699V226H121.433V217.699H120.428ZM124.446 217.699V226H125.45V221.036C125.45 219.393 126.388 218.463 127.833 218.463C129.144 218.463 129.916 219.26 129.916 220.795V226H130.92V220.663C130.92 218.679 129.825 217.575 128.082 217.575C126.936 217.575 125.948 218.139 125.45 219.144V217.699H124.446ZM137.03 226.125C138.366 226.125 139.296 225.726 140.226 224.755L139.528 224.124C138.79 224.904 138.084 225.211 137.046 225.211C135.411 225.211 134.324 224.166 134.232 222.049H140.367C140.4 221.825 140.417 221.601 140.417 221.343C140.417 219.235 139.13 217.575 136.897 217.575C134.697 217.575 133.178 219.31 133.178 221.891C133.178 224.481 134.697 226.125 137.03 226.125ZM136.855 218.446C138.441 218.446 139.412 219.567 139.412 221.277H134.241C134.407 219.426 135.519 218.446 136.855 218.446ZM145.272 226.125C147.115 226.125 148.261 225.195 148.261 223.726C148.261 220.455 143.322 221.924 143.322 219.675C143.322 218.944 143.961 218.43 145.106 218.43C146.136 218.43 146.833 218.895 147.231 219.725L148.062 219.285C147.497 218.197 146.484 217.575 145.115 217.575C143.38 217.575 142.334 218.496 142.334 219.733C142.334 222.979 147.256 221.269 147.256 223.833C147.256 224.68 146.559 225.261 145.297 225.261C144.085 225.261 143.264 224.697 142.815 223.609L141.96 224.008C142.483 225.319 143.579 226.125 145.272 226.125ZM153.059 226.125C154.901 226.125 156.047 225.195 156.047 223.726C156.047 220.455 151.108 221.924 151.108 219.675C151.108 218.944 151.747 218.43 152.893 218.43C153.922 218.43 154.619 218.895 155.018 219.725L155.848 219.285C155.283 218.197 154.271 217.575 152.901 217.575C151.166 217.575 150.12 218.496 150.12 219.733C150.12 222.979 155.042 221.269 155.042 223.833C155.042 224.68 154.345 225.261 153.083 225.261C151.872 225.261 151.05 224.697 150.602 223.609L149.747 224.008C150.27 225.319 151.365 226.125 153.059 226.125ZM161.517 226.125C162.854 226.125 163.783 225.726 164.713 224.755L164.016 224.124C163.277 224.904 162.571 225.211 161.534 225.211C159.898 225.211 158.811 224.166 158.72 222.049H164.854C164.887 221.825 164.904 221.601 164.904 221.343C164.904 219.235 163.617 217.575 161.384 217.575C159.185 217.575 157.666 219.31 157.666 221.891C157.666 224.481 159.185 226.125 161.517 226.125ZM161.343 218.446C162.928 218.446 163.899 219.567 163.899 221.277H158.728C158.894 219.426 160.006 218.446 161.343 218.446ZM169.76 226.125C171.603 226.125 172.748 225.195 172.748 223.726C172.748 220.455 167.809 221.924 167.809 219.675C167.809 218.944 168.448 218.43 169.594 218.43C170.623 218.43 171.32 218.895 171.719 219.725L172.549 219.285C171.984 218.197 170.972 217.575 169.602 217.575C167.867 217.575 166.821 218.496 166.821 219.733C166.821 222.979 171.744 221.269 171.744 223.833C171.744 224.68 171.046 225.261 169.785 225.261C168.573 225.261 167.751 224.697 167.303 223.609L166.448 224.008C166.971 225.319 168.066 226.125 169.76 226.125Z" fill="#2B2B2B"></path><path d="M49.5317 75.4595V75.5239L51.8682 77.7153C52.1421 78.0054 52.1743 78.1021 52.1743 78.5532V96.8901C52.1743 97.3413 52.1421 97.4541 51.8682 97.728L49.5317 99.9355V100H62.6157C68.0942 100 71.5908 97.5186 71.5908 93.1196C71.5908 89.3169 68.2715 87.2222 63.5986 87.1094V87.0449C67.9653 86.6582 70.8174 84.6763 70.8174 81.0669C70.8174 77.2319 67.4336 75.4595 62.0195 75.4595H49.5317ZM60.2148 87.5767C63.4858 87.5767 64.8232 89.5908 64.8232 93.3291C64.8232 97.1318 63.5181 99.3071 60.3115 99.3071H59.3286C58.6035 99.3071 58.4907 99.2588 58.4907 98.5981V87.5767H60.2148ZM58.4907 76.8452C58.4907 76.249 58.6035 76.1523 59.1191 76.1523H60.3115C62.8574 76.1523 64.2271 78.2471 64.2271 81.3569C64.2271 84.8052 62.8252 86.8677 60.1665 86.8677H58.4907V76.8452ZM87.7524 83.5967C87.2368 82.8877 86.4312 82.4365 85.3838 82.4365C82.9346 82.4365 81.4683 84.7085 80.8721 87.1899V82.7104H73.1216V82.791L74.8457 84.5312C75.1196 84.8535 75.1519 84.9502 75.1519 85.4014V97.4863C75.1519 97.9375 75.1519 98.0503 74.8457 98.3242L73.1216 99.9355V100H84.8198V99.9355L81.4038 97.9375C80.9204 97.6313 80.8721 97.4541 80.8721 97.0674V87.6411C81.4038 86.6582 81.7905 86.0298 82.3867 85.6108C82.6284 85.4336 82.8379 85.5786 83.0151 85.7881L85.7705 89.0752H85.835L87.7524 83.5967ZM97.1143 83.0972C98.8545 83.0972 99.9341 84.644 99.9341 91.3794C99.9341 98.147 98.8545 99.6455 97.1143 99.6455C95.3579 99.6455 94.2783 98.0825 94.2783 91.3472C94.2783 84.5635 95.3579 83.0972 97.1143 83.0972ZM97.1143 100.274C102.625 100.274 106.331 97.2446 106.331 91.3794C106.331 85.4336 102.625 82.4365 97.1143 82.4365C91.5874 82.4365 87.9297 85.4819 87.9297 91.3472C87.9297 97.2769 91.5874 100.274 97.1143 100.274ZM123.024 89.4941C123.024 86.8032 122.396 85.0952 121.284 84.0479C120.027 82.8555 118.207 82.4365 115.87 82.4365C113.63 82.4365 111.149 82.9199 108.812 83.7578L111.02 88.7529H111.084L113.92 83.5161C114.13 83.1294 114.162 83.0972 114.855 83.0972C116.676 83.0972 117.401 84.7085 117.401 87.1094V87.2866L117.336 91.0249C116.386 90.3643 115.129 90.0903 113.63 90.0903C110.778 90.0903 107.765 91.895 107.765 95.3594C107.765 98.5659 109.973 100.274 112.519 100.274C114.791 100.274 116.563 98.9204 117.272 96.8901C117.369 99.0977 119.077 100.274 121.075 100.274C122.75 100.274 123.927 99.5166 124.491 98.3564C124.7 97.9375 124.781 97.4219 124.781 97.0996H124.7C124.491 97.5186 124.185 97.728 123.717 97.728C123.024 97.728 122.718 97.0674 122.783 95.6978L122.992 90.751C122.992 90.6382 123.024 89.8325 123.024 89.4941ZM116.047 91.1699C116.499 91.1699 116.917 91.2344 117.336 91.3794L117.272 96.4712V96.5034C116.805 97.2124 116.047 97.728 115.274 97.728C114.082 97.728 113.211 96.6807 113.211 94.7632C113.211 92.7329 114.227 91.1699 116.047 91.1699ZM143.537 74.541L135.818 75.4595V75.5239L137.494 77.1353C137.8 77.4092 137.833 77.5542 137.833 78.0054V85.2241C137.075 83.5161 135.609 82.4365 133.337 82.4365C128.97 82.4365 125.828 86.0298 125.828 91.4116C125.828 97.1318 128.729 100.274 132.708 100.274C134.932 100.274 136.785 99.1299 137.833 96.7129V100H145.583V99.9355L143.843 98.2114C143.537 97.9375 143.537 97.8408 143.537 97.3735V74.541ZM135.399 97.6636C133.434 97.6636 131.871 95.9878 131.871 91.2344C131.871 86.1748 133.675 84.4668 135.561 84.4668C136.511 84.4668 137.349 84.918 137.833 85.5464V96.3262C137.14 97.2446 136.27 97.6636 135.399 97.6636ZM153.317 74.541L145.599 75.4595V75.5239L147.275 77.1353C147.549 77.4092 147.581 77.5542 147.581 78.0054V100.274H147.662L153.172 98.3887C154.042 99.5488 155.477 100.274 157.507 100.274C162.18 100.274 165.322 96.5356 165.322 91.2021C165.322 85.9331 162.808 82.4365 158.764 82.4365C156.202 82.4365 154.429 83.8062 153.317 86.2715V74.541ZM155.928 85.2241C157.926 85.2241 159.279 86.8999 159.279 91.3794C159.279 97.2769 157.507 98.7754 155.332 98.7754C154.606 98.7754 153.865 98.5659 153.317 98.002V86.7388C154.042 85.7236 154.913 85.2241 155.928 85.2241ZM182.063 89.4941C182.063 86.8032 181.435 85.0952 180.323 84.0479C179.066 82.8555 177.246 82.4365 174.909 82.4365C172.669 82.4365 170.188 82.9199 167.852 83.7578L170.059 88.7529H170.124L172.959 83.5161C173.169 83.1294 173.201 83.0972 173.894 83.0972C175.715 83.0972 176.44 84.7085 176.44 87.1094V87.2866L176.375 91.0249C175.425 90.3643 174.168 90.0903 172.669 90.0903C169.817 90.0903 166.804 91.895 166.804 95.3594C166.804 98.5659 169.012 100.274 171.558 100.274C173.83 100.274 175.602 98.9204 176.311 96.8901C176.408 99.0977 178.116 100.274 180.114 100.274C181.79 100.274 182.966 99.5166 183.53 98.3564C183.739 97.9375 183.82 97.4219 183.82 97.0996H183.739C183.53 97.5186 183.224 97.728 182.756 97.728C182.063 97.728 181.757 97.0674 181.822 95.6978L182.031 90.751C182.031 90.6382 182.063 89.8325 182.063 89.4941ZM175.086 91.1699C175.538 91.1699 175.957 91.2344 176.375 91.3794L176.311 96.4712V96.5034C175.844 97.2124 175.086 97.728 174.313 97.728C173.121 97.728 172.25 96.6807 172.25 94.7632C172.25 92.7329 173.266 91.1699 175.086 91.1699ZM203.51 89.8003C203.51 84.9824 201.561 82.4365 198.064 82.4365C195.228 82.4365 193.391 83.9673 192.505 86.4165V82.7104H184.754V82.791L186.479 84.5312C186.752 84.8535 186.785 84.9502 186.785 85.4014V97.4863C186.785 97.9375 186.785 98.0503 186.479 98.3242L184.754 99.9355V100H194.535V99.9355L192.827 98.3242C192.505 98.0503 192.505 97.9375 192.505 97.4863V86.8677C193.133 85.9653 193.971 85.3369 195.099 85.3369C197.258 85.3369 197.742 87.4316 197.742 90.606C197.742 92.2817 197.645 97.0029 197.645 97.5186C197.645 97.9053 197.613 98.0503 197.323 98.3242L195.647 99.9355V100H205.46V99.9355L203.72 98.3242C203.446 98.0503 203.414 97.9375 203.414 97.4863C203.446 94.731 203.51 91.9756 203.51 89.8003ZM224.071 74.541L216.353 75.4595V75.5239L218.028 77.1353C218.334 77.4092 218.367 77.5542 218.367 78.0054V85.2241C217.609 83.5161 216.143 82.4365 213.871 82.4365C209.504 82.4365 206.362 86.0298 206.362 91.4116C206.362 97.1318 209.263 100.274 213.243 100.274C215.466 100.274 217.319 99.1299 218.367 96.7129V100H226.117V99.9355L224.377 98.2114C224.071 97.9375 224.071 97.8408 224.071 97.3735V74.541ZM215.934 97.6636C213.968 97.6636 212.405 95.9878 212.405 91.2344C212.405 86.1748 214.209 84.4668 216.095 84.4668C217.045 84.4668 217.883 84.918 218.367 85.5464V96.3262C217.674 97.2446 216.804 97.6636 215.934 97.6636ZM64.9199 123.494C64.9199 120.803 64.2915 119.095 63.1797 118.048C61.9229 116.855 60.1021 116.437 57.7656 116.437C55.5259 116.437 53.0444 116.92 50.708 117.758L52.9155 122.753H52.98L55.8159 117.516C56.0254 117.129 56.0576 117.097 56.7505 117.097C58.5713 117.097 59.2964 118.708 59.2964 121.109V121.287L59.2319 125.025C58.2812 124.364 57.0244 124.09 55.5259 124.09C52.6738 124.09 49.6606 125.895 49.6606 129.359C49.6606 132.566 51.8682 134.274 54.4141 134.274C56.686 134.274 58.4585 132.92 59.1675 130.89C59.2642 133.098 60.9722 134.274 62.9702 134.274C64.646 134.274 65.8223 133.517 66.3862 132.356C66.5957 131.938 66.6763 131.422 66.6763 131.1H66.5957C66.3862 131.519 66.0801 131.728 65.6128 131.728C64.9199 131.728 64.6138 131.067 64.6782 129.698L64.8877 124.751C64.8877 124.638 64.9199 123.833 64.9199 123.494ZM57.9429 125.17C58.394 125.17 58.813 125.234 59.2319 125.379L59.1675 130.471V130.503C58.7002 131.212 57.9429 131.728 57.1694 131.728C55.9771 131.728 55.1069 130.681 55.1069 128.763C55.1069 126.733 56.1221 125.17 57.9429 125.17ZM85.4321 108.541L77.7139 109.459V109.524L79.3896 111.135C79.6958 111.409 79.728 111.554 79.728 112.005V119.224C78.9707 117.516 77.5044 116.437 75.2324 116.437C70.8657 116.437 67.7236 120.03 67.7236 125.412C67.7236 131.132 70.624 134.274 74.604 134.274C76.8276 134.274 78.6807 133.13 79.728 130.713V134H87.4785V133.936L85.7383 132.211C85.4321 131.938 85.4321 131.841 85.4321 131.374V108.541ZM77.2949 131.664C75.3291 131.664 73.7661 129.988 73.7661 125.234C73.7661 120.175 75.5708 118.467 77.4561 118.467C78.4067 118.467 79.2446 118.918 79.728 119.546V130.326C79.0352 131.245 78.165 131.664 77.2949 131.664ZM97.4043 117.097C99.1445 117.097 100.224 118.644 100.224 125.379C100.224 132.147 99.1445 133.646 97.4043 133.646C95.6479 133.646 94.5684 132.083 94.5684 125.347C94.5684 118.563 95.6479 117.097 97.4043 117.097ZM97.4043 134.274C102.915 134.274 106.621 131.245 106.621 125.379C106.621 119.434 102.915 116.437 97.4043 116.437C91.8774 116.437 88.2197 119.482 88.2197 125.347C88.2197 131.277 91.8774 134.274 97.4043 134.274ZM109.312 139.446C109.312 139.897 109.28 140.01 109.006 140.284L107.282 141.896V141.96H118.11V141.896L115.532 140.107C115.032 139.801 115 139.688 115 139.237V131.631C115.628 133.259 117.095 134.274 119.608 134.274C123.83 134.274 127.021 130.616 127.021 124.993C127.021 119.724 124.297 116.437 120.414 116.437C118.078 116.437 116.192 117.661 115 120.417V116.71H107.282V116.791L109.006 118.531C109.28 118.854 109.312 118.95 109.312 119.401V139.446ZM117.626 119.224C119.641 119.224 120.978 121.013 120.978 125.267C120.978 130.375 119.061 132.26 117.272 132.26C116.337 132.26 115.5 131.905 115 131.374V120.868C115.628 119.933 116.547 119.224 117.626 119.224ZM139.782 116.71H135.48V110.845H135.416L130.533 116.324C130.179 116.71 130.001 116.71 129.438 116.71H127.875V117.516H129.792V129.488C129.792 132.63 131.291 134.274 134.336 134.274C137.655 134.274 139.073 132.26 139.428 130.294L139.363 130.262C138.977 130.955 138.235 131.551 137.333 131.551C136.189 131.551 135.48 130.648 135.48 129.069V117.516H139.782V116.71ZM144.971 114.793C146.55 114.793 147.807 113.778 147.807 112.215C147.807 110.539 146.55 109.492 144.971 109.492C143.472 109.492 142.183 110.539 142.183 112.215C142.183 113.778 143.472 114.793 144.971 114.793ZM140.185 116.71V116.791L141.909 118.531C142.183 118.854 142.215 118.95 142.215 119.401V131.486C142.215 131.938 142.215 132.05 141.909 132.324L140.185 133.936V134H149.966V133.936L148.258 132.324C147.936 132.05 147.936 131.938 147.936 131.486V116.71H140.185ZM160.053 117.097C161.793 117.097 162.873 118.644 162.873 125.379C162.873 132.147 161.793 133.646 160.053 133.646C158.296 133.646 157.217 132.083 157.217 125.347C157.217 118.563 158.296 117.097 160.053 117.097ZM160.053 134.274C165.563 134.274 169.27 131.245 169.27 125.379C169.27 119.434 165.563 116.437 160.053 116.437C154.526 116.437 150.868 119.482 150.868 125.347C150.868 131.277 154.526 134.274 160.053 134.274ZM189.105 123.8C189.105 118.982 187.155 116.437 183.659 116.437C180.823 116.437 178.986 117.967 178.1 120.417V116.71H170.349V116.791L172.073 118.531C172.347 118.854 172.379 118.95 172.379 119.401V131.486C172.379 131.938 172.379 132.05 172.073 132.324L170.349 133.936V134H180.13V133.936L178.422 132.324C178.1 132.05 178.1 131.938 178.1 131.486V120.868C178.728 119.965 179.566 119.337 180.694 119.337C182.853 119.337 183.336 121.432 183.336 124.606C183.336 126.282 183.24 131.003 183.24 131.519C183.24 131.905 183.208 132.05 182.917 132.324L181.242 133.936V134H191.055V133.936L189.314 132.324C189.041 132.05 189.008 131.938 189.008 131.486C189.041 128.731 189.105 125.976 189.105 123.8Z" fill="#254759"></path><path d="M88.3832 55.1245C91.6371 55.1245 92.6 51.7793 92.6 49.1313C92.6 46.5083 91.6288 43.1382 88.3583 43.1382C85.038 43.1382 84.1498 46.5581 84.1498 49.1313C84.1498 51.6797 85.0463 55.1245 88.3832 55.1245ZM88.3749 54.1284C85.8763 54.1284 85.1874 51.3892 85.1874 49.1313C85.1874 46.8569 85.8929 44.1426 88.3583 44.1426C90.8485 44.1426 91.5458 46.8735 91.5458 49.1313C91.5458 51.3892 90.8402 54.1284 88.3749 54.1284ZM97.7465 55.1245C100.162 55.1245 101.822 53.8296 101.822 51.7461C101.822 50.061 100.859 49.0483 99.2074 48.6997C100.378 48.2847 101.2 47.4878 101.2 46.0933C101.2 44.3501 99.7552 43.1465 97.7465 43.1465C95.7543 43.1465 94.2269 44.3833 94.2269 46.3755H95.223C95.2313 44.9976 96.244 44.1011 97.7548 44.1011C99.224 44.1011 100.179 44.9229 100.179 46.2012C100.179 47.8198 98.9169 48.3511 97.4642 48.3511H97.0824V49.2642H97.4559C99.0165 49.2642 100.785 49.7373 100.785 51.7046C100.785 53.2485 99.556 54.1616 97.7631 54.1616C95.912 54.1616 94.7001 53.1738 94.7001 51.5303H93.6791C93.6791 53.8296 95.3641 55.1245 97.7465 55.1245Z" fill="#254759"></path><line x1="49" y1="50.5" x2="77.8557" y2="50.5" stroke="#254759"></line><path d="M360.647 182H368.832V181.045H361.909C362.93 179.153 367.96 176.87 367.96 173.45C367.96 171.325 366.724 170.138 364.574 170.138C362.175 170.138 360.797 171.815 360.797 174.131H361.826C361.826 172.338 362.689 171.084 364.524 171.084C366.126 171.084 366.906 171.998 366.906 173.458C366.906 176.945 360.647 179.161 360.647 181.809V182ZM374.236 182.125C376.203 182.125 378.112 181.004 378.112 178.713C378.112 177.235 377.249 176.098 375.854 175.642C376.834 175.218 377.481 174.28 377.481 173.118C377.481 171.309 376.037 170.146 374.261 170.146C372.642 170.146 371.023 171.192 371.023 173.052C371.023 174.247 371.629 175.185 372.634 175.642C371.248 176.082 370.343 177.21 370.343 178.721C370.343 180.996 372.277 182.125 374.236 182.125ZM374.277 175.293C372.949 175.293 372.061 174.413 372.061 173.093C372.061 171.74 373.14 171.035 374.269 171.035C375.556 171.035 376.485 171.873 376.485 173.185C376.485 174.446 375.556 175.293 374.277 175.293ZM374.228 181.211C372.75 181.211 371.364 180.373 371.364 178.646C371.364 177.086 372.551 176.082 374.228 176.082C375.879 176.082 377.075 177.086 377.075 178.646C377.075 180.373 375.73 181.211 374.228 181.211ZM382.329 174.662C383.566 174.662 384.479 173.683 384.479 172.421C384.479 171.118 383.607 170.171 382.329 170.171C381.084 170.171 380.171 171.151 380.171 172.421C380.171 173.716 381.042 174.662 382.329 174.662ZM381.814 182.033H382.603L389.078 170.205H388.281L381.814 182.033ZM382.329 173.99C381.466 173.99 380.876 173.4 380.876 172.421C380.876 171.45 381.458 170.844 382.329 170.844C383.192 170.844 383.773 171.433 383.773 172.421C383.773 173.384 383.201 173.99 382.329 173.99ZM388.588 182.091C389.825 182.091 390.738 181.112 390.738 179.85C390.738 178.547 389.866 177.601 388.588 177.601C387.351 177.601 386.43 178.58 386.43 179.85C386.43 181.145 387.31 182.091 388.588 182.091ZM388.588 181.419C387.725 181.419 387.144 180.83 387.144 179.85C387.144 178.887 387.716 178.273 388.588 178.273C389.451 178.273 390.032 178.862 390.032 179.85C390.032 180.813 389.459 181.419 388.588 181.419ZM397.793 173.699V182H398.79V177.717C398.79 175.509 400.109 174.562 401.305 174.562C401.587 174.562 401.811 174.604 402.043 174.687V173.658C401.844 173.608 401.62 173.575 401.33 173.575C400.259 173.575 399.288 174.189 398.79 175.517V173.699H397.793ZM409.215 180.257L409.282 182H410.128V177.161C410.128 174.729 408.983 173.575 406.941 173.575C405.48 173.575 404.442 174.106 403.637 175.276L404.409 175.849C405.007 174.919 405.804 174.471 406.883 174.471C408.394 174.471 409.174 175.227 409.182 177.219H406.916C404.5 177.219 403.313 178.173 403.313 179.692C403.313 181.211 404.417 182.125 406.136 182.125C407.472 182.125 408.551 181.494 409.215 180.257ZM406.327 181.253C405.04 181.253 404.343 180.622 404.343 179.643C404.343 178.638 405.098 177.999 406.858 177.999H409.182V178.53C409.19 179.684 408.186 181.253 406.327 181.253ZM413 173.699V182H414.005V177.036C414.005 175.393 414.943 174.463 416.387 174.463C417.699 174.463 418.471 175.26 418.471 176.795V182H419.475V176.663C419.475 174.679 418.379 173.575 416.636 173.575C415.491 173.575 414.503 174.139 414.005 175.144V173.699H413ZM429.104 173.699H427.784L423.401 178.29V170.263H422.397V182H423.401V179.551L425.369 177.509L428.299 182H429.511L426.058 176.845L429.104 173.699ZM435.678 170.263V182H436.683V177.036C436.683 175.393 437.621 174.463 439.065 174.463C440.376 174.463 441.148 175.26 441.148 176.795V182H442.153V176.663C442.153 174.679 441.057 173.575 439.314 173.575C438.168 173.575 437.181 174.139 436.683 175.144V170.263H435.678ZM448.262 182.125C449.599 182.125 450.528 181.726 451.458 180.755L450.761 180.124C450.022 180.904 449.316 181.211 448.279 181.211C446.644 181.211 445.556 180.166 445.465 178.049H451.599C451.632 177.825 451.649 177.601 451.649 177.343C451.649 175.235 450.362 173.575 448.129 173.575C445.93 173.575 444.411 175.31 444.411 177.891C444.411 180.481 445.93 182.125 448.262 182.125ZM448.088 174.446C449.673 174.446 450.645 175.567 450.645 177.277H445.473C445.639 175.426 446.751 174.446 448.088 174.446ZM459.153 180.257L459.219 182H460.066V177.161C460.066 174.729 458.92 173.575 456.878 173.575C455.417 173.575 454.38 174.106 453.575 175.276L454.347 175.849C454.944 174.919 455.741 174.471 456.82 174.471C458.331 174.471 459.111 175.227 459.12 177.219H456.854C454.438 177.219 453.251 178.173 453.251 179.692C453.251 181.211 454.355 182.125 456.073 182.125C457.41 182.125 458.489 181.494 459.153 180.257ZM456.264 181.253C454.978 181.253 454.28 180.622 454.28 179.643C454.28 178.638 455.036 177.999 456.795 177.999H459.12V178.53C459.128 179.684 458.124 181.253 456.264 181.253ZM462.938 182H463.942V170.263H462.938V182ZM469.512 182.125C469.927 182.125 470.342 182.05 470.583 181.967V181.054C470.276 181.17 469.952 181.228 469.604 181.228C468.699 181.228 468.209 180.755 468.209 179.526V174.546H470.55V173.699H468.209V171.026H467.213V173.699H465.835V174.546H467.205V179.584C467.205 181.27 468.018 182.125 469.512 182.125ZM472.617 170.263V182H473.621V177.036C473.621 175.393 474.559 174.463 476.003 174.463C477.315 174.463 478.087 175.26 478.087 176.795V182H479.091V176.663C479.091 174.679 477.996 173.575 476.252 173.575C475.107 173.575 474.119 174.139 473.621 175.144V170.263H472.617ZM491.542 180.257L491.609 182H492.456V177.161C492.456 174.729 491.31 173.575 489.268 173.575C487.807 173.575 486.77 174.106 485.964 175.276L486.736 175.849C487.334 174.919 488.131 174.471 489.21 174.471C490.721 174.471 491.501 175.227 491.509 177.219H489.243C486.828 177.219 485.641 178.173 485.641 179.692C485.641 181.211 486.745 182.125 488.463 182.125C489.799 182.125 490.878 181.494 491.542 180.257ZM488.654 181.253C487.367 181.253 486.67 180.622 486.67 179.643C486.67 178.638 487.425 177.999 489.185 177.999H491.509V178.53C491.518 179.684 490.513 181.253 488.654 181.253ZM495.328 173.699V182H496.332V177.036C496.332 175.393 497.27 174.463 498.714 174.463C500.026 174.463 500.798 175.26 500.798 176.795V182H501.802V176.663C501.802 174.679 500.707 173.575 498.963 173.575C497.818 173.575 496.83 174.139 496.332 175.144V173.699H495.328ZM511.63 170.263H510.626V175.559C510.128 174.33 509.016 173.575 507.604 173.575C505.355 173.575 504.052 175.451 504.052 177.85C504.052 180.257 505.355 182.125 507.604 182.125C509.024 182.125 510.128 181.369 510.626 180.141V182H511.63V170.263ZM507.829 181.236C506.069 181.236 505.106 179.759 505.106 177.85C505.106 175.94 506.069 174.463 507.829 174.463C509.588 174.463 510.709 175.924 510.709 177.858C510.709 179.775 509.588 181.236 507.829 181.236ZM526.24 177.85C526.24 175.417 524.604 173.575 522.255 173.575C519.906 173.575 518.271 175.426 518.271 177.85C518.271 180.282 519.906 182.125 522.255 182.125C524.604 182.125 526.24 180.273 526.24 177.85ZM525.177 177.85C525.177 179.775 524.073 181.236 522.255 181.236C520.429 181.236 519.333 179.767 519.333 177.85C519.333 175.924 520.438 174.463 522.255 174.463C524.073 174.463 525.177 175.932 525.177 177.85ZM531.071 182.125C531.486 182.125 531.901 182.05 532.142 181.967V181.054C531.834 181.17 531.511 181.228 531.162 181.228C530.257 181.228 529.768 180.755 529.768 179.526V174.546H532.108V173.699H529.768V171.026H528.771V173.699H527.394V174.546H528.763V179.584C528.763 181.27 529.577 182.125 531.071 182.125ZM534.175 170.263V182H535.18V177.036C535.18 175.393 536.118 174.463 537.562 174.463C538.874 174.463 539.646 175.26 539.646 176.795V182H540.65V176.663C540.65 174.679 539.554 173.575 537.811 173.575C536.666 173.575 535.678 174.139 535.18 175.144V170.263H534.175ZM546.759 182.125C548.096 182.125 549.025 181.726 549.955 180.755L549.258 180.124C548.519 180.904 547.813 181.211 546.776 181.211C545.141 181.211 544.053 180.166 543.962 178.049H550.096C550.129 177.825 550.146 177.601 550.146 177.343C550.146 175.235 548.859 173.575 546.626 173.575C544.427 173.575 542.908 175.31 542.908 177.891C542.908 180.481 544.427 182.125 546.759 182.125ZM546.585 174.446C548.17 174.446 549.142 175.567 549.142 177.277H543.97C544.136 175.426 545.249 174.446 546.585 174.446ZM552.487 173.699V182H553.483V177.717C553.483 175.509 554.803 174.562 555.998 174.562C556.28 174.562 556.504 174.604 556.737 174.687V173.658C556.538 173.608 556.313 173.575 556.023 173.575C554.952 173.575 553.981 174.189 553.483 175.517V173.699H552.487ZM361.502 204H362.507V202.141C363.005 203.369 364.117 204.125 365.537 204.125C367.778 204.125 369.089 202.249 369.089 199.85C369.089 197.442 367.778 195.575 365.528 195.575C364.109 195.575 363.005 196.33 362.507 197.559V192.263H361.502V204ZM365.304 196.463C367.072 196.463 368.027 197.94 368.027 199.85C368.027 201.759 367.072 203.236 365.304 203.236C363.544 203.236 362.424 201.775 362.424 199.841C362.424 197.924 363.544 196.463 365.304 196.463ZM374.601 204.125C375.938 204.125 376.867 203.726 377.797 202.755L377.1 202.124C376.361 202.904 375.655 203.211 374.618 203.211C372.982 203.211 371.895 202.166 371.804 200.049H377.938C377.971 199.825 377.988 199.601 377.988 199.343C377.988 197.235 376.701 195.575 374.468 195.575C372.269 195.575 370.75 197.31 370.75 199.891C370.75 202.481 372.269 204.125 374.601 204.125ZM374.427 196.446C376.012 196.446 376.983 197.567 376.983 199.277H371.812C371.978 197.426 373.09 196.446 374.427 196.446ZM380.329 195.699V204H381.333V199.036C381.333 197.393 382.271 196.463 383.715 196.463C385.027 196.463 385.799 197.26 385.799 198.795V204H386.803V198.663C386.803 196.679 385.708 195.575 383.964 195.575C382.819 195.575 381.831 196.139 381.333 197.144V195.699H380.329ZM392.913 204.125C394.249 204.125 395.179 203.726 396.108 202.755L395.411 202.124C394.672 202.904 393.967 203.211 392.929 203.211C391.294 203.211 390.207 202.166 390.115 200.049H396.25C396.283 199.825 396.299 199.601 396.299 199.343C396.299 197.235 395.013 195.575 392.78 195.575C390.58 195.575 389.061 197.31 389.061 199.891C389.061 202.481 390.58 204.125 392.913 204.125ZM392.738 196.446C394.324 196.446 395.295 197.567 395.295 199.277H390.124C390.29 197.426 391.402 196.446 392.738 196.446ZM398.989 195.699H397.503V196.546H398.989V204H399.993V196.546H403.28V204H404.285V195.699H399.993V195.11C399.993 193.666 400.607 193.001 401.819 193.001C402.575 193.001 403.197 193.242 403.72 193.682L404.251 192.935C403.513 192.379 402.824 192.138 401.869 192.138C399.993 192.138 398.989 193.275 398.989 195.193V195.699ZM409.846 204.125C410.261 204.125 410.676 204.05 410.917 203.967V203.054C410.61 203.17 410.286 203.228 409.938 203.228C409.033 203.228 408.543 202.755 408.543 201.526V196.546H410.884V195.699H408.543V193.026H407.547V195.699H406.169V196.546H407.539V201.584C407.539 203.27 408.352 204.125 409.846 204.125ZM415.632 204.125C417.475 204.125 418.62 203.195 418.62 201.726C418.62 198.455 413.681 199.924 413.681 197.675C413.681 196.944 414.32 196.43 415.466 196.43C416.495 196.43 417.192 196.895 417.591 197.725L418.421 197.285C417.856 196.197 416.844 195.575 415.474 195.575C413.739 195.575 412.693 196.496 412.693 197.733C412.693 200.979 417.616 199.269 417.616 201.833C417.616 202.68 416.918 203.261 415.657 203.261C414.445 203.261 413.623 202.697 413.175 201.609L412.32 202.008C412.843 203.319 413.938 204.125 415.632 204.125ZM430.432 202.257L430.499 204H431.345V199.161C431.345 196.729 430.2 195.575 428.158 195.575C426.697 195.575 425.659 196.106 424.854 197.276L425.626 197.849C426.224 196.919 427.021 196.471 428.1 196.471C429.61 196.471 430.391 197.227 430.399 199.219H428.133C425.717 199.219 424.53 200.173 424.53 201.692C424.53 203.211 425.634 204.125 427.353 204.125C428.689 204.125 429.768 203.494 430.432 202.257ZM427.543 203.253C426.257 203.253 425.56 202.622 425.56 201.643C425.56 200.638 426.315 199.999 428.075 199.999H430.399V200.53C430.407 201.684 429.403 203.253 427.543 203.253ZM436.732 204.125C438.575 204.125 439.721 203.195 439.721 201.726C439.721 198.455 434.782 199.924 434.782 197.675C434.782 196.944 435.421 196.43 436.566 196.43C437.596 196.43 438.293 196.895 438.691 197.725L439.521 197.285C438.957 196.197 437.944 195.575 436.575 195.575C434.84 195.575 433.794 196.496 433.794 197.733C433.794 200.979 438.716 199.269 438.716 201.833C438.716 202.68 438.019 203.261 436.757 203.261C435.545 203.261 434.724 202.697 434.275 201.609L433.42 202.008C433.943 203.319 435.039 204.125 436.732 204.125ZM451.533 202.257L451.599 204H452.446V199.161C452.446 196.729 451.3 195.575 449.258 195.575C447.797 195.575 446.76 196.106 445.955 197.276L446.727 197.849C447.324 196.919 448.121 196.471 449.2 196.471C450.711 196.471 451.491 197.227 451.5 199.219H449.233C446.818 199.219 445.631 200.173 445.631 201.692C445.631 203.211 446.735 204.125 448.453 204.125C449.79 204.125 450.869 203.494 451.533 202.257ZM448.644 203.253C447.357 203.253 446.66 202.622 446.66 201.643C446.66 200.638 447.416 199.999 449.175 199.999H451.5V200.53C451.508 201.684 450.503 203.253 448.644 203.253ZM462.241 204.125C462.656 204.125 463.071 204.05 463.312 203.967V203.054C463.004 203.17 462.681 203.228 462.332 203.228C461.427 203.228 460.938 202.755 460.938 201.526V196.546H463.278V195.699H460.938V193.026H459.941V195.699H458.563V196.546H459.933V201.584C459.933 203.27 460.747 204.125 462.241 204.125ZM472.667 199.85C472.667 197.417 471.031 195.575 468.682 195.575C466.333 195.575 464.698 197.426 464.698 199.85C464.698 202.282 466.333 204.125 468.682 204.125C471.031 204.125 472.667 202.273 472.667 199.85ZM471.604 199.85C471.604 201.775 470.5 203.236 468.682 203.236C466.856 203.236 465.76 201.767 465.76 199.85C465.76 197.924 466.864 196.463 468.682 196.463C470.5 196.463 471.604 197.932 471.604 199.85ZM474.941 207.437H475.945V202.141C476.443 203.369 477.556 204.125 478.975 204.125C481.216 204.125 482.528 202.249 482.528 199.85C482.528 197.442 481.216 195.575 478.967 195.575C477.547 195.575 476.443 196.33 475.945 197.559V195.699H474.941V207.437ZM478.743 196.463C480.511 196.463 481.465 197.94 481.465 199.85C481.465 201.759 480.511 203.236 478.743 203.236C476.983 203.236 475.862 201.775 475.862 199.841C475.862 197.924 476.983 196.463 478.743 196.463ZM488.197 195.699L490.596 204H491.559L493.867 197.085L496.199 204H497.17L499.578 195.699H498.499L496.639 202.489L494.356 195.699H493.418L491.136 202.489L489.276 195.699H488.197ZM506.7 202.257L506.766 204H507.613V199.161C507.613 196.729 506.467 195.575 504.425 195.575C502.964 195.575 501.927 196.106 501.122 197.276L501.894 197.849C502.491 196.919 503.288 196.471 504.367 196.471C505.878 196.471 506.658 197.227 506.667 199.219H504.4C501.985 199.219 500.798 200.173 500.798 201.692C500.798 203.211 501.902 204.125 503.62 204.125C504.957 204.125 506.036 203.494 506.7 202.257ZM503.811 203.253C502.524 203.253 501.827 202.622 501.827 201.643C501.827 200.638 502.583 199.999 504.342 199.999H506.667V200.53C506.675 201.684 505.67 203.253 503.811 203.253ZM511.273 207.553H512.386L516.918 195.699H515.855L513.208 202.763L510.261 195.699H509.132L512.701 204.033L511.273 207.553ZM523.218 204H524.223V192.263H523.218V204ZM534.474 199.85C534.474 197.417 532.839 195.575 530.49 195.575C528.141 195.575 526.505 197.426 526.505 199.85C526.505 202.282 528.141 204.125 530.49 204.125C532.839 204.125 534.474 202.273 534.474 199.85ZM533.412 199.85C533.412 201.775 532.308 203.236 530.49 203.236C528.664 203.236 527.568 201.767 527.568 199.85C527.568 197.924 528.672 196.463 530.49 196.463C532.308 196.463 533.412 197.932 533.412 199.85ZM539.778 204.125C541.355 204.125 542.559 203.294 543.065 201.85L542.127 201.501C541.779 202.564 540.94 203.203 539.82 203.203C538.019 203.203 537.122 201.676 537.122 199.85C537.122 197.766 538.218 196.496 539.778 196.496C540.866 196.496 541.704 197.11 542.119 198.189L543.074 197.824C542.451 196.33 541.314 195.575 539.787 195.575C537.512 195.575 536.068 197.343 536.068 199.85C536.068 202.315 537.446 204.125 539.778 204.125ZM550.378 202.257L550.445 204H551.292V199.161C551.292 196.729 550.146 195.575 548.104 195.575C546.643 195.575 545.605 196.106 544.8 197.276L545.572 197.849C546.17 196.919 546.967 196.471 548.046 196.471C549.557 196.471 550.337 197.227 550.345 199.219H548.079C545.664 199.219 544.477 200.173 544.477 201.692C544.477 203.211 545.581 204.125 547.299 204.125C548.635 204.125 549.714 203.494 550.378 202.257ZM547.49 203.253C546.203 203.253 545.506 202.622 545.506 201.643C545.506 200.638 546.261 199.999 548.021 199.999H550.345V200.53C550.354 201.684 549.349 203.253 547.49 203.253ZM554.164 204H555.168V192.263H554.164V204ZM367.554 225.494C367.554 227.436 366.4 228.665 364.74 228.665C363.403 228.665 362.391 227.901 361.942 226.88L361.162 227.444C361.818 228.698 363.038 229.561 364.723 229.561C367.022 229.561 368.575 227.934 368.575 225.494V217.708H367.554V219.625C367.047 218.363 365.869 217.583 364.524 217.583C362.308 217.583 360.822 219.451 360.822 221.808C360.822 224.174 362.308 226.05 364.532 226.05C365.894 226.05 367.047 225.27 367.554 224V225.494ZM364.765 225.12C363.005 225.12 361.859 223.676 361.859 221.808C361.859 219.949 363.005 218.496 364.765 218.496C366.516 218.496 367.637 219.932 367.637 221.808C367.637 223.692 366.516 225.12 364.765 225.12ZM378.818 221.85C378.818 219.417 377.183 217.575 374.833 217.575C372.484 217.575 370.849 219.426 370.849 221.85C370.849 224.282 372.484 226.125 374.833 226.125C377.183 226.125 378.818 224.273 378.818 221.85ZM377.755 221.85C377.755 223.775 376.651 225.236 374.833 225.236C373.007 225.236 371.912 223.767 371.912 221.85C371.912 219.924 373.016 218.463 374.833 218.463C376.651 218.463 377.755 219.932 377.755 221.85ZM379.922 217.699L383.309 226H384.164L387.55 217.699H386.463L383.749 224.697L381.026 217.699H379.922ZM392.581 226.125C393.917 226.125 394.847 225.726 395.776 224.755L395.079 224.124C394.34 224.904 393.635 225.211 392.597 225.211C390.962 225.211 389.875 224.166 389.783 222.049H395.917C395.951 221.825 395.967 221.601 395.967 221.343C395.967 219.235 394.681 217.575 392.448 217.575C390.248 217.575 388.729 219.31 388.729 221.891C388.729 224.481 390.248 226.125 392.581 226.125ZM392.406 218.446C393.992 218.446 394.963 219.567 394.963 221.277H389.792C389.958 219.426 391.07 218.446 392.406 218.446ZM398.308 217.699V226H399.304V221.717C399.304 219.509 400.624 218.562 401.819 218.562C402.102 218.562 402.326 218.604 402.558 218.687V217.658C402.359 217.608 402.135 217.575 401.844 217.575C400.773 217.575 399.802 218.189 399.304 219.517V217.699H398.308ZM404.583 217.699V226H405.588V221.036C405.588 219.393 406.526 218.463 407.97 218.463C409.282 218.463 410.054 219.26 410.054 220.795V226H411.058V220.663C411.058 218.679 409.962 217.575 408.219 217.575C407.074 217.575 406.086 218.139 405.588 219.144V217.699H404.583ZM413.98 217.699V226H414.984V221.036C414.984 219.393 415.897 218.463 417.3 218.463C418.587 218.463 419.326 219.26 419.326 220.795V226H420.33V221.011C420.33 219.368 421.251 218.463 422.646 218.463C423.933 218.463 424.671 219.26 424.671 220.795V226H425.676V220.663C425.676 218.67 424.597 217.575 422.87 217.575C421.658 217.575 420.737 218.073 420.106 219.293C419.716 218.181 418.811 217.575 417.566 217.575C416.429 217.575 415.482 218.139 414.984 219.144V217.699H413.98ZM431.793 226.125C433.13 226.125 434.06 225.726 434.989 224.755L434.292 224.124C433.553 224.904 432.848 225.211 431.81 225.211C430.175 225.211 429.087 224.166 428.996 222.049H435.13C435.164 221.825 435.18 221.601 435.18 221.343C435.18 219.235 433.894 217.575 431.661 217.575C429.461 217.575 427.942 219.31 427.942 221.891C427.942 224.481 429.461 226.125 431.793 226.125ZM431.619 218.446C433.205 218.446 434.176 219.567 434.176 221.277H429.004C429.17 219.426 430.283 218.446 431.619 218.446ZM437.521 217.699V226H438.525V221.036C438.525 219.393 439.463 218.463 440.908 218.463C442.219 218.463 442.991 219.26 442.991 220.795V226H443.996V220.663C443.996 218.679 442.9 217.575 441.157 217.575C440.011 217.575 439.023 218.139 438.525 219.144V217.699H437.521ZM449.474 226.125C449.889 226.125 450.304 226.05 450.545 225.967V225.054C450.238 225.17 449.914 225.228 449.565 225.228C448.661 225.228 448.171 224.755 448.171 223.526V218.546H450.512V217.699H448.171V215.026H447.175V217.699H445.797V218.546H447.167V223.584C447.167 225.27 447.98 226.125 449.474 226.125ZM460.058 226.125C461.635 226.125 462.838 225.294 463.345 223.85L462.407 223.501C462.058 224.564 461.22 225.203 460.099 225.203C458.298 225.203 457.401 223.676 457.401 221.85C457.401 219.766 458.497 218.496 460.058 218.496C461.145 218.496 461.983 219.11 462.398 220.189L463.353 219.824C462.73 218.33 461.593 217.575 460.066 217.575C457.792 217.575 456.347 219.343 456.347 221.85C456.347 224.315 457.725 226.125 460.058 226.125ZM470.658 224.257L470.724 226H471.571V221.161C471.571 218.729 470.425 217.575 468.383 217.575C466.922 217.575 465.885 218.106 465.08 219.276L465.852 219.849C466.449 218.919 467.246 218.471 468.325 218.471C469.836 218.471 470.616 219.227 470.625 221.219H468.358C465.943 221.219 464.756 222.173 464.756 223.692C464.756 225.211 465.86 226.125 467.578 226.125C468.915 226.125 469.994 225.494 470.658 224.257ZM467.769 225.253C466.482 225.253 465.785 224.622 465.785 223.643C465.785 222.638 466.541 221.999 468.3 221.999H470.625V222.53C470.633 223.684 469.628 225.253 467.769 225.253ZM474.443 217.699V226H475.447V221.036C475.447 219.393 476.385 218.463 477.83 218.463C479.141 218.463 479.913 219.26 479.913 220.795V226H480.917V220.663C480.917 218.679 479.822 217.575 478.079 217.575C476.933 217.575 475.945 218.139 475.447 219.144V217.699H474.443ZM488.206 214.263V226H489.21V221.036C489.21 219.393 490.148 218.463 491.592 218.463C492.904 218.463 493.676 219.26 493.676 220.795V226H494.68V220.663C494.68 218.679 493.584 217.575 491.841 217.575C490.696 217.575 489.708 218.139 489.21 219.144V214.263H488.206ZM500.79 226.125C502.126 226.125 503.056 225.726 503.985 224.755L503.288 224.124C502.549 224.904 501.844 225.211 500.806 225.211C499.171 225.211 498.083 224.166 497.992 222.049H504.126C504.16 221.825 504.176 221.601 504.176 221.343C504.176 219.235 502.89 217.575 500.657 217.575C498.457 217.575 496.938 219.31 496.938 221.891C496.938 224.481 498.457 226.125 500.79 226.125ZM500.615 218.446C502.201 218.446 503.172 219.567 503.172 221.277H498C498.167 219.426 499.279 218.446 500.615 218.446ZM506.517 226H507.521V214.263H506.517V226ZM510.535 229.437H511.539V224.141C512.037 225.369 513.149 226.125 514.569 226.125C516.81 226.125 518.122 224.249 518.122 221.85C518.122 219.442 516.81 217.575 514.561 217.575C513.141 217.575 512.037 218.33 511.539 219.559V217.699H510.535V229.437ZM514.336 218.463C516.104 218.463 517.059 219.94 517.059 221.85C517.059 223.759 516.104 225.236 514.336 225.236C512.577 225.236 511.456 223.775 511.456 221.841C511.456 219.924 512.577 218.463 514.336 218.463Z" fill="#2B2B2B"></path><path d="M379.239 75.4595H360.532V75.5239L362.868 77.7153C363.142 78.0054 363.174 78.1021 363.174 78.5532V96.8901C363.174 97.3413 363.142 97.4541 362.868 97.728L360.532 99.9355V100H373.1V99.9355L369.877 97.4863C369.539 97.2124 369.491 97.0996 369.491 96.6807V88.0601H371.843C372.294 88.0601 372.423 88.1245 372.778 88.5112L375.92 92.1367H375.984V83.2422H375.92L372.778 86.8677C372.423 87.2866 372.294 87.3188 371.875 87.3672H369.491V76.813C369.491 76.2168 369.604 76.1523 370.087 76.1523H373.68C374.212 76.1523 374.389 76.249 374.663 76.7163L379.175 83.9028H379.239V75.4595ZM388.102 74.541L380.399 75.4595V75.5239L382.107 77.1353C382.381 77.4092 382.414 77.5542 382.414 78.0054V97.4863C382.414 97.9375 382.381 98.0503 382.107 98.3242L380.399 99.9355V100H390.164V99.9355L388.456 98.3242C388.15 98.0503 388.102 97.9375 388.102 97.4863V74.541ZM407.309 90.5737C407.341 90.1548 407.341 89.9131 407.341 89.8003C407.341 84.1768 403.393 82.4365 399.687 82.4365C395.046 82.4365 390.938 85.0146 390.938 91.4761C390.938 97.6313 395.079 100.274 399.478 100.274C403.57 100.274 406.293 98.2114 407.196 93.8125H407.131C405.971 96.1167 403.925 97.0352 401.83 97.0352C399.139 97.0352 396.835 95.1821 396.835 90.6382V90.5737H407.309ZM399.623 83.0972C401.057 83.0972 401.991 84.3218 401.991 88.8979C401.991 89.043 401.991 89.4941 401.959 89.9453H396.835C396.899 84.8857 397.882 83.0972 399.623 83.0972ZM418.153 89.623L419.941 87.3994C420.457 86.771 420.844 86.3521 421.408 85.9009L425.146 82.791V82.7104H418.088V82.791L419.877 85.5464C420.183 85.9976 420.151 86.062 419.764 86.5615L417.782 89.0752L415.22 85.2725C414.946 84.8857 414.914 84.7407 415.188 84.4346L416.525 82.791V82.7104H407.019V82.791L408.308 84.3218C408.694 84.7407 409.081 85.2241 409.355 85.6431L414.221 92.9102L412.255 95.3271C411.772 95.9556 411.353 96.3745 410.789 96.8257L407.083 99.9355V100H414.108V99.9355L412.336 97.2124C412.014 96.7129 412.046 96.6484 412.433 96.165L414.592 93.4741L417.283 97.4541C417.524 97.8408 417.605 97.9697 417.315 98.3242L415.994 99.9355V100H425.533V99.9355L424.163 98.3564C423.809 97.9375 423.535 97.6313 423.18 97.1318L418.153 89.623ZM430.512 80.793C432.091 80.793 433.348 79.7778 433.348 78.2148C433.348 76.5391 432.091 75.4917 430.512 75.4917C429.013 75.4917 427.724 76.5391 427.724 78.2148C427.724 79.7778 429.013 80.793 430.512 80.793ZM425.726 82.7104V82.791L427.45 84.5312C427.724 84.8535 427.756 84.9502 427.756 85.4014V97.4863C427.756 97.9375 427.756 98.0503 427.45 98.3242L425.726 99.9355V100H435.507V99.9355L433.799 98.3242C433.477 98.0503 433.477 97.9375 433.477 97.4863V82.7104H425.726ZM443.306 74.541L435.587 75.4595V75.5239L437.263 77.1353C437.537 77.4092 437.569 77.5542 437.569 78.0054V100.274H437.65L443.161 98.3887C444.031 99.5488 445.465 100.274 447.495 100.274C452.168 100.274 455.31 96.5356 455.31 91.2021C455.31 85.9331 452.796 82.4365 448.752 82.4365C446.19 82.4365 444.417 83.8062 443.306 86.2715V74.541ZM445.916 85.2241C447.914 85.2241 449.268 86.8999 449.268 91.3794C449.268 97.2769 447.495 98.7754 445.32 98.7754C444.595 98.7754 443.854 98.5659 443.306 98.002V86.7388C444.031 85.7236 444.901 85.2241 445.916 85.2241ZM463.866 74.541L456.164 75.4595V75.5239L457.872 77.1353C458.146 77.4092 458.178 77.5542 458.178 78.0054V97.4863C458.178 97.9375 458.146 98.0503 457.872 98.3242L456.164 99.9355V100H465.929V99.9355L464.221 98.3242C463.915 98.0503 463.866 97.9375 463.866 97.4863V74.541ZM483.073 90.5737C483.105 90.1548 483.105 89.9131 483.105 89.8003C483.105 84.1768 479.158 82.4365 475.452 82.4365C470.811 82.4365 466.702 85.0146 466.702 91.4761C466.702 97.6313 470.843 100.274 475.242 100.274C479.335 100.274 482.058 98.2114 482.96 93.8125H482.896C481.736 96.1167 479.689 97.0352 477.595 97.0352C474.904 97.0352 472.6 95.1821 472.6 90.6382V90.5737H483.073ZM475.387 83.0972C476.821 83.0972 477.756 84.3218 477.756 88.8979C477.756 89.043 477.756 89.4941 477.724 89.9453H472.6C472.664 84.8857 473.647 83.0972 475.387 83.0972ZM367.444 108.541L359.726 109.459V109.524L361.402 111.135C361.676 111.409 361.708 111.554 361.708 112.005V134.274H361.789L367.299 132.389C368.169 133.549 369.604 134.274 371.634 134.274C376.307 134.274 379.449 130.536 379.449 125.202C379.449 119.933 376.935 116.437 372.891 116.437C370.329 116.437 368.556 117.806 367.444 120.271V108.541ZM370.055 119.224C372.053 119.224 373.406 120.9 373.406 125.379C373.406 131.277 371.634 132.775 369.458 132.775C368.733 132.775 367.992 132.566 367.444 132.002V120.739C368.169 119.724 369.04 119.224 370.055 119.224ZM397.576 124.574C397.608 124.155 397.608 123.913 397.608 123.8C397.608 118.177 393.661 116.437 389.955 116.437C385.314 116.437 381.205 119.015 381.205 125.476C381.205 131.631 385.346 134.274 389.745 134.274C393.838 134.274 396.561 132.211 397.463 127.812H397.399C396.239 130.117 394.192 131.035 392.098 131.035C389.407 131.035 387.103 129.182 387.103 124.638V124.574H397.576ZM389.89 117.097C391.324 117.097 392.259 118.322 392.259 122.898C392.259 123.043 392.259 123.494 392.227 123.945H387.103C387.167 118.886 388.15 117.097 389.89 117.097ZM417.508 123.8C417.508 118.982 415.559 116.437 412.062 116.437C409.226 116.437 407.389 117.967 406.503 120.417V116.71H398.752V116.791L400.477 118.531C400.75 118.854 400.783 118.95 400.783 119.401V131.486C400.783 131.938 400.783 132.05 400.477 132.324L398.752 133.936V134H408.533V133.936L406.825 132.324C406.503 132.05 406.503 131.938 406.503 131.486V120.868C407.131 119.965 407.969 119.337 409.097 119.337C411.256 119.337 411.74 121.432 411.74 124.606C411.74 126.282 411.643 131.003 411.643 131.519C411.643 131.905 411.611 132.05 411.321 132.324L409.645 133.936V134H419.458V133.936L417.718 132.324C417.444 132.05 417.412 131.938 417.412 131.486C417.444 128.731 417.508 125.976 417.508 123.8ZM436.667 124.574C436.699 124.155 436.699 123.913 436.699 123.8C436.699 118.177 432.751 116.437 429.045 116.437C424.405 116.437 420.296 119.015 420.296 125.476C420.296 131.631 424.437 134.274 428.836 134.274C432.929 134.274 435.652 132.211 436.554 127.812H436.49C435.33 130.117 433.283 131.035 431.188 131.035C428.498 131.035 426.193 129.182 426.193 124.638V124.574H436.667ZM428.981 117.097C430.415 117.097 431.35 118.322 431.35 122.898C431.35 123.043 431.35 123.494 431.317 123.945H426.193C426.258 118.886 427.241 117.097 428.981 117.097ZM456.905 131.486V116.71H445.626V115.067C445.626 111.683 446.738 109.766 448.978 109.766H449.509C449.993 109.766 450.138 109.878 450.347 110.217L452.958 115.212H453.022L455.229 110.04C452.78 109.379 450.766 109.105 448.671 109.105C443.435 109.105 440.18 111.619 439.938 116.71H438.085V117.516H439.938V131.486C439.938 131.938 439.906 132.05 439.616 132.324L437.908 133.936V134H447.995V133.936L446.013 132.26C445.69 131.97 445.626 131.873 445.626 131.454V117.516H450.653C451.008 117.516 451.217 117.581 451.217 118.064V131.486C451.217 131.938 451.185 132.05 450.895 132.324L449.187 133.936V134H458.968V133.936L457.26 132.324C456.938 132.002 456.905 131.905 456.905 131.486ZM471.407 116.71H467.105V110.845H467.041L462.158 116.324C461.804 116.71 461.626 116.71 461.062 116.71H459.5V117.516H461.417V129.488C461.417 132.63 462.916 134.274 465.961 134.274C469.28 134.274 470.698 132.26 471.053 130.294L470.988 130.262C470.602 130.955 469.86 131.551 468.958 131.551C467.814 131.551 467.105 130.648 467.105 129.069V117.516H471.407V116.71ZM481.526 131.1C481.526 132.598 480.27 133.646 478.239 133.646H477.434C477.047 133.646 476.837 133.468 476.708 133.194L473.905 127.78H473.84L471.923 133.194C473.905 133.887 476.354 134.274 478.352 134.274C482.993 134.274 486.167 132.26 486.167 128.489C486.167 125.798 484.459 124.606 482.284 123.671L480.06 122.688C477.998 121.786 476.837 121.045 476.837 119.514C476.837 117.871 478.143 117.065 479.673 117.065H480.157C480.656 117.065 480.753 117.242 480.962 117.597L483.686 122.447H483.75L485.716 117.387C483.444 116.678 481.285 116.437 479.561 116.437C475.129 116.437 472.406 118.644 472.406 121.947C472.406 124.429 473.873 126.008 475.79 126.91L478.175 128.022C480.447 129.069 481.526 129.666 481.526 131.1Z" fill="#254759"></path><path d="M388.161 55.1245C391.415 55.1245 392.378 51.7793 392.378 49.1313C392.378 46.5083 391.407 43.1382 388.136 43.1382C384.816 43.1382 383.928 46.5581 383.928 49.1313C383.928 51.6797 384.824 55.1245 388.161 55.1245ZM388.153 54.1284C385.654 54.1284 384.965 51.3892 384.965 49.1313C384.965 46.8569 385.671 44.1426 388.136 44.1426C390.626 44.1426 391.324 46.8735 391.324 49.1313C391.324 51.3892 390.618 54.1284 388.153 54.1284ZM399.101 55H400.131V52.1943H402.048V51.2397H400.131V43.271H399.168L393.183 51.5137V52.1943H399.101V55ZM394.511 51.2397L399.101 44.8066V51.2397H394.511Z" fill="#254759"></path><line x1="360" y1="50.5" x2="379.504" y2="50.5" stroke="#254759"></line></svg> 