<?xml version="1.0" encoding="UTF-8"?> <svg xmlns="http://www.w3.org/2000/svg" width="828" height="217" viewBox="0 0 828 217" fill="none"><path d="M44.87 125H67.42V124.12H62.195V84.025L43.55 91.78V91.835L50.095 95.52V124.12H44.87V125ZM134.355 124.12L129.845 88.37L134.795 85.4H116.205L110.1 110.645L100.475 85.4H83.6446L88.5946 88.37V88.425L83.7546 124.12H80.2346V125H93.5996V124.12H87.9346L89.4196 90.35L103.225 125.275H106.25L117.855 90.405L122.2 124.12H116.7V125H138.535V124.12H134.355Z" fill="#2B2B2B"></path><path d="M295.655 103.935C302.695 102.78 307.645 98.765 307.645 93.65C307.645 88.205 302.09 84.3 292.795 84.3C287.735 84.3 283.335 85.455 278.99 87.875L283.885 99.755H283.94L289.66 85.51C289.99 85.4 290.485 85.345 290.925 85.345C293.455 85.345 294.995 88.48 294.995 93.65C294.995 100.8 292.685 104.1 286.8 104.1V104.65C293.29 104.65 297.085 109.215 297.085 114.99C297.085 121.425 294.17 125.055 290.98 125.055C290.485 125.055 290.155 125 289.77 124.89L282.345 110.48H282.29L279.76 123.68C283.39 125.33 287.295 126.1 291.475 126.1C303.19 126.1 309.735 121.37 309.735 113.945C309.735 108.5 304.015 104.43 295.655 103.935ZM317.747 125.825C320.937 125.825 323.027 123.79 323.027 120.49C323.027 117.19 320.937 115.155 317.747 115.155C314.557 115.155 312.467 117.19 312.467 120.49C312.467 123.79 314.557 125.825 317.747 125.825ZM349.37 102.12L345.465 99.315C350.91 99.04 354.65 96.675 354.65 92.44C354.65 88.04 349.37 84.3 342.11 84.3C333.915 84.3 328.415 89.195 328.36 95.465C328.305 99.865 330.12 102.835 335.73 107.07C329.9 107.565 326.105 111.085 326.105 115.65C326.105 122.25 332.54 126.1 341.23 126.1C349.59 126.1 356.465 120.215 356.465 113.01C356.465 108.94 354.32 105.64 349.37 102.12ZM341.175 85.455C344.145 85.455 346.345 87.93 346.345 92.22C346.345 94.805 345.905 96.95 344.915 98.93L340.845 96.015C338.205 94.145 336.72 92.11 336.72 89.965C336.72 87.215 338.59 85.455 341.175 85.455ZM342.11 124.945C337.875 124.945 335.07 121.535 335.07 114.165C335.07 111.635 335.455 109.655 336.335 107.51C336.83 107.895 337.325 108.225 337.875 108.61L341.78 111.305C345.08 113.615 347.225 116.035 347.225 119.17C347.225 122.47 345.19 124.945 342.11 124.945ZM374.771 103.935C381.811 102.78 386.761 98.765 386.761 93.65C386.761 88.205 381.206 84.3 371.911 84.3C366.851 84.3 362.451 85.455 358.106 87.875L363.001 99.755H363.056L368.776 85.51C369.106 85.4 369.601 85.345 370.041 85.345C372.571 85.345 374.111 88.48 374.111 93.65C374.111 100.8 371.801 104.1 365.916 104.1V104.65C372.406 104.65 376.201 109.215 376.201 114.99C376.201 121.425 373.286 125.055 370.096 125.055C369.601 125.055 369.271 125 368.886 124.89L361.461 110.48H361.406L358.876 123.68C362.506 125.33 366.411 126.1 370.591 126.1C382.306 126.1 388.851 121.37 388.851 113.945C388.851 108.5 383.131 104.43 374.771 103.935Z" fill="#2B2B2B"></path><path d="M577.05 106.135H566.05V95.135H564.95V106.135H553.95V107.235H564.95V118.235H566.05V107.235H577.05V106.135ZM613.384 113.065C613.384 108.335 611.074 105.035 606.124 101.955L599.634 97.94V85.51C600.349 85.565 600.954 85.675 601.559 85.84L608.544 99.205H608.599L612.119 86.72C608.709 85.29 604.529 84.3 599.634 84.3V80.12H598.534V84.3C590.229 84.74 585.609 89.855 585.609 96.62C585.609 101.625 588.249 105.64 593.749 108.72L598.534 111.415V124.78H598.039C596.719 124.78 595.509 124.56 594.299 124.065L587.314 109.325H587.259L583.354 123.35C586.709 124.67 592.814 126.1 598.149 126.1H598.534V130.335H599.634V126.045C607.719 125.495 613.384 120.325 613.384 113.065ZM593.639 90.625C593.639 87.765 595.674 85.62 598.534 85.51V97.28C594.959 94.915 593.639 92.66 593.639 90.625ZM599.634 124.615V112.02L599.854 112.13C602.989 113.89 604.474 116.09 604.474 118.73C604.474 121.81 602.439 124.01 599.634 124.615ZM617.203 125H639.753V124.12H634.528V84.025L615.883 91.78V91.835L622.428 95.52V124.12H617.203V125ZM648.07 115.155C644.715 115.155 642.79 117.355 642.79 120.49C642.79 123.24 644.33 125.44 647.63 125.77C646.86 130.225 645.155 133.085 640.81 136.44V136.55C649.445 133.36 653.57 127.86 653.57 121.26C653.57 116.86 651.205 115.155 648.07 115.155ZM673.749 84.3C664.564 84.3 657.414 89.745 657.414 97.94C657.414 104.98 662.529 109.6 670.724 109.6C673.254 109.6 675.344 109.215 677.049 108.39C675.619 117.575 671.604 122.855 664.124 125.825L664.344 126.43C680.019 122.855 690.359 113.725 690.359 100.8C690.359 89.745 683.319 84.3 673.749 84.3ZM674.574 107.895C671.769 107.895 670.064 105.53 670.064 96.345C670.064 88.315 671.054 85.4 673.804 85.4C676.774 85.4 677.709 89.03 677.709 99.15C677.709 102.01 677.544 104.595 677.269 106.96C676.389 107.565 675.509 107.895 674.574 107.895ZM694.171 125H716.721V124.12H711.496V84.025L692.851 91.78V91.835L699.396 95.52V124.12H694.171V125ZM745.498 111.855V115.1H726.303C741.593 105.42 746.213 100.58 746.213 94.365C746.213 87.875 741.043 84.3 731.088 84.3C726.303 84.3 721.903 85.62 717.998 87.71L722.563 101.405H722.618L728.338 85.51C728.668 85.4 729.053 85.345 729.438 85.345C732.078 85.345 733.563 88.37 733.563 94.2C733.563 101.9 730.098 108.995 720.363 121.37L717.558 124.945V125H746.598V111.855H745.498Z" fill="#2B2B2B"></path><path d="M44.7578 143.191V157H47.2383V151.404H49.0742C51.9648 151.404 54.0352 149.949 54.0352 147.312C54.0352 144.705 51.9844 143.191 49.1914 143.191H44.7578ZM49.1035 149.119H47.2383V145.477H49.1035C50.7344 145.477 51.4766 146.17 51.4766 147.342C51.4766 148.514 50.7539 149.119 49.1035 149.119ZM64.9727 152.117C64.9727 149.305 62.9902 147.039 59.9727 147.039C56.9551 147.039 54.9727 149.305 54.9727 152.117C54.9727 154.93 56.9551 157.195 59.9727 157.195C62.9902 157.195 64.9727 154.93 64.9727 152.117ZM62.4922 152.117C62.4922 153.729 61.7695 155.105 59.9727 155.105C58.166 155.105 57.4531 153.729 57.4531 152.117C57.4531 150.506 58.1758 149.129 59.9727 149.129C61.7793 149.129 62.4922 150.506 62.4922 152.117ZM66.9258 161.043H69.3086V156.014C69.9824 156.854 71.0762 157.195 72.1016 157.195C74.7578 157.195 76.3301 155.027 76.3301 152.117C76.3301 149.178 74.7578 147.039 72.0625 147.039C71.0176 147.039 69.9824 147.381 69.3086 148.201V147.234H66.9258V161.043ZM71.4668 149.129C73.1074 149.129 73.8496 150.438 73.8496 152.117C73.8496 153.777 73.1074 155.105 71.4668 155.105C69.8262 155.105 69.1035 153.797 69.1035 152.117C69.1035 150.418 69.8262 149.129 71.4668 149.129ZM87.1406 157V147.234H84.7578V152.674C84.7578 154.334 83.9473 155.096 82.5898 155.096C81.4863 155.096 80.6953 154.324 80.6953 152.801V147.234H78.3125V153.094C78.3125 155.74 79.7285 157.195 81.877 157.195C82.9902 157.195 84.0254 156.707 84.7578 155.857V157H87.1406ZM89.875 157H92.2578V143.191H89.875V157ZM94.1621 154.178C94.1621 156.053 95.4219 157.195 97.5605 157.195C98.957 157.195 99.9922 156.648 100.744 155.604L100.9 157H102.863V151.014C102.863 148.611 101.359 147.039 98.7324 147.039C96.9551 147.039 95.627 147.713 94.543 149.178L96.3691 150.496C96.877 149.627 97.6875 149.119 98.6543 149.119C99.8066 149.119 100.588 149.832 100.588 151.18H98.0488C95.5488 151.18 94.1621 152.293 94.1621 154.178ZM98.0488 155.184C97.1016 155.184 96.6035 154.734 96.6035 154.07C96.6035 153.377 97.1406 152.898 98.2246 152.898H100.588C100.588 154.119 99.4355 155.184 98.0488 155.184ZM108.879 157.195C109.553 157.195 110.275 157.039 110.637 156.902V154.744C110.314 154.9 109.777 155.096 109.279 155.096C108.654 155.096 108.176 154.822 108.176 153.885V149.188H110.637V147.234H108.176V143.201H105.852V147.234H104.24V149.188H105.812V154.305C105.812 156.082 106.955 157.195 108.879 157.195ZM113.889 145.691C114.641 145.691 115.236 145.096 115.236 144.344C115.236 143.611 114.641 142.996 113.889 142.996C113.137 142.996 112.541 143.611 112.541 144.344C112.541 145.096 113.137 145.691 113.889 145.691ZM112.688 147.234V157H115.07V147.234H112.688ZM127.023 152.117C127.023 149.305 125.041 147.039 122.023 147.039C119.006 147.039 117.023 149.305 117.023 152.117C117.023 154.93 119.006 157.195 122.023 157.195C125.041 157.195 127.023 154.93 127.023 152.117ZM124.543 152.117C124.543 153.729 123.82 155.105 122.023 155.105C120.217 155.105 119.504 153.729 119.504 152.117C119.504 150.506 120.227 149.129 122.023 149.129C123.83 149.129 124.543 150.506 124.543 152.117ZM128.977 147.234V157H131.359V151.561C131.359 149.9 132.17 149.139 133.527 149.139C134.631 149.139 135.422 149.91 135.422 151.434V157H137.805V151.141C137.805 148.494 136.389 147.039 134.24 147.039C133.127 147.039 132.092 147.527 131.359 148.377V147.234H128.977Z" fill="#06757A"></path><path d="M278.117 143.191L283.664 157H285.5L290.979 143.191H288.283L284.621 153.025L280.861 143.191H278.117ZM295.939 157.195C297.58 157.195 298.879 156.619 299.943 155.438L298.303 154.002C297.609 154.773 296.887 155.076 295.988 155.076C294.689 155.076 293.752 154.422 293.518 152.898H300.217C300.275 152.615 300.305 152.332 300.305 151.961C300.305 149.783 299.201 147.039 295.783 147.039C292.912 147.039 290.998 149.119 290.998 152.156C290.998 155.164 292.824 157.195 295.939 157.195ZM295.764 149.041C297.033 149.041 297.844 149.852 297.961 151.18H293.527C293.752 149.715 294.582 149.041 295.764 149.041ZM302.258 147.234V157H304.641V151.561C304.641 149.9 305.451 149.139 306.809 149.139C307.912 149.139 308.703 149.91 308.703 151.434V157H311.086V151.141C311.086 148.494 309.67 147.039 307.521 147.039C306.408 147.039 305.373 147.527 304.641 148.377V147.234H302.258ZM317.238 157.195C317.912 157.195 318.635 157.039 318.996 156.902V154.744C318.674 154.9 318.137 155.096 317.639 155.096C317.014 155.096 316.535 154.822 316.535 153.885V149.188H318.996V147.234H316.535V143.201H314.211V147.234H312.6V149.188H314.172V154.305C314.172 156.082 315.314 157.195 317.238 157.195ZM329.836 157V147.234H327.453V152.674C327.453 154.334 326.643 155.096 325.285 155.096C324.182 155.096 323.391 154.324 323.391 152.801V147.234H321.008V153.094C321.008 155.74 322.424 157.195 324.572 157.195C325.686 157.195 326.721 156.707 327.453 155.857V157H329.836ZM332.57 147.234V157H334.875V152.879C334.875 150.857 335.939 149.363 337.57 149.363C338.078 149.363 338.371 149.451 338.596 149.539V147.176C338.381 147.107 338.029 147.039 337.512 147.039C336.379 147.039 335.422 147.742 334.895 148.992V147.234H332.57ZM344.572 157.195C346.213 157.195 347.512 156.619 348.576 155.438L346.936 154.002C346.242 154.773 345.52 155.076 344.621 155.076C343.322 155.076 342.385 154.422 342.15 152.898H348.85C348.908 152.615 348.938 152.332 348.938 151.961C348.938 149.783 347.834 147.039 344.416 147.039C341.545 147.039 339.631 149.119 339.631 152.156C339.631 155.164 341.457 157.195 344.572 157.195ZM344.396 149.041C345.666 149.041 346.477 149.852 346.594 151.18H342.16C342.385 149.715 343.215 149.041 344.396 149.041ZM364.465 143.191H362.082V148.221C361.408 147.381 360.314 147.039 359.289 147.039C356.633 147.039 355.061 149.207 355.061 152.117C355.061 155.057 356.633 157.195 359.328 157.195C360.373 157.195 361.408 156.854 362.082 156.033V157H364.465V143.191ZM359.924 155.105C358.283 155.105 357.541 153.797 357.541 152.117C357.541 150.457 358.283 149.129 359.924 149.129C361.564 149.129 362.287 150.438 362.287 152.117C362.287 153.816 361.564 155.105 359.924 155.105ZM371.428 157.195C373.068 157.195 374.367 156.619 375.432 155.438L373.791 154.002C373.098 154.773 372.375 155.076 371.477 155.076C370.178 155.076 369.24 154.422 369.006 152.898H375.705C375.764 152.615 375.793 152.332 375.793 151.961C375.793 149.783 374.689 147.039 371.271 147.039C368.4 147.039 366.486 149.119 366.486 152.156C366.486 155.164 368.312 157.195 371.428 157.195ZM371.252 149.041C372.521 149.041 373.332 149.852 373.449 151.18H369.016C369.24 149.715 370.07 149.041 371.252 149.041ZM377.746 147.234V157H380.129V151.561C380.129 149.9 380.939 149.139 382.297 149.139C383.4 149.139 384.191 149.91 384.191 151.434V157H386.574V151.141C386.574 148.494 385.158 147.039 383.01 147.039C381.896 147.039 380.861 147.527 380.129 148.377V147.234H377.746ZM392.414 157.195C394.328 157.195 396.203 156.209 396.203 153.973C396.203 150.35 390.969 151.424 390.969 149.754C390.969 149.275 391.398 148.924 392.238 148.924C393.293 148.924 393.869 149.52 394.182 150.096L396.047 149.051C395.334 147.762 394.064 147.039 392.229 147.039C390.061 147.039 388.684 148.211 388.684 149.93C388.684 153.709 393.859 152.469 393.859 154.256C393.859 154.822 393.352 155.223 392.336 155.223C391.408 155.223 390.598 154.773 390.061 153.719L388.234 154.842C388.908 156.404 390.246 157.195 392.414 157.195ZM399.455 145.691C400.207 145.691 400.803 145.096 400.803 144.344C400.803 143.611 400.207 142.996 399.455 142.996C398.703 142.996 398.107 143.611 398.107 144.344C398.107 145.096 398.703 145.691 399.455 145.691ZM398.254 147.234V157H400.637V147.234H398.254ZM406.887 157.195C407.561 157.195 408.283 157.039 408.645 156.902V154.744C408.322 154.9 407.785 155.096 407.287 155.096C406.662 155.096 406.184 154.822 406.184 153.885V149.188H408.645V147.234H406.184V143.201H403.859V147.234H402.248V149.188H403.82V154.305C403.82 156.082 404.963 157.195 406.887 157.195ZM411.438 161.189H414.025L419.602 147.234H417.092L414.504 153.777L412.131 147.234H409.406L413.264 156.805L411.438 161.189ZM279.367 181.043H281.75V176.014C282.424 176.854 283.518 177.195 284.543 177.195C287.199 177.195 288.771 175.027 288.771 172.117C288.771 169.178 287.199 167.039 284.504 167.039C283.459 167.039 282.424 167.381 281.75 168.201V167.234H279.367V181.043ZM283.908 169.129C285.549 169.129 286.291 170.438 286.291 172.117C286.291 173.777 285.549 175.105 283.908 175.105C282.268 175.105 281.545 173.797 281.545 172.117C281.545 170.418 282.268 169.129 283.908 169.129ZM295.1 177.195C296.74 177.195 298.039 176.619 299.104 175.438L297.463 174.002C296.77 174.773 296.047 175.076 295.148 175.076C293.85 175.076 292.912 174.422 292.678 172.898H299.377C299.436 172.615 299.465 172.332 299.465 171.961C299.465 169.783 298.361 167.039 294.943 167.039C292.072 167.039 290.158 169.119 290.158 172.156C290.158 175.164 291.984 177.195 295.1 177.195ZM294.924 169.041C296.193 169.041 297.004 169.852 297.121 171.18H292.688C292.912 169.715 293.742 169.041 294.924 169.041ZM301.418 167.234V177H303.723V172.879C303.723 170.857 304.787 169.363 306.418 169.363C306.926 169.363 307.219 169.451 307.443 169.539V167.176C307.229 167.107 306.877 167.039 306.359 167.039C305.227 167.039 304.27 167.742 303.742 168.992V167.234H301.418ZM316.34 166.941V177H318.781V163.201H316.438C316.438 164.432 315.334 165.057 313.664 165.057V166.941H316.34ZM326.301 177.195C330.002 177.195 331.74 173.543 331.74 170.115C331.74 166.678 329.963 162.977 326.164 162.977C321.984 162.977 320.705 167.156 320.705 170.096C320.705 173.016 322.023 177.195 326.301 177.195ZM326.242 174.861C324.006 174.861 323.146 172.303 323.146 170.096C323.146 167.879 324.006 165.359 326.164 165.359C328.322 165.359 329.182 167.859 329.182 170.076C329.182 172.244 328.342 174.861 326.242 174.861ZM337.902 177.195C341.604 177.195 343.342 173.543 343.342 170.115C343.342 166.678 341.564 162.977 337.766 162.977C333.586 162.977 332.307 167.156 332.307 170.096C332.307 173.016 333.625 177.195 337.902 177.195ZM337.844 174.861C335.607 174.861 334.748 172.303 334.748 170.096C334.748 167.879 335.607 165.359 337.766 165.359C339.924 165.359 340.783 167.859 340.783 170.076C340.783 172.244 339.943 174.861 337.844 174.861ZM349.777 181.043H352.16V176.014C352.834 176.854 353.928 177.195 354.953 177.195C357.609 177.195 359.182 175.027 359.182 172.117C359.182 169.178 357.609 167.039 354.914 167.039C353.869 167.039 352.834 167.381 352.16 168.201V167.234H349.777V181.043ZM354.318 169.129C355.959 169.129 356.701 170.438 356.701 172.117C356.701 173.777 355.959 175.105 354.318 175.105C352.678 175.105 351.955 173.797 351.955 172.117C351.955 170.418 352.678 169.129 354.318 169.129ZM365.51 177.195C367.15 177.195 368.449 176.619 369.514 175.438L367.873 174.002C367.18 174.773 366.457 175.076 365.559 175.076C364.26 175.076 363.322 174.422 363.088 172.898H369.787C369.846 172.615 369.875 172.332 369.875 171.961C369.875 169.783 368.771 167.039 365.354 167.039C362.482 167.039 360.568 169.119 360.568 172.156C360.568 175.164 362.395 177.195 365.51 177.195ZM365.334 169.041C366.604 169.041 367.414 169.852 367.531 171.18H363.098C363.322 169.715 364.152 169.041 365.334 169.041ZM381.047 172.117C381.047 169.305 379.064 167.039 376.047 167.039C373.029 167.039 371.047 169.305 371.047 172.117C371.047 174.93 373.029 177.195 376.047 177.195C379.064 177.195 381.047 174.93 381.047 172.117ZM378.566 172.117C378.566 173.729 377.844 175.105 376.047 175.105C374.24 175.105 373.527 173.729 373.527 172.117C373.527 170.506 374.25 169.129 376.047 169.129C377.854 169.129 378.566 170.506 378.566 172.117ZM383 181.043H385.383V176.014C386.057 176.854 387.15 177.195 388.176 177.195C390.832 177.195 392.404 175.027 392.404 172.117C392.404 169.178 390.832 167.039 388.137 167.039C387.092 167.039 386.057 167.381 385.383 168.201V167.234H383V181.043ZM387.541 169.129C389.182 169.129 389.924 170.438 389.924 172.117C389.924 173.777 389.182 175.105 387.541 175.105C385.9 175.105 385.178 173.797 385.178 172.117C385.178 170.418 385.9 169.129 387.541 169.129ZM394.504 177H396.887V163.191H394.504V177ZM403.85 177.195C405.49 177.195 406.789 176.619 407.854 175.438L406.213 174.002C405.52 174.773 404.797 175.076 403.898 175.076C402.6 175.076 401.662 174.422 401.428 172.898H408.127C408.186 172.615 408.215 172.332 408.215 171.961C408.215 169.783 407.111 167.039 403.693 167.039C400.822 167.039 398.908 169.119 398.908 172.156C398.908 175.164 400.734 177.195 403.85 177.195ZM403.674 169.041C404.943 169.041 405.754 169.852 405.871 171.18H401.438C401.662 169.715 402.492 169.041 403.674 169.041Z" fill="#06757A"></path><path d="M556.393 143.191H554.596L549.098 157H551.715L552.857 154.002H558.082L559.215 157H561.891L556.393 143.191ZM555.465 146.697L557.369 151.883H553.58L555.465 146.697ZM563.355 147.234V157H565.738V151.561C565.738 149.9 566.549 149.139 567.906 149.139C569.01 149.139 569.801 149.91 569.801 151.434V157H572.184V151.141C572.184 148.494 570.768 147.039 568.619 147.039C567.506 147.039 566.471 147.527 565.738 148.377V147.234H563.355ZM574.82 147.234V157H577.203V151.561C577.203 149.9 578.014 149.139 579.371 149.139C580.475 149.139 581.266 149.91 581.266 151.434V157H583.648V151.141C583.648 148.494 582.232 147.039 580.084 147.039C578.971 147.039 577.936 147.527 577.203 148.377V147.234H574.82ZM595.016 157V147.234H592.633V152.674C592.633 154.334 591.822 155.096 590.465 155.096C589.361 155.096 588.57 154.324 588.57 152.801V147.234H586.188V153.094C586.188 155.74 587.604 157.195 589.752 157.195C590.865 157.195 591.9 156.707 592.633 155.857V157H595.016ZM596.92 154.178C596.92 156.053 598.18 157.195 600.318 157.195C601.715 157.195 602.75 156.648 603.502 155.604L603.658 157H605.621V151.014C605.621 148.611 604.117 147.039 601.49 147.039C599.713 147.039 598.385 147.713 597.301 149.178L599.127 150.496C599.635 149.627 600.445 149.119 601.412 149.119C602.564 149.119 603.346 149.832 603.346 151.18H600.807C598.307 151.18 596.92 152.293 596.92 154.178ZM600.807 155.184C599.859 155.184 599.361 154.734 599.361 154.07C599.361 153.377 599.898 152.898 600.982 152.898H603.346C603.346 154.119 602.193 155.184 600.807 155.184ZM608.16 157H610.543V143.191H608.16V157ZM618.082 147.234V157H620.465V151.561C620.465 149.9 621.197 149.139 622.428 149.139C623.502 149.139 624.137 149.9 624.137 151.434V157H626.52V151.375C626.52 149.715 627.32 149.139 628.482 149.139C629.557 149.139 630.191 149.9 630.191 151.434V157H632.574V151.141C632.574 148.445 631.207 147.039 629.049 147.039C627.682 147.039 626.686 147.508 625.895 148.631C625.318 147.596 624.381 147.039 623.238 147.039C622.105 147.039 621.158 147.508 620.465 148.377V147.234H618.082ZM639.439 157.195C641.08 157.195 642.379 156.619 643.443 155.438L641.803 154.002C641.109 154.773 640.387 155.076 639.488 155.076C638.189 155.076 637.252 154.422 637.018 152.898H643.717C643.775 152.615 643.805 152.332 643.805 151.961C643.805 149.783 642.701 147.039 639.283 147.039C636.412 147.039 634.498 149.119 634.498 152.156C634.498 155.164 636.324 157.195 639.439 157.195ZM639.264 149.041C640.533 149.041 641.344 149.852 641.461 151.18H637.027C637.252 149.715 638.082 149.041 639.264 149.041ZM654.527 143.191H652.145V148.221C651.471 147.381 650.377 147.039 649.352 147.039C646.695 147.039 645.123 149.207 645.123 152.117C645.123 155.057 646.695 157.195 649.391 157.195C650.436 157.195 651.471 156.854 652.145 156.033V157H654.527V143.191ZM649.986 155.105C648.346 155.105 647.604 153.797 647.604 152.117C647.604 150.457 648.346 149.129 649.986 149.129C651.627 149.129 652.35 150.438 652.35 152.117C652.35 153.816 651.627 155.105 649.986 155.105ZM658.463 145.691C659.215 145.691 659.811 145.096 659.811 144.344C659.811 143.611 659.215 142.996 658.463 142.996C657.711 142.996 657.115 143.611 657.115 144.344C657.115 145.096 657.711 145.691 658.463 145.691ZM657.262 147.234V157H659.645V147.234H657.262ZM671.109 157V147.234H668.727V152.674C668.727 154.334 667.916 155.096 666.559 155.096C665.455 155.096 664.664 154.324 664.664 152.801V147.234H662.281V153.094C662.281 155.74 663.697 157.195 665.846 157.195C666.959 157.195 667.994 156.707 668.727 155.857V157H671.109ZM673.844 147.234V157H676.227V151.561C676.227 149.9 676.959 149.139 678.189 149.139C679.264 149.139 679.898 149.9 679.898 151.434V157H682.281V151.375C682.281 149.715 683.082 149.139 684.244 149.139C685.318 149.139 685.953 149.9 685.953 151.434V157H688.336V151.141C688.336 148.445 686.969 147.039 684.811 147.039C683.443 147.039 682.447 147.508 681.656 148.631C681.08 147.596 680.143 147.039 679 147.039C677.867 147.039 676.92 147.508 676.227 148.377V147.234H673.844ZM551.568 165.691C552.32 165.691 552.916 165.096 552.916 164.344C552.916 163.611 552.32 162.996 551.568 162.996C550.816 162.996 550.221 163.611 550.221 164.344C550.221 165.096 550.816 165.691 551.568 165.691ZM550.367 167.234V177H552.75V167.234H550.367ZM555.484 167.234V177H557.867V171.561C557.867 169.9 558.678 169.139 560.035 169.139C561.139 169.139 561.93 169.91 561.93 171.434V177H564.312V171.141C564.312 168.494 562.896 167.039 560.748 167.039C559.635 167.039 558.6 167.527 557.867 168.377V167.234H555.484ZM570.943 177.195C573.15 177.195 574.586 176.18 575.23 174.305L573.033 173.484C572.77 174.48 572.027 175.105 571.08 175.105C569.674 175.105 568.746 174.07 568.746 172.098C568.746 170.096 569.723 169.129 570.982 169.129C571.979 169.129 572.662 169.725 572.936 170.77L575.201 169.891C574.469 167.938 573.014 167.039 570.973 167.039C568.033 167.039 566.266 169.002 566.266 172.137C566.266 175.232 568.004 177.195 570.943 177.195ZM586.207 172.117C586.207 169.305 584.225 167.039 581.207 167.039C578.189 167.039 576.207 169.305 576.207 172.117C576.207 174.93 578.189 177.195 581.207 177.195C584.225 177.195 586.207 174.93 586.207 172.117ZM583.727 172.117C583.727 173.729 583.004 175.105 581.207 175.105C579.4 175.105 578.688 173.729 578.688 172.117C578.688 170.506 579.41 169.129 581.207 169.129C583.014 169.129 583.727 170.506 583.727 172.117ZM588.16 167.234V177H590.543V171.561C590.543 169.9 591.275 169.139 592.506 169.139C593.58 169.139 594.215 169.9 594.215 171.434V177H596.598V171.375C596.598 169.715 597.398 169.139 598.561 169.139C599.635 169.139 600.27 169.9 600.27 171.434V177H602.652V171.141C602.652 168.445 601.285 167.039 599.127 167.039C597.76 167.039 596.764 167.508 595.973 168.631C595.396 167.596 594.459 167.039 593.316 167.039C592.184 167.039 591.236 167.508 590.543 168.377V167.234H588.16ZM609.518 177.195C611.158 177.195 612.457 176.619 613.521 175.438L611.881 174.002C611.188 174.773 610.465 175.076 609.566 175.076C608.268 175.076 607.33 174.422 607.096 172.898H613.795C613.854 172.615 613.883 172.332 613.883 171.961C613.883 169.783 612.779 167.039 609.361 167.039C606.49 167.039 604.576 169.119 604.576 172.156C604.576 175.164 606.402 177.195 609.518 177.195ZM609.342 169.041C610.611 169.041 611.422 169.852 611.539 171.18H607.105C607.33 169.715 608.16 169.041 609.342 169.041ZM624.635 177.195C626.842 177.195 628.277 176.18 628.922 174.305L626.725 173.484C626.461 174.48 625.719 175.105 624.771 175.105C623.365 175.105 622.438 174.07 622.438 172.098C622.438 170.096 623.414 169.129 624.674 169.129C625.67 169.129 626.354 169.725 626.627 170.77L628.893 169.891C628.16 167.938 626.705 167.039 624.664 167.039C621.725 167.039 619.957 169.002 619.957 172.137C619.957 175.232 621.695 177.195 624.635 177.195ZM630.68 163.191V177H633.062V171.561C633.062 169.9 633.873 169.139 635.23 169.139C636.334 169.139 637.125 169.91 637.125 171.434V177H639.508V171.141C639.508 168.494 638.092 167.039 635.943 167.039C634.83 167.039 633.795 167.527 633.062 168.377V163.191H630.68ZM641.314 174.178C641.314 176.053 642.574 177.195 644.713 177.195C646.109 177.195 647.145 176.648 647.896 175.604L648.053 177H650.016V171.014C650.016 168.611 648.512 167.039 645.885 167.039C644.107 167.039 642.779 167.713 641.695 169.178L643.521 170.496C644.029 169.627 644.84 169.119 645.807 169.119C646.959 169.119 647.74 169.832 647.74 171.18H645.201C642.701 171.18 641.314 172.293 641.314 174.178ZM645.201 175.184C644.254 175.184 643.756 174.734 643.756 174.07C643.756 173.377 644.293 172.898 645.377 172.898H647.74C647.74 174.119 646.588 175.184 645.201 175.184ZM652.555 167.234V177H654.938V171.561C654.938 169.9 655.748 169.139 657.105 169.139C658.209 169.139 659 169.91 659 171.434V177H661.383V171.141C661.383 168.494 659.967 167.039 657.818 167.039C656.705 167.039 655.67 167.527 654.938 168.377V167.234H652.555ZM670.406 176.961C670.406 178.484 669.615 179.158 668.238 179.158C666.92 179.158 666.061 178.504 665.68 177.82L663.854 179.139C664.713 180.34 666.031 181.238 668.199 181.238C671.1 181.238 672.779 179.617 672.779 176.961L672.789 167.234H670.406V168.221C669.732 167.381 668.639 167.039 667.613 167.039C664.957 167.039 663.385 169.168 663.385 172.02C663.385 174.9 664.957 177 667.652 177C668.697 177 669.732 176.658 670.406 175.838V176.961ZM668.248 174.91C666.607 174.91 665.865 173.641 665.865 172.02C665.865 170.418 666.607 169.129 668.248 169.129C669.889 169.129 670.611 170.398 670.611 172.02C670.611 173.66 669.889 174.91 668.248 174.91ZM679.752 177.195C681.393 177.195 682.691 176.619 683.756 175.438L682.115 174.002C681.422 174.773 680.699 175.076 679.801 175.076C678.502 175.076 677.564 174.422 677.33 172.898H684.029C684.088 172.615 684.117 172.332 684.117 171.961C684.117 169.783 683.014 167.039 679.596 167.039C676.725 167.039 674.811 169.119 674.811 172.156C674.811 175.164 676.637 177.195 679.752 177.195ZM679.576 169.041C680.846 169.041 681.656 169.852 681.773 171.18H677.34C677.564 169.715 678.395 169.041 679.576 169.041Z" fill="#06757A"></path><path d="M40.7476 28.8594V41H43.3521V28.8594H47.8945V26.501H36.2051V28.8594H40.7476ZM55.1953 41.2051C59.0815 41.2051 60.7632 38.8877 60.7632 35.2373V26.501H58.1587V35.0527C58.1587 37.4316 57.564 38.7544 55.2261 38.7544C52.8984 38.7544 52.2729 37.4316 52.2729 35.0527V26.501H49.6787V35.3604C49.6787 38.9082 51.3091 41.2051 55.1953 41.2051ZM70.2275 41.2051C73.4678 41.2051 75.5186 39.8208 76.6567 37.0317L74.2471 36.0474C73.4678 37.9648 72.2271 38.7441 70.2788 38.7441C67.6436 38.7441 65.9414 37.0317 65.9414 33.689C65.9414 30.5615 67.6025 28.7568 70.2788 28.7568C72.3809 28.7568 73.5908 29.7002 74.2061 31.4229L76.6362 30.459C75.4878 27.7007 73.4473 26.2959 70.2788 26.2959C65.9824 26.2959 63.2344 29.2183 63.2344 33.7915C63.2344 38.4673 66.085 41.2051 70.2275 41.2051ZM83.1372 41.2051C86.1929 41.2051 88.2026 39.4722 88.2026 37.001C88.2026 32.0278 81.2095 33.0635 81.2095 30.1206C81.2095 29.1875 81.9888 28.5518 83.1064 28.5518C84.2139 28.5518 84.9009 29.1055 85.3726 30.1616L87.7822 29.5259C87.0132 27.4443 85.3521 26.2959 83.1577 26.2959C80.4917 26.2959 78.6255 27.9263 78.6255 30.2949C78.6255 35.3398 85.6392 34.3247 85.6392 37.2778C85.6392 38.2622 84.8599 38.9492 83.25 38.9492C81.7017 38.9492 80.502 38.1289 80.2456 36.2935L77.6616 36.9497C78.1025 39.5234 80.1636 41.2051 83.1372 41.2051ZM96.7646 41.2051C101.543 41.2051 103.737 37.6982 103.737 33.7505C103.737 29.8027 101.543 26.2959 96.7646 26.2959C91.9863 26.2959 89.792 29.8027 89.792 33.7505C89.792 37.6982 91.9863 41.2051 96.7646 41.2051ZM96.7646 38.8467C93.6475 38.8467 92.499 36.4575 92.499 33.7505C92.499 31.0435 93.6475 28.6543 96.7646 28.6543C99.8818 28.6543 101.03 31.0435 101.03 33.7505C101.03 36.4575 99.8818 38.8467 96.7646 38.8467ZM106.506 26.501V41H109.008V30.8384L115.078 41H117.683V26.501H115.181V36.6523L109.121 26.501H106.506ZM126.419 26.501V41H128.921V30.1514L132.561 41H134.981L138.621 30.1514V41H141.123V26.501H137.514L133.771 37.8931L130.028 26.501H126.419ZM144.814 26.501V41H154.453V38.5903H147.419V34.8477H153.971V32.4893H147.419V28.8594H154.453V26.501H144.814ZM160.472 28.8594V41H163.077V28.8594H167.619V26.501H155.93V28.8594H160.472ZM179.77 30.6846C179.77 28.1519 177.812 26.501 174.879 26.501H169.67V41H172.274V34.8784H174.151L177.453 41H180.437L176.684 34.6016C178.56 34.0171 179.77 32.5508 179.77 30.6846ZM174.694 32.561H172.295V28.8594H174.694C176.243 28.8594 177.104 29.5464 177.104 30.7051C177.104 31.8638 176.263 32.561 174.694 32.561ZM188.64 41.2051C193.418 41.2051 195.612 37.6982 195.612 33.7505C195.612 29.8027 193.418 26.2959 188.64 26.2959C183.861 26.2959 181.667 29.8027 181.667 33.7505C181.667 37.6982 183.861 41.2051 188.64 41.2051ZM188.64 38.8467C185.522 38.8467 184.374 36.4575 184.374 33.7505C184.374 31.0435 185.522 28.6543 188.64 28.6543C191.757 28.6543 192.905 31.0435 192.905 33.7505C192.905 36.4575 191.757 38.8467 188.64 38.8467ZM209.342 26.501H207.456L201.683 41H204.431L205.63 37.8521H211.116L212.306 41H215.115L209.342 26.501ZM208.368 30.1821L210.368 35.627H206.389L208.368 30.1821ZM227.164 30.6846C227.164 28.1519 225.205 26.501 222.272 26.501H217.063V41H219.668V34.8784H221.544L224.846 41H227.83L224.077 34.6016C225.954 34.0171 227.164 32.5508 227.164 30.6846ZM222.088 32.561H219.688V28.8594H222.088C223.636 28.8594 224.498 29.5464 224.498 30.7051C224.498 31.8638 223.657 32.561 222.088 32.561ZM230.045 26.501V41H239.684V38.5903H232.649V34.8477H239.202V32.4893H232.649V28.8594H239.684V26.501H230.045ZM248.717 26.501H246.831L241.058 41H243.806L245.005 37.8521H250.491L251.681 41H254.49L248.717 26.501ZM247.743 30.1821L249.743 35.627H245.764L247.743 30.1821ZM259.761 26.501L265.585 41H267.513L273.265 26.501H270.435L266.59 36.8267L262.642 26.501H259.761ZM275.244 26.501V41H284.883V38.5903H277.849V34.8477H284.401V32.4893H277.849V28.8594H284.883V26.501H275.244ZM288 26.501V41H290.502V30.8384L296.572 41H299.177V26.501H296.675V36.6523L290.615 26.501H288ZM305.77 28.8594V41H308.375V28.8594H312.917V26.501H301.228V28.8594H305.77ZM320.218 41.2051C324.104 41.2051 325.786 38.8877 325.786 35.2373V26.501H323.181V35.0527C323.181 37.4316 322.586 38.7544 320.249 38.7544C317.921 38.7544 317.295 37.4316 317.295 35.0527V26.501H314.701V35.3604C314.701 38.9082 316.332 41.2051 320.218 41.2051ZM339.28 30.6846C339.28 28.1519 337.321 26.501 334.389 26.501H329.18V41H331.784V34.8784H333.661L336.962 41H339.946L336.193 34.6016C338.07 34.0171 339.28 32.5508 339.28 30.6846ZM334.204 32.561H331.805V28.8594H334.204C335.752 28.8594 336.614 29.5464 336.614 30.7051C336.614 31.8638 335.773 32.561 334.204 32.561ZM342.161 26.501V41H351.8V38.5903H344.766V34.8477H351.318V32.4893H344.766V28.8594H351.8V26.501H342.161ZM364.053 41.2051C367.109 41.2051 369.119 39.4722 369.119 37.001C369.119 32.0278 362.125 33.0635 362.125 30.1206C362.125 29.1875 362.905 28.5518 364.022 28.5518C365.13 28.5518 365.817 29.1055 366.289 30.1616L368.698 29.5259C367.929 27.4443 366.268 26.2959 364.074 26.2959C361.408 26.2959 359.542 27.9263 359.542 30.2949C359.542 35.3398 366.555 34.3247 366.555 37.2778C366.555 38.2622 365.776 38.9492 364.166 38.9492C362.618 38.9492 361.418 38.1289 361.162 36.2935L358.578 36.9497C359.019 39.5234 361.08 41.2051 364.053 41.2051ZM371.631 26.501V41H374.133V30.8384L380.203 41H382.808V26.501H380.306V36.6523L374.246 26.501H371.631ZM392.416 26.501H390.529L384.756 41H387.504L388.704 37.8521H394.189L395.379 41H398.188L392.416 26.501ZM391.441 30.1821L393.441 35.627H389.462L391.441 30.1821ZM400.137 26.501V41H402.741V35.1245H404.669C407.704 35.1245 409.878 33.5967 409.878 30.8281C409.878 28.0903 407.725 26.501 404.792 26.501H400.137ZM404.7 32.7251H402.741V28.9004H404.7C406.412 28.9004 407.191 29.6284 407.191 30.8589C407.191 32.0894 406.433 32.7251 404.7 32.7251ZM416.184 41.2051C419.24 41.2051 421.25 39.4722 421.25 37.001C421.25 32.0278 414.256 33.0635 414.256 30.1206C414.256 29.1875 415.036 28.5518 416.153 28.5518C417.261 28.5518 417.948 29.1055 418.419 30.1616L420.829 29.5259C420.06 27.4443 418.399 26.2959 416.205 26.2959C413.539 26.2959 411.672 27.9263 411.672 30.2949C411.672 35.3398 418.686 34.3247 418.686 37.2778C418.686 38.2622 417.907 38.9492 416.297 38.9492C414.749 38.9492 413.549 38.1289 413.292 36.2935L410.708 36.9497C411.149 39.5234 413.21 41.2051 416.184 41.2051ZM423.762 26.501V41H426.366V34.8887H432.713V41H435.318V26.501H432.713V32.5303H426.366V26.501H423.762ZM445.069 41.2051C449.848 41.2051 452.042 37.6982 452.042 33.7505C452.042 29.8027 449.848 26.2959 445.069 26.2959C440.291 26.2959 438.097 29.8027 438.097 33.7505C438.097 37.6982 440.291 41.2051 445.069 41.2051ZM445.069 38.8467C441.952 38.8467 440.804 36.4575 440.804 33.7505C440.804 31.0435 441.952 28.6543 445.069 28.6543C448.187 28.6543 449.335 31.0435 449.335 33.7505C449.335 36.4575 448.187 38.8467 445.069 38.8467ZM457.507 28.8594V41H460.112V28.8594H464.654V26.501H452.965V28.8594H457.507Z" fill="#06757A"></path></svg> 