<svg width="4.02in" height="384" viewBox="0 0 2897 2880" xmlns="http://www.w3.org/2000/svg" xmlns:xlink="http://www.w3.org/1999/xlink"><path fill="#fff" d="M0 0h2897v2880H0z"/><defs><path id="a" d="M2469.87 1817.46l-3.07.27-4.71.64-7.88.63-8.51.81-4.8.64-4.98.54-5.07.36h-4.25l-2.54.37-2.17.27-8.24.9-8.78.91-5.16.27-3.44.45-27.97 2.45-10.5 1.08-20.37 1.72-15.12 1.27-11.32.81-1.81-10.77-1.36-10.5-1.81-15.75-5.25-42.46-80.66 11.23-.18.18-.37.18-1.08.27h-.36l-.18-.09-.19-.27-4.98.99-128.01 15.94-8.33.9-8.05 1.36-13.4 2.44-6.61 1.45-9.42.73-3.71.27-3.17.27-3.62.81-.72.28-4.98 2.17v1.45l-.72.09-.46-.27-1.45-.18h-3.89l-16.57.27-13.48 1.45-18.84 3.53-11.04 2.71-1.9.18-8.24.64-6.61-.37-.09 2v2.35l-.09.63-.63 1.63-1.72 1.09-1.36 1-.73.9-.99.54h-.36l-1.18-.36-1.63-1.72-.81-.99-1.36-1.27-1.09-.82-1.72-.81-2.35-.54-2.09-.91-.45-.18-1.17-.54-1.63-.18-.46.09-1.54.72-.63.36-.27.18-1.45.46-1.63-.28-2.72-1.35-2.35.36-8.6-1.45-1.54-.27-1.54-.18-1.17-.27-5.07-.82-5.98.09-35.4 3.26-.72-.09-.82-.45-.36-.36-2.44-2.81-1.81-2.72-.37-.81-.27-1.18-.45-2.35-.09-1.18.18-.81.54-1.36 1.72-3.99.73-2.26.45-1.81.18-.9v-6.43l-11.77 4.34-8.14 1.72-8.7.27-20.64.82-.99-.54-.91-.18-2.62.18-5.89.63-5.88.72-39.02 4.35-3.53.36-2.81.36-34.67 3.81-2.08-20.92-3.26 3.08-1 .45-37.3 9.33h-.99l-9.51-3.08-1.18-.36-15.66-2.54-3.44-.54-.45-.09h-.73l-1.17.18-1 .45-.54.46-7.7-2.09-3.98-1.17-4.98-1.27-5.52-1.72-4.44-1.18-4.8-1.35-3.44-.91-.9-.27-4.98-1.09-4.17-.81-7.96-2.08-20.37-5.8-33.59-8.87-1.99-.54-3.08-.91-4.34-1.27-8.97-2.35-10.77-2.99-44.09-11.86-6.43-1.45-3.26 1.36-3.16-.63-3.99-.91h-1.99l-2.53.09-6.43.64-9.05.72-8.97.82-9.05.81-8.87.82-9.15.81-7.69.73-2.17.18-9.96.54-7.52 1.54-8.6 1.63-.27-2.9-9.05.73.18 2.53-9.33.18-8.32 2.26-9.42-.72-.09-1.72-1.27-14.48-.45-4.98-.27-7.7-1-12.85-.27-1.27-1.45-10.77-1.17-12.77-1.18-12.76-1.27-12.59-1.18-12.76-.9-9.14-.27-3.63-.46-5.07-.72-8.87-1.63-18.01-.63-7.06-.64-7.16-.36-4.25-.63-6.97-.46-5.25-.27-3.35 8.51-3.71-1.54-2.09-4.07-5.97-.9-1.27-.19-.18-.45-.63-.36-.27-.27-.18-.46-.1-.54.1-.54.18-.27-1.72-.09-.73-.18-.54.09-.54v-1.09l.09-.63.27-.46.27-.45.36-.27.27-.18.55-.36 6.33-.91 4.26-.45-4.26-6.07-6.42-9.05-6.25-8.69 9.96-9.05 2.89 4.16.82-1.09.81-1.08.73-1.36 2.44-5.7 1.36-3.44.73-2 3.8-13.03.99-3.17 1.81-5.88.73-3.08-6.16.81h-4.52l-1.91 5.89-1.63 5.34-1.35 3.62-.55 1.54-.9 1.9-.73 1.27-.54.9-.9 1.27-1 1.18-1.18 1.35-.9.82-1 .9-9.96 8.88-5.88-8.33-10.05 8.78-4.62-5.52-.72-.91-1.27-1.27.45-.36.28-.81 1.35-1.18 8.24-7.15 1.72-1.72.73-1.09.54-1.18.27-.81.18-.54v-1.27l-.36-5.98 3.26-.27 6.97-.36-.54-1.63-.18-.99.36-3.08-.09-1.09-.18-.36-.28-.45-.45-.37-.9-.81-1.45-1.36-2.08-1.18-1.36-.54-1.27-.72-1.27-1.27-.99-.63-2.63-1.54-2.35-1.81-1.54-.91-5.25-3.44-1.9-1.18-10.5-6.6-8.24-5.35-44.64-37.93 3.35-6.33 27.8-56.49 2.26-4.35 1.72-3.35 3.8-16.57 7.88-14.93 8.06-16.93 2.44-4.17 3.44-5.61 3.62-5.88 4.44-7.25 2.71-4.34 3.08 3.08 2.27 2.44 6.6 6.79 6.61 6.79 1.45 1.36 1.45 1.17 1.45 1.18 1.54 1 1.54.81 1.54.82 1.9.72 2.35.82.91.27.81.36.82.36.63.27.72.37.64.36.81.45.82.54.81.64.64.54.54.45.27.27.82.73.54.36.54.09.91 1 1.08 1.08.27.27 1.91 1.91 1.99 1.99 6.33 6.24 1.36 1.36 2.36 2.45.9.81.55.45.9.18.82.28 2.98 2.71 2.54 1.54 1.9.36 1.81-.09.81-.45.91-.81 1.09-2.45 1.63-4.34.09-.28.54-1.44.45-1.27.73-1.27.27-.27.81-1 2.08-1.35 4.35-2.63 1.72-.27h.72l.28.09.72.18.54.36.28.36.27.46.27 1.26.09 1.27-.27 3.08.09.72 1.27 2.45 1.17 1.18 1.18 1.08.81.64 1 .27.72.09 1.09-.27 2.54-1.09 1.72-1.18.72-.63.54-1.27.73-1.27.18-1.17-.09-1.36-.18-.54-.82-1.54-.18-.27-.36-.73-.27-.99.09-.46.09-.45.27-.45.36-.46.45-.27 2-.99.72-.27 1.45-.09 1.54.18 1.81.09 1.45-.37.45-.36.45-.63 1.18-3.08.9-1.18.82-.63 1.18-.45.63-.09 1.54.27 1.27.63 1.08.55.55.63.18.54.18 1.27.45 4.16h.63l4.26.55 1.45.09.99-.09.82-.36.72-.64 2.63-3.44 1.08-.54 1.82-.27.99-.09 1.09.09 1.36.45 1.17.54 1 .73 1.72 1.54 1.81 1.08 1.18.45.36.1h1.63l1.08-.1 1-.36 2.53-1.72 2.18-1.36 3.8-2.17 1.18-.45 1.81-.18 2.08.45 2.08.09.82-.27 1.81-.91 7.87-8.6 1.99-1.44 6.61-2.63 1.36-1 1.9-1.99 1.81-1.9 1.81-1.27 1.54-.63 1.09-.36 1.36-.82.9-.81 2.72-2.9 1.36-1.08 1.35-.37 1.54-.36 1.72-1.27.28-.18 1.08-1.08.64-.73 1.08-1.72 2.81-2.44 1.63-1.18 1.08-.72.55-.46.27-.72.36-1 .18-.81.09-.54v-.82l-.27-.72-.36-1.18-.45-.72-.37-.82v-.72l.19-.73.27-.63.72-.91.82-1.26.72-1.36.81-1.99.82-1.9 1.18-2.72.54-1.27.54-1.35.37-.73.09-.27.18-.72v-.73l-.09-1v-.45l-.09-.63v-.54l.18-.64.18-.63.27-.55 3.44-4.52.81-.91.55-.27.99-.54 1.36-.64.91-.45.63-.36 2.08-1 .91-.63 1.08-.9 1.09-.91.72-.81.19-.28.36-.45.54-.9.54-.82.28-.63.63-1.27.72-1.45.73-1.09.54-.9.73-.91.81-.99.82-.73.99-.63.82-.45 1.08-.55 1.18-.45 1.54-.45 2.26-.45 1.9-.27 2.27-.1 7.15-.81 2.17-.36 1.81-.27 1.36-.37.9-.18.91-.36.81-.36 1-.36.91-.27.63-.19.63-.18h1.45l.73.09h1.44l.73-.09.99-.18 1-.27.82-.09.72-.09.9-.18.91-.27.91-.18 1.08-.19.91-.27.63-.09.82-.27.63-.27 2.35-1 .73-.27.72-.27.64-.18.99-.36.63-.18.37-.19 2.71-.9 1.27-.36.82-.27.99-.28.91-.27 1.17-.27 1.36-.36 3.26-.82 3.89-.81 3.08-.72 3.8-.55 2.99-.45 3.26-.54 1.99-.18 1.99-.1h2.18l2.62.19 1.72.27 1.72.45 4.08.81 6.15.91 9.15 1 10.41 1.08 6.88.82 7.15.54 7.24.36 5.52.18 1.45.09h1.81l.91-.09 1.08-.27.91-.27.91-.18.72-.09.54-.09 1.36.18 1.36.36 2.53.91.91.09h.81l1.18-.37 1.36-.63 1.45-.9 4.7-4.08.91-.54.81-.27h.55l.63.27 1.72.81 6.16-.09 15.93-.36.73-.9 2.08-3.53 1.27-1.54 1.35-1.45 1.36-1.09 3.71-1.72.46-.27.18-.18.99-.73 1.63-1.53 1.45-2 1.45-2.26.45-1 5.07-11.04 2.08-4.07 2.18-3.99 2.71-4.43 1-1.99.63-1.18 1.18-1.72.72-.73.73-.54.18-.09 2.17-1.27 1.54-1.35.45-.73.55-1.27.27-1.35.45-6.16.27-1.54.64-1.09 1.08-1.72.82-.72.63-.18 2.08-.18h.55l4.16 1.17 3.08.64 1.27.27 2.17.18 2.08-.09.54-.09.82-.18 1.27-.45 2.62-1.27 8.06-4.35 5.34-3.44 7.33-4.16 4.17-1.99 8.24-4.17 2.89-1.45 8.51-2.17 9.33-2.99 3.62-.81 1.18-.18 3.8-.63 1.27-.55 5.07-2.71 1.44-.64.73-.36 1.72-.18 5.07.81 2.08.19 3.17-.46 2.44-.81.73-.18 10.59-5.07 8.6-4.26 2.26-1.17 3.17-1.91 2.36-1.72 1.08-.81 6.25-5.25 2.71-1.81 3.35-1.81 2.54-1.18.27-.09 2.72-1.45 2.44-1.45 1.9-.63h1.27l.63.27.91.54.81.73.73 1.36 1.08 3.26.64 2.8.9 5.52.46 1.81.45 1 .54 1.18.73 1.08 1.53 1.18 2 .82 1.08.09 1.54-.28 9.6-2.17 4.8-.72 2.89-.91 1.27-.54 2.45-1.54 1.17-.45.82-.18 2.35-.18 2.26-.28 1.54-.54 2.27-1.54 14.84-5.34.73-.18v-.82l.09-.27.27-.45.45-.45.36-.18-.72-7.25-7.6-77.31-3.81-42.64-5.34-58.93-1.72-16.75-3.62-35.21-.09-1.09-.09-.91-.09-1.17-.45-4.44-.46-4.25-.63-6.07-.36-2.72 14.85-.81 5.7-.36h.45l4.98-.27 84.38-7.25 77.49-6.97 84.19-6.79 6.43-.54 8.42-1.36 60.2-9.23 54.05-6.97 68.81-9.06 4.79-.45 85.47-7.87 47.16-4.35 3.17-.27 2.81-.27 1.08 1.45 1.27 1.72.36.81.09 1.18-.09.36-.27.36-.99.36-1.18.09-.82.37-1.53 1.54-2.27 1.9.27 2.89.27 1.9.28.46.27.36.63.27.91.18.9-.09 4.08-.72 2.17-.46 2.08-1.17 4.62-3.62 1.36-.91 2.26-1.09 1.54-.36 3.26-.36 16.93-1.63 20.1-2.17 20.36-1-2.17 3.9-2.53 4.7-1.27 1.81-1.09 1.36-1.35 1.72-2.18 2.36-5.07 4.43-7.96 5.98-8.24 6.15-4.53 3.26-2.62 1.63-2.99 1.9-2.36 1.09-2.8 1.36-10.78 4.79-3.44 1.72-3.16 1.45-2.81 1.72-10.95 6.7-2.63 1.54-1.9 1.18-1.9 1.54-1.45 1.17-1.27 1.27-1.63 1.9-5.16 6.79-5.34 7.15-5.88 7.7-1.63 2.08-3.63 4.07-8.6 8.7-1.72 1.81-.99.99-1.18 1.45-1.08 1.45-1.09 1.63-.91 1.63-.81 1.72-.73 1.72-.63 1.9-.54 1.81-.36 1.9-.19 1-.18.99-.18 1.27-.09 1-.09.9v2.35l.09 2.09.18 4.34.82 8.15.72 11.04.91 10.87.09.36.45 5.79.36 3.62.36 3.26v.37l1.18 12.76 2.17 21.37 3.63 36.66 1.35-1 1-.72 1-.91 1.35-1.44.82-.91 1.27-1.27 1.17-1.08 1.36-1.27 3.8-3.8 2.99-3.17 6.52-6.7.81-.82 1.36-1.44.82-.73.9-.72.82-.64 6.24-4.34 3.9-2.63 1.08-.81.91-.64 1.36-1.08 1.26-1 1.18-.99 1.09-1.09 1.08-1.09 1.18-1.17 7.24-7.25 1.72-1.9 1.36-1.54.81-.99.91-1.09 3.44-4.52 1.99-2.63 2.17-2.53 3.26-4.44 9.24-8.96 1.17-.82 3.35-2.08 1.72-1.54 2.54-2.53.81-.91.64-1.18 1.72-5.52.9-1.45 2.36-2.44 8.96-8.69 8.87-8.96 8.87-9.06 7.34-7.24 1.54-.99.9-.28 10.86-1.35 4.08-.28.99.1.73.18.99.54 1.36 1 1.99 1.62 1.18 1.18.82 1 1.35 2.35 1.72 2.17.64.64.72.36 1.45.45.91-.09.81-.18 1.36-.72 1.72-1.54.63-.82 1.09-2.17 1.9-6.79 1.18-3.8.72-1.9 1.27-2.54 2.8-5.07.91-1.17 1.27-1.63 1.08-.82 5.71-4.07 1.36-.82 1.26-.54 6.34-1.54 3.08-.72 1.63-1 .27-.36 2.08-1.99 7.61-6.07 10.68-8.96 10.77-8.78 6.43-5.52 1.81-1.72 1.18-1.36 1.9-2.45 5.97-8.87 8.6-11.31 6.79-8.79 1.36-1.63 1.45-1.35 1.63-1 .81-.36 9.51 89.98 20.55 191.74 8.33 77.95 1 11.32.63 6.88 5.7 61.83 11.59 119.32.82 8.87 1.53 26.52-.45 9.42-8.06.9-5.7.55-2.53.27-.46.09-19.28 2.08-20.91 2.26-7.79.82-2.71.36-1.81.18-51.88 5.7-8.69 1-8.6 1-1.81.09 1.27 9.14 2.71 27.7.82 7.61 2.35 21.9 1.72 18.65 2.99 31.69.63 6.97 2.08 19.55.37 3.44 1.81 16.84 3.08 29.06 1.72 15.84 4.79 2.81.82 1 1.09.09.54.18 1.08.99.73.82.27.09.27.09.64-.18 1.72.18.81-.54.27.09 1.36.72 1.27.54 2.62 1.54.82.46.72-.18.27-.19 3.62-.36 5.53-.9.9-.37.36-.09.91.19h1.9l.91-.19.72-.18 1.18-.18 1.9.18.9-.27.82-.63.36-.09h.36l.91.45 1.54 1.09.45.18.54.09.27-.09.73-.36.18.09.45.63.27.18 3.9-.72 1.72-.18.72.18.54-.28.73-.45 2.35-.18 2.54-.72 2.35-1.27 3.62-2.08 5.89-2.45.54-.54.63-.18.82.09.36-.09.45-.45.28-.46v-.81l-1-3.53-.45-3.44v-1.36l.18-.36 1.54-.36.72-.46.73-.09 1.17.09h1.09l.36-.18.63-.36.91-.09.45.09h.82l1.36-.36.9.18 1.18-.18 1.17-.36 1.72-.1 2.27-.36 1.27.09 1.53-.09.73-.27.81-.09 1.09.09 5.43-.63 1.54-.55 1.09-.09.99.09 2.36-.27.45-.18.9-.09.73.36h.54l2.08-.63 4.98-.36 3.62-.55 10.96-.81.72-.27.64-.45.36-.1.36.1 1.81 1.08 1.45.54 1.99.55 3.99 2.17.63.45 1.18 1.18.63.45h.63l3.72 34.77 4.34 43.81 1.99 17.84 1.72 17.11-2.26-.28-.45-.27-3.62-3.07-13.22-12.41-39.84-36.21-7.06-6.61-4.52-3.89-6.79-6.34-1.36-.9-1.36-.73-2.08-.45h-.36l-69.17 7.88 9.14 80.84-27.43 3.35-113.7 13.76-.28-2.54-2.35-19.82-2.08-16.93-1.09-8.69-4.43-35.04-5.07.55-11.41 1.26-22.72 2.54-11.32 1.36-1.45.18.09 1.81.45 5.25.73 8.69 1.17 11.59 1.36 10.68.46 5.34 2.53 20.91 1.54 10.41v.37l-.36.9-.36.55-16.48 13.57-.73.73-3.16 4.62-.37.81-.27.72-.81 3.72-.18 2.08.09.9.27 1.27 2.08 3.53 2.35 6.7 1 8.06 2.26 21.91 1.54 10.41.64 2.35 2.71 7.24 1.09 2.09 1.08 1.81-2.71.36-11.68 1.17-5.16.73-33.5 3.71z" stroke-linejoin="round"/></defs><use xlink:href="#a" fill="#9dc8ca" stroke="#9dd7f0" stroke-width="5.76"/><defs><path id="b" d="M1374.45 2837.09l-2.27.27-1.54.09-1.54-.27-.99-.45-4.89.27-2.81-2.17-.81-.09-7.33.72-21.28 1.9-66.18 8.24-48.98 6.25-48.16-96.51-2.8-1.9-.09-.09-1.27-2.81-1.45-2.98-4.44-7.52-1.63-2.26-.36-.73-.27-1.26-.09-1.09-.09-.81-1.27-2.81-1.99-3.89-1.63-1.99-1.27-2.36-1.81-4.8-1.08-3.53-1.91-4.52-2.53-5.44-.72-2.44-3.81-9.69-.54-.9-.45-1-2.63-3.89-.9-2.26-3.81-12.13-1.17-2.54-1.72-3.08-3.53-8.24-3.44-6.97-1-2.44.27-.18 1 .09.09-.36v-1l-.45-1.9-.82-2.44-1.27-2.99-1.81-4.08-.27-1.08v-1.63l.45-1.9.37-.82.63-.99.63-.82.73-.63 1.08-.63.55-.19.54-.09.63.18.46.46.45.9.81.73.37.9 1.08 1.18.27.45.28 1.18.72 1.45.18.45 6.7 2.81 15.3-.46 31.51 4.62 22.63 3.35 3.62 7.51 13.58 11.05 4.71 17.56 6.79 6.7-.09-.54.18-1.63.45-1.72.45-.91 1-1.63 2.17-2.35 1-1.27 1.35 1.18.91.72.91.55.99.54.91.36.99.36.91.18 1.08.09 1.18.1-.9-10.96-1.81-20.64-.46-4.98-.72-7.87-1.81-22.27-.27-2.99-2.18-25.26-1.45-17.29-.09-.63-.63-7.34-2.26-25.26-1.45-16.92 2.26-.19 3.89-.63 16.3-2.53 12.67-2 19.38-3.07 1.9-.27 1.81-.37 1.54-.27 1.45-.18 1.45-.18 1.81-.18 1.9-.18 3.44-.36 4.52-.46 6.43-.45 1.63-.18 3.62-.27 8.51-.64 7.79-.63 6.16-.36 3.44-.27 6.51-.55 6.79-.45 13.49-1 1.18 15.3.54 6.07.18 4.44 3.08 37.29.36 5.44v1.26l.55 11.86 6.61-.36 6.7-.63 10.77-.73 32.32-2.35 9.41-.55 30.69-2.53 6.61-.54 2.27-.09 10.13-.82 7.7-.63 3.71-.18 12.68-1 4.79-.45 7.07-.73 3.53-.27 5.43-.54 1.72-.09 16.11-1.54 1.72-.09.37 2.99.99 9.05h-.27l-1.36-.27-1.45-.55-2.53-.81h-.55l-.54.09-.72.54-.55.73-.45 6.79-.36 2.71-1.18 1.72-.99 1.18-.82.82-.81 1.35-.36.27-.1.64.46 4.8 1.17 15.21-.99-.1h-1.45l-2.81.1-3.17.36-1.44.18-.28.09-.18.18-.09.36v.36l.27 3.26.46 5.16 6.15-.45.18-.09h.19l.18-.18 3.89 1.72 2.9 1.18 7.15 1.44 6.15 1.09 19.11-2.35-.09-1.72-.09-.73-.55-4.52-.54-5.71-.09-8.23-.27-2.18 2.17-.09 6.97-.72.27-.27.36-.55.1-.99-10.69-5.16-3.44-27.34-.27-2.9 1.54.18 18.02-.9-2.09-14.31-2.26-24.44-.18-1.45-.91-8.6-3.71-33.95 6.07-.36 4.07-.36 1.18-.09 5.97-.45 5.71-.64.72.09.73.27 1.99 1 1.9-2.35.36-2.63-1-3.35-.72-4.89-.36-2.8-.27-1.91-.55-3.53-.18-1.35-.27-1.45-.18-1.36-.18-1.09-.36-1.54-.18-.81-.19-.82-.27-.81-.18-.81-.27-.91-.27-.81-.27-.73-.37-.81-.36-.82-.36-.9-.27-.64-.45-.81-.28-.64-.36-.63-.36-.63-.45-.73-.36-.72-.55-.73-.54-.72-.45-.63-.46-.64-.36-.45-.45-.54-.91-1.09-1.17-1.36-1.27-1.45-1.27-1.35-1.45-1.63-1.45-1.63-1.26-1.45-1.27-1.45-.63-.63-.64-.82-.54-.54-.63-.82-.55-.63-.54-.63-.45-.64-.37-.54-.36-.54-.36-.64-.36-.54-.36-.63-.37-.73-.27-.81-.27-.73-.27-.72-.27-.82-.27-.81-.19-.73-.18-.81-.18-.91-.09-.81-.09-.63-.09-.82-.18-1.36-.18-1.45-.73-5.34-2.89.27-3.99.37-11.95.99-13.49 1.27-10.86.91-.36-3.44-2.35-22.73v-2.26l.27-3.26 35.85-2.17-4.89-50.97 12.76-1.09 4.8-.36 3.08-.27.45-.18.36-.18 1.82-1.72 1.99.54.54.54 1.27.37.54-.28 2.35 1.63.91-.63.54-.36.82-.55.63-.27.73-.27.99-.09 1.36-.09 3.17-.27 9.32-.73 1.63-.09 11.77-.99.54-.09 8.51-.73-1.44-15.84-2.09-21.45-2.08-21.37-.81-8.78-1.45-14.12-.36-20.73-.37-.73-6.88-5.43-2.53-3.26-1.54-1.27-.27-.27-1.18-.9-7.69-4.8-4.71-3.71-9.96-8.06-1.27-1-6.06-4.7-1.18-.91-.81-.63-5.8-4.62-9.23-7.15-9.96-7.97-10.87-8.69-1.9-1.36-4.52-3.8-1.54-1.27-1.27-.9-1.72-1.45-6.06-4.71-4.98-4.43-4.89-5.25-5.62-7.16-3.16-4.43v.63l-.46 1.18-.18 1.45-.09.72-.09 1.63v1.63l-.18.63.18 1.72.18 2.9-.99-.18-1.72-.54-1.63-.46-1.63-.18-.37.09-.9.64-3.17.45-.63-.09-.64-.27h-.36l-.45.18-1.63.18-.45-.09-.37-.18-.27-.36-.36-1.18-.45-.82-.82-1.17-.54-.55-2.26-.9-.37-.18-1.17-1.18-1.81-1.27-1.9-.99-.73-.64-3.26-2.71-.54-.54-1-1.82-.81-.81-.18.45-1.72.27-22.27-12.94-9.06-5.25-32.13-18.65-21.1 5.97-64.37 45.18-13.58 9.59-44.9 14.04-15.12 4.7-4.98 1.54-17.74 5.52-1.63.55-12.86 3.98-15.12 4.8-3.89 1.18-1.99.63-1.09-13.49.55-.27.45-.36.27-.36.27-.46.09-.45-.09-1v-.72l.09-.91.27-.72.37-.72.36-.64.45-.54.45-.72.55-.73.63-.72.54-.55.55-.54.54-.54.45-.37.64-.45.72-.45 4.71-3.26.63-.36 2.81-2.26 2.62-2 .82-.54.81-.54.73-.36.81-.28.64-.09h.72l.64.18.72.28.72.27.64.45.54.63 1 1 .72.9.54.64.46.72.45.82.36.81.36 1.36.37 1.27.27.99.54.27.63-.36.73-1.17.99-1.91.46-1.26.63-1.9.63-3.17 2-7.15.09-.55.27-1.36.63-.99.45-.82-.09-.45-.18-.36v-.36l.18-.18.37-.28.63-.54 1.09-1.99.9-.91 3.26-4.34 1.18-1.99.72-1.18 3.44-4.8 1-1.17 1.99-1.63-4.89-7.43-.27-3.53-.18-3.26-.36-2.89-.55-5.25-.63-6.61-.82-8.97-1.99.1-2.99.18-12.67.72-12.95.72-8.51.46-1.35.09-13.13.81-1.27-13.4-1.45-17.47-.81-9.59 3.26-.28 12.04-1.08 4.71-.36 4.34-.46 1.72-.18-1.54-2.89-.72-1.82-.82-1.99-.63-2.26-.81-4.89-.19-1.72-2.26-26.07-1.81-20.55-.27-5.52-1.54-14.76-1.36-14.85-.18-1.99-1.09-17.38-1.81-15.84-.09-.36-.81-14.04-1.72-14.48-1.27-14.76-1.45-13.85-1.99-21.72-1.54-17.21-.63-4.79-.45-4.26-.28-5.16 1.18-.09 1.54-.09 4.25-.18 5.16-13.67 2.36-6.25 3.53-5.07.27-.54.18-.91.64-6.06.99-3.89-.54-6.25 6.25-.63 9.23-.55-.63-9.68-1.91-20.82-.9-10.14 3.98-.37 3.62 5.71 9.15 13.94 2.62 3.08 1.9 2.08 1.63 2.71.46 1.18.63 2.45.18 1.9-.09 2.17-.36 1.81-.54 1.72-.28.54-1.35 2.72.72-.09 8.69-.54 8.78-1 4.08-.36 5.16-.46-.64-2.26 8.97-.45.18 1.9 8.96-.81-.18-1.36 8.96-1.18 9.42.72 8.32-2.26 9.33-.18-.18-2.53 9.05-.73.27 2.9 8.6-1.63 7.52-1.54 9.96-.54 2.17-.18 7.69-.73 9.15-.81 8.87-.82 9.05-.81 8.97-.82 9.05-.72 6.43-.64 2.53-.09h1.99l3.99.91 3.16.63 3.26-1.36 6.43 1.45 44.09 11.86 10.77 2.99 8.97 2.35 4.34 1.27 3.08.91 1.99.54 33.59 8.87 20.37 5.8 7.96 2.08 4.17.81 4.98 1.09.9.27 3.44.91 4.8 1.35 4.44 1.18 5.52 1.72 4.98 1.27 3.98 1.17 7.7 2.09.54-.46 1-.45 1.17-.18h.73l.45.09 3.44.54 15.66 2.54 1.18.36 9.51 3.08h.99l37.3-9.33 1-.45 3.26-3.08 2.08 20.92 34.67-3.81 2.81-.36 3.53-.36 39.02-4.35 5.88-.72 5.89-.63 2.62-.18.91.18.99.54 20.64-.82 8.7-.27 8.14-1.72 11.77-4.34v6.43l-.18.9-.45 1.81-.73 2.26-1.72 3.99-.54 1.36-.18.81.09 1.18.45 2.35.27 1.18.37.81 1.81 2.72 2.44 2.81.36.36.82.45.72.09 35.4-3.26 5.98-.09 5.07.82 1.17.27 1.54.18 1.54.27 8.6 1.45 2.35-.36 2.72 1.35 1.63.28 1.45-.46.27-.18.63-.36 1.54-.72.46-.09 1.63.18 1.17.54.45.18 2.09.91 2.35.54 1.72.81 1.09.82 1.36 1.27.81.99 1.63 1.72 1.18.36h.36l.99-.54.73-.9 1.36-1 1.72-1.09.63-1.63.09-.63v-2.35l.09-2 6.61.37 8.24-.64 1.9-.18 11.04-2.71 18.84-3.53 13.48-1.45 16.57-.27h3.89l1.45.18.46.27.72-.09v-1.45l4.98-2.17.72-.28 3.62-.81 3.17-.27 3.71-.27 9.42-.73 6.61-1.45 13.4-2.44 8.05-1.36 8.33-.9 128.01-15.94 4.98-.99.19.27.18.09h.36l1.08-.27.37-.18.18-.18 80.66-11.23 5.25 42.46 1.81 15.75 1.36 10.5 1.81 10.77.27 2.54 2.18 20.82 2.35 20.73 3.26 26.62 1.36 13.12-21.91 2.63-28.43 3.17-6.7.72-17.92 1.81-14.4 1.54-10.23 1-27.16 2.8-4.8.46-10.13 1.08-2.72.46-1.54.18-8.06 1.63-7.96 1.72-16.03 3.35-32.14 6.15-4.34.73-4.44.54-9.32.91-18.11 1.62-5.7.55-4.44.36-2.81.27-11.49 1.09-9.15.81.64 6.79 4.16 44.18 2.81 28.97 1.72 19.92 5.79 64.45 7.52 80.57.36 4.26 1.36 18.83 1.63 17.47 4.07 40.56 3.8 40.28 3.71 38.66.19 2.53h-1.72l-2.63.09-2.63.19-9.14.9-19.92 2.08-18.46 1.9-3.35.28-12.23 1.17-54.77 5.52-18.47 1.91-36.3 3.25-13.49 1.27-6.61.36-17.29 1.72-6.88.64 6.43 3.26 7.06 3.17 5.25 1.99 5.8 2.26-1.45 2.54-.82 1.81-.72 1.35-.55 1-.27.45-.09.27v.37l.36 1.17v.91l-.18.9-.09.55.18.9.55.82.54.99.27.27.18.28.55.54.09.54-.09 2.81-.37.81-.72 1-.45.81-.09.46.09 1.17.36.73.27.27 1.18.45.27.27.54.55.55.54.54.91-.18 1.44-.36.91-.18.54-.28.55-.18.63.09 1.09v.9l-.36.72-.63.73-1.72 3.26-.91 1.81-.54 1.08-.36.73-1.63-1.27-7.88-6.06-2.53-1.9-2.18-1.54-.63-.46-11.41-8.69-4.43-3.71-10.14-7.97-7.34-5.61-1.17-.54-1.36-.45h-1.18l-7.51.54-10.32.9-12.04 1.09 1.26 10.14.37 2.9 3.16 27.79.46 4.34 1.81 15.94 1.08 9.87 13.86-1.27 18.01-1.99 16.93-1.54 11.86-1 10.95-1.08 1-.1 12.95-1.26 16.56-1.36 1.09-.18.63-.18.55-.36.63-.55 30.06 23.18 8.87 6.7.99.72.46.36.45.55.27.45.45.63.28.82 1.44 4.16 9.33 24.9 2.35 6.52 1.45 4.16.64 2.17.36 2.54-12.59 1.35-16.47 1.54-17.66 1.45-14.75 1.36-5.71.45-11.04 1-5.16.36-.09-.9-.18-1.63-1-12.77-1.09-10.59-8.05.54-1.9.18-2.27.28-8.05 1.9-1.18.72-1.09 1.09-3.44 4.89-.54 1.26-.18 1.27-.09 1.54.09 1.27-3.99-1.72-1.53 2.89-1.72 2.45-.55 2.8 2.17 4.62.82 3.26v4.53l-1.54 4.52-.9 4.8-.37 4.53 1 5.16.54 5.34.45 3.08-1.08 3.89-4.17 5.7-2.08 3.81-2.53 2.98-.73 3.17-.36 2.36-3.8 5.06-.64 2.63-.27 1-.27 1.26-.18 1.09-.18 1v2.17l.09 1.18.09 2.08v1.99l.09 1.45v1.81l-.18.81-.63 1.18-.82.9-.63.82-.55.63-.54.46-.45.27-.64.18-.54.09-.54.09-.45.18-.19.27-.09.46v1.08l-7.42.64-13.85 1.35-2.63.27-21.81 2.18-.82.09-.36-6.97-.82-1.36-2.08-2.9-.63-1.36-.09-1.53.27-1.36 1.09-2.63.18-.99v-2.36l-.37-2.71-.72-3.35-1.36-3.53-.54-2.36-.27-1.72-.18-1.99-.28-2.81 2.9-88.44.09-.55v-.99l-2.99-33.77-12.22 1.18-1.99.18-6.61.63-8.6 1-13.49 1.27 2.27 22.27 1.26 12.76.64 5.89-.73.09-1.17.18-34.04 3.44.09 2.71-1.27 3.35-1.18 2.08-3.53 2-3.8.54-16.3 1.27-1.81.18-6.06.45-2.9.18 1.18 12.22.18 1.45 1.18 11.23.54 6.24.72 7.61.91 9.5.36 3.35.45 4.35 1.45 15.57.45 5.07 2.09 20.73 1.54 15.3-9.78.72-15.21 1.54-4.89.46-1.9.18-1.63.09-6.79.54-3.71.27-3.08.18-7.15.55-5.71.72-4.16.45-2.17.27-18.92 1.72-9.42.82-4.25.36-6.7.54 1.45 15.21 1.44 14.94 2.27 22.36.81 7.7.36 3.98.82 7.06.36 4.07.54 4.44.09.91-1.99.18-2.44.45-2.99.27-8.96.64-11.95.9-71.7 5.98-7.88.72.64 9.6 7.69 58.3 1.36 13.21-53.51 6.97-15.3 1.36-10.86 1.63-19.64 2.99z" stroke-linejoin="round"/></defs><use xlink:href="#b" fill="#9dc8ca" stroke="#9dd7f0" stroke-width="5.76"/><defs><path id="c" d="M588.91 1674.42l-.28.1-.36-.55-1.36-4.25-.99-1.81-1.36-1.99-1-1.18-5.34-4.44-2.53-1.36-6.88-3.16-2.9-1.27-3.17-.82-.72-.45-.45-.54-.1-.73.1-.54 6.69-7.24.28-.36v-.55l-.46-4.16-.27-1.54-.63-2.35-.64-2.18-.09-1.08.09-1.81-.36-5.25-1.27-6.79-.81-3.08-1.63-5.07-1.18-2.9-1.99-5.88-.72-2.54-.64-4.43-.45-1.54-1.72-2.99-.27-.72-.54-3.17-.28-1.09-1.53-2.81-1.09-1.53-2.81-5.07-1.35-2.72-1.63-2.72-.82-3.16-1.36-3.17-2.89-8.24-1.72-3.53-1-1.72-.81-1.9-.55-1.63-.45-1.63-.63-1.9-.73-1.54-1.27-2.45-3.35-5.52-.81-2.08-1.99-5.34-.91-2.08-4.34-8.15-1.54-3.08-.91-1.99-.81-1.45-1.63-2.17-1.18-1.54-1.45-2.08-3.17-5.35-.54-.9-1.9-4.8-1.9-3.71-.82-1.36-1.08-2.26-1.99-4.53-.82-1.72-5.25-9.05-6.25-10.77-1.26-1.9-2.81-4.98-2.9-4.89-2.17-3.17-3.71-6.79-4.26-8.24-1.08-2.17-.91-1.45-.72-1.9-.18-.91-1.18-1.99-1.54-2.44-1.99-2.36-.73-1.26v-1.09l-.36-.72-1.36-1.72-.99-1.18-3.35-5.25-1.72-3.08-3.08-4.62-1.81-2.44-3.53-5.7-3.98-6.79-7.16-10.14-2.26-4.17-1.54-3.08-.9-1.72-.46-.99-1.81-3.17-1.17-1.9-1.09-2.35-2.17-3.26-2.45-2.99-.54-1-.63-1.63-3.72-6.79-1.35-2.08-3.08-5.61-4.35-6.88-1.9-3.26-3.53-6.7-.9-1.27-2.9-6.15-2.81-6.16-6.43-14.21-1.35-2.81-3.72-8.96-18.37-36.39-20.74-37.21-26.25-55.5-1.18-1.9-1.9-2.89-1.54-3.26-4.79-7.88-.82-1.54-1.27-2.53-1.17-2.27-3.72-5.61-3.53-5.79-1.08-1.99-2.81-4.44-3.71-4.89-3.17-4.89-2.99-5.43-2.62-3.62-2.18-3.53-1.53-2.9-1.54-3.44-1.81-3.35-.37-1.08-1.63-2.9-1.44-2.08-2.99-6.16-.54-1.27-.19-.54-3.98-7.87-2.62-5.71-2.18-6.34-.99-2.35-1.45-2.81-.54-1.44-3.72-7.16-2.26-3.07-1.99-3.53-1.99-2.99-.73-1.54-.54-.91-1-2.08-1.08-1.99-2.63-5.79-.81-1.27-.55-.54-.27-.28-.99-1.63-.18-.18-.82-1.35-2.72-5.16-2.08-2.81-2.71-4.71-.82-1.63-1.99-3.44-2.17-3.8-2.99-3.89-2.54-4.26-2.26-3.53-2.9-4.07-.72-1-1-1.54-3.16-4.16-3.81-5.52-.81-1.36-4.62-6.97-1.08-1.9-.64-1.36-1.72-3.71-.54-.91-.18-.27-2.81-3.71-1.45-2.36-1.99-3.34-1.99-3.45-1.09-1.72-3.89-4.97-.72-1.45-1.63-3.35-1.18-2.54-.91-1.9-3.17-5.34-2.08-5.16-.72-2.08-.54-1.18-1.63-2.8-.28-.64-1.35-3.53-.09-.27-1.27-3.62-1-2.17-2.17-3.99-.54-1.17-1.09-2.45-1.36-2.81-3.26-4.97-.72-1.63-.54-1.72-.28-1.81-.27-2.63-.36-2.08-.36-1.45-.91-2.45-2.17-3.89-2.08-3.62-2.45-4.07-4.07-6.79-1.63-2.9-1.27-2.99-1.26-2.53-8.51-13.31-1.27-1.63-1.27-2.53-2.17-3.62-2.45-4.98-3.26-6.25-2.17-4.8-1.18-3.26-.81-1.54-.63-.72-.46-1.09-.9-2.71-.36-.37-.28-.09-.18-.18-.09-1.17-.27-.37-.63-.09-.27-.18-.19-.36-.18-.9-3.16-4.8-2.27-4.26-1.18-2.17-.99-1.72-1.9-4.71-.18-.9-1.27-2.9-.45-1.27-.64-.9-1.9-1.63-.81-.91-1.09-2.62-.54-.18-.18-.19-.28-.81-.36-2.35-.27-.64-.9-1.17-.55-1.81-1.72-1.54-.45-1.09-.63-3.17-.18-.9-.55-.91-.81-1-2.36-4.7-.54-.91-.91-2.35-.63-1-.54-.54-1-.63-.54-.55-4.44-9.68-2.26-5.25-1.27-3.08-.9-1.81-.27-2.99-.46-2.63-.27-1.17-.54-.91-2.81-5.88-1.81-3.26-1-1.54-.54-.45-.36-1.54-.54-1.99-.18-.64-.46-.99-.72-1.18-.82-1.9-1.81-4.08-2.8-6.24-.37-1.27-.45-1.36-1.54-1.99-1.17-3.53-.55-.72-.81-.73-1.99-4.52-4.44-8.24-2.99-5.07-1.72-3.08-1.36-4.07-.81-1.72-1.36-2.27-1.27-1.9-.99-1.54-1.72-2.89-.91-3.44-2.98-6.88-.91-2.18-1-1.72-1.72-2.17-1.35-2.08 1.08-1.18 3.62-1.63 2.54-2.53 3.71 5.07 4.26 6.51 5.52.28.36 2.71.27 1.45h5.71l.54.18.99.09 4.44-.81h1.27l.81.54.91.91.99.81 3.44 1.36 3.35 1.99 4.62 1.9 8.78.82 1.63.09.54-.18.19-.19v-.27l-.28-.36-3.62-1.54-2.71-.9-2.27-.18-1.99-.37-1.27-.81-.81-.91-1.9-2.89-1.45-3.08-.36-1.27v-1.36l.36-2.71.63-1.18 1.45-1.54.46-.18 1.81-1.09 3.44-1.35 3.07-1.91v-.54l-.18-.18 1.63-1.81.36-.45.28-.27.54-.1.9-.27.64.18 1.08.64.55.09.9-.09.55-.18.18-.46.09-.81.18-.27 2.81-.64.27.09.09.19.09.54.27.63v1.18l.18.09.36.09.27-.36h.19l.36.36.36-.09.81-1h.28l.54-.09.18.18.18.55.18.18 1.09.72h.54l.45-.54.91-.09 1.27.27.54-.18.91-.63.36-.37.27-.27 1 .27.63-.18.54.09 1.27 1.18h.27l.18-.18.27-1.27.46-.63.09-.27-.09-.46.09-.27.27-.18.63.09.55.82 1.26.27 1.9.54h.37l.27-.09.18-.18.18-.81.18-.1.45-.18.28.28.36 1.26.36.55.27.18 1 .27.9.45.82-.27.63-.54.45-.09 1.18-.09.63-.1.19-.18.09-.81.18-.45.63-.64.36-.09 1-.09 2.08.27.27.09.73.82.27.27h.45l.63-.72.37-.09h1.17l.46-.1.36-.27.54-.09h3.26l.91.09.36-.09 1.08.09 1.18.18.45.19h1.63l3.17-.73 1.9.09.37-.09.18-.18.99-2.08.09-.18 3.81-.37 5.7.19 3.08.81 7.24 2.17 9.51 4.98 8.69 3.8 6.24 2.36 12.77 3.62 5.34 1.36 3.53.09h1.9l-.63-6.61 12.49-.82 8.96-.72 17.11-1 12.41-1.08 12.13-.73 9.5-.54 1.27 15.66 2.26 25.26 2.72 2.08 10.95 36.39.73 2.36.45 5.7.82 3.8.18 1.09.09 1-.55 5.16-.45 2.26-.18 2.08.27 3.89.73 2.27.27 1.72-.36 4.61.09.64.45 1.45 1.36 2.35.36 1.72.9 6.52.46 2.62v4.26l-.27 6.79-.82 5.43V737l.73 3.8 1.44 8.6 13.31-.72 6.16-.55 15.3-.81 15.57-1.09 3.71-.18 2.17-.09 8.42-.54-2.26-23.63-.45-6.25-5.89-58.03-6.06-57.66-1.63-16.66 6.24-.36 20.19-1.63 11.68-1 11.86-1.18 24.35-2.44 7.43-.54 18.92-1.18 10.23-.91 24.89-1.81 8.7-.45 14.3-1.09 25.89-1.81 13.13-.81 37.57-2.63 21.45-1.08 22.09-1.36 8.6-.82-2.44-27.24-2.08-21.73-1.36-16.03-1.45-16.2-1.9-21-1.09-10.5-2.89-32.05-1.63-17.47 73.78-6.16 32.14-2.62 37.3-3.08-1.81-19.56-4.44-42.82-1.81-18.65-1.63-17.02-.9-9.68-4.98-54.14 21.27-1.81 18.47-1.54 18.38-1.45 36.84-3.17 11.23-.9 35.58-3.35.54-.45-1.36-15.48-3.98-41.56-7.51-22.81 2.98-23.9-1.44-12.67-5.07-45.36 16.29-1.08 1.99-.19 10.05-.54 2.08-.18 12.68-.45 4.07-.18 28.34-1.54 7.69 57.94 1.72 1.44 1.91 1.72 2.17 2 2.26 2.08 2.35 2.08 2.72 2.45 2.08 1.81.82.72 1.54 1.45 1.9 1.72 2.53 2.26 2.9 2.54 2.63 2.26 2.08 1.99 2.26 2.08 1.99 1.72 1.72 1.54 2.63 2.27 2.35 2.17 2.36 2.17 1.9 1.72 2.71 2.35 3.44 3.08 4.08 3.62 3.71 3.44 4.07 3.63 2.81 2.35.54.45 3.08 2.9 1.99 1.81 3.53 3.17 2.08 1.9 2.54 2.26 1.45 1.27 1.27 1.09 1.26 1.08 2.99 2.81 2.9 2.53 2.71 2.45 2.18 1.9 2.17 1.99 2.53 2.26 3.72 3.44.09.09 1.99 1.72 2.44 2.09 1.99 1.81 2 1.81 2.98 2.8 2.45 2.09 2.99 2.71.63.64 2.26 2.17 2.54 2.53 1.63 1.63 2.08 2.27.18.18 1.9 2.17 2.08 2.26 1.81 2.09 2 2.35 2.62 3.44 1.36 1.81 1.45 2.08 1.17 1.54.19.36.63.82.27.45 1 1.54 1.45 1.99 1.08 1.72 1.18 1.9 1.18 1.81 1.44 2.63 1.45 2.53.73 1.27 1.44 2.72 1.82 3.35 1.26 2.62 1.63 3.35 1.81 4.07 1.09 2.36 1.36 3.35 1.17 3.17 1.54 3.89 1.63 4.89.82 2.53 1.08 3.62 1.18 4.44 1.27 5.07 1.08 4.53.91 4.16 1.18 5.16 1.45 6.43.9 3.62.91 3.89 1.08 4.8.82 3.8.9 3.62.73 3.44.9 3.71 1 4.53.27 1.27.45 1.81 2.08-.18 7.61-.64 15.12-.99 7.6-.45 7.61-.37 15.3-.81 1.9-.09-.55-6.07-1.08-9.41-2.99-28.34-4.07-37.75-3.9-33.95-.18-1.81-.27-1.99-2.08-18.83-2.26-18.92-.55-4.98-.27-1.9-.54-6.34-.91-10.95-.99-11.05-.09-.63-.46-5.34-.99-12.4-.45-4.44-.46-5.61-.45-5.16-.72-7.52-.82-9.32-1.27-12.67-.9-10.87 34.76-1.54-2.8-30.69 17.92-.63-2.53-27.97 1.81-.18 2.89-.09 3.26-.09 1.27.27 1.45.27h1.72l3.08-.09 2.26-.09 3.08-.27 2.71-.28 7.79-.9 1.99-.18.91-.18.9-.09.82-.18.27.99.45 1.27.63.9 74.42 78.94.18 1 .09.82-.27.9-.54 1.45-.91 1.36-.99 1.36-1.63 1.35-.82.46-2.8 1.08-.82.64-.36.54-.91 1.63-.09.81.09 1.63.46 3.17.18.91 1.36 3.26.27 1.44-.46 3.53-.18 2.99.09 1 .28 1.63.09.72-.18.54-.91 1.36-.18.64-.54 2.26-.19.45-.27.55-.99.45-.64.36-.45.54-2.9 4.26-.81 1.72-.18.99-.91 6.43-.36 2.9-.54 7.15v1.63l.36 1.18.36.63 1.27 1.99.9 1 .55 1.17.63 1.54.45 1 .28.45.45.46.81.45 76.05-6.7 70.61-6.79 3.72 35.85 3.07 30.69 5.62 54.41 4.16 40.19 10.86-.9 13.22-.91 37.3-2.72 7.33-.45 24.81-2.26 10.95-.82 31.87-2.8 3.8.18.82.09 5.88-.64 10.23-.9 11.86-.91 4.98-.45 2.72-.18.9-.09h1.09l1.72-.09h2.99l1.08-.09 3.99-.27 10.59-.91 5.79-.45 1.54-.09 1.63-.09 1.54-.18 1.54-.09 1.54-.09.99-.09 1.09-.09 1.18-.19 1.36-.09 1.26-.18 2.72-.27 5.43-.54 16.21-1.72-.19 4.52-.09 1.72-.27 8.79-.18.36h-.27l-2.44-.09-1.91.09h-2.8l-.55.18.28 6.25.09 5.97.54 11.95v.54l-.09.09-.63.18-5.53.55-.27.09-.09.36.91 7.97.99 10.32 2.18 19.73.27 2.09-8.42.81-.91.09-1.27.18-1.08.09 2.53 23.99 5.07 45.9.82 8.06.36 2.98-1.09.1h-1.17l-1.36.09-1.36.09-52.15 4.16-14.03.36 1.36 13.85 4.35 35.4.72 7.7 3.98 36.66.18 1.18 1.27-1.36 4.89-5.7 4.8-5.89.63-.63 2.63-3.17 2.53-2.99 3.8-4.34 1.82-2.36 2.44-2.8 3.71-4.44 13.4-15.93 5.7-6.88 2.36-2.54 1.99-2.44 1.72-2.18 1.36-1.99 1.17-1.9 1-1.81 1-1.9.72-1.99.72-2.08.64-2.09.27-1.17.27-.91.18-.99.18-1.45.18-1.45.19-1.99 1.44 1.45.73 6.06 5.88 55.13-.27 3.26 4.17 41.92.81 8.33 3.89 30.87-12.76 1.81-18.56 1.63-31.23 2.53-8.33.55-1.18.09-3.53.27-2.9.27-2.98.18-6.43.54-8.51.73-14.67 1.26-8.42.82-3.71.27-.72.09-.55.09h-.72l-.91.09-1.17 1.9-6.61 10.69-3.99 6.42-.63 1.09-1.18 1.81-1.08 1.81.27.63.18.46.18.63.18.54.09.55.09.72.09.73.46 4.25.45 7.79 1.18 18.55.81 9.42.45 6.07.91 13.03.72 11.23 1.99 28.88.55 7.06.81 12.49.82 10.68.27 3.17.09 1.36.09.81.09.82v.72l9.96-.9 3.44-.36 15.21-1.36 6.79-.55 28.33-2.53 8.15-.72 8.33-.64 6.25-.72 8.06-.64 3.25-.27 5.62-.27 4.34-.36 1.27 11.41 2.08 20.45 2.18 19.11.09.9.18.82.09.36.27.18.27.09h.36l10.23-.91 5.71-.45 1.44-.18.64-.09.63-.18.36-.36.28-.46.09-.63-.09-.54-2.18-18.92-3.08-30.06-.27-2.53 6.07-.64 49.52-4.34 13.67-1.27 13.67-1.09 1.81 11.95 35.94-4.07 1.54 13.67.27.72.82.37.72-.09.63-.19.73-.54 3.71-3.08.27-.45.27-.45.09-1.27-.45-5.97-.45-3.35 47.98-6.34 16.57-.82.36 2.72.63 6.07.46 4.25.45 4.44.09 1.17.09.91.09 1.09 3.62 35.21 1.72 16.75 5.34 58.93 3.81 42.64 7.6 77.31.72 7.25-.36.18-.45.45-.27.45-.09.27v.82l-.73.18-14.84 5.34-2.27 1.54-1.54.54-2.26.28-2.35.18-.82.18-1.17.45-2.45 1.54-1.27.54-2.89.91-4.8.72-9.6 2.17-1.54.28-1.08-.09-2-.82-1.53-1.18-.73-1.08-.54-1.18-.45-1-.46-1.81-.9-5.52-.64-2.8-1.08-3.26-.73-1.36-.81-.73-.91-.54-.63-.27h-1.27l-1.9.63-2.44 1.45-2.72 1.45-.27.09-2.54 1.18-3.35 1.81-2.71 1.81-6.25 5.25-1.08.81-2.36 1.72-3.17 1.91-2.26 1.17-8.6 4.26-10.59 5.07-.73.18-2.44.81-3.17.46-2.08-.19-5.07-.81-1.72.18-.73.36-1.44.64-5.07 2.71-1.27.55-3.8.63-1.18.18-3.62.81-9.33 2.99-8.51 2.17-2.89 1.45-8.24 4.17-4.17 1.99-7.33 4.16-5.34 3.44-8.06 4.35-2.62 1.27-1.27.45-.82.18-.54.09-2.08.09-2.17-.18-1.27-.27-3.08-.64-4.16-1.17h-.55l-2.08.18-.63.18-.82.72-1.08 1.72-.64 1.09-.27 1.54-.45 6.16-.27 1.35-.55 1.27-.45.73-1.54 1.35-2.17 1.27-.18.09-.73.54-.72.73-1.18 1.72-.63 1.18-1 1.99-2.71 4.43-2.18 3.99-2.08 4.07-5.07 11.04-.45 1-1.45 2.26-1.45 2-1.63 1.53-.99.73-.18.18-.46.27-3.71 1.72-1.36 1.09-1.35 1.45-1.27 1.54-2.08 3.53-.73.9-15.93.36-6.16.09-1.72-.81-.63-.27h-.55l-.81.27-.91.54-4.7 4.08-1.45.9-1.36.63-1.18.37h-.81l-.91-.09-2.53-.91-1.36-.36-1.36-.18-.54.09-.72.09-.91.18-.91.27-1.08.27-.91.09h-1.81l-1.45-.09-5.52-.18-7.24-.36-7.15-.54-6.88-.82-10.41-1.08-9.15-1-6.15-.91-4.08-.81-1.72-.45-1.72-.27-2.62-.19h-2.18l-1.99.1-1.99.18-3.26.54-2.99.45-3.8.55-3.08.72-3.89.81-3.26.82-1.36.36-1.17.27-.91.27-.99.28-.82.27-1.27.36-2.71.9-.37.19-.63.18-.99.36-.64.18-.72.27-.73.27-2.35 1-.63.27-.82.27-.63.09-.91.27-1.08.19-.91.18-.91.27-.9.18-.72.09-.82.09-1 .27-.99.18-.73.09h-1.44l-.73-.09h-1.45l-.63.18-.63.19-.91.27-1 .36-.81.36-.91.36-.9.18-1.36.37-1.81.27-2.17.36-7.15.81-2.27.1-1.9.27-2.26.45-1.54.45-1.18.45-1.08.55-.82.45-.99.63-.82.73-.81.99-.73.91-.54.9-.73 1.09-.72 1.45-.63 1.27-.28.63-.54.82-.54.9-.36.45-.19.28-.72.81-1.09.91-1.08.9-.91.63-2.08 1-.63.36-.91.45-1.36.64-.99.54-.55.27-.81.91-3.44 4.52-.27.55-.18.63-.18.64v.54l.09.63v.45l.09 1v.73l-.18.72-.09.27-.37.73-.54 1.35-.54 1.27-1.18 2.72-.82 1.9-.81 1.99-.72 1.36-.82 1.26-.72.91-.27.63-.19.73v.72l.37.82.45.72.36 1.18.27.72v.82l-.09.54-.18.81-.36 1-.27.72-.55.46-1.08.72-1.63 1.18-2.81 2.44-1.08 1.72-.64.73-1.08 1.08-.28.18-1.72 1.27-1.54.36-1.35.37-1.36 1.08-2.72 2.9-.9.81-1.36.82-1.09.36-1.54.63-1.81 1.27-1.81 1.9-1.9 1.99-1.36 1-6.61 2.63-1.99 1.44-7.87 8.6-1.81.91-.82.27-2.08-.09-2.08-.45-1.81.18-1.18.45-3.8 2.17-2.18 1.36-2.53 1.72-1 .36-1.08.1h-1.63l-.36-.1-1.18-.45-1.81-1.08-1.72-1.54-1-.73-1.17-.54-1.36-.45-1.09-.09-.99.09-1.82.27-1.08.54-2.63 3.44-.72.64-.82.36-.99.09-1.45-.09-4.26-.55h-.63l-.45-4.16-.18-1.27-.18-.54-.55-.63-1.08-.55-1.27-.63-1.54-.27-.63.09-1.18.45-.82.63-.9 1.18-1.18 3.08-.45.63-.45.36-1.45.37-1.81-.09-1.54-.18-1.45.09-.72.27-2 .99-.45.27-.36.46-.27.45-.09.45-.09.46.27.99.36.73.18.27.82 1.54.18.54.09 1.36-.18 1.17-.73 1.27-.54 1.27-.72.63-1.72 1.18-2.54 1.09-1.09.27-.72-.09-1-.27-.81-.64-1.18-1.08-1.17-1.18-1.27-2.45-.09-.72.27-3.08-.09-1.27-.27-1.26-.27-.46-.28-.36-.54-.36-.72-.18-.28-.09h-.72l-1.72.27-4.35 2.63-2.08 1.35-.81 1-.27.27-.73 1.27-.45 1.27-.54 1.44-.09.28-1.63 4.34-1.09 2.45-.91.81-.81.45-1.81.09-1.9-.36-2.54-1.54-2.98-2.71-.82-.28-.9-.18-.55-.45-.9-.81-2.36-2.45-1.36-1.36-6.33-6.24-1.99-1.99-1.91-1.91-.27-.27-1.08-1.08-.91-1-.54-.09-.54-.36-.82-.73-.27-.27-.54-.45-.64-.54-.81-.64-.82-.54-.81-.45-.64-.36-.72-.37-.63-.27-.82-.36-.81-.36-.91-.27-2.35-.82-1.9-.72-1.54-.82-1.54-.81-1.54-1-1.45-1.18-1.45-1.17-1.45-1.36-6.61-6.79-6.6-6.79-2.27-2.44-3.08-3.08-2.71 4.34-4.44 7.25-3.62 5.88-3.44 5.61-2.44 4.17-8.06 16.93-7.88 14.93-3.8 16.57-1.72 3.35-2.26 4.35-27.8 56.49-3.35 6.33-1.62 3.26-15.4 25.08-4.52 6.34-21.82 21-16.48 17.29-78.76 70.25-45.54 23.99-1.08.54-1.09.64-52.69 6.15-29.51 3.35-15.12 1-27.88 1.81-16.21 1.08-76.32 7.34-14.03 1.26-29.42 10.87-26.89 9.78-10.95 4.07-17.02 6.43-.91-.91-3.08-3.26-.54.64-8.96 5.07-3.9 2.26-15.2 8.42-1.91 1.45-7.06 5.43-9.05 7.24-20.28 16.02-11.22 8.42-6.7 5.34z" stroke-linejoin="round"/></defs><use xlink:href="#c" fill="#6bacaf" stroke="#6bb4d2" stroke-width="5.76"/><defs><path id="d" d="M1233.94 2679.57l-2.17 2.35-1 1.63-.45.91-.45 1.72-.18 1.63.09.54-6.79-6.7-4.71-17.56-13.58-11.05-3.62-7.51-22.63-3.35-31.51-4.62-15.3.46-6.7-2.81-.18-.45-.72-1.45-.28-1.18-.27-.45-1.08-1.18-.37-.9-.81-.73-.45-.9-.46-.46-.63-.18-.54.09-.55.19-1.08.63-.73.63-.63.82-.63.99-.37.82-.45 1.9v1.63l.27 1.08 1.81 4.08 1.27 2.99.82 2.44.45 1.9v1l-.09.36-1-.09-.27.18-3.62-8.24-1.36-2.62-2.81-4.89-1.99-4.89-1.63-3.08-5.34-9.87-2.53-5.16-2.9-5.43-3.62-7.33-1.18-2.9-.99-2.17-4.26-7.88-2.35-5.07-4.44-9.32-1.27-2.17-3.98-8.69-2.26-4.08-2.18-4.34-2.62-4.8-1.9-2.99-.64-1.63-1.63-3.53-2.8-5.43-1.81-4.71-2.9-6.24-3.8-9.15-1.54-4.62-1.27-3.07-2.44-5.53-6.25-15.2-.54-1.82-.82-1.81-1.08-2.44-1.81-2.9-1.36-2.8-.73-1.99-3.07-7.43-.82-1.63-.9-1.45-1.54-3.16-1.9-4.08-1.27-2.71-3.71-5.71-1.54-3.08-1.18-2.98-1.09-2.45-.81-1.99-1-1.81-1.35-1.9-1.45-2.81-3.17-7.33-2.17-4.16-1.36-2.72-.82-1.63-2.17-3.53-2.35-4.16-1.54-3.72-2.63-5.88-1.9-3.8-7.6-13.94-2.54-4.98-1.72-3.81-3.44-6.42-1-1.54-1.9-3.53-1.99-2.99-2.26-4.07-1.54-2.27-1.45-2.62-.72-1.54-.55-1.18-3.07-3.8-.37-.63-.36-.82-1.81-5.34-.18-.82-.63-1.08-.73-1.09-.63-.72-.45-.27-.91-.37-.45-.27-.18-.9.18-.82v-.72l-.36-1.27-1.18-4.07-.45-1-5.71-10.41-.9-1.81-3.17-6.97-5.52-10.5-1.81-3.08-1.82-2.81-.54-1.26-.27-.73-.36-.45-.82-.63-.63-1.72-1.27-4.8-1.72-4.89-1.99-3.44-4.16-9.42-.82-1.45-.45-1.17-2.63-5.71-1.54-2.71-.63-.82-1.63-1.63-.63-.99-.46-.91-.36-1.26-.54-1-1.63-3.08-.18-.63-.45-1.54-1-2.26-1.9-3.44-1.54-2.9-.18-.36-1.27-1.81-1.18-1.81-2.62-5.44-2.17-3.53-1.72-3.07-1.91-4.71-1.44-2.54-2.54-4.43-2.08-3.26-1.45-2.99-1.27-2.81-.54-1.08-2.53-3.89-.37-.82-.9-2.72-.73-1.44-2.26-2.72-1.63-2.17-1.63-2.9-1.27-2.53-1.72-2.54-1.63-2.81-.45-1.26-.27-1.18-.36-1.27-.82-1.45-.72-1.99-1.18-2.35-1.08-1.54-2.18-4.16-2.26-3.44-2.17-3.81-.55-1.9-1.81-4.16-2.08-3.8-1.54-1.91-.81-1.35-.82-1-1.27-3.44-.45-.99-3.35-5.35-.45-.63-.45-.27-1.72-.64-.91-.45-1.27-2.17-.45-1.09-.63-1.81-.27-.54v-1.18l.18-.63.54-1.18.36-.63v-.64l-.63-2.08-.54-1.26-.19-.28-2.89-5.61-.18-1.18-.37-1.35-.45-1-1.45-2.26-2.62-3.53-1.18-1.72-2.53-4.89-2.99-6.07-2.81-4.89-4.43-7.06-4.17-7.78-6.43-13.31-6.51-12.58-1.54-3.44-1.72-3.17-.18-.55-.28-.63-.18-.63-1.45-2-2.35-3.8-2.9-5.43-1.54-2.35-2.53-5.34-1.99-3.44-5.34-9.78-1.81-3.62-2-4.89-1.99-3.53-3.08-5.8-1.35-3.16-2.36-4.17-2.17-3.71-.36-.63-2.18-4.62-2.26-3.89-1.99-4.44-5.79-10.59-5.16-8.78-1.82-2.63-2.98-4.89-3.08-4.98-.54-.9-4.8-7.24-5.43-7.34-1.36-2.26-.27-.45-1.9-3.71-4.08-6.97-3.8-7.07-1.72-3.8-2.99-6.24-6.15-9.78-5.16-8.78-1.63-2.9-4.08-7.15-4.16-6.7-4.35-6.61-4.98-6.79-.54-.81-1.45-2.9-2.26-4.07-3.9-5.98-4.25-6.43-1.54-2.35-.54-1.9-.18-.55-.46-.9-.27-.27-1.54-1.72-2.53-3.26-1.99-2.36-.64-.9-1.17-1.9-2.36-3.53-.99-2.27-.64-1.08-5.25-5.89-4.71-4.98-4.43-4.61-2.08-1.9-1.18-1-5.43-4.89-1.36-1.72-5.43-5.88-5.25-4.44-1.63-1.36-3.81-2.62-.9-1-5.25-4.16-1.45-.82-1-.27-.81-.72-.54-.64-.37-.72-.09-.18h-.81l-.54.18-2 1.09-.18-.09-.09-.28-.09-1.26.18-3.71.73-3.08.36-3.26.27-1.9.36-3.71.09-1.45-.18-2.54-.18-2.89.09-.46v-.63l-.18-1.45-.09-.45v-1.09l-.81-2.62-.28-2.18-.72-1.63-.63-1.35-.37-.73-.99-1.63-1-1.54-.81-1.17-.64-1.18-.36-.54-.27-.18h-.63l-.28-.19-.27-.54.09-.72.55-2.09.18-.9v-1.72l-.09-1.18-.09-.45-.64-.82-.45-.45-1.36-.45-1.08.09-1.45.27-1.99.54 6.7-5.34 11.22-8.42 20.28-16.02 9.05-7.24 7.06-5.43 1.91-1.45 15.2-8.42 3.9-2.26 8.96-5.07.54-.64 3.08 3.26.91.91 17.02-6.43 10.95-4.07 26.89-9.78 29.42-10.87 14.03-1.26 76.32-7.34 16.21-1.08 27.88-1.81 15.12-1 29.51-3.35 52.69-6.15 1.09-.64 1.08-.54 45.54-23.99 78.76-70.25 32.5 49.07 11.95 14.3 10.14 12.31 1.63 1.81.55.64.27.36.09.18.81.99.55.73.9-.27.64.72.36.45 5.34 5.8-2.17 2.71-9.15 10.41-6.88 7.97-.81 1.09-.36.63-.09.73.27.63 2.44 2.71-2.62 3.17-2 2.45-2.26 2.71-.72 1.09-.18.45-.1.36.1.46.18.36.72.81.82.73 1.35 1.72-2.89 2.44-.82 1-.81.99-2.09 2.54-1.08 1.63 6.43 14.85 4.61-.46 1.45-.45 1.36.27 1.63 5.98 1.09 5.07.09.54.72 4.62 1.36-.09-.36-4.89-.18-2.63-.19-2.44v-1.72l.09-1.81.1-1.18.27-1.36.36-1.36.18-.81.36-.63.55-1.27.72-1.36 1.36-1.9.54-.63 5.89-6.52 2.44-2.72 8.6-10.23 8.78-9.96 8.69-10.23 8.78-10.04 8.88-9.96 3.16 3.71 3.26 3.98 6.88 7.88.91.99 5.88 6.7 1.18 1.36.82-1.54v-.54l-.73-7.79 8.87-.81 2.81-.27 5.98-.64-.82-10.23 9.05-.81.27 3.35.46 5.25.63 6.97.36 4.25.64 7.16.63 7.06 1.63 18.01.72 8.87.46 5.07.27 3.63.9 9.14 1.18 12.76 1.27 12.59 1.18 12.76 1.17 12.77 1.45 10.77.27 1.27 1 12.85.27 7.7.45 4.98 1.27 14.48.09 1.72-8.96 1.18.18 1.36-8.96.81-.18-1.9-8.97.45.64 2.26-5.16.46-4.08.36-8.78 1-8.69.54-.72.09 1.35-2.72.28-.54.54-1.72.36-1.81.09-2.17-.18-1.9-.63-2.45-.46-1.18-1.63-2.71-1.9-2.08-2.62-3.08-9.15-13.94-3.62-5.71-3.98.37.9 10.14 1.91 20.82.63 9.68-9.23.55-6.25.63.54 6.25-.99 3.89-.64 6.06-.18.91-.27.54-3.53 5.07-2.36 6.25-5.16 13.67-4.25.18-1.54.09-1.18.09.28 5.16.45 4.26.63 4.79 1.54 17.21 1.99 21.72 1.45 13.85 1.27 14.76 1.72 14.48.81 14.04.09.36 1.81 15.84 1.09 17.38.18 1.99 1.36 14.85 1.54 14.76.27 5.52 1.81 20.55 2.26 26.07.19 1.72.81 4.89.63 2.26.82 1.99.72 1.82 1.54 2.89-1.72.18-4.34.46-4.71.36-12.04 1.08-3.26.28.81 9.59 1.45 17.47 1.27 13.4 13.13-.81 1.35-.09 8.51-.46 12.95-.72 12.67-.72 2.99-.18 1.99-.1.82 8.97.63 6.61.55 5.25.36 2.89.18 3.26.27 3.53 4.89 7.43-1.99 1.63-1 1.17-3.44 4.8-.72 1.18-1.18 1.99-3.26 4.34-.9.91-1.09 1.99-.63.54-.37.28-.18.18v.36l.18.36.09.45-.45.82-.63.99-.27 1.36-.09.55-2 7.15-.63 3.17-.63 1.9-.46 1.26-.99 1.91-.73 1.17-.63.36-.54-.27-.27-.99-.37-1.27-.36-1.36-.36-.81-.45-.82-.46-.72-.54-.64-.72-.9-1-1-.54-.63-.64-.45-.72-.27-.72-.28-.64-.18h-.72l-.64.09-.81.28-.73.36-.81.54-.82.54-2.62 2-2.81 2.26-.63.36-4.71 3.26-.72.45-.64.45-.45.37-.54.54-.55.54-.54.55-.63.72-.55.73-.45.72-.45.54-.36.64-.37.72-.27.72-.09.91v.72l.09 1-.09.45-.27.46-.27.36-.45.36-.55.27 1.09 13.49 1.99-.63 3.89-1.18 15.12-4.8 12.86-3.98 1.63-.55 17.74-5.52 4.98-1.54 15.12-4.7 44.9-14.04 13.58-9.59 64.37-45.18 21.1-5.97 32.13 18.65 9.06 5.25 22.27 12.94 1.72-.27.18-.45.81.81 1 1.82.54.54 3.26 2.71.73.64 1.9.99 1.81 1.27 1.17 1.18.37.18 2.26.9.54.55.82 1.17.45.82.36 1.18.27.36.37.18.45.09 1.63-.18.45-.18h.36l.64.27.63.09 3.17-.45.9-.64.37-.09 1.63.18 1.63.46 1.72.54.99.18-.18-2.9-.18-1.72.18-.63v-1.63l.09-1.63.09-.72.18-1.45.46-1.18v-.63l3.16 4.43 5.62 7.16 4.89 5.25 4.98 4.43 6.06 4.71 1.72 1.45 1.27.9 1.54 1.27 4.52 3.8 1.9 1.36 10.87 8.69 9.96 7.97 9.23 7.15 5.8 4.62.81.63 1.18.91 6.06 4.7 1.27 1 9.96 8.06 4.71 3.71 7.69 4.8 1.18.9.27.27 1.54 1.27 2.53 3.26 6.88 5.43.37.73.36 20.73 1.45 14.12.81 8.78 2.08 21.37 2.09 21.45 1.44 15.84-8.51.73-.54.09-11.77.99-1.63.09-9.32.73-3.17.27-1.36.09-.99.09-.73.27-.63.27-.82.55-.54.36-.91.63-2.35-1.63-.54.28-1.27-.37-.54-.54-1.99-.54-1.82 1.72-.36.18-.45.18-3.08.27-4.8.36-12.76 1.09 4.89 50.97-35.85 2.17-.27 3.26v2.26l2.35 22.73.36 3.44 10.86-.91 13.49-1.27 11.95-.99 3.99-.37 2.89-.27.73 5.34.18 1.45.18 1.36.09.82.09.63.09.81.18.91.18.81.19.73.27.81.27.82.27.72.27.73.27.81.37.73.36.63.36.54.36.64.36.54.37.54.45.64.54.63.55.63.63.82.54.54.64.82.63.63 1.27 1.45 1.26 1.45 1.45 1.63 1.45 1.63 1.27 1.35 1.27 1.45 1.17 1.36.91 1.09.45.54.36.45.46.64.45.63.54.72.55.73.36.72.45.73.36.63.36.63.28.64.45.81.27.64.36.9.36.82.37.81.27.73.27.81.27.91.18.81.27.81.19.82.18.81.36 1.54.18 1.09.18 1.36.27 1.45.18 1.35.55 3.53.27 1.91.36 2.8.72 4.89 1 3.35-.36 2.63-1.9 2.35-1.99-1-.73-.27-.72-.09-5.71.64-5.97.45-1.18.09-4.07.36-6.07.36 3.71 33.95.91 8.6.18 1.45 2.26 24.44 2.09 14.31-18.02.9-1.54-.18.27 2.9 3.44 27.34 10.69 5.16-.1.99-.36.55-.27.27-6.97.72-2.17.09.27 2.18.09 8.23.54 5.71.55 4.52.09.73.09 1.72-19.11 2.35-6.15-1.09-7.15-1.44-2.9-1.18-3.89-1.72-.18.18h-.19l-.18.09-6.15.45-.46-5.16-.27-3.26v-.36l.09-.36.18-.18.28-.09 1.44-.18 3.17-.36 2.81-.1h1.45l.99.1-1.17-15.21-.46-4.8.1-.64.36-.27.81-1.35.82-.82.99-1.18 1.18-1.72.36-2.71.45-6.79.55-.73.72-.54.54-.09h.55l2.53.81 1.45.55 1.36.27h.27l-.99-9.05-.37-2.99-1.72.09-16.11 1.54-1.72.09-5.43.54-3.53.27-7.07.73-4.79.45-12.68 1-3.71.18-7.7.63-10.13.82-2.27.09-6.61.54-30.69 2.53-9.41.55-32.32 2.35-10.77.73-6.7.63-6.61.36-.55-11.86v-1.26l-.36-5.44-3.08-37.29-.18-4.44-.54-6.07-1.18-15.3-13.49 1-6.79.45-6.51.55-3.44.27-6.16.36-7.79.63-8.51.64-3.62.27-1.63.18-6.43.45-4.52.46-3.44.36-1.9.18-1.81.18-1.45.18-1.45.18-1.54.27-1.81.37-1.9.27-19.38 3.07-12.67 2-16.3 2.53-3.89.63-2.26.19 1.45 16.92 2.26 25.26.63 7.34.09.63 1.45 17.29 2.18 25.26.27 2.99 1.81 22.27.72 7.87.46 4.98 1.81 20.64.9 10.96-1.18-.1-1.08-.09-.91-.18-.99-.36-.91-.36-.99-.54-.91-.55-.91-.72-1.35-1.18-1 1.27z" stroke-linejoin="round"/></defs><use xlink:href="#d" fill="#09757a" stroke="#097d9b" stroke-width="5.76"/><defs><path id="e" d="M1175.01 1629.43l.18 2.63.36 4.89-1.36.09-.72-4.62-.09-.54-1.09-5.07-1.63-5.98-1.36-.27-1.45.45-4.61.46-6.43-14.85 1.08-1.63 2.09-2.54.81-.99.82-1 2.89-2.44-1.35-1.72-.82-.73-.72-.81-.18-.36-.1-.46.1-.36.18-.45.72-1.09 2.26-2.71 2-2.45 2.62-3.17-2.44-2.71-.27-.63.09-.73.36-.63.81-1.09 6.88-7.97 9.15-10.41 2.17-2.71-5.34-5.8-.36-.45-.64-.72-.9.27-.55-.73-.81-.99-.09-.18-.27-.36-.55-.64-1.63-1.81-10.14-12.31-11.95-14.3-32.5-49.07 16.48-17.29 21.82-21 4.52-6.34 15.4-25.08 1.62-3.26 44.64 37.93 8.24 5.35 10.5 6.6 1.9 1.18 5.25 3.44 1.54.91 2.35 1.81 2.63 1.54.99.63 1.27 1.27 1.27.72 1.36.54 2.08 1.18 1.45 1.36.9.81.45.37.28.45.18.36.09 1.09-.36 3.08.18.99.54 1.63-6.97.36-3.26.27.36 5.98v1.27l-.18.54-.27.81-.54 1.18-.73 1.09-1.72 1.72-8.24 7.15-1.35 1.18-.28.81-.45.36 1.27 1.27.72.91 4.62 5.52 10.05-8.78 5.88 8.33 9.96-8.88 1-.9.9-.82 1.18-1.35 1-1.18.9-1.27.54-.9.73-1.27.9-1.9.55-1.54 1.35-3.62 1.63-5.34 1.91-5.89h4.52l6.16-.81-.73 3.08-1.81 5.88-.99 3.17-3.8 13.03-.73 2-1.36 3.44-2.44 5.7-.73 1.36-.81 1.08-.82 1.09-2.89-4.16-9.96 9.05 6.25 8.69 6.42 9.05 4.26 6.07-4.26.45-6.33.91-.55.36-.27.18-.36.27-.27.45-.27.46-.09.63v1.09l-.09.54.18.54.09.73.27 1.72.54-.18.54-.1.46.1.27.18.36.27.45.63.19.18.9 1.27 4.07 5.97 1.54 2.09-8.51 3.71-9.05.81.82 10.23-5.98.64-2.81.27-8.87.81.73 7.79v.54l-.82 1.54-1.18-1.36-5.88-6.7-.91-.99-6.88-7.88-3.26-3.98-3.16-3.71-8.88 9.96-8.78 10.04-8.69 10.23-8.78 9.96-8.6 10.23-2.44 2.72-5.89 6.52-.54.63-1.36 1.9-.72 1.36-.55 1.27-.36.63-.18.81-.36 1.36-.27 1.36-.1 1.18-.09 1.81v1.72l.19 2.44z" stroke-linejoin="round"/></defs><use xlink:href="#e" fill="#004249" stroke="#00465f" stroke-width="5.76"/></svg>