<svg width="384" height="4.94in" viewBox="0 0 2880 3553" xmlns="http://www.w3.org/2000/svg" xmlns:xlink="http://www.w3.org/1999/xlink"><path fill="#fff" d="M0 0h2880v3553H0z"/><defs><path id="a" d="M2394.76 2718.38l-3.77.78-2.56.55-31.53-44.19-9.11-13.32-10.32-14.33-9.77-13.76-27.43-37.76-23.76-33.42-8.89-12.21-7.1-10.1-8.22-11-13.21-18.76-12-16.65-6.66-9.44-2.66-4-4.55-6.88-7.56-11.11-2.33-3.33-.66-.89-.56-.77-11.55-16.21-3.22-4.44-12.54-17.44-10.11-14.21-.55-.78-11.55-15.32.44-3.22.34-1.88 1.11-.56 2.99-1.78 1.45-1.11 1-.89.66-.99 16.66-28.43.55-.78-3.66-4.88-3.33-5.11-3-3.88-.55.77-3.45-4.77-2.88-4-8.55-11.88-7-9.77-6.33-8.77-5.77-7.88-10.33-14.44-5.77-8.1-5.22-7.11-5-7.11-3.77-5.21-1.89-2.67-5.33-7.22-5.22-7.21-.78-1.22-2.55-3.56.44-.77-.77-1.56-.67 1-2.11-2.89-3.33-4.55-3.44-4.88-.78-1-.56-.89-4.99-6.89-4.22-5.77-4.22-5.77-4.89-6.89-5.77-7.99-.89.66-.89.78-.66.56-.89.89-.67.55-.67.67-.44.55-.67.78-.44.89-.33.55-.34.67-.44 1-.33.78-.34.99-.22.78-.11.33-.11.56-.22.78v1l.11.77.22 1.34-2.55.77-1 1-.78 2-1.11 3.55-.33 1.89.22 1.33.55.78-2.11 1.78-.55.44-.78.89-.66 1.11-1.56 3.44-.22 1.56.33 1 .89 1.44 7.55 10.55 1.11 1.11.56.22.55.11 1.56-.78.55-.55 1.89 2.66 3.55 4.67 8.22 11.1 2.22 3.11 5.22 7.66-4.78 8.33-13.54-18.99-32.43-45.74-3.88-5.44-16.88-23.21-6.66-9.44 11.32-8.88 1.67-.33 1.33-1 1.33-2.22 1.34-2.45 1.66-1.99 1.33-1.11 1.78-1.34 9.55-3.44 7.77-2.55-1.44-4.67-2.55-8.1-2.67-8.11-2.66-8.44.88-.22.78-.22 2.22-.33 5.33-.78.56 1 .44.55.45.45.66.55.67.45 2.33 1.44 8.44 4.89 15.99 9.43 4 2.45 1 .55 1.22.78 5.66 3.22.44-.89 3.67-7.88 1.33-.22 2.22-.45 3.89-1 1.22-.33.44-.11h.89l1.11.22 1.45.44 4.66 1.56 3.33 1.22 2.55.78 1.23.33 1.55.33.78.12 1.22-.12 4.66-.88 1.56-.23 2.66-.44.56 2.78 1 4.66.55 1.55.22.78.11.22.34.56.44.77.67.67 1.33 1.33 1.22-1.22 1.11-1 1.11-.89 1.11-.77.89-.45 1.33-.66.67-.34.56-.22.33 1.22 2.44 7.89 1.11 2.99 1 2.22.89 2.11 1.11 2.23 1.78 2.99 1.44 2.56.78 1.77.33 1 .56 1.78.66 3.77.45 2 .11 4 1.44 13.21.44 2.11.34 1.56.89 2.77 2.22 6 .66 2.88.56 1.78 1.11 2.55 1 1.78 1.44 2.89 1.56 2.77 1.88 2.56 2.45 2.55 3.55 4.22 3.22 1.78 2.89 2.11 1.55 1.22 4.11 3 7.11-.67 1.77-1.33 15.77-11.55 7.88-6.11 8.22-6.44.89-1.11.11-.66-.11-1.11 13.32-1.34.89 4.33.33 1.56.89 4.33.45 2.33.55 2.22 1.67-.44.44 1.66 1.22 4.33 1.45 4.56.55 1.44 1.45 4 2.55 5.88.78 1.67 2.44-1.11 11.55-5.56 5.44 12.77 4.55-2.55 5.22-2.55 4.55-2.23 7.22-4.1 7 28.09 2.55 10.77 2.66 10.77.56 2.11.67 2.22.77 2.11-2.44.89-1.22.44-1.11.44-1.22.56-.89.44-1.22.78-1.34.89-.88.66 15.21 24.88 8.77-6.56 9.22 15.44 1.33 2.22 3.11 5.33 3.33 5.22.55.89 1 1.33.56.66-5.33 5.67-8 8.66 2.23 1.55 12.76-13.99 9.55-9.99 5.33-5.78 3.34-3.55 7.21-7.77 4.78-5 3-3.33 5.77 9.22 4.88 7.66 4.45 6.88 2.66 4.22 6.66-5.66 4.89-4.22 1.66.89.67.78.89 1 1.55 1.88.45.67 1.66 3 1.56-2.78 9.44-7.11 1.77-1.44 6.55 7.66 16.55 19.99 6.77 8.55 4.33 5.77 2.89 3.78 1.89 2.44 1.77 2.44 6.56 8.77 2.22 2.89.44.56 2 2.77.55.67.45.55.55.78v.11l5.56 7.33.44.44 3.77 11.22 13.33 16.1 3.44 5.33 15.77 21.2 3.55 4.67 1.33 1.77.89 1.11 4.33 5 6.67 7.55 10.54 13.43 7.89 13.33-10.77 11.21 7.55 14.21 2.44 3.89 18.54 28.42-3.99 2.11-16.33 14.1 6.11 8.33 7 9.66-17.1 9.22-.89.55-8.22 6.11-10.1 8.44-17.1 13.99-15.44 13.1-12.66 11.21-10.1 11.44-10.77 9.99-21.65 18.66-.67.55-.44.45.66.99-.66 2.22-6 14.88-1.11.56-5.77 3-7.67 1.55-3.1.67-5.67 1.22z" stroke-linejoin="round"/></defs><use xlink:href="#a" fill="#cee3e4" stroke="#cef5f5" stroke-width="5.76"/><defs><path id="b" d="M2750.31 3518.25l-26.21-.67-49.08-2.44-53.85-1.22-40.09-.56-22.2-.33-12.44-3.55-33.31-12.33-37.09-21.98-25.54-19.21-8.21-8.99-1.89-5.89-25.98-28.2-32.2-40.86-36.43-53.3-24.53-31.97-18.77-28.2-22.1-32.54-21.65-31.53-5.33-8.11-14.88-22.42-27.09-31.09-21.1-22.76-8.55-9.22-21.32-19.76-9.99-9.22-3-3.44-10.22-9.88-16.98-13.77-21.88-17.88-25.43-16.1-18.98-12.76-67.74-45.19-21.65-14.55-20.99-13.77-10.99-7.32-1.44-1-7.11-4.67-59.74-39.64-85.72-56.95-.55-2.34-23.88-15.32-25.42-16.21-117.82-75.06-120.14-76.83-119.37-76.17-85.38-54.51-83.39-53.3-131.58-84.05-130.36-83.27-130.36-83.39-130.69-84.6-79.06-59.96-118.93-89.05-118.92-89.04-43.97-41.31-63.18-97.48-63.07-97.38-63.18-97.48-63.18-97.49-6.22-17.65-2.44-11.33-.67-8.1.11-9.66-1-89.94-.89-24.09-2.77-27.76-23.1-188.86-1-6 5.89-13.21 125.58-103.82 78.4-64.73 47.19-38.97 2.33-5 21.1-13.76 12.65-8.11 1.45-.89 1.33 3.22 2.78 4.22 6.88 9.99 1.22 1.67.78.56h.33l.56-.23 4.44-3.99 9.88-8.66 1 13.54v5.44l.22 1.33 2 12 1.78 17.98.66 4 .34 1.22.78 2.22.55 1.11.22.34.67.88 2.33 2.45 2.89 1.88 3.77 3.11 12.44 8 6.33 3.88 5.77 3.67 7.22 4.99 38.31 23.88 24.32 14.65 5.55 3.55 19.76 12.11-.89 2.33-13.65-7.66-31.43-19.88-31.2-19.43-.44-.33-2.22 12.77.44 1.77.44 1 .56.78 5.77 3.78 17.99 10.54 4.33 2.67-3.33 8.1-.33 1 .11 2.45.44 2.11 1.22 2.55 6.44 8.44 7.89 11.21 8.99 11.44-4.33 4.77-4.44 5-7.44 7.88-22.43 24.98-1.89 1.78-11.77 13.1-3.44 3.67-3.33 3.99-2 3-2.33 4.55-2 5-1.55 5.44-.67 3.78-5.55.22-9.11.55h-2.33l-3-.55-7.21-1.67-7.56-2.89-10.99-5.44-15.88-6.66-3.99-2-3.11-1.55-.89-.33-.56-.34-.88-.44-5.56 20.21-2 6.99-3.66 13.88-2 6.77-5.33 19.43-1.55 4.45-1.78 3.66-.55.78-2.23 2.55-2.55 2.55-.44-1.33-3.78 3-4.22 4.33-1.33.67-2.89 2.22-3.77 4.33-6.66 7.88-3.34 3-4.66 3.44-1.11.44-.56-.22-.66-.66-1.22-1.78-1.22-2.22-.78-.67h-.56l-.77.45-3.22 3.33-2.34 2.22-1.88 2.22-.78 1.33-.56 1.56-.44 2.22v2.11l-.33 2.77.11.45.44.44.45.44.77.11.67-.11 1.78.34.44.11.56.44.77.78.34.44.33 1.11.22 1.89v1.33l-.22 1.23-.33 1.66-1.34 2.55-1.44 2.34-1.33 1.55-.67.67-2 .77-.22.45.44 1 1 1.22.56 1 .78 1.66.11.56.11 1.22v1.22l-.45 1.78-1.55 3.44-.89 1.44-2.44 3.22-1.78 1.78-2.66 2.33-1.22 1-.78 1-1.22 2.44v.89l.22.44h1l9.88-4.55 1.56-.22.44.11.33.67 1.45 3.55.33.67 1.33.66 1 .22 1-.66.33.11.67.55 2 3.56.44 1.44-.22.45-.11 1.44 1.22 8.88.22 1 .45.67 3.22 2.77 1.33.78 2 2.22.89 1.55 1.22 4.45.33 2.77v3.22l-.55 3.67-1.11 5.1-.67 1.56-1.56 3.22-2.44 6.22-2.11 6.21-1.89 7.44.12 1.78.55 4.55.22 1.67-.11 1.22-.66 4.11-.45 6.88-.44 1.67-2.56 4.99-2.11 3.67-1.99 4.22-1.89 4.99-6.11 15.99-3.55 14.77-3.11 9.55-1.89 6.66-2.33 9.44.33 2.99.11.34.78 1.77 1.11.89h1.78l3.77-1.55 1.56-1.45 1.11-2.99 1-2.78 1.55-7.11 1.22-3.33 1.11-1.44.45-.78 1.44-1 3.44-.89 17.77-2.22 5.55-.44 1.67.33 1.44.11 1.67-.77 1.44.22 1.11.78 1.44 2.33 2 5.22.78 3.99v2.11l-.33 3.78.44 1 .89.89 1.33.66 1.89.67 1.44.22 1.22-.11h.78l1.11-.67 1.22-5.33.45-3.99-.11-9.66.44-.78.67-.22h1l.66.55 2.33 3.78.89 2.55.56 2.22.44 1 1 1.44 1.11.78 2 1.78 7.11 4.66 2.77 1.67 4.22 2.22 1.11 1.22 1 1.44.33 1.22.34.56 1 1.66 2.55 2.45.78 1.11.33 1.33-.11 1-.44.78.11.44.33.78 4.89 6.21 1.22 2 .66 1.34.34 1.11v1.66l-.34 2.11-.55 1.89-.56 1.11-.66.89-.23.77.23.78.11.22.33.67.89.56 1.22.44h.89l1 .33.55.45.34.33.22.89.11 1.89v.33l-.22.66-.34 1-1.33 1.67-.22.67.11.55.56 1.11 2.44 2.11 2.55 1.67 1.89.77 2.11.34h1.33l.89-.45.89-.55 2.77-2.67 1-.89 1-.33 1.67-.11.89.22 2.22 1.11 1.89 2 .77.67.56.22.22-.11.44-.45.34-1.55 1.55-4.11 1-1.55.78-.78 1.22-.78.67-.22.11-.22-.78-.89-1.11-.78-.67-.55-2.22-2.44-.77-.56-.56-.78-.11-.55 1-1.67 2.33 1.56-.44.77v.45l.22.33.89.33.89.45 1.55 1.11h.67l.55-.33.89-.12.67.12 1.44 1.22.44.44.11.56v.44l-.33.78-.67.77-1.55 1.34-1.11.44-1.11.22-1.22.67-.33.44-.67 1.89-1.33 4.33-1 1.44-.56.45-1.66.33-.45.11-.78-.22-.66-.55-1.33-1.56-1-.78-1-.44-1.22-.22-1.11.44-.56.34-1.44 1.77-1.78 2.11-.89.78-1.22.44-2.66-.11-1.34-.55-1.66-1-4.78-1.89-1.88-1.22-.78-.78-.67-1.44-.55-1.45-.23-.77-.77-4.11-.11-.56-.23-.11h-.55l-.45.34-.22.33-.22.89v4.11l.44 1.22 2.78 2.99 4.33 3.34 1.56 2.22 4.1 7.32.89.89.78.67 5 3 6.77 2.44 1.55.89 1.56 1.22 1.22 1.33 1 1.78.78 1.66.55 1.45.22 1-.11.77-.33.89.11 1 .56.44 5.88 2.23 2.56.66 5.21 2.33 5.56 1.45 4.77 1.88 13.66 3.11 3.55.45 2.44 1.11 1.34 1.11 1 1.22 1.77 2.33.89 1.67.56 1.44.33 1.33.55 1.33.78 1 2.89 2.78 3.55 2.44 7.33 4.67 4 2.33 4.66 1.44 1.33.22 3.67-.77 1.33.55.89.44h1l1.44-.44h.67l2 .78 1.44.11.89-.33 1.11-.56.78-1 2.33-3 .66-1.55.23-2.55.22-2.45.33-2.44.45-2 .66-1 .89-.44 1.89-.67 1.22-.22 1.11.11 1.67.33 2.55-.11 1.22.11.22-.44.11-.44-.11-1.67.22-.56h1.23l.44.34 2.78 2.77.88 1.11.78 1.23 1.11 1.22 1.56 1.11 1.11.22 1.33.11 1.22-.22.11-.11 2.33-1.67 1.11-1.11.78-1.11.45-.78.55-1.11.56-1.88.66-.78 2.67-.78 1 .11.88-.55.67-.45 1-.22 2.22.78.67.33.89.11.66-.22 2.33-1.11 2.22-2.11 2.56-2.66.33-1.11.11-.78-.33-2.33-.33-1.22-.34-1.56 15.1.89v.67l-.66 2.44-.67 1.55-2.77 4.33-4 4.67-1.11 1.44-1.11 1-3 1.66-1.55.89-1.34 1-2.22 2.67-.33 1.66.22 1.33.67 2.11.55.67.45.78 2 .11 5.88 1.55 3.66 1.33 2.78 1.45 1.11 1.77 2.11.78 1.56-.33.88-.45 2.56.56 5.44 2.44 5.22 2.22 1.77.23 1.23-.12 2.33.67 7.77 4.33 5.55 3.22 5.33 4 4.78 4.99 4.88 6.89 2.11 4.33 1.89 9.1 1.22 6.55 2.55 4.89 2.67 2.66 5.77 7.44 2.45 3.67 2.44 4.44 1.78 3.66.66.89 1.33.89 2.11 1 2 .66 1.67.34 1.89.66 1.55 1.22 1.78 1.45 1.55 1.89 1 1.66.78.67 4.88 3.22 5.22 3.44 3.33 1.22 1.23-.22 4.77-.11 7.55.89 3.78.66 1.22.67.89.22h.77l.56-.55.33-.67.33-1.11.56-.67 1.55-2 .89-.22 1.45.11 1.66.56 3.89 1 2.22.44h1.11l1.11.67 2.55 2.44 1.67.78 2.11 2 1.89 1.55 1 .44.55.56 1.67 3.77 1.22 3.89 1 3.55.66 1.11 1.78 2.34 2.11 2.11 1.78.99 1.66.89 1.22.45.89.44.45.45.11 1.22-.11.44.22.89.33.78.67.88.89.78.88.56.89.11h5.78l1.22-.22 1.66-.67 3-.33 3.11 1.44 11.55 5.44 4.11 2.55 10.43 5.11 8 4.66 9.21 6.22 5.67 3.56 3.66 3.22 8.11 6.1 6.44 5.44 8.55 8 3.11 2.66 1.88 2 1.34 2.78 2.11 2.66 2.11 1.33 1.55 2 .89 1.45 1.55 2.77 1 1.56 1.78 2.44 1 1.11 1.11 2.22.22 1 .67 6.11v1.33l.22 1 .78 1 .77.66 1.34.11 1 .34.88.44 2.67 3.11 1 .67 1 .33 1.44-.11 3-.56 1.89.45 4.77 2.88 2.22 2 1.78 1.45 4.55 4.44 5.78 6.55 3.11 4.66 1.33 1.56 1.33 2.33.44 2.11-.22 1.11-2.44 2 .22.55.67.78 1.11.77.66.78.34.67 2.33 4.55.89.78.89.66 2.22.78 1.88.45 2.23.77.88.56.89.33.22-.22 3.33.44 3.34-1.33 1.11 1 3.44 1.22 3.66 1.56 1.11.66 1.45 1.67 2.66 3.33 1.78 1.77 6.88 4.11 1.67 1.22 2.33 2.67 1.44 3.66.89 2.67.45.77.88 1.12 1.23 1.11 2.77 1.77 2.22 1.33 1.11 1.34.89 1.77.56.67 1.66.89 1.67 1 1 1.11 3.11 3.99.44.78 1.11 1.67.89.44 2.33.67 1 .66.44.45.67.89.67 1.11 2.33 5.77.33 1.11.22 1.22v.89l-1 3.55-.11 1 .34 1.33 1.99 2.45.23.66.11.67-.34.55-.55.45-2.11.78-1.78.88-.44.23h-1.11l-2.78-.56-.22.56.22 1.55.34.89 2.33 2.55 3.55 5.67 1.67 2.88 1.22 1.56 1 .55 1-.11 1.55-.67 1-.22h1.22l2.78.56.55.66 1.78 3.67.78 1 1.55 1.33 1.78 2 3 2.66.77.89 1.11 1.11 1 1.67 1.11 1 4.56 2.88 6.44 4.44 5.22 3 4.66 2 2.33.78 1.33.11 3.33-1.33 2.45-.78 2-.22 5.1.66.56.11 2.33.78 4.55 1.78 2.78 1.55 4.44 1 7.55 2.78 6.44 2.77 1.11.56h1.22l7.22-1.56 3.78-.55 7.88 1 1.78.44h.66l2.89-.89 1.11.23 1.44.66h1.34l1.44.45 4.22.55 3.22 1.11 1.66-1.44 4 2.22 106.27 2.55 96.93 54.52 64.07 35.97 23.65 4.44.34.78 1.11 4.67.11 1.33.55.89 2.78 2.33 2.44.55 2.44-.11h1.56l1.89.22 3.33 2.45 3.44 3.11 2.11 2.1 1.11.45 3 2.66 1 .67.77.33 1 .56.78 1.11.22 1.55-.33.89.22.45.56.55 1.11.44.55.56.45.67.55 3.33.56 1.66 1.22 1.45 2 1.88.89.67.77.33 1.22-.44.34.11 2.55 2.89 1 1.44 2 3.33 1 .56 2.55 1 1.22 1.22 5.56 6.55 1.77 1.77.78.23.78-.34.22-.33.78-.22.66.11.89.44 4.11 3.44 4.11 3 2.44 1.78 1.89.55 1.89.12 1.11.44.55.55.78 1.11.55 1.78.67.89 7.22 9.1 2.66 3.22 1.22 2.11 1.11 1.45 2.11 2.22 2 1.11 3.56 1.66 1.77.78 3.44 1 4.11.44 6.22-.11 5.77-.33 1.45-.33.78-.34 1-1.77.44-.11 3.77-.56 7.11 1.78h1l.44-.22 1.89-.34 3.33.78 4.78.67 1.22.33h.67l1.33-.33 1 .11 1.77-.34 2.78 1.11 1.33.56.22.78-6.55 8.21-8.99 15.33 1.44 3.33 53.19 9.99 7.11-17.21 1.22-.78-.22.33v1.23l.33 1.22.33.89.56.44 2.44-.22h2.11l2.78 1 .88.33 1.23.56.55-.12 1 .12 12.21 7.66 2.22 1.66 3.56 2.44 2.22 1.23 7.66 4.33 5 3.88 2.33.89 1.33.22 1 .34 5.55 3.77 5.78 3.89 9.66 5.33 4.11 3.22 4.77 2.44 3.44 1.55.67.34 1.11.22 1.55-.22h.67l.89.33 5.33 3.33 2.22 1.78 3.89 2.33 2.88 2.89.78.44.55.22 1 .22 1.23.78.88 1 .45.22 1.11.34 4.55 2.33 3.55 2.11 2.56 1.88 2.77 1.45 3.33 1.33 5.45 3.33 9.32 6.55 3.11 1.89 3.67 3.44 1.33.78 1.11.44 1.78.11 2.22.45 1.88.66 4.56 2.56 6.44 3.66.77.33 3.67 1.67 14.99 6.44 2.22.67 5.22-.78h4.77l3.33.44 2.67.67 4.55 1.66 4.44.45 1.56.22 2.22.33 2.44.89.89.67 1.67 1.78 2.22 1.66 3.77 2.78 2.78 2.11 4.22 2.22 2.77 2.22 2.33 1.88 1.67 1.23 1.55 1.44 1.67 2 1.11 1.33 5.22 4.55 5.44 3.78 2.66 1.77 2.23 1.34.66.44 2.22 2.11 8.11 4.11 7.44 3.33 7.55 2.89 5.99 2.88 4.89 1.67h2.78l1.22.44 1.66 1.56 1.11 1 1.56.44 2.22 1.11 2 1.22 3.33 2.67 2.66 2 1.34.66 1.33 1 .66.11 6.67 1.67 7.66 2.33 10.77 4.11 1.67.89 2.77 2.22 2.11 1.11 4.33.33 3.33.78 7.22 2.44 5.11 1.78 9.66 4.33 5.55 1.66 5.11 2.22 4.66 1.33 14.55 6 16.1 7.33 7.22 3.66 8.21 4.33 5.33 2.45 9.66 5.77 3.78 1.89 6.1 3.88 1.78 1 .78.45 4.11 3.22 2 1.44 1.33 2.33.89.67.55.44 3.22 1.89 2.78 2.33 2.11 1.33 1.11 1.11 5.55 3.89 4.55 3.44 2.11 1.67 9.66 8.77 7.78 7.99 1.44.56.78.44.88.89 9.78 11.44 2.66 3.55 8.88 9.99 3.67 4.44 3.22 3.89 1.89 3.22 2.11 2.66 3.99 5.22 4.89 5.66 2.22 3-7.88 19.32 12.54-13.99 2.78 3.67 5.33 8.55 5.66 11.1 2.56 3.88.44 1 .33 1.23.45 1.22 1.55-.34 4.44-9.99.56-.22.66.55-.99 3.34 5.99-4 3.55-2.22 14.11-24.76 4.99-7.89.56-.77.44-.45 17.21-2.88 3.22 4.44 11.55 16.21.56.77.66.89 2.33 3.33 7.56 11.11 4.55 6.88 2.66 4 6.66 9.44 12 16.65 13.21 18.76 8.22 11 7.1 10.1 8.89 12.21 23.76 33.42 27.43 37.76 9.77 13.76 10.32 14.33 9.11 13.32 31.53 44.19 2.56-.55 3.77-.78 5.67-1.22 3.1-.67 7.67-1.55 5.77-3 1.11-.56 6-14.88.66-2.22-.66-.99.44-.45.67-.55 21.65-18.66 10.77-9.99 10.1-11.44 12.66-11.21 15.44-13.1 17.1-13.99 10.1-8.44 8.22-6.11.89-.55 17.1-9.22-7-9.66-6.11-8.33 16.33-14.1 3.99-2.11-18.54-28.42-2.44-3.89-7.55-14.21 10.77-11.21 9.99 14.54 2.44 3.33 7.33 10.11 3.56 4.99 8.44 11.55 3.1 4.44 3.11 4.44 5.56 8.22 6.77 8.99 3.44 4.67 10.77 14.65 10.77 14.55 4.55 6.22 15.22 20.43.33.33.22.33.34.56.66.89.33.44.67.78 2.11 2.88 3.11 4.11.22.33.45.56.33.44 4.22 5.56 5.55 7.99 3.66 4.89 7.56 10.1 8.21 11.1 5.78 7.89 10.66 3.1 7.55 3.78 20.21 11.44 9.88 1.55h2.88l1.45.78 1.55.77 1-1.99v-1l.11-1.78.56-.89.33-.55 1.45-2.56-1.12.56h-.66l-.45-.11-.66-.45-.34-.33-1.11-1-.22-.11-3.66-6.88-1.33-2.67-3.45-7.11-1-1.99-.55-1.22-16.99-34.31 4 1.11-3.22-6.89-.67-1.33-2-4.22.67-4.66 8.88 6.55 2.89 2.11 2 1.44 4.99 3.11 14.22 8.99-2.56 4.56 19.32 13.65.89.67.34-3.22 1.88-3.55 2.33-4.89 4.34-7.55.22-.55 1.33-2.22.89.66 2 1.56 12.21 8.88 4.66 3.22 6.67 4.44 11.66 8.33 18.76 13.21 20.77 13.99 8.88 6.66 1.78 1.44-8.11 14.22-2.89 5.1-15.65 28.43-5.78 10.77-9.44 18.1-1.11 1.77-8.66 16.88-1.33 2.22-.33.89-.11 6.22.11 6.33.22 1.33.33 1 4.89 6.99.44 1.11-.11 1 3 3.89.22-.11.33-.45.34.11v.34l-.11.44-.78.78-.45.11v-.78l-1.22-1.77-1.22-1.34-1-.33h-.55l-.34-.33-4.44-4.89-2.66-3.55-1.67-1.11-1.11-.22-.78.11-2.66.77-.44-.11h-.23l-.66-.44-.34-.22-1.33-1-1.44-1.22-1.78-1.56-.44-.78-.22-.44-.45-.89v-1.44l.11-.78-.11-.89v-.55l-.11-.56v-.44l-.11-.22-.33-.45-.34-.44-.33-.22-.78-.78-.77-.67-7.56-6.21-5.88-5.22-4.11-3.56-1.22-1.11-.78-.55-1.22-.45-.89-.33-.22-.78-.67.11-.44.12.22.66-.11.34-.33.11-.89.22-1.44.22-.56.22-.55.34-.23.55.11.67 1.67 2.99 3.78 4.89.88.89.89.44 12.11 11.11 2.11 1.33.44.22.67.33h.44l1.11-.22 1.11-.33.67-.11h1.11l.44.11.22.11.34.33.22.56v1.11l-.11.66-.11.45-.45 1-.11.44-.11.67-.11.44v.33l.11.23 1.11 1.55 1.11 1.33.67.89.44.67.45.66.11.34.22.66v1l-.11.67-.11.89v.44l.22.67.22.77.11.34.33.44.45.45 11.1 7.88.34.67-.11.22-.45.44-.89.11-1-.66-1.66-1.45-6.33-4.77-.45-.11-2.66 2.88-3.11 4.67-.55 1.22-2.67 10.66-.67 2.22-.55 1-.33.66-2.23 6.22-.66 2.44-2 7.67-1.44 6.88-.78 2.22-2 4.55-.44 1.67-.11 1.22 1.55 7.33-.22.77-.45.67-1-.11-.77 1-1 22.09.22 2.78.67 2.22-.23.33-3.11 1.89-.77.22-.56.67.22 2.22-.11.67h-.33l-.55-2.56-.34-.77-.44-.45-.45-.11-3.33.56-1 .22-1.55 1-1 1.22-3 6.88-.33 1.67-.11 3 .11 2.22-.33 1.66-.67 1.11-.78.45-.44.22-.34.33-.33 2.44-.22 3.78-.33.89-.56 4.22-.11 1.66-.44 2.11-.45 3.89-.11 5.33-.22.44-.33.45h-.34l-1-.67-2.77-2.22-.89-.56-.89.23-1.44.88-.78.67-1 .89-1.89 3.55-.44 1.44-2.56 8.78-.44 2.33-.11 3.33.44 1-.22.44-.33.22-2.78 3.45-.22 1.22-.22 1.77-.34.78-2.33 2.78-.66.66-1.11 1.56-.78 1.77-.11 1.89.33 2-.11.44-.78.78-.89 1.33-.55.56-1 .55-.55.23-.78.66-5.11 8.11-2 1.89-.22.33v1.55l-.44 3.11-.56 6.44.33 13.1-.11 4.56-.22 4.44-.56 4.33v1.33l-.33 1.55-.11.78-.33.89-.11.89.33 2.55.44 2.67.11 2.77.45 11.22.33 1.22 2.44 2.33.34.66-3.11 8.55v.34l.22.22v.33l-.44.78-.56.56-1.11.77-.44-.22-2.89-2.78-4.33-7.1-.67-1.33.23-1.45-.12-.66-1.11-2.78-3.77 5.66-.78.78 6.44 10.55 6.22 5.55 1 .67 5 3.88 1 1.22.66 1.89.11 1.56-.33 2.22 12.77 20.65 2.77 4.88-.44.56-.55.66-.34.34-.44.55-.56.34-.66.55-1.45.78-.55.33-.67.45-.33.11-.56.11h-.88l-.45-.22-6.44-10.11-13.43-23.31-1.78-2.56-3.11-5.33-1.33-2.33-15.22 82.39.34 97.7 3.22 51.08 17.99 73.06 15.87 38.63 32.87 57.3 3.78 4.33z" stroke-linejoin="round"/></defs><use xlink:href="#b" fill="#cee3e4" stroke="#cef5f5" stroke-width="5.76"/><defs><path id="c" d="M572.85 807.53l-31.09-5.66-5.33-11.88 4.55-17.43-3.67-.56-2.44 2.33-2.33 1.33-4 1.89-4.11-1.89-2.44-3.88-2.33-4.78 1.44-2.33 1.78-1.33 1.55-2.22-.22-1.22-1.55-.89-2 .33-3.11 2.11-2.78 2-1.88.56-2.89.66-4.11-1.22-5.66-2.11-39.42-7.1-2-1.56-2.11-2.66-1.22-2.78-.33-3.44.55-2.78 1.78-1.44 2.11-1 1.22-.33 2.44.33h2.11l1-.89-.89-1.22-2.33-.44-2.55-1-1.89-2.11-.67-2.11-.66.11-.67.55-.44 3.22-.67 1.67-2.11.89-2.44-.67-1.22.33-.23 1.11v1.89l-1.44 2.67-1.55 1.77-1.45.34-1.44-.34-1.89-2.33-2-2.22-1.55-1-1.45 1.45-.22 2.22-1.11 2.22-1.44 1.66-1.67 1-2.88.78-1.67.22-1.55-.44-1.34-1.22-1.22-1.78-1.66-1.56-.89.23-.89 1.77-.22 1.22-.89.78-1.33.56h-2.33l-1.23-.56-1.33-1.66-1-2.11-.89-.89-.55.11-1 .55-.89 2.56-1 1-1.55.89-2.78.77-.44-.33-.78-1.89-3-6.33-.78-1.55-.33-1.22v-1.11l-.33-1.56-.67-.33-1.33.11-.33-.11-.34-.22-.44-1.11-.56-.22-.55.11-1 .88-.56.89-3.66 4.22-.22.11h-.34l-.33-.11-.78-1.11-.44-1.77-.56-3.11-.33-1.11-.89-1.67-.44-.55h-.56l-.44.11-.33.22-.45.55-.22.89-.55 1.33-.45.34-.78.11-.33-.11-.22-.45-.56-2.88-.22-3.11-.22-.78-.22-.22-.22.11-2.11 1.33-2.23.67h-.55l-.78-.22-.55-.34-.34-.33-.66-5.11-.45-.55-.66-.23-.67.12-.66.77-2.78 6.22-2.11 3.33h-.44l-.23-.11-1.55-2.11-.56-1-.22-1.33-.22-1.67.11-1-.11-1.22-.22-.22-.22-.11-1.23.22-1-.11-.88-.55-1.23-1.45-.22-1.55.11-1.67-.22-1-.89-1-.55-.22h-.34l-.77.34-.34.44-1.11.89-1 .44-.66.11-.78-.44-.55-.78-7.22-1.77 3-12.33.88-3.77 1.45-3.67 8.77-21.76 16.88-17.32 1.22-1.44 2.66-1.78 2.67-.67 3.33-.33 3.78 1.22 3.33 2.11 3.44 2.66 2.44 1.78 3.11 1 2.44-.11.78-.89-.33-1.78-4.11-9.32-.33-3.44.33-2.45 2.11-4.55 3.33-4.33 3-2.11 2-.11 1.89 1.56 4.1 3.88 2.56 3.78 1.77 3.11 1.56.44.66-.44-.33-2.34-1.55-5.33-2.33-3.33-1.89-1.88-1.78-2.45-1-4.11.45-1.55 3.44-2.55 2.55-1.45 1.56-1.77 1.66-2.22 1.89-3.22 2.66-9.89 1.34-2.88 1-1.22 1.22-.45 1.77-.11 7.11 2.33 8.44 4.67 6.44 2.55 6.22 1.78h3.55l5-.45 7.44-1.11 3.33-1.11 2.33-1.33 2.78-1.78 2.66-2.66 3.33-4 1.11-2.11.78-2.55.33-2.33-.44-2.89-1.67-4.89-4.33-8.43-.33-1.56.11-1 .67-.33.77.22 5.33 4 6.89 3.55 1.89.11 1.22-.22 1.89-.67 2.99-1.44 2.22-1.55 3.56-3.67.89-1.55.66-1.67.45-1.89-.11-1.88-.67-2.78-1-3.22-.22-1.11-.22-1.78v-1.55l.11-2.22.55-2.67v-1.88l-.33-2.45-.78-2.44-.55-1.33-1.56-2.11-.55-1.89-.23-1.77.34-1.89.33-1.33 1.11-1.34 1.11-.89 12.66-12.32 4.89-5.44 2.11-5 .88-2.88.34-2.56-.23-2.44-.55-1.89-1.33-1.55-1.78-1.33-2-1-5.55-.45-8.33-1.22-1.89-.89-.66-.89-.22-.99.22-1 1.22-1.45 1-.55 7.33-2.78 2.11-1.33 1.33-.89 1.22-1.78 1.67-3.1.33-1.89-.11-1.56-1.45-1.88-.33-1-.22-.89-.11-1.89v-1l.22-3.44-.22-4.77-.78-1.67-.22-.44-3.44-1.34-5.22-2.99-.33-.12-.78-.11-.78.11-1.11.23-6.22 2.88-3.22-.22-.89-.33-.55-.67-.45-.89-1.44-5.55-.33-14.32-1.22-3.89-1.11-2.44-2.67-4.88-1.66-1.78-1.23-.67-1.55.11-1.56.34-2.44.66-2.66 1-1.78.11-1.66-.33-1.89-.44-1.34-.34-2.1-.77-1.12-1-.66-1.45-.45-2-.44-3.77.67-3 1.77-5.33.89-1.89 1.78-1.88.33-1.67-.11-1-.56-.89-1.22-.55-5.55.44h-1.55l-1.34-.66-.44-.45-.78-1.55-.89-2.44-.22-1.89.22-2 1.12-2.89v-.66l-.34-.78-.55-.11-1.11.22-1.45.44-1.11.23-.44-.45-.22-1.66-.23-2.11-.33-2.22-.55-1.67-1-.55-1.67-1-1.22-.78-.89-.44-3.77.44-7.22-2.11-7.66-2.11-.67-3.22-6.77-15.32-1.56-3.78-1.55-3.11-4.44-8.88-4.22-6.22-51.97-42.52-2.55-3.44-2.56-7-8.66-29.2-1.88-6.11-.89-2.33-.34-1.11-.55-1.77-.33-2-.12-3.45-.44-8.77-.33-2.99-.34-1.34v-5.99l.34-1.11.44-.67.45-.22.22-.67-.11-.66-.11-1.22-.34-1.23-.22-1.11-.11-1-.11-1.66-.11-1.56-.23-1.55.56-1.67v-1.11l-.22-.88-.45-.56-.88-.55-1-.45-.89-.44-.22-.78-.12-1-.22-.78-.33-.44-.67-.11-.77-.45h-2.34l.12-1.11-.12-1.44v-2l-.11-.66-.22-.67-.44-.89-.23-.66h.45l.33-.12.22-.55-.11-.67-.44-.66-.56-.45-1.22-.44-.55-.67-.34-.66-.11-.78-.44-.78-.33-.89-.67-.44-.67-.22-1.22-.11-1.11-.45-.89-.33-.66-.78-.56-1.11-.55-.78-.56-.55-.44-.78-.45-.11-.11.11h-.22l-.44.33-.12.45-.33.55-.22.67-.56-.33-.55-.45-.33-.44-.11-.33-.23-.45v-.78l-.11-.77-.33-1.34.55-.44.34-.78.33-1v-3.22l1-5.88-.22-2-.34-2.44.12-1.78 1.88-5.33 6.44-10.32 3-6.78 11.33-14.21 1.77-4.22 2.78-2.11 11.1-5.44 4.56-2.11 4.55-1.11 6.44 1.11 9.22 2.56h3.88l4.33-.45 4.11-.44 3.11 1.55 3 4.89 8.99 3.66 1 1 .89 8.11 1.11.33 1.44.33 1.34.22h1.44l1.78-.11 36.64-8.21 28.76-6.11 8.77-1.89 3.44-1 6.11-3.44 5.77-5.88 4.11-7.44 2.44-7 .45 4.11.44 2.44.56 1.45.55.44.67 15.44 2.11-.45.44-3.44 14.77-8.22 6.66-3.44 4.11-13.32 3.11-10.77 2.11-6.11 3-9.88 2.66-8.44.23-.67 10.99 13.66 3.55 1.22 7.77 4 3.34 1.33.66.33.56.67.11.22 2.44.11 5.44.11 2.33.45 8.78 1.66-.34 3v.89l.11.89.45.55 3.22 2.11.77 1 .45 1 .22 1.22-.44 3.11-.56 1.89-.55 2-.45 1.22-1.11 1.11 59.63 65.51 6.55 6.77 23.1 23.76 98.04 100.49 12.77 13.1 1.78 1.88 65.07 66.85 4.66 5.88.67.67 54.63 56.62 5.11 2.67 8.1 14.88 9.44 3.1.56 2.22-.12.89-.11 2.56.34 1.77.11 1.34-.34.44-.44.55-.55.34-.67.22h-.56l-.44-.11-.78-.67-1.66-1.11h-1.11l-1 .22-1 .34-1.78 1-5.33 4.66-1 1.67-.22 1.11-.22 3.33-.22 1.33-.89 3.33-.56 1.11-.78.78-3.44 1.55-1.88.67-1 .22-1.78.11-3.22 1.11-.78.67-.66.89-1.45.44h-2l-4.11 1.78-2.1 1.55-1.45 1.67-1.77 1.44-1.23 1-.33.78-.55.44-.56.33-.89.34-.66.33-.67.33-1.11.34-2.44 1.77-2.11.45-1.34-.23-1 .12-1.22.44-1.66 1.11-1.89 1.78-1.89 1.33-2.33 2.55-.55 1.11-1.67 1.78-.89.89-1.55 2.22-.78.33h-.56l-.66-.33-.45-.56-.44-1.88-.11-.67-.22-.33-.23-.23-1.99-.22h-.34l-.44.11-.45.11-1.44.67h-.55l-.34-.11-.44-.11-.45-.45-.33-.44-.33-.78-.33-.44-.34-.45-.33-.11-.33.11-.34.34-.22.44-.22.34-.45.44-.44.22-.55.33-3.78 1-.56.34-.33.33-.33.56-.22.44-.23.55-.66 2.45-.22 1-.12.66.12.67v.55l.11.67.22.67 1.44 2.33.67 1.44 2 4v.55l-.11.45-.34.33-.33.33-.56.11h-.44l-3.44-1.55-.33-.55-.12-.34-.11-.55v-2.33l-.11-.34-.33-.44-.33-.11h-2.78l-.44-.11-.45-.34-.33-.33-.33-.44-.56-.45-.55-.33-.89-.56-1.67-.88-.44-.34-.34-.44-.33-.45-.33-.11-.45-.22-.66-.33-.45-.34-.55-.77-.22-.67-.23-.33-.33-.22-.22-.11-1.11.77h-.67l-.11-.22-.33-.89-.22-.11h-.12l-.33.11-.44.34-.22.11-.23.11h-.22l-.78-.56h-.22l-.11.11-.22.23-.56 1.22-.11.33-.33.33-.33.34-.34.22-.33.33-.22.56-.22.55-.23.56-1.66 3.11-.22.33-.34.11-.33.11-.44-.22-.34-.11h-.44l-.33.11-.45.22-.11.11-.33.22-.89 1.45-.33.22h-.34l-.22-.22-.33-.45-.34-.55-.22-.45-.11-.55v-.45l.22-.77-.11-.45-.22-.55-.55-.78-1.12-1-.44-.11h-.33l-.56.22-1.22.56-.55.44-.56.45-.55.55-.34.56-.33.44-1 1.33-.44.67-.34.89-.33.44-.33.45-2.45 1.88-.33.22-.44.34-.45.22-1.44.44-1 .23h-.67l-.55-.12-5-1.66-.44-.11-.89-.22-.45-.23h-.77l-.45.12-2.33.77-.44.22-.45.23-1.44 1.11-.22.11h-.78l-1.44-1.45-.45-.22-.55-.11h-.67l-.55.11h-.45l-.55-.11-.56-.22-2-1.11-5.77-4.11-.67-.33-.33-.11-.56.11-.55.22-.45.33-.55.34-.44.22-.56.11h-1.89l-.55.22-.34.22-2.33 2.22-2 2.34-.55.77-.33.56-.12.33-.33.11h-.33l-.22-.11-.23-.33-.11-.45-.22-.44-.22-.44-1.67-2.34-.33-.44-.33-.44-.45-.45-.33-.22-.22-.33-.22-.45-.12-.55-.88-2.89-.11-.55-.23-.45-.44-.44-.78-.67-.33-.22h-.89l-1.11-.11h-.44l-.56.11-.44.22-1.11.56-.34.33-.22.33-1 2.67-.11.11-.22.11h-.45l-.11-.33-.22-.56-1-4.55-.89-1.44-.33-.45-.22-.44-1-1.22-.45-.45-.33-.33-2.11-1.89-.44-.44-.22-.34-2.78-4.66-.22-.33-.22-.22-.78-.78-.33-.11-.45-.11h-1l-.22-.12-.89-.44-.33-.11-.33.11-.89.89-.34.11-.33.22-.44.11-.34.11h-.44l-1.22-.11-.45-.11-.55-.11-.33-.22-.67-.45-.45-.44-10.99-12.43-.55-.67-.23-.22h-.44l-.22.22-1 1 2 2.22 4.11 4.77 3.77 4.11 7.55 8.66.67.78 6.77 7.88 3.89 4.44 4.11 4.67 4.33 4.99 6.33 7.33 12.88 14.88 3.55 4.11 1.78 2.11 3.44 3.88.44 1.78 5.67 6.22 1.22 1.44 3.44 4.55 4.77 5.89 2 1 2.45 2.66 1.22 1.56 1.33 1.66 2.55 2.89 5.11 5.99 2.55 2.89 1.12 1.33.33 1.56-1.56 1-2.11 1.22-5.33 4.33-2.33 1.55-4.44 2.78-.89.44-.66.45-3.22 1.88-1.45 1-1.44 1.11-2.78 1.89-2.44 1.67-2.11 1.66-3.44 2.22-3.11 2.11-2.78 1.89-4.44 2.89-3 1.88-2.55 1.67-1.67 1.11-1.44 1.11-2.89 1.78-2.99 2.11-1.23.77-.99.67-1.45.89-.44.33.33.45-2.89 1.88-4.44 3.11-4.33 2.56-8.77 4.55-8.22 3.44-5.1 1.78-7.78 2.22-9.99 3.11-8.44 2.44h-1.11l-6.33 2.22-7.44 2.11-5.55 1.66-6 2.23-.66.22-2.89 1-2.22.66-.67.11-5.33 1.56-7.66 2.11-7.33 2.44-.33-.33-4.77 1.66-2 .56-1 .33-1.11.33-1.11.23-.67.22-.67.22-1.44.56-1.33.55-1 .56-1.78 1.11-.78.66-.88.89-1 1-.78 1.11-.78 1-.44.67-.56 1.11-.66 1.66-.56 1.33-.33.56-1.78 4.55-.33-2.55v-3.11l-1 2-2.89 4.33-7.33 11.32-.88 2.33-.78 2.45-.56 3.44-.44 1.89-.56 2.55-.44 1.78-.67 3.11-.22.77-2.22 6.55-1.33 4.11-2.67 7.22-1.88 6.44-.56 2-.22 3.44-1.33 6.99-.78 2.78-.78 3.22-1.44 5.33-1 2.66-.67 1.45-1.11 1.33-2.22 1.78-6 5.33-8.88 8.77-3.22 3.99-3.77 6z" stroke-linejoin="round"/></defs><use xlink:href="#c" fill="#9dc8ca" stroke="#9dd7f0" stroke-width="5.76"/><defs><path id="d" d="M1158.8 1911.4l-106.27-2.55-4-2.22-6.66-3.67.22-1.88 15.99-25.1 14.33-32.75 2.44-5.44.56-.11.55-.11.67-1.11 1.55-6.78.11-2.22-.22-1.77-.44-1.34-.23-.33-.88-.44-1.78-.34-2.33-.11-1.67-.33-3.11-1.11-1-.67-1.33-1.11-1.66-3.11-2.45-3.22-.77-1.99-2.23-4.89-.88-1.33-1.45-1.11-4.44-6.33-3.55-4.33-.78-2.44-.78-1.78-.77-.67-.56-1-.44-1.66-.34-2.78-.11-5.44-.11-3.33.78-3.77-.33-2.22-.67-2.89-1.55-3.67-.89-1.66-1-2.55-.78-.89-1.33-1.33-2.67-2.23-.55-1.11-.56-1.99-.55-2.67-.56-1.66-1.44-2-1-1.56-4.22-5.66-2-1.55-1.78-.78-2.44-.45-7.99-.44-1.56-.33-1.66-.67-.89-.67-.78-.88-2-4-1.33-3.78-.44-1.33-.23-1.89-.11-2.77-.77-7.88-.34-2.45-.11-3.33-.22-1.11-.33-1-1.23-1.33-1.88-1.55-3.67-2.11-3.66-2.34-4-3.44-1.89-2.44-.88-1.44-2.56-3.22-3.44-2.78-3-1.67-4.55-.88-3.89-1.11-6.88-2.56-1.78-1-1.22-1-1.67-2.11-.77-.88-1.22-.67-1-.78-.67-1-.56-1.33-.66-1.22-1.56-2-1.77-.67-5-1.44-4.77-2.22-10.33-5-1.78-1-1.44-1.44-.56-1.33-.22-.78-.11-3.66.56-6.22.33-3.55-.44-2.33-.56-.89-1.78-1.89-3.99-3.11-1.23-.78-.66-1-3.89-3.55-.78-.78-.44-.77-.33-1.67-.45-5.33.23-6.33.22-2.55.55-2.44v-.89l-.11-.67-.55-1.44-1.56-1.78-2.44-.33-2.11-.56-2.67-1-1.44-.88-.67-.78-.77-1.11-2.33-4.33-.34-1.56v-1.33l.56-4.33v-2.77l-.34-4.11-.66-2.56-.45-1.11-.77-1.22-.22-1.11.11-2.44.44-3.44.67-2.89 2.44-10.1.44-2.22v-.78l-.11-.44h-.55l-.22.11-6.22.88-1.11-.22-2.67-1.77-4.55-3.78-1.89-1.22-1-1.11-1.22-1.78-2.66-3.55-1.56-1.22-3.89-1.33-2.99-.67-6.89.11-3.33.67-3.11-6.44-6.77.11-3 .89-5.22-.89-4-2.89-4.33-4.22-7.32-7.44-5.33-3.11-3.67-3.44v-2.88l1.11-3.56 3.11-1.66-1.22-10.22 1.67-4.55 4.66-4.89 5.44-9.66 3.33-4.55 1.11-3.33 3.55-3.11 3.89-.55 5.89-3.22 2.77-.34 2.56-.77 6.77-2.67-2.55-6.88-.34-.89-3.55-6.66-10.88-12.44-10.77-7.88-8.44-8.88-6.55-11.77-6.56-15.44-7.99-19.43-5.33-15.21-4.44-15.76-3.67-12.22-1.11-1.55 6.78-3.55.55-.23 17.55-8.32 2.99-1.34 2.89-1.44 2.78-1.22 1.11-.56 1-.77.89-.89 1-1.22 1.11-1.67.77-1 .89-1.44 1-1.33 1.11-1.11 1.11-1 1-.78 1-.56 1.11-.44 1.11-.22 1.33-.11h1.67l2.66.22 2.34.33 2.88.11.45.11 2.44.45 1.89.22 5.55.56 2.55.22h1.11l1-.22 2.22-.56 2.89-.67 3.66-.88 3.22-.78 1.56-.22 3.11-.67 2.33-.44 1.11-.34h.22l1.22-.33 8.78-1.78 3.11-.77 1.44-.34 1.78-.66 1.44-.56.89-.33 1.33-.45 4.89-1.77 2.99-1.22 1.45-.56 1.55-.44 1-.45 1.78-.55 1.22-.45 1.55-.44 1.11-.33 2-.56 4.22-1.22 6.11-1.66 2.55-.67 4.22-1.22 2.56-.78 8.99-2.44 1.55-.45 5.45-1.44 4.66-1 2.22-.33 2-.34 2.55-.44 3.22-.67 3.11-.77 4.44-1.34 8-2.44.78-.22 3.1-.89 2.67-.89 2.44-.77 2.11-.78 2.22-.89.45-.22.77-.45.78-.33 1.78-.78 1.66-.99 1.34-.78 2.44-1.56 1.11-.88 1-.67 1.44-1.11 2.56-2.22 2.88-2.67.67-.66 1-1 1.77-1.78 2.23-2.22 4.44-4.66 3-2.89 2.55-2.55 4.88-5.11 3.67-3.55 2-2.22 8.33-8.55 2.11-2.22 9.77-10.11 1.33-1.44 3-3.33 1.44-1.45 1.56-1.33.77-.78.67-.66 2.89-2.89 4.33-4.44 1.88-2 .89-1 2.89-2.77.44-.45 3.89-3.99 4.11-4.11 2.55-2.67 1.67-1.88 2.33-2.34 1.33-1.33.78-1 2.55-3.44.78-1.11.67-1 .88-1.55.78-1.11.67-1.34.22-.33.89-1.55 3.66-7.67 1.34-2.66 1.33-2.22.89-1.33.55-.78 2.22 2.22 11.33-14.1 6.66-7.66 1.89 4.11 1.11 2.55 1.11 2.89 1.33 3.66.89 1.44 9.99 12.44 1.11 1.55 1 1 3.22 2.89 3.11-3.33 19.1-20.65-11.88-13.22-1-1.11-10.22-11.43-2.22-2.67-2.22-2.55-.22-.33 3.55-4 .78-1 1.11-1.33 2-2.11 2.55-2.67.67-.33.78-1 .55-.55 1.89-2 1.89-1.89.11-.22.22-.67 9.11-10.1 6.33-6.44 2.55-2.56 4.55-4.55 5.11-5.11 3.78-4.55 3.88-4.66.22-1.33 1.11-.56.56.78.44-.67.56-.89.44-.77.89-2.33 2.55-6.11.67-2.22 1.56-4.11 1-3.22.88-2.11.89-2.33.67-1.78.33-1 1.11-2.77 1-2.78 1.67-4.44.77-1.78 1.89-5.1 2.67-7.11 1.55-4.22 2.33-6.11 2.78-7.32 1.44-3.78 2.22-5.77 1.45-3.89 1.22-3.55 1.11-2.67 1.33-3.33 1.56-4.44 1.77-4.55 1.78-4.55 1.77-5 1.45-3.77 1.33-3.11 1.67-4.89 1.88-4.88 1-2.67 4.78-12.77 1.77-4.77 1.23-3.44.22-.45 1.22-3.33 2.22-5.33.44-1.22.78-2 1.45-3.88 1.99-5.33 1.78-4.78.44-1.33.89-2.22 1-2.67-.66-.33 5.1-14.32 2.56-6.22 3-8.44 5.1-12.99.89-2.89.89-2.22.44.56 18.99 21.54 17.21 17.32 35.2 35.86 22.88 25.43 8.77 9.77 13.32 14.77 9.44 10.43 3.44 3.78 9.66 10.77 5.11 5.77 22.21 24.76 13.21 14.66 12.77 14.32 18.77 20.88 8.66 7.99 2.11 2.11 9.66 9.77 3.88 3.89 2.45 2.55 3.11 3.11 3.88 3.88 7.55 7.67 2.56 2.55 2.66 2.66 5 5.11 11.88 11.99 2.78 3.11 5.44 5.89 1.77 2 6.67-4.56 14.32 8.55 1.22.11 1 .45.67.11 6.99-1.33 1.56.55v1.56l.11 2.77.11 2.33-3.22.67-2 .55-1.55.45-1.45.55-1.55.67-1.22.56-1.23.66-1.11.56-3.55 2.11.33.44.78.78 3.89 3.99 8.99 9 9.77 9.88 2.56 2.55 13.99 14.1 2.77 3.22 10.55 11.88 19.88 22.66 2.11 1.99 3.55 2.78 18.99 14.32 1.33.78 4.11 5.66 4.33 6.33.56.56.33.55.33.33 9.11 5.22 6.88 11 3.11 4.88 2.11 2.55 1 .89-.11 2.67 1.11-1.67 8.77 3.67 7.66 7.99 4 8.99 1.89 4.11-2.22 5.55-.34.67-.44.89.11.11 4.22 4.55.89-1 5.88-6.99 21.77 13.88 1.44-2 1.67 1.66 1.22 1.22 7.44 8 1.88 2 1.23.89.66.11h.45l51.07 70.17 38.31 21.43.56.22.33.22.78.33.44 9.66.45 7.89.33 4.99.66 6.22.67 6.89.11.66-1 .22-.66.23.11.55.55 3.78.56 3.77.33 2.67.56 3.22.66 3.99.34 2.33.55 2.67.33 2.11 1 4.66.67 3.44.78 3.89 1 5.33 2.22 11.1.11.56.78 3.88 1.55 7.11.33 1.78 1.34 5.88 2.66 13.44 1.22 5.77.22 1.22 2 9.44 1 4.44.45 1.55.11.67-.45-.33-1.66-1.67-7.44-6.88-4.89-4.67-8.77-8.1-3-2.78-8.66-8.1-1.78-1.67-2.22-2.11-6.77-6.77-4.44-4.66-2.11-2.22-.67-.67-4.22-4.55-3.44-3.89-3.77-4.33-2.34-2.77-2.55-2.89-4.66-5.77-4.67-5.89-3.66-4.77-.89-1.11-4.55-6.33-5.55-7.66-8.55-12.55-6.33-9.11-1.11-1.55-5.33-7.22-1.45-2-3.11-3.88-4.44-5.55-4.55-5.33-4.66-5.44-4.78-5.22-4.77-5.11-5-5-3-2.99-2.11-1.89-5.11-4.89-2.33-2.22-1-.88-.88-.78-1.89.55-1.33.45-.78.33-.89.33-1.33.45-1.56.44-2.11.67-1.88.66-2.45.89-1.44.45-1.33.55-1.34.45-1.11.33-.88.33-1 .34-1.34.44-1.22.33-1 .34-1 .33-1.22.33-1.44.45-1.67.55-1.33.56-1.33.44-1.56.56-1.22.55-1.77.78-1.23.66-1 .56-.66.44-.67.45-1.11.77-1.33 1.11-1.44 1.23-1.11.88-1.45 1.23-1.55 1.44-1.45 1.22-1.44 1.22-1.33 1.22-1.67 1.34-1.44 1.22-1.67 1.55-1.22 1-.78.78-.99.77-2.11 2-1.56 1.56-1.66 1.55-4.89 4.89-2.11 2.22-1.44 1.66-.78-1.22-.78-1.33-.78-1.33-2.22-4.11-1.99-4.22-.67-1.33-.67-1.56-.77-1.88-1.34.66-1 .45-2.55 1-3 .99-3.33 1-4.22.89-6.22 1.33-2.88.56-2.22.56-7.22 1.66-14.44 3.11-18.1 4.11-3.99 1-7 1.55-1.44.22-1.45.23-1.22.22h-.33l-8.44 1.11-4.22.55-6.55.56-6.66.33-7.33.33h-1.89l-2.44.23.66.88 1.56 2.11 1 1.34 3.44 5.1 1.44 2 1.56 2.22 1.22 1.78 3.11 4.22 2.22 3.33 1 1.33 1.44 2.11 1.11 1.56 2.34 3.33 1.11 1.55 2.44 3.33 3.77 5.33 4.56 6.33 2.22 3-.56.55-9.99-14.54-.67 1.33-2.66-3.66-11.22 5.66-29.76 6.11-20.87 1.66-27.87-11.21-2.11-2.89-14.21 18.65 6.99 9.66.67.34.66.33.78.44 1.22.78 1.67.89 1.11.67 1.11.66 1.89 1 1.11.45 1.11.55-.78 1.11-.67.89-.66.67-.78.66-1 .67-1.44.78-2.45 1.33-1.66.89-1.56.77-2.55 1.22-2.66 1.23-1.45.66-1.77.89-2 1.11-2.22 1.33-3.34 2.11-1.77 1.22-1.33.89-1.89 1.33-3.33 2.22-2.89 2.23-2.78 1.77-2.88 1.89-2.89 2.11-5.33 3.77-3.33 2.22-1.11.67-.78.67-.89.55-4.22 3.11-3.44 2.78-9.44 7.1-6.44 4-2.77 1-1.45.11-1.88-.33-2.45.22h-.44l-3 .44-1.89.78-5.88 3-3.22 2.11-2.11 1.66-1.78 1.78-3 3.44-.77 1.45-.89 2.22-2.33 9.54-.12 2.11-1.44 6.22-.22.45-3.11 5.33-3.22 6.44-1.22 2.44-2.56 5.88-2.22 4.44-2.44 9.11-.55 3.66-11.11 14.88-2.44 1.44-.78 1.56-4.44 2.89-3.66 1.88-4.22 2.56-3.89 3.11-2.55 2.44-1.11 3-.23 2.99.45 4.56.44 2.77-.66.67-.23 1 .12 3.11-.23 1.11-.55 1.22-.89 1.44-1 .67-.78.11-2.55-.11-.44.33-.23.78v1.22l.34.89.66.89 1 1 .67.88.66 1.22.45 1.67v2.22l-.22 1.22-.34.67-1.33.11-1.89-.11-.66-.33-.45.55v.67l.34 1.77.66 1.34 1.11.77.78.22 3.11.12 1.55.55.56.89.55 1.44.11 1.67-.33 1.77-.66 1.34-1.12 1.33-1.44 1.44-.22.78.11.89.33 1.11 2.67 2.89 1.66 1.55.78 1.22 1.78 2.67 1.44 1.33.45 1.11.33 1 .11 1.33-.33 1.11-3 3.22-.56 1.78-.11 1.88.22 1.23.56 1.99.44.89 1 .78.56.22.11.67v.89l-.67 3.77-.89 2.11-.99 2-.67.78-.56 1-.22.77.11 1 .45 1.34.89 2.1.99 1.45.67.55.45.23h.44l1 .22.89.55 1.55 2.22.78 1.45.55 1.11.11 1.22v3.22l-.44 4.77-.67 2.45-.44.88-.55.67-.78.44-1.78.34-1 .44-1.11 1.22-1.11.89-1.44 1.44-1.33 1.78-1 2.22-1.89 2.55-.67.23-1 .22-.44.22-.45.67-.55 1.44-.11.67.11 2.44-.22 1-.34.78-2.77 3.44-2.67 2.44-1.55 1-1.44.44-1.56.56-.78.55-2.22 2.34-3.22 4.55-2.55 4.99-3.44 3.78 3.88 2.44-61.96 91.38-38.86 6.22-27.2 11.21z" stroke-linejoin="round"/></defs><use xlink:href="#d" fill="#6bacaf" stroke="#6bb4d2" stroke-width="5.76"/><defs><path id="e" d="M793.26 1308.73l-6.78 3.55-4.99-9.33-5.55-7.22-12.11-9.66-.89-.66-14.32-5-5.66 9.77-12.77 21.65-31.2 10.22-10.77-10.22-25.43-58.84-1.89-7.44 16.43-26.54 2.78-8.66.78-1.66.66-1.78.23-1.33v-1.56l-.23-1.22-.11-.44-.66-1.22-1.78-1.34-2.67-1.77-3.99-4.56-2.33-1.22-19.55-9.43-14.43 8.88-16.21 35.08-5.56-3.22-.11-.33-1.77-1.22-2.34-2.44-1.77-3-1.11-4.22-1.22-5.33-.45-8.22.33-10.77-.55-10.43-.67-6.22-.88-5.33-2.23-7.55-1.88-6-3.33-5.88-2-4.11-.78-2.44-1-4.66.44-1.78.34-1.44 1.44-2.67 3.33-2.55 7.55-3.78 8.55-3.88 3.56-1.34 1.55.11 1.78.23 4.11 3.11 3.99 3.22 4.78 2.33 4.55 1.66 1.78 1.45 1.11 1.77 1.55 1.78 1.45.78 1.55.44 3.78-.44 3.33-.67 3.33-.44 4.66-.56 2.33-.33 5.22-1.11 1.89-1 5.88-2.56 3.78-.99 3.44.66 8.22.67 3.55.89 3.78 1.11 3.11.77 2.99.11 3.34-.44 7.32-2.22 2.78-1.78 1.33-2 .78-1.33 1.33-1.66 1.45.22 1.77 2.44 1.45 1.78 2.44 1.11h1.44l1-.22 3.11-2 .22-.11.56-1.56-.45-3.22.78-3.22 1.78-1.77 3.66.66 2.11-.44.56-.11 8.77 2.44 3.77 1.11 1.78-.44.89-1.78-.22-4.22.88-2.78 1.56-1.66.33-3.44 1.67-3.11 1.89-4.44-.34-4.44-3.11-3.78-3.77-18.99 3.22-8.21 4.88-4.44 1-1 10-9.11 1.44-1.22-2.11.33-13.77 2-1.33.23-7 1.11.23-6.22-2.22-7.66-5.78-6.55-2.89-5.78-5.44-4.11-8.21-18.65 1-2.33 2.55-3.33.44-1.33.12-.67 5.77-4 1.22-6.33-8.11-14.76-12.65-11.77-5.22-24.99-7.66-18.87.88-5 2.67-3.55 5.33-11.99 1.44-11.33.45-4.99.33-3.67 3.44-6.1 7.66-4.78 15.55-2.66 1.33-2v-1.89l-.89-3.88-1.44-4.45.33-5.66 5.11-4.77 3.55-4.89-.11-4.44-2-2.66-3.44-.45-4.33-1.89-1.78-9.43-3.33-3.33h-2.44l-11.99-14.99-2.67-11.66-1.11-.45-20.87-6.66-3.89-1.22-28.31-12.99-1.67 3.11-2.11.78-1.55 1.33-1.22 1.66-7.44-3.44-8.33-4-6.44-2.99-3.33-1.11-1.67.11-1.33.22-1.56 1-1.22.89-.89 1-1.66-2.22-1.67-2.56-1.77-3.33-.78-1.33-.56-1-1.66-3.22.44-1.78.11-1.22.45-3.44.33-2.55.22-1.56.23-.78v-.33l2.33-11.55.44-1.66 1.56-5.44 4.66-11.99 1-3.11.33-.89 1-2.33.56-1.11v-.11l.77-1.45 3-10.43 1.78-1.11 1-.56 1.33-.55 1.44-.56.67-.22.67-.22 1.11-.23 1.11-.33 1-.33 2-.56 4.77-1.66.33.33 7.33-2.44 7.66-2.11 5.33-1.56.67-.11 2.22-.66 2.89-1 .66-.22 6-2.23 5.55-1.66 7.44-2.11 6.33-2.22h1.11l8.44-2.44 9.99-3.11 7.78-2.22 5.1-1.78 8.22-3.44 8.77-4.55 4.33-2.56 4.44-3.11 2.89-1.88-.33-.45.44-.33 1.45-.89.99-.67 1.23-.77 2.99-2.11 2.89-1.78 1.44-1.11 1.67-1.11 2.55-1.67 3-1.88 4.44-2.89 2.78-1.89 3.11-2.11 3.44-2.22 2.11-1.66 2.44-1.67 2.78-1.89 1.44-1.11 1.45-1 3.22-1.88.66-.45.89-.44 4.44-2.78 2.33-1.55 5.33-4.33 2.11-1.22 1.56-1-.33-1.56-1.12-1.33-2.55-2.89-5.11-5.99-2.55-2.89-1.33-1.66-1.22-1.56-2.45-2.66-2-1-4.77-5.89-3.44-4.55-1.22-1.44-5.67-6.22-.44-1.78-3.44-3.88-1.78-2.11-3.55-4.11-12.88-14.88-6.33-7.33-4.33-4.99-4.11-4.67-3.89-4.44-6.77-7.88-.67-.78-7.55-8.66-3.77-4.11-4.11-4.77-2-2.22 1-1 .22-.22h.44l.23.22.55.67 10.99 12.43.45.44.67.45.33.22.55.11.45.11 1.22.11h.44l.34-.11.44-.11.33-.22.34-.11.89-.89.33-.11.33.11.89.44.22.12h1l.45.11.33.11.78.78.22.22.22.33 2.78 4.66.22.34.44.44 2.11 1.89.33.33.45.45 1 1.22.22.44.33.45.89 1.44 1 4.55.22.56.11.33h.45l.22-.11.11-.11 1-2.67.22-.33.34-.33 1.11-.56.44-.22.56-.11h.44l1.11.11h.89l.33.22.78.67.44.44.23.45.11.55.88 2.89.12.55.22.45.22.33.33.22.45.45.33.44.33.44 1.67 2.34.22.44.22.44.11.45.23.33.22.11h.33l.33-.11.12-.33.33-.56.55-.77 2-2.34 2.33-2.22.34-.22.55-.22h1.89l.56-.11.44-.22.55-.34.45-.33.55-.22.56-.11.33.11.67.33 5.77 4.11 2 1.11.56.22.55.11h.45l.55-.11h.67l.55.11.45.22 1.44 1.45h.78l.22-.11 1.44-1.11.45-.23.44-.22 2.33-.77.45-.12h.77l.45.23.89.22.44.11 5 1.66.55.12h.67l1-.23 1.44-.44.45-.22.44-.34.33-.22 2.45-1.88.33-.45.33-.44.34-.89.44-.67 1-1.33.33-.44.34-.56.55-.55.56-.45.55-.44 1.22-.56.56-.22h.33l.44.11 1.12 1 .55.78.22.55.11.45-.22.77v.45l.11.55.22.45.34.55.33.45.22.22h.34l.33-.22.89-1.45.33-.22.11-.11.45-.22.33-.11h.44l.34.11.44.22.33-.11.34-.11.22-.33 1.66-3.11.23-.56.22-.55.22-.56.33-.33.34-.22.33-.34.33-.33.11-.33.56-1.22.22-.23.11-.11h.22l.78.56h.22l.23-.11.22-.11.44-.34.33-.11h.12l.22.11.33.89.11.22h.67l1.11-.77.22.11.33.22.23.33.22.67.55.77.45.34.66.33.45.22.33.11.33.45.34.44.44.34 1.67.88.89.56.55.33.56.45.33.44.33.33.45.34.44.11h2.78l.33.11.33.44.11.34v2.33l.11.55.12.34.33.55 3.44 1.55h.44l.56-.11.33-.33.34-.33.11-.45v-.55l-2-4-.67-1.44-1.44-2.33-.22-.67-.11-.67v-.55l-.12-.67.12-.66.22-1 .66-2.45.23-.55.22-.44.33-.56.33-.33.56-.34 3.78-1 .55-.33.44-.22.45-.44.22-.34.22-.44.34-.34.33-.11.33.11.34.45.33.44.33.78.33.44.45.45.44.11.34.11h.55l1.44-.67.45-.11.44-.11h.34l1.99.22.23.23.22.33.11.67.44 1.88.45.56.66.33h.56l.78-.33 1.55-2.22.89-.89 1.67-1.78.55-1.11 2.33-2.55 1.89-1.33 1.89-1.78 1.66-1.11 1.22-.44 1-.12 1.34.23 2.11-.45 2.44-1.77 1.11-.34.67-.33.66-.33.89-.34.56-.33.55-.44.33-.78 1.23-1 1.77-1.44 1.45-1.67 2.1-1.55 4.11-1.78h2l1.45-.44.66-.89.78-.67 3.22-1.11 1.78-.11 1-.22 1.88-.67 3.44-1.55.78-.78.56-1.11.89-3.33.22-1.33.22-3.33.22-1.11 1-1.67 5.33-4.66 1.78-1 1-.34 1-.22h1.11l1.66 1.11.78.67.44.11h.56l.67-.22.55-.34.44-.55.34-.44-.11-1.34-.34-1.77.11-2.56.12-.89-.56-2.22 4.66 9.44.56.56 5 5.22 11.32 11.43 5.11 4.66 4.33 4.11 4.89 1.45 13.21 12.88 18.65 18.54 12.33 12.21 7.11 7 .77.77.56.78.66-.11 1-.22 3-.45 3.78 1.34.77.33 2.56 1.89 8.33 2.66 1.44 9.77 13.88 9.55 6.11 5.44 6.55 7.33 7.44 9.66 12.43 14.43-3.55 2.78-3.44 2.44 7.44 7.55 22.87 23.32 6.44 6.55 42.64 43.41 58.52 61.96 4.11 4.22 7.44 7.88 34.53 36.75 2.33 2.33-.89 2.22-.89 2.89-5.1 12.99-3 8.44-2.56 6.22-5.1 14.32.66.33-1 2.67-.89 2.22-.44 1.33-1.78 4.78-1.99 5.33-1.45 3.88-.78 2-.44 1.22-2.22 5.33-1.22 3.33-.22.45-1.23 3.44-1.77 4.77-4.78 12.77-1 2.67-1.88 4.88-1.67 4.89-1.33 3.11-1.45 3.77-1.77 5-1.78 4.55-1.77 4.55-1.56 4.44-1.33 3.33-1.11 2.67-1.22 3.55-1.45 3.89-2.22 5.77-1.44 3.78-2.78 7.32-2.33 6.11-1.55 4.22-2.67 7.11-1.89 5.1-.77 1.78-1.67 4.44-1 2.78-1.11 2.77-.33 1-.67 1.78-.89 2.33-.88 2.11-1 3.22-1.56 4.11-.67 2.22-2.55 6.11-.89 2.33-.44.77-.56.89-.44.67-.56-.78-1.11.56-.22 1.33-3.88 4.66-3.78 4.55-5.11 5.11-4.55 4.55-2.55 2.56-6.33 6.44-9.11 10.1-.22.67-.11.22-1.89 1.89-1.89 2-.55.55-.78 1-.67.33-2.55 2.67-2 2.11-1.11 1.33-.78 1-3.55 4 .22.33 2.22 2.55 2.22 2.67 10.22 11.43 1 1.11 11.88 13.22-19.1 20.65-3.11 3.33-3.22-2.89-1-1-1.11-1.55-9.99-12.44-.89-1.44-1.33-3.66-1.11-2.89-1.11-2.55-1.89-4.11-6.66 7.66-11.33 14.1-2.22-2.22-.55.78-.89 1.33-1.33 2.22-1.34 2.66-3.66 7.67-.89 1.55-.22.33-.67 1.34-.78 1.11-.88 1.55-.67 1-.78 1.11-2.55 3.44-.78 1-1.33 1.33-2.33 2.34-1.67 1.88-2.55 2.67-4.11 4.11-3.89 3.99-.44.45-2.89 2.77-.89 1-1.88 2-4.33 4.44-2.89 2.89-.67.66-.77.78-1.56 1.33-1.44 1.45-3 3.33-1.33 1.44-9.77 10.11-2.11 2.22-8.33 8.55-2 2.22-3.67 3.55-4.88 5.11-2.55 2.55-3 2.89-4.44 4.66-2.23 2.22-1.77 1.78-1 1-.67.66-2.88 2.67-2.56 2.22-1.44 1.11-1 .67-1.11.88-2.44 1.56-1.34.78-1.66.99-1.78.78-.78.33-.77.45-.45.22-2.22.89-2.11.78-2.44.77-2.67.89-3.1.89-.78.22-8 2.44-4.44 1.34-3.11.77-3.22.67-2.55.44-2 .34-2.22.33-4.66 1-5.45 1.44-1.55.45-8.99 2.44-2.56.78-4.22 1.22-2.55.67-6.11 1.66-4.22 1.22-2 .56-1.11.33-1.55.44-1.22.45-1.78.55-1 .45-1.55.44-1.45.56-2.99 1.22-4.89 1.77-1.33.45-.89.33-1.44.56-1.78.66-1.44.34-3.11.77-8.78 1.78-1.22.33h-.22l-1.11.34-2.33.44-3.11.67-1.56.22-3.22.78-3.66.88-2.89.67-2.22.56-1 .22h-1.11l-2.55-.22-5.55-.56-1.89-.22-2.44-.45-.45-.11-2.88-.11-2.34-.33-2.66-.22h-1.67l-1.33.11-1.11.22-1.11.44-1 .56-1 .78-1.11 1-1.11 1.11-1 1.33-.89 1.44-.77 1-1.11 1.67-1 1.22-.89.89-1 .77-1.11.56-2.78 1.22-2.89 1.44-2.99 1.34-17.55 8.32-.55.23z" stroke-linejoin="round"/></defs><use xlink:href="#e" fill="#6bacaf" stroke="#6bb4d2" stroke-width="5.76"/><defs><path id="f" d="M2140.82 2476.22l-.56.22-4.44 9.99-1.55.34-.45-1.22-.33-1.23-.44-1-2.56-3.88-5.66-11.1-5.33-8.55-2.78-3.67-12.54 13.99 7.88-19.32-2.22-3-4.89-5.66-3.99-5.22-2.11-2.66-1.89-3.22-3.22-3.89-3.67-4.44-8.88-9.99-2.66-3.55-9.78-11.44-.88-.89-.78-.44-1.44-.56-7.78-7.99-9.66-8.77-2.11-1.67-4.55-3.44-5.55-3.89-1.11-1.11-2.11-1.33-2.78-2.33-3.22-1.89-.55-.44-.89-.67-1.33-2.33-2-1.44-4.11-3.22-.78-.45-1.78-1-6.1-3.88-3.78-1.89-9.66-5.77-5.33-2.45-8.21-4.33-7.22-3.66-16.1-7.33-14.55-6-4.66-1.33-5.11-2.22-5.55-1.66-9.66-4.33-5.11-1.78-7.22-2.44-3.33-.78-4.33-.33-2.11-1.11-2.77-2.22-1.67-.89-10.77-4.11-7.66-2.33-6.67-1.67-.66-.11-1.33-1-1.34-.66-2.66-2-3.33-2.67-2-1.22-2.22-1.11-1.56-.44-1.11-1-1.66-1.56-1.22-.44h-2.78l-4.89-1.67-5.99-2.88-7.55-2.89-7.44-3.33-8.11-4.11-2.22-2.11-.66-.44-2.23-1.34-2.66-1.77-5.44-3.78-5.22-4.55-1.11-1.33-1.67-2-1.55-1.44-1.67-1.23-2.33-1.88-2.77-2.22-4.22-2.22-2.78-2.11-3.77-2.78-2.22-1.66-1.67-1.78-.89-.67-2.44-.89-2.22-.33.11-2.44 1.33-1.22 1.33-1.67.89-1.33-1.44-1.22-1-.89-1.22-1.67-1-1.88-.45-1.56v-6.44l.45-7.21.33-5.67.33-4.66.12-2.67-.23-3.44-.11-2.33-.66-2.44-.78-1.89-1.33-2.89-6.67-11.65-.33-.89-.22-1-.11-2.44.33-1.89 1.78-8.77-.22-2.78-.45-2-1-2.55-1.89-2.78-2.33-4.22-1.55-2.55-4.89-8.88-4.99-8.89-6-10.54-.89-2-1.22-2.89-.67-2.33-.44-3.66-.11-3-.11-3.33-.11-8.44-.11-3.78-.23-18.09-.33-6.22-.22-5.89v-8.66l-.34-1.89-.66-3.1-.78-2.45-1-4.1-.11-1.56.45-15.99-.67-6.33.11-1.11.11-1 .56-1.66.77-2.33.11-.89v-.56l-.11-1-.22-1.22-.44-.89-.45-.88-1.66-2.22-.56-1-.44-.78.33-.78.11-.33.11-.56.56-2.11.55-3.44.45-2.22 1.22-5.88.55-2.11-1.55-2.11.33-1 1-4.89 1.22-3.77.67-3.67.67-3.33 1.44-5.88 1.33-5.33 1.56-6.44 1.66-7.11 1.67-6.99 1.77-7.66 2.89-12.44.22-.89.89-3.55 2.22-9.77.11-.67 1-4.22.89-3.77 1.11-4.22.67-2.89 1.44-5.88 1.78-6.55 1-3.11 1.22-3.67 1.22-3.33 1.55-3.88.45-.89.44-1.11 1.78-3.67.56-1.22 1.88-3.77 1.56-2.56 1.44-2.55 1.56-2.55 1.66-2.45 1.56-2.44 2.55-3.55 1.78-2.33 1.55-1.89 2.78-3.55 1.22-1.22 2-2.23 1.55-1.66 1-1.11 1.55-1.44 1.23-1.11 1.88-1.89 1.45-1.11 1.66-1.45 1.34-1.22 4.1-3.44 2.89-2.66 5.11-4.22.89-.89.66-.56.89-.66 4-3.33 2-1.67 7.22-6.55 2.44-2.44 7.55-6.44 8.99-7.89 8.66-7.55 1.45-1.33 1.22-1 10.33-8.77 7.21-6.44 1-.89 5.44-4.44 6.44-5.66 6.44-5.44 1.45-1.33.55-.56 1.67-1.33 2.66-2.44 1.22-1.23 1.23-1.22 2.1-2.11 1.78-1.99 1.11-1.34 1.56-1.77 1-1.23 1.11-1.33 2.33-3.22 1-1.66.55-.78 1.89-3.11 1.67-2.89 1.77-3.55.78-1.33 1.55-3.44 1.67-4.11 1.44-4 1.22-4 .67-2.44.45-1.66.99-4.22.89-4.22.56-3 .22-1.44.22-1.67.22-1.78.12-1.33v-.66l.22-3.11.11-2.22v-2.22l-.11-1.78v-2.89l-.11-1.44-.11-2.78-.23-2.88-.11-.78-.11-1.22-.11-.89-.11-.78-.22-2.22-.45-2.44-.55-2.33-.56-2.78-3.22-16.21-.33-1.11-.33-1.89-2.56-12.1-1.44-6.55-2.11-9.44-.89-4.11-.55-2.44-.12-1.11-.44-2.33-.33-2.11-.11-.67-.45-1.55-1-4.44-2-9.44-.22-1.22-1.22-5.77-2.66-13.44-1.34-5.88-.33-1.78-1.55-7.11-.78-3.88-.11-.56-2.22-11.1-1-5.33-.78-3.89-.67-3.44-1-4.66-.33-2.11-.55-2.67-.34-2.33-.66-3.99-.56-3.22-.33-2.67-.56-3.77-.55-3.78-.11-.55.66-.23 1-.22-.11-.66-.67-6.89-.66-6.22-.33-4.99-.45-7.89-.44-9.66 37.31 17.33 8.21.77 3.45.34h10.99l8.66-4.67 7.66 9.55 10.55 11.99 36.75 8.66 43.97 5.89 16.44-3.89 2-.44 18.43-3.33 4.55-.89 8.66-4 11.99-5.55.56-.22 2.55 2.11 3.33 2.55-.99 9.66.11 4.44-2.45 1-1.44 2.78-2.44 5.77-1.11 4.66 1.33 6.44 3.33 16.21 1.56 5.78-2.89-.34-1.67-.11-1.44-.11h-1.33l-1.56-.22-2-.11-1.88-.11-3.67-.11-.44 1.11-4.89 2.11-1.11 3.77.45 11.66 1.33 32.75.11.78.44 10.44v1.55l.45 7.89.11 2.33v.22l.66 9.66h-4.1l-4-.33-2.56-.34-6.55-1.44-2.66-.56-3.11-.77h-.78l-.89.33-.55.44-.89 1.56-2.33 4.66-1.33 2.56-1 2.44-.34.89.23 2.66-3.11 7.55-10 24.1-3.22 7.44-15.43 37.19-.67 1.22-.77 1.45-4.22 7.21-1.56 2.67-10.44 17.87-1 1.56 1.56 1 2 1.66 2 1.89 1.77 2 1.11 2 1.45 2.77 4.66 10 .89 1.99.78 1.67 1.22 1.78 1.11 1.55 2.88 3.22 20.88 19.54 1.67 1.56 1.66 1.77 1.67 2.11 2.33 3 2.22 3.44 1.44 2.33 1.11 2.22 1.11 2.34 1 2.66.56 2 2.77 9.77 1.89 7.11 1.22 4.99.45 2.33.33 2.89.22 4.66.11 3.22.34 3.78.11 2.11.11 2v1.77l-.11 2.45-2.56 11.54-4.33 16.99-1 3.89-1 5.22-.33 4.1-.22 4.33.11 1-.11 1.34-.11 1.22.33 8.88v4.33l-.66 17.54-.45 2.11-.67 5.33-.77 4.55-.45 2.67.11 2.78.23 1.99v.67l.44 2.44.78 3.89.78 2.89 1.66 6.55 1 3.66 2.22 6.55 2.22 5.66 1.67 3.56 1.44 2.11 1.44 1.77.67.78 2.55 2.55 14.22 10.33 2.11 1.89 1.44 1.55.89 1.67.33 1.44.67 4.33v2.78l-.11 1.66-8.44 25.21-1 2.88-.45 1.89-.44 1.89-.33 1.89-.11 1.66-.23 2.22.12 2.44.22 6.67.11 1.11.44 5.66.34 5.99.66 6.33.22 2.11.34 2.78 1.44 6.66 1.22 5.77 2.11 8 1.89 7.33 1.89 6.77 1.33 4.66 2.22 8 2.33 8.44.67 1.99.44 1.45.78 1.55 1 2.11 1.89 3.44 1.22 2.11.78 1.78.66 2.22 1.22 3.22.23 1.22-.56.22-.67.34-1.33.66-.89.45-1.11.77-1.11.89-1.11 1-1.22 1.22-1.33-1.33-.67-.67-.44-.77-.34-.56-.11-.22-.22-.78-.55-1.55-1-4.66-.56-2.78-2.66.44-1.56.23-4.66.88-1.22.12-.78-.12-1.55-.33-1.23-.33-2.55-.78-3.33-1.22-4.66-1.56-1.45-.44-1.11-.22h-.89l-.44.11-1.22.33-3.89 1-2.22.45-1.33.22-3.67 7.88-.44.89-5.66-3.22-1.22-.78-1-.55-4-2.45-15.99-9.43-8.44-4.89-2.33-1.44-.67-.45-.66-.55-.45-.45-.44-.55-.56-1-5.33.78-2.22.33-.78.22-.88.22 2.66 8.44 2.67 8.11 2.55 8.1 1.44 4.67-7.77 2.55-9.55 3.44-1.78 1.34-1.33 1.11-1.66 1.99-1.34 2.45-1.33 2.22-1.33 1-1.67.33-11.32 8.88 6.66 9.44 16.88 23.21 3.88 5.44 32.43 45.74 13.54 18.99 4.78-8.33-5.22-7.66-2.22-3.11-8.22-11.1-3.55-4.67-1.89-2.66-.55.55-1.56.78-.55-.11-.56-.22-1.11-1.11-7.55-10.55-.89-1.44-.33-1 .22-1.56 1.56-3.44.66-1.11.78-.89.55-.44 2.11-1.78-.55-.78-.22-1.33.33-1.89 1.11-3.55.78-2 1-1 2.55-.77-.22-1.34-.11-.77v-1l.22-.78.11-.56.11-.33.22-.78.34-.99.33-.78.44-1 .34-.67.33-.55.44-.89.67-.78.44-.55.67-.67.67-.55.89-.89.66-.56.89-.78.89-.66 5.77 7.99 4.89 6.89 4.22 5.77 4.22 5.77 4.99 6.89.56.89.78 1 3.44 4.88 3.33 4.55 2.11 2.89.67-1 .77 1.56-.44.77 2.55 3.56.78 1.22 5.22 7.21 5.33 7.22 1.89 2.67 3.77 5.21 5 7.11 5.22 7.11 5.77 8.1 10.33 14.44 5.77 7.88 6.33 8.77 7 9.77 8.55 11.88 2.88 4 3.45 4.77.55-.77 3 3.88 3.33 5.11 3.66 4.88-.55.78-16.66 28.43-.66.99-1 .89-1.45 1.11-2.99 1.78-1.11.56-.34 1.88-.44 3.22 11.55 15.32.55.78 10.11 14.21 12.54 17.44-17.21 2.88-.44.45-.56.77-4.99 7.89-14.11 24.76-3.55 2.22-5.99 4 .99-3.34-.66-.55z" stroke-linejoin="round"/></defs><use xlink:href="#f" fill="#09757a" stroke="#097d9b" stroke-width="5.76"/><defs><path id="g" d="M1762.29 2225.29l-.11 2.44-1.56-.22-4.44-.45-4.55-1.66-2.67-.67-3.33-.44h-4.77l-5.22.78-2.22-.67-14.99-6.44-3.67-1.67-.77-.33-6.44-3.66-4.56-2.56-1.88-.66-2.22-.45-1.78-.11-1.11-.44-1.33-.78-3.67-3.44-3.11-1.89-9.32-6.55-5.45-3.33-3.33-1.33-2.77-1.45-2.56-1.88-3.55-2.11-4.55-2.33-1.11-.34-.45-.22-.88-1-1.23-.78-1-.22-.55-.22-.78-.44-2.88-2.89-3.89-2.33-2.22-1.78-5.33-3.33-.89-.33h-.67l-1.55.22-1.11-.22-.67-.34-3.44-1.55-4.77-2.44-4.11-3.22-9.66-5.33-5.78-3.89-5.55-3.77-1-.34-1.33-.22-2.33-.89-5-3.88-7.66-4.33-2.22-1.23-3.56-2.44-2.22-1.66-12.21-7.66-1-.12-.55.12-1.23-.56-.88-.33-2.78-1h-2.11l-2.44.22-.56-.44-.33-.89-.33-1.22v-1.23l.22-.33-1.22.78-7.11 17.21-53.19-9.99-1.44-3.33 8.99-15.33 6.55-8.21-.22-.78-1.33-.56-2.78-1.11-1.77.34-1-.11-1.33.33h-.67l-1.22-.33-4.78-.67-3.33-.78-1.89.34-.44.22h-1l-7.11-1.78-3.77.56-.44.11-1 1.77-.78.34-1.45.33-5.77.33-6.22.11-4.11-.44-3.44-1-1.77-.78-3.56-1.66-2-1.11-2.11-2.22-1.11-1.45-1.22-2.11-2.66-3.22-7.22-9.1-.67-.89-.55-1.78-.78-1.11-.55-.55-1.11-.44-1.89-.12-1.89-.55-2.44-1.78-4.11-3-4.11-3.44-.89-.44-.66-.11-.78.22-.22.33-.78.34-.78-.23-1.77-1.77-5.56-6.55-1.22-1.22-2.55-1-1-.56-2-3.33-1-1.44-2.55-2.89-.34-.11-1.22.44-.77-.33-.89-.67-2-1.88-1.22-1.45-.56-1.66-.55-3.33-.45-.67-.55-.56-1.11-.44-.56-.55-.22-.45.33-.89-.22-1.55-.78-1.11-1-.56-.77-.33-1-.67-3-2.66-1.11-.45-2.11-2.1-3.44-3.11-3.33-2.45-1.89-.22h-1.56l-2.44.11-2.44-.55-2.78-2.33-.55-.89-.11-1.33-1.11-4.67-.34-.78-23.65-4.44-64.07-35.97-96.93-54.52 27.2-11.21 38.86-6.22 61.96-91.38-3.88-2.44 3.44-3.78 2.55-4.99 3.22-4.55 2.22-2.34.78-.55 1.56-.56 1.44-.44 1.55-1 2.67-2.44 2.77-3.44.34-.78.22-1-.11-2.44.11-.67.55-1.44.45-.67.44-.22 1-.22.67-.23 1.89-2.55 1-2.22 1.33-1.78 1.44-1.44 1.11-.89 1.11-1.22 1-.44 1.78-.34.78-.44.55-.67.44-.88.67-2.45.44-4.77v-3.22l-.11-1.22-.55-1.11-.78-1.45-1.55-2.22-.89-.55-1-.22h-.44l-.45-.23-.67-.55-.99-1.45-.89-2.1-.45-1.34-.11-1 .22-.77.56-1 .67-.78.99-2 .89-2.11.67-3.77v-.89l-.11-.67-.56-.22-1-.78-.44-.89-.56-1.99-.22-1.23.11-1.88.56-1.78 3-3.22.33-1.11-.11-1.33-.33-1-.45-1.11-1.44-1.33-1.78-2.67-.78-1.22-1.66-1.55-2.67-2.89-.33-1.11-.11-.89.22-.78 1.44-1.44 1.12-1.33.66-1.34.33-1.77-.11-1.67-.55-1.44-.56-.89-1.55-.55-3.11-.12-.78-.22-1.11-.77-.66-1.34-.34-1.77v-.67l.45-.55.66.33 1.89.11 1.33-.11.34-.67.22-1.22v-2.22l-.45-1.67-.66-1.22-.67-.88-1-1-.66-.89-.34-.89v-1.22l.23-.78.44-.33 2.55.11.78-.11 1-.67.89-1.44.55-1.22.23-1.11-.12-3.11.23-1 .66-.67-.44-2.77-.45-4.56.23-2.99 1.11-3 2.55-2.44 3.89-3.11 4.22-2.56 3.66-1.88 4.44-2.89.78-1.56 2.44-1.44 11.11-14.88.55-3.66 2.44-9.11 2.22-4.44 2.56-5.88 1.22-2.44 3.22-6.44 3.11-5.33.22-.45 1.44-6.22.12-2.11 2.33-9.54.89-2.22.77-1.45 3-3.44 1.78-1.78 2.11-1.66 3.22-2.11 5.88-3 1.89-.78 3-.44h.44l2.45-.22 1.88.33 1.45-.11 2.77-1 6.44-4 9.44-7.1 3.44-2.78 4.22-3.11.89-.55.78-.67 1.11-.67 3.33-2.22 5.33-3.77 2.89-2.11 2.88-1.89 2.78-1.77 2.89-2.23 3.33-2.22 1.89-1.33 1.33-.89 1.77-1.22 3.34-2.11 2.22-1.33 2-1.11 1.77-.89 1.45-.66 2.66-1.23 2.55-1.22 1.56-.77 1.66-.89 2.45-1.33 1.44-.78 1-.67.78-.66.66-.67.67-.89.78-1.11-1.11-.55-1.11-.45-1.89-1-1.11-.66-1.11-.67-1.67-.89-1.22-.78-.78-.44-.66-.33-.67-.34-6.99-9.66 14.21-18.65 2.11 2.89 27.87 11.21 20.87-1.66 29.76-6.11 11.22-5.66 2.66 3.66.67-1.33 9.99 14.54.56-.55-2.22-3-4.56-6.33-3.77-5.33-2.44-3.33-1.11-1.55-2.34-3.33-1.11-1.56-1.44-2.11-1-1.33-2.22-3.33-3.11-4.22-1.22-1.78-1.56-2.22-1.44-2-3.44-5.1-1-1.34-1.56-2.11-.66-.88 2.44-.23h1.89l7.33-.33 6.66-.33 6.55-.56 4.22-.55 8.44-1.11h.33l1.22-.22 1.45-.23 1.44-.22 7-1.55 3.99-1 18.1-4.11 14.44-3.11 7.22-1.66 2.22-.56 2.88-.56 6.22-1.33 4.22-.89 3.33-1 3-.99 2.55-1 1-.45 1.34-.66.77 1.88.67 1.56.67 1.33 1.99 4.22 2.22 4.11.78 1.33.78 1.33.78 1.22 1.44-1.66 2.11-2.22 4.89-4.89 1.66-1.55 1.56-1.56 2.11-2 .99-.77.78-.78 1.22-1 1.67-1.55 1.44-1.22 1.67-1.34 1.33-1.22 1.44-1.22 1.45-1.22 1.55-1.44 1.45-1.23 1.11-.88 1.44-1.23 1.33-1.11 1.11-.77.67-.45.66-.44 1-.56 1.23-.66 1.77-.78 1.22-.55 1.56-.56 1.33-.44 1.33-.56 1.67-.55 1.44-.45 1.22-.33 1-.33 1-.34 1.22-.33 1.34-.44 1-.34.88-.33 1.11-.33 1.34-.45 1.33-.55 1.44-.45 2.45-.89 1.88-.66 2.11-.67 1.56-.44 1.33-.45.89-.33.78-.33 1.33-.45 1.89-.55.88.78 1 .88 2.33 2.22 5.11 4.89 2.11 1.89 3 2.99 5 5 4.77 5.11 4.78 5.22 4.66 5.44 4.55 5.33 4.44 5.55 3.11 3.88 1.45 2 5.33 7.22 1.11 1.55 6.33 9.11 8.55 12.55 5.55 7.66 4.55 6.33.89 1.11 3.66 4.77 4.67 5.89 4.66 5.77 2.55 2.89 2.34 2.77 3.77 4.33 3.44 3.89 4.22 4.55.67.67 2.11 2.22 4.44 4.66 6.77 6.77 2.22 2.11 1.78 1.67 8.66 8.1 3 2.78 8.77 8.1 4.89 4.67 7.44 6.88 1.66 1.67.45.33.33 2.11.44 2.33.12 1.11.55 2.44.89 4.11 2.11 9.44 1.44 6.55 2.56 12.1.33 1.89.33 1.11 3.22 16.21.56 2.78.55 2.33.45 2.44.22 2.22.11.78.11.89.11 1.22.11.78.23 2.88.11 2.78.11 1.44v2.89l.11 1.78v2.22l-.11 2.22-.22 3.11v.66l-.12 1.33-.22 1.78-.22 1.67-.22 1.44-.56 3-.89 4.22-.99 4.22-.45 1.66-.67 2.44-1.22 4-1.44 4-1.67 4.11-1.55 3.44-.78 1.33-1.77 3.55-1.67 2.89-1.89 3.11-.55.78-1 1.66-2.33 3.22-1.11 1.33-1 1.23-1.56 1.77-1.11 1.34-1.78 1.99-2.1 2.11-1.23 1.22-1.22 1.23-2.66 2.44-1.67 1.33-.55.56-1.45 1.33-6.44 5.44-6.44 5.66-5.44 4.44-1 .89-7.21 6.44-10.33 8.77-1.22 1-1.45 1.33-8.66 7.55-8.99 7.89-7.55 6.44-2.44 2.44-7.22 6.55-2 1.67-4 3.33-.89.66-.66.56-.89.89-5.11 4.22-2.89 2.66-4.1 3.44-1.34 1.22-1.66 1.45-1.45 1.11-1.88 1.89-1.23 1.11-1.55 1.44-1 1.11-1.55 1.66-2 2.23-1.22 1.22-2.78 3.55-1.55 1.89-1.78 2.33-2.55 3.55-1.56 2.44-1.66 2.45-1.56 2.55-1.44 2.55-1.56 2.56-1.88 3.77-.56 1.22-1.78 3.67-.44 1.11-.45.89-1.55 3.88-1.22 3.33-1.22 3.67-1 3.11-1.78 6.55-1.44 5.88-.67 2.89-1.11 4.22-.89 3.77-1 4.22-.11.67-2.22 9.77-.89 3.55-.22.89-2.89 12.44-1.77 7.66-1.67 6.99-1.66 7.11-1.56 6.44-1.33 5.33-1.44 5.88-.67 3.33-.67 3.67-1.22 3.77-1 4.89-.33 1 1.55 2.11-.55 2.11-1.22 5.88-.45 2.22-.55 3.44-.56 2.11-.11.56-.11.33-.33.78.44.78.56 1 1.66 2.22.45.88.44.89.22 1.22.11 1v.56l-.11.89-.77 2.33-.56 1.66-.11 1-.11 1.11.67 6.33-.45 15.99.11 1.56 1 4.1.78 2.45.66 3.1.34 1.89v8.66l.22 5.89.33 6.22.23 18.09.11 3.78.11 8.44.11 3.33.11 3 .44 3.66.67 2.33 1.22 2.89.89 2 6 10.54 4.99 8.89 4.89 8.88 1.55 2.55 2.33 4.22 1.89 2.78 1 2.55.45 2 .22 2.78-1.78 8.77-.33 1.89.11 2.44.22 1 .33.89 6.67 11.65 1.33 2.89.78 1.89.66 2.44.11 2.33.23 3.44-.12 2.67-.33 4.66-.33 5.67-.45 7.21v6.44l.45 1.56 1 1.88 1.22 1.67 1 .89 1.44 1.22-.89 1.33-1.33 1.67-1.33 1.22z" stroke-linejoin="round"/></defs><use xlink:href="#g" fill="#004249" stroke="#00465f" stroke-width="5.76"/></svg>