<svg width="384" height="465.6" viewBox="0 0 2880 3493" xmlns="http://www.w3.org/2000/svg" xmlns:xlink="http://www.w3.org/1999/xlink"><path fill="#fff" d="M0 0h2880v3493H0z"/><defs><path id="a" d="M110.13 2334.52l-3.71-.1-1.97-.11-6.33-.22h-3.71l-1.53-.11-2.84-.11-5.78-.22-3.82-.22-1.86-.22-.98-.21.22-2.51.11-2.62-.11-2.84-.22-1.86-.33-1.74-.43-1.42-.66-1.53-.76-1.64-.98-1.64-1.2-1.74-1.42-1.53-1.97-1.97-1.42-1.52-1.31-1.75-.87-1.2-.54-.98-.55-.99-.44-.98-.54-1.31-.55-1.42-.33-1.53-.43-1.52-.22-1.75-.22-1.31-.11-.98-.11-1.42-.11-1.75v-1.53l-.11-1.96-.1-1.86-.11-2.4-.11-2.51-.11-2.62-.11-2.29-.11-2.07v-1.53l-.11-2.29v-1.31l-.11-1.97v-3.6l-.11-1.64v-3.16l.11-1.42v-1.42l.11-1.09.11-1.2.22-1.31.22-1.31.54-1.86.33-1.2.54-1.53.66-2.07.76-1.75.88-1.96 1.09-2.73.65-1.53.55-1.42.87-1.97.77-1.85.98-2.29 1.2-3.06.87-2.07.66-1.64.11-.33.21-.44.55-1.09.65-1.63.66-1.53.98-2.29.66-1.64.65-1.53.66-1.86.43-1.31.66-1.74.22-.98.43-2.08.22-1.64v-1.41l-.11-1.75-.33-2.08-.54-2.07-.66-2.18-.87-2.29-.76-1.86-1.53-3.71-1.2-3.28-1.86-4.47-.98-2.4-1.64-3.82-2.07-5.35-.33-1.09-.65-1.64-.77-1.75-.76-1.2-.76-1.09-.33-.44 1.31-.11H68l1.31-.21 1.09-.22.76-.22.66-.44.32-.11.55-.54.22-.77.22-1.42v-2.18l.22-12.33-13.87-.66h-1.09l-1.2.11-.76.33-.55.44-2.07-13.43-5.46-.33-2.29-.11.33-2.29.21-1.75.22-1.63.33-4.7.22-2.07 6 .33h2.08l-.22-12.67.98-6.33.65-1.85v-1.53l-1.63.65-2.84.88-2.18.76v-4.37l-.11-4.25v-2.84l-.11-.55-.11-.43-.55-.88-20.08 10.7-.44-22.16-.21-15.28v-.44l-.11-10.04-.11-3.27 6.22-.11.11-.66-5.02-1.85-.88-.11-.65-30.89 1.85.11 1.75.32 1.97.11 4.36-.22 4.15-.65-2.4-.98 9.06-.22 14.51-2.95 8.19-1.53 2.95-.65 9.38-1.86 1.86-.32 2.18-.44 2.51-.55 11.13-1.63 5.9-1.42 6-.99 8.19-1.74 8.95-1.64 4.91-1.09 9.49-1.97 5.68-.87 5.24-1.42 3.6-1.2 5.13-2.07 5.67-3.06.99-.55 3.71-2.51.43-5.67.55-6.66-.65-38.21.32-21.17.22-9.39-.11-4.91-.33-4.69.55-11.25v-1.85l.22-4.59v-2.18l.76-1.31.55-.87 1.85-2.19 2.19-1.74 3.49-2.08 1.31-1.2 1.64-1.09.21-.22 1.86-1.42 2.18-3.05.77-2.19-.99-1.09-.65-.65-1.53-1.53-1.64-1.42-1.74-1.86-1.09-.98-1.86-1.85-3.93-3.82-.76-2.52-.66-3.71-2.62-1.42-.43-.32-2.95-2.08-.98-5.24-2.4-2.4-.66-8.51-2.29-6.01-.44-.87-1.85-5.02-.55-2.29-.54-2.08-1.2-5.24-2.51-10.58-2.95-12.34-.22-4.26 2.62.99 1.96.21 2.19.11 2.73 1.1 7.85 4.25 15.72 8.3 30.23 14.73 5.13 1.42 16.05 5.02 8.73 1.86 9.6 1.86 6.33 1.09 1.31.76 9.17 1.97 33.18 1.42 25.87-.33h1.75l1.42.33 3.05 1.09 2.62 1.09 4.04 1.09 6.44.76-.22 1.1-.76.98-44.21 39.08-.65 1.2 9.38.54-8.4 19.87.22 3.38-11.79 7.97-3.82 2.4-7.53 5.35-9.39 6.11-2.73 1.75-1.74 1.53-1.53 1.31-4.04 4.26-7.86 10.69-1.85 2.4-3.82 4.92-.77 18.99 5.68 6.66 4.37.65 14.18 2.19 24.13 21.17-.66-15.82-.11-3.72-.22-.98.22-2.84 11.46-.21 2.51-.55 15.83 3.06-.22 8.62h.98l4.48.22 8.07.22-.21 13.42-.11 12.55-.11 10.81v1.97l-4.81-.11-.32 13.86-.33 14.3-.22 14.52-.44 14.19-.1 22.16-.33 34.82 6.22 3.27 1.96.77 2.62.54-.32 19.87v14.41l-.11 2.62v3.27l-.11 2.84v2.51l-.22 4.91-.11 1.53v.76l-.11 1.2v.99l-.11 1.74.22 1.2.44 1.75.54 1.75.33 1.31 1.09 2.29.66 1.42.87 1.75.87 1.96.55 1.2.54 1.09.33.98.44 1.75.33 1.42.21 1.53.22 1.42.33 2.07.33 2.08.22 1.74.32 1.97.22 1.85.22 1.86.11 1.85v5.46l-.11 2.62-.22 2.29 11.24 11.79 10.92 11.46 3.05 3.28 8.73 11.68 3.28 2.95 4.04 2.83 6.33 4.48v2.51l-.11 4.15-.11 10.26-.11 2.51v1.42l-2.95-.22-.54-.11-.88-.65-2.18-.11-3.16-.22-4.7-.22-4.36-.11-2.95-.11-6.55-.11-2.84-.11-5.78-.11-4.15-.11-.65-.1h-.98l-3.93-.22-3.39-.11-1.09-1.53-1.31-1.86-1.31-1.85-1.64-2.08-1.41-1.85-2.08-2.51-2.29-2.51-2.18-2.29-2.73-2.73-2.62-2.51-1.53-1.42-1.75-1.42-1.52-1.09-2.4-1.75-8.41-5.46-.33 1.42-.54 1.31-.22.55-.44.32-.32.22-.88-.11-1.31-.11-1.42-.11-1.74-.1-1.42-.11-1.31-.11h-3.49l.32.54.22.88.11 1.09v7.09l-.11 3.82 9.5.44 3.49 12.55-6.44-.32-5.02-.11-1.42-.33-8.08.33-4.03-.22-.99 1.64h-2.07l-4.26-.22-4.25-.11-1.42-.11-11.68-.44-2.84-.11-2.62-.22-3.27-.32-3.17-.22-2.4-.22-2.95-.22-1.85-.22-2.29-.11h-2.19l-1.63-.1-1.64.1-1.86.11h-3.27l-12.01-.43-3.49-.11-2.29-.11-1.31-.11-.11-2.07v-22.49l-.22-2.4-.11-1.31-.22-1.09-.43-1.86-.11-.44.11-.98-.33-1.2-.55-1.31-.87-1.74-.22-.55-.43-.55-1.53-2.62-.44-.98-1.63-2.73-1.42-2.51-1.53-2.29-.98-1.75-1.86-3.05-1.53-2.4-1.74-2.95-.44.33-.98.21-1.31.11h-1.42l-2.4-.11h-1.53l.11 5.03-.11 22.59-.22 16.37-.22 6.33v4.81l.11 3.16.22 1.75.22 1.31.22.76.65 1.2-2.18 1.1-2.07 1.09-1.31.65-1.53.88-.88.43-1.41.77-1.21.54-2.29 1.2-3.93 1.97-4.58 2.18-11.02 5.57-4.37 2.29-.87.44-3.39 1.74-3.38 1.97-2.73 1.64-.98.65-1.2.66-2.29 1.52-2.51 2.08-5.13 4.91-5.68 5.68-4.15 4.14-2.07 1.86-1.86 1.31-1.52.98-1.64.87-1.64.55-1.74.44-1.86.22-2.18.1z" stroke-linejoin="round"/></defs><use xlink:href="#a" fill="#cee3e4" stroke="#cef5f5" stroke-width="5.76"/><defs><path id="b" d="M2676.34 2447.83l.11 17.25-.11 9.27-14.85-.54-7.97-.22-24.77-.33-16.92-.22-7.53-.11h-1.2l-6.22-.21-7.64-.55-2.18-.22-2.73-.22-19.43-1.52-12.22-.66-5.13-.22-7.1-.32-9.82-.22-3.49-.11-27.62-.88-7.86-.21-12.44-.55-1.53-.11-2.4-.11-3.93-.22-24.01-1.42-11.02-.65-7.32-.44-18.88-.98-8.73-.54-10.26-.66-16.15-.76-2.73-.11-18.99-.66-10.7-.54-10.26-.44-5.46-.33-6-.76-5.24-.88-1.74-.21-11.03-1.75-6.98-1.09-3.93-.44-2.84-.33h-.22l-6.66-.43-7.31-.22h-20.08l-1.86.11-1.85.11-1.75.33-1.85.43-1.75.55-.76.22-2.08.87-1.96 1.09-1.86 1.2-1.96 1.42-1.53 1.09-.65.44-.77.33-.44-1.53-.43-1.31-.77-1.86-.76-1.53-.87-1.52-.99-1.75-1.31-1.64-1.2-1.53-1.09-1.09-1.31-1.2-1.31-1.09-1.52-1.09-1.42-.87-2.84-1.75-2.73-1.86-2.62-1.85-2.62-2.19-1.96-1.63-.44.54-.66.33-.54.22-.66.11-.76-.11-1.42-.22-1.53-.33-1.74-.54-1.97-.88-3.49-1.85-2.51-1.09-2.18-1.1-2.73-1.2-2.95-1.2-1.75-.65-1.74-.55-3.38-.98-3.06-.98-1.2-.44-1.2-.44-1.31-.54-1.09-.66-1.31-.87-1.53-1.09-1.75-1.64-1.42-1.53-1.63-1.96-1.09-1.42-.88-1.42-.98-1.75-.87-1.85-.66-1.86-1.09-2.62-1.31-3.71-1.75-5.02-1.63-4.47-1.53-3.83-1.53-4.03-1.53-3.93-2.07-5.13-1.75-4.26-4.69-11.9-.76-2.51-.44-1.42-.11-.65-.22-.88-.11-1.2-.11-2.07v-2.08l-.11-2.51-.21-1.63-.33-1.31-.33-1.09-.54-.99-.66-.98-.76-.87-.88-.99-1.42-1.41-2.83-2.73-1.64-1.53-.98-.66-.77-.54-.87-.55-1.09-.43-1.2-.44-1.09-.44-1.64-.43-1.64-.44-1.96-.33-2.08-.44-1.63-.21-1.42-.22-1.42-.11-1.42-.11h-2.73l-1.2.22-1.31.33-1.2.43-1.31.55-1.64.76-1.63.88-3.17 1.41-10.48 4.04-11.46 3.28-2.62.33-22.92.43h-9.71l-35.04-.43-15.82-.33-5.02.11h-7.32l-1.41.22-9.5 2.72-12.88 3.82-3.16.66-6.55.44-3.06-.44-10.91-3.71-4.04-1.75-1.42-.43-4.8-1.1-4.37-1.09-3.05-.11-4.59-.22-14.84-.65-7.75-.33-4.7-.11-6.33-.11-7.53-.21-15.93-.11-12.12-.44-2.07-.11-20.74-.76-20.19-.33-6.33-.22-6.77-.22-6-.11-5.89-.22-2.19-.1h-2.29l-1.64-.11-6.44-.11-8.07-.22-8.62-.33-17.69-.65-13.09-.44-13.1-.11-10.04-.22-1.75-.11-12.99-.43-11.46-.44-6-.11-4.58-.11-7.21-.11h-13.97l-13.97-.32-5.13-.11-11.79-.33-14.4-.22-7.64-.11-4.37-.11-4.36-.11-4.92-.11-5.02-.32-5.78-.33-6.33-.33-5.68-.22-2.18-.11-2.62-.11-12.22-.54-12.45-.55-9.38-.43-8.3-.55-2.62-.22-2.83-.22-7.43-.76-.87-.11-4.91-.33-2.95-.11-2.51-.1-6.44-.11-9.06.21-11.57.33-6.87.11-11.35.22h-3.82l-3.82-.11-3.28-.11-4.04-.44-2.18-.21-4.91-.55-2.84-.33-1.31-.22-13.53-2.18-12.12-1.96-16.91-2.73-10.92-1.86-1.96-.33-22.6-3.82-2.83-.54-3.93-.66-2.84-.32-4.04-.66-3.93-.76-3.49-.55-2.08-.33-1.41-.32-1.1-.11-1.63-.22-2.51-.11-2.95-.22h-5.89l-1.42.11h-2.62l-1.2.11-1.97.11-2.07.33-18.67 4.58-9.38 2.4-9.28 2.19-3.49.87-1.97.44-4.14.98-3.17.65-2.84.33-2.83.11h-2.73l-1.2-.22-8.3 1.97-6.44 1.41-3.27.77-3.28.87-3.05.66-2.29.54-2.84.77-2.95.65-2.51.66-3.38.76-2.84.66-2.4.54-3.06.77-2.18.43-1.97.44-2.29.54-2.18.44-1.75.55-2.07.43-1.75.55-2.07.44-2.4.65-1.64.44-1.42.32-1.64.44-1.41.44-1.31.22-.44.21-.33-1.63-.33-1.97-.32-1.53-.33-2.51-.55-3.6-.11-1.2-1.41-8.29-.88-5.79-2.29-13.75-1.42-8.52-.98-6.55-.66-5.78-.43-5.13-.11-1.86-.33-4.26-.11-2.94-.43-6.55-.11-6.99.11-7.64v-5.13l.11-3.71v-2.84l.1-3.93v-9.39l.11-14.73v-6.33l-.32-5.57-.11-5.46-.11-4.58v-.88l-.22-3.6-.11-2.29-.22-3.93-.22-4.26-.21-2.62-.11-2.51-.33-3.93-.33-3.16-.33-3.71-.21-2.51-.33-3.06-.33-2.62-.87-7.31-.22-1.86-.33-2.95-.43-3.27-.77-4.91-.44-2.95-.76-5.13-.22-1.53-.65-3.93-.33-2.18-.44-2.4-1.42-7.64-1.2-6.12-.65-2.73-.76-2.83-1.1-4.48-7.75-31.44-1.85-6.87-1.2-4.37-5.13-18.01-1.64-6-2.29-8.74-.98-3.6-1.86-6-1.64-5.57-3.6-13.53-2.29-8.08-7.64-28.16-.76-2.41-4.04 3.72-2.51 2.72-2.4 2.62-1.53 1.64-2.73 2.95-1.96 2.29-.33.33-.88.11.33-1.09.22-.44 1.42-1.86-.98-1.42-.33-.76v-1.31l.22-.65.33-.66.43-.76.98-1.31.44-.77.44-.76.43-.87.11-.66.55-3.27.54-4.04.11-3.06.11-2.4-.11-3.06-.43-5.35-.66-6.22-.54-3.71-1.2-4.8-2.19-6.99-2.29-9.39-2.95-8.95-.98-2.83-.43-2.41-.22-3.93.22-10.58-.11-3.06-1.31-9.28-.11-3.38-.55-7.86.22-7.97.22-4.26.33-2.18 2.83-15.06 7.1-31.66 5.02-22.59.54-2.51 3.5.32 4.69.33 3.17.22 4.36.44 4.69.32 4.59.33 17.13 1.2 15.28 2.07 8.84.33 11.79.66 6.44.22 3.28.1h1.52l1.2.11h1.1l4.14.44 12.45.87 9.38.66 5.68.54 2.84.22 8.84.66 9.49.54 3.06.22 3.6.22 5.89.33 5.9.33 6.76.32 5.35.22 11.24.44 11.25.22 4.04.1h.76l6.11.11h1.97l1.31-.11.43-.1 9.06.54h1.75l1.31-.22.76-.32.77-1.1.54-5.34 1.2-.22 2.18-.22 2.3-.11h.65l1.42.11 7.64.33 3.71.21 6.77.33 3.49.22 5.57.22 4.36.22 7.21.22 11.46.76 6 .22 3.6.22 1.75.11 5.78.21 1.2.11 1.2.33.55.22.55.22 1.09.65.32.22.66.55.98 1.09.87 1.31.33.43 2.62-2.4 1.97-1.85 3.93-3.61 2.51-2.29 9.27-8.29 4.8-4.48 12.01-10.81 6.33-5.78 2.29-2.18 2.3-2.19-.44-.54-1.97-2.73-.87-1.64-.54-1.53-.44-2.29-.11-.65 4.26 1.52.98.11.76-.11.88-.54.98.11h1.53l.21-.44.22-.33 3.82-3.27.44-.44.44-.11h.43l.44.33 1.09 1.53 16.37-14.96 4.59-4.03-.11-1.1.76-.76 2.18-1.75.66-.76.65-1.09.55-.99 1.53-.43 1.96-1.64 2.95-2.29 2.84-3.17 4.69-4.14 4.15-3.93 5.02-2.3.54-1.31.55-.76 2.62-1.53 3.49-1.64 5.13-1.85 1.42-.44 1.31-.44 1.64-.32 2.07-.44 2.84-.33 3.93-.32 19.97-1.42 16.26-1.09 3.61-.22 3.27-.22h2.62l-1.2-.66-.66-.32-.54-.44-.55-.33-.32-.43-.33-.44-.33-.44-.33-.54-.22-.44-.1-.44-.11-.54-.11-1.2.32-.66.55-1.2.87-1.64 1.75-2.83 1.75-2.95 2.94-5.46 1.09-2.51 1.64-4.58.44-1.75.87-8.3.66-4.36.32-7.75.11-4.37.77-8.08 1.52-16.7.77-6.66 2.73-29.03 2.62-12.23 5.13-15.72.76-2.94 1.64-4.7.43-1.31.11-1.31v-.87l1.64-2.07 1.53-2.41 1.53-1.74 1.42-1.53 2.07-1.75 1.64-.98 2.18-.98 1.86-.66 18.22-4.69 24.12-7.31 5.02-1.1 24.67-11.13.87-.44 3.61-.65 4.14-.55 10.37-.65 14.41.22 4.15-.55 4.47-1.64 2.18-1.09 2.73-1.53 11.68-7.31 7.1-4.15 5.34-3.71 2.4-1.09 2.95 11.24 4.37 14.74 8.29 30.78 7.75 28.71 3.71 13.64 3.5 10.81 2.94 8.08 2.73 7.09 2.95 7.53 6.55 14.2 7.42 14.29 8.29 14.63 3.06-.11 12.88.33 16.48.44h1.75l1.41.11 2.08-.11 6 .32 11.46.22h4.8l6.88-.22 3.38-.11 5.9-.21 6.44-.33 7.42.11 26.52.65 10.26.22 8.3.22 13.42.44 9.5.32 18.88.77 26.63.54 20.19.33 4.37.11h1.96l8.3.22 4.58.33 5.46.21h3.27l1.97.11 3.71-.21h1.63l10.7-.99 4.91-.54 2.84-.44 4.15-.65 15.39-2.19 16.26-2.4 1.2-.11 8.08-1.09 5.89-.98 2.73-.33 2.62-.55 2.29-.21 2.73-.33 1.96-.11 2.51-.11 3.28-.11h13.86l10.7.11h19.1l16.8.11 11.57.11 12.77.33 12.77.11 25.54.1 11.57.22 4.7.11 18.11-.11 18.12.44 3.82-.11 3.06-.22 2.95-.54 2.83-.66 2.84-.87 2.73-.88 2.51-1.09 2.95-1.42 3.93-2.07 21.82-12.33 16.81-9.5 1.31 5.24.33 1.2.33 1.64.11 1.52-.11 1.31-.22 1.42-.55 1.53-.98 1.97-.65 1.63-.33.99-.44 2.29-.65 16.26-.33 16.49-.65 10.91-.77 16.59-.11 7.1-.11 7.31-.76 22.49-1.09 24.45v2.29l-2.62 89.51.33 23.58-.77 84.05-.87 53.7.11 14.74-.33 15.39v1.09l.22.55.43.54.44.44-50.1 34.16-32.19 22.82 6.87 2.07 1.64.77-2.4.65-12.44.22-19.87.87-7.64-.32-8.62-.88-8.84-2.07-8.51-2.51-6.44-2.51-10.81-5.46-5.02-3.17-12.99-8.84-2.07.22-.98.55-.44.76-.33 20.96.33 2.29.87 1.31 1.2 1.09 2.51 1.53 3.6 2.62 2.41 3.49 2.29 4.15-11.35 14.63-5.02 7.2.32 3.06-.11 8.84.11 9.82-.65 3.06.76-1.09.66-.87.76-1.1 1.42-.1 1.42-3.93 1.31-.66 1.53-.55 1.96-.54 2.08-.44 2.29-.22 3.16-.21 3.39-.22 8.29-.77 1.75-1.2 11.35-.11 7.53-.11 10.59.66 10.26.33 30.01.65 30.34.87 11.79.11 38.2.66 19.76.33 14.95.21 6.66.11 30.56 1.1 30.01.54V2128l.11 9.93-.22 12.56v1.96l.11 14.3-.22 15.28-.21 13.87v24.77l.21 4.15.77 3.93 1.2 6.99.11 1.31.11.87v1.2l.11 3.6.21 12.23v12.23l.11 18.99v87.54l-.11 22.05v4.37l-.1 2.29-.22 6.22-.33 2.4-.55 1.42-.87 2.4-.76 1.42-5.24 6.77-1.64 1.97-.76 1.2-.55 1.2-.22 1.31.11 5.02v.87l1.86.87 4.04.33.65.11 4.37 2.4.11-.11.1.11 48.79 3.71 101.4 7.86 30.12.33.55-15.94.43-12.11 3.39-1.86.32 8.08.44 3.16.87 3.17.22.55.66 1.74.76 1.09 2.73 2.19 7.64 4.58.33.44.22.54v1.97z" stroke-linejoin="round"/></defs><use xlink:href="#b" fill="#cee3e4" stroke="#cef5f5" stroke-width="5.76"/><defs><path id="c" d="M562.31 3034.43v1.75l-14.4-.65-11.79-.44-12.12-.55-5.02-.21h-4.36l-8.3-.33h-3.38l-4.15-.22-6.77-.33-6.98-.33-8.08-.43-5.78-.22-7.86-.33h-1.31l-1.09-.11h-1.2l-2.08-1.42-.65-.43-1.86-1.2-.76-.55-1.53-1.09-6.22-4.37-1.86-1.31-6.65-4.58-19.21-12.77-.99-.66-2.51-1.63-3.16-2.41-1.2-.87-2.84-1.96-1.31-.99-1.85-1.31-.55-.43-.65-.44-1.31-.87-.88-1.64-2.73-1.86-1.85-1.09-3.71-2.4-5.68-3.93-10.37-6.98-7.53-5.35-4.25-2.95-2.41-1.64-3.27-2.18-4.04-2.51-3.71-2.18-2.18-1.31-6.99-3.93-9.93-5.68-20.74-11.57-4.04-2.29-8.62-4.81-20.41-11.68-17.02-9.49-6.66-3.71-11.24-6.23-10.7-6-6.55-3.71-8.29-4.69-3.82-2.08-5.13-2.84-12.45-7.09-10.69-5.9-5.02-2.83-4.37-2.3-1.2-.65-6.44-3.39-6.33-3.49-.65-.98-.44-.33-2.51-1.53.65-1.2 1.09-2.18.22-.65.22-.55v-.55l-6.33-.43-3.05-.22h-1.97l-1.85-.11-.55-.33-.87-.43-1.31-.88-2.3-1.74-.98-.66-1.74-1.31-4.37-3.6-7.86-6.33-15.82-12.01-.99-.76.11-1.75.22-4.26 1.09-33.4.33-22.05-.11-4.47.11-9.5.11-9.5v-3.49l2.73.11h1.96l2.18.11 2.08.11 1.53.11 1.52.11 1.86.1 1.75.22 1.63.22 1.53.11 1.86.22h1.63l2.51.22 2.08.11 1.96.11 3.5.21 3.49.11 3.27.11 1.75.11 7.09.44 4.59.33 1.74.1 2.3.11 5.13.22.65-3.05.33-1.86.43-2.18.55-2.51.44-2.41.32-1.74.44-1.75.33-1.74v-.11l.33-1.75.21-1.2.33-1.53.22-1.31.22-1.09.22-1.2.21-1.64.11-1.31-.11-.87-.1-.77-.11-.98-.33-.98-.33-1.2-.54-.98-.66-1.1-.87-1.31-.55-1.09-.54-.87-.55-.76-.87-1.31-1.31-2.08-2.08-3.05-.21-.33-3.5-5.13-1.53-2.95-.76-1.42-.44-.87-.32-.66-.66-1.74-.87-2.3-.98-2.72-1.2-3.39-1.1-2.62-.65-1.74-.66-1.86-2.51-7.1-1.31-4.03-.65-2.73-.33-2.3-.11-2.29v-2.4l.11-2.29.22-3.71v-4.26l.11-4.48v-2.72l.11-3.72.11-4.25v-14.19l.11-4.04.11-4.59v-3.38l.11-3.38v-7.97l-.22-2.29-.22-2.52-.33-3.27-.33-3.38-.43-3.93-.33-4.15-.33-3.6-.65-6.66-.44-4.8-.54-5.14.98-.1.98.1.76.11.88.22 1.42.11h1.41l.44-23.9-.11-3.17-9.71-.98-.22-2.62-.11-1.86-.33-2.94-.32-3.72-.33-3.71-.33-3.6-.44-4.91-.32-3.71-.44-3.6-.22-2.19-.33-2.29-.1-.65-.11-1.21-.33-1.85-.44-1.97-.32-1.85-.44-1.75-.44-1.31-.33-1.31-.54-1.64-.55-1.63-.54-1.42-.66-1.53-.54-1.2-.55-1.09-.76-1.42-1.53-2.4-1.53-2.29-1.64-2.19-1.85-1.96-1.86-1.75-1.85-1.64-6.33-5.35-1.75-1.41-5.57-4.7-2.07-2.07-.65-.66-.77-.76-.65-.77-1.42-2.07-.88-1.42-1.2-1.96-1.09-1.86-1.09-1.85-1.09-1.86-.76-1.42-.88-1.42-1.09-2.07-1.31-2.29-.98-1.86-.87-1.53-1.1-1.96-1.2-1.97-.65-1.2-.66-.87-.65-1.09-.98-1.2-1.2-1.53-1.31-1.42-1.09-.98-1.1-.88-1.52-.87-1.2-.55-1.86-.76-1.75-.87-1.85-.77-1.75-.87-1.53-.76-1.2-.66-.87-.44-.76-.54-.77-.55-.54-.54-.44-.33-.87-.87-.77-1.1-.65-1.2-.66-1.42-.43-1.41-.11-2.19-.11-1.2-.11-3.16v-.99l.11-2.51.43-4.36.33-1.09 2.18-5.14.77-1.85.44-1.09 1.09-2.62 1.74-3.93.66-1.53.65-1.64.55-1.31.22-.76.32-1.53.33-2.07.98.21 1.86.22 3.82.22 5.78.22 2.84.11 1.53.11h3.71l6.33.22 1.97.11 3.71.1 2.18-.1 1.86-.22 1.74-.44 1.64-.55 1.64-.87 1.52-.98 1.86-1.31 2.07-1.86 4.15-4.14 5.68-5.68 5.13-4.91 2.51-2.08 2.29-1.52 1.2-.66.98-.65 2.73-1.64 3.38-1.97 3.39-1.74.87-.44 4.37-2.29 11.02-5.57 4.58-2.18 3.93-1.97 2.29-1.2 1.21-.54 1.41-.77.88-.43 1.53-.88 1.31-.65 2.07-1.09 2.18-1.1-.65-1.2-.22-.76-.22-1.31-.22-1.75-.11-3.16v-4.81l.22-6.33.22-16.37.11-22.59-.11-5.03h1.53l2.4.11h1.42l1.31-.11.98-.21.44-.33 1.74 2.95 1.53 2.4 1.86 3.05.98 1.75 1.53 2.29 1.42 2.51 1.63 2.73.44.98 1.53 2.62.43.55.22.55.87 1.74.55 1.31.33 1.2-.11.98.11.44.43 1.86.22 1.09.11 1.31.22 2.4v22.49l.11 2.07 1.31.11 2.29.11 3.49.11 12.01.43h3.27l1.86-.11 1.64-.1 1.63.1h2.19l2.29.11 1.85.22 2.95.22 2.4.22 3.17.22 3.27.32 2.62.22 2.84.11 11.68.44 1.42.11 4.25.11 4.26.22h2.07l.99-1.64 4.03.22 8.08-.33 1.42.33 5.02.11 6.44.32-3.49-12.55-9.5-.44.11-3.82v-7.09l-.11-1.09-.22-.88-.32-.54h3.49l1.31.11 1.42.11 1.74.1 1.42.11 1.31.11.88.11.32-.22.44-.32.22-.55.54-1.31.33-1.42 8.41 5.46 2.4 1.75 1.52 1.09 1.75 1.42 1.53 1.42 2.62 2.51 2.73 2.73 2.18 2.29 2.29 2.51 2.08 2.51 1.41 1.85 1.64 2.08 1.31 1.85 1.31 1.86 1.09 1.53 3.39.11 3.93.22h.98l.65.1 4.15.11 5.78.11 2.84.11 6.55.11 2.95.11 4.36.11 4.7.22 3.16.22 2.18.11.88.65.54.11 2.95.22v-1.42l5.79.22 12.22.43-.11 1.53h1.64l10.26.44h1.42l3.71.11 7.86.11.87-.44h2.73v4.15l-.11 1.09.11 3.6v3.93l24.01.11 15.17 2.29v5.24l.22 8.73-.44 14.74 5.24.22 8.3.44 1.52-.22.44-.44 17.9 15.5-.11 5.35-.11 6.99-.22 4.91.11 1.63v.99l-.32 19.97v8.63l2.07.11 1.2-.11 1.96-.11 2.08-.11 2.07-.22 2.4-.33 1.64-.33 1.09-.1 1.2-.22 1.09-.11 1.31-.22 1.2-.11h.99l1.31-.11h1.41l1.75-.11h1.42l1.42.11h1.64l1.85.11 2.08.11 1.52.22 1.31.22 1.2.21 1.31.33 1.31.44 1.31.44 1.53.65 1.53.66 1.64.65 2.51 1.09 2.94 1.31 1.09.55 1.1.43 1.31.66 1.52.87 1.42.66 6.66 3.49 6.11 3.06 4.59 2.29 7.86 3.6 7.09 3.17 12.99 6.76 5.67 3.39v1.42l.11 3.6.11 17.46.44 11.25v19.1l-25.11-1.2-11.13.22-3.71-.11-15.72-.77-4.36-.11-.11 8.41-.11 3.06h-.55l-.54-.11-.87-.22-.55-.33-.65-.33-.55-.43-.66-.44-.76-.55-.76-.32-.77-.33-1.09-.33-1.09-.32-1.09-.22-.88-.33-1.09-.22-1.09-.22-6.11-1.96-8.3-1.97-13.2-3.6-7.75-2.07-.66-.11h-.54l-.44.11-.33.22-.21.21-.44.77-.11.54-.11 2.08-4.04-.11-6-.22-.22 12.44 10.15 1.2-.11 20.42v2.18l-17.24-.76v1.31l-3.28-.11-3.71-.22-5.67-.33v2.07l.11 2.3.11 2.62.54 3.38.87 3.06.77 3.16 2.84 9.06.76 3.5.22 2.4v6.66l8.51.21 10.48.66 1.2-.22.22-.11.11-.11.33-.65.1-13.65 1.1.66 1.2.22 1.42-.33 1.74-.66 2.08-.43 1.63-.22 3.06.11 2.95.54 4.47.55 1.75-.11 1.85-.55.98-.65.99-.66.76-.98.11-.43.22-.99.11-7.97v-5.34l-.11-1.75.11-2.07v-.99l4.14.22h1.42l.77.44 1.42.11 4.36.22 2.84.21 11.68.55-.11 2.18 1.09.33 29.36 7.53 2.84 9.93 3.38 13.98 3.39 9.49 2.29 5.79 1.2 2.84 1.64 3.38 3.82 6.88 2.83 4.36 7.32 9.94 23.13 25.43 2.41 2.73 1.63 1.86 1.75 1.96 1.75 1.96 1.96 2.3 2.4 2.73 1.75 1.85 3.27 3.49v-4.25l12.55.22-3.93 15.39 1.1 1.85 1.52 2.73 1.1 2.08 1.09 2.51 1.2 2.51.76 1.96.77 2.08.98 2.94 1.42 4.37 1.31 4.47 4.25 19.11-36.67 1.74-.65-.54.98 2.07-.77 2.4-2.94 3.5-4.7 6.87-4.25 5.02-10.26 1.86 2.29-4.37 1.53-2.84 1.31-2.18 1.2-2.18.87-1.53.98-1.64 1.09-1.85 1.31-1.86 1.31-2.18 1.2-1.75-.32-.22-.44-.11-.44-.21-1.63-.11-3.17-.11-4.47-.22h-3.17l-4.04-.11-9.93-.44-3.6-.11-13.1-.65-5.89 7.97-4.15 4.69-2.29 1.86-1.75.87-.65.22-1.86.65-1.74.33-1.97.11-2.51.11-5.02-.11-4.37-.22-2.07-.11v3.5l-.11 3.82v12.99l-.11 2.94-.22 5.79v.98l-.1 3.82-.11 2.62-.22 8.41v16.7l-.11 10.91-.22 18.56-.11 17.36-.11 13.09-.22 14.41-.11 1.64-.1 10.04v5.02l-.11 6.55v1.09l-.11 2.73-.11 2.19-.11 7.2-.11 4.91-.22 16.16-.11 7.53-.22 22.05-.11 8.3-.21 17.46v1.97l-.11 8.73-.11 7.2v3.17l-.11 2.94-.11 8.74-.11 5.24-.11 23.36-.11 5.56-.11 3.71z" stroke-linejoin="round"/></defs><use xlink:href="#c" fill="#9dc8ca" stroke="#9dd7f0" stroke-width="5.76"/><defs><path id="d" d="M1371.51 1757.63l-.33-.43-.87-1.31-.98-1.09-.66-.55-.32-.22-1.09-.65-.55-.22-.55-.22-1.2-.33-1.2-.11-5.78-.21-1.75-.11-3.6-.22-6-.22-11.46-.76-7.21-.22-4.36-.22-5.57-.22-3.49-.22-6.77-.33-3.71-.21-7.64-.33-1.42-.11h-.65l-2.3.11-2.18.22-1.2.22-.54 5.34-.77 1.1-.76.32-1.31.22h-1.75l-9.06-.54-.43.1-1.31.11h-1.97l-6.11-.11h-.76l-4.04-.1-11.25-.22-11.24-.44-5.35-.22-6.76-.32-5.9-.33-5.89-.33-3.6-.22-3.06-.22-9.49-.54-8.84-.66-2.84-.22-5.68-.54-9.38-.66-12.45-.87-4.14-.44h-1.1l-1.2-.11h-1.52l-3.28-.1-6.44-.22-11.79-.66-8.84-.33-15.28-2.07-17.13-1.2-4.59-.33 1.75-9.38-8.62-.99-2.95 1.42-.65.44-8.41-.22 5.57-26.74.65-4.48.44-4.69.11-4.15-.11-3.82-.55-5.68-2.07-10.26-1.64-.32-3.05-3.72-4.15-7.64-2.95-8.07-1.74-3.5-.55-.87-3.71-1.2h-3.6l-2.29.33-1.53-2.19-1.31-3.05-.33-4.26.98-3.71.33-.88 2.84-3.49 2.62-2.62-.88-1.85-1.63-3.61-16.7-37-5.35-12.01-2.95-7.53-5.13-14.41-8.07-25.65-4.26-12.66-1.86-5.68-2.72-8.4-1.1-3.6-.21-.88-.44-1.2-.22-.65-.33-1.1-.43-1.09-.55-1.85-.76-2.29-.77-2.41-2.72-5.67-1.42-2.84-2.51-3.71-.99-2.08-3.05-4.58-5.9-6.88-1.96-1.85-2.84-2.51-7.42-6.23-11.46-10.15-1.86-2.07-1.31-1.31-2.4-3.06-.87-1.2-3.06-5.02-2.83-5.35-1.64-4.04-.98-2.4-.77-2.84-1.42-6.22-.54-4.15-.66-5.24v-4.36l.22-4.04.33-3.93.44-3.82 4.91-36.68.22-1.42.32-2.62.98-6.33.33-2.29.11-.76.22-.99.65-3.6 1.75-5.56 1.31-4.7 1.2-9.6.55-3.5-1.2-5.02-.33-1.53-.22-.87-.98-5.02-.22-1.42-.55-3.27-.1-1.64h.76l.76.11-.11-.99-.54-8.95-.22-12.55 1.53-5.78.76-35.15.11-3.93v-4.04l.77-32.86.21-5.02.33-10.59.44-11.89.54-23.04.11-3.6.11-9.39-3.16.99-7.97 3.6-12.66 5.46-4.37 1.96-1.74.87-1.75.99-6.22 3.49-11.35 5.89-4.04 2.52-7.1 4.25-8.29 5.13-4.8 3.28 4.58-18.12 11.35-95.84.98-11.25-6.54-22.04-10.15-32.86-.11-1.86.32-8.18.33-6.55-.33-8.3-.76-5.35-.55-2.83-.54-2.52-.87-2.51-1.21-2.73-2.07-3.38-3.38-5.13-.77-1.2-.98-1.31-1.09-1.53-6.22-2.4-1.75-5.68-42.78-97.91-23.47-55.56 3.93-23.58 15.28-26.74 53.81-27.51h4.69l2.08.22 3.71.44 2.07.32 64.94 8.74 57.63 42.46 4.58 8.19 6.55 11.57 1.42 2.73 8.84 16.04 1.86-1.85.22.32 8.18 12.45 10.81 16.15 11.46 31.11.54 1.09 8.41 31.66 17.02 60.03.44 5.79 11.57 45.52 1.64 7.2 3.16 14.08 1.09 4.7 4.15 16.48 4.48 17.57 1.09 4.48 1.74 6.77 9.5 24.45.65 1.64 3.39 8.51.65 1.85.77 2.19.54-.11 9.17-.87.98.32h1.2l.44-.11.44-.32.21-.66 20.31-.98 5.02-.98 3.93-.22 20.41-1.09 4.03.54 5.68 1.2.65.22 1.64.77.66.21 9.27.77 3.06.65 12.33 3.61 2.62.98 2.19.98 1.85 1.09 1.42.98 14.19 12.78 2.62 1.96 5.02 3.17 2.07.76 2.19.33 2.51.32h4.14l2.19-.32 1.52-.33 9.94-3.27 9.49-3.06 4.37-1.64 18.88-8.51 3.93-1.2 4.58-.88 6.22-.22.55 28.28.44 20.95 17.46-4.36h.87l.77.33 2.18 1.63 5.35-5.24 9.17-8.84 14.51-19.21 25.76-33.84 13.97-13.53 8.51-6.88 66.04-51.41 31.87-38.86 7.42-9.94 13.1-9.38 26.74-30.79 14.51-36.67 22.81-38.53 10.92-18.01 2.07-3.5 33.84-50.32 2.07-3.06 17.68-33.07 24.78-41.37 14.08-24.45 12.88-20.63 6.87-21.61 11.79-27.18 4.37-18.12 7.09-26.64 5.89-39.73 11.03-99.01 3.49-19.1 4.59-16.59 9.6-27.73 7.64-28.92 11.02-30.46 7.86-16.37 8.84-9.17 9.06-11.02 16.26-31.55 10.92-27.94 9.71-8.19 8.19-15.17 8.18-11.9 9.61-13.43.33-.43 5.89-8.52 3.71-6.77 6.11-6.11 14.41-12.55 18.66-13.1 22.6-12.12 26.3-14.51 13.32-7.75 19.21-7.86 16.8-9.06 10.26-5.68 9.83-3.27 21.28.87 22.27 4.15 9.38.87 8.41 1.31 28.48 4.04 26.63.98 22.27 1.09 30.78 4.91 38.96 3.61 29.69.98 22.59-1.75 7.43-1.09 8.07-.65 25.43-1.75 13.43-3.49 18.55-2.3 26.52-1.74 25.54 3.27 12.99 2.29 9.06 4.04 10.92 2.62 19.31 8.84 18.89 10.48 14.95 7.64 15.06 9.28 17.14 12.23 15.6 11.68 5.46 5.89 6 5.68 10.26 12.55 3.06 4.26 6.55 9.17 5.89 7.97 3.28 9.27 20.73 53.27 20.74 52.62 16.7 45.73 18.01 21.72 16.81 13.43 7.2 6.11 11.79 10.05 5.13 6.44 11.46 13.09 15.61 18.67 9.71 11.13 19.43 15.61 26.74 20.2 4.26-5.79 5.13 3.39 11.02 7.31 6.11 3.71-3.38 2.08-7.97 4.36-3.82 1.2-4.15-.54 2.51 1.52 1.53 1.64.66.88.32 1.2-5.02 1.52-8.07 2.73-7.75 3.39-7.97 2.94-.44.11-16.7 5.35-5.67 2.18-4.04 1.53-3.93 1.31-3.71.88-3.82.32-3.93-.11-4.26-.87-6.33-.87-3.82-.11-2.94.22-2.62.54-5.79 1.97-7.86 2.84-5.67 3.05-7.1 5.24-4.91 4.04-12.44 10.37-5.46 4.48-2.51 1.52-3.27 1.31-2.62.33-2.51-.11-2.51-.43-2.62-.77-4.15-1.64-2.73-1.41-2.62-1.31-3.05-1.21-2.51-.65-2.4-.44-6.99-.43-1.96-.33-4.92-.55-4.47-.43-4.04-.33-4.26.11-12.77.76-6.44.98-5.78 1.1-4.48.98-11.02 4.15-5.78 1.96-5.68 1.86-7.09 1.96-3.39.77-.87.1-4.8.77-4.7.44h-3.92l-4.37.21-6.11-.43-19.87-.55-15.6-.22h-6.99l-6-.43-7.86-.99-5.79-.1-3.38.1-2.62.44-1.64.33-2.72.76-1.86.98-1.96.66-2.3.22-2.94-.66h-.33l-2.51-1.2-2.73-2.07-10.15-11.35-4.69-4.81-1.75-1.63-2.07-1.53-1.86-1.31-2.4-.98-3.17-1.21-4.8-1.52-6.11-1.64-4.91-.44-4.69-.22-4.81.33-4.58.33-7.64.76-5.13.44-5.24.55-3.71.87-2.51.98-1.97 1.31-3.6 3.06-3.27 3.93-2.62 3.6-6.77 9.5-4.04 7.86-11.89 30.45-5.57 12.01-3.38 9.71-1.75 6.99-.33 4.04v1.09l-.43 1.96-.44 1.97-1.09 3.93-1.86 4.8-4.04 6.33-5.13 7.21-4.36 5.34 15.06.88v1.2l-.54 1.74-.33.77-.55.33-.54.32-2.08.66-5.24.65-4.69.99-2.07.87-2.4 1.42-1.97 1.31-3.38 2.51-2.73 2.4-2.4 2.29-2.95 3.6-1.96 1.97-1.53 1.42-1.97 1.42-1.09.87-1.42 1.09-1.74 1.64-1.97 1.2-2.62 1.31-1.42.33-3.27.65-3.28 1.2-4.25 2.08-1.86 1.09-3.71 2.84-2.73 2.84-1.63 1.63-1.86 2.29-1.75 1.86-2.4 3.06-3.38 4.25-2.62 2.84-4.8 3.93-2.29 1.53-3.17 2.62-6.22 4.69-1.31.55-3.06.98-1.85.22-1.31.55-1.53.65-1.2.66-1.2 1.09-.76 1.31-.55 1.42-.87 3.6-.22 1.42-.55 1.96-1.31 2.73-1.2 2.51-2.29 2.84-2.95 4.37-.54 1.31-.55 1.52 15.39 20.2-20.3 127.82v.76l-35.04 47.71 1.97.76 1.85.65 1.75.99 1.09.98 2.19 9.93.76 1.42 1.09 1.09 1.42.88 7.2.11h1.53l5.57-.11.76-.33.66-2.08.87-2.4.33-.98-.11-.98.54-1.2 5.35-17.25.22-1.2v-2.51l.76-1.97 2.08-5.45.87-.33 5.46.44 24.66-.11 16.81.98 41.04-.11 3.93.22 11.46.44 4.04.32-1.09 1.97-1.75 4.8-1.53 4.69-.98 4.04-.54 2.95-.44 6.77-1.64 39.18-.54 18.02-.33 8.51-1.09 29.58-.44 29.04-.87 14.41-.44 14.73-.44 28.71-.98 14.41v5.02l-18.01-.11h-7.09l-17.14-.76-28.48-1.31h-9.17l-.11 6.11-.44 3.38 1.09 2.62 2.3 1.09 3.82.11 3.27.55 4.26 2.4 2.83 3.82 3.61 6.44 3.38 5.46 3.27 1.42 4.48-.44 3.6-.87 14.3 9.71 3.16 1.97 2.3 5.24 1.63.65.77.44.22 3.6.43 1.31 1.2.77 1.75-.33.44.43.21 1.64-.11 1.64.33 1.64 5.79 6.87 3.16 3.93 4.8 6.44-.98 2.19-.33 2.07 5.46 6.66 5.79 2.73.76.43.66.33 6.33 3.6 1.63 3.61 1.09 1.09.88.32.54.11 1.64-.11.87.55.55.44 1.42 1.96 1.64 5.57 1.63 4.69 4.37 5.24 2.4 2.29 2.51 1.53 2.73 4.91-.22 4.15.55 3.93-.11 6.12.32 1.63 1.86 1.86 1.96 3.16.99 2.51 1.42 5.35 2.4 4.26.87 3.17-.55 5.02.44 3.93.55 3.27-.11 1.64.54 1.09.77.76 1.31.88.43.54.33.88.11 1.42 1.75 7.96.43 2.19.11 3.05-.54 6.01-.99 4.47-.11 1.09.22.88 2.08 3.05 1.2 1.31.76 1.42.33.77v.76l-.66 2.29v4.15l.66 1.75.44.65 3.38 2.51.44.77.21.76-.43 2.62.22.66.32.43.55.33 2.62.65.43.22.33.33.11.76v2.62l.33.44 2.62.98.43.88v.87l-.43 1.75v.65l.22.77.43.87.66.98 4.58 3.28 2.62 1.52 1.2.33 1.2-.33.88-.54.76-.33h.44l3.05 1.64-1.53 31.44-2.18 47.37-1.2 29.69-1.2 16.7v13.21l-.22 10.59-.43 16.81v3.16l.1 3.17v.43l.22 1.97-16.81 9.5-21.82 12.33-3.93 2.07-2.95 1.42-2.51 1.09-2.73.88-2.84.87-2.83.66-2.95.54-3.06.22-3.82.11-18.12-.44-18.11.11-4.7-.11-11.57-.22-25.54-.1-12.77-.11-12.77-.33-11.57-.11-16.8-.11h-19.1l-10.7-.11h-13.86l-3.28.11-2.51.11-1.96.11-2.73.33-2.29.21-2.62.55-2.73.33-5.89.98-8.08 1.09-1.2.11-16.26 2.4-15.39 2.19-4.15.65-2.84.44-4.91.54-10.7.99h-1.63l-3.71.21-1.97-.11h-3.27l-5.46-.21-4.58-.33-8.3-.22h-1.96l-4.37-.11-20.19-.33-26.63-.54-18.88-.77-9.5-.32-13.42-.44-8.3-.22-10.26-.22-26.52-.65-7.42-.11-6.44.33-5.9.21-3.38.11-6.88.22h-4.8l-11.46-.22-6-.32-2.08.11-1.41-.11h-1.75l-16.48-.44-12.88-.33-3.06.11-8.29-14.63-7.42-14.29-6.55-14.2-2.95-7.53-2.73-7.09-2.94-8.08-3.5-10.81-3.71-13.64-7.75-28.71-8.29-30.78-4.37-14.74-2.95-11.24-2.4 1.09-5.34 3.71-7.1 4.15-11.68 7.31-2.73 1.53-2.18 1.09-4.47 1.64-4.15.55-14.41-.22-10.37.65-4.14.55-3.61.65-.87.44-24.67 11.13-5.02 1.1-24.12 7.31-18.22 4.69-1.86.66-2.18.98-1.64.98-2.07 1.75-1.42 1.53-1.53 1.74-1.53 2.41-1.64 2.07v.87l-.11 1.31-.43 1.31-1.64 4.7-.76 2.94-5.13 15.72-2.62 12.23-2.73 29.03-.77 6.66-1.52 16.7-.77 8.08-.11 4.37-.32 7.75-.66 4.36-.87 8.3-.44 1.75-1.64 4.58-1.09 2.51-2.94 5.46-1.75 2.95-1.75 2.83-.87 1.64-.55 1.2-.32.66.11 1.2.11.54.1.44.22.44.33.54.33.44.33.44.32.43.55.33.54.44.66.32 1.2.66h-2.62l-3.27.22-3.61.22-16.26 1.09-19.97 1.42-3.93.32-2.84.33-2.07.44-1.64.32-1.31.44-1.42.44-5.13 1.85-3.49 1.64-2.62 1.53-.55.76-.54 1.31-5.02 2.3-4.15 3.93-4.69 4.14-2.84 3.17-2.95 2.29-1.96 1.64-1.53.43-.55.99-.65 1.09-.66.76-2.18 1.75-.76.76.11 1.1-4.59 4.03-16.37 14.96-1.09-1.53-.44-.33h-.43l-.44.11-.44.44-3.82 3.27-.22.33-.21.44h-1.53l-.98-.11-.88.54-.76.11-.98-.11-4.26-1.52.11.65.44 2.29.54 1.53.87 1.64 1.97 2.73.44.54-2.3 2.19-2.29 2.18-6.33 5.78-12.01 10.81-4.8 4.48-9.27 8.29-2.51 2.29-3.93 3.61-1.97 1.85-2.62 2.4z" stroke-linejoin="round"/></defs><use xlink:href="#d" fill="#9dc8ca" stroke="#9dd7f0" stroke-width="5.76"/><defs><path id="e" d="M514.4 2556.22l-.22.11-1.2.22-10.48-.66-8.51-.21v-6.66l-.22-2.4-.76-3.5-2.84-9.06-.77-3.16-.87-3.06-.54-3.38-.11-2.62-.11-2.3v-2.07l5.67.33 3.71.22 3.28.11v-1.31l17.24.76v-2.18l.11-20.42-10.15-1.2.22-12.44 6 .22 4.04.11.11-2.08.11-.54.44-.77.21-.21.33-.22.44-.11h.54l.66.11 7.75 2.07 13.2 3.6 8.3 1.97 6.11 1.96 1.09.22 1.09.22.88.33 1.09.22 1.09.32 1.09.33.77.33.76.32.76.55.66.44.55.43.65.33.55.33.87.22.54.11h.55l.11-3.06.11-8.41 4.36.11 15.72.77 3.71.11 11.13-.22 25.11 1.2v-19.1l-.44-11.25-.11-17.46-.11-3.6v-1.42l-5.67-3.39-12.99-6.76-7.09-3.17-7.86-3.6-4.59-2.29-6.11-3.06-6.66-3.49-1.42-.66-1.52-.87-1.31-.66-1.1-.43-1.09-.55-2.94-1.31-2.51-1.09-1.64-.65-1.53-.66-1.53-.65-1.31-.44-1.31-.44-1.31-.33-1.2-.21-1.31-.22-1.52-.22-2.08-.11-1.85-.11h-1.64l-1.42-.11h-1.42l-1.75.11h-1.41l-1.31.11h-.99l-1.2.11-1.31.22-1.09.11-1.2.22-1.09.1-1.64.33-2.4.33-2.07.22-2.08.11-1.96.11-1.2.11-2.07-.11v-8.63l.32-19.97v-.99l-.11-1.63.22-4.91.11-6.99.11-5.35-17.9-15.5-.44.44-1.52.22-8.3-.44-5.24-.22.44-14.74-.22-8.73v-5.24l-15.17-2.29-24.01-.11v-3.93l-.11-3.6.11-1.09v-4.15h-2.73l-.87.44-7.86-.11-3.71-.11h-1.42l-10.26-.44v-1.53l4.36.22 3.82.11 2.19.11v-1.42l-.11-1.64v-1.31l.11-1.42v-1.2l3.16.44 16.05-.44.1 1.64v6.77l9.5.44 6 .32 3.71.11 17.14.66 10.26.32h3.6l2.51.11 1.64.11.87.55 3.28.33 3.16.21 2.51.11h.11l3.28.11h2.18v-1.53l.11-4.14v-12.56l.11-3.49v-15.72l.11-4.58-.11-7.32v-4.91l-.11-2.94-.22-2.19-.33-3.16-.22-1.97v-4.58l.11-4.7.11-3.71v-3.93l.11-1.2v-3.6l.11-1.42.11-2.07.22-2.3.11-1.63v-1.09l.11-1.53.21-4.04v-11.14l-.11-6.98v-.87l.22-1.21h15.07l.98.66h1.42l2.83-.11 3.39.22 4.25.11 2.62.11 2.4.11h2.08l1.85.21 2.08.22 1.63.11 1.64.11 1.64.11h1.31l1.31.11 2.29.11h1.75l2.4.22 7.75.22 1.96.21.66-9.49v-1.86l-.22-.76-.22-.77 1.64-1.96 34.49-40.39v-4.91l.11-3.17v-3.27l.11-2.95v-2.73l.1-3.38.11-4.8-.11-2.19.11-6.66.11-10.26v-5.67l.11-4.15v-1.31l.11-1.09v-.88l.11-1.09.87-6.98 2.08-16.05.32-2.84.66-5.02 1.09-8.95.87-6.11.11-.88.22-1.85.44-4.59v-.76l.11-5.13.22-9.5.1-6.66.11-1.52.22-2.95.11-1.31.11-.44.11-.54.33-.77.65-1.2.66-1.09.87-.98.55-.44 1.52-1.42 2.73-2.84.98-1.2.88-1.2.65-1.42.55-1.41.44-1.53.21-1.86.22-2.29.11-.55.33-8.07.33-10.92.32-7.97.22-8.73.11-7.42v-3.71l.22-7.43-6.88-.33.66-26.85.33-6.66.21-1.31.22-1.09.44-1.09.54-.87 1.2-1.64-1.2-.87-.43-.55-.55-.65-.43-.99-2.41-6.98-.98-1.97-1.09-1.96-1.2-1.86-.66-.98-4.14-5.78-1.97-2.84-.43-.77-.44-.98-.22-.55-.54-1.74-.22-.98-.11-.44-.11-1.64-.33-6.11-1.64-27.18v-.98l-.87-14.96-1.31-20.96-.44-10.69v-5.35l.33-1.75.33-1.85.33-.88.32-.98 3.82-7.2-5.67 5.56-5.68 5.9-2.94 2.94-8.08 8.19-1.53 1.86-.54.76-.77 1.09-.43.66-.88 1.31-2.29 3.71-14.3 23.36-7.86 12.99-5.34 8.73-3.28 5.35-1.64 2.51-1.2 1.75-2.72 4.04-22.82 30.45-4.91 6.55-4.25 6-1.86 2.73-1.96 2.95-.22.33-1.53 2.4-1.2 1.74-2.07 2.3-1.53 1.52-1.53 1.21-.66.54-1.85 1.31-1.86.98-1.96.88-1.97.76-2.07.44-2.07.43-13.32 1.31-9.71 1.2.54-25.76.22-8.51.55-22.05 1.09-22.05-6.66-19.1-12.11-9.94-.44 1.1-17.68-14.85 13.2-25.87 8.63-16.81 14.73-16.04 5.79-6.23 76.61-83.39 12.77-10.04 73.79-58.62 4.25-7.53 5.57-10.59 8.73-13.86 5.68-11.14 3.82 2.4v-2.4l.32-.87.44-.22.98.11.44-.33.33-.65.11-.55-.66-3.27v-.55l.22-.54.44-.22.98.22.54-.22.22-.66 1.53-3.82.11-1.85-.33-1.53-.11-.66.22-.43.44-.22 1.85-.33.22-.44.98-2.18v-.44l-.43-1.74v-1.2l.11-.66.32-.22.44-.11.55-.1.32-.22 2.08-3.61.87-2.62.55-1.2 1.85-2.29.22-.43v-1.64l.11-.33.22-.33.54-.11 2.08-.98.43-.33 8.63-9.71 2.4-5.02 2.07-8.84v-.99l-.22-.65-2.4-2.95-.22-.65-.65-1.42.11-.33.33-.11.21.33.77 1.64.54.76.77.44.32.32h.44l.44-.21.33-.33.21-.55-.11-.65v-2.19l.22-3.27.44-2.4.11-.88.33-.54 4.36-6.66 6.88-12.77.33-.76.1-1.1-.21-.65-.33-.77-.44-.65-1.31-1.97-.65-1.3-.22-.77.11-.76.33-.66.43-.43.55-.22 2.07-.44.55-.11.43-.22.44-.43 4.37-10.37 6.98-17.58.55-.87.43-.33.44-.11.44.33.32.22.33-.11.77-.11 1.74-.44 1.75-.98.65-.54.33-.55 1.2-3.71.77-4.26v-2.95l-.11-.65-.11-.33-.44-.87-.22-.77v-1.31l.44-.98.76-.98.88-.87 3.38-3.39 13.42-20.08.11-.33.11-.76.22-.33.33-.11h.33l.98 1.09.87.76 1.31.44 1.75.11.87-.22.66-.33.43-.65 12.12-28.16 10.26-15.83.43-.55h.55l.22.22.54.66.44.11.44-.11.32-.11 4.37-2.73.44-.33.32-.43 1.2-2.3 3.5-6.44 1.42-1.96 1.74-2.19 2.29-2.18 14.08-13.53 21.83-21.73 21.5-39.95.88-3.71 6.33-31.76 4.8-3.28 8.29-5.13 7.1-4.25 4.04-2.52 11.35-5.89 6.22-3.49 1.75-.99 1.74-.87 4.37-1.96 12.66-5.46 7.97-3.6 3.16-.99-.11 9.39-.11 3.6-.54 23.04-.44 11.89-.33 10.59-.21 5.02-.77 32.86v4.04l-.11 3.93-.76 35.15-1.53 5.78.22 12.55.54 8.95.11.99-.76-.11h-.76l.1 1.64.55 3.27.22 1.42.98 5.02.22.87.33 1.53 1.2 5.02-.55 3.5-1.2 9.6-1.31 4.7-1.75 5.56-.65 3.6-.22.99-.11.76-.33 2.29-.98 6.33-.32 2.62-.22 1.42-4.91 36.68-.44 3.82-.33 3.93-.22 4.04v4.36l.66 5.24.54 4.15 1.42 6.22.77 2.84.98 2.4 1.64 4.04 2.83 5.35 3.06 5.02.87 1.2 2.4 3.06 1.31 1.31 1.86 2.07 11.46 10.15 7.42 6.23 2.84 2.51 1.96 1.85 5.9 6.88 3.05 4.58.99 2.08 2.51 3.71 1.42 2.84 2.72 5.67.77 2.41.76 2.29.55 1.85.43 1.09.33 1.1.22.65.44 1.2.21.88 1.1 3.6 2.72 8.4 1.86 5.68 4.26 12.66 8.07 25.65 5.13 14.41 2.95 7.53 5.35 12.01 16.7 37 1.63 3.61.88 1.85-2.62 2.62-2.84 3.49-.33.88-.98 3.71.33 4.26 1.31 3.05 1.53 2.19 2.29-.33h3.6l3.71 1.2.55.87 1.74 3.5 2.95 8.07 4.15 7.64 3.05 3.72 1.64.32 2.07 10.26.55 5.68.11 3.82-.11 4.15-.44 4.69-.65 4.48-5.57 26.74 8.41.22.65-.44 2.95-1.42 8.62.99-1.75 9.38-4.69-.32-4.36-.44-3.17-.22-4.69-.33-3.5-.32-.54 2.51-5.02 22.59-7.1 31.66-2.83 15.06-.33 2.18-.22 4.26-.22 7.97.55 7.86.11 3.38 1.31 9.28.11 3.06-.22 10.58.22 3.93.43 2.41.98 2.83 2.95 8.95 2.29 9.39 2.19 6.99 1.2 4.8.54 3.71.66 6.22.43 5.35.11 3.06-.11 2.4-.11 3.06-.54 4.04-.55 3.27-.11.66-.43.87-.44.76-.44.77-.98 1.31-.43.76-.33.66-.22.65v1.31l.33.76.98 1.42-1.42 1.86-.22.44-.33 1.09.88-.11.33-.33 1.96-2.29 2.73-2.95 1.53-1.64 2.4-2.62 2.51-2.72 4.04-3.72.76 2.41 7.64 28.16 2.29 8.08 3.6 13.53 1.64 5.57 1.86 6 .98 3.6 2.29 8.74 1.64 6 5.13 18.01 1.2 4.37 1.85 6.87 7.75 31.44 1.1 4.48.76 2.83.65 2.73 1.2 6.12 1.42 7.64.44 2.4.33 2.18.65 3.93.22 1.53.76 5.13.44 2.95.77 4.91.43 3.27.33 2.95.22 1.86.87 7.31.33 2.62.33 3.06.21 2.51.33 3.71.33 3.16.33 3.93.11 2.51.21 2.62.22 4.26.22 3.93.11 2.29.22 3.6v.88l.11 4.58.11 5.46.32 5.57v6.33l-.11 14.73v9.39l-.1 3.93v2.84l-.11 3.71v5.13l-.11 7.64.11 6.99.43 6.55.11 2.94.33 4.26.11 1.86.43 5.13.66 5.78.98 6.55 1.42 8.52 2.29 13.75.88 5.79 1.41 8.29.11 1.2.55 3.6.33 2.51.32 1.53.33 1.97.33 1.63.55 3.39 1.3 7.53.77 4.59.22 1.96 1.74 12.01.66 4.14.76 4.15.11 1.2.44 3.06.65 5.35.44 4.36.22 3.06.22 3.06.21 2.84.22 3.16.22 2.84.11 2.95.44 4.69.22 2.95v.43l.21 2.95.22 5.24.22 5.46.11 10.81v10.8l-.22 19.1-.11 2.62v1.75l-.87 41.59-.11 4.69v5.46l-.22 8.62-.11 5.68-.11 2.62v2.51l-4.58-.11h-2.08l-5.12-.22h-5.24l-2.62-.11h-5.35l-3.17-.11h-7.09l-2.95-.1h-3.38l-1.53-.44-1.42-.55-1.2-.87-.87-.76-.66-.44-.65.54-.66.99-.21.65-.55.66h-2.4l-2.4-.11-1.64-.11-1.53-.11-3.05-.11h-1.31l-1.53-.11h-1.42l-1.64-.11-2.94-.11-1.64-.22-1.42-.32-.55-.44-.54-.55-.44-.1-.76.1-.77.33-.87.55-.66.33-1.63-.22h-1.53l-1.53-.11-2.95-.22-3.16-.22-3.06-.22-1.52-.22-1.1-.32-.87-.66-.98-.87-.66-.77-.65-.65-.77-.22-.76.11-.11 2.4v1.53l-7.09-.55-1.2-.87-2.3-.11-4.91-.33-6.65-.32h-2.3l-.87-.11-2.73-.11-7.75-.22-3.71-.22h-2.07l-3.49-.11-3.06-.11-4.91-.21h-2.62l-3.17-.22h-2.4l-2.18-.11-1.31-.11h-1.64l-1.74-.11h-1.97l-2.51-.11-2.95-.11h-1.74l-2.4-.11v.33l.21.55-3.38-.11v-2.08l-5.35.98h-2.18l-2.18-.1-2.73-1.42v2.18h-1.53l-.33-1.2-.54.33-2.19-.11-1.85-.11h-2.18l-1.64-2.29-2.29 2.18-1.97-.11h-1.96l-1.75-.11-5.13-.11-2.29-.11-2.07-.11-2.62-1.85v2.73h-1.64l-.22-1.2-.22.21-3.16-.1-3.06-.11h-2.95l-3.16-.11-3.06-.11-3.05-.11-3.06-.11-2.84-.11h-1.74l-2.84-.11-3.6-.11h-1.64l-2.51-.11-2.07-.11h-1.75l-2.07-.11h-1.64l-2.07-.65-1.75-1.31-2.73 1.31-1.53-.11h-1.42l-1.63-.11-1.42-.11-1.64-.33-1.75-.54-.65-.33-.55.22-.54.33-.98.32-1.42-.1h-1.64l-1.75-.11-1.74-.22-1.53-.33-1.42-.98-.87-.44-.88.33-2.94.87-2.51.11-2.95-.11-1.31-.65-1.31-.66-.66-.11v1.75l-.1.87h-.88l-.22-.76-.21-.77-.22.11-1.53.11h-4.37l-1.31-.32-.76-.22-.87-.22-.77-.55-.76-.87-.55-.33-.54.44-.66.44-4.04 1.09-2.07.11h-2.07l-2.4-.44-2.08-.66-1.64-.65-1.2-1.09.11 2.29v1.31h-1.85l-.11-1.2-.44-.98-.33.11-1.85.76-3.06.11-4.58.22-4.15-1.75v.98l.11 1.75h-1.2l-1.2-.76-.76-.22-.77-.11h-1.85l-.77-.11h-3.27l-2.08-.11h-5.24l-.76-.11h-5.24l-11.79-.22h-3.49l-1.2.66h-4.04l-2.94-.11-3.93-.11-2.62-.11-3.06-.11-2.51-.11-9.6-.22h-1.64l-1.09-.11-8.19-.21-3.38-.11h-1.42l-5.35-.11-2.4-.11-11.24-.55-1.64-.11-1.85-.11-2.19-.21-2.73-.11-2.18-.22-1.53-.11-2.51-.11-1.42-.11-6-.33-.98-.11h-1.97l-3.05-.21h-2.62l-1.86-.11h-1.53l-1.63-.11-1.97-.11h-1.63l-1.1-.11h-1.2l-1.41-.11-1.42-.11h-1.42l-1.53-.11h-1.2l-1.75-.11-2.62-.11h-1.09l-1.42-.1h-1.42l-1.2-.11-2.29-.11h-2.18l-1.75-.11-2.29-.11-1.75-.11-1.31-.11-1.96-.11h-1.64l-1.96-.11h-1.97l-3.27-.11h-.87l-.77-.54-5.13-.66-18.23-.65-8.29-.44h-1.2v1.42l-11.68-.55-2.84-.21-4.36-.22-1.42-.11-.77-.44h-1.42l-4.14-.22v.99l-.11 2.07.11 1.75v5.34l-.11 7.97-.22.99-.11.43-.76.98-.99.66-.98.65-1.85.55-1.75.11-4.47-.55-2.95-.54-3.06-.11-1.63.22-2.08.43-1.74.66-1.42.33-1.2-.22-1.1-.66-.1 13.65-.33.65-.11.11z" stroke-linejoin="round"/></defs><use xlink:href="#e" fill="#6bacaf" stroke="#6bb4d2" stroke-width="5.76"/><defs><path id="f" d="M520.84 2290.53v1.53h-2.18l-3.28-.11h-.11l-2.51-.11-3.16-.21-3.28-.33-.87-.55-1.64-.11-2.51-.11h-3.6l-10.26-.32-17.14-.66-3.71-.11-6-.32-9.5-.44v-6.77l-.1-1.64-16.05.44-3.16-.44v1.2l-.11 1.42v1.31l.11 1.64v1.42l-2.19-.11-3.82-.11-4.36-.22v1.53h-1.64l.11-1.53-12.22-.43-5.79-.22.11-2.51.11-10.26.11-4.15v-2.51l-6.33-4.48-4.04-2.83-3.28-2.95-8.73-11.68-3.05-3.28-10.92-11.46-11.24-11.79.22-2.29.11-2.62v-5.46l-.11-1.85-.22-1.86-.22-1.85-.32-1.97-.22-1.74-.33-2.08-.33-2.07-.22-1.42-.21-1.53-.33-1.42-.44-1.75-.33-.98-.54-1.09-.55-1.2-.87-1.96-.87-1.75-.66-1.42-1.09-2.29-.33-1.31-.54-1.75-.44-1.75-.22-1.2.11-1.74v-.99l.11-1.2v-.76l.11-1.53.22-4.91v-2.51l.11-2.84v-3.27l.11-2.62v-14.41l.32-19.87-2.62-.54-1.96-.77-6.22-3.27.33-34.82.1-22.16.44-14.19.22-14.52.33-14.3.32-13.86 4.81.11v-1.97l.11-10.81.11-12.55.21-13.42-8.07-.22-4.48-.22h-.98l.22-8.62-15.83-3.06-2.51.55-11.46.21-.22 2.84.22.98.11 3.72.66 15.82-24.13-21.17-14.18-2.19-4.37-.65-5.68-6.66.77-18.99 3.82-4.92 1.85-2.4 7.86-10.69 4.04-4.26 1.53-1.31 1.74-1.53 2.73-1.75 9.39-6.11 7.53-5.35 3.82-2.4 11.79-7.97-.22-3.38 8.4-19.87-9.38-.54.65-1.2 44.21-39.08.76-.98.22-1.1 5.13-.32 23.36-19.43 7.96-5.79 74.88-54.25-8.63 16.81-13.2 25.87 17.68 14.85.44-1.1 12.11 9.94 6.66 19.1-1.09 22.05-.55 22.05-.22 8.51-.54 25.76 9.71-1.2 13.32-1.31 2.07-.43 2.07-.44 1.97-.76 1.96-.88 1.86-.98 1.85-1.31.66-.54 1.53-1.21 1.53-1.52 2.07-2.3 1.2-1.74 1.53-2.4.22-.33 1.96-2.95 1.86-2.73 4.25-6 4.91-6.55 22.82-30.45 2.72-4.04 1.2-1.75 1.64-2.51 3.28-5.35 5.34-8.73 7.86-12.99 14.3-23.36 2.29-3.71.88-1.31.43-.66.77-1.09.54-.76 1.53-1.86 8.08-8.19 2.94-2.94 5.68-5.9 5.67-5.56-3.82 7.2-.32.98-.33.88-.33 1.85-.33 1.75v5.35l.44 10.69 1.31 20.96.87 14.96v.98l1.64 27.18.33 6.11.11 1.64.11.44.22.98.54 1.74.22.55.44.98.43.77 1.97 2.84 4.14 5.78.66.98 1.2 1.86 1.09 1.96.98 1.97 2.41 6.98.43.99.55.65.43.55 1.2.87-1.2 1.64-.54.87-.44 1.09-.22 1.09-.21 1.31-.33 6.66-.66 26.85 6.88.33-.22 7.43v3.71l-.11 7.42-.22 8.73-.32 7.97-.33 10.92-.33 8.07-.11.55-.22 2.29-.21 1.86-.44 1.53-.55 1.41-.65 1.42-.88 1.2-.98 1.2-2.73 2.84-1.52 1.42-.55.44-.87.98-.66 1.09-.65 1.2-.33.77-.11.54-.11.44-.11 1.31-.22 2.95-.11 1.52-.1 6.66-.22 9.5-.11 5.13v.76l-.44 4.59-.22 1.85-.11.88-.87 6.11-1.09 8.95-.66 5.02-.32 2.84-2.08 16.05-.87 6.98-.11 1.09v.88l-.11 1.09v1.31l-.11 4.15v5.67l-.11 10.26-.11 6.66.11 2.19-.11 4.8-.1 3.38v2.73l-.11 2.95v3.27l-.11 3.17v4.91L586 2159.44l-1.64 1.96.22.77.22.76v1.86l-.66 9.49-1.96-.21-7.75-.22-2.4-.22h-1.75l-2.29-.11-1.31-.11h-1.31l-1.64-.11-1.64-.11-1.63-.11-2.08-.22-1.85-.21h-2.08l-2.4-.11-2.62-.11-4.25-.11-3.39-.22-2.83.11h-1.42l-.98-.66h-15.07l-.22 1.21v.87l.11 6.98v11.14l-.21 4.04-.11 1.53v1.09l-.11 1.63-.22 2.3-.11 2.07-.11 1.42v3.6l-.11 1.2v3.93l-.11 3.71-.11 4.7v4.58l.22 1.97.33 3.16.22 2.19.11 2.94v4.91l.11 7.32-.11 4.58v15.72l-.11 3.49v12.56l-.11 4.14z" stroke-linejoin="round"/></defs><use xlink:href="#f" fill="#09757a" stroke="#097d9b" stroke-width="5.76"/><defs><path id="g" d="M1200.59 3447.05l-5.02 1.41-7.53-1.09-2.51.77-1.31.98-1.42 3.38-3.16 6.33-10.81-2.29-2.73-8.18-1.64-2.19-2.4-2.18-6.44-2.51-5.67-2.08-3.71-2.4-6.77-1.42-5.89-.21-3.06.76-4.58 2.07-1.53 2.73h-.66l-18.33-1.09-.44.11-.65.11-1.75.11-12.22-.11.21 4.69.11 2.73-8.73.33-10.37.44h-6.22l-6.22-.33-4.58-1.42-.11-2.84-.11-2.29v-1.2l.22-1.97.1-.98.22-1.85.22-1.53.22-1.09.22-1.31.33-1.42.32-1.75.22-1.2.33-1.75.11-1.42v-.11l.33-1.96.1-1.09.22-1.86.11-1.09.11-1.42.22-3.82.11-1.96.11-2.4v-4.15l-.11-2.84-.11-2.51v-4.48l.11-1.63.11-1.1.11-1.2.21-1.31.22-1.74.22-2.19.22-11.46v-5.02l.11-9.71.22-10.15.22-12.78v-.98l.43-13.21.33-27.83 3.38-.11.88.11.76.11.76.22.66.32 1.31.77.76-14.19.11-14.74 1.75-41.91h1.31l-.22-1.64h-1.09l-2.18.22-3.39.32.33-.65-5.57-.44-1.74-.22-3.39-.32-2.4-.22-4.69-.33-3.6-.44-3.06-.32-2.51-.33h-.55l-2.72-.22-1.86-.11-3.27-.22h-2.51l-1.2.99h-1.64l-6.22-.22-5.46-.22-5.35-.33-.98-.54h-1.64l-4.36-.11-2.19-.11-3.93-.22-6.11-.44-5.89-.22-13.43-.43-13.64-.55-9.28-.33-15.28-.54-7.75-.22-2.83-.11-3.39-.22-3.05-.11-2.95-.11h-.98l-.99-.1-5.89-.11-9.93-.55h-2.18l-2.08-.11-2.07-.11h-1.09l-2.62-.11-1.86-.11-3.16-.11-3.93-.1-1.31-.11-1.97-.11-2.62-.11-3.49-.11-1.42-.11-2.07-.11-8.19-.44-5.56-.32-2.84-.11-5.13-.33-4.69-.33-4.15-.11-1.09-.76-6.22-.33h-1.86l-6.22-.22-4.91-.21-13.54-.66-1.09-.11-2.51-.11-5.56-.33v2.19l-7.43-.33h-3.71l-4.04-.11-3.82-.11-2.72-.11-4.7-.22-.11 2.08-.11 4.36v1.31l-.11 1.97v5.89l-.21 5.13-.33 11.68-.55 1.2-8.29 2.3-48.68-8.84-14.52.43-28.16-3.16-.87 34.38-.44 11.68-.98 37.55v.55l-.22 21.94-.32 14.4h-12.45l-14.08-.76h-12.55l-10.69.33-19.65-.55-15.72-.76-15.06-.77.11-3.93-.11-3.05-7.09-.44h-3.39l-2.07-.22-3.82-.76-2.18-.87-4.04-1.64-.22 1.64-.11 6-8.4-.76-.33-35.7-.66-17.9.55-12.77v-11.9l-.76-11.57 1.74-15.17.33-10.48.11-3.93.11-2.84 1.53-1.96 1.31-2.73 1.09-3.5.65-1.63.55-4.15.11-12.45 5.78.22.66-12.11-.11-13.76 4.36-11.13v-4.59l-.32-9.16 2.51-1.75 15.6-.33-.21-2.84-.44-3.71v-2.07l.33-7.86.32-6.88.77-13.97-23.9-22.38-10.48-8.84-16.81-14.41-5.13-3.38-.44-2.51-1.42-.88-3.92-1.74-3.82-1.75-3.17-1.53-.98-.43-1.64-.77-5.46-3.05-1.31-.66-1.96-1.2-1.97-1.09-4.69-2.95-2.07-1.2-1.31-.98-3.06-2.07-3.05-2.19-2.41-1.74-2.07-1.53-.87-.77h1.2l1.09.11h1.31l7.86.33 5.78.22 8.08.43 6.98.33 6.77.33 4.15.22h3.38l8.3.33h4.36l5.02.21 12.12.55 11.79.44 14.4.65v-1.75l.11-3.71.11-5.56.11-23.36.11-5.24.11-8.74.11-2.94v-3.17l.11-7.2.11-8.73v-1.97l.21-17.46.11-8.3.22-22.05.11-7.53.22-16.16.11-4.91.11-7.2.11-2.19.11-2.73v-1.09l.11-6.55v-5.02l.1-10.04.11-1.64.22-14.41.11-13.09.11-17.36.22-18.56.11-10.91v-16.7l.22-8.41.11-2.62.1-3.82v-.98l.22-5.79.11-2.94v-12.99l.11-3.82v-3.5l2.07.11 4.37.22 5.02.11 2.51-.11 1.97-.11 1.74-.33 1.86-.65.65-.22 1.75-.87 2.29-1.86 4.15-4.69 5.89-7.97 13.1.65 3.6.11 9.93.44 4.04.11h3.17l4.47.22 3.17.11 1.63.11.44.21.44.11.32.22-1.2 1.75-1.31 2.18-1.31 1.86-1.09 1.85-.98 1.64-.87 1.53-1.2 2.18-1.31 2.18-1.53 2.84-2.29 4.37 10.26-1.86 4.25-5.02 4.7-6.87 2.94-3.5.77-2.4-.98-2.07.65.54 36.67-1.74-4.25-19.11-1.31-4.47-1.42-4.37-.98-2.94-.77-2.08-.76-1.96-1.2-2.51-1.09-2.51-1.1-2.08-1.52-2.73-1.1-1.85 3.93-15.39-12.55-.22v4.25l-3.27-3.49-1.75-1.85-2.4-2.73-1.96-2.3-1.75-1.96-1.75-1.96-1.63-1.86-2.41-2.73-23.13-25.43-7.32-9.94-2.83-4.36-3.82-6.88-1.64-3.38-1.2-2.84-2.29-5.79-3.39-9.49-3.38-13.98-2.84-9.93-29.36-7.53-1.09-.33.11-2.18v-1.42h1.2l8.29.44 18.23.65 5.13.66.77.54h.87l3.27.11h1.97l1.96.11h1.64l1.96.11 1.31.11 1.75.11 2.29.11 1.75.11h2.18l2.29.11 1.2.11h1.42l1.42.1h1.09l2.62.11 1.75.11h1.2l1.53.11h1.42l1.42.11 1.41.11h1.2l1.1.11h1.63l1.97.11 1.63.11h1.53l1.86.11h2.62l3.05.21h1.97l.98.11 6 .33 1.42.11 2.51.11 1.53.11 2.18.22 2.73.11 2.19.21 1.85.11 1.64.11 11.24.55 2.4.11 5.35.11h1.42l3.38.11 8.19.21 1.09.11h1.64l9.6.22 2.51.11 3.06.11 2.62.11 3.93.11 2.94.11h4.04l1.2-.66h3.49l11.79.22h5.24l.76.11h5.24l2.08.11h3.27l.77.11h1.85l.77.11.76.22 1.2.76h1.2l-.11-1.75v-.98l4.15 1.75 4.58-.22 3.06-.11 1.85-.76.33-.11.44.98.11 1.2h1.85v-1.31l-.11-2.29 1.2 1.09 1.64.65 2.08.66 2.4.44h2.07l2.07-.11 4.04-1.09.66-.44.54-.44.55.33.76.87.77.55.87.22.76.22 1.31.32h4.37l1.53-.11.22-.11.21.77.22.76h.88l.1-.87v-1.75l.66.11 1.31.66 1.31.65 2.95.11 2.51-.11 2.94-.87.88-.33.87.44 1.42.98 1.53.33 1.74.22 1.75.11h1.64l1.42.1.98-.32.54-.33.55-.22.65.33 1.75.54 1.64.33 1.42.11 1.63.11h1.42l1.53.11 2.73-1.31 1.75 1.31 2.07.65h1.64l2.07.11h1.75l2.07.11 2.51.11h1.64l3.6.11 2.84.11h1.74l2.84.11 3.06.11 3.05.11 3.06.11 3.16.11h2.95l3.06.11 3.16.1.22-.21.22 1.2h1.64v-2.73l2.62 1.85 2.07.11 2.29.11 5.13.11 1.75.11h1.96l1.97.11 2.29-2.18 1.64 2.29h2.18l1.85.11 2.19.11.54-.33.33 1.2h1.53v-2.18l2.73 1.42 2.18.1h2.18l5.35-.98v2.08l3.38.11-.21-.55v-.33l2.4.11h1.74l2.95.11 2.51.11h1.97l1.74.11h1.64l1.31.11 2.18.11h2.4l3.17.22h2.62l4.91.21 3.06.11 3.49.11h2.07l3.71.22 7.75.22 2.73.11.87.11h2.3l6.65.32 4.91.33 2.3.11 1.2.87 7.09.55v-1.53l.11-2.4.76-.11.77.22.65.65.66.77.98.87.87.66 1.1.32 1.52.22 3.06.22 3.16.22 2.95.22 1.53.11h1.53l1.63.22.66-.33.87-.55.77-.33.76-.1.44.1.54.55.55.44 1.42.32 1.64.22 2.94.11 1.64.11h1.42l1.53.11h1.31l3.05.11 1.53.11 1.64.11 2.4.11h2.4l.55-.66.21-.65.66-.99.65-.54.66.44.87.76 1.2.87 1.42.55 1.53.44h3.38l2.95.1h7.09l3.17.11h5.35l2.62.11h5.24l5.12.22h2.08l4.58.11v3.6l-.11 4.37-.11 7.09.11 4.37.11 4.58.11 2.08v2.18l.11 2.51.22 2.51.22 3.06.22 3.27.21 1.86.44 3.6.44 4.37.22 1.74.54 5.24.22 2.62 1.42 11.25.11 1.31.22.87 1.41 8.62.55 3.5.22 1.63.33 1.31-1.31.33-3.93.98-.77.22-4.25 1.09.43 2.73.55 1.86.22.54.43.88.77.87.76.55 1.53.65 2.51.98.87.55.66.65.54.44.66 1.2.98 4.26 4.04 15.17 1.31 4.48.65 1.96 2.73 8.41 1.42 3.71 3.71 9.93 1.86 5.68.65 2.62.77 3.93.22 2.07v15.28l-2.41 3.82.99.98 1.63 7.65.66.98.22.98.21 1.2.33 1.09.55 1.53.43 1.31.77 1.86 10.59 20.85.76 1.41.55.88.76.98.76.98.88.77.87.76.98.76.98.66 1.1.44 1.31.43 1.31.33.65.11 1.64.22 1.31-.11 1.2-.33.43-.22 1.31-.65 2.41-1.31 1.41-.77 2.41 5.35 4.25 9.17 3.93 7.21.55 1.42.98 1.96.65 1.2.88 1.53 1.09 1.64.87 1.2.66.87 2.29 2.95 3.93 4.47 4.25 4.91.44.44 1.31 1.53.76.65 1.53 1.75 2.08 1.86 2.18 2.07 4.8 4.04 1.53 1.2 2.07 1.64 1.2.98 2.19 1.64.76.65 1.64 1.2.98.88 1.75 1.42.87.76.98.98 1.42 1.31 1.42 1.42 1.53 1.75 1.42 1.63 1.42 1.86 1.63 2.07.55.77.87 1.2 1.09 1.53 1.64 2.62.76 1.09.88 1.64.87 1.63.98 1.97 1.09 2.18.88 1.86.76 1.74.98 2.51.88 2.51.43 1.31.33.99.98 3.05.66 2.73.54 2.4.55 2.4.33 2.19.22 1.42.32 2.73.22 1.74.33 2.62.22 2.73.65 7.21.22 3.38.44 4.69.11 1.64.11 1.09.21 1.97.11 1.42.22 1.85.22 2.62.44 3.6.32 4.15.22 1.97.33 2.18.22 1.31.22.98.54 3.06.44 2.07.43 2.4.55 1.97.55 2.18.54 1.86.11.54.33 1.09.54 1.86.66 2.18.54 1.64.55 1.42.55 1.53.54 1.63.77 1.64.1.22 1.42 3.6 1.31 2.73.66 1.53.65 1.31.66 1.31.76 1.42.44.76.44.99 1.2 1.96.43.98.77 1.31.98 1.64 6.44 11.46 1.64 3.38 1.74 3.39.98 2.29.22.66.33.87.33.65.32.77.44.87.66 1.75.32.76 1.42 3.82 1.42 4.48.77 2.51.76 2.62.76 3.38.44 1.86.44 2.18.54 2.73.66 3.38.54 4.26.33 2.4.55 4.26.21 1.85.11 1.75.22 1.53.66 6.22.43 3.71.33 3.06.66 6.99.32 2.72.22 1.86.11 1.75.44 3.71.65 6.11.22 2.18.22 2.4.33 3.06.54 4.8.22 2.51 3.16.66.22 1.2.22 2.18.87 8.3.88 2.95.43 1.85.66 2.84.54 1.64.66 1.64.87 1.41.99 1.31 1.09 1.31.87.77.33.33 1.31.98 1.42.87 1.52.77 1.42.43 1.42.33 1.42.11h1.42l1.31-.33 1.42-.44 1.31-.65 1.09-.66 1.09-.87.87-1.09.88-1.09.76-1.2.55-1.2.43-1.42.44-1.42.11-1.53.11-1.53-.11-1.53-.33-1.42-.33-1.41-.65-1.42-.76-1.42-1.1-1.42-.98-1.2-1.31-1.2-1.31-1.09-1.53-.88-1.52-.65-1.64-.55-2.84-1.09 3.17.55 13.09 2.4 13.1 2.51 12.23 2.18.87.11 1.31.33 8.4 1.53 2.73.43v.77l1.31.22h2.73l9.28 1.63 8.29 1.53 2.73.44 2.07.32 17.36 2.52 4.69.76 2.84.55 2.95.54 7.53 1.42 6.33 1.09 2.07 7.64 1.42 3.6.76 1.64 1.97 6.55 1.42 4.59.22 1.09.1.65.22.77.33 1.52 1.53 15.07.76 4.36.22 1.64.33 4.91.22 5.35-.11 3.5-.44 1.09-1.31 1.85-.98.99-2.51 1.41-3.49 1.1-2.84 1.09-1.97.87-3.38 1.97-3.06 1.96-2.07 1.53-1.42 1.31-1.31 1.74-.98 1.31-.66 1.21-.65 1.31-.55 1.63-.76 2.95-.55 2.51-1.2 4.69-.11.88.22.65.33.88 2.29 4.58.33.87.33.99.32 1.52.11 1.1.11 1.31-.22 1.63-.54 3.06-.66 2.62-.65 2.07-.66 1.31-1.09 1.64-1.2 1.31-1.74 1.75-2.3 1.74-2.83 1.75-5.13 2.95-.77.32h-.98l-1.31-.11-.87-.1-1.2-.66-4.04-2.62-2.62-1.64-1.86-.87h-.87l-1.2.11-2.18.76-2.19 1.1-2.29 1.41-1.85 1.31-.88.88-.65.87-.98 1.53-1.1 1.85-2.4 4.59-2.73 5.35-1.74 3.05-1.2 1.53-1.86 2.08-1.42 1.63-1.09 1.64-1.53 2.4-1.52 2.84-.88 1.86-3.05 7.75-1.1 2.18-.87.98-.98.88-.87.43-1.1.33-1.41.33-2.41.21-1.96.22-3.6.55-1.42.33-1.2.54-.87.66-.55.87-2.18 3.06-.99 1.2-1.09 1.2-1.63 1.64-3.06 2.51-4.15 3.6-1.53 1.31-2.07 1.42-1.75 1.09-1.2.87-2.83 1.53-1.86 1.09-2.29 1.09-.55.44-4.36 2.4-.33.22-8.3 6.44-2.51 2.29-.76.77-2.07 2.29-1.31 1.42-1.09 1.42-3.5 5.02-3.27 5.46-1.86 3.49-.98 2.95-2.29 10.37-.66 1.41-4.25 4.92-1.31 1.2-2.19 1.09-1.96.87-3.49 1.09-4.48.44-2.51-.11-8.07-1.42-1.75-.33-1.53-.1-1.64.1-9.27 2.19-2.51.43-1.53.11-9.28-1.85-.87-.11h-2.19l-1.96.44-1.53.65-3.27 2.62-.88.87-1.09 1.42-4.8 8.63-1.31 1.63-2.18 1.75-1.53.55-2.18.32-2.62-.22-5.68-2.51-5.67-2.51-4.26-1.2-1.75-.22h-1.96l-1.2.55-1.53.76-.76.99-.44 1.09-.22 1.42v1.96l-3.93 22.71-3.93 22.81-.98.66z" stroke-linejoin="round"/></defs><use xlink:href="#g" fill="#09757a" stroke="#097d9b" stroke-width="5.76"/><defs><path id="h" d="M1437.22 3280.91l-1.97-1.09-2.73-1.42-6.11-3.28-6.44-3.49-9.06-4.91 2.4-4.59 1.1-1.85.98-1.53.65-.87.88-.88 1.85-1.31 2.29-1.41 2.19-1.1 2.18-.76 1.2-.11h.87l1.86.87 2.62 1.64 4.04 2.62 1.2.66.87.1 1.31.11h.98l.77-.32 5.13-2.95 2.83-1.75 2.3-1.74 1.74-1.75 1.2-1.31 1.09-1.64.66-1.31.65-2.07.66-2.62.54-3.06.22-1.63-.11-1.31-.11-1.1-.32-1.52-.33-.99-.33-.87-2.29-4.58-.33-.88-.22-.65.11-.88 1.2-4.69.55-2.51.76-2.95.55-1.63.65-1.31.66-1.21.98-1.31 1.31-1.74 1.42-1.31 2.07-1.53 3.06-1.96 3.38-1.97 1.97-.87 2.84-1.09 3.49-1.1 2.51-1.41.98-.99 1.31-1.85.44-1.09.11-3.5-.22-5.35-.33-4.91-.22-1.64-.76-4.36-1.53-15.07-.33-1.52-.22-.77-.1-.65-.22-1.09-1.42-4.59-1.97-6.55-.76-1.64-1.42-3.6-2.07-7.64-6.33-1.09-7.53-1.42-2.95-.54-2.84-.55-4.69-.76-17.36-2.52-2.07-.32-2.73-.44-8.29-1.53-9.28-1.63h-2.73l-1.31-.22v-.77l-2.73-.43-8.4-1.53-1.31-.33-.87-.11-12.23-2.18-13.1-2.51-13.09-2.4-3.17-.55 2.84 1.09 1.64.55 1.52.65 1.53.88 1.31 1.09 1.31 1.2.98 1.2 1.1 1.42.76 1.42.65 1.42.33 1.41.33 1.42.11 1.53-.11 1.53-.11 1.53-.44 1.42-.43 1.42-.55 1.2-.76 1.2-.88 1.09-.87 1.09-1.09.87-1.09.66-1.31.65-1.42.44-1.31.33h-1.42l-1.42-.11-1.42-.33-1.42-.43-1.52-.77-1.42-.87-1.31-.98-.33-.33-.87-.77-1.09-1.31-.99-1.31-.87-1.41-.66-1.64-.54-1.64-.66-2.84-.43-1.85-.88-2.95-.87-8.3-.22-2.18-.22-1.2-3.16-.66-.22-2.51-.54-4.8-.33-3.06-.22-2.4-.22-2.18-.65-6.11-.44-3.71-.11-1.75-.22-1.86-.32-2.72-.66-6.99-.33-3.06-.43-3.71-.66-6.22-.22-1.53-.11-1.75-.21-1.85-.55-4.26-.33-2.4-.54-4.26-.66-3.38-.54-2.73-.44-2.18-.44-1.86-.76-3.38-.76-2.62-.77-2.51-1.42-4.48-1.42-3.82-.32-.76-.66-1.75-.44-.87-.32-.77-.33-.65-.33-.87-.22-.66-.98-2.29-1.74-3.39-1.64-3.38-6.44-11.46-.98-1.64-.77-1.31-.43-.98-1.2-1.96-.44-.99-.44-.76-.76-1.42-.66-1.31-.65-1.31-.66-1.53-1.31-2.73-1.42-3.6-.1-.22-.77-1.64-.54-1.63-.55-1.53-.55-1.42-.54-1.64-.66-2.18-.54-1.86-.33-1.09-.11-.54-.54-1.86-.55-2.18-.55-1.97-.43-2.4-.44-2.07-.54-3.06-.22-.98-.22-1.31-.33-2.18-.22-1.97-.32-4.15-.44-3.6-.22-2.62-.22-1.85-.11-1.42-.21-1.97-.11-1.09-.11-1.64-.44-4.69-.22-3.38-.65-7.21-.22-2.73-.33-2.62-.22-1.74-.32-2.73-.22-1.42-.33-2.19-.55-2.4-.54-2.4-.66-2.73-.98-3.05-.33-.99-.43-1.31-.88-2.51-.98-2.51-.76-1.74-.88-1.86-1.09-2.18-.98-1.97-.87-1.63-.88-1.64-.76-1.09-1.64-2.62-1.09-1.53-.87-1.2-.55-.77-1.63-2.07-1.42-1.86-1.42-1.63-1.53-1.75-1.42-1.42-1.42-1.31-.98-.98-.87-.76-1.75-1.42-.98-.88-1.64-1.2-.76-.65-2.19-1.64-1.2-.98-2.07-1.64-1.53-1.2-4.8-4.04-2.18-2.07-2.08-1.86-1.53-1.75-.76-.65-1.31-1.53-.44-.44-4.25-4.91-3.93-4.47-2.29-2.95-.66-.87-.87-1.2-1.09-1.64-.88-1.53-.65-1.2-.98-1.96-.55-1.42-3.93-7.21-4.25-9.17-2.41-5.35-1.41.77-2.41 1.31-1.31.65-.43.22-1.2.33-1.31.11-1.64-.22-.65-.11-1.31-.33-1.31-.43-1.1-.44-.98-.66-.98-.76-.87-.76-.88-.77-.76-.98-.76-.98-.55-.88-.76-1.41-10.59-20.85-.77-1.86-.43-1.31-.55-1.53-.33-1.09-.21-1.2-.22-.98-.66-.98-1.63-7.65-.99-.98 2.41-3.82v-15.28l-.22-2.07-.77-3.93-.65-2.62-1.86-5.68-3.71-9.93-1.42-3.71-2.73-8.41-.65-1.96-1.31-4.48-4.04-15.17-.98-4.26-.66-1.2-.54-.44-.66-.65-.87-.55-2.51-.98-1.53-.65-.76-.55-.77-.87-.43-.88-.22-.54-.55-1.86-.43-2.73 4.25-1.09.77-.22 3.93-.98 1.31-.33-.33-1.31-.22-1.63-.55-3.5-1.41-8.62-.22-.87-.11-1.31-1.42-11.25-.22-2.62-.54-5.24-.22-1.74-.44-4.37-.44-3.6-.21-1.86-.22-3.27-.22-3.06-.22-2.51-.11-2.51v-2.18l-.11-2.08-.11-4.58-.11-4.37.11-7.09.11-4.37v-6.11l.11-2.62.11-5.68.22-8.62v-5.46l.11-4.69.87-41.59v-1.75l.11-2.62.22-19.1v-10.8l-.11-10.81-.22-5.46-.22-5.24-.21-2.95v-.43l-.22-2.95-.44-4.69-.11-2.95-.22-2.84-.22-3.16-.21-2.84-.22-3.06-.22-3.06-.44-4.36-.65-5.35-.44-3.06-.11-1.2-.76-4.15-.66-4.14-1.74-12.01-.22-1.96-.77-4.59-1.3-7.53-.55-3.39.44-.21 1.31-.22 1.41-.44 1.64-.44 1.42-.32 1.64-.44 2.4-.65 2.07-.44 1.75-.55 2.07-.43 1.75-.55 2.18-.44 2.29-.54 1.97-.44 2.18-.43 3.06-.77 2.4-.54 2.84-.66 3.38-.76 2.51-.66 2.95-.65 2.84-.77 2.29-.54 3.05-.66 3.28-.87 3.27-.77 6.44-1.41 8.3-1.97 1.2.22h2.73l2.83-.11 2.84-.33 3.17-.65 4.14-.98 1.97-.44 3.49-.87 9.28-2.19 9.38-2.4 18.67-4.58 2.07-.33 1.97-.11 1.2-.11h2.62l1.42-.11h5.89l2.95.22 2.51.11 1.63.22 1.1.11 1.41.32 2.08.33 3.49.55 3.93.76 4.04.66 2.84.32 3.93.66 2.83.54 22.6 3.82 1.96.33 10.92 1.86 16.91 2.73 12.12 1.96 13.53 2.18 1.31.22 2.84.33 4.91.55 2.18.21 4.04.44 3.28.11 3.82.11h3.82l11.35-.22 6.87-.11 11.57-.33 9.06-.21 6.44.11 2.51.1 2.95.11 4.91.33.87.11 7.43.76 2.83.22 2.62.22 8.3.55 9.38.43 12.45.55 12.22.54 2.62.11 2.18.11 5.68.22 6.33.33 5.78.33 5.02.32 4.92.11 4.36.11 4.37.11 7.64.11 14.4.22 11.79.33 5.13.11 13.97.32h13.97l7.21.11 4.58.11 6 .11 11.46.44 12.99.43 1.75.11 10.04.22 13.1.11 13.09.44 17.69.65 8.62.33 8.07.22 6.44.11 1.64.11h2.29l2.19.1 5.89.22 6 .11 6.77.22 6.33.22 20.19.33 20.74.76 2.07.11 12.12.44 15.93.11 7.53.21 6.33.11 4.7.11 7.75.33 14.84.65 4.59.22 3.05.11 4.37 1.09 4.8 1.1 1.42.43 4.04 1.75 10.91 3.71 3.06.44 6.55-.44 3.16-.66 12.88-3.82 9.5-2.72 1.41-.22h7.32l5.02-.11 15.82.33 35.04.43h9.71l22.92-.43 2.62-.33 11.46-3.28 10.48-4.04 3.17-1.41 1.63-.88 1.64-.76 1.31-.55 1.2-.43 1.31-.33 1.2-.22h2.73l1.42.11 1.42.11 1.42.22 1.63.21 2.08.44 1.96.33 1.64.44 1.64.43 1.09.44 1.2.44 1.09.43.87.55.77.54.98.66 1.64 1.53 2.83 2.73 1.42 1.41.88.99.76.87.66.98.54.99.33 1.09.33 1.31.21 1.63.11 2.51v2.08l.11 2.07.11 1.2.22.88.11.65.44 1.42.76 2.51 4.69 11.9 1.75 4.26 2.07 5.13 1.53 3.93 1.53 4.03 1.53 3.83 1.63 4.47 1.75 5.02 1.31 3.71 1.09 2.62.66 1.86.87 1.85.98 1.75.88 1.42 1.09 1.42 1.63 1.96 1.42 1.53 1.75 1.64 1.53 1.09 1.31.87 1.09.66 1.31.54 1.2.44 1.2.44 3.06.98 3.38.98 1.74.55 1.75.65 2.95 1.2 2.73 1.2 2.18 1.1 2.51 1.09 3.49 1.85 1.97.88 1.74.54 1.53.33 1.42.22.76.11.66-.11.54-.22.66-.33.44-.54 1.96 1.63 2.62 2.19 2.62 1.85 2.73 1.86 2.84 1.75 1.42.87 1.52 1.09 1.31 1.09 1.31 1.2 1.09 1.09 1.2 1.53 1.31 1.64.99 1.75.87 1.52.76 1.53.77 1.86.43 1.31.44 1.53.77-.33.65-.44 1.53-1.09 1.96-1.42 1.86-1.2 1.96-1.09 2.08-.87.76-.22 1.75-.55 1.85-.43 1.75-.33 1.85-.11 1.86-.11h20.08l7.31.22 6.66.43h.22l2.84.33 3.93.44 6.98 1.09 11.03 1.75 1.74.21 5.24.88 6 .76 5.46.33 10.26.44 10.7.54 18.99.66 2.73.11 16.15.76 10.26.66 8.73.54 18.88.98 7.32.44 11.02.65 24.01 1.42 3.93.22 2.4.11 1.53.11v.66l-.11.98-1.53 5.89-.21 1.75-.11 2.4-.11 27.4-.22 48.79.11 6.66.33 6.55.1 1.42 3.93 10.15 3.82 9.71 1.1 3.93 1.63 12.45 1.97 10.26v1.75l-.22 1.52-.11.66-2.62 5.02-4.04 9.61-2.07 3.27-8.73 9.5-2.08 2.29-.98 1.85-.44 1.64-.21 1.97.54 4.36 1.2 4.91.33 1.21.54.87 3.17 4.26.66 1.41.54 1.42.22 1.53v16.59l11.9.66 12.77.33 3.05.54 5.46.22 16.37.22 2.95.33 4.8.11 29.25 1.41-.87 52.73-.44 31.22-1.2 76.3 14.84-1.86 60.91-2.4-.33.44-.44.43-.11.98-.65 18.02.22 8.95.32 6.11.11 1.31.66 2.18.65 1.09.99 1.31 1.09 1.09 1.31.88.98.54 1.09.44 1.97.44 4.25.76 2.73.98.76.33.88.98.76 1.2.44 1.53.11.88v1.31l-3.06 12.33-1.09 3.27-.55 2.41-3.71-.99-2.62-.76-2.72-.66-.99-.21-1.2-.22h-.22l-1.96-.22h-2.62l-.98.11-.88.11-.87.22-1.75.43-2.72.77-1.97.65-1.96.55-2.29.76-.66.22-2.29.66-2.29.54-1.75.22h-.65l-6.23-.11-6.11-.11-12.33-.54-13.1-.55-10.7-.44-17.24-.76-.87-.11-11.03-.44-1.2-.11h-1.96l-5.68-.32-6.76-.22-6.44-.11-6.99-.22-4.37-.22-3.38-.22h-2.51l-5.02-.21-3.06-.22h-2.18l-6-.33-4.04-.22v.98l-.11 8.08-.11 9.93-.33 14.2-.1 7.09-.11 6-.11 5.57v1.42l-.11 3.38-3.49-.11-1.97-4.91-3.06-5.02-3.49-.44v-15.93l-3.16-12.66-7.1-18.45-3.27-.22-4.15-.11-5.46-.22-5.24-.11-2.07-.11-5.13-.21-2.18-.11h-.66l-4.58-.22-9.39-.33-13.53-.44-10.92-.32-2.51-.11-19.97-.88-6.77-.21-5.24-.11-12-.44-6.77-.44h-5.35l-2.29-.11.11-8.95.11-1.85.11-6.66.11-3.49.11-10.37-.11-4.7-.11-3.71-.33-3.16-.44-2.95-.54-2.95-.76-2.95-.77-2.72-1.09-2.73-.76-1.75-.55-1.2-.98-1.97-.77-1.31-.65-1.31-.33-.54-.33-.44-.98-1.63-9.28-13.21-5.02-7.1-4.03-5.67-4.59-6.23-7.31-10.15-4.26-6.22-3.71-5.46-3.38-4.8-8.73-12.12-5.68-8.18-4.8-6.77-8.08-11.35-1.42-1.97-.43.33-.44.22-.55.11h-8.07l-19.43-.33-1.09-.11-.88-.22-.98-.33-.87-.54-.55-.55-.54-.54-.88-1.2-.87-1.09-.76-.88-.55-.65-.54-.44-.99-.65-.87-.44-1.2-.33-1.96-.44-2.3-.32-1.96-.22-2.29-.22-14.08-.55.22-29.58.43-16.81-.11-7.86v-.87l-.22-1.09-.54-.87-.77-.66-.98-.44-2.73-.54-4.25-.22-6.88.98-3.71.22h-2.84l-1.64-.44-.76-.54-8.73-6.88-1.31-1.42-.33-.76-.54-.55-8.19-5.67-10.26-7.97-4.91-4.15-.87-.76-15.94-12.99-2.18-2.08-4.04-38.64-28.71-.44-.32.66-.33.87v1.09l.11.88.33.76 9.82 8.63 1.09 1.2.66.76.21 1.2-.1 14.08v8.08l-.33 2.95-.44 5.13-.22 9.28.44 6-.66 33.62-.1 15.17v3.28l-.33 11.79-.77 19.86v1.31l-.65 17.47-.22.87-.33.87-.76 1.09-1.97 2.73-2.83 2.3-3.17 1.96-2.62 1.31-5.56 1.86-3.17.76-4.04 1.2-6.11 2.95-4.26 2.73-.87.87-.87 1.09-1.31 2.62-1.86 2.73-1.2 1.09-1.42.88-1.63.54-7.1.44-11.9-.11-33.5-.66-2.73-.21-2.95-.77-3.27-1.31-8.19-3.82-6.77-3.82-5.67-3.6-3.17-2.4 3.61-1.97 3.6-2.62 1.42-1.85 1.52-3.17 2.3-10.04.32-3.17-.87-4.69-1.42-4.8-1.96-4.92-1.64-4.14-1.64-2.95-1.2-3.17-.11-1.31.33-1.2 1.42-1.42.87-.87.44-.87v-.88l-.87-1.09-1.2-.76-1.31-.87-.99-1.86-.32-1.86.54-.87.44-.98.98-.66 1.53-.43 1.09-.88.65-.87.44-1.09.11-2.07-.65-2.19-.33-1.42.54-.76 1.1-.66.87.33.65.55 1.31.32.88.77.98.11.98-.22 1.42-.76.65-.99.88-.76.76-1.53-.22-1.53v-.98l.33-.65 1.2-.88 2.18-.43 1.2.1.44.99.44.76.54.55.77-.11.65-.77.66-1.09.87-1.31.87-.98.22-1.42-.65-1.09-1.86-.66-1.2-.43-.87-1.42v-.87l.33-1.42v-1.1l-.44-.98-.98-.76-3.61-.44-65.15-41.04-37 32.85-.88.88-1.2.22-4.8-.11-8.73-.22-4.04-.33-11.02-.65-4.59.11-.65.1-.33.33-.33.55-.54 2.62-.11 6.11-.22 4.59.44 2.51.54 1.63.22 2.4-.66 2.84-.32 1.86v2.29l-.22 9.06-.22 1.53.11 1.53-.55 20.85-.11 15.06.33 3.38.44 1.75 1.42 3.82.33 1.64.1 4.15-.21 2.51-1.42 6.87-1.31 6.01-.33 3.6-.33 4.58v3.82l-.43 18.78-.44 20.74-.55 16.04-.21 6.34-.77 17.35-.22 4.59 1.09.1.99.11 1.09.33.98.22 1.42.55 1.09.43.76.55 1.1.76.98.88.76.87.55.76.54.88.55.87.33.87.54 1.09.22.88.44 1.31.54 2.29 1.2 4.8 1.1 4.37.65 3.27h-2.18l-1.09-.11-1.2.11-.77.11-.44.11-1.85.33-3.38.76-4.48 1.09-3.93.99-3.71.98-.44.11-2.72.76-6.12 1.64-2.4.65-3.82 1.1-1.74.54-.88.33-.76.44-.66.43-.87.66-.76.65-.88.88-.54.65-.77 1.09-.43.88-.55.98-.54 1.42-.66 1.63-2.4 6.12-2.62 6.66-.65 1.52-.77 1.86-.87 1.86-.87 1.31-.99 1.63-1.09 1.31-.98 1.09-1.2 1.1-1.86 1.52-2.51 1.64-3.6 2.18-2.29 1.42-9.06 5.35-5.68 3.39-5.56 3.27-7.31 4.48-5.03 3.05-5.02 3.06-3.38 2.07-3.06 1.64-2.4 1.2-1.63.66-.22.1-2.08.77-5.45 2.07-11.68 3.93-11.46 4.37-14.41 5.24-1.75.54-2.94.88-3.6 1.42-4.37 1.74-8.84 3.28-10.15 3.71-3.71 1.31-1.53.44-1.2.32-2.95.77-1.2.11-2.62.11-2.84.1-.32.22-.66-.11h-4.69l-14.08-.43-3.06-.11-.32 4.04-.55 9.82-.22 2.18-.22 1.86-.11 1.75-.1 2.51-.11 4.25-.22 2.73-.22 2.19-.33 1.85-.43 1.42-.44 1.2-.55 1.09-1.52 2.62-2.08 2.4-2.18 1.53-3.06 1.53-2.83.55-2.08.21h-1.2l-2.4.22h-2.29l-4.15-.22-4.26-.32-3.82-.33-2.07-.33-.87-.11-.22 8.74v3.38l-.33 14.74v1.52l-.44 12.77.22 9.39.33 3.71.65 6.99.11 4.69-.21 4.92-.22 10.15v8.29l-.11 5.57-.11 2.29v1.2l-.11 4.59-.11 1.09-.76 6.77-.99 3.82-.87 2.18-1.85 4.15-.77 1.31-1.2 1.96-1.42 2.19-2.84 3.49-.65.54-1.96 1.97-1.42.87-2.51 1.75-1.53 1.2-.88.55-11.24 7.75-13.42 9.82-4.7 2.95-2.18 1.52-11.13 8.19-5.13 3.6-8.95 6.33-2.29 1.53-9.61 7.43-5.67 4.25-13.65 9.94-9.6 6.76-2.51 2.3-2.18 2.29-2.08 2.84-.54.76-1.09 2.07-.88 1.53-.54 1.2-.88 1.75-1.2 2.62-.32.55-.22.76z" stroke-linejoin="round"/></defs><use xlink:href="#h" fill="#004249" stroke="#00465f" stroke-width="5.76"/></svg>