<svg width="384" height="528" viewBox="0 0 2880 3959" xmlns="http://www.w3.org/2000/svg" xmlns:xlink="http://www.w3.org/1999/xlink"><path fill="#fff" d="M0 0h2880v3959H0z"/><defs><path id="a" d="M830.55 3723.19l3.21-9.28-5.69-4.95-3.71-3.09-3.09-5.81-1.24-5.57-.12-8.04.49-11.51.25-8.91-2.48-12.62-5.07-6.55-13.24-12.37-9.28-8.29-7.79-4.7-7.42-3.1-8.66-.25-11.39.5-8.91 1.98-24.24 9.15-3.35.87-6.55.12-3.84-5.69-3.83-10.02-25.24-46.39-5.08-8.54-9.27-9.28 19.42-59.38 5.69-17.08 1.86-5.56 19.17-64.83 1.36-4.46-.98-1.6-1.74-1.37-3.83-2.72-3.84-3.09-1.24-1.48-1.97-2.48-.62-1.61-.13-.62-.24-.86.12-2.72.37-3.22 2.6-12.5 2.97-13.11 1.61-6.06 2.47-8.91 1.61-8.54.87-2.84 4.2-16.58 1.73-6.56.99-3.46.25-1.86-.37-1.48 3.96-23.88 1.73-5.2 1.73-4.82 5.69-25.24.13-.74.25-.74.49-1.86.87-2.97.86-4.33.74-3.34.99-4.95.38-1.85.49-3.35.5-3.95.61-4.09v-.62l.99-4.45 1.49-7.18 1.11-5.32 1.49-6.06 1.73-8.41 2.23-8.91.74-2.97 1.48-6.06 1.49-6.19 2.1-10.76.99-5.81 4.58-19.67.99-5.7 9.03-36.62.87-3.96 2.1-12.12 1.73-6.68 3.84-16.21 2.22-8.78.62-2.97 1.98-8.66 3.47-15.1 4.33-18.06 2.59-12-5.44-1.11-1.36-.37-15.59-3.34-11.75-2.35-7.67-1.61-9.41-2.23-17.56-3.96 2.59-11.5.62-2.73.74-3.46 1.37-5.57 1.23-5.07 3.1-13.73-2.85-.62-2.85-.74-28.45-6.19 3.09-13.49.99-3.95 2.23-10.03-34.89-7.67 3.34-14.22 3.09-13.86-42.56 11.88-41.32 16.82-35.88-53.44 10.02-41.82 45.16-6.06-19.92-4.33-34.64-6.56 1.85-8.41 2.73-11.63 4.45-18.93 2.97-12.99 12.74-3.34-6.68-21.65 2.6-11.39 2.6-22.39 1.11-1.85 1.98-2.85 1.73-4.21-5.81-4.33-11.01-10.02-5.2-4.08-1.86-1.86-2.35-2.97-1.73-3.09-.62-2.1-.62-3.47-.24-4.33-1.12-6.68-2.72-9.77-.62-5.2-1.98-3.96-3.09-3.34-2.23-2.35-2.35-2.47-11.13-22.64-4.46-9.16-2.47-13.73-4.58-7.79-.62-1.61-.74-1.12-1.11-1.23-1.36-.87-2.97-.87-3.47-1.11-2.97-1.48-3.58-1.49-4.34-2.47-3.58-3.22-3.1-2.72-4.2-3.84-1.61-7.05-.62-1.85-.49-1.24-1.12-2.23-1.11-1.61-.87-1.23-1.48-1.12-1.49-1.11-1.85-1.11-2.72-1.74-1.61-1.48-1.98-2.1-1.73-2.23-1.74-2.23-1.61-2.6-.98-1.6-.99-2.35-1.86-5.45-2.72-6.93-1.12-4.45 72.75-4.95 8.91-6.8 6.68-5.32 5.2-3.72 3.96-1.6 4.7-1.36 4.33-.75h9.9l-2.97 16.33-.62 4.46v5.57l.37 5.19.99 4.08.62 1.74.99 2.22 5.07 12 8.04 18.81 1.36 3.96.5 1.36-1.36.74-22.27 68.54-.25 1.11-.62 3.84-.12 1.73.24 2.35.38 3.59v.87l1.6 5.81 11.14-.86 5.44-.87 5.2-1.11 11.13-2.48 6.31-1.36 1.74 5.82 1.85 5.32.99 1.97 1.86 3.1 1.11 1.48 2.6 2.48 3.22 2.35 1.23.62 3.47 1.23 5.81 1.24 5.32.99 5.82.87 7.79 1.36 8.17 1.36 2.22.49 1.61.37 2.23.75 2.6.99 2.47.74 3.59 1.24 3.71 1.11 2.48.49 6.68 1.61 8.91 2.35 7.54 1.74 4.09 1.23 2.84.62 1.36.37h1.98l2.6-.25 3.22-.74 1.73-.62.86-.37.87-.49.62-.5.99-.86.74-.62 1.36-1.61 5.2-5.2 5.81-6.31 1.12-.99 1.36-1.36 1.61-1.36.86-.62 1.86-1.73.49-.49.25-.5.25-.62.25-.49.12-.74v-.75l-.62-1.36-5.69-11.13-1.24-2.6-1.61-2.47-1.11-1.61-.99-1.36-.87-1.12-.86-.99-1.36-1.11-.87-.74-.62-.5-.99-.62-1.85-1.23-1.73-.99-.87-.37-.99-.5-1.36-.62-.99-.49-1.36-.37-1.49-.37-1.61-.5-17.07-3.34-5.81-1.11-4.95-.99-.62-.13-10.77-2.47 3.35-19.43 21.77-126.68 25.98-21.16 37.24-6.56 56.05-9.89 2.35.12 5.32-.25 11.63-1.61 7.67-.74 14.72.62 8.42.25 3.58-.37 3.22-.13 2.6-.49 7.79-1.36 4.46-1.49 3.34-.99 2.22-.62 2.23-.74 1.36-.25 1.86-.49 2.47-.49 1.49-.13 2.22-.25 1.86-.24 3.46-.25 4.71-.12 3.46.24 10.15.37 7.54.75 3.71.37 8.54 1.36 10.89 2.23 19.79 4.2 5.82 1.24 3.71.37 3.84.12 8.04-.12 18.8 3.71-1.23-5.19-5.2-6.07 6.43-22.88-2.97-3.84-1.11-.99-.37-.25-.74-.49-8.54-1.86-6.8-1.73-1.49-.62-.74-.62-.5-.37-.24-.25-.37-.61-.25-.5-.37-.62.24-5.32.13-.62.12-.74.13-.49.12-.75.12-.37.25-.49.5-.87 1.11-1.36 4.58-3.83 2.22-1.86.99-1.24.87-1.36.49-.86.25-.25.13-.62 1.97-8.29.13-.49 1.73-9.65v-1.98l-.12-.5-.5-1.24-3.96-7.54-6.68-11.51-1.61-2.35-.86-1.73-2.23-3.22-1.36-2.35-1.98-4.58-.74-1.48-.25-.99-1.11-6.43-.37-1.61-.5-3.22-.49-1.61-.62-1.48-1.49-3.34-.86-1.36-1.24-1.61-1.36-1.24-1.12-.62-1.11-.24-.37-.62-1.36-.62-6.81-3.47h-.61l-.5-3.58-.49-3.59-1.12-8.91-.74-5.69.12-9.65.75-3.59 1.23-4.2 2.35-7.92 14.97 3.09 11.02 2.6 41.94 8.66 1.73.37.37-.12.12-.25.13-.62.49-1.86v-6.31l.75-5.07.61-5.19 2.97-24.38.5-3.96 1.48-11.87 2.72-20.91 5.57-41.08-10.14-2.22-12.87-2.97-9.77-2.23-23.51-5.32-2.85-.62-7.05-1.48-7.05-1.49-16.83-4.08-1.98-.37-11.26-2.72-30.31-6.68-8.66-1.98-34.15-7.67-14.84-3.34-1.86-.37-23.26-5.32-15.83-3.59-3.84-.87-3.83-.86-5.7-1.37-1.6-.37-.99-.24-2.97-.62-1.74-.37-.12-1.61v-.5l-.12-.49 1.11-1.36.25-9.41-.62-4.7-.5-2.1-.61-2.23-1.98-5.94-2.35-5.32-.75-1.48-1.36-.87-1.98-2.97-7.17-10.76-7.18-10.76-9.03-13.74-7.67-11.01-9.28-13.36-8.78-12.62 17.56-14.84 6.31-5.45 3.34 2.48 4.95 3.96 4.58 2.84 4.45 2.48 6.19 2.1 2.97.37 2.72-.37 2.97-.74 5.07-1.61 4.71-2.48 1.11-.86.62-.74.49-.87.37-1.36.25-1.49.25-7.67.12-1.48.5-1.36.74-1.24 1.86-2.1.86-.74 1.11-.5 1.12-.25 1.24-.49 2.1.12 2.23.5 2.47.74 2.23.62h1.11l1.36-.37 5.82-2.11 1.6-.86 1.12-.74 1.61-1.24 1.11-1.24 1.49-1.85 1.85-2.73 7.55-10.88 1.98-2.73 4.08-5.32 1.24-1.23 2.1-1.61 3.34-1.36 3.47-1.49 1.98-.62 3.34-.12 1.98.25 3.21.99 6.19 1.85 3.71 1.36 5.44 1.98 22.15 7.67 2.72.87 1.24.25 2.1.25 2.72.12 2.85-.25 6.31-.49 2.72-.5 2.35-.74 3.84-1.86 5.69-4.08 3.83-2.97 3.47-2.97 2.97-3.21 1.73-2.35 1.11-1.86 1.24-2.23.99-2.47 2.97-9.16 1.61.5.99.12 5.19.74 2.48.13 2.23-.25 2.22-.62 4.7-2.6-.61-3.21-.62-4.33-.25-4.58 36.13-149.21 2.35 1.24.49.62 2.48 2.6 3.95 6.06 3.1 4.83 4.2 4.7 1.86 1.98 4.83 4.2 8.16 6.56 16.95 16.21 1.73 1.61 6.56 5.07.25.25 2.6 2.72 3.34 4.58-5.94.12-1.73.37-1.24.62-.5.49-.49.75-.25.61-.25.75-.12.86v5.08l-.25 1.36-.24.86-.38.74-.61.87-.75.74-.74.62-1.11.62-4.09 1.61-1.23.86-.87.99-.62 1.24-.49 1.36-.13.74-.37 3.96-.74 3.84-.37 1.48-.62 1.74 6.19 1.23 26.72 5.82 16.46 3.09.61.25 1.24.49 9.53 2.11 6.43.99 15.47 3.83 21.52 4.58 2.23.49 9.16 1.98 10.51 2.35 1.49.37 20.04 4.09 7.3 1.61 1.24.37 12.87 2.97 4.7.99 1.36.37 10.02 2.1 17.07 3.71 10.52 2.48 21.65 4.57 5.57.87 3.59.87 29.07 6.43 9.65 1.98-2.97 13.73-.74 3.22-.5 2.23-1.6 6.68-1.61 7.3-1.36 6.18-1.98 9.16-.87 3.96-.62 2.72-.99 4.2-.74 2.97-1.48 6.56-3.1 13.98-1.61 7.42-3.58 14.97-2.97 12.62-1.49 6.06-2.6 12.13-4.57 20.54-1.74 7.79-1.98 10.15-.37 1.36-.37 2.22-1.48 7.18 9.77 2.23-1.61 8.41-1.11 4.95-8.78-8.17-.25 1.36-4.46 20.54-.61 3.34-.38 1.61-1.85 7.79-.99 4.58-1.11-.25-.87-.37-1.11-.24-.99-.25-23.51-5.2-6.68-.99-2.72-.25h-1.49l-4.45-.74-3.59 15.59-3.96 17.2 8.66 1.98 32.29 13.85-3.46 14.6-.99 4.09-2.48 10.26-2.1 9.04 8.91 1.97 4.2.99 3.47.87 5.44 1.24 29.32 6.68 9.53 2.23 7.05 1.48 53.45 12.12 3.96.87 4.08.99 9.04 1.98 13.23 2.97 26.11 5.94 13.98 3.09 4.58 1.11 1.23.38 8.42 1.85 1.61.37 10.51 2.48 1.86.49 3.71.87 12.62 3.09 4.82 1.11 1.61.38 15.1 3.46 1.48.37 2.72.62 3.1.74 12 2.72 7.67 1.74 2.84.61 1.98.37 8.17 1.86 25.61 5.82 11.01 2.47 22.15 4.95 6.55 1.48 6.93 1.61 12.37 2.85 1.37.24 11.5 2.6 9.9 2.23 11.38 2.72 1.73.37 7.8 1.73 8.66 1.98 2.72-.86 17.32 3.46 3.96.87 6.56 1.36 11.38 2.6 3.84.86 5.19 1.24 7.55 1.73 10.14 2.23 25.49 5.81 3.96.87 5.57 1.36 2.84.74 8.05 1.86v-4.45l-.13-3.22-.37-7.05-.49-8.05-1.12-10.26-.74-6.19-1.24-7.92-1.36-7.67-1.24-6.06-1.23-5.44-1.24-5.2-2.23-8.91-1.36-5.57-1.11-4.33-1.24-5.07-10.89-44.54-31.79-130.03-18.81-76.58-21.15-85.73-3.1-12.13-3.46-12-7.3-23.88-7.42-23.87-3.35-10.89 1.61-.37 1.86-.5 1.85-.86.62-.87.62-1.48.74-1.12 1.37-1.48.49-1.12.12-.86-.24-1.24.12-.62.25-.49.25-.87.49-.49.49-.37h.75l.49.24.13.5.24 2.6.25 1.36 1.73 6.31.62 1.85.87 1.49.99 1.36 1.85 1.61 1.36 1.48.99 1.48.99 1.61.25 1.12-.49 1.48.12.74.74.5 1.61.12.74.37.75.37.37.5 1.36 1.98.62.37.86.37h.74l.75-.25 1.85-.61.87-.13.86.13 3.22 1.23 3.71.74 1.98.38 1.36.49 1.12.5 1.61.99.99.74 1.36 1.36 1.85 1.48 1.36.37.99.13 2.23-.25 3.09-.62h1.98l2.35.25 3.22.99 1.98.49 2.1 1.12 1.61 1.11.99.87.99.49 1.24.37h.99l1.73-.49h.62l.74.25.25.61.62 2.35.37.5.49.12.62-.24 1.73-1.86.62-.25.62.13.37.24 7.43 3.1h1.23l.99.37 1.12.86.99.38 1.11-.13.99.25.62.49.86 2.35.5.99.49.38.13.37 12.62 2.97 2.35-9.53 14.6 3.34-.87 4.08-.37 1.98-.25 3.34.25 5.2.25 1.61 1.11 4.33 4.58-1.86 3.09-.49h1.73l5.69.86 2.35.62 6.44 1.73 14.1 3.34 16.71 3.96 16.08 3.96 15.59 3.47 12.12 2.72 2.48.25 3.46.12 2.72-.87.75-.49-.13-1.12v-1.85l.74-5.57.13-3.96-.5-1.23-1.11-.62h-.87l-5.07-.13-3.59-.49-6.43-1.98 5.2-18.81.37-1.11 5.56-24.13 7.18-9.65-.12.99.12 1.24.37 1.86.37.99.62 1.36.62.86.74.75 7.05 8.16 2.73 2.72 2.1 2.6 1.48 3.22.38 1.73 1.6 4.83 1.36 4.45.38 1.11.61.99.75 1.24.86.87 1.98 1.23 7.92 6.07 11.26 8.28 1.11.87.99.62 1.86.99 1.36.74.74.62.74 1.11.87 2.11.25 2.47v1.61l-.5 1.24-.74 1.73-.62.74-1.98 1.73-2.6 1.36-.74.25-1.85.62-1.24.49-3.34.5-1.24.12-10.52.87-4.7.12-24 5.45-9.28 2.35-1.48.86-1.73 1.24-1.12 1.48-.99 2.23-.62 2.97.25 2.35.37 1.73.99 1.98 1.61 1.98 1.61 1.49 2.1.99.99.12 3.22.62 2.47-.74 1.61-.87.99-.49 1.49-1.36.99-1.61 1.97-1.74.87-.61 2.1-.87 1.49-.12 1.36.37 2.47.12h1.61l2.72.25 13.74 5.57 2.47.86 1.49.25 2.47-.37 2.97-1.86 1.24-.37 2.35-.49 1.11.24 1.49.5 2.72 1.98 1.61 1.85 2.47 1.37 2.23.37 2.6-.37h1.98l1.36.24 1.48.74 4.08 3.35 2.23.74 1.98.49 1.36-.37 1.49-.62 2.59-1.36 3.84-2.35 1.48-2.35 5.7-12.25 1.11-1.61.49-.49 2.23-2.1 6.68-7.06 6.19-6.43 1.48-2.23.75-2.84.24-1.12.13-2.59.74-6.81-.12-2.35-.75-2.23-1.36-1.98-1.61-1.36-1.85-.86-2.11-1.86-1.6-2.97-.5-2.35-.25-1.73.25-1.36.37-2.35.87-1.73 2.35-2.48 2.97-2.6 2.6-2.1 2.35-2.35 2.35-3.09 2.22-3.71 1.37-2.97 1.48-3.47 4.58-10.88 1.73-4.34 1.11-1.6 1.49-1.61 4.33-3.71 2.84-2.35 2.48-.5 2.47-.25 5.69.99 2.36.37 1.85.87 1.49 1.36 1.11 1.24.74 1.48 1.12 3.59 1.73 4.08.99 1.49.86.99 1.49 1.11 2.1.5 1.49.37 1.85-.25 1.36-.25 1.36-.74 1.24-.99 1.24-1.11 2.1-3.59.62-.99 2.85-5.07 1.6-3.1.62-.99 1.73-3.09 2.36-2.47 2.84-1.98 9.65-3.47 1.98-1.23 1.61-1.49 3.96-3.46 1.73-1.36.74-.87 2.35-1.36 2.11-.49 2.72.24 1.48.37.87.62 2.23.74 2.1.13 2.23-.5 1.36-.74.99-.62 1.23-1.23 1.24-1.86.87-1.61.86-1.48 2.73-4.46.37-.37 1.23-1.98 3.22-4.82 1.61-2.72.37-.99.12-2.48-.49-2.1-1.24-2.6-.49-.99v-1.73l.12-1.24.37-1.73.5-.99 1.48-1.73 1.36-.99 1.98-.99 1.73-1.49.38-.49.98-1.36.99-2.11.62-2.84v-2.35l-.37-1.73-.49-1.12-.87-1.36-.37-1.11v-1.73l.12-.62 10.4 2.1 4.7.99 6.93 1.61.74.25 23.13 4.94 25 5.45-.75 3.09-7.42 32.79-10.39 46.39-5.07 20.04-1.98 8.66-2.73 11.76-2.84 13.73-.74 5.57-.25 7.42 1.24 9.28 1.23 5.32 2.23 6.06 1.98 4.33 2.35 4.21.74 1.36 3.34 4.21.75 1.11 3.95 3.96 2.23 1.98 3.71 2.72 6.07 2.84 4.94 1.24 2.85 2.72 1.36.37 18.56 4.71 1.86.37 44.78 10.88 23.39 5.45 2.22.49 18.56 4.21 26.23 6.19 2.1.49 16.83 4.08 18.19 3.96 29.69 6.44 15.96 3.58 8.78 1.86-3.09 15.71-2.72 12-4.21 19.92-4.7 19.3-4.45 20.04-2.23 9.28-4.08 20.42-2.48 12.74 2.6 1.11 3.59 1.73 15.71 9.65 12.62 9.28 3.59 2.35 3.34 3.1 2.6 1.98 2.23 1.48 2.22.99 2.6 1.36 4.08 1.36 8.91 2.6 6.81 1.61 6.06.87 18.19 3.83 4.82.74 14.11 3.34 8.04 1.49 3.71.86 41.69 10.64 9.78 1.98 2.72.62 7.05 1.86 8.79 2.1 10.64 2.6 8.66 2.23 2.1.49 7.42 1.73 13.49 3.1 5.44 1.11 19.06 4.45-1.12 5.69-9.28 41.7-4.33 20.29-1.85 8.78-1.12 4.95-1.98 9.03-6.68 30.07-2.22 10.02.61 2.47-1.36 7.55-1.36 7.92-.62 2.96-.37 1.98-.49 1.61-2.97 11.38-1.98 7.06-2.35 2.47-.99 3.34-2.85 9.65-.86 3.09-1.12 4.46-1.73 7.05-.37 2.72-.25 3.1.37 5.44v1.24l.13 1.6.12 1.74.12 2.59.75 6.69 2.6 21.89 2.72 21.78 2.97 21.77.24 2.85.25 2.97 1.24 13.36.37 3.34.25 4.95.86 16.82.75 21.53.12 7.8.12 4.82.25 10.27.25 20.04-.13 5.57-.49 4.08-.74 5.07-.75 6.56-3.09 20.54-2.23 13.98-1.11 7.05-.74 4.45-.74 4.58-1.49 9.65-3.46 19.3-.5 1.86-1.48 6.55-.99 2.97-1.12 2.48-1.48 2.1-1.48 1.24-3.1 1.85-6.68 3.47-1.85.74-4.21.99-3.84.5-3.09.24-5.44.13-12.87.62-2.6-.13-4.45-.99-4.83-1.73-2.35-.49-1.73-.13-1.24.25-1.24.62-.61.37-.37.49-.62.87-.62 1.73-.62 2.1-2.6 12.5-4.58 19.67-2.47 11.75-3.09 14.11-2.6 12-1.98 9.53-4.21-.87-2.97-.74-6.06-1.36-12.5-2.6-6.55-1.36-6.31-1.36-11.39-2.35-1.23-.38-10.27-2.47-1.61-.37-5.81-1.36-.62 2.72-5.32 20.04-4.58 20.17-4.46 20.29-4.82 20.04-1.61 7.67 10.64 1.36 25.98 5.08 15.72 2.59 2.59 1.12 3.84 4.08 3.09.62 8.04 1.24-2.22 9.4-4.33 20.29-1.74 8.16-4.7 21.9-.49 2.23-1.36 6.8-.13.87-5.93 29.94-1.24 6.43-.99 2.97-.99 2.23-1.49 2.35-.37.37-1.23.99-.87.62-7.18 4.95-4.33 3.21-2.22 1.74-.62.74-.37.74-.87 2.97-.37 1.24-.5 1.98-1.23 5.32-1.61 9.4-.37 1.98v2.72l.24 3.59.99 3.83 2.23 9.65.25 3.47.12 1.85.62 6.93.87 7.05.49 4.71.13 1.6v1.12l-.13.86-1.36 4.83-2.97 12.86-1.11 6.31-6.81 32.05-7.17 32.04-1.24 6.19-5.44 25.85-6.93 32.05-3.84 17.19-.24 1.24-.25 1.36-.74 3.34-1.12 5.45-8.66 38.23-2.84 13.11-3.47 15.84-1.73 7.79-4.83 21.28-1.73 7.92-5.32 23.5-.99 4.33-.86 3.84-1.61 7.3-19.67-4.46-31.92-7.05-16.83-3.71-7.92-1.73-17.57-4.08-17.32-3.47-1.48 8.17-1.86 10.76-.49 4.33-.25 3.59.37 2.72 2.23 7.55.74 3.83.12 1.61-.74 3.34-1.48 5.07-.99 3.96-2.11 11.63-1.11 5.69-2.23 9.78-.99 4.33-4.08 20.91-2.1 9.77-19.06-3.59-4.45-1.23-4.58-1.61-2.72-.87-4.21-.87-19.17-3.09-17.94-3.34-14.23-2.84-5.69-1.86-10.64-2.35-.99-.12-1.98-.38-2.1 9.04-2.23 9.4-5.07 17.32-1.36 1.86-23.39-5.2-45.4-10.15-4.83-.99-1.36 5.57-2.47 10.52-4.09 18.06-4.2 20.29-5.94 25.61-1.24 5.94-4.08 18.31-1.49 6.31-.49 2.47-.13 1.61-.61 2.23-1.24 5.94-1.12 5.94-1.36 6.92-4.08 17.94-2.6 11.51-3.96 17.2-2.72 11.63-.49 2.22-.37 1.86-1.61 7.05-.37 1.24-.62 3.09-2.6 11.88-1.98 8.9-6.31 28.83-3.71 15.47-.74 2.97-1.61 7.05-.62 2.35-.5 1.61-.24.74-.5 3.96-.12 2.84.25.99-1.74 1.61-1.85 1.86-.74.99-.38 1.48-.49 2.35-.74 4.21-.5 2.97-.74 1.98-.87 1.85-1.23.99-.99.62-2.97.5-2.11.49-1.36.99-.62.74-.24.75-.13 1.11v.86l1.12.75 1.48.99 2.23 1.73 1.85 1.98.62 1.24.25 1.11v1.24l-.25 2.47-.86 4.08-.37.75-.13.49-.25.37-.49 1.12-2.72 5.07-.87 1.23-.62 1.37-.37 1.11-.37 1.24-.49 3.21.24 1.49.5 2.35v1.73l-1.12 6.19-.49 1.11-.5.87-.49.37-.99.37-.99-.13-2.23-.12-.99.37-.86.74-.99 1.24-.62 1.73-.37 1.86v1.61l.25 1.61.86 1.98 1.73 3.09 2.73 3.83 4.45 5.08.87 1.36v1.48l-.13 1.86-.12 1.23.37.87 1.11.87.74.49.99.25h.75l1.36.25.86.74.5 1.36.74 2.6 1.36 1.85 1.49 1.74 2.35 2.47 1.48 2.97 1.36 2.84 2.11 4.71.49 2.59.62.99 1.11.38 1.12.12 3.21.12 4.46 1.12 5.32 1.48 2.35.87 1.24.62 2.1 1.36 2.84 2.35 2.97 2.72 1.24 2.1.62 1.36.49 1.73.13 1.61-.13 1.98-.61 3.47-1.61 6.31-2.72 12.99v2.22l.12.75-1.49.99-.61.37-9.28 4.08-.62.25-57.16 6.93-26.97 3.34-8.54-4.71-1.36-.99-.5-.74-.86-1.36-1.73-3.09-1.98-3.47-1.73-3.58-.87-1.98-.87-2.48-.49-1.23-.87-.99-1.36-1.12-1.48-1.36-.99-.86-.62-.75-.25-.86.12-1.36.25-1.49.99-3.34.13-1.11-.13-1.24-.12-.99v-.87l.12-.86.13-.37 1.73-1.49 1.23-.86 1.49-1.74 1.48-1.97 1.36-2.23 1.12-1.86 2.23-4.08.99-2.6.86-2.84 1.11-5.2.38-1.86.86-3.21 1.24-3.71 1.11-2.23.99-2.48.5-1.48.12-.49.87-3.84.24-.99.75-3.46.49-2.48.74-3.21.13-1.37.12-.49-.25-.74-.86-.62-1.24-.5-1.24-.12-1.85.49-2.6 1.24-2.1 1.49-2.11 1.11-1.85.87-.99.12-.99-.12-1.86-.5-3.71-1.85-4.08-1.86-1.36-.74-1.74-1.49-1.6-1.61-.75-1.48-.86-2.72-.74-2.6-1.12-2.47-.99-1.37-1.11-1.48-1.98-1.73-1.49-.99-1.85-.37-2.72-.37-1.12-.25-1.11-.74-.5-.75-.24-.24-.5-.99-.49-1.98-.25-1.74-.87-1.73-.99-.62-2.22-.74-3.71-1.11-3.35-1.11-5.56-1.49-11.01-2.23-6.07-1.23-.99-.25-1.23-.12-7.55-1.12-2.72-.25-1.36.25-1.86.5-14.1-10.64-2.85-10.27-5.69-22.64 2.47-25.86-1.36-8.04-2.47-1.24-.62-2.1-5.44-4.58-3.71-6.68-3.72-3.34-4.08-1.98 33.41-146.48 21.65-93.29 6.43-27.46 4.33-18.81.62-2.84.25-1.24.86-3.46-2.22-.5-2.85-.99-5.94-1.36-4.95-1.11-45.4-10.52-6.07-1.48-1.36-.25-11.5-2.85-56.91-13.73-114.08-26.72 12.99-58.52 1.86-8.17 2.1-9.65-13.98-3.21 19.92-82.65-15.46-3.71-.75.49-3.46-1.11-3.71-1.24-1.49-.37-1.23-.24-22.52-5.94-4.08-.87-3.47-.74-4.7-1.24-7.42-1.73-2.97-.87-2.97-.62-6.81 30.44-1.85 8.54-5.2 22.27-4.08 18.68-.87 3.71-.62 3.09-1.36 5.94-2.35 10.52-.37 1.6-1.98 8.79-7.79 34.64-2.48 10.64-16.82 74.97-7.43 32.91-2.59 11.63-6.44 27.96-10.02 42.56-12.12 50.73-2.73 11.13-8.9 39.71-5.45 25.61-13.85 65.33-10.03 46.64-7.79 30.43-3.34-1.85-3.09 4.08-12.01-2.84-27.09-7.3-50.73-13.86-49.73-13.49-91.93-16.45-28.95-5.81-13.98-2.85-37.12-16.7-63.71-28.58-116.3-3.84-54.32-11.01-12.86-16.08-6.81 5.44-4.2 3.22-1.86 1.86-1.36 2.1-1.36 2.84-.87 3.1-.62 1.73-1.48 2.72-1.86 2.35-2.35 2.72-7.05 7.3-4.7 5.08-3.34 2.84-5.32 4.08-3.96 2.97-4.7 3.34-13.61 8.04-2.97 1.74-1.11.74-.99 1.24-.75 1.73-.37 1.24v1.73l.13.99.24 1.23-.24 1.37-.87.99-1.61.86-3.22 1.36-2.35 1.12-1.36.61-3.09 1.74-4.08 3.21-3.71 3.96z" stroke-linejoin="round"/></defs><use xlink:href="#a" fill="#9dc8ca" stroke="#6bb4d2" stroke-width="5.76"/><defs><path id="b" d="M1936 1827.82l-.99-.12-2.1-.99-1.61-1.49-1.61-1.98-.99-1.98-.37-1.73-.25-2.35.62-2.97.99-2.23 1.12-1.48 1.73-1.24 1.48-.86 9.28-2.35 24-5.45 4.7-.12 10.52-.87 1.24-.12 3.34-.5 1.24-.49 1.85-.62.74-.25 2.6-1.36 1.98-1.73.62-.74.74-1.73.5-1.24v-1.61l-.25-2.47-.87-2.11-.74-1.11-.74-.62-1.36-.74-1.86-.99-.99-.62-1.11-.87-11.26-8.28-7.92-6.07-1.98-1.23-.86-.87-.75-1.24-.61-.99-.38-1.11-1.36-4.45-1.6-4.83-.38-1.73-1.48-3.22-2.1-2.6-2.73-2.72-7.05-8.16-.74-.75-.62-.86-.62-1.36-.37-.99-.37-1.86-.12-1.24.12-.99-7.18 9.65-5.56 24.13-.37 1.11-5.2 18.81 6.43 1.98 3.59.49 5.07.13h.87l1.11.62.5 1.23-.13 3.96-.74 5.57v1.85l.13 1.12-.75.49-2.72.87-3.46-.12-2.48-.25-12.12-2.72-15.59-3.47-16.08-3.96-16.71-3.96-14.1-3.34-6.44-1.73-2.35-.62-5.69-.86h-1.73l-3.09.49-4.58 1.86-1.11-4.33-.25-1.61-.25-5.2.25-3.34.37-1.98.87-4.08-14.6-3.34-2.35 9.53-12.62-2.97-.13-.37-.49-.38-.5-.99-.86-2.35-.62-.49-.99-.25-1.11.13-.99-.38-1.12-.86-.99-.37h-1.23l-7.43-3.1-.37-.24-.62-.13-.62.25-1.73 1.86-.62.24-.49-.12-.37-.5-.62-2.35-.25-.61-.74-.25h-.62l-1.73.49h-.99l-1.24-.37-.99-.49-.99-.87-1.61-1.11-2.1-1.12-1.98-.49-3.22-.99-2.35-.25h-1.98l-3.09.62-2.23.25-.99-.13-1.36-.37-1.85-1.48-1.36-1.36-.99-.74-1.61-.99-1.12-.5-1.36-.49-1.98-.38-3.71-.74-3.22-1.23-.86-.13-.87.13-1.85.61-.75.25h-.74l-.86-.37-.62-.37-1.36-1.98-.37-.5-.75-.37-.74-.37-1.61-.12-.74-.5-.12-.74.49-1.48-.25-1.12-.99-1.61-.99-1.48-1.36-1.48-1.85-1.61-.99-1.36-.87-1.49-.62-1.85-1.73-6.31-.25-1.36-.24-2.6-.13-.5-.49-.24h-.75l-.49.37-.49.49-.25.87-.25.49-.12.62.24 1.24-.12.86-.49 1.12-1.37 1.48-.74 1.12-.62 1.48-.62.87-1.85.86-1.86.5-1.61.37-1.6-5.57-3.22-11.38-2.97-11.51 4.7-1.85.74.37 7.43 4.7.62.12 1.85 1.36 8.04 1.98 1.86 1.86 30.44 31.05 32.66.5-4.83-46.27.87.49 3.22 1.24 2.72.62 1.48-6.31.87-2.97.37-1.11.99-2.36 1.98-4.45 1.36-3.09 1.11-3.47.62-3.34.87-4.7.62-4.33.74-7.3.49-6.55.37-3.59.62-4.09.75-6.68 1.11-5.44.12-.49 1.86-7.55 2.72-11.38.5-1.74.37-.86.37-.25 24.74-16.45 3.71-19.8.87-4.82 3.59-18.31 4.2-19.8-8.04-1.98-21.53-5.81-32.41-7.55-30.44-7.42-8.9-1.98-29.08-6.19.13-4.95.98-8.16 1.98-12.25 6.93-34.52 2.6-16.7 1.73-8.29 4.7-19.92 4.46-19.92 4.21-19.92 4.57-19.42 4.46-19.67.49-2.23-.74-.12-1.24-.25-2.6-.49-3.09-.75-2.35-.49 9.77-45.16-7.91.74-6.31-1.48-7.18-1.86-19.8-4.7-17.69-4.45-6.8-1.61-18.07-4.33-21.52-5.57-15.59-3.59-12.37-2.97-4.95-1.11-11.76-2.84-27.22-6.93-21.4-5.45-26.23-6.55-11.13-3.22-31.31-7.79-2.22 9.89-.37 1.49-1.98 8.78-1.98 8.79-2.6 10.88-1.36 6.19-1.24 5.57-3.46 15.83-.75 2.85-.74 3.71-1.85 7.67-1.49 6.8-.25 1.49-5.93 24.12-.25 1.12-.74 3.46-1.74 7.18-2.22 9.03-1.24 5.44-.87 4.58-.37 1.49-1.48 7.54-4.21-.74-16.08-3.34-24.38-5.07-22.39-4.83 8.66-35.26 7.3-37.73-1.36-.13-16.83-4.08-2.47-.49-13.73-2.85-4.21-1.11-7.55-1.98-6.06-1.24-4.83-.37-1.11-.37-4.95-1.61-6.43-.49-1.36-.25-6.81-1.24-10.14-2.35-23.01-5.44-25.49-6.07-48.87-10.64-12.62-2.72-4.45-.99-3.35-.74.5-2.1 2.97-12.37.74-2.97 3.59-12 7.42-23.26 1.86-5.32 7.05-18.81.25-3.46 15.83-101.2 1.12-5.08 1.36-5.32.49-2.35 7.92-34.89 1.98-9.28 1.36-.37.99-4.57-.25-3.34.13-4.09 1.24-5.19 3.09-14.11 3.96-18.31 3.59-17.44 9.52-39.72 8.54-37.48 15.84 3.71 26.22 5.32 1.61.37 22.64 5.07 15.35 3.34 3.21.75 3.96.86 11.51 2.72 12.37 3.1 23.14 5.07 47.88 10.39 20.16 4.7 69.66 15.59 17.57-78.44 15.34-65.07 1.85-9.28 16.34-77.2 3.83-16.33.74-3.71 4.46-19.92 4.82-19.8 4.33-19.92 4.95-19.67 4.21-17.94 5.19-22.14 17.94-72.75 3.84-1.24 32.17 41.08 18.06 23.38 34.27 43.67 10.27 11.88 10.39 12.25 11.51 13.73.37.5 5.07 6.06 13.37 17.07 5.81 7.55 3.71 4.58 63.1 79.3 7.55 9.28.62.74.12.99 3.22 3.84.37-1.86.74-2.85.49-2.22.25-1.24 1.49-6.56 3.46-12.86 3.59-14.85 1.73-7.92 4.58-20.78 1.48-6.31.25-1.49 1.49-6.68.86-3.59 2.48-11.5.86-3.84 7.92-33.65 1.73-7.55 1.98-8.66 10.15-43.54 1.48-6.31 1.12-6.69.74-5.56.49-5.32.13-.74.24-4.58v-5.2l-.12-5.32-.25-3.83-.49-4.7-.74-5.32-.99-5.2-1.12-5.2-1.36-5.19-1.73-4.95-1.73-4.95-2.11-4.7-2.22-4.7-2.35-4.58-2.73-4.58-3.83-5.81-82.15-112.46-4.21-5.69-15.34-21.04-2.6-3.46-2.1-2.97 14.35-12.37 7.92-7.3 1.36-.99 1.24-.99 1.48-1.11 1.61-.99 2.23-1.37 2.96.99 3.1-1.6 2.47-.62 2.6-.37 3.34.12 1.98.37 1.61.12 3.59.75 6.06.62 1.36.24 1.11.25 1.24.5 10.76 3.21 2.36.5 1.6.24h2.97l2.85-.37 3.59-.74.99-.37 3.58-1.48 12.25-5.2 6.81-3.46 2.1-1.24.62-.25.62-.25 1.61-.24 5.44.74 9.77.86 3.34.62 1.49.37 2.1.62 1.36.37.99.25 1.74.25 3.09-.25 3.71-.74 3.71-1.49 2.11-.74 6.8-3.46 9.4-5.08 1.24-.49 1.73-.62 6.68-1.36 9.53-1.11 8.66-1.12 2.1-.37 2.11-.74 4.2-1.86 7.3-4.2 1.74-.5 4.08-1.61 3.46-1.73 2.35-1.98 3.59-3.58 1.73-2.23 1.86-3.34 1.73-3.84.99-4.57.25-2.97-.5-7.67-1.48-7.06-1.12-7.91-.37-1.12-1.73-1.85-.49-1.24-.13-.87-.37-5.69-.12-3.59.25-7.54 2.22-24 .37-1.86 1.12-6.56 2.84-10.88 1.36-5.82 1.24-4.95 1.11-4.58.25-1.48v-1.98l-.37-2.72-.62-1.86-1.85-3.96-.99-2.47-.13-.99.25-.99.25-.62 1.73-2.1.49-.99.5-1.61.25-1.98.37-1.11.49-.87 2.35-2.84 1.24-.99 1.61-.38 1.73.25 2.23.99 5.19 2.72 1.86.37 1.11.13 1.86-.62.99-.62 1.24-1.61 1.23-1.85.87-1.73.37-1.86.25-12.37.37-2.85.74-3.21 3.47.61 31.67 6.68 23.01 5.45 24 5.44 15.59 4.21 8.17 1.73 23.88 4.7 22.14 5.07 23.88 5.57 22.89 5.2 16.7 3.46 4.46.99 15.59 3.47 2.47.49 19.92 4.7 10.02 2.1 15.96 3.72 65.82 14.47h3.71l-2.1 9.9-9.28 39.34-6.43 29.08-8.42 37.36-8.66 38.6-4.2 19.55-4.21 18.68-8.78 37.98-8.91 39.22-2.6 12-.74 1.73-.75 1.73-1.23 2.48-2.85 4.08-2.6 2.97-2.84 2.47-3.96 2.23-3.96 1.49-4.08 1.11-3.96.49 12.12 3.34 9.16 2.11 33.77 7.67 5.94 1.36 5.08 1.24 24 5.93 8.29 1.98 15.09 2.97 10.15 2.35 6.55 1.61 16.09 3.71 12.86 3.34 2.6 1.12.37.37.87 1.85 1.24 6.69.49 1.6 1.73 2.85 4.95 4.58 1.61 3.59 2.48 3.95 4.08 3.34 1.48 1.98 4.95-4.45 39.35-18.19 12.24-2.84 12.99 1.36 9.41 3.46 4.33 4.33 19.42 12.13 2.6-2.23 2.72-1.36 6.19-2.6-.37-5.32-1.36-5.94 4.95-4.45 8.66-14.23 7.79-37.61.99-6.18-.12-1.61.24-1.24.37-2.35 1.12-4.7 3.34 2.97.87.37 1.11.12 5.19.25 3.35-1.73 10.64.24 48.74-13.6 5.82.61 1.11.25 1.36.87 2.23 3.09 4.58 3.46.86 1.12.37 1.61.13 2.47.62 1.11.61.75 2.48 1.23 2.97.62h1.98l2.35-.86.99-.87.49-1.11.99-6.81 1.61-5.32.74-1.36 1.36-1.48.99-.62 1.36-.62h1.49l4.33 1.48 4.21-3.21 1.48-.62h.37l.87.37.86.74.75.87 1.98 2.47 4.33 5.32 2.22 1.73 1.61.62 2.85.5h3.34l2.1-.74h.99l.99.61 3.71 6.69 1.98 3.21.99.74 2.35.38 4.09-.25 4.2 1.48 3.47.62 2.72.13 1.36-.25 1.36-.5 1.61-.12.49.12.62.62.62.87.74 1.73.25 1.48-.49 11.76.12 3.83.49 2.11.99 1.98 2.48 3.71 2.72 3.09 2.1 1.48 2.35.99 2.35.38 3.72.61 2.22.13-.24 1.11.74.5 4.7 10.64-2.85 6.55-3.09 7.3-4.45 10.64-5.08 10.77-4.08 6.8-2.1 2.85-3.22 4.45-2.72 3.09-3.34 3.1-3.09 2.59-3.34 2.35 2.96 3.34 1.49 2.48.25.99-.37 2.23-.62 1.85-.5.87-3.09 2.72-3.96 3.71v.74l-.87 3.72-1.73 7.54-8.16 33.28-.99 5.32-.13 1.36.37 2.23 3.96 11.75 3.71 7.8.38 2.72v2.47l-.25 3.72-.5 2.84-1.36 3.96-2.1 5.32-1.36 2.72-1.86 2.48-4.2 4.08-4.09 3.34-4.45 3.59-1.73 1.98-1.24 1.98-.74 2.35-.87 2.22-.86 2.97 3.58.5 4.21.12 9.9-1.11 4.08-.62 2.35-1.49 1.36-1.23 4.33-5.08 1.24-.86 1.36-.62.87-.12 1.73.49 2.6.99 15.46 8.29.74.12.62-.12.87-.49.87-.99 1.73-2.48.74-.74 1.36-.99 19.18 113.7-8.29-3.84-3.71-.37-2.11-1.11-1.85-.99-2.97-.62-6.93-2.72-1.36-.13-2.97 1.12-1.36.24-5.2-.74-1.11.13-2.23 1.6-.74-.74 7.67-12.62-6.06-3.09-26.35.49-31.8-7.17-1.36 7.17-7.05 32.29-2.36 9.78-.49 4.58.12.99v1.23l1.86 5.82.87 3.59v1.73l-.62 2.47-3.22 5.57-4.33 6.93-1.61 3.71-.49 1.36-1.36 4.95-1.12 5.57-.25 2.72v5.81l-2.22 10.64-3.96 17.57-1.98 8.66-8.79 37.12-8.9 38.1-6.93 30.44-1.61 7.3-1.73 9.4.37.99v1.85l-3.59 16.83-2.23 9.53-8.66 31.17-9.03 40.09-9.77 43.3-5.45 25.36-7.3 31.18-16.7 72.13-4.7 24.99 19.92 4.45 14.6 3.1 4.21.86 15.58 3.59 11.51 2.47 1.49.13-4.21 21.65-1.61 6.68-1.86 4.58-4.2 8.66-1.86 3.71-.49.12-.75.62-1.23 1.98-.99 1.61-.37 1.11-.13.5-1.23 4.7-1.74 7.17-.12 1.74.99 10.26.87 6.93.37 3.96v2.85l-1.24 6.8-3.22 12.75-.49 1.85-2.97 9.53-1.24 3.59-1.24 2.35-1.73 2.96-3.46 5.32-3.22 5.7-1.48 3.34-1.36 4.33-.87 3.58.99 20.54.25 5.94 10.76 8.17 13.86 2.1 6.18 3.09 4.09 4.7-.99 4.7-7.18 9.53-7.05 5.07-12.13 2.6-11.25 9.78-13.37 6.18-11.26 9.77-1.85 4.71-5.82 5.44-14.22-2.47-8.79 4.45-6.06 4.95-1.36 5.81 8.16 5.2 10.27 3.59 19.55-.75 5.32 1.24 6.56 6.06 3.71 8.17 4.33 16.45 3.59 3.84-68.54-15.96 3.34 4.08 6.55 8.29 11.76 14.72 11.63 14.6 9.65 12.13 9.15 11.63 3.71 4.7 23.76 29.81 17.94 22.4 8.29 10.51 13.36 16.71 10.76 13.48 2.48 3.22 6.8 8.53 7.3 9.16 1.61 1.98.74.99.75.99.61.74.5.87.49.74.38.62.61.99.5.62.49.61.62.75.74.62 1.24 1.11-6.56-.5-1.97-.49-13.74-2.97-19.42-4.21-7.92-1.73-73.99-15.96-21.03-4.2-9.53-1.98-13.61 62.6-4.2 18.93-40.71-8.79-19.92-4.45-3.58 16.45-9.53 41.33-3.84 14.1-8.78-1.86-15.96-3.58-29.69-6.44-18.19-3.96-16.83-4.08-2.1-.49-26.23-6.19-18.56-4.21-2.22-.49-23.39-5.45-44.78-10.88-1.86-.37-18.56-4.71-1.36-.37-2.85-2.72-4.94-1.24-6.07-2.84-3.71-2.72-2.23-1.98-3.95-3.96-.75-1.11-3.34-4.21-.74-1.36-2.35-4.21-1.98-4.33-2.23-6.06-1.23-5.32-1.24-9.28.25-7.42.74-5.57 2.84-13.73 2.73-11.76 1.98-8.66 5.07-20.04 10.39-46.39 7.42-32.79.75-3.09-25-5.45-23.13-4.94-.74-.25-6.93-1.61-4.7-.99-10.4-2.1-.12.62v1.73l.37 1.11.87 1.36.49 1.12.37 1.73v2.35l-.62 2.84-.99 2.11-.98 1.36-.38.49-1.73 1.49-1.98.99-1.36.99-1.48 1.73-.5.99-.37 1.73-.12 1.24v1.73l.49.99 1.24 2.6.49 2.1-.12 2.48-.37.99-1.61 2.72-3.22 4.82-1.23 1.98-.37.37-2.73 4.46-.86 1.48-.87 1.61-1.24 1.86-1.23 1.23-.99.62-1.36.74-2.23.5-2.1-.13-2.23-.74-.87-.62-1.48-.37-2.72-.24-2.11.49-2.35 1.36-.74.87-1.73 1.36-3.96 3.46-1.61 1.49-1.98 1.23-9.65 3.47-2.84 1.98-2.36 2.47-1.73 3.09-.62.99-1.6 3.1-2.85 5.07-.62.99-2.1 3.59-1.24 1.11-1.24.99-1.36.74-1.36.25-1.85.25-1.49-.37-2.1-.5-1.49-1.11-.86-.99-.99-1.49-1.73-4.08-1.12-3.59-.74-1.48-1.11-1.24-1.49-1.36-1.85-.87-2.36-.37-5.69-.99-2.47.25-2.48.5-2.84 2.35-4.33 3.71-1.49 1.61-1.11 1.6-1.73 4.34-4.58 10.88-1.48 3.47-1.37 2.97-2.22 3.71-2.35 3.09-2.35 2.35-2.6 2.1-2.97 2.6-2.35 2.48-.87 1.73-.37 2.35-.25 1.36.25 1.73.5 2.35 1.6 2.97 2.11 1.86 1.85.86 1.61 1.36 1.36 1.98.75 2.23.12 2.35-.74 6.81-.13 2.59-.24 1.12-.75 2.84-1.48 2.23-6.19 6.43-6.68 7.06-2.23 2.1-.49.49-1.11 1.61-5.7 12.25-1.48 2.35-3.84 2.35-2.59 1.36-1.49.62-1.36.37-1.98-.49-2.23-.74-4.08-3.35-1.48-.74-1.36-.24h-1.98l-2.6.37-2.23-.37-2.47-1.37-1.61-1.85-2.72-1.98-1.49-.5-1.11-.24-2.35.49-1.24.37-2.97 1.86-2.47.37-1.49-.25-2.47-.86-13.74-5.57-2.72-.25h-1.61l-2.47-.12-1.36-.37-1.49.12-2.1.87-.87.61-1.97 1.74-.99 1.61-1.49 1.36-.99.49-1.61.87-2.47.74-3.22-.62z" stroke-linejoin="round"/></defs><use xlink:href="#b" fill="#9dc8ca" stroke="#6bb4d2" stroke-width="5.76"/><defs><path id="c" d="M1555.93 2175.22l-12-2.72-3.1-.74-2.72-.62-1.48-.37-15.1-3.46-1.61-.38-4.82-1.11-12.62-3.09-3.71-.87-1.86-.49-10.51-2.48-1.61-.37-8.42-1.85-1.23-.38-4.58-1.11-13.98-3.09-26.11-5.94-13.23-2.97-9.04-1.98-4.08-.99-3.96-.87-53.45-12.12-7.05-1.48-9.53-2.23-29.32-6.68-5.44-1.24-3.47-.87-4.2-.99-8.91-1.97 2.1-9.04 2.48-10.26.99-4.09 3.46-14.6-32.29-13.85-8.66-1.98 3.96-17.2 3.59-15.59 4.45.74h1.49l2.72.25 6.68.99 23.51 5.2.99.25 1.11.24.87.37 1.11.25.99-4.58 1.85-7.79.38-1.61.61-3.34 4.46-20.54.25-1.36 8.78 8.17 1.11-4.95 1.61-8.41-9.77-2.23 1.48-7.18.37-2.22.37-1.36 1.98-10.15 1.74-7.79 4.57-20.54 2.6-12.13 1.49-6.06 2.97-12.62 3.58-14.97 1.61-7.42 3.1-13.98 1.48-6.56.74-2.97.99-4.2.62-2.72.87-3.96 1.98-9.16 1.36-6.18 1.61-7.3 1.6-6.68.5-2.23.74-3.22 2.97-13.73-9.65-1.98-29.07-6.43-3.59-.87-5.57-.87-21.65-4.57-10.52-2.48-17.07-3.71-10.02-2.1-1.36-.37-4.7-.99-12.87-2.97-1.24-.37-7.3-1.61-20.04-4.09-1.49-.37-10.51-2.35-9.16-1.98-2.23-.49-21.52-4.58-15.47-3.83-6.43-.99-9.53-2.11-1.24-.49-.61-.25-16.46-3.09-26.72-5.82-6.19-1.23.62-1.74.37-1.48.74-3.84.37-3.96.13-.74.49-1.36.62-1.24.87-.99 1.23-.86 4.09-1.61 1.11-.62.74-.62.75-.74.61-.87.38-.74.24-.86.25-1.36v-5.08l.12-.86.25-.75.25-.61.49-.75.5-.49 1.24-.62 1.73-.37 5.94-.12-3.34-4.58-2.6-2.72-.25-.25-6.56-5.07-1.73-1.61-16.95-16.21-8.16-6.56-4.83-4.2-1.86-1.98-4.2-4.7-3.1-4.83-3.95-6.06-2.48-2.6-.49-.62-2.35-1.24 5.19-7.79 21.53-32.41 3.84-6.56 5.19-10.02 2.72-7.55 1.86-8.41 13.86-44.17 14.1-40.33 5.94-12.62 4.21-3.59 7.54-8.04 24.5-28.46 7.05-8.04 9.78-11.63 2.1-4.08 5.07-9.77.13-7.43-4.46-6.31-3.09-4.57 20.29-87.6 1.61-7.3.37-1.48.25-1.61.12-.49 1.73-8.91 4.46-19.55 2.96-14.72 2.23-11.51.37-1.61.99-4.33.62-2.72.62-2.84 1.48-7.18 3.35.74 4.45.99 12.62 2.72 48.87 10.64 25.49 6.07 23.01 5.44 10.14 2.35 6.81 1.24 1.36.25 6.43.49 4.95 1.61 1.11.37 4.83.37 6.06 1.24 7.55 1.98 4.21 1.11 13.73 2.85 2.47.49 16.83 4.08 1.36.13-7.3 37.73-8.66 35.26 22.39 4.83 24.38 5.07 16.08 3.34 4.21.74 1.48-7.54.37-1.49.87-4.58 1.24-5.44 2.22-9.03 1.74-7.18.74-3.46.25-1.12 5.93-24.12.25-1.49 1.49-6.8 1.85-7.67.74-3.71.75-2.85 3.46-15.83 1.24-5.57 1.36-6.19 2.6-10.88 1.98-8.79 1.98-8.78.37-1.49 2.22-9.89 31.31 7.79 11.13 3.22 26.23 6.55 21.4 5.45 27.22 6.93 11.76 2.84 4.95 1.11 12.37 2.97 15.59 3.59 21.52 5.57 18.07 4.33 6.8 1.61 17.69 4.45 19.8 4.7 7.18 1.86 6.31 1.48 7.91-.74-9.77 45.16 2.35.49 3.09.75 2.6.49 1.24.25.74.12-.49 2.23-4.46 19.67-4.57 19.42-4.21 19.92-4.46 19.92-4.7 19.92-1.73 8.29-2.6 16.7-6.93 34.52-1.98 12.25-.98 8.16-.13 4.95 29.08 6.19 8.9 1.98 30.44 7.42 32.41 7.55 21.53 5.81 8.04 1.98-4.2 19.8-3.59 18.31-.87 4.82-3.71 19.8-24.74 16.45-.37.25-.37.86-.5 1.74-2.72 11.38-1.86 7.55-.12.49-1.11 5.44-.75 6.68-.62 4.09-.37 3.59-.49 6.55-.74 7.3-.62 4.33-.87 4.7-.62 3.34-1.11 3.47-1.36 3.09-1.98 4.45-.99 2.36-.37 1.11-.87 2.97-1.48 6.31-2.72-.62-3.22-1.24-.87-.49 4.83 46.27-32.66-.5-30.44-31.05-1.86-1.86-8.04-1.98-1.85-1.36-.62-.12-7.43-4.7-.74-.37-4.7 1.85 2.97 11.51 3.22 11.38 1.6 5.57 3.35 10.89 7.42 23.87 7.3 23.88 3.46 12 3.1 12.13 21.15 85.73 18.81 76.58 31.79 130.03 10.89 44.54 1.24 5.07 1.11 4.33 1.36 5.57 2.23 8.91 1.24 5.2 1.23 5.44 1.24 6.06 1.36 7.67 1.24 7.92.74 6.19 1.12 10.26.49 8.05.37 7.05.13 3.22v4.45l-8.05-1.86-2.84-.74-5.57-1.36-3.96-.87-25.49-5.81-10.14-2.23-7.55-1.73-5.19-1.24-3.84-.86-11.38-2.6-6.56-1.36-3.96-.87-17.32-3.46-2.72.86-8.66-1.98-7.8-1.73-1.73-.37-11.38-2.72-9.9-2.23-11.5-2.6-1.37-.24-12.37-2.85-6.93-1.61-6.55-1.48-22.15-4.95-11.01-2.47-25.61-5.82-8.17-1.86-1.98-.37-2.84-.61-7.67-1.74z" stroke-linejoin="round"/></defs><use xlink:href="#c" fill="#6bacaf" stroke="#097d9b" stroke-width="5.76"/><defs><path id="d" d="M318.34 2221.12l-7.3-.62-2.11-1.6 5.32-5.82 7.06-8.41-.38-1.98v-1.49l.38-1.11.49-1.11.99-.5.62-.86v-.87l-.62-.74-.62-.5-.86-.62-.99-1.11-.37-1.36v-1.24l.86-.74.99-.99.87-.74.62-1.24.37-1.24.37-1.6-.25-1.49-.12-1.61-.37-1.48-.87-.87-1.11-.49-.99-.25-2.48-3.84-.99-2.96-.62-2.85-.12-2.97-.12-3.09.49-3.47.87-3.71-4.21-7.92-2.1-2.84-1.49-1.36-1.85-1.61-1.86-1.11-1.86-.75-1.23-.62-1.98-.74-2.35-.62-2.23-.99-1.48-.86-5.7-3.1-4.33-2.1-8.66-3.96-3.34-1.73-7.79-3.34-.37-.25-2.48-3.46-2.72-1.24-2.97-.86-2.97-.5-2.22-.25-1.86.25-1.86.74-1.98.87-1.36-.12-1.11-.5-2.1.99-.75.25-1.73-.5-2.97-2.47h-1.23l-2.85.62h-2.35l-1.73.24-2.11 1.12-3.09 1.85-3.83 2.48-4.71 1.98-2.72.99-3.09.24h-10.89l-1.73.38-1.24 1.23-1.48 1.12-1.98.24-1.61.13-2.1.37-1.98.49-.5-.49-.62-.74-1.11-1.36-.49-.99-.25-.99-7.55-1.49-17.57-4.08-26.6-6.93-8.41-2.23 2.97-14.1-27.59-6.06 4.45-45.53 3.96-24.62.5-3.34 1.11-13.12 2.6-7.67-7.8-.61 3.84-16.46v-11.13l-24.37-5.32 5.44-23.63 2.23-14.97-25.24-5.57 8.53-35.51-18.93-4.7-1.6-.37-23.51-4.7 2.6-12.99 9.4-46.03 10.02-43.67 4.21-12.74 2.84-.13 43.92 9.41 26.23 6.18-.99 3.71 2.11.13 6.06.25 2.1-.25 2.97-.74.87-.25.99.49.37.5.37.37.25.12h.37l.37-.24.49-.62 1.61-3.71.99-1.86.87-.99.74-.5 1.11-.37 2.23.13 2.85.12 2.72.37 1.11.37h.99l1.12-.12.61-.25 1.12-.74 1.36-1.11 1.36-1.61 1.36-1.49 1.24-1.23 1.11-.87 1.86-1.36 1.98-1.24 1.23-.49 1.49-.62 1.48-.37.87-.25 1.11-1.24 1.36-1.23.75-.38 2.59-6.18 17.2-17.45 4.58-2.22 5.69 1.48 5.57 5.82 2.84-3.84.99-1.36.62-1.11.87-1.49.62-1.61.86-2.35.37-1.23.5-1.86.62-2.6.37-2.1.37-2.85.25-1.85v-1.12l-.13-2.1-.37-3.83-.24-2.23-.13-1.86v-4.57l.13-1.74.61-3.09.99-4.08.75-2.85.74-1.98 1.11-1.98 1.36-2.47 1.12-1.73 1.11-1.61 1.36-1.49 1.61-1.85 1.11-1.12 1.61-1.48 2.48-2.23 1.6-1.61 2.48-2.84 1.85-2.72 2.11-3.96.86-1.73.62-1.86.62-2.23.74-3.83.25-2.23.37-2.72.62-10.39.74-10.4.37-5.93.5-5.82.49-7.55-.12-3.95-.5-2.23-.49-3.22-.37-1.85 2.35-.99 1.36-.13 3.71-2.35 1.12-.49.49-.13.99-.37 1.61-.49 1.98-.5 1.85-.37 1.61-.25h1.49l1.11.13 9.16 1.48 7.42 1.36 3.96 1.12 2.23.74 1.23.49 1.24.75 1.86 1.23 3.95 3.71 3.47 2.73.87.49 1.6.74 3.72.99 8.28 1.61 4.71.62 7.17 1.11-.12-.86.12-.5 29.57-104.04 4.7-19.8 11.14-16.58 69.65-57.77 28.46-23.51 13.73-17.57 9.28-34.39.74-6.06-2.59-10.64-1.37-9.28 3.1-11.14 8.53-14.23 1.74-1.23 10.27-12.13 58.27-34.52 14.35-14.97 5.2-6.8 2.22-5.81 1.24-4.46.74-3.96 2.23-5.81 4.83-7.3 3.46-5.45.62-.98.37-1.12.25-.99.12-1.36.5-6.18-.5-4.34-2.23-7.91-.49-3.1-.74-2.35-1.36-2.97-.99-2.22-.5-2.23-.49-3.22-.25-3.83.25-.87v-1.36l-.13-.99-.49-1.61-1.61-3.58-2.72-4.46-3.1-5.19-2.84-4.09-2.35-3.46-.37-.74-.62-.5-.5-.37-1.85-1.24-2.85-1.98-.99-.62-.49-.61-.37-.62-.99-2.23-.62-2.23-.13-1.11v-.74l.13-.74.24-1.12v-.62l.25-.86.25-1.12v-.86l-.25-.74-.12-.62-.74-.99-1.86-1.98-1.24-1.86-.49-.86-.62-1.12-.5-1.48-.49-1.61-.62-1.98-.86-2.72-.75-1.61.13-1.24.37-1.85.37-2.35.12-2.73.13-3.34.24-3.09.87-2.47 1.11-1.98 1.61-1.73 1.24-.75 1.48-.62 1.36-.49 1.12-.37h.86l.62-.5.37-.49.62-.99.74-1.98.99-2.1.87-1.49.74-.99.99-.49 1.86-.87 1.73-.49 2.23-.38 2.72-.86 2.47-.5 3.47-.61 3.96-.75 2.84-.49 1.86-.25 1.73-.49 2.1-1.12 1.24-.86 1.49-1.12 2.47-1.36 4.7-1.98 3.47-.86 6.55-.75 5.94-.99 5.32-1.36 2.72-1.23 1.37-.75 1.6-.74 1.74-.49 1.6-.13 1.61.25.99-.25 1.49-.49 1.23-.62 1.61-1.49 2.23-1.85 2.1-3.09 1.49-2.6 99.84 21.77 105.91 26.35 24.12 4.71 22.52 4.57-10.27 48.63-4.08 19.3 2.72-2.23 1.86-1.12 5.81-3.46 1.36-.25.74.13.62.24.37.99-1.6 5.2-3.22 19.05.25.62 1.23.87 2.73.86 3.71.99 1.36.87 1.61 1.61 3.21 4.45 1.98 2.1 1.98 1.49 1.73.99 6.19 3.09 1.61.87 4.21 2.47.99.13.74-.25.74 1.36.87.99 1.73 1.86 1.48.99 1.24.37 8.04 3.34 4.21 2.72 1.11 1.11 1.12 2.11 1.11 2.35.49 1.98.25 2.96v1.24l-.62 1.49-.62.99-.49.49-.5 2.35-.37 1.86-.12 2.97.25 2.35.62 3.21 8.78-1.48 18.43 17.81.75-.24.49-.25.25-.49.12-.87.5-2.35.24-.74.5-.5.62-.25 4.95-.74.74-.12 1.73-.37 5.07-1.36 1.49-.87.87-.5.74-.74 1.73-1.73h.74l.99.37 1.12.25 2.1-.37 4.82-.99 3.22-.62 4.83-.99 1.98-.74.49-.25 1.61-.49h.25l2.47-.5 1.24-.25h7.17l3.1-.49h2.59l2.36.37 2.72.99 3.21.86 3.22.62 1.61.25 1.11.5.99.61.87 1.12.62 1.11.62.99.61 1.11 1.24.62 3.34 1.36 2.11 1.36 4.94 2.97 1.49.99 1.61.38 2.6.61 2.1.37 1.98.25 1.73-.62 3.22-1.73 5.32-3.71 1.61-.74 1.73-.25h4.2l1.61.12 1.24-.74 2.23-2.47.74-.5 1.48-.62 1.98-.12 1.24-.37 1.24.37 2.47 1.48 2.6.87 1.98-.12 1.24-.37 2.22-2.6.75-.37 1.11-.13.99.5 1.73.74.99.5h3.96l3.22-.5 2.72-1.24 2.47-.86 3.22-.87.87-.62.99-.62 1.6-1.23 1.74-.99 1.73-1.49 2.47-2.72 2.6-3.09 1.49-2.48 1.36-1.36 1.23-.99.75-.49 5.32 2.84 1.98-3.83.37-.62 4.58-9.4-.5 7.67.99-.25h.87l1.36.37h.74l2.72-1.48-.74 2.97-2.97 12.37-.5 2.1-1.48 7.18-.62 2.84-.62 2.72-.99 4.33-.37 1.61-2.23 11.51-2.96 14.72-4.46 19.55-1.73 8.91-.12.49-.25 1.61-.37 1.48-1.61 7.3-20.29 87.6 3.09 4.57 4.46 6.31-.13 7.43-5.07 9.77-2.1 4.08-9.78 11.63-7.05 8.04-24.5 28.46-7.54 8.04-4.21 3.59-5.94 12.62-14.1 40.33-13.86 44.17-1.86 8.41-2.72 7.55-5.19 10.02-3.84 6.56-21.53 32.41-5.19 7.79-36.13 149.21.25 4.58.62 4.33.61 3.21-4.7 2.6-2.22.62-2.23.25-2.48-.13-5.19-.74-.99-.12-1.61-.5-2.97 9.16-.99 2.47-1.24 2.23-1.11 1.86-1.73 2.35-2.97 3.21-3.47 2.97-3.83 2.97-5.69 4.08-3.84 1.86-2.35.74-2.72.5-6.31.49-2.85.25-2.72-.12-2.1-.25-1.24-.25-2.72-.87-22.15-7.67-5.44-1.98-3.71-1.36-6.19-1.85-3.21-.99-1.98-.25-3.34.12-1.98.62-3.47 1.49-3.34 1.36-2.1 1.61-1.24 1.23-4.08 5.32-1.98 2.73-7.55 10.88-1.85 2.73-1.49 1.85-1.11 1.24-1.61 1.24-1.12.74-1.6.86-5.82 2.11-1.36.37h-1.11l-2.23-.62-2.47-.74-2.23-.5-2.1-.12-1.24.49-1.12.25-1.11.5-.86.74-1.86 2.1-.74 1.24-.5 1.36-.12 1.48-.25 7.67-.25 1.49-.37 1.36-.49.87-.62.74-1.11.86-4.71 2.48-5.07 1.61-2.97.74-2.72.37-2.97-.37-6.19-2.1-4.45-2.48-4.58-2.84-4.95-3.96-3.34-2.48-6.31 5.45-17.56 14.84 8.78 12.62 9.28 13.36 7.67 11.01 9.03 13.74 7.18 10.76 7.17 10.76 1.98 2.97 1.36.87.75 1.48 2.35 5.32 1.98 5.94.61 2.23.5 2.1.62 4.7-.25 9.41-1.11 1.36.12.49v.5l.12 1.61 1.74.37 2.97.62.99.24 1.6.37 5.7 1.37 3.83.86 3.84.87 15.83 3.59 23.26 5.32 1.86.37 14.84 3.34 34.15 7.67 8.66 1.98 30.31 6.68 11.26 2.72 1.98.37 16.83 4.08 7.05 1.49 7.05 1.48 2.85.62 23.51 5.32 9.77 2.23 12.87 2.97 10.14 2.22-5.57 41.08-2.72 20.91-1.48 11.87-.5 3.96-2.97 24.38-.61 5.19-.75 5.07v6.31l-.49 1.86-.13.62-.12.25-.37.12-1.73-.37-41.94-8.66-11.02-2.6-14.97-3.09-2.35 7.92-1.23 4.2-.75 3.59-.12 9.65.74 5.69 1.12 8.91.49 3.59.5 3.58h.61l6.81 3.47 1.36.62.37.62 1.11.24 1.12.62 1.36 1.24 1.24 1.61.86 1.36 1.49 3.34.62 1.48.49 1.61.5 3.22.37 1.61 1.11 6.43.25.99.74 1.48 1.98 4.58 1.36 2.35 2.23 3.22.86 1.73 1.61 2.35 6.68 11.51 3.96 7.54.5 1.24.12.5v1.98l-1.73 9.65-.13.49-1.97 8.29-.13.62-.25.25-.49.86-.87 1.36-.99 1.24-2.22 1.86-4.58 3.83-1.11 1.36-.5.87-.25.49-.12.37-.12.75-.13.49-.12.74-.13.62-.24 5.32.37.62.25.5.37.61.24.25.5.37.74.62 1.49.62 6.8 1.73 8.54 1.86.74.49.37.25 1.11.99 2.97 3.84-6.43 22.88 5.2 6.07 1.23 5.19-18.8-3.71-8.04.12-3.84-.12-3.71-.37-5.82-1.24-19.79-4.2-10.89-2.23-8.54-1.36-3.71-.37-7.54-.75-10.15-.37-3.46-.24-15.72-9.16-187.31-44.29-53.08-10.52-131.27-27.71-26.23-7.79-3.34-.99-4.2.86-6.93 1.36-10.02-2.1-13.98-3.09-11.39-3.34-19.42-4.46-15.71-3.09-1.86-1.11-97.86-18.07z" stroke-linejoin="round"/></defs><use xlink:href="#d" fill="#09757a" stroke="#00465f" stroke-width="5.76"/></svg>