<svg width="384" height="412.8" viewBox="0 0 2880 3096" xmlns="http://www.w3.org/2000/svg" xmlns:xlink="http://www.w3.org/1999/xlink"><path fill="#fff" d="M0 0h2880v3096H0z"/><defs><path id="a" d="M1280.61 3063.2l-22.93 2.52-3.48-8.71-6.19-14.61-3.39-13.06-7.54-22.83-21.09-74.11-2.03-52.64-9.29-199.59-4.07-5.71-2.99-12.09-6.68.58-17.32 1.45-8.22.48-13.93 1.26-10.35.87-6.39.58-1.45-17.22-3.39-44.12-.77-10.93-7.74-108.94-1.64-22.93-.58-8.61-4.16-59.21-.88-11.52-1.54-22.64-4.94-67.62-2.32-31.64 5.32-.68 7.64-1.35 5.91-1.07 3.09-.29 5.32-.68 3.29-.29-.29-4.16-5.51-92.78-3.19-92.39-11.81-105.27-7.74-114.36 7.94-.77 19.54-2.03 13.74-1.36 8.9-.77 13.44-1.36 14.52-1.35 3.96-.48 26.12-3 27.87-3.1 28.73-3.29 28.44-3.29 28.45-3.39 100.22-11.6 20.42-1.84 19.54-1.74 14.41-1.55 17.32-1.74 19.35-2.33 12.48-1.54 26.41-3.2 56.31-6.87 28.73-3.09 25.93-2.71 3.29-.39 29.99-3.48 28.15-3.48 28.25-3.58 36.09-4.16 8.22-.97 4.93-.49 18-1.93 20.02-1.45 5.42-.39 2.13-.19 1.84-.1 9.38-.77 32.12-2.42 21.19-1.65 6.29-.48 8.22-.39 16.54-.77 15.1-1.36 19.44-1.74 32.61-1.84 28.15-2.03 27.76-1.84 22.64-1.83 11.03-.87 19.45-1.65 9.38-1.06 9.48-1.26 9.58-.97 30.18-2.03 32.7-2.03 7.16-.39 26.51-1.26 34.15-2.32 34.35-2.42 27.86-1.93 9.48-.68 35.22-2.61 157.79-12 32.89-19.83 2.03 1.74 6.97 10.74 3 5.42 2.41 2.8.68 2.32.87 4.16 1.26 6.78 4.74 24.28 4.93 25.45 3.2 8.51 3.58 2.9 1.74 3.78-.97 6.77-2.03 1.35-3.19 2.71-6 6.48-3.77 8.23-2.42 8.32 1.54 26.6 2.42 21.19 2.04 18.19 2.12 11.22-3.77 6.39-2.51 5.32.96 6.29 3 9.97 1.94 7.64 6.09 17.61 6.39 16.25 7.16 14.51 2.32 10.55 2.13 14.32.19 4.45-1.16 7.74-1.26 2.03-3.29 2.23-1.26 2.9.39 4.93 5.52 32.03 4.35 18.77-.1 3.09-1.45 1.45-2.03 2.33-1.45 2.9.19 4.74 1.74 4.84 2.03 4.93 3.87 2.9 3.97 1.84 4.84 1.07.68 1.74.09 4.35.29 4.93.97 9.39 12.96 74.98 3.29 18.67 12.39 59.7 6.67 27.67 1.26 9.87.58 15.48 2.61 17.03 5.03 32.7 5.03 18.38 3.58 8.13 4.94 6.38 17.12 18.38 18.09 23.42 10.45 17.9 4.16 8.22 3.87 7.16 41.99 94.91 24.76 51.09 14.13 29.89 8.8 21.19.97 6.39-6.87 1.25-7.25-.87-1.46-.38-2.32-.29-19.15 1.83-115.13 15.48-43.34 7.74-57.27-1.64-15.97.77-77.3 6.29-56.5 4.65-51.27 4.16 4.16 16.35 2.32 10.25 3.1 11.9 3.67 13.93.87.97 2.33 2.71.96 1.06 5.42 4.94 3.87 3.58 3.97 2.71 25.54 17.8 25.73 22.16 18 19.93 9.67 10.54 7.45 7.06 8.03 6.68 15.58 11.8 8.9 7.94 7.83 14.9 3.87 4.16-8.32.77-15.67 1.16-7.93.97-21.67 2.42-5.61.48-23.42 1.74-1.16.1-5.71.39h-5.12l-12.77.48h-2.23l-2.61.1-8.22.38-10.36.49-14.22 1.06-13.73 1.07-13.55.77-12.67.97-25.93 1.93-6.87.58-19.15 1.26-2.71.49-9.58.77-13.45 1.06-12 .87-.87.1-12.48.87-18.57 1.36-23.12 1.74-20.13 1.35-6.67.68-6.97.58-9.57.77-15.97 1.17-1.55.09-12.67.87-12.87.97-1.74.1-21.77 1.74-3.77.19-12.96.78-29.99 1.74-45.38 3.48-21.38 2.13-10.74.58-12.57 1.26-12.48.96-5.23.59-18.86 1.06-8.71.87-22.44 2.71-11.52 1.35-59.59 7.07-21.87 3-57.17 6.67-57.95 6.87-9.87 1.07-19.25 2.22-51.86 6.48-11.8 1.45-22.54 2.81-22.25 2.71-11.52 1.64-52.34 6.68-68.3 7.64-19.06 2.13-2.51.29-25.06 3.29-17.9 1.55-13.93 1.64-.67.1-26.13 3.48-10.93 1.36-12.28 1.55-.88.09-12.77 1.65-14.51 1.64z" stroke-linejoin="round"/></defs><use xlink:href="#a" fill="#9dc8ca" stroke="#6bb4d2" stroke-width="5.76"/><defs><path id="b" d="M2300.88 1291.42l-34.34-10.26-31.44-9.28-36.96-11.81-19.44-6-7.26-2.71.19-1.93-6.58-2.61-30.95-11.32-21.38-8.81-15.1-6.96-4.06-38.61 32.41-2.61 16.64-.58 18.96-.77 8.81-.58 4.16.67 4.83 1.84 5.61.97 5.42.58 4.65-.77 9.38-3.2 7.45-2.32 10.35-1.26 8.13.39 7.83.87 3.87 1.07 4.07 1.83-85.72-47.69 1.65-.68 3.09-.58 2.81-.19 72.17-4.65 14.12-1.35-1.54-26.42-5.33-73.24-4.93-65.69-2.22-34.25-2.71-33.38-5.03-59.02-2.42-29.21-2.03-30.19-34.25.97-9.58.58-17.61 1.06-32.6 2.03-4.35-55.05 32.6-2.03 27.28-1.64 33.18-3.2-3.77-63.37-4.45-50.69-.87-13.07 96.55-6.28 3.87-.1 3 .29 2.52.97 1.06 1.45.77 1.74.88 3.48.38 3.97 2.42 29.22-.1 3.48-.67 4.84-.68 2.9-1.26 2.71-1.45 2.03-4.84 4.65-6.57 5.12-1.65 1.94-1.26 2.13-1.16 2.42-.87 3.48-.29 4.16 2.42 38.99.87 7.93 1.16 7.45.68 2.23 1.84 2.61 1.83 1.35 2.42.49 2.42.19h5.03l13.06-1.93 46.05-3.58 6.58-.97 8.9-.97 7.65-.97 3.38-.38 2.52-.87 3-1.26 3.29-.87 4.54-.68 4.07.1 5.22.97 9.87 2.51 4.93.1 37.83-1.84 9.77-2.13-1.64 33.48 6.19 72.75.38 15.48.68 12.1 2.13 21.47 3.58 30.87 8.61 52.92 3.39 17.22 7.93 34.06 4.06 14.8 11.42 36.86 12.58 31.83 1.74 6 .67 4.74-.77 3.39-1.26 2.8-11.41 7.55-13.64.97-2.04-.78-3.67-1.35-6.19-8.9-4.74-12.48-7.36-25.74-8.41-16.35-2.91-11.22-2.12-29.99-4.65-19.45-3.58-10.16-4.55-8.42-5.51-4.06-4.74-2.61-11.13-11.03-12.67-14.22-3.29-10.07-.39-9.48 2.33-9.58 6.77-4.93 21.48-.19 3.77-1.84 3-3.68 2.9-7.93.58-13.74-3.58-9.29-6.19-7.83-13.35-8.71-11.61.19-8.42 2.71-6.29 3.19-8.7 11.81-2.62 4.83.39 15.29-1.26 12.29-4.54 11.12-6.29 8.13-17.8 12.67-8.42 9.87-8.61 19.45-3.29 10.26.29 6.09 2.52 7.74 2.9 6.97 11.42 10.16 2.22 1.35 4.93 3 7.65 3.48 11.8 1.65 39.08-4.65 7.26-.19 5.32 2.52 2.61 8.61 1.16 39.18 1.26 8.71 6.19 9.38 16.55 19.16 13.45 9.09 1.54 6.39-.29 2.61-5.12 12.19-4.16 10.26-3.29 17.41-1.46 16.55 1.94 30.28-.58 2.22-.97 1.46-3.09 1.45-7.74-4.94-48.86 11.42-51.27 6.96-4.26 2.81-5.32 3.58-5.42 3.19-.87-3.48-1.16-2.23-1.26-1.64-1.26-1.16-1.16-.78-1.06-.48-1.65-.58-3-.87-5.99-1.74-5.04-1.45-25.83-7.45-9.38 43.24-10.26 47.51z" stroke-linejoin="round"/></defs><use xlink:href="#b" fill="#9dc8ca" stroke="#6bb4d2" stroke-width="5.76"/><defs><path id="c" d="M831.52 1879.56l-28.63 2.9-23.9-5.99-1.74-17.52-3.39-57.95 1.36-12-5.9-6.19-11.03 1.74-24.48 2.81-28.25 3.19-14.32 1.74-38.6 2.91-14.9-14.52-4.35-5.8.1-34.35-.2-15.77.68-6.29 3.19-6.58 8.9-16.54 4.36-5.51 3.77-1.94 8.13-.48 29.89-.1 14.12-.39 41.22-5.8 9.67-2.03 3.87.48 3.78 2.03 1.74 2.9 23.31-5.41 17.8-.78 12.48-26.8 12.48-26.8-45.47 4.36-1.64-26.13-4.64-24.47-1.75.19-4.45-50.79-1.45-25.74-1.45-25.74-42.18 4.65-28.83 3.19-16.93 1.45-7.35.78-37.93 4.35-23.89 2.61-18.67 1.55-21 2.32-23.99 2.52-44.79 4.64-38.51 3.78-6 .67-41.4 4.55-2.62.39-1.83-26.42-.1-.87-5.61-75.46-2.52-46.54-1.83-24.38-3.78-31.64-6.87-99.94-8.03-101.49 2.62-.19 19.73-1.84 18.29-1.55 3.67-.39 44.31-4.74 6.58-.67 2.81 1.35 35.5-4.16 13.45-1.16 31.15-3.29 15.29-1.65 2.51-2.03 26.51-2.71 44.21-4.74 44.41-4.35 17.61-1.65 27.57-2.7 52.14-5.62 6.1-.38h3.97l4.54.29 3.48.19 3.1.39 5.03.77 3.39.87 3.96.97 4.07 1.16 5.12 1.55 3.39 1.06 3.29 1.26 4.06 1.65 4.65 2.22 4.54 2.52 8.9 4.93 53.21 31.54 12.97 7.55 42.18 24.28 3 7.06 1.74 1.94 1.84 1.16 9.19 3.68 9.96 6.58 12.97 8.22 2.61 1.26.77-4.45 3.68 2.22 4.84 2.81 4.45 2.61 14.22 8.13 8.61 4.25 1.74.78 6.29 2.71 3.48 1.45 4.16 1.84 1.84 3.48 4.16 1.45 3.1.68 3.48.29-.68 1.45 11.22 2.13 7.74 3.19-22.15 43.25 1.35 21.09 4.16 44.6-.87 20.9-.19 14.03v12.48l3.19 44.89 2.23 30.19-10.65 1.06 15.48 233.17 14.9 170.47-6.67.78-18.96 2.03-5.71.77-4.74.49-5.03.67-22.06 2.81-2.81-1.16-32.5 2.42-6 .77-2.32.39-3.49 2.71-19.35 2.42-26.31 2.7-16.06 1.75-25.35 2.51-19.15 2.32-17.61 1.55-25.93 3.1-15.77 1.64z" stroke-linejoin="round"/></defs><use xlink:href="#c" fill="#6bacaf" stroke="#097d9b" stroke-width="5.76"/><defs><path id="d" d="M1107.34 1848.89l-14.9-170.47-15.48-233.17 10.65-1.06-2.23-30.19-3.19-44.89v-12.48l.19-14.03.87-20.9-4.16-44.6-1.35-21.09 22.15-43.25-7.74-3.19-11.22-2.13.68-1.45-3.48-.29-3.1-.68-4.16-1.45-1.84-3.48-4.16-1.84-3.48-1.45-6.29-2.71-1.74-.78-8.61-4.25-14.22-8.13-4.45-2.61-4.84-2.81-3.68-2.22-.77 4.45-2.61-1.26-12.97-8.22-9.96-6.58-9.19-3.68-1.84-1.16-1.74-1.94-3-7.06-42.18-24.28-12.97-7.55-53.21-31.54-8.9-4.93-4.54-2.52-4.65-2.22-4.06-1.65-3.29-1.26-3.39-1.06-5.12-1.55-4.07-1.16-3.96-.97-3.39-.87-5.03-.77-3.1-.39-3.48-.19-4.54-.29h-3.97l-6.1.38-52.14 5.62-27.57 2.7-17.61 1.65-44.41 4.35-44.21 4.74-26.51 2.71-2.51 2.03-15.29 1.65-31.15 3.29-13.45 1.16-35.5 4.16-2.81-1.35-6.58.67-44.31 4.74-3.67.39-18.29 1.55-19.73 1.84-2.62.19.78-3.58-.58-2.71-.29-24.77-4.16-20.02-3.49-49.93-3.87-50.4-3.77-50.7-3.58-44.41-3.09-44.6-1.36-11.9-3.48-45.18-1.45-13.35-3.29-40.64.77-2.32-1.74.1-1.64.09-12.87 1.55-6.19.77-3.39.39-19.25 1.84-44.5 3.68-18.87 1.54-10.06.78-14.9 1.45-17.12 1.45-16.64 1.26-14.23 1.06-6.77.49-.09-4.07-8.81-112.71v-2.52l.29-1.45.68-1.16-12.87-136.13-32.21-59.4-13.26-24.19-12.67-25.25-36.18-72.76-2.52-68.4-.19-1.06-.29-.78-.49-1.25-4.06-8.42-.87-1.36-.77-.87-1.07-.58-1.35-.09-1.65-.29-2.13-.1-9.48-.48 11.81-2.23 9.96-1.55 17.9-1.93 17.9-.39 29.6-.87 10.06-.58 2.13 20.22.48 6.29.58 6.48.87 6.58.68 5.22 1.26 6.87 1.45 6.68 1.55 5.42 1.35 4.16 1.45 3.87 1.75 4.64 1.93 4.94 2.13 4.83 1.74 4.26 1.55 3.48 2.13 4.26 2.71 5.71 2.22 3.58 1.94 3.19 2.41 3.77 2.81 4.55 3.58 5.81 3.1 4.74 5.03 8.03 9.86 15.86 23.13-10.06 28.54-12.19 9.77-4.35 5.22-2.13 4.74-2.23 9.1-4.35-2.23 31.93 2.03-1.36 5.81-1.74 22.54-2.8 123.45-7.84 31.05-3 15.09-3.1 13.16-8.32 18.67-1.25 7.93 3.58.59-1.55 1.54-.78 28.74-1.54 39.95-2.42 38.12-2.03 23.9-2.23 22.63-.97 22.26-1.64 46.43-3.2 22.93-1.45 26.41-1.83 23.71-2.04 24.47-1.35 23.32-1.65 24.09-1.35 71.68-2.81 95.3-9.96 9.96-.68 59.4-4.93 38.03-3.2 6.67-.48 17.12-.87 30.77-1.35 10.74-.1 9.48-.68 3.87-.29 2.8-.48 2.23-.68 2.32-1.26 3.97-3.58 3.87.2 11.03 5.22 14.9-2.22 2.12.29h4.74l11.71-.58 27.09-.97 4.93-.2 30.77-2.03 29.7-2.32 32.99-2.61 28.93-2.42 3.09-.1 26.99-1.64 3.39-.2 26.6-2.8 26.03-2.42 7.35-.29 7.35-.58 25.74-1.65 25.54-1.93 14.22-.97 25.35-1.16 31.63-2.9 12.29-.68 8.8-.48 26.61-2.23 9-1.06 13.06-.68 4.64-.39-2.81-44.69 11.32-2.04 40.35-1.93 30.18-1.26 14.32-1.93 7.93-.39 19.83-1.07 13.35-.19 11.9-.39 10.45-1.16 24.19-.87 22.93-1.35 23.7-2.13-1.84-31.83-.58-11.42-2.71-48.47-2.61-33.86 110.39-6.29 13.64-3.48 28.25 50.4 8.8 17.61 18.67 30.38 23.42 47.12 2.32 4.64 5.12 17.13 5.91 11.22 18.76 28.83 14.42 27.77 7.16 13.74 12.77 19.25 4.26 7.55 11.9 21.09 19.73 36.57 13.06 17.42 14.8 19.64 26.8 29.31 2.42 5.52.97 4.16-.1 5.41-3 4.74 1.65 7.36 2.32 5.9 4.06 5.61 2.42 4.55 4.93 11.99 3.49 7.45 4.74 9.1 1.06 4.26 4.65 7.25 6.86 16.74 9.68 15.38 6.77 6.68 5.81 7.26 4.45 5.99 8.9 12.68 10.93 13.83 10.74 18.58 12.96 23.32 9.29 15.96 8.22 9.29 4.55 1.93 6.68-2.03 4.54-2.51 5.32-.49 33.67 8.13 3.19 7.26-.09 5.41-.29 8.81-.39 9.09-1.84 14.61-9.77 2.13-37.83 1.84-4.93-.1-9.87-2.51-5.22-.97-4.07-.1-4.54.68-3.29.87-3 1.26-2.52.87-3.38.38-7.65.97-8.9.97-6.58.97-46.05 3.58-13.06 1.93h-5.03l-2.42-.19-2.42-.49-1.83-1.35-1.84-2.61-.68-2.23-1.16-7.45-.87-7.93-2.42-38.99.29-4.16.87-3.48 1.16-2.42 1.26-2.13 1.65-1.94 6.57-5.12 4.84-4.65 1.45-2.03 1.26-2.71.68-2.9.67-4.84.1-3.48-2.42-29.22-.38-3.97-.88-3.48-.77-1.74-1.06-1.45-2.52-.97-3-.29-3.87.1-96.55 6.28.87 13.07 4.45 50.69 3.77 63.37-33.18 3.2-27.28 1.64-32.6 2.03 4.35 55.05 32.6-2.03 17.61-1.06 9.58-.58 34.25-.97 2.03 30.19 2.42 29.21 5.03 59.02 2.71 33.38 2.22 34.25 4.93 65.69 5.33 73.24 1.54 26.42-14.12 1.35-72.17 4.65-2.81.19-3.09.58-1.65.68 85.72 47.69-4.07-1.83-3.87-1.07-7.83-.87-8.13-.39-10.35 1.26-7.45 2.32-9.38 3.2-4.65.77-5.42-.58-5.61-.97-4.83-1.84-4.16-.67-8.81.58-18.96.77-16.64.58-32.41 2.61 4.06 38.61 15.1 6.96 21.38 8.81 30.95 11.32 6.58 2.61-.19 1.93 7.26 2.71 19.44 6 36.96 11.81 31.44 9.28 34.34 10.26 10.26-47.51 9.38-43.24 25.83 7.45 5.04 1.45 5.99 1.74 3 .87 1.65.58 1.06.48 1.16.78 1.26 1.16 1.26 1.64 1.16 2.23.87 3.48 5.42-3.19 5.32-3.58 4.26-2.81 51.27-6.96 48.86-11.42 7.74 4.94-5.71.87-6.68 2.22-3.96 5.13-5.71 15.58-1.16 4.16-.87 7.45-.39 8.22.58 11.13 1.45 14.8.97 11.51.87 5.42.48 5.32.1 6.39-2.42 8.61-4.26 10.25-4.16 6.39-6.28 4.84-5.13 3.38.58 13.26 1.45 9.48 1.35 6 .78 6.87 1.93 8.41 7.45 23.51 5.42 22.84 1.94 6.96 2.22 14.42.19 5.71-.29 8.22-.09 13.26 4.06 14.02 6.48 19.65 3.87 13.93 12.39 51.95 1.83 9.1 1.94 6.77 5.22 12.29 8.32 11.51 14.51 17.03 9.2 9.58 11.31 17.51 6.39 12.58 7.45 10.35 15.28 16.74 2.52 2.32-32.89 19.83-157.79 12-35.22 2.61-9.48.68-27.86 1.93-34.35 2.42-34.15 2.32-26.51 1.26-7.16.39-32.7 2.03-30.18 2.03-9.58.97-9.48 1.26-9.38 1.06-19.45 1.65-11.03.87-22.64 1.83-27.76 1.84-28.15 2.03-32.61 1.84-19.44 1.74-15.1 1.36-16.54.77-8.22.39-6.29.48-21.19 1.65-32.12 2.42-9.38.77-1.84.1-2.13.19-5.42.39-20.02 1.45-18 1.93-4.93.49-8.22.97-36.09 4.16-28.25 3.58-28.15 3.48-29.99 3.48-3.29.39-25.93 2.71-28.73 3.09-56.31 6.87-26.41 3.2-12.48 1.54-19.35 2.33-17.32 1.74-14.41 1.55-19.54 1.74-20.42 1.84-100.22 11.6-28.45 3.39-28.44 3.29-28.73 3.29-27.87 3.1-26.12 3-3.96.48-14.52 1.35-13.44 1.36-8.9.77-13.74 1.36-19.54 2.03-7.94.77z" stroke-linejoin="round"/></defs><use xlink:href="#d" fill="#09757a" stroke="#00465f" stroke-width="5.76"/></svg>