<svg width="4.31in" height="384" viewBox="0 0 3105 2880" xmlns="http://www.w3.org/2000/svg" xmlns:xlink="http://www.w3.org/1999/xlink"><path fill="#fff" d="M0 0h3105v2880H0z"/><defs><path id="a" d="M1986.62 1734.33l-.88 1.84-.87 1.75-1.16-1.85-.78-1.36-8.34-13.87-4.08-7.08-.68-1.07-.58-1.07-.78-1.16-.29-.68-.29-.39-1.75-3.01-.48-.77-2.43-4.08-.68-1.16-2.13-3.59-9.22-15.53-9.7-16.59-7.18-12.13-2.91-4.85-2.23-3.78-1.36-2.33-1.26-2.04-.3.78-.29.97-.77-1.46-11.65-19.5-7.27-12.51-3.69-6.31-3.79-6.21-3.49-6.02-2.52-4.36-.97-1.56-1.26-2.32-1.26-2.33-2.43-4.66-1.94-3.88-1.84-3.88-1.75-3.88-1.65-3.79-3.2-7.66-3.11-7.67-3.2-7.76-3.01-7.18-.19-.48-1.85-4.18-1.64-4.17-4.86-11.83.59-.2-2.43-6.11-14.46-34.64-3.98-9.61-27.16-65.97-14.07-33.57-4.95-12.42-2.43-5.14-25.32-61.03-18.54-44.63-20.96-50.75-3.97-9.51-.97-2.33-4.86-11.74-1.45-2.91-.87-2.71-4.95-11.84-1.56-4.27-.09-.19-.1-.2.97.2-.29-.49-.49-1.26-3-7.18-2.91-6.6-1.95-4.27-1.06-2.03-1.07-2.14-1.26-2.42-1.17-1.95-1.35-2.13-.39-.58-1.26-2.04-.88-1.36-.68-.87-.68-.87-3-3.98-1.36-1.85-2.43-2.81-2.42-2.72-2.62-2.81-2.04-1.94-4.85-4.85-36.49-36.1-4.85-4.75 1.85-2.04.58-.58 6.01-5.53 6.12-5.43 2.81-2.43 8.83-7.95 1.17-1.46.87-1.65 1.45-4.37 2.43-8.53.87-3.01 1.26-3.2.78.48.78.29.68-1.06 3.3-2.82 2.32-2.23 1.56-1.36 4.46-3.2 4.75-2.72.59-.48.97-1.75.77-1.65 1.85-2.71 3.78-4.76 2.04-2.52.19-.49v-.58l.29-.87 2.24-2.62 1.45-2.23.39-.97.29-1.17.19-3.59.2-2.04.29-1.16 1.07-3.01.19-.68v-.19l-.19-1.36-.2-.58 2.14.19 13.78 1.36 1.06-.1 4.27-1.65 7.86-2.32 1.75-.2 1.07.1 1.06.48 3.01 3.11 3.69 4.17 1.16.87.49.2 2.33.39 1.26-.2 18.24-7.76 3.78-1.75-1.84-2.62-7.66-7.85-5.73-6.02-5.53-5.82-.49-.87-.58-1.65-1.07-3.89-.87-2.52-.39-1.94 21.06 8.05 5.82 2.14 1.17.29 4.85.19 8.73-.19 15.72.19h1.16l.97-.19.59-.48.87-.98.29-.48.19-.78v-1.16l-2.03-9.51-4.47-19.79-.87-5.05-.1-.48 7.18-1.75 5.44-1.45 2.62-.78 2.03-.49 2.24 4.27 1.45 2.53 1.75 2.62 1.65 1.94.68.38 3.2 1.94 5.14 1.75 4.56 1.26 3.3.97 12.62-2.62 5.72-1.65 11.35-3.78 2.82-.87 3.68-1.26 3.11-.88 1.94-.68 17.27-5.53 7.28-2.71 1.26-.3 12.42 33.28 1.16 3.21 6.31 16.78 53.27-15.91 68.31-20.47.49.58.68.68.67.77.59.68.87 1.07.78.97 2.23 2.81.29.39.29.49.29.29 5.34 6.69.58.78.29.49.39.58.39.58.58.97.49.78.77.87.97 1.36.97 1.16.58.68.78 1.07.97 1.26 2.43 2.91.97 1.26.97 1.17.48.68.78.87.58.87.39.68.29.39.29.58.2.39 2.23-.78.68-.19.38-.1 1.46-.48 8.54-2.82 5.34-1.74 5.33-1.65 6.89-2.23.29-.2.58-.29.3-.19.19-.1.68-.58.48-.39 1.07 1.55 1.17 1.75.58.87 12.13 17.47 2.33 3.49.38.58 5.92 8.54 3.98 5.72 5.05 7.09 2.42 3.49.58-.49 3.3 4.66 2.91 4.37 3.01 4.27.58.87.49-.29 1.84-1.26 1.36-.88.49-.29.77-.48 3.59-2.14 4.56-2.81 2.43-1.55.19-.2h2.24l5.62-3.39 2.43-1.36 4.56 1.26 5.43.58 6.31.68 6.4-.77 3.3-.1.39-.1h1.55l3.11 1.26 5.04-2.52 2.92-2.13 2.52.87 2.91 5.04.58.39 3.01 1.94 1.65-.29 1.26.49 1.36-.29 3.59-5.05-1.26-6.6-1.75-9.02-1.75-2.14h-.09l-9.9-3.2-3.3-3.78-.58-3.01 3.2-2.52 4.85-2.62 4.17-3.59 1.75-3.98 2.62-2.81.97-.97 6.6-3.11-5.05-26.29-.68-5.24-.58-.97-2.42-13.68-4.37-18.15-.48-3.2-2.33-6.21-1.75-3.2 12.61-9.41-.09-.49-.59-1.16-.77-1.46-.39-.87-.39-.39-.48-.09-.2-.1v-.29l.59-.68v-.29l-.1-.58-.58-2.24-1.07-2.71-2.23-4.08-3.88-6.5-.78-1.26-2.72-3.69-.29-.38-3.2-4.08-6.11-7.66-.39-.49-2.33-3.4-.39-.58-1.55-3.01-.58-1.16-.78-1.07-1.94-2.42-2.33-2.91-1.07-1.36-1.74-1.46-2.04-1.45-2.52-2.04-3.11-2.13-3.2-2.62-5.05-4.37-7.18-3.2-1.16-.68-1.75-.68-1.45-.97-.68-1.07-1.17-1.26-.48-.78-.58-.87-.39-.48-.68-.49 1.07-2.04 1.26-1.74 8.63-5.15 18.63-10.67 5.44-2.33 2.42-.48 8.74-3.59 5.24-2.04 1.74-1.26 2.14-1.55.68-2.33v-2.33l1.26-1.26 4.56-4.56.87.48.97.78.39.58.1 1.36-.2.87.29 1.65.68 2.43.49 1.45.77 1.65 1.46 2.23 1.16 1.75.59 1.55 1.06 3.98 2.82 7.18 1.94 4.85 3.39 6.89.88 2.23 1.16 1.75 1.17 3.4 1.06 3.1.97 2.23.88 2.82.58 2.03 1.94 5.24 3.11 6.31.48 1.26 4.66 10.48.29.68.58.68 1.55 4.27 3.59 8.92.3 1.07.19.39.68 1.36.58 1.55.29.48.88.97.38.49.29.97.59 1.94.77 1.84.97 1.26.88 1.65.38 1.27.78 1.45.58 1.75.97 2.03 1.17 2.72.97 2.91.48 1.36 1.46 2.81.77 2.14 3.79 8.25.48.87 1.46 1.75.39.68.87 2.03 2.33 5.05.29.97 1.07 2.04.68 1.94.39 2.03.38 2.82.29 1.65.59 2.03 3.1 6.02 8.44 18.05 4.76 8.24 3.59 2.04 1.55.97.1.39.29.78.19 3.88-.39 2.71.3 2.91.77 2.24 2.14 2.23 1.84 1.16 1.46.39 1.35.1.97.87.39.87.2 1.85-.29 3.39-.2 1.75.29 1.94.78 1.94 1.65 3.01 1.84 5.92 1.55 2.91 4.57 6.89 1.94 3 .68 2.72 1.94 3.59 14.94 26.29 5.34 9.22 6.11 9.41 3.3 4.85 3.39 5.05 3.11 4.66 12.03 15.81 4.08 5.34 1.94 2.52.48.97.39 1.26.68 4.08 7.96 5.43 6.21 6.21 1.35 1.46 1.94 2.32 7.77 8.35 5.14 10.77 5.14-2.14 3.69-.19 4.07.49 3.79 1.26 2.62 1.06 5.63 2.24 11.35 4.56 10.48 3.59 2.81 1.74 1.65 2.33 1.07 1.84.68 2.14.19 2.13-.39 2.33-.77 1.65-.88 1.07-1.06.68-2.33.39-1.65-.39-1.65-.88-2.43-1.35-.97-.78-.48-.19-.39.19-.19.58.38 1.17 1.94 3.59 2.14 6.4 1.65 2.23.97 1.17.78 1.26 1.26 2.33 3.1 6.4.88 2.72.58 1.35.87 1.46 2.33 3.1.78 1.07.48 2.04.49 3.01.19 1.84-.1 1.46-.68 2.03-.09.88 1.06 6.01.88 3.69 4.36 12.03 2.33 7.57 1.17 3.1 2.03 11.65-.09 2.23-.58.97-.49 1.36v.58l.1.87.29.58.1.2.48.19h.87l.3.1.48.68.49.77.19.68.29 1.65.29.88.88 1.45.87 2.14 2.42 4.85.39 1.16.2 4.27.19.39.78.48.29.2.19.29.1.58-.1 1.17v.58l.1.87.19.78.29.77.49.88.97 1.36 2.23 3.39.29.49.1.68v1.16l.1.58 1.35 5.14.3.49 1.16.48.58.97 1.17 2.82.48.87 4.37 5.82.19.29.1.3.19 1.35v1.07l.1.78-.19 1.84-1.07.1-10.19.87-8.15-.19-7.37-6.21-7.38 3.2-11.16 2.62-6.01 1.45-4.76 1.07-4.07 5.82-1.17.49-4.27-5.63-2.13-2.52-.78-1.07-.68-1.26-.87-1.16-.78-.68-5.24-3.79-1.94-1.74-2.91-2.72-.77-1.07-.88-1.36-.39-1.06-.19-1.07v-.39l-.19-1.55-.2-.39-2.71-1.65-.3-.39-.38-1.06-.88-3.11-.19-.19-.29-.1-.78.1-1.65-.39-.58-.29-4.85-3.69-.2-.29-1.06-2.14-.39-.38-2.23-.78-2.04-1.75-.78-.68-.58-.19-.58-.1-5.14-1.35-.49-.39-2.72-4.08-.38-.29-.29-.1-5.73-.38-1.84-.39-3.4-1.46-1.07-.68-1.94-1.36-5.63-5.53-.38-.29-.39-.09-1.75-.29-.87-.2-.97-.68-.58-.58-2.33-3.59-5.34-4.27-.97-.68-.48-.58-.3-.58-.09-1.07-.1-.78-.39-.68-1.26-.87-.48-.48-.2-.49-.29-1.36-2.23-3.59-.29-.58-.68-1.94-.88-3.2-.19-.78-.39-.77-3.01-4.86-.87-1.06-1.55-1.46-.29-.39-1.36-2.62-1.16-1.94-3.6-5.04-.09-.39.29-.39.78-.58.09-.29-.09-.29-2.92-2.82-2.13-1.45-2.04-1.07-1.94-.68-2.72-.58h-2.52l-2.62.39-3.69 1.16-5.53 3.3-2.81 1.94-.29.29-1.94 1.94-1.26 1.56-1.07 1.65-2.04 4.36-.48 1.36-.39 1.26-.87 6.89.38 6.6.49 4.56v1.07l.19.97 1.94 6.4 1.85 4.95.29.68.09.58-.09.48-.49 1.56-.97 1.26-.09.19v.1l.09.1.1.19-9.32 1.75-5.04 1.06.87 3.4 11.06 21.05 3.88 8.25 12.81 23.68 8.35 12.03 4.17 15.81 4.08 7.38 2.32 5.43 4.56 5.43.49 2.52-4.17 7.96.68 1.17.09 3-.97.97-1.94 4.47-6.79 19.3-1.65 7.48-.68 5.53.39 4.26-7.86 6.41.97 2.72-.97 7.18.19 1.26-4.56.77-3.39.58.09-.67.1-.68.29-.78.2-.78.29-.77-5.34 1.36-24.16 2.42-.58-.87-1.55-2.91-.2-.2-5.63 5.92-4.85 2.43-3.39.68-1.26-.49-3.4 1.07-.58.1-.59-.29v.19l-.09.1h-.1l-3.1.68-2.24.38-4.75.88-.87.19-1.46.19-1.07.2-.97.19-1.06.2-1.07.19-.97.2-1.07.19-1.07.19-1.84.29h-.29l-6.02-1.16.39 2.33.39 2.13-.49.1-.58.1-1.84.39-3.4.77-1.65.29-2.23.39-1.36.19-1.45.1-.29.1-2.62.1h-1.56l-2.03-.2v.39l-9.9-1.65h-1.26l-.88-.19h-1.84l-4.27.58-3.88.68-2.04.29-.77.1-6.41 1.45-5.04 1.07-2.92.97-5.82 1.36-.97.19.2.68-1.36.39-8.93 2.33-1.65.39-1.36.29h-.48l-.58.09-1.46.1-1.45-.1h-.3l-1.06-.09-1.46-.2-1.36-.29-1.36-.39-1.35-.48-.39-.2-.39-.09-.68-.29-.39-.2-.87-.29-.49-.29-.68-.19-.67 1.06-3.11 4.85-4.17 6.6-.68.97-4.56 7.18-1.17 1.65-2.52 4.08-2.91 4.36-5.14 7.67-1.07 1.55-.87 1.07-.78 1.06-.87 1.07-.68.68-.49.68-.68.68-1.16 1.16-.87.88-1.17 1.16-2.04 1.84-2.03 1.95-2.04 1.94-3.01 2.91-2.33 2.23-.68.58-.58.58-.68.68-.29.39-.58.48-.58.68-.88 1.07-.77.78-.78 1.06-.97 1.27-.68.87-.78 1.07-.67 1.26-.88 1.26-.58 1.07-.58.97.58.29-1.36 2.42-1.84 3.59-4.17 9.61-3.59 7.28-4.57 10.28-4.26 8.83-7.18 14.75-.49-.39-.97 1.94-4.66 9.8-1.65 3.59-3.1 6.69-3.2 6.7-3.3 6.89-1.75 3.78-5.53 11.74-5.53 11.84-1.85 3.88-1.74 3.59-4.66 10.28-2.72 5.63-2.03 4.37-2.43 5.14-1.36 3.01-1.74 3.68-1.46 3.11-1.55 3.59-2.04 4.46-2.81 6.6-8.25 17.56-.2.58-1.45 3.01-.58 1.07-.49.97-1.26 2.72-1.26 2.81-1.07 2.23-.29.68-2.43 4.95-1.16 2.42-1.55 3.21-3.2 6.98-5.63 12.42-.88 2.14-1.74 3.59z" stroke-linejoin="round"/></defs><use xlink:href="#a" fill="#9dc8ca" stroke="#9dd7f0" stroke-width="5.76"/><defs><path id="b" d="M2681.46 2851.57l-.68.2h-.19l-.59-2.14-1.55-7.08-.29-1.26-1.36-6.89-.58-2.23-.68-3.11-.19-.68-.78-3.88-.97-4.56-.87-3.98-.1-.58-.29-1.55-.2-.49-.19-.77-1.07-5.05-.97-4.46-.58-2.33-.39-1.94-1.74-8.44-.39-2.04-.2-.68-.97-4.36.49-.1h.48l-.77-3.98-.39-1.55-.1-.58 8.54 3.88 10.09 4.65.2.1 1.16.58 3.49 1.85.39.19.68.39-1.07-1.26-1.45-1.17-1.56-.97-2.61-1.65-1.95-1.16-1.65-1.16-1.55-1.17-1.45-1.16-2.14-1.85-3.39-3.1-2.14-1.75-1.65-1.36-.97-.68-.77-.58-.39-.29-.39-.1-.29-.09-.29-.2-.29-.09-.1-.1-.58-.78-.29-1.06-.3-.97-.48-1.56-.78-2.03-.19-.78-.29-.68-1.75-4.08-.87.39 1.74 4.18.1 1.45.1.58v.29l-.1.29-.1.59-.19.58-.19.58-.39.39-.39.48-.39.3-.48.29-.49.29-.58.19h-.49l-.77.1h-.68l-2.04-.58-3.01-.68-3.49-.97-.68-.29-.58-.2-.97-.39-.2-.09-.77-.29-4.95-2.33-4.27-1.94-1.55-.68-1.07-.29-.97-.29.1.58 6.21 3.3 1.36.58-.1.39-8.15-4.18-67.54-33.08-3.59-1.75-1.55-.77-50.16-24.94-9.8-5.34-6.5-4.17-11.36-8.73-9.41-9.22-9.02-10.96-2.04-2.81-7.67-12.33-9.12-17.36-10.57-21.64-1.27-2.04-1.64-2.91-.78-2.52-.97-.88-4.95-10.77-9.12-17.27-1.55-3.1-3.4-7.08-1.45-2.14-1.27-3.3-5.62-11.15-.39-1.07-2.33-4.27-2.23-4.56-1.07-1.94-1.46-3.01-2.71-5.43-1.65-3.3-2.23-4.66-3.4-6.6-18.24-35.8-1.55-3.59-.49-.48-21.44-42.4-24.26-47.74-2.72-5.53-32.31-63.84-14.55-28.92-1.27-2.42-1.55-2.91-6.11-12.81-2.91-5.53-7.18-14.36-.2-.1-.09-.29-5.34-10.38-6.4-12.81-.97-1.74-14.27-28.72-14.46-28.24-12.22-24.74-21.25-41.82-30.18-60.06-22.12-43.37-3.11-6.69-20.28-39.78-18.72-37.16-.2 1.07-20.47-40.56-3.69-7.28-3.1-6.11-.68-1.36-2.91-5.63-.59-1.06-1.45-2.62-3.01-5.34-3.1-5.24-3.88-6.6-14.46-24.45-1.26-2.23-7.86-13.29-3.98-6.6-1.75-3.01-1.65-2.91-.48-.77-.68-1.07-.39-.68-1.36-2.23-.68-1.17-3.39-5.62-.78-1.27-.19-.38-.3-.59-.58-1.06-1.06-1.94-1.46-2.43-1.55-2.72-2.33-3.88-2.91-5.04-1.07-1.85-.29-.38-.19-.39.38-.78.39-.77.87-1.75.88-1.84 1.74-3.59.88-2.14 5.63-12.42 3.2-6.98 1.55-3.21 1.16-2.42 2.43-4.95.29-.68 1.07-2.23 1.26-2.81 1.26-2.72.49-.97.58-1.07 1.45-3.01.2-.58 8.25-17.56 2.81-6.6 2.04-4.46 1.55-3.59 1.46-3.11 1.74-3.68 1.36-3.01 2.43-5.14 2.03-4.37 2.72-5.63 4.66-10.28 1.74-3.59 1.85-3.88 5.53-11.84 5.53-11.74 1.75-3.78 3.3-6.89 3.2-6.7 3.1-6.69 1.65-3.59 4.66-9.8.97-1.94.49.39 7.18-14.75 4.26-8.83 4.57-10.28 3.59-7.28 4.17-9.61 1.84-3.59 1.36-2.42-.58-.29.58-.97.58-1.07.88-1.26.67-1.26.78-1.07.68-.87.97-1.27.78-1.06.77-.78.88-1.07.58-.68.58-.48.29-.39.68-.68.58-.58.68-.58 2.33-2.23 3.01-2.91 2.04-1.94 2.03-1.95 2.04-1.84 1.17-1.16.87-.88 1.16-1.16.68-.68.49-.68.68-.68.87-1.07.78-1.06.87-1.07 1.07-1.55 5.14-7.67 2.91-4.36 2.52-4.08 1.17-1.65 4.56-7.18.68-.97 4.17-6.6 3.11-4.85.67-1.06.68.19.49.29.87.29.39.2.68.29.39.09.39.2 1.35.48 1.36.39 1.36.29 1.46.2 1.06.09h.3l1.45.1 1.46-.1.58-.09h.48l1.36-.29 1.65-.39 8.93-2.33 1.36-.39-.2-.68.97-.19 5.82-1.36 2.92-.97 5.04-1.07 6.41-1.45.77-.1 2.04-.29 3.88-.68 4.27-.58h1.84l.88.19h1.26l9.9 1.65v-.39l2.03.2h1.56l2.62-.1.29-.1 1.45-.1 1.36-.19 2.23-.39 1.65-.29 3.4-.77 1.84-.39.58-.1.49-.1-.39-2.13-.39-2.33 6.02 1.16h.29l1.84-.29 1.07-.19 1.07-.19.97-.2 1.07-.19 1.06-.2.97-.19 1.07-.2 1.46-.19.87-.19 4.75-.88 2.24-.38 3.1-.68h.1l.09-.1v-.19l.59.29.58-.1 3.4-1.07 1.26.49 3.39-.68 4.85-2.43 5.63-5.92.2.2 1.55 2.91.58.87 24.16-2.42 5.34-1.36-.29.77-.2.78-.29.78-.1.68-.09.67 3.39-.58 4.56-.77-.97 3.2-2.42 10.96.87 13.59-.48 2.42.19 10.48 1.46 18.63 1.84 11.25 4.85 10.19v1.17l1.65 3.29 6.21 8.54 20.28 27.27 11.84 22.51 7.76 19.89 1.84 3.88-.29 2.42 2.23 7.38 3.3 14.26.49 4.46.1 4.66.29 2.81-.59 2.82.1 4.85.39 1.55.29 1.55-.97 12.04.29 7.37.88 4.75.09.2 2.33 5.62.87 1.95 3.5 6.5 10.19 12.61 11.74 17.37.48.68 9.61 2.42 5.33 2.23 2.33 3.69 8.93 5.43 2.13 3.01 7.96 14.65 4.46 8.83 3.98 10.29 3.01 6.01 10.38 14.65 1.17 6.6 14.26 13.39 7.18 4.27 3.3.68 5.92.39 4.27-.49 3.88.2 10.19 1.64 6.79 2.62 6.5 7.48 3.11 2.03 3.88 2.04 1.65 1.46 3.98 3 9.7 6.41 11.35 9.12 3.59 5.82-2.23 18.05 1.36 1.94 7.57 10.47 1.45 3.5 2.23 8.24 1.56 14.56-3.01 39.1.29 2.13.39 3.69 2.62 7.86 4.85 5.92 15.52 14.55 10 8.54 10.38 7.67 5.63 6.11 13.97 12.51 14.56 10.97 1.45 1.26 5.05 4.27 2.33 2.33 10.18 7.66 1.56 1.17 3.68 3.3 4.86 6.21 5.14 8.15.87 1.64 2.04 3.79.1.1-1.94 3.1-.98 1.65-6.59 10.58-4.37 7.08 2.81 2.04 1.27-.2 1.65.29 1.74.68.1.2.1.48-.2.49-.87.58-1.17.58-1.35.2-.97.77-.98 1.65-.48 1.75-.1 1.55.1 1.16v.68l-.87.59h-.88l-1.06-.2-.78.1-.39.19-.29.88.19 1.06.49.58.78.88 1.55.58 2.33 1.36.68.19h2.81l1.16.29 1.07.68.97.88.49.87.29.78.29.97.39 1.35 1.07 2.33.87.78.58.78.29.67-.1.88 37.75 19.11.19.29.78 1.56.97 1.16 3.01 3.3 1.84 1.84.1.1 1.16.58.78.2h1.26l.97-.49-1.45 2.23-1.85.49-.87.48-.87 1.46-.88 1.45-.39.88-.19 1.35v1.65l.58 1.85 1.36 1.74 1.36.88.68.09h1.36l1.36-.38 1.35-.97.68-.2 1.07.1 1.26-.2.78-.58.1-.39.09-.38.1-.3 2.91 13.78-.97-.29-.68.1-.48.29-.78.78-1.17 1.74-.97 1.85-.29.87.1.97.19.87.68.97.29.2.3.09h.19l.29.2.1.29.1.58v.58l.19.29.29.1.49.1.29.19.29.39.19 1.46-.1.67.2 1.27.39 1.35.68 1.27.97 1.06 1.35 1.07 2.33 1.36 1.94.29 1.75-.19.49-.1h.09l1.46-.68.39-.58.09-.78 16.69 19.41 1.46.68.77.67.1.1.49.58 2.62 2.91 1.55 2.33 2.04 2.72 1.94 2.62.77 1.26.59 2.04.68 3.3.58 1.94.48 1.74.29 2.43.2 2.81-.29 2.91-1.85 9.51-.39 1.56-1.26 5.53-.38 2.03-.2.49-.19.39-.2.19-.19.1-.1 5.72.29.2.29.58.1.68-.1.87-1.94 6.99-.38 1.84-1.07 5.05-2.33 6.88-1.07 4.66 5.05 43.86.29.48 1.65 3.4.39.58.97 1.36.38.29.68.39 2.53 1.84 1.06.87.68.78 3.11 4.46 5.04 7.77 3.79 3.68 1.36 1.55 1.36 2.24 1.16 3.3 1.36 5.43.77 3.69 2.92 7.27 7.47 18.73.87 2.62 1.75 3.78 1.45 2.82.88 1.06.97.97 11.45 11.36 7.08 6.01 6.69 6.6 1.65 1.74 3.4 3.69 11.93 11.45 12.04 11.55 11.35 11.93 10.87 11.94 4.36 5.43.29.19.68.2.49-.1 1.16 1.45-6.4 6.21 6.01-2.71-1.74 3.1-2.91.88-1.65.38-8.54-2.42.68.87 1.65 1.36 3.68 1.65 6.21 3.59 5.05 3.01 1.75 1.36 3.39 3.1 2.04 2.23 6.79 9.41.68 1.07 3.69 6.31 4.75 6.11 4.27 5.82 11.16 13.68 3.69 4.47 2.42 3 1.27 1.46 6.01 6.3 3.11 5.44.38 1.26.2.48 2.81 8.93.58 1.75.68 4.85.97 5.43.68 3.01 2.43 7.66.78 3.98 1.74 7.38 1.36 3.59 1.75 3.39.87 2.82.49 2.23 1.26 5.53.87 2.62.87 2.62 1.17 2.23 2.71 4.85 8.64 10.67 2.91 3.79 2.91 4.07 1.26 2.53 3.69 7.47.68 1.16 2.33 3.88 1.07 1.26 1.45 1.36.39.2.19.29-10.38 1.74-4.17.68-15.72 2.72-14.65 2.52-.58 4.17-1.56 5.05v4.75l-.87 6.79-2.52 4.18-3.69 7.08-1.45 5.53-2.24 9.12-6.3 7.67-7.57 3.97-12.52 1.46-12.61 4.17-10 6.31-3.3 2.71-11.25 10.97-14.75 8.05-6.99 3.01-4.46-.87-2.91-4.18-4.27-5.91-4.46-6.31-1.56-1.94h-.09l-2.82-1.17-1.55-.48-.58.29-4.08 2.33-3.68 3.3-2.82 2.91-3.3.87-3.39-2.62-2.62-2.91-4.56-6.89-5.63-.97-2.82-.68-1.65-.48-3.59-.78-1.84-1.65-1.16-1.07-1.07-4.94 1.16-3.98-.29-2.62-.09-.97-.49-2.82-.19-1.06-1.94-2.72-.97-.58-.39-.2-2.82-1.65-2.71-1.55-4.86-3.01-2.23-1.06-.68.09-2.03.39-4.27.29-3.21 3.79-.97 3.49.1 2.33.1 4.37.19 3.78-1.74 1.55-.97 1.26-2.14 2.62-1.36.97-2.13 1.46-2.82 1.26-3.78 1.75-.58 4.75-.29 1.84-.39 2.24-.29.29-.29.19-1.85 1.26-1.94-.29-.29-.1-2.04.2-2.03.97-1.95 2.04-1.84 2.42-.58.78-.39 1.06-.19.78.19.87.29 1.07.58 1.17 1.27 1.26.77 1.55.2.78v.87l-.2.87-.39.58-2.62 1.56-1.26 1.06-.39.97-.09 1.17v1.45l.29 2.43.19 3.49-.19.49-.29.39-.88.67-.68.2-.77.19-1.65-.29-7.28-3.39-1.26-.49-1.07-.39h-1.65l-.87.39-.48.58-.49.78-.29.58-.1 1.07-.1 1.26.39 1.84.49 1.65.58 1.75 1.94 4.37 1.75 3 1.16 1.94.88 1.07.48.19.68.2.87.1 1.46-.2h1.16l1.26.29 1.65.49.97.48.97.88.97 1.35.49 1.36.1 1.17-.2.97-.68 1.06-.97 1.07-1.36.78-1.94.48-1.84-.09-2.43-.88-5.33-4.94-1.36-1.56-.58-.68-.78-.68-.97-.67-1.26-.2-1.36.29-1.36.68-1.36.97-.87 1.07-.39.97-.29 1.36.1 1.55.58 1.84.97 1.46.97 1.26 1.85 1.26 2.03.97 2.04.68 1.36.78.87.68.49.68.29.77v.68l-.29.78-.68.58-2.52 1.45-3.11-.58-30.86-5.82-3-2.13-1.85-.88-36.48 21.15.19.88.2.68.87 3.68.87 4.37.78 3.78.29.97 1.46 6.5.58 2.72z" stroke-linejoin="round"/></defs><use xlink:href="#b" fill="#9dc8ca" stroke="#9dd7f0" stroke-width="5.76"/><defs><path id="c" d="M1244.62 2311.24l.49 4.56-11.94-5.63-3.98-1.94-11.25-5.43-6.7-3.98-2.91-2.23-11.35-6.5-21.45-14.27-21.54-15.81-6.79-5.82-1.07-1.94-.97-2.62-.19-.68-2.23-4.85-4.47-14.95-6.21-16.49-5.43-10.48-5.82-8.63-6.02-7.47-8.92-9.32-10.19-9.12-21.25-16.4-14.95-11.74-19.01-14.16-21.06-16.11-16.2-14.36-9.32-11.93-8.73-13.59-7.08-12.12-13.1-23.1-21.93-42.88-24.16-49.97-31.44-65.98-20.18-42.11-6.12-12.03-3.98-6.79-3.68-6.3-8.83-14.85-7.86-12.9-.2-.39-9.31-15.53-14.07-23.19-9.9-16.68-12.22-19.99-12.81-21.15-20.38-33.18-15.52-25.33-12.72-21.44-10.67-17.56-18.73-45.6-36.67-87.72-18.05-51.32-13.78-45.8-4.56-26.97-.19-25.91 3.88-38.71 4.27-20.37 13.19-63.85 4.08-22.7.1-14.65-.78-12.03-8.15-36.58-12.81-45.7-11.55-23.09-20.66-33.19-11.74-17.07-3.01-4.27-20.48-22.9-7.27-6.11-.39-.39-14.27-12.13-36.48-26.87-10.96-6.8-24.16-14.94-13.98-6.01-8.05-3.88-12.52-6.12-11.45-5.62-.97-.49-9.7-4.75-50.26-24.55-3.5-1.75-48.12-23.38-48.03-23.38-1.94-.97-33.48-16.3-22.9-11.06-49.97-27.66-36.58-28.81-1.75-1.36-25.71-31.05L74.52 636l-11.35-27.07-6.99-22.9-4.07-15.72-4.56-17.95-3.69-16.2-1.17-9.12-.68-5.24-3.49-21.83-3.69-34.93-4.07-37.64-.39-2.53 8.15-.77 51.53-7.86 46.38-10.97.97-.29 3.78-.87h1.07l3.59 1.75.68-.2.48-.09.2-.2.29-.19.39-.2h.58l.48.2.49.19.19.1.2.19.19.2.19.09h.49l.48-.09.3 1.06.68 2.33 1.16 3.5.97 3.59 1.16 3.78.88 2.81.58 2.14.87 2.81.97 3.2.68 2.14.29 1.16.39 1.17 2.43 8.15 1.45 4.85 1.17 3.78 1.45 4.85.58 1.85.78 2.42.39 1.55 1.36 4.86.29.77.39 1.26.09.78.2.87.19 1.46.1.68.19 1.26.1.48.1.78.09 1.65.1 1.45.1 2.24v3.49l-.2 3.88-.09 3.01-.2 4.75v.39l-.09 1.75-.1 1.74-.1 2.14-.09 3.1-.1 2.33.1.58v.97l.09 1.17.1.97.1.68.09.58.1.68.19.58.2.87.29 1.36.19.68.29.97.2.49.48 1.36.39.87.58.97.78 1.45.19.39.3.49.77 1.06.68.88.68.87.87 1.17.49.38.58.59.78.67.87.78.87.68.97.68.39.29 1.17.68.77.39.78.39.97.48.78.29.77.39.78.19.58.3.68.09 1.26.29 1.46.2 1.45.19 1.85.1 2.32-.1 3.11-.39 3.2-.48 3.49-.49 3.89-.58 9.6-1.26 1.55-.19 1.46-.2 5.63-.77 6.98-.97 4.86-.68 6.01-.88 1.94-.19 1.65-.1h3.98l.97.1 1.55.1 1.94.29 1.85.29 1.65.29.29.1 1.84.48 1.84.49 1.85.68 1.84.67 1.85.68 1.74.88 1.75.87.48.29 1.17.68 1.65 1.07 7.27 5.24 7.19 5.33 4.17 3.01.87.68.97.78 1.65 1.26 1.55 1.16 1.46.97 1.36.97 1.74 1.36 1.56 1.26 1.26 1.17.87.87.68.78.68.77.87 1.07.78 1.16.77 1.27.68 1.26.59 1.35.58 1.36.48 1.36.49 1.36.39 1.36.19 1.45.29 1.46.1 1.55.1 1.65v1.84l-.2 1.94-.19 2.04-.2 2.72-.19 1.16-.19 2.91-.2 1.85.1 1.55.1 1.36.09 1.36.29 1.45v.2l.29 1.26.3 1.45.48 1.36.49 1.36.58 1.36.58 1.36.68 1.26.78 1.26.77 1.16.88 1.17.97 1.06.97 1.07 1.06.97 1.07.97 1.17.88.29.19.87.58 1.16.78 1.27.68 1.26.58.97.39.48.19 7.18 2.52 3.2 1.17.39.1 6.99 2.42 4.07 1.46 8.83 3.1 2.14.78 10.96 3.88 2.72.97 1.26.39 1.55.58 6.99 2.52 26.01 9.12 2.03.58 6.31 2.43 7.67 2.52 6.98 2.53 2.82.97 4.85 1.84 3.39 1.26 4.66 1.75 3.4 1.36 1.26.58 3.49 1.45 1.07.39 2.13.87 2.14.97 1.07.49 2.03.97 1.17.58 1.16.49.97.48 1.26.68 1.85.87 2.42 1.17.78.39 2.33 1.06 4.36 2.14 1.65.68 2.14 1.07.39.19 2.03.97 2.04.97-3.2 6.79-2.43 4.17-1.06 2.24.58.38.58.78.29.68.29.39.59.19.48.29.58.78.2.19h.09l.59-1.07.48-.87.29-.58 5.14-12.61.39-.97 6.8-16.98 1.35-3.21 1.07-2.61.58-1.27.49-.87.48-1.07.78-1.16.39-.68.48-.68 1.07-1.55 1.07-1.46 1.16-1.45 1.17-1.26 1.26-1.36 1.26-1.17 1.36-1.16 1.36-1.07 1.45-1.07 1.46-.97 1.55-.87 1.65-.78.48-.29.1-.09v-.1l.1-.29.29-.39.29-.48.68-.97.97-1.65.97-1.65.78-1.17.38-.68.3-.39.09-.38.97-1.46 1.26-2.04 6.12-9.99 6.4-10.58 3.2-5.23 2.14-3.5 2.23-3.59 2.33-3.88 2.13-3.39 1.07-1.85.49-.77.87-1.46 2.13-3.49 3.5-5.92.87-1.55.87-1.94 1.17-2.62 11.25-26.88 5.63-13.39 2.91-6.69 2.82-6.7.19-.48 1.16.58 2.24 1.16 1.74.88 2.23.67 2.04.78 13.78 7.08 4.56 2.14 4.76 2.52 2.03.87 4.08 1.27 5.43 1.65 2.33.67.87.3.3.09 6.98 3.88 14.36 7.47.97.3 1.36.29.49.09h.87l2.62-.09 1.07-.1h2.23l1.94-.1L680 548l2.91-.29h2.23l1.26.19 3.98.68 8.63 1.55h.49l2.33.49 1.65.29.68.19.68.29.97.49 1.26.58.29.1.19.1.49.29.87.38 1.36.78.77.58 1.95 1.17 2.32 1.45 2.33 1.46.78.58.97.97 7.67 9.02 1.94 2.33.38.29.88.78 1.36 1.16 1.26.88 1.36.68 1.64.97.59.19 1.55.87 2.04 1.07 2.13 1.07.78.48 1.55.88.58.29.2.1h.09l.3.09h.29l-5.15-24.45-2.13-10.86.19-2.72-.68-.97-.29-.58-1.26-5.24-14.07-68.31-9.99-48.41-3.69-19.6-1.75-9.22-1.35-.68-3.59-1.75-3.5-2.91 1.26.1 2.33.1h3.11l.58-.1 1.36-.19 2.04-.39 1.06-.29 1.94-.39 1.85-.39 1.36-.39 3.39-.68 2.43-.58 2.62-.68 3.01-.68 5.04-1.26 7.47-1.75 1.26-.29 7.18-1.74 2.14-.49 7.57-1.84 3.59-.88 2.71-.58 5.15-1.26.87-.29.78-.39.58-.29.77-.48.49-.49.48-.48.59-.68.19-.29 1.26-1.75 1.85-2.52 1.45-1.94 13.59-18.63 7.47-10.19 5.72-7.76 11.84-16.21 1.16-1.55.88-1.07.39-.48.58-.49.39-.09.29-.1 1.26-.87.68-.49 1.16-.68.88-.39.97-.48.97-.49 4.65-2.13 3.21-1.46 1.55-.77 4.56-2.33 1.55-.78.68-.29 3.59-1.84 3.88-1.94h.1l2.52-1.26 5.82-3.01 1.65-.87 7.77-3.88 3.2-1.75.77-.39 2.04-1.07 12.13-6.21 6.5-3.3 3.79-1.74 4.17-1.85 1.55-.67 1.07-.3 1.36-.38.58-.39 10.96-2.23 6.5-1.07 9.8-1.46.39-.29.49.2 3.2-.68 3.98-.49 5.53-1.26 3.59-.58 3.2-.29 10.09-1.94 7.67-.88 5.33-1.26 9.51-1.26 10.77-1.65 4.56-.39 5.83-1.45 2.62-1.07 4.27-2.04 2.62-1.45 2.52-1.75 2.52-2.23 6.99-6.89.68-.58v-.1l8.15-7.37 2.23-2.33 2.62-2.52 11.25-10 2.53-1.84 1.16-.58 3.79-1.85 1.26-.48 1.84-.58 1.65-.39 4.56-.78 4.46-1.06.49-.1.29.58 5.92 28.62 1.84 9.9 7.67 36.38 10.48 48.61 1.94 6.5.19.49 2.14 6.69 5.62 12.33 5.15 9.12 39.2 57.24 12.22 17.85 43.38 62.49 9.89 14.26 38.43 55.79 33.47 48.71 6.6 8.73.88 1.26 16.49 23.97 8.15 12.03 6.5 9.31 1.56 1.65 10.38 15.53 8.83 12.8 3.01 4.37.58.78.58-.39.29.48.29.29 1.65 2.43 17.95 25.91.97 1.64 1.26 1.75 3.01 4.27 2.91 4.27 5.15 7.37 9.89 14.36 26.59 38.33-.39.58 26.68 38.81 16.5 24.16 15.53 21.83 6.79 10.28 5.72 7.18 2.23 2.62 9.51 10.87 26.88 26.68 18.82 18.63 12.13 11.84 13.49 12.9 47.93 47.55.39-.49 4.85 4.75 36.49 36.1 4.85 4.85 2.04 1.94 2.62 2.81 2.42 2.72 2.43 2.81 1.36 1.85 3 3.98.68.87.68.87.88 1.36 1.26 2.04.39.58 1.35 2.13 1.17 1.95 1.26 2.42 1.07 2.14 1.06 2.03 1.95 4.27 2.91 6.6 3 7.18.49 1.26.29.49-.97-.2.1.2.09.19 1.56 4.27 4.95 11.84.87 2.71 1.45 2.91 4.86 11.74.97 2.33 3.97 9.51 20.96 50.75 18.54 44.63 25.32 61.03 2.43 5.14 4.95 12.42 14.07 33.57 27.16 65.97 3.98 9.61 14.46 34.64 2.43 6.11-.59.2-2.42.67-1.36.39-7.57 2.23-4.66 1.27-5.33 1.45-3.01.97-23.39 6.7-11.74 3.39-11.64 3.4-2.52.68-1.46.48-5.04 1.46-4.56 1.36-.78.19-.68.19-2.72.78-1.65.48-2.91.88-2.13.68-9.22 2.62-5.82 1.65-1.65.48-2.23.68-1.36.39-1.26.39-4.85 1.36-2.82.77-9.9 3.01-3.88 1.16-3.39.97-4.85 1.36-4.86 1.46-8.63 2.42-8.64 2.43-13 3.3-4.46 1.16-8.74 2.23-4.36 1.17-4.37 1.07-8.63 2.23-4.37 1.16-4.37 1.17-3.98.97-1.06.29-42.11 10.86-42.12 10.68-1.84.58-7.47 1.94-7.96 2.04-7.86 2.13-4.36 1.17-1.07.29-3.4 1.06-6.21 1.94-7.47 2.43-7.08 2.33-23.39 7.76-4.56 1.46-7.86 2.62-24.35 8.05-8.83 2.81-28.33 9.03-4.95 1.84-7.18 2.33-7.86 2.42-6.89 2.14-6.6 2.04-12.13 3.88-3.3.97-9.6 3-2.53.78-1.94.39-2.13.39-2.53.38-3.78.59h-.58l-10.87 1.74-7.76 1.07-7.47 1.17.19.87 2.14 12.22 3.2 17.76.29 1.84.1 1.36.09 1.26v.78l-.09.77v.78l-.2 3.59-.19 3.59-.39 6.6-.29 5.14-.2 3.01-.09 2.33-.2 2.81-.38 6.31-.1 3.49-.1 1.16-.58 9.8-.1.1-.1 1.75v3.1l.1 1.36.1 1.07h-4.66l-2.13-.29-1.46-.1-1.36.19-1.65.59-1.55.58-1.55.87-1.17 1.17-1.45 1.65-2.14 3.1-2.32 5.63.97 5.14-.39.58-.68.97-.29.58-.29.88.38 5.92.3 6.4.19 3.01.19 2.04.97 15.62.39 6.59.39 4.76.68 12.9.48 6.41.68 10.38.39 7.86v1.06l.29 3.3.88 14.75.29 5.34.29 3.59-.1 1.55-.19.78-.2.48-.29.39-3.3 2.81-11.54 10.87-4.66 4.27-15.62 14.84-19.8 20.28-1.07 1.26-.58.68-1.94 2.04-1.07.49h-.29l-.77.09-1.07-.09-.87-.3-2.33-2.03-.88-.49-1.16.1-.87-.1-.78-.39-3.3-2.62-1.36-.29-1.06.1-1.85.48-1.74.98-2.24 1.94-3.78 3.97-3.01 1.75-2.42.87-2.82.59-2.04.29-2.32.58-2.14 1.07-8.54 2.03-1.16 1.94-.58 1.27-.3.97-.09.58v.58l.77 6.31.49 3.97.1.3.38 1.74.49 1.17.58 1.16 1.17 1.65 1.74 2.23 1.46 1.46 1.94 1.84 1.07 1.36.97 1.26 1.26 2.04.58.87.39.97.48 1.17v3.1l-.29 1.75-.68 2.81-.48 1.46-2.72 8.44-.58 3.59v8.83l-.2 5.14-.09 1.07.09 1.16.39 1.65.1 1.07-.19 1.55-1.27 5.43-.97 2.82-.48.77-1.36 1.56-2.52 3.29-.39.78-.49 1.26-.29 1.65-.09.39-.68 1.45-.78.97-1.16 1.27-.39.48-.29.68-.29.78-1.07-.1-1.94-.19-2.72-.2-2.62-.19-2.72-.2-2.52-.29-1.36-.09-1.06-.1h-.49l-2.62-.29-2.13-.1-1.75-.19-1.26-.1-1.46-.1-1.84-.19-6.89-.58-4.08-.3-9.12-.87-1.35-.1h-.39l-.59-.09-11.25-.88-9.12-.67-7.57-.68-2.13-.2-11.16-.87-1.26-.2-1.27-.29-1.16-.29-1.17-.39-1.06-.48-1.17-.49-1.06-.58-.59-.39-.48-.29-.58-.48-1.07-.78-.97-.87-.87-.97-.88-.97-.87-1.07-.68-1.07-.68-1.06-.68-1.17-.58-1.45-.58-1.65-1.94-5.63-.97-3.01-.88-2.91-.77-3.01-.78-3-.68-3.01-.48-2.91-1.85-12.13-1.94.48.2.88.48 4.46.29 1.65 2.14 12.9.87 4.27 1.55 3.01.88 2.23.67 2.33.1 1.07.58 1.74.68 4.56.68 6.99.49 1.46.97 2.71.87 1.26.78.39.97.39.97.19h2.62l2.23-.48.97-.19 1.07-.1 2.71-.2 2.14.3 8.73 1.64 2.43.88 1.74.48 2.33.29h3.3l1.65-.09 2.91.19 1.26.19 1.17.2 1.16.19 1.75.1h3.01l2.33-.19 5.53-.68 1.94-.2 2.03.1 6.7 1.16 4.27 1.17 3.2 1.55 3.69 1.84 3.98 2.72 2.13 1.65 2.72 2.52 3.59 2.62 2.72 1.65 2.52 1.26 6.5 2.91.29.68.39.49.48.39.68.09h.39l1.26 3.69 1.94 7.28.59 1.94.67 1.26 3.98 6.5 3.5 4.27 1.94 1.55 10.48 6.11 10.28 8.06 3.69 3.01 11.64 7.66 3.3 2.13 4.17 3.79 4.08 3.98 1.94 3.2 1.07 2.23 2.42 4.46 1.65 3.98.1.2 1.36 5.23 1.26 6.99.78 4.17.38 1.55 1.26 1.56.59 1.65.77 4.95.97 3 1.27 2.14.29.58 2.03 3.88 1.94 5.24 6.02 12.13.29.39.29.87.29.87.1.78v1.36l-.1 2.03-.29 1.95-.19 1.26.19 1.45.68.78.2.58v.58l-.2.78-.68.48-.29 1.07v.87l.1.49.39 1.07 1.06 1.84.2.68.29 1.75.19 2.42 1.56 6.31.77 3.88.58 4.56-1.74 6.5-2.62 5.43-2.33 6.5-1.84 2.72-5.05 4.46-5.24 6.21-6.21 6.5-2.52 3.79-1.26 2.91-1.27 4.46.59 2.33 1.35 4.08 3.6 2.62 8.34 6.11z" stroke-linejoin="round"/></defs><use xlink:href="#c" fill="#6bacaf" stroke="#6bb4d2" stroke-width="5.76"/><defs><path id="d" d="M2227.74 971.42l-1.26-.49-1.65.29-3.01-1.94-.58-.39-2.91-5.04-2.52-.87-2.92 2.13-5.04 2.52-3.11-1.26h-1.55l-.39.1-3.3.1-6.4.77-6.31-.68-5.43-.58-4.56-1.26-2.43 1.36-5.62 3.39h-2.24l-.19.2-2.43 1.55-4.56 2.81-3.59 2.14-.77.48-.49.29-1.36.88-1.84 1.26-.49.29-.58-.87-3.01-4.27-2.91-4.37-3.3-4.66-.58.49-2.42-3.49-5.05-7.09-3.98-5.72-5.92-8.54-.38-.58-2.33-3.49-12.13-17.47-.58-.87-1.17-1.75-1.07-1.55-.48.39-.68.58-.19.1-.3.19-.58.29-.29.2-6.89 2.23-5.33 1.65-5.34 1.74-8.54 2.82-1.46.48-.38.1-.68.19-2.23.78-.2-.39-.29-.58-.29-.39-.39-.68-.58-.87-.78-.87-.48-.68-.97-1.17-.97-1.26-2.43-2.91-.97-1.26-.78-1.07-.58-.68-.97-1.16-.97-1.36-.77-.87-.49-.78-.58-.97-.39-.58-.39-.58-.29-.49-.58-.78-5.34-6.69-.29-.29-.29-.49-.29-.39-2.23-2.81-.78-.97-.87-1.07-.59-.68-.67-.77-.68-.68-.49-.58-68.31 20.47-53.27 15.91-6.31-16.78-1.16-3.21-12.42-33.28-1.26.3-7.28 2.71-17.27 5.53-1.94.68-3.11.88-3.68 1.26-2.82.87-11.35 3.78-5.72 1.65-12.62 2.62-3.3-.97-4.56-1.26-5.14-1.75-3.2-1.94-.68-.38-1.65-1.94-1.75-2.62-1.45-2.53-2.24-4.27-2.03.49-2.62.78-5.44 1.45-7.18 1.75.1.48.87 5.05 4.47 19.79 2.03 9.51v1.16l-.19.78-.29.48-.87.98-.59.48-.97.19h-1.16l-15.72-.19-8.73.19-4.85-.19-1.17-.29-5.82-2.14-21.06-8.05.39 1.94.87 2.52 1.07 3.89.58 1.65.49.87 5.53 5.82 5.73 6.02 7.66 7.85 1.84 2.62-3.78 1.75-18.24 7.76-1.26.2-2.33-.39-.49-.2-1.16-.87-3.69-4.17-3.01-3.11-1.06-.48-1.07-.1-1.75.2-7.86 2.32-4.27 1.65-1.06.1-13.78-1.36-2.14-.19.2.58.19 1.36v.19l-.19.68-1.07 3.01-.29 1.16-.2 2.04-.19 3.59-.29 1.17-.39.97-1.45 2.23-2.24 2.62-.29.87v.58l-.19.49-2.04 2.52-3.78 4.76-1.85 2.71-.77 1.65-.97 1.75-.59.48-4.75 2.72-4.46 3.2-1.56 1.36-2.32 2.23-3.3 2.82-.68 1.06-.78-.29-.78-.48-1.26 3.2-.87 3.01-2.43 8.53-1.45 4.37-.87 1.65-1.17 1.46-8.83 7.95-2.81 2.43-6.12 5.43-6.01 5.53-.58.58-1.85 2.04-.39.49-47.93-47.55-13.49-12.9-12.13-11.84-18.82-18.63-26.88-26.68-9.51-10.87-2.23-2.62-5.72-7.18-6.79-10.28-15.53-21.83-16.5-24.16-26.68-38.81.39-.58-26.59-38.33-9.89-14.36-5.15-7.37-2.91-4.27-3.01-4.27-1.26-1.75-.97-1.64-17.95-25.91-1.65-2.43-.29-.29-.29-.48-.58.39-.58-.78-3.01-4.37-8.83-12.8-10.38-15.53-1.56-1.65-6.5-9.31-8.15-12.03-16.49-23.97-.88-1.26-6.6-8.73-33.47-48.71-38.43-55.79-9.89-14.26-43.38-62.49-12.22-17.85-39.2-57.24-5.15-9.12-5.62-12.33-2.14-6.69-.19-.49-1.94-6.5-10.48-48.61-7.67-36.38-1.84-9.9-5.92-28.62-.29-.58.58-.2 4.37-.87.09.29v.2l3.01-.88.97-.29.88-.29.29-.19.87-.49.39-.29.48-.39.59-.38.58-.59.58-.58.39-.48.39-.59.29-.29.19-.29.39-.68.49-.77.09-.2 1.07-2.04.87-1.94.2-.38.29-.78.19-.39.2-.39 3.49-7.27 2.72-5.63.38-.78.2-.48 1.36-2.91 1.45-3.11 1.17-2.42 3-7.18v-.39l1.07-2.14 1.65-3.2.1-.29.39-.58.38-.58.49-.68 1.07-1.36 5.82-6.99 4.66-5.72 1.45-1.84 2.43-3.01 2.62-3.01 2.71-3.1 2.04-2.43 5.15-6.11 4.75-5.73 3.4-4.17 6.3-7.57 12.71-15.33 12.91-15.42 13.1-15.72 6.11-7.47 5.05-6.02.29-.39 1.16-1.36 4.08-4.94 1.16-1.07.78-.49 1.26-.38.87-.2h.68l1.36.29.97.49 4.08 2.23 3.59 2.13 11.54 6.6 8.74 5.05 11.54 6.59 1.07.59.87.29 1.56.48 2.42.68 7.96 1.94 2.62.68 6.11 1.55 2.14.49 7.95 1.94.68.19.68.1.49.1h1.45l.39-.1.29-.1.68-.19.58-.39.58-.39.68-.58.78-.77.29-.39 1.55-1.75.29-.29.3-.39 4.94 4.37 10.09 9.21 2.14 2.04 1.46 1.17 2.81 2.62 1.26 1.16 4.66 4.27 4.27 3.78 6.89 6.21 5.53 5.15 2.62 2.52 1.74 1.45v.1l.68.58 1.36 1.26 2.72 2.43.19.19.39.39.49.39 3 2.72 2.43 2.13 4.66-6.01 1.06.97 7.96 6.98 13.2 11.35 1.06.88 5.63 5.24 7.28 6.98 5.72 5.14 1.46 2.53 10.19 6.3 19.7 12.23 3.29 2.04 22.9 10.67 3.98 2.04 3.3.77 2.33-2.03 1.46-1.75.77-2.23 3.01-1.65v-.1l4.85-4.95 4.08-4.56 1.84-4.46 8.05-17.85 13.59-5.05 11.54-5.33 5.63-8.35 2.04-2.72 1.16-1.55 1.17-1.55 1.16-1.36.59-.48.67-.59.68-.48 1.36-.58.49-.39.39-.29.97-.97.58-1.07 1.07-3.3 1.45-4.75.97-2.62 1.17-2.53.97-1.35.87-1.27 1.07-1.06 1.06-1.17 1.17-.97 2.33-1.45 1.26-.49.87-.29.78-.19 2.52-.97.49-.1.48-.19.78-.39.68-.39 1.84-1.36 2.33-1.94.87-.97.88-1.36.48-.68 2.23-4.56 2.04-3.2 1.75-2.62.58-.68.58-.68.68-.38.19-.2 4.56-.87 3.59-.68 5.34-.97 4.95-.97 1.16-.1 1.07-.1.97.1 1.07.2 1.94.58 3.59 1.06 7.76 2.24 6.6 2.03 1.26.39.49.1.87.1 6.89-.68 6.5-.49.58-.1h.88l1.06.3 2.62.67.78.3 5.73 1.84 3.68 1.16 6.02 1.65 16.69 5.05 3.59.87 1.84.58 5.24 1.07 15.14 3.4 9.12 2.23 8.34 1.94.59.1.48.09.97-.09 1.07-.3 5.34-1.84 6.79-2.52 11.93-4.56 3.88-1.65 3.59-1.17 2.14-.38.87-.2 6.02-2.52.19.1 7.57-9.51 3.78-2.62 3.01-1.46 4.37-2.03-3.11 7.37-.68 3.1 1.27 5.34-.3.97.39 3.98.88 1.75.87 5.24 1.26-4.27 1.07-4.18 1.84-1.55 2.43-.87 3.59 2.81 1.26 10.29-.87.48-.49 2.14.49 1.74 1.45 2.72 1.94 1.16-.48 11.94 2.81 10.86 2.81-.97.97-.58 1.75-.58 2.23-.48 2.43-.2 2.13.2h6.21l1.26-.2 1.46-.1.29-.09 2.04-.39 1.16-.49.97-.87.49-.19.68.19.29.39.48.97.88.58 1.55.29h1.75l2.03-.68 2.24-1.06 2.03-1.65.68-1.17.68-2.33v-1.45l.2-2.23.58-3.11v-.29l20.47-4.17.88-.2 7.18 9.32.87 1.36.48 1.45.68 2.53V114l-.68 3.79-2.13 5.82-.87 1.94-.68 1.26-.88.88-1.74.87-.78.29-3.2 1.07-.39.09-.87.49-.88.78-.58.97-.19 1.64.09 1.36-.09 1.17-.39.77v.1l-.49.49-.38.38-1.56.97-.68-.38-.38-.49-.1-.78-.49-.87-.09-.29-.49-.68-1.36-.77-1.26-.2-2.71.49-1.46.48-.1.1-1.16 1.07-.39.58-.39.48-.29.59-.58.48-.58.19-.59.3-.48.09-1.36-.09-1.55-.59-.68.1-.39.29-.58 1.17v1.84l.78 2.42.77 1.95 1.36 2.42.19.97.1.49-.29 1.16-.48 1.26-1.56 2.72-.97 1.94-3.2 4.75-1.26 1.75-1.17 1.75-.67 1.26-.2.58v1.36l.1.97.1.39.09 1.16-.19 1.65-1.46 1.36-.77.39-.97.19-.88.39-.48.1-.68.38-.49.29-.87.49-.29.49-.58.77-.78 2.04-1.16 1.45-2.24 1.07-.87-.58 1.17 4.95 6.11 6.79 6.01 14.07 2.43 5.82.1 1.36v.97l.19.68.1.29.29.39.78.68.87.97.29.09.19-.19.2-.2.29-.09h.29l.49.09.19-.09.1-.1v-.29l17.46 31.14.2.98.48 2.32.2 1.17v1.94l.19 1.74v3.5l-.19 3.98.19 4.56 1.36 11.35 4.75 15.81.39.78.39.68.48 2.23.97 1.94.2.68.19.78.49 1.55.77 2.04 1.17 2.81.68 1.36.87 1.45 1.16 1.56.68.58 2.72 6.6 1.17-.3.09-.67.2.09.48.2.2.38.09.39.29.2 1.27 1.45h.09l.1-.09V323l-.1-.2-.19-.29 1.07.78 72.58 43.56 10.47 6.31 1.65 2.91 1.17 2.52 1.07 2.23.67 1.17.59 1.36.68 2.03 1.35 3.01 2.33 6.02 2.14 5.82 1.26 3.2.58 2.72.87 5.14.68 3.01.49 1.36 1.36 3.49.97 2.62.58 2.72.87 6.21.49 1.74 1.75 4.66.09.19 1.65 3.69 1.55 2.52.68.88.97 1.35.49 1.07.39 1.55.48 3.79 1.46 3.39 2.62 3.79 1.55 1.55 4.17 3.2 1.65 1.46.68.87 4.37 3.2 1.07.58.97.3.97-.2h.97l.58.2 3.69 2.23 2.62 1.45 10.77 6.21 9.99 4.56 7.86 3.59 5.43 3.2 5.05 3.11 3.39 2.23.98.97.77.68 1.36 1.94 3.01 3.78 8.73 11.74 4.56 5.83 4.27 5.43 3.01 3.3 1.94 3.2 1.07 2.33.77 3.39 2.53 9.32 2.42 16.2.68 3.4.49 1.55.77 1.46 7.67 10.38 2.91 4.56 1.16 2.42 1.17 2.43 2.42 1.84.78.29 2.52 8.44 2.52 8.74-.48 1.65-.39 7.95-.39 18.15.2.68.29-.1-5.82 12.03 4.36 5.82-.09 1.94v5.43l.48 5.24.87 7.77.68 3.59.59 1.94.77 5.43 2.14 4.85 2.91 6.6.87.97.68.97.97 2.23 4.37 12.91 1.45 3.68 1.75 3.79 1.36 2.71.97 1.65 3.39 3.3 3.01 3.11 2.91 1.65 2.33.97 2.43 1.65 3.78 2.71.68.68.58.1h.2l.09-.2v-.29l-.58-.97 7.18 4.47.88.97 1.84 1.26 1.16 1.16 2.91.1 1.75.48 1.26.39 1.65.78 1.46 1.07.58.48.68.49.39.48.58.87.48.78 1.17 1.26.68 1.07 1.45.97 1.75.68 1.16.68 7.18 3.2 5.05 4.37 3.2 2.62 3.11 2.13 2.52 2.04 2.04 1.45 1.74 1.46 1.07 1.36 2.33 2.91 1.94 2.42.78 1.07.58 1.16 1.55 3.01.39.58 2.33 3.4.39.49 6.11 7.66 3.2 4.08.29.38 2.72 3.69.78 1.26 3.88 6.5 2.23 4.08 1.07 2.71.58 2.24.1.58v.29l-.59.68v.29l.2.1.48.09.39.39.39.87.77 1.46.59 1.16.09.49-12.61 9.41 1.75 3.2 2.33 6.21.48 3.2 4.37 18.15 2.42 13.68.58.97.68 5.24 5.05 26.29-6.6 3.11-.97.97-2.62 2.81-1.75 3.98-4.17 3.59-4.85 2.62-3.2 2.52.58 3.01 3.3 3.78 9.9 3.2h.09l1.75 2.14 1.75 9.02 1.26 6.6-3.59 5.05-1.36.29z" stroke-linejoin="round"/></defs><use xlink:href="#d" fill="#09757a" stroke="#097d9b" stroke-width="5.76"/><defs><path id="e" d="M1825.74 166.79l-.19.19-.49.68-.29.29-.49.19-1.26.88-.87.39-.39.09-.19-.19-.39-.2-.1-.19-.09-.39v-.29l.09-.29 1.26-1.26.39-.78.68-1.16.2-.29.38-.39.49-.39.29-.29.48-.19h.59l.58.09.68.39.48.49.2.29.09.29-.09.58-.1.1-1.07.29-.29.29-.58.78z" stroke-linejoin="round"/></defs><use xlink:href="#e" fill="#09757a" stroke="#097d9b" stroke-width="5.76"/><defs><path id="f" d="M1833.99 159.99l-1.17 1.17-2.33 1.94-.48.39-.19.09h-.3l-.19-.09-.19-.1-.39-.97-.2-.97-.09-1.07.19-1.06.29-.88.29-.68.88-1.06.09-.1.39-.29.58-.2h.59l.29.2.58.97.19.19.39.1h.39l.68-.29 1.84-1.46 1.36-1.55.49-.87.58-.88.39-.38h.29l.19.09.58.78v.19l-.38.88-.2.29-.68.77-.77.88-3.98 3.97z" stroke-linejoin="round"/></defs><use xlink:href="#f" fill="#09757a" stroke="#097d9b" stroke-width="5.76"/><defs><path id="g" d="M1844.47 147.09l-.39.49-1.55 2.62-.39.87-.58.87-.39.39-.39.19-.39-.19-.29-.29-.19-.29-.1-.39 1.36-2.91.58-.58.1-.2.97-.68.77-.29.49-.09h.19l.2.19.09.19-.09.1z" stroke-linejoin="round"/></defs><use xlink:href="#g" fill="#09757a" stroke="#097d9b" stroke-width="5.76"/><defs><path id="h" d="M3072.4 2688.76l-7.38-7.95-5.24 1.74h-.48l-.2.1-.19.1-.29.19-.19.1-.1.19-.1.1-.1.1-.09.19-.1.19v.2l-.1.19v.59l-1.36-.49-1.26-3.4-.39-3.68-2.91-4.95-1.94-4.56-1.65-3.88-1.74-1.85-.88-.77-.68-.39-.67-.58-.59-.58-4.46.87-.68.1-4.37.97-.19-.29-.39-.2-1.45-1.36-1.07-1.26-2.33-3.88-.68-1.16-3.69-7.47-1.26-2.53-2.91-4.07-2.91-3.79-8.64-10.67-2.71-4.85-1.17-2.23-.87-2.62-.87-2.62-1.26-5.53-.49-2.23-.87-2.82-1.75-3.39-1.36-3.59-1.74-7.38-.78-3.98-2.43-7.66-.68-3.01-.97-5.43-.68-4.85-.58-1.75-2.81-8.93-.2-.48-.38-1.26-3.11-5.44-6.01-6.3-1.27-1.46-2.42-3-3.69-4.47-11.16-13.68-4.27-5.82-4.75-6.11-3.69-6.31-.68-1.07-6.79-9.41-2.04-2.23-3.39-3.1-1.75-1.36-5.05-3.01-6.21-3.59-3.68-1.65-1.65-1.36-.68-.87 8.54 2.42 1.65-.38 2.91-.88 1.74-3.1-6.01 2.71 6.4-6.21-1.16-1.45-.49.1-.68-.2-.29-.19-4.36-5.43-10.87-11.94-11.35-11.93-12.04-11.55-11.93-11.45-3.4-3.69-1.65-1.74-6.69-6.6-7.08-6.01-11.45-11.36-.97-.97-.88-1.06-1.45-2.82-1.75-3.78-.87-2.62-7.47-18.73-2.92-7.27-.77-3.69-1.36-5.43-1.16-3.3-1.36-2.24-1.36-1.55-3.79-3.68-5.04-7.77-3.11-4.46-.68-.78-1.06-.87-2.53-1.84-.68-.39-.38-.29-.97-1.36-.39-.58-1.65-3.4-.29-.48-5.05-43.86 1.07-4.66 2.33-6.88 1.07-5.05.38-1.84 1.94-6.99.1-.87-.1-.68-.29-.58-.29-.2.1-5.72.19-.1.2-.19.19-.39.2-.49.38-2.03 1.26-5.53.39-1.56 1.85-9.51.29-2.91-.2-2.81-.29-2.43-.48-1.74-.58-1.94-.68-3.3-.59-2.04-.77-1.26-1.94-2.62-2.04-2.72-1.55-2.33-2.62-2.91-.49-.58-.1-.1-.77-.67-1.46-.68-16.69-19.41-.09.78-.39.58-1.46.68h-.09l-.49.1-1.75.19-1.94-.29-2.33-1.36-1.35-1.07-.97-1.06-.68-1.27-.39-1.35-.2-1.27.1-.67-.19-1.46-.29-.39-.29-.19-.49-.1-.29-.1-.19-.29v-.58l-.1-.58-.1-.29-.29-.2h-.19l-.3-.09-.29-.2-.68-.97-.19-.87-.1-.97.29-.87.97-1.85 1.17-1.74.78-.78.48-.29.68-.1.97.29-2.91-13.78-.1.3-.09.38-.1.39-.78.58-1.26.2-1.07-.1-.68.2-1.35.97-1.36.38h-1.36l-.68-.09-1.36-.88-1.36-1.74-.58-1.85v-1.65l.19-1.35.39-.88.88-1.45.87-1.46.87-.48 1.85-.49 1.45-2.23-.97.49h-1.26l-.78-.2-1.16-.58-.1-.1-1.84-1.84-3.01-3.3-.97-1.16-.78-1.56-.19-.29-37.75-19.11.1-.88-.29-.67-.58-.78-.87-.78-1.07-2.33-.39-1.35-.29-.97-.29-.78-.49-.87-.97-.88-1.07-.68-1.16-.29h-2.81l-.68-.19-2.33-1.36-1.55-.58-.78-.88-.49-.58-.19-1.06.29-.88.39-.19.78-.1 1.06.2h.88l.87-.59v-.68l-.1-1.16.1-1.55.48-1.75.98-1.65.97-.77 1.35-.2 1.17-.58.87-.58.2-.49-.1-.48-.1-.2-1.74-.68-1.65-.29-1.27.2-2.81-2.04 4.37-7.08 6.59-10.58.98-1.65 1.94-3.1-.1-.1-2.04-3.79-.87-1.64-5.14-8.15-4.86-6.21-3.68-3.3-1.56-1.17-10.18-7.66-2.33-2.33-5.05-4.27-1.45-1.26-14.56-10.97-13.97-12.51-5.63-6.11-10.38-7.67-10-8.54-15.52-14.55-4.85-5.92-2.62-7.86-.39-3.69-.29-2.13 3.01-39.1-1.56-14.56-2.23-8.24-1.45-3.5-7.57-10.47-1.36-1.94 2.23-18.05-3.59-5.82-11.35-9.12-9.7-6.41-3.98-3-1.65-1.46-3.88-2.04-3.11-2.03-6.5-7.48-6.79-2.62-10.19-1.64-3.88-.2-4.27.49-5.92-.39-3.3-.68-7.18-4.27-14.26-13.39-1.17-6.6-10.38-14.65-3.01-6.01-3.98-10.29-4.46-8.83-7.96-14.65-2.13-3.01-8.93-5.43-2.33-3.69-5.33-2.23-9.61-2.42-.48-.68-11.74-17.37-10.19-12.61-3.5-6.5-.87-1.95-2.33-5.62-.09-.2-.88-4.75-.29-7.37.97-12.04-.29-1.55-.39-1.55-.1-4.85.59-2.82-.29-2.81-.1-4.66-.49-4.46-3.3-14.26-2.23-7.38.29-2.42-1.84-3.88-7.76-19.89-11.84-22.51-20.28-27.27-6.21-8.54-1.65-3.29v-1.17l-4.85-10.19-1.84-11.25-1.46-18.63-.19-10.48.48-2.42-.87-13.59 2.42-10.96.97-3.2-.19-1.26.97-7.18-.97-2.72 7.86-6.41-.39-4.26.68-5.53 1.65-7.48 6.79-19.3 1.94-4.47.97-.97-.09-3-.68-1.17 4.17-7.96-.49-2.52-4.56-5.43-2.32-5.43-4.08-7.38-4.17-15.81-8.35-12.03-12.81-23.68-3.88-8.25-11.06-21.05-.87-3.4 5.04-1.06 9.32-1.75-.1-.19-.09-.1v-.1l.09-.19.97-1.26.49-1.56.09-.48-.09-.58-.29-.68-1.85-4.95-1.94-6.4-.19-.97v-1.07l-.49-4.56-.38-6.6.87-6.89.39-1.26.48-1.36 2.04-4.36 1.07-1.65 1.26-1.56 1.94-1.94.29-.29 2.81-1.94 5.53-3.3 3.69-1.16 2.62-.39h2.52l2.72.58 1.94.68 2.04 1.07 2.13 1.45 2.92 2.82.09.29-.09.29-.78.58-.29.39.09.39 3.6 5.04 1.16 1.94 1.36 2.62.29.39 1.55 1.46.87 1.06 3.01 4.86.39.77.19.78.88 3.2.68 1.94.29.58 2.23 3.59.29 1.36.2.49.48.48 1.26.87.39.68.1.78.09 1.07.3.58.48.58.97.68 5.34 4.27 2.33 3.59.58.58.97.68.87.2 1.75.29.39.09.38.29 5.63 5.53 1.94 1.36 1.07.68 3.4 1.46 1.84.39 5.73.38.29.1.38.29 2.72 4.08.49.39 5.14 1.35.58.1.58.19.78.68 2.04 1.75 2.23.78.39.38 1.06 2.14.2.29 4.85 3.69.58.29 1.65.39.78-.1.29.1.19.19.88 3.11.38 1.06.3.39 2.71 1.65.2.39.19 1.55v.39l.19 1.07.39 1.06.88 1.36.77 1.07 2.91 2.72 1.94 1.74 5.24 3.79.78.68.87 1.16.68 1.26.78 1.07 2.13 2.52 4.27 5.63 1.17-.49 4.07-5.82 4.76-1.07 6.01-1.45 11.16-2.62 7.38-3.2 7.37 6.21 8.15.19 10.19-.87 1.07-.1.68 1.75 1.65 3.39.19.59.39.38 1.84.2.29.19.1.2-.2.48-.77 1.65-.2.78-.09.58.77 2.33.97 2.81.49.78.58.58.58.87.29.88v1.06l.2.88.58 1.35 2.04 3.21 3.78 10.09.29 1.06 3.3 6.99.49 1.07.19.58.39 1.16.29.68v.29l1.75 3.11.29.29.39.39.09.68-.29.77v.97l.88 3.3.68 1.55.58 1.07 1.16 2.72.39 1.45.29 1.75 1.26 3.2 2.91 6.31.1 1.26-.19 1.16.09 1.07.1.29.29.68.97 1.75.97 1.55 1.94 3.2 1.46 3.3 2.62 5.82v.78l-.58 1.07v.87l.29.68.48.1.78.29.48.77.39 2.14.39 1.16.97 1.07.39.87.29 2.43.78 2.04.58 2.42.48 1.17.59.87.58 2.42 1.55 3.69.58 1.17.49 1.06.19 1.46-.1 1.26.2.78 2.91 4.07.48.87.39 1.17.29 1.94.39 1.07.49.87.48.87.29 1.75.68 2.13.88 1.85 1.45 2.91-.39.87 1.17 7.38.39.58.48.87 1.84 10.87.2 1.55 1.07 6.79.29 2.33.29 2.04.29 1.84.1 2.43.38 1.84.1.68.39 3.01 1.75 3.88.29.77.09.68v.88l-.48 1.74-.29 2.33-.1 3.4.58 3.01.59 3.2 2.32 10.57.2.97 1.07 4.76.97 3.88.29 5.04.68 7.09 1.06 6.89.49 2.03 4.95 18.15.48 2.33 1.94 8.53.59 2.33 1.35 5.24 2.33 8.93.97 4.07.49 2.23.29 1.46 1.16 5.92 4.85 15.13.78 2.62 1.36 5.83.68 3.2.87 3.88 1.46 7.08 6.98 27.94 1.65 7.77 3.01 12.8.87 3.98 1.75 7.28 1.26 5.63 1.26 4.07 1.07 5.14.68 3.01.58 3.2 3.69 15.04 4.95 9.41.87 1.65 1.55 2.43 6.7 9.8 2.62 6.79 2.81 8.54 5.83 16.88 16.01 50.45 1.84 4.95 1.84 5.73 1.36 4.27 3.59 9.99 6.7 18.63 8.05 22.31.29.88 4.76 12.51 2.23 6.02 4.95 12.9 4.85 12.71 3.59 10.48 1.16 2.82 1.07 2.71.1.2 8.24 19.4 4.47 9.8 3.88 12.03 2.81 8.25 2.43 5.14 1.65 3.5.19.58 2.91 7.27 1.75 5.92 2.23 8.06 3.79 12.9.19 1.07.39 1.45.48 1.26.58 1.17.78 1.26.58 1.07.49 1.26.97 1.36.48 1.74.49.97.58.97.49.97.19.88.29.97.78.97.87.97.58 1.16.97 3.5 1.46 2.03.78 1.56.58 1.45.29 1.55.68 1.85.97 3.97 1.26 1.94.78.88 1.16 1.36 3.4 7.56 1.94 4.76.87 1.07.78.77.77.97 2.72 5.34.97 1.55.48 1.07.3 1.45.09.88-.19 1.06.1.88.19.68.39.77 2.04 3.59.87 1.46 1.16 2.81.49 1.46.87 1.45 1.17 1.26 2.23 3.98.68 3.01.77 1.46.59 1.84 1.26 3.01 1.36 1.94.67.29.59.77.48 1.27.2 1.94.29.77.39.78 1.16 1.55 2.43 2.52.58.78.39.58.48 1.55 13.49 28.82 5.34 10.67 16.98 33.87 2.81 5.72 1.75 2.91 26 46.57 20.96 38.62 3.88 7.18 3.11 4.66 13.87 21.24 1.07 1.46.68 1.16 14.16 21.64 11.84 16.01.1.1.87 1.94.78 3.2.29 2.91.1.39-.39 4.07-5.24 10.48 10.48 11.55 3.3 6.01.19.49 1.46 1.55 1.06.68 3.21 2.04 1.94 1.65 1.26 1.94 2.42 5.14.39 1.36 3.3 16.1 2.43 10.77 1.06 1.56 2.43 4.36 1.07 2.53 2.04 5.04 10.28 24.74 2.62 6.02 5.82 12.42 3.01 6.3 5.05 12.42.87 1.75 2.04 4.27 6.11 12.32 5.92 10.48.29.78.1 1.45.09.29 1.36 2.14 1.07 2.33.68 2.42 2.13 4.76 17.76 36.67 3.98 7.67 13.58 27.36 1.65 2.52 4.85 9.02 1.36 1.85-1.55.29-5.24.97.68 1.65 3.01 5.62 1.36 2.82-.68.39-.49.29-.19.09-.49.3-.29.29-.19.29-.2.39-.09.38.09.39.1.68.78 3.01.77 3.01.49 1.74z" stroke-linejoin="round"/></defs><use xlink:href="#h" fill="#004249" stroke="#00465f" stroke-width="5.76"/></svg>