<svg width="384" height="5.96in" viewBox="0 0 2880 4293" xmlns="http://www.w3.org/2000/svg" xmlns:xlink="http://www.w3.org/1999/xlink"><path fill="#fff" d="M0 0h2880v4293H0z"/><defs><path id="a" d="M372.19 1647.17l1.34 7.78 2.42 15.97 4.96 29.11 2.02 14.49.94 6.03-11.14 1.48-.94-5.63-1.21-10.07-1.34-21.6-3.22-23.88-7.65-48.69-23.21-143.28v-.81l-.13-1.47v-1.08l.27-.53.53-.27 7.25-1.21.4 2.01.13 1.08 14.76 93.91 10.07 63.05 2.41 15.96 1.34 7.65z" stroke-linejoin="round"/></defs><use xlink:href="#a" fill="#9dc8ca" stroke="#6bb4d2" stroke-width="5.76"/><defs><path id="b" d="M2297.29 1093.64l12.08 59.3-2.69.4-.8.14-4.7.8-1.34.13-.67.14-2.68.4-6.98 1.07-12.61 1.88-3.89.67-3.76.54-1.07.13-12.88 1.88-8.32 1.21-.54.54-1.34.13-8.19 1.34-8.05 1.21-5.9.94-8.05 1.21-3.22.4-12.21 1.74-5.9.81-1.08.27-.94.13-1.07.13-1.07.14-.94.27-.94.13-1.07.27-2.29.4h-6.57l-5.64.54-29.24 4.16-2.02 1.61-2.55.53-3.75.54-5.24.8-2.41.41-2.28.27-1.08.26-1.07.14-2.68.4-3.22.4-34.08 5.1-10.33 1.61-10.33 1.61-1.48.27-1.61.27-1.88.27-1.61.26-2.01.41-2.01.53-3.9.81-2.14.53-1.75.27-2.81.54-3.49.67-1.75.27-2.95.4-2.95.4-1.88.41-1.47.13-2.29.27-8.98 1.47-1.35.14-1.61.13-4.56.67-1.88.14-2.41.4-2.15.27-2.15.27-2.95.13-3.49.81-4.02-.94-4.43-.81-4.29.67-2.01.27-2.82.4-5.91.94-1.07.14-10.6 1.74-6.84 1.07-1.61.27-1.75 1.48-1.87.27-3.22.53-10.74 1.48-10.33 1.61-4.29.54-2.28.4-1.88-.81-2.95.41-9.13 1.2-3.62.54-6.84.94-1.08.13-2.41.14-19.86 2.01-9.12.94-1.88.27-7.78.94-4.7.67-4.69.67-9.13 1.34h-.4l-2.55.4-10.87 1.75-12.74 1.87-1.21.14-5.77.94-5.37.8-6.71.94-6.97 1.07-13.69 2.02-10.73 1.61-3.22.53-4.43.67-1.88.27-5.9 1.07-3.89.68-7.38 1.47h-.41l-2.41.54-3.49.8-1.74 1.48-6.04 3.35-6.31 1.34-1.61.41-1.74.26-1.34.41-1.61.27-2.02.4-3.08.53-7.52 1.21-9.66 1.34-2.28.27-13.55 2.01-9.39 1.35-2.68.4-12.08 1.74-9.79 1.48-2.69.4-14.09 2.15-16.23 2.41-13.42 1.88-4.69.81-6.44.8-2.42.4-4.02.54-11.95 1.74-.8.14-2.01.27-10.6 1.61-8.46 1.07-4.15.8-2.29.27-10.73 1.34-6.04.67-2.01.27-5.5.41-6.71.67-.94.13-2.28.13-3.09.41-4.96.53-3.76.54-2.01.27-2.55-.94-7.24 1.34-3.76-.67-5.1.8-8.05 1.21-11.54 1.88-7.65 1.48-9.39 1.61-1.07.67-1.88.4-10.87 2.15-7.65 1.34-9.25 1.47-40.12 6.44-6.84 1.21-31.4 5.23-20.39 3.36-23.75 4.02-22.81 3.89-5.23.81-3.09.53-4.7.81-14.22 2.28-15.16 2.55-12.48 2.14-15.16 2.55-10.33 1.75-10.6 1.74-1.88.4-12.88 2.15-21.73 3.62-103.45 17.04-3.62.67-45.89 7.51-6.58 1.21-44.54 7.38-8.86 1.34-10.73 1.88-44.01 7.65h-.67l-.54.13-23.74 3.76-32.47 5.09-35.02 5.77-21.6 4.16-5.1.4-2.28.41-13.15 2.01-33.14 5.23-2.15.4-2.01.54-3.89.67-32.2 5.37-7.38 1.47-28.45 4.43-36.36 5.9-2.41.41-54.61 8.98-55.01 9.13-4.56.67-51.26 8.45-6.84 1.07-33.81 5.77-8.86 1.48-3.75.53-3.49.54-10.87-1.07-34.62 6.71-11.94 2.01-19.86 3.75-24.95 4.97-5.64-.14h-.8l-4.03-.13.14 1.07-33.28 6.71-18.24 2.82-20.4 2.95-8.85 1.34-11.54 1.34-7.11-.4-2.69-.13-6.17 1.2-1.21.54-.27-2.55.14-2.82-.14-.8-.8-2.42-.54-5.36v-1.88l-1.07-8.99-2.28-11.81-1.21-5.63-1.47-11.94-1.08-7.11-1.07-10.2-2.42-13.41-2.28-15.83-1.21-7.38-3.89-26.56-1.61-9.53-2.55-20.79-5.36-33.14-1.21-10.2-2.28-16.76-.27-2.69-.13-3.49.27-2.68.13-.94.94-2.82-1.34-.8-1.21-1.21-.81-1.07-.94-1.61-.67-2.01-8.85-61.85-4.56-29.38-6.71-46.82-4.3-29.65-4.69-30.59-2.15-15.69-9.52-63.46-11.14-75.8-4.29-27.1 8.58-5.36 34.75-22.41 17.58-11 34.88-22.67 37.17-24.28 16.77-11.14 21.6-14.35 17.45-10.87 6.57-4.02 1.74-1.61 1.08-1.61 2.14 7.78.54-3.22 1.21-2.95 2.28-2.55 1.74.27 1.35-.27 40.78-6.44 12.62-.81 63.59-9.66 93.39-14.48 12.21-1.88 85.06-12.88 27.51-4.97 7.78-1.2 94.72-15.03 8.19-1.34 5.77-1.21 3.35-.13 11.94-3.89 71.92-22.94 2.82-.67 15.83 11.13 70.71-54.47 41.46 35.82 28.44-4.69 22.54-3.76 58.64-9.79 114.18-19.19v3.09l.53 3.76 8.05 52.72 9.66 59.83.14.81 30.05-5.77 25.5-4.7 15.96-3.08 44.14-8.32 8.73-1.74 13.55-2.42 9.25 2.55 21.34-8.18 22.4-3.89 8.32-1.88.14-7.92 1.88-.13h1.34l.4.27.4.53.27.68.4.53 1.48 2.95.4.67.4.41.41.13.4.13h.94l.54-.13 4.42-.94.81-.13 3.35-.54 1.08-.27h1.07l2.95-.4 22.01-3.35 29.51-3.89 67.49-9.4 7.65-1.07 8.18-1.34 2.69-.4 11-1.75 9.12-1.2 6.17-.68 33.15-5.09 2.01-.41 1.07 1.21 4.7 5.64 23.21 28.04 21.87 26.02 11.81 14.09 28.71 34.74 90.83 108.94 90.03 108.13.81 1.07 2.14-.53 20-3.49 4.16.4 110.55-19.05 47.23-7.51 66.82-8.86 3.76-.53 2.01-.41 35.82-5.36 101.57-15.03 130.68-16.63 14.49-3.36 12.35 86.4 4.56 32.06.67.67 12.61 10.87 4.97 31.12-3.09 21.07-5.63-1.34-54.61 7.11-55.55 8.58z" stroke-linejoin="round"/></defs><use xlink:href="#b" fill="#9dc8ca" stroke="#6bb4d2" stroke-width="5.76"/><defs><path id="c" d="M801.14 2885.84l-109.35 19.31-1.88.14-61.18 6.97-17.44 3.09-21.34 3.22-6.97 1.21-15.57 2.68-23.07 3.62-22.01 3.89-41.86 6.84-9.12 1.75-4.16.67-14.36 2.15-24.69 4.42-16.23 2.42-13.02 1.74-12.74 2.15-7.52 1.47-6.3 1.35-2.95.26h-4.03l-2.28-.4-2.68-.8-2.42-.94-1.61-1.61-1.34-1.75-.94-1.74-.54-1.61-.4-1.34-2.15-11.27-1.2-8.99-1.61-9.52-2.02-10.87-1.74-11.4-1.34-11.54-1.34-8.45-2.55-14.76-5.1-32.6-4.16-24.42-3.62-21.19-2.28-15.57-4.84-30.45-2.54-15.43-1.48-9.52-3.22-21.47-2.01-11.94-3.36-18.65-5.1-32.19-2.54-15.57-2.55-15.83-5.24-31.39-1.61-11.67-6.71-42.39-2.28-12.35-2.41-15.29-4.83-31.39-10.33-64.93-2.15-13.02-2.01-14.49-2.55-14.75-2.28-14.89-3.89-22.94-1.61-8.32-2.28-15.16-4.97-30.86-2.82-15.69-.4-3.09-4.16-28.44-1.34-7.25-1.88-12.2-1.88-13.69-2.28-15.29-.94-5.9-6.03-37.17-2.69-15.56-7.51-45.88-4.56-30.18-3.49-21.34-3.36-20.66-4.02-26.29-5.1-31.53-2.28-15.69-5.5-32.07-.54-6.03-1.07-6.44-5.1-32.47-2.82-19.59-1.07-3.89-.14-3.22-.4-3.62-2.55-16.36-1.07-5.77-6.17-39.45-.94-5.36-1.21-9.26-4.02-22-1.35-9.79-1.74-9.93-1.21-6.71v-2.01l-1.74-12.08-7.25-39.84-.4-5.5-2.95-16.77-.94-7.38-.94-4.16-.27-4.96-.13-.81-1.75-3.35-.13-.54-.27-1.87.54-1.88-.81-5.91-.53-1.61-.81-3.08-.54-4.43-.26-4.29-.81-5.37-.54-1.88-3.08-17.7-.41-.94-.93-1.88-.14-.54.14-.53.67-1.48-.27-2.95-.67-1.75-.54-2.01.4-2.41-.53-3.63-.27-1.61-1.34-2.95-1.08-6.57 1.21-.54 6.17-1.2 2.69.13 7.11.4 11.54-1.34 8.85-1.34 20.4-2.95 18.24-2.82 33.28-6.71-.14-1.07 4.03.13h.8l5.64.14 24.95-4.97 19.86-3.75 11.94-2.01 34.62-6.71 10.87 1.07 3.49-.54 3.75-.53 8.86-1.48 33.81-5.77 6.84-1.07 51.26-8.45 4.56-.67 55.01-9.13 54.61-8.98 2.41-.41 36.36-5.9 28.45-4.43 7.38-1.47 32.2-5.37 3.89-.67 2.01-.54 2.15-.4 33.14-5.23 13.15-2.01 2.28-.41 5.1-.4 21.6-4.16 35.02-5.77 32.47-5.09 23.74-3.76.54-.13h.67l44.01-7.65 10.73-1.88 8.86-1.34 44.54-7.38 6.58-1.21 45.89-7.51 3.62-.67 103.45-17.04 21.73-3.62 12.88-2.15 1.88-.4 10.6-1.74 10.33-1.75 15.16-2.55 12.48-2.14 15.16-2.55 14.22-2.28 4.7-.81 3.09-.53 5.23-.81 22.81-3.89 23.75-4.02 20.39-3.36 31.4-5.23 6.84-1.21 40.12-6.44 9.25-1.47 7.65-1.34 10.87-2.15 1.88-.4 1.07-.67 9.39-1.61 7.65-1.48 11.54-1.88 8.05-1.21 5.1-.8.4 2.28.27.81.27.93.27.81.27.67.13.81.13.8v.81l.14.8.13.67.14 1.07 1.87 11.68 3.76 24.01 7.65 44.94 4.02 30.99 6.04 45.21 5.5 24.02 7.38 48.7.54 3.48 17.84 119.4 18.25 115.24 9.8 58.49 1.87 11.68 9.13 53.93 1.88 6.44 16.37 111.08 3.62 23.48 2.55 16.77 17.17 119.8.81 5.23 5.9 35.01.94 5.91 10.06 62.65 3.22 19.72 2.55-.54.27 1.48 32.87 212.5 4.43 32.06 7.11 21.34 7.78 61.84.54 4.29 2.95 17.58 1.07 6.04 1.75 10.06 13.68 64.53 2.29 16.77.53 4.02-5.1-.27-19.72 2.82-15.97 2.28-32.6 5.37-3.89.53-11.54 2.02-25.89 4.15-107.21 17.58-6.71 1.07-59.3 9.26-47.5 7.24-3.89.41-64.54 10.59-37.43 6.04-8.05.67-61.32 9.93-44.27 6.98-2.02.4-6.44.53-100.62 16.64-9.26.94-8.86-58.09-12.61-70.97-9.66-68.96-11.27-61.04-4.16-24.55-4.16-24.41-11.4-67.48-8.05-51.52-109.35 30.05-110.16 17.04-1.88.54.94 5.23 9.53 55.14 8.45 57.68 7.25 47.23.26 1.74 1.61 9.93 8.86 56.48.8 4.83 11.01 58.49 5.9 41.18 3.49 18.79 10.33 61.44.67 4.03z" stroke-linejoin="round"/></defs><use xlink:href="#c" fill="#9dc8ca" stroke="#6bb4d2" stroke-width="5.76"/><defs><path id="d" d="M343.08 1463.51l-7.25 1.21-.53.27-.27.53v1.08l.13 1.47v.81l23.21 143.28 7.65 48.69 3.22 23.88 1.34 21.6 1.21 10.07.94 5.63 11.14-1.48-.94-6.03-2.02-14.49-4.96-29.11-2.42-15.97-1.34-7.78-1.34-7.65-2.41-15.96-10.07-63.05-14.76-93.91-.13-1.08-.4-2.01z" stroke-linejoin="round"/></defs><use xlink:href="#d" fill="#9dc8ca" stroke="#6bb4d2" stroke-width="5.76"/><defs><path id="e" d="M2814.79 845.72l-6.44-10.73-91.64 14.62-54.87 7.65-12.35 1.61-30.99 4.29-121.16 19.05-15.7 1.88-17.84 13.68-42.13-5.5-40.66 4.83-14.49 3.36-130.68 16.63-101.57 15.03-35.82 5.36-2.01.41-3.76.53-66.82 8.86-47.23 7.51-110.55 19.05-4.16-.4-20 3.49-2.14.53-.81-1.07-90.03-108.13-90.83-108.94-28.71-34.74-11.81-14.09-21.87-26.02-23.21-28.04-4.7-5.64-1.07-1.21-1.21-1.34 2.55-.4 9.79-1.34 17.98-2.82 3.89-.67 10.6-1.74 33.28-4.97 5.37-.8 9.66-.67 3.48-.41 8.86-1.2 3.76-.4.94-.14 4.15-.54 8.06-1.07 1.74-.27 6.44-.94 7.65-1.07 14.09-2.15 2.81-.53 5.64-1.08 1.88-.26h.13l4.97-1.08 2.28-.4 4.16-.94 11.94-2.28 1.74-.4 6.71-.94.67-.14 2.55-.4 1.88-.27 5.1-.8 12.74-1.88 8.32-1.48.67-.13 1.21-.13 2.42-.54 1.47-.13 1.21-.27 5.37-.81 4.15-.67 10.2-1.61.81-.13.8-.14 5.91-.8 2.68-.4 10.2-1.35 5.36-.67 2.95-.4 6.98-1.07 2.95-.4 7.52-1.08 8.72-1.34-.14-1.07-.13-1.21-.13-2.28.13-1.61.13-1.34.41-1.34.53-1.21.67-1.21.81-1.21 6.31-7.78 1.2-1.61 2.02-4.02 1.87-5.23.14-.54.67-1.61-2.15-8.85-1.74-10.6-.67-4.3 24.42-9.52 23.74 1.34.81 4.96 2.01 10.6.67 5.1 24.42 28.17.27 1.48v1.61l.81-.13.67-.14 5.63-.8 20.93-3.36 6.31-.94 4.43-.8 3.48-.54 4.16-.94 3.63-.94 5.36-1.34.54-.13 1.21-.27 1.34-.27 3.89-.94 1.48-.27 2.55-.53 2.81-.41 1.48-.13 6.44-1.07 1.88-.94.8-.81.41-1.2.26-.94-.13-.67-.13-4.83-.14-.81-.13-1.07-1.88-13.28-.4-3.09-1.08-7.11-.13-1.61-1.21-7.91-1.34-9.13-.27-1.74-.13-1.34-.27-1.88-2.15-18.38-.13-1.48-.27-1.47-2.01-14.09-.41-3.49-.53-3.35-.67-4.7-.54-2.95 1.74-.13 16.24-4.43 16.37-3.22 5.36-.8 46.29-5.37 25.23-8.45 8.32-2.68 13.82-4.57 52.59-5.9 8.46-1.07 28.44-4.03.27-.13-.14-.67-1.07-10.33-2.28-14.36-4.96-33.54-.27-1.6-2.28-16.64-2.29-16.64-3.62-25.22-4.69-31.26-4.3-30.85-4.16-28.44v-.67l-3.35-22.94-.27-2.96-.8-4.02 14.75-2.01 12.35-1.61 15.96-2.15 11.41-1.47.8-.41 1.61-.27 13.96-1.87 14.09-2.15 14.22-2.15 13.82-1.87 2.55-.41 8.85-1.2 1.21-.41 1.07-.94 5.51.14 6.7-1.08-11.13-17.97-20.93-33-4.57-6.85-13.95-22.8-3.35-4.7 13.95-2.15-4.43-21.19-2.68-2.15-1.21-1.07-1.21-1.07-.93-.94-1.08-.94.81-.14.8-.13.81-.27.67-.27.94-.27 4.56-1.2 3.08-.67.41-.41 1.61-.4 1.61-.27 1.34-.13 23.21-2.95.81-.14.8-.13.81-.27 1.74.67 7.38-1.21 9.12 7.92 9.53 13.28 11 12.07 3.62.94 22.55 37.16 20.12 39.45.27.67 21.6 52.85 13.42 34.89 7.91 16.63 7.25 15.29 8.05 16.24 8.05 15.16 6.44 13.55 5.64 7.38 1.34 1.74 7.65 8.59 9.39 8.31 7.11 3.49 2.68.4 4.7-2.01 6.04 5.77 6.03 8.05 1.61.4 2.15 2.15 1.74.67 6.18 5.1 8.05 3.89 1.34.4 1.74-1.07 1.61-1.21 1.75-.94 2.14-.13 4.43 7.51-1.47 2.15-.81 6.17 3.62 5.9 4.03 3.76 2.28.94 2.28.4 2.82 1.07 1.47 1.48-.4 2.01-.94 2.55-.4 2.01.54 2.42 1.87 2.28-.67 1.2-1.34.81-1.34.67-2.01.67-1.75.54-2.01-.67h-1.34l-1.88.67-2.28.67-.94.8-.13.94-.14 1.34-.53.94-3.76.54-2.01 1.07-2.96 3.62-1.74 4.3-.13 2.01-.27 6.3.53 4.16.27 1.34.94 3.63.54 1.34.67 2.01 1.07 2.95.94 2.28 1.21 3.09.94 1.74 2.41 4.83 1.48 2.42 1.61 2.01 1.34 2.28 1.07 2.01 2.02 3.36 1.88 1.34 1.87.27 2.96 5.63.93 1.61 1.08 1.88.53.67.81.54.4.53.54.41.4.53.67.67.67.67 1.21.67.94.54 1.21.54 1.34.67 1.34.94 1.34.8.94.81 1.08.67.8.53.81.27h1.07l.94-.13h1.07l.94.4 1.21.4 1.07.67.81.81.4 1.21v.94l-.27 1.34-.4 1.34-.4 1.34-.41 1.07-.67.94-.94 1.21 2.02 1.74 2.55 2.15.67-.94.26-.4.27-.4.14-.27.13-.27.4-.13.27-.14.14-.13.4-.27.13-.27.27-.4-.13-.4-.27-.41-.14-.26.14-.27.13-.41.27-.13.27-.27.67-.27.4-.26v-.68l-.13-.67-.14-.53v-.81l.27-.4.27-.13.4-.14.41-.27.26-.26.14-.41.13-.4-.13-.27-.27-.4-.27-.27-.4-.27v-.8l.13-.67v-.54l-.13-.54-.27-.67-.4-.8-.27-.54-.4-.67-.54-.54-.8-.67-.94-.8-1.61-1.34-.81-.81-.4-.27h-.27l-.54-.26-.26-.14-.41-.4-.53-.14-.54-.26-.67-.27-.4-.14h-.41l-.53-.13-.27-.27-.4-.94.13-.4.27-.4.13-.27.14-.54.13-.53.27-.81.54-.94.26-.94.27-.8.67-2.82V478l.94-2.82.14-1.34v-2.28l.13-2.82-.27-1.21-.53-2.54-.54-.94-.54-2.95-.4-2.15-.13-2.42-.41-2.01-.4-3.49v-2.95l-.27-6.44 2.55-2.55 2.82-.67 4.7.54 24.01 39.17 5.5 9.53 4.43 7.91 2.15 6.71 3.08 5.64 8.99 9.92 3.36 6.71 1.47 5.1-.26 1.21-5.37 3.62-1.61 2.41-.94 2.42.54 5.23.53 3.49 11.14 24.82.67 1.61 15.7 29.24 1.47 2.95 21.87 38.1 20.26 31.93 9.26 12.35 8.59 8.85 7.78 8.05 15.97 13.55 11.67 5.77 8.72 4.83 8.19 2.95 5.09 1.34 2.96.54 5.9.67 8.18 2.15 7.12.13 2.81 1.34 1.21 2.95-.67 4.03.67 2.41-.13 2.15-1.75 2.14-.4 2.15.27 2.82.8 5.36-.67 27.37.14 12.75 3.62 19.99.67 5.09-4.56 3.9-.94.26 1.34 4.43-.67.4-7.92 1.61-4.56.67-1.61.27-17.98 5.77z" stroke-linejoin="round"/></defs><use xlink:href="#e" fill="#6bacaf" stroke="#097d9b" stroke-width="5.76"/><defs><path id="f" d="M2729.06 4047.23L2625.34 4064l-85.33 13.14-19.32 3.09-104.52 16.1-55.28 8.99-66.68 9.52-76.62 11.94-60.78 9.53-21.2 3.22-13.82 2.14-135.91 21.33-60.38 9.13-17.71 3.35-118.07 18.11-8.59 1.48-105.32 16.63-116.6 18.38-95.26 15.03-16.91 2.14-.67-.13-11.8 3.89-.94-2.28-2.95-6.98-1.21-2.55-.14-1.47.27-.81 1.08-2.14-.27-.27-.41-1.08-2.81-11.13-1.21-2.01 3.22-7.52-1.48-8.45-2.55-17.3-1.47-8.19-1.08-7.91-6.3-41.46-.67-4.42-1.08-8.32-16.1-105.98-3.35-23.08-2.68-16.23-2.15-15.56-5.1-33.54-.54-1.61-.53-1.21-1.08-1.34-.8-.41-2.01-.13-2.28.13-10.07 1.61-21.2 2.96-15.02 2.28h-2.15l-1.07-.27-1.35-.94-.67-.94-.4-1.88-2.95-19.45-2.28-16.1-.94-5.5-3.09-19.59-2.14-15.02-9.8-63.86-2.14-15.03-10.07-63.85-5.1-31.4-1.47-10.46 2.82-.4-4.3-29.25-13.95-89.88-.27-.81-.4-.54-.54-.26-3.89.26-2.01-13.01v-3.22l.4-1.34 1.74-2.01.27-.54v-.8l-.67-3.49-18.11 2.68-120.76 17.84.94-8.45v-5.1l-3.08-22.94-3.89-25.22-6.44-42.93-11.01-95.92-9.66-61.31-11.8-54.73-4.3-26.84.14-.67.8-2.95-.54-2.68-.53.27-.81-5.1-3.49-22.41-5.23-30.72-3.35-29.78-.67-9.39-8.72-53.26-7.92-54.6-9.53-64.26-6.17-41.99-2.55-18.52.27-2.28 3.89-.4 1.21.67 2.15-.13-3.22-11.81 100.62-16.64 6.44-.53 2.02-.4 44.27-6.98 61.32-9.93 8.05-.67 37.43-6.04 64.54-10.59 3.89-.41 47.5-7.24 59.3-9.26 6.71-1.07 107.21-17.58 25.89-4.15 11.54-2.02 3.89-.53 32.6-5.37 15.97-2.28 19.72-2.82 5.1.27-.53-4.02-2.29-16.77-13.68-64.53-1.75-10.06-1.07-6.04-2.95-17.58-.54-4.29-7.78-61.84-7.11-21.34-4.43-32.06-32.87-212.5-.27-1.48-2.55.54-3.22-19.72-10.06-62.65-.94-5.91-5.9-35.01-.81-5.23-17.17-119.8-2.55-16.77-3.62-23.48-16.37-111.08-1.88-6.44-9.13-53.93-1.87-11.68-9.8-58.49-18.25-115.24-17.84-119.4-.54-3.48-7.38-48.7-5.5-24.02-6.04-45.21-4.02-30.99-7.65-44.94-3.76-24.01-1.87-11.68-.14-1.07-.13-.67-.14-.8v-.81l-.13-.8-.13-.81-.27-.67-.27-.81-.27-.93-.27-.81-.4-2.28 3.76.67 7.24-1.34 2.55.94 2.01-.27 3.76-.54 4.96-.53 3.09-.41 2.28-.13.94-.13 6.71-.67 5.5-.41 2.01-.27 6.04-.67 10.73-1.34 2.29-.27 4.15-.8 8.46-1.07 10.6-1.61 2.01-.27.8-.14 11.95-1.74 4.02-.54 2.42-.4 6.44-.8 4.69-.81 13.42-1.88 16.23-2.41 14.09-2.15 2.69-.4 9.79-1.48 12.08-1.74 2.68-.4 9.39-1.35 13.55-2.01 2.28-.27 9.66-1.34 7.52-1.21 3.08-.53 2.02-.4 1.61-.27 1.34-.41 1.74-.26 1.61-.41 6.31-1.34 6.04-3.35 1.74-1.48 3.49-.8 2.41-.54h.41l7.38-1.47 3.89-.68 5.9-1.07 1.88-.27 4.43-.67 3.22-.53 10.73-1.61 13.69-2.02 6.97-1.07 6.71-.94 5.37-.8 5.77-.94 1.21-.14 12.74-1.87 10.87-1.75 2.55-.4h.4l9.13-1.34 4.69-.67 4.7-.67 7.78-.94 1.88-.27 9.12-.94 19.86-2.01 2.41-.14 1.08-.13 6.84-.94 3.62-.54 9.13-1.2 2.95-.41 1.88.81 2.28-.4 4.29-.54 10.33-1.61 10.74-1.48 3.22-.53 1.87-.27 1.75-1.48 1.61-.27 6.84-1.07 10.6-1.74 1.07-.14 5.91-.94 2.82-.4 2.01-.27 4.29-.67 4.43.81 4.02.94 3.49-.81 2.95-.13 2.15-.27 2.15-.27 2.41-.4 1.88-.14 4.56-.67 1.61-.13 1.35-.14 8.98-1.47 2.29-.27 1.47-.13 1.88-.41 2.95-.4 2.95-.4 1.75-.27 3.49-.67 2.81-.54 1.75-.27 2.14-.53 3.9-.81 2.01-.53 2.01-.41 1.61-.26 1.88-.27 1.61-.27 1.48-.27 10.33-1.61 10.33-1.61 34.08-5.1 3.22-.4 2.68-.4 1.07-.14 1.08-.26 2.28-.27 2.41-.41 5.24-.8 3.75-.54 2.55-.53 2.02-1.61 29.24-4.16 5.64-.54h6.57l2.29-.4 1.07-.27.94-.13.94-.27 1.07-.14 1.07-.13.94-.13 1.08-.27 5.9-.81 12.21-1.74 3.22-.4 8.05-1.21 5.9-.94 8.05-1.21 8.19-1.34 1.34-.13.54-.54 14.22 77.94 5.5 40.79-17.04.53-9.26 2.69 8.46 60.37-27.51 4.29 6.98 42.13.67 11.4.8 6.84-24.15 1.75-1.61.93-1.88.94-15.29 25.09-7.38-7.65.54 3.22 1.07 13.96 1.21 15.56 1.07 12.07 1.07 9.12 1.75 12.88.8 4.83 1.75 11.81 3.35 22.67 17.71 115.91.54 3.49.4 2.82 37.17-5.37 3.22-4.02 13.41-2.02 1.08-.13 9.12-1.34 41.33-5.9 4.29-8.59 7.92 6.71 2.81 2.28 1.48 3.89.94 2.15 5.23 13.68 5.64 12.74 35.95 92.04 13.69 35.01 6.98 17.98 27.1 69.62-2.15.41 8.72 22.4 1.48 3.49 4.29 10.87 4.03 10.59 2.01 4.7 26.57 68.02 8.99 23.34 30.18 76.74 11.14 28.04 3.49 8.85 11.4 29.11 6.18 15.83 22.54 57.82 5.1 12.75 5.09 12.88 15.03 38.5 2.82 7.11 8.85 22.67 2.69 6.71 1.88 4.7 4.42 11.4 17.71 45.61 53.54 136.57 9.79 24.96 2.82 7.24 4.97 12.61 18.11 46.29 8.45 21.6 12.61 32.33 6.31 15.96 5.64 14.36 1.87 4.69 1.75 4.43 1.74 4.43 3.76 9.39 2.68 7.24 2.95 7.25 2.69 6.97 3.75 9.66 9.4 24.02 2.01 4.96 3.49 8.99 3.08 7.78 1.75 4.69 2.14 5.5 3.22 8.05 2.42 6.04 2.15 5.1 2.01 5.23 3.49 9.12 4.96 12.75 3.22 8.32 2.01 5.09 2.42 6.04 2.01 5.1 2.42 6.44 2.55 6.57 1.74 4.56 2.01 4.97-14.76 2.41-2.95-1.07-75.8 10.73-154.44 21.87-49.64 7.91-103.18 16.37-2.68.4 1.61 10.6 1.88 12.61 1.07 6.84 3.89 26.57 10.47 69.89 15.16 101.56 1.34 9.93.27 2.41.4 2.15 2.82 18.38 13.82 92.16 14.76 95.25 20.52 134.56.14.94 20.26 131.88 4.96 32.19.94 3.76 3.09 11.67 2.28 6.17 2.41 5.5 2.42 5.64 2.95 5.77 3.62 6.57 3.76 5.9 10.87 16.24 6.84 9.79 6.31 8.45 7.38 8.59 3.22 3.22 7.65 7.11 4.02 3.08 60.78 50.58 23.75 19.72 11.54 9.66 2.55 2.28.53.4 19.86 16.64 16.91 14.22 25.76 21.73 15.56 12.75 5.23 4.43 3.22 2.81 3.09 3.36 3.09 3.62.8 1.34 1.34 1.88 1.61 2.14.67 1.21 1.21 2.15.67 1.34 1.48 2.55 1.47 3.49 1.35 3.22.8 1.88.67 2.01.81 3.08.94 4.43-5.77 1.07-13.69 2.28-5.1.94-6.44 1.08-55.81 9.66z" stroke-linejoin="round"/></defs><use xlink:href="#f" fill="#09757a" stroke="#00465f" stroke-width="5.76"/></svg>