<svg width="384" height="5.88in" viewBox="0 0 2880 4233" xmlns="http://www.w3.org/2000/svg" xmlns:xlink="http://www.w3.org/1999/xlink"><path fill="#fff" d="M0 0h2880v4233H0z"/><defs><path id="a" d="M1287.41 2515.2l-3.57.52-3.31.14-3.31-.14-1.45-.26-.27-.79-.39-1.06-.8-1.85-.4-1.06-1.19-1.99-1.32-1.98-1.19-1.19 1.32-1.85 1.06-1.72 1.46-2.25 1.45-2.38.93-1.59-.66-2.12-2.91 4.1-.66 1.06-1.59 2.12-1.85-1.06-4.63-3.04-4.24-2.91-3.3-2.25-1.99-1.32-15.48-10.45-4.89-2.91-10.45-7.41-5.43-4.1-6.21-3.97-6.09-3.57-3.04-1.59-3.18-1.32-2.51-1.06-7.41-2.78-4.23-1.59-7.01-2.51-2.51-.79-3.58-1.46h-.66l-8.07-1.85 1.06.79 7.94 4.1 1.32.67 2.51 2.38 1.99 2.38-7.67-3.04-6.09-2.65-2.12-.93-3.57-1.58-8.07-3.57-15.47-7.15-10.32-4.89-9.39-4.37-22.49-10.18-3.97-1.72-5.29-2.38-1.19-.53-12.44-5.16-6.08-1.33-1.86-.66-3.44-1.19-9.65-3.04-9.79-2.65-8.6-2.24-2.25-.8-3.04-.92-1.99-1.06-2.51-1.46-5.56-2.77-2.24-1.06-2.78-1.46-3.84-1.85-7.41-3.7-3.83-1.99-3.57-1.72-5.96-2.91-9.39-4.23-7.14-3.57-8.47-3.71-7.54-3.04-13.23-4.1-6.61 30.82-25.14-6.74-21.96-6.09-.26 1.06-5.03-1.72v-1.06l-13.76-4.23-2.38-.66-13.62-2.91-2.52-.67-2.24-.52-1.72-.27-1.99.13 1.46-5.42 3.44-11.11 3.3-11.11 2.38-8.87.53-2.24 3.18-11.51 1.85-5.03.79-3.84.14-1.45.13-1.72.53-8.73.39-12.17-19.84-4.9-7.8-2.11-26.06-7.15-28.84-7.54-22.09 4.63-2.25 7.81-7.54 26.32-5.56-.92-6.08-1.06-5.03-.8-5.69-1.05-3.57-.66-9.66-1.72-12.96-2.25-7.15-1.33-25.39-4.63-25.93-4.76-5.96-1.19-2.24-.4-2.65-.39-2.38-.4-2.12-.4-2.11-.26-2.12-.26-2.25-.27-2.12-.26-1.98-.14-2.38-.13-2.51-.13-2.39-.13-9.26-.14-6.21-.13H580.6l-4.49-.26-5.03-.13-4.1-.27-3.18-.26-3.57-.4-3.97-.79-3.3-.53-3.44-.8-8.73-2.11-14.69-3.97-6.74-1.72-7.28-1.85-17.86-4.77-7.14-1.72-6.48-2.24-1.99-.53-1.72-.53-2.25-.53-1.98-.53-6.75-1.59-5.29-1.19-3.31-.53-4.63-.92-4.36-1.06-4.37-1.19-7.94-2.12-3.3-.79-1.99-.66-3.3-.8-.8-.26-2.38-.66-2.25-.53-2.25-.66-4.23-1.33-6.35-1.85-15.87-4.5-9.53-2.91-6.61-1.85-3.18-.79-1.06-.4-2.64-.79-9.66-2.65-5.95-1.72-4.9-1.72-2.51-1.19-2.25-1.32-1.45-1.06-2.25-1.72-2.12-2.12-.4-.39-1.45-1.72-1.72-2.38-1.59-2.52-1.98-3.7-1.59-2.25-1.45-2.51.52-2.25 77.13-240.75 3.57-12.97-52.92-9.39-1.72 5.69-16.13 53.44-5.96-2.38-16.4-6.35-17.86 55.29-8.6-3.04-21.03-6.61-5.95-1.06-12.84-4.1-44.31-14.02-8.47-2.65 1.06-13.62-.79-1.99 1.98-4.23h.66l1.99-6.88 1.58-4.76 25.54-85.32v-3.57l-10.19-14.95 5.82.79 12.04-8.2 8.73-28.97 34.53-125.27.66-2.38 51.06 13.62 5.95 1.72 15.22 5.03 1.58-.13 5.69-19.45 13.36-42.33 8.6 2.91 6.22-22.88 2.91-14.29 1.32-7.14.93.26 1.06.14h1.05l1.19-.27 1.33-.53.66-.26.92-.4 1.2-.66.92-.53 1.19-.93 1.46-1.45 1.19-.93.92-.53.93-.39h.66l.66.13 1.19.26 1.59.66 1.72.67 1.06.13 1.06.13h1.19l2.11-.26 1.86-.27 2.11-.26 1.46-.4 5.82-1.72 12.83-3.44 7.28-1.98 1.98-12.57-13.23-3.84-12.57-12.69-3.57-5.83-2.25-2.91-.53-1.45-2.24-12.7-1.46-2.38-.13-.79-.13-.67-.14-.39-.26-.53-.4-.27-3.57-3.17-.66-.66-.93-.8-.53-.53-.39-.39-.93-.93-.66-.79-.53-.66-.93-1.19-1.19-1.46-1.32-1.59-.66-.79-.53-.66-.4-.53-.39-.4-.4-.26-.4-.4-.66-.26-.4-.27-.66-.39-.66-.27-.66-.26-.53-.27-1.19-.4-2.91-1.19-.93-.26-.92-.26-.53-.14-.79-.13h-.53l-1.46-7.8-16.67 4.36-10.71 2.78-2.52.53 5.82-20.11 3.31-.92 3.31-1.06 9.52-2.52 1.33-.13 1.45.27 2.78.79 10.45 7.14 2.38.8 2.91-.66 8.87-2.65 27.51-8.07 50.14-19.31 19.31-6.62 24.34-8.33 24.08-2.91 7.8-.26 14.16-.53 16 .13 22.23.66 10.18.66 41.14 9.39 11.91 2.25 21.03 3.04 25.27 2.25.79.14 5.82.13 2.25-.13 11.64-2.12 22.36-3.04 3.18-1.59.66-.53 3.7-4.5 1.46-1.06.79-.26.53-.26h1.72l2.25.92 8.46 5.42 6.88 1.33 17.6-6.48 10.84-3.05 5.3.53 16.53 14.55 23.02 16.8 30.56 5.43 10.32.79 9.79-.66 19.04-2.65 12.31-6.21 9.92-10.45 1.32-1.06 1.46-.53h1.58l.67.26 7.14 2.65 2.64.26 5.43-.92 3.17-1.19 11.51-3.71 14.55-5.29 16.14-7.01 8.34-4.89 12.17-7.01 26.32-14.29 2.12-1.72 2.91-2.91 4.1-8.07 2.91-4.76 1.98-2.12 2.78-1.72 5.43-3.04 5.15-3.18 4.24-.92 2.78-.4 3.3.66 6.35 1.59h2.12l1.32-.79 1.33-1.19.52-.27 1.59-1.19.93-.4 8.46-.26 21.96-11.38 2.78-1.58 43.39-25.8 44.85-31.22 16.8-9.92 15.34-9.13.13 6.22-10.84 20.11 3.3 67.2 18.92 48.28-2.64 29.23-2.78 31.35-3.71 4.5-2.38 2.38-1.19 1.72-1.59 3.31-1.32 3.31-.79 2.11-1.19 4.1-.8 3.84-.26 5.56.13 7.14-.26 18.78-.14 5.56 1.72-.53 1.46-.53 1.32-.53 2.91-1.59 1.85-1.05 2.65-1.86 4.63-3.57 7.67-6.08 3.84-3.18 3.57-3.3 4.89-5.03 5.43-5.56 2.78-2.38 2.25-1.72 2.24-1.58 2.25-1.06 2.25-1.06 2.38-.53 2.25-.4 2.25-.13 2.25.13 2.91.4 7.67 1.72 11.11 2.38 10.06 2.25 2.25.93 1.19-2.52.53-.92.53-.67.53-.52.52-.27h.67l.92.13.53.27.4.13.39.26 1.06.67.93.52 1.85 1.33 5.16 3.7 1.59 1.06 1.45.79.93.53 1.06.4.92.26 1.06.27.8.13.52-.13.93-.4.79-.53.67-.79.52-.79.67-1.2.66-1.98 1.58-4.76 1.86-6.48 1.19-4.5 2.78-9.26.92-3.04 5.95-19.18 1.86.66 6.61 1.98.93.27 5.68 1.32.8.4.66.39.4.27.26.53.13.66.14.92-.14.93-.26 1.32-1.32 3.84-.53 1.06-.53 1.19-.93 1.45-.92 1.46-7.02 10.45.93.13 3.44.79 1.19.14 2.25.79 3.84 1.72 4.49 2.25.4.26 4.5 10.19.4-.66.66-.66.92-.67.53-.26.8-.26.79-.14h.79l1.72.4.93.26 1.32.4 2.65.79 1.45.4.93.13 3.31.93 4.63 1.06 5.82 1.72 6.61 1.98 1.06.27 2.91.79 3.84.93 10.45 2.77 9.12 2.25 6.62 1.59 3.57.93 3.44.92 3.04.8 12.57 3.17 1.59.4 1.98-.66.27-.14h1.71l1.46.14 5.29 1.05 2.25.27 1.85.53h.93l4.1.53 4.36.66.27.13 6.61.93 5.43.79 3.97.13 2.77-.26 2.78-.4 3.71-.26 2.24-.53 5.03-1.46 9.53-1.85 1.45-.53 1.99-.26 1.32-.27 4.23-.39 3.18-.4h.66l2.25 1.45h3.83l1.46.14 1.72.13 1.06.13 1.19.13 1.98.53 2.25.66.79.27.67.13h.79l-.27 1.98.27 3.44.66 1.59v1.99l.13 1.32.4 1.19.66 1.45.53.93.66.93.93 1.19 1.06 1.19 1.05.92 2.12 2.78.93-.66 1.72 8.6 1.45 4.89 3.44-.53 10.19-10.31.79-.8 9.39-8.86 1.06.53 6.35 4.1 4.76 3.57 1.72 1.06-1.06 2.38-3.3 12.57-3.71 19.18-2.77 13.62-6.75 32.41-2.51 10.72-2.12 11.37-4.76 24.08-1.33 8.86-.66 4.23-.79 28.31.26 8.6.14 4.5-.53 8.07-.67 12.3-1.85 7.01-1.19 4.63-3.04 11.51-2.12 9.39-1.85 11.9-1.98 11.25-1.59 14.42-1.19 9.92-1.46 11.24-.79 6.35-.53 9.39-.26 4.77v4.23l.53 6.22.52 7.93.93 11.11 2.38 19.58 2.25 17.6.93 6.21-1.19-.79-1.46-.53-1.59-.66-1.45-.4-2.91-.79-3.31-.8-1.72 6.22-1.32 5.69-.93 3.97-.53 1.85-.66 1.85-.53 1.32-.26.4-.27.4.14.92v.8l-.4 2.51-1.06 5.69-.66 3.04-1.99 11.38-4.89-.93-12.57-2.25-1.72 8.34-1.19 6.35-1.58 8.33-2.25 10.58-2.52 12.57-2.77 12.57-.67 3.3-.92 4.63-.8 3.71-.26 1.19-.13 1.72-19.58-.8-9.26 4.1-6.88 12.97-12.96 150.27-11.65 134.93-.39 4.76 6.88 41.93 8.07 48.02-3.05 1.19-3.7 2.38-4.1 1.46-13.23 4.63-16.54 8.59-.79.14-2.65.26-4.23-.13-22.35 1.98-51.2 6.09-11.11 2.38-2.91-.79-2.38-1.2-.27-.26-3.17-4.63-15.61-14.02-6.22-5.03-3.7-1.59-2.91-.39-2.12.53-2.25.53-4.76 2.77-3.97 3.58-8.33 8.06-28.31-8.59-6.22 3.96-2.38 2.52-2.38 2.25-2.52 1.98-2.25 1.59-.79.4-1.45.66-.53.13-4.24 2.12-3.83 1.58-1.85.66-1.06.27-1.33.26-.92.14z" stroke-linejoin="round"/></defs><use xlink:href="#a" fill="#9dc8ca" stroke="#6bb4d2" stroke-width="5.76"/><defs><path id="b" d="M487.87 3426.75l-.13.13-2.12 3.7-1.85 3.44-1.98 3.97-1.59 3.17-2.25 4.63-3.97 9-3.57 7.94-5.42-2.12-30.43-8.6 3.04-10.85.8-2.77 2.11-7.81 2.52-8.73-14.03-9.52 1.46-39.29-14.68-58.34-10.72-1.05 4.23-2.52 36.51-21.96 4.37-2.51-3.84-7.14-24.21-8.34-45.63-15.08-10.19 4.37-2.12 1.06-83.87.92-.39-3.17-.53-3.44-.4-1.85-.53-2.12-.66-2.25-.66-1.72-.66-1.72-.8-1.59-25.39 3.18-20.24 2.51-42.6 9-6.22-2.78-11.37 1.45-14.82 1.86-2.25.53-1.98.53-4.5 4.62-16.41 16.41-.66 1.85-.26.4-12.83 12.7.92-1.99 3.18-3.7.26-.53.13-.53v-.79l-1.98-3.58-.93-.92-1.98-1.32-21.83-7.02-2.11-.66-2.52-.53-1.45-.39-.66.26-.93.27h-.66l-.79.39-.27-.26-.93-1.06-.26-1.59v-1.58l.66-11.65.13-2.24.14-.67.53-.66.52-.13h.53l.93.27.93.13 2.24.66 6.22 1.85 1.59.27.93.13 1.05-.13.8-.27.79-.53 1.19-.92.66-.8.66-1.06 1.33-1.98.79-1.46 1.46-2.77.79-1.06.53-.66 1.98-1.99.4-.79.66-1.19.4-1.19.26-1.59-.79-.13-1.72-.53-1.72-.53-1.32-.66-1.06-.66-.66-.8-.53-.79-.66-1.06-.27-.92-.13-1.33-.13-1.85.13-3.57v-1.46l.26-1.05.4-1.06.53-.8.66-.53 1.32-.79 1.99 2.65.53.39.53.27h.79l1.46-.27 2.77-.66 3.05-.66 1.19-.13.92-.13.93.13 1.59.26 3.17.8 7.94 2.64 3.44 1.06 2.64.93 2.25.53 1.85.26 1.2.13h.92l.8-.26.39-.13.8-.4 1.05-.66 1.19-.8 1.59-1.58 5.69-5.69.79-.66.67-.4h1.05l.53.26 2.25-4.89 2.12-5.16.79-3.17 2.65-.27 1.19-.66 9.26-10.32 10.32 6.75-8.6-18.12-1.99-4.1-1.72-3.71-7.01-9.79 2.52-31.08 1.85-30.69-8.34-2.38-11.11-3.05-7.8-2.11-11.91-3.18-.79-.13-9.79-2.51-1.99-.66-1.58-.8-.93-.66-1.19-.79-1.06-1.06-1.06-1.19-1.05-1.19-1.19-1.46-1.59-1.72-1.33-1.72-1.71-2.38-3.71-5.16-3.04-4.1-.93-1.45-4.89-6.88 1.72-1.59 2.78-2.64 2.51-2.91 2.51-2.91 2.12-3.05 1.98-3.3 2.25-4.1 2.38-5.16 2.25-5.16 2.12-5.29 1.98-5.3 1.59-5.55 1.72-6.75 1.98-9.39 1.86-9.39 1.72-9.53 1.19-5.42.79-3.44.27-.92 1.05-3.97.4-1.46-10.19-4.63-3.17-1.32-3.84-1.72-4.49-1.72-10.98-4.36-14.69-5.83-15.61-6.87-.79-.4-4.9-2.25-.92-.4-.8-.26h-1.72l-2.51.4-4.23-36.91-1.19-11.38-1.19-11.64-.66-5.55-3.05-26.86-.13-2.91-.66-5.68-.53-4.9-.93-8.33-1.58-13.76-3.31-27.78-3.57-30.69-1.19-10.18-5.03-44.05-2.78-24.61-.79-5.29 1.59-2.64-1.19-10.98-.4-5.16-.4-4.5-.13-2.12v-2.25l-.13-4.63v-5.95l.13-5.29.13-2.91.27-3.44.26-2.51.27-3.18 1.05-8.6.66-3.3.4-2.25.27-1.72 1.05-4.63 1.99-8.73 2.38-9.13 1.46-5.29 1.32-4.63 3.17-10.85 3.97-12.56.8-2.38 10.71-38.23 10.98-17.33 3.97-11.25 24.87-72.62 1.06-12.17-1.99-1.32-12.3 1.98 14.02-49.74 5.16-17.59 1.06-4.23.66-2.12.4-1.45 1.06-3.18.26-1.45 2.78-9 6.88-23.15 4.23-14.55 5.56-17.99.92-2.25.53-1.19.66-1.45.53-1.46.93-2.91 1.85-7.14 3.7-13.23 3.31-12.04 2.12-8.2 3.83-13.23 1.06-3.57.27-.79 1.45-5.43 1.85-5.82.4-1.05 4.9 1.19 3.04.79 3.97 1.19 2.11.79 1.99.67 1.59.66h.13l3.97 1.58 1.72-1.72 1.32-1.45 1.85-1.98 3.71-3.97 6.08-6.22 2.65-2.91 4.36-4.37 1.99-2.24 2.38-2.39 1.32-1.32 1.45-1.45 1.46-1.19 2.25-1.59 1.59-1.06 2.11-1.32 1.99-1.06 1.98-.93 2.51-1.06 2.25-.79 2.25-.66 2.25-.53 1.85-.4 2.52-.39 3.04-.27 2.51-.13h2.65l2.51.13 1.72.27 3.57.92 5.96 1.72 9.26 1.99 10.05 2.91.4.13 9.12 2.91 5.96 1.72 3.3.66 3.31 1.06 3.44 1.19 2.91 1.32 2.38 1.46 2.38 1.85 2.39 1.98 1.71 1.72.53.4 2.12 2.38.53.79 1.32 1.99 1.99 2.91 2.64 5.03 4.63 8.2 6.09 12.03 3.17 5.83 1.33 3.04 1.45 2.51 1.59 2.25 1.98 3.7 1.59 2.52 1.72 2.38 1.45 1.72.4.39 2.12 2.12 2.25 1.72 1.45 1.06 2.25 1.32 2.51 1.19 4.9 1.72 5.95 1.72 9.66 2.65 2.64.79 1.06.4 3.18.79 6.61 1.85 9.53 2.91 15.87 4.5 6.35 1.85 4.23 1.33 2.25.66 2.25.53 2.38.66.8.26 3.3.8 1.99.66 3.3.79 7.94 2.12 4.37 1.19 4.36 1.06 4.63.92 3.31.53 5.29 1.19 6.75 1.59 1.98.53 2.25.53 1.72.53 1.99.53 6.48 2.24 7.14 1.72 17.86 4.77 7.28 1.85 6.74 1.72 14.69 3.97 8.73 2.11 3.44.8 3.3.53 3.97.79 3.57.4 3.18.26 4.1.27 5.03.13 4.49.26h10.59l6.21.13 9.26.14 2.39.13 2.51.13 2.38.13 1.98.14 2.12.26 2.25.27 2.12.26 2.11.26 2.12.4 2.38.4 2.65.39 2.24.4 5.96 1.19 25.93 4.76 25.39 4.63 7.15 1.33 12.96 2.25 9.66 1.72 3.57.66 5.69 1.05 5.03.8 6.08 1.06 5.56.92 7.54-26.32 2.25-7.81 22.09-4.63 28.84 7.54 26.06 7.15 7.8 2.11 19.84 4.9-.39 12.17-.53 8.73-.13 1.72-.14 1.45-.79 3.84-1.85 5.03-3.18 11.51-.53 2.24-2.38 8.87-3.3 11.11-3.44 11.11-1.46 5.42 1.99-.13 1.72.27 2.24.52 2.52.67 13.62 2.91 2.38.66 13.76 4.23v1.06l5.03 1.72.26-1.06 21.96 6.09 25.14 6.74-.13.93 7.14 1.98 4.76 1.32 2.51.67 30.56 8.07 4.63 1.19 3.97 1.05 3.57.93 8.47 2.25 7.27 1.85-1.05 1.19-4.9 5.03-3.17 3.31-.66 1.85-37.18 37.17-3.7 3.7-4.9 4.9-34.39 34.39-3.44 3.31-7.01 7.01.93.92-13.23 13.23-5.43 5.43-4.49 73.15-10.85 10.84-10.72 10.72-4.76 4.63-13.76 13.76-12.04 12.43-11.64 11.77-2.25 2.12-1.58 1.59-1.06 1.72-.27.53-1.32 2.64-.92 2.38-4.5 15.61-.53 1.85-1.32 4.5.53.27.92.79.93.79.79.93 1.06 1.19.93 1.19.52 1.32.8 1.59.39 1.32.14.53.26.8.27 1.72.26 1.85v1.32l-.13 1.85-.53 4.5-.27 1.32 25.27-3.97v1.46l.13 1.06-.13 2.11-.13 1.33-.4 1.32-6.88 25.4-2.91 10.58-2.64 9.66-3.18 10.98-1.58 5.29-.67 2.51-2.51 8.6-2.78 10.18-10.98 39.42-1.72 5.82-1.58 5.69-1.06 2.65-1.19 2.78-.14 3.44-21.56 5.55-28.7 9.39 4.63 14.29 3.43 9.92 21.17 4.76-2.38 1.46-.79.66-.53.79-.53.8-.53 1.45-1.06 3.31-1.46 5.55-.39 1.59-.13 1.46-.14 1.19-.13.92-.26 1.19-.53.93-.53 1.32-.53 1.33-2.51 8.46-2.25 24.74-.4 4.1-2.51 28.18-.93 10.18-.53.66-.79 1.59-.27.79-.26.66-.53 2.52-.66 3.17-1.85 6.75-2.91 10.58-3.31 11.64-3.18 11.51-1.72 6.61-3.7 13.76-.79 2.52-2.12 7.93-3.44 12.17-.79 3.31-.4 1.85-1.06 4.23-3.17 11.91-5.43 19.84-4.63 15.88-1.72 5.95-2.38 8.86-2.64 9.39-.53 2.25-.66 2.51-1.46 6.35-20.64 9.53 6.49-23.02-11.38-3.31-6.88-1.98-25-7.27-11.78-3.44-3.7 12.83-1.98 6.74-.4 1.46-1.85 6.61-1.72 6.35-.27 1.06-1.05 3.7-3.58 13.23-.92 3.31-1.72 6.48-5.29 17.99 7.14-1.59 8.86 3.71 23.15 9.13 2.91.92 3.31 1.06 14.29 3.04.79.66 1.32.4 1.72.79-1.32 1.06-1.06.66-48.94 36.91-3.31 2.51-2.51 1.99-3.58 2.38-1.72 1.32-4.23 3.18-9.26 7.01-16.14 12.17-6.74 4.89-7.41 5.56-2.12 1.58-15.74 12.04-3.84 2.78-3.3 2.51-3.58 2.65-3.96 2.78-4.24 3.44-4.23 3.3-4.37 3.71-3.83 3.44-2.65 2.51-3.04 2.91-4.1 4.23-3.97 4.63-2.38 2.65-3.57 4.36-5.56 7.41-3.04 4.23-1.46 2.25-1.98 3.05-2.38 3.83-2.12 3.71z" stroke-linejoin="round"/></defs><use xlink:href="#b" fill="#9dc8ca" stroke="#6bb4d2" stroke-width="5.76"/><defs><path id="c" d="M1572.75 4183l-28.05 8.6-8.59-11.64 4.76-58.08-.93-3.04-5.29-17.06-10.98-17.73-5.03-8.2-5.16-4.5-24.86-21.82-26.07-18.52-5.02-3.18-3.18 1.72-9.26 4.5-3.44 1.45-1.85.4-4.36-.53-9-2.38-12.04-3.44-5.82-1.59-1.59-.53-.92-.52-.66-.67-.66-.66-3.18-.66 2.65-25.13.66-3.44-.93-.53-1.19-.93-.4-.53 14.16-53.04 6.08-19.71 2.52-8.47 3.04-10.18 4.23-13.76-.39-23.94.13-1.32.26-17.33v-1.46l2.52-13.23 3.3 1.19 4.77 1.59 3.3 1.06 3.97 1.06 1.59.26 1.19.13h1.19l.93-.13.79-.13.93-.26.79-.27 1.46-.53 1.72-1.06 1.19-.92 1.32-1.19.79-.93.93-1.06.79-1.19 5.16-7.67 1.59-2.38 2.12-3.18 1.85-3.3 1.19-2.78 1.32-3.18 1.72.8 2.25 1.19.93.4 1.05.26h1.06l1.19-.4.66-.39 1.19-.93 1.99-1.98 11.24-11.51 1.99-1.99 9.65-9.92.53-.53 5.03-5.02 5.95-6.09.93-.92.4-1.06.52-.93 1.33-4.76-13.5-4.63-12.03-3.44 1.85-6.08-8.07-17.47.53-12.83.26-7.54 2.38-.79 2.65-.13 16.27 4.89 13.76 4.23 5.03 1.59h1.72l.92-.26 1.32-.27 2.39-1.19 3.57-5.42 28.84-68.66-14.42-31.74-6.09-1.72-5.42-1.72-7.41-2.52-15.74-4.49-.8-.27-23.41-7.14-13.49-3.84-14.42-3.83-21.3-6.49-7.54-2.11-8.47-2.51-1.45-.4-8.87-2.65-7.4-2.25-25.14-7.67-19.31-5.69-11.25-3.3-3.7-1.19-11.38-3.44-4.63-1.46-18.39-5.42-17.99-5.43-4.49-1.32-8.47-2.51-1.06-.4-.4-.13-.13.13-1.59.4-.39.13h-.13l-3.18-1.19-4.1-1.46-2.65-1.05-3.44-1.06-2.24-.8-15.61-4.76-8.6-2.64-3.71-1.19-12.43-3.44-6.35-1.72-2.25-1.99-12.04-3.04-4.63-.93-12.04-3.57-9.65-2.91-1.06-.26-24.34-7.41-12.97-3.84-5.68-1.72-18.52-5.68-8.34-2.52-8.6-2.64-4.63-1.46-5.82-1.72-10.05-3.17-7.01-2.12-7.54-2.38-1.85.53-8.47-2.38-7.67-2.12-8.47-3.04-3.04-1.06-5.03-1.85-1.06-.4-5.16-1.58-7.27-2.39-5.96-1.98-4.76-1.85-2.91-.93-2.11-.66-3.18-.79-3.7-.93-7.28-1.98-7.41-1.99-3.7-1.06-7.28-1.85-.26-.13-2.25-.53-9.26-2.25-8.07-2.11-1.45-.53-1.2-2.52-.66-.26-5.16-1.46-7.27-1.98-8.73-2.78-.66-.13-1.72.53-5.03-1.46-18.65-5.82-4.5-1.45-2.65-1.06-2.25-.93-2.24-1.32-2.12-1.32-3.04-1.99-2.25-1.72-5.16-5.02-3.44-4.1-1.06-1.59-.66-1.06-.79-1.19-.67-1.19-.92-1.72-.93-1.85-1.06-2.38-5.95-12.44-4.36-10.31-1.86-4.11-3.7-8.06-.79.39-2.91-6.74-9-19.19-3.17-4.89-4.63-5.69-3.05-2.91-2.51-2.11-2.78-1.99-4.1-2.38-2.12-1.32-1.45-.66-1.19-.53-4.9-1.46-11.24-2.78-12.57 41.94-2.78 10.58-.39 3.84-.8 5.95-2.51 9.92-2.91 11.38-1.19 4.1-1.72 4.36-9.92 13.89-1.85 1.19-9.93 4.5-5.42 3.7-1.45 1.46-2.78 3.7-1.72 3.18-2.38 17.72-.14.8-.52 4.1 6.35 5.82.26 1.58 2.38 5.83.4 1.58v1.99l-2.91 9.79-1.72 10.45-.66 10.31-1.19 20.77-.27 4.76.66 3.58-.26 3.83-.93 10.98-6.48 2.25-21.83-6.61 4.1 44.97-10.45 6.75-10.32 19.58-3.17 3.83-13.36 6.48-17.46-4.23-10.59 37.97-5.82 1.45-12.56-.53-7.01-18.65 4.63-16.14 1.05-3.7 4.63-16.54 4.1-14.28-16.53-5.03-2.51-.66-5.56-1.85-6.61-1.59-1.06-.53-1.33-.4-8.86-2.64-6.61-1.86 1.85-7.14.26-1.19 1.72-6.22 1.99-6.21 1.72-4.37.79-1.85 1.19-1.98-4.5-1.2-19.31-4.76-41.41-11.77-8.2-2.25-7.01-1.85-3.97-19.18-2.11-1.59-1.59-.93-1.32-.79-3.05-1.72-8.6-4.23-13.62-6.88-8.86-2.91-4.11 2.78-10.05 7.41 5.03-11.65-2.25-13.22 3.57-7.94 3.97-9 2.25-4.63 1.59-3.17 1.98-3.97 1.85-3.44 2.12-3.7.13-.13 2.12-3.71 2.38-3.83 1.98-3.05 1.46-2.25 3.04-4.23 5.56-7.41 3.57-4.36 2.38-2.65 3.97-4.63 4.1-4.23 3.04-2.91 2.65-2.51 3.83-3.44 4.37-3.71 4.23-3.3 4.24-3.44 3.96-2.78 3.58-2.65 3.3-2.51 3.84-2.78 15.74-12.04 2.12-1.58 7.41-5.56 6.74-4.89 16.14-12.17 9.26-7.01 4.23-3.18 1.72-1.32 3.58-2.38 2.51-1.99 3.31-2.51 48.94-36.91 1.06-.66 1.32-1.06-1.72-.79-1.32-.4-.79-.66-14.29-3.04-3.31-1.06-2.91-.92-23.15-9.13-8.86-3.71-7.14 1.59 5.29-17.99 1.72-6.48.92-3.31 3.58-13.23 1.05-3.7.27-1.06 1.72-6.35 1.85-6.61.4-1.46 1.98-6.74 3.7-12.83 11.78 3.44 25 7.27 6.88 1.98 11.38 3.31-6.49 23.02 20.64-9.53 1.46-6.35.66-2.51.53-2.25 2.64-9.39 2.38-8.86 1.72-5.95 4.63-15.88 5.43-19.84 3.17-11.91 1.06-4.23.4-1.85.79-3.31 3.44-12.17 2.12-7.93.79-2.52 3.7-13.76 1.72-6.61 3.18-11.51 3.31-11.64 2.91-10.58 1.85-6.75.66-3.17.53-2.52.26-.66.27-.79.79-1.59.53-.66.93-10.18 2.51-28.18.4-4.1 2.25-24.74 2.51-8.46.53-1.33.53-1.32.53-.93.26-1.19.13-.92.14-1.19.13-1.46.39-1.59 1.46-5.55 1.06-3.31.53-1.45.53-.8.53-.79.79-.66 2.38-1.46-21.17-4.76-3.43-9.92-4.63-14.29 28.7-9.39 21.56-5.55.14-3.44 1.19-2.78 1.06-2.65 1.58-5.69 1.72-5.82 10.98-39.42 2.78-10.18 2.51-8.6.67-2.51 1.58-5.29 3.18-10.98 2.64-9.66 2.91-10.58 6.88-25.4.4-1.32.13-1.33.13-2.11-.13-1.06v-1.46l-25.27 3.97.27-1.32.53-4.5.13-1.85v-1.32l-.26-1.85-.27-1.72-.26-.8-.14-.53-.39-1.32-.8-1.59-.52-1.32-.93-1.19-1.06-1.19-.79-.93-.93-.79-.92-.79-.53-.27 1.32-4.5.53-1.85 4.5-15.61.92-2.38 1.32-2.64.27-.53 1.06-1.72 1.58-1.59 2.25-2.12 11.64-11.77 12.04-12.43 13.76-13.76 4.76-4.63 10.72-10.72 10.85-10.84 4.49-73.15 5.43-5.43 13.23-13.23-.93-.92 7.01-7.01 3.44-3.31 34.39-34.39 4.9-4.9 3.7-3.7 37.18-37.17.66-1.85 3.17-3.31 4.9-5.03 1.05-1.19-7.27-1.85-8.47-2.25-3.57-.93-3.97-1.05-4.63-1.19-30.56-8.07-2.51-.67-4.76-1.32-7.14-1.98.13-.93 6.61-30.82 13.23 4.1 7.54 3.04 8.47 3.71 7.14 3.57 9.39 4.23 5.96 2.91 3.57 1.72 3.83 1.99 7.41 3.7 3.84 1.85 2.78 1.46 2.24 1.06 5.56 2.77 2.51 1.46 1.99 1.06 3.04.92 2.25.8 8.6 2.24 9.79 2.65 9.65 3.04 3.44 1.19 1.86.66 6.08 1.33 12.44 5.16 1.19.53 5.29 2.38 3.97 1.72 22.49 10.18 9.39 4.37 10.32 4.89 15.47 7.15 8.07 3.57 3.57 1.58 2.12.93 6.09 2.65 7.67 3.04-1.99-2.38-2.51-2.38-1.32-.67-7.94-4.1-1.06-.79 8.07 1.85h.66l3.58 1.46 2.51.79 7.01 2.51 4.23 1.59 7.41 2.78 2.51 1.06 3.18 1.32 3.04 1.59 6.09 3.57 6.21 3.97 5.43 4.1 10.45 7.41 4.89 2.91 15.48 10.45 1.99 1.32 3.3 2.25 4.24 2.91 4.63 3.04 1.85 1.06 1.59-2.12.66-1.06 2.91-4.1.66 2.12-.93 1.59-1.45 2.38-1.46 2.25-1.06 1.72-1.32 1.85 1.19 1.19 1.32 1.98 1.19 1.99.4 1.06.8 1.85.39 1.06.27.79 1.45.26 3.31.14 3.31-.14 3.57-.52.92-.14 1.33-.26 1.06-.27 1.85-.66 3.83-1.58 4.24-2.12.53-.13 1.45-.66.79-.4 2.25-1.59 2.52-1.98 2.38-2.25 2.38-2.52 6.22-3.96 28.31 8.59 8.33-8.06 3.97-3.58 4.76-2.77 2.25-.53 2.12-.53 2.91.39 3.7 1.59 6.22 5.03 15.61 14.02 3.17 4.63.27.26 2.38 1.2 2.91.79 11.11-2.38 51.2-6.09 22.35-1.98 4.23.13 2.65-.26.79-.14 16.54-8.59 13.23-4.63 4.1-1.46 3.7-2.38 3.05-1.19-8.07-48.02-6.88-41.93.39-4.76 11.65-134.93 12.96-150.27 6.88-12.97 9.26-4.1 19.58.8.13-1.72.26-1.19.8-3.71.92-4.63.67-3.3 2.77-12.57 2.52-12.57 2.25-10.58 1.58-8.33 1.19-6.35 1.72-8.34 12.57 2.25 4.89.93 1.99-11.38.66-3.04 1.06-5.69.4-2.51v-.8l-.14-.92.27-.4.26-.4.53-1.32.66-1.85.53-1.85.93-3.97 1.32-5.69 1.72-6.22 3.31.8 2.91.79 1.45.4 1.59.66 1.46.53 1.19.79 1.72 1.06 1.45 1.06 1.06 1.06 1.32 1.32.8.93 1.05 1.72 1.2 1.72.92 2.11.53 1.59.66 1.98.93 2.78.53 1.46.79 2.25.79 1.58.8 1.59.79 1.32 1.19 1.72.53.66.8.93 1.32 1.19 1.06 1.06 1.32 1.06 1.59 1.19 1.45.66 1.85.92 2.39.93 3.43 1.19 3.84 1.32 13.89 4.9 15.08 5.42.66.27 2.25.79.4.13 11.9 4.24 9 2.77 3.04 1.46.53.26 4.5 1.19 3.97.93 2.64.53 2.12.13 2.38.13h2.25l2.65-.13 14.42-.79h2.11l5.16.13 1.85.13 2.12.27 1.98.26 2.12.4 1.85.53 1.99.66 4.63 1.45 5.55 1.59 3.44.93 4.5 1.32 4.23 1.45 1.72.67 1.85 1.05 2.12 1.33 1.59 1.32 1.59 1.46 1.19 1.19.79.92.79 1.32.93 1.59.93 1.85.79 1.86.66 2.11.79 2.65.27.66.53 2.51.92 3.84 4.63 22.22 1.72 7.67 1.33 6.09 3.17 13.49 2.91 10.45 1.72 5.43 1.85 5.02 4.37 11.25.53 1.45 2.25-16.14 5.29 17.86 1.59 3.57 6.35 16.27 8.33-1.19 11.51 69.85-4.37 21.29-5.95 29.24-4.89 23.54-2.25 5.03-41.54 94.45 4.89 55.56.67 7.14-.14 1.06-.26.79-.66.27-.8-.13-4.1-2.39-3.97-1.05-.53 2.38-.52 2.25-.93 38.75 14.42 128.32 8.99 80.03 7.41 57.14 18.65 143.93 1.72 12.96 27.78 214.16 20.24 157.42 6.49 53.04-.4 1.06-.27.93-21.03-2.91-37.44-7.15-30.82-5.82.13-2.11.14-1.86.53-1.58.26-1.06v-1.19l-.79-.66-2.78-1.06-3.18-1.19-1.58-.4-1.86-1.06-4.89-4.1-3.04-4.1-36.12 12.96-2.78 4.5-1.98 5.16-1.59 6.61-26.98 17.47-22.89 23.01-5.69 6.35-8.33 9.39-38.76 43.39 3.7 1.46 4.24 1.72 1.19.53-2.65 1.45-29.63 17.73-6.35 3.7-23.42 38.36-2.38 4.5-7.8 15.34-.13 1.86-16.01 22.62 4.76-4.63 4.24-3.97.66-.53.66-.53 4.63-3.44 2.38-1.59 2.91-1.98 1.19-.79 3.31-1.99.66-.4 2.78-1.32 10.98-5.02 5.95-2.78 2.64-1.06 17.33 3.44 2.12.53 1.72 16-.79 4.77.79 11.64 1.59-1.06 1.72-1.19 1.98-1.06 1.33-.53 1.85-.4 13.62-2.77 1.19-.27h1.33l1.05.13 1.06.27 1.19.53 1.46.92 1.19-1.19.92-.79.8-.66 1.06-.66 1.58-.8 1.46-.39 1.59-.4 1.58-.13h1.72l1.86.13 1.98.4 1.46.52 1.58.67.8.53.66.52.53.53.39.66.27.93-18.39 18.92-4.5 21.82-.13 6.09-4.5 20.63-1.98 9.13-3.18 13.63 7.94 7.14 1.19-1.32.53-.8.66-1.19.4-1.06.53-1.45 1.06-3.84.53-1.19.39-.66.53-.66 2.38-2.51 17.73-3.58-3.04 10.19-.66 2.65-.4 1.58-.13 1.19v1.19l.13 1.46.13 1.06.27 1.32.79 1.59 1.45 1.85 5.82 6.88 2.25-1.06 1.72 1.46 1.72 3.3 2.65 14.95 5.55-13.1.53-2.11.14-2.78-.8-4.5-3.17-12.04-.27-2.51.4-2.64 1.32-3.44.66-1.33 1.19-1.98 5.96-7.67 9.92-9 1.06 15.21 3.3 6.35 34.13 12.7 2.25 2.12 16.27 14.29h.14l1.05 1.05-.26.27-7.67 6.35-1.19 1.19-.8.92-.66.67-.39.39-.67 1.06-1.19 1.59-.92 1.59-.8 1.72-.79 1.98-1.32 4.37-.27.52-1.45 5.03-.4.93-.79 3.7-.66 3.31-.14 1.32v1.59l.14 2.25.13 1.98.13 2.25v1.85l-.4 2.25-.53 1.59-.79 2.51-1.19.79-.4.93-.66 1.19-.92 1.19-1.2 1.32-1.58 1.06-1.85 1.72-1.99-2.25-1.98-2.11-3.44-3.18-2.38-2.11-23.42 82.27.93 14.56 1.72 28.7-8.87 11.11-9.39 23.81-5.82 21.3-3.97 9-3.3 12.96.39 14.68-2.51 4.63-.27 4.24-5.29 16.93 19.71 17.86-3.83-1.99-2.52-1.19-2.25-1.06-2.51-.92-3.44-1.33-20.63-6.48-25.93-7.94-16.67-5.29-14.68-4.63-3.05-.92-4.1 12.43-25.53 91.41-3.31 11.77-9.52 34.53-5.95 20.77-6.49 21.16-3.17 12.04z" stroke-linejoin="round"/></defs><use xlink:href="#c" fill="#6bacaf" stroke="#097d9b" stroke-width="5.76"/><defs><path id="d" d="M1871.98 2179.86l-8.33 1.19-6.35-16.27-1.59-3.57-5.29-17.86-2.25 16.14-.53-1.45-4.37-11.25-1.85-5.02-1.72-5.43-2.91-10.45-3.17-13.49-1.33-6.09-1.72-7.67-4.63-22.22-.92-3.84-.53-2.51-.27-.66-.79-2.65-.66-2.11-.79-1.86-.93-1.85-.93-1.59-.79-1.32-.79-.92-1.19-1.19-1.59-1.46-1.59-1.32-2.12-1.33-1.85-1.05-1.72-.67-4.23-1.45-4.5-1.32-3.44-.93-5.55-1.59-4.63-1.45-1.99-.66-1.85-.53-2.12-.4-1.98-.26-2.12-.27-1.85-.13-5.16-.13h-2.11l-14.42.79-2.65.13h-2.25l-2.38-.13-2.12-.13-2.64-.53-3.97-.93-4.5-1.19-.53-.26-3.04-1.46-9-2.77-11.9-4.24-.4-.13-2.25-.79-.66-.27-15.08-5.42-13.89-4.9-3.84-1.32-3.43-1.19-2.39-.93-1.85-.92-1.45-.66-1.59-1.19-1.32-1.06-1.06-1.06-1.32-1.19-.8-.93-.53-.66-1.19-1.72-.79-1.32-.8-1.59-.79-1.58-.79-2.25-.53-1.46-.93-2.78-.66-1.98-.53-1.59-.92-2.11-1.2-1.72-1.05-1.72-.8-.93-1.32-1.32-1.06-1.06-1.45-1.06-1.72-1.06-.93-6.21-2.25-17.6-2.38-19.58-.93-11.11-.52-7.93-.53-6.22v-4.23l.26-4.77.53-9.39.79-6.35 1.46-11.24 1.19-9.92 1.59-14.42 1.98-11.25 1.85-11.9 2.12-9.39 3.04-11.51 1.19-4.63 1.85-7.01.67-12.3.53-8.07-.14-4.5-.26-8.6.79-28.31.66-4.23 1.33-8.86 4.76-24.08 2.12-11.37 2.51-10.72 6.75-32.41 2.77-13.62 3.71-19.18 3.3-12.57 1.06-2.38-1.72-1.06-4.76-3.57-6.35-4.1-1.06-.53-9.39 8.86-.79.8-10.19 10.31-3.44.53-1.45-4.89-1.72-8.6-.93.66-2.12-2.78-1.05-.92-1.06-1.19-.93-1.19-.66-.93-.53-.93-.66-1.45-.4-1.19-.13-1.32v-1.99l-.66-1.59-.27-3.44.27-1.98h-.79l-.67-.13-.79-.27-2.25-.66-1.98-.53-1.19-.13-1.06-.13-1.72-.13-1.46-.14h-3.83l-2.25-1.45h-.66l-3.18.4-4.23.39-1.32.27-1.99.26-1.45.53-9.53 1.85-5.03 1.46-2.24.53-3.71.26-2.78.4-2.77.26-3.97-.13-5.43-.79-6.61-.93-.27-.13-4.36-.66-4.1-.53h-.93l-1.85-.53-2.25-.27-5.29-1.05-1.46-.14h-1.71l-.27.14-1.98.66-1.59-.4-12.57-3.17-3.04-.8-3.44-.92-3.57-.93-6.62-1.59-9.12-2.25-10.45-2.77-3.84-.93-2.91-.79-1.06-.27-6.61-1.98-5.82-1.72-4.63-1.06-3.31-.93-.93-.13-1.45-.4-2.65-.79-1.32-.4-.93-.26-1.72-.4h-.79l-.79.14-.8.26-.53.26-.92.67-.66.66-.4.66-4.5-10.19-.4-.26-4.49-2.25-3.84-1.72-2.25-.79-1.19-.14-3.44-.79-.93-.13 7.02-10.45.92-1.46.93-1.45.53-1.19.53-1.06 1.32-3.84.26-1.32.14-.93-.14-.92-.13-.66-.26-.53-.4-.27-.66-.39-.8-.4-5.68-1.32-.93-.27-6.61-1.98-1.86-.66-5.95 19.18-.92 3.04-2.78 9.26-1.19 4.5-1.86 6.48-1.58 4.76-.66 1.98-.67 1.2-.52.79-.67.79-.79.53-.93.4-.52.13-.8-.13-1.06-.27-.92-.26-1.06-.4-.93-.53-1.45-.79-1.59-1.06-5.16-3.7-1.85-1.33-.93-.52-1.06-.67-.39-.26-.4-.13-.53-.27-.92-.13h-.67l-.52.27-.53.52-.53.67-.53.92-1.19 2.52-2.25-.93-10.06-2.25-11.11-2.38-7.67-1.72-2.91-.4-2.25-.13-2.25.13-2.25.4-2.38.53-2.25 1.06-2.25 1.06-2.24 1.58-2.25 1.72-2.78 2.38-5.43 5.56-4.89 5.03-3.57 3.3-3.84 3.18-7.67 6.08-4.63 3.57-2.65 1.86-1.85 1.05-2.91 1.59-1.32.53-1.46.53-1.72.53.14-5.56.26-18.78-.13-7.14.26-5.56.8-3.84 1.19-4.1.79-2.11 1.32-3.31 1.59-3.31 1.19-1.72 2.38-2.38 3.71-4.5 2.78-31.35 2.64-29.23-18.92-48.28-3.3-67.2 10.84-20.11-.13-6.22 1.46-1.32 3.17-7.27.66-.93.93-1.32 2.12-1.72 7.54-3.31 3.04-2.25 2.12-2.38 1.45-2.25.66-1.98.13-3.57-1.58-7.68-.14-2.51.8-1.59 6.48-5.95.26-1.06-.79-1.59-5.69-8.59-.26-1.06.26-1.06.93-.79 28.04-22.76 4.1-3.3.93.26 1.19 2.25 1.32 1.32 1.06.4 1.19.93 1.99 1.98 1.58.79 1.72-.53 28.58-22.22.92-.79 1.72-.53 1.06.13 1.06.13 8.33 5.16 3.44 1.19 3.05.53 3.17 1.06 1.99 2.25 1.98.53 12.7-1.72 1.06-.13 3.44-1.06.66-.4.26-.93-.13-.92-5.16-7.28.4-3.17.26-.93 1.46-.79 9.26-3.57 1.98-1.72 7.28-6.88 1.98-2.65.93-1.72.26-1.58-.39-1.86-27.12-37.3-.4-1.06.13-.53 1.06-1.32.53-.4.26-.26 1.46-1.06 1.85-.92h.66l21.7 29.23.66.53.93.13.66-.4 3.57-2.91 3.57-3.3 4.5-3.84 14.29-12.57 8.2-7.27 1.45-1.46.27-.79v-.4l-34.27-22.62-.66-.66-.13-.66.4-.93 4.5-4.23.39-.26.53.13 30.96 20.77 5.42 3.83 1.59.4 1.32-.66 1.06-1.46.26-.66 11.38-32.54 2.12-2.38 1.98-.26 3.84-.53 3.57 1.72 4.89 2.77 1.19.27 1.59-.13 1.19-1.46.8-1.98.13-1.99-.4-1.85-3.31-3.97-2.91-2.25-1.85-1.32-4.36-1.98-3.31-4.24-1.99-2.64-.13-1.19v-1.33l.4-2.11 9.39-33.2.66-1.59 5.56-3.57 3.31-3.84 2.51-3.57 2.65-3.84 2.91-2.78 1.32-1.32 4.76-4.36 2.38-3.84.93-1.32 2.25-5.03 4.36-11.11 2.78-3.7 1.98-2.25 3.44-6.09 3.97-6.35 5.69-9.26.27-2.25-.27-1.05-.26-1.2-.27-2.11-1.59-2.38-4.36-1.72-3.44-1.33-1.32-.52-7.01-2.65-1.46-.53-1.59-.26-.79 1.05-3.04 3.31-7.15 11.38-8.07 13.09-.92.53h-.13l-.53-.26-.8-1.06.27-1.19 19.05-27.52-1.06-.66-9.26-2.64-4.24-1.32-1.05.52-17.33 27.78-.8.66-1.32-.39-.4-1.06v-1.59l.4-.79 9.92-14.29 6.48-9.39.53-1.06-.13-1.19-7.14-3.57-4.9-1.85-6.61-1.33-.4-.13-1.72 1.19-7.8 6.09-3.57 2.78-1.99 2.11-1.19 1.85-4.76 5.3-1.59 2.38-2.12 3.04-5.68 7.41-1.33 1.85-.92 1.98-1.19 4.24-9.26 28.7-.53 1.06-.53.4-.66.13-1.86-1.59-4.36-4.23-2.78-2.52-10.32-9.52-1.72-1.32-1.45-.4-1.32-.13h-.8l-1.19.4-1.19.26-4.37 3.7-1.45 1.33-22.49 18.91-1.85 3.44-.4.93-.39 1.45-.53 1.59-.4 2.12.26 2.25 10.32 9.78 3.57 3.44 6.75 6.35.53 1.19-.13.93-.66.79-.53.93-4.24 3.57-.66.4-.66-.27-.4-.13-5.95-6.22-1.59-1.72-19.57-20.76-3.84-3.97v-1.72l1.06-3.57 1.32-2.25 1.06-.93.53-1.06-.13-1.19-1.2-2.77-.39-1.59.26-.93.53-.66 1.19-.26 7.94-.14 2.65-.53 3.3-1.85 18.52-14.81 8.07-6.62 1.06-.79 1.98-2.65 41.15-62.57 4.49-5.42 3.97-4.36 5.29-4.1 4.77-3.05 3.83-2.51 2.38-2.12 1.59-1.72.4-1.19-.66-1.06-1.59-1.05-5.95-2.25-.27-.4v-.4l3.04-8.73 6.49-16.93 9.12-26.06 4.5-12.57.66-1.05.53-.14 2.91 1.33.93.26 1.19.4.66-.4.4-.13 1.45-1.85 3.84-10.19 1.59-5.16 1.32-3.17h.79l26.19 7.94 18.39 4.89.93.66.79 1.72 1.33 1.85 2.11 1.33 3.84 1.05 6.74 2.52 2.25-.53 2.65-1.46 1.72-.53 3.17.27 17.47 5.29 12.17 3.7 11.64 3.97 1.32-.4.4-.39.79-.66 5.82-14.29 1.59-3.04 2.51-3.04 2.25-1.86 1.06-1.19 1.59-2.64 1.05-2.91.8-3.57v-.8l-.66-.92-19.32-6.09-.66-.53-.13-1.19.66-3.17 8.2-31.88.27-1.46v-.4l.13-2.38-3.18-2.64-1.05-1.85-1.19-1.19-33.74-9.79-36.77-11.25-10.32-2.25-3.31-1.58-3.04-.93-1.59-1.59-1.45-2.51.53-2.12 1.19-3.7 3.57-8.47 1.32-4.49 5.16-16.14 2.91-9.39.79-1.72 1.46-1.59 1.98-1.46 1.99-.26 4.89 1.98 37.84 12.31 14.02 3.96 2.25.53 1.85-.39.26-.4.67-2.12-3.05-.92-2.11-.8.26-2.38 1.32-3.83 1.99.13 2.38.53h1.32l1.32-1.99 1.86-8.33-.27-1.46-1.59-.79-3.57-1.32-2.11-1.59-.53-1.45.13-1.33 2.38-1.98 2.51-.66 2.78-.66 1.99-.67 1.98-.79 1.19-1.32-.26-2.12-.66-1.06-1.99-.66-7.27-3.17-11.78-2.91-7.94-2.12-17.85-5.03-3.44-.66-3.97-1.06-2.12-1.45-.4-.8-.66-1.58 1.06-6.75 1.72-4.89 1.32-2.38 1.19-.67 2.39.27.66-.13 1.45-1.06 4.1-1.46 1.72-1.45 2.12-4.9 1.19-3.96 1.85-8.34.93-1.98 1.72-.8 6.61 2.25 31.62 10.32 10.58 4.1 4.37 1.19 2.78 1.32.79.93.4 1.72 1.45 7.28.4 1.58.66 1.06 1.32.79 18.92 6.49 1.45-.66.67-1.99.13-2.25.39-1.98 1.33-2.52 1.98-2.11 1.32-1.19 1.46-1.06 1.06-3.31 1.72-2.91 2.25-2.11 1.85-1.72 1.85-1.33 2.78-7.27.4-3.18.13-2.77.79-4.37 2.38-6.48 5.29-12.44 5.3-12.3 1.85-3.83 7.67-16.67 2.65-3.57 7.8-11.12 4.1-5.95 10.45-10.05 2.52-.53 14.68-12.04-1.72-2.51-1.72-2.25-.79-1.32-.27-1.85.13-1.86.67-2.51.79-2.25 1.32-2.51.8-3.57 1.85-1.99 1.98-1.72 1.99-.79 4.49-.66 1.46-.27.93-1.06.66-1.98-5.16-10.98-8.73-18.92.66-.79 10.18-13.62 1.06-1.33-3.57-7.14-24.74-49.47-.26-4.1.13-.27.79-2.51 2.91-2.52 22.1-12.96 5.02-.53 1.19.27.8.26 2.51 3.18 2.78 6.61 32.01 66.41.27.13 3.3-4.24-7.01-12.43-1.32-.26-.26-1.46-.14-1.45.4-2.92.26-2.77.53-2.25-.13-2.12-.13-1.72-.93-1.59-.53-1.19v-1.45l.27-.93 1.45-2.25.14-1.98-.27-1.59h-1.72l-1.19-.39-2.12-.14-.52-2.11-.53-2.65 1.45-2.38 4.76-3.04 3.44-3.71.93-2.38 3.04-2.77 3.57 1.45.93.4 31.62 29.23h1.58l2.25-.79 4.1-3.31 3.97-1.98 3.97.13 3.97-.27 5.55-2.51 5.43-3.44 9.13-10.32 8.2-9.92 3.31-9.26 16.13-8.6.14-3.43.26-7.68-6.35-13.49-5.42-11.64-13.36-11.91-14.95-10.45-1.99-.13-2.24-1.06-1.46-1.06-.53-1.05v-1.33l1.59-5.29 4.63-9.26 3.57-4.36 2.78-1.46 4.36.93 1.33.79 1.45 1.06 31.75 9.66 2.78 1.19 1.72.92 1.59 1.19 3.96 1.59 4.9 1.32 2.91.67 5.55 1.98h1.06l1.99-1.59.26-.53.13-1.05-.26-.8-.79-1.72-.27-1.19-.66-.79-1.72-.27-3.97 1.46-1.32-.13-1.99-.8-5.42-5.95-2.78-4.89-3.57-4.5-5.56-9.39-4.89-7.02-2.78-6.61-1.59-5.69 1.59-6.21.8-1.99 12.17-11.64 15.34-12.3 2.91-4.63 1.32-3.18-1.19-5.82-1.85-5.42-5.02-7.41-8.34-14.68-4.36-9.26-1.46-5.03-.26-5.16 6.74-24.73 1.59-4.9-15.08-58.2 64.29 21.03 25 4.63 39.29 2.12 53.18 1.06 12.3 10.98 57.94-10.85 22.36-4.37 24.47-2.64 13.76 1.06 8.6.52.4-.13 8.99-4.89 17.73-2.38 14.15-3.31 2.52-.53 6.48.27 10.58 1.19 4.1 1.45 6.75 1.99 4.89 1.32 3.97 3.17 19.05-.13 11.91 2.65 6.61.92 1.99.4 1.19.4 4.36 2.38 2.38 1.58 27.65 9.53 27.91 25.4-6.61 7.54-3.31 1.05 9.79 17.07 9.53 26.46 6.35 10.97 10.84 15.61 6.88 7.15 18.39 18.52 24.08 20.24 25.66 18.12 17.46 18.38 16.67 12.17 7.94 12.31 8.07 25.66 4.89 25.13 5.03 47.36 2.77 24.6 1.33 11.38 3.44 22.36-2.52 31.21-.79 10.06-.13 19.58 3.7 20.63 4.5 32.67 3.44 20.9-4.63 22.49-5.03 11.91 14.55 4.89-2.77 6.22-.53.93 5.68.52-.26-6.21.53-.66 2.38-1.33 5.82-3.04 2.91-1.19 4.63-2.51 11.25-7.54 3.3-3.05 4.37-5.15 3.04-3.31.4-.66 2.51-6.75 1.85-5.29.93-4.89-.53-3.05-1.32-3.7-.27-1.85-.79-2.52-8.47-10.98-3.17-5.95-1.06-2.91.66-.79-.93-2.78-.92-2.91-.4-4.89v-3.05l.4-4.36 1.85-4.5 2.91-1.59.79-2.64 1.06-2.91 2.12-1.46 1.85-1.98 3.18-4.5 4.89-3.04 3.31-.27 4.89 1.06 3.71 2.38 1.72.27 1.19.53-.27 1.32-.66 1.59 1.59 4.89.4 4.37.39 1.72.53 2.51 4.23 5.55 4.77 4.5 3.57 2.38 6.88.8 5.82-1.86 3.44-.52 3.3-1.06 1.2-.4.52-2.38.8-2.38-.93-7.14-2.51-5.69 10.85 1.58 4.23.93 14.02 3.7 24.87 6.75 1.59.27h1.19l1.19-.14.93-.13 1.32-.4.53.8.79.92.8.66 1.32.53 1.72.8 2.78.79 10.05 3.04 5.56 1.59 3.17.93 2.51.79h.27l23.15 6.88 4.5 1.32 4.36 3.84 2.38 2.78 2.38 3.57 1.86 3.83.66 3.05 1.58 8.86.93 7.41v4.76l-3.57 6.08-4.37 8.07-5.55 9.92-1.46 2.65-1.45 2.78-1.59 3.04-1.19 2.51-1.19 2.78-1.06 2.65-.93 2.51-.79 2.38-.93 2.91-.79 3.18-6.08 24.2-4.5 17.2-4.63 18.65-1.19 4.1-.53 1.46-.53 1.59-.4 1.19-.53 1.19-1.32 2.25-1.19 1.85-1.32 1.98-1.86 2.38-2.24 3.18-2.25 3.04-1.46 2.25-1.32 2.38-1.32 2.38-1.33 2.51-.92 2.12-.8 1.98-.79 2.52-.4 1.45-.39 1.86-.14 1.45-.26 1.72-.4 4.89-.39 5.56-.4 7.28-.13 3.57v2.78l.26 2.64.27 2.25.66 2.78.66 2.38 1.06 2.64 1.06 2.39 1.85 3.96.92 1.59.93 1.72 1.32 1.72 1.46 2.12 1.32 1.58 1.59 1.59 1.58 1.46 7.02 6.61 5.42 4.76 1.32 1.33 1.06 1.19 1.06 1.32 1.59 2.25.66 1.19.66 1.72.53 1.98.4 2.52.39 2.51.53 6.61.53 7.54.27 5.43.26 3.96.66 10.06.53 5.02 1.06 8.07.66 4.37 2.38 15.21 1.19 7.28.53 3.04.66 3.44 1.06 6.48 1.32 8.33 1.06 6.62.8 4.76.52 2.78 1.06 5.82 1.06 4.5 1.06 3.83 2.65 9 1.58 5.16 1.46 5.42 1.85 5.29.66 2.25.66 3.04.27 1.85.13 1.86-.26 1.72-.27 1.85-.4 1.59-.79 2.24-.79 2.25-2.78 6.75-1.32 3.17-1.46 3.58-1.59 3.96-2.51 5.69-1.98 4.76-1.72 3.84-1.72 4.23-1.19 3.05-1.06 2.38-1.06 2.38-.93 2.78-1.32 4.1-1.06 4.36-.66 2.78-.66 3.04-.53 2.52-1.32 5.42-.93 4.63-2.78 12.43-1.06 4.5-1.05 3.84-.93 3.57-1.06 4.1-1.19 3.31-1.19 3.17-1.85 4.23-1.06 2.39-2.12 3.96-14.02 27.65-3.7 7.01-2.25 4.5-1.72 3.04-1.06 1.85-1.45 2.12-1.33 1.59-1.32 1.72-2.65 2.91-1.98 2.11-2.51 2.78-7.02 8.07-6.21 7.01-6.48 7.41-1.72 2.12-2.12 2.38-2.38 2.78-2.78 3.17-1.85 2.12-2.38 2.51-1.33 1.32-1.19 1.19-1.05.93-2.12 1.85-3.31 2.78-3.04 2.51-5.69 4.9-5.29 4.36-7.67 6.35-2.91 2.51-2.65 2.25-3.57 2.91-3.04 2.25-3.97 2.52-6.48 4.23-3.05 1.98-5.95 3.84-3.57 2.38-2.12 1.59-1.85 1.32-1.59 1.46-1.32 1.19-1.98 1.85-1.59 1.72-1.59 1.59-1.72 1.98-1.59 1.98-1.45 1.86-2.52 3.17-5.15 6.61-2.52 3.31-2.25 2.78-1.85 2.38-1.19 1.59-1.98 2.51-7.54 7.14-3.58 2.91-3.04 2.39-2.91 2.24-2.12 1.59-2.11 1.59-2.12 1.59-2.51 1.85-9.66 6.88-2.91 2.25-3.44 2.64-1.32 1.32-1.06 1.19-1.06 1.59-.92 1.59-.67 1.45-.79 2.12-.53 2.12-.4 1.85-.26 2.25-.26 2.11.39-.13.53-.26.4-.53.53-.79.39-.67.53-.53.93-.52.66-.4.66-.13.53-.14.53.14 6.75 2.77.79-.79 13.49 4.63 6.09 2.12-.66.53-4.23 3.3-1.59 1.46-1.46 1.32-.79.79-3.31 3.31-1.85 1.99-2.51 2.77-3.05 3.44-3.44 4.24-3.17 4.23-4.23 5.82-2.25 3.17-1.85 2.78-1.33 2.12-1.59 2.51-1.98 3.04-3.84 6.88-1.05 2.25-1.86 3.71-3.96 8.33-5.03 12.43-.53 1.72-1.85 5.56-2.38 7.8-3.44 11.64-5.43 12.04-3.57 8.87-.92 2.24-.27.53-1.06 1.85-1.32 1.59-1.59 1.59-1.45 1.32-1.46.93-.92.53-1.33.53-1.06.26h-2.38l-1.19-.13-1.06-.27-2.64-.13-17.73-4.36-7.41-1.86-2.38-.66-1.98-.39-10.98-2.78-4.1-.53-11.38-3.31-4.5-1.32-3.83-1.19-11.64-3.44-6.09-1.59-1.72-.53-6.74-1.98-22.23-6.22-1.59-.53-14.94-4.23-23.82-6.61-25.39-7.28-18.92-5.16-20.77-5.95-15.35-4.37-4.89-1.45.66-2.12 1.32-3.44 1.06-2.38.93-1.98.79-1.85.66-1.46 1.59-4.76 6.48-21.03 11.11-37.04 5.83-18.39 3.7-12.57 4.23-14.81-3.17-.8-2.25-.53-1.72-.13h-1.99l-3.83.27-1.72.13h-3.04l-1.72-.13-1.06-.27-2.52.13-.52-.13-3.84-.13h-3.84l-3.3.13-5.82.4-9.79.53-13.1 1.06-15.08 1.72.26.92v1.06l-.26 1.19-8.6 26.99-1.85 6.21-.8 2.38-6.48 22.62-4.89 16.28-3.31 9.78-1.32 4.1-.53 1.86-.4 1.58-.26 1.33-.27 1.19-.13.79-.26 1.59-.53 2.11-.4 1.59-1.06 3.97-.92 3.44-1.99 6.61-.66 1.72-.66 1.72-1.06 2.25-.66 1.06-.4.93-1.19 1.85-.13.13-1.32 1.85-1.59 1.85-1.72 1.72-2.12 2.12-2.38 1.72-1.19.66-3.31 14.55-66.14 241.42-11.24 39.68 101.72 28.57h2.52l5.55 9.13 1.86 3.44 2.38 6.22.66 1.98.4 3.97.13 3.97-.66 3.7-.8 1.85-.66.67-.92.26h-3.05l-14.81-4.76-33.87-9.92-42.07-11.91-15.08-5.16-9.92-2.91-21.3-6.21-31.35-9.13-2.38 3.97-.53 2.11-.26 4.5-.66 4.5-1.99 5.42-.79 1.19-1.59 1.85-2.12 1.19-8.73 3.44-.79.53-.79.93-.8 1.45-1.06 3.58v2.24l1.59 6.62 1.85 8.46.14 1.46-1.06 3.97-.8 1.32-3.3 4.23-1.33.93-11.24 5.29-.53.53-1.59 2.78-1.32 3.57-.53 1.85-1.45 7.28.13 1.32.53 5.56v1.98l-.4 2.12-4.5 13.09-.79 3.71-.13 4.1.26 2.51 1.19 12.57 2.65 9.26 1.58 3.17 6.49 6.62 3.44 3.04 12.03 12.83.4 2.12-.53 2.77-1.98 5.69-6.09 20.24-2.64 6.35 6.88 19.84 32.27 46.04 9.79-5.43 5.03 2.12-3.04 1.06-1.86 1.45-1.58 1.46-1.72 2.64-1.99 2.91-1.32 2.65-1.85 4.76-.8 2.38-.39 5.43-.8 5.55-1.45 3.18-.93 1.58-1.58 1.33-1.86.92h-1.98l-1.46-.39-.79 2.51-2.51-2.25-5.82-4.76-5.16-3.18-1.85-1.06-4.11-1.58-23.94-7.01-8.2-2.25-33.34-10.32-15.21-3.84-46.17-12.3-1.06 3.04-7.67 25.93-6.08 21.03 32.27 29.37 4.77 5.56 8.46 11.37 2.52 3.97 4.1 8.73 2.11 5.82.8 4.37.53 9.65-1.33 4.37-2.64.26-6.48-1.58-12.57-.27-8.86 1.32-12.31 6.09-18.52 7.54-11.77 4.23-2.38-2.78-3.44-6.08-6.88-14.02-2.78-5.96-11.24-23.94-1.33-3.7-1.85-5.03-3.17-16.67 1.19 18.79 6.61 20.37-2.78 8.86 12.17 34 4.37 12.43z" stroke-linejoin="round"/></defs><use xlink:href="#d" fill="#09757a" stroke="#00465f" stroke-width="5.76"/><defs><path id="e" d="M1532.14 589.97l-3.44 7.54-21.3 66.28-7.94 24.6-10.58 42.46-10.19 31.22-.92 3.44-1.85 9.13-1.59 5.69-2.38 6.21-11.11 24.21-1.99 7.41-.79 5.82-1.19 5.69-8.87 26.32-3.04 7.28-3.31 7.67-13.09 24.47-7.54 13.49-14.55 26.46-4.37 6.22-.79.66-.93.26-1.45-.26-1.99-1.19-2.38-1.72-.66-1.72-.13-.53.26-1.98.66-2.65 5.82-12.96 1.72-4.37 2.78-9.13.53-5.42 18.78-43.65 9.26-22.89.27-13.62.26-13.36-3.04-4.1.66-12.57 1.99-12.17-1.86-8.6-.39-3.3 1.19-9.26 3.17-21.43 1.06-23.68 1.46-25.14.26-10.98.79-12.56 2.52-8.86.79-3.05 5.95-15.87 17.07-70.11 7.14-25.13 5.43-14.42 5.55-14.42 10.19-30.56 6.48-3.04 8.07 2.25 2.51-1.32 3.05.13 2.11 1.06 1.59 2.38.53 3.57-.53 4.63-2.78 8.6-3.3 14.15-1.2 11.51v7.01l.4 10.85.53 12.04.53 6.21.53.93h.79l.66-.13 1.19-3.05 18.79-24.34 12.3-23.15 7.01-14.41 10.32-30.83 6.35-23.81 8.07-25 6.35-17.06 12.3-30.43 9.66-20.24 3.31-7.01 2.64-5.68 9.26-14.56 11.25-16.4 11.77-14.42 4.63-4.1 11.38-10.32 13.36-9.26 9.26-1.05 6.35-.66 24.47 2.91 3.44.39 14.02 3.57.8.27.66.13 3.97 1.19 9.12 4.23 8.6 7.54 9.13 7.94-8.33 8.73-13.23.93-16.41 7.93-10.45 5.96-8.2 14.68-21.43 2.91-3.44 2.91-7.14 21.69-13.49 7.41-21.3 14.69-22.49 19.18-15.21 11.9-8.47 9.13-3.97 6.48-.93 1.46-26.19 73.02-29.1 82.8-1.85 4.1z" stroke-linejoin="round"/></defs><use xlink:href="#e" fill="#09757a" stroke="#00465f" stroke-width="5.76"/></svg>