<svg width="5.38in" height="384" viewBox="0 0 3873 2880" xmlns="http://www.w3.org/2000/svg" xmlns:xlink="http://www.w3.org/1999/xlink"><path fill="#fff" d="M0 0h3873v2880H0z"/><defs><path id="a" d="M2610.28 1110.95l-39.21 4.96-4.6.73-4.36.72-1.33-1.69-7.5-8.35-11.62-12.83-1.34-1.09 1.58-7.98 4.11-1.21-.12-1.82-.24-2.9-.36-1.58v-.24l-.12-.6v-1.46l.84-3.51 1.7-6.89 1.09-5.09.84-3.14.61-2.79.6-2.9v-.36l-.12-2.91-1.09-8.71-2.05-15.01-1.94-15.25-2.3-17.18 23.72.48 6.42.73 26.38-.49v-.84l27.36-1.21.12-1.21v-2.67l-.12-1.45 25.41-.36 26.63-.73-.12-6.65v-2.06l62.93-1.94 7.39-1.81 4.23-4.24.73-1.09.36-.84v-.85l-.12-.61-.36-.48-.36-.36-1.09-.61-2.79-.72-7.02-1.82 50.35-.24 9.32 1.09h15.73l1.58-.12.72-.25.97-.36 1.21-.6 1.33-.85.97-.85.97-.85 1.09-1.21 1.57-1.08 1.21-.25 1.34.12 6.89-.12h.12l10.66-.12 11.37-.48 11.62-.24 13.92-.37h1.21l14.89-.36 9.44-.24 6.05-.12.36 2.54.49 2.06 1.45 5.56 1.81 7.38 1.7 7.87 3.27 13.43 8.95-2.17 2.54-.73 3.39-.48 1.82-.13h4.84l.61-.12 1.45-.36 1.21.36 2.42-.36.12.24.12.12.36.37.49.36.72.24.73.12 2.18-.48 2.42 7.62.48.97.61.97 1.21 1.33-.61.73-1.33 1.57-2.9 3.75-3.39 4.72-.73.97-.48.24-.61.36-2.3.49-2.3.24-7.74 1.09.12 1.33.12 1.09.12.6.36.49 1.09 1.81 1.7 2.3.85.97 3.75 5.08 4.23 6.18h.73l.73.36.36.24.97 1.21 1.93 1.58 3.27 2.66 3.39 2.78-.6.85-.85 1.09-2.66 3.51-.61.72-.85.73-2.05 1.69-2.91 1.82-.85.48-2.3 1.09-1.81.49-2.79.48-11.49 1.57-11.26 1.33-.36.13-26.87 3.38-29.29 3.63-2.3.37h-.48l-3.88.36h-1.21l-2.18-.12-2.54-.48-2.66-.61-2.66-.97-1.7-.72-2.42-1.34-6.17-4.11-.61-.6-1.93-1.21-9.93-7.15-.84-.36-1.46-.72-2.66-.97-.85-.12-2.05-.12-1.46.12-1.81.12-7.14.97-.73.24h-.36l-.97.48-1.57.97-.25.73-.12.48-.12.61v1.93l.97.49.61.96 1.08 1.21.97 1.09 3.03 3.15 1.21 1.94 1.21 1.93 1.81 5.69 2.79 12.22.72 2.67-14.03 1.81-6.54.85-6.66.84-7.38.97-7.14.85-34.86 4.48-40.54 5.2-5.93.73-5.81.72-25.66 3.27-14.16 1.94-13.56 1.69-14.4 1.94-9.44 1.21-2.06.24z" stroke-linejoin="round"/></defs><use xlink:href="#a" fill="#9dc8ca" stroke="#9dd7f0" stroke-width="5.76"/><defs><path id="b" d="M3168.96 2493.47l-11.01 1.69-15.49 1.82-8.96 1.09-10.05 1.08-7.62.85-6.42.85-1.57-11.86-.97-7.99-1.09-7.38-1.21-9.68-1.69-12.35-.12-.36-.85-6.53-1.33-9.93-1.09-8.83-.85-5.45v-.6l-.48-2.3-.61-3.51-.84-3.39-.73-2.78-.85-2.79-.72-2.3-1.46-3.87-1.69-4.23-1.7-4.36-1.57-3.75-2.54-6.54-2.78-7.02-2.06-5.2-2.06-5.08-1.45-4-1.82-3.99-1.69-3.51-2.06-4.36-1.09-2.18-1.45-2.78-1.7-3.15-2.29-3.75-2.67-4.23-2.3-3.63-2.3-3.51-2.42-3.39-2.66-3.63-2.9-3.63-3.03-3.87-2.3-2.79-2.06-2.54-1.69-2.06-2.06-2.3-1.81-1.93-2.79-2.54-2.06-2.06-2.9-2.42-3.39-2.78-4.11-3.39-5.45-4.24-5.08-3.99-5.45-4.6-4.48-4.24-5.08-4.96-4.48-4.72-3.51-3.63-2.54-2.54-4-4.24-3.75-3.99-3.99-4.11-3.15-3.51-2.9-3.15-2.18-2.9-1.94-2.55-1.81-2.54-2.3-3.39-2.42-3.75-4.72-7.74-2.55-4-2.54-4.23-2.42-4.48-1.57-3.15-1.7-3.51-1.81-4.11-1.58-3.87-1.08-2.67-1.46-3.87-.97-3.02-3.14-11.26-8.11-29.53-2.66-9.68-2.67-10.16-.48-2.18-3.15-11.62-2.78-10.53-.12-.36-1.82-4.84-.84-2.66-.85-2.79-4.24-14.28-1.09-4.6-.72-4.23-1.09-8.47-.61-4.36-.97-7.26-1.09-8.72-2.05-15.85-.85-5.69-1.33-6.77-.36-1.21-.13-1.09-.24-.97-.24-.97-1.21-4.36-1.82-5.93-2.05-6.53-1.21-4.96-.12-.12-.13-.85-.24-1.09-.97-4.72-68.5 9.56-67.54 9.32-84.23 11.74-53.86 7.62-78.91 9.8-.73.13-12.35 1.08-17.42 2.55h-1.34l-37.27 5.44-5.93.85-24.33 3.15-6.05.72-.97.12-50.95 7.39-3.88.24-1.69 4.23-1.33 2.67-2.79 4.71-3.75 4.12-2.66 3.87-2.54 3.51h-1.82l-5.57.73-4.35.48 2.05-5.81 6.18-5.08 2.42-3.99 3.26-4.24 4.12-6.78 3.15-4.72 1.69-2.66v-2.54l-1.94-2.18-4.72-2.3-7.86-1.45-7.75-3.15-7.02-3.02-1.81-1.45-2.3-1.21-1.82-.97-1.57.48-3.75 1.7-4 .36-4.48-.48-1.69-1.58-4.6-3.75-1.21-.85-2.42-1.69-2.66-2.78-2.06-3.76-2.66-3.87-4.12-3.99-3.75-4.72-5.08-6.05-3.88-4-3.02-2.54-1.82-1.81-1.45-.97-1.94-1.09-2.78-1.33-1.7-1.09-2.54-1.7-3.63-2.54-3.87-2.9-2.91-2.42-2.9-2.91-3.75-1.69-4.12.97-3.87.6-2.18 1.09-5.69.85-4.23-.73-2.42-1.45-2.18-3.63-.85-5.2-1.82-4.12-.72-4.84-.36-4.72-.25-4.48.12-5.56.73-6.3.48-4.35.49-6.3-.97-3.26v-6.05l-.48-4-.97-4.96-.37-4.6.13-4.35.96-4-.36-3.87.97-4.24 2.06-3.87 6.9-3.99 6.05-1.94 5.08-1.57 2.78-.97 6.06-.85 3.14.49 1.94 1.45 1.21 1.33 1.21.97 1.57.48 1.82-1.57.6-2.54-.48-2.54-2.06-4.72-2.9-6.78-3.75-5.45-2.79-3.75-4.36-4.35-2.9-2.55-3.27-3.63-2.9-3.02-4.12-5.45-3.27-7.26-3.87-6.41-1.94-5.09-1.93-3.75-.24-4.35-.49-5.21-.72-3.51v-5.93l-.61-5.2-1.21-4.36.12-2.78-.36-2.91-.12-2.42-3.03-53 .61-3.03v-2.78l.6-2.42.61-1.94.6-1.93.85-3.03.85-1.94.72-1.81.97-1.82.97-1.57 1.21-2.3 1.33-2.66.73-3.75.6-1.94.61-1.81.6-2.55.61-2.3.48-2.05.49-2.79.6-1.45-.97-3.27-.24-2.17-.24-3.51-.49-2.91-1.21-4.96-.72-3.15-.37-1.93-.24-2.91-.6-3.99-1.21-3.39-.61-2.9-1.57-3.88-.24-2.17-2.18-4-.24-4.23-1.82-4.84-1.21-5.45-1.21-4.48-.73-1.69-.12-1.09-.6-1.94-.61-1.69-.48-2.79-2.3-5.08-1.82-3.14-.84-1.46-.85-1.69-.24-.73-.25-1.33-.48-.72-.36-.73v-.73l.36-.96.48-1.34.49-1.57.36-2.42.73-1.33.24-1.94.24-.48.49-1.09.96-1.33 1.09-1.57 1.09-2.18.61-2.18 1.33-2.42 1.21-2.3 2.54-6.17 1.45-3.39 2.42-6.9-.84-6.9-9.44-16.82-14.04-26.02-14.04-23.84-3.15-16.46 1.09-8.95 20.09-15.86 13.92-12.34 2.9-1.57 16.83-8.6 6.9-3.14 8.59-7.14 9.2-11.02.6-4.35-2.78-28.2 2.3-41.27 4.96-46.35-7.87-18.63-1.69-4-1.69-3.39-5.21-8.35-.24-1.69-3.63-17.79-26.39-32.43-1.09-1.46-.48-.96-2.66-5.45-.49-.97-1.81-3.26-.24-.25-10.41-17.91-1.45-3.14-.73-2.42-8.35-19.61.72-13.92h1.34v-.84l-.61-.85-.61-.73-8.95-11.25-1.21-1.45-4.96-3.76-7.51-5.68 6.66-7.51 2.54-3.26 5.81-2.67 3.63-.48 2.06.73 3.63.36 5.2-.61 2.67-3.02 1.33-5.08.97-5.57 4.47-10.77-.48-5.69.73-2.9-2.79-2.18-5.81-13.07-5.2-13.56-6.42-16.94-22.02-41.75-3.15-14.52-4.84-12.71-.24-.61-.97-5.08.85-5.93v-.84l.24-12.71 2.66-16.7 2.9-21.66.49-24.33-2.42-55.18 1.69-38.73 7.39-30.62.6-1.21.97-1.93.97-2.06 3.99-4.84 4.6-6.42.24-3.51 11.14-14.76 3.87-7.87 8.47.25 8.35-17.79 24.33-40.18 4.48-2.79 6.9-7.86 5.2-1.82 4.12-2.78 12.1-1.45 16.1-7.75 48.89.49 20.46.36 9.56-.24 38.85-36.55 18.03-25.29-2.17-26.02 4.84-3.15 8.23-5.44 2.05-1.34.25-.12.72.49 49.38 32.79 2.18 3.03 3.51 5.69 1.58 2.42 15.49 24.68 9.08 8.84 13.07 9.92 2.05.85 12.59 5.57 3.27-1.33 18.64-15.37 11.37-9.2 2.3-2.66 2.91-3.27 2.18-4.24-1.58-6.05-2.17-1.33-2.3-3.02-.61-2.06-2.66-4.72-1.45-6.05 1.93-4.6 1.7-2.78 1.93-3.63 2.18-3.51 4.72-3.27 3.27-.24 3.03 2.05 3.26 3.75 2.42 1.46h2.42l2.06-1.09.37 1.09 2.66-.85.85 1.21-.85 1.33-.61 1.82 2.67.6 2.42 2.91.72 2.17-1.09 2.06-1.21 2.3-2.66-1.21-2.78-3.63-2.3-2.66-1.82-.61-.24 1.09.48 1.45.85 2.06v.36l-.36.25-.49.12-.72-.12-.49-.49-1.21-3.02-1.09-2.42-1.69-1.09-.97.36-.97 2.42.37 1.45.6.61 1.7-.24 1.33 6.41-3.03 2.78-.48.49-.37.12-.36.12-.36-.24-.24-.37-.13-.36-.24-.6-.72-3.39-.73-4.96.48-5.45-.48-2.54-.36-.61-.61.13-2.9 3.14-3.03 5.81.61 5.57 2.18 5.69 2.9 1.69 2.9.97-1.08 2.18-4-.97-1.94.24.73 2.06 5.21 1.69 5.08-.85 4.23-1.93 17.07-10.29 5.33-4.23 2.66-2.67 2.3-2.3 2.66-6.77-1.21-4.72-2.54-6.17-.49-8.72 5.09-7.14 5.32-1.69 4.72 2.3 10.29 2.9h3.27l4.36-3.15 8.83-13.07.61-3.26.24-1.45.85-5.09.96-3.75 3.88-5.69 4.96-2.42 7.26-8.47 4.24-3.39 1.69-2.66 2.91-3.03 6.41.97 3.99 2.67.49 2.54.48 3.14 1.09 2.79.85 4.11.97 4.12.36 3.75-.24 4.35-2.06.85 1.7 4.48.72 4.72-.48 2.54-1.21.36h-1.82l-.36 2.18.73 4.84-1.22 1.82-3.26-1.33-2.3-.37-.61 2.06 1.7 6.29-1.82 6.3-1.33 2.17-1.45 5.33-2.3.6-2.91.97 2.18 3.88-1.09.96-2.05.49-2.43-.12-.72 2.66 2.66 2.9 4.36 1.58-.97 3.26-2.3.73-2.78 1.69-1.58 1.34h-1.57l-2.06-4.12-.97-3.87-1.57-5.08-2.18-3.63-1.45-3.39-2.06-4.6-1.45-1.09-1.57-2.18.24-1.21.85.36 1.93 1.46.85.48.85.24.24-.12.24-.12v-.24l-.12-.24-.36-.73-.12-.24.12-.24.24-.13h.24l.24.13 1.58.84 1.69.61 1.82.36 2.05.12 2.18-.24 1.45-.97.49-2.06-1.82-1.81-2.18.73-2.3.96-1.45-.24-.48-1.21.72-.48h.85l2.54-3.15.61-2.42-.36-3.15-1.34-.96-.96.6-1.09-.12-.73-2.06-.73.24-1.33-.6-2.05-1.82-1.94-.36-.97 2.3.24 1.45.97.49.97.36v1.21l1.33 1.21.85.85.36.97.36.96 1.34 1.33-.73 1.09-1.45.61-5.69-1.7-5.21-.12-4.23-1.33h-3.27l.12 1.7 2.3 1.33 2.18 1.09 2.78 1.69 4.97 7.63 1.57 2.9 2.54 4.24 1.69 2.66 1.7 4.48 2.78 6.29 1.21 2.18 1.46 4.11 9.56 14.16 3.14 3.63 2.67-.36 2.42-3.75.12-4.24-.24-7.02 1.21-9.56.96-7.86 1.7-5.93 2.78-8.23 3.15-6.05 1.45-2.06 3.15-7.51.6-2.78 1.46-3.63 1.69-2.54 1.82-1.94 1.69-1.21.61 1.46-1.09 2.42-2.3 3.02-2.18 2.66-.24 1.58.48.84.36.25.61-.13 3.75-5.56 3.27-5.08 2.78-6.9 4.36-6.66 4.6-5.08 2.18-3.87 3.63-8.6 7.5-6.65 2.79-3.39 2.54-5.21 3.27-3.75 6.77-6.29 2.91-3.03 3.51-2.66 3.63-1.45 2.78-.48 3.63-.97 3.63-.85 6.9-.73.49-.12.36.12h.12l.12.13.12.12-.12.12-.12.12-.24.12-.36.24-.61.24-4.24 1.34-4.11 1.08-4.12 1.82-3.26 1.45-3.88 2.18-2.78 1.69-3.03 1.82-2.3 1.69-.96.73-.12.73.48.24 2.18-.61 31.47-15.85 1.45-1.69 4.84-.73 5.45-.73 2.78-.36 1.57-8.59.49-8.35-.24-8.84-.13-8.95 2.06-10.29-.12-7.74 1.21-9.2.24-8.23-.48-6.17 1.21-9.44 1.45-11.14 2.66-8.22 3.64-3.39 5.08-3.63 3.75-4 4.24-4.23 4.6-8.96 1.45-7.14.24-4.84v-9.32l2.06-13.43 2.3-7.75 3.27-6.77 3.75-3.15 3.87-2.18 4.6 1.09 4.6 2.91 5.57 2.05 4.47-4.35 1.46-5.81v-7.51l-1.09-8.1-2.3-9.56-.49-4.24 1.58-5.33 3.27-4.96 4.72-3.51 6.05-2.9 1.33-.61 8.35-2.42 10.65-4.11 9.44-4.6 6.54-2.42 9.56 1.69 4.11.25 4.24-1.94 4.36-5.08 3.38-.49 99.61-11.37 1.58-.37.84-1.69.73-2.06.73-2.3 1.45-4.84.12-.36 1.09-4.24.85-2.9 1.45-5.81 1.09-4.23 1.33-5.09 1.09-4.11 1.69-6.3.49-2.17 2.9-11.02 2.06-7.5 1.09-4.11.6-2.55-.12-2.42.73.13h3.39l.6-.13 3.76-.48 3.26-.36 5.21-.61 4.48-.48 10.77-1.21 2.18-.37 3.87-.48 2.42-.24 6.66-.73 6.53-.72 14.28-1.7 14.53-1.69 5.69-.73 14.28-1.57.84 6.05 2.55 19 1.69 12.22.61 5.21 1.21 9.56 2.78 20.57 1.09 10.65.6 4.23.37 4.12 2.05 17.79 1.09 11.13.37 2.79.24 1.57.73 8.23.72 4.72 1.82 14.28 1.21 9.2 1.45 11.25.61 4.12.24.84.12 1.45.72 3.39.73 4.36.61 3.39.48 3.51v1.33l.61 5.93 1.21 10.16.36 3.39-.12.12-.24 7.14-.61 9.2-.48 9.08v6.17l-1.7 2.3-1.69 2.54-2.91 4.12-2.06 3.02-.12 2.3v1.57l.12 1.21.85 7.39 1.7 12.58.12.61.24 1.21.12.36.12.24.49.85.48 1.45-.36.12-9.93 1.21-16.94 2.06-9.93 1.09-18.76 2.18-7.02.84-3.87.73-.73.12 8.72 88.22 3.75 37.64 4.84 50.83 5.69 47.44.12 1.09.36 2.3.61 8.83.12 1.33.12 1.33 3.63 19v.61l.97 4.72.24 1.33.61 3.51 3.15 18.03.6 4.6.61 4.11.36 2.79 1.21 8.95 3.51 28.56 1.33 10.53 2.18 21.18.24 1.21.24 1.82 1.09 9.07 2.18 17.19 1.33 11.37 1.21 9.44.61 5.93 1.81 15.25.61 5.81.72 6.17v.24l6.66 49.02 1.7 14.52 2.05 15.85.37 3.63.96 7.5.25 2.67.36 3.99.48 4.12.25 4.47.36 5.21-.36.72.6 8.35.73 31.23v1.33l.12 3.75.24 2.18.61 1.45 1.45 3.15 1.69 3.51 1.21.12 13.19-.61 2.06-.24.12.97v2.18l-5.93.12-6.65.12-2.67.24.37.61.72 2.29.61 2.55.48 2.54.36 2.05 1.09 8.84 1.94 14.88 2.42 19.73.12 1.33 3.51 28.56.37 3.27.12 1.33.6 4.96 2.06 15.73.85 8.48.84 5.2 24.09-2.78 15.49-1.7 9.56-.97 23.12-2.66 11.98-1.09 21.3-2.42 1.7-.12 3.63-.36 10.41-1.21 1.93-.12 9.69-1.09 9.19-1.09 1.21-.12 26.03-3.15 10.77-1.45 30.5-3.99 83.75-8.84 2.18 16.1 6.41 51.07 2.3 20.33 2.42 21.3-6.77.84-9.44.97-10.77 1.45-20.94 2.3-15.01 2.3-25.18 3.51-.84.12-.61.37-.48.24-.85.85-.6.6-.61.73-.48.84-.37.73-.36 1.09-.12 1.09v1.45l.73 7.26 2.66 22.75 1.45 11.38 1.57 14.04 1.58 13.31 1.21 12.22 1.45 12.22 1.57 12.59 1.33 13.55.37 2.79.12.97 1.93 15.24.85 8.23.85 7.39.36 2.78.12 1.45-40.78 3.27-5.69.6-4.84.61-6.18.97-6.41 1.21-26.63 4.48-8.47 1.45-19.97 3.51-10.41 1.69-24.45 3.87-35.1 4.84-8.83 1.34-1.82.24.12.85 2.55 19.84 1.33 10.53 1.57 12.34 2.18 16.1.48 5.08 1.7 12.59 4.72 38.24 3.27 28.56 4.35 37.52 7.51 66.07 1.09 9.56.72 7.14.73 6.54.48 2.9 102.76-11.49 1.21 10.4 1.09-1.33.48-3.51 1.09-3.14v-.12l97.43-2.42 35.58-7.51 30.87-6.53 19-4 1.09-.12.97 1.45 14.88-1.93 92.59-13.43h1.09l.24.12.49.48.24.85 2.18 15.25.85 8.1 4.72 67.41 4.47 4.12 1.21 1.93.85 1.82 1.94 1.81 7.99 3.75 6.41.61-.12-.73v-.96l.24-.73.24-.61.85-.96.73-.73.36-.48.24-1.09v-.61l-.12-2.42-.24-1.45-.24-.73-.12-.72-.73-1.21-.48-.61-1.34-.12h-1.08l-.61-.48-.48-.37-.49-.72-.36-.61-.24-.6-.25-.97-.12-1.82-.24-.96v-.85l-.36-2.42.12-.97.73-1.69.96-1.58 1.21-1.57.85-1.33.97-1.21 1.45-.97 1.45-.73.97-.36 1.94-.6 1.45-.25h2.54l1.09.37h2.42l1.46-.85.84-.36.85-.49 1.82-.6.84.12.61.24.85.73.48.6 1.21 1.09 1.33 1.09 1.57.97 1.7.72 1.21.61-.12 1.45-.12 1.33.24 1.45v1.46l.12.6.24.61.37.36 2.54 1.45 2.05 1.33.37.49.84.48.37.24.12.37.12.6-.12.61v.6l-1.33 3.75-.12 1.7.12 1.57 1.45 2.78.61 1.09.36.73.36.73 1.21.72.61.36v.85l.12.24 2.78-.6 4.48-.61 15.85-1.93 7.39-.97 7.99-.73 6.29-.84 11.74-1.46 1.57-1.09.12.85 6.06-.6 10.65-1.33-6.42 4.35-2.66 2.06-2.66 2.42-2.42 2.18-2.18 2.18-2.18 2.78-1.33 1.94-3.15 5.56-1.21 2.67-1.21 3.14-.97 2.79-.72 2.42-.37 2.3-.48 2.17-.37 1.82-.36 3.75-.36 7.75-.49 18.03-.24 8.11-1.21 21.29-1.33 19.61-1.09 15.97-1.09 18.4-.97 13.43-.6 6.05-.85 4.96-1.21 4.85-2.18 6.17-1.57 3.75-2.42 4.48-2.06 3.39-3.15 4.72-2.54 2.78-2.78 3.39-15.49 17.79.48 3.39.49 4.47-5.45 66.93-1.45 7.74-3.76 8.47-9.07 16.1-5.45 14.4-19.24 47.68-2.42 6.05-3.63 10.53 6.53 4.24 6.78 4.23 11.62 7.75 4.48 3.75 1.93 2.06 1.58 1.93 1.57 2.3 2.66 4.96.24.49.73 2.05 1.33 5.21.97 6.65 1.94 18.28.72 5.69 2.54 21.42.25 1.81.36 3.15 4.24 38.24-24.7 2.78-4.35.37-20.82 2.3-24.21 2.42-30.37 3.26-42.97 4.48-7.87.97-8.71.97-11.14 1.57-8.23 1.21-3.75.61-38.85 3.99-14.4 1.45.6 5.33.49 5.68.48 4.48.73 7.63.24 2.42 1.94.97-1.82.24.61 6.17.24 2.3-.49 2.78-.24.97-.48 1.45-.61 1.33-.97 1.33-.84 1.21-1.09.97-.85.85-2.3 1.45-1.33.49-1.57.24-6.54.97-8.35.72-1.45.24h-.97l-4.12.49-6.77.6-7.15.61-6.05.48h-15.01l-13.31-.24h-11.25l-23.24-.73-6.18.13-5.68-.13-2.42-.12-7.51-.24h-12.95l-4.72.49-1.81.36-.73.12-2.3.24-1.82.97-3.87 1.45-1.93.85-1.7.97-2.3 1.21-1.45 1.09-2.66 2.05-2.67 2.18-4.23 3.75-10.29 9.2-.48.36-6.66 6.18-4.84 4.35-17.07 15.37-7.87 7.02-9.19 8.23-8.48 7.63-12.95 11.86-10.4 9.31-2.06 1.94-2.06 1.94-3.27 3.14-1.33 1.33-2.3 2.55-5.44 6.41-9.81 11.74-2.54 2.9-2.78 3.51-2.18 2.54-6.54 7.87-2.42 2.78-3.15 3.88-7.02 8.47-3.38 3.99-27.6 33.16-2.78.36-1.33.24-1.7.25z" stroke-linejoin="round"/></defs><use xlink:href="#b" fill="#9dc8ca" stroke="#9dd7f0" stroke-width="5.76"/><defs><path id="c" d="M2562.11 1117.36l4.36-.72 4.6-.73 39.21-4.96 2.06-.24 9.44-1.21 14.4-1.94 13.56-1.69 14.16-1.94 25.66-3.27 5.81-.72 5.93-.73 40.54-5.2 34.86-4.48 7.14-.85 7.38-.97 6.66-.84 6.54-.85 14.03-1.81-.72-2.67-2.79-12.22-1.81-5.69-1.21-1.93-1.21-1.94-3.03-3.15-.97-1.09-1.08-1.21-.61-.96-.97-.49v-1.93l.12-.61.12-.48.25-.73 1.57-.97.97-.48h.36l.73-.24 7.14-.97 1.81-.12 1.46-.12 2.05.12.85.12 2.66.97 1.46.72.84.36 9.93 7.15 1.93 1.21.61.6 6.17 4.11 2.42 1.34 1.7.72 2.66.97 2.66.61 2.54.48 2.18.12h1.21l3.88-.36h.48l2.3-.37 29.29-3.63 26.87-3.38.36-.13 11.26-1.33 11.49-1.57 2.79-.48 1.81-.49 2.3-1.09.85-.48 2.91-1.82 2.05-1.69.85-.73.61-.72 2.66-3.51.85-1.09.6-.85-3.39-2.78-3.27-2.66-1.93-1.58-.97-1.21-.36-.24-.73-.36h-.73l-4.23-6.18-3.75-5.08-.85-.97-1.7-2.3-1.09-1.81-.36-.49-.12-.6-.12-1.09-.12-1.33 7.74-1.09 2.3-.24 2.3-.49.61-.36.48-.24.73-.97 3.39-4.72 2.9-3.75 1.33-1.57.61-.73-1.21-1.33-.61-.97-.48-.97-2.42-7.62-2.18.48-.73-.12-.72-.24-.49-.36-.36-.37-.12-.12-.12-.24-2.42.36-1.21-.36-1.45.36-.61.12h-4.84l-1.82.13-3.39.48-2.54.73-8.95 2.17-3.27-13.43-1.7-7.87-1.81-7.38-1.45-5.56-.49-2.06-.36-2.54-6.05.12-9.44.24-14.89.36h-1.21l-13.92.37-11.62.24-11.37.48-10.66.12h-.12l-6.89.12-1.34-.12-1.21.25-1.57 1.08-1.09 1.21-.97.85-.97.85-1.33.85-1.21.6-.97.36-.72.25-1.58.12h-15.73l-9.32-1.09-50.35.24 7.02 1.82 2.79.72 1.09.61.36.36.36.48.12.61v.85l-.36.84-.73 1.09-4.23 4.24-7.39 1.81-62.93 1.94v2.06l.12 6.65-26.63.73-25.41.36.12 1.45v2.67l-.12 1.21-27.36 1.21v.84l-26.38.49-6.42-.73-23.72-.48 2.3 17.18 1.94 15.25 2.05 15.01 1.09 8.71.12 2.91v.36l-.6 2.9-.61 2.79-.84 3.14-1.09 5.09-1.7 6.89-.84 3.51v1.46l.12.6v.24l.36 1.58.24 2.9.12 1.82-4.11 1.21-1.58 7.98 1.34 1.09 11.62 12.83 7.5 8.35 1.33 1.69z" stroke-linejoin="round"/></defs><use xlink:href="#c" fill="#9dc8ca" stroke="#9dd7f0" stroke-width="5.76"/><defs><path id="d" d="M2034.29 2844.3l-2.05-.61-1.82-.48-2.78-2.06-1.33-2.05-1.09-4.12-9.2-3.75-10.65-6.78-10.29-.72-12.59 4.23-3.39-1.81-4.96-5.81-3.87-1.21-4.84 1.09-1.82 1.45-3.87 6.9.6 7.02 2.67 4.84.84 3.99-2.05 3.27-4 2.9-9.56 1.21-11.13-3.02-2.06-2.54-4.72-3.63-3.03-.25-6.9 4-11.37 3.02-.13-4.35-.72-20.34-.24-5.2-.85-22.99-2.06-55.79-.48-12.83-.73-8.59-.72-8.23-3.39-23-6.78-46.22-11.14-76.25-3.99-32.55-14.16-92.34-7.75-52.88 2.42 2.54-.24-1.82-5.08-35.45-.36-3.03-3.51-22.51.12-5.69-3.51-24.2-2.79-13.68-.24-3.26.97-3.27 1.81-2.91.37-3.14-.61-3.27-4.84-10.04-.97-4.24-6.17-44.41-.6-5.81-2.18-9.93-3.88-31.46-.24-1.21-70.68 8.59-67.78 8.47-19 1.82-17.79 2.42-38.13 4.6-60.88 6.89-5.68.73-37.64 4.48-11.62 1.33-11.5 1.45-45.63 6.17-10.29 1.09-59.67 5.57-5.32.97-3.15.48-19.97 2.79-5.57.72-1.09.12-53.13 6.42-45.26 5.32-36.92 4.48-2.42.36-35.22 4.12-35.22 3.99-106.02 13.8-9.08.48-62.69 7.26-36.56 7.26-41.15 5.21-111.59 13.91-35.22 3.51-75.64 7.87-75.52 7.87-75.65 7.86-75.4 7.75-39.7 5.44-.24-2.3-1.58-2.66-.36-2.42 1.09-1.94 2.3-3.26 5.08-4.12 3.03-3.75.6-1.69-.84-2.54-1.94-3.39-1.69-4.48-1.09-8.71.72-3.15 5.57-6.17 1.33-3.15-.85-3.63-.6-.6.36-2.79 1.94-3.63.85-4.36.12-5.93-.37-5.8-.12-1.58.97-3.27 1.82-1.45 1.69-1.09.49-1.09-.49-2.17-2.66-4.12-.61-5.93.37-1.09 9.2-6.53 4.47-1.33.97.48 7.87 1.21 7.02-1.69 2.18-3.88 3.99-3.39 2.18-.84 2.06-2.66 2.54-1.82.6-2.3-.72-2.54-.24-4.24-.25-4.11-.12-7.38.61-6.78 2.78-9.56 3.87-10.53 10.53-6.17 23.24-16.82-.97-2.18-1.09-4.36-5.32-6.17-1.33-3.87-.97-1.09-1.94-7.5-3.63-20.09-.48-.85-1.21-3.75-1.94-4.24-6.53-6.9-2.79-5.08-1.21-3.27-.12-.36-.97-1.94-3.75-6.29-6.41-6.17-2.06-3.15-.37-.36-.48-1.09-1.45-1.33-2.42-3.99-.97-.97-1.69-2.91-.85-.96-1.09-2.79-.36-.36-.13-1.45-1.33-4-1.09-3.75-.96-3.02-.61-2.06-.48-1.33-.37-.73-1.09-3.51-.84-2.54-1.33-4.24-2.18-7.26-.85-2.66-1.45-4.48-9.08-28.8-.73-2.54-1.09-3.15-.6-2.3-3.15-9.8-3.87-12.46-.61-2.18-9.19-29.05-1.34-5.08-1.45-4.36-1.57-5.08-1.21-3.51-.85-2.9-.72-2.42-3.76-12.71 1.09-4.36 2.42-3.99 1.09-2.54-1.09-5.69-1.81-3.63-2.3-3.99-1.09-1.09-1.09-1.7-.85-1.09-2.18-1.93-3.75-6.42-.48-.6-.49-.73-1.69-2.42-1.09-1.45-3.75-3.51-1.45-.24-6.78-.24-1.33-1.82-1.46-4.48 1.82-4.84.24-1.69-1.57-9.32-.85-2.3-1.94-.97-4.47-4.35-8.72-6.9-9.56-4-2.78-1.09-.12-2.78-.85.12v-5.08l-1.09-11.01-1.57-6.3-1.09-.84-5.93-9.08-.13-.24-7.98-11.62.12-1.45-6.9-8.72-5.69-5.8-1.33-1.34-4.72-2.29-3.15-2.18-2.54-3.75-3.51-1.82-11.38 3.75-8.95-.48-.85-1.58-4.84-13.31-3.87-5.81-1.34-5.2-.96-.48-1.21-6.3-.13-4.23v-7.51l-.84-1.21-.73-16.09-2.9-5.81-.97-9.56-1.57-3.75-3.64-3.51-1.57-2.18-.73-9.08.73-.6-.36-2.18-1.09-5.2-.61-4.36 1.21-2.54-.12-2.18-1.81-5.45-2.3-2.17-1.45-3.27-.97-3.27-.85-.48-1.09-4.97-3.99-5.32-.73-.12-2.78-2.78-.73.12-2.54-2.67-1.45-3.87-.73-6.41.85-2.06-1.09-6.17-4-7.87-4.11-3.87-3.51-1.82-4.24-4.11-1.21-4.72-3.27-4.6-.48-2.42-2.3-2.3-1.69-15.01-1.94-5.44-.36-4.6-2.91-7.26-3.87-5.45v-1.93l-1.82-2.3-3.99-9.2-4.12-6.05-2.29-1.94-5.33-8.71-2.66-2.06-1.46-2.78-.6-4.6 5.08-11.01-.84-3.75-.73-6.78-1.7-5.2-4.84-4.6-6.05-3.76-7.86-6.29-6.78-1.33-14.41-8.23-4.96-.72-9.92-4.85-2.18-3.26-.24-.49-1.09-4.47-.61-7.75-2.18-5.2-1.45-10.65-.48-3.03-.73-1.57-1.94-16.58-2.54-7.99-.72-.72.24-5.45 1.57-5.08 4.84-11.14-.72-7.14-3.15-6.05-2.42-25.65.24-22.63.49-2.91 2.54-3.87 2.66-8.72v-2.42l.97-30.25 1.94-10.77-1.94-14.4-.85-3.03-.12-.6-8.35-10.65-2.54-2.3-3.15-6.54-.85-11.61-.84-1.94-.49-.12-.36-1.57-3.39-5.57-1.69-4.12-.85-9.44-2.42-9.8-5.81-4.48-4.12-1.93-.48-1.33-3.27-2.79-8.35-5.2-2.66-4.72-.61-7.5.85-12.83 2.66-8.84 5.69-7.86 1.7-6.78.36-4.23 4.6-7.99 1.45-5.81-.73-8.35 1.46-4.48-.25-9.2 3.03-6.77.12-.97 1.21-6.05 3.63-4 3.75-2.3 2.55-2.42.84-2.42.37-1.09 2.66-3.75.48-4.84 3.15-4.72 1.82-5.2-.13-5.2-1.08-3.39-2.67-3.88-3.14-7.14-1.09-7.74 1.57-8.11.24-6.41 1.09-1.58 2.78-1.57 4.85-10.53 4.47-2.66 1.94-3.87-2.42-12.35-1.45-2.18-.12-3.02-6.9-14.52-.61-4.36-1.45-2.54-4.96-5.81-4.24-9.2-.12-13.31-1.94-8.47-3.26-3.87-1.46-4.48-5.2-4-.12-2.54 2.78-6.29-.48-5.57 1.21-2.78-.36-3.15-1.7-2.17.85-6.06-.36-3.51-2.43-6.65-2.17-2.54-2.42-15.49-1.58-4.36 13.8-1.81 82.18-8.96 7.02-.85 25.54-3.14 101.66-11.14 101.67-11.37 59.31-6.66 5.56-.6 72.02-7.99 20.21-2.3 8.47-.85 6.78-.72 9.56-.97 12.59-1.21 3.14-.37 2.91-.24 13.55-1.21 9.32-1.93 2.06-.61 79.76-8.71 73.59 23.11 86.66-33.88 60.51-19.61 71.17-10.41 27.35-4.23 24.81-3.75 8.35-1.58 3.88-1.57-.12-3.15v-.6l-.25-.24-.24-.25h-.6l-9.08.97-1.09-.12-.48-.12-.25-.12-.24-.36-.12-.49-.48-4.11.12-9.08 2.3-6.78 1.21-6.17-.24-3.99-.25-3.15-.24-2.05-.6-1.46-.37-4.47 4.36-18.04 1.33-7.14 1.33-6.77 1.82-6.3.6-1.45.85-1.69 1.94-2.42 2.18-1.94 2.66-1.33 3.39-.61 1.57.25 2.18.24 3.27 1.45 1.69 1.45.85.73.36 1.57.12 2.18-.72 7.14-.12 2.3-.49 3.39-.12 1.81-.24 2.3.48 4.24.37 3.15.48 2.05.6 2.66 1.82 8.84.61 2.78 1.45 9.93.72 10.89.73 13.19.48 8.59 18.76-2.3.61-.12 41.15-5.45 1.69-.48h.61l.73-.12 5.68-.61 7.75-1.08h.97l96.1-13.8 7.99-7.87v-3.26l-1.58-11.14-.12-1.21-.12-1.33.24-1.33.12-1.09.37-1.09.48-1.33.61-1.33.72-1.09.73-.85 1.21-1.09.12-.12-1.33-1.93-.49-.73-1.21-.97-3.26-2.54-7.51-5.81-18.88 3.03-5.32-1.33-1.34-1.58-.84-1.09-.49-2.3-.6-4.72-.12-.84-2.91-26.02.24-2.91 1.21-4.11 1.94-3.39 1.94-1.57 3.02-1.82 4.72-1.57-.36-2.91 1.69-.36 1.46-.36 3.63-.36 1.21.24 1.33.24 1.33-.48 1.82-.49.6-1.09.85-.6.72-1.7 4.72-14.4.97-.12.85-.36 1.21-.61 1.21-.6.97-.85 1.21-1.21.85-.73.96-.84.49-.73.6-.97.37-1.09.24-.84.12-1.21.12-1.09-.12-.97-.36-1.09-.24-.85-2.3-4.48-.49-.96-.36-1.21-.24-1.21-.25-1.34-.12-1.57.12-2.54.13-4.36.12-.96.24-1.7.36-1.21.36-1.21.61-1.33.73-1.33.48-.97.73-.85.48-.6 2.42-2.3.61-.61.48-.72.24-.61.24-.48.13-.73.12-.85v-.72l-1.09-11.01 8.59-1.21 6.05 9.56 2.06 1.09 1.45 1.08 1.45 6.66.37 1.45v.73l.24 1.21.12 1.81-.36 2.79-.85 1.69-1.45 1.7-1.33 1.69-.37.24-2.3 2.06-1.21 2.18-1.21 2.66-.48 3.03.24 3.38 2.06 16.22.97 1.57 1.09 1.09 2.66.37 3.15-.37 26.26-3.63 2.9-1.45 5.57-4.23 1.45-1.09.73.84.73.73.84.73.85.48.85.36.85.24.96.13h1.7l.48-.13 1.33-.12 1.09-.24.73-.24.6-.24.61-.49.6-.48.49-.48.48.36.49.36.6.61.49.48.48.24.48.24.61.25h.6l.73-.12h1.21l.97-.13 1.09-.12 2.42-.36.6 5.08 2.06 16.34.61 4.36.24 3.02.73 7.02.6 6.54 1.09-.25.85-.12 1.69-.48 2.06-.48 3.75-.73 5.93-.97 6.3-.85 15.97-2.54-.73-4.84-1.08-7.26v-1.69l.12-.37.12-.36.36-.6.48-.61 6.18-9.56-6.42-5.08-.6-.61-.37-.36-.48-.73-.73-.84 1.34-.61 1.69-.6 1.21-.49.97-.12 1.81-.24 11.74-.73h1.7l.6.12.73.37.85-1.21.97-1.21 1.33-1.21.97-.85.96-.85 1.46-1.09 2.42-1.81 8.47-6.17 5.81-4.48 1.33-1.45 12.95 10.65-.61 1.21-1.08 1.45-1.7 1.69-2.06 1.09-2.05.61-1.82.48-2.42.97-2.3 1.45-3.87 2.9-3.51 2.67-1.82 1.93-1.57 1.94-1.21 2.54-.97 2.78-.73 2.79-.12 2.54.12 3.39 4.6 37.03.24 2.06 1.34-.24 2.05-.61 1.46-.36 3.38-.73 3.76-.85 2.3-.36 1.81-.12 3.39-.36 2.78-.25 6.42-.36 2.9-.24 1.94-.36 1.69-.37 2.06-.36 2.54-.6 2.91-.49 2.54-.48 3.03-.49 3.26-.48 1.94-.24h.61l2.3-.25h6.05l4.23 1.82 9.93 2.42 2.78.36 2.06.85 1.81.24 2.06.37 1.94.12 1.81.72 2.18.85 1.58.36 1.81.37 1.7.48 1.33.36-.25 20.21-.12 7.87 8.11-1.09 5.45-.48 3.39-.37.97-.12 6.41-1.21.49-.85 12.1-2.42.6-.12.85.12.48.49 4.85 3.39 3.02 1.57 3.15 1.45 4.72 1.7 8.11 1.93 1.21.12 1.33.49 3.03 1.09 1.33.48 2.78 1.33 6.78 4.24 6.05 4.23 4.24 2.91 9.07 6.53-.24.49-.36.84-1.21 1.7-1.21 2.42-.49 1.21-.48 1.33-.36 1.45-.37 2.67-.12.84v2.06l.37 3.75 2.17 17.19.12 2.05.25 1.94 1.09 11.01.6 4.96.36 2.79.73 3.99.48 3.51 1.09 5.08 1.34 5.21.96 3.26 2.55 8.11.84 2.18 2.18 5.69 2.06 4.6 1.09 2.3 1.09 2.3 1.57 3.14 1.57 3.15 2.18 4.36 4.72 9.19 2.06 4.36.48.97 1.34 3.14 2.3 5.93 2.29 6.54 2.06 7.26.97 3.75 1.45 6.9.73 3.87.85 5.33.72 6.05 1.82 14.16 2.06 15.49.72 6.29.12 1.09.49 3.15.36 2.66.36 3.02 1.09 9.08.37 2.66.6 4.84 4.6 34.98.85 6.9.97 7.02 3.26 26.74.12 1.33 1.46 11.74.48 5.08.24 4.84.12 4.85v7.5l-.24 3.39-.48 2.42.12 2.18-1.21 10.4-1.94 16.82-.72 7.02-.85 5.21-.85 9.56-.6 5.93-.12.85-1.22 11.01-1.21 11.49-1.33 10.65-2.78 25.42-2.06 18.27-.24 2.06-.48 8.23-.13 5.08v2.78l.25 4.97.36 5.32.24 2.06.49 4.48.6 4.6.61 3.26 2.05 10.41.37 1.45 3.75 17.91.24 1.09.36 1.94 5.81 28.07.61 2.43h.72l.73-.13.49-.12 2.17-.24 16.46-2.18 7.51-.97 8.71-1.08 51.56-6.66 15.74-2.06 7.38-.84 7.74-1.09-.72 1.09 6.17-.85 6.42-.97 7.98-.97 30.14-3.02 5.93-.73 1.09-.24 5.57-.73 4.35-.72 7.51-1.09 21.18-2.91 7.26-.97 9.44-1.21 11.98-1.57 2.18-.24 3.27-.36 11.86-1.46 7.02-.72 8.11-.97 15.13-1.7 15.13-1.81 17.67-2.18 1.09 11.74.36 3.39.61 4.6.12 2.05-5.09 13.68-.6 1.81-.49 1.22-.36 1.08-1.33 3.76-2.06 5.8-.48 1.09-2.18 6.3-1.21 3.26-1.45 3.76-3.63 8.83-2.91 6.78-.36.84-3.51 8.23-2.54 5.57-3.51 8.11-7.51 17.18-1.81 4.36-2.67 6.17-2.05 4.6-4.12 9.44-.48 1.09-3.03 7.02-.6 1.45-.25.36-2.54 5.93-2.05 4.97-.13.24-.48.84-.48 1.21-2.55 5.81-2.42 5.57-5.44 12.59-3.15 7.26-7.87 18.03-11.01 25.41-.97 2.18-1.69 3.75-1.33 2.3-1.7 4.72-7.5 17.31-.37.72-9.68 22.51-.48.97-3.63 8.23-5.45 11.98-3.75 7.5-1.94 3.64-3.14 5.56.6-.12h.48l1.09-.24 1.34-.12 11.61-1.33 26.51-3.27 16.22-1.94 27.71-3.26 29.78-3.63 4.96-.49 39.09-4.72 7.75-.97 7.99-.84 26.26-2.91 8.47-1.09 4.6-.72 21.3-2.67 4.36-.48 3.75-.48 2.79-.49 1.93-.48 2.55-.85 2.17-.97 1.94-1.09 2.42-1.69 1.45-1.09 1.46-1.33 2.05-2.18 1.7 1.45 1.57.85 1.45.24 1.33-.12 9.69-.97 7.62-.97 7.02-.96.97-.12 18.4-2.18 2.78-.37 1.21-.48 1.09-.48.97-.73.72-.73.73-.96.48-.85v-.36l.97-3.15.37-4.48 2.9.61 1.09.12-1.09 8.95 3.15 16.46 14.04 23.84 14.04 26.02 9.44 16.82.84 6.9-2.42 6.9-1.45 3.39-2.54 6.17-1.21 2.3-1.33 2.42-.61 2.18-1.09 2.18-1.09 1.57-.96 1.33-.49 1.09-.24.48-.24 1.94-.73 1.33-.36 2.42-.49 1.57-.48 1.34-.36.96v.73l.36.73.48.72.25 1.33.24.73.85 1.69.84 1.46 1.82 3.14 2.3 5.08.48 2.79.61 1.69.6 1.94.12 1.09.73 1.69 1.21 4.48 1.21 5.45 1.82 4.84.24 4.23 2.18 4 .24 2.17 1.57 3.88.61 2.9 1.21 3.39.6 3.99.24 2.91.37 1.93.72 3.15 1.21 4.96.49 2.91.24 3.51.24 2.17.97 3.27-.6 1.45-.49 2.79-.48 2.05-.61 2.3-.6 2.55-.61 1.81-.6 1.94-.73 3.75-1.33 2.66-1.21 2.3-.97 1.57-.97 1.82-.72 1.81-.85 1.94-.85 3.03-.6 1.93-.61 1.94-.6 2.42v2.78l-.61 3.03 3.03 53 .12 2.42.36 2.91-.12 2.78 1.21 4.36.61 5.2v5.93l.72 3.51.49 5.21.24 4.35 1.93 3.75 1.94 5.09 3.87 6.41 3.27 7.26 4.12 5.45 2.9 3.02 3.27 3.63 2.9 2.55 4.36 4.35 2.79 3.75 3.75 5.45 2.9 6.78 2.06 4.72.48 2.54-.6 2.54-1.82 1.57-1.57-.48-1.21-.97-1.21-1.33-1.94-1.45-3.14-.49-6.06.85-2.78.97-5.08 1.57-6.05 1.94-6.9 3.99-2.06 3.87-.97 4.24.36 3.87-.96 4-.13 4.35.37 4.6.97 4.96.48 4v6.05l.97 3.26-.49 6.3-.48 4.35-.73 6.3-.12 5.56.25 4.48.36 4.72.72 4.84 1.82 4.12.85 5.2 2.18 3.63 2.42 1.45 4.23.73 5.69-.85 2.18-1.09 3.87-.6 4.12-.97 3.75 1.69 2.9 2.91 2.91 2.42 3.87 2.9 3.63 2.54 2.54 1.7 1.7 1.09 2.78 1.33 1.94 1.09 1.45.97 1.82 1.81 3.02 2.54 3.88 4 5.08 6.05 3.75 4.72 4.12 3.99 2.66 3.87 2.06 3.76 2.66 2.78 2.42 1.69 1.21.85 4.6 3.75 1.69 1.58 4.48.48 4-.36 3.75-1.7 1.57-.48 1.82.97 2.3 1.21 1.81 1.45 7.02 3.02 7.75 3.15 7.86 1.45 4.72 2.3 1.94 2.18v2.54l-1.69 2.66-3.15 4.72-4.12 6.78-3.26 4.24-2.42 3.99-6.18 5.08-2.05 5.81 4.35-.48 5.57-.73-4.72 2.91-.97 1.33-.97 1.69-1.33 2.42-.84 2.42v1.82l-.25 2.42v1.93l1.46 2.06.72 2.3v2.06l.24 2.18 1.34 3.02 1.08 2.54 3.03 19.97.73 1.7 3.39 3.02.24 2.18-1.7 3.75v7.75l-1.09 3.99-9.8 19.24-5.2 7.87-6.06 5.69-4.96 8.35-1.57 3.63-4.96 12.34-6.78 20.82-1.21 2.54-3.03 9.68-1.69 8.83-.85 5.69-.12 18.4-2.66 18.03-.37 3.02-.84 4.6-2.91 7.02-2.42 3.99-1.81 1.58-1.34 2.66-.48 3.39-1.09 1.81-3.87.85-2.79-3.99-7.14-.73-3.26-1.81-1.09-3.76-3.15-2.78-2.54-3.15-.61-1.69-2.9-2.66-3.15-1.58-5.81-1.93-2.54.72-8.96 7.39-22.99 17.06-5.81 3.63-16.34 9.08-21.79 8.23-29.77 14.88-7.14 4.72-5.21 4.96-4.35 4.72-3.75 5.57-1.7 5.81-.85 3.51-.84 6.41-.12 7.51 1.69 9.19 1.94 4 1.21 2.05.84 1.7 1.34 1.93.12.73 1.57 2.42 1.94 2.18 2.9 4.72 8.84 12.34.12.73 1.81 2.78 3.27 6.9 1.33 7.62.85 1.21 1.21 3.64 1.21 1.81 1.69 10.53-.6 3.87.36 3.75.24 5.21v3.99l-2.78 8.23-.73 3.99-5.8 17.43-4.12 7.62-4.48 5.81-4.72 4-4.36 2.18-8.35-2.79-2.05-1.81-2.06-4.97-.73-1.08-1.09-6.78v-4.48l.37-1.45.36-6.17.48-.85.49-7.62.72-.85-.12-.97.24-.85.13-3.75.48-1.81.24-8.23-.97-7.75-.96-3.51-1.46-2.66-3.14-3.03-3.51-1.45-2.3.12-5.45 5.33-15.49 17.42-5.57 5.57-21.78 16.1-11.26 9.32-5.57 6.41-10.89 10.65-2.54 5.2-.97 3.39 1.33 13.92.12 1.09-.6 4.11-.61 2.18-3.75 5.45-3.75 6.41-9.32 20.45-1.45 4.36 2.42 22.63-.25 2.06.37 7.86.84 2.3.97 1.33 1.46 12.11-.97 6.17-2.91 10.65-.24 6.65.48 5.69-.12 3.15-.12 4.96 1.21 8.47 4.84 11.74.61.36-.12 1.21.6.37 2.06 7.01.73 1.34 1.69 6.17.12 6.9.97 4.84 7.63 16.82 6.53 10.89 2.18 5.45 2.3 15-.12 6.3 1.93 19.96.85 1.46 4.24 21.78-.24 2.54-1.58 3.87-5.81 5.45-7.02 11.13-3.51 2.06z" stroke-linejoin="round"/></defs><use xlink:href="#d" fill="#6bacaf" stroke="#6bb4d2" stroke-width="5.76"/><defs><path id="e" d="M1850.2 1159.12l-4.35.72-5.57.73-1.09.24-5.93.73-30.14 3.02-7.98.97-6.42.97-6.17.85.72-1.09-7.74 1.09-7.38.84-15.74 2.06-51.56 6.66-8.71 1.08-7.51.97-16.46 2.18-2.17.24-.49.12-.73.13h-.72l-.61-2.43-5.81-28.07-.36-1.94-.24-1.09-3.75-17.91-.37-1.45-2.05-10.41-.61-3.26-.6-4.6-.49-4.48-.24-2.06-.36-5.32-.25-4.97v-2.78l.13-5.08.48-8.23.24-2.06 2.06-18.27 2.78-25.42 1.33-10.65 1.21-11.49 1.22-11.01.12-.85.6-5.93.85-9.56.85-5.21.72-7.02 1.94-16.82 1.21-10.4-.12-2.18.48-2.42.24-3.39v-7.5l-.12-4.85-.24-4.84-.48-5.08-1.46-11.74-.12-1.33-3.26-26.74-.97-7.02-.85-6.9-4.6-34.98-.6-4.84-.37-2.66-1.09-9.08-.36-3.02-.36-2.66-.49-3.15-.12-1.09-.72-6.29-2.06-15.49-1.82-14.16-.72-6.05-.85-5.33-.73-3.87-1.45-6.9-.97-3.75-2.06-7.26-2.29-6.54-2.3-5.93-1.34-3.14-.48-.97-2.06-4.36-4.72-9.19-2.18-4.36-1.57-3.15-1.57-3.14-1.09-2.3-1.09-2.3-2.06-4.6-2.18-5.69-.84-2.18-2.55-8.11-.96-3.26-1.34-5.21-1.09-5.08-.48-3.51-.73-3.99-.36-2.79-.6-4.96-1.09-11.01-.25-1.94-.12-2.05-2.17-17.19-.37-3.75v-2.06l.12-.84.37-2.67.36-1.45.48-1.33.49-1.21 1.21-2.42 1.21-1.7.36-.84.24-.49-9.07-6.53-4.24-2.91-6.05-4.23-6.78-4.24-2.78-1.33-1.33-.48-3.03-1.09-1.33-.49-1.21-.12-8.11-1.93-4.72-1.7-3.15-1.45-3.02-1.57-4.85-3.39.73-.12 9.68-1.94 1.94-.24 6.29-2.54 13.08-2.18 28.07-1.45 4.85-.24 1.45-.73-7.38-5.08-1.94-.37.24-2.18.24-4.11.12-4.72.12-2.66.49-5.69.48-1.81.85-1.82.97-1.57-.85-.85-1.09-1.33-1.69-1.94-1.7-2.42-2.05-2.78-10.29-15.73-13.19 10.89-1.7 1.21-1.45.72-1.94.85-1.93.61-2.06.36-1.94.24-1.45-.24-1.33-.36-1.21-.49-1.58-.97-1.45-1.33-.72-.97-2.06-3.26 23.12-18.28 2.05-1.69-9.56-13.92 3.15-2.54 3.63-3.03 13.31-10.4 1.21-.85 2.3-1.33.85-.36 1.45-.61 1.09-.48.97-.25 1.21-.24 2.78-.48 2.67-.36 4.23-.49 4-.48 2.17-.24 15.86-1.82 1.45-.24h.37l16.7-1.45 3.27-.37 9.19-1.21 1.21-.12 4.24-.48 9.92-1.21 2.91-.37.97-.24 2.78-.36h.49l25.41-2.78 9.56-1.09 10.65-1.33 4.24-.73 5.2-2.06 3.15-1.57 3.51-3.15 2.54-2.78 2.67-2.66 6.17-5.69 2.42-2.06.6-.48.73-.49.61-.36 2.66-1.09 1.57-.48 2.18-.73 2.66-.48 1.94-.37 2.18-.48 1.81-.36 3.63 11.86.37 1.09 2.66 8.71.97 3.27 1.69 5.93 1.33 4.47.85 2.79.49 1.69.96 3.15.85 3.14.97 3.39.6 1.94.85 2.42 1.21 3.39 1.09 2.42.73 1.69 1.21 2.42.48.73.49 1.09 1.21 2.06 1.21 1.93 1.69 2.42 2.78 4 2.67 3.87 4.96 6.9 1.33 1.93.36.37.97 1.45.97 1.57 4.36 6.29 1.45-1.21 2.06-1.69 1.09-.85 1.09-.6.96-.37 1.34-.36.96-.12 1.09-.12.73.12.97.12 2.66.49 2.91.72 1.81.36h1.45l1.21-.12 1.21-.36.73-.24.85-.61.72-.6h.12l-22.75-34.49 38.37-23.72.48 4.6-.24 5.08 1.09 3.75 1.57 1.09 3.15.97 3.15 1.21 4.35 2.3 3.15 1.45.97 3.51-.85 3.75.97 5.33 2.9 2.3h2.06l.85-.13.48-.12.49-.36.72-.48 1.21-.61.61-.24.6-.12 1.34.12 1.08.24 1.46.36 2.9 1.09 1.57.49 1.22.24 1.21.12.84.12.85.37 1.57.96.37 2.54.96 6.18 1.09 11.86v.6l.25 2.06.72 6.53 1.33 9.08.12.48.37 2.18.6 3.63.24 1.46 1.82 9.07 1.82 8.84.24 1.21.6 2.9 1.33 5.45.13.6.24 1.09.24 1.7.24.84.36 1.82.37 1.81.36 1.7.12.6.24 1.21.12.37.37 1.81.36 1.57.36 1.82.73 3.15.48 2.3.37 1.81.36 1.69.12.73.36 1.57.61 2.67.61 3.26 2.9 13.44.61 2.54.24 1.33v.12l.36 1.69.48 2.67.61 2.54.24 2.06.73 3.63.36 2.42.49 2.54.6 5.57.61 4.35 1.33 11.74.84 8.35.49 3.27.24 2.18.61 5.68.36 3.39.24 1.58.12 1.09.85 7.98.97 9.32.48 3.27.49 4.84.24 1.21.6 5.69.12 1.09.49 4.84.6 4.6.12 1.33.12 1.57.25 2.42.24 1.82v.6l.24 2.06.36 3.15.25 1.57.48 4.72.61 5.32.72 6.05.61 5.69.24 2.42.48 3.75.61 5.81.24 2.06.48 3.75v1.21l.61 4.72.24 1.94.36 2.78.13 1.09.36 3.15.24 3.51.85 6.53.72 6.66.25 2.66.12 1.09.97 7.99.96 9.19.25 1.58.36 3.14.48 4.36-1.21.12-3.51.36-1.21-.12-.84-.24.72.61 2.3 2.05.73.61 1.33.97.85.36h1.33l.72 6.53.49 4 .72 6.65-.36.73.48 4.6 1.22 11.25.24 1.46 1.81 14.76.12 1.09.49 2.9v.73l.36 2.3.12 1.33v.36l.36 3.03.49 3.63.36 3.63.61 4.48.12 1.09v.84l.48 3.51.49 6.05.24 2.18.12 1.09.12.24v.61l.73 4.36.72 4.59.37 3.03.12.73.48 4.11.49 2.91.6 5.56.12.73.97 7.02.48 4.47.25 1.82.84 6.9.49 3.63.72 6.05.25.97.48 5.32.36 1.33.97 9.44.12.97 1.21 11.74.24 2.9.37 3.03.72 7.38.49 4.48 1.09 10.41.72 6.65.12 1.94v.48l.61 4.97.12 1.81.24 2.54.49 4.12.48 4.96 1.33 12.34 1.21 11.98v.97l1.58 14.4 1.09 10.89 1.21 11.62 1.81 17.55.73 6.29.12.97-17.67 2.18-15.13 1.81-15.13 1.7-8.11.97-7.02.72-11.86 1.46-3.27.36-2.18.24-11.98 1.57-9.44 1.21-7.26.97-21.18 2.91-7.51 1.09z" stroke-linejoin="round"/></defs><use xlink:href="#e" fill="#09757a" stroke="#097d9b" stroke-width="5.76"/><defs><path id="f" d="M2066 1449.8l-8.47 1.09-26.26 2.91-7.99.84-7.75.97-39.09 4.72-4.96.49-29.78 3.63-27.71 3.26-16.22 1.94-26.51 3.27-11.61 1.33-1.34.12-1.09.24h-.48l-.6.12 3.14-5.56 1.94-3.64 3.75-7.5 5.45-11.98 3.63-8.23.48-.97 9.68-22.51.37-.72 7.5-17.31 1.7-4.72 1.33-2.3 1.69-3.75.97-2.18 11.01-25.41 7.87-18.03 3.15-7.26 5.44-12.59 2.42-5.57 2.55-5.81.48-1.21.48-.84.13-.24 2.05-4.97 2.54-5.93.25-.36.6-1.45 3.03-7.02.48-1.09 4.12-9.44 2.05-4.6 2.67-6.17 1.81-4.36 7.51-17.18 3.51-8.11 2.54-5.57 3.51-8.23.36-.84 2.91-6.78 3.63-8.83 1.45-3.76 1.21-3.26 2.18-6.3.48-1.09 2.06-5.8 1.33-3.76.36-1.08.49-1.22.6-1.81 5.09-13.68-.12-2.05-.61-4.6-.36-3.39-1.09-11.74-.12-.97-.73-6.29-1.81-17.55-1.21-11.62-1.09-10.89-1.58-14.4v-.97l-1.21-11.98-1.33-12.34-.48-4.96-.49-4.12-.24-2.54-.12-1.81-.61-4.97v-.48l-.12-1.94-.72-6.65-1.09-10.41-.49-4.48-.72-7.38-.37-3.03-.24-2.9-1.21-11.74-.12-.97-.97-9.44-.36-1.33-.48-5.32-.25-.97-.72-6.05-.49-3.63-.84-6.9-.25-1.82-.48-4.47-.97-7.02-.12-.73-.6-5.56-.49-2.91-.48-4.11-.12-.73-.37-3.03-.72-4.59-.73-4.36v-.61l-.12-.24-.12-1.09-.24-2.18-.49-6.05-.48-3.51v-.84l-.12-1.09-.61-4.48-.36-3.63-.49-3.63-.36-3.03v-.36l-.12-1.33-.36-2.3v-.73l-.49-2.9-.12-1.09-1.81-14.76-.24-1.46-1.22-11.25-.48-4.6.36-.73-.72-6.65-.49-4-.72-6.53h-1.33l-.85-.36-1.33-.97-.73-.61-2.3-2.05-.72-.61.84.24 1.21.12 3.51-.36 1.21-.12-.48-4.36-.36-3.14-.25-1.58-.96-9.19-.97-7.99-.12-1.09-.25-2.66-.72-6.66-.85-6.53-.24-3.51-.36-3.15-.13-1.09-.36-2.78-.24-1.94-.61-4.72v-1.21l-.48-3.75-.24-2.06-.61-5.81-.48-3.75-.24-2.42-.61-5.69-.72-6.05-.61-5.32-.48-4.72-.25-1.57-.36-3.15-.24-2.06v-.6l-.24-1.82-.25-2.42-.12-1.57-.12-1.33-.6-4.6-.49-4.84-.12-1.09-.6-5.69-.24-1.21-.49-4.84-.48-3.27-.97-9.32-.85-7.98-.12-1.09-.24-1.58-.36-3.39-.61-5.68-.24-2.18-.49-3.27-.84-8.35-1.33-11.74-.61-4.35-.6-5.57-.49-2.54-.36-2.42-.73-3.63-.24-2.06-.61-2.54-.48-2.67-.36-1.69v-.12l-.24-1.33-.61-2.54-2.9-13.44-.61-3.26-.61-2.67-.36-1.57-.12-.73-.36-1.69-.37-1.81-.48-2.3-.73-3.15-.36-1.82-.36-1.57-.37-1.81-.12-.37-.24-1.21-.12-.6-.36-1.7-.37-1.81-.36-1.82-.24-.84-.24-1.7-.24-1.09-.13-.6-1.33-5.45-.6-2.9-.24-1.21-1.82-8.84-1.82-9.07-.24-1.46-.6-3.63-.37-2.18-.12-.48-1.33-9.08 8.11-.48 2.3-.24 13.07-1.09 3.27-.49.24.37-.12.48 2.42-.24 4.72-.61h.12l60.4-8.59 2.54-.24 77.34-11.5 34.49-4.96 14.4-1.21 2.55-.24 6.17-.73h.12l3.51-.6 1.45-.12 2.18-.24 2.18-.37-.12-.6 11.25-1.33 67.06-8.48-1.46.73 4.24-.36 8.71-1.82 5.93-.97 5.81-6.77 9.2-10.53-1.45-1.45-1.69-1.82-3.15-3.51-1.7 1.94-1.57-1.45-33.28-59.67-22.64-21.66-1.09-3.99-1.81-13.68-.73-4.84.49-4.23 3.99-1.46 4.36-12.46 4.6-6.29 4.11-1.7 1.33-.12h2.18l1.33.12 5.45-1.33 3.15-3.39 1.33-3.87 1.21-4.36.24-1.93.61-3.88.6-.84.85.24.6 2.54.97 2.3 2.54 1.45 2.3-.24 1.21-3.87-.12-.85v-1.82l-.12-1.69v-.24l.24-2.42.97-1.58 2.06-.84 2.18.12 3.27 1.33 3.38.85 4.36-.97 1.82-.24 2.05.12.13 2.05 2.66 1.82h1.93l1.09-.73.85-1.93.24-.61.12-1.93.13-2.79.24-1.93.6-2.79 1.21-1.57 1.46-.36 3.14.6 7.75 1.21 3.27-.6 2.05-2.79.37-3.99-.73-2.42.85-2.66 1.57-2.54 1.33-2.06 1.09-1.82 1.09-1.81.85-1.58 1.93-.6.61.24.85 1.45.84 2.18 2.3 1.09 1.34-.72.48-1.94v-3.15l-.12-2.18v-1.93l-1.33-2.66.24-2.79-.73-3.14-.24-1.82.97-1.94 2.18-.72 4.96-1.21 2.66-.12 3.03 1.93 4.72 3.63 2.9 3.03 1.82.36 6.9.61 1.33-19.24 2.06-1.21 3.87 1.21 2.54.6 1.21-1.94 1.45-4.96 2.67-1.09h1.21l1.57 22.51 12.71 5.21 16.1 19-3.03.36-6.78.73-.97.48-1.09.6-.6.97-.85 6.42-.36 2.3-.85 3.26-1.45 2.91-2.18 2.66-2.06 1.57-1.45 1.09 1.7 2.3.84.97.73.85.6.48 1.09.85.85.48.73.37 1.21.24 1.69.24h1.33l2.3-.36 2.79-.37 2.78-.24 3.15-.48 1.93-.12 1.94-.37.24 2.79.24 2.18.37 1.21.12.72.24.49.36.6.61.85-1.45 2.3-1.7 2.78-.48.85-.61.72-.48.85-.73.97-1.21 1.57-1.57 1.82-1.58 1.93-3.38 3.63-1.7 1.82-3.39 3.39-3.75 3.63-5.69 5.81-4.6 4.6-1.93 2.05-.12.25-1.82 2.05-1.45 1.58 1.21.96.97.73 1.33.73 1.57.72.48.37.73.48 1.57 1.69.13.13 1.93-3.27 5.69-7.87 4.36-6.9 5.32-6.65 2.18-3.63 2.91-3.75 4.11-4.85.61-1.57.24-.6.36-.49.36-.24.85-.24.37.48.6.97.24.73.12.36.12.48.25 1.82 1.33 11.01 1.93 15.86 1.21 9.8.73 6.65 1.33 10.53.12 1.58 3.39 26.74 1.33 10.41.61 3.63.48 8.71-.48 1.82.48 2.78-.36 2.78-3.15 13.8-.36 4.24-.12 1.21-.12.6.12 4.72 1.21 15.13.36.6.61 1.21 4.35 4.97 10.66 15.36 1.33 1.21 1.57.73h2.06l8.95-5.57 1.09-1.08 2.91-7.87.72.36-.12.61-2.3 7.74-.72 6.54-3.03 7.62-2.54 6.29-4.24 5.33-4.35 3.27-3.76 2.54-1.21-.73-1.21-1.09-.12-.36.37-.36 3.14-1.21 3.39-2.79 2.06-3.39-.73-1.81.85-1.7-.97-1.57-4.96 2.42-2.42 1.82-1.94-1.21-.12-1.82v-.85l-.97-.12-1.81 1.7-6.78 5.2-1.94 1.7-.96 2.17-2.18 4.24-6.05 2.9-7.87 3.51-5.69-1.21-7.26 2.79-8.11.24-4.36 2.9-1.93 1.46-2.79-.13-.85-.96-2.54-1.21-1.21-2.67-.24-.36-.24-.24h-.12l-.49.12-.24.24-.12.37-1.45 2.54-3.75 1.69-4.72 1.7-5.81 9.43-2.91 3.51-7.99.85-6.05.12-4.23 2.91-8.6 6.05-7.26 4.23-4.96.49-2.06-2.67-2.18-.96 1.09-3.27 2.18-.12 7.62-1.82 3.88-3.14 1.93.72 4.97-1.81.48-.49-.36-.84-1.21-1.09-3.88.24-5.81.48-5.32 2.3-3.03 1.33-5.69 3.15-5.68 3.51-3.51 3.39-2.55 2.78-3.5 4.96-10.29 4.72-1.7.37-2.9.36-2.66.48-5.09 2.06-5.32 2.91-3.76 3.87-2.54 2.78-2.66 5.08-1.94 4.84-1.81 6.18-1.94 2.17-2.3 3.03-1.09 1.21-1.57 1.69-2.54 1.82-1.7.48-.72 1.58-.85.72-1.09-.24-3.51-2.78-.73-1.21.37-1.94-1.7-5.2-1.93-.12-1.46-1.46-1.21-1.21v-1.93l1.09-1.45 1.46-1.46.6-1.57.24-2.66.73-2.79 1.21-2.29 1.33-2.06 1.57-.73 1.82-.12 1.82 1.57 1.33 1.46.97.96.12 1.7.72.6 1.09-.72.24-1.21-.6-2.06-3.27-4.24-1.21-1.21-.73-1.81-2.54-2.54-1.33.24-1.94.97-.72-1.33h-.73l-1.33 1.93-1.09 2.18-.72 3.15-1.21 1.57-1.46.12-1.33.49-.48 1.33-.37 1.93-.36 2.42-.36 1.7-1.45 1.33-.25 1.81-.36 2.06-.73.73-1.09-.12-.84-1.09-2.18-4.84-2.3-1.7-2.91-1.45-3.26-.6-2.67.48-1.81 1.57-.36 2.3 1.21 3.39 3.02 3.15 1.7-.24v-3.39l.36-1.21 3.87 1.93-1.09 3.51-1.45 1.82h-.6l-.25-.61-.72-.36-.49 1.57-.6 2.54-2.3 2.18-2.79.85-2.66 3.27-4.48-.85-5.81-1.82-3.63.37-3.39.6-2.3.97 1.46 2.18 1.57-1.33 7.14 3.14 14.28.25 2.18.96 12.71 5.09 1.45 7.98 9.68 10.29.37.24.36-.36 2.78-8.11 5.09-.48 1.21-.12 2.66-.25 2.3 6.18-2.78 4.84-3.03 5.44-2.06 3.63.25.61-2.06 2.9 3.75 2.42-3.87 7.87-11.14 14.76-.24 3.51-4.6 6.42-3.99 4.84-.97 2.06-.97 1.93-.6 1.21-7.39 30.62-1.69 38.73 2.42 55.18-.49 24.33-2.9 21.66-2.66 16.7-.24 12.71v.84l-.85 5.93.97 5.08.24.61 4.84 12.71 3.15 14.52 22.02 41.75 6.42 16.94 5.2 13.56 5.81 13.07 2.79 2.18-.73 2.9.48 5.69-4.47 10.77-.97 5.57-1.33 5.08-2.67 3.02-5.2.61-3.63-.36-2.06-.73-3.63.48-5.81 2.67-2.54 3.26-6.66 7.51 7.51 5.68 4.96 3.76 1.21 1.45 8.95 11.25.61.73.61.85v.84h-1.34l-.72 13.92 8.35 19.61.73 2.42 1.45 3.14 10.41 17.91.24.25 1.81 3.26.49.97 2.66 5.45.48.96 1.09 1.46 26.39 32.43 3.63 17.79.24 1.69 5.21 8.35 1.69 3.39 1.69 4 7.87 18.63-4.96 46.35-2.3 41.27 2.78 28.2-.6 4.35-9.2 11.02-8.59 7.14-6.9 3.14-16.83 8.6-2.9 1.57-13.92 12.34-20.09 15.86-1.09-.12-2.9-.61-.37 4.48-.97 3.15v.36l-.48.85-.73.96-.72.73-.97.73-1.09.48-1.21.48-2.78.37-18.4 2.18-.97.12-7.02.96-7.62.97-9.69.97-1.33.12-1.45-.24-1.57-.85-1.7-1.45-2.05 2.18-1.46 1.33-1.45 1.09-2.42 1.69-1.94 1.09-2.17.97-2.55.85-1.93.48-2.79.49-3.75.48-4.36.48-21.3 2.67-4.6.72z" stroke-linejoin="round"/></defs><use xlink:href="#f" fill="#004249" stroke="#00465f" stroke-width="5.76"/></svg>