<svg width="384" height="8.87in" viewBox="0 0 2880 6387" xmlns="http://www.w3.org/2000/svg" xmlns:xlink="http://www.w3.org/1999/xlink"><path fill="#fff" d="M0 0h2880v6387H0z"/><defs><path id="a" d="M1789.4 6324.13l-20.56.4-64.87-1.2-27.55-.6-12.77-.6-38.92-.8-29.54-1.19-26.55-.6-26.35-1.2-124.94-3.19-.4-4.99-1.6-4.79-15.37-37.53-2.39-6.38-1.4-4.79-1-4.99-.6-5.19-.4-5.79-.2-8.58.8-26.95.4-6.39.8-44.51.8-25.54v-9.98l.4-15.97 1.59-77.44.4-25.95 1-25.35-.2-43.51 7.39-9.58h-2l-1 .2-1 .2-.99.4-11.98.2-6.79-.8-12.17-1.4-55.69-1.4-84.43-1.59-34.53-.6-71.26-1.6-19.36-.4-24.95-.6-57.48-1.19-30.94-.4-89.62-1.4-62.27-.8-43.52-.8-10.18-.2h-14.97l-7.98-.2-61.08-1.19-12.37-.2h-13.77l1.59-61.48 2.4-129.93 1.4-52.7.59-26.34.6-52.3.8-63.67v-6.18h-6.59l3.6-135.53v-4.19l1.59-54.89 5.19-196.4h-22.95l-34.33-.2h-11.38l-11.18-.2-29.54-.2h-11.17l-11.18-.2-25.55.2-13.37-.2H351.49l1.6-60.67 1-47.71.8-36.12.39-12.78.8-20.36v-9.97l-.6-20.56-.4-11.78-.59-12.77-.6-9.58v-2.6l-.2-2.59-.6-10.78-.6-11.38-.4-3.79-.2-4.39-.6-9.98-.6-9.38-.2-6.19-.2-5.39.2-5.59.2-7.18.4-6.39.8-9.58 1-8.98 1-7.59.6-2.79-1-3.39.4-11.18.4-9.78.79-5.39 3.4-1 1-4.99 2.59.2 6.39 2.4 4.19.4h4.39l15.97 1.39 4.39.2 12.97.6 20.16.8h11.38l57.28.8h24.16l8.58.2-.2-19.96v-4.39l-.8-3.79-3.79-147.3-.6-25.15-22.55-.6-56.49-1.4h-19.76l-.4-2-.8-1.99-1.2-2.4-5.19-6.58-1.39-2.2-4.39-9.58-2.8-5.19-2.19-4.59-7.79-15.57-6.59-17.16-4.99-13.97-4.59-8.59-2.19-4.19-2-2.79-2.99-3-2.8-1.99-3.99-.8-3.39.4-2.2 1-4.19 3.59-1.99 1.6-4.4 5.38-2.39 1-1.6.4-1.39-.6-2.2-1.59-1.6-1.6-1.99-3.59-1-2.2-.4-3.19.2-3 .8-2.19 1.2-2.4 1.79-2.39 1.8-2 2.39-1.39 4.19-3.2 6.59-2.19 6.39 1.79 15.57 7.19 4.39 1.79 6.19-.39 3.79-1.4 2.19-3.59 5.19-9.59 3-6.98 1.79-4.19 1.4-5.79 1-4.99v-1.2l1.2-9.58.2-6.78.2-7.79 3.19-22.75.2-7.19 18.76.6 9.98.4 8.38.6 2.4-.2 63.87 2.79 8.78.6 25.95 1 51.7 2.79 36.12 1 48.31 2.4h1.99l-.2-3.6-.99-2.19v-41.12l-.6-31.33-2.4-116.77.2-1.99-.2-2.2-1.4-83.03-.2-15.97-1.59-94 1-98.6.99-83.63v-12.78l.2-1.19.2-48.51.2-3.79.2-13.37 2.8-6.19-.2-19.36v-11.58l-.2-16.36.2-13.97.4-13.98.2-7.78.79-26.94.4-10.38v-8.39l3 .2 5.59.2h11.77l16.77.4h25.95l25.35.6 16.36.2 9.18.2h4.39l11.18.2 33.53.2 8.59-.6 14.77 1.2 36.52.4h6.99l8.18-.2h19.76l11.78.2 31.74.4h26.74l14.77.2h.8l2.4.2h2.79l47.7.99 31.94.8 4.99.4 3.19.2-1.19 3.79-1 2.2-.8 1-.6.99 9.18-1.79 9.18.4 16.57.4 52.3 1.39 1.99.2v14.57l-1.6 5.59-.79 79.64.2 29.74-1.4 71.25h13.17l7.39-.39 4.79.39 9.58.4 124.55-4.39 8.98-32.73 6.19-14.97v4.79l.6 10.98 1.19 28.54.6 9.58 1.2 13.57 2.39 23.95 1 9.58 1 9.58 1.4 19.56.6 8.79v10.38l.2 4.79.6 19.76.19 12.57.6 29.14.2 9.58.4 8.38.2 15.57v3h1l7.78-.4 24.36.2h5.58l22.96.99 3.19.2 7.39.4 10.38.8 30.33.8 22.96.4h17.76l39.52.8 39.32.8 40.92.6 53.49.99 13.98.4 29.14-.4 16.16-.2 14.97-.2 10.98-.2 32.74-.2 38.92-.59 22.95-.2h28.54l29.74-.4 31.74-.4 27.94.6v-3l7.59.2 33.93-1.39h7.78l3 1.99 4.39-.2h8.78l21.36-.4 1.8-.2 9.98.2 2.99-.6 18.96-3.19 4.79-2.2 4.59-2.19 17.97 22.15 77.44 42.72 27.34 22.15 44.71 42.71 47.51 52.3 8.38 21.55-4.59 19.17-14.37 5.98-38.52-43.11-76.45-20.76-31.53-18.36-18.37-.2-14.97 6.59-8.58 16.16-1.2 28.15 5.99 67.46-89.02 23.55-36.73 72.65 1.8 21.76 1 11.58v3.59l.8 18.16 4.59 17.77 1.79 17.16 2.6 24.35-5.99 19.76-11.18 32.34-10.38 11.97-10.97 11.18-4.2 4.59h-1.99l-3.99 7.18-3.6 9.98-.99 9.78 1.79 1.8.4 4.19 4.79 8.98 11.78 16.97 8.58 9.18 24.95 9.18 15.97 8.78 19.16 10.38 17.36 10.98 9.98 13.77 2.8 12.38v11.77l-1.8 9.18-6.98 7.19-9.78 7.78-29.15 8.79-29.54 3.19-32.93 7.19-13.17 9.98-5.19 12.17 1.2 9.98 3.99 3.99 12.17 8.38 6.79 2 9.78.6 12.17-2.79 19.17-6.19 21.75-2.6 5.99 2.4 10.78 10.58 3.19 8.78 2.6 6.59 5.98 16.96 5.59 18.96-.2 25.95-2.79 13.57-4.59 10.58-15.97 13.97-15.97 8.58-33.53 13.78-19.76 10.97-7.78 7.99-2.2 6.19-.4 12.97-.4 5.39 5.99 8.78 7.58 6.19 10.38 3.79 13.78.8 42.71-9.58 7.78 1.99 15.17 8.79 11.38 12.37 4.79 7.98 3.79 10.58 2.2 12.38-2.4 14.17-4.39 7.98-6.18 6.19-10.38 7.78-17.17 13.58-4.39 9.18-.8 23.35 12.78 45.91 6.98 12.97 4.39 6.59 6.39 9.58 12.57 6.78 24.56.2 11.57-2.39 14.37-11.58 13.18-10.38 6.58-2.39 8.19.2 4.39 4.99-.6 5.39-9.98 17.16-4.99 13.57-.2 19.76 5.39 7.39 6.59 3.79 24.55 10.78 6.98 8.78 6.99 14.17v8.78l-.2 4.79-2.2 10.38-1.39 2.6-8.59 16.56-5.59 9.78-6.18 4.4-37.33 25.54-11.18 14.57-9.78 12.98-12.37 19.56-12.78 23.95-13.77 15.37-26.54 27.54-11.58 14.77-6.19 10.98-.6 12.97 4.39 9.18 9.58 10.58 14.77 9.38 10.38 3.2 38.93-2.8 13.17-6.58 19.36-17.77 25.95-25.55 9.98-8.58 15.77-9.18 22.55-5.39 17.96 2.6 10.38 1.39 6.59 4.39 6.59 12.38-.2 3.79 3.79 11.58 1 22.35-.8 6.99-.4 4.59-5.19 26.54-2.79.6-1.6 5.59-9.58 11.58-11.38 6.19-15.37 2.19-9.78-3.79-24.55-16.17-14.17-7.58-10.38 2.39-4.99 3-4.39 6.18.2 31.54 2.2 7.98.39 8.59 1.6 4.39.4 7.38 3.19 16.17 3.2 5.59 2.19 9.18 12.98 23.55 6.38 9.98 15.77 13.77 16.37 9.38 26.75 5.79 62.27 10.98 27.34 3.39 45.91 16.97 6.99 7.38 4.39 9.38.4 11.78-3.99 18.96-12.18 22.16-6.59 6.78-17.56 7.19-8.78 2.39-6.59-.6-36.13-20.75-76.84-24.15-35.53-6.99-8.78-.2-7.59 1.2-8.38 5.59-2.79 5.98-.2 17.97 6.58 13.57 20.56 19.36 22.36 14.97 17.96 9.38 25.15 7.19 14.77 3.19 54.69-3.99 5.59 2.59 6.39 3.2 10.97 11.17 2.6 7.99 3.79 14.97-.2 17.76-2.39 9.38-3.8 4.19-14.17 5.99-20.96-.2-11.97-5.59-18.36-16.16-20.76-21.16-8.59-6.39-12.57-2.99-16.57 2.19-10.38 4.19-5.59 6.79-9.38 15.37-.2 18.56 4.99 7.99 7.59 8.78 11.38 6.78 16.96 3.2 15.17 5.19 4.39 2.99 4.39 7.59-.6 1.79 2.2 1.2 2.2 9.38 2.99 14.17-.8 28.94-2.59 4.39-6.79 3-20.76 1.59-18.96-14.97-19.56-22.35-8.78-4.39-11.38 1.8-9.38 4.19-7.79 5.59-5.98 12.77-.8 8.78v2.4l-2.8-1.2h-1.99l-2.2.2-5.39 1.6-6.18 1.39-4.4.8-2.19-.2-2-1.6-2.59-2.99-1.6-3.79-.4-3.99v-1.6l.8-4.79.8-3.39 2.19-8.59 6.79-25.15.6-5.78v-2.8l-.8-2.39-1.4-2.2-3.19-4.79-6.59-7.98-3.39-3.4-4.99-3.79-2.99-1-4.19-.2-2.2.6-1.4 1.4-1 1.2-.99 1.99-.4 1.4-.4 2.4.8 4.59.4 3.39-.4 4.39-.8 2.6-.8 1.19-2 1.8-2.59 1.8-5.99 2.59-10.18 2.99-21.55 5.39-12.98 1.6-7.18 1.8-3.6 1.79-1.59 1.4-1.8 2-.4 2.19-.2 2.4.2 2.99.6 1.8 2.39 5.59 1.4 2.39 6.19 8.38.6 1.6.6 3.59v2.2l-.4 1.4-1 2.19-3.79 5.39-2.4 4.99-2.99 8.98-1.8 7.19-2.19 9.58-2.4 10.38-1 2.39-1.79 2.6-2.2 2.19-3.59 3-3.79 1.19 1.59-37.92 1.2-25.55.6-16.36V5996l-.8-26.75-1.2-21.96-18.56-.39-11.18-.4-7.78-.4-4.99-.2-1 1.39-15.17.2-24.35-.79-9.18-1.2-2.6-.8-3.19-.4-4.19-.4-49.9-2.39-1-.2-.8-.2-.8-.6-.39-1-2 .8-2 .4-2.39.2-15.17-.6-1.2-.2-29.74-1.6-39.52-1.59-54.69-2.4-45.51-1.6-.6 58.68-.79 41.52-1.6 96.4-.2 6.59-1.2 52.69v23.16l.4 12.57.6 14.77 1 24.15.8 3 .79 1.99 1.8 2.2 13.17 14.37 3.4 2.79 5.39 3.39 5.39 2.6 2.99 1.2 12.18 2.99 5.18 2 2.4 1.39 2.2 1.6 4.99 5.39 9.78 7.58 1.39 1.2 1.4 1.2.8 1.8 1 3.99z" stroke-linejoin="round"/></defs><use xlink:href="#a" fill="#9dc8ca" stroke="#6bb4d2" stroke-width="5.76"/><defs><path id="b" d="M2074.22 2417.28h-25.35l-12.97-.4h-2.2l-33.53-.4-20.16-.4h-13.17l-6.99-.2h-5.98l-11.98-.2h-3.79l-7.79-.2h-13.77v-3.79l.2-7.78.4-3.2.4-2.59 1.99-9.58 14.77-3.59 9.39-2.4 2.79-.6 4.19-1.2 5.59-1.39.6-21.36.4-1.2 3.19-5.39 1-1.79.8-1v-4.99l-27.35-1.2-12.17-.6.2-16.36v-18.37l.2-11.97.4-75.65h9.58l11.97.2h9.98l5.59.2 15.57.2h8.98l37.73 1h1.19v-3.99l.8-31.34v-29.34l.2-22.75-.2-4.59v-1.2l-.2-1.6-.2-1.99-.2-1.6.2-3.39v-8.99l.6-32.73.6-31.14-.2-1.79-.2-1.6-.6-1.4-.6-1.19-.79-1.4-.8-1-1-1-.8-1.19-.6-1-.4-1-.2-1.8v-5.39l38.33.8 5.98.2 11.98.2h2l8.38.2 17.96.4v11.98l-.2 12.17-.4 23.95v3.8l-.2 17.36-.4 29.34-.59 40.32v5.39l-.2 10.98-.6 39.12-.8 64.86-.4 28.35v4.59l-.4 31.93-.4 28.14-.2 18.57-.2 18.16h-12.77l-12.18-.2z" stroke-linejoin="round"/></defs><use xlink:href="#b" fill="#9dc8ca" stroke="#6bb4d2" stroke-width="5.76"/><defs><path id="c" d="M2454.46 2833.03l3.99 16.97-4.79-.2-12.38-.2-55.88-1-11.38-.2-2.6.2-41.11-3.59-18.96-1.8-7.39-.8-12.57-1.19-19.37-1.6-8.78-1.4-13.57-1.59-1.2-.2-35.33-3.4-18.36-2.19-32.73-3.59-69.46-7.59-31.94-3.39-26.75-3.59-24.15-2.4-3.79-.4-25.35-2.59-21.56-2.4-7.18-1-22.95-2.19-26.15-2-8.19-.4-21.55-1.39-13.77-1.6-15.37-2.2-11.18-1.59-42.12-5.19-14.57-1.6-23.75-2.2-10.18-.99-26.15-3-42.51-4.59-28.74-3.59-30.14-2.8-25.35-2.99-15.37-1.8-31.14-3.99-25.94-2.39-30.14-3.4-4.2-.59-12.37-1-19.16-1.6-30.14-3.19-11.58-1.2-3.39-.4-4.99-.6-1 8.98-1 11.18-.6 5.39-.59 5.79-.4 4.99-.4 3.39-.2 3.39-.2 2-.2 2.79h-1.8l-1.79-.2h-2.4l-8.38-.39-13.58-.2h-15.16l-3-.2-2.59.2h-4.59l-4.6-.2-4.99-.2h-.79l-6.79-.2-11.98-.2-12.97-.4-13.57-.2-15.17-.4-22.96-.4-8.58-.2-13.97-.4-12.77-.2-8.19-.2-12.97-.4h-3.59l-41.92-.99-15.17-.8h-1.4l-5.98-.2h-9.59l-23.15-.4h-12.17l-16.37-.2-3.39 1.8h-5.39l-3 .19.2-4.79-.4-33.73.4-21.15v-4.79l.2-5.79v-11.98l-7.98-.8-11.38-1.19-38.12-3.4-30.14-2.99-13.97-1.2-15.57-1.4-7.99-.79-50.1-5.39-.2-12.38 1.2-80.83-.2-6.99 1.2-77.64 1.4-112.57h-7.39l-49.3-1-30.94-.4-25.54-.2-20.76-.4-7.59-.2-32.73-.8 1.2-63.07 2.19-116.36v-3.59l-26.74 16.56-17.77 9.58-9.18 6.39-34.13 21.16-15.57 9.18-15.77 8.78-18.96 10.78-25.95 16.17-8.38 4.99-17.96 10.97-26.35 16.17-7.59 4.19-7.38 4.59-10.78 5.79-11.78 7.79-14.97 9.97-7.98 5.59-2.99 2-4.2 3.19-.79 5.99-1.8-.2-18.96-.8-18.36.2h-1.4l-22.96-1-7.38-4.59-2.6-6.78.4-14.97.6-8.78 1-8.99 4.79-27.94.6-3.59 2.19-14.97 1.6-11.38v-10.78l.2-11.37.4-34.53-.2-37.93 1.4-79.63.2-20.36.8-82.04v-15.36l2.39-144.31.6-29.54 1.4-103.39 1-52.29.99-62.88.2-8.58.2-5.19.4-28.94v-26.74l.4-36.33 1.6-144.31 1.2-83.83.59-58.48-10.97-.6-71.06-4.59-24.35-2.19-38.52-3.19-7.59-1.2-2.39-.6-4.2-1.6-6.98-3.19-17.57-9.38-10.38-5.19-4.99-2.2-12.17-3.79-10.38-1.6-7.78-.6h-4.2l-11.17 1.2-7.79 1.8-16.36 4.59-4.8 1-16.56 3.79-4.79 1.2-5.59 1-7.59.79-7.58.2-9.98-.6-7.98-.99-13.58-.8 1.8-58.68.8-44.91 1.4-50.7.39-25.75.8-25.54 1.2-75.65 1.8-75.65.4-25.14.2-10.18 11.97.79 13.37 1.4 20.76 1.4 22.96 2.19 46.7 3.6 42.32 3.59 24.35 1.6 27.54 2.39 13.38 1.4 5.98.8 4.2-.2 17.16-5.19h2.6l2.99.4 6.39 2.39-5.99 2.8-6.99 3.99-7.38 4.59-9.58 5.19-6.59 3.79-5.59 4.79-4.39 3.99-4.59 6.19-1.6 3.39-1.19 3-.6 3.39-.4 2.99v3.4l1.19 5.99 1 2.39 6.59 14.57 1.4 5.19.6 3.79v3.99l-.2 4.99-1 6.19-2 8.78-1.4 6.79-.19 2.99.39 3 .6 2.79 12.38 2.6h4.39l2.59.4 1.8.79 2.4 1.2 1.59 1 2.6 1.4 1.99.8 2.2.39 1.99-.19 5.19-.8 4.79-.2h2.6l3.39.4 2 .2 1.99.4 4.6.99 3.39.6 1.4.2h3.39l2.19-.2 1.2-.2.8-.2.8-.2 1.6-.6 1.99-.79 2.2-1 2.19-.8 1.6-.4 2-.4 1.59-.2h4.59l32.74 2 1.19.2h4.2l20.36.2 35.92 13.37 29.14 36.33 46.31 76.44 15.17 26.15 154.29 108.78 20.36 13.97 9.58 6.58 13.57.2.4-32.53.4-56.49 1-67.26 1.2-99.2.4-33.33.59-38.72.2-8.78v-5.39l.2-17.57v-31.73l22.76.2 11.57-.2 10.78.4h33.53l60.88.4 8.78.2 23.76.2 67.86.4 19.76.2h18.16l35.93.2 19.76.39h7.99l2.39.4 1.4 1 .4.4 7.18 2.6h17.97l3.59-.4 4.79-1.4 6.19-3.19 2.39-1 1.4-.2 1.8.2 7.58 2.79 3.99.4h9.98l-40.92-97.4-25.94-58.88-5.59-12.38-33.93-78.44-32.74-76.04L991 486.21l-11.37-26.15-7.59-17.56-14.17-33.53-33.13-76.85-29.34-67.26-4.99-11.97-9.38.99-4.2-10.18-11.17-25.54-5.39-12.78-7.79-17.56-6.18-14.57-4.2-9.38-.59-1.4-21.56-50.7-10.98-25.15-10.18-23.75h13.17l18.17.6 7.78-.4h23.95l16.57.4 4.39.4h23.75l14.38.4 19.96.4 72.65 1.2 64.87.99 51.89.8 23.76.8h21.55l10.78.4 49.9.8 117.36 1.99 36.53.4 36.93 2 24.55.2 27.34.4 52.1.8 91.41 1.59 7.39.4 36.52.2 15.17.2 11.38.2 10.58.2 24.35 1.2 30.74 1-.6 3.39-1.6 8.98-5.39 10.38-7.78 12.57-3.19 18.57-2.6 15.37-.6 21.75-1.2 15.97-3.19 7.38-1.6 3.8-6.98 7.58-8.78 7.78-8.99 9.78-1.59 6.59.8 10.78 2.39 7.38 6.59 14.77 17.36 22.56 20.76 32.53 12.18 15.17 15.37 9.18 18.36 1.2 31.14 2.4 24.95 9.58 12.37 12.37 3.39 8.58 4.59 13.77 6.19 12.18 3.99 6.99 16.57 12.17 21.96 8.98 13.97-2.19 8.18-4.19 7.39-7.19 6.38-7.78.6-9.58 2.6-15.37 1.2-17.37 3.79-17.16 2.59-12.18 1-1.2 4.39-5.58 2.2-2.2 4.39-.8h7.58l15.97 10.58 4.79 11.58 3.59 16.16 5.59 18.57 12.98 29.54 10.97 8.58 7.79 2.39 6.39-2.19 4.79-5.99 3.59-10.38-1.4-11.18-4.59-9.18-5.39-10.77-5.59-13.98-1.59-12.97 1.99-15.37 3.2-11.77 6.38-8.99 6.39-1.59 8.58.8 17.57 7.18 6.38 5.59 13.38 13.17 19.56 16.17 13.97 9.98 13.57 7.38 5.79 7.99 1 10.78-3.19 11.97-7.79 19.76-11.18 14.17-9.38 10.58-8.38 13.77-14.97 33.33-10.78 40.12-5.99 12.78-8.78 11.77-11.78 10.98-12.37 5.99-19.36 2.39-16.17 7.19-10.78 17.76 2.2 20.16 13.37 25.55 28.54 31.74 23.96 19.76 12.57 34.33 2.99 38.92-5.78 29.94-14.97 32.53-40.12 16.37-18.37 12.57-4.39 11.78-1.59 4.79-.6 3.59.6 6.98.4 3.8.79 4.19 1.2 3.59 1.6 2.2 2.99 2.59 3.4 2.6 64.27 50.29 25.54 3.4 12.58-7.39 14.37-16.36 7.78-26.55 9.98-16.37 12.38-4.79 14.97 2.2 16.37 10.78 10.38 15.76 9.18 34.93.4 31.54-10.58 44.31-.6 6.19-2.4 24.55 6.19 25.74 26.55 42.72 3.79 20.16-5.99 21.75-9.98 17.57-8.38 28.14 1.2 25.95 2.99 25.94 1.8 15.77.4 11.98.59 25.54-7.78 30.74-5.79 26.35-1.59 18.16 5.98 16.57 14.17 9.78 10.98-1.2 7.59-4.39 14.97-39.72 6.78-19.56 10.78-12.77 12.18-2.4 15.97 7.39 10.17 9.38 4.6 13.77-.2 19.16-8.39 37.72-5.99 37.33 2.6 22.15 6.99 8.38 12.17 3.8 13.97-7.99 37.93-73.65 14.57-19.96 10.98-4.79 10.17.8 8.39 8.18 2.99 14.38-.6 21.55 5.79 17.37 14.37 5.78 8.58-3.59 7.19-8.18 4.59-6.99 3-8.98 10.37-26.15 2.6-26.94-4.59-24.75 1.4-19.16 11.97-12.78 27.55-10.57 31.13-6.79 18.17-9.78 15.96-17.37 24.56-16.16 17.36-5.19 28.74-12.78 15.97-20.35 9.38-8.39 11.58 1 8.18 3.79 4.39 13.97.2 32.74 3 20.76 15.37 17.96 23.95 8.98 21.95 14.37 14.97 27.35 3.99 16.56-3.59 15.77-8.78 15.77-12.18 10.58-21.75-.8-33.73-33.93-23.96-14.37-22.55.79-12.77 13.78-6.19 15.37-1.4 15.56 18.76 35.13 37.73 11.78 47.7 4.59 54.89 11.78 37.72 21.35 6.39 12.98 2 13.37-5.39 10.78-11.38 9.78-23.75 5.39-23.95-1.8-29.14-11.38-27.35-20.76-19.96-4.39-29.34 16.97-2.2 25.95 4.99 28.14 26.15 47.3 21.76 25.75 11.97 6.19 40.92 34.33 24.55 33.13 10.38 28.34-4.59 19.96-5.79 7.39-7.78 4.99-16.97-5.59-22.35-31.94-17.37-35.92-17.56-31.94-1.2-1.6-1.2-.79-.8.79-.6 1.4-.19 2.2.39 16.76.6 21.56-.2 7.38-.6 2.8-1.39 1.79-11.98 13.78-15.57 18.36-27.54 38.52-2.8 11.98 1 13.57 6.99 42.51-2 26.15-15.17 53.89-7.58 36.33-12.58 28.34-12.17 5.99-17.97-4.2-19.96-22.15-14.97-16.97-11.57-4.19-8.98 1.6-9.39 5.19-25.94 45.31-6.99 12.17-2.19 16.57 4.39 22.15 28.14 15.97 13.17 10.98 6.99 20.76-5.79 19.76-16.57 13.77-50.89 9.98-15.77 34.13-16.37 57.08-.6 29.54 18.76 20.36 15.97 4.99 54.29 2.79 17.57 9.38 10.18 11.78 2.39 17.17-2.59 13.17-5.79 12.97-11.98 13.97-42.31 14.18-11.38 4.39-8.98 11.37-2.59 19.96 7.38 79.44 8.38 37.52 11.78 11.38 15.97 6.19 34.53-16.97 1.2-.4 16.36-5.19 13.38 5.99 6.78 16.77 1.6 12.77-1 26.15-17.96 84.43-5.19 19.56-2.8 11.37-13.97 22.96-14.97 6.19-9.58-3.8-8.18-8.98-2.4-12.37 9.38-40.72-1.59-21.96-2-10.37-5.39-9.19-12.37-1.39-14.57 16.16-19.57 32.14-12.17 13.57-12.58 4.19-17.96-2.99-20.16-10.38-14.57-16.17-14.77-5.59-11.58 7.59-3.59 12.17 11.98 52.5 7.18 13.17 11.98 22.15 41.32 20.36 5.18 3.6 1.4 1.19 1.2 1.6.8 2 .4 1.19z" stroke-linejoin="round"/></defs><use xlink:href="#c" fill="#6bacaf" stroke="#097d9b" stroke-width="5.76"/><defs><path id="d" d="M2048.87 2417.28h25.35l12.18.2h12.77l.2-18.16.2-18.57.4-28.14.4-31.93v-4.59l.4-28.35.8-64.86.6-39.12.2-10.98v-5.39l.59-40.32.4-29.34.2-17.36v-3.8l.4-23.95.2-12.17v-11.98l-17.96-.4-8.38-.2h-2l-11.98-.2-5.98-.2-38.33-.8v5.39l.2 1.8.4 1 .6 1 .8 1.19 1 1 .8 1 .79 1.4.6 1.19.6 1.4.2 1.6.2 1.79-.6 31.14-.6 32.73v8.99l-.2 3.39.2 1.6.2 1.99.2 1.6v1.2l.2 4.59-.2 22.75v29.34l-.8 31.34v3.99h-1.19l-37.73-1h-8.98l-15.57-.2-5.59-.2h-9.98l-11.97-.2h-9.58l-.4 75.65-.2 11.97v18.37l-.2 16.36 12.17.6 27.35 1.2v4.99l-.8 1-1 1.79-3.19 5.39-.4 1.2-.6 21.36-5.59 1.39-4.19 1.2-2.79.6-9.39 2.4-14.77 3.59-1.99 9.58-.4 2.59-.4 3.2-.2 7.78v3.79h13.77l7.79.2h3.79l11.98.2h5.98l6.99.2h13.17l20.16.4 33.53.4h2.2l12.97.4z" stroke-linejoin="round"/></defs><use xlink:href="#d" fill="#6bacaf" stroke="#097d9b" stroke-width="5.76"/><defs><path id="e" d="M2308.35 3959.54l-11.97 15.57-17.57 9.58-17.56-2.99-20.36-10.98-51.3-36.13-13.77-1.79-11.58 3.79-10.38 10.18.2 18.56-4.59 2.19-4.79 2.2-18.96 3.19-2.99.6-9.98-.2-1.8.2-21.36.4h-8.78l-4.39.2-3-1.99h-7.78l-33.93 1.39-7.59-.2v3l-27.94-.6-31.74.4-29.74.4h-28.54l-22.95.2-38.92.59-32.74.2-10.98.2-14.97.2-16.16.2-29.14.4-13.98-.4-53.49-.99-40.92-.6-39.32-.8-39.52-.8h-17.76l-22.96-.4-30.33-.8-10.38-.8-7.39-.4-3.19-.2-22.96-.99h-5.58l-24.36-.2-7.78.4h-1v-3l-.2-15.57-.4-8.38-.2-9.58-.6-29.14-.19-12.57-.6-19.76-.2-4.79v-10.38l-.6-8.79-1.4-19.56-1-9.58-1-9.58-2.39-23.95-1.2-13.57-.6-9.58-1.19-28.54-.6-10.98v-4.79l-6.19 14.97-8.98 32.73-124.55 4.39-9.58-.4-4.79-.39-7.39.39h-13.17l1.4-71.25-.2-29.74.79-79.64 1.6-5.59v-14.57l-1.99-.2-52.3-1.39-16.57-.4-9.18-.4-9.18 1.79.6-.99.8-1 1-2.2 1.19-3.79-3.19-.2-4.99-.4-31.94-.8-47.7-.99h-2.79l-2.4-.2h-.8l-14.77-.2H995l-31.74-.4-11.78-.2h-19.76l-8.18.2h-6.99l-36.52-.4-14.77-1.2.2-2.39.4-8.39.2-3.79-.2-38.92.99-36.33v-20.75l1.4-77.45 1.2-75.24 1.2-91.42.4-1 .2-1.19v-7.19l.2-17.36.19-3.8.6-25.34v-6.39l.2-16.17.2-9.18.4-27.54.6-28.55.4-23.75.2-20.75.4-19.37v-1.19l.2-4.99v-10.38l5.99-.4 4.99.2h5.19l6.78.4 21.36.6 21.36 1.39 19.96 1 13.17.4h6.39l14.37.2 13.17.6 11.78.2 12.17.2h15.77l.4-27.55 1-37.32 1.4-52.89.59-24.75.2-6.99.6-39.12v-5.99l3-.19h5.39l3.39-1.8 16.37.2h12.17l23.15.4h9.59l5.98.2h1.4l15.17.8 41.92.99h3.59l12.97.4 8.19.2 12.77.2 13.97.4 8.58.2 22.96.4 15.17.4 13.57.2 12.97.4 11.98.2 6.79.2h.79l4.99.2 4.6.2h4.59l2.59-.2 3 .2h15.16l13.58.2 8.38.39h2.4l1.79.2h1.8l.2-2.79.2-2 .2-3.39.4-3.39.4-4.99.59-5.79.6-5.39 1-11.18 1-8.98 4.99.6 3.39.4 11.58 1.2 30.14 3.19 19.16 1.6 12.37 1 4.2.59 30.14 3.4 25.94 2.39 31.14 3.99 15.37 1.8 25.35 2.99 30.14 2.8 28.74 3.59 42.51 4.59 26.15 3 10.18.99 23.75 2.2 14.57 1.6 42.12 5.19 11.18 1.59 15.37 2.2 13.77 1.6 21.55 1.39 8.19.4 26.15 2 22.95 2.19 7.18 1 21.56 2.4 25.35 2.59 3.79.4 24.15 2.4 26.75 3.59 31.94 3.39 69.46 7.59 32.73 3.59 18.36 2.19 35.33 3.4 1.2.2 13.57 1.59 8.78 1.4 19.37 1.6 12.57 1.19 7.39.8 18.96 1.8 41.11 3.59 2.6-.2 11.38.2 55.88 1 12.38.2 4.79.2v3.99l-.2 2.2-.2 1.79-.6 2.2-1.8 3.99-1.79 3.19-50.1 29.74-22.76 14.97-16.76 18.17-6.19 18.96 19.36 40.51 5.79 16.97 2.4 7.39-6.99 32.33-7.39 17.76-2.59 6.39-4.79 8.58-8.18 15.17-7.59 13.57-6.19 11.18-14.97 32.34-1.99 43.11 9.58 22.55 26.15 29.74 38.92 31.94 32.13 37.52 13.38 26.15 8.78 31.13-.8 16.37-14.17 16.37-18.36.4-95.21-50.7-18.96 7.38-7.59 14.57-1.4 13.58 6.19 39.32 15.37 30.34 28.74 18.56 37.33-3.4 59.28-33.13 31.33 3.59 13.78 13.78 1.79 3.19 5.99 10.98-.2 17.76-8.78 19.16-21.16 13.18-62.87 21.35-15.17 10.78-10.38 12.57-3.39 3.8-9.18 10.38-6.99 21.95-1.4 20.96 6.79 25.35 21.55 29.14 52.9 40.71 27.54 48.91 3.8 14.57-2 12.97-6.99 12.97-14.57 6.59-12.17.6-27.15-14.17-57.08-47.31-52.7-12.77-29.94 5.99-13.17 16.16-2.2 17.97 10.58 22.15 34.33 21.76 19.56 13.37 13.78 19.76 4.99 19.56-4.39 26.35-22.76 52.29z" stroke-linejoin="round"/></defs><use xlink:href="#e" fill="#09757a" stroke="#00465f" stroke-width="5.76"/></svg>