<svg width="384" height="4.51in" viewBox="0 0 2880 3250" xmlns="http://www.w3.org/2000/svg" xmlns:xlink="http://www.w3.org/1999/xlink"><path fill="#fff" d="M0 0h2880v3250H0z"/><defs><path id="a" d="M2498.77 3212.73l.2 2.64.21 2.84-2.24-1.01-8.84-3.46-1.32-2.23-3.65-6.3-1.12-1.73-2.74-4.77-.51-1.12-.51-.91-.71-1.83-.41-1.52-.2-1.22-.41-1.63-.2-1.21v-1.12l.1-1.63.21-1.11-.92-11.99-.71-2.03-19-23.66 11.99-33.62-6.5-13.2-6.4-3.25-11.78-38.39-3.05-5.08-17.68-16.66-1.32-1.12-7.72-6.5-11.47-9.24-9.65-5.08-28.75-10.15-8.74-5.28-1.93-1.93-4.37-4.27-.91-2.03-9.35-19.8-3.14-6.81-21.23-28.74-7.12-9.24-2.74-2.14-6.19-4.97-4.27-1.93-4.06-1.12-3.56-.61-5.48.31-8.54 1.62-9.55 4.06-6.7 4.07-3.25.81-3.05.1-1.83-.71-2.74-2.03-5.28-4.17-5.59-5.79-4.67-4.67-12.19-12.69-11.48-12.19-2.84-3.56-1.83-1.82-2.03-1.43-1.83-.71-1.83-.5-2.03-.11h-2.34l-2.03.11-3.05.2-10.46 1.83-3.15.3-2.13.2-1.83.11-3.35.5-1.42.11h-1.12l-1.02-.31-.81-.41-1.22-.91-2.13-1.42-4.57-1.93-5.08-2.95-3.56-1.11-3.45-.61-12.19-.31-3.46-1.11-3.35-2.54-1.22-1.63-.81-2.13-1.22-5.18-1.93-4.98-1.42-2.23-1.42-1.63-2.14-1.83-22.85-13.81-2.44-.3-3.55.91-8.64 3.15-1.22-.71-.81-1.12-.71-3.04-3.66-23.47.41-4.36.81-2.85 14.12-28.23-6.2-5.89-52.61-49.16-1.02 13.71-2.54 11.99-9.04 19.4-1.83 9.03-1.12 10.67-.91 4.67-1.52 4.67-3.56 9.35-8.23 18.89-7.01-4.07-3.35-1.62-13-8.53-13.82-12.8.21-7.41 1.01-44.28.21-9.35-.1-2.84-.11-2.03-.2-1.83-.3-2.44-4.98-27.01-.51-2.95-5.89-30.87-.41-4.17-.71-5.18-1.32-8.94-.1-2.03-.2-2.03-.11-1.42-.4-3.25-.81-5.69-1.43-9.54-.4-2.85-.92-6.4-.3-1.52-.41-2.54-.61-5.48-2.23-40.63-.82-15.33-1.11-15.95-.92-11.88-1.22-15.74-.81.3-2.84 1.52-9.75 5.08-12.7 6.3-4.47 2.64-4.78 2.54-12.19 6.3-8.12 4.16-4.06-6.2-12.09-18.58-4.37-7.52-9.85-21.43-9.25-20.11-3.76-10.86-3.25-6.71-4.67-7.11-12.19-18.99-3.15-4.57-2.23-1.12-2.75-.3-1.93-.61-2.23-1.32-2.74-2.95-24.28-44.28-5.28-9.24-5.39-7.11-2.33-4.06 3.86-1.73 21.02-9.24-2.74-6.91-18.79-48.04-19.2 8.33-11.17-27.83-10.67-27.01-20.11-50.68-1.42-3.86-7.32-22.95-1.22-.71-2.54-2.14-2.84-2.64-6.5-5.89-2.34-2.13-10.16-9.24-6.4-5.69-11.98-10.66-2.03-3.36-8.33-21.22-3.86-10.06-6.3-16.04-4.67-11.68-5.39-14.02-1.42-3.45-4.67-11.78-2.44-6.1-2.13-5.28-2.85-7.01 2.24-2.13 19.8-16.86 13.41-11.78 3.56-3.86 3.96-5.79 2.74-5.48 2.03-6.1 3.36-14.62 2.23-6.81 3.56-5.79 3.25-4.36 7.11-7.62 5.28-4.57 4.16-3.55 7.83-7.01 3.65-3.15 3.56-3.05 10.87-9.04 13.41-11.17 2.23-1.93 1.02-.51 3.35-3.96 3.05-5.18 8.43-11.58 16.15-22.34 4.16-5.89-1.01-1.02-.1-1.01v-1.02l.3-1.11-.2-.71-2.85-12.9-.2-1.12 1.12 1.62 1.01 1.43 4.17 5.07 6.5-2.64 3.15-1.32 7.92-7.51 2.44-2.13 8.02-5.69 10.57-5.38 8.43-3.15 6.09-2.24 17.58-7.72 1.73-.81-.51-1.52-1.02-13.41v-25.19l-2.13-22.24-1.12-3.65-2.94-10.47-1.43-4.67-1.52-5.18-.41-1.22-3.04-9.85-.72-2.13 1.93.1 10.57-4.57 4.37-2.13 12.8-7.92 6.29-3.15 4.17-1.42 3.76-1.12.5 2.44 3.26-.61 2.84-.21 1.63-.1h5.07l1.83.21 2.85.2 2.43.4 5.19.51 8.02 1.22 3.56.61 2.74.61 4.16.41 5.89 1.82 2.24.82 12.49 4.67 6.4 1.42 4.78 3.25 3.65 3.56 2.34 2.64 2.64 3.35.92 1.22 1.62 2.64 4.88 6.5 2.74 3.15 3.25 3.14 1.42 1.63 2.24 2.54 47.84 43.47 9.45 8.53 1.52 1.12 1.22.81 5.08 2.03 8.43 4.26 13.41 4.98 24.28 9.45 2.13.81 2.64.91 7.62 3.05 8.84 3.45 3.86 1.63 1.83.61 10.46 4.16 3.76 1.52 1.93.82 2.64 1.22 5.28 3.04 2.44 1.42 4.16 2.34 13.62 9.34 4.67 3.36 4.57 3.35 4.67 3.55 5.69 4.37 3.56 2.94 7.92 6.4 1.12-2.33 1.93-4.27.71-1.83 3.96-10.46 1.22-3.35.71-2.33.41-2.85.5-6.5 3.15-34.73 1.22-12.8 2.34-18.38.61-1.93-1.12-3.25-.81-2.64-.82-3.66-.81-4.16-3.05-16.76-2.54-14.02 7.32 1.12 13.31 2.03 22.44 3.45 15.85 2.44 10.77 1.93 13 3.25 4.78 1.42 7.72 2.75 1.11.5 24.48 10.87 18.9 8.63 11.68 5.29 14.63 6.9 9.14 4.67 14.12 7.93 5.28 3.04 28.85 16.15 16.46 9.55 7.92 4.87 7.82 5.18 11.38 8.03 3.45 2.74 10.57 8.73 4.36 3.96 18.8 17.07 10.26 9.34.91.81 4.06 3.66 3.05 2.84 3.56 3.05 1.62 1.73 1.42 1.32 6.61 7.92 7.61 9.44 11.79 15.03 8.83 11.89 8.44 11.47 8.93 12.29 1.43 1.83 10.66 14.22 9.25 11.78 7.41 10.06 9.96 13.81 15.54 21.53 21.53 28.64 7.83 9.04 2.53 2.84 1.02 1.02 1.42 1.42 6.81 6.3 3.15 2.64 4.47 3.65 5.08 3.86 5.68 4.07 2.85-2.44 1.32-1.32 7.21-8.64 1.02-1.52 1.52-2.84 7.62 4.77 11.38 6.2 3.04 1.32 3.46 1.62 5.48 2.34 3.25 1.11 3.46 1.22 1.93.61 2.44.71 4.87 1.53 4.67 1.11 6.5 1.53 3.76.81 3.46.61 4.47.71 4.06.51 3.76.3 3.45.21h5.39l4.36-.11 4.47-.1 3.15-.2 2.95-.2 4.57-.71 3.15-.51 2.74-.51 9.35-1.83 9.24-2.13 9.75-2.23 3.86-1.12 8.33-1.83 2.54-.51-.3 3.15-.11 2.34v4.97l-1.72 17.27-1.22 45.3-2.54 59.21.41 1.82 2.53 66.93.92 87.35-3.96 42.35-9.65 43.06-12.7 32.5-40.33 77.19-4.67 10.87-.51 1.11.21 5.79-9.15 10.67-1.93 6.09-3.45 8.63-4.47 16.86-2.84 1.12-12.91 32.4-1.82 12.29-10.36 41.23-11.38 52.41 2.23 9.95-.91 3.45 2.13-2.03 7.01 4.37-2.13 5.79-1.73 5.08-1.73 40.01-.5 14.22-.92 7.82-2.64 7.01-3.05 5.89-5.18 9.14-4.87 6.1-4.27 4.26-7.41-1.12 3.65 33.62-5.38 11.78-14.32 12.7-1.32 29.35-7.83 17.67-3.86 13.81-15.74 8.43.51 2.95v3.45l-1.32 3.96-2.04 3.35-.81 3.96.41 3.36 4.47 11.27.4 4.77-.3 3.05-.81 1.63-1.22.5-7.42 1.02-7.41 1.73-2.34 1.11-1.83 2.64-1.22 3.15-.51 3.25 1.43 9.95-.51 1.83-1.02 1.32-2.13.61-2.13 1.22-2.03 2.95-1.22 3.86-2.04 9.54-1.21 3.76-.21 2.84-.1 3.05-.61 3.66-1.42 2.13-2.74 2.84-4.37 5.69-2.44 3.96-1.73 5.39-.91 4.57-.61.81-1.93 2.23-.81 1.02-.92 1.32-1.22 2.33-.91 1.93-.81 1.32-.71 1.12-1.43 1.83-1.82 2.03-1.83 1.93-1.32 1.63-1.02 1.52-.61 1.42-.91 2.44-.82 1.83-.81 1.62-2.13 3.86-1.93 3.45-2.95 4.27-.71 18.38-.4 7.82-.41 3.35-.61 2.24-1.02 2.44-1.42 2.43-1.72 2.34-1.73 1.73-1.93 1.32-2.13 1.01-2.34.71-2.44.41h-3.15l-7.01-.2-4.47.1-3.65.4-3.46.82-3.45 1.22-3.56 1.72-2.13 1.22-5.79 3.66-8.63 6.19-1.32.92-.92.4-.71.21-1.52.2h-1.12l-1.32 4.26-5.49 2.85-5.38 1.22z" stroke-linejoin="round"/></defs><use xlink:href="#a" fill="#9dc8ca" stroke="#9dd7f0" stroke-width="5.76"/><defs><path id="b" d="M32.81 2324.77l-4.67 8.63.2-13.41.1-15.84.31-25.9.2-28.03.1-30.47v-42.66l.31-21.83.1-20.92.1-28.04.1-22.03.1-10.47.21-8.53.3-7.92.51-7.11.61-5.58.4-4.47.92-6.5.91-6.3 1.02-6.8 1.42-6 2.85-13.4 2.43-10.26 3.15-12.9 1.02-4.26 1.12-4.47 1.93-8.33 3.04-11.88 1.32-5.49 1.32-5.48 3.05-13 .92-3.96 1.21-5.59.82-3.76.71-4.06.91-6.2.61-4.46.81-6 .31-2.23v-.81l.61-5.28.2-3.25.2-1.02.31-4.16.1-3.56.1-2.23v-4.78l-.1-2.74-.2-3.96-.1-4.98-.41-10.66-.3-4.67-.21-3.15-.2-3.15-.31-2.64-.2-2.44-.41-2.64-.4-3.45-.51-3.86-.3-1.93-.21-1.62-.4-3.15-.41-2.95-.41-2.54-.4-3.35-.41-3.25-.3-2.54-.41-3.05-.3-2.33-.31-1.93-.51-3.66-.3-2.54-.21-1.93-.2-1.52-.3-1.73-.71-5.68-.61-4.88v-.51l-.61-4.36-1.32-8.43 1.32-4.47 2.13-5.99 1.52-5.08 3.05-6.6.61-1.32 1.12-2.44 2.13-3.86 3.46-5.99-1.12-1.42-1.42-2.24-1.02-1.83-.2-8.73-.71-2.95 2.94-1.32 21.64-20.01 3.45-2.64 3.35-2.43-.81 39.61.92-1.93 2.64-5.69 3.04-5.38 3.15-5.08 2.85-3.96 2.74-3.15 2.54-2.44 2.84-2.23 3.05-1.73 3.35-1.62 4.27-1.53 7.92-2.33 8.23-2.34 6.91-1.73 11.68 8.13 61.46 3.76 33.42 35.75 4.87 8.83 29.26 52.51-21.13-7.31-3.15-1.12 3.55 3.25 10.97 9.85 10.87 9.85 32.61-1.93 133.99-8.83-21.03-60.33-1.83-5.28-14.83-43.88-3.35-3.35-1.22-1.62-1.12-2.64-.61-2.75v-1.82l2.13-9.35-.1-2.84-.71-3.15-1.62-3.86-2.04-3.45-1.72-2.34-1.63-1.52-10.66-4.67-2.34-1.32-2.64-2.85-4.47-7.82-1.52-4.16-.51-3.05v-3.45l.81-7.82-.51-1.93-.81-1.22-1.62-.92-2.14-.4-1.93-.81-12.39-10.26-1.83-1.83-1.83-1.22-2.03-.61-1.22-.1h-1.32l-1.01.1-3.76.31-1.93-.82-.51-.61-.31-.6-.3-.72-.2-.91.2-1.22.71-1.42.2-.81-.1-.51-.4-.61-.82-.51-3.15-2.13-12.29-7.52-.4-.4-.31-.71-.3-.92.1-2.54-.31-.61-.4-.5-.71-.41-2.04-.61-.4-.3-.41-.31-.71-.71-2.74-4.37-.81-1.22-3.05-3.35-2.03-3.75-2.85-8.74-.51-1.32-.6-1.73-.51-.81-2.64-2.94.2-1.02-.1-3.86-.51-4.37-1.02-5.38-1.52-6.4-1.42-5.38-2.74-11.07 3.75.3h.82l.91-.2.41-.1.61-.1h.5l.61.1h.51l.51.2.71.1.61.31 7.62 4.98 9.65 6.8 7.52 6.91 6.9 7.92 7.93 9.85.61.71 1.82 1.32 1.43.2 6.9-2.23-7-22.24-2.14-6.81-2.23.21-5.39-.21-4.16-1.32-2.64-1.72-5.08-5.59 9.24-3.45 11.18-2.44 4.47-2.44 3.75-14.22 1.12-1.01 14.12-6.3 28.75-13.3 1.22 3.25 3.15 6.9 6.19 11.78 6 10.77 2.84 1.12 13.1 10.56 7.62-.71 20.01-1.63 9.35-.81h.81l16.46-2.44 12.9-1.93 5.28-.71h2.85l2.23-.3 7.42-2.14 21.12-1.11-1.52-1.73-2.64-2.84-2.03-1.83-2.14-2.03.72-.61 2.23-1.52 2.64-1.22 9.35-4.27 13.3 10.16 2.34 2.84.91 1.63 23.27-1.32 10.97-16.76 13-21.84 3.76-7.21 5.58 4.16 4.98 3.86 9.85 7.11 3.56 2.85 15.14 11.07 5.89 4.16 2.64 1.93 1.52 1.02 36.37 24.27.1-1.52v-2.64l.1-1.63.51-6.3.2-4.36.1-1.93.31-3.25.2-2.24.41-3.04.81-5.18.61-3.15.61-2.34.51-2.44 1.72-8.93 1.32-7.42.41-2.64.51-2.43 1.01-5.69 1.33-7.21 2.33-13.41 77.3 26.2 31.09-1.62-.71-.51-1.93-2.13-1.12-2.13-1.12-4.88-.81-3.96 12.8-18.28 7.62 4.47 3.25.4 8.73 1.83 2.03.1 8.33-1.42 3.15 16.56.61 3.85.41 2.14 1.22 7.82.61 2.84 31.39-4.06 30.06-3.05 20.62-.51 23.27 2.75 18.99 4.26 27.73 9.35 30.58 14.11 12.09 8.33 15.44 6.6 23.97 9.96 15.95 4.87 10.77 1.63 17.77 1.72 17.27-.71 14.63-2.23 13-3.05 13.61-4.27 13.72-6.39 7.41-3.86 24.79-13 7.21-4.27 11.48-7.51 42.86-30.47 15.95-12.6 4.78-3.04 6.4-4.27 6.9-5.69 6.3-5.48v3.05l-.41 11.17-1.52 7.21-1.73 6.9-2.23 12.6-.51 7.51.1 6.3.31 9.55-2.44 3.45-.1 11.27-.2 16.25 4.26 51.19-.91 2.95.71 16.04.61 12.6-.51 16.45.2 19.81-.91.5-.1 19.1.61 2.64.61 3.15.71 3.55.51 2.13.6 2.24.51 1.83.51 1.62 1.63 4.37-.82.61-.81.71-.91.71-.82.61-.81.61-5.18 3.76-.51.4-2.13 3.15-2.34 5.08-2.74 1.32-3.25 1.32-3.56 1.62-7.31-5.89-2.74-2.43-2.14-1.53-9.24-5.58-9.34-5.49-15.44-9.14-3.76-2.33-5.89-3.36-3.86-2.53-5.69-3.66-6.3-4.16-.92 3.45-3.96 13.71-4.06 15.54-6.5 22.85-.81 2.74-2.75 1.73-1.52.81-34.23 13-15.34 7.62-6.1 2.44-1.11.2-1.02 1.93-3.55 5.28 1.93 4.57 1.72 2.34 2.85 1.93 8.22 4.77-1.62 7.62-.61 10.36 5.08-6.61 3.55-3.55 1.73-.71 1.83.2 13 6.71-16.45 35.44-2.65 6.4-1.01 3.15-5.49 25.79-1.83-.3-2.74.3-1.62.92-3.76-1.12-2.85.31-3.25 1.52-3.86 2.64-2.74 7.52-12.19 8.12-4.67 8.23-8.84 13.61-2.13 2.03-2.85 1.72-27.42 8.43-23.06 7.93-6.81 1.11-9.55-7.41-22.34-1.52-8.84 3.55-23.47 2.44-13.61 4.67-16.76 8.23-17.27.81-4.16 2.03h-6.91l-4.88-.81-10.46-6.81-8.63-8.33-4.37-.1-2.74-3.15-8.43-6.29-3.05-3.35-2.95-4.47-7.31-12.6-1.63-1.52-2.74-.1-1.22.3-3.35 1.63-8.63 6.3-12.6 7.82-10.97-5.59-16.66-7.52-19-10.56-10.86 1.12-79.95 2.84-45.4 37.89-.61-1.93-4.27-11.99-4.37-11.07-4.57-12.9-1.12-3.15-2.03-5.89-1.12-4.16-.61-3.96-.1-1.73-6.09 2.74-3.76 1.83-1.32.61-6.6 3.05-9.15 4.06-4.57 2.03-9.34 4.37-9.55 4.47-3.15 1.42-4.16 1.93-4.58 1.93-26.2 11.27-7.82 3.15-7.42 3.15-2.13.91-8.64 3.56-15.34 5.89-6.09 2.13-6.4 2.44-3.05 1.12-2.54.91-14.63 5.28-5.18 1.93-7.82 2.95-1.62.5-1.22.51L379.6 2021.2l-13.1 68.65-8.84 46.01-3.75 19.4-48.46 38.49-23.36-27.02-8.53-10.25-.21 1.32-.61 1.42-1.22 1.12-2.03.81-2.44.2-19.19-1.93-6.2-1.22-4.17-.91-33.31.91-19.51 7.21 1.53-16.86-1.12-23.25-22.96.61-11.98.1-6.71.61-1.62.61-1.22 2.03-4.17 16.45-.71.92-1.52.1-22.35-8.03-22.35-8.12-3.65 12.59-1.53 4.67-1.52 4.27-1.32 3.55-1.02 2.34-2.33 5.28-2.14 4.67-6.3 14.73-2.74 6.09-1.93 4.98-2.84 8.13-4.88 15.03-3.66 11.68-1.32 4.46-.5 2.24-.61 2.44-1.12 6.7-.92 7.62-.5 2.84-.71 3.56-.92 2.84-.61 1.12-1.22 1.82-1.01 1.12-1.12.81-1.22.51-2.23.81v13.21l-.11 11.47-.1 27.12v6.4l-6.6-.91z" stroke-linejoin="round"/></defs><use xlink:href="#b" fill="#9dc8ca" stroke="#9dd7f0" stroke-width="5.76"/><defs><path id="c" d="M1957.35 2786.37l-.21 7.41-.91-.61-6.4-5.28-21.43-15.13-7.42-5.49-14.93-11.07-29.05-23.05-18.59-14.73-39.41-34.43-6.4-9.04-26.01-36.25-44.59-62.97-4.37-2.44-6.7-12.19-4.17-7.31-2.34-4.27-5.28-9.34-10.77-18.18-1.62-2.54-2.95-5.89-.81-2.34-.91-9.54-1.43-5.99-2.23-4.78-5.59-8.33-22.24-35.04-15.34-12.69-12.5 13.51-8.73-9.96-3.76-4.06-32.1-35.04-19.3-16.96-65.11-43.97-5.18-2.75-1.02 2.14-27.02-14.63-19.81-10.76-12.19-9.45-1.72-1.63-10.57-10.76-6.3-7.41-3.55-4.68-7.92-10.86-3.97-4.98-2.74-1.93-1.62-.51-1.93.21-1.53.5-5.28 2.95-9.35 4.37 9.35-18.9 2.44-7.41 1.62-5.08 2.34-9.75-3.96 1.53-3.76-.41-1.93-.51-1.22-1.32-1.32-2.13-6.91-6.2.61-2.33 5.89-22.85-21.73-8.13-5.59 13.92-7.21-6.1-8.03-6.9-7.21-5.39-1.63-1.52-8.63-10.67-2.74-3.45-.82-1.01-.61-.92-7.21-9.04-2.23-2.33-4.07-5.28-.81-1.02-7.31-9.14-1.83-.91-10.97 6.6-17.57-34.23-6.4-12.59-5.08-9.96 1.11-4.67 1.73-7.01-21.23-37.68-11.38 6.91-15.54-16.86-16.66 9.85-12.08 7.32-16.77 10.15-1.52.51-1.73.2-5.28-.1-7.31-.61-14.33-1.01-3.45-.41 2.74-35.14.82-6.5.71-5.49 1.01-4.77-2.74-1.22 1.02-5.28 1.01-5.18 1.02-3.86 2.54-10.46v-4.98l3.05-5.58 3.45-11.38 1.52-4.87-2.03-2.85 1.22-3.85 1.12-4.88 9.95-40.62 3.66-17.88 7.31-29.96 8.64-37.68 4.26-7.52 5.49-25.79 1.01-3.15 2.65-6.4 16.45-35.44-13-6.71-1.83-.2-1.73.71-3.55 3.55-5.08 6.61.61-10.36 1.62-7.62-8.22-4.77-2.85-1.93-1.72-2.34-1.93-4.57 3.55-5.28 1.02-1.93 1.11-.2 6.1-2.44 15.34-7.62 34.23-13 1.52-.81 2.75-1.73.81-2.74 6.5-22.85 4.06-15.54 3.96-13.71.92-3.45 6.3 4.16 5.69 3.66 3.86 2.53 5.89 3.36 3.76 2.33 15.44 9.14 9.34 5.49 9.24 5.58 2.14 1.53 2.74 2.43 7.31 5.89 3.56-1.62 3.25-1.32 2.74-1.32 2.34-5.08 2.13-3.15.51-.4 5.18-3.76.81-.61.82-.61.91-.71.81-.71 2.24 4.47.51.81 2.94 4.87 4.78 8.74 9.24 14.73 11.68 16.65 14.73 19.7 26.41 40.53 2.03 3.15 1.73 4.06 1.83 5.08.91-.21 2.44-.91 3.66-1.22 1.93-.41 5.89-2.03 2.94-1.22 20.93-6.5 2.84 9.04 2.54 7.93 2.75 9.75 14.62-5.59 3.36-1.22 14.62-5.58 11.89 29.85 5.48 14.12 7.22 17.37 6.9 17.98 6.61 18.18 1.42 3.96 4.98 14.21 1.01 3.25.81 2.65.92 2.74 7.31 18.79 16.36 41.13 6.9 18.59 5.79 15.03 6.91 17.97 2.85 7.01 2.13 5.28 2.44 6.1 4.67 11.78 1.42 3.45 5.39 14.02 4.67 11.68 6.3 16.04 3.86 10.06 8.33 21.22 2.03 3.36 11.98 10.66 6.4 5.69 10.16 9.24 2.34 2.13 6.5 5.89 2.84 2.64 2.54 2.14 1.22.71 7.32 22.95 1.42 3.86 20.11 50.68 10.67 27.01 11.17 27.83 19.2-8.33 18.79 48.04 2.74 6.91-21.02 9.24-3.86 1.73 2.33 4.06 5.39 7.11 5.28 9.24 24.28 44.28 2.74 2.95 2.23 1.32 1.93.61 2.75.3 2.23 1.12 3.15 4.57 12.19 18.99 4.67 7.11 3.25 6.71 3.76 10.86 9.25 20.11 9.85 21.43 4.37 7.52 12.09 18.58 4.06 6.2 8.12-4.16 12.19-6.3 4.78-2.54 4.47-2.64 12.7-6.3 9.75-5.08 2.84-1.52.81-.3 1.22 15.74.92 11.88 1.11 15.95.82 15.33 2.23 40.63.61 5.48.41 2.54.3 1.52.92 6.4.4 2.85 1.43 9.54.81 5.69.4 3.25.11 1.42.2 2.03.1 2.03 1.32 8.94.71 5.18.41 4.17 5.89 30.87.51 2.95 4.98 27.01.3 2.44.2 1.83.11 2.03.1 2.84-.21 9.35-1.01 44.28z" stroke-linejoin="round"/></defs><use xlink:href="#c" fill="#6bacaf" stroke="#6bb4d2" stroke-width="5.76"/><defs><path id="d" d="M1608.22 1996.82l-2.24 2.13-6.91-17.97-5.79-15.03-6.9-18.59-16.36-41.13-7.31-18.79-.92-2.74-.81-2.65-1.01-3.25-4.98-14.21-1.42-3.96-6.61-18.18-6.9-17.98-7.22-17.37-5.48-14.12-11.89-29.85-14.62 5.58-3.36 1.22-14.62 5.59-2.75-9.75-2.54-7.93-2.84-9.04-8.74-24.17-.71-2.03-9.65-25.29-4.26-13.1-2.85-7.51-1.93-4.98-.4-1.12-1.22-2.54-1.32-2.23-1.73-1.93-4.98-4.67-8.73-7.82-1.32-1.63-.82-.91 4.98-2.74 6.4 1.52 1.52-.51 11.38-9.95.71-1.22-.2-1.83-5.28-7.21-4.57-2.84 1.52-5.49 2.44-5.48 1.01-1.32 3.36-1.83 2.74-1.22 1.72-1.83 1.43-3.25 1.93-5.69 3.65.21 1.53-.51 2.44-1.12 5.07-3.76 1.63-1.72 2.13-3.25 7.22-1.02 2.64-.91 3.86-1.83 11.47-7.52 3.15-2.03 11.48-7.21 18.39-11.78 8.84-5.28 4.87-2.54 4.88-.91h2.33l7.22.71 4.47-.41 3.25-1.32 27.93-18.38 5.79-3.86 9.04 11.98 5.39 7.11 6.7 5.89 2.13 1.73.51.41 1.83 1.62 2.34 2.03 2.43 1.73 2.54 1.83 1.73 1.22 1.93 1.72 3.25 3.15 2.54 2.84 5.89 7.11 5.89 7.11 4.07-2.64 2.03-1.22 5.38-3.35 3.56-2.03 2.13-1.22 2.64-1.72 1.83-1.22 1.73-1.32 1.62-1.53 4.27-4.16 8.02-8.02 15.85-15.85 5.18-5.18 13-13.2 4.78-5.08 6.6-7.62 5.08-6.29 2.33-2.24 4.88-5.28 3.15-3.45 1.32-2.24 1.83-2.33 5.48-6.7 4.27-4.98 4.27 1.52.61-1.62 2.03-2.54 3.25-.1 9.65 3.14 17.17 6.4 43.47 18.28 2.64.72 3.86-.61-5.99 3.55-.31.2-.2.41-.4.51-.21.61-.1.71v.61l.1.51.21.81.3.51.61 1.21.41.31 18.58 9.44 7.93 4.17 8.12 4.67 5.08 3.45 1.12 1.43.2 1.42-.4 1.22-7.32 11.78-7.31 11.68-1.42 2.43-1.22 2.14-11.07 20.01-6.71 12.18-5.69 10.67 1.43 1.72 1.11 1.43.92 1.42.81 1.22.51 1.01.51.92.2.5 1.02 2.03.1.31 1.01 2.34 1.02 2.23 1.62 5.38 5.49 19.2.51 2.03-3.76 1.12-4.17 1.42-6.29 3.15-12.8 7.92-4.37 2.13-10.57 4.57-1.93-.1.72 2.13 3.04 9.85.41 1.22 1.52 5.18 1.43 4.67 2.94 10.47 1.12 3.65 2.13 22.24v25.19l1.02 13.41.51 1.52-1.73.81-17.58 7.72-6.09 2.24-8.43 3.15-10.57 5.38-8.02 5.69-2.44 2.13-7.92 7.51-3.15 1.32-6.5 2.64-4.17-5.07-1.01-1.43-1.12-1.62.2 1.12 2.85 12.9.2.71-.3 1.11v1.02l.1 1.01 1.01 1.02-4.16 5.89-16.15 22.34-8.43 11.58-3.05 5.18-3.35 3.96-1.02.51-2.23 1.93-13.41 11.17-10.87 9.04-3.56 3.05-3.65 3.15-7.83 7.01-4.16 3.55-5.28 4.57-7.11 7.62-3.25 4.36-3.56 5.79-2.23 6.81-3.36 14.62-2.03 6.1-2.74 5.48-3.96 5.79-3.56 3.86-13.41 11.78-19.8 16.86z" stroke-linejoin="round"/></defs><use xlink:href="#d" fill="#09757a" stroke="#097d9b" stroke-width="5.76"/><defs><path id="e" d="M1436.95 1761.09l-.91.21-1.83-5.08-1.73-4.06-2.03-3.15-26.41-40.53-14.73-19.7-11.68-16.65-9.24-14.73-4.78-8.74-2.94-4.87-.51-.81-2.24-4.47.82-.61-1.63-4.37-.51-1.62-.51-1.83-.6-2.24-.51-2.13-.71-3.55-.61-3.15-.61-2.64.1-19.1.91-.5-.2-19.81.51-16.45-.61-12.6-.71-16.04.91-2.95-4.26-51.19.2-16.25.1-11.27 2.44-3.45-.31-9.55-.1-6.3.51-7.51 2.23-12.6 1.73-6.9 1.52-7.21.41-11.17v-3.05l-6.3 5.48-6.9 5.69-6.4 4.27-4.78 3.04-15.95 12.6-42.86 30.47-11.48 7.51-7.21 4.27-24.79 13-7.41 3.86-13.72 6.39-13.61 4.27-13 3.05-14.63 2.23-17.27.71-17.77-1.72-10.77-1.63-15.95-4.87-23.97-9.96-15.44-6.6-12.09-8.33-30.58-14.11-27.73-9.35-18.99-4.26-23.27-2.75-20.62.51-30.06 3.05-31.39 4.06-.61-2.84-1.22-7.82-.41-2.14-.61-3.85-3.15-16.56-8.33 1.42-2.03-.1-8.73-1.83-3.25-.4-7.62-4.47-12.8 18.28.81 3.96 1.12 4.88 1.12 2.13 1.93 2.13.71.51-31.09 1.62-77.3-26.2 1.22-6.91 1.73-9.64.61-3.66.61-3.45 1.22-6.61 1.72-9.64 1.73-9.45 3.35-17.06.71-4.17 1.83-9.14 1.12-5.38 1.01-4.57 1.63-6.5.61-2.54 1.62-5.79 9.15-29.45 12.9-41.64.4-1.22 3.86-11.68 6.4-17.57 3.86-10.46 1.32-3.66 2.54-7 1.83-6.2.92-3.96.5-3.76v-3.76l-.2-3.86-.71-3.75-.92-3.66-1.32-3.66-.61-1.32-1.52-3.55-5.99-12.7-1.02-2.13-3.55-7.52-2.95-6.29-8.73-18.18-3.86-7.92-10.67-22.25-2.95-6.09-2.84-5.99-2.54-6.2-2.24-6.29-1.82-7.21-1.02-4.98-.61-3.76-2.74-18.79-1.63-10.15-1.11-6-1.53-5.99-2.54-7.51-1.42-3.86-1.62-4.47-3.15-7.82-3.46-7.21-3.15-6.3-8.12-16.15-1.32-2.54-5.29-10.46-1.01-2.03-7.42-15.74-13-30.57-4.06-11.17-6.81-20.52-2.13-6.3-1.93-6.8-.41-1.73-.91-5.69-2.03-21.22-1.53-9.85-1.32-7.42-4.47-24.58-1.32-7-1.42-8.03-1.12-7.11-.4-2.94-.51-4.37-.51-6.8-1.12-15.14-.4-3.75-.51-3.05-.71-3.45-.61-3.05-2.03-8.13-4.78-17.87-6.8-19.81-5.59-15.43-1.93-5.18-4.16-10.67-3.76-11.37-1.12-3.56-.31-1.32-.3-1.32-.1-1.22v-1.82l1.32.5 2.34.82 1.42.3 2.33.2 3.46.21h6.6l7.01.1 4.06.1 19.71.1 12.9.31 3.45.2h4.68l4.57-.1 4.36-.21.92-.1 7.21-.71 5.59-.81 4.47-.71 5.79-.92 2.03-.2 3.55-.3h6l4.16.2 22.66 2.54 4.67.4 5.48.41 4.98.61 8.43.51 14.73.51 6.5.4 13.11 1.12 12.08 1.52 11.48 1.63 11.07 1.22 7.12.71 5.48.4 6.2.41 19.09.51 1.02-.61 12.09.1h16.76l3.05-.1 4.06-.41 1.42-.2 4.17-.61 5.48-1.22 3.76-.81 3.35-.71 2.95-.71 4.06-1.12 3.86-1.22 7.01-1.83 2.64-.61 2.13-.3 2.65-.41 1.52-.4 1.52.5 8.84-.71 13.51-1.01 12.39-.82 8.74-.5.41 1.32.4.61.61.71.81.71 9.04 6.3 7.83 7 1.42 1.83 3.25 4.37 16.35 23.46 2.44 2.74 2.74 1.53 2.44.91 4.98 3.55 5.69 4.07 9.04 7.72 5.79 14.11 13.1 14.02 5.79 20.31h1.12l.71.1.31.1.5.31 1.63 1.42 3.86 3.66 3.45 3.04 4.57 3.56 4.47 2.74 9.04 4.57 19.2 8.63 10.06 4.68 11.17 5.28 12.4 5.68 8.12 3.96 4.27 2.34 1.32.61 1.12.61.71.61 6.3 4.47 18.99 15.13 6.7-25.29 1.93-6.8 1.02-3.35 4.37-19-1.32-11.47.51-4.07.2-3.65.1-3.35-.2-3.56-2.44-3.45-7.42-.71-3.55-7.11-4.37-10.06-.91-3.86-.51-5.58.3-3.66 2.04-5.28 3.25-4.47 2.33-4.87 1.83-7.32 2.34-11.47.5-8.13 2.44-4.16.51-2.64-.61-3.86-1.32-3.96-2.03-4.06-2.85-11.38-2.94-5.59-.71-3.65.51-2.54 1.11-2.64 3.86-6.7 2.14-2.34 3.65-5.18 1.32-2.95.51-8.63.81-3.25 1.83-2.33 6.71-2.95 15.64-5.48 1.02-.41 2.74-1.02.51-1.01 23.26-.2 2.94-2.95 1.53-3.55-.51-6.91.61-4.88.41-2.74.71-1.22 1.11-3.75-.71-1.53-.4-1.93 2.54-7.82-.41-7.41 4.17-17.27 4.36-5.58 3.96-25.29-.3-9.04 1.42-14.22-2.64-37.88v-.92l5.59.71 3.25.41 1.42-.91.91-.21.72.21 1.42 1.32 1.01.4 58.21 5.99 3.96-1.21.61-.41 1.12.41.91-1.53 1.53-.91.5-.71 3.25 1.62 1.83 2.85-.1 2.84 7.11.91 13.31 1.53 10.97 1.42-.51-21.02-.1-2.65-.2-8.83.2-2.84.41-1.53.4-1.72.41-2.34-.31-3.05-.4-4.67.2-4.57.51-4.67.81-4.47 1.12-4.37 1.42-4.06 1.93-4.47 2.44-4.87 2.34-4.37 6.09-11.27 1.93-3.66 3.25-6.3 3.45-6.8 1.93-4.37 1.22-4.16.82-4.27.4-4.47.31-4.97v-6l-.51-8.22-.92-10.77-.71-5.99-1.01-5.18-1.42-5.18-1.83-5.28-2.64-6.5-5.29-11.38-4.87-10.97-3.05-7.31-2.13-6.29-1.63-5.79-1.22-5.79-.81-5.89-.51-5.89v-6.1l.41-8.53.3-4.37.41-5.28.51-7.72.71-5.68 1.12-5.39 1.32-5.38 1.83-5.08 2.23-5.38 3.35-6.81 5.08-9.95 2.03-4.57 1.43-3.76 1.11-3.75.41-3.97.61-3.96.1-1.21.61-11.89 4.77 2.24 5.29 2.94 5.18 2.74 2.94 1.12 2.54.51 2.24.2 4.26-.3 1.22-.21 2.64-.2 6.5-.2 7.72-.2h2.54l2.75.1 1.62.1 1.12.2 1.62.41.92.4 1.12.71 1.42.92 8.12 6.09 6.51 5.69 2.94 2.64 2.85 2.34 2.13 1.42 2.44 1.32 2.54 1.12 1.62.71 3.05.91 2.23.51 1.63.2 3.55.21 8.74-.11 3.86-.1 5.28-.4h1.02l1.83.2 2.74.61 5.48 1.83 1.43.5 3.65 1.43 1.53.71 3.55 2.13 1.93 1.42 8.74 6.7 2.54 2.24 1.12 1.12 2.84 3.75 2.13 2.34-33.82 42.05 8.53 17.16 27.63 75.97 1.42 2.13-26.82 246.29-25.29 68.25 25.9 2.44.11-11.99 67.55 7.93 2.84-13.82 21.54-5.58 5.38 11.17 2.74 3.86 3.46 3.76 6.09 5.18 3.56 1.52 12.39 3.15-.2 1.83-4.68 27.62-1.22 8.53-.5 12.39.3 7.82.91 3.66 5.08 11.07 1.63 4.37.81 3.76 2.54 39.5 1.22 5.18 2.84 6.3 2.14 5.18 1.52 6.5.51 4.77.2 7.42-.61 5.08-2.13 9.85-1.32 3.75-.31.82-3.45 4.47-6.09 5.28-3.46 2.13-7.21 2.74-3.35 1.73-1.83 2.13-.91 2.03-3.56 12.9-1.63 7.01-.3 3.15.2 5.79 1.32 5.68.61 4.07 1.02 19.09-.31 4.57-.81 4.16-4.16 8.94-2.14 5.39-.81 6.5v4.46l.61 4.78.81 1.72 5.49 8.54 1.42 4.06.51 3.96-.31 2.54-1.72 5.08-2.44 4.97-3.05 4.67-7.21 8.74-1.93 4.16-1.12 5.59-.1 3.76.81 12.49-1.11 16.15-1.02 18.18-.61 4.36-1.42 6-1.63 4.46-3.55 6.4-11.99 17.47-5.18 7.31-11.68 16.86-5.79 6.91-3.56 3.35-4.36 3.45-3.05 1.83-4.78 1.53-1.11.1-4.88-.31-8.74-2.33-9.44-3.25-16.86-8.33-1.22-.81-7.72 9.85-24.79 9.85-43.37 9.04h-2.44l21.03 49.87 3.75 10.25 5.39 16.96 9.34 37.18 4.88 15.33 3.55 9.45 5.69 12.39 2.34 5.18 1.62 3.76 7.42 14.72 4.88 8.84 1.72 3.25 13.92 25.39 1.52 2.84 4.37 7.52 2.03 3.45 1.93 3.15-.4 1.42-2.04 1.93-.91.92-1.22 1.21-9.65 9.75-.91 1.63-.21 1.42.31 1.32 2.23 2.74 1.93 1.93 1.93 1.12 1.73.71 3.45.81 6.4.31 1.73.51 1.22.61 1.42.71 1.63 1.22 3.25 3.35 1.83-1.83 2.84-3.05.81-.81 3.15 4.98 4.78 7.31 1.52 2.33 3.05 4.78 6.29 8.83 1.83 3.36 4.68 7.41 3.45 3.45 5.28 8.53 24.58 38.5 5.18 13.81 6.1 10.26 9.24 14.32 7.72 10.15 20.12 12.39 19.09 7.93-1.93 2.33 1.83.71 3.86 1.32 4.98 1.53 1.62.5 7.22 2.14 8.73 2.94 10.57 3.25 1.52.41-4.27 4.98-5.48 6.7-1.83 2.33-1.32 2.24-3.15 3.45-4.88 5.28-2.33 2.24-5.08 6.29-6.6 7.62-4.78 5.08-13 13.2-5.18 5.18-15.85 15.85-8.02 8.02-4.27 4.16-1.62 1.53-1.73 1.32-1.83 1.22-2.64 1.72-2.13 1.22-3.56 2.03-5.38 3.35-2.03 1.22-4.07 2.64-5.89-7.11-5.89-7.11-2.54-2.84-3.25-3.15-1.93-1.72-1.73-1.22-2.54-1.83-2.43-1.73-2.34-2.03-1.83-1.62-.51-.41-2.13-1.73-6.7-5.89-5.39-7.11-9.04-11.98-5.79 3.86-27.93 18.38-3.25 1.32-4.47.41-7.22-.71h-2.33l-4.88.91-4.87 2.54-8.84 5.28-18.39 11.78-11.48 7.21-3.15 2.03-11.47 7.52-3.86 1.83-2.64.91-7.22 1.02-2.13 3.25-1.63 1.72-5.07 3.76-2.44 1.12-1.53.51-3.65-.21-1.93 5.69-1.43 3.25-1.72 1.83-2.74 1.22-3.36 1.83-1.01 1.32-2.44 5.48-1.52 5.49 4.57 2.84 5.28 7.21.2 1.83-.71 1.22-11.38 9.95-1.52.51-6.4-1.52-4.98 2.74.82.91 1.32 1.63 8.73 7.82 4.98 4.67 1.73 1.93 1.32 2.23 1.22 2.54.4 1.12 1.93 4.98 2.85 7.51 4.26 13.1 9.65 25.29.71 2.03 8.74 24.17-20.93 6.5-2.94 1.22-5.89 2.03-1.93.41-3.66 1.22-2.44.91z" stroke-linejoin="round"/></defs><use xlink:href="#e" fill="#004249" stroke="#00465f" stroke-width="5.76"/></svg>