<svg width="5.56in" height="384" viewBox="0 0 4001 2880" xmlns="http://www.w3.org/2000/svg" xmlns:xlink="http://www.w3.org/1999/xlink"><path fill="#fff" d="M0 0h4001v2880H0z"/><defs><path id="a" d="M1883.72 2610.7l-1.25.25-1.12-.12-3.63-1-3.88-1.63-1.37-.75-8.13-5.62-2.25-1.38-6.38-1.75-2-.75-1.5-.87-16.38-52.01-10.5-44.51-5.13-19.38-8.62-32.88-5.88-22.38-1.87-7.63-3.76-14.62-37-144.03-29.14-111.14-6.75-27.51-55.64 44.01-57.76 47.38-3.5 3-25.88 22.26-73.77 60.13-20.51 16.38-185.17 5.13-3.25.12-10.25 2.13-4-.5-3.13-.5-3.5 1-2.88.5-1.25.87-2 1.38-2.75 2.12-8.62 5.5-48.77 30.51-2.12 1.5-139.41 77.39-130.91 59.01-122.91 58.88-4.87 2.25-1.63.75-121.9 62.39-11.26 5.75-128.78 49.89-177.79 111.51-85.9 54.51-67.14 5.63-51.26-83.14-12.38-19.5-1-1.75-35.64-56.89-31.75-53.88-15.88-25.13-5-7-25.63-37.01-2.26-3.25 55.77 3.13 2.5-.25 7.75-1.63 2.38-1 6-2 16.63-4 15.75-4.88 6.13-1.5 11.75-2.75 67.27-23 12.38-5.25 9.87-8.88 7.88-7.25 2.13-1.13 4.25-5.25.87-.37 5.25-2.25 16.76-7.38.5-.25 13.38-8.62 4.87-3.13 2-2.63v-.5l-.25-.12-.37-.25-2.13-5.5v-1.25l-.12-3.5-24.01-10-1 .12-.5.88-2.5-2.5-6.25-5.63-5.88-4.63-11.25-10.12-6.75-6.13-4-2.25-3.13-1.75-58.26-34.63-25.14-61.51-13.75-32.01 4.63-3.87 1.62-1.75 1.5-1.63 1.25-1.37 1.5-2 1.5-1.88 1.5-2.25 2.51-3.5 2.62-3.5 3.63-4.5 5.25-7.13 3.87-5.62 1.88-2.88 2.63-3.5 4.75-5.5 4.5-5.13 3.5-4.37 5-7 5.38-7.5 5.87-7.63 5.63-7.13 4.38-5.25 3.75-4.37 3.37-4.5-1.75-.63-13.88-5.38-3.75-1.62-3-1.25-6.5-3.13-2.75-1.37-3.88-2.13-3.12-2-3.13-2-3.75-2.5-3.5-2.75-3.63-2.75-3.5-2.88-2.37-2.12-3.88-3.75-4.12-4.25-2.51-2.75-2.62-3-3.88-4.38-3.12-3.75-2.38-2.75-4-4.63-7.13-8.5-2.62-3-.88-1.12-1.75-1.88-.37-.5-1.38-1.5-2.12-2.62-1.88-2.13-3.62-4.25-.88-1-.88-1-.5-.63-1.62-1.87-2.25-2.63-3.5-4.25-4.5-5.12-28.14-33.01h.63l-14.13-16.5-15.75-18.5.75-.25 13.75-1.26 4.5-.12 5 .5 4.38.13 3.63-.26 2.75-.25 2.62-.37 7.13-2.5 5.88-1.88 4.75-1.25 11.37-2.37 10.38-2.13 4.75-.87 12.51-2.13 8.12-2 8.76-2.62 6.5-2.63 7.12-2.12 4.63-2.13 3.75-2.62 1.88-1.63.37-.25 16.38-10.88 28.51-20.5 14.88-13.25 19-17.76 23.38-25.75 24.76-27.51 3.75 5.76 35.13-48.89 10.76-25.75 10.25-63.64-6.25-88.14 18.25-60.13 4.63-9.76 22-29.88 4.25-2.87 43.89-29.01 15-6 23.13-8.12 33.14-11.76.5.25 3.5.75 4.75-.37 4.75-1.38 7.75-2.5 1.63-.87 10.75-5.5 6.88-4.13 11.88-8.25 2.87-2 3.38-2.25 1.5-.88 1.37-2.37-1-1 6.5-5.75 1.38-1 2.25-1.25 3.75-2.25 6.38-1.38 7-7 5.88-6.75 5.75-3.5 6.37-2.25 10.01.37.62.25 5.75 12.76 7.25.25 9.13.25h2.75l5.13 5.75 3.12 3.5 4.01 1.75 37.88 16.38 5-.5.25.87.38.75.62.63 4.75 2.75 19.13 10 3 1.62 3.13 1.63 8.13 3.75.37-.25 2.13-2.88 2.37-3.87.75.5 5.88 4.62-5.63 8.26 4.63 2.75 1.62.87 1.5.88 1.26.62 1.5.88 1.87 1.12 8.5 4.5 1.38.75 10 5.38 2.88 1.5 6.87 3.75 7.51 4 2.5 1.38 4 2.12 7.62 4 1.63-1.37 1.5-1.75 1.5-1.75 3.13-4.01 2.87-3.62 10.75-14 11.63 11.62-18 22.76 5.25 2.87 4.12 2.13 6.26 3.25 1.62 1.12.13.38 9.37 3.5.25.25 3.26 4.38.5.5 1.12-1.5 1.88-2.5 1.75-2.13 10.5-15 .75.62.75.63 1.25.87.62.38 1.51.87 1 .63 1.75.87 1.37.75 1.25.63v.37l-.12.38-.13.25-.12.25-3.38 3.5-1.87 2.12-8.88 12.01-1.25 1.62h.87l2.5.38 3.5 1.25 3.13 1.12 3.38 1.88 9.5 5.12.87.5 1.63.88 5.5 2.87 1.63.75 1.87.88 6.5 2 15.63 4.75.63 1 .62 1 3 4.5 2.63 4.5 2.12-2.5.88-1 26.01 17.88 26.13 13.25 1.62 1 39.76 18.38 15.51 10.13 9.5 5.12 5.38 3 12.12 6.26 2.25 1.12.88.5 3.12 1.5 1.88-3.62 1.13-1.63 1.5-3.25 1.12-1.63 2-2 11.38-8.5 4.5-5.37 1.5.75 1.5.75 4.13 2.25 20.63 10.75 12.88 7 10.12 5.38 6 3.12 5.38 2.88 7.88 4.25 8.88 4.87 3.62 1.88-.62 3.37-.63 3.13-1.87 9 1.75-2.75-.88 3.88-1.62 6.62.12 2.38 4.38 8.25 16.63 11.88 13.62 7.12 11.88 6.13 11.63-9.5 3.75-3 1.25-1.13 10.88-8.5 6.75-5 6.63-4.88 7.62-4.62 4.38-1.5 3.5-1.38 5.63-2.37 5.12-3.25 1.63-1.38 1.87-2.25 1.25-2.25 1.13-3.63 3.13-7.87.62-.63.88-.62 1.37-.25 1.38.12 3.5-.37 1.25-.25 1.25-.75 1.25-.88 1-1.37.87-1.75 5.63-16.63 2.38-5.13.62-1.25.88-1.62 3.12-4.88 4.13-5.37 16.63-18.13 2.87-3.5 17.01-19.26.87.75.88.5 3.87 2.5 5.76 3.26 5.25 3.12 9 4.88.37.12.25-.25 2.75-8.88 2.26-6.62 13.25 8.75 5-14.25 17 7.12 1.75.5 1.38-.62.88-.75.62-.75 1.38-16.75-17.01-5.38 5.38-15.38 1-2.62.62-2.38 2.5-9.13.38-.87.87-1.75 1.13-1.63.5-.75.62-.62.75-3.13.76-4.87-2.26-2.25-1.75-2-2.75-2.75-3.75-3.13-.12-2.25-.63-3.63-1.62-6.25-.13-2.5.13-2.87-.38-1.88-1.37-3.62 14.5-10.76 47.76-35.75-64.39-32.51-6.38 3.88-13.25 7.87-10.63 6.38-5.25 3.13-7.87 4.62-5.26 3.13-7.25 4.5-1.75 1.25-.87-.75-.88-.75-1.5-1.25-2.5-2-1.13-1.13-2.75-2.5 10.63-7.5 1.5-1.25 3.63-7.38-3.5-2.12-11.13-6.13-16.63-8.75-6.25-3.62-2.25-1.13-3-2 2.12-2.87 7.38-9.01.37-.62.5-.63.88-1 6.13-7.87 2.5-3.38 2.87-4.12 1.25-2.13 3.38-5.63 2.75-5.25.88-2 1-2 1.25-3.5 2.37-6.62.75.37 4.5 1.75.88.25.75.25.62.25.75.25 1 .5 5.13 2 1 .38 5.5 1.87 2.63.75 2.62.5 1.63.25 1.75.13 2.12-.13 2.5-.25h.63l2.75-.5 3.38-.87 2-.88 1.62-.75 1.88-1 1.25-.75 2.87-1.87 1.63-1.38 1.62-1.62 2.26-2.5 7.5-8.63 7.5-9.5 8-9.63 3.25-4.25 9.63-12.13 1.12-.5 6.38-7.5 6.88-8.63 4.87-6.5 4.88 4.5 4.88 4.26 2.37 2 2.5 1.87 1.38.88 1.25.75 2.75 1.5 2.75 1.25 2.75 1.12 2.75.88 3.13.87 4 .63 3.37.5 4.88.75 3.13.25 1 .12 4.62.75 4.25.88 1.75.5 1.75.62 3.38 1.25 4.13 1.75 5.25 2.63 15.25 7.63 4.75 2.37 2.63 1.25 1-.87 3.12-3.25 1.75-1.88 2-2.25 2.76-2.75 1.62-1.75 1.63-1.5 3-3.25 1.37-1.5 1.5-1.38 3.88-4 21-21 14.51-14.88 2.37-2.38 9.38-9.5 11.13-11.37 7.63-7.5 6.12-7.13 1.75-1.63 8.38-8.62 8.5-8.63 10-10 3.63-3.63 21.63-22.13 12.25-12.37 44.14 28 3.88 2.5 157.66 79.14 8.25 4-3.75 6.75-2.87 6-4.26 6.76-15.25 18.87-3.38 3.75-2.62 4.5-2.88 5.38-1.5 2.38-1.5 3.37-1.5 2.75-1.87 2.5-10.76 12.5-6 5.01-2.5 2.5-8.38 9.37-3.25 5.38-2.75 3.87-10.62 14.01-7.51 9.5-.5 1.25-.12 1.25.62 6.25v2.38l-.62 1.75-.88.87-4.37 2.88-3.75 3.12-1.38 1.88-.5 1-.75 6.25-1.37 5.25-4.13 10.38-1.25 1.5-1 .75-2.5.5-1.5 1-1.25 1.37-5.25 9-.38 1.25-.62 4.13-2.25 6.75-1.26 2.5-2.25 4.13-2.25 3.25-3.75 3.5-2.62 2.75-2.63 3.25-3.87 3.5-3.01 3.88-7.87 11.5-1.63 1.37-1.62.88-5.13 4-1.12 1.75-.5 1.62-3.26 3-3.25 2.13-6.25 6.38-4.25 4.75-4.38 5.37-3.5 2.88-2.87 2.87-4.25 3.5-4 3.88-1.13.75-.25.5-.5 2.5-.62 1.13-.5.12-1.88.25-4.63 2.75-1.87 1.38-.88.5-.5.62-.75 2.63-1.25 1.12-.12.25.87 2.88-.12 1-.63.87-3.25.5-1 .63-1.75 1.37-1.37.38-1.75-1.13-1.26.25-5.25 2.38-1.12 1.12-1.13.5-1.12 2.13-.63.88.13.87.37.5 1.63 1.63.62 1.37.63 2.38.25 2.75-.25 1.62-1.13 5.13-1.75 4.62-1.37 2.13-1.88 2.37-.37 1.13.37 1.5 1.13 3.13.87 3.75.5 1.37.88 1.88 1 .75 3.25 2.25 1 1.87.37 1.5.13 1 2.37 3.13 1.01-.88.62-.25 1.88-.37 1.5-.5 1-.75.62-.63 2.13-2.62 1.12-1.25.75-.63 6-4.87 1.5-1.38 8.01-5.37 1-1.26 1.75-2.75 1-1.75.87-1.37 1.38-1.63 1.37-1.37 1.13-.88 2-1.37 2.25-2 .62-.5.75-.63 1.76-2 .87-.75 1-.75 1.13-.5 3-1.87 6.12-4.25 2.88-1.63 1.12-.62.63-.13.75.25 3.13 1.38.75.37-3.76 1.75 17.76 32.51 12.25-5.75 9 17.37-4.5 2.38-3.5 1.75-4.5 2.12-11.5 6.38-6.88 4.75-1 1-.62 1.63v.75l-.13 2.5-.25.75-.75 1-4 4.12-1.5 2.63-.63 1.87-.75 3.63 2 1.63 3.26 2.75 4 3.5 1.87.87 2.25.13 20.01-1.88 8.37-1.75h1.01l3.37.63h2.88l.37 3.25.38 2.25.25 3.75.87 6.5-6.37 10.25-19.76 32.13-12 19.63 7.5 13.75 7.63 13.25 4.12 7.63 6.38 11 10.88 19.88 4.87 8.38 3.5 7 2.75 5.62 1.13 1.88.87 1.38 1.13 1.5.75.62.5.5 2.25 1.88 2.25 1.37 4.75 2.25 3.88 1h3.25l3.38-.87 12.12-3.88 1.88-.37 1.87-.25 1.38.37 9.75 3.63 8.13 2.5 15.38 5.75 3.5 1.37 1.5.63 10.75 3.75 4.38 1.12 1.12.13 3.5.25 13.76-.63 6.12-.12 2 .25 6.26 1.87 15.5 5.51 3.25 1.25 2.13 1 .5.37 1.25.88 8.62 7.12 1.25.88 1 1 1.76 1.37 5 3.63 4.37 2.87 5.38 2.75 3.12 1.38 6.38 1.88 5.38 1.25 42.76 7.12 5.12 1.13 2.76.87 6 2.38 2.62 1.25 14.26 7.87 8 4.5 3.87 1.75 5.63 1.76 5.5 1.25 5.13.25 4.12-.25 3-.25 4.01-.75 3.75-1.13 12.37-4.5 11.13-4.25 12.51-5 5.12-1.88 16.76-6.37 18.25-6.75 31.51-10.01 20.38-6.75-7.38-29.13-.75-3.25-.37-1.5-1.88-7.88-3.62-15.62-3.13-13.88v-1.13l.12-1.5.75-1.87 1.51-2.63 2.25-2.37 2.5-2.63 36.63-16.88.63 3.13.87 3.5.25 1.75.13.75.12.75v2.75l-.25 1.5-.25 1.5-.5 1.63-.87 2.37-2.38 5.88-.38.87-.5 1-.5 1.5-.37 1-.25 1.26-.13 1.12v1.25l.25 1.13.25 1.12.38 1.13.87 1.5.38.62.5.5.88.75.87.75.63.38.25.12.62.25.88.25 1 .13 1 .12.75-.12 1-.13 1.37-.37 4.5-1.63 1.75-.62 3.25 9.37 2.13 5.75.38 1 .37.63 1.25 2.25.5 1.25 2.88 8.38 7.62 22.75-.75-.25-1.25-.5-2.87-1-3.75-1-1.13-.12h-1l-2.87.25-3.51-.25-3.37.5-5.13 1.37 5.75 12.5 4.13 9.5 7.75 15.26-9 2.37-40.76 10.38-21.88 7-13.13 3.88-.5-.13-.88-.5-.37-.62-2.13-4.51-.75-1.37-.75-.63-.87-.25-1.75.5-31.38 11.63-9.76 3.88-7.75 3.12-19 7.25-25.89 10.01.88 1.87 3.25 10.88 1.38 4.62 4.25 13.51 7 20.5 1.25 5.38v2.12l-.38.75-.75 1.38-1 1.12-2.75 2.13-6.62 5.62-2.13 2.88-.62 1.62-.5 3.5.25 1.63.75 2.63 3.75 12.5 4.62 33 5 17.26 4.88 14.12 9.25 12.88 40.76 19.13-2.5 3.62-2.37 4.51-1 2.62-1.13 6.5-.5 1.75-.87 2-2.63 4.75-.12 1-.13 1.88 1.13 6.63v1.25l-.13 1.37-.5 1.13-1.38 2.37-.62 1.75-.38 4.25-.37 1.38-2.25 3-.5 1-.88 2.37.13 1.38.25.87-.25.75-.88 1.38.25 1.5.5 1.87v.76l-.37.62-.63.5-1.5 2-.25.88.88 2 .25 1.87.5.5.5.25.62.88 1.13 3.25-.25.5-.88.5.13 1.37-1.88 2.5-.62 2.25-.88 1.38v.5l.5.37.88.5.75.75.25.88.5 3.12v1.76l-.5 1.37-1.63 1.38-.87 1.62-.25.63-.63 3.5-.37 1.12-.25 1.38.25 1.5.5 1.25.75 1.5 1.12 1.37 3.88 3.88.62 1 .75 1.5.88 1.12 1.88 1.38-66.65 96.39-7.12 4.13-.63.37-3.37 2.25-2.13 1.25-.38.75-6 4.5-.75.38-.75.75-.5.75-1.62 3.62-.88 1.75-2.37 3.38-1.88 2.38-2.5 2.37-2.12 1.13-2.63.75-11.25.5-1.75.25-2.5.87-4.51 2.13-1.12 1-1.13 1.5-1.75 3.5-1 2.87-4.25 14.51-1.62 4.5-1.13 6.5-1.62 10.12-.13 2.13.5 3.88 1.75 8.5.13 2.25-.13 1.25-.75 1.37-7.75 6.38-2.13 3-.62.5-1.13 2.25-2.87 5.25-1.13 2.25-3.25 7.63-48.39 28.38-19.25 7.25-30.88 4.25-7.88 18.75-22.26 34.26-3.37.37-1.75-.25-.5-.37-.75-.63-2.25-3-10.38-9.62-.75-.38-1.75-.5-1.25-.12-2 .37-7.88 3.25-2.62 1.38-1.38 1.12-1 2.5-2.63 9.88-1 3.13-1.12 2.12-6.13 8.25-4 4.88-1.37.87-1.13.25z" stroke-linejoin="round"/></defs><use xlink:href="#a" fill="#9dc8ca" stroke="#6bb4d2" stroke-width="5.76"/><defs><path id="b" d="M1287.95 1096.19l-8.63 10.75-10.5 14-12.88 16.63-8.63-8.75 3.38-4.87 28.5-36.64 1.13-1.62-2-1.63-2.13-1.37-5.62-3.63-5.75-3.87-7.13-4.88 6.38-12.63 4.5-9 .25-.62 2.75-6 3.62-7.63 3.63-7.63 1.63-3.5 3-6.12 3.5-7.38 7-14.5 1-2.13 3-6.12 5.88-12.26 1.62-3.37 1.5-2.88-12.25-7.62-.88-.38-1.25-.25h-.5l-12.88 1.13-3 .5-1.12.25-1.13.37-2.62 1.25-1.25 1.25-3.25 4-4.25 6.5h-.63l-.62.13-7.51 6.63.63-27.63v-2.5l.12-11.13.25-10.63v-4.75l-.5-4.25-1.25-7.63-.25-2.25-.12-1.25-.13-2.25.13-3.87.5-4.63.25-1.87v-1.63l.75-6.38.62-5.75 1.25-11 .88-7.37.25-3.13.25-4 .25-1.88.37-1.62.38-1.5.87-2.5.88-.63 3.13-7.25 1.75-4.62 1-2.75 1.12-3.26 1.63-6.12.5-1.75.62-2.75.63-2.63.25-1.5.37-1.25.88-4 .12-.75-1.5.5-.37-.37-6.75-12.13.5-3.63 1.25-19 3-31.88 1.37-19.75 1.75-24.76.63-7.62 1.87-18.51 3-27 1.63-17.63 1.25-15.38 1.13-17.38.75-6.87 1-9.88 1.37-8.63 4.13-15.87 1.25.87 4 1.88 2.75.75 1.75-.13 1.37-1.12 4.38-5 9.5-13.51 3.25-6.5 1.25-1.75 7.01-9.12 5.25-9.01.37-.62 1.63-.5 2.5.25 2.87.87-2.37 8.13-6.63 22.38 6 2.12 4 2.01h.25l10.38 3.62 3.13 1 1.75.13 2.25.5 3.5 1.37 3.38 1.75 1.12-.5 1.25-.25.63.25 2.87 1.63 6.38 1.87 3.62-13.63 5.88-21.5-4.37-1.87-.76-.63-.25-.62v-1.25l1.76-7.01 1.62-6.62 1.88-8.63 4.5-20-12.63-4.25-.63-.63-.12-1.5 3.62-17.25 2.88.75 4 1.62h.63l1-.62.5-.5 2.37-4.25-1-2.75-.12-1.38.87-4.25 3.13-14.38 10.25 4.51 4.5 3 3 3.37 3 2.63.88.62 3.12 1.63 5.51 2.62.62-4.62.38-3.63.25-2.25.62-3.25 1.25-4.63 2.13-6.5 4.87-14 1.25-2.5 1-1.37.63-.76-.88-1.5-3.5-5.12-1.25-1.5-1.12-.88-1-.75-2.5-1-5.63-1.62-2.5-.75 2-10.25 1.63-7.01-4.76-1.75 16.76-2.37 36.88 4.62-.5 1.51-2.87 8.37-2.13 5.75-1.87 4.75.75-.25.87-.37 1.5-.88 3-2.62 18.51-19.63 2.62-2.75 11.51-12.25 7.12-7.5 9.75-10.26 6.13-6.62 7.88-8.38 2.5-2.5 4.62-4.88 6.01-6.37 2.5-2.75 2.87-3 7.25 1.87 2.01.38 1.87.25 5.25-.38h1l3.38.88 2.62.87 21.51 7 9.38 2.88 3.25.63 5.87 1.75 5.13 1.62 13.88 5.13 9.13 2.87 2.5.63 6.5 2.25 9 2.62 9.63 3 6.87 2.63 5.01 1.75 1.75.25 4.12-.25.88-.38 3-1.5 7.75-5.12 12.13-8 1.12-.88 34.01 12.75 9.25.75 7.01 4.75 3.87 2 .75.26 35.26 12.37 29.26 10.25 3.25 1 5.75 1.38v3l.13 1.25.12 1.25.25 1 .38.75.37.75.5.88.5.62 1.88 1.63 1.12 1 1.25 1.25.63.62.75 1.13.87 1.37 1.38 2.75.5 1.13.5.87.5 1.38.12.5.5 1.5.25 1.12.13 1.25v2.63l-.38 3.5-1 4.88-1 4.62-.62 3.13-.63 2.75-1.12 5-1 2.75-2 4.12-1.13 2.38-2.25 4.13-1.37 2.62-2.38 5.25-3.13 7.75-1.75 4-1.37 2.75-1.63 3.26-1.62 4-2.13 5.5-3 8.75-.37 1.37-.5 1.75-1.25 6.01-.25 1-.75 3.75-1.13 3-.88 1.75-.62 1-.38.5-.62.37-1.38 1.38-.37.75-.25.5-1.75 3.5-2.5 5.25-1.25 2.87-1.5 2.88-.88 1.63-1 1.87-1 1.25-1.5 2.13-.87 1-1.88 1.87-1.37 1.13-1.63 1.12-1.5.88-2 .87-1.38.5-1.37 2-2.38 2.5-2 1.25-2.12.63-1.38.12-1.5-.25-3.25-1-5.25-2.87h-1.38l-2.25 1-3.37 1.75-5 2.5-5.13 2.75-3 1.37-4.75 3.26-3.88 4-2 2.75-5 9.12-2.75 4.75-1.38 2-1.75 1.38-2.5 1.62-4.87 2.26-4.25 1.25-2.13.87-3.5 1.88-3.38 1-5.5.75-4 1-14.38 4-13.25 3.62-8.38 2.38-6.88 1.87-3.75 1.75-5.12 3-2.38 2.13-4.37 4.63-2.75 3.87 1.87 3.38 1.13 2.62 1.12 3.13.75 2.62 2 8 .88 5.26.75 8 .12 2.62-.75 8.63-.87 5.25-.5 2.12 2.62 1.13 1.13.88v.37l-.38 2.38-1.75 5.5-1.75 6.87-.75 2.75-.75.88-.37.12-2.75-.87 41.26 19-.25 1.38-1.88 10.12-2.37 13.38 10 1.25 3.75.38 6.88.62 8.75 1.13.12 4.37-.62 7.75-.88 6.13-2.87 13.63-.75 3.25-3.75 17.75-3.51-1.12-7.37-2.25-15.51-4.76-7.75-2.5-14.13 85.52 3.5 3.12 6.51 6.88 6 7 2.12 2.75.88 1.13 6.25 6.5 1.12 1.12 1.76 1.75 4.5 3 9.5 4.63 6.63 2.88-14.63 49.88-3.88-1.5-1.62-1-22.26-8.13-9.25-2.87-1.75-.75-1.75-1.13-2-1-2.75-.62-4.01-.38-1.25-.5-1.62-1.25-1.88-1.62-1-.38-1.12-.12h-1.13l-1.12-.25-3.63-2.25-4.37-1.88-5.38-1.88-5.75-1.25-2.63-.5h-1.75l-2 .13-3.13.75-2 .62-3.75 1.75-3.12 2.26-6.88 5.37-2.12 1.5-2.51 1.25-3.5.63-4.25-1-2.87-.38-7.5 1h-1.38l-.25 1.5 4.5.13 3.63 2.25-.25 1.37-.13 1 2.13.63 4.12 1-2.5 7.37 1.38 1.13.87 1 1 1.25.75 1.88.5 2.62 4.76-.25 3.12 1.38 3.88 4.12.75 1.63.25 2.12-.63 2.63-2 4.37-2.37 4.5-4.76 5.13 21.51-17.25 1.25 2.25 1.5 2.12 1.38 1.38 2.75 2.5 2 1 2.5 1 1.37.25h2.75l3-.25 1.88-.5 1.88-.75 1.5-.88 1.5-.87 15.38-10.75.87-.38.88 3.25 1.12 2.75 1 1.75 2 2.25 1.38 1.63 1 1.37 3.37-1.12 1.63-.5 2.12-.5.63-.13 1.37-.25 1.38-.12h3.63l1.75.25 1.37.12 1.75.5 1.75.5 1.63.63 1.75.75 1.62.87 1.5 1 1.63 1 1.37 1.25 1.38 1.25 1.13 1.26 7.87 13.87.75 3.13-3.5 2-4.37 2.5-5.26 3-12.25 7.25-1.62.88-.75.5-1.5.75-1.01.62-5.75 3.13-4.62 2.5-6.63 3.87-3.25 1.38-5.5 2.37-2.13 1.13-4.75 3-5.75 4.25-1 .62-1.88 1.13-1.75 1-1.37.75-2.25 1.13-1.25.62-.25.13-.75.25-1 .25-6.13 1.62-16 3.75-8.51 1.63-.75.12-5.25.75-8.62 1.13h-.88l-5 .12-4.63.13-4.12.12-12.26.25-19 .25h-2.75l-15.88.38-7 .5-5.13.75-2.62.5-3.63.75-1 .12-3.5.88-.88.12-2.75.88-3.25 1.37-2.87 1.25-2.75 1.38-7.76 4.75-5.12 3.25-2.13 1.5-3.62 2.5-.63.5-.5 2-1.25.88-2.87 1.87-2.51 1.5-.5.38h-1.25l-4.37 3-4.38 3.12-6.75 4.38-12.38 8.63-4.87 3.12-5.51 3.63-4.5-7.63-4.12-7.88-3.13-5.37-3.37-5.75-1.13-2-2.12-3.5-.38-.75-.5-.75-.88-1.63-.87-1.5-.5-.75-7.25-12.25-1.63-3-1.62-2.75-3-5.38-1.25-2.25-7.01-12.75-8.75 11-11.63 14.75 12.51 13.01.87.87.25.75-.25.88-2.5 3.87-.37.38 3.12 1.37-7.5 9.63-7.13 8.25-3-2.88-7.62-7.75-5.13-5.12-.75-.63-8.88-8.37-19.63 25-1.37 1.75z" stroke-linejoin="round"/></defs><use xlink:href="#b" fill="#9dc8ca" stroke="#6bb4d2" stroke-width="5.76"/><defs><path id="c" d="M1890.72 2756.85l-28 7-16.51-70.38 17.51-64.89-11.51-31.5 1.5.87 2 .75 6.38 1.75 2.25 1.38 8.13 5.62 1.37.75 3.88 1.63 3.63 1 1.12.12 1.25-.25 1.13-.25 1.37-.87 4-4.88 6.13-8.25 1.12-2.12 1-3.13 2.63-9.88 1-2.5 1.38-1.12 2.62-1.38 7.88-3.25 2-.37 1.25.12 1.75.5.75.38 10.38 9.62 2.25 3 .75.63.5.37 1.75.25 3.37-.37 22.26-34.26 7.88-18.75 30.88-4.25 19.25-7.25 48.39-28.38 3.25-7.63 1.13-2.25 2.87-5.25 1.13-2.25.62-.5 2.13-3 7.75-6.38.75-1.37.13-1.25-.13-2.25-1.75-8.5-.5-3.88.13-2.13 1.62-10.12 1.13-6.5 1.62-4.5 4.25-14.51 1-2.87 1.75-3.5 1.13-1.5 1.12-1 4.51-2.13 2.5-.87 1.75-.25 11.25-.5 2.63-.75 2.12-1.13 2.5-2.37 1.88-2.38 2.37-3.38.88-1.75 1.62-3.62.5-.75.75-.75.75-.38 6-4.5.38-.75 2.13-1.25 3.37-2.25.63-.37 7.12-4.13 66.65-96.39-1.88-1.38-.88-1.12-.75-1.5-.62-1-3.88-3.88-1.12-1.37-.75-1.5-.5-1.25-.25-1.5.25-1.38.37-1.12.63-3.5.25-.63.87-1.62 1.63-1.38.5-1.37v-1.76l-.5-3.12-.25-.88-.75-.75-.88-.5-.5-.37v-.5l.88-1.38.62-2.25 1.88-2.5-.13-1.37.88-.5.25-.5-1.13-3.25-.62-.88-.5-.25-.5-.5-.25-1.87-.88-2 .25-.88 1.5-2 .63-.5.37-.62v-.76l-.5-1.87-.25-1.5.88-1.38.25-.75-.25-.87-.13-1.38.88-2.37.5-1 2.25-3 .37-1.38.38-4.25.62-1.75 1.38-2.37.5-1.13.13-1.37v-1.25l-1.13-6.63.13-1.88.12-1 2.63-4.75.87-2 .5-1.75 1.13-6.5 1-2.62 2.37-4.51 2.5-3.62-40.76-19.13-9.25-12.88-4.88-14.12-5-17.26-4.62-33-3.75-12.5-.75-2.63-.25-1.63.5-3.5.62-1.62 2.13-2.88 6.62-5.62 2.75-2.13 1-1.12.75-1.38.38-.75v-2.12l-1.25-5.38-7-20.5-4.25-13.51-1.38-4.62-3.25-10.88-.88-1.87 25.89-10.01 19-7.25 7.75-3.12 9.76-3.88 31.38-11.63 1.75-.5.87.25.75.63.75 1.37 2.13 4.51.37.62.88.5.5.13 13.13-3.88 21.88-7 40.76-10.38 9-2.37-7.75-15.26-4.13-9.5-5.75-12.5 5.13-1.37 3.37-.5 3.51.25 2.87-.25h1l1.13.12 3.75 1 2.87 1 1.25.5.75.25-7.62-22.75-2.88-8.38-.5-1.25-1.25-2.25-.37-.63-.38-1-2.13-5.75-3.25-9.37-1.75.62-4.5 1.63-1.37.37-1 .13-.75.12-1-.12-1-.13-.88-.25-.62-.25-.25-.12-.63-.38-.87-.75-.88-.75-.5-.5-.38-.62-.87-1.5-.38-1.13-.25-1.12-.25-1.13v-1.25l.13-1.12.25-1.26.37-1 .5-1.5.5-1 .38-.87 2.38-5.88.87-2.37.5-1.63.25-1.5.25-1.5v-2.75l-.12-.75-.13-.75-.25-1.75-.87-3.5-.63-3.13-36.63 16.88-2.5 2.63-2.25 2.37-1.51 2.63-.75 1.87-.12 1.5v1.13l3.13 13.88 3.62 15.62 1.88 7.88.37 1.5.75 3.25 7.38 29.13-20.38 6.75-31.51 10.01-18.25 6.75-16.76 6.37-5.12 1.88-12.51 5-11.13 4.25-12.37 4.5-3.75 1.13-4.01.75-3 .25-4.12.25-5.13-.25-5.5-1.25-5.63-1.76-3.87-1.75-8-4.5-14.26-7.87-2.62-1.25-6-2.38-2.76-.87-5.12-1.13-42.76-7.12-5.38-1.25-6.38-1.88-3.12-1.38-5.38-2.75-4.37-2.87-5-3.63-1.76-1.37-1-1-1.25-.88-8.62-7.12-1.25-.88-.5-.37-2.13-1-3.25-1.25-15.5-5.51-6.26-1.87-2-.25-6.12.12-13.76.63-3.5-.25-1.12-.13-4.38-1.12-10.75-3.75-1.5-.63-3.5-1.37-15.38-5.75-8.13-2.5-9.75-3.63-1.38-.37-1.87.25-1.88.37-12.12 3.88-3.38.87h-3.25l-3.88-1-4.75-2.25-2.25-1.37-2.25-1.88-.5-.5-.75-.62-1.13-1.5-.87-1.38-1.13-1.88-2.75-5.62-3.5-7-4.87-8.38-10.88-19.88-6.38-11-4.12-7.63-7.63-13.25-7.5-13.75 12-19.63 19.76-32.13 6.37-10.25-.87-6.5-.25-3.75-.38-2.25-.37-3.25h-2.88l-3.37-.63h-1.01l-8.37 1.75-20.01 1.88-2.25-.13-1.87-.87-4-3.5-3.26-2.75-2-1.63.75-3.63.63-1.87 1.5-2.63 4-4.12.75-1 .25-.75.13-2.5v-.75l.62-1.63 1-1 6.88-4.75 11.5-6.38 4.5-2.12 3.5-1.75 4.5-2.38-9-17.37-12.25 5.75-17.76-32.51 3.76-1.75-.75-.37-3.13-1.38-.75-.25-.63.13-1.12.62-2.88 1.63-6.12 4.25-3 1.87-1.13.5-1 .75-.87.75-1.76 2-.75.63-.62.5-2.25 2-2 1.37-1.13.88-1.37 1.37-1.38 1.63-.87 1.37-1 1.75-1.75 2.75-1 1.26-8.01 5.37-1.5 1.38-6 4.87-.75.63-1.12 1.25-2.13 2.62-.62.63-1 .75-1.5.5-1.88.37-.62.25-1.01.88-2.37-3.13-.13-1-.37-1.5-1-1.87-3.25-2.25-1-.75-.88-1.88-.5-1.37-.87-3.75-1.13-3.13-.37-1.5.37-1.13 1.88-2.37 1.37-2.13 1.75-4.62 1.13-5.13.25-1.62-.25-2.75-.63-2.38-.62-1.37-1.63-1.63-.37-.5-.13-.87.63-.88 1.12-2.13 1.13-.5 1.12-1.12 5.25-2.38 1.26-.25 1.75 1.13 1.37-.38 1.75-1.37 1-.63 3.25-.5.63-.87.12-1-.87-2.88.12-.25 1.25-1.12.75-2.63.5-.62.88-.5 1.87-1.38 4.63-2.75 1.88-.25.5-.12.62-1.13.5-2.5.25-.5 1.13-.75 4-3.88 4.25-3.5 2.87-2.87 3.5-2.88 4.38-5.37 4.25-4.75 6.25-6.38 3.25-2.13 3.26-3 .5-1.62 1.12-1.75 5.13-4 1.62-.88 1.63-1.37 7.87-11.5 3.01-3.88 3.87-3.5 2.63-3.25 2.62-2.75 3.75-3.5 2.25-3.25 2.25-4.13 1.26-2.5 2.25-6.75.62-4.13.38-1.25 5.25-9 1.25-1.37 1.5-1 2.5-.5 1-.75 1.25-1.5 4.13-10.38 1.37-5.25.75-6.25.5-1 1.38-1.88 3.75-3.12 4.37-2.88.88-.87.62-1.75v-2.38l-.62-6.25.12-1.25.5-1.25 7.51-9.5 10.62-14.01 2.75-3.87 3.25-5.38 8.38-9.37 2.5-2.5 6-5.01 10.76-12.5 1.87-2.5 1.5-2.75 1.5-3.37 1.5-2.38 2.88-5.38 2.62-4.5 3.38-3.75 15.25-18.87 4.26-6.76 2.87-6 3.75-6.75-8.25-4-157.66-79.14-3.88-2.5-44.14-28-12.25 12.37-21.63 22.13-3.63 3.63-10 10-8.5 8.63-8.38 8.62-1.75 1.63-6.12 7.13-7.63 7.5-11.13 11.37-9.38 9.5-2.37 2.38-14.51 14.88-21 21-3.88 4-1.5 1.38-1.37 1.5-3 3.25-1.63 1.5-1.62 1.75-2.76 2.75-2 2.25-1.75 1.88-3.12 3.25-1 .87-2.63-1.25-4.75-2.37-15.25-7.63-5.25-2.63-4.13-1.75-3.38-1.25-1.75-.62-1.75-.5-4.25-.88-4.62-.75-1-.12-3.13-.25-4.88-.75-3.37-.5-4-.63-3.13-.87-2.75-.88-2.75-1.12-2.75-1.25-2.75-1.5-1.25-.75-1.38-.88-2.5-1.87-2.37-2-4.88-4.26-4.88-4.5-4.87 6.5-6.88 8.63-6.38 7.5-1.12.5-9.63 12.13-3.25 4.25-8 9.63-7.5 9.5-7.5 8.63-2.26 2.5-1.62 1.62-1.63 1.38-2.87 1.87-1.25.75-1.88 1-1.62.75-2 .88-3.38.87-2.75.5h-.63l-2.5.25-2.12.13-1.75-.13-1.63-.25-2.62-.5-2.63-.75-5.5-1.87-1-.38-5.13-2-1-.5-.75-.25-.62-.25-.75-.25-.88-.25-4.5-1.75-.75-.37-2.37 6.62-1.25 3.5-1 2-.88 2-2.75 5.25-3.38 5.63-1.25 2.13-2.87 4.12-2.5 3.38-6.13 7.87-.88 1-.5.63-.37.62-7.38 9.01-2.12 2.87 3 2 2.25 1.13 6.25 3.62 16.63 8.75 11.13 6.13 3.5 2.12-3.63 7.38-1.5 1.25-10.63 7.5 2.75 2.5 1.13 1.13 2.5 2 1.5 1.25.88.75.87.75 1.75-1.25 7.25-4.5 5.26-3.13 7.87-4.62 5.25-3.13 10.63-6.38 13.25-7.87 6.38-3.88 64.39 32.51-47.76 35.75-14.5 10.76 1.37 3.62.38 1.88-.13 2.87.13 2.5 1.62 6.25.63 3.63.12 2.25 3.75 3.13 2.75 2.75 1.75 2 2.26 2.25-.76 4.87-.75 3.13-.62.62-.5.75-1.13 1.63-.87 1.75-.38.87-2.5 9.13-.62 2.38-1 2.62-5.38 15.38 17.01 5.38-1.38 16.75-.62.75-.88.75-1.38.62-1.75-.5-17-7.12-5 14.25-13.25-8.75-2.26 6.62-2.75 8.88-.25.25-.37-.12-9-4.88-5.25-3.12-5.76-3.26-3.87-2.5-.88-.5-.87-.75-17.01 19.26-2.87 3.5-16.63 18.13-4.13 5.37-3.12 4.88-.88 1.62-.62 1.25-2.38 5.13-5.63 16.63-.87 1.75-1 1.37-1.25.88-1.25.75-1.25.25-3.5.37-1.38-.12-1.37.25-.88.62-.62.63-3.13 7.87-1.13 3.63-1.25 2.25-1.87 2.25-1.63 1.38-5.12 3.25-5.63 2.37-3.5 1.38-4.38 1.5-7.62 4.62-6.63 4.88-6.75 5-10.88 8.5-1.25 1.13-3.75 3-11.63 9.5-11.88-6.13-13.62-7.12-16.63-11.88-4.38-8.25-.12-2.38 1.62-6.62.88-3.88-1.75 2.75 1.87-9 .63-3.13.62-3.37-3.62-1.88-8.88-4.87-7.88-4.25-5.38-2.88-6-3.12-10.12-5.38-12.88-7-20.63-10.75-4.13-2.25-1.5-.75-1.5-.75-4.5 5.37-11.38 8.5-2 2-1.12 1.63-1.5 3.25-1.13 1.63-1.88 3.62-3.12-1.5-.88-.5-2.25-1.12-12.12-6.26-5.38-3-9.5-5.12-15.51-10.13-39.76-18.38-1.62-1-26.13-13.25-26.01-17.88-.88 1-2.12 2.5-2.63-4.5-3-4.5-.62-1-.63-1-15.63-4.75-6.5-2-1.87-.88-1.63-.75-5.5-2.87-1.63-.88-.87-.5-9.5-5.12-3.38-1.88-3.13-1.12-3.5-1.25-2.5-.38h-.87l1.25-1.62 8.88-12.01 1.87-2.12 3.38-3.5.12-.25.13-.25.12-.38v-.37l-1.25-.63-1.37-.75-1.75-.87-1-.63-1.51-.87-.62-.38-1.25-.87-.75-.63-.75-.62-10.5 15-1.75 2.13-1.88 2.5-1.12 1.5-.5-.5-3.26-4.38-.25-.25-9.37-3.5-.13-.38-1.62-1.12-6.26-3.25-4.12-2.13-5.25-2.87 18-22.76-11.63-11.62-10.75 14-2.87 3.62-3.13 4.01-1.5 1.75-1.5 1.75-1.63 1.37-7.62-4-4-2.12-2.5-1.38-7.51-4-6.87-3.75-2.88-1.5-10-5.38-1.38-.75-8.5-4.5-1.87-1.12-1.5-.88-1.26-.62-1.5-.88-1.62-.87-4.63-2.75 5.63-8.26-5.88-4.62-.75-.5-2.37 3.87-2.13 2.88-.37.25-8.13-3.75-3.13-1.63-3-1.62-19.13-10-4.75-2.75-.62-.63-.38-.75-.25-.87-5 .5-37.88-16.38-4.01-1.75-3.12-3.5-5.13-5.75h-2.75l-9.13-.25-7.25-.25-5.75-12.76 46.76-37.75 17.88-59.39 17.26-36.88 21-36.51 29.51-24.13 50.26-12.37 47.14 1.62 21.88 8.38 35.63 13.75 17.51 4 15 2.75 39.39-3.12 24.25-12.13 5.88 7.88 10.13-6.88 12.75-9.63 9.13-8.5 3.5-4.25 4.25-4.5 4.25-5 6.88-10.38 4.12-4.87 2.75-2.63.75-.62 1.63-.5 1.12.37 1.13-.12 1.5-.75 1-1.13 2.5-3.5.75-1 10.75-17.75 4.13-7.75 20-43.01 9.01-20.38.62-1.5 8.13-17.88 4.75-7.75 2.63-2.5 4.25-4.88 1.5-2.12 3-6.88 11.63-31.88 7.87-19.13 5.5-19.62 1.63-4.88 1.75-4.13 1.75-3 2.75-4.25 13.13-15.38 5.13-7.25.37-.62 1.5-2.88.63-1.62.37-2.75 1-4.63.25-1.5 1.88-12.38 2.25-9.75 2.5-8.5 2.87-6.88 6.01-16.62.75-3 1.87-12.01.75-2.25 3.5-9.12.5-1.75 1.5-11.51 1.75-7.25 1.5-5.87.5-1.63 1-4.5.75-4.12.75-5.51 1-6.75.38-3.75.25-4.5-.38-3-1-5-.62-2.5-1.25-4.13-7.25-22.37-3-7.13-2.63-5.25-5.5-9.75-5.75-8.63-10.63-14.88-10.38-12.25-3.87-5-8.01-10.13-19.12-27.25-12.51 1.75-18.13-33.88-11.88-33.76-2.75-21.25 4.13-17.63 13.38-26.75 45.13-61.64 15.76-16.63 49.01-51.51 35.26-42.63 31.38-35.88 8.75-12.38 44.77-43.38 4.75-4.5 25.75-25.01 9.76-9.5 14.87 8 18.01 9.01 13 7.62 2.63 1.38 10.25 3.75 12.75 4.25 6.51 2.12 5.5 1.75 1.62.63 4.25 2.12 3.88 2.76 1-2.25.62-1.38 4.51-10.88.37-.75.63-.5 8.87-4.62 6.38-3 1.75-.5 3.63.37 1.75.63-3 18 .37 2 1 1.38 19.63 6.87 2.88-.87 1.37-1.63 3-10.63 4.88 1.88-8.75 20 7.12 2.75 12.76-12.62 8-8.88 6.5-7.5 10.25-11.5 3.13-3.5 4.12-3.75 2.88-2.13 1.75-1 2.75-1.13 2-.62 5.5-.88 8.76-1.5 3.25-1 3.62-2 2.5-1.87 2.5-2.5 1.25-1.13 5.63-6 3.38-2.87 20.88 33.13 4.75 9.25.37 1.75 1.13 1.25 1.25.75 2-.25 1.25-.13 1.87.25 1.75.5 1.88.63 1.25.75 1.38.75 2.37 1.12 1.13.25 1.12-.37 1.5-1.13 1.75-1.25 1.75-1 2-.75 1.75-.37 3.51.12 4 .63 4.12 2.37 3.38 2.25 1 .5.62.13.63.25h.87l.63-.25 1-.63.5-.62.37-.63.13-.37v-2.38l-.38-2.62-.12-.88-.13-1.5v-1.5l.5-2.25 1.13-2.5 2-2.37 1.13-1.25 1.37-2.5.25-2.13-.12-1.37-.13-1.25-.37-1.01-.38-1-1.5-1.75-1.63-1.37-1.12-.63-2-1.12-2.25-.5-2 .25-1.75.62-1.5.75-1.75 1.38-1 1-.88 2.12-.87 1.26-1.75 1.87-2.63 1.25-2.88.88-4.12.87-3-1-2.5-1-3.25-1.62-2.5-1.25-1.75-.51-2.26-.5-2.75-.12-2.12.25-1.63-3.5-.37-1.38-.25-2.12-.13-1.5v-2.38l.13-3.62 3-.25 3.12-3.13 2.5-2.87 4.88-5 1.13-.5.87-.25 1.75.25.63-.13 2.62-2.38 4.13-5.25 5.63-7.75.87-1 .75-.62.75-.25 1.13-.25 1.25.25 4 1.37 13.5 4.88 1.88.62 1-4.62 1-4.25 1.25-4.63 3.75 1.5 4 1.63 2.37.87 1.26.5 1.5.5 1.25.25 1.87.5 2.5.5 3.13.75 3.5 1 3.5 1.13 4.38 1.5 2.12.75 2.38.87 1.37.5 1.38.75.87.38 1 .37.63.38.5.5.5.5.37.5.25.37.25.5.25.63.13.62.12.88.13 1.25.25 1.5.12.37.13.63.25.63.25.75.5.62.5.75.87.63.88.62 1.25.63 1.5.62 1.5.63 1.75.75 1.75.62 1.75.5 1.5.38 1.38.12 1.5.13 1 .12h2l1.25-.12 1-.25.87-.38 1.5-.62 1.51-.63 5.62-2.5 1.63-.62 1.75-.5.87-.25h.63l.5-.13.62.13.5.12.88.25 1 .5 1 .38 1 .5 3 1.37 2.5 1.13 4 1.75 1.38.5 15.13-13.38 6.75-5.13 13-8.62 10.63-6.38 11.13-6.25 7-4.13 71.64-83.01 4.25 1.25 10.38 2.88 8 .62 6.63-.5 1.62-.37 8.26-5.51 13.25-1.62-.75-9.13 38.13.63 2.38.25 3.37-2.75 3.01-3.63 2.25-3.25 5.25-11.13 5.62-12.37 2-5.13 1.63-3.5 5.13-1 2.5-.5 6.5-1.13 3.62-.25 5.01.76 3.62 1 2.75 1.25 3.13 1.75 1.87 1.5 1.75 1.5 1.38 1.25 1.62 2 1.5 1.75 1.25 2 1.13 2 1.25 2.75 1.13 2.87.5 1.75.5 2.75.62 4.01.5 4.25 6.13.25h.62l1-.5-3.5 4.5-.5.87-.5 1.63-.75 1.12-1.5 2.13.5 3.87 1.5 12.63 1 8.13.38 2.37.37 3.75.5 3.75.13 2.13.12 1.87v2.75l.13 4.26.25 1.37.25.63.62.62 1.13.88 1.5.75.5-1.13.37-1 1.88-4.75 1.37-3.25.63.37 14.13-1.62 3.12-1-1.75 3.75-15.38 33.51.88 3.62.5 2.38 1 4.75 1.88 7.62.37 1.63 2.5 11 .25 1 .88 6 .12 2-.25 7.75-1.25 9.51-1.87 9.25-1 7.87-.25 4.5.25 4.38.62 3.88 1.75 7.5 1.5 4 1.5 3.37 1.5 2.88 5 8.38 2.38 3.5 5.38 7.62 5.87 7.25 6.88 7.25 5.5 5.26 3.88 3.37 6.75 5.13 1.5 1 4.87 3.37 8.51 5.13 4.12 2.12 6.25 2.75 4.88 1.88 8.25 2.88 9 2.5 6.13 1.62 4.38 1.5 3.5 1.13 4.12 1.87 3.63 2.25 2.13 1.5 3.12 3.13 1.38 1.37 1.87 2.25 2.88 4.25 1.37 2.51.88 1.75 2.12 5.5.75 2.87.5 2.88.38 3.37.12 4.5v.88l-1.75 20.13-.37 5.75v3l.12 4 .63 5.75 1.12 5.75 1.76 6.75 3.25 8.63 6.12 16.75 1.13 4 .75 4.13.5 5.37-.13 2.88-.75 6.63-.62 2.62-1.38 3.63-1.12 2.87-2.38 4.5-1.5 2.13-1.5 1.75-2.5 2.5-8.75 7.38-8.25 7.62-10.76 8.5-2.12 2 .62 22.63.88.25h.5l77.39 17.13 86.4 19 62.76 22.26 39.51 14.13 15.63 5.5 23.38 7.62 36.39 14.26 17.75 4.5 51.77 13.62L2811.45 704l38.51-11 32.51-9.13 108.78-30.13 65.39-16.63 121.28-30.63 67.27-13 44.26-8.75 18.88-3.75 2.25-1 80.77-35.39 13.5-5.87 208.43-53.76 9.88-.88 12.37-3.25 11.88-5.12 86.9-23.63 6.75-2.13 9.25 35.76 11.01 42.13 7.25 27.88 7.37 29.13 3.13 12.38 7.25 27.38 60.27 212.04 44.13 172.65.25.63 32.76 127.64 18.51 72.14 19.5 75.51-30.13 14.01-94.28 28.13-5.62 1.75-29.38 5-124.41 25.5-69.89 14.88-2.38.62-29.01 7.63-39.88 19.88-16.38 8.37-15.75 5.51-5.38 1.25-7.75 10.87-28.26 26.38 11.13 44.01-44.01 37.38-5.63 3.25-.62 1.75-6.51 49.26-1.12 3.25-1.38 2.75-1.25 3-2.37 6.25-2.25 5.38-1 3.63-.5 4.37-.75 2.75-1.38 3.63-1.5 2.37-1.5 3-6.25 13.26-3 5.87-1.5 2.25-1.13 2.75-.87 3.75-.88 2.75-1.37 7.38v.37l-1.5 7.13-2.25 6.13-1.63 3.12-1.25 3.63.25 15-.12 15.75.75 13.26 1.37 15.12.5 2.75.88 2.63 1.87 4.63 1.5 3 4 8.87 3.75 5.63 3.25 4.25 2.88 2.5 2.5 1.62 3.38 1.38 3.12.25 8.75.25 22.89-6.75h1.37l1 .25 1 1v3.75l-.25 1.5-.5 2-1 2.25-3.38 6.25-1 3.25-.25 2.88.13 3.75.12 3.12.75 2.38.88 2.5 1.38 2.13 2.87 4.25 1.63 3.5 1.87 5.5.88 4.37.37 2.5.13 5.75.25 1.76.62 2.37.75 1.63 1 1.5 3.13 2.62 2.37 3.13.13.37.75 1.63 2.25 3.5 1.63 1.62 3.5 4.88 1.87 2.12 3.13 2.63 2.37 1.75 2.5 1.25 2.5.75 3.38.5 3.75.25 1.75.25 1.5.63 2.13 1.5 1.62 1.75 3.88 6.25-2.13-.88-16.25-6.37-8.25-2.63-5.38-1.25-46.26-7.63-2.63-.12-2.87.12-4.5.5-4.63 1.13-4.25 1.5-26.51 12.63-13.25 6.12-18.38 9-18.5 9.63-18.38 10-13.01 6.63-21.88 11.25-2.62 1.38-22.51 12.12-10.5 5.75-16.76 8.63-4.75 2.63-17.88 9.5-10.12 5.5-16.26 8.25-16.38 8.13-9.37 5-3.26 2-3.25 2.37-4.87 4.38-3.38 3.25-6 6.75-1.88 2.5-3 3.88-9.62 11.5-5.13 5.5-.87 1.13-5.13 4.62-3.75 2.75-3.25 1.63-3.5 1.5-3.13 1.25-.5.25-2.5.75-3.25.62-3.38.63-3.5.12-3.75.38-7.5-.13-6.25-.87-3.5-.88-7.75-2.62-3.38-1.63-3.38-1.75-4.75-3.12-5.12-3.88-5.26-4.5-2.87-2.25-2-1.25-4.75-2.13-2.63-.87-1.37-.25-1.63-.13-5-.12-3.38.12-5.37 1.38-1.88.62-9.63 5.5-7 3.63-4.75 2.5-4.12 2.13-4.51 2.5-7.5 3.87-3.25 1.63-2.87.87-2.38.63-3.13.37-2.87.13-3.13-.13-2.25-.5-3-.75-7.63-2.5-3.25-.62-6.87-2-4.38-.88-1.62-.12-5.01.37-3.87.75-2.63.75-4.62 1.25-5.75 1.5-12.13 3.38-1.13.25-3.62 1.5-4.63 2.25-1.5.75-2.75 1.25-1.75 1-2.63 1.37-2.25 1.13-1.5.62-2.75 1.25.75 1.88.63 4 .12 5.13-2.25 21 7.25 6.13 2.13 5.5 1.5 4.5 1.37 3.62 1.13 1.88 2.12 2.62 7.13 7.38 3.75 3.5 2 1.75 2.38 2.63 2.12 2.75 6.88 9 3.38 2.75 55.39 44.88 1.12 1.88 1.25 2.75 1.5 4.12.63 2.75.25 2.88v2.5l-.75 4.5-.5 2.5-1 11-1 6.75-2.25 10.26-4.38 18.12-1.88 5.76-2.87 7.25-1 2-1.63 2.87-4.5 6.88-3.87 5-3.88 3.88-8.88 6.75-14.13 9.62-12.87 9.26-10.63 8.12-11.76 8.38-4.37 2.62-1.88 1-5 2.25-8.88 2.88-13.25 4-6.12 1.88-56.89 18.12-4.63 1.75-1 .38-4.88 2.37-6.5 4.01-2.75 2.5-7.88 8.75-4.12 6-6.13 10.75-8.75 15.38-7.38 12.12-1.25 2.51-.62 2.37v1.13l.62 5.25.63 4.37 1.12 8.38.5 1.75.25 2 .13 5.13-.5 9.5h-.5l-.63.5-.5.25 2.5 20.13 8 56.63-.62.38-40.14-23.26-4.87 3.63-209.18 15.12-200.8 67.64-76.52 31.13-77.27 31.51-4 1.62-99.65 32.88-116.03 30.13z" stroke-linejoin="round"/></defs><use xlink:href="#c" fill="#6bacaf" stroke="#097d9b" stroke-width="5.76"/><defs><path id="d" d="M973.74 1439.12l14.51-18.75 7.62-9.5 8.01-10.13 8 4.38 5.62 2.75 1.25.62 1.25-1.75.63-.75.63-.62.87-.88.5-.62 1.25-1 2.38-1.75 3.62-2.13 3.75-2.37 3.63-2.5 1.87-1.5 2.01-1.75 1.62-1.75 2.5-2.75 1.25-1.63 1.38-2 1.75-2.5 3.12-4.5 1.75-2.38 1.25-1.5 2.38-3.12 1.37-1.75 2.88-3.63 1.5-1.75 1.38-1.5 1.25-1.25 1.25-1.25 2.75-2.37 1.37-1.13 2.88-2 3-1.88 2.75-1.62 7.88 7.5 6.37 6 .38.25h.37l.38-.25.5-.5.62-.75 5.76-7.12 7-8.88 3.87-4.38 5.38-6.25 1-1.5.25-1.25.63-.62 8.25 7.37 9.5 10.13 1.12 1.12 13.63-16.5 4-5.37 1.75-2.25 1-1.13 4.01-4.88.87-1 2.63-4.5.62.63 1.13 1 3.87-4.38 8.13-9.62 13-17.38 4.88-6.63-1.13-1.12-1-1 4.88-5.63 6.5-7.38 2.13-2.12 5.12-4.38 3.75-4.12 5.13-3.25 7-7.75 5.88-6.26 7.13-7.25 12.12-12.37 7.01-7.88 4.75-6.13 2.5-3.37 3.75-5.88 1.75-3.37.87-1.5-5.25-.88-3.75-.25-8.12-.87-6.51-.88-4.75-.12h-.75l-4.75-.75-4.25-.25-3.13-.13-2.25-2.25-6.37-6.63-8.88-8.75-3.38-3.37-4.62-4.63-9.63-9.25-8.63-8.63-8.5-8.62-10-9.88-3.5-3.75-.38-1.63-2.12-2.37-1.25-1-10.01-10.5-1.87-1.63-.75 1.63 1.75 1.62 10 10.25.75.63.38.37-3.38 4.88-6.63 9-1.62 2.38-2 2.5-8 9-.63.75-4 5-2.63 3.37-7.62 9.76-9.63 12.5-6 7.25-2.88 3.75-3.12 4-.63.88-.5.62-2.12 2.63-11.76 15-14.38 18.38-16.5 20.5-13.25 16.5-5.25-5.12-2.25-2.13-.75-.62-.38-.25-.37-.25-.25-.13h-.38l-.38-.12h-.37l-.63.12-.37.25-.38.25-3.12 2.13-6.63 5.12-2 1.75-1.5 1.5-1.5 1.63-1 1.25-10.25 12.88 12.63 12.75 7.25 7 11.63 10.38 8.12 8.37 8.25 8.63-10.87 13.88-6.5 8.5-3.63 4.75-1.13-.75-1.5-1-1.5-.88-9.37-4.75-7.88-4.25-17.63 23.26 8.13 7.87-6.88 9.51-14 17.87-13.88 18.26-7.88 10 8.5 8.62z" stroke-linejoin="round"/></defs><use xlink:href="#d" fill="#6bacaf" stroke="#097d9b" stroke-width="5.76"/><defs><path id="e" d="M1255.94 1137.57l12.88-16.63 10.5-14 8.63-10.75 1.37-1.75 19.63-25 8.88 8.37.75.63 5.13 5.12 7.62 7.75 3 2.88 7.13-8.25 7.5-9.63-3.12-1.37.37-.38 2.5-3.87.25-.88-.25-.75-.87-.87-12.51-13.01 11.63-14.75 8.75-11 7.01 12.75 1.25 2.25 3 5.38 1.62 2.75 1.63 3 7.25 12.25.5.75.87 1.5.88 1.63.5.75.38.75 2.12 3.5 1.13 2 3.37 5.75 3.13 5.37 4.12 7.88 4.5 7.63 5.51-3.63 4.87-3.12 12.38-8.63 6.75-4.38 4.38-3.12 4.37-3h1.25l.5-.38 2.51-1.5 2.87-1.87 1.25-.88.5-2 .63-.5 3.62-2.5 2.13-1.5 5.12-3.25 7.76-4.75 2.75-1.38 2.87-1.25 3.25-1.37 2.75-.88.88-.12 3.5-.88 1-.12 3.63-.75 2.62-.5 5.13-.75 7-.5 15.88-.38h2.75l19-.25 12.26-.25 4.12-.12 4.63-.13 5-.12h.88l8.62-1.13 5.25-.75.75-.12 8.51-1.63 16-3.75 6.13-1.62 1-.25.75-.25.25-.13 1.25-.62 2.25-1.13 1.37-.75 1.75-1 1.88-1.13 1-.62 5.75-4.25 4.75-3 2.13-1.13 5.5-2.37 3.25-1.38 6.63-3.87 4.62-2.5 5.75-3.13 1.01-.62 1.5-.75.75-.5 1.62-.88 12.25-7.25 5.26-3 4.37-2.5 3.5-2-.75-3.13-7.87-13.87-1.13-1.26-1.38-1.25-1.37-1.25-1.63-1-1.5-1-1.62-.87-1.75-.75-1.63-.63-1.75-.5-1.75-.5-1.37-.12-1.75-.25h-3.63l-1.38.12-1.37.25-.63.13-2.12.5-1.63.5-3.37 1.12-1-1.37-1.38-1.63-2-2.25-1-1.75-1.12-2.75-.88-3.25-.87.38-15.38 10.75-1.5.87-1.5.88-1.88.75-1.88.5-3 .25h-2.75l-1.37-.25-2.5-1-2-1-2.75-2.5-1.38-1.38-1.5-2.12-1.25-2.25-21.51 17.25 4.76-5.13 2.37-4.5 2-4.37.63-2.63-.25-2.12-.75-1.63-3.88-4.12-3.12-1.38-4.76.25-.5-2.62-.75-1.88-1-1.25-.87-1-1.38-1.13 2.5-7.37-4.12-1-2.13-.63.13-1 .25-1.37-3.63-2.25-4.5-.13.25-1.5h1.38l7.5-1 2.87.38 4.25 1 3.5-.63 2.51-1.25 2.12-1.5 6.88-5.37 3.12-2.26 3.75-1.75 2-.62 3.13-.75 2-.13h1.75l2.63.5 5.75 1.25 5.38 1.88 4.37 1.88 3.63 2.25 1.12.25h1.13l1.12.12 1 .38 1.88 1.62 1.62 1.25 1.25.5 4.01.38 2.75.62 2 1 1.75 1.13 1.75.75 9.25 2.87 22.26 8.13 1.62 1 3.88 1.5 14.63-49.88-6.63-2.88-9.5-4.63-4.5-3-1.76-1.75-1.12-1.12-6.25-6.5-.88-1.13-2.12-2.75-6-7-6.51-6.88-3.5-3.12 14.13-85.52 7.75 2.5 15.51 4.76 7.37 2.25 3.51 1.12 3.75-17.75.75-3.25 2.87-13.63.88-6.13.62-7.75-.12-4.37-8.75-1.13-6.88-.62-3.75-.38-10-1.25 2.37-13.38 1.88-10.12.25-1.38-41.26-19 2.75.87.37-.12.75-.88.75-2.75 1.75-6.87 1.75-5.5.38-2.38v-.37l-1.13-.88-2.62-1.13.5-2.12.87-5.25.75-8.63-.12-2.62-.75-8-.88-5.26-2-8-.75-2.62-1.12-3.13-1.13-2.62-1.87-3.38 2.75-3.87 4.37-4.63 2.38-2.13 5.12-3 3.75-1.75 6.88-1.87 8.38-2.38 13.25-3.62 14.38-4 4-1 5.5-.75 3.38-1 3.5-1.88 2.13-.87 4.25-1.25 4.87-2.26 2.5-1.62 1.75-1.38 1.38-2 2.75-4.75 5-9.12 2-2.75 3.88-4 4.75-3.26 3-1.37 5.13-2.75 5-2.5 3.37-1.75 2.25-1h1.38l5.25 2.87 3.25 1 1.5.25 1.38-.12 2.12-.63 2-1.25 2.38-2.5 1.37-2 1.38-.5 2-.87 1.5-.88 1.63-1.12 1.37-1.13 1.88-1.87.87-1 1.5-2.13 1-1.25 1-1.87.88-1.63 1.5-2.88 1.25-2.87 2.5-5.25 1.75-3.5.25-.5.37-.75 1.38-1.38.62-.37.38-.5.62-1 .88-1.75 1.13-3 .75-3.75.25-1 1.25-6.01.5-1.75.37-1.37 3-8.75 2.13-5.5 1.62-4 1.63-3.26 1.37-2.75 1.75-4 3.13-7.75 2.38-5.25 1.37-2.62 2.25-4.13 1.13-2.38 2-4.12 1-2.75 1.12-5 .63-2.75.62-3.13 1-4.62 1-4.88.38-3.5v-2.63l-.13-1.25-.25-1.12-.5-1.5-.12-.5-.5-1.38-.5-.87-.5-1.13-1.38-2.75-.87-1.37-.75-1.13-.63-.62-1.25-1.25-1.12-1-1.88-1.63-.5-.62-.5-.88-.37-.75-.38-.75-.25-1-.12-1.25-.13-1.25v-3l-5.75-1.38-3.25-1-29.26-10.25-35.26-12.37-.75-.26-3.87-2-7.01-4.75-9.25-.75-34.01-12.75-1.12.88-12.13 8-7.75 5.12-3 1.5-.88.38-4.12.25-1.75-.25-5.01-1.75-6.87-2.63-9.63-3-9-2.62-6.5-2.25-2.5-.63-9.13-2.87-13.88-5.13-5.13-1.62-5.87-1.75-3.25-.63-9.38-2.88-21.51-7-2.62-.87-3.38-.88h-1l-5.25.38-1.87-.25-2.01-.38-7.25-1.87-2.87 3-2.5 2.75-6.01 6.37-4.62 4.88-2.5 2.5-7.88 8.38-6.13 6.62-9.75 10.26-7.12 7.5-11.51 12.25-2.62 2.75-18.51 19.63-3 2.62-1.5.88-.87.37-.75.25 1.87-4.75 2.13-5.75 2.87-8.37.5-1.51-36.88-4.62-16.76 2.37 4.76 1.75-1.63 7.01-2 10.25 2.5.75 5.63 1.62 2.5 1 1 .75 1.12.88 1.25 1.5 3.5 5.12.88 1.5-.63.76-1 1.37-1.25 2.5-4.87 14-2.13 6.5-1.25 4.63-.62 3.25-.25 2.25-.38 3.63-.62 4.62-5.51-2.62-3.12-1.63-.88-.62-3-2.63-3-3.37-4.5-3-10.25-4.51-3.13 14.38-.87 4.25.12 1.38 1 2.75-2.37 4.25-.5.5-1 .62h-.63l-4-1.62-2.88-.75-3.62 17.25.12 1.5.63.63 12.63 4.25-4.5 20-1.88 8.63-1.62 6.62-1.76 7.01v1.25l.25.62.76.63 4.37 1.87-5.88 21.5-3.62 13.63-6.38-1.87-2.87-1.63-.63-.25-1.25.25-1.12.5-3.38-1.75-3.5-1.37-2.25-.5-1.75-.13-3.13-1-10.38-3.62h-.25l-4-2.01-6-2.12 6.63-22.38 2.37-8.13-2.87-.87-2.5-.25-1.63.5-.37.62-5.25 9.01-7.01 9.12-1.25 1.75-3.25 6.5-9.5 13.51-4.38 5-1.37 1.12-1.75.13-2.75-.75-4-1.88-1.25-.87-4.13 15.87-1.37 8.63-1 9.88-.75 6.87-1.13 17.38-1.25 15.38-1.63 17.63-3 27-1.87 18.51-.63 7.62-1.75 24.76-1.37 19.75-3 31.88-1.25 19-.5 3.63 6.75 12.13.37.37 1.5-.5-.12.75-.88 4-.37 1.25-.25 1.5-.63 2.63-.62 2.75-.5 1.75-1.63 6.12-1.12 3.26-1 2.75-1.75 4.62-3.13 7.25-.88.63-.87 2.5-.38 1.5-.37 1.62-.25 1.88-.25 4-.25 3.13-.88 7.37-1.25 11-.62 5.75-.75 6.38v1.63l-.25 1.87-.5 4.63-.13 3.87.13 2.25.12 1.25.25 2.25 1.25 7.63.5 4.25v4.75l-.25 10.63-.12 11.13v2.5l-.63 27.63 7.51-6.63.62-.13h.63l4.25-6.5 3.25-4 1.25-1.25 2.62-1.25 1.13-.37 1.12-.25 3-.5 12.88-1.13h.5l1.25.25.88.38 12.25 7.62-1.5 2.88-1.62 3.37-5.88 12.26-3 6.12-1 2.13-7 14.5-3.5 7.38-3 6.12-1.63 3.5-3.63 7.63-3.62 7.63-2.75 6-.25.62-4.5 9-6.38 12.63 7.13 4.88 5.75 3.87 5.62 3.63 2.13 1.37 2 1.63-1.13 1.62-28.5 36.64-3.38 4.87 8.63 8.75z" stroke-linejoin="round"/></defs><use xlink:href="#e" fill="#6bacaf" stroke="#097d9b" stroke-width="5.76"/><defs><path id="f" d="M995.87 1410.87l-7.62 9.5-14.51 18.75-8.5-8.62 7.88-10 13.88-18.26 14-17.87 6.88-9.51-8.13-7.87 17.63-23.26 7.88 4.25 9.37 4.75 1.5.88 1.5 1 1.13.75 3.63-4.75 6.5-8.5 10.87-13.88-8.25-8.63-8.12-8.37-11.63-10.38-7.25-7-12.63-12.75 10.25-12.88 1-1.25 1.5-1.63 1.5-1.5 2-1.75 6.63-5.12 3.12-2.13.38-.25.37-.25.63-.12h.37l.38.12h.38l.25.13.37.25.38.25.75.62 2.25 2.13 5.25 5.12 13.25-16.5 16.5-20.5 14.38-18.38 11.76-15 2.12-2.63.5-.62.63-.88 3.12-4 2.88-3.75 6-7.25 9.63-12.5 7.62-9.76 2.63-3.37 4-5 .63-.75 8-9 2-2.5 1.62-2.38 6.63-9 3.38-4.88-.38-.37-.75-.63-10-10.25-1.75-1.62.75-1.63 1.87 1.63 10.01 10.5 1.25 1 2.12 2.37.38 1.63 3.5 3.75 10 9.88 8.5 8.62 8.63 8.63 9.63 9.25 4.62 4.63 3.38 3.37 8.88 8.75 6.37 6.63 2.25 2.25 3.13.13 4.25.25 4.75.75h.75l4.75.12 6.51.88 8.12.87 3.75.25 5.25.88-.87 1.5-1.75 3.37-3.75 5.88-2.5 3.37-4.75 6.13-7.01 7.88-12.12 12.37-7.13 7.25-5.88 6.26-7 7.75-5.13 3.25-3.75 4.12-5.12 4.38-2.13 2.12-6.5 7.38-4.88 5.63 1 1 1.13 1.12-4.88 6.63-13 17.38-8.13 9.62-3.87 4.38-1.13-1-.62-.63-2.63 4.5-.87 1-4.01 4.88-1 1.13-1.75 2.25-4 5.37-13.63 16.5-1.12-1.12-9.5-10.13-8.25-7.37-.63.62-.25 1.25-1 1.5-5.38 6.25-3.87 4.38-7 8.88-5.76 7.12-.62.75-.5.5-.38.25h-.37l-.38-.25-6.37-6-7.88-7.5-2.75 1.62-3 1.88-2.88 2-1.37 1.13-2.75 2.37-1.25 1.25-1.25 1.25-1.38 1.5-1.5 1.75-2.88 3.63-1.37 1.75-2.38 3.12-1.25 1.5-1.75 2.38-3.12 4.5-1.75 2.5-1.38 2-1.25 1.63-2.5 2.75-1.62 1.75-2.01 1.75-1.87 1.5-3.63 2.5-3.75 2.37-3.62 2.13-2.38 1.75-1.25 1-.5.62-.87.88-.63.62-.63.75-1.25 1.75-1.25-.62-5.62-2.75-8-4.38-8.01 10.13z" stroke-linejoin="round"/></defs><use xlink:href="#f" fill="#09757a" stroke="#00465f" stroke-width="5.76"/></svg>