<svg width="384" height="499.2" viewBox="0 0 2880 3743" xmlns="http://www.w3.org/2000/svg" xmlns:xlink="http://www.w3.org/1999/xlink"><path fill="#fff" d="M0 0h2880v3743H0z"/><defs><path id="a" d="M1514.4 3706.39l-.82-5.03-19.65-93.93-5.5-18.71-.12-.47-12.4-45.27-.7-2.45-1.87-6.9-.82-2.81-9.94-34.27-.24-.94-3.86-14.27-17.31-55.21-13.69-39.77-2.45-14.38-18.95-65.51-5.85-20.35-21.29-88.55-8.42-34.73-34.75-142.47-34.86-142.47-7.25-15.79-4.21-6.67-4.1-2.81-25.15-39.65-70.3-111.24-5.38-8.89-11.7-13.56-18.25-24.68-16.02-21.06-16.96-24.09-15.09-24.57-11.35-22.57-7.02-12.28-5.61-14.27-11-27.49-8.77-23.98-10.18-37.43-7.25-24.92-10.65-23.51-12.87-28.07-10.41-18.01-9.59-21.06-3.16-6.9-5.96-33.57-8.66-48.07-5.5-25.38-4.21-59.89 1.87-5.03.12-2.81-1.4-5.38-.24-5.15-2.22-13.68-1.76-14.62-.7-4.8.12-3.16-.82-43.39-.94-2.69-9.59-34.51 10.18 8.89 10.53-.7 18.6 5.03 10.76 3.98 23.75 5.49 5.84 8.78 1.06 2.8 1.4 3.4.47 1.87 3.04 12.63 2.57 9.24 1.52 4.8 1.06 2.57-.59 1.52-2.92 9.36 1.28-.24.71-.11 1.75-.35 8.42-1.76 1.76-.23 6.2-1.17 3.27-.7 9.95-1.99 10.41-2.11 7.13-1.4 10.41-2.11 10.3-1.98 14.15-2.93 11.12-2.22 13.21-2.69 5.39-1.17.93-.24 1.29-.35 5.14-1.17 4.45-.93 1.52-.35 4.09-.82 5.97-1.17 11.46-2.34 3.98-.82 2.22-.58 2.23-.47 1.75-.47 1.52-.47 1.29-.35.7-.23 2.11-.7 2.69-.94 1.87-.7 3.51-1.41 3.04-1.28 4.21-1.87 7.96-3.63 12.75-6.08 12.04-5.62 4.68-2.22 4.1-1.99 1.28-.58 9.01-4.21 7.02-3.28 3.04-1.4 1.06-.59 1.05 1.52 9.94-4.91 5.03-2.22 9.94-4.8 5.03-2.45 8.54-3.86 9.83-4.57 7.02-3.27 4.21-1.99 1.05-.58 2.23-1.06 2.57-1.17 4.68-2.22 18.95-8.89 1.28-.7 8.78-4.09 15.32-7.37 8.42-3.86 4.57-2.23 12.63-5.84 4.33-2.11 5.26-2.57 2.58-1.17 6.66-3.16 5.5-2.57 3.75-1.76 8.65-4.09 11.7-5.5 12.63-5.96 9.13-4.33 6.55-3.04 3.51-1.76 4.68-2.22 1.75-1.05 1.99-1.17.58-.35 2.46-1.52 2.34-1.76.82-.58.58-.47 1.06-.94 1.75-1.64.47-.58.7-.47.24-.35 1.75-1.87.94-1.05 1.05-1.29 1.17-1.64.7-.93.47-.7.35-.47.82-1.29.58-1.05 1.64-2.69.12-.24.58-1.17.7-1.4.36-.7.35-.7.46-1.06.24-.58.58-1.05 1.06-1.99 1.4-2.11.47-.47.7-.81.7-.82.59-.59.46 5.03.36 4.21 1.17 14.51.11 1.4.82 12.75 1.17 15.67.7 10.06v1.06l.94 11.69.35 6.44.12 1.98.35 4.92.35 4.21.35 4.44.7 10.18.24 3.27.58 7.96.47 5.96.93 14.04.12 1.52 1.4 17.55.71 8.18.58 6.32 2.46 21.17.11 1.76 1.17 8.65 1.53 10.06.7 4.09.58 3.4 2.46 15.2 1.99 12.87 1.05 6.78 1.64 9.95.7 4.56 1.05 6.2 1.52 9.24 1.17 7.83.82 5.27.59 3.74.35 1.87.23 1.06 1.87 11.46.24 1.64.7 3.97.12 1.41 1.05 6.43 1.4 8.66 1.52 8.88 2.23 14.63 1.63 10.06 1.29 7.36 1.29 7.84.58 4.1.35 2.45.35 1.99 2.58 16.14.35 1.64 2.34 14.27 1.52 9.47 1.05 7.26 4.1 25.14.35 1.64 1.28 8.66.82 5.14 2.34 14.63.7 4.09 2.11 12.51.12.94 1.87 11.81.11.94 1.06 6.43 1.99 12.99 2.22 13.68.47 2.34 1.17 7.14.35 1.87 1.17 7.6.35 2.46.35 1.99 1.29 7.6.35 2.46.46 2.92.47 3.04.35 2.34.12.82.12.47 1.4 8.42 1.05 6.9.94 6.78 2.46 16.26.11 1.17 4.57.47 16.02 8.66 16.96 9.59-8.77 18.95-6.32-5.97-10.17-3.04-2.34-.7-3.75-.59-3.62-.35.11 1.76.24 3.62v.12l.11 3.74v1.29l.12 3.63v21.05l-.12 5.73-.58-.35-.82.94.7 1.4.59.23.7.35.7.24 1.17.47 2.69 1.05 2.93 1.05 4.44 1.99-.35 1.87-.23 1.41-1.64-.36-.94-1.05-.47-1.4-.81-.94-.82-.35-1.17.24-1.76-.24h-1.28l-.82.7-.24 1.76v1.52l.71 1.17v1.64l.23 1.4.23 1.4-.58.47.12 3.98v2.69l-1.17 1.28-1.53-1.63.24 7.02.23 9v.82l.12 5.61.12.82.11 7.72v3.98l.12 5.26v1.29l.12 4.68v6.9l-.24 3.39-.46 3.39-.47 3.28-.35 1.75-1.41 6.67-1.17 5.15-1.4 5.85-.23.82-.71 3.39-.35 1.05-.47 2.34-1.98 8.89-.82 3.74-3.16 13.22-3.63 15.91-3.62 16.02-.47 1.99-.35 2.46-.35 2.45-.12 2.58-.12 2.45.12 2.46.12 2.46 1.05 7.13.12.82.93 6.32 1.05 7.01 1.64 10.41.24 1.41.35 2.57.23 1.4.24 1.76 1.28 12.05 1.29 11.81.58 5.26.47 5.03 1.29 12.52 1.05 8.89 1.05 8.77.59 3.98.58 2.92 1.06 4.8 3.51 12.75 1.63 6.08 2.23 8.19 3.74 13.57 1.17 4.44 2.22 7.61 2.81 10.41 1.64 5.73 1.17 4.44 5.61 20.35 4.68 17.08 4.56 16.61 2.93 10.65 1.87 6.66 4.44 16.14 3.05 11.23 1.17 3.86.46 2.11.24.82 1.17 3.86 1.28 3.97 1.29 3.4 1.29 3.15 1.4 3.05 2.57 5.38 3.98 8.07 1.87 3.97 2.93 5.85 3.27 6.9.24.47 1.17 2.46 1.28 2.81.59 1.4 1.75 4.44 1.76 4.57 1.75 4.91 2.46 7.13 1.64 4.56 2.57 7.26 1.52 4.44 4.45 12.52 3.51 9.82 3.51 9.71 6.08 17.2.93 2.57 2.93 8.54 1.17 1.17 1.17-.12 8.3-1.17 3.63-.58 6.67-.59 1.99-.23 10.29-1.29 8.89-1.52 9.48-1.4 3.39-.71 1.52-.35 1.17-.23.7-.12.7-.11 5.5-.59 1.99-.12 1.05.24 1.87.58 1.99.35 1.87-.35 5.5-1.87 2.34-.58 6.32-1.06.58.12.7.23 1.41 1.06 3.39 2.34 1.99 1.52 14.97-.24-.47 4.1-.58 2.22-.47 2.81-1.17 2.92-.11.23-.94 3.28-.7 4.09-.94 3.98-.7 4.8-.23 5.14.11 4.33.47 3.74.23 7.26.36 2.8.58 2.34.94 2.23.7 1.4-12.05 9.71-2.34.47-15.79 3.04-12.17 2.34-1.64.23-3.62.47-14.27 2.34-10.53 1.87-1.17.23-3.28.94-2.22.47-1.17.23-.82.23.47 1.29.94 2.57.7 2.58.7 2.57.47 1.99.11.7.47 2.69.24 2.69.23 2.57v2.69l-.12 2.58-.11 3.62v1.88l-.35 10.29-.12 3.04-.47 12.52-.23 2.92-.12 6.67-.59 14.62-.46 13.57v.93l-.35 9.94-.35 8.89-.12 4.33-.12 3.75-.47 12.51-.23 5.73-.47 13.45-.23 4.1-.24 7.02-.23 7.6-.12 3.39-.35 6.9-.12 5.15-.23 4.21-.12 5.26-.35 8.89v1.17l-.23 4.33v7.95l.23 3.4.24 2.92 1.63 9.59-.93-1.52.12 1.76 1.17 6.31 1.28 6.44.94 4.79.93 4.68 2.34 12.75 1.17 6.55-4.91 4.44-6.9 8.43-8.78 6.08-19.41 7.6-14.63 14.62-6.2 3.28-6.78 1.87-14.97 3.98-9.13.7-3.27 1.75-1.76-.7-1.87-.58-9.01 2.92-6.43.7-1.64 2.34-2.22 3.51-5.03-.47-5.73-.58-1.76 1.17-1.4-.47-1.87-.7-6.9 8.89-3.98 5.26-12.28 1.4-6.09 2.34-4.21 3.63-25.27 11.58-12.4 4.44-56.26 18.37z" stroke-linejoin="round"/></defs><use xlink:href="#a" fill="#cee3e4" stroke="#cef5f5" stroke-width="5.76"/><defs><path id="b" d="M2483.56 1252.85l-2.81 1.99-3.51 1.99-1.17.35-1.87.35h-3.27l-1.06-.12-.58-.23-1.05-.58-.24-.24-.23-.7.12-2.34-.12-1.75-.23-1.64-.36-1.52-.46-1.29-.82-1.64-1.17-2.57-.24-1.52v-1.52l1.64-6.79 1.29-3.74 2.81-8.65 7.01-13.92 1.17-3.51 1.53-5.85.23-1.87.23-9.24.24-3.04.7-3.16.93-2.81 3.51-10.99 1.29-2.46 2.46-4.09.7-1.06.35-.7 2.69-7.6 2.46-9.48.7-3.04.47-2.92.11-.7.35-3.98v-2.34l-.11-1.99.23-.7.24-.94.35-.7.58-.82.7-.35 1.41-.23 1.4.12 1.17.35 2.34 1.4 1.64 1.29 1.17.46 1.52.24h1.29l5.14-.59 1.29-.35 1.17-.47 1.29-.93 1.17-1.76.11-.7-.11-1.05-.12-1.05-.82-1.64-.82-.7-.58-.24h-1.64l-5.38.71-3.16-.12-3.86.23-4.56.7h-2.81l-.59-.23-3.04-3.04-.93-1.29-.35-1.17.23-2.45.47-2.23.35-1.05.12-.12 2.1-3.27 3.16-4.21 1.17-1.17 1.17-.59.82-.7 2.1-2.57 1.06-1.4.93-1.53 1.52-2.8 1.06-1.87 1.98-3.63.36-.82.35-2.34.7-1.64.35-1.17.23-11.93v-2.8l.12-2.81.12-.82.35-.82.7-.7.58-.47.47.12.47.23.7 1.29.94 2.22 1.28 2.22 1.99 2.58.71 1.05.58 1.29.47 2.1-.59 2.58-.58 2.1-1.17 5.85-.59 5.73-1.05 4.09-2.46 5.5-.93 3.86.12 1.29.46 1.17.59.7 1.87.82 2.46.58 2.22.12 1.05-.35 1.05-.7 2.34-3.39 1.06-1.88 1.05-2.45 1.17-2.93 1.99-7.01.58-5.74-.11-2.69-.35-2.92.11-2.69.82-6.08.47-2.11.7-1.75 1.87-4.33.82-.7.35-.24 3.04-1.4 3.28-1.4 1.17-.94.7-.7.7-.47 3.63-1.17 1.99-1.29 2.22-2.1 1.52-2.22.47-1.29.82-3.86v-1.17l-.24-.82-.58-1.05-.7-.47-.59-.47-.82-.11-.93.35-4.45 3.04-2.81 1.75-1.63 1.41-4.45 4.32-1.17.82-2.81 1.52-.11.12-3.16.94-1.4.7-3.51 1.87-4.22 1.52-1.63.35h-.24l-1.4-.12-1.29-.58-.7-.59-.58-1.05-.82-1.99-.12-.46.23-.71.47-.7.59-.82 1.99-1.75 2.34-1.99 1.63-1.17 9.48-5.96 1.17-.82 6.67-6.55 2.22-2.58 2.69-2.1 1.64-1.99 1.28-1.76 2.34-1.87 3.86-2.57 2.34-1.99 1.87-2.81 4.92-10.52 3.74-9.71 2.34-5.27 1.05-1.52 1.41-1.4 1.4-.94 2.34-1.05 3.04-1.64 2.11-1.4 2.22-1.87.82-1.29 2.34-4.33 3.39-7.6 1.99-3.62.93-2.69.24-1.29v-1.17l-.47-3.16.94-2.92v-2.34l-.12-.94-.82-2.57-.12-1.52.12-1.05.82-1.64 1.29-1.87.46-1.29.36-1.52.11-1.87-.7-2.46-1.05-2.34-2.69-5.38-2.23-4.56-2.45-5.26-.94-1.99-1.4-2.81-.94-1.4-.93-1.17-1.99-3.4-4.21-8.77-.71-1.05-1.87-3.63-.35-1.52-.23-3.39.93-8.54.47-1.05.47-.35.7-.12.59.12.7.7 1.05 2.34 1.17 2.1 14.27 27.96.94 2.81.58 1.4 1.41 1.76 3.62 6.78.94 2.22 1.29 2.58.58.58.47.35h.93l1.76-.35.7-.82.59-.93.23-1.06v-.82l-.23-1.05-.24-.7-.35-1.17-5.38-10.18-2.11-4.32-4.91-9.6-2.81-5.38-3.39-7.36-2.22-4.33-.12-1.17.47-.94.82-.93.23-.12.7-.35 1.53-.35 1.17-.12 1.16.23 1.17.71 1.64 1.52 3.04 6.2 1.64 2.92 4.56 9.01 6.09 11.81.7.7.82.47 1.28.35h1.17l1.06-.35.7-.35.82-1.29 1.17-2.92 3.16-9.01 3.15-7.25.35-1.05.24-2.11v-1.4l-.24-1.52-.35-.7-.93-1.41-1.29-1.75-1.87-1.87-2.92-4.21-.47-1.06-.35-1.28-2.23-2.93-1.75-2.69-1.52-.93-5.73-2.11-11.82-3.04-2.1-.59-9.6-2.57-3.74.35-3.51 1.29-3.63 2.57-3.04 3.51-1.75 3.16-1.17 3.27-.7 6.09.23 1.98.12 11.82 1.05 5.15.82 3.15 1.4 4.1.71 2.45v.82l-.12.94-.35.7-.12.23-.47.47-.82.24-.93-.24-.7-.58-2.81-3.16-1.52-1.52-3.04-2.11-3.86-2.1-5.97-2.93-5.97-2.34-11.81-4.09-3.63-.82-2.57-.35-2.11-.23-18.48.35-10.41 1.05-6.08 1.64h-1.06l-.35-.24-.35-.23-.7-1.29-1.17-6.2v-1.52l.47-1.99 3.98-9.94 4.44-9.47 7.84-17.2 1.99-3.27.23-.82-.12-.82-.46-1.87-.12-1.29.47-2.8.93-2.93-9-2.69-7.02-2.34-.12.35-.47.47-.82.23-1.17-.11-2.8-1.41h-.82l-1.05.59-1.29 1.28-.7 1.29-.47 1.87v1.06l-.35 1.87-.59 1.75-.23.7-.59.24-1.63.35-.71.47-.35.58-.35.94-.23 2.34-1.05 4.79-4.22 9.71-.93 1.17-1.64 1.99-.93 1.52-.59 1.29-.82 2.8-.82 5.38-.93 3.4-.59 1.05-1.28 1.64-2.58 2.69-.23.58.11 1.05.47.82 1.41.35.82.71.81 1.05.71 1.75.46 2.34-.23 1.29-.47 1.75-1.05 2.81-1.4 2.81-.82 1.4-.71.94-1.87 1.63-.23 7.14.23.35.24 1.05.11 1.76-.35 1.17-1.28 4.68-3.51 6.55-2.34 4.32-4.56 3.16-4.57 2.22-6.08 7.02-7.72 2.46-1.29 1.64-1.87 3.51-.7 2.45-.35 1.87.12 3.05.46 3.39-.23 1.75-3.86 7.6-1.4 2.23-.12.35-.59 1.28-1.05 4.57-.82 4.32-2.57 7.61-.24 4.21-.23 1.64-2.92 8.65-.82 1.64-1.87 1.52-2.23 1.4-.58.82-1.99 4.33-.94 1.64-3.62 4.56-.82 1.4-.7 4.56.11 1.76-.23 1.05-3.04 6.32-.59 2.69v1.64l.24 1.4-.12.94-.47 1.05-3.98 4.91-2.45 3.51-.59.94-.23 1.28v1.41l-.23.7-.71 1.05-.82 1.17-1.05 1.4-1.28 1.29-2.23.47h-.82l-1.52-.35-1.4-1.17-.7-.82-1.41-1.52-1.17-1.52-.46-1.06-.12-.7v-.7l.23-.35.35-.35.71-1.17.23-.7-.12-3.04-.23-.82-.24-.12h-.23l-.35.23-.35.71-.94 2.45-.11.94.23 3.62v.47l-.12.59-.23.7.12.47.23.35 1.05.35.12.23-.12.7-.35.36-.23.11-1.05-.7-.36.23-.11.24.23 1.75v.24h-.58l-.71-.35-.23.11-.58.47-.36.12-.81-.12-.59-.23h-.12l-.23.23-.47 1.87-.11.24-.94.23-.23.23-.24.36-.35.23-2.46 1.29-.11.11-.59.35-.23.59-.12.35v.35l.35.23h.24l.7-.23 1.4-1.17.35-.35 1.29-.47.58-.35 2.34-2.69 1.52-.47h1.17l1.06-.11h.7l.58.11.82.35.12.24-.23.82.11.46.24.24 4.21 1.87 3.27 1.87 2.11 1.41.93.93 2.11 2.81.12.35.11 1.29-.46 1.28-.59.35-1.29.35-1.4-.35-.23.12-.24.35-.11 1.17-.35.47-.47.12-2.23-.47-.81.11-.59.36-.82 2.45-.35 1.29.24 1.75.11 1.06-.11 1.28-1.99 3.16-1.17 2.22-.47.94-1.52 1.99-.94 1.17-1.4.58-3.04.47-1.29.58-.58.82-2.46 3.98-1.29 1.52-1.87 3.04-.58 1.76-.82 4.79-2.23 5.27-1.17 3.04-.35 1.28-.7 3.16-2.92 9.01-1.52 4.33-5.62 8.77-1.52 2.92-3.04 5.27-1.05 1.4-3.98 4.09-.94.47-.7.24-1.64-.35-4.09-.47-.47-.12-.82-.23-.35.11.12.71.35.35.82.23 1.75.23 2.69 2.11.35.47.36 1.75v.35l-.47.94-1.05 5.5-.94 2.92-.7 2.22-.47 1.29-.7.82-.47.23-1.52 1.64-1.17 1.87-4.21 4.45-11.82 7.83-1.52.12-.93.23-.59.35v-.46l-.12-.35-.46-.94-.47-.35h-1.52l-2.58-1.29-.35-.11-4.09-.59h-.82l-.35.82-.47 1.29-.47 1.52-.35.11-.35.12-1.05-1.05-1.05-.82-.71-.35-.81.12-.59 1.16-.47.12-.58-.7-.82-.12-.7.12-2.81 1.05-.82.12-.58.7-.94 1.52-.82 2.46-.93 2.57.11 2.22-.11.47-.24.47-.12.23h-.35l-1.17-1.17-1.17-.93-.23-.24-.12-.81.94-6.2v-.82l-.23-1.06-.47-.58v-.23l-.35-2.46.7-1.29-.59-5.73-.46-2.45-.71-1.06-.35-.35-2.57-.58-5.5-.94-.7.12-.82.7h-.35l-.82-1.52-.58-.47-.59.12-1.17.82-.58.23h-.71l-1.28-.7-.82-.23-1.29-.24-1.28.12-2.58 1.17-.23-.12-.24-.12-.11-1.17.23-.7 1.05-1.63.94-.47 2.69-.59.47-.35.47-.7.35-.47.7-.23h.23l.35.23.35 1.17.36.59.23.11h.35l.7-1.05.35-.35 3.86-1.87h.71l1.05.82.82.46.82-.93.11-.7.12-.59.35-.35 9.48-4.68 2.69-3.51.11-.23.71-1.29-1.64-2.34-2.46-2.57-4.09-3.86-.59-.58-8.65-6.44-2.34-1.28-2.11-2.11-1.52-1.4-3.16-2.46-2.22-1.87-11.35-12.75-.58-.7-2.34-2.58-1.76-1.98-2.57-2.93.12-4.56-3.4-1.99-1.99-1.17v1.05l-.23.36-.35.23h-.58l-.36-.12-1.17.7-.81.47-1.64.24-1.99-.94-.47-1.17-3.62-8.42-.59-.7-3.51-.12.12 1.05-9.13 3.63-3.97 1.64-4.33 1.75-.82.35-4.1 1.64-4.91 1.99-1.87.82-.58.23-6.91 2.81-2.69 10.76-1.75 3.39-1.76 3.51-.46.82-.94 1.99-2.11 3.62-1.52 1.99-.46.7-1.76 1.29-2.22.7-3.74.24-2.93-.47-1.99-.94-3.04-2.81-7.37-7.95-1.99-1.64-1.52-.7-1.87-.12-3.04.36-5.38 1.05-10.53 1.28-.82.12-5.15.59-.58.11-3.98.47-9.82 1.29h-.36l-10.41 1.28-3.04.71-1.99.7-1.28.47-1.64.58-7.25 3.39-3.05.94-2.1.7-1.05-3.39-.35-1.4-10.65-38.14-1.52-5.85-6.9 2.81-17.08.82-12.05-3.63-.82 3.16-3.74 4.92-1.41 9.47.24 5.38-.59 4.45-2.8.35-1.29 1.52-.94 1.05-.82.7-6.9 5.38-2.34 1.29-2.92 4.09-16.03 5.85-10.76 3.98-1.64-1.87-.93-1.17.7-.12.58-.12 1.41-.35 1.52-.47 1.17-.46 1.52-.71 4.33-2.8 1.28-.47 4.1-1.17 7.49-1.4 4.44-1.29 4.33-4.8 9.12-9 4.33-2.69-.12-3.16-.35-4.56v-2.81l.35-1.99.71-2.1.7-1.52.93-1.76 1.29-1.64 2.11-1.99-1.88-3.74 3.98-2.22 5.15 1.17 4.91-5.26 1.87-1.76 1.52-.94 1.99-1.16 4.1-1.88 2.34-1.17-17.67-23.62-10.76-9.13-28.54-7.95-23.63-6.67-3.04 6.67v1.52l-.35.7-.82 1.76-1.52-.71-3.04 6.09-.36.82-.46.93-.35.7-.71 1.41-3.74 7.72-.12.46.12 1.06-2.81 5.38-6.66 13.1-1.17.82-.71 1.63-3.74 7.84-.58 1.29-3.4-1.05-4.79-1.53-1.29-.35-1.17-1.4-7.72-3.39-4.91-2.11-2.34-.93-5.97-2.46-1.17-.47-10.99-4.56-10.18-4.21-10.41-4.21-21.18-8.77-4.79-1.99-15.33-6.2-4.56-1.87-11.7-4.68-10.17-4.21-.35-.12-4.1-1.64-4.44-1.75-9.36-3.86-2.81-1.17-4.33-1.76-2.57-.93-11.46-4.56-6.56-2.69-3.5-1.52-7.02-2.81-4.33-1.87-1.17-.35-1.76-.71-3.97-1.63-4.1-1.64-10.88-4.33-7.95-3.27-3.39-1.29-3.16-1.29-2.69-.93-1.06-.35-.7-.35-.7-.12-.82-.24-.82-.11-2.45-.35-10.53-.47-18.25-.94-5.15-.35-3.97-.23-5.74-.35-3.74-.35-13.45-.94-2.11-.12-4.91-.23-6.43-.47-13.46-.82-1.75-.11-8.31-.47-7.6-.35-.35 1.28-4.8.24-1.28-1.52-1.17-.12-2.81-.47-1.52-.23-1.87-.35-1.06-.24-.82-.23-1.05-.35-1.99-.94-1.17-.46-1.05-.47-3.16-1.76-.82-.47-1.75-1.16-1.64-.94v-1.4l-1.05-8.43-1.05-6.2-3.05-22.34-3.62-23.86-.59-4.68-1.52-10.41-.47-5.03.36-11.93.46-6.78 2.46-12.17 1.4-4.68 2.23-6.08 2.69-5.96 5.61-10.88 4.91-8.66 1.29-2.45 4.56-10.3 1.87-5.49 2.23-9.24.58-3.63.59-4.8.7-8.77-.23-7.72-1.06-7.95-.35-2.81-.12-.82-1.28-6.78-1.41-5.38-1.05-3.04-3.86-9.71-1.29-2.93-2.1-4.32-1.64-2.7-3.98-5.96-2.34-3.28-4.44-5.38-12.63-13.8-12.29-13.22-13.1-15.2-8.66-11.11-2.92-3.75-6.78-9.47-7.14-11.11-3.16-4.68-8.19-13.57-5.14-9.59-2.23-4.33-6.78-13.33-6.44-14.04-7.95-20-4.56-12.87-2.69-8.77-1.99-6.79-1.64-5.73-3.74-14.85-.7-2.46-.47-1.87-1.64-6.32-1.17.59-1.99.7-14.74 1.99-9.59 3.39-14.39-13.8-30.06-29.13-22.81-22.1h.58l.35-.12.47-.12 1.29-.7 6.43-3.16 5.27-2.57 6.66-3.28 13.22-6.55 4.21-1.98 7.02-3.51 3.51-1.76 2.93-1.4 9.12-4.45 1.99-.93 1.17-.59.82-.35 2.81-1.4 5.61-2.81 12.52-6.32 13.68-6.66 2.46-1.06 26.44-12.86 8.54-4.33 9.71-4.56 16.49-8.42 1.64-.71 3.16-1.52 10.29-5.03 15.79-7.83 28.78-14.04 5.5-2.69 15.55-7.6 16.62-8.07 8.89-4.33 10.99-5.5 12.87-6.31 8.77-4.22 4.92-2.33 34.5-16.61 25.86-12.52 13.45-6.55 19.77-9.59 7.72-3.74 21.52-10.65 23.28-10.99 6.44-3.16 11.81-5.97 7.95-3.62 10.3-5.03 5.26-2.58 29.95-14.62-2.81-6.2-.82-3.51-2.69-7.48-3.27-8.07-1.64-3.51-1.52-3.28-1.17-3.51-1.05-3.86-.94-4.32-.7-3.98-.35-4.21-.82-10.29.12-4.68.46-3.51.94-3.16 1.87-3.63 2.11-2.57 3.15-2.46 7.02-6.08 4.45-4.09 2.57-1.64 4.56-1.64 3.86-.11 5.62.81 5.61 1.64 2.11.24 1.05-.36 1.41-.93 1.99-2.34.7-.94 1.05-1.63 1.05-1.88 1.41-1.75 1.52-1.64 1.28-1.05 1.29-2.11.35-1.05.94-.82 1.17-.47 2.1-.7 2.23-.58 1.28-.24.94-.46.47-.94 1.28-.23 1.76-.24h1.17l1.05.47 1.17-.23 1.29-.71.58-.23.94-1.17 2.92-1.75 1.05-.94 3.51-3.51 2.93-3.39 1.87-2.69.82-1.64.35-1.17.23-1.28.12-2.23-.47-1.28-.58-1.17-.24-1.06.35-1.28 1.17-2.22 1.88 1.52 1.63.81 1.76.36 1.29.11 1.28-.11 1.52.23 2.34-.12 1.05.7 1.29 1.64.7 1.17.47 1.17.12 1.99-.12 1.29.7 2.22 1.06.93 1.4.71.47.7-.12 1.4-.23 1.64v1.64l.58.82 1.29 1.4 1.75.93 1.76.36 1.4.7.47 1.05 1.05 2.11.24 1.63 1.05 1.64.93.35h1.76l.94-.93.58-1.41v-1.4l.12-.94.58-.7 1.52-.7.82-.12h.35l1.76-.11 2.1 1.17 1.52.58 1.76 2.11 1.17 1.75 1.28 2.22.47 1.64.47 1.05.35 2.46v1.29l-.58 2.34.58 1.52v2.92l.24 1.4.46 1.88.47.81 1.05.71 1.29.11 3.98 1.41 1.64.35 1.05.58 1.4 1.76 1.52.46 1.06.24h.93l.82.93.23.82-1.28 1.76.47 1.28.7.35.58.36 2.23.35 1.75.46 2.57 1.53 2.34 1.52 1.41 1.05 1.28 1.17 1.64 1.52 8.07-3.86 3.16-1.4 1.76-.36 1.4-.35h2.22l2.34.24 3.98 1.05 2.81 1.05 7.25 4.21 3.86 2.34 3.04 1.76 6.32 3.39 2.69 1.52 34.39 21.87 2.11 1.41 7.36 4.68 6.09 3.62 40.12 24.8 6.67 4.44 24.56 15.09 24.45 14.86 22.58 13.92 18.36 11.23.47.35 24.45 14.97 21.29 12.98 32.4 19.65 20.24 12.4 11.58-18.13 9.95-15.44 3.15-4.91 1.99-2.81 1.64-2.22 1.29-1.99 1.28-1.75 1.17-2.11 1.87-3.27.71-1.17 3.86-6.44 12.75-20.7.58-1.05 2.34-3.75 7.96-12.63 2.1-3.51 1.99-2.92 2.11-3.04 1.75-2.58 1.76-2.57 2.34-3.16 2.69-3.39 2.8-3.51 2.58-2.92 2.22-2.58 6.2-6.31 9.83-10.06 1.98-1.87 11.7-12.05 5.85-6.08 3.28-3.63 2.22-2.81 2.81-3.86 2.34-3.51 1.87 1.17 3.62-6.2 5.5-10.87 1.76-3.51 12.75 26.67 9.82 4.67 11.58 5.74 8.31 3.62h7.14l2.45.47 13.69-4.56 12.51-2.69 10.18-.59 26.44-1.63 3.39.58.82.12 20.82-1.99 22.23-4.33 9.47.12 5.5 2.1 7.84 13.81 1.75 10.64 2.23 9.83 18.13 32.51 3.97 2.11 11.82 2.1 4.91 2.58 6.2 16.84 1.41 10.18.11.82-3.97 9.7-1.29 3.16 21.99-1.99.7-.7 4.45-2.45 1.52-2.81 2.92-11.58 5.74-3.28 4.44-6.9 1.64-.47 1.64-.46 3.39-.71 5.15 1.17 3.86 3.16 6.55 5.62 2.8 4.09 6.79 16.03 2.1 2.8 11.94 11.7 4.91 7.02 1.52 6.9 6.32 8.42.58 2.81-1.52.93-1.99-2.45-2.1-.35-.59 1.52.12 12.28-2.46 7.72 1.05 4.68.47 1.75.12.59-1.4.46-.71.24-5.03-1.99-.93-.35-8.07-.94-3.63.71-7.84 4.32-3.16 3.86-.58 2.34.7 1.17 6.67-3.97 4.21-1.29 5.62-1.76 3.97-.23 9.83 4.56 1.87.82 1.29 1.4 2.1 2.11 15.91 23.04 5.5 10.18 3.04 11.23 2.57 9.94-1.87 5.61-3.27 4.45-1.64 1.52-1.05.12-.47-.7-.12-2.46 1.76-4.8-.94-4.79-3.51-3.63-.47-9.24-2.8-7.72-1.52-1.4-5.62-1.87-.7 2.34 1.99 8.88 4.09 24.57v9.36l-2.81 15.67-.35 15.21 1.76 9.59.58 3.39-.47 15.2.24 1.53 1.87 9.35-.58.35-1.06.59-1.28.7-12.99-.7-4.44.58-5.27 3.51-7.25 8.54-14.39 25.97-4.21 13.68-6.32 19.42-9.71 10.29-6.9 2.58-7.84-.12-17.89 1.29-10.53-1.52-4.8-2.93-5.38-1.99-6.31.24-4.68-1.06-3.75-4.09-2.1-3.86-2.23-7.84.12-4.67 2.11-12.99 1.28-3.62 3.05-11.35-1.17-11.81 1.98-2.58-.35-3.27-2.1-.47-3.51-2.81-1.17-5.85-3.86-4.79-7.14-9.83-3.04-7.72-7.13-7.6-1.53-1.4-2.22-5.85-.7-4.56-6.08 9.82 1.28-.35 1.41.59 3.74 10.76 2.11 2.92 5.03 5.38.11 1.05 4.68 3.16 6.67 10.3 1.52 8.18-1.99 7.49.59 10.64-3.39 8.31-.71 6.43 1.99 17.66-2.45 5.38 1.28 9.36v2.22l-1.17 1.64-15.2 8.42-2.69 8.31-2.46 3.74-7.6 7.84-5.39 1.87-2.57-.59-5.85-3.27-5.38-5.61-1.17-2.46-2.46-9.71-5.73-4.91-3.74 8.54-5.03 12.4 2.57.46.94.47 2.57 1.29 2.93 3.04 4.91 7.48 4.8 6.32.93 1.17 1.52 1.17 1.41.59 3.39.58 10.64.12 7.84-1.06 3.16-.93.93-.7 6.09-5.62 6.78-6.9 10.76-10.29 1.53-1.17 1.52-.94 1.63-.35 1.52-.23h2.11l3.51.7 31.82 10.53 3.51 1.63 2.1 1.29 1.41 1.29 1.05 1.17.7.82.82.81 1.17.71 5.03 1.17 2.57.58 1.52.7 1.17.82 1.06 1.29.7 3.16.35 1.98-.23 1.99.11.82.35 1.99.59 2.11.11 2.1-.11.94-2.22 2.57-7.02 10.18-4.92 5.26-1.63 1.4-1.88 2.46-1.87 3.86-.35 1.05-.35 1.29.12 1.52.23 1.4.47 1.29.7 1.05.24.47.46.59h.71l.7-.24 1.05-.93 5.03-6.32 16.38-13.92 1.52-1.75 2.45-4.1.94-2.22 4.91-8.54 3.28-5.15 3.62-7.13.36-1.17.11-.59-.23-.58-.47-.7h-.23l-1.99.35h-1.29l-.35-.12-.23-.47-.12-1.05 4.56-6.67 2.93-4.09.7-.58 3.27-3.16 4.1-3.16 2.92-2.11 2.81-1.63 3.39-2.11 1.87-1.64.71-1.05.23-.23 1.4-1.64 3.28-2.93.35-.35.7-.46.35-.71.24-.81.23-.71 1.17-.7 5.73-2.34 7.37-3.27 1.87-1.06 3.63-3.15.82-2.93.58-5.03.35-4.44 2.34-6.32 4.33-3.27 3.63.82 3.98 3.27 9.35 10.64 3.98 5.27 1.4 8.3.59 12.28.7 7.02-.12.35-1.17 4.57-2.45 4.79-4.45 7.37-1.99 4.44-2.34 4.1-3.74 4.79-7.02 8.66-6.55 8.31-13.68 17.07-3.75 4.1-9.12 9.47-10.88 11.58-10.76 11.23-7.26 7.72-20.35 31-6.32 9.7-41.41 63.99-32.05 53.1-16.14 32.28-15.79 36.26-21.76 56.27-1.41 3.39-3.27 6.9-1.17 3.39-1.52 3.39.12 1.64 1.17 2.46.58 1.17.23 1.17v1.17l-1.52 3.74-2.8 5.5-1.64 2.8-1.29 1.53h-.93l-.94-.24-1.29.24-.46.46-.36.94v4.79l-.23.59-.7.58-.59.71-.46 1.05-1.06 5.26-14.15 35.91-6.32 13.34-5.73 12.63-1.64 4.09-1.75 4.8-1.29 5.03-.7 1.87-.7 1.29-1.64 2.34-1.17 2.33-.23.94.11 2.46-.11.93-1.76 3.04-.47 1.64-.7 4.45-.23.93-.47.59-.82.46-.7.71-.7 1.05-.82 1.99-8.07 8.65-7.37 15.79-9.71 24.1-3.86 9.59-2.11 5.26-6.43 18.25-5.27 13.34-5.03 11.58-5.38 15.2-7.95 17.78-2.22 3.74-1.76 2.11-1.64 1.64-.7.58z" stroke-linejoin="round"/></defs><use xlink:href="#b" fill="#cee3e4" stroke="#cef5f5" stroke-width="5.76"/><defs><path id="c" d="M2477.48 1121.5l-.7 1.05-1.17 2.22-1.52 1.64-.82.47-.59.23h-.58l-.7-.35-3.98-2.92-3.04-4.1-1.06-.93-.58-.12-.7.58-.35.82v1.06l.23.81 2.69 3.05 3.86 4.21 1.05 1.52.59 1.28.12.94v.82l-.24.35-1.05.23-.47-.11-9.36-8.43-2.92-1.05-4.91-.12-.82.59-.24.23v.59l.12.7.35.35.7.23 3.98-.23 2.69 1.05 1.4.82 1.06.7 4.79 4.22.47 1.16.23 1.29-.11.94-.59 1.4-1.17 2.34-3.39 4.91-1.4 1.29-1.17.7-1.06.24-.46.46-.24.7-.35 1.99-.47.47-.58.47-1.41.58-1.52.35h-1.52l-1.28-.11-1.29.11-1.05.47-.94.82-.12.7.36 1.17.35.47.7.35 1.28.12 2.11-.59 4.33-2.69.58-.46h.59l.23.35.24.58v.7l-.35 1.52-.71 1.29-.7.94-1.29.7-2.69.7-1.52.23-1.4-.23-3.16-1.4-1.29-.12-1.98.47-14.39 6.43-2.46.59-11.81 1.63-5.38 1.17-.94-.11-4.91-2.46-4.33-2.34-1.99-.82-5.26-2.1-3.63-1.41-1.05-.23-3.86-.47-1.41-.23-1.87-.59-2.1-.93-3.28-1.76-1.87-1.29-.94-.7-1.75-1.75-.35-.7-.24-1.06v-1.17l1.29-5.14.35-1.06 2.46-6.08 7.83-16.61.94-2.57.82-1.29 1.29-1.28 1.63-1.29.47-.94.35-.93.94-5.73.35-.59.58.24.36 1.05.23.82.7.93.7-.11.7-.47 1.99-1.99 1.29-1.87.12-.7-.35-.71-.59-.7-.35-.47-.35-.7-.94-4.68v-1.17l.35-1.05.94-1.28 1.76-2.11 2.57-2.69.58-.7.12-.82.12-1.4v-1.29l.11-2.34.36-2.46 1.05-4.21 5.61-16.26.59-1.28 6.31-16.73 6.67-14.15 2.81-6.32.47-3.39.7-2.57 1.75-4.1 1.99-2.46 1.64-1.28 1.05-1.17.82-1.17.59-.94.23-.7v-1.05l-.47-2.81-.11-.58-.59-2.81-.23-1.64.23-1.05 1.17-2.57 4.33-8.31 4.21-8.3v-.24l3.98-6.31 2.69-3.75 2.69-2.69 1.64-1.52.93-1.52.94-1.87.82-2.46.35-1.87.47-1.17.93-.82 1.76-.93 1.05-.35 1.29-.47 1.87-.12 2.92.24 2.58.46.81-.23.94-.35.47-.94-.12-.58-.23-.7-.35-.47-3.4-4.33-.46-1.05-.24-1.52v-1.29l.24-1.05 1.98-4.33.47-1.99.7-4.33.71-1.98 1.17-3.16 3.51-6.67 1.98-4.44.71-1.17.58-.47 2.22-.94 1.06-.23 1.17-.7 1.87-1.52.7-.24.82-.23h1.17l1.64.35h1.17l1.75-.12 1.4-.93 2.34-.94 4.45-1.17 11.58-2.57 4.09-.82 1.76-.24 5.61-.7 3.4-.23 4.56.58 2.81.71 1.87.23 2.34.47 2.22.11 1.4.24 1.17.58 1.76 1.41 2.34 2.45 3.04 2.69 1.87 1.64 6.55 4.56 5.38 3.28 1.64 1.17 5.15 3.16.93.58 2.69 2.34 3.86 3.98 1.06 1.17 1.05 1.87 1.29 2.34 1.52 4.21.35.93.11 1.06.12 1.99-.23 3.04-.12 3.15.12 1.99.47 2.69-.12 1.29-.47 1.4-1.75 3.16-1.88 2.93-.7 1.4-.93 3.27-.59.82-2.1 2.11-3.16 3.16-1.76 1.87-1.17 1.87-2.57 4.56-3.16 6.67-4.56 11.23-1.99 3.62-1.29 1.64-2.1 2.34-5.62 5.26-3.16 3.4-5.61 6.31-4.33 4.45-.12.23-1.98 1.29-1.64.7-8.66 4.21-1.75 1.64-3.51 2.69-2.46 1.64-5.5 3.15-1.52.82-2.8 1.99-1.64 1.87-.35.71-.47.7-.47 1.4-.47 1.4-.35 2.81v2.22l.82 4.57.47 4.32.12 1.88v.7l-.24 3.86.24 4.21-.12 1.17-.82 1.63-.23.59-1.06 1.17-5.96 8.42-2.23 2.93-2.57 4.44-.93 2.46-2.93 10.76-.47 2.34-.35 3.16-.23 2.8-.47 2.11-.58 2.1-2.46 3.75z" stroke-linejoin="round"/></defs><use xlink:href="#c" fill="#cee3e4" stroke="#cef5f5" stroke-width="5.76"/><defs><path id="d" d="M2759.4 584.61l-3.75 6.08-2.57 2.93-1.4 1.17-.47.11-.59-.23-1.28-.94-.82-.93-.47-.82-.12-.47-.23-.7-.12-3.16v-4.21l.12-1.64.23-.7 1.05-.82 1.64-1.17 2.93-1.17 4.09-.7h.47l.23.23.94 3.51.47 1.99v.82l-.35.82z" stroke-linejoin="round"/></defs><use xlink:href="#d" fill="#cee3e4" stroke="#cef5f5" stroke-width="5.76"/><defs><path id="e" d="M1776.19 3590.24l-.7.35-1.17-6.55-2.34-12.75-.93-4.68-.94-4.79-1.28-6.44-1.17-6.31-.12-1.76.93 1.52-1.63-9.59-.24-2.92-.23-3.4v-7.95l.23-4.33v-1.17l.35-8.89.12-5.26.23-4.21.12-5.15.35-6.9.12-3.39.23-7.6.24-7.02.23-4.1.47-13.45.23-5.73.47-12.51.12-3.75.12-4.33.35-8.89.35-9.94v-.93l.46-13.57.59-14.62.12-6.67.23-2.92.47-12.52.12-3.04.35-10.29v-1.88l.11-3.62.12-2.58v-2.69l-.23-2.57-.24-2.69-.47-2.69-.11-.7-.47-1.99-.7-2.57-.7-2.58-.94-2.57-.47-1.29.82-.23 1.17-.23 2.22-.47 3.28-.94 1.17-.23 10.53-1.87 14.27-2.34 3.62-.47 1.64-.23 12.17-2.34 15.79-3.04 2.34-.47 12.05-9.71-.7-1.4-.94-2.23-.58-2.34-.36-2.8-.23-7.26-.47-3.74-.11-4.33.23-5.14.7-4.8.94-3.98.7-4.09.94-3.28.11-.23 1.17-2.92.47-2.81.58-2.22.47-4.1-14.97.24-1.99-1.52-3.39-2.34-1.41-1.06-.7-.23-.58-.12-6.32 1.06-2.34.58-5.5 1.87-1.87.35-1.99-.35-1.87-.58-1.05-.24-1.99.12-5.5.59-.7.11-.7.12-1.17.23-1.52.35-3.39.71-9.48 1.4-8.89 1.52-10.29 1.29-1.99.23-6.67.59-3.63.58-8.3 1.17-1.17.12-1.17-1.17-2.93-8.54-.93-2.57-6.08-17.2-3.51-9.71-3.51-9.82-4.45-12.52-1.52-4.44-2.57-7.26-1.64-4.56-2.46-7.13-1.75-4.91-1.76-4.57-1.75-4.44-.59-1.4-1.28-2.81-1.17-2.46-.24-.47-3.27-6.9-2.93-5.85-1.87-3.97-3.98-8.07-2.57-5.38-1.4-3.05-1.29-3.15-1.29-3.4-1.28-3.97-1.17-3.86-.24-.82-.46-2.11-1.17-3.86-3.05-11.23-4.44-16.14-1.87-6.66-2.93-10.65-4.56-16.61-4.68-17.08-5.61-20.35-1.17-4.44-1.64-5.73-2.81-10.41-2.22-7.61-1.17-4.44-3.74-13.57-2.23-8.19-1.63-6.08-3.51-12.75-1.06-4.8-.58-2.92-.59-3.98-1.05-8.77-1.05-8.89-1.29-12.52-.47-5.03-.58-5.26-1.29-11.81-1.28-12.05-.24-1.76-.23-1.4-.35-2.57-.24-1.41-1.64-10.41-1.05-7.01-.93-6.32-.12-.82-1.05-7.13-.12-2.46-.12-2.46.12-2.45.12-2.58.35-2.45.35-2.46.47-1.99 3.62-16.02 3.63-15.91 3.16-13.22.82-3.74 1.98-8.89.47-2.34.35-1.05.71-3.39.23-.82 1.4-5.85 1.17-5.15 1.41-6.67.35-1.75.47-3.28.46-3.39.24-3.39v-6.9l-.12-4.68v-1.29l-.12-5.26v-3.98l-.11-7.72-.12-.82-.12-5.61v-.82l-.23-9-.24-7.02 1.53 1.63 1.17-1.28v-2.69l-.12-3.98.58-.47-.23-1.4-.23-1.4v-1.64l-.71-1.17v-1.52l.24-1.76.82-.7h1.28l1.76.24 1.17-.24.82.35.81.94.47 1.4.94 1.05 1.64.36.23-1.41.35-1.87-4.44-1.99-2.93-1.05-2.69-1.05-1.17-.47-.7-.24-.7-.35-.59-.23-.7-1.4.82-.94.58.35.12-5.73v-21.05l-.12-3.63v-1.29l-.11-3.74v-.12l-.24-3.62-.11-1.76 3.62.35 3.75.59 2.34.7 10.17 3.04 6.32 5.97 8.77-18.95-16.96-9.59-16.02-8.66-4.57-.47-.11-1.17-2.46-16.26-.94-6.78-1.05-6.9-1.4-8.42-.12-.47-.12-.82-.35-2.34-.47-3.04-.46-2.92-.35-2.46-1.29-7.6-.35-1.99-.35-2.46-1.17-7.6-.35-1.87-1.17-7.14-.47-2.34-2.22-13.68-1.99-12.99-1.06-6.43-.11-.94-1.87-11.81-.12-.94-2.11-12.51-.7-4.09-2.34-14.63-.82-5.14-1.28-8.66-.35-1.64-4.1-25.14-1.05-7.26-1.52-9.47-2.34-14.27-.35-1.64-2.58-16.14-.35-1.99-.35-2.45-.58-4.1-1.29-7.84-1.29-7.36-1.63-10.06-2.23-14.63-1.52-8.88-1.4-8.66-1.05-6.43-.12-1.41-.7-3.97-.24-1.64-1.87-11.46-.23-1.06-.35-1.87-.59-3.74-.82-5.27-1.17-7.83-1.52-9.24-1.05-6.2-.7-4.56-1.64-9.95-1.05-6.78-1.99-12.87-2.46-15.2-.58-3.4-.7-4.09-1.53-10.06-1.17-8.65-.11-1.76-2.46-21.17-.58-6.32-.71-8.18-1.4-17.55-.12-1.52-.93-14.04-.47-5.96-.58-7.96-.24-3.27-.7-10.18-.35-4.44-.35-4.21-.35-4.92-.12-1.98-.35-6.44-.94-11.69v-1.06l-.7-10.06-1.17-15.67-.82-12.75-.11-1.4-1.17-14.51-.36-4.21-.46-5.03-.59.59-.7.82-.12-1.88-.11-.93-.47-7.72-.12-2.93-.82-14.73-.47-6.79-1.28-18.24.11-.36.24-1.17-.59-10.99-1.05-14.74-.35-3.86-.23-4.09-.82-11.23-.7-1.05-.59-9.13h1.05l4.8-.35 5.73-.35 9.48-.47 4.56-.23 6.78-.35 8.66-.24h.23l5.97-.23 1.05-.82 4.68-.35 5.27-.35 10.17-.35 16.85-.82 16.02-.7 55.22-2.69 23.04-1.17 9.36-.35 3.04-.24 3.16-.11 3.28-.24 3.39-.23.93-.12 1.06-.23 1.05-.12 1.4-.35 1.06-.23 1.75-.47 12.98-3.86 9.25-2.69 10.06-3.04 4.44-1.29 17.9-5.26 3.16-.94 32.75-9.71 13.8-3.98 1.64-.58 10.06-2.92 17.67-5.27 9.12-2.69 10.76-3.16 2.58-.82 10.17-3.04 3.98-1.28 3.63-1.06 4.91-1.28 9.94-3.16 3.75-1.05 13.1-3.86 2.69-.71 2.57-.81 2.22-.71 1.99-.93 1.76-.94 1.64-.93 1.4-1.06 1.4-1.17 1.17-1.16.82-.94.94-1.05.82-1.06.7-.93.47-.82.58-.94.59-1.17.23-.35.35-.82.47-1.05.35-1.05.35-.94.23-.82.24-.7.47-1.52.58-2.34.82-3.74 7.02 1.64 26.9 5.96.71.12.81.12.47.11h.47l.35-.11.23-.12.12-.12.24-.23.11-.35.12-.47.12-.59.23-.58.23-.47.59-.23h.58l.94.47 1.05.35 1.29.46 1.4.36 6.32 1.63.23-3.15-.11-2.11.23-1.4.35-1.06.47-.23 5.26 1.52.12-.58-3.74-.94-11.47-9.01-.23-2.34 5.73 4.57 2.81 1.98 2.1 2.46 1.17 1.87.59.24 4.56.81 1.05.82.71 1.17.23.82.12 1.99-.12 1.64-.47 1.87-.7 2.22-.58 1.05-.82 1.41-.59.47-2.57 1.75-.35.35-.24.59-.7 2.69-1.29 2.92-.7.82-1.75.35h-1.05l-3.4.59-1.4.23-.35.12-.24.35-1.17 2.22-1.4 3.98-1.29 5.03-.35.7-.46.47-.94.23-1.4.23-4.92.12-.47.23-.11.36.11 1.05.59.47 4.56 1.75 1.87.35.82.47.47.58 1.05.59.82 1.29 1.41 4.67.35 3.75-.24 1.63.12.71.23.46.35.59.47.12.35-.12.24-.7-.35-4.8.11-1.05.47-1.17.12-.7-.12-.82-1.64-4.68v-.7l.12-.59.35-.7 5.62-7.95.93-.94 1.29-1.05 2.92-1.05 2.34-1.06 1.17-.7.94-.82.7-1.05.23-.7.24-1.64.47-1.29.7-.93 1.28-1.17 4.45-3.16.94-1.17.81-.7.71-.35 1.17-.12 1.52.24 3.16 1.05 3.27 2.1 1.29.71 1.17.46 4.91 1.17 3.51 1.29 1.05.47 4.21 2.92 2.46 2.57.35.59.35.47 1.17 2.45.47.94.35.58.47.47 2.57 1.17 2.58 1.29 3.04.82-2.46-4.56-.47-1.52-.47-1.53-.46-2.33-.12-2.93 22.93 10.53 9.24 6.08 8.66 5.85-1.53 23.63-2.22 27.25-1.05 10.41-4.45 58.02-1.63 12.28-6.55 19.42-9.36 36.26 8.3-14.39 4.92 2.1-4.57 21.06-1.28 6.2 4.33-5.27 1.63-1.63 2.58-2.69 1.52-1.29 3.04-1.87 3.16-1.29 3.16-.82 1.98-.11 7.96-1.52 14.62-2.81 5.03-.24h.7l1.87.36.82.46 2.93 2.69 4.68 5.15 5.85 7.95 2.22 2.81.58.94.12.35.47 1.64.35 1.98.35 1.64 3.04 6.79 1.64 5.14.35 3.28-.23 1.63-2.23 4.92-1.05.93-.94-.11-.46-.24-.12-.82.7-12.16.24-1.52-.36-1.99-3.15-9.94-.47-1.17-.47-.94-.47-.7-2.92-.82-1.05.24-.71.81-1.28 3.86-.82 1.41-.94 1.28-1.05 1.64-.47 1.87-.35 2.46-.35 1.64-.59 1.52-.7 1.4-.35 1.76-.58 5.26-.12 3.39.58 4.21.24 4.56.82 4.8-.59 9.59-1.63 8.54-.47 1.52-.35.82.11.94.71.35 1.52-.94.58-1.4.59-1.99 1.05-4.56.47-1.17.46-.59.71-.23.23.23.7 2.46.24 2.45v2.81l-.59 2.34-.7 2.57-1.05 2.7-.82 1.52-.7 1.28-1.53 2.34-2.57 3.98-.93 2.1-.59 1.76-.47 3.04-.58 2.34-2.22 4.56-2.11 4.09-.7 1.99-2.11 7.14-1.28 3.27-1.41 2.69-1.29 2.11-6.19 7.49-1.53 2.22-5.61 13.68-8.31 15.79-.58.94-.59.58-.46.24-.35-.35-.12-1.06-.12-1.28.12-3.39-.35-4.1-.47-2.34-.7-2.8-2.22-7.37-1.29-6.09-.7-2.92-.71-2.69-1.28-2.46-2.46-3.74-4.79-7.02-.59-.47-.58-.23-.71-.23-1.99.46-.46.36-.24.23v.58l.59 1.17.23 1.17.7 1.17.35.47.94.82 1.4 1.64.94 1.75 3.51 10.29 2.57 8.08 2.58 6.2 1.17 3.15v2.23l-.47 4.21.23 1.05h.35l.35-.23.82-3.16.47-1.41.35-.46.12-.12h.47l.11.47v.93l.47 4.45-.58 3.86-.35 1.17-.12 1.99.12 1.05-.36.7-.46.47-.94.47-7.95 1.28-12.17 3.75-16.38 5.84-2.34 1.17-3.39 3.28-3.98 3.16-2.45 2.45-1.52 1.06-3.98 2.1-3.86 3.86-.35.47-4.1 5.03-5.26 4.68-2.1 2.22-1.53 1.29-3.62 5.03-4.91 6.31-1.99.7-1.52-.23-1.41-1.87-9.47 43.51.46-.58 1.53-1.29.81-1.4.94-1.06 3.16-3.39 3.98-3.98 5.26-4.44 6.2-4.68.35-.23 7.84-5.5 1.99-2.81.93-1.64.47-1.63.47-.94.82-1.05 7.6-4.8 10.18-9.12 4.33-3.04 1.87-.82 5.26-1.05 4.56-1.41.59.12.35.35 1.05 4.8.35.82.47 1.05.82 1.4 1.29 1.29 1.63.82 2.11.58h6.43l3.63-.58h.23l3.28-.94 1.4-.58 1.06-.12.82.35.81.47 1.06 1.28 1.63 2.23 2.34 4.56 2.58 6.43 3.39 6.79 3.16 5.26.58 1.64.12 1.4-.35 2.22-.7 1.88-.7 1.28-.47 1.05-.35 2.93.11 1.29.35 1.63.47 1.87.47 3.28-.12 2.46-.58 1.63-.59 2.93-.82 2.92-.35 2.58v8.53l-.11.82-.59.59-.58.35-.94.35-1.05.47-1.05.7-.94 1.17-.35 1.75-1.99 6.2-1.4 3.04-.12 1.88v3.04l.35 2.1-.47 4.8-.93 3.16-1.52 3.27v1.87l.7 3.98v1.87l-.82 1.99-.59.82-1.17.35-1.17-.12-1.28-.7-.94-.94-.58-3.39-.7-5.03-.12-2.45.58-1.88.47-2.33v-4.57l-.7-2.45-.7-2.22-.47-2.34-.12-1.41 1.06-5.5.81-1.98 1.17-1.64.24-1.52v-1.64l-.24-1.17-1.05-2.1-1.17-.94-3.16-2.69-1.17-1.29-.7-1.4.12-2.69-.12-1.29-.47-1.17-.35-.7-.23-.35-1.41-1.17-3.04-1.05-2.34.11-1.17.59-.35.58-.35 1.17-1.17 2.23-1.4 1.63-1.05 1.41-1.88 1.63-.81 1.17-.71 1.41-.93 3.39-.12 1.4.12 3.63v.35l-.24 3.98-.35 1.64-1.52 4.09-1.17 2.34-.47.35-1.98 1.17h-.94l-.7-.59-.12-1.05.94-4.79-.24-2.23-.11-.46-.24-.71-.58-1.52-.7-.7-.71-.47h-.7l-1.99.35-1.75.59-1.29.47-.58.46-1.06 1.17-1.63 2.93-1.06-.12-.7-1.4-.82-2.11-1.4-8.07-.35-1.05-1.06-2.22-.93-1.06-.94-.81-1.75-1.17-.94-.36-1.28-.35-1.41-.11-.11.11-1.53.12-1.28.7-1.29 1.64-1.64 2.57-1.63 5.38-.47 3.16-.35 3.75-.82 2.22-.94 2.1-2.69 2.34-3.98 1.06-.93.11-1.99.82-1.52.7-1.4 1.17-1.53 1.99-.46 1.05-.94 2.58-.35 1.87-.12 5.26-.93 3.51-1.29 2.34-.82 1.64v1.64l-.23 1.63-.12 2.34-.12 1.41-.46.35-.59-.12-1.52-.82-3.51-1.64-1.87-1.05-2.11-.82-1.28-1.05-2.34-4.8-1.17-4.32-.35-.71-1.99-.35-.47.12-.47.35-.7 1.87-.35 2.69-.7 1.64-.94.82-.82 1.87-1.05 2.57-.7 2.58-.24 4.33-1.05 6.19-.12 1.06-1.4 5.14-1.17 7.26-1.87 5.14-1.64 5.03-.93 3.75-2.46 5.26-5.97 12.98-2.22 3.51-.7.82-.47 1.17-.12.35-1.28 2.57-.82 1.29-.7.7-1.41.59-8.89 23.98.82.23 1.29.35 1.05.82.7.82 2.11 3.74 1.75 4.45.35 1.4-.35 3.86-.82 2.22-1.75 2.58-3.39 4.56-.59 1.05-.7 1.4-.82 1.41-.35 1.4-.12 1.4.24 1.64.35 1.64.23 1.05-.23 1.05-1.64 1.76-1.64 2.1-.7.71-.58.7-1.06 2.1-.58.82-1.05 2.11-.36 1.17-.35 2.69v1.28l.35 1.53-.23 1.75-3.27 11.11-4.8 14.62-.7 2.34-2.34 7.14-9.36 28.89-11.81 39.53 6.08 24.92.7.23.7.59.35.93.59 2.11 1.75 2.34 1.05.82.94.58.82.24h.82l1.29-.71.58-.58.47-.82.58-1.64.24-1.87 4.56-10.53 1.05-3.39.7-3.16-.11-3.86.23-3.51.23-2.8.59-3.51 1.4-4.45 1.06-2.57.11-.23 1.06-1.76 4.09-5.61 1.75-1.52 1.76-1.41 2.92-.82.82-.46.82-.82.12-.35 1.99-5.62.82-1.28.81-.59.94-.47 2.57.24 1.76-.35 1.52-.59.58-.82.24-1.05v-2.57l-.7-5.62.23-1.75.7-1.99 1.99-4.8 2.11-3.62 1.75-1.76 2.69-1.52 2.46-1.05 2.92-.35 1.64.23 3.28 1.52 2.57 1.06.7.35.35.82.24 1.05v1.64l-2.34 1.52-6.32 6.08-1.05 1.52-1.06 2.1-2.1 2.23-.7 1.99-.71 1.87-.23 2.8v1.99l-1.05 2.22-.24 2.23.24 1.75.7 1.05 2.69 1.06 1.05 1.75 1.87 6.08.59 2.93.7.82.82.46 1.05-.58.94-.7.58-.7.82-.12 1.29.82.94-.12.7-.35.23-.82-.35-4.33-.58-1.98-1.06-2.58-.11-1.75.23-4.68.35-1.17.7-1.17.12-1.17-.7-3.98-.35-3.86.11-2.22.35-2.11.82-2.33.82-1.41.59-1.52.7-1.17.82-.35.93.35.59.94.7 3.62.7 2.93 1.41 2.8 1.98 2.11 2.34 1.64 2.23 1.28 2.57 1.99 1.87 1.64 1.64.59 3.16-.24 1.52-.82 1.17-1.52.47-1.17.11-1.17-.35-2.1-1.05-1.99-1.4-1.52-3.28-.82-1.05-.94-1.76-2.69-.35-1.52v-1.75l.12-2.34.82-1.76.82-4.32.23-3.28-.23-1.75-.82-2.34-1.05-1.87-2.93-3.28-1.29-1.29-1.75-1.17-1.29-.46-1.52-.35-1.28.23-.71.47-.46.58-.36.94-.46.7-.47.35-.47.23-.7-.23-.47-.23-.35-.47-.47-1.05-.35-1.41v-1.52l.59-1.52.93-.93 1.05-.94 1.17-.82 2.46-1.4 1.52-1.06 2.58-1.98.35-.24 1.05-.47 1.05-.11.82-.35.47-.12.93-.7.71-.94 1.05-1.87.47-1.75.93-6.32.47-4.21-.12-2.81-.58-2.92-2.22-2.81-1.41-1.05-1.87-.94-1.64-.12-2.34.24-1.05.35-1.4.82-1.17 1.4-.7.12-.36-.47-.11-.93v-.71l.93-1.28.35-.94.12-.7v-.59l-.12-.7-.23-1.17-1.17-1.87-.7-.35h-.94l-.82.23-1.98 1.17-.94.71-1.76 1.87-1.05.82-1.4.46-2.11-1.28-2.92-3.39-1.05-1.88-.59-1.4-1.17-2.92-.58-1.99-.24-3.51v-1.17l.35-1.17.24-1.29v-2.34l-.35-1.87-1.17-3.62-.94-2.69-.94-1.53-.7-2.69-.23-3.04-.35-2.8-1.76-4.1-3.39-5.96-2.46-5.62-.46-1.4.11-.47.24-.58.7-.24h.82l2.57.7 1.64.82 1.05.35.94-.23.7-.35.82-1.17 1.52-3.51 2.69-4.56 6.2-10.18.35-1.05 2.57-7.02 1.88-7.25 1.17-3.63.23-.46.47-.71.58-.7.35-.58.47-.47.59-.12.81.12 1.53 1.75 1.75 3.63 3.16 8.07 1.87 4.21 1.64 3.74 2.1 3.75 1.87 3.04.47 1.28-.11 1.06-.47.47-.94 1.63-.93 2.34-.94 3.86-2.22 12.99-1.41 3.04-1.98 3.16-.24 1.75.7 6.08 1.06 4.68 1.17 2.81 1.17 2.1 2.69 2.81.58.47.59.12.7-.36.23-.7.12-.82-.59-2.34-.46-.81-2.58-1.76-.7-.7-.47-1.17-.11-1.64v-2.1l.23-2.93.7-2.57.59-4.09.23-1.41 1.05-5.03 1.29-7.6 2.46-10.18.82-1.99.93-.23 1.64.12 2.22.82 2.69 1.63 4.56 3.63 1.17.7.82.7 1.41 1.41.93 1.4.82 2.46.12 3.27.23 3.75 1.17 6.08.94 4.68.35 4.68.47 3.5v3.75l-1.76 5.61-2.45 8.42v.59l-.12 4.09-1.17 4.8-4.21 11.23-2.23 4.44-.35 1.29.12 1.4.23.47.82.58 3.86.71 1.41-.24 1.64-1.99.81-2.34.82-1.52.94-.93 1.05-.59 1.05-.23h1.06l1.52.94 1.4 1.63 1.64 1.99.7 2.11.24 2.92-1.29 5.15-1.64 3.51-2.69 7.48-.7 2.69-.24 2.58.12 1.4.47 2.34h.82l.47-.59.23-.7.12-.93-.12-1.29.12-1.64.35-1.52 3.16-7.6 1.05-.82 1.52-.58 1.4.35 1.41.11.93-.23.47-.7-.12-.82-.46-.47-1.52-1.29-.71-.7-.35-1.05-.11-1.17 2.1-1.4 1.17-1.06v-1.75l-1.99-4.21-.47-.82-.46-1.64.35-1.05 2.57-1.29.94-.93 1.05-1.64.12-.82-.47-1.17-1.29-.82-4.68-.93-1.4-1.41-1.05-2.57-3.75-7.25-.58-1.64-.35-3.51.11-.23.36-1.64 1.52-1.64 1.4-1.87.7-1.29.35-1.28.24-1.52-.24-1.99-.82-1.87-.82-2.69.36-2.58.7-2.57 1.87-1.64.7-1.4.24-1.41-.36-1.75-.7-1.75-.82-1.29-.82-.7-1.05-.35-1.99-1.76-1.05-2.45-.82-6.44-.93-2.34-1.99-3.86-.94-1.99-.12-1.17.36-1.05 1.05-.93 2.69-2.81.93-1.17.94-.59.82.12 1.17.47 5.73 4.56 2.22 2.46 1.29.58 1.05.12 1.06.23.58.94.12.93-.7 2.11v.94l.35 1.52.35.93.82.94 1.05.47h1.75l3.98-1.52 4.8-.47 1.99-.82 1.98-1.05.71-.59 1.05-.47h.82l1.28.12 1.64-.12h3.51l1.87.24.94.46 2.1.94 1.76.47h1.29l1.28-.24.7-.7.82-.82.35-.7 1.17-3.04 3.51-4.09 1.76-1.64.47-1.4.23-1.64-.23-1.41-.71-1.52-3.62-3.97-.94-.59-1.64-.93-1.87-.24-1.4-.35-.59-.35-.46-.82v-1.28l.35-1.06.7-.93.82-1.87.23-1.76-.23-.7-.59-.59-2.69-1.4-2.57-1.52-2.57-2.11-5.39-5.26-1.17-1.87-.46-2.92.11-2.23.35-2.8.94-2.58 1.52-3.16 2.81-3.39 1.64-.93 1.52-.12 1.05 1.05 1.64 5.15.82 1.52 2.22 1.4 3.04 1.29 5.62 1.64 1.87-.59 2.1-.82 2.34-1.75 1.17-1.99 2.34-5.5 1.17-1.63.7-1.41.82-1.17.59-1.64.7-2.69.23-1.63-.11-2.69.35-6.79.35-2.22.23-.59.47-1.63 1.05-1.87.35-4.22-.11-2.92.7-3.98.23-2.1 1.41-5.15.23-1.52v-4.21l.23-1.4 2.69-5.73 3.75-5.5 1.52-1.64.82-1.75.35-1.41.23-3.86-.23-1.87v-2.22l.12-1.41.46-1.52 1.06-2.57.58-3.04.12-2.69-.7-6.32-.12-2.22v-1.87l.23-1.76 2.46-4.32.7-2.46.12-3.74-1.99-6.79-1.4-2.69-3.4-5.73-3.74-7.02-.94-1.75-2.57-5.38-1.99-3.63-1.05-.93-1.05-.47-6.67-1.41-11.35-1.28-.7-.82.23-.35 6.2-3.04 6.2-2.34 6.67-1.76 11.7-2.34 8.54-2.22 7.6-2.34 3.98-1.4 2.34-1.05 1.75-1.17 1.29-1.06 2.69-3.15.94-1.99.82-3.51.7-4.68-.59-6.08-.47-3.04-.11-1.29.23-1.05.35-.47.35-.12 1.06 1.17 1.28 1.17h1.06l.7-.58.58-.71v-2.1l.35-2.22.35-1.41 1.17-2.1 1.06-1.17 1.64-.94 2.92-.47 5.03 1.06 2.46.11 1.05-.58.82-.7.47-1.17.81-3.16.71-4.21.93-6.9.82-3.16 1.99-6.67 1.4-1.87 1.29-1.52.82-1.4.58-1.99.12-1.52-.35-1.99-.35-3.51.23-2.57.24-1.06 1.28-2.69 4.8-7.48 4.56-9.13 1.64-5.49 2.92-6.32 1.99-3.51 1.41-.94 1.75-.35 3.28.12.93-.12.94-.35 1.17-.93.7-.82 1.29-1.29 1.28-.93 3.51-1.17 12.17-2.81 7.13-2.46h1.41l.82.24 1.99 1.75 16.96 12.52 6.66 4.79.24.35.12.59-.12.47-2.34.58-2.93.7-8.42 6.55-5.14 6.2-13.57 14.16-16.5 17.54-2.57 2.46-2.34 3.04-2.69 2.92-2.58 3.98-1.63 3.98-3.16 7.01-9.83 20.82-4.21 9.48-3.39 8.42-5.97 11.35-3.97 5.96-1.88 4.21-.46 1.29-6.32 16.14-4.21 8.07-3.75 10.3-4.21 14.97-3.74 12.28-.82 4.09-1.87 17.67-.94 2.92-5.49 16.96-2.23 7.02-1.99 9.01-2.45 10.76-1.52 8.77-1.99 9.71-5.03 18.6-.35 4.21-1.52 6.78-3.16 10.29-3.16 7.84-2.81 7.6-1.52 6.09-2.34 14.03.12 5.03-.12.35-1.63 4.8-.82 2.81-4.1 16.25-1.64 4.8-1.52 6.08-1.17 6.08-1.17 3.05-3.04 7.25-.93 4.09-.94 5.97-3.27 18.13-2.11 8.42-.7 4.68-.59 4.56-5.49 19.65-1.64 7.84-.35 1.75-2.23 14.97-1.05 5.5-3.98 20.7-3.97 22-.12 2.22.12 2.8.23 2.23.7 3.39.12 2.69-.7 3.16-1.64 5.73-5.5 33.22-4.91 38.83-1.17 9.24-.12 3.75.47 6.66-3.16 23.63-.93 11.23-.36 3.98-.11 5.38-.24 2.34-.81 3.27-.47 2.93-.35 3.15-.24.47-.35.24-.12.35-.7 4.79-.82 3.51-.82 7.6-.81 6.32-.24 1.87-.23 1.64-1.41 3.74-.23 1.17-.47 5.15-.11 2.81-.12 1.52-3.39 17.43-6.32 35.2-.7 2.46-4.8 24.33-1.99 9.01-3.04 17.42-.93 4.45-1.29 6.78v1.64l.12 2.81-.94 4.33-.47 3.04-.82 3.97-.7 3.51-.23 1.17-.24 2.34-.23 1.76-.23 1.05-.47 1.75-1.29 8.42-1.17 5.39-.47 4.91-.82 4.91-2.1 10.29-.7 2.46-1.29 6.08-2.46 12.4-.82 6.32-1.4 7.25-.7 3.04-5.85 27.37-3.74 21.87-2.93 8.78-.11 1.17v2.57l-.24 5.03-.23 1.64-.35 1.52-1.88 5.96-1.75 8.78-1.75 9.35-1.29 7.72-3.63 17.2-2.1 7.48-.24 1.29.12 1.29-.23 1.28-.24 1.64-.7 1.99-.35 1.87-.23 2.11v1.75l-.82 6.43-1.52 8.54-1.29 8.07-1.64 9.95-1.29 8.54-2.34 12.98-1.63 6.08-.47 2.57-.47 3.63-1.75 16.96v2.81l-.71 6.43-.11 4.33-1.52 6.43-.24 1.76-.82 3.62-.93 2.81-.7 1.52-3.4 5.5-1.05 2.22-1.29 3.98-.93 1.87-2.22 5.97-.71 1.4-1.63 2.34-.59.82-1.05.58-2.46.82-1.99.35-2.8.24h-2.81l-5.73-.24-2.69.47h-2.23l-9.35 1.64-2.11.35-1.52-.12-1.52.23-2.34.82-4.33 2.34-9.12 5.62-4.57 3.51-2.1 2.69-2.57 3.04-2.7 2.69-2.22 3.04-.7.35-.82-.12-2.92-1.52-2.46-1.99-1.17-1.4-3.51 24.1-16.26 8.65.82 18.13-.47 16.73.35 9.24-1.52 9.01-.11.81 1.05 5.74-.12 4.21-.7 24.91-.47 12.87 1.05 4.33-1.17 49.71-.93 3.27-.59 20.24v.82l-.23 5.26-.23 11.11-.47 17.08.58 2.11v7.83l-12.16 12.63-5.27 5.39-.58.46-.7.59-13.81 5.61-3.51-.7-3.04 1.05 1.06 4.1-1.76.58-1.4 2.11-4.57-.24-6.08 4.1-7.95 4.09-10.65 7.25-9.01 7.14z" stroke-linejoin="round"/></defs><use xlink:href="#e" fill="#9dc8ca" stroke="#9dd7f0" stroke-width="5.76"/><defs><path id="f" d="M2029.22 2308.38l-1.87-.59-1.06-.7-.93-1.05-.82-1.29-.82-3.74-1.05-4.09-2.34-3.98-4.56-7.96-1.29-2.8-.23-1.17-.36-1.64-.46-4.68-.24-12.4-.23-3.97.23-1.41.47-.82.82-.58 1.99-.47h1.28l1.88.7 2.22.82 1.52 1.05.12.12.46.59 2.46 3.74 1.05 1.4.82 1.52.24 1.52-.24 2.11-.58 1.99.11 1.99.24 2.69.82 2.22 1.05 3.98.94 5.38.82 3.15 1.52 3.16 3.15 3.51.47 1.05.24 1.52-.12.94-.47 1.64-.93 2.22-1.06 1.4-1.4.94-1.64 1.29-2.22.7z" stroke-linejoin="round"/></defs><use xlink:href="#f" fill="#9dc8ca" stroke="#9dd7f0" stroke-width="5.76"/><defs><path id="g" d="M2169.01 2069.88l-1.99 1.52-1.41-.23-.35-1.41 6.91-20 2.69-22.57-2.93-5.85-4.56-17.55 1.99-10.64v-16.61l4.79-7.49 2.81-5.85 4.8-5.03 4.09-4.79-2.22-12.4.58-1.4 1.17-.82 1.06-.35 1.52.11 10.41 5.15 1.52 4.44-4.09 11-2.81 15.21 3.74 21.28-2.46 7.14-5.03 5.61-13.21 58.6-7.02 2.93z" stroke-linejoin="round"/></defs><use xlink:href="#g" fill="#9dc8ca" stroke="#9dd7f0" stroke-width="5.76"/><defs><path id="h" d="M1048.01 2101.58l-.71.11-1.28.24 2.92-9.36.59-1.52-1.06-2.57-1.52-4.8-2.57-9.24-3.04-12.63-.47-1.87-1.4-3.4-1.06-2.8-5.84-8.78-23.75-5.49-10.76-3.98-18.6-5.03-10.53.7-10.18-8.89 9.59 34.51.94 2.69.82 43.39-5.03-23.39-.12-.7-1.4-13.8-1.87-7.02-3.75-13.92-11.69-26.9-7.61-3.63-12.51-6.2-4.57-4.79-.11-.24-.12-.35v-.12l.12-.11-.12-.24-.35.12-.24-.12-.11-.23v-.24l.11-.23.24-.35.23-.23.24-.24v-.35l-.24-.23v-.24l.12-.35-.12-.35-.11-.12-.12.12h-.24l-.11-.23-.12-.24v-.11l-.12-.94v-.12l.12-.11v-.35l-.12-.36v-.11l-.11-.35-.12-.47-.12-.23-.11-.12-.12-.7-.24-.82v-.35l-.11-.35-.12-.36-.23-.23h-.24l-.11-.12.11-.23-.11-.47-.12-.11-.12-.71.12-.23-.12-.23.12-.24-.12-.23.12-.12-.12-.47v-.35l-.12-.23-.23-.24v-.46l-.23-.12-.12-.47-.35-.58-.23-.82-.12-.35-.12-.12-.12-.12-.11-.11-.12-.36-.23-.23v-.23l-.24-.47.12-.47-.12-.23v-.35l-.23-1.88-.12-.93-.23-.23h-.7l-.24.11-.23.35-.12-.11h-.35l-.12-.12.24-.23.23-.12.47-.35.35-.35v-.24l-.12-.23.12-.24h.23l.24-.11-.12-.12-.23-.12-.12-.23-.23-.12.11-.11.24-.24v-.23h-.35v-.35h.23l.23-.24v-.23l-.23-1.05-.12-.24-.11-.47v-.35l-.12-.7v-.82l.12-.11-.12-.35.12-.12.11-.12-.23-.12-.24-.11v-1.52l.24-.71v-.23l-.47-1.52-.47-1.75-.82-.47v-.35l.12-.24.59-.35-.12-.7.12-.12v-.35h.11v-.82l-.11-.35-.24-.35-.12-.47-.11-.11-.12-.35-.12-.47-.11-.47-.12-.35-.23-.7v-1.17l.11-.35h.24v-.47l-.24-.23-.11-.24.11-.23.24-.12v-.23l-.35-.24-.12-.11.47-.24.11-.23v-.35l-.11-.24-.12-.23v-.23l-.12-.59.24-.23v-.35l.11-.12.24-.12-.24-.93-.23.11-.12-.82-.11-.23.11-.12.12-.11h.12v-1.06l.11-.46v-.47l-.11-.24-.12-.46v-.12l.12-.24-.12-.23-.12-.12.24-.23.11-.47.24-.7-.12-.47.23-.11v-1.06l.12-.23v-.59l-.12-.35-.23-.58v-.59l-.12-.35.24-.23-.12-.24h-.23l-.24-.7.24-.23v-.35l.11-.47.24-.58v-.47l-.12-.35-.12-.12h-.23v-.47l-.12-.23v-.47l.24-.12.11-.23-.11-.59.11-.23.12-.12v-.7l-.12-.12-.11-.81-.12-.47-.23-.47.23-.82v-1.05l-.23-.35-.24-.35v-.24l.12-.11v-.24l.12-.12.46-.11.12-.12-.12-.7-.23-.35-.23-.35-.12-.47-.12-.23-.23-.12v-.35l.11-.24-.35-1.05.12-.23v-.35l.12-.12v-.7l-.35-.24-.24-1.17h-.23l-.23-.11-.24-.71-.12-.35-.11-.23-.35.12-.12-.47.12-.47-.12-.35-.12-.12-.35-.7v-.7l-.23-.23-.12-.59-.12-.12-.11-.11.23-.94-.35-1.17-.23-.7-.24-.59-.12-.35.47-.11.12-.47-.35-.47-.12-.23h-.23l-.12-.7.12-.24.35-.23.47-.12-.12-.47.12-.35-.12-.82v-.93l-.12-.35.12-.24-.12-.23-.35.12-.23-.12v-.47l-.35-.35.35-.23v-.36h-.47v-.23l.58-.35v-.23l.24-.24.35-.11h.35v-.94l-.23-.7h-.24l-.11-.35.23-.12v-.23l.12-.47v-.47l-.12-.7-.23-.12-.36.12-.11-.24-.24-.11-.23-.24.23-.23-.11-.23h-.24v-.36l.12-.35.12-.35-.12-.58.12-.47.23-.12-.12-.46v-2.11l-.23-.59-.12-.23.35.12h.59l.12-.24v-.23l-.24-.7-.23-.24-.24.12-.23-.12v-.35l.12-.23-.12-.35.23-.12.12-.47-.23-.23.11-.23h.24v-.24l-.12-.47.12-.11-.24-.82-.23-.94-.12-.35v-.35l.12-.35v-.82l-.23-.58.11-.24.12-.23v-.47l-.12-.35.12-.47-.35-.7-.12-.47-.12-.23.12-.47-.12-.82v-1.05l-.11-.35-.12-.47.23-.35.24-.23-.12-.36.12-.35.23-.46.12-.59-.12-.58-.23-.59-.24-.35-.58-.35-.58-1.05.11-.71.24-.58.35-.47.11-.58.24-.12.11-1.4-.11-1.41.23-.47-.12-.58.12-.58.12-.47.12-.94.11-.82v-.35l-.11-.47v-1.28l.46-.7v-.59l.24-.47.11-.7v-.82l-.46-.47-.59-.35-.23-.23-.12-.12v-.47l.23-.46v-.35l-.11-.71.7-.58.23-.59.24-.23.23-.12.24-.11v-.59l-.24-.93.12-.59v-.7l.12-.59-.12-.23-.12-.23-.23-.59v-.35l-.12-.35v-.35l-.47-.12-.47-.23-.11-.12.35-.7.12-.35.23-.82.12-.94v-.93l.11-.35.24-.24.23.12.24.23.35-.11.35-.24.11-.35.12-.47.24-.35.23-.46.35-1.88-.12-.11v-.35l.12-.24.12-.58-.35-1.06-.35-.46.11-.24.7-.35.59-.35.47-1.05v-.47l.11-.82h.35l.24-.23-.24-.24v-.23l.24-.47.12-.82v-.82l.23-1.4v-.7l-.23-.35.11-.47v-.23l.35-.94v-.47l.24-.93-.12-.82-.12-1.05.12-.47v-1.52h-.23v-.24l.23-.23.23-.12.12-1.28-.12-.47.12-.24v-.93l.12-.82.12-1.29.23-1.05v-1.17l.23-.35.12-.59-.12-.46-.23-.47v-.59l.47-.35.35-.11.12-.35.11-.71.35-.23.24-.35v-1.05l.23-.12.12-.59-.24-.58-.23-.82-.47-1.29-.23-1.17.12-1.4.23-.94.12-.81.11-.82.35-1.87v-1.17l-.11-1.52.11-1.41.24-1.75.35-1.99-.23-1.52-.36-.94.12-.47.82-.46.12-2.46-.12-1.4.35-2.23v-.58l-.23-.59-.24-.46.24-.47v-1.99l.35-.35.12-2.92-.12-1.06.23-1.52-.11-.35.11-1.05.24-.59v-1.05l.35-.94-.35-.7.35-.82v-2.1l-.12-2.69-.35-2.22-.12-1.64-.11-.82-.12-1.4v-1.06l.23-.93.59-1.99.23-1.64v-2.22l.23-.7.24-.47-.12-.35-.12-.47.24-.35.47-.35v-.47l-.12-.35-.23-.47-.12-.82-.12-.35v-.7l.35-1.17.24-1.99v-1.52l-.35-.93v-1.06l-.12-1.52-.24-.7v-1.64l.36-.7.46-.93.47-.59 1.05-1.4.36-.59v-.82l-.12-5.14v-8.78l.12-3.27.11-1.05 1.17-2.93.24-2.1 1.17-6.55.11-1.64-.11-.47-.36-.23-.7-.12-.7-.35-1.05-.12-1.05-.47-.71-.11-.46-.24-.24-.35-.12-.58.12-.82.35-.59-.35-.46-.7-.35-.35-.82-.12-.59.12-.47.35-.81.23-.82.47-1.87.24-1.06.11-.58.12-.47.58-.35.59-.12.94.12.11-.35-.23-.35-.94.11-.7-.35-.12-.7.12-.23-.12-.24-.11-.35.11-.35.35-.12v-.46l.24-.71.12-.23.23-.23.35-.7 1.17-.82.35-.24.35-.23-.11-.24.7-.46v-.71l-.24-.35-.23-1.17v-.7l.23-.7.35-1.75-.23-1.52.23-.12h.47l.24.47.35-.12.46-.7-.35-.12-.11-.47.23-.7h.47l.7-.23.35-.35v-.71l.47-.81.12-1.17-.12-.82.23-.7.59-.36-.12-.35-.35-.11-.23-.24-.12-.23-1.05-.24-.35-.46-.36.11-.35-.11-.11-.94-.24-.35-.35-.35v-.35l.12-.12h.58l.71-.23.93-.24.7.24h.59l.12-.12-.12-.23-.94-.24h-.7l-.94-.35-.11-.35v-.82l.47-.23.58-.24.7-.11.12-.35 1.17-.12v-.35l-.23-.12-.12-.23-.35-.12-.35-.12-.24-.23-.23-.82-.12-1.17h1.05l-.11-.35.11-.23-.11-.24-.24-.11.12-.47.35-.24v-.23l-.23-.47-.12-.47.23-.35-.11-.35.11-.35-.23-.58v-.71l-.23-.46h-.24l-.11-.47-.12-.35v-.82l.12-.23.81-.24.24-.12.12-.35v-.23l.23-.12h.35l.12.47.23.12.23-.12.12-.23.12-.47.12-.7.23-.24.12-.35-.24-.12h-.23l-.24.24-.35.12h-.11l-.12-.47-.12-.35-.11-.47v-.23l.11-.12-.11-.59.23-.11.23-.24h.47l.12.35h.23l.12-.23.12-.23.23-.47-.23-.47h-.35l.11-.35.12-.24.35-.23.12-.12-.12-.23h-.47l-.23-.23-.24.11-.35-.35h-.23l-.23-.23-.24-.12-.23-.12-.24-.35-.11-.11-.12-.35-12.87 3.39-10.88 1.75-6.55-23.63-28.77 6.32-5.85-5.5-1.41-1.4-.93-1.17-5.85-7.6-.47-.59-.47-.35-16.49-20.94 19.89-10.17 23.39-13.57-5.26-5.5-2.93-2.45-7.37-3.63-6.2-5.38-3.39-3.51-11-8.31-2.69-.93-4.91-1.52-1.4.12-8.07 1.28-7.02 4.45-5.73 3.97-5.85 4.21-8.19 4.8-8.31-3.51-1.4-.23-1.4-.24-27.38 3.04-1.52-.58-1.05-1.29-11.11-16.02 9.24-22.11 20-26.67-1.75-18.95-30.77-28.89-18.01 9.48-7.37 41.05-9.71 15.09-22.93-20.82-17.31-43.39-21.53-36.73-16.14-37.55-15.68-6.55-41.05 29.48-7.37-2.93-12.99-5.14-.12-.12-15.32-23.39 2.81-31.94-4.1-40-35.68-21.99-70.77 7.6-16.84-1.52-4.1-2.34-4.56-4.68-3.04-6.31-1.52-10.88-.47-2.69 10.76-20.59 2.46-3.62 6.55-7.14 9.59-8.77 29.6-11 11.11-5.61 4.8-4.33.35-.35 5.96-5.26 5.5-11 1.29-5.85.58-7.48-.58-8.42-3.39-10.53-8.66-10.76-8.3-6.44-12.52-4.79-18.37-2.11-13.45 1.52-5.5.59-10.53 4.79-9.82 7.84-6.9 10.76-22.11 32.87-7.96 3.28-6.2-2.93-6.9-7.49v-11.34l.12-48.78-15.09-22.81-18.95-12.75-55.92 16.61-16.37-8.77-10.3-26.43 2.69-116.15-16.14-54.39 1.52-60.13 1.4-4.91.71-2.45 1.28-3.16 2.11-3.98 2.81-5.26.7-.59 6.2-5.5 7.6-5.03 8.89-5.96 7.96-6.55 1.75-1.52 1.87-5.73 1.64-4.33 1.17-5.73.23-7.02-.7-6.55-2.1-10.18-1.88-7.13-5.38-9.71-7.25-10.18-.7-.82-7.25-5.49-7.14-5.03-8.42-2.58-8.31-.7-5.85.59-6.08.35-7.95 1.87-7.61 2.46-5.38 1.87-6.2 3.04-6.32 5.26-6.78 7.25-7.49 8.31-9 13.68-5.85 10.18-18.84 21.64-3.39 3.16-5.73 3.27-5.5 2.11-5.73.93-6.32-.46h-.11l-2.11-.24-1.52-.23-3.74-1.99-5.74-5.03-3.39-5.15v-.11l-3.16-4.57-1.75-5.73.7-2.8.23-5.03v-7.61l-.11-8.89.23-3.51.94-5.73.47-3.97 1.05-5.38.82-7.96.93-7.48v-3.63l-.58-3.16-1.17-6.78-.82-5.15-1.52-7.6-2.22-6.08-3.63-8.78-4.91-8.42L62 632.8l-4.45-3.16-5.96-5.96-4.56-2.23-4.68-2.33-5.03-2.34-4.8-1.52-4.33-1.17 15.33-5.97 118.14-45.5 60.25-23.51 11.58-4.91 10.88-4.33 3.16-1.29-1.53-1.87 3.98-1.75 1.52-.59.24-1.17.82-.7.81-.59.82-.35 1.64-.35 8.89-2.1 68.67-28.78 4.33-5.26.81-.94.12-.11 9.83.11 9.71-.23 9.71-5.03 16.72-15.32 16.03-13.45 6.43-3.28 5.74-4.56 8.65-4.8 7.25-1.52 8.31 1.64 7.6 2.69 6.44 6.43 3.97 13.81-.93 26.78-.35 14.86.93 4.44 7.49 21.64 6.55 7.02 11.93 8.3 15.33 6.09 20.23 5.14 16.38 5.73 14.16 6.09 18.48 9.59 23.04 14.62 8.19 4.56 20.24 6.43 1.52.47 21.41 4.45 6.08 2.1 16.84 3.39 11.94 3.63 12.16 8.66 9.71 7.95 2.81 3.39 6.31 7.61 13.93 14.38 6.55 21.64 3.27.12 8.07.23-.11 5.73-.71 3.51-.93 2.69-1.41 2.58-2.22 3.15-.58 2.23-.35 1.75-1.06 1.87-.7.94-2.57 3.04-1.29 1.87-1.29 2.57-1.4 2.46-1.75 2.69-.94 2.69-.94 2.58-.23 2.22v3.04l-.12 1.52-1.4 5.85-2.34 9.59-.12 1.87.35 2.92.35 1.88.36 2.34-.12 1.98-.24 2.23-.81 3.39-.82 5.85-.82 14.5-.24 6.55.36 4.1v1.17l.46 4.79.71 4.45 1.52 6.66.46 1.64 2.58 9.01 1.05 4.79 1.4 3.63.82 1.17.12.35 2.57 3.04 1.76 1.4 1.4.82.82.24 1.29.46 2.57.94 2.81 1.4 2.92 1.64 3.75 3.04 5.61 4.8 3.28 3.16 4.56 4.79 5.5 6.67 1.98 3.16 5.15 9 2.11 2.93 1.75 3.27 1.29 1.99.47.7 2.92 4.8 1.87 3.27 2.69 6.44 1.76 5.61 1.64 6.2.11 2.93.12 1.75-.35 2.81-.94 3.51-.93 2.22-2.11 3.86-7.6 12.05-5.03 6.55-.35.35-1.29 1.64-5.38 6.55-10.18 11.34-4.56 5.5-3.04 4.44-2.69 5.15-1.87 4.56-1.76 5.27-.93 4.21-.59 4.21-.12 3.62.12 4.8.35 2.22.35 1.29.7 1.4 1.41 1.29 1.99 1.29 4.79 2.22 3.63 1.17 2.34.23 6.32-.11 7.95-.82 5.73-.24 2.34-.11 6.9-.12 4.92-.47 2.92-.47 1.29.12.82.47 1.05.82 1.75-2.81 1.41-3.16.7-2.69.58-1.4.71-1.52 1.28-1.64 1.41-.7 1.4.23 1.99 1.17 7.25 6.9 2.69 1.41 1.87.23 1.76-.59 1.4-1.05.94-1.4 1.52-4.8 1.29-4.09 1.52-2.34 2.22-1.64 1.99-.58h.58l2.23-.12 2.92.12h1.4l4.21-.24 6.44-1.28 2.46-1.17.81-1.29 1.17-2.57.35-1.29 1.41-4.44.93-3.05.82-1.63 2.46-5.15 3.04-5.5 2.11-2.69 1.52-1.64.47-.46 2.92-1.76 1.99-.7 1.17-.12.93-.11 1.06-.24 1.99-1.17 1.98-3.04 1.64-1.87 1.29-.35.93.47.71.7.35 1.05-.7 4.21-.12 1.99.12.94.46 1.17.94.81 1.17.24.82-.47.7-.58.58-1.41 1.29-6.2 1.76-2.92 1.17-1.52.58-.82 2.34-2.34 2.22-1.05 2.23.11 2.92.59 3.28 1.64 2.22.93 2.81 1.17 1.05.35.58.12 1.29-.12 2.69-.82 3.74-1.05 8.19-2.69.94-.82.7-1.28.58-1.76 1.29-5.26.94-2.93 1.17-3.15.93-2.69.24-1.41.46-5.73.71-3.74.46-1.06.47-.7.94-.47 1.64-.35h.7l.82-.11 1.05-.12.82-.35 1.4-1.4.47-.82.12-.59v-3.86l.23-.93.35-.59.59-.35.46-.12 1.64-.11.59-.12 1.05-.7 1.29-2.22 1.4-3.4.7-1.05.24-.47.7-.93.7-1.76.82-1.17.82-.35 1.75.47 1.05.82 1.41 1.64 1.17.7.82.23.82-.12.46-.35.47-.7 1.99-3.86.23-.47.71-.58.58-.23.82-.24 1.29.12 2.92.7 2.11.23h.7l.7-.23.47-.35 2.1-2.69 1.52-1.29 3.16-1.4 11-.24 2.22-.81 1.87-.59.94-.35 2.81-1.17 1.05-.47.7-.47 1.41-1.05 1.28-.82 1.05-.58 1.76-.59 2.57-.93 9.48-3.28 14.04-5.14 4.67-1.52.82-.24 1.06-.23.93-.12.94.12 1.64.23.93.12h.47l.82-.24 1.29-.35 4.44-1.87 3.74-1.52h.47l.94 3.86.7 3.04 2.34 10.06 2.46 10.53 1.4 5.73 1.87-.47 11.93-3.62 1.41-.59 2.22-.82.7-.23 3.98-1.29-1.64-6.2-.23-1.52-.12-.47.23-.46.35-.47 1.29-.82 11.46-4.09 14.16-5.27 14.39-5.14 11.93-4.45 2.22-.82 24.57 24.21-3.63 14.16-1.05 4.33-.47 2.22-.94 3.62-.58 2.11-.82 3.98-.7 4.21-.94 4.68-.7 3.27-1.75 7.02-4.45 17.9-2.1 8.42-3.4 12.86-5.03 20.59-2.69 10.53-3.39 15.09-1.87 7.83-2.11 6.9-.46 1.76-2.93 12.16-.94 4.22-2.69 10.41-4.67 18.59-1.29 4.45-2.58 10.41-5.14 20.47-4.56 18.6-3.16 12.51-.7 3.39-.59 2.11-.47 1.05-.35.7-.58.71-.71.58-2.33 1.87 1.75 1.99 1.99 2.34 4.21 5.26 6.2 7.37 1.4 1.64 1.88 2.34.93 1.17 5.5 6.78 3.04 4.1 2.92 3.97 1.41 2.11 1.29 1.99 3.04 5.26 1.17 1.99.46 1.05.59.94 1.4 2.92 1.17 2.22.94 2.11.47.94-1.88.35-9.12 1.99-6.08-1.76-3.39.7-1.06 11.93-.7 2.69.12 1.64 3.04 15.91 2.22 10.64.24 1.52 1.05 5.62.93 2.81 1.17 5.03 1.17 4.79.94 3.98-1.52-.24-1.52.24-1.17.35-.7.47-.71.93-.35.94-.23 2.1-.12 6.09-.35 2.92-.35 1.4-.35.82-.47.7-.47.59-.81.23-1.17.24-1.41-.35-.7-.71-.58-.93v-.24l-.47-1.16-.12-2.34v-3.63l-.23-5.38-.24-2.22-.35-1.64-.35-1.4-.7-1.06-.82-.93-1.17-.24-1.29.47-.7.59-.23.35-1.29 3.04-.94 2.57-1.4 4.33-2.34 5.15-2.92 5.26-.7 1.4-.71 2.69.12 1.99.7 5.03.82 4.33-.47 1.64-.35.82-.23.35-.94.46-.58.24 1.4 3.98.59 1.16 1.4 1.99 1.87 1.76 1.17.7.7.58.7.82.47.59.24.93.46 1.88v.7l-.11.58-.35.47-1.52 1.17-2.69 1.87-.24.47v.23l-.12.24v.7l.12.47.59.58.58.24 2.34.46 1.05.24.59.11.7.71.35.81.24.94v.82l-.36 1.05-.46.94-3.51 5.14-4.92 8.43-1.75 3.04-.94 2.22-.23 1.29v1.28l.47 2.81.58 2.11 1.64 4.21.35.93.7 3.39.12 1.53-.35 3.04-.7.82-1.17.7-3.51 2.34-1.17 1.17-.35.81-.35.71-.12.93-.23 1.64.11 2.81.7 6.43.47 2.46.59 2.22 1.17 2.92 1.28 2.34.94 1.87.7 1.29 3.39 2.57 3.05 1.99 3.04 2.23 2.34.81 2.8.71 3.75.81 2.57.59 2.11.82 1.17.93 1.17.82 1.52 1.76 2.1 3.16 4.45 8.3 3.97 8.07 5.5 12.17.7 1.75.59 1.87.23 1.41-.7.35-.58.23-2.58 1.29-1.28.93-.94.7-.7.71-.59.7-.35.58-.47.82-1.28 2.46-1.41 2.57-3.62 7.37-1.87 3.98-1.88 3.97-.35.71-.11.23-.24.35-.35.35-.12.24-.46.23.82 2.92.93 3.51 1.17 3.98.7 1.99 1.64 5.85 1.76 6.43 3.5 12.63 2.58 9.01 1.17 4.21 4.44 15.32 2.69 9.36 1.41 4.91 1.28 4.57 2.93 9.94.82 3.04 1.17 4.21 2.1 7.13 1.41 4.8.82 2.81 1.98 6.9 4.1 14.39 4.09 14.15 4.21 14.62 4.1 14.27 1.17 4.09 1.17 3.98 1.87 6.55.82 2.93 1.99 6.78 1.17 4.44 2.57 8.89 4.91 17.08.82 3.04 1.29 4.45.7 2.34.94 3.04.46 1.87.82 2.57 5.03 17.67 1.41 5.02 3.27 11.35 1.06 4.09.7 3.05.46 2.22.71 3.04 1.17 5.73.58 2.69.12.94 1.75 10.17 1.29 7.84.23 1.52.35 2.57.47 2.93.7 3.39.59 3.04.47 2.22.11.59.47 1.75 1.17 4.57 1.17 4.44 1.29 4.44.7 2.11.35 1.05.47 1.41.35 1.05.12.47 1.05 3.04.7 1.75.59 1.41.82 2.22.93 2.22 1.64 3.86 2.1 4.68 1.99 4.8 3.16 6.66 2.11 5.15 1.52 3.39 2.22 4.8 1.4 3.39.94 1.99.59 1.4 2.45 5.38.12.35 1.99 4.68 1.4 2.93 1.4 3.15 1.64 3.63.59 1.52 4.21 9.59 2.1 4.92 2.23 5.02.11.36 1.76 3.86 1.29 2.92 1.4 3.16 1.4 3.04 1.64 3.51.59 1.4 2.8 5.62.94 2.1 2.69 5.38 2.22 4.33 1.87 3.86 2.46 4.8 1.75 3.5 2.81 5.62.24.47 6.2 12.51.93 1.99.7 1.41.47.93.7 1.17.71 1.05-1.06.59-3.04 1.4-7.02 3.28-9.01 4.21-1.28.58-4.1 1.99-4.68 2.22-12.04 5.62-12.75 6.08-7.96 3.63-4.21 1.87-3.04 1.28-3.51 1.41-1.87.7-2.69.94-2.11.7-.7.23-1.29.35-1.52.47-1.75.47-2.23.47-2.22.58-3.98.82-11.46 2.34-5.97 1.17-4.09.82-1.52.35-4.45.93-5.14 1.17-1.29.35-.93.24-5.39 1.17-13.21 2.69-11.12 2.22-14.15 2.93-10.3 1.98-10.41 2.11-7.13 1.4-10.41 2.11-9.95 1.99-3.27.7-6.2 1.17-1.76.23-8.42 1.76-1.75.35z" stroke-linejoin="round"/></defs><use xlink:href="#h" fill="#6bacaf" stroke="#6bb4d2" stroke-width="5.76"/><defs><path id="i" d="M2159.77 1560.13v1.17l-.94-.47-.47-.82-.47-.23-3.97-1.64-1.87-.82-2.11-1.17-1.05-.47-.59-.35-.7-.35-.58-.23-2.34-1.17-.82-1.29-.7-.35-1.99-.93-2.46-1.17-2.11-.94-9.12-3.86-.47-.23-.47-.12-1.17.23-1.05-.46-.47-.24-2.45-1.05-1.17-.47-1.87-.82-2.34-.93-.71-.24-.93-.23-1.52-.59-4.68-1.87-1.17.12-1.4-.47-4.57-1.64-4.21-1.98.59-1.53-1.76-.81-.7-.36-1.99-.7-2.34-.93-1.05-.47-1.52-.59-.24-.11-.7-.35-.11-.12-3.05-1.4-5.73-2.81-7.13-3.86-1.76-.94-10.41-5.26-1.87-1.05-1.52-.82-28.43-14.74-7.13-3.74-7.84-4.1-1.75-.93-7.37-3.75-5.85-3.04-13.46-6.66-.35-.24-2.22-1.17-1.75-.93-4.1-1.87-.35-.24.82-.82-7.02-3.16-1.05 1.06-8.31-4.33-3.62-1.87-.82-.47-1.06-.59-11.93-6.08-12.16-5.61-12.75-5.27-2.11-.81-3.16-1.17-3.97-1.52-4.57-1.64-10.52-3.86-8.78-3.51-25.73-9.94-6.2-2.46-9.95-3.74-.7-.82-.35-.12-1.75-.7-6.91-2.81-5.61-2.34-4.21-.82-3.28-1.4-12.75-4.91-1.64-.59-1.17-.46-6.66-2.7-1.76-.7-4.09-1.63-4.21-1.64-8.43-3.28-.35-.23-3.04-1.17-12.4-4.8-16.14-6.2-14.04-5.61v-.7l.12-.59.23-1.4.59-2.34.47-1.87 2.57-8.42 3.16-10.88 1.28-5.03 2.58-8.77.23-1.41.12-.93.12-1.41.11-1.87-.11-1.28-.12-1.17-.12-1.06-.11-.93-.24-1.06-.23-.93-.35-1.05-.24-.82-1.05 1.05-1.05.94-.71.23-.93-.35-1.29-.82-.82-1.05-.58-.94-5.27-8.77-1.75-3.28-.94-2.34-.35-1.52-.11-1.28.35-1.17.7-1.06.93-.46-3.86-5.85-.7-.94-7.72-12.05-3.16-4.79-5.03-7.72-7.48 5.96-5.38 4.1-10.06 7.72-3.28 2.57-9.47 7.14-.47 1.17-.47.46-1.05.82-10.06 7.72-1.76 1.17-3.39 2.69-1.52 1.06.12 1.17-.47 1.16 2.22 3.63-5.26 1.52 7.72 6.55-2.23.82-.7.23-8.54 3.98-1.28.94-1.06 1.05-.82 1.29-.58 1.52-.59 1.87-1.52 2.57-3.15-1.4-2.34-1.17-2.11-1.17-2.81-1.64-1.4-1.05-1.29-1.05-.23-.24-.35-.23-.24-.35-.11-.35-1.17.58-1.99 1.17-3.16 1.52-1.05.47-1.17.58-8.43 3.86-1.28.59-1.41.58-2.57 1.64-.58.24-4.68 1.98-2.58 1.06-1.4.7-5.97 2.57-.58.24-3.98 1.52-1.05.46-3.51 1.52-2.69 1.06-6.9 3.16-8.07 3.74-4.68 2.1-2.58 1.17-2.45.94-.82.35-3.39 1.52-1.99.82-2.81 1.29-3.63 1.63-3.86 2.58-.47-.7-.35.11-.58.35-.7.24-3.86 1.87h-.12l-1.05-.12-.59.35-.7.35.7 1.41-2.81-.59-2.57 1.17-5.03 2.11-1.29.58-9.59 4.1-2.34 1.05-4.21 1.87-.7.35-3.74 1.64-7.37 3.27-1.99.82-1.99.94-5.26 2.34-4.22 1.87-3.04 1.4-7.37 3.28-3.97 1.75-1.88.82-5.26 2.34-5.15 2.22-5.61 2.58-5.27 2.22-.35-.82-12.05 5.61-10.17 3.63-5.97-.12-1.17 2.23-12.87 3.97-9.59 1.29-21.64 16.14-6.9 1.87-16.61 7.49-6.08 2.57-6.09 2.58-5.96 2.33-5.27 1.76-1.75 2.69-5.15.94-1.99 1.98-12.4 3.86-20.12-.81-13.22 16.96-.46.7-6.67 2.8-1.29.47-9.24 4.1-11.46 5.03-4.1 1.75-7.95 3.63-5.15 2.22-9.47 4.09-2.69 1.29-3.63 1.4-4.8 1.87-.47-.81-.35-.82-.46-.7-.59-.47-.47-.35-.35-.12-.35.12-.47.11-.23.12-.94.35-13.45 6.43.82 2.11-2.92.94-3.51 1.05-8.89 2.69-1.76.58-10.88 3.16-12.4 3.98-12.87 4.09-3.5-12.63-1.76-6.43-1.64-5.85-.7-1.99-1.17-3.98-.93-3.51-.82-2.92.46-.23.12-.24.35-.35.24-.35.11-.23.35-.71 1.88-3.97 1.87-3.98 3.62-7.37 1.41-2.57 1.28-2.46.47-.82.35-.58.59-.7.7-.71.94-.7 1.28-.93 2.58-1.29.58-.23.7-.35-.23-1.41-.59-1.87-.7-1.75-5.5-12.17-3.97-8.07-4.45-8.3-2.1-3.16-1.52-1.76-1.17-.82-1.17-.93-2.11-.82-2.57-.59-3.75-.81-2.8-.71-2.34-.81-3.04-2.23-3.05-1.99-3.39-2.57-.7-1.29-.94-1.87-1.28-2.34-1.17-2.92-.59-2.22-.47-2.46-.7-6.43-.11-2.81.23-1.64.12-.93.35-.71.35-.81 1.17-1.17 3.51-2.34 1.17-.7.7-.82.35-3.04-.12-1.53-.7-3.39-.35-.93-1.64-4.21-.58-2.11-.47-2.81v-1.28l.23-1.29.94-2.22 1.75-3.04 4.92-8.43 3.51-5.14.46-.94.36-1.05v-.82l-.24-.94-.35-.81-.7-.71-.59-.11-1.05-.24-2.34-.46-.58-.24-.59-.58-.12-.47v-.7l.12-.24v-.23l.24-.47 2.69-1.87 1.52-1.17.35-.47.11-.58v-.7l-.46-1.88-.24-.93-.47-.59-.7-.82-.7-.58-1.17-.7-1.87-1.76-1.4-1.99-.59-1.16-1.4-3.98.58-.24.94-.46.23-.35.35-.82.47-1.64-.82-4.33-.7-5.03-.12-1.99.71-2.69.7-1.4 2.92-5.26 2.34-5.15 1.4-4.33.94-2.57 1.29-3.04.23-.35.7-.59 1.29-.47 1.17.24.82.93.7 1.06.35 1.4.35 1.64.24 2.22.23 5.38v3.63l.12 2.34.47 1.16v.24l.58.93.7.71 1.41.35 1.17-.24.81-.23.47-.59.47-.7.35-.82.35-1.4.35-2.92.12-6.09.23-2.1.35-.94.71-.93.7-.47 1.17-.35 1.52-.24 1.52.24-.94-3.98-1.17-4.79-1.17-5.03-.93-2.81-1.05-5.62-.24-1.52-2.22-10.64-3.04-15.91-.12-1.64.7-2.69 1.06-11.93 3.39-.7 6.08 1.76 9.12-1.99 1.88-.35-.47-.94-.94-2.11-1.17-2.22-1.4-2.92-.59-.94-.46-1.05-1.17-1.99-3.04-5.26-1.29-1.99-1.41-2.11-2.92-3.97-3.04-4.1-5.5-6.78-.93-1.17-1.88-2.34-1.4-1.64-6.2-7.37-4.21-5.26-1.99-2.34-1.75-1.99 2.33-1.87.71-.58.58-.71.35-.7.47-1.05.59-2.11.7-3.39 3.16-12.51 4.56-18.6 5.14-20.47 2.58-10.41 1.29-4.45 4.67-18.59 2.69-10.41.94-4.22 2.93-12.16.46-1.76 2.11-6.9 1.87-7.83 3.39-15.09 2.69-10.53 5.03-20.59 3.4-12.86 2.1-8.42 4.45-17.9 1.75-7.02.7-3.27.94-4.68.7-4.21.82-3.98.58-2.11.94-3.62.47-2.22 1.05-4.33 3.63-14.16.35-1.52 1.52-6.08 3.74-15.32 3.16-15.44 2.69-16.26 1.64-10.06.47-3.98.35-15.32.11-7.84.12-7.25.35-23.86.24-3.86.35-3.39.35-1.76 1.05-5.14 2.57-10.88 5.97-24.45 3.28-13.57 9.47-39.41 3.16-12.64.47-2.45 3.62-14.51 4.1-15.79 2.22-8.89 1.87-6.78 1.17-3.86 1.76-4.68 4.56-7.84 4.44-8.07 1.64-2.69 3.63-5.61 1.99-2.81 4.79-5.38 4.92-4.8 8.89-8.54 9.47-9.35 13.8-14.27 5.39-5.38 4.09-3.98 6.67-6.67 2.45-2.45 1.64-1.88 2.69-3.5 18.95-25.04 3.16 6.67 4.21 9.01 2.69 5.61 6.44 13.45 8.07-3.86 7.02-3.39 4.21 9.01 1.17 2.34 43.63-14.39 9.59-3.39 14.74-1.99 1.99-.7 1.17-.59 1.64 6.32.47 1.87.7 2.46 3.74 14.85 1.64 5.73 1.99 6.79 2.69 8.77 4.56 12.87 7.95 20 6.44 14.04 6.78 13.33 2.23 4.33 5.14 9.59 8.19 13.57 3.16 4.68 7.14 11.11 6.78 9.47 2.92 3.75 8.66 11.11 13.1 15.2 12.29 13.22 12.63 13.8 4.44 5.38 2.34 3.28 3.98 5.96 1.64 2.7 2.1 4.32 1.29 2.93 3.86 9.71 1.05 3.04 1.41 5.38 1.28 6.78.12.82.35 2.81 1.06 7.95.23 7.72-.7 8.77-.59 4.8-.58 3.63-2.23 9.24-1.87 5.49-4.56 10.3-1.29 2.45-4.91 8.66-5.61 10.88-2.69 5.96-2.23 6.08-1.4 4.68-2.46 12.17-.46 6.78-.36 11.93.47 5.03 1.52 10.41.59 4.68 3.62 23.86 3.05 22.34 1.05 6.2 1.05 8.43v1.4l1.64.94 1.75 1.16.82.47 3.16 1.76 1.05.47 1.17.46 1.99.94 1.05.35.82.23 1.06.24 1.87.35 1.52.23 2.81.47 1.17.12 1.28 1.52 4.8-.24.35-1.28 7.6.35 8.31.47 1.75.11 13.46.82 6.43.47 4.91.23 2.11.12 13.45.94 3.74.35 5.74.35 3.97.23 5.15.35 18.25.94 10.53.47 2.45.35.82.11.82.24.7.12.7.35 1.06.35 2.69.93 3.16 1.29 3.39 1.29 7.95 3.27 10.88 4.33 4.1 1.64 3.97 1.63 1.76.71 1.17.35 4.33 1.87 7.02 2.81 3.5 1.52 6.56 2.69 11.46 4.56 2.57.93 4.33 1.76 2.81 1.17 9.36 3.86 4.44 1.75 4.1 1.64.35.12 10.17 4.21 11.7 4.68 4.56 1.87 15.33 6.2 4.79 1.99 21.18 8.77 10.41 4.21 10.18 4.21 10.99 4.56 1.17.47 5.97 2.46 2.34.93 4.91 2.11 7.72 3.39 1.17 1.4 1.29.35 4.79 1.53 3.4 1.05.58-1.29 3.74-7.84.71-1.63 1.17-.82 6.66-13.1 2.81-5.38-.12-1.06.12-.46 3.74-7.72.71-1.41.35-.7.46-.93.36-.82 3.04-6.09 1.52.71.82-1.76.35-.7v-1.52l3.04-6.67 23.63 6.67 28.54 7.95 10.76 9.13 17.67 23.62-2.34 1.17-4.1 1.88-1.99 1.16-1.52.94-1.87 1.76-4.91 5.26-5.15-1.17-3.98 2.22 1.88 3.74-2.11 1.99-1.29 1.64-.93 1.76-.7 1.52-.71 2.1-.35 1.99v2.81l.35 4.56.12 3.16-4.33 2.69-9.12 9-4.33 4.8-4.44 1.29-7.49 1.4-4.1 1.17-1.28.47-4.33 2.8-1.52.71-1.17.46-1.52.47-1.41.35-.58.12-.7.12.93 1.17 1.64 1.87 10.76-3.98 16.03-5.85 2.92-4.09 2.34-1.29 6.9-5.38.82-.7.94-1.05 1.29-1.52 2.8-.35.59-4.45-.24-5.38 1.41-9.47 3.74-4.92.82-3.16 12.05 3.63 17.08-.82 6.9-2.81 1.52 5.85 10.65 38.14.35 1.4 1.05 3.39 2.1-.7 3.05-.94 7.25-3.39 1.64-.58 1.28-.47 1.99-.7 3.04-.71 10.41-1.28h.36l9.82-1.29 3.98-.47.58-.11 5.15-.59.82-.12 10.53-1.28 5.38-1.05 3.04-.36 1.87.12 1.52.7 1.99 1.64 7.37 7.95 3.04 2.81 1.99.94 2.93.47 3.74-.24 2.22-.7 1.76-1.29.46-.7 1.52-1.99 2.11-3.62.94-1.99.46-.82 1.76-3.51 1.75-3.39 2.69-10.76 6.91-2.81.58-.23 1.87-.82 4.91-1.99 4.1-1.64.82-.35 4.33-1.75 3.97-1.64 9.13-3.63-.12-1.05 3.51.12.59.7 3.62 8.42.47 1.17 1.99.94 1.64-.24.81-.47 1.17-.7.36.12h.58l.35-.23.23-.36v-1.05l1.99 1.17 3.4 1.99-.12 4.56 2.57 2.93 1.76 1.98 2.34 2.58.58.7 11.35 12.75 2.22 1.87 3.16 2.46 1.52 1.4 2.11 2.11 2.34 1.28 8.65 6.44.59.58 4.09 3.86 2.46 2.57 1.64 2.34-.71 1.29-.11.23-2.69 3.51-9.48 4.68-.35.35-.12.59-.11.7-.82.93-.82-.46-1.05-.82h-.71l-3.86 1.87-.35.35-.7 1.05h-.35l-.23-.11-.36-.59-.35-1.17-.35-.23h-.23l-.7.23-.35.47-.47.7-.47.35-2.69.59-.94.47-1.05 1.63-.23.7.11 1.17.24.12.23.12 2.58-1.17 1.28-.12 1.29.24.82.23 1.28.7h.71l.58-.23 1.17-.82.59-.12.58.47.82 1.52h.35l.82-.7.7-.12 5.5.94 2.57.58.35.35.71 1.06.46 2.45.59 5.73-.7 1.29.35 2.46v.23l.47.58.23 1.06v.82l-.94 6.2.12.81.23.24 1.17.93 1.17 1.17h.35l.12-.23.24-.47.11-.47-.11-2.22.93-2.57.82-2.46.94-1.52.58-.7.82-.12 2.81-1.05.7-.12.82.12.58.7.47-.12.59-1.16.81-.12.71.35 1.05.82 1.05 1.05.35-.12.35-.11.47-1.52.47-1.29.35-.82h.82l4.09.59.35.11 2.58 1.29h1.52l.47.35.46.94.12.35v.46l-.35.94-.35.94-.12.58v3.04l-.35 1.87-.58 1.88.11 3.97v3.04l.47 2.46.12 2.11.35 1.52.23.35v1.75l.12 1.4-.23.71-.47.58-1.87 3.74-.59.59-.7.93-1.87 3.98-.47.7-.58.71v.58l.23.59-1.4 6.66-.35 1.87-1.76 5.62.12 1.05-.12 1.05-.23.59-.35.35-.47.82-.35.82-.12.7.12 3.98v1.17l-.24.81-.93 2.69-.35.36-3.28 3.04-.35.58-1.4 3.86-.59.94-.47.58-1.05.59-.58.11-.36-.23h-.35l-.35.23-2.45 6.09-2.11 5.26-2.81 5.97-.82 1.52-.81 1.4-.47.58-.82 1.17-.35 1.29.23 1.64-.12.35-.46 1.05-.35 1.87-.59 2.11h-.47l-.35.12-.11.58v.94l-.12.46-1.17 1.17-.82.12v.47l.47.7v.59l-.47.23-.12.23.35 2.23v.58l-.46.35-.12.24.23 1.87-.11 1.28-.47 1.88-1.29 4.32-.58 1.52-.35.59-.59.23-.58.94-.36.12-.81.35-.59.58-1.05 2.69-.59.94-.11.46.7 1.17.47.94.23 2.11v1.28l-.35.94.12 1.4-.71 1.29-.35.58-.11.47.11.35.24.82.35 1.52v.7l-.12 1.06.12 1.17.23.93 1.52 3.86v.82l.12 1.75-.23.71-.24.35-.47.11-.7-.35h-.35l-.35.12-.23.59-.24 1.52-.58 3.04v1.52l-.12.47-.58 1.28v.59l.35 3.74-.12 1.17-1.4 3.98-.24 2.8v.71l.35 1.63 1.99 2.58.12.46.12 1.06-.24.35-.7.82-.7.23-.12.12-.58.47-1.76 2.69-.7 1.63-.47.59-.58.58-.94.59-.35.7-.7 2.92-2.58 5.03-1.75 3.04-1.4 1.53-.59.11h-2.22l-2.93 1.29-1.98 1.29-3.05 2.45-4.32 5.15-.59.93-1.17 2.69-1.17 1.76-2.57 5.15-.94 2.69-.47 3.27-.11.7-.24.35-.93.94-.24.58-.11 1.06.23 2.8v.59l.12.58.82 1.99.23.94-.47 1.17-.47.7-.7 1.75-.23 5.03-.35 1.06-.59.7-.82.7-.82.23-.46.47-2.34 2.93-2.69 3.39-.35.82-.94 2.8-.7 1.29-.59.7-.82.82-1.17.47-3.5.82-.47.47-4.33 5.96-1.76 3.51-4.44 8.42-1.4 1.99-.94 1.64-.59 1.52-.58 1.4-4.33 4.8-5.38 6.55-4.68 8.07-.82 1.29-.82 2.1-.23 1.29-.47 5.03-.58 1.52-.24.82-.23 6.31.12 3.51 1.4 4.21.12.47.23.94-.12 2.22-.23 1.17 1.87 13.57-4.56 5.03-5.03 5.49-2.57 2.93z" stroke-linejoin="round"/></defs><use xlink:href="#i" fill="#09757a" stroke="#097d9b" stroke-width="5.76"/><defs><path id="j" d="M1329.92 2014.79l-8.54 3.86-5.03 2.45-9.94 4.8-5.03 2.22-9.94 4.91-1.05-1.52-.71-1.05-.7-1.17-.47-.93-.7-1.41-.93-1.99-6.2-12.51-.24-.47-2.81-5.62-1.75-3.5-2.46-4.8-1.87-3.86-2.22-4.33-2.69-5.38-.94-2.1-2.8-5.62-.59-1.4-1.64-3.51-1.4-3.04-1.4-3.16-1.29-2.92-1.76-3.86-.11-.36-2.23-5.02-2.1-4.92-4.21-9.59-.59-1.52-1.64-3.63-1.4-3.15-1.4-2.93-1.99-4.68-.12-.35-2.45-5.38-.59-1.4-.94-1.99-1.4-3.39-2.22-4.8-1.52-3.39-2.11-5.15-3.16-6.66-1.99-4.8-2.1-4.68-1.64-3.86-.93-2.22-.82-2.22-.59-1.41-.7-1.75-1.05-3.04-.12-.47-.35-1.05-.47-1.41-.35-1.05-.7-2.11-1.29-4.44-1.17-4.44-1.17-4.57-.47-1.75-.11-.59-.47-2.22-.59-3.04-.7-3.39-.47-2.93-.35-2.57-.23-1.52-1.29-7.84-1.75-10.17-.12-.94-.58-2.69-1.17-5.73-.71-3.04-.46-2.22-.7-3.05-1.06-4.09-3.27-11.35-1.41-5.02-5.03-17.67-.82-2.57-.46-1.87-.94-3.04-.7-2.34-1.29-4.45-.82-3.04-4.91-17.08-2.57-8.89-1.17-4.44-1.99-6.78-.82-2.93-1.87-6.55-1.17-3.98-1.17-4.09-4.1-14.27-4.21-14.62-4.09-14.15-4.1-14.39-1.98-6.9-.82-2.81-1.41-4.8-2.1-7.13-1.17-4.21-.82-3.04-2.93-9.94-1.28-4.57-1.41-4.91-2.69-9.36-4.44-15.32-1.17-4.21-2.58-9.01 12.87-4.09 12.4-3.98 10.88-3.16 1.76-.58 8.89-2.69 3.51-1.05 2.92-.94-.82-2.11 13.45-6.43.94-.35.23-.12.47-.11.35-.12.35.12.47.35.59.47.46.7.35.82.47.81 4.8-1.87 3.63-1.4 2.69-1.29 9.47-4.09 5.15-2.22 7.95-3.63 4.1-1.75 11.46-5.03 9.24-4.1 1.29-.47 6.67-2.8.46-.7 13.22-16.96 20.12.81 12.4-3.86 1.99-1.98 5.15-.94 1.75-2.69 5.27-1.76 5.96-2.33 6.09-2.58 6.08-2.57 16.61-7.49 6.9-1.87 21.64-16.14 9.59-1.29 12.87-3.97 1.17-2.23 5.97.12 10.17-3.63 12.05-5.61.35.82 5.27-2.22 5.61-2.58 5.15-2.22 5.26-2.34 1.88-.82 3.97-1.75 7.37-3.28 3.04-1.4 4.22-1.87 5.26-2.34 1.99-.94 1.99-.82 7.37-3.27 3.74-1.64.7-.35 4.21-1.87 2.34-1.05 9.59-4.1 1.29-.58 5.03-2.11 2.57-1.17 2.81.59-.7-1.41.7-.35.59-.35 1.05.12h.12l3.86-1.87.7-.24.58-.35.35-.11.47.7 3.86-2.58 3.63-1.63 2.81-1.29 1.99-.82 3.39-1.52.82-.35 2.45-.94 2.58-1.17 4.68-2.1 8.07-3.74 6.9-3.16 2.69-1.06 3.51-1.52 1.05-.46 3.98-1.52.58-.24 5.97-2.57 1.4-.7 2.58-1.06 4.68-1.98.58-.24 2.57-1.64 1.41-.58 1.28-.59 8.43-3.86 1.17-.58 1.05-.47 3.16-1.52 1.99-1.17 1.17-.58.11.35.24.35.35.23.23.24 1.29 1.05 1.4 1.05 2.81 1.64 2.11 1.17 2.34 1.17 3.15 1.4 1.52-2.57.59-1.87.58-1.52.82-1.29 1.06-1.05 1.28-.94 8.54-3.98.7-.23 2.23-.82-7.72-6.55 5.26-1.52-2.22-3.63.47-1.16-.12-1.17 1.52-1.06 3.39-2.69 1.76-1.17 10.06-7.72 1.05-.82.47-.46.47-1.17 9.47-7.14 3.28-2.57 10.06-7.72 5.38-4.1 7.48-5.96 5.03 7.72 3.16 4.79 7.72 12.05.7.94 3.86 5.85-.93.46-.7 1.06-.35 1.17.11 1.28.35 1.52.94 2.34 1.75 3.28 5.27 8.77.58.94.82 1.05 1.29.82.93.35.71-.23 1.05-.94 1.05-1.05.24.82.35 1.05.23.93.24 1.06.11.93.12 1.06.12 1.17.11 1.28-.11 1.87-.12 1.41-.12.93-.23 1.41-2.58 8.77-1.28 5.03-3.16 10.88-2.57 8.42-.47 1.87-.59 2.34-.23 1.4-.12.59v.7l14.04 5.61 16.14 6.2 12.4 4.8 3.04 1.17.35.23 8.43 3.28 4.21 1.64 4.09 1.63 1.76.7 6.66 2.7 1.17.46 1.64.59 12.75 4.91 3.28 1.4 4.21.82 5.61 2.34 6.91 2.81 1.75.7.35.12.7.82 9.95 3.74 6.2 2.46 25.73 9.94 8.78 3.51 10.52 3.86 4.57 1.64 3.97 1.52 3.16 1.17 2.11.81 12.75 5.27 12.16 5.61 11.93 6.08 1.06.59.82.47 3.62 1.87 8.31 4.33 1.05-1.06 7.02 3.16-.82.82.35.24 4.1 1.87 1.75.93 2.22 1.17.35.24 13.46 6.66 5.85 3.04 7.37 3.75 1.75.93 7.84 4.1 7.13 3.74 28.43 14.74 1.52.82 1.87 1.05 10.41 5.26 1.76.94 7.13 3.86 5.73 2.81 3.05 1.4.11.12.7.35.24.11 1.52.59 1.05.47 2.34.93 1.99.7.7.36 1.76.81-.59 1.53 4.21 1.98 4.57 1.64 1.4.47 1.17-.12 4.68 1.87 1.52.59.93.23.71.24 2.34.93 1.87.82 1.17.47 2.45 1.05.47.24 1.05.46 1.17-.23.47.12.47.23 9.12 3.86 2.11.94 2.46 1.17 1.99.93.7.35.82 1.29 2.34 1.17.58.23.7.35.59.35 1.05.47 2.11 1.17 1.87.82 3.97 1.64.47.23.47.82.94.47 5.73 2.69 5.5 2.57-.47 2.22-3.86 14.86-1.99 8.42-1.05 4.91-.24 1.41v.58l-3.97 2.93-8.66 6.55-4.91 7.6-6.32 10.06-2.57 3.86-1.17 6.43-.94 3.86v8.78l-.7 4.09-.94 12.87v.35l-2.34 34.15-5.14 24.8-8.66-5.85-9.24-6.08-22.93-10.53.12 2.93.46 2.33.47 1.53.47 1.52 2.46 4.56-3.04-.82-2.58-1.29-2.57-1.17-.47-.47-.35-.58-.47-.94-1.17-2.45-.35-.47-.35-.59-2.46-2.57-4.21-2.92-1.05-.47-3.51-1.29-4.91-1.17-1.17-.46-1.29-.71-3.27-2.1-3.16-1.05-1.52-.24-1.17.12-.71.35-.81.7-.94 1.17-4.45 3.16-1.28 1.17-.7.93-.47 1.29-.24 1.64-.23.7-.7 1.05-.94.82-1.17.7-2.34 1.06-2.92 1.05-1.29 1.05-.93.94-5.62 7.95-.35.7-.12.59v.7l1.64 4.68.12.82-.12.7-.47 1.17-.11 1.05.35 4.8-.24.7-.35.12-.47-.12-.35-.59-.23-.46-.12-.71.24-1.63-.35-3.75-1.41-4.67-.82-1.29-1.05-.59-.47-.58-.82-.47-1.87-.35-4.56-1.75-.59-.47-.11-1.05.11-.36.47-.23 4.92-.12 1.4-.23.94-.23.46-.47.35-.7 1.29-5.03 1.4-3.98 1.17-2.22.24-.35.35-.12 1.4-.23 3.4-.59h1.05l1.75-.35.7-.82 1.29-2.92.7-2.69.24-.59.35-.35 2.57-1.75.59-.47.82-1.41.58-1.05.7-2.22.47-1.87.12-1.64-.12-1.99-.23-.82-.71-1.17-1.05-.82-4.56-.81-.59-.24-1.17-1.87-2.1-2.46-2.81-1.98-5.73-4.57.23 2.34 11.47 9.01 3.74.94-.12.58-5.26-1.52-.47.23-.35 1.06-.23 1.4.11 2.11-.23 3.15-6.32-1.63-1.4-.36-1.29-.46-1.05-.35-.94-.47h-.58l-.59.23-.23.47-.23.58-.12.59-.12.47-.11.35-.24.23-.12.12-.23.12-.35.11h-.47l-.47-.11-.81-.12-.71-.12-26.9-5.96-7.02-1.64-.82 3.74-.58 2.34-.47 1.52-.24.7-.23.82-.35.94-.35 1.05-.47 1.05-.35.82-.23.35-.59 1.17-.58.94-.47.82-.7.93-.82 1.06-.94 1.05-.82.94-1.17 1.16-1.4 1.17-1.4 1.06-1.64.93-1.76.94-1.99.93-2.22.71-2.57.81-2.69.71-13.1 3.86-3.75 1.05-9.94 3.16-4.91 1.28-3.63 1.06-3.98 1.28-10.17 3.04-2.58.82-10.76 3.16-9.12 2.69-17.67 5.27-10.06 2.92-1.64.58-13.8 3.98-32.75 9.71-3.16.94-17.9 5.26-4.44 1.29-10.06 3.04-9.25 2.69-12.98 3.86-1.75.47-1.06.23-1.4.35-1.05.12-1.06.23-.93.12-3.39.23-3.28.24-3.16.11-3.04.24-9.36.35-23.04 1.17-55.22 2.69-16.02.7-16.85.82-10.17.35-5.27.35-4.68.35-1.05.82-5.97.23h-.23l-8.66.24-6.78.35-4.56.23-9.48.47-5.73.35-4.8.35h-1.05l.59 9.13.7 1.05.82 11.23.23 4.09.35 3.86 1.05 14.74.59 10.99-.24 1.17-.11.36 1.28 18.24.47 6.79.82 14.73.12 2.93.47 7.72.11.93.12 1.88-.7.81-.47.47-1.4 2.11-1.06 1.99-.58 1.05-.24.58-.46 1.06-.35.7-.36.7-.7 1.4-.58 1.17-.12.24-1.64 2.69-.58 1.05-.82 1.29-.35.47-.47.7-.7.93-1.17 1.64-1.05 1.29-.94 1.05-1.75 1.87-.24.35-.7.47-.47.58-1.75 1.64-1.06.94-.58.47-.82.58-2.34 1.76-2.46 1.52-.58.35-1.99 1.17-1.75 1.05-4.68 2.22-3.51 1.76-6.55 3.04-9.13 4.33-12.63 5.96-11.7 5.5-8.65 4.09-3.75 1.76-5.5 2.57-6.66 3.16-2.58 1.17-5.26 2.57-4.33 2.11-12.63 5.84-4.57 2.23-8.42 3.86-15.32 7.37-8.78 4.09-1.28.7-18.95 8.89-4.68 2.22-2.57 1.17-2.23 1.06-1.05.58-4.21 1.99-7.02 3.27-9.83 4.57z" stroke-linejoin="round"/></defs><use xlink:href="#j" fill="#004249" stroke="#00465f" stroke-width="5.76"/></svg>