<svg width="6.02in" height="384" viewBox="0 0 4333 2880" xmlns="http://www.w3.org/2000/svg" xmlns:xlink="http://www.w3.org/1999/xlink"><path fill="#fff" d="M0 0h4333v2880H0z"/><defs><path id="a" d="M1023.54 1391.45l-.68.14h-.14l-2.57.27-1.49.13-2.44.41-2.98.41-1.48.27h-.55l-7.17 1.08-7.04 1.08-6.37.82-4.6.67-2.44.27-3.11.55-5.56.67-1.62.27-.95-.4-2.03.13-1.08.27-.95.68-8.67 1.22-1.49.27-1.21.14-2.85.4-2.71.41-1.08.13-2.98.41-6.5.95-1.22.13-3.52.54-5.82.82-3.93.54-2.57.27-4.74.68-2.57.4-2.71.41-4.2.41-.94.27-3.52.54-2.85.27-1.49.27-4.06.54-3.66.54-2.16.41-4.61.54-1.21.14v-.68l-.41-2.57-.41-3.12-.4-2.57-.41-2.57-.41-3.52-.27-2.17-.81-5.15-1.62-11.51-.14-1.49-.13-1.08-.82-5.01-.4-3.66-1.36-9.07-.27-2.17-.27-2.3-.81-5.82-.54-2.98v-.14l-.68-5.42-.14-.4v-.68l-.27-1.89-.27-1.49-.27-2.17-.27-1.63-.81-5.68-.54-4.47-.14-1.22-.13-.68v-.4l-.55-3.8-.27-1.62-.4-3.25-.27-2.03-.14-.27-.54-4.61-.41-3.65-.4-3.66-.54-3.93-.68-4.74-.14-1.49-.4-2.43-.41-3.39-.54-3.79-1.76-11.65-.14-1.76-.54-3.25-.54-4.47-.54-3.52-.41-2.57-.13-1.22-.14-1.63-.27-2.3-.41-2.44-.4-2.43-.68-4.88v-.68l-.4-2.3-.68-5.01-.68-4.87-.81-5.42-.68-4.33-.13-1.22-.27-2.3-.55-3.39-.4-2.3-.41-1.9-1.08-8.12-.41-2.31-.81-5.68-.68-5.42-.4-2.84-.55-4.61-.4-3.52-.54-3.11-.82-4.61-1.08-7.85-.54-3.12-1.08-8.39-1.09-6.91-1.89-12.86-.41-3.53-.13-1.35-.14-.68-.81-4.47-.27-1.49-.27-1.62-.14-.14-.41-2.03-.4-1.22-.14-.54-.27-1.08-.27-1.08-.13-.82-.14-.54-.68-3.66v-.13l-.54-2.71-.27-2.71-.95-6.63-.94-7.86-.95-6.77-.27-2.03-.27-1.49-.14-1.22-.41-4.06-1.21-11.11-.41-5.14-.14-1.22-.81-9.07.41-1.22v-.81l-.14-.55-.13-.81-1.36-10.43-1.89-13.81-1.63-12.05-1.22-9.08-.94-6.22-.41-2.85-.27-2.3-.81-4.06-.95-8.67-.14-.81-.13-1.09-.68-4.06-.68-4.87-.81-6.5-.41-3.66-.13-6.64-.14-1.62v-2.84l-.94-7.18v-.95l-.55-2.98-.67-.95-2.03-13.67-1.63-9.48-.27-1.9-.41-3.11-.27-1.63-.4-2.57 1.35-.14 2.57-.4 2.58-.41 1.89-.27 4.61-.41h.81l.54-.13h.95l2.98-.27 7.85-.95.95-.14.27-.4.81-.41.54-.27 12.05-1.49 8.94-1.08 3.52-.55h.54l14.9-2.3 10.42-1.35 2.44-.41 3.25-.4 18.01-2.85-.27.54-.41.82h.68l10.16-1.63 1.62-.27 12.73-1.49 14.49-2.03 7.99-.95 5.55-.68 1.89-.27 21.26-2.43h.68l14.49-1.9 6.09-.81 1.36-.14 4.87-.54 10.83-1.22 7.31-.95 17.47-2.16 3.79-.41.14.95.95 8.39 30.46-4.06-1.49-9.61 7.59-1.09 2.84-.4 3.52-.54 1.49-.41 2.98-.68 4.6-.81 25.73-3.52 18.69-2.57 2.7-.28 4.34.14 3.52-.14 1.08.14 1.9.27 1.35.27 1.63.41 1.89.81.95-1.08 2.44-1.9 1.08-.81 3.66-2.98 3.92-3.12 5.69-2.7-1.22-9.62-.13-1.22 2.97-28.16 14.09-.14 7.99 1.35 2.57.41 1.22.14.27.27.95 3.11.67 1.76.41 1.76 1.35 5.28 1.36 9.48 4.87 33.18v.81l2.71 18.83 1.49 10.15.27 2.17 1.49 15.71.54 4.33.14 2.58v.27l.13 3.25-.13 1.08-.27.81 4.6-.13.14-3.39v.68l.4 2.71.27 1.89 1.09 8.53v.82l.13 1.08.27 1.9.68 5.01.81 7.72.81 5.68.68 6.23.54 4.07 1.09 11.24.4 2.57.27 1.89.27 2.85.27 2.44.68 8.26 1.22 13.81 1.76 21.94.27 2.84.27 2.3.54 6.37v1.89l.41 4.34.41 4.06.81 9.62.68 9.48 1.21 14.49.68 8.53.41 5.28.13 1.62.81 8.53.41 3.66.81 7.72 1.49 12.87.82 6.36.81 5.55.27 2.58 2.98 19.9 1.22 8.8 1.08 9.08 1.08 10.56 1.49 14.22 1.76 14.22 2.03 14.22 2.03 14.22 2.71 19.5.95 7.18 1.35 9.07 1.77 12.32 1.21 8.67.95 6.63.14.55.13.94.68 4.07.13 1.49.55 4.33.27 1.35.81 5.56 1.22 8.26.54 4.19.68 5.56.81 5.41 1.08 7.59.41 2.98-1.36.27-1.35.13-1.08.14-4.2.54-1.49.14-2.98.27-2.57.4-2.84.41-1.49.27-1.36.27-1.49.14-2.84.4-1.9.14.14.95.13.67-1.49.14v-.54l-.13-.95-1.22.13h-1.08l-3.12.41-4.06.41-1.35.13-2.85.27h-.4l-1.63.27-3.38.41-1.49.27-2.03.27-3.93.68-2.44.27-3.11.68-5.42 1.08-2.98.68-4.87.95-3.39.54-1.35.27h-.14l-3.11.4h-.41l-.54.14-6.36.81-4.74.68-13.95 2.03-3.52.41-5.28.81-2.98.41-3.25.4-2.3.41-2.3.27-2.98.54-3.66.41-1.08.27-3.52.4-4.61.68-3.65.54-7.04 1.09-2.98.4-3.25.54-1.49.14-8.13 1.22-6.9 1.08-9.48 1.49-5.42.68-1.62.27-6.77 1.08-11.65 1.63-8.93 1.35-3.93.68-2.44.27-1.89.41-.81.67h-.82l-1.22.27-2.84.41-2.84.54-.95.14-11.92 1.76-15.03 2.3-4.19.54z" stroke-linejoin="round"/></defs><use xlink:href="#a" fill="#cee3e4" stroke="#cef5f5" stroke-width="5.76"/><defs><path id="b" d="M489.49 930.88l-.27 3.12-16.38 2.03-.41-2.98-1.22-9.34-.94-7.32-19.64 2.44 1.22 8.26.95 8.26-.81.14-15.03 2.03-17.07 2.3-3.65.54-4.61.55-6.09.81-2.3.4-1.08.14-.41-2.44-.14-.95-.4-2.97-.41-2.31-.27-.95-.27-1.21-.41-2.04-.13-.4-.27-.54-.54-1.9-.41-1.08-.81-2.03-2.03-4.2.54-.27.4-.27.82-.55.4-.13.55-.27.27-.41.27-.4v-.55l.13-.67-.13-.54v-.55l-.27-.67-.27-.54-.28-.55-.13-.67.13-.82.14-.67v-1.49l-.14-1.09-.13-1.22v-1.76l-.14-2.03-.13-1.62v-.41l.13-.27.27-.27.28-.27 1.08-.68 1.76-.95.54-.27.27-.13.95-.54.68-.41.27-.14v-.4l-.14-.41-.27-.27h-.54l-.95.41-.54.27-.95.4-2.03 1.09-.41.13h-.27l-.27-.27-.54-.67-.68-1.49-.13-.55v-.67l.13-.54.41-1.09.41-.68.54-.54.68-.81 1.08-1.49.13-.81.14-2.03v-4.07l.13-1.49-.13-1.62.13-1.76.14-.95.27-.81 1.35-2.03.41-1.36.81-.67.55-1.09.4-1.22-1.22-.54-.4 1.09-.14 1.49-.68.81-.67 1.08-1.36 2.17-.27.95-.4 1.35.13 1.22-.13 1.08-.14 1.49.14 1.49-.14 1.22-.13 1.35-.14 1.09-.27 1.49-.27 1.08-.54 1.63-1.09 1.62-.54 1.36-.68 1.48-.27.82-.13.67-.14.68.27.81.27.82.41.81.14.81.54 2.85.27 1.21.4 2.31.41 5.28.14 1.22v1.76l-.14.4-.27.55-.27.27-.54.27-.41.27-.54.13-.68.41-.81.54-.81.68-1.76 2.03-.54.41-1.36 1.62-1.49 1.36-1.08.94-1.08.68-.95.54-.41.54-.27.27-.54.82-.41.54-.81.68-.54.13-.54.14h-.54l-.68.13-1.08.27-2.04.68-2.97 1.22-7.45-10.16-.95.27-.27 1.22 6.23 6.77-12.59 8.26-1.76.68-.55-1.62-1.21-3.25-1.9-4.61.81-.41-7.45-15.43-5.01-7.86-2.7-4.33-1.36-2.03-2.57-3.52-2.98-2.85-2.3-2.57-1.63-2.3-2.16-3.39-.68-2.71-.54-3.65-.27-2.3-.27-2.71v-2.58l-.14-.94-.27-.95-.41-2.03-.54-.95-.4-.68-.14-.4-.27-.14-1.08-.14h-.54l-.41-.54-.54-2.03-.81-2.98-.55-1.35.55-.81-.28-1.36-.54-1.08-1.08-.27-.27-4.61-1.22-4.06-1.35-2.44-.68-1.22-1.22-2.03-2.71-4.87-5.28-8.26-.4-.68-.41-.14-.41.14-1.89.27-.54-.27-.14-.54-.41-.68-1.21-3.25-.95-.27-.41-.27-.27-2.3-1.76.13-5.55.81-1.08-7.99-2.17-8.8-1.76-2.57-.95-1.22-1.22-1.35-6.09-6.37-2.44-3.11-2.57-3.25-3.52-3.79-2.85-2.71-1.35-2.17-7.18-6.91-3.11.95-.68-.81-.13-.68-.68-1.62 1.22-.14.68-.27.27-.54-.14-1.36-.54-.54-1.76-.67-2.84-2.58.54-.81-.14-.95-.27-.67-1.08-.41-1.9.41-3.38-5.42-1.49-2.03-1.22-.54-.27-.41-.41-1.36-.13-.81-2.98-2.84-1.49-1.9-2.71.14h-3.93l-3.65-.68-7.86-2.3-4.06-2.71-4.2-4.33-2.03-3.93-.81-2.57.27-2.03.95-2.31 2.17-1.89 2.43-.14 2.71.81 1.9 2.71 2.03 3.52 1.62 1.36 2.71 1.62 2.3.27 1.63.41h1.22l1.76.14.67-.82.41-.94.54-.55-.68-3.79-.94-2.44-.82-1.08-.67-.81-.82-.81-.81-.55-1.08-1.21-1.08-1.9-.55-1.63-.27-1.21-.13-1.9-.54-1.63-.55-.67-.67-.54-1.09-.68h-2.3l-.81.13-1.08.82-.95 1.76-1.49 1.89-.27.14-.81.27-2.17.41-1.08-.14-1.63-.81-1.08-.95-.95-1.49-.41-1.76v-1.49l.68-1.9 2.71-3.52 2.17-2.3 10.83-5.69-.27-3.25-.41-3.38.14-2.98-.27-.68-.68-.27-.54-1.9 1.49-.4 5.95 3.65 1.63-3.11.41-1.76 4.19-.41 2.17-.27 1.62-.27 5.42-.68 2.03-.27 1.49-.13.95-.14 3.38-.27 4.61-.4.54 3.79 5.01 1.49.54-6.37.27-2.3.14-.54.13-.27.41-.95-.27-2.3 5.01-.54 1.35-.41 6.64-.95 3.65-.4.55-.14h1.35l.54-.14.54-.13 1.09-.41.94-.27.68-.13.68-.41 2.57-1.22.95-.27 1.76-.81 3.65-1.36 3.25-1.08 2.17-.68.68-.13 1.89-.54 1.36-.27 2.03-.41 2.03-.41 2.03-.4 2.17-.27 3.25-.41 1.76-.27.95-.27 1.76-.14h.54l3.11-.54 5.01-.81.54-.14 1.9-.27 9.07-1.08 4.6-.54 2.04-.27 3.79-.55 12.59-1.89 7.04-.95 1.08-.14 1.49-.13 1.63-.27 1.62-.41 1.22-.27.54-.13.55-.27h.27l1.22-.55 1.48-.67 1.49-.95.95-.54.95-.68.54-.41.68-.54.4.81.55.68.27.27.67.54.55.41.94.41.68.4 1.08.68.41.14.27.13.41.27h.27l.54.14 1.08.27h1.22l.27.13 2.98-.4 2.44-.41 1.22-.27 7.04-1.35 2.44-.41.81-.14 1.49-.13 2.57-.41 3.93-.4 8.12-1.09 2.44-.27 7.31-.95 4.33-.67.95-.14.68-.13h.81l9.21-1.22.4-.14 5.42-.68 3.52-.4 1.63-.27 3.25-.41h.67l.41-.41 2.44-.27 1.49-.27 16.38-2.16 1.63-.27 3.24-.55.95-.13.82-.14 1.76-.27 1.08-.13 2.17-.41h.81l3.79-.41.95-.13.4.13 3.93-.54 2.3-.54 2.98-.41 1.49-.27 1.49-.27 1.62-.27 2.17-.27 1.63-.27 4.06-.54 3.25-.54.95-.27.94-.14 1.49-.13 1.22-.14.81-.14 1.49-.13 1.36-.27 2.03-.41 1.08-.27 1.36-.27.81-.14.81-.13.95-.14.81-.13h1.08l1.76-.14.95-.13 3.25-.54 2.3-.27 2.58-.55 5.01-.67 1.49-.27 1.76-.28 1.35-.27 1.49-.13 2.17-.27 2.16-.27h.54l5.01-.68 2.44-.41 4.06-.54 2.71-.27 1.76-.27 2.44-.27 7.85-1.08 2.44-.27 5.28-.68.95-.14 3.38-.4 1.36-.14 1.62-.27 2.98-.41 1.9-.13 2.16-.41 3.66-.54 3.52-.27 2.98-.54h.41l2.84-.41h.54l.54-.13 1.49-.14 2.71-.41 8.67-1.08 1.08-.13 1.76-.28 4.2-.4 1.22-.14 2.03-.27 1.49-.27 3.65-.4 1.09-.14.13-.14h.54l1.76-.4 2.04-.27.54-.14 1.62-.27 1.9-.41 2.16-.54 2.98-.54 1.22-.13.95-.27 1.35-.28.95-.27.68-.13 2.16-.41 4.47-.95 2.71-.4.95-.14h.68l1.21-.27 3.12-.54 1.08-.14 1.9 13.68 1.08 6.77 1.36 10.29.94 6.51.14.81.81 5.82.81 6.5.82 5.28 2.57 17.74 1.35 8.67.41 2.84.81 5.56.14.67 1.76 13.14.81 4.87 1.08 8.13 1.22 9.34 2.71 18.01 3.38 23.16.14.81v.27l-.41.95.82 5.42.81 6.36.27 1.63.41 2.71.13.95 1.49 11.24 2.71 18.68 2.84 19.91 2.3 16.39 1.22 7.31.82 7.31.4 2.3.68 5.01.54 4.07.54 3.38.54 3.39.14 1.08.4 2.17-2.84.54-4.33.68-3.66.54-6.77.95-3.25.54-3.52.54-3.25.54-3.52.54-3.25.41-3.52.68-6.77.94-1.89.28-4.88.67-8.53 1.36-7.99 1.22-1.08.13-5.42.95-1.22.13-3.11.41-6.09.81-3.66.68-6.91 1.08-7.04 1.09-7.58 1.08-8.4 1.35-7.98 1.09-.55.13-14.76 1.76-4.33.68-6.9 1.08-2.31.28-4.06.67-6.5 1.09-3.92.54-.95.27-5.28.81-.95.14-10.16 1.49-5.41.81-5.83.81-5.01.81-.94.14-3.25.41-2.98.54-5.55.81-5.15.54-2.03.27-14.62 1.9-15.85 2.16z" stroke-linejoin="round"/></defs><use xlink:href="#b" fill="#cee3e4" stroke="#cef5f5" stroke-width="5.76"/><defs><path id="c" d="M1239.92 901.09l-.14 3.39-4.6.13.27-.81.13-1.08-.13-3.25v-.27l-.14-2.58-.54-4.33-1.49-15.71-.27-2.17-1.49-10.15-2.71-18.83v-.81l-4.87-33.18-1.36-9.48-1.35-5.28-.41-1.76-.67-1.76-.95-3.11-.27-.27-1.22-.14-2.57-.41-7.99-1.35-14.09.14-2.97 28.16.13 1.22 1.22 9.62-5.69 2.7-3.92 3.12-3.66 2.98-1.08.81-2.44 1.9-.95 1.08-1.89-.81-1.63-.41-1.35-.27-1.9-.27-1.08-.14-3.52.14-4.34-.14-2.7.28-18.69 2.57-25.73 3.52-4.6.81-2.98.68-1.49.41-3.52.54-2.84.4-7.59 1.09 1.49 9.61-30.46 4.06-.95-8.39-.14-.95-3.79.41-17.47 2.16-7.31.95-10.83 1.22-4.87.54-1.36.14-6.09.81-14.49 1.9h-.68l-21.26 2.43-1.89.27-5.55.68-7.99.95-14.49 2.03-12.73 1.49-1.62.27-10.16 1.63h-.68l.41-.82.27-.54-18.01 2.85-3.25.4-2.44.41-10.42 1.35-14.9 2.3h-.54l-3.52.55-8.94 1.08-12.05 1.49-.54.27-.81.41-.27.4-.95.14-7.85.95-2.98.27h-.95l-.54.13h-.81l-4.61.41-1.89.27-2.58.41-2.57.4-1.35.14-4.2.67-5.01.68-20.99 3.25-7.45 1.08-10.56 1.49-7.58 1.09-2.3.27-4.33.4-4.74.68-2.04.41-.4-2.17-.14-1.08-.54-3.39-.54-3.38-.54-4.07-.68-5.01-.4-2.3-.82-7.31-1.22-7.31-2.3-16.39-2.84-19.91-2.71-18.68-1.49-11.24-.13-.95-.41-2.71-.27-1.63-.81-6.36-.82-5.42.41-.95v-.27l-.14-.81-3.38-23.16-2.71-18.01-1.22-9.34-1.08-8.13-.81-4.87-1.76-13.14-.14-.67-.81-5.56-.41-2.84-1.35-8.67-2.57-17.74-.82-5.28-.81-6.5-.81-5.82-.14-.81-.94-6.51-1.36-10.29-1.08-6.77-1.9-13.68 1.09-.13 1.48-.27 1.63-.14.41-.13 1.08-.14 2.17-.4 1.35-.28h2.71l.4.14.55.14.67.13.68.27 1.08.54.54.41.68.27 2.17 1.35.95.55.54.4.54.27.54.27.68.14.27.14h.41l.54.13 1.22.14 3.25-.41 6.77-.81 3.11-.41 6.5-.81 6.77-.95 7.45-.81 7.44-1.09 9.21-1.08 6.77-.95 21.8-2.71 7.45-1.08 6.91-.81 6.09-.95.41-.13h.4l.54-.14h.27l6.1-.68 6.77-.81 7.17-1.22 2.58-.27 7.44-1.22.27-.13 29.25-4.47.81-.27 1.22-.68 1.22-1.08 2.71-4.2 1.22-1.63 1.49-1.22 3.93-2.97 1.62-1.36 1.22-1.35.27-.41 2.84-3.66 1.49-2.16.95-2.03.27-.95.27-1.22v-2.71l.81 2.3v.68l1.76 6.91 15.98-2.31 15.17 1.36 14.49-3.25-7.59-4.2 25.05 2.03 5.42.41 6.91 6.5 7.31-.81 9.61-1.36.81-.13 2.85-.27 3.79-.55 2.84-.27 16.52-2.16 11.92-1.36 4.87-.68 1.36-.27.94-.13.82.27 3.52-.41 4.33-.54 2.57-.4 9.89-1.36 8.93-1.35 3.25-.41 2.98-.27h2.44l1.22-.14 1.76-.13 5.28-.54 17.2-2.98 1.08.4 19.77-4.87.41-.14 13.27-3.11-.82-5.42-1.49-9.34v-.54l-.27-.95-.94-1.08-.14-.95 5.28 3.79 21.26 15.03 9.07-20.18.41.14.67 1.49.55 1.49 1.35 3.79.41 1.35.54 1.63.4 1.49.55 1.62.54 1.9 1.49 5.28.81 3.25.14.27v.14l1.21 5.41.55 2.98.67 3.52.82 4.74.94 5.42 1.63 11.78.95 6.5.81 5.83.95 5.82.81 6.5 1.08 7.04.54 3.66.54 3.79.95 5.96.82 5.41.94 6.64 1.09 7.18 1.35 9.88.27 2.17.41 2.44.81 5.41 1.35 9.89.82 4.74.4 3.25 4.61 31.96 4.19 28.03 1.49 10.16 3.79 26.41 5.15 34.8 4.6 32.23.41 2.98.68 3.92.81 5.96.81 5.28.68 5.83.95 6.09.81 7.04.54 4.34.41 3.38.4 3.12.55 4.6z" stroke-linejoin="round"/></defs><use xlink:href="#c" fill="#cee3e4" stroke="#cef5f5" stroke-width="5.76"/><defs><path id="d" d="M3115.7 2729.55l-36.7 6.9-3.11.41-.27.14-82.46 10.96-3.8.55-92.34 13.94-45.36 6.78-4.47-.55-97.63 15.71-90.86 12.73-3.25-.81-11.91 1.22-42.66 5.96h-.4l-22.89 3.25-73.12 10.29-7.85 1.08-28.43 4.07-24.11 3.65-8.12 1.08-14.08 1.9-76.37 11.92-19.5 2.98-.81.13-4.88.82-46.85 7.17.95-1.08.27-2.57-.81-1.9-1.63-.81-2.98-1.49-1.89-.14-2.03-.13-1.63-.82-.95-.54-.4-.27-.95-1.08-1.9-2.17-1.35-.13-1.35-.14-.82.27-1.08 1.49-1.08.95-1.22.95h-.95l-1.08-.82-.54-1.08-.28-1.62v-1.49l.14-1.09.14-1.62.54-1.22.4-.68.55-1.35.13-1.22-.13-1.49-.28-.95-.4-.95-.41-1.62-.95-3.79-.13-1.49.13-1.49-.27-1.9-.4-1.22-1.09-1.08-.94-.54-.82-.54-1.22-.14-.67.14-1.9.54-1.49-.14-1.08-.67-.81-.55-.54-.67-.14-.95.54-1.63.41-1.08.67-1.22.95-.95 1.09-1.62 1.21-1.49 1.9-2.57 3.79-2.85.68-1.08.13-1.08-.27-1.36-.67-.95-1.36-.4-2.57-.54-2.03-.28-2.3-.4-1.63-.54-.95-.55-1.21-.94-1.22-1.09-1.09-.94-1.76-1.36-1.89-1.35-1.76-.54-1.36-.14-.95.27-1.08-.13-1.22-.14-.94-.41-1.36-.67-2.71-2.03-2.57-2.58-.81-1.22-.54-1.49-.14-1.76v-6.5l-.13-1.62-.55-1.9-.94-1.35-1.09-.95-.95-.54-1.35.13-1.35.41-2.71 1.08-2.3.55-1.76-.28-1.63-.27-.95-.27-2.3-.54-1.89-.41-1.9-1.08-.68-.95-.27-1.22-.95-6.09 2.04-1.9 1.35-.13 2.84.68 1.63 1.49 1.22-3.25.4-1.36-.27-2.03-.81-1.76-1.08-1.62-.95-1.22-1.36-1.49-.27-.55-1.21-1.48-.28-.55-.13-.4-1.08-1.63-.41-.95.81-3.52.68-3.11-.81-3.79-2.85-4.47.14-3.93.81-1.49.68-1.49 11.24-1.62 1.89-1.22 3.25-2.03 2.44-2.85 1.08-3.92 2.98-3.8-.27-2.03v-.27l-.54-4.33-1.63-2.03-1.08-7.86 4.33-4.06-.54-.95-.4-2.71-2.85-3.38-1.76-.68-5.41 1.08-.95.27-2.44-.81-.27-.13-4.47-4.2-1.76-2.71-.81-1.08-.95-.68-3.79-2.3-7.31 3.38-1.09 4.07-2.16 2.43-.14.27-1.22 1.49-3.65-.13-3.12-1.63-2.43-16.65-1.22-.82-2.98-32.5 2.17-1.49 6.77-1.08 1.08-1.35-.27-2.04-8.8-10.29-.27-3.11 2.3-4.06 1.35-6.37-.27-2.03-7.72-2.84-1.35-2.71-1.08-7.86-.68-4.6-2.03-1.76h-1.63l-.67-1.49-13.68-3.25-1.22-.41-7.18-2.44-11.51-6.63-16.65-6.64-.68-.27-2.84-1.22-5.42-3.92-11.1-2.85-5.96-3.38-6.63-2.31-2.85 1.36-2.03 1.22-3.11-.95-5.28-2.44-2.3-.81h-2.17l-1.76.95-7.86 2.57-2.84 1.49-2.98 1.49-1.62 1.22-2.71-.27-3.79-1.63-3.93.14-4.74 1.35-2.71 1.49-3.52.95-7.58-3.79-2.17-.95-3.25-.14-3.92 3.25-5.42 3.66-5.55 2.84-6.36 3.39-3.39-2.44-1.22-.95-2.98-1.89-2.98.13-5.55 1.76-5.28 2.71-12.19-43.74-29.24-104.81-10.43-37.38-2.44-8.67-3.52-13-13.4-47.94-2.85.82-54.97 16.92-25.59 7.86-12.46 3.79-2.71.81-7.17 2.17 19.9 61.07 2.98 8.81 1.89 5.82 4.07 13.68.4 7.72v.27l-.54 13.4-.54 14.36v17.2l-.81 20.58.4 17.06.14 15.04-1.35 2.84-.28 3.52-1.62 6.5-2.44 3.93-2.3 3.38-7.72 9.08-14.22 13-14.75 13.95-9.62 10.56-16.92 15.3-.68.68-12.46 12.59-5.55 5.42-2.03 7.72-5.15 16.38-5.01 21.27-1.22 6.22-2.3 12.6-2.3 9.07-1.9 5.15.82 5.41.27 7.45-.14 11.51.14 2.71-1.36 5.28-.67-.81-1.09-1.22-2.03-2.44-1.22-1.49-.94-.94-2.31-2.44-3.52-4.06-3.25-3.52-7.31-7.86-19.23-21.4-5.68-6.5-6.5-7.44-7.45-9.21-7.45-9.35-.4-.54-4.2-5.55-2.17-2.98-2.16-3.11-2.85-4.07-1.35-1.76-3.66-5.55-3.52-5.42-3.38-5.55-3.25-5.55-3.25-5.55-3.12-5.69-2.71-5.15-.4-.54-2.98-5.82-2.84-5.82-2.71-5.96-2.71-5.83-2.44-6.09-2.71-6.5-2.84-7.31-3.11-8.81-1.22-3.52-4.2-11.24-.41-1.35-.94-2.44-6.37-17.74-5.68-15.84-10.84-30.34-2.16-5.82-2.17-6.09-.68-1.76-11.24-31.29-1.76-4.74-.54-1.49-1.49-4.33-.95-2.71-3.25-8.53-3.65-10.56-2.44-6.23-1.22-3.12-1.89-5.28-.82-2.44-3.11-9.47-4.06-11.11-.27-.81-3.66-10.29-7.99-22.21-.27-.95-3.25-8.8-.27-.68-1.89-5.15-2.04-5.82-.67-1.76-2.98-8.26-4.06-10.56-3.8-9.08-4.06-9.75-4.6-10.42-2.84-6.23-2.98-6.23-3.12-6.5-.95-2.03-6.63-12.87-7.31-13.41-7.59-13.4-15.57-26.68-7.85-13.27-7.72-13.41-7.85-13.27-7.72-13.41-7.18-12.59-2.03-3.79-2.16-3.93-1.63-3.52-.27-.54-3.25-7.18-2.57-6.23-1.9-4.74-2.17-5.42-1.35-3.92-1.08-3.25-1.09-3.39-1.62-5.28-1.63-6.23-1.48-5.55-.68-2.85-1.22-6.09-.41-1.9-.67-2.97-.82-5.42-.67-4.2-.68-5.42-.68-5.41-.54-5.42-.41-5.55-.27-5.42-.13-5.55-.14-5.42.14-5.55.13-6.09 2.04-39.41.27-4.61.4-8.26.41-9.07.54-11.65.54-10.15.41-12.06.13-10.96-.27-12.06-.27-5.96-.13-4.46-.55-9.48-.67-7.86-.68-7.45-.13-1.08-.41-3.93-4.47-34.94-6.23-48.48-.81-6.5-.95-7.45-1.22-9.2-1.76-13.28-1.22-8.66-2.3-17.74-.27-2.71-.27-2.17-.68-5.69-2.03-15.03-2.84-21.8-1.22-9.89-.41-2.97-.13-1.49-1.9-14.09-8.93-70.15-.95-7.58-.81-8.53-1.76-17.34-3.39-34.53-2.03-20.18-.27-1.35-.81-9.21-.41-2.84-1.22-12.87-1.35-13.54-.68-5.96-.68-5.55-.4-2.57-.68-5.15-.27-1.35.95-.14 2.3-.27.4-.13 11.24-1.63.14-.14 2.57-.27 2.17-.27 2.16-.27 1.09-.13h.81l6.36-1.09h.82l.81-.13 7.18-1.09.81-.13 2.16-.41.68-.13 2.03-.27 8.4-1.22 2.16-.14 3.25-.4 1.63-.27 2.98-.28 2.57-.13-.13-.95.27-.68-.14-1.62-.27-1.9-.27-1.35-.14-.54-.67-1.76-.95-2.17-.68-.27-.95-1.36-.54-.94-.67-.82-.82-.94-2.43-2.31-1.36-1.21-1.49-1.36-1.35-1.35-1.9-1.9-.95-1.22-.94-1.22-1.22-2.03-.14-.4-.4-.82-.55-1.49-.27-1.35-.4-1.9-.14-1.62-.4-2.3-.68-12.46 17.74-1.09 2.16-.4 31.69-5.55.54 2.98.95 5.82 2.3 11.64.81 5.15 2.98 15.98 2.17 10.7 5.14-.68 3.12-.54 2.3-.27 2.44-.27.4.13.68-.13 2.44-.27 14.89-2.17 13.81-1.9 11.11-1.62 2.16-.27 6.77-.95 6.77-1.08 3.25-.41 3.52-.54 1.76-.27 1.22-.14 1.09-.13 2.7-.41 6.78-.95 2.57-.4 3.92-.54 8.94-1.36h.27l10.56-1.49 4.47-.68 3.93-.54 9.48-1.35 4.87-.81 4.06-.55 1.49-.27 3.66-.54 1.22-.13 4.33-.68 3.39-.41 11.91-1.49 3.93-.54.13-.13 8.26-1.22 12.33-1.63 1.22-.27 5.41-.68 5.69-.81 8.39-1.22 5.01-.67 7.99-1.22 5.69-.82h.27l3.93-.67 4.33-.68h.41l2.57-.41 4.87-.54 4.2-.67 4.33-.68 2.31-.27 8.26-1.09 10.02-1.49.94-.13 1.22-.27 2.98-.41.95-.13 3.66-.41-.14-.68-.14-1.08v-2.57l.14-1.49.27-1.76.27-1.76.14-.95.54-2.03.95-2.3 1.35-2.58 2.03-3.79 9.62-18.15.4-.94.54-1.09.68-2.16.41-1.76.27-1.9.13-2.03v-1.9l-.13-1.76-.95-7.04-.41-2.17 6.77-1.08 16.39-2.3 9.48-1.22 16.65-2.44h1.76l1.36.41 21.53 7.99 7.44 2.57 9.75 3.66 5.82 2.16 6.91 2.71 14.35 2.71-1.22-14.63-15.57-80.57.54-.54 7.86-10.02 7.04-8.81.54-.54 5.15-3.79 6.09-4.6 7.72-5.01 11.1-7.05 3.52-2.3 3.93-2.17 1.76.28 2.98-.14 4.33 1.63 4.2 1.21 2.98 1.09 10.56 1.76 14.22-2.17 10.42 68.93 1.49 11.11 12.05 88.56 103.59 50.65 2.44.54.27-1.22 4.74-12.46 17.19-53.49 4.47-10.56 12.19-20.99 35.88-57.96 1.9-4.47 2.16-5.15 6.77 5.83 8.13 7.04 5.14 5.41 1.22 4.2-.54 1.49.95 1.9 12.59 7.99 9.89 3.65 3.24 3.12 2.17.95 2.71 1.22 1.35.67 7.72 6.5 10.83 12.73 44.96 34.81 23.56 21.26 8.8 10.02 5.82 6.23.55 2.3 15.7 24.51 21.4 36.02.54 2.3h.68l4.06-.54 1.76-.27 3.25-.67 1.62-.14 11.92-1.49h.68l.67.14.68.27.95.67 13.81 15.44 47.26-17.47 40.21-5.69 32.63-6.77 21.13-.27-1.36-.67-9.34-.82-.54-.67-.41-1.09.68-3.92v-1.36l-.41-2.17-.54-1.35-.68-1.35-.4-.55-.27-1.08v-.95l1.49-5.28.67-.81.68-.54.41-.54.67-.68 1.63-1.36.27-.54.27-1.08-.27-2.17-1.35-2.3-3.66-5.28-2.44-5.55-.13-.68-.14-.95-.13-2.3-.27-1.22-.41-.81-.68-1.09-2.16-2.3-.28-.27-.27-.95h-6.22l-1.49-.27-1.09-.4-.95-.68-2.16-1.63-2.85-2.7-1.21-1.09-8.4-3.65-1.35-.68-1.9-1.35-2.57-2.44-.81-.68-.68-.81-1.49-2.71-.41-.54-.67-.41-1.09-1.08-.54-.68-.68-.81-.4-.81-.54-1.49-1.9-2.58-.27-.54-.81-2.57-.54-1.9-.41-2.16v-2.31l.14-1.76.4-1.76 2.3-4.47 1.22-3.38.68-2.85v-1.62l-.14-1.76-.4-1.49-.41-.95-5.55-7.72-3.52-5.01-.81-1.08-11.92-13.54-2.17-6.64 1.76-6.91 2.17-10.96.27-1.77 1.22-10.15-1.35-14.36-2.98-5.01.4-5.41 1.49-3.52 3.39-3.53 2.71-3.92.13-1.09-.27-1.08-.81-2.03v-.68l.27-.13h.68l.67.13 1.09.54.54-.13.95-.27 2.3-1.36 2.03-.81 1.22-.13.54.13 2.57 1.08 1.9 1.22 9.07 7.72 7.45 7.04 1.89 1.63.82.41 2.7.81 6.64.81 2.98.27 5.96 1.22 7.31 1.22 7.04 1.49 6.63 1.62 11.78 2.31 1.09.27.4.4 1.36 1.22.54.54 8.39 1.49 10.7 1.49 4.6-.54h1.36l4.6.41 1.22.27 2.57.95 3.52 1.62 1.49 1.08.95.27h.54l6.91.95 19.9-7.31 7.45-8.13 5.01-2.03 2.03-.81 8.94-17.6 5.28-8.81 3.39 24.11.27 2.3.67 6.64.14.81.13.68.14.4v.14l.13.13.28.14-.82.54-1.89.14 12.73 73.53 33.44-4.88 5.15 36.03 13.54-1.36 2.03 13.82 53.35-8.27-4.06-36.29h.4l53.22-8.67 3.38.28 11.24-1.9h1.76l5.01-.68 1.63-.4 3.52-.68 5.14-1.76 3.66-.68 3.38-.54h1.36l1.35.27 2.57.81 1.09-.13.4-.14.55-.27.81-.81.54-.68.68-.4 2.57-1.09 4.06-.67 92.35-15.98v-3.8l.13-.4.27-.27.82-.41.13 1.49.14 1.22 1.08 10.97.14.95 1.08 13.54.27 2.57.68 5.69 3.52 27.9 7.04 49.69 10.97 77.47 10.96 79.49 10.16 72.72 1.76 11.92 5.15 36.7.54 4.33.81 6.91 12.32 93.84 2.44 12.73v.41l-.14.27-1.49 1.35-.4.54-.27.68-.41 1.36-.13.54-.14.67-.13.82-.14 1.08.14.81.4.95.14.54.4.54 1.76 2.04.68.67.41.41.4.41.14.4.4 3.93 19.23 132.03 3.79 25.46 13.95 101.98 2.03 15.43 30.06-4.19 11.92-1.22 98.03-12.87 96.14-13.41 96.14-13.27 75.01-10.56 21.13-2.98 96-13.41 96.14-13.4 94.65-13.54 97.08-13.55 28.84-3.92 40.22-5.69 4.33-.54 81.38-13.68 28.98-1.76 49.56-7.99 17.6-.41 25.86-2.98.27 2.04.14.81 1.35 9.88 1.36 9.62 1.08.54 1.76.95 2.57 1.49 2.58 2.03 5.01 4.33 6.63 7.18 3.79 4.6 53.62 79.77 7.05 10.7 10.96-1.76 42.39-7.05 10.96-1.76.27 1.76.28 2.98.67 4.2.41 2.84.95 7.32 1.08 6.36.13 2.71.82 6.5 2.71 20.99 1.35 9.21 1.49 9.48 1.35 9.34 3.93 27.36 2.44 18.42 1.22 9.34 1.35 8.94.54 1.89 1.22 2.71.41 1.9.13.81.14 1.22v2.84l-.27 4.47-.14.81-.13.95-3.66 13.95-2.17 9.75-3.38 10.16-3.79 12.59-.41 1.22-.41 3.66-1.89 21.39-2.17 19.77-.13 3.8-1.22 6.9-1.63 7.59-13.81 2.16-25.86 3.66-1.9.13-3.25.82h-1.62l-1.08-.27-.55.13-1.49.68-1.21.41-1.22.13h-.82l-1.08-.41-.54.14-.54.14-.81.81-.28.13-2.97.14-16.52 2.03-5.83 1.08-12.45 2.03-10.16 1.49-11.64 2.44-6.77 3.12-11.24 4.47-1.09.27-.4.27-.14.13-.13.14v.54l-.41.54-2.03.81-1.49.95-1.9.81-.94.55-.55.4-.54.27-1.76.82-.81.13-.95.95-1.62.41-3.66 2.03-1.49 1.08-.95.54-.67.54-5.96 2.85-2.71 1.49-2.84 1.08-8.8 4.33-.41.55-.41.54-.4.13-.68.27h-2.44l-2.57-.4-4.87-.14-6.37-.4-11.91-.28-10.29-.13-8.13-.27-3.25.27h-.95l-.67.13-1.76.82-6.23 1.62-.95.14-.68-.41-.4-.54-.27-.14-4.47-.4-5.28.67-2.44 1.09h-.68l-7.45 1.62-2.7.82-9.08 1.08-7.17 1.08-10.83 1.9-22.62 3.38-12.05 2.04-10.83 1.89-5.01.68-10.97 1.49-6.63.54-4.07.68-3.38.4-3.93-.27h-3.79l-5.15.27-2.7.68-1.76.68-2.44 1.22-5.55.67-.41.27-.68.55h-.13l-.41-.14h-.4l-.68.54-.68.14-.67-.14-1.49-.4-.95.27-2.98.94-4.6.28-3.53.54-1.21.4-1.09.14-5.01.27-1.22.41-2.3.4-5.68.27-2.04.41-2.43.54-6.77.81-4.2.55-8.53.81-6.1 1.22-7.71 1.22-14.22 2.3-4.06.4-2.98.27-.54.28-.82.81-2.03.95-.13.4-.27.81-.41.68-.68.68-.4.4-1.09 1.63-1.08 1.63-.68 2.03-1.49 2.7-1.62 1.63-.14.41-.13 1.21-.14.41-1.22 1.63-.54.4-.95 1.09-.81 1.49-.54 1.49-1.35 1.76-1.36.81-.81 1.49-.27.67-.14.68-.4.81-1.63 2.17-.67 1.22-1.76 4.06-.28.41-.94.41-1.09.94-.4.41-.27.54-.14.68-.27 1.35-1.49 2.58-.81 1.21-1.76 3.53-.54.81-.82.81-.94.54-.55.41-.27.68-.13 1.21-.68 2.71-.4 1.09-1.49 1.35-.27.27.13.54.27.82.27.13 1.22.14.95.13.54.41.27.67.14.55-.82 2.98-.54 1.21-.81 1.36-.41.4-.27.41-.27.54-1.08 4.88-.41 3.65-.13 1.76-5.01 17.88-1.09 2.84-1.21 7.72-1.09 4.07-2.44 10.02-.94 2.16-6.1 25.87-5.68 21.53-1.09 4.61-.27.67-.27 1.9.14 1.49-.27.54-.82 1.22-65.8-49.16-68.93-54.84-68.92-54.85-25.18-20.04-43.6-34.67-1.49-1.22-1.36-1.08-8.26-6.77-1.76-1.76-.67-.68-1.36-2.03-1.76-2.17-4.06-2.71-.54-.54-.68-.68-1.08-1.49-1.63-2.16-.67-1.22-.55-.81-.67-.27-2.71 3.92-1.9 2.03-1.08 1.49-1.9 2.31-.94 1.89-.27 1.49v5.82l-.41 5.01-1.35 11.11-1.22 7.99-.55 2.3-.4 1.36-.68 1.48-.4.95-.82.95-1.22.81-17.87 12.33-11.92 7.17-2.03 1.63-3.79 5.01-3.11 4.87-1.36 2.04-.67 1.62-4.34 5.69-6.5 6.91-10.02 9.34-4.87 5.01-2.17 2.17-2.84 3.11-9.88 9.62-4.88 5.01-2.03 1.76-1.76 2.16-.68 1.09-.13.54-.27 1.22-.14 2.3-.27 9.21 1.22 18.28.27 1.9.13 5.14-.54 2.17-.4 2.44-.82 3.38-.13 2.17-.54 2.44-.14.27.41 5.82.13.68.14 1.22v.54l-.27 1.62-.81 6.1v.95l-.14 3.25-.14 1.62-.27 3.11-1.62 7.86-.27 1.35-1.22 3.52-2.03 5.02-.81 1.62-2.71 5.15-6.91 8.8-6.23 7.72-4.19 6.09-2.71 2.85-.81 1.21-1.63 2.85-1.35 2.71-1.9 4.87-1.89 3.12-.82.94-.81.68-1.35 1.22-2.85 1.76-2.43 1.63-5.56 2.97-4.33 2.31-1.62.94-1.09.55-5.96 2.98-6.63 2.3-1.22.13-5.96-.4-.94.13-1.63.54-.27.55-1.22 2.3-6.9 12.59-2.58 5.42-.54 1.9-.13.94-.28.54-.67 1.22-2.3 4.74-1.22 2.58-3.66 5.68-4.2 5.83-2.16 2.16-1.36.82-.81.54-.95.68-.95.4-2.43 1.63-2.03 1.76-.68.54-2.03.95-5.01 1.62-2.44 1.49-.68.81-.13.82-1.08 2.84-3.53 6.36-1.08 2.04-.95.94-2.84 3.12-1.08.68-.41.4-1.9 2.58-.81 1.48-1.08.95-2.3 2.3-1.63.55-2.03 1.49-1.08.4-2.44 2.17-.95.54-1.22.14h-.81l-2.3.27-.81.54-5.55.81-2.31.14-1.76.4-1.08.82-.27.94-.14.14-.13.41.27.13v.14l-.27.27-.27.54-.14.13-.54.41-.54.54-.81 1.76-1.36 2.03-.4 1.09-2.71 3.65-2.03 5.01-.54 1.63-.41.54-.95 2.44-1.35 2.03-.54 2.03-.14.81-.54.68-.27 1.08-.27.82-.41.4-.13.82-.14.27-.14.27-.4 1.22-2.57 4.19-1.36 2.04-.68.54-.94 1.89-3.12 4.2-.13.68-.54.54-.28.54-1.89 2.57.13 1.09-.13.27-.54.27-.27.68-.54.4-.28.68-.13 1.22-.54.81-.54 2.03.13.27v.68l-.68 2.57-.4 2.85z" stroke-linejoin="round"/></defs><use xlink:href="#d" fill="#9dc8ca" stroke="#9dd7f0" stroke-width="5.76"/><defs><path id="e" d="M736.2 1191.16l-6.77 1.09-2.84.27-4.06.54-1.36.14-.81.13-.95.14-3.38.54h-.95l-5.01.81-1.35.14-1.49.27-1.36.27-.81-.27-5.55.81-1.36.13-.54.55-5.82.67-3.38.54-1.09.14h-.54l-3.52.54-2.3.27-.95.14-1.22.13-5.69.82-3.92.54-2.03.27-6.91.95-2.71.4-2.84.41-.41.13-.94.14-2.44.27-1.76.27-1.63.14-2.98.4-6.22.82-4.47.67-6.91.95-2.3.27-1.9.27-4.47.54-2.16.41-2.44.41-6.5.81-3.79.54-1.49.27-6.36.81-1.09.14-4.74.54-3.52.54-.67-4.33-.14-1.63-.54-2.84-.27-2.57-.41-2.3-1.08-6.78-.27-1.89-.27-2.03-.27-1.63-.41-2.3-.13-1.08-.68-2.71-.41-1.49-.27-.95-.13-.54-.14-.54-.14-.41-.4-.95-.68-1.76-.27-.95-.41-.81-.13-.4-.14-.14-.27-.68v-.13l-.54-.81-.27-.68v-1.36l-.27-.67-.41-.82-.67-1.35-2.71-5.69-.27-.4-.27-1.09-.14-.54-.4-.95-.82-1.76-.27-.67-.4-.95-.41-.81-.41-.82-.4-.81-.41-.81-.41-.81-.27-.82-.27-.67-.27-.55-.13-.67-.27-.68-.14-.41-.27-.94-.14-.82-.13-.54-.14-1.08-.27-1.09-.13-.67-.41-.54-.68-4.47-.27-1.36-.4-3.38-.41-2.44-.41-2.44-.94-7.18-1.63-10.96-.13-.55-.82-6.5-.27-1.08-.81-5.82-.27-1.49-.27-2.3-.27-1.09-.41-2.98-.13-.95v-.67l-.68-3.39-.41-3.79-.27-1.76-.13-.81-.41-2.85-.81-5.55-.54-4.06-.41-2.17-.13-1.62-.28-1.36-.4-3.79-.41-2.57-.13-1.09-1.09-7.31-1.08-7.31-.81-5.28-.54-4.34-.68-4.74-.41-3.65-1.22-7.86-.27-2.03-.27-2.71-.27-2.03.54-.95-.27-.67-.67-3.93-.14-1.9-.41-2.84-.27-1.35-.13-1.09v-.81l-.14-.81v-3.66l.14-1.08v-.54l.13-1.22.27-2.44.27-2.84.82-7.72.13-1.76v-1.63l-.13-1.08v-.81l-.14-1.09-.13-.95-.14-1.08-.27-1.35-.54-3.66-.14-.54-.27-2.57-.4-2.31-.27-1.76-.28-1.89-.4-2.85-.95-6.36-.41-2.44-.27-2.03-.27-.95-.27-1.89-.68-4.07 5.01-.81 5.83-.81 5.41-.81 10.16-1.49.95-.14 5.28-.81.95-.27 3.92-.54 6.5-1.09 4.06-.67 2.31-.28 6.9-1.08 4.33-.68 14.76-1.76.55-.13 7.98-1.09 8.4-1.35 7.58-1.08 7.04-1.09 6.91-1.08 3.66-.68 6.09-.81 3.11-.41 1.22-.13 5.42-.95 1.08-.13 7.99-1.22 8.53-1.36 4.88-.67 1.89-.28 6.77-.94 3.52-.68 3.25-.41 3.52-.54 3.25-.54 3.52-.54 3.25-.54 6.77-.95 3.66-.54 4.33-.68 2.84-.54 2.04-.41 4.74-.68 4.33-.4 2.3-.27 7.58-1.09 10.56-1.49 7.45-1.08 20.99-3.25 5.01-.68 4.2-.67.4 2.57.27 1.63.41 3.11.27 1.9 1.63 9.48 2.03 13.67.67.95.55 2.98v.95l.94 7.18v2.84l.14 1.62.13 6.64.41 3.66.81 6.5.68 4.87.68 4.06.13 1.09.14.81.95 8.67.81 4.06.27 2.3.41 2.85.94 6.22 1.22 9.08 1.63 12.05 1.89 13.81 1.36 10.43.13.81.14.55v.81l-.41 1.22.81 9.07.14 1.22.41 5.14 1.21 11.11.41 4.06.14 1.22.27 1.49.27 2.03.95 6.77.94 7.86.95 6.63.27 2.71.54 2.71v.13l.68 3.66.14.54.13.82.27 1.08.27 1.08.14.54.4 1.22.41 2.03.14.14.27 1.62.27 1.49.81 4.47.14.68.13 1.35.41 3.53 1.89 12.86 1.09 6.91 1.08 8.39.54 3.12 1.08 7.85.82 4.61.54 3.11.4 3.52.55 4.61-3.52.54-2.58.4-10.83 1.36-4.74.68-1.22.27-2.43.27-1.36.13-2.03.27-1.22.27-3.65.41-3.39.54-.41.14-2.3.27-2.71.4-2.84.41-2.84.27-2.71.41-2.84.4-2.85.41-2.84.41-4.61.81-2.03.27-1.08.14-.68.13-.94.14-1.09.13-.4.14-.82-.41h-.27l-6.23.95-4.06.68-.68.54-2.84.4-15.71 2.58-1.35.13-6.77.95-6.91 1.08z" stroke-linejoin="round"/></defs><use xlink:href="#e" fill="#9dc8ca" stroke="#9dd7f0" stroke-width="5.76"/><defs><path id="f" d="M56.06 422.51l-.54 1.63-.68.81-.27-.13-1.08-.41-1.76-.95h-.82l-.13.14-.14.54-.27.81-.68.54-1.49.27-.67-.4-.95-2.44-2.98-2.3-.13-.27-.55-.14-.54-.68.41-1.08v-1.49l.4-.54 2.85-1.08 2.16-1.49 2.04-1.63 2.16-2.44.95-.81 1.49-.68.95-.13.13.41-.27 5.14-.68 2.85v2.16l.41 1.76.68 1.09v.94z" stroke-linejoin="round"/></defs><use xlink:href="#f" fill="#9dc8ca" stroke="#9dd7f0" stroke-width="5.76"/><defs><path id="g" d="M95.06 376.06l-.82.82-.4.13-.27-.27-.41-.4-.81-1.09-.41-.4-.27-.55-1.08-.4-1.22-1.49-.95-.95-1.22-1.35-1.35-2.04-.54-.94-.68-.95-.14-.54.14-.54.81-.82h.54l1.22 1.49 1.08.95.28.68.4.27.41.13.27.27 1.08 1.49.54.82 2.85 3.11.95 1.76.13.41-.13.4z" stroke-linejoin="round"/></defs><use xlink:href="#g" fill="#9dc8ca" stroke="#9dd7f0" stroke-width="5.76"/><defs><path id="h" d="M621.92 28.3l2.71 18.83 1.22 8.8 1.76 12.86.27 1.9 21.53-3.11.68 5.14-15.31 2.17-.67.13-.14.14v.4l.14 2.04 2.16 15.98.14.4.54.54.54.27h.68l2.3-.27 1.76.27.81.28 1.36.54 2.57 1.76.54.67 1.22 2.31.41 1.49 1.35 9.48-5.41.94-.68.41-1.22.81-.95.82-2.16-2.31-1.09-.81-1.22-.13-3.79.4 3.39 26.27.13 1.22 6.91-.95 2.71-.13h3.38l2.17.13h1.35l1.76.27 2.03.28 2.03.4 2.04.54 1.89.55 2.03.67 1.9.68 2.03.81 1.76.95 1.9.95 14.75 7.85 1.9.95 1.9.81 1.89.68 1.9.68 2.16.54 2.03.54 18.15 3.79 2.03.41 2.03.4 1.9.41 2.16.27 1.9.14 2.17.13h2.03l2.03-.13h2.16l2.04-.27 31.68-4.34 7.04-1.08 1.9-.27h.95l1.08-.14 1.35-.13h5.42l1.35.13 1.49.27 1.49.14.27-.14 7.86 1.76 3.25.55 2.03.13 5.01-.27 3.52.27 2.16.41 2.04.81 1.76.95 2.16 1.62 1.22 1.22 2.3 2.98 1.22 2.3.68 1.49.68 2.03 1.89 14.22.41 1.63 1.22 3.52.94 2.3 1.9 2.98 1.35 1.63 2.58 2.7 8.39 5.83 1.36.95 3.92 2.03 1.49.67 5.28 4.2 1.9 1.36 5.14 2.57-.67 3.52-1.49 3.79-4.2 9.21-1.35 4.33-.68 2.31-2.98 8.53-.27 4.87 4.74-4.33 1.62-.54-.94 1.49-.14 1.49.41 3.11.27 2.3-.14 1.63-.4 1.49-.95.95-.41 1.76 1.49 12.46 1.08 1.62 1.36.81.95 1.49.4 2.98.41 2.58.4 4.06.14.27.14 1.08.54 1.63 3.11 9.61 2.98 21.4 2.44 10.02-.41 6.09.27 1.63.27 2.03.68 5.15-.14 3.38 1.36 24.78 1.89 5.15 1.49 8.26.27.68 2.17 5.96 2.3.81-1.76 3.25.27 1.76.27 5.69 3.52 14.49-1.08 5.14.41 2.58-.14 2.57v2.71l.41 4.33 1.08 3.66.27 1.89v3.25l.14.82 2.3 8.53.41 2.44.27 2.43 1.22-.13.4 3.11v.41l.54 4.33 1.49 9.48.14.81.27.14.54.41.68.13.27 1.22v1.08l-.14 2.58.14 1.49.27 1.08 1.22 2.44.54.67.68.68.81.54 1.35.68.95.13 1.22.14 1.22-.14 1.49-.27-1.49 2.98-5.55 6.77-4.61 5.42 5.69-.81 10.16-1.36 3.65-.54.95-.13.81-.14 3.66-.4 2.84-.41 27.22-3.79 8.53-1.22 10.29-1.36 7.58-1.08 5.96-.81 26.13-3.52 4.47-.68 3.12-.41 2.57-.27 11.91-1.62 3.25-.54 4.88-.54.95-.14 2.03-.41 2.84-.4 2.98-.41.68-.13 2.71-.28 5.55-.94h.13l5.28-.82.68-.27 1.22-.27.68-.13.94-.27 2.31-.55 1.89-.4.41-.14 2.16-.54 1.76-.54 2.85-.68 5.41-1.35 1.9-.54 2.57-.82 4.06-1.21 5.01-1.49 2.31-.55 1.76-.27 1.35-.27 2.71-.4 1.35-.27 3.52-.41 2.17-.27 3.66-.54.67-.14 12.87-1.76 2.84-.41 3.93-.54 4.06-.54 2.98-.41 2.3-.4 6.36-.95 5.42-.81 3.79-.41 3.25-.54 10.02-.95 2.85-.4 3.25-.41 2.16-.27 2.03-.41 5.55-.81h.28l1.08-.14 5.55-.67 4.06-.54 7.45-1.09 6.23-.95h4.06V463l-.13 4.34v3.93l-.28.4-.13.27-.41.27-.4.14h-1.63l-.54.27-1.49-.14h-1.76l-2.03.14-15.03 2.03-1.49.41-1.22.54-.95.81-.81.95-.54 1.22-.54 1.49-.14 1.35.54 3.79.95 6.5-.54 1.76-4.33 8.13-.68 2.17-.14 1.76 8.26 26.4-3.92.68-3.52.81-.41-1.35-1.35-3.79-.55-1.49-.67-1.49-.41-.14-9.07 20.18-21.26-15.03-5.28-3.79.14.95.94 1.08.27.95v.54l1.49 9.34.82 5.42-13.27 3.11-.41.14-19.77 4.87-1.08-.4-17.2 2.98-5.28.54-1.76.13-1.22.14h-2.44l-2.98.27-3.25.41-8.93 1.35-9.89 1.36-2.57.4-4.33.54-3.52.41-.82-.27-.94.13-1.36.27-4.87.68-11.92 1.36-16.52 2.16-2.84.27-3.79.55-2.85.27-.81.13-9.61 1.36-7.31.81-6.91-6.5-5.42-.41-25.05-2.03 7.59 4.2-14.49 3.25-15.17-1.36-15.98 2.31-1.76-6.91v-.68l-.81-2.3v2.71l-.27 1.22-.27.95-.95 2.03-1.49 2.16-2.84 3.66-.27.41-1.22 1.35-1.62 1.36-3.93 2.97-1.49 1.22-1.22 1.63-2.71 4.2-1.22 1.08-1.22.68-.81.27-29.25 4.47-.27.13-7.44 1.22-2.58.27-7.17 1.22-6.77.81-6.1.68h-.27l-.54.14h-.4l-.41.13-6.09.95-6.91.81-7.45 1.08-21.8 2.71-6.77.95-9.21 1.08-7.44 1.09-7.45.81-6.77.95-6.5.81-3.11.41-6.77.81-3.25.41-1.22-.14-.54-.13h-.41l-.27-.14-.68-.14-.54-.27-.54-.27-.54-.4-.95-.55-2.17-1.35-.68-.27-.54-.41-1.08-.54-.68-.27-.67-.13-.55-.14-.4-.14h-2.71l-1.35.28-2.17.4-1.08.14-.41.13-1.63.14-1.48.27-1.09.13-1.08.14-3.12.54-1.21.27h-.68l-.95.14-2.71.4-4.47.95-2.16.41-.68.13-.95.27-1.35.28-.95.27-1.22.13-2.98.54-2.16.54-1.9.41-1.62.27-.54.14-2.04.27-1.76.4h-.54l-.13.14-1.09.14-3.65.4-1.49.27-2.03.27-1.22.14-4.2.4-1.76.28-1.08.13-8.67 1.08-2.71.41-1.49.14-.54.13h-.54l-2.84.41h-.41l-2.98.54-3.52.27-3.66.54-2.16.41-1.9.13-2.98.41-1.62.27-1.36.14-3.38.4-.95.14-5.28.68-2.44.27-7.85 1.08-2.44.27-1.76.27-2.71.27-4.06.54-2.44.41-5.01.68h-.54l-2.16.27-2.17.27-1.49.13-1.35.27-1.76.28-1.49.27-5.01.67-2.58.55-2.3.27-3.25.54-.95.13-1.76.14h-1.08l-.81.13-.95.14-.81.13-.81.14-1.36.27-1.08.27-2.03.41-1.36.27-1.49.13-.81.14-1.22.14-1.49.13-.94.14-.95.27-3.25.54-4.06.54-1.63.27-2.17.27-1.62.27-1.49.27-1.49.27-2.98.41-2.3.54-3.93.54-.4-.13-.95.13-3.79.41h-.81l-2.17.41-1.08.13-1.76.27-.82.14-.95.13-3.24.55-1.63.27-16.38 2.16-1.49.27-2.44.27-.41.41h-.67l-3.25.41-1.63.27-3.52.4-5.42.68-.4.14-9.21 1.22h-.81l-.68.13-.95.14-4.33.67-7.31.95-2.44.27-8.12 1.09-3.93.4-2.57.41-1.49.13-.81.14-2.44.41-7.04 1.35-1.22.27-2.44.41-2.98.4-.27-.13h-1.22l-1.08-.27-.54-.14h-.27l-.41-.27-.27-.13-.41-.14-1.08-.68-.68-.4-.94-.41-.55-.41-.67-.54-.27-.27-.55-.68-.4-.81-.68.54-.54.41-.95.68-.95.54-1.49.95-1.48.67-1.22.55h-.27l-.55.27-.54.13-1.22.27-1.62.41-1.63.27-1.49.13-1.08.14-7.04.95-12.59 1.89-3.79.55-2.04.27-4.6.54-9.07 1.08-1.9.27-.54.14-5.01.81-3.11.54h-.54l-1.76.14-.95.27-1.76.27-3.25.41-2.17.27-2.03.4-2.03.41-2.03.41-1.36.27-1.89.54-.68.13-2.17.68-3.25 1.08-3.65 1.36-1.76.81-.95.27-2.57 1.22-.68.41-.68.13-.94.27-1.09.41-.54.13-.54.14h-1.35l-.55.14-3.65.4-6.64.95-1.35.41-5.01.54.27 2.3-.41.95-.13.27-.14.54-.27 2.3-.54 6.37-5.01-1.49-.54-3.79-4.61.4-3.38.27-.95.14-1.49.13-2.03.27-5.42.68-1.62.27-2.17.27-4.19.41-.41 1.76-1.63 3.11-5.95-3.65-1.49.4-.82-2.43-2.84-10.43-5.14-15.03-2.58-6.37-7.04-18.69-7.85-24.24-.41-.94-.27-1.09-.68-1.08-.81-.95-3.65-4.47-.55-2.03-3.11-6.36v-1.63l-.27-2.3-.27-.95-1.76-.68-2.44-2.97-1.22-2.98-1.08-1.49-.95-1.76-1.62-.68-1.22-1.76-.54-.95-1.49.14-.55-1.36v-1.22l.14-6.9-.68-2.17-1.49-2.84-.54-1.36-1.22-2.44-1.62-3.38v-2.57l-.54-1.77-.95-2.3-.95-.4-2.71-5.56.41-2.03-1.22-2.16-4.74-10.03-4.47-7.85-8.8-16.93-3.52-7.04-2.71-5.01-3.65-5.96-1.09-.81-6.77-8.13-3.92-4.74-2.44-2.7-2.84-5.42-.82-.68-.94.27h-.82l-3.38-4.33-2.57-3.25-2.71-2.98-2.71-2.17-1.63-1.35-3.38-3.39-1.36-1.08-2.43-2.03-8.94-7.45-1.08-.68-.95-.54-.95-.68-4.33-2.16-1.49-.68-1.08-.81-2.71-1.09-.27-.27-3.66-3.11-.27-.54-1.49-2.3-3.66-6.1-4.06-6.36-.81-2.44-.14-.41-.67-6.23-.14-4.33v-2.17l.54-1.76.82-.81 1.35-1.35.95-.41 7.31-1.22 3.93-1.89 2.84-2.17 3.79-2.44 3.12-2.71 1.76-.67 1.62-.14 1.49.27 1.49 1.08 1.22 1.36.13.4.28.82.13 1.35-.13 1.76-.68 1.76-1.22 1.36-3.25 1.49-3.11 2.16-1.49.68-.41.68.14.81.94 1.22 1.36 1.35h.54l1.08-.81 3.93-3.52 6.5-5.55 2.03-1.22 2.44-2.17.67-1.08.14-.54-.27-.82-4.61-7.04-1.76-2.16-1.49-.68-.81-.68-2.3-3.25-.41-.54-.67-.27h-.54l-1.9.95-1.62.54-.82-.27-1.08-1.49-.95-.95-.54.27-.81.95-.27.4-.14.41.14.54.4.68 1.09 1.22.81 1.08.4.95v.95l-.67.4-.95-.13-.81-.41-1.22-2.03-.41.14-.27.67.27.82.95 1.08.27.68-.4.94-1.77 2.31-.94 1.76-.68.67-.68.41-1.08.27-.54-.54-.27-.68-.14-.67.41-1.22v-.95l.68-2.17.4-1.49 1.9-3.38L74.2 359l.95-1.62.68-1.36 3.79-5.01 1.49-2.03 2.3-2.17 1.08-.27.82 1.22.13-2.03.68-.41 1.08-.67 7.99-5.69.27-.27.27-.27.14-.14.13-.27v-2.98l.14-.54v-.41l.13-.4.14-.27.27-.41.14-.27.4-.27.41-.54 1.22-1.09.27-1.76 22.88-4.19 7.58-1.36 2.03-.68.55-.81.81-2.84.95-1.63 1.35-1.22.81-.67 3.12-1.09h1.35l1.22-3.52-.41-3.38 10.3-1.49 1.08-.41.13-.41v-.94l-.27-1.76-2.43-18.42 4.46-.68.55-.4.4-.55-1.22-8.12 12.19-2.17 2.44-.27.81-.13h.81l1.09-.28h.27l.67-.13.68-.27.54-.41.41-.4.27-.41.4-.81.41-1.36-.27-.27-.27-.13-.14-.27-.13-.28v-.4l-.14-.27v-.41l-.94-6.9-.55-4.07-.27-2.03-.67-4.74-.41-3.11-.14-.41v-.27l.14-.27.14-.14.13-.13.27-.14h.41l9.48-1.35h.81l.13.13.41-.27.54-.13.81-.14 8.53-1.35.55-.14h1.49l.54.27.4.41.27.41v.54l.14.4.27 1.09v.4l8.26.27 13.27-1.89-.81-4.74-.68-4.47 3.12-.41 3.24-.4 2.71-.41 3.39-.54 4.47-.54 2.3-.41 14.35-1.89 5.15-.55 12.73 2.31.4-.14 2.98-.54-.81-5.96.27-1.08.13-.41.27-.95-1.62-4.47-.27-1.08-.68-5.15 6.23.14 1.35 3.93 1.77 14.08 1.35-.27.95-.41.13-.13.54-.54 1.49-1.49.41-.68.68-1.08.27-1.09v-1.35l-2.98-19.23 5.96-.81.54-.14h.27l.13-.13.28-.14v-.14l.13-.13v-.95l-.13-.81v-.27l.13-.81.14-.28-.27-1.89-.41-2.84-.27-.95-.41-1.36-.27-1.08-.27-.27-.13-.14h-.28l-.54-.13-.4-.14-.82-.13-.27-.14-.27-.13-.13-.14-.14-.27-.13-.14-.14-.4v-.14l-.13-.54 1.48-.13.95.4h.14l2.71-.4 7.71-1.09.68-.13 1.36-.14 9.47-1.35 4.2-.54h.41l5.55-.82h.81l3.52-.4 7.59-.95 1.08-.14 1.35-.13 3.25-.41 9.21-1.08 3.93-.41 5.01-.68 11.37-1.35 2.98-.27 7.18-.95 7.71-1.08 16.93-2.17 1.35-.27 8.26-1.08 4.47-.54 6.37-1.09 1.76-.27 4.87-.68h.81l2.03-.27 2.17-.27 3.12-.54 4.6-.68.95-.13.81-.14 1.22-.67 5.14-.68 11.11-1.36.67-.13 5.42-.81 10.97-1.36 11.64-1.62 13.81-1.76 5.29-.68 4.73-.54 10.43-1.49 7.58-.95 1.09-.13 5.01-.55 5.68-.81 5.83-.81 10.96-1.76 4.47-.68 4.88-.81 2.43-.41 2.17-.54 3.66-.81 3.65-.81 2.58-.55 2.03-.27-.27-2.03V143l-.14-.94-.27-2.31-.27-1.49v-1.08l.13-.54.14-.54v-.41l.27-.54.14-.41.13-.27.27-.54.41-.54.54-.68.41-.54.94-1.08 1.63-1.63 3.38-2.57 1.9-1.76 1.08-1.22.41-.68.27-.54.14-.4v-1.09l-.27-.54-5.83-6.91-.54-1.22-.41-1.21v-2.31l.14-4.6-.27-1.49-.27-.95-3.52-5.41 3.38-2.58 3.12-2.57 1.22-1.35 5.28 4.46 1.22 1.49.54.95 1.22 2.3.67 1.63 2.03 6.36.27.68.55.68.81.27.68.27h.81l5.55-.81.68-.27.67-.41.68-.81 1.36.67.81.28 5.55-.82 1.08-.27 1.09-.81.67-.81-1.49-20.45.41-.41.13-.81-1.62-11.92-.14-1.22-2.3-15.43-.27-.68-1.35-1.22-8.94-12.32-.95-7.18 13.54-1.9-.4-3.11 1.08-.14z" stroke-linejoin="round"/></defs><use xlink:href="#h" fill="#9dc8ca" stroke="#9dd7f0" stroke-width="5.76"/><defs><path id="i" d="M1041.27 2195.99l-6.36.95-17.06 2.43-9.75 1.36-3.66.54h-.81l-.81-.14-.95-.27-.81-.54-.95-.68-.81-.94-.14-.27-.54-1.09-.27-1.62-29.25 4.33-2.16.41-2.44.94-.95-1.08-3.11-6.5-2.31-4.47-4.06-9.07-.4-.81-.55-1.36-.54-.81-1.89-2.3-.82-.81-.4-1.36.4-1.22.95-.67 1.9-.41-.54-5.42-.54-2.03-.28-.54-2.97-8.94-1.76-5.55-.68-2.57-.81-2.04-.28-1.08.55-.4 2.43-.55h.27l-.4-2.16-.27.13-2.58.27-.67-.67-.41-1.76 1.22-.28-.68-2.7.27-1.09-.54-3.38.54-1.49.55-.27 1.08-.82 3.25-1.76-1.49-6.23-1.35-2.7h-1.36l-4.06.27-3.93-.82-3.65-.4-11.51-1.36-4.2-.13-1.22-1.08-.14-1.63 1.49-2.57 7.45-4.2 4.2-1.9 2.84-.94 1.36-.14 2.57.41 1.49.4 2.44 3.12 2.03-1.49 1.89-6.77.82-.55.81-.13 1.49 1.22 3.38-1.76-1.08-4.74-5.01.95-4.2 8.39-1.62.81-3.25-.54-1.63-.4v-.55l.27-.54 1.49-1.08.68-.95.27-.54.27-1.08h-.27l-.41.13-1.08.81-1.49 1.36-.81.68-1.35.67-1.77.95-2.43 1.08-1.49.82-.27.27v.67l-1.36.68h-.13l-.41-.4h-.27v-.14l-.81-2.03-1.09-2.44-.13-9.07-.27-4.47-2.57-9.34-3.12-9.48-3.93-3.66-2.57-1.08-2.57-1.76-2.17-1.36-4.47-4.2-12.32-8.93.14-6.23-.14-6.37-1.35-3.38-.41-4.88-1.35-1.35-1.49-.27-2.57-3.25-1.49-2.31-6.5.54-1.49-.27-.81-1.08v-.27l1.21-.95 1.9-1.62-.81-1.09-.68-.27-1.49 1.49-2.03-.81-.95-1.35-1.08-1.09-.54-.54-1.22-2.03-2.3-1.36-2.03.55-3.66 5.14-2.44 3.12-3.52 3.79-1.62-.81-2.58-1.22-1.76-1.9-.81-2.16.81-1.77 6.64-8.12 3.52-2.98 3.11-2.71 6.77-10.83.68-2.98 2.57-1.9 2.85-1.49.13-.81-2.84-.95-5.01 4.74-.95 2.58-9.48 9.2-8.26 7.05-2.03 3.11-1.08 2.03-1.36 1.49-3.11.27-2.44-2.84-1.89-2.44-.27-1.08.81-1.09 5.41-7.58.41-1.35-.54-1.22-1.22-.81-2.03.81-2.17 2.44-1.22 1.76-1.35 1.08-.81.27h-1.36l-.94-.27-1.22-.68-.82-1.08-1.48-2.57-.28-1.22-.13-1.36.68-1.22 1.35-1.08 1.63-1.49 1.21-1.49-.27-1.89-1.76-.41-1.76.68-1.89.94-1.63.28-1.76-.55-1.76-1.76-.81-1.89-1.76-3.79-.14-1.22.41-.82 1.08-.54 16.25-2.44 1.08-.94-.94-.95h-1.22l-1.09.27-1.08.27h-2.44l-1.76-.68-1.08-1.22-.54-3.52-.95-1.76-9.07-7.31h-.81l-.54 1.22.27 1.08 3.92 4.07 1.9.94 1.22.54 1.08.55.41.67.54.68.13.95.27 1.49-.4 2.3-2.98 1.49-1.76.27-2.44.54-2.16.27-2.31-2.71-1.62-1.35-1.63-1.08-1.89 1.22-2.03 1.89-1.76 2.44-.68 1.08-.54 1.63-.27 1.89-.41 1.09-1.76.95-4.87 3.52-4.2 3.38-1.36.68-1.35.13-1.22-.27-1.62-.94-1.63-1.36-.68-1.08-.67-1.63-.27-1.08-.14-2.3.54-1.22.27-.81 1.09-1.22 1.35-1.22 1.08-.27.95-.14 1.22.27 1.76-.13 1.36-.27 1.48-.68 1.63-3.12 5.42-6.36.81-1.22-.14-2.03-.13-1.08-.68-1.63-1.62-1.49-2.04-1.35-1.62-.41-1.22-1.08-.54-.27-1.35-1.09-.55-.81-.4-.81v-1.63l1.22-4.33.67-1.9 1.63-1.76 2.16-1.08.41-.81-.41-1.36-.27-.67-.94-.41-1.22 2.3-2.17 2.58-2.3 2.7-2.17 1.36-.95.13-1.89-1.22-2.17-1.62-2.44-2.44-2.97-5.82-.14-2.3.27-1.9.41-1.35 1.08-1.36.95-.67.27-.82-1.08-.27-.55-1.35-.54-.41-.81-.81-.81-4.33.81-1.22 1.08-1.09 1.22-1.89.41-2.3.27-1.76-.14-.95-.54-1.63-.67-1.22 1.62-1.35.41-1.08.13-4.07-.54-1.62-.41-.54-.54.13-.27 1.22-.54 5.28-1.76 1.09-1.35.27-2.17-.27-2.17 1.21-.67 2.17-.82 1.9-.54 2.3-.95 1.08-1.35.54-2.17.55.54 1.21h1.09l2.84 5.15h.81l.95.41.68 2.57-.27 1.35-.54.14-3.25-.81-3.93-.95-2.84-.81-.95-.27-.81-.95-.82-.81-.54-1.36-1.22-1.76-1.08-1.08-.68-1.49-1.08-2.17.27-1.08h.68l.54.27.54 1.22.81.54.68-.41.14-.81-.28-.81-.54-.68-1.49-.95-1.35-.81-1.76 1.9-.95 1.21-.95.41-1.49-.81-8.26-5.42.28-1.35.54-.82.67-.67 7.59 4.33.54-.27.54-.68-.14-.54-.67-.81-4.61-2.85-1.89-1.48-.68-.55-.13-.67.27-.82 10.29-21.26.13-1.35.14-5.28.13-2.17-.4-4.06-.68-2.98-1.76-2.03-1.08-1.36-12.73-11.64-1.22 1.49 1.9 1.49 10.42 9.88 2.85 3.39.4.81.27.68.27 1.08.27 1.63-.13 3.11-.14 1.35-.4 1.22-.41.54-.54.14-.54-.41-.95-.81-12.86-12.46-.41-.54-.68-.27-.54.14-.27.67 15.17 15.03 1.21.55.95 1.49-.13 1.08-7.18 14.62-4.2 7.86-2.43 3.52-.28.41h-.54l-.67-.55-.82-.54-.67-.81-.82-.95-1.49-2.03-1.08-1.08-1.62-.54-4.88-1.76-2.84-1.22-4.06-1.76-5.28-2.58-4.34-1.89-3.52-1.9-4.06-1.22-3.39 2.98-13.27 3.66-1.08-1.22-1.35-.68 4.74-6.09 2.57-3.25-.41-.27-.54-.54-2.16 2.7-5.42 6.64-1.63-1.08-.81-.95-2.03-3.79-.68-.95-.54-.95-.81-1.35-.41-.95-.81-1.22-.54-.95-.68-1.49-.95-2.44-1.08-3.79-.41-1.22-.4-2.57-.54-3.93 3.65-12.32.54-2.17-4.46-2.3 1.35-7.99-3.11-3.38-8.4-3.12-1.62-.54-1.9.14-3.11.67-6.1 2.3-.81.41-2.03-1.89-1.36-.28-.54-.13-1.22-.14h-.67l-.41-.54v-.4l.68-.55 1.89-.67.82-.41.27-.41-.27-.81-.41-.4-1.22-.14-8.66 4.47-9.08-11.78 1.63-.95.13-.27 1.09-.41h.81l1.62 1.36.68.94.68.68 2.3 1.36 3.93-2.04 28.16-14.21v-.68l-.68-1.22h-.27l-31.14 16.25-.95-.68-2.03-2.57-1.89-2.57v-.55l.4-.27 27.76-15.84 7.31-4.33-.68-1.09-21.52 12.06-13.68 7.99h-1.22l-2.3-3.53-1.76-3.65 37.24-20.99.81-1.49-.81-.68-.82.27-30.19 17.34-2.17-3.66 5.28-3.52-.81-1.76-6.37-12.05-3.79-5.56-4.06-3.52-4.2-2.03-2.84-2.17-2.17-2.16-.54-.54-3.92-3.39-6.64-6.36-2.98.4-1.49.81-1.35 2.04-2.03-1.09-2.71-1.35-10.02-8.13-1.76-1.35-2.03-.81-.68-.82-.95-1.35-.95-1.76-.54-1.76-.81-3.39-.27-.27-2.57-3.65h-.41l-.27-.14-.95-.27-1.22-.95-16.52-41.84.95-2.44.27-4.2-.95-.81-1.89-.14-2.57-5.55-.41-1.9-.81-2.3-.27-1.08-.68-2.17-.41-5.41-.27-2.98h2.58l1.48 1.76.55 1.62-.41 1.36-1.49 1.35-.68.54.41 1.22v.54l.54.54 1.08 1.49.95 1.63.41 1.22v1.89l1.49 1.22 1.35-.4 1.22-1.63 1.08-.54.55.68 1.62-1.22v-1.09l.27-1.21 1.63-1.63 2.43-1.9 2.04-1.49 1.48.41.68.54h.41v-1.08l.81-1.22.95.41.27.4 1.22.95h.95l.94-.27.14-1.35.95-1.09 1.49-.4.67.27 1.49 1.49.68.67.68.14.4-.54-.13-1.09-.14-1.21-1.62-3.12-1.76-2.3-2.17-2.71.14-1.35.94-1.22.41-.68.14-2.17.67-1.62 1.22-2.57-.81-2.04-.54-.54-.68-.27-.54.14-.41.94v1.22l-.68.41-.81-.68v-.95l.54-2.16v-3.93l-2.16-11.51-5.01-10.97-.81-2.84.27-1.76.13-.95-.13-2.71-.68-3.66-.14-1.49-.13-1.21-1.63-2.98-.4-1.63v-4.33l-.27-1.36-.68-.81-1.76-.13-.95-.41-.81-.27-1.22-1.49-.68-1.36-.94-2.16-.28-2.3-.94-3.12-.14-2.03 1.08-.95 1.09.27.95 2.58 1.62 7.58 1.22 1.76.54.27.81-.14-1.89-12.32 2.03-.81 2.03-.81-.41-1.36-2.03-2.03-1.08-4.33v-2.17l-.41-1.08-1.35-1.36-1.22-1.76-.27-1.76.81-1.22 1.36-1.49 2.16-1.35 2.3-1.08 3.25-.55 2.58-.54 2.3-.54h5.69l2.3-.68.27-1.35.27-1.76-.95-2.03-1.08-1.09-1.36-.4-1.76-.41-1.49.41-1.35.54-1.22 1.49-.54.95-1.08 1.08-1.49.95-1.22.54-2.44.41-2.17-.41-.67.27-2.71 1.49-1.63 1.9-.13 1.08-1.08.95-1.09.95-1.89.4-.68-.27-2.17-.54-4.06-2.03-3.25-1.76-4.47-2.71-2.3-1.76-.27-1.49-.14-1.49.82-2.17 2.84-2.16 3.52-2.03 2.3-.28 2.71-.27 2.71.95 2.03 1.36 1.63 2.98.54 2.03 1.76.81.4.13.55-.27.27-.27.13-.13v-.41l-.13-.68-1.36-6.63-2.98-1.63-1.62-1.22-.27-.4v-.41l.13-.27.14-.13.54-.14 1.49-.54 1.22-.81.4-1.9v-2.17l-.13-1.49-.81-2.57 2.43-.68 9.21.95 1.63-.4.27-.95-.14-.68-.68-.81h-1.21l-2.71-.14-1.76-.13-2.71.81-1.35.13-1.36-.13-.95-.14-2.3-.67-.13-.68.54-.54 9.88-1.49 1.09-.41 3.92-2.16 3.79-.82 1.22-.4.54-.54-.4-.55-3.52.55-1.09.27-1.35.54-4.47 1.35-2.98.41-2.3.4-.68.82-.81.54h-.54l-.41-.41-.54-3.65-.27-.27-.54.27-.14.94.27.41.41 1.08.14 1.36-.14.4-1.22.41-2.03.41h-2.17l-1.21-.27-.82-.14-.81-.68-.54-1.62-.68-.95.14-1.22.81-.81 1.22-1.08 2.17-1.36 1.35-.41.68.14.67.41.95.81.68.13h.68l.13-.13.27-.68.27-.68.68-.4 1.08-.41.27-.13-.13-.27-.27-.14h-1.9l-.13-.13v-.28l.13-.27v-2.7l-.54-4.74-.81-4.2-1.09-1.9-.54-.54-2.98-7.18-1.08-.81v-.68l.54-.4 1.9-.27 1.62-.14 1.09.54.4-.81.41-1.22-.68-4.6-.68-3.12-.94-2.3-.41-.95-1.08-1.62-2.17-2.03-1.22-1.49-1.22-1.76-1.35-.82-1.76-1.08-1.36-.41h-3.52l-4.73.27 5.82-1.76 4.06-.54 4.06-.95 1.36-.27 6.77-.95 1.49-.27.4.82.27.13.95-.13 1.49-.27h.54l4.33-.55 5.69-.81 1.09-.13 2.97-.41 1.63-.14 7.72-1.35 1.49-.27h.67l.41-.14h.54l1.22-.27.81-.13.81-.14h.14l1.76-.27 1.63-.27 1.76-.13.67-.14.54-.14 2.04-.27 2.84-.4.54-.14.54-.13.41-.27.27-.28.41-.4.27-.41.4.27.14.14.54.13.41.14.4.13h.68l.54-.13h.41l5.55-.81 3.65-.41 1.22-.27 1.09-.14 2.7-.27 2.44-.27 2.98-.4h.68l.4-.14h.41l4.2-.54 2.84-.41 1.36-.13 2.03-.27 4.06-.54 2.17-.41 3.25-.54 1.08-.14 6.36-.95 6.37-.94 10.83-1.49 1.35-.27.82-.14 1.08-.14 4.06-.54 1.63-.27 1.62-.27 6.23-.81 1.22-.14.95-.13 1.08-.27h.27l2.57-.41 2.44-.27 1.9-.27 2.03-.27 7.71-1.09 4.47-.67 1.36-.14 2.71-.27 1.08-.13 3.52-.55 1.76-.27h.81l.81-.13 1.09-.27 3.92-.54 1.09-.14 1.08-.27 3.79-.54 9.89-1.49 1.76-.27 1.76-.14 6.77-1.08 1.22-.14 1.35-.13.95-.14 1.76-.27.95-.13 2.84-.41 1.35-.14 4.2-.54 8.26-1.22 2.17-.27 1.76-.27 6.23-.81 3.11-.41 3.93-.67 8.66-1.09 2.85-.4 1.62-.27 1.76-.28 2.03-.27 3.8-.54.27-.13 1.62-.14 1.36-.13 3.52-.55 2.97-.4 1.36-.27 2.57-.27 2.71-.41 1.49-.14 2.03-.27.41-.13 5.82-.81 5.82-.82 1.36-.13 2.7-.41 3.39-.54 5.96-.68 6.9-.95 9.21-1.35 7.31-.95 5.82-.81.68-.14 1.76-.27h.41l1.22-.27 2.98-.4 1.89 13 .41 2.71.27 1.35 1.08 7.18.41 2.98 1.22 8.8.54 3.52.81 5.28.27 2.3 1.08 7.45.14.95.41 2.84 1.35 9.08.54 4.47.95 5.82.54 3.65.14 1.49 1.08 7.72.41 3.12.81 5.41.95 6.23v.28l.4 2.7 1.22 8.26.41 2.98.54 3.8.41 3.25.27 1.76 1.08 7.04.13 1.49.41 3.25.68 4.06.13 1.35.27 1.76.41 2.85 1.76 12.19.54 4.33 1.09 7.58.67 4.34v.27l1.09 7.85.4 2.98.54 3.52.41 2.71 1.08 8.26.82 4.88.4 3.52.14 1.22.54 3.11.13 1.08.14 1.09.13 1.49.28 1.89 1.49 10.3.94 6.77.27 1.35 1.63 11.65v.81l1.08 7.18.68 4.74.41 3.11.4 2.44.14 1.62.4 2.44.54 4.2.68 5.28.14.27.67 4.61.14 1.89.27 1.22.54 3.93.81 5.69.28 1.76.27 2.57.13.54.27 2.3.27 1.36.68 5.01.54 3.25.68 5.41.27 1.36.14.95.4 3.11 1.36 9.48.67 4.88 1.36 9.48 1.62 10.56v.27l.68 4.74.13 1.49 2.03 13.27 1.36 9.21 2.84 20.45.41 2.57.68 4.33.27 2.58.94 6.9.82 5.01.13 1.09.41 2.98.13 1.08.55 3.66 2.3 15.84.54 3.39.54 3.38.14 1.22 2.03 13.54.67 5.15.14 1.08 1.22 7.86.68 5.28.67 4.06.27 2.17.95 6.23.95 6.5.54 4.06.27 1.62.14.82.27 1.76 1.35 9.21.41 3.38.54 3.93.81 5.01.41 2.84.81 6.23.27 1.49.54 3.93.27 1.76.27 1.9 1.22 7.99 1.22 8.66.68 4.88.27 1.89.41 2.31.27 2.03.13 1.22.54 3.79.68 4.6.68 4.47.13.95.27 1.76.14 1.35.41 2.31.54 3.79.27 2.57.81 5.01.81 5.96.54 3.52.28 1.49.4 2.98.14 2.03v1.63l.94 1.49 2.85 2.16 2.03 2.03 2.57 1.76.95.82.14.13 1.35 1.22.95.81 1.08 1.09 1.76 1.76 2.03 2.03 1.63 1.89 1.22 1.49 1.35 1.63.68.81 1.62 2.3.41.55.4.54 2.03 3.38.14.14 1.49 2.71 1.08 2.03.54.81.41.81.27.41.41.95 2.03 4.06 1.22 2.3 1.08 2.17 4.33 8.39 3.66 7.32.68 1.49 1.62 3.11.54 1.22 1.63 2.98.4.95 3.12 6.23 1.76 3.25.68 1.35.54.95 3.11 6.23.95 2.03 2.84 5.42 4.07 8.26 3.25 6.5-.82.54-.4.54-.41.54-.13.41-.14.54-.27 5.01-.14 1.76.14.41v.4l.27.27.14.14.13.27.27.41.81 1.49.55.95.27.4v1.22l-.14.68-.13.95-.28 1.21-.13.68v.68l.13.81.28.68.27.67.4.55 1.09 1.22.81.81.27 1.49.27.67-.14.82v.54l-.13.54-.27 1.35-6.37 1.09z" stroke-linejoin="round"/></defs><use xlink:href="#i" fill="#6bacaf" stroke="#6bb4d2" stroke-width="5.76"/><defs><path id="j" d="M1231.11 1666.9l1.9 11.51v.68l-.27.27-.27.27-7.18.95-1.62.27h-2.03l-2.04.4-6.09.95.27-.68.14-.4.13-.41.14-.41v-1.08l-.14-.68-.13-.54-.14-.67-.13-.55-.68-1.08-2.98-4.47-.27-.4v-.82l12.32-1.76-.13-.67.27-.82-.68-4.6-.41-.54-.13-.68-2.03.27-4.88.81-5.41.68-4.47.68-1.49.27h-.54l-1.22.27-1.63.13-7.99 1.09-1.21.27-1.09.13-6.9.82-6.5.94-4.34.55-1.62.27-5.01.67-9.48 1.36-1.62.27-4.07.54-13 1.76-3.52.41-4.87.67-.27.14h-.81l-6.64.95h-.27l-7.18.95-7.85 1.21-6.36.82-6.91.95-4.2.67-1.22.14-2.97.54-5.56.81-4.06.68-2.84.41-3.79.54-3.39.4-3.93.54-4.33.55-2.44.27-6.63.81-6.09.68-5.69.81-5.42.68-11.24 1.62-5.41.68-6.23.81-8.94 1.49-1.89.27-5.55.81h-.95l-1.22.28-9.07 1.21-2.58.27-.81.14-.81.14-.81.13-10.7 1.36-3.12.54-9.47 1.35-2.31.41-7.85 1.22-4.2.54-8.53 1.22-1.08.13-.14-1.89-.67-4.61-.14-.27-.68-5.28-.54-4.2-.4-2.44-.14-1.62-.4-2.44-.41-3.11-.68-4.74-1.08-7.18v-.81l-1.63-11.65-.27-1.35-.94-6.77-1.49-10.3-.28-1.89-.13-1.49-.14-1.09-.13-1.08-.54-3.11-.14-1.22-.4-3.52-.82-4.88-1.08-8.26-.41-2.71-.54-3.52-.4-2.98-1.09-7.85v-.27l-.67-4.34-1.09-7.58-.54-4.33-1.76-12.19-.41-2.85-.27-1.76-.13-1.35-.68-4.06-.41-3.25-.13-1.49-1.08-7.04-.27-1.76-.41-3.25-.54-3.8-.41-2.98-1.22-8.26-.4-2.7v-.28l-.95-6.23-.81-5.41-.41-3.12-1.08-7.72-.14-1.49-.54-3.65-.95-5.82-.54-4.47-1.35-9.08-.41-2.84-.14-.95-1.08-7.45-.27-2.3-.81-5.28-.54-3.52-1.22-8.8-.41-2.98-1.08-7.18-.27-1.35-.41-2.71-1.89-13 1.21-.14 4.61-.54 2.16-.41 3.66-.54 4.06-.54 1.49-.27 2.85-.27 3.52-.54.94-.27 4.2-.41 2.71-.41 2.57-.4 4.74-.68 2.57-.27 3.93-.54 5.82-.82 3.52-.54 1.22-.13 6.5-.95 2.98-.41 1.08-.13 2.71-.41 2.85-.4 1.21-.14 1.49-.27 8.67-1.22.95-.68 1.08-.27 2.03-.13.95.4 1.62-.27 5.56-.67 3.11-.55 2.44-.27 4.6-.67 6.37-.82 7.04-1.08 7.17-1.08h.55l1.48-.27 2.98-.41 2.44-.41 1.49-.13 2.57-.27h.14l.68-.14 4.19-.54 15.03-2.3 11.92-1.76.95-.14 2.84-.54 2.84-.41 1.22-.27h.82l.81-.67 1.89-.41 2.44-.27 3.93-.68 8.93-1.35 11.65-1.63 6.77-1.08 1.62-.27 5.42-.68 9.48-1.49 6.9-1.08 8.13-1.22 1.49-.14 3.25-.54 2.98-.4 7.04-1.09 3.65-.54 4.61-.68 3.52-.4 1.08-.27 3.66-.41 2.98-.54 2.3-.27 2.3-.41 3.25-.4 2.98-.41 5.28-.81 3.52-.41 13.95-2.03 4.74-.68 6.36-.81.54-.14h.41l3.11-.4h.14l1.35-.27 3.39-.54 4.87-.95 2.98-.68 5.42-1.08 3.11-.68 2.44-.27 3.93-.68 2.03-.27 1.49-.27 3.38-.41 1.63-.27h.4l2.85-.27 1.35-.13 4.06-.41 3.12-.41h1.08l1.22-.13.13.95v.54l1.49-.14-.13-.67-.14-.95 1.9-.14 2.84-.4 1.49-.14 1.36-.27 1.49-.27 2.84-.41 2.57-.4 2.98-.27 1.49-.14 4.2-.54 1.08-.14 1.35-.13 1.36-.27.27 1.35.68 5.15.4 2.57.68 5.55.68 5.96 1.35 13.54 1.22 12.87.41 2.84.81 9.21.27 1.35 2.03 20.18 3.39 34.53 1.76 17.34.81 8.53.95 7.58 8.93 70.15 1.9 14.09.13 1.49.41 2.97 1.22 9.89 2.84 21.8 2.03 15.03.68 5.69.27 2.17-5.28.68-3.93.54-3.52.4-1.76.28-2.03.27-8.94 1.21-2.97.41-2.31.27-1.35.27-1.9.27-2.43.55-1.9.4-3.38.81-1.63.41-2.44.81-.13.14-2.98.95-.41.13-.27.14-.4.13-.82.27-.94.27-1.36.41-.81.27-.68.14-1.22.27-1.62.27-1.63.27-4.19.54-1.63.27-2.84.41-1.22.27-.95.13-.95.14-1.35.27-1.08.14-3.93.4-1.08.14-6.37.81-9.61 1.35.81 5.29.14.54v.27l-.14.4-.13.28-.14.13-.14.14-.27.13-1.76.41z" stroke-linejoin="round"/></defs><use xlink:href="#j" fill="#6bacaf" stroke="#6bb4d2" stroke-width="5.76"/><defs><path id="k" d="M880.41 1411.49l-1.76.27-.68.14-5.82.81-7.31.95-9.21 1.35-6.9.95-5.96.68-3.39.54-2.7.41-1.36.13-5.82.82-5.82.81-.41.13-2.03.27-1.49.14-2.71.41-2.57.27-1.36.27-2.97.4-3.52.55-1.36.13-1.62.14-.27.13-3.8.54-2.03.27-1.76.28-1.62.27-2.85.4-8.66 1.09-3.93.67-3.11.41-6.23.81-1.76.27-2.17.27-8.26 1.22-4.2.54-1.35.14-2.84.41-.95.13-1.76.27-.95.14-1.35.13-1.22.14-6.77 1.08-1.76.14-1.76.27-9.89 1.49-3.79.54-1.08.27-1.09.14-3.92.54-1.09.27-.81.13h-.81l-1.76.27-3.52.55-1.08.13-2.71.27-1.36.14-4.47.67-7.71 1.09-2.03.27-1.9.27-2.44.27-2.57.41h-.27l-1.08.27-.95.13-1.22.14-6.23.81-1.62.27-1.63.27-4.06.54-1.08.14-.82.14-1.35.27-10.83 1.49-6.37.94-6.36.95-1.08.14-3.25.54-2.17.41-4.06.54-2.03.27-1.36.13-2.84.41-4.2.54h-.41l-.4.14h-.68l-2.98.4-2.44.27-2.7.27-1.09.14-1.22.27-3.65.41-5.55.81h-.41l-.54.13h-.68l-.4-.13-.41-.14-.54-.13-.14-.14-.4-.27-.27.41-.41.4-.27.28-.41.27-.54.13-.54.14-2.84.4-2.04.27-.54.14-.67.14-1.76.13-1.63.27-1.76.27h-.14l-.81.14-.81.13-1.22.27h-.54l-.41.14h-.67l-1.49.27-7.72 1.35-1.63.14-2.97.41-1.09.13-5.69.81-4.33.55h-.54l-1.49.27-.95.13-.27-.13-.4-.82-1.49.27-6.77.95-1.36.27-4.06.95-4.06.54-5.82 1.76-7.45-.27-2.71-.81-1.35-1.22-2.04-2.3-2.16-2.98-1.36-2.3-.67-2.17-.27-2.44.54-1.89.81-1.9 1.49-.95 1.62-.4h1.76l1.22.4.82.55.94.81.82 1.35.67 1.22.41 1.22.95 1.22 1.08 1.49 1.08 1.08 2.03 1.63 2.85 1.08 2.84.54 5.28-.13 3.93-.82 2.03-.54 1.63-1.08.4-1.36-.13-2.03-.27-5.68-1.22-11.11-.82-2.03-1.49-1.35-1.08-.28-1.62-.4-1.22.4-.68.28-.68.67-.94.68-.68.95-.54 1.08v2.03l.13 1.9.95 2.17.14 1.62v1.76l-.14 2.17-.68 1.22-.81 1.08-1.62.81-1.9.41-.95-.14-1.08-.27-.68-.4-.95-.41-.81-.81-.95-1.76-.54-2.85-.54-2.84-.4-2.84.13-2.31.27-1.62.27-1.22.68-1.76-.14-.68-.67-.13-.54-.14h-.41l-.14.14-.94 1.08-1.09 1.22-1.22.4-1.35.28-.95.13h-.27l-.27-.27-.27-.41-.27-.54-.14-.4-.13-.95-.14-1.63-.4-2.16-.27-1.63-.14-.81v-.41l.14-.27.13-.27.27-.13 10.16-.82 2.57-.27 2.71-.4 1.08-1.36 1.76-1.08 1.22-3.25-.14-6.37v-1.35l-1.35-.27-.13-.68.13-.68 1.08-1.89v-.81l-.27-2.44-.67-3.12-3.25-.4.13-.82.95-.13.54-.81.14-1.76v-.82l.4-5.01 1.63-18.82.27-2.71.95-9.21.81-9.48-1.49-9.88-1.76-6.77-3.66-1.36-.13-.81-.54-3.79-.27-1.76-2.85-17.88.41-1.22 1.35-.54 2.71-.68 5.01-.13.27-4.61-1.08-.13-1.09.4-1.21 2.71-1.36.68-2.84.27-1.63.14-.81-.41-.68-.81-.27-1.09-.13-1.21.27-.95.95-.68 1.76.27-.14-1.49-.68-.54-.27-.14-.94-.27-1.36.55-2.57-1.22-5.01-2.44-4.33-1.76-3.66-1.22-5.42-.81-4.47 1.49-2.84 2.71-4.47 2.84-13.27.95-.4-1.09-1.76-4.6 4.87-10.02 1.49-2.98.41-1.36v-3.11l.4-3.39.54-1.89.55-2.3 1.22-1.63 1.08-.81 1.22-.68 1.22-.27 1.76.27 2.3 1.36 1.22 1.08.94.68 1.49.94 2.03.68 1.77.41 1.76-.27 2.97-.68.95-.41.95-.13.95.27 13 10.7h.27l-.54-5.55-4.74-2.85-7.31-17.74-1.36-1.62-1.22-.68-2.44.13-1.21.68-.41.95-.41 1.22-.81 2.44-2.57 4.33-1.49.81-1.49.27-1.63-.54-1.48-.68-2.44-1.35-1.22-.68-1.49-1.08-1.35-1.22-.82-1.76-.4-1.63-.14-2.97.14-2.58.54-2.03.95-2.17 1.22-2.84.67-1.35.95-1.49 1.35-1.49 2.04-1.9 2.84-1.22 6.9-1.35 4.2-.68 3.79.14 3.25.54 2.31 1.08 6.9 5.69.27.13.81.14h.41l.41-.54-.27-4.47-1.09-7.58 2.03-.14v-1.22l-3.11.27-.41-2.84-3.25.41.68 3.25-2.17.13-20.04 2.98-1.21-1.08-.55-.95-.4-2.71-.14-1.49 2.57-.41 6.37-.94 2.03.54 2.17.54 5.14-.81 7.99-1.22 8.13-1.22.81 6.23 8.93-1.22 7.86-1.08 16.79-2.58 12.32-1.76 9.07-1.35 4.06-.81 2.44-.27 3.39-.55 2.16-.27 3.52-.54 4.74-.54 1.09-.14 6.36-.81 1.49-.27 3.79-.54 6.5-.81 2.44-.41 2.16-.41 4.47-.54 1.9-.27 2.3-.27 6.91-.95 4.47-.67 6.22-.82 2.98-.4 1.63-.14 1.76-.27 2.44-.27.94-.14.41-.13 2.84-.41 2.71-.4 6.91-.95 2.03-.27 3.92-.54 5.69-.82 1.22-.13.95-.14 2.3-.27 3.52-.54h.54l1.09-.14 3.38-.54 5.82-.67.54-.55 1.36-.13 5.55-.81.81.27 1.36-.27 1.49-.27 1.35-.14 5.01-.81h.95l3.38-.54.95-.14.81-.13 1.36-.14 4.06-.54 2.84-.27 6.77-1.09 6.91-1.08 6.77-.95 1.35-.13 15.71-2.58 2.84-.4.68-.54 4.06-.68 6.23-.95h.27l.82.41.4-.14 1.09-.13.94-.14.68-.13 1.08-.14 2.03-.27 4.61-.81 2.84-.41 2.85-.41 2.84-.4 2.71-.41 2.84-.27 2.84-.41 2.71-.4 2.3-.27.41-.14 3.39-.54 3.65-.41 1.22-.27 2.03-.27 1.36-.13 2.43-.27 1.22-.27 4.74-.68 10.83-1.36 2.58-.4 3.52-.54.4 2.84.68 5.42.81 5.68.41 2.31 1.08 8.12.41 1.9.4 2.3.55 3.39.27 2.3.13 1.22.68 4.33.81 5.42.68 4.87.68 5.01.4 2.3v.68l.68 4.88.4 2.43.41 2.44.27 2.3.14 1.63.13 1.22.41 2.57.54 3.52.54 4.47.54 3.25.14 1.76 1.76 11.65.54 3.79.41 3.39.4 2.43.14 1.49.68 4.74.54 3.93.4 3.66.41 3.65.54 4.61.14.27.27 2.03.4 3.25.27 1.62.55 3.8v.4l.13.68.14 1.22.54 4.47.81 5.68.27 1.63.27 2.17.27 1.49.27 1.89v.68l.14.4.68 5.42v.14l.54 2.98.81 5.82.27 2.3.27 2.17 1.36 9.07.4 3.66.82 5.01.13 1.08.14 1.49 1.62 11.51.81 5.15.27 2.17.41 3.52.41 2.57.4 2.57.41 3.12.41 2.57v.68l-2.98.4-1.22.27h-.41z" stroke-linejoin="round"/></defs><use xlink:href="#k" fill="#09757a" stroke="#097d9b" stroke-width="5.76"/><defs><path id="l" d="M932.68 2322.47l-1.22-.68-.27-.13-1.9-.68-2.03-.68-1.62-1.62-1.63-4.33-3.52-5.15-2.98-.68-1.35-.54-.95-1.62-2.3-2.85-1.08-2.57-1.22-2.71.13-1.89.81-3.93 1.77-2.58.13-2.43.68-2.03-.41-3.39.27-2.44-.13-3.25-.27-1.62-1.09-3.25-.81-3.12-1.35-3.38-2.17-3.25-10.43-9.62-4.33-4.06-5.42-5.69-2.97-4.47-.41-2.43 1.08-1.09 1.9-.95 1.76-.81 2.98-.27 2.3 1.9 1.62 2.98 1.36 2.16 2.44 1.9 1.62.68 2.57 1.08 3.25 1.35 2.85.27 2.3-2.16 1.89-.41 1.22-1.35.27-2.03.68-2.31.54-2.84 1.09-2.71 2.43-1.76 3.39-.68 2.71-.54 1.21-.27 1.09.81.67 2.04 2.04 2.97 1.21 1.49 1.22 1.9 1.36 1.08 1.49.14 2.7 1.35-.27 2.44v2.03l-.54 2.71-1.76 1.63-1.76.94-.95 1.22-.81 1.36.14 2.98.54 2.3 1.35 1.49 1.63 1.35 2.03 1.76 1.35 1.36 1.09 1.08.27 1.76-1.22 1.76-1.76.81-1.22 1.22.13 1.36.28 2.3 1.21 1.49 1.63 1.76.41.95 2.03 2.43 1.21 1.36 1.22 1.22.41 1.22 1.22 3.11.4 3.25-.13 1.35-2.98 1.49-3.38.41-.14 2.03.54 1.49-1.89 1.76-2.44 1.9-1.22 1.49-3.25 4.33-1.49 2.57-.81 5.56 2.44 3.79.27 2.16.13.82-.13 1.08-.95.27z" stroke-linejoin="round"/></defs><use xlink:href="#l" fill="#09757a" stroke="#097d9b" stroke-width="5.76"/><defs><path id="m" d="M890.3 2310.69l-7.18-11.38-9.34-9.34-5.42-9.48-9.07-14.62-15.57-25.87-32.5-58.91-3.25-4.74-3.25-4.74-5.96-11.64-45.9-45.64-46.99-69.07 1.09-3.11-8.53-12.19-4.74-4.33-4.74-4.2-4.88-3.79-7.85.54-35.34-42.25-1.09-7.18-.13-1.35-1.08-8.67-15.03-26-1.49-2.3-4.88-5.96-21.26-25.6-13.4-14.35-14.76-15.84-15.3-15.58-2.44-2.16-1.76-.95-2.84-2.03-1.76-1.9-5.42-3.39-2.98-2.3-3.93-2.44-2.03-1.35-4.6-2.98-8.13-4.6-37.23-17.61-31.28-12.73-10.29-3.52-2.3-.68-4.47-1.89-7.58-2.71-6.1-1.76-10.15-3.11h-6.23l-2.71-.82-1.22-.4-3.52-1.09-6.09-2.03-2.71-1.22-2.44-1.35-2.71-2.57-1.76-1.9-2.7-2.3-4.88-5.55-2.98-5.69-10.42-10.29-8.13-6.37-2.98-2.57-5.28-3.79-11.24-10.16-5.28-7.99v-1.08l-.27-1.22-.95-2.98.82-.68-2.44-8.53-5.82-14.22.54-7.58 1.22-4.47 7.58-5.83 4.2-1.21 1.89-2.04 1.09-3.52-.55-1.89-.27-1.76 3.66-4.61 2.98-3.11 7.04-6.5 2.98-5.15 2.71-6.23 3.11-3.11 13.13-45.37 1.09-4.74.4-3.92.55-.68h.54l2.84.13.95.27.41 1.22.27 1.09.94.94.55 1.09.94 1.49.82 1.08.81.27h1.22l1.08-.13 1.35-.14 1.36-.27.81-.41.27-1.08-3.38-4.6-.68-.68-1.22-.81-.81-1.36-.41-1.76v-3.25l.95-3.11-.68-1.49-.27-1.9-.27-1.35-.13-1.9.54-2.3.4-1.36v-1.89l.55-2.03.13-.95-.41-1.35h-1.21l-.95-.82-.27-3.92 1.49-1.36 1.62-.13.68-1.63-.27-2.71-.95-2.71-.14-3.52v-3.11l-.4-9.89-.95-9.34-2.71-16.39-2.98-10.29-.4-3.11-.54-3.52-.55-2.98-.13-.95-1.76-18.55.81-2.98.41-4.07.4-2.84.82-3.79.67-4.88.41-3.11.27-2.3.41-2.85.81-2.3 1.76-1.76 6.5-5.01 4.74-2.03 2.43-.68 3.52-.41-.81 5.01-1.22 4.47-3.92 10.57-4.88 7.72-3.92 5.14-1.09 2.03-.54.95-1.49 2.03-.27.68-.27.68-.27.4-.27.54-.14.82-.13.81.13.81.14.81.13.82v2.98l-.13.4-.14.54-.13.68.13 1.22v1.62l.14 3.12.27 1.08.13 1.22.55-.13 1.21-.82-.4-1.62-.41-.14-.54-.13-.13-1.63.13-1.35.41-.81.54-.41.27-.14.95-.27.13-.54-.67-.27-.28-.41-.27-.4-.13-.54v-.68l-.27-.41-.14-.81v-.81l.14-1.22v-.54l.27-.41.27-.4.27-.28h.27l.41.28.54.27.54.13h1.22l.54-.27.54-.27.27-.54-.54-.54-.13.13-.68.27h-.41l-.4.14-.68-.14-.27-.13-.27-.14-.41-.27-.4-.27-.41-.68.95-2.3 1.08-2.17 3.66-5.01 1.62-2.3 1.08-1.35.82-1.22.94-1.22 1.22-1.76 1.76-1.9.41-2.03.81-2.3.81-2.84.55-2.17 2.84-10.29.68-.95 1.22-.54 1.21-.14 1.09.27.95.82.94 1.21.27.68-.13.81-.14 1.09-.54 1.08-.54.81-.95 1.09 1.36.81.94.41.82.67.4.95.68 2.3v1.63l.27 1.49.54 1.08v2.17l.27 1.35.54.95.41.95.41 1.76.27 2.16 1.35 3.8.68 2.03.54 1.22.41 1.08.4.81.27.82.27.81.55 1.49.54 1.89.67 2.03.82 1.9.27.27.13.81.14.82.4 1.22v1.08l-.13.95v1.62l.13 1.36.14 1.62.14 1.49.27 1.76.54 1.49-5.69 1.08-2.44-6.9-.4-1.63-.41-.4-.54.27-.14.67.55 2.58-.14.67-.95.28-5.68-.68-.41 2.57 8.8 2.84 9.07 2.98 2.17 7.45 1.08 10.7.14 1.35v1.9l.13 1.08-.4.95-.27.68-.41.54-.13 1.08v.82l-.28.81v2.3l.14.54.41.27.81.27 1.35-1.76.54-1.08.41-.54.54-.27h.41l.54.13.54.27.41.41.54.41.68.4.81.27.81.27.81.68.41.41.95.54.67.41 1.09.67.67.95.68 1.08 2.57 13.82-.27.4-.27-.13-5.01-2.44-.67.27-8.13 11.92-1.76.13-1.08-.94-.41-1.36-.68-.54-.27-.81-.13-.27-.41-.14-.54-1.08-2.3-2.3-.81-.68-.82-2.03-1.35-8.53-.14-3.12-.4-15.3-1.63-6.91-2.43-6.09-3.66-2.71-1.76-.27-1.08-.14v.95l.13.81v.82l.27 2.57 1.76 2.3.82 8.4.27 7.58v7.59l.94 9.2v.68l-.27.81-1.22 1.09-1.62.81-1.76 1.62-.81 1.49-.27 2.17.94 1.49 1.22.95 3.39-.27.4-.54 7.18-2.85.95-.27.81.41 1.35 1.62 1.77 1.9 1.35 1.22.68 1.62v1.49l-.27 1.63-5.83 8.66-2.3 2.04-7.18 2.43-.67-1.22-.41-1.08.27-3.38-.54-.82-2.17-1.62-.94.27-.27.4-.55 2.58-.67 6.5 1.35 3.52 1.08 1.49.68 1.08 6.09 7.72 10.57 9.89 2.3 1.08 1.08-.27 2.44-.54h.81l.41-.54-1.49-1.76-.54-3.12.94-11.65-.13-2.84-1.49-11.37.27-4.88.41-.54.54-.54 2.71 2.03-.14 7.58v.81l.27.55.27.27.68.27 1.35-.14.54.14.41.4 5.15 15.58 2.57 1.76-.14.81-.13.41-.14 1.22-1.89 1.48-1.49.95-3.39 1.63-.67.27-.41.54.41.54 1.21-.27 2.85-.95 3.11-1.35 5.96-1.22 2.44 4.88.54 2.03.41.94.81 1.22.95.95.4.27 2.98.14 3.39 1.08 3.92 3.52 3.39 3.79-.14 2.58 4.06 5.01 1.09 1.35 1.49 6.23h-3.93l-4.33-1.49-1.9-.41-2.03.95-2.17 1.76-1.62 2.98.68 1.76 4.46 5.01 8.67 8.13 7.58 3.52 10.02 8.94 1.49 1.22 2.71 3.92 3.66 6.37.13.54-.27.81-1.62 1.49v.95l.4.14.68-.28 2.17-5.01-4.47-9.07 5.01-1.22 3.52 2.85.4 4.33 5.02 8.26 2.43 4.06-.81.68-.68.81-1.08.41-1.08.41-5.15-4.88h-.13l-.68-.14-.41.41-.81.14v1.08l.14.81.67.41.95.68.14.27 8.53 7.04 3.65 2.84 1.36 1.63 1.76 2.57.4 2.3-2.43 2.85-1.63 1.35-.68.81-.94.27-1.09-.4-11.78-11.11-.81.41v1.49l12.46 11.37.54.68 10.42 11.51h.95l.27-.54-1.89-2.57-5.82-6.91-2.31-2.3.82-1.36 2.97-2.84 1.77-1.49.4-.13 2.84 2.43h.28l.13-.27-.13-.95-.95-1.89 1.62-1.22 1.63.81 3.92.81 1.76-1.62.95-1.22.81-.81 1.49.4.55.41.67.54.68.68 4.6 1.49 2.85 4.2 10.56 33.31-.14.41-.54 1.22-.54.54-3.11.95-2.44-1.63-8.8-13.81-.68-1.09-.41-.4h-.67l-.14.54-.13.54.13.54.95 1.9 10.56 14.35 2.84 1.22 1.63.27 1.49.41 3.11 3.93 4.74 9.21 2.03 3.11v.95l-.54.81-.81.81-2.84 1.49-3.39 2.03-8.12 1.76-4.07.41-6.63-.27-.27.54v.41l.13.4.27.27 1.22 1.09 1.09-.27.67.54 16.79-2.3 1.49-.27 7.45-3.25 2.44 4.6 1.89 3.11 4.61 9.89-1.36 1.76-1.21 1.36-1.09-.55-2.3-2.16-5.55-6.77-1.49 1.08-.95 1.08-.13.95 3.11 5.69-.68 1.76-1.49-.54-.13-.41-3.39-1.9-2.43 3.66 4.06 3.12-2.98 3.38-1.9.54-2.84-2.03-.95-.13-.27.4.41.41 4.06 5.28.81-.41 8.26-6.9.68-.14 5.14-4.33 1.36 1.49 3.65-3.12.68.14 3.25 4.74 13.14 26.27-5.69 5.55-.68.54-.27.82.41.81 1.76-1.08 6.09-5.29 6.64 9.21h.4l1.49 1.63.81 1.49.14.68.27.54.68 1.35.27 1.08 3.25 5.15 1.76 1.35.4.41.82.81.81.27 1.49 1.22 6.63 4.07 2.58 1.49 1.89 2.03 1.76 2.84 1.63 2.84.81 1.09 2.17.13 1.62 5.01 22.07 20.45-14.76 16.12-1.49 1.62.27 1.49 1.22-.13 17.33-15.85 4.07 5.55.4 1.36 1.63 3.11.4.82-.4 1.62-.95 1.22-4.74 4.33-2.17 2.03-3.38 4.07-.81.27-.68.13-.68-.54-.27-.27-1.49-1.08-.95.54-.54.54-.4 1.08v1.09l.4.67 1.63 2.98.54.82.68.67.54-.27.81-.54 1.9-3.25 1.49-2.3.94-1.08 9.62-11.38 1.49-.27.94 1.08.55 2.44.94 1.63.95 1.21.68 1.22.81 1.49-18.82 21.67-.81.14-1.63.94v.68l.27.14.41.27h.54l.41-.27.81-.41 12.73-15.57 3.11-3.12 1.63-1.35h.81l.27.27.14.27.27.54.67.81.54.41.28.27v.81l-.28.54-.67.82-6.37 5.68-4.06 5.42 2.03 2.17 1.22-1.22-1.22-1.49 11.92-12.32 3.25 1.49 4.47 8.93 3.52 3.39 1.76.13 2.43-.67 2.71 2.71-1.76 2.03-.27 1.22.14.94 3.11 4.47.14 2.03 1.89 2.17 4.61 4.88 3.38-.55 4.33 5.42 7.18 14.09 3.52 10.42 1.22 2.71 2.84 6.23 1.63 2.98 4.2 5.28 5.95 7.45 2.85 3.66 4.74 8.66 6.36 7.59 1.63 1.22 4.87 4.06 3.52.13 2.03-.54 5.82-2.3 1.76-1.22.95-1.76 1.76-2.3 2.31-1.22 2.57-1.9 1.62-.81.82-.41 1.62-.67 1.49-.27.95.27 1.08-.27.54.94-.67 1.49-.95 1.36-1.36 1.22-2.16 1.35-3.25 2.17-2.17 1.89-3.38 4.2-3.25.81-1.76.95-2.44 2.17-2.17 2.57v1.09l.27 1.76.81 1.08 1.9 1.35.54 1.09.81 1.35.41 1.49-.27.95h1.9l1.62.54.54 1.22.14 1.49.27 2.17.27 1.08.68.68.81 1.08.13 1.62.14 1.22.68 1.49.13.95.68.95.54 2.03.81 1.35 3.25 8.81 2.44 4.74 2.44 5.82 5.82 8.4 1.62 1.21 1.76.68 1.22.14 1.63-.68 1.35-.81 2.3-.27h2.04l1.08.67.13 1.09-.27.94-.67 1.22-.55.68-.81.27-.81.41-.95.4-.13.28v.27l.27.13h.4l.82-.27.67-.13h.68l.54.81.41 1.35.95 5.42-.28 1.35.41 1.09.41 1.22.4 1.21.27 1.63.41 1.49 1.08 1.76 1.76 1.08 2.85.81 1.76-.4 1.35 2.17-.67 2.03.4 1.76.27.81.27 1.35.27.82.68.94 3.12 7.18 2.3 5.28 3.25 6.1 5.95 9.61 5.01 7.18 1.22.81.68.54.81.55.95.67 1.08 1.36v1.22l1.36 2.7.81 2.31.14 1.49.4.94v.27l.14.82 3.11 4.19.81.95 9.35 10.57 1.08 1.76 1.63 1.49 1.35 1.89.68.95.27.54.54.81.54.82.41.81.54.68.68.54 3.25 2.03 2.84 1.35 2.3.54 2.44.55 2.03-.27 1.89-.55 2.71-.81 2.44-.13 2.17.54.54.95-1.49 1.08-1.36.54-1.62-.81-1.35.13-6.1.55-3.25.13-2.43-1.08-2.31-.82-1.22-.4-.81.27-.13.68-.14 1.08-.13 1.22v1.76l.27 1.08.4.82 1.22 2.57 2.3 5.96 2.17 1.35 1.35 1.35 1.22.68 1.36-.68 2.71-.81h.81l.27 1.9v1.22l-.54.67-.95.14-1.76.27-2.17.81-.67.68-.14 1.49.14 1.76h1.21l1.36-.41.95-.13h2.7l.68.13.27 1.09-.4.95-.95.81-1.22.67-.54.28-.82.54v1.49l1.36 2.3 3.65 9.88.28 5.02 2.57 7.85 3.11 8.53 3.66 8.26 2.3 3.66 1.22-.14.81 1.09.41 2.16.54 3.25 1.62 2.44 1.09.95.81.81 1.9 1.9h.94l1.76 1.35 3.25 3.66.55.81.54.54 1.22 1.09.94 1.08.27.95.14.67-.14 1.36-.27.54-.27 1.35-1.08.82h-1.08l-1.09-.82-1.35-.4-3.39-2.98-6.77-5.15-1.62-2.16-4.74-6.1-3.66-4.74-4.74-8.12-8.66-15.44-1.09-1.9-1.48-8.12-1.76-4.74-.28-1.09-.4-.81-.95-2.3-.68-1.63-1.08-1.48-.27-.41-.27-.41-1.08-1.22-1.09-1.08-.68-.41-1.21-1.08-1.49-.13-.55.13-1.08.27-.95.41-.54.27-1.22.68-.67.94-.27.82.27 1.22.13.4.41.27.95-.67v.4l.67-.27.68-.54 1.35-.81 1.09.13 1.22.27-.14 1.9-.27.4-.27.95v.82l.81 1.48.14 1.09.13.81.27 1.22-.4.13-.41.68h-.27l.14 3.93-.68-.14-.27.82 1.08.81.54.95 1.09 1.49.81 1.35.95 1.08 1.08-.13 2.57 4.74 4.88 8.94 4.6 6.9 5.28 9.21 5.28 6.37 2.17 1.49 1.62 1.62 1.63 1.9 2.44 3.25 1.21.81 1.9 1.08v.82l-.95.67.68.95 1.49-.14h.81l.68.82.4 2.16 1.36 1.49 1.89.41h1.36l.95-1.35.81-.41 1.08.95 1.22.4 1.49-1.22 1.35-1.48.95.27.81 1.21-.81 1.49-1.22.82-1.89 1.35-1.76 1.36-.54 1.62-.28 1.35.14 4.61-.27 6.36-2.84 1.22-1.49.68z" stroke-linejoin="round"/></defs><use xlink:href="#m" fill="#09757a" stroke="#097d9b" stroke-width="5.76"/><defs><path id="n" d="M430.86 1500.87l-2.16 2.3-2.03 1.22-1.77-.67-.67.27-.27-.14v-1.08l-.27-3.66.13-.95v-2.57l-.4-2.3-.82-1.76-.54-1.22-.81-.81-.41-.82v-.54l.27-.54.41-.54.14-.68-.68-1.08-.68-1.09-.41-.94-1.35-2.85-1.76-4.74-.54-1.35-.41-1.49-.27-.95-.68-3.65-.13-.68-.14-.54-.13-.27v-1.49l.13-.27v-.95l.14-.68-.14-.68-.13-.81-.27-.68-.54-1.22-1.36-3.52-.68-1.62-.27-.54-.4-.41-.41-.54-.27-.27-.54-.95-.27-.41-.41-.54-.27-.54-.4-.95-.82-2.3-1.22-2.71-.4-1.08-.54-1.08-.41-1.22-.41-.95-.27-1.36-.4-1.49-1.09-4.19-.27-.82-.13-.54v-1.49l.13-.95-.54-4.73-.27-.82.14-.4v-.55l.4-.4 9.21-.81 14.76-2.85 12.19 2.71 29.11 4.06h.54l2.98.27 3.65.68.14.14.14.13v.14l-.55 3.65v1.63l.14.54.13.41.14.67.14.68v.54l.13 1.22.27 1.08v.82h-.4l-.82.27-1.08.13-1.35.27-3.25.55-2.71.54-1.49.27-.41.13-8.12 3.12-3.93 2.17-11.1 2.84-5.69.41-5.96.94-6.77.55-.95.94-.4 1.49.54 2.3 8.94-2.16 7.58-1.36 3.11-.27 3.39.14 8.39 5.42 4.2-2.98 2.57-1.63 1.76-.95 1.9-.4 1.49.13 1.76 1.22 1.9 3.79-.28 1.76-1.21 1.49-.95 1.63-1.76 1.89-2.44 1.63-2.84 1.62-2.98 1.09-1.76.81h-1.63l-3.38 1.22-3.25-.41-3.39.14-5.28-1.09-2.3.95-.81.41-1.76.95-1.63 1.08-.95 1.35-.94 1.09v2.16l.13 1.22.27 1.76.82 5.69.81 7.18.54 5.55.14 1.22-.82 2.3z" stroke-linejoin="round"/></defs><use xlink:href="#n" fill="#09757a" stroke="#097d9b" stroke-width="5.76"/><defs><path id="o" d="M1232.87 465.31l21.67 7.17 1.22.27 1.22.55 2.3.81 1.08.27 1.49.27 2.03.41 1.9.13h1.62l2.03-.13 2.98-.41 15.3-2.17 3.66-.4 1.08-.14.95-.13 4.88-.54 69.19-10.3.67-.13.68-.14 23.43-3.52 35.61-5.14 1.22-.28h.4l.41-.13h.54l.54-.14 23.16-3.38 36.83-5.69 5.69-.81 16.38-2.3 37.78-5.29 17.87-2.7 5.15-.82 6.77-1.08 1.35-.14 11.24-1.76 6.63-1.08 2.58-.41 1.49-.27 1.49-.4 1.22-.27 1.21-.41 1.63-.41 1.62-.54 1.63-.67 1.89-.68 1.76-.95 2.58-1.22 15.7-7.99 3.66-1.89 11.1-5.69 2.71-1.22 2.57-1.08 1.9-.68 1.08-.27.95-.27 2.44-.68 1.76-.27 1.49-.41 1.76-.13 1.22-.27 1.22-.14h1.76l5.82-.4 3.93-.28 4.6-.27 3.93-.27h2.43l9.21-.4 7.72-.55 6.23-.27 5.28-.27 9.07-.4 7.58-.41 1.9-.14 1.76-.13h2.57l.95.13h1.08l1.09.14 2.03.14 2.03.27 2.3.4 1.76.41 9.21 1.9 3.25.67 3.11.68 17.74 3.66 1.49.4 1.35.27 1.76.27 1.9.14 1.49.13 1.35.14 1.63.14h3.65l1.36-.14h1.49l1.76-.27 2.03-.27 1.49-.27 2.17-.41 2.03-.54 1.76-.54 1.76-.54 2.3-.55 10.7-3.11 3.11-.81 11.92-3.39 3.38-.95 3.25-.94 3.93-1.22 2.03-.54 2.03-.55 11.37-3.25 3.39-.94 2.3-.41 2.84-.54 10.03-1.49 12.18-1.76 14.22-2.03 13.81-2.04 8.67-1.35 12.05-1.9 1.62-.13 1.9-.27 1.22-.14 2.16-.27 46.31-5.01 40.22-3.65 78.26-12.19h1.49l18.42-2.44h.54l121.46-17.06 14.22-2.17 10.29-1.35 8.93-1.09 118.08-16.65 13-1.9 56.33-8.13 70.54-9.88 52.13-7.58 36.43-4.61h2.84l.81.14h.41l2.03.67 1.76.95.27.14.41.13.41.14.81.13 1.76 14.22 2.57 17.61 5.01 35.75 5.42 38.73 6.77 48.07 5.68 41.44.82 5.28 5.82 44.02 5.01 36.69 1.9 14.63 4.73 38.19 1.63 16.66 1.49-.14 13.67-1.49 37.65-5.15 12.32-1.35 13-1.9 22.34-2.98 2.98-.4 5.55-.54 6.37-.95 1.76-.54 2.57-.82 5.69-1.89 4.46-2.17 2.44-.68 13.95 97.1 8.26 58.77 9.34 65.41.27 1.22 1.49 1.9 11.65 62.02 15.43 82.47-.13 19.37-.14 9.21-2.71 14.62 2.44 18.69 7.45 36.29.68 3.79 2.57 30.34 2.16-.54 1.36-.14 1.08-.27 2.03-1.22 32.64-20.72 6.22-3.52 5.29-1.76 3.65-.41 1.76.14 11.24.95h.81l.82-.27 4.87-5.28.68-.95.67-1.49 1.49 1.49.54.13 2.58-.27h1.08l.95.14 2.71 1.22 1.08.67.68.68.81 1.22 2.3 4.06 4.06 5.55.27.82.28 1.08v1.22l-.41 1.62-.68 2.04-.68 1.62-.81 2.57-.27 1.22v.68l.14.95.27.95.54.94.68 1.09 1.35 1.49 3.11 2.98.41.67-.13 1.49.13 1.36.41.81.67.68.55.54.4.27.81.4 1.36.28 2.44-.14 1.08-.14h.54l.41.14 1.22.95.54.68.27 1.35-.54.95-.41.67-2.3 2.04-.27.54v.67l.27 1.09.4.68 1.09.13h.4l.68-.41.68-.94.54-.27 1.49.4.81.68.27.54v.54l-.27.41-.54.27-2.17.81-.54.41-.27.27-.13.41v.54l.13.67.41.82.67 1.08.55.41 2.03 1.08 1.35 1.49.54 1.08.41.27.41.14h.4l.95-.41 2.84-2.3.54-.14.82-.13.54.13.68.14.27.27.67 1.08.27.28.41.27.95.13 1.35-.13.54-.41.41-.54.54-1.22 1.09-.68.81-.13 4.87-.14 1.09.14.27.13.13.27.27.95.41 1.08.68 1.22.13.55 1.76-.28h.68l1.49.55 11.37 3.79 1.63.27 1.49.13 4.19-.4.68 6.5 1.22 11.91.27 2.04.27 1.76.95 6.23v.54l.27 1.62.27 1.09v.54l.14.54v1.22h-.27l-1.63.13-7.72 1.09-8.12 1.22-61.34 8.39-10.16 1.49-15.84 2.17-6.77.81-10.43 1.49-10.29 1.49-4.87.68-1.76.13-4.61.68-1.21.27h-.95l-.81-.13-.68-.14-.81-.41-1.49-1.08-.82.41-.27.27-.13.4v3.8l-92.35 15.98-4.06.67-2.57 1.09-.68.4-.54.68-.81.81-.55.27-.4.14-1.09.13-2.57-.81-1.35-.27h-1.36l-3.38.54-3.66.68-5.14 1.76-3.52.68-1.63.4-5.01.68h-1.76l-11.24 1.9-3.38-.28-53.22 8.67h-.4l4.06 36.29-53.35 8.27-2.03-13.82-13.54 1.36-5.15-36.03-33.44 4.88-12.73-73.53 1.89-.14.82-.54-.28-.14-.13-.13v-.14l-.14-.4-.13-.68-.14-.81-.67-6.64-.27-2.3-3.39-24.11-5.28 8.81-8.94 17.6-2.03.81-5.01 2.03-7.45 8.13-19.9 7.31-6.91-.95h-.54l-.95-.27-1.49-1.08-3.52-1.62-2.57-.95-1.22-.27-4.6-.41h-1.36l-4.6.54-10.7-1.49-8.39-1.49-.54-.54-1.36-1.22-.4-.4-1.09-.27-11.78-2.31-6.63-1.62-7.04-1.49-7.31-1.22-5.96-1.22-2.98-.27-6.64-.81-2.7-.81-.82-.41-1.89-1.63-7.45-7.04-9.07-7.72-1.9-1.22-2.57-1.08-.54-.13-1.22.13-2.03.81-2.3 1.36-.95.27-.54.13-1.09-.54-.67-.13h-.68l-.27.13v.68l.81 2.03.27 1.08-.13 1.09-2.71 3.92-3.39 3.53-1.49 3.52-.4 5.41 2.98 5.01 1.35 14.36-1.22 10.15-.27 1.77-2.17 10.96-1.76 6.91 2.17 6.64 11.92 13.54.81 1.08 3.52 5.01 5.55 7.72.41.95.4 1.49.14 1.76v1.62l-.68 2.85-1.22 3.38-2.3 4.47-.4 1.76-.14 1.76v2.31l.41 2.16.54 1.9.81 2.57.27.54 1.9 2.58.54 1.49.4.81.68.81.54.68 1.09 1.08.67.41.41.54 1.49 2.71.68.81.81.68 2.57 2.44 1.9 1.35 1.35.68 8.4 3.65 1.21 1.09 2.85 2.7 2.16 1.63.95.68 1.09.4 1.49.27h6.22l.27.95.28.27 2.16 2.3.68 1.09.41.81.27 1.22.13 2.3.14.95.13.68 2.44 5.55 3.66 5.28 1.35 2.3.27 2.17-.27 1.08-.27.54-1.63 1.36-.67.68-.41.54-.68.54-.67.81-1.49 5.28v.95l.27 1.08.4.55.68 1.35.54 1.35.41 2.17v1.36l-.68 3.92.41 1.09.54.67 9.34.82 1.36.67-21.13.27-32.63 6.77-40.21 5.69-47.26 17.47-13.81-15.44-.95-.67-.68-.27-.67-.14h-.68l-11.92 1.49-1.62.14-3.25.67-1.76.27-4.06.54h-.68l-.54-2.3-21.4-36.02-15.7-24.51-.55-2.3-5.82-6.23-8.8-10.02-23.56-21.26-44.96-34.81-10.83-12.73-7.72-6.5-1.35-.67-2.71-1.22-2.17-.95-3.24-3.12-9.89-3.65-12.59-7.99-.95-1.9.54-1.49-1.22-4.2-5.14-5.41-8.13-7.04-6.77-5.83-2.16 5.15-1.9 4.47-35.88 57.96-12.19 20.99-4.47 10.56-17.19 53.49-4.74 12.46-.27 1.22-2.44-.54-103.59-50.65-12.05-88.56-1.49-11.11-10.42-68.93-14.22 2.17-10.56-1.76-2.98-1.09-4.2-1.21-4.33-1.63-2.98.14-1.76-.28-3.93 2.17-3.52 2.3-11.1 7.05-7.72 5.01-6.09 4.6-5.15 3.79-.54.54-7.04 8.81-7.86 10.02-.54.54 15.57 80.57 1.22 14.63-14.35-2.71-6.91-2.71-5.82-2.16-9.75-3.66-7.44-2.57-21.53-7.99-1.36-.41h-1.76l-16.65 2.44-9.48 1.22-16.39 2.3-6.77 1.08.41 2.17.95 7.04.13 1.76v1.9l-.13 2.03-.27 1.9-.41 1.76-.68 2.16-.54 1.09-.4.94-9.62 18.15-2.03 3.79-1.35 2.58-.95 2.3-.54 2.03-.14.95-.27 1.76-.27 1.76-.14 1.49v2.57l.14 1.08.14.68-3.66.41-.95.13-2.98.41-1.22.27-.94.13-10.02 1.49-8.26 1.09-2.31.27-4.33.68-4.2.67-4.87.54-2.57.41h-.41l-4.33.68-3.93.67h-.27l-5.69.82-7.99 1.22-5.01.67-8.39 1.22-5.69.81-5.41.68-1.22.27-12.33 1.63-8.26 1.22-.13.13-3.93.54-11.91 1.49-3.39.41-4.33.68-1.22.13-3.66.54-1.49.27-4.06.55-4.87.81-9.48 1.35-3.93.54-4.47.68-10.56 1.49h-.27l-8.94 1.36-3.92.54-2.57.4-6.78.95-2.7.41-1.09.13-1.22.14-1.76.27-3.52.54-3.25.41-6.77 1.08-6.77.95-2.16.27-11.11 1.62-13.81 1.9-14.89 2.17-2.44.27-.68.13-.4-.13-2.44.27-2.3.27-3.12.54-5.14.68-2.17-10.7-2.98-15.98-.81-5.15-2.3-11.64-.95-5.82-.54-2.98-31.69 5.55-2.16.4-17.74 1.09.68 12.46.4 2.3.14 1.62.4 1.9.27 1.35.55 1.49.4.82.14.4 1.22 2.03.94 1.22.95 1.22 1.9 1.9 1.35 1.35 1.49 1.36 1.36 1.21 2.43 2.31.82.94.67.82.54.94.95 1.36.68.27.95 2.17.67 1.76.14.54.27 1.35.27 1.9.14 1.62-.27.68.13.95-2.57.13-2.98.28-1.63.27-3.25.4-2.16.14-8.4 1.22-2.03.27-.68.13-2.16.41-.81.13-7.18 1.09-.81.13h-.82l-6.36 1.09h-.81l-1.09.13-2.16.27-2.17.27-2.57.27-.14.14-11.24 1.63-.4.13-2.3.27-.95.14-.41-2.98-1.08-7.59-.81-5.41-.68-5.56-.54-4.19-1.22-8.26-.81-5.56-.27-1.35-.55-4.33-.13-1.49-.68-4.07-.13-.94-.14-.55-.95-6.63-1.21-8.67-1.77-12.32-1.35-9.07-.95-7.18-2.71-19.5-2.03-14.22-2.03-14.22-1.76-14.22-1.49-14.22-1.08-10.56-1.08-9.08-1.22-8.8-2.98-19.9-.27-2.58-.81-5.55-.82-6.36-1.49-12.87-.81-7.72-.41-3.66-.81-8.53-.13-1.62-.41-5.28-.68-8.53-1.21-14.49-.68-9.48-.81-9.62-.41-4.06-.41-4.34v-1.89l-.54-6.37-.27-2.3-.27-2.84-1.76-21.94-1.22-13.81-.68-8.26-.27-2.44-.27-2.85-.27-1.89-.4-2.57-1.09-11.24-.54-4.07-.68-6.23-.81-5.68-.81-7.72-.68-5.01-.27-1.9-.13-1.08v-.82l-1.09-8.53-.27-1.89-.4-2.71v-.68l-.55-4.6-.4-3.12-.41-3.38-.54-4.34-.81-7.04-.95-6.09-.68-5.83-.81-5.28-.81-5.96-.68-3.92-.41-2.98-4.6-32.23-5.15-34.8-3.79-26.41-1.49-10.16-4.19-28.03-4.61-31.96-.4-3.25-.82-4.74-1.35-9.89-.81-5.41-.41-2.44-.27-2.17-1.35-9.88-1.09-7.18-.94-6.64-.82-5.41-.95-5.96-.54-3.79-.54-3.66-1.08-7.04-.81-6.5-.95-5.82-.81-5.83-.95-6.5-1.63-11.78-.94-5.42-.82-4.74-.67-3.52-.55-2.98-1.21-5.41v-.14l-.14-.27-.81-3.25-1.49-5.28-.54-1.9-.55-1.62-.4-1.49-.54-1.63 3.52-.81 3.92-.68-8.26-26.4.14-1.76.68-2.17 4.33-8.13.54-1.76-.95-6.5-.54-3.79.14-1.35.54-1.49.54-1.22.81-.95.95-.81 1.22-.54 1.49-.41 15.03-2.03 2.03-.14h1.76l1.49.14.54-.27h1.63l.4-.14.41-.27.13-.27.28-.4v-3.93l.13-4.34v-1.76h1.63l1.48.14 2.44.41 1.9.54 8.66 2.98z" stroke-linejoin="round"/></defs><use xlink:href="#o" fill="#09757a" stroke="#097d9b" stroke-width="5.76"/><defs><path id="p" d="M1412.02 2648.29l-.82-2.57-1.49-4.33-1.76-4.88-13.4-37.37-9.75-26.82-5.69-16.25-2.16-7.85-7.72-21.94-37.37-104-3.39-10.84-10.83-34.53-33.31-106.3-20.18-39.95-7.31 5.14-3.38.54-3.25.14-.95.68-3.39.54-2.03.27-2.98.4-12.59 1.9-5.28.81-65.67 10.02-17.61 2.71-15.16 2.03-17.06 2.58-5.55.54-15.03 2.44-14.63 2.3-2.16.27-3.25-23.16-.82-6.5-.27-1.89-.4-3.52-.27-1.36-.14-1.62-.95-5.01v-.14l-2.03-14.49-.81-5.15v-.13l-.81-3.93-.41-1.89-.54-1.9-1.76.14-10.02 1.48.27-1.35.13-.54v-.54l.14-.82-.27-.67-.27-1.49-.81-.81-1.09-1.22-.4-.55-.27-.67-.28-.68-.13-.81v-.68l.13-.68.28-1.21.13-.95.14-.68v-1.22l-.27-.4-.55-.95-.81-1.49-.27-.41-.13-.27-.14-.14-.27-.27v-.4l-.14-.41.14-1.76.27-5.01.14-.54.13-.41.41-.54.4-.54.82-.54-3.25-6.5-4.07-8.26-2.84-5.42-.95-2.03-3.11-6.23-.54-.95-.68-1.35-1.76-3.25-3.12-6.23-.4-.95-1.63-2.98-.54-1.22-1.62-3.11-.68-1.49-3.66-7.32-4.33-8.39-1.08-2.17-1.22-2.3-2.03-4.06-.41-.95-.27-.41-.41-.81-.54-.81-1.08-2.03-1.49-2.71-.14-.14-2.03-3.38-.4-.54-.41-.55-1.62-2.3-.68-.81-1.35-1.63-1.22-1.49-1.63-1.89-2.03-2.03-1.76-1.76-1.08-1.09-.95-.81-1.35-1.22-.14-.13-.95-.82-2.57-1.76-2.03-2.03-2.85-2.16-.94-1.49v-1.63l-.14-2.03-.4-2.98-.28-1.49-.54-3.52-.81-5.96-.81-5.01-.27-2.57-.54-3.79-.41-2.31-.14-1.35-.27-1.76-.13-.95-.68-4.47-.68-4.6-.54-3.79-.13-1.22-.27-2.03-.41-2.31-.27-1.89-.68-4.88-1.22-8.66-1.22-7.99-.27-1.9-.27-1.76-.54-3.93-.27-1.49-.81-6.23-.41-2.84-.81-5.01-.54-3.93-.41-3.38-1.35-9.21-.27-1.76-.14-.82-.27-1.62-.54-4.06-.95-6.5-.95-6.23-.27-2.17-.67-4.06-.68-5.28-1.22-7.86-.14-1.08-.67-5.15-2.03-13.54-.14-1.22-.54-3.38-.54-3.39-2.3-15.84-.55-3.66-.13-1.08-.41-2.98-.13-1.09-.82-5.01-.94-6.9-.27-2.58-.68-4.33-.41-2.57-2.84-20.45-1.36-9.21-2.03-13.27-.13-1.49-.68-4.74v-.27l-1.62-10.56-1.36-9.48-.67-4.88-1.36-9.48-.4-3.11-.14-.95-.27-1.36-.68-5.41-.54-3.25-.68-5.01-.27-1.36-.27-2.3-.13-.54-.27-2.57-.28-1.76-.81-5.69-.54-3.93-.27-1.22 1.08-.13 8.53-1.22 4.2-.54 7.85-1.22 2.31-.41 9.47-1.35 3.12-.54 10.7-1.36.81-.13.81-.14.81-.14 2.58-.27 9.07-1.21 1.22-.28h.95l5.55-.81 1.89-.27 8.94-1.49 6.23-.81 5.41-.68 11.24-1.62 5.42-.68 5.69-.81 6.09-.68 6.63-.81 2.44-.27 4.33-.55 3.93-.54 3.39-.4 3.79-.54 2.84-.41 4.06-.68 5.56-.81 2.97-.54 1.22-.14 4.2-.67 6.91-.95 6.36-.82 7.85-1.21 7.18-.95h.27l6.64-.95h.81l.27-.14 4.87-.67 3.52-.41 13-1.76 4.07-.54 1.62-.27 9.48-1.36 5.01-.67 1.62-.27 4.34-.55 6.5-.94 6.9-.82 1.09-.13 1.21-.27 7.99-1.09 1.63-.13 1.22-.27h.54l1.49-.27 4.47-.68 5.41-.68 4.88-.81 2.03-.27.13.68.41.54.68 4.6-.27.82.13.67-12.32 1.76v.82l.27.4 2.98 4.47.68 1.08.13.55.14.67.13.54.14.68v1.08l-.14.41-.13.41-.14.4-.27.68 6.09-.95 2.04-.4h2.03l1.62-.27 7.18-.95.27-.27.27-.27v-.68l-1.9-11.51 1.76-.41.27-.13.14-.14.14-.13.13-.28.14-.4v-.27l-.14-.54-.81-5.29 9.61-1.35 6.37-.81 1.08-.14 3.93-.4 1.08-.14 1.35-.27.95-.14.95-.13 1.22-.27 2.84-.41 1.63-.27 4.19-.54 1.63-.27 1.62-.27 1.22-.27.68-.14.81-.27 1.36-.41.94-.27.82-.27.4-.13.27-.14.41-.13 2.98-.95.13-.14 2.44-.81 1.63-.41 3.38-.81 1.9-.4 2.43-.55 1.9-.27 1.35-.27 2.31-.27 2.97-.41 8.94-1.21 2.03-.27 1.76-.28 3.52-.4 3.93-.54 5.28-.68.27 2.71 2.3 17.74 1.22 8.66 1.76 13.28 1.22 9.2.95 7.45.81 6.5 6.23 48.48 4.47 34.94.41 3.93.13 1.08.68 7.45.67 7.86.55 9.48.13 4.46.27 5.96.27 12.06-.13 10.96-.41 12.06-.54 10.15-.54 11.65-.41 9.07-.4 8.26-.27 4.61-2.04 39.41-.13 6.09-.14 5.55.14 5.42.13 5.55.27 5.42.41 5.55.54 5.42.68 5.41.68 5.42.67 4.2.82 5.42.67 2.97.41 1.9 1.22 6.09.68 2.85 1.48 5.55 1.63 6.23 1.62 5.28 1.09 3.39 1.08 3.25 1.35 3.92 2.17 5.42 1.9 4.74 2.57 6.23 3.25 7.18.27.54 1.63 3.52 2.16 3.93 2.03 3.79 7.18 12.59 7.72 13.41 7.85 13.27 7.72 13.41 7.85 13.27 15.57 26.68 7.59 13.4 7.31 13.41 6.63 12.87.95 2.03 3.12 6.5 2.98 6.23 2.84 6.23 4.6 10.42 4.06 9.75 3.8 9.08 4.06 10.56 2.98 8.26.67 1.76 2.04 5.82 1.89 5.15.27.68 3.25 8.8.27.95 7.99 22.21 3.66 10.29.27.81 4.06 11.11 3.11 9.47.82 2.44 1.89 5.28 1.22 3.12 2.44 6.23 3.65 10.56 3.25 8.53.95 2.71 1.49 4.33-.68 1.49-1.35 2.85-4.47 9.48-8.12 17.47-1.09 2.3-1.35 2.84-4.6 9.75-4.61 9.62-.94 2.3-.82 1.49-.67 1.62-.95 1.9-1.22 2.57-.81 1.76-.82 1.76-.94 2.04-1.76 3.79-.82 1.62-.67 1.49-1.09 2.44-1.22 2.57-1.35 2.85-1.35 2.84-2.31 4.88-2.16 4.73-3.79 7.99-1.09 2.44-.94 2.03-1.22 2.58-2.71 5.82-1.35 2.98-1.9 3.79-2.71 5.82-1.49 3.12-2.03 4.33-1.35 2.98-.95 2.03-1.08 2.17-.55 1.22-.81 1.62-1.35 3.12-1.63 3.25-1.08 2.57-1.22 2.57-1.49 2.98-.81 1.9-.68 1.35-.54 1.22-.81 1.76-.81 1.76-.95 1.76-.54 1.36-.68 1.49-1.08 2.16-.41 1.09-1.08 2.16-.95 2.04-.68 1.35-.95 2.03-.94 2.03-.95 2.03-.95 2.04-.81 1.89-.54 1.08-.41.82-.41.81-.67 1.62-1.22 2.71-2.3 4.74-6.5 13.82-4.07 8.66-1.21 3.12-.82 1.76-2.16 5.41z" stroke-linejoin="round"/></defs><use xlink:href="#p" fill="#004249" stroke="#00465f" stroke-width="5.76"/><defs><path id="q" d="M325.38 1497.22l-.4 4.19-1.77 4.07-2.16 2.16-2.3 1.49-3.25.27-4.07-.13-4.33-.81-3.38-1.22-2.44-.82-2.17-1.49-2.03-1.89-1.49-1.22-1.08-1.63-2.71-3.92-5.42-7.18-7.58-14.22-11.24-15.84-22.47-31.69-.68-.81-1.9-3.39-3.11-5.42-7.31-9.48-1.22-1.35-3.93-3.66-5.28-4.74-17.87-19.9-28.98-28.17-3.66-2.44-2.43-1.62-6.64-3.39-8.26-.81-4.74-4.34-11.24-6.5-6.36-3.92-9.89-4.74-2.7-.14-1.36-.13-.67-1.49-.95-5.28-2.03-10.57-2.85-7.85-2.7-5.69-1.49-3.79-4.61-8.26-3.38-4.74-1.63-3.66-.81-3.25-.81-3.11.13-4.2 1.09-1.9 8.53-23.83 7.17-17.88 1.09-1.22.94-.27 1.36-.27 1.62-1.08 2.17-1.49 17.06-18.96 1.76-2.03 2.03-1.76 1.63-1.22 1.08-.95.81-.81.95-1.08.68-.95.54-.95.4-.68.28-.67.13-.41.14-.41.4-.54.95-.67.54-.55 1.76-1.08 1.76-1.22 2.3-2.3 1.36-1.63 2.03-2.16 6.63-8.94-1.08-3.66 6.91-7.44.67-1.09 6.5-8.39 4.74-5.96 5.15-5.28 5.01-5.42.4-.54 1.9-2.44 6.23-7.99 1.35-.54h1.36l.54.95-1.76 3.79 2.17.95.13 1.76.95.4 1.49-.13 2.16.95 3.8 1.62.13 4.06.95 3.25 1.22 2.31 1.49 3.65.13 1.49-.13 1.49.13 1.76v2.71l-1.49 5.01-5.82 8.13-6.09 6.22-1.09 2.04-2.7 2.57-.14.13-6.09 8.13-2.3 1.9-2.17 1.76-3.93 2.16-2.71.68-2.84-.14-.95-.27-4.06-4.19-2.17.13-3.11.81-2.17 1.49-3.11 2.31-2.17 2.84-15.57 21.26-1.08 3.12-.95 3.25-.27 2.7-.68 4.2-.68 6.23 20.04 19.5 4.07 5.28 1.35 1.9 1.63 2.44 2.3 4.19.54.82.41.95.27.81.13.81-.13.54-.27 1.49-.28 1.76-.13 1.09-.27 1.21-.27.82-.54.81-1.09.95-.4.4-.68.41-1.63 1.62-1.89 1.49-2.44 1.63-4.74 1.76-1.08.68-.41.54-.27.54v1.9l-.13.67-.27.27-.41.14-.27-.14-.41-.54-.54-1.49-.41-.67-.94-1.36-3.25-4.87-7.18-15.04-7.18-5.82-7.85-2.44-2.71 2.98-2.03 4.74-2.84 4.34 4.2 5.28 4.19 7.18 1.63 3.52 1.89 5.01 4.88 5.28 3.52 3.93 5.55 4.74 4.33 2.3 2.98 1.08 2.17.95.81-.54 5.69-3.39 18.82 25.73 1.22-1.22 1.62-1.62-10.29-13.41-3.65-8.8-.68-2.57-.27-1.36-.27-1.49-.14-2.16-.13-2.71v-2.58l.13-2.3.27-1.76.41-1.35.68-1.76.54-1.9v-1.22l-.14-.4-.27-.41v-.27l.14-.27.54-.54.54-.55.54-.4 1.36-1.22 1.62-1.22 1.22-.68 1.49-.54 1.76-.81 1.49-.81 1.76-.27 1.76-.28h5.01l2.84.41 3.93.54 3.66-.54 1.62 3.66.54.54.68.41 18.41 13.81 5.42-4.34 2.3-1.89 2.85-2.98-2.31-4.06 34.53-30.2 2.17-2.03h.41l.54.67 1.22 1.63.94 1.22.41.27.54.27.41.13.4.14.27-.14.28-.13.4-.41.41-.27h.27l.27.14.54.67 1.63 2.17.67.68v.27l-.27.54-.27.27-1.62 1.9-.82 1.22-.94 1.35-.55 1.49v.54l.28.14-.82 2.44h-.27l-.27.13-.81 3.66.95 22.48-.54.67-1.9.68-3.39-1.49-4.19.14-1.49.27-1.76.67-2.17-.13-5.96.68-1.22 1.22-3.52 1.08-1.08-.27-4.06-4.34-1.36-.54-1.62.95-4.47 3.39-5.14 4.06-.28 2.17.55 1.49 2.43 2.03 6.1 4.06 1.22 2.17 1.62 4.06.81 4.33-.13 3.25-2.58 7.72-2.84 6.37 3.52 3.38.81.95.27 2.03-.13 1.35-1.08.68-2.71.95-1.9.95-2.3 1.49-3.25 2.57-2.98 1.76-3.25 1.9-1.76.81-.95.27h-2.03l-8.26-1.49-21.39-20.58-.95 1.08-1.08 1.08.4 1.22 11.51 12.05 9.89 8.81 7.58 1.35h4.6l1.22-.13 1.22-.14 1.22-.54 1.35-.68 1.22-.68 1.49-1.08 2.98-2.44 3.12-2.57.54-.41.4-.13.41.13.41.28 13.27 14.08 1.08.41 8.26-3.8 4.47 1.49 12.32 5.96-.27 1.22-.27 1.35-.14 1.9-1.76 1.35-2.3 1.09-6.63 7.58v2.98l.81.81 1.22.68.81-.54 1.62-1.22 12.73-9.61 2.98-1.22 1.63 3.79-1.09 3.79-.13 1.76.13 2.84.95 2.04.81 2.16.41 2.03-.41 2.44v1.76l.41 1.36.41 1.49.67.67 1.63.41.13.27.95-.14.81.68.41.27.13.54v.55l-.54.4-.54.14-.54.54-.14.54.14.81-.14 1.22-.13.95-.41.54-.27.81-.81.82.14 1.35v.81l.27 1.36.94.95.82.27 2.16.13h1.36l1.22-.13.13-.41-.41-.41-.54-.4-.54-1.22.81-1.08v-1.09l.27-.81-.27-.27-.4-.27-1.09.13-.67-.4-.41-2.31.68-1.35 2.03-1.76 1.89-.81h2.17l1.36.54 1.35 1.08 1.08 1.22 1.09.81 1.62.82 1.63.81 1.21 1.49 1.49 1.35 1.09 1.49.4 3.93-1.35 2.84-1.22.68-1.49.14-1.22.67-1.35 1.36-1.63 1.49-.27.94.14.95 1.35.41 1.9.68 2.84.54 2.44.27 2.84.68 3.12.27 1.89-.54 1.36-1.36.54-1.22-.68-1.22-1.08-2.71-1.09-.54-1.21-.67-.82-.95-.67-2.71 1.08-.68 1.35-.67 1.49.54.68-.68.54-1.22 1.36-.54 1.89 2.98 1.76 2.44 1.09 4.6.13.41.81 13.4-.13.27-.27.28-1.49 1.21-.82.95-1.21 1.36-.95 1.08-.41 1.35-1.22 2.31-.81 1.76-1.35 3.25-.82 1.76-1.62 2.71-4.06 6.63-.95.81-1.9-3.11-.94-1.63-1.09-1.08-1.89-1.62-1.22-2.04-3.52-4.33-2.85-2.3-1.35-1.9-1.35-1.49-.82-2.57-.67-2.44-.95-1.89-1.63-1.22-2.97-1.09-2.85-.13-1.89-.54-2.71-.68-1.9-.27-2.16-.14-.82.41-1.89 1.49v1.49l.95 1.62.4 1.9 2.03 1.08 3.52 5.83.41 1.89 2.03 2.85 2.03 3.52 2.03 3.65.95 1.09.81 1.35 1.9 1.36 1.22 2.3 1.35.13 1.76 2.03 2.3 1.63 1.36 2.71 1.62.81 2.58 1.49 1.89.68 2.84.4 2.85 1.09 3.52.67 1.76-2.84.68-1.22.27-1.49-.27-1.89-.55-2.04-.67-1.76-.14-1.49 2.03-4.6 1.36-3.25.94-2.71 1.22-2.98.95-2.44 1.22-2.43 1.35-3.52 2.04-2.04.4-.27h.27l.14.41-.41 16.12-.95 5.28v2.98l-.54 3.11-.95 3.93-.13 3.25-.81 3.52.13 3.66.41 2.3.4 2.3.82 2.57.27 3.93.4 2.98-.27 2.71 1.22 5.69z" stroke-linejoin="round"/></defs><use xlink:href="#q" fill="#004249" stroke="#00465f" stroke-width="5.76"/><defs><path id="r" d="M312.92 1404.72l-.81.54-.4.14-.82-.14-.13-.27-.41-.67-.13-.68.27-.68.4-.27.68-.4.68-.55.67-.54h.27l.41.27.68.54.4.55v.81l-.4.54-.27.27-.54.27-.55.27z" stroke-linejoin="round"/></defs><use xlink:href="#r" fill="#004249" stroke="#00465f" stroke-width="5.76"/><defs><path id="s" d="M314.28 1397.27v1.22l-.14.41-.27.27-.95.41h-.54l-.67.4-.14.27-.54.68-.95.41h-1.22l-.4-.14-.28-.54-.13-.81v-.41l-.68-.68v-.4l.14-.68.54-.13-.14-.41.14-.68.27-.4.27-.55v-.67l.41-.54.4-.14.54-.41.28-.54.67-.54.54-.41.82-.13.54.13.81.41.41.54.4 1.09v2.03l-.13.94z" stroke-linejoin="round"/></defs><use xlink:href="#s" fill="#004249" stroke="#00465f" stroke-width="5.76"/><defs><path id="t" d="M379 1318.32l-4.33 32.91-18.55 23.16-.41.13-5.55-6.77 13.54-17.87 1.22-1.76.41-.82.67-1.08.54-2.57 3.25-25.46.68-1.76 7.58 1.62.95.27z" stroke-linejoin="round"/></defs><use xlink:href="#t" fill="#004249" stroke="#00465f" stroke-width="5.76"/><defs><path id="u" d="M364.92 1345.81l-.41.55-.27.13-1.08.27-.54.14-.41.4-.54.68-.68.95-12.18 16.11-.55-.13-15.03-19.1-14.08-19.36.14-1.08 4.33-3.52.68-1.22.54-1.22.41-8.26.27-.95.54-.14 21.93 3.39 19.5 2.44-2.98 24.51-.27 1.89v.68l.27.81.55.82v.54l-.14.67z" stroke-linejoin="round"/></defs><use xlink:href="#u" fill="#004249" stroke="#00465f" stroke-width="5.76"/><defs><path id="v" d="M286.52 1342.43l-.41 2.17-.4.81-.54.4-.41.55-.27.81v.68l-.27.54-2.44 1.49-.68-.14-1.22.54-.81-.27-.54.95-.68-.41-1.08-.94-.95-.14-.54.14-2.98-.14-.68-.54.68-1.63-.4-2.84.81-.95.27-.54.13-.13.55-.55.81-.27v-.67l-.54-.41h-.68l-.68.27-1.22 1.76-.81-.27-.27.81-.13 2.98-.14.54-.41.27h-.54l-.81-.13h-.81l-.27-.81v-.68l-1.76-1.35-.82-.28-.27-.81-.4-.27-.82-.13-.81-.82-.95-.54-.94.14-1.9-.27-.54-.28-.95-.81-2.3.27-2.3-2.16h-.68l-.54.94-2.03.28-1.09.81-2.03.4-1.49-.13-.4-1.36.67-.94-.27-.82v-.81l-.67-1.08.4-.81v-.55l-.67-1.21.54-.82v-.81l-.81-.41-.28-.67-.13-1.49-.54-.68.13-.95v-.81l.68-.41.14-1.62 1.08-1.09 1.22-.54.27-.67.81-1.09.54-.27.95.14.27-.41v-.54l-.41-.68-.81-.27-2.44-.13-.67-.27-1.09-.14-.27.27-1.22-.54-.67-.81-.14-.82.27-.81.41-.68.68-.67 1.22-.68.94.14.82.4 1.62-.27.41-.27h.94l.82-.95 2.43-.95.55-.54 2.84-1.89h.54l2.3 1.35h.27l.82.95h.67l.68.81.81.27 1.09-.27 1.21.27.55.54h1.08l.81.41 2.17 2.17.27 1.22.13 1.08.41.41.27.81.54.4.14.95-.14.95.54.54.14 1.08v.55l.54 1.89.41.81.54.68-.14 2.44.55 1.49.94.81.27 1.22.82.68.27.54v.68l.4.94.14.14.95.54h.54l.95.81.4.55.68.4h.95l.4.68 1.76.27.82.95h.67l.95-.41 1.49-.27.68.54.54 1.49v.68z" stroke-linejoin="round"/></defs><use xlink:href="#v" fill="#004249" stroke="#00465f" stroke-width="5.76"/><defs><path id="w" d="M319.42 1321.98l-.81.95-.41.68-1.62-.55-2.57-3.38-.41-.81-1.62-23.97-.27-5.96.94-1.22 1.22-.81 11.92-5.01-4.34-12.73 2.71-1.22.41-.14.27-.27.14-.13.27-.14.54-.27.67-.14h.41l.41.27h.54l.81-.27 5.55-2.03h.54l.28.27 4.19 3.8h.41l.13-.28 9.35-12.72 1.08-.28 1.22.68 14.22 13.54.4.41.41.68.27.54 2.44 6.9 1.35 4.07.27 1.22.14 1.22.13 1.48v1.77l-.13 1.08-2.85 23.16-.81 1.08-18.82-2.98-23.7-3.66-1.89-12.46-.68-.4h-.68l-.27.68 1.63 23.02-.41 1.62-2.98 2.71z" stroke-linejoin="round"/></defs><use xlink:href="#w" fill="#004249" stroke="#00465f" stroke-width="5.76"/><defs><path id="x" d="M379.54 1313.58l-.94.95h-3.66l-3.25-.54-1.08-.81 2.71-23.16v-4.47l-.14-2.16-.41-1.63-.27-.81-.13-.68-1.22-3.11-2.71-7.59-.27-.67-.27-.55-.27-.4-.54-.68-15.3-13.81v-1.09l1.89-3.52 3.12-3.38.67-.14 1.36.68 15.84 14.62.95.82 6.9 19.36.54 2.58-3.52 30.19z" stroke-linejoin="round"/></defs><use xlink:href="#x" fill="#004249" stroke="#00465f" stroke-width="5.76"/><defs><path id="y" d="M321.32 1267.13l-13 5.15-.95-.13-1.49-.55-.4-1.89-1.49-3.52-.14-1.36.54-.54 15.44-6.09-.27-.68-1.63-.27h-1.76l-12.32 4.47-.68-.41-.54-1.08-.81-2.17-1.08-3.11.67-.95.68-.27 20.99-7.59-5.69-19.23-.4-.67-.55-.14h-.94l-12.05 10.97-.55-.27-.54-.41-.54-.27-.54-.4-1.9-1.22-1.49-.81-1.21-.82-.68-.4-.68-.41-.68-.41-1.76-2.03-.4-.81v-.54l.13-.27 20.99-23.84 13.81-17.74 6.37-4.33 1.49-.95.54-.27h.4l1.49.41 1.09.68 3.38 2.43.14.41.13.27-.13.54-.68 1.22-.95 2.03-.81 2.98-.68 2.3-.4 1.09-.14.94v1.63l.27.81.54.81 1.63 1.76.4.68.28.41v1.22l-.28.27-7.71 7.18.13 1.76-.13 2.7 2.7 6.78 1.49 3.11.41 2.3 1.49 29.25v.41l-.14.41-1.08 2.16-.95 1.22-.27.27-.27.27-10.29 3.52-.27.27-.14.28-.13.27-.14.13-.67.14-.68.27h-.27l-.41-.14h-.4l-.68.27-1.76.54z" stroke-linejoin="round"/></defs><use xlink:href="#y" fill="#004249" stroke="#00465f" stroke-width="5.76"/><defs><path id="z" d="M535.94 1219.47l-7.86 1.08-8.93 1.22-.81-6.23-8.13 1.22-7.99 1.22-5.14.81-2.17-.54-2.03-.54-6.37.94-2.57.41-.4-2.3.54-3.39 2.16-1.35 2.31-.54h2.3l1.35-.54.95-.55 1.49-1.22 1.62-1.35.95-1.49 3.93-4.47 10.7-13.95.94-.94.41-.55.81-.54.68-.54 2.57-1.35.81-.41 1.49-.95h2.85l6.23-1.89 1.89-.27 5.42-.41 1.35.27 1.9.14 1.08.13.81-.13.82.27h1.21l.82-.14h.54l.54-.13.27-.14.27-.41.14-.54.27-.95.27-.27h1.22l.4.27 1.76 1.36.82.54 1.89 1.22 1.22.81 1.22.54 3.25 1.22 2.44.41h1.62l.81.27 1.49.54 1.63.54 2.16 1.36 1.9 1.49 2.03 1.49 1.63 1.21 1.35 1.09 2.98 2.03 2.3 1.76 1.76 1.22h.54l.14-.41-.14-.54-.54-.41-1.49-1.21-1.08-.95-1.63-1.22-3.92-2.85-.54-.27-.41-.27-.41-.4-.27-.27-.27-.27-.27-.41-.27-.41-.14-.4-.13-.27-.14-.41-.27-.68-.27-.67-.27-.68-.68-.68-.4-.41-1.09-.67-2.16-.27-3.25-1.63-3.79-2.16-5.01-2.85-1.9-.68-.54-.81-.54-1.49h-.27l-.41.81-1.08 1.09-.81 1.22-.28.4-.27.14h-.27l-.81-.14h-.54l-.54-.13-.54-.27-2.71-1.09h-.68l-1.49.14-1.89.27-3.93.68h-.95l-.54.13-.41-.13-.54-.27-.41-.55-.4-.81-1.22-3.52-.41-1.35-.27-.82-.13-.67-.14-.68-.13-.95-.14-.68-.13-1.49-.27-1.35-.28-1.35-.13-.82-.14-.54v-.27l-.27-1.22v-.95l-.27-.4-.13-.41-.14-.54v-.68l.14-.54v-1.62l.13-.27v-.82l.14-.27v-.27l-.14-.27-.27.14-.27.27-.14.54v.54l-.27.41-.4.27-.27.4-.54.14-.41.13h-.41l-.4-.27-.27-.4-.14-.41-.13-.4v-.55l-.14-.27-.14-.4-.13-.41-.14-.14h-.4l-.27.14-.68.27h-.14l.14.54.13.41.28.27.27.27.27.41.13.4v.41l.27.27.27.41.68.4.41.54.13.68.41.27.41.27.13.68v.27l.27.54v.41l.14.95.13.67.14.27.13.28.27.54.14 1.35v1.36l.13.81v.4l.14.28.27.27.14.13v.27l-.14.68.95 4.06.13 1.76v1.09l-.13.67-.54.54-.54.82-1.76 1.22-1.36.4-6.63 1.49-1.36.54-.67.41-1.09.68-2.44 1.89-.81.41-.4.27-.82.27-.81.68-.68.68-.4.4-.95.54-1.35.68-.68.27-.68.41-.95.67-.94.95-.82.68-.27 1.08-.13.27-.27.82-.41 1.22-1.22 1.21-1.08 3.25-.41 1.09-.54.95-.54 1.48-.54 1.22-.68 1.49-1.08 1.36-.68 1.35-3.79.81-1.36-12.73 1.09-9.07-.14-8.8-4.19-8.13-1.36-1.62-1.89-3.12-1.63-3.25-1.76-2.84-.81-2.44-.41-2.84-.4-1.36-.68-1.49-1.63-3.25-3.25-4.73-2.16-2.98-3.12-1.22-1.22-.14h-.67l-1.09.14-.94.4-1.09.27-1.08.55-.54.81-.27.54.13 1.63.68.27h.81l.27 1.08-.13.81-.27.81-.27.82-.14.94-.41.68-.4.68-.54.95-.82 1.22-.81.4-1.08.68-.81.54-.82.14-.94.27-.82.54-.81.95-.95.81-1.35.27-.81-.14-2.44-.4-2.57-.68-2.17-.81-.81-.54-1.09-.82-.94-.94-1.36-1.36-.95-.95-1.21-1.21-1.36-.95-1.22-.95-.67-.54-1.09-.95-.13-1.08.54-.95.54-.54h.54l.68.13.41.14.94.27 1.09.54.94.27 1.22.54 1.36.54 2.98 1.22 3.92 1.36 1.22.13 1.49-.13 1.35-.54.82-.82.95-1.08.67-1.22.81-1.22.68-1.35 1.08-.54.95-.27h.14l-.14-.14.41-.68.13-.81-.27-.95-.4-1.35-.82-1.76-1.62-1.36-2.03-1.49-2.17-1.49-1.89-1.21-2.98-2.44-2.17 3.79-.54.68-2.84 5.14-2.31-1.35-2.03-1.63 2.44-4.33 1.35-1.9 1.9 1.22 3.93-5.68.54-1.09-3.39-1.62-19.09-5.42-2.3-.81-1.35-.68-.68-.41-.81-.81-.14-.27-.54-.27-1.49-.41-1.63.41-1.76.54-1.08.41-.95.68.27 1.76 2.03 14.62 1.49 10.97.28 1.22.27 1.08v1.09l-.55 3.92-.27 2.98-2.03 3.25-3.25-.27-2.3.27-2.3-.27-1.22-.68-2.3-1.62-1.9-1.49-1.35-2.44-.81-2.84v-2.17l-.14-.4-.41-3.25-1.21-8.81-.27-2.43-.14-.41-.54-4.47-.54-.41-1.49-.4-1.9-.41-1.49.27-4.06.68-2.44.81-2.43 1.36-.95 1.08-.54 1.08-.28.95-.81 1.22-4.2 6.36-.4.55-.41.13-.54.27h-.41l-.54-.27-2.84-2.03-.95-.81-.68-.68-.13-.27v-.54l1.22-2.17.95-1.49.54-.68 17.6-19.63 4.2-4.47 2.16-4.6 6.64-11.24 3.11-.41 3.12-.41 2.3-.67-2.57-20.86h-4.34l.82 4.74 1.76 11.24.27 1.35-2.58.41-11.37 1.76-2.3-10.16-1.36-15.97.41-1.09.27-1.35-.13-1.09-.27-.54-.55-.54-.4-.41-.27-.54.13-.67.41-.27 13.95-3.93 1.08-.27 3.25-.41.4-.41.41-.94-.41-.68-.67-.81-.82-.41-.94-.13-.27.4v1.08h-.55l-.81-1.21-.27-2.17-.27-1.63-.68.14-.13.95v2.44l-1.22 2.3-9.21 3.38-2.03.68-.81.14-.95-.28-.27-.27-.14-.54.14-.95.27-.94-.68-20.99-1.08-.95-.14-.68.41-.54 1.36-.27h1.48l5.69-3.25.41-2.71-.27-2.17 18.01-3.25-.95-3.92-10.29 1.08-6.1.95-.67.13-.54.54-.68.55h-.41l-.27-.28.14-.4 1.08-1.49 1.35-1.08.14-1.22v-.95l-.54-.54-2.44-.82-.95-.67-.13-.68.81-.41 1.49.14.68-2.57.54-1.9.27-2.3-1.49-8.67 2.3-2.3-1.22-1.63-2.98.41-4.87-9.75-6.23-1.08-4.2-6.1-6.77-10.7-.95-1.35-7.71-11.78 6.63-3.39 7.72-.67 3.38-.68 4.74-2.17 4.61-3.25 4.33-3.92 1.76-1.77 1.63-.94 2.84-1.76v-.95l-.14-.54-.27-1.09.14-.4.13-.41.41-.27.68-.54 2.03 4.2.81 2.03.41 1.08.54 1.9.27.54.13.4.41 2.04.27 1.21.27.95.41 2.31.4 2.97.14.95.41 2.44 1.08-.14 2.3-.4 6.09-.81 4.61-.55 3.65-.54 17.07-2.3 15.03-2.03.81-.14-.95-8.26-1.22-8.26 19.64-2.44.94 7.32 1.22 9.34.41 2.98 16.38-2.03.27-3.12 15.85-2.16 14.62-1.9 2.03-.27 5.15-.54 5.55-.81 2.98-.54 3.25-.41.94-.14.68 4.07.27 1.89.27.95.27 2.03.41 2.44.95 6.36.4 2.85.28 1.89.27 1.76.4 2.31.27 2.57.14.54.54 3.66.27 1.35.14 1.08.13.95.14 1.09v.81l.13 1.08v1.63l-.13 1.76-.82 7.72-.27 2.84-.27 2.44-.13 1.22v.54l-.14 1.08v3.66l.14.81v.81l.13 1.09.27 1.35.41 2.84.14 1.9.67 3.93.27.67-.54.95.27 2.03.27 2.71.27 2.03 1.22 7.86.41 3.65.68 4.74.54 4.34.81 5.28 1.08 7.31 1.09 7.31.13 1.09.41 2.57.4 3.79.28 1.36.13 1.62.41 2.17.54 4.06.81 5.55.41 2.85.13.81.27 1.76.41 3.79.68 3.39v.67l.13.95.41 2.98.27 1.09.27 2.3.27 1.49.81 5.82.27 1.08.82 6.5.13.55 1.63 10.96.94 7.18.41 2.44.41 2.44.4 3.38.27 1.36.68 4.47.41.54.13.67.27 1.09.14 1.08.13.54.14.82.27.94.14.41.27.68.13.67.27.55.27.67.27.82.41.81.41.81.4.81.41.82.41.81.4.95.27.67.82 1.76.4.95.14.54.27 1.09.27.4 2.71 5.69.67 1.35.41.82.27.67v1.36l.27.68.54.81v.13l.27.68.14.14.13.4.41.81.27.95.68 1.76.4.95.14.41.14.54.13.54.27.95.41 1.49.68 2.71.13 1.08.41 2.3.27 1.63.27 2.03.27 1.89 1.08 6.78.41 2.3.27 2.57.54 2.84.14 1.63.67 4.33-2.16.27-3.39.55-2.44.27-4.06.81-9.07 1.35-12.32 1.76-16.79 2.58z" stroke-linejoin="round"/></defs><use xlink:href="#z" fill="#004249" stroke="#00465f" stroke-width="5.76"/></svg>