<svg width="384" height="4.78in" viewBox="0 0 2880 3439" xmlns="http://www.w3.org/2000/svg" xmlns:xlink="http://www.w3.org/1999/xlink"><path fill="#fff" d="M0 0h2880v3439H0z"/><defs><path id="a" d="M2711.68 2853.73l-22.78 11.71-7.85 1.83-7.63 1.61-4.3-.32-4.62-2.26-4.19-3.44-4.73-5.27-8.82-9.88-5.05-8.06-6.02-10.64-6.34-8.49-1.4-2.04-8.6-14.41-6.66-7.2-4.94-3.97-5.81-3.87-6.12-2.58-7.1-2.9-8.38-1.29-7.63-.22-7.85.97-4.84.97-4.3 1.29-5.8 1.72-6.77 3.44-8.17 3.11-4.3 1.72-7.42 3.33-6.12 3.44-4.19 2.47-3.87 1.08-6.88.32-10.86-.32-8.81.32-12.15.43-20.31 1.94-12.04-.54-12.57-3.23-11.83-4.4-7.84-2.37-3.98.86-4.94 1.62-10.97 1.29-7.63-.54-11.82-.97-14.41-1.61-17.62-.43-18.49 2.36-14.29 3.23-11.4 2.68-7.41 2.26-6.24.22-12.57-.65-10-.64-15.69-2.91-10.32-3.11-5.91-3.98-5.05-2.79-3.34-1.61-4.51-.65-3.87-2.69-6.99-4.29-8.27-6.24-3.76-3.87-14.41-7.3-5.59-2.69-2.47-1.08-5.8-.53-11.39-1.51-1.72-6.66-1.08-5.8-.54-6.13-.96-4.62-.65-6.77-.97-4.84-.64-1.61-1.83-1.07-2.79-.11-4.73.96-6.02-1.18-5.27-2.15-2.9-2.25-3.65-4.09-1.4-2.58-2.15-2.47-1.08-3.33-.75-4.41-1.18-3.97.11-5.05-3.55-3.98-5.7-5.05-3.54-3.55-3.34-1.93-3.76-1.72-5.48-.54-4.94-.86-4.41-.54-5.91-.53h-3.66l-6.12-.22-8.17 1.4-4.41 2.15-3.55 1.83-1.93 2.25-1.4 2.37-.96 2.36-1.29 2.69-1.4 2.04-1.94 1.93-1.82 1.62-1.83.53-2.26.22-2.36.11-2.47-1.4-1.83-2.58-1.4-3.55.75-4.19 2.26-2.26.65-2.47.96-3.22 1.4-3.33 2.15-3.98 2.58-5.91 1.4-4.62.75-3.55-.86-2.9-2.37-2.47-3.43-1.94-4.09-.32-2.04.86-2.26 2.8-2.47 4.51-2.69 3.65-3.22 2.58-2.26.43-3.44-.43-2.04-1.29-5.16-3.33-4.41-3.87-4.73-3.97-2.36-2.37-1.61-2.25v-2.37l.96-3.97.65-2.8.32-3.33.11-2.58-.97-3.87-.43-3.44-.11-3.54.33-3.01 1.39-3.23 2.69-2.79 3.44-3.01 2.9-2.69 2.26-4.4 1.93-4.95-.21-3.54-1.29-1.94-2.47-.43-2.15.86-1.08 2.47-1.18 3.12-1.93 3.33-2.48 3.33-3.54 1.94-4.3.86-4.41-1.08-4.3-2.79-1.29-1.72-1.83-3.12-.43-3.01 1.29-2.36 7.96-3.33 7.2-3.66 5.16-3.44 3.12-1.82 4.19-3.44 2.47-3.23 1.4-2.79.96-3.01.54-4.08-1.18-2.8-1.83-1.93-2.79-1.94-2.58-1.5-1.83-.65-3.12-1.39-3.97-2.58-3.76-3.23-3.98-4.29-3.12-3.55-7.42-4.94-8.59-4.52-6.35-3.22-3.97-.65-4.52 1.29-4.94.76-5.27.42-2.79-.96-3.76-3.23-4.41-4.3-4.19-3.76-.54-.43-9.35-6.34-2.26-2.04-1.93-2.36-3.12-2.69-3.33-1.72-3.98-.54-1.61.43-4.62 1.51-3.33 2.04-6.78 4.51-9.45 6.13-8.93 4.62-5.69 1.72-4.41-.32-3.22-1.4-3.01-2.58-2.15-4.08-2.9-6.99-1.4-1.72-.43-.21-2.04-.97-2.58-.43-1.83.11-1.94.43-1.71 1.07-3.34 2.47-2.68 1.94-3.66 2.26-4.19 2.47-3.44 1.93-11.18 7.95-7.74 7.1-2.68 3.22-2.91 2.15-6.34 2.04-4.73 1.94-4.62 3.54-3.22 4.62-4.19 8.49-2.58 3.87-3.77 4.41-.21-10.1-.11-5.16-.21-34.93-.11-9.89-.32-15.9-.97-42.67-.22-14.29-.43-.11-.43-.1h-.64l-1.29.21-.86.32-.64.65-.54.86-.32 1.39-.11.65v1.18l-3.87-.54-108.24-.32.11-10.21.11-1.18-.11-2.9v-3.12l-.54-16.44-.21-5.8-.32-9.25-.11-2.25-.43-3.01-.54-3.33-.75-3.34-.32-1.28-.33-1.51-.53-1.61-.43-1.29-.97-2.15-1.08-2.79-4.08-8.39-2.69-4.3-2.68-4.29-3.44-5.27-2.26-3.55-3.33-5.16-3.76-5.91-6.78-11.07-1.82-2.79-.65-.97-3.55 2.15-1.82.86-15.48 7.31-2.36 1.4-13.98 6.23-12.57 5.8-.22-.96-.86-4.41-.43-1.61-.53-2.26-.22-.54-1.29-3.33-.32-1.07-1.94-4.52-17.19-27.94-19.46-31.92-1.18-1.93-4.94-7.31-7.74-1.4-1.83-.43-3.33-.75-6.24-1.82-7.09-2.8-2.58-1.4-2.36-1.18-4.2-2.26-5.16-3-4.19-3.01-17.84-15.26-6.56-5.7-3.22-3.12-17.2-14.83-20.2-17.51-18.49-15.91-5.05-4.41-7.53-6.12-5.69-5.16-12.69-9.89-13.65-8.38-4.19-2.69-2.47-1.5-4.52-2.69.65-28.69-1.18-10-.54-1.5-.43-.75-.75-1.4-.86-.97-.75-.97-1.94-2.47-3.44-3.22-6.77-2.47-7.63 4.08-2.37 1.08-7.95 3.22.11-1.61.43-8.38-.54 1.71-1.61.54-11.29-.11-.75.43-.43.76.64 22.67-5.37-3.33-19.67-11.71-5.16-3.76-.43-.22-5.16-4.73-6.88-8.17-2.36-3.86 1.18-10.54-2.79-7.84 4.3-6.77 20.63-25.69 7.1-8.59 4.62-5.27 4.62-4.19 12.68-8.81 13.76-8.39.54-.32 12.9-7.95 4.4-2.8.54-.32 16.23-10.21 30.2-18.59 9.78-6.02 8.07-5.05 16.76-9.13 7.1-3.55 8.27-3.76 29.35-14.4 8.27-4.09 6.56-4.08 11.07-7.85 4.51-3.33 6.67-5.8 14.72-14.08 3.23-3.22 8.49-8.49 1.29-1.29 2.15-2.37 2.58-3.87 5.8-9.45 1.61-2.15 2.26-2.04 2.8-2.05 4.08-2.36.86-.43 2.9-1.4 24.94-7.52 21.71-6.56 36.54-11.28 14.84-5.37 63.84-18.81 52.77-15.8 6.56-1.83-.75-39.76 16.98-.97h6.34l.75.43 9.68.11 6.77-.11h6.56l15.47-.1 5.59.1 9.68 1.08 12.25 2.04 4.94.86 7.53.97 18.48.53 15.91.43 11.29.22 8.92-.65 3.65-.32 6.45-.54 6.13-.43 5.91-.53 20.42-1.61 23.97-2.26 3.12-.32 5.37-.54 3.01-.32 1.61-.11 2.69-.32 1.18-.11 3.12-.11 6.02-.54 6.23-.43 22.9-1.72.43.97.21 1.29.22 1.51.21 1.07v3.76l.43 3.01 1.18 3.12.33 2.47.96 1.93 1.4 4.63 1.18 4.19 1.94 4.51 2.15 2.79 2.15 3.66 1.29 2.79.86 3.66.96 2.79 2.15 8.92.43 3.12.97 3.33.86 2.79 1.29 2.69 1.29 3.33 1.83 4.62.86 4.41 1.39 6.66 2.15 7.85 2.26 7.73 1.83 7.96.11 3.76-.86 2.26-1.72 1.61-.33 2.58 1.29 4.19 1.72 3.65 2.26 4.3.22 2.26-49.77 31.59-.32 13.44 5.7.1 3.76.11 1.93.11 2.04.21.97.11.86.22.75.21 1.19.43 44.6-5.16.11.86.11 7.85.86 5.8 2.68 3.01 3.76 2.47 3.01 3.01.86 1.83v-2.26l.43-2.47 2.15-1.93h2.48l3.87-.33 2.57-1.61.76-2.26.32-3.76.86-3.33 2.04-3.65 2.9-3.55 3.44-3.22 3.34-3.98 2.04-2.47.43-3.12v-2.9l.32-1.83.86-2.47v-2.26l-.97-2.36-.43-2.79.43-2.26 1.61-2.47 3.01-2.26 2.48-2.36.75-3.23.86-3.33-.43-3.22v-3.01l-.11-2.69 1.18-2.69 1.72-1.82.76-1.94.43-3.22.32-3.66v-3.43l-.11-2.15.86-3.01.43-2.37v-5.48l.64-2.68 2.26-2.91 3.23-3.65 1.29-1.5 1.61-3.12.86-2.37v-3.11l.32-2.04.43-2.91 1.18-1.93.86-1.29 1.19-2.36.86-1.83 1.28-1.94 2.05-1.39 2.25-.54 2.05-1.4 2.04-1.82 1.5-9.89.43-1.4.43-2.9.86-2.69.76-3.22-.33-2.69-.75-3.11.43-2.58-.32-2.9-.75-3.23.43-3.55.86-2.68.21-3.55v-3.44l-.11-1.93v-2.47l1.19-2.26.53-2.79v-3.01l8.82.43 6.02-.65 6.01-.75 10.54-2.26 5.69-1.4 3.23-.75 2.36-.64 11.07-2.69 21.07-4.94 28.48-6.34 31.39-7.31 19.24-4.3 19.13-4.41 15.58-3.65 2.48-.64 11.07-2.58 7.84-2.05 4.95-.96 25.15-6.02 39.77-8.92 18.27-4.3 44.5-10.42 8.06-2.05 27.08-6.12 6.35-1.51 2.58-.64 9.13-1.94 5.27-1.18 7.2-.86 8.49-.21h1.29l9.89 1.07 7.09 1.61 5.59 1.83 9.78 4.3 26.44 12.68 1.19 3.87 1.07 3.44 18.38 51.8-1.18.11-12.79.21-7.63.32-2.05.11-.96.22-.76.21-.86.43-4.4 2.37-3.33 1.93-6.13 2.15-13.33 1.93-3.65 1.72-1.62 2.15-2.47 3.23-2.58 5.15.22 14.19 3.44 9.57.1 5.69 2.05 4.09 10.75 1.07 6.77 1.83 13.43 11.17 2.47 9.14.43 10.1.65 2.15 7.42 1.93 1.29 2.05 1.29 1.82.96 1.72.43 1.29.32 1.94.22 4.3v5.05l.11 1.18.43 1.29.43.75.53.86 2.37 2.58.97-.75 1.18-1.08.97-.75 1.29-.97 1.39-.86 1.19-.64 1.5-.75 1.93-.86 3.12-1.51 3.66-1.93 2.9-1.72 5.59-3.33 4.4-2.05 1.94-.86 3.76-1.61 3.55-1.29h.21v1.83l13.12.43 17.95-1.18 6.23-.11.11 4.41-.11 20.31-.32 2.25.1 1.83-1.18 43.96 37.84 2.36 19.13-11.39-1.18 8.92-.65 4.3-.43 3.54-.43 2.15-.21 1.19-.43 1.82-.11.54-.22.54-.32 1.29-1.29 3.87-.64 1.82-.86 1.94-.76 1.5-.53 1.18-.76 1.29-3.54 6.02-2.04-.43-2.26-.21h-2.58l-11.72-.11-12.9.21-2.25.11-43.86 6.34-.53 4.09-2.58 8.49-6.99 13.43-.64 16.66-.65 1.93.65 20.21.1 1.29-64.59 10.31v-39.55l-.43-1.39-1.08-.75-39.77-.86-2.68 1.07-11.5 12.68 2.79 4.62 4.41 3.76 3.33 1.4 1.4 3.44.21 3.98 1.61 3.33 2.69 3.11.65 5.59-2.37 6.13-1.5 4.3-1.62 2.04-.21.32-2.8 2.47-4.72 1.94-3.77 4.4-2.36 5.59-2.15 2.8-1.51 1.82-5.05 1.08-1.72 2.15-.43 3.11.97 3.66 1.93 3.33.33 3.87-1.51 3.87.11 4.08v4.09l.43 2.57-.86 2.05-2.15 2.58-1.5 1.82-.97 2.04-.43 1.62.11 1.39.43 1.29.64 1.29.65 1.08.43 1.39.21 1.19.32 1.93.33 1.51.32 1.5.43 1.93.21 2.8.97 2.26 2.04 2.79 3.33 1.83 3.87 2.68 2.91 3.12 4.51 4.62 7.63 8.92 1.61 4.19 2.69 3.87 2.15 2.58 2.47 1.51 2.04 2.25 1.83 4.73.65 3.65-1.08 4.52-1.5 3.33-.11 4.08 1.07 2.26 3.12.11 3.66-.86 2.25 1.61.43 2.26-.43 2.25-2.15 1.72.11 3.34 1.83 2.14 2.68 5.92 4.73 5.37 5.59 2.47 2.8 2.36 2.68 7.64 1.72 1.93 3.87 7.2 2.15 3.55 4.09 3.87 4.94 1.71 5.27 2.58 4.19 4.52 4.62 5.26 2.26 6.56 5.05 7.09 2.37 3.12 2.25 5.69.65 8.71-.65 9.56.76 4.52-.22 14.18 1.4 9.89 3.76 4.3 3.22 2.36 4.41 1.19 2.15-.33 1.08-2.36 2.15-1.72 3.11.86 1.4 4.41.54 4.19 1.07 2.25 2.69 2.48.43 5.8.43 4.19-.65 3.33v3.23l1.29 5.58.76 5.59.75 6.13-1.18 19.56-.33 24.18 1.19 5.69.64.76.11 1.72 2.69 4.72 4.4 4.52 3.55 1.4 2.04 2.14-.11 6.56 1.62 3.33 1.82 2.15 1.19 5.27 3.33 7.63.1 3.87-3.22 4.19.11 6.23 8.92 5.91 6.77-.11 3.76 3.98 4.62 2.36 1.72 5.49 3.77 3 4.19-1.5 4.83-.32 4.63-2.47 14.08-.54 7.95-3.12 3.87 1.61 1.5 2.8.86 6.45 3.44 8.59 3.01 4.84 4.62 1.61 5.7-.75 9.67 3.76 2.8.32 8.28-9.24 4.19-1.5 2.79 1.93 8.71-1.18 2.9 1.29 2.04-.11 1.51-2.15.86-.75 3.22-.97 2.9.86 2.26 2.8 1.93 1.18-3.54.75-66.43 63.41 8.6 5.91 8.92 4.94 1.83 1.51 6.13 4.62 4.94 6.23 3.01 12.25 1.72 23.11.86 26.33 1.72 1.61 9.78 2.79 3.55 4.09 1.61 3.11.32 21.18-1.07 16.01-.75.43-.65 28.05-4.84 12.36-5.37 8.49 31.38 57.17 5.27 11.07 1.18 3.76 1.94 1.94 4.08 9.88 3.87 8.6-12.36 1.83-15.15 4.4-10 4.73-6.45 4.62-6.55 3.66-21.39 7.73-22.15 14.84-7.41 4.83-16.55 9.24-22.04 11.4z" stroke-linejoin="round"/></defs><use xlink:href="#a" fill="#9dc8ca" stroke="#9dd7f0" stroke-width="5.76"/><defs><path id="b" d="M1810.12 3271.03l-12.69 7.73-11.39 13.98-5.37 13.54-2.69 14.83 2.04 10.42 3.01 22.14-.75 18.05-3.44 14.73-5.59 15.47-.97 3.44-3.22-2.36-3.76-2.8-4.3-3.22-4.3-3.22-2.58-2.15-1.61-1.4-1.94-2.15-1.61-1.83-1.29-1.5-2.04-2.69-6.77-16.23-2.05-7.41-2.47-4.84-25.58-10.64-8.71-3.65-5.15 37.61-.43 3.33-.33 1.83-.21 1.29-.43.54-.75.11-13.12-2.05-.43-.1v-.54l.97-6.45 1.93-17.41 1.19-9.89 1.93-14.4-8.6-15.47-2.25-3.87-1.72-2.8-1.51-1.93-1.5-1.5-2.05-1.62-2.68-1.72-1.61-.96-4.2-1.51-1.07-.32-2.58-.97-4.19-1.18-8.28-2.26-1.07-.21-1.94-.32-.86-.11-1.29.11-2.36.1h-3.12l-1.18-.1-5.16-.86-7.74-1.94-2.79-.64-12.58-1.83-10.1-1.61-9.03-1.72-3.01-.54 2.47-18.91-71.48 37.07-5.48-1.72-27.19-3.97-8.38-2.37-21.39-2.15-18.38 2.05-1.4-.22-11.07-2.69-28.91-9.45-20.32-3.76-2.79-2.15-9.57-7.53-6.12-6.34-1.29-1.39-3.01-3.12 5.8-1.94 3.87-30.09 1.72-9.67 4.08-6.02.54-4.62.65-10.64 2.79-3.87 3.76-2.47 3.44-1.18 5.27-3.44 2.47-2.58 5.8-21.81 2.48-4.41 5.69-4.84 1.94-4.83 14.4-2.26 2.8-7.2 3.65-4.19 10.21-5.48 1.61-1.61 2.8-18.17 1.39-8.16.33-2.15v-.76l.32-2.15 2.36-20.2.54-.75.75-.32 11.93.75.97-.22 1.4-.64-2.26-1.29-3.22-1.94-3.33-2.36-2.26-1.93-1.94-2.05-3.11-4.08-19.89-26.44-16.98-23.21-9.89-14.4-9.67 3.65-3.87 1.18-1.94.54-3.87 1.4-3 1.4-2.69 1.29-9.57 5.37-3.44 1.72-3.22 1.18-9.24 3.01-5.7 1.61-2.9.65-3.12.53-7.74.65-7.74.21-1.4-.1-8.81-.76-16.23-2.79-3.65-.21-2.8-.43-.75-.11-1.93-.32-4.84-.54-1.83-.11-2.36-.11-3.66-.21-4.08.11h-3.55l-21.28.21 8.28-55.02 6.98-46 .22-1.29.21-1.5 6.02-42.56 2.9-19.56 1.83-8.49.43 3.76.32 1.18.11.97 1.5 2.36.22 3.23 1.4 2.25 1.93 2.26 3.44 3.12 37.41 29.87 3.86 3.23 2.15 2.15 2.26 2.47 6.24 8.49.21.32 2.04 1.4 1.83.21.64.11 2.69.86 2.58-.21 2.9-1.83 3.34.64 2.36-.21 2.9-1.18 2.26-1.51.86-.53 3.22-.76 1.4-1.39 2.47-2.48 1.51-.53 3.11-1.29 6.24-4.84 5.48-5.69 3.44-1.83 3.33-1.08 30.42-11.07 5.48-2.36 4.62-3.87 2.8-5.05 6.66-11.93 3.12-3.65 4.94-3.66 11.83-5.37 40.62-11.61 10.43-5.26.54-.22 8.49-4.73 8.6-3.44 19.77-5.05 1.19-.75 48.79-1.4 4.19-.53h1.51l-3.12-1.19-5.05-2.04-2.79-.86-2.48-.43-9.99-.64-4.3-.32-6.77-.43-19.67-1.19-48.37-2.79-8.28-.43-22.35-1.29-5.38-.86-20.2-3.65-3.98-.65-13.97-2.69-37.19-5.8-7.63-1.4-16.55-2.9-14.73-2.58-10.75-1.82-32.14-5.7-17.3-3.01-14.62-2.58-5.37-.75-2.58-.21-3.44-.76-13.44-52.12-1.93-7.2-1.72-9.67-.97-7.31-.75-3.65-.97-3.44-1.07-3.12-2.04-4.84-1.51-3.11-1.29-2.26-2.47-5.16-1.61-4.62-4.3-13.54-4.3-12.25-7.74 42.34-75.78 31.81-1.5.75-1.51-.43-1.18 1.08v1.4l-.43 1.39-1.29 1.83v1.4l1.29 1.39.54 1.29-.54 1.51-2.04.86v2.36l-.32 1.4-.86 2.36-.43.86.96 4.3.43 2.69.86 2.79.11 1.83-.86 1.94-2.58.96-.43 1.4.86 1.83 1.29.53.86.86.97 1.83.32 2.9-1.18 5.16-15.8-4.3-5.05-1.4-6.88 21.82-9.24 37.94-12.47 66.2-1.72.32-1.4 1.61-.75 2.26-2.04 1.93-.86 1.4v1.29l.86.86 1.72 1.08.43 1.71 1.29.54-1.29 6.13-3.77 27.19-2.15-.43-2.04.43-2.04 2.25-2.47 3.87-1.61.43-.97-.86-1.18.43-1.19 3.33h-1.82l-1.29-.43-1.08-1.39-2.26.43-1.07 2.36-.97 1.83 1.72 1.5v1.83l1.61.86 1.08 3.22-1.18 1.94-1.4.11-.75-2.05-.97.11-1.61 1.83-.75-.43-.43-.32-.22-.33-.64-.21h-.54l-.32.21-1.72 2.05-2.15-.86h-1.62l-.43-1.4h-1.29l-1.39.97-.65.53-4.3.11-.75.32-.43 1.94-2.04 1.82-.54 2.37-.21 1.83 1.29.96 2.36 1.29.54 1.83-.43 3.65v3.87l-1.61 1.51-1.72-.97-.76.97.76 3.22-.22 1.94-.43 1.29v1.93l.54 2.69-.43.86-.86 4.3-.75.42-1.72-.96-.86-.11-.76 1.07.76 2.26-.54.97h-2.37l-3.33-3.12-1.82 1.08.43 4.08-.43.86-2.05.11-.32.86v1.93l-.43.86-2.15.97-.75 1.07-1.29 3.23h-6.77l-19.56-.32-23.97-.33-23-.21 26.65-69 18.17-47.61 60.29-54.48v-6.77l1.4-14.08 2.37-12.68 2.15-8.81.21-2.15 1.94.43 2.57.96 1.29-.53.65-2.8v-5.48l.43-7.2 2.15-10.96 2.26-14.94 53.52-28.05 3.12-37.83 1.29-15.26 1.5-17.41.65-12.57.75 1.82.75.76.76-.54.64-1.18.43-.86 1.29.1.43.86 1.72 2.26 1.18-.97.86-2.15.75-.1 1.29.53.54 2.48 1.61 1.93v.86l-.32 1.51-2.15 1.82-.32.86v2.8l-1.72.53.97 7.42.32.54.97.64 1.82.86.65.22.32.32.22.54v.53l-.33.43-.53.11-.54.11-.97-.32h-1.29l-.21.32.1.32.43.86 1.29 1.5 1.19.86 1.29 1.29h.86l1.29.11.86.97 1.29 2.79 1.61 2.69.54 1.61-.86 1.61.1 1.83.86 1.93 1.08.33 43.85-40.95-3.22-2.9-1.29-1.61-1.62-2.04-1.72-.76-2.15-1.07-2.14-.86-1.94-2.79-1.4-1.94-1.29-1.4-.75-1.93-.86-.86-3.44-.75-5.05-.97-3.01-.21-2.47.32-3.33.43-3.01-.86-2.48-2.15-1.71-1.83-1.72-1.4-3.01-1.5-2.15-1.83-2.05-3.76-1.72-1.93-1.29-4.84-.86-2.36-3-5.91 1.61-10.32 1.07-6.77.22-.97-1.94-2.04-2.15-2.8-1.29-2.25-3.65-5.91-.32-.54-10.86-21.92-2.04-3.77-2.26-4.08-3.55-6.66-8.16-16.01-1.51-2.91-.86-1.5-.64-1.29-.86-1.18-1.94-3.01-3.12-4.41-4.62-7.09-4.4-6.99-3.12-4.4-1.83-2.8-.86-1.39-.86-1.08-.75-.86-.97-.86-1.18-.86-.86-.54-1.29-.64-1.18-.43-1.51-.32-1.07-.22-1.18.11-1.19.11-1.5.21-12.68 3.01-1.19.22h-2.47l-.43-.22-.43-.11-.43-.21-.32-.22-.32-.32-.22-.32-.32-.54-18.49 15.26-3.65 3.01-7.31 6.13-8.92 7.2-3.23 3.01-8.49 8.92-2.25-.33-4.84-1.07-10-1.83-11.18-1.82-6.12-1.29-10.86-1.94-11.5-1.83-.32-.1-2.04-.22-1.83-.21h-1.18l-1.08.1-.64.11-1.18.43-1.19.43-2.25 1.29-2.05 1.08-3.76 1.93-4.19 2.47-4.51 4.3-3.01 3.12-5.16 4.94-5.91 4.62-2.05 1.18-1.18.54-1.5-.21-2.91-1.08-4.19-2.79-2.04-1.18-3.33-1.51-1.94-.54-1.72.33-1.18.53-1.29.86-1.4 1.62-.1.1-3.76 4.52-1.08.75-1.4.11-16.12-1.4-5.27-1.83-3.54-1.72-3.44-2.47-2.26-2.04-2.69-3.33-1.82-3.23-1.62-4.08-1.39-4.3-1.19-5.37-1.07-4.52-.54-1.39-1.29-.65-16.76-.54-1.4-.42-.22-.11-.96-1.08-3.77-7.73-.32-1.19-.32-1.18-.65-2.58-1.07-4.73-1.08-5.05-.75-1.5-1.4-1.18-5.26-2.58-4.73-2.37-1.94-.54-1.93-.32-2.8.54-1.82-.75h-2.58l-1.51.1-1.72.33-2.58 2.25-3.22.54-15.26 3.01-6.45 1.5-1.94.54-1.39.54-1.29.54-1.4.86-1.4.96-1.83 1.4-1.18.97-1.4 1.07-2.57 2.8-1.4 1.93-6.88 7.95-3.55 4.73-5.26 6.77-3.12 4.09-.75.53-1.19.11-.75-.11-1.4-.53-1.07-.86 3.65-4.62.54-.76 3.33-4.19 8.39-10.85 4.83-5.7 3.34-4.08 4.83-6.23 1.18-1.4.86-1.29 2.05-2.9 1.82-2.26 3.87-4.94 1.94-2.48.86-.96 2.9-3.55 4.19-5.05 4.52-5.05 3.44-3.65 1.29-1.4 7.3-7.31 7.74-7.74.54-.64 6.34-6.45 3.55-3.76.32-2.04 40.63-41.38 9.14-9.03 1.5-.43 14.94-14.08 5.59-5.37 3.87-3.76 1.4-1.4 2.9-2.79 5.48-5.16 16.44-15.69 1.29-1.29 18.17-17.3 12.68-12.25 11.72-11.07 6.55-6.24 5.49-5.26 9.35-9.14 12.57-11.93 10.64-10.31 5.91-5.48 13.98-13.44 16.76-16.12.43-.32 13.76-13 2.69-2.58 2.15-1.94 2.15-1.93 2.15-1.83 2.47-1.93 2.15-1.83 7.95-6.23 7.74-5.91 3.76-2.91 6.67-5.05 3.87-2.9.54-.32.96-.75 8.28-6.67 13.22-10.74.11-.11 14.94-11.71-9.14 19.34 11.29 7.84 4.62 3.23 3.76 2.58 15.05 2.04 6.23-.43 5.16-1.29 6.99-2.47 3.87-1.94 3.54-2.36 2.26-1.72 1.08-.97 4.62-3.33 22.03-27.62 7.42-8.92 3.44-5.59-.54-.53-1.72-1.4 15.91-19.56 2.36-3.01 3.12-3.44 1.83-2.04 2.68-2.9v.54l-1.72 4.08 5.38-4.62 2.79 7.84-1.18 10.54 2.36 3.86 6.88 8.17 5.16 4.73.43.22 5.16 3.76 19.67 11.71 5.37 3.33-.64-22.67.43-.76.75-.43 11.29.11 1.61-.54.54-1.71-.43 8.38-.11 1.61 7.95-3.22 2.37-1.08 7.63-4.08 6.77 2.47 3.44 3.22 1.94 2.47.75.97.86.97.75 1.4.43.75.54 1.5 1.18 10-.65 28.69 4.52 2.69 2.47 1.5 4.19 2.69 13.65 8.38 12.69 9.89 5.69 5.16 7.53 6.12 5.05 4.41 18.49 15.91 20.2 17.51 17.2 14.83 3.22 3.12 6.56 5.7 17.84 15.26 4.19 3.01 5.16 3 4.2 2.26 2.36 1.18 2.58 1.4 7.09 2.8 6.24 1.82 3.33.75 1.83.43 7.74 1.4 4.94 7.31 1.18 1.93 19.46 31.92 17.19 27.94 1.94 4.52.32 1.07 1.29 3.33.22.54.53 2.26.43 1.61.86 4.41.22.96 12.57-5.8 13.98-6.23 2.36-1.4 15.48-7.31 1.82-.86 3.55-2.15.65.97 1.82 2.79 6.78 11.07 3.76 5.91 3.33 5.16 2.26 3.55 3.44 5.27 2.68 4.29 2.69 4.3 4.08 8.39 1.08 2.79.97 2.15.43 1.29.53 1.61.33 1.51.32 1.28.75 3.34.54 3.33.43 3.01.11 2.25.32 9.25.21 5.8.54 16.44v3.12l.11 2.9-.11 1.18-.11 10.21 108.24.32 3.87.54v-1.18l.11-.65.32-1.39.54-.86.64-.65.86-.32 1.29-.21h.64l.43.1.43.11.22 14.29.97 42.67.32 15.9.11 9.89.21 34.93.11 5.16.21 10.1 3.77-4.41 2.58-3.87 4.19-8.49 3.22-4.62 4.62-3.54 4.73-1.94 6.34-2.04 2.91-2.15 2.68-3.22 7.74-7.1 11.18-7.95 3.44-1.93 4.19-2.47 3.66-2.26 2.68-1.94 3.34-2.47 1.71-1.07 1.94-.43 1.83-.11 2.58.43 2.04.97.43.21 1.4 1.72 2.9 6.99 2.15 4.08 3.01 2.58 3.22 1.4 4.41.32 5.69-1.72 8.93-4.62 9.45-6.13 6.78-4.51 3.33-2.04 4.62-1.51 1.61-.43 3.98.54 3.33 1.72 3.12 2.69 1.93 2.36 2.26 2.04 9.35 6.34.54.43 4.19 3.76 4.41 4.3 3.76 3.23 2.79.96 5.27-.42 4.94-.76 4.52-1.29 3.97.65 6.35 3.22 8.59 4.52 7.42 4.94 3.12 3.55 3.98 4.29 3.76 3.23 3.97 2.58 3.12 1.39 1.83.65 2.58 1.5 2.79 1.94 1.83 1.93 1.18 2.8-.54 4.08-.96 3.01-1.4 2.79-2.47 3.23-4.19 3.44-3.12 1.82-5.16 3.44-7.2 3.66-7.96 3.33-1.29 2.36.43 3.01 1.83 3.12 1.29 1.72 4.3 2.79 4.41 1.08 4.3-.86 3.54-1.94 2.48-3.33 1.93-3.33 1.18-3.12 1.08-2.47 2.15-.86 2.47.43 1.29 1.94.21 3.54-1.93 4.95-2.26 4.4-2.9 2.69-3.44 3.01-2.69 2.79-1.39 3.23-.33 3.01.11 3.54.43 3.44.97 3.87-.11 2.58-.32 3.33-.65 2.8-.96 3.97v2.37l1.61 2.25 2.36 2.37 4.73 3.97 4.41 3.87 5.16 3.33 2.04 1.29 3.44.43 2.26-.43 3.22-2.58 2.69-3.65 2.47-4.51 2.26-2.8 2.04-.86 4.09.32 3.43 1.94 2.37 2.47.86 2.9-.75 3.55-1.4 4.62-2.58 5.91-2.15 3.98-1.4 3.33-.96 3.22-.65 2.47-2.26 2.26-.75 4.19 1.4 3.55 1.83 2.58 2.47 1.4 2.36-.11 2.26-.22 1.83-.53 1.82-1.62 1.94-1.93 1.4-2.04 1.29-2.69.96-2.36 1.4-2.37 1.93-2.25 3.55-1.83 4.41-2.15 8.17-1.4 6.12.22h3.66l5.91.53 4.41.54 4.94.86 5.48.54 3.76 1.72 3.34 1.93 3.54 3.55 5.7 5.05 3.55 3.98-.11 5.05 1.18 3.97.75 4.41 1.08 3.33 2.15 2.47 1.4 2.58 3.65 4.09 2.9 2.25 5.27 2.15 6.02 1.18 4.73-.96 2.79.11 1.83 1.07.64 1.61.97 4.84.65 6.77.96 4.62.54 6.13 1.08 5.8 1.72 6.66 11.39 1.51 5.8.53 2.47 1.08 5.59 2.69 14.41 7.3 3.76 3.87 8.27 6.24 6.99 4.29 3.87 2.69 4.51.65 3.34 1.61 5.05 2.79 5.91 3.98 10.32 3.11 15.69 2.91 10 .64 12.57.65 6.24-.22 7.41-2.26 11.4-2.68 14.29-3.23 18.49-2.36 17.62.43 14.41 1.61 11.82.97 7.63.54 10.97-1.29 4.94-1.62 3.98-.86 7.84 2.37 11.83 4.4 12.57 3.23 12.04.54 20.31-1.94 12.15-.43 8.81-.32 10.86.32 6.88-.32 3.87-1.08 4.19-2.47 6.12-3.44 7.42-3.33 4.3-1.72 8.17-3.11 6.77-3.44 5.8-1.72 4.3-1.29 4.84-.97 7.85-.97 7.63.22 8.38 1.29 7.1 2.9 6.12 2.58 5.81 3.87 4.94 3.97 6.66 7.2 8.6 14.41 1.4 2.04 6.34 8.49 6.02 10.64 5.05 8.06 8.82 9.88 4.73 5.27 4.19 3.44 4.62 2.26 4.3.32 7.63-1.61 7.85-1.83 22.78-11.71 22.04-11.4 16.55-9.24-14.94 48.36-3.87 11.29-3.12 9.02-1.07 3.77-.76 2.14-1.29 6.88-3.54 8.49-.65 1.4-1.5 5.27-2.69 8.49-.21.96-3.87 13.11-2.91 8.28-7.73 23.86-1.19 3.22-4.08 12.47-10.1 31.06-5.38 16.44-1.72 6.02-3.87 12.03-6.45 19.56-1.07 3.55-1.72 5.27-12.68 39.76-1.83 5.8-14.73-1.72-3.97-2.58-1.62.97-2.04 8.06-3.22 4.08-3.01 8.82-1.51 2.58-4.51 2.58-2.79 5.15-3.87 6.13-4.2 4.51-5.48 3.12-3.11 1.18-2.91-.43-1.82-.54-3.01 2.15-.76 3.01 1.94 4.19-.65 3.23-2.58 3.76-6.34 3.65-5.8-.96-6.77-1.62-4.62-.85-4.09-3.55h-2.36l-2.15 2.26-3.98 4.29-5.05 2.05-2.8-.22-4.19-1.61-2.58-1.4-13.22-7.09-19.34-9.57-16.23-7.73-12.37-5.38-21.28-3.76-72.76-16.55-6.34-2.04-9.57-2.47-13.44-5.7-19.66-8.81-13.98-8.6-28.59-18.59-12.14-6.99-10.54-4.19-6.55-.21-6.88.43-10.32 1.93-14.73 5.16-11.82 4.73-12.68 5.27-12.47 4.19-5.91 2.04-4.09 1.5-7.63 1.19-7.52.86-12.79-1.29-14.08-2.91-39.77-11.71-10.21-3.12-14.73-2.68-5.69.21-71.26 2.37-10 .1-47.51.65-1.82 7.31-.43 1.39-7.64 14.08-8.49 11.5-8.38 10.64-3.65 12.47-8.71 20.85-12.25 17.62-21.39 23.64-9.57 10.75-19.13 18.59-15.26 12.25-14.51 8.82z" stroke-linejoin="round"/></defs><use xlink:href="#b" fill="#9dc8ca" stroke="#9dd7f0" stroke-width="5.76"/><defs><path id="c" d="M655.75 2185.7l-4.62 4.19-3.76 5.27-3.33 5.05-4.63 5.37-1.71 2.69-.33 4.3 1.4 4.62 2.58 5.69 3.12 5.59.86 5.05-2.91 5.27-4.62 3.98-7.2 2.25-7.2 2.47-5.91.54-6.77 1.18-3.87-1.39-3.44-1.08-4.73-1.72-3.33-2.04-5.59-2.58-4.62-3.22-4.3-4.19-4.3-5.27-.97-1.29-1.72-4.51-.86-2.48-.64-3.43-.76-4.09.76-3.54 2.9-6.78 5.48-4.29 3.87-1.4 4.19 1.93 6.88 2.58 4.62.86 3.44-.75 2.47-.97 1.18-4.3.43-6.34-1.28-5.69-.86-3.44 1.18-3.87 1.18-3.65 2.58-2.69 3.76-3.01 2.47-3.01 1.72-4.19.76-5.16 1.18-4.62.75-8.49-.54-6.56-.96-2.36-1.62-2.36-3.44-2.37-4.62-1.18-5.59-1.51-6.02-.64-7.2.43-5.37 1.29-2.15 2.47-2.15 2.9-2.04 3.66-4.19 6.23-2.05 2.04h-3.33l-1.4-.54-1.29-.75v-.75l-.1-1.93.43-1.94 2.47-5.91 1.5-2.9.54-1.08 1.94-3.44 1.93-4.62.75-3.54v-.33l.22-4.29-1.18-4.73-1.51-4.19-3.12-4.95-1.39-2.58-1.51-2.9-1.83-4.51-.75-4.84.11-8.92 2.26-5.8 2.25-5.16 1.4-4.51.43-9.89-.75-7.95-4.52-14.73-4.3-7.84-1.93-11.29-7.85-5.15-4.51-1.19-4.08-.86-4.2.43-6.23 1.51-.32-15.37-.43-25.26v-2.36l-.11-6.13-.32-10.85-.43-26.76-10 .22-4.62.1-27.3.65-6.13-.22h-1.07l-11.83.11-3.76.11h-.86l-20.63.11h-.97l-24.72.32-.43 1.72-.43 1.61-.65 3.76-.21 2.26-.32 2.25-.54 2.26-.43 2.58-.86 3.65-.75 3.87-.54 1.51-.43 1.18-3.98 6.66-.54 1.29-.43 1.08-.21.96.32 8.6.75 6.77.11 10.96.11.22v1.72l.21 5.48.11 4.41-.11 1.18v.97l-.1 1.07-2.8 13.11-.64 1.83-.22 1.61-.21 1.18-.33 1.29-.32.75-.54.54-.86.22-.53.21-.54.54-.11.54.11.43.11.53.43.65.32.54.64.75 1.08.64.64.33.54.43.54.64.32.32.11.54v3.33l-.11 3.12v.75l-.21.54-.76 1.93-3.86 10.53-6.02 16.45-6.78 2.36-8.7 2.69-8.92.64-7.74.97-7.52 2.36-2.91 2.37-3.87 3.22-5.48 4.84-3.01 3.76-2.9 4.19-2.79 6.23-2.48 4.63-13.11 24.18-26.33 48.68-4.09 12.68-2.68 8.06-1.29 1.72-1.62 3.98-.75 3.44-1.72 2.57-2.15 3.23-.64.97-.43 1.18-1.29.11-1.29.64-2.04.54h-1.83l-2.8-.54-3.76.54h-3.11l-3.66 1.07-2.15.86-1.72.97-1.61 1.4-2.04 1.07-2.48 2.15-1.71 1.94-2.48 1.39-2.04 1.94-4.19 2.9-1.61.32-1.72.43-.86.22-1.19.32-1.71.54-3.34.43-2.58 1.61-3.76 1.29-2.58.96-2.79 1.94-2.58 1.83-2.47 1.39-2.48 1.51-4.19 1.39-1.61.11-3.12.43-1.07.22-1.94.32-1.93.32-4.19-.43-1.29-.43-2.8-.97-1.93-.75-2.47-1.4-1.62-1.82-1.39-1.29.43-1.4.86-2.26 1.61-1.07 2.04-1.93 1.83-1.4 1.18-1.29v-1.94l-.54-1.82-1.61-1.4-1.83-.75-1.39-.65-1.4-.75-3.33-.54-3.55-.43-3.76-.86h-3.76l-1.62-.86-2.15-.96-1.72-1.83-.86-1.83-1.39-1.93-.22-2.58-1.07-2.8v-2.25l.32-2.47-.97-4.84-.64-2.04-.43-3.23-1.29-2.25-1.83-3.76-3.12-6.45-2.79-6.45-3.44-7.31-3.12-6.02-3.33-5.48-2.15-2.25-2.47-1.83-1.83-1.72-2.15-1.4-2.79-1.82-2.69-1.94-2.47-1.29-3.01-1.5-1.61-1.4-2.15-.32-2.58-.86-2.48-.11-2.14-.43-3.01-1.29-4.09-2.04-2.58-1.51-2.15-.86-3.33-.96-2.9-.11-2.15-1.29-2.04-.21-5.16-1.94-1.72-.86-1.61.54-3.87.43-2.48-.86-1.18-1.51-.43-1.18v-2.47l-.54-.32 2.05-6.02 1.18-.97 1.72-1.5 1.4-.97 1.61-1.5 1.93-.86h2.15l8.06-1.4 5.81-.11 3.87-.54 2.04-.75 1.61-.75 1.29-.65 2.9-3 2.05-2.26 3-3.44 2.05-2.26 2.47-3.33 2.04-2.36 2.15-1.72 2.9-.97 3.33-1.5 3.34-1.4 2.15.54 3.01.21 3.33.11 3.65-.43 4.19-1.51 4.2-.53 5.8-2.05 5.16-2.25 5.05-3.76 2.04-1.94.76-1.29.43-2.9.32-2.58-.86-3.22-1.4-1.94-1.72-1.07-2.15-.11-7.74 1.29-2.79.32-2.47 2.47-2.37 1.4-3.12 1.94-3.33 2.04-1.82.97-1.29-.43-1.29-.65-2.69-2.69-.97-2.79-1.07-3.33-1.51-3.66-.75-5.26-.11-5.27.32-3.65 1.08-3.12.86-3.22.21-2.69.43-2.36-.32-7.2-.43-7.31-.32-5.7-.86-6.45-1.18-3.65-.22-3.01.22-3.22.53-2.58 1.19-3.12 1.5-3.12 1.94-4.29 1.18-2.05 1.61-3.65 1.08-4.62.1-.65 2.04-7.84 1.19-6.45.75-5.69v-4.52l.43-2.15.43-2.04 1.61-5.48.32-6.56 1.19-5.05.86-2.36.86-.86 1.18-.97h4.19l2.9-.43 2.58-.64 1.61-1.51 1.29-2.25 1.19-3.55 1.18-4.3 1.29-4.62.32-4.19-.11-3.76.86-2.26.86-2.69 1.19-2.47 2.04-1.72 2.15-1.4 2.04-.64 2.47-.32 3.01.32 3.01 1.07 2.47 2.26 2.58 2.58 3.44 3.33 2.04 2.26 1.72 1.29 1.83.97 2.04.32 2.48-.22 3.33-.21 3.33-2.04 2.15-1.4.86-1.29.32-2.79.43-1.72-.54-5.27-.32-.86-1.83-5.16-1.39-7.63-.86-4.73v-2.68l.43-2.37 1.18-1.5 1.72-1.29 1.61-1.51 1.72-1.93.32-2.04.43-2.58-.43-1.29-1.61-3.12-.97-1.5-1.72-1.19-2.47-1.5-3.33-1.83-2.69-.86-3.33-1.07-2.04-1.08-.22-8.92-2.9-2.58-3.01-2.57-3.65-2.69-1.83-.43-1.18-.11h-2.58l-3.33.75-3.77.97-2.04.54-3.87-.43-2.47-.11-2.15-.32-2.15-1.4-2.15-2.26-.54-1.18-.64-1.5-.43-2.47-.11-3.23.43-3.12.43-3.86-.11-4.52-.86-4.62-.43-2.36-.1-1.4-.11-2.15.54-2.36.75-2.05 1.29-1.82 1.18-2.69.11-.32.75-2.58-.11-3.55 1.08-5.8 4.08-4.08 3.98-3.87 3.65-3.12 4.09-3.65.97-.86.75-.65 2.9-2.9.43-.43 4.3-5.48 1.5-1.94 1.72-2.9-1.29.11-3.43-2.04-2.26-1.72-1.4-1.83-1.83-1.5-16.33-17.63-.54-16.66-.75-.53-.54-.54v-.21l-.32-6.99-1.08-20.74-.64-11.93-28.27-9.46-11.5-3.87-.54-1.5-1.4-1.18-1.29-1.29-1.5-1.08-.43-10.64-1.08-24.18-.96-.54-8.49-4.08-10-4.84-.86.11-47.29 3.12-.54-.54-1.18-.97-1.4-1.07-2.36-1.4-2.26-1.5-2.15-1.4-.54-.21-.11-.33v-.32l-.1-13-.43-.97-.97-.43-5.8.11-.11-21.82-.11-2.68 3.55 1.93 2.68 1.07 1.62.54 4.4 2.47 3.12 1.4h2.15l4.3-.64 3.98-1.62 2.9-2.04 1.29-2.69 1.61-3.76 2.15-6.34 1.5-4.83.86-4.84.22-.54.97-3.22 1.07-2.69 2.9-.21 3.44-1.94 1.51-1.5.97-1.08.86-6.12.21-5.38.11-.53.43-3.87.86-4.62 1.07-5.59.75-4.08 2.48-14.08.32-1.19.21-1.28 1.4-5.81 1.51-6.77 12.68 2.37-.11-4.52-.43-8.7v-21.28l-.21-4.09v-1.39l-.11-1.29-.75-4.41-1.08-5.91-.64-2.15-.86-2.69-3.87-11.39-.22-.96-.64-1.94-.32-1.61-.33-1.51-.21-1.07-.32-2.15-.22-1.83-.11-1.82-.1-1.83.1-1.18.11-1.29.11-1.94.21-1.61.43-2.58.22-1.29.75-2.04.43-1.4.65-2.04 8.49-18.48 7.09-15.05.22-.64 2.15-4.73 3-8.28.65-1.72.21-.53.43.32 5.06.11 1.72-.65 3.76-.75 3.33.43 3.12.75.32.11.54.43 22.89-1.72h.32l1.83-.22 15.26-1.18 11.93-.97.11-2.79 4.51 4.94.54.86 3.44.65 3.87 1.83 2.9 1.82 2.58 2.04 2.58 1.29 2.47 1.72 2.15 1.72 3.87 1.51 2.48-.86.43-1.29.64-1.51.65-2.04 2.36-.43 1.83 1.51 2.47-.22 1.18-1.29.65-12.25-.22-2.47-4.08-6.99-1.19-3.11-1.18-2.15-2.9-5.38-.75-.75-.75-1.07-.33-.65-.21-.97-.22-1.5-.1-1.83v-1.93l.21-1.83.65-2.58.53-1.39 1.29-2.15 1.51-2.8 1.39-2.47 1.94-2.79.21-.54.22-.97.21-.97.11-1.18 1.4.11 1.93.11 1.94.21 1.83.22 1.07.1.32 1.51.33.86.75.64.54.33 5.91 17.41-.97 2.57-.75 4.2-.33 4.94v1.5l-1.07 5.49-.22 1.07 1.72.11 2.15-2.8.22-.21-.22.54-.21 1.07v.11l-.54 3.22-1.5 4.73-.33 3.98.43 3.11 2.05.86 2.58.86 1.29 2.26 1.18 4.41.43 7.2-.22 5.58-1.5 3.55-1.18 1.72-.43.75-.33 4.95 1.29 6.34.97 7.41.54 2.26.75 2.79 3.33 5.59.76 4.09-1.29 8.81v3.11l-.22 1.29-.32 2.48-.22 5.05.22 1.07.11 1.08.21 1.07v1.18l-.21 1.08-.43 1.4-.33 1.18-.21 1.07-.65 5.81-1.39 7.95-.43 1.5-.33 1.4-.43 1.61-.1 1.61-.11 1.83.11 3.55 1.18 9.88 1.72 19.78.32 1.61.32 2.26 1.94 9.13.54 2.69.32 1.29.32.86.54 1.29.32 1.18.32 1.61.32 1.72.43 5.59 10.97 1.72 11.5 2.15.75.21 8.49 1.94 13.65 3.11 8.92 2.26 6.35 1.4-.97 8.06v5.91l-.11 19.67.11 2.25.11 17.31.1 5.48.11 1.07.11 2.58v.97l-.11 1.07-.64 4.62-.43 1.4-1.29 4.84-.43 1.18-1.29 3.55-.76 1.39-3.76 6.77-1.07 1.94-.43 1.72-.22 1.72v1.5l-.11 6.34.22 7.52.21 6.88-.64 8.6.11 8.06.21 6.66.11.76.64.75.54.64.75.65.65.43 3.87.86 3.12 2.04 10.85 6.98 7.63 6.45.75.54.86.32 10.97 3.55 7.09 2.36 7.63 2.8 2.37.96 6.12 2.48 1.94.86 3.33 1.72 3.66 10.31.96 2.58 1.08 1.83.86 1.4 1.07 1.82 5.05 7.31.43.75.33.65.21 1.18 29.13 5.48 56.21 7.85.54-7.63 2.47-18.06 7.63-5.91 15.48.54 1.29 34.82h23.97l1.72.21 38.37 5.7 7.09.21h8.71l13.01.54 17.19 2.15 26.01-.43h7.21l5.69-.21 4.52-.11h25.68l27.2-.97h.32l-16.02-12.57 4.95-5.81 10.53-6.02v-11.28l-.11-57.28-.85-27.19-1.19-7.52-1.29-.43-.21-.11-9.68-2.69-2.04-.43-1.82-.21-10.22-.32-1.72.21-22.14-.11-15.47-2.15-20.96.54-5.59-.75-1.4-.32-2.58-.33-3.87-.53-4.62-1.72-16.77-6.56 2.9-1.82 1.29-.22 3.77 1.61 2.47.32 1.83-.75.53-1.29-1.07-1.93 1.29-4.19-.11-1.83-1.07-1.4-.54-.96 1.72-1.4 1.39-2.37.86-3 .54-5.7 1.94-5.48 1.5-3.66 1.29-3.65-3.22-2.79-.54-1.94.97-2.15.21-3.33-.11-3.01-3.22-.97.64-2.04.33-.96.96-.33.76-2.36-.97-.86h-2.58l-1.18-1.51-.43-1.71-.11-3.23.43-3.55 2.15-5.26.86-3.66.86-3.76.43-3.11-.43-4.52v-5.16l.75-7.09-1.07-.54-11.72-6.23-5.8-3.12-1.18-.75-1.4-.97-7.2-7.41-1.29-1.4-.97-1.29-4.09-6.23-.75-1.83-.64-1.93-.54-1.61-1.4-4.73-.53-2.15-.22-1.51-.32-6.87-.22-1.72-.43-1.83-.43-1.61-.32-2.47-1.5-10.43-.76-6.55-.43-2.26.43-2.26.76-3.54 8.38-29.34.64-3.66.11-2.47v-1.93l-.43-6.02 6.13 3.44 2.04.86.97.53 3.33 1.19 3.12.86 3.65.86 3.33.43 11.29.43.43-.11-.11-4.3-.54-1.4.86-2.68.54-.76 1.61-2.79-.21-3.87-1.4-3.76.22-4.84-1.51-5.26-1.18-10-1.18-3.33-3.33-2.58-1.08-3.12-.54-2.04-3.01-2.25-1.18-3.77-4.73-4.83-1.07-4.09-2.69-1.93v-.97l1.07-2.15.86-3.11 1.72-.76 2.37-.75 8.49-7.09v-1.61l-1.29-2.37-1.5-3.97v-2.05l.1-1.07 1.08-5.59-1.51-5.59.33-6.34-1.19-2.9-2.79-2.47-1.29-1.29-.11-2.26 2.8-2.47-.33-4.19 3.66-1.18.11-1.29-2.58-5.05.43-1.72 2.25-2.37.97-3.54 3.33-4.41.86-1.5 1.83-10.43.75-3.76-23 14.83-2.47-.86-10-6.77-1.61-4.62-2.69-.32-1.39-1.29-24.19-5.7-5.16-.75-4.94-1.72-21.82-5.37-7.85.75-1.82.21-.86-12.25v-1.5l-.11-.86.11-1.18.43-1.72 1.07-4.52v-1.5l-.11-1.72-1.39-4.3-.22-1.18-.11-1.18.22-11.5v-1.4l.32-.86.65-.54 7.84-.54-.96-22.46-5.27-.75-3.44-.32-18.7-2.15-14.41-1.51-10.31-.96-6.13-.86-13.22-1.18-1.83-.22-.97-3.01-.75-1.83-.97-2.25-1.18-2.15-2.68-4.52 1.39-.43 1.08-.32 2.36-.43 2.47-.64 2.05-.65.43-.1.53-.33.43-.21.33-.22.21-.32.11-.43.21-.64 1.72-8.17.22-1.4.32-1.5.11-1.4.11-1.29-.33-2.58-.32-2.04-.32-1.61-.32-1.62-.54-2.04-1.51-5.8-.96-2.9-.86-2.69-32.14-7.2-4.41.11h-.43l-.32.43v1.5l-1.61-1.39-1.94-1.62-3.87-2.25-13.11-6.13-15.05-6.88-4.4-2.04-14.94-6.77-5.27-2.47-12.25-6.02-4.73-2.04-4.73-2.04 6.45 1.5 2.68-1.18 5.16-2.37 6.02-2.68 4.09-1.61 1.29-.76.86-.21.64-.32 6.02-2.37 1.94-1.18 2.57-1.29 6.02-3.44 21.29-13.43 3.22-1.51 4.51-2.04 5.59-2.69.65-.32.11-1.93-.33-13.11-.1-12.15-.54-33.74.64-14.3 1.51-3.43 2.36-5.27 2.04-2.9 2.48-2.69 6.55-4.41 3.12-1.71 4.94-.65 29.35-.86 5.37-1.18 3.55-1.94 4.19-5.58 1.18-3.66 1.18-8.49 3.66-13.43 2.79-5.27 4.95-6.02 10.75-10.74 5.16-5.48.75-1.08.64-.97.54-1.18.32-1.07.32-.86.33-1.4.21-2.58v-.11l.32-1.72-.1-4.51 17.09-1.83 2.68-.32 4.41-.43 4.62-.43 3.01-.11 6.99-.1 25.15-.11 8.17-.11 14.29-.43h7.31l5.59-.11 11.07-.21h1.18l-.32 2.36-.86 1.83v2.69l-.75 2.25v4.09l1.4 3.01-.43 2.9 1.61 2.58.43 2.68-.86 1.4.54 1.72-.76 6.45.33 2.15.86.54.86.96v1.4l-.33 6.23.11 2.58-.54 1.83-1.18 1.83v1.93l-.75 1.4-.43 1.29.43 1.93-.75 1.18-.76 1.4-.86 2.69-.21 1.4.21 1.71.86 1.08-.21 2.04.21 2.26 1.29 1.5.11 1.94v.64l1.83 3.01h.21l.76-.43-.22 1.61 1.72 1.94 1.72-.11-.11 2.79.86 2.48.54 3.65.43 3.44.54 1.83 1.29 3.76.43 1.93v1.4l-.32 3.01v1.93l.43.86 1.72.43 11.5.22h1.72l3.65 3.01.32-.33 2.26-2.04 2.15-.64 2.47-.22 1.29-.43 1.61-.75.86-.21.97-.54 1.51-1.4 1.72-.97 1.71-.86.86-.32h.65l2.69.11 4.08-.32.75-.22.86.11 1.19.11h5.58l2.58-.11h1.19l1.18-.11h.97l.86.11.53.11h.76l.32-.11 1.29-.22 1.72-.32 1.07.65.75.21.76.22.75.1h.54l4.73-.53.75-.22.75-.32.75-.54 1.4-1.72 1.4-2.04 3.12-4.62 1.39-2.15 2.47-4.19.33-.22.96-.86 2.26-.86h.32l.86-.75 1.29-.32-1.39-1.61.32-.75.32-.76.11-1.18v-2.79l-.11-9.35v-5.81l-.11-6.87-.1-5.16-.11-5.81-.11-7.73-.11-3.87 1.29-.54 17.74-7.31 8.92-3.44 5.37-2.36 15.16-6.34 21.71-8.81.32-.22 1.72-.64 1.83-2.37.21.22.76.96 1.07 1.08.86 1.18.75 1.18 2.26 3.44 2.8 4.09 11.93 19.34 5.91 9.56 3.97 6.13 10.22 16.12 3.33 5.05 3.54 5.7 1.4 2.36 1.4 2.37.97 2.04 2.15 4.62.75 1.5.21.54.22.65 4.08 9.02.97 2.47.75 1.83 4.41 10.32.75 1.93 1.51 3.44 3.01 6.56.43.97 3.43 8.49.33.85 3.65 8.39 1.83 4.3 2.15 4.83 1.4 3.12 3.97 9.24.43 1.18 11.5 26.01 7.74 17.84.97 2.15 9.78 22.78 3.76 8.49 5.91 13.76.54 1.5 1.72 3.98 3.87 7.63 5.7 11.61 1.72 3.44 5.59 10.85 4.62 9.89.75 1.5 1.83 3.76 3.97 8.17 1.94 4.84.75 2.04.65 2.04.64 2.47.54 3.55.97 7.95.53 3.98.76 7.63 1.5 13.75 1.72 16.88.43 3.54 1.18 11.5.43 2.69.22 2.69.21 2.25.22 2.15.21 2.15.22 1.72 1.07 10.32 1.29 13.22.54 5.26.21 1.62.86 7.41 1.62 7.63 1.72 4.73.86 2.36.75 1.29 3.22 5.16 3.01 4.09 1.08 1.39 4.83 6.02 3.55 4.62 6.66 8.49 5.49 6.45 5.37 6.99 14.08 17.84 5.48 7.2 3.23 4.51 1.18 1.93 2.26 4.73 1.5 3.87.22.54 2.68 8.7 5.48 17.2 1.29 4.41.43 1.07 2.91 9.03.75 2.25 3.12 10.21 3.43 10.86 2.91 9.35 3.87 12.25 5.48 17.73 2.15 5.8 3.11 5.81 3.01 4.51 2.15 2.58 2.58 2.58 2.26 2.15 11.39 7.74 4.52 2.79 8.38 5.48 1.72 1.08 3.23-3.12 7.73-7.95.65-.75 6.88-6.88.64-.75.54-.43 1.61-1.72 1.4-1.4 2.26-2.26 2.58-2.58 4.08-4.08 1.72-1.83 6.66-6.77-.53-.97 2.15-2.15 1.29-1.39 8.7-8.6 3.23-3.22 4.51-4.3 3.98-3.98 1.61-1.5 6.45-6.45 2.36-2.37 4.84-4.72 3.98-3.87 3.97-3.98 3.77-3.55 2.79-2.79 2.47-2.58 15.7-15.8 5.69-5.69 3.23-3.01.75.96 2.58-2.47 3.98-3.65 4.62-4.41.43-.53.96-.97 4.2-3.98 2.79-2.47.11-.21 1.5-1.29.76-.65 9.02-6.77-1.72 6.56 7.21 2.68 2.9 7.53.86 4.29-3.98 2.26-1.07 1.83-3.01 4.73-4.2 1.29-1.5 7.52 3.44 4.3-4.94 14.18 9.45 14.94 7.53 11.93-1.61 8.6 2.47 5.16-22.36 17.84.11.96-.11 2.15.11.65v1.29l-.22 2.36.22 5.81.21 2.9.11 1.82.43 3.23.65 2.9.53 2.26 1.4 3.44 1.29 3 3.55 7.1 9.56-5.48 15.16-8.71 1.29.97 1.07.54.86.64.65 1.83 1.82 6.34 9.57 32.45-2.69 7.42-.21 9.67-1.51 3.66-4.51 10.21 3.87 3.22-4.84 9.99 6.99 10v1.72l-.43 13.22-.65-.11-1.07-.22-1.29-.21 2.36 3.98-13 30.84 5.59 1.83-1.51 4.08 6.56 9.78-5.48 20.42 9.35 23.86 3.98 3.87v10.42l6.44 4.19 1.62 5.27-.76 6.23 16.88 4.19 24.94 19.99 1.93 6.34-3.01 14.08-1.5 6.13-4.52 17.94-4.19 39.55-3.33 1.83-3.55 2.04-3.12 1.93-1.82 1.19-2.05 1.5-2.47 1.83-3.01 2.58-2.68 2.58-2.26 2.25-1.94 2.15-1.5 1.62-1.18 1.39-1.29 1.94 1.82 1.61.97-1.08 2.26-2.47 1.72-1.61 3.33-2.9 4.51-3.55 1.83-1.18 3.66-2.36 3.11-1.94 7.42-4.3 6.02 44.82-1.08 4.08-3.33 6.88.32.86 1.83 4.19.32 1.72.86 3.55 2.58 1.18-1.39 4.08-.33 4.19 4.09 11.82.43 3.44-.65.22-1.5.86-.65.43-1.82 1.5-1.83 1.83-1.83 2.47-2.26 3.01-.86.97-3.22 3.87-2.69 3.22-3.44 10.53v.11l-.53 1.5.53 2.58-4.4 2.8-12.9 7.95-.54.32-13.76 8.39-12.68 8.81-4.62 4.19-4.62 5.27-7.1 8.59-20.63 25.69-4.3 6.77-5.38 4.62 1.72-4.08v-.54l-2.68 2.9-1.83 2.04-3.12 3.44-2.36 3.01-15.91 19.56 1.72 1.4.54.53-3.44 5.59-7.42 8.92-22.03 27.62-4.62 3.33-1.08.97-2.26 1.72-3.54 2.36-3.87 1.94-6.99 2.47-5.16 1.29-6.23.43-15.05-2.04-3.76-2.58-4.62-3.23-11.29-7.84 9.14-19.34 2.15-4.41-13.76-4.3-6.77-4.19-.97-.54-4.08-2.58-5.06-13.65-14.4 9.68-17.95-5.06-25.26 2.37-1.93-8.49 10.1-8.38-9.35-15.91-1.93-3.22-12.26 7.84-8.49 5.38-2.79-.43-1.19-1.72.86-2.58 10.75-82.54-18.27-22.89-13.22-3.65-7.52 2.15-3.44 1.72-2.26 1.93-.75 2.15-.11 2.9-1.93 3.87-3.44 2.79-5.7 1.4-16.23 5.91-8.81 7.52-3.66 4.84-1.61 2.26-.22 3.97 1.4 4.62 3.12 5.27 3.22 5.16 3.55 5.8 1.4 4.95 2.68 8.59 1.51 8.6-4.09 2.37-4.62-3.23-4.08-4.51-3.55-2.9-4.51-1.72-2.9.64-4.63.75-6.12.43-5.59.11-5.05-.43-6.13-1.07-3.76.1-1.83 2.58-2.15 3.23-.11 3.01-.1 1.61 1.61 5.91 1.72 3.98 1.93 4.08 1.72 4.51.65 6.02-.65 6.13-1.07 4.3-1.29 3.86-.54 3.23.11.97 5.59 3.01.64.43 3.55 2.04 4.3 2.68 3.55 3.66 1.61 5.8.53 4.94-.32 6.24-1.18 5.16-2.9 5.05-1.18 5.26-1.19 6.13.86 6.45.54 8.59-1.18 10.32-5.81 8.49-4.62 7.09-1.18 1.51-5.05 5.8-7.53 6.56-7.2 6.02-7.63 4.29-4.51-.32-4.84-3.33-4.73-4.08-4.62-3.66-3.87-1.82-3.87-.65-5.05-.32h-.86l-3.44.11-4.62-1.94-8.6-4.19-5.48-2.36-.97-.43-5.48-1.94-3.55.32-2.36.22-2.15 2.26-2.04 5.26-.43 3.87.1 5.59-2.04 6.56-3.33 4.19-5.48 5.05-5.48 2.58-5.92 3.01-6.23 1.82-5.05 3.55-4.3 3.55-5.48 3.54-3.76.54-6.02-.97-8.92-3.11-5.16-1.83-7.2-2.26-9.89-4.08-7.63-5.16-6.02-5.59-3.44-.75-5.81 1.4-3.44 1.82-4.62 3.98z" stroke-linejoin="round"/></defs><use xlink:href="#c" fill="#6bacaf" stroke="#6bb4d2" stroke-width="5.76"/><defs><path id="d" d="M2111.5 1821.49v3.01l.43 3.22-.86 3.33-.75 3.23-2.48 2.36-3.01 2.26-1.61 2.47-.43 2.26.43 2.79.97 2.36v2.26l-.86 2.47-.32 1.83v2.9l-.43 3.12-2.04 2.47-3.34 3.98-3.44 3.22-2.9 3.55-2.04 3.65-.86 3.33-.32 3.76-.76 2.26-2.57 1.61-3.87.33h-2.48l-2.15 1.93-.43 2.47v2.26l-.86-1.83-3.01-3.01-3.76-2.47-2.68-3.01-.86-5.8-.11-7.85-.11-.86-44.6 5.16-1.19-.43-.75-.21-.86-.22-.97-.11-2.04-.21-1.93-.11-3.76-.11-5.7-.1.32-13.44 49.77-31.59-.22-2.26-2.26-4.3-1.72-3.65-1.29-4.19.33-2.58 1.72-1.61.86-2.26-.11-3.76-1.83-7.96-2.26-7.73-2.15-7.85-1.39-6.66-.86-4.41-1.83-4.62-1.29-3.33-1.29-2.69-.86-2.79-.97-3.33-.43-3.12-2.15-8.92-.96-2.79-.86-3.66-1.29-2.79-2.15-3.66-2.15-2.79-1.94-4.51-1.18-4.19-1.4-4.63-.96-1.93-.33-2.47-1.18-3.12-.43-3.01v-3.76l-.21-1.07-.22-1.51-.21-1.29-.43-.97-.86-3-.22-.86-3.87-4.73-3.54-4.41-2.48-2.69-7.2.54-8.17.43-6.77-15.58-14.08-5.37-9.67-18.6-20.32-33.31-3.33-3.87-15.58-18.59-18.81-25.69-19.24-22.89-.86-3.44-.54.22-.54.1-6.45 1.94h-.21l-1.94.64-1.72 1.19-.75.53-.64.43-.22.11h-.21l-.86-.11h-1.94l-.21.11-.32.11-5.06 2.15-11.93 5.59-.53.21-3.98 2.04-2.26 1.18-4.08-9.13 2.15-2.9-26.55-49.44-40.84-23.64-1.94-1.18-2.36-1.29-11.29-6.77-3.98-2.26-12.25-7.2-3.65-2.04-2.58-1.51-8.28-4.83-.86-.54-.32 4.19-.22 3.33-.53 4.73-.43 6.02-.11 1.29-.75 12.14-.86 17.09-.43 7.31-.76 7.31-1.18 4.73-2.04 6.98-2.26 5.05-1.5 2.58-2.37 3.76-12.9-.53-15.26.1-16.55.54-7.95-.11-5.59.11h-3.44l-1.94-.11-2.04-.32-1.72-.54-1.83-.75-2.68-1.4-10.32-6.87-13.65-7.96-2.69-1.07-1.72-.32-1.72-.33h-2.26l-1.29-2.47-.1-.21-2.04-3.98-2.69-6.56-1.4-3.76-2.36-6.55-1.83 1.07 2.15 6.02 1.5 4.3 3.01 6.77 1.83 3.76.64 1.51-33.64.32-.86-.43-2.36-1.08-2.9-1.61-3.77-.32-5.05.43-5.26.11-14.19.32-12.15.43h-13.86l-22.14.43-11.07.21h-9.57l-4.94-.1h-1.83l-4.3 12.46h-3.76l-1.51.11-14.08.11-4.3.1-8.49-12.68-6.02-.1-4.73-.11h-.32l-6.66.43-1.08-7.74-.32-7.09-.32-5.81-.43-11.6v-11.5l-2.15-.11h-3.87l-4.95.86-5.37.86-3.33.32h-10.32l-4.3 6.77-29.56 2.37-5.69-1.29-.11-2.37-.22-4.29h-11.6l-13.23.1-8.06.22-7.31.96-3.22.97 1.18 3.87-3.97.97-7.74 4.51-9.78 6.24-10.97 5.69-.86-.64-1.07-.54-1.29-.97-15.16 8.71-9.56 5.48-3.55-7.1-1.29-3-1.4-3.44-.53-2.26-.65-2.9-.43-3.23-.11-1.82-.21-2.9-.22-5.81.22-2.36v-1.29l-.11-.65.11-2.15-.11-.96 22.36-17.84-2.47-5.16 1.61-8.6-7.53-11.93-9.45-14.94 4.94-14.18-3.44-4.3 1.5-7.52 4.2-1.29 3.01-4.73 1.07-1.83 3.98-2.26-.86-4.29-2.9-7.53-7.21-2.68 1.72-6.56-9.02 6.77-.76.65-1.5 1.29-.11.21-2.79 2.47-4.2 3.98-.96.97-.43.53-4.62 4.41-3.98 3.65-2.58 2.47-.75-.96-3.23 3.01-5.69 5.69-15.7 15.8-2.47 2.58-2.79 2.79-3.77 3.55-3.97 3.98-3.98 3.87-4.84 4.72-2.36 2.37-6.45 6.45-1.61 1.5-3.98 3.98-4.51 4.3-3.23 3.22-8.7 8.6-1.29 1.39-2.15 2.15.53.97-6.66 6.77-1.72 1.83-4.08 4.08-2.58 2.58-2.26 2.26-1.4 1.4-1.61 1.72-.54.43-.64.75-6.88 6.88-.65.75-7.73 7.95-3.23 3.12-1.72-1.08-8.38-5.48-4.52-2.79-11.39-7.74-2.26-2.15-2.58-2.58-2.15-2.58-3.01-4.51-3.11-5.81-2.15-5.8-5.48-17.73-3.87-12.25-2.91-9.35-3.43-10.86-3.12-10.21-.75-2.25-2.91-9.03-.43-1.07-1.29-4.41-5.48-17.2-2.68-8.7-.22-.54-1.5-3.87-2.26-4.73-1.18-1.93-3.23-4.51-5.48-7.2-14.08-17.84-5.37-6.99-5.49-6.45-6.66-8.49-3.55-4.62-4.83-6.02-1.08-1.39-3.01-4.09-3.22-5.16-.75-1.29-.86-2.36-1.72-4.73-1.62-7.63-.86-7.41-.21-1.62-.54-5.26-1.29-13.22-1.07-10.32-.22-1.72-.21-2.15-.22-2.15-.21-2.25-.22-2.69-.43-2.69-1.18-11.5-.43-3.54-1.72-16.88-1.5-13.75-.76-7.63-.53-3.98-.97-7.95-.54-3.55-.64-2.47-.65-2.04-.75-2.04-1.94-4.84-3.97-8.17-1.83-3.76-.75-1.5-4.62-9.89-5.59-10.85-1.72-3.44-5.7-11.61-3.87-7.63-1.72-3.98-.54-1.5-5.91-13.76-3.76-8.49-9.78-22.78-.97-2.15-7.74-17.84-11.5-26.01-.43-1.18-3.97-9.24-1.4-3.12-2.15-4.83-1.83-4.3-3.65-8.39-.33-.85-3.43-8.49-.43-.97-3.01-6.56-1.51-3.44-.75-1.93-4.41-10.32-.75-1.83-.97-2.47-4.08-9.02-.22-.65-.21-.54-.75-1.5-2.15-4.62-.97-2.04-1.4-2.37-1.4-2.36-3.54-5.7-3.33-5.05-10.22-16.12-3.97-6.13-5.91-9.56-11.93-19.34-2.8-4.09-2.26-3.44-.75-1.18-.86-1.18-1.07-1.08-.76-.96-.21-.22 1.18-2.04 1.4-1.94.11-.64-12.36-14.29-37.84-35.79-13.86-14.72-3.66-2.91-4.83-6.01-8.5-10.64-10.53-13.44-3.55-6.23-1.5-3.65-2.04-4.62-2.37-5.81-19.02-55.24-.22-.53-.75-2.15-.64-2.15-2.05-4.09-2.47-4.19-2.9-5.8-3.44-5.05h2.47l1.83-.75 1.18-.22 2.26.65 2.69-.97 62.12 11.82 47.19-14.19 44.71-18.37 1.18-1.08 2.15-1.83 3.01-2.25.32-1.94.43-1.18.86-1.61.86-.43 1.29.43 1.18 1.61 1.29.86 1.4-.64.75-1.29 2.15-.97 1.72-.54 2.15-1.4 1.72-.85.75-1.51.86-1.93 1.29-.86h2.05l2.68-.54 2.15-.75 1.19-.65 1.29.97 1.72-.32 2.9-2.05.86-2.14 2.68-.76 2.05-1.93 1.61-1.29-3.33-.54-2.05-.11-1.61-.75-.86-1.07-.21-2.04.75-1.62 1.83-1.39-22.47 5.15-2.15-3.22-.64-3.12.43-1.82.75-1.51 1.29-.53 5.7-3.44 1.39-1.29.54-17.31-.21-20.2 24.29-1.07 13.54-.22 2.47 1.18 1.19-2.79 3.33-2.69 5.8-5.16 6.67-7.73 4.51-3.66 13.33-5.91 2.9-1.4 19.13-15.36 17.09-7.53 6.45-3.01 4.51-2.15 11.29-5.8 9.35-1.83 7.74-3.22 4.94-6.13 1.51-4.19.21-.53 1.08-.11 1.93-7.2-.32-5.38-.32-7.95-3.01-13.97-4.73-6.88-3.87-5.8-2.9-5.8-.97-4.09 5.38-11.17 2.57-10.32.22-9.24.75-20.42-.21-6.13-.11-2.9-1.29-10.32 2.26-2.9-2.05-10.64-2.25-6.23-11.29-10-.64-1.72 1.07-1.93-.54-19.02 17.52.64 70.94 10.21 4.62 6.02 6.24 4.08 2.26 2.58.53 6.99 1.83 4.51 1.93 5.05-.1 4.52-2.8 11.17.33 3.44 5.8 8.6.54 1.83 12.89-8.92 6.56 9.13 21.93-32.13.75-1.18 21.17-31.38 30.1-45.36 6.56-9.77 1.18-1.83 14.51-21.71 8.81-13.22 14.62-21.82 20.1-30.62 15.91-23.86 4.3-6.56.64-1.18 7.74-.21 8.49-6.13h6.13l6.45-1.08 1.61.33.64.21 1.29.75 1.51.33 1.82-.22 2.05-.32 3.65-.11 1.83-1.5-.43-2.04.21-2.05 1.83.11 1.51-.54.86-1.61.1-2.26-.53-3-.22-1.72-.11-.97.65-.65.64.43.65.54h1.29l1.18-1.07.64-1.62-.1-.96 1.29-.22 1.72.33 2.15 2.14.96 1.94v1.4l.43 1.5.76.54.86-.54 1.29.32 1.07.76.75.85.76 1.19 1.5 2.9 1.72 2.58 3.65 2.79 2.15.75 2.15.65 2.91-.54.43-.54 1.61-1.18 1.93-1.39 3.44-2.05 1.61-.1.86 1.61-.1 2.9.75 1.61 1.29.86 1.5.75.11.22.11.32h.21l.22-.21V54.7l.11-.43.1-.43.22-.32h.32l.11.11v.1l.11.43 1.29 5.49.21 2.68.43 2.04.32 1.29 2.37.86 3.01.76 2.25.53 1.19 1.4.43 2.47.21 2.15.97 1.72.64 2.36.54 2.58.65 1.51.75 2.04-.11 1.93-.97 1.72-.86 1.62-.32 2.15.11 3.01.32 1.61.86 1.5.97 1.83.75.64 1.51-.1 4.62-1.72 1.07-1.08 1.4-.86h1.18l1.18.43 1.62 1.18 1.5 1.29 1.4.43h1.4l1.07.33.75.86.75 1.29.97.75 1.51-.43 1.82.32 1.51.75 1.18 1.08 1.61.32 2.15.54 1.62-.65 1.61-.75 1.5-.97 3.23-1.61 2.36-2.69 2.04-3.01.65-2.25 30.2-46.97.32 2.05.65 1.61 1.18 3.33.86 1.07h3.66l1.93-.43 1.07-1.07.43-1.18.22-2.04-.54-2.15.11-3.44.21-1.61.43-.43 1.4.32 1.29.96 2.04 4.84 2.48 5.48 1.72 4.73 2.04 3.33 4.3 4.52 2.68 2.9.86.75.11 1.18-.75.97.11 2.04.32 2.04.75 1.61 1.83 1.29 2.15.11 2.15-.43 2.58-1.07 2.58-1.72 3.44-.43 4.4-.22 3.66-.86 1.29-.43.43.54.53 3.76.22 5.48.11 2.04.64 1.08.86.64.54.43.32-.1 1.18-.33.97.33.65.53.32.54.11.54-.43 1.4-.11 2.9.43 1.93.32.65.75 1.18 1.08 2.15h.32l.11.11.32.1.22.22.1.43.11.64.11.86.21 1.29.33.97.21.54.43.64.75.75.54.54.54.32h3.54l2.26-.1h.65l.64.21.97.32 2.04 1.19 1.4.64 3.65 1.4 1.62.75.86.21.32.11 2.36.43 2.69 2.47 1.72 1.08 1.61.43 2.47-.43 3.34-1.83 2.57-1.18 2.26-.65 7.2-.32h7.42l2.9.32 3.01.65 2.04.54 2.37 1.07 1.4.75 1.39.43 1.51.11 2.15-.32 1.61-.86 1.07-.75.86-.97.86-1.5.97-3.12 2.26-8.28.43-1.29.86-.64.86.11 1.4 1.29 1.93 2.47 1.29 1.29 1.29.53 1.4.33 1.07-.11.86-.43.32-.32v-.75l-.1-.65-.54-.97-.43-.86-.22-.96v-.76l.54-.43.65-.1.86.21 1.07.43 1.72 1.08 1.18.32 1.83-.11 1.72-.54 1.4-1.18.64-2.04.32-1.5v-4.41l.43-.86.76-.43.96.21 1.4.33 3.23 1.82 2.58 1.51 1.29.21.96-.32 1.29-.97.54-1.39v-1.4l-.32-.97-.86-1.29-1.61-.86-1.08-.64-.54-.65-.1-1.18.43-1.07.96-.54 6.24-1.94 5.91-1.61 3.22-1.07 1.4-.32 1.4.1.96.43.54 1.08 1.18 6.98 1.19 3.33.96.97.97.11 1.94-.11 2.47-.64 1.5-.65.76-.75.32-1.18.11-1.4-.33-3.01-.32-2.9.11-1.61.54-.75.86-.54 1.29-.32 1.82.86.97 1.28.75 1.51.11 1.4-.32 2.04.1 3.22.22 1.72 1.18 2.58.65 2.15.21 2.15v1.4l.75 2.25 1.94 2.05 1.29 1.72 1.83.64 1.5.11 1.61-.54.86-1.18.65-.75.96-.33.97.33.75-.11 1.19-.65 1.07-.32.11-.11.97.11.32.32.11.43.64.86 1.08.54h.32l.32-.21.75-.76.86-.96.65-.76.75-.32.54-.21 1.4-.76 1.29-1.18.96-2.25 2.37-2.58 1.82-2.48.76-.96.53-1.4.22-1.18.43-.75.86-.54 2.15-.86 2.69-.65 1.72-1.07 1.18-1.29.75-1.4.54-1.93 1.07-1.51.86-.43.97.11.86.86.21.54-.1 1.07-.22 1.29-.21.75.32 1.83.54 1.72.75 2.58.43.97.97 1.5.96.97 1.08.86.97.43.96.32.54.32.65.54.64.97.22 1.18v1.29l-.33.97-.86.96-1.72 1.29-1.29.97-.53.86-.33.97v1.29l.22 2.68.21 1.62.54 1.39.54 1.19.21.64.22.54.43.86v.32l.32.32.11.22.43.53.21.86.11.76-.32.32-.43.21-.43.43-1.08.97-.53.75-.11.54.32.54.22.54.43.75 1.18 1.93 2.47 4.3.97 2.47.86 2.15.43 1.51.32.64.32.54.32.43.54.54.65.43.96.32.11 2.9.22 13.86 1.72 14.94-.43 86.41 6.45-2.15 3.54.75 3.66 5.48 2.04 9.89.75.43 4.73-1.51 1.83.22.21 1.07.86 3.23 1.62 1.5 9.24-1.4 3.22.43 2.91 1.94 1.61 2.36 4.83 1.51 9.25-3.44.75.43.97.54 1.82 3.11 7.53 8.71 2.47 3.54 1.83 7.31-.54 11.18 2.58 1.29 8.17 3.87 3.33 4.51 2.9-.75 2.37-3.87 5.69-1.29 2.69 2.36 2.69 4.09 5.69 3.54 2.05 5.05 3.97 5.06.33 1.18 3.97 3.76 15.37 6.88 1.62 2.15.53 4.08.86.65 7.42-2.26 5.91-.32 11.72 1.82 14.61-.21 11.18-4.19 4.09-2.47.43-.22 3.54-3.98 3.12-6.34 2.47-2.9 2.8-1.72 20.31-3.65 4.62-2.26 10.97-8.27.75-.54 11.61-10.32 10.74-12.89 4.84-3.23 1.61-.54 3.34-1.29 6.34 1.94 2.9 1.18 3.87-2.47 4.62-4.62 7.63-5.59 8.28-5.16 1.82-2.47 3.23-7.74 10.1-8.49 2.47-1.29 14.3-7.2 3.01-.97 11.5 1.51 1.93 1.5 2.26 3.55 1.4.75 4.73-2.25 3.12.1 2.47 1.94.54 9.13 2.25 3.44 2.47 1.4 1.72-.75 3.23-4.95 1.07-3.44 3.44-2.15 3.12-.1 2.47 1.18 1.61 3.87 2.37 1.61 2.69-.21 1.82-5.92 10.54-5.26 2.15-4.3 2.36-1.29 5.48-.75 15.37-.54 4.62.97 3.98 3.01 3.76 1.18 11.18-.11 7.95 1.51 5.59 4.83 1.08 3.12 1.61 2.15 4.19 1.61 4.62-1.29 2.37-3.12 1.93-4.62 2.8-3.01 2.58-.53 5.69.43 4.09 6.77 7.95 7.09 1.18 3.33 4.2 4.51 2.9 1.4 8.38-.54 1.29-2.47 10.97 153.15-4.84 9.67.86 96.07-.43 14.73.21 8.92-.1 2.47-.11 1.93.54 24.72.1 5.38v4.08l.65 3.98.54 10.31-.11 6.88.32 9.14v13.32l.22 9.14v9.45l.21 4.19.22 1.72 1.07 3.77-2.47.64-6.77 1.72-6.56 1.61-7.74 1.83-10.1 2.15-12.04 2.79-25.26 5.7-2.04.43-10.32 2.36-3.76.86-5.05 1.18-4.84 1.08-6.66 1.5-4.41 1.08-2.15.32-2.15.32-2.04.11-2.58.11h-2.04l-2.58-.22-.86-.1-1.94-.22-2.15-.32-3.01-.65-3.87-1.18-4.94-1.5-4.19 17.3-.54 2.15-.54 1.93-.53 2.69-.43 1.61-.43 2.15-.22 2.04-.32 3.01-.11 1.94.11 2.9.32 3.87.65 6.34.43 4.83.96 10.11 1.29 13.32.65 6.88.43 3.44.21 1.61.33 1.83.43 2.26.53 2.36.54 2.26.65 2.36 4.29 15.26 3.12 10.75 3.23 11.5 1.5 5.37 3.12 11.18.32 1.18 4.73 16.33 3.65 12.9 4.73 16.55 1.19 4.19.75 2.58.54 2.04.43 1.83.32 1.51.32 1.71.43 2.58.21 2.15.22 2.8.11 3.22v2.26l-.33 3.97-.43 2.91-.43 2.36-.42 2.37-.76 2.9-1.61 5.05-2.47 7.52-1.72 5.8-.86 2.48-2.15 6.98-.54 1.72-.43 1.18-1.18 3.55-1.18 3.01-.86 1.93-.86 1.94-1.08 1.82-1.18 2.15-1.72 2.37-1.18 1.72-1.4 1.72-1.29 1.61-1.93 1.93-1.4 1.4-2.15 1.93-3.55 2.8.33.54.64.86 9.03 10.21 3.01 2.9.43.53.21.54.43 3.98.76 8.17.64 9.24.43 3.44.11.86.21.53.32.54.76.54 8.7 6.23 15.27 10.64 1.18.86 7.41 4.95 7.96 6.01-65.24 34.18-.33.11-70.07 33.74-1.72 31.06-2.37 40.84-3.65 65.66-.22 21.28v2.58l.11.97.11.86.1.86.33.86.21.64.75 1.18 7.85 11.07 7.31 11.29 5.8 8.7 3.01 3.76.65.86.64 1.18.43.97.32.97.22.97.11 1.61 1.29 23.21 2.79 45.46 18.27.11 51.92-1.08.86-.32.53-.43.76-.64 2.9-3.12.75-.65 1.08-.32 3.54-.32 21.93-.54 21.39-.43 13.22-.43 6.66 2.04 4.95-.1 2.36-2.15 4.19-5.7 4.2-6.88 4.62-2.79 2.36-1.4 4.84-4.3 5.48-6.44 11.39-9.57 1.83-3.22-.21-27.51h20.52l23.54.1 29.78-2.9.43-.11 28.26-.96 1.51 58.03v1.29l.11 1.61.1 2.58.65 19.45.64.97.54.86 1.18 1.18 1.08 1.08 10.32 14.5 8.27 13.22 10.43 19.35 9.89 14.08 14.94 15.26 19.34 14.61 2.05 1.72 1.07 1.18.32.76.11.96-.54 3.01-.53 3.66-.54 3.22-.22 1.72-.1 1.93v4.3l.21 13.54v16.12l.11 2.69.54 4.84.53 4.3.54 2.79.11.43.21.43.43.32.76.22.96.1 12.15-.1 14.83-.33 21.5-.43.11 20.96-.11 3.55v2.47l.21 8.6.54 10.1v3.33l.11.65-44.5 10.42-18.27 4.3-39.77 8.92-25.15 6.02-4.95.96-7.84 2.05-11.07 2.58-2.48.64-15.58 3.65-19.13 4.41-19.24 4.3-31.39 7.31-28.48 6.34-21.07 4.94-11.07 2.69-2.36.64-3.23.75-5.69 1.4-10.54 2.26-6.01.75-6.02.65-8.82-.43v3.01l-.53 2.79-1.19 2.26v2.47l.11 1.93v3.44l-.21 3.55-.86 2.68-.43 3.55.75 3.23.32 2.9-.43 2.58.75 3.11.33 2.69-.76 3.22-.86 2.69-.43 2.9-.43 1.4-1.5 9.89-2.04 1.82-2.05 1.4-2.25.54-2.05 1.39-1.28 1.94-.86 1.83-1.19 2.36-.86 1.29-1.18 1.93-.43 2.91-.32 2.04v3.11l-.86 2.37-1.61 3.12-1.29 1.5-3.23 3.65-2.26 2.91-.64 2.68v5.48l-.43 2.37-.86 3.01.11 2.15v3.43l-.32 3.66-.43 3.22-.76 1.94-1.72 1.82-1.18 2.69.11 2.69z" stroke-linejoin="round"/></defs><use xlink:href="#d" fill="#09757a" stroke="#097d9b" stroke-width="5.76"/><defs><path id="e" d="M1300.86 1955.39l-.53-2.58.53-1.5v-.11l3.44-10.53 2.69-3.22 3.22-3.87.86-.97 2.26-3.01 1.83-2.47 1.83-1.83 1.82-1.5.65-.43 1.5-.86.65-.22-.43-3.44-4.09-11.82.33-4.19 1.39-4.08-2.58-1.18-.86-3.55-.32-1.72-1.83-4.19-.32-.86 3.33-6.88 1.08-4.08-6.02-44.82-7.42 4.3-3.11 1.94-3.66 2.36-1.83 1.18-4.51 3.55-3.33 2.9-1.72 1.61-2.26 2.47-.97 1.08-1.82-1.61 1.29-1.94 1.18-1.39 1.5-1.62 1.94-2.15 2.26-2.25 2.68-2.58 3.01-2.58 2.47-1.83 2.05-1.5 1.82-1.19 3.12-1.93 3.55-2.04 3.33-1.83 4.19-39.55 4.52-17.94 1.5-6.13 3.01-14.08-1.93-6.34-24.94-19.99-16.88-4.19.76-6.23-1.62-5.27-6.44-4.19v-10.42l-3.98-3.87-9.35-23.86 5.48-20.42-6.56-9.78 1.51-4.08-5.59-1.83 13-30.84-2.36-3.98 1.29.21 1.07.22.65.11.43-13.22v-1.72l-6.99-10 4.84-9.99-3.87-3.22 4.51-10.21 1.51-3.66.21-9.67 2.69-7.42-9.57-32.45-1.82-6.34-.65-1.83 10.97-5.69 9.78-6.24 7.74-4.51 3.97-.97-1.18-3.87 3.22-.97 7.31-.96 8.06-.22 13.23-.1h11.6l.22 4.29.11 2.37 5.69 1.29 29.56-2.37 4.3-6.77h10.32l3.33-.32 5.37-.86 4.95-.86h3.87l2.15.11v11.5l.43 11.6.32 5.81.32 7.09 1.08 7.74 6.66-.43h.32l4.73.11 6.02.1 8.49 12.68 4.3-.1 14.08-.11 1.51-.11h3.76l4.3-12.46h1.83l4.94.1h9.57l11.07-.21 22.14-.43h13.86l12.15-.43 14.19-.32 5.26-.11 5.05-.43 3.77.32 2.9 1.61 2.36 1.08.86.43 33.64-.32-.64-1.51-1.83-3.76-3.01-6.77-1.5-4.3-2.15-6.02 1.83-1.07 2.36 6.55 1.4 3.76 2.69 6.56 2.04 3.98.1.21 1.29 2.47h2.26l1.72.33 1.72.32 2.69 1.07 13.65 7.96 10.32 6.87 2.68 1.4 1.83.75 1.72.54 2.04.32 1.94.11h3.44l5.59-.11 7.95.11 16.55-.54 15.26-.1 12.9.53 2.37-3.76 1.5-2.58 2.26-5.05 2.04-6.98 1.18-4.73.76-7.31.43-7.31.86-17.09.75-12.14.11-1.29.43-6.02.53-4.73.22-3.33.32-4.19.86.54 8.28 4.83 2.58 1.51 3.65 2.04 12.25 7.2 3.98 2.26 11.29 6.77 2.36 1.29 1.94 1.18 40.84 23.64 26.55 49.44-2.15 2.9 4.08 9.13 2.26-1.18 3.98-2.04.53-.21 11.93-5.59 5.06-2.15.32-.11.21-.11h1.94l.86.11h.21l.22-.11.64-.43.75-.53 1.72-1.19 1.94-.64h.21l6.45-1.94.54-.1.54-.22.86 3.44 19.24 22.89 18.81 25.69 15.58 18.59 3.33 3.87 20.32 33.31 9.67 18.6 14.08 5.37 6.77 15.58 8.17-.43 7.2-.54 2.48 2.69 3.54 4.41 3.87 4.73.22.86.86 3-22.9 1.72-6.23.43-6.02.54-3.12.11-1.18.11-2.69.32-1.61.11-3.01.32-5.37.54-3.12.32-23.97 2.26-20.42 1.61-5.91.53-6.13.43-6.45.54-3.65.32-8.92.65-11.29-.22-15.91-.43-18.48-.53-7.53-.97-4.94-.86-12.25-2.04-9.68-1.08-5.59-.1-15.47.1h-6.56l-6.77.11-9.68-.11-.75-.43h-6.34l-16.98.97.75 39.76-6.56 1.83-52.77 15.8-63.84 18.81-14.84 5.37-36.54 11.28-21.71 6.56-24.94 7.52-2.9 1.4-.86.43-4.08 2.36-2.8 2.05-2.26 2.04-1.61 2.15-5.8 9.45-2.58 3.87-2.15 2.37-1.29 1.29-8.49 8.49-3.23 3.22-14.72 14.08-6.67 5.8-4.51 3.33-11.07 7.85-6.56 4.08-8.27 4.09-29.35 14.4-8.27 3.76-7.1 3.55-16.76 9.13-8.07 5.05-9.78 6.02-30.2 18.59-16.23 10.21-.54.32z" stroke-linejoin="round"/></defs><use xlink:href="#e" fill="#004249" stroke="#00465f" stroke-width="5.76"/></svg>