<svg width="384" height="4.34in" viewBox="0 0 2880 3124" xmlns="http://www.w3.org/2000/svg" xmlns:xlink="http://www.w3.org/1999/xlink"><path fill="#fff" d="M0 0h2880v3124H0z"/><defs><path id="a" d="M1479.44 1604.56l-8.59 10.45-4.4-15.03-.19-5.96-11.52-11.03-34.36-40.22-22.94-25.38-.1-3.62-8.1-8.88-4.49-4.69-.19-.48-.98-1.27-12.01-12.6-7.51-7.51-6.84-7.33-1.75-.58-12.6 11.81-1.56 2.25-.68-5.08-.39-3.61-.2-.98-.39-3.12-.39-3.52-.29-2.15-.2-.97-.19.1-.39.29-.68.29-.59-4.78-1.07-8.1-.3-1.76-.19-1.95-.29-3.32-.2-1.66-.2-.98-.39-2.34-.58-2.64 2.24 4.49-.09-.29-.3-1.76-.48-2.15-.3-1.36-.29-1.08-.2-.78-.29-1.07-.39-1.27-.39-1.17-.49-1.27-.49-1.27-.29-.68-.78-1.96-.98-2.05-.97-2.05-1.17-1.95-.39-.68-.78-1.27-.3-.49-1.07-1.66-.39-.49-1.56-2.14-.3-.3-.87-1.17-.2-.29-.29-.39-.3-.3-.58-.78-1.86-1.95-.39-.49-.97-.88-.88-.87-.88-.79-.98-.87-.29-.2-1.17-.98-1.66-1.26-1.66-1.27-4-3.03-1.07-.78-11.04-8.4-.97-.78-1.08-.78-1.95-1.46-6.44-4.98-1.95-1.56-1.47-1.18-1.27-1.26-1.17-1.27-.09-.1-.69-.88-1.27-1.66-.97-1.37-.69-.97-.78-1.37-.48-.88-.98-1.66-.68-1.66-.2-.39-.39-.97-.29-.88-.69-2.05-.68-2.25-.59-2.34-.19-1.27-.2-1.17-.29-2.44-.1-2.35-.09-2.73v-1.66l.09-1.27.1-1.27-1.17-.09.29-2.54.3-1.76.39-3.03.09-.39.1-.39 1.17.49.2-2.24.88-5.67 1.66-11.52.48-3.32.49-3.51.1-.59.1-.39.29-1.95.29-2.34.2-1.27.1-.98.19-1.36.2-2.44.19-2.45v-2.44l-.1-2.44-.09-1.66-.1-1.56-.2-1.56-.19-1.07-.1-.88-.78-3.52-.2-1.07-.09-.2-.39-1.27-.69-2.44-.48-1.07-.79-2.05-.78-1.85-.88-1.86-.97-1.85-1.08-1.66-1.07-1.86-1.27-1.76-1.66-2.05-3.12-4-4-4.98-6.35-7.91-.29-.29-.2-.39.59-.58.78-.4 20.99-1.66 3.61.3 8.2.78 6.93-.29 1.66.29h.49l.78-1.17 5.37-10.25 3.71-7.13 4-6.93 4.2-6.74 4-7.03 3.9-7.12 3.42-6.15.58-.78.59-.49 3.22-1.37 2.64-.78 2.53-.68 1.27-.3 1.18-.09.29-.49.39-.3-.88-1.36-.49-.88-.49-.78-.19-.59-.1-.19v-.3l.1-.29.1-.39.39-.39.58-.68.39-.3.49-.68.29-.29 1.47-1.08-1.08-.78-2.73-1.85-2.73-1.76.39-.19 2.34 1.56 3.32 2.15 2.83 1.85 6.74 4.39.87.1 1.27.88 2.05 1.46 1.27.88.78.59.88.68.78.78.88.78.78.88.78.88.78.98.69.97.58.78.78 1.27.3.39.29.49 9.37-6.34.59-.49 1.56-.98 7.51-4.88 3.03-1.56.68-.39.1-.1 3.42-1.37 2.44-.78 3.61-.78 4.1-.97 2.34-.78.49-.2 4-1.66 4.69-2.64 2.44-1.17 2.63-1.07-.19-.49 1.17-.49.98-.19 1.36-.49 1.96-.39 2.04-.29.3-.1 1.46-.1h1.27l5.76-.1h1.17l1.76.1h.29l.29.1h.59l1.85.39 1.86.39 1.46.49 1.17.49 1.18.58 1.36.68.59.4 1.37.87 1.46.98 1.76 1.17 1.46 1.08.78.68.98.98.88.97 1.27 1.37.58.78 1.66 2.24 1.85 2.35.98 1.07.88.88.98.78 1.95 1.66.78.59 1.46.88.98.58 1.37.59 1.95.78 1.66.49 1.46.39 1.95.29 1.66.1 1.66.09h1.27l.69-.09.68-.1h.19l.98-.1 1.07-.19 1.17-.2 1.66-.49 1.57-.49 1.17-.58 1.66-.68 1.17-.69 1.27-.78.29-.19.49-.3 1.07-.88.78-.58.78-.68.78-.69 1.37-1.36 1.56-1.47.69-.78 3.51-3.71 2.64-2.73 2.44-2.44.78-.88 1.36-1.17 1.08-.79.58-.39.59-.39.58-.48.88-.39.88-.49.78-.39.88-.3.78-.39 1.17-.39.88-.19 1.08-.3 1.46-.29 1.17-.1 1.47-.19 2.73-.39 1.46-.2h.39l.3-.09 4.29-.59v.49h3.42l3.8-.29 1.18.58v2.64l.09 1.56.2 1.76.1.68.29 1.37.19 1.27 1.18 4.68.39 1.07.39 1.47 2.44 8.79 3.12 10.54 4.59 16.5 3.12 10.83 2.54 8.69 2.93 10.84.39 1.27 1.66 5.86 2.34 7.9 2.54 8.98 1.46 5.28 2.74 9.66 4.39 15.33 3.51-1.08 12.69-5.36 3.62-1.57 7.71-3.32 28.11-11.91 7.03-2.92 3.51-1.47 9.18-3.9 8.1-3.32 11.13-4.59 6.15-2.64 11.91-5.07.19.78 2.73 9.27 2.74 8.79 2.93 9.56 5.85 19.33.2.79.29 1.66-2.73 2.14-.88 1.08-1.37 1.75-2.44 4.01-.49 1.36-.58 1.76-2.05 7.52-9.37 3.81-9.47 3.22-16.2 7.03 2.83 9.07 2.44 8.4 5.56 17.48.78 3.12-.1.78-.39 1.17-1.07 2.93-2.54 7.03-5.47 14.64-1.46 4.59-1.37-3.32-1.26-3.9-1.47-4.1-1.27-1.96-1.85-2.14-1.47-1.27-1.17-.78-1.27-.59-1.17-.49-1.85-.68-2.15-.39-8.79-2.25-8.78-2.05h-.88l-.29.1-7.42 2.83-27.24 11.42-.87-3.8-2.64-8.69-2.15-7.81-.19-.39-.59-.1-26.84 10.15-2.44.88-.2.1-4.78 1.76-12.5 4.68-8.1 2.93-10.05 3.91-10.25 4-1.07.49-3.42 1.46-5.27 2.05-5.08.2-7.12 3.22.29 1.46 2.54 8.98 3.02 10.45 1.76 6.05 6.44 20.7 1.66 5.56 5.18 17.48 3.12 10.25 1.27 3.61-4.88.69-30.17 39.63-6.05 8.01-2.63 3.61-2.35 3.42-1.46 9.37-1.17 10.74 4 15.42 4.39 4.3 1.08 4.1.39 1.17 8 9.76-.97 1.07z" stroke-linejoin="round"/></defs><use xlink:href="#a" fill="#9dc8ca" stroke="#9dd7f0" stroke-width="5.76"/><defs><path id="b" d="M1248.97 1239.94l-.59.58-.19-.19-1.66-2.15-3.51-4.3-1.08-1.36-12.01-14.94-2.14-2.64-.78-1.07-2.93-3.71-1.86-2.44-1.75-2.83-1.47-2.44-.49-.78-1.75-3.03-.49-.98-.49-.97-2.15-3.91-.97-1.85-3.91-7.13-11.52-20.89-1.36-2.34-1.27-2.54-.98-2.05-.97-2.05-.49-1.17-.68-1.96-.59-1.75-.39-1.27-.49-1.66-.88-3.81-.1-.68-.29-1.47-.19-1.66-.1-.78-.1-.49v-.58l-.19-2.15v-1.56l-.69-12.01-.19-4.39-.1-.2v-.39l-.1-2.73v-1.37l-.1-1.37-.78-13.27-.19-3.91v-1.07l-.1-2.15v-4.49l.2-2.54.19-1.37.2-1.46.19-1.46.2-.88v-.49l.58-2.54.69-2.54.78-2.73.88-2.64.48-1.36.49-1.27 1.17-2.54 1.27-2.44.1-.29.49-.69 1.27-2.24 1.75-2.74 15.62-23.13 17.87-26.46 2.14-3.12 1.56-2.54 1.37-2.44 1.37-2.54 1.17-2.34 7.61-15.14.98-1.95.68-1.46 16.11-32.41.78-1.47.29-.58.2-.39.1-.3.29-.49.68-1.46 1.66-3.12 3.71-7.52 3.32-6.74 3.81-7.51.58-1.08 1.17-2.34.88-1.76 3.13-6.44 4.49-10.55 2.44-4.88 2.63-5.66 4.3-8.1 2.92-5.96 2.25-5.17 1.95-5.08 2.44-8.78.39.29.39.29.69.49.68.39.68.59.49.39.29-.88.2-.78.29-1.08 1.86-8.69 3.61-16.59 1.07-5.08 2.93-14.54 2.93-13.67 1.17-5.86 2.15-10.05.19-1.08.2-.78.19-1.07 2.05-9.38 2.93-14.05 2.15-10.16.1-.68.19-.59.39-.78.88-1.36 7.42-13.28 5.47-9.27 3.8-6.45 2.74-4.29 3.61-4.98.19-.59.1-.58v-.39l-.39-2.05-.58-2.25-.4-1.37.49-.48.39-.2.49-.78.2-.39.19-1.08v-.48l.2-.88.29-.78.59-.69.68-.58 1.56-.69 12.01-3.9 2.05-.59 3.51-1.56h.68l.39.39 2.84.98 1.95.49 2.15.09 3.02.69 2.05.1 1.37-.2 1.27-.68 1.17-.98 1.76-1.17 1.36-1.66 1.66-2.93 2.15-4.1 3.03-4.49.68-.98.78-.58.88-.49 1.75-.2 3.13-.58 1.85-.78 1.17-.98.79-1.07.48-.88.69-1.08.58-.78.88-.48 1.56.09.88.1.59.1 1.36-.1 1.66-.58 1.47-.79.88-.58 2.14-1.86 3.13-1.75 2.34-1.18 2.64-1.46 4.78-5.95 4.78-8.79 2.54 3.9 4.2-1.46 3.02-1.56 3.03-2.74 3.51-2.34 2.05-2.63 3.03-2.84 2.44-2.34 1.66-6.64v-2.24l3.81-6.64 3.41-4.59 1.17-1.85 1.76-1.96 2.73-.68 3.91-1.27 3.32-1.76 1.46-1.85 1.95-1.37 3.13-2.05 2.24-.68 7.23-3.32 25.47 60.62 2.93 2.44 1.66 3.42 2.54 5.08 1.37 3.12 1.56 4.4.58 1.36 1.27 1.86 5.08 7.32 13.86 18.55 4.2 5.46 12.39 16.99 2.64 3.71 2.24 3.52 4.79 6.44 2.63 3.61 1.66 2.34.88 1.18 3.03 4 1.27 1.66 3.41 4.68 1.17 1.96.98 1.85.59 1.76.29 1.37.97 6.24.79 5.96.29 2.93.68 5.56 3.12 24.99 1.08 10.64 2.24 18.46.78 9.07.88 6.94 1.27 10.25.88 8.49 1.47 10.74.19 3.12.1 2.83-.1 1.57-.49 4.29-.39 2.15-.88 3.22-1.07 3.42 2.24 1.17 1.27 1.07.3.3.29.29.58 1.07.3.69v.29l.19.78.88 7.13 1.86 14.35.78 7.91 1.17 8.98 1.56 16.01.68 6.64.69 6.44.19 1.76 1.37 8.88.39 3.22.39 4.2v1.76l-.29 23.23v1.08l-.49 2.34-.49 1.85-.88 4.98-2.63 15.23-3.22 20.01-.49 2.45-.3 1.95-.39 2.73-.19 1.95.1 1.66.09 1.27v.69l.3 1.75.88 3.03 2.44 7.22 4.78 14.55.88 2.54 6.15 17.47 7.51 22.65 8.4 24.8 1.46 4.88 1.17 3.42 2.54 8.1 1.86 5.27 6.05 18.45 2.93 8.3 4.68 13.86 2.54 8.3 4.88 17.57 2.25 6.94-11.91 5.07-6.15 2.64-11.13 4.59-8.1 3.32-9.18 3.9-3.51 1.47-7.03 2.92-28.11 11.91-7.71 3.32-3.62 1.57-12.69 5.36-3.51 1.08-4.39-15.33-2.74-9.66-1.46-5.28-2.54-8.98-2.34-7.9-1.66-5.86-.39-1.27-2.93-10.84-2.54-8.69-3.12-10.83-4.59-16.5-3.12-10.54-2.44-8.79-.39-1.47-.39-1.07-1.18-4.68-.19-1.27-.29-1.37-.1-.68-.2-1.76-.09-1.56v-2.64l-1.18-.58-3.8.29h-3.42v-.49l-4.29.59-.3.09h-.39l-1.46.2-2.73.39-1.47.19-1.17.1-1.46.29-1.08.3-.88.19-1.17.39-.78.39-.88.3-.78.39-.88.49-.88.39-.58.48-.59.39-.58.39-1.08.79-1.36 1.17-.78.88-2.44 2.44-2.64 2.73-3.51 3.71-.69.78-1.56 1.47-1.37 1.36-.78.69-.78.68-.78.58-1.07.88-.49.3-.29.19-1.27.78-1.17.69-1.66.68-1.17.58-1.57.49-1.66.49-1.17.2-1.07.19-.98.1h-.19l-.68.1-.69.09h-1.27l-1.66-.09-1.66-.1-1.95-.29-1.46-.39-1.66-.49-1.95-.78-1.37-.59-.98-.58-1.46-.88-.78-.59-1.95-1.66-.98-.78-.88-.88-.98-1.07-1.85-2.35-1.66-2.24-.58-.78-1.27-1.37-.88-.97-.98-.98-.78-.68-1.46-1.08-1.76-1.17-1.46-.98-1.37-.87-.59-.4-1.36-.68-1.18-.58-1.17-.49-1.46-.49-1.86-.39-1.85-.39h-.59l-.29-.1h-.29l-1.76-.1h-1.17l-5.76.1h-1.27l-1.46.1-.3.1-2.04.29-1.96.39-1.36.49-.98.19-1.17.49.19.49-2.63 1.07-2.44 1.17-4.69 2.64-4 1.66-.49.2-2.34.78-4.1.97-3.61.78-2.44.78-3.42 1.37-.1.1-.68.39-3.03 1.56-7.51 4.88-1.56.98-.59.49-9.37 6.34-.29-.49-.3-.39-.78-1.27-.58-.78-.69-.97-.78-.98-.78-.88-.78-.88-.88-.78-.78-.78-.88-.68-.78-.59-1.27-.88-2.05-1.46-1.27-.88-.87-.1-6.74-4.39-2.83-1.85-3.32-2.15-2.34-1.56-.39.19 2.73 1.76 2.73 1.85 1.08.78-1.47 1.08-.29.29-.49.68-.39.3-.58.68-.39.39-.1.39-.1.29v.3l.1.19.19.59.49.78.49.88.88 1.36-.39.3-.29.49-1.18.09-1.27.3-2.53.68-2.64.78-3.22 1.37-.59.49-.58.78-3.42 6.15-3.9 7.12-4 7.03-4.2 6.74-4 6.93-3.71 7.13-5.37 10.25-.78 1.17h-.49l-1.66-.29-6.93.29-8.2-.78-3.61-.3-20.99 1.66-.78.4z" stroke-linejoin="round"/></defs><use xlink:href="#b" fill="#9dc8ca" stroke="#9dd7f0" stroke-width="5.76"/><defs><path id="c" d="M1157.7 1240.62l-33.09-29.29-8-7.52-4.79-4.19.69-.69-.4-2.24-.19-.78-.78-2.35-.78-1.85-.2-.29-.29.39-.68 1.07-.88.88-.49.78-.68.78-.69.98-3.8 5.17-.49-.39-.2-.1-.19-.19-1.37-.88-2.24-1.37-2.25-1.27-.19-.09-.39-.3-.3-.19-1.07-.69-3.61-1.75-3.71-1.66-3.91-1.86-3.32-1.76-1.56-.78-2.24-1.56-3.52-2.63-3.32-3.03-2.14-2.25-.2.39-.19.3-.98-1.08-2.05-2.53-1.17-1.47-1.07-1.66-3.62-6.05v-.78l-2.83-5.96-1.85-3.71-1.95-3.51-1.76-2.64-1.66-1.95-1.66-2.44-1.56-1.76-3.42-3.81-4.88-4.39-8.2-7.81-8.59-9.08-7.51-8.78-3.71-4.79-9.47-12.3-1.56-2.24-1.86-2.54-1.27-1.86-1.85-3.02-1.17-1.96-3.42-6.34-1.47-3.22-1.17-2.44-2.63-6.45-5.96-14.25-2.44-6.54-6.34-17.67-6.05-17.09-1.47-4.68-.49-1.66-.97-3.22-9.86-26.65-7.13-20.21-1.75-5.27-1.47-4.3-1.56-4.39-1.27-3.32-.68-1.86-1.27-3.32-1.66-4.1-1.37-2.93-2.14-5.17-3.23-7.81-2.73-8.3-2.63-8.2-1.18-3.02-.87-2.54-1.47-4.88-1.27-4.01-1.17-3.51-1.66-6.15-.68-2.44-3.61-10.64-3.81-10.94-2.83-8.2-2.05-5.86-6.35-17.76-2.53-7.23-.79-2.24-3.12-8.79-3.22-9.47-3.22-8.98-1.47-3.81-1.56-4.59-1.36-4-.88-2.63-.88-2.84-1.47-4.68-1.07-4.1-.78-3.42-.98-4.29-.58-3.62-1.08-5.85-1.07-8.11-.78-7.42-.29-4.58-.3-6.35-.09-5.86.19-8.39.39-8.79.39-5.76.49-11.23 1.56-28.8 2.25-40.31.78-13.97-1.47-.39-3.12-1.46-2.34-.49-4.98-1.56-.78-.29-1.07-.39-1.18-.78 1.66-1.76 1.76-.78 1.85-1.96 3.03-2.05 3.03-.29 4.19.69.69.19 1.07.2-.39 7.42-.29 4.49 1.27.68 2.54.59 3.8.09 2.83-.29 3.71.78 10.84 1.95 4.88.78 1.85-.29 4.69-.97 2.44-.59 9.56-1.95 12.4-2.64 17.47-1.66 14.55-.97 2.83-.2 17.57-1.66 17.86-.98 9.67-.58 9.95-.78 9.47-.88 9.76-.78 9.67-.88.58.1.59.19.49.39 1.75 2.35 13.47-17.38 1.57-2.05-1.86-6.64v-.59l.1-.39.29-.19.59-.1 1.46-.1.88-.29.59-.39.48-.39 1.57-1.66 1.46-1.86.29-.58.2-.49v-.49l-.2-.58-1.66-2.93-1.36-2.64-.69-1.66-.29-1.07-1.46-8.3-1.08-10.05-.09-2.64-.59-4.78v-1.18l.29-1.56.59-2.54 1.07-2.83 2.05-3.22 1.08-2.15 1.56-2.24 1.07-.98 4.2-1.85 3.81-2.25 2.53-2.24 1.96-4.3-1.08-.39-4.19-2.15-4.79-2.44-1.66-.58-2.05-.49-3.02-.29-6.06-.1-3.12-.59-2.15-.58-.78-.39-1.07-.79-4.2-3.71-4.2-4.39-3.02-2.73-1.86-1.08-.97-.39-1.76-.29-2.54-.1-3.12.59-1.27.68-1.17.69-.78.68-8.89 8.39-6.93 7.03-10.83 10.06-7.62 5.86-3.31 2.73-1.86 1.37-2.34 1.46-2.05 1.08-.39-1.76-1.17-4.98-.98-1.95-1.07-1.37-.98-1.27-1.37-3.9-1.56-2.25-1.46-4.98-.39-11.81-1.27-10.94-.78-8.39-1.27-1.47-.2-.29.88-2.93 1.76-6.44 7.03-25.09 4.98-17.96 11.12-39.83 42.47 3.41 12.98 3.62 4.68 6.73 37.98 13.47 29.96 7.81 2.74-1.07.97.29 4.49 1.27.59.39 1.36 1.27 1.18 1.37.58.58.59.39.88.69 1.27 1.66.68.49 2.15 1.17 4.39 1.66 1.07.88 1.37 2.14.97.78 1.08.69 2.63.88 4.79 1.17.97.1.98-.1 2.73.97.1.2.1.39.1.19.87.4 1.27.19 1.47.59 1.85.78.69.68.29.2.78.29 2.15.29.88.39.78.49.68.68.19.49.1.59v1.85l.2.49.39.59.78.58 5.07 1.66.88.39 4.98 1.37 1.86.1.48.39.3.88 5.95-.59 8.88-1.07 6.84-.88 3.9-.78 1.95-.39 27.73-8.01 2.05-.49 2.92-.88 3.23-.78 3.71-1.07 7.71-2.25 2.83-.88 3.32-.58 2.24-.39.49-.1h.78l.78-.1 1.08-.09 3.9-.2 6.93.1.39-.2h4.1l-.78-1.07-.68-.39-.78-.29-.79-.3-10.15-3.22-.78-.19-7.03-2.35-3.22-1.07-8.39-2.73-9.57-3.32-8.49-2.93-10.45-3.61-6.44-2.05-2.05-.69-11.91-4.1-2.93-.68-2.24-1.08-4.3-2.83-2.05-.58-.97-.1-1.27-.1h-1.86l-5.75-1.56-10.84-3.22-1.56-.49 12.88-14.55-7.02-2.34-1.18-.39-1.46-.49-4.98-1.75.29-.69.2-.58.1-2.15.1-2.54.19-.78.2-.68.48-.49 1.37-.69 1.56-.87.39-.3.3-1.17-.1-1.85-.39-2.05-.3-1.47-.39-1.27-.39-.78-2.14-2.63-3.03-3.71-2.05-2.54-.49-1.08v-.48l.1-.98.59-2.15.58-1.56 1.86-5.56.48-2.15 7.81-1.08 5.37-1.66 2.05-.78 2.05-.88 2.25-1.26 1.75-1.18 2.64-1.75 9.76-6.64-2.83-8.69-1.27-3.42-4-11.52-.29-.58-.3-.59-.68-.78-4.59-3.42-2.63-2.53-.59-.69-.78-1.27-.49-1.17-.39-1.07-.49-1.96-.09-1.17-.1-2.24.1-1.76.19-1.07.39-1.08.88-2.05.59-1.36-1.96.48-3.41 1.37h-.98l-2.15-.68-1.36-.39-.78-.2-.59-.49-3.03-3.41-6.83-9.67-1.37-1.85-2.14-3.03-8.5-12.2-.58-.88-.49-.49-.59-.49-.68-.49-.58-.29-.98-.39-1.56-.19h-2.05l-1.17-.3-.69-.39-1.07-.88-1.07-1.26-1.08-1.27-.78-1.18-.29-.58v-1.27l.78-5.57.78-5.17.2-2.34-.2-2.74-.29-1.85-1.17-7.32-.39-3.71v-1.37l.19-.88.2-2.73-.39-2.44-.59-1.76-.29-.58-.69-.79-1.66-1.66-3.41-3.51-.3-.39-.87-1.95-2.64-6.84-1.46-2.73-1.27-1.95-1.47-1.66.98-1.08.39-.58.88-1.86 1.27-2.73 1.27-2.25 1.46-2.14 2.34-3.03 1.37-1.37.88-.78.97-.68 2.15-1.07 12.79-.1 7.81 1.07 2.54.2 1.36-.2 2.93-1.17 2.34-.88 9.47-4.1 10.15-4.2.88-.19.98-.1h.98l.97.1 11.81 1.56 8.59.29 1.17-.49.49-.09 1.08-.1.97.1 6.64.39.68-.1.39.1 1.57.68 1.95.1.97-.1 1.37-.19 5.76-.79 1.37-.19h1.66l5.27-.49 3.32-.39 1.85-.29.98-.1 1.07.2 1.95.58.98.1 2.15.1h2.92l3.13-.39 3.02-.88.79-.1.87.1 1.18.29 1.26.39 2.54 1.56 1.86.39 3.9.78.98.3.68.39 3.81.78.78.1 1.46-.3 1.86-.48 1.85-.1 4.98.39h1.95l.98.1 1.76.58 1.36.29h2.05l6.15-.68 2.34-.1 1.47.1 1.46 1.47 1.86 2.53 2.44 2.25 2.34.78 1.47.1 1.07-.2.98.3 2.24.68 2.34.29h4.98l3.42.1 1.36-.2 1.66-.48 1.96-.88 2.05-1.86 1.66-1.95 1.46-2.73.59-1.57.19-.87.39-3.13.2-4.49-.49-.78-.1-.68.2-2.25.78-4.88.48-2.15.98-3.12.39-1.86.2-2.05v-2.73l.19-.49.2-.39.09-.1.2-.19.39-.1h.39l1.07.49 1.76 1.46.59.88.39 1.47.39 1.36.39.49.88.68.39.1 1.56-.39 1.76-.68 1.17-.49.58-.29.98-1.17 1.07-1.57.3-.48.09-.39.2-1.86.19-.98 1.37-1.46 1.47-1.76 1.26-1.75.39-.88.49.88.49 1.95.29 2.73.3.78 1.07 1.47.78 1.46.39.78.39.49.39.68.1.49v.78l-.2.88.1.39.2 1.95-.3 1.27-.68 4.01v.58l.1.59.39.88-.29 2.05 1.36 3.51 1.17 1.37 1.08 2.73v2.25l-1.76 2.24.29-.1.79.2 1.75.88.88.58.39.49.78 1.47.69 1.56.39.58v.39l-.49 2.54v.3l.19.19 1.47.49.39-1.17.39-.49.49-.39.87-.29.1.58.39 3.42.3 4.29.39 4.1.87 5.08 1.76 6.74.78.39.3.78.58 1.37.39 1.95.2 1.56.48-.1.4-.1 1.26-.19.49-.1 2.83-.19 4.49-.49 11.03-2.93 6.54-1.86 4.69-1.26 2.05-.59 4.49-1.27 1.27-.39.88-.2 3.71-.39 7.41-.87 1.76-.3 3.71-21.57 2.05-12.01.88-5.27 72.33-7.32 9.76-6.84 8.69-6.15 19.62-14.25 6.15-4.39 19.91 13.57 65.8-41.1 1.07-.69.1 3.03.09 2.34.1 1.08.49 8.1.2 4.1.19 2.93 2.34 34.26.49 6.35.2 2.44.09 3.9.3-.09.58-.3.78-.39 16.79-5.07 16.99-5.27 17.76-6.74 5.37-2.05 34.66-13.18 1.36-3.61 8.2 7.51.49.4.59.68 3.22 2.83 1.17.98 4.29 4 1.57 1.46 1.26 1.17 1.86 1.47 14.84 13.67 15.13 13.76 12.39 11.33 2.15 1.85 2.05 1.86 19.72 17.96 2.24 4.78 16.5 34.95 8.69 18.65 26.94 57.11 1.27 2.54 1.76 3.61 1.46 3.03 1.27 3.12 14.35 32.12 9.86 22.16.88 1.85 2.14 4.98 39.54 89.43 5.66 13.08 4.29 9.66-.48-.19-.69-.49-3.32-1.95-2.44-.88-1.95-.59-.98.1-1.66.29-1.56.49-.78.59-1.56 1.27-.98.68-1.56 1.07-.97 1.08-.2.49-.39 1.85-.29 1.08-.39.78-1.27 1.27-2.74 2.24-1.46.78-.78.29-.59.2-1.46.1-.68.39-.3.39-.09.39.09 1.27v2.15l-.09.68-.3.98-.19.39-.29.48-1.96 2.15-1.75 2.25-2.64 4.29-1.46 2.05-.88 1.08-2.44 2.34-.59.78-.58.88-.39.68-.59.78-1.17 1.18-.78.48-1.37.78-1.27.59-3.8.98h-.69l-1.36-.3-1.27-.68-1.08-.29-.58-.1-1.17.1-.3.1-.19.29-1.08 2.24-.58.98-.3.29-5.46 2.74-2.93.48-1.46.39-.98.2-2.44.49-.78.1-2.64.29h-2.24l-2.34-.1h-.88l-.88.1-.39.1-2.83.97-2.25.98-2.05 1.07-4.88 3.13-.88.68-2.83 2.93-.1-.78-.19-.1-.39.1-.59.39-1.36.97-1.27.88-2.64 1.17-1.85.98.09-.19.2-1.37-.1-.78-.29-.69-.29-.58-.49-.2-1.17-.19-.88.39h-1.47l-.09.19v.3l.29.58.19.39.1.88-.1.2-.19.09h-.68l-.98.59-.68.59-.88.58-.29.29-.3.49-.29.3-.39.09-.88-.29-.49-.29-.49-.39-.09-.39.29-1.27-.1-.3-.39-.48-.29-.1-.2.1-.68.78-.98.88-.09.58v.29l.19.3.88.29v.2l-.29.29-.3.19-1.17.1h-.58l-.2-.19v-.39l.1-1.18-.2-.29-.29-.1-.19.1-.49.78-.49 1.27-.68.88-.39.2-.39.09-.39-.09-.3-.2-.29-.98h-.68l-.69.39-.39.59-.09.29h.09l.3-.19.39.1.09.09-.58 1.37-.1.49.1.68-.1.29-.19.3-.39.19-2.25.39-.78.39-1.56.88-.88.88-.59.68-.58.98-.88 1.66-1.37 1.56-1.56 2.44-.29.59-1.17 1.46-.88 1.17-.2.3-.97.29-.2.1-.1.49.2.29v.19l-.2.3-1.27.88-.48.39-.3.48-.29.59-.1.59v.39l.1.39.39.19-5.66 5.57-6.44 8.29-.98 1.27-3.9 6.64-.49.59-3.81 5.46-.58.69-4.49 6.34-2.54 3.91-.3.58-.48.49-.69.3-.58.48-3.32 3.22-6.54 5.57-1.27 1.56-.88 1.37-.68 1.07-4.1 4.3-.88.88-2.73 1.66-1.37.78-1.95.88-3.32.68-4.2.88-3.22-1.08-2.34-.58-1.47-1.66-3.71-2.74-.97-.48-2.25-1.27-2.14-.59-3.03-1.17-2.93-1.17-.68 1.07-1.66 2.64-2.05 2.34-1.66 1.76 1.37 1.17 28.6 24.89-3.81 4.59-1.95 2.54-.59.88-1.85 3.22-3.22 7.03-5.37 10.64-.49.78-.59.59-.68.58-.68.39-.88.4-1.17.29-1.57.1-5.07-.59-8.59-.68-8.79-.3-12.3-.68-3.41-.39-2.54-.49-5.27-1.37-1.47-.39-3.71-.78-.97-.09h-.68l-1.08.48-.78.59-.98.98-.78 1.07-2.24 3.51-2.05 2.93-1.66 2.05-1.66 1.76-1.07.88-1.18.49-2.44 1.85-.68.78-1.07 1.37-1.66 2.05-3.22 2.44-2.74 3.61-.29.69-.59 1.75-1.07 4.59-.39.69-4.49 7.51-.98 1.86-.68 1.75-1.95 5.86-.39 1.27-.2 1.27-.19 1.46-.3 11.82-.48 7.12-.3.78-.29 1.37-.29.59-6.93 10.93-2.44 4-1.66 2.64-1.08 1.46-1.46 1.66-4.59 5.47-1.17.78-.59.29h-.29l-.39-.09-1.17-.59-1.85-1.17-.39-.2-.88-.39-.98-.39-.88-.09h-1.66l-2.83.78-1.36.58-2.54 1.76-.98.59-.68.29-1.47.19-3.51-.09-9.47 2.63-1.07.69-.59.68-4.1 5.66-.78.98-.49.49-1.85 1.17-.29-2.93-.79-5.96-.97-6.24-.29-1.37-.59-1.76-.98-1.85-1.17-1.96-3.41-4.68-1.27-1.66-3.03-4-.88-1.18-1.66-2.34-2.63-3.61-4.79-6.44-2.24-3.52-2.64-3.71-12.39-16.99-4.2-5.46-13.86-18.55-5.08-7.32-1.27-1.86-.58-1.36-1.56-4.4-1.37-3.12-2.54-5.08-1.66-3.42-2.93-2.44-25.47-60.62-7.23 3.32-2.24.68-3.13 2.05-1.95 1.37-1.46 1.85-3.32 1.76-3.91 1.27-2.73.68-1.76 1.96-1.17 1.85-3.41 4.59-3.81 6.64v2.24l-1.66 6.64-2.44 2.34-3.03 2.84-2.05 2.63-3.51 2.34-3.03 2.74-3.02 1.56-4.2 1.46-2.54-3.9-4.78 8.79-4.78 5.95-2.64 1.46-2.34 1.18-3.13 1.75-2.14 1.86-.88.58-1.47.79-1.66.58-1.36.1-.59-.1-.88-.1-1.56-.09-.88.48-.58.78-.69 1.08-.48.88-.79 1.07-1.17.98-1.85.78-3.13.58-1.75.2-.88.49-.78.58-.68.98-3.03 4.49-2.15 4.1-1.66 2.93-1.36 1.66-1.76 1.17-1.17.98-1.27.68-1.37.2-2.05-.1-3.02-.69-2.15-.09-1.95-.49-2.84-.98-.39-.39h-.68l-3.51 1.56-2.05.59-12.01 3.9-1.56.69-.68.58-.59.69-.29.78-.2.88v.48l-.19 1.08-.2.39-.49.78-.39.2-.49.48.4 1.37.58 2.25.39 2.05v.39l-.1.58-.19.59-3.61 4.98-2.74 4.29-3.8 6.45-5.47 9.27-7.42 13.28-.88 1.36-.39.78-.19.59-.1.68-2.15 10.16-2.93 14.05-2.05 9.38-.19 1.07-.2.78-.19 1.08-2.15 10.05-1.17 5.86-2.93 13.67-2.93 14.54-1.07 5.08-3.61 16.59-1.86 8.69-.29 1.08-.2.78-.29.88-.49-.39-.68-.59-.68-.39-.69-.49-.39-.29-.39-.29-2.44 8.78-1.95 5.08-2.25 5.17-2.92 5.96-4.3 8.1-2.63 5.66-2.44 4.88-4.49 10.55-3.13 6.44-.88 1.76-1.17 2.34-.58 1.08-3.81 7.51-3.32 6.74-3.71 7.52-1.66 3.12-.68 1.46-.29.49-.1.3-.2.39-.29.58-.78 1.47-16.11 32.41-.68 1.46-.98 1.95-7.61 15.14-1.17 2.34-1.37 2.54-1.37 2.44-1.56 2.54-2.14 3.12-17.87 26.46-15.62 23.13-1.75 2.74-1.27 2.24-.49.69-.1.29-1.27 2.44-1.17 2.54-.49 1.27-.48 1.36-.88 2.64-.78 2.73-.69 2.54-.58 2.54v.49l-.2.88-.19 1.46-.2 1.46-.19 1.37-.2 2.54v4.49l.1 2.15v1.07l.19 3.91.78 13.27.1 1.37v1.37l.1 2.73v.39l.1.2.19 4.39.69 12.01v1.56l.19 2.15v.58l.1.49.1.78.19 1.66.29 1.47.1.68.88 3.81.49 1.66.39 1.27.59 1.75.68 1.96.49 1.17.97 2.05.98 2.05 1.27 2.54 1.36 2.34 11.52 20.89 3.91 7.13.97 1.85 2.15 3.91.49.97.49.98 1.75 3.03.49.78 1.47 2.44 1.75 2.83 1.86 2.44 2.93 3.71.78 1.07 2.14 2.64-.48 1.46-.3 1.08-.39 1.07-.39 1.27-.78 2.44-1.17 3.32-.88 2.64-1.36 4-.39-.1-1.66 3.61-.3-.29-1.66 2.93-2.92-3.22-1.86-1.76-.78-1.07-.68-.3-1.86-.39-.97-.49-1.76-2.34-.98-.78-.78-.19-.88.39-1.27.78-2.73 1.95-.68.98-.1.09-.29 1.08.19 1.75.59 4.3v.59l-.3.48-7.02 4.98-6.74-6.44-4.68-4.59-6.15-5.27-4.59-4.2-4.69 6.44-.29.59-.1.59-.1.78v.49l-10.05 4.39z" stroke-linejoin="round"/></defs><use xlink:href="#c" fill="#6bacaf" stroke="#6bb4d2" stroke-width="5.76"/><defs><path id="d" d="M1149.79 1742.02l-4.39 5.57-4.39-4.3-4.3-4.1-4.19-4-2.83-3.13-8.59-8.39 2.63-3.13 1.95-2.24 1.37-1.17 2.83-3.52 4.1-5.07 4.3-5.28 4.1-5.27 4.78-5.86 9.47-12.1 5.66-6.74 5.37-6.73 5.17-6.74 4.3-4.69 1.85-1.85 5.76-6.35 15.91-20.01 7.81-9.96-.68-.78-1.37-1.46-6.64-7.13-7.03-7.42-7.12-7.32-11.32-12.11-11.82-12.3-7.71-8.39-7.71-8.2-7.42-7.62-31.43-22.55-20.89-15.42 2.05-3.62 2.25-3.9 5.17-8.98 3.61-6.25 3.03-5.47 3.9-6.64 6.15-11.13-.29-.19-.39-.2-5.47-3.51-1.17-.88-.88-.68-.39-.3-1.46-1.36-.2-.2-.19-.09h-.2l-.1.09-.19.1-2.25 3.12-.09.1-.39 2.35 4.58 4-2.83 4.49-2.83 4.39.78.78-4.39 6.64-4.2 7.52 5.08 3.02-3.42 5.86-3.8 6.74-2.15 3.71-4.1 6.93-8.1 13.28-1.86-2.05-14.54-17.58-4.01-4.98-6.63-8.1-20.31-24.79-8.49-10.16-6.83-8.49-18.94-23.04-3.42-4.2-12.59-15.42-2.73-3.52-.68-.68-5.86-7.13-6.25-7.81-9.56-11.52-1.18-1.56.98-.98 3.61-3.8 4.49-4.3 3.13-2.93 7.22-6.73 16.89-15.62 5.17-4.69 3.81-3.51h.39l.19-.1.1-.1 9.27-8.39.3-.2-.3-.59v-.97l-.88-.98-4.49-5.37-3.61-4.59-2.83-3.71-.39-.09-1.56-2.15-25.09-33.78-6.15-8.49-6.05-8.69-9.08-12.99-3.12-4.29-3.51-4.78-.49-.2-4.88-6.64-4.2-6.05-.1-.49-6.64-9.66-1.95-2.15-4-3.61-1.46-1.27-2.15-1.27-1.17.29-2.05-1.17-2.74-1.47-2.63-.87v-.69l.39-1.36 1.27-4.49 2.34-8.21 4.39-15.42 3.03-10.54 3.32-11.62 1.27-4.39 1.66-5.96 2.05-7.22 1.66-5.57.29-1.17.29-1.17 1.56-5.57 2.25-7.61 1.27-4.3.29-1.36 1.95-6.93.98-.1h.68l3.61-.29.88-.1 5.27-.39 6.15-.69 7.52-.58 2.34-.2 8.01-.78 2.73-.29h1.76l1.46-.29.78-.1.49-.29.39-.3.29-.58.49-.98 1.27-3.71 2.24-6.15 1.27-3.22.3-.59.39-.58 1.27-1.08.97-.88.29-.09 1.47 3.22 3.42 6.34 1.17 1.96 1.85 3.02 1.27 1.86 1.86 2.54 1.56 2.24 9.47 12.3 3.71 4.79 7.51 8.78 8.59 9.08 8.2 7.81 4.88 4.39 3.42 3.81 1.56 1.76 1.66 2.44 1.66 1.95 1.76 2.64 1.95 3.51 1.85 3.71 2.83 5.96v.78l3.62 6.05 1.07 1.66 1.17 1.47 2.05 2.53.98 1.08.19-.3.2-.39 2.14 2.25 3.32 3.03 3.52 2.63 2.24 1.56 1.56.78 3.32 1.76 3.91 1.86 3.71 1.66 3.61 1.75 1.07.69.3.19.39.3.19.09 2.25 1.27 2.24 1.37 1.37.88.19.19.2.1.49.39 3.8-5.17.69-.98.68-.78.49-.78.88-.88.68-1.07.29-.39.2.29.78 1.85.78 2.35.19.78.4 2.24-.69.69 4.79 4.19 8 7.52 33.09 29.29 10.05-4.39v-.49l.1-.78.1-.59.29-.59 4.69-6.44 4.59 4.2 6.15 5.27 4.68 4.59 6.74 6.44 7.02-4.98.3-.48v-.59l-.59-4.3-.19-1.75.29-1.08.1-.09.68-.98 2.73-1.95 1.27-.78.88-.39.78.19.98.78 1.76 2.34.97.49 1.86.39.68.3.78 1.07 1.86 1.76 2.92 3.22 1.66-2.93.3.29 1.66-3.61.39.1 1.36-4 .88-2.64 1.17-3.32.78-2.44.39-1.27.39-1.07.3-1.08.48-1.46 12.01 14.94 1.08 1.36 3.51 4.3 1.66 2.15.19.19.2.39.29.29 6.35 7.91 4 4.98 3.12 4 1.66 2.05 1.27 1.76 1.07 1.86 1.08 1.66.97 1.85.88 1.86.78 1.85.79 2.05.48 1.07.69 2.44.39 1.27.09.2.2 1.07.78 3.52.1.88.19 1.07.2 1.56.1 1.56.09 1.66.1 2.44v2.44l-.19 2.45-.2 2.44-.19 1.36-.1.98-.2 1.27-.29 2.34-.29 1.95-.1.39-.1.59-.49 3.51-.48 3.32-1.66 11.52-.88 5.67-.2 2.24-1.17-.49-.1.39-.09.39-.39 3.03-.3 1.76-.29 2.54 1.17.09-.1 1.27-.09 1.27v1.66l.09 2.73.1 2.35.29 2.44.2 1.17.19 1.27.59 2.34.68 2.25.69 2.05.29.88.39.97.2.39.68 1.66.98 1.66.48.88.78 1.37.69.97.97 1.37 1.27 1.66.69.88.09.1 1.17 1.27 1.27 1.26 1.47 1.18 1.95 1.56 6.44 4.98 1.95 1.46 1.08.78.97.78 11.04 8.4 1.07.78 4 3.03 1.66 1.27 1.66 1.26 1.17.98.29.2.98.87.88.79.88.87.97.88.39.49 1.86 1.95.58.78.3.3.29.39.2.29.87 1.17.3.3 1.56 2.14.39.49 1.07 1.66.3.49.78 1.27.39.68 1.17 1.95.97 2.05.98 2.05.78 1.96.29.68.49 1.27.49 1.27.39 1.17.39 1.27.29 1.07.2.78.29 1.08.3 1.36.48 2.15.3 1.76.09.29-2.24-4.49.58 2.64.39 2.34.2.98.2 1.66.29 3.32.19 1.95.3 1.76 1.07 8.1.59 4.78.68-.29.39-.29.19-.1.2.97.29 2.15.39 3.52.39 3.12.2.98.39 3.61.68 5.08 5.57 44.42 3.61 29.38.19 1.37.2 1.66.58 3.02.69 3.03.78 3.03.78 2.63.98 2.64.48 1.36.59 1.37.58 1.27.59 1.37 11.71 20.99 13.38 23.91 21.57 38.66 9.86 17.67 31.92 57.21 1.46 2.64 6.74 11.91 3.9 7.12 1.08 1.86 1.75 3.03.3.48.78 1.37.88 1.27 1.75 2.64 1.37 1.85-1.27.59-.78.48 4 8.21.59.97-2.44-1.17-2.54-.98-2.73-1.56-.59-.39-1.66-1.17-2.34-2.25-.39-.48-1.37-1.76-1.07-1.56-1.76-3.62-.68-2.34-1.27-5.07-.2-.69-.68-2.83-.98-2.83-1.56-3.22-1.56 2.15-7.42 10.34-.88 1.08-.39.29-.39.29-.88.98-2.93 3.81-4.78 6.64-9.37 12.98-76.04-26.55-.49-.98-2.44-6.25-2.24-4.49-2.25-5.47-.68-1.36-1.27-2.15-1.66-2.54-5.37-6.05-1.37-1.47-.68-.68-.78-1.37-.98-1.95-.48-1.56-.2-1.17-.39-1.17-.49-.88-.39-.29-.49-.2-1.66-.88-1.17-1.07-2.34-1.76-2.05-1.17-2.15-1.47-.49-.19-1.95-.39-.78-.29-2.05-.69-1.17-.58-1.56-1.17-1.08-1.08-2.34-2.54-2.34-2.93-.68-.58-2.35-1.47-.68-.68-1.27-2.24-.39-1.08-.29-1.07-.69-3.42-.58-1.27-.78-.78-1.08-.59-2.05-.58h-3.32l-.68.1-1.07.88-1.95 1.85-.3.39-.29.68-1.27 2.93-3.42 6.93-1.46 3.03-.68 1.27-.49.59-3.13 6.73-.78.59-.39.19-.58-.19-1.27-1.47-.59-.97-9.37-12.11-1.17-.58-5.47 4.78-8.1 7.22-11.32 10.16-11.03 9.86-13.18 11.61-10.35 8.89-5.66-6.35-4.29-1.66-7.13 2.15-21.47-21.38-4.4 11.91z" stroke-linejoin="round"/></defs><use xlink:href="#d" fill="#09757a" stroke="#097d9b" stroke-width="5.76"/><defs><path id="e" d="M1739.77 3093.25l-1.17-.2-3.03-.78-1.65-.68-1.37-.68-.98-.69-2.83-2.54-1.85-2.14-.98-1.57-1.46-2.92-1.86-4.98-2.34-5.96-3.03-7.81-3.8-7.81-2.25-4-1.27-2.54-1.56-4-.78-2.44-.68-2.93-.2-1.27-1.07-20.11-.2-3.52-.1-2.24-.87-12.2-.3-2.93-.29-1.96-.49-1.85-1.46-4-3.71-8.99-4.3-10.73-2.92-7.33-5.57-12.98-5.76-13.57-2.73-6.54-2.05-5.57-3.71-9.07-3.22-8.3-2.73-7.71-2.84-7.33-.97-2.34-2.64-7.71-8-20.89-3.22-6.54-6.84-9.47-7.12-8.69-23.82-52.23-.98-2.83-.58-5.86-1.17-26.36-48.03.39-1.66 2.93-3.22 5.47-1.56 1.36-2.15 2.35-10.54 8.98-2.73 1.76-2.15-.2-1.56-.49-2.35-.88h-.48l-1.18.3-.09.19.29 3.03-.68 3.51v.39l-1.47 1.76-3.41.68-1.47.88-4.29 7.23-1.57-.39-.19-.49-.88.97-5.47-.87-5.46 3.22-5.47-.49-7.81 7.22-2.54-1.75-3.31 3.02-.2-2.05 1.46-2.54 2.64-2.44 2.05-3.02 1.56-1.66.29-.3.2-.19.2-.1 1.95-.78.19-.1v-.1h.1l-.1-.09h-.39l-.19.09h-.2l-1.46.4-.3.09-.39.1-.39.39-2.24 1.47-1.27 1.07-.49.49-.58.49-.59.39-.98.48-.48.2-.3.1-.19.09-.2.1-.19.2-.2.29-.29.2-.39.48-.59.59-.39.29-.39.2-.39.29-.49.1-.29.19h-.19l-.2.1-.19.1h-.1l-.2.1-.1.09v.1l-.09.1v.19l.29.98.1.29v.59l-.2.68-.19.59-.39.78-.39.78-.2.29-.19.39-.2.49-.49 1.27-.19.29-.3.3-.19.39-.39.39-.59.39-2.44 1.66-.68.39-.1.19-.19.1-.3.1-.48.19-1.96.39-.29.1-.39.2-.29.19-.3.2-.29.19-.29.2-.2.19-.29.3-.49.49-.29.39-.29.39-.49.48-.49.3-.49.29-.88.1-.39.19h-.58l-.59.1h-.58l-.88.1h-.88l-.49-.1-.68-.19-.39-.1-.59-.2h-.29l-.29.1-.3.1-.68-.1h-2.73l-.39.1-.39.1h-.78l-.3.09-.29.2-.39.19-.49.1-.29.1-.39.19-.88.1-.78.1h-.2l-.48.19-.49.3-.39.19-.49.3-.39.29-1.95 1.27-.3.09-.19.2-.29.1-.2.1-.39.09-.49.1-.49.1-.39.1-.49.19-.48.2-.78.39-.69.39-.58.39-.59.39-.78.49-.88.48-3.02.88-.3.1-.39.1-.49.19-.48.2-.69.29-.97.29-1.27.4-.98.19-.97.1-.59.1-.49.09-.39.2-.39.1-.39.09-.39.1h-.29l-.2.2-.29.19-.2.2-.19.09-.1.1-.29.1-.2.1-.09-.1-.2-.1-.1-.1v-.48l.1-.2.2-.19.29-.2.68-.19.39-.1.49-.2.39-.19.59-.3.97-.58.59-.2 1.07-.48 1.47-.69.58-.39.29-.19.39-.3.3-.19.29-.29.29-.2.78-.29 1.86-1.37 1.37-1.07.78-.69.58-.58.78-.59 1.96-1.56 1.85-1.66.98-1.27.39-.39.78-.78.39-.39.19-.29.1-.3.1-.19.29-.29.39-.2.98-.49 1.36-.68 1.66-.98.98-.58.98-.49 7.71-2.83.49-.39.29-.3.39-.58.19-.39.3-.69.09-.58v-.39l-.78-2.05-.09-.69.19-2.44-.1-.29-.09-.29-.39-.69-.1-.58.1-.49.19-.78.1-.59.29-.68.1-.39v-.49l-.1-.19-.19-.2h-.1l-.2-.1-.19.1-.2.1-.09.29-.59 1.27-.59 1.27-.19.29-.2.39-.29.2-.29.19-.3.2-.29.19-.29.2-.29.2-.39.09-.49.39-.59.3h-.58l-.39.19-.98.29-.88.49-1.07.49-.59.29-.49.39-.78.59-.58.39-.59.29-1.17.3-.59.19-.78.59-.39.29-.29.39-1.76 2.54-.68.58-.98.3-1.95.49h-.39l-3.42.87-2.24.88-.68.49-.69.59-.78.88-.49.29-.39.1-1.46-.3-.68-.09-.49.19-1.66.98-1.08.58-.29.39-.49.39-.87.59-.69.1-.49-.2-1.07-.78-.59-.19h-.68l-.68.19-.98.2-.97.19h-.59l-.49-.1-1.17-.68-1.56-1.07-.39-.2-.39.1h-.49l-.39.19-1.56.1-.69.39-.39.39-.78.2-.58.1h-.88l-1.66-.49-1.27-.1-.88-.2-.78-.39-1.37-.68-.48-.19-.59-.1h-1.37l-.48-.2-.39-.19-.3-.1-.29-.1h-.39l-.29.2-.39.19-.39.3-.3.29-.68.68-.29.29-.49.2-.59.29-.58.1h-.49l-.59-.1-.88-.19-.97-.39-.59-.2-1.07-.68-1.37-1.17-.49-.59-.68-.68-.29-.2h-.39l-.1.2-.2.29v.2l.1.29.3.39 3.51 3.32.78.58 1.56.98 1.95.39 2.05.29.49-.09.39-.2.59-.29.58-.2.39-.1h.2l.29.1.39.1.2.2.29.29.1.29v.29l-.1.39-.19.2-.1.1-.39.1-.29.09-1.27-.19h-1.76l-1.27-.2h-1.85l-2.25-.39-2.64-1.27-.58-.39-.59-.29-.19-.2-.39-.09h-.2l-.29.19-1.37.59-.39.19-.39.3-.39.29-.58.49-.3.29-.29.29-.29.2-.39.19-.39.1-.39.1-.49.1-.49.09-.68.2-.39.19-.39.3-.3.19-.49.2-.39.19-.19.1-.39.1h-1.17l-.49-.2-.68-.39-.88-1.07-.2-.29h-.78l-.29.09-.39.2-.29.1-1.18.09h-.58l-.49.1-.29.2-.39.19-.49.2-.2.09h-.39l-.68-.09-.39-.1-.39-.1-.49-.19-.29-.3-.29-.58-.69-1.17-.1-.3-.29-.39-.19-.1-.3-.09h-.48l-.3.09-2.63 1.18-2.15 1.46-6.15-2.93-5.95.1-14.84-2.25-2.44-3.02-2.25-.78-1.95.68-1.95 4-5.57 6.06-.09 2.05 1.75 2.92 1.08 1.47 5.07 7.42 1.27 3.61.49 1.66.2.88.29.98.78 1.46 2.34 3.42.88 2.05.59.97.48 1.47.1.88.1 3.12.19.68.49.98.39.78.88.88.49.88.78 1.66.2.78.29.68.49.49 2.14 1.46.78.88.88 1.17 1.08 1.57.49 1.07.68 1.56.29.98.39.68 1.27.88.29.39.59 1.47.39.39 1.95.97.59.39.68.78 1.47 2.05.48.98.3 1.17.68 3.13.19.78 1.47 3.12.39.68.39.3.88.29.58.19.3.3.58.68 1.37 2.54 1.17 1.66.68 1.46.3.78.19.88.2 1.56.49 3.13.48 1.85.2.39.49.49.88.59 1.75 2.15 1.27 1.66 2.05 4.58.1.39-1.37-.78-1.36-1.56-4.89-7.81-3.02-10.84-4.2-4-4.29-10.35-4.01-4.39-2.73-2.64-3.42-6.24-3.61-3.62-3.51-6.34-.39-4.1-5.18-9.57-1.75-7.61-1.37-1.47-3.81-3.41-1.66-1.96-1.07-1.17-.68-.39-.88-.39-4-1.17-2.25-.88-.88-.19-1.56.19-.88.49-1.27.98-1.36 1.65-2.74 2.93-.48.49-.39.1-.59.1-.49-.2-1.27-.97-1.07-1.08-.39-.49-.49-.88-.59-.58-.78-.59-2.83-1.07-1.95-.68-3.32-1.66-2.54-1.18-1.17-.29-1.07-.1-.88.1 1.27-1.07.88-1.08 1.17-1.36.98-2.15 1.17-1.95.29-.69.59-1.36.19-1.08.1-1.17v-3.71l.1-1.36v-1.27l-.2-.98-.39-1.17-.2-.98v-.68l.2-3.32-.29-1.56-.1-.3.1-.87.09-.79.59-1.65.68-3.23.69-1.56 2.44-4.29.19-1.37.1-.98-.39-1.36-.68-2.44v-1.08l.48-2.05 1.27-3.71.1-3.9.39-2.44v-1.76l-.39-2.34-.39-3.32-.68-4.2-.69-2.54-.58-5.76-.68-4.39v-.59l.97-4.78.2-1.08v-1.85l.09-1.46.2-1.27.19-2.44v-4.98l-.39-2.44-.29-.98-.1-1.07.1-1.27.29-1.47v-5.07l1.08-3.32.58-1.96.3-.97v-.78l-.2-.78-.78-3.03-.39-.98-.59-.88-3.22-4-1.46-2.15-2.34-4.19-.69-1.96-.29-1.27-.1-1.07.1-2.24.1-3.13v-1.17l-.2-2.34-.19-1.27-.1-.39-.29-.39-.69-.49-2.05-1.08-1.95-.87-.78-.59-.68-.78-.39-.98-.59-2.05-.29-1.46-.1-3.91-.19-2.44v-2.63l-.4-1.47-.68-1.27-.49-1.07-.39-1.76-.19-2.63v-1.66l.29-1.47.68-2.54v-.68l-.19-.58-.39-.88-.39-.98-1.08-1.27-1.27-1.37-2.83-3.31-.48-1.08-.1-.39.1-.58.19-.59.68-.88.2-.49.2-.58v-.49l-.1-1.76-.3-2.54-.09-.68.09-.49.3-.88.39-.97.19-.78.1-.78-.1-.59-.19-.98-.2-.68-.29-.39-.78-.59-.59-.39-1.07-.39h-1.46l-1.76.39-.88.3-.88.48-.88.78-.29.69-.2.78-.09.98-.2.97-.19.49-.3.29h-.29l-.49-.09-.49-.4-.39-.48-.19-.69v-1.27l.19-1.75.88-4.3.1-1.27-.19-.78-.3-.68-.68-1.27-1.76-3.42-.88-1.56-1.07-1.76-.78-1.56-.39-1.07-.69-1.17-.48-.69-.39-.49-.2-.58.2-.78.29-1.47.58-2.73.1-1.66-.1-1.07v-.59l-.09-.39-.1-.29-.2-.39-.39-.39-.97-1.08-1.17-1.27-.59-.88-.68-.97-.59-.88-.68-1.07-.68-1.18-.49-1.27-.69-1.46-.19-.49-.39-.58-.29-.3-.49-.39-.69-.29-1.17-.2h-.49l-.68.1-1.46.2-1.47.29-2.54.2h-.39l-2.63-.69-.98-.19-4.98-.59-1.26-.29-1.18-.49-1.36-.78-1.27-.68-.78-.49-1.17-.39-1.47-.3-1.17-.39-1.27-.58-1.17-.49-.88-.2h-1.27l-1.75.1-1.18.1-.87.29-.59.3-2.64 1.36-.87.78-1.27 1.57-.39.29-.49.1-.88-.2-.78-.39-.68-.88-.69-1.07-.58-.69-.69-.87-.39-.49-.29-.78-.39-.98-.29-1.17-.39-1.47-.39-1.07-.78-2.44-.4-1.17-.39-.59-.68-.58-.39-.2-.68-.19-.88-.1-.68-.2-.69-.29-.78-.49-.78-.78-.88-1.07-.39-.59-.49-.58-.39-.3-.39-.19h-.78l-.68.1-.59-.1-.58-.2-.78-.49-1.66-1.26-.59-.59-.78-1.07-.68-.88-.59-.69-1.37-1.07-.39-.49-.39-.58-.48-1.27-.1-.78-.1-.98.1-.68.1-.98.29-1.17.39-1.08 3.61-6.34.39-.78.1-.69.29-1.07.39-1.17.59-1.56.39-.98.29-.68.2-.69v-.48l-1.76 1.56-2.15 1.56-.88.39-.68.1h-.78l-.68-.29-.49-.3-.98-1.07-.49-.39-.39-.2h-.39l-.49.2-.48.68-.49.78-.3.78-.09.59-.1.68-.2.69-.48.78-.39.39-.49.19h-.49l-.49-.19-.49-.39-.48-.59-.88-1.27-.2-.39-.39-.19-.49-.1-.78.19-.78.3-.58.19h-.69l-1.07-.19-.68-.49-.49-.78-.3-.88-.39-.98-.48-.97-.78-1.37-1.47-1.85-.78-.88-.78-.88-28.02 19.03-20.4 13.67-5.37 3.03-15.91 5.86-7.03 8.29-6.54 13.48-3.41 7.03-5.66-5.47-54.86 37.29-56.13 4.98-35.92 3.22h-.59l-19.72 1.76-56.12 4.98-56.13 4.98-5.66 1.56-8.4.78-5.95-.2-8.4 1.96-5.46 2.73-1.76.98-1.07 1.66-5.47 3.32-12.79 6.54-15.91 2.63-15.23.59-14.64.29-13.28-1.27-17.37-2.63-14.06-4.01-12.2-4.39-13.96-5.56-8.1-9.08-8.2-11.72-5.07-12.1-1.96-8.59-25.28-8.4-16.89-5.66-5.95-4.1-10.25-12.4-3.12-3.91-5.67-7.9-10.34-9.38-3.71-3.32-9.08-8.1-7.03-14.25-1.76-12.5-7.22-8.59-3.9-1.66-6.15-2.54-6.25-8-2.54-4.69-3.71-6.73-6.34-2.74-6.54-2.83-9.57-8.3-4-10.15-4.78-9.76-9.18-6.93-4.68-2.05-7.52-3.32-5.08-4.3-1.75-5.37-.39-6.34-1.18-12.3-14.35-43.84-1.07-5.27 1.66-3.22 2.64-3.71-.39-2.25-3.03-3.02-2.34-3.81 1.85-1.37h3.13l2.44-.58v-2.05l-1.37-1.66-1.47-1.37 25.77-56.33 1.66-4.2 26.36-63.45 9.27-23.82-38.94-12.21-5.57.1-12.98.1-1.66-.49-1.56-.68-.39-.39-.3-.3-1.26-.39h-.49l-.59.3-.29.39-.29.78-.1 3.81-.1.58-.39.59-.88.49-.68.39-.49.58-1.56 3.91-.78.87-1.27.49-.98.2-1.27.78-.48.68-.3.69-.1.58.3 2.05v.88l-.2.68-.58.78-.59.59-2.05.78-.39.29-.19.39-.2.79-.39 2.83v1.95l.49 4.2.1.78 1.07 8.49v1.37l-.39 1.17-.49.59-.59.39-.19.09-8.88 3.13-2.54.97-.59-2.05-.39-1.46-.19-1.86-.2-1.36-.1-1.17v-4.1l.1-1.66.1-1.47.29-1.56.3-1.66-.59-.49 1.85-5.46.39-4.79 3.62-7.61.88-.49.39-1.17 1.66-4.98 4.68-13.96.78-1.95.59-1.18.49-.87.48-.88.98-1.66 3.42-5.47.58-1.37.39-.78.49-1.17.39-1.17.39-1.07.29-.98.1-.59.39-1.56.2-.97.09-1.18.1-.68.1-2.05-.49-10.45-.29-4-.2-6.34-.09-1.66-.2-1.17-.1-.88-.19-.78-.29-.79-.3-.58-.29-.68-.49-.79-.58-.78-.49-.48-.49-.49-.59-.49-1.75-1.07-2.05-.98-1.17-.49-.88-.49-.88-.49-.49-.29-.49-.39-.68-.68-.59-.59-.29-.39-.39-.68-.59-.88-.48-1.17-.3-.98-.09-.88-.2-1.36v-2.05l.29-1.27.2-.88.29-.88.49-.98.49-.87.49-.79.48-.68-1.75-1.37-.49-.09-1.27.09-.88-.09-3.9-2.15-1.17-.29-.88-.49-1.17-.98-.2-.39.1-.29.88-1.56.68-.78 2.15-1.66 1.27-1.66.58-.79.69-.68 2.05-1.27.48-.68.1-.29.1-.69-.29-.49-.49-.48-.78-1.27-.39-2.15-.78-2.93-.4-.68-.68-.59-1.07-.19-2.74.09-.78-.19-.48-.2-.98-.68-.49-.29-.49-.59-1.17-3.02-2.05-5.08-1.66-4.88-.97-1.86-1.17-1.07-1.76-.88-1.95-.68-9.57-2.15-1.85-.78-.49-.49-1.27-1.27-1.76-2.15-3.22-2.34-3.12-1.66-4.59-1.07-4.59-.49-1.27.19-1.37.49-1.95 1.37-.49.19-3.31.1-.79.2-.48.29-.88.68-2.05 2.25-1.56 1.66-.59.29-2.54.39-.97.2-2.83.78 23.81-16.4-27.82-26.75-12.1-11.62.68-1.17.1-.49.1-.59-.2-1.36-.97-2.25-.3-2.24-.09-.78v-1.57l-2.93-7.9-2.25-6.06-.49-1.36-.58-1.17-.2-.79-.48-.87-.2-.59-.39-1.76-.2-1.07-.09-.39-.1-.39.19.1 3.52.48 4.59.69h.19l3.22.29 4.79.78 2.63.39 3.61.49 1.76.1h1.86l.39.19 3.12-.49 1.46-.29 2.44-.68 1.76-.69 2.64-1.26 9.66-5.67 2.34-1.17 2.25-.88 2.73-.88 2.73-.68 3.32-.29 2.44.1 2.54.29 4.39.97 17.87 6.35.58-1.66.88-2.63 2.34-7.03 1.08-3.13 29.09-87.47-19.53-4.3-19.71-2.14-41.78-4.4-61.6-2.63-59.74 7.81-14.15-.3-23.33 1.76-12.1.88-3.13-2.64-1.46-.68-.88-.29-22.16-34.85-19.03-29.88-36.8-52.81-3.52-5.76-18.35-29.87 1.27-2.06v-.68l3.12-4.88 4.49-6.25 1.08-1.46 1.07-1.66 1.27-1.76 1.07-1.46.39-.49.98-1.37.39-.49.68-.68 1.18-1.27 4.19-4.98.39-1.27 1.56-1.66.4-.29.58-.49.78-.68 1.17-.78 2.05-1.27.69-.59.97-.78.98.3 51.15 13.66 13.96 3.61 50.27 13.38 22.25-31.05 13.96-22.16 37.68-58.77 33.97-55.84 23.82-16.59 43.14-27.34 4.5-3.03-2.45-56.42-.58-12.6-.2-4.19 1.66-7.13 1.66-.1.59-.1 1.17.1 2.34.49 1.17.39 23.24-35.73 4.39 1.46 1.56.69.88.49.29.39 4.39-13.77 1.96-5.86 2.63-7.81.2-.49.68-2.44 1.66-5.27 1.07-3.02.49-1.27 1.37-3.91 1.27-4.1.88-2.24.48-1.08.79-1.27 2.92-4.29 1.66-2.64.69-1.66.97-2.44 1.95-7.12 3.52-12.6 1.46.39 8.2 2.35 7.81 2.34 4.2 1.07 3.9.98 15.82 3.32 12.69 2.83 10.83 2.44 8.01 1.56 10.93 2.34 4.98 1.37 4.29 1.37 2.64.88 5.56 1.75 7.62 1.27 1.66.3 1.46.29 6.93 1.85 18.35 3.71 8.01 1.66 5.85 1.56.88.2 1.37.39 2.05.29 1.66.49 9.47 2.44 13.95 3.91 16.31 4.49 4 1.27 15.62 4.49 8.78 2.93 12.3 4.29 5.17 1.86 3.23 1.17 6.24 2.24 3.13 1.08 4.78 1.66 3.51 1.46 1.57.69 2.83.97 2.73.68 2.44.2 4.1-.1h2.64l2.53.1h.3l1.17.2 2.34.58 1.37.49 5.46 1.76 6.74 2.53 2.44.2.78.1.59-.1 1.26-.29.4-1.86-4.4-1.85-4.29-2.05-1.17-.69-.88-.58-1.08-.59-.87-.68-.79-.59-.48-.49-1.08-.97-2.44-2.83-1.56-1.76-5.76-6.64-6.83-7.91-.78-.87-4-4.69-2.45-2.73-2.63-3.03-6.15-7.13-8.59-9.95-2.44-2.93-1.86-2.05-3.12-3.62-8.59-9.86-3.9-4.49-2.05-2.44-3.32-3.8-3.32-3.81-6.74-7.81-7.71-8.89-8.2-9.47-1.36-1.56-2.64-2.93-4.69-5.17-.68-.88-.19-.98-2.25-2.53-1.37-1.57-6.63-7.71-1.57-1.76-7.22-8.68-.58-.69-6.84-7.42-5.27-6.05-3.22-3.81-1.07-1.27-6.84-7.71.59-.49 2.05 2.44 6.15 6.74 2.93 3.51 3.12 3.62 2.93 3.41 3.71 4.3 2.15 2.34 4.88-4.98.09-.29.2-.49.19-.39.49-.1h.3l.29.1.58-.68.2-.1.29-.19h.2l.1.09v.1l-.1.29-.2.3-.68.78v.39l-.2.58 2.05 3.42 4.49 5.47 1.76.68 1.86.59 2.14-.39 2.05-1.37 3.03-3.03.1-.48.78-.88-.1-.3v-.29l.2-.58-.88-1.08-.2-.58.59.19 1.07.98.29-.1.49.1.98-.98.39-.19h.1l.19.09.2.2v.29l-.39.29-.88.98.1.29-.1.49 7.51 8.01.39 2.53 1.08-1.07 10.74-11.03-.98-1.47-.1-.39.29-.78.49-.88 5.76-6.54 7.23-8.49.29-.49 4.39-10.35 1.76-4 1.27-3.12.19-.69-.1-.58-1.85-6.93-.98-4.3-.78-3.71-.49-1.95-.58-1.46-.88-1.86-.78-1.27-1.76-2.54-1.36-1.75-.49-.98-.39-1.66-.59-4.49-.68-4.2.19-1.17.49-2.54.29-2.73v-3.13l.1-1.46.2-1.37.97-4.39.1-.98v-2.63l-.68-4.1-.3-2.05-.48-7.81-.88-6.64-.78-6.74-1.08-6.15-.29-1.46.29-1.27.3-.68.78-1.37 1.56-2.44 1.27-2.44.39-1.17.88-3.71 1.36-4.59.39-.98.79-1.76 2.63-4.1 4.2-6.83 3.71-5.86.49-.88 2.14-5.95 2.64-8.49 2.05-7.23.49-1.66 1.56-4 .68-1.76.29-.88v-.39l-.19-.19-.2-.2h-.39l-3.32.78-3.51.69-3.12.48-2.05.2-3.61.68-5.67 1.57-8.39 1.65-16.99 3.03-29.96 5.57-3.52.68-3.8.58-5.57 1.66-4.68 1.08-13.67 2.54-8.1 1.46-6.25.68-.88-6.34-.1-2.34-.68-6.94-.88-11.81v-1.07l-.39-.39-23.03 4.29-3.13.69-.19-.3v-.19l5.27-8.59 3.71-6.25.39-.78 4.2-6.74 12.29-20.89 3.91-6.64 1.37-2.24.48-.98v-.98l-.39-.48-3.61-3.03-.88-.78-1.07-.88-4.2-3.61-2.63-2.05-2.54-2.35-2.83-2.92-11.91-10.45-2.83-2.15-3.81-3.32-9.86-8.3-1.56-1.65 3.61-6.55.39-.29 4.2-6.83.49-.88.49-1.47.39-1.65.68-2.54.39-.98.98-1.17-.2-1.07-.1-1.27.3-2.05.87-4.89 1.18-7.71.87-7.61.4-3.81.09-7.61-.09-4.1-.59-7.91-.2-5.57-.19-2.34-.1-3.22-1.37.29-1.07.2h-1.17l-4-1.47-2.64-1.27-1.27-.97-1.27-1.17-.58-.69-.98-.68-.97-.29H499l-1.07.48-7.91.39-3.61.88-8.88 1.86-1.86-.2-2.44-.88-3.8-1.75-8.59-5.37-22.55-14.35-6.15-7.33-2.83-4.97 4.19-11.13 2.05-5.57 2.64-6.44.88-3.03.97-2.73.49-2.15.88-3.9.59-2.05 1.85-4.01.88-2.34.68-3.51.59-2.25 2.73-7.22 1.95-5.86.69-1.56 1.56-4.79 2.15-10.25 1.07-3.81 1.46-3.7.78-2.35.98-2.05.98-2.63.68-3.71.1-.2.88-3.71 1.46-3.51 1.07-3.71.88-2.25.39-1.37.2-.78.1-.97.09-1.08 1.76-4.88.29-1.56.2-2.34.39-2.05 1.27-4.3.78-1.56.88-1.86.78-2.53.29-1.27.59-1.37 1.07-3.32v-.58l-.19-.49.09-1.27.3-.78.39-1.08 1.07-1.66.68-1.46 1.76-5.08.1-.88v-.68l.1-.78.68-2.34.78-2.93.1-1.08.29-2.24.2-1.17.29-1.08.58-1.56 1.08-1.66.78-1.66 1.76-4.59.29-2.05.19-.48.79-1.18.58-1.26.49-1.37v-1.66l.1-.98.39-1.27.88-1.56.39-.78.19-.68.29-2.64.3-1.17 1.27-4.78.39-1.76.48-1.37.49-1.07.69-1.37 3.51-10.25.29-1.07.59-.98.68-.98.49-1.07.49-1.27.19-.97.2-1.47.19-.78.3-.78.48-.59.59-1.07.29-.88.49-1.76.2-.48.58-.98.29-.78.2-.69v-.78l-.2-.48-.29-.39-.1-.49v-.39l.1-.39.49-.59.68-.78.3-.59.39-1.27.97-3.9.88-1.76.78-1.36.49-1.18.59-1.95.19-1.27.68-1.66.49-1.07.78-1.76.39-1.37.69-2.53.29-.98.2-.39.29-.49.49-.39.58-.49.59-1.17.68-1.56 1.76-5.47 1.27-2.73 1.07-1.86 2.83-8.29 5.08 5.56.78.78 2.34 2.64 3.32 1.36 3.12 1.27 1.37 5.96-6.05 9.27 3.12 9.96 14.16 59.16 3.8 5.37 1.56 4.78 2.05 4.01 2.54 4.39 7.03 11.23.68 1.07 5.67 9.18 6.34 17.37 13.08 19.53 9.66 8.98 1.96 1.76 1.95-1.37 1.76-1.27 4-2.93 2.05-1.46 5.46-3.81 3.62-2.73 3.61-2.73 7.03-5.67 3.22-2.73 3.9-3.61 6.05-6.15 6.35-6.74 6.25-6.74 1.07-1.17 11.03-11.71 4.49-4.59.59-.68 7.22-7.81 14.64-15.43 1.08-1.17 1.36-1.37 1.95-1.95 3.81-3.71 3.22-3.03 1.95-1.85 4.79-4.49 2.44-2.25 2.15-1.85 1.95-1.66 2.05-1.56.88-.69 2.44-1.85 9.56-7.62 5.27-4.19 8.69-6.84 3.52-2.73 2.92-2.15 1.47-1.07 1.56-.98 1.95-1.27 2.05-1.17 4-2.34 16.5-9.18 3.42-.39 19.23-9.18 10.15-4.78 2.83-.88.1 1.08.29 3.71.2 4.39.39 2.05.97 3.32 1.56 5.86.79 2.83.09 1.85.2 2.54v1.95l.1 1.17.68 4.69.68 2.83 2.05 9.67.1 2.14.29 2.64.39.98 1.08 2.05.49.87 1.95 2.74 7.71 5.56 5.27 3.42 2.25 1.85 7.41 5.28 1.18.78 1.07.39.78.29 4.98 1.56 2.34.49 3.12 1.46 1.47.39-.78 13.97-2.25 40.31-1.56 28.8-.49 11.23-.39 5.76-.39 8.79-.19 8.39.09 5.86.3 6.35.29 4.58.78 7.42 1.07 8.11 1.08 5.85.58 3.62.98 4.29.78 3.42 1.07 4.1 1.47 4.68.88 2.84.88 2.63 1.36 4 1.56 4.59 1.47 3.81 3.22 8.98 3.22 9.47 3.12 8.79.79 2.24 2.53 7.23 6.35 17.76 2.05 5.86 2.83 8.2 3.81 10.94 3.61 10.64.68 2.44 1.66 6.15 1.17 3.51 1.27 4.01 1.47 4.88.87 2.54 1.18 3.02 2.63 8.2 2.73 8.3 3.23 7.81 2.14 5.17 1.37 2.93 1.66 4.1 1.27 3.32.68 1.86 1.27 3.32 1.56 4.39 1.47 4.3 1.75 5.27 7.13 20.21 9.86 26.65.97 3.22.49 1.66 1.47 4.68 6.05 17.09 6.34 17.67 2.44 6.54 5.96 14.25 2.63 6.45 1.17 2.44-.29.09-.97.88-1.27 1.08-.39.58-.3.59-1.27 3.22-2.24 6.15-1.27 3.71-.49.98-.29.58-.39.3-.49.29-.78.1-1.46.29h-1.76l-2.73.29-8.01.78-2.34.2-7.52.58-6.15.69-5.27.39-.88.1-3.61.29h-.68l-.98.1-1.95 6.93-.29 1.36-1.27 4.3-2.25 7.61-1.56 5.57-.29 1.17-.29 1.17-1.66 5.57-2.05 7.22-1.66 5.96-1.27 4.39-3.32 11.62-3.03 10.54-4.39 15.42-2.34 8.21-1.27 4.49-.39 1.36v.69l2.63.87 2.74 1.47 2.05 1.17 1.17-.29 2.15 1.27 1.46 1.27 4 3.61 1.95 2.15 6.64 9.66.1.49 4.2 6.05 4.88 6.64.49.2 3.51 4.78 3.12 4.29 9.08 12.99 6.05 8.69 6.15 8.49 25.09 33.78 1.56 2.15.39.09 2.83 3.71 3.61 4.59 4.49 5.37.88.98v.97l.3.59-.3.2-9.27 8.39-.1.1-.19.1h-.39l-3.81 3.51-5.17 4.69-16.89 15.62-7.22 6.73-3.13 2.93-4.49 4.3-3.61 3.8-.98.98 1.18 1.56 9.56 11.52 6.25 7.81 5.86 7.13.68.68 2.73 3.52 12.59 15.42 3.42 4.2 18.94 23.04 6.83 8.49 8.49 10.16 20.31 24.79 6.63 8.1 4.01 4.98 14.54 17.58 1.86 2.05 8.1-13.28 4.1-6.93 2.15-3.71 3.8-6.74 3.42-5.86-5.08-3.02 4.2-7.52 4.39-6.64-.78-.78 2.83-4.39 2.83-4.49-4.58-4 .39-2.35.09-.1 2.25-3.12.19-.1.1-.09h.2l.19.09.2.2 1.46 1.36.39.3.88.68 1.17.88 5.47 3.51.39.2.29.19-6.15 11.13-3.9 6.64-3.03 5.47-3.61 6.25-5.17 8.98-2.25 3.9-2.05 3.62 20.89 15.42 31.43 22.55 7.42 7.62 7.71 8.2 7.71 8.39 11.82 12.3 11.32 12.11 7.12 7.32 7.03 7.42 6.64 7.13 1.37 1.46.68.78-7.81 9.96-15.91 20.01-5.76 6.35-1.85 1.85-4.3 4.69-5.17 6.74-5.37 6.73-5.66 6.74-9.47 12.1-4.78 5.86-4.1 5.27-4.3 5.28-4.1 5.07-2.83 3.52-1.37 1.17-1.95 2.24-2.63 3.13 8.59 8.39 2.83 3.13 4.19 4 4.3 4.1 4.39 4.3 4.39-5.57 4.4-11.91 21.47 21.38 7.13-2.15 4.29 1.66 5.66 6.35 10.35-8.89 13.18-11.61 11.03-9.86 11.32-10.16 8.1-7.22 5.47-4.78 1.17.58 9.37 12.11.59.97 1.27 1.47.58.19.39-.19.78-.59 3.13-6.73.49-.59.68-1.27 1.46-3.03 3.42-6.93 1.27-2.93.29-.68.3-.39 1.95-1.85 1.07-.88.68-.1h3.32l2.05.58 1.08.59.78.78.58 1.27.69 3.42.29 1.07.39 1.08 1.27 2.24.68.68 2.35 1.47.68.58 2.34 2.93 2.34 2.54 1.08 1.08 1.56 1.17 1.17.58 2.05.69.78.29 1.95.39.49.19 2.15 1.47 2.05 1.17 2.34 1.76 1.17 1.07 1.66.88.49.2.39.29.49.88.39 1.17.2 1.17.48 1.56.98 1.95.78 1.37.68.68 1.37 1.47 5.37 6.05 1.66 2.54 1.27 2.15.68 1.36 2.25 5.47 2.24 4.49 2.44 6.25.49.98 76.04 26.55 9.37-12.98 4.78-6.64 2.93-3.81.88-.98.39-.29.39-.29.88-1.08 7.42-10.34 1.56-2.15 1.56 3.22.98 2.83.68 2.83.2.69 1.27 5.07.68 2.34 1.76 3.62 1.07 1.56 1.37 1.76.39.48 2.34 2.25 1.66 1.17.59.39 2.73 1.56 2.54.98 2.44 1.17-.59-.97-4-8.21.78-.48 1.27-.59-1.37-1.85-1.75-2.64-.88-1.27-.78-1.37-.3-.48-1.75-3.03-1.08-1.86-3.9-7.12-6.74-11.91-1.46-2.64-31.92-57.21-9.86-17.67-21.57-38.66-13.38-23.91-11.71-20.99-.59-1.37-.58-1.27-.59-1.37-.48-1.36-.98-2.64-.78-2.63-.78-3.03-.69-3.03-.58-3.02-.2-1.66-.19-1.37-3.61-29.38-5.57-44.42 1.56-2.25 12.6-11.81 1.75.58 6.84 7.33 7.51 7.51 12.01 12.6.98 1.27.19.48 4.49 4.69 8.1 8.88.1 3.62 22.94 25.38 34.36 40.22 11.52 11.03.19 5.96 4.4 15.03 8.59-10.45.97-1.07-8-9.76-.39-1.17-1.08-4.1-4.39-4.3-4-15.42 1.17-10.74 1.46-9.37 2.35-3.42 2.63-3.61 6.05-8.01 30.17-39.63 4.88-.69-1.27-3.61-3.12-10.25-5.18-17.48-1.66-5.56-6.44-20.7-1.76-6.05-3.02-10.45-2.54-8.98-.29-1.46 7.12-3.22 5.08-.2 5.27-2.05 3.42-1.46 1.07-.49 10.25-4 10.05-3.91 8.1-2.93 12.5-4.68 4.78-1.76.2-.1 2.44-.88 26.84-10.15.59.1.19.39 2.15 7.81 2.64 8.69.87 3.8 27.24-11.42 7.42-2.83.29-.1h.88l8.78 2.05 8.79 2.25 2.15.39 1.85.68 1.17.49 1.27.59 1.17.78 1.47 1.27 1.85 2.14 1.27 1.96 1.47 4.1 1.26 3.9 1.37 3.32 1.46-4.59 5.47-14.64 2.54-7.03 1.07-2.93.39-1.17.1-.78-.78-3.12-5.56-17.48-2.44-8.4-2.83-9.07 16.2-7.03 9.47-3.22 9.37-3.81 2.05-7.52.58-1.76.49-1.36 2.44-4.01 1.37-1.75.88-1.08 2.73-2.14-.29-1.66-.2-.79-5.85-19.33-2.93-9.56-2.74-8.79-2.73-9.27-.19-.78-2.25-6.94-4.88-17.57-2.54-8.3-4.68-13.86-2.93-8.3-6.05-18.45-1.86-5.27-2.54-8.1-1.17-3.42-1.46-4.88-8.4-24.8-7.51-22.65-6.15-17.47-.88-2.54-4.78-14.55-2.44-7.22-.88-3.03-.3-1.75v-.69l-.09-1.27-.1-1.66.19-1.95.39-2.73.3-1.95.49-2.45 3.22-20.01 2.63-15.23.88-4.98.49-1.85.49-2.34v-1.08l.29-23.23v-1.76l-.39-4.2-.39-3.22-1.37-8.88-.19-1.76-.69-6.44-.68-6.64-1.56-16.01-1.17-8.98-.78-7.91-1.86-14.35-.88-7.13-.19-.78v-.29l-.3-.69-.58-1.07-.29-.29-.3-.3-1.27-1.07-2.24-1.17 1.07-3.42.88-3.22.39-2.15.49-4.29.1-1.57-.1-2.83-.19-3.12-1.47-10.74-.88-8.49-1.27-10.25-.88-6.94-.78-9.07-2.24-18.46-1.08-10.64-3.12-24.99-.68-5.56 1.85-1.17.49-.49.78-.98 4.1-5.66.59-.68 1.07-.69 9.47-2.63 3.51.09 1.47-.19.68-.29.98-.59 2.54-1.76 1.36-.58 2.83-.78h1.66l.88.09.98.39.88.39.39.2 1.85 1.17 1.17.59.39.09h.29l.59-.29 1.17-.78 4.59-5.47 1.46-1.66 1.08-1.46 1.66-2.64 2.44-4 6.93-10.93.29-.59.29-1.37.3-.78.48-7.12.3-11.82.19-1.46.2-1.27.39-1.27 1.95-5.86.68-1.75.98-1.86 4.49-7.51.39-.69 1.07-4.59.59-1.75.29-.69 2.74-3.61 3.22-2.44 1.66-2.05 1.07-1.37.68-.78 2.44-1.85 1.18-.49 1.07-.88 1.66-1.76 1.66-2.05 2.05-2.93 2.24-3.51.78-1.07.98-.98.78-.59 1.08-.48h.68l.97.09 3.71.78 1.47.39 5.27 1.37 2.54.49 3.41.39 12.3.68 8.79.3 8.59.68 5.07.59 1.57-.1 1.17-.29.88-.4.68-.39.68-.58.59-.59.49-.78 5.37-10.64 3.22-7.03 1.85-3.22.59-.88 1.95-2.54 3.81-4.59-28.6-24.89-1.37-1.17 1.66-1.76 2.05-2.34 1.66-2.64.68-1.07 2.93 1.17 3.03 1.17 2.14.59 2.25 1.27.97.48 3.71 2.74 1.47 1.66 2.34.58 3.22 1.08 4.2-.88 3.32-.68 1.95-.88 1.37-.78 2.73-1.66.88-.88 4.1-4.3.68-1.07.88-1.37 1.27-1.56 6.54-5.57 3.32-3.22.58-.48.69-.3.48-.49.3-.58 2.54-3.91 4.49-6.34.58-.69 3.81-5.46.49-.59 3.9-6.64.98-1.27 6.44-8.29 5.66-5.57-.39-.19-.1-.39v-.39l.1-.59.29-.59.3-.48.48-.39 1.27-.88.2-.3v-.19l-.2-.29.1-.49.2-.1.97-.29.2-.3.88-1.17 1.17-1.46.29-.59 1.56-2.44 1.37-1.56.88-1.66.58-.98.59-.68.88-.88 1.56-.88.78-.39 2.25-.39.39-.19.19-.3.1-.29-.1-.68.1-.49.58-1.37-.09-.09-.39-.1-.3.19h-.09l.09-.29.39-.59.69-.39h.68l.29.98.3.2.39.09.39-.09.39-.2.68-.88.49-1.27.49-.78.19-.1.29.1.2.29-.1 1.18v.39l.2.19h.58l1.17-.1.3-.19.29-.29v-.2l-.88-.29-.19-.3v-.29l.09-.58.98-.88.68-.78.2-.1.29.1.39.48.1.3-.29 1.27.09.39.49.39.49.29.88.29.39-.09.29-.3.3-.49.29-.29.88-.58.68-.59.98-.59h.68l.19-.09.1-.2-.1-.88-.19-.39-.29-.58v-.3l.09-.19h1.47l.88-.39 1.17.19.49.2.29.58.29.69.1.78-.2 1.37-.09.19 1.85-.98 2.64-1.17 1.27-.88 1.36-.97.59-.39.39-.1.19.1.1.78 2.83-2.93.88-.68 4.88-3.13 2.05-1.07 2.25-.98 2.83-.97.39-.1.88-.1h.88l2.34.1h2.24l2.64-.29.78-.1 2.44-.49.98-.2 1.46-.39 2.93-.48 5.46-2.74.3-.29.58-.98 1.08-2.24.19-.29.3-.1 1.17-.1.58.1 1.08.29 1.27.68 1.36.3h.69l3.8-.98 1.27-.59 1.37-.78.78-.48 1.17-1.18.59-.78.39-.68.58-.88.59-.78 2.44-2.34.88-1.08 1.46-2.05 2.64-4.29 1.75-2.25 1.96-2.15.29-.48.19-.39.3-.98.09-.68v-2.15l-.09-1.27.09-.39.3-.39.68-.39 1.46-.1.59-.2.78-.29 1.46-.78 2.74-2.24 1.27-1.27.39-.78.29-1.08.39-1.85.2-.49.97-1.08 1.56-1.07.98-.68 1.56-1.27.78-.59 1.56-.49 1.66-.29.98-.1 1.95.59 2.44.88 3.32 1.95.69.49.48.19 2.83 5.76 1.76 4.4 9.18 20.79 1.95 4.39 29.58 67.17 1.17 2.73.58 1.27.88 1.86 1.37 2.83 23.04 48.81 26.06 54.77 26.06 54.86 25.09 52.72 23.91 52.04 12.79 28.01 9.37 20.7 9.67 21.09 5.95 15.91 6.54-8.79 2.93-4.1 3.9-5.27 1.47-2.15.39-.48 7.42 2.63 19.62 3.42 1.17.1 6.73-3.91 1.76-1.07 1.66-1.27 2.44-3.22 1.66-.59 2.73.29 2.93-1.65 3.22-.3 3.42-.39 1.07-1.07 5.27-1.86 4.01 5.27 2.53 1.27 2.93-.97 2.25-2.05 9.17-2.35 7.23.98 1.27.59 2.24.39 1.46.19 1.96.78 2.34.78 3.51.59 1.27-.39 3.22.49 2.35-.1 2.83-1.27 2.73-.98 3.91-2.24 2.34-2.05 1.17 1.27 3.32-.39 1.85.58.69 2.44.19 3.32 1.56 2.35-.09 1.85-.88 1.76-.39.39-.3 1.17.2 1.07-.2 1.27.1 3.52.1 1.07 2.15 4.39.09 2.54v1.17l.1 1.27-.1 7.52 7.52 4.2 2.93 2.24 2.54 12.4 2.24 8.11 2.34 8 .2 6.83-6.74 9.77-6.93 4-5.95 7.52-1.76 8.39-.29 19.72-.98 3.81-.29 2.05.98.78 1.75-.49 2.15-.29 2.34.39.98 1.37.2 1.85v2.74l-.1 2.53 1.27 3.23.09 1.85.49 2.05-.19 2.73-.3 3.13-.39 1.95-.19 1.27.68 1.37 1.47 1.66 1.36 2.92 1.37 2.54 1.76 1.96 2.83.48 2.93.78 2.92.49h2.93l1.56.98 1.27 1.85 2.54 3.23 2.05.39 1.76-1.08 1.46-.97 1.66-.49 1.86-.2 1.07.98-.49 2.34-.58 3.32.29 4.39.49 5.18.49 1.37 1.07.97 3.03-.39 2.63-.98 1.56-1.46 2.25-.39 1.76.88 1.07 1.46 1.56.39h2.34l2.25 2.54-.39 2.25-.59 3.22-.68 3.71 1.37 5.37 2.44 3.61 1.95 4.39 1.36.59 1.27 1.07v1.76l-1.66 1.85-1.17.79-.68 1.95-.39 3.12-.1 1.08-.29 3.22v1.75l-.88 2.64-3.12 6.35-.2 1.95v3.42l1.66 1.36 1.37.88 1.75.1 2.35 1.66 3.61 3.02 1.76.79 1.75.29-1.07 2.44-2.15.1-7.71 2.34-2.15.39-2.05.78-.88 2.05.69 8.3.78 3.9 1.56 1.66 2.64 3.52 2.24 5.08 1.66 3.61 2.44 4.78 7.03 5.96 1.07 1.56.1 2.63-3.03 3.81-.68 1.86.29 1.46 7.62 6.35 1.07 1.07.88 1.86-.68 2.83-.98 2.53-.1 1.57.98 1.36-.39 2.64-1.95 2.24-1.47 4.4-1.17 4.1-.29 2.44.78 2.15 2.73 4.1.98 2.44-.2 2.14-1.07 1.18-1.95 2.05-1.56.09-1.66-.19-7.33 8.2-1.75 2.93-.69 2.63.88 3.91-.09 3.03-2.05 2.14-1.18-1.07-1.56.88-1.27.97-2.05-.48-1.36-1.47-.98-1.46-3.32-1.56-.49-.2-3.32-1.07-3.41 2.34-4.59 2.24-2.64.98-3.12 1.76-3.12 2.93-3.71 3.41-2.83-.48-2.83-.49-2.74.39-4.1 1.85-1.95 2.15-1.46 2.05-1.37 1.17-1.76-.19-1.85-3.13-.2-.68-.29-1.56-.68-1.08-1.17-.58-.88.49-.88.48-2.25 1.96-2.34 1.17-3.61-.49-4.2-2.83-1.66-2.34-1.36-.88-.88-.78-1.27-.2-.68.88-.88.78h-4.69l-2.24.49-.88 1.37-2.64.97h-.58l-3.13.1-3.61-.2-.39-.19-.78-.68-.88-.49-.78-.49-.88.19-1.66.49-2.93.2-3.02-.59-4.59-.97-3.9-1.37-2.25-.39-4.59-1.56-3.32-.69-3.32.98-2.34 1.66-2.05 2.15-3.8 2.44-1.57.1-3.51.39-3.71-1.37-1.27-.39-2.44-.69-2.44-.97-.78-.29-.1-.2-1.17-.19-4.29-.59-.69-.2-.88-.09-2.44-1.57-5.17-.78-3.71-3.02-4.1-.59-1.46-.68-1.27-.29-1.08.97.3 1.76-.59 1.85-1.46.69-2.35.97-.39.49-.39.39-.68.88-1.66 4.2-1.37 2.15-1.75 2.63.19 5.66.2 2.15-.59 4.1-.1 1.08v1.36l.2 1.27v1.86l-.1 1.56 1.17 1.85v.69l-.68 3.12-.98 1.76-.39.58-1.07 1.47-1.17 2.34 1.17.1 1.46-.59.2-.09.68.09 3.61-1.07.98.49 1.37 7.22.19 3.03-.78 1.56-1.46 2.05-1.27 1.76 1.27.58.29 1.27.58 1.37.98 2.15 1.17 2.83 1.27 2.93-.68 2.63-2.44 1.56-.98 2.05.39 2.64-.88 1.76-1.95 1.36-1.76.1-1.95.39-.39.39-.19.2 2.73 3.12.49.39.97.88 1.08 2.05.09 3.13 1.96 2.14 2.63.69 1.17 1.95.98 2.34 1.85 1.17 2.45-.19 2.05.39 1.65.59-.19 2.92-1.46 2.54-.69 1.76-.49 1.17-1.07 4.1.49 3.91.88 3.61.48 4.78 2.45 2.34 3.12 4.5 1.17 1.36 1.17 1.47-.39 2.73-2.15.49-1.56-.78-.97.68-.49.39-.3 1.07-.29.98.88 3.22 1.27-.29 3.12.68 1.17.2 1.57 1.56-.1 1.27-.29 1.07-.2.59-1.37 3.12.39.88.88 1.08.69 1.27 4.19-.88.88.58-.97 3.32-1.76 1.95-.39.69-.1.29-.49.78-.49 1.37-.68 2.24.59.39 1.36.39.2-.09 1.27-.69.58 1.47-.29 2.24.88 1.76v3.42l.1 2.63-.39 1.37-.98 3.32v.1l.78 1.95.88 1.95v3.22l-1.27.49-.88.49-.39.29-.19 1.56 1.56 1.37.88.1.39.29.97.88.59.78.39 1.17.29 1.27.39 1.08.3.58.29.68.39.49.49.88.39.98.29 1.27.39 1.27.39 1.07.39 1.37.29 1.95.79 8.98-.88 4.59-1.56 2.15-1.37.78-.88 2.15-.39 2.73-.49 2.93-.29 4.49 1.17 3.9-4.98 5.57-1.85 3.12 2.24.69 1.66-.88 1.47.78 1.66 3.32 2.05 1.27 3.31-.59 2.25 1.37 1.85 2.73 2.35 1.76 2.92-.49 3.23-.29 3.51.68 4.98-.19 3.61-1.96 4.49-2.05.88-2.73 1.95-1.76 3.32-.49.88 3.03 1.17 3.81 1.56.97 1.47.39 4.29 2.05-.68 3.81.39 2.25.58 2.44-1.17 2.05.49 3.61 1.07 3.61 1.08 1.76.58.98-.19 2.63 1.07 2.74.98 2.24-1.08 2.44 1.08 1.66 1.85.68 3.61.88 2.64 1.86 2.15 3.8-.88 2.74-.98 3.02 1.27 1.86 1.47.78.78 1.95.97 2.83 1.08.88 1.95-.49 2.34 1.57 4.2.88 2.83.58 2.34 2.93 1.76 4.1 2.44 2.93 1.95 2.05-.19 2.93-.49 3.9 2.44 8.3 1.85 5.66 1.96 5.18v2.83l.68 4.39 1.17 2.93.49 3.91.78 3.8 2.54 3.42 6.05 4.2 4.88 1.46 4.1-.78 3.32-.49 3.12-1.75 3.13-.2h1.07l2.25-1.07 3.12-4.01.78-1.46 1.37-1.95 2.83-1.57 3.61-.58 1.85.78 5.08 2.44.1-.1 2.15-.97 2.63-.98 1.37-.59.97-.48.3-.1.58-1.47.2-.29.49-1.07 2.14-2.83 4.01-1.86 11.81-.49 3.02 1.08 3.22.49 1.18-1.86 1.85-.78 5.86-2.25 2.63 1.47 3.91 7.42.48 2.34.88.2.98-.1 1.27.68.78.2 1.76 2.54 1.36 3.9 3.61 4.39 3.13 5.67 2.24 3.71 1.66 2.05.59-.1.68.39 1.86 1.85 1.46.59 1.66.49.88.88.49 1.27v2.73l.48 1.07.69.59.49.29.58.29.78.1h.59l.88-.19.58-.1 2.35.88 2.92 1.85 1.08 4.59 1.27.68 2.44 1.18 1.27 1.56 2.24 2.44 1.95 3.51 2.44-.29 3.81-.49 3.51 1.17 3.91 1.76 3.9 2.05 3.52.68 2.93 1.96 2.53 5.66.2 6.44-1.17 2.74v1.95l1.56 3.12.49 5.27.1 5.28.29 5.27-1.37 3.12-1.07 2.54.29 1.85.78 4.5 1.86 3.22 1.56 2.93.78 2.63-.78 3.32-1.66 1.76-1.86 2.83-.68 4.1.39 4.98.49 5.56 1.27 6.93 2.34 5.76 3.22 6.64.2 2.93-1.37 1.76-2.34 2.93-2.15 3.61.2 2.05-.59 4.78-.1 6.54 1.66 3.23 1.47 2.05-.2 2.53-.68 3.52-.49 3.12 1.46 1.86 1.08 1.27 2.44 2.44 1.07 1.17 5.47 3.9 4.2 1.47 3.22-.59 2.34-1.07.78 1.37.1 1.56 1.56 2.63 3.12 1.76 3.03.68 3.03.78 2.53-.29 2.83-.29 3.52-.49 3.81-1.37 2.34-1.95 1.46-2.15 1.56.39 2.15-1.66 12.4 4.59 1.76 1.66-.49 2.35.58 2.92-.19 2.45-.49 3.02 1.37 1.17 1.85.78 1.37-.09 1.95.39 1.07 1.46 1.18 2.34 1.07 1.37 1.85-1.17 1.27-.1.69 1.17.78.98 2.05 1.85 3.12 1.47 4.98 1.56 2.34-1.37 1.86-1.75 1.46-2.54h2.54l1.85 1.37 1.76 2.44 1.56 2.73 1.95 3.51h3.62l1.85 1.47 1.76 1.37 3.32-.88 2.53-.59 3.03 1.66 1.17 2.05.59 5.08 3.32 2.73.09 2.73 2.35 2.15 2.63-.49 2.54-.39 1.66-.19 3.32.88 3.12-.3 1.95-1.36 2.35.39.88 1.85 1.36 2.44 2.35.39 1.46 1.27 1.07 2.05.59 2.64 3.02 2.05 3.81.29 3.81-.68 3.61-3.13 4.49-3.9 3.91-1.17 4-1.27 4.88-1.56 4.29-1.17 3.22-.4 3.62.3 3.22 1.95 2.44 1.85 3.41-1.46 3.62-.59 2.92-.09 2.64-.98 3.42-1.85 4.1-.39 3.12 1.66 2.15 1.26 2.73.79h1.66v1.85l-.39 2.15.78 2.34 2.05.39 2.54 1.27.97 1.56 1.08 2.54 1.17 3.03 2.05 1.27 1.56 2.14.49.39 2.24 2.15 1.08.69 3.02 1.85 1.86 2.64v.78l.1.97v1.18l6.24 7.32 1.96 2.34.29.49 7.12 18.55 4.79 7.12 3.9 4.69 3.03 2.73 4.78-.09 4.78 2.63-.09 3.91-1.37 4.98-.78 3.7 2.05 2.45 2.34-.2 5.27-2.34 3.32-1.66 1.66.1 2.34 2.24-.48 1.56-1.18 1.86-.68 2.15-.78 2.63-1.95 3.32-1.56 2.54-1.17 1.95.48 1.86 1.57 1.17.97 2.54-.19 3.32-1.47 3.9-1.27 3.42-.39 3.41.88 4.4 1.76 3.41 2.93 1.47 4.58.39h4.69l1.76.19.09 1.96.1 3.61-.49 4 1.66 2.44-.39 3.13 1.66 1.26 1.76 2.35 1.46 2.34 3.13 4.2 2.34 2.15 1.56 2.83 3.22 4.29.3 3.81-.1 3.71 1.07 2.54-.49 2.63-3.12.98-4.2-.29-4.29 1.36-2.34-1.07-23.33-13.28-5.18-1.85-2.93.29-7.51 3.22-6.15 7.03-2.15 1.56-5.86.79-1.66 1.36-1.46 3.03-1.76 1.66-.97.39-1.37-1.76-8.88 3.42-5.76 4.2-4.88 2.53-4.01 3.13-2.73-.69-2.83-1.56-3.03.39-7.61 7.42-2.15 3.61-1.95.69-2.15 3.61 1.27 2.83-.1 4.69.69 3.02-.2 1.86-1.95 1.76-2.44-1.66-1.95.09-4.88 3.62-2.05 4.49-.98 1.07-4.2.39-4 4-5.17.3-17.57 6.93-2.34 2.24-1.47 1.08-1.46.88-.98 1.75-.49 2.35-.39 3.12-.39 4.59-.29.39-1.17.98-1.17.39-1.27-.39-2.25-2.05-2.34-1.66-1.76-1.86-1.56-2.15v-1.17l-.1-1.56-.09-.39-.4-.59-4.1-.58-3.61.19-5.76.78-5.56 4.59-6.25 1.76-2.54-.39-1.07-3.52-.88-.68-4.88.39-2.15.98-.87.97-.98 6.25-1.95 7.03-.39.68.09.69-.48 1.07-.88.39-.49-.1-.49-.29-1.17-1.66-.78-1.17-.88-.59-.29-.68-.2-.49-2.34-1.95-2.54-.19-5.37 6.34-1.07 3.32.1 1.37-1.47 4.68-1.46 1.66-1.47 4.79-2.63 2.14-3.81 1.27-.39-.09-.88-1.18-2.14-2.14-1.27-1.27-1.37-.59-.49-.19-3.12-.59h-.59l-1.17.2-1.27.97-.39.59-.39.78-1.66 2.83-1.07 1.27-.78.58-1.08.49h-.78l-1.07-.19-1.07-.3-.98-.58-2.15-1.56-1.07-2.25-1.47-.97-1.46-.49-2.73.49-1.57.29-1.26 1.27-1.27 2.44-.3 1.07.1 2.44-.29.88-.39.68-.49.79-.59.68-.87.58-1.08.69-2.05.68-2.24.49-.98.49-1.27 1.17-1.27 1.46-.97.59-2.54 1.07-6.15 1.96-2.93.48-2.83.1-2.25.39-3.61 1.66-18.45 11.13-2.24 1.37-1.95.88-2.93.68-5.08.88-6.05.29-4.69-.19-3.61.48-1.75.79-1.18.78-6.63 9.17-5.86 9.18-1.27 1.37-1.07.78-1.66.88-1.86.48-6.44-.68h-1.85l-8.11 2.73-4.39.49-1.95-.19-12.69-2.25-5.66-1.46-1.56-.88-1.37-1.27-3.81-4.39-1.75-1.57-3.23-1.07-6.73-1.85-3.71-.2-3.32.29-3.71.69-7.81 2.53-5.86-2.34.1-.39v-.29l-.19-.29-.2-.1-4.98-2.64-6.24-3.02-1.47-.49-1.56-.3h-1.37l-.97.1-.69.39-.97.98-.68.19-2.25.2-3.42.1-3.22-.1-1.75-.29-3.32-.78-3.22-1.18-.88-.39-2.25-2.63-.58-.39-.39-.1-1.27.2-2.83-.49-4.98-1.08-1.86-.88-.88-.09h-.58l-3.03.88h-1.07l-1.08-.2-2.05-.49-1.17-.1-.58.1-.69.29-.78.49-.87.98-.59.78-7.71-1.46-4.79-1.18-2.53-.58-14.74-3.13-1.37-.09-.88.19-.68.3-.68.58-1.37 1.76-.68 1.17-1.18 1.95-.68.78-.78.59-19.23 8.69-3.61 1.85-1.56.98-2.15 1.66-3.03 2.93-1.36 1.07-.78.39-1.57.49-1.85.29-1.07.1-7.52-.29-1.76-.2-.97.2-1.08.49-.78.48-.68.69-.49.78-.39.97-.29 1.08-.3 1.95-.09 1.86-.49 1.46-.49.98-.59 1.07-6.44 8.49-1.46 1.37-1.08.78-.68.29-.78.3-6.25.88-9.37 1.65-21.86 3.71-6.25 1.08-10.15 1.85-12.01 2.25-1.37.1h-.97l-3.22-.2-8.01-1.17-13.08-1.37-5.17-.58-12.11-1.47h-1.27l-4.39.78-18.06 3.81-7.02 1.37-12.6 2.63-10.73 2.05-32.12 6.94-32.21 7.22-14.16 3.12-28.69 6.25-14.16 3.03-.39-4.2-1.56-11.32-.98-6.25-.48-2.15-.98-3.12-1.07-3.23-3.62-11.81-.29-.88-.29-1.66-.29-.58-.98-1.76-6.64-12.11-.78-.78-.39-.09-.29-.1-.39.19-1.76 1.76-4.88 4.69-2.44 2.05-1.08.29h-1.17l-5.95-.98h-.88l-.29.2-.88.49-.68.68-2.35 2.25-3.61 3.71-1.56.87-.68.2h-.69l-1.17.19-4.29.2-4.59.29-1.56.2-1.08.78-1.75 1.56-2.15 2.05-1.76 2.15-1.17 1.76-10.84 3.02-43.24 11.91-45.78 12.01-17.28 3.91-1.85.39-7.42 1.36-2.44.78-3.12 1.18-4.2 2.34-3.03 1.56-3.61 1.56-1.07.49-.39-.39-.2-.29-.19-.39-.39-.78-.69-1.66-1.46-2.25 2.05 4.98 9.76 25.19.68-.59.59-.49 3.42 7.81 3.02 7.42 6.54-3.41 7.13-3.42 24.99-5.37 10.25-6.83.58.19 1.08 2.64-.49 2.24-16.21 14.45-12.3 11.62-4.29 4.59-5.57 5.66-1.85 2.24-.29.3-.2.09-.1.1h-.19l-.2-.1-.09-.09-.2-.2-.19-.39-.39-.88-.2-2.83-.68-7.71-.2-.68-.39-.39-.58-.2-.69.1-.68.58.39 1.37.78 3.91 1.07 5.07.1.68.2 2.35.58 1.95.1.59 1.56 5.56.78 3.03.98 3.22.88 2.54.97 2.44 4.01 10.44 2.05 5.37-1.18 1.27-.19.2-1.07.97-.69.59-8.59-20.89-.88-2.25-1.75-1.27-1.17-.68-.69-.49-.49-.29-.29-.29h-.88l-.78.19-2.83.68-7.91 4.2-5.36 4.79-2.84 5.07-1.17 2.54-1.27 1.76-1.66 1.66-2.05 2.05-1.46 1.17-2.54 1.66-2.24.29-2.05-.29-1.08-.88-2.05-1.76-1.46-1.56-1.66-3.42-4-10.34-6.74-5.76-2.83.29-32.31 12.49-9.76 2.54-1.07-.68-.59-2.05-24.99 9.76-27.72 10.64-10.54 3.91-2.15.49-2.25.29h-2.63l-3.12-.49-3.03-.88-2.15-.88-1.17-.68-1.56-1.07-1.66-1.27-25.77-25.19-4.59 16.89-.97 3.81v1.95l-.88 13.47.39 5.96 3.71 5.76 2.05 9.08-.1 3.22.68 2.05 3.42 7.61 11.91 11.33 5.56 10.83 1.76 6.74 1.27 8.1 2.93 19.04v8.2l-.59 2.05-2.15 4.2-3.02 5.66-.3 7.42.69 1.17.29 4.3 1.85 13.76 4.49 10.74 2.84 11.81 2.34 2.54 5.86 2.34 3.12 2.93.88.88 5.85 5.76 3.23 2.44 4.88 1.37.68.19 2.24 1.76.98 1.56 2.05 3.42 4.49 4.49 1.37 3.22 5.76 6.54 10.64 5.96.68 1.56.88.2 2.44 3.31 3.32 7.03 4.1 5.47 3.51 2.54 3.91 1.85 8.88 3.42 2.54-.49 6.73-4.2 4-1.56.49-.49 1.27.39 4.1-1.36 4.98.49 3.9 3.12 7.91 2.73 7.52 5.37 3.22 6.54.49 3.81.58 2.25-.29.88.39 2.34-1.37 7.03-1.75 3.9-.2.2-6.54 8.2-5.37 3.81-1.27 1.75-3.9 10.84-.1.39-1.66 2.93-1.95 5.95-.1 2.25.29 1.76-.39 4.68.3.59-1.66 7.52.49.48-.3 1.27.88 6.35 2.44 6.73 4.78 6.64 3.13 5.96 1.56 4.68.49 6.15 1.36 3.81 1.57 1.56.48 1.47 2.54.97 2.25.88 3.61 3.42 3.32 4.2.39.29 3.61 3.03 3.32 7.12-.88 7.91-.68 5.66 8.39 7.91 4.1 4.3 5.18 5.66 1.56 3.32.09.29.69 1.76 1.36 7.52.4 7.71-.2 3.9-.59 1.66-1.26 3.03-.69 2.05-.49 2.15-.29 4-.49 5.17-.29 2.74-.1 2.53.3 4.69.29 3.71.1 2.73.39 2.35.58 2.05v1.07l-.39 3.32.68 4.98.79 4.88.29 4-.29 6.54-.1 1.76-1.47 10.45-.97 5.56-.39 4.98.09 6.05.3 6.54.68 4.98 2.44 10.06 1.27 3.51 1.76 2.35 3.12 3.51 1.86 2.25 1.26 1.75 1.66 3.42 2.05 3.42 1.18 1.27 1.36 1.36 1.95 1.66 2.44 1.66 4.2 1.47 1.08.78.97 1.27 1.08 2.34 1.36 2.44 1.47 1.66 1.75.98 1.47.29 1.85-.2 1.76.3 3.22 1.36 4.78 2.54 5.18 2.54 5.07 2.83 10.16 5.57 4.09 2.05 2.35 1.75.58.59.88 3.61 12.3 14.74 3.42-4.59.49.2 1.07.29 1.17-.39 1.47-.68 2.53-.88h1.56l2.05.39-5.95 8.2-4.29 5.56-.1.2-3.61 4.98-3.32 4.2-1.37 1.36-1.37 1.08-2.05 1.07-17.76 7.81-11.62 4.98-4.59 2.25-6.34 3.02-9.27 3.91-3.52.78-1.07.1-.69.09-1.85-.09-.49-.1z" stroke-linejoin="round"/></defs><use xlink:href="#e" fill="#004249" stroke="#00465f" stroke-width="5.76"/></svg>