<svg width="384" height="5.03in" viewBox="0 0 2880 3619" xmlns="http://www.w3.org/2000/svg" xmlns:xlink="http://www.w3.org/1999/xlink"><path fill="#fff" d="M0 0h2880v3619H0z"/><defs><path id="a" d="M1549.02 3257.21l.57 3.62-1.7-1.58-1.24-1.02-11.65-8.37-2.72-2.15-1.24-1.13-1.7-2.15-2.6-3.39-1.92-2.15-1.92-2.15-1.93-1.47-.9-.56-1.02-.45-5.2-1.93-6.79-2.26-8.37-3.17-1.47-.9-.9-.45-.68-.46-5.31-4.18-9.62-8.71-8.14-7.01-3.17-2.49-3.5-3.05-3.17-2.94-2.94-3.17-2.03-2.49-2.61-3.39-1.13-1.24-1.47-1.25-1.69-1.35-1.25-.68-.68-.34-1.69-.45-4.19-.68-3.84-.91-5.32-1.36-5.65-1.69-3.06-1.02-2.03-1.02-2.15-1.58-2.6-2.26-1.92-1.36-1.59-.9-14.81-7.58-1.7-.68-6.67-2.15-2.15-.45-3.05-.45-1.81-.8-4.53-2.82-1.35-.79-3.73-1.93-2.04-1.24-5.99-3.28-2.49-1.13-.79-.68-.57-1.02-.68-1.58-.22-1.36-.46-2.26-.9-1.81-.68-1.13-1.13-1.13-3.05-2.6-1.7-1.25-1.13-.68-.68-.22h-3.73l-3.17.34h-4.3l-2.82.11-5.54-.11-1.93-.12-1.35-.11-2.49-.68-9.62-3.73-2.82-.79-1.47-.57-3.74-.79-2.82-.22-4.07-.34-2.15-.46-.34-.11-.91-.45-.79-.23-1.02-.11-.9-.11-2.26.22-4.98.91h-4.18l-3.4.34-5.65.9-3.17.34-8.7 1.47-6.34 1.13-5.99 1.58-4.86 1.02-1.14.45-1.35.68-5.21 3.06-2.71 1.69-1.24.91-3.4 2.6-2.14 1.24-1.02.34-1.59.57-1.47.22-1.58.23-8.03-.11-39.81-45.92-.22-.34-3.4 6.45-8.7 16.4-2.15 4.29-1.02 1.93-1.47 2.26-1.13 2.37.45.34 1.02 1.81.68.91 5.09 3.84 1.01.57 2.27 1.36 1.47.45 2.14.11 1.59-.11 5.2-1.02 1.24-.11 2.49.11 2.6 1.02 3.06 1.35-.68 4.08-.68 2.03-.45 1.13-4.75 9.28-4.53 10.06-2.15 5.2-1.58 4.3-1.47 3.51-.45 3.05-.11 2.26v1.93l1.69 15.04.68 4.52.34 4.19 1.47 11.08 1.58 9.5 1.36 9.95 1.13 9.39.79 7.01v4.86l-.22.68-.34.79-1.36 2.15-5.65 7.8-1.36.91-.68.34-.79.23h-.23l-3.73-.23-2.15-.57-4.18-1.35-5.2-2.04-2.83-.56-1.92-.12h-1.36l-1.36.34-4.64 1.47-11.64 3.73-3.28 1.13-3.62 1.02-4.98 1.02-4.18 1.24-6 1.59-2.94 1.02-.68.33-1.13.8-2.82 1.69-2.38 1.13-1.24.68-8.26 4.07-1.02.46-2.37.56-4.86.45-4.64.23-8.71-1.02-3.73.23-.34-1.58-.57-3.06-1.13-3.96-1.58-5.09-3.17-9.61-5.88-18.55-2.03-5.99-3.74-13.01-.9-2.94-2.38-5.43-.56-1.01-1.47-2.72-1.13-1.92-.79-1.24-5.77-8.6-1.58-3.84-.57-2.04-.45-1.81-.34-1.81-.45-3.84v-2.83l.11-2.15v-2.38l-.11-2.94-.12-3.16-.68-5.32-2.48-19.34-1.81-11.87 3.96-.34 5.08-.45-.9-4.3-.23-.57-.11-.45-.23-.9-.22-2.15-.12-1.25-1.13-10.51-1.24-11.54v-.34l-.9-8.93-.57-6.11-1.58-14.59-3.51-32.12-5.54-53.26 53.72-2.83 79.39-3.4-11.08-105.51-1.7-16.4-2.6-24.99-2.72-25.11-2.6-24.43-2.15-20.24-.45-3.96-11.31-15.95-5.09 4.53-7.35 7.69-4.18 4.86-7.81 10.07-4.18 5.31-5.2 6.33-8.03 10.41-4.3 6.56-11.65 17.98-2.94 4.07-2.6 3.51-3.17 3.96-2.6 2.94-1.69 2.03-5.21-4.64-2.48-2.26-1.25 3.62-2.03 5.54-14.37 1.47-15.26 1.7-.23-1.7-3.96-36.53 7.47-19.45 47.04-4.97 4.07-17.99-62.2 6.45-2.03-19.23-1.59-13.11-2.14-.46-10.75-3.39-2.03-.9-1.47-.8 1.24-2.82 3.28-7.58 3.17-6.79.34-1.81v-2.6l-.57-5.54-.68-4.18-.56-2.83-2.94-10.86-1.7-5.65-1.7-4.98-1.69-4.3-.57-1.13-2.6-4.97-2.83-4.64-2.26-3.39-1.7-2.38-1.35-1.69-3.62-4.41-1.25-1.81-1.35-2.04-.79-1.47-.46-1.13-.9-2.94-.45-1.58-.68-4.53-.34-1.58-.23-.45 10.29 2.71 10.86 2.49 3.85.56 3.95.68 1.47.23-3.95-31.22 10.85-25.89 17.64 7.23 5.21 2.15 26.8 6.34 10.29-1.25 19.79-2.49 28.95-8.03 19-7.12 22.51-9.61 21.37-4.19 14.37-.34 8.36-.9 10.97-1.13 22.85-9.16 14.47-20.93-1.47-21.26-8.59-22.96-9.5-16.96-4.52-7.35 9.61-8.03 4.75-4.3 2.26-4.63 2.26-8.37-7.91-44.68-7.35-56.54.79.9.45.57.79 1.58.45.68.91 2.71-1.02-14.58-.11-2.83-3.28-6.79-7.24-63.67-1.58-15.49 1.69-.12 1.36-.11 3.39-.34 3.85-.34 3.16-.34 1.36-.11 2.26-.23 6.34-.68 3.05-.22 3.51-.34 5.08-.57 7.47-.79 5.54-.56 1.47-.23 1.02-.11-.45-7.01-.46-6.34.23.12.57-.12 2.14-1.24.46-.34.11-.34.11-.34 1.02-.57.23-1.69v-1.47l.22-3.39-.79-.8-1.13-1.35-1.36-1.47-.79-.91-2.26-2.49.9-1.81.46-.67.45-.57.11-.11.68-.23 4.07-.79-5.09-3.39-.11-3.74-.34-26.01 9.16 11.43 1.92 2.48 2.72 3.28 5.77 3.96 3.95 2.94 3.28 2.72 2.04 1.47 1.92.9.79.34 1.47.45 1.25.23 2.37.22h1.81l2.04-.11 2.6-.34 2.26-.9 2.26-1.36 1.25-.9-1.93-15.38-1.13-8.94-2.6-21.94-3.73-31.21-2.94-24.43-.91-6.67-.56-3.17-.57-4.52-.11-2.15-.23-1.81.46-.68.11-2.38 3.96.34 7.58.68 12.66.91 4.41.22 2.6-.11 1.7-.23 11.42-2.03 25.22-5.43 6.22-1.13 12.33-1.25 4.86-1.01 8.94-1.93 1.47-.22 6.67-1.25 4.75-.9 5.99-1.25 9.5-1.8 10.41-1.93 2.6-.56 14.13-3.17 3.28-.79 10.41-3.17 1.47-.56 2.83-.23 4.63.45 10.86 1.93 14.02 2.37h.23l1.92.45 3.28-6.1 7.01-11.09 1.25.57 4.29 1.36 3.28.67.12-1.35.45-.12 40.26-3.62 24.88-2.71-1.58 2.04 8.59-.68-.56 2.6-.91 4.64-7.58 24.31-9.04 9.95-1.93 2.15-5.99 6.45 4.64 2.26 1.81.9 9.5 4.19 7.57 3.62 3.17-9.84.57-2.15.34-1.7-.23-1.92 11.65-7.69 3.62-2.49 4.41-2.82 1.47-.57 4.07-1.02 1.47-.11 1.69 15.49 12.78-.68 2.04 20.02 8.14-2.94 26.81-7.24 2.48 9.16 16.18-3.73 10.51-1.47 44.22-12.55 4.19.22 11.76-53.6 2.03-3.39 44.68-6.23 3.61.68-.11-1.81.23-2.48.9-5.88.34-1.93.45-4.75.91-3.73 1.13-2.83.45-1.81.11-.68-.22-1.69-.79-4.86-.12-.8-.34-1.69-.11-1.02v-1.13l-.22-4.3-.12-4.18-.11-3.28 16.17-2.6 1.92-.23 2.49-.45 1.47-.23 1.13-.9 4.64-.57 4.07-.34h9.73l1.69 4.41 1.81 5.66 3.06 10.63 1.81 4.86 4.29 11.2.46 1.69.33 2.27.23 2.37.91 9.95.56 9.16.57 5.88 12.21-6.44 3.39-1.59 1.93 16.74-4.98 3.28-1.92-4.52-7.58 5.99.79 2.6.23 2.04.22 2.71.12 2.72v.68l-.23 2.03-.23 1.25-2.71 9.72-1.81 7.24 15.38-1.13 16.4-4.75 5.65 20.13 3.62-.45 5.88-.23 3.51.23 2.15.56 2.37.68 9.62 3.28 4.07 1.25 4.63 1.47 3.06 1.13 8.93 3.39 3.17.79 4.75.57 3.17.11 2.82-.11 6.11-1.25 4.75-.9 5.99-1.13 21.15-3.17 17.08-2.38-.11-8.7-.34-11.09-.12-6.78-.11-3.85-.34-7.46-.11-6.33-.23-5.55-.22-1.81-.57-2.03-1.24-3.17-.12-.68-.11-1.47 1.02-7.01 1.02-4.41.79-2.04.68-1.47.11-.45.11-1.13-.22-2.94-.12-2.03.34-1.7 8.26-.91 9.27-1.13 6.45-.79.9-.34.57-.34.56-.56.46-.68.45-.68.11-.79.11-1.36-.11-1.69-.45-5.09.11-4.19 3.28-.45-.9-6.45 35.51-5.2-1.47-9.39 2.03.23 4.64 36.08 17.53-.68-.45-28.5 3.5-.68.79 28.61 6-.56-1.36-51.12h6.79l-1.13 32.57 3.27.9.8 16.4 90.36-7.8 45.8-6.22 8.82 1.47 2.83 8.14-.45 2.94-.46 4.87-.34 2.37-.79 2.94-.56 1.7-1.81 3.73-.46.79-1.35 2.49-1.13 1.58-.57.57-2.03 2.03-.8 1.02-1.81 3.28-2.37 5.2-.68 1.47-1.47 3.28-2.49 4.87-1.13 2.6-.56 1.58-.23.91-.11.79-.68 7.12-.23 2.15-.9 12.1-.79 10.52-.68 11.31.22 2.49.23.68h1.13l4.07.45 4.3.22 2.71.12h1.81l2.15.56 3.06 1.25.79.45 1.13.68 6.9 3.5 3.28 1.59 1.24.68 1.81 1.24 1.24 1.13 4.64 6.67.68 1.25 1.92 3.16 1.25 2.04 1.01 2.49.8 2.37.79 2.6.56 2.04 1.59 12.44 1.01 7.13.91 8.02.68 7.92 5.09 1.92 3.61 1.25 2.83.68 2.6.34 4.19.33 5.99.34 8.94.68 8.7.91 4.41.22 2.27.34 2.6.46 2.49.56 2.82.91 3.28 1.24 3.73 2.15 1.81 1.24 1.47 1.25 1.47 1.47 1.25 1.35 1.13 1.59 2.83 3.28.9 1.24 1.7 2.6 4.41 7.69 5.65 8.94 2.04 3.73 3.16 4.52 1.25 1.47 2.71 2.83.91.68 1.13 1.02 2.15 1.58 2.6 1.81 2.94 1.7 2.94 1.35 3.62 1.7 3.73 1.47 1.02.45 6.11 2.26 6.33 2.04 5.77 1.24 2.03.23 2.26-.11 3.17-.34 8.71-1.81 2.15-.12h.9l1.36.34 1.02.46 8.37 6.33 1.69 1.13 1.36.79 1.36.57 2.26.56 4.63 1.02 17.19 3.39 10.97 1.93 9.84 1.92 3.62.56 1.92-.11 6.68-1.13 11.08-1.7 10.4-1.35 14.93-2.49 4.98-.34 1.92.11 1.7.34 2.03.57 6.79 2.03 1.81.46 4.3.9 3.62 1.36 1.69.9 4.53 1.92 1.47.46 1.35.34.68-.12 3.73-.9 4.53-1.47 5.99-1.92 3.62-.8 2.71-.45 8.15-.68 1.69.12 1.25.34 2.6-1.59.56-.34 1.13-1.35 1.81-2.49 2.15-3.06 2.83-3.39 2.94-3.17.79-.56.91-.68 1.35-.79 1.59-.79 4.18-1.59 4.75-1.47 1.36-.56 1.24-.68 1.47-.9 1.25-1.14 1.24-1.35 1.7-2.26.56-.91.34-1.02.45-1.69 1.13-7.47.12-.45.68-3.62.45-4.3v-5.2l-.34-4.3-.57-4.41-1.81-10.29-.22-2.83.11-2.03.45-2.38.68-1.69.79-1.25 2.61-3.28 1.35-1.47.91-.68 1.81-1.35 3.05-1.36 1.7-.68.79-.22.9-.12 1.25-.11 2.37.34 4.19.9 1.81.12h1.35l5.09-1.36 1.59-.57 2.6-1.13.9-.22.91-.23 1.24-.34 1.24-.79 1.36-1.24 6.33-6.79.91-1.13.79-.68 3.05-2.37 2.94-3.51 1.59-1.36 1.02-.79 1.13-.68 1.01-.34 1.02-.22 6.22-.8.91-.33.45-.34.34-.46.56-.9.46-1.25 1.92-6.67 5.99-24.09 2.38-9.38.9-3.74.45-1.69 2.38.56 1.24.23 10.18 1.92 1.92.45 3.85.8 9.73 1.92 8.48 2.03 39.35 7.92 8.26 1.58.9 14.71 8.71 124.17 8.6 123.39-27.6-5.2-32.45-6.22-11.09-2.15-5.54-1.13-81.76-9.96-87.88-9.04-88.89-7.81-88.66-9.38-152.56-16.29-1.7-.34-53.83-10.18-20.81-7.57-35.74-8.82-37.09-9.17-21.94-7.12-35.06-10.86-39.58-12.55-2.6-.91-.79-.22-3.85-1.25.23 2.94.11.91.11 1.24 2.94 34.84 2.94 33.81-58.13 5.43-30.19 2.94-24.2 2.26-21.38 2.04-28.16 2.6-26.57 2.6-28.73 2.71-30.65 3.17-23.18 2.6 7.12 73.17-136.05 15.61 5.43 50.1 7.35 66.95 10.75 96.58 2.71 24.66 2.38 22.96 2.37 22.5 2.38 22.06 2.48 23.07 2.38 22.5 2.26 20.59-28.61 3.05 7.69 7.24 1.7 1.81 1.69 2.37 2.04 3.39 2.15 5.09 1.58 4.75.9 3.74.46 3.28.34 4.52v1.92l-.12 2.6-.22 2.15-.46 2.38-.33 1.69-.91 2.72h-.57l-1.35.22-1.25.46-3.95 1.92-3.51 2.26-3.28 2.49-6.67 5.65-5.43 4.19-1.13.9-2.94 3.06-1.25 1.47-3.16 4.63-1.93 3.4-2.37 3.62-2.04 2.48-.79 1.02-1.69 1.36-2.04 1.24 1.13 4.75.68 4.64 1.02 3.28 2.26 4.64.11 5.42-3.96 7.24-4.07 4.41-2.15 6-5.76 3.62-8.26 4.07-3.96 4.75-.68 7.46-.56 4.52-1.36 5.43-3.96 3.51-1.13.68-.9.22-2.38.57-1.01.11.45 4.98v2.15l-.23 3.16-.45 2.61-.79 3.73-1.02 3.28-.79 1.92-.45.9-4.64 6.79-.68 1.13-2.6 2.94-5.54 6.45-.34.34-1.7 2.15 1.25 5.09 3.16 12.21 2.72 11.99 2.6 11.42 2.71 11.2 5.09 20.58 1.7 7.12.68 3.17.45 2.94.11.34-.68.23v-.46l-.68.23 2.15 12.21.34 2.15.68 4.64.57 3.96.67 5.65 1.36 13.12.12.45 2.03 22.4.34 3.16 2.38 25.34 1.69 19.9 1.47 15.38.34 3.39-6.9-1.35-.79-.34-.79-.57-1.81-1.35-2.38-1.36-1.35-.68h-.79l-.57.34-.79.68-.79.79-1.02 1.24-.68 1.25-3.39 6.9-.79 1.24-.12 1.02v1.36l-.22 1.8-.91 4.19-.22.56-.57.57-.79.11-6.56.79-6.22 1.02-5.09.57v2.49l.11 2.14.46 4.42.9 4.29z" stroke-linejoin="round"/></defs><use xlink:href="#a" fill="#9dc8ca" stroke="#9dd7f0" stroke-width="5.76"/><defs><path id="b" d="M82.78 2425.41l-11.19 5.43-.12-16.51-2.26-15.05H57.45l-23.64 2.27-4.41-52.59-.11-2.38-1.02-10.85-.11-1.14 21.37-1.47v2.72l8.49-.68-.57-5.54 14.36-.91-1.58-20.69 30.76-2.72-6.22-69.1 1.58-12.89-.67-4.07 1.01-12.78-1.81-7.13-5.88-8.82-1.35-1.92-1.7-11.54-.57-2.94v-7.12l5.66-.23 4.86-.56 4.07-.23-1.13-12.33h.23l-1.81-20.24 6.56-.34-1.7-28.95v-3.51l-.22-5.54 1.58-3.5 1.02-1.93 3.16-6.67 8.94-19 9.05-18.89 1.01-2.14-.9-3.06 1.13-2.26.79-1.7 2.6-5.42.79-1.93.57-1.02.34-.9-2.38.34-6.22.45-4.41.45-4.41.46-3.62.22-2.6.12-.79.11h-.57l-2.48.22-1.81.12h-1.25l-3.84.45-3.06.34h-1.01l-5.77.57-5.43.45-8.37 1.13h-.22l-1.81.34-4.75 1.02-1.13.22-3.62-44.9 38.56-3.16 26.13-3.4 20.01 8.71 1.36.68 1.02-2.6.79-2.15.68-2.15.11-.68.34-.79.34-1.58.56-2.04.57-2.71.68-3.51 1.24-6.44.79-3.85.34-2.03.34-1.36.57-2.38.9-3.5 1.02-3.28.45-1.25.68-1.69.91-2.15.34-.79.67-1.59.34-.45 5.43-8.71.79-1.35.57-1.02.79-1.36 1.02-1.24.9-1.36 1.47-1.81 1.81-2.37 2.38-2.72 2.71-3.17 2.26-2.6 2.38-2.94 1.36-1.92 1.24-1.7 1.13-1.58 1.02-1.58 1.13-1.93 1.58-2.71 1.47-2.83.68-1.47 3.06-6.56 1.24-2.6 1.24-2.49 2.27-4.75 2.14-4.63 2.61-5.43 1.24-2.94.11-.45.91-2.15.79-2.26.56-1.81.57-2.15.45-1.7.45-2.03.46-2.38.34-2.37.11-2.49.23-2.38v-3.05l1.69.34 6-2.72 17.3 13.8 9.61-23.3.68-4.18 1.36-7.01-.12-2.26-.11-4.3-.79-2.04-.45-1.69-.46-.91 8.83-11.53 2.82-9.96.68-1.69.68-1.81 6.33-16.29-.34-.56-.22-.57-.12-10.63 1.36-5.54 7.81-13.23.11-4.98-1.7 3.85-9.84-3.62-1.58.22-75.09 9.16-.91-2.03-.79-1.7-1.7-3.62-.56-1.24-.57-1.13-.45-1.02-.45-1.24-.45-1.36-.68-1.81-.46-1.58-.45-1.59-.34-1.35-.45-1.36-.45-2.26-.23-1.25-.22-1.13-.23-1.13-.23-1.58-.22-1.81-.12-2.04-.22-3.05v-5.88l.11-1.47.23-2.15.34-2.26.22-2.27.46-2.48.56-2.38.45-1.58.34-1.25.45-1.58.46-1.47 1.47-3.84 1.13-3.4 1.36-3.73 1.47-4.07 1.24-3.62 1.13-3.05 1.24-3.4.8-2.03.56-1.59 1.13-2.71 1.13-2.94 1.25-2.6 1.69-3.51 1.7-3.28 1.47-3.05 1.7-3.05 1.92-3.06 1.47-2.49 1.58-2.6 1.81-2.6 1.81-2.71 1.81-2.49 1.58-2.15 2.49-3.05 1.7-1.92 1.81-2.15 1.69-1.93 1.59-1.81 1.58-1.69 1.92-1.81 1.7-1.81 2.15-1.92 6.11-5.77 3.95-3.51 7.02-6.44 3.39-2.94 3.5-3.4 4.19-3.96 5.88-5.65 3.84-4.07 3.96-4.07 6.9-7.13 2.04-2.15 8.14-8.59 7.92-8.48-2.6-4.98 4.29-4.07 3.06-2.94 3.62-3.17 3.05-2.71 2.26-1.92 1.02 5.31 6.22-5.65 5.2-4.64 4.19-3.51 3.05-2.6 5.65-4.75 4.3-3.62 5.54-4.52 6.9-5.77 10.41-8.71 5.65-4.63.45-.34 20.58-17.19 4.98-4.07 4.75-3.96 3.51-3.06 2.94-2.71 2.71-2.83 2.83-2.83 2.6-2.94 2.6-3.05 2.6-3.17 2.49-3.16 2.37-3.28.57-.91 1.81-2.48 2.15-3.4 2.15-3.5 2.15-3.62 2.03-3.73 2.04-3.85.34-.68 3.28-7.01 24.76-52.82 8.82-18.54 7.69-16.63 7.13-15.26 3.51-7.81 2.82-.56 9.05-1.59 3.85-3.84 1.58-1.36 1.58-1.7 1.81-2.26-.9-8.48 6.22-.57 24.54-2.82-2.72-26.24-.56-5.2-1.13-9.84-2.38-41.62 1.36-3.39 1.24-3.06 1.25-2.82 1.58-3.28 2.15-4.08 1.47-3.05 9.39-16.62 2.48-4.53 10.3-18.21 1.47-2.71 1.35.91 13.01 29.29 74.64-130.51 51.12-100.77 90.47-149.06 69.1-121.23 6.33-10.97 7.81-16.63 8.25-18.66 7.13-15.27 1.24-2.37 11.08-25.79 16.74-27.14 10.63-19.23 2.49-3.84 3.96 2.26 1.69 1.02 4.98-1.36 4.52-1.47 2.27-.11.56 3.39 2.15 4.41 7.12-1.36 23.87-34.6 2.94-.79 2.03-5.09 7.81-12.44 5.43-2.49 2.37.45 4.41 4.52 7.69 10.97 8.82 9.17 2.38 1.69 4.63-1.92 10.63-15.49 2.49-4.87.91-2.15-.46-5.31.8-2.72 3.95-3.62 6-18.54 3.62-6.22 2.6-2.83 12.66-6.79 3.96-2.94 7.81-11.76 6.1-12.55 1.7-.45 1.13-4.87 1.47-2.6 11.08-19.9 13.8-31.56 3.17-8.82 2.49-9.72 1.58-7.92.56-.56 4.87-25.79 3.5-7.58 2.6-3.62 6.45-6.44 6.33-6.45 6.56-18.89 1.93-6.78 4.07-14.59 3.73-6.45 5.09-6.67 8.71-7.58.45-2.6 1.36-2.71-.12-6.9-1.69-4.07-1.59-11.09.12-4.75 3.05-3.39 4.75-1.47 10.52-1.13 5.88-2.04 6.33-.9 8.82 1.47 4.98-1.7 7.46-5.76 7.92-7.69 8.48-5.89 30.65-17.64 5.2-8.59 1.02.9 8.59 8.26 2.04 3.62 6.45 6.44 1.58 2.83 5.77 6.45 9.72 13.45 6.45 10.41 2.71 5.77 2.15 2.15 10.52 4.07 3.28 6.78 7.8 3.62 2.6 2.83.79 6.79 1.59 2.82.45 2.94-19.23 21.38-30.08 50.44-.34 2.82 1.25.34 14.13 8.6 9.05 3.05 6.22 4.75 8.94 2.38 3.95 2.15 11.99 10.97 4.86 2.37 6.79 1.36 7.12-.91.8-.11 6.44-4.07 13.46-13.46 5.43-2.94 9.16-2.15 7.58-.22 2.15-.12 4.41 3.4 4.86 2.82 9.39 5.32 5.42 6.9 3.74 19 .9 1.47 6.11 1.01 8.03-5.08 19.11-17.76 4.98-3.62 3.5-2.71 7.69-10.97 4.07-6.34 3.06-4.86 9.04-7.12 5.66-2.49 11.65-3.17 5.31-3.17 6.79-.9 4.3.68 1.69 1.69 2.83-1.13 13.91-14.81 9.27-9.95 15.72-13.24 7.69-5.31 13.35-16.85.56-.57 6.9-6.56 29.41-25.1 15.26-11.09 2.83-3.39 8.71-19.57 9.27-7.01 5.77-4.41 9.61-7.35 9.5-16.74 3.39-8.03 2.72-8.93 3.5 2.26 1.48 1.36 3.27 3.84.8.68 3.39-.11 3.84.45 2.72-.34 1.47-.56 2.49-1.02 3.05-2.26 3.73-.91 3.96-1.81 1.81-.22 1.81.22.45.45.45.8.68 2.71 2.49 4.19 1.58 1.8 1.02.46h1.36l1.13-.46 1.47-1.13 11.76-12.44 3.06-2.94 8.7-3.73 2.6-1.92 1.02-.23.45.12.46.45-1.93 5.31-5.2 24.88-13.8 26.24-20.58 27.6-18.43 30.64-15.83 23.87-8.03 14.93-9.73 24.65-17.3 30.2-18.66 26.69-16.18 31.44-4.29 27.93-8.03 29.52-5.43 12.89-4.98 11.88-14.7 28.38-18.21 29.75-9.72 10.06-9.73 13.69-4.41 7.01-10.06 13.46-15.61 15.6-10.86 12.89-8.37 9.73-7.57 6.45-10.52 12.44-4.41 5.65-78.6 88.67-78.6 88.66-52.36 69.1-52.25 68.99-52.25 69.1-53.94 56.77-72.38 69.9-70.46 91.94-61.18 56.89-58.81 75.77-15.83 71.93-30.76 19.11-9.39 26.01-7.46 20.59-7.69 15.83-5.66 9.95-24.88 48.07-1.58 2.37-3.73 6.67-3.96 5.77-49.2 70.23-4.29 1.25-21.49 9.38-49.88 16.97-.56 3.16-.79 1.25-.79 1.02-.68.22-.57.11-1.58-.56-3.96-1.58-3.73-.23h-.79l-3.85.68-2.37.56-1.25.57-5.09 2.71-4.29 4.75-4.53 5.43-3.05 3.85-1.47 1.24-1.02.68-9.61 4.86-6.22 3.62-.68 1.02-4.64-.57-6.67-1.47 2.6 3.06 1.36 1.58 2.6 3.28 2.15 2.6-6.22 6.33-1.59 1.59.8 2.71.9 2.15-2.03-2.71-2.15-3.06-.91-1.01-1.13-.8-1.47-.56-.79-.23-4.07.12-3.51.22-1.36-.11-2.03-.45-3.62-1.13-7.8-2.49-1.36-.34-.79-.23-1.59-.22-3.39-.12-5.31-.9-11.65-2.72-1.7-.56-.22 7.01-.12 4.18-.11 1.81-.57 7.13-.56 4.75-.23 2.94-.34 4.3-.11 7.46v.91l.11.79.34 3.16.57 3.62.45 2.6.23 1.59.56 2.71 1.7 3.85 3.73 7.46.79 2.15.34 1.7.45 4.52.23 4.52.11 3.4.12.45.34 2.49 1.8 8.03.34 2.37.91 6.67.22 6.9.12 1.13-.23 6.45v8.82l-.34 2.38-.11.67-1.13 5.32-.91 4.98-.11 1.24-.11.91v1.24l.11.79.34.68.79 1.13 1.13 1.36 1.47 1.13 8.03 4.86 2.94 2.15 1.13 1.02 1.13 1.58.91 1.92.34 1.02v.45l.34 2.27v2.94l-1.02 10.17.11 7.13v.9l.12.8.34 2.14.67 2.95 1.7 5.54 2.04 8.48h.67l.46.68.56 1.81 2.38 9.16 1.24 4.3.57 2.03.45 1.47.79 1.81-1.02.11-1.13.23 1.7 2.49 5.54 10.97 20.24 32 .91 1.47 3.96 7.02 2.48 3.61 2.49 3.17 1.59 1.7 1.69 1.35 2.15 1.02 2.26.57 4.19-.57.11-1.02v-.22l.68.22.45.23.45-.11 1.02-.34.45.22.46-.11.9-.34 2.04-.45.9-.23.91-.56 1.35-.57 1.81-.56h1.02l.9.34.57.56 1.92 2.83.91 1.58 1.13 1.7 1.7 2.26 1.24 1.47 1.02 1.13 2.71 2.15 3.05 1.47 1.7.23h1.47l1.47-.12h1.58l2.27.46 1.35.45 1.25 1.13.68 8.71 14.36 13.68 2.15 1.7 17.98 18.55.34 3.05-8.6 1.36 3.62 6.33 1.25 2.15-1.25.11.34.45.34.8.23 1.01.22 2.38.12.45-.12.79v.57l-.11.45-.11.34-.34.34-2.83 6.22-8.14 17.98-1.59 3.51-.45.68-.79 1.81.91 14.13-.12 1.59v1.47l-2.71 1.81 11.87 12.77 2.72 7.58-9.5 15.5-7.13-3.17-20.47-2.38-24.54-2.82 1.59 5.76.45 11.77 2.03 4.18 2.38 4.75.45 3.51-.34 5.54.45 5.99-3.16 22.06-1.25 3.16-.68-.45-1.13-.34h-.22l-1.25-.11-1.01-.34-3.85.45-2.26.11-1.13-.11-1.02-.56-1.47-1.14-1.7-1.81-1.24-1.13-1.24-.67h-1.25l-1.58.45-1.47.56-.91.68-.22.45-.23.57v1.36l.23 1.01-.68 1.7-.11 1.02-.46.9-.34.23-1.01-.57-.68-.79-.12-.68.34-1.01.46-1.02.33-1.7-.22-1.36-.57-1.58-.56-.79-1.47-1.24-1.13-1.36-.8-.91-.79-1.01-1.35-1.13-1.7-1.81-1.47-2.15-.23-1.25.12-1.13.79-.9.11-.12h1.7l.9-.34.45-.45.68-.11.57.45 2.03 4.3 1.02 1.47.91.9 1.24 1.02 1.02 1.02 1.13 1.58.79 1.36.79.91.79.79h1.02l.57-.23-.23-1.36-.22-1.01-1.36-3.62-1.7-3.4-.45-1.47-.11-1.01v-.68l.45-.91-4.3-4.3-2.71-2.14-3.17-1.36-1.58-1.02-3.06-2.15-2.48-2.26-5.66-6.56-1.47-1.36-4.18-4.52-3.51-4.3-3.96-5.77-2.94-5.76-1.58-2.26-1.81-2.27-2.04-2.26-3.05-3.5-2.49-2.94-2.6-3.06-5.99-6.22-4.87-4.75-1.69-1.58-6.56-6-1.81-1.69-8.6-7.69-1.01-.68-1.7-.23h-1.81l-2.26.57-1.81.79-2.15 1.02-1.92.9-2.72 1.13-2.37.68-3.62.57-6.45-.34-3.5-.34-2.38-.45-3.16-1.25-1.47-.79-1.25-.68-6.1-3.73-11.43-7.35-4.07-2.83-1.02-1.02-1.13-.34-1.69-.22-1.25.34-1.13.45-6.9 5.99-.11.12-.68.68-1.7.9-1.92-.9h-.34l-1.47-.12h-1.92l-1.92.45-1.59 1.36-1.69 1.7-1.02 1.81-1.02 1.47-1.47 1.24-1.24.57-1.81.22-1.36.34-1.24.79-1.59 1.25-2.03 2.03-2.72 3.62-.9 1.25-1.13 1.92-.79 2.71-.34 1.7.11 1.36.57 1.58.67 2.04.23 1.92-.11 2.49-.34 1.24-.34 1.36-1.13 2.15-1.36 2.26-1.58 2.15-1.92 2.26-2.27 1.81-2.82.79-2.15 1.25-1.59 1.13-3.16 3.28-5.2 4.41-12.78 9.95-1.7 1.02-1.02.45-1.69.11-1.36-.45-.57-.34-.79-.9-.68-1.25-.34-2.15.12-1.92.22-1.58.91-3.51.34-1.92.11-1.58-.23-1.59-.34-1.47-.79-1.13-1.01-1.24-1.59-.57h-2.03l-1.7.23-1.58.22-1.81-.22-1.02-.57-1.02-.68-1.02-1.13-2.26-3.16-5.09-6.45-1.58-2.6-.57-1.47v-1.7l.57-1.36.79-1.24 1.47-.9 2.04-.68 1.58-.91 1.58-1.13 1.25-1.24 2.03-2.38.68-1.47.23-1.58-.12-1.81-.79-1.47-1.01-1.24-1.93-.68-2.37-.12-2.15.68-2.26 1.13-2.49.68-2.49.34-1.92.68-3.39 1.81-1.36.56-1.7.46-3.39.34-3.85-1.25-4.86-1.92-1.92-1.02-4.64-3.96.79 10.97-10.51 1.25-31.44 4.18-15.16-1.58-3.05-2.94 7.24-7.58 1.01-1.02 2.15-2.49.46-.9.22-.9.11-1.14v-1.58l-.11-1.02-.45-1.58-.68-1.36-1.47-2.26-2.49-3.05-5.31-5.43-7.58-7.69-8.82-8.71-.23-.11-.68-.12-.45.12-.56.68-4.41 6.1-6.79 9.39-2.04 2.6 1.7 1.24 1.92 1.59 2.94 2.71 4.64 4.07 11.76 10.97-.68.68-.56.23-17.19 1.7-22.96 2.48v.68l.34 2.83.57 5.31.45 4.87 1.13 10.97 1.81 16.74.68 5.88.34 2.82 1.35 12.67 1.47 13.91.34 2.83.34 3.73.11 1.81.12 1.36.22 2.48.57 6.34.45 4.63 1.13 12.22.68 4.98.91 5.31.56 1.92.34 1.02.79 2.38 1.36 3.16 1.81 3.51 1.36 2.15 2.37 3.5 6.11 9.28 6.67 10.74 1.92 3.51 1.02 2.03.91 2.72.45 2.48.68 5.32.11 2.26-.23 2.26-.22 1.36-.79 2.15-.8 2.37-1.01 2.15-4.3 6.79-3.39 5.31-1.47 2.27-1.7 2.71-1.02 1.7-.45.45-.23.45-4.07 5.77-1.58 3.05-.68 1.59-.9 2.82-.57 2.38-.23 1.58-.11 3.51.23 4.97 2.94 29.75 1.24 14.36-13.12 3.05-4.86 1.25-9.05 2.26-15.72 3.96-7.91 1.92-5.43 1.24-7.69 1.93-2.6.68-3.74 1.35-4.97 2.15-1.7.79-10.18 7.02-9.95 7.01-11.08 8.03-10.86 7.91-5.54 3.74-4.98 3.5-10.17 7.24-5.21 3.62z" stroke-linejoin="round"/></defs><use xlink:href="#b" fill="#9dc8ca" stroke="#9dd7f0" stroke-width="5.76"/><defs><path id="c" d="M1225.69 2451.99l-2.26 4.63-4.75 4.3-9.61 8.03-2.49-3.51-5.88-6.56-15.72-18.66-29.75-35.51-16.17-16.85-17.19-17.75-1.81-1.93-27.25-28.16-23.41-22.73-3.62-2.6-1.13-.79-10.75-7.58-.11-38.34-2.37-1.58-1.7-1.13-2.15-1.59-40.26-26.8-8.82 2.38-6.45 1.47-5.2-1.81-40.71-11.43-72.95-39.47-18.77-21.14-12.78-14.48-2.71-7.8-15.05-43.77-1.35-4.18-4.07-33.93-.23-31.78-.23-.57-13.23-34.49-1.81-4.3-.34-2.37-.9-6-1.58 1.59-3.74 3.28-.56-1.14-.91-2.14-1.47-5.32-.34-.57-1.47-1.13-2.03-.68-1.25-.11h-1.24l-1.24.23-.57-2.72-.56-2.6 1.01.46 1.13.11.91-.11.45-.23.34-.68.23-2.04v-.9l-.34-.68-.46-.34h-1.69l-.57-.34-.79-.45-.34-.57v-.45l.23-.34 1.02-.56 1.81-.12 1.13-.11.34-.45.11-.79v-3.28l-.57-6.34.23-3.16-.23-2.83-1.35-6.22-.34-.79h-.12l-.11.22-.23 1.36-.22.68-.23.23-.34.11-.22-.34-.12-1.81.12-2.49-.23-2.37-.56-2.49-1.14-4.3-.11-.68.34-.22h.45l1.13.45.46.11.45-.11.22-.45.12-.68-.34-6.33-.23-.91-.11-1.47.23-.68.11-1.35v-1.02l-.45-1.36v-.68l.11-.22-10.63-6.22-.34-.34-.45-.68-.57-.34 1.47-1.25 2.15-2.6 1.58-2.6 1.25-3.16.11-.8v-.22l-.23-.23h-.11l-2.03.91-2.38.9-.23-.45-.45-1.58-.45-1.93-.45-2.03-.68-3.06-2.15-8.14 9.27-13.23-.11-1.7 4.64 1.13-1.36 11.54-.79 6.56-1.36 9.84.57-.23.56.23 1.13.34 2.38.11.34-2.49.45-5.77.9-5.88v-1.47l-.33-5.88 2.37-5.43 13.12-48.17 6.22-9.73 9.61-17.3v-.23l.45-.57 10.52-11.19 15.72-26.69 25.79-43.77 4.75-2.37 18.66-3.96 27.7 6.22 1.81.68 5.66 1.92 17.41 8.14 53.5 32.01 72.72 39.92 13.45-.11 36.53-11.2 5.43-2.6 14.36-8.48 1.25-2.27 42.86-38.45 14.02-7.35 39.13-16.74 50.67-5.99 9.95.45 57.9 8.14 2.94.12 1.81.11 26.69 1.81 12.33.79 10.86.68 28.04 4.98 13.91 5.54 22.62 10.29 7.01 10.86 14.48 37.32 16.06 35.51 16.06 51.46 6.1 13 9.84 18.32 4.19 6.56 1.02 1.7 10.29 16.29 6.22 27.59 41.61 18.77 52.03-29.63 28.16-19.11 9.27-9.95 8.93-10.41 3.51-34.26-8.14-29.63-1.13-5.09-.57-1.36-2.83-5.66-2.14-3.61-.91-2.49-1.81-3.17-.34-2.6-.34-.79-.34-.57-.56-.68-.91-.56-1.13-.68-1.13-.68-.9-.9-1.7-1.81-6.56-8.94-3.39-4.07-1.7-2.49-3.84-4.41-2.83-3.28-2.72-3.84-2.37-3.17-3.96-3.96-7.58-8.14-3.05-3.62-1.92-2.03-7.69-6.9.22-.57 26.81-37.09 2.03-37.1 14.59-3.5-10.06-7.58-7.35-5.88-2.38-1.7-5.2-3.62-6.11-4.41-7.24-5.54-8.25-5.99-1.25 3.16-.34.68-.9 1.25-.23 1.35-.11.68v4.3l-1.7.79-1.01 1.92-1.7 4.64-2.04 6.9-.45 4.97 2.72 22.28-3.4 8.49-3.62 5.31-.45 2.38-2.03 1.24-2.27-.23-1.58-.79-2.03-3.39-1.81-1.13-2.27-.23-2.14.68-2.27 1.58-9.27 9.96h1.02l.9.34.46.34.22.45.11.56v.68l-.11.57-.45.45h-.23l-2.71 1.02-3.05.68-1.36.79-.57.45-2.26-.9-4.86-2.15-6.34-2.72-6.33-3.62-4.97-2.82-2.15-1.36-4.41-2.26-1.93-1.36-3.5-2.83-3.4-2.03-2.6-2.04-1.35-1.36-1.02-1.58-.57-.56-.56-.34-1.13-.34-.46-.23-2.37-1.24-1.13-1.02-.91-1.02-1.69-1.7-4.75-3.28-1.36-.67-.79-.46-.68-.56-.68-.68-1.47-1.47-3.5-2.6-2.15-1.81-4.75-3.51-5.09-3.73-2.26-1.92-.46-.34-1.47-.45-.56-.34-2.15-1.93-1.24-.9-4.64-3.62-.45-.68-.8-.45-1.8-.9-.8-.57-2.15-2.04-1.8-2.6-.68-.56-1.02-.46-.91-.56-.67-.68-.57-1.24-.34-1.13-.56-.68-1.25-1.7-1.36-2.49-.56-1.58-1.02-3.17-.79-3.5-.11-.79.11-2.15-.45-5.77.11-2.38.34-2.14v-1.02l-.11-1.25-.12-.11-.34-1.24-.11-1.93v-2.26l.11-1.58.46-3.73.79-4.41.11-3.06.45-5.43-.11-1.92.23-11.42-.46-12.89.23-4.87.11-1.69.12-9.73-.8-5.54v-1.47l.23-1.25.57-2.37v-.68l-.23-.68-.68-1.58-.34-1.13-.11-1.02.45-2.94.34-1.02.11-1.13v-.9l-.22-1.02-.45-1.13-.68-1.25-.23-.68-.11-.67-.79-7.24-1.59-8.37-1.47-6.9-.79-4.86-1.24-5.09-.46-2.15-1.13-3.51-3.05-10.17-.11-.23-1.02-3.17-1.92-4.75-1.13-2.37-.46-1.59-2.71-6.89-4.07-9.17-1.7-3.5-.11-.23-3.28-5.65-2.26-3.51-4.64-8.25-.68-.91-2.94-3.73-2.03-2.94-2.49-3.39-1.47-2.15-2.04-2.72-1.36-1.47-.9-.79-4.18-5.2-1.47-1.47-2.95-2.83-2.71-2.03-3.62-3.28-2.03-1.59-1.25-.9-1.81-.91-2.6-2.37-2.26-2.15-4.18-3.28-2.15-2.04-4.64-4.29-2.6-2.49-2.15-2.72-1.81-2.03-1.47-1.13-2.83-4.64-1.13-2.15-1.92-3.05-.91-1.25-1.24-2.82-.45-1.13-2.26-5.43-.8-2.15-.45-2.04-.45-2.71-.34-4.98v-1.58l.91-14.7.33-10.63-.22-3.85-.11-1.36-.57-12.1-.79-10.51.11-4.64.34-3.96v-1.58l-.34-3.96v-2.49l.34-3.51.91-7.23.79-3.17.68-2.71 1.01-3.17 1.59-3.85.56-.79 1.7-1.81 1.02-1.47.45-.9.56-1.25 1.59-3.39.79-1.36 1.81-2.71 2.49-3.85.45-1.35.45-.57.68-.79 1.24-.57.34-1.35 11.65-14.37 2.83-3.39 1.58-1.92 13.23-14.14 10.3-9.5 9.83-4.52 4.64-1.58 10.29-3.62 14.59-6.68 13.12-5.31 9.84-3.73 8.37-4.3 6.11-2.49 30.3 2.26 26.01 3.28 11.43 5.21 10.74 9.61 4.07 4.18 3.17 3.17 6.67 7.24 4.19 4.52 4.29 5.09 5.09 7.12.45 1.25.68 1.58 1.47 3.73 1.7 3.17 1.47 1.81 1.36 4.07.56.91 1.93 2.48.33 1.02 1.25 2.04.9 1.81 4.75 8.37 1.81 2.82.45.8.8 1.92.34 1.69.33.68.68 1.13 1.02 1.25.34.79.68 2.26.45 1.59.45.9 1.47 2.37 1.25 2.27 2.37 4.97.68 2.6 1.02 1.59 1.58 3.16 2.38 5.55 2.6 4.63.56 1.25 2.15 5.42 3.96 7.36.45.45.68.45.91.34.68.57.45.79.79 2.49.45.9.68.79.79.79 1.47 1.13.91 1.14.9 2.03.57 1.02 1.01 1.13 1.36 1.13.79.68.57.56.23.68.22 1.25.34 1.01.34.8.57.68 1.01.79 6.22 5.99 1.59 1.58 2.15 2.15 2.37 2.6 2.94 3.85 1.24 1.36 4.42 4.41 1.13 1.69.67.8.68 1.01 13.91 16.74 7.02 8.94 7.8 8.93 7.12 9.16 3.51 4.75 3.05 4.18 9.05 11.31 6.45 6.56 9.16 8.71 1.47 1.25 19.68 16.06 10.97 8.48 12.21 10.18 1.47 1.24 3.28 3.39 2.6 2.72 7.58 7.46 1.69 1.13 10.07 4.86 1.36.57.34-4.98 2.03.34 14.02 6.79 38.34 8.48 35.17 3.39 34.84-11.53 6.44-2.72 8.48-3.73 10.18-3.28 8.82-8.14 4.19-.57 7.35-.9 25.78-10.29 22.06-8.82 8.59-4.41 9.39-7.92 3.39-6.56 2.94-9.61 2.49-9.73 3.73-13.12.68-19.79 1.24-35.28v-22.85l1.02-20.02 2.49-35.96.79-12.67-.34-16.96-1.24-14.7-1.02-5.77-2.71-11.65-2.94-10.4-2.04-9.84-7.69-18.1-1.47-3.05-5.77-12.67-10.29-15.15-10.4-11.31-9.84-9.16-3.62-2.72-5.2-5.2-11.88-7.24-10.18-6.11-10.63-7.23-13.57-7.47-18.77-10.06-15.38-7.24-16.06-8.71-17.87-14.36-16.17-15.84-11.31-14.02-5.77-7.12-11.65-11.43-6.33-6.1-9.73-7.92-7.46-4.86-11.76-5.66-7.92-3.73-10.52-3.28-14.02-7.58-7.8-3.28-18.78-8.14-12.44-7.01-9.38-6.67-15.5-17.65-12.44-19.22-11.64-19.57-8.6-19.79-3.39-20.24-.45-2.72.67-13.12 1.59-9.61 1.92-10.06 3.84-8.03 4.53-9.05 6.56-8.48 8.03-9.84 4.75-6.67 6.67-10.41 6.67-11.65 10.41-14.36 4.41-6.11 6.33-8.59 5.09-7.35 6.11-7.58 5.31-4.98 3.06-.79 4.74-2.15 4.3-1.92 8.37.11 17.87 2.26 20.24 4.42 16.85 3.05 9.73 1.36 11.42 2.26 7.13.34 4.63 1.81 18.1 1.24 15.27 1.24 15.72-.79 9.5-2.6 9.27-7.69 9.16-10.74 7.8-10.29 15.27-19.91 14.59-18.43 1.24-1.47 11.88-13.57 2.15-2.27 11.42-12.44 13.34-15.94 8.71-11.31 3.17-2.6 10.18-13.24 6.33-8.14 6.79-8.71 8.25-9.04 6.67-7.47 15.5-6.33.22-.11 14.82-5.32 10.97-4.07 3.39-1.25 14.48-6.89 11.53-6.79 14.03-8.71 12.21-5.2 11.76-2.6 10.74.68 3.4 1.58 8.48 3.85 17.53 13.68 10.4 11.99 2.26 4.52 1.59 4.3 1.58 4.86.45 3.17-.11 1.7v10.4l-1.7 7.8-2.03 7.69-2.26 6.45-2.83 9.27-3.39 11.54-2.94 8.03-1.47 3.62-1.59 5.31-3.16 8.82-2.6 7.36-2.49 10.17-1.81 9.62-1.13 10.52-1.93 10.4-1.69 9.95-.23 2.72-.9 4.52-.68 5.65-.11 7.47-.23 8.59-.11 9.16.11 9.5 1.13 6.79.11 5.99.46 2.27 1.24 6.56 1.7 9.61 2.82 11.31 2.94 12.66 2.38 6.79.56 1.24 5.21 11.77 3.62 8.14 5.42 10.18 4.75 7.23 6 10.75 8.82 12.89 5.88 9.61 2.15 3.85 4.41 7.12 4.3 7.69 2.14 5.89 1.7 6.89 1.47 5.66 1.47 3.28.91 3.5 2.48 4.19 3.06 3.51 3.5 2.26 2.27 1.35 1.13 1.14 8.59 2.37 11.88 2.15 8.25.68 8.48-.23 4.07 1.13 12.22 1.47 16.51 3.28 18.66 4.07 5.32 1.13 5.54 2.83 5.43 3.85 9.16 5.54 8.14 4.75 13.46 9.84 13.91 10.74 9.16 6.33 20.81 10.64 25.1 12.21 13.91 7.24 14.25 4.18 7.13 3.62 13.57.79 7.58-1.24 5.99-.91 6.33-2.82 5.54-4.64 3.4-3.05.34 4.97.9 10.63-15.15 17.31-6.9 6.9-4.53 2.94-10.63 5.42-5.54 1.81-8.93 1.93 3.39 8.59 3.17 1.47 5.31.57 8.48 3.62 6.68 3.28 3.28 1.69 4.97 3.06 2.49 1.81 3.96 3.28 9.61 11.42 3.73 4.07 1.7 1.81.57.68 14.7 15.04 12.66 13 5.77 5.43 5.54 5.54 1.02.91 4.3 3.84 13.12 12.56 6.44 5.43 2.72 2.03 7.35 4.98.45.34.23.11.34.23 4.75 3.28 3.95 3.05 4.08 3.17.67.34 4.3 2.94 5.32 4.18 2.03 1.7 3.4 3.73 5.2 6.45 1.02 1.01 11.53 7.92 10.74 7.12 7.24 4.3 15.38 7.24 3.28 1.81 1.47 1.13 6.11 5.99 16.85 13.8 7.92 7.92 5.09 6.45 3.39 6.1 2.71 5.2-3.39 2.04-1.7.23-1.81-3.06-5.88-2.94-2.48-2.82-3.28 1.13-3.51 2.71-.45 1.7 1.24 3.39-.79 1.92-1.81-.11-3.05-2.83-1.47-2.94-1.02-3.62-4.52 1.47-1.7-1.47-4.07 1.13-1.92-3.5-1.36-.57-3.73 2.04-.57 1.02h-2.6l-.57-1.81.57-2.83-.79-3.06-2.72-.9-5.42 2.49-.91 1.13-2.37-.23-1.81-2.37-3.62-7.92-2.38-1.81h-.79l-2.26 2.94-1.7 6.22-2.37-.45-6.56-3.28-5.66-1.7-1.24-5.54-3.39-1.02-10.52.91-2.83-1.02-5.43 2.94-3.62.79-3.84-2.82-3.05.34-3.4 3.61-.22 9.73-1.81 3.05-2.15 1.81-5.43-1.92-10.97 2.04-.9.11-2.94 1.58-3.74-.56-4.86.34-3.39.34-4.98 2.26-2.03.9-3.4 2.04-3.84-.11-3.96-2.38-3.73-1.02-3.73-2.71-5.09-2.94-5.54.11-6 .91-11.65 4.52-1.35 3.51-5.32 8.25-.23.34-2.6 4.07-6.78 8.71-.45.68-2.61.68-2.94 1.02-1.01.11-1.81-.11-2.27-1.36-3.73-1.92-1.13-.23-1.81-.11-3.62.34-.9-.23-1.81-1.58-3.05-2.94-2.15-2.72-2.6-2.03-1.81-1.25-1.47-1.13-3.06-1.7-1.35-.9-1.47-1.24-1.48-1.7-.9-.45-1.24-.68-1.36-.12h-.57l-1.47.57-1.69.91-1.81.56-5.2.57-.68-.12-.68-.34-.45-.56-1.59-2.94-.45-.68-1.81-1.92-.9-.68-1.13-.68-1.14-.23-1.35.12 6.67 12.32 55.87 104.28 57.45 107.55-9.5 1.24-3.28.57-24.09 3.5-3.51.57-4.86.68-7.01.22-.68.23-.45.23-.79.56-1.47.91-1.36.45-25.22 131.07-.45.57-.34.45-.11.45v.8l.56 5.31 1.24 22.62-2.03 2.04-4.41 3.84-9.16 7.58-3.62 2.71-7.01 5.09-8.26 6.34-2.94 2.6-4.3 4.18-7.01 7.35-2.71 2.15-2.04 1.24-4.41 2.27-3.05 1.47-5.43 2.49-4.52 1.92-5.09 1.81-8.94 2.82-14.02 4.75-1.13.23-7.69 2.04-1.7.34-3.96.79-3.73.45-14.81 1.7-2.94.56-2.04.57-2.6.9-11.88 4.98-5.08 2.26-1.47.79-2.95 2.15-1.58 1.47-1.24 1.58-1.25 1.59-1.24 2.03-2.15 4.07-2.6 5.55-3.39 6.22-1.36 2.26-1.92 2.71-3.96 5.2-5.32 6-12.1 12.89-3.05 3.39-3.73 4.08-1.7 1.35-1.13.79-3.05 1.47-1.81.57-3.06.68-11.98 2.03-.91.23-1.81.68-2.49 1.13-2.94 1.81-12.78 8.48 23.41-2.15 1.25 9.05-3.06.79.91 3.51.11 5.65.57 3.17-3.17 3.17-1.92 1.58-4.53 1.24-4.18 2.72-.68 1.92 1.47-.68 1.25-.56h.9l.45.45.79 1.92 3.06.68 1.02.45 1.24.68 1.24 1.24 2.04 2.04.79 1.02 6.9.56.11 7.24 1.13 1.13 2.83 3.17 2.26 2.83 1.81 2.6.45 1.35.23 1.02.23 1.92.34 4.75.11 1.93 1.36 3.62v.45l26.91-.79.68 42.29-7.69-.22-.23 1.81-11.53 1.35v3.4l.11 1.47.68 2.26 2.38 5.77 2.37 4.97.91 1.36h-.46l-1.24-.11-4.52.68-.91.11.68 1.92 5.65 14.48-25.33 1.47-.34 33.36 5.32 1.7 4.18 1.35 11.76 3.85 4.75 1.47 4.07 1.47 4.53 1.36 18.66 6.22-.11 1.35-.12 1.7.23 3.17.79 11.98.34 1.02.45 1.02.11.45v.46l-.45 1.35-.22.91v.56l.11.57.23.68.79 1.47 1.01 1.24.91.68 1.36 1.02 19.22 50.78 9.62 13.12 15.38 15.83-3.28 11.19-3.17 10.07-.57 1.58-1.13 2.6-1.13 1.81-4.97 7.24-2.72 4.19-1.69 3.39-2.04 4.52-1.02 2.6-2.71 7.58-1.47 4.07-2.94 6.9-3.06 7.35-1.01 2.94-.68 2.15-.45 2.38-.91 7.69-.45 5.54.11 4.75.57 4.52.34 2.15 1.01 3.39 3.17 10.41 1.58 4.97 1.25 3.85-2.15-1.58-1.13-1.02-.91-.68-2.71-2.83-1.25-1.47-3.16-4.52-2.04-3.73-5.65-8.94-4.41-7.69-1.7-2.6-.9-1.24-2.83-3.28-1.13-1.59-1.25-1.35-1.47-1.47-1.47-1.25-1.81-1.24-3.73-2.15-3.28-1.24-2.82-.91-2.49-.56-2.6-.46-2.27-.34-4.41-.22-8.7-.91-8.94-.68-5.99-.34-4.19-.33-2.6-.34-2.83-.68-3.61-1.25-5.09-1.92-.68-7.92-.91-8.02-1.01-7.13-1.59-12.44-.56-2.04-.79-2.6-.8-2.37-1.01-2.49-1.25-2.04-1.92-3.16-.68-1.25-4.64-6.67-1.24-1.13-1.81-1.24-1.24-.68-3.28-1.59-6.9-3.5-1.13-.68-.79-.45-3.06-1.25-2.15-.56h-1.81l-2.71-.12-4.3-.22-4.07-.45h-1.13l-.23-.68-.22-2.49.68-11.31.79-10.52.9-12.1.23-2.15.68-7.12.11-.79.23-.91.56-1.58 1.13-2.6 2.49-4.87 1.47-3.28.68-1.47 2.37-5.2 1.81-3.28.8-1.02 2.03-2.03.57-.57 1.13-1.58 1.35-2.49.46-.79 1.81-3.73.56-1.7.79-2.94.34-2.37.46-4.87.45-2.94-2.83-8.14-8.82-1.47-45.8 6.22-90.36 7.8-.8-16.4-3.27-.9 1.13-32.57h-6.79l1.36 51.12-6 .56-.79-28.61-3.5.68.45 28.5-17.53.68-4.64-36.08-2.03-.23 1.47 9.39-35.51 5.2.9 6.45-3.28.45-.11 4.19.45 5.09.11 1.69-.11 1.36-.11.79-.45.68-.46.68-.56.56-.57.34-.9.34-6.45.79-9.27 1.13-8.26.91-.34 1.7.12 2.03.22 2.94-.11 1.13-.11.45-.68 1.47-.79 2.04-1.02 4.41-1.02 7.01.11 1.47.12.68 1.24 3.17.57 2.03.22 1.81.23 5.55.11 6.33.34 7.46.11 3.85.12 6.78.34 11.09.11 8.7-17.08 2.38-21.15 3.17-5.99 1.13-4.75.9-6.11 1.25-2.82.11-3.17-.11-4.75-.57-3.17-.79-8.93-3.39-3.06-1.13-4.63-1.47-4.07-1.25-9.62-3.28-2.37-.68-2.15-.56-3.51-.23-5.88.23-3.62.45-5.65-20.13-16.4 4.75-15.38 1.13 1.81-7.24 2.71-9.72.23-1.25.23-2.03v-.68l-.12-2.72-.22-2.71-.23-2.04-.79-2.6 7.58-5.99 1.92 4.52 4.98-3.28-1.93-16.74-3.39 1.59-12.21 6.44-.57-5.88-.56-9.16-.91-9.95-.23-2.37-.33-2.27-.46-1.69-4.29-11.2-1.81-4.86-3.06-10.63-1.81-5.66-1.69-4.41h-9.73l-4.07.34-4.64.57-1.13.9-1.47.23-2.49.45-1.92.23-16.17 2.6.11 3.28.12 4.18.22 4.3v1.13l.11 1.02.34 1.69.12.8.79 4.86.22 1.69-.11.68-.45 1.81-1.13 2.83-.91 3.73-.45 4.75-.34 1.93-.9 5.88-.23 2.48.11 1.81-3.61-.68-44.68 6.23-2.03 3.39-11.76 53.6-4.19-.22-44.22 12.55-10.51 1.47-16.18 3.73-2.48-9.16-26.81 7.24-8.14 2.94-2.04-20.02-12.78.68-1.69-15.49-1.47.11-4.07 1.02-1.47.57-4.41 2.82-3.62 2.49-11.65 7.69.23 1.92-.34 1.7-.57 2.15-3.17 9.84-7.57-3.62-9.5-4.19-1.81-.9-4.64-2.26 5.99-6.45 1.93-2.15 9.04-9.95 7.58-24.31.91-4.64.56-2.6-8.59.68 1.58-2.04-24.88 2.71-40.26 3.62-.45.12-.12 1.35-3.28-.67-4.29-1.36-1.25-.57-7.01 11.09-3.28 6.1-1.92-.45h-.23l-14.02-2.37-10.86-1.93-4.63-.45-2.83.23-1.47.56-10.41 3.17-3.28.79-14.13 3.17-2.6.56-10.41 1.93-9.5 1.8-5.99 1.25-4.75.9-6.67 1.25-1.47.22-8.94 1.93-4.86 1.01-12.33 1.25-6.22 1.13-25.22 5.43-11.42 2.03-1.7.23-2.6.11-4.41-.22-12.66-.91-7.58-.68-3.96-.34-.11 2.38-.46.68.23 1.81.11 2.15.57 4.52.56 3.17.91 6.67 2.94 24.43 3.73 31.21 2.6 21.94 1.13 8.94 1.93 15.38-1.25.9-2.26 1.36-2.26.9-2.6.34-2.04.11h-1.81l-2.37-.22-1.25-.23-1.47-.45-.79-.34-1.92-.9-2.04-1.47-3.28-2.72-3.95-2.94-5.77-3.96-2.72-3.28-1.92-2.48-9.16-11.43.34 26.01.11 3.74 5.09 3.39-4.07.79-.68.23-.11.11-.45.57-.46.67-.9 1.81 2.26 2.49.79.91 1.36 1.47 1.13 1.35.79.8-.22 3.39v1.47l-.23 1.69-1.02.57-.11.34-.11.34-.46.34-2.14 1.24-.57.12-.23-.12.46 6.34.45 7.01-1.02.11-1.47.23-5.54.56-7.47.79-5.08.57-3.51.34-3.05.22-6.34.68-2.26.23-1.36.11-3.16.34-3.85.34-3.39.34-1.36.11-1.69.12 1.58 15.49 7.24 63.67 3.28 6.79.11 2.83 1.02 14.58-.91-2.71-.45-.68-.79-1.58-.45-.57-.79-.9 7.35 56.54 7.91 44.68-2.26 8.37z" stroke-linejoin="round"/></defs><use xlink:href="#c" fill="#6bacaf" stroke="#6bb4d2" stroke-width="5.76"/><defs><path id="d" d="M493.08 3582.13l-14.7.91-10.07.56 4.08-4.52 7.46-5.43 7.8-5.09 4.75-1.58 7.35-4.41 13.69-7.24 8.93-2.04 6.9-2.15 7.01-2.48 6.34-3.74.67-.34 2.27-6.56.67-5.76-.79-16.29-4.63-24.88-8.94-33.47-5.2-15.95-11.42-23.19-12.56-14.81-26.46-26.01-11.76-9.62-11.76-7.01-3.73-2.15-5.55-2.71-6.56-1.24-6.67-2.27-5.88-3.84-8.48-3.17-1.24-.22-6-2.27h-4.07l-5.65 1.36-1.02.34-8.26-9.39-7.35-10.29 1.13-1.35 1.25-2.83 1.01-1.13-1.47-1.47-3.73.79-4.18 1.69-3.17 1.48-3.84.33-1.93.12-1.02-6 3.06.12h4.07l2.83-1.47 2.82-3.06 4.19-1.58 3.96.23h3.16l.68-.8-1.47-2.14-1.36-2.61v-1.13l.8-.34 1.47.57 3.62 2.04 2.03.33 2.49.23 3.05-.11 2.15-.57 1.13-1.36-.22-.9-.12-.11-1.35-3.4-1.59-3.39-.68-2.49-.67-3.05-.8-2.38-.79-1.8-1.47-2.04-1.13-1.13-.45-.45-.79-.57-.91-.56-2.26-.68-2.26-.68-.45.11-1.25.68-1.13.68-.79.22h-.45l-.34-.45-.11-1.24.33-1.81v-1.13l-.33-1.02-1.36-1.13-1.7-1.47-.45-.57-.45-.45-.68-1.58-.68-1.13-.45-.79-.34-.46-.45-.68-.23-.45-.45-.68-.46-.56-.56-.45-.45-.34-1.02-.68-.57-.57-.45-.45-.34-.79-.22-.57-.34-.45-.57-.34-.34-.23-.9.12h-.79l-.68-.12-.68-.45-.68-.68-.9-.79-1.02-.9-2.26-2.94-.23-.34-.34-.23-1.13-.45-.57-.34-.56-.57-3.51-4.52-.45-1.24-.23-1.36v-.79l.12-.45.22-.46.34-.11h.91l1.69.68 3.62 3.28 1.36 1.02 1.13.79.45.68.23.45.56.56.8.91.56.34.45.34.46.22.34.12 1.13.11.56.34.57.45.34.34.34.57.56.34.79.33 1.47.46.68.56.68.91.79.45.57.57.68.79.67.9.8.68.67.57 1.02.9.57.68.56.45.91.45 1.13.34 1.13.12h1.13l.79.11.79.34.57.45 2.04 1.7.79.34 1.35-.12.57-.79 1.02-.9h1.02l1.01.34.91.45.79.9 1.36 1.59 3.39 5.65 1.58 1.25.45.22 1.48.68 1.8.23 1.14-.46.45-.34 1.47-1.69 1.24-2.72.12-.22v-1.47l.56-1.7 1.92-1.24 1.93-.23.79.57.68 1.01.22.8-.11 1.24-.11.9.11.8.56 1.24.91.79.34.79v.91l-.79 1.36-.23 1.69-.11 1.92.22 2.15.46.57.79.34h.68l.56-.34 1.25-2.6.79-1.36.9-1.24.91-.46 1.58-.67 3.17-2.04 1.01-1.02.68-.9v-.45l-.11-.34-.11-.46-.23-.22-1.47-.79-4.64-1.93-.34-.34-.22-.45-.11-.45.11-.34.68-.34h1.81l2.15.91 3.27 2.6 2.61 1.01.56.12.68-.23 3.39-1.47.91-.56 1.24-.91 4.07-1.36 1.59-.11.67-.57.68-.79.57-1.47v-5.54l.22-.9.34-1.02.8-1.13.79-1.36.34-.68.34-.45.34-.23.33-.11.23.11.11.34.12.57-.23.56-.45 2.15-.11 1.13v1.02l.45 1.7.22.79.34.79.68.79.45.46.46.33.56.23.91.11h.68l.45-.11.34-.23.34-.33.34-.57.45-.23.68-.34 1.01-.11h1.25l.9-.11.91-.34 1.02-.23 1.01-.34 1.36-.45.68-.34.34-.34.22-.56.23-.12.34-.11.79-.34.57-.11h.56l.34.11.34.23.57.34h.56l.45-.12.34-.34.23-.56.34-.68.34-.45.45-.34.57-.11h.45l.56.22.57.23 1.02.11.45.11.34-.22.22-.34.12-.45.34-.34.45-.34h.79l1.02.34.56.34.46.11h.34l.45-.23.22-.34.12-.45.11-.56.23-.68.22-.79.57-.91.68-.79.56-.68.34-.34.12-.45.11-.45.22-1.25.23-1.69v-2.27l-.11-1.24v-1.92l-.12-4.07-.9-5.88-.57-2.49-.45-.91-.22-.22-.68-.46-.34-.22h-.12l-.33-.34-.34-.68-.57-1.47-.11-1.13.11-2.83-.34-1.69-.68-2.15-.79-1.59-1.81-3.39-1.13-2.6-1.13-1.81-1.7-2.38-1.47-1.69-1.13-.91-.79-.9-.56-.91-.34-1.24-.57-1.24-.68-1.02-3.96-4.3-1.69-2.03-1.47-1.93-6.22-6.56-1.7-1.92-3.96-3.73-4.29-4.41-.68-.91-.57-1.01-.79-1.7-.57-.79-5.54-5.32-1.81-1.69-2.49-2.27-.9-.79-.9-.56-.68-.34-.34-.12-.34-.34-.91-1.92-.56-.56-.57-.57-3.96-4.18-3.39-3.4-2.49-2.48-3.05-2.83-6.22-5.77-2.94-3.05-8.71-8.6-9.27-8.48-1.7-1.81-8.93-10.18-1.13-1.13-.68-.45-2.04-2.04-2.49-2.71-1.13-2.49-1.58-1.81-1.58-2.37-1.47-1.93-1.7-2.26-.68-.79-6.56-9.27-.79-1.13-1.7-2.83-1.47-2.15-.67-1.13-2.15-3.51-.79-1.13-1.59-1.47-1.92-1.13h-.91l-.9.68-.68.68-.9.68-.12.11-.34-.11-.22-.34v-.34l.11-.57-.11-1.02-.34-1.01-.34-.46-.11-.79.22-.79.57-.56 1.13-.46 2.15-.34.22-.11v-.34l-.11-.9-1.58-4.3-2.83-7.35-1.81-4.87-.34-.45-.22-.22-.12-.12-.45.12-.9.79-.46.11h-2.26l-.45-.23-.34-.33-.57-1.36-.45-.45-.45-.34-.45-.23-.34-.56-.12-.68-.45-.8-.34-1.8-.68-1.02-.56-1.02.11-.34.23-.11h.45l.34.11.68.45.9.46 1.81.11 1.02-.11.45-.23.68-.45v-.34l-.11-.91-1.02-2.49-.11-.45-.57-.68-2.49-2.15-6.44-4.75-.34-.45-.11-.34.33-.22.34.11 3.06.9.68.12.9-.12.57.23 1.81 1.13.33.11.46-.11.22-.22v-1.02l-1.24-5.2-2.26-8.71-.68-2.04-1.36-7.46-1.47-6.34-2.15-13.79-.34-1.81-.45-.91-.45-.22h-1.36l-1.69-.23-.91-.45-.45-.45-1.13-1.14-.12-.33v-.57l.23-.23h.9l3.74.57 1.13-.11.34-.57.11-.68-.23-4.41-.34-1.58.12-.57.11-.45.11-1.13-.45-3.73-.11-2.6v-.57l.45-4.3v-4.18l-.45-2.6-.23-1.13-.68-1.93-.67-.79-.34-.34h-.8l-2.6.46-.56.22-.79.45-.57.46-.45.67-.79 1.14-.57.56-.45.11h-.57l-.79-.22-.56-.45-.12-.34v-.57l.34-.45 1.93-2.6.45-.91.56-1.92.23-1.58-.11-.8-.46-.79-.11-1.35v-1.7l.23-.45.45-.34 1.36-.23 1.13.45 3.16 1.81.46.12h.9l.11-.12.23-.45 1.81-10.63.23-1.47.11-.79.9-5.32.34-1.58.34-4.07.34-3.05.11-.46.12-.56 1.13-1.7.45-1.47v-.68l-.23-.68-.33-.56-.8-.91-.22-.45-.23-1.02.23-.68.45-.45 2.04-3.16 1.35-1.7 1.13-1.02 1.13-1.24.34-.68.12-.68.11-1.47.11-.57.34-1.01 1.47-2.04.68-.9 2.38-4.41.22-.68.12-1.36.22-.68.34-.68 2.72-4.18 2.14-3.17.68-1.13 2.15-4.52 1.92-4.53 2.04-3.84 2.71-3.73 3.17-3.96.9-1.7 2.04-3.17 3.28-4.63 3.85-6.67.9-.57h2.26l.68-.11.68-.46.79-.67.68-.91.56-1.13.23-1.47.11-2.49.12-2.15.45-1.47 3.28-4.07 2.03-2.26 2.72-2.71 4.86-4.87.34-.45.34-1.02v-.45l-.11-.57-.46-.79-.56-1.24-.11-1.02.11-.68.34-.45.45-.45 1.47-.79 1.58-.57h1.02l.23.11.34.23.34.9.34.68.34.23.67-.23 3.4-2.71 4.63-4.98.8-.56.79-1.02.9-1.81.11-.79.46-.23 2.03-.45.91-.34 1.47-.9.34-.46.34-1.35 1.01-1.81 1.14-1.59 2.26-2.37.56-.79.23-.12h.68l.79.46.45.11.34-.11.91-.57 1.35-1.24.12-.23v-1.02l-.34-1.24.11-.45.79-.8 3.05-4.18 2.83-2.94 1.13-.91.79-.45.8-.56 1.13-1.47 1.24-.91.91-1.02.56-1.24.79-1.02.91-1.69 4.75-5.55 1.81-2.48 1.58-2.38.45-.9.57-.68.45-.57.34-.45.11-.34.68-.34.57-1.24 2.03-1.47v-1.13l.45-.68 1.25-1.47.22-.23.57-.23.68-.56 1.13-1.36 1.13-1.58.23-.45.45-.8 2.03-2.14 3.06-3.74 2.03-2.94 1.81-2.26 1.47-.22.57-.23.34-.34.45-.68.11-.68v-1.13l.12-.45.34-.68 3.73-4.52 1.47-1.59 2.71-3.16 3.73-4.64.46-.34h.56l.23.11 1.02.91.56.45.45.11.46-.11 1.69-1.58 1.93-2.26v-1.36l-.34-3.51v-1.24l.11-.68.11-.23.91-.79 1.02-1.02 1.92-2.26 1.24-.34.68-.34 1.81-1.81.57-.45 2.26-1.13 4.52-3.73.45-.45.12-.68.11-1.92.11-.34.34-.34h.34l.57.11.9.45.45.12 1.59-.57.34-.11 1.58-.91 3.28-2.71.34-.11.34-.12.45-.22.68-.68.79-1.13.45-.34 1.59-.79 1.35-1.25 1.25-1.36.11-.22.45.34.12.22.22.12 1.13-.91.45-.22.57-.46.34-.45.34-1.13.23-.34.33-.23 2.04-.67.34-.34.45-.57.11-.68.12-1.01v-1.36l.11-3.51.11-.79.23-.23.57-.34-.34-3.39.34-.34h.45l.22.34 1.81 2.26 1.02.8.45.22.91-.22 2.6-2.27 1.7-1.35 1.58-1.59 1.47-1.69 1.13-1.47 1.7-1.81 1.24-1.25.45-.22 2.38-.91 2.03-1.58 1.25-2.15 2.49-3.51 1.13-1.58 1.69-2.03 1.25-.8 1.13-.9 2.15-2.72 1.47-1.69 3.39-2.83 2.04-1.58 3.05-2.04.23-.34v-1.13l.11-.34 1.02-.9.34-.12.56.23h.79l2.49-3.84.68-1.7.56-.91 1.59-.79.68-.45.45-.68.56-1.58.46-.79.68-1.02 2.03-1.02 1.7-1.24 1.01-.91.91-1.47 1.58-2.03 2.49-3.06 4.07-5.76 2.04-3.17 3.5-5.54 3.62-6.22.91-1.25 2.6-2.37 3.62-4.53.45-.79.57-.79 1.92-1.81 2.37-2.49.91-1.24.56-1.13.68-.91 2.83-3.05 1.7-1.81 2.6-2.94.45-1.13.79-1.47 2.49-2.72.56-.79.57-.45.56-.23 1.48-.11.56-.34.68-.68.11-.45.68-.9.57-.57 1.47-.23.67-.33 2.27-1.93 2.94-2.26.56-.56.57-.34 1.36-.23.33-.23.34-.9.23-.57.57-.79 1.13-1.02 1.13-1.01 1.13-1.25 1.24-1.13 1.36-.79.9 1.02 3.96 4.07 6.34 6.56.11-.23 25.22-30.65 7.8-16.73 6.11-7.58 34.04-10.86 18.21 6.22 15.15 5.77 13.8 8.48 6.22.79 20.92 10.86 22.84 8.26 13.35 5.42 35.28 37.44 46.71 18.89 9.39 2.82 18.77.45 23.86 11.88 8.37 4.64-10.85 25.89 3.95 31.22-1.47-.23-3.95-.68-3.85-.56-10.86-2.49-10.29-2.71.23.45.34 1.58.68 4.53.45 1.58.9 2.94.46 1.13.79 1.47 1.35 2.04 1.25 1.81 3.62 4.41 1.35 1.69 1.7 2.38 2.26 3.39 2.83 4.64 2.6 4.97.57 1.13 1.69 4.3 1.7 4.98 1.7 5.65 2.94 10.86.56 2.83.68 4.18.57 5.54v2.6l-.34 1.81-3.17 6.79-3.28 7.58-1.24 2.82 1.47.8 2.03.9 10.75 3.39 2.14.46 1.59 13.11 2.03 19.23 62.2-6.45-4.07 17.99-47.04 4.97-7.47 19.45 3.96 36.53.23 1.7 15.26-1.7 14.37-1.47 2.03-5.54 1.25-3.62 2.48 2.26 5.21 4.64 1.69-2.03 2.6-2.94 3.17-3.96 2.6-3.51 2.94-4.07 11.65-17.98 4.3-6.56 8.03-10.41 5.2-6.33 4.18-5.31 7.81-10.07 4.18-4.86 7.35-7.69 5.09-4.53 11.31 15.95.45 3.96 2.15 20.24 2.6 24.43 2.72 25.11 2.6 24.99 1.7 16.4 11.08 105.51-79.39 3.4-53.72 2.83 5.54 53.26 3.51 32.12 1.58 14.59.57 6.11.9 8.93v.34l1.24 11.54 1.13 10.51.12 1.25.22 2.15.23.9.11.45.23.57.9 4.3-5.08.45-3.96.34 1.81 11.87 2.48 19.34.68 5.32.12 3.16.11 2.94v2.38l-.11 2.15v2.83l.45 3.84.34 1.81.45 1.81.57 2.04 1.58 3.84 5.77 8.6.79 1.24 1.13 1.92 1.47 2.72.56 1.01 2.38 5.43.9 2.94 3.74 13.01 2.03 5.99 5.88 18.55 3.17 9.61 1.58 5.09 1.13 3.96.57 3.06.34 1.58.68 1.69-.79-.33-.34-.34-.23-.34-.23-.46-.22-.9-3.06-1.92-4.29-2.38-1.7-1.02-4.07-3.28-3.62-2.82-1.02-.68-1.81-.79-.79-.23-3.28-.23-2.03-.11-3.51.11-2.04.23h-1.58l-2.26-.34-2.26-.45-2.26-.45-7.92-.68-4.75-.57-6.79-.9-1.13-.11-1.69.11-1.93.45-4.63 1.7-3.96 2.03-.79.57-1.13.79-2.49 2.49-6.22 7.24.45 6.1-5.43.34-20.81 1.36-10.29-1.02-89.23 5.09-76.22 3.39 17.08 147.36-121.35 5.77-10.97.45-3.73.23-10.52.57-3.06.22-11.08.34-31.33 1.7h-.79l-.68.11h-.9l-.68.11-.68.12-.79-.12-15.61.57 2.72 31.1 1.02 10.97-.34 1.47-.46 1.81-2.37 5.32-.11 1.24-.91.45-1.24.45-1.36.91-1.47 1.58-2.37.91-.34.34-1.13 4.29-2.49 3.51-5.2 4.18-4.19 2.72-1.36 1.7-1.35 1.69-3.06 4.07-1.92 2.83-.68 2.04-2.15 1.35-3.73 2.38-4.52 1.69-5.66 3.62-6.9 1.93-5.88 1.35-9.84 2.83-3.39 2.38-2.6 1.92-5.31 5.09-4.98 2.6-2.6 2.49-1.81 2.26-1.81 1.58-.68 1.81z" stroke-linejoin="round"/></defs><use xlink:href="#d" fill="#09757a" stroke="#097d9b" stroke-width="5.76"/><defs><path id="e" d="M1184.86 2568.7l-8.36.9-14.37.34-21.37 4.19-22.51 9.61-19 7.12-28.95 8.03-19.79 2.49-10.29 1.25-26.8-6.34-5.21-2.15-17.64-7.23-8.37-4.64-23.86-11.88-18.77-.45-9.39-2.82-46.71-18.89-35.28-37.44-13.35-5.42-22.84-8.26-20.92-10.86-6.22-.79-13.8-8.48-15.15-5.77-18.21-6.22-34.04 10.86-6.11 7.58-7.8 16.73-25.22 30.65-.11.23-6.34-6.56-3.96-4.07-.9-1.02h.11l1.47-.91 1.7-1.8 3.62-3.4 2.83-3.05 1.01-1.25.79-.79.34-.11h.12l1.13 1.92v.34l-1.25 1.59-6.56 7.46-.11.45.23.45.79 1.14h.34l1.24-.46 1.36-1.35 6.79-7.92.56-1.13-.11-.79-.45-1.02-1.7-2.15-.11-.68.11-.22 1.81-1.59.22-.22-.11-.46-.68-.9-.11-.34.11-.57 1.02-.9.23-.23h.45l1.47 1.36.23.11.33-.11 3.74-3.85v-.22l-.34-.34-.68-1.13-.11-.23.22-.34.45-.22.34.11.8 1.02.22.11h.34l.91-.9v-.68l-.68-1.02-.12-.45.12-.23.22-.23h.23l.68.8h.22l.57-.57-.11-.23-.34-.67-.12-.23 1.02-.9.68-1.02.34.11.23.23.22.34.34.22.23-.11.45-.23.11-.34-.11-.34-1.02-1.01v-.23l.23-.45 1.47-1.59.68-.22.11.22.34.23.34.11h.45l.45-.22.12-.23v-.22l-.68-.68-.12-.34v-.34l1.48-1.47.45-.12.22.23h.23l.45-.45.23-.23-.11-.56.11-.46.34-.56.9-.91.45.46.23.11.68-.57v-1.35l.45-.68.23-.34.45.11.23.12.34-.34.22-.46v-.56l.23-.45 4.97-5.32 5.55-5.2 3.39-4.64.34-.45 1.13-1.24.68.67h.22l.23-.45-.11-.34-.12-.22v-.34l.12-.46.22-.22.12-.11.56.45h.23l.22-.12.12-.45-.12-.34v-.68l.34-.67 6.22-6.22 3.06-2.95 4.29-4.07 1.81-1.58 2.15-1.24 1.81-.23.68-.45.23-.23.11-.56.57-.68.33-.23.91-.22h.34l.45.22.79 1.02.68.45 1.02.23h.56l1.47-.79h.57l1.47.45 1.36.22.9.34.57.12.68-.12.45-.11.22-.45.12-.68-.23-2.49-.79-5.54.11-.34 1.93-1.13.33.11.8 2.6.22.68.34.34.57.34.68.23 2.6 1.47 4.18 1.81.34.22.23.23.79.9.56.8.57.11h.34l1.58-1.24 1.13-2.72.34-5.54-.45-9.39.9-1.13 1.02-.11.68.68.68 1.47.68 3.62-.34 17.07.11 1.47.79 1.13 1.13.8 1.14.9h2.94l1.81-.11h1.01l.91.34 1.02.34h.67l.34-.12h.12l.22-.34.34-1.58-.11-2.71.22-1.81.46-6.34.56-3.95.23-3.96-.45-4.41-.23-3.51-.79-1.58.11-.79.45-.57.8.45.79.79 1.24 2.38.68 7.92.11 3.84v4.07l.12 1.81.45 2.04.34.34.9.34 1.36-.46 1.13-.67.91-1.14-.8-1.81.34-.67-.11-1.36-.79-6.33-1.02-9.05-.45-3.39h2.83l12.89-.91 4.3-.34 1.47-.34 1.24-.45 1.24-.57 2.27-1.47 1.69-1.24 1.25-1.24 1.01-1.02 1.7-1.7 1.47-1.47-.79-1.02-.34-.79-1.81-2.49-1.36-3.95-1.13-3.74-1.13-4.52-.9-3.96h.79l.34.34.68.91.45.79-5.32-24.43-28.16 2.26-16.96 1.7-11.42 1.58-17.31 1.47 1.47 14.25.23 2.38v4.18l.11 1.02.57 3.84-6.67.23-4.41.11 5.2 18.32 1.47 5.32-11.76 1.02.67 22.5-4.86 4.07-12.78 12.56-8.71 7.57-2.6 2.38-5.09 5.99-7.12 9.39-24.77 19.57-3.62-7.69-10.63 4.07-3.62-6.22-1.58-2.72-1.36-2.15-1.47-2.15-.68-.79-3.16-3.84-1.25-1.36-1.35-1.58-2.15-2.15-5.43-5.09-2.15-1.92-2.15-2.04-1.81-1.58-.9-.79-.91-.57-.68-.23-.79-.67-2.94-2.15-2.26-1.47-1.47-.68-2.49-1.25-1.24-.67-1.7-.91-1.47-.79-.79-.34-2.6-1.36-3.85-1.81-2.03-1.01-.11-3.28-.57-4.64-1.92-23.19h1.47l7.91-.9 5.66-.9 3.5-.57 1.93-.45 1.24-.23-2.71-.23-1.25-.56-1.47-.91-1.35-1.35-.57-.79-.79-1.47-.45-1.25-.34-1.69v-1.02l-.12-.91v-1.69l.23-.8.34-1.01 1.24-2.38 1.25-2.26 3.16-4.64-.56.12h-.57l-.79-.12-.9-.45-2.04-1.36-.79-.68-1.02-.67-1.58-.8-1.13-.45-.91-.11h-1.35l-2.27.34-3.39.45-5.43.45-3.16-7.69v-1.92l.34-.79.45-.45 1.02-.57-.57-5.65 2.26-1.25 1.13-.79 5.2-1.92 3.17-.57 2.83-.34 2.71-.45-.11-5.43 1.47-1.24 4.07-3.62 9.73 3.73 1.92 15.83.34-1.69 1.47-6.45 4.41 3.06.9.67 2.15-1.35 2.72 5.2.9 1.7.45-.34 2.49-1.7.68 1.13 2.83 4.75 2.6 4.64 3.62 6.78 6.78-5.2-1.24-9.16-.9-18.21-2.38-10.06-.57-1.7-1.01-4.86-.57-1.36-.68-3.05-.56-2.72-.45-1.02-.57-2.26-.68-4.07-.34-1.02-.9-6.1-.23-.8-.34-4.07-.22-.79-.46-5.09-1.01-10.18 6.22-1.01 2.48-.34-.56-8.6-.91-7.35.34-.23 2.38-2.48-.23-.46-.45-.34-2.6-2.37-5.77-5.2-.9-.57-1.25-.34h-.56l-2.27.23-5.65.56-11.08 1.02-5.88.68-5.09.79-.46-3.39-.56-4.75-5.88.57-1.47.11-.68-6.79-1.92-1.92-.12-.11v-.34l-.34-4.53v-4.41l-2.26-5.99-.68-2.71 1.59-3.28.9-1.14 1.7-1.35 1.02-.68 1.92-.45 1.24-.46.34-.67-.34-1.59-.56-.56-.79-.12-1.36.23-.23-.45.12-.46.33-.9.46-.79.11-1.25-.79-5.88.22-1.01.46-1.25.11-1.13-.23-1.13-.45-.79-1.47-1.59-.34-.9.34-2.71 1.36-1.25 1.02-.45 1.47-.11 1.35.11 1.36.23.79.11.79-.34.23-.45v-1.59l-1.36-1.24-5.54-4.41-1.24-.68-1.36-.11-1.13.11-.91.23-2.26-.68-2.03-1.47-2.72-1.13H577l-.91.22-.79.68-.79.91-.68 1.13-.79 2.6-.12 1.02-.56.68-.68.56-1.24.11-2.49-.22-1.36.11-.79.34-1.47.45-5.77.45-2.03-.33-.57-.12-1.47-.68-1.02-1.13-.68-1.13-1.01-2.71-.34-1.36.45-.79.9-.11 1.25.33 1.24.23 1.25-.11 2.94-.79 1.01-.34 1.13-.68.91-1.25 4.18-5.2 1.36-1.02 2.38-.9.56-.23 1.7-.9 1.24-1.25.57-.9.79-.79.68-.45.45-1.25.11-1.58.23-1.02 1.13-1.02 1.13-.22 1.24-.12.57.23 1.58.68.46.68.11.79-.11.9-.46.68-.45 1.02v1.02l.34.34.68-.23.79-.68.79-.56h.68l1.24.34.46.56.11 1.13.23.91.68.22 1.01-.56 1.25-.79.9-.8 1.02-.11 1.13.23 1.13.68 1.02.9 1.13.79.9.91.46.68.79-.12.9-.45 1.25-.9 1.47-.46 1.58-1.47.34-.68-.34-.9-1.24-.57-.34-.79-.34-4.18.11-3.62.11-1.25.34-1.13.46-.45h.34l.33.11.34 1.02v2.6l.12 1.25.45 1.13.57.79.79.57 1.35.67 1.59.57 2.26 1.36 1.02.11 1.58-.23 1.13-.22 1.81-2.49.91-.79 1.01-.68 1.81-.68 1.81-.23 2.83.46 1.02.22 1.01-.11.34-.11-.11-.57-.56-.45-.34-.23-.91-.22-.79-.34-.45-.45-.45-1.14-.23-1.35-.23-.91 1.25-3.16 3.16-22.06-.45-5.99.34-5.54-.45-3.51-2.38-4.75-2.03-4.18-.45-11.77-1.59-5.76 24.54 2.82 20.47 2.38 7.13 3.17 9.5-15.5-2.72-7.58-11.87-12.77 2.71-1.81v-1.47l.12-1.59-.91-14.13.79-1.81.45-.68 1.59-3.51 8.14-17.98 2.83-6.22.34-.34.11-.34.11-.45v-.57l.12-.79-.12-.45-.22-2.38-.23-1.01-.34-.8-.34-.45 1.25-.11-1.25-2.15-3.62-6.33 8.6-1.36-.34-3.05-17.98-18.55-2.15-1.7-14.36-13.68-.68-8.71-1.25-1.13-1.35-.45-2.27-.46h-1.58l-1.47.12h-1.47l-1.7-.23-3.05-1.47-2.71-2.15-1.02-1.13-1.24-1.47-1.7-2.26-1.13-1.7-.91-1.58-1.92-2.83-.57-.56-.9-.34h-1.02l-1.81.56-1.35.57-.91.56-.9.23-2.04.45-.9.34-.46.11-.45-.22-1.02.34-.45.11-.45-.23-.68-.22v.22l-.11 1.02-4.19.57-2.26-.57-2.15-1.02-1.69-1.35-1.59-1.7-2.49-3.17-2.48-3.61-3.96-7.02-.91-1.47-20.24-32-5.54-10.97-1.7-2.49 1.13-.23 1.02-.11-.79-1.81-.45-1.47-.57-2.03-1.24-4.3-2.38-9.16-.56-1.81-.46-.68h-.67l-2.04-8.48-1.7-5.54-.67-2.95-.34-2.14-.12-.8v-.9l-.11-7.13 1.02-10.17v-2.94l-.34-2.27v-.45l-.34-1.02-.91-1.92-1.13-1.58-1.13-1.02-2.94-2.15-8.03-4.86-1.47-1.13-1.13-1.36-.79-1.13-.34-.68-.11-.79v-1.24l.11-.91.11-1.24.91-4.98 1.13-5.32.11-.67.34-2.38v-8.82l.23-6.45-.12-1.13-.22-6.9-.91-6.67-.34-2.37-1.8-8.03-.34-2.49-.12-.45-.11-3.4-.23-4.52-.45-4.52-.34-1.7-.79-2.15-3.73-7.46-1.7-3.85-.56-2.71-.23-1.59-.45-2.6-.57-3.62-.34-3.16-.11-.79v-.91l.11-7.46.34-4.3.23-2.94.56-4.75.57-7.13.11-1.81.12-4.18.22-7.01 1.7.56 11.65 2.72 5.31.9 3.39.12 1.59.22.79.23 1.36.34 7.8 2.49 3.62 1.13 2.03.45 1.36.11 3.51-.22 4.07-.12.79.23 1.47.56 1.13.8.91 1.01 2.15 3.06 2.03 2.71-.9-2.15-.8-2.71 1.59-1.59 6.22-6.33-2.15-2.6-2.6-3.28-1.36-1.58-2.6-3.06 6.67 1.47 4.64.57.68-1.02 6.22-3.62 9.61-4.86 1.02-.68 1.47-1.24 3.05-3.85 4.53-5.43 4.29-4.75 5.09-2.71 1.25-.57 2.37-.56 3.85-.68h.79l3.73.23 3.96 1.58 1.58.56.57-.11.68-.22.79-1.02.79-1.25.56-3.16 49.88-16.97 21.49-9.38 4.29-1.25 49.2-70.23 3.96-5.77 3.73-6.67 1.58-2.37 24.88-48.07 5.66-9.95 7.69-15.83 7.46-20.59 9.39-26.01 30.76-19.11 15.83-71.93 58.81-75.77 61.18-56.89 70.46-91.94 72.38-69.9 53.94-56.77 52.25-69.1 52.25-68.99 52.36-69.1 78.6-88.66 78.6-88.67 4.41-5.65 10.52-12.44 7.57-6.45 8.37-9.73 10.86-12.89 15.61-15.6 10.06-13.46 4.41-7.01 9.73-13.69 9.72-10.06 18.21-29.75 14.7-28.38 4.98-11.88 5.43-12.89 8.03-29.52 4.29-27.93 16.18-31.44 18.66-26.69 17.3-30.2 9.73-24.65 8.03-14.93 15.83-23.87 18.43-30.64 20.58-27.6 13.8-26.24 5.2-24.88 1.93-5.31 1.13-14.48 7.35 54.17 2.71 19.12 1.36 10.06 1.24 9.61 3.85 32.46.11.79 11.99 87.43 7.58-8.49 11.08-12.1 6.9-7.8 2.94-2.83 4.18-4.86 6-6.22 6.9-8.03 6.33-8.26 6.22-9.61.9-2.49 7.92-13.68 7.58-13.91 1.69-2.15v.34l.8 1.69.9 2.04 5.54 4.07 4.07.68 1.59 2.37.68 8.15-.68 2.15 8.93 10.4 1.92 4.41 5.66 56.77-2.72 16.06v4.41l1.59 3.06 8.93 7.24 6.11 2.03 4.97 1.47 3.51 1.02 3.85 1.24 3.05.91 2.26.68 1.7.68 1.81.67 20.01 8.83 2.38 1.13 1.47.56 1.58.45-1.92 2.27-2.49 2.6-4.07 2.15-2.37 2.26 1.01 14.59-5.2 13.79-4.64 5.21.8 25.33.79 1.13 1.35 8.71-1.01 1.47 2.03 2.94 1.59 10.74-.34 2.49 1.92 16.17 2.83 2.61 4.86 4.18 1.24.9 2.49 1.81 1.7 2.38 1.35 3.84 1.14 10.63.67 24.89.12 4.75.22 9.5 1.13 41.16.91 15.04-3.85 4.07-2.48 2.72-8.26 9.05.79 5.99 2.49 19.79-2.37 11.2-5.89 7.35-5.42 4.86 12.55 6.67 7.35 3.06 4.86 3.62-1.24 1.47-14.59 18.43-15.27 19.91-7.8 10.29-9.16 10.74-9.27 7.69-9.5 2.6-15.72.79-15.27-1.24-18.1-1.24-4.63-1.81-7.13-.34-11.42-2.26-9.73-1.36-16.85-3.05-20.24-4.42-17.87-2.26-8.37-.11-4.3 1.92-4.74 2.15-3.06.79-5.31 4.98-6.11 7.58-5.09 7.35-6.33 8.59-4.41 6.11-10.41 14.36-6.67 11.65-6.67 10.41-4.75 6.67-8.03 9.84-6.56 8.48-4.53 9.05-3.84 8.03-1.92 10.06-1.59 9.61-.67 13.12.45 2.72 3.39 20.24 8.6 19.79 11.64 19.57 12.44 19.22 15.5 17.65 9.38 6.67 12.44 7.01 18.78 8.14 7.8 3.28 14.02 7.58 10.52 3.28 7.92 3.73 11.76 5.66 7.46 4.86 9.73 7.92 6.33 6.1 11.65 11.43 5.77 7.12 11.31 14.02 16.17 15.84 17.87 14.36 16.06 8.71 15.38 7.24 18.77 10.06 13.57 7.47 10.63 7.23 10.18 6.11 11.88 7.24 5.2 5.2 3.62 2.72 9.84 9.16 10.4 11.31 10.29 15.15 5.77 12.67 1.47 3.05 7.69 18.1 2.04 9.84 2.94 10.4 2.71 11.65 1.02 5.77 1.24 14.7.34 16.96-.79 12.67-2.49 35.96-1.02 20.02v22.85l-1.24 35.28-.68 19.79-3.73 13.12-2.49 9.73-2.94 9.61-3.39 6.56-9.39 7.92-8.59 4.41-22.06 8.82-25.78 10.29-7.35.9-4.19.57-8.82 8.14-10.18 3.28-8.48 3.73-6.44 2.72-34.84 11.53-35.17-3.39-38.34-8.48-14.02-6.79-2.03-.34-.34 4.98-1.36-.57-10.07-4.86-1.69-1.13-7.58-7.46-2.6-2.72-3.28-3.39-1.47-1.24-12.21-10.18-10.97-8.48-19.68-16.06-1.47-1.25-9.16-8.71-6.45-6.56-9.05-11.31-3.05-4.18-3.51-4.75-7.12-9.16-7.8-8.93-7.02-8.94-13.91-16.74-.68-1.01-.67-.8-1.13-1.69-4.42-4.41-1.24-1.36-2.94-3.85-2.37-2.6-2.15-2.15-1.59-1.58-6.22-5.99-1.01-.79-.57-.68-.34-.8-.34-1.01-.22-1.25-.23-.68-.57-.56-.79-.68-1.36-1.13-1.01-1.13-.57-1.02-.9-2.03-.91-1.14-1.47-1.13-.79-.79-.68-.79-.45-.9-.79-2.49-.45-.79-.68-.57-.91-.34-.68-.45-.45-.45-3.96-7.36-2.15-5.42-.56-1.25-2.6-4.63-2.38-5.55-1.58-3.16-1.02-1.59-.68-2.6-2.37-4.97-1.25-2.27-1.47-2.37-.45-.9-.45-1.59-.68-2.26-.34-.79-1.02-1.25-.68-1.13-.33-.68-.34-1.69-.8-1.92-.45-.8-1.81-2.82-4.75-8.37-.9-1.81-1.25-2.04-.33-1.02-1.93-2.48-.56-.91-1.36-4.07-1.47-1.81-1.7-3.17-1.47-3.73-.68-1.58-.45-1.25-5.09-7.12-4.29-5.09-4.19-4.52-6.67-7.24-3.17-3.17-4.07-4.18-10.74-9.61-11.43-5.21-26.01-3.28-30.3-2.26-6.11 2.49-8.37 4.3-9.84 3.73-13.12 5.31-14.59 6.68-10.29 3.62-4.64 1.58-9.83 4.52-10.3 9.5-13.23 14.14-1.58 1.92-2.83 3.39-11.65 14.37-.34 1.35-1.24.57-.68.79-.45.57-.45 1.35-2.49 3.85-1.81 2.71-.79 1.36-1.59 3.39-.56 1.25-.45.9-1.02 1.47-1.7 1.81-.56.79-1.59 3.85-1.01 3.17-.68 2.71-.79 3.17-.91 7.23-.34 3.51v2.49l.34 3.96v1.58l-.34 3.96-.11 4.64.79 10.51.57 12.1.11 1.36.22 3.85-.33 10.63-.91 14.7v1.58l.34 4.98.45 2.71.45 2.04.8 2.15 2.26 5.43.45 1.13 1.24 2.82.91 1.25 1.92 3.05 1.13 2.15 2.83 4.64 1.47 1.13 1.81 2.03 2.15 2.72 2.6 2.49 4.64 4.29 2.15 2.04 4.18 3.28 2.26 2.15 2.6 2.37 1.81.91 1.25.9 2.03 1.59 3.62 3.28 2.71 2.03 2.95 2.83 1.47 1.47 4.18 5.2.9.79 1.36 1.47 2.04 2.72 1.47 2.15 2.49 3.39 2.03 2.94 2.94 3.73.68.91 4.64 8.25 2.26 3.51 3.28 5.65.11.23 1.7 3.5 4.07 9.17 2.71 6.89.46 1.59 1.13 2.37 1.92 4.75 1.02 3.17.11.23 3.05 10.17 1.13 3.51.46 2.15 1.24 5.09.79 4.86 1.47 6.9 1.59 8.37.79 7.24.11.67.23.68.68 1.25.45 1.13.22 1.02v.9l-.11 1.13-.34 1.02-.45 2.94.11 1.02.34 1.13.68 1.58.23.68v.68l-.57 2.37-.23 1.25v1.47l.8 5.54-.12 9.73-.11 1.69-.23 4.87.46 12.89-.23 11.42.11 1.92-.45 5.43-.11 3.06-.79 4.41-.46 3.73-.11 1.58v2.26l.11 1.93.34 1.24.12.11.11 1.25v1.02l-.34 2.14-.11 2.38.45 5.77-.11 2.15.11.79.79 3.5 1.02 3.17.56 1.58 1.36 2.49 1.25 1.7.56.68.34 1.13.57 1.24.67.68.91.56 1.02.46.68.56 1.8 2.6 2.15 2.04.8.57 1.8.9.8.45.45.68 4.64 3.62 1.24.9 2.15 1.93.56.34 1.47.45.46.34 2.26 1.92 5.09 3.73 4.75 3.51 2.15 1.81 3.5 2.6 1.47 1.47.68.68.68.56.79.46 1.36.67 4.75 3.28 1.69 1.7.91 1.02 1.13 1.02 2.37 1.24.46.23 1.13.34.56.34.57.56 1.02 1.58 1.35 1.36 2.6 2.04 3.4 2.03 3.5 2.83 1.93 1.36 4.41 2.26 2.15 1.36 4.97 2.82 6.33 3.62 6.34 2.72 4.86 2.15 2.26.9.57-.45 1.36-.79 3.05-.68 2.71-1.02h.23l.45-.45.11-.57v-.68l-.11-.56-.22-.45-.46-.34-.9-.34h-1.02l9.27-9.96 2.27-1.58 2.14-.68 2.27.23 1.81 1.13 2.03 3.39 1.58.79 2.27.23 2.03-1.24.45-2.38 3.62-5.31 3.4-8.49-2.72-22.28.45-4.97 2.04-6.9 1.7-4.64 1.01-1.92 1.7-.79v-4.3l.11-.68.23-1.35.9-1.25.34-.68 1.25-3.16 8.25 5.99 7.24 5.54 6.11 4.41 5.2 3.62 2.38 1.7 7.35 5.88 10.06 7.58-14.59 3.5-2.03 37.1-26.81 37.09-.22.57 7.69 6.9 1.92 2.03 3.05 3.62 7.58 8.14 3.96 3.96 2.37 3.17 2.72 3.84 2.83 3.28 3.84 4.41 1.7 2.49 3.39 4.07 6.56 8.94 1.7 1.81.9.9 1.13.68 1.13.68.91.56.56.68.34.57.34.79.34 2.6 1.81 3.17.91 2.49 2.14 3.61 2.83 5.66.57 1.36 1.13 5.09 8.14 29.63-3.51 34.26-8.93 10.41-9.27 9.95-28.16 19.11-52.03 29.63-41.61-18.77-6.22-27.59-10.29-16.29-1.02-1.7-4.19-6.56-9.84-18.32-6.1-13-16.06-51.46-16.06-35.51-14.48-37.32-7.01-10.86-22.62-10.29-13.91-5.54-28.04-4.98-10.86-.68-12.33-.79-26.69-1.81-1.81-.11-2.94-.12-57.9-8.14-9.95-.45-50.67 5.99-39.13 16.74-14.02 7.35-42.86 38.45-1.25 2.27-14.36 8.48-5.43 2.6-36.53 11.2-13.45.11-72.72-39.92-53.5-32.01-17.41-8.14-5.66-1.92-1.81-.68-27.7-6.22-18.66 3.96-4.75 2.37-25.79 43.77-15.72 26.69-10.52 11.19-.45.57v.23l-9.61 17.3-6.22 9.73-13.12 48.17-2.37 5.43.33 5.88v1.47l-.9 5.88-.45 5.77-.34 2.49-2.38-.11-1.13-.34-.56-.23-.57.23 1.36-9.84.79-6.56 1.36-11.54-4.64-1.13.11 1.7-9.27 13.23 2.15 8.14.68 3.06.45 2.03.45 1.93.45 1.58.23.45 2.38-.9 2.03-.91h.11l.23.23v.22l-.11.8-1.25 3.16-1.58 2.6-2.15 2.6-1.47 1.25.57.34.45.68.34.34 10.63 6.22-.11.22v.68l.45 1.36v1.02l-.11 1.35-.23.68.11 1.47.23.91.34 6.33-.12.68-.22.45-.45.11-.46-.11-1.13-.45h-.45l-.34.22.11.68 1.14 4.3.56 2.49.23 2.37-.12 2.49.12 1.81.22.34.34-.11.23-.23.22-.68.23-1.36.11-.22h.12l.34.79 1.35 6.22.23 2.83-.23 3.16.57 6.34v3.28l-.11.79-.34.45-1.13.11-1.81.12-1.02.56-.23.34v.45l.34.57.79.45.57.34h1.69l.46.34.34.68v.9l-.23 2.04-.34.68-.45.23-.91.11-1.13-.11-1.01-.46.56 2.6.57 2.72 1.24-.23h1.24l1.25.11 2.03.68 1.47 1.13.34.57 1.47 5.32.91 2.14.56 1.14 3.74-3.28 1.58-1.59.9 6 .34 2.37 1.81 4.3 13.23 34.49.23.57.23 31.78 4.07 33.93 1.35 4.18 15.05 43.77 2.71 7.8 12.78 14.48 18.77 21.14 72.95 39.47 40.71 11.43 5.2 1.81 6.45-1.47 8.82-2.38 40.26 26.8 2.15 1.59 1.7 1.13 2.37 1.58.11 38.34 10.75 7.58 1.13.79 3.62 2.6 23.41 22.73 27.25 28.16 1.81 1.93 17.19 17.75 16.17 16.85 29.75 35.51 15.72 18.66 5.88 6.56 2.49 3.51 4.52 7.35 9.5 16.96 8.59 22.96 1.47 21.26-14.47 20.93-22.85 9.16-10.97 1.13z" stroke-linejoin="round"/></defs><use xlink:href="#e" fill="#004249" stroke="#00465f" stroke-width="5.76"/></svg>