<svg width="4.33in" height="384" viewBox="0 0 3114 2880" xmlns="http://www.w3.org/2000/svg" xmlns:xlink="http://www.w3.org/1999/xlink"><path fill="#fff" d="M0 0h3114v2880H0z"/><defs><path id="a" d="M1667.35 1688.04l-7 .09-.1-3.99v-5.74l-.1-6.71-.1-7.11v-1.07l-.09-8.47.09-1.16.3-2.05.19-.48.29-1.08.59-1.36.48-.87 2.34-2.92 1.26-1.85.49-.88.19-.78.49-1.46.1-.87 2.53.09 3.6-.09 1.85-.2 9.92-.19 1.17 2.72 4.19-2.24-.98-1.85 1.85-1.36 4.77-4.18 2.53-1.95 2.04-1.56 1.76-1.26 4.28-3.31 3.6 6.81 1.55 2.53 6.43 9.05.78 1.17.58.78 2.43 3.7.39.58 1.56 2.34 1.56 2.43 2.72 3.99.2.29 5.93 8.18 3.6 5.06 1.07 1.56 1.56 2.33-1.56.2-2.24.58-15.08 3.51-10.41 2.53-3.21.78-7.59 1.55-2.73.78-.78.2-1.55.29-4.87.87-3.99.69-3.5.48-1.17.1-1.07.19-4.48.39-4.38.1-4.28.1z" stroke-linejoin="round"/></defs><use xlink:href="#a" fill="#cee3e4" stroke="#cef5f5" stroke-width="5.76"/><defs><path id="b" d="M3013.38 1887.46l-2.04.58-3.41.39-11.19.2-1.75-.1-2.05-.29-1.55-.39-2.14-.88-10.13-4.38-7.49-3.11-14.3-5.55-1.27-.48-7.49-2.83-5.06-2.04-4.48-1.66-.97-.38-1.27-.78-.58-.39-.88-.78-1.26-1.27-1.17-1.36-1.07-1.46-.97-1.95-.29-1.07-.3-1.07-.39-1.75-.58-2.92-.39-3.11-1.17-6.82-3.6-19.95-1.36-7.88-.68-4.09-.58-2.92-.69-2.04-.68-1.37-1.26-1.65-.97-1.17-.78-.68-1.46-1.17-1.17-.58-1.56-.78-1.65-.39-.98-.1-8.75-.58-3.12-.1-3.31-.39-1.84-.19-5.36-.97-6.52-1.17-3.69-.68-4.19-.69-1.85-.38-2.63-.78-1.75-.59-3.11-1.65-5.06-3.31-22.58-14.41-5.84-3.79-3.31-2.04-3.69-2.44-2.44-1.17-.87-.29-2.43-.58-1.37-.1-8.17-.49-13.24-.68-8.56-.48-2.24-.1-6.32-.49-3.99-.1-2.24-.29-.58-.09-2.63-.98-2.14-1.36-1.46-1.07-3.31-3.12-5.06-5.15-3.21-2.92-1.07-.78-16.94-101.71-3.5-4.48-3.6-4.67-16.64-21.41-15.08-19.37-17.42-22.38-3.02-3.9-.39-.77-.19-.69-1.17-3.11-.78-2.24-.97-4.09-.98-4.28-.19-1.46-.1-1.17-.29-3.5-.39-7.59-.87-19.08-.3-9.34v-4.28l.1-4.48.2-6.62-.1-2.24-.2-4.18-.19-5.06-.1-8.37.1-5.36-.68-17.61v-17.23l-.2-7.2-.29-12.65-.1-3.41.1-1.95.2-.87.68-1.17.68-1.07 6.62-7.2 5.64-6.14 3.5-4.18 2.34-2.63.87-1.07 8.57-9.54 3.01-3.5-.87-.97-.59-.59-1.45-.87-.69-.3-1.46-.39-1.26-.29-6.72-.87-4.57-.78-5.55-.68-14.2-1.95-5.65-.78-4.18-.39-4.19-.29-2.14-.1-19.17-.68H2625l-4.08.29-2.82.2-14.8 1.36-11.28 1.17-4.77.68h-3.7l-3.7-.19-4.38.29-2.62.19-4.29.49-4.96.49-10.31 1.26-1.56.2-7.59.58-7.5.39-7.29.39-2.83-.1-3.11-.1h-2.92l-12.26-.19-5.84-.2-8.37-.09-8.17-.39-1.36.09-1.95.2-8.66 1.95-1.27.29v-15.57l-.48-26.48-.1-7.1.19-2.92.3-2.24.19-.97 1.17-6.62 2.82-13.04-4.48.77-3.21.78-21.31 5.45-18.39 4.68-7.98 2.04-6.81 1.95-6.33 1.65-7.3 1.85-3.3.78-10.03 2.72-3.11.68-4.48.98-3.79.68.19.58.29.88.1.58v.68l-.39 3.61-.19 1.46v1.07l.09 1.07.3 1.65.29 1.85.1 2.14.19 7.79.1 2.43-38.54-1.07-.78-1.36-1.16-1.95-.2-.39-.1-.68.2-6.81-.29-11.29-20.34.68-5.16.1-6.03.19-3.6.1-4.68.19-8.17.2-8.08.29-15.47.39-8.08.29-9.24.59-7.98.48-9.15.59-15.18.97-14.11 1.07-7.88.68-19.37 1.17-7 .58-19.85 1.27-8.76.68-4.97.29-16.93 1.07-11.48 1.07-6.62.39-6.81.49-2.72.29-4.29.49-4.18.68-5.35 1.17-3.8.87-14.3 4.09-5.06 1.56-12.36 3.5-11.48 3.5-16.06 4.87-15.08 4.38-8.86 2.63-8.08 2.43-7.39 2.14-9.05 2.44-7.89 2.53-15.37 4.57-29 8.76-4.38 1.27-6.03 1.65-11.29 3.5-4.67 1.37-5.16 1.36-3.5.97-6.33 1.27-11.58 1.55-12.45 1.76-7.79 1.07-15.37 2.04-13.82 1.95-9.73 1.36-7.89.97-20.24 2.92-6.42.88-5.55.68-2.92.39-61.98 54.7-2.24-1.46-24.82-17.13-28.61-19.76 10.8-1.65 14.02-1.95 1.07-.1 1.07-.19 5.16-.68-.39-16.65v-.39h-.2l-37.46 2.15 1.65-1.66 7.4-6.71.58-.2 3.31-3.02 1.07-1.07.19-.19.49-.49 2.14.49h.39l1.07.1.29-.2h3.22l3.21-.29 1.75-.39.97-.2v-2.82l.2-5.45-.1-1.26.1-2.24 3.6-2.92 5.25-3.89 6.81-5.16 3.99-2.92 4.97-3.6 2.62-1.95 3.51-2.73 2.43-1.84 7.69-5.75 2.92-2.62 1.36-1.46 3.7-3.7 1.65-1.66 4.19-4.09 2.43-2.14 3.21-2.24.78-.48 10.22-5.55 2.62-1.26 7.59-4.19 9.74-4.87 1.84-.77 2.14-.78 9.83-2.83 8.86-2.53 8.37-2.43 6.71-1.85 2.24-.39 2.14-.39 6.03-.78 4.09-.39 15.18-1.65 8.27-.88 8.28-1.07 9.63-1.36 15.57-2.14 4.87-.68 5.06-.59 3.5-.48 5.35-.78 2.92-.39 3.21-.49 4.67-.68 7.79-1.36 5.74-1.17 4.67-1.26 4.77-1.27 5.84-1.65.29 16.83.58 29.4v1.46l.29 6.62.3 3.01.39 3.41 2.92 2.72 3.01 2.44 1.75 1.07 1.76.68 1.94.39 1.75.19h1.75l2.73.1 2.14.39 1.95.49.87.09 1.66-.19.29.19.49.39.38.1.2-.1v-.39l.19-.09.88-.1 1.26.29h1.17l.98-.1.58-.09.78-.59.39-.1.58.1h1.07l.49-.29.29-.58.19-.88.3-.29.48-.2 1.46.1.68-.29 2.05-.68.68-.39.58-.49.49-.39 1.07-1.46.29-.09h.29l.59.48.68.29h1.07l1.17-.09 1.07-.1.58-.29.39-.49.29-.88 1.95-4.76 2.04-2.92 2.53-2.34.98-.68 1.65-.49 1.56-.68 1.36-.39 1.26-.19 4.09-.2 2.53.2h2.43l1.56.19 1.36.39 1.37.68.68-.29.78-.1.58.2.49.39.48.68.68.58.49.39 1.46.49.68.1.39.29.2.39.09.39-.09.48.09.49.29.39.39.29 1.46.2 1.75.38 1.37.1.19-.29.1-.29.1-1.85.58-.59.29-.29.29-.39.1-.39.2-.29.19-.19h.29l1.17 1.46.29.09.29-.09.2-.1.29-.49.29-.68.39-.58.39-.29.59-.2.38-.29.1-.49.1-.78.19-.68.3-.19h.58l.49.29.68 1.07 1.17.39h.09l.2-.78.19-.39.2-.1h.39l.29.2.87.58.78-.09.2.09.39.68h.29l.39.2.19.39v.39l.2.39.19.19.2.1.38.1.88.39.39.09h.49l.58.1.49.49.48.58.59.29h.39l.87-.48.68-.68.49-.2h.39l.19.1.39.39.2.58.09.49.1.39.29.19h.2l.68-.48.78-.59 1.17-.1h.29l.19.2.1.87.1.39.19.2.29.1.2-.1.49-.39.97-1.27-.1-.29-.29-.29h-.29l-.68-.29-.1-.49-.1-.58.1-1.07.1-.2.39-.1 1.75.3.29-.2.19-.29.1-.49-.19-.39-.98-1.07-.29-.68.1-.39.19-.19.29-.1h.3l.58.29.49.49h.48l.2-.2v-.87l-.49-1.56v-.29l.2-.29.68-.2.87-.09h.78l.29-.1.1-.29-.78-2.73-10.6-1.36-21.22-6.62-2.53-1.85-.58-1.65.29-7.4.19-5.84-.48-6.03v-4.68l.87-2.43 1.37-2.53 2.92-6.33 1.94-6.91 1.46-6.91.59-5.74v-3.11l1.84-1.17 3.12-1.56 6.13-2.72 9.92-4.19 5.36-2.24 8.27-3.11 5.55-1.95 6.22-2.43 16.45-6.91 7.49-2.92 6.33-2.34 4.38-1.55 1.85-.49 2.72-.58 2.24-.39 3.79-.39 3.41-.2 8.95.2 16.93.58 6.33.1 6.42-.29 26.86-9.83-2.53-11.88-13.14-4.77 2.63-6.71.97-3.02 1.37-4.28.97-3.6.88-4.38.77-3.9 3.02-14.98 1.95-9.54.29-2.53v-3.6l-.2-3.22-.58-4.86-1.07-7.69-.49-3.99-.48-4.96-.1-2.63v-26.48l.1-8.46-.1-7.11-.1-1.75-.29-2.14-.68-3.8-.88-4.18-.78-2.63-1.65-4.87-1.46-3.89-5.64-15.38-1.46-3.89-1.85-5.06h1.36l13.43.1 14.21-.39 11.97-.2 5.45-.19 3.89.19 3.89.39 2.14.1 2.43-.1 4.48.1 2.34-.2 1.94-.29 1.56-.09h5.64l.3-.1.19-.2 1.17-1.65.68-1.56.78-2.14.58-1.26 1.17-1.95 1.56-2.34 2.04-3.31.49-1.16.19-.49v-3.5l.2-.49.29-.39.39-.39 1.55-.68 1.95-.59 3.89-.77 5.94-.49 3.79-.29.88-.29.58-.39.59-.59 1.65-2.33.49-.98.48-1.65.2-.39.49-.39.19-.19.1-1.95.19-2.14v-2.44l-.09-1.55-.2-.59-.58-1.65-.78-1.85-2.14-5.35.39-3.9 13.04-4.57 24.91-8.86 21.6-7.59.78.68 1.85 1.46 2.82 1.46 4.38 1.66 3.11.87 2.73.39h1.46l1.95.39 1.45.49 1.08.58.87.68.68 1.07.59 1.76.97 2.43 2.63 5.06v.39l.09.88.1.97.29 1.07.49.87 1.26 2.15.88 1.55.29.39 2.05 3.12 3.5 4.96.97 1.07.68 1.07.69 1.95.97 3.4 2.14 7.99 1.26 4.96.39 2.92.2 1.95-.1 2.23v.2l-.29.97-.2 1.07.2 1.07.49 1.27.48.97.39.88.2.97.09 1.66-.09.87v1.27l.19.68.49.87.39.59.29.29.29.19.88.2 2.82.68 4.47.88 3.9 1.16.87.59 1.36 1.07.39.58.39.68.3.59.48.39.39.29.39.19h.58l.39.1.39.39.29.1h2.34l1.46-.1 1.07.58.58.39.39.69.78 2.04.78 1.65.29.69.1.68-.49 2.23v.59l.1.58.2.68.19.88.1.88-.29 1.07.09.78.39.77.29.78.1 1.27v1.55l-.49 2.44-.29.87-.68 1.17-.58.49-.98 1.56-.77 1.75-.39 1.65-.49.68-.39.49-.19.39v1.85l.48 1.85.59 1.07 2.33 4.18.49 1.07.1.59v.48l-.3.78-.39.68-.19.69-.19.58-.1 1.65-.29 1.17-.3.39-.39.1-.48-.1-.39-.58-.78-1.66-.58-.68h-.39l-.39.2-.2.39-.09.39v.97l-.3.97-.48.78-.78.88-.2.39-.09.87v.88l.09.39.2.19.49.2h.97l.58.09.29.1.2.2.1.29v.58l-.3 1.07-.19.68.1 1.66.29.39 1.46.68.1.39.09.48v.59l-.29.48-.1.1-.77.68-.59.2-.48.39-.49.58-.29 1.17-.1.88v.29l-.78 3.7-.1 2.04v.78l.1.39.39.58.68.49.88.29 2.24.39h1.07l.87.1 2.05 2.33 1.16 1.56.49.97.29.78.68.68h.49l.39-.19.29-.29.2-.49.29-.97.29-.49.39-.1h.29l1.17 1.17 2.82 2.34 1.07 1.07 3.5 5.74.39.78.2.87.39 3.12v.78l-.49 2.33-.97 1.17-.39.78-.1.29.1.29.19.78.88.78 1.46 1.17 3.5 2.33.2.69-.1.58-.1.58-.39.49-.97 1.27-.29.58-.2.58v.49l.29.78.39.58v1.17l-.19.68-.49.88-.58 1.17-.2.87-.09.97v1.08l.29 2.43.1.58.19.39.29.2 1.07.87.49.59.29.68.2 1.26v2.14l.09 1.37v.48l.49.59.49.39.87.58.78 1.07.58 1.07.3.97.09.88-.09 1.36-.78 2.53-.29 4.29-.2.87-.1 1.75-.19 2.83-1.85 5.84-.19.87v1.27l.19 1.75.49 1.65 1.17 2.05.77 1.65.49 1.95v1.26l-.39 1.17-4.09 4.38-.68.59-1.07.58-1.07.29-2.82.59-1.46.68-.97.58-1.37 1.66-.29.87-.09 1.27 2.14-.49 1.65-.29 5.06-.29 6.13-.1 5.26.1 2.14-.1 3.01-.2 4.19-.58.68-.1 10.8-2.72 2.63-.59 5.35-1.65 11.87-3.7 3.31-.97 4.87-1.56 2.82-.88.68-.19 5.06-1.27 4.67-1.07 2.82-.68 5.94-1.26 4.28-1.17 4.09-.88 13.82-3.31 9.24-2.04 13.24-3.21 4.67-1.17 1.94-.49 3.6-.77 10.42-2.44 2.33-.48 5.84-1.46 4.28-.98 4.48-1.07 3.7-.97 8.27-1.85 3.21-.68 19.46-4.67 2.05-.59 5.54-1.46 2.24-.78 2.53-1.26 2.14-1.17 1.95-1.07 2.92-1.75 11.29.78 28.02 2.14 15.96 1.26 23.84 1.37 31.24 1.75 1.36.09 56.44 3.22 56.44 3.31 31.14 1.07 24.92.87v4.38l.09 2.82.59 4.87.09 1.17-.38 8.76-.1.48-.2.3-.29.29-.29.1-.49.09-3.79.3-2.05.09-1.84.29-.59.2-.78.58-1.75 2.05-1.75 1.26-.29.29-.2.49-.19 1.75-.29 1.07-.49 1.56-.88 2.24-.19.97-.1.98.1 1.65.1 1.56.39 1.85.19.68.58.78.78.97.2.49.1.97.09.58v.49l-.19 4.38-.1 4.48-.29 2.72-.1 5.65 9.15-.78 6.42-.78 11.29-.97 23.55-2.14 14.5-1.46 10.31-.88 9.44-.78 12.17-1.36 13.04-1.27 8.56-.97 7.1-.97 9.35-.98 12.74-1.36.1.2 1.95 1.84 3.79 2.24 1.95.78 1.85.2.68-.2.88.29.87.59 1.66.68 1.46.68.97.68 4.67 1.07 1.46.39 2.14.29 1.27.39h1.55l4.77 2.34 2.24 1.26 2.14 2.53 1.26 1.85 2.83 4.97-2.34.29h-.58l-.78-.2-1.07-.68-.49-.09-.19.19-.39.68-.59.68-.77.59-.59.19h-1.17l-.48-.1-.59-.29-.48-.29-.39-.19h-.39l-.68.29-.78.48-.78.3-1.65.19-1.37-.1-1.07.1-1.55 1.36-.59.39-1.75.49-2.33.19-.98.69-1.17.29-.29.19-.29.2-.78 1.07-.78.39-1.07.29h-.58l-2.04-.29h-.39l-1.07.29-.3.19-.09.3-.78 2.92-.29.29-.2.19-.87.29-.1.2-.1.58.1.78.29 1.07v.98l-.58.87-.49 1.07-.1.49v.39l.1.39.39.58.19.78v2.14l-.09.39-.39.68-1.07 2.34-1.76 2.43-2.33 3.99-.88 1.95-.68 2.63-.39.87-.58 1.56-.68 1.07-2.34 2.72-2.04 1.85-.29.2h-3.51l-.77.1-.49.29-.88.68-1.26 1.85-1.46 1.17-.29.29-.88 1.65-.39.49-1.85 1.07-2.14 1.56-.58.68-.49.29-.29.19-2.53.59-.58.29-.2.2-.1.19-.19.88-.29.38-.3.3-1.36.58-1.26.49-.1.09v.3l.1.29.19.19.39.1.68-.19.49.09.19.1.1.2v1.46l-.19.48-.2.29-1.26.88-.88 1.17-.19.39v2.04l-.1.58-1.27 1.76-1.26 1.46-.39.78-.1.87-.39.39-1.26 1.66-.88 1.16-1.85 2.44-.87 1.07-1.85 2.82-.2.29-2.33 2.73-.39.48-.59.59-.58.48-.68.49-.49.2-3.6.68-4.08 1.07-.69.09-.48.1-2.82.39-4.87.29h-.97l-2.14-.48-.3-.3-1.07-1.75-.77-.78-.69-.58-.58-.78-.19-.87-1.76-10.91-.19-1.16-.39-.78-.49-.78-.58-.78-1.36-1.17-.59-.68-1.46-3.5-3.89-5.45-1.46-2.24-1.46-2.73-.29-.68-4.18-10.41-.78-2.05-4.87-10.02-1.85-3.41-.87-1.26-1.37-1.85-.29-.39-.58-.39-2.34-.78-1.65-.68-.2-.19-.19-.3-.2-.58-.29-.49-.39-.39-.68-.19-.97-.49-.88-.58h-.39l-1.26-.1-2.63.1-4.09-.2-2.72-.29-1.36-.29h-1.07l-1.17.19-.78.39-1.36 1.17-2.53 1.66-1.36.97-1.56.88-2.04 1.36-1.17.58-1.17.2h-3.89l-2.44.19-.77.2-1.07.29-.88.49-.58.38-.59.78-1.07.88-.29.19h-.39l-.58-.29-1.37-1.36-.09 1.56v4.67l-.1 8.17-.1.68-.19.59-1.07 3.11-.49 1.37-.29 1.84-.1.59v4.57l.2 4.29.09 8.17v4.09l-.09 4.18-.3 3.8-.68 7.1-.19.98-.2.78-.39.77-.58.49-.58.29-1.27.39-1.17.2-.87.19-.78.39-.49.29-1.16 1.17-.69.78-.68 1.07-1.16 2.14-.49.68-.29.3-.78.38-.49.1-.97-.1-1.85-.38-1.95-.2h-1.26l-2.24.39-2.92.58-5.94.98-1.36.19h-.78l-.77-.1-4.97-1.16.2 20.53.29 11.1.58 14.89.1 3.5.19 9.35.1 12.94v3.41l.2 6.91-.1 3.99-.1 2.82-.19 3.5.19 6.43-.1 1.75-.29 4.38-.48 3.11-.39 1.95-.39 1.07-.29.58-1.85 2.53-9.25 11.59-1.17 1.55-.38.78.38.39 1.07 1.17 2.34 1.65 1.75.98 3.02 1.46 4.86 2.14 1.66.49h.58l1.46-.3 2.53-.58 5.65-.29 8.07.39 3.21.29 1.85.49.3.09.29.1.78.58 4.47 3.51 1.66 1.65 1.36 1.85 1.75 2.92.78 1.66 1.36 4.08.49 1.17 1.07 1.66 3.4 3.99.88.97.68.88.97 1.55.3.68.19 1.46.49 7.6.48 3.89.69 3.7.19 1.07.49 1.46 2.62 5.84 2.34 4.47 1.56 2.92 1.75 2.83 2.53 3.6 1.17 1.26 1.26 1.27 1.17.97 1.26.97 1.56.98 1.07.39 2.04.68.88.1.39.09.68.59 1.07 1.16 1.17 1.46.88 1.27 1.75 2.92.97 1.95.39 1.16.58 2.05 1.17 5.25.49 1.95.29.88.39.68.68 1.17.58.68.88.97 1.07.78.49.19.97.39 4.09.98 5.15.87 1.07.39 2.34.97.68.49.97.49.78.58.78.68 1.17 1.56 3.7 6.72 2.04 3.21 3.02 5.16.87 1.46.68 1.55.69 2.05 1.36 4.38 1.26 4.67.88 3.21.97 4.87 2.24 10.51.88 3.21 2.23 5.94.2.97.68 2.63 1.65 8.95.39 3.12.2 3.21.19 3.5.2 2.43.19.39.49 1.07.49.78.77.88.78.49.39.19.88.29-1.07.2-.39.09-6.62.69-1.36.09h-10.22l-2.43-.09h-.29l-.3.19-.29.2-.29.38-2.34 5.07-2.92 6.52-1.65 3.6-1.17 2.82-1.17 2.53-1.46 4.48-1.16 3.11v.68l.19.88.2.49.77.97 2.15 2.53 5.45 6.52 6.9 6.62 7.3 6.32 4.19 3.61 3.01 2.14 3.7 2.24 2.24 1.36 2.82 1.46 2.53.78 1.85.68 1.46.39 2.43.39.88.09h6.13l8.95-.19 2.63.1 5.94-.39 1.55-.2 3.02-.19 2.24.1.87.09.88.39.78.59 1.26.58 2.63.88.29.29.68.87.49.78.68.78 1.85 1.17.49.68.48.68.2.68.1 2.05-.1 1.46-.2.87-.09 1.27.19.97.29.78.3.19.58.39 2.24 1.17 5.45 3.02 2.43 1.36 1.46 1.17 1.85 1.17.68.29 2.43.58 1.27.39 1.36.68.39.39.68.59.78 1.16.29.59.49 1.26.78 2.34 1.55 5.26.2.77.87 3.99.88 4.58v1.95l-1.17 8.95-.19 1.85-.3 2.04-.19.59-.78 1.75-1.26 1.65-2.44 2.53-.19.3-.78 1.07-.29.68-.59 1.46-.29.87-2.24 11.88-.48 3.21-1.46 5.84-.88 2.63-.97 4.28-.2 1.17-.29 2.62-.19 1.85-.2.78-.39.88-4.08 7.88-2.24 4.09-.97 1.65-3.12 4.29-.68.97-.39.97-.49 1.46-.09 1.07-.1 1.56-.19 5.45.19 2.53.19 1.17-2.33.1-1.17.19-2.43.59-9.54 2.62-4.38 1.46-3.4.88-2.24.68z" stroke-linejoin="round"/></defs><use xlink:href="#b" fill="#cee3e4" stroke="#cef5f5" stroke-width="5.76"/><defs><path id="c" d="M1468.64 1245.3l-4.96-3.9-1.37-1.65 1.66-7.88-7.2 2.92-1.56-1.85-8.56-8.86-13.14-13.53v-45.45l-.1-6.23 1.17-32.51.1-6.22v-1.37l-1.75-.29-4.09-.88-1.85-.19-3.6-.29h-8.95l-11.39.1-3.4.19-.78.1-1.07.09h-.1l-2.14.3-2.34.58-1.94.58-2.34.88-1.46.68-1.26.59-1.27.58-1.07.68-.29.2-.78.38-1.36.88-5.16 3.31-9.54 6.23-.58-.88-.1-.39-11.58 7.5-14.98 9.54-1.66 1.07-.39-.2-.68-.29-.78-.68-.68-.2-.97-.09-1.75-.49-.78-.58-1.27-1.27-.68-.88-.58-1.36-.29-.19-.39-.1-.39.19-.59.59-.48.19h-.49l-.58-.29-1.75-1.75-.39-.29-1.56 1.36-2.24 1.27-12.36 7.98-11.67 3.6-.59-20.83-.87-.2-8.18.1-4.28-.19-2.92.19-1.95.2-3.5.58-28.22 2.63-.97.19-.49.2-.68.29-.97.78-1.37-2.14-8.95-14.21-2.04-3.02-4.38-5.84-1.85-2.43-1.36.78-.98.09-.77.1-1.46-.19-1.07-.1-.88.19-1.46.3-.88.29-.77.39-.88.09-.78-.09-1.46-.78-.87-.2h-.78l-3.6.2-1.95-.1-2.04.1-1.07.1-.59-.1-1.07-.59-.58-.19-.68.1-.49.29-.29.49-.29.19-.39.1-.98-.59-.68-.09h-.97l-.97-.1-.68-.49-.78-.78-.98-1.16-.48-.39-.68-.1h-.69l-1.16.1-2.53.68-2.53.19-.68.1-.59.29-1.17 1.46-.39.2-1.36.19-1.75 1.17-5.35 2.72-3.12 2.53-1.26 1.17h-1.56l-.39.1-.29.19-.68.69-.49.29-.68.09h-.58l-.39-1.26-.29-.58-.59-1.17-4.76-7.98-2.53-4.48-.59-1.36-.39-1.27v-.78l.1-1.07v-.97l.58-3.8 1.66-13.52.48-4.77-20.14-1.17-3.5-.2-2.82-.09-2.92.09-2.44.3-1.75.19-1.75.49-4.48 1.46-9.53 2.82-5.36 1.65-.19-7.98.1-6.81-.1-3.31-.19-10.41-.3-9.74v-7.29l.1-3.41-.19-3.51-.1-.48-.59-.97-.68-.78-.68-.3-.58-.19-.97-.19-4.29.09-.48-.09-.59-.1-.58-.39-.68-.68-.39-.59-.29-.78-.1-.58-.1-1.07-.19-10.22-.29-8.95-.1-4.29-.29-9.34-.3-9.05-.19-1.36-.1-.49-.58-.88-1.56-1.07-.48-.58-.39-.39-.3-.58-.19-.68-.1-.78-.19-11.1-.1-9.05.1-4.77-.1-5.74-.1-18.4-.19-11.38-.29-6.33-.2-6.03v-9.93l.1-1.36.19-.88 1.56-4.48.1-.39.48-2.43v-1.85l-.29-1.07-.19-1.07-1.36-4.18-2.15-7.69-1.07-4.19-.48-2.82v-.29l-.68 1.16-.78 1.08-.59.97-.87 1.65-1.66.98-.68.48-.48 1.27-2.44 2.43-.87.97-.39.3-.59.68-.19.48-.1 1.37-.19.78-.68 1.46-.3.29-.77.48-.49.1-.49-.1-.29.39.1 1.07.19.39.2.68-.1 1.17-.29.59-1.85 2.92-3.5 4.96-2.73.88-2.63 1.07-3.69 1.65-.88.39-2.82 1.75-3.89 2.73-45.16-5.74-24.42-6.04 1.36-.97 1.85-1.56.97-1.07.78-.88.49-.68.87-1.65.39-.97.29-1.08.78-3.11.29-1.95.1-1.94-.1-2.24-.19-.97-.1-.59-.19-.49-.59-.77-1.55-1.85-3.02-2.83-3.5-2.92-4.19-3.99-.58-.68-.49-.68-.39-.58-.19-.59-.2-1.65-.19-4.38-.2-20.63-46.41 25.69-43.5 22.48-.2.98-.19 2.14-.1.39-.39.48-.48.3-1.66.38-1.17-5.35-.68-2.33-2.04-5.84-2.05-5.06-3.89-8.57-1.17-2.43-.58-1.17-.49-.78-.09-1.56-.1-9.05v-11.29l-.29-8.56-.68-12.95-.49-12.07-.29-6.52-.2-7.39V764.5l.2-7.69v-1.55l.68-5.16.1-3.7v-2.43l-.2-5.65-.48-8.66-.3-9.54h-8.37l-22.77.59-.68 2.53-.19.19-13.33 12.36-.59.59-.39.48-.29.49-.19.87.19 3.7.2 1.37.29.68.78 1.26.38.29.59.2.87.19.2.2.19.29v1.17l-.19.48-.2.39-.09.49-.29 5.26-.49 4.18-.39.97-.39.88-1.07 1.27-.29.77-.1.49-.1.58.2 1.56-.2 2.53-.29 1.75v.39l.1 1.95.1.97-42.33 21.71-6.91-3.9-1.76-.97-3.89-2.43-1.17-.98-1.46-1.26-2.53-2.34-3.5-3.79-10.22-9.83-2.14-2.14-1.75-1.66-3.31-3.02-15.18-12.65-2.82-2.24-2.53-1.94-2.24-1.17-.1-5.26v-4.67l.2-10.22.1-1.07.19-1.17.39-1.16.29-.78-.29-.68-.2-1.27-.19-3.79-.1-3.12-.68-14.99-.19-1.26-.39-1.56-2.92-9.25-25.98-.97-7.3-.19.39-14.7v-.97l-.2-2.24h2.53l4.48.1 1.65-.1h1.75l5.75-.2 5.83-.09 2.24-.1 2.92-.1-.29-1.07-.29-1.17-.1-1.65-.49-13.92-.29-13.82-.19-6.91-.1-6.42-.19-7.11-.2-7.78-.29-10.03.19-2.04.2-1.66.39-1.17.39-1.26 1.07-1.75.19-.29.49-.69 1.75-1.36 2.73-1.56.87-.87.78-.78.58-.78.39-.49.39-.58.2-.29.29-.59.58-1.65.39-.78.39-.78 1.27-2.24.29-.68.29-.39.88-1.46.87-1.16 3.8-4.58.39-.49.29-.29.48-.58.1-.39.68-1.07.49-1.17.39-.97.1-.78.09-.78.2-1.65v-5.55l-.39-13.53-.1-12.26-.29-9.64-.29-7.98-.2-5.84-.29-13.72-.29-5.84h-11.29l-8.17.1-15.57.87h-1.76l-2.62-.1-4.38-.29-2.82-.1-.3-.19-.09-.39-.1-.49-.19-6.13-.1-9.34v-6.62l.1-2.63-.1-1.36-.59-.88.2-.87.1-.97.09-1.95v-4.19l.2-1.75.39-1.56.58-1.65.68-1.17.98-1.46 1.45-1.75.88-.78 1.07-.78.88-.48 1.07-.59 1.85-.68 1.65-.49 3.6-1.07 6.81-2.23 1.37-.3 1.46-.19 6.13-.2 8.75-.19h3.99l2.63-.1h2.63l4.77-.19 1.65-.2 2.04-.39 1.17-.48 2.53-1.37 1.07-.68.88-.78 1.46-1.46 1.17-1.36.87-1.07.68-1.26 3.31-6.23 2.14-4.09 1.07-1.46 1.27-1.36 1.36-1.37 3.89-3.21.78-.87.78-.98.68-.97 1.66-3.11 1.07-2.15.97-2.04 2.04-4.48 2.34 2.34.78 1.17.19.58.1.39v.97l-.29 4.77v1.56l.09 4.19.1 17.32.1 4.18.1 2.05.19 3.31.39 7.3.29 3.89 11.39-.19h5.84l13.43-.3h13.91l.1 3.31.1 23.36 41.74 14.79.2 2.24v2.63l-.1 2.43-.29 1.27-.88 3.31-.39 2.04-.19 1.56-.1 1.07.1 1.07.1.88.29 1.16.68 2.15 1.26 3.4 1.56 3.8.58 1.75.59 2.14.29 1.07.2 1.36.19 3.22.29 6.71.2 4.48.09 3.6.2.88.39 2.14.19.48 1.17 1.95 1.75 3.21 2.24 3.7 3.31 6.91 1.07 1.75.58.68.78.69 1.56.97 2.14.97 1.07.49.88.68 1.07 1.07 1.07 1.46 1.55 2.43.68 1.27 2.15-.49 4.47-1.17 3.31-.87 12.55-2.73 1.85-.48 2.34-.59 3.31-.78.78-.09 2.23-.39 4.09-.39 4.96-.59 3.12-.39 3.5-.09 4.19-.29h1.16l2.05-.1 4.28-.1 4.47.88 2.24 4.86.1.2v1.17l2.04 4.57.98 2.04.29.68.19.39.2.39.19.68 1.27-.09 2.04.09 3.41.1 2.53-.1 1.46.1.97.1 1.17.1 1.17.29 1.75.58 2.14.59 1.36.29 1.07.19 1.56.39 1.07.1.48-.1-.38-2.82-1.85-11.1 1.07.3.87.29.78.19.88.1h1.07l1.17-.19 1.26-.39 4.67-1.46 2.05-.59 1.75-.48 2.82-.88 1.95-.49 2.23-.29 4.09-.39 2.82-.09 1.85-.1.97-.2.59-.19.58-.39 2.53-1.95 1.46-.68.68-.29 2.14-.2 1.27.1.39.1 3.02 2.34.68.29.58.19h.39l.39.1h.19l1.27-.1h.97l4.28-.19h2.34l3.6.09 7.49.3 4.87.09h2.33l4.67-.39-.48-1.75-.49-3.21-.1-1.36-.09-2.63-.39-24.62-.1-2.05-.39-2.72-2.82-20.15-.68-2.72-.49-1.76-.49-1.26-8.85-19.27-5.06-10.81 11.29-.29 14.69.1.39-.1.29-.09.39-.39v-.1l.2-.68-.2-12.75-.1-10.03-.19-8.66.58.29.49.1h.19l.59-.58.58-.2 1.36-.1h.59l.39-.29.68-.58 1.36-.97 1.07-.39 1.46-.2 1.56-.87.49-.1.97.39.78.09 1.55.1h.98l1.46-.68 1.07-.1.29.1.29.49.58.58.69.29.87.1h.78l.88.2.87.38.39.39.2.3.48 1.55.2.29.09.1.39-.1 1.37-.87.39-.68.38-.1 1.66.88.68.48h.97l.39-.39.29-.39.39-.29.49-.1.78.2.39.19.87.39.39.3.2.29.09.78-.09.39-.2.29-.09.48v.59l.09.29.39.29.68.2 3.8-.39.97.09 2.43.69h3.12l2.04.48.29.2.39.48.2.39.29.2 1.26.58.39.29 1.46 1.76.49.48.49.29 2.04 1.07 1.95 1.37.68.29h.87l.59-.29.58-.59.68-.39 1.46-.19.2-.29.09-.29v-1.95l.2-.49 1.26-.97 1.07-.39 2.24-.58 1.37-.49 1.36-.88 1.46-1.46 1.46-.87.68-.2 4.18-.29.88-.29.87-.68 2.05-2.92.78-1.27.58-.68.88-.78.58-.39.97-.48 1.07-.3 1.27-.09 1.17.19 1.07.78 1.26 1.07.97.68 1.27.49 3.79.97 2.92.78.88.1 1.07-.2.58-.29.39-.1 1.37-.09 1.65.29h1.27l1.26-.29 1.17-.59 1.17-.09 1.16.29 1.17.1.88-.1.87-.29.59-.39.97-1.17.29-.2.59-.29.87-.1.39-.19.68-.88.68-1.16.2-.69.19-.09 2.34-.59h.58l.39.3.97 1.46.49.29.68.29 1.46-.1 1.17-.19.88-.29 1.84-.39 2.44-.3 1.16.2 1.17.39 2.34 1.17.97.19 3.5.39h.59l.68-.29h1.17l1.17.48.87.49 1.75.78.49.49-.97 1.75-.59 1.26-.87 2.14-.1.78-.1.98-.19 3.99-.1 7.98.19 6.52v17.81l.2 2.92.1 1.07 1.46-.1h.58l10.61-.19 3.89-.2 1.46.1 1.56-.1 2.14-.19 2.92-.59 1.75-.58 13.33-5.64 9.63-4.38 9.73-4.29 15.09-6.32 2.82-1.17 2.14-.68 3.8-.68 7.59-.59 12.94-1.07 3.99-.19 7.39-.39 1.66-.1 3.41.29 2.72.39 2.92.68 3.02.88 7.1 2.34 6.03 1.84 3.6 1.08 2.73.58 3.4.39 3.8.19 9.83.88 1.17.1 1.75-.2.97-.29.68-.39 1.46-.97 3.12-2.44 6.22-5.06.78-.58.39-.39.68-.68 2.92-3.21 2.34-2.63.29-.39 7.01-7.59.87-.78.68-.97v-1.27l-.09-3.5-.3-13.73-.09-6.91-.1-2.33-.68-11.19-.59-6.82-.39-3.6-.38-1.65-.1-1.07-.29-3.02-.1-4.19-.1-7.3.2-6.61.39-7.11.09-3.4v-2.44l.2-6.52.09-1.07.49-3.31.78-4.77 2.24-9.83 1.46-5.93 2.24-6.53.29-.87.48-2.05.1-.97.1-1.46.1-1.46.48-11v-9.53l1.17.97 1.65 1.36 2.05 1.56 1.07.68 2.72 1.36 1.07.49 1.27.49 5.94 1.75 3.3 1.17 3.41 1.46 17.22 9.14 3.31 1.85 1.95 1.27 4.18 3.31 4.09 3.5.78.78.58.68.39.59.39.97.2.97.39 16.16.09 8.37-.09 7.3.09 8.47v31.43l-.09 1.36v.78l-.2.49-.39.68-.87 1.36-.3.49-.19.68v.68l-.39 9.05.1 7.11 2.43-.1 3.99.29 18.2 3.02 1.65.58.68.49.98.78.77.68.59.78.39.68.87-1.07.1-.29.2-.68.09-3.41-.19-14.7v-4.47l-.1-.49.88-.58.68-.59.39-.58.29-.58.19-.78.2-1.95.29-10.8.1-6.82.09-2.33.3-1.27.39-.97 3.11-5.55-1.17-5.64.78-3.9v-.09l.49-1.56.39-2.82.09-.88v-.97l-.39-1.27-.58-1.46-.19-.68v-.68l.29-2.24.1-.78v-.68l-.2-.97-.58-1.27-2.14-2.53-1.37-1.46-1.16-1.75-.88-1.46-4.09-9.73-1.75-3.9-.1-.68-.09-1.46-.2-.58-.29-.68-1.95-2.63-1.36-2.43-.49-2.44-1.07-1.55-.77-.49-.39-.49-.49-.48-.19-.59-.3-.48-.58-.3-.88-.68-.97-1.26-.68-1.36-.58-1.08-.49-.68-.97-.58-.78-.49-1.27-1.26-1.07-1.56-.68-1.36-.29-.68-.59-1.56-.58-2.73v-1.16l.1-1.66-.1-.78-.29-.68-.49-.58-.58-.29-1.75-.49-1.95-.2-1.07-.29-.68-.58-.58-.68-1.27-1.95-2.63-3.02-.87-.68-.1-.78v-.97l-.2-.97-.38-.98-.88-.87-2.82-1.66-.68-.58-.39-.39-.29-.68v-.59l.09-.58.49-.87-.1-.88-.19-.68-.78-1.75-2.43-3.61-3.02-4.28-1.95-4.86-.97-2.73-.29-1.17-.2-1.26-.29-4.09-.49-2.63-.19-.58-.78-.49-.87-1.17-.59-1.55-.48-3.8.09-5.25.1-.2.88-2.53-.1-.68-.29-.39-.88-.39-.87-.58-.59-.59-.29-1.46-.2-1.17-.19-1.16-.39-.78-2.04-2.24-.49-.2-.78-.19-1.17-.19-.97-.39-.68-.1h-.49l-.68-.29-.39-.39-.58-.68-.58-.78-.49-.39-.78-.59-.49-.48-.48-.49-1.27-.88-1.07-.87-.19-.29-.1-.49.1-1.46.09-.78.59-1.17 1.65-1.75.49-.97.19-.59v-.68l-.19-.97-.39-.58-.78-1.27-.39-.78-1.46-1.94-.39-.39-.29-.68v-1.66l.88-3.41.19-.97v-.97l-.1-.49-.68-1.85-.48-.58-.49-.39 2.72-8.96.78-2.82 19.66-.19 3.21-.1 9.44-.29h9.34l5.55-.29 2.04-.2 2.83-.29 1.16-.29 1.17-.29.88-.3 1.46-.58 2.92-1.27 2.33-1.16 4.77-3.02 4.87-3.02 9.05-5.45.19-.19 1.75-1.07 4.38-2.63.39-.29 9.73-5.94 3.02-1.85 2.43-1.26 1.75-.69 1.95-.58 4.67-.97 4.96-.68 10.41-1.27 4.58-.58-.1-10.71.1-1.46.29-.39.29-.19.39-.1h1.46l3.6.1 11.78-.1 3.5-.2.88-.19.97-.49.87-.58 1.17-1.07 4.58-4.96 4.08-4.97.68-.78.78-.58-.68 1.85-.39 1.26-.68 3.9-.19 1.16-.2 1.07-.1 1.46-.19 5.36v3.6l.29 2.53 3.89-.39 2.63-.19h2.73l2.43.09 3.02.39 25.59 3.31 4.48.78 3.11.49 3.31.97 3.89 1.26 3.31 1.17 5.16 1.95 3.5 1.36 22.77 8.27 9.44 3.61 16.54 6.03.69.19 10.6 3.9 6.91 2.53 3.02.97 1.56.49 2.72.68 9.63 2.92 7.2 2.34-.09-.88v-1.36l81.74-21.61-2.24-10.9.1-3.5-1.27-5.45-5.83-20.05-2.15-15.58.39-1.36 1.56-1.46 3.6-1.36-3.31-17.52-.19-10.71-.2-2.53-.19-9.24-.1-7.98v-1.66l.29.2h.49l15.67-.2h8.56l4.57-.29.49-.1.29-.09.49-.3.49-.68.19.78.1 3.12.1 6.91v10.41l.09 2.14.1.29.39.39.58.49 5.16 3.11 2.04 1.27.2-.88.29-.1 2.82.39 1.56.49 1.17.2 1.94.77 1.76.49 1.55.29h3.21l.78-.09.88-.3 1.56-1.16.87-.3.68-.39.39-.48.68-.39.68-.29 1.37-.1 1.26.19 1.66.49 1.46.58 1.36.39.78.1 1.46-.1 1.26-.29.49-.39.39-.58.39-.29 1.75-.39.39-.29.19-.3.2-.09 3.4-.39 2.63-.1h.78l.68-.2.49-.29 1.26-.58.49-.1.97.1.88.39h.58l1.17-.78.97-.49.58-.48 1.37-.98.19-.29.2-.49.48-1.36.39-.97.68-1.36.88-1.27.97-.97.49-.78 1.17-3.21.78-2.14.38-2.15.39-.68.49-.19.19 2.53.1 3.7v2.24l-.39 4.47-.19 1.46-3.41 18.2-.29 1.56 52.94 13.82 25.79 8.37 3.69-6.33 1.07-1.94.3-.98v-1.94l-.2-1.27-.29-1.65-1.17-5.16-.29-2.04-.19-1.85.09-.59.29-.97.3-.58 3.4-3.8 5.16-6.91 1.17-1.95 1.26-2.62 1.07-1.56.59-.49.58-.49.68-.38.98-.49 1.65-.49h.58l.98.1 2.24.39h.68l4.57-.49 1.17-.39.48-.29.2-.19.29-.68 1.46-.69 5.16-2.33.87-.49 1.95-.87 1.95 3.4 1.65.98 3.11.29 6.04-1.85 5.16-.39 4.18 1.26 5.84 3.9.1.78-.1.87-.2.97-.58.49-.29.2-.29.09-.39.2-.68-.2-.59-.29h-.78l-.77.29.58 1.17v.49l-.1.19-.29.2-1.27.68-1.26.97-.58.68-.39.2-.39.19-.68.1-.88-.2-1.36-.29-.78-.39-.88.1-.58.1-.88.1h-2.14l-.87-.2-1.75-.49h-.2l-.49.98-.19.58v.88l.1 1.85-.1 1.26-.1.49-.39.58-.39.39-.58.39-.68.29-4.38.3-3.21-.2-.97.1-.39.19-.59.49-.68 1.17-1.46 3.21-.78 1.17-1.07 1.16-1.17 1.08-.48.68-.39.97-.97 3.6-.3 1.56-.09 1.46v2.63l.19 7.78-.1 1.17-.19.88-.29 1.07-1.75 4.67-.3 1.17-.09.68-.1 3.99-.1.48-.39.39-.48.3-.59.19-2.04.1-.59.19-.77.1-2.34 1.56-.88.78-1.94 2.14-.2.39.1.77-.1.3-.48.48-.59 1.27-.39.58-1.84 1.46-.39.49-.2.58v.39l.2 1.36v.49l-.3.29-.48.3-.49.29-.87.29-1.76.19-.19.2-.1.39.1.39.29.78-.1.29-.19.1-.68-.1-.39.1-1.36 1.16-.39.1-.49.1h-.97l-1.85-.88h-.39l-2.24.59-.78.48-.48.39-.3.49-.29.49-.19.77-.2 1.56-.09.58v.69l-.2 1.07-.19.58-.2 1.27-.29.77-.39 1.27-.78 3.31-.29.87-.29.49-.98.68-.68.39-.97.39-.49.49-1.16 1.17-.98.77h-.29l-.49-.38-.58-.98-.29-.29h-.29l-.3.19-.58.49-.29.1h-.2l-.29-.2-.39-.39-.39-.68-.48-.48-.29-.3-.39-.09-.59.09-.48.2-.78.68-.78.78-3.02 2.14-.39.39-.19.49v.58l.1.29-.1.49-.2.19-.58.39-.39.1-.49-.1-.39-.09-1.16-.98-.39-.19-.49-.2-.68.1-.68.58-.29.39-.1.59v1.36l.1.58.29.59v.19l-.2.1-.87.19-.59.3-.29.29-.19.19v.88l-.29.1-.2-.1-.39-.29h-.39l-.48.39-.49 1.36v.49l.1.19.19.1v.29l-.19.68-.1.2-.78.19-.1.39-.09.88-.1.58-.1.29-.29.2-.88.29-.58.1h-.29l-.2.09-.09.78-.1.78-.49.97-.19.1-.2-.1-.19-.29-.1-.39-.1-.19h-.19l-.39.39-.39-.1-1.17-.39-.19.1-.1.09-.1 1.66-.09.19-.2.39-.78.68-.19.49-.1.68v1.85l.1.39.29.29.39.1.39.1.58-.2h.3l.29.1.09.1.1.39v.68l-.19 1.36-.2.2-.58.48-.1.39-.1.68-.29.68-.39.3-.78.29-.19.58v.29l.1.2.29.29 1.17.49.09.19-.19.29-.1.1-.1.1v.29l.2.49v.19l-.2.1-.68.39-.19.19v.2l.1.29.19.49.58.48.1.29.1.59-.1.39-.1.29-.29.19-.19.1h-.2l-1.16-.39h-.3l-.19.1-.1.29v.78l.49 1.27v.48l-.2.2-1.16.29-.3.39-.68 1.46-.09.1-.39.39-.49.29-.1.39v.39l.49.77.1.3v.29l-.2.19-.87.1-.78.29-.68.78-.3.29-.09.39-.1.98-.1.48-.39.29-.19.39-.88 1.27-.19.58v.78l.29.2h.19l.49-.39.39-.1h.88l.58.1.29.19.1.29-.1.3-.1.29-.29.48-.39.3-.68.19-.29.29-.29.39-.1.29v.39l.1.39.39.1h.39l.78-.39.29-.39.19-.1h.2l.29.1.1.29-.1.78-.29.49-1.27.87-.58.49-.2.39-.09.39v.58l.29.78.58.98v.48l-.19.29-.2.1-.68.2-.29.19.1.2.29.48.19.68-.09.78-.1.39-.49.68-.1.49-.68 1.46-.09.39v2.63l-.1.58-.2.19h-.29l-.58.2-.49.49-.39.19-.58.1-.2.29-.09.97v.49l-.3.78-8.75 10.7-3.8 4.58-.97 1.46-.49.49-.1.19-1.16.88-.59.19-1.46.39 3.12 3.02-.1 1.65-1.75 19.76-.49 3.7-.19.87-1.95 6.33-1.46 4.57-.78 2.34-.29 1.17-.58 2.92-.3 1.55-.09 2.24v3.02l-1.56-.19-3.7-.49-2.24-.39-1.75-.39-1.26-.1-4.28-.19-1.56.1-3.99.29h-5.16l-3.21 14.11-6.81 17.91-1.75 8.76-.88-.29-.87-.59-.49-.29-.39-.1-3.5-.19h-1.37l-.68.19-.29-.29-.49-.19-.87.19-6.33 8.27-2.43 2.83 6.33 21.41 43.3-21.51.39 8.27.29 14.41v1.07l-.29 3.31-.2 1.36-.19.97-.88 2.63-.48 1.17-1.75 3.4-2.83 4.97-2.43 4.38-4.28 7.39-2.73 5.26-.87 2.72-2.73 8.86-1.55 5.94-1.17 4.28-.58 2.43-.69 4.77-.58 5.55-.68 4.09-.78 6.91-.49 3.11-.48 3.6-.39 1.85-.39 1.46-.2.78-.48 1.36-2.53 7.5-.68 1.94-6.04 17.23-3.31 9.54-1.46 3.89-1.07 2.92-1.46 3.6-.68 1.17-.68 1.17-1.75 2.04-2.43 2.63-4.19 4.28-1.75 2.34-1.26 2.04-.39.78-.78 1.66-.97 2.72-.59 1.85-4.86 17.32-2.24-.19-4.58-.1-3.6.1-2.72.29-14.4 1.66-2.44.29-4.67.49-1.46.19.3 5.55v6.71l.09 10.03.29 17.91v4.67l-.09 2.92-.39 4.67-.1 1.75-.78 6.62-.29 2.82-.39 7.01-.1 3.5v11.78l.3 6.52 2.33 29.49 1.27 12.65v1.27l-.69.19-.77.3-1.07.29-.78.09-1.07-.09-.88-.39-.97-.68-.49-.2h-.19l-.39.1-.2.19-.48.3-.49.58-.39.1-2.14.19h-10.22l-3.6-.58-12.16-2.53-6.43-1.27-11.19-3.02-3.3-1.16-.59-.2-1.46-.68-1.17-1.17-1.16-1.07-1.46-.78-1.66.1-1.85.78-1.94.97-2.14.68-4.29.39-1.65-.09-1.17-.49-1.55-1.07-.88-.88-1.27-.78-1.36-.58-2.14-.39-4.38.29-1.17-.19-1.55-.39-5.16-1.46-11.97-2.92-5.84-1.07-.49-.1h-1.75l-7.39 1.07-.49-.1-.49-.19-.48-.19h-.49l-.87.19-.98.49-.87.29-1.17.1h-1.75l-.29-.1-.88-.2-.78-.29-1.75-.87-.97-.1-1.07.19h-.59l-.68-.09-.88-.39-4.18-1.46-2.24-.59-1.85-.29-1.75-.78-2.04-1.07-.49-.19h-.39l-.39.09-1.46 1.46-.58.2-1.36.49-2.05 1.55-.58.39-.49.1-.58.1-1.27-.2-1.75-.39-1.07-.39-.87-.58-.69-.68-.58-.49-3.11-1.75-2.44-1.17-.77-.19-.78-.2-.59.1-.68.19-4.77 1.95-.87.49-.88.68-.39.58-.29.39-.29.2h-.29l-.49-.29-.39-.3-.78-.97-2.33-2.04-1.17-.59-1.07-.1-.58.2-.78.68-.59.39-.48.1-.98-.2-.58-.48-.49-.59-.48-.87-.78-2.53-.29-.59-.49-.48-.88-.49-.78-.49-.48-.68-.49-.58-.29-.39-.39-.29-.78-.3-.68-.09h-.78l-.68.09-.97.3-1.07.19-.68-.1-.39-.48-1.27-1.56-1.46-1.36-1.65 2.04-2.05.78-5.06.1-1.65.29-1.95 1.07-1.65 1.17-.78 2.23-2.04 4-1.07.97-3.41 2.53-1.85 1.95-2.24 1.94-1.84 1.85-2.34 2.73-1.56 2.62-2.04 2.83-2.14 3.99-1.36 2.82-3.41 6.03-.29 1.07-.68 2.63-.1.59-.68.77-1.17 1.46-1.56 2.73-1.65 3.11-1.85 3.31-.88 1.17-.38.59-.39.29-.59.29-1.46.49-3.21.97-3.6.88-3.89.48-6.04.59-2.53.19h-3.11l-3.11.2-.1 6.42-.58 13.72-.1 3.12.19 3.69.98 10.22.29 3.31.58 4.77.97 10.51.78 7.79.59 4.09.19 1.17.49 1.55.48 1.85.98 2.92 2.72 6.81 1.46 4.09.2.78 1.36 3.5.68 2.05.39 1.75.49 3.8.29 1.94.78 6.82.29 4.08.19 7.3v3.7l.3 11.49.09 5.15 4.77-.29 3.7-.1h1.07l8.66-.29h9.54l5.54.1 4.38-.19 1.27.09.39.1 1.36.58 1.07.69.29.19.88.97 3.31 5.45.39.59.87.97 1.36.97 1.27.78 1.36.59 2.24.68.68.1h3.21l3.31-.1 1.27.1 1.94-.1 11 .19 8.85.29-.29 1.37-.39.78-.39.87-1.46 2.34-2.24 3.11-4.37 5.45-5.16 6.82-9.93 13.23-5.35 7.4-2.14 2.72-2.82 3.99-.88 1.27-.97 2.04-.97 2.63-.69 2.53-.19 1.17-.1 1.56-.1 2.33.59 6.23.29 2.05.58 3.11.98 2.92.78 1.65.48.88 1.27 1.85 2.24 2.53 1.46 1.65 1.65 1.56 2.92 3.31 1.65 2.34.88 1.36.68 1.36.58 1.27.3.87.29 1.07.19 1.37.2 1.26v3.02l-.49 5.94-.39 4.38v1.55l.1 2.34.19 1.36.3 1.27.38 1.46 1.56 4.38 2.24 5.15.19.39 1.76-.19v.97l1.75 1.27 1.07.97 1.46 2.04 2.82 3.12.88 3.89 1.16 3.21 1.17 2.14.59 1.95.48 3.31.59 1.27.58.87 5.06 5.55 2.34 3.5.87 1.17 1.17 1.27 3.7 3.69.58.88 1.07 1.46.88 1.46.29.88.29 1.07.2.48.48.59.39.19.39.1 1.46.1 4.48.19 4.76-.39h1.08l1.46.2.87.19.58.29.59.39.49.39.38.59 3.31 4.08-7.39 5.45-1.07.88-10.8 7.98-5.16 3.7-6.23 4.67-2.34 1.75-4.96 3.7-2.63 2.05-1.94 1.55-.78-1.26-.1-.29-.1-.3v-1.36l.59-3.5 3.01-18.01.1-.68.1-1.95v-2.72l-.1-6.72-.19-7.88-5.74.1-5.94.09-8.95.2-8.86.19h-4.96l-.88.1-1.55.29-1.56.49-5.06 1.85-.78.19-1.26.2-2.92.19-1.46.1-10.71.29-3.79.1-2.53-.1h-12.07l-1.85 8.86-1.36 6.71-1.36 6.72-.59 5.06-.58 5.84-.68 5.26-.39 2.23-.88 3.41-.78 2.34-.68 1.85-1.36 3.01-2.63 5.26-1.75 3.5-2.43 4.77-1.17 2.63-.78 2.33-.39 1.66-.48 2.92-.49 4.38-.49 3.21-.09 1.46-1.07 3.6-.88 2.43-1.46 4.19-2.34 6.62-.48 1.26 8.95 2.24 2.73.59 3.4.87 6.52 1.75 2.63.59 7.1 1.85 3.21.68-.09 2.92.19 14.4 11.87-.29 3.51.1-1.27 3.99-15.08 26.18-5.16.1-7.98-.1-3.99.1h-5.16l-1.26.09h-2.73l.1-5.06.1-4.47-.1-.69-.1-.29-.39-.39-.48-.29-1.07-.19-2.82-.3-3.41-.48-.1.68-.68 2.53-.29 1.17-.29 1.85-.2 3.01-.19 1.56-6.13-.87-4.67-.69-5.45-.87-.2.78-1.07 4.86-1.26 6.72-.49 1.75-.78 2.82-.78 1.95-.78 2.14-1.26 2.82-5.74 12.07-3.02 6.52-1.95 4.09-.38.78-1.17 2.04-5.16 8.57z" stroke-linejoin="round"/></defs><use xlink:href="#c" fill="#9dc8ca" stroke="#9dd7f0" stroke-width="5.76"/><defs><path id="d" d="M1627.94 1413.58l-2.82-12.85 1.26-.1-.39-5.06-2.91.19-3.31.49-5.36.68-.09-4.18v-3.6l-.59-6.04-.48-3.79-.68-.78-.59-4.09-.58-3.02-.2-.97-.58.19-.2-1.07-.29-1.75-.39-1.85-.48-4.18-.1-2.53-.1-1.75v-1.27l.1-.78.29-14.4v-16.55h1.46l-.1-3.21v-14.6l.1-8.27-.1-10.12-.09-10.32-.3-8.08-.19-5.16-.1-7.2-.09-1.95-.3-19.85v-.49l-.39-21.31-1.07-.1-7.39-.68-7.01-.19-8.85-.69-.69-.09-.38-.1-1.27-.2h-.1l-1.26-.19-.59.1h-1.07l-2.04-.1-4.09.1-5.64.09-2.43.1h-2.14l-1.27.1-5.45.1-1.26.09-1.07-.09-.49-.1-1.46-.2-.49-.09h-.48l-.98-.2-.87-.19v-.68l.09-.78.2-1.17.49-2.63.19-1.56 1.56-7.29.29-1.85v-.49l-.1-.78-.29-.88-.58-.68-.3-.39-2.82 4.19-1.56 1.85-1.16 1.56-.78.97-2.43 3.11-.69.98-7 9.05-2.24 2.82-4.77 6.42-4.28 5.07-2.53 3.5-2.04 2.63-2.24 2.82-.68 1.07-.3.49-2.43 3.31-3.01 4.18-.69 1.17-2.62 4.48-1.37 2.72-.38.78-1.46 3.41-1.17.39-8.27.09v-.29l-.1-.39-.49-.39-.19-.1-.68-.19h-1.46l-.2-.39-.19-.58v-.59l.39-1.36.09-1.07-.19-.39-.29-.29-4.77.39-5.64-1.07h-5.07l-2.43 1.07-1.55-.98-2.73-7.39 5.16-8.57 1.17-2.04.38-.78 1.95-4.09 3.02-6.52 5.74-12.07 1.26-2.82.78-2.14.78-1.95.78-2.82.49-1.75 1.26-6.72 1.07-4.86.2-.78 5.45.87 4.67.69 6.13.87.19-1.56.2-3.01.29-1.85.29-1.17.68-2.53.1-.68 3.41.48 2.82.3 1.07.19.48.29.39.39.1.29.1.69-.1 4.47-.1 5.06h2.73l1.26-.09h5.16l3.99-.1 7.98.1 5.16-.1 15.08-26.18 1.27-3.99-3.51-.1-11.87.29-.19-14.4.09-2.92-3.21-.68-7.1-1.85-2.63-.59-6.52-1.75-3.4-.87-2.73-.59-8.95-2.24.48-1.26 2.34-6.62 1.46-4.19.88-2.43 1.07-3.6.09-1.46.49-3.21.49-4.38.48-2.92.39-1.66.78-2.33 1.17-2.63 2.43-4.77 1.75-3.5 2.63-5.26 1.36-3.01.68-1.85.78-2.34.88-3.41.39-2.23.68-5.26.58-5.84.59-5.06 1.36-6.72 1.36-6.71 1.85-8.86h12.07l2.53.1 3.79-.1 10.71-.29 1.46-.1 2.92-.19 1.26-.2.78-.19 5.06-1.85 1.56-.49 1.55-.29.88-.1h4.96l8.86-.19 8.95-.2 5.94-.09 5.74-.1.19 7.88.1 6.72v2.72l-.1 1.95-.1.68-3.01 18.01-.59 3.5v1.36l.1.3.1.29.78 1.26 1.94-1.55 2.63-2.05 4.96-3.7 2.34-1.75 6.23-4.67 5.16-3.7 10.8-7.98 1.07-.88 7.39-5.45-3.31-4.08-.38-.59-.49-.39-.59-.39-.58-.29-.87-.19-1.46-.2h-1.08l-4.76.39-4.48-.19-1.46-.1-.39-.1-.39-.19-.48-.59-.2-.48-.29-1.07-.29-.88-.88-1.46-1.07-1.46-.58-.88-3.7-3.69-1.17-1.27-.87-1.17-2.34-3.5-5.06-5.55-.58-.87-.59-1.27-.48-3.31-.59-1.95-1.17-2.14-1.16-3.21-.88-3.89-2.82-3.12-1.46-2.04-1.07-.97-1.75-1.27v-.97l-1.76.19-.19-.39-2.24-5.15-1.56-4.38-.38-1.46-.3-1.27-.19-1.36-.1-2.34v-1.55l.39-4.38.49-5.94v-3.02l-.2-1.26-.19-1.37-.29-1.07-.3-.87-.58-1.27-.68-1.36-.88-1.36-1.65-2.34-2.92-3.31-1.65-1.56-1.46-1.65-2.24-2.53-1.27-1.85-.48-.88-.78-1.65-.98-2.92-.58-3.11-.29-2.05-.59-6.23.1-2.33.1-1.56.19-1.17.69-2.53.97-2.63.97-2.04.88-1.27 2.82-3.99 2.14-2.72 5.35-7.4 9.93-13.23 5.16-6.82 4.37-5.45 2.24-3.11 1.46-2.34.39-.87.39-.78.29-1.37-8.85-.29-11-.19-1.94.1-1.27-.1-3.31.1h-3.21l-.68-.1-2.24-.68-1.36-.59-1.27-.78-1.36-.97-.87-.97-.39-.59-3.31-5.45-.88-.97-.29-.19-1.07-.69-1.36-.58-.39-.1-1.27-.09-4.38.19-5.54-.1H1557l-8.66.29h-1.07l-3.7.1-4.77.29-.09-5.15-.3-11.49v-3.7l-.19-7.3-.29-4.08-.78-6.82-.29-1.94-.49-3.8-.39-1.75-.68-2.05-1.36-3.5-.2-.78-1.46-4.09-2.72-6.81-.98-2.92-.48-1.85-.49-1.55-.19-1.17-.59-4.09-.78-7.79-.97-10.51-.58-4.77-.29-3.31-.98-10.22-.19-3.69.1-3.12.58-13.72.1-6.42 3.11-.2h3.11l2.53-.19 6.04-.59 3.89-.48 3.6-.88 3.21-.97 1.46-.49.59-.29.39-.29.38-.59.88-1.17 1.85-3.31 1.65-3.11 1.56-2.73 1.17-1.46.68-.77.1-.59.68-2.63.29-1.07 3.41-6.03 1.36-2.82 2.14-3.99 2.04-2.83 1.56-2.62 2.34-2.73 1.84-1.85 2.24-1.94 1.85-1.95 3.41-2.53 1.07-.97 2.04-4 .78-2.23 1.65-1.17 1.95-1.07 1.65-.29 5.06-.1 2.05-.78 1.65-2.04 1.46 1.36 1.27 1.56.39.48.68.1 1.07-.19.97-.3.68-.09h.78l.68.09.78.3.39.29.29.39.49.58.48.68.78.49.88.49.49.48.29.59.78 2.53.48.87.49.59.58.48.98.2.48-.1.59-.39.78-.68.58-.2 1.07.1 1.17.59 2.33 2.04.78.97.39.3.49.29h.29l.29-.2.29-.39.39-.58.88-.68.87-.49 4.77-1.95.68-.19.59-.1.78.2.77.19 2.44 1.17 3.11 1.75.58.49.69.68.87.58 1.07.39 1.75.39 1.27.2.58-.1.49-.1.58-.39 2.05-1.55 1.36-.49.58-.2 1.46-1.46.39-.09h.39l.49.19 2.04 1.07 1.75.78 1.85.29 2.24.59 4.18 1.46.88.39.68.09h.59l1.07-.19.97.1 1.75.87.78.29.88.2.29.1h1.75l1.17-.1.87-.29.98-.49.87-.19h.49l.48.19.49.19.49.1 7.39-1.07h1.75l.49.1 5.84 1.07 11.97 2.92 5.16 1.46 1.55.39 1.17.19 4.38-.29 2.14.39 1.36.58 1.27.78.88.88 1.55 1.07 1.17.49 1.65.09 4.29-.39 2.14-.68 1.94-.97 1.85-.78 1.66-.1 1.46.78 1.16 1.07 1.17 1.17 1.46.68.59.2 3.3 1.16 11.19 3.02 6.43 1.27 12.16 2.53 3.6.58h10.22l2.14-.19.39-.1.49-.58.48-.3.2-.19.39-.1h.19l.49.2.97.68.88.39 1.07.09.78-.09 1.07-.29.77-.3.69-.19v-1.27l-1.27-12.65-2.33-29.49-.3-6.52v-11.78l.1-3.5.39-7.01.29-2.82.78-6.62.1-1.75.39-4.67.09-2.92v-4.67l-.29-17.91-.09-10.03v-6.71l-.3-5.55 1.46-.19 4.67-.49 2.44-.29 14.4-1.66 2.72-.29 3.6-.1 4.58.1 2.24.19 3.21.1 3.79.2 2.24.39 3.41.77 1.85.59 4.96 1.46 3.31.87 8.27 2.34 4.48 1.07 6.22.97 8.08 1.37 12.46 1.75 15.27 1.95 6.62.97 3.89.49 9.54.97 4.87.58 4.67.68 4.18.49 4.77.88 3.02.68 4.08.68 4.38 1.07 2.53.39 2.14.19 2.92.49.98.19 3.6.39 3.99.59 9.53 1.07 9.35 1.46 4.18.78 4.09.78 4.96 1.16 6.71 1.56 3.22.49 2.04.29h.97l.78.1 1.27-.1.39-.1 1.26-.19 5.55-1.46 2.62-.88 2.05-.78 1.55-.58 2.92-1.07 3.9-1.66 4.57-1.94 2.53-1.17 1.27-.78.39-.58-3.61-9.25-.77-2.14-1.85-4.67-.59-1.56-.87-2.14-1.37-2.92-2.43-4.19-1.26-2.72-.98-2.63-.29-2.04-.1-2.05.1-6.61.2-6.72.09-19.85.2-8.08.19-1.85.2-1.46.19-.59.59-1.65 2.82-6.23.78-1.75 1.07-2.82 4.28-12.66.97-3.01.59-1.95.58-1.95 1.46-3.89 1.85-4.48 1.56-4.08 1.46-3.61.97-2.33 1.56-3.99.19-.78 1.17-3.8.87-3.11 2.53 1.17.49.1 2.43.29h1.75l6.33.09 4.38-.29 4.57-.39 4.38-.09 3.51-.49 1.36-.2h1.26l1.56-.19 2.24-.39h2.43l3.31.49 4.28.68 9.83.68 4.57.39 1.46.1 3.31.68 1.75.39 3.31 1.07-2.14 7.49.49.49-2.63 6.42-4.28 7.4-1.75 4.09-5.26 10.8-3.99 8.27-1.85 4.58-1.16 2.14-11.29 23.84 9.63.1 3.21.78 15.38.1-.29 2.82v1.17l-.88 10.51-1.95 27.54-.68 7.01-.09 2.34-.49 9.73-.39 8.27-.1 6.81-.58 14.02-.29 4.67-.2 2.53-.19 1.75-.78 4.28-1.17 4.29-.88 2.63-1.45 3.89-.88 2.04-2.04 3.41-2.53 4.57-.39.68-8.37 14.6 4.47-.09 1.76.19 3.3.1h1.76l4.67-1.17 5.06-.97 1.46-.2 3.11-.1 1.85.1 2.04.2v.87l-.09.59-.3.68-.77 2.33-.98 2.44-1.75 4.86-.39 1.17-.1 1.17v3.79l-.19 1.37-.29 2.14.09 1.85.39 1.65v.39l-.09.59-.2.29-.39.09-.78-.09-.38-.2h-.59l-.87.1-1.17.29-.39.29-.29.39-.1.49v.88l.29.19.29.2 1.75 1.55.2.29v.59l-.29.29-1.56 1.75-.19.49v1.07l.09.68.2.39.29.39.88.88.48.29.29.48.2.3-.1.87-.39.98-.39.58-.39.19-.48.1-.49.1-.49.29-.19.58v.59l.19 1.07.2 1.56.29.58.88 1.27.29 1.36.1 1.36v.88l-.2.48-.68.68-.58.2-.59.1-.39-.1-.39-.29-.29-.29-.39-.49-.39-.39h-.48l-1.37.49-.58.29-.49.48-.39.49-.19.39v.88l.1.68.29.78.39.97.39.58.58.39.49.1.68.19.58.2.49.58.49.78.58.98.29.97.2.78v.78l-.2.58-1.36 2.53-.29.78-.1.78v.78l.1.77.97 1.76.68 2.53.29.48.49.3.58.29.3.29.48 1.36.39 1.66.2 1.36v1.85l.09 1.17.1 1.07.1.87.1.98.19.78.29.77.39.88 1.36 2.24.69.97.29.88.19.68-.1 1.95-.48 1.75-.1.97v.88l.2.77.19.78.39.78.29.49.49.19 1.07.2.39.1.39.29.48.97 1.17 3.12 1.66 2.91 1.94 2.63 1.07 1.17.29.58.2.69.1.97-.1.78-.2.58-.97 1.66-.29.87-.1 1.27.2 1.55.29 1.08.1 1.26-.1.88-.78 2.04-.49.68-.39.59-.39.48-.29.49v.78l.29.78.59.68.58.58.39.49.29.78.2.87.19 3.21-.09 1.07-.3.69-.29.29-2.63 1.36-.48.58-.2.78.1.68.19.39.3.3 3.11-.78 1.27-.39.58.1.39.48.29.68v1.17l-.58 2.82-.78 1.46-.59.49-.29.68-.19.59.1 1.16.48.78 1.46.88.29.97v.49l.1 3.11.1.98.29 1.46.29.87.1.59v.29l-.2.39-.19.58v.88l.1 1.55-.1 1.17-.19.39-1.95 1.85-1.17.68-1.94.78.29.49.19.58.2.49v1.36l.09.68.3.49.19.39.39.58 2.24 1.27 1.55.77.39.1 2.34-.1 1.56.1.87.2.49.19.39.39.19.29.1.59.39 1.07 4.18-.59.88-.19 20.82-3.02 8.37-1.17 13.92-1.85 10.8-1.55 7.69-1.07.97-.2 17.23-2.43 3.99-.59 5.83-1.26 2.34-.58 4.09-1.27 2.04-.58 2.34-.88 7.78-3.31 3.5-1.56 11.39-5.06 3.02-1.46 9.34-4.18 6.42-2.73 3.99-1.75 5.84-2.72 7.88-3.51 1.27-.58 6.71-3.02 3.5-1.56 1.66-.77 1.26-.59 2.15-.87 3.79-1.85.78-.3.87-.39 4.19-1.75 2.72-1.16 5.26-2.34 7.2-3.21 3.6-1.66 1.36-.58 3.6-1.66 6.23-2.82 10.32-4.67 3.01-1.26 8.86-4 5.84-2.53 1.94-.87.98-.39 9.92-4.77 2.53-.19.98.29-.88 3.5-1.07 3.8-2.24 6.61-1.85 6.53-1.55 5.93-2.15 10.12-.38 1.56-.98 3.7-.78 3.99-.39 2.14-1.16 7.79-.1.68-.1.68-.1 1.07-.29 2.14-.48 3.6.39 2.44.97 3.4 5.84 14.5 1.55 4.87.59 1.85.19 2.53.39 10.32.1 4.18.19 3.12.3 10.7.19 3.51.1 1.36.19.68.78 2.53.68 1.56 1.36 2.63.98 1.75 1.65 2.92 1.27 2.43 1.16 2.53.59 1.56.1.29 4.18 16.64.88 3.41 2.04 7.49 1.56 6.62-.3.29-2.62 3.51-.49.78-.29.58-.2.88-.38.48-.98.88-1.55.97-.59.2-4.48.87-.77.39-.39.39-.39.39-.2.49-.19 2.72-1.07 1.85-.1.49v.68l.2.58.09.98-.19.58-.39.59-.97.87-.69.29-.97.2-1.07-.29-.68-.3-1.65-1.46-.39-.19-.59-.2-.58-.09h-.78l-1.65.19-1.56.29-1.75.2h-1.17l-3.21-.59-.49-.09-.29.09-2.14.98-.68.39-1.36 1.26-3.9 2.92-1.17.78-.77.49-2.14.48-.78.3-1.07.77-.88.2h-1.56l-1.26.29-1.17-.1-.29.1-.2.39-.38.97-.3 1.07-.58 2.73-.1.29-.48.49-1.27.68-.58.29-1.37.88-1.07.58-.48.39-.68.68-.39.78-.39.29h-.29l-.2-.29V943l-.1-.97-.19-.59-.39-.58-.49-.29-1.26-.49-1.46-.29h-1.27l-.48.39-.39.58-1.27 2.05-.97 1.16h-.58l-.39-.29-.49-.58-.88-.68v-.98l.3-.48-.1-.3-.1-.09-.29-.2h-1.27l-.39.2-1.07.78-.29.19h-.39l-1.94-.68-.49-.29-1.07-.98h-.39l-.19.2v.97l.29.39.19.58-.09 1.08-.39 1.84-.1.39-.2.2h-.87l-.29-.29-.68-1.27-.3-.29-.48-.2-.49-.19-.49-.19-.29-.39-.29-1.07-.49-2.73-.39-1.07-.58-1.07-.39-.39-.39-.19-.39-.1h-2.63l-.97-.1-.29.2-.68.97-.39.49-.49.09-.68.1-1.07-.29h-1.17l-1.16.19-.69.39-.97.39-.87.29h-.49l-1.27.3-.77.19-1.17 1.36-.98.78-12.45 8.37-1.17.78.68.68-21.6 7.59-24.91 8.86-13.04 4.57-.39 3.9 2.14 5.35.78 1.85.58 1.65.2.59.09 1.55v2.44l-.19 2.14-.1 1.95-.19.19-.49.39-.2.39-.48 1.65-.49.98-1.65 2.33-.59.59-.58.39-.88.29-3.79.29-5.94.49-3.89.77-1.95.59-1.55.68-.39.39-.29.39-.2.49v3.5l-.19.49-.49 1.16-2.04 3.31-1.56 2.34-1.17 1.95-.58 1.26-.78 2.14-.68 1.56-1.17 1.65-.19.2-.3.1h-5.64l-1.56.09-1.94.29-2.34.2-4.48-.1-2.43.1-2.14-.1-3.89-.39-3.89-.19-5.45.19-11.97.2-14.21.39-13.43-.1h-1.36l1.85 5.06 1.46 3.89 5.64 15.38 1.46 3.89 1.65 4.87.78 2.63.88 4.18.68 3.8.29 2.14.1 1.75.1 7.11-.1 8.46v26.48l.1 2.63.48 4.96.49 3.99 1.07 7.69.58 4.86.2 3.22v3.6l-.29 2.53-1.95 9.54-3.02 14.98-.77 3.9-.88 4.38-.97 3.6-1.37 4.28-.97 3.02-2.63 6.71 13.14 4.77 2.53 11.88-26.86 9.83-6.42.29-6.33-.1-16.93-.58-8.95-.2-3.41.2-3.79.39-2.24.39-2.72.58-1.85.49-4.38 1.55-6.33 2.34-7.49 2.92-16.45 6.91-6.22 2.43-5.55 1.95-8.27 3.11-5.36 2.24-9.92 4.19-6.13 2.72-3.12 1.56-1.84 1.17v3.11l-.59 5.74-1.46 6.91-1.94 6.91-2.92 6.33-1.37 2.53-.87 2.43v4.68l.48 6.03-.19 5.84-.29 7.4.58 1.65 2.53 1.85 21.22 6.62 10.6 1.36.78 2.73-.1.29-.29.1h-.78l-.87.09-.68.2-.2.29v.29l.49 1.56v.87l-.2.2h-.48l-.49-.49-.58-.29h-.3l-.29.1-.19.19-.1.39.29.68.98 1.07.19.39-.1.49-.19.29-.29.2-1.75-.3-.39.1-.1.2-.1 1.07.1.58.1.49.68.29h.29l.29.29.1.29-.97 1.27-.49.39-.2.1-.29-.1-.19-.2-.1-.39-.1-.87-.19-.2h-.29l-1.17.1-.78.59-.68.48h-.2l-.29-.19-.1-.39-.09-.49-.2-.58-.39-.39-.19-.1h-.39l-.49.2-.68.68-.87.48h-.39l-.59-.29-.48-.58-.49-.49-.58-.1h-.49l-.39-.09-.88-.39-.38-.1-.2-.1-.19-.19-.2-.39v-.39l-.19-.39-.39-.2h-.29l-.39-.68-.2-.09-.78.09-.87-.58-.29-.2h-.39l-.2.1-.19.39-.2.78h-.09l-1.17-.39-.68-1.07-.49-.29h-.58l-.3.19-.19.68-.1.78-.1.49-.38.29-.59.2-.39.29-.39.58-.29.68-.29.49-.2.1-.29.09-.29-.09-1.17-1.46h-.29l-.19.19-.2.29-.1.39-.29.39-.29.29-.58.59-.1 1.85-.1.29-.19.29-1.37-.1-1.75-.38-1.46-.2-.39-.29-.29-.39-.09-.49.09-.48-.09-.39-.2-.39-.39-.29-.68-.1-1.46-.49-.49-.39-.68-.58-.48-.68-.49-.39-.58-.2-.78.1-.68.29-1.37-.68-1.36-.39-1.56-.19h-2.43l-2.53-.2-4.09.2-1.26.19-1.36.39-1.56.68-1.65.49-.98.68-2.53 2.34-2.04 2.92-1.95 4.76-.29.88-.39.49-.58.29-1.07.1-1.17.09h-1.07l-.68-.29-.59-.48h-.29l-.29.09-1.07 1.46-.49.39-.58.49-.68.39-2.05.68-.68.29-1.46-.1-.48.2-.3.29-.19.88-.29.58-.49.29h-1.07l-.58-.1-.39.1-.78.59-.58.09-.98.1h-1.17l-1.26-.29-.88.1-.19.09v.39l-.2.1-.38-.1-.49-.39-.29-.19-1.66.19-.87-.09-1.95-.49-2.14-.39-2.73-.1h-1.75l-1.75-.19-1.94-.39-1.76-.68-1.75-1.07-3.01-2.44-2.92-2.72-.39-3.41-.3-3.01-.29-6.62v-1.46l-.58-29.4-.29-16.83-5.84 1.65-4.77 1.27-4.67 1.26-5.74 1.17-7.79 1.36-4.67.68-3.21.49-2.92.39-5.35.78-3.5.48-5.06.59-4.87.68-15.57 2.14-9.63 1.36-8.28 1.07-8.27.88-15.18 1.65-4.09.39-6.03.78-2.14.39-2.24.39-6.71 1.85-8.37 2.43-8.86 2.53-9.83 2.83-2.14.78-1.84.77-9.74 4.87-7.59 4.19-2.62 1.26-10.22 5.55-.78.48-3.21 2.24-2.43 2.14-4.19 4.09-1.65 1.66-3.7 3.7-1.36 1.46-2.92 2.62-7.69 5.75-2.43 1.84-3.51 2.73-2.62 1.95-4.97 3.6-3.99 2.92-6.81 5.16-5.25 3.89-3.6 2.92-.1 2.24.1 1.26-.2 5.45v2.82l-.97.2-1.75.39-3.21.29H1651l-.29.2-1.07-.1h-.39l-2.14-.49-.49.49-.19.19-1.07 1.07-3.31 3.02-.58.2-7.4 6.71-1.65 1.66-2.34 2.04-2.14 1.95z" stroke-linejoin="round"/></defs><use xlink:href="#d" fill="#9dc8ca" stroke="#9dd7f0" stroke-width="5.76"/><defs><path id="e" d="M1619.09 1504.19h-.69l-.87-7.11-.1-.68-.1-.97-.39-11.39-.09-3.5-30.66-24.53 3.12-6.72-.39-.29-4.09-1.55-1.65-.59-6.04-1.85-3.11-.97-7.4 14.21-9.05.19h-8.17l-5.26.1-10.12.2-7.78.09-2.34.1h-.58l-7.4-.1-8.56.29h-5.55l-3.3-.09-.1 3.31-6.62-.2h-16.06l-1.94.2-4.38-.1-.88-.2-.87-.19-.68-.29-.39-.29-.3-.2-2.33-.1-6.62-.19h-7.78l-.1.1h-4.96l-6.13.09h-5.65l-8.27.2-1.85-.1-4.77.29-7.3-.29-1.07.2h-5.83l-3.7-.1-7.59.1h-12.36l-10.71.09-.97.1-.19.1-6.43.1-4.67.09-1.75.1-3.31-.19h-.58l-2.53.29-1.66-.1-1.36.97-2.24 1.46-4.08 2.24-2.34 1.07-7.2 3.6-4.48 2.14-3.21 1.56-2.72 2.14-2.92 1.75-.29.39-6.43 3.22-2.62 1.16-1.46.39-2.53.59-2.05.39-.58-.49-4.19-.1-2.33-.19-1.95-.49-1.07-.19-3.89-.88-2.82-.88-.78-.29-14.31-4.47-7.78-2.34-.78-.19-4.67-1.46-6.52-2.05-6.03-1.75-2.05-.58-1.65-.3-1.46-.09-3.7-.2-1.85.1-3.4.19-13.82 1.46-3.41.39-5.64.49-9.73 1.07v-2.63l-.3-3.89-.09-4.96.09-5.94-7.1 2.24-1.26.29-5.06 1.36-.39.1-1.95.39-1.27.19-.38.1-2.92.49-2.92.39-4.87.48-5.16.39v-.58l-.19-11.1-.1-3.4-4.28 1.65-4.18 1.75 26.37-34.74 6.42-8.47 3.02-3.99 5.84-7.79-4.87-1.65-2.82-.88-1.27-.39-6.52-2.04-3.21-1.07-.58-.2-2.05-.77-1.75-.59.49-12.26-3.6-1.85-4.09-2.73-2.33-3.21-.88-2.33-1.07-3.9-.49-1.94-.19-1.37-1.66-4.28-.77-1.94-6.04 8.37-2.24 1.46-2.04-.78-6.81-.39-7.3-7.5-7.4-7 1.27-3.02 8.56-8.18 3.21-.09 1.07-.49.3-21.9-4.09.2 28.71-27.84 5.35-1.17.78.29.87.49 2.24 1.56 1.66 1.46 2.72 2.33 4.18 3.41.59.19 1.85.49 1.75.29 1.36.49 1.07.49.88.58.68.58.68.1 2.14.2 1.27.29.68-.1v-9.54l.09-7.88h-1.46l-6.32-.88-4.09-.78-5.06-.87v-13.33l-.1-1.37-.38-1.85-.69-1.75-.77-1.56-.88-1.55-2.63-4.09-.09-.2-.98-1.55-.29-.39-2.24-3.31-.78-1.66-.19-2.23-.1-4.19-.1-3.41-.09-8.66-.2-9.73-.19-6.81-.1-.98-.29-.78-.39-.38-.39-.3-.58-.09h-1.07l-2.63-.1-.39-.1-.29-.29-.39-.88-.2-.58-.09-1.27v-.68l-.3-19.95-.09-6.71v-40.4l.58-9.05-.19-1.46-.1-.78h.58l.68-.09.49-.29.68-.69.29-.19.39-.1h1.56l1.26-1.17 3.12-2.53 5.35-2.72 1.75-1.17 1.36-.19.39-.2 1.17-1.46.59-.29.68-.1 2.53-.19 2.53-.68 1.16-.1h.69l.68.1.48.39.98 1.16.78.78.68.49.97.1h.97l.68.09.98.59.39-.1.29-.19.29-.49.49-.29.68-.1.58.19 1.07.59.59.1 1.07-.1 2.04-.1 1.95.1 3.6-.2h.78l.87.2 1.46.78.78.09.88-.09.77-.39.88-.29 1.46-.3.88-.19 1.07.1 1.46.19.77-.1.98-.09 1.36-.78 1.85 2.43 4.38 5.84 2.04 3.02 8.95 14.21 1.37 2.14.97-.78.68-.29.49-.2.97-.19 28.22-2.63 3.5-.58 1.95-.2 2.92-.19 4.28.19 8.18-.1.87.2.59 20.83 11.67-3.6 12.36-7.98 2.24-1.27 1.56-1.36.39.29 1.75 1.75.58.29h.49l.48-.19.59-.59.39-.19.39.1.29.19.58 1.36.68.88 1.27 1.27.78.58 1.75.49.97.09.68.2.78.68.68.29.39.2 1.66-1.07 14.98-9.54 11.58-7.5.1.39.58.88 9.54-6.23 5.16-3.31 1.36-.88.78-.38.29-.2 1.07-.68 1.27-.58 1.26-.59 1.46-.68 2.34-.88 1.94-.58 2.34-.58 2.14-.3h.1l1.07-.09.78-.1 3.4-.19 11.39-.1h8.95l3.6.29 1.85.19 4.09.88 1.75.29v1.37l-.1 6.22-1.17 32.51.1 6.23v45.45l13.14 13.53 8.56 8.86 1.56 1.85 7.2-2.92-1.66 7.88 1.37 1.65 4.96 3.9 2.73 7.39 1.55.98 2.43-1.07h5.07l5.64 1.07 4.77-.39.29.29.19.39-.09 1.07-.39 1.36v.59l.19.58.2.39h1.46l.68.19.19.1.49.39.1.39v.29l8.27-.09 1.17-.39 1.46-3.41.38-.78 1.37-2.72 2.62-4.48.69-1.17 3.01-4.18 2.43-3.31.3-.49.68-1.07 2.24-2.82 2.04-2.63 2.53-3.5 4.28-5.07 4.77-6.42 2.24-2.82 7-9.05.69-.98 2.43-3.11.78-.97 1.16-1.56 1.56-1.85 2.82-4.19.3.39.58.68.29.88.1.78v.49l-.29 1.85-1.56 7.29-.19 1.56-.49 2.63-.2 1.17-.09.78v.68l.87.19.98.2h.48l.49.09 1.46.2.49.1 1.07.09 1.26-.09 5.45-.1 1.27-.1h2.14l2.43-.1 5.64-.09 4.09-.1 2.04.1h1.07l.59-.1 1.26.19h.1l1.27.2.38.1.69.09 8.85.69 7.01.19 7.39.68 1.07.1.39 21.31v.49l.3 19.85.09 1.95.1 7.2.19 5.16.3 8.08.09 10.32.1 10.12-.1 8.27v14.6l.1 3.21h-1.46v16.55l-.29 14.4-.1.78v1.27l.1 1.75.1 2.53.48 4.18.39 1.85.29 1.75.2 1.07.58-.19.2.97.58 3.02.59 4.09.68.78.48 3.79.59 6.04v3.6l.09 4.18 5.36-.68 3.31-.49 2.91-.19.39 5.06-1.26.1 2.82 12.85 2.14-1.95 2.34-2.04 37.46-2.15h.2v.39l.39 16.65-5.16.68-1.07.19-1.07.1-14.02 1.95-10.8 1.65-3.11.49-6.33.97-.39.29-3.69.59-1.75.29-1.76.29-3.6.49-1.07.19-.87.1v2.14l.19 4.96.97 16.65.1 2.53.1 3.4 1.85-.09 10.99-.49 2.73-.1 9.24-.48.78 27.44-6.13-6.52-2.63 3.5-.29.39-2.82-2.14-5.84-4.47-5.16-3.9-2.43-1.75v3.12l.1 1.46v2.53l.1 7 .38 6.82.2 1.85.39 4.57.49 3.02z" stroke-linejoin="round"/></defs><use xlink:href="#e" fill="#6bacaf" stroke="#6bb4d2" stroke-width="5.76"/><defs><path id="f" d="M668.63 1625.46l-.09.78-.1.68-.2.48-.09.68-1.27-1.55-13.33-33.39-4.38-11.19-5.74-14.31-4.09-10.22-8.66 4.87-54.3 30.17-1.56-1.85-.77-1.07-.39-.39-.1-.48v-.39l.1-.29.48-.59.1-.39-.1-.39-.19-.58-.2-.49-1.16-.78-1.17-1.26-1.17-1.85-.58-.78-.39-.97-.39-1.46-.39-.39-.49-.49-.68-.39-2.72-.58-.49-.39-.49-.88-.29-.58-.19-.68-.1-1.36v-.39l.1-.59.48-.48 1.76-1.46.29-.39.09-.3.3-1.85v-.58l-.2-.29.49-.39 1.26.19.78.39.49.88 1.46 2.04h.87l.3-.58.29-1.17.19-1.75.1-1.46.19-1.17.49-1.07 1.17-2.04.78-2.05.97-1.07.2-1.07.19-1.75.29-1.46.49-.78.97-.19h2.92l1.36-.29.68-.49.69-1.56-.2-.78-.29-.58-.88-.68-.68-.78-.29-1.46-.1-.97.39-.49.88.1h1.07l.68-.2.78-.39 1.46-.87.58-.49 1.46-1.36.1-.39-.1-.39-.1-.39-.48-.58-2.14-2.34-.2-.49.1-.48.39-1.46.1-.88-.1-.68v-.49l.19-.39.49-1.07.97-.87 1.37-.49 1.16-.58.68-1.07.2-1.66.19-2.14v-2.92l.59-4.09.48-2.63-.39-1.26-.68-.29-1.16-.1-.3-.1-2.72-1.75-.68-.88-.39-.87-.1-.78.39-1.27.2-1.26.68-.88.48-.19.78-.29.68-.78.39-1.17.39-3.11.39-1.27.68-1.17.59-1.46.38-1.26.1-1.36.29-1.37.2-.87.58-1.46.39-1.17-.1-.78-.19-3.6.1-.58.09-.39.39-.3 1.27-.77.87-.69.49-.58.2-.39.09-.49.1-3.89-.19-.87-.1-1.08-.2-.68-.29-.68-.78-1.46-1.55-2.82-.3-.58-.09-.59-.1-.49-.1-6.91.1-.68.29-.48.39-.2.58-.1 1.08-.29.77-.48.39-.39.2-.59.09-.78-.19-1.94v-1.75l.19-.39h.78l2.44.58.68.2 2.82.29.68.09h.68l.68-.19.29-.19.1-.39.49-3.02 3.02-3.31 3.69-.49 2.83-.48 2.91-.59 1.66-.87.78-.2.48-2.92-2.23-.68-1.85.29-.68-.58.87-1.95v-1.26l.88-1.46-1.36-1.27-.78-2.04-1.07-3.31-.2-3.21 1.17-5.36 1.85-1.65 1.46-1.75 1.75-1.95-1.17-2.24-1.85-.58-1.07-1.27-.29-2.33.39-2.44.68-2.82 1.07.1 1.46-.58-.39-1.56-.1-.88-1.46-.97-1.07-2.05-.68-2.23-.29-2.44-.78-3.4-1.17-2.05-1.07-1.75-1.16-.68-1.66-1.36-.58-2.53-.49-1.85-1.55-2.92-.59-3.21.2-3.7-.59-4.48.29-3.41-.58-4.96 1.85-1.65.49-1.46-.69-.98-1.16-.29-1.37-1.17-1.65-1.36-2.63-2.04-2.24-1.17.3-3.02.68-2.33-1.36-1.85-3.31-1.95-2.73-1.56-3.21-1.07-1.95.78-1.75.29-1.07-1.17.1-2.33.19-3.6-.87-2.44-.59-1.75-.38-1.46-.59-.48-.39-.39-.58-.98-1.46-2.14-.2-1.65 1.27-.49 1.17-.39.48-2.04-1.36-2.44-1.56-.58-1.16-.97.48-1.75.78-2.44-.97-1.55-1.95-.2-1.46 1.56-.78 1.17-1.16.58-.39-.49v-.97l-.68-1.85-1.27-.68-.1-2.04v-1.17l1.07-2.05-.09-2.04.19-2.34-1.75-.48-2.14.39-2.05.19-1.84.29-2.34-1.46-2.82-.19-1.36 1.85.58 2.14.88 1.26 2.23 1.76-.19 2.53-3.12.68-2.53-.68-3.11-1.07-.78-.49-.68.19-.19.88.39.88.97.68 1.46 2.14.39 3.02-1.36 1.75-1.27.78.58.87.39 1.95-.58.58-2.82.39-1.27.59-2.82 1.65-5.94-.49h-2.62l-1.95-1.46-.58-1.65-.39-2.73.48-3.69-.29-3.9-.58-2.53-.97-.58-3.7-.29-2.53.29h-2.63l-2.82-.39h-2.82l-2.24-.39-1.46-2.82-1.75-1.66-2.44.29-1.85.69-1.65-.98-1.36-.97-1.75-1.27-1.76.3-1.36-.88-2.63-.78-2.23-2.24.29-1.85-1.17-.19-1.75-.68-.58-1.66-.78-.87-1.07-.1-.59-1.75-.48-3.6-2.34-1.56-2.04-2.14-1.85-2.34-1.36-4.57.29-3.02-.29-1.75-1.46-1.27-2.15-1.26-1.36-1.85.59-2.24.09-.88.3-1.07.09-.58.2-1.26.09-.49-1.07-1.85-1.46-.88-1.75-1.85-1.75-1.85-2.04-2.33-1.75-1.07-2.24.19-1.46-.58-.59-.97-1.46-2.53-1.75-2.15-2.33.2-3.7-.59-.78-.77-.1-1.37-2.53-2.72 1.07-.97.49-.39.29-2.24-.87-.2-1.46-1.94-1.46-2.05-1.75-.58-1.76-3.02-2.62-1.46-1.07-2.04-.3-1.17.2-.29h.29l.29.39 1.17.48 1.17.2h.49l.87-1.17-.19-.58-.78-1.85-1.66-.78-3.4-1.07-4.09-2.24-3.11-.88-1.95-.39-1.75-3.11-.39-3.02.97-1.36.78-1.27 1.07-2.72.39-2.53-2.92-2.92-3.99-2.43-3.99-2.44-3.21-2.72-3.11-2.53-1.17-3.21-1.17-3.02-1.46-1.66-1.56-.97-1.26-1.17-1.17-1.55-.78-1.27-2.62-1.27-2.34-.87-3.11-1.27-2.05-.58-1.65-.88-1.75.2-2.83.39-3.79-.39-2.24-.88-1.65-1.85-.39-1.85-.29-2.23-.59-2.53-.78-1.17-1.46-.88-3.69-1.26-3.51-1.85-1.94-1.27-2.34-3.21-1.17-3.11v-6.91l-1.46-3.12-2.92-3.02-2.23-2.43-.59-1.95-1.26-4.18-1.85-2.14-.1-2.24.49-3.02.58-3.21v-2.43l-1.65-3.7-1.27-4.48-1.17-1.85-.87-1.94-.2-1.56-1.16-2.14-.88-1.75-.58-2.34-2.53-1.36-2.34-.49-1.46-.58-1.46-2.63-2.53-2.63-2.82-1.46-2.92-1.56-.97-1.36-1.95-2.04-.29-2.53v-1.07l-.1-3.61-4.77-3.89-1.94-4.38.39-9.15 2.72-11.09.68-17.13-.78-6.13-1.17-4.58-1.45-3.11-3.9-4.09-4.67-3.21-2.04-2.73-2.43-5.06-1.95-8.37-2.24-9.83-2.72-3.89-3.9-1.95-5.15-5.06-2.73-1.26-15.28-2.34-8.75-3.31-3.12.59-2.53-.2-1.75-2.92-1.85-1.46-2.24-.68-2.24-1.75-1.26-3.21-4.87-4.87-1.46-2.43-2.53-1.17-.77-1.27.87-4.47v-3.99l-.78-1.17-3.7-.68-2.04-1.66-2.14.39-3.5 2.05-2.44-.2-3.89-3.89-2.33-.29-1.76-2.24-1.84.78-.2 1.85-.68 1.16-2.82-.68-.68-.97.48-3.51-.48-1.75-4.19 1.46-2.24-1.85-5.35 1.17-3.11-.78-1.07-.68-.39-.39-.49-.87-.1-.98.2-4.08.1-1.56-.39-1.95-.78-.68-.59-.58-.87-.2-1.75-4.18-2.73-2.05-.29-1.85 3.41-4.86.39-2.63-1.37-1.66-6.61-.77-4.19-2.44-3.02-4.38-4.67-.97-.87-.49-.39-.68-.29-2.24-.3-2.33v-.49l-5.54-7.2-.78-.68-.97-1.36-4.48-2.34-3.5-4.58-6.62-6.32-1.27-.2-10.89-8.56-6.14-3.12-6.22-2.04-9.44-1.65-2.44-1.27-1.36-1.75v-3.89l.59-2.05.09-3.01-1.26-.98-4.09-1.65-1.26-1.17-1.37-2.92-.87-3.99-.1-3.99 1.95-7.5-.68-7.29-1.76-2.44-6.42-1.75-2.63-1.65-3.11-2.54-6.62-2.23-1.75-2.63-.19-1.17-2.34-3.41-1.95-5.06-2.43-3.99V761l1.95-.1 1.75.97.78.98 1.94-.39-.77-6.33-1.37-2.72-2.33-2.63-2.43-.78-7.11-.68-.58-.49-.2-4.86-1.65-1.95-3.41.19-1.75-.77-1.95-2.83-.29-1.26-4.08-6.23-7.89-9.73-.58-.1-.29-1.17-2.53-4.38-1.66-3.89-1.46-13.53-2.33-3.99-1.85-2.63-1.85-1.17-2.53-1.16-1.85-2.05-1.36-2.82v-.97l4.18 3.79 1.95 1.37 2.24 1.07 1.94.68 1.56.39 2.04-.1 3.41-1.75.68-.29.97-.1.98-.1.39-.1.39-.48.48-.88.39-1.07.68-1.46 2.14-3.21 1.56-1.85 1.07-1.17.88-.97 1.17-.98 1.16-.48 1.07-.39 2.44-.1h.97l1.46.29 4.67 1.07 2.43.39 1.07.1.68-.1.69-.39.58-.87 1.26-2.53.69-1.75.29-1.66.1-1.17v-1.36l-.2-1.36-.49-1.36-.68-1.17-.78-.98-2.43-2.14-.87-.39-2.63-.39-.59-.29-.48-.39-.59-1.07-.19-1.46.1-1.85.39-2.62.48-1.76.29-.87.49-.49.49-.39.87-.39.78-.19 1.95-.78 1.94-1.17.59-.87.29-.98.19-1.26.2-1.17.39-.88 1.26-2.14 2.14-2.63 3.8-3.79.58-.68.39-.68.78-2.34.68-1.17.88-.68 1.36-.97.97-.88.78-.97.68-1.17 2.34-2.73.87-1.36.78-.87 1.27-1.17.68-.97.29-.78.39-3.22.1-3.69-.2-1.85-.09-2.05.19-1.65.29-1.66.39-1.16.59-1.17.87-1.56.78-2.14.49-1.75.19-1.27-.1-1.07v-.97l.1-.39.29-.58.59-.69.68-1.07 1.07-2.62.97-1.85.49-1.07.19-.98v-1.07l-.19-1.07-.2-.97-.19-1.56.1-2.92 4.38-1.07 4.47-1.75 7.59-3.21 6.23-3.8 6.23-5.06 7.49-9.73 1.66-3.7 3.3-14.21 3.31-10.12.29-1.56 1.37-.19 1.26.38 1.07.2 1.46.29 1.36.1 2.92.1 32.21.19h4.29l8.75.2 1.56.09 3.31.39 2.43.39.49-1.56v-1.75l.19-1.46.39.98.59 1.07.97 1.26.68.49 1.46 1.17.97.68 4.58 3.31 1.55.87.2.1 1.56.78.48.29 8.27 3.8 4.38 2.04 3.99 1.95.78.39 3.12 1.94 6.22 4.19 1.27.78 1.65.97 1.17.49 9.15 3.31 7.01 2.33 8.36 2.73 3.02.87 3.02.59 2.33.09 1.17.1h3.41l11.58-.1h6.42l1.75.1 11.09.1 4.19.1h.1l2.04.29.49.19 2.62 1.17 2.92 1.65 5.26 3.02.97.59 9.05 5.54.88.49 4.67 2.63 3.31 1.75 1.94.88 2.14.68 8.28 2.53 1.16.48.98.59 2.14 1.26 7.78 5.26 6.42 4.18 3.31 2.34 8.96 5.94 6.42 4.18 3.6 1.95 19.75 10.41 4.77 2.34 4.67 2.24 2.83 1.26 3.99 1.66 7.29 2.62.39.2 2.44.78 9.34 3.31.68.19.87.29.39.3 1.07.68 1.46 1.36 6.13 6.91 1.66 2.04.87 1.07.49.59.78.29 1.07.58 2.53 1.56.78.39.78.39.39.19.68.1 1.55.1.49.19.1.1v.39l.58-.1.1.1-.29 8.66 3.5 3.7 2.82 2.63 2.14.29 5.36.58 2.04.3 1.56.29.29.1 5.84 1.65 1.65.49 4.67 1.26.68.2 2.44.29 1.65.1 6.72-.1h7.59l6.03-.2 3.41-.19 2.82-.1 6.23-.1.19-7.1.1-14.02v-3.21l-.2-8.85-.09-4.68-.39-17.22v-2.34h22.96l3.02.1h.29l.2.19.09.3v.29l.2 8.37.09 13.53.1 4.67.1 9.15.1 13.72.09 11.87 4.29 2.63 3.69 2.24 1.17.68 1.66.59 1.36.48 3.5.68 1.75.2 3.41.19 2.24.1 2.53.29 1.55.29 1.85.88 1.56.88 2.14 1.75.88.97 1.36 1.46.68-.78.39-.19.68-.29 2.43-.39 9.54-.78 3.8.19 7.68-.1.59-.09.29-.2.1-.19.09-1.07-.09-1.85-.1-6.81v-3.22l.1-.39.39-.77.19-.2.68-.19 1.66-.3 6.71-.09h3.8l8.07-.39.2 2.24v.97l-.39 14.7 7.3.19 25.98.97 2.92 9.25.39 1.56.19 1.26.68 14.99.1 3.12.19 3.79.2 1.27.29.68-.29.78-.39 1.16-.19 1.17-.1 1.07-.2 10.22v4.67l.1 5.26 2.24 1.17 2.53 1.94 2.82 2.24 15.18 12.65 3.31 3.02 1.75 1.66 2.14 2.14 10.22 9.83 3.5 3.79 2.53 2.34 1.46 1.26 1.17.98 3.89 2.43 1.76.97 6.91 3.9 42.33-21.71-.1-.97-.1-1.95v-.39l.29-1.75.2-2.53-.2-1.56.1-.58.1-.49.29-.77 1.07-1.27.39-.88.39-.97.49-4.18.29-5.26.09-.49.2-.39.19-.48v-1.17l-.19-.29-.2-.2-.87-.19-.59-.2-.38-.29-.78-1.26-.29-.68-.2-1.37-.19-3.7.19-.87.29-.49.39-.48.59-.59 13.33-12.36.19-.19.68-2.53 22.77-.59h8.37l.3 9.54.48 8.66.2 5.65v2.43l-.1 3.7-.68 5.16v1.55l-.2 7.69v13.34l.2 7.39.29 6.52.49 12.07.68 12.95.29 8.56v11.29l.1 9.05.09 1.56.49.78.58 1.17 1.17 2.43 3.89 8.57 2.05 5.06 2.04 5.84.68 2.33 1.17 5.35 1.66-.38.48-.3.39-.48.1-.39.19-2.14.2-.98 43.5-22.48 46.41-25.69.2 20.63.19 4.38.2 1.65.19.59.39.58.49.68.58.68 4.19 3.99 3.5 2.92 3.02 2.83 1.55 1.85.59.77.19.49.1.59.19.97.1 2.24-.1 1.94-.29 1.95-.78 3.11-.29 1.08-.39.97-.87 1.65-.49.68-.78.88-.97 1.07-1.85 1.56-1.36.97 24.42 6.04 45.16 5.74 3.89-2.73 2.82-1.75.88-.39 3.69-1.65 2.63-1.07 2.73-.88 3.5-4.96 1.85-2.92.29-.59.1-1.17-.2-.68-.19-.39-.1-1.07.29-.39.49.1.49-.1.77-.48.3-.29.68-1.46.19-.78.1-1.37.19-.48.59-.68.39-.3.87-.97 2.44-2.43.48-1.27.68-.48 1.66-.98.87-1.65.59-.97.78-1.08.68-1.16v.29l.48 2.82 1.07 4.19 2.15 7.69 1.36 4.18.19 1.07.29 1.07v1.85l-.48 2.43-.1.39-1.56 4.48-.19.88-.1 1.36v9.93l.2 6.03.29 6.33.19 11.38.1 18.4.1 5.74-.1 4.77.1 9.05.19 11.1.1.78.19.68.3.58.39.39.48.58 1.56 1.07.58.88.1.49.19 1.36.3 9.05.29 9.34.1 4.29.29 8.95.19 10.22.1 1.07.1.58.29.78.39.59.68.68.58.39.59.1.48.09 4.29-.09.97.19.58.19.68.3.68.78.59.97.1.48.19 3.51-.1 3.41v7.29l.3 9.74.19 10.41.1 3.31-.1 6.81.19 7.98 5.36-1.65 9.53-2.82 4.48-1.46 1.75-.49 1.75-.19 2.44-.3 2.92-.09 2.82.09 3.5.2 20.14 1.17-.48 4.77-1.66 13.52-.58 3.8v.97l-.1 1.07v.78l.39 1.27.59 1.36 2.53 4.48 4.76 7.98.59 1.17.29.58.39 1.26.1.78.19 1.46-.58 9.05v40.4l.09 6.71.3 19.95v.68l.09 1.27.2.58.39.88.29.29.39.1 2.63.1h1.07l.58.09.39.3.39.38.29.78.1.98.19 6.81.2 9.73.09 8.66.1 3.41.1 4.19.19 2.23.78 1.66 2.24 3.31.29.39.98 1.55.09.2 2.63 4.09.88 1.55.77 1.56.69 1.75.38 1.85.1 1.37v13.33l5.06.87 4.09.78 6.32.88h1.46l-.09 7.88v9.54l-.68.1-1.27-.29-2.14-.2-.68-.1-.68-.58-.88-.58-1.07-.49-1.36-.49-1.75-.29-1.85-.49-.59-.19-4.18-3.41-2.72-2.33-1.66-1.46-2.24-1.56-.87-.49-.78-.29-5.35 1.17-28.71 27.84 4.09-.2-.3 21.9-1.07.49-3.21.09-8.56 8.18-1.27 3.02 7.4 7 7.3 7.5 6.81.39 2.04.78 2.24-1.46 6.04-8.37.77 1.94 1.66 4.28.19 1.37.49 1.94 1.07 3.9.88 2.33 2.33 3.21 4.09 2.73 3.6 1.85-.49 12.26 1.75.59 2.05.77.58.2 3.21 1.07 6.52 2.04 1.27.39 2.82.88 4.87 1.65-5.84 7.79-3.02 3.99-6.42 8.47-26.37 34.74 4.18-1.75 4.28-1.65.1 3.4.19 11.1v.58l-8.17.59-9.05.77-7.4.59-9.14.68-4.19.49-2.24.39-3.99.68-9.82 2.24-14.12 3.3-.77.2-.49.1-7.59 1.94-3.6 1.17-2.14.78-1.95.78-1.56.48-.38.1-6.72 3.7-6.81 5.06h-.1l-4.67 3.31-2.82 2.34-1.95 1.46-3.21 2.53-.68.58-10.7 8.18-2.15 1.65-9.05 6.81-.09-8.85-.2-1.27-.09-.58-.39-.88-.49-.68-.78-.58-.78-.3-.97-.19-.78-.88-.29-.39-.39-.68-.19-.78-.2-.97v-4.09l-2.92-.09-10.7.09-3.12.1v.97l-1.17-2.33-1.84-3.51-.59-1.07-1.36-2.04-1.46-1.56-1.75-1.55-2.14-1.56-2.53-1.27-3.02-1.16-5.06-1.76-5.84-2.14-6.52-.19h-3.21l-2.53-.1-2.14-.1-3.7-.58-1.46-.49-4.77-1.75-7.49-3.21-4.67-2.34-2.14-.97-1.95-.68-1.55-.49-1.37-.48-1.46-.3-4.47-.97-1.46-.19-8.96-1.66-1.75-.19-6.42-.39-3.6-.1-2.43-.39-6.43-1.56-3.6-.68-1.46-.19-1.36-.2h-.87l-2.73.49-.68.19-.68.39-2.04 1.17-3.9 2.14-2.04.88-1.36.39-.78.19-2.24.29-2.24.1h-24.33l-7.88.1h-30.17l-1.36.1-1.17.29-.77.19-1.07.39-1.56.98-1.36 1.26-1.95 1.95-7.79 8.66-1.75 1.95-3.79 4.47-2.34 2.83-.58.58-1.17.97-.87.49-.69.29-.77.2-.88.09-9.63.29-1.17.2-1.17.58-2.53 1.76-1.17.87-1.55 1.07-.49.2-.88.58-.78.29-.87.2-1.36.29-3.8.39-1.46.29-2.63.58-9.53 3.31-4.58 1.56-7.39 2.24-7.88 1.85-2.15.58-1.26.39-2.92.68-3.99.88-2.43.68-6.23 2.24-1.46.68-.97.68-.59.88v.68l.1 2.14.58 6.52.2 1.27.29.77 2.04 3.12.49.58 1.07 1.37.39.77.68 1.95.29 1.17.1 1.07.2 2.24v3.5l.19 1.75.78 4.68.29 3.11.1 3.99-.29 1.46-.49 1.46-1.17 2.34-1.56 2.43-1.94 2.92-4.96 6.13-2.15 2.82-1.36 1.46-3.79 4.38-.98 1.07-2.43 2.14-3.31 2.34-1.94 1.46-2.34 2.14-4.96 3.5-1.75 1.46-.49.3h-.68l-.97-.3-.49 3.7-.1 1.66-.1 2.04v7.01l.1 6.71v7.6l-.1 6.91z" stroke-linejoin="round"/></defs><use xlink:href="#f" fill="#6bacaf" stroke="#6bb4d2" stroke-width="5.76"/><defs><path id="g" d="M973.32 1945.66l-36.1 39.42-1.56-2.24-24.33 1.07-7.88-19.66-2.04 3.41-1.07 1.55-1.95 2.24-1.66 1.56-1.94 1.66-.88.48-.87.59-1.66.68-2.62.97-1.95.2-5.74.19-1.17.1-2.04-.1h-9.54l-3.02.1-4.96.09h-7.98l-1.46.1-2.72-.19-2.15-.29-11.58-2.24-1.07-.1h-1.84l-2.63.19-.39-2.33v-6.23l-.1-6.81-.1-6.43-.19-6.62v-5.06l-.58-12.65.09-.97.2-3.31.19-5.65.2-9.83v-31.04l3.01-.1 2.05.1h4.67l6.23.19.68-.1.78-.29.38-.29.1-.19.2-.39.09-.69.3-6.71.09-1.85v-6.23l.2-5.25.39-19.96.09-4.86.2-1.27.1-.39.19-.29.39-.39.68-.58-.48-.59-1.08-.87-1.07-.59-1.46-.39-3.01-.29h-4.77l-13.14.68-7.98.49-10.9.39-5.93.1-8.86.19h-37.46l-5.55.1-4.38-.1 12.85-55.96 13.43-58.98h6.03l4.48-.2 12.84-.19h18l2.63-.1-2.14-3.41-.78-.77-.78-.69-.87-.58-2.34-1.75-2.04-1.95-1.75-1.46-1.46-1.07-1.07-.87-.98-.88-.39-1.17-.29-.29-.29-.1-.19.1-.3.1-1.07 1.55-.19.1h-.39l-.39-.19-.58-.1h-.3l-.77.19-.3-.09-.09-.1-.2-.19v-.39l.39-.39.1-.3.1-.19-.1-.29-.1-.2-.19-.09h-1.17l-.49-.2-.19-.19-1.27-1.75-.68-.88-.58-.39-1.37-.58h-1.16l-.39.19-.39.29-1.46 2.14-1.85 1.46-.49.59-.39.78-.97 2.43-.49.68-1.07 1.27-1.36 1.07-1.36.87-.88.49-.78.19-1.65.1-1.07-.1-1.26-.19-2.54-.78-3.98-1.75-2.15-.88-1.55-.78-2.14-1.07-2.05-1.55-2.33-1.76-3.7-1.75-1.46-.48-1.27-.2-1.16-.1-.88.1-.78.29-.87.39-.2.2-.48.39-.98 1.55-.58 1.27-.59 2.33-.29.78-.39.3-.68.38-1.36.3-1.65-.1-1.46-.49-2.14-1.55-.78-.88-2.05-2.63-.58-.48-.78-.3-1.46-.29-1.17-.19h-.87l-2.24.29-1.56.49-3.01.68-1.27.29-1.75.58-2.82 1.27-2.53.87h-.49l-4.87-1.55-1.07-.49-.68-.1-.58.1-.58.19-.49.49-1.36 1.17-1.07.58-2.15.59-.68.39-.29.48-.29.59v.97l-2.34.29-2.62.59-14.89 2.53-7.3 1.16-14.01 2.15-24.72 4.57-4.96 1.17-9.25 2.82-9.15 3.11-6.9 2.15-.39.19-.49.29-7.4 2.44-1.26-2.24-.39-3.9-7.01-19.85-.09-3.99.29-1.07 2.82-5.84 2.72-3.5 2.14-1.17 2.73-1.37 1.36-.29.1-.09 10.31-2.44 1.76-.19 1.07-.1 1.46-.97.58-1.85.1-1.56-.59-1.46-1.46-.88-2.33-.38-1.75-1.66-.98-1.26-1.16-1.46-.3-1.85-1.36-1.27-2.92-3.6-.48-1.27.19-2.04.49-1.65.09-.78-.19-.39-.58.39-1.17.19-1.75-.19-3.22-.29-1.07-1.37-.77-1.07-.69-1.07-.48-.48-.39-.39-.88-.78-1.16-.49h-.98l-1.94-.1-.69-1.46-.77-.87-1.27-.49-1.36.2-1.56 1.07-.78-.2-.29-.58-1.85-1.56-1.26-1.85-2.14-3.21.09-1.95.98-1.94 2.53-2.14 1.55-1.85.39-.98.39-1.55.39-1.08.29-.77.98-.88.68-.88.48-1.65v-.58l-.19-1.27-.1-1.56.49-.58.68-.2h.58l.88.2h.78l.19-.39.3-.49-.2-1.36-.29-1.17.1-2.92-.39-1.65v-3.12l-1.07-3.4-1.46-.88-1.37-2.63 1.37-1.36 1.46-.49.39-2.23-.3-1.46-.77-2.24-.98-.78-1.17-1.75-1.36-1.66 54.3-30.17 8.66-4.87 4.09 10.22 5.74 14.31 4.38 11.19 13.33 33.39 1.27 1.55.09-.68.2-.48.1-.68.09-.78.1-6.91v-7.6l-.1-6.71v-7.01l.1-2.04.1-1.66.49-3.7.97.3h.68l.49-.3 1.75-1.46 4.96-3.5 2.34-2.14 1.94-1.46 3.31-2.34 2.43-2.14.98-1.07 3.79-4.38 1.36-1.46 2.15-2.82 4.96-6.13 1.94-2.92 1.56-2.43 1.17-2.34.49-1.46.29-1.46-.1-3.99-.29-3.11-.78-4.68-.19-1.75v-3.5l-.2-2.24-.1-1.07-.29-1.17-.68-1.95-.39-.77-1.07-1.37-.49-.58-2.04-3.12-.29-.77-.2-1.27-.58-6.52-.1-2.14v-.68l.59-.88.97-.68 1.46-.68 6.23-2.24 2.43-.68 3.99-.88 2.92-.68 1.26-.39 2.15-.58 7.88-1.85 7.39-2.24 4.58-1.56 9.53-3.31 2.63-.58 1.46-.29 3.8-.39 1.36-.29.87-.2.78-.29.88-.58.49-.2 1.55-1.07 1.17-.87 2.53-1.76 1.17-.58 1.17-.2 9.63-.29.88-.09.77-.2.69-.29.87-.49 1.17-.97.58-.58 2.34-2.83 3.79-4.47 1.75-1.95 7.79-8.66 1.95-1.95 1.36-1.26 1.56-.98 1.07-.39.77-.19 1.17-.29 1.36-.1H840l7.88-.1h24.33l2.24-.1 2.24-.29.78-.19 1.36-.39 2.04-.88 3.9-2.14 2.04-1.17.68-.39.68-.19 2.73-.49h.87l1.36.2 1.46.19 3.6.68 6.43 1.56 2.43.39 3.6.1 6.42.39 1.75.19 8.96 1.66 1.46.19 4.47.97 1.46.3 1.37.48 1.55.49 1.95.68 2.14.97 4.67 2.34 7.49 3.21 4.77 1.75 1.46.49 3.7.58 2.14.1 2.53.1h3.21l6.52.19 5.84 2.14 5.06 1.76 3.02 1.16 2.53 1.27 2.14 1.56 1.75 1.55 1.46 1.56 1.36 2.04.59 1.07 1.84 3.51 1.17 2.33v-.97l3.12-.1 10.7-.09 2.92.09v4.09l.2.97.19.78.39.68.29.39.78.88.97.19.78.3.78.58.49.68.39.88.09.58.2 1.27.09 8.85 9.05-6.81 2.15-1.65 10.7-8.18.68-.58 3.21-2.53 1.95-1.46 2.82-2.34 4.67-3.31h.1l6.81-5.06 6.72-3.7.38-.1 1.56-.48 1.95-.78 2.14-.78 3.6-1.17 7.59-1.94.49-.1.77-.2 14.12-3.3 9.82-2.24 3.99-.68 2.24-.39 4.19-.49 9.14-.68 7.4-.59 9.05-.77 8.17-.59 5.16-.39 4.87-.48 2.92-.39 2.92-.49.38-.1 1.27-.19 1.95-.39.39-.1 5.06-1.36 1.26-.29 7.1-2.24-.09 5.94.09 4.96.3 3.89v2.63l-.2 2.43-.19 1.95v1.85l.19 9.34.2 6.33.09 1.94.1 11.2.1 10.12.19 5.16.1 3.79.39-.19 3.7-.39.58-.1 7.11-1.26 4.47-.68-.1 1.36-.19 1.36-.78 13.63-.39 6.52-.68 9.63-1.07 15.28v1.07l-.29 3.8-.1 1.17-.19 2.92-.1 2.24-.2 1.75-.68 12.94-.09 1.17-.2 3.31-.68 6.03-1.75 8.96-1.07 9.24-.29 6.33-.2 4.38-.19 5.06v2.24l.19 4.77.49 5.74.68 5.06 1.36 7.01.2 1.56.48 2.82 2.05 11.97-3.41 1.56-2.34.97-4.76 1.95-1.27.48.39 2.63.58 6.72.3 7.39 7.78-.58.1 3.99 3.4 6.81 3.12 5.65 1.36 2.72 2.14 3.8 2.73 4.87 1.94 2.72 1.75 1.17 2.83.58 2.04.68 2.73.98 3.3-.49-.29.49v.48l.49-.19.39-.59-.1 1.08h-.19l-.88.19-.88 1.56-6.32 11.09-2.34 3.9-4.47 7.3-2.44 2.82-1.36 1.65-1.36 1.46-2.92 3.51-1.95 2.04-4.96 5.45-.19.19-12.75 14.02-5.35 5.84-9.35 10.61-1.16 1.36-3.02 3.8-3.5 4.86-5.55 8.57-.88 1.26-.77-.48-.69-.3h-7.88l-10.02.2-.49.1-.48-.1h-17.52l-4.57.19-2.15.2-1.94.68-3.5 1.07-2.63 1.07-5.35 2.82-6.91 3.21-7.59 3.8-7.79 3.6-8.08 3.99-4.76 2.24-3.7 1.75-10.8 5.26-6.82 3.4-.97.59-1.85 1.17-1.75 1.36-1.65 1.26-7.79 5.45-8.27 5.46-11.29 8.37-2.72 1.65-2.14.88-2.05.58-2.14.49-3.5.48-3.7.2-1.46.09-.88.2-2.53.68-.77.29-1.56.78-3.31 2.34-1.46 1.17-2.24 2.04-2.82 2.82-1.85 1.66-2.72 2.43-2.05 1.65-1.16.88-1.56.97-.88.29-3.89 1.27-4.48 1.36.2 2.14.29 2.92.58 3.12.69 2.82.77 2.53.88 2.63 3.21 8.37 2.63 7.01.58 2.14.1.58z" stroke-linejoin="round"/></defs><use xlink:href="#g" fill="#09757a" stroke="#097d9b" stroke-width="5.76"/><defs><path id="h" d="M2168.61 2416.53l-1.66-.97-.58-.1-.39.1-.68.39-8.47 7.59-.58.09-.39-.09-.87-1.07 11.48-9.64-10.9-19.27-4.19-2.14-6.61-3.6-.59-.29.49-1.76.88-3.21 1.75-5.93 2.72-9.45 2.92-8.66 1.46-5.84.29-.97 2.63-12.46 2.14-9.15 1.95-8.37 2.24-12.55 1.26-16.65.59-8.27.38-4.28.3-18.01-.3-8.46-.29-7.21-1.17-5.15-.58-3.31-1.17-3.8-1.85-5.06-2.62-5.45-2.63-4.28 4.38-16.94 1.46-9.83.39-2.24.29-4.96.1-2.04.19-3.12.29-4.28-1.46-8.18-1.16-6.22-1.85-11.2-5.55-12.75-5.55-5.25-5.35-3.6-8.76-5.84-12.84-11.1-10.71-8.56-.78-.59-5.06-7.98-.58-9.44 3.31-27.64-1.66-5.94-3.21-11.77-2.33.68-12.07 3.5-3.21.39v-3.02l.29-1.36.29-1.17.2-1.36.1-1.36v-1.75l-.2-1.07-.49-1.66-.87-1.85-.39-.68-1.36-1.75-.49-.49-.78-.48-.58-.1-.39.1-.49.29-.39.19h-.48l-.49-.09-.88-.39-.77-.59-.49-.58-.1-.39-.1-.59.1-.77-.1-2.83.1-.87.88-2.82-3.02 1.46-.97.68-1.07.39-1.75.29-1.76-.1-2.14-.49-1.26-.09.78-2.34.19-.78.39-2.92.2-3.99.29-2.72.19-1.07.2-.39.29-.59 2.24-2.72 1.36-1.95.78-1.36 2.14-3.99.78-1.66 1.46-3.31.58-1.55.39 1.46.68 2.04.29.49.29.19.39.1h.88l2.04-2.53 1.27-.88 2.43-3.89 1.07-2.24 1.27-2.72 2.04-5.26 1.27-4.09-.78-.48-.68.09-.78.39-.49.49-1.26.49-3.51-.98-.68-.68-.78-1.07-.58-.29h-.78l-.78.58-.39.49-.19.78-.59.19-.48-.48-.59-1.27-1.36-2.33-.39-1.27-.58-2.43-.98-3.02-1.16-2.43-.39-.49-.39-.78-.97-.68-.59-.29-.19-1.27-.3-.78-.68-1.85-.87-2.04-.88-2.04-.97-1.85-3.21-3.51-1.85-1.46-1.17-1.55-1.56-.98-1.16-.58-.98-.97-.48-.88-.88-.49-1.36-.19-.78-.49-1.65-.87-.88-.68-.39-.2-.58-.19h-.88l-.39-.2-.1-.68-.39-.49-.38-.29-.49-.19h-.2l-.48-.1-.49-.68h-.49l-.29-.29-.19-.49-.29-.2h-.3l-.29-.09-.19-.49-.29-.29-.3.1-.58.39h-.29l-.39-.39-.58-.1-.1-.39.19-.49-.29-.39-.49-.19-.29-.1h-.39l-1.26-.58-1.46-.39-1.17-.2-.68.1.1-.68-.1-.49-.29-.58-.39-.58-.98-.88-.58-.29-.58-.2-.1-.29v-1.46l-.2-.68-.48-1.27-1.07-1.46v-.87l-.2-1.36-.19-.78-1.27-2.53-.19-.68-.2-.88-.09-2.14-.2-.68-.39-.2-.68-.19-.29-.29-.1-.2.1-.49.39-.58-.78-1.17-2.24-3.99-.58-1.17-14.7-.97-38.73-48.18-36.68 42.63-29.68-1.07-17.81-.68.29.2.29.09 2.53.59.68.29 1.56.78.59.68.48.68.97 2.73.1.77v.98l.2 1.17.19.58.29.58.1.49v.97l-.1.59-.78 1.94-.38.88-.2.68v.49l.1.87.39 2.05 1.17 3.89 1.07 2.63 1.65 3.5.39.68 2.04 2.34 2.34 2.53.58.88.59 1.07 1.65 2.43 1.65 1.65.49.78.49.68.48.98.3.78.29.58.29.29.49.2 1.16.09 1.37.3.87.29.88.1.48.29.3.19.68.78-34.84-.39-10.7-.1h-.39l-34.06-.29-37.18-4.38-33.67-3.79-.97-5.94-2.14-12.46-.49-2.92-30.55.98 4.47 10.02.1.19.39.98.97 2.43.59 1.07.39.88.68 1.55h-1.07l.48.1.49.29.19.2.2.19.1.1.97 2.43 2.14 4.77 2.53 5.55.78 1.85 2.92 6.52 2.72 6.13-1.07.49-5.35.58-11.19-6.03-2.24-4.19-7.2.3h-1.07l-4.09.09-.09.78-2.34.29-32.4 2.44-26.57.78-3.31-.1.1 3.01.19 8.37.29 16.26-.39 2.53.3 1.46v1.07l.19 3.11.2 7.4h-8.66l-17.13.58h-1.27l-1.55.1-9.25.2 1.46 55.96.1.97.19.78-.09 1.07v2.44l.09 5.64-.48 15.67-26.96 1.07.2 10.51-26.67.88h-.68v-1.75l-.1-.88-.09-3.7v-3.79l.39-11.98v-3.21l-.1-1.46-.2-1.26-.48-1.95-.98-2.72-.97-1.85-2.82-4.77-.68-1.66-.59-1.16-.78-2.54-.38-1.46-.3-1.65-.19-2.43-.1-3.99-.39-7.21h.49l.68-.19 1.17-.58.58-.3.59-.09.97.29 1.26.49 1.66.77 1.65 1.07.68.59 1.07.39h.39l.49-.2.88-.58.48-.29.59-.1h.87l1.17.49h.49l.39-.3.58-.77.29-.3.59-.19.48.19.49.3.78 1.16.48.39.68.1h.88l2.53-.78.97-.39 1.46-1.07.68-.68.39-.49.49-1.36.29-1.75.1-1.66-.29-1.45-.39-1.17v-1.66l.1-.78.19-.77 1.75-2.54.68-1.07-7-.68-24.43.2-.49-9.25v-3.89l.1-2.82.29-5.94-.09-7.79-.2-5.93v-1.07l-.29-14.8v-1.36l17.32-.1 12.46-.19 6.03-9.35 15.77-24.81 1.26-1.95 4.57-7.11 5.55-1.55-.19-6.91 6.03-9.25-.58-1.65-.3-1.66.1-5.25 3.02-.3-.29-9.63.58-7.5.19-9.34-.48-12.17-.39-3.4-1.17-.78-2.92-.39-1.17-1.07.98-.1 30.55-.29-.09-6.33v-1.46l-.2-7.2-.49-14.99-.19-2.82-.29-1.75-.68-3.21.09-.59.1-.29.68-.58.2-.39.39-1.46-3.41-3.7-4.67-5.26-5.35-5.83-12.75-14.41-2.63-2.82-.68-.88-3.5-4.09-.68-.97-1.27-1.75-.29-.39-1.17-1.85-2.33-3.6-1.85-3.41-2.82-5.93-1.56-3.6-1.27-2.73-.39-.88-3.5-7.78-1.36-1.36-.88-2.05-1.07-2.33-2.82-6.23-2.04-4.29-2.53-5.25.48-1.07 4.38-9.05 2.43-.1 7.6-.1 2.23-.19 2.14-.49 1.95.39 3.8 4.48.19-.68 47.68-3.41h5.94l-.1-11.58 4.28-.1 4.38-.1 4.48-.39 1.07-.19 1.17-.1 3.5-.48 3.99-.69 4.87-.87 1.55-.29.78-.2 2.73-.78 7.59-1.55 3.21-.78 10.41-2.53 15.08-3.51 2.24-.58 1.56-.2 28.03-6.61 3.79-.59 4.87-.68 2.04-.39-1.95-3.11-5.93-8.18-1.27-1.85-.48-5.25 7-.1 7.01-.1-.1-3.31-.19-5.45v-4.28l.19-2.34-18.49-10.02-2.14.39.2-2.34-9.15 1.75-1.66-5.64-1.75-5.55-1.07-2.53-.78-1.65-.68-.88-.97-.78-.78.2-2.04.09h-1.56l-2.82.2-5.45.1h-.29l-7.5.09-3.01.1h-1.27l-2.04.2-.1-4.77-.19-6.72v-1.75l.09-8.66-.09-3.41-.2-7.01-.19-1.94-4.58-5.26-3.69-4.18-1.95-2.05-.68-1.17-.29-.39-2.05-1.94-.19-.2-2.63-3.5-2.63-2.92-7.59-8.76-.39-1.07-3.3-3.5-6.62.87-.29-7.1.09-2.14-4.67-5.65-1.94-2.43-2.83-3.31-3.3-3.99-1.66-1.56-2.24-1.95-4.47-3.3-.68-.49-8.57-6.42-5.84-4.19-7.88-5.84-1.36-.97-3.41-2.44.29-.39 2.63-3.5 6.13 6.52-.78-27.44-9.24.48-2.73.1-10.99.49-1.85.09-.1-3.4-.1-2.53-.97-16.65-.19-4.96v-2.14l.87-.1 1.07-.19 3.6-.49 1.76-.29 1.75-.29 3.69-.59.39-.29 6.33-.97 3.11-.49 28.61 19.76 24.82 17.13 2.24 1.46 61.98-54.7 2.92-.39 5.55-.68 6.42-.88 20.24-2.92 7.89-.97 9.73-1.36 13.82-1.95 15.37-2.04 7.79-1.07 12.45-1.76 11.58-1.55 6.33-1.27 3.5-.97 5.16-1.36 4.67-1.37 11.29-3.5 6.03-1.65 4.38-1.27 29-8.76 15.37-4.57 7.89-2.53 9.05-2.44 7.39-2.14 8.08-2.43 8.86-2.63 15.08-4.38 16.06-4.87 11.48-3.5 12.36-3.5 5.06-1.56 14.3-4.09 3.8-.87 5.35-1.17 4.18-.68 4.29-.49 2.72-.29 6.81-.49 6.62-.39 11.48-1.07 16.93-1.07 4.97-.29 8.76-.68 19.85-1.27 7-.58 19.37-1.17 7.88-.68 14.11-1.07 15.18-.97 9.15-.59 7.98-.48 9.24-.59 8.08-.29 15.47-.39 8.08-.29 8.17-.2 4.68-.19 3.6-.1 6.03-.19 5.16-.1 20.34-.68.29 11.29-.2 6.81.1.68.2.39 1.16 1.95.78 1.36 38.54 1.07-.1-2.43-.19-7.79-.1-2.14-.29-1.85-.3-1.65-.09-1.07v-1.07l.19-1.46.39-3.61v-.68l-.1-.58-.29-.88-.19-.58 3.79-.68 4.48-.98 3.11-.68 10.03-2.72 3.3-.78 7.3-1.85 6.33-1.65 6.81-1.95 7.98-2.04 18.39-4.68 21.31-5.45 3.21-.78 4.48-.77-2.82 13.04-1.17 6.62-.19.97-.3 2.24-.19 2.92.1 7.1.48 26.48v15.57l1.27-.29 8.66-1.95 1.95-.2 1.36-.09 8.17.39 8.37.09 5.84.2 12.26.19h2.92l3.11.1 2.83.1 7.29-.39 7.5-.39 7.59-.58 1.56-.2 10.31-1.26 4.96-.49 4.29-.49 2.62-.19 4.38-.29 3.7.19h3.7l4.77-.68 11.28-1.17 14.8-1.36 2.82-.2 4.08-.29h2.63l19.17.68 2.14.1 4.19.29 4.18.39 5.65.78 14.2 1.95 5.55.68 4.57.78 6.72.87 1.26.29 1.46.39.69.3 1.45.87.59.59.87.97-3.01 3.5-8.57 9.54-.87 1.07-2.34 2.63-3.5 4.18-5.64 6.14-6.62 7.2-.68 1.07-.68 1.17-.2.87-.1 1.95.1 3.41.29 12.65.2 7.2v17.23l.68 17.61-.1 5.36.1 8.37.19 5.06.2 4.18.1 2.24-.2 6.62-.1 4.48v4.28l.3 9.34.87 19.08.39 7.59.29 3.5.1 1.17.19 1.46.98 4.28.97 4.09.78 2.24 1.17 3.11.19.69.39.77.49 1.17 1.65 3.12 1.46 2.72 1.66 2.63 2.53 3.21.87 1.17.88 1.46.97 1.75 3.5 7.01 1.17 2.53 1.66 3.21 2.53 4.28.58 1.27.29.97.29 1.75v.78l-.29 6.82-.19 2.14-.29 5.15-.3 3.51v2.14l.2 5.45v4.67l-.2 1.27-.68 2.04-3.5 9.05-1.27 3.21-.58 1.27-.68 1.95-.29 1.16v3.7l.09 2.34 1.17 12.65.49 5.65.19 4.38.49 6.03.39 4.96.39 4.97v2.24l-.1 3.5-.1 2.04-.29 3.7-.48 4.09-.3 3.89-2.33-.58-4.28-1.17-4.58-.88-3.31-.87-5.15-1.07-7.69-1.75-4.58-1.46-4.18-1.56-3.79-1.66-2.83-1.46-2.92-1.75-3.79-2.63-5.94-4.18-7.1-4.96-7.98-5.65-2.63-1.65-8.08-5.75-4.08-3.3-2.44-2.24-6.71-6.62-3.41-3.21-8.66-8.47-6.61-6.42-5.06-4.87-5.36-5.26-.87-.97-1.85-1.95-2.73-3.11-4.57-5.74-4.77-5.75-3.31-4.08-3.99-5.26-4.47-5.55-1.56-1.94.58-.88 1.07-1.56.69-1.16 1.07-2.44.58-1.85.88-3.01.19-1.56.1-1.85v-1.75l-.39-17.81-1.75-.49-.78-.39-.59-.68-2.23-3.11-2.63-3.51-1.46-1.75-2.63-2.53-5.54-5.65-2.73-2.53-1.75-1.94-.97-1.17-.39-.68-.3-.78-.29-2.53-.39-1.85-.48-2.14-.78-2.43-.88-1.76-.58-.97-.68-.78-.88-.87-.78-.69-.58-.29-.88-.39-.48-.48-.39-.78-.39-2.24-.29-3.02-.3-1.46-.38-.78-.49-.77-.88-.78-.19-.1-1.85-.68-1.75-.39-1.36-.68-2.15-1.75-1.26-1.76-1.46-2.72-1.17-2.92-.58-2.14-.49-1.27-.58-1.07-.68-.48-.68-.39-1.66-.3-1.65-.19-1.27-.39-4.09-1.75-1.55-.88-.88-.58-1.36-.59-3.41-1.85-4.47-2.43-1.56-.97-.88-.39h-.68l-1.16.19-.59.3-.97.19-1.27.2-1.26-.3-2.34-.78-.97-.19h-.88l-.97.19-2.04.69-.59.19-1.16.58-1.37.3-1.65.19h-2.34l-.87-.39-.68-.48-.78-.78-1.17-1.76-.78-1.46-.68-1.07-1.36-1.55-1.07-1.17-.88-1.27-1.65-2.43-.78-1.85-.88-1.46-1.36-1.75-1.17-1.17-.39-.68-.39-1.26-.39-1.46-.68-2.24-.39-1.56-.19-1.75-1.75-8.66-.88-3.31-.48-1.76-.49-1.16-.58-.88-1.76-2.04-2.82-2.14-1.17-1.08-1.07-.68-.39-.58-.58-1.27-.39-.87-.39-.39-.39-.2-.48-.09-1.17.19-.68-.1-.49-.19-.39-.29-1.75-2.14-.58-.39H2415l-1.36.09-.58-.09-.29-.2-.2-.48-.29-.98-.2-.29-.58-.49-.49-.19-2.04-.29-.78-.2-.58-.29-.39-.39-.29-.29-.49-1.07-.19-1.07-.2-.78-.68-1.07-.1-.29v-.29l.2-.69.1-.39v-.58l-.1-.58-.2-.39-.68-.78-1.75-1.46-.68-.88-.58-.78-.88-1.75-.49-1.17-.68-1.26-.39-1.46-.09-1.75.48-1.95v-.39l-.19-.58-.2-.29-.29-.59-2.04-2.24-1.07-4.18-1.46-2.82-1.66-3.02-3.4-5.06-2.53-4.19-3.9 1.37-2.72 1.26-3.21 1.56-6.81 3.6-3.31 1.95-1.66.87-12.06 7.5-4.48 2.62-6.71 3.9-4.09 2.23-3.02 1.17-.97.2-.97.09-.88-.09-2.73-.39-6.42-1.07-5.25-.88-5.74-.97-1.17-.1-.88-.1-1.55.1-3.61.58-7 1.56-10.71 2.24-18 2.63-3.79.19 1.26 1.75 1.95 3.41.97 2.73.19 1.07.39 1.17.49.87 1.27 1.95.87 1.55 1.27 3.02.68 1.36.48.88.88 1.36.29.78.39 1.27.2 1.26.29 1.46.39 1.36.48 1.66.78 1.65 2.82 3.6 2.34 3.31 3.99 6.23.49 1.27.77 3.5.69 4.77.48 1.56.39 1.26.59 1.07.87 1.37 1.07 1.26 2.05 1.75 2.53 1.85.97.78.68.97.39 1.37.1 2.04-.3 2.53-.19 1.07-.97 3.51v1.07l.58 3.89.1.39.48.88.39.58.88.78 1.56.97 4.57 2.43-30.95 58.69 5.55-.39 10.9-.87 10.61-1.07 8.85-.78 3.9-.29 15.27-.39 5.06-.1.1 9.93.1 10.31v3.6l.1 6.23v2.53l-.1 5.36.29 10.8.39 10.41.29 11.98.39 4.47.29 1.56.68 2.04.69 1.85-.98.88-.58.58v.88l.1 1.07 1.07 8.27-.1 1.07v.39l-.39-.1-1.07-.19-6.33-.68-9.05-.59-4.86-.48-1.66.09-.97.2-8.66 3.11-2.43.78-.88.2-2.43.19-6.91.29h-16.84l.59 9.06.29 13.13v3.02l-.19 3.02-.39 9.24-.3 3.02-.19 1.46-.39 1.27-2.72 6.13-1.46 3.7-.78 2.62-.59 2.63-.39 2.24-.58 5.06-.78 9.05-.29 3.31-.1.98-.39 3.21-.97 6.52-1.07 7.49-.58 3.02 1.26 1.36 1.95-.97 3.01-1.75 1.07-.49.78-.29h.68l.88.1 1.36.29.98.29 3.01.78 5.55 1.07 14.01 2.24 1.07.19 7.2 1.37 6.72 1.46 4.28 1.65 2.04.78 6.33 2.14 1.46.58 1.65.78.68.39.59.39-.59 2.63 1.07.87.78 1.37 1.66 2.53.48.87.3.78 1.26 2.73.49 1.75.09.78.3 1.26.39 1.17.68 2.43 1.16 2.15.49.77.78.3.39.09.49-.09.19.09.1.39v.39l-.2.68v.49l.1.39.39.87.29.3.88.58.39.1h.19l.29.19.2.29.09.59v.68l-.09.88-.2.39-.29.38-.1.3v.39l.39 1.07.29.68.69 1.07.29.29 1.85.97.68.3 1.36.38.78.49.68.49.19.39v.19l-.19.1-.19.1-.2.09-.19.39v.39l.09.1.39.29 1.85.29h.49l.29.2.39.49.49.68.19.09.29.1.29-.19.3-.3.09.1.59.88.19.19h.68l.3.2.58 1.07.39.39.87.39.78.09 2.05-.19h1.26l.78.19 1.07.39.97.39.98.49 1.26.58 1.07.39 1.17.2h.88l.68-.1h.48l2.34-.88.19-.19.78-.68.59-.29h.48l1.07.87.29.2.59.09.49.1.19.2.1.48-.1.59-.1.29-.29.39-.29.48.1.49.09.2.2.19h.19l1.56-.49h.49l.48.2 1.46.29.29.19 1.17.39 1.17.59 1.26.48 1.37.78 1.36.98.78.39.68.09 1.17-.09.97.19.29.2 1.17 1.26 1.46 1.27.97 1.26.29.49.3.29.78.19.29.2.19.19v.3l.78.97.29.19.2-.09 1.55-.78.49.09.39.1.58.49.2 1.36.1.39.09.2.49.09h.68l.68-.09.97.09.98.2.87.48.88.69.49.29.48.48 1.56 1.27.97.39 1.66.58 1.46.88 1.55 1.26.1.2.68.29 1.07.29.88.59.49.77.58.69.49.48.87 1.85.59.78.77.78.78.19 1.46.78.68.1.29-.2.2-.48.1-.39-.1-.2.29-.48.49-.1.58.39 2.24.29.39.39 1.56.29.68.1 1.17-.1.77.2.98.39.78.58 2.43 1.07 1.36 1.36.78.88 1.75 2.43.68 1.07.49.69.58.29.39.09 2.05-.58.87-.1.49.2.19.39.1.58-.1.78.29.78.49.97.88.78 2.14 1.27 3.11 1.94.68.88 1.17 2.63.58 1.55.1 1.95.2 1.75-.2 1.95-.97 2.33-.1.59-.49 4.96-.19 1.27-.39 4.47-.29 3.99v4.97l-.1.68-.78.29-.87-.39-.88-.29-3.7-1.17-3.69-2.14h-3.22l3.7 2.63 3.99 2.72-.78 1.46 1.46.98 1.66 3.4-1.27 2.53.39 2.05.59 2.43 1.55 4.58 1.56 2.82 3.02 1.75 1.85.39 2.23-.29 1.17.09v1.76l.2 1.16.58.98.58.48.59.98.39 1.36.48.97.59.68.68.2 5.45 2.43 1.55.98.88.38.49.39.39.59.68 1.85.09.58.2 1.27v.68l.19 1.46-.19.87-1.17 1.56-.78.78-.97 1.56-.68 1.46-.2 1.16v.98l.69 1.46-.1.97-.2.39-.19.1-1.27-.1-1.16-.19-1.85-.3h-.78l-.59.3-.77.68-1.56 1.16-1.07.2h-1.36l-1.17.49-2.82 2.04-.49.39-.39.49-.78 1.36-.48 1.75-.49 1.17-.68 1.46-.49 1.46-.49 1.56-.09 1.46v.77l.29 2.83v.77l-.1 1.66-.1 1.56-.58 1.26-1.17 1.66-.39 1.16.2.69.1.29.09 2.82v.29l-.09 1.36-.69 2.83-.58 1.65-.39 1.07-.48 1.27-1.17 2.72-.49 1.17-.78 1.27-.97 1.07-2.73 3.4-5.06 5.45-1.36 1.17-1.36.78-.97.29h-.88l-1.36-.29-1.17-.39-3.02-1.36-.58-.68-.29-1.07-.39-.88-.59-.49-.77-.19-1.17.29-.68.29-1.27.68-.48.49-4.38 3.12-1.07.29-1.95.09-1.85.69-4.67 6.22-3.99 5.26-.39 1.56.39 1.65 5.84 3.9 3.02 2.62.87.59.88-.1 1.75-.97.68-.2.58.1.2.19v.49l-.1.58-.68.69-.78.48-.49.49-.29.97-.09 1.27.19.97 1.07 1.75.88 1.85 1.07 1.66.58 1.26.88 5.06.97 2.24.88 1.56 1.26 1.17 1.36 1.07.29.09.98.39 1.07.3 2.24-.3 1.07-.19.48-.2.39-.29.1-.87 1.17-3.51.48-.87.39-.3.3-.09.19.19.19.29v.78l-.29 1.75v.69l.68.97.1.58-.19.88-.39.29-.68.39-.68.58-1.37 2.15-.29.87v.97l.39 1.17.68 1.07.97 1.75.69 1.66.48 1.46 1.56 2.14 1.07 1.07.97 1.46.49 1.07v.88l-.1 1.26-.29 1.07.1.98.58 2.33 1.17 3.21v.1l-.1.29-.29.49-.58.58-.98.49-.97.39h-2.34l-.68.1-.58.58-.39.97-.49 1.27-.58 2.34-.88 3.4-.39 2.05-.38.97-.49.88-1.46 1.26-.49 1.85v1.07l.1.68-.39.88-.49.29-.68.19h-.87l-.49.2-.49.29v.58l.2.59.78 1.26 1.16.39.88-.09 1.46.19.97.49 2.05.68 1.65-.1 1.75.29.88.2.97-.2 1.07.1h.2l3.4.1.88-.2.68-.48.29-.3.2-.19.68-1.17.68-1.17.78-.77.78-.59.38-.19.59-.2.39-.29.19-.49.98-1.46 1.36-1.46.58-.68.2-.58-.1-.49-.2-.19-.48-.2-.1-.39v-.29l.39-.39.49-.39.78-1.26 1.07-.98.38-.77.2-.88-.1-.58-.1-.59.1-1.75.1-.58.29-.59.59-.68.97-.58 1.65-.78.88-.1.49.1.19.48-.19 1.37-.3 1.17-.39 1.55-.68 2.73-.29 1.36-.39 1.07-.49.88-.58 1.36-1.65 5.25-.68 1.66-1.17 2.14-.2.58.39 1.76.2 1.07v.39l-.2.58-.09.29-.1.49v1.07l.19.97.39.78.78.88.68.68.97.58 2.15.98.58.48.58.88.3.29.38.2.98.19.68.29.29.29.29.49v.68l-.09 1.17-.3 1.36-.87 1.36-.59 1.17-1.16 2.83-1.07 3.21-.2 1.16v.98l.2.39h.29l.29-.29.88-1.37.58-.58 1.85-.78.78-.49 1.26-.29h2.53l1.46.49.78.39.39.39v.48l-.29.78-.98 1.07-1.36.88-2.92 2.24-1.75 1.46-.97 1.36-.78.88-.49.19h-1.85l-.58.39-.68.88-.68.19h-.78l-.59-.29-1.84-1.27-.59-.09-.19.09-.29.49-.2.78v1.94l-.19 1.76-.3.87-1.55 2.24-.88 1.46-.29.58v.88l.49.49 1.36.87 1.26 1.27.68.87.98 2.54.39 1.75.58 1.46.68.87.88.2 1.26-.1 1.66-.39.78-.19.39.19.58.49.19.68.3 1.46.29 1.75.78 1.85.68 1.26 3.11 4.38 2.14 2.73-20.73 16.93-17.51 14.31 17.9 45.65 4.29 10.9-.88.39-.58.1-.69-.2-2.04-2.14-3.21-2.14-.68-.39-.39-.1-.49.1-.48.29-.78.58-1.07 1.46-1.56 3.12-.49.78-.68.87-1.46 1.17-1.07.88-1.75.78-2.82 1.55h-.59l-.48-.19-.97-.39-.88-.39-1.07-.19h-1.36l-.39.09-.29.2-.2.29-.1.29v.49l.59 1.07 1.55 2.24.39.87.2 1.17v1.17l-.1 1.17-.19 2.53.09.58.49 1.07.97 1.75.39 1.37.49 1.07.19.39v.39l-.29.09-.29.1-.29.29v.59l.19 2.04.49 2.24-.1.58-.19.49-.29.19h-.69l-.29-.39-.1-.48-.29-3.41.1-.78v-3.11l-.19-.29-1.46-1.37-.78-.97-.59-1.17-.19-1.17-.1-.38-.29-2.24-.2-1.27-.38-.78-.2-.19-.87-.59-3.99-1.16-1.27-.39-1.07-.78-.49-.59-.39-.68-.58-2.04-.1-2.82.1-.98-.1-.68-.29-.48-1.07-.88-1.75-1.07-.78-.2h-.88l-1.46.3-.87.29h-.78l-.39.1-.29.19-.2.58v2.34l-.09.78-.1 2.14-.39 2.04-.29.88v.58l.19.69.1.19.29.29.98.29.87-.09.59-.3.29.1v.39l-.1.49-.29.29-.39.97-.29.98v.87l.09.78.3 1.07.39.78.38.29.49.2.2.48-.1.3-.2.19h-.77l-.69-.49-.77-.29-.69-.49-.58-.19h-.39l-.19.29-.1.29-.1.49.1.78.49.88.39.87.68.68.39.78 1.75 4.67.68 1.75.87 1.56 1.37 2.24.87 1.07.49 1.17 1.95 6.33.87 1.75.29 1.55.2 1.37.19.58.49.68.78.59.48.39.39.58.59.68 1.26.58.78.69.29.48.39.49.2 1.17.29.68.68 1.95.97 2.33.88 1.36.58.59.59.39 1.36.68.19.19.2.2v.29l-.2.19h-.48l-1.46-.48-1.17-.88-.97-1.46-2.92-4.28-.59-.78-.58-.68-.78-.2-.97.2-.68.19h-1.17l-1.85-.68-2.04-.87-.88-.68-.58-.98-.49-1.17-.58-.68-1.46-.87-.78-.49-.68-.29-1.07-.29-.39.09-.29.39-.49.88-.1.97-.1.98v1.46l.3 2.33.29.68.68.78 2.43.88.2.09.39.3.19.29-.1.39-.09.19-1.07.59-.59.19-.58-.19-1.17-.49-.78-.39-.49-.49-.97-1.46-1.07-1.36-.58-.19h-.49l-.39.29-.1.49v.77l.2 1.27.49 1.56.77 1.46.39.68.1.48-.1.98-.29 1.26-.19.68.09 2.44.3 1.26.58 1.27v.68l-.39.29-.19.1-.39-.39h-1.46l-.39-.1-.39-.39-.39-1.07-.49-1.56-.39-1.36-.19-.78-.1-.39-.1-1.07-.48-1.26-.29-.39-.39-.1h-.69l-.77.1-.78.1h-.78l-1.27-.3-1.46-.68-.29-.09-1.17-.69-1.84-1.16-1.56-1.46-1.66-2.63-.87-.97-.78-.39h-.97l-3.02.87-1.65.68-.39.49-.2.29-.19.29-.49 1.85-.1.98.1.87.29.98 1.56 5.15.49 2.83.58 1.46.49.48.39.2.39-.2.87-.78 1.07-.97.29-.1.2.3-.1.97-.29 1.36-1.17 2.34-.58 1.55-.29 2.05v1.85l.19 1.26.39 1.07.49 1.07 1.36 2.24.68 1.46.19.98.2 3.01-.1.78-.19.49-.39.58-.2.49v.49l.2.48.87 1.36 1.07 1.85 1.27 2.63 1.56 3.89 1.84 3.12.2 1.56.1.97.29.97.49.88 1.07 1.26.87.88 2.73 2.43.19.68v.69l-.1.48-.87 1.27-.2.29.1.29.97 1.56 1.17 1.46 4.87 7.3.48 1.17.1.58-.1.1-.29-.1-.19-.19-.2-.3-1.55-2.14-1.76-2.04-3.3-4.67-.59-.39-.39-.2-.29-.39-.19-.39-.3-.39-.29-.19-.39-.49v-.48l.2-.49.97-.88.1-.58v-.49l-.2-.48-.09-.1-.59-.58-.39-.1-.29-.1-.58.1-.2.29-.19.58-.39.49-.59.29-.77-.09-.78-.3-2.34-1.36-1.36-.87-.78-1.08-.78-1.55-1.26-2.14-1.07-2.73-.88-1.36-.87-.68-.69-.59-1.94-4.08-1.85-3.51-1.36-2.04-1.56-1.85-.78-1.75-.58-1.66-.2-1.65-.58-7.59-.29-.78-.49-.59-1.17-.68-.39-.29-.78-1.56-.38-.78-.49-.48h-.39l-.49.29-1.26 1.56-2.34 3.4-1.26 2.44-.49 1.65-.49 1.85-.29.39h-.29l-.49-.29-.58-.78-.68-1.66-.39-.58-.97-.58-1.27-.68-3.79-1.76h-.49l-.29.2-.59 1.26-.19 1.07-.1.88v.78l.2.87.39.88.38 1.36.2 2.05v.87l-.2.78-.48.49-.97.68-2.83 1.26-1.07.2-1.36-.39-3.7-1.56-.68-.09-.1.09-.39.49-.19.58v.98l.1.97.29.88.49.97.58.68.39.58.29.88.1.68v1.36l-.1 1.85.1 1.66-.1.68-.19.78-.39.68-.2 1.26v.59l.2.29 1.16.19.39.49.88 1.27 1.75 2.14.59.19h.68l.58.39.58.29.59.69.78 1.46.09.29v.48l-.19.3-.39.19-.49.2-2.82-.1-1.36-.59-1.75-.77-.59-.1-.48.39-.2.68-.09.87-.39.88h-.59l-.78-1.07-1.36-1.07-.78-.29v-.29l-.09-.3-2.24-.58-21.7 1.46-.3.29-1.36.78-.39 1.07-.19.49-.2 4.38-.87 3.01-27.64-13.33-30.85.78-21.89-25.89-2.14.88-1.37.48-1.55 1.46-1.46 1.85-1.07 2.24-.29-12.56v-2.62l-.1-4.67-.98.09-.48-.09-.59-.2-.29-.29-.19-.29-1.17-2.73-.78-2.24-.48-1.75-.1-.78v-.58l-1.75.1-1.76.29-.87.68-.78.39-.49 1.07-.29 2.33v2.24l-.58 2.05-.59.48-.68.3-.09.09-.98-.09-1.17-.39-1.07-.88-2.04-2.53-.97-.68-1.66-1.07-.87-.2-2.24.88-1.07.88-.1.09-.68.78-1.17.39-3.31 1.75-1.16.39-5.26 4.87-4.77 4.96-.87.39h-.2l-.48 1.07-.88 2.82-.1 1.27-.39 1.75-.29.59-.1 1.07-.77.77-.2 1.08-.1 1.26.78 1.85-.19.97.29 1.07-.88 2.05-.29 1.07-.58 1.75-.49 1.95.1.68-.2.87v1.07l.3.78.39.49.48.39.88.1.78-.1.77.39 1.37.87 2.82 2.53 1.46 1.08 2.63 3.5.97 1.85.49.68 1.36.97.78.29.19.3.29.48.49.2.19-.2.3-.48.39-.1h.48l.39.1.78.68.49.48 2.53 4.68 1.55 2.82.2 1.46v1.46l-.2.39-.19.58-1.27 2.92-.97 1.46-.58.68-.68.68-.69.39-.87.49-1.95 1.17-3.4 1.07-.59.39-.39.48-1.46 3.02-1.07 1.46-1.94 1.85-1.85 1.17-1.27.29h-1.36l-1.17-.49-1.46-.48-2.62-.59-1.56-.58z" stroke-linejoin="round"/></defs><use xlink:href="#h" fill="#09757a" stroke="#097d9b" stroke-width="5.76"/><defs><path id="i" d="M1295.52 1795.29l-1.94 1.07-4.48.1-11.87 7.79.29-17.04-8.86-18.29-16.54-8.37-.97-.98-.98-.68-1.46-.87-.39-.39-.19-.3-.1-.19v-10.12l-7.1-9.15-2.04.19-1.85-.19-1.85-.59-.39.59-.49.19v-.48l.29-.49-3.3.49-2.73-.98-2.04-.68-2.83-.58-1.75-1.17-1.94-2.72-2.73-4.87-2.14-3.8-1.36-2.72-3.12-5.65-3.4-6.81-.1-3.99-7.78.58-.3-7.39-.58-6.72-.39-2.63 1.27-.48 4.76-1.95 2.34-.97 3.41-1.56-2.05-11.97-.48-2.82-.2-1.56-1.36-7.01-.68-5.06-.49-5.74-.19-4.77v-2.24l.19-5.06.2-4.38.29-6.33 1.07-9.24 1.75-8.96.68-6.03.2-3.31.09-1.17.68-12.94.2-1.75.1-2.24.19-2.92.1-1.17.29-3.8v-1.07l1.07-15.28.68-9.63.39-6.52.78-13.63.19-1.36.1-1.36-4.47.68-7.11 1.26-.58.1-3.7.39-.39.19-.1-3.79-.19-5.16-.1-10.12-.1-11.2-.09-1.94-.2-6.33-.19-9.34v-1.85l.19-1.95.2-2.43 9.73-1.07 5.64-.49 3.41-.39 13.82-1.46 3.4-.19 1.85-.1 3.7.2 1.46.09 1.65.3 2.05.58 6.03 1.75 6.52 2.05 4.67 1.46.78.19 7.78 2.34 14.31 4.47.78.29 2.82.88 3.89.88 1.07.19 1.95.49 2.33.19 4.19.1.58.49 2.05-.39 2.53-.59 1.46-.39 2.62-1.16 6.43-3.22.29-.39 2.92-1.75 2.72-2.14 3.21-1.56 4.48-2.14 7.2-3.6 2.34-1.07 4.08-2.24 2.24-1.46 1.36-.97 1.66.1 2.53-.29h.58l3.31.19 1.75-.1 4.67-.09 6.43-.1.19-.1.97-.1 10.71-.09h12.36l7.59-.1 3.7.1h5.83l1.07-.2 7.3.29 4.77-.29 1.85.1 8.27-.2h5.65l6.13-.09h4.96l.1-.1h7.78l6.62.19 2.33.1.3.2.39.29.68.29.87.19.88.2 4.38.1 1.94-.2h16.06l6.62.2.1-3.31 3.3.09h5.55l8.56-.29 7.4.1h.58l2.34-.1 7.78-.09 10.12-.2 5.26-.1h8.17l9.05-.19 7.4-14.21 3.11.97 6.04 1.85 1.65.59 4.09 1.55.39.29-3.12 6.72 30.66 24.53.09 3.5.39 11.39.1.97.1.68.87 7.11h.69l-.49-3.02-.39-4.57-.2-1.85-.38-6.82-.1-7v-2.53l-.1-1.46v-3.12l2.43 1.75 5.16 3.9 5.84 4.47 2.82 2.14 3.41 2.44 1.36.97 7.88 5.84 5.84 4.19 8.57 6.42.68.49 4.47 3.3 2.24 1.95 1.66 1.56 3.3 3.99 2.83 3.31 1.94 2.43 4.67 5.65-.09 2.14.29 7.1 6.62-.87 3.3 3.5.39 1.07 7.59 8.76 2.63 2.92 2.63 3.5.19.2 2.05 1.94.29.39.68 1.17 1.95 2.05 3.69 4.18 4.58 5.26.19 1.94.2 7.01.09 3.41-.09 8.66v1.75l.19 6.72.1 4.77 2.04-.2h1.27l3.01-.1 7.5-.09h.29l5.45-.1 2.82-.2h1.56l2.04-.09.78-.2.97.78.68.88.78 1.65 1.07 2.53 1.75 5.55 1.66 5.64 9.15-1.75-.2 2.34 2.14-.39 18.49 10.02-.19 2.34v4.28l.19 5.45.1 3.31-7.01.1-7 .1.48 5.25 1.27 1.85 5.93 8.18 1.95 3.11-2.04.39-4.87.68-3.79.59-28.03 6.61-1.56-2.33-1.07-1.56-3.6-5.06-5.93-8.18-.2-.29-2.72-3.99-1.56-2.43-1.56-2.34-.39-.58-2.43-3.7-.58-.78-.78-1.17-6.43-9.05-1.55-2.53-3.6-6.81-4.28 3.31-1.76 1.26-2.04 1.56-2.53 1.95-4.77 4.18-1.85 1.36.98 1.85-4.19 2.24-1.17-2.72-9.92.19-1.85.2-3.6.09-2.53-.09-.1.87-.49 1.46-.19.78-.49.88-1.26 1.85-2.34 2.92-.48.87-.59 1.36-.29 1.08-.19.48-.3 2.05-.09 1.16.09 8.47v1.07l.1 7.11.1 6.71v5.74l.1 3.99 7-.09.1 11.58h-5.94l-47.68 3.41-.19.68-3.8-4.48-1.95-.39-1.75-2.72-2.72-4.58-4.38-6.91-1.46.68-8.08 4.28-.68.39-4.09 2.34-2.53 1.36-.87.49 1.26 2.63 1.56 3.5.78 1.56-10.12-4.09-1.66.88-3.89 2.14-5.06 2.63-9.63 4.86-.49.29-5.74 3.02-2.63 1.36-4.28 2.24-.88.49-3.5 2.04-.87.59-1.37.87-2.62 2.05-1.46 1.16-1.46 1.27-7.79 8.08-7.39 7.88-2.63 2.63-1.07.97-2.53 2.05-2.53 1.55-1.75.98-2.53 1.07-1.08.39-2.72.77-.29.1-2.05.29-2.14.1-2.43.1-16.93.19h-5.94l-1.55.1h-6.33l-4.96.2h-7.59l-.88-.49-3.21.1-.39-.3-1.36-.09-.59.48h-6.52l-.48.1-.59.39-.97.1h-6.81l-7.49.09-.88-.48h-3.6l-3.5-.39-7.5-.97-.97-.59-4.67-.97-4.96-.78-1.37.78-.58-.1-2.43-.29-2.44-.2-4.57-.09h-17.32l-2.24.09h-5.74l-5.64.1h-11.97l-5.36.2h-1.85l-10.41.29h-2.43l-3.41.1h-.29l-1.65 7.39-.78 3.99-.2.88-.97 5.06-.78 3.7-1.85 9.93-1.85 9.05-.97 4.38-.97 4.77-1.56-.3-2.33-.68-4.19-1.07z" stroke-linejoin="round"/></defs><use xlink:href="#i" fill="#004249" stroke="#00465f" stroke-width="5.76"/><defs><path id="j" d="M1535.1 1540.39l-.09-5.64v-6.91l.29-1.07.39.09 2.43.1h2.43l4.58-.1-.1-5.35-.1-8.08-.19-10.12-3.31.2-3.7-.1-1.85-.1-1.26.1v8.95l-.2.49-.19.1-.29.19-.49.1-16.93.1.39 20.14v.49l.09 5.64v.49l1.08-.1h1.94l4.19.1 8.46.2 2.43.09z" stroke-linejoin="round"/></defs><use xlink:href="#j" fill="#004249" stroke="#00465f" stroke-width="5.76"/><defs><path id="k" d="M1463.19 2848.66l-.49.39-3.4 2.73-.59-1.85-16.05-56.16-9.05-49.54-3.41-18.3-9.63 6.23 3.01 5.16-25.39 18.49-15.77 19.47-1.26-1.85-.1-.2-1.66-2.33-.29-.39-.19-.29-1.56 1.36-10.12 8.27-1.46 1.27-.49-10.13-.38-6.91-.3-6.61-1.07-17.62-.39-5.65h-.77l-.98.1-.78.1-.58.19-.2.1-.09.1-.88.78-1.26 1.36-.68.58-.59.2h-.97l.58-3.51.2-2.14v-1.65l-.1-1.36-.19-.78-1.17.09-2.05-.09-1.26-.39-1.27-.2-.77.1-2.92.78-1.76.19-1.26.1-1.36-.19-.59-.2-1.16-.58-.78-.49-.68-.29h-.88l-.49.1-.68.58-2.92 2.34-.68.48-.78.39-1.26.78-1.36 1.17-2.63 1.85-2.43 1.75-1.27.68-1.07.88-.88.87-.68.98-.68 2.24-.39 2.72-.1.97.2 1.27-.29.29-.39.29-.88.39-3.01.98-.69.38-.87.49-.49.78-.48.39-.59.19-1.07.1-1.36.1-.97-.1-1.66-.19-5.55-.3h-2.04l-1.56-.29-.58-1.36 11.39-3.7-2.15-45.84.59-.1 3.7-.48-.98-29.88.59-1.85 1.46-1.07h6.52l.87-8.08-.87-.78-4.48-8.17-.78-1.37-.29-1.36v-.88l.39-.68.97-.39 3.7.88 2.04.49-.09-4.48v-3.31l4.28.19 5.93.3 2.15-.1 14.59-1.27-2.04-11.29-.39-2.23-1.95-11.39-2.04-11.1-.39-2.24-2.63-15.67-.97-6.71-.39-3.5-.19-4.48-.3-4.97h1.95l.1 4 .29 5.35 1.07-.1h.39l.29.1.2.19.29.49.68 1.65 3.7 10.42.97 2.63 6.42-4.19 6.91-4.38 7.98-4.87 2.34-1.07 3.21-1.26 1.07-.29.68-.1 1.46-.1-.78-8.08-.39-2.33-.48-1.36-.78-.98 4.47-29.39-26.95 2.82-13.92 6.72-1.85.48-.39-15.08-.09-4.58v-.19l-.39-9.64-.2-6.52-.19-7.3v-6.52l.19-3.31.29-3.5v-.19l.2-1.56.29-2.05.58-3.11.98-4.77 2.43-8.66.78-3.31.68-2.82 2.92-11.39 1.65-6.42 4.38-18.01 1.85-7.4 1.36-5.25 1.46-5.74.3-.88.09-.19 1.56-6.91 2.53-10.03.97-3.6 1.66-6.72.48-2.72.59-4.19.19-1.65.2-1.56.19-3.5.1-5.55.19-12.36.2-5.45.1-3.89.19-13.53.39-6.72.58-6.71.39-2.83.1-.77.49-3.02.58-2.53.1-.88 1.56-7.1 2.14-8.47 3.3-12.55.69-3.02.87-3.6.78-3.51 1.07-3.99.97-3.89 1.46-5.84.78-2.73 2.82-10.99 1.85-7.21.78-3.3.2-.88 2.92-13.53.19-.58h-.88l-8.27-.2-6.13-.09h-1.85l-10.99-.3-13.92-.29-3.89-.1-3.99-.19-9.05-.1h-2.04l-5.07.1-8.07.39-3.21.29-4.77.29-7.98.39-5.84.49-11.68.78h-.29l-2.43.19-3.41.1-6.62.49-.68.09-3.5.49-2.72.68-1.27.49-1.75.68-3.6 1.75-15.28 7.2-.88-.78-.48-.38-.49-.2-.58-.19h-.88l-3.02.19-2.23-.1-2.14-.19-3.99.1-.98.09-1.94.49-1.56.29h-4.48l-3.31-.29h-.68l-.39-.1-.87-.39-.97-.87-.49-.29-1.17-.39-5.94.48-6.03.39-1.36.2-.39.29-.39.29-.29.39-.1 1.27.1 7.1v9.25l-.2 2.04h-6.32l-6.52-.1-8.66.1-.39 1.46-.59 3.11-.97 7.01-.78 6.91-.87 6.81-.78 5.55-.97 7.69-1.95 15.57-3.02 22.19-.58 5.94v1.17l.19 2.82.39 1.85.59 2.04.97 2.92.68 1.66-1.07.49h-.29l-2.14.38-2.73.2-7.68.1h-11.29l-11-.1-4.86.1h-23.46l-.78-.2-.58-.29-.58-.58-1.17-1.27-.78-.58-.88-.39-1.36-.1-.48-.1-4.68.3h-3.79l-1.75.09-1.85.2-2.14.09-2.24-.09-2.04-.39-4.58-1.27-7-2.33-1.66-.3-2.72-.19h-8.18l-5.06.1h-6.52l-.19-.59-.98-4.77-.38-2.62v-2.83l.19-1.94.19-1.27.3-1.26.58-1.75.78-1.95 4.28-9.64 1.56-3.79 2.14-4.67 2.63-5.75 3.5-7.59 2.33-5.55-.97.1-1.46.1-8.07.19h-6.72l-8.56-.19-8.76.1-2.14.09-7.2-.19h-14.31l-2.63.19-3.5.39-3.31.2-1.17.09-3.4.2-12.94.19h-6.72l-4.18-.09-2.92-.2-5.65-.39-.77-.09h-.98l-2.82.09-13.62 1.17-2.63.2-1.66.19-1.46.19-2.53-.09-1.65-.2-1.46-.39-3.02-.48-1.84-.1-9.05.1-3.12.09-1.26-.09-2.34-.1-7.1-.88-10.51-2.14-1.75-.48-1.27-.69-1.36-.87-.39-.39-.97-1.17-.39-.58-.88-1.46-3.41-6.62-.68-1.17-1.26-1.75-1.07-.97-1.17-.88-7.01-4.48-4.38-2.53-1.65-1.36-1.36-1.17-1.17-1.07-1.17-1.17 2.44-3.79v-2.05l.09-.68v-1.17l-.48-.19-5.84.39-3.51.19-6.42 1.37-15.96 2.92-7.39 1.55-.78-11.68-.1-1.16-.29-.78-.1-.2-.58-.39-.78-.19-4.57-.29-1.17-.2-.39-.19-.29-.2-.1-.19-.1-.49-.1-2.63-.68-9.05-.09-1.55.58-12.17-.29-19.76v-3.6l-2.92-.1-6.13.1-8.66-.1-9.05-.09-8.57-.1-15.37.1-4.09.09-3.41.1-16.15-.1-17.71-.48h-5.74l-.59-23.85v-16.64l-.19-5.74-.1-1.56-.19-2.73.1-4.37.19-9.83-.1-8.18.1-5.16V2090l-.1-14.31v-1.95l.1-4.28-.19-19.95v-8.27l-.39-22h-.59l-2.33.29-1.27.29-1.26.49-3.8 1.85-7.3 3.89-1.46.69-.19-1.27v-1.17l-.49-26.37.2-5.36.19-3.89.29-3.7.39-13.14.49-5.74.1-.39.29-1.36 1.94-4.48 1.66-3.99 1.36-3.5 1.27-2.83 2.92-4.76.39-.78.68-1.75.58-2.63.29-1.36v-1.46l.59.19h1.65l1.95-.19 3.6-.88h.78l1.16.19 1.76.49 1.07.49h.87l.49-.1.58-.49.88-1.07.48-.39.59-.29.68-.1 8.76.2h2.04l2.04.1 6.43 1.07 4.86 1.36 2.53.68 3.99.58h.98l.77.1.78.2.88.29.97.19 1.36.1 2.05.29 1.65.68 4.09 1.17.58.39 1.27 1.27 1.94 1.94 1.37 1.56.29.29.68.2h1.26l1.37-.39 2.92-.68 2.04-.2 1.75.1 3.31.19.49.1.09-1.17-.09-.58-.29-.88-.3-1.55-.09-1.08.09-.58.39-1.26.2-1.85-.2-2.24-.29-2.24.2-1.17.19-.78.39-.48.68-.2 2.92-.49 1.75-.48.88-.39 1.07-.88.97-.78.2-.38.09-.39v-1.17l.49-.1.19-.19v-.3l-.09-1.16.09-.59.2-.58.48-.78.69-.78.77 1.07.49.68.58.39 4.97-1.56.68-.19 2.04-.88 2.14-1.16v-.69l.49-40-2.92-4.47-4.48-6.91-5.35-8.18-.39-1.75v-.29l.2-1.46.29-5.55-.2-8.66.3-6.13-.1-2.73-.1-4.38 8.86-.19 5.93-.1 10.9-.39 7.98-.49 13.14-.68h4.77l3.01.29 1.46.39 1.07.59 1.08.87.48.59-.68.58-.39.39-.19.29-.1.39-.2 1.27-.09 4.86-.39 19.96-.2 5.25v6.23l-.09 1.85-.3 6.71-.09.69-.2.39-.1.19-.38.29-.78.29-.68.1-6.23-.19h-4.67l-2.05-.1-3.01.1v31.04l-.2 9.83-.19 5.65-.2 3.31-.09.97.58 12.65v5.06l.19 6.62.1 6.43.1 6.81v6.23l.39 2.33 2.63-.19h1.84l1.07.1 11.58 2.24 2.15.29 2.72.19 1.46-.1h7.98l4.96-.09 3.02-.1h9.54l2.04.1 1.17-.1 5.74-.19 1.95-.2 2.62-.97 1.66-.68.87-.59.88-.48 1.94-1.66 1.66-1.56 1.95-2.24 1.07-1.55 2.04-3.41 7.88 19.66 24.33-1.07 1.56 2.24 36.1-39.42-.1-.58-.58-2.14-2.63-7.01-3.21-8.37-.88-2.63-.77-2.53-.69-2.82-.58-3.12-.29-2.92-.2-2.14 4.48-1.36 3.89-1.27.88-.29 1.56-.97 1.16-.88 2.05-1.65 2.72-2.43 1.85-1.66 2.82-2.82 2.24-2.04 1.46-1.17 3.31-2.34 1.56-.78.77-.29 2.53-.68.88-.2 1.46-.09 3.7-.2 3.5-.48 2.14-.49 2.05-.58 2.14-.88 2.72-1.65 11.29-8.37 8.27-5.46 7.79-5.45 1.65-1.26 1.75-1.36 1.85-1.17.97-.59 6.82-3.4 10.8-5.26 3.7-1.75 4.76-2.24 8.08-3.99 7.79-3.6 7.59-3.8 6.91-3.21 5.35-2.82 2.63-1.07 3.5-1.07 1.94-.68 2.15-.2 4.57-.19h17.52l.48.1.49-.1 10.02-.2h7.88l.69.3.77.48.88-1.26 5.55-8.57 3.5-4.86 3.02-3.8 1.16-1.36 9.35-10.61 5.35-5.84 12.75-14.02.19-.19 4.96-5.45 1.95-2.04 2.92-3.51 1.36-1.46 1.36-1.65 2.44-2.82 4.47-7.3 2.34-3.9 6.32-11.09.88-1.56.88-.19h.19l.1-1.08 1.85.59 1.85.19 2.04-.19 7.1 9.15v10.12l.1.19.19.3.39.39 1.46.87.98.68.97.98 16.54 8.37 8.86 18.29-.29 17.04 11.87-7.79 4.48-.1 1.94-1.07 4.19 1.07 2.33.68 1.56.3.97-4.77.97-4.38 1.85-9.05 1.85-9.93.78-3.7.97-5.06.2-.88.78-3.99 1.65-7.39h.29l3.41-.1h2.43l10.41-.29h1.85l5.36-.2h11.97l5.64-.1h5.74l2.24-.09h17.32l4.57.09 2.44.2 2.43.29.58.1 1.37-.78 4.96.78 4.67.97.97.59 7.5.97 3.5.39h3.6l.88.48 7.49-.09h6.81l.97-.1.59-.39.48-.1h6.52l.59-.48 1.36.09.39.3 3.21-.1.88.49h7.59l4.96-.2h6.33l1.55-.1h5.94l16.93-.19 2.43-.1 2.14-.1 2.05-.29.29-.1 2.72-.77 1.08-.39 2.53-1.07 1.75-.98 2.53-1.55 2.53-2.05 1.07-.97 2.63-2.63 7.39-7.88 7.79-8.08 1.46-1.27 1.46-1.16 2.62-2.05 1.37-.87.87-.59 3.5-2.04.88-.49 4.28-2.24 2.63-1.36 5.74-3.02.49-.29 9.63-4.86 5.06-2.63 3.89-2.14 1.66-.88 10.12 4.09-.78-1.56-1.56-3.5-1.26-2.63.87-.49 2.53-1.36 4.09-2.34.68-.39 8.08-4.28 1.46-.68 4.38 6.91 2.72 4.58 1.75 2.72-2.14.49-2.23.19-7.6.1-2.43.1-4.38 9.05-.48 1.07 2.53 5.25 2.04 4.29 2.82 6.23 1.07 2.33.88 2.05 1.36 1.36 3.5 7.78.39.88 1.27 2.73 1.56 3.6 2.82 5.93 1.85 3.41 2.33 3.6 1.17 1.85.29.39 1.27 1.75.68.97 3.5 4.09.68.88 2.63 2.82 12.75 14.41 5.35 5.83 4.67 5.26 3.41 3.7-.39 1.46-.2.39-.68.58-.1.29-.09.59.68 3.21.29 1.75.19 2.82.49 14.99.2 7.2v1.46l.09 6.33-30.55.29-.98.1 1.17 1.07 2.92.39 1.17.78.39 3.4.48 12.17-.19 9.34-.58 7.5.29 9.63-3.02.3-.1 5.25.3 1.66.58 1.65-6.03 9.25.19 6.91-5.55 1.55-4.57 7.11-1.26 1.95-15.77 24.81-6.03 9.35-12.46.19-17.32.1v1.36l.29 14.8v1.07l.2 5.93.09 7.79-.29 5.94-.1 2.82v3.89l.49 9.25 24.43-.2 7 .68-.68 1.07-1.75 2.54-.19.77-.1.78v1.66l.39 1.17.29 1.45-.1 1.66-.29 1.75-.49 1.36-.39.49-.68.68-1.46 1.07-.97.39-2.53.78h-.88l-.68-.1-.48-.39-.78-1.16-.49-.3-.48-.19-.59.19-.29.3-.58.77-.39.3h-.49l-1.17-.49h-.87l-.59.1-.48.29-.88.58-.49.2h-.39l-1.07-.39-.68-.59-1.65-1.07-1.66-.77-1.26-.49-.97-.29-.59.09-.58.3-1.17.58-.68.19h-.49l.39 7.21.1 3.99.19 2.43.3 1.65.38 1.46.78 2.54.59 1.16.68 1.66 2.82 4.77.97 1.85.98 2.72.48 1.95.2 1.26.1 1.46v3.21l-.39 11.98v3.79l.09 3.7.1.88v1.75l.2 8.56.09 7.3v4.77l.2 9.34.09 1.76v.58l.1 4.77.29 3.7.98 4.18.68 2.05.58 1.46 1.27 3.01 1.46 3.22 6.52-.39h4.28l5.74-.1 5.64-.1 12.75-.29 10.61-.2 3.89.1.1 5.74v6.23l.1 10.61.09 4.19.1 3.01v10.71l.1 2.82-.1 3.51-.1 8.17-.19 1.46-.1.29-.49.3h-.29l-2.14.19-9.73.39-6.03.19h-3.99l-1.46.1-19.66 35.72 38.54 32.12.48 1.75.39 1.75.49 3.9.29 3.79.49 3.8.58 2.33.88 3.12 1.46 4.47 2.33 7.5.98 3.11 1.55 4.97.29.97.1 1.75.1 1.17-.29 2.14-1.95 13.43-.39 3.12v1.07l.2 2.33.68 4.09.39 1.46.97 5.74.19 1.37.3 3.4.19 3.41v6.62l.1 6.61v10.32l.1 2.63.29 1.85.48 1.65 2.53 6.33.49 1.07 1.07 1.56.97.97.78.68.59.49 2.43 1.26.88.39 1.65.59 3.11 1.36.88.58 1.36.98 2.14 2.04 5.55 5.74.78.98 1.17 1.75 4.28 10.41 1.46 3.21 2.72 6.82 1.56 5.06.19.97.88 3.89.49 3.31.58 6.72v2.14l18.88 18.39 2.63 2.53 22.86-14.3v1.56l-.09 1.16-.49 2.44v1.55l.68 2.44.1.58-.1.39-.19.39-.49.58-1.95 3.21-.39 1.17-.19 1.37-.19 3.79v1.46l-.1 1.95-.1 2.53-.1.48-.19.49-.97 1.56-.2.78v.68l.1.97.29.88.97 2.33.39 1.07.2.98.48 3.21.1 2.14.2 2.73.29 1.65.68 2.53.39 1.75.1 1.07v1.07l-.1.39v.78l.19.68.49.88 1.07 1.26 1.36 1.27.78 1.07.68.97.39.68.39 1.37.1 1.17-.1 2.91-.58 4.48v.49l.19.78.78 1.94.68 1.56.59 1.95.29 1.36.19 1.46v2.14l-.48 1.85-.39 1.46-.3 1.17v.48l.2.49.1.49 1.55 2.04.68 1.07.39.98.59 1.36 1.07 4.28.19 1.66v.77l-.29 4.48v.78l.1.39.48 1.36.1.2.78 1.26.58.68.39.49 1.46 4.57 1.17 2.63.49 1.75 1.75 6.13.1.2.58 2.72.97 3.7.68 3.12.2 2.43.39.97.39.59 1.55 1.17.3.39.29.87.29 3.12.49 1.94.58 1.36.97 2.92.49 1.76.49 2.72.78 2.53.29 1.17.09 1.46-.09 2.24-.39 2.92-.1 2.72v3.8l.1 3.02.1.87.29 1.27.87 1.26.1.39v.49l-.19.68-.3 1.17-.09.87.09 1.17.39 2.14.2 1.66-.1 2.14-.19.68-.59 1.07-.78.97-.29.59-.19.78-.2 1.16v2.05l.29 2.92.69 2.82.48 1.75.49 1.07.39 1.66v1.36l-.39.78-.1.39.1 2.14v.68l-.1.39-.39.29-.29.29v.98l.19.29.49.49 1.27 1.84.29.69.1.68.19 2.14v1.65l.19 3.9-.09 1.26-.1.49-.29.48-.29.39-.39.3-.49.09-1.26-.09-.3.09-.58.3-.39.58-.39.58-.29 1.07-.39 2.05-.78 2.82-.58 3.41v.48l.09.68 1.37 4.19v.49l-.1 1.26.29.68.59 1.17.48.58.49.59 1.17 1.17.97.29 2.14.58.49.29.39.39.39.3.38.09.88.1.39-.1.19-.19.39-.1.3.1.29.29.19.39v.78l.1.87-.49 2.63-.19.59-.29.58-.78.78-.78.49-1.07 1.26-.39.68-.19.78v.88l.19 1.16.19 2.24.3 2.83.48 3.01.2 2.44-.2 3.01-.97 6.33-.68 2.63-.2.58v.97l.1.49 1.27 1.27.19.48.1.49.1.58-.1 1.37.68 6.03v1.46l-.1 1.85-.1 1.36-.29 1.46-.48 1.46-.98 1.66-1.46 2.04-3.01 3.41-1.46 1.46-.78.97-.78 1.17-.29.39-.39.29-.58.1-2.05.09-.19.2-.2.29-.19.78-.2 2.53-.48 2.63v.58l.09.49.2.48.68.69.19.29.1.48-.1 1.07-.58 1.17-.68.88-.49.58v.68l.39.59.78.68.1.29.09.2-.19.68-1.17 3.5-.29 1.46v1.27l.1 1.65-.1 1.27-.19.48-.49 1.07-.29.2-.59.19h-.39l-.68.1-.58.1-1.17.97-4.47 6.03-1.17 1.85-1.46 2.05-1.36 2.14-.98 1.36-1.55 1.85-3.7 3.7-1.75 1.95-.2-.1-2.63-1.07-.97-.59-.49-.68-2.43-2.04-4.57-4.58-2.53-3.01-1.66-2.24-1.07-2.24-.78-1.85-.48-1.75-.29-1.95-.1-.97.19-.68.49-1.07.19-1.07-.19-.59-.2-.29-.29-.1-1.07-.09-.68-.2-.49-.29-.29-.29-.19-.29-.2-1.46v-1.08l-.09-.38-.49-.49-.58-.39-3.51-1.36-1.26-.68-.29-.2-.1-.39.1-.29.58-1.36.1-.29v-.39l-.98-.69-1.16-.68-.69-.58-.48-.49-.68-.78-.78-1.65-.2-.78v-2.82l.3-5.16-.1-.58v-.39l.19-.39 1.37-.49.09-.29.1-.39v-.58l-.88-1.17-.29-.59v-.77l.29-.59.39-.97v-.29l-.09-.49h-.68l-.59.19-.49.3-.77.87-.39.2h-.49l-.49-.3-.29-.38-.19-.59v-1.75l-.2-.58-.29-.49-2.24-.88-.78-.29-.39-.19-.48-.39-.39-.78-.29-.49-.1-.97v-3.02l-.39-.78-.58-.68-.78-.39-.78-.48-1.07-1.17-.29-.59-.68-2.33-.2-.39-.87-.68-.3-.68-.29-.39-.19-.78.09-.49.3-.58.19-.98.2-.29.48-.58v-.29l-.1-.2-1.55-.19-.29-.1-.2-.2-.19-.48-.2-.29-.39-.2h-.97l-.88-.48-.48-.3-.1-.09-.1-.3.2-.48.29-.59.19-1.85v-.39l-.19-.48-.49-.78-.39-.49-2.23-.87-2.73-.39-1.95-.68-1.75.09-.68-.19-1.46-.68-1.46-.78-1.94-.68-1.37-.2-1.46-.09-1.16.29-1.17.48-.68.2h-.68l-.49-.1-.39-.29-.29-.29-.2-.59-.39-2.23-.39-1.66-.19-.39-.58-.19h-.49l-1.36.97-.49.1h-.58l-.39-.2-2.05-3.11-1.65-2.73-.78-1.07-2.92 5.06-3.31 5.55-2.04 2.73-3.8 5.25-3.99 5.16-10.8 13.82-2.24 2.53-1.26 1.36-.49.49-3.01 2.24-17.33 11.19-7.68 4.87-13.33 8.66-1.76 1.17-13.43 9.24-10.89 7.69-5.06 3.31-3.51 2.34-12.84 8.08-7.98 5.35-1.17.78-1.65 1.07-3.7 2.33-6.81 4.29-6.52 3.79-1.46.88-5.06 3.21-2.73 1.75-2.53 1.85z" stroke-linejoin="round"/></defs><use xlink:href="#k" fill="#004249" stroke="#00465f" stroke-width="5.76"/></svg>