<svg width="398.4" height="384" viewBox="0 0 2989 2880" xmlns="http://www.w3.org/2000/svg" xmlns:xlink="http://www.w3.org/1999/xlink"><path fill="#fff" d="M0 0h2989v2880H0z"/><defs><path id="a" d="M1822.54 1582.14v-.47l.28-24.09-10.37-.19.47-26.33.47-25.69 10.65.1 23.91.09h.56l.47-21.39.09-4.85.09-.28v-1.87l.47-19.24v-2.8l.09-2.99.1-5.51.46-17.84v-1.21l.1-2.8v-1.87l.65-28.95.1-3.08v-1.68h.74l7.01.37.28-13.92h.28l3.45.1 10.75.09h8.31l2.89.09-.93 51.65 5.79.19h1.31l2.24.09 1.4.09h.75l-.09 12.14h.84l-.19 10.46 23.16.84v2.53l-.46.84-1.5.74-1.49-.37-1.96-.09h-1.78l-2.05.09v3.55l.09.09.09.1h6.92v.93l-.1 7.56-.09 8.88-.09 3.54h-2.62l-5.23.1-5.23-.19h-5.04l-1.13.09-2.14.1v1.31l-.1.37v.84l-.09.19-.19.74-.09.38-.19.28-.09.37-.75 1.4v.1l-.09.09-.1.28h-.09l-.09.47-.1.28-.09.28v.28l-.09.28v2.7l-.1 1.31.1 1.03v.47l-.1.93v.19l-.09 3.64v1.87l-.09 1.87 6.16.09h4.49l3.55.09 6.63.1h2.99l4.39.09h2.71v-2.34l7.65.19v3.64l-7.75-.18v5.13l-.09 2.15v2.06h-.84l-.19.09-.19.09-.28.1-.09.09-.09-.47-.28-.18-.38-.19-.09.09-.19.1v.09l-.18.09-.1.1-.09.18-.09.28v2.06l.09.18.09.1.1.18h.09l.28.1h.37l.19-.19.09-.09.1-.28.46.28.19.09.19.09h.84l-.1 2.06h-7v3.08l-.09.84v2.34l-.1 2.05v5.42h-5.04l-4.58-.1h-1.4l-2.89-.09H1901l-.09 3.46v3.54l-.09.66v8.87h-3.09l-2.05-.09h-3.46l-.09 8.31-.19 8.22v5.97l-.09 2.9v4.39l-.09 2.15v1.96l-.1.46h-1.49v.29h-27.93l-6.63-.1h-4.95l-3.83-.09-12.61-.1-4.11-.09h-7.57z" stroke-linejoin="round"/></defs><use xlink:href="#a" fill="#cee3e4" stroke="#cef5f5" stroke-width="5.76"/><defs><path id="b" d="M1654.69 1893.23l-.84 52.11-46.05-.75-.09-.74.09-3.74v-4.02l.19-6.44.47-37.08-22.14-.37-6.63-.19-7.1-.18h-3.08l-7.38-.1-19.43-.28-26.81-.46-20.08-.38-20.93-.28-5.32-.09.47-27.55.46-23.35v-1.12l.1-1.31.09-6.53.28-10.74.1-8.78.37-24.47.28-15.32.65-35.02.1-1.59.09-5.69.09-6.73.19-10.83.28-13.17.19-9.06.18-6.54.1-1.12v-.74l.18-10.56.28-10.55.19-10.55.19-10.46.18-7.94.85-35.86-.1-1.31v-1.12l-.09-.94v-.46l.09-1.03.1-1.68.09-1.87v-.65l.09-1.4v-1.87l.1-4.39v-.19l11.3.19 11.67.75 1.4.09 3.37.09h1.3l1.31.1h4.67l.84.09h4.39l1.22.09h4.57l7.48.19h.18l17.66.09 17.84.1h3.27l.65-29.23v-2.15l.28-20.18.09-2.98.19-11.86.19-11.96.47-23.81v-1.31l.28-13.73.09-2.8v-1.87l.09-1.31.19-17.09.09-5.32.1-2.52v-3.36l.09-3.93.09-4.95.1-1.49.09-2.34v-3.36l.09-2.61.1-7.47.09-5.23-2.52-.84-4.39-2.71-1.5-1.68-.18-.66-.1-.56-.56-1.96.1-5.6-.56-1.12-1.22-1.5-.75-1.77-.74-4.02-.28-.28-.28-1.4-.38-.65h-3.73l-5.98-.1-15.6-.28h-1.03l-1.49-.09h-1.59l-3.08-.09.46-16.53.28-17 .38-18.49 3.83.09 4.67.1h4.67l9.43.28 3.46.09 12.24.19 7.84.18 24.66.47 6.17.09 8.5.19 7.09.09 16.35.19 3.27.09 3.27.1 6.63.09 5.98.09 7.19.19 3.92.09.1-8.96.84-47.16h2.61l43.9.84h2.34l15.79.28 5.13.09 16.63.28 7 .09-.56 27.74-.56 27.74-.09 4.67-.09 8.78-.19 8.68-.19 6.91-.09 4.02-.19 12.61-.09 6.16-.09 4.95v2.43l-.19 5.41-.09 5.79-.1 5.33-.18 9.52-.19 9.44-.09 9.06 2.8.09 28.39.28h7.1l2.34.09 5.69.1-.09 4.76v3.45l-.19 7.1-.09 4.39-.19 6.07v4.3l-.18 8.03-.28 11.11v2.71l13.07.09h6.08l4.2.1h3.45l5.24.09 6.35.09h7.84l.1-.09.09-.09-.09 4.85-.47 21.39h-.56l-23.91-.09-10.65-.1-.47 25.69-.47 26.33 10.37.19-.28 24.09v.47h7.57l4.11.09 12.61.1v1.31l-.19 8.03v2.61l-.19 7.66-.18 10.27-.47 20.64-.09 2.06-33.72-.19h-12.43l-22.23-.28-7.84-.09-16.35-.1-.09 6.91-.09 2.62-.1 8.03-.28 10.74-.47 21.39v2.24l-.18 10.55-.28 10.46-.1 4.39v.94l-.09 5.23-.19 10.55-.28 9.9-.09 6.54-.09 4.95-.19 6.44v3.08l-.28 12.14-.09 7.94-.1 3.18v2.05l-.09 2.24-.09 3.46-.1 6.53-.65 27.65v3.08l-.09 3.74-.19 10.74 46.14.65-.37 19.24-.38 19.24-.28 13.35-20.73-.18-25.5-.1-46.33-.37-14.29-.19-14.2-.19-18.31-.18z" stroke-linejoin="round"/></defs><use xlink:href="#b" fill="#cee3e4" stroke="#cef5f5" stroke-width="5.76"/><defs><path id="c" d="M1854.49 1894.91l-14.29-.09.28-14.57-7.57-.84-1.21-.38-.47-.93-.19-1.03.1-2.99.37-1.12.56-3.92-.19-2.99-1.49-4.2-.28-1.96.09-6.82-.09-7-.19-3.37 6.26.1 5.04.09 22.8.09h4.76l15.6.19h3.17l-1.12 51.93-23.35-.1-8.59-.09z" stroke-linejoin="round"/></defs><use xlink:href="#c" fill="#cee3e4" stroke="#cef5f5" stroke-width="5.76"/><defs><path id="d" d="M1167.76 840.99v4.29l-.18 5.89-.1 11.95-.18 5.98-.19 11.86-.19 11.95v.28l-41.84-.93-3.74-.19-.75-.09-19.14-.28-8.13-.19-3.46-.09h-4.57l-1.03-.09h-3.92l-5.79-.19h-2.9l-6.54-.09-1.87-.1-7.28-.09-5.33-.09-3.27-.1-3.26-.09h-4.11l-11.59-.28-1.12-.09-5.23-.1-5.14-.09-5.13-.09-5.14-.19h-3.08l-12.43-.28-2.61-.09h-2.62l-4.11-.1h-.28l-4.11-.09-3.92-.1-6.63-.09-4.11-.09h-1.68l-1.68-.1h-5.33l-2.71-.09-1.31-.09-.93.09-1.03-.09-4.76-.1h-4.76l-2.71-.09h-4.3l-6.07-.19-5.33-.09-1.3-.09-1.87-.1h-1.31l-4.3-.09-2.42-.09-1.12-.1h-3.46l-3.08-.09h-6.54l-2.62-.09h-2.61l-1.87-.1-4.3-.09-3.64-.09-2.43-.1-5.42-.09h-2.61l-3.18-.09-1.49-.1h-.94l-1.12-.09h-7.94l-4.95-.19h-5.23l-1.21-.09-32.97-.75-13.17-.28.46-9.06.47-16.71.56-18.78.09-7.09v-6.73l.1-6.72.09-7.1v-.09l.09-.56v-1.03l.56-26.9.1-2.99v-1.12l.56-24.65.18-10.83.28-15.51.19-9.15.28-16.62v-4.58l.19-7.84.28-13.27 1.12-52.2-33.63-.66-12.7-.37-17.56-.19-6.26-.09-22.42-.28-21.29-.37-24.85-.38-5.51.1-34.09-.75-3.46-.19-2.8-.18-22.32.65-23.82-.75-32.79-1.02-2.33-.28-10.84-.1.28-8.12 1.12-43.8 25.97.37h.75l-.47-.56-1.22-1.31-.28-.28-.18-.28-1.03-2.24-.56-1.49-.19-.38v-.37l-.09-.37v-.56l.19-8.5.18-9.25.1-10.55.18-9.43v-5.7l.1-.19v-.09l.09-.1.09-.09.1-.09h.09l.09-.1h.19l7.66.1 11.02.18 3.83.1h3.46l9.24.18 7.94.1 3.55.09 21.95.47.56-25.96.56-26.06 10.75.28 17 .28 18.3.37 17.56.28 2.25.1 19.33.28 7.19.18 22.89.38 23.54.28.46-18.4.19-12.42.37-14.94.1-3.27v-2.9l.65-31.47v-2.52l.38-18.03 42.31.47h3.45l-.18-5.04.28-1.78.74-34.65.28-10.08 10.56.19h.84l5.42.09 5.14.19 19.52.37 1.4-.84 2.24-.56v1.49l18.77.38 17.28.37 10.19.19.18-5.61v-3.45l.1-3.83.09-5.61.28-7.75.09-4.01.28-12.52.19-2.52.19-2.05.28-4.58.09-4.2.65-22.7.29-14.1.18-10.93 9.34.19 13.27.28 8.96.19 14.01.28h4.95l18.31.47.28.09 5.98.09h1.49l15.32.38 6.54.09 1.87.09 8.03.1 6.54.18 23.35.47-.28 12.98-.09 4.48-.75 34.56-.37 15.69-.09 10.27-.1 3.08-.09 3.18-.1 4.2-.09 5.14.09 1.03.29.84.28.74.18.47 1.68 2.9.47.74.37.84.47.84.28.56.28.75.1.56-5.8-.09h-.46l-30.36-.66-14.66-.28-.85 51.93 25.41.37.65.1 3.09.18 1.21-.28 16.07.47-.1 5.14v.46l-.84 46.42 46.24 1.03-.28 10.46-.65 41.46-.85 38.57-.18 10.18v3.18l2.8.09h1.21l2.81.09h.28l.18.1.28.18.66.66.93-.38.66-.18.46-.1.66-.09.93-.09 8.78.09 24.85.65h4.2l8.13.1 10.92.28 23.08.37h3.73l3.46.1 15.97.28 7.01.18 16.16.28 46.33.84-.29 10.84-.18 10.92-.19 8.31-.09 5.23v1.41l-.28 15.22-.1 1.12-.65 38.1-.28 12.7-.19.38-.84 51.64-8.96-.18-7.29-.19-5.79-.19-3.46-.09h-2.24l-2.71-.09h-1.87l-1.49-.1h-5.88l-6.26-.09-.84 25.68-.38 26.34-.09-.1h-1.03l-5.23-.18h-6.35l-4.02-.1-29.51-.65-.47 26.06-.09 5.04-.28 10.74-.19 10.18-.28 16.62-.09 8.78-.1 1.87v2.89l-.28 13.64-.19 8.22z" stroke-linejoin="round"/></defs><use xlink:href="#d" fill="#cee3e4" stroke="#cef5f5" stroke-width="5.76"/><defs><path id="e" d="M1815.72 1479.22l-13.07-.09v-2.71l.28-11.11.18-8.03v-4.3l.19-6.07.09-4.39.19-7.1v-3.45l.09-4.76-5.69-.1-2.34-.09h-7.1l-28.39-.28-2.8-.09.09-9.06.19-9.44.18-9.52.1-5.33.09-5.79.19-5.41v-2.43l.09-4.95.09-6.16.19-12.61.09-4.02.19-6.91.19-8.68.09-8.78.09-4.67.56-27.74.56-27.74 1.78.1 13.92.18 8.03.1 8.03.09 4.49.09 5.88.1 4.3.09h1.59l17.37.28 7.38.09 20.55.38.93.09 6.63.09h4.67l1.22-.09h.28l1.87-.09.37.56 1.68.65 5.23-.75.84-.09.47-.09 3.27.37h.65l.38-.09.46-.19 17.56.84.19-.28.28-1.03.47-29.32.84-21.57 9.43.18 7.94.1 4.95.18h5.89l3.73.1 5.23.09 8.41.09 5.6.28 12.05.38 5.98.18 6.07.19 16.35.56h1.96l4.02.19 9.34.28 6.91.18 23.73.66.46-14.48.19-6.91.19-3.55.09-3.45.09-2.24v-1.22l.1-2.33.28-9.25.28-7.47v-.84h-1.68l.09-3.27.28-16.25.28-7.75.65-24.19h1.68l23.17.28.19-.09.93.09h20.83l-.09 5.79-.28 14.85v1.96l-.1 8.13-.09.65-.19 11.77-.18 8.59-.1 4.76-.09 4.67v1.4l-.09 4.49-.19 8.4-.09 6.63-.1 7.47-.19 7.01-.09 5.97v1.69l46.52.65 20.17.75 18.31.46h.37l6.08.19h.93l11.21.09 33.91.1-1.13 51.92h-5.32l-1.96-.09-.37 9.06-.66 11.39.38.28-.19 1.31-.1.93-.28 1.96-.09.84-.09.38v.56l-.19 11.11-.09 6.26-.1 4.02v4.2l-.09 3.83-.09 4.76-.1 2.9v1.12l-.09 1.58v2.9l-.09 1.87-.1 3.17-.09 6.17-.09 2.33v2.43l-.19 9.43-.19 8.87-.09 1.68v4.3l-.09 5.98-.1 13.45-.09 10.18-.19 4.76v1.21l-.09 1.68v1.03l-.09 3.18v4.29l-7.38-.09h-5.05l-8.78-.09-8.87-.19-16.63-.19-24.19-.93-4.67.74-10.37-.28-1.77.28-8.41-.18-13.26-.84-8.6-.47-20.83-.37h-17.74l-3.93-.1-3.64.1-4.2-.1-2.15.1h-1.68l-3.92-.1h-8.78l-3.55-.09h-5.7l-7.85-.09-.47-.1-9.9-.09-5.79-.09-13.17-.38h-1.12l-8.69-.28-8.78-.37-17.37-.56h-1.21l-.28 13.17-.1 3.55-.56-.47-22.98-2.71v.37l.28 9.9-23.16-.84.19-10.46h-.84l.09-12.14h-.75l-1.4-.09-2.24-.09h-1.31l-5.79-.19.93-51.65-2.89-.09h-8.31l-10.75-.09-3.45-.1h-.28l-.28 13.92-7.01-.37h-.74v1.68l-.1 3.08-.65 28.95v1.87l-.1 2.8v1.21l-.46 17.84-.1 5.51-.09 2.99v2.8l-.47 19.24v1.87l-.09.28-.09.09-.1.09h-7.84l-6.35-.09-5.24-.09H1826l-4.2-.1h-6.08z" stroke-linejoin="round"/></defs><use xlink:href="#e" fill="#cee3e4" stroke="#cef5f5" stroke-width="5.76"/><defs><path id="f" d="M489.45 2851.8l-6.54-.19-13.64-.47-4.76-.18-10.56-.38-5.23-.19-5.51-.09-23.07-.75-4.86-.09-5.41-.19h-1.22l-2.33-.09h-.94l-1.77-.09-7.57-.28-2.89-.1-4.39-.09-4.11-.09-4.11-.19-.66-.09-3.08-.1h-5.7l-5.79-.18-5.79-.1-10.83-.28h-.75l-9.34-.18-6.26-.19-4.58-.09-3.27-.1-3.73-.09h-2.15l-1.5-.09h-1.58l-2.53-.1-3.08-.09h-2.71l-4.67-.19-1.02-.09h-.85l-.65-.09-.65-.1-.84-.18-.84-.19-.94-.28-1.59-.28-1.21-.19-.84-.09-.66-.1h-1.3l-.66.1-.56.09-.65.1-.75.09-.75.19-2.05.37-.84.09-1.31.19-.84.09h-4.48l-2.43-.09h-2.43l-13.08-.28h-3.08l-6.07-.19h-2.15l-2.05-.09-17.75-.47-14.95-.28-10.92-.28-4.96-.09-6.53-.19-12.05-.28-3.65-.09-8.4-.19.37-11.21v-2.42l.19-4.67.09-8.04.19-4.95.19-4.66.18-9.34.19-6.63.09-5.51.19-4.58v-7.38l.37-9.71.19-6.35.19-6.17.18-7.09.1-5.33.18-7.94 1.12-44.08.56-19.23.1-4.86.09-2.9.09-.37v-.47l.1-.65.18-.56.1-.56.28-.56.19-.56.28-.56 1.68-3.08.56-.94.28-.65.28-.75.18-.56.1-.56.09-.56v-1.87l-.09-2.24v-1.87l-.1-1.02-.09-.75-.09-.66-.19-.74-.09-.56-.19-.66-.28-.84-.37-.84-.94-2.99-.28-.84-.18-.74-.19-.75-.19-.75v-.18l-.09-.47-.09-.75-.1-.65v-1.87l.1-6.16.18-5.42.1-1.96.65-28.86.09-.93-.65-.1-8.59-.18-7.66-.19-2.99-.09-2.52-.1-.28-.09h-.94l-3.17-.19-2.9-.09-16.72-.47-16.53-.46-10.28-.29-19.24-.46-32.22-.47-5.61-.19h-.93l-6.35-.09h-3.83l-3.83-.09.18-7.75.19-8.69.19-8.78.09-3.45.09-1.68.28-15.88.19-5.7.09-6.44.38-15.51.46-16.71.1-6.26v-.09l.09-.19h.19l.28-.09 3.92.18 34.75.75 13.82.37h2.9l29.61.66h.47l13.07.37 32.6.66 13.36.37 4.48.19 21.58.46h2.61l5.89.1-.75-.66-.75-1.96-.18-2.05.18-1.12.84-34.84.19-8.87.09-2.52 15.79.37 3.74.09 24 .56 1.22.1.84.09.65.09 1.21.38.94.28 5.14 1.59.65.18 1.87.56.75.1h.93l.93-.1h.66l.65-.18.84-.19 2.06-.65 1.96-.75 1.03-.37.28-.19.74-.28.94-.47.65-.19.47-.09.75-.19.65-.18h.56l1.03.09.93.19 1.22.28.84.28 1.21.28 1.4.37 1.4.28 1.12.28h.66l.65.1h.66l1.49-.1 1.4-.09 1.03-.09.47-.1.74-.09 2.15-.09 2.15-.1h4.48l3.09.1 4.39.09 6.25.09 12.15.28 6.81.1 2.34.09 4.02.09 3.64.1 6.82.18 7.94.1 6.35.18 5.23.1 6.07.18 7.1.1 6.63.18h2.62l10.93.28 10.92.19 11.03.19 10.74.28h.18l32.88.74 5.42.19 5.51.09 2.24.19v-2.43l.28-8.87.19-8.78.09-7.66.19-7.65.47-16.07v-4.01l.28-11.49v-.65l.19-8.04.18-8.03.38-16.06.09-4.39.28-9.99.19-8.22.56-25.4.28-8.5v-4.49l.46-20.91.28-10.46.1-5.23.09-5.23.19-5.33.09-2.99.09-8.03.29-7.38-.1-.65.28-11.11.1-4.67.18-6.82.1-6.26.09-4.01.09-2.06.1-6.16.18-8.03v-.94l.19-6.25.28-11.3.09-5.14.1-4.02.09-4.48.09-2.99v-1.31l.1-2.98-.1-2.81.1-3.83.18-6.91.19-7.28.09-2.99.1-6.54.18-6.81.1-4.86.09-6.16.09-4.58.19-5.14.19-9.62.18-8.12.19-9.53.09-2.61v-1.68l.1-2.43.09-4.67.09-3.55.66-31.19.09-5.33.1-7.09.18-8.41.19-8.4.19-9.25.18-5.7.19-10.46.19-10.55.18-7.56.28-10.93.19-11.11.37-15.32.19-8.22.19-5.88 45.86.84 23.07 1.02v-.65l4.3.09 2.43.1 6.44.18h3.92l5.8.19h.65l10.93.19 10.93.28 10.83.19 10.93.28h2.06l3.17.09h2.43l2.33.09 4.77.1 9.53.18 9.52.19 7.2.19 2.33.09 4.76.09 46.24 1.12 45.58.47 43.72 1.21h2.43l-.56 28.96-.47 22.41-.94 37.92-.37 14.01-.93 52.2-.56 51.83-.66 26.81-.56 25.49-1.12 52.02 6.54.09 8.59.28 31.39.66 32.97.65 12.98.28 30.55.56 15.97.28-.37 19.8-.19 11.68-.47 20.45-.84 39.5-.19 8.41-.09 4.01-.19 4.3-.18 11.39-.84 36.43-.1 4.29-.74 32.88-.28 11.86v2.42l-.1.19-.09.19-1.96 52.11v7.75l-.84 31.76.09 12.51-13.82-.19-27.56-.37-28.77-.28-11.86.09-12.14-.56-28.59-1.21-15.59-.47-.19.28-24.01-.19-11.39-.46-.38.18-.18-.18-.47-.1-7.66-.28-.75-.09-.46-.19-.84.28-11.12-.09-25.31-.19-10-.28-7.84-.18h-4.95l-20.46-.94-2.99.19-20.73-.37-24.29-.56-10.56-.19-2.98-.09-8.88-.19-5.14-.09-1.49-.1 6.45 8.87-.28 5.33-.47 33.15-22.7-.47-1.12 40.07v2.89l-.09 8.88v9.24l-1.22 43.15-.47 17.56-.28 8.78-.56 25.4-.18 7.66-1.03 44.26-.09 1.59-.47 11.39-1.12 39.14-1.31-.1h-.56l-13.64-.46-13.63-.47-13.64-.47-3.92-.09h-1.97l-7.75-.19-4.67-.19-8.78-.18-9.15-.28-11.4-.38-2.15-.09-.37 13.73-.84 37.64z" stroke-linejoin="round"/></defs><use xlink:href="#f" fill="#9dc8ca" stroke="#9dd7f0" stroke-width="5.76"/><defs><path id="g" d="M1893.34 1582.23h-1.68l.1-.46v-1.96l.09-2.15v-4.39l.09-2.9v-5.97l.19-8.22.09-8.31h3.46l2.05.09h3.09v-8.87l.09-.66v-3.54l.09-3.46h1.41l2.89.09h1.4l4.58.1h5.04v-5.42l.1-2.05v-2.34l.09-.84v-3.08h7l.1-2.06h-.84l-.19-.09-.19-.09-.46-.28-.1.28-.09.09-.19.19h-.37l-.28-.1h-.09l-.1-.18-.09-.1-.09-.18v-2.06l.09-.28.09-.18.1-.1.18-.09v-.09l.19-.1.09-.09.38.19.28.18.09.47.09-.09.28-.1.19-.09.19-.09h.84v-2.06l.09-2.15v-5.13l7.75.18v-3.64l-7.65-.19v2.34h-2.71l-4.39-.09h-2.99l-6.63-.1-3.55-.09h-4.49l-6.16-.09.09-1.87v-1.87l.09-3.64v-.19l.1-.93v-.47l-.1-1.03.1-1.31v-2.7l.09-.28v-.28l.09-.28.1-.28.09-.47h.09l.1-.28.09-.09v-.1l.75-1.4.09-.37.19-.28.09-.38.19-.74.09-.19v-.84l.1-.37v-1.31l2.14-.1 1.13-.09h5.04l5.23.19 5.23-.1h2.62l.09-3.54.09-8.88.1-7.56v-.93h-6.92l-.09-.1-.09-.09v-3.55l2.05-.09h1.78l1.96.09 1.49.37 1.5-.74.46-.84v-2.53l-.28-9.9v-.37l22.98 2.71.56.47-.37 14.85-.19 11.02-.09.18-.19 9.81-.46 23.63-.1 3.08v.37l-.09 1.5-.09 4.48v3.92l-.1 2.8h.38l8.78-1.12 14.1.19v3.45l.09 8.22v1.96l-.09 2.15h-23.07v1.12h-.56l-.28-.37-.47 7-.09 2.43-.38 5.51-2.89 9.15-2.06 11.02-1.12 2.25-1.87.84-4.85 1.12-7.38 3.55-9.9 1.4-13.64.93-2.06 1.49z" stroke-linejoin="round"/></defs><use xlink:href="#g" fill="#9dc8ca" stroke="#9dd7f0" stroke-width="5.76"/><defs><path id="h" d="M2083.71 2157.62h-.75l-3.18-.09h-4.11l-.93.09-.84.09-.94.19-.65.19-.28-.47-8.69-.38-8.03-.09-38.11-.65-23.16-.47-4.3-.09-2.43-.1-16.06-.28-6.08-.09-8.22-.09h-.28l-29.42-.38 1.12-52.67.56-28.3.56-22.97-9.8-.09h-13.74l-2.98-.1-19.53-.09-4.57.09-20.74-.18h-21.02l-41.37-.28h-5.33l2.34-52.02 45.39.28.09-1.59v-2.8l.1-1.87.28-16.62.09-3.18.56-25.87-46.33-.19h-6.26l-7.09-.09h-32.79l-19.9-.19h-3.73l-3.46-.09h-4.29l-14.86-.19-7.84-.09-15.32-.19-23.54-.37.84-52.11 18.31.18 14.2.19 14.29.19 46.33.37 25.5.1 20.73.18.28-13.35.38-19.24.37-19.24-46.14-.65.19-10.74.09-3.74v-3.08l.65-27.65.1-6.53.09-3.46.09-2.24v-2.05l.1-3.18.09-7.94.28-12.14v-3.08l.19-6.44.09-4.95.09-6.54.28-9.9.19-10.55.09-5.23v-.94l.1-4.39.28-10.46.18-10.55v-2.24l.47-21.39.28-10.74.1-8.03.09-2.62.09-6.91 16.35.1 7.84.09 22.23.28h12.43l33.72.19.09-2.06.47-20.64.18-10.27.19-7.66v-2.61l.19-8.03v-1.31l3.83.09h4.95l6.63.1h27.93v-.29h3.17l2.06-1.49 13.64-.93 9.9-1.4 7.38-3.55 4.85-1.12 1.87-.84 1.12-2.25 2.06-11.02 2.89-9.15.38-5.51.09-2.43.47-7 .28.37h.56v-1.12h23.07l.09-2.15v-1.96l-.09-8.22v-3.45l-14.1-.19-8.78 1.12h-.38l.1-2.8v-3.92l.09-4.48.09-1.5v-.37l.1-3.08.46-23.63.19-9.81.09-.18.19-11.02.37-14.85.1-3.55.28-13.17h1.21l17.37.56 8.78.37 8.69.28h1.12l13.17.38 5.79.09 9.9.09.47.1 7.85.09h5.7l3.55.09h8.78l3.92.1h1.68l2.15-.1 4.2.1 3.64-.1 3.93.1h17.74l20.83.37 8.6.47 13.26.84 8.41.18 1.77-.28 10.37.28 4.67-.74 24.19.93-.09 4.11-.09 11.77-.19 11.77-.47 23.53v.75l-.18 25.77v1.59l-.1 11.11v11.02l-.09 2.34 21.48.19 24.75.28-.09 7-.09 2.71-.1 4.48-.18 14.66-.28 10.93v4.3l-.1 1.12v5.51l-.09 1.21v.94l.56 8.49-.09 8.97.09 4.39-.47 28.2-.09 1.22-.47 26.61-18.4-.28-5.51-.37-1.49 38.48-1.5 38.38.66 51.83-.47 50.71h23.82v1.13l-.19 1.86-.28 11.77-.65 37.17-.1 1.77v10.18l-.09 28.77-.09 9.62v2.8l.09.19.09.18-.37 32.6-.19 21.1-.28 11.58-.84 39.23h.84l-.93 51.46-.84 52.48-31.29-.56-14.95-.28h-1.03l-6.81-.09h-.84l-15.32-.19-21.67-.28-17.66-.28-4.29-.09h-3.83z" stroke-linejoin="round"/></defs><use xlink:href="#h" fill="#9dc8ca" stroke="#9dd7f0" stroke-width="5.76"/><defs><path id="i" d="M1840.2 1894.82l14.29.09 8.59.09 23.35.1 1.12-51.93h-3.17l-15.6-.19h-4.76l-22.8-.09-5.04-.09-6.26-.1.19 3.37.09 7-.09 6.82.28 1.96 1.49 4.2.19 2.99-.56 3.92-.37 1.12-.1 2.99.19 1.03.47.93 1.21.38 7.57.84-.28 14.57z" stroke-linejoin="round"/></defs><use xlink:href="#i" fill="#9dc8ca" stroke="#9dd7f0" stroke-width="5.76"/><defs><path id="j" d="M1666.09 1312.99l-.1 8.96-3.92-.09-7.19-.19-5.98-.09-6.63-.09-3.27-.1-3.27-.09-16.35-.19.47-24.84v-4.86l.47-24.37.09-.47.1-.18.09-.28.19-.38.18-.18.1-.1.09-.09.28-.19.28-.19-44.93-.74-2.15-.1h-.74l-7.2-.18-12.7-.1-23.45-.46v-.94l.66-33.52.28-17.47.09-4.85.1-4.21.09-6.25.19-8.22.09-6.82.19-9.99.09-4.02v-4.02l.09-3.54.1-5.7.18-9.15.1-7.94v-2.06l.09-2.52v-1.68l.09-2.8v-2.71l.1-5.14.09-6.16.09-6.16.19-7.94.19-7.94.46-36.14.56-26.34.1-9.9.09-2.8.19-12.98 46.33.75.75-42.12.18-9.81 16.91.28 29.51.37.38-25.21.19-14.29.18-12.33.28-20.08.1-2.33v-1.5l.09-4.39.09-4.76.28-19.05.56-29.32.38-22.51 6.44.18 11.3.1 2.15.09 8.32.09 5.32.1 4.67.09 8.59.19 6.45.09h6.91l5.23.1 19.15.28h5.23l3.27.09.56-27.55.37-24.28.38-21.76.56-30.36.65.1 27.18.28 2.15.09 10.93.09 4.3.1 1.12.09 5.41-.09 28.4.46 5.23.1 5.79.09h1.4l-.09 5.98-.09 4.01-.1 7.38-.18 7.1-.1 7.1-.09 5.13-.28 15.32h11.21l2.05.09h3.27l2.06.1h4.67l3.27.09h4.95l2.61.09h4.21l1.96.1h2.71l1.58.09h1.69v4.95l-.1 2.8-.37 21.48-.1 6.35-.09 5.05-.19 11.11-21.57-.28-7.85-.09-6.82-.1-10.09-.09-.18 10.09-.28 19.89-.19 9.9-.09 5.04-.1 4.95v2.24l12.52.1 12.61.18 6.26.1 6.26.09h8.59l9.34.09 11.12.19h6.35l6.82.19 12.51.09-.37 26.9v15.87l-.09 9.81-.84 52.2-1.31 49.78-.1 1.68.1.1v2.7l-.1 2.62-.28 15.6-.09 6.44-.28 14.85-.19 8.03-.09 1.96-.09 5.89-.94 46.78-1.02 51.93-.75 51.93-.84 21.57-.47 29.32-.28 1.03-.19.28-17.56-.84-.46.19-.38.09h-.65l-3.27-.37-.47.09-.84.09-5.23.75-1.68-.65-.37-.56-1.87.09h-.28l-1.22.09h-4.67l-6.63-.09-.93-.09-20.55-.38-7.38-.09-17.37-.28h-1.59l-4.3-.09-5.88-.1-4.49-.09-8.03-.09-8.03-.1-13.92-.18-1.78-.1-7-.09-16.63-.28-5.13-.09-15.79-.28h-2.34l-43.9-.84h-2.61l-.84 47.16z" stroke-linejoin="round"/></defs><use xlink:href="#j" fill="#9dc8ca" stroke="#9dd7f0" stroke-width="5.76"/><defs><path id="k" d="M2074.09 2835.55l-22.89-.1-46.42-.93-43.81-.75-7.85-.19h-.46l-14.2-.37-23.73-.84-11.02-.28-11.67-.19-23.45-.37-4.67-.09-8.31-.1-5.42-.18h-2.52l-4.95-.1-18.5-.28-1.86-.09-46.24-.84-4.67-.19-18.4-.37-5.89-.09-15.22-.29-2.06-.09-16.81-.28-2.71-.09h-1.03l-1.86-.1h-1.03l-1.59.19-1.03.09-6.07-.37-9.15-.28-.28.09-.19.1-.65.37.56-29.23.28-22.41.18-8.6.57-43.8-.1-10.27.28-11.11.1-1.59.37-15.97.28-12.98.56-19.24.09-.56.1-.65.09-.57.19-.65.28-.56.28-.65.28-.47.37-.47.37-.56-.93-1.02-.56-.66-.28-.37-.09-.28v-.94l.28-24.09.28-18.49.56-33.81-23.63-.56-22.33-.37-11.77-.1-10.18-.18-12.42-.28-11.77-.19-30.55-.28h-8.78l-6.72-.09-36.8-1.13h-1.03l-7.94-.18-.19-.38-.09-.28-.09-.46v-.28l-.1-.38.1-2.14.09-12.24.28-7.1-11.96-.65-1.02-1.03-.56-.84-.38-.18h-1.49l-2.15.37-1.96 1.03-.94 1.02-8.12-.84-.47-.37h-1.21l-1.4 1.03-2.25.46-2.33.47-.09-3.17-.56-1.5-2.62-1.87-.28-.65.19-3.36-.19-1.31-.56-.84-.47-.19h-1.31l-1.4 1.03-2.52 3.27-.56.37-.75-.09-.09-.37.19-1.03.46-1.03 3.74-3.17 1.31-1.59 1.03-1.87.93-4.02.28-7.28.28-.56h36.24l3.64.19 31.3.74 9.52.28 10.28.19 36.05.56 4.77.19 18.96.28 12.23.18h1.87l8.6.19 1.21-51.83.93-33.44.28-11.76.19-6.63.37-16.91.19-5.04v-2.43l.65-27.46 46.15.47 2.33.09 14.76.28 6.45.1 7.56.09 5.7.1 9.34.09 22.14.37 23.72.38 46.71.74 27.92.38 18.31.28.38-24.1 22.97.19 23.07.19-.37 13.44-.19 9.62h.66l6.91.19 5.6.09 4.58.1 6.63.18 4.86.1 2.9.09 2.89.09 4.95.1 4.77.09 3.36.09h6.07l6.26.1 6.72.18h6.45l4.86.1 1.96.09h4.85l3.93.09h1.77l-.65 51.93-.1 10.27-.46 25.59v2.15l-.19 14.2-.56 26.05-.56 26.06 45.49.93-.94 52.21-.09 1.12 9.44.18 21.11.1 15.41.09.37-.09h.56l23.73.37 8.31.09 13.54.1 18.69.09 27.27.28 19.43.19 15.88.09 10.93.19-.19 26.05-.19 26.15-1.21 52.02-.47 12.05-.47 16.72-.65 23.25-.47 29.42-.28 22.04-.46 28.11-.19 7.47-.09 7.47-.19 9.62-30.92-.46-15.13-.28-21.48-.19h-24.57l-21.86-.37-24.47-.38-23.16-.18z" stroke-linejoin="round"/></defs><use xlink:href="#k" fill="#6bacaf" stroke="#6bb4d2" stroke-width="5.76"/><defs><path id="l" d="M1375.03 2167.33l.19 8.22v1.21l-.19 11.77-.37 12.7-4.76-.09-15.14-.56-16.81-.75-9.71-.09-46.33-1.12-44.65-1.22-2.15.19-9.43-.47-18.96-.28-17.57-.46-35.58-.94-10.28-.28h-.18l-.19.1h-.75l-11.77-.28-15.6-.1-13.91-.37-6.54-.38.18-.37-.09-13.82.56-28.49.19-9.52-1.31-14.94-.56-3.83-.28-1.87h.19l.74.28h.66l.18-.09h.28l.19-.19.19-.19.09-.18.19-.38v-.37l.09-.56v-3.46l.1-5.97.18-7.29.19-12.89.37-20.92v-3.36l.56-26.99v-1.21l.47-30.35.28-13.45v-1.96l.09-1.03.1-5.23.37-25.5v-.37l.47-2.06.09-.74.09-.47v-1.12l-.09-.47-.09-.46-.28-1.12v-.94l.09-2.89.09-8.6.1-6.81-28.58-.56h-3.74l-4.3-.19h-9.71l-.56-.09h-.28l-45.3-.75-19.62-.37-19.33-.38-7.2-.09-46.33-.94-24.56-.46-13.36-.28-8.31-.19-.28 12.23-.1 9.72-.09 3.73v.28l-.09.1-.1 1.12-.28 13.73-.28 10.46-.09 3.92-.37 18.58-.19.66-2.24 2.71-.47 1.3 1.4 4.11v4.2l-.09.19-.47 2.52.28 1.78 1.59 1.86.09 10.93.1-.09h.37l30.45.56h3.08l7.01.09h.47l4.57.1 36.15.74 5.14.1 5.13.18-.18 7.66-.1 9.06-.09 3.08-.09 2.24-.1.66-.09.93-.19.84-.74 2.34-.38 1.68-.09.56-.09.46v2.06l.09.56.37 1.68.38 1.96.09.66.28 1.4.09.56.1.84v.46l-.38 12.24-.65 44.55-.09 7.37v.66l-.1 1.87-.74 43.24-.19 6.25-15.97-.28-30.55-.56-12.98-.28-32.97-.65-31.39-.66-8.59-.28-6.54-.09 1.12-52.02.56-25.49.66-26.81.56-51.83.93-52.2.37-14.01.94-37.92.47-22.41.56-28.96.37-19.14.65-33.15v-.75l.94-39.41.28-11.02.09-1.31.47-22.04.56-29.05.75-26.15.46-25.77 14.67.09 30.35.66 46.33.84 35.12.84 11.12.18h1.68l4.2.1 7.2.09 10.74.19 16.06.28 6.36.09 12.7.19 33.53.46.19-9.99.37-21.01.28-16.44.1-1.68v-2.8l.28-14.94.28-11.3.09-5.14.28-19.24.09-.56v-.93l.38-21.48.18-7.01.1-6.91.18-7 .1-3.46v-3.55l.09-2.52.37-21.67v-2.52l.1-2.15.47-25.86.09-1.78v-.28l.09-3.17v-6.82l-.09-.38-.09-.18-.19-.47-.19-.19-.19-.37-.37-.47-.37-.46-.66-1.03-.28-.28-.18-.28-.47-.75-.37-.56-.47-.47-.37-.46-.57-.84-.18-.28v-.19l-.1-.19v-.28l-.09-.18v-.84l.09-.38.1-.28.18-.47.1-.18v-.1l.28-.46.09-.19.19-.37.19-.19.56-.65 1.02-1.12.38-.38.56-.56.18-.09.28-.19.47-.46.28-.19.19-.28.09-.19v-.09l.1-.1v-.28l-.1-.74v-.75l-.09-.09v-.47l-.09-.93v-2.34l-.1-.65v-3.08l.1-.47v-.56l.09-.94.09-.46.19-2.62.09-1.12.1-1.4.18-2.24v-.56l.19-2.71v-1.12l.19-5.32.09-3.83.09-4.11v-2.43l.1-1.4v-1.12l.28-15.13.18-7.47.1-5.7.09-5.6-11.86-.38h-11.87l-7.84 1.59h-5.05l-2.14-.56-4.3-1.59-3.74-.18-14.85.28h-1.21l-9.72-.38-2.52 1.22-1.59.09-6.35-.75-3.64-1.12-4.67-.37-.37.09h-.75l.46-20.17-.09-5.7.28-.84-.09-2.24.09-2.15.1-17.83.09-2.53.75-29.79.65-22.5 1.12-2.34 19.99.56 21.95 2.34 2.8.28.19.18v-2.15h.09v-.09l.1-.09h1.86l.1-1.22v-.84l.09-3.17.09-8.22.1-5.7.09-5.13.09-5.61.1-5.79.37-16.34.09-4.11v-3.36l.1-7.19.09-2.71v-1.96l-.09-.56V1180l.09-.66.1-.56v-.37l.09-1.77v-4.11l.09-15.32v-7.28l12.52.28 24.56.56 9.62.18 1.31.1 17.84.28 3.93.09 9.06.09 6.25.19h3.65l4.29.09 6.17.1 14.2.28h.84l2.43.09 10.92.19 11.77.19 9.62.18 4.49.1 6.63.09 1.87.09 23.91.28.19.1.28.18h.18l.38.1 18.31.18 10.46.19 16.25.37-.37 20.08-.19 8.59-.28 15.41-.09 7.94 16.15.28 6.73.1h6.73l2.61.09h2.34l3.36.09 8.12.28 23.45.47 23.07.37h.09l6.17.19 9.71.09 14.01.19 12.52.19h3.74v-1.87l.09-3.83.09-3.92.1-7.85.09-3.83.09-3.92v-3.92l.1-3.92v-2.53l.09-6.63.19-8.59v-1.12l46.23.93 8.5.1 14.39.28 7.19.09 7.19.1 8.78.18 15.6.28 7.57.1 3.83.09 3.73.09 7.57.1 7.57.18.74.1-.09 3.54v4.02l-.09 4.02-.19 9.99-.09 6.82-.19 8.22-.09 6.25-.1 4.21-.09 4.85-.28 17.47-.66 33.52v.94l23.45.46 12.7.1 7.2.18h.74l2.15.1 44.93.74-.28.19-.28.19-.09.09-.1.1-.18.18-.19.38-.09.28-.1.18-.09.47-.47 24.37v4.86l-.47 24.84-7.09-.09-8.5-.19-6.17-.09-24.66-.47-7.84-.18-12.24-.19-3.46-.09-9.43-.28h-4.67l-4.67-.1-3.83-.09-.38 18.49-.28 17-.46 16.53 3.08.09h1.59l1.49.09h1.03l15.6.28 5.98.1h3.73l.38.65.28 1.4.28.28.74 4.02.75 1.77 1.22 1.5.56 1.12-.1 5.6.56 1.96.1.56.18.66 1.5 1.68 4.39 2.71 2.52.84-.09 5.23-.1 7.47-.09 2.61v3.36l-.09 2.34-.1 1.49-.09 4.95-.09 3.93v3.36l-.1 2.52-.09 5.32-.19 17.09-.09 1.31v1.87l-.09 2.8-.28 13.73v1.31l-.47 23.81-.19 11.96-.19 11.86-.09 2.98-.28 20.18v2.15l-.65 29.23h-3.27l-17.84-.1-17.66-.09h-.18l-7.48-.19h-4.57l-1.22-.09h-4.39l-.84-.09h-4.67l-1.31-.1h-1.3l-3.37-.09-1.4-.09-11.67-.75-11.3-.19v.19l-.1 4.39v1.87l-.09 1.4v.65l-.09 1.87-.1 1.68-.09 1.03v.46l.09.94v1.12l.1 1.31-.85 35.86-.18 7.94-.19 10.46-.19 10.55-.28 10.55-.18 10.56v.74l-.1 1.12-.18 6.54-.19 9.06-.28 13.17-.19 10.83-.09 6.73-.09 5.69-.1 1.59-.65 35.02-.28 15.32-.37 24.47-.1 8.78-.28 10.74-.09 6.53-.1 1.31v1.12l-.46 23.35-.47 27.55-42.22-.65h-4.58l-22.69-.28-20.46-.28h-1.03l-.56 51.92-.74 52.11-.29 28.11-.28 19.8v4.02l-.09 4.2-.09 10.27-.28 25.69-.1 7.19-.09 1.59-.09 1.49-.1 1.68-.18 11.02-.56 14.76-.1 5.97 1.68 29.33-1.68 9.15z" stroke-linejoin="round"/></defs><use xlink:href="#l" fill="#6bacaf" stroke="#6bb4d2" stroke-width="5.76"/><defs><path id="m" d="M2045.97 806.81l-.19 8.59-.28 4.86-.74 21.94-.19 3.46-.37 10.18-.1 1.68-9.24-.47-12.33-.09-23.36-.47-23.53-.93-11.68-.66-11.68-.28-15.41-.46-4.11-.19-6.82-.28-6.82-.28-8.5-.47-2.05-.09h-.19l-12.51-.09-6.82-.19h-6.35l-11.12-.19-9.34-.09h-8.59l-6.26-.09-6.26-.1-12.61-.18-12.52-.1v-2.24l.1-4.95.09-5.04.19-9.9.28-19.89.18-10.09 10.09.09 6.82.1 7.85.09 21.57.28.19-11.11.09-5.05.1-6.35.37-21.48.1-2.8v-4.95h-1.69l-1.58-.09h-2.71l-1.96-.1h-4.21l-2.61-.09h-4.95l-3.27-.09h-4.67l-2.06-.1h-3.27l-2.05-.09h-11.21l.28-15.32.09-5.13.1-7.1.18-7.1.1-7.38.09-4.01.09-5.98h-1.4v-1.03l.28-13.26.28-5.13.1-10.46.46-12.52v-.18l.84-.38.19-9.71 20.27.37 8.41.19 6.44.09 11.21.28 27.09.38 18.96.28.75-26.9.09-7.47.28-16.53v-1.12l.09-5.98.47-19.8.47-26.15 6.63.38 15.5.56 7.76.18 7.75.19 7.85.19.28-12.98.18-16.82.1-7.75.09-7.65.09-6.64.1-3.64v-6.91l-.19-5.23-.28-4.67-1.03-21.57-.65-9.99h1.03l1.68.09.56-49.13v-2.8h-.28l-4.77-.18h-.93l-2.43-.1-7.1-.37-6.35-.19-5.6-.28-10.37-.46-6.82-.28.37-24.29.28-16.99.19-10.28-8.78-.18-9.81-.1-8.68-.09-10.47-.09-8.31-.1-9.25-.09h-.74l-.19-.09h-.09l-4.39-.56-2.25.18h-6.35l-.37.1-.65.09h-8.41l-13.73-.19-29.14-.28-17.28-.46-.66 46.04-.65 2.05-.1 1.22v.84l.66 2.24-8.6-.38-2.8.66-1.12-.66-2.8.75-1.4-.19-1.78-.93-3.17.28-1.31-.19-1.59-.09-10.65-.19-11.11-.18.09-5.23.75-46.42-46.24-.46-17.65-.29h-8.97l-20.27-.28.94-52.01 28.67.37 18.03.28 46.33.47.09-4.86.1-8.22v-1.59l.56-37.17 41.19.47h5.14l-.1 5.04-.09 4.86-.56 42.12 18.87.19 8.68.09 18.69.19 17.84.28 24.47.28h1.77l2.15.09h4.95l15.69.19 9.16.18 16.62.28v-.74l.1-8.5.09-3.08.09-9.62.1-2.62v-.46l.09-.38v-.37l-.19-26.15.94-49.59v-1.87l.09-1.03.38-24.19.18-8.59.1-5.97v-12.89l7.84.46 32.23 2.25.93.09h17.37l14.58.19h1.12l8.12.09h1.68l3.09.09h.18l7.85.19 31.2.84 7.28.28 6.64.19 16.06.56 23.45.84 22.13-.19 23.17.38v-.57l43.15.66v.56l3.92.09 11.59.19 36.99.65h6.91l39.51.75-.28 28.76-.19 11.02-.18 12.33 4.29.1 19.43.37.19.09h3.27l4.2.1 6.63.18 7.57.19h4.39l2.24.09h1.77l19.06.47h.65l.28-.09.28-.1.28-.18.38-.28.37-.38.65-.65 1.41-1.87.37-.37.28-.38.28-.28.37-.28.28-.18.38-.19.37-.09.75-1.03 3.17-3.83.28-.37 1.69-1.59 1.4-11.86 3.92-2.43 1.96-1.03v-.18l.09-.28-.09-.28v-2.81l.28-9.06-.09-2.42 2.33-1.96 1.12-.94-.46.28h-.28l-.47.1h-.75l-.28-.1-.18-.09-.19-.09-.09-.1-.1-.28v-5.88l.38-25.59.28-26.43.74-55.38 15.51.18h3.92l3.74.19h.37l1.78-.93-.28.93-.56 2.06-.66 3.36-.47 3.08.1 2.24.65 3.74.84 2.8 2.15 1.87 2.06 1.96 3.64 2.89 3.45 2.43 3.55 1.96 1.59 1.78 1.78 2.43.84 1.4 1.02 2.33 1.31 3.36.66 1.78.46 2.15.38 2.05.37 1.87.28 1.31.19.74.46.75.19.47.66.84 1.12.56 1.3.65 1.87.75.28.09 1.68.56 1.59.47 2.34.65 1.12.38 1.87.93 1.68 1.4.37.37.28.84.37 1.59.19 2.43.09.37-.28 1.5v.37l-.28.75-.37.56-1.21 1.77-1.69 1.78-2.05 2.24-2.24 2.52-1.87 2.24-.65 1.31-.47 3.27v.84l.47 1.21.46.84.94 1.5 1.02 1.21 1.69.66.93.18 2.43.47 3.83.28 4.2.09 3.08-.37 2.34.56 2.43 1.21 2.89 1.78 1.68 1.12 1.78 1.87.84 2.33.93 3.36.1 2.99-.1 4.86-1.12 1.96-2.61 9.71-1.96 5.42-1.31 2.52-1.12 1.03-3.27 1.87-3.18 1.02-4.57 1.03-3.18 1.03-2.06.75-1.4.46-2.61 1.59-2.15 1.87-1.87 1.68-1.59 2.52-.84 2.15-.56 1.96-.09 1.87v1.12l.47 1.87.74 1.49 1.31 1.31 1.31.65 1.4.38h1.68l1.03-.57 1.12-.84.84-.65 1.68-1.87 2.06-2.52 1.21-1.31 1.78-1.12.37-.28 1.21-.56 2.34-.74 1.96-.38 1.31-.09 1.68.09 2.43.19 1.21.28 2.24.47 2.71.56 1.22.37.84.19 4.85.65 1.78.37 4.11 1.03 3.18 1.96 2.61 2.43 1.4 2.24 1.4 1.96 1.31 2.9-.09 1.4-.28 2.05-1.59 3.09-1.87 1.86-5.14 2.8-7 2.43-5.05 1.78h-.18l-.1.09-2.8.19-1.4.09-1.68.09-1.87-.28-2.43-.37h-.84l-1.31.09-1.68.66-1.21.75-.84 1.02-1.31 1.4-1.03 1.5-.46 1.59-.47 1.96-.37 1.68-.38 2.43-.65 1.77-1.03 2.24-1.21 2.43-1.22 2.61-1.03 1.69-.93 1.68-.65 1.49-.28 1.59-.1 1.77-.09 1.78.19 1.59.56 1.4 1.12 1.49 1.31.93 1.21.47.37.19 1.59.18 1.59.1 1.4-.47 1.12-.56 1.31-1.03 1.59-1.49 1.4-1.5 1.68-1.77 1.21-1.21 1.87-1.5 1.5-.46 1.4-.66 1.77-.09h1.59l1.4.65 1.21.84 1.31 1.22 2.24 2.33 1.87 2.24.28 1.68-.28 2.53-1.77 2.42-2.52 2.52-2.53 2.25-.74.93-1.4 2.15-.47 1.4-.38 2.89v2.15l.94 1.59.65 1.21.75.94.47.28 1.3 1.59 1.31 1.02 2.8 1.22 5.89 2.52 2.52 1.68 1.68 1.21 6.82 5.14 1.96 2.05 1.68 2.25.84 1.96.94 2.71v1.86l-.37 2.15-1.22 1.87-1.87 2.05-3.27 1.31-2.99-.28-5.23-1.21-2.52-2.06-1.96-2.24-2.99-4.39-1.4-2.99-1.49-3.17-1.03-.94-.84-.56-.66-.28-2.14-.84h-1.78l-.93.28-1.5.56-.84.56-1.31 1.22-1.49 1.87-1.4 2.05-1.78 3.36-.93 1.68-.93 1.96-1.5 2.43-1.21 1.78-1.87 2.15-2.43 1.96-1.96 1.77-.94.94-.93 1.4-1.68 3.17-.47 2.24-.28 1.78-.09 1.4.18 2.43.94 2.8.84.74 1.68 1.41 2.52.84 1.31-.19 1.31-.65 2.8-1.97 1.59-1.77 1.68-2.52 2.43-3.83 1.68-2.15 2.24-1.87 1.12-.84 1.68-1.02 1.5-.38 1.03-.18.84.18.65.28 1.31.75.65.65 1.12.94 1.59 1.49 2.06 2.71 9.24 23.63.94 3.36.18.65.94 4.11.09 1.96.09.66v2.99l-.93 3.17-1.21 2.71-2.62 2.33-2.61 1.97-1.41.28-1.58-.1-2.34-.56-1.68-.18-1.59-.19-1.49.56-.84.56-.56 1.21-.28.56-.19.56-.19 1.03.19 1.03.19.84.28.65 1.3 2.9.94 2.05.37 1.4.28 1.78.38 1.31v1.3l-.28 1.59-.47 1.21-1.4 1.31-.66.75-.65.75-.19.09-2.52 1.49-1.31.56-3.55.28-2.05-.37-3.27-.84-6.35-2.24-3.74-1.31-3.55-.65-2.89-.1-2.62.19-3.74 1.03-2.14 1.4-2.71 2.61-1.4 3.46-.28 3.64.56 3.46.93 1.96 1.12 1.77 2.34.66 1.49.65 2.99.28 2.34-.47 4.29-.65 3.08-.65 2.25.09 3.55 1.12 6.35 1.68 3.92 1.03 4.86 1.68 1.96 1.12 1.4.65 1.03 1.13.93 1.3.66 1.5.74 1.96.19 2.05-.37 1.78-1.12 1.96-1.31 1.12-1.31.75-1.03.28h-4.2l-2.15.18-1.96.1-1.4.46-1.03 1.12-.56 1.69-.09 1.3.09 2.06.37 1.68.84 1.4 1.87 2.24 3.55 4.02 1.4 1.58 1.12 1.59 1.31 2.34.56.84 1.03 1.96.56 2.15.47 2.33v2.34l-.38 2.05-.56 1.21-.74 1.31-.56.28-2.25.56-2.24 1.03h-3.55l-1.68-1.12-7.47-.56-2.43.47-2.15.84-4.76 3.73-2.43 1.96-3.36 2.06-5.79 2.05-2.9 1.96-3.46 3.37-1.4 2.52-.93 5.41.19 2.81 2.33 2.05 3.18 1.59h4.76l3.55-.94h4.3l2.14.75 3.83 1.5 2.43 2.33.94 2.06.84 2.14-.56 3.18-.94 1.77-3.08 2.71-4.11.56-4.58.28-2.61.47-1.03.19-2.99 1.4-2.89 3.64-.56 2.8-.19 2.52 2.24 6.45 2.52 2.8 6.45 2.99 8.96 1.68 5.52.18 4.67.19 5.32 1.68 5.32 2.06 1.87 1.02 2.06 1.31 2.05 1.96 1.78 1.96 1.87 4.02.28 1.68-.19 2.15-.84 2.24-1.31 2.05-1.31.94-2.15.75-2.61-.38-1.78-.65-1.21-.75-1.49-1.03-2.15-2.14-3.09-2.43-3.08-2.71-2.43-2.15-3.36-1.87-5.32-.56-2.99.38-2.9.84-4.85 1.77-5.98 3.55-6.26 3.27-3.92 1.87-2.81 2.05-3.17 3.74-1.31 2.52-1.03 3.36-.09 2.9.93 2.52 1.78 2.24 2.43.84 3.17-.75 2.52-1.87 1.87-3.26.94-1.31.18-.28.38-.38 1.59-1.77 2.61-2.52 4.11-1.96 2.34-.19 3.26.75 8.5 4.76 6.17 3.92 6.91 3.09 3.46 1.02 4.11 2.62 1.03 1.21 4.1 3.36 1.69 2.15 2.61 3.36 2.9 5.23 1.02 2.34 1.78 5.23.37 2.89.19 2.99-.56 2.34-.47 1.96-1.4 2.61-1.87 1.12-1.49.84-2.34-.18-2.89-.28-1.59-.75-1.77-1.31-1.69-4.48-.93-1.77-.65-1.13-.94-4.38-1.77-7.66-.84-3.83-2.9-4.76-2.15-2.25-2.33-2.98-3.18-1.5-3.36-.75-2.24-.28-4.02.56-2.05 1.31-1.41.84-.65 1.12-.56 8.5 2.62 4.76 3.73 4.39 2.24 1.31 7.57 1.22 2.33.93 1.69.84.65.84.93 1.96-.18 5.51-.75 1.5-1.12 1.21-3.36 1.68-5.23 1.31-7.38 1.87-3.27 1.3-2.15 2.53-1.78 2.14-.56 1.87-.18 3.74.56 1.02 1.77 3.37 3.74 5.04 3.17 3.92 1.78 4.58.37 4.48-1.96 3.08-4.3 2.8-1.77.1-.47.09-.28.09-.28.1-.28.18-.56.47-.28.28-.47.66-.18.18-.28.47-.75 1.87-.19.74-1.3-.09-8.04-.65-18.77-.28-16.91-.19-11.02-.19-43.06-.46h-5.23l-44.18-.66-47.36-1.49v8.03l-.84 45.2-.19.65-1.21 51.56-.09 1.49-1.31 50.62-35.22-.93-9.52-.94-31.76.47-1.12.09h-2.15l-11.3-.18-45.87-.75h-.46l-.84-.1-23.73-1.21-4.02-.28-7.75-.47-7.28-.37-1.59-.09-1.59-.1v1.5z" stroke-linejoin="round"/></defs><use xlink:href="#m" fill="#6bacaf" stroke="#6bb4d2" stroke-width="5.76"/><defs><path id="n" d="M1432.76 2512.79l-2.52-.1-4.95-.18-1.41-.1-7.75-.28-.18-.09-2.25-.28-2.89-.1h-3.08l-38.21-.37h-5.32l-2.15-.09-32.13-.75-5.79-.19-5.61-.18-40.72-.66-5.7-.28h-8.97l-31.19-.56-6.36-.28-13.63-.18-26.53-.38-4.95-.09-37.92-.65-8.69-.1-12.8-.18-13.08-.29-11.76-.18-9.06-.19-36.53-.75-9.71-.18-11.58-.28-19.99-.47-14.95-.28-14.76.09-15.13-.46-7.47-.19-8.78-.28-.09-12.51.84-31.76v-7.75l1.96-52.11.09-.19.1-.19v-2.42l.28-11.86.74-32.88.1-4.29.84-36.43.18-11.39.19-4.3.09-4.01.19-8.41.84-39.5.47-20.45.19-11.68.37-19.8.19-6.25.74-43.24.1-1.87v-.66l.09-7.37.65-44.55.38-12.24v-.46l-.1-.84-.09-.56-.28-1.4-.09-.66-.38-1.96-.37-1.68-.09-.56v-2.06l.09-.46.09-.56.38-1.68.74-2.34.19-.84.09-.93.1-.66.09-2.24.09-3.08.1-9.06.18-7.66-5.13-.18-5.14-.1-36.15-.74-4.57-.1h-.47l-7.01-.09h-3.08l-30.45-.56h-.37l-.1.09-.09-10.93-1.59-1.86-.28-1.78.47-2.52.09-.19v-4.2l-1.4-4.11.47-1.3 2.24-2.71.19-.66.37-18.58.09-3.92.28-10.46.28-13.73.1-1.12.09-.1v-.28l.09-3.73.1-9.72.28-12.23 8.31.19 13.36.28 24.56.46 46.33.94 7.2.09 19.33.38 19.62.37 45.3.75h.28l.56.09h9.71l4.3.19h3.74l28.58.56-.1 6.81-.09 8.6-.09 2.89v.94l.28 1.12.09.46.09.47v1.12l-.09.47-.09.74-.47 2.06v.37l-.37 25.5-.1 5.23-.09 1.03v1.96l-.28 13.45-.47 30.35v1.21l-.56 26.99v3.36l-.37 20.92-.19 12.89-.18 7.29-.1 5.97v3.46l-.09.56v.37l-.19.38-.09.18-.19.19-.19.19h-.28l-.18.09h-.66l-.74-.28h-.19l.28 1.87.56 3.83 1.31 14.94-.19 9.52-.56 28.49.09 13.82-.18.37 6.54.38 13.91.37 15.6.1 11.77.28h.75l.19-.1h.18l10.28.28 35.58.94 17.57.46 18.96.28 9.43.47 2.15-.19 44.65 1.22 46.33 1.12 9.71.09 16.81.75 15.14.56 4.76.09.37-12.7.19-11.77v-1.21l-.19-8.22 1.68-9.15-1.68-29.33.1-5.97.56-14.76.18-11.02.1-1.68.09-1.49.09-1.59.1-7.19.28-25.69.09-10.27.09-4.2v-4.02l.28-19.8.29-28.11.74-52.11.56-51.92h1.03l20.46.28 22.69.28h4.58l42.22.65 5.32.09 20.93.28 20.08.38 26.81.46 19.43.28 7.38.1h3.08l7.1.18 6.63.19 22.14.37-.47 37.08-.19 6.44v4.02l-.09 3.74.09.74 46.05.75 23.54.37 15.32.19 7.84.09 14.86.19h4.29l3.46.09h3.73l19.9.19h32.79l7.09.09h6.26l46.33.19-.56 25.87-.09 3.18-.28 16.62-.1 1.87v2.8l-.09 1.59-45.39-.28-2.34 52.02h5.33l41.37.28h21.02l20.74.18 4.57-.09 19.53.09 2.98.1h13.74l9.8.09-.56 22.97-.56 28.3-1.12 52.67-.56 30.92-.28 14.85-.19 5.97 22.7.38 17.09.28h4.58l-.47 19.23-.65 23.73-.28 9.62-.09 6.25-.1 7.66-.28 15.78-.09 9.9-.19 12.52-.09 8.22-.09 1.58-.47 35.59-.09 6.72-4.77-.09-4.95-.1-2.89-.09-2.9-.09-4.86-.1-6.63-.18-4.58-.1-5.6-.09-6.91-.19h-.66l.19-9.62.37-13.44-23.07-.19-22.97-.19-.38 24.1-18.31-.28-27.92-.38-46.71-.74-23.72-.38-22.14-.37-9.34-.09-5.7-.1-7.56-.09-6.45-.1-14.76-.28-2.33-.09-46.15-.47-.65 27.46v2.43l-.19 5.04-.37 16.91-.19 6.63-.28 11.76-.93 33.44-1.21 51.83-8.6-.19h-1.87l-12.23-.18-18.96-.28-4.77-.19-36.05-.56-10.28-.19-9.52-.28-31.3-.74-3.64-.19h-36.24l-15.69-.19-12.24-.18-4.3-.1-3.73.1z" stroke-linejoin="round"/></defs><use xlink:href="#n" fill="#6bacaf" stroke="#6bb4d2" stroke-width="5.76"/><defs><path id="o" d="M1532.42 1159.55l-.74-.1-7.57-.18-7.57-.1-3.73-.09-3.83-.09-7.57-.1-15.6-.28-8.78-.18-7.19-.1-7.19-.09-14.39-.28-8.5-.1.75-35.48.19-16.44.09-11.67.28-18.87.56-20.08v-1.49l.47-28.86.19-9.43.18-13.64.75-51.92.56-26.34.47-23.72.09-2.06.19-9.71.65-42.31v-.74l.09-6.63.1-6.73.09-6.63.19-6.63.37-24.47-35.31-.65-10.92-.19-6.82-.09-1.4-.09-13.83-.19h-1.12v-2.24l.09-.75.38-15.5.09-7.75-6.16-.19h-2.62l-.75-.09h-.18l-12.99-.19h-1.86l-21.86-.28-.37 26.24h-1.97l-5.51-.09-2.24-.1h-.09l-2.8-.09-5.8-.09-4.11-.1.19-9.9-.09-1.96.09-2.52.19-6.35v-5.23l.09-4.2v-.09l.09-3.27v-7.1l.1-.28v-.19l.09-.18v-.19l.09-.19.19-.18.1-.1.28-.28.18-.19.56-.28 2.99-1.68.1-2.05.09-2.15-1.03-4.2-1.49-2.62-1.12-1.58-.56.09-.85.37-1.4-4.76 2.34-42.68.09-.09.1-.19.18-.19.1-.18v-.19l.09-.28v-1.59l.09-3.83.1-2.52v-6.26l.09-1.68v-2.24l.09-3.27.1-1.68v-1.77l.09-4.86.09-6.26.1-4.48-.19-10.55-46.05-.66.28-12.7.65-38.1.1-1.12.28-15.22v-1.41l.09-5.23.19-8.31.18-10.92.29-10.84.37-25.96.19-9.71.18-11.49.19-4.76v-3.08l.37-21.86.1-1.77.28-15.69.09-9.53 3.64.1 3.74.09h1.77l1.03.09 12.24.19 15.22.28 8.69.19 9.43.18 7.57.1 11.77.09 17.47.28.46-24.84.38-23.35 2.89.09.19-.09h.19l.18-.09.19-.1.19-.09.09-.09.19-.1.18-.18.28-.1.1-.09.18-.19.19-.09.19-.09.18-.1h.19l.19-.09h9.24l.19-.19.09-.09.19-.19.09-.09.19-.19.1-.19.09-.18.09-.19.1-.28.18-.19.19-.09.19-.09 1.3.28 1.31.09h.19l.28-.09.19-.1.28-.09.28-.09h.18l.1-.1h.18l6.07.1 11.87.18h4.95l.46.1 1.12.93v-.84l5.8.09 9.43.19 7.94.19 9.25.09 13.91.19 45.77.84 17 .28 6.45.09 10.27.19 13.17.28-.46 27.08-.1 1.12v4.21l-.18 7.09 1.77.38 2.06-.1 1.3-.56 1.12-.65 2.15-2.43.56-1.21 1.31-1.68 1.31-.47 3.64-.19 5.98.56 1.59.56.84.94.28 1.58.47.75 1.02.56 2.71-.28 2.24.66 3.27 1.77 3.08-.28h2.43l2.06-.93 4.95-.56 6.16-.75 6.17-.28 3.17.09 2.34 1.31.84.75.09.74.1 3.09.18 1.02.66 1.31 1.49 1.87 2.9 1.12.93 1.12.75 2.24.09 1.03.38.84 2.14.09h2.15l11.12.28.09-.18 3.46-2.71 1.12-1.12.37-20.18.56-27.64v-5.79l.19-1.4.19-.47v-.09l.46-1.22.38-1.12.09-1.21v-1.03l-.19-1.12-.37-1.49-.47-1.4v-.66l-.09-.56.65-34.37 20.27.28h8.97l17.65.29 46.24.46-.75 46.42-.09 5.23 11.11.18 10.65.19 1.59.09 1.31.19 3.17-.28 1.78.93 1.4.19 2.8-.75 1.12.66 2.8-.66 8.6.38-.66-2.24v-.84l.1-1.22.65-2.05.66-46.04 17.28.46 29.14.28 13.73.19h8.41l.65-.09.37-.1h6.35l2.25-.18 4.39.56h.09l.19.09h.74l9.25.09 8.31.1 10.47.09 8.68.09 9.81.1 8.78.18-.19 10.28-.28 16.99-.37 24.29 6.82.28 10.37.46 5.6.28 6.35.19 7.1.37 2.43.1h.93l4.77.18h.28v2.8l-.56 49.13-1.68-.09h-1.03l.65 9.99 1.03 21.57.28 4.67.19 5.23v6.91l-.1 3.64-.09 6.64-.09 7.65-.1 7.75-.18 16.82-.28 12.98-7.85-.19-7.75-.19-7.76-.18-15.5-.56-6.63-.38-.47 26.15-.47 19.8-.09 5.98v1.12l-.28 16.53-.09 7.47-.75 26.9-18.96-.28-27.09-.38-11.21-.28-6.44-.09-8.41-.19-20.27-.37-.19 9.71-.84.38v.18l-.46 12.52-.1 10.46-.28 5.13-.28 13.26v1.03l-5.79-.09-5.23-.1-28.4-.46-5.41.09-1.12-.09-4.3-.1-10.93-.09-2.15-.09-27.18-.28-.65-.1-.56 30.36-.38 21.76-.37 24.28-.56 27.55-3.27-.09h-5.23l-19.15-.28-5.23-.1h-6.91l-6.45-.09-8.59-.19-4.67-.09-5.32-.1-8.32-.09-2.15-.09-11.3-.1-6.44-.18-.38 22.51-.56 29.32-.28 19.05-.09 4.76-.09 4.39v1.5l-.1 2.33-.28 20.08-.18 12.33-.19 14.29-.38 25.21-29.51-.37-16.91-.28-.18 9.81-.75 42.12-46.33-.75-.19 12.98-.09 2.8-.1 9.9-.56 26.34-.46 36.14-.19 7.94-.19 7.94-.09 6.16-.09 6.16-.1 5.14v2.71l-.09 2.8v1.68l-.09 2.52v2.06l-.1 7.94-.18 9.15-.1 5.7z" stroke-linejoin="round"/></defs><use xlink:href="#o" fill="#09757a" stroke="#097d9b" stroke-width="5.76"/><defs><path id="p" d="M2560.08 1645.37l1.77 1.02.56 2.62-.65-.28-1.59-.65-1.4-.66-.75-.18-.37-.19h-.19l-.28-.09-.37-.1-.47-.19-.93-.18v.47l-2.43-.38-14.01-1.31h-6.82l.37-.56-.09-.56.37-1.86-.28-1.41-.46-1.4-.28-.65.09-.93h-2.43l-.47-.1-.37-.18-.47-.28-.65-.66-.56-.65-.28-.47-.09-.47v-1.02l.28-.75.09-.65.19-.66v-1.49l4.95.18h.84l3.45-.09h3.46v1.78l.09.28.38.74v3.55h.37l1.03.1h.18l.28.09.1.09.18.1.47.37 1.96 1.68 2.06 1.68.37.37.75.66.37-.56.1-.38.09-.18v-5.42l.09-2.43-1.58 1.4-.57.56h-.18l-.1.1h-1.4l-1.49-.1.09-3.92v-.47h1.22l2.71.1h1.3l5.89.09v3.64l-.1.56.1.75-.1 1.31v.75l.1.18.09.19.19.09.56.1 1.96-1.78.37.56.38.56v.19l.09.09v.84l.19.1h.56l.46.09h.75l.1-.09.09-.19.28-.47.28-.56.28-.46h-.65l-.1-.1-.18-.09-.19-.19-1.96-1.87-.38-.37-.18-.19h-.19l-2.15-1.77.56-.75 1.12-1.12.28-.09h.75l.19.19h1.3v-.29l.1-7 3.36-.09 1.87.09h1.87l-.1 7 2.62.1h3.64l-.09.47h3.08l2.8.09.1.47.09.65.19.37.09-.56-.09-.93h4.85l3.18.09-.09 1.87v1.77h3.64l2.71.1-.1 3.64-.09 3.83v2.24l-10.65-.19-3.27-.09-20.92-.47h-.19l-.65-.09-2.06.28 1.97.56.56.19 1.96.28h.28z" stroke-linejoin="round"/></defs><use xlink:href="#p" fill="#09757a" stroke="#097d9b" stroke-width="5.76"/><defs><path id="q" d="M2930.71 2632.89l.38-16.16.28-14.01-.1-1.03-.09-1.02-.28-.94-.28-1.12-.28-.93-.37-1.03-.38-.75-.46-.74-.56-.84-.75-1.03-.84-.94-1.68-1.96-.84-.93-.66-.75-.84-.93-.47-.75-.46-.75-.38-.74-.46-1.03-2.81-.09-30.91-.47-3.74-.09h-1.59l-2.15-.1-8.12-.09-4.39-.09-28.49-.28h-23.63l-22.89.09h-46.51l-34.94-.56-6.63-.09-4.76-.1-46.15-.56-20.45-.47-26.06-.56-26.06-.18-20.18-.19-20.55 2.06-2.15-1.31-.37 1.87-.56.37-2.05-.37-19.15-2.81-10.74-.28-24.76-.65-10.93-.28-12.51-.19-9.9-.09-24.01-.28h-1.59l-2.24-.09h-6.63l-11.3-.19-24.38-.28-9.81-.28-22.23-.47h-1.21l-8.6-.18-3.73-.1h-2.06l-3.17.1-13.92.46h-7.75l-2.25-.09-17 .09-27.64-.37-17-.28-10.93-.19-15.88-.09-19.43-.19-27.27-.28-18.69-.09-13.54-.1-8.31-.09-23.73-.37h-.56l-.37.09-15.41-.09-21.11-.1-9.44-.18.09-1.12.94-52.21-45.49-.93.56-26.06.56-26.05.19-14.2v-2.15l.46-25.59.1-10.27.65-51.93h-1.77l-3.93-.09h-4.85l-1.96-.09-4.86-.1h-6.45l-6.72-.18-6.26-.1h-6.07l-3.36-.09.09-6.72.47-35.59.09-1.58.09-8.22.19-12.52.09-9.9.28-15.78.1-7.66.09-6.25.28-9.62.65-23.73.47-19.23 6.82.09 2.71.09 6.16.1 10.37.28 2.8.09 17.28.28 5.05.19 5.14.09 6.63.09 28.49.47h.65l-.28 11.02-.19 11.86-.18 6.07-.19 7.57-.09 3.73v.94l-.1.65-.09.84-.19.75-.28.93-.28.84-.37.75-.56.93-.56.75-.75.93.75.75.37.56.66.84.37.66.28.65.19.75.18.65.1.84v1.12l-.19 8.87-.28 15.23-.47 24.56 29.61.28 16.81.19 6.36.09 12.14.19h4.58l22.97.37 9.16.19 6.91.18 7.19.1 9.72.18 13.54.38.56-34.65.28-17.37.09-9.62v-3.64l.1-10.18.18-21.11.1-7.75 21.48.28 19.99.28h3.92l1.68.47 11.03 4.1 17.28.38 17.56-3.83-.1 12.61-.09 4.95-.19 10.92-.09 15.88-.19 7.75-.37 25.87-.28 25.96 17 .28 25.78.38h2.99l22.51.28 23.82.37 22.98.28 17.93.19 5.32.09 4.49.1 9.06.18 2.8.1 9.25.18 13.07.19 5.24.09h2.14l.47-.09.56-.19h.37l-.09.84-.19 5.05-.09 4.57-.19 5.33-.09 5.13-.56 12.24-.09.74v4.11l-.19 14.01 23.73.28 11.2.09 11.31.19 21.39.28.65.09h1.59v-.56l.18-2.52.19-2.52.38-3.36.28-4.11.18-2.52.19-2.06.09-2.33v-6.73l-.09-2.24-.09-2.24-.1-2.33-.28-3.46-.18-2.15-.1-.84-.18-2.24-.1-2.43v-11.11l.1-11.95.09-6.07.09-5.98.1-9.25.09-8.59v-6.72h23.07l10.93.09h8.12l21.77.37h4.3l1.12.1 14.19.37h.56l6.08.19 7.37.18h7.94l9.06.1 1.5.09-.09 5.23-.28 23.44-.19 23.44 22.6.19 23.54.28 28.4.09 17.56.1 10.93.09 10.92.19 1.13-52.02 11.11.19.28.09 1.22.09.37.1 3.27-.1h5.88l1.87-.09 46.14.65.1-16.99.37-2.53-.28-4.67-.37-1.3-.38-.47-.84-.28-1.49-.19h-1.68l-.75-.09-.65-.19-.47-.65-.28-.66-.28-.65-.38-1.31-2.33-9.71-.75-3.36-.28-1.78-.19-1.21-.09-1.21v-5.33h1.87l1.12-.18.37-.1h.28l.75-.18.66-.19 2.61-1.12 3.46-1.5.56-.18 1.3 2.71 3.55 4.29 4.3 2.71 5.51 2.52 2.34 1.5 1.59 1.58.56 1.03-.1 1.78-.75.84-1.4.37-2.61.47-3.46-.19-2.24-1.03-5.51-3.73-1.96-.94-1.78-.18-1.77.74-1.22 1.31-.65 1.4-.09 2.24.65 1.59 1.59 1.59 7.75 2.99 3.92 2.14 5.33 3.65 3.74 4.29.37 1.4.75 2.81.37 8.87.09 5.88-.56 3.92-1.21 3.65-2.62 2.89-3.45 3.64-2.15 4.49-.28 5.13.47 3.83 1.77 4.95 2.8 5.61 6.26 9.52 4.39 5.14 1.12 2.33.56 9.15.84 2.53 1.4 2.14 2.34 1.31 5.79 1.4 1.59 1.12.93 2.06.1 1.4-.38 1.68-.56 1.31-.75 1.12-.37.65-2.43 2.9-2.43 2.33-4.39 3.08-3.08 1.96-7.75 3.46-2.62 1.77-1.68 2.71-.65 3.18.09 2.99 1.12 2.61 1.96 1.78 2.99.37 3.74-1.87 2.43-3.17 2.52-5.14 2.33-2.15 2.81-.09 3.08 1.87 2.15 3.83.65 2.42.09 2.71-1.58 4.67-1.5 4.11-.28 1.68v3.08l.38 1.5.18.56.1.37.65 1.4 1.68 1.96 3.18 2.06 2.43 1.12 3.82.37 2.43.47 1.22.56 1.4 1.49.37 1.13.19 3.26-.75 2.99-1.12 2.24-.84 1.78-1.21 1.49-1.59 1.78-2.24.93-2.06.28-1.59-.28-1.02.19-2.34 1.49-1.49 1.59-2.06 2.89-1.03 1.5-.46 1.68-.1 2.05.28.94.28.56v.37l.19.47 1.12 1.12 1.96.65h1.96l1.41-.74 1.86-1.68 2.99-3.74 2.15-2.71 1.03-.75 1.77-.18.84.46.66.47 1.21 1.68.94 2.24 1.68 4.67.09.66.19.65.47 1.22 2.42 5.79 1.97 2.89 2.14 3.55.56 2.24-.18 2.15-1.5 1.96-2.89 2.99-1.5 2.15-.74 2.42-.1 4.58.56 1.59.66 1.4 1.4 1.49 1.68.84h1.96l2.52-1.21 1.68-1.49 1.22-1.69 1.77-3.92.84-1.4 1.22-1.31 1.59-.56 1.12.47 1.3.93 1.87 2.15 1.03 1.87.28.75.09.28.47 1.77.19 2.9-.1 2.61v2.99l.38 7.94 5.41 20.36.57 2.71.37 3.08-1.31 6.07-.28 2.99-.09 1.21.56 1.22 1.87 2.89 3.17 1.78 3.08.56 4.02-.56 3.46-1.41 4.57-2.42 1.78-.19 1.12.37 1.03.66.56 1.3-.38 1.69-.93 1.68-1.78 1.77-4.2 2.71-2.99 2.8-.56 1.5-.09 3.26.84 2.62 1.31 2.43 4.01 5.6 1.31 2.99 1.59 4.58.37 2.89v3.92l-.37 2.9-2.71 5.32-.93 1.96-.56 2.34-.19 4.29 1.4 6.17.56 2.71-.09 6.81 1.3 3.55 3.18 3.08-.47.56-.09.28-.09.28v.56l.09.75-.09 1.5-1.03 1.4-.75 1.49v2.9l.19 2.61-.19.84-.47 1.03-1.58 2.33-.94.66-1.49.09-3.08-.84h-4.77l-1.21-.28-1.22-1.21-.84-1.5-.28-1.03-.93-1.12-1.03-.28h-1.03l-1.12.66-.84 1.21-.65 1.96-.19 2.34-1.96 4.76v1.4l.28.75v1.31l-.37.56-.66.28-1.96.18-.19.1z" stroke-linejoin="round"/></defs><use xlink:href="#q" fill="#09757a" stroke="#097d9b" stroke-width="5.76"/><defs><path id="r" d="M2546.63 2372.04h-1.59l-.65-.09-21.39-.28-11.31-.19-11.2-.09-23.73-.28.19-14.01v-4.11l.09-.74.56-12.24.09-5.13.19-5.33.09-4.57.19-5.05.09-.84h-.37l-.56.19-.47.09h-2.14l-5.24-.09-13.07-.19-9.25-.18-2.8-.1-9.06-.18-4.49-.1-5.32-.09-17.93-.19-22.98-.28-23.82-.37-22.51-.28h-2.99l-25.78-.38-17-.28.28-25.96.37-25.87.19-7.75.09-15.88.19-10.92.09-4.95.1-12.61-17.56 3.83-17.28-.38-11.03-4.1-1.68-.47h-3.92l-19.99-.28-21.48-.28-.1 7.75-.18 21.11-.1 10.18v3.64l-.09 9.62-.28 17.37-.56 34.65-13.54-.38-9.72-.18-7.19-.1-6.91-.18-9.16-.19-22.97-.37h-4.58l-12.14-.19-6.36-.09-16.81-.19-29.61-.28.47-24.56.28-15.23.19-8.87v-1.12l-.1-.84-.18-.65-.19-.75-.28-.65-.37-.66-.66-.84-.37-.56-.75-.75.75-.93.56-.75.56-.93.37-.75.28-.84.28-.93.19-.75.09-.84.1-.65v-.94l.09-3.73.19-7.57.18-6.07.19-11.86.28-11.02h-.65l-28.49-.47-6.63-.09-5.14-.09-5.05-.19-17.28-.28-2.8-.09-10.37-.28-6.16-.1-2.71-.09-6.82-.09h-4.58l-17.09-.28-22.7-.38.19-5.97.28-14.85.56-30.92 29.42.38h.28l8.22.09 6.08.09 16.06.28 2.43.1 4.3.09 23.16.47 38.11.65 8.03.09 8.69.38.28.47.65-.19.94-.19.84-.09.93-.09h4.11l3.18.09h4.58l4.29.09 17.66.28 21.67.28 15.32.19h.84l6.81.09h1.03l14.95.28 31.29.56.84-52.48.93-51.46h-.84l.84-39.23.28-11.58 3.37-.09 18.96-.56.56-.09 10.27.28 12.61.28h2.43l10.28.28 13.91.37 16.54.37h2.7l11.59.1 14.48.09 14.29.09 4.85-.09.75.09h.84l16.53.19 22.52.28 7.28.19h32.88l11.12.09h2.14l11.03.28 4.48.19 7.19.19 2.06.09 21.2.75h.75l7.75-.1h1.03l1.21-.09 12.33-.19 8.22-.28 4.11-.09 2.52-.09 2.15-.1 6.63-.09h.28l.75-.09.47.09.84-.09h3.08l1.12.09h4.95l3.55.09h5.05l1.96.1h7.28l3.65.09h4.76l4.2.09h4.3l.19-12.79.09-16.53v-.84l.09-1.59v-4.2l.1-4.49v-7.19l.09-4.48 18.21.28 18.31.28 10.37.09.65-49.4v-.75l35.59.38 10 .09h8.22l2.05.09h1.4l1.31-.09h.84l6.07-.19h1.03l1.59-.09h2.99l1.02.09 1.4.1 1.87.18 1.03.19h1.03l1.96.09h.28l6.54.19h7.84l.19-.09 1.96.37 12.98-.75.85-.09-.47 2.05-1.03 1.22-2.99 1.68-2.33 1.77-2.62 5.05.28 2.7 1.4 1.22 2.62-.56 4.76-3.27 1.68-.65 1.22.28.74 1.12-.18 2.15-3.18 6.81-.65 3.64 1.21 3.27 2.71 1.03 8.03-1.4 2.62.84 2.24 2.62 1.03 5.23.65 4.85.38 2.06.74 2.52 5.98 7.84.75 2.15.28 1.31v2.15l-.28 1.86-.56.94-1.78 2.24-2.8 1.96-3.83 2.34-1.96 1.49-.93 1.21-.1 1.78.47.65 1.03.75 1.59.37h2.7l5.23-1.21 5.8-.56 2.14.28 3.09.65 2.43 1.31 1.96 1.96 1.3 2.24.28 1.87-.09 2.05-.65.94-.28.47-1.78.93-2.33.28-1.5-.37-3.36-1.69-2.05.19-.94.84-.47 1.03-.09 19.8 1.03 6.91 1.21 3.36 1.68 3.27.66 2.15.37 1.77-.47 4.21-1.3 2.33-1.87 1.59-2.15.74-2.62.19-10.08-2.43-3.65-.56-1.96-.09-1.96.19-2.61 1.58-.85 1.31-.18 2.15.65 1.12.66 1.12 1.02.93 2.62 1.22 3.55.37 2.89.38 1.03.65 1.59 1.4 4.2 4.39 4.58 2.99 4.48 1.59 4.3 1.12h4.3l.09.09 1.87.37 1.96.84 1.77 1.59.38.28.37 1.31-.37 1.03-.56.74-1.59.38-5.04.09-1.13.47-.46.56-1.4 1.59-.56 4.01-.19 4.95.47 1.03 1.12 1.68 1.87.56 3.17.19 4.95-2.15 6.45-4.48 1.3-.84 1.41-.38 1.02.28 1.5 1.68.28.84.18 6.45.56 1.96 1.59 3.36 1.68 2.71 1.5 1.68 1.59 1.49 6.44 4.02 2.8 2.24 1.22 1.68 1.49 2.34.28 2.33-.56 2.06-.75.74-2.14 1.13-2.81 1.21-3.55 1.96-1.21 1.4-1.68 1.78-3.64 5.88-1.4 3.36-.19 3.46.28 2.61 1.59 1.78 2.61.37 2.99-.93 3.08-2.53 3.18-5.23 1.12-.84.56.19.56.37.65 1.13v1.96l-.18.93-.56 2.05-2.99 6.73-.19 2.8.66 1.59 1.21 1.59 2.24 1.21 1.87.37 2.24.19 4.49-.65 1.3.46.75 1.03v.93l-.47 1.22-4.01 4.48-4.39 5.51-.38 1.5.28 1.49.94 1.03 2.24 1.03 2.71.56 2.24.18 1.96-.46 4.86-1.97 2.61-.56 2.06.47 1.68 1.12 1.12 1.5.19 1.02v3.27l.28 1.68.28.75.93 1.77 1.96 1.41 2.62 1.86 1.68 2.06 3.55 4.76 3.08 3.36 3.18 1.5 2.99.56 1.96 1.02 1.49 3.09-1.21 3.73-2.99 3.27-.65 1.03-1.69 2.52-.84 2.24-.84 2.8-.09 3.64.65 2.62.66 1.59-.56.18-3.46 1.5-2.61 1.12-.66.19-.75.18h-.28l-.37.1-1.12.18h-1.87v5.33l.09 1.21.19 1.21.28 1.78.75 3.36 2.33 9.71.38 1.31.28.65.28.66.47.65.65.19.75.09h1.68l1.49.19.84.28.38.47.37 1.3.28 4.67-.37 2.53-.1 16.99-46.14-.65-1.87.09h-5.88l-3.27.1-.37-.1-1.22-.09-.28-.09-11.11-.19-1.13 52.02-10.92-.19-10.93-.09-17.56-.1-28.4-.09-23.54-.28-22.6-.19.19-23.44.28-23.44.09-5.23-1.5-.09-9.06-.1h-7.94l-7.37-.18-6.08-.19h-.56l-14.19-.37-1.12-.1h-4.3l-21.77-.37h-8.12l-10.93-.09h-23.07v6.72l-.09 8.59-.1 9.25-.09 5.98-.09 6.07-.1 11.95v11.11l.1 2.43.18 2.24.1.84.18 2.15.28 3.46.1 2.33.09 2.24.09 2.24v6.73l-.09 2.33-.19 2.06-.18 2.52-.28 4.11-.38 3.36-.19 2.52-.18 2.52v.56z" stroke-linejoin="round"/></defs><use xlink:href="#r" fill="#09757a" stroke="#097d9b" stroke-width="5.76"/><defs><path id="s" d="M2203.45 2004.64l.19-21.1.37-32.6-.09-.18-.09-.19v-2.8l.09-9.62.09-28.77v-10.18l.1-1.77.65-37.17.28-11.77.19-1.86v-1.13h-23.82l.47-50.71-.66-51.83 1.5-38.38 1.49-38.48 5.51.37 18.4.28.47-26.61 45.21.84 46.24.75 11.95.18 13.36.19 13.45.19h.56v-1.31h1.96l4.67.09 25.5.37 9.9.19 10.74.1v1.3l-.28 25.78 23.36.47 23.35.37.28-25.87.09-1.4 1.31.09 5.79.19 11.77.09 6.26.1 11.39.18 2.43.1h.47l7.19.09 2.52.09 8.5.1 23.45.37h.74l1.5-.09 9.15.46h1.03l.09.56-.37.56h6.82l14.01 1.31 2.43.38v-.47l.93.18.47.19.37.1.28.09h.19l.37.19.75.18 1.4.66 1.59.65.65.28-.56-2.62-1.77-1.02h-.28l-1.96-.28-.56-.19-1.97-.56 2.06-.28.65.09h.19l20.92.47 3.27.09 10.65.19h.65l6.17.09h.47l2.14.1h12.61l5.52.18h.65l3.36-.09h1.96l1.4-.19 3.37-.84.65.19.94.19 1.58-.28.47-.28.37-.28.38-.1.37-.09.28.09.38.1.18-.28.28-.56.38-.84 1.02-1.78.66-.84.56-.75 4.57-4.39.84-.84.85-.65.37-.37 1.31-1.12.46-.47 1.03-1.12 2.06-2.62.09-.18 2.24-2.9 2.15-2.8-2.43-2.43 1.22-1.68-2.9-1.68-.09-.28 1.21.28.75.09h.84l.56-.09.37-.09.47-.28.09-.1.66-.56.37-.37.84-1.03 2.52 2.52 5.23 5.98 2.71 3.27 2.43 2.89 3.46 4.21 2.24 2.05 6.63 6.91.47 3.08-.84 2.15-10.46 5.79-2.62 3.08 1.59 2.52 8.22 3.83 4.48 4.02 3.36 8.59 1.69 8.13-.1 4.2-1.96 3.36-3.27 2.24-3.45.28-3.37-2.14-4.95-7.66-1.77-.75-2.24.19-1.31 2.89.37 3.46 1.87 5.04 8.31 11.21.56 5.41-2.42 3.74-7.48 6.35-1.49 5.14 1.12 6.07 2.8 3.64 7.01 5.88 2.24 3.55.37 2.52-1.21 2.99-3.36 2.34-4.49 2.14-3.36 2.99-1.87 3.74-.47 4.86.94 4.76 2.43 4.67 4.01 3.64 5.14 3.55 2.62 2.99 1.02 4.76-.93 3.46-3.08 3.45-4.58 2.34-2.52 2.05-.38 3.55 2.71 3.92 6.07 4.11 8.41 2.52 8.13-.18 6.16 1.3 5.23 1.59 5.23 3.64 3.74 5.33.37 3.64-.93 1.96-2.15 1.96-3.46.84-2.42 1.5-.47 3.26 2.52 3.37 6.45 5.51 5.23 5.51 2.24 4.67 1.59 5.51 1.02 8.59.38 9.34-1.5 6.72-.28 5.98.66 1.96.46 1.12 2.06 1.78 2.89 2.8 1.41 3.08-.85.09-12.98.75-1.96-.37-.19.09h-7.84l-6.54-.19h-.28l-1.96-.09h-1.03l-1.03-.19-1.87-.18-1.4-.1-1.02-.09h-2.99l-1.59.09h-1.03l-6.07.19h-.84l-1.31.09h-1.4l-2.05-.09h-8.22l-10-.09-35.59-.38v.75l-.65 49.4-10.37-.09-18.31-.28-18.21-.28-.09 4.48v7.19l-.1 4.49v4.2l-.09 1.59v.84l-.09 16.53-.19 12.79h-4.3l-4.2-.09h-4.76l-3.65-.09h-7.28l-1.96-.1h-5.05l-3.55-.09h-4.95l-1.12-.09h-3.08l-.84.09-.47-.09-.75.09h-.28l-6.63.09-2.15.1-2.52.09-4.11.09-8.22.28-12.33.19-1.21.09h-1.03l-7.75.1h-.75l-21.2-.75-2.06-.09-7.19-.19-4.48-.19-11.03-.28h-2.14l-11.12-.09h-32.88l-7.28-.19-22.52-.28-16.53-.19h-.84l-.75-.09-4.85.09-14.29-.09-14.48-.09-11.59-.1h-2.7l-16.54-.37-13.91-.37-10.28-.28h-2.43l-12.61-.28-10.27-.28-.56.09-18.96.56-3.37.09z" stroke-linejoin="round"/></defs><use xlink:href="#s" fill="#004249" stroke="#00465f" stroke-width="5.76"/><defs><path id="t" d="M2438.84 1643.78l-.28 25.87-23.35-.37-23.36-.47.28-25.78v-1.3l-10.74-.1-9.9-.19-25.5-.37-4.67-.09h-1.96v1.31h-.56l-13.45-.19-13.36-.19-11.95-.18-46.24-.75-45.21-.84.09-1.22.47-28.2-.09-4.39.09-8.97-.56-8.49v-.94l.09-1.21v-5.51l.1-1.12v-4.3l.28-10.93.18-14.66.1-4.48.09-2.71.09-7-24.75-.28-21.48-.19.09-2.34v-11.02l.1-11.11v-1.59l.18-25.77v-.75l.47-23.53.19-11.77.09-11.77.09-4.11 16.63.19 8.87.19 8.78.09h5.05l7.38.09v-4.29l.09-3.18v-1.03l.09-1.68v-1.21l.19-4.76.09-10.18.1-13.45.09-5.98v-4.3l.09-1.68.19-8.87.19-9.43v-2.43l.09-2.33.09-6.17.1-3.17.09-1.87v-2.9l.09-1.58v-1.12l.1-2.9.09-4.76.09-3.83v-4.2l.1-4.02.09-6.26.19-11.11v-.56l.09-.38.09-.84.28-1.96.1-.93.19-1.31-.38-.28.66-11.39.37-9.06 1.96.09h5.32l1.69.1h8.68l8.32.09 9.99.19 8.5.18h4.58l4.76.1 11.4.18h9.9l3.55.47 2.24-.28h9.06l1.68.09h1.21l.19.1h.84l1.12-.1h.84l18.5.66 31.85.46 36.33.56.19-.09h.19l.28-.09 8.78.09 7.75.09 20.55.19h2.62l1.21.09h4.3l.18.1 9.91.09.56.28 1.96.47 1.49.28h.66l.37-.1 1.59-1.02.18.09.19.09h.65l2.34.1 5.23.09h2.24l2.34.09h2.43l2.14.1 7.2.09h5.04l9.06.19.65-51.18.1-.56.18-21.67.1-8.4v-2.71l.09-7.01v-2.42l.1-9.53.09-19.33v-12.61l.09-5.23v-14.85l6.91.28 19.06.66 1.77.09 1.87.19.66.46 1.58.1h.56l2.62 5.88 2.33 5.42 2.43 4.67 2.24 2.7 2.81 2.99 3.64 3.08 2.8 2.06 4.3 2.8 2.71 1.68 3.27 2.62 2.33 2.05 1.87 2.52 1.49 2.9 1.69 4.76 1.96 6.54.65 2.52 1.31 5.7 1.77 14.47.66 15.79-.38 4.57.66 9.81 1.21 7.47.75 8.31.19 4.48-.66 5.14-2.15 5.7-2.99 6.82-1.4 4.85-.56 2.71-.46 2.15.18 1.87.1 1.49.93 3.74 2.34 4.1 2.89 2.71 1.68.94 7.66 1.02 3.46 2.43.75 1.87.18 2.43-.37 2.24-1.5 2.15-3.73 4.39-2.62 4.29-.37 2.06v2.52l1.03 3.73.56 2.62.37 1.68 1.96 7.94.66 3.64.18 2.62v2.7l-.28 5.51-.09 1.41.19 2.42.09 1.5.19 1.4.37 1.31.37 1.68.38 1.02.93 1.59.65 1.22.28.65.66.93.65.75.66.56.37.38.75.65 1.12 1.03.84.74.75.56.84.56 1.21.84 1.5.75 1.4.75 1.4.75 1.02.56 1.13.65 1.3 1.03 1.22 1.21.84 1.22.84 1.21.75 1.31.56 1.02.18.66.28 1.03.19 1.12.09.65.19.75v2.61l-.09 1.31-.28 1.4-.19 1.12-.28 1.22-.28 1.3-.47 1.12-.46 1.96-.47 2.06-.47 1.87-.56 1.77-.65 2.34-.56 2.42-.38 1.59-.28 1.68-.46 1.78-.47 2.43-.65 2.33-.28 1.21-.38 1.87-.56 1.87-.93 2.99-.75 1.96-.56 1.59-.56 1.68-.47 1.21-.56 1.59-.56 1.4-.47 1.5-.18.74-.38 1.96-.46 5.05 4.57 12.51-1.58 5.42-4.77 6.54-3.27 4.48-.65 5.04.75 3.18 5.13 5.41 10.65 8.78 3.27 8.97-.28 8.59-5.79 14.29-.28 2.43-.56 3.64 1.96 10.09 2.62 4.95 4.76 5.51 13.08 8.4 7 1.87 4.77.37.56.1 3.73 2.24 2.9 1.77.93 9.99-3.45 10.18-.1.1-.18.37v.37l-.28.47-.1.37v1.13l.28 4.85 3.36 5.89 7.1 5.41 5.7 3.27-.84 1.03-.37.37-.66.56-.09.1-.47.28-.37.09-.56.09h-.84l-.75-.09-1.21-.28.09.28 2.9 1.68-1.22 1.68 2.43 2.43-2.15 2.8-2.24 2.9-.09.18-2.06 2.62-1.03 1.12-.46.47-1.31 1.12-.37.37-.85.65-.84.84-4.57 4.39-.56.75-.66.84-1.02 1.78-.38.84-.28.56-.18.28-.38-.1-.28-.09-.37.09-.38.1-.37.28-.47.28-1.58.28-.94-.19-.65-.19-3.37.84-1.4.19h-1.96l-3.36.09h-.65l-5.52-.18h-12.61l-2.14-.1h-.47l-6.17-.09h-.65v-2.24l.09-3.83.1-3.64-2.71-.1h-3.64v-1.77l.09-1.87-3.18-.09h-4.85l.09.93-.09.56-.19-.37-.09-.65-.1-.47-2.8-.09h-3.08l.09-.47h-3.64l-2.62-.1.1-7h-1.87l-1.87-.09-3.36.09-.1 7v.29h-1.3l-.19-.19h-.75l-.28.09-1.12 1.12-.56.75 2.15 1.77h.19l.18.19.38.37 1.96 1.87.19.19.18.09.1.1h.65l-.28.46-.28.56-.28.47-.09.19-.1.09h-.75l-.46-.09h-.56l-.19-.1v-.84l-.09-.09v-.19l-.38-.56-.37-.56-1.96 1.78-.56-.1-.19-.09-.09-.19-.1-.18v-.75l.1-1.31-.1-.75.1-.56v-3.64l-5.89-.09h-1.3l-2.71-.1h-1.22v.47l-.09 3.92 1.49.1h1.4l.1-.1h.18l.57-.56 1.58-1.4-.09 2.43v5.42l-.09.18-.1.38-.37.56-.75-.66-.37-.37-2.06-1.68-1.96-1.68-.47-.37-.18-.1-.1-.09-.28-.09h-.18l-1.03-.1h-.37v-3.55l-.38-.74-.09-.28v-1.78h-3.46l-3.45.09h-.84l-4.95-.18v1.49l-.19.66-.09.65-.28.75v1.02l.09.47.28.47.56.65.65.66.47.28.37.18.47.1h2.43l-.09.93.28.65.46 1.4.28 1.41-.37 1.86h-1.03l-9.15-.46-1.5.09h-.74l-23.45-.37-8.5-.1-2.52-.09-7.19-.09h-.47l-2.43-.1-11.39-.18-6.26-.1-11.77-.09-5.79-.19-1.31-.09-.09 1.4z" stroke-linejoin="round"/></defs><use xlink:href="#t" fill="#004249" stroke="#00465f" stroke-width="5.76"/><defs><path id="u" d="M2457.99 1281.33h-.66l-1.49-.28-1.96-.47-.56-.28-9.91-.09-.18-.1h-4.3l-1.21-.09h-2.62l-20.55-.19-7.75-.09-8.78-.09-.28.09h-.19l-.19.09-36.33-.56-31.85-.46-18.5-.66h-.84l-1.12.1h-.84l-.19-.1h-1.21l-1.68-.09h-9.06l-2.24.28-3.55-.47h-9.9l-11.4-.18-4.76-.1h-4.58l-8.5-.18-9.99-.19-8.32-.09h-8.68l-1.69-.1 1.13-51.92-33.91-.1-11.21-.09h-.93l-6.08-.19h-.37l-18.31-.46-20.17-.75-46.52-.65v-1.69l.09-5.97.19-7.01.1-7.47.09-6.63.19-8.4.09-4.49v-1.4l.09-4.67.1-4.76.18-8.59.19-11.77.09-.65.1-8.13v-1.96l.28-14.85.09-5.79h-20.83l-.93-.09-.19.09-23.17-.28h-1.68l-.65 24.19-.28 7.75-.28 16.25-.09 3.27h1.68v.84l-.28 7.47-.28 9.25-.1 2.33v1.22l-.09 2.24-.09 3.45-.19 3.55-.19 6.91-.46 14.48-23.73-.66-6.91-.18-9.34-.28-4.02-.19h-1.96l-16.35-.56-6.07-.19-5.98-.18-12.05-.38-5.6-.28-8.41-.09-5.23-.09-3.73-.1h-5.89l-4.95-.18-7.94-.1-9.43-.18.75-51.93 1.02-51.93.94-46.78.09-5.89.09-1.96.19-8.03.28-14.85.09-6.44.28-15.6.1-2.62v-2.7l-.1-.1.1-1.68 1.31-49.78.84-52.2.09-9.81v-15.87l.37-26.9h.19l2.05.09 8.5.47 6.82.28 6.82.28 4.11.19 15.41.46 11.68.28 11.68.66 23.53.93 23.36.47 12.33.09 9.24.47.1-1.68.37-10.18.19-3.46.74-21.94.28-4.86.19-8.59v-1.5l1.59.1 1.59.09 7.28.37 7.75.47 4.02.28 23.73 1.21.84.1h.46l45.87.75 11.3.18h2.15l1.12-.09 31.76-.47 9.52.94 35.22.93 1.31-50.62.09-1.49 1.21-51.56.19-.65.84-45.2v-8.03l47.36 1.49 44.18.66h5.23l43.06.46 11.02.19 16.91.19 18.77.28 8.04.65 1.3.09-2.99 8.5-.46.84-4.39 5.42-5.51 5.7-3.65 5.23-1.3 1.96-.19 8.31 2.8 3.92 3.64 1.4 2.62-1.02 4.95-1.41 3.92-.93 1.68.28 4.67 2.34 3.65 5.23 1.4 7.09-.19 7.75-1.21 3.46-1.22 1.4-3.92 2.52-5.98.47-3.64.56-3.83.93-3.18 2.99-.09.1-1.68 2.8-.09 6.54 2.42 7.19 1.97 4.01.37 2.71 1.31 9.43.37 2.9.19 2.8 2.33 5.14 2.52 3.17 3.37 1.59 3.83 1.12 4.67-1.03 4.01-1.87 4.95-3.82 3.55-1.87 4.3-2.06 2.52-.84 4.39-.18 1.22.18 1.4.56 1.59.75 1.96 1.31 1.21 1.4.84.65.56 1.4.28 1.31.1 4.2-.1 1.68-.37 1.31-1.12 1.78-1.87 1.96-2.33 2.33-1.78 1.68-1.87 1.22-2.15.93-3.92 2.8-5.14 3.09-4.95 2.89-9.15 4.2-4.48 2.43-2.43 2.24-2.24 3.08-2.71 4.95-2.25 4.21-2.42 3.17-2.53 5.23-1.49 3.74-.28 3.08.28 3.55.84 2.05 1.4 1.22 2.15.93 1.87.19 1.87-.75 2.42-1.59 1.87-1.87 2.99-2.33 2.99-1.31 2.43-.18 4.3 1.21 6.07 2.15 5.32 1.4 3.55 1.12 2.43.75 2.71 1.58 1.03.84 1.86 1.13 1.03 1.3 1.31 1.59 1.03 2.43.09 1.68-.28 1.87-.65 2.15-.66 1.77-2.43 2.15-2.61 1.03-2.9.09-1.96-.56-2.8-1.78-2.9-1.68-3.55-1.58-1.12-.28-1.02.74-1.03 1.22.46 2.14 1.87 2.53 1.87 2.89 2.99 3.74 1.21 2.99.85 8.4.18 6.44 1.22 6.54 1.49 5.05.84 2.8.28 1.49.28 1.12 1.59 3.64 1.03 3.37.56.28 7.84 19.14 1.03 3.83.75 3.18.19 5.79-1.03 3.92-2.15 5.14-2.43 4.76-1.21 5.32.09.84.28 1.96.56 2.06 1.4 1.49 1.5 1.31 2.14 1.03 2.25.84 3.55-.47 2.52-.37 4.11-1.12 3.92-.75 1.68.09.75.38 1.21.56 1.5 1.21 2.61 3.08.94 3.36.37 3.83-.19 3.93.28 3.08.28 1.77.47 1.59.84 1.12 1.31 1.31 2.8 1.96 4.11 2.61 2.52 2.25 1.5 2.14.84 2.9-.47 2.24-1.12 2.71-1.31 1.49-1.86.94-5.61 1.4-4.39 2.24-1.77 2.24-.56 1.77-.19.85.93 1.77 2.9 1.4 7.1 1.59 2.61 1.49 2.81 2.15 1.86 2.8 2.34 5.42.75 3.36.28 3.74.37 4.11-.09 5.79-.94 7.93-.75 4.02-.74 2.71-.56 1.96-7.38 10.18-.84 2.33-.38 2.99.38 2.43 1.31 1.87 1.77.84 3.74.65h3.27l2.05.19 1.12.56 1.12.84 1.03 1.77.56 2.25 1.31 4.57 1.12 3.92 1.4 2.81 4.02 5.79 2.52 3.08 2.52 4.86.47 1.12.18.28h-.56l-1.58-.1-.66-.46-1.87-.19-1.77-.09-19.06-.66-6.91-.28v14.85l-.09 5.23v12.61l-.09 19.33-.1 9.53v2.42l-.09 7.01v2.71l-.1 8.4-.18 21.67-.1.56-.65 51.18-9.06-.19h-5.04l-7.2-.09-2.14-.1h-2.43l-2.34-.09h-2.24l-5.23-.09-2.34-.1h-.65l-.19-.09-.18-.09-1.59 1.02-.37.1z" stroke-linejoin="round"/></defs><use xlink:href="#u" fill="#004249" stroke="#00465f" stroke-width="5.76"/></svg>