<svg width="475.2" height="384" viewBox="0 0 3566 2880" xmlns="http://www.w3.org/2000/svg" xmlns:xlink="http://www.w3.org/1999/xlink"><path fill="#fff" d="M0 0h3566v2880H0z"/><defs><path id="a" d="M1758.26 1275.53l-2.12.56-8.58 1.67.11-.78.9-4.68.66-4.35 1.12-3.34 2.23-2.12 1.45-1.33 1.22-1.12 1.56-2v-3.68l-.33-3.79-.34-2.23.34-2.34 1.45-4.12 1.45-3.34 2.22-5.13 3.68-8.91 2.12-6.13 1.56-5.35 1.89-4.46 2.9-4.9 2.79-2.34 4.01-2.01 2.23-.78 2.11-1.45 1.68-2.45 1.33-1.67 1.12-1.89 1.45-2.01 3.56-3.9 1.34-1.78.89-.78 3.34-1.23.9-.55 2.45-2.23 1.22-.89 3.46-1.45 1.33-1.12 1.12-1.33 1.67-1.34 5.02-1.78 2.22-1.23 10.15-4.01 9.91-4.35 3.79-1.22 1.67-.78 1.12-.89 3.01-4.57.67-.56 1.78-.56 1.11-.78.56-.67 6.46-15.71.89-1.56 2.01-2.67 3.46-2.9.89-1.11.67-1.45 4.12-16.49.78-4.68.22-4.57v-2.79l-.33-2.11-.56-1.23-.89-1.34-.67-1.33-.45-1.79-.78-10.58.34-1.9.67-1.89 2.34-3.79.67-1.78v-4.02l-1.23-2.89-1.56-4.57-1.23-2.9-1.33-1.56-1.9-.56-2.56.67-.67-.67-.11-.55.11-1.45.67-1.12.89-.66.78-.12 2.56.45.9-.11h1.89l4.57 1.34h.89l2.34-1.01 1.11-1 .67-.89 1.56-3.57.9-.89.78-.22.66.11 1.23.56 1.23.89 1.67.67h6.57l1.56-.23 2.9-1.22 1.34-.34 2-.22h5.46l3.12-1.22 1.34-.9.89-1.22.56-2.34.22-2.01v-1.67l-1-3.68-.22-.78-1.68-4.01-.11-1.11.34-1.67.67-.78.89-.45 1.33.34 3.24 1.78 2.23.44.78-.11 1.44-.89 6.47-8.24 8.69-10.92 2.12-1.9 6.35-3.23 3.23-1.67 13.04-8.8 1.34-1.79.66-2 3.12-11.03 3.01-8.14 1.23-3.12 1.56-3.68 2.79-4.79 3.67-4.45 1.9-2.46.78-1.11 4.12-8.36.56-.89 1.89-2 4.01-3.68 1.45-2.01 2.12-4.68.67-1 2.56-2.23 2.68-2.12 1.11-1.44 2.12-3.24.78-2 1.67-6.46 3.57-14.94.11-1.22-1.67-11.37.11-1.33.44-1.68 1.23-2.89 1.22-3.57-.89-6.02-.89-2.56-.22-6.46-.34-2.12-.78-1.11-2.56-2.34-1.34-1.67-4.12-13.82-1.56-3.9-4.12-10.14-3.68-5.57-6.13-8.7-4.12-5.23-15.05-18.05-13.59-16.38-12.48-14.27-.56-1-1.78-2.9-2.23-2.23-3.35-2.45-3.23-3.67-3.79-2.57-4.12-3.34-7.02-4.79-2.9-2.45-1.67-1.9-3.12-2.89-1-.56-1.56-.45-2.34-.22-1-.33-1.01-.56-3.9-3.12-10.7-5.57-.89-1.23-1.89-4.46-.78-.78-1.79-1-1.89-.78-3.12-1.78-1.23-.22-.89.11-.89.33-1.34 1.34-2.67 6.13-1 1.45-3.79 3.45-6.8 6.24-2.01 2.9-1.89 3.56-6.69 14.6-1.67 4.68-2.45 9.36-1.45 3.68-1.45 2.34-1.11 1.67-4.68 15.82-1.12 1.12-.66.22-.67-.11-.56-.78-16.05-35.55-.22-1.89-.56-1.34-1.56-2.79-.44-1.11v-2.56l-.56-1.9-2.68-3.23-1-2.23-.56-2.34.23-2.45v-2.34l-.11-.89-.67-1.45-1.67-7.46.11-.9 1.22-4.79V700l.45-1.34.78-.56 3.34-1.67.45-.78.78-3.45.11-2.9-.11-.89-.67-1.11-1.12-.56-1.56-.22-3.23-.12-.67-.33-.44-.78-.11-1 .33-2.79 1.12-3.68-.12-1.89.23-1.78.55-1.01 3.68-3.78 4.57-3.9.78-1.68-.11-.66-1.45-2.46-2.34-4.45-1.67-4.01-1.34-1.45-.89-.56-1.78-.56-.67-.44-1-1.01-.78-1.22-.78-3.68-1.23-1.45-2.01-1.45-7.02-2.45-1.33-.67-1.9-1.67-1.56-.44-3.12-.67-1.67.22-6.46 2.23-1.23-.22-1.11-.67-1.12-1-8.91-12.48-.67-.56-1.23-.78-2.11-.67-.78-.67-1.79-2-3.34-4.35-.89-2.01-9.47-15.04-1.56-2.9-.56-3.9-.56-2.23-4.12-7.13-2.01-2.89-2.9-4.24-1.11-2.34-.22-1 .33-4.24-.33-1-1.67-3.68-.45-2.45-.56-8.02.45-1.34.56-1.33 1.56-5.58.44-1.78-.89-2.78-.11-.9 1.22-3.67 1.79-3.79 3.34-5.68.22-.34 72.55 20.39 18.5 4.79 9.14 2.46 5.46 1.78 29.08 8.13 11.81 3.12 16.16 4.68 13.04 4.91 75.89 20.5 6.46 1.89 12.6 3.68 12.92 3.57 25.74 8.02 1.9.33 9.69 1.45 58.17 15.83 7.92 2.11 3.12.89 43.35 11.82 33.87 9.24 40.45 11.26 9.14 3.01.89.44.56.45 6.35 1.45 1.34.22 2.01.67.78.44.89.67.44.89 1.34-.11h1l.45.11 1.67.56 1.34.34 6.46 1.89 2.9.89 5.35 1.45 4.68 1.34 9.69 2.78 29.09 8.81 45.13 13.59 20.95 6.02 15.27 5.01 37.66 11.03 52.82 15.38 1.79.56 7.69 2.23 20.61 5.79 18.95 5.35 30.2 8.58 36.44 14.6 137.85 38.77 86.8 24.41.9.22 1.11.33 1.45.45-4.01 4.57-4.46 5.01-3.9 4.46-5.01 6.13-2.79 3.34-1.45 1.9-3.45 4.56-2.34 3.46-5.46 8.02-2.12 3.23-3.23 5.35-2.12 3.79-1.34 2.56-4.12 7.8-2.23 4.35-.78 1.67-1 2.45-1.79 3.68-2.56 5.9-.89 2.01-2.56 7.24-3.35 9.7-2.11 7.02-2.68 9.36-1.22 5.12-1.45 5.91-2.9 13.26-1 4.57-.56 2.56-.67 2.34-3.34 12.48-1.01 4.01-1 3.12-1.34 4.12-2.56 6.91-2.78 6.91-2.79 6.91-3.01 6.8-3.23 6.57-3.46 6.46-3.67 6.36-3.79 6.01-1 1.45-2.9 4.12-1.34 1.9-1.11 1.56-1.23 1.78-1.11 1.45-2.12 2.79-3.68 4.79-1.89 2.23-7.02 8.58-7.69 9.02-2.57 2.9-3.67 4.23-9.59 11.59-7.24 8.81-3.57 4.01-2.11 2.56-1.45 1.67-2.12 2.23-.89 1.11-.67.9-1.23 1.33-1.56 1.9-1 1.22-3.68 4.35-2.34 2.9-5.35 6.57-3.9 4.68-7.13 8.91-3.34 3.9-4.68 5.24-1.34 1.45-1.34 1.56-5.01 6.46-.78 1.01-1.23 1.44-1.45 1.79-4.12 4.79-3.56 4.34-10.15 12.26-16.15 18.94-10.7 12.48-6.8 8.25-13.93 16.49-15.49 18.61-12.81 15.27-7.36 8.8-7.58 9.03-29.42 35.21-8.69 10.36-4.34 5.13-9.48 11.47-2.67 3.12-8.69 10.81-4.91 6.46-4.34 6.24-4.01 6.36-2.57 4.23-2.89 4.9-3.57 5.91h-4.01l-5.02-.11-3.56-.34-2.9-1.33-1.11-1.56-4.91.11-3.68-1.45-1.67.22-5.23-1.78-3.24-1.34h-4.45l-4.8-.22-6.9-.22-14.71.55-8.25-.22-3.46.33-17.27-.22-5.57-.33-3.45-.78-1.9-.78-4.46-2.23-7.46-4.68-.34-.56-1.45-.44-.55-.34-11.37-6.68-10.92-7.02-12.04-6.58-12.59-4.57h-1.56l-12.37-7.69-10.25-4.12-5.24-2.67-3.23-1.79-5.79-2.45-5.02-1.56-4.9-.78-10.14-1.11-15.38-1.12-4.01.34-9.59.89-3.9-.89-5.35.89-4.01.22-3.68-.44-2.89-.45.55-3.9 1.79-16.6.67-6.58 1.11-5.68 1.45-7.02v-6.13l.33-1.89 11.15-51.04 4.23-19.5.78-1.11-1.89-.11-7.69-.23-1.12-.11h-1.33l-16.61-.22-4.57-.22-1.67-.11h-.89l-1.23-.12-1.56-.22-2-.44-1.78-.45-8.36-2.12-3.57-.67-11.59-2.45-13.15-2.78-16.16-3.35-1.78-.44-1.45-.34-3.56 16.05-.23 1-2.56 12.04-1.23 4.9-5.34 23.07-6.02 27.97-3.01 6.01-.56.78-.89.89-.44.45-.67.22-.78.11h-1.34l-1.12-.22-5.01-3.12-3.9-2.34-4.9-2.78-1.45-.67-3.79-1.79-3.01-1.22-7.02-2.79-3.23-.78-1.56-.44-5.02-1.01-10.47-1.22-4.13-.11h-4.45l-1.79.11-9.36 1-4.68.89-7.57 1.9-8.36 1.78-9.81 5.57-5.35-13.93-1.89-5.12-.89-2.46-1.23-3.45-1.23-4.57-2.34-8.8-.89-2.9-.89-2.67-.78-2.01-1-2.67-.78-2.01-.89-2-3.23-6.69-1.01-2.12-1.56-3.12-1.11-2.11-1.56-2.9-2.23-3.23-3.23-4.24-1.9-2.34-5.12-6.91-.9-1-2.45-3.23-2.45-3.01-3.9-4.79-2.34-2.45-.78-.67-1.56-1.56-2.56-2.01-2.68-1.78-1.33-.67-1.45-.89-2.57-1.11-1.78-.67-2.12-.78-2.45-.67-2.23-.67-2 1.34-2.23 1.56-2.45 1.89-4.35 3.23-2.67.78-18.39 12.6-19.06 12.25-7.69 3.46-15.49 6.79-1.44.45-3.12 1.11-3.68 1.12-6.91 1.89-34.55 7.13-1.78.45z" stroke-linejoin="round"/></defs><use xlink:href="#a" fill="#9dc8ca" stroke="#6bb4d2" stroke-width="5.76"/><defs><path id="b" d="M2559.16 2788.29l-59.28 63.52-.23-1.23-.11-6.79.45-3.01-.45-1.9-.67-1-.33-1.11-.33-2.23v-2.57l-.78-1.78v-2.78l.44-1.12 1-.89.78-1.11 2.79-10.81.22-2.9 1.01-2.56 2-4.79 1.79-5.69.78-1.56 1.11-1.22 2.45-3.46.11-.78-.11-.78-.22-1-1.56-1.78-2.12-1.23-2.56-.89-1.9-.33-1.78-.12-2.23 1.01-4.12 3.45-1.45.67-1-.22-1.23-.78-4.35-1.12h-1.78l-1.22.23-5.58 5.01-.66.11-.78-.11-.78-.78-.23-.78v-1.67l4.35-14.04.67-1.34 2.78-3.79.45-2.11-.45-3.01-1.22-2.79-.34-.78-.78-.78-1.22-.89-2.23-1-.89-.78-.67-1.01-1.12-2.45-1.67-2.12-.33-1 .22-3.79.34-2.11.11-2.46-.45-1.78-1.22-3.56-2.57-5.91-.67-1.45-2.45-4.68v-.67l-1.34-15.93-.33-1.56-.78-2.01-1.56-2-5.24-4.35-4.79-3.56-1.67-.9-1.67-.66h-1.12l-1.67.33-4.46.67-3.23.89-1 .56-1.23 1.22-1.89 2.57-3.79 6.12-2.67 2.79-1.12.67-1.34.22-1.22-.11-.78-.22-3.34-3.01-1.34-.78-4.35-.56h-2.56l-1.78.34-1.56.44-.9.56-1 1.34-3.12 5.57-5.12 9.58-1.34 1.89-.56.56-2.45.89-2.68 1.67-1.56.56-2.67-.67-3.23-1.45-6.8-6.12-2.01-1.45-4.01-1.23-2.34-1.56-2.67-2.56-1.45-.89-4.46-1.9-7.24-2.23-5.02-2.45-1.89-.55-4.57-.78-1.34-.34-1.78-.44-2.79-.67-1.67-.67-2.34-.89-2.34-1.67-2.34-1.56-2-.78-1.9-.23-1.45-.44-1.89.44-2.56.34-5.35.44-6.47.56-4.68-.33-6.68-.9-5.69-1.44-7.13-2.12-1-.56-1-.33-1.79-.34-1.33-.11-1.34.22-.89.56-4.91.78-3.79.56-2.11.44-2.68-.22-11.14-1.34-4.79-.55-1.01-.23-.78-.11-.89.11-1.67-.11-3.12-.33-1.56-.34-1.23-.11-1.67.34-2 .55-1.56.67-2.23 1.12-1.23.33-1.33.22-1.79.12-2.11-.23-1.79-.55-1.34-.45-1.56-.56-1.89-1-1.89-1.34-1.68-1.22-1.67-1.01-1.67-.55-1.34-.34-1.33-.22-1.23-.22-1.22-.23-1.34-.33-1.79-.33-1.78-.12-1.22.12-1.45.22-1.9.11-2 .11-2.68-.22-1.78-.11-2.23-.45-1.67-.33-1.67-.34-1.67-.22-2.12-.11-2.56-.45-3.12-.67-2.79-.89-3.23-1.11-4.68-1.67-4.68-1.45-1.34-.67-5.35-2.01-3.23-1.22-2.79-1.23-3.12-1.45 3.68-16.82 1.67-7.47.67-3.01 1.11-4.56 1.01-4.02 1.89-8.24.34-.89.78-3.46.67-3.79.66-4.9.56-5.68.22-3.9v-5.24l-.22-7.02-.44-8.24-.23-2.68-.33-8.47-.34-10.14-.11-1.22-.11-3.12-.89-21.06-.22-3.46-.34-3.23-.33-2.34-.56-3.34-.78-4.57-.78-4.12-.89-4.24-.67-3.34-.56-2.68-.33-1.67-1.67-8.47-4.35-20.5-3.01-14.26-1.11-4.9-2.23-11.26-.67-2.9-1.67-9.02-.89-6.58-.23-1.44-1.11-9.03-.33-3.45-.34-3.46v-.89l-.11-1.11-.11-1.12-.11-1.56-.23-5.24-.22-7.91-.22-3.67v-5.91l.44-10.59.23-3.12.22-4.45.33-3.68.78-10.36 1.56-12.59.78-5.35.67-4.35.34-1.56 1.67-9.14 1.89-8.91 2.12-9.03 2.23-8.91 2.56-8.91 2.79-8.81.89-2.78.78-2.34 2.45-6.91 3.23-8.58 2.12-5.35.67-1.34.22-1.45 1.01-4.68.66-1.89.34-1.56.22-1v-1.34l-.44-1.12-.56-.66-.67-.56-1.23-.67-1-.22h-.56l-3.12.11-4.23.44-2.12.23-1.45-.11-1.22-.23-1.01-.44-.33-.45-.22-.56-.11-.55v-1.01l.22-1.67 1.56-.67 6.13-2.78 5.24-2.12 2.45-.78 1.67-.44 1.89-.23 1.56.11 10.14-20.83 6.91-11.03 3.01-5.13.56-1 3.57 2.11 4.23-6.9 7.24-11.26 4.01.34 1.12-1.9 4.35-5.9 6.12-11.93 5.24-9.36 1.67-2.89-.22-1.34 1.56-2.12.89-1.56 2.45-3.34 1.45-2.23 4.57-6.91 1.34-2.23.67-1.11.55-1.34.67-1.11 1.12-2.12 1.22-2.34.78-1.45 1.45-2.9.67.56 1.67 1.12 1.67-3.35.23-.67 1.89-3.23 1-1.89 2.34-4.46 2.12-4.57 2.45-6.13 3.9-10.02 1.34-3.35 5.02-12.59 2.56-6.68 1.22-3.12 2.23-6.02 3.12-9.47 2.01-6.36 1.45-4.68 1-3.34.22-.67.78-2.78 1.23-4.35 1.56-4.9 2.23-7.8 2.78-9.58 3.46-11.59 2.12-7.58 2-7.02 2.01-6.91.67-2.45 2.56-8.36 3.9-12.48 2.12-6.91 2-7.68 3.46-11.04 3.01-9.8 5.12-17.61 1.56-5.35 1.9-6.46 2.23-8.47 1-3.79 7.13-22.84 3.23-10.81 2.79-8.69.44-2 .34-1.12 2-7.8 1.01-3.57.89-3 1.22-4.02 1.34-4.9.89-3.12 2.79-8.8.89-3.12 5.68-19.39 5.46-18.16.56-1.9 1.78-5.79.9-3.46 3.12-12.14 3.79-15.94 3.56-16.15 2.23-9.81 1.56-8.24 1.23-5.24.78-3.23 4.01-17.61 2.23-9.58 2.34-10.81 3.9-17.27 3.45-15.49 1.12-5.24 1.33-5.79 2.68-12.04 6.24-26.74.89-4.35 1.45-7.57 1.89-7.69 1.12-4.01 1-3.79.78-2.34 1-2.9.89-2.67 1.23-3.46 1.45-4.01 2.67-6.91 2.9-7.02 3.12-7.02 3.23-6.91 3.35-6.79 1-1.9.78-1.33.78-1.34 3.57-5.91 2.89-4.9 2.57-4.23 4.01-6.36 4.34-6.24 4.91-6.46 8.69-10.81 2.67-3.12 9.48-11.47 4.34-5.13 8.69-10.36 29.42-35.21 7.58-9.03 7.36-8.8 12.81-15.27 15.49-18.61 13.93-16.49 6.8-8.25 10.7-12.48 16.15-18.94 10.15-12.26 3.56-4.34 4.12-4.79 1.45-1.79 1.23-1.44.78-1.01 5.01-6.46 1.34-1.56 1.34-1.45 4.68-5.24 3.34-3.9 7.13-8.91 3.9-4.68 5.35-6.57 2.34-2.9 3.68-4.35 1-1.22 1.56-1.9 1.23-1.33.67-.9.89-1.11 2.12-2.23 1.45-1.67 2.11-2.56 3.57-4.01 7.24-8.81 9.59-11.59 3.67-4.23 2.57-2.9 7.69-9.02 7.02-8.58 1.89-2.23 3.68-4.79 2.12-2.79 1.11-1.45 1.23-1.78 1.11-1.56 1.34-1.9 2.9-4.12 1-1.45 3.79-6.01 3.67-6.36 3.46-6.46 3.23-6.57 3.01-6.8 2.79-6.91 2.78-6.91 2.56-6.91 1.34-4.12 1-3.12 1.01-4.01 3.34-12.48.67-2.34.56-2.56 1-4.57 2.9-13.26 1.45-5.91 1.22-5.12 2.68-9.36 2.11-7.02 3.35-9.7 2.56-7.24.89-2.01 2.56-5.9 1.79-3.68 1-2.45.78-1.67 2.23-4.35 4.12-7.8 1.34-2.56 2.12-3.79 3.23-5.35 2.12-3.23 5.46-8.02 2.34-3.46 3.45-4.56 1.45-1.9 2.79-3.34 5.01-6.13 3.9-4.46 4.46-5.01 4.01-4.57 4.35 1.23 2.45-2.79 2.78-3.01 1.9-2.12 5.35-5.9 3.23-3.68 2.56-3.12 2.34-2.56 8.36-8.81 3.34-3.56 5.13-5.68 14.49-15.72 4.68-5.12 3.12-3.57 23.95-26.41.34-.33 4.68-5.01 4.68-5.24 9.14-10.03 9.02-9.81 4.24-4.68 4.79-5.01 5.68-5.57 5.58-4.79 4.68-4.13 3.79-3.12 2.45-1.78 1-.78 4.46-3.23 2.56-1.78 4.68-3.23 4.57-2.79 2.45-1.45 2.34-1.34 3.79-2 2.23-1.23 2.23-1 10.81-5.57 2.11-1.12 6.47-3.34 15.49-7.69 9.36-4.68 10.25-5.35 14.26-7.68 1.45-.78 9.92-5.8 5.02-2.67 10.47-5.69 1.67-.78h3.79l5.57.12 7.02.22 2.12 1.22 1.56.67 5.8 1.45 5.35 1.45 7.13 1.89 1.78.45 2.12.45 1.67.55 7.69 2.12 2 6.13 4.8 13.48 21.17 76.11-14.71 12.48-2.9 3.34-.44.22 22.84 16.72 7.8 18.16 174.51-34.99 13.6-2.78 2.56-.78 119.69-26.08-4.8 29.08 7.92.12 4.45 1.78.67 5.35.34 10.58.11 1.12-2.9 9.02-.22 7.36-2.34 5.35-3.68 4.79-4.79 2-6.13-2.78 8.24 101.73-6.46 85.13-5.57 17.5-29.31 6.68-3.34.78-10.14 91.15-24.41 216.62-2.89 17.5-1.23 7.13-1.11 7.02-3.46 20.06-1.11 6.79-1.56 9.7-4.24 25.18-5.35 32.09.45 32.43-2.79 14.26-4.46 22.62-8.24 9.14-.34 4.45v5.91l.45 3.23.45 1.34 1.89 2.78 2.79 2.57.78 1.45.44 1.78-.56 4.68-.11 1-.11 4.35-.22.55-1.56 3.68-2.56 6.69-1.45 5.79-.11 2.01.33 2.78.22 1.56-.55 2.68-.78 1.78-.9 1.56-.78 1.23-.78 3.12-.11 1.78.67 5.24.11 1.11.45 1.78.11 1.56-.33 1.23-1.12 1.78-.89.89-2.34 1.68-2.45 1.89-.67 1-.22 1.23.22.67 1.78 1.67 3.57 3.12.33.78-.55 1.67-.67 1-.34 1.12-.44 2.78-1.12 2.57-2.67 5.12-3.12 5.57-2.57 5.24-.22 1.34.34 1.11 1.67 2.56.67 1.45 1.78 6.02 3.68 5.79.22.45-.11.56-1.79 2-1.78 2.34-1.22.67-2.57.34-2.34-.9-1.33.34-1.45.33-2.57 1.12-1.22.78-.89.78-.67 1-.45 1.11-.22 1.34v.89l.56.56.55-.11.45.33.11.67-.11.89-1 2.45-.78 1.45-1.45 1.45-.23.78.12.56.55 1 3.9 1.12.56.66.34 2.68-.12 3.12.23.67 1.22 2.56 1.12 1.56 2 6.13.11 5.35-.55 4.9-1.01 5.35-1 6.57-1.11 5.02-3.46 10.36-.89 2.45-1.89 8.14.11 3.45-.56 2.12-.67.78-.67.22-2.11-.67-1.56-.56h-.45l-1.11.67-.78.89-.34.78-1.22 6.24-.9 2.34-1 .9-.33.11-.89-.34-1.12-1.11-.44-.11-.56.11-.56.33-.56 1.45-.11 1.12.11 2.11-.44 1.01-.67.66-2.68.9-.44.66-.34 1.34.45 2.56-.45 2.01-1 1.34-9.02 7.46-5.02 4.79-1 1.12-.34.33-1.45 3.23-.44 1.34v1l.78 3.9.56 1.01.89.89 1.89 1.11 1.34 1.34.56.78.55 1.45.56.78 2.01 1.78 1.22 1.34.78 1.78 1.9 8.03.55 4.34-.33 2.56-.22 1.23-1.56 4.57-1.56 3.34-1.12 2.12-3.68 5.01-.78 1.67-1 3.68v2.23l1.56 6.24 1.12 5.01 2.34 3.24.67 1.89v2.23l-.56 3.9-2.12 7.69.22 1 .78.56.67.78.45 3.34v2.12l-.56 2.11-2.23 5.24-.44 1.45-2.12 16.05-1.56 5.57-1.23 3.79-.67 2.78-1.22 6.13-.78 2.01-.89 1.22-.78.34-6.8-.23-2.12 1.12-1.34 1.45-2.22 2.89-1.56 3.01-3.24 10.48-.33 2.89.78 7.36-.22 1.11-.89 1.45-1.23 1.67-1.56 1.67-2.01 2.9-.89 2.56-.55 2.79-.45 3.9 1.23 12.48 1.67 12.92 5.79 49.81-.44 1.12-.56 1.78-.56 1.78-.44 1.56-.45 1.56-.78 2.34-.45 1.79-.66 1.78-.9 2.56-.55 2.12-.78 3.12-.67 3.01-.45 3.12-.44 3.12-.34 2.45-.22 2.45-.11 3.68v4.01l.11 3.68.11 11.7.56 8.91.22 2.34.11 2.9.23 1.45.11 1.56.22 1.11.33 1.23.45 2 .56 1.9.55 1.78.45 1.78.56 2.01.67 3.56.55 3.01.23 1.56.22 1.56.11 1.23.11 1.34.11 3.78.23 4.57.11 4.24.22 3.45.11 3.34.11 2.79v2.12l.11 1.45v1.22l-.11 1.34v5.24l.23 3.12.22 2.78.22 2.68.22 1.56.12 1v.89l-.12.89-.22 1.12-.33.78-.34.55-.55.67-.78.78-1.12.89-2.12-3.67-2.34-4.13-1.78-2.89-1.56-2.23-1.67-1.9-1.78-1.67-1.79-1.34-1.89-1.11-1.9-.89-2-.67-2.01-.45-1.89-.11-2.34.11-2.57.34-3.12.67-12.25 4.12-4.02 1.11-2.56.45-2.67.22-19.17 25.74L3110 2379.57l-8.03 14.71-5.79-4.23.67-13.38-.22-2.89-5.47-7.13 19.06-86.7-10.7-24.62-3.12-7.02-99.51-81.23-45.8 54.37-3.23 12.71-3.01.22-4.79.44-3.9 2.79-4.91 4.23-3.01 3.46-1.78 1.78-3.23 4.79-1.23 2.79-1.56 3.23-1 3.23-2.01 1.67-2.89 2.01-39.79 47.47-9.02 16.49-110.88 106.97-22.96 22.06-.22-.89-.67-3.56-.45-3.57-.33-3.79-.11-4.57.22-8.58.45-10.36.44-6.91-2.45 1.34-5.57 3.9-7.69 5.46-18.83 13.04-3.01 2.11-.45-.55-4.57-6.24-4.9-6.02-5.13-5.91-5.23-5.68-.34-.44-20.39 39.89-5.69 11.25-13.26 25.85-2.34 7.25-7.69 25.07-3.67 51.03-8.47 81.46-6.91 19.05.11 31.65-18.94 50.81-16.27 17.38-10.37 11.03z" stroke-linejoin="round"/></defs><use xlink:href="#b" fill="#9dc8ca" stroke="#6bb4d2" stroke-width="5.76"/><defs><path id="c" d="M2139.82 2672.96l-2.45-1.56-1.45-.89-1.45-1.22-3.79-2.9-1.89-1.67-1.78-1.12-1.23-.89-1.89-1.89-1.67-1.9-1.56-2-1.12-2.23-2.45-4.68-1.23-1.56-.89-.67-.78-.33-.89-.34-1.23-.22-2-.33-1.67-.67-2.34-.89-2.01-1.34-1.11-1-2.9-3.68-.89-2.23-.11-.33-.34-.67-.33-.67-.34-.78-.78-1.9-.22-1.11v-3.45l-.11-2.9-.33-2.34-.12-1.56-.11-3.34-2.12-8.58-2.34-8.7-.11-.44-.33-1.67-.11-1.12-.11-.55-.34-.56-.67-.89-.33-.56-.34-.89v-1.56l.12-.89v-.56l-.23-.67-.44-1.45-1.34-2.23-1.34-2.22-3.67-4.35-5.91-5.68-3.01-3.01-2.01-1.56-.89-.56-3.67-2.34-2.57-1.45-1.67-1.11-3.57-2.79-1.78-1.67-1.67-1.78-.78-1.12-1.11-1.67-.67-1.67-.67-3.34-1.12-2.01-3.34-2-1.34-1.01-2.67-2.67-1.45-2.34-2.34-3.45-1.45-3.24-3.23-8.91-7.8-17.94-2.23-3.34-2.9-2.9-.33-.45-2.9-4.23-1.67-2.9-.56-2.34-.89-7.02-1.67-9.58-2.01-4.9-3.9-6.58-6.24-7.91-3.01-3.68-.89-.22-1.45.11-1.22.56-6.24 3.45-18.28 9.92-1.78.22-.56-.11-.67-.56-.11-.78.11-.55.56-1.01 2.23-1.67 8.91-4.57 8.92-4.12 6.57-3.01.67-1.33-.22-1.12-.45-1.34-.11-1.11v-4.46l-.11-2.56.22-1.11.67-7.02 1.34-3.9.67-1.12.89-1 1.45-1.12 8.13-4.23.78-1.34.56-1.56.34-2.67-1.34-21.17-.34-3.46-.78-3.67-9.13-25.97v-1.22l.66-3.9.12-3.01.55-2.23v-1l-2-7.25-1.79-2.89-5.9-7.91-1.23-1.79-2.23-2.45-3.12-2.45-2.34-2.12-7.8-10.36-3.68-5.91-9.69 3.35-31.98 8.58-2.45.55-6.69-45.35-9.36-44.12-12.71-46.36-24.51-89.7-5.46-20.17-7.25-25.96-13.81-49.81-2.23-8.25-13.49-41-17.49-53.26-7.36-24.07-1.22-5.46h-2.68l-2.45-10.81-2.67-17.27-1.01-13.71-10.25-4.34-1.22-4.57-9.36-36.55-18.17-115.44-38.45-138.73-1.67-8.69-1.33-4.91-14.94-50.36-36.99-147.54 1.56-11.58-.34-1.12 14.15-3.23.9-.11 49.14-10.59 15.04-3.56 3.79-.67 8.58-1.67 2.12-.56 1.78-.45 34.55-7.13 6.91-1.89 3.68-1.12 3.12-1.11 1.44-.45 15.49-6.79 7.69-3.46 19.06-12.25 18.39-12.6 2.67-.78 4.35-3.23 2.45-1.89 2.23-1.56 2-1.34 2.23.67 2.45.67 2.12.78 1.78.67 2.57 1.11 1.45.89 1.33.67 2.68 1.78 2.56 2.01 1.56 1.56.78.67 2.34 2.45 3.9 4.79 2.45 3.01 2.45 3.23.9 1 5.12 6.91 1.9 2.34 3.23 4.24 2.23 3.23 1.56 2.9 1.11 2.11 1.56 3.12 1.01 2.12 3.23 6.69.89 2 .78 2.01 1 2.67.78 2.01.89 2.67.89 2.9 2.34 8.8 1.23 4.57 1.23 3.45.89 2.46 1.89 5.12 5.35 13.93 9.81-5.57 8.36-1.78 7.57-1.9 4.68-.89 9.36-1 1.79-.11h4.45l4.13.11 10.47 1.22 5.02 1.01 1.56.44 3.23.78 7.02 2.79 3.01 1.22 3.79 1.79 1.45.67 4.9 2.78 3.9 2.34 5.01 3.12 1.12.22h1.34l.78-.11.67-.22.44-.45.89-.89.56-.78 3.01-6.01 6.02-27.97 5.34-23.07 1.23-4.9 2.56-12.04.23-1 3.56-16.05 1.45.34 1.78.44 16.16 3.35 13.15 2.78 11.59 2.45 3.57.67 8.36 2.12 1.78.45 2 .44 1.56.22 1.23.12h.89l1.67.11 4.57.22 16.61.22h1.33l1.12.11 7.69.23 1.89.11-.78 1.11-4.23 19.5-11.15 51.04-.33 1.89v6.13l-1.45 7.02-1.11 5.68-.67 6.58-1.79 16.6-.55 3.9 2.89.45 3.68.44 4.01-.22 5.35-.89 3.9.89 9.59-.89 4.01-.34 15.38 1.12 10.14 1.11 4.9.78 5.02 1.56 5.79 2.45 3.23 1.79 5.24 2.67 10.25 4.12 12.37 7.69h1.56l12.59 4.57 12.04 6.58 10.92 7.02 11.37 6.68.55.34 1.45.44.34.56 7.46 4.68 4.46 2.23 1.9.78 3.45.78 5.57.33 17.27.22 3.46-.33 8.25.22 14.71-.55 6.9.22 4.8.22h4.45l3.24 1.34 5.23 1.78 1.67-.22 3.68 1.45 4.91-.11 1.11 1.56 2.9 1.33 3.56.34 5.02.11h4.01l-.78 1.34-.78 1.33-1 1.9-3.35 6.79-3.23 6.91-3.12 7.02-2.9 7.02-2.67 6.91-1.45 4.01-1.23 3.46-.89 2.67-1 2.9-.78 2.34-1 3.79-1.12 4.01-1.89 7.69-1.45 7.57-.89 4.35-6.24 26.74-2.68 12.04-1.33 5.79-1.12 5.24-3.45 15.49-3.9 17.27-2.34 10.81-2.23 9.58-4.01 17.61-.78 3.23-1.23 5.24-1.56 8.24-2.23 9.81-3.56 16.15-3.79 15.94-3.12 12.14-.9 3.46-1.78 5.79-.56 1.9-5.46 18.16-5.68 19.39-.89 3.12-2.79 8.8-.89 3.12-1.34 4.9-1.22 4.02-.89 3-1.01 3.57-2 7.8-.34 1.12-.44 2-2.79 8.69-3.23 10.81-7.13 22.84-1 3.79-2.23 8.47-1.9 6.46-1.56 5.35-5.12 17.61-3.01 9.8-3.46 11.04-2 7.68-2.12 6.91-3.9 12.48-2.56 8.36-.67 2.45-2.01 6.91-2 7.02-2.12 7.58-3.46 11.59-2.78 9.58-2.23 7.8-1.56 4.9-1.23 4.35-.78 2.78-.22.67-1 3.34-1.45 4.68-2.01 6.36-3.12 9.47-2.23 6.02-1.22 3.12-2.56 6.68-5.02 12.59-1.34 3.35-3.9 10.02-2.45 6.13-2.12 4.57-2.34 4.46-1 1.89-1.89 3.23-.23.67-1.67 3.35-1.67-1.12-.67-.56-1.45 2.9-.78 1.45-1.22 2.34-1.12 2.12-.67 1.11-.55 1.34-.67 1.11-1.34 2.23-4.57 6.91-1.45 2.23-2.45 3.34-.89 1.56-1.56 2.12.22 1.34-1.67 2.89-5.24 9.36-6.12 11.93-4.35 5.9-1.12 1.9-4.01-.34-7.24 11.26-4.23 6.9-3.57-2.11-.56 1-3.01 5.13-6.91 11.03-10.14 20.83-1.56-.11-1.89.23-1.67.44-2.45.78-5.24 2.12-6.13 2.78-1.56.67-.22 1.67v1.01l.11.55.22.56.33.45 1.01.44 1.22.23 1.45.11 2.12-.23 4.23-.44 3.12-.11h.56l1 .22 1.23.67.67.56.56.66.44 1.12v1.34l-.22 1-.34 1.56-.66 1.89-1.01 4.68-.22 1.45-.67 1.34-2.12 5.35-3.23 8.58-2.45 6.91-.78 2.34-.89 2.78-2.79 8.81-2.56 8.91-2.23 8.91-2.12 9.03-1.89 8.91-1.67 9.14-.34 1.56-.67 4.35-.78 5.35-1.56 12.59-.78 10.36-.33 3.68-.22 4.45-.23 3.12-.44 10.59v5.91l.22 3.67.22 7.91.23 5.24.11 1.56.11 1.12.11 1.11v.89l.34 3.46.33 3.45 1.11 9.03.23 1.44.89 6.58 1.67 9.02.67 2.9 2.23 11.26 1.11 4.9 3.01 14.26 4.35 20.5 1.67 8.47.33 1.67.56 2.68.67 3.34.89 4.24.78 4.12.78 4.57.56 3.34.33 2.34.34 3.23.22 3.46.89 21.06.11 3.12.11 1.22.34 10.14.33 8.47.23 2.68.44 8.24.22 7.02v5.24l-.22 3.9-.56 5.68-.66 4.9-.67 3.79-.78 3.46-.34.89-1.89 8.24-1.01 4.02-1.11 4.56-.67 3.01-1.67 7.47-3.68 16.82z" stroke-linejoin="round"/></defs><use xlink:href="#c" fill="#6bacaf" stroke="#097d9b" stroke-width="5.76"/><defs><path id="d" d="M1683.71 2461.69l-8.47-1.11-170.5-13.15-63.41-3.79-1.67-1.11-.56-.56-.55-1.22-.23-1.79.45-4.9 7.24-38 4.13-31.2 2.11-16.15 2.23-21.96 2.23-35.99-.44-5.35-.78-12.92-.23-23.4-.55-10.03.22-14.6-.67-1.45-.22-2v-2.34l.67-4.13v-2.11l.55-2.45v-3.12l-.44-3.68-1.23-6.91-.78-2.9-1.89-10.36-1.9-5.13-.33-1.89.55-2.9v-1.22l-.33-.89-.56-.34-.89-1.22-.22-1.68-.78-14.15-1.45-9.25-3.45-11.7.11-1.67.78-4.23-.23-2.45-1.22-5.69-3.01-5.34-6.8-15.38-2.12-4.12-1.22-3.24-1.12-3.67-.78-3.79-3-21.06-2.57-10.59-6.68-20.17-1.56-3.12-1.34-4.12-2.79-4.35-3.34-4.12-1.45-3.01-14.26-39.11-2.23-5.35-2.45-7.91-5.58-25.52-1.44-4.01-1.45-2.56-2.45-2.56-1.01-1.23-.44-1.67-.11-2.01.66-4.01.56-2.45.22-3.01v-.67l-.33-1.44-1.78-3.57-.78-2.45-3.57-15.82-1.11-10.26v-5.9l-.67-3.23-9.36-26.86-7.69-26.96-8.69-33.43-.9-3.79-26.96-87.47-2.23-5.24-4.35-5.13-1.67-2.56-1.45-3.12-2-7.13-4.8-9.25-1-1.67-5.01-11.92-3.79-8.25-13.15-31.31-3.57-10.03-3.12-7.69-1.11-3.67-.67-1.56-1-1.45-6.58-12.04-1.67-4.9-2.79-3.01-1-.89-1.34-1.9-2.11-4.68-17.17-36.43-1.56-4.01-1.44-2.9-5.46-7.24-1.12-2.46-.56-2-4.9-12.59-1.56-2.9-3.79-4.68-4.12-5.46-1.78-4.12-1.45-5.91-1.23-2.67-9.03-15.05-7.46-11.47-1.12-2.12-1.33-2.12-1.12-1.22-8.8-8.47-3.12-3.46-1.67-2.89-6.58-13.6-1.34-2-3.12-3.68-1.78-2.9-1-1.56-.56-1.45-.78-4.01-.78-2.34-4.46-6.46-8.35-11.92-13.27-18.83-6.12-10.37-15.38-22.28-51.04-69.87-4.12-6.02-6.58-8.24-2.45-3.46-21.17-26.29-12.26-15.05-17.39-20.72-16.49-22.18-30.76-44.12-33.32-39.12-11.7-12.36-5.68-6.02-17.38-19.28-1.79-1.89-15.82-16.05-32.21-31.2-29.86-32.42-5.57-3.79-1.01-1.01-2.45-4.45-1.78-1.67-5.35-4.02-4.57-4.01-9.36-10.81-.89-.44-2.56-.89-.9-.45-1.78-2.12-3.79-3.9-8.02-8.46-1.45-1.34-3.57-2.34-3.23-1.45-1.34-1.11-2.11-2.23-3.79-3.23-2.01-2.79-4.9-4.46-4.79-4.12-3.12-2.9-3.9-3.23-5.02-5.24-4.57-5.57-2.11-2.11-4.57-3.24-6.13-5.35-6.02-4.12-2.01-3.12-.78-.89-17.49-13.37-4.68-3.9-1.67-1.56-3.23-3.68-5.35-5.79-3.46-3.12-4.34-2.68-6.02-4.68-5.24-3.34-2.23-1.11-4.34-1.79-3.12-1.78-5.35-4.23-2.46-1.34-3-1.12-1.34-.11-.89.23-4.01 1.78-1.01-.22-1-.67-.11-.67-.56-1.34-.89-.56-.22-.78.55-2.67v-1.34l-.33-.67-.33-.22-.56.11-8.69 6.8-.67.33-1.12-.33-.89-.89-.78-1.45-1.67-1.56-.45-.56.34-1.11 3.23-3.79 1.11-3.01 1.34-2.34 2.01-5.35.44-2.23v-3.12l1.01-5.68-.12-1.78-.44-.67-.45-.22h-.44l-1.9 2-.44.11h-.56l-.45-.44-.55-2.45.78-3.01 2.34-4.79 1.11-3.01.34-2.01-.12-1.11-.22-.78-.44-.67-1.56-1.11-2.12-.67-1.34-1.45-.33-.89-.34-1.56-1-3.57-.78-1.89-2.12-3.01-3.01-2.56-.33-1.12-.34-1.67-.11-3.23-.44-1.67-.78-1.79-3.68-3.34-.45-.78-.66-2.78-.67-1.45-1.67-2.01-.56-1.11-.45-1.9-.55-.78-.78-.78-1.9-1.45-.89-.89-1.45-2.67-1.23-1.67-1.33-2.12-.78-2.67-.56-1.12-1.56-1.89-4.01-3.01-9.7-11.26-2.34-3-1.89-2.34-2.79-2.68-3.9-4.12-5.35-7.36-3.12-3.45-.55-.89-.34-1.12.45-3.56v-1.12l-.56-.89-1.23-.55-.66.22-1.34 1h-.89l-.67-.22-.67-.89-.67-1.67-.33-3.46-.23-1-.44-.34-1.78-.66-1.34.11-.89.22-2.68 2.01-.78.33-.78-.22-.33-.34-.34-.67.11-2.78-.22-.89-.56-.45-2.56-1.56-1.56-1.22-4.12-6.13-1.9-2.45-1.11-1.01-1.45-.67-1.67-.44-1.56-1.12-1-1-2.01-2.23-.78-1.34-.56-1.56-2.45-3.78-.56-1.79-.55-.89-.78-.44-1.9-.23-.78.11h-.89l-.89-.33-4.12-4.12-1.9-1.34-1.34-1.45-2.34-3.9-.55-1.34-.67-1-.67-.44-2.01-.45-3.34-.22-1.11-.34-1.12-.55-.89-.78-1.56-2.57-1.56-1.33-2.01-2.68-.66-1.34-.56-.78-1.67-1.22-2.01-1-2.67-1.79-1.01-1.22-.78-2.12-1.22-2.12-.78-.89-.89-.44-5.24-2.34-3.34-2.12-5.13-2.9-.89-.78-2.23-3.79-1.78-1.33-3.57-2.46-1.45-1.78-.89-2.78-.45-1.12-.55-.78-3.57-2.23-1.56-2-3.68-2.23-.78-.89-1.22-4.24-.67-1-.89-.56-.67-.22-1.34-1.11-3.56-6.24-10.26-9.03-2.11-1.67-.89-2.01-1.12-1.22-1-.45-1.9-.22-1-1-.67-2.12-1.11-1.23-1.34-.89-3.57-1.34-3-.33-.67-.33-16.05-14.6-8.8-7.8-13.49-11.81-21.73-19.61-21.39-18.17-19.39-17.49-8.14-6.69-4.57-3.45-6.13-5.91-7.46-4.68-2.01-2.11-1.23-2.12-1.22-1.34-1.78-1-1.9-.45-1.89.34-2.79-.34-2.9-1.11-2.11-.45-2.9 1.23-1.23.22-.78-1.67-1.22-4.35-.89-1.78-.9-1.22-.89-.67-2.34-1.23-2.34-2.56-1.33-2.45-1.34-.9h-3.01l-1-.22-2.57-2.45-1-.67-1.78-.56-1.01.12-1.44-.56-1.9-1.12-1.67-1.44-3.79-2.34-4.79-3.24-12.82-7.24-3.23-1.67-18.83-7.24-2.12-1.12-16.05-5.35-4.68-.55-4.01-1.12-1.45-.67-1.56-1.22-1.89-2.45-.78-1.56-2.45-10.7-4.57-22.06-5.35-22.62-5.68-22.85-4.91-15.71-26.74-1.56-15.6-87.91L34.88 28.3l9.58 3.46 5.02 1.78 6.46 1.11 10.59 2.57 30.98 12.03 6.8 1.67 1.56.67 12.81 3.23 2.79.89 3.12.78 1.56.34 1.33.22 4.24.89 39.78 11.15 2.68.78L189 73.65l10.36 2.9 7.25 1.78 36.99 9.81 18.17 4.79 48.69 13.04 27.53 7.24 23.74 6.24 43.35 10.92 13.48 3.23 2.79.78 7.35 4.35 55.27 17.05 8.58 2.67 10.7 3.35 46.25 14.26 53.38 16.49 23.73 7.24 61.52 20.39 3.56.9 54.72 14.48 94.94 25.18 6.8 1.79 12.93 3.23 17.16 5.57 126.26 38.11 6.57 1.89 36.22 10.59 27.86 7.91 7.8 2.45 9.81 2.9 159.35 46.8 182.2 52.59 31.65 9.48 15.82 4.68 113.89 33.2 14.04 3.68 4.13 1.78 6.57 1.78 1.34.45 13.6 3.79 55.94 16.16 24.96 8.35 18.94 5.35-.22.34-3.34 5.68-1.79 3.79-1.22 3.67.11.9.89 2.78-.44 1.78-1.56 5.58-.56 1.33-.45 1.34.56 8.02.45 2.45 1.67 3.68.33 1-.33 4.24.22 1 1.11 2.34 2.9 4.24 2.01 2.89 4.12 7.13.56 2.23.56 3.9 1.56 2.9 9.47 15.04.89 2.01 3.34 4.35 1.79 2 .78.67 2.11.67 1.23.78.67.56 8.91 12.48 1.12 1 1.11.67 1.23.22 6.46-2.23 1.67-.22 3.12.67 1.56.44 1.9 1.67 1.33.67 7.02 2.45 2.01 1.45 1.23 1.45.78 3.68.78 1.22 1 1.01.67.44 1.78.56.89.56 1.34 1.45 1.67 4.01 2.34 4.45 1.45 2.46.11.66-.78 1.68-4.57 3.9-3.68 3.78-.55 1.01-.23 1.78.12 1.89-1.12 3.68-.33 2.79.11 1 .44.78.67.33 3.23.12 1.56.22 1.12.56.67 1.11.11.89-.11 2.9-.78 3.45-.45.78-3.34 1.67-.78.56-.45 1.34v1.89l-1.22 4.79-.11.9 1.67 7.46.67 1.45.11.89v2.34l-.23 2.45.56 2.34 1 2.23 2.68 3.23.56 1.9v2.56l.44 1.11 1.56 2.79.56 1.34.22 1.89 16.05 35.55.56.78.67.11.66-.22 1.12-1.12 4.68-15.82 1.11-1.67 1.45-2.34 1.45-3.68 2.45-9.36 1.67-4.68 6.69-14.6 1.89-3.56 2.01-2.9 6.8-6.24 3.79-3.45 1-1.45 2.67-6.13 1.34-1.34.89-.33.89-.11 1.23.22 3.12 1.78 1.89.78 1.79 1 .78.78 1.89 4.46.89 1.23 10.7 5.57 3.9 3.12 1.01.56 1 .33 2.34.22 1.56.45 1 .56 3.12 2.89 1.67 1.9 2.9 2.45 7.02 4.79 4.12 3.34 3.79 2.57 3.23 3.67 3.35 2.45 2.23 2.23 1.78 2.9.56 1 12.48 14.27 13.59 16.38 15.05 18.05 4.12 5.23 6.13 8.7 3.68 5.57 4.12 10.14 1.56 3.9 4.12 13.82 1.34 1.67 2.56 2.34.78 1.11.34 2.12.22 6.46.89 2.56.89 6.02-1.22 3.57-1.23 2.89-.44 1.68-.11 1.33 1.67 11.37-.11 1.22-3.57 14.94-1.67 6.46-.78 2-2.12 3.24-1.11 1.44-2.68 2.12-2.56 2.23-.67 1-2.12 4.68-1.45 2.01-4.01 3.68-1.89 2-.56.89-4.12 8.36-.78 1.11-1.9 2.46-3.67 4.45-2.79 4.79-1.56 3.68-1.23 3.12-3.01 8.14-3.12 11.03-.66 2-1.34 1.79-13.04 8.8-3.23 1.67-6.35 3.23-2.12 1.9-8.69 10.92-6.47 8.24-1.44.89-.78.11-2.23-.44-3.24-1.78-1.33-.34-.89.45-.67.78-.34 1.67.11 1.11 1.68 4.01.22.78 1 3.68v1.67l-.22 2.01-.56 2.34-.89 1.22-1.34.9-3.12 1.22h-5.46l-2 .22-1.34.34-2.9 1.22-1.56.23h-6.57l-1.67-.67-1.23-.89-1.23-.56-.66-.11-.78.22-.9.89-1.56 3.57-.67.89-1.11 1-2.34 1.01h-.89l-4.57-1.34h-1.89l-.9.11-2.56-.45-.78.12-.89.66-.67 1.12-.11 1.45.11.55.67.67 2.56-.67 1.9.56 1.33 1.56 1.23 2.9 1.56 4.57 1.23 2.89v4.02l-.67 1.78-2.34 3.79-.67 1.89-.34 1.9.78 10.58.45 1.79.67 1.33.89 1.34.56 1.23.33 2.11v2.79l-.22 4.57-.78 4.68-4.12 16.49-.67 1.45-.89 1.11-3.46 2.9-2.01 2.67-.89 1.56-6.46 15.71-.56.67-1.11.78-1.78.56-.67.56-3.01 4.57-1.12.89-1.67.78-3.79 1.22-9.91 4.35-10.15 4.01-2.22 1.23-5.02 1.78-1.67 1.34-1.12 1.33-1.33 1.12-3.46 1.45-1.22.89-2.45 2.23-.9.55-3.34 1.23-.89.78-1.34 1.78-3.56 3.9-1.45 2.01-1.12 1.89-1.33 1.67-1.68 2.45-2.11 1.45-2.23.78-4.01 2.01-2.79 2.34-2.9 4.9-1.89 4.46-1.56 5.35-2.12 6.13-3.68 8.91-2.22 5.13-1.45 3.34-1.45 4.12-.34 2.34.34 2.23.33 3.79v3.68l-1.56 2-1.22 1.12-1.45 1.33-2.23 2.12-1.12 3.34-.66 4.35-.9 4.68-.11.78-3.79.67-15.04 3.56-49.14 10.59-.9.11-14.15 3.23.34 1.12-1.56 11.58 36.99 147.54 14.94 50.36 1.33 4.91 1.67 8.69 38.45 138.73 18.17 115.44 9.36 36.55 1.22 4.57 10.25 4.34 1.01 13.71 2.67 17.27 2.45 10.81h2.68l1.22 5.46 7.36 24.07 17.49 53.26 13.49 41 2.23 8.25 13.81 49.81 7.25 25.96 5.46 20.17 24.51 89.7 12.71 46.36 9.36 44.12 6.69 45.35-2.57.67-29.97 2.45 7.35 35.22 2.56 12.92-.11.45-.33.44-1 .45-1.23-.11-.67-.56-.33-.45-4.68-20.16-1.12-4.8-.11-.78-.33-.55-.23-.23-.78-.22-.55.11-1.12.56-1.45 1.11-.44.45-3.12 3.12-2.34 2.34-3.24 2.9-4.45 5.12-5.46 7.36-2.45 4.01-1.68 3.45-.78 1.23-.78.78-3.34 1.34-.89.66-4.01 6.91-1.23 1.34-2.23 1.78-3.01 1.79h-3.67l-2.23.33-5.24 1.11-12.04 3.9-2.45 1.68-2 2.34-2.23 3.23-1.56 2.89-1.45 3.46-1.78 2.45-5.13 3.23-2.12 2.01-1.45 1.89-1 3.12-1.67 7.58-.22 4.57.11 6.01 1.34 20.17-1.01 4.13-1.11.78-.89-.12-1.23-.55-.56-.67-.33-1.9v-2.56l-.22-3.01-1.45-4.57-1.34-1.67-.89-2 .22-3.35 1.45-5.34 1.12-5.13.55-5.79-1.45-18.17-.66-2.78-1.34-2.23-1.78-1.56-3.13-1.34-2.67-.78-7.8-1.67-2.67-1-2.57-2.34-1.56-1.67-2.67-2.12-3.01-1.67-2.56-.89-3.12-.67h-6.36l-2.23.67-1.33.89-1.34 1.45-1.78 3.67-10.14 35.99-1.01 2.34-3.01 3.01-19.16 12.59-21.4 15.72-1.22.66-1.79.34-8.02-1.12z" stroke-linejoin="round"/></defs><use xlink:href="#d" fill="#09757a" stroke="#00465f" stroke-width="5.76"/></svg>