<svg width="5.93in" height="384" viewBox="0 0 4268 2880" xmlns="http://www.w3.org/2000/svg" xmlns:xlink="http://www.w3.org/1999/xlink"><path fill="#fff" d="M0 0h4268v2880H0z"/><defs><path id="a" d="M3700.49 2432.23l-2-4.93-1.74-4.27-2.93-6.67-2.13-4.8-2.94-4.67-3.73-4.8-2.14-2.53-2.26-2.27-6.54-5.87-2.4-2.14-3.47-2.93-.4-.27-3.47-2.93-2.4-2.8-2.26-3.34-1.87-3.06-.93-2.81-.8-3.46-.4-2.54-.67-4.53v-4.94l.27-6.27 1.2-12.67-.14-1.33-.4-1.6-3.2-8.14-.93-2-.94-1.33-.93-1.07-1.07-.53-1.2-.8-1.73-.27-3.34-.13-8.53.66-1.74-.13-1.33-.4-.93-.53-.54-.54-.93-1.2-4.8-12.94-1.2-2.93-.8-1.2-1.07-.8-1.47-.4-4.8-1.07h-1.2l-1.06.13-1.47.27-2.54.67-1.06.13h-1.34l-1.33-.4-1.6-1.07-1.87-1.06-.93-.54-1.6-.53-6-1.2-1.34-.27-1.2-.4-1.47-1.2-9.73-10.93-12.01-14.28-3.2-3.46-10.4-12.01-6.4-7.6-16.67-17.61-4.81-5.07-13.73-13.6-1.74-2.27-.8-1.47-.53-1.46-.8-1.87-.4-1.6-.4-1.6-.27-1.87-.13-1.73v-1.74l.8-8.67.53-4.53.27-1.87.53-1.6.54-1.73 2.13-5.07.8-1.74.53-1.73.67-2 1.07-4 .4-1.47.4-1.6.4-2.94.26-3.46v-1.87l.14-1.74v-4.26l-.14-5.21-.26-10.53-.27-26.28-.13-13.47-.4-18.27-.27-6.41-2.27-32.81-.26-3.47-1.87-24.27-.27-2.14-.4-2.13-5.33-25.34-1.2-5.74-3.47-16.8-.67-2.94-.66-2.13-.67-1.6-.8-1.6-.93-1.47-1.2-1.87-1.47-1.6-1.87-1.6-1.6-1.07-1.47-.8-1.86-.66-2.14-.4-2.93-.54-7.34-.93-2.4-.54-2-.53-1.6-.67-1.6-.93-1.47-1.07-1.6-1.46-1.33-1.47-1.2-1.73-.94-1.61-.93-2.13-2.93-8.14-2.27-6.67-4.8-13.6-.8-2.13-1.07-1.47-1.2-1.34-.93-.8-5.34-20.94-5.33-.8-17.88-3.06-6.13-1.07-4.8-.94-7.87-1.6-1.34-.13-1.73-.27-2.8-.4-2.53-.4-1.47-.26-13.21-2.14-8.53-1.33-4.14-.27 5.87-31.61-6.27-.93-12.4-2.14-3.07-.53-.93-.13h-.27l-2-.4-.53-.14-27.74-3.87-1.34 1.6-.8 1.87-2.8.27-1.47-1.2-1.6 1.73-5.47-.4-1.73.54v.8l-1.87 3.6-5.06 2.93-5.34 5.07-3.73 22.41-4.14 1.47-1.6 5.33v3.6l1.6 2.67 4.4 1.47.4.93-.4 3.34-1.73 2.13-9.07 2.4-1.07-.27-4-1.06-3.2-.94-3.07-3.47-1.2-1.06-1.6.26-1.2.54-1.07 1.2-.53-.13-13.87-2.54 1.07-7.34.26-2.66.54-2.94v-2.13l3.46-15.21 2.27-9.73.27-1.6-54.15-5.74.93-5.74.54-2.66.26-1.34.8-5.33.54-2.27v-.4l.8-5.07 1.33-8 .93-5.74 3.07-16.8.53-2v-.14l4.67-26.41 1.34-8 .26-1.6.8-4.27.94-5.6.8-4.27 1.06-6.4 1.2-7.6 1.61-8.81.66-4.4.94-5.33.53-2.41.4-2.8.67-3.86 1.6-8.54 1.2-6.8.66-3.74.8-4.4.54-2.8h-1.07l-12.27-2.4-2.93-.4-7.34-1.34-7.2-1.33-2.54-.53-11.47-2.27-6.13-1.2-3.47-.67-8.54 48.55-2-.4-.8-.13-.93.13h-.53l-.67.27-.67.13-.8.27-.8.4-.66.53-.94.67-.8.8-.8.93-.4.94-.67 1.33-1.06 4.27-.67.93-3.6 5.87-1.07.8-.93.54-1.33.53-.67-7.07-.54-1.47-1.73-2.13-8-1.87-18.94-3.47-3.2-.66-.8-.14.66-3.86.27-1.87.67-4 3.6-21.61 4.67-28.28-11.07-2-.8-.13-3.47-.67-2.4-.4-5.74-1.07-6-.93-.67-.13-.8-.14h-.13l-1.07-.26-.66-.14-1.74-.26-2.53-.54-4.94-.93-6.13-1.07-2-.26-.53-.14-1.61-.26-.26 1.46-4.67 25.61-2.93 14.67-1.34 4.01-.4 1.33-.53 1.6v2.93l-1.07 6.14-.93.27-10.01-1.74-20.54-1.46-16.4-2.54-2.8-.8-1.07-.27-.8.27.13-1.33h-.26l-1.6-.4-4.14-.94-2.66-.66-1.21-.54-14.8-2.66-4.53-.94-5.87-1.07-1.74-.4-.53-.13-11.6-2.27-1.74.27h-.66l-3.34.27 2.27 5.2.8 1.87.4 1.86.4 1.47v1.6l-.27 3.47-.4 2-.26 2.27-14.94-2.67.13-.53 2.27-12.94 2.4.53.27-1.73.26-1.47-2.4-.53-2.13-.67-2.94-.67-2.4-.53-2.8-.53-5.73-1.07.13-.67.4-2.67-3.07-.53-2.67-.4-2.93-.67-2.67-.53-2.66-.67-.94-.13-2-.53-2.8-.4-2.93-.4-1.74-.4-1.33-.4-.8-.14-7.07-1.33-5.74-1.2-1.86-.4-9.07-1.74-6.8-1.6-1.07-.26h-.4l-.67-.14h-.67l-1.2-.13-1.86-.4-6.81-1.2-2.66-.53-6.4-1.07-10.67-1.87-10.41-1.6-6-1.2-4.53-.67-2.14-.4-8.4-1.46-3.07-2.27-1.87-.13-6.4-.14-12.27-2-13.2-2.13-12.81-2.14-.66-.13-13.61-2.13.67-3.61.67-4 .66-3.73.54-3.74.4-1.73.93-5.6.67-3.74.13-.66.53-3.21.54-3.73.66-3.74.67-3.73.4-1.87.27-2 .66-3.07.27-1.6.14-.53.26-1.73.14-.54.8-3.87.13-.4-.8.67-.8.67-.94.53-1.06.54-1.07.26-.27.14-1.33.13-.93.27-.8.13-.67.13 1.2-2 6.8-10.8 5.87-12.81 3.47-6 2.53-3.2 5.2-6.94 1.74-2.53 2.8-4 10.14-13.34 10-14.81 2.93-1.86 3.2-1.34.4-.4 1.2-1.86 2.8-4.81 6.81-9.87 5.73-8.53 4.8-7.47 1.34-.27 1.86-2.8V1446l-.66-.13-9.47-1.33-4.94-.67-9.6-1.6-1.07-.27-1.2-.27-1.33-.4-3.34-.66-2.26-.4-4.27-.67-1.47-.4-1.06-.4-.54-.13-2.4-.67-2.13-.8-2.27-1.2-3.07-2.54-.66-.66-2.01-2.4-2-3.07v-1.07l-2-3.6-.8-1.2-1.06-1.6-1.87-1.87-5.07-4.4-6.67-5.34-.53-.53-1.74-1.33-.66-.54-1.74-1.46-3.73-3.07-.93-.93.53-.67.4-.4-1.6-1.34-.13-.13-3.47-2.93-9.61-7.87.54-2.54-4.27-.66-1.6 2.8-1.47-.94.8-3.6 1.07-8.93.13-.81-.8.27-.8.27-.66.13-.54-.8-2.53-2.13-.4-.27-2.4 1.47-1.6 1.2h-2.94l-1.86-1.47-1.21.4-1.86 1.6-.14-.13-9.73-8.67-2.67-2.54-4-3.6-14.01-12.4.27-.67.13-1.6-1.6-1.47-2.13-1.73-.13-.13.13-.94 2.53-15.34-.13-4-.8-16.4-.13-3.87-.27-1.07-.27-.93-4.93-21.74-1.47-1.87-3.2-4.27-10-26.14-2.94-13.07.8-8.41 2.94-14.27 4.27-10.8 3.86-10.67 1.87-4.94 2-3.47 2.94-5.07 2.26-5.73 3.07-4.94 8.4-9.2 5.47-10.94 3.74-3.87 3.46-3.46 9.61-7.21 8.93-4.8 1.74-.93 5.87-2.27h2l2.53-1.07 3.73-.4 2.67-.13 3.87-2.8 3.07-7.07 2.13-10.94 5.87-7.07 5.74-6.67 1.73-1.86.4-1.47 1.2-2.4.93-2.8.54-1.34.8-2.13.26-.53 2.27-4 4.14-3.61 3.06-1.86 1.87-1.34.67-.4 1.06-.66.67-.4 4.14-2.67 4-4 .53-.14 4.94-1.6.4-1.73 1.2-6.27.13-4v-1.34l.13-3.86-.8-5.07-1.06-6.67-1.2-4.8-1.6-7.47-5.34-8.41-4.67-14.13-1.6-10.81 1.47-8.4.53-2.8 6.14-10.14 2.4-14.54-3.74-39.75-1.2-4.93-4.93-20.81-16.27-53.62-3.87-22.01 2-35.21 2.53-8.67 1.47-1.2 11.6-9.2 6.01-2.54h1.33l4.4.27 5.07 2 3.2-.8 2.8-2.4 2.54-3.87.4-2.8.26-4.14-.93-4.4-1.47-4.8-2.13-4.27-1.74-4.13-4.26-6.27-1.47-4.14-.67-4.13-1.47-.4-3.6-8.27-1.6-6.14-.8-3.73v-3.2l-.13-2.94-1.2-10.53.93-12.81 3.6-14.94 6.27-13.74 3.47-7.6 4.93-4.93 2.54-2.41 3.2-3.06 4-7.21.94-15.07-.27-7.2-.14-6.14-.13-1.46-.67-2.4-3.2-11.34-4.4-9.21-4.93-5.73-6.4-3.34-10.14-6.93-6.27-11.47-.13-.27-1.07-3.07 4.8-17.34v-3.6l-7.47-13.6-1.6-7.74-.8-5.6-.67-3.07-1.06-10 2.8.4.13-1.47.94-5.87 1.2-4.27 6-9.87 7.73-6.67 4.4-2.13 11.21-11.6 10.27-4.14 3.07-2 8.53-10-.93-1.6.13-4.81-.8-1.73.13-3.34.94-.53 3.07 2.14-1.2 10.13.93.8.4 2.27-1.87 12.27-1.2 2.4-.13.4-1.2 5.6 3.33 18.81 4.27 24.94 1.87.27 9.07 1.47 1.06.27 9.34 1.6 11.34 2 31.07 5.6 19.08 3.07 1.73.26 27.61 4.27 2.27.27.13.13 26.94 4.54 3.2.53 23.21 3.87 30.94 5.47 23.08 4 3.06.53 1.6.27 29.88 4.93 18.41 3.07 3.6.53 1.46.27 10.67 1.74 38.15 6.4 25.74 4.27 26.94 4.53 39.62 6.67 48.94 8 18.01 3.07 11.6 1.87 8.41 1.2 9.47 1.47 10 1.73 16.67 2.8 20.94 3.2 9.47 1.6 12.14 2.14 2 .26 2.67.54.8.13.8.27 2.26.4 1.6.13 2.8.27.94.13 1.47.27h.53l44.55 7.2 8.13 1.33 31.88 5.07 7.87 1.34 3.2.4 3.6.66 94.83 15.61 10.8 1.73 23.34 3.87 80.16 13.34 2.94.4 42.01 6.8 64.15 10.81 26.54 4.53 30.55 5.07 28.14 4.54 21.61 3.06 39.47 6.54 15.61 2.67 4.93.8 5.74.93 40.41 6.54 48.82 8.13 16.8 2.8 40.42 6.81-.14 1.2-.26 1.73-2.27 12.67-.8 4.94-3.74 21.87-3.33 19.34-5.34 31.48-.13.4-2.4 14.94-.53 3.07-.27 1.73-4.14 23.88-.26 2.4.26 1.47.41 1.46.8 1.2 1.6-1.06 1.6-.94 4.8-3.07 2.93-1.86 6-3.74 3.47-2.13 9.6-6.4 1.61-.94 1.06 1.87 1.07 1.07.13.26h.94l.66.14 6.27.93 9.2 1.6.94.13 2.93.67 11.87 2.14 20.94 4 2.8 4.53-2 .54-6 1.73-4.8 2-4 1.6-5.2 2.13-4.14 2.14-3.6 1.47-3.87 1.33-4 1.07-4.13.93-5.47.8-4.54.13-2.8.14h-1.2l-3.46-.14-21.08-3.06-1.07-.14h-.13l-2-.4-10.14-1.73h-.26l-1.2 8.8-4.54 26.01-.13 1.07-3.87 22.67-9.74 57.49-10.27 60.16-.66 3.47-4.94 30.67-3.46 21.21-6.01 36.41-1.33 8.27-2.67 15.34-6.8 39.89-3.2 18.54-1.87 10.67-10.4 60.82-2.4 13.07-1.47 5.87-1.6 6.13-.13.14-1.6 4.93-.54 2.27-.4 3.07-.13 2.4.53 4v3.87l-7.47 46.55-.26 4.67-.4 5.07-.54 6.4-.26 2-.54 4.13-1.06 2.41-1.2 2-.8 2-.14.93-.53 1.73-4.54 26.95-9.47 55.75-.53 2.94-8.67 49.61-6.53 37.48-10.67 60.16-.54 1.47-.8 1.46-1.73 1.74-4.67 3.73-1.2 1.34-.93 1.46-3.6 5.87-.81.94-2.13 1.6-1.2 1.33-.93 1.2-.67 1.07-.53 2.27-.27 2.13.13 3.34-7.6-.4-4.8-.67-8.4-1.47h-.4l-29.48-5.33-26.81-4.81-25.47-4.4-2.14-.26-2.53.13-3.73 1.07-3.21 1.33-2.26.93-2.27 1.34-3.2 2.13-1.47 1.2-1.07 1.6-2.53 1.47h-4.13l-3.87-1.87-5.34-4.8-5.2-6-6.8-2.27-5.6.53-1.74-1.46-1.46-2.94h-2.27l-3.47-.4-25.87-4.67-83.5-13.87-2.4-3.73-2.8-4.4-5.87-4.54-4.93-1.73-2.4-1.74-1.34-2.4-.26-1.2-10.14-6.53-6.93-3.21-2.27-3.06-1.47-2.94-2-9.73-1.33-2.67-4.67-.54-3.47-5.46-3.33-2-14.27-2.81 8.26-14.93 6.81-9.48 15.6-11.47 4.94-4.93 4.8-3.6 7.73-4.67 15.34-6.8 5.34-4.27 3.86-5.07-11.6-1.87-.8-.13h-.27l-30.94-4.94-13.47-2.13-9.2-1.73-5.74-1.07-10.8-1.74-3.34-.4-2.4-.13h-.4l-2.13-.4-2.13-.67-1.47-.53-4.67-1.07.53-1.86 3.34-2.8 2.4-4.41.8-1.46 8.67-47.22-.27-2.8 3.07-18.41.4-7.74 3.2-20.8-.67 1.46-2.8 2.14-3.2 1.73-46.55-3.6-8.4.53-3.07 1.34-6 .53-.13.14-9.87 3.73-16.67-2.67-1.74-.26-6.13 1.73-5.34-.4-3.73-4.14-1.87-3.46v-.54l.13-.53-.13-.67-.13-.53-.8-2.13-8.14-12.28-.13-.26-4.54-5.34-1.06-1.2-3.2-2.13-6.54-.54-.27-3.06-.66-3.07-.27-1.2-.4-1.2-.53-.8-.54-.4-.8-.27-1.2-.4-2.67-.53-2.53-.4-4.93-.8-3.61-.8-15.07-2.81-2.93-.4-2-.26-24.54-3.87-2.67-.4-1.33-.27-.94-.13-6.27 38.01-4.8 21.88-2 10.94-1.6 11.73-1.07-.13-2-.27-4.8-.53h-4.4l-8.14-.67-3.06-.26h-1.07l-2.8 17.34-15.61-1.34 2.8-17.47-15.47-.8-1.86-.54-13.61-.93-.93 5.07-.54 3.6-1.6 8.54-1.46 8.53-1.34 8.81-2.26-.14-3.21-.26-1.2-.14-.8-.13-.53-.13-5.6-.8-4.14-.67-3.33-.53-6.67-1.07-8.27-1.07-2.93 17.21-8-.8-.54 1.6-1.07 6.27-1.46 8.67 5.47.66 5.06.67 6.01 1.07 4.53.8 4.4.67.8-4.94.4-2.13.14-.94.13-.93v-2.54l-.13-.93v-.67l-.27-1.73-.13-1.73-.14-.8v-1.87l.14-.54.13-1.06.8-4.67 1.6.27 1.73.26 1.34.27 1.2.27.93.13 1.07.13.93.14h.14l.4-.14h.4l.13.14 4 3.46-4.27 22.41h.94l2.26.14 4.27.4 8.27.66 7.34.54 4.93.4 3.47.4-.53 2.93-4.54-.4-2.53 13.34-1.34 7.87 4 .53 1.07.14 22.14 2.93.13-1.07 1.47-9.07 1.87-10 .27-1.47.53-4 .8-4.4.67-3.47 1.2-7.2.4-2.27 1.6-10.54.93-5.86.93.26.54.14 2.53.53.27.13 2.8.4 5.47 1.07h.4l.4.13 6.53 1.07 2.67.4 3.2.67 28.81 4.93 17.34 3.07 1.47.27 10.93 2 4.41.8.93.13.4.13.93.27 2.8.94.67.4 1.2.93 1.07.93 1.73 2.14 1.47 2.13 2.67 4.54 1.46 2.4 2.27 3.6 12 20.14 1.74 2.53 3.6 5.61 7.6 13.2 4.4 7.47 2 3.33 4.94 8.14 6.53 10.8 12.14 20.01 1.6 2.67 3.47 5.6v.14l3.47 4.93 3.2 4.14 4.4 5.33 2.4 2.8 3.47 4.27 4.27 5.07 15.33 18.41 1.6 1.73 1.87 1.73 21.08 17.08 5.2 4.4 26.41 21.34 7.6 6.13 2 1.47 3.33 2.67 5.07 4.67 3.34 2.93 2.4 2.27.4.27 15.07 14.13 8.13 7.34 1.07.93 5.6 4.94 12.01 10.14 7.86 6.53 3.34 2.8 3.07 2.4 3.06 2.14 2.81 1.6 2.53 1.33 4 1.74 1.87.93 1.33.93 1.34 1.34 1.2 1.73 1.06 2.14.94 2.4 1.86 5.6 1.47 4.8.13.27.67 1.73 1.6 3.07 1.47 2.27 1.73 2.26 4.4 5.74 2.4 3.2 2.27 2.94 1.34 2.26.93 1.87.53 1.87.54 2.13.26 2.14.27 2.13.27 7.07.4 9.07.93 22.54.27 1.74.4 1.46.4 1.07.66 1.07.14.26.53.67.8 1.07 1.07.93.93.8 2.27-.13 4.53 6.67.4 3.06-.4 6.01.67 8.93-.8 5.34-4.93 6.4-1.47.54-.27.8-.66 1.2-.94 1.73-4.13 6.14-2 3.2-1.74 2.8-2.4 3.47-1.6 2.4-1.33 2.26-1.07 2.27-.93 2.67-1.07 4.67-.93 3.87-.94 4.8-1.33 4.8-.93 4.93-.4 4.14.13 4.53.4 3.21.8 3.46 1.2 3.34 1.07 2.67 1.06 2.26 2.14 3.87 2 4.4 2.67 5.47.93 1.2.8 1.07 1.2 1.07 2 1.6 2.67 1.86 2.93 2.14 2.4 1.73 1.34 1.34 1.2 1.2.8 1.06.53 1.2.67 1.6.26 1.2.4 2.27 1.74 11.74.53 4.27.8 4.93.94 5.87.8 4.4.53 3.07.4 2.8.27 2.67.26 3.74.14 1.86v1.87l-.4 3.47-.4 3.33-1.2 6.14-1.07 5.07-1.07 5.07-.8 4-1.73 8.67-.27 2.4-.27 2.4.14 2.13.26 1.74.54 2.66 1.33 4.14 1.07 3.33 2.13 6.67 2.14 7.07 1.6 5.6 1.73 5.61 1.6 5.73.8 3.34.27 1.06.13 1.07.67 2.53.93 5.61.4 2.4.54 4.4.4 4.93.26 5.07.14 4.4v4.01l-.27 4.26-.13 3.21-.4 4.93-.54 4.94-.8 4.66-.93 4.81-1.07 4.66-.93 3.74-1.47 5.73-1.07 5.21-7.07 26.94-11.87 47.08-.8 3.2-.66 2.54-2.14 8.4-1.46 6.27-.27.8-4.4 18.27-2.14 8.67-2.8 10.94-3.73 14.94-6.67 26.14-1.87 7.74-.4 1.47-1.86 7.2-.54 1.6-.53 2.13-.94 2.94-1.06 2.67-1.74 3.87-1.73 2.93-1.73 3.2-2.14 3.47-1.87 2.53-6.13 8.14-3.2 4.4-2.94 4.94-2.93 6.13-2.8 6.8z" stroke-linejoin="round"/></defs><use xlink:href="#a" fill="#9dc8ca" stroke="#6bb4d2" stroke-width="5.76"/><defs><path id="b" d="M3693.42 2848.92l1.87-11.07-7.87-1.33-13.07-2.27-3.47-.53-.4-.14-59.62-10-52.82-8.8-13.33-2.27-109.1-18.54-25.88-3.87-8.53-1.6-29.21-5.2-38.68-6.94-67.76-12.14-15.87-2.8-1.07-.13-96.56-13.21-4.93-.93-2.27-.4-.4-.13-.53-.14-95.23-17.34h-1.74l-3.2-.93-1.2-.4-2.93-1.07-5.21-1.33-38.54-10.54-38.41-5.2-1.07-.27-50.82-11.87-46.01-7.47-14-2.26-13.34-2.14-.4-.13-30.54-5.2 3.73-5.07 7.47-11.74 2.8-8.4 2.27-4.27 2.66-12.14 7.74-23.07 1.47-4.81 8.53-13.33 1.87-5.21 2.13-3.33 3.07-2 3.34-3.34 8.67-13.07 4.53-5.6 2.4-3.73 4.54-12.41 5.6-9.2 5.2-8.67.93-3.6 6.41-12.28-6.41-3.73-11.73-5.74-2-3.33-.8-2.8-.14-15.74.14-2.27v-.4l.13-4.13 1.33-9.07 3.34-20.14 6-30.81.27-.67 1.6-8.94.66-3.73 5.34-31.61 3.87-22.41 3.86-23.21-.26-.67-.14-.8.27-1.07 1.73-9.6 4.01-23.47 2.93-17.34.27-1.47.93-4.94 3.07-17.47 3.73-21.74 4-22.54.14-.94v-.26l.13-.67 1.6-9.87.4-2 4.4-26.14 3.34-19.75.13-.53 4.8-29.08.13-.53 1.47-8.4v-.4l3.87-21.34 1.2-6.81.27-1.46 1.86-10.94 7.61-44.95-2.67-14.41-.93-4.93 2.4-4.54 3.06-5.87.54-.93 2.93-5.6.94-1.74.26-.66.4-2.14 2.54-15.34 3.46-22.8.27-1.34.27-1.73.93-6.8 1.47-9.74.26-1.87 1.07-7.47.4-2.13.27-1.6.27-2 .26-1.87.67-4.54.53-3.46 2-11.21.27-1.87 1.33-8.67 4.27-27.61.67-4.66-.27-.14-7.33-1.06h-.4l-1.34-.27-6.93-1.2-1.2-.13-6.01-1.47.4-1.07 15.34 3.2h.27l7.74.67 1.2-9.47.26-2.94.4-2.26.27-2.27.53-2.94 1.87-12.13.13-.8 3.47-22.41.4-2.27.53-3.73.8-4.81v-.26l.27-1.47.67-4.4 1.07-8.67.13-.53 2.8-16.41 1.07-7.34.26-.8v-.26l1.6-9.61.14-.8.4-1.86 1.6-8.67v-.14l1.87-10.14.8-3.86 1.33-7.47v-.27l.67-3.73.66-3.87.27-1.74.53-3.06.14-1.2.13-.54.4-2.4.53-3.07.67-4.53.53-2.27.14-.93 1.6.4h.26l-.13 1.33.8-.27 1.07.27 2.8.8 16.4 2.54 20.54 1.46 10.01 1.74.93-.27 1.07-6.14v-2.93l.53-1.6.4-1.33 1.34-4.01 2.93-14.67 4.67-25.61.26-1.46 1.61.26.53.14 2 .26 6.13 1.07 4.94.93 2.53.54 1.74.26.66.14 1.07.26h.13l.8.14.67.13 6 .93 5.74 1.07 2.4.4 3.47.67.8.13 11.07 2-4.67 28.28-3.6 21.61-.67 4-.27 1.87-.66 3.86.8.14 3.2.66 18.94 3.47 8 1.87 1.73 2.13.54 1.47.67 7.07 1.33-.53.93-.54 1.07-.8 3.6-5.87.67-.93 1.06-4.27.67-1.33.4-.94.8-.93.8-.8.94-.67.66-.53.8-.4.8-.27.67-.13.67-.27h.53l.93-.13.8.13 2 .4 8.54-48.55 3.47.67 6.13 1.2 11.47 2.27 2.54.53 7.2 1.33 7.34 1.34 2.93.4 12.27 2.4h1.07l-.54 2.8-.8 4.4-.66 3.74-1.2 6.8-1.6 8.54-.67 3.86-.4 2.8-.53 2.41-.94 5.33-.66 4.4-1.61 8.81-1.2 7.6-1.06 6.4-.8 4.27-.94 5.6-.8 4.27-.26 1.6-1.34 8-4.67 26.41v.14l-.53 2-3.07 16.8-.93 5.74-1.33 8-.8 5.07v.4l-.54 2.27-.8 5.33-.26 1.34-.54 2.66-.93 5.74 54.15 5.74-.27 1.6-2.27 9.73-3.46 15.21v2.13l-.54 2.94-.26 2.66-1.07 7.34 13.87 2.54.53.13 1.07-1.2 1.2-.54 1.6-.26 1.2 1.06 3.07 3.47 3.2.94 4 1.06 1.07.27 9.07-2.4 1.73-2.13.4-3.34-.4-.93-4.4-1.47-1.6-2.67v-3.6l1.6-5.33 4.14-1.47 3.73-22.41 5.34-5.07 5.06-2.93 1.87-3.6v-.8l1.73-.54 5.47.4 1.6-1.73 1.47 1.2 2.8-.27.8-1.87 1.34-1.6 27.74 3.87.53.14 2 .4h.27l.93.13 3.07.53 12.4 2.14 6.27.93-5.87 31.61 4.14.27 8.53 1.33 13.21 2.14 1.47.26 2.53.4 2.8.4 1.73.27 1.34.13 7.87 1.6 4.8.94 6.13 1.07 17.88 3.06 5.33.8 5.34 20.94.93.8 1.2 1.34 1.07 1.47.8 2.13 4.8 13.6 2.27 6.67 2.93 8.14.93 2.13.94 1.61 1.2 1.73 1.33 1.47 1.6 1.46 1.47 1.07 1.6.93 1.6.67 2 .53 2.4.54 7.34.93 2.93.54 2.14.4 1.86.66 1.47.8 1.6 1.07 1.87 1.6 1.47 1.6 1.2 1.87.93 1.47.8 1.6.67 1.6.66 2.13.67 2.94 3.47 16.8 1.2 5.74 5.33 25.34.4 2.13.27 2.14 1.87 24.27.26 3.47 2.27 32.81.27 6.41.4 18.27.13 13.47.27 26.28.26 10.53.14 5.21v4.26l-.14 1.74v1.87l-.26 3.46-.4 2.94-.4 1.6-.4 1.47-1.07 4-.67 2-.53 1.73-.8 1.74-2.13 5.07-.54 1.73-.53 1.6-.27 1.87-.53 4.53-.8 8.67v1.74l.13 1.73.27 1.87.4 1.6.4 1.6.8 1.87.53 1.46.8 1.47 1.74 2.27 13.73 13.6 4.81 5.07 16.67 17.61 6.4 7.6 10.4 12.01 3.2 3.46 12.01 14.28 9.73 10.93 1.47 1.2 1.2.4 1.34.27 6 1.2 1.6.53.93.54 1.87 1.06 1.6 1.07 1.33.4h1.34l1.06-.13 2.54-.67 1.47-.27 1.06-.13h1.2l4.8 1.07 1.47.4 1.07.8.8 1.2 1.2 2.93 4.8 12.94.93 1.2.54.54.93.53 1.33.4 1.74.13 8.53-.66 3.34.13 1.73.27 1.2.8 1.07.53.93 1.07.94 1.33.93 2 3.2 8.14.4 1.6.14 1.33-1.2 12.67-.27 6.27v4.94l.67 4.53.4 2.54.8 3.46.93 2.81 1.87 3.06 2.26 3.34 2.4 2.8 3.47 2.93.4.27 3.47 2.93 2.4 2.14 6.54 5.87 2.26 2.27 2.14 2.53 3.73 4.8 2.94 4.67 2.13 4.8 2.93 6.67 1.74 4.27 2 4.93-1.33 4.01-1.2 4.26-.4 2.94-.27 4v4.4l.13 6.27v4.27l-.26 3.73-.41 3.07-.93 5.47-.53 4-.4 2.27-.14 2.13-.4 3.6-.26 4.94-.54 12v5.87l.4 8.27.4 4.94.8 4.8.14.53v.67l.8 3.33.93 3.61 3.87 13.6.93 2.27.67 1.73 1.33 2.67.54.8.13.13.27.4.26.4 1.47 1.87 1.2 1.34 3.2 2.53 13.07 9.47 4.8 3.73 4.67 3.74 4.54 4 5.07 5.2 4 5.07 3.2 4.14 2.8 4.13 3.07 4.67 3.33 6.8 1.33 2.8.67 1.47.54 1.6 1.86 4.54 1.6 4.4.8 2.66 1.2 4.27.67 3.34 1.07 4.93.8 3.87.93 5.2.53 3.34.81 3.87.66 3.86.8 4.27 2.27 12.81.93 5.73.4 2.54.4 3.46.4 2.94v.13l.27 1.74v1.06l.4 4.4 1.2 14.68.13.4.67 7.73.53 5.47 1.2 7.6 1.61 8.41 1.46 6.4 2 10.8.8 3.61 1.07 5.06 1.47 6.27 2.13 7.74.13.4 4.67 14.54 2.67 7.6 1.2 3.47-20.67 10.67-10.94 6.8-19.07 13.61-3.6 1.86-12.14-1.33-7.87.8-11.07 4.94-3.73.8-3.87-5.21-2-.66-9.47 3.07-3.87-.14z" stroke-linejoin="round"/></defs><use xlink:href="#b" fill="#9dc8ca" stroke="#6bb4d2" stroke-width="5.76"/><defs><path id="c" d="M2358.87 2294.72l-3.07-.4-7.73-1.47 10.8-60.02-10.14-1.2h-.53l-32.54-5.87-32.55-5.74-17.47-3.2-1.87-.4-12.67-2.13.14-.8.4-2.8 7.87-44.15.53-2.27.93-4.54 1.6-8.13 4.4-24.68.54-2.93.53-3.07 1.2-8.67 3.6-24.28-1.33.67-1.73.93-1.6.27-1.34.13-.4-.13-1.47-.13-2.53-.4-2.8-.4-3.74-.67-1.2-.27-17.47-3.06-23.34-3.87-46.41-7.87-8.81-1.6-14.67-2.4-4.13-.67-1.74-.27-9.2-1.6-2.4-.26-.53-.14-6.94-1.33-4.13-.67-2.94-.53-6.27-1.2h-1.86l-17.74-3.2-1.87-.14h-1.6l-.67.27-1.33.4-1.2-.4-.4.13-1.33-.4-.54-.8-.8-.8-2-.4-6.93-1.33-6.94-1.07-3.2-.53-16.01-2.67-7.86-1.47-24.01-4-30.81-5.47-15.34-2.8-7.47-1.2-2-.53-1.33-.27-2.4-.53-.8-.14h-.54l-.66-.26-1.47-.27-26.28-4v-3.34l-33.34-4.8-36.15-5.2-.26 1.47-33.08-4.4-19.2-3.21-64.56-10.93-83.62-14.01-64.16-10.67-19.47-3.2-83.63-14-96.16-16.81-5.07-.93-9.6-2.01-2.54-.4-8.4-1.46-11.74-2-17.07-2.94-11.07-1.87-.53-.13-26.14-4.67-22.68-3.33-3.06-.94-67.49-12.13-67.36-12.14-67.48-12.14-67.49-12.14-107.9-20-77.09-14.28-82.56-14.67-82.56-14.67-82.56-14.81-82.56-14.67-60.82-11.47-60.95-11.34-11.6-2.53-57.89-10.14-38.41-6.93-.93-.27-32.55-5.87-72.02-13.2-3.87 3.6-66.55-11.61-4.8-.8-31.61-5.47 11.47-66.55 9.47-55.09 2-11.47 11.47-66.69 1.06-6.27 3.47-20.01 14.27-82.7.27-1.6 1.47-9.07 7.33-42.68.4-1.73 10.01-58.29 1.2-6.4 1.6-10.54 2.66-13.61 4.94-26.54 1.87-10.94 12.67-65.49 5.47-28.81.26-1.2 3.87-19.47 2.67-16.81 3.87-30.28 12.4-70.69 3.2-18.41 1.2-7.07 1.2-6.53 16.14-90.7.13-.8 18.01-99.37.13-.8 1.6-8.94 9.87-55.22 7.47-42.28.53-3.74.8-4 2.94-16 3.47-19.48 20.4-114.84 14.67-82.43 11.34-64.03 11.34-64.02 4-21.74 1.6-9.07 2-11.34 8.14-46.02 1.46-7.86 21.88-124.18 3.06-19.34.4-2.14 2.27-11.6 17.21 3.06 84.69 15.21 66.02 11.47 66.02 11.47 47.08 8.14 18.94 3.33 66.02 11.47 61.36 10.94 61.35 10.81 58.55 10.4 58.42 10.4 25.21 4.54 40.14 7.07 8.94 1.6 56.42 10 32.54 5.87 56.02 9.87 56.15 9.87 67.08 11.87 53.49 9.47.93.14 5.6.93 40.28 7.07 5.34 1.33 106.3 18.54 62.55 11.07 4.27.67 38.68 6.4 52.01 8.67 40.28 6.81 9.21 1.46 3.73.67 4.13.53 13.48 2.14 19.74 3.87 1.2.26 3.46.67 23.88 4.8 5.47.67 3.46.53 21.34 2.8 12.81 1.74.13 2.4 13.74 1.73 37.61 4.67 41.21 7.47 6.67 1.33 6 .94.14-.67v-.27l2.13.67.53.13 1.47.4 1.2.54 3.47.66 1.33.27 1.47.27 1.73.4 2.01.26.93.27 10.4 2 53.22 10.01 27.34 5.33 53.08 8.67 53.09 8.67 53.35 8.54 26.41 4.27 26.94 4.4 53.48 9.2 46.68 8 6.54 1.47.53.13 26.94 4.81 24.94 4.53 30.01 5.34 24.01 4.26 14.54 2.81 38.68 6.8 24.14 4.4 29.34 5.07 26.94 4.8 26.94 4.93 20.14 3.61 28.95 5.33 3.6.67.8-4.94 4.4-26.81.27-1.86-.27-2.14-3.6-8.67-1.07-4-3.6-8.67-2.27-7.34-2.4-7.73-4.4-11.34-.67-2.93-3.2-8.01-10.53-31.88-.54-.4-.53-1.33-.4-1.07 4.13.67 1.34.27 1.06.26 1.2.14 1.2.26 38.15 7.61 5.73.93 3.74.8 2.53.67 5.21.67 7.2-2.14 6-.27.8-.8.27-2-.4-.66.66-3.74 3.07-1.33 13.74-1.87.67-2.4-1.34-4.8-1.6-13.74-.67-2.27-.4-1.87-.93-4.66 4 .4h.27l3.07.26 14.53 14.67 12.54 10.54 6 5.07 6.67 10.67 11.34 14.41 4.27 7.73 4.26 7.74 6.54 13.87v6.94l.13 6.27-.26 1.2-1.07 4.66-2.93 14.41-9.21 8.27-10.4 6.54-9.07 8.4-9.2 9.47-6.67 10.14-1.2 2-.14 5.33.4 3.74.14 1.6 1.06 10 .67 3.07.8 5.6 1.6 7.74 7.47 13.6v3.6l-4.8 17.34 1.07 3.07.13.27 6.27 11.47 10.14 6.93 6.4 3.34 4.93 5.73 4.4 9.21 3.2 11.34.67 2.4.13 1.46.14 6.14.27 7.2-.94 15.07-4 7.21-3.2 3.06-2.54 2.41-4.93 4.93-3.47 7.6-6.27 13.74-3.6 14.94-.93 12.81 1.2 10.53.13 2.94v3.2l.8 3.73 1.6 6.14 3.6 8.27 1.47.4.67 4.13 1.47 4.14 4.26 6.27 1.74 4.13 2.13 4.27 1.47 4.8.93 4.4-.26 4.14-.4 2.8-2.54 3.87-2.8 2.4-3.2.8-5.07-2-4.4-.27h-1.33l-6.01 2.54-11.6 9.2-1.47 1.2-2.53 8.67-2 35.21 3.87 22.01 16.27 53.62 4.93 20.81 1.2 4.93 3.74 39.75-2.4 14.54-6.14 10.14-.53 2.8-1.47 8.4 1.6 10.81 4.67 14.13 5.34 8.41 1.6 7.47 1.2 4.8 1.06 6.67.8 5.07-.13 3.86v1.34l-.13 4-1.2 6.27-.4 1.73-4.94 1.6-.53.14-4 4-4.14 2.67-.67.4-1.06.66-.67.4-1.87 1.34-3.06 1.86-4.14 3.61-2.27 4-.26.53-.8 2.13-.54 1.34-.93 2.8-1.2 2.4-.4 1.47-1.73 1.86-5.74 6.67-5.87 7.07-2.13 10.94-3.07 7.07-3.87 2.8-2.67.13-3.73.4-2.53 1.07h-2l-5.87 2.27-1.74.93-8.93 4.8-9.61 7.21-3.46 3.46-3.74 3.87-5.47 10.94-8.4 9.2-3.07 4.94-2.26 5.73-2.94 5.07-2 3.47-1.87 4.94-3.86 10.67-4.27 10.8-2.94 14.27-.8 8.41 2.94 13.07 10 26.14 3.2 4.27 1.47 1.87 4.93 21.74.27.93.27 1.07.13 3.87.8 16.4.13 4-2.53 15.34-.13.94.13.13 2.13 1.73 1.6 1.47-.13 1.6-.27.67 14.01 12.4 4 3.6 2.67 2.54 9.73 8.67.14.13 1.86-1.6 1.21-.4 1.86 1.47h2.94l1.6-1.2 2.4-1.47.4.27 2.53 2.13.54.8.66-.13.8-.27.8-.27-.13.81-1.07 8.93-.8 3.6 1.47.94 1.6-2.8 4.27.66-.54 2.54 9.61 7.87 3.47 2.93.13.13 1.6 1.34-.4.4-.53.67.93.93 3.73 3.07 1.74 1.46.66.54 1.74 1.33.53.53 6.67 5.34 5.07 4.4 1.87 1.87 1.06 1.6.8 1.2 2 3.6v1.07l2 3.07 2.01 2.4.66.66 3.07 2.54 2.27 1.2 2.13.8 2.4.67.54.13 1.06.4 1.47.4 4.27.67 2.26.4 3.34.66 1.33.4 1.2.27 1.07.27 9.6 1.6 4.94.67 9.47 1.33.66.13v1.87l-1.86 2.8-1.34.27-4.8 7.47-5.73 8.53-6.81 9.87-2.8 4.81-1.2 1.86-.4.4-3.2 1.34-2.93 1.86-10 14.81-10.14 13.34-2.8 4-1.74 2.53-5.2 6.94-2.53 3.2-3.47 6-5.87 12.81-6.8 10.8-1.2 2 .67-.13.8-.13.93-.27 1.33-.13.27-.14 1.07-.26 1.06-.54.94-.53.8-.67.8-.67-.13.4-.8 3.87-.14.54-.26 1.73-.14.53-.27 1.6-.66 3.07-.27 2-.4 1.87-.67 3.73-.66 3.74-.54 3.73-.53 3.21-.13.66-.67 3.74-.93 5.6-.4 1.73-.54 3.74-.66 3.73-.67 4-.67 3.61-.4 2-.13 1.2-.27 1.6-.26 2.4-.27.93-.67 3.47-.53 3.07-.67 3.47-.4 2.53-.27 1.07-.66 3.73-.27 1.74-.4 2.8-.53 3.6-.67 3.6-.4 3.2-.13.67-.54 3.2-.66 3.47-.67 4.13-.13.53-.4 2.54-.14.4-.26 1.6-.4 2.67-.67 3.33-.67 4.14-.4 3.2-.13.53-.67 4-.67 4-.53 3.34-.67 2.93v.8l-.66 3.74-.54 3.2v.53l-.66 3.87-.4 3.07-.27 2-.4 2.13-.67 4.01-.13.66-.53 3.07-.54 3.07v.4l-.53 3.87-3.07 16.54-.8 4.13-1.47 8.67-.8 5.07-1.73 11.74-2 10.67-.27 2.53-5.2-.8-9.33-1.73-1.87-.27-2.4-.53-4.4-.8-1.34-.27-1.2-.13-.8-.14-1.07-.26-1.46-.27-.94-.13-1.6-.27-2-.27-6.93-1.46-2.94-.67-1.73-.27-7.74-1.07-1.46 8.94-.54 3.34v.26l-1.46 7.21-.14.8-1.6 9.47-.53 2.53-.14.8-.93 5.07-.27 1.73-1.06 5.34-.4 2.8-1.87 11.2-.13.54-.14.66-.66 4.01-.67 4.4-1.87 10.4-.26 1.74-1.34 7.86-.27 1.47-3.6 20.68-.8 3.73-.93 5.6-.27 1.74-.53 2.8-3.47-1.07-1.87-.67-2.53-1.06-.27 1.46-4.66 9.07-2.67 5.47-8 24.55-4.14 12-1.47 1.73-2 2.94-7.07 5.73-2.13 2.14-.53 2.53 17.47 2.67-1.33 8.8 11.33 1.87-.4 2.8-2 11.34-4.13 24.14-.14.8-.93 5.2-14 79.9-.54 3.2-3.33 18.81-.94 5.2-1.33 7.87-7.07 40.01-8.8 51.22-5.2 30.01-26.81-4.93-25.48-4.54-1.2-.13-.8-.13-44.28-8.01-7.87-1.33-22.54-4-25.74-4.4-27.61-4.67-1.86-.4-5.34 9.6-9.6 27.08-7.6 8.54-6.14 11.87z" stroke-linejoin="round"/></defs><use xlink:href="#c" fill="#6bacaf" stroke="#097d9b" stroke-width="5.76"/><defs><path id="d" d="M2576.94 2644.71l-7.87-1.6-1.47-.4v-.8l-.53-.13-2-.4-1.6-.27-.54-.27-.13-.13-.27-.27-9.6-1.46-4.67-.67-19.07-3.2-19.87-3.47.66-3.47 7.74-44.55 2.13-12.67 1.74-9.6 2.93-16.41.8-5.6 1.2-5.6 1.34-7.74.26-1.6 2.14-13.47 2.66-14.14 1.87-10.94.94-5.06 2.66-14.28 2.54-15.6 2.93-16.54 3.6-21.48 3.74-22.54 3.2-19.47 1.73-10.27 2-11.21 1.07-5.07 2.93-17.2 2.54-14.41 2.13-14 2.54-14.14.13-.8 2.27-13.61 5.2-30.01 8.8-51.22 7.07-40.01 1.33-7.87.94-5.2 3.33-18.81.54-3.2 14-79.9.93-5.2.14-.8 4.13-24.14 2-11.34.4-2.8-11.33-1.87 1.33-8.8-17.47-2.67.53-2.53 2.13-2.14 7.07-5.73 2-2.94 1.47-1.73 4.14-12 8-24.55 2.67-5.47 4.66-9.07.27-1.46 2.53 1.06 1.87.67 3.47 1.07.53-2.8.27-1.74.93-5.6.8-3.73 3.6-20.68.27-1.47 1.34-7.86.26-1.74 1.87-10.4.67-4.4.66-4.01.14-.66.13-.54 1.87-11.2.4-2.8 1.06-5.34.27-1.73.93-5.07.14-.8.53-2.53 1.6-9.47.14-.8 1.46-7.21v-.26l.54-3.34 1.46-8.94 7.74 1.07 1.73.27 2.94.67 6.93 1.46 2 .27 1.6.27.94.13 1.46.27 1.07.26.8.14 1.2.13 1.34.27 4.4.8 2.4.53 1.87.27 9.33 1.73 5.2.8.27-2.53 2-10.67 1.73-11.74.8-5.07 1.47-8.67.8-4.13 3.07-16.54.53-3.87v-.4l.54-3.07.53-3.07.13-.66.67-4.01.4-2.13.27-2 .4-3.07.66-3.87v-.53l.54-3.2.66-3.74v-.8l.67-2.93.53-3.34.67-4 .67-4 .13-.53.4-3.2.67-4.14.67-3.33.4-2.67.26-1.6.14-.4.4-2.54.13-.53.67-4.13.66-3.47.54-3.2.13-.67.4-3.2.67-3.6.53-3.6.4-2.8.27-1.74.66-3.73.27-1.07.4-2.53.67-3.47.53-3.07.67-3.47.27-.93.26-2.4.27-1.6.13-1.2.4-2 13.61 2.13.66.13 12.81 2.14 13.2 2.13 12.27 2 6.4.14 1.87.13 3.07 2.27 8.4 1.46 2.14.4 4.53.67 6 1.2 10.41 1.6 10.67 1.87 6.4 1.07 2.66.53 6.81 1.2 1.86.4 1.2.13h.67l.67.14h.4l1.07.26 6.8 1.6 9.07 1.74 1.86.4 5.74 1.2 7.07 1.33.8.14 1.33.4 1.74.4 2.93.4 2.8.4 2 .53.94.13 2.66.67 2.67.53 2.93.67 2.67.4 3.07.53-.4 2.67-.13.67 5.73 1.07 2.8.53 2.4.53 2.94.67 2.13.67 2.4.53-.26 1.47-.27 1.73-2.4-.53-2.27 12.94-.13.53 14.94 2.67.26-2.27.4-2 .27-3.47v-1.6l-.4-1.47-.4-1.86-.8-1.87-2.27-5.2 3.34-.27h.66l1.74-.27 11.6 2.27.53.13 1.74.4 5.87 1.07 4.53.94 14.8 2.66 1.21.54 2.66.66 4.14.94-.14.93-.53 2.27-.67 4.53-.53 3.07-.4 2.4-.13.54-.14 1.2-.53 3.06-.27 1.74-.66 3.87-.67 3.73v.27l-1.33 7.47-.8 3.86-1.87 10.14v.14l-1.6 8.67-.4 1.86-.14.8-1.6 9.61v.26l-.26.8-1.07 7.34-2.8 16.41-.13.53-1.07 8.67-.67 4.4-.27 1.47v.26l-.8 4.81-.53 3.73-.4 2.27-3.47 22.41-.13.8-1.87 12.13-.53 2.94-.27 2.27-.4 2.26-.26 2.94-1.2 9.47-7.74-.67h-.27l-15.34-3.2-.4 1.07 6.01 1.47 1.2.13 6.93 1.2 1.34.27h.4l7.33 1.06.27.14-.67 4.66-4.27 27.61-1.33 8.67-.27 1.87-2 11.21-.53 3.46-.67 4.54-.26 1.87-.27 2-.27 1.6-.4 2.13-1.07 7.47-.26 1.87-1.47 9.74-.93 6.8-.27 1.73-.27 1.34-3.46 22.8-2.54 15.34-.4 2.14-.26.66-.94 1.74-2.93 5.6-.54.93-3.06 5.87-2.4 4.54.93 4.93 2.67 14.41-7.61 44.95-1.86 10.94-.27 1.46-1.2 6.81-3.87 21.34v.4l-1.47 8.4-.13.53-4.8 29.08-.13.53-3.34 19.75-4.4 26.14-.4 2-1.6 9.87-.13.67v.26l-.14.94-4 22.54-3.73 21.74-3.07 17.47-.93 4.94-.27 1.47-2.93 17.34-4.01 23.47-1.73 9.6-.27 1.07.14.8.26.67-3.86 23.21-3.87 22.41-5.34 31.61-.66 3.73-1.6 8.94-.27.67-6 30.81-3.34 20.14-1.33 9.07-.13 4.13v.4l-.14 2.27.14 15.74.8 2.8 2 3.33 11.73 5.74 6.41 3.73-6.41 12.28-.93 3.6-5.2 8.67-5.6 9.2-4.54 12.41-2.4 3.73-4.53 5.6-8.67 13.07-3.34 3.34-3.07 2-2.13 3.33-1.87 5.21-8.53 13.33-1.47 4.81-7.74 23.07-2.66 12.14-2.27 4.27-2.8 8.4-7.47 11.74-3.73 5.07-41.08-7.21-2.67-.4-9.74-1.6-7.73-.13-16.54-2.54-97.9-15.73-40.95-6.81-7.73-1.2z" stroke-linejoin="round"/></defs><use xlink:href="#d" fill="#09757a" stroke="#00465f" stroke-width="5.76"/></svg>