<svg width="384" height="5.56in" viewBox="0 0 2880 4002" xmlns="http://www.w3.org/2000/svg" xmlns:xlink="http://www.w3.org/1999/xlink"><path fill="#fff" d="M0 0h2880v4002H0z"/><defs><path id="a" d="M1590.63 2735.49l-2.25.63-3 .5-3.12 1.25-2.63 2.12-6.75 8.01-7.76 6.38-5.13-4.51-5.5-2.75-.62.13-2.38 2.37-1.12-.75-.13-.62-.5-.5-6.25-3.38-25.02-12.88-18-9.13-.63-.25-2.12 4.25-.76-.5-17.13-9-1-.5-.75-.63-.87-.87-12.39-11.63-32.39-30.27-22.51-20.88-25.26-24.02-31.39-29.01-19.01-18.01-3.5-3.38 1.38-2.37.5-.75.25-.75.12-.38-.12-.5v-.37l-.13-.38-.12-.37-.25-.63-6.38-10.13 4.88-6.75-.63-1.63 6.63-8-11.51-2.5-.75-1.38-.75-1.13-5.5-6.5-.63-.75-4.62-6.25-1-1.5-1.13-1.75-10.75 9.88-3.76 3.5-12.5 11.25-4.38-14.13-3.25-9.38-8.25-20.76-17.76-45.4-1.5-4-3.38-8.13-.75-1.75-1.38-2.37-2.37-4.01-11.63-18.88-1.25-1.88-1-1.62-11.76-29.39-6.75-15.89-5.01-12.75-1-2.88-11.5-29.51-6.13-15.26-3.25-8.38-2.75-6.75-5.25-12.63-4.13-10.26-1.38.25-2 .13-2.37-.13-3.01-.25-6.12-.37 1-5.63.87-2.13 4.13-27.51-1.25-11.76.25-2 1.5-13.51 6-52.02 2.38-23.01-2.38-8.88 11.26-22.39.12-.37 59.91-47.53 74.78-59.4 4.38 6.63 7 3.75.75.62.38.38.12.5 1.5 5.63.38 1.37 1.25 4.75.37.88.38.87.75.63 9.88 6.88-3 6.38-.75 1.5-1.75 3.25-8.51 14.26-1.25 2.25-1 1.87-1 2.38-.5 1.12-1 2.51-2.38 5 12.01 7.5 8.63 5.38 5.38 3.88 8.5 7.5 6.88 6.88 4.75 3.88 8.76 5.62 7.25 3.63 3.25 2.13 2.75 2.12 5.76 4.63 3.37-5.5 56.15 42.77 10.63 8.75 24.77 23.77 12.13 8.37-2.63 3.63-11.88 15.88 15.76 12.39 6.5-8.88 8-11.26.63-.37h1.37l1.51.5 11.13 4.62 3.62 1.63 1.75 1 1.13.75.62 1.37v1.13l-.25 2-2.25 11.51-.87 2.62-1.88 3.63-.12.25-1.75 3.88 3 10.25 1 3.5 3-.25h5.13l.37-2.12 3.25 2.25-.25 2.38.13 3.25 1 4.87 1.75 2.63 1.75.88-2.5 2.25-3.13 6.25-.62 1.25-1 1-.63.63-1.12.62-1.5.63-1.38.25h-5.63l-1.25.12-1 .25-.75.25-.25.13-1.25.75-2.13 1.25-1.12 1-.75.87-.88 1.76-.75 2.37-.62 2.5v1.75l2 7.88.87 2.75.5 1.38.25.63.88 1.5.5.87.87.5.5.25.88.5 1.25.13 1.5-.13 1.25-.12 7.01-2.38 1.62-.37 1.25-.25h1l1 .25 1.25.62 1.13.75.87 1 1.76 1.88-2.63 7 1.5 1 .75.5 11.01-12.38v4.88l-.13 1.37 25.01 18.76 8.63-12.5 22.64 17.63 8.5-12.51 7.88 5.88 4.38 3.25 1.5 1.13 10.75 8.25 12.51-18.88 5-7.13 10.26 7.25-8.88 17.39-1.75 3.25-1.5 2.5-1.76 2.75-1.62 2.25.75.63-17.51 24.01.75.63-3.88 5.87-6.75 10.01-4.5 6.88-1.38 2.5-1.37 2.63-1.5 3.12-2.25 5.5-4.13 9.26 7.25 7.75 22.51 15.39 9.51 3.25 3-1.13 17.13 11.01-8.88 5.5-3.37 2.5-3.01 3.13-1.12 2.12-.13 1.25v3.88l-1.37.38-2.88-.25h-2.37l-1.13.37-.62.5-4.01 7.38-1.25 1.25-1.87.25-2.88-.62-2.13-.13-2 .63-.37.75v1.37l.12 1.88-.12.87-2.38 4.63-.62 1.25-1 1.13-2.38.87v.75l.88 4.01-.25.87-.25.5-7.76 15.88-3.37 6.76-1.76 4.25-1.5 2.38-.12.37-.25 1.63 1.37 3.5.13 2.5-.75 2.75-1.75 3.75-14.88 25.52-4.26 8.75-.62 5.88.62 5.25 3.76 8 7.62 15.76 2.51 5.26 1.62 6-.37 5.25-1.63 1.5-.25 1.38.25.87 17.88 33.39-3.62 2.88-.5 2.13 2.25 4.25.87 2.25-.12 1.75-.5.25-2 1.5-13.26 3.25-8 1.75-.63.38-3.25 2.25-3.25 3.25-1.5 4.88-1.38 16.88-1.75 5.38-.25.38-.62.75-1.5 1.12-1.76.5z" stroke-linejoin="round"/></defs><use xlink:href="#a" fill="#cee3e4" stroke="#cef5f5" stroke-width="5.76"/><defs><path id="b" d="M1209.2 930.72l2 15.5 1.5 10.01-13.25.25h-.88l-3.12-24.26-14.51 1.62 3.5 23.14-5.5.37-8.63.5-2.88-22.63-.62-4.88-2.25-19.13-.63-4.01-2.13-14.88-1.75-12.01-.87-5.25-4.38.88-23.13 4.88-2.13.5-1.38.25-1 .12-1.12-.12-1.25-.38-1.75-.62-4.26-2.01-12.63-6.5 4.26-10.88 1.87-5.25 1.75-6.88 1.38-6.38 1.62-7.5 1-6.13.13-.75.12-.88.75-5.87.88-8.88.25-2.88.37-9.38v-4.88l-.12-2-.13-.25-.25-3.25-.25-3-.12-1-5 1.37v-8.25l-.13-18.89-.12-7.87-.25-6.38-.63-5.5-.62-4.38-.13-1.38-1.12-5.63-.88-3.87-.88-3.25-.12-.88-1.13-3.88-.75-2.5-.75-2.25-1.75-5.5-4.25-12.38-.5-1.38-2-6-2.5-8.13-2.13-8.13-.5-1.88-1.5-6.25-.87-4.5-.75-3.75-.38-1.63-.5-2.88-1.13-6-.37-2.37-.5-2.51-2.38-13.25-.25-1.75-.62-4.38-.25-2.25-.25-4.25-.38-6.76.63-1.37.12-.75-.12-17.64v-2.87l-.25-8.88h-14.51l-.37-9.51v-4.87l-.13-3.01.13-3-.13-8.63-.5-22.51-.25-11-.38-11.26-.12-1.38-.13-1.25-.25-1 .75-.62.76-.63 1.12-1.25 2.63-3.12 9-10.26 1.13-1.37 2.5-2.88 2.37-2.63 4.38-4.37 7.63-7.26 4.38-4.25 9.13-8.76 1.75-1.75 1.87-1.5 1.88-1.25 2.63-1.5-13.89-5.63 1.13-.87.37-.88.5-3.75.5-2 2.38-3.13 1.63-1.25 4.12-2.37 6.26-3.63 3.5-1.5 4.38-2 22.38-10.13 2.88-.38 1.87-.5 1.13-.5.5-2-.75-3.88v-.62l.62-.88 1.88-1.37 26.89-15.51 5.25-4.25 2.63-1.25 1.87-.38h1.38l.62.38.25.25 1.25 1.62 1 .38 1.13-.13.38-.12 4.12-1 1.25-.13 1.13.5 1 .88 2.5 2.88 1.88 1.37 1 .5.75-.12h1l2.25-1.13 1-.12 2 .25 1.75-.38.88-.5.75-1.13 1.12-4.12 1.13-2 1.12-1.13 8.26-.75 6.5-1.63 2.63-.62.62.12.5.76.13.25v.62l-.13 1-1 3.75-.87 2.13.12 1.12 1.88 1.13 3.37 2.5-.75 5.5-1.25 5.01-.37 1.75-.63 3.25 1-.5.38-.25 1.25-.5 1.37-.38h1.38l1.5.25 2.13.75 3.25 1.5 3.25 1.63 2.5 1.38 2 1.25 2.75 2 2.63 1.87 2.75 2.13 1.25 1.13 3.75 3.75 2.75 3 2.13 2.5 1.5 2 1.5 2 2.38 3.5.37.63 2.13 3.5 9.25 18.26 1.88 3.5.75 1.13 12.51-1.38 4.12 20.14 1.63 9.75 4.75 25.64.13 2.13.25 2.25.12 1.87-.25 3-1.25 13.26-.12 1.13v1l.12 1.12-7.38 2.38-2.12.62-2.01.5h-2.12l-1.13-.12-2.5 12-.37 2.13-.25 1.75-.25 2.25-.5 13.13-1 16.01-.38 5.13v1.63l.38 1.5.37 1.37 4.13 7.88 2.37-.87 2.01-.88 13.25-5.5 9.76 24.76 5.62 14.51 3.38 8.5 2.13 5.13 5.62 13.88 9.76 25.14-13.26 5.88-10.25 4.87-.38-.87-.25-.88-.25-1-4.12-22.01-.76-3.75-.25-2.75-.25-4.13.13-5.75v-2.13l-.25-.87-.13-.63-.75-1.12-.87-.75-1.13-.5h-1.87l-2.13-.13-7.75-.25v8.38l.62 22.26.5 15.51.13 4.5.12 4v17.14l.25 24.13-.12 4.51.12 2.75.13 1.37.25 1.5 1.75 8.38 1.5 7.01 3 13.38.5 1.62.63 2.38.62 2 6.38 18.13 5 13.76-1.62.38-6.13.75-10.88 1.5-2.88-10.26-.37-.75-1.88-1.87-11.63-5.26-3.13-1.5-12.25-6.13-14.51-7.12-3.12-1.5-11.89-5.76-4.37-2.25-10.76-5 3.25 22.14 1.75 13.88 1.13 8.13 1 5.5.25 1.62-12.63.25-3.25.25-7.76.25-3.12.26h-.63l-7.25.37h-5.38l-22.76 1 1.75 11.88 2.63 17.64 2.37 16.38.75 5.25 2.76 19.64 2.37 17.88 1.25 10.01z" stroke-linejoin="round"/></defs><use xlink:href="#b" fill="#cee3e4" stroke="#cef5f5" stroke-width="5.76"/><defs><path id="c" d="M1669.67 754.63l-1.25-.5-14.51-6.76-.75-.5-2.5-1.37-3.5-2.25-5.25-3.63-10.88-7.75-4-3.01-3.75-2.62-4.51-4.5-5.12-3.88-4.13-2.5-.63-.38-.62-.37-1-.63-3-1-6.76-2.62-10.13-3.01-13.88-4-11.75-3.75-1.76-.38-13.5-3.87-.5.75-5.13 6.5-6.13 8.13-.87 1.25-.63 1.13-.75 1.5-.62 1.62-.25.75-.13.88-.12.87v.75l.12.63.13.75.5 1.63 2.5 6 .5 1.37.25 1.26v6.62l-.13 2.63v4l-.12 1.13-.38 1-.37 1-1.63 3.5-1.25 2.63-1.5 2.87-1.13 2-.75 1.13-.62.88-1.38 1.62-1.5 1.25-1.37 1-1.63.75-5.5 3-13.76-11.13-12.88-10.38-2.5-1.87-.75-1-.75-1.25-4.5-8.76-2.38-5.5-2.38-4.63-1.12-1.87-1.25-1.88-32.27 18.01-4.12 2-.5-1.25-.5-1.25-1-3.5-22.27 8.5 6.51 20.14-33.64 12.25-24.26 8.88-4.26 1.5-6.63-20.63-5.25 1.87-6 2.63-9.63 2.88-1.5-7.01-1.75-8.38-.25-1.5-.13-1.37-.12-2.75.12-4.51-.25-24.13V705.1l-.12-4-.13-4.5-.5-15.51-.62-22.26v-8.38l7.75.25 2.13.13h1.87l1.13.5.87.75.75 1.12.13.63.25.87v2.13l-.13 5.75.25 4.13.25 2.75.76 3.75 4.12 22.01.25 1 .25.88.38.87 10.25-4.87 13.26-5.88-9.76-25.14-5.62-13.88-2.13-5.13-3.38-8.5-5.62-14.51-9.76-24.76-13.25 5.5-2.01.88-2.37.87-4.13-7.88-.37-1.37-.38-1.5v-1.63l.38-5.13 1-16.01.5-13.13.25-2.25.25-1.75.37-2.13 2.5-12 1.13.12h2.12l2.01-.5 2.12-.62 7.38-2.38-.12-1.12v-1l.12-1.13 1.25-13.26.25-3-.12-1.87-.25-2.25-.13-2.13-4.75-25.64-1.63-9.75-4.12-20.14-12.51 1.38-.75-1.13-1.88-3.5-9.25-18.26-2.13-3.5-.37-.63-2.38-3.5-1.5-2-1.5-2-2.13-2.5-2.75-3-3.75-3.75-1.25-1.13-2.75-2.13-2.63-1.87-2.75-2-2-1.25-2.5-1.38-3.25-1.63-3.25-1.5-2.13-.75-1.5-.25h-1.38l-1.37.38-1.25.5-.38.25-1 .5.63-3.25.37-1.75 1.25-5.01.75-5.5.38.38h.75l.62-.38 1.25-5.75.51-5.13.75-.25 1.5.75 1.62 1.88 6.38 5 1.88 1.88.87.37.63-.5.37-.75v-.88l-.37-1.12-2.75-3.75-.88-1.5-.25-1 .25-.88.5-1.5 3.13-4.75 1.87-1.5 2.13-.63 1.62.38 1.88 1.75 1.25 3 .5 3.75-2 6.63-1.13 4.5.38 1.25.75.25 1.38-.12 1.62.25 1.13.75 3 4.37 1.62 1.26 1 .37.63-.62.38-.88-1.38-2.38-.75-.75-.63-1.37-.25-1.88.5-2.12-.12-1.26-1.25-4.75.25-.87.75-.38.75.38.5 1.12 3.75 14.26.5.75 1 .88 2 .12 1.88.38 1.12-.13 1.38-.37.13-.38.12-1.38-2.88-8.12v-.5l.88-.5 1-.25.25-.38-.13-.63-2.25-6.5.13-1.25 1.5-1.12 1.13-.13 1.25 1.5 5.12 16.01.63.87.62.38 1.13.12h1.63l2.12.5 1 1.51.5 1.62 2.13 4.75 1.12 1 1.13.5.87-.12.5-1.25-1.5-7.88v-2.75l.88-2.38.75-1 1-.75 1.75-.75 3.88-.62 4.25.87 4.38 1.13 4.25.25 4.38-1.13 5.5-2.5 3.25-2 1.75-.38 3.88 1.25 2.12-.37 3.26-1.25 2.25-1.88 3.87-4.75 1.63-4.38 4.13-4.12 1.12-2.13.13-1.38-.13-1.75-.87-2.12-.25-1.88.5-2.12 1.62-3.26 1.75-1.75 3.5-1.75 4.26-1.75 4.75-.87 2-1.63 2.5-.75 2.63.5 3.75 2.5 1.12.5.38-.25.25-.75-.13-.87-2.75-3.51-.87-2.12-.25-1.38.5-1.37 3.25-2.88 16.38-16.26 1.13-.12 9 15.75 1.25 1 1.63 1.01 1.37-.38 3.01-2.13 1.87-2 .63-1-.13-1.12-3.12-6.51.12-1 .25-.75-.25-2.37.25-1.25 1.13-.63 1.37.88 4.88 8.88.62.37.25-.25.25-.62-.12-.88-2.5-5.75v-.75l.37-1.38-.75-3.5-3.62-7.25-.38-1 .25-.63 1.25-.13 1.5.63 6.26 10.26 1.37 1.5 1.25.87 3.38 4.63.37 2-.12 1.75v1l.5.5 1-.12 1.25-.63.38-.75-.38-1.12-6-10.64-1-2.25v-1.5l.75-1.12 1-.25 1.62 1.5 3.76 7.88h.75l.75-.13.25-.62-.25-1.25-2.38-4.13-6.13-9.13-.87-1.5v-.88l.37-.62.88-.88v-.37l-1.25-2.75v-.5l.37-.38.88.25 1.62 2.13 9.51 15 1 .88h.87l1.25-.75 1.75-1.88.13-.37-.5-1.13-10.88-17.63v-.75l.25-.5.87-.13.76.38 11.38 18.26.62.5.88-.25 3.75-3.75.12-.5-.37-.76-11.01-17.75v-.5l.38-.38.75-.25.62.38 11.88 19.01.75.25.88-.51 1.75-2 .63-1.25.62-2.75.13-1.5-.13-1.37-.87-3.38.25-1.38.25-.87v-.75l-.25-.63-.63-.37-1-.25-1.25.12-1.75 2.63-.25.12-.38-.25-.12-1.12 7.13-20.64.75-.25.62.13.25.5.13.75-.63 1.75.13.87.87.75 1.13.63h.87l1-1.75.75-.38h.88l.25.63-.37 1.62-1.38 3.13.12 1.5.75.13 5.76-7.88.5-1v-.63l-3.13-6.5-.37-.88v-1l.87-2 13.26-11.88 1.87-.87 1.5 1.5 1.63 2.37.63.25 1.12-.62 3.88-4.25 1.75-2.01.12-1-.5-1.12-1.12-1.75-.5-1.25v-1l3.62-4.13 7.76-9.76 1.25-.25.62.38 1.13 1.25.5 1.38-.12.75-.88 1.5v.75l.5 1.12h1.13l4.62-5.25 4.13-3.88 9.25-5.25 8.38-4.88 3.75-1 10.63-2.25 2.63-.62 8.76-2.13 21.13-4.75 17.01-5.38.75 3.38.75 2 .12 1.5 10.38-4 2.13-.75 9-2.63 3.38-.38 2-.12 1.88.12 2.37.13 4.88.63 3 .5 4.25.62 3.63 1 .25.13 3 .87 3.13 1.13 3.38 1 6.25 11.13 1.25 2.5 11.51 20.51-3.13.37h-2.63l-31.76-3h-2.13l-2 .38-13.13 4.5-2.38.63-.75-.13-.87-.62-.63-.88-.37-.75-1.88-5.25-2.25-6.13-1.25-2.63-2-3.37-.88-1.38-.62-.5-.63-.37-1.37-.5-1.25-.76-2.51-.62-2-.5v1.75l-.12.88-.5 3.25-1.25 3.5-1.25 1.75-1 .62-4.13 1.63-13.38 5.5 7.5 19.01 3 7.26 6.76 17.01 1.25 3.12 5.63 14.51 3 7.63 10.25 26.64 6.63 18.01 2.88-1.26 3.75-1.75 2.12-1 5.88 15.39 4.38 11.75 3.88 10.76 1 4.37 13.13 31.77 4 10.26 2.38 6.5-8.63 1.87-14.51 3.51-15.13 3.25 15.38 39.89 6.75 17.01 9.01 23.14 2.25 6.88-1.38.37-1 .38.25 2.5.25 1.37.38 1.75.62 1.63.88 2.13 1.5 3.25.87 1.75 6.88 15.38 9.88 22.89 2.13 4.88 6 14.75 5.75 13.63 2.5 6.51 3.51 8.63 6 15 5.13 12.26.5 1.25 4.62 11.38.75 1.75 1.26 3.13 1.12 2.88 1.38 3.75.37 1.37.5 1.75.13 1.51v1l-.13.62-.25.88-1.25 2.37-.87 1.5-.88 1.25-1.75 2-3.25 3.88-3.5 4-5.51 6.26-4.5 5.12-2 2.13-1.63 2.13-2.75 3-1.87 2-1.25 1.12-4.13 3.38-6.13 4.88-8.25 6.63-2.88 2.25-14.76 11.75-2.5 2.01-1.62 1.62-.63.88-.25.5-.5 1z" stroke-linejoin="round"/></defs><use xlink:href="#c" fill="#cee3e4" stroke="#cef5f5" stroke-width="5.76"/><defs><path id="d" d="M1066.76 3270.26l-4.25 8.63-5.63 14.01-3.88-11.64-19.38-15.88-5.38-6.88-50.02-65.15-.5-.75-.63-.75-50.15-76.29 25.64-25.39-22.64-28.14-18.75-23.14-20.89-26.01-7.38 6.88-1.75 1.88-1.5 1.37-2.5 2.63-4.13 4.5-4.25 4.88-4.25 5.25-.75-.63-.75-.75-1.25-1.5-1.13-1.75-2.63-4.25-5.87-8.25-4.01-6.26-8.62-13.13-9.38-13.26 1-1 .87-.75 1.5-1.75 1-1.37 1.13-1.38 1.75-3.13 2.5-5.25 2.5-5 1-2.38 1-1.75 1-1.87.75-1.13 1-1.37 1-1.51 1.13-1.25 1.13-1.25 1.12-1.12 2.13-1.5-4.25-6.88 5.37-4.13 6.13-5 6-5.13 2.76-2.5 3.12-3 5.5-5.38 1.51-1.5-2.88-4.63-1.75-2.87-2.25-3.51-23.01 18.39-2.26 1.25-1.25.63-1.25.5h-1.25l-.87-.13-1.25-.12-1-.51-2-1.37-.88-.75-.5-.75-.5-.63-.5-.75-.63-1.25-29.01 21.14-2 1.87-.75.75-8.26-13.5-8.75-13.76-7.88-13.26-8.13-14.25-8.13-13.76-8.12-13.38-7.76-14.26-7.63-13.88-7.63-13.38-8.62-14.64-8.13-13.63-4.88-8.5-.63-1.13-6.12-10.13-6.01-9.38-1.5-2.37-8.75-15.76-3.88 2.38-3.88 2.62-8.25 5.25-11.63 7.38-14.01 9.26-9.38-13.88-7.37-13.76-2.38-4.63-5.5-10-15.14-27.14-5.5-10.88-11.88-21.89-8.38-14.76-8.13-15.13-9.25-17.76-8.63-15.13-7.38-15.38-1.37-3.88-.88-2-3.75-6.88-1.63-2.12-2-1.88-.62-1.63-1.38-1.75-1.88-4.5-2.12-5.13-4.5-10-3.76-6.88 40.15-28.64 5.38-3.25 5.37-1.38 21.64 4.76 5.88 1.62 6.63-3 11.25-10.76 6.75-6.87-3.75-6.38-1.37-1.75-3.76-4.13-2-1.5-2.62-2.13-1.25-1.12-1.63-1.63.88-1 .5-.75 1.5-1.75 1.62-2.75 2.38-3.75 1.62-2.63 1.76-2.88 2.75-5 2.62-5.38 2.25-4.37 1.88-4.01 3.75-7.25.75-1.37.63-1.38 5.13-10.01 6-12.38 4-2 12.88-28.51-2.75-2.38-.88-.87-3.25-2.63 5.63-12.38.5-1.13 1.25-2.87 8.01-18.76 4.25-9.88 10.63-15.89 1.75-4.25 1.75-4.37 1.75-4.38 1.75-4.38 1.75-4.25 1.13-3.25 1.37-3.38 1.63-4.5 1.75-4.63 1.63-4.25 1.62-4.5 1.75-4.38 1.5-4.38 2.5-6.63 3.38-9.5 2.38-6.88 2.25 4.63 3.5 6.75 2.5 5 16.63 34.27 6.76 14.26 2 4.5 1.87.13 4.13.5h1.63l3.87-.38 4.38-1.13 1.75-.5 1.5-.5 1.5-.37 1.63-1 1.12-.75 1.25-1.13 1.38-1.5 1.25-1.62 2.38-4.01 2.75-6.37 1.25-2.76 1-2 1.12-1.75 1-1.62 1.13-1.63 1.25-1.5 1.25-1.25 1.5-1.38.13-.12 1.62-1 2.25-1.38 12.14-6.38 7.25-3.75 1.25-.87.5-.25 1.5-1.25 1.63-1.25 2.12-1.88 2-1.5 1.5-1.25 1.75-1.25h.13l2-1.38 15.63-8.75 1.13-.88 1.25-1.12 1.62-1.38 1.38-1.75 6.25-9 2.38-3.38 3.88-4.5 2-1.75 2.37-1.75 3.26-1.76 4.12-2 1.75-.75 2-.87 2-.75 2.13-.63 1.88-.37 2.37-.13h2l1.88.13 2.13.37 2.75.38 4.37.87 3.01.63 4.12 1.25 9.26 2.5 1.12.37 19.14 5.38 6 1.5 4.5 1 8.88 2.38 2 .5 1.5.75 1.5.88 4.13 2.25 3.88 2.12 3.37 1.88 1.63.75 1.38.62 1.12.51 4 1.37 2.88.88 2.25.62 1.75.38 3.38.5 3.37.25 3.51.12h3.37l3.5.13.13-3.5 1.12-11.39.13-18.63 3.88-1h1.37l1.25-.38.75-.87.25-.88-.25-1-3.5-.62-1.12-.63-1.13-1-.37-1.12-.25-2.13-.26-.62-.75-.63-.75-.88-3.37-11.13-.13-1.25.88-3.5v-3.25l.37-1.88.5-1.37.63-1 .62-.38 1.75-.37 10.51 1 .88.5.25.87-1.01 2.25-.87 1.51-.5 1.62-.5 6.5.62 4.76 1.51 5.12 3.87 9.63 3.63 4.38 1.5 3 .37.75 1.26 2.63 1 .75.12-.12.5-.13.63-1.13.25-.5.12-.5.63-2.12.12-1.5v-1.63l-1.12-5.13-2.25-5.5-1.13-4.38-2.88-4.25-.75-1.87-.37-1.76.12-.87.75-1.13.63-1.5 1-12.88.5-1.12 1.25-1.13 1.25-.5 1.5-.5 2-.38 1.38-.62 1.87-.75 2-.88 1.88-1 1.5-.62.63-.38.62-.37 1-1 .5-.75v-2.5l.25-.5.25-.38.25-.25.75-.25 1-.38.75-.5.75-.62.75-1 .63-1.13.25-.25.38-.37.25-.13h.37l.63.13.37.12 1.75.88 8.26 3.12.62.13h1.25l.38-.25 1.87-1.63.63-.37.75-.25 1-.38 1.5-.25 1.13-.25 1.5 6.88 6.37 27.52.75 4.12 1 4.38 1.01-.25 1.5-.75 4.62 18.51-2.5 4.63-.12.62v1.5l.12 1.38.13 1.37 1.37 6.38 2 13.13 4.63 19.39.38.75.37-1.25 5.5 1.12 5.01.13 6.87.25 8.38.37v.38l1.25-.38 9.38 1 2.38.25 3.25.25 4.38.63 2.37.5 1.76.62 3.25.13 3.5.12 5.63.26 6.12.37 3.01.25 2.37.13 2-.13 1.38-.25 4.13 10.26 5.25 12.63 2.75 6.75 3.25 8.38 6.13 15.26 11.5 29.51 1 2.88 5.01 12.75 6.75 15.89 11.76 29.39 1 1.62 1.25 1.88 11.63 18.88 2.37 4.01 1.38 2.37.75 1.75 3.38 8.13 1.5 4 17.76 45.4 8.25 20.76 3.25 9.38 4.38 14.13 12.5-11.25 3.76-3.5 10.75-9.88 1.13 1.75 1 1.5 4.62 6.25.63.75 5.5 6.5.75 1.13.75 1.38 11.51 2.5-6.63 8 .63 1.63-4.88 6.75 6.38 10.13.25.63.12.37.13.38v.37l.12.5-.12.38-.25.75-.5.75-1.38 2.37 3.5 3.38 19.01 18.01 31.39 29.01 25.26 24.02 22.51 20.88 32.39 30.27 12.39 11.63.87.87.75.63 1 .5 17.13 9 .76.5 2.12-4.25.63.25 18 9.13 25.02 12.88 6.25 3.38.5.5.13.62 1.12.75 2.38-2.37.62-.13 5.5 2.75 5.13 4.51-6.13 5.5-4.75 4.63-1.62 1.5-7.26 9.38-3.25 4.25-5 6.63-3.5 4.25-1.13 1.5-1.25 2.13-.37 1.25-.25 2.37.87 6.38-.25 1.63-2.25 5.88-2.5 6.25-2.25 4.75-1.25 1.5-.88.5-.75.38-1.62.62-1.88.25-1.75-.12-3.38.87-2.12 4.63-3.13 4.88-2.75 2.75-2.63 2-2.75 3.25-21.13 46.27-1.5 1.88-5.01 2.63-1.87 2.5-6.26 10.5-2.37 6.01-1.5 7.88-1.38 4.5-1.75 2.12-2.5.13-2.63-.75-2-.25-3 2.12-5.38 5.26-2.37 2.75-2 4.13-2.13 5.37-3.63 6.76-2.12 3.37-8.13 13.01-1.88 1.5-1.87.38-2-.5-1.63-1.38-.88.12-.87.75-2 .38-1.13-1.13-.62-1.75-.5-1.62-.5-1.25-1-.13-1.13.25-1.5 1.13-1.5 1.25-1.5 1.87-10.26 12.14-27.63 22.38-2.88 1.25-3.88 2.13-2.87 2.62-7.01 9.01-3.37 5.25-.38 2.75-1.12 1.25-3.88 2-5.38 6.38-4.5 8.26-3 5.37-.88 1.38-3.12 6.5-11.14 14.64-4 6-2.5 3.88-3.25 3.62-3.25 2.25-2.5 2.13-7.38 8.13-1.13 1.25-2.75 1.38-1.87.37-1.25-.37-10.51-7.13h-1.63l-1.5.75-7.37 6.25-.88 1-4.88 5.38-4.87 6.13-1.51 1.75-8.75 13.38-23.14 34.52-8.87 16.63-7.01 14.76-4.38 12.38-1.25 1.12-.87.5h-.5l-.88-.12-1.37-.5-2-1.38-4.13-4-5.75-4.13-1.88-.5-4.75 1.25-4.63 2.26-1.12-.38-1-.75-1.26-3.13-1-2.25-1.75-1.62-2.37-1.5-2.75-1.13h-5.01l-3.37.38-5.38.25-3.63 1-4.25 1.75-3.13 1.87-4.62 3.5-5.88 4.13-1.5 1-3.88 4.13-.62.87-3.63 4.63-1.88 2.25-.62.38-3.63 2.25-2.25 2.38-4.25 5.5-4 3.88-8.38 8.25-4.63 6.5-7.75 13.13-5.38 10.51z" stroke-linejoin="round"/></defs><use xlink:href="#d" fill="#9dc8ca" stroke="#9dd7f0" stroke-width="5.76"/><defs><path id="e" d="M527.75 2474.74l-5.13 2.87-11.25 6.38-3.13 2.25-9.63 10.01-2.25 1.62-1.5.38-1.62.25-1.13-.5-3.25-3.63-8.51-10 2.88-6.63 1-3.38.13-1.62-.25-5.01-1.25-5.62-1.38-2.51-1.88-2.87-1.12-3.13-.88-3.5.25-4.75.25-2.13 2.75-10.88 1.01-3 .12-1.38-.12-1.5-5.88-17.01-.25-2.37 1.25-6.88.12-4.25.63-2.88v-1.88l-.38-2-1.75-4.75-1.12-2.12-1.5-2.76-4.26-6.87-2.5-6.13-1.12-5-.25-2.13v-6.75l1.25-6.01.75-9.88v-6.5l-.75-12.51.12-10.25.63-6 1.12-5.76.25-15.88 1.38-17.76.12-7.38.38-3.75v-10.88l.37-2 2.01-3.88.62-1.37.38-2.01-.25-2.62-1.38-6.5-.5-3.76.13-3.12 1.62-10.63.88-5.88 1.75-6.88 1.62-4.25 3.38-4.13 3.88-3.25 1.75-3.25 2.62-7.38 1.88-3.13.62-.62 3.63-3.75 3.13-2.13 4.25-2.13 4.38-1.25 3-1 2.12-2.62 5.76-4.13 5.62-5.38 20.89-10.5 5-3.63 11.01-6.5 10-7.38 1.5-2 1.13-2.76 2.5-9.25 1.63-8.75 1.25-2.76 1.37-1.87 2.63-2.63 3.12-2.62 2.01-4.63 1.12-3.88.75-3.5-.75-6.25-.75-5.01-1.12-10.38.37-1 .38-2.62-.13-.88-.88-1.25-2.25-.37-.75-.5-.75-1-1.25-4.76-1.12-10.25.25-2.5 1.25-1.13 1.62-2.25.38-3.13-2-21.88 1.37-3.88 9.13-5.63 3.5-1.87 3.26-.88 3.87-.25 58.41 21.76 1 .25.5-.12.12-.75.5-2.63.5-.63.63-.12 6.13 2.13.37.37.5.75.13.88.12 3.5.25.87.63.75 5 3.13 4.13 2.38 7.25 2.37 1.87.5 1.88.25 2-.25 1.13-.62 1.25-1.13 5.75-8 3.25-2.75-5-11.88-5-12.38-10.63 1-5.13-.5-5.13-1.26-3.37-1.25-3.76-.62-2.87-.88-6.63-3.62-5.38-2.63-6.75-2.63-4.38-1.62-5.88-3-1.37-1.38-2.25-1-9.13-2.25-16.76-3.63-9.25.13-7.88 1.5-2.13-.5-3.25-3.25-2.13-1.38-3-1.5-4 1.75-.88 3.38-1.5 2.12-2.5.75-2.12-.75-1.63-1.12-2.25-1-2.63.12-2.25.63-1.87.5-4.63 1.87-7.75 3.76-1.13 1.62-3.38 3.75-.87 1-4 .38-6.13-1.38-5-3-3.26-1.62-2.62-1-7.13-.5-2.38.12-6.12-.5-2.51.13-2.37 1.25-4.88 1.75-1.38.25-1.62-.13-2.63-1.62-3.5 1.87-2.12 1.5-4.13 4.51-5.5 5.87-1.51 1.38-2.37 1.12-3.75 1.13-1.88.25-1.5-2.88-1-3.62-.75-6.76.87-10.25.26-2.13.75-1.37 1.5-1.63 1.25-2 1.37-4.5-.5-7.63-2.62-12.51-.13-3 .25-3.13.25-2 .88-3 .12-3-.25-3.63-.5-3.75.25-11.88-.37-3.63-3.76-7-.62-2.5.12-2.25.88-2.5.12-3-.62-3.88-1.38-3-1-3.25-.75-3.63-.37-1.88-.25-9.38-.88-3.5-2.62-16.51-1.76-7.75-4-12.13-4.62-12.76-.38-1.62 1.5-9.51.5-5.88v-1l-.62-2-.5-.62-1-.38-3.76-.5-.5-.37-.5-.5-.12-.63 2.12-14.38.5-.38 3.38-.12 2-.38 1.75-.87 4-2.75 2.13-2.38 1.25-2.75.25-1.5v-2l-.5-3.26v-2.87l.38-1.63 1.5-2.5.75-.25.5.38.75 1.5.87.25.88-.25.75-.63.62-.87.76-2.51.62-.62 1-.38 2.38.13 1.5-.38.87-.37.25-.63v-.75l-.25-1.12-.75-1-4-2.75-1.12-2.63-.25-1.5v-.88l.37-1 2.5-3.75.25-.75-.5-2.25-.75-1.13-.87-.62-2.01-.75-.87-.88-.25-.87.25-.63 9.88-24.13.5-1.13.5-.25 3.13.75 2.37-.13 1-.62.75-.75.38-.88.12-1.25-.5-3.62.25-.88.63-1 3.63-4 .62-1.38.25-1.5 1.63-7.13 2.37-7.25.38-1.63-.5-3.25-.25-.37-1.25-.5-.5-.38-.25-.5-.25-1.62.37-.88 2.63-3.88 1-2.37 1.87-2.88 1.63-3.63 1.5-1.62.63-1 .62-2.63v-1.75l-1.5-4.38-.25-7.38.38-4.37.62-2.25 2.5-11.88 1.75-7.01 1.13-2.62.87-.5h.88l.37.25.5.37 1 1.13 2.26 1 1.87-.25.75-.63.63-.75.25-1-.5-2.38-.63-1.25-7.88-6.63-.87-1.62-1.38-3-.62-2.63.25-2.62 1.37-5.38-.12-1-.75-1.5-2.63-3.76-.87-2-.38-2.25-.37-3.5.37-2 .63-1 .62-.13.88.25.75.75.5.88.5.37.62-.25.5-.87.13-1.13-.38-1.87-.5-.88-1.75-.62-.75-.63-.5-.87-.75-5.13.13-3.13-1.63-7.25-1.63-3.75-1.62-3.5-1.63-6.01-.25-5-.62-8.88.12-3.38.88-3.75 1.87-3.63 2.88-6.75.75-2.62.25-3.01-.12-2-.25-2.37-1.38-7.38-.63-3.63-1.25-13.38-.25-1.38-.37-2.5-1.13-2.25-1.5-1-5.63.25-2.62-.37-2.13-1.38-2.5-4.25-.87-3 5.87-3.13.38-1.63-.5-1-9.38-14.5-4.38-7.13-.5-1.38-.5-2-1-1.62-1.37-1.26-3.51-2-2.62-1.12-4-8.63-2.01-3.88-2.75-4.38-1.75-2.12-3.75-3.5-1.5-.88-3.13-.75-1-1-1.25-2.5-1.62-5.75-2.63-15.64-.88-7.88.25-10.75.51-9.38 1.5-4 2.12-4.63 1.63-5.5.12-2.13.63-1.12.75-.25.87-7.38-.12-1.88.75-1.37 2.25-2.01 1.5-2.62 1-2.5.88-3.38.5-3.88.12-4.37 2.88-15.76.12-2.75-.37-7.13-.5-4.63-2.88-14.76-.75-6v-5.75l.25-1.63.75-2 .5-.5.5-.37.75-.25 2.13-.63 2.75-.13 2.38-.25 1.62-.87.5-.5.13-1.13-.38-1.12-.5-1-1.12-.63-1.88.13-9.38 2.5-1.88.12-1-.37-.87-1-.5-1.25-.5-1.63-.88-5.75-.5-1.63-.75-.5-1.37-.37-1.88-.13-1.37-.87-1.38-2.38-.88-2.88-.25-3-.75-4.12-.87-2.63-.25-1.88.5-1.87 3.75-5.13 1.13-2.5.5-2-.25-2.63-1-2-1.13 1-3 8-2.38 3.01-2.37 1-1.88 1.37-2.75.88-1.5-1.13-3.38-4.75-1.62-1.63-2.88-1.75-.88-.62-4.5-1.75-2.75-1.38-7.25-3.5-11.88-4-8.88-.38-12.51 2.13-1.87.37-2.26-.12h-.87l-1-.63-1.25-.75-.75-.87-.88-.88-1.75-3.75-1.12-4.13-.38-5.5 1-3.25 1-2.25.38-2.5-.38-2.88-1.12-3.25-7.01-5.25-1.87-1.63-1-2.75 1-2.5-.5-3.75-1.75-3.76-1.76-2.87-1.87-3.38-1.38-3.5-1.25-3.5-1.12-4.88.5-1.38.5-1 1.87-.37 1.88.5 2.25 1.25 1.25.25.63-.25.25-.75-.38-.88-.5-.5-1.37-.62-.88-.75-.25-.75.25-.75 1.25-1.13.13-.87-.13-.51-.37-.37-.63-.13-4.38 1.26-1.12.12-1.13-.62-3.5-4.51-2.63-4.12-3.37-7.38-1-2.63-1.5-5.38-4.38-19.13-.75-2.13-1.13-1.25-1.87-.87-4.63-.88-.5-.62-.13-.75.13-.5.88-.63 6.12-2-1.62-8.26-.5-4 .75-3.12 1.5-3.13 2.75-2.63.62-1.5.13-2.37-.38-2.38-.75-2.75-3.12-9.51-.38-2.37.5-3-.25-.38h-.25l-2.87 2.75-1.63 1-1.75 1-2.25.75-1.25.13-.88-.25-.5-1.38-.62-6.5-1.63-11.13-.5-1.38-.5-1.12-2.13-2-.75-1.75-.5-2.26-3.37-24.13-3.63-23.64-1.25-10.5-.75-8.13-.75-7.13v-5.38l-.88-20.63-.12-12.39.37-3.75.25-2.37.38-1.13 1.5-2.13 5-9 .5-1.75.63-2.75.87-3.25.63-1.63 1.12-.88 1.13-.37.75-.75 3.63-8.13 5-9.75 1.63-4.63 2-3.13 1-.75.87-.25 5.13 1.38 1.25-.38 1.13-.5 2.5.38 1.87-.25 1-.5.75-.63.5-.62.25-1.01-.12-2.62-.38-1.88-.75-1.62-1.12-1-1.88-1-.5-.75.13-1.01.37-.75.88-1.5 1.62-1.87 1.5-1.38 1.63-2 .63-.87.5-1.63.37-1.25.25-1.38.25-2-.25-1.75-.37-2.62-.25-1.63v-1.88l.12-1.25.25-1.5.5-1.62.63-1.63.62-1.25.88-2.38.75-2.25 6.25 2.88 3.63 1.62 7.5 3.51 11.01 5.12 3.37 1.63 28.27 13.13 36.76 17.39 57.53 27.01 6.25 2.88 1.75.87-.62 1.75-.25 1v.63l.12.5.63 1.5.87 1.5.88 1.12.5.63 2.75 3 2.75 2.75 2.13 1.88 1.62 1.12 1.63.75 1.63.5 1.75.26 2.37.12h3.38l2 .25 1.88.5 1.12.5 12.13 5.88 2.63 1.37 3.38 1.88 16.13 8.38 11.38 5.88 4.88 2.5 7.88 4 2.5 1.25 1.37.63 2.88 1.62 2.87 1.5 2.38 1.13 1.88.87 2.25 1.25 2.87 1.63 2.26 1.25 2.5 1.63 3.62 2.25 2.13 1.5 2.25 1.5 2.63 1.88 1.62 1.25 2.25 1.75 3.26 2.5 2.37 1.87 1.5 1.38 1.63 1.38 2 1.87 1.62 1.5 2.01 2 4.37 4.51 1.38 1.25 1.25 1.25.75.87 1 1.13 1.5 1.62 2.38 3.13 2.62 3.38 2.13 3 4.75 6.63 3.75 5.87 3.63 6.01 2.88 5.25 1.25 2.88 1.25 3.25 1.25 2.87.87 2.51 1.13 3.25 1.5 5.5 1 3.38.88 4 1.25 5.38.87 5.5.38 4.13.37 4.25.13 6 .12 13.13-.25 47.9.13 8.13v35.89l.12 3.38 11.51-5.25 4.75 1.25 6.63 7.88 12-28.64 6.13-7.51 7-7.87 11.39-9.26 5.75-3.5 5.13-2.25 5.75-1.5 5.63-.5 6.25-.25 14.76.62h.75l1.37.63.75-3.13.88-3.63 4.87-22.13 9.13-41.4-.37-2.12.25-1.75 1-4.76.88-4.37 1.5-6.63 1.25-4.88.87-4.13 2-9.13 8.26 3.01 2.37.75 8.76 3 3.62 1.37 8.88 3.13 4.51 1.5 6.12 2.13 10.51 3.5 3.75 1.12 5.75 2.13-10.38-19.01-.5-6.13-.5-6.25-.12-1.63.25-.75.37-.87.75-.25 32.77 1.75 2.25-9.26 2.88-11.5.87-3.88 10.76 1.25 27.51 3 19.63 8.76 1.38-16.64v-11.75l-.13-8.01-.25-33.26 4.26-1.38 15.75-1.25 11.26-1 2.25 6 61.4-2.12.88-.13 24.39-2.25.37.13.88.87 1-2.37 1.12-2.88.63-1.5.37-1.13.25-1.12v-2.25l-.12-2.76-.13-1.62-.5-4.38-1-11.13-1.12-11.25-.38-3.76v-.87l1-2.13-.12-1.75v-1.12h3.75l12.88-.88 15.26-1.88 5.13-1.12 3.25-1.13 5-1.37.12 1 .25 3 .25 3.25.13.25.12 2v4.88l-.37 9.38-.25 2.88-.88 8.88-.75 5.87-.12.88-.13.75-1 6.13-1.62 7.5-1.38 6.38-1.75 6.88-1.87 5.25-4.26 10.88 12.63 6.5 4.26 2.01 1.75.62 1.25.38 1.12.12 1-.12 1.38-.25 2.13-.5 23.13-4.88 4.38-.88.87 5.25 1.75 12.01 2.13 14.88.63 4.01 2.25 19.13.62 4.88 2.88 22.63 8.63-.5 5.5-.37-3.5-23.14 14.51-1.62 3.12 24.26h.88l13.25-.25-1.5-10.01-2-15.5-1.25-10.01-2.37-17.88-2.76-19.64-.75-5.25-2.37-16.38-2.63-17.64-1.75-11.88 22.76-1h5.38l7.25-.37h.63l3.12-.26 7.76-.25 3.25-.25 12.63-.25-.25-1.62-1-5.5-1.13-8.13-1.75-13.88-3.25-22.14 10.76 5 4.37 2.25 11.89 5.76 3.12 1.5 14.51 7.12 12.25 6.13 3.13 1.5 11.63 5.26 1.88 1.87.37.75 2.88 10.26 10.88-1.5 6.13-.75 1.62-.38-5-13.76-6.38-18.13-.62-2-.63-2.38-.5-1.62-3-13.38 9.63-2.88 6-2.63 5.25-1.87 6.63 20.63 4.26-1.5 24.26-8.88 33.64-12.25-6.51-20.14 22.27-8.5 1 3.5.5 1.25.5 1.25 4.12-2 32.27-18.01 1.25 1.88 1.12 1.87 2.38 4.63 2.38 5.5 4.5 8.76.75 1.25.75 1 2.5 1.87 12.88 10.38 13.76 11.13 5.5-3 3.13 7.26 2.5 5.62 3.5 7.01 2.5 4.75 3.88 6.75 1.62 2.75 1.63 2.38 10.38 13.76 1.25 1.62 1 1.38 1.25 2 6 10.13 7.63 12.88 39.15-15.76 1.12-.5 1.25-.5h1.13l1.12.13 1.13.37 1.38 1 1.12 1.38.88 2.25 3.5 9.01 2.87 8.62 2.63 9.01 4.88 17.63 2.75 10.51 1.25 4.25 2.88 9.63 1.25 4.25 6.25 16.51 2.5-1 3.63-1.38 4.88-1.75 6.37 15.89 2.25.87 1.13 1.13.88 1.12 1 .13 1 1.5.75 1.37-.38 1.13-1.25.5-.75.38-1.25.5-9.25 3.87-1.38.75-.75.63-.5.62-.5.75-.75 1.63-.38.75-.62.63-.75.37-1 .38-.75.25-5.76 1.87-9.5 3.38-21.26 7.75-1.5.63 5.25 15.63 1.38-1 1.37-1 2.25-1.5 2.51-1.63 1.12-.62 1.38-.75 1.12-.63 1.13-.5 1.75-.87 1.12-.38 1.75-.75 1.38-.5 1.63-.62 2.25-.76 1.62-.5 2-.62 3.63-.75 3.75-.88 2.13-.25 1.75-.25 5-.37h3.25l1.63.25 2 .25 1.88.25 1.75.25 2.12.37 2 .5 2.13.63 4.5 1.25 4.88 1.5 2.5.75 2.63.88 1.87.37 2 .38 1.75.37 1.75.38 1.76.37 7.12 2.25-8.12 3.13-.38.38-15.38-2.13 4 2.25 7 3.63 2.5 1.5 3.51 2.12 7 8.26 3.38 5.25 2.25 4.63.5 1 .75 1.87 4.37 12.89 3.01 9.38 4.87 15.38-.37 19.13-2.13 7.38-10.88 24.89-13.75 41.02-2.01 16.88 2.76 16.01-2.13 2.63-2.63 3.25-.5.5-1.37 1-1.25.62-2.13 1.01-1.75.62-4.75 2.13-5.38 2-8.88 3.25.88 4 .75 3.13.87 9.25 4 15.39 4.51 15.38.5.62 1.75 5.38 1.25 4.5.5 2.13.25 1.25-.13 1-.37.5-13.76 3.5-2.5 1 2.38 9.26.5 1.62v1l-.13 1.13-.5.87-1.5.51-19.13 5.25-1.38.25-.75-.5-.5-1.5-1.5-4.51-1.63-7-4.12-15.51-4.13-15.63-4-15.26-4.25-15.13-14.76 4 2.88 10.01 1.25 4.75.5 2.25.12 1.38.13 1.5-.25 1.37-.25 1.25-.25 1-.38 1-.62 1.13-3.63 5.63-13.76 21.13-2.62 3.88-1.13 5.38-.25 1.62-1.13 7.26-.25 1.75-.25 2-3.25 21.89-3.62 23.63-3.13 19.64-.63 4.25-2.37 13.63-5.5 29.02-2.13 12-.63 4.13-.25 2.62v2.01l.38 2.12.75 2.88.75 2.25 1 3 6.25 19.64 1.88 6.5.5 1.62.88 4.63.37 2.75.5 3.38.25 1.63v2.12l-.37 1.88-.63 1.75-.88 1.87-1 1.88-1.87 3.63-2.38 4.87-2.5 5.76-2.88 7.75-.5 1.25-1.25 3.25-.62 2.26-.25 1.87v1l.12 1.75.5 2.13 1.13 4.13 4.5 14.63 3.63 11.5.62 2 .25 1.63v2l-.37 1.5-.38 1.13-1.12 2.5-5 9.25-3.38 6.88-1.75 4-.5 1.25-.5 1.13-.38 1.38-.25 1.37v1.5l.38 1.5.5 1.63 3.5 7.13 1.62 3.37 1.13 2.88.38.88.62 2.25.5 2.75.5 4.13v1.12l1.13 17.63.12 3.13v1.25l-.12 2.25-.5 2.38-1.13 3-1 2.63-.75 1.75-6.38 14.76-.75 2.12-.75 1.88-.87 1.75-1.13 2.25-.87 1.63-1.13 1.75-1.38 2-2.12 3-1.63 2.25-1 1.25-1.37 1.38-1.88 1.75-1.25-1-.88-.38-1-.12-1.25-.13-2.25.13-1.87.12-2 .38-2.63.5-2 .5-2.38.75-2 .75-2.75.5-1.75 1-1.75 2-3.25 3.75-.63 1.5-.25 1.13-9.25 9.13-1.38 6.13-8 25.63-3 14.76-.25 1.63-.5 5.25.87 13.01-6.25 6.12-6.51 14.14-16.75 10.63-2.88 2.75-17.76 11.25-18.88 12.26-5.76 3.88-22.26 13.88-3.25 2.37-6.63 5.51-2 2.12-1.25 1.75-1.75 4.38-.37.88-1.38 6.12-7.75 3.51-.75.37-1.13.25h-1l-7.25-3.25-1.13-.25-3.12-.25-2.63.37-1.63.38-1.25.5-1.12.63-1.13 1.12-.87 1.38-.75.87-.75.63-.75.62-1.51.88-4.62 2-.88.5-1.25 1-.75.75-1.87 1.88-6.51-6.38-5.75-5.13-6.5-5.38-.75-.62-4.88-3.88-6.13-4.75-6.25-4.88-2.75-2.13-2-1.62-2.26-2.13-1.5-1.37-1.5-1.88-1.37-1.75-1-1.5-1-1.5-.75-1.5-.88-1.75-.62-1.25-.5-1.38-2.88-9.13-1.88-5-.75-1.88-2.12-4.37-1.13-2.01-1.37-2.12-1.26-1.75-.87-1.38-1-1.12-1-1.13-1.25-1-1.13-.87-1.25-.88-1.37-.75-3.01-1.63-4.12-2-6.51-3-7.87-3.38-.25.5-.88 1.88-1.88 3.25-.62 1.13-.75 1.12-3.38 5.01-6.63 9 2.63 76.29 11.13 16.38-4.63 28.02 25.39 26.26 14.13 14.51 1 1 13.51 13.88 12.38 12.63 4.5 4.63-74.78 59.4-59.91 47.53-.12.37-11.26 22.39 2.38 8.88-2.38 23.01-6 52.02-1.5 13.51-.25 2 1.25 11.76-4.13 27.51-.87 2.13-1 5.63-5.63-.26-3.5-.12-3.25-.13-1.76-.62-2.37-.5-4.38-.63-3.25-.25-2.38-.25-9.38-1-1.25.38v-.38l-8.38-.37-6.87-.25-5.01-.13-5.5-1.12-.37 1.25-.38-.75-4.63-19.39-2-13.13-1.37-6.38-.13-1.37-.12-1.38v-1.5l.12-.62 2.5-4.63-4.62-18.51-1.5.75-1.01.25-1-4.38-.75-4.12-6.37-27.52-1.5-6.88-1.13.25-1.5.25-1 .38-.75.25-.63.37-1.87 1.63-.38.25h-1.25l-.62-.13-8.26-3.12-1.75-.88-.37-.12-.63-.13h-.37l-.25.13-.38.37-.25.25-.63 1.13-.75 1-.75.62-.75.5-1 .38-.75.25-.25.25-.25.38-.25.5v2.5l-.5.75-1 1-.62.37-.63.38-1.5.62-1.88 1-2 .88-1.87.75-1.38.62-2 .38-1.5.5-1.25.5-1.25 1.13-.5 1.12-1 12.88-.63 1.5-.75 1.13-.12.87.37 1.76.75 1.87 2.88 4.25 1.13 4.38 2.25 5.5 1.12 5.13v1.63l-.12 1.5-.63 2.12-.12.5-.25.5-.63 1.13-.5.13-.12.12-1-.75-1.26-2.63-.37-.75-1.5-3-3.63-4.38-3.87-9.63-1.51-5.12-.62-4.76.5-6.5.5-1.62.87-1.51 1.01-2.25-.25-.87-.88-.5-10.51-1-1.75.37-.62.38-.63 1-.5 1.37-.37 1.88v3.25l-.88 3.5.13 1.25 3.37 11.13.75.88.75.63.26.62.25 2.13.37 1.12 1.13 1 1.12.63 3.5.62.25 1-.25.88-.75.87-1.25.38h-1.37l-3.88 1-.13 18.63-1.12 11.39-.13 3.5-3.5-.13h-3.37l-3.51-.12-3.37-.25-3.38-.5-1.75-.38-2.25-.62-2.88-.88-4-1.37-1.12-.51-1.38-.62-1.63-.75-3.37-1.88-3.88-2.12-4.13-2.25-1.5-.88-1.5-.75-2-.5-8.88-2.38-4.5-1-6-1.5-19.14-5.38-1.12-.37-9.26-2.5-4.12-1.25-3.01-.63-4.37-.87-2.75-.38-2.13-.37-1.88-.13h-2l-2.37.13-1.88.37-2.13.63-2 .75-2 .87-1.75.75-4.12 2-3.26 1.76-2.37 1.75-2 1.75-3.88 4.5-2.38 3.38-6.25 9-1.38 1.75-1.62 1.38-1.25 1.12-1.13.88-15.63 8.75-2 1.38h-.13l-1.75 1.25-1.5 1.25-2 1.5-2.12 1.88-1.63 1.25-1.5 1.25-.5.25-1.25.87-7.25 3.75-12.14 6.38-2.25 1.38-1.62 1-.13.12-1.5 1.38-1.25 1.25-1.25 1.5-1.13 1.63-1 1.62-1.12 1.75-1 2-1.25 2.76-2.75 6.37-2.38 4.01-1.25 1.62-1.38 1.5-1.25 1.13-1.12.75-1.63 1-1.5.37-1.5.5-1.75.5-4.38 1.13-3.87.38h-1.63l-4.13-.5-1.87-.13-2-4.5-6.76-14.26-16.63-34.27-2.5-5-3.5-6.75-2.25-4.63-2.38 6.88-3.38 9.5-2.5 6.63-1.5 4.38-1.75 4.38-1.62 4.5-1.63 4.25-1.75 4.63-1.63 4.5-1.37 3.38-1.13 3.25-1.75 4.25-1.75 4.38-1.75 4.38-1.75 4.37-1.75 4.25-10.63 15.89-4.25 9.88-8.01 18.76-1.25 2.87-.5 1.13-5.63 12.38-2.37 3.5-10.63 16.76-6.63 8.5-5.75 5.76-8.63 5.88-11.38 4-12.26 4.62-4.88 1.76-2.25 1.25-2 1.25-1.37 1-1.63 1.25-2.13 1.87-2.5 2.5-2.62 2.88-2.76 3.5-2.12 3.13-1 1.75-2.25 3.75-3.13-.12-1.37.12-1.13.13-1.75.12-1.5-.12-1.38.12-.37.13-.38.25-.75.75-1 1.25-1.12 1-.88.75-.88.37-1.12.38-1.75.38-1.38.5-1.62.5-1.63.37-1.62.63-1.38.75-6.88 4.25-6.25 4.13-3.13 2z" stroke-linejoin="round"/></defs><use xlink:href="#e" fill="#9dc8ca" stroke="#9dd7f0" stroke-width="5.76"/><defs><path id="f" d="M550.76 1985.99l-.62 2.75-2.13 6.76.88 11.13 1.12 6.25 3.25 11.51 11.26 32.51-.25 3-1 2.26-.13 3.5 1.38 8.13-.13 4.25-.37 4.63-1 4.12-2 5.13-3.38 5.13-2.37 2.75-2.26 2.5-3.25 2.25-19.38 8.51-10.13 2-7.26-1.25-3-.38-1.5.13-2.62.25-14.51 4.25-5.75 3.13-2.88 1.37-9 3.38-1.38-.25-.75-1.38-1-1-2.75.38-.5-.38-.75-2.12.37-1.63 1.38-3.5.5-2 .37-2.88-.25-5.75.38-2.5-.25-2.26-.63-2.62-4.62-8.76-.63-2.62.25-3.25 1.13-3.76 1.75-3.37.62-1.88v-2.5l-1.12-3.25-3.25-3.88-.63-1.37-.62-2.63.37-3 1.25-3.25 1.25-2.38.63-1.88-.38-2.5-.62-1.75-1.5-1.37-1.25-2.5v-3.26l1.75-2.87 1.62-1.75 1-1.88.13-2.75-.88-4.75.25-16.51 1-3.13 1.25-2.5 5.13-7.25 2-3.5 7.38-8.26 2.88-.75h1.75l4.75-.87 7.13-4.38 4.37-1.88 2.13-.87 2.75-.63 3.75-.37 2.88.37 1.88 1.25 1 1.63 1.25 4.5 1 1.5 1.87 1.5 2.25 1.25 2.51-.12 3.12-.5 2.25-1.75 2.38-.88 4.38-.37 8.13.12 2.75.5 1.37 1.5.5 1.5z" stroke-linejoin="round"/></defs><use xlink:href="#f" fill="#9dc8ca" stroke="#9dd7f0" stroke-width="5.76"/><defs><path id="g" d="M460.22 1450.1l1 4.63-.37 2.25-2.88 8.25-1.13 9.26-.12 3.5-.5 1.12-.5.13-.38-.25-.37-.88-1.13-4-.62-1.25-1.88-1.75-1-1.38-2.5-5.75-1-1.37-1-.88-2-1.13-3-3.37-2.38-2.13-2.38-3-4.12-5.75-11.38-11.38-3.13-2.25-5.5-3.63-19.64-17.51-6.13-8.38-2.87-5.75-4.75-11.38-2.51-6.76-2.75-6.37-1.37-2.76-2.5-4.25-6.38-13.63-1.63-5.25-.5-3.25.38-6.01-.25-3.25-.5-3.75-1-3.5-1.75-7.01-.13-8.37.5-5.26-.12-3.5-.63-2.88-1-3.25-1.38-2.75-1.12-3.63-.25-2.62-.13-5-1.37-13.39-1.25-8.25-1.63-7.13-.75-2.62-3.63-5.38-1.12-3.75-.13-.5-.12-5.38.37-3.63 2.51-6.5.87-3.38 2-4.5.75-1 1-.25 1-.25 4.63 1 2.75.87 5.5.25 5.51 1.38 1.87-.5 1.63-1.5.37-.5 1.13-1.38 4.13-3.37 4.75-3.13 3.75-1.5 6.38-3 2.75.37.75.5 1.63 1.25 2.12 1.88 1.88 3.38 1.25 3.5 1.25 4.88 1.12 5.12.38 4.51-.25 3.87-.13 5.25-2.62 10.26-5.75 16.63-1.13 5.76-.5 4.87v4.76l-.75 3.5-1.13 11.75-1.62 10.63-.63 6.13.38 6 2.12 19.76 1.63 9.13 2.25 8.63 3.75 10.01 5.26 11.75 4.25 7.63 1.87 2.63 3.13 4.5 13.51 16.51 9.75 12.51 13.63 17.88 2.5 2.5 1.25 1.5.88 1.75 1 2.88z" stroke-linejoin="round"/></defs><use xlink:href="#g" fill="#9dc8ca" stroke="#9dd7f0" stroke-width="5.76"/><defs><path id="h" d="M696.96 1106.43l-6.63-7.88-4.75-1.25-11.51 5.25-.12-3.38v-35.89l-.13-8.13.25-47.9-.12-13.13-.13-6-.37-4.25-.38-4.13-.87-5.5-1.25-5.38-.88-4-1-3.38-1.5-5.5-1.13-3.25-.87-2.51-1.25-2.87-1.25-3.25-1.25-2.88-2.88-5.25-3.63-6.01-3.75-5.87-4.75-6.63-2.13-3-2.62-3.38-2.38-3.13-1.5-1.62-1-1.13-.75-.87-1.25-1.25-1.38-1.25-4.37-4.51-2.01-2-1.62-1.5-2-1.87-1.63-1.38-1.5-1.38-2.37-1.87-3.26-2.5-2.25-1.75-1.62-1.25-2.63-1.88-2.25-1.5-2.13-1.5-3.62-2.25-2.5-1.63-2.26-1.25-2.87-1.63-2.25-1.25-1.88-.87-2.38-1.13-2.87-1.5-2.88-1.62-1.37-.63-2.5-1.25-7.88-4-4.88-2.5-11.38-5.88-16.13-8.38-3.38-1.88-2.63-1.37-12.13-5.88-1.12-.5-1.88-.5-2-.25h-3.38l-2.37-.12-1.75-.26-1.63-.5-1.63-.75-1.62-1.12-2.13-1.88-2.75-2.75-2.75-3-.5-.63-.88-1.12-.87-1.5-.63-1.5-.12-.5v-.63l.25-1 .62-1.75-1.75-.87-6.25-2.88-57.53-27.01-36.76-17.39-28.27-13.13-3.37-1.63-11.01-5.12-7.5-3.51-3.63-1.62-6.25-2.88.5-.87.25-.25 2.25-1.88 1-.87 1-1.13.75-1.5.5-1.38.13-1.75-.26-2-.12-2.25-1-7.38.62-3.87 2.13-11.51 1.63-6.25 2.37-6.13 1.63-2.88.5-.62 2.37-3.63 14.26-29.77 1.75-3.75 13.38-25.26 12.38-25.51 25.02-48.9 2.12-5.13 3.5-7.25.25-.25.75.25 1.51 1 .75.25.75-.25 4.37-10.26.5-.62 1-.63 1.75-1.62.51-.75 1.37-6.38.5-1.25.88-1 1.87-1 2.38-1 1.75.12 1.37-.5.76-1-.13-.88-1-2.5-.88-4.37.5-1 1.26-.38 1.25.12 1.87.88 4.25 4.25 3.26 1.63 5.12 2.37 4 3.13 7.38 6.5 6.13 5.76 1.88 1.12.37-.25.25-.5v-1l-.37-1.25-7.01-8.13-.62-1.5-2.75-8.13-3.25-7.5-1.25-2.5-2.51-2.75-.62-2.13-.13-2.25.38-1.38 1-1.37 2-2.13 2.38-1.5 4.5-1.12 5.88-1.13 7.25-1h3.75l2.63-.63 7.13.13 1.75-.63.75-.37.37-.88.75-3.12.38-.88.37-.25.5-.12.38.37.75 1.63 1.12 3.87.38.38h.5l2.25-.75h.63l.62.5 1.13 3.63.62 1.12.38.25 5.25-1 .38-.25-.13-1.63.5-.62 8.63-2.88.62-.87-.87-9.01-.88-2.62v-1.38l.25-.62.38-.25.62-.25.75.5.76 1.12 1 2.25 3 8.76 1.75 7 1.75 5.38 1.37 5.25.25 2.38-1 4.62-1.12 2.13-.88 1.25-.62 1.38.12 2.12.75 1.5 3.51 1.5 1.62.88 1.13 1.13 1.12 1.5.75.5.75-.13.63-.5.62-.87.63-.38.75-.25.5.5 1.37 2.88.51.5.87.12.75-.25.5-.5.13-.62-.25-1 .12-.63 3.63.25 1.12 1.13h1.13l.5-.38.62-2 .25-.38.63-.12.63.12.37-.25-.88-5 .13-.87 2.38-4.26 1.12-1.25 1.88-.5 1.12-.25 3 .13 1.26.37 1.25.88 1.87 1.75h.63l.5-.25.12-.5-1.12-5.5-1-6.13.12-.63.75-.37h2l7.51-2.13 3.25.25 2.5.75.75-.12.25-.63.12-1.5-.62-3.25-1.88-6.25-.62-7.01-.25-1.12-.75-1.38-2.13-2-.5-.75v-.87l.38-1.13 1.5-2.13.75-2.25.12-8 1.25-1.25 2.13-.75 2-.38 1.75-.12 2.5-.88 1.5-1.37 1.75-.38 5.01-.75.62.25.25.38.25.75-.62 1.75.25 1.25 6.87 4.63 10.13 5.25 2.01 1.37 1.75 2.25.62 1.51.25 1.5-.75 4.87.5 3.13 1 2.13 1.88 2.25 1.12.25 1.63-1.88 1.63-.25 2 .5 1.25.75.37 2.63-1.25 3.63-.12 1.5 1.12 2 2.75 1.37 2.13-.25 1.5-.75 3.88-5.25 1.75-1.88 2-.5 2 .75 1.88 2.88.25 2.38-2.26 4.87-.75 3.38.38 2.5 1.62 4.75.76.88 1.37 3.5 1.5 1.88.75.5.38-.63.25-3.5.5-.62 1.25-.38.87.63.5 1.87.75.75 9.63-1 .5-.5.75-1.25 1.13-6.13 2.25-8.75.5-2 2.75-14.51-.12-3.25-1.63-6.76-3.25-9.13-.5-2.12-.13-1.75.88-2.25 1.38-2.38 1.25-.37 1.62-.13 4.38 1.5 2.88 2.13 1.25 2.87.75 5.26-3.88 29.64-.5 3.75-.13 2.62.5 2.63.63 1.38.75-.13.38-1 .25-3.38.5-.5 1.87-.5.38-.87v-1.75l.87-1 1.25-.13 2.88.38 2.5-.38.63-1.25v-2.75l-.25-3.25-.25-5.88.37-1.38.75-1.5.38-1.5-.13-7.38.38-2.25 1.75-1.12 1.62.12 3.38 2.75 4 3.76 1.38 1.75.62 1.75.38 3.12-.25 3.63.12 2.75.63 3.63.62 1.88 1.25.87.88-.37.5-1.01.5-3v-11l.37-2.75.51-2.13.62-1.5 1.63-.38 1.5 1.13 1 2.38.12 13.75.38 2.25.62.88 1.63.88.87-.51.5-.87.63-14.76.88-1h1.37l5 2.75 1.88 1.63 2.13 1.25 2.5.62 2.75.25 4.25-.37 6.63-.88 1.75.75.62 2.01-.12 2.12v.88l-2.38 7.25.38 6.75 1 7.26.5 1.62 1.12.38h1.13l.88-.88.5-.75.25-3.12-.25-4.38.37-1.13.63-.37.87-.13.75.25.63.25.87 1.25.88 3.26 1.25 4.87.75 1.38.75.12.62-.12 1.25-.38.26-.5.12-1.5-.38-4.12.13-1.51.5-1.12.5-.25.88.12 1 .88 3.75 11.01 1 2 .25 1.37.12 2.38.13 1.75.62 1.12.88.38h.88l1.25-.5v-.25l.5-1.38.37-2.62v-4.5l-1.25-10.01.13-.88.5-.5.75-.25.87.13.63.5 2.37 6.13.75.87.63.25.87-.25.75-.62.38-.88.25-2.25.25-.62.5-.38 1.13-.37 2.37-.5 1.88.12 7.25 1.88 5 1.62 4.01 1 2.25 1.5.5 1.25.5 1.88.5 3.63-.38 4.62-1.62 11.88-.75 3.13.25 9.13 1.25 7.63.75 1.25.37-.12 1.5-.5 2.38-1.51 1.75-4.5.5-2.25 1.5-3.63.63-2.62.12-1.75.75-3.63.88-1.63 1.37-.12 1.25 1 1.88.88 2.13-.25 1.37-.63.63-1.38.5-1.62.25-1.88-1-8.75v-1.88l.75-1 2.12-.12 1.13.37 1.5 1.25.25.63.75 1.37 12.13 24.52 3.5 14.63.63 1.25.75.25 1.62-.38.38-1 .25-1.75-5.75-32.64-.13-2.75.5-.25 1.38-.38.62.38.75 3.5.5 1.38 1.38-.38 1 2.88.62 5.38-.5 1.12-.87.63-.75 1.5.25.62.37.63 1.63.37.5.75-.5 5.51 1 5.5 1.37 1 3.13 1.13.88.75 1.62.12.25-.37-.25-.88-2.87-5.25.5-.75.75-.25 1.12.12.75 1 .75 1.63h.75l.88-.38 1-.25 1 1.5 1.38 5.01 2 .25.75-.38.25-1.37v-1.88l-.5-2.75-.63-1.38-.62-.25-.88-.12-.75-1.38-.38-1.5-.62-.75-.75-.37-.5.37-1.38.38-.37-.38-.75-1.88.12-1.37 1.75-.5.88-.63.37-1.5-.25-1.75-1.25-4.5-.12-.88.12-.5 1-.12.63.12.5-.12.25-.88-.25-1.87-2.25-8.26-.13-.62-.12-1.63.12-.62.38-.25h.75l.62.5.5 1.62.25.75.5 2.63.38.62.5.38 1.5.25.5.38 1 4.12 4.63 23.01 1.12 2.63 1.38.38.88-.38.87-1.38.13-2.87-5.51-30.14-.12-2.25.12-.5.13-.88.5-.75 1.37.38.38.5 1.13 1.75 1.5 5.75 4.37 25.51.63 2.63 1 .62 2.12-.37 1.01-.63.75-1 .75-2.37-6.38-27.64-.25-2.25.37-2 .75-.75 2.25-.5 2.63-.13 5.88-.37 1.62.87.75 1.75 1.38 6.38.63 1.13.75.5 2.12.5.63.37.37.5 1.75 6 1.13 7.38 1.87 9.38.88 1.63 1.13.25 3.25-.63 4.37-2.25.38-.87-.13-1-1-1.75-1.75-.38-2.25-.63-.37-.75-5.51-22.76-.87-3.87.12-2.38.38-1 .5-.5.87-.25.88.25 1.5.87 1.75 2.13.88 2.88 3.25 15.5 1 1.88 2.5 2.5 1.63 2.88 1.62 3.5.5 3.38 2.13 7.88.75 1.25.5.75 2.5 1.5 2.13-.13 6.25-3.12 6.25-1.13 2.25.5 1.63-.12 1.37-1.01 1.13-2.75.75-3.62.13-1.88.25-2.5-1.63-8.75-.25-1.63-.5-3.75-.63-3.5-.75-2.38-.75-.5h-2.75l-6.38-2.63-3-3.12-4.87-6.76-.38-1.25.13-1.37.62-2 1.25-1.25 2.5-1.63 3-1.5 3.51-1.13 2.5-.12 1.75 1.62 1.25 2 1.75 2.01.87.25h2.38l2.88-.75 2.25-1.51 2-2.37 1.75-1 2-.38 2.5.5 1.5.63 1.38 1.62 1.12 2.51 1.38 5.12-.13 1.38-1 2.5v1.88l.13.37.37 1.38 1.13 1.25h.75l1 .12 3-.62h2.13l2 1.37 1.37 2.88.88.62 3.13.13 1.5.75 2.75 2.25 3.5 5.63 2.63 6.5 1.12 1.75h1.5l.25-.25 2-1.5.25-1.12-.12-1.88-1-3.25-2.63-6.75-1-3.51-.25-3.75.13-2.87 2-7.63v-2.13l-.5-2.63-.63-3.12.25-2.13.75-1.87 1.25-1.13 2.63-1.38 10.88-3.87 3.88-.88 2.12 1 .63 1.5 1 3.38 1.62 2.25 1.75-.25 4.26-1.62 8.25-4.13.63-1.13-.5-6.25.62-2.13 1.13-1.5 2.5-.87h2l2.12 1.12 2.26 1.5 2.62.25 4.88-1 2.5.63 6.63 4.25 2.25.38 2.38.75 1.25.25 1.12-.13 1.25-2 .38-1.13 1.37-8.12.88-2.13 2.88-2.63.87-.25 1-.12 1.38-.25 1.12-.25h1l3.5-.5h3.76l1.12-.63.63-1.37.37-2.38-2.12-6.13-.63-2.37-.5-2.88 1-2.13 2.25-2 3.5-1.12 4.26-.75 1.62.37.75.63.88 3.12.37.75 1.13.25.87-.5 13.89 5.63-2.63 1.5-1.88 1.25-1.87 1.5-1.75 1.75-9.13 8.76-4.38 4.25-7.63 7.26-4.38 4.37-2.37 2.63-2.5 2.88-1.13 1.37-9 10.26-2.63 3.12-1.12 1.25-.76.63-.75.62.25 1 .13 1.25.12 1.38.38 11.26.25 11 .5 22.51.13 8.63-.13 3 .13 3.01v4.87l.37 9.51h14.51l.25 8.88v2.87l.12 17.64-.12.75-.63 1.37.38 6.76.25 4.25.25 2.25.62 4.38.25 1.75 2.38 13.25.5 2.51.37 2.37 1.13 6 .5 2.88.38 1.63.75 3.75.87 4.5 1.5 6.25.5 1.88 2.13 8.13 2.5 8.13 2 6 .5 1.38 4.25 12.38 1.75 5.5.75 2.25.75 2.5 1.13 3.88.12.88.88 3.25.88 3.87 1.12 5.63.13 1.38.62 4.38.63 5.5.25 6.38.12 7.87.13 18.89v8.25l-3.25 1.13-5.13 1.12-15.26 1.88-12.88.88h-3.75v1.12l.12 1.75-1 2.13v.87l.38 3.76 1.12 11.25 1 11.13.5 4.38.13 1.62.12 2.76v2.25l-.25 1.12-.37 1.13-.63 1.5-1.12 2.88-1 2.37-.88-.87-.37-.13-24.39 2.25-.88.13-61.4 2.12-2.25-6-11.26 1-15.75 1.25-4.26 1.38.25 33.26.13 8.01v11.75l-1.38 16.64-19.63-8.76-27.51-3-10.76-1.25-.87 3.88-2.88 11.5-2.25 9.26-32.77-1.75-.75.25-.37.87-.25.75.12 1.63.5 6.25.5 6.13 10.38 19.01-5.75-2.13-3.75-1.12-10.51-3.5-6.12-2.13-4.51-1.5-8.88-3.13-3.62-1.37-8.76-3-2.37-.75-8.26-3.01-2 9.13-.87 4.13-1.25 4.88-1.5 6.63-.88 4.37-1 4.76-.25 1.75.37 2.12-9.13 41.4-4.87 22.13-.88 3.63-.75 3.13-1.37-.63h-.75l-14.76-.62-6.25.25-5.63.5-5.75 1.5-5.13 2.25-5.75 3.5-11.39 9.26-7 7.87-6.13 7.51-12 28.64z" stroke-linejoin="round"/></defs><use xlink:href="#h" fill="#6bacaf" stroke="#6bb4d2" stroke-width="5.76"/><defs><path id="i" d="M844.4 417.21l6.38 5.25 2.25 1.25.38.63v.37l-4.13 1.63-1.88 1.87-.62 1.25-.75 4.76v7.13l-.25 1.62-.5.75-1 .63-2.13.25-.87.5-.38.75-.5 1.62-.5 3.01v8.87l-.37 2.76-.88 1.87-2.38 3.5-5.75 6.01-2.25 1.25-1.75.25-13.01-3.75-.75-.25-7.63-1.63-4.87-1.38-1.25-.87-1-1.13-.75-1.75v-2.25l1.87-3.5.5-1.38.38-1.87-.25-1.88-.88-1.12-1.37-.25-5.13 1.37-2.63 1.13-2.5.62-2-.12-1.75-1-1.25-1.38-1.75-3.13-.88-.75h-2.12l-.38-.5-.25-1-.25-2.37.63-3.13 2.5-7.75.5-1.63-.13-2-.62-2.38-.75-1.12-.75-.38-1.38.25-2.38 2-1.62 2.13-1.63 1.38-1.87.62-1.63-.37-1.37-.75-6.38.37-6.38 1.75-1.38-.12-1.12-.88-1.25-1.75-1.13-1.13-1.62-1.25-1.63-.5-3.13.25-.75-.75-.5-1-1-1.25-1-.87-1.25-.88-.12-1.5 100.04-4.63 6.88-.37z" stroke-linejoin="round"/></defs><use xlink:href="#i" fill="#6bacaf" stroke="#6bb4d2" stroke-width="5.76"/><defs><path id="j" d="M1747.96 1189.72l-24.14 17.63-2-2.25-2.37-2.5-2.51-2.38-12.88-11.63-4.62-4.25-3.13-3.37-.5-.51-2.38-2.37 2.63-3.25 2.13-2.63-2.76-16.01 2.01-16.88 13.75-41.02 10.88-24.89 2.13-7.38.37-19.13-4.87-15.38-3.01-9.38-4.37-12.89-.75-1.87-.5-1-2.25-4.63-3.38-5.25-7-8.26-3.51-2.12-2.5-1.5-7-3.63-4-2.25 15.38 2.13.38-.38 8.12-3.13-7.12-2.25-1.76-.37-1.75-.38-1.75-.37-2-.38-1.87-.37-2.63-.88-2.5-.75-4.88-1.5-4.5-1.25-2.13-.63-2-.5-2.12-.37-1.75-.25-1.88-.25-2-.25-1.63-.25h-3.25l-5 .37-1.75.25-2.13.25-3.75.88-3.63.75-2 .62-1.62.5-2.25.76-1.63.62-1.38.5-1.75.75-1.12.38-1.75.87-1.13.5-1.12.63-1.38.75-1.12.62-2.51 1.63-2.25 1.5-1.37 1-1.38 1-5.25-15.63 1.5-.63 21.26-7.75 9.5-3.38 5.76-1.87.75-.25 1-.38.75-.37.62-.63.38-.75.75-1.63.5-.75.5-.62.75-.63 1.38-.75 9.25-3.87 1.25-.5.75-.38 1.25-.5.38-1.13-.75-1.37-1-1.5-1-.13-.88-1.12-1.13-1.13-2.25-.87-6.37-15.89-4.88 1.75-3.63 1.38-2.5 1-6.25-16.51-1.25-4.25-2.88-9.63-1.25-4.25-2.75-10.51-4.88-17.63-2.63-9.01-2.87-8.62-3.5-9.01-.88-2.25-1.12-1.38-1.38-1-1.13-.37-1.12-.13h-1.13l-1.25.5-1.12.5-39.15 15.76-7.63-12.88-6-10.13-1.25-2-1-1.38-1.25-1.62-10.38-13.76-1.63-2.38-1.62-2.75-3.88-6.75-2.5-4.75-3.5-7.01-2.5-5.62-3.13-7.26 1.63-.75 1.37-1 1.5-1.25 1.38-1.62.62-.88.75-1.13 1.13-2 1.5-2.87 1.25-2.63 1.63-3.5.37-1 .38-1 .12-1.13v-4l.13-2.63v-6.62l-.25-1.26-.5-1.37-2.5-6-.5-1.63-.13-.75-.12-.63v-.75l.12-.87.13-.88.25-.75.62-1.62.75-1.5.63-1.13.87-1.25 6.13-8.13 5.13-6.5.5-.75 13.5 3.87 1.76.38 11.75 3.75 13.88 4 10.13 3.01 6.76 2.62 3 1 1 .63.62.37.63.38 4.13 2.5 5.12 3.88 4.51 4.5 3.75 2.62 4 3.01 10.88 7.75 5.25 3.63 3.5 2.25 2.5 1.37.75.5 14.51 6.76 1.25.5.5-1 .25-.5.63-.88 1.62-1.62 2.5-2.01 14.76-11.75 2.88-2.25 8.25-6.63 6.13-4.88 4.13-3.38 1.25-1.12 1.87-2 2.75-3 1.63-2.13 2-2.13 4.5-5.12 5.51-6.26 3.5-4 3.25-3.88 1.75-2 .88-1.25.87-1.5 1.25-2.37.25-.88.13-.62v-1l-.13-1.51-.5-1.75-.37-1.37-1.38-3.75-1.12-2.88-1.26-3.13-.75-1.75-4.62-11.38-.5-1.25-5.13-12.26-6-15-3.51-8.63-2.5-6.51-5.75-13.63-6-14.75-2.13-4.88-9.88-22.89-6.88-15.38-.87-1.75-1.5-3.25-.88-2.13-.62-1.63-.38-1.75-.25-1.37-.25-2.5 1-.38 1.38-.37-2.25-6.88-9.01-23.14-6.75-17.01-15.38-39.89 15.13-3.25 14.51-3.51 8.63-1.87-2.38-6.5-4-10.26-13.13-31.77-1-4.37-3.88-10.76-4.38-11.75-5.88-15.39-2.12 1-3.75 1.75-2.88 1.26-6.63-18.01-10.25-26.64-3-7.63-5.63-14.51-1.25-3.12-6.76-17.01-3-7.26-7.5-19.01 13.38-5.5 4.13-1.63 1-.62 1.25-1.75 1.25-3.5.5-3.25.12-.88v-1.75l2 .5 2.51.62 1.25.76 1.37.5.63.37.62.5.88 1.38 2 3.37 1.25 2.63 2.25 6.13 1.88 5.25.37.75.63.88.87.62.75.13 2.38-.63 13.13-4.5 2-.38h2.13l31.76 3h2.63l3.13-.37-11.51-20.51-1.25-2.5-6.25-11.13-3.38-1-3.13-1.13-3-.87-.25-.13-3.63-1-4.25-.62-3-.5-4.88-.63-2.37-.13-1.88-.12-2 .12-3.38.38-9 2.63-2.13.75-10.38 4-.12-1.5-.75-2-.75-3.38 2.25-.75 10.25-2.38 7.01-2.5 3.25-.37 5.75-.88 10.51.75 17.01 2.5 9.37.25 4.51-.75 15.63-2.37 4.25-1.13 2-2.25.75-4 1.5-2.38 3.25-1.62 15.76-2.63 13.76-4.75 11.63-4.75 9.25-4.26 7.01-4.25 14.63-10.63 12.88-10.75 10.38-10.01 6.75-5.75 4.13-4.13 9-8.75 1.13-.88 4.75-4 4.38-5.63 2-3.63 7.13-7.75 4.75-4.63 16.51-15.51 1.75-1.12 8.13-5.13 6-2.12 4.38-1 7.25.5 2.63.5 7.63 1.62 9.5.63h10.26l6.25-1 3.75-2.38 6.88-4 3.63-.25 3 .5 4.13 1.37 4.37.38 4.75-1.75 4.26-2.38 4.75-.62 10.88 2 26.51 10.25 4.88 2.5 1.75.25 1.63-1.5 11.75-17.13.25-.38 1-.37 1 .5.38.63.12.87-.37.75-1.5 2-.13.5 1.38 1.38.37.75.13.5-.75 1.37-7.26 10.63v1.01l.25 1 1.13 1.75 5.5 3.62 4.63 4.13 16.63 15.13 5.88 5.13 7.38 6.25 1.62.25 1.13-.62 1.25-2.25 4.13-9.38 5.62-10.01 3.51-2.25 1.87.5 1.13 1.13.87.62 1 2.25.25 2.5-2.12 5.76-1.75 8.88-.13.25.38.75.75.5 2.5.75 4.88 1.75 2.5 1.37 1.25.76 4.12 3.25 2.13 2.25.25.75-.5 1.12.13.63 1.12 1.63.5.12 1.25-.5.63.5 2 3.13.25.62-.13.5-.5.63.25 1.25.88 1.25 1.12-.38.38.25 2.13 3.63.75.5 1.25-.25 1 .63.5 1.5-.75 1.5-.25 1 .5 1.37 2 2.51 2 1.87.25.5.62 1.13.63 1.87-.25 1.38-.88.75-8 3.75-.37.25.12 1.38 1.13 2.87.62.88h.38l4.25-2.38 18.76-8.63.62.13.63 1 .5 1.62-.13.88-.5.37-23.26 10.01-14.88 6.5-1 .75.12.88.88 2.25 1.38 2.63.62.62 5-1.87 34.14-15.89 1 .13.88 1 .75 2.37v.88l-.25.63-4.38 2.12-33.01 14.01-1.63 1.62-.25.5.38 2.26 4.5 10.13.75 1.12h.87l11.01-4.13 2.13-.87.62-.38.13-1.62.62-1 24.64-9.01 1.75-.12.87 1 .5 1.5.13 1.37-.38.63-10.5 3.63-30.64 12.13v.87l1.38 4.13.87.25 29.77-10.76 1.12.13.63.5.37 2.63-.37.75-2.25 1.25-9.63 3.37-12.76 4.88-9.26 3.13-.37.75-.13 1.62 1.13 5.63.63 1.13h.87l42.4-17.01 2.87-.75 1.5.37.75 1.25.38 1.51-.13 1.62-1.25 1.25-39.52 14.51-4.87 1.25-1.38.63-.25.87 2.88 14.26 1.75 7.63.5.62h.75l8.25-2.62 14.51-5.76 22.01-7.38 5.25-1.5 1 .25 2 6.26.25.75.38 2.5-.25.37-27.89 10.13-15.76 5.88-.75.63-.12.75.25 1.75.12.5.88 4-.38.25-11.25 4.63-.13 1.25.38 2.62 1.25 5.13.75 1.38.87.25 2.01-.63 20.26-7.63 15.5-5.87 3.75-1.25 1.01.25.75.75.87 3 .38 3-1 .75-21.89 7.88-15.38 5.5-2.88 1.13-.75.62-.12 1.13.25 1.62 2.87 8.38 1 .5 1.5-.25 12.51-4 31.01-9.88h2.13l1.38 1.38 1.12 3.12.75 4.13.13 3.5-1.88 1-35.64 12.01-6.5 2.25-.5.75 1.25 6 4.25 13.01-4 1.87 1.25 3.88 3.12 8.13.75 2.25-16.25-7.38-1.88 4.38 1.75 6.63-.37 2.37 2.5 8.01 1 5 .75 4.13.37 4.25.13 4.25-.25 5.63-.13 1-2.12 23.76-.13 5.13.13 7 .5 6.01 1.25 7.25.75 4.13 1.25 5.63 1.25 4.87-.63.25-14.25 5.76-1 .37-1 .38-2.5.37-1.26-3.5-1.87-5.38-.63-1.75-.37-1.87-.13-1.01v-1.25l-.37-11.63v-2.75l.62-7.63.13-1.12.12-1.25.5-3.63 1.25-11.01-.62-.12-18.26-3.25 3-27.27-13.5-2-2.26-.37-8.62-1.38-10.76-2 .25 20.26-10.88-.87-2-.13-.75-.12-.5-.5-.25-.75-.13-2.01-.75-13-.37-13.88v-5.26l.12-2.5-1-9.13-.12-6 .5-10.63-.75-4-1-2.38-1-2.63-1.38-2.37-1.75 7.88-.75 2.75-1.75 3-2.75 3-2.63 2.38-1.75 1.62-1 1.5v6.26l-.88 2.75-.87 2.63-3.63 8.87-8.13 20.01-1.87 4.51-1 3.37-2.38 7.26-7.63-4.76-25.01-13.38-5.63 14.26-4.88 11.38-1.25-.25-4.87-1.5-3.13-.88-1 3.88-5.13 20.01-5.38 18.64-1.62 5.75-1 3.63-1.5 5.5-3.75 13.88 22.38 12.38 15.88 8.38 4.51 2.63 6 3.37.87.63.88.62.88 1 1.12 2.01.38 1.12.37.88.25 1.5-.25 2.62-1 1.75-1.25 1.88-3.38 3.5-3.75 2.13-1 .75-.75.62-1 1.51-.75 1.5-1 6.75-.25 1.5v.88l.12.25.13.37v.25l.13.13.12.25.25.12.13.13.25.12h3.37l1.75 13.38-.25 1-.75.88-1 .75-1.5.75 2.13 4.63.12 4.37 4.38 15.76-5.13 6.13-1.87 2-1.13.75-1.13.5-1.25.38-1.5.12-2.5-.5-4.37.63-2.38.5-10.26 1.87 4.01 12.13 2.12 7.01 1.63 5.25 4.25 13.01 1.38 4.62 1 3.51.5 2.37 1.25 5 2.12 10.51 1.38 7.63 1.75 9.25 3 16.76 2-.62 1.25-.38.63-.37.62-.38.88-.87.87-1.38.5-.88.63-1.62.37-1.5.5-1.38.13-1.12.13-1.13v-1.88l-.26-.87-.25-1.13-.37-1.62-.88-3.5 8.01 1.87-.25.38 7.88 9.38 2 8.13.5 2.62v2.38l-.88 2.5-1.25 2.5-1.62 2.38-1.13 2.25-.87 2.37-.38 2.01-3.88 6-.37 1.12-.13.75.13.88.25.5.62.88 1.38 1.25 2.12 1.5 2.76 1.87 1.25 1 .37.75.5.88.13 1v.75l-.38.63-.5.37-.87.38h-1.13l-.75-.13-.75-.25-1-.75-1.63 6.38 11.63 5.63 1.63 11.75 1.38 11.76.25 4.75-.75 3.25-1 3.63-.76 1.87-1.12 2.13-.75 1.38-1.38 1.37 24.77 4.63-1.13 5.75-3.13 15.01-4.5-.88-28.76-5.5-1.5-.37-.88-.25-.87-.63-.88-.87-1-1.25-.88-.88-.75-.63-1-.5-1.5-.37-1.87-.25-2.13.12-1.37-.12-1.26-.13-1.5-.12-1.87-.25-2.25-.5-2.63-.63-1.37-.37-1.38-.5-2-.88-1.5-.62-1.88-.75-1.5-.75-1.25-1-1.75-1.38-1.88-1.38-1.87-1.5-2-1.25-1.88-1-1.62-.75-1.76-.87-1.5-.88-1.5-1-1.75-.87-1.87-1.01-2.63-1.12-1.75-.5-2-.38-1.88-.12-1.75.25-1.37.37-1 .63-.88.75-1.38 1.88-1.37 2.75-1 2-.75 1.75-.5 1.87-.63 2.13-.25 1.88-.12 3.75.37 1.62.5 2.38.38 2.88.25 2.25.12 2.5.25 6.63-.37 2.62 8.13 2.76 1 .37.62.38 3.25 2.25 1 .62 1.26.5 1 .25 1 .25 1.75.25 5.12.25 1.38.38.75.25 1 .37.88.63.5.62.25.88 1.5 3.5 1 4.38 1.12 4.75 1 8.25 9.01 3.13 5.13.38 3.37.37 2.25.38 2.13.62 2.13 1.75 2.12 1.25 2.25.75 1.75.75 1 1.13 14.89 1.38.75-2.76 4.75.88 8.63 1.38 2.62.62 1.38.5.5.38.37.5.25.87.26 1.13-.26 1.12-.37 1.5-1.25 4.26-1.25 3.62-1.13 3.88-1.25 6.13-2.75 8.25-1.12 4.88.5 1.38.75.75 1.12.5-5.25 3.25-1.38 1.25-.87 2.25-.63 2.25-.75 4-.62 3.88-1 3.13 11.88 3.87-5.13 25.77-.13 7.62-13.38-4.12-12.75-3.75-10.01-2.51-3.87-.75-3.38-.62-5.75-.75-7.38-.38-1.75-.12h-7.63l-3.5.12-3.76.13-3.37.25-3.38.5-6 1.12-18.64 5.01-9.37 2.62-1.13.5 4.38 4.38 1.75 1.63 1 1 1.37 1.25 5.01 4.5v1.5l.25 10.13.25 2.38.25 1.87 1.12 2.63 2.38.5 9 .37 1.25-1.12 7.26-4.13 7.88-3.63 3.5-1.25 2.75-.5 2.75.38 1.5.5.5.5.5.37.88 1.51-3.38 1.25-2.63 2-6.12 5.37-3.38 3.26-2.25 2.62-2.88 3.63.5 8.88-.62 1.75v1.5l.12 1.5.13 1.13.5 1.12 1.25 1.63.75.75.75.5 2.37 1.62 1.63 1.01.88 1.12.75 1.38.37 1 .25 1.25-.12 1.5-.88 2.25-5.88 8.38-.37 1.37-.25 1.76-.13 3.5-.5 4.25-.25 4.38-.37 3.62-.25 5.38-.5 3.75.12 1.25.5 1.13.75 1.12.75.5.88.13h.87l1.25-.5 1.38-1.38.63-.75.62-1 .75-2.25.25-1.5.13-1.62-.13-2.38.38-2.38.5-2.37.75-2 1.25-2.51 1.87-3.37 5.63-8.38 1.88-2.13 3.62-4.5 1.38-2.5.5-1.88.25-1.87 3.63-.13 2.37-.75 3.25 3.75v1.5l2.63-1.25-.25 1.13-1.38 3.25-1.75 4-1.12 3.75-.25 1.76-.13 1.75.25 2.75-10.25 19.63-2.5 3.88-1 1.88-.5 1.37.12 1.13.25 1.25.63.87.62.38.88.37-1.63 2.38-1.5 2.38-1.5 2-2.25 1.87-4.5 26.14-4.01 16.88-12.63 1.75-2.5.51-1.75.87-3.37-13.01-.76-1.75-1.12-1-1.38-.75-2.12-1-1.38-.62h-1.75l-3 .5-5.63 1.25-1.12.25-1 .75-1 .75-.63 1.5-.37 1.75.5 2.5 1.62 4.63 1.13 3.38 1.25 2.5 1.5 1.62 1.75 1.63 1.37.87 1.63.25 3.63.25 2.62.13 2 .25-.62 2.63-.63 2.75-.12.62-.63 2.5-.37 1.38-.75 1.37-.75 1.63-.63.75-.75 1.13-2.12 2.62-1.63 1.63-2.75 2.75-3.63 3.38-2.25 2.25-2.13 2.25-3.25 3.25-2.75 3.25-6.38 6.88-2 2.13-8.13 11.75-2.87 3.5-2.63 1.5-18.13 2.26-7.01.62-4-1.87-12.75-8.51-7.88-5.25-1.75-.63-1.5-.25-3.63.75-8.88 3.38-3.25 1.5-10.13 3.88-6 2.12-9.01 4.01-25.26 17.63z" stroke-linejoin="round"/></defs><use xlink:href="#j" fill="#6bacaf" stroke="#6bb4d2" stroke-width="5.76"/><defs><path id="k" d="M1779.1 1721.61l-4.63-3.13-4.25-2.75-4.5-4-1.63-3.88-4.88-11.63-3.87-9-3-6.25-7.01-14.64-.37-.12-3.13-8.26-8.25-9-2-1.25-9.01-3.38-14.25-26.39 13.38-33.64-1-2.5-6.88-2.13-14.26-7-21.26-12.88-8.13 17.51-7.5 18.38-8.26-7-7.62-7.5-11.76-11.76-57.78-57.53 13.38-37.39-1.75.12h-2l-.75-.12h-.37l-.63-.13-.62-.25-.75-.25-.88-.37-3.13-1.38 1-1.88.88-1.87.63-1.75.37-1.88v-2.12l-.25-1.63-.5-3.38-.37-2.75-.88-4.63-.5-1.62-1.88-6.5-6.25-19.64-1-3-.75-2.25-.75-2.88-.38-2.12v-2.01l.25-2.62.63-4.13 2.13-12 5.5-29.02 2.37-13.63.63-4.25 3.13-19.64 3.62-23.63 3.25-21.89.25-2 .25-1.75 1.13-7.26.25-1.62 1.13-5.38 2.62-3.88 13.76-21.13 3.63-5.63.62-1.13.38-1 .25-1 .25-1.25.25-1.37-.13-1.5-.12-1.38-.5-2.25-1.25-4.75-2.88-10.01 14.76-4 4.25 15.13 4 15.26 4.13 15.63 4.12 15.51 1.63 7 1.5 4.51.5 1.5.75.5 1.38-.25 19.13-5.25 1.5-.51.5-.87.13-1.13v-1l-.5-1.62-2.38-9.26 2.5-1 13.76-3.5.37-.5.13-1-.25-1.25-.5-2.13-1.25-4.5-1.75-5.38-.5-.62-4.51-15.38-4-15.39-.87-9.25-.75-3.13-.88-4 8.88-3.25 5.38-2 4.75-2.13 1.75-.62 2.13-1.01 1.25-.62 1.37-1 .5-.5 2.38 2.37.5.51 3.13 3.37 4.62 4.25 12.88 11.63 2.51 2.38 2.37 2.5 2 2.25 24.14-17.63 25.26-17.63 9.01-4.01 6-2.12 10.13-3.88 3.25-1.5 8.88-3.38 3.63-.75 1.5.25 1.75.63 7.88 5.25 12.75 8.51 4 1.87 7.01-.62 18.13-2.26 2.63-1.5 2.87-3.5 8.13-11.75 2-2.13 6.38-6.88 2.75-3.25 3.25-3.25 2.13-2.25 2.25-2.25 3.63-3.38 2.75-2.75 1.63-1.63 2.12-2.62.75-1.13.63-.75.75-1.63.75-1.37.37-1.38.63-2.5.12-.62.63-2.75.62-2.63-2-.25-2.62-.13-3.63-.25-1.63-.25-1.37-.87-1.75-1.63-1.5-1.62-1.25-2.5-1.13-3.38-1.62-4.63-.5-2.5.37-1.75.63-1.5 1-.75 1-.75 1.12-.25 5.63-1.25 3-.5h1.75l1.38.62 2.12 1 1.38.75 1.12 1 .76 1.75 3.37 13.01 1.75-.87 2.5-.51 12.63-1.75 4.01-16.88 4.5-26.14 2.25-1.87 1.5-2 1.5-2.38 1.63-2.38-.88-.37-.62-.38-.63-.87-.25-1.25-.12-1.13.5-1.37 1-1.88 2.5-3.88 10.25-19.63-.25-2.75.13-1.75.25-1.76 1.12-3.75 1.75-4 1.38-3.25.25-1.13-2.63 1.25v-1.5l-3.25-3.75-2.37.75-3.63.13-.25 1.87-.5 1.88-1.38 2.5-3.62 4.5-1.88 2.13-5.63 8.38-1.87 3.37-1.25 2.51-.75 2-.5 2.37-.38 2.38.13 2.38-.13 1.62-.25 1.5-.75 2.25-.62 1-.63.75-1.38 1.38-1.25.5h-.87l-.88-.13-.75-.5-.75-1.12-.5-1.13-.12-1.25.5-3.75.25-5.38.37-3.62.25-4.38.5-4.25.13-3.5.25-1.76.37-1.37 5.88-8.38.88-2.25.12-1.5-.25-1.25-.37-1-.75-1.38-.88-1.12-1.63-1.01-2.37-1.62-.75-.5-.75-.75-1.25-1.63-.5-1.12-.13-1.13-.12-1.5v-1.5l.62-1.75-.5-8.88 2.88-3.63 2.25-2.62 3.38-3.26 6.12-5.37 2.63-2 3.38-1.25-.88-1.51-.5-.37-.5-.5-1.5-.5-2.75-.38-2.75.5-3.5 1.25-7.88 3.63-7.26 4.13-1.25 1.12-9-.37-2.38-.5-1.12-2.63-.25-1.87-.25-2.38-.25-10.13v-1.5l-5.01-4.5-1.37-1.25-1-1-1.75-1.63-4.38-4.38 1.13-.5 9.37-2.62 18.64-5.01 6-1.12 3.38-.5 3.37-.25 3.76-.13 3.5-.12h7.63l1.75.12 7.38.38 5.75.75 3.38.62 3.87.75 10.01 2.51 12.75 3.75 13.38 4.12.13-7.62 5.13-25.77-11.88-3.87 1-3.13.62-3.88.75-4 .63-2.25.87-2.25 1.38-1.25 5.25-3.25-1.12-.5-.75-.75-.5-1.38 1.12-4.88 2.75-8.25 1.25-6.13 1.13-3.88 1.25-3.62 1.25-4.26.37-1.5.26-1.12-.26-1.13-.25-.87-.37-.5-.5-.38-1.38-.5-2.62-.62-8.63-1.38-4.75-.88-.75 2.76-14.89-1.38-1-1.13-1.75-.75-2.25-.75-2.12-1.25-2.13-1.75-2.13-.62-2.25-.38-3.37-.37-5.13-.38-9.01-3.13-1-8.25-1.12-4.75-1-4.38-1.5-3.5-.25-.88-.5-.62-.88-.63-1-.37-.75-.25-1.38-.38-5.12-.25-1.75-.25-1-.25-1-.25-1.26-.5-1-.62-3.25-2.25-.62-.38-1-.37-8.13-2.76.37-2.62-.25-6.63-.12-2.5-.25-2.25-.38-2.88-.5-2.38-.37-1.62.12-3.75.25-1.88.63-2.13.5-1.87.75-1.75 1-2 1.37-2.75 1.38-1.88.88-.75 1-.63 1.37-.37 1.75-.25 1.88.12 2 .38 1.75.5 2.63 1.12 1.87 1.01 1.75.87 1.5 1 1.5.88 1.76.87 1.62.75 1.88 1 2 1.25 1.87 1.5 1.88 1.38 1.75 1.38 1.25 1 1.5.75 1.88.75 1.5.62 2 .88 1.38.5 1.37.37 2.63.63 2.25.5 1.87.25 1.5.12 1.26.13 1.37.12 2.13-.12 1.87.25 1.5.37 1 .5.75.63.88.88 1 1.25.88.87.87.63.88.25 1.5.37 28.76 5.5 4.5.88 3.13-15.01 1.13-5.75-24.77-4.63 1.38-1.37.75-1.38 1.12-2.13.76-1.87 1-3.63.75-3.25-.25-4.75-1.38-11.76-1.63-11.75-11.63-5.63 1.63-6.38 1 .75.75.25.75.13h1.13l.87-.38.5-.37.38-.63v-.75l-.13-1-.5-.88-.37-.75-1.25-1-2.76-1.87-2.12-1.5-1.38-1.25-.62-.88-.25-.5-.13-.88.13-.75.37-1.12 3.88-6 .38-2.01.87-2.37 1.13-2.25 1.62-2.38 1.25-2.5.88-2.5v-2.38l-.5-2.62-2-8.13-7.88-9.38.25-.38-8.01-1.87.88 3.5.37 1.62.25 1.13.26.87v1.88l-.13 1.13-.13 1.12-.5 1.38-.37 1.5-.63 1.62-.5.88-.87 1.38-.88.87-.62.38-.63.37-1.25.38-2 .62-3-16.76-1.75-9.25-1.38-7.63-2.12-10.51-1.25-5-.5-2.37-1-3.51-1.38-4.62-4.25-13.01-1.63-5.25-2.12-7.01-4.01-12.13 10.26-1.87 2.38-.5 4.37-.63 2.5.5 1.5-.12 1.25-.38 1.13-.5 1.13-.75 1.87-2 5.13-6.13-4.38-15.76-.12-4.37-2.13-4.63 1.5-.75 1-.75.75-.88.25-1-1.75-13.38h-3.37l-.25-.12-.13-.13-.25-.12-.12-.25-.13-.13v-.25l-.13-.37-.12-.25v-.88l.25-1.5 1-6.75.75-1.5 1-1.51.75-.62 1-.75 3.75-2.13 3.38-3.5 1.25-1.88 1-1.75.25-2.62-.25-1.5-.37-.88-.38-1.12-1.12-2.01-.88-1-.88-.62-.87-.63-6-3.37-4.51-2.63-15.88-8.38-22.38-12.38 3.75-13.88 1.5-5.5 1-3.63 1.62-5.75 5.38-18.64 5.13-20.01 1-3.88 3.13.88 4.87 1.5 1.25.25 4.88-11.38 5.63-14.26 25.01 13.38 7.63 4.76 2.38-7.26 1-3.37 1.87-4.51 8.13-20.01 3.63-8.87.87-2.63.88-2.75v-6.26l1-1.5 1.75-1.62 2.63-2.38 2.75-3 1.75-3 .75-2.75 1.75-7.88 1.38 2.37 1 2.63 1 2.38.75 4-.5 10.63.12 6 1 9.13-.12 2.5v5.26l.37 13.88.75 13 .13 2.01.25.75.5.5.75.12 2 .13 10.88.87-.25-20.26 10.76 2 8.62 1.38 2.26.37 13.5 2-3 27.27 18.26 3.25.62.12-1.25 11.01-.5 3.63-.12 1.25-.13 1.12-.62 7.63v2.75l.37 11.63v1.25l.13 1.01.37 1.87.63 1.75 1.87 5.38 1.26 3.5 2.5-.37 1-.38 1-.37 14.25-5.76.63-.25-1.25-4.87-1.25-5.63-.75-4.13-1.25-7.25-.5-6.01-.13-7 .13-5.13 2.12-23.76.13-1 .25-5.63-.13-4.25-.37-4.25-.75-4.13-1-5-2.5-8.01.37-2.37-1.75-6.63 1.88-4.38 16.25 7.38-.75-2.25-3.12-8.13-1.25-3.88 4-1.87 5.88 17.51 1.5 5.25.87 4.88.88 25.01 1.25 7.38.5 2.63 7.25 20.26 10.76 29.51 11.75 30.52 4.63 10.5 3.5 8.75.38 2.26-.25.5-2.25 1.75-.5.87v1.13l.12 1.37 1.13 3.51 4.37 12.13 11.76 31.01 1.75 3.38 1.5 2.12 10.76 13.14 6.37 7.88 4.63 5.25 1.13 1.87.5 1.5.75 1.51 2 2.75 4.25 2.87 2.25 2.5 2.88 3.76 15.13 18.51 4.88 3.5.87 1.12.38.88v1l-.75 1.12-2.5 2.88v.88l.5.87.87.88 18.64 11.5.5-.12.62-.25.63-.88 1.12-1.62.88-2 1-1.63.37-.13 13.01 8.13 4.25 2.76.75.12.88-.37.87-1.51 16.39-38.01.75-1.13.5-.38h1.25l5.12 3.26.63 1 .12 1-.5 1.75-16.88 38.14-.25 1 .25 1.38 1.13 1 5.87 3.75.88.38h1l1.38-.88 1.25-1.88 1.87-4.62 2.25-4.76.63-.12.87.37 1 1.01.88 1.5.25 1.62-9.63 23.14-.12 1.62-.63.88-.75.37-1.38.38-1.75-.88-2.25-1.75-1-.37-.87.25-1.75 2.37-.13.88.25.88 15.13 9.88 1.63.12.87-.5 1.38-2.38-.13-.87-.75-1.38-1.25-1.12-3-1.5-.5-.63-.25-.62v-1.25l3.38-7.26.75-.62h.87l1.88 1.87.5 1 .25.88 1.25 2.12.63.38.75-.5 1.25-1.88 1-.37 1.62.5 6.01 3.13.87.25.88-.25.87-1.13 5.26-10.76.5-.12.75.25.37.62.25 1.26-.87 1.37-7.38 14.88-.13.88.38.87 1 1.13.87.25.88-.5.75-.75 1.37.12 5.13 5.51.38.12h.62l1.5-1.75.25-1-.12-.87-.88-1.38-1.87-2-1.25-1.75-.25-.75.25-1.25 4.5-8.26.87-1.25.75-.62.88.25 1.25 1.25 1.5 3.12.25 1.38-2.12 5.38-.13 1.25.38.62.37.25.75-.25 2.13-3.25.5-.37.87-.13.75.38 1.38-.13 1-1 .62-.12.88.37.37.5-.12.88-5.88 10.25-1.25 1.38-1 .12-1.12-.37-.76.25-.62.62-.13.75.25.75.88.88h3l1.63.62 1.75 1.51 1.37 1.12 2.13 2.25 4.25 4.25h-6.38l-1.62-.12-.75 1.12-16.13-4.75-5.88-2.12-19.89-8.01-12.25-7.5-20.89-13.26-19.38-13.13-9.51-5.63-17.01-10.25-3.25-2.63-.87 1.75 1.75 21.26-3.63 7.26-3.12 10.38-2.26 5.37-3.75 6.76-1.75 2.5-1.87 2.37-5.26 6.26-1.5 2.12-1.87 2.38-2 3.25-1.5 2.63-3.51 7.25-1.12 2.75-1.38 3.38-1.5 4-.62 1.13-.63 1.62-.75 2.25-1.25 4.26-1.13 4.87-.87 4.88-.5 3.75-2.5 17.51-1.13 7.01-2.12 11.63-1.5 11.25-6.88 45.4-1.88 12.26-1.75 12.75-3.38 22.39-.5 4-2 12.51-2.62 11.75-4.76 20.26-5.12 18.39-1.13 4.37-2.63 10.63-1.5 5.88-1 3.75-.37 1.5-.5 1.63-.75 2.13-.38 1.87-.37 1.38-2 7.38-1.63 6.63-11.63 41.27-2 9.25-4.38 16.76-3 11.25-2 9.13-1.25 6.38-.75 4.38-1.5 13.38-.63 10.01-.25 10.63-.12 23.38-.38 15.01-.12 4.5-.5 14.51-1 12.51-1.25 10.5-.63 4.38-.87 5.75-.63 3.25-1.75 10.26-1.5 6-2.13 8.88-1.37 4.38-1 3.5-3.13 9.63-8.88 23.51-8.25 16.63-6.13 10.89-3.38 6.12-4.12 7.51-7.38 12.88-7.63 13.01-3 5.25-4.13 7.5-11.01 19.01-3.25 5.88-4 7.13 3.63 1.75 3.62 1.62-7.37 12.89-3.13-1.38-1.75-.88-6.75 12.26.37.88 4.13 2-10.01 17.63-7.75-3.25-.63-.25-9.5-4.13-7 11.76-.5.62-.38.38-.5.37h-.63l-.75-.12-.62-.25-14.01-6.25-33.51-14.51-3.38 7.75-2.25 5-3.13 7.01-10 23.26-1.75 4.38-3.38 8-1 2.25-.75 1.63-1.13 2.62-1.37 2.51-2.25 4.5-2.13 4.25-3.25 6.5-3.13 6.63-.87 1.75-5.51 11.51-1.25 2.62-5.62 11.63-1.5 3.38-3.76 8.26-2.62 5.5-1.75 3.5-.5 1.25-1.75 3.5-1.5 2.88-1.38 2.38-2 3.62-1.88 3.13-2.5 4.13-1.37 2-1 1.62-1.76 2.63-1.87 2.25-2.13 2.25-3.12 2.88-2.63 2.25-.88.87-.87.75-1.5 1.51-2.38 2.12-2 1.88-2.12 2-1.51 1.75-1.37 1.87-11.13 15.01-2 2.38-2.25 3.13-2.63 3.62-2.25 3.13-2.25 3.25-1.88 3.25-1.75 3.38-1.75 3.75-2 4.75-3.25 9.63-5.88 14.51-3.63 8.25-2.5 5.76-1.12 2.25-.88 1.5-1.25 1.5-.5.62-.87.63-1.51.88-1.75.75-9.13 3.5-.87.37-.88.38-.62.5-.75.62-1 1-.63.88-1.5 2.88-1.12 2.37-1.13 2.75-1.5 3.88z" stroke-linejoin="round"/></defs><use xlink:href="#k" fill="#6bacaf" stroke="#6bb4d2" stroke-width="5.76"/><defs><path id="l" d="M621.92 3730.49l-.87.12-8.88 3.38-4.5 2-4.01 3.63-2.5 1.12-3.62 1-2.26 1.63-.75 1-1.75 2.38-3.62 4.62-5.01 5.76-1.62.87-3.13.38-13.63-2.38-13.26-.5-4.25.13-4.88 1-4.62 1.62-6.76 1.63 3.63-4.63-1.5-4.63-8.13-1.5-6.63-14.13-5.12-10.38-8.88-18.51-4.63-9-1.13-2.38-1.75-3.38-1.62-3.5-17.14-35.14-2.62-5.5-1.25-2.5-.25-.63-.25-.62-.38-1-1.37-3.38-.25-.38-1.38-2.87-.63-1.5-3.12-5.76-7.13-14.13 1-.62-2.25-4.38-8.5-17.01-1.26-2.38-2.25-4.25-3.25-6.5-1-1.88-6.88-14.38-2.25-4.5-5.38-11.88-19.63-42.52-9.63-22.52-3-6.62-1.38-3-2.75-4.38-2.12-3.13-1.25-1-1.26-.87-.12-.13-1.13-.75-1.75-1-1.25-.13-5.87-3.12-2.51-1.38-2.37-1.5-2-1.37-1.75-1.51-2.88-2.75-1.88-2.12-1.37-1.75-.75-1.13-1.25-1.75-1-1.75-1.13-2-1.5-3.5-4.63-11.76-.25-.62-3.62-8.88-4.88-12.51-6.5-16.13-.88-2.13-.75-1.88-1.38-3.87-.87-2.88-.5-1.62h-2.25l-8.76.5-6.25.25-7.25.75-6.38.75-7.38.87-3.88.63-10.38 1.37-2.75.38-1.62.25-5.26.62-2.12.13-1.75.12-2 .25-10.76.75-17.38.5-22.89-1.75 2.88-7.25-.88-4.88-2.62-7-1.13-4.13-.5-2.75-4.63-12.38-4.25-9.13-1.12-2-1.13-1.63-1.5-2.12-3.13-4.88-2-2.63-1.25-1.62-.75-.75-.62-.25-.63-.13-.62-.12-.88.12-.63.13-1.12.12-1.75.25-.63-.12-.5-.13-.37-.37-.63-.5-.75-1.38-.37-.62-.13-.38v-.37l-.12-.63v-.75l.25-.88.25-1.37 1.5-5.5 1-7.51.37-2.75.13-1.38.12-6.37.13-4.01v-5.25l-.25-2.87-.38-3.01-.62-3.37v-1.13l-.13-1 .13-1.62.25-1.51.25-1 .75-1.62v-.38l.12-.25-.12-1-.13-1-.25-1.12-4.37-15.26.75-4.88 1.37-9.63-.75-2.5-.62-1-.75-1.13-2.13-.75-1 .38-1.75 2.63-2.5 1.25-1.88.25-2.12-1.75-5.38-8.01-1.25-2.75-.75-5.25.62-2.88 2.38-1.62 3.75.12 4.5 1.88 3.5.62 3.13-.62 1.25-.75.25-.75 1-2.01 1.38-6.12 2.75-16.01v-4.38l-.63-4.13-.87-4.25-.5-1.25-2.63-2.88-1.12-2-1.5-4.37-1.88-6.76-1.63-4.62-1.25-1.63-1.12-.75-3 .25-1.5-.25h-.63l-.75-.5-.5-1.13-4.13-11.88-.25-1.62.13-.63.25-.75.62-1 1.13-.75 2.25-.5 3.25-.37 1-.38.13-.75-.5-1.13-1-.87-1.63-.63-1-.75-.88-1.37-1.5-2.88-1.87-5.5-3.75-8.26-1-1.5-2.38-1.62-3.13-1.75-1.62-2.13-2.38-2.75-5.25-6.75-2-1.38-3.63-1.63-1.12-.87-2.76-3.75-2.25-1.88-2-2.5-6.5-4.88-3.5-3.62-2.63-3.38-2.5-1.63-1.88-.5-1.87.25-1.25 1.38-1.13 2-1.25 1.5-1.5.5-1.5-.12-1.75-1-2.5-3.13-.75-1-.63-2.5.25-1.5 1.13-1.38 3.12-1.38 1.13-1.25 1-3.12 1-6.13 1.5-7.38.13-3.13-.63-2.75-1.12-2-1.88-2.12-5.63-3.26-1.62-1.25-2.38-2.75-2.38-2.62-2.12-2.88-6.51-13.76-1-3.75-.25-1.13-1-4.62-3.12-9.01-1.38-3-1.62-2.25-1.63-1.5-1.5-1.25-1.63-1.75-.75-1-4.25-5.63-2.12-5-2.01-3.5-2.12-2.88-2.38-2.38-3.5-3-6.88-4.75-11-8-2-1.13-.88-.25-.75.25-2.25 1.13h-.5l-.75-.63-.25-3.13 2-6.12.37-.63 1.26-.5 1.5-7 3.5-18.39.75-3.62 3.37-16.14 1.01-4.88.37-2.12 7.25-13.38 1.88-3.88 9.38-17.88 5.88-11.38 2-4.38.75-1.13.5-.12.75.37 13.51 9.63 4.12 2.38 3.88-.13 3.13-.62 4.37-1.13 3-1.87 2.38-2.13 4.63-5.13 3-3 2.5-4.5 2.13-2.75 1.75-3.13 1.5-3.63 1.75-2.87 2.62-3.5 2.26-3.63 6.87-14.76 3.13-4.75 2.5-5.13 1.75-4.75 2-7.88 2.13-10.13.87-2.25 1.38-1.5 6.63-3.38 5-3 3.63-3.88 1.25-2.62.37-1.88.13-2.5-.63-4.13-1.37-5-1.75-5-2.63-4.75-2.38-2.76-3.12-2.62-.63-1.38-.62-3.25.37-2.37.5-1.51.13-.37 5-6.38 10.88-11 1.5-1.26 2-.87 2.63.12 3.88.5 3.62 1.26 2.88 2.25 2.37 2.12 1.88 1.13 2.63.25 2.62-.63 3.13-1.5 3-3.87 3.13-6.13 2.5-6.88 2.25-8.51 3.38-19.88 3.5-10.63 3.75-13.63.5-5.76.75-3.12 1.13-1.88 2.12-1.5 11.01-4.25 3.87-1.5 2-1.5 1.63-1.75 1.13-2.63 2.25-3.63 3.12-2 3.88-2.25 3-.62 2.63.37 3.25-.37 6.75-1.88 3.88-.75 3.25-.5 9.38-2.25 9.51.25h14.38l6.38.25 11.13-.5 4 .25.75.12 2.75 2.75 3.38 2.63 1.62.38 1.25-.25 2.38-1 1.75-1 1.5-.38 2.13.38h2.37l2.75-.76 1-.75.5-1.62.5-2.25.5-.88 5.76-2.37 6-5.51 2-.87h1.38l1.12 1.25 2 3.38 4.26 8.75 4.25 7.88 2.5 3.88 1 1 .62.12 1.25-.12 2.38-1.63 10.88-5.5 7.76-4 6.75-4.51 10.63-7.88 2.62-2 9.63-7.25 5.63-6.75 4.38-6.76 5-6.88 5.25-6 5.38-5.38 1.63-2.37 1.12-1.13.88-.12 1.12.12 2 1.38.88-.13.5-.62.38-1-.63-5.01.25-2.5 1.5-3.5 1.63-2.12 1.5-1.13 1.5-.75.75-1v-1l-1.88-5v-2.38l.5-1.75 3-4.25 8.51 10 3.25 3.63 1.13.5 1.62-.25 1.5-.38 2.25-1.62 9.63-10.01 3.13-2.25 11.25-6.38 5.13-2.87 3.13-2 6.25-4.13 6.88-4.25 1.38-.75 1.62-.63 1.63-.37 1.62-.5 1.38-.5 1.75-.38 1.12-.38.88-.37.88-.75 1.12-1 1-1.25.75-.75.38-.25.37-.13 1.38-.12 1.5.12 1.75-.12 1.13-.13 1.37-.12 3.13.12 2.25-3.75 1-1.75 2.12-3.13 2.76-3.5 2.62-2.88 2.5-2.5 2.13-1.87 1.63-1.25 1.37-1 2-1.25 2.25-1.25 4.88-1.76 12.26-4.62 11.38-4 8.63-5.88 5.75-5.76 6.63-8.5 10.63-16.76 2.37-3.5 3.25 2.63.88.87 2.75 2.38-12.88 28.51-4 2-6 12.38-5.13 10.01-.63 1.38-.75 1.37-3.75 7.25-1.88 4.01-2.25 4.37-2.62 5.38-2.75 5-1.76 2.88-1.62 2.63-2.38 3.75-1.62 2.75-1.5 1.75-.5.75-.88 1 1.63 1.63 1.25 1.12 2.62 2.13 2 1.5 3.76 4.13 1.37 1.75 3.75 6.38-6.75 6.87-11.25 10.76-6.63 3-5.88-1.62-21.64-4.76-5.37 1.38-5.38 3.25-40.15 28.64 3.76 6.88 4.5 10 2.12 5.13 1.88 4.5 1.38 1.75.62 1.63 2 1.88 1.63 2.12 3.75 6.88.88 2 1.37 3.88 7.38 15.38 8.63 15.13 9.25 17.76 8.13 15.13 8.38 14.76 11.88 21.89 5.5 10.88 15.14 27.14 5.5 10 2.38 4.63 7.37 13.76 9.38 13.88 14.01-9.26 11.63-7.38 8.25-5.25 3.88-2.62 3.88-2.38 8.75 15.76 1.5 2.37 6.01 9.38 6.12 10.13.63 1.13 4.88 8.5 8.13 13.63 8.62 14.64 7.63 13.38 7.63 13.88 7.76 14.26 8.12 13.38 8.13 13.76 8.13 14.25 7.88 13.26 8.75 13.76 8.26 13.5.75-.75 2-1.87 29.01-21.14.63 1.25.5.75.5.63.5.75.88.75 2 1.37 1 .51 1.25.12.87.13h1.25l1.25-.5 1.25-.63 2.26-1.25 23.01-18.39 2.25 3.51 1.75 2.87 2.88 4.63-1.51 1.5-5.5 5.38-3.12 3-2.76 2.5-6 5.13-6.13 5-5.37 4.13 4.25 6.88-2.13 1.5-1.12 1.12-1.13 1.25-1.13 1.25-1 1.51-1 1.37-.75 1.13-1 1.87-1 1.75-1 2.38-2.5 5-2.5 5.25-1.75 3.13-1.13 1.38-1 1.37-1.5 1.75-.87.75-1 1 9.38 13.26 8.62 13.13 4.01 6.26 5.87 8.25 2.63 4.25 1.13 1.75 1.25 1.5.75.75.75.63 4.25-5.25 4.25-4.88 4.13-4.5 2.5-2.63 1.5-1.37 1.75-1.88 7.38-6.88 20.89 26.01 18.75 23.14 22.64 28.14-25.64 25.39 50.15 76.29.63.75.5.75 50.02 65.15 5.38 6.88 19.38 15.88 3.88 11.64-.63 1.75-9.13 22.38-3.62 14.01-1 4.63-.5 1.75-1 1.12-3.5.88-1.38.75-1.75 2.75-3.25 7.38-5.76 14.01-3.37 9.88-3 9.63-2.25 7.12-1.88 3.76-4.25 6.12-2.13 4.38-6.75 19.01-2 5.5-2.5 8.01-1.13 4.38-1.5 8.37-1.38 5.76-1.25 3.37-6.25 9.76-2.25 4.75-1.5 4.88-1.5 1.12-2.13 1-6.88 1.76h-4.5l-2.87-.63-7.01-2.38-.5-.12-6.38-3.63-4-2.37-9.75-5.76-3.25-1.87-6.76-3.25-5.5-1.76-10.63-2.12-3.13-.25-1.12.25-.63-.38-.75-.75-1.25-2.25-6.5-14.88-2.5-4.88-1.5-1.87-1.63-1.13-1.25-1.25-1.75-1-2.25-.38-3.25-1.25-4.13.75-7 3.51-8.01 3.5-6.75 3.87-5.75 2.76-7.51 4.87-6.75 4.13-7.13 3.75-5.25 3.25-.5.25-2.25.38-2.5-.88-2.38.25-3.75 1.75-15.88 9.38-9.63 7.76-7.13 5.88-5.63 5.75-6.63 7.63-1.87 2.87-6.26 10.51-1 2.63-.75 1.87-5.38 17.26-2.87 10.88-2.63 9.01-2.5 12.5-.87 3.63-1.76 2.62-1.62 3.13-1.25 4.13-.88 4.75-1.5 5.25-.62 2.75-1.13 2.38-2.38 3.5-2.5 5.38-1.25 2.13-1.75 4.62-.87 3.63-.88 1.38-.87.5-4.26-.25-2.5.87-2.75 1.75-3.12 2.5-2.26 2.76-6.37 11.13-2.51 5.37-5.12 14.51-1.88 7.88-5.75 15.88-3.75 13.76-1 5.25-.5 1.25-.75.75-4.01.63-1.5 1.12-3.25 3.63-1.87 1.63-5.13 2.75-2 1.87-4.63 3.63-2.5 2.5-6.63 3.88-3.63.87-2.62.38-2.25.62-2.88 1.13-7.25 3.63-1.5 1.12-3.13 3-1.25.38-2.75-.5h-1.63z" stroke-linejoin="round"/></defs><use xlink:href="#l" fill="#09757a" stroke="#097d9b" stroke-width="5.76"/><defs><path id="m" d="M1994.08 2356.93l-1 .12-4.13 1.5-.63-.25-.75-.37-1-.13-1.12.13-6.76 2.75-3.62 1.75-3 2.13-.88 1.62-1.62 5.63-1.26 3.25-.75 1-5.37 4-1.5.63h-2.88l-1.25-.5-2-1.88-1.38-2.12-.87-.63-.75-.25h-1l-2 .75-1.88 1.13-1.63 1.5-6.75 9.13-6 7.13-3.63 7.88-2.63 8.63-.5 2.37-.12 1.5.37 1.38 1.76 3.37.37 2.38-.25 3.75.5 3 2.38 7.63.5 2.88-.13 1.63-.37 1-.75.5-4.63.62-2.38.63-1.75.87-1.37 1.38-1.25 1.87-1.13 2.63-2.5 3.38-3.63 3.62-2.5 2.25-1.62.5-1.51-.37-.87-.88-1.5-2.12-.75-.25-.75.25-3.38 4.13-3.38 2.75-2.62 3.87-2.38 3.76-2 5.87-1 .63-2-.38-.75.38-2.25 2.12-1.75 2.13-6.38 11.01-4.75 9.25-3.63.38-.25.25-6.63 18.76-4.75 19.38-5.63 21.14-2.62 15.75-6.51 25.02-1.25 4.87-.5 6.76-1.37 5.75-3.51 8.5-3 12.51-9.88 34.64-9.13 29.14-6.25 21.64-9 16.51-7.38 14.88-5.88 16.88-10.5 28.77-12.89 23.88-7.75 17.01-4 5.25-3.5.88-2.88-1.75-9.25-11.88-9.26-8.63-3.12-1.38-7.63-1.12-3.63-1.75-3.88-3.76-4.87-5.75-4.38-5.88-6.38-6.25-8.13-9.5-10.13-14.51-4.25-7.75-4.13-12.89-.5-2.25-1-4.87-1.12-6.88.12-8.38 1.25-5.76 2.38-3.5 3-1.75 23.01-1.87 19.64-2.76 15.63-2.62 10.13-2.63 7.5-3.12 10.13-7.38 6.25-6.63 4.51-7.63 6.37-15.63 24.39-54.53 11.26-26.14 4.75-9.75 3-5.63 3.5-7.88 1.75-5.38 1.5-9.75.5-10.38-1.12-10.88-2.13-8.88-3.62-8.13-4.88-7.88-4.13-6.13-4.88-5.25-6.37-7.26-6.88-7.25-8.13-7.75-11.13-9.76-6.13-4.25-8-3.75-8.51-2.88-13.13-2.12-8.88-1-4.63.12-9 .75-8.38 3.38-13.13 6.13-5.88 3.5-17.13-11.01-3 1.13-9.51-3.25-22.51-15.39-7.25-7.75 4.13-9.26 2.25-5.5 1.5-3.12 1.37-2.63 1.38-2.5 4.5-6.88 6.75-10.01 3.88-5.87-.75-.63 17.51-24.01-.75-.63 1.62-2.25 1.76-2.75 1.5-2.5 1.75-3.25 8.88-17.39-10.26-7.25-5 7.13-12.51 18.88-10.75-8.25-1.5-1.13-4.38-3.25-7.88-5.88-8.5 12.51-22.64-17.63-8.63 12.5-25.01-18.76.13-1.37v-4.88l-11.01 12.38-.75-.5-1.5-1 2.63-7-1.76-1.88-.87-1-1.13-.75-1.25-.62-1-.25h-1l-1.25.25-1.62.37-7.01 2.38-1.25.12-1.5.13-1.25-.13-.88-.5-.5-.25-.87-.5-.5-.87-.88-1.5-.25-.63-.5-1.38-.87-2.75-2-7.88v-1.75l.62-2.5.75-2.37.88-1.76.75-.87 1.12-1 2.13-1.25 1.25-.75.25-.13.75-.25 1-.25 1.25-.12h5.63l1.38-.25 1.5-.63 1.12-.62.63-.63 1-1 .62-1.25 3.13-6.25 2.5-2.25-1.75-.88-1.75-2.63-1-4.87-.13-3.25.25-2.38-3.25-2.25-.37 2.12h-5.13l-3 .25-1-3.5-3-10.25 1.75-3.88.12-.25 1.88-3.63.87-2.62 2.25-11.51.25-2v-1.13l-.62-1.37-1.13-.75-1.75-1-3.62-1.63-11.13-4.62-1.51-.5h-1.37l-.63.37-8 11.26-6.5 8.88-15.76-12.39 11.88-15.88 2.63-3.63-12.13-8.37-24.77-23.77-10.63-8.75-56.15-42.77-3.37 5.5-5.76-4.63-2.75-2.12-3.25-2.13-7.25-3.63-8.76-5.62-4.75-3.88-6.88-6.88-8.5-7.5-5.38-3.88-8.63-5.38-12.01-7.5 2.38-5 1-2.51.5-1.12 1-2.38 1-1.87 1.25-2.25 8.51-14.26 1.75-3.25.75-1.5 3-6.38-9.88-6.88-.75-.63-.38-.87-.37-.88-1.25-4.75-.38-1.37-1.5-5.63-.12-.5-.38-.38-.75-.62-7-3.75-4.38-6.63-4.5-4.63-12.38-12.63-13.51-13.88-1-1-14.13-14.51-25.39-26.26 4.63-28.02-11.13-16.38-2.63-76.29 6.63-9 3.38-5.01.75-1.12.62-1.13 1.88-3.25.88-1.88.25-.5 7.87 3.38 6.51 3 4.12 2 3.01 1.63 1.37.75 1.25.88 1.13.87 1.25 1 1 1.13 1 1.12.87 1.38 1.26 1.75 1.37 2.12 1.13 2.01 2.12 4.37.75 1.88 1.88 5 2.88 9.13.5 1.38.62 1.25.88 1.75.75 1.5 1 1.5 1 1.5 1.37 1.75 1.5 1.88 1.5 1.37 2.26 2.13 2 1.62 2.75 2.13 6.25 4.88 6.13 4.75 4.88 3.88.75.62 6.5 5.38 5.75 5.13 6.51 6.38 1.87-1.88.75-.75 1.25-1 .88-.5 4.62-2 1.51-.88.75-.62.75-.63.75-.87.87-1.38 1.13-1.12 1.12-.63 1.25-.5 1.63-.38 2.63-.37 3.12.25 1.13.25 7.25 3.25h1l1.13-.25.75-.37 7.75-3.51 1.38-6.12.37-.88 1.75-4.38 1.25-1.75 2-2.12 6.63-5.51 3.25-2.37 22.26-13.88 5.76-3.88 18.88-12.26 17.76-11.25 2.88-2.75 16.75-10.63 6.51-14.14 6.25-6.12-.87-13.01.5-5.25.25-1.63 3-14.76 8-25.63 1.38-6.13 9.25-9.13.25-1.13.63-1.5 3.25-3.75 1.75-2 1.75-1 2.75-.5 2-.75 2.38-.75 2-.5 2.63-.5 2-.38 1.87-.12 2.25-.13 1.25.13 1 .12.88.38 1.25 1 1.88-1.75 1.37-1.38 1-1.25 1.63-2.25 2.12-3 1.38-2 1.13-1.75.87-1.63 1.13-2.25.87-1.75.75-1.88.75-2.12 6.38-14.76.75-1.75 1-2.63 1.13-3 .5-2.38.12-2.25v-1.25l-.12-3.13-1.13-17.63v-1.12l-.5-4.13-.5-2.75-.62-2.25-.38-.88-1.13-2.88-1.62-3.37-3.5-7.13-.5-1.63-.38-1.5v-1.5l.25-1.37.38-1.38.5-1.13.5-1.25 1.75-4 3.38-6.88 5-9.25 1.12-2.5.38-1.13.37-1.5v-2l-.25-1.63-.62-2-3.63-11.5-4.5-14.63-1.13-4.13-.5-2.13-.12-1.75v-1l.25-1.87.62-2.26 1.25-3.25.5-1.25 2.88-7.75 2.5-5.76 2.38-4.87 1.87-3.63 3.13 1.38.88.37.75.25.62.25.63.13h.37l.75.12h2l1.75-.12-13.38 37.39 57.78 57.53 11.76 11.76 7.62 7.5 8.26 7 7.5-18.38 8.13-17.51 21.26 12.88 14.26 7 6.88 2.13 1 2.5-13.38 33.64 14.25 26.39 9.01 3.38 2 1.25 8.25 9 3.13 8.26.37.12 7.01 14.64 3 6.25 3.87 9 4.88 11.63 1.63 3.88 4.5 4 4.25 2.75 4.63 3.13 1.5-3.88 1.13-2.75 1.12-2.37 1.5-2.88.63-.88 1-1 .75-.62.62-.5.88-.38.87-.37 9.13-3.5 1.75-.75 1.51-.88.87-.63.5-.62 1.25-1.5.88-1.5 1.12-2.25 2.5-5.76 3.63-8.25 5.88-14.51 3.25-9.63 2-4.75 1.75-3.75 1.75-3.38 1.88-3.25 2.25-3.25 2.25-3.13 2.63-3.62 2.25-3.13 2-2.38 11.13-15.01 1.37-1.87 1.51-1.75 2.12-2 2-1.88 2.38-2.12 1.5-1.51.87-.75.88-.87 2.63-2.25 3.12-2.88 2.13-2.25 1.87-2.25 1.76-2.63 1-1.62 1.37-2 2.5-4.13 1.88-3.13 2-3.62 1.38-2.38 1.5-2.88 1.75-3.5.5-1.25 1.75-3.5 2.62-5.5 3.76-8.26 1.5-3.38 5.62-11.63 1.25-2.62 5.51-11.51.87-1.75 3.13-6.63 3.25-6.5 2.13-4.25 2.25-4.5 1.37-2.51 1.13-2.62.75-1.63 1-2.25 3.38-8 1.75-4.38 10-23.26 3.13-7.01 2.25-5 3.38-7.75 33.51 14.51 14.01 6.25.62.25.75.12h.63l.5-.37.38-.38.5-.62 7-11.76 9.5 4.13.63.25-6.5 12.01-17.14 29.63-11.25 19.76-8.76 15.01 2.63 2 8.5 4.51 6.63 4.5 18.14 11.63 27.63 17.26 9.26 5.88 2 1.37.87.63 5.01-8.63 3.37-7.38 2.25-4.13.88.5.5.25 7 3.38 2.88 2.37 4.25 1.38 6.88 4 1.75 1 2.25.5 5 2.63 5.01 2.25 2.62 1.13 3.75 2 2.63 2.37 3.5 3.38 1.75 2 1.5 1.75 1.76 2.25 2 .63 2.37.62 1.25.63.63.87 2.5 4.88 1 1.5 1.13 1.13 1.5.37 2-.12h2.75l3.5 1.75 1.75 1.12 2.5 1.76 5.88 6 2.13 1.75 1.25.62 2.25.5 2-.37 4.25-.25 1.75.37 2 1.01 6.63 4.87.75.25-2.25 11.13-.5.25-.5.63-3 6.75-1.75 4.75-2.38 3.38 4.63 10.38 7.13 3.25 12.88 5.88 8.25 4.38 4.63 1.75 5.5 2.38 7.5 3.62 1.38.63 15.63 1.25-2.37 4.63.87.37 7.01 3.13 3.75 1.62 5.12 1.88 5.13 1.87 7.63 3.63 8.76 3.88 1.12.5.75.37.75.5.5.38 1 .75 1 .62 4-5.62 6.76-9.38 7.5-10.01 5.63-7.88 5.25-7.25 1.13-1.5 3.62-5 6.01-8.38 7.88-10.88 5.5-7.63 5.88-7.63 6.12-8.38 5.63-7.5 2.38-3.26 2.37-3.62 1.5-2.5 1.38-2.63 13.01-29.51 1.12-2.38.5 1 4.13 12.51 11.88-5.38 1.88-1.63 22.51-11.5-2.13 4.25-1.75 4-1 4.75-.25 3-.38 1.63-.37 2.88 8.38 3.62-.38 1.13-.25 1.13-4.62-1.88-4.38-2.25-2.38 2.5-2.5 3.75-.62 2.13-5.88 9.75 1.75 2.13-2.13 2-1.75 3-4.63 9.51-3.37 8-6.51 16.88-2.37 5.76-1 2.75-1.13 1.25-1.87.5-1.75-.63H2356l-1.63.5-10.5 13.13-3.75 5.76-5.13 9.63-5.75 11.75-5.88 16.39-5.13 10.63-2.75 5-5.25 7.25-2.5 4.5-3.63 7.26-4.25 9.13-5.13 11.63-6.75 17.01-3.75 10.88-3.88 10.5-1.5 5.88-1 6.13-.75 6.5-.25.5-1.13.13-1.87-.25-5.01-2.38h-.87l-1.5.75-3.75 4.88-9.88 21.63-3.88 12.89-1.38 7.63-1.5.87-4 .38-2.25 1.25-4 4.87-5 9.51-3.51 7.88-3.12 7-2.13 6.5-5.5 22.89-9.76 30.02-3.12 11.5-2.5 10.26-.5 1.25-.38.62h-1.13l-6.62-3.87-2.63-.75h-1.5l-1.25.5-.38.37-1.62 1.38-1.63 3.12-5.5 12.63-3.25 10.76-3.38 19.38-.75 2.76-1.87 3.5-1.51 5.38-1.5 7-2 7.75-.5 3.13-.62 3.13-2.25 7.5-.5 3.88v2.25l.5 1.62 1.12 1 4.25 1.5.88.63.12.88-.5.62-.75.13-9.75-4.38-3.25-1.25-2.75.75-3.76 3.37-1.25 1.76-1 1.87-.37 2.38-.5.37-1.25.13-1.75-.88-2-.62-.5-.25-1.26.37-1 1-3.62 4.63-2.13 4.38-3.88 10.63-2.5 8.63-2 14-1.62 18.76-.25 10.76.62 2.63 1.5 1.87 7.38 3.75 3 1.75.38.5-1.13 1.13-.87.25-4.26-2.75-14-6.63-6.25 4.63-7.01 19.76-2.75 22.38-2.5 17.01v11.63l.62.63.25 1-.25.25h-.75l-1.62-.88-12.76-7.75-11-4.63-.5-.75-.38-1.62.13-1.38-.25-1.38-.38-.37-2.25-.5-1.75-.13-3 .63-2.5 1-2.5 1.63-2.63 2.12-2 2.38-7.63 14.51-6 13.38-2.13 4.75-6.88 18.38-2.62 7.76-1.5 5.5-2.38 9.5-4.25 22.64-2.25 11.51-2.38 10.38-2.88 14.25-3.37 12.39-2.25 7.25.12.62 1 .75 1.13.76 2.37 1.5 2.38 1.37.37.5.13.63-.13.75-1.25.25-3.25-2.38-5-2.88-3.38-2.25-3-1.75-.62-.12z" stroke-linejoin="round"/></defs><use xlink:href="#m" fill="#09757a" stroke="#097d9b" stroke-width="5.76"/><defs><path id="n" d="M308.9 3930.34l-9.38 12.13-1.38 2.63-2.37 9.75-1.38 2.13-2.5 2.75-2.75 1.62-3.75 1.01-4.13.5-18.63-.13-3.88-.25-7.88-2.88-2.88-1.62-6.5-4.5-3.25-2.88-1.38-1.25-2.75-4.75-1.25-3.38-.87-3.38v-1l.12-.75.75-2.75-1.75-4.75-1.5-3.25-1.88-2.13-3.25-2.88-5.63-4.62-4.75-3-2.87-1.26-1.25-.5-6.26-1.87-5-.63-4.75-1.62-8.63-4.13-5.25-2.88-3.38-2.62-3.88-4-4.62-6.76-1.51-3.37-1.25-2.76-3-7-1.37-2.5-.25-.5-1.38-2.63-2.75-4.25-3.13-3.88-10-11.5-1.88-2-2.62-3.88-3.51-6.75-8.75-12.76-4-6.38-2.63-4.37-1.37-3.13-1.63-4.75-.25-.88-1.5-5.38-3.63-18.26-1.25-5-1.12-6.25-.75-6.25-.75-3.51-1.75-5.12-2.01-4.76-7.37-14.88-.25-2.25.12-1.75.13-1.38 2.5-9.25 1.5-3 1.75-2 2.12-1.38 1.76-2.25 2.37-5.5 3.25-6.26 4.01-13.13 4.75-12.88.5-3.13-.5-4.37-1.25-5.01-4.25-15-1.88-8.51-1.63-10 .25-.88.38-1.12 4.5-7.01 7.63-10.75.62-1.63-.5-2-2.37-5.5-4.13-5.63-.62-2-.13-.38v-2.75l7.88-12 .88-2.75-.38-1.13-1.25-.88-3.63-2.37-1.75-1.63-.25-1.25.13-.25.87-.37 2.13.37 5 1.75 2.75.25 1.38-.37 1.75-1 1.37-1.25 3.63-5.51 3.38-5.75.12-.87-.25-1.26-2.25-3.12v-1.5l.5-.88 1.13-.62 6.38-6.76 6.25-9.5 4.88-8.38 1.87-2.13 1.63-1.12 1.75 1 9.75 10 1.75 1 1.13.13.87-.38 6.01-7.63.25-1.5-.25-.87-.88-1.5-.25-1.13.25-1.87 2.38-3.51 2.87-5.37 1.88-2.88 2.13-2.88 9.63-10.63.37-1.62-.25-1.13-.62-1.5-3.38-3.75-5.25-4.88-3.63-3.75-1.5-2.88-.25-2 .62-1.62 1.63-.63 1.63.13 2.87 2.75 2.25 1 1.75-.38 3.63-1.75 2.38-3.75 3-4.63 1.5-1.25 1.88-.75 2-.37 5.87 2.62 2 .63 3.26-.75 2.75-1.63 2.5-.75 2.5.25 3.38.75 1.62-.25 2.63-1 1.75-2.12 9-17.64 2.13-3.12.37-1-.12-2.38-.75-2-.5-.75-3.13-3.88-2.25-2.88-2.25-2.62-3.88-1.5-.62-.63-.88-1.75-2-8.38-1.75-4.88-1.25-1.87-2-1.13-4.25-.5-7.88-2-2.5-.87-1.25-.75-.63-.88-.37-3.13v-5.12l.62-5.01 22.89 1.75 17.38-.5 10.76-.75 2-.25 1.75-.12 2.12-.13 5.26-.62 1.62-.25 2.75-.38 10.38-1.37 3.88-.63 7.38-.87 6.38-.75 7.25-.75 6.25-.25 8.76-.5h2.25l.5 1.62.87 2.88 1.38 3.87.75 1.88.88 2.13 6.5 16.13 4.88 12.51 3.62 8.88.25.62 4.63 11.76 1.5 3.5 1.13 2 1 1.75 1.25 1.75.75 1.13 1.37 1.75 1.88 2.12 2.88 2.75 1.75 1.51 2 1.37 2.37 1.5 2.51 1.38 5.87 3.12 1.25.13 1.75 1 1.13.75.12.13 1.26.87 1.25 1 2.12 3.13 2.75 4.38 1.38 3 3 6.62 9.63 22.52 19.63 42.52 5.38 11.88 2.25 4.5 6.88 14.38 1 1.88 3.25 6.5 2.25 4.25 1.26 2.38 8.5 17.01 2.25 4.38-1 .62 7.13 14.13 3.12 5.76.63 1.5 1.38 2.87.25.38 1.37 3.38.38 1 .25.62.25.63 1.25 2.5 2.62 5.5 17.14 35.14 1.62 3.5 1.75 3.38 1.13 2.38 4.63 9 8.88 18.51 5.12 10.38 6.63 14.13 8.13 1.5 1.5 4.63-3.63 4.63-6.87 2-9.26 4.25-4.88 2.88-4.12 3.63-3.5 2.5-1.38.87h-2.75l-2.38.25-4.75 1.75-1.38.88-1.5.25-2 1.25-3.62 3-3.26 1.88-3.62 3.25-2.88 3.12-.62 1.01-1.25 2-.76 1.5-1.37 2.12-.5 1.38-2.25 2.88-2.38 1.75-2.75 1.87-3 1.13-7.13 2-4.75 2.5-2.5 1.63-1.38.87-5.25 4.38-9.13 6.75-2.5 2.38-2.75 3.37-.25 1.13.62 3-.12.63-1 .87-1.38.38-2.88.12-.5.13-1 .37-1.75.75-.62.88-3.38 7.5-2.37 6.63-.88 3.88-.25 1.87.12 2.25-.25 1.01-.62 1.25-1.63.37-1-.62-1.12-.5h-1.13l-.37.5-7.76 16.25-4.87 11.26-3.01 8.75-1.25 2.26-.87 1.25-1.75 1.12-4.88 1.38-8 1.25-3.13.12-4.63.25-1.12.13-4.13 1.87-1.75.5-.75.5-2.63 2.88-.87 1-.75.63-.75.25-3.51-.88-2-.25-4.37.13-2.25.37-1.25.63-3.51 2.5-6.37 3.12-2.38 1.13-1.25.88-.63.62-.37.63-.75 2.75-.38.62-.62.5-.75.13-4.88-1.13h-.5l-2 1.13-1.75 1.62-.5.63z" stroke-linejoin="round"/></defs><use xlink:href="#n" fill="#004249" stroke="#00465f" stroke-width="5.76"/><defs><path id="o" d="M2835.6 1735.12l10.13 6.75 1.63 1.13.87 1 1.13 2.12 1.63 4.13.62 1.63.13 1.12-.13 1.13-.5.75-1.75 1.12-6.38 2.25-1 .38-1 .12-1.12-.37-2.51-1.88-9.5-7.38-.38-.5-.5-1.25-.12-.87-.13-.63-.25-.5-1 .25-1.5-.12-.62-.5-.5-.88-.13-.75.25-.75.38-.62 1.12-.38h1.63l.25-.25.25-.88-.25-.62v-.25l-.13-.88-.62-.5-.75-.62-5.38-2.75-1.25-.63-.25-.5-.12-1.12.25-.75.37-.38.75-.25 1.25.38 4.75 2.37 1.75 1.13 1.01.75h.75l3.25-.5 1.75-.38.62-.12.75.12.5.13z" stroke-linejoin="round"/></defs><use xlink:href="#o" fill="#004249" stroke="#00465f" stroke-width="5.76"/><defs><path id="p" d="M2267.58 1690.59l-1-.62-1-.75-.5-.38-.75-.5-.75-.37-1.12-.5-8.76-3.88-7.63-3.63-5.13-1.87-5.12-1.88-3.75-1.62-7.01-3.13-.87-.37 2.37-4.63-15.63-1.25-1.38-.63-7.5-3.62-5.5-2.38-4.63-1.75-8.25-4.38-12.88-5.88-7.13-3.25-4.63-10.38 2.38-3.38 1.75-4.75 3-6.75.5-.63.5-.25 2.25-11.13-.75-.25-6.63-4.87-2-1.01-1.75-.37-4.25.25-2 .37-2.25-.5-1.25-.62-2.13-1.75-5.88-6-2.5-1.76-1.75-1.12-3.5-1.75h-2.75l-2 .12-1.5-.37-1.13-1.13-1-1.5-2.5-4.88-.63-.87-1.25-.63-2.37-.62-2-.63-1.76-2.25-1.5-1.75-1.75-2-3.5-3.38-2.63-2.37-3.75-2-2.62-1.13-5.01-2.25-5-2.63-2.25-.5-1.75-1-6.88-4-4.25-1.38-2.88-2.37-7-3.38-.5-.25-.88-.5-2.25 4.13-3.37 7.38-5.01 8.63-.87-.63-2-1.37-9.26-5.88-27.63-17.26-18.14-11.63-6.63-4.5-8.5-4.51-2.63-2 8.76-15.01 11.25-19.76 17.14-29.63 6.5-12.01 7.75 3.25 10.01-17.63-4.13-2-.37-.88 6.75-12.26 1.75.88 3.13 1.38 7.37-12.89-3.62-1.62-3.63-1.75 4-7.13 3.25-5.88 11.01-19.01 4.13-7.5 3-5.25 7.63-13.01 7.38-12.88 4.12-7.51 3.38-6.12 6.13-10.89 8.25-16.63 8.88-23.51 3.13-9.63 1-3.5 1.37-4.38 2.13-8.88 1.5-6 1.75-10.26.63-3.25.87-5.75.63-4.38 1.25-10.5 1-12.51.5-14.51.12-4.5.38-15.01.12-23.38.25-10.63.63-10.01 1.5-13.38.75-4.38 1.25-6.38 2-9.13 3-11.25 4.38-16.76 2-9.25 11.63-41.27 1.63-6.63 2-7.38.37-1.38.38-1.87.75-2.13.5-1.63.37-1.5 1-3.75 1.5-5.88 2.63-10.63 1.13-4.37 5.12-18.39 4.76-20.26 2.62-11.75 2-12.51.5-4 3.38-22.39 1.75-12.75 1.88-12.26 6.88-45.4 1.5-11.25 2.12-11.63 1.13-7.01 2.5-17.51.5-3.75.87-4.88 1.13-4.87 1.25-4.26.75-2.25.63-1.62.62-1.13 1.5-4 1.38-3.38 1.12-2.75 3.51-7.25 1.5-2.63 2-3.25 1.87-2.38 1.5-2.12 5.26-6.26 1.87-2.37 1.75-2.5 3.75-6.76 2.26-5.37 3.12-10.38 3.63-7.26-1.75-21.26.87-1.75 3.25 2.63 17.01 10.25 9.51 5.63 19.38 13.13 20.89 13.26 12.25 7.5 19.89 8.01 5.88 2.12 16.13 4.75.75-1.12 1.62.12h6.38l12.51 12.76 4.25 3.25 7.75 5.25 9.13 8.51 5.76 6 1.87 2.63 2.25 4.13 1.38 3.25 1.12 1.62 2.51 2.88 6.62 10.25.38.38.5-.13 5.88-6.12.37-.13.25.25 15.13 17.89 1.88 2.75.12.37-.37.88-6.25 6.13-.75 1.37-.25.75.25.38.12.37 1.88 1.13 1.75.62 2.5-.87 1.75-.38 1.25.13.88.75 5.12 7.25 4.01 4.75.75 1.25.37 1-.12 1.01-.63 1.75-.12 1.25.37 1.75 1 1.75 1.88 2.37 2.25 2.88 9.75 8.63 16.64 13.01 3 2.62.87.88 2.38 2.75 2.12 3 2.51 4 1.25 1.88 2.87 5.25 3 5.38 4.26 8.5.75 1.25 1.75 2.26 1.5 1.62 2.37 2.25 1.76 1.5 1.37 1.13 1.25 1 4.13 2.5 3.5 2.25 1.75 1 .88.13.62-.25.63-.25.75-.88.25-1.37.37-1.5.13-1.01.12-.37.25-.25h.38l.75.12.87.25.5.38.25.38v.37l-.25.75-.12.38-.38.25h-.25l-.37.12-.13.5-.25 1.5.25 1.5.5 1.5 1.13.88 1.63.62 1.37.38 1.88.37 3.87.88 4.26.75 4.25.63 3 .25.62.25.63.5 1 1.62 1.25 3 1.75 4.13 1.25 2.88.5 1.25.13.75.12 1 .13 1.37.25 2.88.12 2.75.25 2.38v1.5l.13 1.37.37 1.63.38 2 .37 1.13.5.87.88 1.25 1 1.38.88 1.12.87 1.51 1.38 2.62 1.5 3 .5 1.5.62 1.25.5 1.01.63 1.62 12.13 29.14 2.12 5.38 1.01 3.25 2 7.38.37 1.5.38 1.5-.13 2-.75 6.25-.62 4.76v2l.37 2 .5 1.5.75 1.12 4 4.26 4.88 2.75 7.75 3.25 1.76.5.5.38.25.5v.75l-.38.62-.5.38-1.13-.13-5.37-1-2 .25-1 1-1.38 1.88-1.75 3.5-1.75 2.38-3.63 3.5-1 1.25-3.13 5.88-3.37 6.62-7.01 13.01-3.62 6.75-9.76 22.64-16.75 42.27-3.63 9.88-10.63 30.14-3 4.13-7.13 9.63-7.88 16.51-13.38 32.64-23.14 62.9-.62 1.5.25 3.01.62 1.87 1.25 1.5 1.63 1 2.63.88 1 1.5v1.5l-2.01 2.13-7.25 9.25-2.37 2.63-1.76 3.25-3.87 8.75-2.5 4.01-2.63 5.25-11.01 27.64-15 39.02-1.88 3.5-.62 1.12-4.88 11.63-3.38 7.38-1.12 3.38-6.26 20.51-.62 4.13v3.37l2.12 9.38-.5 1.63-2.75 3-2 3.5-2.75 5.76-13.76 25.26-3.75 7.63-8 19.13-5 10.76-22.51 11.5-1.88 1.63-11.88 5.38-4.13-12.51-.5-1-1.12 2.38-13.01 29.51-1.38 2.63-1.5 2.5-2.37 3.62-2.38 3.26-5.63 7.5-6.12 8.38-5.88 7.63-5.5 7.63-7.88 10.88-6.01 8.38-3.62 5-1.13 1.5-5.25 7.25-5.63 7.88-7.5 10.01-6.76 9.38-4 5.62z" stroke-linejoin="round"/></defs><use xlink:href="#p" fill="#004249" stroke="#00465f" stroke-width="5.76"/><defs><path id="q" d="M2707.29 1438.47l12.01 9 1 .88.87 1.37.63 1.76 9.25 44.77v1l-.37 1.12-4 7.26-4.38 7.75-.75.88-1.13.62-1.75-.37-4.25-3.88-8.13-6.13-1.12-1.37-.38-1.5-.87-4.76-4.13-24.63-.63-1-.87-1.01-1-1.62-.88-1.13-1.87.13-3.13.25 1.63 8.88-2.38.37-4-19.38 2.25-.75 1.62 7.38 7.13-.5-.37-1.88-.88-.75-1.5-.37-.5-.26-.5-1.62-.12-1.5 1-1 .87-3.13 1.25-2.88 7.26-10.63.75-.75.75-.87.75-.5.87.75z" stroke-linejoin="round"/></defs><use xlink:href="#q" fill="#004249" stroke="#00465f" stroke-width="5.76"/></svg>