<svg width="619.2" height="384" viewBox="0 0 4642 2880" xmlns="http://www.w3.org/2000/svg" xmlns:xlink="http://www.w3.org/1999/xlink"><path fill="#fff" d="M0 0h4642v2880H0z"/><defs><path id="a" d="M1537.95 2707.38l-2.75 4.21-16.25 25.53-10.88 16.24-.44-26.54-1.01-8.13-1.02-4.93-1.16-3.48-1.01-2.17-1.45-1.89-3.19-2.47-2.76-2.32-3.19-4.06-4.79-7.83-4.64-6.68-6.09-9.57-1.74-3.05-2.33-5.22-3.48-9.72-2.61-5.22-2.61-4.5-1.16-2.75-1.45-2.76-1.6-2.32-3.48-4.35-1.45-1.6-1.01-1.01-3.05-1.6-2.76-.72-2.03-.87-5.8-1.45-3.48-.73-2.32-.58-2.03-.72-1.74-.87-5.81-3.2-10.01-5.22-1.16-.58-2.03-1.59-1.74-1.89-1.74-1.3-2.17-1.17-7.69-1.59h-1.74l-2.76.29-14.36 3.34-4.93 1.01-7.55.15-6.09 1.01-3.33.15-4.07-.15-8.41-1.88-3.05-.29h-3.77l-17.41 1.88-3.48.58h-3.33l-1.6-.29-2.18-1.16-2.03-1.01-5.51-2.18-6.96-2.18-5.37-2.61-7.54-2.61-9.14-2.03-7.25-.72h-3.63l-6.67.72-16.83 2.61-6.24 1.74-6.38 1.31-4.21.72-3.19-.87-2.61-1.3-3.92-1.89-6.67-1.16-3.63-.14-2.75-.58-2.9-.87-2.91-1.31-2.75-1.31-4.79-1.3-2.9-.58-8.99-1.31-2.18.29-7.83 3.92-3.63 2.18-2.61.72-1.6.29-1.88-.29-9.87-2.03-11.31-1.74-7.54.29-4.65-.29-5.22-1.6-2.9-1.45-3.92-3.04-4.35-3.92-5.22-6.24-3.48-4.49-8.42-7.4-.87-.73-2.9-1.16-1.59-1.16-1.45-.87-1.6-.72-5.8-1.16-7.55-1.02-2.9-.14-6.09-4.65-9.28-3.33-2.76-2.47-16.54 1.74-22.63 1.74-13.49-2.46-13.63-11.32-10.59-16.53-10.01-14.22-4.5-4.35-2.9 1.45-8.27 5.22-4.5 1.16-2.75-.14 2.32-3.2 3.92-6.09 1.16-3.19 4.78-9.72 6.1-10.01 8.99-18.27 7.69-10.16 2.75-6.67 1.02-1.02 3.05-1.88 3.33-1.89 1.16-1.88 1.02-2.04 9.43-15.95 1.59-1.6 1.31-.14 1.3.58 3.34 6.96 2.03 2.76 1.31 1.3 1.16.29.87-.87 1.45-1.88 7.11-6.68 3.62-4.49 2.03-4.5 2.04-4.35 1.88-2.47 9.14-4.64 8.27-2.76 1.59-1.59 6.1-5.37 2.61-1.45 3.62-3.48 2.76-2.32 2.32-3.05 2.32-2.03 6.39-4.79 3.19-3.48.29-1.3.14-5.22-.29-1.6-.72-2.18-1.74-1.88-3.49-2.18-1.45-1.88-1.16-.58-.72-.58-2.76-5.23-.43-1.88-1.31-2.03-2.17-1.74-2.18-2.18-4.21-10.59-1.3-2.17-6.24-6.68-3.92-5.94-1.59-3.78-.44-1.45-.58-2.46-.29-3.63.29-2.18 1.6-3.77 1.3-4.64-.43-3.92-1.02-4.2-1.16-2.76-3.04-4.2-7.11-7.98-1.16-1.89-6.68-4.5-2.9-2.9-.72-1.88v-1.6l-1.02-1.74-2.32-2.9-1.31-4.06-3.19-7.4-1.59-3.19-5.37-5.37-.72-2.03-2.18-6.38-.87-4.5-.15-3.33.15-7.55-1.45-8.27-.87-6.23.72-5.95 1.74-6.38.87-4.94.29-10.44.58-3.19 1.02-1.89 3.05-1.88 3.33-2.61 3.63-4.65 3.34-3.19 4.64-2.75 3.62-2.61 17.56-18.57 1.45-2.18.87-2.32 2.9-11.31-.15-4.21-.72-4.21.29-3.33 1.59-3.48 4.94-9.43.29-1.16-.44-1.45-1.16-2.04-1.45-5.65-.58-4.06 1.74-5.08 2.18-4.21 2.61-2.46 3.19-4.36.73-2.17v-1.6l-.88-2.75-1.3-2.61-1.89-1.89-4.06-2.76-2.61-1.01-10.15-1.45-5.37-1.45-15.81-6.24-5.08-4.64-1.6-2.47-2.03-5.08-.58-14.79 1.02-7.83-.15-1.02-.72-1.16-2.32-1.74-1.74-.58-1.45-1.31-3.49-4.06-4.35-6.82-2.32-3.19-1.88-1.59-3.05-4.94.58-4.2-.15-1.31-2.17-2.17-.29-1.02.14-1.74.87-1.01.15-1.31-1.02-2.18-2.9-2.75-7.69-4.21 12.91-24.51-5.94-11.03v-2.17l48.74-165.66.29-1.02 8.41-.58 2.18-.14 13.2-.44 4.06-.29 6.38-.58 13.78-.72 6.24-.44 9.43-.43 3.34-.15h2.75l5.23.29 4.49.58 4.35.58 20.31 3.48 2.18.15 7.54.29 3.19-.15 5.08-.72 22.63-2.76 5.66-.58 2.61-.14 2.17.14 3.05.15 2.03.29 1.89.58 4.2 1.16 6.24 1.88 2.32.58h3.63l2.47-.14 2.17-.29 2.61-.73 1.31-.58.43 1.16 1.45 2.9 2.18 3.2 4.93 4.49 2.18.87 2.17.44h1.74l1.46-.44 2.03-1.01 2.17-1.45 1.45-1.6 2.32-4.21 1.31-3.91 1.31-2.32 2.03-2.47 2.46-1.74 2.18-.72 2.75-.15 6.68 1.02 2.03-.44 1.88-.72 2.32-1.31 1.17-1.02 1.01-1.59.58-1.74.58-2.9.15-2.32-.15-2.18-1.16-4.06-1.01-2.9v-1.31l.14-1.59.58-2.47v-2.18l-.58-2.75-1.45-3.19-1.89-2.03-1.59-1.02-1.74-.43-1.74.29-4.21 1.45-3.63.87-2.9-.15-1.45-.29-1.16-.87-2.18-2.76-1.16-3.33-.43-1.74v-3.34l-.44-4.35-.43-2.32-2.03-4.21-1.31-2.32-1.45-1.3-5.95-2.62-1.3-.87-1.31-1.59-2.03-4.64-.43-1.31.14-.58.29-1.6 50.63 12.62 71.22 16.4 3.34.87 7.11 1.74 46.27 10.88 3.2.72 40.47 9.72 45.84 10.59 6.38 1.31 8.27 2.17 8.99 2.76 1.45.29h2.61l26.26 6.24 37.72 8.7 38.87 9.28 6.1 1.45 5.65 1.16 5.08 1.45 69.92 16.54 12.62 3.05h.44l3.19.87 4.06 1.01 4.21.87 10.73 2.76 3.34.73 3.62.72 13.64 3.05 6.24 1.59 25.53 6.24 128.09 31.19 5.08 1.3 17.4 4.5 17.7 4.35 2.32.29 3.05.73 47.72 11.89 8.13 1.89 2.75.58 23.21 5.8 2.62.58 33.5 8.27 45.26 11.02 8.42 2.03 3.04.73 1.45.43 3.05.73 32.5 7.83 1.01.29 9.14 2.61 1.74.87 10.88 3.05 19.29 6.53 1.89.58 20.45 4.79-.87 4.49-1.45 7.11 11.75 2.03 7.26 1.16 2.32-5.66.87-2.46 1.01-.44 1.16.29 25.39 4.36 39.75 9.28 1.45.14 19.72 4.94 15.09 3.62 8.85 2.18 2.03.43 2.03.58-3.62 14.51-1.75 8.27-.87 3.48-.87 3.34-5.65 22.04-.73 2.62-.29 1.01-.29 1.74-.58 2.03-1.16 4.5-2.9 11.31-.15.73-.72 2.9-.58 1.89-.58.43-6.24 23.5.44 1.31-.88 3.19-1.01 3.77-.58 2.61-.58 2.32-2.9 11.17-2.32 9.28-1.89 7.11-1.74 6.82-.14.44-1.17 4.93-1.88 7.54-9.29 37.43 17.7 4.35 30.32 7.54-.14.58-.29 23.5-.29 3.05-.59 2.32-1.88 2.75-.29.87-.73 2.47-1.45 5.8-.72 1.74-1.02 1.16-1.74 2.18-.43 1.02-.44 1.88-.29 1.74-13.49-3.19-10.3-2.47-1.16-.29-28.14-7.25-22.2 12.62-15.37 10.88 1.45 4.5.14 4.06-2.32 3.92-11.46 6.09-6.09 3.04-5.95 6.68-6.24 7.83-4.06 12.91-2.03 5.95 1.02 7.11 2.75 1.88.15 1.45-.29 1.6-.44 1.3-.72 1.6-8.13 13.49-2.32 3.34-8.7 13.05-5.37 5.37-1.45 1.59-1.45 2.04-1.31 2.03-3.91 6.38-1.02 1.59-1.16 1.31-1.3.87-1.6.58-1.59.29-2.76-.14-2.32-.44-2.32 5.51-1.31 4.06-6.82 22.05-3.19-.14-1.74-.15-2.75-.29-2.76-.58-3.63-.87-6.38 15.09 2.47.43-11.9 46.42-1.16 4.64-.58 1.89-.73 1.89-.87 1.74-1.01 1.59-1.31 1.45-8.56 7.4-12.76 10.88-2.18 1.74-2.17 1.31-2.03.72-2.03.29-2.33.15-.14 2.32-.58 1.59-2.32 4.06-.58 2.62-2.61-.58-13.2-7.84-18.86-6.23-5.51-1.46-1.45-.29.14-.43-.44-2.32-2.61-.73-3.62-1.59-1.89-.87-.14-.15-1.02-.58-1.01-.87-1.02-.72-2.47-1.16-1.16-.44-2.03-.72 1.31-5.37 2.46-9.43 1.02-4.21 4.06-16.1 3.48-12.62-42.65-9.14-.29.29-4.93 15.96-1.59 5.37-1.31 3.19-2.17 8.12-1.02 3.19-.87 1.45-1.45 1.74-.58.87-2.47 6.1-4.78-3.2-7.84-7.54-.72-1.3-.44-2.33-.72-5.07-.58-13.35-.73-15.37-.72-14.65-1.17-14.66-.29-14.36-1.3-24.37-.29-4.64-.44-14.5-1.59-22.92-.44-1.6-.72-1.16-13.78-16.97-6.97-8.85-7.83-2.47-11.02-3.04-7.98-2.61-1.45-.73h-2.32l-1.02-4.35-1.02 1.01-.58.3-1.01.29-1.74.29-1.16-.15-.73-.29-1.45-.73h-1.88l-.58-.58-1.46-2.03-.87-.43-2.32-.87-1.45-1.02-1.74-1.16-4.35-3.19-1.02-.14-2.75 1.59-2.18 1.74-1.3 2.32-.58.58-.87.44-1.02 1.01-1.01 1.02-3.34.87-1.6.58-2.17.44-2.76.58-1.88 1.01-2.33 1.6-3.77 2.32-3.19 3.19-1.3 1.01-.44.58-1.45 2.62-1.31 1.74-1.59 1.74-2.76 1.74-1.01 1.01-1.89 1.89-1.3 1.88-.44.29-1.89.73-1.59 1.6-.87.72-.29.44v.14l.14.73.73 1.59.58 1.89-.58 1.45-9.87 6.24-2.46.72-.58.58-1.74.58-1.31.58-1.59 1.16-1.16.44-1.89.43-2.18.15-1.74.29-4.06 1.3-2.32 1.16-1.01.29-1.31-.14-1.16-.44-1.31.15-1.01-.44h-.44l-.58.44-.58.58-2.03 1.3-2.9 1.75-2.61.72-1.6.44-.72-.44-2.03-1.16-1.02-.14-3.48.72-3.19 1.02-.87.72-.58.58-1.02 1.45-.72.58-1.74.29h-2.18l-2.32-.72-3.77-1.31-1.6-2.32-1.45-1.16-1.59-.87-.73-.73-.58-.72-2.76-2.18-2.03-2.17-3.77-2.9-.72-.58-2.61-.29-1.16-.44-.73-.72-1.31-1.46-.43 1.6-.15 1.16-.29 1.74-.43 1.45-.58 1.02-2.61 3.19-.73 1.45-1.16 3.05-1.3 4.49-.15.87-6.82 15.52-.43 2.04-2.03 3.62-1.02 2.47-4.21 12.33-2.03 16.24-.72 2.76-.73 6.53v3.04l.15 3.05v1.31l.14 2.03.15 1.01 1.01 1.45.29.73.15 1.88.43 1.89.73 2.32.43 2.47 1.02 7.25 1.02 4.06.43 2.47.44.87.14 1.01.15 1.74.72 2.18 1.02 4.21v3.33l.72 8.27.58 2.76.44 2.17.29 3.19.43.58.73.29 1.88.44 1.02.43.43.44.15.58v2.47l.29 1.16.58.87.73.72.43 1.02.15 2.75.29 1.45.58.73.29 1.16v1.31l-.15.58-1.16 2.17-.72.87-1.75 1.74-.58.87-.87 2.03-.29 2.47-.14.58-.44.58-3.04 2.03-.44.73-.87 1.01-1.74 1.02-3.77 1.59-3.19 2.03-1.31 1.31-4.2 4.64-2.47 2.03-1.6 1.45-1.01 1.6-1.02 3.19-.72 1.31-.87.87-1.89 1.59-.58.58-1.01 1.31-1.31 2.17-.87 1.02-.44.87-.72 2.17-.58 1.31-.58 1.02-.44 1.59v1.31l1.45 3.19.29 1.16-.14 4.06.29 3.34.43 1.88.44 1.02.58.58.29 1.3v2.18l.58 2.61 2.32 3.05.73 1.45v1.16l.43 1.45.73 1.16 1.59 2.32 2.32 2.03 1.02 1.31 1.16 1.74 4.21 7.69.14.29.58 1.3 14.8 4.06-1.02 7.4-.58 2.32-.72 1.89-1.6 1.88.29.87.29.58.73 1.16 1.01 2.03.73 2.04.29 5.07.58 3.63 1.45 2.61.29 1.02v1.01l.29 4.35-.15 1.89-.43 1.16-.44 1.16-1.3 1.6-3.48 4.06-2.03 1.88 1.3 2.9 5.37 12.19 3.48 5.22 8.7 11.17 1.45 4.79-5.07 2.03-3.77 1.59-10.59 4.65-9 4.06-3.33 1.59-8.42 3.19-.87.44-.87.29-9.14-4.79-24.95-18.27-28.87-20.02-28.14-7.98-48.01 9.14-.29 1.16-.58 1.74-3.2 11.46-1.59 5.37-2.03 6.38-1.16 2.9-1.31 3.19-1.3 2.76-1.6 3.33-1.16 2.47-2.32 4.06-3.63 5.8-12.47 18.86-5.95 8.85-8.85 13.2-8.56 12.91z" stroke-linejoin="round"/></defs><use xlink:href="#a" fill="#9dc8ca" stroke="#6bb4d2" stroke-width="5.76"/><defs><path id="b" d="M2560.5 1149.74l-4.79-1.16-2.03-.73-7.98-2.32-4.06-1.16-3.77-1.16 2.17-8.7-7.25-1.74-1.01-.29 1.88-6.82.44-1.6 1.01-4.21 2.18-8.26.29-1.16 2.75-10.01 2.47-9.43 2.47-9.29 3.04-11.89 9.58-36.56 1.88-7.54.44-1.59.29-.73.87-1.16.72-2.32-.72-.29-.87-.15.72-4.06.29-2.61.29-2.9.15-2.9.14-4.64.15-3.77v-3.49l-.15-4.35-.58-7.83-1.59-11.46-.44-2.9-1.16-8.41-4.06-26.41-1.89-13.2-1.59-10.73-.29-1.45-1.02-7.4-1.01-6.96-.44-2.76-.14-1.3-2.18-13.78-3.48-24.95-.87-5.66v-.58l-.29-1.16-2.03-14.36-2.18-14.8-.43-2.9-3.63-22.48-1.16-9.14-1.74-12.48-2.47-17.7-1.3-9.13-.29-1.45-1.89-13.93-.72-4.06-2.18-14.36-1.3-8.42-.29-2.46-.15-1.02-.14-.58-.29-2.32-.88-5.8-.72-4.64-.73-2.9-1.3-4.94-.87-2.46-1.45-3.77-1.6-3.34 1.16-2.47-5.22-8.99 2.18-.29 2.32 3.05 4.2.72 11.17 5.22-2.03-2.9-1.16-1.88-1.01-2.03-.58-1.74-.58-2.33-.29-2.9-.15-.87.73-3.48 1.16-5.08.43-1.88.44-2.03 2.46-10.3.58-1.02.44-11.46.29-6.67-.58-4.64-1.16-3.77-1.74-3.05-3.77-3.77-12.77-8.12-2.03-2.03-1.45-2.18-3.34-6.67-1.45-2.9-2.46-3.63-4.07-5.08-7.39-10.73-.58-1.45-.15-.29-.29-.73v-1.01l.15-2.47.14-2.03.29-1.45.44-1.45.72-2.03 3.19-7.11.73-2.03.87-3.19.72-3.92.58-1.88.73-1.31.43-.58 7.55-5.51.87-.29 3.48-1.02 1.45-.72 3.34-.44 2.17-.58.87-.14 1.02.29.58.58.43.43v.73l-.43 2.9v2.17l.29.87.43.87.58.44.58.14 2.47-.29 1.31-.58 2.32-1.45 1.59-.29.73-.14 2.32.29 3.19 1.45 2.61 1.3 1.16.88 2.18 1.88h.58l.29-.29 1.59-2.76 2.91-3.48 2.46-2.32 4.64-5.65 1.89-2.33 3.48-3.48 1.45-2.03 1.31-1.74 2.46-2.03 3.77-3.05 2.33-2.03 1.16-.87 1.01-.87.58-.87 1.45.29 5.95 1.45.29.15 4.93 1.3 3.77 1.02 16.69 4.21 10.3 2.61 1.74.58 6.38 1.59 5.08 1.31 7.1 1.88 7.84 1.89 6.53 1.74 5.07 1.31 4.79-17.85 2.76-11.17 12.76-50.04 10.59-41.05 4.35-16.83 4.5-17.7 1.45-6.38 10.73-41.63 35.4 8.85 45.55 11.6 39.6 9.43 10.45 2.9 2.03.15 5.8 2.17 3.05.29 23.93 6.24 14.51 3.34 3.77-15.23 10.59-40.48 8.41-32.2 2.03-7.69 5.23-20.45 2.32-8.85 4.93-18.71 2.17-8.71 2.62-10.15 1.74-6.53.72-2.61 3.05-11.89 4.64-18.14 7.4 2.04 6.53 1.59 7.25 2.03 7.11 1.74 10.44 2.76 4.06 1.16 25.53 6.82 17.12 8.41 1.31.44 9.43 2.17 9.86 2.47 10.74 2.61 5.94 1.3 13.64 3.49 20.6 4.78 2.9 1.02 9.57 2.17 5.66 1.6 3.77.72 2.32.44 22.63 5.8 17.7 3.48 64.55 16.83 2.18.15 8.7 2.03 7.4 1.59 2.47.87 46.42 11.9 11.6-20.75 2.32-4.06 14.8-26.54 2.61-4.65 2.32-3.77 9.43-13.2 6.24-13.63 9.57-.73 51.21-4.49 148.25-12.48 147.24-12.62 4.79-.29 106.91-8.99 28-2.32 13.05-1.17 8.42-.72 20.6-1.74 26.11-2.32 22.77-1.89 37.57-3.04h.87l7.4-.73h1.02l49.61-4.35 27.85-8.99 8.12-2.91 29.16-10.01 2.61-1.01 3.48-.73 6.82-1.45 4.35-.87 1.89-.29 47.29-14.07 52.08-19.58 3.77-2.47 4.79-3.48 10.15-1.3-.73 2.17-.43 2.32-.44 2.76-.58 6.09-.29 3.63-.29 3.04-.29 2.91v4.93l.29 1.74.73 1.59 1.01 1.31 1.02.72.87.59 1.16.43 1.16.29 1.74-.14 2.03-.44 1.6-.43.72-.15 5.81-1.6 1.16-.29h1.45l1.45.58.87.58 1.16 1.31.58.87.29.87.29 1.74-.29 1.89-.58 2.03-1.02 1.45-1.3 1.01-2.03 1.45-3.63 2.18-1.16.73-7.11 4.64-2.46 1.74-1.74 1.59-1.6 1.75-1.31 1.59-.58.87-.87 1.31-.72 1.59-.87 1.74-2.76 5.66-5.22 11.46-1.89 4.06-1.01 2.47-.73 2.03-.29 1.74v1.74l.29 1.74.44 1.6 2.32 5.07.58 1.89.29 1.45-.15 1.6-.58 2.17-.58 1.02-1.01 1.3-1.16.87-1.02.73-3.62 1.88-5.95 3.19-1.74.58-1.74.3-1.89-.3-2.03-.87-1.16-1.01-1.16-1.6-.44-1.16v-3.33l.58-1.74.58-2.03 1.02-1.31 2.03-1.89.87-.72 2.47-2.47 1.01-1.01.87-2.18.44-1.74.14-1.89-.29-1.74-.58-1.16-1.3-1.88-3.34 1.01-1.74.44-1.45.58-1.31.29-1.45.29-1.01.14-1.02.15-.72-.15-.58-.43-.58.72-1.31 1.74-.87 1.31-.58 1.16-.58 1.6-1.31 4.64-1.88 6.53-.44 1.59-.58 1.45-1.01 2.18-1.02 1.74-1.16 1.74-1.3 1.6-2.03 2.03.58 3.04v3.05l-.15 1.88-.29 1.16-.58.58-.58.59-1.02.72-1.01 1.02-.44 1.01-.87.87-.72.87-1.02.87-.43.87-.29 1.02-.29 1.01-.58.73-.58.72-.44.87.15.87-.44 1.17-1.01 1.16-.87 1.01-.73.44-2.03.58-1.74.43-2.03.58-1.45.87-2.03 1.31-1.45.72-2.03 1.45-1.17 1.02-1.01 1.74-.73 2.18-.58 1.74-.29 1.45-.14 1.16-.29 1.16-.73 1.74-1.45 3.04.29 1.6v.58l.44 9.57.14 1.75-.14 1.45-.15.72v.29l-.29 1.02-.29 1.16-.43 1.01-.58 1.31-1.6 2.17-2.9 4.21-2.76 2.9-2.32 1.89-3.33 2.32-.44 1.74-2.61 3.92-1.31 3.77 2.62 5.95.87 2.61-2.47 4.78-1.02 3.05.58 5.08-1.59 3.62-3.34 4.06 4.5 8.71 1.74 2.46 1.02.87 1.74.87 4.78 1.75 4.65 2.9 3.33 2.32.87.87 1.02.87 5.08 6.82 2.61 4.35 2.9 3.77 2.03 1.74 3.62 2.47 4.21 2.17.73.73.58.72.72 1.02.58 2.32.73 3.92.72 2.03.87.58 2.61 1.74 1.75 1.3 1.3 1.16.87.87 1.16 1.45 1.02 1.6 1.74 2.9 1.16 2.03 1.3 2.32.73 2.18.29 1.45.73 3.77.43 1.31 1.31 2.17 1.3 1.45 1.16.87 2.03 1.89.44.72.43 1.45 3.05 7.55 14.65 35.97 2.03 5.08 22.63 28.72 7.11 8.99 113 49.76 10.45-1.16 21.61-2.32 66.88 23.5 19.43 6.96 1.16-.14 4.94-.87 2.17-.29 1.45.14 2.76.29h1.6l1.59-.43 4.35-1.6 1.31-.29 1.74.14 2.47.44 2.9.73 13.34-21.18 4.21-6.24 6.82-10.59 6.38-9.28 5.51 9.13-.14.58-5.66 15.96-15.09 45.11-24.37-6.67-1.59 4.64-2.76 9.14-.43 1.02-9.29-2.47-3.92-.72-3.77.29-5.07.43-5.23 2.47-5.8 3.04-5.08 3.05-10.88 8.56 17.85 47.58-.29.58-.15 1.01-.43 16.54-.15 4.5-.43 10.44-.87 14.36-.15 7.98-6.67 15.09-2.76 6.96-2.61 4.93-2.32 3.77-3.63 3.92-7.83 10.01-.29.58-.15.87.15 1.89 9.28-6.97 5.52-4.35 7.54-6.53 3.05-3.04 3.04-3.34 3.48-4.06.44.43 2.75-1.88-.14 1.45 3.77 4.06 8.13-3.77.72-.58 6.09-4.21 5.37-6.53-1.31-4.2-3.19-5.37-.58-.43-5.36-.73h-.87l3.91-7.25h1.02l1.16.72 1.59-.14 3.49-.29 3.77-.29 5.94-.73.29 4.35.15 5.37-.29 1.6-.73 2.46-2.03 5.51-5.07 11.75-.58 1.02-.87 1.31-.58.29-.73.43-4.93 1.6-1.45.58-3.48 2.17-1.75 1.74-.87 1.16-3.48 5.52-6.52 10-15.09 26.84-2.76 4.06-5.65 7.4-4.5 4.64-69.63 11.03-2.47-7.98-.29-.73-4.64 2.18-10.59 5.08-5.8 2.9-2.9 1.3-5.66 2.9-25.24 13.49-3.77 2.04-2.9 1.88-8.13 3.92-5.66 2.61-3.77 1.3-3.33.87-3.92 1.6.29.29v.44l-.29 1.01-.58.58-1.31 1.16-3.48 1.89-6.09 2.46-8.56 2.47-3.34.58-3.33.29-2.18.14-2.32.15-.87.15-1.59.58-3.34 2.61-3.77 3.19-4.35 3.33 5.8-1.88 4.49-1.6-2.32 1.6-1.01 1.01-1.6 1.02-2.17 1.59-1.6.73-1.16 1.02-3.05 1.59-.87.58-.58 1.02-1.88 4.35-4.5 11.17-5.8 14.21-1.74 2.47-1.16 2.03-1.02 1.6-.72.72-1.45 1.02-1.45.43-.73.15-.87.14-.29.29-.29 1.31.29 1.88-.15 1.16.15 1.89-.44 7.11-.29 1.74-1.01 3.19-.58 1.02-.58.72-1.31.29-.29.29-.29.29-.43 1.89-.87 1.3-1.45 1.89-.29.58-.15.43.15.58.29.44.29 1.01v2.33l-.44 2.17-.72 1.74-1.16 2.03-1.6 1.89-1.16 1.01-.87 1.31-3.19 5.22-.44.58-.29.73-.29.87.29 1.16v.72l-.29.58-.29.58-.58.29-2.75 1.45-.73 1.02-.87 2.18-.44.72-.43.29-2.47 1.6-1.01.87-.73 1.3-1.01 1.31-.58.43-1.02 1.02-1.45 2.9-.29.58-.43.44-1.46.72-1.59.87-2.18 1.02-1.45.14-1.59.58h-.73l-2.17-.29-.73.29-.73.44-5.07 5.65-6.97 6.82-2.9 3.05-2.32 3.04-3.19 5.81-1.45 2.17-2.47 3.92-1.45 3.19-2.03 4.79-.58 1.3-6.38 7.26-1.89 2.46-2.03 2.18-4.78 4.64-1.16 1.16-.15.44-1.01 3.77-.44.58-1.02.72-.87.44-.43.29-5.22 5.8-5.81 6.24-1.59 2.03-1.6 1.88-1.01.73-2.03 1.01-2.18.58h-1.89l-4.35-.14-3.48-.29h-5.22l-1.74.14-1.16.44-1.31.29-8.56-1.02-1.3-.14-1.45.29-1.89.87-.87.15-4.79.14h-2.17l-1.16.15-1.16.58-.44.43-1.59 2.03-3.63 6.24-1.89 3.77-4.2 7.54-3.48 5.23-.73.87-.58 1.16-.73 4.49-.14 1.31.14 1.01.15.87-.29 5.81-.44 3.33-.58 1.6-.58 1.45-.72.73-1.16.72 8.56.44h8.12l9.72 1.3 3.77.73.73 1.01v3.48l.87 5.95v.58l-1.16 4.5-.15 1.16v5.66l-.14 3.48-1.02 3.33-.72 1.45-2.04 2.61-.43 1.31.58 1.31 1.74 2.17 1.89 1.89 1.88 1.59 1.02.87.14 1.02-.14.72-.87 2.47-.58 1.45.29 2.61v1.16l-.29 1.16-.58 1.6-.73 4.35-.72 1.45-.73.58-2.32 1.16-1.89 1.16-3.04 3.05-.44.72-.43 1.16-1.02 4.94.15 1.88v.44l-.29.43-3.34 3.34-.58 1.45-.87-.15-62.38-14.79-37.86-9.29-89.07-22.62-90.81-21.62-4.06-.72-2.17-2.62-60.49-63.82-28-28.58-1.16-1.59h-.15l-2.46-2.61-3.63-4.36-9.43-8.55-39.6-40.62-31.04-31.62 3.19-3.63 1.59-1.6 1.31-2.03 1.3-2.32.87-4.49-.29-5.23-.43-11.31.29-1.89 2.17-4.49.29-.29-5.51-10.88-8.85-17.12-2.17 1.74-2.18 1.02-2.75.14-6.97-1.45-8.27-1.89-8.41-2.17-4.64-1.16-.58-.15-.58-1.01-.15-.58-.43-4.5-.44-1.74 5.66-22.48.44-.58.87-1.31 1.59-.58 11.75-2.03 2.9-.44-.87-10.01v-.87l-10.44 2.04-14.22 2.9-15.52 4.06-3.34 1.16-4.93 1.88-2.61 1.02-4.21 1.74-7.1 3.48-5.52 2.9-4.06 2.47-7.98 4.93-3.48 2.32-6.96 5.08-3.19 2.46-1.6 1.17-4.5 3.91-2.9 2.61-2.75 2.61-3.34 3.05-2.9 2.9-2.61 2.9-2.32 2.32-2.9 3.19-1.6 1.89-2.18 1.6-4.06 5.22-8.27 11.02-2.17 3.19-6.38 10.45-1.6 2.9-1.45 3.19-5.8 11.9-5.23 10.44.73.29-.73 1.31-2.17 4.49-3.19 6.39-7.4 12.62-1.74 2.9-1.16.58-1.16 1.88-2.76 3.92-1.6 2.32-3.48 4.64-3.48 4.06-1.16 1.45-4.5 5.08-2.17 2.47-5.08 5.07-4.64 4.65-3.92 3.91-9.14 7.98-1.88 1.31-2.9 2.17-3.34 2.47-3.19 2.17-2.61 1.74-2.47 1.6-1.74 1.16-.72 1.16-3.63 2.18-3.77 2.46-1.16.58-3.77 1.89-6.24 2.9-1.45.58-4.35 2.03.72-.87-2.47 1.02-2.03.58-8.56 2.9-3.48 1.01-9.86 3.05h-.29l-13.49 3.92-24.52 7.68-17.26 5.23-11.9 3.48-4.49 1.45-15.52 4.79-10.74 3.19-4.35 1.3-1.74.44-20.02 5.94-4.35 1.31-4.06 1.16-3.77 1.16-13.06 4.06-4.93 1.45-1.02.29-7.69 2.47-3.48 1.02-12.62 3.62-10.15 2.9-24.08 7.55-2.9.87-14.22 4.35-.15.72-7.83 2.32-.14-.58-26.84 8.13-7.83 2.32-13.49 3.04-.44-.29-1.89 1.31-1.16.29-4.49 1.89-6.68 2.17-3.77 1.02-2.17.72-7.98 2.76-1.6.43-6.67 1.89-16.97 5.08-3.63 1.16-6.38 1.88-2.76.29-5.8 2.32-7.25 2.18-1.74.72-1.02.3-7.25 2.03-7.98 1.88-5.51 1.02-3.78.43-10.44 1.74-12.48.73-20.01 1.3-2.47.29-5.22.44-6.68.72-4.64.44-11.46 1.45-2.46.29-1.16.15-1.74.14-2.33.29-6.23.58-4.21.58-6.96.73-16.83 2.03-14.51 1.74-.14-2.47-6.82 3.34-1.6.14-21.17 2.61-11.9 1.16.15.73-3.34.44-11.9 1.45-1.01.14h-.58l.14-.72-1.3.29-10.45 1.3-9.43.87-6.23.87-9.43.73-6.24.14-8.99.15-3.78-.15h-.87l-7.83-.72-5.37-.29-2.46-.29-9.87-1.45-2.61-.29-9.28-1.31-7.4-1.89-.87-.29-16.25-4.2-7.98-1.74-1.3-.29z" stroke-linejoin="round"/></defs><use xlink:href="#b" fill="#9dc8ca" stroke="#6bb4d2" stroke-width="5.76"/><defs><path id="c" d="M3086.35 2555.07l-2.61-.73-81.38-20.89-13.49-3.77-12.19-3.48-67.74-17.12-.29-1.74-110.68-27.7-29.74-7.69-27.85-7.25-71.08-18.14-159.86-41.48-6.68-1.31-23.21-6.24-33.22-8.55-39.16-10.45-4.93-1.3-1.75-.44-5.36-1.45-2.03-.44-4.36-1.16-1.01-.29-7.83-1.88-4.36-1.02-7.97-2.03 2.03-9.14 4.2-15.66.44-1.89.29-1.16 21.32-82.97 23.94-91.83-39.75-9.86-30.32-7.54-17.7-4.35 9.29-37.43 1.88-7.54 1.17-4.93.14-.44 1.74-6.82 1.89-7.11 2.32-9.28 2.9-11.17.58-2.32.58-2.61 1.01-3.77.88-3.19-.44-1.31 6.24-23.5.58-.43.58-1.89.72-2.9.15-.73 2.9-11.31 1.16-4.5.58-2.03.29-1.74.29-1.01.73-2.62 5.65-22.04.87-3.34.87-3.48 1.75-8.27 3.62-14.51-2.03-.58-2.03-.43-8.85-2.18-15.09-3.62-19.72-4.94-1.45-.14-39.75-9.28-25.39-4.36-1.16-.29-1.01.44-.87 2.46-2.32 5.66-7.26-1.16-11.75-2.03 1.45-7.11.87-4.49-20.45-4.79 7.98-2.47 10.73-2.61 2.18-.14 1.88 1.01 2.03 2.18 1.75 1.01 1.01.15 1.02-.58.43-1.16.87-1.6 1.16-1.59.73-1.02.87-.87 1.16-.72 2.32-.73 2.61-.58 6.96-1.02 3.49-.43 5.94-15.81.87-2.61.44-1.31.58-1.3.58-1.45.87-2.18 10.44-25.97 8.13-20.88 2.32-5.52.43-.87 5.23-14.21 1.88-5.08 4.5-11.89 6.38-16.83 1.6-3.92 3.91-10.3 4.36-11.46 1.3-3.48 1.02-2.75.72-2.33 1.16-3.33 3.05-7.55 1.74-4.78 1.45-3.19 2.03-5.08 3.92-10.01.43-1.16v-.14l6.82-18.14.87-1.88 2.76-7.11 3.04-8.27 5.52-13.49 2.17-5.22 2.61-6.96.87-2.62 1.45-3.77 1.16-2.9 3.05-7.54.73-1.89 2.61-6.53 2.03-4.78 4.64-12.33 4.64-11.75 2.9-7.4.44-1.31 1.16-2.9.43-1.01.58-1.74 4.07-10.3 4.2-11.32 4.65-11.89 2.75-7.11 2.9-7.54 10.45-26.26 1.01-2.32 2.18-6.09 1.16-2.9 3.92-10.16 3.19-8.7 5.94-14.94.87-2.61 2.33-7.11 3.33-12.77 5.08-18.85 2.18-7.98 2.61-9.14 1.16-4.79 2.17-7.98.15-.72.29-1.16 2.03-7.69 1.01-3.92 4.65-17.26 3.77-14.21 4.93-19.15 2.32-9.28 2.32-8.85 2.32-9.14 2.18-8.13.14-.87 2.18-8.99 2.61-9.28 2.18-8.85 2.46-9 2.32-9.28 2.33-9.43 2.46-8.99 2.32-9 1.6-5.8.72-2.9 2.32-9.28 2.33-9 2.17-8.55.29-1.17 2.32-8.99 1.45-4.06.87-4.5.58-.72 2.03-8.56.87-5.22 1.46-3.92 1.16-5.22.58-1.6.43-1.01.15-.58-.15-2.47 1.45-1.74.29-3.63 1.6-4.64.29-.58v-.58l.72-4.93 1.89-5.22.58-4.79 1.89-4.5.72-5.51 1.74-3.77 1.02-8.27 2.17-3.48 2.76-15.52 6.67-21.18.73-4.79 1.16-3.19.58-1.01.58-2.18.29-2.47.87.15.72.29-.72 2.32-.87 1.16-.29.73-.44 1.59-1.88 7.54-9.58 36.56-3.04 11.89-2.47 9.29-2.47 9.43-2.75 10.01-.29 1.16-2.18 8.26-1.01 4.21-.44 1.6-1.88 6.82 1.01.29 7.25 1.74-2.17 8.7 3.77 1.16 4.06 1.16 7.98 2.32 2.03.73 4.79 1.16 1.3.29 7.98 1.74 16.25 4.2.87.29 7.4 1.89 9.28 1.31 2.61.29 9.87 1.45 2.46.29 5.37.29 7.83.72h.87l3.78.15 8.99-.15 6.24-.14 9.43-.73 6.23-.87 9.43-.87 10.45-1.3 1.3-.29-.14.72h.58l1.01-.14 11.9-1.45 3.34-.44-.15-.73 11.9-1.16 21.17-2.61 1.6-.14 6.82-3.34.14 2.47 14.51-1.74 16.83-2.03 6.96-.73 4.21-.58 6.23-.58 2.33-.29 1.74-.14 1.16-.15 2.46-.29 11.46-1.45 4.64-.44 6.68-.72 5.22-.44 2.47-.29 20.01-1.3 12.48-.73 10.44-1.74 3.78-.43 5.51-1.02 7.98-1.88 7.25-2.03 1.02-.3 1.74-.72 7.25-2.18 5.8-2.32 2.76-.29 6.38-1.88 3.63-1.16 16.97-5.08 6.67-1.89 1.6-.43 7.98-2.76 2.17-.72 3.77-1.02 6.68-2.17 4.49-1.89 1.16-.29 1.89-1.31.44.29 13.49-3.04 7.83-2.32 26.84-8.13.14.58 7.83-2.32.15-.72 14.22-4.35 2.9-.87 24.08-7.55 10.15-2.9 12.62-3.62 3.48-1.02 7.69-2.47 1.02-.29 4.93-1.45 13.06-4.06 3.77-1.16 4.06-1.16 4.35-1.31 20.02-5.94 1.74-.44 4.35-1.3 10.74-3.19 15.52-4.79 4.49-1.45 11.9-3.48 17.26-5.23 24.52-7.68 13.49-3.92h.29l9.86-3.05 3.48-1.01 8.56-2.9 2.03-.58 2.47-1.02-.72.87 4.35-2.03 1.45-.58 6.24-2.9 3.77-1.89 1.16-.58 3.77-2.46 3.63-2.18.72-1.16 1.74-1.16 2.47-1.6 2.61-1.74 3.19-2.17 3.34-2.47 2.9-2.17 1.88-1.31 9.14-7.98 3.92-3.91 4.64-4.65 5.08-5.07 2.17-2.47 4.5-5.08 1.16-1.45 3.48-4.06 3.48-4.64 1.6-2.32 2.76-3.92 1.16-1.88 1.16-.58 1.74-2.9 7.4-12.62 3.19-6.39 2.17-4.49.73-1.31-.73-.29 5.23-10.44 5.8-11.9 1.45-3.19 1.6-2.9 6.38-10.45 2.17-3.19 8.27-11.02 4.06-5.22 2.18-1.6 1.6-1.89 2.9-3.19 2.32-2.32 2.61-2.9 2.9-2.9 3.34-3.05 2.75-2.61 2.9-2.61 4.5-3.91 1.6-1.17 3.19-2.46 6.96-5.08 3.48-2.32 7.98-4.93 4.06-2.47 5.52-2.9 7.1-3.48 4.21-1.74 2.61-1.02 4.93-1.88 3.34-1.16 15.52-4.06 14.22-2.9 10.44-2.04v.87l.87 10.01-2.9.44-11.75 2.03-1.59.58-.87 1.31-.44.58-5.66 22.48.44 1.74.43 4.5.15.58.58 1.01.58.15 4.64 1.16 8.41 2.17 8.27 1.89 6.97 1.45 2.75-.14 2.18-1.02 2.17-1.74 8.85 17.12 5.51 10.88-.29.29-2.17 4.49-.29 1.89.43 11.31.29 5.23-.87 4.49-1.3 2.32-1.31 2.03-1.59 1.6-3.19 3.63 31.04 31.62 39.6 40.62 9.43 8.55 3.63 4.36 2.46 2.61h.15l1.16 1.59 28 28.58 60.49 63.82 2.17 2.62 4.06.72 90.81 21.62 89.07 22.62 37.86 9.29 62.38 14.79.87.15 5.66 2.03 1.88.44 117.79 29.59 3.63 1.01 18.71 4.79 8.13 2.03 179.73 45.98 7.98 2.32 34.67 8.85 5.8 1.45 139.55 35.69 1.6.43 7.39 1.89 2.18.72 1.89 1.75 2.9-.73 2.03.15 7.98 1.88v.44l-.29 1.45-.29 1.45.14.87.44 1.16 1.16 2.75.43 1.45.44.59 2.03 2.46.58 1.45.29 1.31.14 3.19-.14 1.88-.29 1.45-.87 3.05-1.74 4.06-1.45 2.9-1.31 2.03-.87 1.31-1.74 1.74-.43.58-.15.73-.29 1.45-.29 2.32v1.88l1.02 6.97 1.45 3.48 2.03 4.64 2.9 3.48.87.73.58.29h1.16l.43-.29.73.14.72.29.44.44.15.72.43 1.6-.14.58-.44 2.03-.14.14.43 1.6v.87l-.14.87-.73 1.89-3.05 4.78-1.45 1.45-.58 1.02-1.16 1.89-.87 1.01-.58.29-2.17.87-.29.29-.29.44-.29 1.01-.15 2.32.15.87.58 2.18.58 1.88.58 1.02.29.73.14 1.59v3.34l-.14 1.59-.29 2.03v2.76l.43 4.5-.14 1.45-.29 1.74-.29.58-.29.29-.87.58-2.47.29-2.18.58-2.17.72-2.03 1.45-1.45 1.89-1.31 3.48-1.6 5.08-.87 2.61-.58 2.03v1.45l.29 1.02.29.87-.29 1.45-.29 1.59v1.02l.29 1.01.87 1.45 1.46 1.89 1.3 1.31.44 1.45v1.01l-.73 1.6-1.6 1.45-1.01 1.01-.87 1.16-1.02 1.31-1.01 1.02-.15.43-9.72 40.91-.14 2.9.72 2.17.44 2.33-.44 2.75-1.16 2.61-1.45 1.45-1.59 1.74-1.6 2.61-.58 1.75-1.45 1.45-1.3 2.17-.88 3.34v3.48l-.58 3.19-1.59 3.34-1.6 2.03-2.03 2.17-7.25 6.53-8.12 6.09-1.02 1.02-.72 1.45-.44 1.45-2.03 7.98-.73 2.76-1.3 2.61-1.16 2.17-1.6 1.89-1.3 1.16-.44.43-1.16 1.31-.87 1.59-1.02 2.62-.72 1.88-.58.73-.44.58-1.16 1.01-1.16 2.03-.58 1.89-1.3.14-2.18-.29-3.92-1.3-3.77 1.45-1.16.43-.58.29-4.78 1.89-2.47 2.76-1.31 4.06.15 1.01.72 4.65-1.59 6.38-2.76 4.06-9.72 30.61-7.4 9.43-3.77 17.4-4.49 8.13-13.06 15.81-2.03 7.4-1.02 2.46-.87 1.31-1.3 1.01-2.61 1.74-.73.15-3.77 1.3-2.76.87-3.33 1.74-2.18 1.75-1.74 2.03-1.45 2.32-.43 2.17v3.63l-.44 1.6-.87 1.45-3.19 1.88-1.74.87-1.31.87-1.01 1.31-1.16 3.04-3.34 7.4-1.02 2.32-.72.87-.87.87-2.32.58-3.34.29-3.34.58-3.48 1.16-1.01.88-1.16 1.88-.87 3.19-.73 2.47-1.16 2.46-1.88 3.49-.88 2.03-1.16 2.32-.87 2.75-.87 1.6-1.01.72-2.18.58-1.88.44-1.6.87-1.16.87-.73 1.16-.14.73.14 1.16 1.02 1.88 2.18 3.05 1.01 1.88.44 1.46-.29 1.74-.73 2.03-1.01 2.03-1.45 2.32-1.75 1.74-2.17 1.3-3.34 1.31-7.11 1.6-7.83 3.19-6.09 3.91-7.55 9.72-11.6 8.71-3.34 9.42.44 3.05 2.75 7.98 13.79 17.26 1.59.73.44 5.22-1.89 7.4-5.8 9.72-3.63 14.65-4.64 4.93-2.9 12.91-4.21 6.67-1.88 6.38-.87 32.06.87 9.72 1.3 12.91 2.32 6.96.44 2.33.14 1.3 1.6 11.9 3.19 12.04 15.52 29.3 2.18 5.65 4.64 7.98 8.41 7.26 7.26 7.97 8.55 15.09 13.5 19.29 2.46 7.84-.72 32.78-2.32 9.14-10.3 8.56-.87 4.2-.58 2.61-2.33 4.5-.72 13.49.87 3.63-2.76 15.52 2.47 10.44-.87 9.29 1.45 6.53-.44 5.22-1.59 2.46-4.64 17.41 1.45 7.11-.87 5.95 1.16 7.1.14 12.04-2.17 3.92-6.82 8.12-3.19 7.11-.44 1.16 1.02 4.21-1.02 4.64-1.3 5.95.43 2.17 1.74 8.27-1.01 8.85-.87 8.41-.58 5.37-.44 4.21 1.89 4.35 1.45 3.63-.73 4.2-3.33 5.95-4.21 17.99-.15.58-1.01 1.16-5.08 6.09-.43 1.45-1.45 6.24-2.62 2.9-2.9 3.19-1.59 4.35-.58 1.89v3.77l-.44 1.31-2.17 7.83-.87 3.34-.15.43-.29 6.82-6.53 25.82 1.45 6.38 2.32 4.79 3.78 7.69.58 2.9-.15.72-.58 13.78-1.01 23.5-.58 11.32-2.04 3.48-.14.29-1.45 1.6-7.25 7.83-4.21 6.96-1.74 6.82 1.74 10.88 2.32 6.67 2.47 2.9 1.59 1.89 9.58 7.83 4.49 6.96 6.24 5.37 1.6 5.37 2.03 2.61.58.43 4.64.73 1.74.29 1.45 1.31.44 2.32.58 2.03-1.02 10.01 2.47 6.96 1.16 3.48-.29 1.31-3.05 13.92-.14.87-3.49 7.4-8.99 18.86-1.16 10.59-5.08 23.79.44 3.19 2.61 6.53.87 8.26 1.01 2.91.73 2.03.14 6.81v2.03l.44 2.18 1.02 1.6 5.22 8.41 3.19 4.93 2.03 5.66v.29l-.58 3.92-1.6 1.3-1.59 2.9-2.32 4.21-.44.58-12.91 20.16-16.97 20.46-1.89 3.04-.72 1.02-2.9 2.61-118.37-30.61-118.38-30.61-32.05-8.26-91.68-23.79-154.49-39.9-154.35-40.03-13.78-3.63-13.35-3.48-28.58-7.4-3.48-.72-2.17-.58-2.03-.29-27.13-6.82h-.29l-.29-.44h-.15l-1.16-.14-6.23-1.74-160.44-43.08-.58-1.02-.44-.58-2.46-.29-20.89-5.08-88.78-21.03-6.24-1.16-93.71-13.49-43.95-6.82-.29-.14-36.56-5.37-1.16-.29z" stroke-linejoin="round"/></defs><use xlink:href="#c" fill="#6bacaf" stroke="#097d9b" stroke-width="5.76"/><defs><path id="d" d="M174.07 1391.99l-100.09-23.36-28.58-8.7 40.62-171.03 23.21-93.85 29.59-119.53 29.74-119.67 28.87-117.65 28.72-117.64 37.86 8.27 5.95 1.45 65.13 16.68 15.96 4.21 117.36 31.04 129.97 33.8 2.32.87 9.58 2.32 10.15 2.47 30.9 8.12 41.34 10.74 39.61 10.3 35.54 9.13 40.32 10.59 37.57 9.87 41.64 10.73h.14l15.52 4.06 1.45.29 18.28 4.94 3.92 1.01 19 4.93 23.94 6.1 26.4 6.96 9.57 2.61 9.58 2.46 6.96 1.75 2.47.72 3.48.87 4.35 1.16 2.03.58 6.53 1.6 3.77 1.01 5.37 1.45 6.09 1.45 6.67 1.74 5.81 1.6 4.93 1.31 3.19.72 2.76.73 17.11 4.49 11.03 2.9 9.86 2.47 10.3 2.76 39.31 10.01 37.43 9.71 10.44 2.47 13.06 3.63 38.44 9.86 11.9 3.19 22.92 6.24 10.01 2.61 52.22 13.49 15.95 4.79 36.42 8.99 19.29-75.28 7.25 2.03 38.59 10.73 15.96 3.77 27.27 6.1 41.92 9.28 49.76 11.17 6.96-29.01 7.11-30.17 15.08-63.83 4.65-19.15.29-1.59 13.92-59.19 32.06 7.69 14.22 3.34 11.89 2.9 19.3 4.49 8.26 2.04 3.78.72-.29.87 2.03.29 3.48-11.89-1.74-3.05v-.15l2.17-8.7 2.9-10.73 2.33-9.43 3.48-12.77 5.94-23.35 5.08-19.87.58-2.33h.29l2.61.58 21.62 5.08 9.72 2.32 6.81 1.74 2.33.58 15.52 3.48 22.05 5.37 9.72 2.18 5.65-21.47 15.23-60.93 2.18-7.25 1.45-7.83 1.02-3.19 1.3-5.66.73-.73.29 1.02 3.48.87 15.81 3.92 14.22 3.77 7.54 1.88.73.15 70.64 17.84 7.69 1.89 31.91 8.27 12.77 3.04 5.22-20.31 3.05-11.6 17.4-68.18 6.39 1.6 3.91-16.54 5.08.87 4.06 1.16 6.53-2.76 2.32 4.94 6.24-16.39 2.03-4.79 1.31-1.89 2.46-2.61 2.03 1.16 4.79 2.18 3.19-.73 4.64.15 4.21 1.3 3.92 1.02 3.19-.29 2.32-.73 2.61-1.45 2.9-1.74 2.18-1.59 4.35-4.5 2.47-3.77 2.9-3.48 3.48-2.9 3.92-2.33 2.9-1.3 1.74-1.31 2.32-3.19 2.03-2.9 2.17-2.18 2.91-.58 2.75.15 2.47 1.74 2.46 2.47 3.92 4.64 2.61 3.91 4.06 5.08 2.47 1.74 2.32.58 3.63-.58 5.66-1.59 2.75-1.16 10.16-3.92 1.45-.15 1.45.29 4.06 1.46 3.77 1.88 2.61.58 2.47-.43 17.84-4.21 16.97-5.22 7.98-2.03-8.12 30.31-.58 3.92-.29 1.45-.15 1.89v6.67l1.31 15.52.58 4.21 1.45 8.12 1.01.44 1.31.72 1.01.58.59.29.43.44.44.29.43.29h.73l3.62 1.16-.87 1.45-.29 1.3-.72 2.32.29 3.78 1.45 6.96 4.2 11.46 1.31 3.77 1.02 2.61h3.33l.29.15 5.22 5.94 1.31 1.45.43.44 1.02 1.01.87.88 3.05.87 5.51 1.3 4.5 1.16 2.75.73 4.79 1.3 3.34.87 4.78 1.16 2.9.73 2.62.72.43-1.74.87-3.62.44-1.74 10.15-40.04.58-1.89 4.93-19.43 6.1-23.65 1.59-5.8.58-2.47 3.48.87 6.68 1.74 12.76 3.2.44-.15 22.48 5.66 12.77 3.19 59.47 14.8 16.54 4.2 51.64 13.49-.58.87-1.01.87-1.16.87-2.33 2.03-3.77 3.05-2.46 2.03-1.31 1.74-1.45 2.03-3.48 3.48-1.89 2.33-4.64 5.65-2.46 2.32-2.91 3.48-1.59 2.76-.29.29h-.58l-2.18-1.88-1.16-.88-2.61-1.3-3.19-1.45-2.32-.29-.73.14-1.59.29-2.32 1.45-1.31.58-2.47.29-.58-.14-.58-.44-.43-.87-.29-.87v-2.17l.43-2.9v-.73l-.43-.43-.58-.58-1.02-.29-.87.14-2.17.58-3.34.44-1.45.72-3.48 1.02-.87.29-7.55 5.51-.43.58-.73 1.31-.58 1.88-.72 3.92-.87 3.19-.73 2.03-3.19 7.11-.72 2.03-.44 1.45-.29 1.45-.14 2.03-.15 2.47V546l.29.73.15.29.58 1.45 7.39 10.73 4.07 5.08 2.46 3.63 1.45 2.9 3.34 6.67 1.45 2.18 2.03 2.03 12.77 8.12 3.77 3.77 1.74 3.05 1.16 3.77.58 4.64-.29 6.67-.44 11.46-.58 1.02-2.46 10.3-.44 2.03-.43 1.88-1.16 5.08-.73 3.48.15.87.29 2.9.58 2.33.58 1.74 1.01 2.03 1.16 1.88 2.03 2.9-11.17-5.22-4.2-.72-2.32-3.05-2.18.29 5.22 8.99-1.16 2.47 1.6 3.34 1.45 3.77.87 2.46 1.3 4.94.73 2.9.72 4.64.88 5.8.29 2.32.14.58.15 1.02.29 2.46 1.3 8.42 2.18 14.36.72 4.06 1.89 13.93.29 1.45 1.3 9.13 2.47 17.7 1.74 12.48 1.16 9.14 3.63 22.48.43 2.9 2.18 14.8 2.03 14.36.29 1.16v.58l.87 5.66 3.48 24.95 2.18 13.78.14 1.3.44 2.76 1.01 6.96 1.02 7.4.29 1.45 1.59 10.73 1.89 13.2 4.06 26.41 1.16 8.41.44 2.9 1.59 11.46.58 7.83.15 4.35v3.49l-.15 3.77-.14 4.64-.15 2.9-.29 2.9-.29 2.61-.72 4.06-.29 2.47-.58 2.18-.58 1.01-1.16 3.19-.73 4.79-6.67 21.18-2.76 15.52-2.17 3.48-1.02 8.27-1.74 3.77-.72 5.51-1.89 4.5-.58 4.79-1.89 5.22-.72 4.93v.58l-.29.58-1.6 4.64-.29 3.63-1.45 1.74.15 2.47-.15.58-.43 1.01-.58 1.6-1.16 5.22-1.46 3.92-.87 5.22-2.03 8.56-.58.72-.87 4.5-1.45 4.06-2.32 8.99-.29 1.17-2.17 8.55-2.33 9-2.32 9.28-.72 2.9-1.6 5.8-2.32 9-2.46 8.99-2.33 9.43-2.32 9.28-2.46 9-2.18 8.85-2.61 9.28-2.18 8.99-.14.87-2.18 8.13-2.32 9.14-2.32 8.85-2.32 9.28-4.93 19.15-3.77 14.21-4.65 17.26-1.01 3.92-2.03 7.69-.29 1.16-.15.72-2.17 7.98-1.16 4.79-2.61 9.14-2.18 7.98-5.08 18.85-3.33 12.77-2.33 7.11-.87 2.61-5.94 14.94-3.19 8.7-3.92 10.16-1.16 2.9-2.18 6.09-1.01 2.32-10.45 26.26-2.9 7.54-2.75 7.11-4.65 11.89-4.2 11.32-4.07 10.3-.58 1.74-.43 1.01-1.16 2.9-.44 1.31-2.9 7.4-4.64 11.75-4.64 12.33-2.03 4.78-2.61 6.53-.73 1.89-3.05 7.54-1.16 2.9-1.45 3.77-.87 2.62-2.61 6.96-2.17 5.22-5.52 13.49-3.04 8.27-2.76 7.11-.87 1.88-6.82 18.14v.14l-.43 1.16-3.92 10.01-2.03 5.08-1.45 3.19-1.74 4.78-3.05 7.55-1.16 3.33-.72 2.33-1.02 2.75-1.3 3.48-4.36 11.46-3.91 10.3-1.6 3.92-6.38 16.83-4.5 11.89-1.88 5.08-5.23 14.21-.43.87-2.32 5.52-8.13 20.88-10.44 25.97-.87 2.18-.58 1.45-.58 1.3-.44 1.31-.87 2.61-5.94 15.81-3.49.43-6.96 1.02-2.61.58-2.32.73-1.16.72-.87.87-.73 1.02-1.16 1.59-.87 1.6-.43 1.16-1.02.58-1.01-.15-1.75-1.01-2.03-2.18-1.88-1.01-2.18.14-10.73 2.61-7.98 2.47-1.89-.58-19.29-6.53-10.88-3.05-1.74-.87-9.14-2.61-1.01-.29-32.5-7.83-3.05-.73-1.45-.43-3.04-.73-8.42-2.03-45.26-11.02-33.5-8.27-2.62-.58-23.21-5.8-2.75-.58-8.13-1.89-47.72-11.89-3.05-.73-2.32-.29-17.7-4.35-17.4-4.5-5.08-1.3-128.09-31.19-25.53-6.24-6.24-1.59-13.64-3.05-3.62-.72-3.34-.73-10.73-2.76-4.21-.87-4.06-1.01-3.19-.87h-.44l-12.62-3.05-69.92-16.54-5.08-1.45-5.65-1.16-6.1-1.45-38.87-9.28-37.72-8.7-26.26-6.24h-2.61l-1.45-.29-8.99-2.76-8.27-2.17-6.38-1.31-45.84-10.59-40.47-9.72-3.2-.72-46.27-10.88-7.11-1.74-3.34-.87-71.22-16.4-50.63-12.62-28.28-6.96-2.33-.58-3.48-1.01-15.95-3.92-74.57-19-39.31-9.87-158.84-40.32-14.51-3.63-62.37-15.67-5.08-1.45-119.39-30.17-67.74-17.41-1.45-.43-136.94-36.27-9.29-2.46-97.19-25.1-106.47-27.41-106.63-27.56z" stroke-linejoin="round"/></defs><use xlink:href="#d" fill="#09757a" stroke="#00465f" stroke-width="5.76"/></svg>