<svg width="5.18in" height="384" viewBox="0 0 3727 2880" xmlns="http://www.w3.org/2000/svg" xmlns:xlink="http://www.w3.org/1999/xlink"><path fill="#fff" d="M0 0h3727v2880H0z"/><defs><path id="a" d="M1278.71 2188.16l-2.33-2.45-7.22-7.57-2.45-2.1-1.98-1.86-2.09-1.51-2.45-1.52-2.91-1.98-2.91-2.79-2.33-2.22-1.75-1.74-3.14-3.38-2.1-2.1-2.1-2.21-3.96-4.43-2.79-4.19-5.13-7.69-1.98-2.68-3.14-3.96-4.66-5.7.12-3.61.93-23.06-.47-11.77-1.39-22.13-1.05-29.7 1.16-4.07-.11-1.87-.59-1.63-16.42-39.37-1.16-1.16-25.74-25.97-.47-.12-5.71.58-.81.7-15.61 2.68-2.91.47-3.96.69-9.55-2.09-15.96 10.71-13.39 8.85-1.05.7-6.87-8.15-15.49-18.05-28.65-18.29-23.76-9.67-20.97-8.38-2.79-.93-38.67-13.16-25.74-4.2-29.23-.23-33.43 3.38-17.35 2.33-23.41 3.61-4.08.58-21.31 3.96-23.41 2.68-37.74-1.98-1.51-.23-5.48-.47-12.46-1.05-20.85-1.86-22.71-6.06-30.4-14.79-29.23-12.93-5.59-1.98-27.37-9.55-21.08-6.29-1.98-.47-1.05-.23-2.56-.46-10.72-1.17-12.34-1.4-14.91-4.66-1.4-.58-12.46-5.36-30.63-18.98-15.49-8.15-49.27-44.73-22.24-30.51-.7-2.45 52.41-40.18 10.36-8.16 23.65-19.1 23.29-18.4 2.1-1.63 7.33-5.71 5.71-4.42 7.11-5.59 2.09-1.75h.12l4.42-3.5 1.87-1.51.81-.81 4.43-3.62 3.96-3.49 3.96-3.61 10.71-9.9 2.92-3.03 4.42-4.42 2.68-2.8 3.26-3.49.93-1.05 1.28-1.28 2.92-3.03 3.14-3.38 3.38-3.38 3.61-4.07 3.14-3.85 1.87-2.21 4.54-5.47 5.59-6.88 2.33-2.91.7-.93 4.66-5.71.81-1.16 1.63-1.87 1.63-2.09 3.15-3.96-1.87.46-1.63.35-2.67.47-1.87.23h-1.74l-1.64.24-1.28.46-1.39.58-1.52.12-1.28-.23-1.86-.82-1.28-.58-1.75-.82-1.86-.58-1.4-.23-1.05.23-1.05.35-.81.23-1.17-.35-1.63-.23-1.63.23-1.05.7-.81.94-.24.81-.81.47-.82-.24h-1.05l-1.16.47-1.05 1.05-1.63.81-1.75.47-1.04.23h-1.05l-.93.58-.59.94-.81.81-1.98 1.52-1.98 1.04-2.1 1.17-2.44.35-1.75-.7-1.51-1.17-1.98-2.21-1.4-1.16-2.22-1.87-2.09-1.51-2.33-1.63-1.28-34.83 13.39 1.05 8.85-1.51 3.96-1.52 1.75-2.21 1.63-2.45 4.66-.69 2.91.93 3.73 2.21 2.44 2.68 6.88 3.96 18.63-22.71 2.33 3.96 2.33 4.42 2.79 5.71.59 1.4.35.7 4.07 7.57 2.91 4.66 3.85 5.94.81-.59 1.17-.93.23-.7.58-.81 1.52-1.17.58-.46 2.56-1.75 2.56-2.1 3.96-1.86 1.63-1.16 7.34-5.36 5.36-4.31 3.61-2.91 5.24-4.43 2.1-1.86 2.21-2.22 1.98-2.21 1.52-1.98 1.74-2.33.82-1.4.81-1.39 1.4-2.57.58-1.16.7-1.86 1.05-2.8 1.05-3.14 1.28-3.96 1.86-5.94.35-2.57 3.38-11.99.35-1.28.93-3.73.7-3.5.47-3.49.34-3.61.24-3.38.11-3.61-.11-3.49-.24-3.5-4.77-32.84-2.91-19.45 2.79 3.14 3.85 5.24 1.28-1.51 8.97 7.45-.82-1.28-1.75-2.91-2.21-4.08-1.98-3.84-.23-.23-1.98-4.2-1.52-3.72-1.74-4.2-.82-2.33-.81-2.09-1.05-3.5-4.89.12-6.53.12-6.87.23-.81.58-.59.82-.81 1.16-.82.7-1.28.47-6.52.7-.35 2.44-.7 18.87-.81 2.8-6.06 13.74-1.28 3.38-1.51 4.89-.82 2.56v3.49l.58 9.56-12.58-5.48-3.37-1.51-2.57-.59-1.98-.23-2.33.23-5.7.7-.24-6.98-.58-8.62-.11-2.45-.35-.7-1.4-.35.12-2.33-1.05-6.52-17.24.93-7.69.35-17.93.82-1.05-.12-12.7-1.75-31.68-4.54-2.09.47-4.31 1.05-36.34 1.63-1.63-41.35-.12-3.03-3.14.58-1.28.24-7.11 1.28-15.72 3.02.23-6.05 15.49-1.05 8.27-.23 1.28-.12 6.41-.35 1.86-.81 3.15-1.87 3.84-1.63 1.98-1.28 1.51-.93.94-1.28.69-1.17.47-1.98.47-1.39.11-2.45v-2.1l-.35-1.39-.35-1.87-.11-2.21.35-1.98.81-2.8 1.28-3.37 1.75-3.5.93-1.63 1.63-1.75 1.75-1.39 1.75-.82 1.05-.23 1.28-.12 1.16.12 1.4.58 1.28.7 1.51.58 1.63.7 1.29.35.93.12 1.16-.35 1.05-.7.7-.93 1.05-1.4 1.05-1.4 1.16-1.4 1.51-1.51 1.29-1.17 1.51-1.16 1.05-.7 1.28-.81.93-1.17 1.51-2.45 1.17-2.21 1.28-2.33.82-1.28 1.16-1.4.82-1.74.46-1.4.35-1.75v-1.28l-.23-.58-.82-.35-1.28-.35-1.4-.35-1.28-.47-.93-.58-.93-.35-1.05-.23-1.28-.93-.47-.24-.69-.34-.94-1.17-.7-.81-.23-.24-.46-1.16-.12-.93v-.94l.47-.93.69-.46.35-.12.7-.23.82-.12.7-.12 1.63-.81 1.51-1.17 1.63-1.74 1.17-1.75.46-.93.24-.35.81-1.98.47-1.75-.35-2.21-.82-1.87-1.63-1.39-2.68-1.17-2.91-1.05-2.91-1.16-1.98-1.51-.93-1.4-.7-1.52-.12-1.63.12-1.16.46-1.87 1.29-1.63.93-1.28.23-1.51.12-1.4-.12-1.28-.35-1.4-1.05-1.51-1.28-.93-1.63-.59-1.51-.35-1.4-1.04-1.4-1.4-.58-1.52.12-1.51.23-1.28.46-1.4 1.4-1.05 1.52-.46 1.86-.47 1.86-.23h1.63l1.75-.12 1.51-.7 1.64-1.04.93-1.17.7-1.28.69-1.63.7-1.52.47-1.74.81-.82 1.17-.11 1.16.34 1.63.24H558l1.63-.12 1.4-.12 1.28-.69.93-.94.7-.81.82-1.17.93-2.33.81-1.63.94-1.04 1.28-.82 1.98-.12 1.28.47 1.16.93.82 1.17.81 1.04 1.28.47 1.52-.12 1.51-.35.93-.81.82-.82 1.16-.58 1.17-.11h1.05l.7.46.35.58 1.28.94 1.51.69 1.4.12 1.28-.58.93-1.17.12-.93-.47-1.16-.58-1.28-.47-1.52-.23-1.86.12-1.63.93-1.17 1.16-.35 1.75.12 1.28-.47.7-.69.7-1.17.7-.93.81-1.05 1.28-1.4 1.29-.46 1.74-.24 1.28.7.35 1.05-.11 1.52-.12 1.51-.12 1.16-.23 1.98-.58 1.87-1.28 1.4-1.63 1.04-1.28 1.63-.59 1.29-.35 1.98.47 1.98 1.16 2.09.94 1.63.93.82 1.4.46 1.16-.46 1.28-1.05.35-1.63v-1.63l.23-1.28.47-.93 1.4-1.17 2.44-1.28 1.63-.47 1.05.47.58.81.59 1.87.11 1.05.35 1.04.59.47.81.35.93.35.82.7.11.11.47.59.23.23v.82l-.35 1.04-.58.35-.93.12-.47.47-.23.58v.93l.12 1.05.7 1.63.34 1.75.12 2.44.23 1.4-.35.93-.34 1.17-.59 1.28-.23 1.05.12 1.74.35 2.33.81 1.98.93 1.4 1.05 1.63 1.52 1.98 1.74 1.63 1.98 1.63 2.22.82 2.79-.12 2.21-.35 1.75-.35 1.86-.58 1.63-.12 1.64.35 1.28.82 1.28.93 1.98.93 2.21.58 4.54.47.93-.12 1.98-.11 1.75-.47 1.86-.35 2.1-.35 1.52-.12h.34l2.33-.23 1.17-.11 1.4-.35-1.17-4.66-5.12-21.32-2.57-10.6-2.32-10.01-1.29-3.61-1.04-1.87-1.05-1.63-.58-.81-.35-.47-.47-.46h-.12l-.81-.7-.82-.47-10.25-3.96-3.49-1.28-1.98-1.05-2.45-2.21-6.4-9.2-2.33-3.5-.47-1.05-.46-1.51-.12-1.05v-2.09l.23-1.05.24-.93.7-1.4.58-.93.7-.82 1.63-1.28 1.16-.7 1.28-.7 4.31-1.75.93-.46.24-.23 2.68-4.31 1.28-.7.93-.7 1.16-.93.82-1.05.35-.47.7-1.05.7-1.63.46-1.28.35-1.51v-7.8l-2.44-18.29.81-2.8-2.45-19.91-9.78-78.97-.46-2.91-1.64-13.16-1.28-11.53-13.39-.35-36.34.11-.11-.93-1.29-28.77-.23-15.61v-.34l-.12-5.01-.81-25.63 20.61 17.24 2.45 1.98 1.05.93 1.4 1.17 2.21 1.86 1.63 1.28 1.51 1.4 1.17 1.05 1.05.93 1.04.93 1.05 1.05 1.05 1.05.93.93 1.4 1.51 1.4 1.4 1.4 1.17 1.16 1.16 1.28 1.05 1.75 1.4 1.28 1.16 1.28.93 3.96 3.15 5.24 4.42-.58-5.7-2.21-17.82-.12-1.17-.82-6.05-.93-5.48-1.16-5.12-1.17-4.66-1.28-4.66-1.4-4.43-1.51-4.42-1.75-4.31-1.86-4.31-1.98-4.19-2.1-4.2-2.21-4.07-2.33-3.73-.11-.23-2.45-3.85-2.68-3.72-2.68-3.73-2.79-3.5-3.03-3.37-3.03-3.38-3.26-3.15-3.61-3.37-4.78-4.2-28.88-23.76-28.89-23.76-16.53-13.62v-5.36l.11-4.31.12-5.13v-4.42l.12-5.94.11-13.86-.11-5.71-.94-5.82-1.28-5.36-.93-4.08-.7-3.38-.7-2.21-5.82-21.31-3.14-12.23-5.48 2.21-1.4.47-1.74 1.16-1.63 1.28-1.05 1.17-1.28 1.05-.82.81-.58.82-.47 1.28-.46 1.16-.47 1.28-.46.7-1.17 1.28-.35.82-.23.7-.12.81-.23 1.05v1.52l-.12.58-.46.46-.35.24-.7.11-1.28.24-.93.11-.7.24-.59.11-.58.23-.35.59-.11.7v.46l.11.93.7 1.17.23 1.98.24 1.98-.12 1.16-.23 1.75-.23 1.63-.35 1.63v1.63l-.24 1.87-.35 1.74-.11 1.05-1.17 1.51-1.28 1.17-1.51 1.16-1.05.59-.7.58-.7.58-.81 1.52-1.63 3.49-.82 2.45-.47 1.39-.35.59-.58.93-1.51-1.52-4.08-4.31-3.96-4.42-4.07-4.43-3.85-4.54-3.73-4.78-1.74-2.21-1.87-2.56-3.49-5.01-3.49-5.01-3.26-5.12-3.15-5.36-3.38-6.06-2.21-3.84-1.86-3.49-5.94-11.3-2.22-4.08-3.72-7.1-3.96-7.34-3.61-6.64-3.85-6.52-4.07-6.41-4.2-6.17-4.42-6.17-5.01-6.64-6.76-8.04-19.21-22.48-9.67-11.41-4.54-5.36-3.15-3.84-2.68-3.03-2.67-3.5-2.8-3.14-3.96-4.66-5.12-6.06-5.94-6.99-5.25-6.05-5.24-6.29-2.56-3.03-3.38-3.84-2.91-3.5-5.12-5.94-4.89-5.7-1.75-1.98-1.4-1.64-1.86-1.86-1.52-1.63-2.09-2.1-3.03-2.79-1.4-1.17-3.96-3.14-3.26-2.33-3.49-2.45-3.61-2.09-3.5-2.1-3.61-1.98-3.73-1.75-3.72-1.51-3.85-1.4-4.66-1.51-6.75-1.87-29.47-7.68-2.21-.59-57.65-15.25-3.85-1.05-3.61-1.28-3.72-1.4-3.61-1.63-3.61-1.75-3.5-1.86-3.61-2.1-3.38-2.21-3.37-2.45-3.26-2.56-3.27-2.56-3.02-2.8-3.03-2.91-2.91-3.03-2.8-3.14-2.68-3.26-2.56-3.38-2.45-3.38-2.33-3.61-2.09-3.73-2.1-3.72-1.86-3.85-1.75-3.84-1.63-3.96-1.51-4.08-1.4-4.07-1.28-4.2-1.17-4.77-1.28-5.71-3.49-15.37-2.91-13.28-.7-3.26-4.55-20.5 2.1-.58 2.91-.7 2.22-.58 1.63-.47.11-.23-.11-.35v-.35l-.12-.35-.23-.47-1.17-1.74-.46-1.17-.47-1.05-.12-.46-1.51-4.66-.23-.58-.82-2.33-.35-.82v-.23l-.11-.82-.24-1.28-.11-.93-.12-2.8-.12-2.33-.35-1.39v-.82l.47-.81h.23l1.05.11 4.66-.11 5.12.46 13.75.58h2.68l1.16-.23 1.28-.23.93-.47 1.29-.7.81-.69.7-.7.58-.82.35-.93v-1.75l-1.51-59.63h.81l.24-.12-.35-14.44.23-14.44.12-14.91-.35-14.91-.24-15.61-.35-13.62V70.93l-.11-1.75v-1.74l-.12-3.26.12-5.01v-.7l.23-1.28.35-2.33.7-1.75v-.12l.23-1.28.12-.93v-5.24l.11-2.91.12-2.91.12-2.57v-4.89l-.24-3.96 9.9 8.97.59.58.35.59.23.93 1.4 4.07.46 2.45.47 3.38.46 2.44.7 2.57.93 2.56 1.17 3.26 1.4 3.96.11.47 1.05 3.37 1.52 3.03.81 1.75 2.1 4.89 1.98 4.19 2.44 6.06 2.22 4.89 3.49 7.46 6.06 10.48 1.16 1.63.93 1.16.82 1.28.46.7.35.82 1.05 1.75.47 1.04 1.63 2.1 1.4 1.51 1.28 1.17 1.28.81 1.86 1.17 1.63.81 2.33 1.29 3.26.81 7.11 1.63 7.57 1.28 2.79.59 17.59 3.96 1.4 44.25 2.91 87.82 72.44-.58 13.86-.23 146.05-1.28 152.35-1.4 21.54-.23 14.21-.24 24.69.35 129.4-4.77 63.71-2.33 63.59-2.33 67.09-2.56.58 19.56 3.38-.23 8.5-2.79 14.09-4.08 19.8-5.94 17-5.01 9.32-2.33 7.92-.35 10.25-.11 101.8-2.8 18.05-.46 63.01 2.79 14.09.12 9.32.35.81 4.42 2.1 8.97 5.47 13.63 5.01 32.38 2.8 6.64 4.77 7.33 3.5 7.22 1.39 3.27 1.17 3.49.93 3.84.35 3.61.23 4.31-.11 2.22-.24 2.56-.23 1.16-5.24 22.13-.7 2.45-.82 2.91-6.05 15.61-2.68 6.75-2.33 4.66-4.77 12.12-2.45 6.87-.58 2.56-1.17 5.94-.23 2.8-.23 9.08-.12 2.56-.35 7.92-.58 58.7-40.07 1.75-27.25.35-27.6-.35-9.55.12-56.49 6.99-8.85 2.56-10.02 5.01-11.3 7.45-9.08 5.94-3.85 2.1-4.42 1.28-5.13 1.16 1.98 11.07 2.92 11.65 2.09 8.61 1.05 4.66-.12 4.31-.81 7.69-2.33 20.38-.58 3.15-.47 3.84-.7 4.89-.23 5.13.35 3.84.35 3.15 1.4 5.47 2.91 8.27 4.77 10.6 2.57 6.64.69 2.56.94 3.73.11.7-3.84-.24-11.42-.7-11.64-.23-3.85-.35h-5.12l-5.47-.23-4.43-.23h-3.14l-1.87.23-4.54 8.85-35.41 51.25 2.8 20.26 1.51 106.93-.23 10.94-.12 8.62v1.63l-.11 5.24v1.4l.23 22.02v1.39l2.45 8.16 2.91 29 .7 8.15 2.44 22.83.12 16.77-3.85 29-1.04 8.62.23 4.19.35 34.71.12 9.79 1.16 5.94-.7 20.15 3.96-.12 35.87-.82 2.22-.11-.59 2.44 6.06 38.09v.47l-2.79 4.19-4.66 7.1-12.82 20.27-11.18 13.16-11.64 13.75-5.59 6.63 5.94 4.43 10.94 8.39 3.03 2.33.47.34.23.12.7.7 4.54 3.61.47.12 6.4 5.7 6.41 4.66 12.35 9.67 2.67 2.33 10.49 8.27.7.35.69.12.7-.59.82-1.05 8.38-12.92 8.62 7.68 18.52-26.44 9.32-13.51.35-.58 1.16-1.51.7-1.05 1.05-1.86.7-1.29.12-1.16.34-1.28.47-1.17.47-.93.7-.7.23-.7.46-1.04.47-.82 7.8-12.23 10.02-14.21 6.99-9.9 2.91-3.96 9.9-13.28 11.65-17.23 1.51 1.39 22.6 20.15 9.9-13.62 10.24-14.45 6.06 5.24 6.06 5.25.7.69 1.28 1.05 12.23 10.72 4.07 3.61-1.51 1.98-1.4 1.98-1.16 1.51-1.4 1.52-.82.93-1.63 1.75-2.09 2.09-1.52 1.4-.93-1.16-1.98-2.22-2.1-1.98-.35-.35-7.22-5.82-3.26-2.68-6.17 8.5-13.04 18.06-.82 1.04-1.4 1.98-13.51-10.48-3.38 4.43-2.91 4.07-1.16 1.63-1.28 1.75-1.17 1.52-1.4 1.98-1.74 2.56-.58.93-5.83 8.27-3.38 4.78-3.61 5.12-3.61 5.01-5.7 7.69-3.73 5-.47.35-.46.24v1.28l.11.46.12.59v.58l.23.7.24.58.23.7.23.7.47.81.46.93.47.7 1.05 1.87 1.4 1.63.69.93 1.29 1.28.93 1.16 1.05 1.17.69.7.35.35.35.35.35.35.58.58-.11.58-.12.82.12.35v2.21l-.12.58-.11.58-.12.59-.23.46-.12.47-.12.58-.23.47-.12.35-.35.46-.23.58-.35.47-.46.58-.35.35-.35.47-.47.7-.81 1.04-.59.94-.46.69-.93 1.29-1.4 1.86-1.05 1.51-1.05 1.4-.46.58-3.5 5.24-3.14 4.43-2.33 3.38-2.21 2.91-1.05 1.51-1.98 2.8-.93 1.28-.82 1.17-1.28 1.63-.93 1.04-.59.94-3.26 4.89-1.39 2.09-1.87 2.68-6.05 8.86.11 2.09.35 4.66-.23 1.05-1.05 3.61-2.45 3.96-1.28 2.56-.58 2.8-.35 3.14-.23 13.05.12 1.98.58 9.08.11 1.05.82.7 1.05 1.05.7 1.28.11.35 4.89-.12 38.09-.81 2.1 38.78 2.09 1.4h.7l1.63.23.7.12 1.17-.12h.93l1.63.35.81.47h.24l.23.11.35.24.46.23.35.47.35.23.59.46.93.82.7.58.35.35.69.58 1.05.7 1.28.93.35.12.24.23.46.24.82.46.58.24.7.58.7.58.46.47.82.46.7.7 1.51 1.05.58.23.35.23.24.24.58.35.46.23.59.12.23.11.35.12.46.12h.35l.35.11h.24l1.86.35h.47l.11-.11 1.28.46.7.35h.12l.35.12h.23l.12.11.46.24.7.11.82.47.81.7.82 1.86 6.99-.12 53.57-2.32v-1.29l.24-2.56.34-2.68.35-3.84.59-4.31.23-.58.58-.47.35-.7.12-.7 22.36 11.07 1.05.93.11 1.4.94 1.28 1.39 1.05 1.75.58 1.4-3.96 1.4-3.73 1.39-4.19 1.87-5.13 1.51-4.89 1.17-3.14 1.16-3.26-3.96-1.98 1.05-3.38.58-1.86.12-1.29-.12-1.28-.35-.81-.58-.58-.7-.24-1.63-.11h-.7l-.7-.24-.7-.23-1.16-.93-1.63-1.28-.7-.35-1.05-.23h-2.21l-.93.34-1.05.59-.35.46-.23.7v.82l.11 1.05v1.98l-.11 1.04-8.74-4.07-4.08-1.98 3.61-9.9 6.53-17.71 6.29-17.35 3.37-8.85-.69-.24-4.31-1.86-2.1-1.05 1.75-4.89 1.04-2.56 1.05-2.45 1.05-1.86 1.05-1.75 1.28-1.63.47-.58.46-.58.82-.94 1.05-1.16 2.21-2.56 1.16-1.4 1.4-1.63 1.98-2.33 1.28-1.4 5.59-5.82 5.94-8.97 1.98-2.91.93-1.52 2.22-2.79.58-1.28.81-1.17 6.41-10.71.93-1.52 1.87 3.5 16.07 29.93 6.87 12.46 1.05 1.75.58 1.05.7 1.28.35.82v.69l-.23.94-.47.81-4.19 5.24-3.96 5.94-2.1-1.51-14.09-12.23 1.16 8.73-1.98 2.57-2.56 3.96v.81l-.23 1.28-.12.35-.46 1.4-2.68 6.99-1.63 4.19-.24.58-6.4-3.02-3.26-1.64-4.66-2.09-7.46 19.1-2.68 6.64 6.88 3.26 8.03 3.49-2.09 5.94-1.05 2.92 4.07 1.98 6.06 2.91 3.38 1.51 1.16.47 9.44 4.31 5.35 2.56 1.87.47h2.91l1.16.46 5.94 3.84 2.45 1.52.93.81.7 1.05 1.4 5.48 1.51 7.33.7 4.55-.12 1.51v.23l-1.98 6.06-3.96 10.83-4.42 10.72-.47.93 5.36 1.28 1.28.35 1.63.35 1.4.47 1.51.58 1.29.58 1.28.35.7.23.81.12 1.05.23 1.28.12 2.1.35 1.16.11h.82l.58-.35.81-.46.7-.7.82-1.05.35-.58.58-.58.58-.82.47-.93.11-.47.12-.58-.12-.81V1446l.12-.82.12-.7.35-.58.23-.46.35-.35.46-.35.7-.24 2.33.47-.11.82-.35 2.09-.35 1.98-.47 2.33-.46 2.33-.47 2.1-.35 1.74-.35 1.05-.35 1.17-.35 1.05-.58 1.04-.47.94-.58.81-.46.7-.59.7-.81 1.05-.7.7-.47.58-1.16 1.05-.93 1.04-.93 1.17-.7 1.28-.47 1.51-.58 1.75-1.05 4.66-.58 1.98-.7 1.86-1.05 1.98-1.4 2.45-2.09 3.38-.7 1.28-.58 1.4-.47 1.28-.47 1.63-.23 1.75-.23 1.51-.12 1.28-.11 1.63-.24 1.98-.11 1.05-.12 1.63v2.1l.35 1.86.46 1.28.7 1.75.82 1.63 1.05 1.63 1.86 2.79 1.28 1.4 1.4 1.52 2.45 2.91 1.04 1.05 1.63 1.74 1.52 1.98.93 1.05 1.4 1.63.81 1.05.93 1.28.59 1.05.81 1.51 46.36-2.09-2.45-.7-2.1-.7-.69-.58-.59-.58-1.16-.82-1.28-.58-.82-.35-1.28-.35-1.51-.35-1.4-.12h-1.4l-1.98-.11-1.4-.35-.81-.35-.7-.35-.7-.7-.81-.7-.47-.23-.35-.23-.81-.35-.94-.24-.93-.11-.81-.24-.59-.11h-1.04l-.59.23-.58.12h-.58l-.47-.24-.46-.11h-.47l-.35.11h-.7l-.58-.23-.35-.12-1.05-.11h-2.91l-1.28-.12h-3.49l-1.05.12-.82.23-.58.12-.7.35-.7.23-.58.47-5.24-7.23.47-.11.69-.24.47-.23.82-.12h7.1l3.03.24 3.72.11 4.31.12 5.36-.23h5.59l6.06-.24 3.26-.11 3.84-.12 3.73-.23 3.84-.35h6.41l3.49-.12h3.61l4.31.35h3.03l2.91.12 2.57.35 3.26.35 6.29.58 4.89.23 3.38.12 6.98-.58 4.9-.12 14.2-.58.7-2.8 5.13-24.92 1.16-5.71 3.38-9.9-.12-6.29.47-8.85.12-1.28.23-9.79 1.4-.11.7-.35.34-.35.35-.35.35-.35.24-.47.46-1.16.24-.93.23-1.05 1.4-6.52.69-2.45.24-.7.11-.35.35-.46-1.04-1.4-.59-.93-.46-.47-.47-.93-1.05-1.98-1.16-1.63-2.8-4.31.24-17.82-1.87-.47-.46-.46-1.28-.7-2.33-.93 1.04-5.13.24-2.56.23-5.82-.93-.93-1.17-1.17-1.28-.93-3.14-1.86-3.26-1.64-3.5-1.63-2.68-1.28-3.02-1.39-4.9-2.22-11.41-5.24-2.45-1.16-2.44-1.28.93-2.8 2.8-7.69 5-14.67-6.87-3.03-4.66-2.1-15.02-6.75 10.01-20.62 15.96 9.32 8.74 4.89 1.04.47 1.05.46 1.87.82 16.65 8.73 1.4-2.79 1.75-3.73 1.28-2.68 1.74-3.49 1.52-3.73 1.16-3.14 1.63-3.38 1.98 1.28 2.22 1.51 2.33 1.87 9.2 8.15-8.62 20.03-7.92-4.42-7.46 18.87 1.4.23 1.17-.12 1.39-.23 2.22-.12h2.91l4.31.47 12.46 1.86 3.14.7 11.88 2.68 2.22.12h1.86l1.17-.12.81-.47.7-.46.93-1.75 1.05-1.75 1.16-2.09.35-.93.47-1.29.35-1.51v-1.05l.12-1.51-.12-1.17-.47-1.63-.46-1.51-.58-1.28-.94-1.4-2.21-2.21-2.91-2.33-2.68-1.98-1.75-1.28 2.91-6.18-3.96-.7-5.12-2.67-3.96-3.5-3.73-3.73-3.49-3.37-2.8-2.22-5.35-3.49-3.61-2.68-4.78-2.21-4.54-2.56-4.08-1.75-4.31-2.68-4.89-3.15-4.77-2.09-4.78-1.87-3.03-.69-1.86-1.29-.7-.93-.12-.58 1.05-.93 1.28-.93 2.45-1.98 2.44-2.68 1.98-3.03 2.33-1.98 2.92-1.28 2.32-2.21.24-2.22-1.05-2.56-2.33-3.14 3.14-3.03 25.4-26.09 25.04-26.09 4.65-4.89 3.62-3.5 1.98-1.98 3.02-3.14 5.36-5.36 3.49-3.61 2.92-2.91 1.86-2.1 1.86-1.86 1.63-1.87 1.29-1.39 1.04-1.52.59-.81.58-.94.81-1.63.82-2.44 2.1.23 1.74.12H1541l4.42-.24h.94l10.71-.11 8.97-.12 13.28-.11 1.04-.35.7-.35.59-.59.69-.69.47-.7.35-.7.35-.47.23-.58.23-.7.24-1.16.11-.94.24-1.28.11-1.28.12-1.16.23-1.28.82-5.36 4.42 1.51 3.27 1.4 4.42 1.75 3.5 1.74 5.47-5.82 7.69-10.6 3.49-5.36 2.1 1.63 4.89 5.01-18.99 20.04 1.4 1.51 1.4 1.51.81 1.17.94 1.28 1.28 1.98 1.05 1.63.93 1.86.58 1.17.58 1.28.24.7.34.93.35.93.47 1.75.47 1.86.35 1.28.23 1.29.11.81.24.82.11.93.12 1.16.12 1.05.23 1.75v4.07l-.12 1.52v1.51l-.11 1.17-.24 1.28-2.44 20.5-.93 8.27-.94 8.15-.46 4.19-.35 3.61-.35 3.15-.23 2.33-1.4 13.28-.35 2.56-.82 7.57-.34 3.84 9.66 24.23 12.81 10.48 34.83-6.99 8.62-7.68 22.01-27.84 42.98-35.18 7.92-1.74 6.4-4.2 2.8-7.92 16.19-13.51-14.56 84.91-3.5 20.27-1.16 6.75h-8.74l-12.34.12-11.3.81h-5.59l-.12 12.93-19.56.47-7.81 24.46 20.04 11.76 4.77-.11 5.48-.12h4.19l6.64-.12 3.03-.11h.34l2.57-.12 1.16-.12h1.17l.35-.11h.69l.47.11.47.35.35.24.34.46.12.35.12.47.11 1.04.12.94.12 3.96.11 6.98v5.01l.12 3.38v3.15l.12.93 3.37 24.46-24.92-1.05-6.64-11.07-22.94-38.08-3.03.11h-6.06l-3.61.12-6.64.12h-.23l-8.15.23h-4.66l-5.36.12h-3.73l-5.7.11-5.48.24-6.52.11-3.49.12h-5.36l-7.57.23-6.41.12h-10.25l-1.98-.12-.23 1.05-.7 3.14-1.4 4.9-.69 2.56-3.85 13.28-.23.69-.58 1.98-1.17 3.96-2.09 5.01-2.68 6.41-.59 1.51-.81 2.22-1.05 2.79-.58 1.98-.35 1.63-.12 1.63v9.9l.24 3.26 3.14-.58h1.28l1.4.12 1.28.11 1.05.35 2.91 1.05 2.68 1.28 2.79 1.05 1.87.82 1.98.7 1.74.58 1.87.23h1.51l2.56-.23 6.29-.82 2.8-.35h3.73l1.16.12 1.28.23 1.4.24 1.28.46 1.4.47 1.4.7 1.28.7 7.33 4.19 1.98 1.16 1.64.59 1.51.46 1.63.47 6.76 2.21 6.52 1.75 1.4.46 4.19 1.87 1.63.81 3.03 1.52 5.12 2.91 4.78 3.14 3.72 2.91.94-.46 1.28-.47.7-.23.69-.23.59-.12.58-.12h.58l.7-.11 1.4.11 1.4.12 1.39.47 1.4.46 1.28.82 1.52 1.05 4.65 3.72 4.55 3.85.7.58 7.68 6.52 7.11 5.94.58.58 2.33 1.98 4.66 3.96 1.74 1.75.94 1.17 4.89 5.7-.93.93-2.1 2.33-2.21 2.22-.59.7-.46.69-.23.59-.35.81-.24.7-.23.58-.23.7-.12.82-.12.81-.11.93-.12 3.03-.11 1.75-.12 1.16-.23 1.05-.35 1.17-.35.81-.35.82-.82 1.16-1.05 1.4-3.14 3.61-3.38 3.84-5.12 6.18-1.17-1.63-.58-.82-1.28-1.86-1.05-2.56-2.45 2.44-21.43 23.99-22.94 26.44-2.33 2.68L1645 1615l4.66 5.01-5.12 6.4.58.59.47.58.35.7.23 1.05.12.93v3.72l-.24 1.75-.58.82-.47.81-.69.47-1.17.35-1.4.11-3.84 6.29-7.8-2.56 1.28-.7.93-2.21-5.01-3.15-6.17 7.92-5.36 7.23-9.9 15.14-5.59 8.85-2.68 4.19-1.63 2.45-1.86 2.91-3.38 5.12-4.66 8.16-3.03 6.05-3.02 5.71-2.1 3.84-2.8 5.13-1.74 3.73 1.28.11.58.12 3.14-6.06 1.17-1.74.81-1.05.94-.47 1.04-.12h2.33l3.96.24.12 2.68.47 13.86.46 16.07.12 5.36v1.05l.35 1.39-2.56.12h-4.08l-1.4-.12-7.45 5.36-.82 2.68-.46 1.4-.59 3.03-.23 1.16-.7 1.86-1.98 4.55-.35.81-.11.7-.12.82-.12.69v.94l.47 19.8v1.74l.23 10.14.12 4.42 5.01-.11h3.03l.58.23.7.23.58.35.46.47.7 1.16.59 1.98.46 2.22.23 4.19.59 5.82.11 5.71.12.58-.12 7.11-.46 5.24v.35l-.24 2.33-.34 2.68-.12 1.51-.35 1.05-.47.93-.7 1.05-.46.46-.47.35-.58.12-.47.12h-3.72l-1.75.11-2.45-.11.12 5.24.12 3.72v1.05l-.12 1.17v.93l-.35 4.54-.11 1.86-.59 5.25-.11 1.16v1.05l-.12 1.16.12 1.52v1.28l.11 1.05.35 1.63.47 2.33.58 2.09.58 2.22-.7.35-1.16.23-1.51.23h-8.97l6.87 12-2.33 19.1-1.75.12-2.33.23-1.86.35-2.8 1.05-2.67 1.05-2.33.34-3.5-.69-10.6.81-3.61 1.52-26.78 11.29-.47-1.28v-2.79l-.12-5.24v-.59l-.23-9.66-13.28.35-2.09-.12-1.98-.12h-4.55l-2.33.12h-3.84l-2.45.12h-2.56l-2.79.11h-3.38l-1.98.12-1.98-.12.12.93.46 1.17.24.7.34.93-1.28-.7-.46-.23-1.17-.59-1.28-.69.82 1.63.7 1.39.46 1.17.82 1.75 1.51 3.84 1.4 3.38 1.98 4.89 3.49 8.97-1.28 2.33-.58 2.68.12 2.67.81 3.38 1.52 4.08 8.38 18.52-1.86 8.73-.12.82-.35 1.4-.23.93-1.28 4.54-.12.35-.35 1.16-.35.94-1.05 2.91-.93.11-1.28.24-.93-.12-.82-.12-.81 5.48-1.63-.23-2.56-.24-1.98-.46-1.63-.35-1.17-.35-2.1-.93-1.51-.82-1.28-.7-.7-1.63-.47-.7-.69-.81-1.05-.93-3.38-2.33-3.49-2.68-16.78-12.12-4.54-2.91-1.16-.93-.93-.7-.82-.81-.47-.94-.46-.93-.35-1.39-.12-.47-.7-3.26-.11-.35-.7-2.1-.82-2.09-.46-1.98-.47-1.05-.35-.93-1.51-2.45-8.27-.23-11.53-.12-14.33-.12-12.93.24-24.1-.82h-1.64l-2.21-.46-1.75-.59-3.02-1.39-2.92-1.4-6.05-3.5-2.8-1.51-6.05-2.45-21.32-7.92-3.96-1.51-12.81-4.89-5.12-2.1-4.55-1.28-.81-.12-8.85-2.56-6.41-1.75-2.44-.11h-1.52l-1.16.11-1.4.35-1.75.7-1.98 1.4-2.09 2.45-1.98 2.56-3.15 4.31-1.86 2.56-3.38 3.96-1.51 2.33-.24.47-.46.58-.24.81v.94l.59 1.63 1.39 2.79 5.48 11.88-6.64 3.61-.93.23-.93-.11-.59-.35-7.45 12.11-.93 1.28 8.38 6.29.24.24v.69l-2.45 3.73 3.38 2.56.93.94.82 1.16.93 2.33.35.82 4.77 10.36 11.77-6.75 5.59-3.27 11.06 23.3 9.32 19.45 4.77 10.83 1.87 2.91 1.51 1.52 1.98 1.16 2.21 1.17 2.68 1.51 2.1 1.17 2.44 1.28 2.22 1.39 1.86 1.87 3.03 4.19.7 1.52.46.93.12 1.39-.35 1.29-1.51 3.37-.82 2.1-.46 2.45.11 2.67 2.56 9.91.35 1.04 1.29-1.39.23-.24 1.86-1.16 10.48-8.62 2.1-1.75 1.86-1.75 3.27-2.56 1.04-.81.82-.59 1.28-.34 1.05-.12 1.86.81 2.56 1.29 2.57 1.51 1.51.58 2.21.47 1.28.23.7.58.47.82v1.51l-.35 2.22-.47 1.86-1.63 3.96-1.74 3.61-2.33 4.31-3.61 6.06-2.8 4.07-2.91 3.61-2.68 2.57-2.45 2.56-3.84 3.26-4.08 2.56-3.14 1.75-3.73 1.63-3.84.7-.93-.12h-.7l-.7.23-.47.7.12.7.47.58.93.24 2.21-.12 9.44-1.86 5.47-1.4 1.98-.7 1.98-.93 1.51-.82 2.8-1.16-1.28 1.4-.47.46-.7.7-2.56 1.63-3.26 1.87-3.38 1.74-3.84 2.8-.7.58-.47 1.05-.35 1.05.47 1.16.58.82 1.05.46.35.12 1.16 1.05.47.93.23 1.28-.58 3.61-.46-.35-1.29-.7-1.28-1.05-1.05-.35-.58-.11-.93.46-.93.82-1.63 1.28-.82.47-.58.35-.93.23-1.05.12-.7-.12-.81.12-.94.11-1.63 1.28-.69 1.28-2.22 5.71-1.51 3.26-1.28 2.45-2.45 2.44-1.28 1.17-.7 1.05-.23.23-1.17 1.98-.58.93-1.63 3.03-.7 1.17-.93.93z" stroke-linejoin="round"/></defs><use xlink:href="#a" fill="#9dc8ca" stroke="#6bb4d2" stroke-width="5.76"/><defs><path id="b" d="M3232.71 2851.81l-7.34-11.76-2.45-3.73-2.21-3.37-3.03-5.6-13.16-17.7-12.34-14.79-7.34-5.59-9.9-10.13-18.29-17.13-5.59-4.19-1.28-1.16-8.5-4.9-3.26-2.09-2.45-1.28-3.03-1.75-2.68-1.86-2.21-1.52-2.44-1.75-6.41-4.89-4.43-3.61-2.21-2.21-.58-.58-.7-.24-3.61-.69-3.49-1.05-5.01-.93-1.98-.82-2.68-1.05-3.96-.93-4.43-1.63-3.37-.82-1.98-.81-2.22-.23-3.37.23-1.4.46-2.1.47-1.98.35-6.06 2.45-4.19 1.39-1.75 1.05-1.98 1.28-1.39.47-1.28.93-1.4 1.05-2.68 2.68-1.51 1.74-.59.7-.58.35-1.16.24-.82-.35-.7.23-.35.23-.46.58-.7.7-.47.47-3.49 1.86-.7.35-8.15-4.07-4.31.11-.12-3.72-.23-.59-1.4-3.96-.47-2.79-2.67-22.95-8.16-1.74-5.7-1.29.11 42.98-75.94 31.33-6.63-3.26-1.17-.23-1.51-.35-1.87-.82-.7-.58-.46-.46-.93-.94-5.01-2.56-3.96-2.68-4.66-5.35v-1.05l.12-1.17.23-3.84.12-5.59-.47-2.1-1.05-2.91-3.73-4.66-3.96-4.42-5.12-5.71-1.98-16.54 5.12 3.26 21.2-12.93 24.23-13.63-19.45-4.07-12.23-2.68-8.74-1.75-10.6-2.21-25.15-5.36-14.91-3.38-12.11-2.56-20.97-4.31-35.64-7.34-22.48-4.65-15.14-3.15-.7 10.48.24 18.87v.58l-1.4 12.58-1.28 14.56-41.58 32.96-46.59 23.07-2.91 1.39 1.98 3.15 1.05 1.63-1.63.81-1.87.94-4.89 9.66-2.44 4.66-1.63 1.4-13.51 12.34-1.52 1.52-.11 1.63-.94 18.87-.11 4.42-7.81-6.87-1.28-1.28-9.43-8.38v-.12l-2.33-1.86-.93-.7-.93-.7.81-1.75.93-2.1 2.33-5 10.48-22.6 3.03-6.52-.23-.24-.7-.58-.58-.46-.7-.59-.58-.69-.47-.59-.7-.46-.7-.47-.7-.35-.34-.46-.24-.82v-.93l.24-1.75.46-3.73.12-1.86-.12-1.16-.23-1.29-.58-1.28-1.29-1.86-1.86-2.68-3.49-4.08-.7-.81-.7-.93-.93-1.75-.82-1.75-.81-1.51-1.05-1.63-2.68-3.96-2.1-2.68-3.14-3.03-3.15-2.91-1.28-.93-1.39-.93-.94-1.05-.93-1.28-.81-1.05-.93-.58-1.17-.7-2.33-.47-2.1-1.28-1.86-1.51-13.98-13.63-13.04-15.61-1.28-1.86-1.63-3.38-.7-.7-.58-.7-.24-.7-.23-1.28-.35-.93-.46-.58-.7-.23-.82-.12-.7-.12-.58-.46-.35-.47-3.14-4.19-1.17-1.87-.58-.93-.58-.7-1.87-2.21-.69-.7-.47-.58-.47-.7-.23-.58-.47-.82-.69-.46-.59-.35-.58-.47-.81-.81-4.08-3.96-3.26-3.26-5.48-4.08-1.16-.82-3.14-1.51-1.75-.7-1.63-.93h-.93l-.82-.23-.58-.47-1.05-.58-.93-.35-.58-.47-.59-.81-.23-1.05-.35-.7-.46-.58-.59-.47-1.28-.46-.93-.12h-.7l-.58.23-.47.12h-.58l-2.45-.93-2.21-1.52-.93-.58-.93-.81-.7-1.05-.82-.93-.46-.94-.82-.58-.93-.58-3.14-1.52-.7-.46-.47-.47-5.7-4.66-1.05-.58-.59-.46-2.09-1.87-4.78-4.31-2.68-2.21-2.67-2.91-1.05-1.17-2.22-2.09-1.74-1.52-3.15-2.56-4.77-3.96-1.17-.81h-.35l-.23.46.35.47.47.46.34.59-.23.34-.35.12-2.44 1.05-.82.12-.7-.24-.46-.46-.24-.7-.69-.93-.35-.7-.35-.35-1.05-.93-.7-.47-.58-.23-.59-.12-.58.12-.23.58-.35.47-.82.58-.81.11-2.21-.23-.94-.11-.93-.12-.81-.47-.82-.81-.81-1.05-5.48-8.15-2.09-1.75-.47-1.4-.12-1.51.35-1.28 4.43-13.75 1.98-5.82.12-.82-.24-.81-.58-.47-2.21-.93-.58-.12-.47.24-.35.7-4.78 15.25-1.28 2.57-.81 1.16-.82.82-1.05.69-.93.7-1.98 1.17-1.28-.12-1.51-.46-1.28-1.17-4.08-4.66-.47-.58-.34-.7-.47-.81-.58-.7-.7-.59-.7-.93-.35-.58-.47-.23-.46-.12-1.28-.12-1.87-1.28-.46-.35-.35-.35v-1.04l-.23-.59-.47-.35-.58-.11h-.47l-.93-.82-.7-.46h-.7l-2.68.11h-.58l-1.05-.23-.93-.35-.35-.23-.81-.58-1.29-1.29-.34-.93-.12-.93v-.93l-.23-1.17-.35-.58-1.05-1.05-1.4-.81-1.05-.7-1.63-.47-1.05-.58-.93-.58-2.91 1.98.23.81-.35 1.05-.23.82-.35.81-.58.35-.7-.11-.7-.24-11.41-7.33-22.83-13.05-.82-.47-.69-.23-1.05-.35-1.28-.7-1.28-.58-4.08-2.33-.93-.35-1.28-.81-.59-.35-.7-.35-1.04-.58-1.05-.24-.93-.35-.94-.46-6.87-3.38-3.61-1.86-1.16-.47-6.06-2.68-3.96-1.98-.46-.23-.7-.12-.35-.11h-.93l-.59-.12-5.94-2.68-2.44-1.05-19.69-6.64-2.21-.46-2.68-1.75-.58-.7-5.12-5.12-5.48-5.59-3.96-3.03-6.64-3.03-8.15-2.21-3.14-1.28-3.03-2.57-1.87-3.03-.58-1.63-.46-1.74-.24-3.85.58-3.14 8.39-27.37-.47-3.15-1.51-1.51-1.98-.47-6.64-1.74-6.29-.59-30.63-3.02-18.52-1.17-3.37-.23-3.15.93-2.33 2.1-1.75 2.44-2.44 4.2-5.01 8.15-1.28 1.86-.82 1.87-.69 2.56-4.2 13.97v1.63l.47 1.29.81.81-.11.35-.47 1.17-.35.69-1.05.47-.7-.12-.46.12-1.75-.23-1.4-.24-17.23-1.51 20.15-19.1 6.75-9.9.7-7.69-.35-1.05-.12-.81.12-.7 1.63-8.74 2.33-10.48 1.16-4.66 1.98-8.03.35-1.29.82-3.14-11.18-4.89-6.87-3.15-9.44-4.31-7.8-3.26-2.33-1.05-1.16-.58.81-.46 1.4-.82.93-.7 1.16-1.05 4.78-4.31-.23-.58-1.05-1.63-.23-.35-.94-1.16-1.16-1.4-.93-.82-1.28-.93-7.81 8.85-1.86-.81-8.85-3.96-7.81-3.61-5.24-2.21-7.92-3.62-6.29-2.79 21.09-46.01 1.04.12.59.35.46.58.23.93.59 22.02.35 1.74.46 1.52.7 1.51 1.86 3.15 2.45-2.22 26.21-20.73 27.37-28.77 6.52-3.49-3.38-3.61-.47-.7-.81-1.05-.47-.7-6.87-15.95-.23-.82v-.82l.23-.46.12-1.28 5.94-5.36 3.61-3.84.81-1.28.94-1.52 1.63-3.73.93-3.14.58-2.8.82-6.05.23-6.64-1.28-6.29-1.4-5.48-1.28-3.14-1.75-3.61-2.56-4.31-2.8-3.96-2.33-3.38-1.74-1.98-8.39-8.5-1.98-2.33-.58-.7-.47-.81-.46-.82-.47-1.4-.23-1.86-.35-2.68-.12-21.9-1.16-1.04-13.05-12-16.07-14.56-.46-5.47v-.82l-.12-.81-.58-7.69-1.28-15.38 12.92-18.4 1.28-1.51 5.13-6.41 8.62-10.6 7.92-8.85 4.31-6.06.23-.35 20.5-13.74 10.36-7.92.7-.46 5.13-3.38.46-.35 1.4-.93.93-.82 2.8-1.98.81-.81.94-1.05 1.04-1.05 1.05-1.28 1.05-1.52 1.63-2.56.82-1.4 1.16-1.39.82-.94-8.97-.81-2.33-.12-3.5-.35-2.44-.11-3.84-.35-5.13-.35h-8.73l-3.73.11-2.33.12-2.45.23-2.09.24-3.03.35-1.52.23-4.07.7-3.15.7-.81.11-.58.12-1.75.35-1.98.46-2.33.7-2.33.7-6.06 1.98-7.45 2.57-4.54 1.63-4.43 1.51-4.77 1.75-7.34 2.68-15.72 5.47-2.68.93-10.49 3.85-4.54 1.63-4.77 1.63-1.63-.59-1.63.82-3.27.81-2.79.47-4.08.58-5.59.24h-4.07l-5.13-.47-1.98-.23-2.33-.59-2.68-.69-1.51-.47-1.05-.35-3.38-1.4-2.79-1.39-5.48-2.8-2.33-2.1-2.32-1.86-2.22-2.1-2.33-2.33-1.74-1.98-1.87-2.21-1.51-2.21-1.17-1.98-1.63-2.56-1.28-2.22-.93-1.98.93-3.72.93-4.08.7-3.61.93-4.89 2.68-15.14.35-1.87 1.05-5.47 1.05-4.31.35-2.1 1.86-8.62.82-4.42 1.98-10.02.7-3.26.46-2.33.93-3.49.94-2.8.81-2.21.93-2.45 1.52-3.38.7-1.51 1.04-1.98 1.4-2.56.93-1.63 1.28-1.98.82-1.28 1.63-2.57 1.86-2.91 11.3-17.7 11.3-17.47 2.33-3.61-1.98-1.52.7-1.05.93-1.39 1.63-2.57 2.1-3.14 15.49-24.69 7.22-11.42 10.6-15.84 17.23-27.02 2.45-3.96 16.19-25.39 9.43-14.44 2.91-4.43 7.57-11.65 5.48-8.96 1.4-2.33 2.91-4.9 1.51-2.32 1.86-2.92.82-1.39 5.47-9.09 7.69-12.35.82-1.39 10.6-17.24.34-.7 5.36-8.62 4.43-7.34-1.75.35-1.98.35 4.89-7.8 5.13-8.5 5.59-9.2 3.26-5.36 3.61-6.06 6.99-11.41 2.56-3.96 2.91-4.78 2.68-4.77 2.8-4.2 1.98-3.26 3.72-6.05 8.62-13.98 5.36-8.74 10.6-17.35.93-1.63 1.4-2.45.7-1.63.69-1.63 1.17-2.79.7-1.63.58-1.4.47-1.52.58-1.51.46-1.4 1.17-2.91 1.16-3.26.7-1.63.82-1.98 1.05-1.87.93-1.51h-8.27l-5.01.23-1.05.12-11.88-.23-.7-27.61 24.93 14.1 6.64 7.45 4.66-5.47.23-.24 3.84-4.31 2.21-2.68 1.64-1.74 1.04-1.52 1.17-1.51 1.28-1.98 4.43-7.34 2.21-3.49 1.28-1.98.7-1.05 1.4-2.45.69-1.16 1.98-3.26 9.44-14.56 5.01-8.15 1.39-2.57 6.29-10.25 10.72-17.23 1.28-2.1 2.45-3.96 2.91-4.66 2.44-3.49 6.76-11.42 1.75-3.61 5.7-9.67 6.64-9.78 9.43-12.23 1.52-1.75 2.79-3.37 4.43-4.55 1.98-2.09 1.16-1.28.7-.7 5.36-5.36 4.43-4.19 3.03-2.68 9.55-7.81 8.15-5.94 4.54-2.91 2.91-1.98 14.68-8.85 1.4-.93 5.24-3.03 11.18-6.76 22.59-13.16 11.18-6.75 2.33-1.28-6.75 7.68 17.23-10.25 20.5-12.22 10.83-6.53 4.08-2.33 7.92-4.66 2.56-1.63 4.43-2.56 1.98-1.28 28.65-16.89 15.61-9.2 13.04-7.8 21.32-12.7 7.22-4.31 9.9-5.82 4.42-2.56 3.5-2.1 5.12-3.26 6.87-4.19 4.2-2.68 1.63-.94 5.82-4.07 5.59-4.08 5.47-4.31 6.41-5.01 1.4-1.16 3.03-2.56 1.86-1.52 5.01-4.54 5.94-5.59 3.03-2.91 8.26-7.81 1.52 1.87.93 1.63.47.7.35.58.58.58.81.7.82.47.46.58.47.7.7 1.16 3.14 4.89 3.85 5.01 11.29 14.1 1.52 1.74-19.8 23.06-2.68 2.57-1.75 2.33-1.98 2.79-3.61 4.66-1.63 2.45-.58 1.16-.35.82-.12 1.16-.35 3.15-.23 3.37-.11 2.45v1.98l-.12.93-.12.93-.46 1.4-.35 1.4-.35 1.05-4.78 17.47-3.03 11.41-1.39 4.78-.82 2.91-.58 1.98-.93 2.79-.93 2.45-.7 1.28-.82 1.63-1.05 1.87-1.63 2.32-4.54 8.86-6.75 13.04-3.85 7.57-.11 2.45v3.84l21.54-1.16 2.33-.12 1.98-.12 2.33.12 1.75 34.13 2.68 6.98 1.51 3.85.7 1.63 32.49-38.55 12.82-15.03 2.09-.11 25.51-1.17 27.95-.93 1.86 41.46.24 5.01 3.03 12.7 3.84.46 1.98.24 5.36.69 1.86.24 1.17.23 1.51.12h1.51l1.63-.12 1.4-.35.58-.23 1.05-.35 1.87-.82.93-.46 1.16-.58.82-.7.93-.7.7-.59.46-.46.82-.82.93-1.28 1.28-1.86 1.4-2.1 1.28-2.09 3.61-5.71 1.28-1.86 1.75-3.03 4.08-6.76 1.51-2.33 1.75-2.56 1.63-2.33 2.21-3.03 2.45-3.38 4.77-6.28 6.99-9.44 5.01-6.75 1.63-1.98 2.21-2.8.7-.82.7-.69.58-.47.47-.47.11-.23.35-.35.7-.58 1.87-1.63 2.21-1.86 2.33-1.98 2.33-1.87 6.17-5.36 1.4-1.16 3.14-2.68 4.43-3.73 2.56-2.21 2.68-2.33 5.71-4.89 6.52-5.47 3.61-2.92 2.33-2.09 3.14-2.68 4.55-3.85 4.42-3.72 2.21-1.87 4.9-4.19 3.49-2.91 11.3-9.55 8.27-6.99 8.96-7.69 3.85-3.26 3.61-3.03 6.64-5.59 10.48-9.08 5.12-4.2 5.13-4.3 6.29-5.6 2.21 32.27-.47 28.53 93.53-3.84 2.56-19.33.23-.35.24-.47 1.05-3.73 1.63-5.36 3.96-13.39.11-.35.12-.23-1.05-.58-1.51-.59-1.52-.46-1.63-.35-4.66-.23-1.74-2.57-.12-1.74v-7.46l-.12-4.66-.23-20.61 4.08-51.95 31.21-.81-.81-34.13 10.24-5.59 4.9-4.78 12.11-9.66 14.21-3.96 11.88-2.57 14.67 2.22 5.24.11 15.26-3.84 7.22-2.91 1.63-.12 7.34-.7 11.65 1.63 2.44-.81.59-.93 1.74-2.22 3.03-2.21 5.47-2.45 7.46-1.63 5.94.24 7.22 1.16 14.56 6.06 1.98.81 1.05.47 5.47-.12 1.17-.35 2.21-.58 4.19-1.05 11.3 1.4 4.08 2.8 3.84 1.74 10.48 8.16 6.99 14.67 9.08 10.37 3.38 1.86 8.15 1.4 3.38.23 1.86.12h1.29l1.51.11 1.05.12 2.33.35 1.28.12 1.63.58 2.33.7 1.51.35 1.05.35 2.45.7 1.39.46 1.75.12 1.52.23 1.51.12 1.16-.24 1.05-1.04.35-.82.58-.93.59-1.4 1.63-4.19.81-1.98.24-.58.23-.47.12-.58.81-1.4 1.98-1.16 1.4.11 1.63.82 1.75 1.16.46.47.7.46.12.47 1.74 1.28.59.47.58.46.46.12.59.35.7.11h.81l1.63-.46 1.98-.58 1.28-.12 1.52-2.91.7-.35.58-.12.23-.11.47-.35.58-.59 2.56-2.09 1.4-.93 1.86-.59 7.46.24 2.44.11.58-.11.7-.35.59-.12.35-.12.46.24h1.28l.47-.35.35-.47.58-.35 1.16-.46 3.38-1.17 2.45-.81 1.05-.7 2.56-2.56 1.98-3.73.23-2.21.23-1.4v-2.1l.94-1.86 1.51-1.63.93-1.28.7-1.29.58-.69.59-.94.69-.58 1.17-.46 4.19-1.87 1.28-.81.35-.12.7-.23.82-.12.46-.12 1.52-.46 1.28-1.17 1.74-1.74 1.98-1.52.12-.46 1.63-1.28.47-.35h1.16l.93-.12.82.23 1.16.24 3.38.11 3.26.23.24.24 3.49.81 4.19 1.05 2.68 1.05 1.17 1.05.46.93.7.58.7.35.81.82.59.7.35.69.58.94 1.51 2.67 1.4 1.75 1.98 1.28 1.98-.11 1.4-.94.46-.58.12-.7.35-1.04.47-1.64.81-.81.7-.58.35-.59.35-.23.7-.46 1.05-.12.93.23.7.7.93.82 1.4 2.68 1.16 3.37.58 3.15.12.7-.47 9.66-.23.82.82 3.73 2.09 3.37 4.19 3.27 2.1-.12 2.8-1.52.93-3.26.23-2.21-.46-1.75-1.75-2.91-.58-.7-.12-.81-.35-.93v-.47l.23-.93.12-.47.47-.81.46-.7v-.35l.7-1.52.58-.69.47-.47.7-.47.81-.23.7-.35h.93l1.52 1.28.35.82.35.58.35.35.69.58.35.24 5.83 2.56h1.16l1.17-.47 1.39-.35 1.4-.58 1.05-.82.47-.93 1.04-.93.94-1.28.23-.82.35-.93.81-.93 1.63-.81.24.23.58.11.81.24 1.17.46.81.12h1.17l1.4.12.23-.24v-.35l.35-1.28h.58l.23.93.7.12 1.28.35.94.7.58 1.75.46.93.24.93-.12.93-.7 1.98-.23.7-.35.7v1.51l.23.59.35.58.23.81 1.05 1.17 1.05.81 4.43 1.63 2.09.94 1.98.7 1.52-.24 1.4-.46 1.04-1.4 1.17-.82.81-1.98.47-.46.81-.35.7-.58.47-.7.58-.47.35.12.35.11.47-.23.93-.58.58-.58.58-.24.93-.46.94-.35.69-.12.12-.35.47-.58.46-.58-.11-.82-.35-.58-.59-.12-.58.35-.35-.7-.11-1.04-.59-1.4-.81-1.75v-.7l.58-.35.93-.23.82.23.93.7.82.58h1.98l.69-.35.35-.11.59-.12 1.28 3.03.58 1.63.12 1.86-.35 1.17-.35.93-.35.58.81 4.08.7 1.98 1.4 1.75.12 11.29.69 68.84 2.22.12 8.5.46v.47l1.28 98.65.58 38.2.82 68.84.35 21.66.58 46.94.58 47.29.59 44.37v10.48l.11 3.85v7.57l.12 15.49-.12 3.14.12 5.13.11.35.24 3.96 1.86 133.13.47 40.06v.35l-.35 39.72v50.43l1.51 10.48.12 3.5-5.48 50.31 6.53 6.18.46 12.58 2.45 155.02 2.44 153.97-5.94.12-12.81.47-27.25.93-31.8 1.28-14.56.47-11.53.46h-2.44l-16.07.7-18.99.7h-.93l-12.11.47-4.66.23h-1.28l-.94.11-1.04.24-5.24.93-3.27.7-3.96.81.24 3.15.11 1.86.12.47.35 1.51.35 1.05.58.93.7 1.17.35.35 1.05 1.16.7.7 1.51 1.16 20.27 14.8 2.21 1.74 1.86 1.52 1.63 1.63 1.87 2.09 1.16 1.4 4.66 5.83 2.45 3.26 2.09 2.56 1.52 2.21 1.28 2.22.81 1.51 1.17 2.56 1.51 3.73 3.26 9.2.47 1.28.81 1.63.12.24.47.81.69.7.7.47.7.34.93.35 1.05.12h1.52l5.12-.23 3.5-.24h1.51l.93-.11 1.52-.12 1.04.12.94.11.69.24.35.23.7.35.47.7.35.46.46.94.12 1.28.12 1.63v1.28l.35 12.35.11 7.57.24 7.33.58 24.58.35 12.23.23 12.34v5.48l-.23 20.61v14.56l.11 1.52.24 1.51.35 1.4.69 1.4.82 1.51 1.28 1.86 2.91 4.2 2.22 3.14 1.63 2.68 1.39 2.45 1.17 2.44 1.05 2.45.93 2.68.35.81.11.59.59 2.21.58 2.79.58 2.8.7 3.03 1.63 7.8 1.28 6.06.47 1.74.35 1.64.58 1.63.47 1.39.46 1.75.7 1.75.58 1.63 1.63 3.84 1.28 3.26 1.4 3.15 1.63 3.26 1.98 4.19 1.4 2.91.58.94.47.81.35.47.35.58.46.47 1.4 1.39 2.8 2.57 4.07 3.72 1.52 1.4 1.86 1.98 1.05 1.05 1.16 1.28 1.52 1.63 1.28 1.63 1.28 1.75 1.51 2.09 2.33 3.27 1.87 3.02 1.86 3.03 1.4 2.68 1.51 2.91.82 1.63 2.33 4.55 2.21 4.77 1.63 3.38 3.84 8.73 1.87 4.2 1.51 3.14 3.61 6.99 1.28 2.33 1.17 2.56 1.28 3.26 1.16 2.92.93 2.79.82 2.33.7 2.1 2.33 7.1 3.49 11.3 1.28 4.31 2.22 7.1 1.63 5.83.93 3.49.35 1.75.81 3.72.7 5.25 1.98 12.69.47 3.26.81 8.04.35 6.64v7.69l-.23 5-.58 7.57-.7 5.13-1.87 12.46-.93 5.59-.58 2.1-2.68 11.65-1.16-18.99-7.22-.35-1.98.23-1.29.24-18.86 8.27-21.43 5.01-.12.46-12.11 62.08-2.68 1.05-.82.35-17.7-2.8-27.49-7.68 1.87-6.41 4.77-14.44.24-.7 1.39-2.45 2.22-2.44 3.61-4.43 2.44-3.49.24-.47.93-1.98.23-.93.23-1.17-.23-.93-.58-1.05-4.78-5.47-4.66-7.34-1.28-2.79-.35-.93-.23-.94v-5.59l-.23-1.63-1.52-4.54-1.63-4.19-.93-1.52-.93-1.16-.47-.47-.7-.11-2.44-.24-2.21-.35-.59-.35-.58-.69-.23-.82-.35-.35-.47-.23-.35.23-.23.35-.23.58-.24.35-.58.12-.46.35-.94.35-.93.58-.58.58-2.79 3.73-.35.23-.82.23-1.16.12-.47-.12-.93-.46-1.63-1.4-.47-.35-.93-1.86-1.4-4.31-.23-.93-.58-.35-1.4-.24-1.75-.11-.46.11-12.7 4.78-8.04 2.56h-.69l-.59-.11-.58-.59-1.51-2.33-.12-.46v-.47l1.05-2.56.12-.47-.24-.35-2.91-3.02-2.56-3.73-.58-.35-.59-.35-.69.12-.59.23-3.37 2.56-.59.23-3.26.47-.46.23-2.1 1.4-.58.23h-.47l-6.87-.81-3.03-.7-3.49-2.33-.35-.47-.12-.46-.58-5.24-.23-.82-.47-.7-.58-.35-.7-.11-11.07.58-4.3-.23h-.59l-.46.11-.47.12-2.68-2.45-2.21-.23-.7-.23-.81-.58-.35-.59-.47-1.16-.12-1.28-.81-2.1-.82-.81h-1.28l-2.21.35-1.52.58-2.67 1.63-.94.93-1.74 2.45-.82.81-3.03.35h-5l-.82-.35-.58-.46-.23-.7.11-1.52.23-.81.7-.7 1.28-1.17 1.4-1.63.93-.7 6.06-4.42 5.36-3.26 1.51-1.05 2.68-2.33 1.4-2.21.11-.7-.58-2.91-.7-2.57-2.68-5-1.74-3.62-1.05-1.51-1.28.82-.93.58-.94-1.52-.93-2.91-.35-2.09-.35-1.17-1.16-2.1-1.05-3.14-.7-.93-1.05-.58-1.04-.12-1.4.35-1.28.58-1.05 1.17-1.63 1.74-1.17.7-2.09 1.28-1.28.35-9.55 3.85-7.23 2.56-5.35 1.4-6.18 1.51-11.18 2.21-2.21.93-.23.12-.12.35-.23 3.61-.23 1.05-.35.58-.82 1.05-.93 1.4-.12 1.05-.23 1.74-.12 4.31v2.22l.35 1.86.12.81.12.47.23 5.94v10.37l-89.45 2.33-.58.23-1.05.23-1.75-.46-1.28-.35-1.63-.35-1.63-.12-.81.12-.59.11-.81.59-.7.69-.35.94-.58 1.74-2.1 7.57-.47 1.75-2.32 11.65-1.4 5.12-2.45 8.39-.58 1.51-.58 1.75v2.8l.11 2.56.35 4.89.12 9.67.35 2.44.46 2.1 1.52 3.26 1.75 2.1 3.02 2.44 5.83 1.98h2.21l.35-.7.7-.11.81-.12 1.05.23.93.59.94.58 3.26 1.05 4.77 1.51 21.32 4.54 11.29 2.8 2.57.93 1.39.35.59.47.46.69-.12.94-.11 1.28-1.05 3.61-.58 3.03-.93 5-.94 4.2-.58 3.03v2.91l.58 8.03.24 2.1-.12 2.68-.7 10.02v12.23l.12 3.72.35 2.68.23 1.63.23 1.05.24 4.19v.59l-.12 2.09.12 3.5.35 3.14.11 2.33-.35 2.68-.81 15.49-.7 13.39-.12 1.98-.35 1.52-.46 1.16-1.05 1.17-.58.7-9.9-1.52-3.85-.46-8.27-1.4-6.17-1.4-9.67-4.66-10.83-5.59-4.66-2.21-6.4-3.26-7.92-4.19-21.2-10.95-8.04-3.96-3.96-2.1-2.79-1.4-2.45-1.28-1.98-1.16-1.51-.94-1.17-.81-.69-.58-.47-.24-.58-.11h-.47l-.35.11-.35.12-1.16-2.1-1.75-2.67-2.44-3.85-15.84-23.29-3.15-4.43-2.33-3.14-2.33-2.8-2.56-2.79-16.54-16.89-3.26 11.3 5.13 4.89 7.45 8.73 18.63 24 9.55 12.23 16.08 20.84 5.82 7.69 1.98 9.32 1.63 6.87-5.12 10.13z" stroke-linejoin="round"/></defs><use xlink:href="#b" fill="#9dc8ca" stroke="#6bb4d2" stroke-width="5.76"/><defs><path id="c" d="M2092.13 2501.23l-30.4-2.68-30.05-1.98-8.5-.58-14.44-.93-19.8 2.1-61.96-3.85-8.16-.46-9.78-1.17-14.21-.81-.7-32.5-3.49.23-4.31-.34-2.1.11-1.86.58-2.21.12-3.03.35h-3.26l-1.75-.23-3.15-.12-4.77-.23-2.8-.35-3.84.11-2.21.35-1.17.24-1.51.11-2.56.59-6.53-.94-4.54-.81-4.07-1.05-2.33-1.05-2.1-.58-3.61-.93-4.89-1.28-8.16-4.43-3.72-.93-8.74-2.1-1.28-1.39-1.28-.94-2.21-1.16-1.28-.47-.82-.23-.7.23-.93.59-.93 1.98-.35.34-.82-.11-14.56-2.8h-1.28l-3.14-.11-.93-.24-.35-.35-.35-.81-2.33-1.17-2.91-.23h-1.17l-.58.12-.47.58-.23.58-.23.7-.23.12-.47.23-.35-.23-.23-.24-.35-.69h-1.05l-3.14-.12-1.98-.12-4.55-.58-2.33-.58-2.09-.12h-2.8l-.58-.11-.35.23-.47.11-.81-.11-.7-.47h-1.05l-.93.58-.58 1.4-4.66.58-3.26-.23-1.87-.58-3.26-.93-.93-.35-1.16-.47-.47-.23h-1.4l-1.04.12-.94.58-16.19-2.1-6.75-.35-2.21-.58-1.63.23-1.17.24-2.1 1.51-1.28.82-1.39.46-1.4-.46-1.28.23-2.22-.35-.81-.58-1.05-2.1-1.05-1.4-.46-.35h-.7l-4.31.47-.47.12-1.16-.12-1.05-.47-.82-.93-.46-1.05-.35-2.33-.7-1.74-.58-.59-2.22-.23h-2.56l-1.74.23-1.29.35.59 3.73-.35 1.28-.7.23h-.47l-.58-.34-1.28-1.05-1.28-.93-1.52-.7-1.39-.59-2.68-.69-.47-.24-.35-.35-.46-.35-.35-.23-.12-.12-.58-.58-.82-.93-1.16-1.05-1.4-.12-2.21-.23-4.54-.35-15.26-2.68-1.87-.35-1.86.24-1.86.23-2.33.12-2.8-.47-1.51-.23-1.17-.24-1.51-.46-2.45-.58-1.28-.24-1.74-.23-2.22-.12-4.89-.58-.93-.11-1.17-.24-.58-.23-.11-.47v-.93l.11-.58v-.58l.12-.7.12-.7v-.7l-.12-.35-.23-.12h-.24l-.23.12-.35 1.28-.35 1.05-.23.7-.12.7-.23.58-.12.35-.35.35-.35.23-.46.12h-.47l-.58-.23-.7-.24-.93-.35-.58-.11-.47-.24H1582l-1.52-.11-.7.11-1.16.12-2.1-.35-2.33-.23-3.03-1.52-2.44-.81-2.56-.12-1.52-.58-1.75-.23h-3.37l-1.63-.12-2.68-.23h-1.17l-.81-.12-1.4.12-4.54-.7-2.1-.35-4.66-1.17-3.49-1.04-2.21-.12-2.1-.35-3.26-.81-2.1-.7-1.28-.59-1.75-1.16-1.86-.47-1.98-.58-3.15-.58-3.84-.82-4.08-1.86-.34-.12h-.47l-1.98-.35-.82-.23-4.07-.58-3.5-.58-1.63-.35-4.19-.59-3.14-1.16-2.68-.93-.35-.23-6.29-2.92-1.4-.35-3.84-1.63-2.22-.7-3.96-1.63-1.28-.81-1.04-.35-.94-.12-.7.35-1.04.47-.59.23-.46.12-.7-.12-.23-.35.11-.7.35-.46.24-.12.23-.35-.12-.46-.46-.35h-.47l-.93-.12-2.45-1.05-3.84-1.51-.93-.47-.47-.12-1.28-.58-.82-.35-1.28-.35-1.28-.58-1.51-1.05-.58-.93-.59-.58-1.16-.58-.23-.12-2.1-1.28-2.21-.93-4.55-4.08-7.33-6.17-7.22-6.18-1.75-1.74-2.45-1.87-4.66-4.89-1.98-1.63-.46-.23h-1.28l-.24.35-.58.46-.93 1.28-.35.35-.35.47-.46.93-.59 1.17-.46-.24-.12-.46.12-.47.11-.46 1.17-2.57.46-1.16.12-.35-.12-.47-.46-.7-.47-.69-.35-.35-.11-.12-1.75-1.28-.47-.35-.58-.7-.7-.81-.81-.47-1.17-.82-5.01-4.07-1.63-1.98-3.26-2.45-1.05-.7-.34-.11-.94.11-.46-.23-.58-.35-.12-.93-.12-.58-.23-.35-.23-.12-.82-.12-1.05-.81-.46-.7-.24-.58-.35-1.28-.46-.59-.58-.46-1.75-1.17-1.63-1.39-2.68-3.5-.47-.7-2.67-2.44-.7-1.05-.94-.93-1.28-.82-9.31-8.5-3.03-2.45-3.73-3.14-1.28-1.28-3.49-3.38-.24-.35-.81-.93-.7-1.17-2.56-1.63-1.63-1.63-1.52-1.74-4.77-4.31-2.8-2.33-.35-.35-1.63-1.63-2.44-1.63-.59-.24-.35-.46-.58-.7-.35-.35-.93-1.52-.35-.81-.35-1.4-.23-.58-.35-.58-3.03-4.08-5.12-5.47-2.33-2.33-1.05-.59-.23-.23-1.29-.7-1.04-1.16-.35-.24-.93-.23-.24-.35-.11-1.05-.35-.35h-.59l-.81-.23-.7-.23-.47-.35-2.09-3.15-.35-.46-.58-.35-.59-1.17-1.51-2.32-.7-.82-.35-.35-5.01-5.36-.93-.81-.93-1.98-1.28-1.17-1.75-2.68-1.51-2.33-4.08-4.19-1.05-1.51-.23-.35-1.28-1.52-.58-1.63-3.38-4.42-1.28-2.33-1.87-2.91-.58-.59-.46-.46-1.63-2.45-.82-.81-.82-.94-.34-1.28-4.43 7.81-2.1 3.84-2.56 4.89-3.73 6.87-9.31 17.48-12.12-19.57-.58-.82-13.63-21.78-6.98-22.59-.35-.7-2.68-5.59-1.63-3.73-1.05-2.21-2.91-6.29-8.74-12.7-8.97-14.91-1.86-2.91-10.37-23.41-1.86-5.12-3.49-10.02-.12-.47-1.63-9.08-.47-2.8-13.62-30.51-16.31-28.07-6.05-7.8-8.86-11.3-5.82-6.29-10.6-11.42 1.05-.7 13.39-8.85 15.96-10.71 9.55 2.09 3.96-.69 2.91-.47 15.61-2.68.81-.7 5.71-.58.47.12 25.74 25.97 1.16 1.16 16.42 39.37.59 1.63.11 1.87-1.16 4.07 1.05 29.7 1.39 22.13.47 11.77-.93 23.06-.12 3.61 4.66 5.7 3.14 3.96 1.98 2.68 5.13 7.69 2.79 4.19 3.96 4.43 2.1 2.21 2.1 2.1 3.14 3.38 1.75 1.74 2.33 2.22 2.91 2.79 2.91 1.98 2.45 1.52 2.09 1.51 1.98 1.86 2.45 2.1 7.22 7.57 2.33 2.45.93-.93.7-1.17 1.63-3.03.58-.93 1.17-1.98.23-.23.7-1.05 1.28-1.17 2.45-2.44 1.28-2.45 1.51-3.26 2.22-5.71.69-1.28 1.63-1.28.94-.11.81-.12.7.12 1.05-.12.93-.23.58-.35.82-.47 1.63-1.28.93-.82.93-.46.58.11 1.05.35 1.28 1.05 1.29.7.46.35.58-3.61-.23-1.28-.47-.93-1.16-1.05-.35-.12-1.05-.46-.58-.82-.47-1.16.35-1.05.47-1.05.7-.58 3.84-2.8 3.38-1.74 3.26-1.87 2.56-1.63.7-.7.47-.46 1.28-1.4-2.8 1.16-1.51.82-1.98.93-1.98.7-5.47 1.4-9.44 1.86-2.21.12-.93-.24-.47-.58-.12-.7.47-.7.7-.23h.7l.93.12 3.84-.7 3.73-1.63 3.14-1.75 4.08-2.56 3.84-3.26 2.45-2.56 2.68-2.57 2.91-3.61 2.8-4.07 3.61-6.06 2.33-4.31 1.74-3.61 1.63-3.96.47-1.86.35-2.22v-1.51l-.47-.82-.7-.58-1.28-.23-2.21-.47-1.51-.58-2.57-1.51-2.56-1.29-1.86-.81-1.05.12-1.28.34-.82.59-1.04.81-3.27 2.56-1.86 1.75-2.1 1.75-10.48 8.62-1.86 1.16-.23.24-1.29 1.39-.35-1.04-2.56-9.91-.11-2.67.46-2.45.82-2.1 1.51-3.37.35-1.29-.12-1.39-.46-.93-.7-1.52-3.03-4.19-1.86-1.87-2.22-1.39-2.44-1.28-2.1-1.17-2.68-1.51-2.21-1.17-1.98-1.16-1.51-1.52-1.87-2.91-4.77-10.83-9.32-19.45-11.06-23.3-5.59 3.27-11.77 6.75-4.77-10.36-.35-.82-.93-2.33-.82-1.16-.93-.94-3.38-2.56 2.45-3.73v-.69l-.24-.24-8.38-6.29.93-1.28 7.45-12.11.59.35.93.11.93-.23 6.64-3.61-5.48-11.88-1.39-2.79-.59-1.63v-.94l.24-.81.46-.58.24-.47 1.51-2.33 3.38-3.96 1.86-2.56 3.15-4.31 1.98-2.56 2.09-2.45 1.98-1.4 1.75-.7 1.4-.35 1.16-.11h1.52l2.44.11 6.41 1.75 8.85 2.56.81.12 4.55 1.28 5.12 2.1 12.81 4.89 3.96 1.51 21.32 7.92 6.05 2.45 2.8 1.51 6.05 3.5 2.92 1.4 3.02 1.39 1.75.59 2.21.46h1.64l24.1.82 12.93-.24 14.33.12 11.53.12 8.27.23 1.51 2.45.35.93.47 1.05.46 1.98.82 2.09.7 2.1.11.35.7 3.26.12.47.35 1.39.46.93.47.94.82.81.93.7 1.16.93 4.54 2.91 16.78 12.12 3.49 2.68 3.38 2.33 1.05.93.69.81.47.7.7 1.63 1.28.7 1.51.82 2.1.93 1.17.35 1.63.35 1.98.46 2.56.24 1.63.23.81-5.48.82.12.93.12 1.28-.24.93-.11 1.05-2.91.35-.94.35-1.16.12-.35 1.28-4.54.23-.93.35-1.4.12-.82 1.86-8.73-8.38-18.52-1.52-4.08-.81-3.38-.12-2.67.58-2.68 1.28-2.33-3.49-8.97-1.98-4.89-1.4-3.38-1.51-3.84-.82-1.75-.46-1.17-.7-1.39-.82-1.63 1.28.69 1.17.59.46.23 1.28.7-.34-.93-.24-.7-.46-1.17-.12-.93 1.98.12 1.98-.12h3.38l-.58 1.75-.94 3.03-.35 1.51 1.98 1.28 2.92 1.98 2.67 1.87 2.33 1.74 1.87 1.52 1.98 1.63 1.86 1.74 4.19 3.73 10.02 9.67 2.91 2.68 1.87 1.51 1.63 1.4 1.51 1.05 1.86 1.28 1.87 1.16 2.09 1.17 1.63.81 2.57 1.17 3.02 1.4 2.92 1.16 1.86.7 1.4.58 1.05.35 2.44.7 5.13 1.28 5.59 1.17 10.94 2.21 4.9 1.16 4.42.94-1.28 3.26 2.56 1.05 7.92 2.21.7.23 1.17.47 1.74.93 1.4.93 1.17 1.05 1.04 1.05.7 1.05.82 1.28.7 1.74 1.16 3.03.47 1.05.46 1.28.47.82.58 1.05 1.17 1.74 1.04 1.63.7.82.59.58 1.04 1.05 1.05.93 1.17.7 1.16.58 1.28.35.35.12 1.05.23.23-1.75.35-1.74.58-1.75.59-1.75.81-1.63.93-1.4.82-1.28 1.51-1.51 1.05-1.17 1.28.47.82-.7.23-.23 1.75-1.4 4.77 2.68.82.47 1.05.69.81.59 6.41 3.49 3.96 2.1 2.56 1.63 3.49 2.09 6.64 3.27 8.04 3.14 5.47 2.33 2.1.7 3.03 1.05 1.28.35 1.75.46 2.91.7 3.26.7 2.91.58 4.89.7 4.66.58 4.43.35 4.19.24h4.08l3.37-.12 4.66-.23 3.73-.12 6.41-.23 14.09-.47 8.5-.35 7.34-.46h3.72l3.96.11 6.41.23 5.36.24 3.96.35 4.66.7 12.92.93 21.9 1.74 9.55.7 6.76.35 6.64.47 21.54 1.75 22.13 1.63 2.1 2.79 32.84 2.45 8.85.58 13.4.93h4.19l7.92.47 3.38.11 2.91-.23 2.68-.23 2.44-.35 2.45-.58 2.33-.82 2.21-.93 1.63-.58 1.05-.47 2.56-1.28 2.45-1.4.46-.23 1.98-1.28 2.33-1.75 2.22-1.86 2.09-1.98 2.1-2.1 1.98-2.44 9.9-1.98 2.45-.59 20.49-4.19 5.48 2.8 2.79 1.39 3.38 1.4 1.05.35 1.51.47 2.68.69 2.33.59 1.98.23 5.13.47h4.07l5.59-.24 4.08-.58 2.79-.47 3.27-.81 1.63-.82 1.63.59 4.77-1.63 4.54-1.63 10.49-3.85 2.68-.93 15.72-5.47 7.34-2.68 4.77-1.75 4.43-1.51 4.54-1.63 7.45-2.57 6.06-1.98 2.33-.7 2.33-.7 1.98-.46 1.75-.35.58-.12.81-.11 3.15-.7 4.07-.7 1.52-.23 3.03-.35 2.09-.24 2.45-.23 2.33-.12 3.73-.11h8.73l5.13.35 3.84.35 2.44.11 3.5.35 2.33.12 8.97.81-.82.94-1.16 1.39-.82 1.4-1.63 2.56-1.05 1.52-1.05 1.28-1.04 1.05-.94 1.05-.81.81-2.8 1.98-.93.82-1.4.93-.46.35-5.13 3.38-.7.46-10.36 7.92-20.5 13.74-.23.35-4.31 6.06-7.92 8.85-8.62 10.6-5.13 6.41-1.28 1.51-12.92 18.4 1.28 15.38.58 7.69.12.81v.82l.46 5.47 16.07 14.56 13.05 12 1.16 1.04.12 21.9.35 2.68.23 1.86.47 1.4.46.82.47.81.58.7 1.98 2.33 8.39 8.5 1.74 1.98 2.33 3.38 2.8 3.96 2.56 4.31 1.75 3.61 1.28 3.14 1.4 5.48 1.28 6.29-.23 6.64-.82 6.05-.58 2.8-.93 3.14-1.63 3.73-.94 1.52-.81 1.28-3.61 3.84-5.94 5.36-.12 1.28-.23.46v.82l.23.82 6.87 15.95.47.7.81 1.05.47.7 3.38 3.61-6.52 3.49-27.37 28.77-26.21 20.73-2.45 2.22-1.86-3.15-.7-1.51-.46-1.52-.35-1.74-.59-22.02-.23-.93-.46-.58-.59-.35-1.04-.12-21.09 46.01 6.29 2.79 7.92 3.62 5.24 2.21 7.81 3.61 8.85 3.96 1.86.81 7.81-8.85 1.28.93.93.82 1.16 1.4.94 1.16.23.35 1.05 1.63.23.58-4.78 4.31-1.16 1.05-.93.7-1.4.82-.81.46 1.16.58 2.33 1.05 7.8 3.26 9.44 4.31 6.87 3.15 11.18 4.89-.82 3.14-.35 1.29-1.98 8.03-1.16 4.66-2.33 10.48-1.63 8.74-.12.7.12.81.35 1.05-.7 7.69-6.75 9.9-20.15 19.1-3.15 5.36-19.33 32.49z" stroke-linejoin="round"/></defs><use xlink:href="#c" fill="#6bacaf" stroke="#097d9b" stroke-width="5.76"/><defs><path id="d" d="M1952.13 2038.61l-1.63.58-2.21.93-2.33.82-2.45.58-2.44.35-2.68.23-2.91.23-3.38-.11-7.92-.47h-4.19l-13.4-.93-8.85-.58-32.84-2.45-2.1-2.79-22.13-1.63-21.54-1.75-6.64-.47-6.76-.35-9.55-.7-21.9-1.74-12.92-.93-4.66-.7-3.96-.35-5.36-.24-6.41-.23-3.96-.11h-3.72l-7.34.46-8.5.35-14.09.47-6.41.23-3.73.12-4.66.23-3.37.12h-4.08l-4.19-.24-4.43-.35-4.66-.58-4.89-.7-2.91-.58-3.26-.7-2.91-.7-1.75-.46-1.28-.35-3.03-1.05-2.1-.7-5.47-2.33-8.04-3.14-6.64-3.27-3.49-2.09-2.56-1.63-3.96-2.1-6.41-3.49-.81-.59-1.05-.69-.82-.47-4.77-2.68-1.75 1.4-.23.23-.82.7-1.28-.47-1.05 1.17-1.51 1.51-.82 1.28-.93 1.4-.81 1.63-.59 1.75-.58 1.75-.35 1.74-.23 1.75-1.05-.23-.35-.12-1.28-.35-1.16-.58-1.17-.7-1.05-.93-1.04-1.05-.59-.58-.7-.82-1.04-1.63-1.17-1.74-.58-1.05-.47-.82-.46-1.28-.47-1.05-1.16-3.03-.7-1.74-.82-1.28-.7-1.05-1.04-1.05-1.17-1.05-1.4-.93-1.74-.93-1.17-.47-.7-.23-7.92-2.21-2.56-1.05 1.28-3.26-4.42-.94-4.9-1.16-10.94-2.21-5.59-1.17-5.13-1.28-2.44-.7-1.05-.35-1.4-.58-1.86-.7-2.92-1.16-3.02-1.4-2.57-1.17-1.63-.81-2.09-1.17-1.87-1.16-1.86-1.28-1.51-1.05-1.63-1.4-1.87-1.51-2.91-2.68-10.02-9.67-4.19-3.73-1.86-1.74-1.98-1.63-1.87-1.52-2.33-1.74-2.67-1.87-2.92-1.98-1.98-1.28.35-1.51.94-3.03.58-1.75 2.79-.11h2.56l2.45-.12h3.84l2.33-.12h4.55l1.98.12 2.09.12 13.28-.35.23 9.66v.59l.12 5.24v2.79l.47 1.28 26.78-11.29 3.61-1.52 10.6-.81 3.5.69 2.33-.34 2.67-1.05 2.8-1.05 1.86-.35 2.33-.23 1.75-.12 2.33-19.1-6.87-12h8.97l1.51-.23 1.16-.23.7-.35-.58-2.22-.58-2.09-.47-2.33-.35-1.63-.11-1.05v-1.28l-.12-1.52.12-1.16v-1.05l.11-1.16.59-5.25.11-1.86.35-4.54v-.93l.12-1.17v-1.05l-.12-3.72-.12-5.24 2.45.11 1.75-.11h3.72l.47-.12.58-.12.47-.35.46-.46.7-1.05.47-.93.35-1.05.12-1.51.34-2.68.24-2.33v-.35l.46-5.24.12-7.11-.12-.58-.11-5.71-.59-5.82-.23-4.19-.46-2.22-.59-1.98-.7-1.16-.46-.47-.58-.35-.7-.23-.58-.23h-3.03l-5.01.11-.12-4.42-.23-10.14v-1.74l-.47-19.8v-.94l.12-.69.12-.82.11-.7.35-.81 1.98-4.55.7-1.86.23-1.16.59-3.03.46-1.4.82-2.68 7.45-5.36 1.4.12h4.08l2.56-.12-.35-1.39v-1.05l-.12-5.36-.46-16.07-.47-13.86-.12-2.68-3.96-.24h-2.33l-1.04.12-.94.47-.81 1.05-1.17 1.74-3.14 6.06-.58-.12-1.28-.11 1.74-3.73 2.8-5.13 2.1-3.84 3.02-5.71 3.03-6.05 4.66-8.16 3.38-5.12 1.86-2.91 1.63-2.45 2.68-4.19 5.59-8.85 9.9-15.14 5.36-7.23 6.17-7.92 5.01 3.15-.93 2.21-1.28.7 7.8 2.56 3.84-6.29 1.4-.11 1.17-.35.69-.47.47-.81.58-.82.24-1.75v-3.72l-.12-.93-.23-1.05-.35-.7-.47-.58-.58-.59 5.12-6.4-4.66-5.01 13.98-16.31 2.33-2.68 22.94-26.44 21.43-23.99 2.45-2.44 1.05 2.56 1.28 1.86.58.82 1.17 1.63 5.12-6.18 3.38-3.84 3.14-3.61 1.05-1.4.82-1.16.35-.82.35-.81.35-1.17.23-1.05.12-1.16.11-1.75.12-3.03.11-.93.12-.81.12-.82.23-.7.23-.58.24-.7.35-.81.23-.59.46-.69.59-.7 2.21-2.22 2.1-2.33.93-.93-4.89-5.7-.94-1.17-1.74-1.75-4.66-3.96-2.33-1.98-.58-.58-7.11-5.94-7.68-6.52-.7-.58-4.55-3.85-4.65-3.72-1.52-1.05-1.28-.82-1.4-.46-1.39-.47-1.4-.12-1.4-.11-.7.11h-.58l-.58.12-.59.12-.69.23-.7.23-1.28.47-.94.46-3.72-2.91-4.78-3.14-5.12-2.91-3.03-1.52-1.63-.81-4.19-1.87-1.4-.46-6.52-1.75-6.76-2.21-1.63-.47-1.51-.46-1.64-.59-1.98-1.16-7.33-4.19-1.28-.7-1.4-.7-1.4-.47-1.28-.46-1.4-.24-1.28-.23-1.16-.12h-3.73l-2.8.35-6.29.82-2.56.23h-1.51l-1.87-.23-1.74-.58-1.98-.7-1.87-.82-2.79-1.05-2.68-1.28-2.91-1.05-1.05-.35-1.28-.11-1.4-.12h-1.28l-3.14.58-.24-3.26v-9.9l.12-1.63.35-1.63.58-1.98 1.05-2.79.81-2.22.59-1.51 2.68-6.41 2.09-5.01 1.17-3.96.58-1.98.23-.69 3.85-13.28.69-2.56 1.4-4.9.7-3.14.23-1.05 1.98.12h10.25l6.41-.12 7.57-.23h5.36l3.49-.12 6.52-.11 5.48-.24 5.7-.11h3.73l5.36-.12h4.66l8.15-.23h.23l6.64-.12 3.61-.12h6.06l3.03-.11 22.94 38.08 6.64 11.07 24.92 1.05-3.37-24.46-.12-.93v-3.15l-.12-3.38v-5.01l-.11-6.98-.12-3.96-.12-.94-.11-1.04-.12-.47-.12-.35-.34-.46-.35-.24-.47-.35-.47-.11h-.69l-.35.11h-1.17l-1.16.12-2.57.12h-.34l-3.03.11-6.64.12h-4.19l-5.48.12-4.77.11-20.04-11.76 7.81-24.46 19.56-.47.12-12.93h5.59l11.3-.81 12.34-.12h8.74l1.16-6.75 3.5-20.27 14.56-84.91h8.15l4.08-.46 17.93.23 6.17.23 2.33-.11 10.25-.12.35 8.39.47 32.14v5.71l.11 5.24.24.7.23.35.82.58h19.1l27.6.12 7.8.11h4.43v3.85l.35 30.4.46 18.87.24 1.28v5.01l3.72.11 6.18.12h8.5l-.47-6.64 18.87.12 9.67.11 1.63-.35.23 5.36.23 11.53.12 21.66.35 22.48.35 15.38-1.28 5.59v.58l.23 6.87v1.75l.23.82.24 1.63.7 2.79.35 1.28.23 1.52.12 1.63.11 1.63v6.4l.12 2.45v5.36l.23 8.5v9.32l.12 1.74.7 4.66.7 5.48.23 1.86.11 1.52.12 3.49v5.01l.12.81v.47l.11.58.24 1.05.35 1.16.58 1.64 1.28 2.79 1.28 2.33.93 2.1.47 1.28.23.81.47 2.33.35 2.56.23 2.45.12 2.1v5.12l.11 5.83.12 2.91.12 6.87.11 6.17 2.91-.11-2.91 1.86.24 9.2v2.1l-.12 1.28-.93 20.85-.12.93h.47l.7.11.58.12.58.12.82.11h.58l.46.12.35.23.59.24.46.23.47.35.35.35.11.35.24.58v1.16l-.24.82-.11.7v.81l-.12.94v1.51l.12.58v.58l.11.82.24.82.11.69.24.82.23 1.51.35 1.05.35 1.4.11.82 9.09 1.28 3.49 6.17 10.37 18.05 1.28 2.33 6.52 5.71.7 2.91.47 1.28.69 1.98.7 1.63.7 1.98.58 1.28.59 1.75.58 1.4.47 1.28 1.28 3.03.81 1.63 1.05.81 1.05.7.35.12.23.12.47.11.93.12h.93l2.33-.12h1.86l1.05-.11h.35l.58-.12h.47l.23-.12.58-.11.47-.12.58-.23.7-.24 1.17-.58 1.63-.81 2.09-1.05 1.05-.58.82-.35.58-.35.35-.24 1.28-1.16.23-.35.23-.58.24-.47v-.35l.11-1.05v-6.4l-.23-5.36 1.86-.23 2.57-.24 4.19-.46.23-.12 4.89-8.97.47-.81.82 24.57.35 10.95 2.21.35 1.51-.35 1.05-1.98 2.56-.23 3.5-.93 1.04-.47.94-.35.7-.35.46-.35.93-.23.47-.35 3.84.58 5.13-1.39 2.09-1.05 1.17-.47 2.56-.46.82-.12 12.57-1.51 3.73.69.82.24.58.46.46.35.59.12 1.05.23h.81l.7.12h2.21l2.22-.35 2.67-.93 1.63-.82.47-.23 1.86-.82 2.33-.7 1.87-.34h.81l1.75.46 4.43 1.28 3.84 2.1 3.84 1.51 1.05.35 1.16.12 1.05.35h1.63l.47.11h.93l1.63.12 1.4.12 1.75.11 1.63.24 2.21.46 1.28.12 1.4.12h1.4l1.74.11h1.63l1.17-.58 1.16-.58.24-.24-1.52-5h.82l1.51-.35 1.52-.7 1.28-.82 2.44-2.21.24-.23 1.04-1.17 1.4-1.28 1.4-1.28 1.75-1.4 2.09-.93.24-.12 1.74-.46 1.75-.24 1.4-.11 2.79-.35 2.22-.7 1.39-.47.47-.23 1.28-1.05 2.33-1.63 2.33-1.86 2.44-1.86.94-.7 2.79-2.1 2.21-1.63.82-.47.7-.23.7-.12.7-.11h1.28l.46.11.82.24 1.16.46.93.47 1.52.81 1.05.59-5.13 8.5-4.89 7.8 1.98-.35 1.75-.35-4.43 7.34-5.36 8.62-.34.7-10.6 17.24-.82 1.39-7.69 12.35-5.47 9.09-.82 1.39-1.86 2.92-1.51 2.32-2.91 4.9-1.4 2.33-5.48 8.96-7.57 11.65-2.91 4.43-9.43 14.44-16.19 25.39-2.45 3.96-17.23 27.02-10.6 15.84-7.22 11.42-15.49 24.69-2.1 3.14-1.63 2.57-.93 1.39-.7 1.05 1.98 1.52-2.33 3.61-11.3 17.47-11.3 17.7-1.86 2.91-1.63 2.57-.82 1.28-1.28 1.98-.93 1.63-1.4 2.56-1.04 1.98-.7 1.51-1.52 3.38-.93 2.45-.81 2.21-.94 2.8-.93 3.49-.46 2.33-.7 3.26-1.98 10.02-.82 4.42-1.86 8.62-.35 2.1-1.05 4.31-1.05 5.47-.35 1.87-2.68 15.14-.93 4.89-.7 3.61-.93 4.08-.93 3.72.93 1.98 1.28 2.22 1.63 2.56 1.17 1.98 1.51 2.21 1.87 2.21 1.74 1.98 2.33 2.33 2.22 2.1 2.32 1.86 2.33 2.1-20.49 4.19-2.45.59-9.9 1.98-1.98 2.44-2.1 2.1-2.09 1.98-2.22 1.86-2.33 1.75-1.98 1.28-.46.23-2.45 1.4-2.56 1.28-1.05.47z" stroke-linejoin="round"/></defs><use xlink:href="#d" fill="#09757a" stroke="#00465f" stroke-width="5.76"/></svg>