<svg width="384" height="5.91in" viewBox="0 0 2880 4258" xmlns="http://www.w3.org/2000/svg" xmlns:xlink="http://www.w3.org/1999/xlink"><path fill="#fff" d="M0 0h2880v4258H0z"/><defs><path id="a" d="M1281.32 1606.33l-5.59 9.18-1.33 2-1.07 1.2-4.12-4-11.58-10.51-4.66-4.12-1.99-2.53 1.46-3.46.93-1.86.8-1.87.53-1.06.14-.4.79-1.73.14-.67.26-.79.54-1.07.39-.4.27-.13 1.07-.27 3.19.14.66-.14 1.33-.4 1.2-.79.4-.8v-1.2l-.53-1.07-5.06-7.45 2-1.73.53-.53.53-.53.8-1.46.27-1.47-.14-1.86-.53-1.46-.4-1.6-.4-1.33-.4-1.2-1.06-1.86-2.79-4.66-1.33-1.86-1.07-.93-.8-.8-1.2-.93-1.19-.94-1.33-1.33-.94-1.19-.39-9.18-.27-5.06-.67-17.3-.26-2.26-.14-1.86v-3.2l-.26-1.2-.27-.66-.26-.53-3.33-3.46-1.2-29.81-1.06-19.03v-2.79l.53-3.19 1.33-2.4 1.46-1.2 2.13-.93 1.73-.53 1.87-.67 1.86-.4 3.99-.66-2.13-10.51-2.79-12.38-2.8-27.41-1.46-1.2-1.73.94-3.19 1.06-2.8.53-4.79.8-9.58 1.46-4.12-23.55 8.78-5.05 6.12-6.12 11.84-16.64 4.79-.93.8-.27 3.73-.53 2.66-.53 3.32-.53-.26-.93-.53-.8-.54-1.2-1.06-2-1.33-2.52-3.73-5.33-1.99-2.79-12.11-16.5-1.2-1.73-6.39-8.38-4.92-6.26-3.59-4.52-6.92-9.18-7.06-10.25-2.26-3.19-1.73-2.53-.13-.13-1.6-2.26-1.06-2-3.86-5.46-2.8-3.32-1.46-1.47-1.73-1.73-.13-.66-.14-1.6-.39-3.59-1.47-11.05.4-1.19-.13-.8-.27-1.86-.13-1.6-1.6-9.98-.93-5.19-1.6-9.98-1.73-13.04-.93-5.06-.4-2.52-2.53-11.31-4.65-19.83-1.2-4.92-2.13-10.65-18.1 8.65-13.57 6.12-4.52 2.4-5.59-12.25-1.07-3.46-1.06-4.79-3.06-15.03-.54-2.8.67-7.45 1.2-2.39-.8-4.13-1.33-3.59-1.46-2-3.07-6.52-1.59-4.39 4.39 2.8 6.25 4.12 1.6.93 4.26 1.73 2.39.67 2.27.26 2.79.14 2.79-.14 3.06-.79 4-1.6 4.79-2.93-4.26-7.05-2.66-4.52-1.6-2.53-1.2-2.4-.93-2.39-.53-2.53-.13-.67v-.53l-.14-2.26v-2.4l.27-2.52.53-2.8.93-2.79 2.13-3.99 2-4.4 1.2-3.06.93-3.19.53-2.79.13-4.26-.4-3.46-1.06-5.32-1.46-5.99-.14-1.33-.8-5.72-.13-.54-.13-.93-1.73-8.38-.4-4.66.13-9.71-.13-11.31-.27-5.72-16.1 2.13-1.33-.14-5.32-.4-2.4-7.32-8.91-9.04-2.66-2.53-.54-.8-50.3-31.8-1.73-.4-.66-.67-3.46-3.06-1.2 1.73-1.46 1.47-1.47.93-1.99 1.06-2.53.67-4.66.93-3.59.66-1.07.4-.39.54v.4l-11.98 2.12-1.73.4-2-15.43-.66-5.06-4.53-27.41.14-2.66 1.19-3.73 1.07-1.59 2.39-1.33 3.86-1.6.67-1.33-.13-1.33-1.2-1.33-2.93-2.8-1.46-1.06-1.73-1.2-1.33-.53-1.33-.27h-.54l-1.19-.26-2.53-1.2-4.79-3.86-.14-4.26-.13-.4-.27-4.12-.79-7.32-.4-2.53v-.26l-.54-2.4-.93.13-.66.14-18.37 12.9-19.69 14.11-14.77 4.12-33.13 7.72-21.96 5.19-16.5-5.19 1.2-4.39.66-3.46.4-4.39v-5.72l-.53-13.71-.4-14.9-.93-.13-2.26-.27.66-3.99.4-3.46.13-2.66-.13-2.4v-8.51l.27-6.26.66-7.72.13-2.39 2-.13.67-3.6 1.59-9.04.14-.94-4.66-3.46-2.13-1.46-1.73-2.26-2.13-3.19-2.39-4.8-2.27-6.38-1.06-1.73-1.6-1.2-4.79-1.86-1.46-1.33-.67-1.07-1.06-1.73-5.19-13.44-2.13-5.98-10.51-29.28-3.86-10.78-2.66-8.78-5.19-17.03-.27-1.33-.4-2.93-.66-6.52.93-5.32-1.87-7.32-4.25-11.97-9.72-17.44-2.13-5.72-2.79-9.84-1.2-5.99-2.79-13.57-2-5.99-3.46-.8-4.39-5.86-1.46-1.73-.8-2.92-3.73-2.66-5.32-2.27-3.73.67-15.43 1.6-3.46-.27 3.32 24.48-11.97 1.33-12.64 1.33 1.86 9.72-56.29 8.38-.27.27v.53l4.8 9.05 2.79 6.78-19.03 13.71-1.46-3.99-2-5.86-4.39-15.3-3.46-11.71-5.06-17.16 25.55-11.05 3.99-1.59 3.86-.4-8.65-28.21-7.05-1.73.67-2.66-23.69-25.29-.53-1.19-4.26-5.73-3.86-4.52-2.26-1.6-1.6-.53-22.09-23.02 14.77-16.1 6.26-7.05 4.79-5.59 2.79-3.73 2-3.72 2.39-5.19 1.6-4.92.4-1.47.53-1.46 1.33-4.79 3.33-12.64 2.79-12.11 2.13-9.18.93-3.46 2-8.12 36.46-.53 4.26 4.79 1.6 1.86 4.92 5.59 2.93 3.19 3.59 4 3.73 3.85 2.13 1.73 2.12 2.53 2.13 2.26 2 2.13 2.13 2 2.13 1.86 2.26 1.73 2.4 1.6 2.39 1.6 2.53 1.46 2.53 1.33 2.53 1.2.53.13 2.13.93 2.13.67.66.13 2.66.8.8.13 1.86.4.8.13 2 .4 2.26.27.53.13 2.8.27h2.79l2.8-.13 1.46-.14h1.2l2.79-.4 2.8-.53 2.79-.66 2.66-.8 3.99-1.33 1.73-.54 1.33-.66 1.2-.8 2.66-.93 4.13-1.33 7.32-2.53 3.06-1.06 1.46-.67 2.26-1.06.94-.27 2.92-1.2 10.12-3.86 8.25-2.92v3.19l-.14 2.39-.8 7.86 18.24 2.52h4.92l2.26-.26 10.38 13.97.4.53 7.05-3.06 5.19-1.33.93-.27 2.53-.66 9.72-2.26-.54-1.2-.4-1.07-1.33-4.12.8-.13.8.13 2.26 1.2.67.4 3.19 2.92 6.26 5.19.93.54 5.05 2.12 2.4.67 1.6.27 1.46.13 12.11-1.33 11.18-1.47 4.52-.26 2.13.13 2.4.67 2.12.93 3.33 1.46-8.25 13.84 24.49 18.63 7.31 4.26 3.06.8-.26-2.67.13-2.52.93-4.66 1.47-3.73 3.72-7.98-5.72-2.4-3.59-1.59-5.59-2.8 2.39-7.71 2.8-8.92.53-.8-13.31-9.05.14-.93 5.19-13.7 2.79-9.05 3.46-10.25 7.05-19.02 21.03 2.79 9.05 1.33 5.32.53 32.87 3.06.8.14 2.39.79 4.79 1.87 7.45 3.32 4.4 1.87 1.72.4 2.27-.27 7.45-1.06 15.43-15.31-26.87-54.42-18.63-19.96 13.3-16.9 8.78-27.81 33.14-10.64-1.07-17.7-.53-7.19-.13-3.59.13-3.59.67-4.92.8-4.13.66-2.66.13-2.93-1.86-15.03-.8-7.06.14-.66.13-2.4 1.73-8.78.13-4.66-.66-4.79-.4-1.59-.67-3.46-2.26-9.58-1.33-9.18-.27-4 .14-2.52.4-2.53.93-3.06.66-2.93.27-2.4.26-1.33 2.8-5.58.93-2.27.67-1.06 3.72-5.59 2.26-3.99.8-2.66.4-3.2.93-2.52.93-3.2.94-1.6 1.86-2.39 1.46-1.06 2.53-1.2-1.33 5.45-.53 2.27-1.73 7.45-1.33 5.98-1.2 8.39-.27 3.19-.26 5.46-.67 9.84.53 2.53.54 2.26 1.06 2.4.67 1.86 8.91 18.1 3.33 6.12 5.06 9.71 4.52 8.39 3.46-2.13 1.6-1.2 1.33-1.2 2.66-3.59 2.79-4.26 1.6-2.26 2.93-3.33 1.99-1.59 1.73-1.07 2.4-.93 15.83-5.59 3.06-.8 2.53-.13 1.2-.13 1.73.26 1.73.4 2.79 1.07 3.46 1.59 10.52 5.33 5.98 2.66 1.2.53 1.6.53.66.13.94.14h.39l2.67-.14 9.04-1.33 1.6-.13 1.73.27 1.47.66 1.59.93 1.07.8 2.92 3.33 3.2 4.39 3.32 4.39 15.71 16.23 7.05 6.79 2.13 1.6 1.2.8 1.73.66 3.19.67 4.39.13 2.66-.27 3.33-.66-10.51-29.14-18.77-52.03 10.92 5.19 57.21 27.28 138.93 62.4 2.39 11.98.27.93.67 1.33 5.45 7.19 9.18 10.51 5.72 7.18-7.58 27.41 3.59-4.65 1.47-.4 1.73-.4 3.46-1.33 4.12-2.26 3.19-2.27 2.27-2.13 6.12-7.05 1.73-2.53 1.06-2.26 1.73-4.12.93-4.26.4-3.33v-2.79l.54-5.32 88.35 32.06-15.43 124.68-73.59 82.24 2.53 2.79 6.78 7.19 3.86 3.06 2.27 1.86 1.33.66 1.73.94 2.13.79 6.52 2.27 7.31 1.99 8.52 2.26 2.66 1.07 1.6.53 1.2.4 2.13 1.2 1.06.8 2 2.26 2.26 3.46 7.45 11.31.8.8 2.53 3.06 1.86 1.59 2.4 2 2.66 1.73 1.73.66 4.92 1.47 3.33.53.93.13 4.39.4 12.77-.4h2.93l7.19-.13 4.39-.13 7.05-.27h6.26l-.54 1.86-.93 3.6-.93 3.72-.67 2.4-1.46 5.19-1.06 3.99-.54 2-2.26 8.25-.26.79-1.47 5.33-1.59 8.65-.54 3.85-.53 2.67-.27 1.59-.39 2.53-.4 2.13-.67 3.86-.4 3.99v2.39l.13 3.07 2.4 14.23 1.86 11.85 3.73 24.21v.27l3.59.13 1.33.14h.4l4.53.26 5.98 1.07 7.06.53 19.29 1.59 8.52 1.47 4.79-.13 5.32-1.47 5.19-2.26 2.66-3.59 1.07-3.86.26-4.26 1.33-3.99 3.06-3.33 7.46-5.05 2.13-1.34h.66l1.46 19.7.27 1.73 1.06 5.45.54 1.73 6.38 11.58 2.13 4.26 4.66 9.84.27.94 1.06 3.32.8 3.73.93 3.86 1.2 4.12 1.2 3.99.66 1.33.93 2.27 3.46-3.06 9.85-1.87-2.53-17.3 7.72-1.46 2 5.72 1.33 7.85 1.99 6.26 2.13 3.06 1.07.93 3.99 3.33 1.2 1.06 3.72 5.86 5.72.93 5.06.66 9.05.14h1.06l13.98.79h6.12l2.53-.26 1.86-.27 1.73-.93 15.17-4.79 1.46 2.39.67.67 5.99 15.04-1.73-.54-2.53-1.59-.93-.27-1.73-.4-1.73-.4-.8-.4-3.73-3.32-1.06-.4-.54-.14-.53.14-.8.53-2.79 3.06-7.05 4.26-.8.93-.67 1.06-2.13 4.93h1.47l1.06.26 1.2.67 1.6 1.2.8 1.46 1.33 4.39.4.8 1.06 1.2 4.79 2.79 1.46 1.2.4.53.4 1.33.53 2.4.94 7.05.93 4.26 1.99 10.24.4 2.4.54 2.39 1.19 7.85.4 2.8.27 5.99v7.58l2.79-.13h13.84l13.44-.4 6.39-.53 1.6-.27 3.99-.93 3.19-1.33 2-1.07 1.59-.93 1.6-1.46 1.73-1.86 1.86-2.4 2.27-3.06 3.06-5.06 2.79-4.12.53-.93.8-1.33.8-1.2.53-1.07.93-1.73.54-1.33.79-3.06 1.2-4.92.4-1.86 1.6.66.93.4.93.53.53.14 2 .93 20.36 9.58 14.24 6.92 12.11 5.59 1.46.66-5.06 8.52-14.63 26.74 7.85-.93 1.19.14.94.66.79.93.4.67.4 1.46.93 6.39.94 5.19.53 3.19 1.6 8.12 7.71-4.26 13.31 4.39 4.52-5.72 7.86.13 3.32 19.7-9.18 1.73 2.79 17.03-23.42 4.12 3.07 19.3 3.19-.8 1.46 9.58 1.73 11.31-6.52 1.2 7.05 41.65-15.17 2.92-2.26-2.92-7.18 1.06 5.72 6.79 1.73 1.73.27.13 1.72 2.26 1.73 2.53 2 5.32.93 4.26 1.87 8.65.79 3.72 2.67 5.33 1.06 3.32.66 3.06.14 1.87v5.59l.13 1.99-.27 4.26-1.86 6.52-1.99 3.73-2.53 4.25-4.53 4.39-7.32 7.06-.66.79-3.33 2.27-2.39 1.19-2.4 1.34-2.53 1.99-1.33 1.07-3.46.93-.66 2.13-1.73 2.13-3.2 3.99-2.39 6.38-.8 4-.66 6.38-.27 1.6-.53 1.2-5.33 7.85-7.31 11.18-1.87 1.19-1.73.93-1.46.54-.27.26 7.85 11.31 48.44 7.06.8 14.37 27.01-5.86.4 7.98v9.98l-.4 4-1.06 6.38-1.33 6.12-3.6 17.7-2.79 12.64-.93 4.93-3.73-1.47-1.99-.4-2.27.27-2.26.4-.4-2.4-.66-1.73-1.2-1.59-1.6-1.33-1.86-.8-1.86-.27-18.5 3.33-8.65 1.59-2.26-12.77-14.11 2.26.8 5.33-.8 11.31 4.66 6.12.13 6.52-1.73 3.86-3.46 7.18-.66 1.33 1.6 11.31.79 5.32.54 4h-1.33l-3.6.26-3.46.14-2.53.39-1.99.4-2 .4-1.99.8-2.4 1.2-2.26 1.33-3.06 2.13-3.46 3.06-4.39 3.86-1.47 1.59-4.25-.26-9.05 4.92.4 1.2.53.93.93.93.93 1.47.93 2.92.67 2.27 1.73 6.12.93 3.99.13 1.33.27 2.39-.27.27-.4.93-.26 1.6-.14 1.06-.26.8-2 5.32-1.33 4.39-1.06 3.2-1.33 2.93-1.6 5.05-1.33 2.4-1.2.66-1.06.4-1.47.27h-1.99l-1.47.13-2.13-.13-3.19.26-2.39 1.07-.94 1.2-.26.53-.4 1.06-.4 2-.67 3.59-.4 1.07-2.12-1.87h-5.46l.53 2.66 1.33 1.33 3.2 4.93-2.4 2.26-.4.53-1.99.53-.8-.13-.27.13-.93-.13-.93-.53-1.33-1.33-2.93-1.73-2.66.13h-3.06l.4 1.47.4.79.53 1.33v1.07l.27 1.06.39.93.27 1.47.27 3.19-2.66 5.59-.8.53-.93.67-1.47 1.86-.13.53-.53 2.13-.27.8-1.2.67-1.99.26-1.2-.26-1.86-.27-3.06-1.06-3.2-.67-1.99.67-1.87 2.66-1.46 1.86-1.07.8h-.53l-.53.26-1.46 1.73-.4.94-.4 1.19-.93 4.39-.67.94-.53.39-1.86.4-2.67-.26-1.59-.4-1.33-.53-1.47-1.2-1.33-1.07-4.79-4.65-1.2-1.2-2.26-2.13-2.39-1.46-1.87-.93-2.39-.8-3.33-.67-8.91-2.79-2.13 2.26-.27.66-.4 1.2v.8l.67 2.66.26 1.07.54 2.39.39 1.2.67 1.99.93 2.93.13.53-.26 1.34-.27.53-.53.4-9.31 5.85-14.11 8.25-1.06.93-1.07 1.73-.53 1.2-.67 3.19-.4 2.66-1.46 7.86-.27.93-3.46 8.51 1.34.67-.4.53-1.33 1.2-1.34.66-5.58 4.66-1.73 1.73-1.73 2.93-2.53 3.46-5.19 6.65-4.39 5.59v1.99l-4.13-1.59-11.84-2.53-.27.27-.4.26-5.59 12.24-2.79 5.99-2.66 6.12-1.07 2-.93 2.13-4.79 10.51-1.59-.67-.94-.26-5.98-1.86-3.33-.54-2.66-1.06-2.66-1.47-2.67-2.39-3.19-3.46-1.73-1.33-1.73-1.07-2.93-1.19-5.98-1.6-6.52-1.46-.4.13-.27.27-.13.4-.14.53.67 4.26 1.6 9.18-4.53.8-1.99-11.32-8.92.94-6.25-31.14-6.39 1.33-9.45 1.73-5.99 1.06-6.78 1.2-9.98 2-.94.26-2.52.8-10.78 2.8-4.53 1.06-4.25 1.2-9.72 2.79-2.93.67-13.84 1.06-11.71.54-6.12.39-5.59.4 2.93 20.1-6.78 3.86h-.27l-1.6.26-3.86.67-14.77 2.52-1.06-7.45-.27-2.66.27-3.86-2.26 2.53-.54.53-.26.4-.14.14-.26.26-.53.4-.27.4-.27.13-.13.14-.66.53-.14.13-.8.67-.39.8-1.47 2.66-.26.4-.54 1.06-1.46 2.4.13-8.65-9.71 5.19-7.05 1.19 2.26 11.71-25.02 4.13-14.5 2.53-2.66.53-2.4.4-1.6.26-7.05 1.87-7.19 1.73-4.65.79-1.87-.13-6.78-.8-3.86-.13-2.13.27-1.33.26-.93.53-2.13 1.47-2.53 2.53-1.06.93-2.13 2.53-2.8 3.06-2.26 2.52-2.93 3.86-1.33 2.13-2.39 4.53-8.39 17.16-1.59 3.33-.27.53-.4.93-1.46 3.73-2.4 5.32-4.92 10.91-2.26 3.99-3.6 4-.66.53-.93.4-1.33.4-1.07-.14-1.46-.8-.93-1.19-.94-1.33-.79-.8-1.2-.67-1.07-.26h-1.86l-1.33.26-2.93 2-2.53 1.73-2.12 1.99-2.67 2.8-3.06 4.52-1.06 2.13-.8 1.86-.8 1.87-.26.4-1.6 2.52-.93 1.2-.93.8-1.87.8-2.26.53-2.13.53-4.12 1.47-1.47.8-2.92 2.12-.94.8-.53.54-3.32 4.52-6.92 10.91z" stroke-linejoin="round"/></defs><use xlink:href="#a" fill="#cee3e4" stroke="#cef5f5" stroke-width="5.76"/><defs><path id="b" d="M1658.43 1758.82l-.66.13h-.54l-1.19.8-1.73 1.33-4.93 4.26-1.86.93-1.06.8-2 2-2 1.19-1.19.27-.4.13-2.4-.13-2.66-1.33-5.19-3.99-1.6-.67-1.06-.13-1.73.26-1.33.4-1.07.14-2.13.93-1.06.26-1.86.94-3.6.93-.93.13-.53-.93-.13-.4-.14-.93-1.19-5.86-1.6-7.05-2-8.12-1.46-5.85-1.46-5.85-1.07-4.13-1.06-3.33-1.2-3.06-1.2-2.66-.8-1.86-.79-1.07-.27-.39.53-.14.67-.13.8.13 4.12-.66 2.4-.4.66-.14 2.53-.53 1.46-.26 1.6-.27.67-.13-.27-1.2-1.46-9.45-.27-.93.8-.13h.26l4.66-.67 2-.4 2.39-.66-1.46-7.05-1.07-5.06-8.51 1.73-1.07.13-1.33-7.05-.8-3.73h.94l1.99.14 1.2.26 21.02 4.66 4.13 1.2 15.7 3.06 3.06.4 9.85.26.93-.13.13.8.67 1.6.13.53.8 1.2.93.53.8.26 1.86 1.07 1.33 1.86.4 1.07.14.79v3.46l.26 1.2 1.07 1.73 1.59.8.94.27 2.12.93h.8l2.93-1.6 1.33-1.06 1.33-.67h.4l.8.27.66.66.94.4h.93l.8.27.53.4.26 1.06v1.73l-.26 2.66.13 3.59.13 2.53.4 1.47.4 1.06-9.31 8.25-3.99 3.46-1.6 1.6-3.06 2.66-.67.4-.66.8 2.39 2.26.54.53 1.73 2.4-2 2.12-2.53 2.93-.93 1.86-.4 2-.8 1.46-1.2.8-1.59.67-1.47 1.6-2.26 1.86-2.13 1.06-2.13.27-1.19-.27-1.47-.53z" stroke-linejoin="round"/></defs><use xlink:href="#b" fill="#cee3e4" stroke="#cef5f5" stroke-width="5.76"/><defs><path id="c" d="M1852.45 3388.44l-1.73.26-1.73.27-2.67.13-4.52.67-10.38.93-1.2.13h-1.19l-.54-6.52-.26-4.26-36.33 4.79-9.05-4.39-23.82-11.57-21.02-7.46-16.64-5.85-13.7-4.79-4.66-1.6 1.73-15.57-.93-5.85-.53-2.66 5.19-8.12 6.12-7.98 14.24-17.97-15.17-15.83-4.8-4.92-12.1-12.78-26.09-27.41.54-1.99.66-3.2.27-2.13v-2.13l-.4-4.92-.53-3.33-.54-4.12-.66-7.19-.8-8.25-.27-3.32-4.92-1.6-5.72-32.47-1.73-.93-2.26-1.19-4.79-2.67-1.87-2.13-7.98-9.31-48.3-54.02-3.46-3.73-24.89 1.86-8.38.67-50.04 3.73-51.23 7.18-24.48 3.46-13.17 2-9.32 1.46-13.44 2.13-2.39 10.64-1.47 6.66-.66 2.53-.27.93-.27 1.19-.66 1.6-.53 1.6-.4 1.06-1.47 3.46-1.59 3.86-1.2 2.93-1.33 2.79-1.33 3.06-1.07 2.13.14.4.13.27v.26l-.13 1.47-1.33 10.64-.8 6.66-.93-.27-.94-.13-1.06-.14-1.2.14-6.92 1.19-1.2.27-4.92.27h-.66l-.4-.14-.27-.13-.53-.4-1.2.53-2.66.93-3.33.94-10.11 2.66-3.59.93-3.33 1.06-2.26.8-1.07.53-8.38-67.06-37.79 1.33-21.43.8-22.88.8-17.3.66h-.67l-11.71.8-86.09 6.92-66.14 19.16-15.97 4.53-7.32 1.33-4.79-1.2-17.96-1.07-24.75-1.33-2.8.8-1.33.4h-1.33l-1.99-1.6-2.13-.79-2.66-.14-2-.26-2 .4-1.86 1.73-2.26 1.06-2 .53-3.19 1.6-2.13.8-4.12 2.26-4.93 3.06-1.59.67h-1.6l-2.13.66-1.73.8-.8.26-.8.27-.4.4-.13.4-.53 1.33-3.46 4.52-1.47 1.6-6.78 6.12-1.2 1.07-8.78 6.92-1.73 1.19-1.2 1.33-.4.67-.4 1.33-.53.93-.8 2.13-.66 2.4-.67 1.86-1.6 1.86-1.59 1.07-2.26 1.19-2 .67-2.26.4-1.47.53-8.51 4.52-1.2.8-2 1.07-1.33.8-.53.79-.67 1.07-.66.4-2.53.93-2.79.53-.93.53-4 2.53-.53-3.86.13-1.99.8-4 2-5.72.93-3.59 1.2-2.53 1.06-3.19.53-2.26v-3.33l.4-2.79.4-1.33.8-1.73 1.33-2.53 1.2-2 .93-1.33 1.33-2.13.4-1.33.93-1.86.4-3.06-.13-1.87-.27-2.79-.13-4.92v-4.13l.53-3.32 3.33-.54-2.53-14.23-1.2-5.19-3.99-19.56-.27-1.33-.13-.8-1.86-11.71-6.79-36.73-37.92 22.36-2.4.4-1.46.26-3.73 2.53-5.72 4.66-2.53-8.39-1.06-4.52-.93-2.26-5.46-9.18-1.33-2.27-2.53-2.66-2.66-3.46-1.33-2.12-3.86-10.38-.53-.8-2.8-2.13-2.39-1.33-1.2-.4-3.33-1.33-2.52-1.47-8.52-8.78-.53-.53-1.6-1.2-2.4 2.4-7.05 7.18-1.73 1.73-9.45 12.78-4.39 5.05-4.25 3.6-2.13 1.46-2.13 1.06-2.4.8-10.24 3.06-12.51 2.8-1.6.53-.93.67-1.33-.8-5.99-3.46-3.06-1.47-1.6-.53-2.13-.13-2.13.13-2.79.4-3.19.27-2-.14-1.6-.8-2.26-1.86-1.2-1.2-2.13-2.79 4.53-6.12 1.46-.8 1.33-1.06.93-1.2 1.07-1.73.66-1.86 1.47-2.4 5.59-11.18.53-1.59 1.06-2.66 1.07-2.67 2.13-10.51.8-3.99v-6.39l-1.07-8.51-1.46-8.12.13-2.79 2-2.13 3.32 1.33 5.06 1.2 4.52.53 3.86-.67 1.87-.53 3.59-2.13-2.93-.26-6.78-3.73-5.86-4.79-11.18-11.71-35.26-39.25-3.33-5.86-11.84-26.61-4.26-8.25-.66-1.2-3.6-4.52-7.32-7.45-1.86-1.6-8.91-7.45-12.91-11.18-1.73-1.6 1.86-3.59 5.06-10.24 14.64-29.15 6.38-13.7 14.37-38.19-1.06-1.06.27-2.53 3.46-7.45.26-1.47 1.86-1.46.94-.8 4.39-5.59 6.25-7.85 3.06-3.99 1.47-2.66 3.19-6.39 2.26-5.72 4.13-10.38 1.59-4.12 1.2-2.93 2.13-5.32 4.52-12.65.54-1.19 2.66-6.66 1.6-3.72 1.46-2.66 1.46-2.4 1.2-1.73 2.13-3.06 1.86-1.99.8-.8.4-.53 1.2-1.2.4-.53 3.32-3.07 11.18-10.37 2.4-2.67 1.59-1.59 1.33-1.6.67-.8 1.73-2.53 2-2.92 1.99-3.86 8.12-16.77 9.85-21.42 7.31-15.44 1.07-2.39 1.6-3.46.93 1.06 1.19 1.33.8.8 6.79 6.26 3.73 3.59 5.32 4.39 5.45 3.86 6.66 4.92 1.73 1.07 1.99 1.33 1.6.8 2.79 1.19 7.06 2.4 7.45 2.66 7.98 2.79 4.66 1.73 11.31 3.6 6.12 1.59 4.79.8 6.39.14h9.45l7.85-.27h5.59l2.39-.13 6.26-.14 32.6-.53 1.06-.13 28.35-.53 1.99-7.19.94-3.19 4.79-16.24 2.92-8.51 5.06-15.7 1.33-2.4 4.13-5.32 1.59-1.33 3.99-1.2 5.86-1.06 6.25-1.34 5.19-.79h1.07l.93-.4.8-.67 1.73-.93 1.99-1.2.8-.53 3.33-1.2 1.06-.66.8-.67.8-1.33.53-1.6.93-2.92 3.86-8.52 1.87-3.46.66-1.59.93-3.73.27-.93 2.26-5.32.67-1.87.4-1.46.79-4.26.8-2 .67-2.79 1.99-6.12 5.19-11.44 1.87-5.73 1.59-4.79.93-1.59 1.87-2.8 7.05-9.98 2.4-3.99 1.86-5.59 2.26-7.18 4.79-19.16 1.6-6.12.4-1.07 1.86-5.45 3.06-8.92 5.19-10.64 5.59-13.84 4.39-5.06 3.19-4.12 2-1.6.8-.53.8-.4 1.46-.27h1.46l4.93.8 1.73-.13 1.46-.4.8-.27.4-.4.4-.4.4-.93.13-1.06.13-1.07-.26-.8-1.33-8.38-.54-4.12.4-2.27v-2.39l-.53-6.12-.8-9.72.8-3.19 1.47-2.39 2.12-1.87 1.87-.4 2.79.94 3.59 2.39 11.71 9.45 1.34.26 1.06-1.46 1.06-2.26 4-4.53 4.79-9.71 11.17-17.96 5.59-8.78 6.52-10.38 3.46-6.12 2.13-2.13.67-2.66 11.44-19.83 4.93-11.31 1.19-1.46 7.72-7.72 3.06-1.33 11.18-2 2.13.13 1.99.8 3.6 4.39 1.99 3.2 1.07 1.46 1.33.67 1.6.13 1.73-.4 2.66-1.06 1.59-1.07 1.73-1.6 8.12-11.04 11.05-11.18 12.5-5.45 23.16-8.52 9.71-3.46 3.33-1.73 2.26-2.13.27-.26 1.46-2.66 1.33-2.27 1.2-1.46.66-1.07.27-1.33v-1.33l-.4-1.19-.8-2-9.98-15.04-1.06-1.33-.67-.93-.93-1.2-1.2-2.52-.26-1.33v-1.2l.13-1.07.53-1.06.67-1.2.8-.8 3.32-2.79 3.2-2.53 2.26-2.13 3.19-2.79 1.87-1.33 1.46-.93 2.39-1.73 4.93-4.93.66-1.06v-.8l.14-.4.26-3.33.4-5.85.13-.93.27-.8.27-.53 2.79-3.86 1.6-2.66.93-2.66 1.33-4.66v-.93l-.4-1.73-.13-2.53.13-1.73.8-.8 2.39-1.46 3.07-.8 1.99-1.07 2.93-2.66 1.33-1.06 2.13-2.53.8-.67 1.59-.93 2.27-1.59 1.06-1.2 2-2.4 2.39-2.79 2.13-2.66.4-.53.53-.54 6.79-7.85 1.46-1.46 2-1.86 1.86-1.33 2.13-2 1.86-1.46 2.8-4.39 1.99-2.67 1.6-2.39 1.07-2.13 1.46-1.86 1.46-1.2 3.73-3.73 1.33-.66 1.46-.93 1.47-.93.8-.54 1.59-.93.8-.26.67-.14 1.06.14.53.13 1.2-.13.93-.54 1.47-1.19 1.86-1.33.8-.4.4-.4 2.13-3.06 3.72-3.06 2.8-2.27 1.46-.93.8-1.06.66-.8 2.53-1.73 2.4-1.86 2.13-2.27 1.06-1.59 1.07-2.66.39-2.4.27-1.2.67-1.06.53-1.6-.13-1.06.13-2.13.4-2.13.93-3.06.4-2 1.33-3.32.8-1.47 4.79-5.85 1.06-1.2 2.26-1.86 2.13-1.2 1.33-1.33.94-1.33.93-1.46.66-.94 1.6-2.12.93-1.47 2.93-5.59.66-1.19 1.33-2.8 2-3.19 6.79-12.51 4.25-7.05.94-1.47.79-2.66.94-1.59 1.19-1.6 2-3.19 5.59-10.38 3.72-7.32 1.07-1.86 2.26-2.67.67-.79 1.06-.27 2-.4 3.06-.27 3.46.4 3.06-2.13 3.33 2.27 8.38-.54 3.19-.79 3.73-1.33 3.32-1.47 2.13-1.2 2-2.26 1.06-2.13 1.07 4 1.2 2.92 1.99 2.8 4.26 6.78 1.86 2.8.67-1.33-.67-2.13-2.52-9.05-2.4-7.72-.4-1.59-.53-1.73v-2.4l2.26-3.59 1.07-2.4 1.86-3.32 3.86-9.98 9.58-26.22 2.53-9.05 1.73-2.66 2.79-4.92 6.65-8.25 5.06-4.12 4.79-4.13 5.32-3.86 4.53-2.26 1.33-.4 4.79-1.46 2.93-1.47 10.24-5.72 4-1.2 2.79-.66 1.06-.13 1.2-.27.67-.13h.53l2.13.13 1.99.4 1.07.66 1.6 1.47 3.32 3.19.93.53.94.67 1.06.26 1.6.14.4.13h1.59l.93-.13 3.6-.93 1.86-.94 3.59 10.65 3.2 10.25.26 1.86.14.93.53 3.73v2.66l-.27 2.13-.8 3.46-.26 1.06-.27.93-1.6 3.06-.93 2.26-.53 1.07-6.92 14.24-.53 1.19-1.07 3.33-.39 2.4-.54 2.92-.13 1.47.13 2.52 2.66 15.44 1.73 10.64.67 3.86v2l.13 1.86-.26 2.66-.27 2.13.4 3.73.53 1.99 1.47 3.2 2.26 3.32.93 1.73 1.6 6.92 3.19 14.64.4 2.4.4 3.19.26 1.2v1.19l-.13.54v.13l-.26 2.13-.14.93v.67l-.4 2.52-.13.54-.93 3.99 3.19 1.99 1.86 1.47 3.86 4.65 1.6 2.27 2.8 3.99 2.52 3.59.8 1.73.53 2.53-.13 2.13.13 4.52.14 4.66.13 5.19 4.39.66h.53l.67 13.44.4 5.19v6.92l1.06 12.64v8.92l-.8 7.32v.66l-1.46 5.72-1.33 4.53-6.25 13.7-3.06 8.52-1.6 4.39-.27 1.73-.13 1.6-.27 1.46v.4l1.07.27 1.86.26 1.46.13 2 .27 1.6.13 9.31.54 5.19.13v7.18l-1.33-.13-1.6.8-1.19.8-1.87 2.13-2.66 4.52-2.53 4.66-1.73 4.12-1.06 4.79-.13.54 1.73 12.5.66 5.86.13 3.19v4.26l-.53 6.12v1.73l.8 6.65.67 7.19.13 6.12-.27 6.65-.8 5.06-2.39 9.98-2 5.59-2.66 6.92-2.93-1.6-1.73-.66-.53-.4-5.59 29.67-.53 2-1.2 9.44-4.65 21.03-2.67 16.5v.79l-.26.67-3.19 23.15-2.13 15.7-2.13 23.69-1.33 17.03.53-.13 1.33-.27 3.19-.53 3.73 22.22 1.6 8.65 2.12 13.31 3.07 16.63 1.19 5.72-1.99.4-1.73.53h-.27l.13 1.73 1.07 2.53 3.59 7.85 1.2 1.86 7.45 11.18 6.52 9.45 7.59 10.11-2.67-.8-5.85-1.33-1.46-.13 5.45 9.18 3.59 5.59 7.46 15.7 4.12 10.25 1.33 8.51 2.53 11.85.4 8.64v19.03l.27 26.88 3.99 21.16 6.78 15.03 5.99 12.91 1.2 2.26 5.06 10.51 7.32 18.77 2.79 9.98 2.4 9.44.79 4.53.27 3.86.8 4.79.4 12.24.8 7.72.93 14.23.66 10.78 3.33 51.5 1.6 19.16 2.52 43.51.54 22.22v1.86l.8 13.44.79 9.05 1.33 10.78-.4 2.93.27 5.32.93 1.33-.26 4.79 2.39 21.42 3.06 19.16 1.73 6.79 3.06 11.04 8.65 21.69 4.79 9.58 9.85 14.91 4.26 11.17 34.86 57.09 6.39 13.57 5.72 13.84 6.12 15.17 3.46 7.58 8.65 20.89 2.53 6.12 5.99 14.11 3.99 10.25 3.46 8.78 6.39 15.96 3.32 12.78.4 1.73 2 1.06 4.12 2.53 2.27 1.33 8.51 4.93 3.33 2.12 3.86 2.53 1.73.93-.67 1.73-.53.8-.53 1.33-1.2 2.8-1.86 4.12-1.73 3.73-1.33 2.53-1.07 2.92-.66 1.73-.54 1.6-.66 2-.4 1.86-.27 1.06-.26 1.47-.4 1.73-.27 1.86-.13 1.46-.27 2.13-.13 2.4v2.79l-.13 2.53v4.52l-.14 4.26v3.33l-.39 2.26v8.78l-.14 2.4-.26 6.78-.4 7.46-.8 9.04-.67 6.39-.8 6.39-5.58 39.92z" stroke-linejoin="round"/></defs><use xlink:href="#c" fill="#9dc8ca" stroke="#9dd7f0" stroke-width="5.76"/><defs><path id="d" d="M2429.96 4180.56l-.8.4-1.99 1.19-2.8 2.4-1.19 1.33-1.87 1.73-1.06 2.79-1.6 3.73-1.06 2.79-1.07 3.86-.8 4.26-1.59 3.86-2.4 4.12-2.13 3.33-1.99-.66-1.47-.67-3.32-2.13-2-1.33-7.32-5.99-.93.67-2.39-1.86-2-1.6-1.6-1.46-1.46-1.07-7.72-5.85v-1.73l-.8-2.53v-.8l.14-.67.13-.79.13-.4.27-.4.53-.67.53-.26.4-.27.4-.4 1.46-2.79.67-.67.93-1.06.8-.54 1.73-1.73 1.2-1.06.53-.4.13-.4.27-.53v-.8l-.27-1.2-.53-1.19-.8-1.6-1.2-.93-.79-.8-.54-.53-.53-.93-.13-.54-.4-1.19v-.67l.13-.4.53-.4.54-.26 1.19-.14 1.33.14 2.13 1.19.94.4 1.73.93.53.67 1.06.93.67.4 1.19-.13.54-.14.53-.39.8-.94 1.59-1.73 2.67-3.19.66-.93.8-2v-3.99l.13-.93.27-.93.4-.67.53-.53.53-1.06.4-1.33-.13-.94-.13-.93-.14-1.19-.26-.67-.54-.67-1.33-1.06-1.46-1.2-1.2-1.33-1.06-1.46-1.33-2.66-.67-.8-1.2-1.07-.66-.53-.67-.26-1.86-.54-.4-.26-.26-.54-.27-.39-.4-1.2-.13-.4v-.67l.13-.26.4-.14.8.14.66.4h.54l.93-.14.79-.53.4-.53.27-.4v-.53l-.13-.67v-1.2l.26-1.06v-.4l.27-.66.53-.14.27.14.26.53v.53l.27.8.8 3.06.53 2 .27.39.53.67.53.27 1.07.53 3.59 3.19.8.4.66.13.93-.13.4-.27.54-.79.39-1.87.8-1.99.27-.53h.66l.27.39.13.54.14 1.19-.27 2.4v2.13l.27.8.26.66.67.53h.93l2.93-1.33 2.53-1.06 1.46-.67.66-.4.54-.66.26-1.07.54-.66.66-.27.53-.13 1.47-.53 2.92-1.33 1.87-.53 1.19-.67.27-.4.4-.27.13-.53.54-1.2.13-.39.4-.27 1.59.53 1.34-.4 3.19-.53 2.13-1.33 2.39-3.59.54-2.66-.54-2-1.33-2.13-1.73-1.2-3.99-1.33-2.26-2.92-.27-1.73v-2.27l2.26-6.65 1.07-5.46v-5.45l-.67-4.13-.13-.53-1.2-3.99-2.66-4.13-1.86-1.59-1.33-1.86-.4-1.87-.4-2.53.27-5.19-.4-4.39-1.2-3.72-1.07-2.13-1.99-2.53-1.86-2-1.47-1.06-1.2-1.6-.26-1.33.8-1.46 3.06-.53 2.79.66 1.86-.13.54-1.33.4-2.53-.54-2.79-2.13-4-.53-2.12-.53-2 .53-1.86 2.26-3.33 2.13-3.73.8-2.79-.13-2.53-1.46-3.32-.94-2-1.19-2.8-2.93-7.18-.4-2.66 2-5.86 1.59-1.99 3.86-5.46.93-2.39 2-5.59 1.33-5.06 2-3.32 1.73-2.67 1.19-3.19.93-3.06.54-2 .13-1.46.13-2-.4-5.45-.26-.8h-4.39l-4.13-.66-3.99-1.2-4.66-1.87-3.99-1.99-4.52-2.93-7.86-7.98-2.66-2.8-.93-.93-1.86-1.73-2.4-2.26-2.26-2.79-1.86-1.6-2-1.73-.53-.53-2.13-1.47-1.33-2.26-.27-.4-1.06-2.79-1.07-5.32-1.33-4.79-.79-5.99-1.34-7.59-1.73-14.37-.39-5.45.13-6.39 1.33-4.39 2.39-6.52 2-4.39 2.93-5.46 3.06-3.99 1.46-4.39 1.6-9.18.53-10.78.93-6.39-12.77-7.72-6.52-3.99-4.93-1.99 2-3.06 1.86-4.13.67-3.86-.27-4.52-.53-3.33-1.33-4.39-4.79-12.37-11.44 3.19-11.18-2-2.93 1.33-1.86-4.25-1.2-2.53-1.33-2-3.99-4.52-.4-.4-.8.4-.4.4-1.6 2.53-.26.53-.67.26-1.99.27-4.79.53-1.07-.13-.8-.53-.66-.54-.8-.53-.93-.53-3.86-1.06-1.07-.8-2.13-1.87-1.46-.79-.8-.4h-1.06l-.67.26-.26.67-.27.93-1.2 3.59-3.72 8.65-30.74-31.53 29.41-93.15-14.38-16.5-1.46-1.2-5.85-3.19-14.64-5.32-6.92-2-7.72-3.32-4.12-2v.4l.39 8.25v20.09l-.39 2.8-1.33 3.72-1.2 2.66-.8 1.6-50.17-18.76.53-6.66.67-5.85 2-7.58.26-1.73 1.47-7.19-.14-2.13-.26-3.33-1.73-11.57-.4-3.99-.4-3.33-1.07-4.39-.4-3.59-2.79-3.06-1.46-1.87-2.4-3.32-7.32-11.58-2.13-3.59-.66-1.6-.67-2.39-1.46-6.92-2.66-8.79-3.86-11.71-1.6-3.46-1.06-1.19-1.2-1.07-.93-.8-3.06-1.86-2.66-.66-3.6-.27-13.57-.27-4.52-.26-17.3.26-1.2-6.52-1.46-7.31-.54-1.87-1.46-3.46-3.33-5.98-3.72-7.06-1.33-2.13-2.4-2.92-1.99-1.73-5.06-3.86-1.2.53-1.46.4-1.6.27-3.59-.14-3.33-.66-3.33-.8-3.06-.8-.4-5.32-.4-1.47-.53-1.59-1.46-2.13-1.86-2.13-.94-1.33-.66-1.6-.27-.93-1.73-13.04-1.19-7.58-.14-2.27v-2.52l.4-1.47-.13-1.59-.27-1.87-1.33-7.18v-1.07l.53-1.73 1.07-1.99 1.6-2 3.06-3.06 1.46-2 1.33-2.66 1.73-4.79 1.33-4.52.53-2.8.67-7.45.93-14.77.4-1.19.66-1.47.8-1.06 1.6-1.07 1.6-.4 7.85-1.33.66-.26.4-.27.27-1.73-1.33-9.98-2.66-16.23-34.2 13.97-4.66 5.85-19.03 32.2.53 1.6 1.07 2.26 4.66 8.65 1.19 2.66.54 1.73.26 1.6-.13 1.86-.8 1.87-1.46 1.46-4.93 2.93-3.72 2.79-1.87.93-1.86.27-3.19-.8-4.79-2-2.93-1.06-1.73-.13-2.53.93-2.13 1.46-1.46 2-.93 3.06v6.12l1.33 15.57-16.9 1.86h-1.6l-.93.13h-.4l.27-3.72-3.73-.27-2-.13-1.73.13-1.99.27-6.12.93-4.53.67-3.32.39-2.93.14-2.13.13-2-.13-2.66-.4-11.31-1.47-6.52-1.06-3.59-.67-6.39-1.06 2.66-17.43.54-3.73 1.19-7.85-7.32-.66-6.92-.27h-5.85l-3.33.13-2.53.14-1.86.13-10.11.53-2.4.27-4.12.26-3.99.54-16.5 1.73-13.84 1.33-3.06.4 5.58-39.92.8-6.39.67-6.39.8-9.04.4-7.46.26-6.78.14-2.4v-8.78l.39-2.26v-3.33l.14-4.26v-4.52l.13-2.53v-2.79l.13-2.4.27-2.13.13-1.46.27-1.86.4-1.73.26-1.47.27-1.06.4-1.86.66-2 .54-1.6.66-1.73 1.07-2.92 1.33-2.53 1.73-3.73 1.86-4.12 1.2-2.8.53-1.33.53-.8.67-1.73-1.73-.93-3.86-2.53-3.33-2.12-8.51-4.93-2.27-1.33-4.12-2.53-2-1.06-.4-1.73-3.32-12.78-6.39-15.96-3.46-8.78-3.99-10.25-5.99-14.11-2.53-6.12-8.65-20.89-3.46-7.58-6.12-15.17-5.72-13.84-6.39-13.57-34.86-57.09-4.26-11.17-9.85-14.91-4.79-9.58-8.65-21.69-3.06-11.04-1.73-6.79-3.06-19.16-2.39-21.42.26-4.79-.93-1.33-.27-5.32.4-2.93-1.33-10.78-.79-9.05-.8-13.44v-1.86l-.54-22.22-2.52-43.51-1.6-19.16-3.33-51.5-.66-10.78-.93-14.23-.8-7.72-.4-12.24-.8-4.79-.27-3.86-.79-4.53-2.4-9.44-2.79-9.98-7.32-18.77-5.06-10.51-1.2-2.26-5.99-12.91-6.78-15.03-3.99-21.16-.27-26.88v-19.03l-.4-8.64-2.53-11.85-1.33-8.51-4.12-10.25-7.46-15.7-3.59-5.59-5.45-9.18 1.46.13 5.85 1.33 2.67.8-7.59-10.11-6.52-9.45-7.45-11.18-1.2-1.86-3.59-7.85-1.07-2.53-.13-1.73h.27l1.73-.53 1.99-.4-1.19-5.72-3.07-16.63-2.12-13.31-1.6-8.65-3.73-22.22-3.19.53-1.33.27-.53.13 1.33-17.03 2.13-23.69 2.13-15.7 3.19-23.15.26-.67v-.79l2.67-16.5 4.65-21.03 1.2-9.44.53-2 5.59-29.67.53.4 1.73.66 2.93 1.6 2.66-6.92 2-5.59 2.39-9.98.8-5.06.27-6.65-.13-6.12-.67-7.19-.8-6.65v-1.73l.53-6.12v-4.26l-.13-3.19-.66-5.86-1.73-12.5.13-.54 1.06-4.79 1.73-4.12 2.53-4.66 2.66-4.52 1.87-2.13 1.19-.8 1.6-.8 1.33.13v-7.18l-5.19-.13-9.31-.54-1.6-.13-2-.27-1.46-.13-1.86-.26-1.07-.27v-.4l.27-1.46.13-1.6.27-1.73 1.6-4.39 3.06-8.52 6.25-13.7 1.33-4.53 1.46-5.72v-.66l.8-7.32v-8.92l-1.06-12.64v-6.92l-.4-5.19-.67-13.44h-.53l-4.39-.66-.13-5.19-.14-4.66-.13-4.52.13-2.13-.53-2.53-.8-1.73-2.52-3.59-2.8-3.99-1.6-2.27-3.86-4.65-1.86-1.47-3.19-1.99.93-3.99.13-.54.4-2.52v-.67l.14-.93.26-2.13v-.13l.13-.54v-1.19l-.26-1.2-.4-3.19-.4-2.4-3.19-14.64-1.6-6.92-.93-1.73-2.26-3.32-1.47-3.2-.53-1.99-.4-3.73.27-2.13.26-2.66-.13-1.86v-2l-.67-3.86-1.73-10.64-2.66-15.44-.13-2.52.13-1.47.54-2.92.39-2.4 1.07-3.33.53-1.19 6.92-14.24.53-1.07.93-2.26 1.6-3.06.27-.93.26-1.06.8-3.46.27-2.13v-2.66l-.53-3.73-.14-.93-.26-1.86-3.2-10.25-3.59-10.65 1.06-.26 2.13-.93 1.07-.14 1.33-.4 1.73-.26 1.06.13 1.6.67 5.19 3.99 2.66 1.33 2.4.13.4-.13 1.19-.27 2-1.19 2-2 1.06-.8 1.86-.93 4.93-4.26 1.73-1.33 1.19-.8h.54l.66-.13 1.47.53 1.19.27 2.13-.27 2.13-1.06 2.26-1.86 1.47-1.6 1.59-.67 1.2-.8.8-1.46.4-2 .93-1.86 2.53-2.93 2-2.12-1.73-2.4-.54-.53-2.39-2.26.66-.8.67-.4 3.06-2.66 1.6-1.6 3.99-3.46 9.31-8.25-.4-1.06-.4-1.47-.13-2.53-.13-3.59.26-2.66v-1.73l-.26-1.06-.53-.4-.8-.27h-.93l-.94-.4-.66-.66-.8-.27h-.4l-1.33.67-1.33 1.06-2.93 1.6h-.8l-2.12-.93-.94-.27-1.59-.8-1.07-1.73-.26-1.2v-3.46l-.14-.79-.4-1.07-1.33-1.86-1.86-1.07-.8-.26-.93-.53-.8-1.2-.13-.53-.67-1.6-.13-.8 3.99-.27 5.86-.39h8.78l6.92-.14 15.97-1.06 21.55-1.47 4.66-.79 3.2-.8 10.24-3.86 4.79-2.8 2.8-1.99 1.73-1.47 9.05-8.11 10.77-10.25 8.92-9.05 1.6-1.73 6.65-5.05 8.12-4.53 8.65-2.66 11.17-3.46 5.46-.8 10.11-1.86 2-.66 3.33-.94 4.39-1.73 4.92-2.52 8.78-4.93 4.53-2.52 4.12-2.13 4.93-2.93 4.52-3.06 4.66-4.26 4.52-4.79 6.66-7.45 2.52-2.8.8 1.87 2 2.13 2.39 1.73.54-.54 1.19-.66.67-.67 2.39-3.99 1.34-.66.79-.4.8-.54 1.6-1.33 1.73-1.19 1.99-.54 4-.13.4.13 1.33.4 1.33.54 1.46 1.19 1.33 1.2 1.73 2.93 2 3.72h-1.6l-2.26-1.06-.53.13-.27.4-.13.4.66 3.33 1.07 3.59v1.33l-.14 1.33-1.19 3.59-.8 2.27-.14 1.59.14 1.47.26 1.99.14 2 .4 2.39.13.93-.67 2.4-.66 3.46-.27 1.46-.13.93.4 2.27.8.79.93.27h.66l.8-.4 1.07-.8 1.19-3.72 1.47.93 1.06 2 2.4.39 2.39.8 6.26 2.8 3.72 1.59 3.6.94.93.53 1.33 2.39.4.67.8.4 1.73.53h1.06l1.73.93 2 2 1.59 1.33.4.13.4-.13.4-.4.4-2 1.33-4.39.67-1.33 2.26-3.33.8-1.99v-1.33l-.14-1.47.27-1.86.93-1.86.27-.8.53-1.2 1.33-1.33 1.2-.8 1.2-.66.93-1.33 4.26-5.86 5.45-4.65 4.79-3.6 1.47-.26 1.33-.14 1.99.54 2 1.19 2.66 2.66 5.72 7.19 10.65 8.25 10.78 10.11 1.19.8.67-.13.13-.14.4-.39v-.8l-.53-.93-9.72-10.52-5.19-5.19-4.52-5.98-1.33-2.13-1.46-1.73-2-2.13-1.06-1.07-1.07-1.19-2.13-3.73-.4-1.46-.26-2 .26-1.99.53-1.2 1.6-1.47 2.53-2.92 2.53-2.66 2.13-2.4.53-.8v-.8l-1.07-3.46-.93-3.99-.4-2.79-.13-1.6.53-2.79.27-.8 1.2-.8 1.73-.67 1.73-.26h1.73l2.26.13 1.46-.26 1.6-1.2.8-.14.8.4.66.54 4.66 8.65.66 1.99.94.4h.79l1.2-1.33 1.33-2.26 2-2.53 1.46-.8 2-1.33 6.52-7.45 1.2-.8 2.39-1.33 5.19-1.2.67-.4 1.06-2.66.93-.8 1.87-.13 1.33.13 1.33-.53 1.86-1.86.8-.53 2.93-1.6 3.72-.8 4.53-.53 1.06-.4.53-1.06.67-3.2.66-2.66.4-.53.67-.13h.93l1.86 2.52 2.93.67h2.66l1.47-.4.66-.4.4-.8-.67-1.33-2.92-3.33-.4-.79-.53-2.13.39-1.2 1.73-2.13 4.66-2.93 2.93-.4 1.2-3.06 2.13-2.92 4.25-3.46 4.4-4.13 2.66-.53 1.59-5.32 3.46-7.06 2.4-3.99 1.73-2.13 1.73-1.33 3.59-3.19 3.46-.53h2.8l3.72 1.06 2.13.93 8.25 6.26 2.8 1.59 2.66 1.6 3.59 1.2 1.6 1.2 3.06 1.06 1.99 1.6 1.47 1.33 1.86 1.73 3.33.26 2.39-.26.27-.14 1.06-.13.4-.13.27-.8h1.2l.79-1.06h.67l.66.53 1.07 1.73 4.12-1.33 4.13-.27 1.46.27 2.4.4 2.79.26 6.39.67 2.53.53 1.33.27 3.33-.54h1.19l4.13 1.07 5.99.93h2.66l2.39.27 1.33.13 1.33.53 1.47 1.2.93 1.2 1.46 1.06 1.47.13 1.06-.79 1.86-1.73 1.73-1.73 2.8-3.86.8-1.6.53-.27.4.14.53 1.19 3.19 4.8.94.79 4.52 2 1.07.66 1.06 1.47 3.46 8.91 1.33 2.53 1.06 1.2.67 1.33.27 1.33v1.73l.13 2.13.27.93.26.8.53 1.2.67 1.06.66 2.26.54 2.66 2.26 5.33 1.33 2.26 1.86 2.39 2.8 2.67 3.19 2.79 1.2 1.86 1.46 3.06 2 2.66 2.39 18.37.8 2.79 3.06 11.84 1.07 3.06.4 1.87.4 2.26.26 2.53.53 2.39 3.73 11.45 4.52 13.17 5.46-2.4 4.66 19.96 10.24-4.52 11.18-4.79 9.72-4.13 2.52-1.33-1.86-13.17-2.26-12.77 1.46.53 1.33.53.8-1.6 1.2-1.46.13-.13 1.6-1.33 4.52-4.39 2.53-2.4 1.33-1.46.27-4.53v-5.32l-16.1-3.33 26.48-17.43 11.71 8.12 5.32.13 11.58 13.44 12.37-12.64 1.33-1.33 5.33-4.66 1.86-1.19.4-.27 7.98-5.32 7.59-5.06 4.52-3.33 1.86-1.19 4.4 7.45 7.45 13.44 1.59 3.19 2.4 6.25 4.66 11.71 3.86 9.72 1.86 4.26 3.19 5.85 3.2 5.32 1.19 2.26 1.47 3.2.66 1.73.8 2.53 2.8 8.65 3.59 11.44.93 2.93 1.86 5.58.93 2.93 3.33 9.32.67 2.13 4.39 11.44.26.53 2.13 5.46 2.8 6.25 1.33-.53 2.13-.4 1.59-.13 2.93-.14 3.46.54 3.19.53 5.59-.4 2.27-.53 5.19-.4 3.46-.8 1.99-.4 1.07.13 1.86 1.33 4.52 2.93.4 7.32 1.47.93 9.04 7.45 3.07 2.66 5.58 5.06 3.2 3.46 4.79 8.91.93.54 2-.54 2.26-1.86.4-.26 2.26-1.34 3.06-.13 2.13.53 1.46.4-.4-3.06-2.92-22.75-.27-1.6-.13-1.06-5.33-11.18 30.74 1.46 7.85-30.2 2.8 12.91 6.52 1.73 10.51 3.06 1.2 7.05 2.79 19.03-.13 1.73.93 4.79-2.93 2.13-1.19.93-8.25 4.39 2.92 1.33 7.72 3.59 20.89 9.71 1.07.4.8.4 23.68-3.86-.26 1.34 1.86.13 1.46-.13h1.2l1.46-.14 2.27-.13 2.66-.27 5.05-.53 1.87-.13 1.59-.14 1.6-.13 1.33-.13h4.39l1.47.13h1.19l1.2.13 1.2.14 1.46.26 1.6.27 1.86.27 2.13.53 1.33.26 1.47.4 1.59.27 1.73.4 1.47.4.66.13 1.47.27.93.26 1.06.27.67.13 3.32.67-.13 1.46-.26 2.4-.27 1.46-.67 6.79-.93 11.84-.13 1.33-.8 10.25-.66 8.51v1.33l-.4 4.53-.14 2.39-.26 5.32.13 3.86.93 11.18.53 4.79.94 8.78 1.19 9.58 1.2 8.12.13 1.6 1.73 14.5.8 7.98.27 3.06.13 1.87v2.92l-.13 4.53-.8 11.58v.39l-.67 6.66-.26 1.99-.8 10.25-1.06 13.31-1.47 21.15-.93 11.45-.13 1.99-.8 10.91-1.2 13.97-.13 14.11-.4 5.32-.4 3.19-.4 3.07-.8 3.32-.93 3.99-1.06 2.93-.27 1.07-.53 1.59-3.2 10.25-3.86 12.11-1.72 5.32-2.67 7.58-.79 2.27-2.93 6.25-3.86 7.72-2.93 4.92-2.39 3.06-3.33 3.33-2.13 1.86-4.66 3.46-3.72 1.73-9.58 3.73-5.59 2.26-4.13 1.59.53.54.94 1.06.79.67.8.8.93.79 1.33 1.33 1.34 1.47 1.19 1.06 1.73 1.6 1.2 1.06 1.33 1.33 2 1.87 1.19 1.06 1.07 1.07 1.06.93 1.07 1.06 1.06.93 1.2 1.07 1.2.8 1.46 1.33.93.8 1.2.79.27.14.93.66 1.33 1.07 1.33.93 1.46.93 1.33 1.06 1.34.8 1.59 1.07 1.86 1.19.94.67 2.92 2.39 2.67 1.47 1.99 1.06 1.07.67 1.33.8 3.59 1.99 1.6.8 1.73.93 1.99 1.07 2.66 1.46 2 1.07 1.86.93 1.87.93 1.59.8 1.87.93 1.86.8 1.86.93 1.33.66 1.73.8 1.33.67 1.87.8 2.39.93.53 3.72-61.21 35.26-3.33 2 4.8 20.62 21.15 90.89 7.59 57.75 1.99 15.83-6.12.27-.8.4-1.73.66-.13.27-.26.13.79 7.98-2.79 3.86.13 2.4.4 1.33.13 1.46.27 1.07 1.2 5.32 16.63 1.06 1.6 1.07.8.26.53.27 1.86.67h2.13l7.59-1.2 1.19-.27h2v.93l.13 1.47v5.98l.27 1.33.66.8 1.07.14h3.73l1.59-.14.53-.13 7.06-.67 2.79-.13 12.38-2.39 2.52-.4 4-.14-.27 1.87-.93 1.73-.67 1.33-1.73 1.06-.79 1.6-.27 1.73-.13 1.33-1.33 8.25-1.33 18.1-3.33 22.08-.4 3.06-.53 1.87-2.27 7.18-1.73 6.92-1.33 5.72-.13 3.06-5.06-3.06-2.79 1.87-10.51 7.18-7.45-1.06.4.4.79 1.06.93 1.47 3.2 7.18 1.99 5.59 4.4 9.45 3.32 7.85 2.93 5.32.67 1.2.93 1.33.4 2.26.53 2.4.8 2.79.26.53 3.33 3.59 2.13 3.73 1.86 3.99 1.6 3.2.66 1.06 2.27 3.46 2.66 3.73 1.46 1.73.8 1.72 1.06 5.73.67 1.86 1.06 2 .4 1.33.27 1.99.93 2.4.67 1.46.4 1.86.66 1.6.93 1.73.67 2.93.4 1.06 1.06 1.6.93 1.2 1.2 2.66.67.93.39.4 1.34 2.26 1.19 1.6 1.87 2.79 3.86 7.05 1.59 3.33.4 1.46.53 2.27v.26l1.2 3.46.13.27 1.33 1.06 2.93 3.46.93 1.47 1.2 3.32.4 3.2v6.38l-.4 18.5.13 2.93.27 3.85 2.13 8.65.13 1.2.67 4.92 1.06 5.99 2 12.78.53 5.59.27 1.86.66 1.86.53.67.8 1.19 4.26 5.19 13.71 16.5 5.72 7.19 1.86 3.86.8 3.86.53 4.65-.26 2.13v.4l-.14 1.86-.79 4.26-1.2 7.85.26 4.26 1.07 5.32 1.99 7.59 1.34 8.38.39 5.59v5.46l-.13 4.25.27 1.87.66 1.99 1.47 1.73 3.06.67 3.59 1.19 2.13 2h.13l.93 3.06.8 3.33.27 2.79-.93 5.86-1.2 2.13-3.19 3.72-2.53 5.19-2 4.66-4.79 15.97.27 2.66 1.19 3.59 3.33 4.12 5.99 10.92 3.99 6.38 2.4 4.66-17.83 10.38-5.19 3.46-5.59 3.59-2.8 1.33-1.86.8-8.12 2.26-6.39 1.6-17.56 5.32-6.39.93-1.46-.13-4.79-.67-17.7-3.06-8.38-1.59-10.52-2.53-20.75-4.39v-.67l-.14-.13-.26-.4-.27-.4-.13-.4-.27-.8-.13-.4-.13-.39v-.4l-.14-.67v-1.33l-.13-1.46v-.4l-.13-.54-.27-2.26-.27-2.13-.26-1.19-.14-.8v-.67l-.13-.8v-.66l-.26-2.93v-.53l-.14-.67v-.53l-.13-.8-.53-2.92-.67-3.73-.4-2.53-.13-.93-.13-.66v-.8l-.14-.54v-1.99l-.13-.67-.27-3.86-.13-.79v-.54h-1.73l-1.06-.13-1.07-.13-1.2-.27-.66-.13-.8-.13-.8-.27-.66-.27-.93-.26-1.2-.4-.93-.4-.8-.4-2.8-1.6-3.32-1.59-.54-.27-.66-.13-.8-.27-.8-.27-.8-.13h-1.99l-4.79.53-.67.14.27 1.19 1.33 5.73.26.93.27 1.06 1.2 5.19.8 3.06.26.93 1.33 3.6 1.2 3.59.4 1.06.53 1.6-.4 2.26-38.85 81.57 12.37 15.04 2.93 3.32 5.86 6.52 13.97 16.24 8.11-9.72 3.86 3.99 1.87 1.47 1.73 1.2 2.92 6.65 3.6 7.05 1.19 2.93 1.47 3.99.53 1.73.93.93-1.73 2.13-9.18 11.44-23.15 29.01-1.73-2.13-1.07-1.46-5.45-6.26-9.32-11.04-11.44-14.5-5.72-7.19-1.6-1.86-1.07-1.33-1.59-2.53-3.99-7.19-2.53-4.39-2.26-5.32-3.86-9.18-1.47-3.59-3.99-9.72-2.53-5.59-1.2-2.52-6.92 5.85-3.85 3.33-7.86 6.38-3.59 2.8-11.31 9.85-.26.26-11.58 9.45-1.47 1.46 14.64 17.83-2.66 1.6-2.66.8-2.8.53-1.99.8-4.39 3.72-2.53 2.93 3.86 2.93 5.85 5.72 1.6 1.73 3.46 4.92.93 1.73.53 1.6.4 2.26.14 1.6v1.6l-.94 13.04-.93 5.98-1.06 5.06-.4 3.99.27 2.66.53 2.93 3.99 15.57 3.19 12.91 1.2 3.99.93 2.39.67 2.27 1.59 3.59 2.13 3.06 2.27 2.53 6.12 6.65 5.72 5.99 4.92 4.26 7.99 6.38 1.73 1.2 9.71 5.46 2.79 1.73 2.67 2.12 2.39 2.93 1.6 2.66 2.39 4 3.46 6.12 2 3.46 1.06 1.46 3.6 4.26 3.06 3.32 4.39 4.39 3.19 2.4 1.73 1.73 3.33 3.33 2.13 2.52 3.46 4.66 1.33 2 6.92 11.44 1.2 1.6.93 1.06 1.06 1.07 1.73 1.33 5.46 3.06 10.78 5.32 3.99 1.86 1.33.54 6.39 2.52 3.19 1.2 3.73 1.46 13.97 8.12 11.04 8.25 2.26 1.2 1.87.93 3.86 1.2 10.24 2.26 3.33.67 4.39 1.73 6.39 3.46.4 1.72 1.06 3.2.4 2.26.53 2.26.54 1.73.13 2.26-.4 2.13-1.46 2.66-.54 1.2-2.39 3.33-1.33 1.6-1.33 1.33-1.07 1.19-1.46 1.2-2 .8-3.46.4h-2.53l-1.33.8-2.92 1.06-2.67.53-2.39.27h-5.06l-1.86.67-2 3.06-1.33 4.79-.26 2.66-1.2 1.73-5.99 3.59-5.59 2.13-5.05 2.93-3.86 1.73-9.98 4.39-8.39 2.39-3.06 1.33-2.92 2-3.07 2.13-2.26 2.53-4.26 3.06-2.26 1.19-1.33 1.07-1.86 1.99-1.07 2.27-1.86 2.26-2 1.33-2.39 1.33-2.26.53-2.8.4-1.46 1.07-1.33 2.26-1.73 1.73-.13 2.26.26 1.86 1.33 2.66 1.73 4.13.67 3.46.13 2.13-.13 2.13.13 2.52.67 1.87 1.73 2.66 4.79 8.25 1.59 3.19 1.6 2.4 1.06 1.19.94 2.27.93 3.99.4 4.26-.14 2.26.14 11.18-.4 3.19-.67 2.13-6.12 12.77-2.26 4.93-.4 2.79-1.33 3.46.53 7.45.8 2.53.13 5.45-.4 2.67-1.19 4.39-8.25 13.17-4.93 5.59-5.85 6.25-3.73 4.66-16.63 10.25-5.72 2.92-6.66 1.73-7.32 2.53-8.78 8.12-5.19 7.05-1.86 4.39-2 5.19-.8 2.4-6.65 8.25-5.06 5.85-7.18 9.85-9.85 19.69-5.99 9.18-5.45 9.72-.67 3.19.14 2.26.53 2.93.93 1.33 2.13 2.66 4.12 2-2.92 159.01-.54 7.98-.26 7.85-.27 3.46-.66 9.45 1.19 8.51-.13 8.12-2.53 4.92-1.06 2.53-.53 1.2.39 5.19-1.19 6.52 3.59 6.65.4 2-1.6 2.39v1.73l.93 3.06.27 3.46-.93 2.13v1.47l.66 1.19.93.27 2.27-.53 3.46-2.93 1.59-.13.54 1.46.26 3.19 1.47 3.06 1.86 5.59.26 2.8-.53 1.33-3.19 4.52-5.99 5.99-2.13 3.06-.66 3.46v3.19l-.4 2.53-1.47 1.73-3.32 3.46-2.4 3.99-.8 3.73-.26 2.39-2.66 2.13-1.6 2.4-.93 2.26-3.99 9.05-4.13 8.11-1.2 3.2-1.46 4.12-2.4 3.06-3.06 7.85-2.13 2.13-1.59 2-2.53 3.59-1.6 3.33-1.46 4.92-1.73 6.52-1.6 3.06-3.19 4.13-1.33 1.86v2.53l.53 1.46 4.26 2.8.93.79v1.34l-.27 1.19-.93.14-1.6-1.07-1.86-.53-2.39-.13-1.87 1.06-2.13 2-3.85 6.65-1.87 2.39-1.46 2.27-1.2 2.39.13 2-.53 1.33-1.59.4-1.6.13-1.86.8-1.34 2-1.46 4.12-1.73 2.53-1.46 2.39-.67 2.93-.4 2.93-.26.66-.54.93-2.92 2.4-1.6 2.26-.67 2.13.14 1.86 1.59 2.93 4.8 5.06.39 1.73-.26.8-.93-.14-2.27-.66-2.79-1.07h-2.93l-1.99 1.07-2.13 1.59-1.73 2-1.33 2.93-1.33 3.72-.8 3.86-1.07 3.06-1.33 2.13-1.99 2.8-1.87 3.46-.66 1.19-.4.8-2.13 1.86-2.79.54-3.86 1.46-4 3.46-.66 1.86v2.4l1.33 2.66 2.4 2.39 6.78 5.73.27 1.33-.8.4-2.53-.27-7.32-2.26-2.26.66-4.92-1.59-2.13-.54-2 .94-4.12 3.19-1.6 2.13-1.73 3.06-.4 2.13.27 3.06.26 1.73z" stroke-linejoin="round"/></defs><use xlink:href="#d" fill="#9dc8ca" stroke="#9dd7f0" stroke-width="5.76"/><defs><path id="e" d="M308.32 1895.08l-19.69 2.26-3.46.4-7.86.8-6.12-13.98-.79-1.99-.14-1.07-.26-1.86-.4-9.18v-.53l.13-.53.53-2.93.14-1.6-.14-.66v-.54l-.26-.66-.67-2.4-3.86-11.04-1.99-3.86-.27-.53-1.07-1.07-1.33-.93-1.19-.53-.54-3.46-.79-3.06-5.33-4.39-3.59-2.66-1.06-.54-1.2-.39-4.13-.8-2.66-.4-77.58-25.42-.66-2.26-3.06-6.12-2.53-4.66-11.05-22.48-1.06-2.93 15.83-2.4 12.38-1.33 12.51-1.73 10.78-2.13h.66l3.99-6.12.94-1.73.53-1.46v-1.2l-.8-2.39-4.39-11.05-35.8-71.05-6.92 4.39-2.92 2.26-2 1.2-2.4.8-.79-.14-.4-.53-.27-.8-1.73-7.32-1.06-4.79-.54-4.12-.79-2.66-.4-1.07-.67-.93-2.39-2.26-10.78-8.78-.93-.53 3.72-41.52.13-1.73-.53-7.32-.4-3.33-.53-4.65.8-13.31.27-2.26-21.43 9.05-2.53 1.46-6.25 2.4-1.2.53h-.66l-2.4-12.91-4.92-27.68-2.4-11.17-1.73-13.71-.8-4.79-.53-2.53-1.2-2.79-2.39-4.92-.53-1.33-2.27-4.4-1.99-2.66-8.39-10.24-3.45-4.93-2-3.86-2.4-5.58-8.91-23.16-4.66-11.44 26.88-6.12 16.37-3.33-9.32-68.66-10.51 1.2-7.85.93-3.86.53-5.85.67h-2.67l-8.51-.4-3.86-.4-3.46-.4-1.2-.26-.4-7.32-.13-11.18v-1.2l-.13-3.46-.4-2.26-2.66-12.11-.67-2.39 1.86-1.07 6.79-3.06 3.33-1.6 7.45-3.45.8-.4 1.33-.67 9.31-4.66 6.26-4.12 6.38-4.92 6.52-4.93 5.86-4.52 3.99-2.93 1.07-.8 3.19-2.26 2.53-2 5.32-4.25 1.2-1.2 1.46-1.6 1.33-1.99 1.73-3.06 1.6-3.33.53.4 22.76 11.97 78.64 15.57 30.21 5.72 8.51-64.66 1.6 2.26 1.46 1.46 1.73.67 1.6.26 1.06.27 1.47 1.46 4.52 6.26 2.13 2.26 1.2.93 1.06.66 2.53.94 3.06 1.33h.53l.94-.27.4-.27.93-1.46 1.46-3.46 1.07-1.86.66-1.6 1.46-2.79.67-.8.8-.67.8-.53 2.52-.66 1.07-.54.66-.79v-.67l-.39-.8-1.2-1.2-.67-.93-1.99-3.86.8-1.46.66-.93.67-.8.93-.66 2.39-1.87 2.8-1.46 6.38-1.46 2.4-1.2 1.86-.8 1.47-.8 1.19-.4 4.53-.4 5.32-.93h3.19l1.34-1.33-2.53-14.77-1.07-9.18-1.2-8.25-3.32-17.03-1.6-13.31-5.06.27-8.38-.14-7.05.14-8.38.4-14.38 2.13-6.12.79-.53-5.05-.27-1.2 5.99-2.26 15.04-5.72 13.97-5.33 11.84-4.52 2-.67 13.84-5.45 3.86-1.33 11.97-4.53 14.91-5.19 2.26-.66-.27-1.86-.39-2.53-1.6-12.11-1.2-7.19-.13-1.73.13-.93v-1.99l-.53-4-1.73-4.79-1.2-5.85.53-6.25 1.47-4.13 1.86-1.86.67-1.6.66-2.53 3.19-6.52.94-.66.79-.67 1.2-.66.4-.27 2-1.33.93-.93 2.66-3.59 2-3.46.66-1.73.4-1.47.8-4.79.66-1.99 2-4.26-.27-1.33-.79-2-.4-1.73-.14-1.86.27-2 .4-2.26.13-2.93-.4-1.73-.8-1.06-.53-.8-.26-1.6-.14-3.59-.93-3.19-.26-.8-.8-1.06-.8-.94-2.26-2.66-2.93-2.39-2.4-2.66-1.19-2-.27-1.2.53-2.79.4-3.46-.13-1.46-.93-2.4-.8-1.86-.27-1.73-.4-4.39.54-2.66-.14-1.6-.4-2.53.4-1.6.8-2.13 1.06-1.73 2.4-1.46 1.06-.26h2.67l3.59-.54 3.86.54.8.26 1.46.4 5.99 1.46 2.26.94 2.93.66 1.86.4h2.66l2.66-.53 1.33-.4 2.13-.67 1.47-.13 4.12-2.26 1.33-.8 1.07-.8 1.59-1.99.8-1.87-.13-.66-.13-.67-1.47-1.86-.8-1.6-1.73-2.53-.93-4.25-.53-1.33-.27-.8-1.46-2.13-1.46-3.59-1.33-4.53-.4-1.99-.54-1.6-.53-1.86-.53-3.6-.93-3.19-1.33-3.86-1.33-2.79-.67-2-.4-1.86v-1.33l.4-2 .53-.8.94-1.19 1.06-1.6.27-1.07.26-3.99.27-1.33-12.24-6.78-12.78-7.19-16.23-9.05-8.78-4.92-9.05-4.93-12.78-7.18-1.86-.8-4.79 12.24-2.13 4.26-.53.67-.8.26-.67-.13-1.99-.93-1.73-1.73-5.19-5.46-1.6-1.59-1.6-1.87-44.97-12.37-8.52-5.19-30.61-14.11-14.37 5.73-.66-3.73-.27-2.79-.26-2.8v-2.66l.66-8.38.93-7.99.67-5.32.4-5.99.4-2.26.66-2.79 11.18 6.25 5.85 3.33 11.98 6.25 6.25 3.19 8.26 4.93 1.99 1.06 1.47.8 5.58 2.93 13.31 7.98 14.51 8.25 11.04 6.12-3.46-25.41 8.12 8.78 4.39 3.73 1.99 1.46 4.66 2.53 2.66.93 3.6 1.33 5.72 1.6 2.66.13 4.66.27 3.46-.27 3.86-.67 3.32-.79 14.51-4.4 4.25-1.46 6.39-1.99 12.51-4.13.4 9.18.13 1.6.4.93 1.07.93.93.53.8-.13 1.73.13 4.12-.66 4.53-1.73 5.85-2.13 1.86-.67.54-.26-5.59-11.84 2.79-.4.8-1.47h1.73l5.19-6.25-1.06-1.33-2-1.87 9.31-7.98 1.2-1.46.67-1.07.53-1.33.27-2.79.53-5.32 1.33-12.91.13-1.47 1.47-10.37-8.65 2.26-40.06 7.32-1.86-.67-3.46-2.26-3.59-2-2-.53-3.06-1.46-1.2-.93-2.39-1.2-2.27-.8-1.33-.4-.93-.27-1.06.14-1.33-.14-1.6-.13-1.86-.53-2.13-.8-.53-.53-.27-.53-.13-.67v-.66l.13-.54 2.13-4.25.8-1.47.26-.66 1.07-1.47 1.6-1.99.13-.14 1.86-3.19.8-2 1.73-3.32 1.06-1.47 1.6-2.66 2.53 1.33 3.33 1.73.53.4.53.8.27.67.13.66 2.53.93 10.11 2.4 12.91 2.26 13.44 2.66 10.38 2.13 2.79.67 8.25 1.19 8.52.27h16.1l7.45-.27 1.47-.13 1.73-.4 1.59-.66 2-1.6 1.2-1.33 1.19-1.6.54-1.2.79-2.52 1.34-5.19 2.52-9.19 5.86-21.55-6.65-2.53-2.13-.66-1.73-.54-2.53-1.46-2.4-6.92-1.86-7.32-1.86-7.72.53-.4-.8-2.79-.53-1.46-.93-3.06-2.4.93-1.46 2.39-2.4 3.99-2.53.67-1.19.27-7.19 1.33-9.71.93-1.6-13.84 13.57 2.79-4.79-2.66-8.11-8.25 11.97-1.46 12.91-1.46 1.6-.4 3.32-.67 1.73-.66 1.73-.8 1.33-.93 2.4-2.67 1.06-1.59 5.33-7.72 6.25-9.31 8.92-13.18 8.25-12.9 8.38-12.65 2.79-4.12 2.53-3.99 3.06-4.66 11.18-17.03 2.79-3.86.94-1.73.66-1.33.53-1.33.4-1.2v-.8l.14-.4.13-1.33-.13-1.46-.14-1.6-.53-3.46 9.05.27h1.73l2 .53.66.4 1.86.93 1.33 1.87 1.2 1.46 3.99 3.06 2.8-3.59 1.99-2.13 2.93-2.53 8.12-5.72 3.19-2.4 5.06-4.65 2.26-2.27 7.19-7.58 8.25-9.32 3.19-3.72 2.93-3.19 2.93-3.2 1.59-1.73 3.73-3.99 3.99-4.66 3.99-4.52-21.82-12.38 5.72-17.69 11.05-1.6 4.79 5.72 1.46 1.86 10.51 11.18 22.09 23.02 1.6.53 2.26 1.6 3.86 4.52 4.26 5.73.53 1.19 23.69 25.29-.67 2.66 7.05 1.73 8.65 28.21-3.86.4-3.99 1.59-25.55 11.05 5.06 17.16 3.46 11.71 4.39 15.3 2 5.86 1.46 3.99 19.03-13.71-2.79-6.78-4.8-9.05v-.53l.27-.27 56.29-8.38-1.86-9.72 12.64-1.33 11.97-1.33-3.32-24.48 3.46.27 15.43-1.6 3.73-.67 5.32 2.27 3.73 2.66.8 2.92 1.46 1.73 4.39 5.86 3.46.8 2 5.99 2.79 13.57 1.2 5.99 2.79 9.84 2.13 5.72 9.72 17.44 4.25 11.97 1.87 7.32-.93 5.32.66 6.52.4 2.93.27 1.33 5.19 17.03 2.66 8.78 3.86 10.78 10.51 29.28 2.13 5.98 5.19 13.44 1.06 1.73.67 1.07 1.46 1.33 4.79 1.86 1.6 1.2 1.06 1.73 2.27 6.38 2.39 4.8 2.13 3.19 1.73 2.26 2.13 1.46 4.66 3.46-.14.94-1.59 9.04-.67 3.6-2 .13-.13 2.39-.66 7.72-.27 6.26v8.51l.13 2.4-.13 2.66-.4 3.46-.66 3.99 2.26.27.93.13.4 14.9.53 13.71v5.72l-.4 4.39-.66 3.46-1.2 4.39 16.5 5.19 21.96-5.19 33.13-7.72 14.77-4.12 19.69-14.11 18.37-12.9.66-.14.93-.13.54 2.4v.26l.4 2.53.79 7.32.27 4.12.13.4.14 4.26 4.79 3.86 2.53 1.2 1.19.26h.54l1.33.27 1.33.53 1.73 1.2 1.46 1.06 2.93 2.8 1.2 1.33.13 1.33-.67 1.33-3.86 1.6-2.39 1.33-1.07 1.59-1.19 3.73-.14 2.66 4.53 27.41.66 5.06 2 15.43 1.73-.4 11.98-2.12v-.4l.39-.54 1.07-.4 3.59-.66 4.66-.93 2.53-.67 1.99-1.06 1.47-.93 1.46-1.47 1.2-1.73 3.46 3.06.66.67 1.73.4 50.3 31.8.54.8 2.66 2.53 8.91 9.04 2.4 7.32 5.32.4 1.33.14 16.1-2.13.27 5.72.13 11.31-.13 9.71.4 4.66 1.73 8.38.13.93.13.54.8 5.72.14 1.33 1.46 5.99 1.06 5.32.4 3.46-.13 4.26-.53 2.79-.93 3.19-1.2 3.06-2 4.4-2.13 3.99-.93 2.79-.53 2.8-.27 2.52v2.4l.14 2.26v.53l.13.67.53 2.53.93 2.39 1.2 2.4 1.6 2.53 2.66 4.52 4.26 7.05-4.79 2.93-4 1.6-3.06.79-2.79.14-2.79-.14-2.27-.26-2.39-.67-4.26-1.73-1.6-.93-6.25-4.12-4.39-2.8 1.59 4.39 3.07 6.52 1.46 2 1.33 3.59.8 4.13-1.2 2.39-.67 7.45.54 2.8 3.06 15.03 1.06 4.79 1.07 3.46 5.59 12.25 4.52-2.4 13.57-6.12 18.1-8.65 2.13 10.65 1.2 4.92 4.65 19.83 2.53 11.31.4 2.52.93 5.06 1.73 13.04 1.6 9.98.93 5.19 1.6 9.98.13 1.6.27 1.86.13.8-.4 1.19 1.47 11.05.39 3.59.14 1.6.13.66 1.73 1.73 1.46 1.47 2.8 3.32 3.86 5.46 1.06 2 1.6 2.26.13.13 1.73 2.53 2.26 3.19 7.06 10.25 6.92 9.18 3.59 4.52 4.92 6.26 6.39 8.38 1.2 1.73 12.11 16.5 1.99 2.79 3.73 5.33 1.33 2.52 1.06 2 .54 1.2.53.8.26.93-3.32.53-2.66.53-3.73.53-.8.27-4.79.93-11.84 16.64-6.12 6.12-8.78 5.05 4.12 23.55-6.12 1.07-2 .8-3.06 1.33-2.26-7.59-.67-3.72v-1.07l-.39-1.73-.67-1.86-.53-1.06-.4-1.2-1.73-6.26-.8-4.65-.93-2.93-.4-1.46-.13-.54-1.73 1.73-5.33 5.73-5.85 5.98-9.71 10.25.53.66 1.2 3.2.26 1.86v.13l.13 1.73-.26 1.33-.53.8-.94 1.07-1.33.53-1.99.4-1.73-.53-1.33-1.33-.93-1.2-.4-.53-4.13 4.79-.26.13-2.4 2.39-3.59 3.06-.93.94-5.19 3.59-1.73.8-20.23 7.98-3.59 1.86-1.33.8-4.66 3.46-1.2 1.07-1.06.93-1.87 1.59-1.99 1.87-.14.26-8.91 9.85-12.11 13.97-.27.27-.26.26.53.54-14.11 16.1-3.72 4.39-6.12 6.65 1.86 2 2.26 2.53 1.2 1.99.8 1.86.66 3.46.14 3.73-9.45-.8h-1.07l-7.85.67-.93 1.06-1.59-.13-1.73.4-1.2.53-3.46 1.33-.53.4-6.26 2.79-3.72 2 2.79 15.17 1.86 11.18-3.46.66-1.73.67-1.73.93-.66.66-.53.8-1.2 2.26-.27.93-.26 2 3.59 19.43.8 2.13.66.93.93 1.06.94.8.53.27 1.06.26h.8l.27 3.2.53 1.59 1.46 4.53 1.47 3.46 1.19 3.59-1.33 1.86-.79 1.6-1.2 5.99-12.24 6.38-6.53 3.6-3.59 1.99-1.46-1.06-8.52-6.39-23.55 11.58-5.59 2.79-44.58 21.96-3.32-1.2-2.53-.93-1.73-.67-8.25-3.06-1.6-.53-2-.27h-1.06l-1.07.14-1.19.4-1.47.66-1.46.67-.4.26-1.86.94-5.72 3.06-4.66 2.52-9.18 4.79-2.66.94-2.13.26-2.13-.13-2-.8-.93-.53-1.07 2.26-2.12 3.46-4 5.06-3.72 3.72-1.73 1.73-1.33 1.07-2.66 2.39-1.33.8-1.87.93-3.19 1.07-3.46.66.66 6.92-.26 1.2-.4.93-.53 1.73-1.6 5.32-.4 2-.93 3.32-1.46 3.6-.8 1.33-2.13 1.73-2 1.73-.66.26-.8-8.11-.14-2.27-.79.14-5.33.13-1.86.27-2.13.53-5.05 1.99-1.6.8-1.86-3.86-.8-1.19-2-2.27-.66-.53-1.6-1.33-9.05-6.12-2.53-2.13-1.59-1.46-.8-1.47-1.73-3.32-.93-1.2-1.07-1.2-2.53-1.86-1.99-1.2-1.87-1.86-2.26-2.93-4.12-5.32-4.53 4.52-1.2 1.33-1.86 1.73-1.33-1.73-2.79-2.79-4.13-3.46-1.46-1.46-.54-.54-2.12-3.32-1.2-1.73-.93-2.13-.67-2.66-3.46-21.43-.8-2.39 5.73-4.92 1.33-.67 3.46-.53 3.19-.4-3.06-20.23-1.6-8.91-.8-2.66-2.92-8.65-.27-.53-.4-.4-1.33-1.07-.53-3.19-.8-3.19-2-7.06-1.59-7.85-.8-3.46-.53-3.19v-2.53l.13-1.73.13-1.06.13-.93.4-1.6.27-1.33.53-1.47.27-1.06.93-2.53.93-.66.27-.94-1.33.54-22.49 3.99-12.24 2.53-11.45 2.26 3.6 17.16 3.32 15.31 1.07 4.52-2.66 11.84-.54 2.4-14.37 4.26-9.71 2.79-12.78 3.73-25.81 7.45-1.73.93-.4 2.26.4.53 3.06 3.46 1.99 8.65 1.33-.13.54-.13 3.46 4.65 2.79 1.33 3.73 3.06 1.99 2.4 1.07 1.86 1.73 3.99 1.2 3.2 1.59 4.39.4.93.53 1.06.4.4.27.54-6.92 11.04-10.78 17.83-9.71-7.45-1.73-1.33-2.8-1.6-2.26-.66-.8-.14-2.39.14-4.53.53-7.98 1.2-3.33.93-.53.26-.27.4-1.99 1.33-3.46-6.25-3.73-7.19-2.66-4.25-.53-.54-.8-.53-1.06-.26-5.59 3.06-2.27-7.19-5.05-.66-9.05-16.64.8-2.53 2.53-5.18-1.73-1.34-2.27-.79-2.26-.54-2.13-.13-8.25 2 2 8.51-11.05 7.99-1.59-.67-1.47-.26-1.06-.14h-.27l-2.13-1.06-1.33-1.33-.66-1.33-1.73-3.2-1.6-2.92-1.46-2.27-.14-.26-1.06-.27-1.86.4-2.67.53-.93.14-.66-.14-4.93-2.53-6.65-2.92-.27 3.59v2.53l-.66 1.73-1.33.93-3.33.93-3.19.53-.8-.53-2.13-2.39-1.6-.94-3.19-1.06-7.58-13.31-.67.14-.67.13-1.06.66-.93.8-.53.8-.4 1.2-.8 3.99-.4 3.06-.27.4h-.4l-.26-.13-.27-.67-.4-4.12-.26-.93-.8-.94-3.59-2.12-1.47-.4-2.79.13-2.66.66-.54-.13-9.58-1.6-6.52.94-24.22-.27-5.19-.4-6.78-.4h-.67l-4.26.4-1.99.4-1.07 1.2-1.19 1.59-.4 1.47-4.66 10.24-2.8 5.33-6.12 11.84.27 1.46.27 6.92-.8 5.72-2.13 5.33-3.46 5.72-3.86 16.63-1.46 7.19-2.13 10.11-4 19.43-.93 4.25-5.85 25.55-4.26 19.96-1.2 5.19-.26 6.52-.14 3.99-.13 1.47-.27 2.39-.53 2.26-3.32 9.45-12.38 22.49-5.06 9.18-3.59 6.92-9.18.4-2.93-.67-2.79 1.07-5.06 2.39-5.46-1.2h-2.66l-5.72.4-4.52-.13-2.27 4.66-.26.66-.53.8-1.07 1.86-9.31 15.71-3.33 5.72-4.52 7.85-1.6 3.06-.8 1.73-.66 2.26-.67 2.66-.13.93v2.13l1.86 9.72z" stroke-linejoin="round"/></defs><use xlink:href="#e" fill="#6bacaf" stroke="#6bb4d2" stroke-width="5.76"/><defs><path id="f" d="M613.58 2837.82l-2 1.47-1.46.26-5.59.67-14.9 1.2-5.06.53-6.65.8-3.2.13-.66-.27-1.07-1.46-10.64-27.28-.67-2.53v-3.06l.67-8.38.66-12.91-.4-3.85-1.19-2.67-2.13-3.46-2.8-1.59-4.79-.27-4.52.67-1.07.26-8.11.4-9.85-1.86-3.33.53-8.51 7.05-2 1.47-1.46 1.46-2.53 1.6-3.86 1.2h-3.33l-3.86-1.07-4.65-23.28-21.83 3.99-4.79 1.99-1.46-9.31-.14-1.07-.79-3.72-1.33-4.39-.4-.93-.4-1.2-1.6-1.07-3.73-7.71-4.39 3.19-1.73 1.6-1.73 1.73-2.39 2.52-1.2 1.73-6.12-4.92-2.13-2.26-1.73-3.19-.8-2.27-.13-1.46.8-1.46 4.65-5.06.54-1.07v-.13l-1.87-9.45-6.92 1.07-7.58 1.33-11.04 1.33-13.18 2-1.06.26-1.2.8-1.2 1.2-.93 1.59-.4.94-2.53-19.56 3.86-17.97-1.73-9.84v-3.46l-2.93-4.13-6.38-1.73 8.38-29.14 3.59-15.97.14-.66 13.3-2.66-22.22-65.74-2.93-1.19-2.13-.93-2.13-.8-1.73-.4-1.99-.53-1.6-.27h-2.39l-2.53-.13-4.26.26h-4.92l-6.66 8.39-.26.39-4.13 5.46-1.86 2.53-6.26 8.51-6.12 8.65-5.98 8.79-4 6.12-16.76-8.52-29.54-9.05-11.85-11.97-6.25-3.2 3.99-1.99 1.2-.67 1.33-1.2 1.73-1.99 1.33-1.73 2.93-3.86 3.86-5.59 1.73-2.13.79-.93 2.53-3.19 1.47-1.73 3.32-3.46 4.93-4.79 1.46-1.47 4.39-4.25 6.39-6.39 1.99-2.4.67-.93.67-.93 1.46-2.66 1.06-2.53 2.8-9.05 1.33-4.12-.8-82.63-.27-15.97 15.71-13.44 2.39-1.73 21.43-15.57 17.69 13.44 4-2.79-3.86-6.92-3.6-6.52-4.52-10.52-.4-1.33-.13-.53-4.53-10.11 1.73-2.8v-.79l8.79-14.77 4.12-8.25 14.9-26.88 3.86-6.39 2.53-4.12.8-1.2 2.93-4.79.8-1.33 1.86-3.99.4-1.6v-3.06l-1.33-14.77-.4-5.06-2.53-31-2.53-18.36-1.73-21.16-.4-3.73.14-9.44.53-14.51-.14-7.32.27-1.86v-1.73l-.8-4.79-.13-2.13 18.63.4 4.12.13 9.98.27 5.59.27 3.46.13h2.8l2.26.13h5.32l2.66.14h4.26l2.13-.14h1.46l1.34-.13h1.73l1.73-.13 1.73-.14 2.52-.26 1.73-.14 2.4-.26 2.79-.4 2.66-.4 2-.27 1.86-.26 1.87-.4 2.66-.53 2.79-.54 2.26-.53 1.73-.4 2-.4 1.46-.26 1.2-.4 5.72-1.07 15.31-3.32 1.59-.27 1.87-.4 10.51-2.26 5.32-1.07 17.3-3.45 7.05-1.34 3.6-.53 2.79-.26 3.99-.54 3.33-.4 4.66-.66h1.06l4.53-.53 1.99-.14 2.53-.26 2-.27 2.66-.13 2.39-.27 1.2-.13.53-.13 3.46-.4 6.92-.67 3.99-.13 5.46-.53 8.52-.93 10.77-1.07 3.2-.27 2.26-.13.8-.13 23.68-2.26 4.66-.4 9.45-.93 2.39-.14 2.8-.4 2.26-.26 5.99-.53 6.12-.8 3.46-.4 3.99-.8 2-.4.66-.13 2.4-.67.4-.66-.13-2.4 1.33-5.19 3.72-3.59 10.25-4.52 17.96-.8 13.71-9.45 27.68-20.36 31.67-34.33 6.65-5.59 2.79.8 1.07.27 1.73.53 10.25-12.51.13 1.33 2.66-3.33 2-2.39 1.73-2.13 1.86-2.39 2.13-2.67 1.86-2.52 1.46-2 1.34-1.6 1.46-2.13 2.66-3.32 2.13-2.66 3.46-4.53 2-2.79 8.91-11.84.53-.54.8-1.06 2.13-2.4 1.2-1.46 8.25-9.18 1.33-1.46.8-.67.53-.53.53-.53.4-.27.67-.53.4-.27.66-.4.53-.26.67-.4.8-.27.8-.27 1.06-.26 1.6-.4 1.73-.53 4.39-1.07 3.32 4.79 2.4 3.73 6.25 9.58.94.8 4.12 2.26 4.92 2.66 18.9-3.59 3.19 2.13-.4-3.46 7.86 3.19.39.27 2.67.13 2.66-.27 2.13-.26 1.46-.53 2.4-.27 2.39-.13h1.46l-1.06-1.6-.8-1.46-.66-1.47-1.33-6.12-10.25.4-1.2-.27-3.99-1.59-2.26-1.87-8.78-7.71-2.27-2.27-1.59-1.86-1.07-1.73-.53-1.06-.53-1.73-.27-1.73-1.2-8.92v-1.59l.27-1.33-4.92-4.4-3.6-11.17 1.07-1.2 1.73-1.73v-.13l1.59-1.6 1.73-1.86.67-.67 1.2-1.46.93-.8 2.53-3.33.8-.8-.54-.53 8.25-7.18 19.56-13.97 12.25-7.46 20.62-11.84 2.93-1.73 11.71-6.52 9.98-6.12 7.98-5.99 11.71-10.38 1.47-1.33 11.84-9.98 1.33-1.06 14.51-12.91 14.1-12.11.93-.8 8.92-7.85 6.92-5.32 6.12-3.59 4.52-2.26 4.26-1.47 4.39-.8 2.66-.66 4.26-.67h6.12l1.07-.13.66.13h1.33l6.26.14 2.53.13 2.66.27 9.58.66 5.99.27 1.33.26 14.9.8 3.06.14h2.53l1.73.13 4.13.4 1.59.13 5.72.4 5.99.4 13.71 2.13 1.46-.13 9.32.66.53-.8-1.73-.26-.8-.14-.27-.13-.93-.27-.93-.26-.66-.14-.54-.26-.4-.4-.39-.27-.27-.4-.4-.4-.27-.39-.26-.54-.27-.53-.13-.66-.13-.8v-1.2l.13-.4.13-.8.27-.66.4-.54.4-.66.4-.4.53-.53.4-.27.4-.13.53-.13.53-.14.4-.13.53.13h.53l1.07.27 1.33.26.93.27.67.13.53.27.8.53.66.4 1.2.93 1.2.8 1.46.8 1.73-2.26 1.47-1.87.93-1.19 2.13-2.8 3.59 3.6.53.53 1.07.93 1.06.8 1.6 1.06 1.59.4 1.47.27h.93l2.26-.14 2.26-.39 5.06-1.34 1.73 10.92v.53l1.86.13 1.33.53 2.27.14 3.59.79 3.46 1.47 3.46 1.73 2.53 1.73 4.25 3.06 5.99 3.86 2 1.46 4.79 2.66 3.46 1.73 5.06 1.6 2.52.66 5.33.8.13.53.4 3.73.26 2.4v1.06l-.13.53-.53.8-.53.4 1.86 2.26 2.4 3.73 5.72 7.18 2.92 3.46 1.87 2.13 3.99 3.46 7.58 7.45 1.34 2.27.53 1.59 2.53.53.79.14-.66.53.8 3.86 1.59 7.98.94-.26h.66l.53 2.26.67 5.05.4 4.13.26 3.33.14 4.65.4 5.99.26 5.86.27 6.25.13 5.19.67 11.71.26 7.18.8 18.63 7.85 5.72 1.6 10.25 20.09-1.06-.4-10.25 5.86-.13 11.71-.27 13.44-1.06 8.25 3.99 23.68-14.77-4.25 7.05-6.79 12.51-2 3.19-1.33 2.8-.66 1.19-2.93 5.59-.93 1.47-1.6 2.12-.66.94-.93 1.46-.94 1.33-1.33 1.33-2.13 1.2-2.26 1.86-1.06 1.2-4.79 5.85-.8 1.47-1.33 3.32-.4 2-.93 3.06-.4 2.13-.13 2.13.13 1.06-.53 1.6-.67 1.06-.27 1.2-.39 2.4-1.07 2.66-1.06 1.59-2.13 2.27-2.4 1.86-2.53 1.73-.66.8-.8 1.06-1.46.93-2.8 2.27-3.72 3.06-2.13 3.06-.4.4-.8.4-1.86 1.33-1.47 1.19-.93.54-1.2.13-.53-.13-1.06-.14-.67.14-.8.26-1.59.93-.8.54-1.47.93-1.46.93-1.33.66-3.73 3.73-1.46 1.2-1.46 1.86-1.07 2.13-1.6 2.39-1.99 2.67-2.8 4.39-1.86 1.46-2.13 2-1.86 1.33-2 1.86-1.46 1.46-6.79 7.85-.53.54-.4.53-2.13 2.66-2.39 2.79-2 2.4-1.06 1.2-2.27 1.59-1.59.93-.8.67-2.13 2.53-1.33 1.06-2.93 2.66-1.99 1.07-3.07.8-2.39 1.46-.8.8-.13 1.73.13 2.53.4 1.73v.93l-1.33 4.66-.93 2.66-1.6 2.66-2.79 3.86-.27.53-.27.8-.13.93-.4 5.85-.26 3.33-.14.4v.8l-.66 1.06-4.93 4.93-2.39 1.73-1.46.93-1.87 1.33-3.19 2.79-2.26 2.13-3.2 2.53-3.32 2.79-.8.8-.67 1.2-.53 1.06-.13 1.07v1.2l.26 1.33 1.2 2.52.93 1.2.67.93 1.06 1.33 9.98 15.04.8 2 .4 1.19v1.33l-.27 1.33-.66 1.07-1.2 1.46-1.33 2.27-1.46 2.66-.27.26-2.26 2.13-3.33 1.73-9.71 3.46-23.16 8.52-12.5 5.45-11.05 11.18-8.12 11.04-1.73 1.6-1.59 1.07-2.66 1.06-1.73.4-1.6-.13-1.33-.67-1.07-1.46-1.99-3.2-3.6-4.39-1.99-.8-2.13-.13-11.18 2-3.06 1.33-7.72 7.72-1.19 1.46-4.93 11.31-11.44 19.83-.67 2.66-2.13 2.13-3.46 6.12-6.52 10.38-5.59 8.78-11.17 17.96-4.79 9.71-4 4.53-1.06 2.26-1.06 1.46-1.34-.26-11.71-9.45-3.59-2.39-2.79-.94-1.87.4-2.12 1.87-1.47 2.39-.8 3.19.8 9.72.53 6.12v2.39l-.4 2.27.54 4.12 1.33 8.38.26.8-.13 1.07-.13 1.06-.4.93-.4.4-.4.4-.8.27-1.46.4-1.73.13-4.93-.8h-1.46l-1.46.27-.8.4-.8.53-2 1.6-3.19 4.12-4.39 5.06-5.59 13.84-5.19 10.64-3.06 8.92-1.86 5.45-.4 1.07-1.6 6.12-4.79 19.16-2.26 7.18-1.86 5.59-2.4 3.99-7.05 9.98-1.87 2.8-.93 1.59-1.59 4.79-1.87 5.73-5.19 11.44-1.99 6.12-.67 2.79-.8 2-.79 4.26-.4 1.46-.67 1.87-2.26 5.32-.27.93-.93 3.73-.66 1.59-1.87 3.46-3.86 8.52-.93 2.92-.53 1.6-.8 1.33-.8.67-1.06.66-3.33 1.2-.8.53-1.99 1.2-1.73.93-.8.67-.93.4h-1.07l-5.19.79-6.25 1.34-5.86 1.06-3.99 1.2-1.59 1.33-4.13 5.32-1.33 2.4-5.06 15.7-2.92 8.51-4.79 16.24-.94 3.19-1.99 7.19-28.35.53-1.06.13-32.6.53-6.26.14-2.39.13h-5.59l-7.85.27h-9.45l-6.39-.14-4.79-.8-6.12-1.59-11.31-3.6-4.66-1.73-7.98-2.79-7.45-2.66-7.06-2.4-2.79-1.19-1.6-.8-1.99-1.33-1.73-1.07-6.66-4.92-5.45-3.86-5.32-4.39-3.73-3.59-6.79-6.26-.8-.8-1.19-1.33-.93-1.06-1.6 3.46-1.07 2.39-7.31 15.44-9.85 21.42-8.12 16.77-1.99 3.86-2 2.92-1.73 2.53-.67.8-1.33 1.6-1.59 1.59-2.4 2.67-11.18 10.37-3.32 3.07-.4.53-1.2 1.2-.4.53-.8.8-1.86 1.99-2.13 3.06-1.2 1.73-1.46 2.4-1.46 2.66-1.6 3.72-2.66 6.66-.54 1.19-4.52 12.65-2.13 5.32-1.2 2.93-1.59 4.12-4.13 10.38-2.26 5.72-3.19 6.39-1.47 2.66-3.06 3.99-6.25 7.85-4.39 5.59-.94.8-1.86 1.46-.26 1.47-3.46 7.45-.27 2.53 1.06 1.06-14.37 38.19-6.38 13.7-14.64 29.15-5.06 10.24-1.86 3.59z" stroke-linejoin="round"/></defs><use xlink:href="#f" fill="#09757a" stroke="#097d9b" stroke-width="5.76"/><defs><path id="g" d="M708.99 2099.46l-2 .4-3.99.8-3.46.4-6.12.8-5.99.53-2.26.26-2.8.4-2.39.14-9.45.93-4.66.4-23.68 2.26-.8.13-2.26.13-3.2.27-10.77 1.07-8.52.93-5.46.53-3.99.13-6.92.67-3.46.4-.53.13-1.2.13-2.39.27-2.66.13-2 .27-2.53.26-1.99.14-4.53.53h-1.06l-4.66.66-3.33.4-3.99.54-2.79.26-3.6.53-7.05 1.34-17.3 3.45-5.32 1.07-10.51 2.26-1.87.4-1.59.27-15.31 3.32-5.72 1.07-1.2.4-1.46.26-2 .4-1.73.4-2.26.53-2.79.54-2.66.53-1.87.4-1.86.26-2 .27-2.66.4-2.79.4-2.4.26-1.73.14-2.52.26-1.73.14-1.73.13h-1.73l-1.34.13h-1.46l-2.13.14h-4.26l-2.66-.14h-5.32l-2.26-.13h-2.8l-3.46-.13-5.59-.27-9.98-.27-4.12-.13-18.63-.4-.27-2.53-2.92-11.57-.27-3.86v-3.86l.4-17.83-.4-11.44-21.69-25.82-13.57-16.1-.4-2.79-.67-4.53-2.13-12.9-3.99.53-1.46.26-5.86 1.33-1.99 1.73-5.06 6.26-2.4 2.93-.26.4-1.2 1.59-2.39 3.33-.4.53-2 1.86-.67.27-18.76 5.06-16.1 3.59-2.53.13-.26-3.06-.8-4.12-3.99 4.25-2.27 1.87-.79.53-1.47.4-1.2-.13h-.93l-6.25-.67-4.26-.53-14.64-2-14.5-2.13-7.19-.8-18.09-2.12-9.32-67.2 3.99-14.24 4.66-17.03-1.33 1.46-.53.27-1.6.27-.93.26-.53-.13-1.2-.67-.93.14-1.07.13-.66.27-.8.66-.93-.13-1.33-.27-3.06-.13-.4-.13h-1.07l-.93-.54-.53-.13-1.2.53-.66.53h-.14l-.4-.79-1.33-.27-2.26.13-1.73-.26-.93-.54-1.2-.53-2.39-.26-.67.26-.93.67-.4.26-1.06.14-1.34-.4h-.39l-.14.26-.26.54-.8.26-.67-.26-.66-.27-.53-.13-.67.53-.8.53-.13.13-.27.8-.26.54-.27.26-1.2.4-4.39-32.33 2-33.93-.67-11.85-.13-1.46H167l7.59-1.07 10.77-1.59 7.59-1.07.13.8 2.93 17.57 1.6 14.9.53 3.06.4 5.06 1.33 11.57 43.51-20.62 2.8 1.99 1.86.93 4.39 1.87h.27l1.19.4h1.2l2.26-.14 7.06-.79 12.9-1.73 7.86-.8 3.46-.4 19.69-2.26-1.86-9.72v-2.13l.13-.93.67-2.66.66-2.26.8-1.73 1.6-3.06 4.52-7.85 3.33-5.72 9.31-15.71 1.07-1.86.53-.8.26-.66 2.27-4.66 4.52.13 5.72-.4h2.66l5.46 1.2 5.06-2.39 2.79-1.07 2.93.67 9.18-.4 3.59-6.92 5.06-9.18 12.38-22.49 3.32-9.45.53-2.26.27-2.39.13-1.47.14-3.99.26-6.52 1.2-5.19 4.26-19.96 5.85-25.55.93-4.25 4-19.43 2.13-10.11 1.46-7.19 3.86-16.63 3.46-5.72 2.13-5.33.8-5.72-.27-6.92-.27-1.46 6.12-11.84 2.8-5.33 4.66-10.24.4-1.47 1.19-1.59 1.07-1.2 1.99-.4 4.26-.4h.67l6.78.4 5.19.4 24.22.27 6.52-.94 9.58 1.6.54.13 2.66-.66 2.79-.13 1.47.4 3.59 2.12.8.94.26.93.4 4.12.27.67.26.13h.4l.27-.4.4-3.06.8-3.99.4-1.2.53-.8.93-.8 1.06-.66.67-.13.67-.14 7.58 13.31 3.19 1.06 1.6.94 2.13 2.39.8.53 3.19-.53 3.33-.93 1.33-.93.66-1.73v-2.53l.27-3.59 6.65 2.92 4.93 2.53.66.14.93-.14 2.67-.53 1.86-.4 1.06.27.14.26 1.46 2.27 1.6 2.92 1.73 3.2.66 1.33 1.33 1.33 2.13 1.06h.27l1.06.14 1.47.26 1.59.67 11.05-7.99-2-8.51 8.25-2 2.13.13 2.26.54 2.27.79 1.73 1.34-2.53 5.18-.8 2.53 9.05 16.64 5.05.66 2.27 7.19 5.59-3.06 1.06.26.8.53.53.54 2.66 4.25 3.73 7.19 3.46 6.25 1.99-1.33.27-.4.53-.26 3.33-.93 7.98-1.2 4.53-.53 2.39-.14.8.14 2.26.66 2.8 1.6 1.73 1.33 9.71 7.45 10.78-17.83 6.92-11.04-.27-.54-.4-.4-.53-1.06-.4-.93-1.59-4.39-1.2-3.2-1.73-3.99-1.07-1.86-1.99-2.4-3.73-3.06-2.79-1.33-3.46-4.65-.54.13-1.33.13-1.99-8.65-3.06-3.46-.4-.53.4-2.26 1.73-.93 25.81-7.45 12.78-3.73 9.71-2.79 14.37-4.26.54-2.4 2.66-11.84-1.07-4.52-3.32-15.31-3.6-17.16 11.45-2.26 12.24-2.53 22.49-3.99 1.33-.54-.27.94-.93.66-.93 2.53-.27 1.06-.53 1.47-.27 1.33-.4 1.6-.13.93-.13 1.06-.13 1.73v2.53l.53 3.19.8 3.46 1.59 7.85 2 7.06.8 3.19.53 3.19 1.33 1.07.4.4.27.53 2.92 8.65.8 2.66 1.6 8.91 3.06 20.23-3.19.4-3.46.53-1.33.67-5.73 4.92.8 2.39 3.46 21.43.67 2.66.93 2.13 1.2 1.73 2.12 3.32.54.54 1.46 1.46 4.13 3.46 2.79 2.79 1.33 1.73 1.86-1.73 1.2-1.33 4.53-4.52 4.12 5.32 2.26 2.93 1.87 1.86 1.99 1.2 2.53 1.86 1.07 1.2.93 1.2 1.73 3.32.8 1.47 1.59 1.46 2.53 2.13 9.05 6.12 1.6 1.33.66.53 2 2.27.8 1.19 1.86 3.86 1.6-.8 5.05-1.99 2.13-.53 1.86-.27 5.33-.13.79-.14.14 2.27.8 8.11.66-.26 2-1.73 2.13-1.73.8-1.33 1.46-3.6.93-3.32.4-2 1.6-5.32.53-1.73.4-.93.26-1.2-.66-6.92 3.46-.66 3.19-1.07 1.87-.93 1.33-.8 2.66-2.39 1.33-1.07 1.73-1.73 3.72-3.72 4-5.06 2.12-3.46 1.07-2.26.93.53 2 .8 2.13.13 2.13-.26 2.66-.94 9.18-4.79 4.66-2.52 5.72-3.06 1.86-.94.4-.26 1.46-.67 1.47-.66 1.19-.4 1.07-.14h1.06l2 .27 1.6.53 8.25 3.06 1.73.67 2.53.93 3.32 1.2 44.58-21.96 5.59-2.79 23.55-11.58 8.52 6.39 1.46 1.06 3.59-1.99 6.53-3.6 12.24-6.38 1.2-5.99.79-1.6 1.33-1.86-1.19-3.59-1.47-3.46-1.46-4.53-.53-1.59-.27-3.2h-.8l-1.06-.26-.53-.27-.94-.8-.93-1.06-.66-.93-.8-2.13-3.59-19.43.26-2 .27-.93 1.2-2.26.53-.8.66-.66 1.73-.93 1.73-.67 3.46-.66-1.86-11.18-2.79-15.17 3.72-2 6.26-2.79.53-.4 3.46-1.33 1.2-.53 1.73-.4 1.59.13.93-1.06 7.85-.67h1.07l9.45.8-.14-3.73-.66-3.46-.8-1.86-1.2-1.99-2.26-2.53-1.86-2 6.12-6.65 3.72-4.39 14.11-16.1-.53-.54.26-.26.27-.27 12.11-13.97 8.91-9.85.14-.26 1.99-1.87 1.87-1.59 1.06-.93 1.2-1.07 4.66-3.46 1.33-.8 3.59-1.86 20.23-7.98 1.73-.8 5.19-3.59.93-.94 3.59-3.06 2.4-2.39.26-.13 4.13-4.79.4.53.93 1.2 1.33 1.33 1.73.53 1.99-.4 1.33-.53.94-1.07.53-.8.26-1.33-.13-1.73v-.13l-.26-1.86-1.2-3.2-.53-.66 9.71-10.25 5.85-5.98 5.33-5.73 1.73-1.73.13.54.4 1.46.93 2.93.8 4.65 1.73 6.26.4 1.2.53 1.06.67 1.86.39 1.73v1.07l.67 3.72 2.26 7.59 3.06-1.33 2-.8 6.12-1.07 9.58-1.46 4.79-.8 2.8-.53 3.19-1.06 1.73-.94 1.46 1.2 2.8 27.41 2.79 12.38 2.13 10.51-3.99.66-1.86.4-1.87.67-1.73.53-2.13.93-1.46 1.2-1.33 2.4-.53 3.19v2.79l1.06 19.03 1.2 29.81 3.33 3.46.26.53.27.66.26 1.2v3.2l.14 1.86.26 2.26.67 17.3.27 5.06.39 9.18.94 1.19 1.33 1.33 1.19.94 1.2.93.8.8 1.07.93 1.33 1.86 2.79 4.66 1.06 1.86.4 1.2.4 1.33.4 1.6.53 1.46.14 1.86-.27 1.47-.8 1.46-.53.53-.53.53-2 1.73 5.06 7.45.53 1.07v1.2l-.4.8-1.2.79-1.33.4-.66.14-3.19-.14-1.07.27-.27.13-.39.4-.54 1.07-.26.79-.14.67-.79 1.73-.14.4-.53 1.06-.8 1.87-.93 1.86-1.46 3.46 1.99 2.53 4.66 4.12 11.58 10.51 4.12 4 5.06 4.65 1.2 1.07 3.46 2.79 1.33.93v1.6l.13 1.73.4 5.99-.13 2.39-.67 2.66-1.46 3.06-.8 1.33-2.13 3.06-1.07 1.73-1.33 4.26-.79 1.87-4.26 8.25-1.33 3.85-8.52 22.89-1.06 3.73.53 5.98.26 1.73-1.99.4-1.33.27-3.99 1.06 1.06 3.06.4 1.73.8 3.46 1.46 8.52 1.2 4.52 2.39 7.32 1.87 3.86 1.99 3.46 1.6 3.19-5.06 1.34-2.26.39-2.26.14h-.93l-1.47-.27-1.59-.4-1.6-1.06-1.06-.8-1.07-.93-.53-.53-3.59-3.6-2.13 2.8-.93 1.19-1.47 1.87-1.73 2.26-1.46-.8-1.2-.8-1.2-.93-.66-.4-.8-.53-.53-.27-.67-.13-.93-.27-1.33-.26-1.07-.27h-.53l-.53-.13-.4.13-.53.14-.53.13-.4.13-.4.27-.53.53-.4.4-.4.66-.4.54-.27.66-.13.8-.13.4v1.2l.13.8.13.66.27.53.26.54.27.39.4.4.27.4.39.27.4.4.54.26.66.14.93.26.93.27.27.13.8.14 1.73.26-.53.8-9.32-.66-1.46.13-13.71-2.13-5.99-.4-5.72-.4-1.59-.13-4.13-.4-1.73-.13h-2.53l-3.06-.14-14.9-.8-1.33-.26-5.99-.27-9.58-.66-2.66-.27-2.53-.13-6.26-.14h-1.33l-.66-.13-1.07.13h-6.12l-4.26.67-2.66.66-4.39.8-4.26 1.47-4.52 2.26-6.12 3.59-6.92 5.32-8.92 7.85-.93.8-14.1 12.11-14.51 12.91-1.33 1.06-11.84 9.98-1.47 1.33-11.71 10.38-7.98 5.99-9.98 6.12-11.71 6.52-2.93 1.73-20.62 11.84-12.25 7.46-19.56 13.97-8.25 7.18.54.53-.8.8-2.53 3.33-.93.8-1.2 1.46-.67.67-1.73 1.86-1.59 1.6v.13l-1.73 1.73-1.07 1.2 3.6 11.17 4.92 4.4-.27 1.33v1.59l1.2 8.92.27 1.73.53 1.73.53 1.06 1.07 1.73 1.59 1.86 2.27 2.27 8.78 7.71 2.26 1.87 3.99 1.59 1.2.27 10.25-.4 1.33 6.12.66 1.47.8 1.46 1.06 1.6h-1.46l-2.39.13-2.4.27-1.46.53-2.13.26-2.66.27-2.67-.13-.39-.27-7.86-3.19.4 3.46-3.19-2.13-18.9 3.59-4.92-2.66-4.12-2.26-.94-.8-6.25-9.58-2.4-3.73-3.32-4.79-4.39 1.07-1.73.53-1.6.4-1.06.26-.8.27-.8.27-.67.4-.53.26-.66.4-.4.27-.67.53-.4.27-.53.53-.53.53-.8.67-1.33 1.46-8.25 9.18-1.2 1.46-2.13 2.4-.8 1.06-.53.54-8.91 11.84-2 2.79-3.46 4.53-2.13 2.66-2.66 3.32-1.46 2.13-1.34 1.6-1.46 2-1.86 2.52-2.13 2.67-1.86 2.39-1.73 2.13-2 2.39-2.66 3.33-.13-1.33-10.25 12.51-1.73-.53-1.07-.27-2.79-.8-6.65 5.59-31.67 34.33-27.68 20.36-13.71 9.45-17.96.8-10.25 4.52-3.72 3.59-1.33 5.19.13 2.4-.4.66-2.4.67-.66.13z" stroke-linejoin="round"/></defs><use xlink:href="#g" fill="#09757a" stroke="#097d9b" stroke-width="5.76"/><defs><path id="h" d="M1390.03 1929.81l-20.09 1.06-1.6-10.25-7.85-5.72-.8-18.63-.26-7.18-.67-11.71-.13-5.19-.27-6.25-.26-5.86-.4-5.99-.14-4.65-.26-3.33-.4-4.13-.67-5.05-.53-2.26h-.66l-.94.26-1.59-7.98-.8-3.86.66-.53-.79-.14-2.53-.53-.53-1.59-1.34-2.27-7.58-7.45-3.99-3.46-1.87-2.13-2.92-3.46-5.72-7.18-2.4-3.73-1.86-2.26.53-.4.53-.8.13-.53v-1.06l-.26-2.4-.4-3.73-.13-.53-5.33-.8-2.52-.66-5.06-1.6-3.46-1.73-4.79-2.66-2-1.46-5.99-3.86-4.25-3.06-2.53-1.73-3.46-1.73-3.46-1.47-3.59-.79-2.27-.14-1.33-.53-1.86-.13v-.53l-1.73-10.92-1.6-3.19-1.99-3.46-1.87-3.86-2.39-7.32-1.2-4.52-1.46-8.52-.8-3.46-.4-1.73-1.06-3.06 3.99-1.06 1.33-.27 1.99-.4-.26-1.73-.53-5.98 1.06-3.73 8.52-22.89 1.33-3.85 4.26-8.25.79-1.87 1.33-4.26 1.07-1.73 2.13-3.06.8-1.33 1.46-3.06.67-2.66.13-2.39-.4-5.99-.13-1.73v-1.6l-1.33-.93-3.46-2.79-1.2-1.07-5.06-4.65 1.07-1.2 1.33-2 5.59-9.18 6.92-10.91 3.32-4.52.53-.54.94-.8 2.92-2.12 1.47-.8 4.12-1.47 2.13-.53 2.26-.53 1.87-.8.93-.8.93-1.2 1.6-2.52.26-.4.8-1.87.8-1.86 1.06-2.13 3.06-4.52 2.67-2.8 2.12-1.99 2.53-1.73 2.93-2 1.33-.26h1.86l1.07.26 1.2.67.79.8.94 1.33.93 1.19 1.46.8 1.07.14 1.33-.4.93-.4.66-.53 3.6-4 2.26-3.99 4.92-10.91 2.4-5.32 1.46-3.73.4-.93.27-.53 1.59-3.33 8.39-17.16 2.39-4.53 1.33-2.13 2.93-3.86 2.26-2.52 2.8-3.06 2.13-2.53 1.06-.93 2.53-2.53 2.13-1.47.93-.53 1.33-.26 2.13-.27 3.86.13 6.78.8 1.87.13 4.65-.79 7.19-1.73 7.05-1.87 1.6-.26 2.4-.4 2.66-.53 14.5-2.53 25.02-4.13-2.26-11.71 7.05-1.19 9.71-5.19-.13 8.65 1.46-2.4.54-1.06.26-.4 1.47-2.66.39-.8.8-.67.14-.13.66-.53.13-.14.27-.13.27-.4.53-.4.26-.26.14-.14.26-.4.54-.53 2.26-2.53-.27 3.86.27 2.66 1.06 7.45 14.77-2.52 3.86-.67 1.6-.26h.27l6.78-3.86-2.93-20.1 5.59-.4 6.12-.39 11.71-.54 13.84-1.06 2.93-.67 9.72-2.79 4.25-1.2 4.53-1.06 10.78-2.8 2.52-.8.94-.26 9.98-2 6.78-1.2 5.99-1.06 9.45-1.73 6.39-1.33 6.25 31.14 8.92-.94 1.99 11.32 4.53-.8-1.6-9.18-.67-4.26.14-.53.13-.4.27-.27.4-.13 6.52 1.46 5.98 1.6 2.93 1.19 1.73 1.07 1.73 1.33 3.19 3.46 2.67 2.39 2.66 1.47 2.66 1.06 3.33.54 5.98 1.86.94.26 1.59.67 4.79-10.51.93-2.13 1.07-2 2.66-6.12 2.79-5.99 5.59-12.24.4-.26.27-.27 11.84 2.53 4.13 1.59v-1.99l4.39-5.59 5.19-6.65 2.53-3.46 1.73-2.93 1.73-1.73 5.58-4.66 1.34-.66 1.33-1.2.4-.53-1.34-.67 3.46-8.51.27-.93 1.46-7.86.4-2.66.67-3.19.53-1.2 1.07-1.73 1.06-.93 14.11-8.25 9.31-5.85.53-.4.27-.53.26-1.34-.13-.53-.93-2.93-.67-1.99-.39-1.2-.54-2.39-.26-1.07-.67-2.66v-.8l.4-1.2.27-.66 2.13-2.26 8.91 2.79 3.33.67 2.39.8 1.87.93 2.39 1.46 2.26 2.13 1.2 1.2 4.79 4.65 1.33 1.07 1.47 1.2 1.33.53 1.59.4 2.67.26 1.86-.4.53-.39.67-.94.93-4.39.4-1.19.4-.94 1.46-1.73.53-.26h.53l1.07-.8 1.46-1.86 1.87-2.66 1.99-.67 3.2.67 3.06 1.06 1.86.27 1.2.26 1.99-.26 1.2-.67.27-.8.53-2.13.13-.53 1.47-1.86.93-.67.8-.53 2.66-5.59-.27-3.19-.27-1.47-.39-.93-.27-1.06v-1.07l-.53-1.33-.4-.79-.4-1.47h3.06l2.66-.13 2.93 1.73 1.33 1.33.93.53.93.13.27-.13.8.13 1.99-.53.4-.53 2.4-2.26-3.2-4.93-1.33-1.33-.53-2.66h5.46l2.12 1.87.4-1.07.67-3.59.4-2 .4-1.06.26-.53.94-1.2 2.39-1.07 3.19-.26 2.13.13 1.47-.13h1.99l1.47-.27 1.06-.4 1.2-.66 1.33-2.4 1.6-5.05 1.33-2.93 1.06-3.2 1.33-4.39 2-5.32.26-.8.14-1.06.26-1.6.4-.93.27-.27-.27-2.39-.13-1.33-.93-3.99-1.73-6.12-.67-2.27-.93-2.92-.93-1.47-.93-.93-.53-.93-.4-1.2 9.05-4.92 4.25.26 1.47-1.59 4.39-3.86 3.46-3.06 3.06-2.13 2.26-1.33 2.4-1.2 1.99-.8 2-.4 1.99-.4 2.53-.39 3.46-.14 3.6-.26h1.33l-.54-4-.79-5.32-1.6-11.31.66-1.33 3.46-7.18 1.73-3.86-.13-6.52-4.66-6.12.8-11.31-.8-5.33 14.11-2.26 2.26 12.77 8.65-1.59 18.5-3.33 1.86.27 1.86.8 1.6 1.33 1.2 1.59.66 1.73.4 2.4 2.26-.4 2.27-.27 1.99.4 3.73 1.47.93-4.93 2.79-12.64 3.6-17.7 1.33-6.12 1.06-6.38.4-4v-9.98l-.4-7.98-27.01 5.86-.8-14.37-48.44-7.06-7.85-11.31.27-.26 1.46-.54 1.73-.93 1.87-1.19 7.31-11.18 5.33-7.85.53-1.2.27-1.6.66-6.38.8-4 2.39-6.38 3.2-3.99 1.73-2.13.66-2.13 3.46-.93 1.33-1.07 2.53-1.99 2.4-1.34 2.39-1.19 3.33-2.27.66-.79 7.32-7.06 4.53-4.39 2.53-4.25 1.99-3.73 1.86-6.52.27-4.26-.13-1.99v-5.59l.66-2.13.67-3.33.4-1.2 3.32-7.71.67-1.33 1.06-1.2.67-.4 2.93-.13 1.19-.54.27-.4 1.86-.13 11.85-3.06 31.14-8.38-1.34 13.3-1.86 15.57v2.26l.13 2.13.4 4 2.27 12.64.4 1.73.66 4.39.27.93 2.39-2.13 2.93-2.66-.27-.8-2.66-15.7-.13-1.07v-.93l-.13-.66v-2l.13-1.73 3.06-27.68 6.39-.93-1.07-6.38 6.92-1.07 3.59-.8-1.86-6.65v-1.86l1.07.53 2.66-.53 5.19-.67 2.79 3.46 19.03-3.19 5.59 3.86 3.06 2.26-2.4 6.39 3.07 16.23.93 5.19 3.32 1.99 6.66 4.26-2.93 5.99-1.33 2.53-10.91-15.57-4.93 1.73-3.59 1.2-2.93.93-2.53 1.2-1.73.8-4.65 3.32-11.58 10.38-2.39 2.13 1.73 6.25 1.33 5.99.26 1.73.14 2.66v2.4l-.67 15.03v2.13l.27 1.07.26.8.53.39 1.73 1.2 8.92 5.86 3.33 2.79 3.72-7.45 6.66-13.44 4.79-9.18 3.99-8.38 4.12-8.12 1.47.4 19.16 5.45 1.46.4.67-.53.93-1.46.66-1.33-.66-2 .13-2.13-.13-1.06-.27-1.07-.53-1.19.27-1.87-.27-1.73-.66-3.19-2.4-2.4-2.26-3.85-3.33-10.78.93-1.73 9.32-2.53 2.26-.67 1.6-.53 7.32-2.26 6.38-2.13 2.27-1.2 1.99-1.46.8-.8 1.2-1.06 1.86-2.4 16.23-33 2-3.32 1.86-2 .67-.4 1.46-1.33 17.97-12.38 6.12-4.25 1.46-1.33.93-1.07 1.33-1.33-9.58 1.73-.13-.4-2.13-12.51-.66-4.79-3.46-20.09 2.12-1.06 7.86-1.33.53-.14 1.99-.53 4-32.87 1.33-4.25.53-3.33 4.66-5.99 1.99-3.32 9.85-3.73-.53-4.39-.93-8.78 5.98-13.31 21.83-37.79 9.71-19.29.67.66-.54.8-.26 1.06 1.06 3.06 2.13 6.26 1.07 3.46.53 1.6.93 5.72 3.19 13.84.8 2.39 3.6 6.65 15.83 21.69 12.51 20.36 1.2 2.4 9.84 15.83-.53 1.07-1.73 10.11v2.26l.4 1.86.53 1.87 3.46 5.98 2.26 3.33 1.47 1.86 3.19 5.86 5.59 11.18 3.19 7.71 1.6 3.86 5.32 11.31 3.6 6.92 1.73 3.46 1.33 5.32.53 3.6-.13 1.73-.54 2.39-.53 2.13-.53 2.93.53 4.52 1.2 2.4-7.72 72.78 31.54 3.06-.13 1.2.26.93.27.67v2.26l-.27.4-.4.53v.67l.14.39-.27 1.07-.4 1.33-.53.53-.67.53-.13.54-.27 1.33-.26.93.13 1.46-1.2 3.86-1.73 13.97-3.19 1.87-3.06.93-18.1 5.19-18.89 4.79-7.06 1.73-23.95 6.12-.53.13-2.93.53-2.66-.13-1.2-.27-3.06-.79-2.79-1.07h-.54l-2.26-.66-4.26-.67-3.32 2.66 1.99 13.71.4 1.06.27 1.2.27 2.53v2.52l.53 4.4 1.06 7.31.4 2.4 2.4 10.51.4 2.4.13 2.52 5.19 27.28-5.19 3.46-2.53-4.26-1.33-2.12-2.13-2.93-3.59-4.93-1.07-.66-8.11-4.92-10.25-14.11-3.73-2.79-3.46-2.27-15.83-9.04-.8 1.73-1.86 2.39-14.37 26.61-3.73 5.99-1.6 2.53-2.92 4.39-1.2 1.46-2 1.87-1.99 1.33-1.6.8-5.46 1.59-1.33.93-1.73 1.34-15.83 13.83.53 3.2.4 1.46.4 1.46.66 1.47 1.2 2.13 4.66 7.45 1.46 2.53 3.33 5.05 3.73 5.73 8.64 13.83 5.73 9.05 5.59 9.18 13.7 21.56.67.8.4.66 1.19 1.6-6.65 8.78-4.79 5.99-4.66-5.59-12.51-14.5-8.65 14.5-9.18 15.17-6.52-4.39-.66.53-.4.4-.93 1.6-.54.93-.93 1.33-.26 1.2-.14 1.19.8 5.73.4 2.39.53 1.2.67.8 1.33 1.06 3.59 2.53 7.06 4.39.79.4 1.2.8.8.4 2 .66 1.33.54.93.39 1.46.8-2.79 5.59-5.06 10.51-1.86 3.06-.93 1.87-4.26 7.98-2.66 4.92-1.07 2-1.59 2.26-3.6 3.33-5.59 3.33-1.59 1.06-5.86 3.86-13.44 8.51-2.26 1.34-.53.66-.54.67-.53.39-.93.94 4.66 1.33 7.32 1.73 3.06.66.53.14 1.33.26.8.27 3.06.66 2.53.67 4.52 1.2 3.73.79 1.33.4 1.33.27 4.26 1.06 8.65 2.13 6.52 1.33 1.86.54 3.06 1.19 4.39 2.27 5.06 3.32.8.53 1.06 1.07 1.2 1.06 1.6 1.73 6.38 6.92 1.2 1.2 1.33 1.73.93 1.73.4.66.27.8.8 2.53.4 2.13.26 10.25.4 13.97-5.72 3.32-2.66 3.46-2.93 2.13-4.52.54-7.72 10.91-3.33 6.52-3.99 5.45-4.66 4.66-1.99 1.33-5.06 1.06 17.96 28.35 11.45 17.96-2.53-.53-6.39-.67-2.79-.26-2.4-.4-1.46-.27-4.13.27-4.12 1.33-1.07-1.73-.66-.53h-.67l-.79 1.06h-1.2l-.27.8-.4.13-1.06.13-.27.14-2.39.26-3.33-.26-1.86-1.73-1.47-1.33-1.99-1.6-3.06-1.06-1.6-1.2-3.59-1.2-2.66-1.6-2.8-1.59-8.25-6.26-2.13-.93-3.72-1.06h-2.8l-3.46.53-3.59 3.19-1.73 1.33-1.73 2.13-2.4 3.99-3.46 7.06-1.59 5.32-2.66.53-4.4 4.13-4.25 3.46-2.13 2.92-1.2 3.06-2.93.4-4.66 2.93-1.73 2.13-.39 1.2.53 2.13.4.79 2.92 3.33.67 1.33-.4.8-.66.4-1.47.4h-2.66l-2.93-.67-1.86-2.52h-.93l-.67.13-.4.53-.66 2.66-.67 3.2-.53 1.06-1.06.4-4.53.53-3.72.8-2.93 1.6-.8.53-1.86 1.86-1.33.53-1.33-.13-1.87.13-.93.8-1.06 2.66-.67.4-5.19 1.2-2.39 1.33-1.2.8-6.52 7.45-2 1.33-1.46.8-2 2.53-1.33 2.26-1.2 1.33h-.79l-.94-.4-.66-1.99-4.66-8.65-.66-.54-.8-.4-.8.14-1.6 1.2-1.46.26-2.26-.13h-1.73l-1.73.26-1.73.67-1.2.8-.27.8-.53 2.79.13 1.6.4 2.79.93 3.99 1.07 3.46v.8l-.53.8-2.13 2.4-2.53 2.66-2.53 2.92-1.6 1.47-.53 1.2-.26 1.99.26 2 .4 1.46 2.13 3.73 1.07 1.19 1.06 1.07 2 2.13 1.46 1.73 1.33 2.13 4.52 5.98 5.19 5.19 9.72 10.52.53.93v.8l-.4.39-.13.14-.67.13-1.19-.8-10.78-10.11-10.65-8.25-5.72-7.19-2.66-2.66-2-1.19-1.99-.54-1.33.14-1.47.26-4.79 3.6-5.45 4.65-4.26 5.86-.93 1.33-1.2.66-1.2.8-1.33 1.33-.53 1.2-.27.8-.93 1.86-.27 1.86.14 1.47v1.33l-.8 1.99-2.26 3.33-.67 1.33-1.33 4.39-.4 2-.4.4-.4.13-.4-.13-1.59-1.33-2-2-1.73-.93h-1.06l-1.73-.53-.8-.4-.4-.67-1.33-2.39-.93-.53-3.6-.94-3.72-1.59-6.26-2.8-2.39-.8-2.4-.39-1.06-2-1.47-.93-1.19 3.72-1.07.8-.8.4h-.66l-.93-.27-.8-.79-.4-2.27.13-.93.27-1.46.66-3.46.67-2.4-.13-.93-.4-2.39-.14-2-.26-1.99-.14-1.47.14-1.59.8-2.27 1.19-3.59.14-1.33v-1.33l-1.07-3.59-.66-3.33.13-.4.27-.4.53-.13 2.26 1.06h1.6l-2-3.72-1.73-2.93-1.33-1.2-1.46-1.19-1.33-.54-1.33-.4-.4-.13-4 .13-1.99.54-1.73 1.19-1.6 1.33-.8.54-.79.4-1.34.66-2.39 3.99-.67.67-1.19.66-.54.54-2.39-1.73-2-2.13-.8-1.87-2.52 2.8-6.66 7.45-4.52 4.79-4.66 4.26-4.52 3.06-4.93 2.93-4.12 2.13-4.53 2.52-8.78 4.93-4.92 2.52-4.39 1.73-3.33.94-2 .66-10.11 1.86-5.46.8-11.17 3.46-8.65 2.66-8.12 4.53-6.65 5.05-1.6 1.73-8.92 9.05-10.77 10.25-9.05 8.11-1.73 1.47-2.8 1.99-4.79 2.8-10.24 3.86-3.2.8-4.66.79-21.55 1.47-15.97 1.06-6.92.14h-8.78l-5.86.39-3.99.27-.93.13-9.85-.26-3.06-.4-15.7-3.06-4.13-1.2-21.02-4.66-1.2-.26-1.99-.14h-.94l.8 3.73 1.33 7.05 1.07-.13 8.51-1.73 1.07 5.06 1.46 7.05-2.39.66-2 .4-4.66.67h-.26l-.8.13.27.93 1.46 9.45.27 1.2-.67.13-1.6.27-1.46.26-2.53.53-.66.14-2.4.4-4.12.66-.8-.13-.67.13-.53.14.27.39.79 1.07.8 1.86 1.2 2.66 1.2 3.06 1.06 3.33 1.07 4.13 1.46 5.85 1.46 5.85 2 8.12 1.6 7.05 1.19 5.86.14.93.13.4.53.93h-1.59l-.4-.13-1.6-.14-1.06-.26-.94-.67-.93-.53-3.32-3.19-1.6-1.47-1.07-.66-1.99-.4-2.13-.13h-.53l-.67.13-1.2.27-1.06.13-2.79.66-4 1.2-10.24 5.72-2.93 1.47-4.79 1.46-1.33.4-4.53 2.26-5.32 3.86-4.79 4.13-5.06 4.12-6.65 8.25-2.79 4.92-1.73 2.66-2.53 9.05-9.58 26.22-3.86 9.98-1.86 3.32-1.07 2.4-2.26 3.59v2.4l.53 1.73.4 1.59 2.4 7.72 2.52 9.05.67 2.13-.67 1.33-1.86-2.8-4.26-6.78-1.99-2.8-1.2-2.92-1.07-4-1.06 2.13-2 2.26-2.13 1.2-3.32 1.47-3.73 1.33-3.19.79-8.38.54-3.33-2.27-3.06 2.13-3.46-.4-3.06.27-2 .4-1.06.27-.67.79-2.26 2.67-1.07 1.86-3.72 7.32-5.59 10.38-2 3.19-1.19 1.6-.94 1.59-.79 2.66-.94 1.47-23.68 14.77-8.25-3.99-13.44 1.06-11.71.27-5.86.13.4 10.25z" stroke-linejoin="round"/></defs><use xlink:href="#h" fill="#004249" stroke="#00465f" stroke-width="5.76"/></svg>