<svg width="691.2" height="384" viewBox="0 0 5185 2880" xmlns="http://www.w3.org/2000/svg" xmlns:xlink="http://www.w3.org/1999/xlink"><path fill="#fff" d="M0 0h5185v2880H0z"/><defs><path id="a" d="M1260.6 2848.73l-15.23 2.75-3.72.33 1.45-1.95 2.27-3.56-9.4-10.86-1.45-.97-1.95-2.92-19.28-24.62-9.88-12.16-15.07-19.6-.49-.81-5.18-6.16v-.97l.48-.16 3.4-.81-11.01-12.8-9.89-12.48-9.88-12.64-22.52-28.51-10.54-13.29-8.26-10.53-16.85-21.23-17.18-21.87-16.85-21.22-16.69-20.91-19.12-24.46-19.44-24.47-19.12-24.3-14.74-18.63-3.08-4.05-.97-1.14-2.92-3.56-18.8-23.66-21.06-26.73-7.29-9.4-13.61-17.17-16.04-19.77-5.68-7.29-17.33-22.04-16.37-20.9-17.34-21.87-13.93-17.66-3.08-3.89-15.39-19.45-2.43-2.91-25.76-32.41-18.48-23.17-23-29.32-12.48-15.88-7.45-9.24-29.01-36.29-4.05-5.19-16.36-20.74.97-.16-20.74-26.25-12.48-16.2-8.1-10.04-13.77-17.5-3.24-3.89-3.41-4.21-9.88-12.48-4.86-6.97-9.88-13.61-1.3-1.78 7.78-3.89 14.09-6.64 9.08-4.7 12.96-6.32 33.22-16.69 9.72-4.7 3.56-1.78 7.94-3.24 12.64-4.7 8.59-3.4 1.46-.49 5.18-2.1 6.64-2.43 10.86-4.05 16.37-6.16 16.69-6.32 13.12-5.51 21.06-9.07 2.27-.81 3.73-.97 2.11-.49-1.63-1.78-.64-1.14-3.89-9.23-4.21-10.37-3.73-8.91-6-15.56-2.1-5.18-8.43-21.39-10.53-26.57-5.02-12.32-.65-1.94-2.11-12.48-2.75-16.85-.97-6.8-.33-1.3-.81-1.13-1.78-1.62-17.82-13.45-14.91-11.18-23.66-17.34-2.43-1.29-8.1-2.76-19.77-4.05-16.2-2.75-4.7-.81-7.29-1.62-5.83-1.62-18.31-4.38-8.27-1.62-2.75-.81-.49-.32-.32-.65v-2.59l.32-2.92-.16-.97-.32-.49-.49-.16h-.97l-38.08 6.48-46.5 8.27-5.84 1.13-34.02 5.02-.33-1.94-23.01-46.18-94.95-125.08-57.52-88.47-41.31-25.11-37.6.97-38.56 7.78-46.5 22.68-22.69 21.06-23.65 17.5-20.1 4.86-5.5 1.3 4.53-9.07 11.83-27.06 5.67-13.94 2.11-6.15 2.1-9.4 1.14-6.64.97-8.43.33-7.45.32-5.35.16-3.89.16-2.1.33-3.89.48-7.62 1.3-23.01.65-9.55.48-10.05 1.14-19.61 1.13-17.33 1.46-24.31.65-9.07.65-4.54.81-4.37 1.62-8.43 2.43-8.1 12.64-39.05 13.12-41.47 3.24-8.27 2.27-6.8 2.59-7.94 2.6-6.48 3.4-8.43 2.1-5.18 3.41-7.13 3.89-7.62 1.45-2.91 2.27-4.54 7.62-14.74 20.25-39.38 3.24-5.99 1.14-2.11 35.16-68.05 18.63-36.62 7.13-13.77 2.59-5.18 12.64-23.98 11.67-23.17 5.67-11.34 4.54-8.27 4.86-9.23 5.18-10.37 13.45-25.76 2.75-4.87 4.38-7.29 2.43-3.56 4.21-6.48 2.6-3.73 2.43-3.08 1.78-1.78 3.72-3.56 3.08-2.27 6.81-4.05 2.1-1.46 4.22-2.76 17.01-11.01 19.44-11.83 4.87-3.08 20.57-12.31 45.21-26.9 1.46 1.3 3.24-2.11 4.54-2.75 11.5-6.97 3.89-2.59 5.51-3.08 18.96-11.02 7.13-4.7 25.27-15.23 23.98-14.26 6.32-4.05 8.91-5.35 5.19-3.07 13.93-8.1 6.81-4.06 5.51-3.24 24.3-14.25 18.64-11.35 17.5-10.53 7.61-4.86 10.86-6.64 11.34-6.81 5.83-3.24 8.27-4.53 4.05-2.11 5.99-3.24 20.58-10.05 5.35-2.75 7.29-3.57 9.23-4.05 4.54-2.1 5.67-2.76 21.71-10.37 27.23-12.96 51.36-24.3 16.36-7.94 19.45-9.4 11.83-10.04 2.91-2.11 5.84-2.59 5.18-1.46 2.92-.65 2.59-.65 2.92-.81 4.53-1.62 2.6-1.13 1.62-.81 1.13-.49.97-.48.98-.49 1.29-.49 1.3-.48.81-.16.97-.33.97-.16.81-.16.81-.16h3.57l.97.16h.65l.81.16.81.16.97.33 1.62.64 2.92 1.3 2.59 1.3 5.02 1.78 2.76 1.62 7.94 3.4 10.53 4.54 9.4 4.86 12.96 6.48 10.37 5.18 9.4 4.22 19.76 7.94 9.73 3.88 17.5 7.46 12.47 5.18 9.56 3.73 1.62.65 2.59.97 1.95.65 3.24 1.13 4.05 1.3 2.59.81-.32 3.72-.49 1.63-.97 1.45-8.59 11.18-6.96 8.91-18.64 24.31-7.94 10.04-.65.98-.48.97-.65 2.27-.16 1.29.16 1.62.49 3.24 2.75 17.18 1.46 10.04 1.62 10.54 1.3 9.23 2.75 19.44-2.75 2.43-2.44 2.27-21.87 5.51-33.7 5.51-8.59 1.3-5.83.81-19.77 3.08-2.59 1.78 3.89 23.33 2.75 16.69.81 6.48.49 2.92 4.05 25.11 4.53 27.38 1.62 11.99 2.11 12.8 2.59 14.75 1.46 10.37 2.27 14.42 1.78 11.18 1.3 8.42 3.08 18.15.16 1.13 3.73 24.14 1.62 10.37 2.27 14.59 2.75 17.17 5.35 33.86.32 2.6.49 2.75 1.13 6.48-1.3.16-1.13-6.48-23.33 3.4-38.24 4.87-23.17 3.4-2.43.48-1.46.49-2.59 1.78-2.27 2.59-.65.81-.81 1.79-.16.97-.49 2.59v1.3l.16.32 1.62 9.56 2.11 12.48 2.92 18.63 3.56-.49 3.73-.48 7.78 48.77.16 2.27.32 2.26 5.51 31.44 3.08 21.87 3.89 22.68 3.89 23.82-2.27 1.14-.97.64-.81 1.3-.33 1.46v2.59l1.14 9.4.48 2.1 2.92 10.7.65 3.24 1.62 9.88 1.78 9.56.65 3.57 4.05 25.92 4.7 28.52 6.48 38.88 1.94 8.91.81 1.79.33 1.29.16.65.49 4.7 2.75 17.01 11.34 65.78 2.11 13.29 2.43 12.96 6.48 40.02 2.43 13.45 12.15 77.45.33 2.92.16 3.88.81 1.46 1.46 5.67.48.65.98.65 1.94-.16 1.62-.33 1.62-.16 30.79-5.67 110.18-18.31 48.12-7.45 2.11-.49 2.27-1.13 1.62-1.3.81-1.29.65-1.46.48-1.78.16-2.27v-.97l-.16-1.46 2.59-.49h1.3l.97.49.49.81.65 3.56.64.97.65.49 1.46.32 26.9-4.53 19.28-3.73 19.61-3.4 18.14-2.92 1.95-.65 1.13-.81 1.46-.32h.81l1.94.32h3.57l4.37-.48 2.27-.16 2.76.16 1.62-.16 6.48-1.14 15.55-2.59 7.13-1.46.81-.16.65 3.24 33.38-6 14.26-2.26.97 5.34 1.46 8.1 1.46 10.21.81 6.16 1.78 11.02.81 5.67 1.62 10.53 1.3 8.42 2.91 18.31.65 3.89 3.4 23.82 1.95 11.18 2.27 16.04 1.62 11.34 2.59 16.04 4.05 27.22 4.05 27.06 4.05 26.25 1.95 13.45 2.1 12.96 3.89 26.08 4.05 26.09 4.05 26.41 2.76 18.63 1.13 7.62.81 6.16 3.24 20.09.97 7.29 3.57 20.09.32 1.94 10.37-1.78 38.89-6.32 32.73-5.67 14.1-2.11 2.75-.16 3.24 21.88 1.46 11.01.65 5.19 2.43 17.17 1.62 10.7 1.46 10.2 3.4 22.53 1.78 12.31 1.3 8.43 1.78 12.31 2.59 17.01.82 5.35 1.78 11.83.97 5.67 1.46 7.94 2.91 21.55.33 1.62.16 1.62-9.56 1.62-32.57 5.34.65 2.6 1.62 5.99-.16 6.97-2.11 5.99-.97 2.6-1.62 4.53-1.62 20.74 8.26 21.55 6 11.99 2.75 2.59 5.67 19.61.49 3.24 1.94 11.02 4.06 3.4-3.25 4.7-15.71 23.65-5.19 7.78-25.44 37.75-17.01 26.25-.16.65-3.73.32-30.46 4.86-12.15 1.95-50.07 8.1-3.89-.97h-1.78l-11.83 1.62h-.16l-.97-.16-2.6-1.14-1.29-1.3-2.27-4.05-4.38-9.07-.81-2.59-1.62-8.59-.97-3.4-4.21-11.83-.81-3.4-1.95 2.1-.97.49-8.91 1.62-1.46-.16-20.09-2.27-10.21-1.62-2.91-.49-1.79-.81-.97-.97-.97-3.08-5.51-24.46-4.54-26.41-2.59-12.32-12.96-66.1-2.59-14.42-.33-3.24v-1.79l-13.29 1.79-57.35 9.23-25.28 4.05-66.43 10.86-28.52 4.53-.81 1.3-1.14.81-1.45.65-2.11.97 3.24 20.58 4.05 26.41 8.59 52.82 2.27 16.85 4.05 24.79 2.1 13.45 3.08 20.09 10.37 61.73 2.11 13.61 4.05 27.54 4.21 27.55 2.43 13.61 2.11 13.93 2.59 17.83 1.46 9.72 4.86 27.87 3.08 18.79 3.56 23.01 4.54 27.87 2.43 13.28 2.43 13.94 2.76 20.74 3.4 20.9 4.37 27.54 2.43 13.94 2.11 13.77 1.78 10.37 1.3 4.37 1.62 3.24 1.3 1.46 5.18 4.7 3.08 1.94-3.08 4.38.65.49.49.64.64 1.14.17.97v1.46l.16.97.48 1.46.65 1.13.81.81 1.14 1.14.81.32 2.91 1.46z" stroke-linejoin="round"/></defs><use xlink:href="#a" fill="#cee3e4" stroke="#cef5f5" stroke-width="5.76"/><defs><path id="b" d="M4176.19 1401.84l-5.34.81-13.94 2.27-5.99.97-5.19-4.7-5.51-4.21-5.02-11.5-.65-10.05-6.48-11.01-.49-.65-6.48-6.65-.65-7.94-1.78-4.53-6.64-10.37-4.38-3.89-5.34-4.86-3.08-2.76-8.26-5.18-15.24-9.56-3.72-2.11-.97-.32-.65-.32-11.18-3.57-4.7-1.29-.97-.33-.98-.16-2.43-.49-1.13-.16-2.43-.32-3.73-.33-2.43-.16h-5.35l-5.67.32-3.08.33-3.07.32-5.51.81-5.84 2.27-.64.16-2.76.49-1.3.16-2.91.65-21.07 5.35-14.09 1.29-3.24-2.91-3.89-.81-4.54-4.54-2.11-.32-2.75-2.43-4.54-1.79-51.52-70.8-39.7-57.52-13.45-20.58-2.92-6.16-7.12-3.4-1.3-.48-1.46-.17-1.46-.16h-1.29l-.98.16-1.94.17-.81.16-.97.16-21.07 3.24-1.78.32-26.09 4.22-5.02.97-25.28 4.21-3.88.49-15.88 2.59-14.91 2.43-3.89.65-40.67 7.45-14.26 1.62-25.92 4.22-27.55 4.21-1.94.32-6 1.3 4.05 7.13-7.29 1.29-12.8 1.95-1.46-2.27-.97-1.78-3.4 2.1-3.24-6.48-7.78-14.26-3.4-9.23-.81-2.43-.98-2.43-5.83-14.42-21.22-52.01-2.43 1.94-.98-2.59-1.94-4.54-1.62-4.21-2.92-7.13-1.78-4.7-1.46-3.56-1.62-3.89-1.46-3.89-1.46-3.73-1.62-3.88-2.26-5.35-2.11-5.51-1.78-4.54-.49-1.13-1.78-4.21-2.43-5.84-1.46-3.24-1.78-4.37-2.43-6.32-.17-.16-1.62-4.22-1.29-3.07-.65-1.62-1.3-3.57-1.29-3.08-2.43-6.15-2.43-6.16-2.27-6-1.3-3.72-2.1-6.48-1.46-4.05-1.46-4.87-.81-2.43-.97-3.88-1.3-4.87-.81-3.07-.81-3.08-.49-2.27.49-1.78-.97.16-.49-1.78-.32-1.3-.33-1.62-.48-2.43-1.14-6.16-.81-4.53-.48-3.89-.33-2.11-1.13-6.64-.81-4.86-.97-6.16-.98-5.51-.97-5.67-1.29-7.94-1.14-6.64-.48-3.57-.49-2.75-.16-1.46-.16-.32-.33-2.43-.16-.81-.32-1.3-.33 2.27-.32 2.92-.16-1.3-.17-.65-.16-.81-.16-1.13-.16-1.14-.17-.81-1.13-7.13-1.13-6.32-.17-.97-.16-1.62-1.29-7.45-.33-2.11-1.62-10.2-1.62-9.08-1.78-11.02-1.46-9.39-.32-2.6-.49-3.07-1.3-7.46-.97-5.18-.81-5.51-.81-5.02-.97-5.67-.81-4.87-.81-4.86-1.3-7.94-1.46-8.58-.81-5.51-1.13-7.29-1.13-6.65-.49-3.07-.97-5.84-.16-.97-.98-6.64-1.29-7.62-1.14-6.48-1.46-9.07-2.75-16.37-1.46-8.91-1.13-6.64-1.3-8.26-1.62-10.21-4.05-24.31-2.75-17.01-1.3-7.94-.49-2.91-16.2-98.68-.65-3.72-1.78-11.35-1.78-10.69-.97-5.83-.49-3.41-.16-.97-.65-4.21-.97-5.99-1.3-8.11-.32-1.45-1.3-7.78-.97-5.67-.65-4.38-.16-.65-.97-5.67-.98-5.51-1.13-5.5-.97-3.89-.97-4.05-.49-2.27-.81-3.4-.65.16-4.21.81-2.27.16-3.56-.16-3.25-15.23-1.13-.65-2.59-12.8-1.62-1.94-2.27-8.92-3.24-5.5-.97-5.68-9.24-16.36-.49-2.92-2.26-2.43-4.54-11.66-11.51-17.83-10.69-18.63-1.62-3.56-4.86-6.97-.81-2.27-3.08-3.89-6.16-11.02-2.59-2.75-4.86-8.1-2.27-1.62-15.55-26.25-5.51-6.64-4.54-2.76-57.36-96.08 3.08-5.34 2.59-.49.81-.16.81-.16 2.76-.33 17.66-2.75 7.94-1.14h.16l5.51-.81 7.29-1.29 9.24-1.46 6.15-.97 3.73-.49 6.32-1.13 2.75-.33 10.54-1.78 7.45-1.3 6.97-.97 7.45-1.13 2.76-.49 2.43-.32 1.94-.33 2.11-.32 3.72-.65 3.24-.65 3.73-.65 4.38-.64 5.34-.98 4.38-.64 2.91-.49 2.92-.49 1.62-.32 8.26-1.46h.65l.65-.16 7.62-1.3 3.56-.64 2.92-.49 11.99-1.95 9.23-1.45 6.48-.81 1.46-.17 3.89-.48 4.38-.16 3.4-.17.65 3.57 24.3-3.24 7.62 48.93 24.79-3.24 4.37 34.84.49 2.26-10.05 1.79h-1.46l-.81.16-.48.16-1.14.16-6.15 1.3-1.14.32-.81.33-.32.16-.65.32-6.32 4.05 5.35 9.89 1.46 2.59 1.78 3.56.49 1.3.64 1.46 9.08-1.3 2.27 1.95.81.97 1.94-1.14 1.78-.81 7.94-1.13-.81-4.7-.48-3.24 12.63-1.62 7.78 1.46 5.67-.65 10.86-4.86 31.11-8.75 68.86-11.18 8.27-1.3.81-.16-.49-3.24-.32-1.94 2.26.32.33 2.27.81 5.18.81 4.87.48 3.56.81 4.86.17 1.3.16 1.13v2.59l9.4-1.13 34.19-6.32 4.05-.32-.49 5.5-.65 19.61.16 8.59v9.39l.17 9.56.32 7.46 5.35 15.88.32 4.37.16 2.43v1.46l.16 9.72 2.11 3.89 2.27 4.86.32 1.13 2.11 11.83 3.73 13.77 2.91 6.32 5.19 15.88 4.7 2.76 3.72 2.26 4.22 5.68 4.21 3.4 11.5 2.1 3.24 6.49.49.81v3.24l-.97 1.62-1.46 1.45 25.76-4.21 4.7 28.36.16.64 2.43 13.61 37.27 31.92 35.97 51.69 28.68 41.8-1.62 2.11-.48.81-.49 2.1-.32 3.73-8.43-2.75.49 6.96 2.26 5.84-3.56 1.78.16 4.05.16 3.24-.32.81-.65 1.46-.97 2.59-4.05 2.27 4.7 7.13 3.72-.65.49 13.12.16.98-.81 23.17.33.97h1.29l1.62 1.13 1.95 1.78 1.62.98.32.16 2.27.81v.81l.16 1.13.49 1.95 1.29 1.13 2.6.81 2.91-.16 2.43-.49 2.27-.81 2.11.81-1.62 2.11-5.02.97-6.81-1.46-3.24-2.1-4.38-2.59-.64 5.02-1.3 3.89-2.92 4.21-1.62 13.29-.16 8.91 1.14 2.75.48 1.62 4.38 6.64 1.13 1.63 3.08 2.43.49.32 1.62 1.3 1.94.48 1.13.16h4.38l-1.13 2.11-.33.81 3.57 7.29 7.13 7.78 10.53 10.37 3.89 2.1 2.59 6.49 2.43 1.29 1.94 1.95 5.51 6.48 17.34 19.76 6-3.4 1.45 1.46 2.11 4.7 26.9.97h1.62l9.23 2.59 21.55 7.62 22.69 8.1 5.02 1.62 3.4 1.46 13.94 9.72 12.31 11.67 6.81 6.48 1.13.16 14.1 3.24 5.67 18.31-.97 1.29-2.92 3.73-6.16 7.62-19.28 2.26-5.51.81-18.31 5.35-4.37 2.27-5.35 18.96.16 4.05 3.57 1.46 8.75 1.45 24.79-1.45h7.61l3.89 1.94 9.72 2.43-23.98 19.61-7.45 7.12-4.21 5.51 4.53 10.7 10.37 13.61 3.57 3.4 1.3 1.78 5.02 3.73 11.02 3.08 2.27.32 5.5.16 21.88-23.17 5.67-5.51 6.32-1.13 8.26 3.24 2.59 3.73.98 11.01-1.3 3.25.97 6.96 4.22 11.02 4.53 7.62 3.89.32 5.51 8.26 11.5 8.43 22.2 4.37 7.78 15.07.16.33-.32.48-11.34 14.75-1.46 1.94-16.21 5.51-5.83 1.78-4.86 8.1 4.7 4.86 1.13 2.92 10.7-2.11 3.08-.64.16 4.37 24.3-4.54 9.08-1.78 6.15.97 5.84 4.7 3.89 15.39 1.13 4.22 2.43 6.48 1.46 3.89.81 7.13-7.78 9.88-5.51 6.8-6.64 6.81-1.78 1.94-4.05 4.22-1.95 1.94.97 6.97 1.46 4.53 2.27 3.41 5.51 7.94 5.02 5.02 11.18 11.02.98.81 6.96 10.2-7.29 37.92-1.46 1.46-3.08 1.29-4.37 9.4-4.86-7.13-7.13 16.85-1.46 4.86-7.45 33.06-2.92 18.47-.32 16.85 4.53 26.73-1.78 17.18-7.61 21.22-6.65 9.88-3.24 12.97-.32 15.23 1.62 14.58 8.59 23.82.48 4.37 1.46 18.31-1.78 15.56-.33 2.75-.32 2.43-.49 2.59-.32 1.3-.16 1.13-.16.81-.17 1.62z" stroke-linejoin="round"/></defs><use xlink:href="#b" fill="#cee3e4" stroke="#cef5f5" stroke-width="5.76"/><defs><path id="c" d="M4214.59 2364.44l-79.71 13.93-7.3.16-156.19 23.66-42.94 6.48-120.07 18.15-66.59 10.04-1.62.32-11.51 1.79-11.99 5.83-3.56.49-8.75 1.45-8.27 4.22-.16.16v.32l-85.23 13.29-18.79 3.08-3.89.65-12.15 1.78-69.51 11.02-1.46.16-10.37 1.62-22.36 3.56-39.05 6.16-15.07 2.43-4.38.65-1.45.16-2.43.49-2.11.32-1.3.16-4.7.81-1.62.16-1.45.33h-.33l-1.29.32-18.64 2.92-22.03 3.4-134.49 21.23-3.4.64-202.06 31.92-13.61-93.65-5.51-42.93-6.15-36.78-.49-3.89-7.61-50.39-.49-3.24-3.24-21.39-12.96-104.18-5.51-38.08-7.62-67.08-7.78-57.84-1.78-9.88-9.07-12.32-.33-1.94-4.37-5.35-1.62-3.4 6.48-4.54 6.32-16.69 5.02-3.07 12.64-5.35 2.43-15.07-3.73-19.77-1.62-1.45-2.91-6.97-.81-4.05-1.46-7.62 1.46-13.28 2.59-.65.16-11.67 2.27-15.71 2.43-1.3-.32-8.26.48-1.95-1.29-5.51-.49-2.43-3.89-16.85.16-2.1.33-5.03.32-5.02-3.89-15.39-8.1-9.72-5.51-2.11-3.08-1.13-5.51-2.11-5.02-3.57-5.18-5.99-1.95-8.43-1.13-4.53-.33-1.46-2.43-3.4-2.75-3.24-2.59-.81-4.38-3.73-3.08-5.02-.16-2.11.97-.81 1.14-.97 10.53 1.78 6.48-.97 4.38-7.29.64-.97v-.81l.81-6.32-2.43-7.13-3.72-5.67-5.19-4.7-19.44 3.08-2.76.48v.97l-.16.33-1.78 2.59v3.24l-1.78 4.05-4.7 4.38-4.21 3.72-6.81-3.24-1.78-5.18-5.51-6.32-2.27-2.59-1.46-1.79-.65-.97-5.83-9.4 11.83-1.45 11.34-1.46 5.19-.65 6.96-2.75 2.92-1.14 3.24-1.29 14.1-18.64.97-1.29 1.3-3.24 2.1-6.81-.65-9.23 2.92-8.92.97-1.29v-.16l1.3-1.79 2.43-3.72.65-.81 1.13-1.62.81-1.46 2.59-3.89.98-1.46 3.89-2.27 4.86-2.91 7.13-6.81 10.04-9.72 3.24-2.11-1.13-2.26-4.38-8.75-2.1-4.22-3.24-6.32-2.92-6.15-1.3-2.76-2.43.65-15.55.32-3.73-36.29.97-36.78-.48-4.21-.33-3.73-.48-6.8 4.53-.98 4.38-.81 18.79-3.24 11.51-8.58 2.27-2.27h1.46l-.33-.65-6.97-10.21-6.64-10.2-2.59-4.22-1.14-2.91-.97-2.76-.97-3.4-.32-1.95-.49-2.1-.16-2.43v-2.59l.16-3.24.49-3.41.48-3.56.81-3.24.97-2.59 1.14-2.27 1.62-3.08 1.46-2.43 2.91-4.05-4.86-4.38-1.94-19.12-.97-2.59-6.81 3.89 1.3-3.08 4.53-11.34-11.66 10.53-2.6-.65-3.88-.48h-6.32l-7.62.81-4.7-.49-2.1-.48-2.27-.65-4.7-2.43-11.83-6.48-1.3-.81 2.11-4.22 4.21-8.91 10.21 5.51 6 3.24 2.75.65h1.3l4.21-.49 2.43-.16 3.57-.16 6.31.32 5.19.81 3.56.98h1.79l.16-.33 4.54 1.14 1.45.48.81-1.78 7.94-18.47 1.46-3.57 3.73 3.24.97-2.26 1.46-3.57-4.05-2.59-30.46-24.47-8.27-6.64-35.81-29.97 3.89-.65 9.4-1.14 2.27-.32 35.81-5.02 32.4-5.03 7.78-1.29 9.24-.81 5.02-.33 9.72-.81 7.46-.81 3.4-.32 7.94-.81 29.81-3.57 12.32-1.78 63.35-10.21 70.97-11.66 12.15-2.27 57.04-9.24 13.28-2.26 40.35-6.48 9.56-1.63 50.55-8.58 13.13-2.27 11.99-2.11 35.64-5.83 11.83-1.78 33.38-4.7 11.02-2.11 5.02-1.46 2.11-.64 5.99-1.95 10.7-1.46 25.6-3.24h.65l1.29.33 3.41-5.35 4.21-6.64 9.88 6.96 2.11 3.73 1.62 3.08.97 1.78 1.62 2.92 1.46 2.59 1.94 3.4 3.08 6.32 8.1 11.83 6 8.75-2.27-1.46.97 1.3 2.27 3.24 3.08 4.53 3.24 4.54 3.57 5.19 2.26 3.24 1.79 2.75 2.75 4.05 2.27 3.08 3.24 4.7 2.27 3.24 2.11 3.08 2.59 3.72 1.78 2.76 1.62 2.27 1.62 2.43 2.59 3.56 2.11 3.08 3.56 5.19 3.57 5.02 3.56 5.18 4.7 6.81 3.73 5.51 2.27 3.24 2.75 4.05 5.35 7.45.49-.65 15.23 21.88 17.17 25.11 3.73 5.02.65 2.43 1.13 1.62 4.54 6.49 2.1 3.07 2.76 4.05 1.62 2.27 4.7 6.65 3.72 5.67.98 1.29 1.13 1.62.49.65.97 1.46 2.92 4.54 4.69 6.8 2.44 3.57 1.13 1.62 3.56 5.18 5.03 7.13 2.1 2.92 2.27 3.07 3.4 5.35 1.3 1.78 1.3 2.11 4.7 6.48 3.72 5.35 2.43 3.4 3.24 4.54 3.24 4.53 7.3 10.54 5.02 7.29 4.21 6.15 2.27 3.41 3.08 4.69 3.56 5.19 4.7 6.48 4.38 6.64 4.53 6.48.81 1.14.98 1.46.97 1.29 2.59 3.73.97 1.46 1.46 2.1.97 1.46 2.6 3.73.48.65 1.46 2.1 2.43 3.73 3.89 5.51.97 1.62 2.11 3.08 1.29 1.94 4.54 6.65 3.57 5.18 3.07 4.7.81-.16 1.95 2.59 1.13 1.94 1.14 1.62-.65.33 2.92 4.37 2.43 3.24 1.94 2.6 2.76 4.21 2.75 3.89.49.81 2.75 3.89 1.78 2.75 2.76 4.37 3.24 5.19 3.56 5.99 4.54 7.78 3.73 6.64 2.75 5.19 3.4 6.48 2.27 4.54 3.57 7.29 2.75 5.67 3.08 6.97 3.24 7.45 3.73 9.07 1.46 3.57 1.62 3.89 3.24 8.42 3.4 8.43.32.64 3.08 7.94 3.4 8.27 2.92 7.13.49 1.29 1.78 4.38 1.94 5.18.98 2.43.64 1.3 1.3 3.4 3.08 7.45 2.75 7.13 3.08 7.62 3.73 9.23 1.94 5.03.49.97 3.24 7.94 3.24 7.94 1.62 3.89 2.11 5.5 2.27 5.84 2.59 6.48 2.27 5.51 3.72 9.07 1.79 4.7 2.75 6.32 2.43 6.16 2.59 6.31 1.79 4.87 2.59 6.31 1.78 4.54 1.94 4.54.98 2.59 1.62 3.73.97 2.75 3.89 9.24.81 2.27 2.91 6.96 1.63 4.38 2.26 5.67 3.08 7.61 2.76 6.65 2.91 7.61 1.14 2.76 2.59 6.64 2.27 5.35 2.27 5.5 2.59 6.65 2.27 5.67 1.78 4.7 1.62 3.89 1.78 4.37 2.43 6.16 2.76 6.8 1.29 3.08 1.95 4.7 2.27 5.83 3.24 8.1 1.94 5.19 1.14 2.43 3.56 8.91.49 1.3 3.08 7.45 1.78 4.37 1.46 3.24 1.45 3.73 2.6 5.51 1.29 2.92 1.62 3.24 2.27 5.02 3.24 6.48 3.73 7.29 1.13 2.11 1.62 3.08.98 1.78.32.65 2.27 4.05 3.08 5.34 1.94 3.41 1.78 3.08 2.43 4.05 2.6 4.05 3.56 5.99 2.92 4.7 2.27 3.73 3.08 5.02 2.59 4.37 4.86 7.62 3.73 6.32 1.94 3.08 3.24 5.18 3.4 5.84 2.27 3.72 2.59 4.38 2.11 3.24 1.78 2.75 1.78 3.08 1.46 2.43 1.95 3.08 1.13 1.78.16.49 2.27 3.4.33.65 1.13 1.78 6.81 11.02.64.97 2.76 4.54 1.94 3.56 1.95 3.4 2.1 3.41 2.76 4.21 3.24 5.35 2.59 4.21 3.57 5.83 3.4 5.67 4.37 6.97.65.97 1.62 2.59 2.59 4.05 2.27 3.89 2.92 4.54 1.94 3.24 3.24 5.19 1.14 1.78 1.13 1.94 6.65 11.18 2.91 4.38 2.27 3.72 2.27 3.41 1.78 2.91 2.92 4.54 1.13 1.94 1.14 1.79 1.46 1.94 1.29 2.43 1.3 2.27 3.72 6.16-2.26.64-5.68 1.79z" stroke-linejoin="round"/></defs><use xlink:href="#c" fill="#9dc8ca" stroke="#9dd7f0" stroke-width="5.76"/><defs><path id="d" d="M4609.63 1781.47l-11.18 40.34-1.79 3.89-24.14 88.79-57.68-19.12-4.05-1.29-75.67-23.17-22.2-3.08-5.51.16-3.4-.81-18.96-4.7-39.05-12.96-.32-.16-31.44-7.94-14.09-5.51-12.8-6-10.37-5.83-7.13-3.73-5.35-2.59-.16-.32-.33-1.62-2.26-.97-.49-.49-3.56-3.73-5.68-2.43-5.02-3.89-6.64-3.56-4.86-3.24-2.11-2.11-1.94-1.94-10.37-31.92-20.58-10.53-10.7-14.1-3.56-4.86-8.1-8.59 4.05-7.77.32-.65-8.26-9.4-8.91-7.78-15.07-30.46-13.29-22.03-6.32-14.42-3.24-11.51-7.78 6-1.13-3.89-3.4-6-1.3-4.21-3.73-9.72-1.78-7.13-2.1-5.35-6.97-6.48 5.51.33 3.24-2.6.48-3.4-1.94-5.34 2.75-5.03 2.27-3.08.49-1.78 2.11-9.23-1.3-4.54 3.4-12.31.16-.49.65-2.43.33-4.05-1.62-2.59 1.78-2.76.16-3.24 6.97-14.74v-.16l.65-1.3 8.75-18.31 3.88-8.43 1.95-7.93 3.73-2.92 1.29-.81 13.77-8.26 5.68-3.41h.48l.16.65-.16.49-3.89 4.37-1.78 4.05-1.13 7.62-6.65 17.33 8.43 1.46 7.13 1.14 1.78-2.6 8.59-22.35.65-5.03 1.29-2.59 2.59-3.08 2.27-12.31-5.99-17.18-6.97-5.34-6.32-5.03-.97-.81-10.53-7.29-2.43-1.46 5.99-.97 13.94-2.27 5.34-.81.17-1.62.16-.81.16-1.13.32-1.3.49-2.59.32-2.43.33-2.75 1.78-15.56-1.46-18.31-.48-4.37-8.59-23.82-1.62-14.58.32-15.23 3.24-12.97 6.65-9.88 7.61-21.22 1.78-17.18-4.53-26.73.32-16.85 2.92-18.47 7.45-33.06 1.46-4.86 7.13-16.85 4.86 7.13 4.37-9.4 3.08-1.29 1.46-1.46 7.29-37.92-6.96-10.2-.98-.81-11.18-11.02-5.02-5.02-5.51-7.94-2.27-3.41-1.46-4.53-.97-6.97 1.95-1.94 4.05-4.22 1.78-1.94 6.64-6.81 5.51-6.8 7.78-9.88-.81-7.13-1.46-3.89-2.43-6.48-1.13-4.22-3.89-15.39-5.84-4.7-6.15-.97-9.08 1.78-24.3 4.54-.16-4.37-3.08.64-10.7 2.11-1.13-2.92-4.7-4.86 4.86-8.1 5.83-1.78 16.21-5.51 1.46-1.94 11.34-14.75.32-.48-.16-.33-7.78-15.07-22.2-4.37-11.5-8.43-5.51-8.26-3.89-.32-4.53-7.62-4.22-11.02-.97-6.96 1.3-3.25-.98-11.01-2.59-3.73-8.26-3.24-6.32 1.13-5.67 5.51-21.88 23.17-5.5-.16-2.27-.32-11.02-3.08-5.02-3.73-1.3-1.78-3.57-3.4-10.37-13.61-4.53-10.7 4.21-5.51 7.45-7.12 23.98-19.61-9.72-2.43-3.89-1.94h-7.61l-24.79 1.45-8.75-1.45-3.57-1.46-.16-4.05 5.35-18.96 4.37-2.27 18.31-5.35 5.51-.81 19.28-2.26 6.16-7.62 2.92-3.73.97-1.29-5.67-18.31-14.1-3.24-1.13-.16-6.81-6.48-12.31-11.67-13.94-9.72-3.4-1.46-5.02-1.62-22.69-8.1-21.55-7.62-9.23-2.59h-1.62l-26.9-.97-2.11-4.7-1.45-1.46-6 3.4-17.34-19.76-5.51-6.48-1.94-1.95-2.43-1.29-2.59-6.49-3.89-2.1-10.53-10.37-7.13-7.78-3.57-7.29.33-.81 1.13-2.11h-4.38l-1.13-.16-1.94-.48-1.62-1.3-.49-.32-3.08-2.43-1.13-1.63-4.38-6.64-.48-1.62-1.14-2.75.16-8.91 1.62-13.29 2.92-4.21 1.3-3.89.64-5.02 4.38 2.59 3.24 2.1 6.81 1.46 5.02-.97 1.62-2.11-2.11-.81-2.27.81-2.43.49-2.91.16-2.6-.81-1.29-1.13-.49-1.95-.16-1.13v-.81l-2.27-.81-.32-.16-1.62-.98-1.95-1.78-1.62-1.13h-1.29l-.33-.97.81-23.17-.16-.98-.49-13.12-3.72.65-4.7-7.13 4.05-2.27.97-2.59.65-1.46.32-.81-.16-3.24-.16-4.05 3.56-1.78-2.26-5.84-.49-6.96 8.43 2.75.32-3.73.49-2.1.48-.81 1.62-2.11-28.68-41.8-35.97-51.69 27.71-10.37 8.59-4.69.32-30.47 6.32-14.25 10.86-24.15-.98-5.34 2.11-.33 23.17-3.72 44.24-7.46 27.7-4.7 2.6-.48.48 3.24 4.86 28.35 21.23-3.24 29-4.37 25.28-4.86 17.01-3.89 26.41-6.16 97.87-16.69 9.4-1.45 1.13-.65 38.57-22.52 10.2-5.84 12.48-7.29 9.4-5.51 11.18-3.4 11.83-.32 11.34-1.95 11.66-1.94h5.51l73.57-1.14-2.43 2.76 1.13 1.94 2.59.33 4.54 3.24 5.83 9.23-.32 1.62-.16.49 5.99 10.04 2.43 2.11 1.95 6.16v5.51l-.33 17.17 11.18 18.15 11.67.65 28.03 23.98 12.96 16.85 8.59 7.61 7.13.97 12.15 9.89 4.38 7.45 7.29 16.53-1.3 1.78 3.24 10.53 10.7 7.45 7.45 8.43 6.97 13.29 7.45 43.9-2.59.98 7.61 16.52 40.19 37.11-4.22 7.94-24.3 2.59.81 4.05 1.13 10.04 4.05 13.61 3.89 7.94 7.46 5.67 19.6 8.11.81 1.29 1.62 2.27 9.56 9.24 14.42 15.87 8.43 9.73 8.59 11.66-.33 6.97-8.1-.16-2.43.97-1.13 1.78-.16 2.43-1.3 2.11-3.57.32-1.29 1.62-.16 2.11 3.07 5.99.98 4.54 2.27 4.21 11.82 8.27 4.05 4.21 4.22 8.59 18.47 18.79-.81 7.62 1.13 6.8 2.59 5.83.17 1.79 19.44 2.59 6.48 1.13 4.54 18.31 2.11 8.75 2.1 9.24 5.19 11.18 5.02 5.51 6.64 12.96 3.73 12.15 3.4 6.16 5.19 6.96 2.27 1.95 5.02.16 23.66-1.62 3.4 2.11 3.24-2.43 1.13 1.13-.48 2.59 7.13 1.78 14.42 16.05 2.27 6.64.81 10.37-1.62 23.49 1.29 7.29 3.08 3.41 9.72 6.8 4.21 3.73 1.3 4.37-2.43 7.29-.65 1.62 1.78 1.95 7.62 8.91 9.07 10.85-3.4.81-.48.98.64 3.56 4.05 3.24.81 1.95-3.07 2.43.16 5.02 9.88 10.53 1.46 1.13 1.13 4.54 5.19 2.11 4.7 3.08 2.1 1.13 5.84-.49-1.14-4.05.17-2.26 5.99-4.06 4.7-1.94 6.32.97 9.72 6.48.97 2.92 1.46 1.62h2.59l1.46-1.78h1.95l1.62 1.46-.65 4.53-2.11.98v1.29l2.27 2.92v2.27l-2.27 1.94-1.29.65-.65-.16h-.49l-2.1-2.27-.82-.33-3.56.49-.49.49.98 2.26v.49l-.17.49-4.37 3.24-3.24.48-.81.65-3.57 5.51-.16.65.16.48.33.33 6.64-1.14 6.32 1.14 2.27-.97 2.59.97h3.08l2.27.97 11.18.49 5.83 1.29 1.78 1.14.17.32-.17.49-.81.16-.16.32.16.49.65 1.62v.49l-.48.16-6.97.81-5.19 2.43-1.13.97v1.3l1.3 1.62 9.72 5.34-.16 1.95-3.25 1.62-.81 1.29 1.46 1.62 17.66 10.7.81 1.62-5.5 5.18-1.3 2.76.97 5.02-.32 2.76-2.76-.98-2.1.33-.98 1.94-6.96 1.78-.17.98 1.46 1.13 17.83 5.18 1.45 2.6 4.7 2.59-.32 3.89-3.08-.81-1.46-.97-4.86.48h-.32l-1.62-1.62h-4.05v.33l.16.32 3.4 1.94 3.4 1.3.17.32-.17.33h-.16l-3.89-.81h-.16l-.16.16v.16l.32.16 1.14.81v.49l-2.6-.32-.16.16v.32l.16.33 2.76 2.1 5.67 4.05 3.57 3.57 7.12 4.05 1.14 3.08 2.59 3.24 4.05 3.08 3.08 5.02 7.13 5.67 9.24 5.18 5.02 1.79 2.43 3.24 1.3 4.21 3.72 4.05 6.65 4.21 23.17 10.05 5.99 37.75 5.19-1.13 4.05-.33 20.25-1.94 8.1-.16 11.67-.98v-1.94l-.16-3.24-.49-7.78v-.48l2.59-1.95 3.24-.97 4.22 4.54 2.91 7.61 1.14 2.92 15.23 24.95 1.46 6.16-2.92.97-5.83-1.14 2.91 6.97.17-.16.97-.97 1.13-.81 1.95-2.43.64-.16.81.32v.16l1.3 1.14.49 1.62 2.59 1.78v.97l-.16.97.16 1.14.32.48.49 1.95.97.65 1.14.97.32 1.29-.65 1.62 1.95 2.11.48.65.33 1.13.64 1.14 1.14.81.16.48-.16 1.62 1.46 2.27.65.49.64 1.62.81 1.46.33 1.45.48.81.98.65.97 1.3.81 1.13.32 1.62.81 1.3-.16.97.16.81.97 1.3 1.14.48 1.3.17.64.64 1.14 2.76.48 3.24-.16.65-.48 1.13-.17 1.3.17 1.46-.65 1.29.16.49.81.97v.97l-.32 1.62.64.81.98.81.16.97.65 1.14.16 1.13 3.4-1.62 3.73 6.16 5.51 21.55 2.91 12.15 5.19 18.8-.81 2.43.81 22.03-.16 4.7-7.62 11.18-4.86 9.07.32-.16 1.3-.16.49-1.3.48-.48 1.14-.65 1.13-1.78 2.27 1.29.32 1.14.65.48 1.62-.16.81.49h1.3l.48-1.3.98-.32.97 1.13.16 1.78-.32 1.46v.65h-.17l-7.77 1.3-3.41.64-65.13 11.83-43.59 6.16-4.37.65-41.81 5.99-2.91.49h-.49l-.16.16-79.07 11.34-13.78 1.95-82.96 11.82-8.26 1.3-11.67 1.62-7.94 1.13-12.96 1.79-16.36 2.43-64.82 7.94-6.32 2.27-1.45.48h-1.62l-1.46.33-6 .97 1.3 6.64 5.51 36.62 1.78 17.98.97 7.29.49 3.41.16 1.13.16 1.62.16 1.3.33 1.78.32 2.11.33 1.45.97 6 .97 5.99.49 3.89 6.8 43.1 1.46 8.75 9.07 56.55v1.94l4.22 18.63 1.94 11.18 2.43 13.94.81 5.67.16 8.75-18.3 28.84-12.64 2.27.97 5.99 4.54 4.05-3.08 1.79 1.13 7.77-44.72 7.78-16.53 2.75 1.62 1.95 2.6 2.27.32.65 1.78 3.72 1.95 3.73z" stroke-linejoin="round"/></defs><use xlink:href="#d" fill="#6bacaf" stroke="#6bb4d2" stroke-width="5.76"/><defs><path id="e" d="M4338.39 2342.56l-42.94 6.81-19.61 4.05-33.38 4.7-7.61.97-11.18 1.78-.65.65-.49.49-3.72-6.16-1.3-2.27-1.29-2.43-1.46-1.94-1.14-1.79-1.13-1.94-2.92-4.54-1.78-2.91-2.27-3.41-2.27-3.72-2.91-4.38-6.65-11.18-1.13-1.94-1.14-1.78-3.24-5.19-1.94-3.24-2.92-4.54-2.27-3.89-2.59-4.05-1.62-2.59-.65-.97-4.37-6.97-3.4-5.67-3.57-5.83-2.59-4.21-3.24-5.35-2.76-4.21-2.1-3.41-1.95-3.4-1.94-3.56-2.76-4.54-.64-.97-6.81-11.02-1.13-1.78-.33-.65-2.27-3.4-.16-.49-1.13-1.78-1.95-3.08-1.46-2.43-1.78-3.08-1.78-2.75-2.11-3.24-2.59-4.38-2.27-3.72-3.4-5.84-3.24-5.18-1.94-3.08-3.73-6.32-4.86-7.62-2.59-4.37-3.08-5.02-2.27-3.73-2.92-4.7-3.56-5.99-2.6-4.05-2.43-4.05-1.78-3.08-1.94-3.41-3.08-5.34-2.27-4.05-.32-.65-.98-1.78-1.62-3.08-1.13-2.11-3.73-7.29-3.24-6.48-2.27-5.02-1.62-3.24-1.29-2.92-2.6-5.51-1.45-3.73-1.46-3.24-1.78-4.37-3.08-7.45-.49-1.3-3.56-8.91-1.14-2.43-1.94-5.19-3.24-8.1-2.27-5.83-1.95-4.7-1.29-3.08-2.76-6.8-2.43-6.16-1.78-4.37-1.62-3.89-1.78-4.7-2.27-5.67-2.59-6.65-2.27-5.5-2.27-5.35-2.59-6.64-1.14-2.76-2.91-7.61-2.76-6.65-3.08-7.61-2.26-5.67-1.63-4.38-2.91-6.96-.81-2.27-3.89-9.24-.97-2.75-1.62-3.73-.98-2.59-1.94-4.54-1.78-4.54-2.59-6.31-1.79-4.87-2.59-6.31-2.43-6.16-2.75-6.32-1.79-4.7-3.72-9.07-2.27-5.51-2.59-6.48-2.27-5.84-2.11-5.5-1.62-3.89-3.24-7.94-3.24-7.94-.49-.97-1.94-5.03-3.73-9.23-3.08-7.62-2.75-7.13-3.08-7.45-1.3-3.4-.64-1.3-.98-2.43-1.94-5.18-1.78-4.38-.49-1.29-2.92-7.13-3.4-8.27-3.08-7.94-.32-.64-3.4-8.43-3.24-8.42-1.62-3.89-1.46-3.57-3.73-9.07-3.24-7.45-3.08-6.97-2.75-5.67-3.57-7.29-2.27-4.54-3.4-6.48-2.75-5.19-3.73-6.64-4.54-7.78-3.56-5.99-3.24-5.19-2.76-4.37-1.78-2.75-2.75-3.89-.49-.81-2.75-3.89-2.76-4.21-1.94-2.6-2.43-3.24-2.92-4.37.65-.33-1.14-1.62-1.13-1.94-1.95-2.59-.81.16-3.07-4.7-3.57-5.18-4.54-6.65-1.29-1.94-2.11-3.08-.97-1.62-3.89-5.51-2.43-3.73-1.46-2.1-.48-.65-2.6-3.73-.97-1.46-1.46-2.1-.97-1.46-2.59-3.73-.97-1.29-.98-1.46-.81-1.14-4.53-6.48-4.38-6.64-4.7-6.48-3.56-5.19-3.08-4.69-2.27-3.41-4.21-6.15-5.02-7.29-7.3-10.54-3.24-4.53-3.24-4.54-2.43-3.4-3.72-5.35-4.7-6.48-1.3-2.11-1.3-1.78-3.4-5.35-2.27-3.07-2.1-2.92-5.03-7.13-3.56-5.18-1.13-1.62-2.44-3.57-4.69-6.8-2.92-4.54-.97-1.46-.49-.65-1.13-1.62-.98-1.29-3.72-5.67-4.7-6.65-1.62-2.27-2.76-4.05-2.1-3.07-4.54-6.49-1.13-1.62-.65-2.43-3.73-5.02-17.17-25.11-15.23-21.88-.49.65-5.35-7.45-2.75-4.05-2.27-3.24-3.73-5.51-4.7-6.81-3.56-5.18-3.57-5.02-3.56-5.19-2.11-3.08-2.59-3.56-1.62-2.43-1.62-2.27-1.78-2.76-2.59-3.72-2.11-3.08-2.27-3.24-3.24-4.7-2.27-3.08-2.75-4.05-1.79-2.75-2.26-3.24-3.57-5.19-3.24-4.54-3.08-4.53-2.27-3.24-.97-1.3 2.27 1.46-6-8.75-8.1-11.83-3.08-6.32-1.94-3.4-1.46-2.59-1.62-2.92-.97-1.78-1.62-3.08-2.11-3.73-3.4-6.96-1.3-2.43-1.78-3.89-2.1-4.7-2.44-5.35-.48-1.13-.49-1.14-.81-1.94-1.62-3.73-2.27-5.67-.48-.97-2.11-5.51-.48-1.13-2.6-6.48-2.43-6.16-1.29-3.08-.65-1.78-1.62-4.05-.97-2.92-.49-1.13-2.11-5.19-1.94-4.7-2.11-5.5-1.29-3.25-1.14-2.75-1.29-3.08 2.43-1.94 21.22 52.01 5.83 14.42.98 2.43.81 2.43 3.4 9.23 7.78 14.26 3.24 6.48 3.4-2.1.97 1.78 1.46 2.27 12.8-1.95 7.29-1.29-4.05-7.13 6-1.3 1.94-.32 27.55-4.21 25.92-4.22 14.26-1.62 40.67-7.45 3.89-.65 14.91-2.43 15.88-2.59 3.88-.49 25.28-4.21 5.02-.97 26.09-4.22 1.78-.32 21.07-3.24.97-.16.81-.16 1.94-.17.98-.16h1.29l1.46.16 1.46.17 1.3.48 7.12 3.4 2.92 6.16 13.45 20.58 39.7 57.52 51.52 70.8 4.54 1.79 2.75 2.43 2.11.32 4.54 4.54 3.89.81 3.24 2.91 14.09-1.29 21.07-5.35 2.91-.65 1.3-.16 2.76-.49.64-.16 5.84-2.27 5.51-.81 3.07-.32 3.08-.33 5.67-.32h5.35l2.43.16 3.73.33 2.43.32 1.13.16 2.43.49.98.16.97.33 4.7 1.29 11.18 3.57.65.32.97.32 3.72 2.11 15.24 9.56 8.26 5.18 3.08 2.76 5.34 4.86 4.38 3.89 6.64 10.37 1.78 4.53.65 7.94 6.48 6.65.49.65 6.48 11.01.65 10.05 5.02 11.5 5.51 4.21 5.19 4.7 2.43 1.46 10.53 7.29.97.81 6.32 5.03 6.97 5.34 5.99 17.18-2.27 12.31-2.59 3.08-1.29 2.59-.65 5.03-8.59 22.35-1.78 2.6-7.13-1.14-8.43-1.46 6.65-17.33 1.13-7.62 1.78-4.05 3.89-4.37.16-.49-.16-.65h-.48l-5.68 3.41-13.77 8.26-1.29.81-3.73 2.92-1.95 7.93-3.88 8.43-8.75 18.31-.65 1.3v.16l-6.97 14.74-.16 3.24-1.78 2.76 1.62 2.59-.33 4.05-.65 2.43-.16.49-3.4 12.31 1.3 4.54-2.11 9.23-.49 1.78-2.27 3.08-2.75 5.03 1.94 5.34-.48 3.4-3.24 2.6-5.51-.33 6.97 6.48 2.1 5.35 1.78 7.13 3.73 9.72 1.3 4.21 3.4 6 1.13 3.89 7.78-6 3.24 11.51 6.32 14.42 13.29 22.03 15.07 30.46 8.91 7.78 8.26 9.4-.32.65-4.05 7.77 8.1 8.59 3.56 4.86 10.7 14.1 20.58 10.53 10.37 31.92 1.94 1.94 2.11 2.11 4.86 3.24 6.64 3.56 5.02 3.89 5.68 2.43 3.56 3.73.49.49 2.26.97.33 1.62.16.32-2.27 1.95-4.53 1.13-3.41-1.3-3.4.65-1.94 1.46-3.41 4.7-.65 1.3-.48.81-1.46 2.75-.49 1.46-.64 2.91.48 5.84.49 5.34v6l4.37 8.1 5.19 4.54 3.56 4.37 3.24 1.95 3.08-.81 1.14-1.62.81-.81.97-.49 1.13.65 1.3 1.78.81 3.08-.49 5.99 4.05 14.42 2.11 12.8-1.46 22.85 17.02 6.32 2.1-.97-2.43 5.67 4.54 11.34 4.53 16.2 1.95 12.48v.32l-.32 1.78v3.41l-.49 5.02-.32.97 2.59 1.3 3.56 3.08 2.11 3.56 1.94 2.75 8.91 8.43 1.14 3.4-8.91 8.43 7.77 9.88 4.06 3.4 11.34 12.16 1.62 7.13-12.32 23.33-15.39 29.32 1.3 5.19.65 7.13-2.6 9.39-.97 2.44-1.78 2.59-1.95 2.43-2.91 2.59-2.6 1.62 11.51 14.1 10.21 5.18 8.26 3.57 3.4 1.45 4.38 1.79 23.33 6.32 1.3-.49.32-1.3-1.13-14.74 7.13-.81 11.66-1.95 11.18-1.94 12.32-1.78 15.88-2.59 15.06-2.6 14.59-2.43 11.66-1.94 39.05-6.48 18.47-15.07 1.79-2.27 5.83-4.37 2.92.32 2.27 1.78h1.13l18.8-.97 1.29-.32 1.95-.98 13.44-4.21.65 2.92.65 2.59.49 2.11 5.67 24.14 1.94 8.91 2.76 11.67 4.7 23.65 2.59 13.77 34.67-6.15 25.93-4.54 12.96-3.08 4.86 29.81.81 3.24.97 3.08.98 2.92 1.13 2.75 2.43 10.7 4.38 7.77 20.41 36.14-11.34 1.78-30.79 5.35-27.54 4.86-34.51 5.99-29.66 5.19-39.37 6.8-31.43 5.51-1.79.32-45.37 7.78-63.35 11.18-40.18 6.48z" stroke-linejoin="round"/></defs><use xlink:href="#e" fill="#6bacaf" stroke="#6bb4d2" stroke-width="5.76"/><defs><path id="f" d="M3497.28 1193.15l-5.02 1.46-11.02 2.11-33.38 4.7-11.83 1.78-35.64 5.83-11.99 2.11-13.13 2.27-50.55 8.58-9.56 1.63-40.35 6.48-13.28 2.26-57.04 9.24-12.15 2.27-70.97 11.66-63.35 10.21-12.32 1.78-29.81 3.57-7.94.81-3.4.32-7.46.81-9.72.81-5.02.33-9.24.81-7.78 1.29-32.4 5.03-35.81 5.02-2.27.32-9.4 1.14-3.89.65-2.43-2.11-23.65-19.61-32.73-27.22-.33-.32-35.48-28.68-36.78-30.14-13.61-12.31-1.3-3.73 3.89-25.43 1.62-11.02-25.12-18.63-1.94-2.11-11.83-11.83-17.66-16.04 3.08-5.83.48-.97-7.29-10.21-33.05-25.12-19.93-14.9-16.69-10.7-5.51-3.72-5.67-4.7-4.86-3.89-11.18-6.32-9.08-3.56-7.12-4.05-38.89-27.87-3.73.16-16.04 17.98-1.46 1.62-5.67-1.78-4.86-4.7 1.13-1.78 6.97-10.04 2.76-3.73 3.24-4.38 3.4-4.37 3.08-4.21 2.43-3.73 9.72-14.74 3.4-4.86.81-1.14 9.24-13.93 14.91-22.2 4.86-7.29 3.56-5.19 2.76-4.21 4.05-6.16 2.91-4.37 3.24-4.7 1.79-2.43 5.18-7.94 2.59-3.89 3.73-5.67 6.81-10.04.64-.98 5.51-8.26 4.22-6.8 1.94-3.08 5.18-7.62 6.49-9.56 1.94-2.91 17.18-25.93 1.13-1.46 3.4-5.83 2.92-4.54 24.79-37.26 3.56-5.51 14.1-21.23 3.89-5.67 2.75-4.21 19.61-29.16 22.85-34.19.64-.81 11.35-17.18 3.89-5.34 11.01-16.69 2.27-3.24 46.34-69.51 46.18-69.19 4.38-6.31 9.56-13.94 2.1-3.08 2.11-3.4 3.73-5.99.48 2.59 1.3 7.45.16-.32 7.29-10.54 3.73-5.5 2.11-3.41 2.75-4.05 18.96-28.19 2.1-3.4 8.11-12.48 7.77-11.83 59.63-88.95 7.13-1.13.97-10.05 4.7-7.77 7.45-11.35 82.96-123.3.81-.97.65-2.11 2.6-.48 5.99-.97 21.23-3.57 16.04-2.43 7.13-1.13 3.72-.49 13.45-2.11.97-.16.65.33 3.08-.65 15.88-2.59-3.08 5.34 57.36 96.08 4.54 2.76 5.51 6.64 15.55 26.25 2.27 1.62 4.86 8.1 2.59 2.75 6.16 11.02 3.08 3.89.81 2.27 4.86 6.97 1.62 3.56 10.69 18.63 11.51 17.83 4.54 11.66 2.26 2.43.49 2.92 9.24 16.36.97 5.68 3.24 5.5 2.27 8.92 1.62 1.94 2.59 12.8 1.13.65 3.25 15.23 3.56.16 2.27-.16 4.21-.81.65-.16.81 3.4.49 2.27.97 4.05.97 3.89 1.13 5.5.98 5.51.97 5.67.16.65.65 4.38.97 5.67 1.3 7.78.32 1.45 1.3 8.11.97 5.99.65 4.21.16.97.49 3.41.97 5.83 1.78 10.69 1.78 11.35.65 3.72 16.2 98.68.49 2.91 1.3 7.94 2.75 17.01 4.05 24.31 1.62 10.21 1.3 8.26 1.13 6.64 1.46 8.91 2.75 16.37 1.46 9.07 1.14 6.48 1.29 7.62.98 6.64.16.97.97 5.84.49 3.07 1.13 6.65 1.13 7.29.81 5.51 1.46 8.58 1.3 7.94.81 4.86.81 4.87.97 5.67.81 5.02.81 5.51.97 5.18 1.3 7.46.49 3.07.32 2.6 1.46 9.39 1.78 11.02 1.62 9.08 1.62 10.2.33 2.11 1.29 7.45.16 1.62.17.97 1.13 6.32 1.13 7.13.17.81.16 1.14.16 1.13.16.81.17.65.16 1.3.32-2.92.33-2.27.32 1.3.16.81.33 2.43.16.32.16 1.46.49 2.75.48 3.57 1.14 6.64 1.29 7.94.97 5.67.98 5.51.97 6.16.81 4.86 1.13 6.64.33 2.11.48 3.89.81 4.53 1.14 6.16.48 2.43.33 1.62.32 1.3.49 1.78.97-.16-.49 1.78.49 2.27.81 3.08.81 3.07 1.3 4.87.97 3.88.81 2.43 1.46 4.87 1.46 4.05 2.1 6.48 1.3 3.72 2.27 6 2.43 6.16 2.43 6.15 1.29 3.08 1.3 3.57.65 1.62 1.29 3.07 1.62 4.22.17.16 2.43 6.32 1.78 4.37 1.46 3.24 2.43 5.84 1.78 4.21.49 1.13 1.78 4.54 2.11 5.51 2.26 5.35 1.62 3.88 1.46 3.73 1.46 3.89 1.62 3.89 1.46 3.56 1.78 4.7 2.92 7.13 1.62 4.21 1.94 4.54.98 2.59 1.29 3.08 1.14 2.75 1.29 3.25 2.11 5.5 1.94 4.7 2.11 5.19.49 1.13.97 2.92 1.62 4.05.65 1.78 1.29 3.08 2.43 6.16 2.6 6.48.48 1.13 2.11 5.51.48.97 2.27 5.67 1.62 3.73.81 1.94.49 1.14.48 1.13 2.44 5.35 2.1 4.7 1.78 3.89 1.3 2.43 3.4 6.96-9.88-6.96-4.21 6.64-3.41 5.35-1.29-.33h-.65l-25.6 3.24-10.7 1.46-5.99 1.95-2.11.64z" stroke-linejoin="round"/></defs><use xlink:href="#f" fill="#09757a" stroke="#097d9b" stroke-width="5.76"/><defs><path id="g" d="M3011.19 2559.51l-55.25 9.89-76.16 12.31-60.11 9.07-98.36 15.4-162.84 26.08-31.75 5.67-26.25 4.05-69.35 11.51-1.95.16-8.59 1.3-15.39 2.27-170.13 26.08-26.74 4.21-4.37.81-26.74 4.54-26.25 4.38-27.54 4.69-29.81 5.03-27.87 4.7-27.71 4.69-26.41 4.54-28.03 4.7-26.74 4.54-27.54 4.37-29.01 5.19-26.73 4.37-25.44 4.38-2.59.48-27.87 4.7-65.46 11.02-95.28 16.52-5.67 2.11-125.9 20.9-14.09 2.76-20.26 3.24-21.71 3.4-88.31 13.61-44.72 7.45-61.89 10.7-13.78 3.4-2.91-1.46-.81-.32-1.14-1.14-.81-.81-.65-1.13-.48-1.46-.16-.97v-1.46l-.17-.97-.64-1.14-.49-.64-.65-.49 3.08-4.38-3.08-1.94-5.18-4.7-1.3-1.46-1.62-3.24-1.3-4.37-1.78-10.37-2.11-13.77-2.43-13.94-4.37-27.54-3.4-20.9-2.76-20.74-2.43-13.94-2.43-13.28-4.54-27.87-3.56-23.01-3.08-18.79-4.86-27.87-1.46-9.72-2.59-17.83-2.11-13.93-2.43-13.61-4.21-27.55-4.05-27.54-2.11-13.61-10.37-61.73-3.08-20.09-2.1-13.45-4.05-24.79-2.27-16.85-8.59-52.82-4.05-26.41-3.24-20.58 2.11-.97 1.45-.65 1.14-.81.81-1.3 28.52-4.53 66.43-10.86 25.28-4.05 57.35-9.23 13.29-1.79v1.79l.33 3.24 2.59 14.42 12.96 66.1 2.59 12.32 4.54 26.41 5.51 24.46.97 3.08.97.97 1.79.81 2.91.49 10.21 1.62 20.09 2.27 1.46.16 8.91-1.62.97-.49 1.95-2.1.81 3.4 4.21 11.83.97 3.4 1.62 8.59.81 2.59 4.38 9.07 2.27 4.05 1.29 1.3 2.6 1.14.97.16h.16l11.83-1.62h1.78l3.89.97 50.07-8.1 12.15-1.95 30.46-4.86 3.73-.32.16-.65 17.01-26.25 25.44-37.75 5.19-7.78 15.71-23.65 3.25-4.7-4.06-3.4-1.94-11.02-.49-3.24-5.67-19.61-2.75-2.59-6-11.99-8.26-21.55 1.62-20.74 1.62-4.53.97-2.6 2.11-5.99.16-6.97-1.62-5.99-.65-2.6 32.57-5.34 9.56-1.62-.16-1.62-.33-1.62-2.91-21.55-1.46-7.94-.97-5.67-1.78-11.83-.82-5.35-2.59-17.01-1.78-12.31-1.3-8.43-1.78-12.31-3.4-22.53-1.46-10.2-1.62-10.7-2.43-17.17-.65-5.19-1.46-11.01-3.24-21.88-2.75.16-14.1 2.11-32.73 5.67-38.89 6.32-10.37 1.78-.32-1.94-3.57-20.09-.97-7.29-3.24-20.09-.81-6.16-1.13-7.62-2.76-18.63-4.05-26.41-4.05-26.09-3.89-26.08-2.1-12.96-1.95-13.45-4.05-26.25-4.05-27.06-4.05-27.22-2.59-16.04-1.62-11.34-2.27-16.04-1.95-11.18-3.4-23.82-.65-3.89-2.91-18.31-1.3-8.42-1.62-10.53-.81-5.67-1.78-11.02-.81-6.16-1.46-10.21-1.46-8.1-.97-5.34-14.26 2.26-33.38 6-.65-3.24-.81.16-7.13 1.46-15.55 2.59-6.48 1.14-1.62.16-2.76-.16-2.27.16-4.37.48h-3.57l-1.94-.32h-.81l-1.46.32-1.13.81-1.95.65-18.14 2.92-19.61 3.4-19.28 3.73-26.9 4.53-1.46-.32-.65-.49-.64-.97-.65-3.56-.49-.81-.97-.49h-1.3l-2.59.49.16 1.46v.97l-.16 2.27-.48 1.78-.65 1.46-.81 1.29-1.62 1.3-2.27 1.13-2.11.49-48.12 7.45-110.18 18.31-30.79 5.67-1.62.16-1.62.33-1.94.16-.98-.65-.48-.65-1.46-5.67-.81-1.46-.16-3.88-.33-2.92-12.15-77.45-2.43-13.45-6.48-40.02-2.43-12.96-2.11-13.29-11.34-65.78-2.75-17.01-.49-4.7-.16-.65-.33-1.29-.81-1.79-1.94-8.91-6.48-38.88-4.7-28.52-4.05-25.92-.65-3.57-1.78-9.56-1.62-9.88-.65-3.24-2.92-10.7-.48-2.1-1.14-9.4v-2.59l.33-1.46.81-1.3.97-.64 2.27-1.14-3.89-23.82-3.89-22.68-3.08-21.87-5.51-31.44-.32-2.26-.16-2.27-7.78-48.77-3.73.48-3.56.49-2.92-18.63-2.11-12.48-1.62-9.56-.16-.32v-1.3l.49-2.59.16-.97.81-1.79.65-.81 2.27-2.59 2.59-1.78 1.46-.49 2.43-.48 23.17-3.4 38.24-4.87 23.33-3.4 1.13 6.48 1.3-.16-1.13-6.48-.49-2.75-.32-2.6-5.35-33.86-2.75-17.17-2.27-14.59-1.62-10.37-3.73-24.14-.16-1.13-3.08-18.15-1.3-8.42-1.78-11.18-2.27-14.42-1.46-10.37-2.59-14.75-2.11-12.8-1.62-11.99-4.53-27.38-4.05-25.11-.49-2.92-.81-6.48-2.75-16.69-3.89-23.33 2.59-1.78 19.77-3.08 5.83-.81 8.59-1.3 33.7-5.51 21.87-5.51 2.44-2.27 2.75-2.43-2.75-19.44-1.3-9.23-1.62-10.54-1.46-10.04-2.75-17.18-.49-3.24-.16-1.62.16-1.29.65-2.27.48-.97.65-.98 7.94-10.04 18.64-24.31 6.96-8.91 8.59-11.18.97-1.45.49-1.63.32-3.72 4.7 1.46 4.21.97 5.35.81 4.38.65 4.53.48 4.38.17h5.99l7.46-.17 7.29-.32h2.1l2.76-.16h1.3l13.93-.81 11.67-.65 6.64-.16 12.31-.33 36.95-1.94 3.24-.33 1.94-.16h2.92l12.15-.65 12.64-.64 10.21-.33 17.98-1.13 10.05-.49 6.64-.48 8.59-.65 8.59-.65 10.37-1.13 12.31-1.14 16.04-1.3 12.64-.81 8.1-.64 6.97-.81 6-.65 5.5-.65 9.73-1.46 4.21-.65 4.86-.81 17.99-3.07 5.5-.81 5.03-1.14 4.7-1.13 5.34-1.46 4.22-1.3 3.24-.97 5.34-1.94 5.84-1.95 7.13-2.43 5.51-1.78 4.37-1.46 3.89-1.13 3.89-.98 7.45-1.78 6.97-1.62 14.91-3.24 15.23-3.4 12.15-2.59 2.75-.81 5.84-1.3 4.86-.97 5.51-1.3 8.91-1.94 9.88-2.27 6.81-1.46 8.91-1.94 4.54-1.14 4.05-.97 5.83-1.46 4.86-1.62 5.02-1.62 3.89-1.46 3.41-1.13 2.43-.97.64-.33 5.51-2.27 5.67-2.59 6-3.08 6.48-3.56 6.97-4.21 8.1-5.19 9.4-5.99 24.79-16.21 43.26-28.35 15.72-10.21 1.62-.97 7.45-4.86 7.45-4.86 3.73-2.43 5.83-3.73 2.43-1.62 3.89-2.59.33 2.75.32.81.33 1.95 24.79-16.04 9.72-6.16 8.75-5.18 3.08-1.62 15.23-6.97 5.99-2.92 6.65-2.27 10.2-3.72 8.75-2.92 2.27-1.13 2.59-1.14 1.46-.81 5.03-1.78 14.25-5.51 3.57-1.46 3.73-.16 2.43 1.13 8.42 13.94 8.1 2.75 6.81 1.62 10.53.17 12.15-2.76 5.51-.81 5.19-1.13 6.8-.81.97-.17.17-.16h.81l.97-.32-.65-4.86-.32-.97 2.43-.49 22.36-3.89 21.87-3.89 1.14-.16 22.84-4.05 5.51-.97 6.32-.97 13.45-1.62 1.62-.17 2.11-.32 4.7-.81 6.48-1.14 25.27-4.37 22.36-4.05 31.76-5.51 4.38-.65 16.2-2.59 78.42-12.15.98-.16 22.84-3.57 35-5.51 7.62-1.46 8.26-1.62 9.24-1.78 12.63-2.1 5.03-.81 2.91-.49 46.83-7.62 45.21-7.29 2.59-.48 24.14-3.89 31.11-5.02 17.5-2.92.65-.16 21.55-3.41 1.46 4.06 5.18 1.29 4.7 24.14 9.08-1.94 1.94-.49 13.29-1.78 15.23-1.94 6.32-.81 5.34 1.45 3.89 15.23 1.46 1.14h2.92l2.91 12.47 10.86-1.78 11.67-1.62 20.57-3.24 6.97-1.46 10.7-2.1 6.8-.16 10.21-1.3 10.85-2.43 4.54.16 4.7.49 6.81-1.14 8.1-1.29 3.24-.49 1.94 7.45 8.1 23.34-.97 7.77 13.94-.81 6.32-.81 6.96-1.13 8.59-2.27 1.3.16 4.21-1.29-.16 3.4-.49 5.83-.16 6-.16 5.83.16 6.32.32 6.96.49 7.94 1.3 10.7 1.45 10.04.33 1.3 1.29 8.59 2.92 17.82-1.94 3.89-.65 3.08 1.62 6.48 2.92-.65 4.86 29.65 4.86 30.95.97 5.83-2.11 3.4-2.1 3.08-9.56 13.94-4.38 6.31-46.18 69.19-46.34 69.51-2.27 3.24-11.01 16.69-3.89 5.34-11.35 17.18-.64.81-22.85 34.19-19.61 29.16-2.75 4.21-3.89 5.67-14.1 21.23-3.56 5.51-24.79 37.26-2.92 4.54-3.4 5.83-1.13 1.46-17.18 25.93-1.94 2.91-6.49 9.56-5.18 7.62-1.94 3.08-4.22 6.8-5.51 8.26-.64.98-6.81 10.04-3.73 5.67-2.59 3.89-5.18 7.94-1.79 2.43-3.24 4.7-2.91 4.37-4.05 6.16-2.76 4.21-3.56 5.19-4.86 7.29-14.91 22.2-9.24 13.93-.81 1.14-3.4 4.86-9.72 14.74-2.43 3.73-3.08 4.21-3.4 4.37-3.24 4.38-2.76 3.73-6.97 10.04-1.13 1.78 4.86 4.7 5.67 1.78 1.46-1.62 16.04-17.98 3.73-.16 38.89 27.87 7.12 4.05 9.08 3.56 11.18 6.32 4.86 3.89 5.67 4.7 5.51 3.72 16.69 10.7 19.93 14.9 33.05 25.12 7.29 10.21-.48.97-3.08 5.83 17.66 16.04 11.83 11.83 1.94 2.11 25.12 18.63-1.62 11.02-3.89 25.43 1.3 3.73 13.61 12.31 36.78 30.14 35.48 28.68.33.32 32.73 27.22 23.65 19.61 2.43 2.11 35.81 29.97 8.27 6.64 30.46 24.47 4.05 2.59-1.46 3.57-.97 2.26-3.73-3.24-1.46 3.57-7.94 18.47-.81 1.78-1.45-.48-4.54-1.14-.16.33h-1.79l-3.56-.98-5.19-.81-6.31-.32-3.57.16-2.43.16-4.21.49h-1.3l-2.75-.65-6-3.24-10.21-5.51-4.21 8.91-2.11 4.22 1.3.81 11.83 6.48 4.7 2.43 2.27.65 2.1.48 4.7.49 7.62-.81h6.32l3.88.48 2.6.65 11.66-10.53-4.53 11.34-1.3 3.08 6.81-3.89.97 2.59 1.94 19.12 4.86 4.38-2.91 4.05-1.46 2.43-1.62 3.08-1.14 2.27-.97 2.59-.81 3.24-.48 3.56-.49 3.41-.16 3.24v2.59l.16 2.43.49 2.1.32 1.95.97 3.4.97 2.76 1.14 2.91 2.59 4.22 6.64 10.2 6.97 10.21.33.65h-1.46l-2.27 2.27-11.51 8.58-18.79 3.24-4.38.81-4.53.98.48 6.8.33 3.73.48 4.21-.97 36.78 3.73 36.29 15.55-.32 2.43-.65 1.3 2.76 2.92 6.15 3.24 6.32 2.1 4.22 4.38 8.75 1.13 2.26-3.24 2.11-10.04 9.72-7.13 6.81-4.86 2.91-3.89 2.27-.98 1.46-2.59 3.89-.81 1.46-1.13 1.62-.65.81-2.43 3.72-1.3 1.79v.16l-.97 1.29-2.92 8.92.65 9.23-2.1 6.81-1.3 3.24-.97 1.29-14.1 18.64-3.24 1.29-2.92 1.14-6.96 2.75-5.19.65-11.34 1.46-11.83 1.45 5.83 9.4.65.97 1.46 1.79 2.27 2.59 5.51 6.32 1.78 5.18 6.81 3.24 4.21-3.72 4.7-4.38 1.78-4.05v-3.24l1.78-2.59.16-.33v-.97l2.76-.48 19.44-3.08 5.19 4.7 3.72 5.67 2.43 7.13-.81 6.32v.81l-.64.97-4.38 7.29-6.48.97-10.53-1.78-1.14.97-.97.81.16 2.11 3.08 5.02 4.38 3.73 2.59.81 2.75 3.24 2.43 3.4.33 1.46 1.13 4.53 1.95 8.43 5.18 5.99 5.02 3.57 5.51 2.11 3.08 1.13 5.51 2.11 8.1 9.72 3.89 15.39-.32 5.02-.33 5.03-.16 2.1 3.89 16.85.49 2.43 1.29 5.51-.48 1.95.32 8.26-2.43 1.3-2.27 15.71-.16 11.67-2.59.65-1.46 13.28 1.46 7.62.81 4.05 2.91 6.97 1.62 1.45 3.73 19.77-2.43 15.07-12.64 5.35-5.02 3.07-6.32 16.69-6.48 4.54 1.62 3.4 4.37 5.35.33 1.94 9.07 12.32 1.78 9.88 7.78 57.84 7.62 67.08 5.51 38.08 12.96 104.18 3.24 21.39.49 3.24 7.61 50.39.49 3.89 6.15 36.78 5.51 42.93 13.61 93.65-5.18.81z" stroke-linejoin="round"/></defs><use xlink:href="#g" fill="#004249" stroke="#00465f" stroke-width="5.76"/></svg>