<svg width="384" height="465.6" viewBox="0 0 2880 3489" xmlns="http://www.w3.org/2000/svg" xmlns:xlink="http://www.w3.org/1999/xlink"><path fill="#fff" d="M0 0h2880v3489H0z"/><defs><path id="a" d="M1371.42 3231.9l-.32-7.95-.98-10.58-1.53-13.74-2.62-21.15-1.09-8.18-3.27-27.47-.87-7.2-.66-5.67-1.74-13.74-1.31-12.32-.98-11.56-.54-11.55-.22-11.45v-11.56l.32-11.34.22-2.83-6.1 5.99-1.31 2.51-1.96 40.67-3.27 12.1-3.71 8.29-1.64 8.83-2.72 6-2.51 1.31-2.4 1.09-6.76 3.59-4.36.33-1.74-.54-1.31-1.75-1.53-3.05-4.9-10.8-4.58-5.56-4.91-2.83-11.99-3.16-6.22-2.29h-4.03l-5.45 1.42-20.5 1.19-7.41 1.31-8.61-1.63-7.75-7.53-13.84 1.2-17.12 3.38-30.96 8.84-2.73 5.45-1.09 2.29-2.29 4.36-2.61 4.47-5.02 7.41-4.25 6.43-7.2 9.6-1.74 3.38-1.42 3.05-7.19 19.41-2.62 6.21-1.74 3.6-3.93 5.35-2.72 2.72-15.16 10.8-2.62 2.18-6.43 7.85-1.42-.11-1.3-.55-1.09-1.2-.99-.32-.65-1.2-.76-1.31-2.62-9.16-5.01-17.77-.77-3.82-.32-3.27.76-15.26-.44-7.42-.98-3.38-22.68 11.56-35.76 15.37-10.14 12.43-9.26-6.54 1.52 8.18.88 3.38.76 2.18 1.09 2.29-8.72 1.96-10.58 1.42-1.2-2.4-.65-1.64-17.01 7.09-45.14 16.79-24.31 9.6-5.99 14.39-27.37-10.47-6.98-2.62-8.17-3.16 3.27 7.42 1.41 3.16.55 2.07.54 1.64.22 1.63v.76l-.11 1.75-.54 1.53-2.07 2.94-.66.87-2.72 3.38-1.64 2.51-2.94 6.32-.44.55-1.09.32-1.53-.65-3.05-1.96-7.08-5.34-2.4-1.64-7.85-5.45-.33-2.51-1.2-4.14-10.47-17.23-16.68-27.15-8.83-13.52-3.7-4.8-6.22-7.3 5.45-9.81 3.71-5.67 5.89-8.62-28.57-45.9-102.37-164.2-3.49-5.89-1.64-3.05-8.28-9.38-4.36-6.1-24.21-35.22-54.18-76.65-1.09-8.61-1.2-5.67-1.42-3.71-.65-.87-1.64-.98-2.18-.22-5.12-.11-.44.33-142.6-206.94-32.17-54.19-48.84-82.21-14.72-24.86-19.4-17.23-2.62-2.29-11.01-18.21-30.09-36.74-9.92-12.21-5.67-10.69 57.56-10.14 44.7-8.06 8.83-.33 9.49-7.74 3.81 2.07 2.62.76 3.49.22 101.28-18.32 5.02-19.4 2.62.1 10.46 12.98 15.16 3.82.98.54 1.09-8.29.11 7.42-.98 6.87-.55 9.59.33 6.22 2.18 11.99 3.92 17.55 6.33 27.7 1.2 7.09.43 7.3-.11 4.91-.32 4.03-1.31 6.98-2.07 7.63-3.17 8.29-14.5 24.64-3.27 7.41-2.07 6.33-1.52 6.21-.99 6.76-.43 5.23-.33 8.29.22 5.34.87 6.33.87 3.49 1.31 4.36 3.71 10.03 1.74 4.03 8.18 16.25 1.31 3.16 2.18 6.76.76 2.84.98 5.88.66 5.24v1.52l.11 1.09-.77 14.83-.54 6.22-.66 10.79.11 3.71.44 4.25.87 5.23.65 2.95 1.75 5.56 1.42 3.27 4.58 7.96 3.05 4.14 7.19 7.85 2.62 2.51 11.34 9.27 3.71 3.27 11.12 11.55 5.77 7.86 5.13 8.28 3.92 7.2 2.73 5.67 6.87 14.28 2.51 4.8 2.39 4.03 2.95 4.14 3.16 3.93 4.14 4.47 2.07 1.64 7.64-8.62 2.72-4.14 3.05-6.98-3.48-3.49-4.8-5.67-.66-2.4-.76-3.49-.11-2.39.11-2.4.66-2.29 1.19-2.84 2.18-3.38 4.8-5.01 4.14-4.04 10.69-15.81 4.03-6.86 3.27-9.38 3.27-9.38 19.63-13.19-1.96-1.53-4.36-4.58-2.08-1.52-2.83-1.75-3.71-1.52-14.06-4.58-5.67-2.51-2.29-1.31-3.16-2.29-8.72-8.61-6.22-5.02-3.38-1.96-2.61-2.29-1.09-1.31-1.2-2.4-.55-2.29-.44-3.16-.32-6-.77-9.48-1.19-5.89v-1.09l.21-.65.88-1.31 8.06-9.38 2.29-4.03.98-3.6-.32-8.4 1.09-5.12 1.41-2.51 3.17-3.38 2.72-2.62 3.49-1.74.76-.22 10.47-2.18 3.38-2.51 1.74-1.52 15.05 20.82 6.11 8.29 14.28 18.86 6.97 8.72 19.08 24.64 9.93-8.94 1.3-.87.88-.22.98.11 2.94 3.6 2.07 2.4 15.59 21.26 4.36 6.54 14.72-13.08.87-.33 1.53.33-4.8-10.9 5.78-5.02 24.42-19.73 20.83-17.23 4.69-3.82 19.07-15.37 20.83-15.92 3.81-3.6 19.96 18.86 15.91 14.51 8.83 7.96 6.22 5.77 37.83 35 8.94 9.05 4.8 4.15 2.07.65 12.54 12.43 1.52 1.53 8.29 5.45 3.05 1.63 4.58 1.64 6.65 1.63 4.58.55 3.93.22 3.59-.11 3.27-.55 2.51-.43 10.47-4.69 7.3-3.6-1.74-4.14.87-1.97.87-3.27 3.27-8.06.11-5.35-.87-9.59-.44-7.09-.54-11.56-1.09-3.05-.66-1.63-2.5-3.28-1.86-1.3-5.67-2.62-6.32-3.93-2.51-2.07-2.07-2.4-2.94-4.36-1.42-2.94-.65-2.29-.55-3.6-.22-3.27-.87-2.18-.98-1.2-1.85-1.42-3.27-1.63-2.51-.98-7.85-4.04-2.4-2.07-4.69-5.89-1.52-2.72-1.2-2.84-.77-3.05-1.85-5.23-1.85-3.28-1.86-1.96-.65-.54-2.51-1.75-2.07-3.16-.87-1.74-2.18-1.2h-1.42l-.87-.44-1.31-1.63-1.53-3.38-1.31-1.2-1.85-.77-2.18-.54-2.4-1.75-1.52-2.07-2.08-2.18-1.2-.22-1.41.22-2.62 1.96-2.51.66-1.2.32-2.39 1.64-.99.22-2.07.11-2.18-.44-1.52-.76-1.09-.87-2.08-2.4-1.63-3.16-3.05-9.49-.55-3.6-.65-1.96-1.09-1.53-1.31-1.41-3.16-2.08-1.53-1.3-1.31-2.29-3.05-4.58-1.42-3.17-.87-2.83v-1.09l1.31-6.76 1.52-6.54 2.19-3.27 5.45-10.25 1.3-1.86 1.31 15.92 4.25 4.25 1.97.55.32.54.66.11 1.85-.65 5.89-7.96 15.81-22.46 3.16-4.58 3.82 3.16 9.04 7.09 7.96 6 4.36 2.5 5.13 5.13 5.89 2.72 3.7 2.4 1.31.77 4.25 2.07 3.06-3.16 2.61-1.53 1.75-.65 2.94-.55 11.56-.54 21.37-1.86 4.03-.11 2.62.22 16.68 5.34.54-18.1 5.02 2.18 11.55 5.13 13.52 5.45-.43-3.16-.22-2.73v-3.27l1.63-9.05 1.31-5.01 3.38-13.85 3.6-13.19 2.94-11.89.33-2.18-.22-4.58h.88l9.92-1.63 7.74-1.53 14.5-2.51 3.38-.32 3.92-.22 2.84.43 4.79 2.08 4.26 2.07-.33 11.88-1.96 16.68-.33 5.24-.76 3.59-1.75 6.22-11.99 42.41-1.96 9.05 9.37 1.42.11-2.62 3.27-.98.55-.11 1.63.66 1.86.87 2.29 3.16-7.31 7.63-5.67 7.74-2.94 16.03 14.72 5.56 9.92 4.26 11.01 5.45 6.1 3.92 10.04 6.98 15.48 10.79 12.1 8.51 20.49 14.28 6.11 4.36 10.14 7.09 12.21 8.29 1.85 1.63 10.36-14.5 10.36 7.41 4.36 3.17 11.88 7.96 7.2 5.12 9.48 6.43 6.11 4.58 4.14 3.16 6.87 5.02 16.79 11.45-3.38 5.45-30.74 50.7 3.27 6.87 1.52 2.51 2.4 2.83 1.53 1.74 27.58-44.59 4.8-7.41 6.1-10.14 1.75 1.2 1.2.87 16.68-27.59 1.96-3.27.55-.43.87-.11 1.85 1.09 4.69 4.47 27.36-44.7 7.42 6.43 8.83 8.28 9.27-14.39 5.99-7.41 12.98 7.74 2.18 1.2 1.63.54 3.16 1.2-.87 6-4.79 32.71-4.04 17.66-5.78 33.15-.87 5.56-5.78 34.02-3.16.76-2.62.76-22.02 5.78-6.65 1.64 2.51 8.61 1.85 7.09.98 4.03 5.89 24.64 1.96 8.51 2.73 11.77.43 1.31.22.87 1.09 3.82 1.53 5.67-.87 5.01-1.09 8.62-.77 10.36-.21 10.35.1 16.9 1.09 9.6.11.98.55 10.36.76 13.3.44 8.94.33 9.27.32 6.43 1.09 16.57.98 14.61.88 14.61 1.09 17.78.87 17.55 1.74 35.33.33 7.74 4.47.22 10.79.43v5.02l-.11 15.48-.65 10.68-2.29 19.74-1.42 10.68-1.74 13.52-.66 10.03-.21 5.24-.44 26.93-.11 1.96-1.96 38.82-3.16 42.95-3.82 32.28-3.16.65-3.38 1.2-2.94 1.31-2.73 1.53-.98.76-1.09.76-1.09.98-1.42 1.42-1.31 1.86-1.2 1.63-1.09 1.75-.87 1.41-.98 1.53-1.09 1.96-.98 1.53-1.31 1.63-1.09 1.31-1.31 1.42-1.31 1.09-1.52 1.09-1.53.98-1.2.66-1.2.54-2.72 1.2-3.49 1.31-10.69 3.71-5.67 1.96-4.36 1.52z" stroke-linejoin="round"/></defs><use xlink:href="#a" fill="#cee3e4" stroke="#cef5f5" stroke-width="5.76"/><defs><path id="b" d="M606.61 2694.27l-3.05 6.98-2.72 4.14-7.64 8.62-2.07-1.64-4.14-4.47-3.16-3.93-2.95-4.14-2.39-4.03-2.51-4.8-6.87-14.28-2.73-5.67-3.92-7.2-5.13-8.28-5.77-7.86-11.12-11.55-3.71-3.27-11.34-9.27-2.62-2.51-7.19-7.85-3.05-4.14-4.58-7.96-1.42-3.27-1.75-5.56-.65-2.95-.87-5.23-.44-4.25-.11-3.71.66-10.79.54-6.22.77-14.83-.11-1.09v-1.52l-.66-5.24-.98-5.88-.76-2.84-2.18-6.76-1.31-3.16-8.18-16.25-1.74-4.03-3.71-10.03-1.31-4.36-.87-3.49-.87-6.33-.22-5.34.33-8.29.43-5.23.99-6.76 1.52-6.21 2.07-6.33 3.27-7.41 14.5-24.64 3.17-8.29 2.07-7.63 1.31-6.98.32-4.03.11-4.91-.43-7.3-1.2-7.09-6.33-27.7-3.92-17.55-2.18-11.99-.33-6.22.55-9.59.98-6.87-.11-7.42-1.09 8.29-.98-.54-15.16-3.82-10.46-12.98-2.62-.1-5.02 19.4-101.28 18.32-3.49-.22-2.62-.76-3.81-2.07-9.49 7.74-8.83.33-44.7 8.06-57.56 10.14-12.54-22.13L180 2176.48l-85.58-101.4-11.13-17.44-55.16-72.29 30.53-41.65 2.07-3.71 1.96-3.16-1.85-.87-4.26-3.6-15.7-13.19-3.7-2.95-1.09-1.3-.98-1.53-.66-2.51v-1.63l.77-2.62 1.41-3.6 3.16-11.34 7.74 3.06 14.72 6.21 18.86 8.07 16.69-33.91 49.71-66.95 67.16-105.21 11.88-18.54 23.33-39.79 11.78-20.06 10.68-18.1 13.74-31.73 3.38-4.47 3.16-4.15 63.46-60.18 64.32-127.02 5.56 78.61 3.6 51.46-3.05 15.81 5.99 18.65-2.4.76-1.63.76-2.84 1.86-11.66 12.32-2.07 2.72-1.64 3.82-.22 3.27 1.2 7.85.44 3.38 2.4 5.34 2.18 2.84 2.83 2.94 6.11 5.45 3.27 1.75 4.25 1.96 6.54 1.64 11.23 1.63 3.6.65 2.18.99 2.29 1.41 2.51 2.18-3.17 4.47-4.9 6.87-1.09 2.51-.44 2.73.44 3.92 1.42 4.04 1.74 2.72 2.07 2.18 2.51 1.42 1.31.55 1.85.32 2.94-.22 3.6-1.52 1.86-1.53 2.83-3.38 2.51-4.36 1.52-4.25.44-1.64 2.83-.76 7.75-.11 2.94-.55 6-1.3 2.72-.33 2.18-.22 3.6.11 6.21.76 2.95.77 5.67 2.5 4.14 1.97 4.03 2.5 12.43 9.38 3.6 2.29 3.38 2.29 2.73 1.53 4.25 1.63-.77 2.4v2.51l.66 2.83 2.07 4.69 1.09 1.75 1.42 1.41 1.52 1.09 1.97.88 3.05.65 8.39.76 4.26-13.19 3.38 1.64 12.53 7.74 2.18 1.2 4.8 1.63 11.56 2.07 8.17 2.84 5.35 1.31 7.41.11.87 4.03.55 1.42 1.74 2.4 1.86 1.52 1.63.66 1.53.32 3.81-.1 11.01-1.2 6.44-1.31 2.29-.44 1.31-.65.87-.77.98-1.63.43-1.31.33-3.05-.54-5.24 28.23 17.45 8.4 15.26-22.9 6.76-26.49 7.31-13.74 3.49-2.72.76-1.75.98-1.74 1.31-.87 1.31-.77 1.53-1.41 3.16-.33 2.07v2.29l.22 1.85 1.52 7.09 11.78 52.55 7.09-1.52 11.77-2.51-1.96-8.51-.98-4.36-1.53-6.43-1.2-5.23-2.18-9.38v-3.05l.98-2.29.98-.98 1.86-.88 17.22-5.34 24.75-8.39 17.23-7.2 4.58 8.07 2.07 4.69.65 2.94.98 5.78 3.71 34.23 2.29 18.98-9.81-2.73-1.09-.76-.44-.33-.76-1.53-1.09-6.21-.98-3.6-1.42-2.4-2.07-1.74-4.26-1.31-2.5-.11-2.29.22-2.07.43-1.2.77-1.31 1.52-.76 2.18-.44 1.86.33 6.32.98 8.4.76 5.88 4.91 41 21.47 6.87 2.62 21.59-2.83 13.3 11.55 4.25 4.26 1.42 7.3.87 9.49-.22-4.37-33.25-3.16-21.48-15.81 1.2.22-2.07-.33-6.87-2.18-14.28 5.46-.33 7.3-.44 7.41-.76 13.09-1.2 18.86-1.96-2.84-17.67 51.03-28.78 1.31-8.29.54-3.59.22-3.17.87-17.66.22-3.93.43-2.5.66-2.73.76-2.83-7.08-6.55-5.89-5.45-6.76-6.97-7.52-8.4-18.87-23.88-6.65-9.48-2.61-3.49-.98-1.2-6.22 6.43-17.55 18.21-.22-5.89-.98-22.68v-3.38l.54-2.18 1.1-1.31 5.77-2.94.77-1.09.32-.98-.76-2.4-3.71-7.96-1.41-4.36-.22-1.75v-4.57l.43-2.4 1.42-3.71 1.75-2.62 2.94-3.81 5.01-5.67 4.8-5.78 13.52 11.99 2.07 2.18 1.42 1.86.98 1.85 1.42 3.71.87 4.14 1.42 12.65.65 2.61 2.07 3.28 2.62 3.16 4.69 4.79 2.61 3.06 2.08 3.16 12.75 22.9 2.51 3.7 1.42 1.31 1.2.87 5.45 2.08 2.72.76 5.13 2.18 1.85 1.31 2.4 2.4 6 7.08 2.61-3.27 1.09-5.23 1.53-9.16 1.42-8.07 47.2 16.79 23.66 9.16-.43-7.52.21-.44 8.84.11 2.07.11.65 11.67.44.76 1.31.11 7.74-.33 10.57-.22 10.69-2.07 23.22 81.45.65-2.07.33-2.08-.33-1.52 3.49.76 7.52 2.29 6.87.87 4.47-1.2 3.71-1.96 1.42-1.2 1.09-1.42 1.74-2.07 1.31-1.96 2.07-4.91.55-2.5 2.18-17.12.11-6.98-.44-6.87-4.58-34.13-1.74-13.19-.66-2.94-3.05-9.38-.65-2.4-.22-3.7.32-2.29 2.18-9.49 7.85 6.54 8.84 5.78 11.99 7.31 5.67 2.83-.77 20.17-.32 6.87.32 23.99.99 13.08 11.66 67.38 2.29 11.89.65 1.09.55.43 2.51 1.2 4.47 1.64 15.7-1.75 11.12-1.3.43 13.84.66 7.53 2.07 20.6 1.42 17.45.11 3.81-.22.77-1.2 1.31-1.2.43-1.53.11-1.74-.22 15.48 8.94 46.34-4.14 1.19-.55 7.42-.54-3.05-18.97-2.08-12.87-3.16-19.3 7.09-.98 14.5-1.52 2.18 1.2 6.76-.77 7.2-.87 1.41-.55 4.15-2.61 6.43-6.65 1.63-.98 3.6-1.2 1.75-1.2.54-.66.87-1.63.22-1.86-.11-1.96-.54-1.85-1.09-2.07-.44-1.86v-1.2l.55-1.85.76-1.31 1.42-1.2 3.48-1.96 2.29 16.03 7.2-8.4 9.81-34.45 11.12 10.03 2.29 1.74 2.84 1.53 8.39 4.25 8.61 2.95-13.3 41.75-1.96 7.64-1.63 4.79-1.31 4.04-2.29 7.3-.66 2.08-3.92 11.99-6.87 22.13-14.17 44.81-2.4 7.64-5.23 14.28-9.05 3.38 2.39.44 1.2.43.88.55.76.76.54.87.33.87.55 2.08-.11.43-.87 5.02-.77 7.08-.32 4.91.1 3.38.33 5.02 2.62 29.11.22 10.36v2.18l-.11 4.9-2.18 25.19-.66 10.03-.98 14.5-1.74 22.24-.98 14.29-.88 12.75-1.3 26.39-1.75 35.43-4.03 45.03-2.73 31.19-.98 9.92-1.42 16.35-.87 14.5-.54 4.58-.66 2.73-1.74 6.21-1.2 2.95-3.16 7.41-6.55 15.16-7.52 18.53-1.74 4.04-4.69 9.7-4.8 13.08-6.32 14.61-1.85 4.47-8.29-5.01-17.34-12.21-6.54-1.31-.32 3.16-2.29-3.16-1.86-.87-1.63-.66-.55.11-3.27.98-.11 2.62-9.37-1.42 1.96-9.05 11.99-42.41 1.75-6.22.76-3.59.33-5.24 1.96-16.68.33-11.88-4.26-2.07-4.79-2.08-2.84-.43-3.92.22-3.38.32-14.5 2.51-7.74 1.53-9.92 1.63h-.88l.22 4.58-.33 2.18-2.94 11.89-3.6 13.19-3.38 13.85-1.31 5.01-1.63 9.05v3.27l.22 2.73.43 3.16-13.52-5.45-11.55-5.13-5.02-2.18-.54 18.1-16.68-5.34-2.62-.22-4.03.11-21.37 1.86-11.56.54-2.94.55-1.75.65-2.61 1.53-3.06 3.16-4.25-2.07-1.31-.77-3.7-2.4-5.89-2.72-5.13-5.13-4.36-2.5-7.96-6-9.04-7.09-3.82-3.16-3.16 4.58-15.81 22.46-5.89 7.96-1.85.65-.66-.11-.32-.54-1.97-.55-4.25-4.25-1.31-15.92-1.3 1.86-5.45 10.25-2.19 3.27-1.52 6.54-1.31 6.76v1.09l.87 2.83 1.42 3.17 3.05 4.58 1.31 2.29 1.53 1.3 3.16 2.08 1.31 1.41 1.09 1.53.65 1.96.55 3.6 3.05 9.49 1.63 3.16 2.08 2.4 1.09.87 1.52.76 2.18.44 2.07-.11.99-.22 2.39-1.64 1.2-.32 2.51-.66 2.62-1.96 1.41-.22 1.2.22 2.08 2.18 1.52 2.07 2.4 1.75 2.18.54 1.85.77 1.31 1.2 1.53 3.38 1.31 1.63.87.44h1.42l2.18 1.2.87 1.74 2.07 3.16 2.51 1.75.65.54 1.86 1.96 1.85 3.28 1.85 5.23.77 3.05 1.2 2.84 1.52 2.72 4.69 5.89 2.4 2.07 7.85 4.04 2.51.98 3.27 1.63 1.85 1.42.98 1.2.87 2.18.22 3.27.55 3.6.65 2.29 1.42 2.94 2.94 4.36 2.07 2.4 2.51 2.07 6.32 3.93 5.67 2.62 1.86 1.3 2.5 3.28.66 1.63 1.09 3.05.54 11.56.44 7.09.87 9.59-.11 5.35-3.27 8.06-.87 3.27-.87 1.97 1.74 4.14-7.3 3.6-10.47 4.69-2.51.43-3.27.55-3.59.11-3.93-.22-4.58-.55-6.65-1.63-4.58-1.64-3.05-1.63-8.29-5.45-1.52-1.53-12.54-12.43-2.07-.65-4.8-4.15-8.94-9.05-37.83-35-6.22-5.77-8.83-7.96-15.91-14.51-19.96-18.86-3.81 3.6-20.83 15.92-19.07 15.37-4.69 3.82-20.83 17.23-24.42 19.73-5.78 5.02 4.8 10.9-1.53-.33-.87.33-14.72 13.08-4.36-6.54-15.59-21.26-2.07-2.4-2.94-3.6-.98-.11-.88.22-1.3.87-9.93 8.94-19.08-24.64-6.97-8.72-14.28-18.86-6.11-8.29-15.05-20.82-1.74 1.52-3.38 2.51-10.47 2.18-.76.22-3.49 1.74-2.72 2.62-3.17 3.38-1.41 2.51-1.09 5.12.32 8.4-.98 3.6-2.29 4.03-8.06 9.38-.88 1.31-.21.65v1.09l1.19 5.89.77 9.48.32 6 .44 3.16.55 2.29 1.2 2.4 1.09 1.31 2.61 2.29 3.38 1.96 6.22 5.02 8.72 8.61 3.16 2.29 2.29 1.31 5.67 2.51 14.06 4.58 3.71 1.52 2.83 1.75 2.08 1.52 4.36 4.58 1.96 1.53-19.63 13.19-3.27 9.38-3.27 9.38-4.03 6.86-10.69 15.81-4.14 4.04-4.8 5.01-2.18 3.38-1.19 2.84-.66 2.29-.11 2.4.11 2.39.76 3.49.66 2.4 4.8 5.67 3.48 3.49z" stroke-linejoin="round"/></defs><use xlink:href="#b" fill="#cee3e4" stroke="#cef5f5" stroke-width="5.76"/><defs><path id="c" d="M2118.24 3454l-1.2.87-1.3-1.74-2.08-2.51-10.68-11.12-20.28-20.5-3.92-3.6-6.44-5.34-4.36-2.29-2.29-.87-24.53-9.81-3.38-.98-6.87-.99-17.44-2.94-12.43-1.96-3.92-1.09-1.97-.77-1.85-.76-2.4-1.53-2.94 2.73-27.91 25.73-.44.44-5.78 4.03-8.06-.98-13.63-13.63-4.58-4.58.33-2.29-.22-5.12-.11-1.2.11-2.73.54-1.96.98-2.29 1.64-2.4 4.91-6.32.43-.55 3.05-4.25 5.67-7.85-31.29-4.36-15.04-1.74-14.28-.55-6.76.33-55.17-67.38-.98-.33-1.2-.55-1.2-.76-.65-.87-.55-.77-.54-1.19-.33-1.31-.22-1.31-.11-1.42v-1.53l.22-1.3.22-1.64.65-2.4.55-1.31.54-1.09.55-.87 1.2-1.74 2.18-2.62 2.72-2.4 14.61-9.59-44.26-44.92-43.18-31.95-49.28-66.95-13.62-8.94-42.41-97.25-42.96-72.94 25.19-10.14 1.19.87 1.2.11 1.64-.44 19.73-9.59 7.85-3.6 2.95-.55 1.2.22 1.41.87 12.76 10.14-4.91 10.25-1.96 3.82 21.48 27.04 3.38-3.6 10.03-9.7 2.18-2.07 15.15-14.72-4.36-3.6-16.79-13.74-6.98-5.67 4.69-10.03 17.88-38.27-5.34-3.71-18.42-12.54 20.6-43.39 13.52-28.35-4.8-2.72-5.99-4.26-21.48-17.99-3.82-3.27-3.49-3.27-2.29-2.29-11.55-13.63-6.43-8.07-15.27-18.42-4.36-5.56-2.94-4.58-2.18-4.25-1.97-4.37-.21-.76-6.33-17.12-1.63-3.38-1.64-2.72-2.51-2.84-3.48-3.27-3.6-2.07-2.95-1.31-2.72-.98-2.18-.22-2.4-.11-2.73.11-2.5.44-4.69 1.42-38.49 11.44-1.63.33-2.51.11h-1.42l-1.74-.54-3.82-1.75-2.51-1.85-1.63-1.64-1.53-1.96-1.96-3.38-1.09-1.96-1.09-2.4.44-.22 2.94-.98 4.58-1.31 21.04-6 2.83-.98 2.62-.87 3.82-1.53 3.16-1.52 3.38-1.64 3.05-1.74 2.18-1.42 2.29-1.64 2.18-1.63 3.05-2.4 2.95-2.62 2.29-2.29 2.83-3.27 2.51-2.83 2.51-3.38 2.18-3.16 2.29-4.15 1.63-2.94 1.53-3.38 1.09-2.51 25.73 37.62 10.9 16.68 3.27 4.47 10.69 12.97 2.4 2.73 8.5 8.07 6.98 5.89 2.61 1.85 1.86-2.84 1.31-2.5 2.07-3.71-7.85-6.32-6.44-6.11-5.45-5.02 6.44-8.39-12.21-11.88 22.67-23.66-8.94-6.55-8.61-5.67 12.1-14.17 7.41 4.8 18.87 12.32 1.74.22.98-.77.55-.98.32-1.09-.1-6.54 18.2-.87 19.19 1.41 1.53.11 15.04 1.2 9.49.87 27.14 2.19 12 .98-.11 5.78-.11 2.72.33.98.32.66.77.43 23.66 2.18-.77-10.68-1.42-18.97-2.18-3.38-1.63-4.8-1.85-6.32-1.42-10.25 5.56 3.38 4.36 1.63 1.31 3.38 1.74 3.16 1.42 4.8 1.2 8.07 20.71-.76 4.15 38.92 31.5 18.65 25.73-31.41 30.42-36.96 16.68-20.39 11.89-14.39 2.4 1.75 2.5 3.38.98 1.63 2.84 8.94 1.31 6 1.41 8.18.22 4.36-.43 12.54.11 3.16.65 2.51 1.85 3.16 3.06 9.05.54 5.01-.76 6-1.09 24.2.54 6.65.11 1.31.98 9.27 1.2 4.04 2.29 4.36 2.73 3.49 8.39 9.81 2.51 3.71 2.51 6.76 1.52 5.23 2.51 9.92.76 2.07 8.62 17.12 2.94 7.85 8.5-3.6 1.64-.76.98-1.2.76-1.53 2.4-5.56 3.06-12.54 2.61-9.48 4.36-18.21.55-3.71 1.09-6.87 1.09-4.25 1.63-3.05 42.96-121.57 2.4 4.36 3.27 6.54 18.42 34.57 13.96 27.36 4.58 7.85 8.07 14.94 4.47 8.72 6.87 13.41 5.34 9.16 4.47 6.54 4.58 4.58 1.41 1.64 1.42 2.18 3.05 6.54 1.75 4.25 1.74 3.93 1.42 5.01 2.18 5.67 4.14 9.71 3.06 5.01.98.98 1.74.66 4.47.65 9.05.55 1.85.43 2.95 1.53 1.09 1.42.54 1.31 1.09 3.7 1.53 3.27 1.53 1.86 1.41.76 1.31-.22 1.53-.54.87-.44 1.42.98 1.85 1.86 5.89 4.58 2.29 1.52 1.52.55 3.82.11 4.69-.88 4.9-.32 3.49.21 15.27 3.38 2.61.66 1.42.87 4.58 5.56.54.98 1.09 2.95 2.84 5.01 1.42 1.75 3.16 2.61.65 2.51.11 3.38.33 2.07.44 1.31 1.52 2.4.76.65 1.42 1.86 3.71 5.88 3.05.55 2.73 1.42 1.96 1.31 7.63 3.7.76-.11.99-.43.54.22.44.98 1.52 8.39 2.18 9.49.66.76.65.55 2.4.11.98 1.09 1.75 3.7 2.29 8.4 1.74 3.38 1.31 1.74 2.07 3.71 1.31 3.38.76 2.62 1.85 3.49 2.73 2.94 2.62 5.45 5.78 10.14 3.92 5.34 7.2 14.18 1.63 4.69.22 2.07-.22 5.67.33 3.81.98 4.15 2.07 5.45 2.51 5.56-3.27 3.71-40.67 46.01-10.14 11.66-13.19 15.27-37.5 41.32-5.35 5.89-4.9 5.34-13.74 15.92-9.7 11.12-5.24 5.56-2.72 2.84-13.52 14.93-5.23 5.89-3.82 5.02-5.02 6.87-7.74 11.66-4.57 7.63 2.18 1.75 1.3.76 1.2.66 1.2.43 1.09.33.77.11.98-.11.87-.22 1.09-.44 8.83-3.92-24.64 29.77-3.6.65-4.47 1.09-2.94 10.47-1.09 4.58-1.96 7.41-.77 2.62-2.94 10.68-5.02 21.48-1.3 5.67-.77 3.05-.98 5.35-.33 1.3-.54 2.18-.76 3.17-.88 3.7-1.96 9.93-1.2 5.67-.87 3.92-.44 1.09-.43 1.96-.33 1.64-.43 1.74-1.31 6.11-.98 3.82-.44 1.96-.44 1.63-.32 1.42-.44 2.29-.33 1.31-.32 1.74-1.75 7.74-.43 2.08-.77 2.29-.76 2.5-.87 2.29-.98 2.07-.99 2.19 19.85 34.56 1.85 2.83 18.43 30.53 1.52 2.4.33.44.22.32-3.93 5.02-.98 1.42-1.74 2.07-5.02 6.54-4.9 6.32-7.42 8.51-3.27 3.81-4.36 4.69-6.32 6.33-6.11 5.88-4.58 4.26-4.58 4.03-7.08 5.78-1.53-1.31-1.2 1.09-1.63 1.31-8.62 6.98-4.58 5.23z" stroke-linejoin="round"/></defs><use xlink:href="#c" fill="#9dc8ca" stroke="#9dd7f0" stroke-width="5.76"/><defs><path id="d" d="M1526.78 2998.03l-5.56 28.02-5.88-2.4-4.69-1.85-2.29-.98-.98-.65-.66-.55-.21-.87-59.86-7.96 2.29-19.74.65-10.68.11-15.48v-5.02l-10.79-.43-4.47-.22-.33-7.74-1.74-35.33-.87-17.55-1.09-17.78-.88-14.61-.98-14.61-1.09-16.57-.32-6.43-.33-9.27-.44-8.94-.76-13.3-.55-10.36-.11-.98-1.09-9.6-.1-16.9.21-10.35.77-10.36 1.09-8.62.87-5.01-1.53-5.67-1.09-3.82-.22-.87-.43-1.31-2.73-11.77-1.96-8.51-5.89-24.64-.98-4.03-1.85-7.09-2.51-8.61 6.65-1.64 22.02-5.78 2.62-.76 3.16-.76 5.78-34.02.87-5.56 5.78-33.15 4.04-17.66 4.79-32.71.87-6-3.16-1.2-1.63-.54-2.18-1.2-12.98-7.74-5.99 7.41-9.27 14.39-8.83-8.28-7.42-6.43-27.36 44.7-4.69-4.47-1.85-1.09-.87.11-.55.43-1.96 3.27-16.68 27.59-1.2-.87-1.75-1.2-6.1 10.14-4.8 7.41-27.58 44.59-1.53-1.74-2.4-2.83-1.52-2.51-3.27-6.87 30.74-50.7 3.38-5.45-16.79-11.45-6.87-5.02-4.14-3.16-6.11-4.58-9.48-6.43-7.2-5.12-11.88-7.96-4.36-3.17-10.36-7.41-10.36 14.5-1.85-1.63-12.21-8.29-10.14-7.09-6.11-4.36-20.49-14.28-12.1-8.51-15.48-10.79-10.04-6.98-6.1-3.92-11.01-5.45-9.92-4.26-14.72-5.56 2.94-16.03 5.67-7.74 7.31-7.63.32-3.16 6.54 1.31 17.34 12.21 8.29 5.01 1.85-4.47 6.32-14.61 4.8-13.08 4.69-9.7 1.74-4.04 7.52-18.53 6.55-15.16 3.16-7.41 1.2-2.95 1.74-6.21.66-2.73.54-4.58.87-14.5 1.42-16.35.98-9.92 2.73-31.19 4.03-45.03 14.72 1.75 27.26 3.6 14.39 1.63 3.16.22 5.01-.22 12.54-1.96 2.62-.66 14.5-3.48 29.43-8.73 17.23-4.79 6.11-1.75 19.62-5.67 4.14-1.2 8.07-1.96 3.16-.65 8.94-1.75 10.03 10.9 15.81 13.31 9.6-7.85 10.24-7.75 4.04-2.94 1.31-1.2.76-2.94-.22-2.51 4.47.33 1.64 1.09 1.41-.77h6.55l3.16.22 2.94.87 8.94 5.46-9.27 17.55-8.39 14.72-9.05 11.99 16.46 15.48 7.31 7.31 4.03 4.14-2.94 6.44-2.51 4.79 12.97 5.89 5.46 1.96 6.21 2.18 1.31-6.86.43-2.19 1.75-8.61 3.92-19.84 2.29-10.8 1.09-11.88.11-3.27.11-1.31-.11-3.38-.43-4.69 9.7 6 10.68 6.76 5.02 3.6 3.82 2.5 1.41.88 1.09.76 4.58 2.94 3.93 2.62 8.5 5.56 6.65 4.36 12.1 9.05-1.09-8.72-4.14-21.04 5.23-1.2 8.18-1.2 3.38 16.9 10.79-2.62 2.51-.87 15.48-5.34 4.69 14.82 1.96 8.94 1.97 7.42 1.63 4.9.65 1.64.55 1.74.87 1.86 1.09 1.85.66-2.61.65-2.4 6.98 3.27-1.86 5.45-1.52 4.69 1.52 2.18.77 1.2.65.98 1.42 1.31.54.76.77.76 4.03 4.26.44.43.54.55 1.09 1.31 3.49 4.03.98 1.2.88.98.43.65.55.77 1.3 1.85 12.87 15.27 11.12 13.19 8.5 10.25 3.82 4.47 1.09 1.63 8.72 2.84 5.24 1.74 8.72 2.84 1.31.43 1.2.44 3.05 8.5.43 2.4-.11.98-.54.77-.76.54-2.95 2.29-6.76 4.69 2.62 5.23 1.2 4.47.33.88 1.85 5.23 2.83 6.65 4.26 12.21 3.7 12.21.77 3.06 4.58 18.42 1.41 5.35 10.8-3.6 29.43-10.36 10.36 24.75 5.89 13.52 7.96 18.43 8.72 20.38-37.51 56.48 3.06.33 51.89 4.36 5.34.44 1.42 18.97.77 10.68-23.66-2.18-.77-.43-.32-.66-.33-.98.11-2.72.11-5.78-12-.98-27.14-2.19-9.49-.87-15.04-1.2-1.53-.11-19.19-1.41-18.2.87.1 6.54-.32 1.09-.55.98-.98.77-1.74-.22-18.87-12.32-7.41-4.8-12.1 14.17 8.61 5.67 8.94 6.55-22.67 23.66 12.21 11.88-6.44 8.39 5.45 5.02 6.44 6.11 7.85 6.32-2.07 3.71-1.31 2.5-1.86 2.84-2.61-1.85-6.98-5.89-8.5-8.07-2.4-2.73-10.69-12.97-3.27-4.47-10.9-16.68-25.73-37.62-1.09 2.51-1.53 3.38-1.63 2.94-2.29 4.15-2.18 3.16-2.51 3.38-2.51 2.83-2.83 3.27-2.29 2.29-2.95 2.62-3.05 2.4-2.18 1.63-2.29 1.64-2.18 1.42-3.05 1.74-3.38 1.64-3.16 1.52-3.82 1.53-2.62.87-2.83.98-21.04 6-4.58 1.31-2.94.98-.44.22 1.09 2.4 1.09 1.96 1.96 3.38 1.53 1.96 1.63 1.64 2.51 1.85 3.82 1.75 1.74.54h1.42l2.51-.11 1.63-.33 38.49-11.44 4.69-1.42 2.5-.44 2.73-.11 2.4.11 2.18.22 2.72.98 2.95 1.31 3.6 2.07 3.48 3.27 2.51 2.84 1.64 2.72 1.63 3.38 6.33 17.12.21.76 1.97 4.37 2.18 4.25 2.94 4.58 4.36 5.56 15.27 18.42 6.43 8.07 11.55 13.63 2.29 2.29 3.49 3.27 3.82 3.27 21.48 17.99 5.99 4.26 4.8 2.72-13.52 28.35-20.6 43.39 18.42 12.54 5.34 3.71-17.88 38.27-4.69 10.03 6.98 5.67 16.79 13.74 4.36 3.6-15.15 14.72-2.18 2.07-10.03 9.7-3.38 3.6-21.48-27.04 1.96-3.82 4.91-10.25-12.76-10.14-1.41-.87-1.2-.22-2.95.55-7.85 3.6-19.73 9.59-1.64.44-1.2-.11-1.19-.87-25.19 10.14-31.73 12.43-8.5 2.18-6.87 11.88-1.96 5.34-1.31 5.89-9.38 36.74-.43 1.53-17.34-9.16z" stroke-linejoin="round"/></defs><use xlink:href="#d" fill="#9dc8ca" stroke="#9dd7f0" stroke-width="5.76"/><defs><path id="e" d="M1515.99 2283.11l-3.92 20.28-6 13.09-.87 1.52-1.86.88-.87-.11-7.3-3.06-12.11-7.63-7.74-4.25-4.14-10.03-5.34-4.8-8.61 2.18-9.05-14.5-2.95-.98h-1.41l-6.33 1.64 11.12 18.75 9.49 16.03 6.98 13.19-3.93-3.27-14.39-13.3-11.78-10.25-7.95-7.2-6.22 8.29-8.94 11.99-12.43 16.25-2.07 2.72 20.39 17.88 12.32 10.36 2.83 2.29 6.65 6.22 5.78-8.51 7.31-11.77 5.99 5.01 17.01 15.48 3.38 3.28-10.79 8.72-6.33 7.19.11.99-3.27 6.43-2.61 1.2-.66.98-.22 1.2.22 2.29 3.27 9.27-3.49 5.56 10.8 3.38 4.47 1.3 9.59 2.62 10.9 3.05 2.29-21.8.98-6.76 1.86-10.25 1.74 4.8 2.29 5.34 2.84 5.89 1.96 3.38 5.78 9.37 8.28 9.6 4.04 5.56 4.36 6.87 3.38 5.34 2.29 4.03 4.25 7.53 15.59 27.91 15.37 26.17 7.96 11.45 4.03 5.88 7.75 10.47 5.56 7.52 2.5 3.71 2.18 3.27 1.31-15.05.22-11.33-3.92-20.07-2.84-10.35-6.76-18.54-7.85-3.05-12.32-20.83-2.72-14.72-6.11-20.39-9.81-15.91-3.27-5.24-6.33-10.14-9.15-13.95 9.7-3.38 19.08-5.67 12.1-3.6 11.99-3.49 4.47 15.26 28.57-7.52 15.26-3.49.55-5.01-4.8-12.21-9.49 2.61-9.81 2.95-12.64 3.81-5.57-15.15-8.61-20.17-1.63-6.33-6 1.53-6.32 2.29-1.09-1.86-22.35-15.26-5.89-3.93-2.4-1.41-2.51-1.53-2.83-1.2-6.22-2.61-6.32-2.19z" stroke-linejoin="round"/></defs><use xlink:href="#e" fill="#9dc8ca" stroke="#9dd7f0" stroke-width="5.76"/><defs><path id="f" d="M2271.31 3081.55l-1.09-.22-1.52-.54-3.82-2.4-1.85-1.42-2.18-2.18-5.78-6.43-3.05-3.71 9.7-11.12 13.74-15.92 4.9-5.34 5.35-5.89 37.5-41.32 13.19-15.27 10.14-11.66 40.67-46.01 3.27-3.71-2.51-5.56-2.07-5.45-.98-4.15-.33-3.81.22-5.67-.22-2.07-1.63-4.69-7.2-14.18-3.92-5.34-5.78-10.14-2.62-5.45-2.73-2.94-1.85-3.49-.76-2.62-1.31-3.38-2.07-3.71-1.31-1.74-1.74-3.38-2.29-8.4-1.75-3.7-.98-1.09-2.4-.11-.65-.55-.66-.76-2.18-9.49-1.52-8.39-.44-.98-.54-.22-.99.43-.76.11-7.63-3.7-1.96-1.31-2.73-1.42-3.05-.55-3.71-5.88-1.42-1.86-.76-.65-1.52-2.4-.44-1.31-.33-2.07-.11-3.38-.65-2.51-3.16-2.61-1.42-1.75-2.84-5.01-1.09-2.95-.54-.98-4.58-5.56-1.42-.87-2.61-.66-15.27-3.38-3.49-.21-4.9.32-4.69.88-3.82-.11-1.52-.55-2.29-1.52-5.89-4.58-1.85-1.86-1.42-.98-.87.44-1.53.54-1.31.22-1.41-.76-1.53-1.86-1.53-3.27-1.09-3.7-.54-1.31-1.09-1.42-2.95-1.53-1.85-.43-9.05-.55-4.47-.65-1.74-.66-.98-.98-3.06-5.01-4.14-9.71-2.18-5.67-1.42-5.01-1.74-3.93-1.75-4.25-3.05-6.54-1.42-2.18-1.41-1.64-4.58-4.58-4.47-6.54-5.34-9.16-6.87-13.41-4.47-8.72-8.07-14.94-4.58-7.85-13.96-27.36-18.42-34.57-3.27-6.54-2.4-4.36-42.96 121.57-1.63 3.05-1.09 4.25-1.09 6.87-.55 3.71-4.36 18.21-2.61 9.48-3.06 12.54-2.4 5.56-.76 1.53-.98 1.2-1.64.76-8.5 3.6-2.94-7.85-8.62-17.12-.76-2.07-2.51-9.92-1.52-5.23-2.51-6.76-2.51-3.71-8.39-9.81-2.73-3.49-2.29-4.36-1.2-4.04-.98-9.27-.11-1.31-.54-6.65 1.09-24.2.76-6-.54-5.01-3.06-9.05-1.85-3.16-.65-2.51-.11-3.16.43-12.54-.22-4.36-1.41-8.18-1.31-6-2.84-8.94-.98-1.63-2.5-3.38-2.4-1.75-11.89 14.39-16.68 20.39-30.42 36.96-25.73 31.41-31.5-18.65-4.15-38.92-20.71.76-1.2-8.07-1.42-4.8-1.74-3.16-1.31-3.38-4.36-1.63-5.56-3.38 1.42 10.25 1.85 6.32 1.63 4.8 2.18 3.38-5.34-.44-51.89-4.36-3.06-.33 37.51-56.48-8.72-20.38-7.96-18.43-5.89-13.52-10.36-24.75-29.43 10.36-10.8 3.6-1.41-5.35-4.58-18.42-.77-3.06-3.7-12.21-4.26-12.21-2.83-6.65-1.85-5.23-.33-.88-1.2-4.47-2.62-5.23 6.76-4.69 2.95-2.29.76-.54.54-.77.11-.98-.43-2.4-3.05-8.5-1.2-.44-1.31-.43-8.72-2.84-5.24-1.74-8.72-2.84-1.09-1.63-3.82-4.47-8.5-10.25-11.12-13.19-12.87-15.27-1.3-1.85-.55-.77-.43-.65-.88-.98-.98-1.2-3.49-4.03-1.09-1.31-.54-.55-.44-.43-4.03-4.26-.77-.76-.54-.76-1.42-1.31-.65-.98-.77-1.2-1.52-2.18 1.52-4.69 1.86-5.45-6.98-3.27-.65 2.4-.66 2.61-1.09-1.85-.87-1.86-.55-1.74-.65-1.64-1.63-4.9-1.97-7.42-1.96-8.94-4.69-14.82-2.18-6.66-2.83-9.04-5.67-17.89-3.16-9.37-2.84-8.73-.54-1.52-3.93-12.54-.54-2.29-1.31-4.8-.55-2.29-1.52-1.2-.55-1.3.66.21.43-2.18 5.56-12.97 1.86-3.82 3.16-7.19 5.12-11.67 1.09-2.29 1.64-4.14 1.2-4.58.43-3.16v-5.57l-.43-4.47-.55-2.39-.65-2.29-2.73-6.65-1.2-2.73-1.63-2.84-1.75-2.83-3.81-5.12-3.38-3.71 3.05-3.49 1.96-1.75 1.53-1.41 3.6-2.51-.88-1.64-3.05-5.23-25.73-47.97 1.75-.22 2.29 4.25 12.31-5.45.77-6.43.87-.22.98-.33 2.84-1.09 27.91-.65 5.67-5.35 1.52 8.4.66 3.6 4.47 22.46.87 4.47 2.62 11.34 2.5 10.57 2.07 7.53.66 2.29 1.85 6.21 1.09 3.71.98 2.94.55 2.07.87 2.84 1.42-.87 1.31-.88 4.68-3.16 3.71-2.94-9.27-11.89-1.2-2.29-.87-2.07-.54-3.7-.33-4.47 8.5.1 2.73-5.01 6.98-9.27 34.89-4.9 13.19-17.89 4.79-6.1 3.71-4.58 2.4-3.16-3.05.65 3.59-44.59 2.4-31.4 17.67-52.56 4.14-3.16 40.88-30.31 2.51-88.97 2.29-7.52 2.07-.33 6.43-2.18 4.69-1.63 5.89-1.97v-2.72l.87-2.95 2.51-6.43.65-2.62.55-3.27.54-5.34.33-1.53.98-1.85 1.31-1.09 12.54-5.34.87-.22 3.27 12.43 3.82 12.43 21.8-7.09 7.63-2.29 6.11-1.85 6.87-2.4 1.85-.55 1.09-1.41 4.8-1.53 9.05-2.73 11.77-3.59 9.92-3.06 35.55-9.81 2.5-.87 1.31-.33 4.69-1.42 4.25-1.3 3.05-.99 27.91-8.83 3.06-.98 4.36-12.65 9.48-31.83.88-4.26.32-2.83.55-4.8.11-4.36.32-7.74v-3.27l-.43-7.31-.87-8.06-1.86-19.09-.76-10.79-.11-6.76.11-7.96.33-8.28 2.29.21 1.19-.21 3.38-1.53 25.84-12.54 4.69 41.54 1.31 13.52 2.51 26.6 11.23-.54 4.79-.44 16.68-1.2 3.28-.65 3.27-1.2 2.61-2.18 2.84-4.03.43-.99 2.07-4.36 3.93-10.25 1.96-5.01 4.91-11.12 1.52-.98 2.29-.98 2.18-.66 1.97-.54 1.41-.33 4.58 7.41-4.79 1.97-4.04 1.52-2.51 1.2-2.18 1.2-.98 3.16-2.83 23.33-.33 6.44.22 2.07.54 1.74 4.47 7.75 3.49 11.12.22 1.41-.33 6 .66 4.36 7.41-2.51 14.07-5.12 3.49-1.2 1.52-.54 1.96-.77 6.11-2.29 3.71-1.52 8.61-3.38 10.68-3.71 6.98-2.4 14.72-4.8 9.81-3.49.66 1.86 1.74 4.9 3.38 5.02 23.66 32.49 10.14 31.29 3.49 6.98 3.81 4.8 20.39 72.29 44.59 114.59 5.78 8.94 3.05 5.34 1.86 4.8 4.14 11.77 3.92 8.83 1.42 3.06 1.64 4.25 2.07 6.32 3.16 7.31 2.18 4.14 2.4 6 1.63 3.38 1.75 2.4 2.72 3.05 5.13 2.83.87 1.1.87 1.63.98 3.27.44 4.91-.65 9.27.98 10.03 1.2 6.54.54 2.94 2.29 10.8 2.07 7.52 1.53 4.03 3.6 6.55 4.03 6.32 1.31 2.4 3.05 10.25 2.62 5.56.87 1.52 2.83 4.47 2.19 4.04 1.19 2.62 1.2 4.57 1.09 4.8 2.18 7.96 1.09 3.05 2.95 6 4.9 8.51 2.19 3.16 2.83 3.38 2.62 2.18 3.05 2.18 3.92 3.38 2.08 2.18 1.19 1.96.33 1.31-.65 3.05-1.09 2.18-.22 1.64.33 2.4.65 2.4 1.53 3.49 13.62 17.99 27.04 42.41 21.04 32.93h.55l3.05-1.31 6.87-3.82 5.56-3.6 2.73-.98 2.5-.65h1.42l1.86.87.76.76.87 1.53.98 2.4.11 1.09-.44 1.96-.98 1.31-2.39 1.64-.99.21-8.17-1.41h-1.2l-1.64 1.2-2.18 3.16-.11 1.41 1.86 7.64v1.52l-.22.55-.55.54-2.29.77 35.76 58.76 19.63 32.39 1.63-.33 1.42-1.53.98-.43 2.4.43.98.44 1.96 1.09 4.04 3.05 3.38 2.73 2.4 2.51h.43l.98 1.52 4.15-.32 4.9-6.11 1.31.87 1.64.77 8.61 5.01 7.41 4.14 4.8 2.95 3.49-8.29 4.25-9.81 1.31.76 19.62 4.04 2.29-2.84 37.29 5.89 9.27-9.81.11-.33 1.41-.55 3.6.88 2.94.76 8.4.22 7.52-.44h9.27l3.82-.65 64.21 6.54 25.95 2.62 8.61.87-6.98 51.79-3.05 22.89-5.12 19.19 21.8 33.26-19.29-3.82-99.22 87.77-25.84 22.79-35.1 41.98 8.28 6.21-5.99 9.49-1.09 2.07-1.2 3.16-.44 2.18-.54 5.23-.33 7.31-.55 4.47-1.85 4.69-11.12-12.21-4.25-4.91-11.67 11.34-17.55 30.31-20.82 28.02-14.72 17.45-114.15 107.61-29.66 27.91-21.15 39.69-13.63 25.62-10.13 9.82-46.34 51.68-82.1 91.8z" stroke-linejoin="round"/></defs><use xlink:href="#f" fill="#6bacaf" stroke="#6bb4d2" stroke-width="5.76"/><defs><path id="g" d="M1671.68 2071.27l-1.42.87-.87-2.84-.55-2.07-.98-2.94-1.09-3.71-1.85-6.21-.66-2.29-2.07-7.53-2.5-10.57-2.62-11.34-.87-4.47-4.47-22.46-.66-3.6-1.52-8.4-5.67 5.35-27.91.65-4.36-12.1-1.1-2.73-.43-1.2-.55-1.52-.54-1.09-6.65-16.14-3.6-8.5 8.5-1.2 22.79-2.08 8.18-.65 3.27-.33-1.42-6.1-1.53-5.67-1.85-6.33-1.85-5.45-1.42-4.03-1.09-3.16-1.53-4.15-1.09-1.96-1.96-4.25-1.09-2.18-2.4-4.69-3.38-6.21-1.52-2.62-.55-.98-2.18-3.49-3.6-5.78-7.63-11.34-8.18-12.65-10.35-15.7-5.35 2.62-6.65 3.05-7.96 3.71-4.9 2.29-2.29 3.27-2.18 1.96-3.93 1.53-2.94 1.52-9.38 3.93-2.83 1.09-2.4.87-9.16 3.16-1.52.33-1.75.76-9.92 2.62-1.31-2.62-.87-1.19-.98-1.2-.98-1.2-1.42-.66-11.01-13.84-2.84-4.04-1.96-2.72-2.07-3.93-2.4-6.32-3.27-9.27-.33-1.09-.54-1.64-2.62.88-3.27.54-.98-.44-2.18-1.3-5.67-2.73-2.4-.76-20.71-5.56-.11-1.42 1.09-17.12.22-3.49-.44-3.38-1.09-4.03-7.09-17.23-4.03-8.83-2.73 1.64-1.63 1.63-.87 2.62-2.18 12.64-.99 5.78-.76 5.24-2.72 20.82-8.73-2.29-22.89-6.21-24.53-6.87-10.47-3.16-7.41-3.27-1.75-.88-8.06-5.34-15.59-11.67-11.13-9.04-5.88-4.91 2.61-10.9 1.75-10.04.43-8.28-.1-5.56v-1.42l-.99-6.76-2.29-9.49-10.03-34.56-4.9-18.53-6.98-25.52-2.4-9.7-.87-6.11-.33-5.56.55-20.49.43-4.58-.43-1.09.33-4.04.76-11.45.11-1.2.11-1.09-2.84.66-1.96.32-6.54 9.49-15.48 22.46-12.65-.65-10.58-1.31-8.83-1.09h-2.4l-2.94 1.09-.87.87-.44.98-.22 3.27.99 11.56.65 2.94.87 1.75 1.2 1.52 2.29 1.75.98.98.55 1.53.65 4.25 2.84 24.31h-7.64l-3.05-.21-6.98.1-4.36.66-1.09-21.37-.32-3.93-.44-1.52-1.31-4.8-.43-.87-.66-.44-1.09-.33-2.4-.21-12.1.87-22.02 1.42-1.42-3.93-1.42-3.38-2.72-6.11-2.62-5.56-5.23-9.7-3.38-5.89-4.69-7.85-5.12-9.16-2.73-7.19-1.96-7.63-1.97-12-1.85-14.28-1.74-7.85-3.38-12.54-6.98-27.37-1.96-5.88-.22-.66-4.03-9.59-2.84-7.09-4.25-12.43-3.16 2.29-3.27 1.64-3.49 1.19.11 15.16 1.96 5.56 2.4 6.76 2.07 3.49 1.31 2.83 5.88 28.46-12.75 2.84-1.96-2.95-1.2-1.85-.98-2.84-.44-3.38-.87-5.77-.66-2.19-1.31-1.74-1.63-.44-3.71-.1-3.49.76-33.79 1.09-9.93.87-8.39.44-5.67.65.98-2.51.55-2.4.43-3.81-.65-12.1-1.75-20.5-1.74-19.08-.65-10.69.54-3.7 2.29-6.66.22-1.74-.11-2.62-.11-1.52-1.63-18.21-.66-4.91-5.89-31.4-4.79 3.93-7.42 5.99-26.05 21.26-10.14 8.18-5.02-18.21-2.61.98h-1.75l-2.4-.32-10.9-1.64-4.58-.98-4.14-.87-4.69.54-12.32 3.38-7.52.99-3.71 1.09-5.34 1.85-1.64.76-2.83 2.84-.98 1.52-3.82 10.36-3.49 11.45-19.4-78.18-3.49-14.93-4.69.43-4.36 1.2-4.25.55-4.26.54-12.97.77h-1.53l-2.61-.11-4.91.43h-4.47l-1.74.22-5.56.98-1.75.33-5.34.98-6.98-.44-15.26-1.74.43-2.29-.21-3.49-1.97-25.62-2.5-40.02-8.83.33-5.24.11-28.89 1.09-19.51-75.67-2.08 4.69-.21 2.95-5.24.1-11.55.44-10.47 2.84-6.76 4.03-6.21 7.41-4.04 7.2-1.85 6.54.33 6.65.87 10.58-7.53.33-27.14-51.9-2.95-5.24-14.39-25.73-16.46-30.53-4.25-6.65 8.83-15.04 60.18-103.47 41.32-71.64 9.6-20.17-1.2-8.29 18.42 7.64 7.52 4.36 3.6 2.51 5.67 4.9 6.98 7.85 7.96 8.4 2.18 2.4 4.36 3.92 3.71 2.62 9.59 6.32 11.88 6.76 6.55 4.36 4.9 3.6 3.6 3.05 3.6 3.82 3.81 5.02 11.67 18.86 3.81 5.78 7.96 10.14 8.94 10.25 3.82 4.68 2.07 2.51 2.73 4.04 1.2 1.85 2.94 5.23 9.27 17.23 2.18 3.71 6.76 10.25 1.63 1.96 1.31 1.63 62.47 25.95-.11 1.53.22 1.2 4.58 8.61 1.42 2.18.87.66 2.07.11 3.27-.33 10.9-2.73 6.11-2.18 3.05 9.49 4.25-1.53 4.26-1.2 10.46-1.52 6.65-.44 1.09.11 4.15.33 5.99 1.09 8.18 2.29 2.62.98 13.62 5.01 4.58 1.2 9.6 1.42 4.9.33 7.2-.44 2.29-.22 6.87-1.74 3.05-.76 3.6-1.2 3.05-1.31 3.82-2.07 2.94-2.08 7.09-5.67 8.39-7.74.66-2.29 5.77-5.12 3.38-2.73 3.06-2.18 2.39-1.52 3.06-1.64 2.18-.87 5.99-2.29 9.05-2.62 5.56-1.63 1.42 2.5 2.73 4.8 5.12 8.4 5.56 8.17 6.32 8.84 15.7 21.8 4.36 6.11 8.84 12.32 1.41 1.85 5.89 8.29 2.83 4.03 14.18 18.43 10.79 14.94-3.81.54-3.82.11-30.64 5.45.77 7.2.22 5.12-.55 1.2-.44.66-.43 1.2-.11 1.74.98 5.56.55 5.45.21 5.13-.32 3.49-.22 4.14-.77 1.96-.1 1.2.65 4.91.98 10.36.55 4.9.87 8.07v2.29l-.66 2.94-.1 1.86.65 4.47 1.85 7.08.98 5.56v4.37l.88 4.03.54 1.53 1.31 2.5.87 3.06v.98l-1.85 4.47-1.85 3.05-2.95 7.52-1.31 1.53-1.2 2.07-.32 1.42.11 2.51.43 1.52.87 1.86 1.42.87 2.18.22 1.31-.66.76-1.74-.76-3.16-.11-1.53.33-1.09.54-.65.55-.22 1.2.43.43.55.44 1.74-.11 2.29-.76 3.17-.77.98.33.98-1.52 6.43-.66 4.47-.33 1.53-1.09 1.09-3.38 1.2-1.96.11-3.05-.88-9.7-4.47-.99-.87-1.19-2.18-.66-2.18.44-7.85v-2.4l-.44-.87-1.2.44-2.18.21-28.67 4.47-1.09-2.18-1.31-1.74-1.53-.98-3.92-1.42-3.38-1.96-1.53-.44-1.42-.76-7.63-2.18-7.19-1.53-13.63-1.42-1.85.66-.77 2.72v2.95l.55 6.87 1.63 11.34 1.09 9.05.11 4.36-1.09 3.92-8.5 5.02-1.31 2.51 1.85 3.27 4.26 4.36 16.13 16.46 3.49 2.51 27.04-1.09 1.74-2.62 8.07-22.46 2.4-14.39.43-2.62.99.11 3.81.44 2.62 3.27.87 3.6v3.92l-2.18 20.28.22 4.58-.11 5.34-1.53 1.2 1.09 6.44.22 1.63 2.51 2.62.33.76.87.87 1.2.77 6.21-.33-2.94-11.99.98-.99 3.92-6.1 6-1.53 1.85.22 1.53 3.16 1.2 8.29 1.2 5.45 1.74 7.09.22 1.2 4.91 13.63 25.07 1.19 3.49-.32.98-.11 2.62-.33 8.61-.87 5.34-.55 8.18-.54 9.7-.44 6.11-.65.87.11-1.96 15.04-1.64 13.42-.87 10.24.33 10.58.76 12.32 1.31 6.22 1.96 7.08 6.98 14.18 3.16 5.78 1.42 3.27 2.07 2.07 2.4 1.09 2.07 1.52.87.88.88.87.43.76.44 3.38.11-1.09 2.61-12.97.99-6 1.09-4.91 3.48-13.52 4.47-17.55 9.27-35.11 1.2-6.21 1.74.43 3.17.77 14.5 4.68 3.81 2.19 5.67 3.38 4.58 3.05 2.4 1.96 5.89 8.4 4.25 6.76-25.62 22.57-.22.54 56.91 21.48 25.19 7.31-1.31-3.28-2.62-4.47-7.74-11.23-4.69-7.52-7.63-10.79-3.27-4.69 2.29-1.96 2.51-1.86 2.72-3.49 2.95-2.72 2.18-1.53 3.16-1.85 1.74-.77 5.13-1.85 5.45-1.74 2.18-.77 1.74-.76-4.14-10.36-8.29-19.84-3.7-9.05-2.07-5.56-.33-.77-.22-.87-1.85-7.85-1.53-5.78-1.74-7.19-1.53-7.09-1.2-7.2-.33-1.74-1.3-9.49-.88-5.77-.98-5.67-1.2-5.24-1.41-5.01-1.42-4.26-1.75-4.47-1.96-4.36-1.85-3.7-2.62-4.58-2.62-4.04-2.72-3.81-2.4-3.06-1.2-1.63-2.4-2.73-.43-5.89-.77-8.5-.65-5.34-1.2-6.11-2.94-11.56-2.29-6.54-3.93-10.14-2.51-5.45-2.5-4.8-3.71-6.54-2.94-5.01-3.06-4.8-.54-.87-1.96-2.62-.66-.98-4.36-7.09-6.98-11.66 31.4 27.91 18.65 30.85 16.35 23.44.54.88 11.02 7.41 15.04-12.65 3.82.44 5.12.22 1.96.11 4.04-.88 5.01-1.63 28.35-9.38 24.09-7.08 18.87-4.8-.22-6.54-1.31-20.39-.87-12.11 8.94 2.08 11.23 1.41 1.74.11 2.62-.32 5.56-1.64 3.7-1.85 4.04-2.84 9.7-9.81 3.93-2.62 1.96-.65 2.4-.66 5.01-.43 4.04.76 3.59 1.31 1.86.87 9.37 6.43 2.51 2.08 4.04 4.14 1.41 2.73 2.18 4.79 1.97 5.24 1.41 3.27 9.92 25.73 5.78 14.83 5.67 12.75 5.78 15.27.44 1.85.32 4.14-.54.77-.55 2.18-.32.87-.77 1.31-1.63 1.53 8.83-1.42 10.03-1.53 3.16-.11 8.94-9.48 15.7-17.01 3.49-3.16 7.63-6.65 4.14-4.15 5.35-4.9-2.08-3.71-11.44-22.03-1.86-3.7-24.53-46.34-10.25-19.74-7.08-13.84-3.27-4.47-11.34-13.85-17.01-22.79-3.05-4.03-9.92-10.36-2.51-3.49-3.38-4.03-4.58-6.98-2.07-3.6-3.49-5.45-5.45-7.09-4.04 4.47-1.52 1.75-10.36 4.47-6.21-6.87-3.49-2.51-8.4-11.23-2.61-8.83h-1.86l-1.85.22-2.29.43-3.27-1.31-2.18-3.16-.98-2.5.32-1.97-4.68-10.9 3.38-2.51 2.94-2.61 4.36-4.69 12.32 14.72 17.99 19.73 2.18 2.94 10.25-11.44 13.52-10.14-11.45-13.74-3.05-4.25-6.11-8.51-.54-1.74.11-1.75.43-1.09 1.42-1.09 9.27-5.67 12.32-7.08 4.47-2.73 1.96-1.74 3.49-3.71 3.6-4.25 12.21 12.64 5.45 5.67 13.84 23.23 5.78 7.3.98 2.73.66 1.09.87.65 1.63.66 2.4 1.41 1.53 1.53 1.09 1.64 1.53 1.52 1.63.77.76.76 1.53 2.72 2.07.77 9.81 2.4 7.31.65 4.91 1.74h1.85l.98-.32 2.51-1.64 2.51-3.92 1.63-1.2 2.94-1.42 2.18-1.85 3.82-5.45-.65-3.17-1.09-9.7-.11-7.31.32-5.01 1.31-5.89 1.2-3.27.55-1.2 2.72-3.27 4.69-3.92 4.36-4.91 1.86-3.16 2.07-4.69 1.09-3.16.98-4.04.76-5.23.22-4.04-.33-2.5-.43-1.2-1.2-1.53 1.85-.11 6.43-.43 8.83-.55h5.46l7.74.11 1.3-.33 2.84-1.31 4.9-3.05 18.98-13.95 3.27-2.19 4.58-3.05 7.19-4.9 1.96-1.64-11.55-8.72-7.09-6.65-.98-.11-7.09-2.29-4.47-.98-17.88-2.95-2.94-.98-5.67-2.51-2.84-2.29-3.16-3.27-3.16-4.68-2.18-4.37-1.09-3.59-.87-6.22v-9.81l-5.67-.33-9.05-2.51-3.49-1.63-3.38-1.86-3.05-1.96-4.47-3.71-3.93-3.7-4.68-5.24-5.67-6.43-2.62-3.71-.98-1.96-1.09-2.29-.98-2.83-7.31-30.2-7.41-26.28-2.51-8.29-1.2-3.16-7.09-13.85-4.36-6.54 8.83-10.25 6.44-7.85 1.2-1.41 1.41.43 6 4.36 17.23 10.8 6.97 5.01 6.22 5.45 2.94 1.64 2.07 2.83 1.42 2.95 2.29 5.89 2.29 8.17.65 1.31 2.84 3.05 1.42 1.97.1 1.09-1.09 3.38v1.09l.33 1.09.87 1.31.77.76 2.18.98 3.92 3.82 5.24 9.16 1.85 1.41 1.85 2.18 5.13 7.31 1.31 1.42 3.05 2.39 8.28 5.13 2.84 1.53 2.61.76 1.97.33 4.79 2.5 7.2 5.78 3.71 2.29 1.41 1.09 1.53 2.07 1.42 1.42 1.31.98 1.63.22 1.53-.54 1.74-2.29.87-.77 1.09-.32 1.31.43 1.09.66 1.86 2.07 1.74 1.31 1.53.65 1.41.11 2.84-.87.87.21 2.29 1.53 1.64 1.53 3.27 4.36.87.54-6.11-.76-1.09 3.16-5.34 1.75-2.61 3.16 11.99 3.92 5.67 5.13 2.61 2.62 7.53 1.63 5.34 2.94 1.63 2.4 3.49.11-.32-1.63 7.19 1.96.55 3.38.98-.65 1.31-.11 1.2.21 17.44 9.16.44-.87 2.18-2.73 3.27-1.41h3.05l3.49 1.52 3.38 2.62 3.27-9.05 34.45 57.79 1.74-13.3.44-5.56 1.85-7.96 1.31-5.24 21.48 32.17v.43l.11 2.73.33 1.74.87 1.53.54.98.99.44.43 1.2 1.09.98 1.42.65 1.09-.65 1.31-.22 1.31.76 1.41 1.75 1.2 1.2 1.42.54.98 1.96.76 2.62.88.44h.43l2.51 4.36 2.29 2.94 1.63.98.99.33 1.41-.33 1.97-2.4 2.18-1.3 4.36-2.08 6.76-3.92.65-.98.33-1.42v-3.49l.33-.43 5.99-2.4 2.62-.55.43.22.44 2.07 3.27 5.45 6.76 6.33 1.53-.33 2.18-2.94 3.05-3.49 5.78-4.69 3.27-2.95 1.96-2.07.98-1.09 6.65-6.21 7.96-6.54 2.62-1.86 8.07-3.16 2.94-.87 2.94-2.07 7.2-3.71h3.6l2.18-.33.98-.65 1.2-.33h1.42l5.12-.98 1.53.22.43-.22 2.18 1.74.87.44.99.11 1.63-.33 2.07-.98 3.49-4.14 1.31 3.05 1.53.44 1.41 1.52 1.42.22 1.09 1.2.87 2.18.55 3.49 4.14 13.41.44 3.16v4.36l-.44 17.01.44 4.47 1.52 4.69.77 2.18 1.09 2.51.32 2.07-.21 1.75-.66 1.41-.98 1.31-1.74 3.49-.11 2.07.87 4.04 1.42 3.7.98 1.97.43 1.96-.21 1.53.32 1.85.44.98.87.55 6.65 1.85 1.31-.22 1.09-.43 2.62-3.82 2.07-1.64 1.96-.76 1.96-.11 2.62.11 5.56 1.42 2.94 1.09 3.6.98 2.07.11 1.42-.33-1.42 6.65-2.07-.11-1.63-.43-9.16-4.15-1.75-.21-1.85.32-1.74.88-1.09.98-2.29 3.92-6.98-2.51-3.71-.76-2.18.98-.98-.11-2.94-.43-5.89-.44-4.47.22-4.8.98-8.17 2.51-4.47 2.18-4.91 2.83-5.45 4.15-16.25 14.17-5.45 5.13-1.96.21-4.25 2.95-2.07 1.31.43 1.09.33 1.09-.87.43 4.9 10.91 6.11 13.84 23.44 58.77 2.07 5.23 7.85 18.1 61.71 165.84 27.8 74.58 11.34 34.01 1.31 2.95 14.5 34.45 18.97 50.37 32.16 84.61-.87 5.56.65 4.47-9.81 3.49-14.72 4.8-6.98 2.4-10.68 3.71-8.61 3.38-3.71 1.52-6.11 2.29-1.96.77-1.52.54-3.49 1.2-14.07 5.12-7.41 2.51-.66-4.36.33-6-.22-1.41-3.49-11.12-4.47-7.75-.54-1.74-.22-2.07.33-6.44 2.83-23.33.98-3.16 2.18-1.2 2.51-1.2 4.04-1.52 4.79-1.97-4.58-7.41-1.41.33-1.97.54-2.18.66-2.29.98-1.52.98-4.91 11.12-1.96 5.01-3.93 10.25-2.07 4.36-.43.99-2.84 4.03-2.61 2.18-3.27 1.2-3.28.65-16.68 1.2-4.79.44-11.23.54-2.51-26.6-1.31-13.52-4.69-41.54-25.84 12.54-3.38 1.53-1.19.21-2.29-.21-.33 8.28-.11 7.96.11 6.76.76 10.79 1.86 19.09.87 8.06.43 7.31v3.27l-.32 7.74-.11 4.36-.55 4.8-.32 2.83-.88 4.26-9.48 31.83-4.36 12.65-3.06.98-27.91 8.83-3.05.99-4.25 1.3-4.69 1.42-1.31.33-2.5.87-35.55 9.81-9.92 3.06-11.77 3.59-9.05 2.73-4.8 1.53-1.09 1.41-1.85.55-6.87 2.4-6.11 1.85-7.63 2.29-21.8 7.09-3.82-12.43-3.27-12.43-.87.22-12.54 5.34-1.31 1.09-.98 1.85-.33 1.53-.54 5.34-.55 3.27-.65 2.62-2.51 6.43-.87 2.95v2.72l-5.89 1.97-4.69 1.63-6.43 2.18-2.07.33-2.29 7.52-2.51 88.97-40.88 30.31-4.14 3.16-17.67 52.56-2.4 31.4-3.59 44.59 3.05-.65-2.4 3.16-3.71 4.58-4.79 6.1-13.19 17.89-34.89 4.9-6.98 9.27-2.73 5.01-8.5-.1.33 4.47.54 3.7.87 2.07 1.2 2.29 9.27 11.89-3.71 2.94-4.68 3.16-1.31.88z" stroke-linejoin="round"/></defs><use xlink:href="#g" fill="#6bacaf" stroke="#6bb4d2" stroke-width="5.76"/><defs><path id="h" d="M1417 1510.96l-25.19-7.31-56.91-21.48.22-.54 25.62-22.57-4.25-6.76-5.89-8.4-2.4-1.96-4.58-3.05-5.67-3.38-3.81-2.19-14.5-4.68-3.17-.77-1.74-.43-1.2 6.21-9.27 35.11-4.47 17.55-3.48 13.52-1.09 4.91-.99 6-2.61 12.97-.11 1.09-.44-3.38-.43-.76-.88-.87-.87-.88-2.07-1.52-2.4-1.09-2.07-2.07-1.42-3.27-3.16-5.78-6.98-14.18-1.96-7.08-1.31-6.22-.76-12.32-.33-10.58.87-10.24 1.64-13.42 1.96-15.04-.87-.11-6.11.65-9.7.44-8.18.54-5.34.55-8.61.87-2.62.33-.98.11-3.49.32-25.07-1.19-4.91-13.63-.22-1.2-1.74-7.09-1.2-5.45-1.2-8.29-1.53-3.16-1.85-.22-6 1.53-3.92 6.1-.98.99 2.94 11.99-6.21.33-1.2-.77-.87-.87-.33-.76-2.51-2.62-.22-1.63-1.09-6.44 1.53-1.2.11-5.34-.22-4.58 2.18-20.28v-3.92l-.87-3.6-2.62-3.27-3.81-.44-.99-.11-.43 2.62-2.4 14.39-8.07 22.46-1.74 2.62-27.04 1.09-3.49-2.51-16.13-16.46-4.26-4.36-1.85-3.27 1.31-2.51 8.5-5.02 1.09-3.92-.11-4.36-1.09-9.05-1.63-11.34-.55-6.87v-2.95l.77-2.72 1.85-.66 13.63 1.42 7.19 1.53 7.63 2.18 1.42.76 1.53.44 3.38 1.96 3.92 1.42 1.53.98 1.31 1.74 1.09 2.18 28.67-4.47 2.18-.21 1.2-.44.44.87v2.4l-.44 7.85.66 2.18 1.19 2.18.99.87 9.7 4.47 3.05.88 1.96-.11 3.38-1.2 1.09-1.09.33-1.53.66-4.47 1.52-6.43-.33-.98.77-.98.76-3.17.11-2.29-.44-1.74-.43-.55-1.2-.43-.55.22-.54.65-.33 1.09.11 1.53.76 3.16-.76 1.74-1.31.66-2.18-.22-1.42-.87-.87-1.86-.43-1.52-.11-2.51.32-1.42 1.2-2.07 1.31-1.53 2.95-7.52 1.85-3.05 1.85-4.47v-.98l-.87-3.06-1.31-2.5-.54-1.53-.88-4.03v-4.37l-.98-5.56-1.85-7.08-.65-4.47.1-1.86.66-2.94v-2.29l-.87-8.07-.55-4.9-.98-10.36-.65-4.91.1-1.2.77-1.96.22-4.14.32-3.49-.21-5.13-.55-5.45-.98-5.56.11-1.74.43-1.2.44-.66.55-1.2-.22-5.12-.77-7.2 30.64-5.45 3.82-.11 3.81-.54-10.79-14.94-14.18-18.43-2.83-4.03-5.89-8.29-1.41-1.85-8.84-12.32-4.36-6.11-15.7-21.8-6.32-8.84-5.56-8.17-5.12-8.4-2.73-4.8-1.42-2.5-5.56 1.63-9.05 2.62-5.99 2.29-2.18.87-3.06 1.64-2.39 1.52-3.06 2.18-3.38 2.73-5.77 5.12-.66 2.29-8.39 7.74-7.09 5.67-2.94 2.08-3.82 2.07-3.05 1.31-3.6 1.2-3.05.76-6.87 1.74-2.29.22-7.2.44-4.9-.33-9.6-1.42-4.58-1.2-13.62-5.01-2.62-.98-8.18-2.29-5.99-1.09-4.15-.33-1.09-.11-6.65.44-10.46 1.52-4.26 1.2-4.25 1.53-3.05-9.49-6.11 2.18-10.9 2.73-3.27.33-2.07-.11-.87-.66-1.42-2.18-4.58-8.61-.22-1.2.11-1.53-62.47-25.95-1.31-1.63-1.63-1.96-6.76-10.25-2.18-3.71-9.27-17.23-2.94-5.23-1.2-1.85-2.73-4.04-2.07-2.51-3.82-4.68-8.94-10.25-7.96-10.14-3.81-5.78-11.67-18.86-3.81-5.02-3.6-3.82-3.6-3.05-4.9-3.6-6.55-4.36-11.88-6.76-9.59-6.32-3.71-2.62-4.36-3.92-2.18-2.4-7.96-8.4-6.98-7.85-5.67-4.9-3.6-2.51-7.52-4.36-18.42-7.64 31.4-21.58 16.13-13.09 1.31-4.69 8.83-15.04 14.61-25.52 5.12-9.37 4.47-7.09 6.44-9.38 3.59-3.92 10.14-33.69 22.68-36.85 21.48-26.39 22.02-25.29 43.18-74.36 19.84-26.72 27.25-36.96 21.05-31.94 23.98-37.51.98-1.53 30.2-48.63 24.64-39.57 31.29-46.67 2.29 3.6 2.07-.11 17.34-33.25 26.27-50.6 5.13-8.61.76-.87 7.63-9.05 16.57-16.46 1.09-2.51.77-4.15-.77-2.72.55-2.62 27.36-37.83 6.22-10.14 13.08-30.86 7.2-3.81.76-1.97 3.93-29.76 12.21-12.54 1.41-1.42.44-1.31 4.25-11.34h8.83l.44 8.51.11 3.16 11.23-6.54 18.2 40.56 5.78 5.23 13.41 13.2 32.49 45.68.77 5.89.43 3.05 1.86 17.77.87 11.12.22 6h4.03l1.85.11 1.97-.33 1.85-.22 5.56-1.09 5.78-1.63 7.52-2.07 21.15 28.78-.76 4.14.22 2.84.43 2.72.87 2.19 1.42 2.83 19.95 28.68 2.07 1.96 1.64 1.09 3.05 2.51 1.75 1.85 8.94 16.03 1.41 1.52 2.08.44 2.07.22 4.79-.87 81.88 111.53 22.02 35.98 6.33-3.27 2.07 4.69 7.3 18.1 3.17 9.27 1.41 6.32 9.27 12.21 10.58 13.85L1649 550.5l5.34 7.52 43.61 61.06 15.16-.87 3.7.87 7.64 1.85 7.41 5.67 2.4 1.86 4.03 6.65 3.16 10.36-5.77 25.84 1.3 1.96 12.21 18.1 19.63 24.53 84.6 108.27 54.73 66.94-1.31 5.24-1.85 7.96-.44 5.56-1.74 13.3-34.45-57.79-3.27 9.05-3.38-2.62-3.49-1.52h-3.05l-3.27 1.41-2.18 2.73-.44.87-17.44-9.16-1.2-.21-1.31.11-.98.65-.55-3.38-7.19-1.96.32 1.63-3.49-.11-1.63-2.4-5.34-2.94-7.53-1.63-2.61-2.62-5.67-5.13-11.99-3.92 2.61-3.16 5.34-1.75 1.09-3.16 6.11.76-.87-.54-3.27-4.36-1.64-1.53-2.29-1.53-.87-.21-2.84.87-1.41-.11-1.53-.65-1.74-1.31-1.86-2.07-1.09-.66-1.31-.43-1.09.32-.87.77-1.74 2.29-1.53.54-1.63-.22-1.31-.98-1.42-1.42-1.53-2.07-1.41-1.09-3.71-2.29-7.2-5.78-4.79-2.5-1.97-.33-2.61-.76-2.84-1.53-8.28-5.13-3.05-2.39-1.31-1.42-5.13-7.31-1.85-2.18-1.85-1.41-5.24-9.16-3.92-3.82-2.18-.98-.77-.76-.87-1.31-.33-1.09v-1.09l1.09-3.38-.1-1.09-1.42-1.97-2.84-3.05-.65-1.31-2.29-8.17-2.29-5.89-1.42-2.95-2.07-2.83-2.94-1.64-6.22-5.45-6.97-5.01-17.23-10.8-6-4.36-1.41-.43-1.2 1.41-6.44 7.85-8.83 10.25 4.36 6.54 7.09 13.85 1.2 3.16 2.51 8.29 7.41 26.28 7.31 30.2.98 2.83 1.09 2.29.98 1.96 2.62 3.71 5.67 6.43 4.68 5.24 3.93 3.7 4.47 3.71 3.05 1.96 3.38 1.86 3.49 1.63 9.05 2.51 5.67.33v9.81l.87 6.22 1.09 3.59 2.18 4.37 3.16 4.68 3.16 3.27 2.84 2.29 5.67 2.51 2.94.98 17.88 2.95 4.47.98 7.09 2.29.98.11 7.09 6.65 11.55 8.72-1.96 1.64-7.19 4.9-4.58 3.05-3.27 2.19-18.98 13.95-4.9 3.05-2.84 1.31-1.3.33-7.74-.11h-5.46l-8.83.55-6.43.43-1.85.11 1.2 1.53.43 1.2.33 2.5-.22 4.04-.76 5.23-.98 4.04-1.09 3.16-2.07 4.69-1.86 3.16-4.36 4.91-4.69 3.92-2.72 3.27-.55 1.2-1.2 3.27-1.31 5.89-.32 5.01.11 7.31 1.09 9.7.65 3.17-3.82 5.45-2.18 1.85-2.94 1.42-1.63 1.2-2.51 3.92-2.51 1.64-.98.32h-1.85l-4.91-1.74-7.31-.65-9.81-2.4-2.07-.77-1.53-2.72-.76-.76-1.63-.77-1.53-1.52-1.09-1.64-1.53-1.53-2.4-1.41-1.63-.66-.87-.65-.66-1.09-.98-2.73-5.78-7.3-13.84-23.23-5.45-5.67-12.21-12.64-3.6 4.25-3.49 3.71-1.96 1.74-4.47 2.73-12.32 7.08-9.27 5.67-1.42 1.09-.43 1.09-.11 1.75.54 1.74 6.11 8.51 3.05 4.25 11.45 13.74-13.52 10.14-10.25 11.44-2.18-2.94-17.99-19.73-12.32-14.72-4.36 4.69-2.94 2.61-3.38 2.51 4.68 10.9-.32 1.97.98 2.5 2.18 3.16 3.27 1.31 2.29-.43 1.85-.22h1.86l2.61 8.83 8.4 11.23 3.49 2.51 6.21 6.87 10.36-4.47 1.52-1.75 4.04-4.47 5.45 7.09 3.49 5.45 2.07 3.6 4.58 6.98 3.38 4.03 2.51 3.49 9.92 10.36 3.05 4.03 17.01 22.79 11.34 13.85 3.27 4.47 7.08 13.84 10.25 19.74 24.53 46.34 1.86 3.7 11.44 22.03 2.08 3.71-5.35 4.9-4.14 4.15-7.63 6.65-3.49 3.16-15.7 17.01-8.94 9.48-3.16.11-10.03 1.53-8.83 1.42 1.63-1.53.77-1.31.32-.87.55-2.18.54-.77-.32-4.14-.44-1.85-5.78-15.27-5.67-12.75-5.78-14.83-9.92-25.73-1.41-3.27-1.97-5.24-2.18-4.79-1.41-2.73-4.04-4.14-2.51-2.08-9.37-6.43-1.86-.87-3.59-1.31-4.04-.76-5.01.43-2.4.66-1.96.65-3.93 2.62-9.7 9.81-4.04 2.84-3.7 1.85-5.56 1.64-2.62.32-1.74-.11-11.23-1.41-8.94-2.08.87 12.11 1.31 20.39.22 6.54-18.87 4.8-24.09 7.08-28.35 9.38-5.01 1.63-4.04.88-1.96-.11-5.12-.22-3.82-.44-15.04 12.65-11.02-7.41-.54-.88-16.35-23.44-18.65-30.85-31.4-27.91 6.98 11.66 4.36 7.09.66.98 1.96 2.62.54.87 3.06 4.8 2.94 5.01 3.71 6.54 2.5 4.8 2.51 5.45 3.93 10.14 2.29 6.54 2.94 11.56 1.2 6.11.65 5.34.77 8.5.43 5.89 2.4 2.73 1.2 1.63 2.4 3.06 2.72 3.81 2.62 4.04 2.62 4.58 1.85 3.7 1.96 4.36 1.75 4.47 1.42 4.26 1.41 5.01 1.2 5.24.98 5.67.88 5.77 1.3 9.49.33 1.74 1.2 7.2 1.53 7.09 1.74 7.19 1.53 5.78 1.85 7.85.22.87.33.77 2.07 5.56 3.7 9.05 8.29 19.84 4.14 10.36-1.74.76-2.18.77-5.45 1.74-5.13 1.85-1.74.77-3.16 1.85-2.18 1.53-2.95 2.72-2.72 3.49-2.51 1.86-2.29 1.96 3.27 4.69 7.63 10.79 4.69 7.52 7.74 11.23 2.62 4.47 1.31 3.28z" stroke-linejoin="round"/></defs><use xlink:href="#h" fill="#09757a" stroke="#097d9b" stroke-width="5.76"/><defs><path id="i" d="M1440.87 2208.65l-15.81-13.31-10.03-10.9-8.94 1.75-3.16.65-8.07 1.96-4.14 1.2-19.62 5.67-6.11 1.75-17.23 4.79-29.43 8.73-14.5 3.48-2.62.66-12.54 1.96-5.01.22-3.16-.22-14.39-1.63-27.26-3.6-14.72-1.75 1.75-35.43 1.3-26.39.88-12.75.98-14.29 1.74-22.24.98-14.5.66-10.03 2.18-25.19.11-4.9v-2.18l-.22-10.36-2.62-29.11-.33-5.02-.1-3.38.32-4.91.77-7.08.87-5.02.11-.43-.55-2.08-.33-.87-.54-.87-.76-.76-.88-.55-1.2-.43-2.39-.44 9.05-3.38 5.23-14.28 2.4-7.64 14.17-44.81 6.87-22.13 3.92-11.99.66-2.08 2.29-7.3 1.31-4.04 1.63-4.79 1.96-7.64 13.3-41.75-8.61-2.95-8.39-4.25-2.84-1.53-2.29-1.74-11.12-10.03-9.81 34.45-7.2 8.4-2.29-16.03-3.48 1.96-1.42 1.2-.76 1.31-.55 1.85v1.2l.44 1.86 1.09 2.07.54 1.85.11 1.96-.22 1.86-.87 1.63-.54.66-1.75 1.2-3.6 1.2-1.63.98-6.43 6.65-4.15 2.61-1.41.55-7.2.87-6.76.77-2.18-1.2-14.5 1.52-7.09.98 3.16 19.3 2.08 12.87 3.05 18.97-7.42.54-1.19.55-46.34 4.14-15.48-8.94 1.74.22 1.53-.11 1.2-.43 1.2-1.31.22-.77-.11-3.81-1.42-17.45-2.07-20.6-.66-7.53-.43-13.84-11.12 1.3-15.7 1.75-4.47-1.64-2.51-1.2-.55-.43-.65-1.09-2.29-11.89-11.66-67.38-.99-13.08-.32-23.99.32-6.87.77-20.17-5.67-2.83-11.99-7.31-8.84-5.78-7.85-6.54-2.18 9.49-.32 2.29.22 3.7.65 2.4 3.05 9.38.66 2.94 1.74 13.19 4.58 34.13.44 6.87-.11 6.98-2.18 17.12-.55 2.5-2.07 4.91-1.31 1.96-1.74 2.07-1.09 1.42-1.42 1.2-3.71 1.96-4.47 1.2-6.87-.87-7.52-2.29-3.49-.76.33 1.52-.33 2.08-.65 2.07-23.22-81.45-10.69 2.07-10.57.22-7.74.33-1.31-.11-.44-.76-.65-11.67-2.07-.11-8.84-.11-.21.44.43 7.52-23.66-9.16-47.2-16.79-1.42 8.07-1.53 9.16-1.09 5.23-2.61 3.27-6-7.08-2.4-2.4-1.85-1.31-5.13-2.18-2.72-.76-5.45-2.08-1.2-.87-1.42-1.31-2.51-3.7-12.75-22.9-2.08-3.16-2.61-3.06-4.69-4.79-2.62-3.16-2.07-3.28-.65-2.61-1.42-12.65-.87-4.14-1.42-3.71-.98-1.85-1.42-1.86-2.07-2.18-13.52-11.99-4.8 5.78-5.01 5.67-2.94 3.81-1.75 2.62-1.42 3.71-.43 2.4v4.57l.22 1.75 1.41 4.36 3.71 7.96.76 2.4-.32.98-.77 1.09-5.77 2.94-1.1 1.31-.54 2.18v3.38l.98 22.68.22 5.89 17.55-18.21 6.22-6.43.98 1.2 2.61 3.49 6.65 9.48L816.6 1695l7.52 8.4 6.76 6.97 5.89 5.45 7.08 6.55-.76 2.83-.66 2.73-.43 2.5-.22 3.93-.87 17.66-.22 3.17-.54 3.59-1.31 8.29-51.03 28.78 2.84 17.67-18.86 1.96-13.09 1.2-7.41.76-7.3.44-5.46.33 2.18 14.28.33 6.87-.22 2.07 15.81-1.2 3.16 21.48 4.37 33.25-9.49.22-7.3-.87-4.26-1.42-11.55-4.25 2.83-13.3-2.62-21.59-21.47-6.87-4.91-41-.76-5.88-.98-8.4-.33-6.32.44-1.86.76-2.18 1.31-1.52 1.2-.77 2.07-.43 2.29-.22 2.5.11 4.26 1.31 2.07 1.74 1.42 2.4.98 3.6 1.09 6.21.76 1.53.44.33 1.09.76 9.81 2.73-2.29-18.98-3.71-34.23-.98-5.78-.65-2.94-2.07-4.69-4.58-8.07-17.23 7.2-24.75 8.39-17.22 5.34-1.86.88-.98.98-.98 2.29v3.05l2.18 9.38 1.2 5.23 1.53 6.43.98 4.36 1.96 8.51-11.77 2.51-7.09 1.52-11.78-52.55-1.52-7.09-.22-1.85v-2.29l.33-2.07 1.41-3.16.77-1.53.87-1.31 1.74-1.31 1.75-.98 2.72-.76 13.74-3.49 26.49-7.31 22.9-6.76-8.4-15.26-28.23-17.45.54 5.24-.33 3.05-.43 1.31-.98 1.63-.87.77-1.31.65-2.29.44-6.44 1.31-11.01 1.2-3.81.1-1.53-.32-1.63-.66-1.86-1.52-1.74-2.4-.55-1.42-.87-4.03-7.41-.11-5.35-1.31-8.17-2.84-11.56-2.07-4.8-1.63-2.18-1.2-12.53-7.74-3.38-1.64-4.26 13.19-8.39-.76-3.05-.65-1.97-.88-1.52-1.09-1.42-1.41-1.09-1.75-2.07-4.69-.66-2.83v-2.51l.77-2.4-4.25-1.63-2.73-1.53-3.38-2.29-3.6-2.29-12.43-9.38-4.03-2.5-4.14-1.97-5.67-2.5-2.95-.77-6.21-.76-3.6-.11-2.18.22-2.72.33-6 1.3-2.94.55-7.75.11-2.83.76-.44 1.64-1.52 4.25-2.51 4.36-2.83 3.38-1.86 1.53-3.6 1.52-2.94.22-1.85-.32-1.31-.55-2.51-1.42-2.07-2.18-1.74-2.72-1.42-4.04-.44-3.92.44-2.73 1.09-2.51 4.9-6.87 3.17-4.47-2.51-2.18-2.29-1.41-2.18-.99-3.6-.65-11.23-1.63-6.54-1.64-4.25-1.96-3.27-1.75-6.11-5.45-2.83-2.94-2.18-2.84-2.4-5.34-.44-3.38-1.2-7.85.22-3.27 1.64-3.82 2.07-2.72 11.66-12.32 2.84-1.86 1.63-.76 2.4-.76-5.99-18.65 3.05-15.81-3.6-51.46-5.56-78.61-64.32 127.02v-24.1l-.33-.65-127.34-274.11 12.32-6.32 7.41-2.62 12.21-3.7 2.73-1.2 2.5-1.86 13.63-15.59 1.53-1.09 2.4-1.09h1.52l2.51.77 4.25 1.96 3.38 1.31 3.06.54 2.61.11 8.4-2.07 11.99-4.8 1.64-1.52 4.9-7.53 1.31-1.85 3.49-3.71 3.49-3.71 8.07-11.88 10.46-14.28 3.71-6.65 1.96-6.22.66-3.71 2.28-23.22.77-36.63v-1.09l-.66-25.3-.21-6.98.21-18.31.33-2.73.33-1.64.76-1.85.87-1.53 35.33-36.52 14.39 35.11 3.92 8.83 3.17 5.12 3.05 4.15 19.4 20.49 4.26 3.38 7.3 8.07 5.13 6.98 1.63 2.51 3.16 6.32 2.18 5.24 8.18 24.31 8.07 23 14.17 47.54 3.05 9.38 4.8 13.19 9.27 22.68 2.72 5.45 24.32-20.39 19.29-17.66 35.22-71.2 4.25 6.65 16.46 30.53 14.39 25.73 2.95 5.24 27.14 51.9 7.53-.33-.87-10.58-.33-6.65 1.85-6.54 4.04-7.2 6.21-7.41 6.76-4.03 10.47-2.84 11.55-.44 5.24-.1.21-2.95 2.08-4.69 19.51 75.67 28.89-1.09 5.24-.11 8.83-.33 2.5 40.02 1.97 25.62.21 3.49-.43 2.29 15.26 1.74 6.98.44 5.34-.98 1.75-.33 5.56-.98 1.74-.22h4.47l4.91-.43 2.61.11h1.53l12.97-.77 4.26-.54 4.25-.55 4.36-1.2 4.69-.43 3.49 14.93 19.4 78.18 3.49-11.45 3.82-10.36.98-1.52 2.83-2.84 1.64-.76 5.34-1.85 3.71-1.09 7.52-.99 12.32-3.38 4.69-.54 4.14.87 4.58.98 10.9 1.64 2.4.32h1.75l2.61-.98 5.02 18.21 10.14-8.18 26.05-21.26 7.42-5.99 4.79-3.93 5.89 31.4.66 4.91 1.63 18.21.11 1.52.11 2.62-.22 1.74-2.29 6.66-.54 3.7.65 10.69 1.74 19.08 1.75 20.5.65 12.1-.43 3.81-.55 2.4-.98 2.51 5.67-.65 8.39-.44 9.93-.87 33.79-1.09 3.49-.76 3.71.1 1.63.44 1.31 1.74.66 2.19.87 5.77.44 3.38.98 2.84 1.2 1.85 1.96 2.95 12.75-2.84-5.88-28.46-1.31-2.83-2.07-3.49-2.4-6.76-1.96-5.56-.11-15.16 3.49-1.19 3.27-1.64 3.16-2.29 4.25 12.43 2.84 7.09 4.03 9.59.22.66 1.96 5.88 6.98 27.37 3.38 12.54 1.74 7.85 1.85 14.28 1.97 12 1.96 7.63 2.73 7.19 5.12 9.16 4.69 7.85 3.38 5.89 5.23 9.7 2.62 5.56 2.72 6.11 1.42 3.38 1.42 3.93 22.02-1.42 12.1-.87 2.4.21 1.09.33.66.44.43.87 1.31 4.8.44 1.52.32 3.93 1.09 21.37 4.36-.66 6.98-.1 3.05.21h7.64l-2.84-24.31-.65-4.25-.55-1.53-.98-.98-2.29-1.75-1.2-1.52-.87-1.75-.65-2.94-.99-11.56.22-3.27.44-.98.87-.87 2.94-1.09h2.4l8.83 1.09 10.58 1.31 12.65.65 15.48-22.46 6.54-9.49 1.96-.32 2.84-.66-.11 1.09-.11 1.2-.76 11.45-.33 4.04.43 1.09-.43 4.58-.55 20.49.33 5.56.87 6.11 2.4 9.7 6.98 25.52 4.9 18.53 10.03 34.56 2.29 9.49.99 6.76v1.42l.1 5.56-.43 8.28-1.75 10.04-2.61 10.9 5.88 4.91 11.13 9.04 15.59 11.67 8.06 5.34 1.75.88 7.41 3.27 10.47 3.16 24.53 6.87 22.89 6.21 8.73 2.29 2.72-20.82.76-5.24.99-5.78 2.18-12.64.87-2.62 1.63-1.63 2.73-1.64 4.03 8.83 7.09 17.23 1.09 4.03.44 3.38-.22 3.49-1.09 17.12.11 1.42 20.71 5.56 2.4.76 5.67 2.73 2.18 1.3.98.44 3.27-.54 2.62-.88.54 1.64.33 1.09 3.27 9.27 2.4 6.32 2.07 3.93 1.96 2.72 2.84 4.04 11.01 13.84 1.42.66.98 1.2.98 1.2.87 1.19 1.31 2.62-4.25 1.2-2.29.33-1.64-.55-2.18.44-21.04 3.71-8.72 1.2 3.49 40.12 7.74-.11 4.14-.11 14.61-.87 7.31-1.09.98 6.76.43 9.16-10.46.65-.77.33-.32.87.76 8.29 8.29 16.24h5.67l.43 4.36.87 11.02 1.31 14.61 1.86 15.7.32 6.21v1.09l.33 13.09-11.88-.66-7.2-.33-4.58-.21-14.17-.77-9.38-1.2.44 4.15 1.74 26.05.33 4.8 1.42 11.56.54 3.27.66 3.6 1.74 13.19 7.96-1.09 21.69-2.94 10.14-1.42v4.14l-.32 19.96-1.09 9.05-3.06 17.77-10.68-2.07-12.1-2.62-1.2 31.4-.66 4.58-.65 2.51 4.47.87 2.51 1.09 7.74 3.71-2.73 7.3-6.54 14.18-8.94-5.46-2.94-.87-3.16-.22h-6.55l-1.41.77-1.64-1.09-4.47-.33.22 2.51-.76 2.94-1.31 1.2-4.04 2.94-10.24 7.75-9.6 7.85z" stroke-linejoin="round"/></defs><use xlink:href="#i" fill="#09757a" stroke="#097d9b" stroke-width="5.76"/><defs><path id="j" d="M1598.3 2550.24l-2.18-3.27-2.5-3.71-5.56-7.52-7.75-10.47-4.03-5.88-7.96-11.45-15.37-26.17-15.59-27.91-4.25-7.53-2.29-4.03-3.38-5.34-4.36-6.87-4.04-5.56-8.28-9.6-5.78-9.37-1.96-3.38-2.84-5.89-2.29-5.34-1.74-4.8-1.86 10.25-.98 6.76-2.29 21.8-10.9-3.05-9.59-2.62-4.47-1.3-10.8-3.38 3.49-5.56-3.27-9.27-.22-2.29.22-1.2.66-.98 2.61-1.2 3.27-6.43-.11-.99 6.33-7.19 10.79-8.72-3.38-3.28-17.01-15.48-5.99-5.01-7.31 11.77-5.78 8.51-6.65-6.22-2.83-2.29-12.32-10.36-20.39-17.88 2.07-2.72 12.43-16.25 8.94-11.99 6.22-8.29 7.95 7.2 11.78 10.25 14.39 13.3 3.93 3.27-6.98-13.19-9.49-16.03-11.12-18.75 6.33-1.64h1.41l2.95.98 9.05 14.5 8.61-2.18 5.34 4.8 4.14 10.03 7.74 4.25 12.11 7.63 7.3 3.06.87.11 1.86-.88.87-1.52 6-13.09 3.92-20.28 6.32 2.19 6.22 2.61 2.83 1.2 2.51 1.53 2.4 1.41 5.89 3.93 22.35 15.26 1.09 1.86 6.32-2.29 6-1.53 1.63 6.33 8.61 20.17 5.57 15.15 12.64-3.81 9.81-2.95 9.49-2.61 4.8 12.21-.55 5.01-15.26 3.49-28.57 7.52-4.47-15.26-11.99 3.49-12.1 3.6-19.08 5.67-9.7 3.38 9.15 13.95 6.33 10.14 3.27 5.24 9.81 15.91 6.11 20.39 2.72 14.72 12.32 20.83 7.85 3.05 6.76 18.54 2.84 10.35 3.92 20.07-.22 11.33-1.31 15.05z" stroke-linejoin="round"/></defs><use xlink:href="#j" fill="#004249" stroke="#00465f" stroke-width="5.76"/><defs><path id="k" d="M1517.3 2276.25l-1.31 6.86-6.21-2.18-5.46-1.96-12.97-5.89 2.51-4.79 2.94-6.44-4.03-4.14-7.31-7.31-16.46-15.48 9.05-11.99 8.39-14.72 9.27-17.55 6.54-14.18 2.73-7.3-7.74-3.71-2.51-1.09-4.47-.87.65-2.51.66-4.58 1.2-31.4 12.1 2.62 10.68 2.07 3.06-17.77 1.09-9.05.32-19.96v-4.14l-10.14 1.42-21.69 2.94-7.96 1.09-1.74-13.19-.66-3.6-.54-3.27-1.42-11.56-.33-4.8-1.74-26.05-.44-4.15 9.38 1.2 14.17.77 4.58.21 7.2.33 11.88.66-.33-13.09v-1.09l-.32-6.21-1.86-15.7-1.31-14.61-.87-11.02-.43-4.36h-5.67l-8.29-16.24-.76-8.29.32-.87.77-.33 10.46-.65-.43-9.16-.98-6.76-7.31 1.09-14.61.87-4.14.11-7.74.11-3.49-40.12 8.72-1.2 21.04-3.71 2.18-.44 1.64.55 2.29-.33 4.25-1.2 9.92-2.62 1.75-.76 1.52-.33 9.16-3.16 2.4-.87 2.83-1.09 9.38-3.93 2.94-1.52 3.93-1.53 2.18-1.96 2.29-3.27 4.9-2.29 7.96-3.71 6.65-3.05 5.35-2.62 10.35 15.7 8.18 12.65 7.63 11.34 3.6 5.78 2.18 3.49.55.98 1.52 2.62 3.38 6.21 2.4 4.69 1.09 2.18 1.96 4.25 1.09 1.96 1.53 4.15 1.09 3.16 1.42 4.03 1.85 5.45 1.85 6.33 1.53 5.67 1.42 6.1-3.27.33-8.18.65-22.79 2.08-8.5 1.2 3.6 8.5 6.65 16.14.54 1.09.55 1.52.43 1.2 1.1 2.73 4.36 12.1-2.84 1.09-.98.33-.87.22-.77 6.43-12.31 5.45-2.29-4.25-1.75.22 25.73 47.97 3.05 5.23.88 1.64-3.6 2.51-1.53 1.41-1.96 1.75-3.05 3.49 3.38 3.71 3.81 5.12 1.75 2.83 1.63 2.84 1.2 2.73 2.73 6.65.65 2.29.55 2.39.43 4.47v5.57l-.43 3.16-1.2 4.58-1.64 4.14-1.09 2.29-5.12 11.67-3.16 7.19-1.86 3.82-5.56 12.97-.43 2.18-.66-.21.55 1.3 1.52 1.2.55 2.29 1.31 4.8.54 2.29 3.93 12.54.54 1.52 2.84 8.73 3.16 9.37 5.67 17.89 2.83 9.04 2.18 6.66-15.48 5.34-2.51.87-10.79 2.62-3.38-16.9-8.18 1.2-5.23 1.2 4.14 21.04 1.09 8.72-12.1-9.05-6.65-4.36-8.5-5.56-3.93-2.62-4.58-2.94-1.09-.76-1.41-.88-3.82-2.5-5.02-3.6-10.68-6.76-9.7-6 .43 4.69.11 3.38-.11 1.31-.11 3.27-1.09 11.88-2.29 10.8-3.92 19.84-1.75 8.61-.43 2.19z" stroke-linejoin="round"/></defs><use xlink:href="#k" fill="#004249" stroke="#00465f" stroke-width="5.76"/></svg>