<svg width="384" height="5.64in" viewBox="0 0 2880 4061" xmlns="http://www.w3.org/2000/svg" xmlns:xlink="http://www.w3.org/1999/xlink"><path fill="#fff" d="M0 0h2880v4061H0z"/><defs><path id="a" d="M1658.51 2272.89l-11.04 1.65-10.28.51-14.21-29.44-3.17-6.98-3.68-7.87-10.15-19.93-5.97-12.56-4.94-10.03-6.22-12.56-5.33-5.2-1.14-1.14-9.14-9.27-4.44-4.19-1.27-1.14-2.67-2.41-.88-.89-2.16-1.65-1.78-1.27-1.52-.89-2.16-1.14-3.04-1.65-2.41-1.27-1.02-.5-1.4-.77-1.26-.76-1.53-.89-1.39-.88-1.27-.77-2.79-1.9-11.3 22.84.13 1.4.13 6.35.38 18.02.12 4.06.77 6.72 1.01 4.95 1.52 6.09 1.4 4.32 1.14 5.08.89 5.07.76 6.09.13 1.91.38 2.41.63 2.16 3.43 5.33 1.01 3.17 5.33 19.8 1.4 3.29 1.65 3.43 6.09 10.41.13.25-35.66 5.59-9.9-6.1-31.85 8.25 1.91 3.3-9.14 1.78-.76-3.94-1.78-10.27-6.98 1.39-23.22 4.06-4.06.76-6.47 1.02-.76-3.68-1.65-9.65-1.15-6.47-46.06 7.62-33.63 5.71-5.32.89-.77.25-1.14.13-.89-.13h-.38l-.63-.25 2.66-10.79 1.02-4.32.25-1.01 3.56-13.83.88-3.56.38-1.39 3.56-14.34 4.06-15.99.76.12.89.13h.89l2.66-.38 10.28-2.16 24.36-4.82 7.36-1.27.26-.13h.63l6.47-1.27 6.98-1.27 1.27 6.73v.13l1.14 6.22 18.53-3.3 14.47-2.54 7.74-1.4.5-.12 8.76-1.4 7.99-1.52 20.94-3.56-3.81-12.31-1.52-4.95-1.39-4.31-.38-1.27-4.57-15.61-3.56-11.04-2.15-6.73-5.21-15.35-2.41-.26-6.6-.5-2.91.38-2.67.63-3.3 1.4-11.29 9.14-4.06 2.66-2.16.63-3.05.13-2.03-.25-3.17-1.02-3.68-2.15-1.39-.89-2.92-4.44-1.52-2.67-1.91-3.93-1.14-3.43-.63-2.79-.39-2.54.26-2.41 1.27-2.67 5.45-9.26 2.92-6.6.76-4.31-.12-5.21-.26-4.57-.63-7.74-31.6 16.37-8.88 3.68-.76.26-.13-.76-1.78-11.81-1.14-7.86-1.01-6.98-.26-1.78-.12-1.02-.38-3.3-.26-1.52-.76-4.95v-.89l.13-.63.12-.51 14.85-2.03 6.6-.89 9.14-1.39 6.98-1.27 5.32-1.14 6.6-1.27 4.06-1.53 12.06-2.54 8.88-.63 1.52-.38 7.62-1.52 6.98-1.4 9.13-1.78 14.72-2.79 5.21-1.01-2.67-14.6-.13-.89 4.95-.5 23.86-4.95 10.79-2.41 1.39-.26 1.4-.12 1.52-.26 1.4-.25 1.01-.26 1.14-.25 1.27-.25 11.8-5.33 18.02-11.81 21.32-5.07 6.47-9.14-8.25 1.52-7.61 1.4-13.2 2.54-10.66 2.03-2.41.51-3.04.63-8.38 1.52-1.52.26-6.34 1.14-10.16 2.16-9.89 1.77-2.29-11.93-2.54-12.81-4.82-26.15-18.91 4.83-29.94 6.47-3.94-19.93 1.4-.25 21.44-3.68-2.41-13.33-.63-3.29-.38-2.67-.51-11.68-24.74 4.57.5 3.18 1.4 6.72.76 3.81.89 5.08-18.53 3.17 5.08 23.86 3.55 18.02 2.92 15.1-.76.13-1.65.38h-.38l-.51.12-.76.26-.38.12-.38.26-.64.38-.63.51-.51.5-.63.38-.64-.76-.63-.76-3.94-3.55-8.62-7.74-6.6-6.47-4.32-4.07-10.28-10.02-4.31-4.19-12.94 16.75-1.4-.51-2.41-.88-1.9-.77-1.27-.76-1.02-.76-.63-.89-.51-.88-.51-1.27-.38-1.27-.12-1.4v-1.39l.12-1.4.38-1.14.38-.89.13-.25 10.41-13.71-2.67-2.41-4.95-4.95-1.39-1.52-1.15-1.65-1.14-1.91-1.14-2.03-.13-.51-.89-1.52-9.64-19.03-3.81-7.62-2.03-4.19-1.01-.63-.89-1.65-5.58-10.92v-1.14l-1.02-1.9-3.42-6.85-4.45-8.63-5.07-9.9-8.63-16.63-3.3-6.22-8.25-15.99-3.04-6.09-2.92-5.71-1.52-3.04-3.81-7.36-3.81-7.36-6.6-12.82-2.53-5.08-6.6-12.69-8.89-17.39-6.72-13.07-5.08-9.64-1.65-3.17-2.53-5.08-8-15.61-3.04-5.96-1.78-3.43-1.14-2.16-.51-.51-3.3-6.21-3.55-7.11v-1.02l-2.79-5.45-5.59-10.79-5.71-10.91-3.42-6.86-2.8-5.33-3.04-5.45-2.67-4.7-3.55-6.73-2.92-5.58-3.93-7.61-3.17-6.1-4.95-9.51-14.72-28.68-4.32-8.25-3.8-7.11-4.95-9.9-7.62-14.59-4.18-8.51-3.18-5.96-1.27-2.54-1.77-3.3-1.02.38-.63.26h-.26l-.5.12-.64-.12-13.83-1.91-4.19-.63-2.53-.38-2.42-.26-31.34-3.42-2.92-.13-10.53 1.14-3.04.64-8.76 2.15-10.66 3.18-6.22 2.15-2.03.89-4.69 2.67-8.38 4.57-51.77 29.57-37.05 21.32-17.39 10.02-16.24 9.52-3.05 1.78-12.31 6.85-2.53 1.78-12.06 9.89-6.85 5.84 6.22 26.65-4.06 20.31-32.36-8.5-14.97 23.22-10.03 14.85-1.01-6.22-1.15-7.11-2.53-16.62-5.21-37.19 26.9-15.73 4.95-18.78 20.18-46.96 52.28-11.29-4.31-23.36-5.08-21.06-2.92-11.3-.63-1.77-1.4-2.54-55.96 17.38-2.03.51-1.27-.12 2.67-6.6 6.21-16.88 4.45-11.55 1.14-2.79-19.42-153.18-5.45-37.94-6.35-43.66-.13-.38-.12-1.27-.51-3.93v-1.4l-.13-.76-.25-.38-.51-.26-2.92-1.01-18.27-6.6-10.02-3.17 4.44-21.07-8-3.04-3.68-1.27-6.22-2.03-2.03-.64-2.53-1.01-4.57-1.78-3.94-1.52-13.45-5.33-4.18-1.91-25.51-12.18-48.22-22.97 2.67-8.76.38-1.27v-2.28l-.38-3.81-3.05-15.99-1.14-5.96 4.44-.51h1.01l1.65.25 2.29.89 12.31 6.09 2.15.89 4.95 1.4 2.41.25 3.68-.12 5.33-.89-3.42-22.08-4.82-29.19-3.68-23.61-7.24-21.19-4.95-14.85 3.68-2.03 16.63-9.14 3.55-.38 14.47-2.28 5.45-1.4 4.19-1.39-3.55-11.93-.13-.89.13-.64 1.39-1.26 13.07-4.45-4.31-14.21-2.92-9.77-6.47-21.2-2.67-8.75-2.28-7.87-6.35-21.19-.25-.76-.25-.64-.13-.63-.13-1.4 43.65-7.23 18.02-2.92 2.29-.38 35.78 50.76 3.43-.63 12.94-2.42h.51l25-4.06 4.31-.76 1.14-.38 1.78-1.14.76-.64 6.98-9.39 6.22-7.74-.64-2.54-1.65-7.61-4.69-28.43-7.74 1.27-13.33 2.29-19.66 3.17-17.39 2.79-3.42-11.68-4.07-13.32-4.56-15.61-8.76-28.81-1.4-3.17-3.8-12.82-.38-1.14-11.8 1.9-1.27-.38-.76-.76-2.92-3.81-1.65-1.01h-1.14l-45.05 7.49-3.43.63-3.55-21.07 3.43-.5 42.38-6.73 5.07-1.01 4.44-1.27 3.18-1.02 8.12-2.16v-9.26l-.76-4.44-.76-5.33 7.1-1.14 1.65-.51 7.36-2.79 5.97-2.54 10.15-3.81 13.19-5.08 1.65-.63.77-.38.76-.25.76-.51-4.82-6.98 3.42-2.67 1.91-1.65 1.26-1.14 1.53-1.14 3.04-1.4-2.03 21.07 13.2 19.16 1.01 1.65 5.59 8.25 2.16 3.17 1.64 2.67 1.02 1.65 1.14 2.03 1.52 2.79 1.4 2.79 1.27 3.05 1.52 3.68 1.02 2.79 2.15 6.47 1.78 5.71 1.4 4.32 1.01 2.92.64 1.9 3.42 10.79 1.78 5.2.89 3.05 7.86 24.74.39 1.02 4.56 14.09 18.15-3.05 7.11-1.14 5.07-.76 4.95-.89 5.08-.76 4.56-.76 21.83-3.56 19.92-3.17 19.67-3.17 18.15-2.92 4.31-.38 3.68-.13h4.7l6.85.25 4.69.13 2.92-.25 2.79-.26.89-.25 6.98-1.02 9.9-1.65 17.64-2.79 8.5-1.52 2.03-.25 10.03 15.48 18.52 29.57 5.71 8.88 4.7 7.23 19.03 31.73 29.82 47.21 30.33 46.83 8.63 13.83 10.91 17.64 20.3 31.98 9.01 14.6 2.92-.64 14.34-3.68 47.84-12.06 21.19-5.71 13.33-3.55 8.37-2.16 16.37-4.18 1.27-.39 21.83 220.44 12.68 11.04 3.56 21.7 3.3 11.17.25 1.14 2.16-.63 6.85-1.91 7.49-1.26 5.33-1.15 31.47-4.95 4.06-2.28 5.33-1.78 5.45-1.14 3.56-.76 3.04-.76 2.54-1.02 2.28-1.01 2.29-1.27 2.03-1.52 2.03-1.53 2.03-1.9 2.66-2.79 2.67-2.54 1.27-1.14 1.39-.89 1.78-.76 1.78-.76 2.03-.51 1.01-.26 1.65-.25 1.02-.13-2.41-15.35 30.2-5.08 31.47-4.95 24.61-4.31 18.28-2.92 2.66-.89 1.78-.63 3.3-2.16 2.28-2.41 1.4-1.65 1.27-2.03 1.39-3.05 1.02-3.3.5-3.04.26-2.54-.13-1.91-1.9-11.8-1.02-8.25.13-1.77.13-.38.88-.77 1.65-.38 18.02-2.92 11.68-2.03 61.16-9.89 8.38-1.27 14.08-2.29 4.82-.89 17.64-3.17 4.82 29.06 5.59 33.12 1.65 8.63.89 2.67 1.01 2.28.63 1.65.51.64.76.89 2.03 1.52 1.27 1.01 2.03 1.15 2.54.89 3.17.5 1.53.13 5.2-.89 12.69-2.03h.76l.63-.13h5.21l.25.77.25.5-.38 1.91-.76 3.04-2.03 4.7-2.54 5.07-.88 5.08.76 3.05 2.28 5.2 6.6 6.73 3.55 9.01 7.87 10.78-1.14 1.02 2.79 1.27 1.27 1.65 2.54 1.01 12.94 9.65 4.95 7.23 2.92 2.92 2.66 2.79 2.54 2.92 3.3 4.06 3.17 4.06 2.92 4.19 2.92 4.19 2.66 4.44 2.54 4.57 2.29 4.69 2.28 4.7 2.03 4.82 1.9 4.95 1.78 4.95 1.52 5.08.38 1.01.64 2.67.38 1.14 6.22 23.48 3.3 12.81 10.4 38.96 9.39 35.67 4.32 15.6 4.44 15.11 4.31 14.34-1.52.25h-.64l-.76.13-.38.12h-.51l-.63.26-.76.25-.76.13-.64.13h-1.14l-.25.12h-.13l-.25.26-.26.25-.25.25-.13.26-.25.38-.13.38-.25.38v.76l.12.26.13.38.26.63.25.38.38.64.38.63.38.38.38.38.51.51.38.25.63.38.51.38.38.13.51.38.63.13.89.38 1.02.25 1.39.26 1.02.12 1.01.13 2.03-.13 1.4 4.19 4.95 14.85 5.08 14.72 5.2 14.6 5.58 14.59 2.92 7.49 1.9-.38 3.56 8.88.76 2.03 6.22 15.48 9.26 20.05 2.16 5.33 2.28 5.33 4.82 10.41 2.79 6.09 6.98 13.45 4.82 9.65 6.35 12.06 6.85 14.46 11.3 19.67 1.9 3.81 1.01 2.92.38 3.55 1.78 3.43 2.92 5.33 6.6 12.56 2.54 4.7 2.41 4.82.63 1.27 3.17 6.47 1.27 3.05.51 1.01 1.27 3.3 1.01 2.92 1.15 2.92 1.39 4.19 1.14 4.06 1.02 3.55 1.27 4.57 1.52 5.97 1.78 6.47 1.9 7.23 1.4 4.95.76 2.29 1.14 3.68 1.02 2.66 1.14 2.92 1.01 2.41 1.53 3.17.88 1.65.51 1.15 1.78 3.04 1.9 3.05-3.17.25-4.44.51-1.14.13-1.78.25-1.52.38-1.53.25-4.06.89-4.18 1.02-1.91.38-1.77.25-1.4.26-1.02.12-1.01.26-2.67.63-7.35 1.9-11.04 2.8-1.4-3.05-5.46-10.66-.89-1.78-1.14-2.03-1.14-2.28-2.54-4.82-1.77-3.18-2.92-5.83-4.82-9.39-1.4-2.8-3.81-7.86-1.52-2.8-1.65-3.04-2.66-5.33-8.25 1.14-7.24 1.52-11.54 2.03-.89-.12-1.52-.64-2.03-1.39-1.91-1.02-2.66-.51-4.7.89-1.65.64-1.39 1.01-1.53 2.03-.5 1.02-.76 2.66-1.53 7.24-1.39 1.52-13.96 16.12-8.5 34.01 1.01.38.51.5 1.01 1.78 1.15 1.78.5 1.52v.64l-.38 1.01-1.77 2.41-.38 1.27.25 1.78.38 2.28v.89l-.76.63h-1.02l-.88-.38-.38.13v2.67l-.13 2.03-13.33 2.53-16.49 2.92-5.2.89 2.41 13.83 1.9 10.79 2.16 12.31 4.82 27.16 1.65 9.52 1.52 8.63-16.88 2.79-17.89 3.04-18.52 3.18-1.53.25-1.77.38-4.32.76-13.96 2.54 2.54 14.34-23.6 6.73-12.82 2.41-7.36 1.39-5.96 1.02-14.59 2.41-6.98 1.4-7.87 1.27-8.88 1.52-6.98 1.14-6.47 1.02-7.74 1.01-5.46 1.14-8.25 1.02-14.08 2.41-.13-.76-9.27-58.89-25.63 4.7-3.93.76-4.06.76-12.44 2.41 2.67 17.14 2.66 16.88-18.52 3.17.25 1.52 1.39 9.39 20.56 10.66 1.4 9.39.25 1.27-.13 1.27-.25 1.4-.51 1.52-.63 1.52-.89 1.53-.51.76-.76.63-.25.13-.64.25-.89.13-.88-.13-.76-.25-3.43-1.4-6.6-3.04-4.06-1.65-2.54-1.02-19.03-7.87-4.44-1.77-9.77-4.44-3.43-2.16-5.08-3.56-1.52-1.26-2.03-1.65-10.02-7.24 4.94 5.59 6.22 6.85 8.25 9.64.64.76 36.16 42.01 2.67 3.05 12.3 14.21-.25.63v2.04l.13.63.25.76.51 1.78 3.04 10.78-25.25 25.01 7.62 11.04 27.15 38.58 15.1 22.08 7.36 12.31 2.54 3.55-3.05.25-1.39.26-3.94.38-9.13 1.4-25.51 4.18-12.31 2.79-4.31.64.25 6.09z" stroke-linejoin="round"/></defs><use xlink:href="#a" fill="#9dc8ca" stroke="#6bb4d2" stroke-width="5.76"/><defs><path id="b" d="M1239.13 2608.18l-11.55 8.5-8.76 7.11-5.07 4.69-1.91-2.28-14.72 1.9-48.72 9.27-3.43-14.85 19.8-4.7-32.36-131.35-17.26-70.94 7.49-16.87 6.6-15.87 48.22 27.67 1.52 11.55 8.75-2.8-10.66-72.08-3.17-21.45h-12.81l20.05-29.95.5-.88.76-1.02 8.38-12.69 3.81-5.58.5-.77.64-.76.38-.5.63-.64.64-.51.63-.63.51-.51-10.15-5.46-2.29-1.14-2.28-1.14-1.27-.38-1.01-.13-1.15.13-1.77.51-14.22 3.8-12.43 3.3-2.03.51-4.32 1.14-6.85 1.78-13.07 2.67-7.87 1.52-13.7 2.92-1.78.38-5.2 1.01-3.3.51h-.51l-16.11 1.4-2.79.25-11.8 1.02-14.85 1.14h-3.93l-5.59-.13-6.6-.25-.63-.13-5.46-.25-1.65-.13-1.65-.25-4.18-.64-1.27-.25-2.8-.51-4.06-1.02-4.06-1.14-2.53-.89-12.31-3.93-3.43-1.02.13-.5v-.26l-.13-.25v-.76l-1.01-6.73-3.3-17.51-.64-4.82-.63-8.63-.38-9.52-.38-7.49-.77-12.06-14.46.89-22.21 2.54-1.77-17.51-32.62-.26-22.71 1.15.76-20.44-2.41-14.34-1.4-17.64 19.67-.76 16.25-.38 11.8-.38h8.75l19.54-.63 20.05-.26 5.33-.25 11.42-.38 3.18-.13-1.91-11.42-1.9-11.04-.89-5.84-.76-4.57-1.52-9.51-.38-2.29-.13-.89-.13-.76v-1.14l-.12-2.79v-4.32l.12-5.07-3.93.12-57.48 2.29-5.84-31.98-.26-3.81-.25-2.54-.13-1.27-.12-.89-.13-1.01-.63-3.17-2.42-14.09-1.01-5.58-.13-.77-.51-.76-.12-2.28.38-1.4.89-.51.38-2.15v-.51l-.26-.38-.63-.51 4.31-3.55 2.54-2.92 1.14-1.78.76-1.77 1.02-2.92.25-2.79-.25-3.81-.25-1.65-.64-2.03-5.2-13.07-1.52-3.3-1.91-3.18-1.9-1.9-2.92-2.79-4.31-2.79-22.08-11.81-1.4-.76-1.9-1.65-1.02-1.27-1.27-2.03-.88-2.53-.89-4.32-.64-4.7-.12-3.29.25-5.84.38-4.44 2.92-28.94 1.01-9.9 1.78-21.44.76-8.38.76-8 2.41-15.1.64-4.82.38-5.46.51-6.34-.13-2.67-.25-8.25-.26-5.45-.38-5.33-.63-7.36-.51-5.59-.38-2.03-.51-2.28-1.39-4.32-.89-1.77-4.57-8.89-2.29-4.31-1.77-3.43-1.27-3.68-.38-1.27-1.14-3.68-.51-1.65-1.78-5.71-.89-3.3-.63-2.41-.51-2.79 7.24 4.44.38.25 2.03 1.53.88.63.13-.51v-.63l-.13-1.02-.25-.88-.38-.77-.63-.76-1.78-1.65-1.27-1.52-1.27-1.65-1.27-1.9-5.58-3.05-43.27-30.71-5.59-1.9-3.04 9.64-3.81-1.9-7.48-3.56-3.94-2.03-9.01-4.31-6.98-3.3-3.3-1.65-4.31-2.03-3.81-1.9-3.8-12.57-4.83-12.69-5.58-15.48-5.33-12.69-3.04-3.05-.77-5.2 5.97-20.05-4.19 3.68 5.96-8.38 15.74-20.05 28.55-33.76-.25-1.52-.51-3.43-3.55-25.5-.77-6.6-.5-4.82v-.89l-.26-3.43v-8.76l.13-1.65.13-1.77-.13-3.81v-1.4l-.13-3.3-.5-4.06-7.87-48.86-2.92-17-.89-6.73-.25-2.28.12-1.52.89-5.33 9.14-34.01 4.31-17.14 3.3-12.43.76-3.3.13-1.91-.13-4.95-1.52-11.8-5.07-32.36-.51-3.55-.64-3.56-.5-3.04-9.39-59.14-.51-2.79-1.65-9.65-.64-3.42-1.77-10.79-1.53-8.88v-2.04l.64-1.9 1.01-1.01 6.22 2.03 3.68 1.27 8 3.04-4.44 21.07 10.02 3.17 18.27 6.6 2.92 1.01.51.26.25.38.13.76v1.4l.51 3.93.12 1.27.13.38 6.35 43.66 5.45 37.94 19.42 153.18-1.14 2.79-4.45 11.55-6.21 16.88-2.67 6.6 1.27.12 2.03-.51 55.96-17.38 1.4 2.54.63 1.77 2.92 11.3 5.08 21.06 4.31 23.36-52.28 11.29-20.18 46.96-4.95 18.78-26.9 15.73 5.21 37.19 2.53 16.62 1.15 7.11 1.01 6.22 10.03-14.85 14.97-23.22 32.36 8.5 4.06-20.31-6.22-26.65 6.85-5.84 12.06-9.89 2.53-1.78 12.31-6.85 3.05-1.78 16.24-9.52 17.39-10.02 37.05-21.32 51.77-29.57 8.38-4.57 4.69-2.67 2.03-.89 6.22-2.15 10.66-3.18 8.76-2.15 3.04-.64 10.53-1.14 2.92.13 31.34 3.42 2.42.26 2.53.38 4.19.63 13.83 1.91.64.12.5-.12h.26l.63-.26 1.02-.38 1.77 3.3 1.27 2.54 3.18 5.96 4.18 8.51 7.62 14.59 4.95 9.9 3.8 7.11 4.32 8.25 14.72 28.68 4.95 9.51 3.17 6.1 3.93 7.61 2.92 5.58 3.55 6.73 2.67 4.7 3.04 5.45 2.8 5.33 3.42 6.86 5.71 10.91 5.59 10.79 2.79 5.45v1.02l3.55 7.11 3.3 6.21.51.51 1.14 2.16 1.78 3.43 3.04 5.96 8 15.61 2.53 5.08 1.65 3.17 5.08 9.64 6.72 13.07 8.89 17.39 6.6 12.69 2.53 5.08 6.6 12.82 3.81 7.36 3.81 7.36 1.52 3.04 2.92 5.71 3.04 6.09 8.25 15.99 3.3 6.22 8.63 16.63 5.07 9.9 4.45 8.63 3.42 6.85 1.02 1.9v1.14l5.58 10.92.89 1.65 1.01.63 2.03 4.19 3.81 7.62 9.64 19.03.89 1.52.13.51 1.14 2.03 1.14 1.91 1.15 1.65 1.39 1.52 4.95 4.95 2.67 2.41-10.41 13.71-.13.25-.38.89-.38 1.14-.12 1.4v1.39l.12 1.4.38 1.27.51 1.27.51.88.63.89 1.02.76 1.27.76 1.9.77 2.41.88 1.4.51 12.94-16.75 4.31 4.19 10.28 10.02 4.32 4.07 6.6 6.47 8.62 7.74 3.94 3.55.63.76.64.76.38.39.25.38.89 1.77.76 1.53.51 1.39.13 1.02.88 4.19 2.16 10.66-6.98 1.26-19.16 3.43-1.52.51-1.52.89-.64.5-8.25 8-3.55 3.81-15.1 17.38-3.93-5.58-.77-.64-.63-.38h-1.27l-22.21 2.8 2.8 18.65-7.62 1.02-8.88 1.39-2.41.38-7.11.89-4.31.64-2.79.38-16.25 2.15-7.74 1.15h-.63l1.65 9.64.38 1.65 11.93-1.78 24.11-4.18 4.57-.77 5.45-1.01 10.66-1.9 5.71-1.02 8-1.78.38 3.3.12 1.02.26 1.78 1.01 6.98 1.14 7.86 1.78 11.81.13.76.76-.26 8.88-3.68 31.6-16.37.63 7.74.26 4.57.12 5.21-.76 4.31-2.92 6.6-5.45 9.26-1.27 2.67-.26 2.41.39 2.54.63 2.79 1.14 3.43 1.91 3.93 1.52 2.67 2.92 4.44 1.39.89 3.68 2.15 3.17 1.02 2.03.25 3.05-.13 2.16-.63 4.06-2.66 11.29-9.14 3.3-1.4 2.67-.63 2.91-.38 6.6.5 2.41.26 5.21 15.35 2.15 6.73 3.56 11.04 4.57 15.61.38 1.27 1.39 4.31 1.52 4.95 3.81 12.31-20.94 3.56-7.99 1.52-8.76 1.4-.5.12-7.74 1.4-14.47 2.54-18.53 3.3-1.14-6.22v-.13l-1.27-6.73-6.98 1.27-6.47 1.27h-.63l-.26.13-7.36 1.27-24.36 4.82-10.28 2.16-2.66.38h-.89l-.89-.13-.76-.12-4.06 15.99-3.56 14.34-.38 1.39-.88 3.56-3.56 13.83-.25 1.01-1.02 4.32-2.66 10.79.63.25h.38l.89.13 1.14-.13.77-.25 5.32-.89 33.63-5.71 46.06-7.62 1.15 6.47 1.65 9.65.76 3.68 6.47-1.02 4.06-.76 23.22-4.06 6.98-1.39 1.78 10.27.76 3.94 9.14-1.78-1.91-3.3 31.85-8.25 9.9 6.1 35.66-5.59.25.64.51 1.65 1.14 5.33 1.14 8.63 1.53 12.94 1.14 10.53 1.14 15.23.13 8 .38 20.81v5.08l-2.67-1.4-6.34-3.05-2.79-.88-2.41-.38-4.95.25 12.31 39.59-103.93 134.65v-17.51l.76-63.2v-21.45l-.25-27.54-.13-17v-7.11l-.13-4.57-.25-4.44v-.63l-5.08 1.01-26.65 4.57-13.57 2.16.12 1.01.51 4.57.51 5.84.25 2.03.26 1.14.25 1.27-16.12 2.79-31.72 4.95 1.78 15.99.12 14.85v16.62l-13.83 19.68-3.55 9.13-7.74 8.25.13 1.78 10.02 62.94-62.3 10.28-10.79 2.29-2.16.89-.89.5-1.01.64-.76.51-.89.5-.76.51-.76.38-.64.13-.51.25-.5.13-.64.25h-.5l-.89.13h-4.19l-.38 1.01-.64 1.53-.38.76-1.01 1.9-1.65 3.56-2.41 4.56-1.78 3.05-.76 1.27-2.67 4.19-2.79 4.06-2.92 3.93-3.29 4.06-1.65 1.91z" stroke-linejoin="round"/></defs><use xlink:href="#b" fill="#9dc8ca" stroke="#6bb4d2" stroke-width="5.76"/><defs><path id="c" d="M1040.92 4004.78l-28.55 9.14-4.45 1.27-3.93.89-6.22 1.01-7.48 1.27-18.66 2.92-.76-4.82-1.4-9.27-.88-5.58-.38-3.68-.38-3.56-.26-3.68-.13-3.8-.12-3.68v-3.68l.12-3.68.13-3.68.26-3.68.5-5.33.76-9.14.51-5.33.26-3.68.12-3.56.26-5.45v-3.68l-.13-3.68-.25-3.56-.26-3.55-.38-3.81-.51-3.55-.76-5.58-1.01-5.33-1.15-9.14-1.64.25-1.27.13-4.57.76-7.49 1.27-9.77 1.78-17.13 2.41-16.62 2.54-47.34 7.99-18.65 3.55-11.17 1.65-6.34 1.02-17.77 3.17-53.93 8.89-15.35 2.41-119.41 19.79-16.24 2.92-23.73 4.06.25-.63 2.03-3.81.77-1.65.5-2.66.26-2.79-.13-1.65.25-.89.26-.51 2.16-1.65.63-1.4v-.5l-.38-2.03-1.02-1.4-.63-.25-4.57-.51-.89-.38-.25-.64-.51-4.19v-17l-.13-.89-.25-.76-1.9-2.41-.64-1.27-.63-2.92v-1.65l.13-1.65.5-3.93 2.41-12.06.13-3.17-.13-11.68.13-4.57.51-2.66.38-1.02.51-1.14 1.01-1.01 5.97-5.46 1.26-1.78 1.15-2.92.63-1.9.13-3.17-.26-2.16-2.15-11.42-1.65-14.21-.38-1.65-.64-1.78-2.28-2.41-1.02-1.53-.5-2.53-1.15-8.38.26-.63.63-.64.26-.89-.13-1.01-.38-.76-.13-1.15v-.76l.25-.63.77-.76.76-.13.51.13 2.53 2.15.89.39 1.14-.26.89-1.01.26-1.02v-1.9l-.39-1.53-1.52-1.77-.25-1.4.13-.51.5-.25 1.14-.25 1.02-.51.13-1.02-.38-5.2v-1.14l2.03-4.19.5-1.9.38-4.19.26-1.02.51-1.01 1.39-2.16.64-1.52.25-1.65.25-3.68-7.61 6.98-7.74 6.85-5.33 5.08-3.81 3.42-2.15-.76-.89-.89-5.59-15.48-5.96-15.74-14.47-39.21-2.53-6.98-17.9-50.38-1.77-3.93-.89-.89-1.27-.89-.89-.13-3.8.26-36.68 6.09-9.26 1.27h-1.02l-1.26-.26-.77-.38-1.01-1.14-.51-1.02-.38-1.65-4.19-25.63-.63-3.55-7.49-46.45-4.44-27.16-.76-3.17-1.14-2.54-1.14-1.4-1.65-1.77-5.97-5.08-3.81-3.43-27.66-24.36-4.06-3.68-4.95-4.57-4.95-3.94-1.77-1.01-1.65-.63-1.65-.39-3.43-.38-34.51-2.03-7.11-.76-11.55-3.04-5.83-1.91-1.91-.76-26.01-15.35-3.3-1.78-3.3-2.03-2.79-2.29-4.32-4.18-5.2-8.13-4.19-41.11-.63-2.8 6.85-20.3 1.91-8.88 3.55-10.16 1.65-5.96.38-3.55-.13-2.04-3.17-19.79-3.3-20.94-5.84-42.01-3.55-22.84-1.65-13.58-.51-3.81 13.07-2.15-6.6-38.33-2.66-17.01-2.67-15.99-5.07-32.86-.13-.89-.89-3.18-.5-1.01-.77-1.14-1.52-1.91-1.77-1.65-16.75-12.43-2.03-2.16-1.4-2.79-.89-2.29-.25-1.52-.64-7.11-.12-1.9-.13-1.78-2.54-20.56 10.03-1.65 1.77-.25-23.98-23.48-13.45-12.69-47.33-48.35-17.39-21.07-11.29-12.05-15.99-24.49-21.7-40.11-20.18-48.73-1.52-5.2h1.02l1.9-.26 56.47-6.34 50.76-10.15 29.06-5.59 14.21-2.41 10.78-1.52 4.7-1.14 23.6-3.68 16.75-2.41 17.13-2.92 17.39-2.42 7.99-1.64 10.79-2.04 15.6-2.66 1.78-.25 33.63-5.21 90.22-14.59 8.12-1.4 27.03-4.44 8.88-1.52 17.26-3.3 12.94-2.03 47.34-7.74 41.49-6.86 25.76-4.06 14.59-2.28 9.27-1.65-7.62-46.07-3.93-24.11-2.79-17.13-3.05-18.02 16.5-2.67 8.88-1.65 35.53-5.96 48.09-8.63 32.49-5.71-3.68-23.23-1.4-9.39-.38-3.81v-1.26l2.03-14.34 3.81-24.5 16.5-103.3.5-3.17.64-2.16 1.9-4.7.89-1.9 6.34-9.77 2.54-4.06 3.3-5.84.89-1.65.38-1.52.51-2.03.25-3.68-.25-2.16-10.92-65.74-2.53-16.11-1.91-11.17 3.94-.51.25-.13 13.71-1.9 5.33-.76 5.58-.89 5.07-.63 8.13-1.27 2.53-.51 1.91-.13 1.9-.25 1.9-.13 1.65-.25 1.78-.13 1.9-.13 1.78-.12h2.03l2.03-.13 1.65-.13h1.4l2.91-.12h2.03l5.97-.26 3.17-.13 3.68-.12 3.17-.13 1.53-.13h4.82l1.39-.12h1.15l1.14.12h1.39l1.91.13 1.65.13 2.79.12 2.03.13 3.17.13 2.92.13 4.06.25 2.41.13 2.41.12 3.43.26h.76l2.92.25 3.17.38 3.17.64 4.06 1.14 3.56 1.01 5.58 1.65 13.07 4.06 3.43 1.02 12.31 3.93 2.53.89 4.06 1.14 4.06 1.02 2.8.51 1.27.25 4.18.64 1.65.25 1.65.13 5.46.25.63.13 6.6.25 5.59.13h3.93l14.85-1.14 11.8-1.02 2.79-.25 16.11-1.4h.51l3.3-.51 5.2-1.01 1.78-.38 13.7-2.92 7.87-1.52 13.07-2.67 6.85-1.78 4.32-1.14 2.03-.51 12.43-3.3 14.22-3.8 1.77-.51 1.15-.13 1.01.13 1.27.38 2.28 1.14 2.29 1.14 10.15 5.46-.51.51-.63.63-.64.51-.63.64-.38.5-.64.76-.5.77-3.81 5.58-8.38 12.69-.76 1.02-.5.88-20.05 29.95h12.81l3.17 21.45 10.66 72.08-8.75 2.8-1.52-11.55-48.22-27.67-6.6 15.87-7.49 16.87 17.26 70.94 32.36 131.35-19.8 4.7 3.43 14.85 48.72-9.27 14.72-1.9 1.91 2.28 5.07-4.69 8.76-7.11 11.55-8.5 1.65-1.91 3.29-4.06 2.92-3.93 2.79-4.06 2.67-4.19.76-1.27 1.78-3.05 2.41-4.56 1.65-3.56 1.01-1.9.38-.76.64-1.53.38-1.01h4.19l.89-.13h.5l.64-.25.5-.13.51-.25.64-.13.76-.38.76-.51.89-.5.76-.51 1.01-.64.89-.5 2.16-.89 10.79-2.29 62.3-10.28-10.02-62.94-.13-1.78 7.74-8.25 3.55-9.13 13.83-19.68v-16.62l-.12-14.85-1.78-15.99 31.72-4.95 16.12-2.79-.25-1.27-.26-1.14-.25-2.03-.51-5.84-.51-4.57-.12-1.01 13.57-2.16 26.65-4.57 5.08-1.01v.63l.25 4.44.13 4.57v7.11l.13 17 .25 27.54v21.45l-.76 63.2v17.51l103.93-134.65-12.31-39.59 4.95-.25 2.41.38 2.79.88 6.34 3.05 2.67 1.4.12 7.48 1.53 26.78.89 6.22.63 3.43 1.52 4.18 1.14 2.92 1.53 3.3 3.68 5.33 3.93 4.19 12.56 9.9 7.36 4.69 5.71 3.05 3.81 1.4 3.17 2.41 1.78 1.27 1.52.76 2.16.76 2.16.63 1.77.76 2.03 1.27 2.54 1.91 2.16 1.39 15.73 100.39-.38 8.37.13 9.01-13.7 1.91-7.75 1.39 4.95 10.92 6.47 13.45 6.86 13.83 7.36 14.72 6.98 13.96 3.55 7.11 13.96 27.92 4.31 8.63 4.32 8.5 10.78 21.83 1.02 2.28 1.77 4.19 3.81 10.53 5.97 19.8 2.66 9.52 4.57 15.74 10.53 35.78 7.36 25.38 7.61 23.86 3.05 8.12.63 1.53 2.42 6.34 8.12 20.43 3.8 9.65 5.08 12.94 13.07-2.28 9.9-1.78 11.29-1.65 77.91-12.43 1.53 9.64 2.41 15.99 1.65 10.15.89 5.08 5.32-1.27 2.42-.89 2.15-2.03 3.43-1.52 2.28-.13 3.43-1.27 3.55-7.48 1.02-8.25 1.39-3.94.38-5.84-.76-9.13.51-4.06 33.25-5.59 22.84-2.66 3.8-.38 2.29-.13v3.81l-.13 2.92-1.01 5.33-1.15 3.68-3.04 7.74-2.79 5.58-6.47 10.03-5.21 6.72-8.63 9.78-14.08 12.18-1.02 1.14-3.17 4.57-1.39 2.54-2.92 9.9v3.93l.25 1.78.51 2.53-4.44 3.18-14.85 11.8-6.22 4.57-10.02 7.49-6.09 4.18-12.06 9.14-4.31 3.93-7.36 6.73-9.77 8.76-12.06 12.05-12.05 14.34.76 2.29 5.71 17.64 5.33 16.88 15.1 44.54 1.39 4.06 3.18 9.77.89 2.29 2.53 8.25 8.76 25.89 15.99 48.6 24.36 73.1 2.79 8.12 5.59 17.39 14.21 43.27 6.34 19.29.64 2.41.89 5.21.12 2.03v2.15l-.63 3.18-.51 1.77-.51 1.27-1.14 1.65-3.17 3.81-1.78 1.78-24.62 19.92-100.62 80.71-5.08 4.06-5.96 5.33-2.92 3.81-.89 1.4-.51.76-2.41 5.2-.89 3.05-1.01 4.82-.26 4.95 1.78 44.8.38 2.92-11.16 1.26-24.88 3.3-62.17 7.87-12.44 1.78-36.04 4.57 13.07 37.44 5.84 16.37 4.57 13.83 23.47 67.26-156.2 27.16-1.27.12-158.37 23.48-43.65 5.71-4.06 1.78-15.48 2.54.76 4.31 5.2 31.98 5.33 33.13 1.91 11.67.5 2.28.26 2.04 2.41 15.35-5.97 1.02-4.82.76-3.04.51-2.54.25-1.9-.13-2.04-.12-1.77-.39-2.92-1.01-5.96-2.16-3.94-1.39-2.03-.51-1.9-.13-1.65-.13-1.65.13-2.41.51-12.69 3.17-13.45 3.81-14.72 3.93-16.63 4.44-19.92 5.33-40.98 11.05-10.41 3.04-30.33 9.65-4.95 1.52-9.89 3.04-8.51 2.42-14.46 3.68-30.2 7.74-5.71 1.52z" stroke-linejoin="round"/></defs><use xlink:href="#c" fill="#6bacaf" stroke="#097d9b" stroke-width="5.76"/><defs><path id="d" d="M1350.29 2071.74l-4.57.77-24.11 4.18-11.93 1.78-.38-1.65-1.65-9.64h.63l7.74-1.15 16.25-2.15 2.79-.38 4.31-.64 7.11-.89 2.41-.38 8.88-1.39 7.62-1.02-2.8-18.65 22.21-2.8h1.27l.63.38.77.64 3.93 5.58 15.1-17.38 3.55-3.81 8.25-8 .64-.5 1.52-.89 1.52-.51 19.16-3.43 6.98-1.26-2.16-10.66-.88-4.19-.13-1.02-.51-1.39-.76-1.53-.89-1.77-.25-.38-.38-.39.63-.38.51-.5.63-.51.64-.38.38-.26.38-.12.76-.26.51-.12h.38l1.65-.38.76-.13-2.92-15.1-3.55-18.02-5.08-23.86 18.53-3.17-.89-5.08-.76-3.81-1.4-6.72-.5-3.18 24.74-4.57.51 11.68.38 2.67.63 3.29 2.41 13.33-21.44 3.68-1.4.25 3.94 19.93 29.94-6.47 18.91-4.83 4.82 26.15 2.54 12.81 2.29 11.93 9.89-1.77 10.16-2.16 6.34-1.14 1.52-.26 8.38-1.52 3.04-.63 2.41-.51 10.66-2.03 13.2-2.54 7.61-1.4 8.25-1.52-6.47 9.14-21.32 5.07-18.02 11.81-11.8 5.33-1.27.25-1.14.25-1.01.26-1.4.25-1.52.26-1.4.12-1.39.26-10.79 2.41-23.86 4.95-4.95.5.13.89 2.67 14.6-5.21 1.01-14.72 2.79-9.13 1.78-6.98 1.4-7.62 1.52-1.52.38-8.88.63-12.06 2.54-4.06 1.53-6.6 1.27-5.32 1.14-6.98 1.27-9.14 1.39-6.6.89-14.85 2.03-.12.51-.13.63v.89l.76 4.95.26 1.52-8 1.78-5.71 1.02-10.66 1.9-5.45 1.01z" stroke-linejoin="round"/></defs><use xlink:href="#d" fill="#6bacaf" stroke="#097d9b" stroke-width="5.76"/><defs><path id="e" d="M633.58 1793.06l-5.2 15.35-3.55 15.61-1.27-.25-3.81-.51-1.9-.38-2.16-.25-2.03-.38-1.52-.26-1.9-.25-3.18-14.09-1.52-8.12-1.14-6.98-3.05-20.94-4.31-27.79-8.63-55.59-1.65-11.16-15.48-100.13-.89-5.71-3.17-1.53-5.08-2.41-4.69-2.41-6.09-2.92-3.18-1.52-13.19-6.47-12.31-5.97-12.06-5.96-9.39-4.57-11.92-5.71-7.74-3.81-1.91-.89-1.9-1.01-26.02-12.57-33.62-16.37-15.61-7.61-11.04-5.33-12.82-6.22-14.34-6.98-17.38-8.5-6.73-3.3-.25-1.91-.13-1.52-14.46-7.11-12.31-5.96-16.37-7.99-22.21-10.79-2.79-1.4-2.28-1.14-8.12-3.93-4.19-1.91-11.68-5.71-1.77-.89-13.71-6.09-4.06-1.65-5.96-2.54-6.47-2.53-5.97-2.42-3.68-1.39-10.66-3.94-10.78-3.68-.89-.25-.89-.25-10.91-3.43-3.05-1.02.13-.38.13-.88-.26-.89-.38-1.02-.51-1.01-.63-.89-.89-.76-1.27-.89-6.6-3.17-6.59-3.18-13.2-6.34-26.27-12.82-20.17-10.03-3.3-21.95-2.8-15.99-2.15-14.34-3.05-17.64-6.6-42.26-2.66-16.37-5.84-36.17-7.61-47.46-4.06-26.78-23.86-149.37 2.67-.38 43.9-6.47 3.93-.64 3.3-.25h1.78l1.65.13 2.28.63 1.65.51 6.09 2.66 5.59 2.16 3.3 1.14 15.99 4.57 12.81 3.05 11.04 2.54 9.52 2.15 23.22 5.33-.25-1.01-.13-.76-.25-.89-.13-.89-4.44-18.15-3.81-14.84-1.39-4.83-1.15-4.19-6.72-25.12-8.76-33.25-1.01-3.81 93.39-14.97 91.37-14.73-12.44-77.28-47.84-296.2-1.65-9.9-2.66-15.23-.64-3.93-.89-5.59-13.32-81.09-21.32-129.06 17.51-2.79 38.71-6.22 4.56-.76 91.24-15.74 63.58-10.53 6.47-1.02 2.41-.38 191.48-33.25 30.71-5.58 2.67-.51 5.2-1.02 8.12-1.52 7.87-1.27 7.99-1.14 46.7-6.85 81.46-13.58 1.15-.13 87.68-15.23 83.12-14.34 1.14-.25 11.42-1.78.89-.13 2.03-.38 37.94-6.47 36.29-6.22 4.19-.76 21.19-3.55 90.6-15.48 9.77-1.78 10.92-1.78 1.14-.25-.89 1.9 40.48 247.98.51 2.92 11.55 70.3 7.23 47.34 1.52 10.02 10.66 63.33 17.64 108.12 11.55 71.45.38 8.5 11.16 69.93 14.6-2.28 16.87-2.92 13.33-2.16 10.28-1.65 4.56-.76 57.61-9.52 7.87-1.4 7.11-1.14 19.29-3.17 50.25-8.25 24.99-4.19 25.13-4.06 25.12-3.93 25-4.19 50.25-8 13.96-2.28.25.89 1.15 7.11 7.86 45.68 15.61 92.26 3.94 21.96 9.51 55.71 1.53 9.39 1.65 9.52 1.65 10.28 4.69-.76 56.98-9.27 11.8 72.34 18.52 113.96-34.26 40.36-3.3-13.33-1.01-5.84-4.19-23.73-19.41 2.92 4.18 24.62.51 3.05.76 3.93-17.64 3.17-4.82.89-14.08 2.29-8.38 1.27-61.16 9.89-11.68 2.03-18.02 2.92-1.65.38-.88.77-.13.38-.13 1.77 1.02 8.25 1.9 11.8.13 1.91-.26 2.54-.5 3.04-1.02 3.3-1.39 3.05-1.27 2.03-1.4 1.65-2.28 2.41-3.3 2.16-1.78.63-2.66.89-18.28 2.92-24.61 4.31-31.47 4.95-30.2 5.08 2.41 15.35-1.02.13-1.65.25-1.01.26-2.03.51-1.78.76-1.78.76-1.39.89-1.27 1.14-2.67 2.54-2.66 2.79-2.03 1.9-2.03 1.53-2.03 1.52-2.29 1.27-2.28 1.01-2.54 1.02-3.04.76-3.56.76-5.45 1.14-5.33 1.78-4.06 2.28-31.47 4.95-5.33 1.15-7.49 1.26-6.85 1.91-2.16.63-.25-1.14-3.3-11.17-3.56-21.7-12.68-11.04-21.83-220.44-1.27.39-16.37 4.18-8.37 2.16-13.33 3.55-21.19 5.71-47.84 12.06-14.34 3.68-2.92.64-9.01-14.6-20.3-31.98-10.91-17.64-8.63-13.83-30.33-46.83-29.82-47.21-19.03-31.73-4.7-7.23-5.71-8.88-18.52-29.57-10.03-15.48-2.03.25-8.5 1.52-17.64 2.79-9.9 1.65-6.98 1.02-.89.25-2.79.26-2.92.25-4.69-.13-6.85-.25h-4.7l-3.68.13-4.31.38-18.15 2.92-19.67 3.17-19.92 3.17-21.83 3.56-4.56.76-5.08.76-4.95.89-5.07.76-7.11 1.14-18.15 3.05-4.56-14.09-.39-1.02-7.86-24.74-.89-3.05-1.78-5.2-3.42-10.79-.64-1.9-1.01-2.92-1.4-4.32-1.78-5.71-2.15-6.47-1.02-2.79-1.52-3.68-1.27-3.05-1.4-2.79-1.52-2.79-1.14-2.03-1.02-1.65-1.64-2.67-2.16-3.17-5.59-8.25-1.01-1.65-13.2-19.16 2.03-21.07-3.04 1.4-1.53 1.14-1.26 1.14-1.91 1.65-3.42 2.67 4.82 6.98-.76.51-.76.25-.77.38-1.65.63-13.19 5.08-10.15 3.81-5.97 2.54-7.36 2.79-1.65.51-7.1 1.14.76 5.33.76 4.44v9.26l-8.12 2.16-3.18 1.02-4.44 1.27-5.07 1.01-42.38 6.73-3.43.5 3.55 21.07 3.43-.63 45.05-7.49h1.14l1.65 1.01 2.92 3.81.76.76 1.27.38 11.8-1.9.38 1.14 3.8 12.82 1.4 3.17 8.76 28.81 4.56 15.61 4.07 13.32 3.42 11.68 17.39-2.79 19.66-3.17 13.33-2.29 7.74-1.27 4.69 28.43 1.65 7.61.64 2.54-6.22 7.74-6.98 9.39-.76.64-1.78 1.14-1.14.38-4.31.76-25 4.06h-.51l-12.94 2.42-3.43.63-35.78-50.76-2.29.38-18.02 2.92-43.65 7.23.13 1.4.13.63.25.64.25.76 6.35 21.19 2.28 7.87 2.67 8.75 6.47 21.2 2.92 9.77 4.31 14.21-13.07 4.45-1.39 1.26-.13.64.13.89 3.55 11.93-4.19 1.39-5.45 1.4-14.47 2.28-3.55.38-16.63 9.14-3.68 2.03 4.95 14.85 7.24 21.19 3.68 23.61 4.82 29.19 3.42 22.08-5.33.89-3.68.12-2.41-.25-4.95-1.4-2.15-.89-12.31-6.09-2.29-.89-1.65-.25h-1.01l-4.44.51 1.14 5.96 3.05 15.99.38 3.81v2.28l-.38 1.27-2.67 8.76 48.22 22.97 25.51 12.18 4.18 1.91 13.45 5.33 3.94 1.52 4.57 1.78 2.53 1.01 2.03.64-1.01 1.01-.64 1.9v2.04l1.53 8.88 1.77 10.79.64 3.42 1.65 9.65.51 2.79 9.39 59.14.5 3.04.64 3.56.51 3.55 5.07 32.36 1.52 11.8.13 4.95-.13 1.91-.76 3.3-3.3 12.43-4.31 17.14-9.14 34.01-.89 5.33-.12 1.52.25 2.28.89 6.73 2.92 17 7.87 48.86.5 4.06.13 3.3v1.4l.13 3.81-.13 1.77-.13 1.65v8.76l.26 3.43v.89l.5 4.82.77 6.6 3.55 25.5.51 3.43.25 1.52-28.55 33.76-15.74 20.05-5.96 8.38 4.19-3.68-5.97 20.05.77 5.2 3.04 3.05 5.33 12.69 5.58 15.48 4.83 12.69 3.8 12.57 3.81 1.9 4.31 2.03 3.3 1.65 6.98 3.3 9.01 4.31 3.94 2.03 7.48 3.56 3.81 1.9 3.04-9.64 5.59 1.9 43.27 30.71 5.58 3.05 1.27 1.9 1.27 1.65 1.27 1.52 1.78 1.65.63.76.38.77.25.88.13 1.02v.63l-.13.51-.88-.63-2.03-1.53-.38-.25-7.24-4.44.51 2.79.63 2.41.89 3.3 1.78 5.71-5.97 1.27-3.17-10.53-.38-1.02-.38-1.14-.51-1.14-.38-1.02-.38-.63-.25-.51-.38-.38-.38-.38-.51-.38-.38-.38-.51-.38-.63-.38-.51-.26-.64-.38-.76-.38-.5-.38-.38-.38-.26-.38-.13-.38-.12-.38-.13-.51-.13-.63v-.64l.13-.51.13-.63-5.33-3.3-5.71-3.55-5.84-3.3-5.84-3.18-4.06-2.03-2.54-1.39.26 1.27.63 3.93.51 3.55.13 3.05v3.05l-.13 2.91-.51 2.92-.5 2.54-31.98 4.82.76 4.95-93.52 15.1-21.83 3.56-14.97-14.72 1.27-4.95-11.3 18.91-21.31 39.97-2.42 6.73z" stroke-linejoin="round"/></defs><use xlink:href="#e" fill="#6bacaf" stroke="#097d9b" stroke-width="5.76"/><defs><path id="f" d="M2113.05 2696.12l1.01 6.48-12.18-6.98-10.66-6.1-2.41 4.32v2.92l-2.03 4.82-3.3-2.28-13.58-13.33-5.83-3.55-.89 3.8-.64 3.94 1.65 4.95-15.73-10.79-20.94-13.2-17.13-11.67-6.47-4.32-5.58-3.93 17.13 40.1-16.75 6.98-16.12-18.15-9.01-8.88-31.21-35.03-12.44 24.5-1.02 1.52-2.91 4.19-2.67-3.3-10.53-13.33-9.64-12.31-10.66-13.58-12.19-15.48-13.83-17.77-16.75-21.7-8.88-11.42-2.03-2.28-1.65-1.78-1.65-1.4-2.03-1.39-2.54-1.52-4.19-2.29-11.8-5.96-25.5 5.2-3.05.51-2.79-4.44-.89 4.95.76 3.55.26 1.78-70.05 5.83-51.9 15.74-.51.38-.25.76-.13.64.64 4.69v.89l-.26.76-.38.64-.76.38-1.39.5-5.59.89h-1.14l-1.78-.38-6.34-3.3-.13-9.01.38-8.37-15.73-100.39-2.16-1.39-2.54-1.91-2.03-1.27-1.77-.76-2.16-.63-2.16-.76-1.52-.76-1.78-1.27-3.17-2.41-3.81-1.4-5.71-3.05-7.36-4.69-12.56-9.9-3.93-4.19-3.68-5.33-1.53-3.3-1.14-2.92-1.52-4.18-.63-3.43-.89-6.22-1.53-26.78-.12-7.48v-5.08l-.38-20.81-.13-8-1.14-15.23-1.14-10.53-1.53-12.94-1.14-8.63-1.14-5.33-.51-1.65-.25-.64-.13-.25-6.09-10.41-1.65-3.43-1.4-3.29-5.33-19.8-1.01-3.17-3.43-5.33-.63-2.16-.38-2.41-.13-1.91-.76-6.09-.89-5.07-1.14-5.08-1.4-4.32-1.52-6.09-1.01-4.95-.77-6.72-.12-4.06-.38-18.02-.13-6.35-.13-1.4 11.3-22.84 2.79 1.9 1.27.77 1.39.88 1.53.89 1.26.76 1.4.77 1.02.5 2.41 1.27 3.04 1.65 2.16 1.14 1.52.89 1.78 1.27 2.16 1.65.88.89 2.67 2.41 1.27 1.14 4.44 4.19 9.14 9.27 1.14 1.14 5.33 5.2 6.22 12.56 4.94 10.03 5.97 12.56 10.15 19.93 3.68 7.87 3.17 6.98 14.21 29.44 10.28-.51 11.04-1.65-.25-6.09 4.31-.64 12.31-2.79 25.51-4.18 9.13-1.4 3.94-.38 1.39-.26 3.05-.25-2.54-3.55-7.36-12.31-15.1-22.08-27.15-38.58-7.62-11.04 25.25-25.01-3.04-10.78-.51-1.78-.25-.76-.13-.63v-2.04l.25-.63-12.3-14.21-2.67-3.05-36.16-42.01-.64-.76-8.25-9.64-6.22-6.85-4.94-5.59 10.02 7.24 2.03 1.65 1.52 1.26 5.08 3.56 3.43 2.16 9.77 4.44 4.44 1.77 19.03 7.87 2.54 1.02 4.06 1.65 6.6 3.04 3.43 1.4.76.25.88.13.89-.13.64-.25.25-.13.76-.63.51-.76.89-1.53.63-1.52.51-1.52.25-1.4.13-1.27-.25-1.27-1.4-9.39-20.56-10.66-1.39-9.39-.25-1.52 18.52-3.17-2.66-16.88-2.67-17.14 12.44-2.41 4.06-.76 3.93-.76 25.63-4.7 9.27 58.89.13.76 14.08-2.41 8.25-1.02 5.46-1.14 7.74-1.01 6.47-1.02 6.98-1.14 8.88-1.52 7.87-1.27 6.98-1.4 14.59-2.41 5.96-1.02 7.36-1.39 12.82-2.41 23.6-6.73-2.54-14.34 13.96-2.54 4.32-.76 1.77-.38 1.53-.25 18.52-3.18 17.89-3.04 16.88-2.79-1.52-8.63-1.65-9.52-4.82-27.16-2.16-12.31-1.9-10.79-2.41-13.83 5.2-.89 16.49-2.92 13.33-2.53.13-2.03v-2.67l.38-.13.88.38h1.02l.76-.63v-.89l-.38-2.28-.25-1.78.38-1.27 1.77-2.41.38-1.01v-.64l-.5-1.52-1.15-1.78-1.01-1.78-.51-.5-1.01-.38 8.5-34.01 13.96-16.12 1.39-1.52 1.53-7.24.76-2.66.5-1.02 1.53-2.03 1.39-1.01 1.65-.64 4.7-.89 2.66.51 1.91 1.02 2.03 1.39 1.52.64.89.12 11.54-2.03 7.24-1.52 8.25-1.14 2.66 5.33 1.65 3.04 1.52 2.8 3.81 7.86 1.4 2.8 4.82 9.39 2.92 5.83 1.77 3.18 2.54 4.82 1.14 2.28 1.14 2.03.89 1.78 5.46 10.66 1.4 3.05 11.04-2.8 7.35-1.9 2.67-.63 1.01-.26 1.02-.12 1.4-.26 1.77-.25 1.91-.38 4.18-1.02 4.06-.89 1.53-.25 1.52-.38 1.78-.25 1.14-.13 4.44-.51 3.17-.25-1.9-3.05-1.78-3.04-.51-1.15-.88-1.65-1.53-3.17-1.01-2.41-1.14-2.92-1.02-2.66-1.14-3.68-.76-2.29-1.4-4.95-1.9-7.23-1.78-6.47-1.52-5.97-1.27-4.57-1.02-3.55-1.14-4.06-1.39-4.19-1.15-2.92-1.01-2.92-1.27-3.3-.51-1.01-1.27-3.05-3.17-6.47-.63-1.27-2.41-4.82-2.54-4.7-6.6-12.56-2.92-5.33-1.78-3.43-.38-3.55-1.01-2.92-1.9-3.81-11.3-19.67-6.85-14.46-6.35-12.06-4.82-9.65-6.98-13.45-2.79-6.09-4.82-10.41-2.28-5.33-2.16-5.33-9.26-20.05-6.22-15.48-.76-2.03-3.56-8.88-1.9.38-2.92-7.49-5.58-14.59-5.2-14.6-5.08-14.72-4.95-14.85-1.4-4.19-2.03.13-1.01-.13-1.02-.12-1.39-.26-1.02-.25-.89-.38-.63-.13-.51-.38-.38-.13-.51-.38-.63-.38-.38-.25-.51-.51-.38-.38-.38-.38-.38-.63-.38-.64-.25-.38-.26-.63-.13-.38-.12-.26v-.76l.25-.38.13-.38.25-.38.13-.26.25-.25.26-.25.25-.26h.13l.25-.12h1.14l.64-.13.76-.13.76-.25.63-.26h.51l.38-.12.76-.13h.64l1.52-.25-4.31-14.34-4.44-15.11-4.32-15.6-9.39-35.67-10.4-38.96-3.3-12.81-6.22-23.48-.38-1.14-.64-2.67-.38-1.01-1.52-5.08-1.78-4.95-1.9-4.95-2.03-4.82-2.28-4.7-2.29-4.69-2.54-4.57-2.66-4.44-2.92-4.19-2.92-4.19-3.17-4.06-3.3-4.06-2.54-2.92-2.66-2.79-2.92-2.92-4.95-7.23.89-.64 175.49-28.42 1.4.12h1.4l1.14.26.76.63 1.14 1.27 5.84 12.31 1.77 2.16 1.78 1.27.51.12.63.13 90.1 26.4 1.52.38 1.65.89 2.41 1.01 1.78.64 1.77.63 1.65 1.01 1.65.13 2.16.76h1.4l1.77-.38 1.91-1.01 2.66-3.56 1.02-.5 1.14-.38 2.16-.26.88-.38.89-.89 1.27-.38 1.14-.38 2.8-.63 2.41-.26 1.77-.25 2.41.25h1.78l.38.13.89 1.52 1.4.76 1.39.51 1.65-.63 1.14-.26 2.29-.88 1.39-.64 1.14-.89 1.15-.76.76-1.27 1.14-1.01 1.4-.26 1.14.38 1.77.76h1.02l2.41.39 1.78 1.01 2.92.76 3.42.64 1.91 1.52.76 1.78 1.65 2.41 1.52 2.03.76.63h1.78l3.04-.38 2.92-.25 2.79.12.64.77 1.52 1.14.76.51.51.25.63.13.64.25.51.13.76.12.63.13h.38l.38-.13h.38l.26-.12.38-.13.51-.25.25-.26h.38l.38-.12h.89l.51.12.63.13 2.28.63.64.13.51.26.76.25 1.27.63 2.41 1.02.76.25 1.27.51-6.85-41.24-.64-3.94-.38-2.54-.25-1.77-3.18-19.42-4.18-25.63-1.4-8.51-1.65-10.28 24.75 7.36 9.64 3.3 140.6-9.77-.51-2.41-6.09-35.79-5.71-33.12-5.58-32.61-6.35-38.08-2.41-15.61-3.04-17.51-2.67-16.75-4.82-27.54-.76-3.93 25.25-17.39 17.51-11.68 6.09-4.31 1.91-.89 1.9-.76 2.41-.63 19.92-3.05 27.16-4.57 44.03-6.72 2.67-.77 1.39-.63 2.41-1.9 3.17-3.43 3.3-4.06 2.92-2.29 1.27-.76.89-.51 2.16-.5 7.23-1.14 21.83-3.43 7.23-1.4 38.32-6.72 1.4-.13 2.15-.38 1.4-.25 5.96 34.01 6.73 39.08 1.78 10.03 13.07 73.73 2.15 12.18 2.16 12.31 1.14 5.97 1.65 10.02 9.39 53.94 6.73-.89 18.4-1.52 43.78-2.41 8.12-6.48 3.93-4.69 2.16-3.68 1.52-2.54 1.14-2.66 6.22 4.82 4.44 4.44 2.67 3.17 4.18 5.46 1.02 2.03.89 1.4 2.16 4.69.5 1.27.51 1.27 1.52 6.35 3.18 12.05 1.39 4.82 1.27 3.68.63 1.78.89 1.78 1.78 3.55 2.03 3.3 3.81 4.7 2.66 2.79 3.05 2.66 1.65 1.27 28.55 17.39 6.34 3.68-3.93 1.9-1.14.26-.89.12-.51-.25-.76-.89-2.16-3.17-1.01-.38-9.52-2.29-17.89-5.07-2.03-.26-29.06-8.37-4.7-.76-1.52-.64-.89-.51-.38-.38-3.55-.38-1.14-.38-2.79-1.14-6.48-1.52-9.26-3.94-4.19-1.52-4.82-2.79-9.01-4.83-.63-.5-.51-.89-.13-.64-.25-1.52-.76-1.78-.13-.38-2.03-.63-1.4-.76-1.26-1.02-.13-1.01-1.02-1.02.13-.38.38-1.65-.38-.63-.38-.26-1.78-.38-.25-.25-.76-.51-1.02-.63-.51-.26-8.5 1.27-1.9.38-1.9.64-2.92.76-5.97 1.27-.76-.76-.76-.13-.76.25-1.02.38h-1.01l-1.02-.5-1.27-1.02-.63-.51-.51-1.14-.38-1.01-.63-.89-.76-.76-1.02-.64-1.78-.38 1.15 6.09-1.91.38 12.82 71.96 27.66 155.59 4.32 62.94.5 14.34v1.27l-1.14 47.59-5.07 48.61-4.57 30.83-7.11 42.39-5.2 34.52-1.9 26.4.25 2.41 1.02 33.75 4.06 25.89-2.29 1.02-1.9.89-6.98 2.92 19.16 128.04.63 1.78 1.15 3.55.89 2.29.76 1.77-.89 13.33 1.9 10.53 4.06 18.91 2.03 14.34 3.3 20.18 27.16 162.57 31.97 175.51-8.5 5.71-23.6 18.02-3.43 2.54-5.45 4.19-.26-4.19-4.06-19.8-2.03-9.39-3.04-17.01-.26-2.66-.88-6.47-33.89 5.71-4.82.76-4.69.76-19.04 3.17-2.28.51-3.93.76H2671l-30.7 5.21-9.9 1.65-3.94.25-6.85-.38-7.74-1.27-1.9-.51-28.93-5.45-7.24-1.15-12.31-2.15-5.71-1.02-13.32-2.16-50.76-7.48-19.92-3.18-11.55-1.9-7.86-1.02-7.49-1.26-1.14-.26-1.02-.13h-.63l-.51-.12h-.51l1.9 11.93 4.57 28.04 1.02 5.84.89 4.82 1.39 8 .76 3.68 2.03 10.53 1.15 5.46.63 4.19.13.63.12 1.27.26 1.9.25 2.41v2.29l-1.01-.76-1.53-1.14-1.9-1.27-21.44-15.99-7.75-5.71-6.47-4.83-9.13-5.96-10.15-4.82-4.19-1.78-9.01-3.3-13.07-4.7v-2.66l-.13-2.41-.63-3.68-.76-3.3-.51-2.92-.51-2.79-.63-2.92-.51-2.54-.51-2.54-.51-3.04-14.08 2.15-6.47 1.02-2.54.38-4.82.76-1.4.26.51-2.42.25-1.01.89-1.14v-1.65l-.13-2.41v-2.92l-.25-5.46v-2.03l-.13-4.06.13-2.67.13-.5.5-2.54 1.65-4.57.64-2.67 1.27-4.06.25-3.17.38-7.23.13-4.95-.13-2.03-.25-2.03v-1.15l-2.16-13.19.51-1.4.76-1.9 20.68-12.19 15.48-8.75 1.65-.76 3.68-2.92 19.8-1.78 22.97-3.55-.38-3.05-.51-2.92-.76-4.44-.38-1.9-3.68-21.58-.89-5.84-.38-2.28-.13-.89-.63-3.93-1.4-8.25-3.93-22.84-12.57 2.15-1.14-.25-18.27 2.54-3.55 1.01-1.65 1.15-10.41 9.39-1.14.5-3.3.77-7.74 1.14-88.57 13.45 1.27 8.5.38 2.92 2.15 14.98 3.81-.51 5.2-.76-2.15 5.45-43.27-2.41-3.3-.25-13.71 2.54.13 11.16v4.95l1.27 4.7.63 1.52 2.67 3.81 1.27 2.03.5 1.27.13 1.14-.13 1.4-.38 1.14-.76 1.01-2.16-.12-1.65-.38-1.14-.51-1.65-1.27-3.17-3.55-1.14-.89-1.14-.38h-.77l-1.01.51-.63.76-.51 1.01-.13 1.27.13.89.51 1.4 1.26 2.03 4.19 5.2 4.57 8.76.89 1.01.63.13 2.79-.26 1.15.38.5.77.26.63-.38 1.65.12.89.26.89.51.5.63.13 1.65-.13 7.99-1.26 1.4.12 1.01.51.64.63.25 1.15-.12 1.01.12 1.4.26.89.5.63.77.38 1.9.64 1.01.63.64 1.02.13 1.39-.26 3.94v.25l.13 2.16 1.01 4.19.89 1.77 1.78 3.05 1.65 1.77.89 1.53.5 1.9.89 6.85.13 1.91-.13 1.65-.38 2.03-.63 2.16-1.53 3.17-.88 1.39-1.02 1.15-3.93 3.55-1.27 1.14-2.54 2.16-8.76-1.14-16.87-2.29-17.01-1.9-20.55-.64.5 4.7v2.79l.13 2.16v.76l.26 7.74v2.41l.12 1.91v6.34l-.12 2.79-.39 8.51v3.8l-.38 11.43-.25 7.74-.13 4.44-.25 7.99-.25 6.35-.13 4.82-.51 11.8-.13 4.06-.12 5.72-.26 6.09-.25 8.75-.38 9.27-.13 1.52v1.02l-.12 3.3-.64 16.87-.51 13.84-.25 8.75-10.53 1.53-4.57.5-2.92.51h-1.14l-.89.38-2.03.26-10.91 1.77-6.73 1.14-28.04 4.45-3.94.63-24.49 3.93-5.33.89-16.49 2.41-5.46.89-26.65 4.19-10.78 1.9 7.61 8.63 7.74 8.89 1.4 1.52 4.31 5.08 3.17 3.68 5.21 5.83 4.18 4.83 4.57 5.2 4.44 5.08 9.01 10.28 4.83 5.71 1.39 1.52 1.27 1.52.51.51 1.27 1.52 9.13 10.54 9.27 10.66 3.93 4.44 1.78 2.03 10.66 12.18 1.9 2.16 5.46 6.22 3.68 4.31 5.2 6.09 4.31 4.7 9.01 10.28-2.28 1.14-1.02.38-.63.38-.89.26-.89.25h-.51l-.63.13-.89-.13-.89-.13-1.01-.25-1.14-.38-1.02-.38-1.14-.64-.89-.63-1.4-1.02-3.29-2.66-1.4-1.02-1.27-.76-1.01-.51-1.02-.38-1.27-.25-1.14-.13h-2.92l-1.14.13-1.78.25-3.42.51-8.38 1.4-3.04 1.14-1.53.76-1.39 1.14-1.4 1.91-1.27 2.03-.38 1.14v1.52l.38 2.29.51 1.65 1.52 4.69.64 2.92 3.55 19.92.63 1.78 1.53 1.27.76.38 2.03.25 1.9-.25 5.46-.76.76-.13.76.13.38.51.38.89.64 3.29.76 2.42 1.27 2.66.89 1.02 1.14.63h2.54l3.55-.51z" stroke-linejoin="round"/></defs><use xlink:href="#f" fill="#09757a" stroke="#00465f" stroke-width="5.76"/></svg>