<svg width="4.58in" height="384" viewBox="0 0 3301 2880" xmlns="http://www.w3.org/2000/svg" xmlns:xlink="http://www.w3.org/1999/xlink"><path fill="#fff" d="M0 0h3301v2880H0z"/><defs><path id="a" d="M3263.55 1985.57l4.96 36.83-6.3.3-.41-4.43-.82-5.57-.42-2.27-.51-1.75-.52-1.34-.72-1.35-.93-1.34-41.16-42.19-20.63-20.11-8.77-7.84-5.05-4.74-10.22-9.08-1.65-1.55-1.54-1.13-1.65-1.45-1.65-1.34-3.82-2.48-2.79-1.44-2.27-1.03-2.68-.93-2.68-.82-4.85-1.14-6.19-1.13-4.43-.73-18.16-1.85-2.68-.11h-2.79l-3.09.31-2.79.52-3.71.93-1.75.72-3.61 1.65-1.96 1.14-3.72 2.57-1.75 1.45-4.02 4.02-3.2 4.23-4.75 5.36-11.24 12.9-17.02-16.71-9.39-9.18-9.28-8.87-1.76-1.76-3.5-3.5-17.13-16.82-14.34-14.03-4.85-4.54-1.54-1.54-5.88-5.88-2.68-2.38-2.69-2.06-4.12-2.89-4.13-2.47-2.37-1.34-5.88-2.48-5.26-1.86-6.19-1.44-3.82-.62-12.07-1.24-4.74-.62-7.02-1.44-3.5-1.03-3.82-1.34-3.51-1.55-2.47-1.24-3.2-1.96-3.1-1.85-7.63-5.26-36.31-24.86.93-2.07 1.96-2.78 1.44-2.27 4.44-3.61 6.91-10.52 9.59-13 14.13-16.2 15.79-15.98 3.71-3.1 4.13-3.51-.31-3.5 12.58-2.89 8.67.93-3.2-2.58-1.96-1.55-.1-.1-2.58-2.06-2.27-1.66-1.55-1.23-3.09-2.38-2.48-2.06-2.99-2.27-3.3-2.58-2.89-2.37-2.27-1.75-2.37-1.76-6.81-5.36-9.8-8.05-4.23-3.3-2.48-1.85-3.19-2.48-5.26-4.23-4.54-3.51-4.54-3.5-2.48-1.96-2.99-2.38-2.48-1.96-3.09-2.57-2.37-1.76-1.76-1.54-3.71-2.79-2.17-1.75-3.19-2.58-5.57-4.44-2.58-1.96-2.58-2.06-3.2-2.58-4.85 6.91-13.92-21.66.1-2.89v-3.2l-2.37-1.96-7.43-5.77-4.85-3.82-3.4-2.68-1.86-1.45-6.81-5.26-3.92-3.19-5.67-4.44-2.38-1.86-4.84-3.92-7.02-5.57-8.35-6.6-3.72-2.99-4.74-3.61-7.84-6.29-3.92-2.99-5.16-4.13-4.44-3.61-2.78-2.17-4.75-3.81-1.85-1.45-1.34-1.03-7.23-5.67-4.02-3.2-2.89-2.27-2.06-1.65-2.37-1.75-2.38-1.86-1.65-1.34-1.44-1.03-3.2-2.58-1.44-1.14-2.89-2.26-1.55-1.24-2.89-2.27-.72-.62-1.34-1.03-2.37-1.86-.31-.31-1.96-1.55-4.75-3.81-1.75-1.34-1.13-.93-1.24-.93-2.17-1.86-.93-.72-5.88-4.64-5.26-4.13-4.02-3.09-5.06-4.02-6.08-4.85-7.74-6.09-5.05-3.92-6.5-5.26-5.88-4.54-4.44-3.61-1.85-1.44-3.62-2.79-4.33-3.4-7.22-5.78-6.6-5.15-5.36-4.23-4.85-3.82-6.3-5.06-1.54-1.13-1.45-1.13-1.96-1.55-4.12-3.3-2.48-2.07-1.44-1.03-1.45-1.24-3.81-3.09-1.45-1.13-4.74-3.72-6.5-5.05-3.61-2.89-2.38-1.86-4.12-3.19-6.09-4.85-2.99-2.17-3.09-2.47-2.69-2.17-2.78-1.96-4.23-3.4-4.95-3.72-5.47-4.54-2.89-2.16-3.2-2.58-1.03-.72-1.65-1.35-3.51-2.78-4.43-3.51-2.99-2.58-2.79-2.16-3.61-2.79-.31-.2-2.99-2.48-.93-.72-3.5-2.89-3.62-2.68-2.26-1.86-2.27-1.96-5.88-4.85-.21-.2-6.09-4.75-4.43-3.5-2.99-2.38-1.86-1.44-2.17-1.76-5.67-4.43-2.27-1.75-1.96-1.55-8.87-7.02-5.47-4.23-3.51-2.68-3.4-2.78-3.92-3.2-7.94-6.19-7.12-5.67-3.1-2.48-1.23-.93-1.34-1.13-4.34-3.3-5.46-4.33-2.79-2.27-8.66-7.02-1.45-1.13-4.02-3.1-1.24-1.03-.93-.72-2.37-1.86-3.1-2.47-5.88-4.54-2.68-2.06-2.27-1.86-2.06-1.65-1.86-1.45-5.57-4.43-3.61-2.79-3.3-2.58-2.89-2.37-1.44-1.13-1.55-1.24-1.44-1.14-1.45-1.13-5.98-4.74-2.89-2.27-3.71-2.89-2.48-1.96-3.4-2.68-3.3-2.69-8.05-6.39-4.02-3.2-6.91-5.47-2.69-1.96-1.13-1.03-1.75-1.24-1.65-1.54-4.85-3.82-5.06-3.92-4.43-3.4-3-2.27-1.34-.93-1.44-1.03-1.34-.93-1.45-1.03-1.65-1.03-1.75-1.34-1.65-1.04-1.75-1.13-1.96-1.14-1.55-1.03-1.45-.82-2.37-1.45-2.06-1.23-1.96-1.14-2.06-1.13-1.14-.62-1.55-.83-1.75-.93-1.55-.82-1.96-1.03-1.85-.93-1.96-.93-1.55-.82-1.75-.83-1.55-.72-1.65-.72-1.45-.62-1.23-.52-1.14-.51-1.44-.62-1.55-.62-1.24-.52-1.44-.62-1.76-.72-1.03-.41-.82-.31-1.65-.62-1.35-.41-.92-.31-1.04-.41-1.54-.52-1.45-.52-1.34-.41-1.75-.62-2.17-.62-2.27-.72-2.47-.72-1.55-.41-1.65-.52-1.55-.41-1.75-.41-1.65-.52-1.65-.31-6.4-1.55-1.44-.31-1.86-.31-1.75-.31-1.86-.41-1.65-.31-4.95-.82-5.57-.72-4.85-.52-2.27-.21-1.75-.2-4.44-.31-3.61-.21-2.06-.1-2.38-.11h-2.68l-3.5-.1h-3.31l-1.96.1h-3.5l-1.45.11-1.85.1h-1.65l-3.41.31-1.96.1-2.58.21-1.44.21-1.86.1-1.55.21-1.75.2-1.55.21-3.61.51-5.46.62-5.99.83-6.81.93-6.8.93-6.92.92-6.8.93-6.92.93-6.8.83-6.92.92-6.8.93-6.81.93-7.43 1.03-6.7.93-6.5.83-6.81.92-7.94 1.04-5.58.72-7.01 1.03-6.91.82-6.81.93-6.81.93-6.91.93-6.81.82-6.81.93-10.52 1.45-2.78.31-.42.1-5.57.72-5.77.72 5.98 2.69-9.7 1.34-77.88 10.31-2.17.31-35.58 5.57-15.27 1.34-1.34 2.79-1.45 3.5 9.18 53.64 2.69 17.64-2.38 3.41 2.79-.52 1.24 8.36 5.98 20.42 4.13 9.7 22.9 126.36 3.71 21.25-.83 10.72-3.5 14.96-13 14.65-14.24 12.69-11.55 10.11-34.35 31.35-3.1 10.53-.61 2.16-39.31 5.06-34.24 4.43.41 3.41 1.44 10.1.31 1.35 22.8-2.89 10.52-1.45 21.97-2.99 1.04-.1 1.13.1 1.03.52.83.62.62.92.41.93.31 1.14-.52 8.66-.2 3.3v6.71l-.11 1.13-.51 1.03-.62.73-1.34.92-1.55.21-27.65 3.71-1.65.62-1.75 1.04-5.47 5.77 1.96 2.37 1.34 1.76 1.24 1.65 2.27 3.09 2.27 3.3 1.65 2.48 1.65 2.58 1.45 2.58.92 1.65.52.82.51 1.03 2.27 4.54.93 2.07 1.24 2.68 1.14 2.78.72 1.65.51 1.55.83 2.37.72 2.27.72 2.07.62 2.16.62 1.96.83 2.89.72 3.3.41 1.65.52 2.99.82 4.44 1.14 9.8 13.61-1.86 6.09-.93 10.52-1.34 15.27-2.06 10.83-1.24.21 2.27.31 2.48.3 2.37.42 1.96.62 1.85.51 1.24 1.03 1.55 1.55 1.86 3.1 2.68 12.17 10 2.99 3.72 3.09 26.4.42 42.4 3.71 25.17 17.12 15.37 26.62 37.34 19.6 33.42 1.86 8.46-5.16 28.57-8.05 33.22-1.24 5.77-24.03 47.87-11.66 19.18-26.61 46.32-4.23 4.43-33.63 27.24-8.05 9.07-4.43 9.18-21.87 44.87-12.59 30.43-3.5 3.92-8.77 6.4-6.3 4.74-2.26 2.89-1.24 4.23v6.81l1.65 29.09-2.37.62 1.44 10.21-9.28 1.34-12.38 1.75-62.62 9.08-62.41 8.98-7.84 1.13-11.04 1.65-59.1 8.46-2.89.41-5.37.83-24.14 3.4-22.38 3.3-46.63 6.81-2.99.41-.93-.1-23.93 3.61.62-1.44.93-2.38.1-.41.52-1.86.82-4.23 2.27-10.93.93-4.54-4.64-1.34-5.06-1.44 10.94-57.87 2.47-27.03 4.75-34.97 13-40.02.2-.62v-.1l1.55-5.06 1.65.83 2.58-2.06 1.75-4.54-.41-8.36-3.4-7.63-4.75-7.22-2.27-5.16-.1-2.99 2.37-16.4 4.85-15.16 9.7-8.88 48.79-49.71 4.13-4.96.72-4.02-1.34-5.26-7.53-20.22-1.24-7.84.72-13.3.93-11.45-1.55-3-2.27-3.19 11.04-68.19 2.78-30.32-3.71-29.71-4.13-4.64-17.84-40.54-.72-10.73-.73-10.73-.41-7.84-.1-.51-8.77.93-11.35 1.54-15.26 2.07-10.53 1.34-13.82 1.85-1.96.21-3.2.41h-1.54l-7.22.42-13.62.61-40.03 2.07-8.76.41-4.85.31h-3.72l-3.19-.1-2.69-.52-2.88-.51-4.23-1.55-4.44-1.65-10.21-5.26-6.91-3.41-4.13-1.75-3.3-1.24-6.4-1.65-3.71-.72-5.36-.62-3.92.21-4.44.31-9.39 1.23-1.65.52-7.12 1.86-2.88 1.13-.73.31-.51.21-.31-.73-1.86-4.64-2.27-7.11-1.54-4.96-1.45-8.56.41-1.03-1.54-11.14-.21-.93-.1-1.03-2.58-25.58-.21-2.06-2.89-21.56-.41-2.99-1.13-8.05-.21-1.75-1.24-10.11-5.57-40.64-1.96-15.79-.82-7.22-1.86-15.78-2.06-30.64-.21-2.57-1.75-11.66-3.61-21.97.2-18.47v-9.69l-.2-5.37-.62-3.81-4.23-34.97-.83-5.67-.82-6.3-.21-2.99.52-4.74.41-2.58 1.13-4.33.93-2.89 1.03-2.38 2.69-4.95 1.44-2.16 2.06-2.79 2.79-3.09 2.27-2.07 2.68-2.06.62-.51-.1-3-3-37.75-4.23-32.08-.51-2.99-.41-2.89-27.75 3.61-13.41 1.75-.93.11-.31.1 1.65-3.4 1.13-1.96 2.58-17.23 3.51-10.31 7.63-28.47 4.13-13.93 4.54-9.49-1.34-11.76-1.24-2.78v-4.34l1.44-5.26-.1-12.89 2.68-7.33 4.23-4.33 5.88-9.69-.1-3-.83-1.03-.41-2.58.41-1.85.52-1.03.72-1.45-.2-1.55-.52-1.44-.93-1.65-.51-1.44-.42-2.58-.31-1.86.62-1.75.72-1.45.62-2.16.31-1.96-.51-1.96-.72-1.45-.93-1.44-1.24-1.65-.21-1.55.11-3.51-.21-2.88-.21-1.45-.2-1.03.1-1.24.62-.41.72-.31.41-.1.62-.83.11-1.13-.21-1.34-.83-1.86-.2-.62-.21-1.24-.41-2.68-.1-1.75.1-.52.51-1.34.62-2.06-.1-1.34-.41-1.34-.31-.83-.72-1.03-.62-.93-.93-1.24-.41-.41-.52-.72-.93-1.86-.51-1.03-.31-1.03-.42-1.14.11-1.03.31-.62.72-.51.82-.73 1.24-.82.62-.72.83-.21.92.31.93.31 1.45-.62.41-.72.31-.93v-1.03l-.31-.93-.21-1.44-.51-1.24v-1.55l.1-1.03.21-1.55.62-1.34.92-1.24.83-1.44.62-1.55.72-.82.72-.72 1.03-.62.93-.11 1.24-.31.83-.31.82-.61.41-.62.31-1.03.42-.93.2-1.45.11-1.34v-.93l.3-1.54-.1-1.45-.51-1.44-.93-2.48-.72-.82-.31-.73-.21-1.13-.21-1.13-.1-.73.1-1.34.52-1.85.1-.93.72-1.14.62-.93.62-1.03.31-1.34.31-1.13.21-1.45.2-1.44.73-1.34 1.13-1.03 1.34-.93 1.76-.83 2.68-1.03 2.78-.31 1.24-.41 1.14-.21 1.65-.1 1.34-.1 1.54-.52 1.55-.62 1.55-1.13 1.55-1.55 1.44-1.03 2.06-1.34 2.69-2.48 1.34-.93 1.44-.92 1.34-.73 1.65-.82 1.55-1.55 1.03-1.34.93-1.75.72-1.14 1.55-.82 1.75-.62 1.86-1.24 1.55-.72 1.23-.21 1.45.41 1.96-.62.93-.41.41-.1.41-.1 1.03-.21 1.35.1 1.44-.2 1.13-.11 1.55-.31.72-.72.62-1.34.72-.72 2.27-1.24 1.86-1.55 1.24-.72 1.75-.41 3.2-7.02 1.34-1.75 12.48-14.23 7.43-15.17 23.83-26.61-.21-.83-1.44-3.09.1-8.97 1.03-7.64.21-1.13-.72-7.64 1.13-5.88-1.44-14.02-1.55-6.71 6.6-6.6 3.92-3.09 5.06-1.86 3.71-1.14.93-.92.62-.52 1.24-1.75 1.54-6.4 2.07-8.35 4.02-15.37 3.2-13.1 4.23-17.44v-.62l2.16-9.49 1.34-6.08 2.69-10.42 1.75-5.57 3.51-13.1 4.43-18.16.73-3.4 2.37-7.53 1.75-6.7.83-6.4 3.19-7.74 4.13-15.16 3.3-15.58 3.82-15.16 1.65-8.97.82-1.96 1.35-4.75.2-2.06v-4.95l.11-1.34 2.37-5.16 1.13-4.23 9.7-36.52 1.55-9.38.92-2.89 2.58-10.21 1.76-6.3.93-2.26 1.13-1.66.83-2.99.31-2.06-.11-1.86.11-2.47.51-2.89 3.41-10.32.51-3.09 2.79-8.36.31-1.23v-.93l1.03-5.16 2.06-7.74 1.65-5.36.72-2.89.62-4.02.31-2.58-.2-1.24.3-1.96 1.04-2.89.2-1.23 1.86-4.44 1.34-2.06.41-.83-.2-2.37.51-3.2.41-1.13 1.66-7.53 9.28-34.87 10.11-42.19 1.34-3.71 4.02-16.19 1.76-6.61 2.16-12.58 1.65-4.64 8.05-29.19.21-2.89.82-5.99 1.65-7.73.41-1.03.42-.62.62-.62 1.34-2.27.93-1.86 1.44-4.85-.21-.92-.62-1.14-.72-.62-1.65-.31-1.96-.2-.41-.31-.52-1.24v-.83l.21-.41 2.58-2.37.72-1.65.93-4.44.31-1.96.51-1.03.83-.82 1.44-.83 1.34-1.24.83-1.23 3.09-5.99 1.24-1.85 2.27-4.23.52-2.27.31-.93.51-.93.62-.82 1.65-1.35 1.55-.82.41-.52 2.89-6.7 1.24-2.06 2.68-3.31.52-1.44.2-1.24.52-1.03 1.34-2.47 2.17-1.24 2.16-2.99.83-2.27 1.44-2.38 1.55-1.96.72-.61 2.06-2.58.31-.73.21-2.06.21-.51 2.58-2.69 2.37-4.33 1.34-3.4 1.55-2.68 1.85-2.58.72-.62 1.04-1.24.62-.93.51-1.34.1-.72 3.51-1.45 1.34-1.54.72-.42 4.96-.3 6.5-.73 23.21-3.71 12.68-1.96 9.7-1.96 14.03-1.34 6.91-.93 11.04-1.24 3.92-1.03 3.2-.51 9.28-.62 3.92-.62 1.96-.62 8.05-.41 1.85-.31 2.07-.62 5.67-.83 7.53-.62 4.64-1.44 1.65-.31 2.48.62 1.13.1 1.04-.2 1.03-.83h.62l.72.21.31-.11 1.03-.92.62-.21 9.08-1.24 4.02-1.96 2.78-1.13 4.44-1.14 8.46-.41h6.19l6.29.41 5.47-.51 6.7-1.14 10.94-.93 17.84-2.37 8.05-1.13 17.74-3.2 19.5-3.3 36.93-5.37 17.64-3.09 11.86-1.96-.2 2.68 1.44 7.12-.72 2.68-1.96 4.75-4.95 13.1-1.45 5.88-.31 2.57.11 4.65 1.85 9.38 1.86 7.53 2.17 11.14.3 5.88-1.44 10.42v2.99l-.62 15.17-1.03 15.37-1.13 6.08-1.66 7.43-1.13 2.58-3.82 8.35-4.54 8.36-5.88 11.86-4.53 6.29-1.45 1.96-2.68 2.58-1.86 1.14-1.65.72-6.08 1.65-11.97 2.37-8.05 2.06-5.77 2.27-3.51 1.65-3.1 1.96-5.98 4.85-3.92 4.13-1.24 2.78-.51 2.38v1.34l.62 3.3.51 1.34.11.93v.82l-.52.83-.72.51-14.55 17.64-3.3 5.06-.93 2.27-.1 1.03-.62 1.96-1.13 1.44-2.89 4.95-1.24 3.51-.1 1.44.93 4.54v1.65l-.62 1.96-.11.93v.83l.31.93 2.27 14.75 4.34 30.22 1.54 8.15.52 1.44.51 1.14 1.04 1.13 10.93 7.53 7.01 5.78 9.91 8.56 1.85 1.96 2.58 3.61.73.83.51.3 3.92 1.04 1.55.1 2.47.72 1.86.93 2.89.83.93.61.93 1.04.82 1.34 4.23 4.74 1.14 1.03 9.18 7.43 10.52 7.43 1.96 1.13 1.34 1.24 1.86 2.27 1.03 1.55.41.92.31 2.69 1.86 10 1.34 9.7.41 7.43.1 3.4v4.02l.52 7.22 1.34 13.52.31 9.9-.21 1.75-1.34 4.54-.51 1.03-.73 4.95v1.55l-.61 4.44-.83 4.02-.31.72-.41.41-1.24 3.61-1.86 8.67-.62 2.27-.82 5.67-.72 2.37.2 2.17-1.65 14.54-1.03 3.72-6.29-3.61-2.58-1.34-2.48-.73-1.96-1.54-3.61 2.68-5.57 3.51-11.55 3.81-3.3 1.86-.93.72-.93.21-5.16-.72h-1.65l-3.61.41-3.92 1.86-.62.82-2.78 10.93-2.27 10.42-1.34 3.2-3.51 4.02-5.77 4.23-3.41 1.55-4.64 2.27-2.99 2.89-4.85 8.46-5.67 12.37-9.39 18.37 28.47 22.69 28.16 22.28 6.6 5.16 51.99 43.32 72.94-10.83 147.41-21.25 77.78-11.35 29.91-4.33 40.75-5.98 148.44-21.66 148.44-21.66 147.2-19.71 73.66-10.62 130.08-19.81 130.59-19.29 130.5-19.29 5.67 31.47 25.07 173.08 25.68 173.2 25.79 173.19 25.69 173.09 2.47 16.09 31.57 202.28 17.23 110.58 4.02 35.07.31 10.93 20.22 135.34 4.95 33.01 10.42 74.37 1.65 11.45.82 5.88 1.04 7.74 2.47 17.64 1.45 10 .61 4.23.31 2.27z" stroke-linejoin="round"/></defs><use xlink:href="#a" fill="#9dc8ca" stroke="#9dd7f0" stroke-width="5.76"/><defs><path id="b" d="M650.61 2850.91l-.93.93h-1.34l-.83-.41-3.2-1.34-3.19-1.55-1.14-.1-1.65.3-1.55-.1-1.44-.51-2.37-2.69h-1.03l-3.51-.51-4.85-1.86-6.29-3.4-6.61-.11-12.79-3.4-9.8-4.54-4.95-3.3-14.54-9.9-8.67-10.73-1.96-11.24 2.79-22.08-.21-4.02-.31-4.23 2.79-4.95 5.98-1.34-6.19-18.98-18.36-9.7-1.14-.62-5.98-7.94-1.03-16.92-4.13-18.36-6.08-8.87-5.37-3.92-7.73-1.96-8.98 1.55-5.36 4.54-5.26 3.5-.31.21-1.45-.1-1.75-.11-2.06-1.96-2.38-2.26-8.66-14.14-6.91-7.01-4.95-3.3-.21-.31-.93-1.03-3.09-3.3-3-3.3-2.06-1.55-1.13-1.65.1-3.82-.41-2.68-.83-5.47-1.96-1.24-4.02-1.44-7.33 4.13-1.75.82h-.82l-.42-.62v-.51l.73-1.03.72-.93.72-1.24 3.2-12.79-1.55-10.32-4.54-4.95-9.49-4.23.83-6.5-4.75-3.71.41-6.5-1.03-.2-4.64 2.57-.31 12.38-2.48 2.27-4.43 1.55-1.75.72-.42-2.78 3.3-6.61-5.15-7.01-.93-6.39-.72-5.37 1.34-.21 2.58 3 5.05-1.55-2.27-13.1 9.8-5.16-.52-5.98 6.61-8.05 1.44-5.05 16.81-2.89-2.37-6.71h-13.61l-21.98 7.02 4.03-15.37-.11-5.67-.1-10.94-23.93-15.06v-10.83l-2.99-11.04-6.81-14.85-6.81-13.72-10.21-10.93-2.58-3.61-4.64.41-11.97 1.13.52 4.65-10.11-.11-.62-4.02-21.56 3.61-34.35 4.23-18.06-17.02-20.42-26.1-6.6-10.31-6.19-7.74-16.09-23-19.4-17.54-43.63-17.43-38.48-10.11-11.97-3.09-5.26-1.35-15.37-4.02-8.25-17.02-5.16.62-.31-.72-.51-.83-.83-4.64-5.47-27.13-5.15-60.24 1.34-22.18-3.61-5.67-6.4-5.88-7.32-5.47 4.33-5.67 5.78-.21 5.57 5.68 4.95 1.96 4.43-1.45 7.95-2.58 2.89-3.4 1.96-6.6-1.65-5.06-3.61-3.09-8.26-2.99-5.57-1.96-1.24-4.02 1.24-2.17 12.17-8.05 3.72-6.7 2.16-13.1-.72-11.66 5.57-3.4 6.91-15.89 7.23-13.1.2-6.39-1.44-5.57 3.5-12.69 1.14-4.13.21-.62 4.23-12.06 1.13-6.71.1-.62-2.58-13.1-1.34-1.75-.51-2.99-1.14-6.19 6.6-6.4.31-.2 1.14-1.55 3.82-4.54-.11-12.28v-3.09l6.19-11.35-.31-4.64-9.18-7.84-.1-5.67 10.11-9.7 1.75-5.26-.51-10.73 4.02-10.72.1-.31-9.69-5.47.2-4.54 5.47-8.25-.83-4.75-1.23-1.44.41-6.29 2.99-7.74-1.03-9.7-2.89-4.53 1.03-16.51 1.96-10.93 5.57-7.64-.1-11.45 4.43-4.23-2.57-4.95 4.95-2.99.82-1.96-2.78-2.78 1.75-3.1 5.26-4.95-.1-16.09.93-1.75 2.68-5.68 3.09-10.11-2.27-7.42-2.68-2.79-.72-7.63 2.58-3.2 2.89-3.71.2-9.29 7.33-4.74-1.24-8.67 2.58-5.67.82-15.88-1.54-7.43-4.03-7.12-1.13-10.31 3.71-11.04 4.03-6.71 3.5-12.99 6.71-9.08-1.14-7.32-4.12-26.41-5.57-35.8-.73-4.74-2.68-16.92-.1-1.23-1.55-10.01 62.31-9.18 42.91-6.29 3.3-.42-1.44-8.87-1.65-11.86-7.02-51.06-.2-1.03-.11-1.03-1.03-7.53-.93-6.4-.72-5.67-1.44-11.55-.11-.83-.31-1.75-.51-3.51 12.58-1.75 4.75-.62 16.09-1.96 41.68-5.68 2.06-.2 4.33-.62 5.16-.72 5.16-.73 4.74-.61 4.75-.62 4.74-.62 4.65-.52 5.15-.72 5.06-.72 5.05-.62 5.16-.72 5.06-.73 5.15-.61 5.06-.62 5.16-.73 5.05-.61 5.05-.73 5.16-.72 5.06-.72 5.05-.62 5.06-.72 5.05-.62 5.06-.62 5.15-.72 5.06-.72 4.43-.62 10.84-1.34 2.37-.31.31 3.09.41 2.79 5.47 45.49 6.08 28.78 4.34 29.19 4.23 31.98.82 16.5.83 12.69 1.96 13.61 4.84 33.73 1.96 14.03 1.65 10.83.83 6.3 2.27 11.86 3.92 20.63 6.91 51.16.41 2.99 2.69 19.71.41 3.3 6.91-7.43 16.81-2.37 41.37-5.37 7.32-1.03 9.29-1.24 6.7-.82 19.19-2.58 27.44-3.71 12.48-1.65 5.98-.83 4.54-.1 3.92.31 6.92.93 3.3.2h3.5l9.08-1.13 49.93-6.09 7.22-.93 9.18-1.13 16.51-2.17 4.43-.41 8.46.62 5.78 1.55 2.58 1.03 1.65.72 2.58 1.34 3.5 2.17 3.82 2.68 12.48 10.52 13 10.83 5.78 4.13 4.12 2.58 2.37 1.34 2.89 1.65 8.56 3.81 78.82 33.94 41.98 18.05 7.63 3.3 9.49 4.03 3 1.23 1.75.73.41.41 12.69 5.26 4.54 1.55 4.13 1.23 4.23.93 4.22.83 3.31.31 2.27.2 5.26.21 5.57-.21 5.57-.51 5.57-1.03 5.36-1.24 5.26-1.76 4.95-1.96 5.26-2.57 4.85-2.79 4.85-3.3 4.64-3.71 6.71-6.4 1.24-1.13 4.23-4.95 10.72-13.31 1.76-1.75 4.85-4.96 3.81-3.3 2.07-1.44 1.44-1.03 2.99-1.96 4.85-2.58 1.24-.72.51-.21.73-.31 2.88-1.13 7.12-1.86 1.65-.52 9.39-1.23 4.44-.31 3.92-.21 5.36.62 3.71.72 6.4 1.65 3.3 1.24 4.13 1.75 6.91 3.41 10.21 5.26 4.44 1.65 4.23 1.55 2.88.51 2.69.52 3.19.1h3.72l4.85-.31 8.76-.41 40.03-2.07 13.62-.61 7.22-.42h1.54l3.2-.41 1.96-.21 13.82-1.85 10.53-1.34 15.26-2.07 11.35-1.54 8.77-.93.1.51.41 7.84.73 10.73.72 10.73 17.84 40.54 4.13 4.64 3.71 29.71-2.78 30.32-11.04 68.19 2.27 3.19 1.55 3-.93 11.45-.72 13.3 1.24 7.84 7.53 20.22 1.34 5.26-.72 4.02-4.13 4.96-48.79 49.71-9.7 8.88-4.85 15.16-2.37 16.4.1 2.99 2.27 5.16 4.75 7.22 3.4 7.63.41 8.36-1.75 4.54-2.58 2.06-1.65-.83-1.55 5.06v.1l-.2.62-13 40.02-4.75 34.97-2.47 27.03-10.94 57.87 5.06 1.44 4.64 1.34-.93 4.54-2.27 10.93-.82 4.23-.52 1.86-.1.41-.93 2.38-.62 1.44-18.36 2.68-4.13.62-25.89 3.51-1.86.31-.93.1-1.13.21-7.84 1.13-11.97 1.65-10.31 1.55-19.5 2.78-7.43 1.04-20.11 2.88-22.18 3.1-12.89 1.85-29.09 4.13-3.1.41-9.18 1.45-4.44.62-1.44.2-3.3.42-6.09.82-37.03 5.26-23.62 3.41-12.48 1.75-49.73 7.12-13.51 1.96-24.76 3.5-21.76 3.1-12.9 1.75-5.57.83-18.46 2.68-12.48 1.75-20.95 3.1-22.28 3.09-12.48 1.76-11.66 1.65-25.58 3.61-14.65 2.16-22.69 3.2-37.24 5.78-7.22.72h-2.06l-1.96.2-2.89 1.04-2.07.82-2.27.62-4.22.72-7.33 1.24-9.28 1.55-4.03.62-8.15 1.44-24.55 3.61-2.99.41 3.2 24.35.62 4.12.51 3.82 7.12 47.14 1.14 7.01 21.66 142.04 2.06 16.82 1.96 14.03 1.55 10.83.41 3.09.83 5.57 9.28 67.88 1.96 14.03 10.52 74.37-10.31-4.64-7.02-2.69-3.3-2.06-3.09-1.13-.72-.52-1.24-1.96-1.96-1.03-5.47-1.75-2.47-.42-2.69.31-4.54.83-2.37-.21-1.24-.2-.72.82-.1 1.24 1.55 1.65 1.85 2.89 3.41 2.06 1.13 1.24 5.16 2.58 2.27 2.06 1.86 1.86 3.09 1.65 1.96 1.44 3.1 3.82 3.19 4.02 2.99 1.96 3.61 1.34 1.14.62-.1 1.34z" stroke-linejoin="round"/></defs><use xlink:href="#b" fill="#9dc8ca" stroke="#9dd7f0" stroke-width="5.76"/><defs><path id="c" d="M1095.83 1734.91l-6.71 6.4-4.64 3.71-4.85 3.3-4.85 2.79-5.26 2.57-4.95 1.96-5.26 1.76-5.36 1.24-5.57 1.03-5.57.51-5.57.21-5.26-.21-2.27-.2-3.31-.31-4.22-.83-4.23-.93-4.13-1.23-4.54-1.55-12.69-5.26-.41-.41-1.75-.73-3-1.23-9.49-4.03-7.63-3.3-41.98-18.05-78.82-33.94-8.56-3.81-2.89-1.65-2.37-1.34-4.12-2.58-5.78-4.13-13-10.83-12.48-10.52-3.82-2.68-3.5-2.17-2.58-1.34-1.65-.72-2.58-1.03-5.78-1.55-8.46-.62-4.43.41-16.51 2.17-9.18 1.13-7.22.93-49.93 6.09-9.08 1.13h-3.5l-3.3-.2-6.92-.93-3.92-.31-4.54.1-5.98.83-12.48 1.65-27.44 3.71-19.19 2.58-6.7.82-9.29 1.24-7.32 1.03-41.37 5.37-16.81 2.37-6.91 7.43-.41-3.3-2.69-19.71-.41-2.99-6.91-51.16-3.92-20.63-2.27-11.86-.83-6.3-1.65-10.83-1.96-14.03-4.84-33.73-1.96-13.61-.83-12.69-.82-16.5-4.23-31.98-4.34-29.19-6.08-28.78-5.47-45.49-.41-2.79-.31-3.09-2.37.31-10.84 1.34-4.43.62-5.06.72-5.15.72-5.06.62-5.05.62-5.06.72-5.05.62-5.06.72-5.16.72-5.05.73-5.05.61-5.16.73-5.06.62-5.15.61-5.06.73-5.16.72-5.05.62-5.06.72-5.15.72-4.65.52-4.74.62-4.75.62-4.74.61-5.16.73-5.16.72-4.33.62-2.06.2-41.68 5.68-16.09 1.96-4.75.62-12.58 1.75-4.64.62-4.75.62.52-1.96v-2.79l2.37-1.96 4.54-.31h4.54l3.92-2.27 5.05.93 5.37.62 3.5-2.58 1.24-2.58 7.12-7.22 9.28.21 10.73-5.67 7.74-10.84 5.05-12.79 2.27-10.83 3.2-5.05 4.33-18.05-2.47-10.32-1.86-3.2-.21-1.34-1.34-7.11-.62-3.41-4.64-5.47-2.78-12.89-1.34-2.06-.42-4.33-1.85-13.62-5.57-17.85-1.04-11.34-8.25-20.43v-4.23l-2.68-4.84-1.03-1.86.41-16.2-1.03-7.32 1.44-32.39 3.92-28.47.73-12.27 7.84-5.37 12.48-14.96 14.54-6.39.83-.52 8.25-5.05 11.55-42.71 4.23-2.57 9.7-6.5 3.92-17.85 4.13-19.18v-.52l.1-.83-.41-3.09-1.34-3.4-1.66-3.31-.92-1.34-.93-2.27-1.45-2.68-1.65-2.47-.51-1.24-1.34-5.98-.93-1.24-.1-.83.1-.82.51-1.14.73-.82 2.27-5.98 1.85-2.89.11-1.45.51-.62 1.03-.2.21-.62-.93-2.27-.51-1.96.2-.93-1.03-2.16v-1.24l-1.55-2.58-.51-1.03.1-1.45.62-2.16.82-1.14.31-.1 3.1-2.06.1-.31-.21-.83.11-2.58-.11-.31-.3-.72-.73-.93-1.03-.82-1.96-.62-1.55-.93-1.44-1.96-.21-1.55 1.14-1.24v-.82l-.21-1.03.11-.83.61-1.75.42-.62.51-2.68-.1-4.02-.41-2.48-.31-1.24 1.13-3.92.11-2.16-.21-1.24.21-.83.2-.2.31-1.03.1-.83.42-2.58v-.82l.82-1.14.72-4.02.11-1.03 1.34-4.23.82-1.14-.41-1.13-.51-.93v-.93l.82-2.27.41-2.47.11-1.76-1.04-4.12.52-2.07-.52-2.27.21-1.13.21-1.65.51-2.17v-2.37l.62-6.09.11-1.65.3-1.96.93-3.92.11-4.22.62-4.96.72-4.53 1.03-4.34-.1-1.03-.11-.51.83-3.2.82-1.34.31-2.07.52-1.03.82-.82.42-.93.92-.52.21-.51-.21-1.65 3.1-4.34.41-.72.83-.93.2-1.03 5.26-7.01 1.45-2.89 1.13-1.03 2.27-3.2 4.03-6.91.72-1.96.2-.41v-.11l.31-.41.21-1.24.62-.82.41-1.24.31-1.75.93-1.14.21-1.24 1.03-3.3 2.27-3.5 1.34-3.72.82-1.03.73-2.68 3.5-8.15 4.23-5.98.72-1.76 2.17-3.19 1.44-2.89.83-1.03.93-.42.2-.41.31-.82.62-.52v-.1l-.51-.31.1-.62.31-.31.52-1.44 1.75-1.35 2.89-.61 3.61-.11 9.08-1.44 1.34-.83 3.81-.62 1.34.21 1.96-.41 1.55-.83 4.03-3.4 1.54-.83 3.51-2.27 2.48-1.03 3.92-3.81 1.75-1.34 1.13-2.58 3.1-4.03.82-.72 1.65-1.13 4.75-5.16 1.44-1.34 1.76-3.51 5.88-10.42 1.65-4.54.31-1.23.93-1.34 4.02-2.38 8.15-2.68 3.3-1.65 1.24-.82 3.19-2.79 4.03-2.79 1.44-.72 1.76-.93 1.34-1.03 2.06-1.23 3.61-3.62 6.71-9.49 5.98-9.07 1.96-4.44 3.82-7.63 1.23-1.86.31-.93.21-1.54.93-3.1 4.12-8.87 11.35-20.42 1.96-3.82.41-1.03 2.79-.72 1.44-.11 9.7.42 2.06-.11 10.63-3.81 9.8-4.85 1.65-.93 2.78-1.44 7.12-3.82 8.98-4.85 4.02-2.47 4.54-3.1 2.27-1.86 1.23-1.13 1.35-1.65 3.09-4.95 3.2-7.95 2.16-4.43 2.58-4.64 1.45-1.96 4.23-4.54 7.01-10.11 10.11-12.38 11.25-14.54 4.43-8.15 1.34-2.79 3.2-8.04 1.96-5.88.41-2.27 2.68-12.79.52-4.95.31-2.69.21-5.36-.11-1.44 1.34-10.11.42-2.48v-.93l-.31-1.96-.11-1.13-.72-9.39.21-.51.93-4.03.31-3.5 1.23-5.57.73-3.82.72-3.51-.11-8.56-.41-2.99-2.06-29.71.41-15.06.31-3.82.41-1.96.31-.82.93-1.86 3.1-3.5 3.19-3 7.84-8.04 16.3-15.68 4.54-4.95 3.51-3.72 7.94-7.94 16.4-15.26 10.42-11.35 7.22-9.29 1.14-2.57 2.06-3.41 5.16-7.84 6.19-8.25 3.4-2.48 19.4-11.75 28.98-20.12 1.96-1.34 1.34-1.65.83-1.34.93-2.48.72-2.27.93-3.81 2.06-13 1.96-18.05.72-8.05.21-9.59.31-2.37 1.65-3.1 3.09-3.71 1.65-2.48 3-3.19 4.54-6.61 1.03.52.82 1.24 1.24 1.96 2.58 3.61 1.75 2.37 1.14 1.24.93.82 6.7 4.44 2.79 3.4 2.27 3.41.92 1.23 2.89 2.69 13.52 11.03 2.27 1.86 2.26 1.86 71.08 56.52 41.16 32.81 112.13 89.33 112.34 89.22 107.28 80.15-1.86 4.44-.2 1.23-1.04 2.89-.3 1.96.2 1.24-.31 2.58-.62 4.02-.72 2.89-1.65 5.36-2.06 7.74-1.03 5.16v.93l-.31 1.23-2.79 8.36-.51 3.09-3.41 10.32-.51 2.89-.11 2.47.11 1.86-.31 2.06-.83 2.99-1.13 1.66-.93 2.26-1.76 6.3-2.58 10.21-.92 2.89-1.55 9.38-9.7 36.52-1.13 4.23-2.37 5.16-.11 1.34v4.95l-.2 2.06-1.35 4.75-.82 1.96-1.65 8.97-3.82 15.16-3.3 15.58-4.13 15.16-3.19 7.74-.83 6.4-1.75 6.7-2.37 7.53-.73 3.4-4.43 18.16-3.51 13.1-1.75 5.57-2.69 10.42-1.34 6.08-2.16 9.49v.62l-4.23 17.44-3.2 13.1-4.02 15.37-2.07 8.35-1.54 6.4-1.24 1.75-.62.52-.93.92-3.71 1.14-5.06 1.86-3.92 3.09-6.6 6.6 1.55 6.71 1.44 14.02-1.13 5.88.72 7.64-.21 1.13-1.03 7.64-.1 8.97 1.44 3.09.21.83-23.83 26.61-7.43 15.17-12.48 14.23-1.34 1.75-3.2 7.02-1.75.41-1.24.72-1.86 1.55-2.27 1.24-.72.72-.62 1.34-.72.72-1.55.31-1.13.11-1.44.2-1.35-.1-1.03.21-.41.1-.41.1-.93.41-1.96.62-1.45-.41-1.23.21-1.55.72-1.86 1.24-1.75.62-1.55.82-.72 1.14-.93 1.75-1.03 1.34-1.55 1.55-1.65.82-1.34.73-1.44.92-1.34.93-2.69 2.48-2.06 1.34-1.44 1.03-1.55 1.55-1.55 1.13-1.55.62-1.54.52-1.34.1-1.65.1-1.14.21-1.24.41-2.78.31-2.68 1.03-1.76.83-1.34.93-1.13 1.03-.73 1.34-.2 1.44-.21 1.45-.31 1.13-.31 1.34-.62 1.03-.62.93-.72 1.14-.1.93-.52 1.85-.1 1.34.1.73.21 1.13.21 1.13.31.73.72.82.93 2.48.51 1.44.1 1.45-.3 1.54v.93l-.11 1.34-.2 1.45-.42.93-.31 1.03-.41.62-.82.61-.83.31-1.24.31-.93.11-1.03.62-.72.72-.72.82-.62 1.55-.83 1.44-.92 1.24-.62 1.34-.21 1.55-.1 1.03v1.55l.51 1.24.21 1.44.31.93v1.03l-.31.93-.41.72-1.45.62-.93-.31-.92-.31-.83.21-.62.72-1.24.82-.82.73-.72.51-.31.62-.11 1.03.42 1.14.31 1.03.51 1.03.93 1.86.52.72.41.41.93 1.24.62.93.72 1.03.31.83.41 1.34.1 1.34-.62 2.06-.51 1.34-.1.52.1 1.75.41 2.68.21 1.24.2.62.83 1.86.21 1.34-.11 1.13-.62.83-.41.1-.72.31-.62.41-.1 1.24.2 1.03.21 1.45.21 2.88-.11 3.51.21 1.55 1.24 1.65.93 1.44.72 1.45.51 1.96-.31 1.96-.62 2.16-.72 1.45-.62 1.75.31 1.86.42 2.58.51 1.44.93 1.65.52 1.44.2 1.55-.72 1.45-.52 1.03-.41 1.85.41 2.58.83 1.03.1 3-5.88 9.69-4.23 4.33-2.68 7.33.1 12.89-1.44 5.26v4.34l1.24 2.78 1.34 11.76-4.54 9.49-4.13 13.93-7.63 28.47-3.51 10.31-2.58 17.23-1.13 1.96-1.65 3.4.31-.1.93-.11 13.41-1.75 27.75-3.61.41 2.89.51 2.99 4.23 32.08 3 37.75.1 3-.62.51-2.68 2.06-2.27 2.07-2.79 3.09-2.06 2.79-1.44 2.16-2.69 4.95-1.03 2.38-.93 2.89-1.13 4.33-.41 2.58-.52 4.74.21 2.99.82 6.3.83 5.67 4.23 34.97.62 3.81.2 5.37v9.69l-.2 18.47 3.61 21.97 1.75 11.66.21 2.57 2.06 30.64 1.86 15.78.82 7.22 1.96 15.79 5.57 40.64 1.24 10.11.21 1.75 1.13 8.05.41 2.99 2.89 21.56.21 2.06 2.58 25.58.1 1.03.21.93 1.54 11.14-.41 1.03 1.45 8.56 1.54 4.96 2.27 7.11 1.86 4.64.31.73-1.24.72-4.85 2.58-2.99 1.96-1.44 1.03-2.07 1.44-3.81 3.3-4.85 4.96-1.76 1.75-10.72 13.31-4.23 4.95-1.24 1.13z" stroke-linejoin="round"/></defs><use xlink:href="#c" fill="#6bacaf" stroke="#6bb4d2" stroke-width="5.76"/><defs><path id="d" d="M1874.56 1521.9l-21.87.42-7.95.1-2.16.1-122.14 2.27-5.57.1-5.06.52-3.92.52 3.1-10.53 34.35-31.35 11.55-10.11 14.24-12.69 13-14.65 3.5-14.96.83-10.72-3.71-21.25-22.9-126.36-4.13-9.7-5.98-20.42-1.24-8.36-2.79.52 2.38-3.41-2.69-17.64-9.18-53.64 1.45-3.5 1.34-2.79 15.27-1.34 35.58-5.57 2.17-.31 77.88-10.31 9.7-1.34-5.98-2.69 5.77-.72 5.57-.72.42-.1 2.78-.31 10.52-1.45 6.81-.93 6.81-.82 6.91-.93 6.81-.93 6.81-.93 6.91-.82 7.01-1.03 5.58-.72 7.94-1.04 6.81-.92 6.5-.83 6.7-.93 7.43-1.03 6.81-.93 6.8-.93 6.92-.92 6.8-.83 6.92-.93 6.8-.93 6.92-.92 6.8-.93 6.81-.93 5.99-.83 5.46-.62 3.61-.51 1.55-.21 1.75-.2 1.55-.21 1.86-.1 1.44-.21 2.58-.21 1.96-.1 3.41-.31h1.65l1.85-.1 1.45-.11h3.5l1.96-.1h3.31l3.5.1h2.68l2.38.11 2.06.1 3.61.21 4.44.31 1.75.2 2.27.21 4.85.52 5.57.72 4.95.82 1.65.31 1.86.41 1.75.31 1.86.31 1.44.31 6.4 1.55 1.65.31 1.65.52 1.75.41 1.55.41 1.65.52 1.55.41 2.47.72 2.27.72 2.17.62 1.75.62 1.34.41 1.45.52 1.54.52 1.04.41.92.31 1.35.41 1.65.62.82.31 1.03.41 1.76.72 1.44.62 1.24.52 1.55.62 1.44.62 1.14.51 1.23.52 1.45.62 1.65.72 1.55.72 1.75.83 1.55.82 1.96.93 1.85.93 1.96 1.03 1.55.82 1.75.93 1.55.83 1.14.62 2.06 1.13 1.96 1.14 2.06 1.23 2.37 1.45 1.45.82 1.55 1.03 1.96 1.14 1.75 1.13 1.65 1.04 1.75 1.34 1.65 1.03 1.45 1.03 1.34.93 1.44 1.03 1.34.93 3 2.27 4.43 3.4 5.06 3.92 4.85 3.82 1.65 1.54 1.75 1.24 1.13 1.03 2.69 1.96 6.91 5.47 4.02 3.2 8.05 6.39 3.3 2.69 3.4 2.68 2.48 1.96 3.71 2.89 2.89 2.27 5.98 4.74 1.45 1.13 1.44 1.14 1.55 1.24 1.44 1.13 2.89 2.37 3.3 2.58 3.61 2.79 5.57 4.43 1.86 1.45 2.06 1.65 2.27 1.86 2.68 2.06 5.88 4.54 3.1 2.47 2.37 1.86.93.72 1.24 1.03 4.02 3.1 1.45 1.13 8.66 7.02 2.79 2.27 5.46 4.33 4.34 3.3 1.34 1.13 1.23.93 3.1 2.48 7.12 5.67 7.94 6.19 3.92 3.2 3.4 2.78 3.51 2.68 5.47 4.23 8.87 7.02 1.96 1.55 2.27 1.75 5.67 4.43 2.17 1.76 1.86 1.44 2.99 2.38 4.43 3.5 6.09 4.75.21.2 5.88 4.85 2.27 1.96 2.26 1.86 3.62 2.68 3.5 2.89.93.72 2.99 2.48.31.2 3.61 2.79 2.79 2.16 2.99 2.58 4.43 3.51 3.51 2.78 1.65 1.35-1.03 1.65-1.34 1.65-.1.51-1.24 1.24-4.33 10.11-.31.51-1.34 22.49 1.03 1.45.31 4.95-46.22 16.09 1.55 12.48-57.46 9.28-11.34 1.65-20.64 3.1-86.13 12.89-29.19 7.22-21.98-2.88-7.42.2-13.21 6.81-76.54 12.38-25.58 4.12-14.45 2.38-2.06.31-13.61 2.06-165.05 25.68-8.46 7.12-1.34 6.91z" stroke-linejoin="round"/></defs><use xlink:href="#d" fill="#09757a" stroke="#097d9b" stroke-width="5.76"/><defs><path id="e" d="M3262.21 2022.7l-3.81.21-3.41.21-3.5.2-5.16.31-4.95.52-3.72.31-3.09.41-2.07.1-12.99 1.76-3.3.51-9.19 1.34-36.41 5.16-4.44.62-8.97 1.45-12.38 1.75-5.88.82-2.99.42-2.99.41-5.78.93-15.27 2.16-5.15.73-2.17.31-2.37.3-10.52 1.55-12.07 1.76-7.22 1.03-12.49 1.75-12.79 1.96-13 1.75-12.48 1.65-4.64.62-3.3.52-6.91.93-1.65.2-25.69 3.61-15.68 2.17-25.79 3.61-1.54.21-10.32 1.44-31.77 4.44-18.47 2.47-10.73 1.65-19.7 2.68-.41-1.13-8.36 1.03-15.88 2.06-.11-.2-1.03.31-.72.1-1.13.1-2.07.21-2.89.83-2.16.51-1.14.1-6.08.93-7.43.93-21.04 2.89-52.2 7.22-53.23 7.32-.82.21-7.43.93-2.79.31-8.56 1.34-60.96 8.46-1.35.1-6.08.93-1.03.21-.83.1-27.54 3.71-36.42 5.06-70.24 9.8-21.05 2.88-24.24 3.41-8.46 1.03-9.39 1.44-31.67 4.44-12.37 1.75-12.49 1.65-12.48 1.76-18.26 2.58-1.96.2-11.24 1.55-.72.1-7.43 1.03-34.25 4.85-24.65 3.41-24.45 3.4-12.89 1.75-9.39 1.34-1.24.11-6.09.93-2.99.41-25.48 3.51-54.67 7.63-24.24 3.4-8.05 1.03-1.34.31-7.84 1.14-12.79 1.65-50.65 7.12-23.93 3.4-4.54.62-2.27.31-1.96.21-.72.2-2.89.31-44.98 6.5-1.96.31-3.4.51-46.63 6.81-2.78.31-2.17.31-4.85.72-8.56 1.24-43.33 6.19-3.5.52-5.06.72-41.98 5.98-7.33 1.03-1.03.11-.62.1-.51.1-7.74 1.24-46.83 6.71-10.42 1.44-1.44-10.21 2.37-.62-1.65-29.09v-6.81l1.24-4.23 2.26-2.89 6.3-4.74 8.77-6.4 3.5-3.92 12.59-30.43 21.87-44.87 4.43-9.18 8.05-9.07 33.63-27.24 4.23-4.43 26.61-46.32 11.66-19.18 24.03-47.87 1.24-5.77 8.05-33.22 5.16-28.57-1.86-8.46-19.6-33.42-26.62-37.34-17.12-15.37-3.71-25.17-.42-42.4-3.09-26.4-2.99-3.72-12.17-10-3.1-2.68-1.55-1.86-1.03-1.55-.51-1.24-.62-1.85-.42-1.96-.3-2.37-.31-2.48-.21-2.27-10.83 1.24-15.27 2.06-10.52 1.34-6.09.93-13.61 1.86-1.14-9.8-.82-4.44-.52-2.99-.41-1.65-.72-3.3-.83-2.89-.62-1.96-.62-2.16-.72-2.07-.72-2.27-.83-2.37-.51-1.55-.72-1.65-1.14-2.78-1.24-2.68-.93-2.07-2.27-4.54-.51-1.03-.52-.82-.92-1.65-1.45-2.58-1.65-2.58-1.65-2.48-2.27-3.3-2.27-3.09-1.24-1.65-1.34-1.76-1.96-2.37 5.47-5.77 1.75-1.04 1.65-.62 27.65-3.71 1.55-.21 1.34-.92.62-.73.51-1.03.11-1.13v-6.71l.2-3.3.52-8.66-.31-1.14-.41-.93-.62-.92-.83-.62-1.03-.52-1.13-.1-1.04.1-21.97 2.99-10.52 1.45-22.8 2.89-.31-1.35-1.44-10.1-.41-3.41 34.24-4.43 39.31-5.06.61-2.16 3.92-.52 5.06-.52 5.57-.1 122.14-2.27 2.16-.1 7.95-.1 21.87-.42 1.34-6.91 8.46-7.12 165.05-25.68 13.61-2.06 2.06-.31 14.45-2.38 25.58-4.12 76.54-12.38 13.21-6.81 7.42-.2 21.98 2.88 29.19-7.22 86.13-12.89 20.64-3.1 11.34-1.65 57.46-9.28-1.55-12.48 46.22-16.09-.31-4.95-1.03-1.45 1.34-22.49.31-.51 4.33-10.11 1.24-1.24.1-.51 1.34-1.65 1.03-1.65 1.03.72 3.2 2.58 2.89 2.16 5.47 4.54 4.95 3.72 4.23 3.4 2.78 1.96 2.69 2.17 3.09 2.47 2.99 2.17 6.09 4.85 4.12 3.19 2.38 1.86 3.61 2.89 6.5 5.05 4.74 3.72 1.45 1.13 3.81 3.09 1.45 1.24 1.44 1.03 2.48 2.07 4.12 3.3 1.96 1.55 1.45 1.13 1.54 1.13 6.3 5.06 4.85 3.82 5.36 4.23 6.6 5.15 7.22 5.78 4.33 3.4 3.62 2.79 1.85 1.44 4.44 3.61 5.88 4.54 6.5 5.26 5.05 3.92 7.74 6.09 6.08 4.85 5.06 4.02 4.02 3.09 5.26 4.13 5.88 4.64.93.72 2.17 1.86 1.24.93 1.13.93 1.75 1.34 4.75 3.81 1.96 1.55.31.31 2.37 1.86 1.34 1.03.72.62 2.89 2.27 1.55 1.24 2.89 2.26 1.44 1.14 3.2 2.58 1.44 1.03 1.65 1.34 2.38 1.86 2.37 1.75 2.06 1.65 2.89 2.27 4.02 3.2 7.23 5.67 1.34 1.03 1.85 1.45 4.75 3.81 2.78 2.17 4.44 3.61 5.16 4.13 3.92 2.99 7.84 6.29 4.74 3.61 3.72 2.99 8.35 6.6 7.02 5.57 4.84 3.92 2.38 1.86 5.67 4.44 3.92 3.19 6.81 5.26 1.86 1.45 3.4 2.68 4.85 3.82 7.43 5.77 2.37 1.96v3.2l-.1 2.89 13.92 21.66 4.85-6.91 3.2 2.58 2.58 2.06 2.58 1.96 5.57 4.44 3.19 2.58 2.17 1.75 3.71 2.79 1.76 1.54 2.37 1.76 3.09 2.57 2.48 1.96 2.99 2.38 2.48 1.96 4.54 3.5 4.54 3.51 5.26 4.23 3.19 2.48 2.48 1.85 4.23 3.3 9.8 8.05 6.81 5.36 2.37 1.76 2.27 1.75 2.89 2.37 3.3 2.58 2.99 2.27 2.48 2.06 3.09 2.38 1.55 1.23 2.27 1.66 2.58 2.06.1.1 1.96 1.55 3.2 2.58-8.67-.93-12.58 2.89.31 3.5-4.13 3.51-3.71 3.1-15.79 15.98-14.13 16.2-9.59 13-6.91 10.52-4.44 3.61-1.44 2.27-1.96 2.78-.93 2.07 36.31 24.86 7.63 5.26 3.1 1.85 3.2 1.96 2.47 1.24 3.51 1.55 3.82 1.34 3.5 1.03 7.02 1.44 4.74.62 12.07 1.24 3.82.62 6.19 1.44 5.26 1.86 5.88 2.48 2.37 1.34 4.13 2.47 4.12 2.89 2.69 2.06 2.68 2.38 5.88 5.88 1.54 1.54 4.85 4.54 14.34 14.03 17.13 16.82 3.5 3.5 1.76 1.76 9.28 8.87 9.39 9.18 17.02 16.71 11.24-12.9 4.75-5.36 3.2-4.23 4.02-4.02 1.75-1.45 3.72-2.57 1.96-1.14 3.61-1.65 1.75-.72 3.71-.93 2.79-.52 3.09-.31h2.79l2.68.11 18.16 1.85 4.43.73 6.19 1.13 4.85 1.14 2.68.82 2.68.93 2.27 1.03 2.79 1.44 3.82 2.48 1.65 1.34 1.65 1.45 1.54 1.13 1.65 1.55 10.22 9.08 5.05 4.74 8.77 7.84 20.63 20.11 41.16 42.19.93 1.34.72 1.35.52 1.34.51 1.75.42 2.27.82 5.57.41 4.43z" stroke-linejoin="round"/></defs><use xlink:href="#e" fill="#004249" stroke="#00465f" stroke-width="5.76"/></svg>