<svg width="384" height="4.48in" viewBox="0 0 2880 3226" xmlns="http://www.w3.org/2000/svg" xmlns:xlink="http://www.w3.org/1999/xlink"><path fill="#fff" d="M0 0h2880v3226H0z"/><defs><path id="a" d="M1554 1749.2l-7.05 8.47-1.11-.41-1.21-.5-.4-.2-1.01-.41-.61-.4-.9-.6-1.21-1.01-1.72-1.82-1.61-2.11-1.41-2.12-1.11-1.51-1.01-1.62-3.83-5.54-2.72-4.03-.4-.41-2.93-4.33-9.47 8.37-8.27 7.15-2.82 2.32-3.23 1.72-2.62.8-2.62.51-3.02.7-4.03.61-3.93-.61-10.08-2.62-12.2-2.72-5.54-1.31-3.23-.61-3.22.1-6.76 2.02-4.33 1.71-1.92.71-3.02.81-3.03-.1-3.42-.91-2.62-1.51-1.31-1.92-1.82-2.92-1.61-4.54-.4-3.73v-4.03l.8-7.06.61-3.43.2-2.31-.2-3.94-.81-2.82-1.31-2.82-1.71-2.72-2.32-2.63-2.52-2.62-2.92-1.91-5.55-2.82-8.97-2.83-9.58-1.91-11.99-1.62-14.01-.8-4.84-.1-4.94-.2-5.64-.81-5.14-1.31-5.15-1.61-4.23-1.42-7.96-3.73-6.45-4.03-6.66-5.04-4.63-3.53-2.32-2.92-1.41-2.62-.91-2.22-2.22-4.94-1.81-4.64-1.21-3.32-1.61-3.13-1.52-2.82-1.41-2.02-1.1-1.31-1.92-2.02-.81-.9-1.51-.91-1.91-1.11-2.12-1.01-1.92-.3-1.21.2-2.21.1-2.02.51-1.91.8-1.31 1.41-1.52 1.82-1.1 2.02-1.92 3.12-1.31 2.12-1.11 1.31-1.61 2.22-1.31 1.51-1.72 1.21-2.21.6-2.02.31-2.92-.51-1.41-.8-1.62-1.11-1-.81-1.31-1.51-1.42-2.62-1-3.43-.51-3.63-.4-3.63-1.01-4.84-1.71-6.35-3.23-9.98-2.12-6.96-1.2-3.52-.91-2.63-.91-1.81-1.11-2.42-1.41-2.42-2.12-2.22-2.11-1.21-3.23-1.21-2.72-.7-4.33.3-7.97 1.41-7.76 1.51-3.63 1.01-3.32.61-5.55.4-4.63-.1-4.94-.71-5.35-.6-7.05-.3-5.85-.31-3.73-.9-2.92-1.21-2.52-1.31-4.44-2.73-6.55-5.04-4.13-3.22-1.41-2.12-.71-1.81-.6-2.93-.4-3.53.4-3.52 1.21-4.04v-3.53l-.91-7.86-.6-3.83-.91-4.74-1.51-4.43-2.72-5.45-3.33-3.73-5.34-4.84-6.66-2.72-9.17-3.33-14.82-6.55-4.43-1.81-4.23-1.72-3.83-1.61-5.65-2.02-4.33-1.81-2.22-.81-2.52-1.31-3.83-1.61-3.93-2.52-3.53-2.12-2.42-2.32-.81-8.47-.4-3.42-.3-3.03-.51-6.15-.5-4.33-1.11-9.98-.4-4.74-6.55-3.73-9.98-5.55-14.21-8.16-3.73-2.02-8.27-4.84-8.06-5.04-3.43-2.21-6.05-3.94-7.36-4.84-2.21-1.51-3.13-2.11-7.46-5.45-7.56-6.15-8.77-7.66-5.34-5.24-9.27-8.97-2.83-2.63-1.1-1.1-1.21-1.11-2.52-2.12-2.42-1.61-1.82-1.01-1.81-1.01-1.41-.5-1.31-.41-1.11-.3-1.41-.4-1.41-.1-2.42-.31-3.03-.3-1.91-.1-3.63-.4h-1.01l-1.91-.2-2.22-.21-2.22-.1-6.35-.5-10.08-.4-6.85.4-4.64.5-21.07 3.73-4.53 1.21-2.83-19.35-1.71-11.09-1.31-7.87-.91-6.65-.9-5.64-.31-2.73-.4-3.32-.1-2.02-.1-2.72-8.07-29.14-.9-1.91-1.72-2.62-1-2.12-2.42-8.27-1.01-4.94-1.31-8.16-.71-2.22-.7-1.11-3.03-3.02-2.72-3.03-1.41-1.81-2.32-2.62-4.23-3.83-.51-.51-.8-1.51-2.02-5.85-1.11-1.61-1.11-1.11-4.13-3.53-1.21-1.31-2.01-2.42-3.03-2.72-1.31-1.11-.8-1.11-.41-1.01-.4-3.52-.3-1.42-.81-2.21-1.11-2.83-1.41-2.11-1.81-2.02-2.83-3.02-4.03-4.84-2.52-3.43-1.61-1.61-3.02-3.03-1.21-2.12-.51-1.61-2.72-8.67-1.51-2.52-10.89-11.39-3.42-5.24-1.01-1.82-1.41-3.12-1.52-2.83-1.41-2.01-1.21-1.41-2.72-2.12-2.72-2.52-2.92-2.12-3.33-3.02-1.51-1.61-1.82-1.52-.9-1-.41-.71-.1-.4-.4-1.42-.6-4.93-.81-4.54-.3-3.13-1.01-6.45-.81-7.36-.8-5.44-1.42-5.65-.2-1.51-.4-9.88-.1-1.51 9.78-1.51 19.85-3.03 8.57-1.31 41.33-6.15 15.52-2.42-4.23-30.44v-.41l-4.03-28.53-1.72-12.3-2.22-15.92-3.12-21.88-60.08 8.97-20.36 3.03-17.13 2.42-10.69 1.71-8.67 1.31-20.86 3.02-20.76 3.03-9.48 1.51-8.37 1.21-8.26 1.11-8.27 1.51-.6-4.03-1.92-12.5-4.43-28.63-1.92-12.3-8.36-53.73-5.04-35.39-2.73-18.35-1.31-10.68-4.43-31.25-9.78-68.56-3.93-28.73-3.73-26.51-18.65 2.82-51.91 7.76-22.07 3.33-3.13-22.28-3.52-11.9-16.03 2.32-16.33 2.72-17.54 2.83-20.66 3.32-12 2.02-14.92 2.32-3.73.6-2.82-19.55-2.32-17.44-.6-4.54-.81-6.35-2.01-13.91-2.93-22.59-1.41-11.69 10.89 3.43 5.34-.2 3.53-.41 2.22-.8 3.02-1.31 3.43-2.02 10.68-5.95 6.15-3.73.61-.3 1.51-.3h1.41l1.01.3 14.21 1.71 19.76 1.21 13.5 1.01 6.96.81 2.72.9 2.92.61 5.04 2.22 1.11.3 1.71-.5 3.23-2.12 1.11-.61 4.84-1.71 2.32-.4 3.42-.21.91.11 2.32.1 2.01.9 1.92 1.21 5.24 3.03 4.13 3.02 10.99 12.4 1.01.91.91.5.9.1 2.02-.2 3.22-.5 13.21-2.92 1.31-.51 1.21-.7 1.11-1.01 6.95-5.45 1.21-.5.91-.2 4.33.3 2.22.1-1.91-13.81 47.67-4.23 49.19-11.4 5.45-.9 49.89-7.77 3.13-.5 38.4-6.05 2.42 18.15 3.32 25.5 1.11 8.87 6.25 47.59.61 4.33 1.31 10.49 20.96-3.03 7.26-1.01 10.99-1.51 13.2-1.71 17.34-2.52 11.29-1.72 8.67-1.41 9.37-1.41 2.02-.3 2.92-.4 2.72-.31 8.17-1.21 8.06-1.51 18.35-3.33 16.12-2.92 16.74-2.92 5.14-.91 13.81-2.42 7.36-.91 18.84-2.42 2.12 15.43.1.3.1.3.41.51.3.4.3.3.51.31.1.1h.1l.6.2.3.2h1.21l13.81-1.71 3.83-.71 55.14-6.45 6.05 40.63 41.32-5.65-4.43-29.94-.4-3.23-.21-1.31v-1.81l.11-.61.4-.9 2.12-4.14.5-1.01.2-.5.2-1.41v-1.82l-1.31-9.77 22.58-1.21 15.42-.81 4.54-.2 3.33-.31 2.41 18.05 2.12 14.21 1.71 11.7 1.62 11.69 3.93 26.32 35.48-4.14 5.64 33.98 3.03 17.84-36.29 6.96 8.47 60.48 2.92 20.47 7.86-.91 35.69-5.04 9.67-1.41 35.38-5.04 8.87-1.11.51 3.53 1.41 11.29 1.51 11.69 2.42 18.55 3.02 23.19.1 1.71v1.31l-.1 2.12-.4 3.13-.1 1.81.1 2.22.1 2.12.3 3.32.31 3.33.2 4.33-.1 2.93-.51 5.54-1.61 12.3-.5 4.64-.21 3.63v1.81l.1 1.72.41 2.11.7 3.23 1.01 4.44.71 2.21.8 2.52 1.21 2.93 1.62 3.63 2.01 3.22 1.82 3.33.8 1.71.61 1.72.4 1.31.4 1.61.61 3.53.8 5.85 4.34 31.55 2.42 17.24 4.53 31.76 1.52 10.78 1.91 13.01 4.44-.71 1.51-.3.91-.3 1.1-.41 1.52-.6.8-.2 5.24-.91 2.62-.3 1.11.1 1.52.3 2.82 1.01-.41 2.12-.2 1.2v1.82l6.15 11.9.91.9 1.41 1.21 1.81 2.32 1.11 1.61.61 1.11 2.32 5.14.6 1.01 2.02 3.13 1.21 2.11.4.91.4 1.51.81 5.45 9.37-1.41 3.53-.61 29.64-4.13 18.95-2.62.9 6.35.81 5.34 5.24 41.94 4.13 31.45 3.94 31.56 2.01 13 1.82 11.6 1.81 12.5 1.92 12.3.3 2.11 1.41 9.38 1.81 10.79 1.82 12.4.8 6.04.71 4.64 1.71 10.99 1.41 10.18 1.31 9.48 1.52 9.37 1.31 9.48 1.51 9.38.1.7.1.71 1.51 10.89 1.62 10.58 1.61 10.89 1.51 10.08.1.81.1.4 1.41 10.18 1.82 12.3 2.11 14.52 1.31 8.87 1.82 12.2.3 1.61 1.41 9.88.41 2.62 1.31 9.38 1.61 11.39 1.01 6.45.9 5.75.81 5.64.91 5.95.7 4.74 1.11 7.46 1.82 12.4 1.71 11.39 9.58 3.33 14.71 4.53 11.8 3.94 1 .3 1.31.6.91.51 1.11.9.71.71 3.32 4.44 9.07-7.57 6.05 8.37 12.4 16.64 8.97 12.29 19.05 26.01 7.26 12.61 3.32.3 4.54 8.97 1.31 1.92-1.71 3.12-1.01 2.93-1.51 3.42-2.52 2.72-6.76 6.15 3.63 3.33.51.71 2.62 2.92 2.92 3.73 2.22 3.02 1.51 2.02 1.71 2.22 1.31 1.71 1.52 1.92 8.46 10.89-2.21 2.62-1.01 1.31-.81 1.51-1.41 2.92-4.23 9.88-1.52 3.23-1.1 2.02-4.34 7.76-7.46 13.3-1.61 2.22-.91 1.11-7.05 7.97-1.62 1.71-5.24 5.95z" stroke-linejoin="round"/></defs><use xlink:href="#a" fill="#cee3e4" stroke="#cef5f5" stroke-width="5.76"/><defs><path id="b" d="M1542.21 1394.64l-6.65.91-3.03-4.04-1.01-1.61-.5-1.31-.5-2.12-.31-1.51-.6-4.03-1.61-10.79-1.41-10.78-1.52-10.69-.6-4.13-.91-6.66-1.71-11.39-1.51-10.28-1.31-9.38-32.46 4.94-28.73 4.03-24.59 3.63-1.52-9.37-1.31-9.48-1.41-10.18-1.71-10.99-.71-4.64-.8-6.04-1.82-12.4-1.81-10.79-1.41-9.38-.3-2.11-1.92-12.3-1.81-12.5-1.82-11.6-2.01-13-3.94-31.56-4.13-31.45-5.24-41.94-.81-5.34-.9-6.35-18.95 2.62-29.64 4.13-3.53.61-9.37 1.41-.81-5.45-.4-1.51-.4-.91-1.21-2.11-2.02-3.13-.6-1.01-2.32-5.14-.61-1.11-1.11-1.61-1.81-2.32-1.41-1.21-.91-.9-6.15-11.9v-1.82l.2-1.2.41-2.12-2.82-1.01-1.52-.3-1.11-.1-2.62.3-5.24.91-.8.2-1.52.6-1.1.41-.91.3-1.51.3-4.44.71-1.91-13.01-1.52-10.78-4.53-31.76-2.42-17.24-4.34-31.55-.8-5.85-.61-3.53-.4-1.61-.4-1.31-.61-1.72-.8-1.71-1.82-3.33-2.01-3.22-1.62-3.63-1.21-2.93-.8-2.52-.71-2.21-1.01-4.44-.7-3.23-.41-2.11-.1-1.72v-1.81l.21-3.63.5-4.64 1.61-12.3.51-5.54.1-2.93-.2-4.33-.31-3.33-.3-3.32-.1-2.12-.1-2.22.1-1.81.4-3.13.1-2.12v-1.31l-.1-1.71-3.02-23.19-2.42-18.55-1.51-11.69-1.41-11.29-.51-3.53-8.87 1.11-35.38 5.04-9.67 1.41-35.69 5.04-7.86.91-2.92-20.47-8.47-60.48 36.29-6.96-3.03-17.84-5.64-33.98-35.48 4.14-3.93-26.32-1.62-11.69-1.71-11.7-2.12-14.21-2.41-18.05-1.72-12.9-1.71-12.7-2.12-16.64-1.01-6.45-1.21-9.57-.7-4.54.4-2.22-1.01-8.17-.8-6.04-1.72-12.91-.8-6.25-.41-2.82-.5-3.93 3.02-1.21 1.72-.71 3.32-1.61 15.02-7.16 4.84-2.52 5.04-2.42 5.24-2.82 4.64-2.22 7.26-3.63 2.82-1.51 2.92-1.41 1.41-.71 2.32-1.21 9.78-4.94 12.3-6.05 6.85-3.52 5.75-2.83.3 4.14 3.83 28.02 11.69 105.25 7.46-1.61 10.58-2.32 10.49-2.82 3.42-.61 18.15-4.43 12.19-2.83 9.98-2.32 4.84-1.31 14.92-3.42 3.43-.71 9.67-1.51 14.62-1.82 11.19-1.31 15.92-1.81 21.98-2.93 5.64-.7 18.45-2.32 8.57-1.01 15.12-1.91 18.85-2.22 5.04-.61 17.13-1.91 14.92-1.92 10.48-1.11 6.15-.8 7.66-1.11 9.27-1.61 21.78-3.63 26.41-4.04 6.45-1 1.91-.31 2.22-.3 1.51-.2 2.02-.4 11.59-1.92 29.33-4.13 1.31-.71 6.25-2.42 5.45-3.33 3.72-2.82 15.43-12.4 1.31-1.11 5.24-4.33 1.31-.91.6-.6 1.82-1.42 2.22-1.71 3.12-2.22 2.52-1.51 3.13-1.41 4.43-1.71 8.06-2.12 3.03 14.31 1.41 8.17.5 4.03.81 4.24 23.49-3.43 36.08-5.55 6.25-1 27.72-4.64 25.7-5.34 44.35-8.88 3.63-1 8.07-1.62-.91-6.85 3.12-1.82 19.56-14.11 6.15-5.04 1.01 5.75-1.01.4-1.31.8-.71.81-.5 1.01-.3 1.21v.91l.7 2.92.61 1.21.7 1.21 1.61 1.61 1.21.61 9.08 1.91h3.73l3.62-.3 1.52-.2 3.93-1.82 1.61-.5h1.81l2.93.71 2.72.5 3.73-.1 1.81.4 2.32 1.51 3.33 4.04 3.02 2.82.3.6.91 3.43.61 1.62 1.1 3.12.71 2.42v1.71l-.2 1.62-2.82 6.65-.21.81-5.34 22.98-4.84 19.96v1.62l.31 1.51.9 2.01.21 1.62-.41 2.32-.6 1.21-2.22 1.91-2.52 3.83-.71.3-1.21.21-1.41-.31-.8-.6-1.41-1.71-.91-.31-.71.1-.9.71-.61.6-1.91 1.82-.31.7-.2 1.11-.5 1.11-3.03 4.74-.5 1.31-.2 1.21v1.41l-.3 1.01-2.02 3.33-.4 1.81.1 1.31.2.41.4.4h1.72l1 .2 1.01.61 1.11 1.21.91 1.61 3.22 3.32.31.91.3 1.41.1 1.62-.2 3.12-.61 4.03-.1.81-.4 2.02-.51 1.71-3.32 6.25-.4 1.01V571l-.21.51-.6.6-2.82 6.15-1.82 6.75.1 1.11.2.61.51.81.7.2-1 3.93.2 1.01.4 1.31.1 1.11-.2 1.31-1.81 11.99-.31 3.33.21 1.92 1.61 4.23 2.62 12.4 1.21 5.54.5 2.52.1 1.72-.6 2.52-.61 5.14-.6 4.03-3.73.51-5.24.1-2.42.2-2.22-.71-3.12-2.11-.21 1-.3 1.52-.6 2.11-.51 2.02-.1.71v.6l.81 1.11 17.74-3.02 4.23-.71-1.31 7.96-1.81 21.17.2 3.33.5 1.92 1.01.9 4.64 2.02h2.32l2.72-.1 1.91 1.51.61 1.72v1.71l-.61 2.22-.7 2.01-1.31 1.92-1.11.6-1.31.31-6.15-.71-1.92.1-1.1.71-.51 1.21-.1 1v1.11l.51 1.01 3.22 1.92 3.63 1.11 3.33 1.31 5.44-1.21 7.56-.61 3.12.61 2.93 1.11 1.41 1.81 1.41 3.63 1.01 3.53v3.22l-.91 3.73-3.53 6.56-6.25 10.08-8.57 17.04-2.11 4.53-2.12 4.24-2.12 4.13-1.31 2.62-1.71 2.02-2.72 1.41-2.32.5-2.72-.5-3.03-1.51-3.93-3.94-2.82-2.41-3.53-1.42-4.73-.9-4.04-.41h-2.72l-2.52 1.41-1.21 1.52-1.41 1.91-1.11 2.62-.3 6.56-.2 14.61.2 6.05.5 3.13 1.52 4.23 1.31 3.23 2.21 3.43 3.73 4.23 1.42 3.33.6 3.22.6 4.24-.1 4.53-.9 2.22-2.93 4.44-1.51 2.92-.8 2.42-.61 2.42.61 3.33.8 3.52.61 3.23.2 1.82-.1 1.81-.61 5.34-.7 3.93-1.31 5.25-2.73 5.04-2.01 2.82-3.13 3.53-9.97 8.27-6.46 6.25-4.94 4.73-4.53 2.83-2.72 2.11-3.93 3.13-4.04 3.22-2.82 3.63-2.52 4.64-1.01 3.63.11 3.03.8 3.02 1.71 4.13 2.52 5.65 1.11 3.22.61 4.34-.71 3.43-1.21 3.53-7.05 4.63-4.03 7.26-3.73 8.87-3.03 8.98-2.42 8.66-1.31 5.05 4.44 1 2.52 1.01h1.21l-2.02 14.52-5.54-1.71-5.24-1.72-4.74-1.71-.2.6-.91 3.93-2.62 12.1-1.51 5.75-2.42 7.66-6.55 20.16-1.92 6.05-.91 3.53-4.23 22.28-3.23 18.45-4.53 25-2.82 14.72-.81 4.23-3.43 16.23v1.41l.61 5.75 1.31-.2 1.41 13.91.6 6.15.21 6.96.1 6.45-.51 5.04-.6 5.64-1.21 4.94-1.51 3.73-1.72 3.43-1.61 2.82 1.31 9.08.4 2.82-1.31 2.12-.9 1.21-3.33 3.53-1.21.9-1.81.71-9.88 2.12-.41.4-.2.81.2 1.51 2.52 15.32.1 1.31-1.31 2.93-6.25 12.4-3.42 5.14-.3.3-.41.4-.8.61-1.21.9-2.22 1.72-.4.4-.21.3-.3.71-.2.4-.1.81v.81l.3 2.72.61 3.93.5 3.93-3.83-1.11-2.42-.8-1.61-.61-2.02-.91-1.41-.8-1.11-.71h-.2l-1.01-.7-1.71-1.21-1.92-1.42-.7-.5-2.72-2.02-1.62-1-3.02-1.62-2.82-.9-3.13-.51-1.61-.1-2.62.3-.1 1.42-1.82 25.1-.8 16.73-3.63-2.22-14.31 1.52-30.34 4.13h-.51l-.2-.2-31.35 4.33-.8.2 1.2 7.87 1.01 6.95-.6.11-1.21.2-11.49 1.61-11.9 1.81-11.69 1.62.2 1.71-21.17 3.13-15.32 2.21-18.64 2.73-2.12.5z" stroke-linejoin="round"/></defs><use xlink:href="#b" fill="#cee3e4" stroke="#cef5f5" stroke-width="5.76"/><defs><path id="c" d="M2161.92 1512.89l.7 5.55.71 7.36.1 2.42v2.21l-1.21-.1-2.42.21-14.01 1.91-.3-.1-.41-.2-.3-.71-.2-.7-2.22-14.52-3.73.4-2.32.41-1.11.2-2.62.4-7.46 1.01-34.27 5.04-18.24 2.52-9.68 1.41-7.16 1.31-8.76 1.11-1.21.1-1.82.3-.1-.7.2-1.01-2.72-20.97-5.64-32.26-2.32-16.43-2.12-11.8-2.92-16.53.3-7.46-3.02.2-.81.91-4.33.5-3.03-.2-5.74-.3h-4.14l-3.93.3-1.41.2-2.22.41-36.59 4.74-30.13 3.93-3.23.2-8.47 1.51-3.83 1.11-1.11.3-8.97 1.92-1.31-.51-2.92.51-18.75 2.22-11.69 1.31-4.54.6-2.01.1-8.77.71-.61-4.74-1.01-7.86v-1.62l.51-2.01.8-2.02 1.11-1.41 2.02-1.92 2.22-1.21 2.92-1.11 1.81-.8-2.11-7.46-1.01-2.32-2.02-2.12-3.32-2.62-3.43-2.12-2.32-2.42-1.41-2.11-1.21-2.42-1.21-1.72-1.01-1.1-1.91-1.01-2.32-1.01-3.83-1.21-7.96-4.54-5.75-3.22-3.22-1.01-3.94-1.01h-7.25l-2.93-.2-4.73-1.51-7.77-4.14-2.82-2.11-.6-.41-1.41-3.83 1.11-5.04-1.42 1.01-1.31.81-1.51 1.41-.6.91-.81 1.31-15.62-8.47-15.22-6.15.5-1.72.3-1.71.1-1.92-.1-1.51-.7-2.52-2.02-4.94-.5-1.81-.51-2.32-.1-1.01-.1-.91-.2-2.32v-2.92l-.5-3.93-.61-3.93-.3-2.72v-.81l.1-.81.2-.4.3-.71.21-.3.4-.4 2.22-1.72 1.21-.9.8-.61.41-.4.3-.3 3.42-5.14 6.25-12.4 1.31-2.93-.1-1.31-2.52-15.32-.2-1.51.2-.81.41-.4 9.88-2.12 1.81-.71 1.21-.9 3.33-3.53.9-1.21 1.31-2.12-.4-2.82-1.31-9.08 1.61-2.82 1.72-3.43 1.51-3.73 1.21-4.94.6-5.64.51-5.04-.1-6.45-.21-6.96-.6-6.15-1.41-13.91-1.31.2-.61-5.75v-1.41l3.43-16.23.81-4.23 2.82-14.72 4.53-25 3.23-18.45 4.23-22.28.91-3.53 1.92-6.05 6.55-20.16 2.42-7.66 1.51-5.75 2.62-12.1.91-3.93.2-.6 4.74 1.71 5.24 1.72 5.54 1.71 2.02-14.52h-1.21l-2.52-1.01-4.44-1 1.31-5.05 2.42-8.66 3.03-8.98 3.73-8.87 4.03-7.26 7.05-4.63 1.21-3.53.71-3.43-.61-4.34-1.11-3.22-2.52-5.65-1.71-4.13-.8-3.02-.11-3.03 1.01-3.63 2.52-4.64 2.82-3.63 4.04-3.22 3.93-3.13 2.72-2.11 4.53-2.83 4.94-4.73 6.46-6.25 9.97-8.27 3.13-3.53 2.01-2.82 2.73-5.04 1.31-5.25.7-3.93.61-5.34.1-1.81-.2-1.82-.61-3.23-.8-3.52-.61-3.33.61-2.42.8-2.42 1.51-2.92 2.93-4.44.9-2.22.1-4.53-.6-4.24-.6-3.22-1.42-3.33-3.73-4.23-2.21-3.43-1.31-3.23-1.52-4.23-.5-3.13-.2-6.05.2-14.61.3-6.56 1.11-2.62 1.41-1.91 1.21-1.52 2.52-1.41h2.72l4.04.41 4.73.9 3.53 1.42 2.82 2.41 3.93 3.94 3.03 1.51 2.72.5 2.32-.5 2.72-1.41 1.71-2.02 1.31-2.62 2.12-4.13 2.12-4.24 2.11-4.53 8.57-17.04 6.25-10.08 3.53-6.56.91-3.73v-3.22l-1.01-3.53-1.41-3.63-1.41-1.81-2.93-1.11-3.12-.61-7.56.61-5.44 1.21-3.33-1.31-3.63-1.11-3.22-1.92-.51-1.01v-1.11l.1-1 .51-1.21 1.1-.71 1.92-.1 6.15.71 1.31-.31 1.11-.6 1.31-1.92.7-2.01.61-2.22v-1.71l-.61-1.72-1.91-1.51-2.72.1h-2.32l-4.64-2.02-1.01-.9-.5-1.92-.2-3.33 1.81-21.17 1.31-7.96-4.23.71-17.74 3.02-.81-1.11v-.6l.1-.71.51-2.02.6-2.11.3-1.52.21-1 3.12 2.11 2.22.71 2.42-.2 5.24-.1 3.73-.51.6-4.03.61-5.14.6-2.52-.1-1.72-.5-2.52-1.21-5.54-2.62-12.4-1.61-4.23-.21-1.92.31-3.33 1.81-11.99.2-1.31-.1-1.11-.4-1.31-.2-1.01 1-3.93-.7-.2-.51-.81-.2-.61-.1-1.11 1.82-6.75 2.82-6.15.6-.6.21-.51v-2.82l.4-1.01 3.32-6.25.51-1.71.4-2.02.1-.81.61-4.03.2-3.12-.1-1.62-.3-1.41-.31-.91-3.22-3.32-.91-1.61-1.11-1.21-1.01-.61-1-.2h-1.72l-.4-.4-.2-.41-.1-1.31.4-1.81 2.02-3.33.3-1.01v-1.41l.2-1.21.5-1.31 3.03-4.74.5-1.11.2-1.11.31-.7 1.91-1.82.61-.6.9-.71.71-.1.91.31 1.41 1.71.8.6 1.41.31 1.21-.21.71-.3 2.52-3.83 2.22-1.91.6-1.21.41-2.32-.21-1.62-.9-2.01-.31-1.51v-1.62l4.84-19.96 5.34-22.98.21-.81 2.82-6.65.2-1.62v-1.71l-.71-2.42-1.1-3.12-.61-1.62-.91-3.43-.3-.6-3.02-2.82-3.33-4.04-2.32-1.51-1.81-.4-3.73.1-2.72-.5-2.93-.71h-1.81l-1.61.5-3.93 1.82-1.52.2-3.62.3h-3.73l-9.08-1.91-1.21-.61-1.61-1.61-.7-1.21-.61-1.21-.7-2.92v-.91l.3-1.21.5-1.01.71-.81 1.31-.8 1.01-.4.8-.11.41.11.6.5.3.6-.1.71-.4.71-.81.7-.2.51.3 2.92.2 1.01.51.7 1.01.71 1.31.6 2.52.41.9-.31 1.31-1.51.81-.3 1.92-.2 2.52.4 2.31-.1 3.03-1.01 2.52-1.21 2.62-.3h1.71l2.02.71 1.01-.11 1.81-1.1 2.02-.71h2.01l2.42 1.01 2.22 1.01 2.32 1.71 7.26 5.65 1.21.8.7-.1.91-.3.6-.91.41-.8-.1-.91-.71-2.02v-1.01l.3-1 1.51-2.73 1.01-1.21 1.21-1.21 4.54-2.92 4.73-4.33 3.03-3.63.6-1.11.51-1.52.2-1.71.1-.3.91-2.52.3-.4 1.61-2.83 1.11-1.31 1.01-.8 1.71-.61 2.93-.1 2.31.2 2.42-.1 1.62-.5 4.83-4.84 3.13-2.83 5.24-5.54.2-.71-.1-1.1-.3-.81-.61-.91-5.54-4.74-2.82-2.82-2.93-3.53-.4-.7v-1.21l.2-.51 1.01-1.21 1.61-1.21 1.11-.4.51-.1.6.4 4.74 5.24 1.81 2.32 1.52 1.21 1.71 1.01 2.32 1.31 2.21.61 1.01.1 2.02-.41 1.81-.9 1.92-1.92 1.71-1.61 2.02-1.11 5.84-2.22 6.96-3.33 4.64-2.31 2.01-1.82 1.31-1.91.91-5.75v-2.42l-.81-4.44-.9-4.53-1.31-5.04-.41-2.72.1-2.93.61-2.62 1.31-2.42.3-.3 1.51-1.61 3.03-1.52 3.12-.9 2.12-.51 4.43-.2 3.93-.6 1.62-.41.8-.91.71-1.1 2.12-6.05v-2.93l.2-1 .4-1.31 1.81-3.63 2.83-4.64.7-1.82.71-4.23 2.62-4.54.2-2.21v-3.03l.3-.6 1.11-1.01 3.33-2.42 3.43-3.93 6.24-8.87.61-1.11.2-1.21.2-2.42.41-1.52.7-1.41 8.87-9.47 7.86-7.97 6.56-6.25 2.62-2.01 1.91-.61 1.51-.1 1.62.3 2.31.81 1.42.2.9-.3 1.11-.71 5.04-4.43 2.82-2.42 7.77-6.15 6.55-6.35 7.86-8.87 2.12-2.73.7-1.51.71-2.32.2-3.32-.4-3.73-.51-1.52-.3-1.61-.1-2.02.2-1.1.5-.51 6.46 9.48 1.91.91 2.02-1.42 42.74-64.72 4.03-5.04 2.82-4.84.71 5.14.5 2.83 3.53-.81 3.12-.6 5.44-1.82 4.24-1.81 1.41-4.64-.1-4.44.5-1.61.61-2.02 2.21-3.73 8.77-9.57 11.7-8.37 4.84-2.42 3.22-.61 7.06.61 8.97 1.21 5.24 3.02 3.12 3.03 4.74 7.16 2.42 5.64 5.24 5.65 4.54 2.92 4.13 4.44 4.64 1.51 4.33.1 6.86.91 5.54-3.63 3.73-4.14 1.11-5.74-.61.5-.9-.1-1.01-2.12 1.91-6.95 4.64-6.25 3.02-2.42 3.33-.2 5.34 2.31 8.77.51 8.77.2 9.98-.91 1.31-.1 1.41-.7 1.01-.51 2.82-5.95 2.93-6.65 9.57-9.88 6.15-5.85 8.67-8.97 12.6-11.79 3.53-1.82 2.31-1.21 6.35-.2 4.44-.7 5.44.5 1.62 1.11 2.82 1.81 12.8 20.67 5.85 12.6 6.04 7.56 6.45 7.16 4.04 8.97 2.92 7.56 2.22 6.25.7 3.03v2.42l-1.41 2.11-3.22 2.52-1.92 2.73.3 2.72 1.41 1.91 2.93.41 1.01-1.11.3-1.92.4-2.01.91-1.82 2.52-1.11 2.22-.5 2.72-.2 1.51-1.62.5-2.31.41-.71 1.31-.1 1.91 1.51 1.51 2.42.71 2.12.2 2.42-.4 1.21-.51 1.61-1.81 1.21-5.85 1.61-2.21 2.32-.51.91v1.11l.2.9.1 1.01.41.31.4-.31 1.21-1.71.3-.61.41-.3.1.1.1.2.1.11-.1.8-.51 1.82.21 2.21.1 2.63 1 2.62 1.01 1.51 2.52 1.81 2.42.91 3.83.81 12.7.5 2.62-.2 1.62-.61-1.11-1.61-1.72-2.72 1.11-2.42.61-2.62-.2-2.22-1.62-5.34-.8-3.53-.41-2.52.1-2.02 1.11-1.61 1.21-1.51 2.12-1.31 2.62-.1 2.72.3 2.62.3 1.82.71-1.31 11.19 3.12 3.73 3.33 2.22 3.02 2.11 4.34 2.02 6.04 2.42 5.45 2.82 6.75 4.03 4.84 2.12 2.32-.6 2.42-1.72 1.1-1.41 1.82-1.41 1.91-1.11h2.73l3.83 1.61 2.01.41 1.92-.51.9-1.81.41-2.42-.41-1.51-.6-1.42-1.11-1.91-2.62-2.42-3.33-2.22-4.43-2.82-1.82-3.43-.9-3.43-.61-4.53-.3-5.35v-5.24l1.11-6.95 1.41-10.39v-3.63l-.5-6.85.6-1.82 1.11-1.51 1.71-1.11 1.72-.7 2.31-.31 2.22-.1 3.73-.1 1.92.61 12.5 84.18 2.11 16.63.71 5.14.91 6.05 5.34 35.59.9 6.25 3.63 23.08 2.32 14.92 4.24 27.42 1.61 10.79 2.62 17.34 1.11 7.46 2.11 13.91 2.42 16.44 2.52 16.73 9.58 63.11 8.67 57.36 3.83 24.5 1.91 13 1.92 12.71 16.53-2.73 18.14-2.72 12.4-2.01 27.72-4.14 13.31-2.11 12.9-1.92 6.75 11.09 5.85 8.67 7.15 9.48 1.72 2.72.8 1.71 1.01 2.92 2.72 7.26 2.22 4.94 5.85 7.16 1.91 3.23 3.33 7.05 1.41 3.94.91 3.52 2.11 7.56 1.11 5.05.41 3.02.4 6.15.2 11.69.61 10.89.7 5.75.61 2.42 2.11 6.05 3.13 7.36 1.61 3.42.81 2.22 2.72 14.22.2 1.61v1.61l-.6 4.44-1.11 5.95.1 2.01.5 2.32 1.61 3.13.51 1.51.2 1.11.6 5.44 1.52 5.54 1 2.83 2.93 9.27 2.32 6.56-29.13 3.93-19.26 2.52-6.35 1.31-6.35 1.51-6.35 2.12-5.04 2.11-.91-1.51-.4-.4-.5-.51-.2-.1-.61-.3-.81-.3h-1.2l-5.85.7-3.63.61-14.11 1.91-19.56 2.73-2.62.4-14.31-4.13 1.21 8.26 4.23 27.12-30.64 18.35-66.63 39.52-12.4 7.26-18.04 10.88-16.83 9.88-13.41 7.67-6.95 4.23-15.32 9.07 9.67 64.93 1.21 8.16 2.12 14.32 1.41 7.46.3 2.42 2.62 14.31.51 2.62-1.51.31-.81.1-15.52 2.42-7.46 1-11.09 1.62-25.81 3.63-27.51 4.53-31.05 4.64-26.41 4.13-23.69 3.73-5.84 4.84-1.72 1.01-12.9-.2-.8.3-46.27 15.73-21.67 7.96-2.42-.9-27.12-10.79-20.15 3.02-17.95 9.28-18.24 3.22-39.41-1.21 5.64 40.33 3.13 23.89 3.83 28.53 2.62 18.75 1.71 10.29 1.61 11.08.51 3.13 1.11 7.26.6 4.54 1.01 6.35 2.01 13 2.12 13.61 5.14 33.47 1.62 11.19 1.71 10.79 1.71 10.58 1.72 10.69 1.61 10.28 2.62 17.14 5.74 36.29.21 1.01.1.81.2 1.41 3.12 20.77 3.03 20.06 1.71 11.39.81 4.64 2.62 17.84 1.61 10.59 1.71 10.78 1.72 11.29-1.11.31-4.84.8-3.93.61-12.8 1.61-21.57 3.43-4.13.7-26.51 4.84z" stroke-linejoin="round"/></defs><use xlink:href="#c" fill="#9dc8ca" stroke="#9dd7f0" stroke-width="5.76"/><defs><path id="d" d="M1376.09 2116.76l-.2-.81-8.77 2.02-7.36.3h-3.02l-4.33-3.93-2.93-2.52-2.01-1.92-.61-.6-1.61-1.92-1.41-1.61-.91-1.71-.8-1.51-.61-1.42-.71-1.91-.5-2.12-.3-1.01-.61-3.22-.2-1.62-.3-2.52-.2-1-.3-1.62-.41-2.92-4.84-32.76-2.42-17.24-.6-4.64-.4-3.03-.2-1-.11-.81-1-5.95-.71-3.83-.4-2.01-2.12-12.2-2.12-12.2-1.31-7.56-.4-2.12-.7-5.54-.91-5.15-1.21-7.35-1.82-12.1-1.91-12.4-1.01-6.76-.91-5.74-2.01-12.3-2.22-12.2-1.91-12.7-.91-6.15-.81-6.15-1.21-10.99-.2-1.61-.91-9.68-2.82-22.38-3.22-23.49-.71-4.84-1.51-6.55-.81-2.22-1.71-3.33-5.65-8.87-5.14-6.96-4.23-6.45-1.41-2.72-.91-2.42-1.11-4.54-.2-2.72.1-4.43.81-3.73 1.71-6.66 1.21-4.74 1.81-7.15.61-3.73.4-2.93.31-3.63.1-3.42v-10.39l-.91-14.82-.61-3.42-.8-3.13-1.11-3.83-.51-1.41-1.71-4.24-.91-1.61-1-1.81-2.02-3.53h.81l-1.82-3.53-3.02-6.65-2.02-7.87-1.61-4.33 1.31-2.12 1.92-3.12 1.1-2.02 1.52-1.82 1.31-1.41 1.91-.8 2.02-.51 2.21-.1 1.21-.2 1.92.3 2.12 1.01 1.91 1.11 1.51.91.81.9 1.92 2.02 1.1 1.31 1.41 2.02 1.52 2.82 1.61 3.13 1.21 3.32 1.81 4.64 2.22 4.94.91 2.22 1.41 2.62 2.32 2.92 4.63 3.53 6.66 5.04 6.45 4.03 7.96 3.73 4.23 1.42 5.15 1.61 5.14 1.31 5.64.81 4.94.2 4.84.1 14.01.8 11.99 1.62 9.58 1.91 8.97 2.83 5.55 2.82 2.92 1.91 2.52 2.62 2.32 2.63 1.71 2.72 1.31 2.82.81 2.82.2 3.94-.2 2.31-.61 3.43-.8 7.06v4.03l.4 3.73 1.61 4.54 1.82 2.92 1.31 1.92 2.62 1.51 3.42.91 3.03.1 3.02-.81 1.92-.71 4.33-1.71 6.76-2.02 3.22-.1 3.23.61 5.54 1.31 12.2 2.72 10.08 2.62 3.93.61 4.03-.61 3.02-.7 2.62-.51 2.62-.8 3.23-1.72 2.82-2.32 8.27-7.15 9.47-8.37 2.93 4.33.4.41 2.72 4.03 3.83 5.54 1.01 1.62 1.11 1.51 1.41 2.12 1.61 2.11 1.72 1.82 1.21 1.01.9.6.61.4 1.01.41.4.2 1.21.5 1.11.41 7.05-8.47 5.24-5.95 1.62-1.71 7.05-7.97.91-1.11 1.61-2.22 7.46-13.3 4.34-7.76 1.1-2.02 1.52-3.23 4.23-9.88 1.41-2.92.81-1.51 1.01-1.31 2.21-2.62-8.46-10.89-1.52-1.92-1.31-1.71-1.71-2.22-1.51-2.02-2.22-3.02-2.92-3.73-2.62-2.92-.51-.71-3.63-3.33 6.76-6.15 2.52-2.72 1.51-3.42 1.01-2.93 1.71-3.12-1.31-1.92-4.54-8.97-3.32-.3-7.26-12.61-19.05-26.01-8.97-12.29-12.4-16.64-6.05-8.37-9.07 7.57-3.32-4.44-.71-.71-1.11-.9-.91-.51-1.31-.6-1-.3-11.8-3.94-14.71-4.53-9.58-3.33-1.71-11.39-1.82-12.4-1.11-7.46-.7-4.74-.91-5.95-.81-5.64-.9-5.75-1.01-6.45-1.61-11.39-1.31-9.38-.41-2.62-1.41-9.88-.3-1.61-1.82-12.2-1.31-8.87-2.11-14.52-1.82-12.3-1.41-10.18-.1-.4-.1-.81-1.51-10.08-1.61-10.89-1.62-10.58-1.51-10.89-.1-.71-.1-.7-1.51-9.38-1.31-9.48 24.59-3.63 28.73-4.03 32.46-4.94 1.31 9.38 1.51 10.28 1.71 11.39.91 6.66.6 4.13 1.52 10.69 1.41 10.78 1.61 10.79.6 4.03.31 1.51.5 2.12.5 1.31 1.01 1.61 3.03 4.04 6.65-.91 2.12-.5 18.64-2.73 15.32-2.21 21.17-3.13-.2-1.71 11.69-1.62 11.9-1.81 11.49-1.61 1.21-.2.6-.11-1.01-6.95-1.2-7.87.8-.2 31.35-4.33.2.2h.51l30.34-4.13 14.31-1.52 3.63 2.22.8-16.73 1.82-25.1.1-1.42 2.62-.3 1.61.1 3.13.51 2.82.9 3.02 1.62 1.62 1 2.72 2.02.7.5 1.92 1.42 1.71 1.21 1.01.7h.2l1.11.71 1.41.8 2.02.91 1.61.61 2.42.8 3.83 1.11v2.92l.2 2.32.1.91.1 1.01.51 2.32.5 1.81 2.02 4.94.7 2.52.1 1.51-.1 1.92-.3 1.71-.5 1.72 15.22 6.15 15.62 8.47.81-1.31.6-.91 1.51-1.41 1.31-.81 1.42-1.01-1.11 5.04 1.41 3.83.6.41 2.82 2.11 7.77 4.14 4.73 1.51 2.93.2h7.25l3.94 1.01 3.22 1.01 5.75 3.22 7.96 4.54 3.83 1.21 2.32 1.01 1.91 1.01 1.01 1.1 1.21 1.72 1.21 2.42 1.41 2.11 2.32 2.42 3.43 2.12 3.32 2.62 2.02 2.12 1.01 2.32 2.11 7.46-1.81.8-2.92 1.11-2.22 1.21-2.02 1.92-1.11 1.41-.8 2.02-.51 2.01v1.62l1.01 7.86.61 4.74 8.77-.71 2.01-.1 4.54-.6 11.69-1.31 18.75-2.22 2.92-.51 1.31.51 8.97-1.92 1.11-.3 3.83-1.11 8.47-1.51 3.23-.2 30.13-3.93 36.59-4.74 2.22-.41 1.41-.2 3.93-.3h4.14l5.74.3 3.03.2 4.33-.5.81-.91 3.02-.2-.3 7.46 2.92 16.53 2.12 11.8 2.32 16.43 5.64 32.26 2.72 20.97-.2 1.01.1.7 1.82-.3 1.21-.1 8.76-1.11 7.16-1.31 9.68-1.41 18.24-2.52 34.27-5.04 7.46-1.01 2.62-.4 1.11-.2 2.32-.41 3.73-.4 2.22 14.52.2.7.3.71.41.2.3.1 14.01-1.91 2.42-.21 1.21.1v-2.21l-.1-2.42-.71-7.36-.7-5.55 26.51-4.84 4.13-.7 21.57-3.43 12.8-1.61 3.93-.61 4.84-.8 1.11-.31 3.12 19.96 1.62 10.79 1.1 7.76.31 2.12.3 2.02.7 4.53.21 1.42 2.92 19.15.3 2.52.41 2.62.1 1.11.3 1.92 3.22 21.37 1.31 8.67.31 2.42.4 3.12 2.72 17.64.2 1.01 4.74 33.67 2.02 14.12.2 1.41 4.23 28.43 1.72 11.69-.61.1-23.49 4.04-18.44 3.42-4.74.71-9.88 1.71-21.67 3.83-2.92.41-2.02.3-8.47 1.41-1.41.2-1.11.1-14.41 2.52-4.13.61-12.1 1.91-6.85 1.21-9.78 1.62-1.21.1-1.51.3-5.44.81-12.1 1.51-5.54 1.11-5.65.91-5.44.6-10.89 1.71-.7.21 1.91 11.49 2.42 15.62.1.51 4.64 27.32 3.43 20.36.3 2.12-.61.2-8.97 1.31-4.53.51-5.25.9-2.82.2-1.51-.5-1.31-.91-1.31-1.81-1.81-3.13-2.52-5.74-1.01-3.83-1.11-3.63-.4-1.21-.61-.71-.5-.5-2.52-.81-.91-.81-.61-.9-.7-2.22-.5-2.42-1.92-4.23-1.21-2.02-5.14-6.25-2.32-2.32-2.72-3.63-3.93-7.16-1.31-3.83-1.01-4.33-1.11-1.82-1.41-1.11-1.21-.7-1.41-.1-.91.1-.9.6-.51 1.82-.8 5.34-.21 2.72-.9 1.62-1.52 1.1-4.73 1.52-1.21 3.83-.51.7-1.51 1.11-12.8 3.83-.91.1-.1.71.3.71 1.11.8 1.21 1.82.31 1.41.7 6.05-.2 2.01-.61 1.72-.8 1.41-1.21.7-8.77 1.92-1.51.5-.81.71-.4.6-.61 1.21-1.21 2.02-.7 2.02-.3 3.83-2.02 5.14-1.01 1.51-1.41 1.21-1.01.61-.91.2-1.31.2-3.52-.91-1.41.1-4.64.71-1.31.91-5.44 5.04-3.03 2.01-2.22.91-4.03 1.11-1.61.6-5.75 3.63-.9.41-2.12.3-1.01-.3-1.11-.61-1.01-1.21-1.31-3.73-3.12-5.75-2.42-3.73-1.81-1.81-.91-.3-.71-.2-2.11-1.21-1.72-.41h-1.21l-1.11.71-.2.4-.1 1.11.2 1.92-2.52 8.26-.1.91.31 2.22.3 1.11.6 1.21 1.62 2.72 2.52 2.92 1.81 1.72.81.7 1.11.51 1.31.3 1.61.5.7 1.01v1.01l-.2.7-1.31 1.21-.6 1.01-.31 1.21-.1 1.31.1 1.31.71 2.32.4.91.71.4 2.01.61.71.8.61 1.01 1.71 3.13 1.71 2.52.81.1.81-.71.6-.2h.81l1 .3.61.51 1.01 1.31 1.81 1.41.4.6.41 1.31.4 4.34v1.81l-.2 2.73-.4 2.72-.51 1.31-.8 1.31-.51.3-.3.71-.1 1.01.4 2.31.61 1.82-.1.81-.31.5-4.53 5.44-.71 1.21-.3 1.41-.1.91.1 1.11.5 2.82.81 2.93.2 2.42-.1.8-.4.61-.61.5-1.61.91-.71.7-.3.61v.5l.1.61.81 1.31.2.6-.1.71-.3.4-1.31.61-1.31 1.01-1.01 1.41-.51 1.51.31 1.41.7 1.31 2.93 4.64 1.51 3.12.4 1.72.1 1.41-.7 2.12-.81.1-.71-.1-2.01-1.62-1.51-1.11-3.83-1.71-1.01-.1-.61.3-1.11 1.11-.6 1.31-.3 2.22.7 4.13.51 1.21 1.01 1.11.3.91.2 1.21v1.51l-.3 1.82-.41 1-.6.61h-2.02l-1.51-.61-1.91-.7-2.73-1.31-1.51-.51-1.51-1.31-.91-1.21-.6-1.41-.3-1.61.8-4.13 1.31-5.25v-1.41l-4.23 3.73.5 5.45.51 2.52-11.49 2.01.6 2.82 2.22 14.22 3.43 11.09 3.12 14.72 1.31 1.71 2.52 1.72-4.23.7-2.62.4-1.82.31-2.01.3-1.92.3-2.92.4-1.62.31-6.04.7h-.81l-1.71-5.54-.71-2.32-3.32-11.59-1.01-.81-19.56-16.03-7.36-6.45-8.16-6.55-8.97-7.57-1.01 1.82-.2.5-1.41 2.83-.91 2.01-1.61-2.01-.61-.41-.6-.5-.61-.51-.4-.4-.91-.6-1.21-.81-1.11-.71-1.1-.4-1.21-.4-.81-.1-.71-.2-1.61-.21-1.11-.1h-.9l-1.82-.2-.5-.1-2.72-.3-.71-.3-.71-.21-2.11-1.31-1.41-1.41-1.21-1.61-.61-1.21-.7-2.32-.71-.81-1.01-6.45-1.71-10.78-.1-.71-.1-.81-16.73-13.71-4.64-3.63-14.82-12.5-15.02-11.99-2.92-2.52-16.03-15.03-5.14-4.53-2.92-2.93-2.72-3.42-1.82-2.52-8.77-13.71-1.71-2.83-6.35-10.78-6.96-11.8-1.21-2.32-1.31 1.11-2.21 1.92-3.53 2.62-1.31 1.01-4.34 2.72-4.13 2.82-2.52 1.51-12.09 7.26-5.65 3.43-5.85 3.43-3.83 2.42-3.12 2.01-3.02 2.02-3.03 2.22-4.23 3.02-4.03 3.33-4.04 3.32-3.42 3.13-2.93 2.82-2.92 2.83-1.71 1.81-.41.4-3.62 3.93-3.53 4.14-3.43 4.13-3.22 4.34-3.13 4.43-3.02 4.44-2.93 4.64-2.82 4.73-1.71 2.93-1.62 3.02-2.11 3.93-.81 1.72-1.31 2.82-2.72 6.25-.71 1.81-1.31 3.13-1.41 4.03-.6 1.82-1.51 4.53-3.63 9.78-8.07 23.09-1.61 4.23-3.73 8.97-2.62 4.84-2.52 4.24-.91 1.51-.8 1.21-.71 1.11-.2.3-.4.61-.51.7-.5.61-.41.6-.7.91-.71.91-.7.8-.81.91-.6.6-1.01 1.21-3.63 3.73-1.01.91-1.91 1.82-.51.5-6.25 5.44-6.75 6.05-6.95 6.05-10.49 9.28-1.81 1.61-1.51 1.31-23.99 21.27-9.58 8.67-1.41 1.41-3.33 3.43-2.92 2.62-1.41 1.11-1.01.81-1.01.8-1.71 1.21-1.51 1.11-.31.2-1.21.81-1.41 1.01-1.41.91-1.81 1.1-1.72.91-1.51.91-2.21 1.11-2.12 1.11-1.92.9-2.62 1.42-2.32 1.11-2.62 1.31-2.62 1.31-5.64 2.82-7.66 3.83-4.94 2.42-5.24 1.61-2.93 1.31-4.23 1.82-4.64 1.91-4.53 1.92-4.14 1.91-5.34 2.42-7.36 3.33z" stroke-linejoin="round"/></defs><use xlink:href="#d" fill="#6bacaf" stroke="#6bb4d2" stroke-width="5.76"/><defs><path id="e" d="M1744.21 1752.02l1.61 1.71.91-1.1 7.26-8.67 3.83-4.74 2.62-2.93 2.52-3.02 1.61-1.82 3.33-3.93 3.02-3.63 3.53-4.13 1.71-2.12 2.02-2.32.3-.4.71-.91 1.31-1.61 2.31-2.52 1.11-1.31 1.01-1.01.91-1.01.8-.8.71-.61.71-.7 2.11-1.92 2.12-1.81 1.31-1.11 1.21-1.01 2.12-1.51 1.51-1.11 1.81-1.21 1.41-1.01 2.42-1.51 3.53-2.12 3.33-1.81 3.02-1.52 1.21-.6.5-.3.81-.3-.2-.51-.3-.6-.31-.91-.4-.91-.3-.91-1.92-4.13-1-2.22-1.01-1.91-1.21-2.22-1.51-2.82-.81-1.52-1.11-1.81-1.91-3.02-3.63-5.75-2.22-3.53-8.67-13.71-4.13-6.75-1.92 1.81-1.31 1.21-1.21 1.11-6.95 7.16-9.68-13.11-3.53-4.94-2.42-3.53-9.57-13-9.38-12.91-9.27-13 5.85-5.65 5.84-5.44 1.92-1.51-2.02-7.16-.8-4.13-.51-3.83-.3-3.53-1.41 1.41-1.41 1.41-2.12 2.42-2.22 3.63-.7.91-.61.8-4.53 4.04-5.04 4.94-5.55 5.04-1.31 1.1-1.91 1.11-1.62.71-2.41 1.41-11.39 10.08-5.15-7.66-1.91-2.52-3.13-4.23-4.43-6.05-3.93-4.54-2.92-4.74-2.12-3.32-.2-.51-2.72-6.35-1.11-2.62-.71-1.41-1.01-1.92-1.51-2.32-.4-.6-1.21-.71-1.92-2.11-1.31-.91-1.71-1.21-1.31-.61-1.71-.4-1.32-9.37-1-7.46-1.11-8.37-.91-6.86-2.32.61-2.21.8-7.46 3.13-5.85 2.72-5.65 2.62 1.62 13.21 1.91 2.52 9.48 13.1-1.72 1.11-8.06 7.16 9.37 12.5 7.67 10.89 2.82 3.93.6 1.11.61 1.11.9 2.12 2.42 6.25 1.62 3.83 1.21 2.92.7 1.71 1.51 2.22 1.92 2.72-6.45 25.21-4.03 3.83-3.13 2.62-3.53 3.33 3.93 1.81 1.72.71 2.62 1.01 1.61.9 1.61 1.01 1.31 1.11 1.52 2.02 9.57 13 9.68 12.9 15.42 21.28 6.15 8.46 7.16 9.68 9.77 13.31 2.93 3.73.6.6 4.03 4.44 3.03 3.33 1.61 1.61 2.12 2.32 2.72 2.92 4.33 4.94 2.22 2.42 1.01 1.11z" stroke-linejoin="round"/></defs><use xlink:href="#e" fill="#6bacaf" stroke="#6bb4d2" stroke-width="5.76"/><defs><path id="f" d="M953.35 2150.13l-21.27 2.82-2.32.3-7.96.91-21.47 2.82-31.05 3.94-13.71 1.91-3.63-23.79-4.63-32.46-1.41-.51-3.83-3.42-5.45-5.85-8.46-9.07-13.91-12.81-5.35-4.74-1.71-1.1-112.49 18.04-17.04 2.82-7.76.91-74.99-1.11.4-.8.91-1.52.91-.8 1.61-1.11 1.81-1.11 1.11-.91 1.82-2.12 3.32-4.23 2.42-3.43 3.23-4.23 2.72-5.75-.91-1.61-.5-1.92-1.71-3.73-.91-2.72-.61-1.01-1.51-1.91-1.51-2.22-2.92-5.14-4.24-3.83-6.15-6.15-1.21-1.41-2.62-5.14-2.92-7.36-5.54-15.83-4.34-7.56-.6-2.02-.61-5.04-.8-5.54-17.54 3.02-8.87 1.92-4.84 1.21-7.86 1.91-3.63.91-4.44 1.41-6.25 1.71-1 .21-7.97 2.11-7.96 2.02-5.75 1.21-7.76 1.21-8.87 1.61-21.67 2.72-51.51 6.86-32.15 4.43-15.12 2.32-1.01.1-10.99 1.11-3.73 1.92-2.52.4-11.79 1.61-3.53.51-5.54.2-12.6 1.82-14.72 2.01-21.97 3.23-7.86.9-16.13 2.12-20.56 3.13-8.37 1-23.89 3.43-8.97 1.31-7.46 1.01-4.94.71-7.66 1.11-8.06 1.21-13.01 1.51-20.66 2.52-25.8 3.02-21.57 2.62-4.64.61-3.63.4-11.49 1.51-.1-.8-.1-1.01-2.82-20.57-5.65-39.62-5.24-37.3-7.56-55.24-4.34-30.04-5.24-37.1 23.39-3.33 6.95-1.01 19.76-3.32 37.19-5.85 9.38-1.41 14.51-1.72 44.15-5.44 21.17-2.42 11.89-1.41 42.74-5.14 25.71-3.33.2-2.52.3-2.92 1.01-3.03 3.22-7.46 1.11-1.41 2.42-1.41 6.15-2.02 3.63-1.11.91-.4.7-.4 2.02-2.12.8-1.41 1.92-3.03 1.41-1.41 1.51-1.21 1.11-.8-3.83-25.91-1.21-1.01-.91-1.11-.8-1.71-.51-1.72-2.72-18.75-2.72-10.08-.6-1.31-.71-1.11-1.11-1.41-2.42-1.81-3.93-3.63-2.82-3.43-4.03-6.25-1.11-2.02-.81-1.91-.8-2.52-1.62-2.62-20.56-21.38-26.81-10.18-45.66-17.34.5-45.47 24.49-3.42 15.93-2.42 36.99-5.45 19.66-3.02 48.89-5.65 28.52-3.12 6.45-.71 3.73-.6 4.24-.51 3.83-.6 3.12-.61 2.82-.6 2.73-.61 3.62-.5 2.73-.71 6.14-1.2 1.42-.31 32.35-7.26 2.02-.5 23.68-5.34 11.19-2.22 2.12-.3 28.73-4.84 23.28-3.93 12.3-2.02 8.57-1.61 11.79-1.92 2.42-.4 12.9-2.12 17.64-2.82 11.19-1.82 4.44-.8 13.2-2.22 13.1-2.22 16.43-2.62 9.68-1.71-2.82-20.67-.3-1.92-3.03-20.96-.7-3.94-.11-.5v-.2l-.4-1.61-.3-1.21-.3-.81-.41-1.31-.5-1.01-.61-1.31-1.91-2.82-.91-1.31-1.41-1.31-1.31-1.21-14.21-11.4-10.79-8.77-8.46-6.75 74.59-32.06 4.53-2.02 2.02 1.72 2.01.91 3.13.9 3.63 1.01 3.83 1.21 3.02.71 4.34 1.41 4.33 3.02 3.43 3.43 1.41 2.42 1.01 2.22.9 3.73.51 4.74.3 3.42 1.51 5.35 2.02 3.12 3.73 3.63 5.64 4.03 7.06 2.42 6.65 2.12 4.03.5 5.04.51 4.14 1.11 4.13 1.11 4.13 1.41 2.52.8 2.42-.1 2.72-.8 2.02-.1 1.81.1h1.72l3.83.2 4.43-.51 2.52-.5 1.21-.4 1.11-.51 1.81-1.71 2.42-3.63 2.22-3.53 2.42-5.64 1.11-3.94 1.11-8.67-.1-5.94.8-6.25 1.31-5.65 2.42-6.35 3.03-4.13 3.52-3.63 4.24-3.13 3.32-3.02 4.84-5.35 4.24-4.23-.61-5.24-.6-5.45 4.53-1.21 21.07-3.73 4.64-.5 6.85-.4 10.08.4 6.35.5 2.22.1 2.22.21 1.91.2h1.01l3.63.4 1.91.1 3.03.3 2.42.31 1.41.1 1.41.4 1.11.3 1.31.41 1.41.5 1.81 1.01 1.82 1.01 2.42 1.61 2.52 2.12 1.21 1.11 1.1 1.1 2.83 2.63 9.27 8.97 5.34 5.24 8.77 7.66 7.56 6.15 7.46 5.45 3.13 2.11 2.21 1.51 7.36 4.84 6.05 3.94 3.43 2.21 8.06 5.04 8.27 4.84 3.73 2.02 14.21 8.16 9.98 5.55 6.55 3.73.4 4.74 1.11 9.98.5 4.33.51 6.15.3 3.03.4 3.42.81 8.47 2.42 2.32 3.53 2.12 3.93 2.52 3.83 1.61 2.52 1.31 2.22.81 4.33 1.81 5.65 2.02 3.83 1.61 4.23 1.72 4.43 1.81 14.82 6.55 9.17 3.33 6.66 2.72 5.34 4.84 3.33 3.73 2.72 5.45 1.51 4.43.91 4.74.6 3.83.91 7.86v3.53l-1.21 4.04-.4 3.52.4 3.53.6 2.93.71 1.81 1.41 2.12 4.13 3.22 6.55 5.04 4.44 2.73 2.52 1.31 2.92 1.21 3.73.9 5.85.31 7.05.3 5.35.6 4.94.71 4.63.1 5.55-.4 3.32-.61 3.63-1.01 7.76-1.51 7.97-1.41 4.33-.3 2.72.7 3.23 1.21 2.11 1.21 2.12 2.22 1.41 2.42 1.11 2.42.91 1.81.91 2.63 1.2 3.52 2.12 6.96 3.23 9.98 1.71 6.35 1.01 4.84.4 3.63.51 3.63 1 3.43 1.42 2.62 1.31 1.51 1 .81 1.62 1.11 1.41.8 2.92.51 2.02-.31 2.21-.6 1.72-1.21 1.31-1.51 1.61-2.22 1.11-1.31 1.61 4.33 2.02 7.87 3.02 6.65 1.82 3.53h-.81l2.02 3.53 1 1.81.91 1.61 1.71 4.24.51 1.41 1.11 3.83.8 3.13.61 3.42.91 14.82v10.39l-.1 3.42-.31 3.63-.4 2.93-.61 3.73-1.81 7.15-1.21 4.74-1.71 6.66-.81 3.73-.1 4.43.2 2.72 1.11 4.54.91 2.42 1.41 2.72 4.23 6.45 5.14 6.96 5.65 8.87 1.71 3.33.81 2.22 1.51 6.55.71 4.84 3.22 23.49 2.82 22.38.91 9.68.2 1.61 1.21 10.99.81 6.15.91 6.15 1.91 12.7 2.22 12.2 2.01 12.3.91 5.74 1.01 6.76 1.91 12.4 1.82 12.1 1.21 7.35.91 5.15.7 5.54.4 2.12 1.31 7.56 2.12 12.2 2.12 12.2.4 2.01.71 3.83 1 5.95.11.81-5.04 4.94-1.92 1.71-8.16 7.46-6.15 5.75-4.94 4.43-4.34 4.03-6.45 5.95-1.11 1.01-1.31 1.21-.4-.7-7.36-10.39-1.51-1.31-2.02-1.21-5.94-2.62-3.03-1.61-1.71-1.41-1.21-1.62-2.22-3.12-2.32-2.83-2.21-2.01-3.43-2.42-3.63-2.22-1.21-.7-.81-.71-2.01-2.62-1.31-2.42-.4-.71-.51-1.91-.4-2.02-.81-5.74-.3-1.62-2.02-15.02-.4-2.42-.3-2.42-.71-4.03-32.15 5.44 4.03 26.32.91 4.43.9 5.24 9.88 6.15 5.14 3.53 13.51 8.87 7.56 4.74 3.12 2.32 1.62 1.01 8.97 6.45 2.52 2.02 2.72 2.11 4.03 3.13 2.52 2.12 2.42 2.01-1.41 1.21-1.31 1.21-1.71 1.61-.61.51-11.59 9.88-1.01 1.01-2.02 1.81-.7.71-3.23 3.02-17.33 15.73-3.03 2.72-2.62 2.42-.4-.4-2.12-1.21-1.61-.61-2.02-.3-16.23 2.72-16.43 2.62-.5-3.02-3.93-26.72-10.28-71.88-.61-3.32-.6-3.23-.2-.91-.31-.4-.4-.5-.6-.21-.41-.2h-.6l-1.21.1-6.05.91-15.52 2.22-24.09 3.53-23.09 3.63-12.19 1.81.5 3.53 4.03 26.41 6.25 42.65 4.34 28.02.6 4.54.91 5.95-12.8 2.01-46.47 6.25-20.06 2.72-15.52 2.02-20.36 2.82-5.45.81-7.96.91 23.89-34.58 17.34-25.41-27.02-29.13-3.62-2.82-2.12-1.21-1.41-.41-1.01.1-1.41.51-3.43 2.62-1.31.3h-.81l-1-.4-2.83-1.51-1.71-.61-2.32-.4-5.44.4-2.52.61-1.61.7-4.64 2.22-4.44 3.13-1 .6-.81.4-1.31.1h-.5l-.91-.5-1.01-.91-1.51-1.91-1.71-2.22-2.83-2.62-.7-1.11-.31-.4-.2-.31h-.3l-2.12.91.21 1.61 2.72 17.95 7.76 53.93 3.63 24.3z" stroke-linejoin="round"/></defs><use xlink:href="#f" fill="#6bacaf" stroke="#6bb4d2" stroke-width="5.76"/><defs><path id="g" d="M1539.49 3189.61l-8.87 1.11-4.64.8-17.24 2.42-4.03.51-4.63-30.85-6.25-40.53-.21-1.41-.7-4.64-.91-6.15-.1-.1-8.57-56.05-10.38-66.44-1.91-12.29-2.93-17.85-1.11-7.06-5.44-33.26-3.22-20.07-6.66-40.62-.3-1.92-1.61-10.38-4.64-28.83-.91-6.25-1.11-7.06-6.45-39.22-1.31-8.37-.1-.7-18.44 2.82-13.91 2.22-15.73 2.42-2.11.3-21.07 2.82-12.2 1.72-26.21 3.63-7.96 1.21-3.63.5-14.41 2.12-7.96 1.21-42.74 6.45-5.65.91-22.88 3.73-.7-1.62-2.22-9.37-.81-2.52-.7-1.51-1.11-1.11-6.66-6.15-10.48-10.99-.8-1.51-.71-1.52-5.04-16.23-.71-1.81-.4-.81-1.01-.6-3.42-1.51-2.93-2.42-2.11-3.03-4.34-8.97-7.66-18.65-8.87-23.49-1.81-4.13-.61-1.62-.7-1.11-.61-1-2.42-2.93-7.36-7.66-.7-1.51-.51-2.02-.4-5.84-1.11-6.25-1.41-6.25-.6-2.73-.91-5.14-.2-2.52-1.51-9.17-.41-1.41-.6-.51-3.63-2.11-1.82-1.32-.9-.4-.51.1-.3.41-.6 2.52-.31.2-1.21-.31-3.12-2.62-1.51-.6h-2.72l-2.83.6h-4.13l-2.12.71-.9.2-1.21-.1-.71-.3-.91-.71-.8-1.11-1.41-2.92-7.16-13.01-1.81-3.12-1.62-2.02-1.91-1.41-1.72-1.11-1.81-1.81-.6-.91-.71-1.71-14.92 2.22-10.58 1.51-16.84 2.72-2.82.4-2.32.41-17.64 2.72-6.55 1.11-.3-3.43-1.41-12.2-4.34-29.74-1.51-10.48-.5-3.33-3.33-23.09-1.91-13.81-1.11-6.55-.91-5.85-1.21-8.37-1.11-7.66-1.81-12.7-36.09 5.04-6.75 1.21h-1.61l-.81-.3-.4-.3-1.72-1.21-.8-.51-.81-.3h-1.01l-3.32.5 1.41 9.68 1.11 8.17.9 7.05v.51l-.3.4-.3.3-.71.31-35.07 5.24h-1.52l-.6-.3-.2-.31-.71-4.43-.3-2.82-5.24.7-.3-2.92v-.91l.3-.91.6-1.31.91-4.94 5.04-9.88-5.65-1.41-4.13-6.05-1.11-2.32-.4-1.41-1.41-9.57-1.92-12.91-3.32-22.98-2.02-13.51-2.62-18.05-5.64-35.89-3.33-23.28-.71-5.75-1.61-9.48-.2-1.81-.3-2.22-1.62-10.18-1.21-7.97-2.11-14.31-4.13-28.73-4.74-32.57-4.64-29.63-1.01-6.76 13.71-1.91 31.05-3.94 21.47-2.82 7.96-.91 2.32-.3 21.27-2.82-3.63-24.3-7.76-53.93-2.72-17.95-.21-1.61 2.12-.91h.3l.2.31.31.4.7 1.11 2.83 2.62 1.71 2.22 1.51 1.91 1.01.91.91.5h.5l1.31-.1.81-.4 1-.6 4.44-3.13 4.64-2.22 1.61-.7 2.52-.61 5.44-.4 2.32.4 1.71.61 2.83 1.51 1 .4h.81l1.31-.3 3.43-2.62 1.41-.51 1.01-.1 1.41.41 2.12 1.21 3.62 2.82 27.02 29.13-17.34 25.41-23.89 34.58 7.96-.91 5.45-.81 20.36-2.82 15.52-2.02 20.06-2.72 46.47-6.25 12.8-2.01-.91-5.95-.6-4.54-4.34-28.02-6.25-42.65-4.03-26.41-.5-3.53 12.19-1.81 23.09-3.63 24.09-3.53 15.52-2.22 6.05-.91 1.21-.1h.6l.41.2.6.21.4.5.31.4.2.91.6 3.23.61 3.32 10.28 71.88 3.93 26.72.5 3.02 16.43-2.62 16.23-2.72 2.02.3 1.61.61 2.12 1.21.4.4 2.62-2.42 3.03-2.72 17.33-15.73 3.23-3.02.7-.71 2.02-1.81 1.01-1.01 11.59-9.88.61-.51 1.71-1.61 1.31-1.21 1.41-1.21-2.42-2.01-2.52-2.12-4.03-3.13-2.72-2.11-2.52-2.02-8.97-6.45-1.62-1.01-3.12-2.32-7.56-4.74-13.51-8.87-5.14-3.53-9.88-6.15-.9-5.24-.91-4.43-4.03-26.32 32.15-5.44.71 4.03.3 2.42.4 2.42 2.02 15.02.3 1.62.81 5.74.4 2.02.51 1.91.4.71 1.31 2.42 2.01 2.62.81.71 1.21.7 3.63 2.22 3.43 2.42 2.21 2.01 2.32 2.83 2.22 3.12 1.21 1.62 1.71 1.41 3.03 1.61 5.94 2.62 2.02 1.21 1.51 1.31 7.36 10.39.4.7 1.31-1.21 1.11-1.01 6.45-5.95 4.34-4.03 4.94-4.43 6.15-5.75 8.16-7.46 1.92-1.71 5.04-4.94.2 1 .4 3.03.6 4.64 2.42 17.24 4.84 32.76.41 2.92.3 1.62.2 1 .3 2.52.2 1.62.61 3.22.3 1.01.5 2.12.71 1.91.61 1.42.8 1.51.91 1.71 1.41 1.61 1.61 1.92.61.6 2.01 1.92 2.93 2.52 4.33 3.93h3.02l7.36-.3 8.77-2.02.2.81 7.36-3.33 5.34-2.42 4.14-1.91 4.53-1.92 4.64-1.91 4.23-1.82 2.93-1.31 5.24-1.61 4.94-2.42 7.66-3.83 5.64-2.82 2.62-1.31 2.62-1.31 2.32-1.11 2.62-1.42 1.92-.9 2.12-1.11 2.21-1.11 1.51-.91 1.72-.91 1.81-1.1 1.41-.91 1.41-1.01 1.21-.81.31-.2 1.51-1.11 1.71-1.21 1.01-.8 1.01-.81 1.41-1.11 2.92-2.62 3.33-3.43 1.41-1.41 9.58-8.67 23.99-21.27 1.51-1.31 1.81-1.61 10.49-9.28 6.95-6.05 6.75-6.05 6.25-5.44.51-.5 1.91-1.82 1.01-.91 3.63-3.73 1.01-1.21.6-.6.81-.91.7-.8.71-.91.7-.91.41-.6.5-.61.51-.7.4-.61.2-.3.71-1.11.8-1.21.91-1.51 2.52-4.24 2.62-4.84 3.73-8.97 1.61-4.23 8.07-23.09 3.63-9.78 1.51-4.53.6-1.82 1.41-4.03 1.31-3.13.71-1.81 2.72-6.25 1.31-2.82.81-1.72 2.11-3.93 1.62-3.02 1.71-2.93 2.82-4.73 2.93-4.64 3.02-4.44 3.13-4.43 3.22-4.34 3.43-4.13 3.53-4.14 3.62-3.93.41-.4 1.71-1.81 2.92-2.83 2.93-2.82 3.42-3.13 4.04-3.32 4.03-3.33 4.23-3.02 3.03-2.22 3.02-2.02 3.12-2.01 3.83-2.42 5.85-3.43 5.65-3.43 12.09-7.26 2.52-1.51 4.13-2.82 4.34-2.72 1.31-1.01 3.53-2.62 2.21-1.92 1.31-1.11 1.21 2.32 6.96 11.8 6.35 10.78 1.71 2.83 8.77 13.71 1.82 2.52 2.72 3.42 2.92 2.93 5.14 4.53 16.03 15.03 2.92 2.52 15.02 11.99 14.82 12.5 4.64 3.63 16.73 13.71.1.81.1.71 1.71 10.78 1.01 6.45.71.81.7 2.32.61 1.21 1.21 1.61 1.41 1.41 2.11 1.31.71.21.71.3 2.72.3.5.1 1.82.2h.9l1.11.1 1.61.21.71.2.81.1 1.21.4 1.1.4 1.11.71 1.21.81.91.6.4.4.61.51.6.5.61.41 1.61 2.01.91-2.01 1.41-2.83.2-.5 1.01-1.82 8.97 7.57 8.16 6.55 7.36 6.45 19.56 16.03 1.01.81 3.32 11.59.71 2.32 1.71 5.54h.81l6.04-.7 1.62-.31 2.92-.4 1.92-.3 2.01-.3 1.82-.31 2.62-.4 4.23-.7-2.52-1.72-1.31-1.71-3.12-14.72-3.43-11.09-2.22-14.22-.6-2.82 11.49-2.01-.51-2.52-.5-5.45 4.23-3.73v1.41l-1.31 5.25-.8 4.13.3 1.61.6 1.41.91 1.21 1.51 1.31 1.51.51 2.73 1.31 1.91.7 1.51.61h2.02l.6-.61.41-1 .3-1.82v-1.51l-.2-1.21-.3-.91-1.01-1.11-.51-1.21-.7-4.13.3-2.22.6-1.31 1.11-1.11.61-.3 1.01.1 3.83 1.71 1.51 1.11 2.01 1.62.71.1.81-.1.7-2.12-.1-1.41-.4-1.72-1.51-3.12-2.93-4.64-.7-1.31-.31-1.41.51-1.51 1.01-1.41 1.31-1.01 1.31-.61.3-.4.1-.71-.2-.6-.81-1.31-.1-.61v-.5l.3-.61.71-.7 1.61-.91.61-.5.4-.61.1-.8-.2-2.42-.81-2.93-.5-2.82-.1-1.11.1-.91.3-1.41.71-1.21 4.53-5.44.31-.5.1-.81-.61-1.82-.4-2.31.1-1.01.3-.71.51-.3.8-1.31.51-1.31.4-2.72.2-2.73v-1.81l-.4-4.34-.41-1.31-.4-.6-1.81-1.41-1.01-1.31-.61-.51-1-.3h-.81l-.6.2-.81.71-.81-.1-1.71-2.52-1.71-3.13-.61-1.01-.71-.8-2.01-.61-.71-.4-.4-.91-.71-2.32-.1-1.31.1-1.31.31-1.21.6-1.01 1.31-1.21.2-.7v-1.01l-.7-1.01-1.61-.5-1.31-.3-1.11-.51-.81-.7-1.81-1.72-2.52-2.92-1.62-2.72-.6-1.21-.3-1.11-.31-2.22.1-.91 2.52-8.26-.2-1.92.1-1.11.2-.4 1.11-.71h1.21l1.72.41 2.11 1.21.71.2.91.3 1.81 1.81 2.42 3.73 3.12 5.75 1.31 3.73 1.01 1.21 1.11.61 1.01.3 2.12-.3.9-.41 5.75-3.63 1.61-.6 4.03-1.11 2.22-.91 3.03-2.01 5.44-5.04 1.31-.91 4.64-.71 1.41-.1 3.52.91 1.31-.2.91-.2 1.01-.61 1.41-1.21 1.01-1.51 2.02-5.14.3-3.83.7-2.02 1.21-2.02.61-1.21.4-.6.81-.71 1.51-.5 8.77-1.92 1.21-.7.8-1.41.61-1.72.2-2.01-.7-6.05-.31-1.41-1.21-1.82-1.11-.8-.3-.71.1-.71.91-.1 12.8-3.83 1.51-1.11.51-.7 1.21-3.83 4.73-1.52 1.52-1.1.9-1.62.21-2.72.8-5.34.51-1.82.9-.6.91-.1 1.41.1 1.21.7 1.41 1.11 1.11 1.82 1.01 4.33 1.31 3.83 3.93 7.16 2.72 3.63 2.32 2.32 5.14 6.25 1.21 2.02 1.92 4.23.5 2.42.7 2.22.61.9.91.81 2.52.81.5.5.61.71.4 1.21 1.11 3.63 1.01 3.83 2.52 5.74 1.81 3.13 1.31 1.81 1.31.91 1.51.5 2.82-.2 5.25-.9 4.53-.51 8.97-1.31.61-.2-.3-2.12-3.43-20.36-4.64-27.32-.1-.51-2.42-15.62-1.91-11.49.7-.21 10.89-1.71 5.44-.6 5.65-.91 5.54-1.11 12.1-1.51 5.44-.81 1.51-.3 1.21-.1 9.78-1.62 6.85-1.21 12.1-1.91 4.13-.61 14.41-2.52.41 2.93.6.9 2.02 13.61.4 2.32 1.01 2.22.6 4.13 3.13 15.83 4.54 26.92-.71 2.12-.71 1.21-.6 1.1-.71 1.21-.7.81-1.41 1.21-1.92.81-7.66 1.21-6.45 1-.2 8.37.6 6.05 1.72 12.4.8 6.35 14.72-1.51 2.22-.2h.7l2.32.1 3.53 38.01 1.41 8.56.2 5.45 3.93 11.29 4.34 13.41 6.05 32.26-1.82.2-12.09 1.81-14.72 2.32-10.89 1.72-7.15 1-1.52.31-1.51.2-8.06 1.31-1.01.2-6.95 1.11-9.58 1.51-7.56 1.01h-.2l-1.82.3-9.37 1.41-.71.1 3.13 20.37 12.3 81.56 1 6.85-.7.1-10.89 1.51-10.78 1.82-8.17 1.31-44.35 6.55-9.78 1.51-14.21 1.92-7.36 1.01-3.83.7-2.01.31-7.36 1.21-14.11 2.01-10.18 1.82-3.33.4-47.48 6.96-5.14.9-5.74 1.01-1.21.2-1.31.2-22.18 3.53-25.2 3.93-9.77 1.52-5.65.8-7.06 1.11-3.52.51-1.52.3-1.81.2-1.31.3-4.33.81-15.02 2.42-7.26 1.11-25.81 4.03-9.57 1.41-2.02.2-13.3 2.12-2.02.3-3.83.71-3.32 1.11-4.84 2.01-2.12.61-3.83.7-4.23.51 3.63 27.42 1.41 9.17 4.33 29.24 1.81 12.1 4.14 30.04.1.7.1.61.7 6.15.61 4.74 1.41 10.78 1.01 6.25.6 4.64 1.31 10.69 1.21 10.48.91 5.95.71 4.74 1.41 10.58.5 3.03.51 3.22.6 4.64.6 5.14.91 5.75 1.31 10.48 6.15 40.33 5.44 37.8 4.74 30.85 3.53-.5 6.35-.81 2.32-.4 10.28-1.72 7.06-.9 6.14-.91 12-1.92 11.09-1.71 4.13-.71 1.31-.1 19.45-3.12 2.32-.51 9.38-1.31 3.52-.7 5.35-.81 11.29-1.61 7.86-1.21 15.12-2.42 16.93-2.52 1.31 7.86.51 2.42 1.31 7.76.6 4.24.3 3.12-.1 3.23-.2 2.32-.8 6.35.1 1.71.2 1.52.8 2.52-4.93 2.92-.91.81-.91 1.41-.5 1.41-.2 1.51.1 1.41.4 2.22.5 1.41.51 1.11.8.91 2.52 2.22 4.74 3.73-1.71 2.92-.71 1.61-.2 1.41-.1 1.62.4 1.91.31 1.51v.81l-.21 1.11-1 4.44-.11 1.51-.1 1.81.21 2.02 1.31 8.27.3 1.31.4.9.81 1.21.7.61 1.21.4 1.21-.1 1.82-.4-2.12 11.89-2.72 4.34-4.13 6.65-8.17 11.29-12.8 9.58-10.68 17.14 2.01 11.39 3.73 21.27 1.41 7.66 3.83 22.08 1.92 11.09.7 4.64.2 1.31.31 2.32.2 1.31.3 1.51-3.93.5-2.32.31-2.22.3-4.63.6-14.42 2.02-2.01.3-11.39 1.41-5.85.71-4.13.3-4.24.51-1.21.2-.9-.51-.3.1-14.62 1.82-15.02 1.71-5.24.51-3.63.3-3.43.2-5.84.3 1.81 11.39 1.41 9.08 1.92 11.69.3 1.92 1.41 9.07 2.52 15.93.61 4.43 2.11 13.82 9.68 64.31 9.68 60.09 2.42 16.94.8 5.14.81 5.44.8 4.94.81 5.65.61 4.03.9 5.04.61 4.13-1.11.3-.81.11-.5-.11-.51-.2-.4-.4-.4-.4-1.72-2.52-5.54-8.47-2.92-4.44-1.62-2.01-2.41-3.03-2.02-2.12-2.12-1.61-2.52-1.81-1.81-1.01-2.62-1.01-3.63-.81-1.71-.2h-2.32l-4.03.2-7.36 1.11-5.95.71-8.57 1.21 3.03 18.75 2.72 18.15 3.53 21.57 4.23 27.02 1.61 10.58.2 1.62v.7l-.2.61-.5.4-1.01.4-19.76 2.73-4.73.8-.51.2-.3.2-.2.41-.1.4-.1.51.1.8 1.21 8.67 2.01 13.21-19.45 6.65-.61 15.02-8.06.61-79.23 6.25 6.76 44.25 8.26 38.72-33.77 5.34-5.94.91-9.78 1.41-28.02 4.64-16.43 2.31-.71.11-8.77 1.21-15.22 2.31-7.76 1.11-5.24.91-9.27 1.21-7.66 1.41-2.73.51-8.36 1.41z" stroke-linejoin="round"/></defs><use xlink:href="#g" fill="#09757a" stroke="#097d9b" stroke-width="5.76"/><defs><path id="h" d="M2208.69 2642.8l-.71-3.93-.71-4.03-.8-5.45-.71-7.46-.2-4.13-.2-3.23-2.42-2.82-3.83-4.13-24.49-27.32-16.33-18.15-14.82-16.84-12.7-14.01-6.05-6.65-12.3-12.91-4.03-4.63-13.4-14.62-2.63-2.82-6.75-7.06-9.47-9.78-9.28-9.78-11.29-11.69-8.46-8.87-12.91-13.41 1.42-.1 42.03-6.96 16.93-2.52 19.05-3.13 29.64-4.73 36.79-5.55h.5l1.51-.2 20.16-3.23 17.34-2.42 8.87-1.31 1.31-.3 9.28-1.21 28.22-4.23 6.55-1.01 4.34-.5 31.04-4.84 2.22-.31 9.07-1.31 12.3-1.81 26.91-4.13 12.1-2.02-.21 3.63-.9 11.89-.3 4.64-.11 2.72v6.86l.21 1.91.4 4.14.5 3.93 1.01 7.16 1.51 11.49 2.52 16.23-15.22 1.61-1.31 1.01-3.83 12.91-2.62 6.95-2.22 8.17-1.41-10.39-32.66 9.68-11.39 9.08-19.25 16.53-15.92 13.61 17.33 40.63 3.13 7.56 8.57 20.56 16.02 37.4-1.81.31-19.05 3.02-17.04 2.32-10.68 1.71-14.01 1.82-10.18 1.51-1.21.2-2.52.4-8.37 1.01-.71.1-1.1.1-4.24.71-3.53.5-12.49 1.92z" stroke-linejoin="round"/></defs><use xlink:href="#h" fill="#09757a" stroke="#097d9b" stroke-width="5.76"/><defs><path id="i" d="M1745.82 1753.73l-1.61-1.71-1.01-1.11-2.22-2.42-4.33-4.94-2.72-2.92-2.12-2.32-1.61-1.61-3.03-3.33-4.03-4.44-.6-.6-2.93-3.73-9.77-13.31-7.16-9.68-6.15-8.46-15.42-21.28-9.68-12.9-9.57-13-1.52-2.02-1.31-1.11-1.61-1.01-1.61-.9-2.62-1.01-1.72-.71-3.93-1.81 3.53-3.33 3.13-2.62 4.03-3.83 6.45-25.21-1.92-2.72-1.51-2.22-.7-1.71-1.21-2.92-1.62-3.83-2.42-6.25-.9-2.12-.61-1.11-.6-1.11-2.82-3.93-7.67-10.89-9.37-12.5 8.06-7.16 1.72-1.11-9.48-13.1-1.91-2.52-1.62-13.21 5.65-2.62 5.85-2.72 7.46-3.13 2.21-.8 2.32-.61.91 6.86 1.11 8.37 1 7.46 1.32 9.37 1.71.4 1.31.61 1.71 1.21 1.31.91 1.92 2.11 1.21.71.4.6 1.51 2.32 1.01 1.92.71 1.41 1.11 2.62 2.72 6.35.2.51 2.12 3.32 2.92 4.74 3.93 4.54 4.43 6.05 3.13 4.23 1.91 2.52 5.15 7.66 11.39-10.08 2.41-1.41 1.62-.71 1.91-1.11 1.31-1.1 5.55-5.04 5.04-4.94 4.53-4.04.61-.8.7-.91 2.22-3.63 2.12-2.42 1.41-1.41 1.41-1.41.3 3.53.51 3.83.8 4.13 2.02 7.16-1.92 1.51-5.84 5.44-5.85 5.65 9.27 13 9.38 12.91 9.57 13 2.42 3.53 3.53 4.94 9.68 13.11 6.95-7.16 1.21-1.11 1.31-1.21 1.92-1.81 4.13 6.75 8.67 13.71 2.22 3.53 3.63 5.75 1.91 3.02 1.11 1.81.81 1.52 1.51 2.82 1.21 2.22 1.01 1.91 1 2.22 1.92 4.13.3.91.4.91.31.91.3.6.2.51-.81.3-.5.3-1.21.6-3.02 1.52-3.33 1.81-3.53 2.12-2.42 1.51-1.41 1.01-1.81 1.21-1.51 1.11-2.12 1.51-1.21 1.01-1.31 1.11-2.12 1.81-2.11 1.92-.71.7-.71.61-.8.8-.91 1.01-1.01 1.01-1.11 1.31-2.31 2.52-1.31 1.61-.71.91-.3.4-2.02 2.32-1.71 2.12-3.53 4.13-3.02 3.63-3.33 3.93-1.61 1.82-2.52 3.02-2.62 2.93-3.83 4.74-7.26 8.67-.91 1.1z" stroke-linejoin="round"/></defs><use xlink:href="#i" fill="#004249" stroke="#00465f" stroke-width="5.76"/></svg>