<svg width="6.79in" height="384" viewBox="0 0 4889 2880" xmlns="http://www.w3.org/2000/svg" xmlns:xlink="http://www.w3.org/1999/xlink"><path fill="#fff" d="M0 0h4889v2880H0z"/><defs><path id="a" d="M2549.92 2107.63l-3.36-.15-4.28-.77-4.28-3.66-6.41-8.25-2.14-4.89-.16-4.43-.15-4.74-1.68-3.82-3.97-2.14-5.65-5.04-10.39-9.78-5.35-4.89-4.89-3.97-4.43-3.82-3.52-3.98-1.37-3.66-2.29-2.29-11.46-9.02-7.03-4.13-5.5-3.05-6.26-1.53-5.2.92-.91 2.9-1.84 2.9-1.98 1.07-6.27 1.07-2.29-5.5-2.75-2.9-4.74-1.38-51.79-6.87-11.3-1.22-18.64.91-16.2 1.99-14.67 10.08-11.3 7.8-2.9-1.38-1.99-.3-9.01 1.07h-3.37l-7.33-1.69-4.43-1.07-4.58-.61h-5.81l-5.04.46-8.25 2.75-9.63 3.06-13.29 4.58-17.11 7.18-8.1 2.6-16.34 3.67-39.12-.46-1.37.3-3.52 1.23-3.2 2.14-3.21 2.59-3.06 3.82-44.15 59.29.61 4.43.31 2.75-.16 1.22-.46 1.07-9.32 12.07-.91 1.07-.92 1.53-.92 1.68-1.22 1.68-1.98 1.53.61-12.07.3-3.36.16-2.6.91-10.54.92-1.38v-4.12l.46-9.02.15-3.36.31-6.11-1.99 4.12-4.89 16.96 1.99.31-2.75 2.75-18.8 20.01 1.07.46-4.43 1.53 18.18-19.25.16-.46-2.91 1.38-.91.61-1.22 1.07-5.96 5.5-4.28 4.43-1.07.76-1.07.61-1.22.31-1.22.15-1.23-.15-1.37-.31-.77-.46-.3-.15-1.07-.91-.92-1.07-.46-.62-.61-1.37 7.03-3.21 1.83-1.07 2.3-1.22 1.98-1.53 1.84-1.53 1.52-1.52 1.38-1.84 1.22-1.98.61-1.53 2.45-4.74 1.68-3.21.76-1.53 1.07-1.52 1.07-1.38 1.22-1.37.77-.77-.92-1.53-1.07-1.68-14.36-23.53 5.35-3.97 11.91-8.56 6.42-5.04.92-.61.76-.3.92-.16h1.37l1.53-52.41 1.07-34.68 1.22-41.41.31-9.93.76-25.21-.92.31-1.22.76-.91.76-32.09 25.52-8.25 7.03-3.36 2.29-1.68.31-.92-.16-.76-.61-2.75-3.82-11-16.96-10.39-17.72-4.89-7.79-5.96-9.48-5.19-8.86-5.5-8.86-5.66-10.09-9.01-15.89-1.53-2.9-5.8-9.62-15.59-25.06-9.78-16.05-10.84-17.26-5.2-8.25-1.53-2.29-1.98-2.91-1.07-1.07-2.9 31.17-4.59 44.77-3.36 33.62-.46 4.12-74.86 60.05-5.04 15.13-.31-29.8-3.97.76-3.82.62h-.61l-.31-.16-.15-.15-.3-.15-.31-.46-3.36-5.65-5.35-9.48-.46-.76-.3-.31-.15-.3-.46-.31-.61-.46-.61-.45-1.38-.62-6.42-3.51-1.83-.92-1.07-.46-1.22-.45-1.68-.62-2.6-.76-1.99-.61-1.52-.61-2.3-.92-8.55-3.67-9.63-4.27-12.52-5.66-6.42-3.21-.92-.45-.76-.46-1.84-.92-3.2-1.53-2.91-1.37-12.52-4.89-13.75-5.65-10.85-4.89-3.36-1.07-4.13-.61-7.94-1.07-11.31-.16h-7.79l-4.43 3.21-2.6.15-1.07-.15-4.43-.3-4.74-2.75-.45-.31-3.52-2.14 10.7-.92 1.98-.45 3.36-1.68 3.98-2.45 30.71-7.49 20.01-5.8.46-.16 4.12-1.83 12.38-2.9 5.04-.77 6.11.16 6.11.3 4.13-.46 5.04-2.44 16.81-8.86 17.57-9.63 9.77-4.58 7.64-3.67 11-6.42 7.34-5.34 12.22-7.49 4.89-2.9 18.33-11.01 1.84-1.22 2.59-1.68 1.22-1.37.92-1.38 1.99-2.44 4.43-3.52 6.11-3.66 4.58-2.76.92-.91.31-1.07-.46-2.6-.46-.92-1.22-.91-3.36-.92-5.66-.46-3.66.77-6.88 2.29-1.68.61-.61.3-.77.31-1.22-.31-.46-.91-.15-.92.46-1.37.31-.46.61-.77 10.23-9.01 15.59-12.84 10.54-7.79 7.33-5.8 3.82-2.91 3.52-2.14 4.88-1.68 6.88-2.75 3.21-1.53 3.82-2.59 3.97-4.13 3.67-4.73 5.04-9.33 6.87-12.07 2.6-5.5 5.35-9.32 3.66-7.18 1.38-1.68 3.06-4.12 3.66-5.81 3.36-3.97 3.21-3.82 4.89-6.27 10.08-11.92 4.43-4.58.77-.92 1.07-1.22 1.53-1.68 2.14-1.99 1.52-1.37 2.6-2.29 1.83-1.99 2.91-2.6 1.98-1.98 3.21-2.29 3.36-1.99 1.99-1.22.76-.46 1.22-1.22.46-.77.46-.76.46-.77.76-1.06.61-.62 1.07-.76.62-.61-11.46-19.25-1.84-7.49.46-.15 6.11-2.75 2.91-.61 1.83-.77 4.28-3.05 2.29-2.75 7.64-5.81 4.28-2.29 2.59-1.68 1.84-.61.61-.46.76-.31 1.38-.92 1.37-.91 1.83-2.45 1.23-.3 2.9-2.91.61-1.83 1.38-1.22 1.68-2.9.45-.46 1.07-.46 2.14-2.14 1.53-2.29.15-.61-.3-1.23-.31-.45h-.3l-.61 1.07-.77.45-.46.16-.61-.31-.15-.46.31-3.21.45-.91 3.36-9.48 1.38-4.58-.15-.92 48.28-17.41 14.2-6.12-7.63 1.38-1.23.46-.61.3h-.91l-.31-.46.15-.45.61-.62 1.53-1.68.46-.91.76-1.07.92-.46.61-.76.77-.77.91-.92.46-.45 1.07-.77 1.68-1.07 3.51-2.44 2.91-1.68 1.98-.31 1.23.15.45-.15.46-.15h.31l.61.46h.92l.61-.16.76-.3.46-.15.15-.16.31-.3.46-.61.76-.61.76-.77.77-.46.3-.15.31.15.15.31.15.46-.15.46-.15.3-.31.31-.15.3-.46.46-.3.15-.16.31.16.3.15.16.46.15h.3l.61-.15h1.07l.31.15.76.31.46-.16.61-.15.46-.46.61-.61.46-.3 1.07-.92 1.53-.92 1.98-.46 1.99-.46 1.53-.76 1.22-.61 1.53-.76 2.44-1.23 1.84-.76 2.14-.92 5.34-3.05 1.38-.31 3.05.92.92 1.07 9.47-5.81 33.16-6.72-1.99-15.74h1.37l.62.15.45.16.62.3h.61l.91-.15h.61l.62-.15.45-.16.77-.3.3-.15.46-.16.46-.46.46-.15h.61l.61-.15 2.14-.61 1.83-.61 1.22-.31 1.38-.15.92-.31h.61l1.07-.15.46-.15.76-.31.92-.3 4.58-.77 4.89-.92 2.75-.76 2.44-.61 7.8-1.68h1.68l.45.15.77.15.61.16h.61l.61.15 1.53.15 1.37-.3.92-.46 1.07-.31.76-.61.31-.46.31-.61 2.75-1.53 7.33-1.52.46-.46 10.39-1.84 8.4-3.05 3.51-1.99 1.38-.15 1.53.15h.76l1.83-.15 2.3-.92.91-.15h1.68l7.64-.76 1.99.15 1.07-.15 12.07-1.99 3.82-1.22 1.83-.31h.61l2.14-.15 4.74.61h3.82l5.04.61 2.29.15 3.21-.3.76-.46 2.14-.31 3.97-.15 6.11 1.22 1.07.16 2.29-.16.62.31 2.44.92 2.29.15 1.84-.46 2.44.61 5.96.77 3.36.61.92.46 3.36.3 5.8.77 2.91.76 1.22.46 3.21-.46 1.22.3 2.9 1.53 14.21 3.82 5.35 1.07 5.96 3.21 4.27 3.36 1.53 1.68 1.07 2.14 1.38 3.21.91.92 1.53 1.37 2.6 2.75 6.11 7.64 2.6 3.98 2.14 3.66 6.72 12.68.61 1.68 2.6 6.12 4.43 11.91.61 1.69 1.22 1.83.92 1.37 4.73 9.32 2.14 5.81 2.75 5.5 1.22 1.99 3.21 4.12 4.59 5.66 4.43 5.5 5.5 7.48 1.07 1.23 3.66 1.98 6.42 4.28 6.88 5.5.76.31 1.83.91 1.07.92 1.22 1.53 2.6 4.12 7.03 12.07 5.04 8.87 2.14 3.66 1.53 4.13.76 1.37 1.22 1.38 1.07.92 1.84 2.13 2.59 3.82.77 1.84 1.07 1.22 2.75 5.2.91 1.06 2.91 2.45 2.9 3.82 4.28 6.72.46.92 2.29 3.82 1.37 1.83.46 1.07.92 2.75 1.07 2.29 2.44 2.75 1.22 1.99.92 2.6 1.99 3.67 2.44 4.43 1.22 2.59.46 1.84 1.07 5.96 1.07 3.97.46 3.51.15 5.66-.46 2.44.77 10.24-.31 3.05.46 2.75v2.14l.31 1.99.91 1.83.77 2.6.61 2.14.46 1.22 1.07 3.82 2.29 13.14.61 2.91 1.07 6.87 1.68 7.03 1.68 9.63 1.22 4.43 1.99 9.62 1.83 7.64 5.65 14.52 1.99 3.82 9.47 15.28.92.91 1.99 1.53 5.04 1.99 2.44 1.68 3.52 3.21-4.28 5.34 10.69 17.42 21.85 35.45 44.31 75.48 2.14 7.49 2.75 13.44 3.05 7.03 5.65 5.81 5.5 3.67 4.89.91 7.8-3.51 4.73.46 2.45 7.18-.77.91-1.22 2.6-.61 3.82.3 3.82.92 6.88v3.51l-.46 3.06-1.37 5.04-.61 1.37-.61 2.75-.62 2.14-.61 2.75-2.14 8.1-1.37 2.6-1.83 2.29-8.25 6.72-4.13 2.45-3.97 1.37-4.89 1.07-4.43.31-4.28-1.07-5.96-3.21-2.59-1.83-1.99-.61-3.51 1.22-1.69-.15-1.68-1.38-1.68-2.75-1.07-2.14-4.12-9.32-2.6-4.58-4.73-5.5-2.91-2.14-4.89-2.91-5.04-1.37-2.75.46-4.43 1.68-10.08 4.89-4.13 3.51-2.75 4.28-1.37 5.2-1.07 6.11-.16 5.8.16 8.1-.46 1.99-.31 3.51v5.5l-.3 1.68-1.22 1.99-1.23 1.07-1.22.46-.61.3-.92.31h-2.44l-2.45-.61-6.11-3.21-1.68-.77-5.8-3.81-8.86-5.96-1.84-1.84-2.59-3.21-1.84-3.36-1.98-5.5-.46-2.29-.16-5.5-.15-2.6-1.53-6.87-1.07-2.75-5.5-9.48-4.73-9.93-2.75-4.89-3.67-4.73-7.48-8.56-2.6-1.53-2.75-1.22-2.29-.77-1.23-.76-1.68-2.14-2.75-4.43-4.43-7.94-1.22-1.38-1.99 1.99-3.51 3.51-3.21 2.45-15.89 11.61-.46.3-1.07.77 1.07 1.83 11.16 19.86 5.8 10.09.46.76 1.99 3.36 1.37 2.3 2.14 3.2 1.38 2.14 7.48 11.77 16.96 25.97 4.13 6.11 3.82 5.96 3.97 5.5 3.82 5.05 3.82 4.73 2.59 3.06-4.43 3.21 3.52 15.58-18.34 20.32-.45-6.72-3.06-4.58-2.29-1.22-3.67-.31-2.9.61-5.04 1.07-3.67 1.53-2.44 2.29-9.32 6.88-12.53 12.52-3.67 4.13-1.22 3.82z" stroke-linejoin="round"/></defs><use xlink:href="#a" fill="#9dc8ca" stroke="#6bb4d2" stroke-width="5.76"/><defs><path id="b" d="M4828.19 2661.2l-81.58 16.04-5.2.92-8.71 1.83-56.22 10.7-45.07 8.56-84.64 16.04-152.63 29.64-158.13 30.41-203.35 39.57-190.52 36.98-29.18-108.03-45.99-169.6-6.41-.3-17.42-1.07-17.57-1.23-9.32-.3h-3.51l-4.74.15-5.19.46-6.27.92-12.22 1.83-14.67 2.6-14.51 2.44-14.67 2.6-8.25 1.53-5.04 1.07-3.06.76-7.18 1.68-7.18 1.53-12.07 1.99-12.07 1.98-12.07 1.99-12.22 1.98-6.11.77-21.39 2.44-9.32 1.23-9.32 1.52-6.57 1.23-3.05.76-2.14.61-4.89 1.68-4.89 1.83-4.74 1.99-4.73 2.14-9.78 4.28-1.99.92-2.9 1.22-3.06 1.37-2.9 1.07-2.6.77-2.44.61-2.6.3-2.6.16h-1.22l-5.04-.16-20.01-1.22-5.5-.31-13.45-.91-13.6-.92-3.51-.61-2.6-.76-.76-.16-2.6-.76-.92-.31-3.36-1.22-3.36-1.53-3.21-1.52-1.98-1.07-1.07-.77-4.89-3.21-14.67-10.84-13.29-9.17-13.44-8.86-13.45-9.17-12.99-8.56-4.58-2.9-4.58-2.6-16.81-9.17-8.25-4.43-4.12-2.29-3.06-2.14-2.9-1.98-2.91-2.3-2.75-2.44-2.44-2.6-2.44-2.75-1.07-1.37-1.23-1.53-2.13-3.06-1.99-3.05-1.68-3.37-1.83-3.82-1.69-4.43-1.83-5.19-13.75-10.24-19.25-14.06-2.9-1.98-13.6-10.09-39.72-29.18-46.14-33.92-8.1-5.81-17.11-12.37-35.91-26.59-31.77-23.22-62.49-45.99-25.21-18.49-17.26-12.22-119.02-80.83-63.86-43.55-46.91-31.63-8.86-6.11-2.75-1.68-36.97-25.06-3.52-15.58 4.43-3.21-2.59-3.06-3.82-4.73-3.82-5.05-3.97-5.5-3.82-5.96-4.13-6.11-16.96-25.97-7.48-11.77-1.38-2.14-2.14-3.2-1.37-2.3-1.99-3.36-.46-.76-5.8-10.09-11.16-19.86-1.07-1.83 1.07-.77.46-.3 15.89-11.61 3.21-2.45 3.51-3.51 1.99-1.99 1.22 1.38 4.43 7.94 2.75 4.43 1.68 2.14 1.23.76 2.29.77 2.75 1.22 2.6 1.53 7.48 8.56 3.67 4.73 2.75 4.89 4.73 9.93 5.5 9.48 1.07 2.75 1.53 6.87.15 2.6.16 5.5.46 2.29 1.98 5.5 1.84 3.36 2.59 3.21 1.84 1.84 8.86 5.96 5.8 3.81 1.68.77 6.11 3.21 2.45.61h2.44l.92-.31.61-.3 1.22-.46 1.23-1.07 1.22-1.99.3-1.68v-5.5l.31-3.51.46-1.99-.16-8.1.16-5.8 1.07-6.11 1.37-5.2 2.75-4.28 4.13-3.51 10.08-4.89 4.43-1.68 2.75-.46 5.04 1.37 4.89 2.91 2.91 2.14 4.73 5.5 2.6 4.58 4.12 9.32 1.07 2.14 1.68 2.75 1.68 1.38 1.69.15 3.51-1.22 1.99.61 2.59 1.83 5.96 3.21 4.28 1.07 4.43-.31 4.89-1.07 3.97-1.37 4.13-2.45 8.25-6.72 1.83-2.29 1.37-2.6 2.14-8.1.61-2.75.62-2.14.61-2.75.61-1.37 1.37-5.04.46-3.06v-3.51l-.92-6.88-.3-3.82.61-3.82 1.22-2.6.77-.91-2.45-7.18-4.73-.46-7.8 3.51-4.89-.91-5.5-3.67-5.65-5.81-3.05-7.03-2.75-13.44-2.14-7.49-44.31-75.48-21.85-35.45-10.69-17.42 4.28-5.34-3.52-3.21-2.44-1.68-5.04-1.99-1.99-1.53-.92-.91-9.47-15.28-1.99-3.82-5.65-14.52-1.83-7.64-1.99-9.62-1.22-4.43-1.68-9.63-1.68-7.03-1.07-6.87-.61-2.91-2.29-13.14-1.07-3.82-.46-1.22-.61-2.14-.77-2.6-.91-1.83-.31-1.99v-2.14l-.46-2.75.31-3.05-.77-10.24.46-2.44-.15-5.66-.46-3.51-1.07-3.97-1.07-5.96-.46-1.84-1.22-2.59-2.44-4.43-1.99-3.67-.92-2.6-1.22-1.99-2.44-2.75-1.07-2.29-.92-2.75-.46-1.07-1.37-1.83-2.29-3.82-.46-.92-4.28-6.72-2.9-3.82-2.91-2.45-.91-1.06-2.75-5.2-1.07-1.22-.77-1.84-2.59-3.82-1.84-2.13-1.07-.92-1.22-1.38-.76-1.37-1.53-4.13-2.14-3.66-5.04-8.87-7.03-12.07-2.6-4.12-1.22-1.53-1.07-.92-1.83-.91-.76-.31-6.88-5.5-6.42-4.28-3.66-1.98-1.07-1.23-5.5-7.48-4.43-5.5-4.59-5.66-3.21-4.12-1.22-1.99-2.75-5.5-2.14-5.81-4.73-9.32-.92-1.37-1.22-1.83-.61-1.69-4.43-11.91-2.6-6.12-.61-1.68-6.72-12.68-2.14-3.66-2.6-3.98-6.11-7.64-2.6-2.75-1.53-1.37-.91-.92-1.38-3.21-1.07-2.14-1.53-1.68-4.27-3.36-5.96-3.21-5.35-1.07-14.21-3.82-2.9-1.53-1.22-.3-3.21.46-1.22-.46-2.91-.76-5.8-.77-3.36-.3-.92-.46-3.36-.61-5.96-.77-2.44-.61-1.84.46-2.29-.15-2.44-.92-.62-.31-2.29.16-1.07-.16-6.11-1.22-3.97.15-2.14.31-.76.46-3.21.3-2.29-.15-5.04-.61h-3.82l-4.74-.61-2.14.15h-.61l-1.83.31-3.82 1.22-12.07 1.99-1.07.15-1.99-.15-7.64.76h-1.68l-.91.15-2.3.92-1.83.15h-.76l-1.53-.15-1.38.15-3.51 1.99-8.4 3.05-10.39 1.84-.46.46-7.33 1.52-2.75 1.53-.31.61-.31.46-.76.61-1.07.31-.92.46-1.37.3-1.53-.15-.61-.15h-.61l-.61-.16-.77-.15-.45-.15h-1.68l-7.8 1.68-2.44.61-2.75.76-4.89.92-4.58.77-.92.3-.76.31-.46.15-1.07.15h-.61l-.92.31-1.38.15-1.22.31-1.83.61-2.14.61-.61.15h-.61l-.46.15-.46.46-.46.16-.3.15-.77.3-.45.16-.62.15h-.61l-.91.15h-.61l-.62-.3-.45-.16-.62-.15h-1.37l1.99 15.74-33.16 6.72-9.47 5.81-.92-1.07-3.05-.92-1.38.31-5.34 3.05-2.14.92-1.84.76-2.44 1.23-1.53.76-1.22.61-1.53.76-1.99.46-1.98.46-1.53.92-1.07.92-.46.3-.61.61-.46.46-.61.15-.46.16-.76-.31-.31-.15h-1.07l-.61.15h-.3l-.46-.15-.15-.16-.16-.3.16-.31.3-.15.46-.46.15-.3.31-.31.15-.3.15-.46-.15-.46-.15-.31-.31-.15-.3.15-.77.46-.76.77-.76.61-.46.61-.31.3-.15.16-.46.15-.76.3-.61.16h-.92l-.61-.46h-.31l-.46.15-.45.15-1.23-.15-1.98.31-2.91 1.68-3.51 2.44-1.68 1.07-1.07.77-.46.45-.91.92-.77.77-.61.76-.92.46-.76 1.07-.46.91-1.53 1.68-.61.62-.15.45.31.46h.91l.61-.3 1.23-.46 7.63-1.38-14.2 6.12-48.28 17.41-.16-.76-8.09-8.1v-2.29l-1.99-3.51-.61-1.07-10.85-18.03-6.11-10.24-3.21-5.5-2.14 1.53-5.5 3.82-6.72 4.73-10.24 7.34-2.13 1.53-20.02 14.51-4.28 3.06-.3.76-3.06 2.29-10.39 7.79-.3-.61-9.78-15.89-27.96 20.17-9.47-15.28-12.99-21.69-1.07-1.84-2.14-3.82-8.7-14.51-15.74 11.15-10.7 7.34-3.36-5.66-4.12-7.64-5.5-8.71-.61-.61-.61-.46-.62-.15h-.76l-.92.31-.91.3-1.07.31-4.74 1.53-1.22.45-.77.31h-.45l-.77.15-2.75-4.73-4.73-7.95-10.09-16.81 3.36-2.44 17.27-12.23-10.39-17.11-3.97-6.57-8.1-13.6-2.29-3.97-2.14 1.68-3.06 2.14-2.9 2.14-4.12 2.9-6.42 4.74-1.83 1.53-2.14-3.52-34.69-57.91-2.44-4.12 3.21-2.45 4.12-3.05 4.74-3.21 1.99-1.38 9.77-6.72 12.38-8.55-9.17-14.98 17.73-12.83 9.01-6.42-4.43-7.18-4.74-7.95-10.39-16.96 6.73-5.04 1.37-.92 5.5-3.82 4.89-3.36-15.74-25.67-2.29-3.82-27.65-2.14 2.29 3.82 7.49 12.38 10.23 16.81-4.28 3.36-4.12-1.38-12.07-4.12-26.43-8.71-6.42-1.99-19.86-6.57-3.21-1.07-3.21-.91-5.04-1.68-6.57-2.3-11.3-3.66-2.91-.92.31-1.37.46-3.06 4.73-26.89 2.91-16.2.15-1.37 1.37-6.42 1.53-7.34.61-3.05 3.36-14.97 4.13-19.71 5.65-24.6 1.38-5.96 1.37-5.81 1.07-3.51 2.75-8.41 1.22-3.36 8.41-22.77 6.26-16.5.31-.61.3-.46.16-.3.61-2.91-6.42-20.01-3.82-11-1.99-5.96-1.22-3.82-1.83-5.96-2.14-7.33-.31-1.68-2.44-9.02-1.68-7.33 22.61-16.35 6.57-4.89 6.26-4.43 8.56-6.27 3.67-3.21.45-.45 1.84-2.45 2.14-1.68 6.11-4.43.76-.46.61-.46 7.95-5.8 2.29-1.68 27.81-20.17 3.2-2.3 7.34-5.34.91-.77 1.23-.76.61-.61 1.07-.61 1.98-1.38.46.92 3.21 5.8.46.92 2.6.46 3.2 1.22 2.45 1.53 1.98 1.53 2.6 2.75 2.9 3.82 2.3 4.73 1.68 3.82 1.37 4.28 5.35 13.91 2.9 7.18 20.63 52.1 2.44-.92 4.13-3.82 5.34-5.19 7.49-8.1 7.33-6.72 6.27-4.89 9.17-7.49.45-1.22.31-2.9.61-1.23 4.28-4.89 1.53-1.22 1.07-1.07 1.37-1.83 7.18-11 6.57-10.39.77-1.07 1.06-1.22 1.07-.92 5.05-4.13-9.78-27.8-2.14-6.12-11.15-32.24-3.82-10.54-7.8-21.69 1.07-.31 2.3-.76 1.83-.77 1.37-.76 1.07-.77.77-1.07.61-1.07.3-1.22.31-1.22v-2.29l-6.11-11.77 20.62-5.04 43.85-10.69 28.11-7.19 3.21-.61 96.41-24.6 30.86-7.79 92.74-23.53 152.17-38.5 52.55-12.99 106.49-27.5.61-6.42 1.84-7.79 2.9-10.39 2.9-11.16.77-5.8.46-7.34 1.22-57.75-1.07-9.02-1.53-6.87-5.19-21.39-.31-2.3-.31-3.66-.15-3.06.77-4.28.45-2.29 1.99-5.81 2.6-6.26 2.44-4.28 3.36-5.04 9.63-10.24 8.4-8.4 8.25-8.86 3.67-4.59 4.12-5.5 3.98-6.26 4.27-8.41 5.81-13.9 4.89-14.36 7.03-22 2.75-10.39-8.87.61-9.77.76-20.32 2.6-7.18.3-11.16-.46-28.26-1.98-11-.15-14.21-1.23-2.14-.15-12.07-.3-2.29-.46-2.29-.61-27.04-7.19 27.19-9.62 68.14-141.49.31-1.53.61-1.98.61-1.07 2.44-1.38 17.73-4.43 17.41-3.67 8.56-1.98 4.58-1.38 2.9-1.22 6.42-3.97.77-.31 1.83-.3 1.07.3 1.07 1.07 3.82 6.27 1.07-1.38 2.14-1.83 1.52-.77 1.84-.61 10.69-2.59 11.77-2.6 10.84-2.9 15.74-3.37 6.42-1.52 2.59-.92 2.3-1.38 2.59-2.44 1.23-1.53 1.06-1.83 1.23-4.28.91-3.97 1.38 1.37.76 1.84.61 3.66.31 5.66-.46 9.62-1.07 10.09-.15 5.34.15 16.05-.46 4.12-1.07 3.82-6.87 16.81-1.07 4.43-.77 4.58 4.13-.76 6.88-1.53 24.75-5.5 41.25-10.08 44.46-9.78 3.2-.31 1.84.46 1.53 1.07.91 1.22.92 2.14 1.83 7.03.61 1.99 1.38 2.9 1.83 2.6.46.3.92 1.07 1.07.61 1.07.62 2.29.45 1.22.16 3.97-.46 5.81-1.07 11.91-2.6 6.57-1.07 1.84.31 2.14 1.22 2.44 2.29 6.27 7.49 2.59 3.82 1.84 4.12 9.93 26.44 4.12 11.91.92 1.84 2.44 4.58 2.75 4.59 24.6 39.42 7.64 11.76 8.1 11.16 2.75 4.27 2.14 4.13 1.37 3.82 3.82 16.5 4.28 15.43 2.9 13.45 4.43 18.33 4.89 18.49 5.65 23.38 1.07 3.82.61 1.53 1.53 2.75 31.63 41.86 5.65 7.49 1.38 1.83 3.36 5.66 3.51 6.72 1.22 3.36 1.38 4.58 1.22 5.96 1.38 11.31 1.98 8.1 2.29 7.64 3.67 11.15 4.28 14.36 3.51 13.6 4.89 18.64 2.14 9.02 5.19 19.25 1.69 8.86 3.05 14.36 4.58 17.27.92 4.43 9.47 38.05 3.82 17.11 12.84 50.27 4.58 17.26 2.6 9.17 1.22 2.75 1.99 3.82 3.05 4.28 6.42 6.88 7.18 6.72 1.37.92 3.06 1.98 2.29.77h.92l3.05-.46 1.68-.46 7.34-3.97 3.51-2.6.46 1.68.61 4.28.15 5.65-.76 18.18v3.98l-.15 6.26-1.68 16.35-.16 6.88.46 7.18.46 4.43.76 3.51.77 2.91 1.07 2.75.76 1.22 1.07 1.07 3.67 3.36 2.44 2.44 2.14 2.45 1.68 2.14 2.45 3.82 2.59 4.89 2.3 5.96 5.95 20.01 2.6 7.79 5.96 18.95 3.97 15.74 2.6 9.47 1.53 3.52 7.48 13.14 3.36 6.72 3.52 7.64 6.26 14.36 5.96 13.45 1.83 5.04.92 4.58.61 4.89v3.97l-.15 8.41.31 3.82 1.37 6.87 1.83 7.49 1.99 6.27 5.19 13.29 1.38 5.35 1.68 8.86 2.9 16.5.77 5.81.91 14.97.61 5.35 4.13 18.49 1.68 9.47 2.29 15.43.92 7.79v5.81l-1.53 16.35-.15 6.87.46 5.96 1.98 11 3.82 17.27.61 2.75.92 3.06 3.36 10.23 1.07 3.06.92 3.67.46 1.98.76 4.43 1.07 7.18.76 4.28.16.77 1.37 5.19 2.14 8.4 3.67 13.15.76 2.29-3.51 2.44-10.09 7.34-7.48 5.65-1.23.92 9.93 42.93 7.19 30.41 25.66 108.48-.61-.76-5.8-8.41-2.6-3.36-1.22-1.07-1.53-.61h-.61l-16.96 6.26-4.58 2.14-8.1 4.89-3.36 1.53-2.6 1.68-2.29 2.45-6.11 9.16-3.21 3.06-3.97 2.6-18.34 10.08-11 5.5-2.75 1.68-5.04 3.21-1.99.92-3.2.76-34.84 7.03-.3-.15h-1.23l-.91-.46-1.38-1.22-3.21-4.74-1.68-1.99-.61-.61-1.07-.76-2.44-1.38-1.07-.45-1.99-.77-1.53-.46-2.75-.76-3.51-.92-2.6-.61-5.8-1.37-1.22-.16-1.07-.15-.92-.15h-3.06l-.91 3.05-1.07 3.52-.92 2.6-.76 1.68-.46 1.37-.61 1.38-.92 1.52-.76 1.07-.92 1.07-.92.92-1.07.92-.76.61-1.07.61-1.22.46-2.75 1.07-3.06.76-3.51.77-3.82.45-3.67.16-2.29.15h-10.69l-11 .46-7.95.46h-3.67l-2.29-.16-2.59-.45-2.76-.77-3.05-.92-14.97-6.26-2.45-1.07-4.28-1.83v.3l.16.61.3.61 2.29 3.67.92 1.38 1.22 1.83 2.45 3.97 5.35 8.86 2.59 4.44 6.88 11.61 3.97 6.72 7.79 13.14 2.75 4.89 4.74 7.95 5.65 9.01 12.53 19.25.76 1.07.31.77.3.45.16.46.15.77.15.61.16 1.22.15.92v.91l-.15.46-.16.46-.15.46-.15.46-.31.46-.46.76-.3.31-2.29 2.13-1.07.92-2.14 2.29-.92 1.07-1.53 2.29-.46 1.53.16 2.75 1.07 4.13 3.05 9.01 2.45 6.11 4.89 10.55 1.52 4.12 1.99 6.73 2.29 9.01 5.96 21.39 2.14 10.7 1.37 4.73 6.73 15.13 4.12 11.92 2.9 6.57 7.03 14.21 6.27 9.62 1.22 1.84 2.44 2.29 4.43 3.06 2.75 1.07 1.38.3 1.07-.15 1.07-.46 5.8-3.67 9.02-6.57.76 1.22.92 2.3 1.98 3.21 4.28 5.5 1.84 1.52 2.29.46 1.52-.15 2.3-.46 6.41-2.6 3.52-.76h1.53l1.83.46 1.83 1.22 2.29 2.44 1.07 1.69.61 1.83.77 4.12.91 3.21.46.92 1.53 2.29 2.9 3.52 1.23 2.14.61 1.83.76 4.28.77 2.9 1.06 1.99 1.07 1.98.92.92 1.83 1.83 2.14 1.38 1.07 1.07v.15l.77 2.29.15 2.75 23.07 37.28 48.28 83.58-43.54 30.1-3.98 2.75-1.83 1.38-6.26 4.28-1.23.76-11.3 7.95-.46.3-6.26 4.28-23.23 16.19-18.03 12.38-25.82 17.27.62.76 3.51 5.35 11.31 19.86 5.04 8.86 4.12 6.27.46 2.29 2.44 4.28 3.98 5.5 1.68 2.44 3.51 6.12.31.61.15.61.15.46v.91l-.15.46v.31l-.15.46-1.07 1.68 2.9 2.59 10.24 9.17 5.34 4.74 12.84 11.3.3.31 20.32 18.03 11.61 10.54 5.66 4.74 6.26 5.5 30.86 26.13 6.73 5.8 5.5 4.59 12.07 10.23 8.7 7.19 1.23 1.06 3.36 2.6 4.12 3.06.92.61 1.68 1.22 27.81 18.8 8.4 5.8 1.22-3.36.61-1.99 1.07-.76 28.57 13.45 24.75 11.61 14.67 7.03 5.5 2.29 3.36 1.37 4.43 1.23 2.75.45 3.52.46 3.05.16 2.6-.16 7.18-.61 6.72-.76 5.2-.31 4.73-.3 3.36-.16h5.81l2.6.31h1.07l1.07.15 1.98.15 3.52.31 3.2.46 2.3.46 16.19 4.43 2.75.76 1.99.61 8.4 2.14 2.75.46 3.67.61.61 1.99 4.73 16.19 3.37 12.69.91 3.36.31 5.65 5.5.92 7.64.76 9.16.77 7.03.61-4.12-14.82-1.38-5.35-.76-4.43.15-1.99.61-2.44.46-1.23.31-1.07-.62-3.2-.15-1.84.31-1.53 2.44-4.12 7.49-.61 7.64-.16 2.59.16 73.8 6.41h.3l2.45.31 6.87.31 5.5-.16 5.2-.61 4.73-.91 4.74-1.38.76 1.07.46 1.22.31 1.38-.16 1.52-.3 1.84-.61 1.98-3.82 1.69-4.28 21.84 3.67-1.22 24.29-7.48 18.79-5.66-2.29-8.25-4.89-17.42-2.44-9.01 25.82-25.67 7.64-6.11 4.88-3.06 5.5-2.75 8.71-3.05 27.96-8.1 8.1-1.53 4.89-.15 8.25.61 9.62 1.07 7.03.3h22.61l23.99-.3 4.58-.16-2.29-6.41-.76-.92-.31-1.53v-1.37l.16-1.53v-6.42l-.16-1.83-.91-3.21-1.68-2.6-2.3-1.83-1.07-5.04-.3-1.38-2.14-6.87-4.58-18.34-4.13-12.83-.92-4.43-2.29-12.84-4.12-16.96-3.82-14.82-1.53-7.33-3.21-13.6-1.53-6.73-.61-3.66-.46-4.59v-1.68l1.38-7.48 1.53-5.81.91-3.82 1.23-3.97.76-2.14 1.53-4.59 4.73-12.83.92-3.36.61-2.91.77-8.55 1.52-9.32.31-5.35-.15-3.06-1.07-11.76-1.23-13.14-.3-9.17-.76-6.87-3.21-17.12-1.99-15.58-1.83-10.24-.77-9.63-.76-4.12-1.68-5.81-.92-4.43-.76-5.04-.77-8.4-.76-3.82-1.53-4.89.61-2.6 1.38-4.74.46-2.14.15-1.68-.61-3.51.3-2.14.46-1.53 1.23-2.6 1.22-5.8-.61-2.29-1.38-3.36-.46-2.45.16-1.37.45-2.3-.3-2.29-1.22-4.28.15-1.37.76-2.29.16-1.23-.46-2.44-.77-2.6-.15-1.53.15-1.37.61-1.53.31-3.06-.31-3.66.31-2.91.61-1.68.15-3.97.31-1.22 1.83-4.58.46-1.23v-1.83l-.46-1.22-.76-1.07-.46-1.07-.3-1.07.3-1.38 1.38-3.05.61-2.91.61-1.83 1.83-3.06 1.07-2.9-.15-1.53-.15-.61-.92-1.22-.46-1.37v-.92l.15-1.07.61-.92.92-.61 2.6-.92 1.37-1.07.77-1.22v-1.37l-.46-.31-.92-.76-.3-.61-.16-1.07v-1.38l.46-.76 1.68-1.68 4.13-1.38 2.6-.3 1.37-.46 1.53-.77 1.53-1.07.61-1.22.15-3.66.46-1.69.91-1.07 3.06-2.59 2.44-1.99 1.38-1.37.76-1.23.77-4.12.61-.61 1.07-.61 3.36-.92 1.07-.61 5.5-2.6 1.37-1.53 2.45-3.66 2.14-3.67 1.07-1.38.91-1.52.92-3.52.76-1.83 1.07-1.38.92-1.07 6.72.31 1.22-.31 1.38-.76.61-.77 1.68-4.43.61-.61 2.91-.76.3-.15.31-.46.46-3.36.45-1.07.61-.61.62-.16 1.22.16.76-.31 1.07-.61 1.07-.92 2.9-1.98 1.84-3.67.46-1.53-.16-1.83-.15-.61-1.38-1.53-.15-1.22.15-.77.46-.61 4.28-1.68 1.99-.46 2.75-.15.91-.46.77-1.07 2.14-7.03.91-1.37h.77l1.98.3.77-.15 3.21-3.51.76-.77 1.53-.46 1.53-.15.3-.92.15-.91-.45-1.99-.62-1.53.16-.76.15-.92.76-1.83 1.38-1.99.15-.61-.46-2.6.31-.46 1.68-.3h2.75l1.22-.31.92-.61.76-.91.61-1.07-.15-1.68-.15-1.07.3-1.53 1.07-2.75 1.07-1.22 2.29-1.84 1.68-1.07 1.38-1.98.92-2.6.76-1.22 2.6-3.06 1.07-2.14 1.07-2.6.61-.61 1.53-.61.45-.3.16-.62-.16-1.52-.15-1.68 221.53-54.86 5.2 3.21 8.71 8.25 2.44 1.53 5.96.61.76.31 4.28 6.26 1.53 2.91.76 3.05.77 4.89.91 10.24.62 1.68 3.97 9.78 1.68 4.28.46 1.68-.16 1.22-1.52 5.04-.46 1.38-.31 1.83v3.82l.92 9.01.92 10.39 1.22 6.27.15 2.14-.76 4.58-.46 4.28-.77 5.35-.15 1.83 1.07 9.63v3.05l-.15 2.91-.31 4.58.31 5.81.61 5.95 1.22 12.38.61 3.67.77 1.68 2.9 3.67 2.14 3.66 2.44 5.35 3.82 12.53 1.53 3.67 1.68 2.44 2.14 3.52.92 1.98.45 1.68.16 3.06.15 1.37.46 1.68 2.44 2.75-.76 3.21v.92l.76 5.65.61 3.52.62 3.97-.31 4.28-1.07 9.01-.76 8.41 1.22 14.66v2.91l-1.53 15.28v5.8l.61 8.71-.3 5.04-1.07 5.05-1.38 3.97-1.68 3.36-1.98 3.06-3.82 5.34-2.3 3.21-1.22 2.14-2.6 5.5-.91 2.75-1.99 7.95-.61 3.67-.46 4.58-.15 2.44.46 5.35 1.07 6.88 1.68 8.1 1.37 6.41 2.75 12.07 7.34 29.49 4.58 17.73 3.36 14.05 1.53 7.03.46 4.89-.16 4.89-1.22 9.47-.46 4.59.16 2.29.45 2.75.77 3.82 3.82 14.21 158.59-16.35 184.86-17.88 2.44 6.27 3.37 7.03 1.22 2.59 4.43 9.32 3.36 6.42 1.68 2.6 2.45 2.75 6.56 6.11 1.23 1.07 1.22 1.07 2.75 1.83 5.04 2.6 20.17 11.46 5.65 3.82 2.14 1.68 1.07.92 1.07 1.22 1.53 1.53 1.22 1.53 2.14 2.9.61.92 1.37 1.68 1.99 1.83.92.46.76.3.92.31.76.31h.92l3.05.3 9.17 1.07 4.89.76 4.12.77 9.78 2.29 4.13.76 2.29.46 4.58.77 4.13.61 2.75.46 3.66.76 1.07.31.92.3.92.31 1.37.76 1.07.61 3.36 1.99 1.23.61 1.07.46.45.3h1.07l.61-.3-22.15 98.86 5.2-.77h1.83l.92.15 1.06.31h.62l.76.15h1.68l1.22-.15 1.68-.15 1.53-.31 3.52-.46 3.97-.76 7.33-1.38 4.74-.91 3.21-.46 2.9-.61 5.04-.77.76 2.6 1.07 3.67 1.99 6.11 3.51 9.17 6.12 16.35 17.72 49.2 1.37 3.82 1.53 4.27.92 3.67.46 1.83.15 1.23.3 2.59-.15 3.52-.76 17.88-.46 6.57-.46 4.73-.46 3.36-.91 4.13-1.07 4.12-1.23 4.59-.61 1.53-1.22 3.51-.76 1.68-1.84 3.97-3.05 5.96-11.16 20.48-11.15 20.62-4.28 7.64-5.65 11.31-3.51 6.72-1.53 3.36-2.45 4.59-.61 1.37-3.66 7.19-2.3 4.58-.61-.31-4.12-2.75-3.21-1.98-2.9-1.68-2.45-1.07-2.14-.77-8.25-2.29-8.25-2.14-4.12-1.22-3.21-1.22-3.51-1.53-2.91-1.53-3.82-2.29-3.66-2.6-14.36-10.69-4.13-2.3-2.9-2.44-6.11-4.58-1.53-1.07-5.04-3.98-4.59-3.66-3.05-2.3-4.43-3.36-7.18-4.89-4.13-2.75-3.97-2.59-4.89-3.06-3.51-1.99-5.35-3.05-2.29-1.38-3.21-1.68-1.83-.91-3.37-1.69-3.82-1.98-8.7-4.13-4.43-2.14-3.06-1.52-5.5-2.6-5.5-2.75-7.79-3.82 1.22 11 .76 2.75.61 2.75.46 1.83.61 2.14.31 1.68.15 1.07.31 1.38.15 1.37.15 1.38.31 1.53.3 1.22.16 1.22.15 1.22.15 1.38.16 1.53v2.44l.3 3.06v2.14l.15 1.37.16.92v1.07l.3 1.22.16 1.22.91 4.13.61 2.9.77 3.82.76 2.9.31 2.6.15 1.07.15 1.38.15 1.52.16 1.68.46 2.14.15 1.23.76 3.51.61 2.6.46 2.29.31 2.29.3 1.68.31 1.84v9.16l.15 3.06-.15 2.9v11.92l-.15 4.74-.16 2.9v5.19l.16 2.3.15 1.22.46.92.76 1.07 1.07 1.68.61.76.61 1.37.46.92.46 1.38.61 2.29.61 2.29.61 1.83.77 1.99.61 1.38.61 1.22 1.22 1.68 1.07 1.83 1.22 1.68 1.38 1.99.91 1.37 1.23 1.84 1.22 1.68 1.07 1.53 1.22 1.68 1.22 1.53.92 1.52 1.07 1.68.92 1.53.76 1.53.76 1.83.61 1.07.62.92.91 1.07 1.07 1.07.77 1.22 1.07 1.68.91 1.22.77.92 1.52 1.22 1.38 1.38 1.37 1.22 1.53 1.22.92.77.76.61 1.07.76.92.46 1.07.31 1.37.45 1.38.16 1.98.61 1.38.46 1.07.61.61.76.76 1.07 1.07 1.53 1.23 1.83 1.07 1.23 1.06.91 1.69 1.22 2.13 1.53 1.68 1.22 1.38 1.07.61.77-.15 1.83 1.83 1.38 1.38.91 1.83 1.23 5.04 3.05 5.96 3.06 3.36 1.37 2.6 1.38 2.6 1.07 8.25 3.51 3.51 1.22 2.44 1.23 3.98 1.68 2.44.91 2.45.92 2.29.61 1.98.46 2.45.31 2.44.3 2.45.15 2.29.16 1.99.46 10.23 1.98 1.68-.61 1.07-.31 1.53.16h1.22l.92.15 1.22.15 1.53.31 1.07.15 1.07.31.91.15 1.23.15h1.07l1.07.16h4.43l1.52-.16h10.09l11.46.16 12.07.91 3.81-.15 15.28-1.07z" stroke-linejoin="round"/></defs><use xlink:href="#b" fill="#9dc8ca" stroke="#6bb4d2" stroke-width="5.76"/><defs><path id="c" d="M1357.77 1687.91l-4.13 5.65-.46-.92-.3-.91-.31-.92-.3-.61-.46-.46-.46-.31-.76-.45-.92-.61-.46-.77-.46-.76-.46-1.07-.45-.92-.16-.61-.45-.92-.46-.61-.16-.61v-.46l-.3-.3-.46-.61-.61-.16-.61-.15-.46.15-.76 1.07-3.21-3.21-10.7-13.59-4.28-5.81-11-10.85-4.88-5.19-7.19-8.1-10.69-13.6-10.24-13.6-5.8-7.49-5.96-7.18-5.81-5.5-3.05-2.75-2.6-2.29-5.04-4.13-14.36-12.83-8.86-6.72-15.28-12.53-2.14-1.99-2.75-2.14-1.22-1.07-1.99-2.44-2.14-1.84-6.57-4.58-2.75-1.68-10.85-4.43-7.02-1.68-1.68-.31-3.21.16-1.99-.62-2.44.46-1.38.16-8.25-1.99-2.6-.46-4.27-.76-3.67-.92-3.82-1.68-.92-.92h-1.52l-1.84.77h-.91l-3.37-1.38-2.29-.3-2.14-.62-2.9-1.68-4.58-.3-5.35-1.07-1.99-.15-2.44-.46-4.28.3-2.29-.15-12.83 1.53-4.43.76-6.88 1.53-5.96 1.53-1.83.76-1.22 1.07-.77.92-1.37.15-1.07-.3h-1.07l-.92.76-1.37.76-.77.77-1.22.46-1.83-.46-3.36.91-.77.46-1.07.61-.91 3.37-1.07 1.06-1.23.16-1.68-.46-2.59.15-1.07.61-1.68.46-1.38-.15-3.67 1.07-3.66 1.68-3.21 1.22-1.38.61-.76 1.22-.92.77-1.22.3-1.07-.15-2.14-.92-1.98.46-2.45.92-2.14.46-1.98-.31-1.84-.91-3.2-.16-3.06.46-7.64 1.99-2.29.46-3.06 1.07-2.44 1.07-2.29 1.52-6.27 5.5-2.14 1.23-2.75 1.07-4.43 3.05-1.83 1.84-2.14 1.98-14.97 7.18-3.67 2.14-9.32 7.79-1.37 1.07-2.45 2.14-2.59 2.75-2.45 2.14-2.44 1.53-1.99 1.53-5.19 3.05-3.82 1.68-7.18 2.3-4.89 2.14-7.03 3.82-8.1 3.51-2.44.92-1.68 1.37-1.53 1.07-3.21.92-1.22.61-2.6 1.68-2.6 2.6-.61 1.37-.15 2.75-.31.92-.76.92-1.99 1.52-2.14.77-1.06-.15-.77-.31-3.67.76h-1.52l-1.38-.15-2.44-1.07-1.68-.3-3.21.15-2.6.61-1.07.46-1.22.46-1.22.15-3.21-.61-1.38.15-3.2.15-1.99.77-4.89.46-1.22.45-1.53.62-11.15.3-5.35.77-13.14.91-3.97 1.38-13.14 1.68-3.97.91-1.68.31-6.88.76-11.15 1.69-4.59.15-9.16 1.22-7.34 1.68-2.13.31-6.27.15-2.75-.31-7.03.16-2.44.3h-1.99l-2.44.31-4.74-.46h-1.53l-2.29.46-3.51-.61h-.92l-1.98-1.07-1.38-.46-1.07-.15-.92-.62-11.91-2.44-1.22-.31h-1.69l-2.29-.61-1.98.31-1.23-.15-2.9-.77-3.51-.76-2.75-.31-1.38-1.07-1.68-.15-.61-.61-.76-.15-4.13-.31-1.68-.3h-1.07l-1.07-.31-1.22-.76-.92-.16-.91.31-2.14.3-1.22-.45-1.84.45-1.37-.45-1.38-.92-1.07-.31-2.14.61-.61-.61-.91-.15-1.68.46-1.23-.15-.76-.46-.61-.92-1.22-.92-1.23-.61-1.07.16-1.22.45-.92.16-.76-.31-.46-.61h-2.29l-1.07-.46-1.07-.61-1.22-.31h-2.29l-.77-.15-.61-.46-1.37-.3-.92.3-1.83-.15-1.38.15-1.22-.15-1.22-.46-2.45-.3-3.51-1.23-2.75-.76-4.89-1.83-1.83-1.07-2.91-1.22-1.98-.16-1.68-.46-1.53-.91-4.58-1.53-3.21-1.38-2.14-.15-3.06-1.22-2.29-.61-2.29-1.38-1.99-.91-.76-.31-1.37.31-1.07-.16-6.12-3.05-8.55-4.74-3.82-1.37-6.42-3.82-2.59-2.14-7.64-3.82-2.45-1.23-1.53-1.37-.76-.92-.61-1.37-.77-2.6-.61-1.07-.61-1.22-1.98-11.92-.92-3.67-1.38-3.66-.45-2.14-.16-.77.46-2.44 1.22-3.82-.15-1.07-1.68-.61-.76-.61-1.53-4.43-.76-1.23-1.69-1.68-3.51-2.14-4.28-2.14-1.68-.61-1.53-.15-2.75.31-1.52-.46-2.45-2.29-2.14-1.07-3.82-.46-2.59.91-2.3-.15-2.9-1.07-4.43-1.07-1.22-.61-2.6-2.29-2.14-2.29-1.22-.77-1.83-1.83-1.23-2.44-1.06-1.07-.62-.92-.76-1.83-.76-3.98-.92-2.14-2.6-8.25-1.83-6.57-2.29-9.16-.61-1.84-.77-1.37-2.44-5.96-1.07-3.21-1.22-5.04-1.38-3.06-.3-1.99-.46-1.22-.77-1.07-2.14-1.98-1.07-1.84-1.22-2.75-1.98-2.75-3.21-3.66-2.75-2.6-4.28-4.89-1.22-1.22-4.43-2.45-4.43-3.51-1.99-2.29-1.83-3.06-1.99-3.97-3.21-7.49-1.22-3.21-5.81-12.83-.61-2.45-.76-3.82-4.74-10.23-1.07-3.06-.91-2.14-.31-1.68v-1.22l.15-.61.62-.31.45.31.77 1.22.46 1.07 1.68 2.14 1.22 3.21.46 2.29.91 1.98 1.53 1.99.61 1.53.31 1.53.3.76h.31l.3-.15.46-1.38.31-4.58-.92-11.92-.91-3.97-.92-5.66-1.07-5.65-.31-4.28-.45-.76-1.53-1.07-.61-2.6-.77-5.65-.61-1.99-1.37-2.6-.31-1.98v-1.53l-.46-1.83-.76-1.68-.77-3.06-.45-2.9-2.14-6.27-1.99-3.51-.61-2.45-.31-2.59-1.37-6.57-.92-3.21-1.53-9.02-3.05-14.36-.76-2.44-1.23-1.84-.61-2.29-.91-4.43-.77-1.99-.92-2.75-1.68-4.12-.45-2.75-.16-2.14-.3-1.68-1.07-2.75-1.84-3.21-.91-1.99-.15-1.68-.62-1.53-.91-.91-1.53-4.28-1.07-1.84-2.14-5.34-.76-3.36-.92-3.37-1.99-4.27-.45-2.75-1.07-1.69-.77-1.22-1.22-1.07-1.07-2.59-1.83-3.82-7.18-11.01-9.63-12.98-4.73-5.05-1.38-1.06-4.89-3.82-6.72-6.42-3.67-3.06-1.98-1.98-2.6-2.3-5.35-5.5-4.12-3.66-1.23-1.38-2.59-3.82-4.43-4.74-2.3-1.83-1.68-2.14-2.29-1.98-1.53-1.68-1.37-1.38-1.68-2.44-1.83-1.53-1.07-1.23-.77-1.68-.76-2.75-1.99-3.66-.46-2.14-1.68-2.45-1.83-2.29-1.83-1.99v-.91h.45l2.91 2.75 2.14 1.68h.3l.46-1.22.31-2.6.3-3.51-.61-6.42-.76-3.36-.77-1.53-1.37-1.84-1.53-1.37-2.44-1.22-3.52-1.68-.3-.46.15-.46.46-.15 1.37.3.92.16v-.92l-.46-.61-.61-.31-.92-.3-2.44-.31-2.6.15-2.9.31-1.53.3-2.44.46-2.3 1.23-2.59.76-6.88.61-2.44.46-2.45-.46-9.16-4.58-6.42-1.84-5.35-.91-2.14-.16-3.82-.15-4.12-1.07-4.74-.61-3.67-.76-3.36-.16-3.36.16-4.43.91-8.4 1.07-10.08.92-16.51 4.58-22.76 5.2-13.14 4.28-5.8 1.98-11 4.43-8.1 1.68-10.24 3.06-6.42 2.6-2.13 1.53-2.6.91-3.36.46-4.89-.46-6.27-.3-2.13-.16-2.45-.3-3.67-.31-2.44-.3-2.14-.31.61-1.98.77-2.3.76-2.75.46-2.14.46-2.14.3-1.83.31-2.6.15-2.14v-3.66l3.82.46 5.65.91 3.82.16 7.49.3 9.01-.3 7.79-.92 6.27-1.68 1.68-.61 2.44-1.38 14.67-5.65 7.33-2.75 12.84-3.97 11.61-4.74 7.64-2.14 5.96-2.44 5.34-2.45 3.98-1.07 4.43-.46 5.19-1.07 5.2-2.44 5.8-1.99 7.03-4.12 6.11-1.99 6.72-1.68 9.17-.76 5.04.61h5.81l12.53-1.53 8.86-.92 5.19-.15h4.58l4.74.15 3.06-.15 13.44 1.37 3.36 1.23 3.36 2.14-.91-2.45-2.29-3.36-2.45-3.82-3.05-5.35-1.99-1.98-4.89-4.74-2.44-4.28-.77-1.68-2.6-4.28-1.68-1.83-.76-.46-2.9-.31-2.14-1.06-1.07-.77-.61-.92-.61-2.29.15-1.07.46-1.22.15-1.22-.31-1.07-.45-1.07-.92-1.07-.61-1.38-.15-1.07v-1.22l-.92-3.66-.46-.62-.61-.3-.46.3-.61.46-.76 1.38-.61.46-.92.15-3.06-1.99-1.22-1.53-.92-2.9.16-1.68-.31-3.05-.3-1.07-1.53-1.23-.31-.61-.3-.76.15-.77.46-.76 3.97-3.51.15-1.38-.76-3.67v-2.44l.3-1.53.77-1.83.3-2.91-.76-2.59-2.14-3.21-.15-.61v-.77l.3-.91.46-.92.61-1.07.31-1.07v-.76l-.31-.61-.45-.92-.46-.46-.61-.31-.92-.15-.61-.46-.31-.61-.15-.91v-1.99l-.15-1.22-.31-1.23-.61-1.06-.61-1.53-.61-1.07-.46-.77-.61-.76-.61-.61-.61-.46-.62-.46-1.06-.76-1.38-1.53-.92-.61-.45-.61-.46-.46-.31-.61-.61-1.07-.61-1.53-1.22-2.75-.46-1.53v-1.53l.46-.91.3-.92.46-1.37.92-1.69.46-.91.76-1.07.61-.92.31-.76v-.77l.15-.91v-.92l-.15-1.22-.16-.92-.3-2.14-.15-1.07-.31-.46-.46-.76-.3-.61-.77-1.53-.3-.61-.16-.92v-1.68l.16-.91.15-.77v-.76l.15-.77-.15-.76v-1.07l.15-.92.31-1.52.3-1.38.31-1.53.15-.91v-1.23l3.52 2.6 4.88 4.28 3.06 3.06 3.36 4.12 3.06 3.82.91 1.22 1.99 2.45 20.78 26.89 11.61 14.82 1.83 2.44 1.22 1.53.92 1.22 1.68 2.3 16.04 20.62 9.02 11.62 8.86 11.61 4.12 5.35 1.99 2.59 20.63 26.74.45.46.62-.61.45-.46.92-.76 1.07-.92 1.07-.76 1.22-.92 11.31-8.4 6.26-4.59 4.13-3.05 6.41-4.43 35.14-25.52 4.74-3.67 1.22-1.53.77-1.98.91-4.28 5.66-31.02 3.2-16.19 4.13-21.24 2.9-16.81 4.89-25.67.31-1.53.76-3.82-13.75-5.65-29.64-11.15-11.46-4.13-20.62-7.18-7.8-2.6-2.13-.91-1.99-.92-1.68-.92-1.53-1.07-5.35-3.82-1.07-.76-.61-.77-.46-.45-.91-1.23-1.38-1.37-3.66 1.53-.61 2.14-8.87 3.66-1.98.77-.16-2.14-1.52-16.81-.92-11.15-1.22-20.48-.46-17.42-.15-3.66-.16-.16-.76-6.87-1.07-4.13-.76-2.59-.92-11.46-.31-6.42v-8.25l.16-10.09-.61-2.44-.61-1.68-1.53-2.6.91-1.53.77-1.98.3-3.06-.3-5.65-2.75-25.37-.15-4.73.15-4.59.76-5.04 1.53-7.03.46-2.14 2.6-10.39 1.06-4.58 1.69-10.08.61-5.81.61-6.11 15.73-11 2.3-1.68.3-3.82 3.52-2.45 7.94-5.5 25.67-17.88 7.33-5.19 17.42-12.07 17.11-12.07 9.17-6.11 3.82-2.6 16.8-10.54 16.35-10.09 3.21-1.99 18.33-10.39 15.89-9.01 10.08-5.81.92-.61.46-.15 13.9-8.1 9.78-5.5 3.67-2.14 8.86-5.19 10.69-6.27 1.38-.76 3.51-2.14 18.34-10.24 6.57-3.82 23.22-13.44 1.53-.77 41.4-23.68 41.25-23.84 47.67-27.35 6.57-3.82 41.1-23.68 10.23-5.8 4.13-2.45 10.39-5.96 22.15-12.22 1.53-.92 9.93-6.11 8.25-4.74 29.49-16.96 10.08-5.8.92-.61.76-.31 3.67-2.29 10.39-5.65 11-6.27 4.43-2.29 5.95-3.21 2.91-1.53 12.22-6.42 9.01-4.73 7.34-3.67 9.01-4.58 14.52-7.49 6.11-3.21 9.01-4.58 14.97-7.79 42.48-21.85 21.23-11.01 1.38-.76 4.89-2.44 4.28-2.14 3.97-1.99 11.61-6.11 7.64-3.97 27.19-13.91 16.35-8.55.77-.46 5.19-2.75 3.36-1.84 8.1-4.27 16.19-8.71 7.79-3.82 2.14-1.23 8.1-3.82 7.33-3.36 7.19-2.9 2.13-.76 3.82-1.38 1.38-.46 4.12-1.37 5.5-1.68 3.67-1.07 3.67-1.07 3.82-1.07 1.52-.31 4.13-1.07 3.67-.76 3.66-.77 3.52-.76 2.14-.3 1.98-.31 4.13-.76 2.44-.31-2.9 4.89-.46.61-1.07 1.68-1.07 1.68-4.12 6.72-4.43 6.88-1.07 1.53-1.07 1.68-1.07 1.53-.61.76-.92 1.07-1.22 1.38-1.38 1.68-1.68 1.68-.91 1.07-1.53 1.22-1.53 1.37-1.53 1.23-1.68 1.07-1.37 1.07-1.84 1.07-1.68 1.06-1.07.46-.46.31-1.52.76-1.38.61-1.53.46-1.68.77-2.75.76-1.68.46-1.53.3-2.59.46-3.67.46h-1.07l-.76.15.91 3.98.46 2.14.31 1.07.46 2.59-.92.31.31 1.07.15 1.07-8.1 2.14 4.28 14.05 12.68 51.19 10.08-.92.92.46h1.83l21.7-11.15 59.89-30.87 9.17-3.97 5.65-2.29 13.29-4.28 4.74-.92 6.57-1.07 7.18-.91 1.98-.16 4.13-.15 5.04-.15 9.93.46 5.35.61 7.64 1.22 3.36.76 5.5 1.07 4.73 1.38 1.99.61 2.6.92 7.48 2.75 6.27 2.59 4.28 1.99 6.87 3.67 3.67 2.29 7.33 4.74 6.88 4.89 4.58 4.12 3.36 2.9 8.25 7.95 6.11 6.72 5.96 7.34 3.67 4.89 5.04 7.64 4.28 7.18 4.58 8.86 3.67 7.79 8.55 20.63 7.03 17.42 7.18 17.72 10.39 25.36 1.22.62 61.57 37.89 1.23.61 15.12 9.32 35.6 21.54 1.07 2.91 1.53 2.75 5.65 6.26 2.6 6.57-1.99 1.53-1.53 2.14-2.14 5.35-2.59 8.25-1.23 3.97 2.91 1.83 1.37 1.23 1.07 1.52 7.95 19.41 9.77 25.06.31 1.07.61 2.75 9.47 3.66 8.41 3.21 15.58 5.81 20.78 66.16 13.29-9.32-17.26-45.99-1.53-5.05 5.04 1.84 5.5 2.14 13.29 4.89 19.41 7.03 3.51 1.37 1.07.46 1.22 12.68 8.56 53.94 1.07 4.73 7.02-5.34-2.13-10.7 1.07-.76 2.29-1.53 1.52-.92 20.48-14.67 13.14-9.32 1.07-.91-5.2-13.3-5.04-13.14-6.11-15.74 22.15-15.12 4.74 3.05.76.31.46.31 2.14.76 3.21 1.99.91 1.22.77 1.68 1.07 3.97v1.22l-.61.92-1.38 1.22-2.6.46-1.98.15-1.68.77-1.84 1.83-1.83 2.29-3.21 5.66-.15.76.61 1.53 1.22 1.53 2.29 1.52 4.59 1.69 1.68.45 8.55 2.3 2.45 1.22 1.53 1.83.46 1.07.3 2.14-.61 1.99-1.53 1.07-12.37 8.09-.16 1.07.61 2.14 3.52 8.25 1.37 2.14 2.3 2.75 2.44 3.67 1.22 2.75.31 1.22.3.77v1.37l-.15.92-.3.61-1.07 2.44-.16.92v1.53l.61 1.83 1.07 1.68 1.99 2.3 3.21 2.75 2.44 3.05 5.04 7.79 1.07 2.3.77 2.13.91 1.99 1.23 1.68 1.07 1.22.3.31 3.82 2.75 10.24 4.28 1.07 1.37.46 1.68v.46l.3 3.52 1.99 13.14-.46 2.59-.15.92.15.92.46.91.76.62.61-.16 1.53-1.68 8.1-3.97 1.53-.76 2.29-1.99 3.05-2.9 1.68-1.23 3.21-.91h.31l.15 9.47-.61 1.22-1.99 3.82-.91 2.75-.16 1.99 2.29 18.03 1.07 5.96.46 5.35-.3 2.29-1.07 4.58-.92 2.29v1.23l1.22 3.66 9.78 13.14.15.46-20.62 5.04 6.11 11.77v2.29l-.31 1.22-.3 1.22-.61 1.07-.77 1.07-1.07.77-1.37.76-1.83.77-2.3.76-1.07.31 7.8 21.69 3.82 10.54 11.15 32.24 2.14 6.12 9.78 27.8-5.05 4.13-1.07.92-1.06 1.22-.77 1.07-6.57 10.39-7.18 11-1.37 1.83-1.07 1.07-1.53 1.22-4.28 4.89-.61 1.23-.31 2.9-.45 1.22-9.17 7.49-6.27 4.89-7.33 6.72-7.49 8.1-5.34 5.19-4.13 3.82-2.44.92-20.63-52.1-2.9-7.18-5.35-13.91-1.37-4.28-1.68-3.82-2.3-4.73-2.9-3.82-2.6-2.75-1.98-1.53-2.45-1.53-3.2-1.22-2.6-.46-.46-.92-3.21-5.8-.46-.92-1.98 1.38-1.07.61-.61.61-1.23.76-.91.77-7.34 5.34-3.2 2.3-27.81 20.17-2.29 1.68-7.95 5.8-.61.46-.76.46-6.11 4.43-2.14 1.68-1.84 2.45-.45.45-3.67 3.21-8.56 6.27-6.26 4.43-6.57 4.89-22.61 16.35 1.68 7.33 2.44 9.02.31 1.68 2.14 7.33 1.83 5.96 1.22 3.82 1.99 5.96 3.82 11 6.42 20.01-.61 2.91-.16.3-.3.46-.31.61-6.26 16.5-8.41 22.77-1.22 3.36-2.75 8.41-1.07 3.51-1.37 5.81-1.38 5.96-5.65 24.6-4.13 19.71-3.36 14.97-1.52.3h-1.23l-.3.16h-.31l-.46.15h-.3l-.31.15h-2.9l-.61-.15h-.31l-.3.15-.46.31-.46.46-.3.3h-.31l-.31.16h-.45l-.62-.16-.76-.15-.61-.31-.46-.15-.46.15-.15.31-.15.31v.76l-.31.46-.15.3-.15.16-.31.15-.61.15-.76.61-.62-.46-.45-.61-.46-.46-.61-.3-.61-.46-.46-.3-.77-.31-.46-.15-.45-.31-.46-.15-.61-.15-1.07-.46-1.07-.46-.61-.15-.31-.46-.61-.46-.31-.31-.45-.15-.61-.46-.62-.15H1678l-.46-.15-.61-.16-1.38-.61-.3-.46-.61-.45-.62-.31-.45-.3-.62-.31-.3-.15h-.46l-.76.3-.31.31-.76.3-.31.16h-.46l-.3-.16-1.07-.3-1.07-.31-.46-.15-.3-.15-.62-.16h-.3l-.77.16-.91.46-3.67 1.06h-.46l-.61-.15h-.92l-.91-.15h-.92l-.61-.31-2.29-1.37-1.07-.61-.46-.31-1.53-.15-3.05-.15-3.97-1.84-2.45-1.37-3.82-3.82-3.97-5.5-2.75-3.21 14.97 24.29 35.14 59.13 4.28 7.18-4.89 3.37-4.28 3.2-25.21 17.42-10.69 7.49-4.28 2.6-2.6.91-4.27.77h-3.98l-1.37-.46-3.52-1.53-15.73-9.62-2.91-1.53-2.44-1.07-4.28-1.07-5.19-.92h-2.75l-2.45.61-2.59 1.38-14.06 9.78-5.5 3.66-6.26 3.98-3.21 1.22-1.53.46-14.67 1.98 3.36 90.61 5.35-.92h3.21l6.57.77 5.35.91h2.59l1.53-.45 3.36-2.3 1.84-.76 2.75-.61 1.83-.15.92.15 2.29 1.07 2.29 1.37 2.6 2.3 2.29 2.59 4.28 6.42 2.29 4.28 1.53 3.67.91 3.97.16 3.21-.16 2.29-.76 2.44-.76 1.84-.62.76-4.12 3.52-1.68 1.98-.61 1.22-81.28 42.79-1.07 1.07-1.38.61-23.68 6.26-13.29 3.21-5.04 1.22-1.53-.15-1.53-1.22-.61-.92-44.76 7.49-40.95 8.86 8.71 10.39 6.57 8.25 9.32 12.53 11.76 16.65 5.66 8.71 17.57 28.58 6.26 11.15 2.29 4.58 1.68 4.43.61 2.91 1.38 9.47.92 3.97 3.51 8.41 1.68 4.73 3.06 16.05-48.59 8.25-3.36 1.07-1.68.76-1.22.76 19.86 103.75-18.79-13.14-.31.61-5.04-3.97-.92 2.14-1.98 13.29-.77 1.22-15.28 20.94-7.33 9.78-7.33 9.93z" stroke-linejoin="round"/></defs><use xlink:href="#c" fill="#6bacaf" stroke="#097d9b" stroke-width="5.76"/><defs><path id="d" d="M1719.86 1816.86l-.46.16-20.01 5.8-30.71 7.49-3.98 2.45-3.36 1.68-1.98.45-10.7.92h-12.22l-10.39-.92-10.08-.76-3.67-.76-2.14-1.07-.46-.16-.91-.91-.77-.46-.61-.15-1.07.15-2.75 1.99-2.6.61-5.04-1.23-7.03-2.44-4.73-1.38-.77-.45-.91-1.38-.46-.31-.92-.3-1.07-.15-.45-.46-.62-1.38-.61-2.44-1.37.61-2.29 2.29-2.6.61-1.99 1.84-3.82 2.29-2.44.46-1.53.15-5.96-.61-2.29-.15-16.04-3.37-16.65-6.26-6.42-3.67-2.9-1.37-8.25-1.84-7.64-2.14-10.24-3.97-7.03-2.14-7.48-1.83-7.8-1.38-13.9-5.8-5.65-1.53-11.31-4.13-3.36-1.98-2.9-2.29-10.54-9.78-8.86-7.64-9.48-9.17-7.79-8.25-.92-1.07-1.83-2.9-1.83-3.82-2.29-5.5-2.91-7.8-1.37-2.44-5.5 1.68-9.93 2.75-78.23 22.31-.15-.77-.92-8.71-1.52-14.51-.31-1.99-.76-4.43-.31-1.37-10.39 1.68-5.65.76-11.15 1.84-.46-2.14-.61-4.13-.77-5.81-1.37-8.55-2.6-14.21-1.38-7.95-3.66-11.91-.15-1.53.15-1.22-19.71.61-6.57.15 33-65.55 10.85-19.1 3.05 2.75 5.81 5.5 5.96 7.18 5.8 7.49 10.24 13.6 10.69 13.6 7.19 8.1 4.88 5.19 11 10.85 4.28 5.81 10.7 13.59 3.21 3.21.76-1.07.46-.15.61.15.61.16.46.61.3.3v.46l.16.61.46.61.45.92.16.61.45.92.46 1.07.46.76.46.77.92.61.76.45.46.31.46.46.3.61.31.92.3.91.46.92 4.13-5.65 7.33-9.93 7.33-9.78 15.28-20.94.77-1.22 1.98-13.29.92-2.14 5.04 3.97.31-.61 18.79 13.14-19.86-103.75 1.22-.76 1.68-.76 3.36-1.07 48.59-8.25-3.06-16.05-1.68-4.73-3.51-8.41-.92-3.97-1.38-9.47-.61-2.91-1.68-4.43-2.29-4.58-6.26-11.15-17.57-28.58-5.66-8.71-11.76-16.65-9.32-12.53-6.57-8.25-8.71-10.39 40.95-8.86 44.76-7.49.61.92 1.53 1.22 1.53.15 5.04-1.22 13.29-3.21 23.68-6.26 1.38-.61 1.07-1.07 81.28-42.79.61-1.22 1.68-1.98 4.12-3.52.62-.76.76-1.84.76-2.44.16-2.29-.16-3.21-.91-3.97-1.53-3.67-2.29-4.28-4.28-6.42-2.29-2.59-2.6-2.3-2.29-1.37-2.29-1.07-.92-.15-1.83.15-2.75.61-1.84.76-3.36 2.3-1.53.45h-2.59l-5.35-.91-6.57-.77h-3.21l-5.35.92-3.36-90.61 14.67-1.98 1.53-.46 3.21-1.22 6.26-3.98 5.5-3.66 14.06-9.78 2.59-1.38 2.45-.61h2.75l5.19.92 4.28 1.07 2.44 1.07 2.91 1.53 15.73 9.62 3.52 1.53 1.37.46h3.98l4.27-.77 2.6-.91 4.28-2.6 10.69-7.49 25.21-17.42 4.28-3.2 4.89-3.37-4.28-7.18-35.14-59.13-14.97-24.29 2.75 3.21 3.97 5.5 3.82 3.82 2.45 1.37 3.97 1.84 3.05.15 1.53.15.46.31 1.07.61 2.29 1.37.61.31h.92l.91.15h.92l.61.15h.46l3.67-1.06.91-.46.77-.16h.3l.62.16.3.15.46.15 1.07.31 1.07.3.3.16h.46l.31-.16.76-.3.31-.31.76-.3h.46l.3.15.62.31.45.3.62.31.61.45.3.46 1.38.61.61.16.46.15h1.52l.62.15.61.46.45.15.31.31.61.46.31.46.61.15 1.07.46 1.07.46.61.15.46.15.45.31.46.15.77.31.46.3.61.46.61.3.46.46.45.61.62.46.76-.61.61-.15.31-.15.15-.16.15-.3.31-.46v-.76l.15-.31.15-.31.46-.15.46.15.61.31.76.15.62.16h.45l.31-.16h.31l.3-.3.46-.46.46-.31.3-.15h.31l.61.15h2.9l.31-.15h.3l.46-.15h.31l.3-.16h1.23l1.52-.3-.61 3.05-1.53 7.34-1.37 6.42-.15 1.37-2.91 16.2-4.73 26.89-.46 3.06-.31 1.37 2.91.92 11.3 3.66 6.57 2.3 5.04 1.68 3.21.91 3.21 1.07 19.86 6.57 6.42 1.99 26.43 8.71 12.07 4.12 4.12 1.38 4.28-3.36-10.23-16.81-7.49-12.38-2.29-3.82 27.65 2.14 2.29 3.82 15.74 25.67-4.89 3.36-5.5 3.82-1.37.92-6.73 5.04 10.39 16.96 4.74 7.95 4.43 7.18-9.01 6.42-17.73 12.83 9.17 14.98-12.38 8.55-9.77 6.72-1.99 1.38-4.74 3.21-4.12 3.05-3.21 2.45 2.44 4.12 34.69 57.91 2.14 3.52 1.83-1.53 6.42-4.74 4.12-2.9 2.9-2.14 3.06-2.14 2.14-1.68 2.29 3.97 8.1 13.6 3.97 6.57 10.39 17.11-17.27 12.23-3.36 2.44 10.09 16.81 4.73 7.95 2.75 4.73.77-.15h.45l.77-.31 1.22-.45 4.74-1.53 1.07-.31.91-.3.92-.31h.76l.62.15.61.46.61.61 5.5 8.71 4.12 7.64 3.36 5.66 10.7-7.34 15.74-11.15 8.7 14.51 2.14 3.82 1.07 1.84 12.99 21.69 9.47 15.28 27.96-20.17 9.78 15.89.3.61 10.39-7.79 3.06-2.29.3-.76 4.28-3.06 20.02-14.51 2.13-1.53 10.24-7.34 6.72-4.73 5.5-3.82 2.14-1.53 3.21 5.5 6.11 10.24 10.85 18.03.61 1.07 1.99 3.51v2.29l8.09 8.1.16.76.15.92-1.38 4.58-3.36 9.48-.45.91-.31 3.21.15.46.61.31.46-.16.77-.45.61-1.07h.3l.31.45.3 1.23-.15.61-1.53 2.29-2.14 2.14-1.07.46-.45.46-1.68 2.9-1.38 1.22-.61 1.83-2.9 2.91-1.23.3-1.83 2.45-1.37.91-1.38.92-.76.31-.61.46-1.84.61-2.59 1.68-4.28 2.29-7.64 5.81-2.29 2.75-4.28 3.05-1.83.77-2.91.61-6.11 2.75-.46.15 1.84 7.49 11.46 19.25-.62.61-1.07.76-.61.62-.76 1.06-.46.77-.46.76-.46.77-1.22 1.22-.76.46-1.99 1.22-3.36 1.99-3.21 2.29-1.98 1.98-2.91 2.6-1.83 1.99-2.6 2.29-1.52 1.37-2.14 1.99-1.53 1.68-1.07 1.22-.77.92-4.43 4.58-10.08 11.92-4.89 6.27-3.21 3.82-3.36 3.97-3.66 5.81-3.06 4.12-1.38 1.68-3.66 7.18-5.35 9.32-2.6 5.5-6.87 12.07-5.04 9.33-3.67 4.73-3.97 4.13-3.82 2.59-3.21 1.53-6.88 2.75-4.88 1.68-3.52 2.14-3.82 2.91-7.33 5.8-10.54 7.79-15.59 12.84-10.23 9.01-.61.77-.31.46-.46 1.37.15.92.46.91 1.22.31.77-.31.61-.3 1.68-.61 6.88-2.29 3.66-.77 5.66.46 3.36.92 1.22.91.46.92.46 2.6-.31 1.07-.92.91-4.58 2.76-6.11 3.66-4.43 3.52-1.99 2.44-.92 1.38-1.22 1.37-2.59 1.68-1.84 1.22-18.33 11.01-4.89 2.9-12.22 7.49-7.34 5.34-11 6.42-7.64 3.67-9.77 4.58-17.57 9.63-16.81 8.86-5.04 2.44-4.13.46-6.11-.3-6.11-.16-5.04.77-12.38 2.9-4.12 1.83z" stroke-linejoin="round"/></defs><use xlink:href="#d" fill="#09757a" stroke="#00465f" stroke-width="5.76"/></svg>