<svg width="403.2" height="384" viewBox="0 0 3026 2880" xmlns="http://www.w3.org/2000/svg" xmlns:xlink="http://www.w3.org/1999/xlink"><path fill="#fff" d="M0 0h3026v2880H0z"/><defs><path id="a" d="M1801.79 1720.23l-2.27 4.63-1.89-.66-5.77-1.8-2.64-.75-.95-.29-.76-.19-1.7-.38-1.7-.37-.76-.19-.94-.19-1.61-.29-.85-.18-.76-.1-.94-.19-.85-.19-.85-.19-1.61-.28-2.27-.47-1.42-.29-1.7-.38-4.64-.75-2.36-.47-2.46-.48-1.32-.28-4.35-.76-3.03-.66-1.42-.28-1.23-.19-1.22-.29-2.27-.47-.86-.19-6.33-1.51-.85-.19-.85-.28-1.33-.38-1.13-.38-2.46-.85-1.23-.38-1.32-.47-1.14-.47-2.46-1.04-1.7-.67-2.08-.85-.28-.09-9.84-3.88-19.48-7.75-8.32-3.41-5.48-2.17-6.06-2.65-2.93-1.23-2.65-1.32-3.49-1.71-1.9-.94-5.57-3.12-1.61-.85-1.14-.76-.85-.38-1.04-.66-1.04-.66-1.23-.85-1.04-.57-.85-.66-.94-.66-1.8-1.33-3.88-3.12-.57-.47-.37-.38 1.41-.85.29-.19.76-.75.66-.76.56-.95.48-.94.28-.85.19-.76 3.69-2.17 1.42-1.14 1.04-1.61 2.08-10.21.47-3.21 5.3-9.08.28-1.61.28-.76.66-1.13.76-.85 1.7-.95.57-.56 1.51-1.99.29-.85-.19-1.04.09-.95.19-.66.47-.57 1.04-1.04.48-.09 1.32.09.47-.09.95-.76 2.36-2.55 1.9-2.37 2.08-2.93 2.55-1.79 2.55-2.46 4.35-4.64 3.5-3.97 8.98-10.11 1.71-1.71 2.27-1.6 2.45-1.9.95-.66 1.23-1.13.19-.29 8.41-13.71.29.29.09-.38 1.14-1.8 1.42-2.46.94-1.51 1.33 3.69 1.22-.57 2.94-1.51 2.93 2.08 3.78-6.9 9.93.75 7.09.47 9.93 1.71 1.7-.76 1.99-.09.38.09.66-.09v-4.64l2.55.95 3.97.28 4.16-1.89 8.99 1.89 7.18 2.37 1.52-.29 5.2-.94 4.54 2.64 1.04-6.24 9.83 1.8-1.61 7.28-1.32 7.85 4.92.47 1.89 3.97 8.6 5.39-2.36 8.99.19.94v1.04l.09 4.45.29 1.32.28.76.85 1.51 2.18 3.88.19.56v.57l-.76 1.89-.76 1.61 5.2 3.4 3.22-.75 1.8 1.98 17.58 8.89 6.34 4.16 3.97-5.58.76.38-1.04 1.42-3.22 4.16-1.23 1.7-2.55 3.12-3.97 5.3-4.73 6.24-3.03 4.16-1.22 1.51-1.71 2.37-1.51 1.98-7.19 9.27-3.21 4.44-5.68 7.38-1.79 2.65-3.12 4.82-2.93 6.05-1.33 2.84-1.79 4.44-1.8 4.07-.85 1.8-1.42 3.02-.28.57-.38 1.42-1.04 4.82-1.04 3.69-.38 1.51-.76 2.08-1.42 3.03z" stroke-linejoin="round"/></defs><use xlink:href="#a" fill="#cee3e4" stroke="#cef5f5" stroke-width="5.76"/><defs><path id="b" d="M1857.68 1625.57l-6.34-4.16-17.58-8.89-1.8-1.98-3.22.75-5.2-3.4.76-1.61.76-1.89v-.57l-.19-.56-2.18-3.88-.85-1.51-.28-.76-.29-1.32-.09-4.45v-1.04l-.19-.94 2.36-8.99-8.6-5.39-1.89-3.97-4.92-.47 1.32-7.85 1.61-7.28-9.83-1.8-1.04 6.24-4.54-2.64-5.2.94-1.52.29-7.18-2.37-8.99-1.89-4.16 1.89-3.97-.28-2.55-.95v4.64l-.66.09-.38-.09-1.99.09-1.7.76-9.93-1.71-7.09-.47-9.93-.75-3.78 6.9-2.93-2.08-2.94 1.51-1.22.57-1.33-3.69-.94 1.51-1.42 2.46-1.14 1.8-.09.38-.29-.29-.37-.19.37-.28 1.14-1.89 2.27-3.88.09-.38.29.29 2.83-4.73 3.88-6.34.95-1.89 1.51-7.75 2.65-14.56.19-1.14 1.41-8.04.76-3.68.19-1.23 8.13 1.7 3.6.76 1.98-12.11 2.08-11.53.19-1.14-.09-.28-.1-.19-.09-.28v-.19l.09-.29v-.19l.1-.28.09-.09.19-.19.1-.1.28-.09h.09l.29-1.04-9.74-2.75-1.14-.09-.47.28 3.03-18.44-.1-.56.1-.66 2.45-14.28 1.61-9.46.1-2.17-5.11-.19-6.34-.29-2.17-.09-3.12-.19-.85-.1-3.22-.18-2.08-.1-15.03-.57h-1.04l-7.85-.28-3.22-.28-1.32-.19-1.23-.29-.66-.09-.57-.1-.38-.09-.75-.47-.67-.48-.85-.85-.94-1.04-1.23-1.23h-.57l-2.93 2.08-6.62 3.6-.95.56-4.91 5.39-12.86-7.18-.48-2.55-1.04-3.31.1-1.23.09-.38-1.42-3.69-5.95-5.77 3.5-3.78 3.21-6.24 6.43-13.71 5.01-9.55 8.42-12.11 7.09-8.7 17.97-16.45 4.16-5.11 1.51-3.21 1.89-5.11 2.56-11.25.18-.66.1-.76 4.44-23.54 7.85-30.64 3.88-16.36 3.03-13.62 2.08-9.07 2.74-10.69 2.65-10.12 1.32-4.63 1.99-6.9 3.49-11.63 2.37-6.06 6.52-16.45 4.45-9.36 1.13-3.03 4.54-10.02 6.24-9.93 6.15-8.32 2.17-2.36 5.77 7.47 4.73 6.14 3.97 4.16.47.38 1.52.57 15.7-1.7 4.91 3.97 2.84 5.29-10.5 17.97-19.67 19.67 5.96 4.54 17.02 13.05-.66 1.23-.85 1.98-3.31 9.17-3.5 10.88 2.08.57 8.32 1.51 11.07 2.08 6.81 1.13 4.63.85 5.29.95 9.27 1.89-.28 1.33-.38 1.6-2.84 8.04-.94 2.36-1.52 3.03-.85 1.32-8.32 12.3-1.89 3.21-.38 1.04-.09.38-4.35 23.73-1.89 10.5-2.18 12.2 5.01 1.7 6.15 1.99-.19 12.76-.09 3.12-2.56 1.04 11.54 3.22 8.89 2.65 2.17.94 11.73 5.11 13.52 6.05 3.41-4.82.37-.57 5.11-7.19 4.73-6.71 1.51-2.36.76-1.23 1.42.94 16.07 9.93 2.46 1.7 2.27 1.52.57-.67 7.85-16.17 2.46-4.63.47-1.04v-.38l-.38-.94-.57-.85-.94-.76-13.72-5.96 13.24 3.03 5.02-3.41.94-2.93 7.47 3.22 2.84 1.13 1.32.38.66 3.5.76 1.89.85 1.61 1.14 1.42.85.66 1.23.85 2.36 1.13 2.46 1.14-1.14 4.16-2.55 7.94 5.39 2.18-5.77 14.84 3.5 1.7 3.31 1.8-.66 2.08-3.31 10.97-2.36 7.66-1.42 4.16-3.41 11.06-3.31 10.78-3.68 11.35-2.75 9.08-.47 1.8v1.79l1.04 20.71.1 1.23.09 1.23-11.73-2.84-9.17-2.08-2.46-.66-1.89-.57-5.58-1.7-4.91-1.8-3.6-1.89-.57 5.39 4.26 44.16 7.19 2.18 11.72 3.59 11.63 3.59 4.73 1.42 6.62 1.89-.19.48-1.51 2.93-19.29 32.53-2.46 4.25-.95 1.51-.37 1.42-1.42 6.34-1.23 6.24-.47 1.8-.19.56-4.26 6.91-2.36 3.49-4.16-1.41-3.6-1.14-2.55-.76-.19.48-.57 1.51-5.48 8.32-14.66 21.28-6.52 9.26-9.08 12.2-.76-.38-3.97 5.58z" stroke-linejoin="round"/></defs><use xlink:href="#b" fill="#cee3e4" stroke="#cef5f5" stroke-width="5.76"/><defs><path id="c" d="M1807.37 2682.18l.38 3.22.57 3.68.38 3.41-.19 3.5-16.46-4.35-.75-2.08-1.04-1.7-1.04-1.05-.85-.56-2.27-1.04-3.41-1.33-9.26-2.08-1.05-.09-1.51.09 2.08 4.64-2.65-.57-13.61-3.69-36.98-9.93-22.5-6.24-21.75-6.14-6.72-2.18.29-4.16.09-2.74-.19-.85-.47-.48-3.03-1.13.38-1.8 1.42-5.1 3.03-8.8.47-2.27 1.32-5.01 1.04-3.4.95-1.52 1.04-1.13 2.18-1.7 4.06-2.27 3.88-1.23 3.78-2.37 2.74-1.51 1.52-.94 2.27-1.8 1.04-1.14 3.49-7.75 1.42-4.35v-1.13l-.28-.67.28-.18.1-.19.09-.29-.09-.47-.29-.38-.37-.38-1.61-1.7-1.23-1.8-3.97-5.39-10.78-13.33-1.52-1.79-2.93-2.94-2.65-2.17-4.34-2.65-7.48-3.69-8.41-3.59-5.49-1.99-2.83-.85-4.64-1.32-4.25-1.8-1.33-.56-1.13-.38-1.14-.29-20.42-3.78-5.11-1.23-3.31-1.04-8.13-3.31-1.89-1.04-1.42-1.13-1.61-1.99-1.32-2.36-2.46-5.58-1.13-1.8-3.5-4.16-3.12-3.4-1.14-.95-2.65-1.61-3.12-1.6-2.17-.95-2.37-.85-2.17-.47-2.84-.19-8.13.57-9.83 1.22-2.84.38-6.53.95-12.57 2.84-2.74.28-5.02.28-.66-2.27-.75-2.93-.57-3.21-.29-4.54-.19-13.81-.18-20.9-.19-5.39-.57-5.29-.76-5.3-1.89-8.03-5.1-17.69-3.69-12.57-1.8-5.2-1.42-3.88-.94-2.18-1.89-3.97-2.46-4.54-1.52-2.45-1.98-3.31-3.6-6.15-.75-1.04-.57-.95-13.99 6.53-51.73 23.26-1.23.57-43.12 20.14-8.04 4.07-24.4 10.4-61.27 26.76-23.36 10.3-10.4 4.54-2.46 1.14-30.83 13.52-18.06 7.94-61.09 27.61-55.31 24.97-11.07 5.29-1.51-.28-5.96-1.42-26-5.96-21.85-5.1-12.76-3.12-7.76-1.89-5.77-1.42-5.29-1.23-.47-1.42-.19-1.13.38-1.9 11.91-4.35 9.36-3.4 4.54-1.7 3.31-1.14 8.13-2.36 7.38-1.8 26.76-5.2 23.36-4.06 2.93-.57 6.24-1.33 5.29-1.89 30.64-13.52 2.56-1.13 17.3-7.57 2.65-.94 1.7-.48 4.26-.66 3.68-.28 15.04-1.04 1.99-.19 10.11-.29 6.24-.28 2.65-.19 1.61-.19 2.55-.47 2.08-.66 2.75-1.14 3.02-1.79 2.37-1.8 5.29-4.82 3.03-2.93 3.5-3.88 12.01-14.47 2.93-3.21 2.17-1.8 2.65-1.8 6.62-3.87 7.38-4.35 7.18-4.26.38-.28 3.5-2.46.28-.19 1.52-1.51 1.23-1.52 1.7-2.55.47-.94 3.31-6.25 3.5-6.8 5.58-10.78 4.06-8.23 1.9-4.54.85-2.65 3.59-12.48 1.7-6.9.29-1.32 2.17-13.43 3.22-20.62.66-4.16-2.08-.94-17.5-8.61-4.54-2.08-13.8-5.67-4.73-2.08-21.65-10.5-.19-.09-2.84-.95-1.51-.28-2.46.28-1.42.38-1.61.85-1.61 1.14-1.41 1.6-1.9 2.93-1.79 3.79-2.37 4.16-.75 1.04-.76 1.32-2.27 2.93-4.44 5.01-16.93 17.12-3.22 3.03-2.36 1.79-24.4 16.17-2.17 1.8-1.61 1.8-2.36 3.4-1.23 1.99-3.03 5.67-1.7 2.65-1.32 1.51-4.54 4.07-12.2 10.87-10.21 9.17-1.8 1.42-11.82-14.66-12.39-16.64-1.32-1.51-2.27-2.37-2.46-2.08-7.94-5.86-10.78-7.66-3.6-2.46-3.12-2.36-2.46-2.27-.09-.09-2.08-2.46-1.33-2.46-.85-1.7-.66-1.89-.76-2.46-.18-1.71-.76-6.05-.66-4.35-.76-2.46-1.04-2.26-1.51-2.65-.66-.85-3.41-3.88.28-.66 2.56-3.88 1.98-3.31.95-.94.47-.38 1.42-.57 3.31-.76 3.4-1.41.67-.19 1.23.19 1.41-.19.86-.38.56-.38.19-.47-.09-3.03.09-.66.38-.57.57-1.8.19-1.13-.48-2.55.19-.66.29-.57 1.98-1.99.85-.47.48-.1.47-.37-.1-.38-.28-1.33v-.75l.28-1.04.67-1.42.66-.85 1.61-1.42 4.53-2.17 1.42-1.14.67-.76.85-1.79.85-1.14.75-.75 1.23-.76 1.71-.57 2.17-.47 1.32-.47 2.18-1.8 1.13-.76 1.8-.94.57-.38.38-.47.28-2.08.19-.85.28-.19.57-.19 1.8.19h.94l.85-.38 2.84-2.55 1.13-.67 2.84-.75 1.33.09 1.13.38 1.14.57.85.28.75.1.48-.29 1.22-1.61.76-.56 4.92-2.18 1.04.19.66.28h.66l1.99-.56 1.89-.48 2.08-.56.95-.1 1.13.1 2.93.85 1.99-.19 2.08.38 3.12-.66 7-.1.56-.28.57-.76.66-.57.76-.38h.28l.48.19 1.13 1.14h.38l.28-.47.1-.86.28-.37 1.32-.19.48.09.94 1.14.29.09.47-.09 1.61-.85 1.7-1.42 2.08-.48 1.13-.37.95-.67.09-.18.1-.95v-.85l.09-.66.48-.29 1.04-.19 2.08-.09-1.33-1.51-.37-.76-2.09-4.82-2.64-4.26-1.04-1.79-.19-.67-.29-1.32-22.5-15.51-18.44-12.67-.66.85-.19.57-.29 6.52-.47 1.42-.66 1.42-.38.28-1.13.67-1.99.75-2.84.57h-.94l-.76-.19-9.17-2.74-3.12-.66-1.8-.66-1.13-.76-.85-1.04-.1-.47v-3.41l.19-.75.57-1.33v-.85l-1.61-7.85-.47-1.04-.57-.66-.57-.19-2.55-.38h-1.99l-1.23.1-2.08.85-.37.38-.86 1.13-1.32 2.74-.85 1.14-2.46 2.08-.76.94-.37.67-.67 3.59-1.04.94-1.41.48-1.8.28-2.74.28-.76-.09-.47-.09-.38-.38-3.03-3.6-.47-.47-.95-.38h-.47l-.75-.09-2.94.28-4.82 1.8h-.66l-.38-.1-3.31-3.12-.76-.37-1.22.18-1.99.86-.76.56-3.97 3.97-1.98 1.52-5.3 3.21-1.42 1.33-4.06 4.82-4.07 4.25-2.55 2.37-1.14.28-2.55-.09-4.35.38-.95.28-3.31 1.61-.56.47-1.23 1.51-1.04 1.7-1.42 2.94-2.93 6.33-4.45 8.7-1.61-1.8-1.04-1.32-1.41-1.89-1.23-2.08-.95-1.89-1.13-3.22-.95-4.06-.76-4.92-.19-3.97v-.1l.48-17.68 1.79-1.99.95-1.13 2.55-3.4.76-1.52.47-1.7.19-2.36v-2.37l-.19-1.89-.75-3.21v-1.23l.66-2.27.47-1.23.85-1.32 2.55-4.54-2.64 1.23-3.79 1.51-4.53 1.7-1.61.57-15.04 5.39-6.43 2.17-5.48 1.42-7.38 1.7-10.12 2.18-11.44 2.46-16.36 3.5-2.65.56-1.7.29-16.07 3.02-9.74 1.52-4.92.66-9.27 1.13-5.58.38-3.4.09h-15.89l-16.92-.18h-.38l-5.49.37-3.59.67-4.54 1.13-1.04.28-16.08 5.39-13.14 4.73-14.09 5.68-2.93 1.22-5.77 2.27-4.16 1.23-1.61.57-10.49 2.93-4.92 1.61-2.37-3.78-1.41-3.41-1.42-3.02-.76-1.04-1.61-1.52-1.32-.75-3.4-1.42-3.22-1.7-2.84-1.89-2.08-1.33-2.27-1.42.19-.94.1-.76v-.85l-.19-.76-.38-1.32.09-1.23.29-1.13.28-.95.85-.57 1.71-.75 2.36-.57 2.46.38.94-.29 2.27-1.41 1.23-1.14.95-1.42.28-.85.1-1.04-.1-1.61.38-1.51.66-.76.47-.28 1.23-1.8.48-1.04v-.66l-.38-2.93-.47-1.51-.38-.66-.48-1.04-.28-1.61.1-1.04.28-.66-.1-1.14-.37-.57-.57-.47-1.04-.47-.76-.76-.19-.28-.47-1.42v-1.04l.28-.95.48-.94.47-.95.19-1.23.19-.94-.1-1.33.1-1.32.47-1.32.85-1.23.95-1.14 1.13-.94 1.61-.48 1.42-.18 1.13-.57.95-1.33 1.42-1.41 1.7-1.52 1.42-1.13.85-.95.38-.75.09-1.33v-1.42l-.28-1.51-.1-.85.19-.85.57-.66.66-.57.95-.19h1.23l2.17.19 1.61-.1 1.98-.28 1.33-.19 1.32-.19.95-.56.28-.48.29-.75.28-1.42.09-1.33.19-1.13.95-1.61 1.04-1.13 1.61-1.33.56-1.23.67-.94.37-1.14.67-.56 1.13-.29.85.48 1.04 1.13 1.42.28 1.61-.28 1.51-1.04 1.23-1.23.38-.66.09-1.23.38-.66.95-1.33.66-.47.66-.38 1.23-.19 1.89-.09.85-.1 1.14-.56 1.98-1.61 1.89-1.8 2.65-1.98 3.78-2.56.48-.56.19-1.14v-.66l-.38-2.74-.1-1.33.57-6.24.1-3.02-.48-3.31-.75-1.7-.85-.76-1.99-2.46-.47-.85-.29-1.51-.09-2.08-.19-1.04-.38-.57-.47-.29-.57-.18h-3.21l-2.27-.19-1.52-.48-1.51-.94-4.26-4.82-2.55-4.16-.57-1.04-.47-1.52-.19-1.23-.09-.75.28-1.14.19-.57 1.51-2.17-5.39-1.04-2.27-.38-1.41.28h-1.23l-.85-.66-.67-1.04-.56-.47-1.61-.66-1.42-.38-.19-.19-.28-.66-.19-.95-.19-.56-.57-.67-.94-.85-.57-.75-.29-.85-2.36-8.89-1.61-3.12-2.93.85-9.83 2.46-3.22.09-1.51-.09-3.41-.38h-2.55l-2.36.38-3.5 1.04-6.62 2.27-3.12 1.22-6.72 3.5-13.71 7.95-4.82 3.12-8.89 6.71-4.25 2.74-11.63 5.87-7.29 3.4-3.59 1.32-1.61.48-5.58 1.41-3.12.86-3.97.94-.94-.38-.19-1.32-.67-1.61-.85-1.32-1.32-1.23-2.17-1.33-4.64-2.45-3.31-2.08-7.09-5.02-2.84-1.89-1.13-.56-1.42-.48-1.51-.38-5.96-.66-1.51-.47-1.61-.76-1.51-1.04-1.42-1.32-5.11-6.71-.76-.86-1.51-1.51-1.8-1.51-1.79-.85-1.61-.57-1.89-.19-2.27.28-2.46.95-6.05 3.12-13.33 7.28-17.03 9.27-1.98.94-1.14.38-1.79.38-.48.85-.94.66-5.01 2.46-1.52 1.04-7.94 4.54-3.12 1.99-2.27 1.04.19-2.08-.09-2.65-.48-1.61-.75-.85-1.23-.47-.76-.19-1.99.09-2.27.38-2.08.29-.75-.19-.66-.57-.48-.38-.85.1-1.23.37-1.32.19-.57.19-.57-.19-.18-.56.18-.86.1-1.32-.1-.85-.37-.28-.86.09-1.04.57-.37.47.09 1.51.1 1.04-.19.67-.48.47-1.51.94-1.51.85-.85.19-.76.38-.47.38-.29.66-.28.85-.38.19-.57.29-.47.37-.09.67-.19 1.04v.56l-.19.57-.47.19h-.67l-1.23-.28-.28.19-.19.47v.85l.1.85-.38 1.04-.19.85-.76 1.04-.66.47-.85.38-.66.29-.57.37-1.51 1.9-1.8 1.32-2.36 1.32-2.94 1.61-2.26 1.14-1.99.85-1.14.38-.75-.29-.66-.66-.76-.76-.38-1.04-.28-1.23.09-1.23-.19-1.32.1-.85.57-1.04 1.04-1.32 1.13-1.8.19-1.61.76-2.08 1.41-2.93 1.14-1.32.76-1.42.18-1.52.1-.37.47-.67.57-1.13.57-.47.09-.95-.09-.57-1.23-2.36-.19-.76v-.85l-.38-1.89-.09-1.32 1.22-4.73 1.61-8.7-.19-1.13-.28-.86-1.04-1.41-.66-1.99-.29-.47-.47-.29-.57-.09-.85.09-.75.76-1.04.38-1.71.28-4.63-.75-1.51-.48-.66-.66-.95-2.27-.57-2.27.19-1.04.38-.85.19-1.23-.19-.66-1.23-1.51-1.89-.76h-1.61l-1.89-.47-1.23-.66-.57-.48-.47-.85-.76-2.17-.47-2.27v-1.8l.19-.66.57-.38 1.32-.19.29-.28.09-.76-.28-.66-.57-.66-1.51-1.14-.57-.28-1.04-.19-1.51.09-.86-.28-1.04-1.42-.56-.75-.95-1.33-.66-1.42-.38-1.41-.47-2.08.09-1.05.29-1.13-.1-.95-.66-2.26-.76-.48-.75-.75-.67-.38-.75-.1-1.14.1-.75.28-.76.47-1.51 1.33-.85.28-1.71-.38-3.31-2.17-.66-.29-.85-.09-1.32.38-6.62 5.01-2.18 1.51-1.04 1.23-1.79 2.46-1.8 2.08-1.23.95-2.17.19-2.56.85-3.4 1.42-.66.18-7.76 7.76-2.65 1.42-6.61 2.36-3.31.38-3.31 1.23-6.34.85-3.03 1.61-5.01 2.17-5.48 4.64-4.07 2.45-4.92.48-.56.28-6.62 2.65-9.65 6.81-11.82 8.13-11.82 6.62-4.63 3.02-8.51-23.83-.48-1.32-.37-1.23-1.61-5.2-15.6 1.51-2.37.19-2.93.38-3.21.76-3.03 1.04-1.32.56-1.99.95-1.7 1.04-2.84 1.89-1.13.95-5.21 5.1-15.6 15.61-1.79 1.51-1.99 1.51-4.92 3.12-4.82 2.84-27.14 16.55-20.05 12.2-6.24 3.68-6.81 4.35-5.39 3.97-26 20.81-3.12 2.74-2.56 2.84-8.41 11.15-3.41 4.35-2.64 2.65-3.12 2.46-4.07 2.46-4.63 2.17-3.41 1.71-3.21 1.98-2.75 1.99-1.89 1.79-6.9 7.19-4.54 4.73-1.13-2.65-.29-.76-1.98-6.9-7.38-22.03-.19-.1-1.61-2.45-.18-.19-.86-1.23-.28-.95.1-.85.28-.28-11.44-30.64-11.35-38.01-2.93-8.7 5.86-2.74 1.61-1.04 1.51-1.61.76-1.52.85-2.26.94-3.98 1.14-6.24.28-2.46-.09-3.12-.57-3.87-2.65-12.39-.85-5.77-.38-3.88.29-8.7 1.32-21.74.47-3.22.76-3.12.66-1.7 1.23-2.27 2.37-3.03 2.27-2.27 2.55-1.98 11.44-7.09 7.38-4.83 6.43-4.63 13.71-9.64 4.06-2.94 7.66-5.39 9.18-6.71 3.78-2.27 2.46-.94 2.46-.57 2.74-.1 2.65.29 2.17.66 1.99.94 2.36 1.33 1.7 1.42 2.27 2.17 4.73 5.01 2.93 3.03 2.46 1.98 2.08 1.33 2.65 1.32 2.55.76v3.02l.19.95.76 1.61 1.04 1.61 4.92 5.39 6.05 6.33 17.59 18.91 21.08 22.79 3.79 4.26 1.98 1.42 3.22 1.98 3.97 1.99 1.8.75 1.6.48 1.61.37 1.61.19 2.27.38.75-3.5 15.7-10.3 5.3-.38 12.38-7.28 4.54-3.97 24.59-11.54 1.8-.47 3.78-.48-.47-1.04.09-.85.28-.57 1.23-1.13.95-.19 2.46-1.89 1.89-1.23 4.35-3.4 1.89-.85 2.93-2.18.95-.19.57.1.66.47 1.98 2.65v-.67l.38-.94 1.23-1.7-7-21.09-32.72-89.83-9.55-26.95 8.32 6.9 3.5 2.84 3.31 2.17 1.33.67 3.31 1.32 1.98.47 1.33.19 2.17.1 1.99-.29 2.27-.47 4.35-1.32 7.18-2.94 5.39-2.83.76-.48.57-.37 2.55-1.61 13.43-9.46.76-.56 19.66-13.62 13.43-9.55 7.28-4.92 15.51-10.02 13.71-8.99 26.58-16.73 4.06-2.37 3.41-1.6 5.01-2.18 20.14-8.7 6.33-2.27 5.11-1.32 17.87-3.78 3.03-4.54-9.93-7.47-4.54-3.31-13.05-9.27-11.82-7.85-9.27-5.86-10.68-7.09-9.46-5.68-6.62-4.06-3.87-2.56-3.31-2.55-5.49-4.73-10.97-9.17-4.82-4.35-2.46-2.65-3.88-5.29-2.36-3.22-1.13-1.32-.95-.76-1.23-.85-1.23-.75-5.48-2.37-8.89-3.5-11.26-4.44-3.4-1.51-2.36-1.42-2.46-1.89-.76-.85-1.04-1.14-1.04-1.51-1.42-2.46-8.89-16.55-1.79-2.93-1.23-1.61-1.04-1.13-1.04-.85-1.42-.76-1.51-.76-1.61-.47-2.27-.38-2.65-.19-3.21.19-1.61.29-4.35 1.23-2.08.85-1.89.85-1.23.75-1.23 1.04-1.51 1.52-2.46 2.83-1.61 1.52-1.42 1.04-1.51.85-.66.28-1.8.76-4.73 1.79-3.69 1.23-7.37 2.65-3.79 1.51-4.35 1.99-6.05 3.22-3.78 1.98-1.23.38-3.21.66-9.46.29-12.58.18-1.42.1-4.44 1.04-7.85 3.12-16.26 6.81-1.52-3.69-7.09-17.68-.28-.76-13.43-33.1-11.44-28.55-8.61-21.37-5.67-14.09-1.99.28-3.87.85-2.65.1-1.14-.1-2.93-.56-2.46-.76-1.6-.76-1.99-1.51-1.14-1.04-2.26-2.93-1.8-3.12-1.99-3.6-.56-.85-1.23.1-.67-.1-.66.38h-.85l-1.32.47-1.33.29-1.23.19-1.13.09-1.61.1-1.89.37-1.7.95-1.51 1.32-1.23.29h-1.61l-1.04-.19-1.04-.57-.76-1.04-.75-1.42-.86-1.79-1.51-1.71-1.23-1.23-.94-1.32-1.23-1.23-1.42-.57-1.14-1.23-1.04-1.13-.56-1.42-.29-1.23-.85-1.51-.94-.85-.95-.38-1.13-.28-1.04-.38-.95-.19-1.04-.28-1.23-.29-.66-.47-1.51-.76-.86-.56-1.13-.86-.85-1.23-.57-1.51-.19-.38-.19-.75-.28-1.7.09-1.14.1-.38.66-1.23 3.03-5.29-2.94-3.31-1.6-2.18-3.03-3.31-4.82-5.2-3.12-3.12-5.86-6.52-2.27-2.18-2.18-1.6-1.23-.76-1.89-.66-1.23-.19-1.61.09-4.06 1.23-9.74 4.16-2.75.85-1.6.1 1.04-.95.75-.94.57-.67 1.42-2.64.76-2.08.37-1.8v-2.27l-.18-2.08-.95-3.88-3.03-9.17-.66-3.21-.19-1.61.1-2.18.47-2.08.95-3.02 9.83-20.05 1.32-2.46 1.52-2.55 7.37-10.69 4.16-5.86 9.74-13.62 4.92-6.52 2.65-3.21 4.54-4.45 14.09 35.08 1.51-2.27.66-.38.48-.28h1.13l1.61-.47.66-.47.57-.48.37-.75.29-.95.66-2.74.66-2.08 1.14-1.61 1.42-.94 1.98-1.42 1.14-.38h4.91l4.35-.57 2.27-.57 1.42-1.04.38-.75.47-1.99.19-.57.47-.56.48-.29.94-.19 2.37.19 1.04-.09.47-.19.76-.66.28-.57 1.89-4.92.76-.75 1.13-.29 2.08-.38.66-.47.29-.94.19-.85.19-2.37.28-.94.66-1.04.57-.48.95-.38 1.51-.37 1.13-.19.57-.1 1.04-.38.85-.66.66-.94.19-.57.85-5.01.76-2.84 2.08-2.74 1.8-1.8 2.36-1.79 1.89-1.99.48-.85.28-.95v-.75l-.47-2.84-.76-2.84-.85-2.36-.57-1.14-.47-.56-1.7-1.14-.57-.47-.28-.95-.1-.85v-5.86l.38-1.99.38-.85 1.7-2.83.76-1.61.75-3.5 1.14-8.51.47-1.04.38-.38.38-.19 3.59-.94 1.04-.38.38-.66.19-1.23-.29-1.8-.47-1.8-1.8-2.17-1.13-1.14-.47-.66-.38-.75-.1-.67.19-.47.19-.47.76-.57 1.42-.66.28-.47-.09-1.14-.38-1.89.09-2.17 5.3 4.44 2.46 1.8 1.23 1.23 1.7 2.08 4.25 7.09 1.89 2.46 1.71 1.89 1.7 1.32 3.97 2.18 7.19 3.02 2.74.95 2.84.38 2.36-.1 2.65-.47 2.36-.66 14.57-5.01 10.96-3.5 10.97-4.26 4.45-1.51 4.06-1.04 1.99-.29 7.66-.85 7.38-.47 5.95-.09 3.5.37 3.69 1.04 2.27 1.14 2.93 1.99 3.12 2.74 2.84 3.02 1.61 2.27 1.13 2.37 1.23 3.59 1.89 7.47 1.61 4.07 4.16 16.73.19.76 3.02 11.54 1.33 4.53 1.61 4.35 4.72 13.34 1.9 5.77 2.17 6.33 4.07 10.69 3.87 8.32.76 1.98.85 2.46 1.23 5.2 1.51 6.15 1.14 3.97 2.36 6.62 3.5 9.93 1.8 6.24 1.13 3.59 1.52 4.16 2.36 4.35 3.59 5.96 2.93 5.01 3.03 5.68 3.12 7.09.19.38 2.36 5.48.86 1.32.18.48 1.23 1.32.29.19 2.55 1.61 4.07 1.7 2.36 1.32 2.84 2.18 9.64 7.37 3.97 3.12 8.33 6.25 4.16 2.83 2.93 1.42 2.17.76 2.56.56h2.45l3.41-.37 4.63-.95 4.73-.85 6.05-.57 28.66-2.83 9.17-.86 5.86-.66.85-.28.76-.47-16.17-27.52-2.18-3.78-.85-2.18-.75-2.55-2.37-9.55-.85-4.16-.19-2.37.19-1.6 1.51-5.11 3.88-11.44 1.8-4.73 1.6-5.77 6.72-28.46 2.93-11.25.38-2.37v-2.74l-.38-2.55-.76-2.27-8.51-21.75-8.32-21.94-9.83-26.57-.1-.38-13.71-35.27-4.54-10.31-9.27-24.39-5.39-15.23-1.6-3.97-2.18-3.97-3.21-5.39-7.95-19.86 10.69-5.29 6.34-2.18 3.21-1.42 3.31-1.6 5.86-2.08 1.04-.57.38-.57 1.04-2.55 1.8-5.01 1.61-3.6.94-1.41.95-1.14 2.17-1.8 3.22-1.98 14.37-7 10.12-4.82 2.84-.95 3.31-.75 2.36-.1 11.73.48h3.49l26.29-86.24 119.91-6.53.28-3.12.57-2.36.94-.95 1.23-.75.67-1.14v-.94l-.1-1.14-.38-1.7-.09-1.33-.1-1.32-.28-1.7-1.14-3.88v-1.04l.19-.66 7.1-4.63.37-.29 3.13 2.46 4.25 3.78 4.16 3.79 3.31 2.17 3.03 1.7 1.89.95 1.42.47 2.93.76 4.35.66h5.39l6.52-.19 1.52-.09 8.98-.1 1.51.1 3.31.28 4.16.66 3.12.66 5.58 1.71 6.43 2.64 2.84 1.52 3.97 2.27 3.59 2.64 3.98 3.22 7.94 6.71 47.38 39.34 15.03 12.76 4.35 3.12 2.08 1.42.57.38 3.21 1.7 3.88 1.52 3.88 1.32 2.93.95.94 1.13 2.08 2.46 4.26 5.2 12.01 14.47 11.44 13.8 2.37 3.03 1.89 3.21 1.89 3.88 3.88 10.97 3.12 9.65 3.21 10.49.28.76 1.9.75 1.32 1.52 9.55 8.22 1.99-1.89 1.41 1.52 1.23.66.86 1.04.75 1.13.66 1.23.57.95 1.42 1.89 6.62 5.86 12.67 9.74 6.9 4.54 4.45 2.65 5.39 3.4 24.58 15.41 1.52.95 2.93 1.14 3.02.94 10.88 1.89 5.29.29 7.38-1.71 3.12-.85 1.14-.47 1.51-.19.09.1.38.28.47.66 1.23 2.36.29.19.47-.09.38-1.23-.38-1.32-3.03-12.86 3.12-2.37 1.42-1.51 1.99-2.74 1.7-1.61.38-.38 3.31-2.74 2.17-2.08 3.6-2.65 3.97-2.93 3.69-2.74 7.28-5.39 2.17-1.52 2.84-1.51 5.86-3.12 7-1.61.76-.09.28-.1h.47l1.04.29 7.95.57 14.84 3.78 7.76 3.59 5.39 4.54 5.29 5.77 5.02 6.9 3.3 7 14.28 30.35 3.31 7 .95 3.69.94 4.82 1.71 5.11.37 1.04 1.8 4.06 3.88 4.16 10.4 10.78.38 2.93 3.31 9.74 2.65 6.53 2.74 7.28 3.69 6.15 2.17 2.83 3.31 4.54 5.58 5.67 7.09 4.26 4.07.95v.75l1.89.38h.76l.47-.09 6.71 15.03 3.97 7.28 4.07 4.92.57.66 1.13 1.32 41.42 37.07 3.97 3.6 5.87 5.67 14.94 14.37.28-1.51.28-.57.57-.47 1.04-.57.95-.28 1.79.19 3.41.94 1.61.19 1.23-.47.56-.1 1.04.38.66.48 1.42 1.7.48.28 7.28 2.65 7.28 3.12 6.71 3.21 6.53 2.56 1.98 1.13 3.88 2.27 6.34 4.07 1.6 1.32 3.88 2.84 4.73 4.54 2.55 2.46 3.03 3.59 4.92 5.48.94.76.85.47 1.33 1.14 5.2 5.95 1.79 2.56 3.88 6.05 3.97 8.89 2.65 5.39.47 1.42.1 1.89-.29.47-.47.38 8.32 8.6 17.21 17.88 11.16 6.24 7.66 4.25 19.1 5.49-1.79-3.03-.19-.85-.1-.66.1-.67.19-.56.47-.66.66-.57 5.77-3.31 7.28-5.39 1.51-1.33 5.58-5.48 6.53-6.71 9.93-11.26 1.6-1.7 4.45-3.78 3.78-2.93 2.65-1.61 3.12-1.8 2.17-.56 8.14-2.08 3.31-1.42 2.45-1.23 2.37-1.23 1.23-.85 6.43-5.49 3.4-3.49 1.23-1.33 1.04-.38.29-.09.47-.1.47.38.28.85 3.5 15.04.29 1.89 3.21-11.91-.19-2.56-.38-3.21v-2.46l.1-2.65.38-2.36.38-2.18.85-2.27.85-1.6.94-1.14.57-.95.57-.66.85-.56.85-.95.76-.76.66-.75 1.13-.48 1.23-.75 2.08-.66 2.93-.48 3.03-.09 2.65.09 2.36-.19 2.27-.09 1.8-.28.38-.38 3.59-.76 7.85-.85 2.36.57 1.61-.19 1.89-.57 1.8.1 1.61.47h.94l2.84-.95.94-.09 1.14.09 3.78 1.61 1.14.09.94-.18 2.65-.95.66-.09 1.8.09 5.01.47 6.9.29 7.38.19 1.32.47.38.47h.76l1.23-.19 1.04-.28.66-.29 2.93-1.6 1.99-1.52.75 1.71-.75 2.36-1.8 5.01-1.51 3.31-1.23 2.74-1.89 3.12-2.37 3.12-1.32 1.52-1.33 2.65-.28 2.08-.28.85-.19 4.25.09 1.61.85 6.62v.38l1.99 12.86.38 2.17.09 1.04.38 1.61v1.23l.19.28 4.07 16.55 1.32 5.58-.95.85-4.16 3.78.19.76 4.64 6.15-1.14 1.51-1.51 1.51 1.13.66 1.23.85 1.33.95 1.04.76.94.75.85.66.95.76.85.76.66.56.66.57.76.76.85.85.76.76.85.85 1.7 1.89.19.19.09.19.57.66 1.33 1.51.85 1.23.94 1.14.66 1.04.86 1.32.75 1.13.76 1.14.57 1.04.56.94.67 1.14.66 1.42.75 1.42.76 1.6.38.85.38.76.37 1.04.38 1.04-.38 1.14-.37.85-.85 2.46-.86 2.93-.18.94-.48 2.08-1.98 12.01-4.26 30.36-1.42 8.79-.28 1.99-.19 1.41-1.32 9.55-.57 3.31-1.51 6.53-.67 2.74-1.23 4.07-2.17.66-1.23.76-3.12 2.45-2.84 2.37-2.93 1.51-2.74 1.32 3.59 6.62 1.23 1.99.95 1.32.47.67.76.75.56.47-2.36 7.57-1.23 5.11-.57 3.31-.85 5.76-.47 4.83-.28 3.68v3.22l.47 8.04.57 4.06.37 2.37 1.52 6.62 2.27 6.43 1.42 3.49 1.51 3.31 2.46 4.64 1.6 2.46 1.04 1.6.86 1.14 1.98 2.74 1.89 2.36 3.5 3.79 2.46 2.27 1.51 1.32 2.75 2.27 1.7 1.13 1.89 1.33 2.17 1.42 5.39 2.93 6.24 2.55 4.92 1.61 3.88 1.13 22.88 6.72 2.37.75 11.35 3.41 33.09 9.74 13.81 3.87-.1 4.07.1 5.3-3.78 3.49-7.19 7-5.58 5.39-15.04 14.85-9.17 8.98-13.33 13.05-6.15 6.05-5.77 5.58-11.63 11.35.57 2.17.09 2.18-.09.66-.28.28-2.18 1.33-.28.47v.85l.09 1.14-.09.37-.48.48-.94.37-.19.29.09.47.1.38.85.94.09.67-.09.56.19 1.04v1.9l.28.75.57.66.19.76-.38 1.23.19.76.28.37.76.19.38.38.66 1.14.57 1.32 3.12 12.29 8.51 15.7-1.61 1.42-2.17 1.61-2.08 1.04-1.8.47-.85.09-.95.19h-.66l-1.51-.19-2.46-.66 2.84 1.8 4.44 2.74 3.78 2.84.57 2.74-.38 1.8-.28.85-1.7 3.5-.95 1.98.28 1.61.38 1.51-.19 1.89-.66 1.89-.38 1.42-.56 3.22-.57 1.7v2.46l-.29 1.04-.28.38-1.42.66-.28.57-.19.75.38 5.2-.19 3.88 12.95 6.43 1.9 1.04 1.89 1.61.94-1.04.85-1.42 10.5-8.79 4.16-3.79 4.54 5.68 10.21 12.76-2.36 2.08-12.2 10.31-1.42 1.61-.57 1.23-.56 2.08-.19 3.4v.19l3.4 2.46 4.26 1.7 5.2 1.32-10.5 4.73-30.45 11.92-.38 7.18-.94 12.3-1.42 13.33-.85 7.28-.57 4.25-.85 4.45-3.03 11.82-.94 4.73-.66 4.91-.29 1.99-.09.85.76.19.47.19.38.09.75.1 20.52 5.01 37.17 12.67 81.79 35.65 18.63 8.32 4.73 1.99-1.42.56-24.21 10.97-56.92 25.72-22.42 10.12-15.6 7.66 3.88 8.04 5.29 12.01 1.99 4.73 1.04 1.6 1.14 1.23 2.36 1.51 22.13 11.82 17.96 9.93 10.78 5.77.95.66 1.61-2.36.28-.38 7.66-10.21 5.01 4.63 4.16 3.97 1.89 1.99 2.46 3.03 2.56 4.06.85.95.94.66 2.37 1.13.85.67 5.67 5.76.1.1 1.6.94 2.56 1.14 1.32.94.66.67.38.94v.85l-.47 1.71-1.23 2.74-.57 1.13-1.04 1.7-1.98 2.27-2.08 2.18-3.22-3.78-2.74-3.22-1.14-1.04-1.79-1.23-1.33 2.46-1.13 2.08-.85 1.23-1.61 1.42-.76.38-.94.37-1.04.38-1.23.1h-1.61l-1.8-.57-1.13-.57-13.43-7.28-5.48-3.4-2.46-1.61-4.16 8.13 9.93 11.44 21.56 20.43 1.79-.66 1.61-.19h1.61l1.7.28 5.48 1.42 5.02.19 1.13.09.19 2.46v1.04l.09 1.14.1.94-.19 1.7v3.12l-.09 1.8-.29 1.42-.57 1.99-.37 1.6-.67 2.84.1 3.03.66 2.36.76 1.32-1.23 14.47-.19 2.65-.28.66-1.9 1.42-.37.19-1.04-.1-.38.19-.57.57-1.32 1.89-2.27 2.46-5.96 3.4-14 8.04 1.23 2.37.85 11.34 11.35 144.96 3.12 2.08 1.7.66.95.29 13.71 1.8 17.31 2.55-.19 2.36-1.89 13.24-.1 3.22.29 6.43 1.6 15.31 1.04 11.35z" stroke-linejoin="round"/></defs><use xlink:href="#c" fill="#9dc8ca" stroke="#9dd7f0" stroke-width="5.76"/><defs><path id="d" d="M2601.23 2480.77l-4.64 8.89-7 12.1-14.56-11.72-12.58-9.93-3.12-2.37-3.21-1.89-11.35-8.98-12.01-9.74-11.82-9.65-36.5-29.5-2.36-1.89-6.15-5.01-3.59-2.93-11.07-8.7-3.5-2.93-4.72-3.79-17.88-14.37-22.88-18.53-14.37-11.35-5.11-4.35-.76-.57-26.47-21.18-22.42-17.87-10.21-8.32-12.95-10.59-11.26-8.98-11.63-9.55-22.6-18.25-9.93-8.04-.28.38-1.51 1.6-2.46 2.08-3.69 2.65-.47.47-.67 1.04-1.04.76-4.72 2.08-1.52.57-1.6.19-.67.19-1.04.66-.66.28-1.61.19-.66.19-.28.38-.66.38-1.52-.1-.94.48-.47.09h-.57l-1.99.66-2.46.47-4.54.38-2.74-.19-2.74-.94-.95-.57-2.08-.85-9.17-1.23-.94-.28-1.04-.1-.67.1-.75.47-.57 1.23-.95 2.93-.47.38-.47.28-.76-.09-8.89-3.12-7.47-1.61h-1.7l-1.13.28-.95.1-1.13-.19-4.73-1.42-.95.09-.66-1.04-.57.1-.75.38-.1.28v1.42l-.47.19-3.22-.47-.85-.29-.57-.28-1.32-.76-1.13-.85-5.11-5.58-2.18-3.21-1.79-1.71-.38-.94-.28-1.89-.29-1.14-1.42-1.7-.37-.85-.19-1.04-.67-5.11-.56-1.32-.57-1.32-6.05-8.23-.95-1.14-.94-.94-4.73-3.31-1.8-1.42 1.14-1.7 2.83-4.07 4.45-6.52 1.42-2.55 6.81-14.19 2.55-5.39 7.18-12.01.95-1.51-7.94-6.62-45.11-36.31-10.78-8.51-3.78-3.22-1.7-1.41-2.37-2.08-9.45-7.57-14.57-12.1-19.19-15.89-10.5-8.79-15.6-12.96-10.97-9.08-14.85-12.48-1.32-1.23-18.54-15.41-10.59-8.6-15.51-12.96 22.51-13.14-4.63-11.35-19.39-40.76-15.13-32.05-.19-.38-5.77 3.22-2.36 1.04-18.63 12.1-.66-.19-.85.57-2.27 1.51-2.08 1.61-.66.38-1.61 1.04-1.51 1.04-1.89 1.13-3.41 1.99-.28.47-1.23.47-.48.19-1.13.29-2.36.37-2.46.19h-2.18l-1.89-.19-1.89-.28-1.89-.47-1.89-.57-1.8-.76-1.98-1.13-2.75-1.61-2.64-1.7-4.45-2.84-7.56-5.01-1.71-1.32-1.6-1.14-5.02-3.97-3.31-2.36-1.04-.85.29-6.81.09-2.27-.09-2.93-.66-5.96-.57-3.69-.76-4.35-.19-1.04-1.7-9.55-.09-.57-.95-6.9-2.46-15.03-1.51-9.55-16.64 9.07-4.54 2.18-1.14-2.18-.85-1.7-5.39-10.31-5.67-11.34-1.89-3.79-.76-2.74-.57-.85-2.55-2.74 3.78-6.05 4.73-7.66.47-.57 5.3-8.6 1.32-2.18 3.97-6.24 1.89-3.03 2.09-3.87.85-1.89 4.63-14.85.85-3.03.28-1.04-5.39-3.68-5.76-4.26-7.1-3.5-8.03-3.31.37-.66 2.27-4.63 1.42-3.03.76-2.08.38-1.51 1.04-3.69 1.04-4.82.38-1.42.28-.57 1.42-3.02.85-1.8 1.8-4.07 1.79-4.44 1.33-2.84 2.93-6.05 3.12-4.82 1.79-2.65 5.68-7.38 3.21-4.44 7.19-9.27 1.51-1.98 1.71-2.37 1.22-1.51 3.03-4.16 4.73-6.24 3.97-5.3 2.55-3.12 1.23-1.7 3.22-4.16 1.04-1.42 9.08-12.2 6.52-9.26 14.66-21.28 5.48-8.32.57-1.51.19-.48 2.55.76 3.6 1.14 4.16 1.41-3.22 5.02.47 1.13 11.16 24.77 2.56 6.25.19.56.18.57v.57l-.18.66-.38.95-.95 1.89-.19.37v.67l.19.19.29.37.56.57.29.38.19.28.18.38v.76l-.18.38-11.35 16.92.38.48 2.93 7.84 6.05 4.92.66.76.57 1.23.57 3.02.37 4.07.38 1.32.38.66 1.51 1.42 4.83 3.88 1.13.85-1.23 1.89 2.84 2.93-5.01 6.53.75.94.19 1.04-.09.85-.66 1.23-7.76 11.92-1.13 2.08-.29 1.04.19 1.13.57 1.14.57.66 1.04 1.04 5.67 4.92 3.78 3.31 1.61.85 1.61.09 1.51-.38 1.42-1.7.19-.19 1.23-.75 2.08-.95 1.8-.38 1.98-.19 2.27.1.85.38.66.56 3.22-5.29 1.04-1.99.85-2.08 5.77 3.41 2.27 1.79 1.8 1.61 2.55 3.03.85 1.04 2.65 4.25.66 1.42 1.61 2.93.75 2.18.67 2.64 1.04 3.88 7.09-.66 1.98-.38 1.42-.38 1.04-.47 2.27-1.32 1.61-1.23 1.7-1.61 8.23-11.06 21.56 20.23 5.1 4.73 4.26 3.78 1.51 1.04 1.04.48 2.27 1.13 1.23.47.66-1.42 1.42-3.68 5.01-12.2.29-.66 2.08-4.45 3.02-5.29 2.56-3.79 3.59-4.53 2.46-2.65 3.78-3.5 2.37-1.89 3.21-2.27 1.61-.95-.38 1.33 1.89-1.42.47-1.23 4.17-2.55 8.41-5.2.38.66.66 1.04 10.5 14.46 19.67 28.09 6.9 9.74 16.26 22.41.76 3.21.95.19 6.52 26.86 4.07 16.07 5.96-1.51 6.71-1.8 5.01-1.23h.95l2.46.67 1.13.56 1.61 1.33.94 1.23 1.04 1.98.19 1.14.38.28.38.66.09.76v.28l4.92 12.49 4.26 24.58v3.97l3.87 2.93 7.47 5.49 3.5 2.17 2.18 1.14 7.28 3.87.38.19 1.98 1.52 1.33 1.13 1.98 2.37 5.68 8.51 4.63 5.95 1.04 1.33 3.31 3.97 2.27 2.17 2.27 1.52 1.7.85 2.36.85 2.37.28 3.12.1 7.47-.19 3.78-.19 3.78-.76 4.17-.94 1.04-.1 1.98.1 2.27.37 2.37.86.94.47 2.18 1.32 1.98 1.7 2.08 2.18 2.93 3.31 1.71 1.42 1.7 1.04 1.89.85 2.08.66 1.89.28h5.77l1.8.1 3.49.09 2.94.57 1.7.47 2.55.95 4.35 2.17 2.18 1.33 2.45 1.98 1.23 1.14.67.75 14.75-.09 2.17.28.57.1 1.61.47 2.36 1.04.95.57 1.42 1.23.85.94 1.51 2.18.57 1.13.38 1.33.28 1.98v1.04l-.1.95-.56 1.51-.95 2.08-3.69 5.86-1.13 2.37-.19 1.04.09 1.42.86 3.21.56 1.51 1.52 2.56 1.6 2.17 1.23 1.23 3.31 2.55 7.85 5.3 6.71 4.44.95.29h1.7l1.8-.38 2.08-.95 1.42-1.23 1.61-1.51 2.74-2.93 10.12-11.44 6.8-7.47 1.99-2.74 1.14-2.37.37-1.79.19-1.52-.38-6.14 2.46.09 7.95.66 3.21.38.38 8.89.09 1.8-.09 4.44-.38 3.12-.09.76-1.89 8.13-1.42 6.62-2.65 12.1-.57 2.46 44.45-19.95 29.88-13.43 5.67-2.55.47.75.1.76 1.13 3.59v.76l-.28 1.14.09.85.29 1.04 1.23 2.36v.38l-.1.38-.38.28-1.98.57h-.76l-1.51-.19-.47.09-.19.48-.1.47.85 2.65.19.94.19 1.8.19.76.29.37h.37l.38-.18.95-.95.38-.66.56-.38.48.19.28.57.19 1.23.38.37 1.23-.09 1.13-.38.38.1.38.47.28 1.13-.19.76-.47.47-.95-.09-.47.19.1.66.85 1.13.09.48-.09.37-.67.67-.75.19-1.04-.57-.57-.1-.66.29-.29.47-.18.85v.38l.18.28.76.38.38.57.09.57-1.41 1.79-.38 1.04v.85l.28.57h3.41l1.04.1.56.37.29.57.28.76.09 1.23-.28 3.02-1.04 2.74v1.52l.28.94.38 2.93.29.57 1.32.66.19.57.09 1.04-.18.66-.76 1.33-.66 1.42-.67 2.08-.56 3.12-.38.56-.47.38-.67.38-7.09 1.99-.28.47.19.94.38.57.66.66.38.29.09.38v.66l-.09.28-.38.28-.66.86-.57 1.41-.19 1.14.09.47.19.47.76.19.38.48 2.17 5.39.66 2.08.19.94v1.04l-.56 3.22-.48 1.13-.85 1.99-.75 2.36-.57.76-.66.57-.85.37h-.76l-1.04.29-.66.75-2.75 3.88-1.51 1.89-.66.19-.47-.19-.85-.47h-.57l-.47.09-.57.48-.19.28-.1.66.1.76.85 1.32v.48l-.28 2.36v1.89l-.1 1.51-.85 2.56v.47l.1.47.94 1.7.85 2.75.19 1.32-.85 1.42-.76 3.31-.19.09h-.18l-.48-.66-.38-.28-.37.19-.29.28-.75 1.89-.57.66-.1.38-.09.47v.57l.38.95.28.19.47.19h.57l2.18-.38.66.19.75.56.57.67.29.47.94 3.12.29 2.84.18.85.29.66.57.66.94.76.66.75.48.67.56 1.22.76 2.27.66 3.88.29 4.73-.1.94-.38.76-.56.47-.57.38-1.89.57-1.23 1.61-1.14 3.12-.38.75-.85 1.04-.75.48-3.12 1.23-.76.37-.47.1-.95-.38-4.35 9.93.38 1.13.28 2.65-.09 2.08-.38 3.5-.28 1.89v1.23l-2.56.1-1.79.28-1.42.57-1.23.75-1.7 1.89-1.23 1.71-.38.66-1.51 2.55-1.23 2.93-.57 1.61-.85 4.44-1.14 9.65-2.36 20.42-.09.76-.67 3.12-.85 2.46-1.13 2.55-2.74 4.92-3.79 5.67-.47.76 8.32 7 6.9 5.86 2.08 1.8-7.75 11.44-2.74 4.25-4.07 6.25-1.04 1.41-1.61 2.08-7.47-10.3-.56-.76-4.64-5.58-2.46-2.55 1.9 10.87 6.05 34.99 3.4.38 2.08-.1 8.32-.56 7.95-.29 1.42-.28.75-.29.76-.56.94-1.04.86-1.23.56-1.14 2.84 2.93 2.27 2.75 1.51 2.17 1.33 2.27 1.6 3.31 1.61 3.5.57 1.51 1.13 3.69 5.3 20.33.28.76 3.88 11.44 1.61 3.97 1.89 3.59 2.55 4.26 2.65 3.78 9.83 12.39 10.22 12.2 4.16 4.63 2.55 3.03 1.14 1.13 5.48 5.39 6.62 7 3.69 4.25 1.6 2.18 1.99 3.21 5.77 10.78 8.13 15.89 4.07 7.56 2.55 4.45 1.61 2.27 1.7 1.89 1.51 1.42 3.12 2.17 3.12 1.99 11.82 7.66 1.61.85 3.5 1.32 3.97 1.33 5.96 1.89 4.92 1.51 10.87 3.59 4.64 1.23 1.6.38 3.6.47 3.97-.09-6.15 10.59-3.69 6.52-5.76 12.2v.57z" stroke-linejoin="round"/></defs><use xlink:href="#d" fill="#9dc8ca" stroke="#9dd7f0" stroke-width="5.76"/><defs><path id="e" d="M2215.41 2851.16l-1.13.57-.48.09-.94-.38-11.26-3.87-5.67-1.42-9.93-1.52-1.23-.18-1.7-.19-4.26-.38-43.59-76.97v1.23l-1.04 2.74-1.13 2.46-1.23 2.83-.76 2.27-.47 2.75-3.69 16.54-.57 1.8-.75 1.42-1.42 1.89-2.27 2.46-.47.75-.29.86-.57 3.68-.66 3.6-.47 1.51-.28.38-.29.28-1.51.76-.28.19-.29.66.1.28.66 1.52.09.85-.09.85-.47 1.04-5.96-4.64-.76-.56-5.67-4.45-8.99-7.47-4.35-3.59-2.55-2.18-1.51-1.22-4.82-3.88-4.35-3.03-4.64-2.65-8.32-3.97-1.89-.94-10.31-4.64-1.04-.56-9.93-4.64-4.91-2.27-4.45-1.98-1.61-.76-2.17-1.13-7.09-3.41-6.24-3.12-3.88-1.89-.66-.38-7.38-3.59-4.54-2.27-5.58-2.65-5.86-2.46-5.11-1.79-1.23-.48-28.27-8.98-3.59-1.13-5.77-1.89-7.76-2.46-3.12-1.04-3.5-1.14-20.04-6.14-3.41-1.04-2.17-.67-2.56-.66-6.99-1.98-17.88-4.83.48-2.74.56-3.78.19-1.32-.09-1.8-.28-1.42-.76-1.99-.76-1.51-.56-.76-1.33-1.13-3.4-2.17-5.68-3.13-7.18-3.87-1.61-.66-.95-.29h-1.42l-2.08.29-1.6.66-1.23.94-1.33 1.23-.94 1.52-.66 1.98-.57 2.74-.38 2.08-.94 6.53-35.18-9.36.19-3.5-.38-3.41-.57-3.68-.38-3.22-1.04-11.35-1.6-15.31-.29-6.43.1-3.22 1.89-13.24.19-2.36-17.31-2.55-13.71-1.8-.95-.29-1.7-.66-3.12-2.08-11.35-144.96-.85-11.34-1.23-2.37 14-8.04 5.96-3.4 2.27-2.46 1.32-1.89.57-.57.38-.19 1.04.1.37-.19 1.9-1.42.28-.66.19-2.65 1.23-14.47-.76-1.32-.66-2.36-.1-3.03.67-2.84.37-1.6.57-1.99.29-1.42.09-1.8v-3.12l.19-1.7-.1-.94-.09-1.14v-1.04l-.19-2.46-1.13-.09-5.02-.19-5.48-1.42-1.7-.28h-1.61l-1.61.19-1.79.66-21.56-20.43-9.93-11.44 4.16-8.13 2.46 1.61 5.48 3.4 13.43 7.28 1.13.57 1.8.57h1.61l1.23-.1 1.04-.38.94-.37.76-.38 1.61-1.42.85-1.23 1.13-2.08 1.33-2.46 1.79 1.23 1.14 1.04 2.74 3.22 3.22 3.78 2.08-2.18 1.98-2.27 1.04-1.7.57-1.13 1.23-2.74.47-1.71v-.85l-.38-.94-.66-.67-1.32-.94-2.56-1.14-1.6-.94-.1-.1-5.67-5.76-.85-.67-2.37-1.13-.94-.66-.85-.95-2.56-4.06-2.46-3.03-1.89-1.99-4.16-3.97-5.01-4.63-7.66 10.21-.28.38-1.61 2.36-.95-.66-10.78-5.77-17.96-9.93-22.13-11.82-2.36-1.51-1.14-1.23-1.04-1.6-1.99-4.73-5.29-12.01-3.88-8.04 15.6-7.66 22.42-10.12 56.92-25.72 24.21-10.97 1.42-.56-4.73-1.99-18.63-8.32-81.79-35.65-37.17-12.67-20.52-5.01-.75-.1-.38-.09-.47-.19-.76-.19.09-.85.29-1.99.66-4.91.94-4.73 3.03-11.82.85-4.45.57-4.25.85-7.28 1.42-13.33.94-12.3.38-7.18 30.45-11.92 10.5-4.73-5.2-1.32-4.26-1.7-3.4-2.46v-.19l.19-3.4.56-2.08.57-1.23 1.42-1.61 12.2-10.31 2.36-2.08-10.21-12.76-4.54-5.68-4.16 3.79-10.5 8.79-.85 1.42-.94 1.04-1.89-1.61-1.9-1.04-12.95-6.43.19-3.88-.38-5.2.19-.75.28-.57 1.42-.66.28-.38.29-1.04v-2.46l.57-1.7.56-3.22.38-1.42.66-1.89.19-1.89-.38-1.51-.28-1.61.95-1.98 1.7-3.5.28-.85.38-1.8-.57-2.74-3.78-2.84-4.44-2.74-2.84-1.8 2.46.66 1.51.19h.66l.95-.19.85-.09 1.8-.47 2.08-1.04 2.17-1.61 1.61-1.42-8.51-15.7-3.12-12.29-.57-1.32-.66-1.14-.38-.38-.76-.19-.28-.37-.19-.76.38-1.23-.19-.76-.57-.66-.28-.75v-1.9l-.19-1.04.09-.56-.09-.67-.85-.94-.1-.38-.09-.47.19-.29.94-.37.48-.48.09-.37-.09-1.14v-.85l.28-.47 2.18-1.33.28-.28.09-.66-.09-2.18-.57-2.17 11.63-11.35 5.77-5.58 6.15-6.05 13.33-13.05 9.17-8.98 15.04-14.85 5.58-5.39 7.19-7 3.78-3.49-.1-5.3.1-4.07-13.81-3.87-33.09-9.74-11.35-3.41-2.37-.75-22.88-6.72-3.88-1.13-4.92-1.61-6.24-2.55-5.39-2.93-2.17-1.42-1.89-1.33-1.7-1.13-2.75-2.27-1.51-1.32-2.46-2.27-3.5-3.79-1.89-2.36-1.98-2.74-.86-1.14-1.04-1.6-1.6-2.46-2.46-4.64-1.51-3.31-1.42-3.49-2.27-6.43-1.52-6.62-.37-2.37-.57-4.06-.47-8.04v-3.22l.28-3.68.47-4.83.85-5.76.57-3.31 1.23-5.11 2.36-7.57-.56-.47-.76-.75-.47-.67-.95-1.32-1.23-1.99-3.59-6.62 2.74-1.32 2.93-1.51 2.84-2.37 3.12-2.45 1.23-.76 2.17-.66.38-.1 1.7-.28 1.99-.57.76-.38 5.01-2.93.47-.28.29-.29.37-.28.19-.19 1.33-1.42 5.58-6.43 2.45-2.64 9.56-8.89 4.91-4.26 1.23-.94 1.42-1.04 1.42-1.04 1.04-.67.85-.56.47-.29.57-.28 1.61-.85.85-.47.57-.29.37.38.57.47 3.88 3.12 1.8 1.33.94.66.85.66 1.04.57 1.23.85 1.04.66 1.04.66.85.38 1.14.76 1.61.85 5.57 3.12 1.9.94 3.49 1.71 2.65 1.32 2.93 1.23 6.06 2.65 5.48 2.17 8.32 3.41 19.48 7.75 9.84 3.88.28.09 2.08.85 1.7.67 2.46 1.04 1.14.47 1.32.47 1.23.38 2.46.85 1.13.38 1.33.38.85.28.85.19 6.33 1.51.86.19 2.27.47 1.22.29 1.23.19 1.42.28 3.03.66 4.35.76 1.32.28 2.46.48 2.36.47 4.64.75 1.7.38 1.42.29 2.27.47 1.61.28.85.19.85.19.94.19.76.1.85.18 1.61.29.94.19.76.19 1.7.37 1.7.38.76.19.95.29 2.64.75 5.77 1.8 1.89.66-.37.66 8.03 3.31 7.1 3.5 5.76 4.26 5.39 3.68-.28 1.04-.85 3.03-4.63 14.85-.85 1.89-2.09 3.87-1.89 3.03-3.97 6.24-1.32 2.18-5.3 8.6-.47.57-4.73 7.66-3.78 6.05 2.55 2.74.57.85.76 2.74 1.89 3.79 5.67 11.34 5.39 10.31.85 1.7 1.14 2.18 4.54-2.18 16.64-9.07 1.51 9.55 2.46 15.03.95 6.9.09.57 1.7 9.55.19 1.04.76 4.35.57 3.69.66 5.96.09 2.93-.09 2.27-.29 6.81 1.04.85 3.31 2.36 5.02 3.97 1.6 1.14 1.71 1.32 7.56 5.01 4.45 2.84 2.64 1.7 2.75 1.61 1.98 1.13 1.8.76 1.89.57 1.89.47 1.89.28 1.89.19h2.18l2.46-.19 2.36-.37 1.13-.29.48-.19 1.23-.47.28-.47 3.41-1.99 1.89-1.13 1.51-1.04 1.61-1.04.66-.38 2.08-1.61 2.27-1.51.85-.57.66.19 18.63-12.1 2.36-1.04 5.77-3.22.19.38 15.13 32.05 19.39 40.76 4.63 11.35-22.51 13.14 15.51 12.96 10.59 8.6 18.54 15.41 1.32 1.23 14.85 12.48 10.97 9.08 15.6 12.96 10.5 8.79 19.19 15.89 14.57 12.1 9.45 7.57 2.37 2.08 1.7 1.41 3.78 3.22 10.78 8.51 45.11 36.31 7.94 6.62-.95 1.51-7.18 12.01-2.55 5.39-6.81 14.19-1.42 2.55-4.45 6.52-2.83 4.07-1.14 1.7 1.8 1.42 4.73 3.31.94.94.95 1.14 6.05 8.23.57 1.32.56 1.32.67 5.11.19 1.04.37.85 1.42 1.7.29 1.14.28 1.89.38.94 1.79 1.71 2.18 3.21 5.11 5.58 1.13.85 1.32.76.57.28.85.29 3.22.47.47-.19v-1.42l.1-.28.75-.38.57-.1.66 1.04.95-.09 4.73 1.42 1.13.19.95-.1 1.13-.28h1.7l7.47 1.61 8.89 3.12.76.09.47-.28.47-.38.95-2.93.57-1.23.75-.47.67-.1 1.04.1.94.28 9.17 1.23 2.08.85.95.57 2.74.94 2.74.19 4.54-.38 2.46-.47 1.99-.66h.57l.47-.09.94-.48 1.52.1.66-.38.28-.38.66-.19 1.61-.19.66-.28 1.04-.66.67-.19 1.6-.19 1.52-.57 4.72-2.08 1.04-.76.67-1.04.47-.47 3.69-2.65 2.46-2.08 1.51-1.6.28-.38 9.93 8.04 22.6 18.25 11.63 9.55 11.26 8.98 12.95 10.59 10.21 8.32 22.42 17.87 26.47 21.18.76.57 5.11 4.35 14.37 11.35 22.88 18.53-18.63 20.05 6.81 7.66 11.45 13.05 39.24 44.53-29.88 30.36 38.01 19.86 38.58 21.74 46.72 26.29 2.83.1-.56 5.39-.86 9.07-.56 7.1-.38 3.31-3.22-.76-.94-.28-5.3-1.71-3.21-1.13-6.43-3.41-2.65-1.04-1.99-.37h-1.41l-1.14.19-2.65.85-2.36.47h-1.61l-3.21-.76-3.88-1.23-1.99-.66-3.97-1.13-3.31-.48-7.09-.47-2.27-.57-3.03-1.32-1.7-.76-15.41 13.9-11.35 10.31-4.82 4.26-4.45 4.16-1.79 1.7-27.71-9.65-31.11-15.13-44.26-29.5-.47.85-1.51 3.12-1.89 3.12-1.04 1.42-3.03 3.41-1.7 2.17-.47.66-1.42 2.37-1.33 3.4-.47 2.08-.57 2.08-1.04 2.46-1.23 2.08-3.31 5.01-1.7 1.99-1.51 1.42-4.45 3.78-2.26 2.27-7.57 8.13-3.12 3.69-1.14 1.51-1.7 2.65-2.64 5.01-1.61 2.74-1.14 1.33-1.04.94-1.51.95-1.23.38h-1.32l-1.52-.29-2.08-1.04-9.26-5.67-3.22-1.7-2.36-.95-3.6-1.32-2.17-.57-2.84-.38h-2.08l-2.55.57-2.56 1.04-12.19 5.67-2.37.76-1.04.09-4.35.1-1.32.19-2.27.47v.57l-1.51 5.01-4.45 12.01-3.59 8.22-2.08 5.58-6.81 17.59-5.11 13.33-2.27 5.77-.94 3.12-.76 3.88-1.7 9.93-1.04 5.67-3.03 15.6-.75 4.73-.29 2.74v6.34l-.09 9.36.09 3.31.48 3.31 1.04 3.78.56 2.27.48 3.97.56 2.27.67 1.23-.1.48.66 2.64.1.57-.66 1.99.66 2.17-.38.66.09.76.67.28.18.29.29.66.28 1.89-.09 5.96.38 3.4.37 1.42.1 1.13v.95l-.1.47.1.38.19.19v.38l-.57 1.89-.57.57-.19.75-.28.1-.85-.19-.1.38.19 1.04-.19 1.23-.56.94-.1 1.33-.38.85v.56l.1.86.09.47-9.64 13.05-.19.28-.19.66v.38l.19.47 1.42.76 2.64.95-.18.75-.48 2.74-.56 4.73v2.65l1.04 15.04.09 1.32z" stroke-linejoin="round"/></defs><use xlink:href="#e" fill="#6bacaf" stroke="#6bb4d2" stroke-width="5.76"/><defs><path id="f" d="M1492.01 1523.26l-.29-1.89-3.5-15.04-.28-.85-.47-.38-.47.1-.29.09-1.04.38-1.23 1.33-3.4 3.49-6.43 5.49-1.23.85-2.37 1.23-2.45 1.23-3.31 1.42-8.14 2.08-2.17.56-3.12 1.8-2.65 1.61-3.78 2.93-4.45 3.78-1.6 1.7-9.93 11.26-6.53 6.71-5.58 5.48-1.51 1.33-7.28 5.39-5.77 3.31-.66.57-.47.66-.19.56-.1.67.1.66.19.85 1.79 3.03-19.1-5.49-7.66-4.25-11.16-6.24-17.21-17.88-8.32-8.6.47-.38.29-.47-.1-1.89-.47-1.42-2.65-5.39-3.97-8.89-3.88-6.05-1.79-2.56-5.2-5.95-1.33-1.14-.85-.47-.94-.76-4.92-5.48-3.03-3.59-2.55-2.46-4.73-4.54-3.88-2.84-1.6-1.32-6.34-4.07-3.88-2.27-1.98-1.13-6.53-2.56-6.71-3.21-7.28-3.12-7.28-2.65-.48-.28-1.42-1.7-.66-.48-1.04-.38-.56.1-1.23.47-1.61-.19-3.41-.94-1.79-.19-.95.28-1.04.57-.57.47-.28.57-.28 1.51-14.94-14.37-5.87-5.67-3.97-3.6-41.42-37.07-1.13-1.32-.57-.66-4.07-4.92-3.97-7.28-6.71-15.03-.47.09h-.76l-1.89-.38v-.75l-4.07-.95-7.09-4.26-5.58-5.67-3.31-4.54-2.17-2.83-3.69-6.15-2.74-7.28-2.65-6.53-3.31-9.74-.38-2.93-10.4-10.78-3.88-4.16-1.8-4.06-.37-1.04-1.71-5.11-.94-4.82-.95-3.69-3.31-7-14.28-30.35-3.3-7-5.02-6.9-5.29-5.77-5.39-4.54-7.76-3.59-14.84-3.78-7.95-.57-1.04-.29h-.47l-.28.1-.76.09-7 1.61-5.86 3.12-2.84 1.51-2.17 1.52-7.28 5.39-3.69 2.74-3.97 2.93-3.6 2.65-2.17 2.08-3.31 2.74-.38.38-1.7 1.61-1.99 2.74-1.42 1.51-3.12 2.37 3.03 12.86.38 1.32-.38 1.23-.47.09-.29-.19-1.23-2.36-.47-.66-.38-.28-.09-.1-1.51.19-1.14.47-3.12.85-7.38 1.71-5.29-.29-10.88-1.89-3.02-.94-2.93-1.14-1.52-.95-24.58-15.41-5.39-3.4-4.45-2.65-6.9-4.54-12.67-9.74-6.62-5.86-1.42-1.89-.57-.95-.66-1.23-.75-1.13-.86-1.04-1.23-.66-1.41-1.52-.38-.66-1.14-2.74-2.64-4.92-.67-2.46-.94-3.78-.76-4.25-.28-2.46v-2.37l1.7-10.68 2.74-14 1.14-6.05.75-3.02.29-2.46.75-6.34.1-1.13.19-.67.38-.75.37-1.23.19-1.51v-1.71l.19-9.64-.19-1.89-1.51-5.87-.38-.94-.66-.95-.76-.85-1.41-1.23-1.23-1.51-4.92-4.16-1.42-1.14-11.25-6.05-4.54-2.36-3.31-1.51-2.55-1.61-1.14-.57-1.51-.28-6.81-1.99-2.93-1.04-2.08-.47-1.89-.66-2.18-.85-2.93-.76-3.12-1.23-4.35-1.89-7.66-4.07-7.38-4.35-2.55-1.98-6.9-3.5-.85-.57-1.04-1.04-1.33-1.04-4.54-2.36-6.52-4.16-1.8-1.52-2.08-1.98-4.06-4.92-.48-.85-.66-1.8-1.8-2.93-.47-.94-1.32-5.11-.85-4.35-1.52-5.3-1.32-5.01-1.8-6.14-3.78-10.4-.95-2.09-2.08-3.49-1.7-2.08-5.58-7.76-1.6-1.98-.86-.76-2.74-1.99-5.48-3.31-1.71-1.13-1.13-1.04-1.42-1.8-1.98-3.02-2.56-3.6-1.51-2.08-.57-.66-9.74-7.28-1.04-1.42-.85-1.61-.47-.47-2.84-1.23-8.79-6.52-3.41-2.18-4.63-1.98-2.46-.85-7.09-1.14-8.51-1.23-5.11-.75-2.46-.76-1.7-.85-4.54-3.31-1.13-.66-1.99-.85-5.86-2.75-1.23-.75h-2.36l-1.42-.76-2.75-2.36-3.97-4.54-2.55-2.18-5.77-3.97-3.4-2.36-6.15-3.6-8.04-4.63-1.51-.66-4.73-1.8-3.88-1.7-1.32-.66-1.42-1.33-2.65-3.21-5.29-6.34-1.61-1.51-2.55-2.17-6.72-6.25-2.93-3.02-1.79-1.7-1.52-1.52-1.13-.94-7.28-4.92-2.56-1.32-5.2-2.37-3.69-1.7-3.49-1.61-4.07-1.6-2.74-.76-1.99-.38-1.89-.38-2.65-.56-3.97-.38-2.17.09-3.12.57-1.61.57-1.51.85-6.44 4.16-4.72 3.69-1.71 1.89-8.79 12.76-3.78 5.11-4.35 4.63-4.16 3.79-1.99 1.22-4.06 1.8-1.14.66-.95.85-1.04 1.52-1.04 1.04-.94.09-.66-.09-.48-.29-.75-.66-.95-.19-.66-.09-3.03.66-2.36.19-8.51-2.65-14.56-5.67-4.83-1.99-.37-.09-.57-.19-1.7-.76-2.37-.94-4.63-2.75-7.47-5.57-1.7-1.52-2.46-2.55-.95-1.23-4.92-5.11-5.95-5.58-3.69-3.31-6.53-6.71-4.63-5.86-10.97-12.39-.85-.94-1.51-1.8-.66-.57-1.61-.94-1.89-.67-2.37-.37-1.51-.48-5.96-2.74-1.23-.85-3.59-3.69-.57-.47-1.32-.57-2.55-.28-3.22.19-3.22-.19-1.13-.57-.57-.19-.75.19h-1.04l-.76-.09-.76-.38-.66-.57-.19-.09-1.13-.76-1.7-.57-.57-.38-2.46-1.51-2.55-2.08-2.84-1.32-3.12-1.23-2.93-.76-1.61-.19-1.99-.47-2.45-1.14-1.71-.66-4.25.1-.95-.1-2.65-.66-1.51-.19-2.74.1-3.41.47-4.06.28-.57-.09-2.27-.57-1.23-.57-1.32-.37-2.37-.1-3.12.57-.94.09-.85-.19-1.71-.75-.56-.48-1.8-1.98-1.13-.85-2.08-.48-1.61-.37-5.11-1.8-4.25-.66-1.99-.57-.85-.47-11.44-5.77-.76-.19-.19.09-.28.38-.19 1.99-.28.94-1.52 1.71-.47.28-1.32-.38h-1.04l-.19-.28v-.19l.37-.76v-.94l.1-.38.38-.19.28-.57-.09-2.08-.48-2.55-.56-2.18-.48-1.13-.94-1.42-1.61-1.51-3.03-2.18-3.97-2.74-2.74-2.08 2.27-3.12 2.17-2.74 10.41-13.33-.19-.67.85.57 3.78 1.89 2.08.57.85.57 3.31 3.4 1.33.95 1.41.47.57.28.85.95 3.79 4.82 1.32 1.23 1.23.57 1.51 1.04 1.51.75.76.19h.85l1.7-.19 1.52.1 8.32 3.4 4.16.95 2.93.94 6.9 1.71 2.27.94.76.19 2.08.28 1.8.67.38-.1 1.13-.75.57-.1.47.1 5.2 2.36 1.89.38.76.28 1.32.95 1.14.47.57.38 1.32-2.56 1.7-3.68.19-1.04.28-1.04.57-1.52.38-1.7.38-1.61v-.56l-6.91-1.23-4.35-.95v-1.32l-.18-1.99-1.71-7.75-6.43-.1-2.64-.19-2.08-.37-2.84-1.23-3.22-1.42-5.95-1.04-13.15-2.37-4.73-1.04-2.08-.66-1.42-1.13-1.6-1.8-4.07-5.29-1.8-2.18-.94-.85-3.03-1.7-2.27-1.14-2.64-1.13-2.08-.66-5.49-1.14-.47-.19-.57-.56-.47-1.14-.57-1.32-1.89-5.87-1.23-3.49-.76-2.46-1.6-5.39-2.46-7.85-1.04-3.03-1.23-3.02-10.69-31.3-3.88-11.44-2.64-7.19-1.14-3.03-1.04-2.27-1.61-4.53-1.13-3.22-1.14-2.74-1.89-5.01-1.89-5.2-1.51-4.83-9.84-27.51-7.37-21-2.27-6.14-.66-1.99-3.03-8.7-2.74-8.13-1.8-5.96 1.42-1.13 4.26-2.65 5.29-3.88 3.03-2.55 2.08-2.08 1.7-1.89 5.39-7 5.49-7.19 9.36-12.57 3.97-5.77 2.74-4.92 5.49-10.11 1.32-3.03 1.98-7.57 1.05-3.4 1.51-3.59 2.74-5.68 6.05-12.86.95-1.89.94-1.51 1.23-1.51 6.15-4.73 5.3-4.07 3.21-2.46 3.69-2.64 2.46-1.61 1.51-.85 2.93-1.23 4.63-1.51 1.71-.38 2.83-.85 2.56-1.04.94-.48 1.89-1.23 2.08-1.6 16.27-16.46 10.21-10.4 3.12-3.4 3.97-4.92 4.16-4.73 11.26-11.53 11.35-12.58 13.14-13.9 7.28-7.38 6.34-5.76 5.29-4.35 3.03-1.9 25.62-14.46 3.31-1.8 3.03-.85 2.46-.85 1.51-.29 1.7-.28 1.61-.09 3.12.28 2.37.57h9.17l4.73.75 2.83.76 2.65 1.04 2.93 1.61 2.93 1.79 13.81 8.52 2.55 1.13 2.56.57 5.76.19 3.5.09 1.52 12.77 1.42 9.55 1.98 11.63 2.27 14.37.28 2.08-.18 1.8-.29 1.04-.66.94-1.32 1.14-2.94 1.98-5.39 3.03-3.59 2.36-7.75 6.06-1.42 1.51-.38.66-.28 1.32.09 1.33.57 1.98.94 1.99 2.18 3.69 1.8 4.82 1.32 2.55 1.61 1.99 1.04.85 3.21 1.8 3.41 1.51 2.36 1.42 1.7 1.51.95 1.32.66 1.33.38 1.8v1.04l-.38 1.51-.66 1.23-1.04 1.32-3.12 2.65-.95 1.13-.66 1.52-.19 1.42.19 1.51.47 1.61.76 1.41 1.04 1.33.76.57 1.51.75 1.51.19 2.46-.09 5.67-.19 1.71.09 1.51.57.94.94.95 1.52 1.04 2.83 5.67 17.78 10.5 32.15 2.08 6.24 3.41-.94 4.53-1.52 8.99-3.21 7.94-3.03 18.25-6.71 17.31-6.62 10.3-3.88-1.89-7.56-3.87-12.96-1.33-3.59-.85-1.51-4.07-5.01-1.79-2.75-2.65-4.72-.76-2.08-.56-2.46-.29-7.66-.66-7-.94-5.77-.76-3.02-.57-3.12-.19-2.56.19-2.74.76-3.88 1.04-3.4 1.79-3.78.76-1.7 1.23-4.45.47-2.55v-2.56l-.47-2.36-1.13-3.31-1.9-4.35-2.17-3.97-1.89-3.31-.76-2.55-7.28-37.35-1.32-5.39 13.9-5.49 40.47-16.74 4.92-1.79 3.78-1.42 4.44-1.23 22.04-6.05 28.37-7.85 9.45-2.74 18.44-5.11 4.35-.94 2.46-.67 1.8-.85 1.42-.94 1.51-1.23 1.04-1.14 1.23-1.6 17.02-25.54 1.8-1.79-2.27-3.22-6.34-7.94-10.21-12.39-9.65-12.38-8.22-11.16-13.15-18.06-1.32-1.99-3.41-5.58-5.86-10.78-4.63-8.51-3.5-5.58-.95-1.51-.75-.95-.76-1.13-3.12-4.35-2.18-2.84-1.89-2.17-3.4-3.31-1.14-.95-3.59-2.74-3.4-2.17-6.25-2.84-11.53-4.73-1.61-.94-1.8-.86-2.93-1.79-1.51-1.14-4.82-3.97-.76-.75-2.55-2.84-2.46-3.22-2.18-3.5-1.89-3.68-1.79-4.35-9.65-27.99 6.43-3.03 22.51-8.41 3.4-1.33 1.42-.66 2.17-.57.86-.09 2.26.19 1.33-.38.94-.47.57-.48 1.99-2.83 6.71-7.1 1.23-.94.76-.38 2.27-.57 1.51-.85.66-.19 1.23.19.66-.09h.57l.66.47.47.66.48 1.42.85 1.7.47.57.85.19 1.61-.19h.95l1.41 1.04h.48l.75-.28 1.99-1.52 2.17-.37 2.46.28.76-.19 1.89-.95 1.61-1.04 2.08-.56 4.35-.29.85.19.85.66 2.27 2.08 2.74 2.18h.66l.67-.09.47-.38.57-.57 4.44 4.35 4.82 3.31 1.14.66 5.01 2.84 1.23.85 1.32 1.42.76.94.95.85 5.57 2.84 1.23.19.48.28.28.57.28.76.19 1.04.29.28 1.04.19 1.89.76.66.37 3.5 3.03 1.8 1.32 1.79 1.14 3.6 1.61 5.29 3.21 7.28 2.55 12.86 38.21h9.08l7.38-.1 3.69-.57 3.12-1.04 7.28-3.12 10.02-4.35 2.08-.75 2.65-.76 3.88-.66 1.04-.09 5.2.09 4.35.76 5.2 1.79 3.12 1.42 3.88 2.08 3.31 2.18 23.35 14.37 7.47 4.35 7.85 4.92 6.05 3.31 14.85 6.71 2.84 1.13 4.63 1.04 2.55.19 16.74.85 17.78.76h5.86l6.34-.57 5.2-.94 3.02-.66 2.94-.76 6.8-2.36 7.38-2.84 6.15-2.46.75 3.03 1.8 11.25.19 4.25-.1 3.22-.19 2.84-.47 3.49-1.04 5.58-3.31 19.29-.09 1.52v1.32l.09 2.08.29 1.61 1.13 4.44 1.23 5.49.66 4.73 1.61 15.31.76 11.35.28 2.65.47 1.7.48 1.51 1.22 2.75.95 1.6 1.51 1.99 3.97 4.35 3.22 4.06 2.17 3.31 3.6 5.58 3.02-1.89 1.71-.85 1.51-.57 3.88-1.23 3.4-1.6 1.14-1.14 2.36-3.5.57-.37 1.23-.86 3.5-1.7 4.63-1.42.94-.09 1.04.09.95.29 1.51.75.57.57.85 1.7 2.55 7.76.95 1.6.47.67.57.56 6.34 4.16 1.13 1.04.38.57.38.76 7.56 22.13 49.65-18.16 22.22-8.23 3.03-1.23.56-.37.38-.57-1.42-1.42-15.32-18.72-4.91-6.43-3.6-5.01-5.95-8.7-1.99-3.31-.76-1.71-.85-2.74-.28-1.89v-1.7l1.23.19 1.23.47 1.32.66 1.42.85.66.38.76.19h.66l3.22-.47.75.09 3.12 2.18 3.5 1.7.66.57.29.38.47 1.32-.09 1.42-.19.75-.67 1.52-.19 1.13.38 1.04.76.66 3.03 1.8 7.47 3.4 5.58 2.27 4.44.95 7.19 1.32 2.64.48h4.16l1.14-.1 3.03-1.04 1.32-.19 1.7.38 1.33.57 2.27 1.42h.66l.66-.1.85-.57.28-.66 1.14-1.51.66-.38 1.99-.57 2.64-.09 1.04.28.67.29.85.75.28.48 1.51 3.5.38.37 1.8 1.14.76.85.28 1.23.09.66-.19.47-.28.38-.38.38-.38.38-.09.47.09.76.57.75 1.42.67 1.42.47 5.2.28 1.32-.28 3.22-1.14 1.51-1.13 1.89-.47h1.52l2.64.85 2.37.38 2.83-.57 2.37-.76 2.55-1.23 1.61-1.32 1.32-1.51 1.23-2.27.66-1.61.67-.85.75-.57 2.27-1.04 1.23-.28 1.8-.19 2.65.19.94.28 1.04.47 2.93 2.18.95.85.76 1.04.18.47.1.95-.38 2.36.1 2.37.28 1.13 3.88 9.36.94 1.42.95 1.32 1.23 1.33 3.4 2.46 2.08 1.23 4.35 2.45 1.42 1.8.76.66.94.38 1.14.19 9.74.47.85.19.75.47.86 1.52.28 1.23-.19 3.31-.47 2.93v1.23l.56 2.08.29.75.85 1.23.85 1.61.19.85.19 3.41.28 1.22.66 1.9 1.14 1.23 1.98 1.32 5.21 2.36 5.76 1.71 7.38 2.64.95.1 1.79.09 1.14-.19.75-.47 1.99-1.51 1.51-.95 1.42-.19h1.8l1.04.48.75.47.57.75 1.7 2.46 1.42 1.42 1.33.57.94.19.95.09 1.89-.75 2.46-.57.56-.57.19-1.51v-3.12l.19-1.04.29-.38.28-.19.47-.09h1.8l1.13-.38 1.71-2.27.66-.76.85-.57.57-.09 1.79.09 1.23.48 1.33.09 1.41-.09-.56 6.24-2.74 5.29-17.31 14.28-6.24 5.58-5.2 5.58-1.04 2.17-6.34-3.68-2.55-.95-1.23-.19-3.69-.66-12.86-.85-4.63.19-3.6.75-2.45.76-3.79 1.51-14.46 6.15-14.85 6.24-13.33 5.01-2.37.95 5.2 8.79 2.84 4.83 6.24 10.87 3.78 7.09 1.23 2.65 1.7 4.82 11.26 33.76 1.23 3.12 6.33 14.75 1.52 4.16 2.26 6.72 4.35 16.35 6.06 20.81 5.29 19.76 7.38 3.4 29.03 13.24 1.32-.19 8.13-3.59 40.38-38.67 104.31-3.41 1.89 3.41 1.6 1.89.38 1.04.1-.1.56.1 1.52 1.51 9.83 9.55.66.76 1.14 1.6 1.89 3.98 4.63 11.53 1.04 1.52 3.6 3.97 10.97 11.82 8.98-10.31 2.84-3.4 3.97-4.35 1.98-1.71-1.98-2.74.38-.38 1.04-2.46 1.04-2.64.47-1.7 1.42.18 1.61-.28 1.41-.19 1.23-.66 1.61-.57 13.62-14.28 17.59 5.58 2.64.38.76.1 8.04 1.6 1.04-12.1.19-1.51.38-.85.56-.67.48-.37 4.63-2.56 2.36-1.61 8.23-6.05 3.03-1.6 1.79-.57 3.6-.47 3.02-.19 2.56.28 1.13.57 1.32 1.32 6.72-9.08 12.86 2.56.57-.29.66-.75 2.55-4.73 1.7-1.99.38-.94 8.13 3.97 1.33 1.04 1.04 1.32 3.97 6.34 4.92-3.12 3.31-2.46 2.64-2.27 2.84-2.84 1.89-2.27 4.73-6.52 3.31-4.63 2.65-3.88 5.58-8.13 1.13-1.71 4.92 2.65 1.99.76 6.9 1.61 1.61.66 2.36 1.32 3.12 2.46 1.32.66 1.71.47h1.13l3.41-.66 1.41-.66 4.83-3.21 4.35-2.75 1.7-.85 2.84-.85 6.24-1.42 9.17-1.79 3.78-.67 2.84-.47.94.19.29.1.57.28.66.38 2.17 1.32 1.8.95 1.32.47 1.71.28h1.41l1.14-.28 1.23-.28 1.42-.57 1.6-.85 1.23-.95 1.04-.94 2.08-2.46-.37-.48-.29-.66-.38-2.08.1-1.32.85-1.61.76-.66 1.04-.47.37-.1h1.33l.85.38.85.57.66.85.47 1.13 25.73 47.28 3.21 3.03.47.57.29.94.28 1.23.38 9.65.38 1.51.09.38.38 1.51.66 1.51 1.99 8.42.19 2.65 1.89 9.26.09 1.33-.94 1.23-13.43 8.98-5.67 15.51-2.65 5.29-.85 1.04 8.7 25.91 4.16 12.77 1.89 5.86 6.62 19.95 9.74 29.69 3.02 9.56.67 2.26 2.55 7.66.66 2.08 4.45 11.54 3.12 9.55 2.55 7.38 1.61 5.1 12.38 36.98 8.8 26.95 8.89 26.47 3.31 11.54 1.79 6.62 1.42 1.23h-.94l-4.07-.1-10.31-.47h-.28l-8.7-.19-1.8-.09-1.98.28-.95.28-4.06 1.89-.29.1-1.23.57-1.32.56-2.93.76-.48.19-.47.09-1.7.38-.47.1-2.56.66-4.63 1.23-11.82 3.31-2.18.66-4.72 1.32h-.29l-1.7.19.28 1.51.19.38.1.66.47 1.42.57 1.52 1.04 2.45 5.1 8.52.95 1.98 1.51 3.69 1.61 4.92.95 3.78.38 2.74.37 12.48.1 4.26.38 15.69.94 38.68.29 3.03.75 3.02.66 3.5.19 2.08-.09 1.89-.47 2.55-.95 2.46-1.99 3.5 1.52 1.33 8.51 4.53.38.29 13.05 7.56 7.84 4.54-1.13 7.19-1.32 8.22-1.14 6.53-.19 1.51-.19 1.23.19 1.42.1.19.66.85.94.66 1.8.66 2.84.95 2.93 1.04 2.55.85-1.04 5.86-.57 2.37-1.41 3.87 15.69 14.28 9.27 8.23-1.13 1.8-1.61 3.02-3.97 6.81-4.92 9.83-4.54 10.12-3.31 6.62-1.51 3.12-1.52 2.46-1.04 1.61-1.32 1.42-1.89 1.79-2.18 1.71-4.91 3.3-1.52 1.23-.56.67-.19.37-.95.86-.94 1.41-.29.85-.66.76-1.51 1.51-2.74 3.88-1.42.47-1.33 1.23-.56.1-.57.38-.76.19-1.13.94-.85.19-.57.66-2.93 1.99-1.89 1.79-.38.76-.95 1.32-.38.67-1.51-.29-.47.1-.47 1.23-1.04.28-.48.66-.28.66-.19.19-1.89 1.42-.76-.09-.38.19-.75 1.51-.85.19-.95.85-1.42 1.89-1.98.09-.76-.75-.57.09-.38.38-.37.76-.1 1.32-1.04.19-.76-.28-1.41-1.23-.86.09-.94.66-.38.29-.57-.1-1.79-1.13-5.77 8.98-5.49 7.57-2.17 2.36-6.15 8.32-6.24 9.93-4.54 10.02-1.13 3.03-4.45 9.36-6.52 16.45-2.37 6.06-3.49 11.63-1.99 6.9-1.32 4.63-2.65 10.12-2.74 10.69-2.08 9.07-3.03 13.62-3.88 16.36-7.85 30.64-4.44 23.54-.1.76-.18.66-2.56 11.25-1.89 5.11-1.51 3.21-4.16 5.11-17.97 16.45-7.09 8.7-8.42 12.11-5.01 9.55-6.43 13.71-3.21 6.24-3.5 3.78-3.98 4.16-7.65 8.13-11.92 12.68-26.48 28.08-5.77 5.77-2.36 1.98-1.32 1.04-1.99 1.52-2.93 1.6-.66.29-1.04.28-1.23.19h-.76l-.38-.47-1.32-.47-7.38-.19-6.9-.29-5.01-.47-1.8-.09-.66.09-2.65.95-.94.18-1.14-.09-3.78-1.61-1.14-.09-.94.09-2.84.95h-.94l-1.61-.47-1.8-.1-1.89.57-1.61.19-2.36-.57-7.85.85-3.59.76-.38.38-1.8.28-2.27.09-2.36.19-2.65-.09-3.03.09-2.93.48-2.08.66-1.23.75-1.13.48-.66.75-.76.76-.85.95-.85.56-.57.66-.57.95-.94 1.14-.85 1.6-.85 2.27-.38 2.18-.38 2.36-.1 2.65v2.46l.38 3.21.19 2.56-3.21 11.91z" stroke-linejoin="round"/></defs><use xlink:href="#f" fill="#09757a" stroke="#097d9b" stroke-width="5.76"/><defs><path id="g" d="M2822.88 2264.04l-7.09 1.98-6.05 1.8-2.65.47-2.93.19-2.27-.28-4.16-1.23-1.42-.47-18.25-6.43-1.99-.76-3.21-1.7-2.46-1.61-1.89-1.61-3.31-3.12-.48-.47-1.23-1.13-3.12-3.12-7.84-7.85-2.46-2.27-1.89-1.42-2.65-1.51-3.97-1.71-4.16-1.7-2.27-.94-.95-.48-1.51-.66-3.88-1.13-1.13-.29-2.37-.37-1.42-.29-.66-.19-2.55-.28-1.89-.28-2.93-.19-1.99.09-1.32.19-2.84.66-2.37.57-3.49.94-7.1 2.27-1.7.67-12.01 4.35-1.79.37-2.46.19-3.03-.28.47-1.42v-.85l-1.04-3.4-.38-1.99v-1.42l1.52-15.22.66-3.78.09-2.27.19-4.16.48-3.5.28-.76.57-.47.66-.38-.38-.47-.85-.85-.57-.29-2.17-.28-.85-.1-1.61-.19-1.42-.66-.76-.57-4.06-3.49-.76-.29-1.23.19-.75.29-5.68 3.78-2.36 1.61-3.69 2.45-4.73 2.93-3.97 2.46-2.93 1.99-.57.57-.57.66-.37.66-1.42 3.78-8.14-4.06-4.06-2.18.94-2.27 2.84-6.05.28-1.51-.18-1.04-.57-1.33-2.74-5.48-.29-2.46-4.35-25.53-.19-1.8-1.6-10.68-9.46-5.49-11.73-6.9 1.61-1.99 1.33-3.78-1.33-22.12-1.51-25.63h1.13l.76-.28.57-.38.28-.76.85-5.96v-1.13l-.28-1.7-.38-.76-.57-1.04-2.55-3.03-1.32-1.13-.76-.38-.66-.19h-.76l-2.27.29-10.12 2.83-2.46.67-4.63 1.22-1.42.29-2.74.19-6.81-.95-4.54-.75-9.17-1.33-3.69-.38-2.65-.47-6.05-1.8-3.87-.47v8.04l.28 3.4.66 4.92-6.52-5.96-.86-.75-13.99-13.24-1.23-1.14-2.17-1.7-6.44-4.25-1.79-1.14-1.33-.76-1.41-.75-2.18-.85-10.4-3.12-8.98-2.56-2.84-.94-2.18-1.04-1.23-.76 2.75-3.88.66-.75 1.04-.29h.76l.85-.37.66-.57.57-.76.75-2.36.85-1.99.48-1.13.56-3.22v-1.04l-.19-.94-.66-2.08-2.17-5.39-.38-.48-.76-.19-.19-.47-.09-.47.19-1.14.57-1.41.66-.86.38-.28.09-.28v-.66l-.09-.38-.38-.29-.66-.66-.38-.57-.19-.94.28-.47 7.09-1.99.67-.38.47-.38.38-.56.56-3.12.67-2.08.66-1.42.76-1.33.18-.66-.09-1.04-.19-.57-1.32-.66-.29-.57-.38-2.93-.28-.94v-1.52l1.04-2.74.28-3.02-.09-1.23-.28-.76-.29-.57-.56-.37-1.04-.1h-3.41l-.28-.57v-.85l.38-1.04 1.41-1.79-.09-.57-.38-.57-.76-.38-.18-.28v-.38l.18-.85.29-.47.66-.29.57.1 1.04.57.75-.19.67-.67.09-.37-.09-.48-.85-1.13-.1-.66.47-.19.95.09.47-.47.19-.76-.28-1.13-.38-.47-.38-.1-1.13.38-1.23.09-.38-.37-.19-1.23-.28-.57-.48-.19-.56.38-.38.66-.95.95-.38.18h-.37l-.29-.37-.19-.76-.19-1.8-.19-.94-.85-2.65.1-.47.19-.48.47-.09 1.51.19h.76l1.98-.57.38-.28.1-.38v-.38l-1.23-2.36-.29-1.04-.09-.85.28-1.14v-.76l-1.13-3.59-.1-.76-.47-.75-5.67 2.55-29.88 13.43-44.45 19.95.57-2.46 2.65-12.1 1.42-6.62 1.89-8.13.09-.76.38-3.12.09-4.44-.09-1.8-.38-8.89-3.21-.38-7.95-.66-2.46-.09.38 6.14-.19 1.52-.37 1.79-1.14 2.37-1.99 2.74-6.8 7.47-10.12 11.44-2.74 2.93-1.61 1.51-1.42 1.23-2.08.95-1.8.38h-1.7l-.95-.29-6.71-4.44-7.85-5.3-3.31-2.55-1.23-1.23-1.6-2.17-1.52-2.56-.56-1.51-.86-3.21-.09-1.42.19-1.04 1.13-2.37 3.69-5.86.95-2.08.56-1.51.1-.95v-1.04l-.28-1.98-.38-1.33-.57-1.13-1.51-2.18-.85-.94-1.42-1.23-.95-.57-2.36-1.04-1.61-.47-.57-.1-2.17-.28-14.75.09-.67-.75-1.23-1.14-2.45-1.98-2.18-1.33-4.35-2.17-2.55-.95-1.7-.47-2.94-.57-3.49-.09-1.8-.1h-5.77l-1.89-.28-2.08-.66-1.89-.85-1.7-1.04-1.71-1.42-2.93-3.31-2.08-2.18-1.98-1.7-2.18-1.32-.94-.47-2.37-.86-2.27-.37-1.98-.1-1.04.1-4.17.94-3.78.76-3.78.19-7.47.19-3.12-.1-2.37-.28-2.36-.85-1.7-.85-2.27-1.52-2.27-2.17-3.31-3.97-1.04-1.33-4.63-5.95-5.68-8.51-1.98-2.37-1.33-1.13-1.98-1.52-.38-.19-7.28-3.87-2.18-1.14-3.5-2.17-7.47-5.49-3.87-2.93v-3.97l-4.26-24.58-4.92-12.49v-.28l-.09-.76-.38-.66-.38-.28-.19-1.14-1.04-1.98-.94-1.23-1.61-1.33-1.13-.56-2.46-.67h-.95l-5.01 1.23-6.71 1.8-5.96 1.51-4.07-16.07-6.52-26.86-.95-.19-.76-3.21-16.26-22.41-6.9-9.74-19.67-28.09-10.5-14.46-.66-1.04-.38-.66-8.41 5.2-4.17 2.55-.47 1.23-1.89 1.42.38-1.33-1.61.95-3.21 2.27-2.37 1.89-3.78 3.5-2.46 2.65-3.59 4.53-2.56 3.79-3.02 5.29-2.08 4.45-.29.66-5.01 12.2-1.42 3.68-.66 1.42-1.23-.47-2.27-1.13-1.04-.48-1.51-1.04-4.26-3.78-5.1-4.73-21.56-20.23-8.23 11.06-1.7 1.61-1.61 1.23-2.27 1.32-1.04.47-1.42.38-1.98.38-7.09.66-1.04-3.88-.67-2.64-.75-2.18-1.61-2.93-.66-1.42-2.65-4.25-.85-1.04-2.55-3.03-1.8-1.61-2.27-1.79-5.77-3.41-.85 2.08-1.04 1.99-3.22 5.29-.66-.56-.85-.38-2.27-.1-1.98.19-1.8.38-2.08.95-1.23.75-.19.19-1.42 1.7-1.51.38-1.61-.09-1.61-.85-3.78-3.31-5.67-4.92-1.04-1.04-.57-.66-.57-1.14-.19-1.13.29-1.04 1.13-2.08 7.76-11.92.66-1.23.09-.85-.19-1.04-.75-.94 5.01-6.53-2.84-2.93 1.23-1.89-1.13-.85-4.83-3.88-1.51-1.42-.38-.66-.38-1.32-.37-4.07-.57-3.02-.57-1.23-.66-.76-6.05-4.92-2.93-7.84-.38-.48 11.35-16.92.18-.38v-.76l-.18-.38-.19-.28-.29-.38-.56-.57-.29-.37-.19-.19v-.67l.19-.37.95-1.89.38-.95.18-.66v-.57l-.18-.57-.19-.56-2.56-6.25-11.16-24.77-.47-1.13 3.22-5.02 2.36-3.49 4.26-6.91.19-.56.47-1.8 1.23-6.24 1.42-6.34.37-1.42.95-1.51 2.46-4.25 19.29-32.53 1.51-2.93.19-.48-6.62-1.89-4.73-1.42-11.63-3.59-11.72-3.59-7.19-2.18-4.26-44.16.57-5.39 3.6 1.89 4.91 1.8 5.58 1.7 1.89.57 2.46.66 9.17 2.08 11.73 2.84-.09-1.23-.1-1.23-1.04-20.71v-1.79l.47-1.8 2.75-9.08 3.68-11.35 3.31-10.78 3.41-11.06 1.42-4.16 2.36-7.66 3.31-10.97.66-2.08-3.31-1.8-3.5-1.7 5.77-14.84-5.39-2.18 2.55-7.94 1.14-4.16-2.46-1.14-2.36-1.13-1.23-.85-.85-.66-1.14-1.42-.85-1.61-.76-1.89-.66-3.5-1.32-.38-2.84-1.13-7.47-3.22-.94 2.93-5.02 3.41-13.24-3.03 13.72 5.96.94.76.57.85.38.94v.38l-.47 1.04-2.46 4.63-7.85 16.17-.57.67-2.27-1.52-2.46-1.7-16.07-9.93-1.42-.94-.76 1.23-1.51 2.36-4.73 6.71-5.11 7.19-.37.57-3.41 4.82-13.52-6.05-11.73-5.11-2.17-.94-8.89-2.65-11.54-3.22 2.56-1.04.09-3.12.19-12.76-6.15-1.99-5.01-1.7 2.18-12.2 1.89-10.5 4.35-23.73.09-.38.38-1.04 1.89-3.21 8.32-12.3.85-1.32 1.52-3.03.94-2.36 2.84-8.04.38-1.6.28-1.33-9.27-1.89-5.29-.95-4.63-.85-6.81-1.13-11.07-2.08-8.32-1.51-2.08-.57 3.5-10.88 3.31-9.17.85-1.98.66-1.23-17.02-13.05-5.96-4.54 19.67-19.67 10.5-17.97-2.84-5.29-4.91-3.97-15.7 1.7-1.52-.57-.47-.38-3.97-4.16-4.73-6.14-5.77-7.47 5.49-7.57 5.77-8.98 1.79 1.13.57.1.38-.29.94-.66.86-.09 1.41 1.23.76.28 1.04-.19.1-1.32.37-.76.38-.38.57-.09.76.75 1.98-.09 1.42-1.89.95-.85.85-.19.75-1.51.38-.19.76.09 1.89-1.42.19-.19.28-.66.48-.66 1.04-.28.47-1.23.47-.1 1.51.29.38-.67.95-1.32.38-.76 1.89-1.79 2.93-1.99.57-.66.85-.19 1.13-.94.76-.19.57-.38.56-.1 1.33-1.23 1.42-.47 2.74-3.88 1.51-1.51.66-.76.29-.85.94-1.41.95-.86.19-.37.56-.67 1.52-1.23 4.91-3.3 2.18-1.71 1.89-1.79 1.32-1.42 1.04-1.61 1.52-2.46 1.51-3.12 3.31-6.62 4.54-10.12 4.92-9.83 3.97-6.81 1.61-3.02 1.13-1.8 1.42-2.27 13.43-14.66 3.31-2.55 3.87-2.36 6.43-2.37 3.5-1.32 3.69-1.04 2.36-.76 6.25-1.79 10.4-.76 3.4-.19 4.07-.09 2.65.18 18.34-.28 13.9-.19 7.19.19 15.13-2.84 3.59-.66 2.74-.57 1.61-.28 2.08-.85 4.92-1.99 13.14-5.76 27.33-11.54 23.55 24.49 4.92 11.35 14.37 33.28 9.17 21.85 3.78 7.84 3.31 9.37 10.03 22.78 4.44 10.12 4.35 10.21 16.74 38.87 2.65 6.9 3.68 2.18 14.76 8.6 30.45 18.91 28.08 17.21 4.35 2.56 10.78 7.09 47.47 45.29 10.12 10.03 8.98 8.6 26.1 24.87 5.68 8.32 22.5 32.53 24.21 29.69 12.29 15.6 7.47 9.55 3.97 3.79 62.61 61.08 4.72 4.82 5.96 5.96 43.12 58.91 1.14 1.42 1.04 1.42 9.26 11.63 28.94 13.43 27.23 12.48 25.25 11.54 7.76 3.78 2.36 1.04 5.77 5.2 27.99 24.68 1.51 3.31 12.39 39.52 6.81 22.79 9.83 12.2 2.65 1.33 3.69 3.4 4.16 2.65 5.67 3.78 4.07 3.21 5.96 3.5 8.6 4.64 7.47 3.68 6.9 3.5 5.02 2.08 2.55.85 1.99.57 1.98.38 5.86-.19 95.89-7.56 3.69 15.88 3.4 14.56 2.08 8.99 22.32-7.57 3.12-.94h.66l2.18.66 1.42.09.75-.09 6.05-2.18.48-.47.75-1.13.67-.76 1.04-.47.75-.19 4.07.09.76-.19 1.7 1.14 1.32 1.42.57.85.09 1.51-.85 1.51-1.89 2.27-.57.95-1.32 3.4-1.99 1.99-2.17 1.32-.38.57v.57l.47.47 1.04.66 2.18 2.37 1.13 1.32.29 2.74.56.76.76.66 3.69.95.38.47 5.58 1.51 2.55.29.85 1.13v.57l-1.04 2.46-.38.56-.47.67-.76.37-.94.29-10.69 4.25-5.48 2.37-3.41 1.7-10.21 4.25-3.12.95-3.31 1.23-2.46.66-4.73.66-1.6-.09-1.71-.38h-2.83l-.95.28-.95.57h-.47l-.57-.09-.75-.38-.66-.57-3.6-1.7-.85-.1-.94.48-.29.28v.95l.38 1.41v1.04l-.66 3.22v.76l.09.47.57.66.85.57 4.07 1.23 2.08.38 3.12-.1 1.98-.28 1.23-.38 1.14-.38 3.59-2.74 1.99-1.42 1.79-.76 1.61-.19 1.89-.09 1.71.19 5.2 1.04 1.13.19 3.03-.1 1.42-.28 6.43-2.17 6.05-2.75 3.21-1.23 1.8-1.04 1.51-1.13 2.65-2.55.95-.76 4.25-2.55 2.27-1.71.47-.47.57-.85.47-1.13.48-.57.56-.29 1.04-.37 3.22-.1 1.04.57.47.09.38-.09 3.12-2.55 2.27-1.42 4.35-3.97 1.7-1.8 4.07-5.2 2.36-4.54.76-1.8.85-1.6.66-1.61 1.99-6.24 1.8-9.18.37-3.12.1-1.79-.1-1.42-.56-2.08-1.14-1.51-.94-.67-1.33-.56-2.46-.76-.47-.28-.38-.38-.28-.95v-.56l.38-.86 1.6-3.12.67-1.41.37-1.04.29-1.8 1.32-4.16.57-2.74.38-3.22-.19-1.32-.47-.95-.29-.66.1-1.14.28-.66 1.13-2.36.48-.47.75-.38 1.52-.66h.75l.57.19 4.35.09 1.32-.09 1.14-.48.66-.94 5.68-7 2.08-2.18 1.13-.94 1.32-.66 9.56-.85.75-.19 1.23-.76 1.23-1.42.85-1.79.29-2.18-.29-1.42-.47-2.17-.66-1.89-1.04-2.75-.57-.75-.85-.57-.66-.09h-1.71l-.56-.29-.38-.75-.47-1.33-.19-1.32 2.55.94 1.89.85 2.08 1.14 2.18 1.7 2.27 2.84.47.85 2.46 3.59 1.13 1.52.47 1.22.19 1.23v1.99l.19.94-.66.76-.38.47-.56.76-.48.76-.38.85-.37.75-.48 1.33-.38 1.13-.37 1.23-.29 1.04-.38 1.8-3.68 16.26-3.12 14.57-1.61 6.14-1.89 5.58-2.18 5.67-2.65 6.15-2.93 5.77-2.74 5.01-4.73 7.28-4.16 5.68-2.46 2.83-5.76 6.43-3.98 3.88-5.39 4.54-8.98 6.71-2.84 1.61-8.7 4.44-6.62 2.75-7.47 2.55-13.14 3.21-3.69 1.23-13.9 5.49-15.98 5.67-2.84.85-2.46.57-2.55.28-2.93-.19h-.28l-5.77-.94-3.97-.95-1.52-.47-8.7-3.59-6.71-2.75-1.42-.47-5.48-1.7-11.45-3.22-3.12-1.32-3.21-1.7-2.18-1.23-15.69-9.93-23.83 10.69-9.46 4.25-7.19 7.28-1.13.38-.1 3.12v4.82l.29.76 22.69 125.76 11.63 9.46 5.02 2.18 1.13 1.22 12.58 37.36 3.02 9.64.48.57 3.02 1.89 2.46 4.54-17.59 7.37-15.7 6.62-26.19 11.07 9.46 29.03 8.7 12.57 8.98 12.96 33.76 48.98 62.13 91.91-3.5 1.61-3.31 1.23-4.26 1.23-3.78 1.04-12.95 3.59-1.61.38-7.38 2.08-7.09 2.08z" stroke-linejoin="round"/></defs><use xlink:href="#g" fill="#09757a" stroke="#097d9b" stroke-width="5.76"/><defs><path id="h" d="M1612.2 1687.79l-5.58 6.43-1.33 1.42-.19.19-.37.28-.29.29-.47.28-5.01 2.93-.76.38-1.99.57-1.7.28-.38.1 1.23-4.07.67-2.74 1.51-6.53.57-3.31 1.32-9.55.19-1.41.28-1.99 1.42-8.79 4.26-30.36 1.98-12.01.48-2.08.18-.94.86-2.93.85-2.46.37-.85.38-1.14-.38-1.04-.37-1.04-.38-.76-.38-.85-.76-1.6-.75-1.42-.66-1.42-.67-1.14-.56-.94-.57-1.04-.76-1.14-.75-1.13-.86-1.32-.66-1.04-.94-1.14-.85-1.23-1.33-1.51-.57-.66-.09-.19-.19-.19-1.7-1.89-.85-.85-.76-.76-.85-.85-.76-.76-.66-.57-.66-.56-.85-.76-.95-.76-.85-.66-.94-.75-1.04-.76-1.33-.95-1.23-.85-1.13-.66 1.51-1.51 1.14-1.51-4.64-6.15-.19-.76 4.16-3.78.95-.85-1.32-5.58-4.07-16.55-.19-.28v-1.23l-.38-1.61-.09-1.04-.38-2.17-1.99-12.86v-.38l-.85-6.62-.09-1.61.19-4.25.28-.85.28-2.08 1.33-2.65 1.32-1.52 2.37-3.12 1.89-3.12 1.23-2.74 1.51-3.31 1.8-5.01.75-2.36-.75-1.71 1.32-1.04 2.36-1.98 5.77-5.77 26.48-28.08 11.92-12.68 7.65-8.13 3.98-4.16 5.95 5.77 1.42 3.69-.09.38-.1 1.23 1.04 3.31.48 2.55 12.86 7.18 4.91-5.39.95-.56 6.62-3.6 2.93-2.08h.57l1.23 1.23.94 1.04.85.85.67.48.75.47.38.09.57.1.66.09 1.23.29 1.32.19 3.22.28 7.85.28h1.04l15.03.57 2.08.1 3.22.18.85.1 3.12.19 2.17.09 6.34.29 5.11.19-.1 2.17-1.61 9.46-2.45 14.28-.1.66.1.56-3.03 18.44.47-.28 1.14.09 9.74 2.75-.29 1.04h-.09l-.28.09-.1.1-.19.19-.09.09-.1.28v.19l-.09.29v.19l.09.28.1.19.09.28-.19 1.14-2.08 11.53-1.98 12.11-3.6-.76-8.13-1.7-.19 1.23-.76 3.68-1.41 8.04-.19 1.14-2.65 14.56-1.51 7.75-.95 1.89-3.88 6.34-2.83 4.73-.29-.29-.09.38-2.27 3.88-1.14 1.89-.37.28.37.19-8.41 13.71-.19.29-1.23 1.13-.95.66-2.45 1.9-2.27 1.6-1.71 1.71-8.98 10.11-3.5 3.97-4.35 4.64-2.55 2.46-2.55 1.79-2.08 2.93-1.9 2.37-2.36 2.55-.95.76-.47.09-1.32-.09-.48.09-1.04 1.04-.47.57-.19.66-.09.95.19 1.04-.29.85-1.51 1.99-.57.56-1.7.95-.76.85-.66 1.13-.28.76-.28 1.61-5.3 9.08-.47 3.21-2.08 10.21-1.04 1.61-1.42 1.14-3.69 2.17-.19.76-.28.85-.48.94-.56.95-.66.76-.76.75-.29.19-1.41.85-.57.29-.85.47-1.61.85-.57.28-.47.29-.85.56-1.04.67-1.42 1.04-1.42 1.04-1.23.94-4.91 4.26-9.56 8.89-2.45 2.64z" stroke-linejoin="round"/></defs><use xlink:href="#h" fill="#004249" stroke="#00465f" stroke-width="5.76"/></svg>