<svg width="5.64in" height="384" viewBox="0 0 4061 2880" xmlns="http://www.w3.org/2000/svg" xmlns:xlink="http://www.w3.org/1999/xlink"><path fill="#fff" d="M0 0h4061v2880H0z"/><defs><path id="a" d="M1689.5 2795.99l-6.98 1.02-44.16 7.23-3.05.51-9.01 1.52-20.05 2.79-23.73 3.68-2.79.38-64.47 10.66-12.69 2.03-13.58 2.29-19.92 3.3-22.34 3.8-11.42 1.91-12.94 2.28-36.81 6.6-4.95.76-3.17.51-1.9.38-1.53.38-1.01.13-.64.12-.63.13-4.44.89-11.3 1.65-4.57.76-6.72.13-68.66-10.92-120.3-20.93-7.37-1.27-50.12-9.01-51.27-9.14-11.17-1.65-13.33-2.03-2.28-.38-10.15-1.52-6.48-1.02-10.15-1.77-7.23-1.27-8.38-1.53-36.93-6.21-9.52-1.91-24.23-4.57-40.23-6.98-9.27 2.03-10.02 1.65-11.81-2.28-269.8-46.45-147.34-25.38-9.13-1.52-14.47-2.79-54.19-9.26-.38-3.18-.51-.89 5.08-1.52-4.44-2.92-2.16-.25-.38-4.31-45.81-245.3 8.37.12-.38-.25-.25-.25-.13-.26-.13-.38-.89-4.31-17.13-98.98.26-17.39 1.9-13.96 3.68-10.79 8.76-17.89 5.45-8.5 8.51-11.04 7.99-7.87 17.39-12.31 16.11-10.4 25.13-17.14 30.71-21.7 12.95-9.89 19.03-12.06 4.57-2.28 10.41-4.83 13.32-3.55.64-.63 32.74-8.13 1.52-.38 3.3-.5 29.32-4.83 20.94-3.68 4.69-.88 2.41-.38 7.75-1.27 16.49-3.05 9.01-2.79 7.24-2.54 6.72-3.3 8-5.33.76 1.14 3.81-2.92 5.2-4.18 7.11-6.35 12.69-12.31 68.53-64.21 3.42-2.79-.76-1.02 9.77-7.1 4.57-2.79 3.94-2.29 4.18-2.28 7.87-3.56 12.19-4.31 8.24-1.9 9.01-1.27 3.18-.64 4.95-.89 9.77-1.9.13 1.4 13.83-2.67 19.8-3.3 11.42-2.66 11.29-3.81 2.67-1.14.63-.26 2.79-1.14 12.06-5.96 6.22-3.55 6.09-3.94 16.75-11.42 4.19-3.81 1.52-1.27 5.46-4.31 20.94-14.59 5.07-3.18 9.78-5.2 10.53-4.82 5.08-2.03 10.4-3.56 7.62-1.9 6.85-1.14 7.49-1.4 9.77-1.39 4.31-.38h7.11l6.85.12 7.36.64 7.11.89 53.3 9.26 9.9 2.16 16.12 2.66 2.15.13 5.46.76 7.74-.51 10.15-1.14 14.22-2.66 2.28-.51 38.71-8.5 2.66 2.66 2.54-.51 6.85-1.01 4.45-.76 8.75-1.65 7.36-.13 4.32-1.9 1.39-.26 8.13-1.39 2.41-.38 2.28-.38 8.38-1.53 14.97-2.66 1.53-.26 11.67-2.15 1.52-.38 9.27-1.4.76-.13.89-.12 44.29-7.36 4.82-.89 2.79-.38 7.87-1.4 15.48-2.66 2.67-.38 11.04-1.91 8.88-1.52 10.79-1.78 7.36-1.14 2.41-.38 13.2-2.41 13.96-2.29 9.26-1.52 4.45-.63 4.18-.76 12.19-2.16 7.61-1.14 2.54-.64 11.29-1.65 6.35-1.01 4.19-.76 1.52-.26 3.17-.51h.64l5.96-1.01 2.79-.51 3.18-.51 8.5-1.52 3.55-.51 5.33-.63 3.56-.64.5 3.94.76 4.82 1.27 8 1.02 7.23.76 5.84.13.5.63 5.59v.38l.64 4.69 1.52 8.89 2.41 14.34 1.14 6.59.64 2.54.76 2.54.76 3.05.51 1.52.38 1.27.38 1.39.13.64.25 1.27.25 1.01.51 2.54 1.4 8 .89 5.07.38 3.05.25 2.15.13 2.67v1.52l-.13 2.54-.25 2.16-.26 2.28-.76 4.06-.89 2.92-1.01 3.17-.38 1.27-2.16 5.84-.76 2.67-.76 2.28-.51 2.92-.13 1.9v2.29l.26 2.79.38 2.66.63 2.54 1.02 2.54.88 2.03.89 1.78 1.65 2.91 4.7 8.51 1.77 3.3 2.04 3.55 2.03 3.81 3.17 5.96.76 1.52.38.64.89 2.16 1.01 2.53.64 2.16.63 2.16.51 2.15 2.54 15.23.13.13.76 4.82 1.39 8.25 1.02 6.09.13.76 1.77 10.16v.5l5.21 30.59 3.93 23.35 1.52 9.26.26 1.4.25 1.52.51 3.04 2.15 12.57 2.29 13.45.51 3.17.76 4.57 2.28 13.96 1.65 9.52v.25l3.81 22.59.63 3.42.77 5.08-.77 4.44.38 3.17 3.3 18.28.13 1.77 1.02 4.57.88 5.46 1.65-.38.26 1.39.13 1.15.5 3.93.13.25.25 2.03.13.77.63 5.33.13 2.28.26 3.17.12 2.16.13 1.4v2.53l-.13 1.4v2.79l-.12 2.54-.13 3.05-.26 3.04v.25l-.38 4.7-.5 3.43-.51 3.17-1.14 5.96-.26 1.53-.63 2.66-1.27 5.08-.13.63-.25.64-.51 1.9-.25.63-.26.89-1.14 2.92-1.27 3.17-1.14 3.43-1.02 2.54-.88 2.66-.64 1.91-.63 2.15-.51 2.29-.63 2.41-.26 1.52-.76 3.3-.76 3.93-.76 3.94-.38 3.04-1.02 10.16-.13 1.27v1.14l-.12 2.92v2.53l.12 3.05.13 3.05.26 3.8v.64l.5 3.8.51 3.3.38 1.78 3.43 15.86.76 4.32 1.65 7.1 1.14 5.59 2.03 9.26.13 1.02.76 3.55 1.78 7.99 1.14 5.08 1.01 4.95 1.4 6.22 1.65 6.47.38 1.9 15.61-2.79 2.66 2.28-10.27 1.78-7.11 1.52.89 2.92 3.17 9.27.38.76 2.28 5.84 20.94 1.01-.5.89-.26 1.39 1.78 6.86.89 4.06 7.61 44.29-3.42.5-9.4 1.27-4.82.76 1.78 11.68.38 2.28.76 5.46 2.41 16.75 1.53 7.61 2.53 15.99 1.4 7.62.89 4.95.63 3.8.64 3.94 1.27 5.2 1.01 3.68.38 1.52.51 1.4.25.89 2.79 7.23.39 1.27.88 2.03 1.4 3.05 1.9 3.8 1.65 2.8 1.53 2.66 1.65 2.92 1.52 2.28 1.27 2.29 4.69 6.85 2.29 3.43 3.3 4.95 1.65 2.28 1.52 2.54 1.27 2.03.89 1.77 1.39 2.67 1.78 3.55 1.02 2.03.76 1.65 1.52 3.81.51 1.52 1.39 3.56.26.88 1.14 3.68.89 3.05 1.14 3.81.25 1.39.76 3.18 1.27 5.71 1.27 6.21.76 2.8-2.03.76-2.28.38-12.44 2.28z" stroke-linejoin="round"/></defs><use xlink:href="#a" fill="#cee3e4" stroke="#cef5f5" stroke-width="5.76"/><defs><path id="b" d="M3498.55 2565.03l4.19-18.78-.13-7.74-.51-3.81-.88-2.66-.13-.76-1.65-3.17-.89-2.67-4.31-6.98-3.68-4.95-.89-1.39-1.14-1.15-1.4-1.39-3.05-2.29-3.3-2.79-8.12-4.57-3.04-1.65-6.09-.25-3.81.38-23.48 3.05-12.82.38-31.34 3.93-13.58 3.81-11.8 2.79-8.76 1.14-12.82 1.53-34.39 5.83-35.03 5.59-7.86 1.27-16.25 2.41-8.88 1.52-10.79 1.39-20.56 3.43-34.39 6.73-59.26 9.01-1.91.12-3.17.51-62.82 11.68-4.06 1.77-3.55 1.4-8.63 2.41-2.03.51-21.7 3.68-62.95 10.53-14.59 2.92-11.05 2.16-34.01 6.21-1.01.13h-1.14l-3.05.25-4.06.39-1.4-5.97-.76-5.58-9.13-39.21-2.42-12.06-2.28-12.56-2.16-11.68-1.9-10.28-.51-2.79 4.19-.76 3.04-.51-3.29-15.86-1.91-9.39-.51-2.54-1.14-5.33-1.01-5.2-5.08-24.24-2.28-10.91-1.65-8.63-1.4-7.49-2.03-11.04-7.36-40.1-2.29-12.31-2.28-12.44-2.79-14.84-6.73-36.8-1.9-10.28-.64-4.06-1.65-8.89-.63-3.42-3.55-19.42-4.06-21.95-.64-3.3-2.41-12.56-.51-2.8-2.28-12.56-.89-4.44-4.82-25.89-2.92-15.99-.51-2.54-2.66-14.34-2.42-12.94-8.75-46.95-.76-4.32-6.09 1.02-23.36 4.06-13.96 2.54-11.92 2.03-22.21 3.68-14.6 2.53-4.95.89-7.99 1.27-5.84 1.02-2.28-12.18-.38-2.42-.77-4.18-1.39-8.76-1.27-5.84-1.14-4.82-1.02-4.06-1.78-6.35-1.26-4.06-2.03-5.2-1.91-4.57-1.52-3.68-1.78-4.06-.25-.51-1.52-2.91-2.16-4.32-3.68-6.34-4.32-6.73-6.22-9.14-1.14-1.9-4.06-6.09-7.23-10.66-7.74-11.8-11.68-17.39-5.46-8.25-2.66-3.93-2.92-4.57-.25-.38-1.65-2.79-2.41-4.19-1.27-2.41-.89-1.78-2.29-4.82-1.39-3.3-1.27-2.79-1.9-4.82-1.02-2.79-.63-1.91-1.27-4.06-1.02-3.3-.38-1.52-1.14-4.7-1.14-5.07-.51-2.92-1.4-7.23v-.38l-2.03-11.17-1.01-5.33-.64-3.68-2.66-14.98-1.4-8.37-3.04-16.5 18.78-3.55 7.87-1.14 2.41-.64 2.28-1.14 2.16-1.4 2.41-2.53 2.28-3.68 1.53-3.68 1.27-6.6 1.9.76 1.14.76.76 1.14.26 1.27.12 1.14.26 1.27.89 4.57 4.31 24.11.13.89.76 4.19.63 3.93.51 1.78.76 2.28.26.51 1.14 1.4 1.14 1.64.64.39.5.38.89.38 1.4.38 1.77.51.64.12 1.9.13 2.54-.51 4.82-.76 4.95-1.02 9.65-1.64 3.04-.64 3.56-.76 3.04-.51 6.22-1.27 31.73-6.34 2.41-.38 6.09-2.41 2.66-2.03 2.16-1.78.38-.25 2.29-2.67 2.41-2.79 1.78-2.03.63-1.14 1.9-3.68.38-.77.89-2.53.38-.89.64-2.92.38-1.9.25-1.65.38-4.32v-1.9l-.38-2.29-.51-3.55-.63-3.93-.89-6.22 7.74-1.78-7.99-35.53-3.56-14.09-2.66-20.55 8.63-1.65 2.16-.26 37.81-6.34 11.43-2.29 25.76-3.68 29.69-3.8 4.07-.13h2.79l2.54.13 2.41.25 2.53.25 2.8.38 2.53.51 2.29.51 3.04.76 2.92.89 8 2.41 6.22 2.03 3.3 1.02.76-2.8.89-3.68.63-3.04.76-3.81.38-2.41.38-4.31.26-3.3.12-2.41.13-3.56-.13-4.44v-2.54l-.25-3.17-.38-3.68-.38-3.3-.25-2.66-1.02-6.35-.25-1.52 4.31-1.02 2.79-.63 2.54-.64 16.37-3.68 7.87-1.27 7.23-1.01 6.48-1.02 2.91-.25 3.3-.25h.77l6.47-.64 10.4-.25h14.73l2.53.25 3.56.26 3.04.25 4.44.38 6.22.51 2.03.25 4.19.38 7.49 1.14 2.92.39 4.44.76 2.79.5 4.7 1.02 10.15 2.41 4.82 1.4 10.66 2.92 9.39 2.53 8.51 2.41 9.64 2.8 3.68 1.14 16.63 4.57 4.82 1.01 4.82 1.14 3.55.64.77.13 3.17.63 3.93.51 2.67.25 3.17.38 5.96.38 4.45.26 3.68.12h4.95l3.68-.12 4.06-.13 4.31-.38 4.57-.38 3.17-.38 2.8-.51 13.57-1.9 5.71-1.02 6.98-.89 8.63-1.39 1.27-.13 1.4-.13 15.23-2.28 16.37-2.54 6.34-.89 4.07-.63 6.09-.89 6.98-.76 2.66-.26 3.3-.12h2.79l2.92.12 2.67.13 1.52.26 1.78.12 2.03.13 2.03.38 1.52.25 1.65.26 2.03.51 2.54.63 4.19 1.01 2.79.77 3.04 1.14 5.59 2.28 4.06 1.91 3.3 1.77 5.08 2.67 7.86 4.31 4.45 2.16 4.56 2.41 7.74 3.81 10.03 5.07 1.27.64 4.19 2.03 9.39 5.2 2.28 1.14-3.8 9.52-.39 1.02-1.01 2.41 14.09 7.87.12.5 2.54 9.39-2.16 105.58.38 2.54.89.38 1.15 1.02.25.63 2.54 13.96 25.51 55.2 1.77 13.96 5.59 32.36.38 2.41.76 3.56.89 4.95 1.14 5.2 1.52 5.71.89 3.17 2.66 6.85 2.16 6.48.51 2.66.63 3.05.38 2.79.26 2.66.25 3.05.64 18.15 9.77 28.42 12.56 33.88 10.16 27.79-5.59 24.12.89 2.79 21.7 24.74 1.14 9.27 4.83 22.71 2.66 12.06.13 2.92 1.39 28.29-.89 12.95 1.27 5.33-1.9 9.14.76 10.53 10.28 16.62 16.75 20.05.26 2.41 2.03 2.41 4.69 5.46 4.19 6.35 1.9 7.74 3.43 14.08 1.14 4.57 2.79 4.44 2.04 3.43.88 10.91-.88 10.28-1.91 21.45 4.32 10.66-3.05 46.95 5.08 20.81.12 28.17 1.65 27.54 2.92 26.4-3.3 9.89-8.37 12.06-5.59 5.33-4.57 2.54-3.42 2.66-3.43 2.41z" stroke-linejoin="round"/></defs><use xlink:href="#b" fill="#cee3e4" stroke="#cef5f5" stroke-width="5.76"/><defs><path id="c" d="M1862.35 1847.79l1.01 21.2-.38-1.91-.76-4.57-1.52-7.23-1.9-9.39-1.27-6.22-.64-3.3-.51-2.41-.38-1.52-.38-1.78-.76-4.31-.38-2.03-1.39-7.74-.51-2.92-.13-.26-1.27-7.23-2.54-14.72-11.67 1.78-3.56.5-4.06.51-4.95.76-6.34 1.02-6.22 1.14-1.4.13-2.91.51-7.87 1.39-7.74 1.4 2.03-1.78 1.14-.38-20.31 3.05-9.77 1.52-.76.25-.51.38-.38.26-2.16.38-52.03 8.75-2.03.38-89.72 14.6-2.66.63-5.97 1.27-10.91 1.9-3.18.13-2.53.38-10.79 1.78-27.29 4.57-10.15 1.9.13 1.02.13 1.26-3.56.64-5.33.63-3.55.51-8.5 1.52-3.18.51-2.79.51-5.96 1.01h-.64l-3.17.51-1.52.26-4.19.76-6.35 1.01-11.29 1.65-2.54.64-7.61 1.14-12.19 2.16-4.18.76-4.45.63-9.26 1.52-13.96 2.29-13.2 2.41-2.41.38-7.36 1.14-10.79 1.78-8.88 1.52-11.04 1.91-2.67.38-15.48 2.66-7.87 1.4-2.79.38-4.82.89-44.29 7.36-.89.12-.76.13-9.27 1.4-1.52.38-11.67 2.15-1.53.26-14.97 2.66-8.38 1.53-2.28.38-2.41.38-8.13 1.39-1.39.26-4.32 1.9-7.36.13-8.75 1.65-4.45.76-6.85 1.01-2.54.51-2.66-2.66-.26-1.4-.88-5.58-1.65-8.89-.51-3.04-.51-2.79-1.39-6.98-.89-5.21-.64-3.04-.76-4.95-3.17-18.53-1.27-6.72-.76-4.57-.26-1.78-.63-4.06-1.4-8.38-1.14-7.1-.76-4.44-1.52-9.01-2.67-16.37-2.16-12.69-.88-5.46-1.78-9.14-.51-3.04-1.01-5.97-.26-1.14-2.92-16.37-2.41-13.7-.76-4.45-3.55-20.43-1.27-6.6-2.79-15.86-3.43-19.29-3.93-21.82-3.81-21.2-2.28-12.81-1.02-6.47-1.02-5.59-1.52-8.37-.25-1.02-1.4-8.25-1.14-6.34 3.3-3.43 6.34-1.01-12.81-62.69.63-4.06-15.61-79.06-2.03-11.42-3.81-22.59-2.66-23.6-4.82-28.43-6.09-31.09 30.45-5.2 37.57-6.35 57.23-9.52 15.99-1.14 26.53-4.57 68.27-13.32 9.01-.64 1.14-1.39 84.27-14.34 6.47-1.14.64-.13 3.04-.64 34.01-5.96 27.41-4.95 86.81-15.1 154.57-26.78 2.79-1.26 3.3-1.65-.89-4.19-.5-3.17 1.9-.51 1.9-.26 7.24-1.26-1.02-6.22 63.45-10.79 21.96-3.93 16.62-3.05 56.86-9.01 37.44-6.34 35.15-5.97 15.99-2.92 25.76-4.31 2.29-.38 13.7-2.29 4.57-.76 6.6-1.14 26.4-4.57 17.51.26 6.22-.64 2.41-.38 5.96-.51 52.54-8.37 3.68-.76 1.02 6.09 3.04-.64 10.79-1.65 9.77-1.77 17.64-3.18 2.41-.5 37.19-6.48 2.03-.25 1.65-.38 13.45-2.28 9.52-1.65 2.28-.51 3.55-.51 9.52-1.65 21.58-3.68 26.27-4.57 64.08-11.16 5.97-1.15 8.88-1.52.64 3.81 1.65 8.63 1.77 9.39 1.91 9.9 2.53 13.7 1.91 9.77 1.14 6.35 1.78 9.01 2.66 14.72 2.03 11.04 2.79 14.59.51 2.79 10.66 55.71-11.17 14.21.51.64.51.76 1.65 8 6.22 32.61 12.43-2.29 2.8 14.34.63 3.43 2.41 12.82 3.68 18.91 1.02 5.71 1.27 7.23 2.28 11.67 6.22 33.13 1.9 10.15 2.16 11.67 1.78 10.92 1.9 11.16 1.02 5.84 1.65 10.15.5 2.54 2.67-.38 2.79 15.86.64 4.06.12.26.64 4.18 1.14 6.6.76 4.7 1.9 11.17 1.4 7.99 2.79 16.88 4.7 27.54 1.39 8.24.76 4.19.64 4.19 1.52 9.14-2.92-.26 1.53 8.89 1.01 5.58.64 3.93 1.39 8.12 1.91 11.3.76 4.31 1.39 8.51.89 4.56.13.38.76 3.94.76 4.31.25.76.89 4.07 1.02 3.93 3.93 12.56 1.65 4.95-7.61 1.02-10.66 1.65-3.3.38-4.06.63-1.91.26-4.18.63-.89.13-4.95.76-1.53.25-18.27 2.67-4.95.76-37.18 5.71-15.23 2.41-8.5 1.52-30.59 5.71-5.58 1.02-8.12 1.27-3.18.63-7.86 1.52-7.87 1.27-2.8.51-.88.13-3.56.76-7.1 1.4-2.54.5-32.36 5.97-25.38 4.69-10.54 1.91-19.03 3.55-22.47 4.19-16.62 3.17-5.46 1.01-1.9.26-36.8 6.34-1.65.26-31.35 5.45-24.87 4.45-14.85 2.53-7.87 1.4-4.95.76-9.64 1.65-2.03.38-10.41 1.78-.51.12-30.2 5.21-29.06 5.07-10.16 1.78-9.64 1.52-2.67.64-3.29.76-1.65.38-2.92.63-2.16.77-1.14.38-2.03.63-2.41.89-2.54 1.14-5.33 2.29-6.48 3.17-4.18 2.28-5.59 2.92-3.04 1.52-2.16 1.02-1.52.76-.76.38-3.3 1.27-2.67 1.14-.38.13-2.28.89-3.56 1.14-2.03.76-2.03.64-4.19 1.14-2.15.5-3.3.77-2.54.5-2.41.38-5.71 1.02-2.92.51-9.77 1.65-3.3.63-6.48 1.27-2.41.51-1.77.25-1.91.38-.38-2.28-5.58 1.27.38 2.03 9.14 52.92.76 4.06-2.54.5z" stroke-linejoin="round"/></defs><use xlink:href="#c" fill="#9dc8ca" stroke="#9dd7f0" stroke-width="5.76"/><defs><path id="d" d="M1267.29 1255.04l-26.53 4.57-15.99 1.14-57.23 9.52-37.57 6.35-30.45 5.2-.51-3.05-.38-3.04-5.21.38-.88-4.06-2.8-14.98-2.53-13.83-.89-4.44-1.78-9.14-2.66-14.34-.38-2.53-.39-2.16-.38-2.16-.63-3.43-2.54-14.34-2.54-14.21-1.14-5.84-.76-4.69-3.05-16.37-2.28-12.94-1.02-5.59-.38-2.03-2.28-12.05-.64-3.3-1.65-10.03 2.8-.25 4.06-.38-1.53-5.33-6.21.89-2.8-15.87-1.14-6.09-.38-2.28-.76-3.94-1.65-9.39-3.05-15.73-1.65-8.89-1.26-8.5-1.91-10.91-1.01-5.71-.26-.76-1.14-6.98-.51-2.54-.12-.76-.26-1.65-1.9-10.79-.51-2.54-.89-4.95-.89-5.33-.25-1.65-.51-3.04-1.39-7.62-.38-2.15-.89-5.71-.26-1.4-.63-3.93-2.41-13.58-.38-2.41-.51-2.67-1.14-5.83-1.4-7.24-.76-4.31-.63-3.56-3.18-15.99-3.93-20.43-2.79-15.6-3.43-18.53-.51-2.41-.38-2.03-.63-4.06-.38-1.78-2.03-10.91-.51-2.8-1.52-8.63-3.05-16.24-3.17-17.38-4.19-21.96-1.4-7.23-2.79-15.48-2.54-11.42-4.56-24.24-3.43-19.8-1.65-9.01-3.05-18.65-2.66-14.85v-.38l-.64-3.55-.88-4.32-1.02-6.22-3.43-18.27-.63-3.81-3.43-18.78-1.39-7.61 7.23-2.03 151.4-31.85 66.5-10.28 111.42-16.88 88.46-13.45 65.48-16.25 134.52-13.95 23.1-4.07 6.72-1.14 2.16-.25 1.52-.26 9.9-1.52 28.05-3.55 13.96-2.29 20.94-3.55 28.17 14.85 13.33-2.54 10.02-1.9 5.2-2.41 5.84-2.16 7.62-2.79 11.04-4.06 14.34-3.94 3.17-.89 12.31-5.07 18.78-7.62 16.12-5.2 26.27-8.5 13.32-3.05 128.18-22.2 20.43-3.56 98.1-17 2.16-.64 1.14-.12 21.83-7.49 4.69-2.29 29.57-3.17 12.82-.25 11.93 2.28 12.31-.25 7.23-.76 12.44-2.03 18.91-5.08 9.01.76 37.31-5.45 8.88-2.54 23.86-3.68.38 16.37 17.64-10.53h2.03l8-3.94 6.98-4.95 3.3-1.39 4.18 1.27 25.77 3.68 17.89-20.94-1.01-1.4v-.89l.88-.38 2.41.51 10.16 1.9 7.61-3.3 3.3-1.52 7.11-2.92 8.63-.51 5.71 4.57 7.87 2.29 14.72 4.18 8.37-3.04 10.03-6.35 7.49-.63 5.45-5.08 8.38-1.9 5.46-5.08 6.47-5.96 27.28-5.46 12.44 1.53.25 1.9.51 1.78 30.71-6.98 6.09-4.45 2.92 15.36 2.41 13.83 1.53 8.5.89 5.33 2.15 11.93.51 2.92 1.78 9.65.5 2.66 4.83 27.03 1.65 8.63 9.64 52.79 4.32 23.98 1.65 9.01 2.15 11.43.26 1.77 1.65 8.88.51 2.42 3.42 19.67 4.82 26.77 1.15 6.73 1.77 11.04 2.16 12.69 4.06-.51.51 2.66 2.41 12.95 2.03 10.4.76 4.19 3.43 18.78 1.27 6.48.12 1.52.39 1.52 1.52 7.74 2.28 10.66 2.92 12.18.89 3.94 1.9 8.88 1.02 5.46.63 3.17 1.27 6.73 2.29 13.07 3.55 19.67 6.47 35.53.38 2.41 2.29 12.31 2.03 10.53 1.77 9.01 3.3 18.02 5.71 30.96 1.91 10.79 2.28 12.56 2.16 11.55 8.63 46.7 2.41 12.69 2.03 11.3 1.9 9.89 5.97 32.24-3.93.38-31.48 5.71-109.26 20.94-25.26.25 1.02 5.71-2.29.38-14.59 2.41-23.35 3.81-9.27 1.52-15.73 2.54-14.85 2.41-7.74 1.27-14.85 2.41-10.91 1.78-16.12 2.41-4.57.63-2.92.38-1.65.26-6.98 1.14-4.95.89-13.7 2.16-2.67.63-8.88 1.52-5.97 1.15-64.08 11.16-26.27 4.57-21.58 3.68-9.52 1.65-3.55.51-2.28.51-9.52 1.65-13.45 2.28-1.65.38-2.03.25-37.19 6.48-2.41.5-17.64 3.18-9.77 1.77-10.79 1.65-3.04.64-1.02-6.09-3.68.76-52.54 8.37-5.96.51-2.41.38-6.22.64-17.51-.26-26.4 4.57-6.6 1.14-4.57.76-13.7 2.29-2.29.38-25.76 4.31-15.99 2.92-35.15 5.97-37.44 6.34-56.86 9.01-16.62 3.05-21.96 3.93-63.45 10.79 1.02 6.22-7.24 1.26-1.9.26-1.9.51.5 3.17.89 4.19-3.3 1.65-2.79 1.26-154.57 26.78-86.81 15.1-27.41 4.95-34.01 5.96-3.04.64-.64.13-6.47 1.14-84.27 14.34-1.14 1.39-9.01.64-68.27 13.32z" stroke-linejoin="round"/></defs><use xlink:href="#d" fill="#9dc8ca" stroke="#9dd7f0" stroke-width="5.76"/><defs><path id="e" d="M2877.98 2596.89l-50.51 5.58-72.21 12.18-30.84 4.95-18.91 3.43-108.88 19.29-9.52 1.65-212.57 36.16-2.41.38-6.72 1.53-24.5 4.06-11.67 2.03-9.14 1.65-25.13 3.93-43.53 7.61-13.19 2.67-40.74 5.84-18.02 2.79-30.59 5.46-9.64 1.65-18.53 3.17-69.16 10.66-6.48 1.14-9.13 1.65-.51.13-1.4.25-1.52.25-2.66.38-3.56.64-13.7 2.28-125.64 21.07-13.07 1.9-6.22 1.14-36.3 5.84-57.48 10.03-17.9 3.04-21.06 3.56-8.13 1.52-16.24 3.17-4.32 1.02-.76-2.8-1.27-6.21-1.27-5.71-.76-3.18-.25-1.39-1.14-3.81-.89-3.05-1.14-3.68-.26-.88-1.39-3.56-.51-1.52-1.52-3.81-.76-1.65-1.02-2.03-1.78-3.55-1.39-2.67-.89-1.77-1.27-2.03-1.52-2.54-1.65-2.28-3.3-4.95-2.29-3.43-4.69-6.85-1.27-2.29-1.52-2.28-1.65-2.92-1.53-2.66-1.65-2.8-1.9-3.8-1.4-3.05-.88-2.03-.39-1.27-2.79-7.23-.25-.89-.51-1.4-.38-1.52-1.01-3.68-1.27-5.2-.64-3.94-.63-3.8-.89-4.95-1.4-7.62-2.53-15.99-1.53-7.61-2.41-16.75-.76-5.46-.38-2.28-1.78-11.68 4.82-.76 9.4-1.27 3.42-.5-7.61-44.29-.89-4.06-1.78-6.86.26-1.39.5-.89-20.94-1.01-2.28-5.84-.38-.76-3.17-9.27-.89-2.92 7.11-1.52 10.27-1.78-2.66-2.28-15.61 2.79-.38-1.9-1.65-6.47-1.4-6.22-1.01-4.95-1.14-5.08-1.78-7.99-.76-3.55-.13-1.02-2.03-9.26-1.14-5.59-1.65-7.1-.76-4.32-3.43-15.86-.38-1.78-.51-3.3-.5-3.8v-.64l-.26-3.8-.13-3.05-.12-3.05v-2.53l.12-2.92v-1.14l.13-1.27 1.02-10.16.38-3.04.76-3.94.76-3.93.76-3.3.26-1.52.63-2.41.51-2.29.63-2.15.64-1.91.88-2.66 1.02-2.54 1.14-3.43 1.27-3.17 1.14-2.92.26-.89.25-.63.51-1.9.25-.64.13-.63 1.27-5.08.63-2.66.26-1.53 1.14-5.96.51-3.17.5-3.43.38-4.7v-.25l.26-3.04.13-3.05.12-2.54v-2.79l.13-1.4v-2.53l-.13-1.4-.12-2.16-.26-3.17-.13-2.28-.63-5.33-.13-.77-.25-2.03-.13-.25-.5-3.93-.13-1.15-.26-1.39-1.65.38-.88-5.46-1.02-4.57-.13-1.77-3.3-18.28-.38-3.17.77-4.44-.77-5.08-.63-3.42-3.81-22.59v-.25l-1.65-9.52-2.28-13.96-.76-4.57-.51-3.17-2.29-13.45-2.15-12.57-.51-3.04-.25-1.52-.26-1.4-1.52-9.26-3.93-23.35-5.21-30.59v-.5l-1.77-10.16-.13-.76-1.02-6.09-1.39-8.25-.76-4.82-.13-.13-2.54-15.23-.51-2.15-.63-2.16-.64-2.16-1.01-2.53-.89-2.16-.38-.64-.76-1.52-3.17-5.96-2.03-3.81-2.04-3.55-1.77-3.3-4.7-8.51-1.65-2.91-.89-1.78-.88-2.03-1.02-2.54-.63-2.54-.38-2.66-.26-2.79v-2.29l.13-1.9.51-2.92.76-2.28.76-2.67 2.16-5.84.38-1.27 1.01-3.17.89-2.92.76-4.06.26-2.28.25-2.16.13-2.54v-1.52l-.13-2.67-.25-2.15-.38-3.05-.89-5.07-1.4-8-.51-2.54-.25-1.01-.25-1.27-.13-.64-.38-1.39-.38-1.27-.51-1.52-.76-3.05-.76-2.54-.64-2.54-1.14-6.59-2.41-14.34-1.52-8.89-.64-4.69v-.38l-.63-5.59-.13-.5-.76-5.84-1.02-7.23-1.27-8-.76-4.82-.5-3.94-.13-1.26-.13-1.02 10.15-1.9 27.29-4.57 10.79-1.78 2.53-.38 3.18-.13 10.91-1.9 5.97-1.27 2.66-.63 89.72-14.6 2.03-.38 52.03-8.75 2.16-.38.38-.26.51-.38.76-.25 9.77-1.52 20.31-3.05-1.14.38-2.03 1.78 7.74-1.4 7.87-1.39 2.91-.51 1.4-.13 6.22-1.14 6.34-1.02 4.95-.76 4.06-.51 3.56-.5 11.67-1.78 2.54 14.72 1.27 7.23.13.26.51 2.92 1.39 7.74.38 2.03.76 4.31.38 1.78.38 1.52.51 2.41.64 3.3 1.27 6.22 1.9 9.39 1.52 7.23.76 4.57.38 1.91-1.01-21.2 2.54-.5-.76-4.06-9.14-52.92-.38-2.03 5.58-1.27.38 2.28 1.91-.38 1.77-.25 2.41-.51 6.48-1.27 3.3-.63 9.77-1.65 2.92-.51 5.71-1.02 2.41-.38 2.54-.5 3.3-.77 2.15-.5 4.19-1.14 2.03-.64 2.03-.76 3.56-1.14 2.28-.89.38-.13 2.67-1.14 3.3-1.27.76-.38 1.52-.76 2.16-1.02 3.04-1.52 5.59-2.92 4.18-2.28 6.48-3.17 5.33-2.29 2.54-1.14 2.41-.89 2.03-.63 1.14-.38 2.16-.77 2.92-.63 1.65-.38 3.29-.76 2.67-.64 9.64-1.52 10.16-1.78 29.06-5.07 30.2-5.21.51-.12 10.41-1.78 2.03-.38 9.64-1.65 4.95-.76 7.87-1.4 14.85-2.53 24.87-4.45 31.35-5.45 1.65-.26 36.8-6.34 1.9-.26 5.46-1.01 16.62-3.17 22.47-4.19 19.03-3.55 10.54-1.91 25.38-4.69 32.36-5.97 2.54-.5 7.1-1.4 3.56-.76.88-.13 2.8-.51 7.87-1.27 7.86-1.52 3.18-.63 8.12-1.27 5.58-1.02 30.59-5.71 8.5-1.52 15.23-2.41 37.18-5.71 4.95-.76 18.27-2.67 1.53-.25 4.95-.76.89-.13 4.18-.63 1.91-.26 4.06-.63 3.3-.38 10.66-1.65 7.61-1.02 2.54 7.11 1.65 4.95.76 2.53.76 2.54 1.4 5.33 1.14 4.82.25.77.51 2.53.38 1.78.64 3.55 1.14 6.6.76 5.59.64 4.44.5 5.84.26 5.45.38 7.74v.64l.25 5.71.13 4.44.51 12.82 2.92-.38 2.28-.13h1.78l3.04.13 4.44.5 2.67.51 3.3.89 8.75 2.41 2.04.63 3.68 1.02 3.8 1.02 3.43 1.01 3.55.89 1.91.51-1.27 6.6-1.53 3.68-2.28 3.68-2.41 2.53-2.16 1.4-2.28 1.14-2.41.64-7.87 1.14-18.78 3.55 3.04 16.5 1.4 8.37 2.66 14.98.64 3.68 1.01 5.33 2.03 11.17v.38l1.4 7.23.51 2.92 1.14 5.07 1.14 4.7.38 1.52 1.02 3.3 1.27 4.06.63 1.91 1.02 2.79 1.9 4.82 1.27 2.79 1.39 3.3 2.29 4.82.89 1.78 1.27 2.41 2.41 4.19 1.65 2.79.25.38 2.92 4.57 2.66 3.93 5.46 8.25 11.68 17.39 7.74 11.8 7.23 10.66 4.06 6.09 1.14 1.9 6.22 9.14 4.32 6.73 3.68 6.34 2.16 4.32 1.52 2.91.25.51 1.78 4.06 1.52 3.68 1.91 4.57 2.03 5.2 1.26 4.06 1.78 6.35 1.02 4.06 1.14 4.82 1.27 5.84 1.39 8.76.77 4.18.38 2.42 2.28 12.18 5.84-1.02 7.99-1.27 4.95-.89 14.6-2.53 22.21-3.68 11.92-2.03 13.96-2.54 23.36-4.06 6.09-1.02.76 4.32 8.75 46.95 2.42 12.94 2.66 14.34.51 2.54 2.92 15.99 4.82 25.89.89 4.44 2.28 12.56.51 2.8 2.41 12.56.64 3.3 4.06 21.95 3.55 19.42.63 3.42 1.65 8.89.64 4.06 1.9 10.28 6.73 36.8 2.79 14.84 2.28 12.44 2.29 12.31 7.36 40.1 2.03 11.04 1.4 7.49 1.65 8.63 2.28 10.91 5.08 24.24 1.01 5.2 1.14 5.33.51 2.54 1.91 9.39 3.29 15.86-3.04.51-4.19.76.51 2.79 1.9 10.28 2.16 11.68 2.28 12.56 2.42 12.06 9.13 39.21.76 5.58 1.4 5.97z" stroke-linejoin="round"/></defs><use xlink:href="#e" fill="#6bacaf" stroke="#6bb4d2" stroke-width="5.76"/><defs><path id="f" d="M300.64 2427.47l-8.37-.12-2.92-16.12-16.63-89.84-14.09-76.14-14.59-78.56-.38-2.28-1.9.13-.64-3.3-5.46-29.44 23.86-53.94.38-39.21-.25-2.79-1.27-7.11-.13-4.95-1.01-2.15-23.99-142.51-31.09-185.66-15.73-98.85-15.36-86.8-31.09-185.66-31.22-185.65-31.09-185.66-31.1-185.65-6.85-40.36 159.02-26.65 176.9-30.58 6.86-129.69 5.83 3.68 34.65-20.43 91.12-54.19 41.88-7.48 87.05-14.98.38.76-42.13 41.5-.38 1.4-.51.76 7.36 10.66 29.83 4.69 1.01 6.09 1.91 11.3 2.28 12.56 2.03 11.55 3.3 18.14 2.79 15.87 7.11 40.22 2.16 12.69 2.15 12.82.26 1.14.38 1.15.51.88.38.51 1.01.38H666l2.03-.25 2.42-.38 10.66-1.91 49.24-8.12 12.31-2.15 3.04-.51 1.78-.26 4.19-.38 8.24-1.27 2.67-.5 1.4-.38 1.14-.38.89-.77.63-.76.76-1.14.51-1.52.13-1.02.12-1.01-.12-1.02-.13-1.39-3.81-21.32-10.66-56.98-5.2-28.17-1.02-6.48-2.79-16.24-2.66-16.37-.13-1.14.13-1.02.5-.76.64-.76.76-.63.89-.38 1.14-.38L831.49 459l24.49-4.19 21.2-3.68 1.39-.25 1.4-.51 1.01-.51.76-.63 1.02-1.02.76-1.01.89-1.53.89-1.65 1.14-2.66 1.27-3.3.89-2.16 2.28-5.84 1.52-3.93 1.65-3.93 1.15-2.54.76-1.4 1.65-2.92 1.27-1.9 1.39-1.9 1.02-1.27 1.9-1.91 1.91-2.03 1.77-1.65 1.52-1.26 1.78-1.27 1.52-1.02 1.53-.89 1.65-.89 1.65-.88 2.41-1.15 2.41-.88 1.9-.77 2.16-.76 1.27-.38 1.65-.5 4.19-.89 2.79 15.35 1.65 8.88 1.27 7.24.38 2.03 2.66 14.72 2.54 13.32 2.16 12.44 5.58 30.46 2.03 11.04 2.67 15.35 2.79 15.1 3.93 21.96 1.15 6.47 1.39 7.61 3.43 18.78.63 3.81 3.43 18.27 1.02 6.22.88 4.32.64 3.55v.38l2.66 14.85 3.05 18.65 1.65 9.01 3.43 19.8 4.56 24.24 2.54 11.42 2.79 15.48 1.4 7.23 4.19 21.96 3.17 17.38 3.05 16.24 1.52 8.63.51 2.8 2.03 10.91.38 1.78.63 4.06.38 2.03.51 2.41 3.43 18.53 2.79 15.6 3.93 20.43 3.18 15.99.63 3.56.76 4.31 1.4 7.24 1.14 5.83.51 2.67.38 2.41 2.41 13.58.63 3.93.26 1.4.89 5.71.38 2.15 1.39 7.62.51 3.04.25 1.65.89 5.33.89 4.95.51 2.54 1.9 10.79.26 1.65.12.76.51 2.54 1.14 6.98.26.76 1.01 5.71 1.91 10.91 1.26 8.5 1.65 8.89 3.05 15.73 1.65 9.39.76 3.94.38 2.28 1.14 6.09 2.8 15.87 6.21-.89 1.53 5.33-4.06.38-2.8.25 1.65 10.03.64 3.3 2.28 12.05.38 2.03 1.02 5.59 2.28 12.94 3.05 16.37.76 4.69 1.14 5.84 2.54 14.21 2.54 14.34.63 3.43.38 2.16.39 2.16.38 2.53 2.66 14.34 1.78 9.14.89 4.44 2.53 13.83 2.8 14.98.88 4.06 5.21-.38.38 3.04.51 3.05 6.09 31.09 4.82 28.43 2.66 23.6 3.81 22.59 2.03 11.42 15.61 79.06-.63 4.06 12.81 62.69-6.34 1.01-3.3 3.43 1.14 6.34 1.4 8.25.25 1.02 1.52 8.37 1.02 5.59 1.02 6.47 2.28 12.81 3.81 21.2 3.93 21.82 3.43 19.29 2.79 15.86 1.27 6.6 3.55 20.43.76 4.45 2.41 13.7 2.92 16.37.26 1.14 1.01 5.97.51 3.04 1.78 9.14.88 5.46 2.16 12.69 2.67 16.37 1.52 9.01.76 4.44 1.14 7.1 1.4 8.38.63 4.06.26 1.78.76 4.57 1.27 6.72 3.17 18.53.76 4.95.64 3.04.89 5.21 1.39 6.98.51 2.79.51 3.04 1.65 8.89.88 5.58.26 1.4-38.71 8.5-2.28.51-14.22 2.66-10.15 1.14-7.74.51-5.46-.76-2.15-.13-16.12-2.66-9.9-2.16-53.3-9.26-7.11-.89-7.36-.64-6.85-.12h-7.11l-4.31.38-9.77 1.39-7.49 1.4-6.85 1.14-7.62 1.9-10.4 3.56-5.08 2.03-10.53 4.82-9.78 5.2-5.07 3.18-20.94 14.59-5.46 4.31-1.52 1.27-4.19 3.81-16.75 11.42-6.09 3.94-6.22 3.55-12.06 5.96-2.79 1.14-.63.26-2.67 1.14-11.29 3.81-11.42 2.66-19.8 3.3-13.83 2.67-.13-1.4-9.77 1.9-4.95.89-3.18.64-9.01 1.27-8.24 1.9-12.19 4.31-7.87 3.56-4.18 2.28-3.94 2.29-4.57 2.79-9.77 7.1.76 1.02-3.42 2.79-68.53 64.21-12.69 12.31-7.11 6.35-5.2 4.18-3.81 2.92-.76-1.14-8 5.33-6.72 3.3-7.24 2.54-9.01 2.79-16.49 3.05-7.75 1.27-2.41.38-4.69.88-20.94 3.68-29.32 4.83-3.3.5-1.52.38-32.74 8.13-.64.63-13.32 3.55-10.41 4.83-4.57 2.28-19.03 12.06-12.95 9.89-30.71 21.7-25.13 17.14-16.11 10.4-17.39 12.31-7.99 7.87-8.51 11.04-5.45 8.5-8.76 17.89-3.68 10.79-1.9 13.96-.26 17.39 17.13 98.98.89 4.31.13.38.13.26.25.25.38.25z" stroke-linejoin="round"/></defs><use xlink:href="#f" fill="#6bacaf" stroke="#6bb4d2" stroke-width="5.76"/><defs><path id="g" d="M3740.43 2623.41l-10.53-2.54-16.12-19.67-9.77-19.54-3.04-11.55-4.06-17.89-1.15-8.76-.63-4.69-.64-1.4-.76-.89-1.14-.89-7.23-6.98-9.01-4.57-4.7-1.26-7.11-3.05-5.45-1.14-3.3-.76-1.52-.51-1.02-.38-2.03-.51-2.79-1.39-11.17-6.86-1.02-.63-1.14-.38-4.95-1.78-7.36-1.78-8.25 1.4-6.09 3.81-3.68 3.8-3.04 5.97-3.94 3.93-6.85 7.11-10.91 11.17-2.42 2.91-4.82 7.36-4.19 8.76-.5 1.02-.51 1.27-2.16 6.09-3.04 5.71-2.92 18.52-.26 2.03-.63 3.43-.76 3.05-1.15 3.17-1.01 2.54-.76 1.39-.64.89-.76 1.02-1.14 1.14-1.4 1.14-1.77 1.02-1.91.88-1.9.64-2.79.51-2.41.25-3.18.13h-4.18l-3.05-.13h-5.08l-5.07-.25-4.95-.51-2.41-.64-1.65-.63-2.79-.89-1.4-.51-1.78-.76-1.9-.89-3.68-3.3-.89-.88-1.27-2.16-1.65-3.81-.76-2.28-.51-3.05-.38-3.17V2588l.76-4.31 1.53-3.05 2.66-15.61 3.43-2.41 3.42-2.66 4.57-2.54 5.59-5.33 8.37-12.06 3.3-9.89-2.92-26.4-1.65-27.54-.12-28.17-5.08-20.81 3.05-46.95-4.32-10.66 1.91-21.45.88-10.28-.88-10.91-2.04-3.43-2.79-4.44-1.14-4.57-3.43-14.08-1.9-7.74-4.19-6.35-4.69-5.46-2.03-2.41-.26-2.41-16.75-20.05-10.28-16.62-.76-10.53 1.9-9.14-1.27-5.33.89-12.95-1.39-28.29-.13-2.92-2.66-12.06-4.83-22.71-1.14-9.27-21.7-24.74-.89-2.79 5.59-24.12-10.16-27.79-12.56-33.88-9.77-28.42-.64-18.15-.25-3.05-.26-2.66-.38-2.79-.63-3.05-.51-2.66-2.16-6.48-2.66-6.85-.89-3.17-1.52-5.71-1.14-5.2-.89-4.95-.76-3.56-.38-2.41-5.59-32.36-1.77-13.96-25.51-55.2-2.54-13.96-.25-.63-1.15-1.02-.89-.38-.38-2.54 2.16-105.58-2.54-9.39-.12-.5-14.09-7.87 1.01-2.41.39-1.02 3.8-9.52 1.14-2.92 6.86 3.43 1.01.51 1.02.38 1.65.76 7.36 2.41 2.03.76 2.41.76 1.78.64 3.17.89 3.17.76 6.86-36.42-6.48-26.4 2.03-14.21 16.25-101.52 4.82.13 10.91.63 3.94.38 8.37.38 33.63 3.94 32.11 3.68 9.52.63 16.88.89 4.06.13 14.85.89 28.55 1.52 15.48 1.01 13.96.38 5.08.26 3.05.25 4.31.26 9.01.5 8.88.38 11.81.76 16.62.77h3.05l4.82-.26 3.3-.63 2.54-.51 3.3-1.01 2.15-.77 2.16-1.01 1.52-.64 2.16-1.26 2.41-1.4 3.68-2.41 14.09-10.66 12.69-9.65 7.61-5.83.26-.13 2.03-1.4 2.16-.88 2.28-.64 1.78-.38 1.65-.13 2.15.13 3.94.63 2.03.26 2.41-.51 1.4.38 1.14.64 1.14.88.51.64.51 1.52.25 1.27 2.54 13.45.51 3.43.5 2.28 1.53 8.38 28.93-5.2 11.29.63 22.09-2.79 14.08 1.9 27.03-10.78 10.79-4.32-2.66-7.36-4.32-12.69-14.85-63.83-4.82-26.02-8.63-21.06 26.27-.64.64 1.27 1.65 8.13 9.13 22.46 5.21 19.16 2.15 6.47 3.68 10.41 1.53 10.02-1.78 8.12 1.01 14.34 7.87-2.15 32.62-6.6 4.31-2.92-.25-15.36v-2.15l-.13-1.91.76-1.39v-1.65l-.38-5.46-.38-10.03-.38-.76-.25-7.36-.13-4.95-.13-5.2-.12-5.46v-1.65l-.26-9.64-.5-17.77 13.45-2.03 3.17 29.32 6.47 60.53.13 1.14 11.55 111.04.63 6.47 2.29 21.32-2.03 23.48.76 11.8.63 5.46 1.14 15.48 2.8 37.18 6.09 36.42 5.58 27.41 7.87 66.5 5.84 51.01 2.79 29.44 3.17 32.74 2.03 54.31 2.03 52.16 4.95 62.43 5.97 50.89.25 1.91 3.3 22.46 1.52 12.81 6.09 32.62-16.62 1.65 1.02 6.09.25 7.23-6.73 11.42-3.55 5.84-2.16 22.84.76 19.42 2.67 77.28.51 37.43.5 36.04.38 20.94-2.28 43.78-.38 8.38.89 77.54-6.22 1.01-12.06 1.27-2.53.63-1.4.26-8.76 1.65-3.3.63-.38.13-3.04.63-5.08 1.15-14.59 2.91-2.03.51-31.98 6.22-1.27.25-.77.38-2.03.51-2.15.51-6.73 1.4-6.98 1.52-3.68.51-7.49 1.14-1.01-.51-1.27-.63-4.44-1.53-23.48 4.7h-1.14l-90.23 18.4-6.48 1.65-3.29 1.65-2.04 1.65z" stroke-linejoin="round"/></defs><use xlink:href="#g" fill="#09757a" stroke="#097d9b" stroke-width="5.76"/><defs><path id="h" d="M3854.78 887.54l.25 5.08-6.22 1.26-22.71-.76-17.39 3.05-10.66 1.01-5.2-50.37-.64-5.97-3.42-32.99-10.54 1.27-39.46 4.69-1.65 1.65-52.67 10.91-2.29-2.15-14.08 3.8-2.54 1.4-2.92.38-.25-2.03-6.86 1.27-18.52 3.3-15.99 2.79-12.19 2.16-3.8.51-3.68.88-8.51 2.29-3.17 1.01-2.92.89-12.56 2.92-18.28 3.3-7.23 1.27-4.06.76-6.85 1.27-13.2 2.41-2.41.38-5.97 1.02-7.49.88-2.41.26-5.58.38-3.68.51-20.56 3.68-2.03.38-10.79 1.9-5.58.89-13.33 2.54-5.96 1.27-2.54.5-6.85 1.27-4.57 1.02-4.19.76-7.61 1.39-7.87 1.27-2.79.51-7.24 1.27-6.22 1.14-4.94.89-8.38 1.52-22.84 4.06-3.18.64-4.95.89-12.43 2.28-2.54.51-2.16.38-2.54.38-1.39.25-4.06.77-14.22 2.53-11.29 2.03-12.95 2.42-14.84 2.66-4.32.51-11.04 1.9-6.09 1.14-3.81.76-3.68.89-4.44 1.15-3.93.88-3.05 1.02-5.71 1.78-3.3 1.14-5.46 1.77-6.47 2.54h-.25l-3.81 1.52-4.19 1.65-6.6 2.54-5.07 1.78-4.7 1.52-4.57 1.27-.38.13-3.17.76-1.78.38-5.2 1.01-5.71 1.15-1.65.25-3.43.64-7.87 1.26-3.8.77-2.92.5-8.89 1.65-43.65 8-10.53 1.9-12.06 2.03-3.17.64-3.43.5-2.54.51-9.52 1.52-12.31 1.91-3.04.38 2.03-3.68-120.18 16.62-1.14.13-1.53.25-24.62 3.94-85.91 13.58-39.85 6.09-5.97-32.24-1.9-9.89-2.03-11.3-2.41-12.69-8.63-46.7-2.16-11.55-2.28-12.56-1.91-10.79-5.71-30.96-3.3-18.02-1.77-9.01-2.03-10.53-2.29-12.31-.38-2.41-6.47-35.53-3.55-19.67-2.29-13.07-1.27-6.73-.63-3.17-1.02-5.46-1.9-8.88-.89-3.94-2.92-12.18-2.28-10.66-1.52-7.74-.39-1.52-.12-1.52-1.27-6.48-3.43-18.78-.76-4.19-2.03-10.4-2.41-12.95-.51-2.66-4.06.51-2.16-12.69-1.77-11.04-1.15-6.73-4.82-26.77-3.42-19.67-.51-2.42-1.65-8.88-.26-1.77-2.15-11.43-1.65-9.01-4.32-23.98-9.64-52.79-1.65-8.63-4.83-27.03-.5-2.66-1.78-9.65-.51-2.92-2.15-11.93-.89-5.33-1.53-8.5-2.41-13.83-2.92-15.36 3.56-.38 34.77-5.96 11.04-1.9 15.1-2.8 49.37-9.01 136.8-24.74 49.24-9.14 19.67-3.55 24.12-4.82 88.96-15.48 26.39-4.95 1.91-.38 2.03-.39.76 4.83 79.95-15.36 21.83-3.3 35.66.26 1.4-.26 2.03-.38-2.03-11.42 30.45-3.93-2.15-46.45 1.01-10.91 7.23 13.58 1.15 6.21.12-21.82 25.38 54.31 2.16-.13 17.64 5.46 66.63-21.95 47.21-6.86 2.03 19.67 20.43-3.42-1.27-8.25-1.9-10.79 21.82-4.95 25.13 1.02 8-4.19 42.26 35.41 11.8.76h3.68l50.63 1.14 2.42-.13 14.72 2.03 4.82 2.54 1.9 1.02 10.54 7.36 13.45 9.13 2.41 1.65 7.49 3.56 7.48 1.52h7.49l27.29-6.35 59.64-10.91 8.63-.51 8-.76-1.53-82.1-.88-5.46-2.54-31.6-3.68-17 11.17-2.03 8.12-3.3 24.74-4.95 4.7 44.29 1.14 11.42 1.14 15.73 4.7 63.07 2.41 38.2.25 4.31 2.16 6.86.89 28.42 9.65 93.4.5 5.2 9.9 97.97 1.65 16.5.13.89 4.31 31.09 5.08 54.94.63 20.56 3.94 50.89 1.65 8.63 2.54 14.08.5 10.66-1.65 22.59 4.45 45.69 3.04 21.82.13 8.51.38 23.85 2.03 11.68 1.78 10.4.25 2.67 1.52 19.54 1.27 15.48 1.4 13.45-2.29 19.42.13 14.85-14.72 2.66-10.41-.25-2.03-2.03-6.34 11.8z" stroke-linejoin="round"/></defs><use xlink:href="#h" fill="#09757a" stroke="#097d9b" stroke-width="5.76"/><defs><path id="i" d="M2624.04 1813.91l-2.54.51-1.9-.13-.64-.12-1.77-.51-1.4-.38-.89-.38-.5-.38-.64-.39-1.14-1.64-1.14-1.4-.26-.51-.76-2.28-.51-1.78-.63-3.93-.76-4.19-.13-.89-4.31-24.11-.89-4.57-.26-1.27-.12-1.14-.26-1.27-.76-1.14-1.14-.76-1.9-.76-1.91-.51-3.55-.89-3.43-1.01-3.8-1.02-3.68-1.02-2.04-.63-8.75-2.41-3.3-.89-2.67-.51-4.44-.5-3.04-.13h-1.78l-2.28.13-2.92.38-.51-12.82-.13-4.44-.25-5.71v-.64l-.38-7.74-.26-5.45-.5-5.84-.64-4.44-.76-5.59-1.14-6.6-.64-3.55-.38-1.78-.51-2.53-.25-.77-1.14-4.82-1.4-5.33-.76-2.54-.76-2.53-1.65-4.95-2.54-7.11-1.65-4.95-3.93-12.56-1.02-3.93-.89-4.07-.25-.76-.76-4.31-.76-3.94-.13-.38-.89-4.56-1.39-8.51-.76-4.31-1.91-11.3-1.39-8.12-.64-3.93-1.01-5.58-1.53-8.89 2.92.26-1.52-9.14-.64-4.19-.76-4.19-1.39-8.24-4.7-27.54-2.79-16.88-1.4-7.99-1.9-11.17-.76-4.7-1.14-6.6-.64-4.18-.12-.26-.64-4.06-2.79-15.86-2.67.38-.5-2.54-1.65-10.15-1.02-5.84-1.9-11.16-1.78-10.92-2.16-11.67-1.9-10.15-6.22-33.13-2.28-11.67-1.27-7.23-1.02-5.71-3.68-18.91-2.41-12.82-.63-3.43-2.8-14.34-12.43 2.29-6.22-32.61-1.65-8-.51-.76-.51-.64 11.17-14.21-10.66-55.71-.51-2.79-2.79-14.59-2.03-11.04-2.66-14.72-1.78-9.01-1.14-6.35-1.91-9.77-2.53-13.7-1.91-9.9-1.77-9.39-1.65-8.63-.64-3.81 2.67-.63 13.7-2.16 4.95-.89 6.98-1.14 1.65-.26 2.92-.38 4.57-.63 16.12-2.41 10.91-1.78 14.85-2.41 7.74-1.27 14.85-2.41 15.73-2.54 9.27-1.52 23.35-3.81 14.59-2.41 2.29-.38-1.02-5.71 25.26-.25 109.26-20.94 31.48-5.71 3.93-.38 39.85-6.09 85.91-13.58 24.62-3.94 1.53-.25 1.14-.13 120.18-16.62-2.03 3.68 3.04-.38 12.31-1.91 9.52-1.52 2.54-.51 3.43-.5 3.17-.64 12.06-2.03 10.53-1.9 43.65-8 8.89-1.65 2.92-.5 3.8-.77 7.87-1.26 3.43-.64 1.65-.25 5.71-1.15 5.2-1.01 1.78-.38 3.17-.76.38-.13 4.57-1.27 4.7-1.52 5.07-1.78 6.6-2.54 4.19-1.65 3.81-1.52h.25l6.47-2.54 5.46-1.77 3.3-1.14 5.71-1.78 3.05-1.02 3.93-.88 4.44-1.15 3.68-.89 3.81-.76 6.09-1.14 11.04-1.9 4.32-.51 14.84-2.66 12.95-2.42 11.29-2.03 14.22-2.53 4.06-.77 1.39-.25 2.54-.38 2.16-.38 2.54-.51 12.43-2.28 4.95-.89 3.18-.64 22.84-4.06 8.38-1.52 4.94-.89 6.22-1.14 7.24-1.27 2.79-.51 7.87-1.27 7.61-1.39 4.19-.76 4.57-1.02 6.85-1.27 2.54-.5 5.96-1.27 13.33-2.54 5.58-.89 10.79-1.9 2.03-.38 20.56-3.68 3.68-.51 5.58-.38 2.41-.26 7.49-.88 5.97-1.02 2.41-.38 13.2-2.41 6.85-1.27 4.06-.76 7.23-1.27 18.28-3.3 12.56-2.92 2.92-.89 3.17-1.01 8.51-2.29 3.68-.88 3.8-.51 12.19-2.16 15.99-2.79 18.52-3.3 6.86-1.27.25 2.03 2.92-.38 2.54-1.4 14.08-3.8 2.29 2.15 52.67-10.91 1.65-1.65 39.46-4.69 10.54-1.27 3.42 32.99.64 5.97 5.2 50.37 10.66-1.01 17.39-3.05 22.71.76 6.22-1.26-.25-5.08 6.34-11.8 2.03 2.03 10.41.25 14.72-2.66.64 6.85 6.97 80.58 2.67 29.57 14.09 115.86 9.26 91.24 3.68 35.53 1.78 18.4 2.79 34.27 2.03 19.03 2.16 20.69 1.65 15.22-13.45 2.03.5 17.77.26 9.64v1.65l.12 5.46.13 5.2.13 4.95.25 7.36.38.76.38 10.03.38 5.46v1.65l-.76 1.39.13 1.91v2.15l.25 15.36-4.31 2.92-32.62 6.6-7.87 2.15-1.01-14.34 1.78-8.12-1.53-10.02-3.68-10.41-2.15-6.47-5.21-19.16-9.13-22.46-1.65-8.13-.64-1.27-26.27.64 8.63 21.06 4.82 26.02 14.85 63.83 4.32 12.69 2.66 7.36-10.79 4.32-27.03 10.78-14.08-1.9-22.09 2.79-11.29-.63-28.93 5.2-1.53-8.38-.5-2.28-.51-3.43-2.54-13.45-.25-1.27-.51-1.52-.51-.64-1.14-.88-1.14-.64-1.4-.38-2.41.51-2.03-.26-3.94-.63-2.15-.13-1.65.13-1.78.38-2.28.64-2.16.88-2.03 1.4-.26.13-7.61 5.83-12.69 9.65-14.09 10.66-3.68 2.41-2.41 1.4-2.16 1.26-1.52.64-2.16 1.01-2.15.77-3.3 1.01-2.54.51-3.3.63-4.82.26h-3.05l-16.62-.77-11.81-.76-8.88-.38-9.01-.5-4.31-.26-3.05-.25-5.08-.26-13.96-.38-15.48-1.01-28.55-1.52-14.85-.89-4.06-.13-16.88-.89-9.52-.63-32.11-3.68-33.63-3.94-8.37-.38-3.94-.38-10.91-.63-4.82-.13-16.25 101.52-2.03 14.21 6.48 26.4-6.86 36.42-3.17-.76-3.17-.89-1.78-.64-2.41-.76-2.03-.76-7.36-2.41-1.65-.76-1.02-.38-1.01-.51-6.86-3.43-1.14 2.92-2.28-1.14-9.39-5.2-4.19-2.03-1.27-.64-10.03-5.07-7.74-3.81-4.56-2.41-4.45-2.16-7.86-4.31-5.08-2.67-3.3-1.77-4.06-1.91-5.59-2.28-3.04-1.14-2.79-.77-4.19-1.01-2.54-.63-2.03-.51-1.65-.26-1.52-.25-2.03-.38-2.03-.13-1.78-.12-1.52-.26-2.67-.13-2.92-.12h-2.79l-3.3.12-2.66.26-6.98.76-6.09.89-4.07.63-6.34.89-16.37 2.54-15.23 2.28-1.4.13-1.27.13-8.63 1.39-6.98.89-5.71 1.02-13.57 1.9-2.8.51-3.17.38-4.57.38-4.31.38-4.06.13-3.68.12h-4.95l-3.68-.12-4.45-.26-5.96-.38-3.17-.38-2.67-.25-3.93-.51-3.17-.63-.77-.13-3.55-.64-4.82-1.14-4.82-1.01-16.63-4.57-3.68-1.14-9.64-2.8-8.51-2.41-9.39-2.53-10.66-2.92-4.82-1.4-10.15-2.41-4.7-1.02-2.79-.5-4.44-.76-2.92-.39-7.49-1.14-4.19-.38-2.03-.25-6.22-.51-4.44-.38-3.04-.25-3.56-.26-2.53-.25h-14.73l-10.4.25-6.47.64h-.77l-3.3.25-2.91.25-6.48 1.02-7.23 1.01-7.87 1.27-16.37 3.68-2.54.64-2.79.63-4.31 1.02.25 1.52 1.02 6.35.25 2.66.38 3.3.38 3.68.25 3.17v2.54l.13 4.44-.13 3.56-.12 2.41-.26 3.3-.38 4.31-.38 2.41-.76 3.81-.63 3.04-.89 3.68-.76 2.8-3.3-1.02-6.22-2.03-8-2.41-2.92-.89-3.04-.76-2.29-.51-2.53-.51-2.8-.38-2.53-.25-2.41-.25-2.54-.13h-2.79l-4.07.13-29.69 3.8-25.76 3.68-11.43 2.29-37.81 6.34-2.16.26-8.63 1.65 2.66 20.55 3.56 14.09 7.99 35.53-7.74 1.78.89 6.22.63 3.93.51 3.55.38 2.29v1.9l-.38 4.32-.25 1.65-.38 1.9-.64 2.92-.38.89-.89 2.53-.38.77-1.9 3.68-.63 1.14-1.78 2.03-2.41 2.79-2.29 2.67-.38.25-2.16 1.78-2.66 2.03-6.09 2.41-2.41.38-31.73 6.34-6.22 1.27-3.04.51-3.56.76-3.04.64-9.65 1.64-4.95 1.02-4.82.76z" stroke-linejoin="round"/></defs><use xlink:href="#i" fill="#004249" stroke="#00465f" stroke-width="5.76"/></svg>