<svg width="5.94in" height="384" viewBox="0 0 4277 2880" xmlns="http://www.w3.org/2000/svg" xmlns:xlink="http://www.w3.org/1999/xlink"><path fill="#fff" d="M0 0h4277v2880H0z"/><defs><path id="a" d="M3564.08 2846.18l-10.96 2.14-10.03 2.14-4.14 1.07-3.88.27-4.01-.54-12.43-2.4-22.98-2.81-4.28.27-7.75-2.68-6.15-3.6-.54-.14-45.44-13.23-17.78-6.55-12.02-3.61-6.02-2.27-5.08-3.21-2.27-4.41-5.88-3.21-5.88-4.41-7.49-7.75-4.41-3.48-5.21-7.61-7.48-6.69-1.61-2-2.27-4.28-2.54-5.08-4.01-7.89-.94-2-2-2.81-2.01-1.73-1.47-2.14-1.33-3.88-2.54-9.76-1.74-5.48-2.4-7.21-.81-2.68-3.07-15.9-1.87-8.56-5.35-18.84-2.67-4.82 5.61-9.49.54.27.66.14h.81l4.67-3.35 1.34-1.07 3.34-4.81 2.41-8.02.93-9.09.27-2.8 1.34-5.48 2.67-5.35.67-2.27 1.34-2.14 2.13-3.07 1.07-2.54-.13-2.54-.4-3.08 1.07-5.21 1.07-3.74.13-1.34.67-3.34.8-5.62v-.93l.27-1.07-.13-2.54v-.8l-.67-.54-2.28-.8-1.06-.8-.41-.8v-1.34l.14-1.47.67-3.34 2.54-8.15 1.47-2.28.93-1.33 1.2-1.87.41-.54 2.13-5.61.41-1.74 2.13-8.55.67-3.08.8-2 2.81-7.89 6.55-17.64v-2.68l-.13-.93v-.4h-.27l-.94-.14h-.26l.13-1.73.8-2.14 3.48-8.02 1.47-4.15.67-4.41 1.2-5.34.4-3.08.27-2.14.66-6.14.67-8.16-.4-1.87v-3.34l.27-5.08-.54-5.35-.53-3.07-.4-2.27v-1.87l.53-3.88v-4.14l-.53-4.01-.8-5.62-.4-2.67-1.07-6.01-.94-4.55-.13-3.34-.8-2.81-.27-1.47-.54-1.33-1.33-2.81-.94-1.87-.93-2.27-.14-1.48-1.47-5.88-1.07-3.74-.8-2.4-1.6-4.15-1.07-.93-.27-6.02-.27-1.34-.4-1.6-3.34-6.55-.93-3.47-1.48-3.35-1.2-3.87-3.47-6.55-3.61-4.28-2.27-2.14-4.82-1.6-8.82-2.54-6.95-.8-8.42-.14-6.81.67-6.69 1.34-7.62 2.81-3.34 1.47-3.07 2-7.08 9.76-3.21 8.42-2.14 7.48-1.6 4.68-.14 2.41 1.47 8.55 2.41 9.09.93 2.54 1.34 2.27.27 2.01-.14.67-1.07.26-2.13.27-.27 1.74 1.2 2.54 1.07.93 1.34 1.07 1.73 2.01 1.07 1.47.81 2.54 1.6.8 1.2.8 1.87.14.67.4.14 1.07-.27.93-1.2.94-2.28.53-2.94.67-1.33.8v1.21l.26.8.81.67.93.66 1.34.67 1.2.8.94 2.14.53.14.8-.14.67-.53.4-.67.4-.54.27-.26.54.13-.14 1.47-.13.54-.4.53.13.67.27 1.87-.14.27-.13.53.27 1.47-.14 1.47v1.74l.27 1.6v.41l-.53.26-.67-.13-2.41-1.07h-.93l-.54.4.14.8.26.54.67.8 2.27 2.27.81 1.61.66.8.54.26.13.81-.13.26.13 1.21.27 2.14.27 1.87v.67l-.54 1.33v.67l.14 1.34-.14.4-.4.26-.53.14h-.8l-1.74-.27-.54.13-.53.41v.53l.53 1.47.14.94.4.8.4.53.4.4.27.54.8 3.21.53.93.27.94-.93 3.74-.67 1.34-.4 1.73.13 3.48.27 2.81.67.93.53 1.21.13 1.6-.13 1.07-.13.93-.54.94-.53 1.74.13 2.54.13 1.07.41.53.13.94.27 2.14-.14 3.2-.13 2.01-.27 2.8-1.47 9.63-2.4 8.95-.94 5.75v2.14l-.27 1.6-.93 2.28-1.21 2.4-3.07 6.82-2.81 8.15-1.07 5.08-2 8.96-.94 7.48-.26 4.14-.54 2.95-.27 1.47-.13 2.27-.27 1.87-.93 3.47-1.61 3.75-1.73 4.27-2.01 4.01-3.34 5.75-3.34 4.81-2.41 3.21-2.27 3.34-.53.8-.41.67-.53.8-.13.54-19.92 13.5-8.02 8.29-2.27 1.07-2 1.06-.81.54-2.13 1.47-1.48.8-1.73 1.07-2.27 1.34-1.74 1.07-1.34 1.2-1.34 1.07-1.6 1.2-1.47 1.07-2.67 1.61-.94.4-.93.13-1.07-.13-1.07-.4-.8-.41h-.81l-.53.14-.4.67-.27.53-.27.67-.66 1.07-.94.53-.94.27-1.2.13-1.2.14-1.07-.14-1.07-.13-.8-.13h-.94l-.93.13-1.07.13-.67-.4-.67-.26-.4-.41h-.8l-.94.14-.67.4-.53.53-1.07.67-1.34.54-1.47.26-1.6.14-1.34.27-1.07.4h-2.27l-.53-.4-.14-.54-.4-.53-.53-.4-.4.13-.67.53-.4 1.21-.4.8-.54.4-.67.27-.93.4-.67.13-.8.13-.67.27-.94.14-1.07-.14-1.06-.13-1.07-.27h-.94l-.94-.13-.66-.14-.54-.4-.53-.8-.54-.27-.4.14-.67.53-.66.4-.94.27-.94.27-1.07.13-1.33.27-.94.4-1.2.27-.94.4-.93.13-.8-.13-.4-.54-.27-.67-.14-.93v-2.01l-.13-.66-.4-.4-.67.13-.53.27-.8.4-1.07.13-.81.27-.53.27-.13.8v1.33l-.14 1.21-.53.53-.54.54-1.6.4-1.6-.14-1.21-.53-.93-.67-.81-.8-.93-.14-.94.27-.8.4-.53.54-1.21 1.47-1.73 1.33-.94.14-1.47-.4-.67-.27-.93-.8-.67-.54h-1.07l-1.2.27-1.21.54-1.6.93-1.47.67-1.47.4-1.47.13h-1.34l-2.14.14-1.47.13-1.87.8-2 .4-1.87.27-4.28.4-2.81.27-2.67.13-1.47.14-1.6.53-.67.27-1.34.53-1.07.67-.93.4-.81.27-.66.27-1.07.27-.81-.14h-.8l-.8-.13h-.94l-.66-.27-.67-.27h-.4l-.8.14-1.88-.27-1.33.13-1.34.14-1.07.13-1.07.4h-3.07l-.54-.4-.66-.27-.54-.13h-1.2l-1.2.4-.81.27-1.07.27-.4.4-.53.26-.8.14h-.94l-1.07.13h-.93l-.67.13-.94.67-.53.14h-.4l-.4-.27-.41-.27-.66-.13h-.4l-.27.27-.4.4-.27.26-.8.27-.8.4-.67.14h-1.21l-.53.4-.67.13h-.93l-1.21.27-1.2.4-1.2.53-.67.4-.54.27-.66.67-.54 1.2-.13.67-.67.27-.53-.4-.94-.27h-.67l-.8.53-.54.14h-.53l-.8.4-.67.4-.53.94-.67.66-.54.54-.67.67-1.2.53-.93.94-.81.4-.8.67-.53.93-.94.4-.53-.26-.81.26-.4.54-.26.67-.81 1.07-1.6 1.6-1.2 1.07-4.41.8-14.04 6.55-7.35 3.34-10.96 6.42-7.35 8.02-2 2.14-5.22 9.08-13.76-9.75 4.27-7.75-.13-.81-.27-1.33-.67-4.95-.53-2.81v-.13l-1.07-7.35 1.6-1.74 1.34-4.54 1.07-2.28 5.08-3.6 2.14-1.61.8-1.74v-3.34l-.4-3.34-.13-3.07.93-2.54 1.07-1.74 2.27-2.54 1.07-8.15-.13-6.82-2.14-8.55-3.21-8.96-5.34-9.49-6.42-9.22-12.16-13.1-12.3-8.15-9.62-6.69-6.69-3.2-5.34-2.95-11.23-4.94-10.82-3.08-5.35-1.06-6.15-.27-8.82 1.2-6.42 1.74-3.34 3.74-1.07 1.07-1.6 2.01-3.34 4.94-2.54 5.08-1.07 3.21-.27 1.33-1.47 7.62-.53 6.82-.27 5.08.4 2.14 1.74 6.28 1.07 3.34.93 3.61.81 3.07 1.47 8.56.26 3.47.27 2.68-.27 3.74-.4 6.28-.8 2.14-.53.8-1.21.94-1.6.93-3.08 1.47-1.47 1.21-.93 1.6-.4 1.34.26 1.07.67 1.2 1.47 1.07-.8 12.16-12.03-.93-8.15-1.87-4.41-1.07-6.02-2.54h-4.94l-2.27.26-4.15-1.33-3.34-.27-7.88-1.87-6.02-2.54-3.07-.4-2.81-2.01-4.81-4.14-6.42-6.42-2.94-2.67-3.07-.94-.4-.13-1.2-.27-11.63 1.61-.27-3.34 2-1.07 1.21-.27 2-.53 6.69-1.88-.27-1.07-4.15-3.74.14-.53v-3.34l.67-2.41-.4-.53-2.54-4.15-.27-1.07-.27-1.33v-.27l1.07-7.35-.8-8.96v-7.35l.27-1.47.13-1.34-1.47-3.2-.27-.54.94-4.54v-6.02l.53-5.34 2.94-9.49.8-3.88 1.07-7.75-.4-4.68-2.14-5.35-4.67-11.89-26.87-14.71-7.75-4.81-18.18-8.02-29.8-21.92-1.47-1.74h-.14l-1.33-1.2-1.34-.4-1.6.27-2.41 1.33-2.67 1.07-2.68.94-2 .13-2.14-.4-5.75 1.2-.4-.26-.26-.67.13-.54.13-.53 1.07-.67 1.47-.8 1.87-.13 2.01-.67 5.21-4.41 1.07-.54v-.4l-.13-.4-4.68-1.07-5.75 1.87-1.74 1.21-1.47.4h-1.6l-5.48-2.41-4.41-3.74-.67-.14-.4-.8-.13-.67.66-.53 1.47-.54 2.54-1.87 5.48-2.14 1.47-.66 1.21.13.8.53.93 1.07 1.07.14 3.75-.8 2.27 1.6.8.8 3.21 2.67.67-.13.53-.53-.13-.81-.27-.8-.27-.53-.26-.94-.27-1.2-5.75-10.43-2.54-12.69-.13-.27-3.34-9.76-12.83-37.69-16.44-48.52-8.56-18.31-5.61-12.17-4.28-6.28-10.02-5.34-.81-.4-2.67-3.48-.93-.67-9.76-4.14-5.21-1.34-5.62-2.81-2.27.67-.8.27-2.67.4-.27.14-2.27.8-1.61-1.07-3.21.67-.13 1.47-2.27 2.27-1.87-.54-1.61 1.74-8.15 3.61-7.22 4.41-15.9 9.89-2.81 1.61-7.88 4.81-17.65 5.21-8.68 2.54-4.95 1.34-3.61 1.07-11.89 3.87-11.77-1.6-5.61-1.34-5.08-2.8-11.89-5.49-11.77-6.28-8.42-5.08-8.28-8.68-7.22-7.76-.53-.93-5.08-8.29-4.68-9.36-3.74-7.08-2.41-5.21-3.47-7.89-4.42-11.63-3.2-12.83-.54-6.55.27-5.34-.27-6.29v-.66l-.26-12.03.8-9.49 1.47-5.22 14.97-48.25 1.2-3.21.13-.8.27-2.14.13-.93 2.28-11.5 10.82-44.11 10.96 6.82 1.34-4.41.53-6.55v-4.28l-.66-9.49-.14-3.2-.13-20.45-.14-4.95-.8-7.22-1.07-8.28-2-9.23-2.81-8.55-1.47-4.81-2.67-7.49-3.88-12.03-3.74-10.69-1.47-4.28-1.34-4.94-1.33-5.08-2.14-4.68-3.88-9.09-4.01-9.09-2.54-6.15-.93-2.8-.4-3.21-.81-2.41-.93-2.4-4.95-12.3-1.73-4.81-.27-1.47v-1.07l-.13-1.2-.41-.54-.53-.8-1.87-1.74-1.34-2.14-1.6-4.27-.27-2.68-.27-1.2-.53-.94-.94-2-2.14-4.95-1.2-3.34-.8-2.14-3.21-6.01-.8-2.94-.27-1.74-.67-2-2.67-6.02-.8-2.14-.67-2.4-.53-2.01-.4-.67-.81-.67-.66-1.07-.54-1.33-1.07-6.68-.8-2.28-.13-.67-2.28-6.41-.93-5.75-1.61-7.62-1.87-6.01-.67-4.01-.13-1.87-.4-3.34-.94-10.43-.8-5.48-.4-11.63-2.67-14.3-.94-5.48-2.67-15.1-.4-2.68-1.61-5.88-.13-1.07-1.34-9.49-1.87-9.09-.26-3.34v-.53l-1.07-5.22.26-1.2.41-.67.13-1.07-.13-.66-.41-.54-2 .13-.54-.66-3.6-18.05-.94-3.61-.53-.53-.54-1.07-.13-1.74.4-.8.27-1.2-.27-1.34-1.47-2.67-4.28-16.71-2.81-10.96-1.2-3.08-1.2-2.94-3.61-10.02-6.68-15.91-2.54-6.68-1.21-3.88-.4-2-.13-3.61.53-1.47.67-.94.14-.93-.14-2.01 1.34-6.81-.4-4.15.27-3.07.4-5.88 1.87-6.82.8-4.14 8.02-22.59 2.14-6.15 1.6-5.61 2.01-4.28.93-5.61.54-4.01-.14-11.63-.4-14.7-.93-13.64-.67-10.16-.8-4.54-1.47-11.63-1.34-8.69-1.34-5.61-4.01-20.18-2-10.43-1.74-11.9-.53-1.87-1.21-3.07-.66-3.08-.14-.66v-1.34l-2.81-15.91-2.4-9.35-.94-2.68-1.2-2.27-3.34-5.21-8.55-13.23 3.47-2.54.94-.67 2.67 4.14 2 3.75 1.47 3.6.81 1.21 1.07 1.6 1.73 2.27.94 1.07.53.4.54.14h1.33l-.26-.8-.27-.81-.27-.8-.53-1.47-.27-.67-.4-.93-.54-.94-.66-.93 6.01.13 6.15-1.74 1.34-.4-1.88-8.42 3.35.94 3.07-.27 12.56-5.48.54-.54.4-.4-1.2-1.07-.54-.4-.53-.4-.94-.67-1.34-.93-.93-.54-.8-.4-.67-.4-.94-.4-.93-.53-.94-.41-2-.66-.94-.27-.8-.27-3.74-1.2-.8-.13-.67-.27-.8-.27-.67-.4-.67-.4-.67-.4-.67-.54-1.74-1.47-.13-1.74-1.87-6.41-2.01-8.29-4-16.3 1.73-5.62.27.94.27.4 6.95 3.87-.14 1.21.14 1.33 1.74 10.43.26.94.8 2 .81 1.47.66.94.94.93.8.54.94.26 1.07.27 1.07-.13 1.47-.4 5.34-2.01 1.61-.27 1.6-.4 1.34-.13 1.07.13h1.6l.94-.26.93-.27 1.07-.67.67-.53.67-.54 2.14-2.14 2-2.14-.13.4-.14.67.14.54.26.4.41.4.53.27h1.74l1.07-.14h1.07l3.34-.13 2.14-.13h.8l.8.13 1.2.13.94.14.93.13 1.61.27 1.33.13 1.34.14h1.2l1.07.13 1.21-.13h1.06l1.07-.27 1.34-.14 1.34-.13h2.4l1.74.13 1.74.27 1.74.54.93.13 1.07.13.67.14.67-.14h1.33l1.47-.13h.67l.8.27.94.67 7.22-2.28 6.68-2.27 12.56-4.28 2.94-1.2 2.81-1.34 4.68-2.54 3.34-1.87 6.42-4.27 3.87-3.08 10.29-8.42v-2.27l-.13-2.67-.13-2.41-.14-2.14-.13-1.2-.14-.94.14-.4v-.67l.27-.66.4-.81 2.67-4.27.8-1.21 1.47-2.27.54-.8 1.2-1.47 1.87-2.14.94-1.34.8-1.07.4-.8.27-.8v-.4l.13-.8v-1.47l-.13-2.14v-2.01l.26-3.74.27-3.07.27-2.14.4-3.08v-1.73l.13-1.87-.13-1.61v-.4l.4.13h.54l.4.14 2.94.4.4 2.81.26 2.27.14 1.6.27 2.67 1.2.14 22.72 1.87.67-3.61 8.55 3.21 2.68.93 2.8-6.81 1.74.13 1.34.14 1.2.26 1.07.14 4.41.53 1.07-.53 1.07-.4 1.07-.54 1.47-.53 2.27-.94 2.14-.8 2.4-.8 2.01-.54 1.74-.53 1.73-.4 2.81-.67 3.07-.67 5.48-1.2 4.55-.94 3.47-.8 2.81-.54 3.48-.8 3.6-.8 4.15-.94 1.74-.26 5.07 30.2.67 2.68 1.61 6.15 2.54-.67 2.4-.54 2.27-.4h.67l1.21-.13-.14-2.81v-4.14l-.13-1.61v-1.73l-.27-2.28-.27-3.6-.53-3.48-.67-4.81-.53-4.68-.67-4.54-.54-3.88-.26-1.47-.14-1.47-.27-1.07-.26-2.14-.14-.8-.8-6.15-.4-2.67 2.54.8 1.6.4 1.07.27 1.74.4.8.13.27.14 2.14.4 2.94.4 2.54.27.4.13 2.54.13 2.67.27h2.54l2.94-.13 2.54-.14 1.74-.13 2-.27 2.41-.4 2.54-.53 2.4-.54 3.08-.8 2.81-.67 1.87-.53 1.73-.67 3.08-1.2 1.07-.41 2.14-.93 1.87-1.07 2.54-1.34 1.07-.67 1.2-.53.53-.4 1.21-.8 1.6-1.07 2.01-1.2 2.8-2.28 2.41-1.6 1.07-.8 4.54-3.48 2.41-1.74 2.4-1.73 4.15-3.08 2-1.33 1.2-.94 3.48-2.41 2.14-1.33 1.07-.67 1.47-.8.4-.27.67-.4-.81-.67-1.73-1.6-4.55-3.88-2-1.74-.67 1.07-2.54-2.27-1.2-1.07-1.34-1.2-1.6-1.74-.27-.4-.4-.54-.67-.8-1.6-2.14-3.35-4.54.27-.27.4-.27.54-.4 5.74-3.74 2.95-1.6 2.27-1.21 1.47-.8 1.47-.67 1.2-.53 1.07-.4 3.74-1.2 3.74-.81 6.42-1.2 10.29-1.74h.4l.27-.13 23.52-4.01 15.37-2.41 31.28-5.48 10.96-1.73 1.07-4.41 2.4-7.49 1.34-3.48 1.34-2.94h.8l.8-.13.54-.13h.4l.4-.14.53-.13.54-.13.53-.27.54-.4.66-.27 4.82-2.54 1.33-.8 1.07-.4.8-.27.67-.27.8-.13h1.47l.67.13 1.47.27 2.28.54 1.73.4-.13 1.33-.27 1.34v1.47l-.13 1.74.13 1.87.14 2 .13 2.81.13 2.27.14 1.61v3.07l-.14.94-.26 2-.14.94-.27.8-.13.93-.27 1.07-.4 1.21-.4 1.07-.4 1.47-.53 1.33-.94 2.81-.8 2.27-.67 1.87-.8 2.41-.54 1.74-.53 1.73-.54 1.74-.26 1.21-.27 1.47-.27 1.73-.13 1.34v4.54l.13.67h15.77l2.81-.13 8.82-.14 6.68-.13 10.3-.27 12.16-.53 4.41-.27 8.02-.67 7.08-.53.67-.13 1.61-.27 1.6-.14 2.94-.4 1.87-.13.13.53 9.63-1.06 1.74-.14 1.47-.13h2.4l1.74.13 1.47.27 1.2.27 1.34.26 1.33.54.27.13.4.14-1.6.66h-.54l-2.27-.53-1.87-.27h-.8l-2.01-.13-1.6.13-3.34.27-1.87.13-.67.54-.27.4-.13.8-.13 1.87-.41 1.47-.93 1.47-1.47 1.21-.94 1.33-.93 2.54-2.27 5.75-1.07 2.27-.94 2.14-.8 1.34-3.21 2.4-.8.94-.4 1.47-.14 2.94-.8 1.74-3.34 4.14-.93 1.47-.54 1.6-.67 6.29-.8 3.07-.4 1.2-.13.4-.94 1.47-.67.81-6.55.93-2.4.27-3.61.67-4.68.67-1.74.26-2 .4-2.27.41-2.54.66-1.74.54-1.2.4-1.21.27-1.47.26-2.54.54-5.74.8-6.02.67-.53.13-.14-.13-1.87-1.61.27 1.88 1.07 8.02 1.74 10.55.4 2.54.53 2.14.4 1.47 13.64-7.21 1.33 2.27 2.68 6.95.8 2.67.13.94-.13 1.2-1.47 7.75-1.07 5.35-8.29 3.61 3.48 10.02 2.67 8.56 2.81 8.42.26.67-3.07 1.06-2.14.81-3.21 1.47-3.2 1.47-2.68 1.07-3.07 1.33.13.54 4.68 21.65 3.88 17.91 4.01 18.71 3.74 17.11 1.2 6.95v.81l-.13.93-.81 3.34-4.41 17.65-.53 2-.13.13-.14.41h-.93l-8.69-2.95-.54-.4-.26-.26-.14-.4v-.41l.27-1.06.94-4.01 3.87-14.44-1.33-6.15-2.14-9.35-1.47-7.22-6.69 1.47-4.67 1.2-7.76 1.87 1.61 8.16 4.14 18.57 6.95 32.75 2.41-.4h.53l.54-.13.26-.14.27-.26.13-.27v-.4l.81-4.95v-.4l.13-.13.13-.4.14-.14h.4l8.15 1.61.54.13.66.27.54.53.13.94v.67l-1.47 9.89-2 13.63 3.61 2.81 11.49 8.55 2.41 1.47 3.47 1.87 5.62 2.81 11.36 5.21.93 1.21 3.48 1.07 8.55 2.27 3.34.93 1.07.27.8.27.94.4.93.53.67.4 2.01 1.34 3.21 2.27 1.2.81.93.66.41-.8.26-.53.4-1.07.4-1.07.14-.67.13-.27.14-.53.8.53 5.88 3.34 6.15 4.68-1.34 3.08 1.6.8 1.87 1.07 1.74 1.07 3.48 2.27 7.08 4.54 7.08 4.28 2.54 1.47 5.35 3.21.94.53h.26l9.36.54 1.07 5.88 9.62 6.01 22.59 13.64 22.45 13.76 29.94 18.32 5.62 3.34 6.41 4.14 5.88 3.74 12.43 7.76 18.05 11.49 6.28 4.01 11.89 7.35 12.17 7.62 16.57 10.16h2.41l3.07.27 8.69.66.26-2.94v-2.67l-.93-10.56-.13-3.34-1.21-19.92v-8.01l.27-2.54 2.41-16.04.26-3.88-.13-2.14v-2.27l-.27-2.67-.93-6.42-.81-4.54-.53-4.15-.27-2.94-.13-2v-.81l.27-2.27 1.6-7.75 55.87 3.21 6.28.27 17.51.93 2.81.27h1.6l1.6.13 4.95.4 2.67.14 3.88.26 4.68.14 9.22.26 3.21.14 6.14.27 13.64.8 5.88.4 47.18 2.67 10.16.67 22.05 1.34 49.19 2.54 10.15.66 16.18 1.74h.4l.13-.67.94-3.74.53-1.07 1.07-1.07 1.34-.8 3.2-1.34 1.47-.53 4.95 3.48 8.02 4.67 5.35 4.95 9.22 2.54 6.68.67 7.75 2 5.62 2.81 5.08 2.81 5.74 4.54 6.15 2 15.1 6.02 5.48 1.07 3.48 2.14 16.17 6.28 3.21 2 1.74 1.07 4.01 3.21.93 1.34v3.07l-.53 1.74v.53l-.14.27-.13.4-.13 1.47-.54 4.01-.13 2.94.27 1.07.8 4.01 1.6 3.08.8 1.33 2.01.94.93.4 8.56 1.6 4.01 2.41 3.61.53 2.27.14 1.74.13 3.2-.27 1.61.54 2.27.93 5.21 2.95 6.82 3.6 2.27-.4 1.07-.93 3.74-3.88 2.94-4.94 1.21-3.35.8-1.33.13-.4 1.07-2.01 2.27-1.87.14-.13 1.87-.27 3.34 2.67 8.82 3.21 4.14 1.6 4.28 2.14h1.47l1.87-.53 2.54-1.47 2.54-2.01 1.6-.53 2.68-.13 2.67 1.73 1.47 1.21 2.67 2.4 7.22 6.02 2.27 3.47.81.8 1.06 1.21 1.88.66 2 1.21 1.07 1.74 8.29 1.87 8.95 1.73 12.7.94 21.79.4 16.43-2 3.61-.41 10.03-2 .53.13 2.81-.93 12.43-3.08 2-.66 18.05-6.82 7.88-3.48 5.08-2.67 9.36-5.08 6.68-3.88 4.41 9.76 1.47 4.95.54 2.54.8 1.6 1.74 2.27.8.27.8-.27.53-.66.41-1.48.93-1.47 1.61-.66h1.6l2 .53 2.41 1.47 2.41 1.61 1.06.66 2.01-.8 2.94-1.2 2.54-.8.8-.27 9.22-2.94 2.41-.54 1.6-.4 8.42-2.27 6.02-3.34 3.07-1.2 2.68-.81 2.27-.53 2.54-.27 2.8.14h5.62l.8-.14.93-.26 1.34-.81.8 1.34.54 1.2.53 1.21.54 1.33.53 1.47.4 1.74.54 2.14.26 1.6.14 1.07v.67l.13.8v.94l.14 1.6v1.47l-.14 2.14-.27 2.54-.4 2.81-.13 2-1.07 6.69-.27 2.13-.8 7.62-.27 1.87-.26 1.61-.14 1.2-.13.4-.4 1.61-.67 1.73-.4 1.21-.54 1.47-.66 1.47-.4 1.33-.41 1.07-.13.8-.13.94v.94l.13.93.13 1.61.41 2.4.53 2.14 1.07 5.21.8 3.75.4 2 .94 4.81.67 2.81.8 3.21.53 1.47 1.74 4.54 1.6 4.01 3.08 7.35.8 2.27.53 1.61.54 1.6.53 1.74.54 2.01.27 1.87.26 2 .14 1.2v7.62l-.14 1.34-.13 1.2-.13.94-.14 1.6-.4 2.41-.4 2.8-.4 2.28-.67 3.07-.4 1.34-.27 1.2-.4 1.6-.93 2.95-.94 2.67-.93 3.34-1.34 4.28-1.74 5.08-1.74 5.61-.4 1.34-.26.93-.27.4-.4.94-.54.8-.26.4-.67.67 2.27-1.07 1.2-.53 2.41-1.07 5.08-2.28.53-.26 5.08-2.68 5.75-2.94 6.41-3.47 3.75-1.87 2.67-1.47 4.54-2.41 3.88-2 3.47-1.88 2.01-1.2 3.34-1.74 2.54-1.33.94-.54.8-.4 1.33-.93.81-.54.8-.67 2.67-1.73 1.6-1.07 1.88-1.07 1.87-1.07 3.61-1.74 1.73-.8.94-.4 1.07-.4 3.34-1.07 2.14-.67 1.87-.4 2-.4 4.95-.27 1.87-.27 1.87-.4 1.74-.53 2-.67 3.21-1.34 2.41-.93 2.27-.67 2.27-.54 2.14-.53-7.48 45.58-1.74 2.14-8.56 56.94.4.26.94 1.47.8 1.34.4 1.2 1.74 8.16.4 2 2.41 8.96.67 1.87 2.4 4.27 2.81 4.55 3.87 5.35 1.21 1.47 1.87 1.87 2.27 1.2 2.94 1.34 9.36 5.34 1.6.94 1.47 1.34 1.34 2.8 1.47 2.41.53.8 1.61 1.47 1.47 1.2 3.2 2.68 5.08 3.2 18.05 11.1 7.08 4.68 3.34 2.8 5.08 5.35 1.87 2.27 8.16 9.49 4.54 4.95 6.28 6.28 13.37 16.44 1.73 1.47 2.54 2.41.54.66.53 1.07.67 2.54 2.01 7.09.8 1.6.8 1.2.8 1.21 2.41 3.2 1.07 1.48 1.6 1.47 4.28 3.2 2 1.21 1.47.66 1.47.41 6.82.26 1.74-.13h.8l2-.13 10.43-1.07 6.82-.54 3.34-.4 10.82-.13 3.08.13 1.47-.27 1.6-.53 1.2-.67 2.68-1.6 4.01-1.74 1.47-.4 1.07-.14 1.87.67 2.14 1.07 4.54 2.67 2.27 1.07 3.48 1.47 7.62 2.54 1.73.81 2.81 2 1.47.8.94.4 2.54.27 3.34.27 6.15.8h1.47l1.87-.4 2.8-1.2 1.74-.81 1.47-.13.4.13 1.47.67 9.89 4.55 11.23 5.48 1.87.8-1.87 8.15-.27 1.47-1.6 7.09-.94 3.61-1.33 5.21-2.81 8.55-2 5.88-1.88 5.48-4.94 15.64-2.54 7.22-1.07 3.21-.93 2.67-1.74 5.62-2.54 7.61-1.07 3.48-1.07 3.74-1.2 3.48-1.07 2.8-1.07 2.54-.94 2.14-.8 1.61-1.2 1.73-1.21 1.47-1.06 1.07-1.07 1.07-1.74 1.47-1.87 1.21-2.54 1.73-2.14 1.34-1.87 1.2-2.41 1.74-1.73 1.47-2.14 1.87-2.01 1.87-2 2.01-1.61 1.47-4.01 3.74-1.73 1.6-1.88 1.88-1.87 1.87-1.33 1.33-.27.27-1.87 2.27-2.01 2.81-1.2 1.74-1.34 1.87-1.33 2.14-.94.67-2 1.47-2.01 1.47-2.27 1.47-4.01 1.73-5.61 2.14-3.08.81-1.2.66-.53.94-1.61 9.49-.67 10.02-.26 9.89.53 14.71-5.08 12.56-.93 2.81-1.34 3.34-1.07 2.67-1.87 4.28-2.14 5.48-1.87 4.28-.8-.4-.67-.4-.94-.67-.8-.8-.93-1.07-1.07-1.07-.67-.67-.8-.4-1.61-.94-2.27-1.2-.94-.27-.8-.27h-2l-1.74.14-1.6.13-1.87.4-2.14.4-2.41.67-1.87.67-1.74.8-1.33.8-1.47.67-1.34.27-1.34.13h-1.07l-1.2-.4-1.47-.67-1.47-.8-2.81-2-2.14-1.34-2.13-1.47-2.14-1.34-.8-.66-1.34-.67-2.41-1.07-2.27-.8-3.47-1.07-2.28-.81-.93-.13-.94-.13h-2.4l-5.88 1.2-4.95.94-4.81.93-14.84 3.34h-.93l-.94-.13-6.41-2.27-2.54-.54-2.28-.67-3.2-.53-4.41-.54-2.54-.93-1.21-.67-1.73-1.74-1.34-1.47-.8-.8-4.68-4.94-3.74-4.28-2.68-2.41-1.2-1.33-2.4-2.01-2.54-1.74-1.87-1.07-6.82-4.54-7.75-5.88-6.15-5.62.13-.53-1.6-3.21-.54-1.74-2-8.15-.67-2.94-2.41-8.42-2.13-8.15-3.35-9.49-.4-1.61-.4-1.33-1.07-2.41-.26-.94-1.34-3.34-.27-1.47-1.07-4.54-.8-3.21-1.34-6.68-2-7.76-3.21-10.02-1.2-3.47-2.14-7.22-2.67-9.63-2.81-9.35-3.07-10.43-.81-2.67-1.33-4.14 2-13.1 6.15-38.9-10.29-.4-1.07-.4-.94-.67-.66-2.14-2.28-8.28-5.07-18.58-.41-.67-.66-.94-8.96 1.47h-.67l-.67-.53-.4-.8-5.48-18.45-4.94-18.18-2.81-9.09-.53-1.6-.67-.8-3.08-2.01-.8-.26-.53 8.55-.54 4.81-.13 2.68v1.87l-.27 1.87.14 1.07 1.07 2.67.13.94-.13 1.87.4 1.73.93.54 1.61 1.47.66 1.07.27 1.2-.13.67-.4.94-.94 1.47-1.34.66-.8.27-1.2.4-1.2 2.14-3.08 9.22-1.07 3.61-2.4 3.34-2.94 3.35-2.01 3.2-4.01 8.42-.67 2.68-.13 1.2-.27 1.2-.4 2.14-.93 4.15-1.47 2.53-.4 2.68.53 3.87 2.27 9.76.14 4.28 2 6.41 3.34 9.49 1.07 6.02.54 6.68.26 2.54-2 6.82-1.07 3.21-1.6 6.41-2.14 5.22-5.35 7.75-1.6 2.94-2.94 4.01-5.35 5.34-6.01 6.82-4.28 6.42-.54.66-1.73 2.68-2.01 3.07-2.67 2.81-5.61 4.41-1.61 2.41-1.2 2.67-2.27 6.15-1.07 3.74-1.74 3.74-1.47 5.08-7.22 12.83-2.27 6.15-2.41 4.95-.66 1.2-.14.13-3.34 6.02-.53 1.2-3.35 9.09-.26.4-.8 3.48-.41 1.6-1.2 6.02v2l.67 2.14 3.34 6.01 2.54 4.41 3.21 6.55 6.28 10.16 6.15 8.29.13.13 1.07.67.4.27.8.67 3.88 2.67 2.27 1.6.4.27 1.47 1.07 4.95 2.54 1.34.27.8-.27.26-.13 1.88-1.07.66-.54.81.4.4.67v1.34l-.14.53v.27l.4.53 1.61.54.93-.13.4-.81.81-.66.66-.14h.54l.53.94.27.93 1.34.27h2l1.61.13.93-.53.8-.8 2.28-1.07 1.73-.14 1.47.67 1.88.67 2.8-.13 3.48-.67 4.14-.27 6.42.94 1.87 1.47 1.6 2.67 1.34 2.27 2 2.28 1.74 1.6 4.01 3.21 2.41 1.33 2.4 3.21 3.08 2.27 4.54 2.81 4.01 2.94 2.67 1.47 3.08 1.61 4.14 3.2 3.88 2.28 2.8 1.07 3.61 1.06.94.14 2.4 2 3.21 3.88.67 3.74.4 3.21.67 2.94-.54 2.41-.26 2h-2.01l-1.34 1.74.41 3.21 1.2 3.34 2.67 4.01 2.54 5.61 2.67 3.61 1.74 1.2 2.01.81 2.4 1.73 2.14 1.07h2.27l2.14.4 2.14 1.61 2.67 1.47 5.08 1.07 4.15 1.33 1.2-.53 3.34-.4 1.2 1.87 1.47 2.14 2.54 2.27 4.41 3.21 4.95 2.8 1.07 1.34-.8 2.14-.67 2.27v3.74l1.07 4.82 1.47 6.95.4 4.54-.8 4.28-.54 1.34-2.14 2.4-1.6 2.41-1.07 3.2-2 6.55-.94 2.81-.27 1.34-1.07 3.34.14 2.27 1.2 1.61.94 2.13.53.14.27.53.13.54v.8l.54 2.54.13 1.47-.13.8-.81 1.34-.13.4-.67 1.33-.93.94-1.47 1.87-.54 1.61.27 1.6 1.2 2.14 2.14 1.6 1.47.94 1.34-.14 1.73-.26 1.61-.67 2.67-.27 1.47.27 3.34-.27h2.68l1.87 1.2.4 2.01-.14 1.87-2.4 7.49-.8 2.53-1.07 1.61-1.61 1.34-1.2 1.2-2.14 1.33-1.47.27-2.14 1.07-2.14 2.14-2 1.6-1.87 1.34-2.01.13-1.2-.66-2.14-.67-2-.8h-2.41l-1.74-.14-2.13.4-1.21.54-1.73 1.2-.67 3.74 1.33 2.28.67 1.47h.27l.27 1.47-.4 1.6-.67.4-.8 1.2-.14.27-.4.8-.53 1.07-.4.4-1.07.54-.54.67-.93.8-1.21.4-.8.8-2.41 1.34-2.4.8h-2.01l-1.47.27-1.87 1.2-.93 1.07-1.34.67-1.47 2-.8 2.14-1.2 1.87-2.68 1.87-.4.81-.27.8.27 2.27-.53 2.67.8 3.34 2 .94.54.27 1.2.53.67.27.27.53v.41l-1.21.8-.26.13-.54.54-1.33 1.33-1.34 2.54-.94.54-.66.4-.94-.14.53 2.01 1.61 5.61.53 3.08v1.07l.14 1.6-.14 2.27-.26 2.14-1.21 6.28-.8 2.54-.13.54-.14.53-.4.8-1.6-.4-2.01-.26-3.34-.41h-2.14l-2.67.14-3.88-.14-3.34-.26-3.47-.27-5.88-.8-4.68-.67-3.61-.13h-2.81l-4.27.13h-3.88l-3.74-.8-1.61-.4-2.27-.54-10.42-2.54-6.69-1.74-2.27-.53-2.67-.4-2.81-.27-2.67-.27-1.87-.13-2.41-.13-1.87-.14-1.6-.13-2.01-.13-2.14-.14-2.27-.13-1.87-.13-2-.27-1.21-.27-1.07-.27-1.33-.4-1.07-.4-1.47-.67-1.74-.93-2.01-1.21-1.33-.93-.94-.94-1.2-1.07-1.34-1.47-1.2-1.47-1.2-1.73-1.07-1.61-.94-1.87-4.81-9.36-1.87-3.47-2.81-5.48-1.07-2.14-1.87-3.34-1.2-2.14-.4-.94-1.87-2.8-1.21-1.47-1.2-1.74-1.07-1.2-1.33-1.34-1.88-1.74-1.87-1.74-2.67-2.4-1.6-1.74-1.47-1.6-.27-.54-.67-.8-1.2-2-.94-1.88-.67-1.73-1.07-3.21-.4-1.47-.26-1.74-.27-1.87v-1.34l-.13-1.33v-20.05l-.14-.8-.53-2.94-3.75-.41-2.8.14-1.47 2.14-1.74 1.07-.8-.14h-.4l-2.14-1.6h-.67l-.67.13-2.14 1.2h-.26l-.94.54-1.87-1.74-1.07-2-.94-1.21-.8-.93-1.33-3.61-2.41-3.21-.4-2.81.4-2.13 1.07-1.21 1.07-.93.93-1.34 1.47-1.47 2.01-.94 1.34.94 2.54 1.87 1.6 1.34 1.74-.4 1.07-.8-.94-1.88-2.27-2.54-1.61-2-1.33-1.34-1.61-3.2-.66-1.21-.81-.93-.93-1.87-.67-.41-1.74-.93-2.27-.13-2.14.4-1.74.66-1.73.94-2.28.4-1.73-.53h-.14l-1.33-.81-1.47-.66-.27-.27-1.74.67-.53 2v2.54l.53 2.81.67 3.07.53 2.81.94 2.41 1.34 1.73 1.07 1.61-.67 1.6-.67 1.6-1.6 1.34-.54.54-.93-.4-.54.4-.4.53-.4.54-.27.53-1.6.8-.27.14-2.41 1.33-1.33.14-.8.4-.94.53-.27 1.07.14.67-.27 1.07v2.67l.4.67.4 1.87.27 1.74v.93l-.13 1.61-.54 1.6-.67 2.14-.53 1.07-.4 2.41-.67 1.2-.14 1.74.54 1.6 1.2 1.34 1.21.26 1.6 1.21 1.07 1.2.67.94v2.27l-.81 2.67-.53 1.74-.8 1.74-.8 1.6-1.07.94-1.07 1.2-2.14 1.07-1.6 1.2-2.01.94-2.27 1.87-2.41.53-1.2.94-2.27.93-1.47 1.07-1.47 1.07-.14.54-.26 2.14.4 1.73 1.33 1.74 2.28 1.07 1.87 1.07 1.87.8 2.67-.13 2.01-.4 1.73-.4 2.14-2.01 2.27-1.34 3.88-.53 2.81-.27 2.4.4 2.41 1.87 1.87 1.61.67 1.6 1.07 1.34.4.67 1.6 2.4 1.87.54 1.61 1.33.8 1.34 1.07 1.47 1.87 2.01 1.74 1.47 2.27 2.27 2.41 2.41 2.8 4.67 1.07 2.41.67 3.21-1.47 5.74-7.62 7.22-.93 1.21-3.61 7.35-2.28 8.28-6.95 6.42-3.74 1.6-1.47.4-1.33.54-1.48 1.2-2.67 1.74-2 .13-.67-.53-.14-.67.41-.8.93-1.07 2.41-2.14.67-.8-.14-1.2-.93-.94h-.81l-1.2.4-2.14 1.07-14.57 11.9-.4.13-.13-.27h-.4l-2.14-.53-.94.13-.8.27-5.34 1.47-1.74.4-.8.4-2.94 1.07-2.14.53-3.08 2.41-1.2.27-1.6.13-.67.27-3.88 2-2.4.81-3.61.93-1.61 1.07-.8.54-.67.8-.26.53-.14.67-.26.53-1.21 1.21-.4.8-4.54 1.47-.94.94-3.74 2.13-.4.27-2.27 1.87-.54.94-.67 1.07v.4l.4.53.54.4.8-.26 1.2-.14.67.27.14.4h.4l.93-.4h.4l2.94 2.27 2.14.4h1.47l1.07.54.54.53.8.4.27.27v.14l-1.07-.14-.81.14-1.47.93-1.06.27-.67.27-1.34.4-.8.66-1.2 1.34-.94 1.2-.4.81-.8 2.54-.67.53-2.01.94-.8.4-.4.4-.27.8-.26.53-.67.67-.4.54-2.01.67-1.33.26-1.61.54-.27.27-.8 1.47-.4 1.87v.93l-.4.27-2.14.4-.26.27-4.15 8.29-.67 1.6v1.87l-.13.67-2.14 12.96-.13 2.01-.14 4.54.27 4.55.94 8.15.67 3.88 3.87 14.97 9.36 37.69 5.48 18.18 5.34 18.71 3.21 14.3.54 2.41.13 2.4v6.15l-.67 13.5-.4 2.27-2.54 9.76-4.41 12.97-2.94 6.55-6.28 11.22-6.02 9.89-4.94 6.55-.27.94v.4l-34.48 20.99-2.14.8-6.82 3.87-2.4.67-22.99 4.81z" stroke-linejoin="round"/></defs><use xlink:href="#a" fill="#cee3e4" stroke="#cef5f5" stroke-width="5.76"/><defs><path id="b" d="M2986.68 1078.11l-7.88-.27-6.42-.13-5.61-.27-2.27-.26-8.29-.27-5.75-.27-5.48-.13-5.34-.14-7.89-.26-9.22-.4-8.29-.27-6.15-.13-4.14-.14-3.61-.13-3.34-.14h-3.48l-3.07-.13-3.74-.13h-1.61l1.87-8.56.27-.67-1.6-.4-1.47-.13-.4-.13-.4-.14h-.4l-.41.14-.26.13-.27.13-.13.27-.27.27-.27.4-.4 1.2-.27.94-.4 1.47-.53 1.33-.27.81-.4 1.07-.4.66-.54 1.07-15.1-.4-10.29-.27-11.5-.53-4.81-.13-6.95-.14-11.09-.4-17.11-.4h-4.81l-4.41.27-5.61.13-7.22.54-5.08.53-6.15.67-4.54.53v-1.73l-.14-1.61-.13-2.27-.13-2.81-.14-2-.13-1.87.13-1.74v-1.47l.27-1.34.13-1.33-1.73-.4-2.28-.54-1.47-.27-.67-.13h-1.47l-.8.13-.67.27-.8.27-1.07.4-1.33.8-4.82 2.54-.66.27-.54.4-.53.27-.54.13-.53.13-.4.14h-.4l-.54.13-.8.13h-.8l-1.47.14-1.74.13-1.47.14-9.62-40.24-.14-.67.14-.8.8-3.34 3.07-4.41-1.6-9.22v-.4h-.67v-.4h.8l8.02-.54.27-.13h.4l-.4-5.08-.13-1.61-.14-2.13-.53-7.76-.54-7.61-.4-7.09v-.67l-.13-4.27.13-3.48 1.61-9.62 1.2-.4 5.21-.14 3.21-.27 2.94-.66 12.83-3.75 2.94-.8 8.55-2.14 1.07 3.61 1.87 7.49.54 2.27 3.47 2.54 4.95 3.74 11.9-16.04 12.02-16.04-3.74-3.34-.27-.4v-.8l.14-.54.27-.8.53-.67.53-.93 9.76-13.5-1.47-1.47-1.87-1.21-.67-.4-1.2-.53-.94-.4-1.6-.67-1.34-.53-1.47-.67-3.87-1.47-5.88-2.14-1.07-.4-.81-.27-.93-.27-.94-.13-1.07-.13-.8-.14-.93-.13h-.81l-.93-.14h-3.21l-1.33.14-1.48.27-.53.13-1.07.27-.67.13-2 .53-2.68.81-3.34 1.07-2 .66-1.61.67-.26.14-3.34 1.87-.14-.94v-.8l.14-1.6 3.34-9.76 5.48-17.51 3.07-10.96 2.27-7.35-4.01-2.14-.8-.54-.4-.66 1.34-24.6.93-16.57 1.87-22.32 1.21-15.91 23.65 3.74 23.13-71.1.8-2.81.93-2.81.94-3.74.94.53.8.67.8.8.67.67.8.67.8.54.67.4 1.07.4.67.4.67.53.93.4.8.14.94.27h.67l.8.4.8.4.94.67 1.07.13.8.53.93.27 1.87.4.94.27.8.53 1.07.27.8.4h1.07l1.21-.27 1.47-.4 1.2-.53.8-.13 1.34-.14.8.14h.4l1.47.13 2.14.53 2 .27 1.74.27 2.67.4h2.54l1.87-.13 1.34-.41h.94l.53.14.94.27.8.4h.13l.54.13 1.87.54 1.87.4 2.14.13 1.33.27 1.07.13 1.07.13 1.21.14 1.87.27 2.54 1.87 1.73 3.61 10.56 6.95 5.88 5.21 2.68 1.47 2.8-.27 2.54-.27 1.47-.13 1.74-.13 3.08-.94 1.47-1.07.53-.53.13-.94.54-2.14.93-.67 1.47.81.27.13.54.54 1.33 1.06.67.81.8 1.47.4.67.54.4.67-.14 1.6-.13.67-.4 1.6-.94 1.34-.4.94-.13 1.06.13.81.4.4.14 1.33.4.94.4.93.67.81.93v.27l.26.53 1.07 2.14 1.07 1.61 1.47 1.87 1.34 1.33 5.21 6.02 2.81 4.14.8.67.94.67.93.27.94.13.53.27.54.4.53.67.4.93.54.67.8.8 2.14 1.21 2 1.06 1.74.81 1.6.53 2.14.27 3.08.4 2.13.4 1.48.4 1.47.54 2.94 1.6 1.6.53 1.07.27 1.47.14 1.34.13 2.4.67 1.61.27 1.87-.14h2.67l1.2-.13 1.21-.14 3.47-.4h2.01l1.47-.26 1.87-.41h1.2l1.6.14 2.28-.4 2.27-.54 1.6-.4h.4l1.21-.53.93-.54.94-.8 1.33-1.07.4-.4 1.88-1.74 1.87-1.73 2.14-1.88 1.87-1.73 1.33-.27 1.07-.27.8-.4 1.34-.27 1.47-.4.8-.4.8-.13.67-.27.94-.13.4-.14.53-.26 1.34-.27 1.07-.14.8-.13 1.2-.13.94-.14.67-.13.93-.4.94-.27 1.34-.27 2.13-.8 2.68-1.47 2-.53 1.87-.54 2.01-.4 2.4-.13 1.74.27 2.14 1.06 1.47.14 2.81.53 1.74.4 1.33.14 1.34.53 2 1.47.94.8.93 1.07.81 1.07.66.81.81.93 2 2.41 1.07.93.8 1.07.8.8 2.01 1.87 2.81 3.21 2.4 2.28 3.21 3.07 3.34 3.07 2.67 1.87 3.75 2.41 2.14 1.07 1.47.4 1.87.8 2.4.94.67.4 1.07.4-.13 2.67-.14 2.41-.53 3.21-.8 3.07-.54 1.61-1.34 3.2-1.2 2.94-1.07 3.08-.67 3.34v.27l-.4 2.14v2l.14 2.01.67 1.6.66.94 1.21 1.73 1.87 2.81 1.47 2.14.8 1.33.53 1.34.41 1.61v.66l.26 1.07-.67 2.81-1.06 2-1.47 2.68-.54.8-1.74 2.54-3.47 5.08-3.21 6.28-.53 1.07-3.08 5.61-1.87 3.35-.8 1.6-.27.4-8.29 4.14-12.69 6.15-12.57 5.88-.4.54-2.27 1.07-14.17 6.68-5.21 2.27-.13.54-17.11 43.04-.54 1.47-22.99 28.6-8.01 4.95-5.22 7.08-13.23 19.38-5.48 14.17-4.28 8.55 1.07 2.41.94 1.87 1.87 2.27.13.14 2.81 1.87 2.01.93 1.6.27 8.29 1.07 2.94.4 1.87.53 1.47.81 1.6.8 3.74 2 3.61 2.01.94.4-.4.67-1.47 3.21-.67 1.73-.94 2.14-1.6 3.88-.27.53-1.6 3.61-.8 1.87-.81 1.87-1.6 3.75-.94 2.27-1.87 4.41-1.6 3.74-.4.8-2.14 5.35-3.21 7.35z" stroke-linejoin="round"/></defs><use xlink:href="#b" fill="#cee3e4" stroke="#cef5f5" stroke-width="5.76"/><defs><path id="c" d="M1664.69 712.55l-.67-.67-.13-.27-.54-.8-.93-1.74-2.41-4.14-1.34-2.27-3.87-6.95-1.74-2.94-.67-1.07-.67-1.07-1.6-2.27-.67-.94-2-2.67-2.14-2.54-2.27-2.54-2.28-2.41-2.27-2.27-2.54-2.14-2.54-2.14-1.6-1.33-3.48-2.68-2.67-1.87-2.67-1.87-2.81-1.6-2.67-1.74-2.68-1.47-2.67-.94-1.07-.4-2.27-.8-1.34-.4-1.33-.4-.67-.27-1.47-.4-1.2-1.87-10.16-15.11-3.34-5.34-2.41-3.48-1.2.27-1.34.4-1.47.13-1.07-.13-1.33-.53-1.21-.54-.93-.13-3.75.13-1.06-.4-.81-.27-1.2-.13-.53-.13-.54.13-.53.53-.81 1.07-1.2 1.87-.67 1.07-.67 1.21-.4.4-.8.8v.13l-.93.4-1.47.54-1.07.27-1.07.4-.14-2.27v-.14l-.26-3.34-.14-3.88-.13-1.2-.4-6.01-.27-2.81-.13-.8-.27-1.21.13-2-.26-2.67-.54-.14h-2.94v-.26l-.13-.94-.27-.8-.4-.8-.4-.41-.4-.26h-1.61l-.66-.4-1.61-1.07-.67-.4-.8-.67-.8-1.07-1.47-2.27-1.87-3.88-.4-.4-.54-.27h-.93l-.81.14-.53.26-.53.67-.94 1.61-2.14 3.74-.27.4h-.26l-.67.13-1.47-.8-1.47-.53-.8-.14-.67-.67-2.94-1.6-1.74-.94-1.2-.13-4.41-.27-.4-.26-.54-.4-1.07-3.88-.53-1.2-.8-.81-.94-.8-5.48-1.47-2.01-.4-2.4-1.2-1.47-.67-1.87-.8-2.41-.8-3.87-1.07-4.15-.27-1.74-.54-1.06-.53-.81-.4-.66-.54-1.74-.93-.67-.27-2.81-1.34-6.01-3.6-2.01-1.74-3.61-2.68-.13-.13-1.07-.53-1.33-.4-2.41-.41-1.07-.26-2 .13-.67.13-2.01.14-.93-.14-.54.27-3.61 2.14-.67.94-.8.93-.26.4-.67.27-1.07.27h-1.74l-1.47-.27-.94.13h-.26l-2.27-.8-2.95-18.71-8.15 1.07-.8-4.68-1.6-10.56-.54-3.21-5.61.94-2.41.4-2.94.4-7.88 1.34-6.15 1.07-4.81.66-5.22.81-2.8.53.93 5.35.14.67v2l-.14.94-.13.67-.27.93-.27.8-.26.8-.14.14-.4.8v.13l-.27.54-.8 1.07-.67.93-.66.94-.94 1.07-1.74-1.47-4.41-3.74-1.47-1.34-4.94-4.41-2.54-2.27-.27-.14-.27.4-.8.94-.93 1.2-.67.8-1.21 1.34-.93 1.2-1.74 1.87-1.2 1.47-1.2 1.21-1.61 1.87-2 2.41-1.07 1.2-1.07 1.33-1.34 1.47-.8.81-.67.67-.8.8-.67.67-.8.66-.54.67-.53.4-.67.54-.53.4-.54.53-.4.4-.4.41-.67.66-1.47 1.61-1.47 1.74.27.66.27.67-.14.14-.4.53-.8-1.07-.67-.8.54-.54.26-.4-.8-1.07-.93-1.07-1.61-2.13-1.47-2.14-.53-.94-1.07-1.6-3.61-5.75-2.14-3.61-2.14-3.74-.93-1.6-1.21-1.88-2.67-4.41-2-3.2-2.54-4.15-.94-1.47-.27-.4-4.41-7.35-3.21-5.08-3.47-5.75-3.34-5.48-1.07-1.74-2.14-3.34-3.21-5.21-3.2-5.21-4.01-6.55.4-.27.8-.4 2.14-1.2 1.73-1.07-7.08-10.96-7.48-11.63-3.75 4.14-2.8-3.47-.81-1.07-1.06-1.21-1.61-1.6-3.74-3.61-.67-.53-4.28-3.88-.66-.67-.94-.8-4.14-3.74-1.74-1.34-.54-.4 1.74-3.47 1.47-2.68.67-1.33.94-2.01 3.87-7.48 2.54-5.08.14-.4.26-.27-2-1.34-5.08-3.34-2.41-1.87-3.61-2.94-11.76-10.03-7.48-6.14-4.81-4.15-1.61-1.47-1.33-1.6-1.34-2.01-1.07-2-.27-.54-2.94-7.48 2.54-.67 4.28-1.2 5.75-.14 13.09-5.74 6.95-2.14 4.82-.4 6.55-.94h.66l.81-.27 1.06-.66 1.88-.14h1.47l3.2-.4 2.28-.4 1.6-.4 4.95-1.2 10.29-2.54.26-.14v-.8l-.26-.53-2.14.66-2.94.81-2.41-4.15-5.08.14-3.34-.94-12.7-8.29-6.55 1.34-.8-4.28-5.34 1.07-10.03 2.01-2.4-12.43-3.21-.67-8.02-1.74-13.63-2.54-.54-.4-.53.13v-.4l-.8-6.55-.81-.4h-.8l-.13.14-.27.4-.27.26-1.47 2.01-4.94-3.07-.27-.14-1.07-.8-.13-.4-.14-.4.81-1.34.4-.4 1.33-.67-18.71-3.74-6.68-1.6-2.81.8-10.56 1.47-2.4 2.27-3.48-10.29-.4-3.48v-.26l-.13-1.61-.67-4.81-.54-4.54-.13-.67.27-5.48.53-4.68.27-1.2v-.27l1.74-5.75 2.14-5.48 1.47-2.94 1.33-4.81v-1.07l.81-6.55.26-2.81 6.28-1.33 6.95-1.74 1.21-.27 1.33-.27 2.54-.66 6.69-1.88 5.34-.66.67.13 1.87.53 3.21 2.68.4-.54 1.47-.26 3.34-.54 3.48-.67 2.67-.8 5.21-2.14 2.41-1.07 4.01-1.73h.93l.27.13.8.4.54.67 1.07 2.4 1.47 3.08.13.27.67.66.67.27.67-.4.26-.53v-.27l.27-.54.27-.66.8-1.47.13-.14 1.87-.8 1.34.13 2.27.27.54.13 2.94.41 1.2.26 2.27-.13 2.81.4 4.01.13 1.34-.13.93-.13 1.2-.94 1.48-2 1.6-1.47h.8l3.21-.41 2.14.14h1.73l1.74-1.07 3.08-1.07 2.4-.54 1.34-.26 1.07-.54.67-.26 2.54.26.4-.13h.26l.81-.67.26-.13.14-.27.13-.27.27-1.2.13-.27.14-.27 1.06-1.06.54-.41.67-.4-2.01-2.8-1.47-2.14-1.74-2.68-1.33-2-1.07-2-.54-.94-1.6-2.94-1.07-2.14-.93-1.74-1.61-3.34-1.47-2.81-.8-1.6-.8-1.6-1.07-2.01h1.07l.93.14 3.34.13 3.75.13 5.34.14h1.74l-.13-.54v-.53h2.94l6.01.26h2.54l2.81.14 1.6.13.94.14.67.13.8.53 1.33.4 2.01.41 1.2.4 1.34.4 1.47.53.93.4 1.34.67 2.41 1.2 1.47.81 2.4.93.94.27 2.27.67 1.2.26 1.47.41h.27l1.07.13.8.13 1.21.14 1.87.13 2-.13 1.87-.14.8-.13v-.54l-1.06-11.22-.14-.94-.8-8.69-.27-4.41v-1.2l.4-1.87.14-.94.67-1.73 1.06-2.01 2.01-3.47.67-1.21.53-1.47.54-2.67.13-1.61v-2.27l-.53-4.81h.13l.4-.13 1.07-.27 2.67-.27-2.27-22.19-1.07-11.76-2.94-29.4-.93-9.89-1.61-20.05-2.27-23.66 10.69-1.07.8 8.82.67 7.75.8 8.56.54 7.08 1.34 13.23.66 6.29.81 7.08.53 5.21 9.49.14 19.25-2.94 3.74-.54 4.28 3.21 1.47-2.27 1.33-2.27.67-1.07.4-.94.27-.67.4-1.07.13-.93.14-.67.13-.8.4-1.21.14-1.07.26-.93 5.22.93 6.68 1.21 6.81 1.33 9.76 2.01-.4 4.41-.67 5.61-.26 2.01-.14 1.47-.53 4.41-.81 7.08-.13 1.07-.13 2.54v1.74l.13 1.6.27 1.61.27 1.47.53 1.47.54 1.47.13.4.8-.94 1.87-2.4 6.82-8.02 2-2.54 1.21-1.74 1.6-3.87 1.07-2.14 1.6-2.94 1.74-2.54 1.47-2.01.4-.4 2.14-1.74 2.94-1.33 1.87-.54.67-.13 3.48-1.34 1.06-.4 3.21-1.6 4.01-1.61 2.14-.93 6.15-1.87 3.87-.81 3.35-.8 2.8-1.07 2.54-1.07 5.08-2.54h.27l5.34-2.27 2.14-1.34 1.07-.66 4.01-2.14 3.08-1.74 3.07-2 4.54-1.21 5.89-1.47 1.87-.13 1.33.13 2.14.4.8.94.27.67.4 1.6-.4 1.2-.27.81-.13 1.2.27 1.2.4.67.8.53 2.67.67 1.47.54 1.61.4 2.27 2.27 1.2 2.27 2.94 3.34 1.74 2.01.8 2 .94 2.95.93 1.87 1.88 2.27 2.94 3.61 1.06 2.14 2.54 2.4 1.07.8 6.69 6.02 7.35-10.69-.67-1.88-1.6-1.87-1.07-.66-2.68-.94-1.47-.13 5.88-5.62 5.62-5.08 4.41-4.54 2.94-2.81.67-.4.4-.13h.26l2.95 3.87 3.2 4.15 15.91 10.15-13.1 44.92 1.2.66 20.99 13.24 1.73 1.2 2.68 1.6 5.74 3.75 7.09 4.54 4.54-8.69-6.95-4.54-2.14-1.21-6.41-11.36-2.94-5.21-1.34-.8-1.87-1.47-2.41-1.47 5.35-5.35 2.27-.13 15.77-1.74 9.09-.94-3.07 2.54 6.68 3.75 1.2-1.07h.94l3.61 5.21.4.67 5.88 8.29 2.67 6.54.94 2.41 3.88 8.96 1.06 2.54.41 2.13.26 5.35 9.09-2.27.67 2.27 5.08 16.17 2.54 8.42 1.07 2.94.4 1.48.4 1.2.13.53.14.4v.67l-.14.27 1.87 1.34 2.54 1.6 1.07.67 7.62 4.54.67.54.27-.67.4-.67.4-.8.27-.27.4-.53.26-.14.27-.26.27-.14 5.61-1.74 2.81-.8 4.01-1.47 3.34-.93 3.07 10.56.14.53.13.67.67 2 2.67 8.69 1.21 3.88.4 1.6.93 3.34 2.28 8.02.13.94 2 6.82 1.21 4.27.93 3.34.67 2.28.67 2.13.67 2.54.8 2.94.53 2.01 1.61 5.75.67 2.54 1.87 6.81.13.4.13.67 1.07 3.48.54 2 .67-.53 1.2 4.81-.54.13.81 2.81 1.07 3.48.53 2.13.54.54 2.8 9.62 1.87 6.82 4.15 14.03 1.33 4.41.67 2.41 1.07 3.74 4.01 12.97.8 2.67.54.4.13.54.53 2 .81 2.54 1.87 6.28 1.2 4.01.54 1.74 1.06 3.61 1.48 4.81.26 1.07.4 1.2-1.07.27.27.8.27 1.74.53 2.27.67 2.94.94 4.82.93 5.48.8 5.07 1.07 6.69.14.4 1.07 6.01.26 1.34 1.74 9.36 1.74 8.82 1.2 6.01.8 3.88 1.07 4.94.67 2.81.8 2.67.94 2.68 1.07 2.67 1.74 3.74.53 1.07-.67.4-.13.14-.94.67-.67.66-.8.81-.53.93-.4.67-2.27 4.41-.94 1.2-1.07.94-.8.4-1.07.27-1.87.13-2.41-.13-2.4.4-1.07.13-5.08 1.21-2.01.66-1.2.81-.94.8-.8 1.33-.67 1.61-.93 5.08-.27 1.47-1.2 8.55v1.74l.13 1.07.14 1.07.4 1.2.53 1.2.67.94.67.8.67.67.93.53 1.07.54 2.14.67 3.61 1.07 3.47 1.07 1.47.4 1.07.4 1.47.67.67.4 1.07.8.67.53.53.67.27.4.4.4.27.41.27.4.26.4.14.53.26.4v.4l.14.54.13.53v1.21l-.13.53-.14.54-.13.4-.13.53 1.6.8 6.02 2.81 7.08 3.47-.13.41 1.2.53-.27.67-.8 2.4-1.74 4.82-1.2 2.67-.94 2-.8 1.88-1.07 1.87-1.07 2-.53.94-.94 1.2-1.07 1.6-1.6 2.01-1.47 1.74-1.74 1.87-1.6 1.6-1.87 1.61-1.87 1.47-.27.26-7.09 5.08-2.4 1.87-1.74 1.61-1.74 1.6-1.6 1.74-1.47 1.87-1.47 1.87-.67.94-.67.93-1.33 2.01-1.21 2.14-1.07 2.14-1.06 2.13-.94 2.28-.67 1.6-.4 1.47-.4 1.34-.4.93-.54 2.14-.26 1.74-.81-2.94-3.87-12.57-.4-1.2-.27-.8-.4-.94-.54-1.33-3.6 1.07-.41.13-.13.13-.13.4-.8.27-2.14 1.07-1.07.54-2.01 1.47-1.47 1.07-.4.26-.67.54-2.67 1.2-3.21 1.47-2.67.8-10.16 2.41h-.27l-1.2.27-2.94.53-1.07.27-7.08 1.07-3.34.4-10.83 1.2-.8.13-8.02 1.07-2.01.27-4.14.4-3.21.27-4.41-.27-5.48-.93 1.07 4.54 1.07 3.88.13.67 2.54-.27 1.88.13.8.27v1.47l-8.69 12.83-3.88 5.75 9.89 16.84 1.21 2.27-.14 3.74-.26 6.69-.27 3.87 2.27 15.51.8 5.08.4 2.27.27 2.54v2l.13 2.54.14 3.08z" stroke-linejoin="round"/></defs><use xlink:href="#c" fill="#9dc8ca" stroke="#9dd7f0" stroke-width="5.76"/><defs><path id="d" d="M673.89 1258.15l-49.18-5.61-15.37-1.6-6.15-.67-2.14-.27-3.61-.4-1.47-.13-.93-.14-17.11 1.34-2.14.53-9.49 2.14-11.89 2.54-2.81.67-7.75 1.74-6.82 1.47h-5.75l-21.78-.27-13.5-.8-11.23-5.21-.67-.27-7.48-4.15-8.42-6.01-7.22-5.88-1.07-.94-4.68-4.94-6.41-5.75-6.82-5.48-5.48-3.74-4.14-2.41-10.43-5.21-8.55-4.55-21.92-8.82-9.09-3.2-7.08-2.01-6.15-2.54-22.32-8.95-22.86-10.43-4.01-1.87-10.29-5.48-10.29-4.41-5.88-2.14-1.47-.67-6.82-2.94-8.28-3.61-22.73-8.29-5.07-2.4-.54-.4-.93-.4 2.8-14.71-1.74-.53-6.14-2.01-8.29-2.4-6.02-2.68-10.55-5.74-15.91-10.56-4.94-4.01-1.34-1.87-65.36-57.61-3.74-37.03h2.27l1.07-.13.67-.53 2.67-5.88 3.08-6.15.93-2.81.27-.94.4-2.94.4-1.73.67-1.87.8-1.07.8-.94 1.61-1.47-1.21-.13-2.67-.14-3.07-.53 23.39-76.99-27.4 3.34-9.09.94-11.76 1.47-36.49 4.67-4.28.54-.13-1.07v-.8l-.14-5.08-.26-1.87-1.07-3.48-.94-2.54-4.54-9.35 3.21-2.41 2.53-2 2.81-2.41 6.68-5.48-3.07-4.95-2.27-2.54-2.68-.53-2.94-.4-3.47-8.56-4.81-15.9-1.07-5.21-2.94-3.08-12.57-6.95 1.34-6.01.4-1.74 1.47-7.35 2.68-10.83.26-2 .14-5.08.26-20.99-.13-1.73-.13-1.61.13-10.42 91.82-3.35 15.24-142.35.13-.53-.4-.13-.93-.67h-1.21l-.93.27-3.21-2.81-.8-.67-9.09-9.89-2.54-4.01-1.47-2.27-1.74-2.28-8.55-6.41-2.54-2.14-3.34-2.67-1.61-1.21 1.21-.4 3.47-1.47 4.41-3.07 1.87-1.74 1.34-1.2.93-1.07 1.48-1.87.8-1.74 1.07-1.87.8-2.14.27-1.2.26-.94.27-3.21.27-2-.27-3.08-.8-4.94-.54-3.88-1.87-11.09-.4-2.54.14-1.87-.27-3.21-.27-3.34-.4-5.88-.13-2.54-.14-1.74 14.44-1.47 3.47.13 2.27.41 2.41.53 4.28 1.87 9.22 4.68 1.6.4 2.81.67 2.27.13h.67l1.07.14 1.74.13 2.4.67h.4l.94.4 2.14.8 2.54 1.2 2.27 1.34 1.74 1.2 1.6 1.07 5.21 3.61 8.83 6.68.8.54.4.13.13.27.4.27.4.13.14.13.13.14.27.13.13.14.67.26.67.27.53.13.54.14.53.13.54.14.67.13h2.8l.54-.13 1.07-.27.93-.4 1.2-.54.54-.27.53-.26.54-.4.4-.27.4-.4.4-.4.67-.67.53-.8.54-.67.4-.8.67-1.07 4.68-8.69 1.6-3.21.53-.93v-.14l.41-.53.4-.54.8-1.2.8-1.74.67-1.74.8-1.73.54-1.74.53-1.74.27-1.87.26-1.74.14-1.87v-1.87l-.14-1.87-.26-1.87-.27-1.61-.4-1.6-.13-.8-.67-2.14-1.34-4.01-2.94-8.15-1.2-3.08-.27-.67-1.47-3.87-2.94-7.62-3.61-9.22-1.2-3.35-1.07-2.8-1.47-4.68-1.21-3.74-1.06-3.34-1.47-4.68-.67-2.68-1.47-5.61-.81-3.21-.8-3.47-.53-2.41-1.07-5.34-.4-2.54-.67-3.35-.94-6.95-.53-4.01-.27-2.67-.4-3.34-.4-4.14-.27-3.08-.26-4.41-.14-2.81-.13-3.2-.14-4.68v-9.49l.14-2.01.13-2.8.14-3.75.4-4.81.13-2.14.4-3.87.14-1.87.26-1.74 1.34-10.03.4-3.07.53-2.67.94-4.41 1.2-7.09.67-2.81.27-1.33.53-2.01.81-2.8 1.33-4.41 2.14.4 2.67 3.07 1.47 1.2 2.01 2.68 2.14 4.01 1.6 3.61 1.34 3.87 1.07 2.41.93 2.4.14 1.74-.27 2.27-.27 2.81.4 4.01.4 1.74.4 1.33.67.94.94.67.67 1.07v.67l-.27 1.47.13.8.8 1.2 1.21.67 1.47.13.8-.26.8-.81.8-1.33 1.47-2.14 1.61-.54 1.6.4 3.34 2.14 1.07 1.21.27 1.47-.4 1.33-.67 1.21-.4 1.33.13 1.21.14.8.4 1.73v.81l-.27 1.33v1.07l.27 1.21.93 2 1.74 2.27 4.41 2.54 1.74 1.07 2.4.94 1.21.93 1.47 1.61.8 1.2 1.74 2.94.4 1.2.27 1.21.13 2.27.27.8.66 1.07.67.4.94.54 1.34.53 2.27 1.34.67.67.66.8.54.93.8 2.41.54 1.2.26 1.07.27 2.67-.27 6.42.4 1.6 1.47 2.81 2.14 3.48.4 1.2 5.35 10.83 2.81 5.48.8 2 1.33 5.35 1.88 5.08.53 1.33.94 1.61 1.07 1.33 2.4 2.81 1.2 1.74.67 1.2 1.47 5.48 1.87 6.42.94 4.41.8 2 2.54.8-.4 5.75-.94 1.07-.13 1.74-.13 2.81 1.47 4.67.13.54-.13 1.2-.14 1.2v.4l.4 2.14-.26.67-.54.14-.26.26v.67l1.2 1.34.93.93 2.54 1.07 2.54 2.68 2.01 2.54 1.2 1.87.94.67 1.73 1.47 3.21 6.01 5.35 5.75 2.27 2.67.53 1.34.14 1.73-.14 1.74-.4 1.74 1.34 2.01 1.07 1.6 1.07 1.07 1.33.93.81.94 3.87 7.22v2.8l.4 5.08.81 6.15.4 1.87 1.47 2.41 1.33 2.67 4.82 6.82 2.94 5.21 1.6 4.68 1.87 8.15 1.2 4.81.94 3.08.8 3.74 2.01 7.22.66 3.21.14 1.2 1.2 11.76v5.22l.13.93.54 1.6.53 1.61.67.67.54.4.26.67.27 1.07 6.95-2.14.27.67h.8l11.36-2.68 1.07-.4 2.81-1.07 1.47-.53 4.68-2.14.4-.14 2.13-1.2 4.55-2.27 2-.8 1.47-.67.81-.27.8-.27.93-.13 1.87-.4 1.61-.27 1.34-.13.4-.13h.53l5.48-1.21 1.47-.26 3.21-.67 4.54-.81 3.88-.8 2.94-.4 1.74-.27 1.2-.26 1.47-.14 1.34-.13h.8l1.07-.13.93-.14h1.21l1.07-.13h3.47l2.14.13 3.07.14h1.47l1.61.13 5.34.67 4.68.67 6.82.93 1.47.27 9.22 1.34 7.08 1.07 3.21.4 3.61.4 2.01.26 3.34.41 1.87.26 1.2.27 14.04 2.01 4.27.53 1.61.27 1.87.13 4.54.27 5.08.53 4.95.54 2.54.26 2.4.41 2.41.4 2.4.4 9.63 1.74 5.48.66.8.14h.8l2.94.4 2.94.53 3.48.4 13.9 1.61 1.07.13 1.6.14 1.6.13 1.47.13 1.87.14h7.62l11.1-.27h4.94l1.74-.13 1.34-.14 1.47-.27 1.07-.13 1.47-.27 1.2-.26 2-.54 1.47-.53 1.61-.54 1.47-.53 1.73-.8 1.74-.94 1.47-.8.8-.4.81-.54 1.6-.93 2.01-1.34 3.74-2.67 1.74-1.34.8-.67 1.73-1.47 2.14-2 3.08-2.94 2.14-2.14 3.34-3.34.53-.54 13.5-13.77.4-.53 4.55-4.68.53-.53.27-.27 9.09-9.36 3.07-3.07 2.14-2.14 4.41-4.54 10.56-10.7 3.07-3.2 1.07-.94 1.07-1.07.8-.67 1.21-1.07 2.13-1.47 1.88-1.07 2.13-1.2.81-.4.4-.27.8-.27 1.34-.66 1.47-.67 1.07-.4.4-.14.53-.13 1.34-.27 2.14-.67 1.47-.26 2.13-.4 2.28-.14 2.4-.13h2.41l2.4.13 2.54.27 2.41.27 2.41.53 2.4.67 2.41.67.93.4 1.34.4 8.55 2.94 19.12 6.82 2 .67 10.69 3.87 5.48 1.87 9.76 3.34 4.81 1.88 3.74 1.2 4.68 1.74.4.13.67.27 2.01.67 1.73.53 1.74.67 1.87.67 3.08 1.07.13-.41v-.26l.27-4.41.67-10.43.13-3.21.13-2.8.27-4.41.27-4.42.27-4.27.26-4.68.14-2.01.26-3.87.14-2.81.26-2.27.14-1.47.13-1.87.27-1.21.27-2.27.13-1.2.27-.8.13-1.47.4-1.74.14-1.07.26-1.34.27-1.2.27-1.07.4-1.07.27-1.07.4-1.47.4-1.47.4-1.2.27-1.07.4-1.2.4-1.21.4-1.33.53-1.34.4-1.2.41-1.07.4-1.07.53-1.34.8-1.73.54-1.21.67-1.33.66-1.34.41-.94.4-.8.66-1.33.41-.67.53-.94.53-.93.54-.94 1.07-2.01 1.47-2.4 1.2-2.14 1.61-2.81 1.33-2.27 1.21-2.27 1.33-2.14 1.07-2.14.27-.53.27.4.53.8-.27.4 3.21 3.74 1.74 1.74 2.14 2.14.93.67 1.21.13 4.67 3.48 4.95 3.47 1.07.8 1.33.94.67.53 2.14 1.74 2.81 2.01 2.8 2.4-.4.54-.26.67-.27 1.07-.27.8-.4.93-.53 1.87-1.07 3.21-.67 2.14-.54 2.14-1.33 4.01-1.74 5.61-1.07 3.61-.4 1.47-2.67 8.82-.27.67-.54 1.87-.53 1.61-.4 1.07-.27.8-.13.4-.4 1.07-.14.8-.13.94-.13 1.2.13.93.13 1.07.27 1.61.13 1.07.54 3.47 1.2 7.09.4 1.73.8 4.15.14 1.07 1.33 8.55.27 1.07 2.68 13.63.4 2.01.93 4.81.4 2.01.54 2.94.26 1.6.14 1.87 1.2 6.82.8 4.41.67 4.81.94 7.49.26 3.34.41 2.8.4 5.08.26 3.21.27 4.41.4 5.21v.54l.14 1.74.13 2.67.13 3.34.14 2.14.26 1.6.27 1.88.4 2.4.27 1.61.53 2.94.54 3.34.13.8 14.04 5.48 3.87-.27 1.61 1.34-.14.67-.26.93-.27.8-.4.54-.27 1.2-.4 1.87-.27.94-.27 1.07-5.34 18.71h-.4l-1.34 1.07h-1.87l-1.47.13-2.01.14-1.73.26-2.28.41-2.54.53-4 .54-3.08.53-3.07.67-3.75.67-6.81 1.47-6.82 1.47-3.61.93-.53.4-5.48 1.34-.14-.4-.13-.54-1.34.27-6.41 1.2.13.54.14.53-10.96 2.14-7.09 1.21-9.89 1.87-1.74.4-2.8.53.27 2.81.93 16.97 5.48-1.06 2.01-.41 2.8-.4 2.27-.26-.13 1.2v2.4l-.27 4.68-.53 8.16-.27 5.08v2.4l-2.4-.4-3.35-.94-2-.4-2.27-.4.8 10.16.53 7.89.54 4.68.13 2.13.14 2.81 1.2 6.02.27 2.67-.14 2.67-.4 2.14.54 1.87.13 1.61.13.53.14 1.2.53 3.08-2.14 2.54-6.68 8.02-.27.4-.4 1.07-3.61 8.28-.53 1.47-.54 2.94-.26 1.47.13 1.34.13.8.14.54.13.53v.4l.14.4v.54l.26 1.6.27 2.14v3.21l-.13 1.34-.14 1.6-.4 1.47-.27 1.34-.4 1.47-.4 1.47-.53 1.47-.4 1.07-.67 1.73-.8 1.34-.81 1.47-.66.8-.4.4-1.07 1.34-1.21 1.34-1.47 1.33-1.87 1.47-1.33 1.07-1.07 1.07-.94.94-.53.67-.54.67-.67 1.07-.8 1.33-.8 1.47-.54 1.07-.53 1.2-.4 1.07-.27 1.34-.4 2-.94 3.35-2.13 9.22-2.28 9.89-.13.27-.8 3.47-.67 2.41-1.07 5.48-.8 3.61-1.34 6.55-.13.53-1.6 7.09-.67 2.8-.4 1.74-.67 2.67-.27 1.21-.67 2.4-.4 2.54-.93 4.81-.94 4.15-.67 3.61-.4 2.4-.94 4.81-.4 1.87-1.33 7.89-.14.27-.4 1.2-.67 1.07-.8 4.81-.8 4.01-1.07 5.62-.27.93-2.13 11.9-3.35 16.04-2.67 13.5-.8 3.47-.8 2.67-1.21 3.21-.53.8-.67.67-6.82 4.28-4.14 3.21-3.34 3.74-.13.4 6.81 13.64 20.32 40.36.67 1.34 24.06 48.12-10.83 1.87-5.48.93-5.75 1.07-11.63 2.14-8.15 1.47-18.31 3.21-3.34.4-4.55.4-4.54.27-2.81-.14h-2.8l-4.01-.26-6.55-1.21-3.88-1.47-4.54-1.87-1.07-.53-9.49-5.48-.4 2.8-3.08 14.17-1.07 4.15-.53 4.54-1.34 6.95-.13.4-.13.4-.27 1.07-.14.54-.13.93.13.4.27 1.21.67 2.13 1.74 6.69.26 1.74.94 3.47.67 2.67 1.34 5.48.4 1.74.66 2.01.94 3.2v.67l.13.67-.13.54.13 1.2 2.14 7.35-.4 5.08.67 1.6 1.2 2.81.54 1.87.13 2.54v.54l-.67.53-1.87.8.8 5.35 2.01 14.57-.27 1.33-1.34.41-4.67 1.33-21.26 6.28z" stroke-linejoin="round"/></defs><use xlink:href="#d" fill="#6bacaf" stroke="#6bb4d2" stroke-width="5.76"/><defs><path id="e" d="M828.54 1239.31l-16.58 3.61-52.79 1.87-49.46 3.61-2.13.13-6.42 1.6.27-1.33-2.01-14.57-.8-5.35 1.87-.8.67-.53v-.54l-.13-2.54-.54-1.87-1.2-2.81-.67-1.6.4-5.08-2.14-7.35-.13-1.2.13-.54-.13-.67v-.67l-.94-3.2-.66-2.01-.4-1.74-1.34-5.48-.67-2.67-.94-3.47-.26-1.74-1.74-6.69-.67-2.13-.27-1.21-.13-.4.13-.93.14-.54.27-1.07.13-.4.13-.4 1.34-6.95.53-4.54 1.07-4.15 3.08-14.17.4-2.8 9.49 5.48 1.07.53 4.54 1.87 3.88 1.47 6.55 1.21 4.01.26h2.8l2.81.14 4.54-.27 4.55-.4 3.34-.4 18.31-3.21 8.15-1.47 11.63-2.14 5.75-1.07 5.48-.93 10.83-1.87-24.06-48.12-.67-1.34-20.32-40.36-6.81-13.64.13-.4 3.34-3.74 4.14-3.21 6.82-4.28.67-.67.53-.8 1.21-3.21.8-2.67.8-3.47 2.67-13.5 3.35-16.04 2.13-11.9.27-.93 1.07-5.62.8-4.01.8-4.81.67-1.07.4-1.2.14-.27 1.33-7.89.4-1.87.94-4.81.4-2.4.67-3.61.94-4.15.93-4.81.4-2.54.67-2.4.27-1.21.67-2.67.4-1.74.67-2.8 1.6-7.09.13-.53 1.34-6.55.8-3.61 1.07-5.48.67-2.41.8-3.47.13-.27 2.28-9.89 2.13-9.22.94-3.35.4-2 .27-1.34.4-1.07.53-1.2.54-1.07.8-1.47.8-1.33.67-1.07.54-.67.53-.67.94-.94 1.07-1.07 1.33-1.07 1.87-1.47 1.47-1.33 1.21-1.34 1.07-1.34.4-.4.66-.8.81-1.47.8-1.34.67-1.73.4-1.07.53-1.47.4-1.47.4-1.47.27-1.34.4-1.47.14-1.6.13-1.34v-3.21l-.27-2.14-.26-1.6v-.54l-.14-.4v-.4l-.13-.53-.14-.54-.13-.8-.13-1.34.26-1.47.54-2.94.53-1.47 3.61-8.28.4-1.07.27-.4 6.68-8.02 2.14-2.54-.53-3.08-.14-1.2-.13-.53-.13-1.61-.54-1.87.4-2.14.14-2.67-.27-2.67-1.2-6.02-.14-2.81-.13-2.13-.54-4.68-.53-7.89-.8-10.16 2.27.4 2 .4 3.35.94 2.4.4v-2.4l.27-5.08.53-8.16.27-4.68v-2.4l.13-1.2-2.27.26-2.8.4-2.01.41-5.48 1.06-.93-16.97-.27-2.81 2.8-.53 1.74-.4 9.89-1.87 7.09-1.21 10.96-2.14-.14-.53-.13-.54 6.41-1.2 1.34-.27.13.54.14.4 5.48-1.34.53-.4 3.61-.93 6.82-1.47 6.81-1.47 3.75-.67 3.07-.67 3.08-.53 4-.54 2.54-.53 2.28-.41 1.73-.26 2.01-.14 1.47-.13h1.87l1.34-1.07h.4l5.34-18.71.27-1.07.27-.94.4-1.87.27-1.2.4-.54.27-.8.26-.93.14-.67-1.61-1.34-3.87.27-14.04-5.48-.13-.8-.54-3.34-.53-2.94-.27-1.61-.4-2.4-.27-1.88-.26-1.6-.14-2.14-.13-3.34-.13-2.67-.14-1.74v-.54l-.4-5.21-.27-4.41-.26-3.21-.4-5.08-.41-2.8-.26-3.34-.94-7.49-.67-4.81-.8-4.41-1.2-6.82-.14-1.87-.26-1.6-.54-2.94-.4-2.01-.93-4.81-.4-2.01-2.68-13.63-.27-1.07-1.33-8.55-.14-1.07-.8-4.15-.4-1.73-1.2-7.09-.54-3.47-.13-1.07-.27-1.61-.13-1.07-.13-.93.13-1.2.13-.94.14-.8.4-1.07.13-.4.27-.8.4-1.07.53-1.61.54-1.87.27-.67 2.67-8.82.4-1.47 1.07-3.61 1.74-5.61 1.33-4.01.54-2.14.67-2.14 1.07-3.21.53-1.87.4-.93.27-.8.27-1.07.26-.67.4-.54 1.88-.26 5.34 3.74 6.68 7.08 3.08-.13 2.27-13.5-.8-3.48-.4-1.6-3.88-13.23 1.34-3.61 1.6-3.61.8-2.14 2.68-6.28 2.67-5.88.67-1.47.13-.27.4-.94.54-1.2 2.14-5.08 12.16 6.55 2.54 1.34 1.74.93 1.2.67 4.68 2.41 9.49 4.81 7.48 3.88 14.17 6.95 7.88 3.74 10.96 5.08 5.89 2.67 4.67 2.01 6.02 2.8 5.21 2.14 6.15 2.68 4.94 2.13 1.88.81 5.74 2.27 4.95 2.14 5.48 2.27 4.01 1.74.26.13 1.21.4.93.54.94.26 18.84 8.02 5.22 2.14 2.14 1.07 8.15 3.34 22.32 9.49 2.67 1.2 3.88 1.48 2.14 1.06 1.07.54 2.67 1.34 2.4 1.47 2.41 1.47 2.27 1.6 2.28 1.74 2.27 1.87 2.14 1.87 2.13 2.01 2.01 2.13 2 2.28 2.28 2.67 5.88 7.48 2.27 3.08 2.54 2.94 3.07 3.61 3.21 3.61 3.34 3.47 3.34 3.34 2.68 2.54.8.8 3.47 3.21 3.61 3.08 3.61 3.07 3.74 2.94 2.01 1.61.53 2.67.4 2.4.94 3.88 1.2 5.61.14.67.13.81.4 1.47.27 1.06.8 2.81.53 2.01.81 2.67.8 3.88 2 9.35.8 3.61 1.07 4.81.67 4.01 1.87 8.82.94 4.28.8 3.74.27 1.07 1.6 8.42v.4l.14.67 1.47 7.22.66 3.08 1.61 7.48 1.74 7.62.8 3.34.27 1.47 1.73 8.82 3.08 14.04 1.33 6.55 1.87 8.55.41 1.87 1.06 5.08.41 2.94h.66l4.41.14h1.74l.94.13 1.07.13.8.14.67.13.93.4.94.27 1.07.4.8.4.53.27.54.26.8.41 1.47 1.06 2.41 1.48 1.6.93 1.34.8 2.8 1.74 3.88 2.41 2 2.4 13.1 9.22 1.34-1.6.4.4.4.4.54.54.4.67.26.4.67 1.33.27.81.8 2.8.94 2.54.53 1.47 1.47 3.88.4 1.33.14 1.21.13 1.2.13.27.14 2.81.13 3.74-4.54-3.08.53 4.68.14.67.13.8 4.41 27.14 5.88 30.2-1.6 4.68-5.48 10.83-.27.4-2.27 3.87-.54 1.34-1.2 2.27-.4.67-1.07.94-.4 2.27-.67 2.67-.53 2.41-.67 2.67v.27l-.14.27-.26.93-3.88 6.95-2.14 2.27-2 1.88-3.08 4.01-2.27 2.13-.8.67-1.47.4-10.69-13.63-13.24 8.29-17.5 10.96 18.84 7.75-1.07 1.47-5.34 7.75-1.34 2.41-1.87 4.41-3.61 9.09-4.28 9.35-.67 1.34-2.54 4.68-1.47 2.81-2.4 4.67-2.54 4.28-1.07 1.74-.67 1.47-.27.93v1.07l.14 1.61.13.53.27 1.07.53 1.74.4 1.2 1.21 3.88.26.93.14 1.21v1.33l-.27 2.54-.67 4.41-1.07 10.7h1.74l3.48.67 1.2.4 4.94 1.87 2.68 1.33 1.73.81 2.54 1.07 2.01.8 1.6.53 1.87.54 1.21.4 3.47.93 2.14.4 1.87.27 8.56.94 3.47-13.24 3.74-2.53.4-.27.27-.14 6.02-1.2.4-.27 6.15-6.81 8.55-.67 1.87 1.2 3.74 2.54.54 1.47.13.94.13.67.27.8.54 1.33.8 2.01.27 1.47.26.53.27.27.54.94.4.8v.8l-.14.8.14.81 2 2.13.4 1.61.94.53.4.27.27.27.13.4.13.27v1.47l.27 1.47.8 1.06.4.81.14.4.26.4 1.21 3.07.67 1.47.26 1.47 1.07 1.47.54.81.13.13.8 1.34.67.93.27.4.53.4.27.14.4.13.27.27.27.27.13.4v1.33l-.27.27-.13.27-.27.27-.53.4.53 1.07 4.14 2.8.41.27-.27.4-.8 6.02v.53l.4.4 1.73.67 1.07.13h.27l.67 2.54 10.83 2.14 1.73.27 1.21.67 1.33 1.2 1.34 1.74 7.88 6.95 1.61.93 1.47.4 1.87.27 5.75-1.2 3.74-.67 5.75-.67 5.61-.27 10.43-.26-.14 2.4-.67 5.88-1.47 9.63-.13 1.07-.13.93-.14.94-.4 2.4-1.6 10.56v.94l-1.74 12.43-1.07 6.01h-2.67l-6.02.41-4.67.93-5.08 1.34-27 7.22-14.04 1.47-6.55-.54-10.02-2-6.82-1.61-5.88.27-14.16-.27-1.88.4-4.41.81-9.08 2.94-4.28 1.87-6.42 2.94-6.55 5.88-7.75 8.55-3.47 3.75-4.41 2.54-6.55 2.8-7.76 4.15-8.42 4.81-4.54 3.34-.4.27-6.15 5.21-6.28 7.89-9.49 9.62-1.6 1.47-4.68 3.47-3.61 1.07-11.36 1.74-6.55-.4-4.68-.53-11.09-1.61-23.93-4.28-19.51-3.34-2.41-.53h-.4l-.27-.14-1.06-.13-.14-.13-1.47-.27-18.04-1.34-6.42-.4-11.09.94-5.75.4-6.55.27-3.87.53-10.83 1.34-2.81.8-4.54 1.34-21.65 5.34-3.61 1.47-5.35 3.48-11.09 7.62-18.58 15.37-17.51 13.1-3.21 1.87-6.01 1.6-6.68 1.34-13.24 6.41-55.33 11.9-7.88 1.74z" stroke-linejoin="round"/></defs><use xlink:href="#e" fill="#6bacaf" stroke="#6bb4d2" stroke-width="5.76"/><defs><path id="f" d="M1326.27 602.81l-.27.54h-10.42l-5.75.13-4.28-.27-2.27-.26-2.27-.27-5.75-.54-4.27-.53-4.28-.67-4.28-.8-4.28-.94-4.27-.93-4.28-1.2-4.41-1.21-4.28-1.33-4.27-1.47-1.88-.67-2.4-.81-4.28-1.73-4.27-1.74-8.56-3.61-2.54-1.2-1.74-.8-4.14-2.14-4.28-2.14-4.14-2.14-4.14-2.41-4.01-2.4-4.01-2.54-3.88-2.67-3.87-2.81-1.74-1.2-2.01-1.61-3.74-2.94-3.61-3.07-3.61-3.08-3.47-3.21-.8-.8-2.68-2.54-3.34-3.34-3.34-3.47-3.21-3.61-3.07-3.61-2.54-2.94-2.27-3.08-5.88-7.48-2.28-2.67-2-2.28-2.01-2.13-2.13-2.01-2.14-1.87-2.27-1.87-2.28-1.74-2.27-1.6-2.41-1.47-2.4-1.47-2.67-1.34-1.07-.54-2.14-1.06-3.88-1.48-2.67-1.2-22.32-9.49-8.15-3.34-2.14-1.07-5.22-2.14-18.84-8.02-.94-.26-.93-.54-1.21-.4-.26-.13-4.01-1.74-5.48-2.27-4.95-2.14-5.74-2.27-1.88-.81-4.94-2.13-6.15-2.68-5.21-2.14-6.02-2.8-4.67-2.01-5.89-2.67-10.96-5.08-7.88-3.74-14.17-6.95-7.48-3.88-9.49-4.81-4.68-2.41-1.2-.67-1.74-.93-2.54-1.34-12.16-6.55.53-1.33.8-1.74 1.61-3.74 1.07-2.54.53-1.07 2.81-6.69 2-5.34.4-1.21 2.14-4.94 2.14-4.95 3.34-8.02 3.88-9.49 1.74-4.01 4.81 3.08 6.55 4.14.93-3.74.8-4.81.54-2.27-1.34-.67-5.61-2.81-3.08-1.6.54-1.47.53-1.47.81-2.41.8-2.01.67-1.73.66-1.34.54-.94.67-.8 2 1.21 5.08-2.28-.27-6.28.14-.13 1.6-2.68.13-.13.67-1.34 1.07-2.13 1.21-2.28.66-1.33.94-2.01.4-.8.53-1.07-.4-.13-.53-.27.27-.67.13-.67.53.14.67.26.4-1.73 1.07-3.75 1.07-4.14.14-.67.66-2.94.41-1.87.66-2.81.4-2 .14-1.87.13-1.61v-2.14l-.13-1.87-.27-2-.4-1.87-.4-1.87-.13-.27-.41-1.61-.66-1.87-.54-1.33-.53-1.07-.81-2.01-2-5.08-1.87-4.67-1.07-2.54-1.47-3.35-2.41-5.88-.4-1.07-1.33-3.07.93-.54 4.01-1.6.8-.13-.93-4.95-1.47.4-1.21.27h-.13l-.53-.8-1.34-3.34v-1.21l.27-.53.53-.27.8-.27-.13-1.33-.13-.67v-.4l.13-.54v-1.33l.4-1.07 8.02-1.34 9.62-1.6.14.53 2.14-.4.53-.13.67-.14 14.3-3.34 7.22-1.87 9.09-2.14 7.21-1.74 5.75-1.47 5.08-1.2 7.48-1.87 7.49-1.87 1.2-.4.54-.14-.14-.4-.53-.4.53-.13.27-.13 16.97-4.15 9.09-2.27 7.49-1.6 7.88-1.61 1.21-.27 1.73-.4.94-.26 2.54-.41 1.34-.26 2.4-.4 7.62-1.74 9.36-2.14.13.67 24.99-5.62.14.41 4.27-.81 2.54-.4 2.01-.26 3.07-.14 1.61.14h.8l.4.13 2.14.27 1.07.13 1.07.27 1.87.4 2.27.67 2.27.93 2.81 19.12.93 6.95 5.35 37.96.13.8.14 1.2-1.21.27-6.95 1.74-6.28 1.33-.26 2.81-.81 6.55v1.07l-1.33 4.81-1.47 2.94-2.14 5.48-1.74 5.75v.27l-.27 1.2-.53 4.68-.27 5.48.13.67.54 4.54.67 4.81.13 1.61v.26l.4 3.48 3.48 10.29 2.4-2.27 10.56-1.47 2.81-.8 6.68 1.6 18.71 3.74-1.33.67-.4.4-.81 1.34.14.4.13.4 1.07.8.27.14 4.94 3.07 1.47-2.01.27-.26.27-.4.13-.14h.8l.81.4.8 6.55v.4l.53-.13.54.4 13.63 2.54 8.02 1.74 3.21.67 2.4 12.43 10.03-2.01 5.34-1.07.8 4.28 6.55-1.34 12.7 8.29 3.34.94 5.08-.14 2.41 4.15 2.94-.81 2.14-.66.26.53v.8l-.26.14-10.29 2.54-4.95 1.2-1.6.4-2.28.4-3.2.4h-1.47l-1.88.14-1.06.66-.81.27h-.66l-6.55.94-4.82.4-6.95 2.14-13.09 5.74-5.75.14-4.28 1.2-2.54.67 2.94 7.48.27.54 1.07 2 1.34 2.01 1.33 1.6 1.61 1.47 4.81 4.15 7.48 6.14 11.76 10.03 3.61 2.94 2.41 1.87 5.08 3.34 2 1.34-.26.27-.14.4-2.54 5.08-3.87 7.48-.94 2.01-.67 1.33-1.47 2.68-1.74 3.47.54.4 1.74 1.34 4.14 3.74.94.8.66.67 4.28 3.88.67.53 3.74 3.61 1.61 1.6 1.06 1.21.81 1.07 2.8 3.47 3.75-4.14 7.48 11.63 7.08 10.96-1.73 1.07-2.14 1.2-.8.4-.4.27 4.01 6.55 3.2 5.21 3.21 5.21 2.14 3.34 1.07 1.74 3.34 5.48 3.47 5.75 3.21 5.08 4.41 7.35.27.4.94 1.47 2.54 4.15 2 3.2 2.67 4.41 1.21 1.88.93 1.6 2.14 3.74 2.14 3.61 3.61 5.75 1.07 1.6.53.94 1.47 2.14 1.61 2.13.93 1.07.8 1.07-.26.4-.54.54-1.74 1.74-1.47 1.73-3.2 3.88-3.21 3.74-.8.94-2.14 2.54-.4.53-1.47 1.61-1.47 1.73-2.68 3.35-2.27 2.8z" stroke-linejoin="round"/></defs><use xlink:href="#f" fill="#09757a" stroke="#097d9b" stroke-width="5.76"/><defs><path id="g" d="M641.28 602.28l-1.47.8-1.74.94-1.73.8-1.47.53-1.61.54-1.47.53-2 .54-1.2.26-1.47.27-1.07.13-1.47.27-1.34.14-1.74.13h-4.94l-11.1.27h-7.62l-1.87-.14-1.47-.13-1.6-.13-1.6-.14-1.07-.13-13.9-1.61-3.48-.4-2.94-.53-2.94-.4h-.8l-.8-.14-5.48-.66-9.63-1.74-2.4-.4-2.41-.4-2.4-.41-2.54-.26-4.95-.54-5.08-.53-4.54-.27-1.87-.13-1.61-.27-4.27-.53-14.04-2.01-1.2-.27-1.87-.26-3.34-.41-2.01-.26-3.61-.4-3.21-.4-7.08-1.07-9.22-1.34-1.47-.27-6.82-.93-4.68-.67-5.34-.67-1.61-.13h-1.47l-3.07-.14-2.14-.13h-3.47l-1.07.13h-1.21l-.93.14-1.07.13h-.8l-1.34.13-1.47.14-1.2.26-1.74.27-2.94.4-3.88.8-4.54.81-3.21.67-1.47.26-5.48 1.21h-.53l-.4.13-1.34.13-1.61.27-1.87.4-.93.13-.8.27-.81.27-1.47.67-2 .8-4.55 2.27-2.13 1.2-.4.14-4.68 2.14-1.47.53-2.81 1.07-1.07.4-11.36 2.68h-.8l-.27-.67-6.95 2.14-.27-1.07-.26-.67-.54-.4-.67-.67-.53-1.61-.54-1.6-.13-.93v-5.22l-1.2-11.76-.14-1.2-.66-3.21-2.01-7.22-.8-3.74-.94-3.08-1.2-4.81-1.87-8.15-1.6-4.68-2.94-5.21-4.82-6.82-1.33-2.67-1.47-2.41-.4-1.87-.81-6.15-.4-5.08v-2.8l-3.87-7.22-.81-.94-1.33-.93-1.07-1.07-1.07-1.6-1.34-2.01.4-1.74.14-1.74-.14-1.73-.53-1.34-2.27-2.67-5.35-5.75-3.21-6.01-1.73-1.47-.94-.67-1.2-1.87-2.01-2.54-2.54-2.68-2.54-1.07-.93-.93-1.2-1.34v-.67l.26-.26.54-.14.26-.67-.4-2.14v-.4l.14-1.2.13-1.2-.13-.54-1.47-4.67.13-2.81.13-1.74.94-1.07.4-5.75-2.54-.8-.8-2-.94-4.41-1.87-6.42-1.47-5.48-.67-1.2-1.2-1.74-2.4-2.81-1.07-1.33-.94-1.61-.53-1.33-1.88-5.08-1.33-5.35-.8-2-2.81-5.48-5.35-10.83-.4-1.2-2.14-3.48-1.47-2.81-.4-1.6.27-6.42-.27-2.67-.26-1.07-.54-1.2-.8-2.41-.54-.93-.66-.8-.67-.67-2.27-1.34-1.34-.53-.94-.54-.67-.4-.66-1.07-.27-.8-.13-2.27-.27-1.21-.4-1.2-1.74-2.94-.8-1.2-1.47-1.61-1.21-.93-2.4-.94-1.74-1.07-4.41-2.54-1.74-2.27-.93-2-.27-1.21v-1.07l.27-1.33v-.81l-.4-1.73-.14-.8-.13-1.21.4-1.33.67-1.21.4-1.33-.27-1.47-1.07-1.21-3.34-2.14-1.6-.4-1.61.54-1.47 2.14-.8 1.33-.8.81-.8.26-1.47-.13-1.21-.67-.8-1.2-.13-.8.27-1.47v-.67l-.67-1.07-.94-.67-.67-.94-.4-1.33-.4-1.74-.4-4.01.27-2.81.27-2.27-.14-1.74-.93-2.4-1.07-2.41-1.34-3.87-1.6-3.61-2.14-4.01-2.01-2.68-1.47-1.2-2.67-3.07-2.14-.4h-1.07l-6.41 1.2-1.21.93-2.13 1.47-1.47 1.07-1.21.67-1.6.94-1.74.26-2.14.14-2.14-.14h-3.74l-7.62-31.67-1.33-5.48-.67-2.41-.8-2-1.61-2.54-1.33-1.21-.81-.53-2.94-.54-3.07.14-4.95.53-5.88.54-3.2.26-1.61-.26-1.74-.81-.8-.8-6.28-8.68-6.68-8.69-1.87-2.14-2.54-3.61-.67-1.74-.54-1.6-.8-3.61-1.2-6.55-1.6-6.01-.41-2.95-.13-2.13-2.14-.41-3.07-.13-3.21-.27-4.28-.13-1.87-.13h-3.07l-8.82-.14h-1.61l-2.54-.13-2.54-.27-5.61-.27h-.27l-3.74-.4-3.21-.4-5.48-1.2-5.74-1.07-.54-.53-.8-.14.13-4.81v-9.89l-.26-4.41-.41-4.28-.26-1.07-.67-1.74-1.07-2.13-2.94-5.48-.94-2.41-.4-1.34-.8-4.41v-1.6l.27-3.34.93-6.69.4-2.4 2.81-8.42 3.21-8.69.67-2.01.8-1.6 1.07-2 4.14-5.62 3.34-4.54 7.22-9.63 6.15-6.81 2.4-2.54.54-.67.8-1.07.14-.27 2.4-3.21.54-.53.4-.4.93-.27.4-.13.54-.14 1.6.14 1.61.93 2.53-9.09.67-2.53.94-2.28.67-1.87.67-1.6v-.27l2.53-7.62.41-1.33.53-2.01.13-1.07 1.07-4.94.54-2.68.8-3.87.8-4.01 12.3 6.81 7.22 4.01 4.01 2.28 1.47.8 1.2.67 7.08 4.01 5.62 3.07 5.34 3.07 3.74 2.01 20.45 11.49 7.36 4.15 13.09 7.21 11.36 6.42 4.95 2.67 8.95 4.82 2.01 1.06 1.6.81.81.53 6.14 3.21 20.45 10.69 7.75 4.15 2.01.93 1.74.94.53.26 19.52 10.3 4.67 2.4 3.48 1.74 4.81 2.54 5.35 2.67 6.95 3.61 8.55 4.55 3.61 1.73 3.47 1.74 2.94 1.34 2.01.93.4.14 4.68 2.14 2.94 1.33 2.81 1.2 2.4.94 8.15 3.34 4.42 1.74 2.67 1.07 3.87 1.47 5.89 2 6.28 2.14 6.81 2.27 7.49 2.14 8.69 2.41 5.48 1.47 5.48 1.34 15.63 3.74.54.13 15.37 3.48 16.04 3.47 15.9 3.75 15.91 3.6 7.22 1.61 8.68 2 15.91 3.75 5.75 1.2 10.15 2.27 11.36 2.41 2.01.53 2.67.54-.27 1.2 11.63 2.27.54 1.47.53 1.34 2.01 5.21-.14.13v.41l.14.4.26.4 5.35 16.97 2.14-.67 1.47 4.95.67 2.14.8 3.34.8 3.21.13 1.47.14.4.13.93.14 2.41v3.34l-.14 2.54-.4 11.1-.13.93-.27 1.07h.94l.53.13 7.22.54 2.27.27 10.02.8.94.13 1.6.14 2.54.13 2.01.13.67.14h.8l1.07.13 1.33.13h.14l1.07.14h1.07l1.2.13h.8l.94.13 1.47.14h.93l.8.13h.81l2.67.27v3.21l-.13 2.14v1.2l.53 1.2-.13.94.13.67.94 2.27.13.13.4.54 2.94 3.34.13.13-.13.27-.67.8-.53.67-.67.8-.13.13-.67.54-.67.27h-1.07l-1.07-.27-1.2-.4-2.54-.94-2.27-.8-.54-.27-2.27-.4-1.2-.4-.67-.13-1.47-.4-.54 3.47-1.6 8.29-.27 1.87-.26 1.34h.4l2.27.13.53.13 1.87.14 2.81.26h1.07l1.07-.53h.93l2.54.13h1.47l.67-.13h5.88l2.54-.53.4-.14 1.07-.27.94-.26.67-.27 1.07-.4.53-.27h.67l.27.54.53.66.94.67.67.54 1.06.8.94.67.67.53.53.8.8.81.94 1.07.8.8 1.21.93.93.67.67.4.8.54.94.26 1.47.41.93.13.8.13h3.08l1.74.14 4.94.13 4.81.13 5.35.27v5.88l4.28.94 14.3.27 3.61-.27 2.8.13 5.48.54.27-1.07.94-2.81.8-4.81.13-1.47-.93-2.68-.54-3.2-.27-3.34-.66-6.42-2.94-13.63-.14-.27-1.74-1.07-1.2-.67-1.6-.8-1.47-.67-1.61-.53-1.6-.4-1.34-.27-1.33-.27-1.21-.13-1.73-.4 8.42-.14h1.6l3.61-.13 3.74-.13 11.23-.14h4.14l4.55-.13h2.67l1.6.13h5.75l6.82.14h6.68l4.81-.14h2.94l10.16-.27 6.82-.4 1.47.14 1.33-.14 1.07.14 8.02.13h13.77l7.35-.27 7.48-.26 1.07-.14h3.21l4.14-.13h11.77l5.07-.14 4.01-.13h3.21l2.14-.13h12.03l2-.14h11.23l2.01-.13.93.13.54.14.66.13h.94l1.47.13 1.47.27 1.2.4 1.21.27.93.27 2.94 1.07 1.61.53 2.27.8.8.27 11.23 4.01 2.67.67.8.27.67.13 2.81 1.2 2.54.81 8.15 2.53 2.94.94 8.69 2.81 6.68 2.27 10.96 3.74h.27l.67.27 5.88 2 1.74.67 1.47.54 4.27 1.6 1.07.27 5.75 1.87.53.27.4.13-.53 1.07-.4.8-.94 2.01-.66 1.33-1.21 2.28-1.07 2.13-.67 1.34-.13.13-1.6 2.68-.14.13.27 6.28-5.08 2.28-2-1.21-.67.8-.54.94-.66 1.34-.67 1.73-.8 2.01-.81 2.41-.53 1.47-.54 1.47 3.08 1.6 5.61 2.81 1.34.67-.54 2.27-.8 4.81-.93 3.74-6.55-4.14-4.81-3.08-1.74 4.01-3.88 9.49-3.34 8.02-2.14 4.95-2.14 4.94-.4 1.21-2 5.34-2.81 6.69-.53 1.07-1.07 2.54-1.61 3.74-.8 1.74-.53 1.33-2.14 5.08-.54 1.2-.4.94-.13.27-.67 1.47-2.67 5.88-2.68 6.28-.8 2.14-1.6 3.61-1.34 3.61 3.88 13.23.4 1.6.8 3.48-2.27 13.5-3.08.13-6.68-7.08-5.34-3.74-1.88.26-2.8-2.4-2.81-2.01-2.14-1.74-.67-.53-1.33-.94-1.07-.8-4.95-3.47-4.67-3.48-1.21-.13-.93-.67-2.14-2.14-1.74-1.74-3.21-3.74.27-.4-.53-.8-.27-.4-.27.53-1.07 2.14-1.33 2.14-1.21 2.27-1.33 2.27-1.61 2.81-1.2 2.14-1.47 2.4-1.07 2.01-.54.94-.53.93-.53.94-.41.67-.66 1.33-.4.8-.41.94-.66 1.34-.67 1.33-.54 1.21-.8 1.73-.53 1.34-.4 1.07-.41 1.07-.4 1.2-.53 1.34-.4 1.33-.4 1.21-.4 1.2-.27 1.07-.4 1.2-.4 1.47-.4 1.47-.27 1.07-.4 1.07-.27 1.07-.27 1.2-.26 1.34-.14 1.07-.4 1.74-.13 1.47-.27.8-.13 1.2-.27 2.27-.27 1.21-.13 1.87-.14 1.47-.26 2.27-.14 2.81-.26 3.87-.14 2.01-.26 4.68-.27 4.27-.27 4.42-.27 4.41-.13 2.8-.13 3.21-.67 10.43-.27 4.41v.26l-.13.41-3.08-1.07-1.87-.67-1.74-.67-1.73-.53-2.01-.67-.67-.27-.4-.13-4.68-1.74-3.74-1.2-4.81-1.88-9.76-3.34-5.48-1.87-10.69-3.87-2-.67-19.12-6.82-8.55-2.94-1.34-.4-.93-.4-2.41-.67-2.4-.67-2.41-.53-2.41-.27-2.54-.27-2.4-.13h-2.41l-2.4.13-2.28.14-2.13.4-1.47.26-2.14.67-1.34.27-.53.13-.4.14-1.07.4-1.47.67-1.34.66-.8.27-.4.27-.81.4-2.13 1.2-1.88 1.07-2.13 1.47-1.21 1.07-.8.67-1.07 1.07-1.07.94-3.07 3.2-10.56 10.7-4.41 4.54-2.14 2.14-3.07 3.07-9.09 9.36-.27.27-.53.53-4.55 4.68-.4.53-13.5 13.77-.53.54-3.34 3.34-2.14 2.14-3.08 2.94-2.14 2-1.73 1.47-.8.67-1.74 1.34-3.74 2.67-2.01 1.34-1.6.93-.81.54-.8.4z" stroke-linejoin="round"/></defs><use xlink:href="#g" fill="#004249" stroke="#00465f" stroke-width="5.76"/></svg>