<svg width="384" height="4.94in" viewBox="0 0 2880 3557" xmlns="http://www.w3.org/2000/svg" xmlns:xlink="http://www.w3.org/1999/xlink"><path fill="#fff" d="M0 0h2880v3557H0z"/><defs><path id="a" d="M1037.92 2381.3l-10-.22-15.01-.34-9.56-.22h-1l-17.67-.44-7.45-.11-3.22-.11h-.23l-.55-2.34v-.89l-.67-2.78-.22-1.33v-.78l.22-1.56 1-2.89.56-.77.55-.56.34-.44.22-.45.33-1.22.34-1 .89-1.78.22-.78.22-.78-.11-.66-.22-.67-.34-.67-.77-1.11-.45-1.11-.44-.44-.56-.45-.33-.44-1.12-2.67-.33-1-.55-.67-1.89-2.22-.45-.34-.55-.33-1.23-1.22-.44-.89-.89-.89-1.78-1.67-1.45-1.33-1.11-1.56-1.33-.89-1.11-.78-.45-.77-.11-.67v-.56l.22-.66.23-.78v-.56l-.11-.44-.34-1.11-.44-1.78v-2.45l-.23-1-.11-.66-.44-.78-1.78-1.67-1.22-.89-.67-1-.44-1.33v-.89l-.23-.56-.33-.33-1-.78-.67-.56-1.22-.77h-.78l-.67.22-1.88.89-.23.11-.11-.11-1.33-1.78-.11-.67.11-.55.22-.45.78-1 1-2.67.55-1 .78-.89.67-.44 1.33-.56h1l.78-.22.67-.33.33-.22.56-.89.44-1 .23-1 .11-.78-.23-1.34-.55-1.89-.22-1.11.11-.78.22-1 .33-1 1.11-3.89.34-.89.22-.33.33-.33.45-.23.67.12.77.22.89.22h.34l.33-.11.89-.78 1.11-1 1.67-1.44.67-.67.22-.45.11-.55.11-.78v-.44l-.33-.56-.56-.44-1-1.12-.67-.22-1 .11h-.66l-.56-.22-.44-.44-.34-.56-.11-.89v-1l-.11-1.22-.22-.67-.34-.44-.44-.45-.33-.44-.12-.34-.11-.66.11-1.89-.11-.67-.66-1.11-.34-.67v-1.22l-.11-.45-.22-.77-.22-.23-.34-.11-.66-.11-7.01-2.67-2-1-.55-.33-.56-.45-.44-.77-.23-.78v-1.34l.34-1.33v-1.56l-.11-.33-.67-.67-.56-.55-.55-.78-.67-.44-.89-.78-.44-.22-.45-.12h-.11l-.67-.55-.66-1.22-.11-.56-.12-1v-2.89l.12-.78.11-.78.33-.66 1.33-2.12.34-.66.33-1.11v-1.34l-.22-.44v-.45l.33-.44.56-1.11.67-2 1-1.45.33-1.11v-.56l-.11-.44-.34-.67-.55-.78-.45-.33-.55-.44-.45-.34h-.66l-1.12-.11-.55-.22-.45-.33-.55-.34-.67-.44-.55-.34-.67-.11-.67-.44-.55-.45-1.56-.89-.67-.22-1.66.11-.56-.22-.67-.33-.55-.34-.78-.33h-.45l-.66.11-.67.22-.67-.11-.33-.22-.56-.22-.55-.34h-.56l-1.22.23h-1l-.67-.23-.33-.33-.22-.44-.23-1-.22-1.89-.33-1.67-.22-.78-.45-.78-.55-1-.78-1.44-1.23-2.89-.66-1.11-1.78-3.01-1.11-1.22-.56-.44-.55-.23-1.01-.44-.66-.22-.56-.11-.89.11-1.33.33-.45.22-.33.11-.56-.11-.44-.11-1.22-.22-.56-.11-.44-.33-.78-.23-.89-.33-.67-.11-.66-.22-.67-.23-.78-.55-.33-.34-.45-.22-.22-.22-.67-.89-.22-.33-.33-1.34-.11-.33-4.01-3.67-.44-.89-.22-.44-.11-.56v-.78l.22-.55.44-.45 2-1.22.56-.55.11-.34.11-.33v-1l-.22-1.22-.11-1.23-.11-.89h.22l2.33.23 1 .11h10.79l4.33.11h3l2.89.11 6.56.22 4.78.22 4 .23 3.56.11 7.56.22 4.34.11 7.33.33h2.67l9.01.23 14.89.44 14.9.45 8.45.33 4.11.11 6.67.11 3.44.22h1.67l7.89.34 6.01.11 6.89.11 4.67.11 5.11.11 11.78.11 8.68.11 5.11.12 5.67.11 7.78.11 7.67.11 2.22.11 11.79.33 4.22.11 11.67.34 4.45.11 3.67.11 3.78.11 5 .22h4.11l.78-.11.33.11h4.89l7.9.11h8.11l8.23.12h3.67l3.78.11 5.11.11.11-6.67.22-13.23.11-8 .23-4.45v-2l.33-17.78-25.12-.34-3-.11h-6.34l-5.89-.11h-5.78l-.34-4.11-.11-2.34-.22-5.11-.11-3.11-.11-2.45v-18.56l.11-6.11v-2.56l.11-1.67v-4.56h1.33l7.56.12 5.67.22 8.56.22h2.23l6.55.11 10.68.33h1.77l2.45.12v-11.79l.11-3.22v-12.34l.11-6.45-.11-2.33.11-14.23v-2.33l5.56.22 19.23.56h2.34l2.89.11 16.89.44h6.45l12.23.11 5 .11-.11 15.34-.11.11v.23l.11.11v.11l.22.11h.11l.78.22.22.22v.23l-.11.33-.11.33-.11.23h-.22l-.11-.23-.11-.11h-.56l-.11.11-.22 1.56-.34 1.56v5.55l23.68.34-.11 9.33-.11 5.34v5l.11 1.11v.78l.22 1.22.56 3.67-2.12-.11-14.67-.22-6-.11h-6.45l-3-.11-13.56-.23-.45 14.23v2l-.33 12.12-.44 14.45-.23 7.78-.11 7-.11 3.23-.11 4.44v10.01l-.11 3.33-.22 12.01-.12 4.89-.11 5.11-.11 1.34v.88h2.89l2.11.12 2.56.11 3 .11 8.9.22h2l7.33.33h2.34l2.55.11h2.23l4.11.12 3.34.11h5.22l14.79.55 6.66.23 6.67.22 5.34.11 6.34.11 5.22.11 10.45.33 4 .12h2.56l19.45.66 3.56.11 6.89.23 5.12.11 5.22.22 18.23.56 7.12.33 1.44.11h1.56l3.55.11 2.89.11h1.56l-.33 10.12-.11 7v4.56l-.56 24.23-.11 6.22-.11 3.01-.11 7.33v1.11l-.23 6.12-.66 32.12-.11 2.45-.12 1.78-.33 15-.22 6.78-.11 2.78-.11 4-.11 5.67-.23 8.12-.11 7.89-.22 6-.11 6.78-.11 5.89-.11 4.23-.12 3.44v4.34l-.11 1.66-18.67-.33-2.78-.11h-1l-2.67-.11-2.22-.11-18.12-.34h-1.22l-5.67-.11-37.91-.66h-2.89l-23.68-.56h-3.67l-3.55-.11h-.56l-3.22-.11-11.23-.22h-1l-10.45-.23-35.57-.66h-.67l-3.67-.11-7.89-.12h-.11l-34.91-.66h-.66l-9.12-.34-15.01-.44-14.78-.22-3.45-.11-4.67-.12h-.77l-7.56-.11h-1.34l-16.67-.44-13.9-.34-5.11-.11h-1.78l-32.9-.55-21.68-.78-.22.22-.11.11-.22.11-.23.12h-1.22l-.22.11-.22.11-.12.11h-.77l-.12.11z" stroke-linejoin="round"/></defs><use xlink:href="#a" fill="#cee3e4" stroke="#cef5f5" stroke-width="5.76"/><defs><path id="b" d="M1436.78 1938.68l-2.78.11h-2.45l.11-8.45.34-29.46.22-14.45v-6l.11-7 .11-14.01.22-5.11v-.22l.23-7.67.11-7.01v-3.55l.11-1.56h22.68l10-.11 5.11-.11h3.12l3.66-.11h2.78l24.01.44h1l10.79.22h2.44l4.78.23h3.12v-1.23l.11-3.33.11-3 .22-7.34.11-3.44.22-7.45.23-5.89.33-10.45.22-8.78.22-13.45.12-2v-2l.22-7.34v-2.22l.33-12.9v-2l.22-10 .11-8.78.12-3.45v-3.56l.11-3.11.11-7.78.11-16.56.11-6.89v-3.56l.11-6.34v-4.11l.11-14.01v-15.45l.11-4.44v-4.89l.12-2.34.44-14.34.44-12 .23-8.34.44-11.56.11-5.11.11-1.34 13.45.23 4.23.11 1.55.11h1.67l3.45.11 4.22.11h1.78l5.11.11 8.01.11 3.56.11.33-17.23.11-7.89v-.44l.11-.45v-1.55l.22-12.67.11-6.56v-5.56h5.12l7.22.33 6.67.11 4.56.23 7.23.22 6.89.11 9 .33 6.56.23 2.89.11 14.56.22 7.45.11h5.23l1 .11h1.22l1.22.33h1.67l.67-.11 1.11-.11h3.44l.12-5.89.22-14.23-.11-7.67.11-2.11.11-8v-10.45l.11-4.11.22-7.56.11-6v-2.89l.12-7.67v-5.67l.22-11.12v-.11l.33-11.78.11-10.78v-2.34l.22-10.11v-3.56l.23-14.56.11-8.12.11-3 .22-11.89.22-14.56.12-5.01.22-13.33.11-7.67 5.56.22 17 .78 6.01.33 9.56.33 5 .34 3.78.11 9.67.11h.89l1-.11 3 .11 2.11.11 5.78.11 3.56.11 11.9.34 4.22.11h3.22v4.78l-.11 8.89-.22 10.67-.11 2.33v12.45l-.11 7.12-.22 5.89v2.22l-.23 11.23-.11 3.78v.11l-.22 8.45v3.89l-.11 5.78v3.11l-.11 9.34-.23 4.33-.11 5.01-.44 20.89-.45 26.24 4.01.11 3.11.11 5.33.11 10.79.22 3.44.11 8.9.22 4.89.12 5.56.22h.66l1.45-.11 3.89.11h4l4 .11 7.89.11 3.9.11 3.66.11 10.79.23.89.11 4.78.11h1.44v6.44l-.11 3.67v9.12l-.33 21.78-.11 5.45-.12 5.56-.22 14.67-.22 11.01v2.11l-.11 5.44-.11 7.23-.11 9-.12 2.78h.23l21.01.34 10.56.22h5.22l1.22.11h4.12l4.56.11-.23 7.56v2.44l-.11 2.45v7.11l-.11 1.78-.11 4.89v7.67l-.11 4.89v9.67l-.11 3.78-.11 3.23-.12 6.33v6.67l-.11 9.78v1.67l-.11 2.34-.11 9.22-.22 12.9-16.23-.45-6.89-.11-3.56-.11h-3.45l-13.89-.22-2.56-.11-8.78-.12h-.56l-3.78-.11-2.66-.11-3.23-.11h-11.89l-7.89-.22h-4.12l-3.67-.11-29.9-.34-10.11-.22-6.67-.11-.11 3.89-.12 8.67-.22 15.79-.22 5.11-.11 5-.11 8.34-.11 3.67v1.66l-.12 3.34-.11 15.67-.22 10.45-.33 21.12v1.78l-.11 3.55-.56 20.68v1.22l-.11 7.45-.11 5.45-.11 1.77-.22 11.34v1l-.12 10.23-.11 6.56-.11 8-.11 5.56v7.22l-.11 3.45-.22 10.23v.66l-.11 5.45v5.67l-.12 4.11v4l-.11 4.67v2.78l-.11 7.23v2.44l-.11 3.78-.11 3.22-.11 8.34-13.79-.22-5.89-.11h-5.78l-8.33-.11-9.12-.12-3.56.12-12-.56-10.9-.33-6.89-.34-4.22-.11-12.79-.44-8.56-.22-4.78-.12-7.33-.11-9.67-.11-4.78-.11-9.45-.22h-2.45l-3.44-.11-3.34-.11-7.22-.12h-7.01l-13.12-.11h-2.55l-10.78-.11-20.9-.22-7.67-.11-18.12-.33-4.56-.12-3.56-.11-15-.33-3.78-.11h-2.89l-4.01-.11-4.22-.11-7.45-.23-.67.12-2.55-.12h-14.34l-.89-.11h-.22l-.34-.11-1.44-.44-.56-.11-1.11.22-1.56.44h-1l-1.89.11h-1.55l-6.78.12-3.67.11h-4z" stroke-linejoin="round"/></defs><use xlink:href="#b" fill="#cee3e4" stroke="#cef5f5" stroke-width="5.76"/><defs><path id="c" d="M1428.55 2199.78h-1.56l-2.89-.11-3.55-.11h-1.56l-1.44-.11-7.12-.33-18.23-.56-5.22-.22-5.12-.11-6.89-.23-3.56-.11-19.45-.66h-2.56l-4-.12-10.45-.33-5.22-.11-6.34-.11-5.34-.11-6.67-.22-6.66-.23-14.79-.55h-5.22l-3.34-.11-4.11-.12h-2.23l-2.55-.11h-2.34l-7.33-.33h-2l-8.9-.22-3-.11-2.56-.11-2.11-.12h-2.89v-.88l.11-1.34.11-5.11.12-4.89.22-12.01.11-3.33v-10.01l.11-4.44.11-3.23.11-7 .23-7.78.44-14.45.33-12.12v-2l.45-14.23 13.56.23 3 .11h6.45l6 .11 14.67.22 2.12.11-.56-3.67-.22-1.22v-.78l-.11-1.11v-5l.11-5.34.11-9.33-23.68-.34v-5.55l.34-1.56.22-1.56.11-.11h.56l.11.11.11.23h.22l.11-.23.11-.33.11-.33v-.23l-.22-.22-.78-.22h-.11l-.22-.11v-.11l-.11-.11v-.23l.11-.11.11-15.34-5-.11-12.23-.11h-6.45l-16.89-.44-2.89-.11h-2.34l-19.23-.56-5.56-.22v2.33l-.11 14.23.11 2.33-.11 6.45v12.34l-.11 3.22v11.79l-2.45-.12H1191l-10.68-.33-6.55-.11h-2.23l-8.56-.22-5.67-.22-7.56-.12h-1.33v4.56l-.11 1.67v2.56l-.11 6.11v18.56l.11 2.45.11 3.11.22 5.11.11 2.34.34 4.11h5.78l5.89.11h6.34l3 .11 25.12.34-.33 17.78v2l-.23 4.45-.11 8-.22 13.23-.11 6.67-5.11-.11-3.78-.11h-3.67l-8.23-.12h-8.11l-7.9-.11h-4.89l-.33-.11-.78.11h-4.11l-5-.22-3.78-.11-3.67-.11-4.45-.11-11.67-.34-4.22-.11-11.79-.33-2.22-.11-7.67-.11-7.78-.11-5.67-.11-5.11-.12-8.68-.11-11.78-.11-5.11-.11-4.67-.11-6.89-.11-6.01-.11-7.89-.34h-1.67l-3.44-.22-6.67-.11-4.11-.11-8.45-.33-14.9-.45-14.89-.44-9.01-.23h-2.67l-7.33-.33-4.34-.11-7.56-.22-3.56-.11-4-.23-4.78-.22-6.56-.22-2.89-.11h-3l-4.33-.11H898.3l-1-.11-2.33-.23h-.22l-.11-.66-.23-.56-.33-.56-.22-.77-.22-.56v-.78l.11-.66.44-1.23.78-1.55 1-1.11 1.33-1.23.89-.78 1.34-1.33 3.22-1.67.22-.33v-.78l-.44-1.44-.33-.56-.45-.44-.89-.78-.22-.22-.22-.78-.23-.67-.22-1.22-.11-.22-.22-.34-2.67-1.67-1.22-1.55-.45-.33-.66-.34-1-.22-1-.45-.89-.77-1.56-1.45-.22-.44v-.89l1-1.89 1.55-2.23 1.89-2.22.34-.44.44-1.11.34-2.78v-2.89l-.23-.78-.44-.67-.67-.78-.44-.22-.56-.11h-1l-.67.22-2.22 1.11-1.56 1.23h-.44l-.89-.11-.44-.12-1-.55-.56-.56-.22-.44-.34-1v-.67l.11-.44.89-2.45.67-2.11 1.56-6.23v-.77l-.11-.89-.23-1-.55-1-.89-1.23-1.34-1.78-.55-1.11-.78-1.66-.11-.56-.11-.33.11-.67v-.33l1.22-2.45.22-.33.34-.23.33-.22 2.89-.66 1.45-1 2-2.01 1.33-1 .45-.77.66-2 .11-.45.34-.44 2.22-2.34.22-.55.12-.23.22-1.11.89-2 .55-1.56.22-.33.23-.22 1.55-1 1.11-1.22 1.01-1.23.44-.77.11-.56v-.45l-.11-.33-.22-.22-.34-.22-3.11-2.45-.33-.22-.34-.11-2.22-.56-.33-.22-.89-.56-.67-.55-.22-.45-.11-.44-.34-.45-.22-.22-.66-.55-.45-.23-1.22-1-.89-1-.45-.89-.22-.44v-.78l.11-.33 1.11-2.45 1.45-1.89 2.22-3 .23-.78.33-1.55-.11-.78-.22-.78-1.23-3.33-.22-.78v-1.22l.56-3.56v-1.67l-.23-1.78-.44-3.55-.33-1.23-.89-1.66-.23-.89-.77-3.34-.23-.67-.55-1-.45-.77-.33-1-.22-.67.11-1v-.67l.44-1.33.56-1.67.33-.44.34-.45.66-.55.23-.45.44-.89 1.33-3.67.23-.44.22-.45.67-1.11.55-1v-2.55l-.22-.89-.11-.56-.56-.89-.44-.55-.89-.78-2.11-1.67-.45-.33-.33-.67-1-1.78-.11-.22-.67-.11-3.45.11-.44-.11-.45-.34-.89-1.33-.77-1.67-.78-1.33-.34-.78-.22-.89-.11-.33v-.89l.11-.45 1.11-3.44.78-1.34.22-.77.45-1.56.22-.22.33-.22h.45l2.33.55h.56l.44-.11 2.34-.78 1.89-.89.89-.78.44-.44.22-.44.12-.45v-.44l-.23-1.67v-.56l.78-3.89 1.22-5.22.78-1.89 1.45-2.11 1-1.45 1.55-1 1.34-.78.89-.66.78-.78.11-.45v-.44l-.11-.67-.78-3.44.11-1.45.22-1.78.22-.78 1.45-2.44 2-2.45 1.56-1.44.55-.78.22-.67.12-.89v-2.22l-.45-1.44-.67-1-.89-1-.55-.45-.45-.11h-1.22l-.89.33-.78.56-.66.89-1.89 3.67-1.23 2.78-.66.77-1.11.67-.89.22-.89-.22-1.56-1.22-.89-1-.33-1v-.56l.11-.55.55-1.67.12-.67-.12-.78-.33-.66-.55-.67-1.56-1-4.67-1.89-1.11-.56-.45-.55-1.11-1.56-.33-.67-.11-.44-.45-2.89-.22-.56-1-1.66-.33-.89v-.89l.11-1.22.44-2.56.23-3.45v-1.66l-.34-2.67.11-1.34.11-.77.12-1.45-.12-.44-.22-.67-.55-.56-.56-.22-.89-.11-.89.11-1.11.33-.56.34-.44.55-1.67 2.34-.44.33-.67.11h-.56l-.88-.89-.78-1.22-1.23-1.67-.66-2.11-.11-1 .11-.44.11-.34.55-.66.56-.56 3.11-.89 1.78-1.11 2.22-1.56 2.89-2.44.12-.45.11-.44-.11-.56-.67-1.11-.78-1.78-.33-.78-.23-1.11v-.55l.12-.67 2.33-7.23 1.22-3.66.11-1-.33-3.45.11-1.22.11-.89.67-.78 1-.56.78-.22.89.22 1 .23h.67l.77-.23.67-.44.56-.67.55-2 .34-2.78-.34-.89.22-.66.34-.45.33-.78.22-.33.67-.78.11-.11v-1.22l-.11-.89-.78-2.22v-1.34l.34-1.22.22-.56.22-.77.22-.34.89-1.33.34-.56.11-.44.11-.67v-.78l-.34-1.55-.11-.34-.22-.55-.44-.56-.11-.11v-1.44l.11-.12h.22l.22.12.89.55.11.11h.22l.23-.11.11-.22.22-.33.89-1.89.11-.34v-.33l-.22-.22-.56-.34-.11-.11v-.33l-.11-.33-.11-.34-.11-.11h-.34l-.44.22h-.22l-.11-.11-.12-.22-.11-.22v-1.34l-.11-.11-.22-.11v-.44l.33-.56v-.44l.11-.23.12-.11v-1l.22-.22.11-.11-.11-.56h.11l.11-.11h.11l.11-.22v-.45l.23-.33.11-.22.22-.11.33-.11h.22l.78.33.23.11.44-.11h.22l.45-.33.55-.11h.11l.23.11.11.11.11.22.11 1.11v.22l.11.45-.22.11-.22.22v.11l-.12.11v.45l.34.22h.22l.78-.33 1-.34.44-.11.23.11.11.23.11.11.11.33v.34l-.33 1-.23.55-.44.56-.11.22v.56l.11.22.44.78h.11l.12.11.44-.23.67-.11.22.11h.11l.11-.11.11-.11.11-.22v-.67l.12-.22.11-.11.11-.22h.22l.11.11.22.33.56.67.56.33.11.22.11.23.33 1.22.22.11.11.11.23-.11.11-.11.11-.22v-.23l.11-1.33.22-1 .23-.44.22-.23.11-.11.11-.44.22-.34.22-.22.67-.44.34-.22.22-.12.55-.22h1.56l.11-.11.22-.22.23-.11h.44l1 .33h.22l.11-.11.23-.11.33-.22.44-.12.23-.11v-.11l.11-.44v-.34l.11-.22v-.33l-.11-.34-.22-.33v-.33l.11-.11.11-.23.33-.11.45-.44.22-.22.22-1 .11-.34.22-.33.34-.33.11-.34.33-.66.22-.45.23-.22h.66l.45.11.55.22v4.56l-.44 20.9-.11 6.78 8.78.11 14.45.22h2.67l8.45.11 7 .11 5.23.11.55-26.34.11-4.56.45-21.45v-1.33l.11-9.34.33-16.67.22-10.68.12-10.44.11-3.12 9.89.23h3.11l4.12.11h3.44l4.56.11 2.11.11h5l3.56.11 8 .22h3.12l8.22.11 3.78.11h3.89l6.23.23 12.34.11 8.56.22h3.78l.22-13.89.22-5.23.11-7 .67.11 23.01.56 23.34.44-.33 25.12v1.11l.22-.11h1.34l2.22.11h3.11l4.23.23h4l7.34.11 4.55.11h4.67l12.34-.22h2.45l.44.11h2.67l2.44.11h1.89l3.56.22 7.34.11h2.89l.44.11 4.56.11h1.67l1.89.11 4.33.12 3.78.11 4.78.22 2.56.11-.11 15.12v9.45l-.11 4.33-.11 5.23-.11 10.22-.12 7.12v.44h1.67l4.78.11h3.11l16.23.33h2.23l5.22.23h3.23l5.33.11 4.45.11 17.89.22 5.01.11 24.01.34h2.44l6.67.22 24.13.67 11.78.22 1.89.11 8.67.22 5.78.22 3 .12 1.89.11 4 .11 5.23.11 6.33.22 11.68.33 6.89.23 9.11.33 2.23.11 5.44.11 7.67.22 5.23.23 10.45.33-.11 1.56v3.55l-.11 7.01-.23 7.67v.22l-.22 5.11-.11 14.01-.11 7v6l-.22 14.45-.34 29.46-.11 8.45v6.67l-.11 4.33v1.45l-.11 1.11-.11 10.45v11.89l-.34 16.45h1.23l7.56-.11h33.9l2.22-.11h.45l.55.11h.23l.22.22 5.56.11 41.02.23-.23 4.44-.11 10.34-.22 11.12-.11 14.22-.11 7.12-.11 5.44v26.46l-.11 6.34.11 4.78-.11 12.67-.12 1-.11 1.11-8-.11h-4.89l-6.23-.11h-4.11l-3.89-.11h-3.22l-3.23-.12-13.11-.11h-.45l-3.33-.11-17.01-.11h-8.45l-6-.11-11.01-.11.56 3v.56l.11 1.89-.22 21.56-.45 25.01v4.11l-.22 11.79-.22 9.67-.23 9.56-.33 9.55-.11 4.78v2.67z" stroke-linejoin="round"/></defs><use xlink:href="#c" fill="#cee3e4" stroke="#cef5f5" stroke-width="5.76"/><defs><path id="d" d="M2283.61 1430.8h-2.67l.67-52.24.22-32.24.34-20 .33-26.57.11-8.56v-1l.34-16.01.33-26.23.22-21.56.11-4.56v-.67l.11-3.11v-.89l.34-28.23.22-15.12v-1l-.11-.33-.11-.45-.22-.33-.12-.45-.33-.55-.67-.45-.33-.22-.22-.11-.34-.22-.44-.11-.78-.12h-1.78l-5-.11-19.12-.22h-2.56l-7.56-.11-3.89-.11h-9.78l-1.44.22-2.45-.11-1.33-.22-9.67-.11h-7.01l-17.89-.23.11-5.89v-8.56l.11-16.67.22.22.33.45.45.44 1.22 1.23.22.33 1.45 2.78.55.89.56.66.89.67.44.33.45.23.33.11h.34l.44-.11.45-.23.44-.22.78-.55 1.11-.78.33-.11.45-.11 1.55.33.56.11.89.44.55.23.89.11.45.11 1 .33.22.11 2.34 3.45.44.56h.22l.23.11.33-.11.22-.34 2.78-5.56.56-.77.33-.23.56.12.66.22.78.11h.67l.55.22.67.33 1.11.23.45.11.55.22.22.33.12.34.33.78.67 1.66.44.45.45.55.55.45.67.33.55.11h.67l.45-.11.77-.44.45-.67.22-.56.22-.66.56-.89 2.44-3.11-.33-.23-.55-.11h-.56l-.78-.22-.67-.22-.22-.23v-.22l-.11-.22v-.44l.22-1.12.11-.22.12-.22h.55l.45.11 1.22.67h.33l.34-.34.33-1.11v-.89l-.22-.66-1.34-2.12-.66-1-.56-.55-.89-.89-.67-.45-.22-.22-.11-.22v-.22l.11-.34.11-.22h.67l.33.11h.34l.55.56.34.11.11-.11.22-.22.11-.34.56-1.33.11-.33v-.34l-.11-.22-.11-.11-.23-.22-.33-.45-.11-.22-.11-.22.11-.23v-1.33h.11l.44-.11h.12l.33-.11h.33l.34.22.55.11h.45l.11-.11.22-.33.22-.34.45-.89.89-2.22.66-1.44.23-.78.11-.34.11-.55v-2.11h2.33l45.8.66.78.34v-.34l.89-52.46.44-27.68.34-24.34v-.23l.66-35.23.11-16.9v-.22l.78-51.91v-.56l.34-26.9.44-27.9 1-.11 43.47.45 26.45.33 20.79.11 24.23.56 14.12.22 8.34.45 10.11-.12h3.23l33.35.89 26.68.45 17.11.33 2.78.11 21.9.34h2.89l22.01-.12h36.46l10.45.23 29.8.44 16.78.22 46.58.78 23.68.45 4.89.11 15.23-.11h3.33l-.11 6.67-.11.77v4.45l-.11 5v9.01l-.22 11v9.12l-.12 1v5.55l-.22 14.45v8.45l-.11 7.89-.11 8.01-.11 7.78v5.89l-.11 9.11-.11 8.34-.12 7.89v2.78l-.11 4.34v10.33l-.11 4.12v5.22l-.11 5.34v2l-.11 4.44v5.56l-.11 4.23-.11 8.67-.11 6v3.56l-.11 6.55v4.67l-.12 1.23v4.44l-.11 7.34v6l-.11 5.78-.11 7.78-.11 7.12v4.11l-.11 2.55-.11 7.23-.11 12.45-.12 5.78-.22 10.45-.11 7.89-.11 7.89-.11 5.23v2.55l-.11 7.78v21.35l-.11 10.33v8.01l-.11 4.67-.12 11.11v7.89l-.11 7.67-.11 6.56-.11 7.89-.11 9.12v2.22l-.11 3.56-.11 4-.11 5.89-.23 4.45-.22 8.45-.22 6.89v1.78l-.22 7.78-.11 2.22-.12 5.45v3.89l-.11.22v5.33l.11.67.12.78.11.78.11 1 .11 1.11.22 1.11.11.78v8.78l-.11 2.45v21.78l-.11 5.78v1.67l-.11.56-.11.66-.11.56-.11.67-.23 1.55-.11.67-.11.67v.55l-.11.67v2.11l-.11 7.23-.11 7.44-.11 8.56-.34 17.79v1.78h-1.33l-21.01-.12h-.33l-18.01-.11h-6.23l-12-.55-34.69-.11-9.11-1.12-2-.11-3.89.11-6.67-.11h-.56l-2.78-.11-22.01.11-23.56-.44-19.01-.11h-4.12l-23.78-.11h-28.13l-5.33-.45h-.89l-35.35-.11-17.23-.11-29.24-.33-27.46-.23-11.22-.11-8.23-.11-23.68-.44-15.56-.23h-7.11l-5.56-.11-2.23.23-35.46-.23z" stroke-linejoin="round"/></defs><use xlink:href="#d" fill="#cee3e4" stroke="#cef5f5" stroke-width="5.76"/><defs><path id="e" d="M1684.45 3516.87l-5.12 2.67-3.78 1.56-2.22.66-2.56.45-5.33-.34-2.89-.33-3-.89h-1.56l-12.34-.11-3.78-1-2.33-1.22-2-.67-5.01-3-1.89-1.56-2.11-2.33-.89-1.33-.11-.67-.33-.67-.45-1.55-.33-.23h-1.22l-1.34-1.11-1.66-2.44-.45-.12-1-.44-.78-1.11-.44-1.22-.56-.89-.44-1.12-1-2.33-.23-.89v-.55l-.22-.23-.22-1.11-.44-1.22.11-1.56-.56-1-1.11-.44-2.45-.56-4.11-4.78-2-1.22-1.78-1.67-4.45-3-5.67-.11.34-25.34v-.56h-14.45l-2.11-.11h-12.34l-.23-.45-2.22-4.44-.78-.78-.44-1.11-.34-2-.22-.22-.22-1-.89-2.67-.44-2.11-1.56-5.67-.22-.34-.23-1.11-.22-.33-.78-2.89-.22-2.23-.22-.55-.11-1.22-3.34-22.35-.55-1.11-.22-.33-.12-.45-.44-.44-1.45-3.11-1-1.89-.33-.45.56-38.57h5l15.89-.22h1.78l15.57.33 1 .11.55-3.78.56-3.22.11-3.78v-3.33l-.33-3-.78-2.45-.22-3.11-.67-3.56-.78-3-.89-3.22-1-1.89-.78-1.34-1.22-2.11-1.45-2.33-1.55-1.78-1.78-2.11-1.78-1.67-2.11-1.67-.22-.11-1.45-1.22-1.67-1-1.11-.67-1.33-.22-1.22.11-1 .33-1.45.89-.89 1.22-.67 1.89-.66 1.34-.78 1.22-1.78 1.56-1.56 1.78-1 1.66-.89 1-1.77 1.45-1.89 1.44-1.67.56-1-.45-2.23-.33-1 .67h-.11l-1.33.78-1.33-.67-.45-.22-.89-.45-1-1.67-1.11-2.55-.56-2.22-1.22-2.67-.89-2.67-.89-2.67-2-4.22-1.44-2.67-.89-2.22-.89-1.56-1-1.89-1.45-3.22-1.11-2.56-.89-1.78-1.11-1.55-1.33-.89-1.23-.67-1-.56-1.22-.55-.78-.45-.67-.66-.44-1v-1l-.33-1.34-.56-.89-.89-.55-.67-.11h-.22l-1 .11-1.67.66-1.55.78-1.78.78-1.78 1-2.22.78-2.12.55-1.44.34-1.22.44-.56-.78-1.11-.55-1.56-.33-1.55-.78-1.11-.45-1.45.23-1.22.33-1 .55-1.34 1.56-1.11.89-1.33 1.22-1.78 1.11-3 1-3.12 1.34-1.66.33-1.23-.55-2.11-.78-2.22.22-1.45-.22h-.89l-2.33.44-1 .56-1.56 1.33-3 .89-2.44-.11-3.12-1-2.89-.78-1-.33-2 .22-1.55.45-2 .11-1.89-.67-2.45.11-3.11.45-4.78.66-3.89 1-2.89 1.34-.45.11-2.78.78-2.89.55h-4.22l-4.34-.11-5.11-1.22-.33-.11-3.56-1.45-3.56-2.44-2.56-2.56-.88-1.78-.45-1.11-1-.33-1.22-1-1.45-1.34-1.44-1.44-1.11-1.78-.23-2.11.11-1.45-.22-1.22-.78-1-.22-1.45.89-3.44.67-4 1.67-3.45 2.55-2.78 2.45-1.89 1.33-.67.22-.11 3.12-.66 2.22-.56 2.56.33 2.44 2 4.67 2.45 3.34.89 2.66.44 3.34.67 4.56.11 3.33-.33 3.78-1 2.67-1.67 2.44-1.78.56-.66 1.33-2.01 1.56-5.66.78-2.89.22-4.23v-3.22l-.22-2.23-.89-4.66-1.11-2.78-.67-1.23-2.11-3.22-1.34-2-1.66-1.67-1.67-1.78-.78-.33-.44-.11-1.67-.22-2.11-.34-2.78-.77-2.67-.89-2.22-.56-2.23-.67-2.66-1.33-3.45-1.44-3.22-1.23-2.45-.78-.89-.22-2.67-.89h-.22l-2.22-.55-2.45-.67-2.11-.67-2-.78-1.78-.66-1.11-.89-1.11-1-2-1-2-.67-2.56-.22h-.11l-1.56.11v.78l-.44.11h-.89l-2.78 1-.78.22-.33.67-.11.22-.34 1.67-.55 1.78v.44l-.67.89-1.67 2h-.11l-.78.34-1.22 1.66-1.45 2-.22.23-3 2.89-.22.22-1.45.66-1.44.23-1.78 1.44-2.78 1.89-3.89 2.34-4.34 2.33-3.22 1.22-2.56.34h-2l-4.22-.78-3.89.33-4.11-.78-1.23-.89-.66-.66-.56-1.22-1.11-1.56-3.45-1.89-4.56-1.67-1.11-.78.11-1.77-1-1.12-4.11-2.55-4.67-2.34-2.44-.66-1.12.22-1.11-.11h-.55l-.78.11-3.78.55-2.89.78-.45.56-3.22 3.22-1.44.45-4.23.33h-.55l-1.12.44-.89.12-.66.44-.56.44-.78 2.45-1.33 2.22v.78l-1.67 1.67-1.44 1.11-2.78 1.33-.78.45-1.33 1.33-.34.45v1.55l-.78 1.56-.44.44-.78.78-2.55 1.11-1.56.11-2 .12-.67-.23h-.22l-1.56.67-.66.78-.89 1.89-.12 1.44-.77 1.56-1.34 1.33-1.11.67-2.44-.33-1.56.78-3.89 1.44-2.78-.44-1.56 1.33-1 .11-1.11.33-1.44.12-1.67.77-1.56 1.78-.33.11-1.33.11-1.34-.22h-.89l-1.55-.11-.12.22-.11.45-2.11.22-1.67.22-4.89 2.89-.11.22v.45l2.45.67.22.66-.56.56-1.33.22h-1.89l-4.45.56-3.44.55-1.78.34-3.67-.12-1.44-.33-1.12-.55-1-1.12-.78-.55-1.55.22-3.56 1.33-3.44 1.23-5.34-.11-.56-.34-.44-.66h-.67l-.55.33-1.78.67-4.78-.12-10.45-4.89-3-1.22-2.34-1.78-3-2.44-1.56-2.11-1.33-1.67-3.78-4.34-.55-1.33-2.78-3.22-1.89-.89-.45-.11-.33-.67-1.34-1-.66-.22-6.78-1.67-1.45-.78-.67-.67-3.22-.66h-.89l-.55.44-.34.22-.78.23-9.11-.67-2.11-.89-2-.89-2.45-3.11-.22-.56-.11-.22-.11-.11-.12-.34-1.22-.33-.33-.11h-3.23l-1.77-.33-2.12-1.56-2.55-.33-1-.56-2.56-2.11-1.11-1.78-1.78-.78-1.11-1.33-1.34-2-.66-1.67-1.89-4-2.89-4.56-.89-1.55-1.34-3.01-.44-1.77-2.11-3.67-.23-1.45-2.66-4.55-.34-.45-.55-.56-.11-.11-.89-1.44-1.67-1.89-3.11-2.56-1.45-1.66-1.22-2.12-1.11-1.66-3.23-4.01-2.11-1.44-1.44-.56-2.12-2.22-4.22-4.67-1.89-1.67-.22-.22.11-1.44.56-7.45 1.11-10.23h.11l8.89.34 6.34.22h1.11l12 .22 11.79.11 5.78.11 8.11.11h4.45l5.22.12 6.01.22 5.67.22 3.89.11 2.89.11 3.67.23h1.44l2.45.11 2 .11h2l1.33.11h1.89l2.45.11 1.66.11 3.12.11h1l5.56.22 5 .23h.89l13.45.55 10.23.45 17.67.66.33-19.56.11-.33.23-13.01v-3.11l.22-9.45v-7.11l.56-18.79v-7.67l.11-9.45v-18.78l.11-6.45.33-12.78v-.45l.22-13 .34-13.01v-.22l-.67-5.33v-1.56l.22-4.89.34-10.45v-2.89l.33-7.34.78-26.23h-1.67l-10.45-.44-2.78-.12-6.45-.22-13.56-.66-6.11-.23-4.89-.22h-.89l-23.57-.67-5.56-.22h-18.12l-17.78-.55-10.56-.34-11.12-.22-3.33-.44h-3.56l-.33.11-.45-.11-5.11-.12-.22-.11-.45.11-3.89.34-3-.11-4.34-.11-1.11.11-11.34-.34-.78-.33-6.55.11-10.23-.22-17.45-.89h-.34l-5.89-.11-5.22-.11-10.79-.23h-.89l-6-.22-13.56-.11-10.23-.11-22.12-.33h-1v1.77l-.11 5.78v.34l-.22 12.56-.11 6.22-.11 25.68v2.56l-.34 27.23-.22 10.56-.22 12.23-.22 22.23v2.78l-.23 5.56-.11 1.77-1.44-.22-1.56.45-1.89.11-1.44-.11-1.23-.45-1.33-.11-3.11-.44-2.12-.56-1.44-1.11-3.67-.11-4.45.55-3.89.34-3.78.22-2.66.33-2.23 1-2 .78-2.56.56-2.22 1-2.55.33-2.23-.56-1.44.12-1.78.66-2.78-.11-2.45-.78-3.11-1.33-1.67-1-1.66-2.11-1.67-2.67-.45-1.33.45-2.12 1-1.77.78-3.45.22-2 .67-2.56 1.66-4.11 2-5.45 1.01-3.22.88-3.11-.11-2.67-.22-1.56.67-2.55 1-2.78.22-4 .11-4.23-.33-2.78-.67-2.66-.22-.56-.45-2.22-.55-1.78-.22-1.89-.45-2.67-1.67-3.67-1.44-2.33-2.11-2.45-1.56-2.33-1.33-1.45-2.56-1.66-2.33-1.12-1.67-.55-1.45-.56-.11-1.11-.66-.55-.12-.34-.22-.44-.44-.56-.23-.11h-.33l-.55.11h-1.01l-.44.11-.56.45-.33.33-.33.89-1.23 1.45-1.33.77-1.67.34-1.55 1.11-2.56 2.78-3.89 2.66-3.67 2.12-3.56 1.78-1.11.22-2.44-.34-2-.66h-4.56l-4.45-1.78-3.56-2.67-2.44-2.78-2.56-2.33-4.33-1.34-2.56-1.22-.22-1.22-2.23-2.67-1.11-1.67-.78-1.55-.66-1.11-.11-.23-.56-1.11-.89-3.44.33-3.56 2.45-7.34 1.11-4.67 1.11-2.66 5.01-5.12 2.66-2.66 3.34-6.45 1.11-2 1.11-3.45 2.34-6.78v-.67l.11-2.55-1.89-6.56-.67-2-3.78-5.34-.11-.11-4-4.11-3.23-1.67-1.89-.44-2.33.33-3.33 1.11-5.01 2.34-3.55 1-2.56.11-7.45-1.56-9-3.56h-1.34l-2.33.12-3.78.11-6.11-2.11-6.67.66-.56-.66-2.45-.56-17.56 1.11-1.22.45-6 .77-10.57-.55-3.77-.56-5.56-1.67-3.45-.55-.67-.45-.55-1.33-.34-3.89-2.77-5v-1.78l1.77-2.33.56-1.45v-2.45l-.56-2 .23-1.22 1.22-1.78-.11-4.55-.34-1.78 1.01-3.67.11-.22.55-8.56-.33-1.67-.89-2.67-1.45-2.55-4-4.45-2-1.11-2.22-.78h-3.23l-1.11-.11-1.22.33-2.11 1.34-1.56 1.89-1.44 4.11-.67 1.22-.56 2.89-1.77 3.67-1.01 3.56-2.22 4.89-2.89 4.67-2.44 2.77-1.78 1.45-3.12 1.33-2.89.67h-3.78l-4.22-.56-3.56-1-5.33-3-1.11-1.55-.56-1.67-.56-2.33.45-6.12-.78-5.78-.55-2.67-1.34-3.66-.55-2.01-.89-2.11-2.34-3.33-2.44-2.11-1.45-1-2.44-.67-3.23.22-3 .56-4.45 2-4 2.22-10 4.56-1.23.33-12.56-.89-3-.78-4.33-1.89-1.67-1.33-1.89-1.44-2.34-2.89-.55-2.45.11-2.11.22-2.56 1.45-3.11 1.78-3.89 1.55-6.23-.11-2.77-1.33-2.89-.34-3.23-.89-2.55-4.11-4.45-1.11-.78-2.78-.89-.67-.89-.44-1.11-.22-.44-.56-.23-1.67-.55-1.11-.11-8.67-.67-6.56-.89-9.11-2.33-3.23-.23-1.11-.11-2.33-.78-1.34-.77-2.66-2.78-1.89-1.11-.56-.23-1.89-.55-5.67-.67-5.33-.67-4.34-1-1.89-1.11-6.67-5.44-2-.89-4.45-1.23-1-.33-2.44-1.22-2.12-1.67-15.45-17.12-1-1.67-1.55-3.22-.11-.22-1.45-4.34-.44-1.55-.67-3.78-.33-2.45-.45-2-1.89-2.22-.56-1.45-1.44-.22-3.89-2.78-7.34-7.44-3.11-3.67-5-8.34-1.78-2.45-1.67-4-.11-1.55-1.89-3.12-.89-2.44-.44-1.11v-1.67l.66-1 .11-1.45 3.23-13.22.22-1.78.45-4.23v-5.55l-.12-1.56-.89-3.44-1.33-2.78-2.67-4.12-3.89-6.67-1.89-4.66-.11-.78-.55-2.23-.23-.55.56-4.78 1.89-7.89 2.11-5.67 1-4 .56-4.89.11-4.67-.11-1.12.11-2.66.11-2.45.89-2.78.44-1.78.11-6.33-1.11-5.56-.89-6.78-.89-2.78-2.66-3.89-.45-.89-.55-1.33-.56-2.56-1.11-2.67-.22-.66-1.45-1.78-6.78-5.67-2.45-2.67-7.89-6.11-7.11-4.34-4.89-2.33-4.34-1.11-3.33-1.56-1.78-1.67-1.78-3v-4l.56-2.56 2.55-5.44.89-2.45.56-2.67-.23-2.44-.88-4.45-2.89-5.11-9.9-5.34-3.89-1.89-2.22-2.11-3.11-1.78-6.56-5.89-.23-.11-3-1.78-4.33-1.67-3.23-.88-3.22-1.89-3.78-2.89-1.33-1.67-2.23-3.56-1.44-1.67-.22-.22-1.45-1-3.67-2.33-3.55-3.45-3.56-2.22-3.34-3.23-2-1.55-.66-.45-3.45-3.89-4-4-2.34-1.89-.55-.44-3-2-3.01-1.23-5.67-1.33-3-1.22-4.33-.78.11-7.34.56-32.12.88-21.34-.33-3.12-.22-.66 24.34.66 6.67.23 29.35.77 2.33.12 29.24.77h.67l11.89.34 10.01.22h1.11l23.12.56 14.9.44.33.11h.22l13.12.22h.33l9.9.12h8.22l37.57.44 9.23.67 23.57.44 23.45.33 17.12-.22 6.34.11 6.56.23 15.67.33 3.89.11 19.57.45h.11l12 .33 11.12.22 44.69 1.11h2l41.13 1h1.22l4.56.11 17.78.45 7.12.22 18.34.56 3.67.11 30.35.55 8.22.34 8.34.33h.44l24.46.56 22.34.44h1.11l40.02.89h.89l4.89.11.89.11 6.23 1 1.78.11h3.22l5.89.12h.45l3.22.11 7.45.11 17.67.44h1l9.56.22 15.01.34 10 .22.12-.11h.77l.12-.11.22-.11.22-.11h1.22l.23-.12.22-.11.11-.11.22-.22 21.68.78 32.9.55h1.78l5.11.11 13.9.34 16.67.44h1.34l7.56.11h.77l4.67.12 3.45.11 14.78.22 15.01.44 9.12.34h.66l34.91.66h.11l7.89.12 3.67.11h.67l35.57.66 10.45.23h1l11.23.22 3.22.11h.56l3.55.11h3.67l23.68.56h2.89l37.91.66 5.67.11h1.22l18.12.34 2.22.11 2.67.11h1l2.78.11 18.67.33 40.47.78 5.33-.11 1 .11h2.56l24.23.67 7.01.11h2.11l1.55-.22 8.56-.11 23.79.44 12.45.22 5.01.12 10.11.22 16.34.22 3.78.11h.11l17.01.45 5.11.22h3.45l2.78.11h.11l8.34.11 32.24.56h.44l20.79.44 1.44.11 21.68.34h2.33v3.44l-.33 14.12-.33 27.01-.11 2.78-.45 11.45.11 1.33v3.56l-.11 6.11-.78 39.35-.11 1.78-.22 8.22.22 3.12-.22 16.11v.34l-.11 5-.56 31.35-.11 6.55-.22 14.68-.22 14-.11 7.12-.12 9.56-.11 2.78-.78 13.11.12 2.11v1.89l-.56 32.46-.22 13.01.11 4v3.67l-.11 11.45-.11 5.55-.23 12.23.12 1.89v.56l-.12.44-.22 9.23-.33 16.34-.34 17.78-.22 8.56-.33 19.56-.33 20.23-.45 12.56-.55 37.8-.12 6.56v.11l-.11 8-.11 7.45-.11 5.67-.56 7.56-.66 23.89.44 7.9-.22 15.11-.11 3.34-.56 31.01-.11 3v2.23l-.11 2.89-.22 15.11-.22 12.79-.12 16.11-.11 3.12-.22 13-.33 13.78-.11 4.56-.11 8.12-.12 11v.67l-.11 1.55v2.56l-.77 36.35-.34 9v4.78l.11.33v2.56l-.11 5.45-.33 17.78-.11 6.12-.23 19.89-.33 19.9-.11 13.78-.44 18.57-.34 26.01v1.11l-.11 6-.22 17.34-.11 2.11.11 2.34-.11 6.22-.11 11.23-.23 10.89v4.56l-.11 17.12h2.23l-.34 19.56-.33 19.68-.33 13.45-.34 24.56-.11 7.45-.11 11.56-.11 2.33v2.23l-.11 3.22v7.56l-.23 2.11.12.22v16.45l-.12 4.12v4.56l-.33 21.11-3.33 2.67z" stroke-linejoin="round"/></defs><use xlink:href="#e" fill="#9dc8ca" stroke="#9dd7f0" stroke-width="5.76"/><defs><path id="f" d="M2108.75 2839.38l.23 1v.88l-.34 2.56-.11.45-.22.55-.22.34-.23.33-.22.11-.44.11-.45.11-2.66-.22-3.78-.67-3.34-.78-.33-.11-.34-.11-.22-.33-.11-.22-.11-.23v-.33l.44-1.33.12-.45v-1.22l-.12-.33-.22-.23-.22-.33-.89-1-.56-.67-.89-.55-1-.67-3.33-1.56-2.22-.88-1.23-.23h-.55l-.56.11-.67.23-.44.22-.33.33-.34.34-.44.55-1.11 2-.34.45-.66.77-.45.56-.22.22-.45.11-1.77.78-.23.11-.33.34-.11.11h-.56l-.22-.11-.22-.11-.22-.34-.11-.22-.67-1.56-.22-.77-.12-.56-.11-.44v-.45l.11-.33.12-.56.55-1.33.22-.56.34-.78.44-.44.56-.78.22-.22.11-.22v-1.78l-.22-2.34-.11-.22-.11-.22-.11-.11-.23-.22-1.22-.78-.78-.34-.44-.22h-.34l-.11-.11-.22.11-.67.22-.55.34-.67.44-2.11 1.67-.33.11-.23.11-.22-.11-.22-.11-.45-.33-.33-.34-.22-.33-.11-.33-.11-.45-.12-1v-4.33l-.11-.56-.11-.22-.44-.89-.45-.45-.33-.33-.22-.11-.34-.11-.33-.11-.33.11-.34.11-.33.22-1 1.33-.33.45-.34.67-.55 1.33-.34.89-.22.33-.22.45-.67.66-.33.34-.22.11h-.78l-1.56-.33-.55-.23-.23-.22-.22-.22-.11-.22-.33-.89v-.78l.11-1 .66-3.34.34-1.22v-.55l-.11-1.23-.23-2.89-.22-.89-.22-.44-.11-.33-.34-.34-.11-.11-.22-.11h-.55l-.23.11-.44.22-2.67 2.45-.33.22-.78.33-.56.12h-.89l-.22-.34-.33-.33-.11-.33v-1.56l.11-.33.22-.45.56-.78.11-.44v-1.45l-.34-2.11-.11-.44-.11-.34-1.33-2.44-.11-.22-.23-.12-.55-.22-.22-.11-.34-.33-.22-.11-.89-.45h-.11l-.22-.22-.22-.45-.34-.33-.33-.11-.45-.11h-.66l-.45.11-.55.11-.45.22-.44.34-.23.22-.44.55-.22.45-.22.67-.12.44-.11.67-.11.66v.45l.11.78.23.89.22.55.89.89 2 1.89.22.22.78.45.22.22 1.22 1.45.34.55.22.45.11.44.22 1v1.34l-.11.44-.11.44-.22.56-.45.78-.22.22-.22.11-.22.11-.23.11h-.33l-.44-.11-.23-.11-.33-.22-.22-.22-.34-.67-.22-.44-.11-.34-.67-1.78-.22-.66-.22-.34-1-1-.67-.44-.44-.11-.34-.11h-.44l-.33.11-.34.11h-.22l-.22.22-1 .56-.78.55-.45.22-.44.12-.33.11-.45.11-.33-.11-.56-.11-.33-.12-.34-.11-.22-.22-.33-.44-2.45-4.23-.33-.44-.67-1.67-.44-1.33v-1.12l.11-1.55.22-2.34v-.44l.22-.33 1.67-3.45.11-.33.11-.34v-.77l-.44-2.78-.11-.78-.11-.22-.89-1-1.23-1.67-1.22-1.78-.22-.33-.56-.56-.22-.22-.67-.34-.22-.22-.11-.22-.22-.56-.22-.11-1.12-.77-.22-.12-1.33-.33-1.78-.11-2.22-.45-1.11-.11-.45.11-.44.12-.45.22-.22.22-.33.45-.56 1.55-.22 1.11-.23 1.23-.11 1.77v2.23l-.11.33-.78 1.78-1.11 2.33-.22.56-.33.22-.34.34-.33.22-.67.33-.89.22-.55.11h-.45l-.33-.11-.22-.11-.34-.22-.22-.22-.22-.34-.67-1.44-.11-.45v-.89l.22-.22 1-1 .34-.33.11-.22.11-.23v-.33l-.11-.44-.33-1.45-.67-2.56-.11-.66v-.45l.11-.22.11-.22.11-.34.45-.44.44-.44.22-.12 1.45-.77.22-.23.33-.33.23-.33.22-.34.11-.44.22-.56.11-.66.11-1.67-.11-.67v-.33l-.11-.22-.89-1.34-.55-.55-.34-.23h-.66l-1 .23-.67.44-.11.11-.23.34-.55 1.33-.45.78-1.44 2.11-4 4.78-.11.22-.34.11-.44.11-1.34.23-.55-.11h-.34l-.33-.23-.44-.33-.78-1-.34-.33-.55-.45-.22-.11h-.78l-.22.11-.23.11-.11.22-.11.23-.11.33v4.78l-.11.78-.22 1-.23.67-.22.55-.11.22-.22.11-.33.12h-.67l-.89.22-.67.11h-1.67l-.33.11-.33.11-1.67.89-.78.33-1.22.56-1.22.33-.89.11-3 .89h-.67l-.56-.22-.89-.44-.66-.45-.45-.44-.33-.34-.11-.44-.56-1.22-.22-.23-.45-.44-1.11-.67-1.78-1-1-.66-.66-.45-.67-.55-1.44-1.34-1.67-1.55-2.45-1.89-1.44-1-1.34-1.12-.66-.33-2.67-1-.45-.11h-.44l-.56.11-.66.22-.45.22-.55.34-.23.11-.55.11-.34.22-1 1.11-.55.56-.22.33-.23.45-.11.22v.44l-.44 1.12-.11.44-.34 2.34-.11.55-.22.67-.11.78v.33l-.11.22-.23.11-.22.23-.22.11-.67.11h-.66l-2.89-.45-1.56-.22h-1.78l-.44-.11-.45-.22-.44-.23-.45-.11-.11-.11-.22-.22-.22-.44v-.23l.11-.33v-.22l.22-.22.44-.67 1-1.11.34-.45.78-1.55.22-.45.22-.78.56-1.89.22-1v-.44l-.33-1.78-.23-.44-1-1.23-1.11-1.33-.55-.45-.45-.33-.67-.22-.33-.11-.78-.11-1-.12h-1.89l-.55-.11-.45-.22-.44-.22-1.56-1.11-.33-.45-1.45-1.89-.22-.66-.11-.67-.11-.33.11-1.12.33-1.22.11-.33v-.78l-.11-.33-.22-.67-.11-.33-.11-.23-.34-.33-.33-.33-.33-.11-.34-.23h-.55l-1-.11-.56.11-1.44.11-.56.12h-1.56l-.89-.12-1.33-.33-.89-.11-.55-.22-.34-.22-.11-.23-1.44-2.11-.34-.89-.11-.33-.11-1.34-.44-1-.56-.89-.33-.55-.23-.45-.22-.22-.44-.22-.45-.11-.78-.11h-1.11l-.44.22-.11.33-.11.34v.66l.11.34.22.78.33.55.89 1.11.89 1.23.89 1.77.22.56.11.44.12.45v.55l-.12.45-.22.44-.44.45-.56.33-.78.45-.55.11h-1.23l-.55-.11-.56-.34-.78-.33-.55-.11-.33-.11-.34-.11-.22-.11-.22-.23-.23-.44-.55-.67-.45-.55-.66-.78-.34-.34-.33-.22-.44-.22-.23-.11-.66.11-2.78.44h-1.45l-1.33-.22h-.34l-.33.11-1 .23h-.78l-.55-.12-.67-.11-1.67-.78-.33-.22-.56-.55-.22-.45-.22-.55-.11-.45v-.55l.11-.56.22-.67.56-1.11.66-1.33 1.34-2.34 1-1.78.11-.33.11-.55v-.34l-.11-.89-.22-1-.23-.22-.44-.78-.44-.66-.78-.78-.78-1-.56-.56-.77-.67-.34-.22-.67-.11-.55.11-.67.34-.78.33-.44.44-.45.67-1.11 1.67-.44.55-.34.11-.33.12h-1.11l-.33-.12-.45-.44-.44-.67-.23-.78-.11-.55-.11-1.33v-1.56l.11-.33.23-.45.33-.33.33-.23.56-.33.78-.11h1.33l1 .11 1.67.33.44.12h1l.78-.12.34-.11.55-.22.45-.33.33-.34.22-.66v-1l-.11-.34-.11-.33-.22-.44-.45-.23-.22-.11h-.22l-.34.11-.33.34-.44.33-.23.22-.44.22-.33.12-.45-.12-.67-.22-2.11-1.44-1.78-1.11-.33-.34-.33-.44-.67-.78-.22-.56-.23-.44-.55.22h-.78l-3.33-.11-3.56-.11h-2.22l-5.23-.11-8.89-.11-5.45-.11-9.45-.23-2.89-.11h-.11l-3.67-.11-4-.11-4.56-.22-6.67-.11-1.89-.11h-3.22l-19.79-.56-1.67-.11-6.33-.11-5.89-.11h-5.01l-3.22-.11-8.67-.34h-2.78l-13.12-.22-2.89-.11h-1.77l-7.9-.22-16.78-.56-5.45-.11-1.89-.11h-1.44l-9.56-.22v-.56l-.12-1.89.23-12.23.11-5.55.11-11.45v-3.67l-.11-4 .22-13.01.56-32.46v-1.89l-.12-2.11.78-13.11.11-2.78.12-9.56.11-7.12.22-14 .22-14.68.11-6.55.56-31.35.11-5v-.34l.22-16.11-.22-3.12.22-8.22.11-1.78.78-39.35.11-6.11v-3.56l-.11-1.33.45-11.45.11-2.78.33-27.01.33-14.12v-4.33l.45-21.68.11-9.78.11-2.45.11-14.45.22-17.12.12-3.33.44-17.45 8.89.11 20.35.33 7.78.23 10.45.11h1.22l18.23.44 9.11.11 2.9.11h2.44l3.67.11 9.45.23h3.56l5.11.11 3.56.11 10.56.22h1.66l15.68.34h2.55l2.67.11h1.23l10.67.33 9 .22 3.56.11 3.44.11 7.01.34 4.89.22h.67l2.22-.11 2.33-.22h2.34l.66.11 2.12.44 1.11.11h.89l6 .23 3.89.11 3.89.11 9.45.22 5.34.22h3.89l3.89.23 6.22.11 4.56.11 10.34.11 10.67.22 13.45.22 8 .11h2.23l7.45.12 1.22.11h3.89l11.34.22h3.78l11.89.11h3.89l1.23-1.56.22-.44.22-.67.11-.66.11-.34.11-2.67.11-8 .34-20.67v-6.9l.22-10.33v-2.34l.11-2.78.11-3.44.67-34.68.11-4.23.11-5.11 13.23.22 10.89.34h3.89l7.9.11 7.56.11 12.11.33h2l5.34.22h3.78l14.23.45 1.89.11h2.22l7.23.33h1.22l-.11 7.45-.11 10v11.9l-.67 22.67v4.9l-.11 6.89v5.67l.11.89.33 2.55.11.67v1l-.11 4.11-.11.45-.44 2.11-.11.67-.11.77-.34 21.46 9.01.11 10.89.22h7.23l7.22.11 12.34.11-.22 15.68-.22 6.78-.12 8.55-.33 16.9-.11 4.22-.11 4.34v3.45l-.22 13.78-.11 12v1.67l-.12 2.22v10.45l-.22 4.23H2162l-4.89-.11-4.89-.12h-1.78l-.44-.11-.89-.55-.34-.11h-.33l-1 .11-1.45.11-2.78.44h-.88l-.78.11h-4.78l-2.34-.11-6.67-.11-.44.11-.34.11-.11.12-.11.22v.22l-.11 2.22-.11 4.01-.33 9.55-.11 4.34-.56 14.34-.22 4.78-.45 12.23 6.67.11h3l7.23.33v.33l.11.56v1.11l-.11.67v.89l.22.33v1l-.22.11-.11.11h-.22v.56l.11.56.11.22v.22l-.11.11-.34.78-.22.55-.22.12-.22.11h-.11l-.34-.45-.22-.11h-.22l-.56.67-.11.22-.33.78-.11.89v.33l.11.45.33.22h.33l.78.22.22.11v.34l-.11.11-.22.11-.78.22-.33.22-.22.22-.34.34-.33.66-.22.45-.22.78-.23.55-.22.34-.33.44-1.78 1.89-.34.56-.22.44-.11.56-.11 1.22-.33 1.22-.11.45-.34.55-.78.78-.66.45-.67.33-.44.22-.34.34-.22.33-.11.33v.45l.22.33.67.56.11.11v.44l-.11.22-.22.23h-.45l-.56-.45h-.44l-.33.11-.23.11-.55.89-.22.23h-.23l-.44-.12-.33-.33-.34-.11-.55-.33-.67-.23-.56-.11-.55.23-.56.33-1.44 1.22-1.89 1.78-.23.33-.11.23v.22l.23.33.44.56.33.66.34.78.11 1.11v2l-.22 1.12-.34.66-.33.34-.45.22-.44.22-.44.33-.34.34-.11.33-.67 3-.33 1.11-.22.45-.34 1.33v1.89l-.11.67-.44 1v.44l.11.34.33.55.11.23v2l.12.22h.55l.67-.22h.33l.11.11.11.11.12.22v.56l-.12.66-.22.45-.44.78-.56.66-.22.12h-.45l-.44-.12-.56-.33-.33-.11-.22.11-.11.11-.11.11v.45l.44.66.22.34.34.33.22.22.22.34v.66l-.33.56-.11.33.11.23.11.55.22.56.11.22.34.33.33.23h.56l.11-.56v-.22l-.11-.56v-.11l.11-.33h.11l.22.11h.44l.56.55v.45l-.22 1.11-.11.22-.45.45-.11.11-.11.33-.33 2-.11.45-.23.33-.11.89-.11.56v.33l-.56.78-.77.78-.45.55-.22.33-.11.34v.55l.22.89v.56l-.11.33-.11.34-.34.33-.66.67-.34.33-.66.33-.22.34-.23.33v1.44l.11.23.12.22.22.22.22.11.67.34.44.11.45.11.22.44.11.34v.44l-.11.22v.11l-.22.12h-.45l-.33.11-.22.22-.12.33v.45l.12.22.44.56.44.33.34.11h.22v.78l-.11.33-.11.45-.56.77-.66.67-.23.45-.22.44v1.22l.11.45.22.44v.67l.12.33.11.34.11.33.11.33v.34l-.11.22v.11h-.11l-.45.11h-.78l-1.11-.11-.11.22h-.11l.11.23.22.88.11.23h.12l.44.44.22.11.23.45v.33l-.12.45-.22.55v.22l-.11.34.11.22.11.22.11.22.89.78.23.34.11.11.11.22-.34.55v.56l-.11.11h-.22l-.55.22h-.67l-.34.11-.33.34h-.22l-.67-.11h-.22l-.22.22-.11.22v.45l.11.77v.45l-.11.55-.12.34-.11.33-.33.34-1.11.55v.22l-.11.23.22.22.11.11.22.33v.22l-.33.67-.11.22v.34l.11.33v.22l.33.45.23.11h.11l.22-.11.22-.11.33-.11.56-.12h.67l.11.12.11.11v.55l-.11.23-.22.22-.45.22-.11.22v.67l-.11.11-.22.22h-.45l-.44-.22h-.22l-.12.11.12.22v.34l.11.22v.67l-.11.22-.23.33-.22.22-.22.12v.77l-.11.23-.11.33-.23.11-.33.22-.56.11-.66.12-.78.77h-.89l-.22.11-.11.34-.11.33-.12.45-.33 1.11-.44.89v.66l.33.89v.78l-.11.22-.11.23-.34.44-.11.22v1.23l-.11.22-.22.22-.56.22-.22.11h-.33l-.78-.33h-.22l-.23.11-.11.22-.11.23-.11.11-.33.22-.22.11-.12.11-.22.34-.22.22-.22.11-.78.11h-.89l-2.11-.22h-.89l-.11-.11h-.11v-.45l.33-.33.11-.22-.11-.23h-.22l-1.56-.44-.11.11-.11.11v.11l-.11.45.11.78v1l.11.33.11.22.67.78.44.67.11.22v.44l-.22.23-.22.11-.45.22-.44.22-.67.67-.55.33h-1l-.11.34v.22l.11.22.11.11.22.11.33.11.78.45.22.22.12.22v.45l-.12.33-.22.33-.33.12-.45.11-.66-.11-.56-.34-.44-.33-.34-.34-.22-.11h-.33l-.34.11-.22.12v.44l.11.11.89 1 .22.22.23.45v1l-.23.44-.33.23-.22.11-.34.22-.22.44-.11.34-.11.22-.11.11-.33-.11h-1.12l-.11.11-.22.33-.22.34v.33l-.11.22-.23.12h-.44l-.56-.12-.77-.22-.45-.11-.33.11-.11.11-.11.34v.89l.11.22.11.11h1.33l.34.11.22.11v.45l-.11.22v.44l.11.34.11.22.44.44.11.34.12.33v.89l-.12.22-.11.11-.22.11h-.33l-.45.12-1.33-.12-.89-.11-.44-.11-.45-.22-.33-.11h-.11l-.23.22-.11.22-.11.34v.77l.11.45.22.78v.33l-.11.56v.89l.11.22.23.33.78.67v.55l-.23.23-.89.44-.22.22-.11.11v.34l.22.55.45.56.11.22h.33l.45-.22.33-.22.22-.34.11-.11.11-.11.12-.11h.22l.22.22.44.78.45.56.22.22.22.33.23.11.44.11h.45l.44.12.33.11.34.22-.22.22-.23.11-.22.11h-.22l-.45-.11-.66-.11-1.56 10.34 1.22.44-.11.34v.44l-.11.45-.11.22-.22.33-.23.22h-2l-.11.23v.78l.11.33.67 1 .11.44.11.45v.44l-.11.34-.22.55-.56 1.22-.22.89v.78l.11.34.11.33.23.22.66.78.23.33.11.45v.33l-.11.45v.33l.11.44.11.45v.44l-.11.34-.23.22-.44.33-.56.22-.22.34-.11.33v.22l.11.23.34.11h1l.22.22.22.11.33.33.67.78.67.56.33.22 1 .33.22.23.12.44v.22l-.12.23-.22.66v.67l.11.89v.33l-.11.11-.11.23h-.22l-.11.11-.34-.11h-.22l-.22-.23h-.33l-.78.56-.34.22-.11.22v.34l.11.22.11.11.67.22.11.23v.22l-.11.22-.44.67-.34.33-.22.33-.11.11.11.23.11.22.34.78.33.44.11.34.11.44v.56l-.22.22-.67.89-.22.22h-.56l-.33-.22-.33.11-.22.22-.23.22-.11.45v.22l.22.22.78.34.22.11.23.22.11.22v.22l-.11.23-.11.22-.23.11-.22.22-.11.22v.56l.11.56v.77l-.22 1.34v.44l.11.56v.33l.22.22.22.34.23.33.44.22.45.23.22.11.11.11v.22l-.11.11-.11.22-.67.34-.44.22-.34.22-.33.34-.11.22-.11.55-.11.23-.23.33-.78.67-.22.33-.11.22.11.11v.11l.34.34.55.33h.34l.77.11h.23l.22.11v.34l-.34.55-.22.67v.67l.11.89-.11.22-.22.22-.67.56-.44.55-.45.22-.55.23-.34.11-.22.22v.56l.11.11.23.22.33.11 1 .22.22.11.22.23.23.66.11.67.11.22h.22l.78-.11h.22l.11.11v.56l-.11.11-.33.33-.67.45-.33.22-.11.44v.23l.11.44.11.11.22.11h.45l.33.12.89.66.33.22.34.23.11.33v.56l-.11.22-.23.33-.11.22v.45l.22.11h.56l.22-.22.11-.11.11-.23.12-.22v-.55l.11-.12h.11l.11.12.33.22.11.22.12.33v.89l-.23.45-.22.44-.22.22-.22.12h-.67v.11l-.11.22.11.44v.34l.11.22.11.11.22.11h1.78l.22.11.23.23.22.22.11.44.11.34v.44l-.11.22-.22.23-.22.22v.22l-.12.22.12.11h2.22v.11l.11.23v1.22l.22.33.45.56h.78l.22.11.22.22.22.22v.23l.11.44v1.22l.11.56.45.33.11.11h.22l.11-.22.56-.66.33-.23h.34l.22.11.22.23.11.33.22 1.22.12.23.11.11.33.33.45.22.11.11.22.23.22 1 .22 1.33v.89l-.77.55-.34.34-.33.11-.89.44-.22.23-.23.22-.22.33-.22.11-1.56.67-.22.11-.11.22-.11.34.22.89-.11.33v.22l.11.22.22.34.23.22h.22l.33-.22.45-.34.44-.11h.22l.23.11.11.12v.55l-.11.56-.12.22-.33.33-.67.56-.11.33v.11l.11.45.11.22v.89l-.22.22-.11.22-.22.12-.22.22v.33l.11.33.22.12.11.22v.22l-.11.22-.11.34-.11.55-.22.45-.23.33-.22.22-.22.11-.22.11-.11-.11-.34-.11-.11-.11-.22.11-.11.22-.23.45-.11.22 9.56.11 7.12.11h3.67l8.44.12-.22 10.89v3.33l-.11 6.01-.11 4.22v3.45l.11 3.44v3.34l-.11 4.11v8.89l-.11 4.56-4.89-.11h-2.78l-6.56-.22h-4.11l-.23.22-.33.33-.33.11-.22.11-.34.56-.22.33-.22.11-.67.11-.22.12-.45.44-1 1.56-.33.33-.22.22-.67.34-3.45 1.22-.33.22-.11.11v.34l.11.77v.78l.11.22.34.23.11.33.22 1.78v.33l-.11.11-.22.11-.23.23-.11.22-.22.55v.12l-.11.11h-.11l-.45-.34-.33-.11h-.22l-.23.11-.33.11-.22.34-.67 1.78-.11.11.11.33.22.33.11.23-.11.11v.11l-.11.11-.66.11-.34.22-.44.45-.34.22v.45l-.11.11-.55.44-.11.22-.12.23-.11.22v.11l1.34 2.33.22.45.11.44.22 1 .11.23.23.11.22.11 3 .11.78.22.22.11.11.11v.56l-.11.33-.22.45-2 1.89-.22.33-.34.56-.22.55v.78l.11.45 1.11 2.55.11.11.11.11.56.12.67.33.55.33.34.34h.33l.89-.78.22-.22h.22l.12.11.22.11.22.44.11.45v.77l-.11.34-.44.55-1.12.89-.22.11v.45l.22.22.34.22 1.89 1.23.33.22h.33l2.67.11h1.78l.33.11.34.11.66.45.45.44.44.33.11.12v.22l-.11.22-.22.22-.11.23-.22.11-1.34.33-.22.11v.45l.11.44.11.33.34.23.44.22.22.22.12.33v2.56l.11.22.11.34.11.11.33.22h.22l.23-.11.11-.11.22-.45.56-1.11.11-.11h.44l.89 1 .11.22.34.11h.33l.22.12.11.33.11.22v.78l-.11.22-.11.22-.33.34-.56.55-.11.23-.11.33-.11 2.56v.44l.11.33.11.23.11.11.11.11h.23l.22-.11.89-.45h.11l.22.11.22.23.11.22v1.55h.12l.11.12h.11l.11-.12.44-.88z" stroke-linejoin="round"/></defs><use xlink:href="#f" fill="#9dc8ca" stroke="#9dd7f0" stroke-width="5.76"/><defs><path id="g" d="M2268.94 2316.72l-.78 37.24-.22 15h-.22l-9.23-.22h-2.67l-8.89-.22-2.34-.11h-1.11l-7-.11-3.45-.12h-5.44l-2.34-.11-1.11-.11h-2.67l-6.89-.11h-2l-8.11-.11-1.12-.11-.66-.11-1-.23-.56-.11h-.33l-.67.11-1.22.34-.78.11h-.33l-2.56-.11h-4.67l-6.45-.11h-1.89l-4.11-.11-3.78-.12.11-4.22.33-16.9.12-8.55.22-6.78.22-15.68-12.34-.11-7.22-.11h-7.23l-10.89-.22-9.01-.11.34-21.46.11-.77.11-.67.44-2.11.11-.45.11-4.11v-1l-.11-.67-.33-2.55-.11-.89v-5.67l.11-6.89v-4.9l.67-22.67v-11.9l.11-10 .11-7.45h-1.22l-7.23-.33h-2.22l-1.89-.11-14.23-.45h-3.78l-5.34-.22h-2l-12.11-.33-7.56-.11-7.9-.11h-3.89l-10.89-.34-13.23-.22-.11 5.11-.11 4.23-.67 34.68-.11 3.44-.11 2.78v2.34l-.22 10.33v6.9l-.34 20.67-.11 8-.11 2.67-.11.34-.11.66-.22.67-.22.44-1.23 1.56h-3.89l-11.89-.11h-3.78l-11.34-.22h-3.89l-1.22-.11-7.45-.12h-2.23l-8-.11-13.45-.22-10.67-.22-10.34-.11-4.56-.11 1-52.36.23-13.56.77-38.9.11-4.56.12-6.56.11-7 .22-8.01.11-8.89.11-6.78.22-6.67v-3.89l.56-25.9.33-10 .11-10.12-.11-1.89-.11-1.55-.11-1.34-.33-2.33v-.45l-.22-3.22.11-3 .11-4.89v-7.67l.11-13.9.11-10.44v-3.01l.11-3.44v-2.11l.45-23.24.11-5.89.11-5.78.11-5.89v-2.33l.11-3.45v-3.44l.11-2.12.22-15.11.23-6.89v-6.9l.11-3.55.11-1.89.11-5 .11-9.68v-1l-10.45-.22h-2.67l-4.89-.11h-2.78l-12.22-.11-13.46-.22-9.56-.23h-4.44l-12.9-.33-19.89-.22-3.9-.11-4.11-.11h-.78l-.89-.11h-4.44l-15.45-.34-4.12-.11h-2.11l-10.78-.22.11-3.11.11-7.01.11-6.89.34-26.9.22-6.89v-3.56l.11-6 .11-6 .22-12.01.22-12.11.12-6.01.11-3v-4.89l-5.12-.11-7.44-.11-2.12-.11v-4l-.22-.56.11-.33.11-.33v-1.01l.11-.11.23-.11.55.22h.23l.11-.11v-.22l-.11-.22-.23-.11v-.11l.11-.11h.34l.22-.12h.44l.23-.11v-.11l.22-.55.22-.34.22-.22.78-.78.45-.55.11-.11.11-.56.11-.22.22-.11.45-.12v-.11l.11-.22v-.11h-.11l-.23-.11v-.67h-.11v-.22l.11-.33v-.23l-.11-1.22-.11-3.67v-.22h.22l.78.45h.34l.22-.12.11-.22v-.11l-.11-.11-.22-.33h-.11l.11-.11v-.12l.33-.22v-.33l-.44-.11-.12-.11.12-.34-.12-.22-.44-.44-.22-.23v-.22l.11-.11.11-.11.11.11.22.11.11.11h.23l.33-.22.22-.11v-.67l-.33-.55-.11-.23-.22-.22-.23-.22v-.33l.11-.34v-.11l-.11-.22h-.11l-.55.11h-.12l-.22-.11-.11-.22v-1.12l-.11-.44-32.68-1.22-3.56.44v-1.22l.56-20.68.11-3.55v-1.78l.33-21.12.22-10.45.11-15.67.12-3.34v-1.66l.11-3.67.11-8.34.11-5 .22-5.11.22-15.79.12-8.67.11-3.89 6.67.11 10.11.22 29.9.34 3.67.11h4.12l7.89.22h11.89l3.23.11 2.66.11 3.78.11h.56l8.78.12 2.56.11 13.89.22h3.45l3.56.11 6.89.11 16.23.45.22-12.9.11-9.22.11-2.34v-1.67l.11-9.78v-6.67l.12-6.33.11-3.23.11-3.78v-9.67l.11-4.89v-7.67l.11-4.89.11-1.78v-7.11l.11-2.45v-2.44l.23-7.56 8.89.22 15.56.22 5.11.12 10.57.11 2.44.11h.22l3.78.11h2.23l6.33.22 4 .11h1.78l2 .11 6.9.12 6.11.22h3.89l11.34.33 2.22.11 2-.11h3.56l3.45.11 2-.11h4.67l3.44.11 4.78-.11 1.11.11h5.78l4.78.11h7.12l2.78.11h3.33l1.67.12h2.45l11.45.22 1.22.11h6.33l3.45.11 6.89.11 12.23.11h3.11l2.34.11 8 .11 8.34.23h8.11l5.78.11h10.9l4.22.11h5l6.9.11 1 .11 11.89.22 4.89.12h7.12l5.22.11h2.22l3.89.11h3.23l1.11.11h.78l5.78.11h.33l3.34.11 9.67.11h.78l9.11.22 3.67.12h6.45l5.11.22 6.11-.11.89.11 8.01.11h2.33l1.45.11h7.33l1.12.11h3.11l2.44.11h3.45l1.33-.55-.11.55-.22 22.9v5.11l-.33 24.12-.11 3.9-.12 8.11-.22 13.89v1.45l-.11 14.34.11 1.22v.33l.22.34.12.33.11.22v3.34l-.23 1.11v.33l-.11.45-.22 1.11-.11.44v.34l-.11.66v2.23l-.78 50.13-.33 15.34v6.45l-.11 3.22-.45 26.9-.78 52.35-.89 52.14-.22 18-.44 18.01-.11 2.11v1.67l-.12 12.23v.22l-.33.56-.11.55v.45l.22.66v.56l.11.33v1.22l-.11 6.01-.55 31.9v1.33l-.23 6.23v2.33h-.44l-3.67-.11-4.45-.11h-.22l-4.67-.11-4.11-.11-6.22-.11h-4.34l-2.22-.12h-1.67l-1.45-.11h-7.55l-6.23-.33-.11 5v16.79l-.11 3.22v2.67l-.11 5.44-.11 2.67-.12 10.78-.11.45-.11.44-1 1.89-.11.45-.11.55-.11 1v1h2.22l1.78.12 11 .11 6.45.11 6.34.11 4.22.11 2 .11h4.67l2.11.11h1.34l3.44.11h2.89v2.45l-.33 23.12v.33l-.11 6.78-.11 2.45-.11 8.56v.67l-.11 4.78v.55l.11.67.11.78.11.55.11.34.11.44.11.22.11.22.23.34.66 1.33.23.34v.22l.11.22v.89l-.45 24.01-.44 21.79v.66l-.34 25.12-.11 2.23-.44 25.01-.56 20.34v.33l-.11 2v1l-.33 28.9-.11 6.56-.34 19.57v.33l-.44 23.45v2.45z" stroke-linejoin="round"/></defs><use xlink:href="#g" fill="#9dc8ca" stroke="#9dd7f0" stroke-width="5.76"/><defs><path id="h" d="M1540.16 1103.67v4.67l-.22 14v6.9l-.12 3.55v13.9l-.11 3.11v5.78l-3.67-.11-5.89-.11-6.44-.22-2.23-.12h-4.33l-2-.11-6.45-.11-8.67-.22-4.34-.11-2.89-.11h-3.55l-4.56-.11-2.11-.11-5.45-.12h-5.34l-4.44-.22h-2.12l-2.11-.11-4.33-.11-4.45-.22h-2.78l-5.11-.11h-2.78l-2.22-.12h-4.23l-6.22-.33-8.34-.11-6.45-.11-6.56-.22h-4.33l-4.34-.11h-1.33l-1 .11-4.12-.11-8.56-.12-10.56-.22h-2.22l-9.78-.22h-4.67l-5.89-.11h-1.11l-2.45-.11-6.89-.34-6.89-.22-3.45-.11-13.67-.33-6.56-.23-5.78-.22-12.67-.33-6.9-.33h-.66l-4.67-.12-4.34-.11-11.45-.22-6.11-.22.11-1v-4.23l.11-3.11v-6.78l.11-2.44.11-9.01.34-14.67.22-7v-3.89l-10.23-.34-3.78-.11-22.67-.67-3.78-.11-5.34-.22h-1.56v1.45l-.11 6.89-.33 18.01-.22 14.11-.11 8.45-.11 3.78h-3.34l-5.89-.22-6.78-.11-2.23-.12-4.11-.11-6.67-.11h-.66l-1.56.11h-3.78l-4.78-.11h-4.67v-3.55l.22-6.45.23-10.45.11-5.22.11-5.34.22-7.78.11-3 .11-2.56.11-8.11-6-.11-9.45-.12-8-.11h-4.67l-10.12-.11h-8.56l-16.89-.22-10.34-.22-15.56-.22-3.78-.12.33-13.45.22-6.44v-7.45l.11-6.23.11-1.44.12-9.89.11-5.67.11-1.78.11-.89.22-8.34.11-8.78.11-5.44.12-1.34v-6.89l.22-7.67.11-9.67v-3.34l.11-7.22.22-17.79.34-16.34.22-11.11-10.01-.11h-1.66l-1.45-.11h-1.11l-9.12-.11-1.22.11-6.56-.23h-3.11l-5.67-.11h-6.78l-10.67-.22-10.45-.11-2.45-.11-9.67-.22-10.56-.11-3.11-.12-.33 20.01-.23 11.45-.22 5.89v6.67l-.22 8.23-3.11-.11-4.12-.11-4.11-.23-4.11-.22-8.45-.44-8.12-.45-15.11-.67-1.56-.11-10.01-.33.56-.89.33-.22.23-.11.22-.67.22-1v-.67l.22-.55.45-1.23.11-.44.11-.22.45-.56.55-1.33.11-.22.34-1.01.11-.33v-.78l.44-1 .11-.22.34-.22.77-.45.23-.11.55-.33.11-.11.11-.34.23-.77-.11-.67-.12-.22-.11-.11h-.44v-.34l.44-.89.45-1.55.11-.56.22-.33.11-.22.34-.23.77-.33 1.12-1 .22-.22.67-1 .11-.11-.11-.89.11-1.12.11-.88.22-.89v-.67l-.11-.33-.67-1.34-.22-.89-1-1.89-.11-.22-.45-.33-.44-.34-.56-.55-.44-.56-.34-.33-.22-.33-.11-.34v-.22l.11-.78.22-.55v-.12l.45-.22.33-.22h.67l1.67.11h.66l.34-.11.33-.11.67-.78.67-.56.66-.66.11-.22.23-.23.44-1v-.11l.11-.44-.11-.34-.11-.33-.11-.11-.11-.33v-.67l.11-.67.22-.33h.22l.11.11.23.33.44.89.33.34.23.11h.33l.22-.11.11-.12.67-.88.22-.34-.11-.44.11-.23.11-.33.45-.78.11-.22.33-1.33v-.45l-.11-.33v-.22l-.22-.23-.11-.11-.11-.11v-.22l-.11-.45-.34-1.66v-.45l.11-.66v-.34l-.11-.55v-.45l-25.23-1-2.78-.11.11-3.67.33-10.89.45-24.01.11-4.89.11-4.89.11-3.89.11-10.12.23-10.11.11-5.78.22-5.23v-5l.22-10 .11-4.12v-.66l13.56.33h2.12l2.22.11h2.78l12.67.22 26.79.56 3.67.11 6.45.11 36.57.78h1l7.45.11h1.22l9.34.22 4.56.11 23.01.45 5.11.11 4.23.11 30.45.67 3.78.11 3.34.11h.22l8.45.11 4.89.22 18.79.34 14.56.33 8.56.22 6.45.11 3.44.12 2.56.11 26.79.55h2.78l8.89.22 34.35.78 6.11.22 23.01.34 17.68.22h.44l5.78.22h.34l38.46.78h.78l7.11.11 29.02.67 5.89.22 8.33.11.45.11h3.56l3.33.12 19.68.55 17.23.33 6.45.12h.55l8.78.22 14.23.44 16.56.45 6.56.11h1l15.79.22 23.79.45 7.67.22v2.33l-.45 17.56-.22 6.9-.11 3.44-.44 17.34-.12 4.23v2.66l-.33 13.68-.33 9-.23 11.34-.33 10.22-.11 5.78v6.67l-.22 5.78-.34 13.68-.11 6.89-.33 19.45-.11 5.22-.22 11.34-.23 7.45-.11 5.89v3.45l-.22 10.45-.22 6.89v1.66l-.11 8.56-.23 7.01-.11 3.33-.11 7v3.45l-.11 6.89-.22 8.78-.11 7.45z" stroke-linejoin="round"/></defs><use xlink:href="#h" fill="#9dc8ca" stroke="#9dd7f0" stroke-width="5.76"/><defs><path id="i" d="M965.89 2379.74h-1.44l-1.78-.11-6.23-1-.89-.11-4.89-.11h-.89l-40.02-.89h-1.11l-22.34-.44-24.46-.56h-.44l-8.34-.33-8.22-.34-30.35-.55-3.67-.11-18.34-.56-7.12-.22-17.78-.45-4.56-.11h-1.22l-41.13-1h-2l-44.69-1.11-11.12-.22-12-.33h-.11l-19.57-.45-3.89-.11-15.67-.33-6.56-.23-6.34-.11-17.12.22.67-31.45.56-20.57-.12-1 .34-9.11.11-11.78.33-9.67h.67l3.89.11 5.89-.11 17.68.11h10.78l6.22.11 8.23.11 7.34.11 3.89.11h7.33l11.68.22 3 .11 5.56.12.22-13.12.11-3.45.11-7.56.33-16.78.12-11.45v-2.44l.11-4.12v-5.67l.33-10.11v-2l.11-7.78v-1l.11-2.89.22-6.9.12-9.55.22-10.68.11-8.44.33-17.12.11-8.56.12-7.78h-2.23l-9.56-.11-6.45-.23h-5.33l-.89 52.47-12.12-.22-7.45-.11-3.89-.11-.44 27.12-.33 21.01-.12 4.22H607.5l-5.11.11-2.78-.11h-8.34l-1.66.11-3.12-.11h-1.66l.22-10.11v-1l1-41.13v-1.45l.44-13.89.34-14.45.55-22.57 1.11-51.91-2.22-.11.22-4 .45-14.23.11-7.89.67-26.12.55-18.79.11-7.33.45-18.12.22-8.12.33-18.89.67-33.46.45-18.79.11-7.22.66-26.23.11-4.23v-.11l1.01-47.8.11-.11 4.22.22 7.34.12 3.11.11 16.12.55 15.67.45 7.23.11 3.89.11 25.34.33 10.56.23 6.9.22 9.11.22 4 .11 11.68.45 15.22.33.23-12.23v-4.11l.33-20.12v-3.45l.11-12.89 11.34.22 8.67.22h4.67l4 .23 8.67.11 7.67.22h1.89l12.56.22 27.68.56 6.45.11-.11 4.56v5.89l-.11 2.11v2.33l-.11 6.9v7l-.11 10.45-.12 3.44v7.12l-.11 2.11v.78h4.23l8.67.11 4.67.11 10 .11 7.78.11h10.79v2.34l-.11 7.33v6.78l-.12 3.45v1.44l44.47.78-.11.34-.34.33-.22.33-.11.34-.22 1-.22.22-.45.44-.33.11-.11.23-.11.11v.33l.22.33.11.34v.33l-.11.22v.34l-.11.44v.11l-.23.11-.44.12-.33.22-.23.11-.11.11h-.22l-1-.33h-.44l-.23.11-.22.22-.11.11h-1.56l-.55.22-.22.12-.34.22-.67.44-.22.22-.22.34-.11.44-.11.11-.22.23-.23.44-.22 1-.11 1.33v.23l-.11.22-.11.11-.23.11-.11-.11-.22-.11-.33-1.22-.11-.23-.11-.22-.56-.33-.56-.67-.22-.33-.11-.11h-.22l-.11.22-.11.11-.12.22v.67l-.11.22-.11.11-.11.11h-.11l-.22-.11-.67.11-.44.23-.12-.11h-.11l-.44-.78-.11-.22v-.56l.11-.22.44-.56.23-.55.33-1v-.34l-.11-.33-.11-.11-.11-.23-.23-.11-.44.11-1 .34-.78.33h-.22l-.34-.22v-.45l.12-.11v-.11l.22-.22.22-.11-.11-.45v-.22l-.11-1.11-.11-.22-.11-.11-.23-.11h-.11l-.55.11-.45.33h-.22l-.44.11-.23-.11-.78-.33h-.22l-.33.11-.22.11-.11.22-.23.33v.45l-.11.22h-.11l-.11.11h-.11l.11.56-.11.11-.22.22v1l-.12.11-.11.23v.44l-.33.56v.44l.22.11.11.11v1.34l.11.22.12.22.11.11h.22l.44-.22h.34l.11.11.11.34.11.33v.33l.11.11.56.34.22.22v.33l-.11.34-.89 1.89-.22.33-.11.22-.23.11h-.22l-.11-.11-.89-.55-.22-.12h-.22l-.11.12v1.44l.11.11.44.56.22.55.11.34.34 1.55v.78l-.11.67-.11.44-.34.56-.89 1.33-.22.34-.22.77-.22.56-.34 1.22v1.34l.78 2.22.11.89v1.22l-.11.11-.67.78-.22.33-.33.78-.34.45-.22.66.34.89-.34 2.78-.55 2-.56.67-.67.44-.77.23h-.67l-1-.23-.89-.22-.78.22-1 .56-.67.78-.11.89-.11 1.22.33 3.45-.11 1-1.22 3.66-2.33 7.23-.12.67v.55l.23 1.11.33.78.78 1.78.67 1.11.11.56-.11.44-.12.45-2.89 2.44-2.22 1.56-1.78 1.11-3.11.89-.56.56-.55.66-.11.34-.11.44.11 1 .66 2.11 1.23 1.67.78 1.22.88.89h.56l.67-.11.44-.33 1.67-2.34.44-.55.56-.34 1.11-.33.89-.11.89.11.56.22.55.56.22.67.12.44-.12 1.45-.11.77-.11 1.34.34 2.67v1.66l-.23 3.45-.44 2.56-.11 1.22v.89l.33.89 1 1.66.22.56.45 2.89.11.44.33.67 1.11 1.56.45.55 1.11.56 4.67 1.89 1.56 1 .55.67.33.66.12.78-.12.67-.55 1.67-.11.55v.56l.33 1 .89 1 1.56 1.22.89.22.89-.22 1.11-.67.66-.77 1.23-2.78 1.89-3.67.66-.89.78-.56.89-.33h1.22l.45.11.55.45.89 1 .67 1 .45 1.44v2.22l-.12.89-.22.67-.55.78-1.56 1.44-2 2.45-1.45 2.44-.22.78-.22 1.78-.11 1.45.78 3.44.11.67v.44l-.11.45-.78.78-.89.66-1.34.78-1.55 1-1 1.45-1.45 2.11-.78 1.89-1.22 5.22-.78 3.89v.56l.23 1.67v.44l-.12.45-.22.44-.44.44-.89.78-1.89.89-2.34.78-.44.11h-.56l-2.33-.55h-.45l-.33.22-.22.22-.45 1.56-.22.77-.78 1.34-1.11 3.44-.11.45v.89l.11.33.22.89.34.78.78 1.33.77 1.67.89 1.33.45.34.44.11 3.45-.11.67.11.11.22 1 1.78.33.67.45.33 2.11 1.67.89.78.44.55.56.89.11.56.22.89v2.55l-.55 1-.67 1.11-.22.45-.23.44-1.33 3.67-.44.89-.23.45-.66.55-.34.45-.33.44-.56 1.67-.44 1.33v.67l-.11 1 .22.67.33 1 .45.77.55 1 .23.67.77 3.34.23.89.89 1.66.33 1.23.44 3.55.23 1.78v1.67l-.56 3.56v1.22l.22.78 1.23 3.33.22.78.11.78-.33 1.55-.23.78-2.22 3-1.45 1.89-1.11 2.45-.11.33v.78l.22.44.45.89.89 1 1.22 1 .45.23.66.55.22.22.34.45.11.44.22.45.67.55.89.56.33.22 2.22.56.34.11.33.22 3.11 2.45.34.22.22.22.11.33v.45l-.11.56-.44.77-1.01 1.23-1.11 1.22-1.55 1-.23.22-.22.33-.55 1.56-.89 2-.22 1.11-.12.23-.22.55-2.22 2.34-.34.44-.11.45-.66 2-.45.77-1.33 1-2 2.01-1.45 1-2.89.66-.33.22-.34.23-.22.33-1.22 2.45v.33l-.11.67.11.33.11.56.78 1.66.55 1.11 1.34 1.78.89 1.23.55 1 .23 1 .11.89v.77l-1.56 6.23-.67 2.11-.89 2.45-.11.44v.67l.34 1 .22.44.56.56 1 .55.44.12.89.11h.44l1.56-1.23 2.22-1.11.67-.22h1l.56.11.44.22.67.78.44.67.23.78v2.89l-.34 2.78-.44 1.11-.34.44-1.89 2.22-1.55 2.23-1 1.89v.89l.22.44 1.56 1.45.89.77 1 .45 1 .22.66.34.45.33 1.22 1.55 2.67 1.67.22.34.11.22.22 1.22.23.67.22.78.22.22.89.78.45.44.33.56.44 1.44v.78l-.22.33-3.22 1.67-1.34 1.33-.89.78-1.33 1.23-1 1.11-.78 1.55-.44 1.23-.11.66v.78l.22.56.22.77.33.56.23.56.11.66.11.89.11 1.23.22 1.22v1l-.11.33-.11.34-.56.55-2 1.22-.44.45-.22.55v.78l.11.56.22.44.44.89 4.01 3.67.11.33.33 1.34.22.33.67.89.22.22.45.22.33.34.78.55.67.23.66.22.67.11.89.33.78.23.44.33.56.11 1.22.22.44.11.56.11.33-.11.45-.22 1.33-.33.89-.11.56.11.66.22 1.01.44.55.23.56.44 1.11 1.22 1.78 3.01.66 1.11 1.23 2.89.78 1.44.55 1 .45.78.22.78.33 1.67.22 1.89.23 1 .22.44.33.33.67.23h1l1.22-.23h.56l.55.34.56.22.33.22.67.11.67-.22.66-.11h.45l.78.33.55.34.67.33.56.22 1.66-.11.67.22 1.56.89.55.45.67.44.67.11.55.34.67.44.55.34.45.33.55.22 1.12.11h.66l.45.34.55.44.45.33.55.78.34.67.11.44v.56l-.33 1.11-1 1.45-.67 2-.56 1.11-.33.44v.45l.22.44v1.34l-.33 1.11-.34.66-1.33 2.12-.33.66-.11.78-.12.78v2.89l.12 1 .11.56.66 1.22.67.55h.11l.45.12.44.22.89.78.67.44.55.78.56.55.67.67.11.33v1.56l-.34 1.33v1.34l.23.78.44.77.56.45.55.33 2 1 7.01 2.67.66.11.34.11.22.23.22.77.11.45v1.22l.34.67.66 1.11.11.67-.11 1.89.11.66.12.34.33.44.44.45.34.44.22.67.11 1.22v1l.11.89.34.56.44.44.56.22h.66l1-.11.67.22 1 1.12.56.44.33.56v.44l-.11.78-.11.55-.22.45-.67.67-1.67 1.44-1.11 1-.89.78-.33.11h-.34l-.89-.22-.77-.22-.67-.12-.45.23-.33.33-.22.33-.34.89-1.11 3.89-.33 1-.22 1-.11.78.22 1.11.55 1.89.23 1.34-.11.78-.23 1-.44 1-.56.89-.33.22-.67.33-.78.22h-1l-1.33.56-.67.44-.78.89-.55 1-1 2.67-.78 1-.22.45-.11.55.11.67 1.33 1.78.11.11.23-.11 1.88-.89.67-.22h.78l1.22.77.67.56 1 .78.33.33.23.56v.89l.44 1.33.67 1 1.22.89 1.78 1.67.44.78.11.66.23 1v2.45l.44 1.78.34 1.11.11.44v.56l-.23.78-.22.66v.56l.11.67.45.77 1.11.78 1.33.89 1.11 1.56 1.45 1.33 1.78 1.67.89.89.44.89 1.23 1.22.55.33.45.34 1.89 2.22.55.67.33 1 1.12 2.67.33.44.56.45.44.44.45 1.11.77 1.11.34.67.22.67.11.66-.22.78-.22.78-.89 1.78-.34 1-.33 1.22-.22.45-.34.44-.55.56-.56.77-1 2.89-.22 1.56v.78l.22 1.33.67 2.78v.89l.55 2.34h-.22l-5.89-.12h-1.78z" stroke-linejoin="round"/></defs><use xlink:href="#i" fill="#6bacaf" stroke="#6bb4d2" stroke-width="5.76"/><defs><path id="j" d="M580.38 1292.64l-8.89-.23-14.68-.44-6.89-.11-10.56-.34-8.45-.22-20.34-.44h-1.56l-22.67-.78-8.12-.33-14.56-.23-14.79-.33h-1.77l-5.34-.22h-1.33l-10.79-.34-5.78-.11-6.78-.11-21.56-.44-8.01-.22-17.34-.56-23.68-.56-10.67-.44-11.89-.45.11-6.55.33-11.9.11-6.89.23-6.22.33-15.9.44-1.22.12-.45.11-2.11-.45-.89.11-5.78.34-14.45.33-13.34.33-18.78.34-5.78.22-2.67.89-19.45.33-23.9.11-2.56.34-9.34.44-40.9.11-4.45.22-10.22.12-5.12.11-2.55v-2.45l.22-10.22.22-10.12.22-7.11.23-7.45.11-4.56v-4.67l.11-2.89.11-3.44v-1.23l.11-1.89.22-7.44.11-5.12v-5.33l.23-8.34.44-18.23.89-34.57 1.11-52.35.34-14.23v-.45l.66-27.9.11-9.22-.22-.45-.11-.11-13.12-.33-.11-5.45.78-30.01.56-16.45 26.9.78 18.67.55 17.12.23 16.68.33 13.34.33 13.67.34 4.22.11 28.79.66 20.01.34 12.79.22 14.56.33 47.02 1.12 10.12.22 36.35 1-1.11 52.24 9.78.22 3.11.56-1.11 51.35v1.67l-.67 22.01-.11 3.22v.45l-.11.22-.11.22-.11.11-.11 26.35.11 1.22-.34 7.45-.11 1.44.11.34.34.33-.67 27.12-.33 13.67-.78 27.24v2.33l-.45 15.34-.22 7.67-1.11 52.24v.23l-.22 8-.34 15.01-.22 11-.22 9.67-.11 8.45h3.11l18.12.22 10 .22h3.12l7.45.11 4.33.12 10.23.11 3.89.11 9.89.11 16.9.33h5.78l-.67.89-.22.67-.45 1.44-1.33 5.01-.44 1.11-.11.33-.34.33-1.22 1.78-.45.45-.44.66-.22.34-.11.22-.23.11-.55.22-.67.34-.44.33-.89.56-.11.22v.33l-.12 1-.11.67-.22.44-.33.56-.67.56-1.22 1.22-.56.55-.55.78-.23.34-.11.44-.22.67-.44 1.55-.34.45-.22.22-.22.11h-.22l-.23-.11-.11-.22-.33-.45-.22-.44-.45-.56-.44-.33-.34-.11-2.11-.78-.55-.11-.56.11-.33.11-.34.11-.44.45-.34.44-.11.22-.33.89-.44.89-.12.45v.44l-.11.34v.55l.34 2.56v1.44l-.23 1.11-.33 1.56-.22 1.11v1.34l.22.89.33.89.23.44.44.67.89.89.33.44.11.22.12.23.11.22v.22l-.11.22-.23.67-.22.55-.22.23-.22.44-.23.22-.33.12-.44.33-.34.11-.66.22-.89.34h-.11l-.67.33-.89.55-.22.12-.23.44v.22l-.11.78v.89l-.22.44-1.67 2.45-.22.33-.22.23-.78.11-.67.33-.11.22-3.11-.11-7.23-.11-7.44-.22-7.34-.11h-3.67l-11.11-.23h-7.56l-7.45-.11h-3.56l-5.45-.11-.11 2.67-1.11 49.69v1.44l-.33 9.67-.22 10.79v.33l-.78 30.12-.67-.11-9.34-.22-12.23-.22h-1.44z" stroke-linejoin="round"/></defs><use xlink:href="#j" fill="#6bacaf" stroke="#6bb4d2" stroke-width="5.76"/><defs><path id="k" d="M1504.7 2389.97l-7.01-.11-24.23-.67h-2.56l-1-.11-5.33.11-40.47-.78.11-1.66v-4.34l.12-3.44.11-4.23.11-5.89.11-6.78.22-6 .11-7.89.23-8.12.11-5.67.11-4 .11-2.78.22-6.78.33-15 .12-1.78.11-2.45.66-32.12.23-6.12v-1.11l.11-7.33.11-3.01.11-6.22.56-24.23v-4.56l.11-7 .33-10.12v-2.67l.11-4.78.33-9.55.23-9.56.22-9.67.22-11.79v-4.11l.45-25.01.22-21.56-.11-1.89v-.56l-.56-3 11.01.11 6 .11h8.45l17.01.11 3.33.11h.45l13.11.11 3.23.12h3.22l3.89.11h4.11l6.23.11h4.89l8 .11.11-1.11.12-1 .11-12.67-.11-4.78.11-6.34v-26.46l.11-5.44.11-7.12.11-14.22.22-11.12.11-10.34.23-4.44-41.02-.23-5.56-.11-.22-.22h-.23l-.55-.11h-.45l-2.22.11h-33.9l-7.56.11h-1.23l.34-16.45v-11.89l.11-10.45.11-1.11v-1.45l.11-4.33v-6.67h2.45l2.78-.11h4l3.67-.11 6.78-.12h1.55l1.89-.11h1l1.56-.44 1.11-.22.56.11 1.44.44.34.11h.22l.89.11h14.34l2.55.12.67-.12 7.45.23 4.22.11 4.01.11h2.89l3.78.11 15 .33 3.56.11 4.56.12 18.12.33 7.67.11 20.9.22 10.78.11h2.55l13.12.11h7.01l7.22.12 3.34.11 3.44.11h2.45l9.45.22 4.78.11 9.67.11 7.33.11 4.78.12 8.56.22 12.79.44 4.22.11 6.89.34 10.9.33 12 .56 3.56-.12 9.12.12 8.33.11h5.78l5.89.11 13.79.22.11-8.34.11-3.22.11-3.78v-2.44l.11-7.23v-2.78l.11-4.67v-4l.12-4.11v-5.67l.11-5.45v-.66l.22-10.23.11-3.45v-7.22l.11-5.56.11-8 .11-6.56.12-10.23v-1l.22-11.34.11-1.77.11-5.45.11-7.45 3.56-.44 32.68 1.22.11.44v1.12l.11.22.22.11h.12l.55-.11h.11l.11.22v.11l-.11.34v.33l.23.22.22.22.11.23.33.55v.67l-.22.11-.33.22h-.23l-.11-.11-.22-.11-.11-.11-.11.11-.11.11v.22l.22.23.44.44.12.22-.12.34.12.11.44.11v.33l-.33.22v.12l-.11.11h.11l.22.33.11.11v.11l-.11.22-.22.12h-.34l-.78-.45h-.22v.22l.11 3.67.11 1.22v.23l-.11.33v.22h.11v.67l.23.11h.11v.11l-.11.22v.11l-.45.12-.22.11-.11.22-.11.56-.11.11-.45.55-.78.78-.22.22-.22.34-.22.55v.11l-.23.11h-.44l-.22.12h-.34l-.11.11v.11l.23.11.11.22v.22l-.11.11h-.23l-.55-.22-.23.11-.11.11v1.01l-.11.33-.11.33.22.56v4l2.12.11 7.44.11 5.12.11v4.89l-.11 3-.12 6.01-.22 12.11-.22 12.01-.11 6-.11 6v3.56l-.22 6.89-.34 26.9-.11 6.89-.11 7.01-.11 3.11 10.78.22h2.11l4.12.11 15.45.34h4.44l.89.11h.78l4.11.11 3.9.11 19.89.22 12.9.33h4.44l9.56.23 13.46.22 12.22.11h2.78l4.89.11h2.67l10.45.22v1l-.11 9.68-.11 5-.11 1.89-.11 3.55v6.9l-.23 6.89-.22 15.11-.11 2.12v3.44l-.11 3.45v2.33l-.11 5.89-.11 5.78-.11 5.89-.45 23.24v2.11l-.11 3.44v3.01l-.11 10.44-.11 13.9v7.67l-.11 4.89-.11 3 .22 3.22v.45l.33 2.33.11 1.34.11 1.55.11 1.89-.11 10.12-.33 10-.56 25.9v3.89l-.22 6.67-.11 6.78-.11 8.89-.22 8.01-.11 7-.12 6.56-.11 4.56-.77 38.9-.23 13.56-1 52.36-6.22-.11-3.89-.23h-3.89l-5.34-.22-9.45-.22-3.89-.11-3.89-.11-6-.23h-.89l-1.11-.11-2.12-.44-.66-.11h-2.34l-2.33.22-2.22.11h-.67l-4.89-.22-7.01-.34-3.44-.11-3.56-.11-9-.22-10.67-.33h-1.23l-2.67-.11h-2.55l-15.68-.34h-1.66l-10.56-.22-3.56-.11-5.11-.11h-3.56l-9.45-.23-3.67-.11h-2.44l-2.9-.11-9.11-.11-18.23-.44h-1.22l-10.45-.11-7.78-.23-20.35-.33-8.89-.11-.44 17.45-.12 3.33-.22 17.12-.11 14.45-.11 2.45-.11 9.78-.45 21.68v.89h-2.33l-21.68-.34-1.44-.11-20.79-.44h-.44l-32.24-.56-8.34-.11h-.11l-2.78-.11h-3.45l-5.11-.22-17.01-.45h-.11l-3.78-.11-16.34-.22-10.11-.22-5.01-.12-12.45-.22-23.79-.44-8.56.11-1.55.22h-2.11z" stroke-linejoin="round"/></defs><use xlink:href="#k" fill="#6bacaf" stroke="#6bb4d2" stroke-width="5.76"/><defs><path id="l" d="M742.45 825l-15.78-.33-19.56-.45-9.01-.33h-1.44l-1.23-.11-11.56-.22h-2.67l-.89-.11-19.89-.34-11.34-.44h-.45l-33.79-.78-3.11-.56-9.78-.22 1.11-52.24.11-8.45.67-27.79.22-15.78.11-.45v-8.56l.33-13.11v-1.89l.45-28.13 1-52.57.89-52.58.11-10.89.55-24.46.45-17 .11-4.34.33-14 .56-33.8.11-13.89.56-29.9.22-8.89.11-5.56.89-46.69.78-34.9.11-5.11.22-10.45-.11-2.11.11-5.56v-.56l.11-8.22.11-6.01.22-21.12.45-10.11.33-42.13v-11.67l.11-4 .45-19.12.55-29.01.23-4.34v-1.44l.55-21.68.78-25.23.33-12.34v-1.67l.23-8.33.22-7.78v-3.78l.22-9.56.22-9.01 6.45.23 4 .11 3.67.11h2l2.56.11 8.22.11 5.12.11 15.12.22 8.11.11h1.22l2.78.12h2.56l13.78.33 4.56.22 13.45.34h.89l15.01.33 15.01.33 16.11.22 3.01.12 5.44.11 5.45.11 10.78.22 10.9.11 10.89.33h1.22l5.45.12h5.45l10.78.33h1.44l15.23.33 5.12.11 3 .12h1.67l24.67.55 12.45.33 10.68.23h2.89l2.22.11 2.67.11 6.67.22 5.67.22 7.11.23 11.34.44h4l1.11.11 2.34.11 3.44.11 6.9.23 7.55.22 7.45.33 15.12.45 3.67.22 4.89.11 1.45.11 19.45.67 9.34.33 9.22.22 2.34.12 5.11.11 3.67.11 7.22.11 8.79.11 1.66.11h2.78l1.56.11 9.23.11 5 .11h2.11l5.22.12 6.34.11 11.67.22 3.67.11 6.12.11 13.67.22h3.44l20.35.23 8 .11 12.34.11 2.89.11h1.45l4.66.11 14.01.33 16.56.56h2.23l2.44.11 6.12.11v1.45l-.23 5.22-.22 5.11-.33 10.34-.56 20.68-.33 9.56-.22 4.67v3.22l-.23 9.78-.22 9.23v.77l-.22 14.34-.22 10.23-.22 16.34-.12 9.34-.11 7.44-.11 7.56-.22 11.56v3.34l-.22 5.78-.56 16.34-.11 4.56-.22 4.44v3.23l-.22 5.89-.23 8.67-.11 7.44-.11 5.34-.11 9.78v4.34l-.11 7.67-.22 9v8.78l-.23 12.78-.11 7.79-.22 1.44-.11 4.89v1.67l.22 3-.11 4v1.11l-4-5-2-1.11-1.78-.33-9.34-.56-5.45-.78-1.89-1-2.11-2.55-2.22-1.45-3.22-1.33-5.67-1.23-2.56.45-.56 1.55-1.89 2.01-1.55.77h-3.45l-5.78-1.44-.89.22-.22-.11-.11-.11-2.34.11-7.11.44-4.56.89-4.33 1.89-2.67 1.67-5.89 5.78-5.45 4.89-3.45 3.45-1.11 1.89-.78 2.55-2.89 5.23-5 5.11-6.67 5.67-5 3.67-2.11 2.22-1.23 1.78-2.11 2.11-.11.11-6.45 3.67-3.11 1-5.67.45-6 .89-5.89.11-1.45-.34-6.56-2.55-2.77-.89-5.45-.89-2.78-.11-11.45 1.44-.67.45-.22.66-10.89 5.78-5.01 1.12-3.22.11-1.89-.45-3-1.78-2.22-2.33-1.45-1.89-2.89-2.56-2.45-1.33-2.77-.56-6.9 1-11.22-3.44-4.89-2.11-.45-.45v2.11l-.11 3.78-.56 24.46-.44 21.45-.33 18.34-.12 6.23-.11 6.55-.89 30.57-.11 3.22-.55 4.34-.67 3.67-.22 1.33v.11l-.34 1.45.12.67.11.55.11.67.22 1 .11.44.22 1.11.45 1.34.33 1.22v.33l.11.45-.22 20.56-.44 31.35v.33l-.78 26.12-.45 26.68-.78 33.79-.44 18.23-.44 26.35-.34 17.23v8.67l-.55 26.45-.56 26.01-.56 19.79v.55l-.22 32.24-26.79-.56-12.67-.22h-2.78l-2.22-.11h-2.12l-13.56-.33-7.89-.11h-.44l-.56-.23-1-.11-1.89-.11-3.11.11h-4.12l-2.44-.11-10.45-.22h-.56l-25.56-.34-11.01-.33-3-.11-8.67-.11-21.79-.45-13.12-.11h-3.11l-4.78-.11-3.78-.11-9.78-.22-6.56-.22-18.56-.23-10.34-.22h-1.34z" stroke-linejoin="round"/></defs><use xlink:href="#l" fill="#6bacaf" stroke="#6bb4d2" stroke-width="5.76"/><defs><path id="m" d="M456.21 2367.96h-.22l-.33-.11-14.9-.44-23.12-.56h-1.11l-10.01-.22-11.89-.34h-.67l-29.24-.77-2.33-.12-29.35-.77-6.67-.23-24.34-.66-11.34-.22-13.78-.45-5.23-.11-12-.33-9.79-.34-.66-.11-.89-1.33-3-3.45-3.01-2.89-2-3.78-.22-1.44-.11-3.12-.22-6.66-.45-3.01-.44-1.77-1.34-3.45-.44-6.22-.56-2.34-1.11-2.56v-.66l-1.33-3.56-1.56-7-.78-1.34-1.55-3.66-.45-2.01-.11-8.11-1-5.34.67-9.78v-5.11l-.78-2.45-1-3.22-3-6.56-1-2.33-1.45-6.45-.66-1.89-.45-1.22-.78-1.33.34-.34 12.11-14.12 7.23-8.44h.22l.89-.23 1.11 1.56 2 1.78 1.78 3 .11 1.22.45.23.55.77.34.34.44.22.78.56.22.11h.67l1.11-.45.78-.33 2.78-.22 1.55-.78.56-1.22 1.67-2.78 2.11-.45.78-.22 1.78-.45 2.89-1.44h.89l8.44-.33 4.9-.34 2.22.23h6.56l16.56.22.56-18.79.22-9.56.55-17.12.12-6.33 8.89-.11h12l23.46.11 5.45.22 41.35 1.22.22-6.55.11-7.12.67-31.79.11-7.11.22-6.34.34-12.89v-3.67l.11-3.34-.11-2.11.11-6.22.22-6.56.22-9.34h-.89l-5.33-.11-7.78-.22h-.89l-2.78-.11h-.89l-2-.11h-3.12v-4.23h-3.11l-1.78-.11h-3.89l-1.78-.11h-3.11l-.11 4.11-5-.11h-1.67l-2.56-.11h-.55l-6.01-.22h-1.77l-12.34-.34-6.23-.11-6.67-.22-6.56-.11-2.11-.11-5.45-.11-4-.11-6.22-.23h-1l-6.78-.11-4.23-.11-3.22-.11-5.56-.11-6.78-.22h-1.45l-.33.11-.33.11-.34.11-.33.22-.33.23-.34.22-.33.33-.33.22-.23.34-.33.44-.22.33-.22.45-.23.33-.11.34v.22l-.11.55-.11.56v1l-.11 1.78v1.78l-.11 5-.11 4.78-.23 6.22-.11 7.45-.11 3.89-.11 3.11-.11 6.23-.11 3.11v.67l-.11.67-.11.55v.33l-.11.34-.34 1-.22.55-.22.45-.34.55-.33.45-.33.44-.67.56-.45.44-.77.45-.67.44-1.45.89-1.77 1-4.56 2.67-3.11 1.89-3.56 2.11-2.11 1.23-2.45 1.44-1.78 1.11-5.11 3-2.67 1.67-3.22 1.89-2.78 1.67-4.89 2.89-2.23 1.33-1 .56-2.22 1.22-5.22 3.11-.12.11-1.33.89-1.33.89-1.23 1-2.89 2.11-3.78 2.89-.22.12-.11.11-.11.11-.22.11-.23.22 1.23-5.67.11-.44.78-3.45.11-3.78v-.78l-.11-1.44v-1.22l-.23-3.45-1-3.56-.89-2.77-.66-1.23-1-1.89-.67-1.66-.67-.78-1.89-2-1.89-1.12-.77-.55-.67-.45-.11-.11-4.12-2.55-5.66-1.78-1.12.33-2.22 1.34-1.67-.56-.89-.56h-.77l-3.56 1.12h-3l-5.78-.89-.89-.45-1.34-.67-2.11-3.11-1.78-1.55-3.33-1.78-1.34-1.45-.22-.22-5-8.45-.45-.89-1.44-3.33-2.11-5.45-.45-1.44-1.22-2.12-.22-.22-1.23-1.44-1.22-2.78-.33-1.56-.22-2.78.33-1.33.11-6.89-.22-2-1.11-2.34-2.23-2.78-1.55-2.44-1.34-3.11v-.23l-1-1.33-1-2.78-.78-2.78-.89-2.22-1.44-3.22v-.12l-.56-2.11-.77-1.78-.12-.33-.66-2.33-.45-2.78.23-3.23-.34-4.11-.78-2.11-.33-1.22-.33-2.45-.23-3.67.12-3.22.22-4.78.22-1.78.33-3.44.11-2.67-1.11-2.56-1.44-3-1.67-2.56-1.44-1.78-1.34-2-1.22-2.44-.45-1.89-.33-1.89.11-2.56-.55-2.33-1.34-5.45-2.44-6-1.23-2.89-.77-2.34-.12-.11-1-2.44-.77-2.23-.45-1-.78-1-.44-.55-.34-.34-.11-.11-1-.66-.78-.34-1-.44-2.11-1.11-.66-.34-3.56-1.55-3.23-1-3.44-1-3.11-.34-2.78-.44-11.12-3.23-3.78-1.22-3-1.22-3.34-1.78-3.66-1.89-2.67-1.44-2.89-1.23-2.78-.55-3.45-.56-1.44-.22-5.67-.89-5.11-1.22v-.78l.11-4v-3.78l.11-1v-2.89l.11-1.67v-3.56l.22-7.33.11-8.12h5.45l7 .11h5.12l6.22.12 5.89.22 16.23.22 3.23.22 2 .11 15.23.34h3.66l15.79.44 6.89.11 23.35.67 6.89.11 16.45.45 23.34.88 16.9.23 4.34.11h2l11 .33 1.78.11 8.34.23h.89l3.67.11 8.11.22 13.23.44 16.45.34 30.35.66 10.23.45 7.78.55 8 .34 1.89.11 19.12.11 7.78.33h15.56l15.79.23 7.56.11 6 .22 3.11.11 3.34.11 4.78.11 10.67.56 18.9.67 46.91 1.33h.55l38.8.67 7.78.22 31.13.55 13.78.34 1.89.11-.67 33.46-.33 18.89-.22 8.12-.45 18.12-.11 7.33-.55 18.79-.67 26.12-.11 7.89-.45 14.23-.22 4 2.22.11-1.11 51.91-.55 22.57-.34 14.45-.44 13.89v1.45l-1 41.13v1l-.22 10.11h1.66l3.12.11 1.66-.11h8.34l2.78.11 5.11-.11h22.12l.12-4.22.33-21.01.44-27.12 3.89.11 7.45.11 12.12.22.89-52.47h5.33l6.45.23 9.56.11h2.23l-.12 7.78-.11 8.56-.33 17.12-.11 8.44-.22 10.68-.12 9.55-.22 6.9-.11 2.89v1l-.11 7.78v2l-.33 10.11v5.67l-.11 4.12v2.44l-.12 11.45-.33 16.78-.11 7.56-.11 3.45-.22 13.12-5.56-.12-3-.11-11.68-.22h-7.33l-3.89-.11-7.34-.11-8.23-.11-6.22-.11h-10.78l-17.68-.11-5.89.11-3.89-.11h-.67l-.33 9.67-.11 11.78-.34 9.11.12 1-.56 20.57-.67 31.45-23.45-.33-23.57-.44-9.23-.67-37.57-.44h-8.22l-9.9-.12h-.33l-13.12-.22z" stroke-linejoin="round"/></defs><use xlink:href="#m" fill="#09757a" stroke="#097d9b" stroke-width="5.76"/><defs><path id="n" d="M732.89 1819.74l-15.22-.33-11.68-.45-4-.11-9.11-.22-6.9-.22-10.56-.23-25.34-.33-3.89-.11-7.23-.11-15.67-.45-16.12-.55-3.11-.11-7.34-.12-4.22-.22-.11.11.22-14 .66-24.57.12-5.11.11-8.78.66-25.24v-3.44l.56-23.57 1.11-52.46.45-25.9.33-10.56.33-15.9.56-25.56v-1l.44-20.46.11-4 .12-1.22-.12-.89 1.23-51.35.55-27.57.45-24.68 1.33-52.13.67-28.79.55-23.67.67-25.46.11-3.33.11-8.12.34-15.34 9.34.11 10.89.23 13.78.22 7.45.11h.11l4 .11h.45l3.44.11 4.9.11h2.89l3.78.11 3.78.11 7.67.12 11.33.33h4.01l5.11.11 11.23.22 5.33.22 3.78.12h3l8.23.11 10.23.33h4.89l-.11 4.45-1.12 48.02v2.78l-.11 5.55-.11 3.23-.22 14.56-.22 4.44-.11 8.56-.34 13.12-.44 15.9-.11 7.11-.45 13.78-.44 15.23 12.34.33 9.56.12 7.22.22 18.12.33h2.23l6.89.11 5.33.11h2.56l9.45.11 5.56.12 3.33.11 1.34.11h.89l9.22.11 12.9.33 9 .11h2.11l14.57.34 8.22.11-.33 10.67-.34 16.23-.11 7.11-.11 6.56-.33 11.89v3.23l-.22 5.56-.12 4.66-.11 7.23-.22 9.89-.44 20.9v1l-8.12-.11-9-.22-5-.11h-2.34l-6-.12h-.78l-12.67-.22-2.89-.11h-2.11l-15.35-.22-8.22-.22h-.45l-6.55-.11-13.57-.23h-.77v3l-.12 5.78-.22 15.46v2.22l-.11 7.33-.33 18.57-.34 8-.11 6.78-.11 6.89-.11 4.12-.22 8.89-.22 10.67-.12 6.89-.44 18.23v2.45l-.11 6-.22 4v4.22l-.11 3.23-.12 7.11v3.56l-.11 3.56-.11 3.22-.11 6.67-.11 4-.22 10.23v8.11l-.45 18.01v2.11h-1.89l-7.67-.22-8.67-.11-4-.23h-4.67l-8.67-.22-11.34-.22-.11 12.89v3.45l-.33 20.12v4.11l-.23 12.23z" stroke-linejoin="round"/></defs><use xlink:href="#n" fill="#09757a" stroke="#097d9b" stroke-width="5.76"/><defs><path id="o" d="M1433.11 1834.3l-10.45-.33-5.23-.23-7.67-.22-5.44-.11-2.23-.11-9.11-.33-6.89-.23-11.68-.33-6.33-.22-5.23-.11-4-.11-1.89-.11-3-.12-5.78-.22-8.67-.22-1.89-.11-11.78-.22-24.13-.67-6.67-.22h-2.44l-24.01-.34-5.01-.11-17.89-.22-4.45-.11-5.33-.11h-3.23l-5.22-.23h-2.23l-16.23-.33h-3.11l-4.78-.11h-1.67v-.44l.12-7.12.11-10.22.11-5.23.11-4.33v-9.45l.11-15.12-2.56-.11-4.78-.22-3.78-.11-4.33-.12-1.89-.11h-1.67l-4.56-.11-.44-.11h-2.89l-7.34-.11-3.56-.22h-1.89l-2.44-.11h-2.67l-.44-.11.11-7.12.11-5.22.11-5.23.22-3.55v-4.78l.45.11.11-2.34v-.33l.22-7.67.22-5.78.11-1.22.23-7.01.11-2v-.78l.22-4.77v-3.9l.11-7.33v-1.22l-.11-3.45-.22-3.89-.11-.89v-2.11l-.11-3.23v-16.67l.11-3.22v-3.34l-.11-.22.11-10.89.11-1 .11-5.89.11-6.01v-10.11l.11-2.89v-5.23l.11-4v-2.89l.11-1.11v-6.34l.11-2.89v-1.66l.12-3.56v-3.89l.11-3v-6.34l.11-2.33v-3.45l.11-.44v-3.34l.11-3.67v-3.66l.11-3.78v-2l.11-1.67v-5.34l.11-1.77v-4.01l.12-2.11v-2.11l.11-1.89v-2l.11-2 .22-.56v-.44l.11-2.78.11-.56v-.89l.11-3.33.11-3.67v-1.89l.12-1v-5.67l-.12-.78v-7.33l-.11-1.34v-6.22l-.11-2.45v-4.66l.22.44.12.22.11-.33.11-1.56-.11-3.55.11-3.56v-3.67l.11-4.45.11-2.22v-6.67l.11-2.56v-4.55l.11-4.89.11-.56.11-.33.23-.34.11-.22.22-.11.33-.11.23-.11h1l.22-.11-1.11-.78 1.33.11v-.78l-1.78-.11-.33-.11h-.22l-.11-.33-.12-.11-.11-.45v-.11l.11-2.67v-4.56l.12-4.33v-5.45l.11-1.22v-1.78l.11-1.44.22-2 .22-1.01.11-1.11 1-4.67.45-1.66.56-1.67.77-2.11 1-2.23-.44-.22-.33-.22-.23-.11h-3.11v-2.34l.22-10.11.11-6.89.12-4v-3.78l.11-3.89.11-6.01.33-10 .11-6.67v-3.45l.11-2.89v-4.33l.34-8.45.33-10.89.33-10.78.12-5.45.22-5.45.22-10v-1.22l.11-1.89.22-7.01.11-3.44.12-3.34.22-6.78.11-3.89.22-7 .22-6.34.34-12.67.22-7.56.44-16.34-.11-3.44.11-6.89v-6.78l.12-11.34v-2.11l.33-6.56v-7.67l.33-8.23.11-3.33.11-4.34.12-3.44.11-3.12.33-13.56h4.67l4.78.11h3.78l1.56-.11h.66l6.67.11 4.11.11 2.23.12 6.78.11 5.89.22h3.34l.11-3.78.11-8.45.22-14.11.33-18.01.11-6.89v-1.45h1.56l5.34.22 3.78.11 22.67.67 3.78.11 10.23.34v3.89l-.22 7-.34 14.67-.11 9.01-.11 2.44v6.78l-.11 3.11v4.23l-.11 1 6.11.22 11.45.22 4.34.11 4.67.12h.66l6.9.33 12.67.33 5.78.22 6.56.23 13.67.33 3.45.11 6.89.22 6.89.34 2.45.11h1.11l5.89.11h4.67l9.78.22h2.22l10.56.22 8.56.12 4.12.11 1-.11h1.33l4.34.11h4.33l6.56.22 6.45.11 8.34.11 6.22.33h4.23l2.22.12h2.78l5.11.11h2.78l4.45.22 4.33.11 2.11.11h2.12l4.44.22h5.34l5.45.12 2.11.11 4.56.11h3.55l2.89.11 4.34.11 8.67.22 6.45.11 2 .11h4.33l2.23.12 6.44.22 5.89.11 3.67.11 8.67.22 8.56.11 5.67.12 2.67.11 4.34.22 8.44.22 8.34.33-.11 4.34v3.45l-.11 6.78-.11 3.33-.11 8.23-.11 8-.23 12.56v2l-.11 1.67v1.11l-.11 3.33-.11 7.12-.22 6.67-.34 9.11-.11 9.12-.22 9.33-.11 7.56v.11l-.11 2.56-.34 23.68-.33 21.67-.11 4.23 6.22.11 17.24.22 3.55.11 3.34.11 4.11.11h3.56l7.22.23 1.67.11h8.67l20.57.44 11.78.22 5.67.23-.11 7.67-.22 13.33-.12 5.01-.22 14.56-.22 11.89-.11 3-.11 8.12-.23 14.56v3.56l-.22 10.11v2.34l-.11 10.78-.33 11.78v.11l-.22 11.12v5.67l-.12 7.67v2.89l-.11 6-.22 7.56-.11 4.11v10.45l-.11 8-.11 2.11.11 7.67-.22 14.23-.12 5.89h-3.44l-1.11.11-.67.11h-1.67l-1.22-.33h-1.22l-1-.11h-5.23l-7.45-.11-14.56-.22-2.89-.11-6.56-.23-9-.33-6.89-.11-7.23-.22-4.56-.23-6.67-.11-7.22-.33h-5.12v5.56l-.11 6.56-.22 12.67v1.55l-.11.45v.44l-.11 7.89-.33 17.23-3.56-.11-8.01-.11-5.11-.11h-1.78l-4.22-.11-3.45-.11h-1.67l-1.55-.11-4.23-.11-13.45-.23-.11 1.34-.11 5.11-.44 11.56-.23 8.34-.44 12-.44 14.34-.12 2.34v4.89l-.11 4.44v15.45l-.11 14.01v4.11l-.11 6.34v3.56l-.11 6.89-.11 16.56-.11 7.78-.11 3.11v3.56l-.12 3.45-.11 8.78-.22 10v2l-.33 12.9v2.22l-.22 7.34v2l-.12 2-.22 13.45-.22 8.78-.33 10.45-.23 5.89-.22 7.45-.11 3.44-.22 7.34-.11 3-.11 3.33v1.23h-3.12l-4.78-.23h-2.44l-10.79-.22h-1l-24.01-.44h-2.78l-3.66.11h-3.12l-5.11.11-10 .11h-22.68z" stroke-linejoin="round"/></defs><use xlink:href="#o" fill="#09757a" stroke="#097d9b" stroke-width="5.76"/><defs><path id="p" d="M1998.59 1583.53l-2.22-.11-11.34-.33h-3.89l-6.11-.22-6.9-.12-2-.11h-1.78l-4-.11-6.33-.22h-2.23l-3.78-.11h-.22l-2.44-.11-10.57-.11-5.11-.12-15.56-.22-8.89-.22-4.56-.11h-4.12l-1.22-.11h-5.22l-10.56-.22-21.01-.34h-.23l.12-2.78.11-9 .11-7.23.11-5.44v-2.11l.22-11.01.22-14.67.12-5.56.11-5.45.33-21.78v-9.12l.11-3.67v-6.44h-1.44l-4.78-.11-.89-.11-10.79-.23-3.66-.11-3.9-.11-7.89-.11-4-.11h-4l-3.89-.11-1.45.11h-.66l-5.56-.22-4.89-.12-8.9-.22-3.44-.11-10.79-.22-5.33-.11-3.11-.11-4.01-.11.45-26.24.44-20.89.11-5.01.23-4.33.11-9.34v-3.11l.11-5.78v-3.89l.22-8.45v-.11l.11-3.78.23-11.23v-2.22l.22-5.89.11-7.12v-12.45l.11-2.33.22-10.67.11-8.89v-4.78l.11-2.23v-5.44l.34-20.57.33-20.56v-3.33l.11-4.67.34-18.57.11-9.44.33-19.68.33-13.67.23-13.23.44-25.12.11-5.11.45-30.35.11-6.78v-1.56l3.44.11 4.78.12 3.56.22h.56l.11-.11.11-.11.11-.12v-.22l.22-7.11v-.33l.11-.23v-.11l.23-.11h8.56l8.89.22 4.45.11 7.55.12h1.56l.78.11.22.11.22.11.23.33.77-.44.78-.45 1-.66 1.11.11.23.11 1.33.67.56.22h3.11l3.56.11 4 .22h3.89l4 .11 8.23.11 9.33.23 5.78.11 10.45.22.34.11h.11l.44.11 1.12 1 .33.11.22.11.45.12.44-.12.33-.11.89-.78.34-.22.66-.11.89-.11.67-.22h.33l1.78-.11h1.34l5.44.55h.67l.67-.44 2.33-2.67.67-.44.22-.23.45-.11.22.11.33.11.67.45.44.22.67.45.33.33.11.33.34 1.11.11.45.22.22.11.11h.22l.45.11 8.45.11 2.44.12h1.67l2 .11h4.23l1.11-.45.22-.11.33.11.56.45.33.11.45.11 2.78.56h.66l.78-.12 1.67-.11 1.33-.22h5.89l10.56.33 10.01.23h2.56l3.55.11 6.01.22h.55l.45.11.44.22.45.23.77.66.89.67.23.11.22.11.55.11 1.78.23 6.34.22.78.11.44.22 1.67 1.11.33.22.22.45.56.78.33.22.45.11 6.78.22 7.89.45 1.45.22 3.33-.11v-6l5.34.11 10.34.11 5.89-.11.66.11.67-.11.22-.11.67-.34.22-.11h.23l.22.11.78.45h.22l1.11.11h5.34l.22-.11.22-.11.56-.56.66-1 .67-.89.78-.55.22-.34.33-.11h.45l.89.22.44.23.23.11.22.22.22.44.22.34.11.55.34 1.11.22.34h.11l.33.11h2.45l3.45.11 5.22.22 12.78.11h4.12l1 .11h4.33l1.34.12h2.11l2.22.22h13.45l6.01.11h12l11.9.11 6.33.11 5.45.11h1.33l3.45.11 9.34.12 1.22.11h.55l10.01.11 15.67.11 3.67.11 6.67.11 24.35.33 15 .12 5.23.11v2.11l-.11.55-.11.34-.23.78-.66 1.44-.89 2.22-.45.89-.22.34-.22.33-.11.11h-.45l-.55-.11-.34-.22h-.33l-.33.11h-.12l-.44.11h-.11v1.33l-.11.23.11.22.11.22.33.45.23.22.11.11.11.22v.34l-.11.33-.56 1.33-.11.34-.22.22-.11.11-.34-.11-.55-.56h-.34l-.33-.11h-.67l-.11.22-.11.34v.22l.11.22.22.22.67.45.89.89.56.55.66 1 1.34 2.12.22.66v.89l-.33 1.11-.34.34h-.33l-1.22-.67-.45-.11h-.55l-.12.22-.11.22-.22 1.12v.44l.11.22v.22l.22.23.67.22.78.22h.56l.55.11.33.23-2.44 3.11-.56.89-.22.66-.22.56-.45.67-.77.44-.45.11h-.67l-.55-.11-.67-.33-.55-.45-.45-.55-.44-.45-.67-1.66-.33-.78-.12-.34-.22-.33-.55-.22-.45-.11-1.11-.23-.67-.33-.55-.22h-.67l-.78-.11-.66-.22-.56-.12-.33.23-.56.77-2.78 5.56-.22.34-.33.11-.23-.11h-.22l-.44-.56-2.34-3.45-.22-.11-1-.33-.45-.11-.89-.11-.55-.23-.89-.44-.56-.11-1.55-.33-.45.11-.33.11-1.11.78-.78.55-.44.22-.45.23-.44.11h-.34l-.33-.11-.45-.23-.44-.33-.89-.67-.56-.66-.55-.89-1.45-2.78-.22-.33-1.22-1.23-.45-.44-.33-.45-.22-.22-.11 16.67v8.56l-.11 5.89 17.89.23h7.01l9.67.11 1.33.22 2.45.11 1.44-.22h9.78l3.89.11 7.56.11h2.56l19.12.22 5 .11h1.78l.78.12.44.11.34.22.22.11.33.22.67.45.33.55.12.45.22.33.11.45.11.33v1l-.22 15.12-.34 28.23v.89l-.11 3.11v.67l-.11 4.56-.22 21.56-.33 26.23-.34 16.01v1l-.11 8.56-.33 26.57-.34 20-.22 32.24-.67 52.24v1.56l-.44 34.57v3.22l-.11 13.01-.56 41.13-.22 11-.11 13.78-.22 7.56v4.78l-.34 14.23v11.23l-1.33.55h-3.45l-2.44-.11h-3.11l-1.12-.11h-7.33l-1.45-.11h-2.33l-8.01-.11-.89-.11-6.11.11-5.11-.22h-6.45l-3.67-.12-9.11-.22h-.78l-9.67-.11-3.34-.11h-.33l-5.78-.11h-.78l-1.11-.11h-3.23l-3.89-.11h-2.22l-5.22-.11h-7.12l-4.89-.12-11.89-.22-1-.11-6.9-.11h-5l-4.22-.11h-10.9l-5.78-.11h-8.11l-8.34-.23-8-.11-2.34-.11h-3.11l-12.23-.11-6.89-.11-3.45-.11h-6.33l-1.22-.11-11.45-.22h-2.45l-1.67-.12h-3.33l-2.78-.11h-7.12l-4.78-.11h-5.78l-1.11-.11-4.78.11-3.44-.11h-4.67l-2 .11-3.45-.11h-3.56l-2 .11z" stroke-linejoin="round"/></defs><use xlink:href="#p" fill="#09757a" stroke="#097d9b" stroke-width="5.76"/><defs><path id="q" d="M604.06 1293.19l.78-30.12v-.33l.22-10.79.33-9.67v-1.44l1.11-49.69.11-2.67 5.45.11h3.56l7.45.11h7.56l11.11.23h3.67l7.34.11 7.44.22 7.23.11 3.11.11.11-.22.67-.33.78-.11.22-.23.22-.33 1.67-2.45.22-.44v-.89l.11-.78v-.22l.23-.44.22-.12.89-.55.67-.33h.11l.89-.34.66-.22.34-.11.44-.33.33-.12.23-.22.22-.44.22-.23.22-.55.23-.67.11-.22v-.22l-.11-.22-.12-.23-.11-.22-.33-.44-.89-.89-.44-.67-.23-.44-.33-.89-.22-.89v-1.34l.22-1.11.33-1.56.23-1.11v-1.44l-.34-2.56v-.55l.11-.34v-.44l.12-.45.44-.89.33-.89.11-.22.34-.44.44-.45.34-.11.33-.11.56-.11.55.11 2.11.78.34.11.44.33.45.56.22.44.33.45.11.22.23.11h.22l.22-.11.22-.22.34-.45.44-1.55.22-.67.11-.44.23-.34.55-.78.56-.55 1.22-1.22.67-.56.33-.56.22-.44.11-.67.12-1v-.33l.11-.22.89-.56.44-.33.67-.34.55-.22.23-.11.11-.22.22-.34.44-.66.45-.45 1.22-1.78.34-.33.11-.33.44-1.11 1.33-5.01.45-1.44.22-.67.67-.89h-5.78l-16.9-.33-9.89-.11-3.89-.11-10.23-.11-4.33-.12-7.45-.11h-3.12l-10-.22-18.12-.22h-3.11l.11-8.45.22-9.67.22-11 .34-15.01.22-8v-.23l1.11-52.24.22-7.67.45-15.34v-2.33l.78-27.24.33-13.67.67-27.12-.34-.33-.11-.34.11-1.44.34-7.45-.11-1.22.11-26.35.11-.11.11-.22.11-.22v-.45l.11-3.22.67-22.01v-1.67l1.11-51.35 33.79.78h.45l11.34.44 19.89.34.89.11h2.67l11.56.22 1.23.11h1.44l9.01.33 19.56.45 15.78.33h1.34l10.34.22 18.56.23 6.56.22 9.78.22 3.78.11 4.78.11h3.11l13.12.11 21.79.45 8.67.11 3 .11 11.01.33 25.56.34h.56l10.45.22-.11.67-.22 8.33v4.56l-.12 4.78-.11 4-.33 17.34-.11 4.78-.11 6.23-.11 2.67v5.22l-.23 5.67-.44 24.34-.11 3.89-.11 5.67-.11 5-.23 7.45v3.56l-.11 3.67v5.67l-.22 3.55v2.67l-.11 4.34v1.66l-.11 1.78-.11 7.11-.11 3.56-.12 7.34-.11 3.33-.11 3.56-.22 10.56-.22 14.12-.23 10.67-.22 10.11-.11 7.78-.22 7.12-.11 2.78v4.44l-.34 13.56-.11 3.56-.22 7.56-.11 5.89-.22 11.12-.11 3.44v6.89l-.12 5.12-.11 1.78-.44 20.89v3l-.33 13.12-.23 12.23-.22 8-.44 19.12-.11 4.56-.34 14.11-.67 24.46-.22 9.34-8.56-.12h-3.11l-5.67-.11h-6.11l-21.57-.11h-1.33v.22l-.11.12-.11.22-.23.11-.11 6.89v4.34l-.11 2.33-.11 2.22-.11 6.45-.11 5.89-.45 16.79-.11 5v1.67h-1.89l-15.67-.23h-9.45l-6-.11-14.12-.22-7.78-.11-3.67-.11-7.56-.22h-4.78l-6.56-.12-9.78-.22-6.78-.11h-4.89l-10.23-.33-8.23-.11h-3l-3.78-.12-5.33-.22-11.23-.22-5.11-.11h-4.01l-11.33-.33-7.67-.12-3.78-.11-3.78-.11h-2.89l-4.9-.11-3.44-.11h-.45l-4-.11h-.11l-7.45-.11-13.78-.22-10.89-.23-9.34-.11z" stroke-linejoin="round"/></defs><use xlink:href="#q" fill="#004249" stroke="#00465f" stroke-width="5.76"/><defs><path id="r" d="M2438.91 2639.07h-.23l-.55.11h-.11l-.34.11-.22-.11-.89-.78-.44-.44-.11-.22-.23-.11-.33-.11h-.33l-.34-.12-.11-.11-.22-.33-.11-.11h-.22l-.34.33-.11.11h-.22l-.56-.33h-.33l-.11-.11-.11-.22-.11-.23-.11-.22h-.34v1.22l-.11.12h-.33l-.11-.12-.23-.33-.11-.11-.22.11-.22.67-.22.33-.45.78v.22l.11.11h.11l.23.11.11.23v.22l-.11.11h-.45l-.33-.33h-.67l-.22.11h-.56l-.33-.11v-.56l-.11-.78-.11-.11h-.11l-.12.11-.22.11-.55.56h-.11l-.12-.11-.11-.22-.22-.56v-.44l.11-.12.11-.33.56-.55.89-1.01.22-.11.11-.11h.45l.22.11.67.34 1.22.22h.67l.22-.22.55-.89.67-.67.11-.11v-.78l-.22-1v-.67l.11-.33.22-.11.23-.11h.22l.44.11.22.11.12.22v1l.11.11h.22l.22-.11.22-.22.34-.44.33-.78.45-.22.22-.23.22-.22h1.11l.22-.22v-1.56l.23-.33.22-.22.11-.23.11-.88.11-.45-.22-.33-.11-.11h-.11l-.11.11-.78.89-.22.11h-.23l-.11-.11-.11-.11-.11-.34-.22-.44-.11-.22v-.34l.22-.33.44-.56.23-.33v-1.22l.11-.11.11-.12 1.22-.77.11-.12.22-.22.34-.33v-.33l-.22-1-.23-.56-.77.44h-.34l-.22-.22-.22-.11h-.56l-.22-.11-.33-.22-.45-.45-.22-.22-.22-.11h-.23l-.33.11-.44.22-.56.34h-.44v.11l-.12.33v.11l-.44.22h-.11l-.22 1.78-1.23 5.78.11 1.56.89 1.11.34 1.33-.23 2.67h-2.22l-1-.22h-.55l-1.34.11-2 .11-7.89-.11-4.89-.11h-1.56l-5.45-.22h-1.22l-5.89-.11-12.56-.45-9.67-.11-6.56-.22h-4.45l-8.11-.22-5.9-.23-4.11-.22-3.56-.22-3.89-.11-4.11-.22h-1.56l-3.11-.12-3.22-.11-8.23-.11h-7.89l-1.22-.22-.89-.11-.45.11h-3.89l-4.44-.11h-6.9l-12.22-.34-3.89-.11-4.56-.11h-4l-6.79-.22-4.55-.11-3.45-.11h-3.56l-3.55-.22h-3.56l-3.56-.12h-7.89l-8.89-.11-4.34.11-3.89-.11-4.56-.11h-10.89l-9.89-.11-8.34-.22h-7.78l-4.34-.11H2166l-1.22-.11h-3.22l-1.34-.11h-5.33l-2.67-.23-1.34.11-6.67-.11-1.55-.11-7.12-.22-10.56-.22h-3.89l-10.45-.11-7.22-.12-3.67-.11-7.34-.11h-4.11l-.33.11-.11.11-.78.45-.34-.22-.33-.11-.44-.12h-.45l-.44-.11-.23-.11-.22-.33-.22-.22-.45-.56-.44-.78-.22-.22h-.22l-.12.11-.11.11-.11.11-.22.34-.33.22-.45.22h-.33l-.11-.22-.45-.56-.22-.55v-.34l.11-.11.22-.22.89-.44.23-.23v-.55l-.78-.67-.23-.33-.11-.22v-.89l.11-.56v-.33l-.22-.78-.11-.45v-.77l.11-.34.11-.22.23-.22h.11l.33.11.45.22.44.11.89.11 1.33.12.45-.12h.33l.22-.11.11-.11.12-.22v-.89l-.12-.33-.11-.34-.44-.44-.11-.22-.11-.34v-.44l.11-.22v-.45l-.22-.11-.34-.11h-1.33l-.11-.11-.11-.22v-.89l.11-.34.11-.11.33-.11.45.11.77.22.56.12h.44l.23-.12.11-.22v-.33l.22-.34.22-.33.11-.11h1.12l.33.11.11-.11.11-.22.11-.34.22-.44.34-.22.22-.11.33-.23.23-.44v-1l-.23-.45-.22-.22-.89-1-.11-.11v-.44l.22-.12.34-.11h.33l.22.11.34.34.44.33.56.34.66.11.45-.11.33-.12.22-.33.12-.33v-.45l-.12-.22-.22-.22-.78-.45-.33-.11-.22-.11-.11-.11-.11-.22v-.22l.11-.34h1l.55-.33.67-.67.44-.22.45-.22.22-.11.22-.23v-.44l-.11-.22-.44-.67-.67-.78-.11-.22-.11-.33v-1l-.11-.78.11-.45v-.11l.11-.11.11-.11 1.56.44h.22l.11.23-.11.22-.33.33v.45h.11l.11.11h.89l2.11.22h.89l.78-.11.22-.11.22-.22.22-.34.12-.11.22-.11.33-.22.11-.11.11-.23.11-.22.23-.11h.22l.78.33h.33l.22-.11.56-.22.22-.22.11-.22v-1.23l.11-.22.34-.44.11-.23.11-.22v-.78l-.33-.89v-.66l.44-.89.33-1.11.12-.45.11-.33.11-.34.22-.11h.89l.78-.77.66-.12.56-.11.33-.22.23-.11.11-.33.11-.23v-.77l.22-.12.22-.22.23-.33.11-.22v-.67l-.11-.22v-.34l-.12-.22.12-.11h.22l.44.22h.45l.22-.22.11-.11v-.67l.11-.22.45-.22.22-.22.11-.23v-.55l-.11-.11-.11-.12h-.67l-.56.12-.33.11-.22.11-.22.11h-.11l-.23-.11-.33-.45v-.22l-.11-.33v-.34l.11-.22.33-.67v-.22l-.22-.33-.11-.11-.22-.22.11-.23v-.22l1.11-.55.33-.34.11-.33.12-.34.11-.55v-.45l-.11-.77v-.45l.11-.22.22-.22h.22l.67.11h.22l.33-.34.34-.11h.67l.55-.22h.22l.11-.11v-.56l.34-.55-.11-.22-.11-.11-.23-.34-.89-.78-.11-.22-.11-.22-.11-.22.11-.34v-.22l.22-.55.12-.45v-.33l-.23-.45-.22-.11-.44-.44h-.12l-.11-.23-.22-.88-.11-.23h.11l.11-.22 1.11.11h.78l.45-.11h.11v-.11l.11-.22v-.34l-.11-.33-.11-.33-.11-.34-.12-.33v-.67l-.22-.44-.11-.45v-1.22l.22-.44.23-.45.66-.67.56-.77.11-.45.11-.33v-.78h-.22l-.34-.11-.44-.33-.44-.56-.12-.22v-.45l.12-.33.22-.22.33-.11h.45l.22-.12v-.11l.11-.22v-.44l-.11-.34-.22-.44-.45-.11-.44-.11-.67-.34-.22-.11-.22-.22-.12-.22-.11-.23v-1.44l.23-.33.22-.34.66-.33.34-.33.66-.67.34-.33.11-.34.11-.33v-.56l-.22-.89v-.55l.11-.34.22-.33.45-.55.77-.78.56-.78v-.33l.11-.56.11-.89.23-.33.11-.45.33-2 .11-.33.11-.11.45-.45.11-.22.22-1.11v-.45l-.56-.55h-.44l-.22-.11h-.11l-.11.33v.11l.11.56v.22l-.11.56h-.56l-.33-.23-.34-.33-.11-.22-.22-.56-.11-.55-.11-.23.11-.33.33-.56v-.66l-.22-.34-.22-.22-.34-.33-.22-.34-.44-.66v-.45l.11-.11.11-.11.22-.11.33.11.56.33.44.12h.45l.22-.12.56-.66.44-.78.22-.45.12-.66v-.56l-.12-.22-.11-.11-.11-.11h-.33l-.67.22h-.55l-.12-.22v-2l-.11-.23-.33-.55-.11-.34v-.44l.44-1 .11-.67v-1.89l.34-1.33.22-.45.33-1.11.67-3 .11-.33.34-.34.44-.33.44-.22.45-.22.33-.34.34-.66.22-1.12v-2l-.11-1.11-.34-.78-.33-.66-.44-.56-.23-.33v-.22l.11-.23.23-.33 1.89-1.78 1.44-1.22.56-.33.55-.23.56.11.67.23.55.33.34.11.33.33.44.12h.23l.22-.23.55-.89.23-.11.33-.11h.44l.56.45h.45l.22-.23.11-.22v-.44l-.11-.11-.67-.56-.22-.33v-.45l.11-.33.22-.33.34-.34.44-.22.67-.33.66-.45.78-.78.34-.55.11-.45.33-1.22.11-1.22.11-.56.22-.44.34-.56 1.78-1.89.33-.44.22-.34.23-.55.22-.78.22-.45.33-.66.34-.34.22-.22.33-.22.78-.22.22-.11.11-.11v-.34l-.22-.11-.78-.22h-.33l-.33-.22-.11-.45v-.33l.11-.89.33-.78.11-.22.56-.67h.22l.22.11.34.45h.11l.22-.11.22-.12.22-.55.34-.78.11-.11v-.22l-.11-.22-.11-.56v-.56h.22l.11-.11.22-.11v-1l-.22-.33v-.89l.11-.67v-1.11l-.11-.56v-.33l-7.23-.33h-3l-6.67-.11.45-12.23.22-4.78.56-14.34.11-4.34.33-9.55.11-4.01.11-2.22v-.22l.11-.22.11-.12.34-.11.44-.11 6.67.11 2.34.11h4.78l.78-.11h.88l2.78-.44 1.45-.11 1-.11h.33l.34.11.89.55.44.11h1.78l4.89.12 4.89.11h11.56l.22-4.23v-10.45l.12-2.22v-1.67l.11-12 .22-13.78v-3.45l.11-4.34 3.78.12 4.11.11h1.89l6.45.11h4.67l2.56.11h.33l.78-.11 1.22-.34.67-.11h.33l.56.11 1 .23.66.11 1.12.11 8.11.11h2l6.89.11h2.67l1.11.11 2.34.11h5.44l3.45.12 7 .11h1.11l2.34.11 8.89.22h2.67l9.23.22h.22l-.56 34.46h15.01l31.46.67 20.12.33h3.11l23.57.45h6l21.57.44 3.89.11 8.56.11 15.23.22 8.44.34 29.8.44 6.44.11 30.8.45 9.56.33 23.78.45 22.68.33-.11 5.22v.56l.11.44.34.56.22.45.11.11v.55l-.45 1.11-.11.45-.11.33v2l-.11.67-.11.78v.33l-.11.56-.22 3.89-.12.44v.22h.56l.67.12h5.67l8.11.11h.34l8.22.11 9.56.11h4.89l3.56.11 12 .11 5.12.11h5.89l5.45.11h.55l5.56.11 13.01.12h4.11l2.33.33h7.23l3.45.11h1.44l18.79.11h7.67l5.56.11h3.55l17.46.11h26.56l28.79.12h5.45l11.23.55h1.22l.45-.22.22.11 7 .11h1.22l1.34-.11h2.67l1.33.11 8.34.11 12.78.22 10.78.12 1 .33 4.78.11h.56l.56-.11.33.11.33.11.67.11.56.11 2.66.11 1.45-.11h.89l1-.22 1.11-.11 1 .22 6.67.22 1.33-.33-1.77 20.45-.45 1.34-.11.66.22 1.01.67 2 .11 5.22.22 38.57-.55 28.79v3.78l.11 4v.22l.11 3.01.22 11.22h-.22l-.22.22-.34.78-.22.45-.22.44-.11.45.22 3.22.11 2.33v1.12l-.78.77-.66.67-1.56 1.11-.56.23-.66.11-1.11-.11-1.12-.12h-1.77l-.45-.11-.33-.11-.23-.33-.44-.11-.67-.11h-.33v.22l.11.33.33.45.56.77 2.11 1.89.56.67.11.22.22.45v.89l-.89 1.11v1.33l.11.56.23.55.11.34-.11.44-.23.89-.44 1.11-.22.56v.22l.22.33.44.23h.56l.11.11.11.11v.22l-.11.33-.67 1.56-1.11 2.45-.11.44-.22 2.67-.22 2.11v.45l-.12.22-.11.22-.33.22-.11.11h-1.78l-.89.11h-1.78v.12l.11.22.23.11h.55l.78.22.67.34.11.11v.11l-.45.33-.33.11h-.33l-.56-.11h-.11l-.22.11-.11.67-.23.22-.22.11-.22.22-.22.23-.11.33-.12.33-.22.12h-.22l-.11.11v.22l.11.67-.22.22h-.22l-.12-.45-.11-.22h-.55l-.34.11-.11.34v.66l.11.11.11.23v.44l.12.33h.55l.34-.33.11.11.11.11v.11l-.56.45-.55.78-.34.44-.11.33-.11.23-.44.66-.34.23-.22.11-.11.11-.22.11v.33l-.12.11-.11.12h-.22l-.11-.23h-.67l-.89-.22-.33.11-.33.34-.45.55-.22.34v.22l.11.33v.45l-.11.33-.22.22v.22l.11.23.11.11.22-.11.22-.12.23-.11.22-.11.11-.22.11-.78.11-.55.11-.23.12-.11.22.11.11.23.11.22.44.78.12.33-.12.33-.11.45v.67l-.11.11-.22.22-.67.11-.78.78-.22.11h-.11l-.11.11v.44l-.11.34-.11.22-.22.33-.67.45-.67.33h-.33l-1.22-.11-.45-.11h-.56l-.11.11-.22.11-.33.34-.11.11h-.67l-.11.11-.11.22-.23.78.12.11v.22l.22.45.11.22v.22l-.11.11v.22l-.22.12-.34.11h-.66l-.23.11v.22l-.33.22-.33.11-.23-.11-.11-.11-.33-.22-.11-.22-.11-.23-.11-.22h-1l-.23-.11-.33-.22-.11-.11-.78.33-.33.11-.11.11-.12.11-.11.12v.22l.23.89v.44l-.12.22-.22.23h-.66l-.67-.11h-.34l-.77.11h-.34l-.44-.23-.45-.22h-1.33l-.44-.11-.56-.56-.22-.22h-.34l-.11.11-.44.67-.34.11-1.22-.22h-1.22l-.78.11-1.11.11-.67.22-2.89-1.44-2.33-1.22-4.12-2.34-4.33-2.44-2.45-1.34-1-.55-3.78-2.11-3-1.67-3.33-1.89-2.67-1.34-3.34-1.66-1.11-.45-3.22-1.33-1.22-.45-2.23-.66-2.44-.67-1.67-.44-2.33-.45-1-.11-2.01-.33-1.77-.23-1.67-.11-3.89-.22-8.34-.11h-4.89l-4-.11-2.78-.45-2.78-.22-1.33-.11-1.34.11h-4.78l-2.22-.11h-5.89l-4.56-.11-4.67-.11h-9.45l-3.44-.11h-1.34l-4.89-.11h-9.56l-7.23-.12-3.33-.11-8.34-.11-8.67.11H2638l-8.89.11-13.12-.22-1.34-.11h-3.44l-4.34-.11h-1.44l-4.78-.11h-6.23l-2.66-.11h-8.01l-2-.11v-.78l-.11-6.23-.22-8.33-.11-7.56-10.9-.22h-1l-11.56-.12-1.33 21.01v1.23l-.11 1h-1.56l-3.45-.23h-6v3.12l-.11 1.89-.11 8.44v.67l-.22 1.11-.12 1.45.12 1.11v1l.11.44-.11.45-.23 15.78-.22 13.67v3.34l-.78-.11-2.78-.11h-1.55l-6-.11-3.56-.12-1.67-.11-8.78-.11-9.34-.22h-7.22l-5.23-.11h-2.44l-3.45-.11-16.68-.11h-3.77l-7.79-.11h-22.9l-.88 4.44h-.78z" stroke-linejoin="round"/></defs><use xlink:href="#r" fill="#004249" stroke="#00465f" stroke-width="5.76"/><defs><path id="s" d="M941.99 1875.65l-14.45-.22-8.78-.11.11-6.78.44-20.9v-4.56l-.55-.22-.45-.11h-.66l-.23.22-.22.45-.33.66-44.47-.78v-1.44l.12-3.45v-6.78l.11-7.33v-2.34h-10.79l-7.78-.11-10-.11-4.67-.11-8.67-.11h-4.23v-.78l.11-2.11v-7.12l.12-3.44.11-10.45v-7l.11-6.9v-2.33l.11-2.11v-5.89l.11-4.56-6.45-.11-27.68-.56-12.56-.22v-2.11l.45-18.01v-8.11l.22-10.23.11-4 .11-6.67.11-3.22.11-3.56v-3.56l.12-7.11.11-3.23v-4.22l.22-4 .11-6v-2.45l.44-18.23.12-6.89.22-10.67.22-8.89.11-4.12.11-6.89.11-6.78.34-8 .33-18.57.11-7.33v-2.22l.22-15.46.12-5.78v-3h.77l13.57.23 6.55.11h.45l8.22.22 15.35.22h2.11l2.89.11 12.67.22h.78l6 .12h2.34l5 .11 9 .22 8.12.11v-1l.44-20.9.22-9.89.11-7.23.12-4.66.22-5.56v-3.23l.33-11.89.11-6.56.11-7.11.34-16.23.33-10.67-8.22-.11-14.57-.34h-2.11l-9-.11-12.9-.33-9.22-.11h-.89l-1.34-.11-3.33-.11-5.56-.12-9.45-.11h-2.56l-5.33-.11-6.89-.11h-2.23l-18.12-.33-7.22-.22-9.56-.12-12.34-.33.44-15.23.45-13.78.11-7.11.44-15.9.34-13.12.11-8.56.22-4.44.22-14.56.11-3.23.11-5.55v-2.78l1.12-48.02.11-4.45 6.78.11 9.78.22 6.56.12h4.78l7.56.22 3.67.11 7.78.11 14.12.22 6 .11h9.45l15.67.23h1.89v-1.67l.11-5 .45-16.79.11-5.89.11-6.45.11-2.22.11-2.33v-4.34l.11-6.89.23-.11.11-.22.11-.12v-.22h1.33l21.57.11h6.11l5.67.11h3.11l8.56.12.22-9.34.67-24.46.34-14.11.11-4.56.44-19.12.22-8 .23-12.23.33-13.12v-3l.44-20.89.11-1.78.12-5.12v-6.89l.11-3.44.22-11.12.11-5.89.22-7.56.11-3.56.34-13.56v-4.44l.11-2.78.22-7.12.11-7.78.22-10.11.23-10.67.22-14.12.22-10.56.11-3.56.11-3.33.12-7.34.11-3.56.11-7.11.11-1.78v-1.66l.11-4.34v-2.67l.22-3.55v-5.67l.11-3.67v-3.56l.23-7.45.11-5 .11-5.67.11-3.89.44-24.34.23-5.67v-5.22l.11-2.67.11-6.23.11-4.78.33-17.34.11-4 .12-4.78v-4.56l.22-8.33.11-.67 2.44.11h4.12l3.11-.11 1.89.11 1 .11.56.23h.44l7.89.11v.66l-.11 4.12-.22 10v5l-.22 5.23-.11 5.78-.23 10.11-.11 10.12-.11 3.89-.11 4.89-.11 4.89-.45 24.01-.33 10.89-.11 3.67 2.78.11 25.23 1v.45l.11.55v.34l-.11.66v.45l.34 1.66.11.45v.22l.11.11.11.11.22.23v.22l.11.33v.45l-.33 1.33-.11.22-.45.78-.11.33-.11.23.11.44-.22.34-.67.88-.11.12-.22.11h-.33l-.23-.11-.33-.34-.44-.89-.23-.33-.11-.11h-.22l-.22.33-.11.67v.67l.11.33.11.11.11.33.11.34-.11.44v.11l-.44 1-.23.23-.11.22-.66.66-.67.56-.67.78-.33.11-.34.11h-.66l-1.67-.11h-.67l-.33.22-.45.22v.12l-.22.55-.11.78v.22l.11.34.22.33.34.33.44.56.56.55.44.34.45.33.11.22 1 1.89.22.89.67 1.34.11.33v.67l-.22.89-.11.88-.11 1.12.11.89-.11.11-.67 1-.22.22-1.12 1-.77.33-.34.23-.11.22-.22.33-.11.56-.45 1.55-.44.89v.34h.44l.11.11.12.22.11.67-.23.77-.11.34-.11.11-.55.33-.23.11-.77.45-.34.22-.11.22-.44 1v.78l-.11.33-.34 1.01-.11.22-.55 1.33-.45.56-.11.22-.11.44-.45 1.23-.22.55v.67l-.22 1-.22.67-.23.11-.33.22-.56.89 10.01.33 1.56.11 15.11.67 8.12.45 8.45.44 4.11.22 4.11.23 4.12.11 3.11.11.22-8.23v-6.67l.22-5.89.23-11.45.33-20.01 3.11.12 10.56.11 9.67.22 2.45.11 10.45.11 10.67.22h6.78l5.67.11h3.11l6.56.23 1.22-.11 9.12.11h1.11l1.45.11h1.66l10.01.11-.22 11.11-.34 16.34-.22 17.79-.11 7.22v3.34l-.11 9.67-.22 7.67v6.89l-.12 1.34-.11 5.44-.11 8.78-.22 8.34-.11.89-.11 1.78-.11 5.67-.12 9.89-.11 1.44-.11 6.23v7.45l-.22 6.44-.33 13.45 3.78.12 15.56.22 10.34.22 16.89.22h8.56l10.12.11h4.67l8 .11 9.45.12 6 .11-.11 8.11-.11 2.56-.11 3-.22 7.78-.11 5.34-.11 5.22-.23 10.45-.22 6.45v3.55l-.33 13.56-.11 3.12-.12 3.44-.11 4.34-.11 3.33-.33 8.23v7.67l-.33 6.56v2.11l-.12 11.34v6.78l-.11 6.89.11 3.44-.44 16.34-.22 7.56-.34 12.67-.22 6.34-.22 7-.11 3.89-.22 6.78-.12 3.34-.11 3.44-.22 7.01-.11 1.89v1.22l-.22 10-.22 5.45-.12 5.45-.33 10.78-.33 10.89-.34 8.45v4.33l-.11 2.89v3.45l-.11 6.67-.33 10-.11 6.01-.11 3.89v3.78l-.12 4-.11 6.89-.22 10.11v2.34h3.11l.23.11.33.22.44.22-1 2.23-.77 2.11-.56 1.67-.45 1.66-1 4.67-.11 1.11-.22 1.01-.22 2-.11 1.44v1.78l-.11 1.22v5.45l-.12 4.33v4.56l-.11 2.67v.11l.11.45.12.11.11.33h.22l.33.11 1.78.11v.78l-1.33-.11 1.11.78-.22.11h-1l-.23.11-.33.11-.22.11-.11.22-.23.34-.11.33-.11.56-.11 4.89v4.55l-.11 2.56v6.67l-.11 2.22-.11 4.45v3.67l-.11 3.56.11 3.55-.11 1.56-.11.33-.12-.22-.22-.44v4.66l.11 2.45v6.22l.11 1.34v7.33l.12.78v5.67l-.12 1v1.89l-.11 3.67-.11 3.33v.89l-.11.56-.11 2.78v.44l-.22.56-.11 2v2l-.11 1.89v2.11l-.12 2.11v4.01l-.11 1.77v5.34l-.11 1.67v2l-.11 3.78v3.66l-.11 3.67v3.34l-.11.44v3.45l-.11 2.33v6.34l-.11 3v3.89l-.12 3.56v1.66l-.11 2.89v6.34l-.11 1.11v2.89l-.11 4v5.23l-.11 2.89v10.11l-.11 6.01-.11 5.89-.11 1-.11 10.89.11.22v3.34l-.11 3.22v16.67l.11 3.23v2.11l.11.89.22 3.89.11 3.45v1.22l-.11 7.33v3.9l-.22 4.77v.78l-.11 2-.23 7.01-.11 1.22-.22 5.78-.22 7.67v.33l-.11 2.34-.45-.11v4.78l-.22 3.55-.11 5.23-.11 5.22-.11 7.12h-2.45l-12.34.22h-4.67l-4.55-.11-7.34-.11h-4l-4.23-.23h-3.11l-2.22-.11h-1.34l-.22.11v-1.11l.33-25.12-23.34-.44-23.01-.56-.67-.11-.11 7-.22 5.23-.22 13.89h-3.78l-8.56-.22-12.34-.11-6.23-.23h-3.89l-3.78-.11-8.22-.11h-3.12l-8-.22-3.56-.11h-5l-2.11-.11-4.56-.11h-3.44l-4.12-.11h-3.11l-9.89-.23-.11 3.12-.12 10.44-.22 10.68-.33 16.67-.11 9.34v1.33l-.45 21.45-.11 4.56-.55 26.34-5.23-.11-7-.11-8.45-.11h-2.67z" stroke-linejoin="round"/></defs><use xlink:href="#s" fill="#004249" stroke="#00465f" stroke-width="5.76"/><defs><path id="t" d="M1113.63 1762.6l12.45.45.66-3 1.12-1.22.77-.78.78-.78.67-.78 1.11-1.44.11-2.78.11-1.56v-2l.11-5.34v-6.78l.12-3v-4.55l.11-2.12v-2.89l.11-1.22-3.56-.11-7.78-.11h-6.23l-1.22-.11-.78-.23-.66-.22-.45-.22-.55-.44-.67-.78-.45-.67-.33-.56-.11-.44-.11 4.67.11 2.33v4.12h.67l3.66.11.89.11-.22 7.45v3.44l-.11 1.89v2.11l-.11 2.45v2.33l-.22 5.23v7.44z" stroke-linejoin="round"/></defs><use xlink:href="#t" fill="#004249" stroke="#00465f" stroke-width="5.76"/><defs><path id="u" d="M1767.48 1317.76h-1.44l-4.22-.11-11.9-.34-3.56-.11-5.78-.11-2.11-.11-3-.11-1 .11h-.89l-9.67-.11-3.78-.11-5-.34-9.56-.33-6.01-.33-17-.78-5.56-.22-5.67-.23-11.78-.22-20.57-.44h-8.67l-1.67-.11-7.22-.23h-3.56l-4.11-.11-3.34-.11-3.55-.11-17.24-.22-6.22-.11.11-4.23.33-21.67.34-23.68.11-2.56v-.11l.11-7.56.22-9.33.11-9.12.34-9.11.22-6.67.11-7.12.11-3.33v-1.11l.11-1.67v-2l.23-12.56.11-8 .11-8.23.11-3.33.11-6.78v-3.45l.11-4.34-8.34-.33-8.44-.22-4.34-.22-2.67-.11-5.67-.12-8.56-.11-8.67-.22v-5.78l.11-3.11v-13.9l.12-3.55v-6.9l.22-14v-4.67l.11-7.45.22-8.78.11-6.89v-3.45l.11-7 .11-3.33.23-7.01.11-8.56v-1.66l.22-6.89.22-10.45v-3.45l.11-5.89.23-7.45.22-11.34.11-5.22.33-19.45.11-6.89.34-13.68.22-5.78v-6.67l.11-5.78.33-10.22.23-11.34.33-9 .33-13.68v-2.66l.12-4.23.44-17.34.11-3.44.22-6.9.45-17.56v-2.33l38.24.55h.55l2-.11h7.12l37.68.67h10.23l7.67.22 26.23.33 3.01.12 8 .22.78.11 17.01.22 2.11.11 12.89.11 5.89.12h6.9l.44.11 12.9.22 26.56.33h4.89l1.67.11 39.69.67h.55l1-51.58v-.55l.23-13.67.11-1.45.33-6.22.45-25.13.22-5.89v-3.78l.11-4.44v-5l.11-3.01v-5.33l.11-5.78.22-6.23v-3.55l.23-8.34.11-4.67v-2l.11-1.44.11-4.01v-5.78l.11-9.44.11-6.34.11-3.89.23-11.34.11-1.67 7.78-1.89 9-4.55 5.45-7.34 4.89-7.56 3.67-2.55 7.33-4.01 6.56-.77 10.34-.23 10.9-2.66 7.33-6.45 3-1.45 10.12-.22 14.67.34 3.23 2.22 3.11 3.67 3 4.44 2.56 13.01 2.67 11.45 3.22 11.67 5.22 11.56 6.45 8.22 4.78 1.89h5.34l.33-.11h5l.56-.33h.11l7.56-3.78 12.45-12.89 7.34-5.78 10.44-6.67 11.34-15.68 4.56-8.11 6-7.34 11.45-12.11 6.67-6.12 3.23-7.56.44-.88 2.89-11.57.11-7.33 1.23-2.67 5.55-15.01 2.45-5.44 3.67-4.34 6.33-2.89 3.78-.55 5.56.78 6.45 1.11 7.89 1.11 8.45 4.56 5.45 5 11.67 6.56 5.22 4.44 3.67 7.12 1.45 9.22.22 8.01-8.12 14-5.22 3.45-3.11 5.44-3.23 11.34-.77 6.23 1.66 5.89 1.89 2.44 3.45 2.34 14.56 5.89 11.9 1.55 4.44-.77 10.12-3 8.89-2.67 4.34-2.67 8.44-8.45 6.23-3.89 4.34-4.44 4.44-12.01 4-16.34 2.23-25.9 1-12.56.66-5.11 2.12-5 4.33-1.67 5.67-.22 6.78 3.44 7.34 4.45 6.89 8.67 2.56 4 1.44-.22 1.23 1.78 1.11 1.22.78 1.11 2.55 4.67 2.23 5.11 3.33 10.56 1.11 4.11 1 2.23.34 1.78 1.44 5.33.11 1.56 1.11 7.22 2.89 15.79 1.12 3.89 1.22 2.78.33 1.11 2.34 4.56 4.33 7.11 2.67 2.89 3.67 2.78 1.22 1.89 2.22 4.89 2 4.45 1.01 2.55 3.89 6.23 2.44 3.11-.11 2v1.89l-.33 22.01v1.55l-.45 24.35-.33 17.89-.22 8.12v5.56l-.56 21.34-.56 26.01-.33 26.79V830l-.67 23.01 2.56.11-.44 27.9-.34 26.9v.56l-.78 51.91v.22l-.11 16.9-.66 35.23v.23l-.34 24.34-.44 27.68-.89 52.46v.34l-.78-.34-45.8-.66h-2.33l-5.23-.11-15-.12-24.35-.33-6.67-.11-3.67-.11-15.67-.11-10.01-.11h-.55l-1.22-.11-9.34-.12-3.45-.11h-1.33l-5.45-.11-6.33-.11-11.9-.11h-12l-6.01-.11h-13.45l-2.22-.22h-2.11l-1.34-.12h-4.33l-1-.11h-4.12l-12.78-.11-5.22-.22-3.45-.11h-2.45l-.33-.11h-.11l-.22-.34-.34-1.11-.11-.55-.22-.34-.22-.44-.22-.22-.23-.11-.44-.23-.89-.22h-.45l-.33.11-.22.34-.78.55-.67.89-.66 1-.56.56-.22.11-.22.11h-5.34l-1.11-.11h-.22l-.78-.45-.22-.11h-.23l-.22.11-.67.34-.22.11-.67.11-.66-.11-5.89.11-10.34-.11-5.34-.11v6l-3.33.11-1.45-.22-7.89-.45-6.78-.22-.45-.11-.33-.22-.56-.78-.22-.45-.33-.22-1.67-1.11-.44-.22-.78-.11-6.34-.22-1.78-.23-.55-.11-.22-.11-.23-.11-.89-.67-.77-.66-.45-.23-.44-.22-.45-.11h-.55l-6.01-.22-3.55-.11h-2.56l-10.01-.23-10.56-.33h-5.89l-1.33.22-1.67.11-.78.12h-.66l-2.78-.56-.45-.11-.33-.11-.56-.45-.33-.11-.22.11-1.11.45h-4.23l-2-.11h-1.67l-2.44-.12-8.45-.11-.45-.11h-.22l-.11-.11-.22-.22-.11-.45-.34-1.11-.11-.33-.33-.33-.67-.45-.44-.22-.67-.45-.33-.11-.22-.11-.45.11-.22.23-.67.44-2.33 2.67-.67.44h-.67l-5.44-.55h-1.34l-1.78.11h-.33l-.67.22-.89.11-.66.11-.34.22-.89.78-.33.11-.44.12-.45-.12-.22-.11-.33-.11-1.12-1-.44-.11h-.11l-.34-.11-10.45-.22-5.78-.11-9.33-.23-8.23-.11-4-.11h-3.89l-4-.22-3.56-.11h-3.11l-.56-.22-1.33-.67-.23-.11-1.11-.11-1 .66-.78.45-.77.44-.23-.33-.22-.11-.22-.11-.78-.11h-1.56l-7.55-.12-4.45-.11-8.89-.22h-8.56l-.23.11v.11l-.11.23v.33l-.22 7.11v.22l-.11.12-.11.11-.11.11h-.56l-3.56-.22-4.78-.12-3.44-.11v1.56l-.11 6.78-.45 30.35-.11 5.11-.44 25.12-.23 13.23-.33 13.67-.33 19.68-.11 9.44-.34 18.57-.11 4.67v3.33l-.33 20.56-.34 20.57v5.44l-.11 2.23h-1.78z" stroke-linejoin="round"/></defs><use xlink:href="#u" fill="#004249" stroke="#00465f" stroke-width="5.76"/></svg>