<svg width="384" height="4.53in" viewBox="0 0 2880 3258" xmlns="http://www.w3.org/2000/svg" xmlns:xlink="http://www.w3.org/1999/xlink"><path fill="#fff" d="M0 0h2880v3258H0z"/><defs><path id="a" d="M1244.54 3155.37l-16.09 3.77-.2-.41-1.12-2.14-1.43-2.74-.71-1.84-.31-.71-1.01-2.54-.72-2.24-.51-1.74-.91-3.46-.92-3.76-1.22-5.91-2.14-7.94-2.54-9.67-.82-3.16-.81-3.56-.31-1.94-.1-1.12-.2-1.63v-3.86l.1-1.33.2-1.53.41-1.83 2.03-9.36 1.02-3.67.72-3.05 1.42-4.89 2.34-7.33 2.04-6.72 1.53-4.58 1.73-4.99 2.04-4.58 1.83-3.67 3.15-5.5 1.53-2.75 2.14-2.95 3.16-3.77 2.75-3.36 2.85-2.85 3.26-2.85 3.56-2.64 3.06-2.14 3.56-2.14 2.75-1.53 3.36-1.83 3.05-1.42 2.85-1.02 2.96-.92 2.85-.81 4.38-.82 5.6-.51 7.43-.1h5.7l3.47.1 2.03-9.57 3.57.1 1.73.41 2.75-13.54 17.92-3.16 5.29-.51 3.98-.3 12.01-2.55 3.16-.61 9.37-3.87 8.55-4.98 5.7-4.28 1.83-2.04 2.86-5.39 5.6-16.7 6.41-25.66 5.91-19.14 4.27-11.6 3.26-8.96 1.33-8.35.2-13.65-1.73-13.64-2.55-9.67-2.54-6.62-4.38-6.72-7.74-8.55-11.3-10.59-9.07 1.12-1.01-7.84 5.39-1.02-.91-3.25-.92-3.77-.41-4.79-.51-13.23 1.02-23.72 3.57-33.6 1.93-13.44 4.48-34.01.51-4.68.41-5.19.2-6.42v-8.35l-.3-9.16.1-5.9.51-5.5 4.99-23.83 5.19-22.09.81-2.65 1.53-3.97 5.7-10.08 1.43-3.36 1.02-3.46 1.32-4.68-.51-28.41-.91-33.8-.11-11.81v-7.74l.11-7.33.4-8.04 9.47-1.12 4.28-.51-1.63-22.6-.51-4.58-.71-4.59-.51-2.13-.51-2.75-1.22-4.99-1.12-4.18-1.12-4.07-.71-2.14-.82-2.54-.81-2.14-1.02-2.44-1.02-2.24-1.22-2.55-1.33-2.44-6-10.39-12.83-22.09-15.89 11.81-17.21-9.88-7.84 13.95-2.85-3.56 5.09-21.18-.51-19.55-3.05-6.21 15.68 9.17-5.4-10.18-.51-1.53-.2-1.22.2-.82.51-.91 5.7-4.79-5.7-9.57-2.95-5.5-1.53-3.05-1.42-2.95-1.84-4.08-1.12-2.95-1.42-4.17-.82-2.45-1.73-6.31-1.02-4.58-.81-5.5-1.33-7.94-.5-2.95-2.75-15.68-1.23-6.82-5.09.61-4.99.81-3.36.61-.91.51-.61.61-5.5 6.72-.31.31-.41.41-1.01.61-6.42 1.93-16.09 3.26-17.11 3.66-.71-2.03-.71-2.75-.51-2.14-.2-2.85v-2.04l.3-6.51v-5.4l-.71-10.28-.61-4.28-1.12-5.39-1.33-4.28-1.62-4.28-2.14-3.66-2.35-3.06-4.68-4.68-2.55-2.14-3.46-1.73-3.36-1.22-3.66-.41-4.18.11-16.8 1.83-2.34-9.27-5.09.92-8.15-.51-5.09-1.63-3.26-2.14-1.83-1.22-1.33-.92-1.22-.3h-1.22l-2.14-9.16 6.52-2.04 1.32-.41 14.87-3.87 5.4-1.22 26.47-7.23 6.42-2.75-9.37-22.8-12.12-29.53-3.46-9.47-3.46-8.85-22-10.9-16.29-22.29-1.12-.31-3.77-.92.1-2.54.11-.82.3-1.52 1.53-4.18.61-1.93 1.02-3.16 3.46-.1 2.44-.2 2.24-.11 6.83.21 7.63.91 7.64 1.23 6.01.81 1.63.31 7.33 1.32 6.92.61 1.63.1h5.91l2.14-.1.3-.1 1.53-.1 1.02-.1-1.22-2.45-4.08-8.55-.51-.92-6.41-12.32-1.02-1.93-1.73-3.36-3.26-6.52-1.83-3.46-1.53-3.05-2.65-5.3-2.34-4.37-.2-.51-6.01-11.81-.82-1.33-3.97-7.94-9.36-17.41-8.66-16.08-1.53-2.75-.61-1.33-2.65-5.6-1.52-3.15-.51-.72-1.12-1.42-1.63-5.7-.41-1.63 8.76 14.25v.21l-.51 1.93.81 3.87 19.35 30.95 2.95 3.05 2.96-.3 17.1.61 11.1.31 16.91-.21 7.84-.2-.72-10.29-.81-12.31-.51-7.95-.2-7.43 3.05.71 4.48.72h.61l1.53.1h3.36l2.04-.31 1.32-.2 7.13-1.53 10.9-2.34 9.87-2.04 6.01-1.22v.21l-.51 12.21-.61 8.66-.31 4.68-.61 12.12 4.79 3.36 2.85 6.61 1.94 1.63.91 1.94.41 1.93-.2 3.46 1.01-.3 10.39 2.65 4.58-1.84 1.53-.61 23.52-20.46 7.94-4.89 8.15-4.07 10.59-1.63 6.52-4.17 4.89-2.24 2.03 2.24.92 1.12.92 1.22 1.12 1.52 2.24-.4 4.58-.21 3.97-.51 5.4-.1h3.36l3.87-.4 3.46-.11 3.05.21h3.36l3.06-.1 3.15-.31 2.14-.61 2.45-1.02 1.12-.61 1.32-.51h1.12l1.43.2 1.63 7.84.3 4.08.1 2.24 3.57 3.46 6.41 6.11 8.56 8.24 10.99 10.49 54.07 23.72 2.24.82 24.24 21.58 1.12.92 1.53 2.24 2.95 4.27 2.85 4.08 2.85 4.07 2.85 4.07 2.04 2.85.71 1.43 2.34 4.58 2.45 4.68.81 1.73 1.43 3.16 1.93 4.58.92 2.04 1.83 4.07 2.65 5.4 5.09 10.48 4.38 8.76 2.14 4.78 2.44 6.62-6.21 1.63-2.75.51-.71.2-4.69.82-3.36.4-18.53 2.14-3.66.21-5.81.51-10.28 1.22-6.11.81-2.55.41-3.56.51-1.94.2-3.05.61-2.14.31-1.43.51-1.12.2 1.94 4.38 4.68 6.62 2.34 2.54 2.35 2.45 5.29 4.98 1.94 1.84 7.23 6.21 3.26 3.36 3.76 3.56 4.79 4.79 6.82 6.51 1.02 2.85 1.63 1.94 3.66 3.76 4.38 4.18 8.66 8.25 2.34 2.03 2.24 2.24 1.63 1.53 2.55 2.44 4.17 4.28 1.43 1.42.2.31 7.03 5.19 4.99 2.14 1.52.3 1.43.82.71.41 2.85 3.25 3.16 1.84 13.64 7.73 1.23.72 15.68 8.35 1.42.81 25.05 13.44 6.93 3.87 3.46 1.22 1.83.61 1.53.41 3.87 1.02 1.53.2 1.93.51 2.55.61 6.92 1.32 5.81 1.12 2.34.41 3.05.41 5.4.61 7.94.41 3.57.1.3 2.03.31 1.94 6.72 19.45 6.11 16.69 1.02 6.01-.72 2.75-4.17 6.92-16.8 21.79 4.37 3.66 2.04 1.43 2.75 1.73 2.04 1.12 2.44 1.22 1.83.72 5.6 2.03 4.99 1.43 8.76 2.44 2.34.71 1.63.41 1.73.41 1.43.3.81-3.76.82-2.75.81-1.94v-.2l.92-1.73 1.02-1.43 1.22-1.12 2.14-1.73 2.65-1.22 4.37-.71 1.33-.1h2.34l3.56-.11 3.16-.3 2.34-.51 2.34-.71 2.86-1.53 2.13-1.53 2.14-1.93 1.94-2.24 1.73-2.45 1.73-2.74 2.65-4.48 3.87-5.81 2.75-4.07 4.27-5.29 2.96-3.57 1.93-2.03 1.73-1.84 3.77-3.76 5.5-4.79 9.26-7.02 8.56-6.32 2.54-1.93 2.65-1.83 1.73-1.02 2.04-1.12 1.63-.82 2.75-1.32 2.44-1.02 2.04-.91 6.21-2.75.92-.51.91-.51 1.33-.92 1.12-.71 1.32-1.02 1.02-.81.91-.82.82-.71.92-.92.71-.81 1.02-1.22.81-1.12 1.32-2.24 2.25-3.67.81-1.42.92-2.55h1.01l3.57.1 2.65.21.91.1 1.73.3 2.75.62 3.97 1.01 2.45.61 2.65.82 3.05 1.02 3.56 1.42 3.26 1.43 1.22.61 6.52 3.05 16.09 7.13 6.01 2.65 3.36 1.22 2.54 1.02 5.4 1.73 1.94.61 1.63.41-.62 5.6-.5 2.64-.51 2.55-3.77 12.42-.31 2.24-.2 1.42.3 1.33.41 1.22 3.26 7.02.71 1.23.92 1.32 4.99 6.01.71 1.52.31 1.63v1.63l-.21 1.02-.4.81-1.73 3.47-.31 1.22v1.53l.61 2.64.71 1.94.61 1.52.82 1.53 4.79 6.01 6.41 8.65 1.12.92-.81 1.12-.61 1.63-2.04.51-.71 1.42.3 1.73.41 1.84.71-.11-.51 2.55.41 4.28-.41 2.95-.81 3.15v1.02l.81 2.14 1.12.81.92.11-.2 8.65.61 19.55 2.13 3.56 97.86-50.8 37.98-54.68 1.22-1.83 16.4 6.21 17.11 6.11 7.53 3.56 4.18 2.85 3.87 3.98 1.93 2.64 6.72 11.91 2.24 3.98 14.16 28.5 13.74 28.82 3.46 6.72 4.08 6 6.11 7.43 9.77 9.47 7.64 5.4 3.26 1.73 4.48 1.93 8.25 31.16 67 2.95-55.09 52.64-70.87 65.36-13.95 7.13-14.77 7.94-4.27 5.5-10.49 2.75-7.54 1.63h-9.67l-8.66-2.55-5.09-3.05-7.43-3.67 1.32 4.69 1.02 1.93 1.94 2.44 2.64 2.75 3.77 3.06 8.15 5.29 3.87 3.87.81 1.22 1.63 3.36 1.32 3.56-27.9 28.51-8.75 9.57-9.78 1.73-17 16.19-26.89 25.45-69.65 55.59-61.71 62.01-4.98-12.42-5.2-14.36-22.09 9.16 5.19 15.68.2 1.94-.2 1.22-1.02 2.34-4.17 4.38-11.21 9.37-12.01 11.6-1.33 1.73-3.46 4.28-2.14 3.16-3.76 8.55-.72 1.02-1.12.91-1.12.41-166.99 87.56-39.41 16.8-178.2 72.79-3.16 1.53-132.27 62.51-17.21 22.5-15.38-2.64-15.78 5.8-4.99 3.67-4.68-2.86-34.42 18.94-26.58 13.54z" stroke-linejoin="round"/></defs><use xlink:href="#a" fill="#cee3e4" stroke="#cef5f5" stroke-width="5.76"/><defs><path id="b" d="M1612.14 1851.97l-4.17-28.2-1.02-5.4-15.89 15.58-4.38-26.07-7.53.72-46.74 4.88-11 1.12-2.44-14.66-.21-4.17v-3.06l-1.93-21.99-1.94-27.08-.91-5.9-2.24-6.52-3.67-8.25-22.6 1.53-15.69 1.73 5.3 48.97-.31 1.53-1.22 1.02-17.51 8.75-6.82 3.36-2.55 1.53-2.34 2.85 2.95 1.02 2.14 1.32 1.93 1.84 2.04 3.25 1.63 4.08 1.73 4.58-.3.3-.92 1.53-1.53 8.25-4.78-1.63-19.86-5.6-20.57-4.89-3.46-1.02-8.76-2.54-6.11 7.74-8.45 10.48 2.14 11.91 2.44 14.26 1.43 8.14 2.44 13.75.41 2.03.2 2.14v4.89h-1.02l-9.47.61-5.19.31-11.4.81-4.38-27.18-3.67-22.71-8.96 2.55-8.76-31.77-2.44-9.47-13.14 2.45-3.56.61-4.58.91-3.87.72-.61-5.3-1.33-9.77-2.44-9.16-.51-1.94-4.48-16.09-1.12-3.97-4.99-17.1-.81-1.43-.62-.61-.4-.2-1.12-.51-1.43-.41-11.61-2.75-9.26-1.93-2.35-.51-3.15-.92-2.24-.4-1.43-.1-1.22-.11h-3.36l-6.31 1.23-24.75 6.31-2.24-9.67-3.46-17.41-7.33 1.42-22.71 4.68-2.95-12.93-1.33-5.19-.81-2.85-2.44-8.55-1.74-6.21-1.93-6.52-.1-.2-2.04-5.7-1.02-2.75-.61-1.33-.41-.81-.4-.61-.41-.61-.81-.82-.51-.51-1.02-1.22-2.55-2.64-7.74-7.74-7.43-8.45-6.21-6.82-.92-1.02-2.24-2.55-2.54-2.85-2.45-2.75-4.48-5.19-.61-.71-.61-.82-.81-1.22-1.13-1.73-1.12-1.63-7.33-12.42-1.42-2.34-.72-1.32-1.01-2.04-.21-.51-.4-1.02-.41-1.32-.71-2.85-.92-4.79-1.73-9.06-.92-4.78-.71-3.97-.71-3.98-1.94-10.48-.51-2.45-.3-1.62-.61-3.16-.41-2.44-.61-2.55-.61-2.24-.82-2.75-.61-1.63-.41-1.22-.51-1.42-.4-1.43-.51-1.42-.82-2.04-1.22-3.06-1.12-2.54-2.95-6.82-.61-1.53-.82-2.24-.81-2.04-1.02-2.64-.71-1.84-2.55-7.43-.51-1.63-.61-1.83-.41-1.32-.81-2.96-1.22-3.86-.72-2.14-3.15-10.18-1.33-4.08-.4-1.32-.72-2.14-.61-1.93-.71-1.94-.71-1.63-.92-2.24-1.12-2.54-1.42-3.06-1.43-2.44-1.22-2.14-1.63-2.44-1.43-1.93-1.73-2.35-2.95-3.56-3.36-4.17-4.69-5.4-2.54-2.95-5.5-6.62-1.53-1.83-1.22-1.63-1.43-2.04-1.32-2.24-1.22-2.44-.71-1.53-.31-.81-.51-1.12-.61-1.43-.51-1.42-.41-1.12-.61-2.75-.3-1.84-.41-2.03-.41-2.85-.2-1.94-.1-1.73-.1-1.53.1-7.12.2-6.42v-4.48l-.3-3.76-.11-2.14-.2-1.94-.1-1.12-.2-1.62-.21-1.33-.71-4.89-.71-3.46-.51-2.24-1.33-5.6-1.93-6.21-.61-1.63-.51-1.42-.51-1.32-1.02-2.65-1.22-2.75-.92-2.24-1.02-2.04-1.93-3.97-1.94-4.07-1.22-2.85-.71-1.73-.92-2.14-.2-.61-.71-2.04-.82-2.34-1.12-3.87-.41-2.14-.4-2.03-.51-2.75-.31-2.04-.2-1.73-.2-1.63-.11-1.73-.1-1.02-.1-3.05-.1-2.55v-6.61l.1-3.16v-2.04l.1-1.83.21-3.36.3-4.07.1-1.22.51-6.01.1-1.93 1.12-14.66.21-2.86.1-2.54v-2.95l-.1-1.73-.1-1.84-.21-1.32-.2-1.32-.51-1.94 1.12-.51 1.02-.51 1.22-.81 5.8-3.46 5.2-2.85 3.56-2.04 1.63-.51 10.39-3.56 1.02-.82 1.83-2.24.81-2.24.31-.91.2-3.57-.81-4.37-11-42.26-1.22-3.05-.72-1.22-.91-.92-1.63-.81-4.07-.72 8.45-18.63-6.93-23.41 11.71-3.67.61-.61.31-.82-.1-2.54-1.43-2.65-2.03-1.52-23.53-11.41-8.24-4.68 4.58-12.22 1.12-3.26 1.93-5.39-10.49-.21-25.04 6.62 16.49 53.05-5.29 1.32-18.13 3.66-1.83.51 3.56 9.27-42.05 8.14-38.29 7.74-1.22.1 2.34 12.53 3.16 12.01 2.13 9.67 5.1 18.02 6 21.18 4.48 14.66 9.68 27.9 1.12 2.34 1.53 2.24-1.74 3.26-8.65.3-4.99-5.7-2.14-2.54-5.8-8.96-13.55-19.35-6.21 2.24-7.53 3.46-13.34 3.47-7.74 2.74-1.83-7.53-1.12-6.31-1.43-10.79-4.28-55.29-2.54-30.75-2.04-19.95-5.6-41.85-3.26-22.9-3.15-19.14-2.14.91-1.84.71-1.83 1.12.82 4.08 1.12 6 1.52 11.3 2.24 17.31-3.15-1.12-1.53-.2-1.32.3-3.36.51-4.28.82-4.69.41 2.04 7.02.71 2.75.51 1.93.41 1.63.92 4.79 3.36 13.84 3.05 13.75 1.22 5.7 1.63 6.11.61 2.34 2.04 6.82 2.95 10.9 1.23 4.37 1.22 4.59 1.73 8.14.81 5.09.41 2.24.61 5.6.21 3.26.5 6.11.21 4.68v6.11l-.41 7.84-.41 3.26-.3 2.75-.82 5.49-.4 4.18-.82 8.14-.3 12.73v11.2l.2 12.12v7.22l-.1 9.57-.21 14.46v8.15l.11 4.78.1 4.79-.1 11.09v4.48l-.11 3.57-.51 9.67-.91 13.03-.41 6.62-.41 5.6-.51 5.09-1.12 12.73-.3 3.66-1.02 10.59-1.12 16.9-.81 9.27-.61 8.24-2.04 18.64-.1 1.11-.51 6.32-.51 7.02-3.77 42.66-.51 5.81-8.14.5 1.12-17.51 1.83-15.57 2.34-15.48.71-5.09 3.16-16.9 2.34-11.2 1.73-12.73.31-4.88.41-4.48.3-6.93 2.85-30.24.92-10.89 1.53-19.85 1.42-29.12.1-59.66-.71-12.32-.3-8.96-1.23-8.96-1.73-7.94-.2-.92-1.73-7.53-2.55-8.25-2.24-5.91-1.32-2.85-1.22-2.44-1.23-2.44-2.03-3.26-6.42-10.18-1.83-2.96-4.07-6.41-12.22-19.14-.92-1.32-14.97-23.93-17.51-25.96-11.31-19.14-.4.3-.92.61-1.42 1.12-1.53 1.12-3.97 2.55-1.23.71-2.95 1.63-2.14 1.22-.51.41-1.01.81-2.14 1.73-.31.21-2.85 2.85-1.32 1.32-1.53 1.53-1.53 1.43-1.53 1.52-.3.21-.41.4-.41.41-1.12 1.12-2.64 2.75-4.38 5.09-.31.31-.61.91-2.34 2.95-1.22 1.63-.61.92-2.04 3.05 3.26 3.77 2.44 2.75 1.63 1.83 3.77 3.97 3.16 3.26 2.54 2.75 2.45 2.55 3.56 3.76 2.85 3.26 2.95 3.46 1.23 1.53 2.64 3.16 1.43 1.73 1.93 2.64 1.02 1.63.92 1.53.81 1.22 1.02 1.83 1.33 2.55.71 1.53.91 2.24.72 2.24.51 2.03.61 2.24.2 1.43.1.61.41 2.65.1 2.13v3.16l-.2 3.56v.92l-.41 5.19-.61 6.62-.61 8.86-.51 7.53-.81 8.25-.62 9.16-.2 2.04v2.65l.2 2.23.31 2.55.51 2.34 2.14 7.64 1.12 5.29.3 1.83.1 2.14v2.04l-.3 5.6-2.75 4.68-1.43 2.04-8.24 8.75-2.75 3.26-1.12 1.53-1.73 3.05-2.55 4.59-9.88 17.1-3.66 5.4-26.68 34.31-4.89 6.21-13.85-10.9-9.47-6.82-5.09-3.05-9.67-4.48-9.17-2.95-12.01-2.24-52.85-8.45-23.32-3.87-9.06-2.85-4.59-2.96-3.76-3.15-2.45-2.75-3.66-5.19-1.12-2.14-3.26-6.21-3.26-7.44-3.87-10.69-3.77-14.35-1.52-8.25-.31-6.21-.2-13.54.81-19.45 1.83-11.09 2.65-11.61.51-3.56.41-8.86-.61-5.19-1.73-7.84-2.35-6.93-14.56-43.88-6.11-17.71-2.24-7.33-2.03-7.54-.72-4.48.31-8.14 1.12-5.91 1.12-3.36 2.14-4.27.61-1.02 4.07-3.87 1.94-1.53 7.53-3.46-7.74-1.32-2.95-.61-2.24-.61-3.36-2.24-1.33-1.23-1.22-1.63-1.22-2.44-.71-1.53-.61-2.13 33.29-10.39.31-.1 25.56-7.94L568 994.1l21.69-6.72 3.05-.82 1.63-.4 1.63-.72.41-.4 4.27-3.26 4.79-12.93 2.54-7.03 1.12-1.73v-.2l.82-2.14-5.3-4.48-35.43-40.11-3.36-3.87-4.89-3.97-6.21-6.82-7.84-6.62-11.81-29.12 4.78-.2 5.5-18.53 2.65-4.69 4.17-2.34 1.22-1.32-76.88-177.77-4.07-5.6-5.4-24.43-.1-20.36 1.02-4.89 10.39-22.4 3.77-1.73 2.24-4.58 1.01-2.65-1.32-6.62.2-8.14-.61-5.09-2.54-11.61-5.91-14.46-3.56-1.83-6.42-7.23-3.87-4.58-3.26-4.89-1.93-4.17-1.22-2.85-6.01-7.43-.82-1.12-2.44-8.35 1.53-5.5-1.22-5.3 6-7.53 3.26-3.46 1.84-3.56 3.15-13.24 3.67-1.53 2.34.82 5.7-3.87 122.3-119.84L613 301.57l34.01-33.19 17.01-16.6 2.44-2.14 10.9-10.58 2.95-2.86 5.5-5.29 23.93-22.6L830.1 92.45l8.05-7.54 10.38-2.44 18.23-2.75 62.22-8.86L1192 31.97l52.85 129.3 43.99 111.08 31.46 78.5 6.42 16.9 4.78 10.28 22.4 46.32 2.86 7.95 31.87 82.46 9.26 27.09 90.22 218.28 60.69 144.47 124.54 112.2 133.6 118.61-.31 3.46-.41 2.65.41 8.45v11l-.51 5.39v1.53l.61 1.94.72 1.12-1.94 6.21-3.97 12.52-3.05 10.08-2.86 9.47-2.34 8.35-2.34 7.84-2.04 6.61-1.73 6.62-1.02 4.48-.71 3.26-.81 3.46-.92 3.16-1.83 7.53-1.02 4.17-.82 4.59-2.03 9.77-1.22 5.6-1.84 10.18-2.24 11.51-.51 3.15-.91 4.79-.92 4.88-2.24 12.02-3.05 15.37-.72 3.06-1.83 9.36-1.63 10.18-1.73 9.57-.61 5.3-.51 4.07-.82 6.21-1.93 12.53-.81 5.29-1.94 10.18-3.46 18.84-1.63 7.84-.92 4.88-1.52 9.98-1.02 5.8-.61 4.38-.92 5.6-3.56.2h-1.43l-4.99.62-4.99.81-9.16 1.83-4.79 1.02-2.75.92-3.36 1.32-4.48 2.04-7.33 2.64-7.03 1.73-2.54.92-2.04.61-1.22.51-1.63.82-1.32.81-.62.31-2.03 1.32-3.26 2.44-11.61 10.08-5.5 4.38-5.7 4.68-5.91 5.3-2.75 2.64-2.13 2.24-2.55 3.26-3.77 4.89-1.52 2.24-1.02 1.42-.82 1.02-1.32 1.53-.92 1.12-1.63 1.43-.71.71-1.63 1.42-1.12.72-1.53 1.01-1.93 1.23-3.36 1.52-3.57 1.33-5.39 1.12-4.48.81-3.77.61-2.75.71-2.14.72-2.44 1.22-2.55 1.42.51 2.55.61 2.65 2.24 10.59 27.7 9.97 17.51 6.62 1.63.71 2.35 1.84 1.83 3.97 1.63 8.14-.82 2.04-.81 1.02-1.83 1.83-5.2 3.77-6.92 4.17-3.26 1.63-6.82 1.93-16.09 3.47 9.16 41.53 9.07 43.17 6.72 34.42 4.07 19.14 3.26 12.93 24.44-3.77 15.68-2.34 4.58-12.12 1.12 1.94.92 1.22 1.02 1.12 2.44 2.44 3.87 3.06 3.05 2.24 7.13 4.48-1.32 4.99-3.46 11.81-6.22 23.31-.1.61-.61 2.34-2.04 7.64-32.99 10.49-41.34 13.13z" stroke-linejoin="round"/></defs><use xlink:href="#b" fill="#cee3e4" stroke="#cef5f5" stroke-width="5.76"/><defs><path id="c" d="M2557.21 2252.4l-201.42 188.96-67-2.95-8.25-31.16-4.48-1.93-3.26-1.73-7.64-5.4-9.77-9.47-6.11-7.43-4.08-6-3.46-6.72-13.74-28.82-14.16-28.5-2.24-3.98-6.72-11.91-1.93-2.64-3.87-3.98-4.18-2.85-7.53-3.56-17.11-6.11-16.4-6.21-1.22 1.83-37.98 54.68-97.86 50.8-2.13-3.56-.61-19.55.2-8.65-.92-.11-1.12-.81-.81-2.14v-1.02l.81-3.15.41-2.95-.41-4.28.51-2.55-.71.11-.41-1.84-.3-1.73.71-1.42 2.04-.51.61-1.63.81-1.12-1.12-.92-6.41-8.65-4.79-6.01-.82-1.53-.61-1.52-.71-1.94-.61-2.64v-1.53l.31-1.22 1.73-3.47.4-.81.21-1.02v-1.63l-.31-1.63-.71-1.52-4.99-6.01-.92-1.32-.71-1.23-3.26-7.02-.41-1.22-.3-1.33.2-1.42.31-2.24 3.77-12.42.51-2.55.5-2.64.62-5.6-1.63-.41-1.94-.61-5.4-1.73-2.54-1.02-3.36-1.22-6.01-2.65-16.09-7.13-6.52-3.05-1.22-.61-3.26-1.43-3.56-1.42-3.05-1.02-2.65-.82-2.45-.61-3.97-1.01-2.75-.62-1.73-.3-.91-.1-2.65-.21-3.57-.1h-1.01l-.92 2.55-.81 1.42-2.25 3.67-1.32 2.24-.81 1.12-1.02 1.22-.71.81-.92.92-.82.71-.91.82-1.02.81-1.32 1.02-1.12.71-1.33.92-.91.51-.92.51-6.21 2.75-2.04.91-2.44 1.02-2.75 1.32-1.63.82-2.04 1.12-1.73 1.02-2.65 1.83-2.54 1.93-8.56 6.32-9.26 7.02-5.5 4.79-3.77 3.76-1.73 1.84-1.93 2.03-2.96 3.57-4.27 5.29-2.75 4.07-3.87 5.81-2.65 4.48-1.73 2.74-1.73 2.45-1.94 2.24-2.14 1.93-2.13 1.53-2.86 1.53-2.34.71-2.34.51-3.16.3-3.56.11h-2.34l-1.33.1-4.37.71-2.65 1.22-2.14 1.73-1.22 1.12-1.02 1.43-.92 1.73v.2l-.81 1.94-.82 2.75-.81 3.76-1.43-.3-1.73-.41-1.63-.41-2.34-.71-8.76-2.44-4.99-1.43-5.6-2.03-1.83-.72-2.44-1.22-2.04-1.12-2.75-1.73-2.04-1.43-4.37-3.66 16.8-21.79 4.17-6.92.72-2.75-1.02-6.01-6.11-16.69-6.72-19.45-.31-1.94-.3-2.03-3.57-.1-7.94-.41-5.4-.61-3.05-.41-2.34-.41-5.81-1.12-6.92-1.32-2.55-.61-1.93-.51-1.53-.2-3.87-1.02-1.53-.41-1.83-.61-3.46-1.22-6.93-3.87-25.05-13.44-1.42-.81-15.68-8.35-1.23-.72-13.64-7.73-3.16-1.84-2.85-3.25-.71-.41-1.43-.82-1.52-.3-4.99-2.14-7.03-5.19-.2-.31-1.43-1.42-4.17-4.28-2.55-2.44-1.63-1.53-2.24-2.24-2.34-2.03-8.66-8.25-4.38-4.18-3.66-3.76-1.63-1.94-1.02-2.85-6.82-6.51-4.79-4.79-3.76-3.56-3.26-3.36-7.23-6.21-1.94-1.84-5.29-4.98-2.35-2.45-2.34-2.54-4.68-6.62-1.94-4.38 1.12-.2 1.43-.51 2.14-.31 3.05-.61 1.94-.2 3.56-.51 2.55-.41 6.11-.81 10.28-1.22 5.81-.51 3.66-.21 18.53-2.14 3.36-.4 4.69-.82.71-.2 2.75-.51 6.21-1.63 2.55-.61 1.22-.41 2.55-.81 2.13-.61 1.43-.41 1.53-.61 1.42-.51.21-.1 1.83-.82 2.14-1.12.1-7.22v-4.08l2.04-20.16.1-.4 1.73-5.4 6.82-15.27-7.23-4.28-18.12-10.08-.82-.91-.41-.92-.3-1.32.1-.72 1.43-3.66 4.68-11.2-2.95-1.73-13.34-7.03-9.47-5.09-8.25-4.68-6.21-3.36-6.42-3.77-5.19-2.85-4.79-2.95-3.36-2.04-2.34-1.63-6.21-4.58-6.21-4.88-3.26-2.75-2.24-1.94-17.82-15.78-6.11-5.29-4.38-3.67-1.63-1.22-1.73-1.22-1.73-.92-1.93-1.02-1.74-1.01-5.7-3.16-17.41-9.57-22-11.71-3.25-2.34-.41-.51-.1-1.83 1.02-5.09 4.07-21.79 1.53-8.65-15.99 5.19 1.22-9.47 3.36-18.63 1.53-8.25.92-1.53.3-.3-1.73-4.58-1.63-4.08-2.04-3.25-1.93-1.84-2.14-1.32-2.95-1.02 2.34-2.85 2.55-1.53 6.82-3.36 17.51-8.75 1.22-1.02.31-1.53-5.3-48.97 15.69-1.73 22.6-1.53 3.67 8.25 2.24 6.52.91 5.9 1.94 27.08 1.93 21.99v3.06l.21 4.17 2.44 14.66 11-1.12 46.74-4.88 7.53-.72 4.38 26.07 15.89-15.58 1.02 5.4 4.17 28.2 41.34-13.13 32.99-10.49 2.04-7.64.61-2.34.1-.61 6.22-23.31 3.46-11.81 1.32-4.99-7.13-4.48-3.05-2.24-3.87-3.06-2.44-2.44-1.02-1.12-.92-1.22-1.12-1.94-4.58 12.12-15.68 2.34-24.44 3.77-3.26-12.93-4.07-19.14-6.72-34.42-9.07-43.17-9.16-41.53 16.09-3.47 6.82-1.93 3.26-1.63 6.92-4.17 5.2-3.77 1.83-1.83.81-1.02.82-2.04-1.63-8.14-1.83-3.97-2.35-1.84-1.63-.71-17.51-6.62-27.7-9.97-2.24-10.59-.61-2.65-.51-2.55 2.55-1.42 2.44-1.22 2.14-.72 2.75-.71 3.77-.61 4.48-.81 5.39-1.12 3.57-1.33 3.36-1.52 1.93-1.23 1.53-1.01 1.12-.72 1.63-1.42.71-.71 1.63-1.43.92-1.12 1.32-1.53.82-1.02 1.02-1.42 1.52-2.24 3.77-4.89 2.55-3.26 2.13-2.24 2.75-2.64 5.91-5.3 5.7-4.68 5.5-4.38 11.61-10.08 3.26-2.44 2.03-1.32.62-.31 1.32-.81 1.63-.82 1.22-.51 2.04-.61 2.54-.92 7.03-1.73 7.33-2.64 4.48-2.04 3.36-1.32 2.75-.92 4.79-1.02 9.16-1.83 4.99-.81 4.99-.62h1.43l3.56-.2.92-5.6.61-4.38 1.02-5.8 1.52-9.98.92-4.88 1.63-7.84 3.46-18.84 1.94-10.18.81-5.29 1.93-12.53.82-6.21.51-4.07.61-5.3 1.73-9.57 1.63-10.18 1.83-9.36.72-3.06 3.05-15.37 2.24-12.02.92-4.88.91-4.79.51-3.15 2.24-11.51 1.84-10.18 1.22-5.6 2.03-9.77.82-4.59 1.02-4.17 1.83-7.53.92-3.16.81-3.46.71-3.26 1.02-4.48 1.73-6.62 2.04-6.61 2.34-7.84 2.34-8.35 2.86-9.47 3.05-10.08 3.97-12.52 1.94-6.21-.72-1.12-.61-1.94v-1.53l.51-5.39v-11l-.41-8.45.41-2.65.31-3.46 13.23 2.85-2.13 5.6 2.03.82.82.2 7.13.31 54.78 52.33 20.47 20.16 1.52 4.58 2.14 2.75 2.85 3.56 47.96 39.2 43.48 18.22 24.24 25.86 3.46 2.75 36.25 33.7 106.11-1.93 121.78 68.72 75.25 84.61-50.4 58.54 2.44 6.01 7.74 13.13 9.57 14.56 69.35 55.49 89.4-26.17 16.7-7.02 14.36-5.6 5.7-2.24 17.11-5.5 17.52-4.48 4.88-.92 7.54-1.83 1.02-.2 13.44-3.06 13.03-2.85 4.79-1.02 9.67-2.64 4.79-1.53 2.75-1.02 3.76-1.42 2.65-1.12 3.46-1.53 3.98-2.04 24.23-12.72 17.21-9.47 8.86-4.58 7.13-3.16 8.55-3.87 18.63-7.94 9.98-4.38 16.19-7.23 20.88-9.06 10.49-4.68 11.2-5.19 8.76-3.57 9.47-4.07 2.03-.92 8.66-3.66 21.79-9.37 3.05-1.32.61 1.63.11.3.2.82.1 1.32-.1 3.26-.61 10.59-1.32 26.98-.82 13.84-.51 4.59-2.04 24.84-4.37 37.46-2.96 25.15-2.95 29.94-.71 10.79.91 2.14-11.71 144.16-6.11 58.85L2802 2039l-2.04 38.38-2.34 2.55-3.36-3.67 3.46 7.03 1.02 27.38.1 1.12 1.02 142.14-6.62-1.84-8.14-2.34-15.69 33.8-130.23-38.08-42.06-18.12.71 6.82.51 5.09.61 5.2.82 11.5-5.8.92-19.76.51-2.14-.11-1.53-.1-1.62-.1-2.24-.41-2.14-.61-7.33-3.66z" stroke-linejoin="round"/></defs><use xlink:href="#c" fill="#9dc8ca" stroke="#9dd7f0" stroke-width="5.76"/><defs><path id="d" d="M1087.12 1819.9l1.42 25.04.31 4.59-13.34-1.23-2.14-.2-9.47-1.02-3.16-2.44-4.78 1.02-1.63 1.22-12.02-9.78-2.44-1.52-16.6-10.49-4.79-2.95-2.03-1.22-4.38-2.75-5.6-1.22-6.93-1.23-2.64.62-3.36 1.42-4.79 2.34-4.58 1.02-7.74 1.83-1.43 6.72v1.53l.21 1.43.51 1.32.4.51.82.61 2.03 1.73 6.93 6.01 1.32 1.22.51.61.51 1.02.31.91-4.59-.2-28.3-26.47-8.97-9.27-9.16-9.57-8.25-9.36-5.6-7.44-11.61-16.08-6.31-8.76-3.46-5.29-2.45-3.57-3.15-5.19-11.71-21.28-13.34-27.28-6.72-15.27-8.76-21.79-2.24-7.03-3.46-10.38-9.68-31.87-9.77-45.2-.61-3.36-.51-3.87-1.02-9.78-.2-2.85-.11-2.95-.3-31.77.51-6.92 4.68-60.37-6.41-1.74.1-1.11 2.04-18.64.61-8.24.81-9.27 1.12-16.9 1.02-10.59.3-3.66 1.12-12.73.51-5.09.41-5.6.41-6.62.91-13.03.51-9.67.11-3.57v-4.48l.1-11.09-.1-4.79-.11-4.78v-8.15l.21-14.46.1-9.57v-7.22l-.2-12.12v-11.2l.3-12.73.82-8.14.4-4.18.82-5.49.3-2.75.41-3.26.41-7.84v-6.11l-.21-4.68-.5-6.11-.21-3.26-.61-5.6-.41-2.24-.81-5.09-1.73-8.14-1.22-4.59-1.23-4.37-2.95-10.9-2.04-6.82-.61-2.34-1.63-6.11-1.22-5.7-3.05-13.75-3.36-13.84-.92-4.79-.41-1.63-.51-1.93-.71-2.75-2.04-7.02 4.69-.41 4.28-.82 3.36-.51 1.32-.3 1.53.2 3.15 1.12-2.24-17.31-1.52-11.3-1.12-6-.82-4.08 1.83-1.12 1.84-.71 2.14-.91 3.15 19.14 3.26 22.9 5.6 41.85 2.04 19.95 2.54 30.75 4.28 55.29 1.43 10.79 1.12 6.31 1.83 7.53 7.74-2.74 13.34-3.47 7.53-3.46 6.21-2.24 13.55 19.35 5.8 8.96 2.14 2.54 4.99 5.7 8.65-.3 1.74-3.26-1.53-2.24-1.12-2.34-9.68-27.9-4.48-14.66-6-21.18-5.1-18.02-2.13-9.67-3.16-12.01-2.34-12.53 1.22-.1 38.29-7.74 42.05-8.14-3.56-9.27 1.83-.51 18.13-3.66 5.29-1.32-16.49-53.05 25.04-6.62 10.49.21-1.93 5.39-1.12 3.26-4.58 12.22 8.24 4.68 23.53 11.41 2.03 1.52 1.43 2.65.1 2.54-.31.82-.61.61-11.71 3.67 6.93 23.41-8.45 18.63 4.07.72 1.63.81.91.92.72 1.22 1.22 3.05 11 42.26.81 4.37-.2 3.57-.31.91-.81 2.24-1.83 2.24-1.02.82-10.39 3.56-1.63.51-3.56 2.04-5.2 2.85-5.8 3.46-1.22.81-1.02.51-1.12.51.51 1.94.2 1.32.21 1.32.1 1.84.1 1.73v2.95l-.1 2.54-.21 2.86-1.12 14.66-.1 1.93-.51 6.01-.1 1.22-.3 4.07-.21 3.36-.1 1.83v2.04l-.1 3.16v6.61l.1 2.55.1 3.05.1 1.02.11 1.73.2 1.63.2 1.73.31 2.04.51 2.75.4 2.03.41 2.14 1.12 3.87.82 2.34.71 2.04.2.61.92 2.14.71 1.73 1.22 2.85 1.94 4.07 1.93 3.97 1.02 2.04.92 2.24 1.22 2.75 1.02 2.65.51 1.32.51 1.42.61 1.63 1.93 6.21 1.33 5.6.51 2.24.71 3.46.71 4.89.21 1.33.2 1.62.1 1.12.2 1.94.11 2.14.3 3.76v4.48l-.2 6.42-.1 7.12.1 1.53.1 1.73.2 1.94.41 2.85.41 2.03.3 1.84.61 2.75.41 1.12.51 1.42.61 1.43.51 1.12.31.81.71 1.53 1.22 2.44 1.32 2.24 1.43 2.04 1.22 1.63 1.53 1.83 5.5 6.62 2.54 2.95 4.69 5.4 3.36 4.17 2.95 3.56 1.73 2.35 1.43 1.93 1.63 2.44 1.22 2.14 1.43 2.44 1.42 3.06 1.12 2.54.92 2.24.71 1.63.71 1.94.61 1.93.72 2.14.4 1.32 1.33 4.08 3.15 10.18.72 2.14 1.22 3.86.81 2.96.41 1.32.61 1.83.51 1.63 2.55 7.43.71 1.84 1.02 2.64.81 2.04.82 2.24.61 1.53 2.95 6.82 1.12 2.54 1.22 3.06.82 2.04.51 1.42.4 1.43.51 1.42.41 1.22.61 1.63.82 2.75.61 2.24.61 2.55.41 2.44.61 3.16.3 1.62.51 2.45 1.94 10.48.71 3.98.71 3.97.92 4.78 1.73 9.06.92 4.79.71 2.85.41 1.32.4 1.02.21.51 1.01 2.04.72 1.32 1.42 2.34 7.33 12.42 1.12 1.63 1.13 1.73.81 1.22.61.82.61.71 4.48 5.19 2.45 2.75 2.54 2.85 2.24 2.55.92 1.02 6.21 6.82 7.43 8.45 7.74 7.74 2.55 2.64 1.02 1.22.51.51.81.82.41.61.4.61.41.81.61 1.33 1.02 2.75 2.04 5.7.1.2 1.93 6.52 1.74 6.21 2.44 8.55.81 2.85 1.33 5.19 2.95 12.93 22.71-4.68 7.33-1.42 3.46 17.41 2.24 9.67 24.75-6.31-3.67 4.48-27.29 44.28-4.89 9.57-6.11 10.39-2.44 4.07-.31-15.88-4.68-28.61-1.43-7.03-.5-1.73-.21-.71-.3-.71-.41-.92-1.53-3.26-6.52 2.75-5.7 1.73-20.67 5.91-22.2 6.11-5.19 1.42-12.93 4.28-10.39-42.86-19.96 3.25 4.79 17.01 8.35 30.64-10.49 6.31-9.88 6.01 1.84 37.47z" stroke-linejoin="round"/></defs><use xlink:href="#d" fill="#6bacaf" stroke="#6bb4d2" stroke-width="5.76"/><defs><path id="e" d="M1120.72 3196.91l-56.52 11.81-71.28 12.42-20.36 3.67-5.19 1.32-6.62-16.9-2.65-8.96-2.85-8.35-1.73-3.87-2.85-10.38-3.98-5.19-1.42-4.28-.41-3.87-.91-1.42-1.33-1.73h-5.9l-7.44-.21-22.91 5.09-20.36 1.73-11.31-2.54-14.76-3.46-3.36-.51-5.09-.51-3.47-.92-3.36-2.03-3.46-.82-28.21-6.41-3.56-1.02-15.99-15.98-77.39-77.38-31.77-31.77-48.06-51.82-15.07-16.19-21.79-31.87-83.5-122.17-88.49-122.99 1.02-4.68 2.55-9.98 2.95-9.88 3.16-9.67 3.46-9.57 3.87-9.26 4.17-9.47 4.18-8.86 4.68-8.76 4.89-8.65 2.85-4.68 2.34-3.97 6.01-8.86 6.52-9.06 2.44-3.26 1.43-1.83 1.93-2.55-11.61-1.02-12.22-.81-12.42-.82-3.16-.51-2.24-.3-3.66-.51h-1.33l-7.84-.51-6.41-.41-.92-.1-3.36-.2-1.42-.1-11.51-1.53-1.43-.92-3.36-.3-11.2-1.02-16.6-1.22-10.99-.82-4.18-.4-2.44-.21-7.54-19.85-11.1-31.16-1.32-1.52-1.22-2.04-1.43-1.83-5.29-4.99-5.6-4.68-1.84-2.04-2.24-4.28-4.99-11.81-2.64-6.92-12.12-28.41 6.21-2.75-33.3-68.41-2.14-8.25-7.53-29.02-11.91-34.31-.92-2.54-15.89-33.19-48.87-121.16-10.8 3.77-3.26 1.12-2.64.91-5.5 2.24-2.65 1.22 13.34-39.91-7.03-18.63-10.99-29.22-11.92-31.87-9.88-27.18-8.75-23.21-4.99-13.14 134.11-96.72-4.79-18.12-6.11-28.41-1.83-10.08-6.83-31.96v-1.43l-13.95 3.16-.61-.31-.51.92-1.22 1.01-15.88 5.81-113.24 8.75-26.98 13.85-34.72-91.12 26.57-16.39 21.18-154.35 3.47-14.66 5.19-22.3 5.6-1.83 7.33-3.36 4.07-2.55 3.87-3.36 4.79-4.78 4.48-2.45-6.31-1.62-7.44-1.84-8.24-2.95-4.49-1.93 2.75-20.16.51-6.42 1.94-13.33.3-1.74 1.84-12.82 1.42-9.27 2.55-16.29v-1.42l2.34-25.97 9.27 13.04 16.49 24.13 5.2-4.38 7.33-7.13 23.93-26.37 18.22-20.67-6.11-3.36-10.08-3.36-4.17-2.13-7.13-4.08-23.52-13.44-7.94-3.97-6.52-2.85-3.97-1.12 2.14-13.95.91-11.3.41-1.93.81-1.22.72-.51 2.64-19.45 6.01-38.99 1.43-5.3 2.75-26.26 1.02-5.4 1.12-24.64.2-2.14 2.44-12.01 62.93-24.33 24.24-9.57 31.77-11.51 17.11-6.82 18.63-7.13 73.11-28.1 8.56-2.85 6.11-1.73 15.88-4.38 49.59-16.49 7.84-1.94 30.96-10.58.61 2.13.71 1.53 1.22 2.44 1.22 1.63 1.33 1.23 3.36 2.24 2.24.61 2.95.61 7.74 1.32-7.53 3.46-1.94 1.53-4.07 3.87-.61 1.02-2.14 4.27-1.12 3.36-1.12 5.91-.31 8.14.72 4.48 2.03 7.54 2.24 7.33 6.11 17.71 14.56 43.88 2.35 6.93 1.73 7.84.61 5.19-.41 8.86-.51 3.56-2.65 11.61-1.83 11.09-.81 19.45.2 13.54.31 6.21 1.52 8.25 3.77 14.35 3.87 10.69 3.26 7.44 3.26 6.21 1.12 2.14 3.66 5.19 2.45 2.75 3.76 3.15 4.59 2.96 9.06 2.85 23.32 3.87 52.85 8.45 12.01 2.24 9.17 2.95 9.67 4.48 5.09 3.05 9.47 6.82 13.85 10.9 4.89-6.21 26.68-34.31 3.66-5.4 9.88-17.1 2.55-4.59 1.73-3.05 1.12-1.53 2.75-3.26 8.24-8.75 1.43-2.04 2.75-4.68.3-5.6v-2.04l-.1-2.14-.3-1.83-1.12-5.29-2.14-7.64-.51-2.34-.31-2.55-.2-2.23v-2.65l.2-2.04.62-9.16.81-8.25.51-7.53.61-8.86.61-6.62.41-5.19v-.92l.2-3.56v-3.16l-.1-2.13-.41-2.65-.1-.61-.2-1.43-.61-2.24-.51-2.03-.72-2.24-.91-2.24-.71-1.53-1.33-2.55-1.02-1.83-.81-1.22-.92-1.53-1.02-1.63-1.93-2.64-1.43-1.73-2.64-3.16-1.23-1.53-2.95-3.46-2.85-3.26-3.56-3.76-2.45-2.55-2.54-2.75-3.16-3.26-3.77-3.97-1.63-1.83-2.44-2.75-3.26-3.77 2.04-3.05.61-.92 1.22-1.63 2.34-2.95.61-.91.31-.31 4.38-5.09 2.64-2.75 1.12-1.12.41-.41.41-.4.3-.21 1.53-1.52 1.53-1.43 1.53-1.53 1.32-1.32 2.85-2.85.31-.21 2.14-1.73 1.01-.81.51-.41 2.14-1.22 2.95-1.63 1.23-.71 3.97-2.55 1.53-1.12 1.42-1.12.92-.61.4-.3 11.31 19.14 17.51 25.96 14.97 23.93.92 1.32 12.22 19.14 4.07 6.41 1.83 2.96 6.42 10.18 2.03 3.26 1.23 2.44 1.22 2.44 1.32 2.85 2.24 5.91 2.55 8.25 1.73 7.53.2.92 1.73 7.94 1.23 8.96.3 8.96.71 12.32-.1 59.66-1.42 29.12-1.53 19.85-.92 10.89-2.85 30.24-.3 6.93-.41 4.48-.31 4.88-1.73 12.73-2.34 11.2-3.16 16.9-.71 5.09-2.34 15.48-1.83 15.57-1.12 17.51 8.14-.5-.91 9.36-.72 11-.1 4.17-.1 5.5.1.92.2 5.9.41 6.31.41 7.13.3 5.5.21 5.8.71 10.18.71 11.61.21 6.41.3 5.91.31 5.8-.92-.3-1.02-.61-.91-.92-.61-1.12-2.24-5.6-8.66-18.84-3.87-7.12-2.54-3.87-1.74-2.34-6-7.13-.51.92-.61.61-.21.61v2.65l-.1.81-.2.92-.1.51-.41.91-.21.61-.2.92-.41 2.54-.61 3.26v.41l-.2 1.42-.1 2.14.1 1.53.2.92-.1.61-.1.51-.51 1.12-.71 1.42-.82 1.83-.2 1.43-.51 1.43v.3l-.1.51v2.54l.1 1.43-.31 3.36-.51 2.14-.71 2.14-.2 2.13v2.75l-.31 1.53-.2 1.93-.41 3.36-.2 1.84-.31 2.03-.3 2.24-.1 1.33-.51 6.31v1.02l-.21 1.22-.1.51-.1.51-.1.4v.41l.1.41v.41l-.1.3v.31l-.1.2-.31.51-.2.41-.11.3v.61l.21.41.2.41v.41l-.1.2-.2.51-.11.3-.1.31-.1.41v3.46l-.1.51-.1.51-.1.61-.21.51v.5l-.2.51-.1 1.53.3.61.61.82.41.71.41 1.42.3 1.02.31 1.43.1 1.32.2 2.34v2.55l.21 1.02.2.91.61.72.51.91.41 1.22.81 2.65.1.71.51 1.53.41 2.04.41 2.24.1 1.01v2.45l.2 1.32.41 1.63.41 1.63.3 1.12.62 1.93.2.72-.1.2-.21.2.11.51.4 1.23.21.91v1.43l.2.51.2.4.11.31.2.3.1.41.2 1.12.11 2.34v.82l.1 1.02.2 1.32.21.71.2.82.3.3.41.21.21.2.2.2.1.31.1.3.1.72.11.71-.11.3-.3.21-.2.2v.51l.2.82.3.3.51.41.41.41.1.3.1.41.11.61-.41 1.42-.51 1.43-.2.3.1.31.2.2.41.21.3.1.31.2.2.21.41.81.51 1.12.71 1.43.51.91 1.12 3.67 1.63 6.82.21.51.2.71.51 1.94.1.81-.1.92v.61l-.31.61-.4 1.12v.51l.3.1.51.2.51.21.3.3.41.71.92 2.24.41.92.3.81.51.92.31.82.4 1.01.21.72.51 1.12.91 2.44 4.08 10.59 2.34 5.39.4 1.02.41 1.33.51 1.93.82 2.44.61 1.63.81 1.22.41.62.61.71.61.51.2.3.41.41.21.51.4.81.21.82.51 1.73.2.92.3 1.52.21.41.71 2.24.2.81.92 2.55.51 1.53.31 1.22.81 2.44.31 1.22.3 1.23.31.81.2.51 1.22 1.73.82.81.71.51.1.31.1.3v.31l.11.51.4.61.51.61.41.2 1.42.92 1.02.82.61.61.41.4.41.51.3.51.31.61.2.71.31.92.1.61.2.41.41.3.41.31.41.31.2.3.2.51.51 2.04.21.4.3.51.31.51.4.31.51.4.41.41.31.41.51.61.2.41.2.61v.41l.21.81.3.41.61.71.92 1.02.51.61.91.91.31.41.1.51v.61l.1.71.11.62.1.61.4.81.41.61.51.21.41.1.41-.21.3.11.1.3.31.51.3.31.41.1.41.1.41.1.3.2.21.31.2.41.41.2h.4l.72-.1.2.1.31.31.2.51.2.4.41.51.92.92.71.71 1.22 1.02.71.51.72.41.61.2.81.41.51.3.41.41.3.41.11.4.1.61v.51l-.1.61.1.41.1.92.51 1.02.41.71.51.51.4.4.41.31.1.41-.1.3v.41l.1.31.1.4.31.51.61.92.41.61.4.81.82 1.33.2.51.21.61.3 1.22.31.71.3.41.21.2.81.1h.82l.4-.1.21.21.3.5.21.62.1.3.41 1.22.2.72.2 1.12v1.01l.21.82.1 1.02.1.71.2.51.11.2.3.21.41.1.61.2.92-.1.71.2 1.63.51.61.21 1.02.61.4.51.92 1.73.61.91.92 1.22 1.63 1.53 1.12 1.12.91 1.22.92 1.53 7.64 11.4 1.32 1.94 22.4-4.89 5.5 9.88-8.55 7.84-3.57 3.05-.91.81-2.55 2.14-2.75 2.04-.3.3-3.87 2.75-1.12 1.02-1.22.92-1.23.81-1.73.92 3.57 5.29 1.93 2.96 1.73 2.74.31.51 2.04 3.47.71 1.12 2.34 4.37 2.24 4.69 3.16 6.51 1.73 3.67 1.83 4.38 2.44 6.31 7.64 19.34.41 1.22 1.63 3.67 1.22 2.54.92 1.63 1.01 1.53 1.23 1.32 4.07 4.59 4.07 4.37 23.63 24.95 2.54 2.24 4.48 3.97 3.67 4.38 2.14 2.13 5.19 4.99 5.4 4.38 7.53 6.42 1.94 1.42 2.24 1.53 1.12.71 1.02.71 5.39-1.83 2.04-.71 1.53-.51 5.29-1.73 1.94-.82 2.95-1.01 3.56-1.23 4.48-1.52 2.86-1.02 1.12-.31 2.95-1.01 6.52-2.24 2.44-.82 3.26-1.02 6.31-2.03 2.24-.61 1.63-.51 4.07-1.23 1.63-.5 3.57-1.23 6.11-1.93 10.99-3.36 3.47-1.12 6-1.93 5.81-2.04 6.41-2.14 2.65-.71 1.02-.31 1.63-.4 2.95-1.02 2.95-1.63 1.43-.71 2.95-.82.51.92 1.94 3.56 1.52 2.34 5.1 8.86 6.41 11.4 2.55 4.18 1.93 2.75 1.02 1.42 1.53 1.53 1.42 1.22 3.16 4.99 6.52 3.05 3.56-.81 10.49 2.24 2.65 1.83 1.83 1.83 1.12 5.81 1.93 3.77-.81-3.47-.92-4.58-.61-2.34-.3-1.43-.41-1.83-.41-1.63v-2.24l.1-2.34.11-2.34.1-2.75.3-2.14.1-1.12.51-4.17v-.51l.21-1.43.4-3.36 1.02-7.12 1.73-9.78.62-3.25.71-3.67.2-.92 3.77.92 1.12.31 16.29 22.29 22 10.9 3.46 8.85 3.46 9.47 12.12 29.53 9.37 22.8-6.42 2.75-26.47 7.23-5.4 1.22-14.87 3.87-1.32.41-6.52 2.04 2.14 9.16h1.22l1.22.3 1.33.92 1.83 1.22 3.26 2.14 5.09 1.63 8.15.51 5.09-.92 2.34 9.27 16.8-1.83 4.18-.11 3.66.41 3.36 1.22 3.46 1.73 2.55 2.14 4.68 4.68 2.35 3.06 2.14 3.66 1.62 4.28 1.33 4.28 1.12 5.39.61 4.28.71 10.28v5.4l-.3 6.51v2.04l.2 2.85.51 2.14.71 2.75.71 2.03 17.11-3.66 16.09-3.26 6.42-1.93 1.01-.61.41-.41.31-.31 5.5-6.72.61-.61.91-.51 3.36-.61 4.99-.81 5.09-.61 1.23 6.82 2.75 15.68.5 2.95 1.33 7.94.81 5.5 1.02 4.58 1.73 6.31.82 2.45 1.42 4.17 1.12 2.95 1.84 4.08 1.42 2.95 1.53 3.05 2.95 5.5 5.7 9.57-5.7 4.79-.51.91-.2.82.2 1.22.51 1.53 5.4 10.18-15.68-9.17 3.05 6.21.51 19.55-5.09 21.18 2.85 3.56 7.84-13.95 17.21 9.88 15.89-11.81 12.83 22.09 6 10.39 1.33 2.44 1.22 2.55 1.02 2.24 1.02 2.44.81 2.14.82 2.54.71 2.14 1.12 4.07 1.12 4.18 1.22 4.99.51 2.75.51 2.13.71 4.59.51 4.58 1.63 22.6-4.28.51-9.47 1.12-.4 8.04-.11 7.33v7.74l.11 11.81.91 33.8.51 28.41-1.32 4.68-1.02 3.46-1.43 3.36-5.7 10.08-1.53 3.97-.81 2.65-5.19 22.09-4.99 23.83-.51 5.5-.1 5.9.3 9.16v8.35l-.2 6.42-.41 5.19-.51 4.68-4.48 34.01-1.93 13.44-3.57 33.6-1.02 23.72.51 13.23.41 4.79.92 3.77.91 3.25-5.39 1.02 1.01 7.84 9.07-1.12 11.3 10.59 7.74 8.55 4.38 6.72 2.54 6.62 2.55 9.67 1.73 13.64-.2 13.65-1.33 8.35-3.26 8.96-4.27 11.6-5.91 19.14-6.41 25.66-5.6 16.7-2.86 5.39-1.83 2.04-5.7 4.28-8.55 4.98-9.37 3.87-3.16.61-12.01 2.55-3.98.3-5.29.51-17.92 3.16-2.75 13.54-1.73-.41-3.57-.1-2.03 9.57-3.47-.1h-5.7l-7.43.1-5.6.51-4.38.82-2.85.81-2.96.92-2.85 1.02-3.05 1.42-3.36 1.83-2.75 1.53-3.56 2.14-3.06 2.14-3.56 2.64-3.26 2.85-2.85 2.85-2.75 3.36-3.16 3.77-2.14 2.95-1.53 2.75-3.15 5.5-1.83 3.67-2.04 4.58-1.73 4.99-1.53 4.58-2.04 6.72-2.34 7.33-1.42 4.89-.72 3.05-1.02 3.67-2.03 9.36-.41 1.83-.2 1.53-.1 1.33v3.86l.2 1.63.1 1.12.31 1.94.81 3.56.82 3.16 2.54 9.67 2.14 7.94 1.22 5.91.92 3.76.91 3.46.51 1.74.72 2.24 1.01 2.54.31.71.71 1.84 1.43 2.74 1.12 2.14.2.41-3.77 2.85-4.27 2.95-10.9 5.81-2.24 1.22-3.26 1.42-48.87 14.16-34.42 9.36z" stroke-linejoin="round"/></defs><use xlink:href="#e" fill="#09757a" stroke="#097d9b" stroke-width="5.76"/><defs><path id="f" d="M1617.84 2079.01l-2.44-6.62-2.14-4.78-4.38-8.76-5.09-10.48-2.65-5.4-1.83-4.07-.92-2.04-1.93-4.58-1.43-3.16-.81-1.73-2.45-4.68-2.34-4.58-.71-1.43-2.04-2.85-2.85-4.07-2.85-4.07-2.85-4.08-2.95-4.27-1.53-2.24-1.12-.92-24.24-21.58-2.24-.82-54.07-23.72-10.99-10.49-8.56-8.24-6.41-6.11-3.57-3.46-.1-2.24-.3-4.08-1.63-7.84-1.43-.2h-1.12l-1.32.51-1.12.61-2.45 1.02-2.14.61-3.15.31-3.06.1h-3.36l-3.05-.21-3.46.11-3.87.4h-3.36l-5.4.1-3.97.51-4.58.21-2.24.4-1.12-1.52-.92-1.22-.92-1.12-2.03-2.24-4.89 2.24-6.52 4.17-10.59 1.63-8.15 4.07-7.94 4.89-23.52 20.46-1.53.61-4.58 1.84-10.39-2.65-1.01.3.2-3.46-.41-1.93-.91-1.94-1.94-1.63-2.85-6.61-4.79-3.36.61-12.12.31-4.68.61-8.66.51-12.21v-.21l-6.01 1.22-9.87 2.04-10.9 2.34-7.13 1.53-1.32.2-2.04.31h-3.36l-1.53-.1h-.61l-4.48-.72-3.05-.71.2 7.43.51 7.95.81 12.31.72 10.29-7.84.2-16.91.21-11.1-.31-17.1-.61-2.96.3-2.95-3.05-19.35-30.95-.81-3.87.51-1.93v-.21l-8.76-14.25.41 1.63 1.63 5.7 1.12 1.42.51.72 1.52 3.15 2.65 5.6.61 1.33 1.53 2.75 8.66 16.08 9.36 17.41 3.97 7.94.82 1.33 6.01 11.81.2.51 2.34 4.37 2.65 5.3 1.53 3.05 1.83 3.46 3.26 6.52 1.73 3.36 1.02 1.93 6.41 12.32.51.92 4.08 8.55 1.22 2.45-1.02.1-1.53.1-.3.1-2.14.1h-5.91l-1.63-.1-6.92-.61-7.33-1.32-1.63-.31-6.01-.81-7.64-1.23-7.63-.91-6.83-.21-2.24.11-2.44.2-3.46.1-1.02 3.16-.61 1.93-1.53 4.18-.3 1.52-.11.82-.1 2.54-.2.92-.71 3.67-.62 3.25-1.73 9.78-1.02 7.12-.4 3.36-.21 1.43v.51l-.51 4.17-.1 1.12-.3 2.14-.1 2.75-.11 2.34-.1 2.34v2.24l.41 1.63.41 1.83.3 1.43.61 2.34.92 4.58.81 3.47-1.93-3.77-1.12-5.81-1.83-1.83-2.65-1.83-10.49-2.24-3.56.81-6.52-3.05-3.16-4.99-1.42-1.22-1.53-1.53-1.02-1.42-1.93-2.75-2.55-4.18-6.41-11.4-5.1-8.86-1.52-2.34-1.94-3.56-.51-.92-2.95.82-1.43.71-2.95 1.63-2.95 1.02-1.63.4-1.02.31-2.65.71-6.41 2.14-5.81 2.04-6 1.93-3.47 1.12-10.99 3.36-6.11 1.93-3.57 1.23-1.63.5-4.07 1.23-1.63.51-2.24.61-6.31 2.03-3.26 1.02-2.44.82-6.52 2.24-2.95 1.01-1.12.31-2.86 1.02-4.48 1.52-3.56 1.23-2.95 1.01-1.94.82-5.29 1.73-1.53.51-2.04.71-5.39 1.83-1.02-.71-1.12-.71-2.24-1.53-1.94-1.42-7.53-6.42-5.4-4.38-5.19-4.99-2.14-2.13-3.67-4.38-4.48-3.97-2.54-2.24-23.63-24.95-4.07-4.37-4.07-4.59-1.23-1.32-1.01-1.53-.92-1.63-1.22-2.54-1.63-3.67-.41-1.22-7.64-19.34-2.44-6.31-1.83-4.38-1.73-3.67-3.16-6.51-2.24-4.69-2.34-4.37-.71-1.12-2.04-3.47-.31-.51-1.73-2.74-1.93-2.96-3.57-5.29 1.73-.92 1.23-.81 1.22-.92 1.12-1.02 3.87-2.75.3-.3 2.75-2.04 2.55-2.14.91-.81 3.57-3.05 8.55-7.84-5.5-9.88-22.4 4.89-1.32-1.94-7.64-11.4-.92-1.53-.91-1.22-1.12-1.12-1.63-1.53-.92-1.22-.61-.91-.92-1.73-.4-.51-1.02-.61-.61-.21-1.63-.51-.71-.2-.92.1-.61-.2-.41-.1-.3-.21-.11-.2-.2-.51-.1-.71-.1-1.02-.21-.82v-1.01l-.2-1.12-.2-.72-.41-1.22-.1-.3-.21-.62-.3-.5-.21-.21-.4.1h-.82l-.81-.1-.21-.2-.3-.41-.31-.71-.3-1.22-.21-.61-.2-.51-.82-1.33-.4-.81-.41-.61-.61-.92-.31-.51-.1-.4-.1-.31v-.41l.1-.3-.1-.41-.41-.31-.4-.4-.51-.51-.41-.71-.51-1.02-.1-.92-.1-.41.1-.61v-.51l-.1-.61-.11-.4-.3-.41-.41-.41-.51-.3-.81-.41-.61-.2-.72-.41-.71-.51-1.22-1.02-.71-.71-.92-.92-.41-.51-.2-.4-.2-.51-.31-.31-.2-.1-.72.1h-.4l-.41-.2-.2-.41-.21-.31-.3-.2-.41-.1-.41-.1-.41-.1-.3-.31-.31-.51-.1-.3-.3-.11-.41.21-.41-.1-.51-.21-.41-.61-.4-.81-.1-.61-.11-.62-.1-.71v-.61l-.1-.51-.31-.41-.91-.91-.51-.61-.92-1.02-.61-.71-.3-.41-.21-.81v-.41l-.2-.61-.2-.41-.51-.61-.31-.41-.41-.41-.51-.4-.4-.31-.31-.51-.3-.51-.21-.4-.51-2.04-.2-.51-.2-.3-.41-.31-.41-.31-.41-.3-.2-.41-.1-.61-.31-.92-.2-.71-.31-.61-.3-.51-.41-.51-.41-.4-.61-.61-1.02-.82-1.42-.92-.41-.2-.51-.61-.4-.61-.11-.51v-.31l-.1-.3-.1-.31-.71-.51-.82-.81-1.22-1.73-.2-.51-.31-.81-.3-1.23-.31-1.22-.81-2.44-.31-1.22-.51-1.53-.92-2.55-.2-.81-.71-2.24-.21-.41-.3-1.52-.2-.92-.51-1.73-.21-.82-.4-.81-.21-.51-.41-.41-.2-.3-.61-.51-.61-.71-.41-.62-.81-1.22-.61-1.63-.82-2.44-.51-1.93-.41-1.33-.4-1.02-2.34-5.39-4.08-10.59-.91-2.44-.51-1.12-.21-.72-.4-1.01-.31-.82-.51-.92-.3-.81-.41-.92-.92-2.24-.41-.71-.3-.3-.51-.21-.51-.2-.3-.1v-.51l.4-1.12.31-.61v-.61l.1-.92-.1-.81-.51-1.94-.2-.71-.21-.51-1.63-6.82-1.12-3.67-.51-.91-.71-1.43-.51-1.12-.41-.81-.2-.21-.31-.2-.3-.1-.41-.21-.2-.2-.1-.31.2-.3.51-1.43.41-1.42-.11-.61-.1-.41-.1-.3-.41-.41-.51-.41-.3-.3-.2-.82v-.51l.2-.2.3-.21.11-.3-.11-.71-.1-.72-.1-.3-.1-.31-.2-.2-.21-.2-.41-.21-.3-.3-.2-.82-.21-.71-.2-1.32-.1-1.02v-.82l-.11-2.34-.2-1.12-.1-.41-.2-.3-.11-.31-.2-.4-.2-.51v-1.43l-.21-.91-.4-1.23-.11-.51.21-.2.1-.2-.2-.72-.62-1.93-.3-1.12-.41-1.63-.41-1.63-.2-1.32v-2.45l-.1-1.01-.41-2.24-.41-2.04-.51-1.53-.1-.71-.81-2.65-.41-1.22-.51-.91-.61-.72-.2-.91-.21-1.02v-2.55l-.2-2.34-.1-1.32-.31-1.43-.3-1.02-.41-1.42-.41-.71-.61-.82-.3-.61.1-1.53.2-.51v-.5l.21-.51.1-.61.1-.51.1-.51v-3.46l.1-.41.1-.31.11-.3.2-.51.1-.2v-.41l-.2-.41-.21-.41v-.61l.11-.3.2-.41.31-.51.1-.2v-.31l.1-.3v-.41l-.1-.41v-.41l.1-.4.1-.51.1-.51.21-1.22v-1.02l.51-6.31.1-1.33.3-2.24.31-2.03.2-1.84.41-3.36.2-1.93.31-1.53v-2.75l.2-2.13.71-2.14.51-2.14.31-3.36-.1-1.43v-2.54l.1-.51v-.3l.51-1.43.2-1.43.82-1.83.71-1.42.51-1.12.1-.51.1-.61-.2-.92-.1-1.53.1-2.14.2-1.42v-.41l.61-3.26.41-2.54.2-.92.21-.61.41-.91.1-.51.2-.92.1-.81v-2.65l.21-.61.61-.61.51-.92 6 7.13 1.74 2.34 2.54 3.87 3.87 7.12 8.66 18.84 2.24 5.6.61 1.12.91.92 1.02.61.92.3-.31-5.8-.3-5.91-.21-6.41-.71-11.61-.71-10.18-.21-5.8-.3-5.5-.41-7.13-.41-6.31-.2-5.9-.1-.92.1-5.5.1-4.17.72-11 .91-9.36.51-5.81 3.77-42.66.51-7.02.51-6.32 6.41 1.74-4.68 60.37-.51 6.92.3 31.77.11 2.95.2 2.85 1.02 9.78.51 3.87.61 3.36 9.77 45.2 9.68 31.87 3.46 10.38 2.24 7.03 8.76 21.79 6.72 15.27 13.34 27.28 11.71 21.28 3.15 5.19 2.45 3.57 3.46 5.29 6.31 8.76 11.61 16.08 5.6 7.44 8.25 9.36 9.16 9.57 8.97 9.27 28.3 26.47 4.59.2-.31-.91-.51-1.02-.51-.61-1.32-1.22-6.93-6.01-2.03-1.73-.82-.61-.4-.51-.51-1.32-.21-1.43v-1.53l1.43-6.72 7.74-1.83 4.58-1.02 4.79-2.34 3.36-1.42 2.64-.62 6.93 1.23 5.6 1.22 4.38 2.75 2.03 1.22 4.79 2.95 16.6 10.49 2.44 1.52 12.02 9.78 1.63-1.22 4.78-1.02 3.16 2.44 9.47 1.02 2.14.2 13.34 1.23-.31-4.59-1.42-25.04-1.84-37.47 9.88-6.01 10.49-6.31-8.35-30.64-4.79-17.01 19.96-3.25 10.39 42.86 12.93-4.28 5.19-1.42 22.2-6.11 20.67-5.91 5.7-1.73 6.52-2.75 1.53 3.26.41.92.3.71.21.71.5 1.73 1.43 7.03 4.68 28.61.31 15.88 2.44-4.07 6.11-10.39 4.89-9.57 27.29-44.28 3.67-4.48 6.31-1.23h3.36l1.22.11 1.43.1 2.24.4 3.15.92 2.35.51 9.26 1.93 11.61 2.75 1.43.41 1.12.51.4.2.62.61.81 1.43 4.99 17.1 1.12 3.97 4.48 16.09.51 1.94 2.44 9.16 1.33 9.77.61 5.3 3.87-.72 4.58-.91 3.56-.61 13.14-2.45 2.44 9.47 8.76 31.77 8.96-2.55 3.67 22.71 4.38 27.18 11.4-.81 5.19-.31 9.47-.61h1.02v-4.89l-.2-2.14-.41-2.03-2.44-13.75-1.43-8.14-2.44-14.26-2.14-11.91 8.45-10.48 6.11-7.74 8.76 2.54 3.46 1.02 20.57 4.89 19.86 5.6 4.78 1.63-3.36 18.63-1.22 9.47 15.99-5.19-1.53 8.65-4.07 21.79-1.02 5.09.1 1.83.41.51 3.25 2.34 22 11.71 17.41 9.57 5.7 3.16 1.74 1.01 1.93 1.02 1.73.92 1.73 1.22 1.63 1.22 4.38 3.67 6.11 5.29 17.82 15.78 2.24 1.94 3.26 2.75 6.21 4.88 6.21 4.58 2.34 1.63 3.36 2.04 4.79 2.95 5.19 2.85 6.42 3.77 6.21 3.36 8.25 4.68 9.47 5.09 13.34 7.03 2.95 1.73-4.68 11.2-1.43 3.66-.1.72.3 1.32.41.92.82.91 18.12 10.08 7.23 4.28-6.82 15.27-1.73 5.4-.1.4-2.04 20.16v4.08l-.1 7.22-2.14 1.12-1.83.82-.21.1-1.42.51-1.53.61-1.43.41-2.13.61-2.55.81-1.22.41-2.55.61z" stroke-linejoin="round"/></defs><use xlink:href="#f" fill="#004249" stroke="#00465f" stroke-width="5.76"/></svg>