<svg width="384" height="6.23in" viewBox="0 0 2880 4482" xmlns="http://www.w3.org/2000/svg" xmlns:xlink="http://www.w3.org/1999/xlink"><path fill="#fff" d="M0 0h2880v4482H0z"/><defs><path id="a" d="M1549.47 4358.89l-4.07 7.84-3.22 5.04-3.22 4.06-30.12 33.9-24.37 22.13-5.18 3.36-3.5 1.12-2.8.98-4.63.84-9.1-1.54-5.04-.28-20.45-7.7-14.29-2.38-10.09-2.81-10.08-3.78-8.83-5.18-5.04-5.04-5.18-5.46-7.28-5.47-7.99-4.34-8.26-4.06-4.9-1.54-3.93-2.8-10.08-9.95-3.08-4.62-15.69-13.45-3.64-3.36-9.81-9.24-6.3-6.02-4.48-5.05-3.09-3.36-.42-2.1-.42-1.82-1.26-3.22-6.02-15.69-.84-7.56-.42-1.54-1.54-6.16-2.8-6.45-2.66-4.9-5.19-4.48-4.48-3.36-5.6-3.78-5.6-5.47.28-2.38-.56-2.1-7.57-8.12-2.8-3.5-9.8-11.77-7.01-13.45-2.8-6.86-3.36-8.26-3.5-21.15-.42-18.07v-2.38l4.2-22.27 3.78-14.43 2.38-9.52 1.82-4.76 6.03-17.37 4.62-11.35-.56-6.72-4.06-2.52-.28.14-4.63-4.9 1.54-14.15.56-4.9-1.26-2.94-15.54-1.68-3.65-.42-2.52.14h-3.5l-3.22-.14-2.24-.56-1.54-.28-1.26-.42-.98-.42 1.12-11.21.56-14.71-3.08-15.82-5.05-22.27-.56-2.38-5.46-29.28-8.26-16.1-3.23-4.07-5.04-6.02-3.5-4.06-8.4-26.89-8.97-10.93-8.12-10.64-10.37-26.19-3.64-7.71-5.18-3.78-9.11-5.74-25.35-7-24.09-12.47-17.09-10.08-9.81-3.37-4.34-1.4-9.8-4.48-.98-2.1-3.23-6.58-2.8-5.75-6.58-20.02-11.91-11.07-14.84-11.9-17.23-15.13-14.15-10.37-9.1-9.94-4.07-12.19-4.34-11.62-5.88-5.18-.42-.14-8.83-2.8-13.44-3.79-21.99.14-8.55-2.1-13.59-2.8-16.52-3.5-14.43-7.56-14.57-11.35-15.83-7.98-8.96-5.74-5.18-3.51-8.83-10.36-9.66-10.23-2.24-5.32-.28-.56-1.4-3.22-.85-2.24-3.92-16.81-7.28-22.55-9.67-28.15-1.82-8.26-4.2-18.77-1.82-22.55 1.96-23.81 2.38-34.18-.7-22.97-4.76-20.03-1.96-4.48-8.13-21.71-1.4-5.18-1.68-13.03-.7-2.52-3.92 8.27-8.96 19.46-2.1 4.35-1.69 3.5-.98 2.52-1.26 3.22-1.4 3.78-1.26 4.48-1.68 7.15-.98 5.6-.56 5.04-.42 4.76-.42 4.49v5.18l.28 13.72-.14 11.07-.7 8.26-.7 5.05-.42 2.66-1.26 6.3-1.12 5.18-2.66 8.27-1.82 5.32-2.11 5.04-5.74 15.27-4.06 10.36.56 6.16-.98 2.38-1.12 4.49-1.68 5.6-1.12 11.2-.56 9.95.28 6.86.7 6.58 1.82 10.23 1.12 3.92 1.12 4.48 1.4 5.47 3.64 15.54 2.24 6.59.98 5.46.28 5.18.14 1.26-.14 5.74-.56 2.66-.28 1.97-2.38 8.4-1.26-.14-.84 2.52-2.1 6.72-.7 2.24-.84 2.67-1.4 3.92-2.1 4.76-2.66 5.18-3.37 6.3-20.03 34.32-5.74 9.94-1.4 2.39-6.16 10.36-3.5 6.16-.56.84-3.79 6.45-4.34 6.3-4.76 8.4-2.24 3.92-.84 1.83-.98 1.68-.84 1.82-.84 1.96-.56 1.54-.7 1.96-.56 1.82-.57 1.96-.56 2.24-.56 2.8-.56 4.2-.28 2.81-.14 3.22v4.76l.28 2.66.14 2.94.28 1.4-7-3.22-2.66-1.26-4.06-2.24-.98-.42-1.82-1.26-1.55-1.12-4.48-3.78-.7-.7-2.38-2.66-2.52-3.37-4.48-7.84-1.26-2.1-5.89-11.63-.56-1.54-.84-2.1-2.1-6.02-2.24-7.7-4.76-21.01-1.96-7.29-.7-2.66-.42-2.24-.84-2.8-1.82-5.74-1.41-3.36-1.12-2.38-1.26-1.97-.98-1.68-2.24-2.66-1.96-1.96-2.94-2.52-1.82-1.12-2.1-1.12-1.68-.98-2.8-1.26-9.81-3.22-29.97-9.81-21.02-7.14-4.34-1.4-8.12-2.52-21.29-7.01-17.37-6.16-9.11-2.94-21.85-7.14-10.08-3.36-10.09-3.65-2.94-.98-3.22-1.54-10.23-5.6-3.78-2.24-14.28-8.12-10.93-6.31-7.42-4.62-2.53-1.82-1.96-1.68-1.68-1.54-1.68-1.4-4.9-5.18-.7-.7-1.12-1.55-3.64-4.62-.84-.84-1.68-1.68-.85-.56-1.26-.7-.84-.42-1.54-.7-4.2-1.54-9.52-2.94-7.99-2.24-17.51-5.18-12.32-3.65-7.99-2.1-17.79-5.04-2.24-.7-2.52-.7-1.96-1.4-.98-.84-.56-.84-.28-.84-.28-.7-.14-.7-.14-1.96.14-1.54.28-1.26.42-1.69.56-1.96 3.64-12.46 2.1-7.15 10.93-37.25 3.08-10.65 5.88-21.01 1.4-4.62.42-1.54 1.4-4.9 4.91-16.95 8.26-30.25-.14-.14h-.42l-.14.14-.28.42-1.68 3.5-2.8 4.62-11.77-5.18-26.75-13.45-5.6-2.38-3.93-1.54-1.26-.84-.98-.7-1.82-1.54-.98-1.68-5.6-16.25-.84-1.54-.56-.7-.98-.56h-.98l-1.12.84-1.26 3.64-2.81 8.69-2.52 8.68-8.96 31.38-2.66 8.54-.7 3.78.84 2.1 1.96 1.68 2.1 1.12-7.14-.56-4.77-1.12-.56-.42-2.24-2.1-.42.14-1.54.42-.42.14-9.1-3.36-1.4-.56-.84.14-.85.42-.98.42-98.33-20.45 7.99-18.77 11.76-28.15 11.91-28.85 33.48-79.56 2.1-6.86L151 3041.88l22.55-59.53 70.59-185.44 3.09-7.99 87.12-239.08 4.76-15.41 11.77-38.94-1.26-5.46-.14-.42-14.99-62.61-3.36-4.34 15.13-2.1 15.54-2.1-.42 4.9 41.32 32.36 7.43 1.4 7.42-.7 1.96 1.26 3.92 5.32 1.97 1.96 1.12.7 1.26.98 1.68 2.24 2.38 2.1 4.76 11.63 12.05 3.22 23.25 2.94 33.34 2.94 18.21 1.54 7.14 3.08 5.18-1.96 3.5-2.94 3.37-1.54 3.92-4.62 2.52-3.92 2.94-3.92 2.24-3.37 3.08-4.34 2.66-3.64h.42l15.27 2.1 38.8 5.32 53.23 7.57 18.91 2.52 8.96 1.4 3.64.42 3.09.56 3.36.14 6.58.7 5.46.42 3.51.28 16.8 2.38 3.37.56 6.02.84 12.75 1.82 6.72.98 8.82 1.96 9.11 2.1 1.54.28 1.26.43 1.12.14 2.94.84 3.78.7 2.38.42 1.41.28 1.82.42 1.68.42 1.4.28 5.46 1.12 11.07 3.08 10.08 2.66 9.95 3.08 9.66 2.8 7.14 2.66 33.62 11.49 3.78 1.26 4.21 1.4 3.36 1.4 3.64 1.4 10.22 3.5 5.19 1.82 6.44 2.38 17.65 6.45 2.66.84 10.23 3.5 10.92 3.5 16.95 5.88 11.63 4.21 29.55 10.78 25.49 9.38 30.12 11.35 42.58 15.97 10.65 4.06 25.63 9.52 13.87 5.18 12.46 4.63 15.13 5.46.42.28 3.64 1.4 5.89 2.24 31.93 12.05 28.58 10.92 2.24.84 47.76 18.07 13.17 4.9 5.18 1.96 2.1.7 16.11 6.03 12.75 4.9 15.26 5.74 4.77 1.54 1.4.56 37.96 14.85 21.01 7.7 12.6 5.04 7.29 3.23 1.82.84 5.32 2.66 6.58 3.36 7.43 4.06 7.42 4.48 6.02 3.92 6.59 4.63 7.84 5.88 6.02 5.18 6.03 5.32 5.04 4.77 6.44 6.3 4.07 4.06.98 1.12 5.88-1.12 4.9 5.18 17.23 18.07.84.7 2.66 2.66 10.65 2.38 4.48.98.84 1.68.56 1.12.84 1.27.98 1.12 1.54 1.54 16.53 14.84 37.54 35.44 21.57-22.83 4.34-17.09 12.47 3.92 2.94 2.24 3.64-.98-27.17 62.05 6.44 11.49-.84 5.6-.84 4.06-.98 6.3 9.39 10.65 10.08 10.36 35.58 36.56 21.43 22.13 2.8-3.64 39.5 41.88 28.02 29.69-8.83-5.18 13.03 17.64-4.77 1.55-4.76 6.16-2.1 2.52-1.4 4.62-3.64-2.38-13.45-8.54-5.46-3.65-14.43-9.38-9.66-6.16-7.29-4.9-6.58-4.21-5.74-3.92-2.24-1.68-2.81-2.24-7.14-6.44-12.33-11.77-11.06-10.22-11.91-11.21-7.98-7.42-9.53-8.82-4.62-3.93-2.24-1.68-3.64-2.66-1.96-.98-1.4-.56-2.38-.84-2.39-.7-2.38-.56-3.78-.98-4.2-.84-13.87-2.8-2.38 8.26-6.44 21.43-1.96 6.02-.98 3.09-1.12 2.38-.98 2.24-3.93 8.26-.7 1.54-.7 2.38-2.8 9.25-1.4 3.92-.7 2.24-.84 1.82-.98 1.96-1.96 3.92-.98 2.1-.7 2.25-2.66 10.36-1.82.42-3.65.7-2.94 1.12-2.66.98-2.24 1.26-1.54.98-2.24 1.4-1.68 1.4-5.19 4.21-1.82 1.54-3.36 2.66-6.16 3.5-4.9 2.1-2.25.84-1.68.42-2.52.7-2.94.42h-1.68l-3.22-.28-1.12-.28-4.34-1.54-.7-.14-2.95-1.26-2.94-1.12-1.54-.42-1.4-.42-.98-.14-1.26-.14H1537l-1.54.14-1.12.28-1.4.56-1.68.98-1.12.84-.28.28-.56.42-.99 1.26-.7 1.12-.42.84-.42.84-.56 1.54-.28 1.12-.28.84-.14 1.68-.14 1.4.14.84.14 1.41-.98-1.27-1.4-.28-3.5.85-27.17-8.83-4.07-3.36-.14-2.38-3.36-.98-12.32 44.82-1.82 6.86 18.06 4.76-2.38 8.83-5.46 20.59-4.76 18.06-2.1 7.71-1.4 5.18 4.2 1.4 2.8 7.84 4.9 1.69 4.77 2.94 3.78 3.64 7.7 6.86 2.94 1.96 7.01.7 2.94-.42 4.76-.7 10.93-.28 9.52 1.26 2.52.7 4.76 1.68 7.29 4.49 1.96 1.54 3.64 4.62 4.62-4.48-.7-8.83 25.78 7.85-1.41 5.46-.98 3.64-4.2 15.27-4.62 17.08-1.12 4.07-1.96 7.28-.84 2.66-1.54 5.88 25.63 4.91 2.24-2.67 2.24-2.38 15.55-5.46.56-2.24 1.68-6.02 5.88 2.38 3.09-10.09 8.26 2.1 15.97 4.07 3.92-13.31 1.68-2.66 4.9 1.82 5.89 2.1 5.04 1.54 7.14 2.24 12.61 3.5 4.76 1.68-.56 1.97 6.3 2.1 5.89 2.1 4.62 1.96 3.22 1.54.84-1.82 5.6-10.51 1.69-6.44.42-4.06v-12.89l.56-5.74 1.26-4.2 1.54-3.36.98-1.26 2.24-1.54.14-5.89-.56-7-2.38-5.6-5.19.42.29-5.88 1.96-14.99-2.67-12.89 52.25 6.59 23.11 2.8 76.2 19.47 5.6-20.87 6.17 3.78 10.92 11.2 37.68 135.86 9.25 4.49 8.54 4.34 20.59 10.5-1.96 3.64-2.8 4.91-4.06 6.72-1.4 2.38-.98 1.68-.7 1.26-.98 1.82-2.39 4.2-1.4 2.53-.7 1.26-1.54 2.8-.56 1.26-.98 1.82-1.12 2.24-.56 1.54-.42.84-.7 1.4-.56 1.4-.56 1.4-.42.98-1.12 2.66-.28.7-.56 1.69-.7 1.96-.7 1.96-4.77 14.7-2.94 8.55-1.54 4.06-.7 1.96-.7 1.54-.56 1.4-.84 1.82-.56.98-.84 1.54-.7 1.12-1.54 2.53-1.12 1.4-1.68 2.38-1.82 2.1-2.8 3.36-2.67 2.52-5.74 5.18-1.4 1.12-1.4.56 1.96 1.26-2.8 9.39-3.5 11.9-4.34 14.71-8.97 30.95-12.05 42.3-10.64 37.12-6.3 22.13-1.26 4.9-.84 3.22-1.27 2.38-4.62.56-.7 6.59-1.26 6.86.14 2.24v1.26l-.14 1.12.56 1.68-.28 1.82-.14 1.4-.42 1.69-4.62 16.66 3.64 3.08.56.7 1.12 1.12 1.4 1.13 2.1 1.54 1.26.7 1.4.84-21.85 70.31-9.66-2.66-1.4-.7-18.91 77.87-9.95-1.4-10.5-.14-14.15-1.26-20.87 7.56 3.08-25.21-13.16-2.8 7.7-26.89-18.91-4.62-7.14 26.33-14.29-2.1-1.68-.42-3.36-2.94-2.39-2.53 3.37-11.48.98-3.5-21.15-5.74-8.55 30.81-.56 2.1-1.26 5.18 1.4 4.06.84 1.12 1.26.99.84.98.7 1.12.42 1.12.14 1.12-.28.98-.42.84-.56.98-1.26 1.4 1.68 2.24-.84 8.12-7 12.05h-1.4l-.98.28-1.12-.14-2.8-.98-2.1-.56-2.81.28-1.12.28-1.68 1.4-1.26 2.38-.56 2.52.28 3.64.56 1.82.84 1.54-3.92-.98-2.24-1.26-2.24-1.12-14.15-7.84-.28-.14-.98-.42-2.24-.84-4.62-.98-1.12.14-.7.28-.84 3.08-4.07 8.96-3.5 7.85-1.4 9.66-3.36 11.91 3.5.98 4.48 1.4-5.46 20.31 5.6 26.19 1.12 6.16 2.81 14.43 7.28 1.96 6.02 1.96-1.82 6.72-5.04 16.95-52.67-14.01-8.4-2.24-11.91-2.52-8.96-5.46 1.12-4.34 3.78-13.73 2.1-7.28 2.66-8.55-56.31-25.91 4.07 24.37-.14 6.03-.56 5.04-.99 4.76-1.26 4.62-1.96 5.61-8.96 29.69-3.92 8.68-.28.42-2.38 3.08-2.81 1.69-3.92.42-2.8 1.4-2.94 1.68-3.64 2.66-2.38 1.12-6.87 1.68 5.32 10.78 3.37 5.75 2.66 7.84v3.64l-.56 3.78-2.24 5.05-2.8 6.02-.85 5.74.42 18.07 4.07 20.45 5.46 11.34 8.82 11.07 3.37 5.04 4.06 7.7 1.54 4.07.7 2.8.42 1.82.42 4.34-.42 5.74-2.52 15.41-.14 1.26.14 3.22.98 4.62 1.26 2.66 5.18 6.73 7.85 6.72 6.72 6.72 2.94 3.08 5.04 2.11 7.01 1.54 11.76 1.4 13.59.42 2.8.14 5.88 1.4 5.75 2.66 2.1 1.96 2.94 2.52 7.42 5.46-2.52 17.51-3.08 10.23-2.94 6.86-5.74 9.38-2.53 3.64-3.22 5.89-2.8 8.12-2.1 5.32-.7 1.54-9.38 25.08z" stroke-linejoin="round"/></defs><use xlink:href="#a" fill="#9dc8ca" stroke="#9dd7f0" stroke-width="5.76"/><defs><path id="b" d="M1473.55 2746.07l-7.29-3.23-12.6-5.04-21.01-7.7-37.96-14.85-1.4-.56-4.77-1.54-15.26-5.74-12.75-4.9-16.11-6.03-2.1-.7-5.18-1.96-13.17-4.9-47.76-18.07-2.24-.84-28.58-10.92-31.93-12.05-5.89-2.24-3.64-1.4-.42-.28.56-2.1 1.68-5.74.42-1.68-14.43-4.77.98-6.44 5.05-30.67 1.54-9.39.84-5.6-14.15-4.2 14.29-38.66 21.15-72.83 11.49-39.22 2.38-8.4-42.17-11.91.85-3.22.84-4.62.14-5.6 3.36-2.11 7.56-6.58 1.12-.98 12.19-11.48 15.13-14.15 3.64-3.36 6.16-5.46 7.98-7.29 2.39-2.38 1.96-1.96 1.96-2.1 2.1-2.94 1.82-2.8 1.82-3.78.98-3.51 2.38-8.26.7-2.52 1.82-5.46 2.39-4.77 3.92-6.86 6.3-10.92 6.44-11.35-22.27-6.72 6.17-22.83 6.72-23.39 6.58-22.41 3.5-12.19 2.81-8.12.7-1.4 1.12-2.24 1.4-4.06-1.26-5.19-2.53-1.96 6.03-10.78.42-1.82 15.69-53.37 10.64-36.41 4.2-13.59 5.61 1.96 2.94 2.24 1.54 1.54.98.56 1.12.28 1.26.14 2.24-.14 1.4-.14-2.8-21.57-.7-6.72-.28-3.36v-3.5l-.14-2.52.14-3.08.14-2.81.28-3.5.28-2.66.28-2.52.56-3.22.56-2.38.98-4.2 1.54-5.19 1.54-5.6 1.54-5.46 2.25-7.99 3.92-14 3.5-12.61 2.52-9.52 4.76-17.37 6.87-26.47 6.72-24.09.56-2.24 4.9-17.65 5.61-20.03 2.1-7.56 1.68-6.31 7.42-26.47.56-1.82 4.34-15.97 2.81-10.36 2.66-9.66 4.2-15.13.84-2.52.42-1.26 3.08-11.49 6.44-23.95 4.07-14.14 3.78-14.01 3.08-11.49 1.12-4.2 2.94-11.06.98-3.64 1.4-5.89.7-3.22 6.87-25.91 2.52-8.54 2.1-7.29 2.94-9.66 1.26-4.34 1.12-4.07 1.54-5.18 3.92-14.28 2.81-10.23.84-3.08 2.1-7.28 2.94-11.21 4.34-15.69 1.4-5.04 7.43-27.17.42-1.82.98.84 3.5-12.75 3.92-14.42 7.42-27.73 6.45-21.85 4.2-15.27.42-1.82.84-2.8 5.74-18.35 3.78-13.87.28-.84.71-.84.56-1.12.42-2.8 2.52-7.98 7.14-24.79 14.15-54.07.42-6.02 2.8-5.04-1.12-1.26 1.26-.84.7-1.27-.14-2.94.42-5.04 1.82-6.3 2.66-4.62 8.13-26.9.98-5.04 9.24-32.91 4.06-15.27 1.68-4.06.42-1.68-1.68-.42.28-.98 3.23-11.21.56-1.96 4.62-16.81 2.24-7.42 2.94-9.94 6.3-20.87 3.51-12.05 3.22-10.5 1.12.7 2.1-8.97 1.12-3.64.42-1.54 7.7-25.49 2.24-7.42 5.75-18.63 4.2-12.75 4.34-15.96 2.24-9.11 2.52-7.84 7.71-26.61 7.84-26.48 2.24-7.14 4.63-15.97 2.94-9.66 5.6-18.35 6.3-20.17.42-1.26 6.45-9.1 10.36-15.55-5.46-1.4-3.08-1.12-1.12-.14-1.12-.14 1.68-6.58 6.02-19.89 11.07-37.68 11.06-38.66 19.75-68.35 16.67-58.26.98-3.5 7.14-25.22 6.17-21.43 1.26-4.06 2.52-8.96 3.08-10.51 3.36-11.62 4.91-17.65 5.88-20.31 3.5-12.6 3.78-12.89 20.17-69.89 10.79-37.82 2.38.42 30.67 7.57 29.56 7.56 26.33 6.72 42.3 11.21 21.15 5.6 6.73 1.82 13.59 3.5 3.22.84 1.96.14-12.33 41.46 1.68.42-11.06 40.48v.14l-3.37 9.52-3.36 13.59-1.26-.42-4.06 14.99-1.54 5.74-.84 3.22-.84 3.08-.28 1.26-.56 2.1-2.38 8.13-5.61 18.35-5.74 18.48-3.08 9.53-1.68 4.9-1.68 5.6-1.26 4.48-.98 3.37-.28 1.12-.56 1.96-.84 3.22-.84 3.64-1.54 6.3-2.25 9.11-2.1 8.12-6.02 22.97-.42 1.54-.84 3.36-.84 3.64-.84 3.51-1.12 4.62-1.26 5.04-.98 4.2-1.54 6.03-1.97 7.56-1.82 6.86-6.16 24.37-3.22 13.59-6.72 27.87-1.12 4.34-5.47 21.01-.98 3.92-1.68 7.01-1.96 7.7-2.24 9.8-2.8 9.39-5.05 17.23-1.82 6.02-3.78 13.31-2.8 9.52-9.94 34.32-3.37 11.34-.56 1.96-7.7 27.73-5.04 16.81-.7 2.52-5.05 17.79-3.5 11.77-5.46 20.02-.98 3.51-.98 3.92-1.54 5.6-6.59 22.13-.42 1.4-2.24 6.86-5.74 18.91-.28 1.12-2.1 7.15-1.82 6.44-3.36 12.32-9.53 34.18-1.4 3.08-1.26 6.44-1.54 5.61-1.26 4.48-1.68 5.46-2.52 7.98-5.75 21.01-.84 3.08-2.1 6.87-1.82 6.16-3.78 13.17-3.64 12.32h-1.68v.56l1.26.84-.42 1.4-1.54 5.19-1.82 6.44-4.77 16.81-1.82 6.44-1.96 7.14-1.96 6.58-.98 3.37-4.76 15.82-.56 1.96-8.69 29.84-1.54 4.76 1.12.42 1.54.56 6.17 1.68 1.82.42 1.68.42 10.36 2.66 1.4.28 19.05 5.75 14.29 3.5 13.59 3.5 6.44 1.68 17.51 4.48 1.12.28.98.42 1.54-.42.84.28 3.78 1.26 6.17 1.4 5.88-1.26 3.08-.98 5.74-1.82.43-.28 1.26-1.4 1.4-.56 3.5-1.12 2.52-1.26 2.8-1.4 2.8-1.68 2.52-1.54 1.96-1.54 2.39-1.83 2.38-1.96 2.66-2.52 3.36-3.78 2.24-2.8 2.24-2.8 1.26-1.68 1.68-2.38 1.54-2.38 1.55-2.67 1.68-3.22 1.26-2.94 1.12-2.38 1.4-3.64 1.26-3.08 1.68-4.34 3.78-9.81 2.24-5.46.7-1.54 2.1-3.64 2.25-3.64 3.08-4.21 2.38-2.94.7-.7.7-.84.84-.7 3.36-3.36 1.54-1.26 1.68-1.26 1.4-2.38 1.68-1.4 1.12-.56 2.53-1.54 3.08-1.83 2.66-1.54 8.82-4.76 1.26-.7 1.4-.7 6.73-3.64 1.12-.42 1.68-.84-.84 3.08-2.52 8.68-.84 3.37-.56 1.54-.7 2.66-4.21 14.7-.42 1.83-.42 1.68-.56 1.82-.42 2.24-21.29 74.65-.84 2.66-.84 3.08-4.62 15.13-2.66 9.1-4.2 13.59-3.93 13.87-1.82 6.16-2.8 9.38-8.96 31.52-.42 1.54-.42 1.4-3.79 13.17-2.66 8.96-.98 4.06-1.4 4.34-6.44 22.69-3.78 13.03-.98 3.5-6.31 22.13-2.1 7.42-6.16 21.29-4.62 17.09-2.38 8.82-2.67 9.53-.98 3.64-5.6 19.47-2.24 7.84-.84 2.52-7.84 27.46-1.27 4.48-1.96 7.42-.28 1.12-1.68 1.82-.98 2.8-.7 1.82-1.12 3.65-2.66 8.4-3.08 11.21-4.48 16.94-3.37 12.19-2.52 9.38-4.34 16.11-2.52 9.38-4.06 15.83-.42 1.68-2.94 12.33-5.19 20.87-7.28 28.71-6.02 21.99-4.07 14.85-1.96 7.14-2.38 8.96-3.5 13.03-7.98 30.25-5.33 20.59-9.52 34.6-1.54 6.16-.7 2.94-.56 2.1-.28 1.54-.28 1.82-.14 1.68v1.96l-.14 2.39.14 2.8.14 3.22.7 8.82.42 4.06.7 6.73 1.54 13.58.14 1.96.56 7.71.42 4.48.14 3.5.14 2.52.28 4.9-.14 2.53-.14 2.8-.42 3.08-.42 3.78-.56 3.08-.42 2.38-.28 2.1-.56 2.52-.42 1.69-.56 1.96-.7 2.24-.56 1.82-1.26 3.22-1.12 2.8-.84 1.96-.84 1.82-.85 2.1-1.12 2.38-.84 1.4-.7 1.27-1.12 1.96-1.4 2.1-1.96 2.94-1.4 1.96-1.26 1.68-1.68 2.1-1.68 1.82-1.4 1.54-1.54 1.54-1.82 2.1-2.11 2.39-1.82 2.1-1.26 1.68-1.12 1.4-1.26 1.82-.84 1.4-.98 1.4-.84 1.54-.98 1.82-.98 1.96-.56 1.26-.7 1.4-.7 1.68-.7 1.68-.7 2.11-.7 1.82-.7 1.82-.56 1.82-.42 1.54-.98 3.36-1.96 6.3-10.93 37.96-8.26 28.29-6.17 20.45-2.66 9.11-4.34 14.42-3.78 12.75-8.27 28.29-.98 3.22-6.44 22.27-8.13 27.03-3.08 10.79-7.84 26.47-.84 2.52-.98 2.94-.7 1.68-.42 1.4-.7 1.41-.84 1.96-.98 1.82-.84 1.68-1.12 2.1-.84 1.54-1.13 1.82-1.54 2.52-1.4 2.38-1.26 2.1-2.66 3.92-1.26 2.11-1.54 2.38-.98 1.68-.84 1.96-.98 1.96-.84 1.96-.84 2.38-.56 1.54-1.26 3.36-.98 3.08-.84 2.53-.84 2.66-.85 2.8-.84 2.94-1.12 3.92-9.52 32.92-.56 1.68-12.89 44.4-.98 3.36-1.12 4.2-4.06 14.57-.42 1.4-1.54 4.76-5.46 18.21-2.11 6.86-.84 2.1-.42 2.94-.84 2.1-.7 1.54-.84 1.97-.84 1.68-.98 1.82-.98 1.68-.98 1.82-1.12 1.82-.98 1.4-.98 1.4-.84 1.26-1.4 1.96-1.54 1.82-1.12 1.4-.98 1.26-.98.98-.99 1.12-.28.29h-1.26l-1.12 1.26-1.68 1.54-1.4 1.4-1.4 1.12-1.68 1.54-1.82 1.4-1.68 1.4-1.96 1.68-5.05 3.78-2.52 2.1-4.76 3.64-8.26 6.73-15.13 11.2-.84.56-3.08 2.1-4.34 2.8-2.95 1.69-2.24 1.12-6.16 2.8-6.16 2.66-4.49 1.54-3.22 1.26-1.96.7-5.04 2.24-2.1-.42-2.24.7-2.94 3.92-.85.56-3.64 2.94-.84.7-1.54 1.69-.84 1.12-.84 1.4-.42 1.12-.56 1.68-.28 1.12-.14 1.12v2.66l.14 1.68.42 2.1.28.7.28.98.84 1.54.84 1.12.84.98.84.84.98.7 1.68 1.13 1.4.7 3.09 1.68 4.9 2.66 7.28 4.2 7.29 4.06 4.34 3.08.84.84-1.68 1.12-1.26 4.21z" stroke-linejoin="round"/></defs><use xlink:href="#b" fill="#9dc8ca" stroke="#9dd7f0" stroke-width="5.76"/><defs><path id="c" d="M1996.57 3316.26l-1.12 5.74-2.24-2.1-30.82-47.9-22.55-34.88-17.51-28.01-12.32-14.98-9.11-11.07-4.76-5.18-10.78-12.75-.42-.56-8.55-10.64-8.82-9.39-36.14-38.23-2.24-2.95-13.03-17.64 8.83 5.18-28.02-29.69-39.5-41.88-2.8 3.64-21.43-22.13-35.58-36.56-10.08-10.36-9.39-10.65.98-6.3.84-4.06.84-5.6-6.44-11.49 27.17-62.05-3.64.98-2.94-2.24-12.47-3.92-4.34 17.09-21.57 22.83-37.54-35.44-16.53-14.84-1.54-1.54-.98-1.12-.84-1.27-.56-1.12-.84-1.68-4.48-.98-10.65-2.38-2.66-2.66-.84-.7-17.23-18.07-4.9-5.18-5.88 1.12-.98-1.12-4.07-4.06-6.44-6.3-5.04-4.77-6.03-5.32-6.02-5.18-7.84-5.88-6.59-4.63-6.02-3.92-7.42-4.48-7.43-4.06-6.58-3.36-5.32-2.66-1.82-.84 1.26-4.21 1.68-1.12-.84-.84-4.34-3.08-7.29-4.06-7.28-4.2-4.9-2.66-3.09-1.68-1.4-.7-1.68-1.13-.98-.7-.84-.84-.84-.98-.84-1.12-.84-1.54-.28-.98-.28-.7-.42-2.1-.14-1.68v-2.66l.14-1.12.28-1.12.56-1.68.42-1.12.84-1.4.84-1.12 1.54-1.69.84-.7 3.64-2.94.85-.56 2.94-3.92 2.24-.7 2.1.42 5.04-2.24 1.96-.7 3.22-1.26 4.49-1.54 6.16-2.66 6.16-2.8 2.24-1.12 2.95-1.69 4.34-2.8 3.08-2.1.84-.56 15.13-11.2 8.26-6.73 4.76-3.64 2.52-2.1 5.05-3.78 1.96-1.68 1.68-1.4 1.82-1.4 1.68-1.54 1.4-1.12 1.4-1.4 1.68-1.54 1.12-1.26h1.26l.28-.29.99-1.12.98-.98.98-1.26 1.12-1.4 1.54-1.82 1.4-1.96.84-1.26.98-1.4.98-1.4 1.12-1.82.98-1.82.98-1.68.98-1.82.84-1.68.84-1.97.7-1.54.84-2.1.42-2.94.84-2.1 2.11-6.86 5.46-18.21 1.54-4.76.42-1.4 4.06-14.57 1.12-4.2.98-3.36 12.89-44.4.56-1.68 9.52-32.92 1.12-3.92.84-2.94.85-2.8.84-2.66.84-2.53.98-3.08 1.26-3.36.56-1.54.84-2.38.84-1.96.98-1.96.84-1.96.98-1.68 1.54-2.38 1.26-2.11 2.66-3.92 1.26-2.1 1.4-2.38 1.54-2.52 1.13-1.82.84-1.54 1.12-2.1.84-1.68.98-1.82.84-1.96.7-1.41.42-1.4.7-1.68.98-2.94.84-2.52 7.84-26.47 3.08-10.79 8.13-27.03 6.44-22.27.98-3.22 8.27-28.29 3.78-12.75 4.34-14.42 2.66-9.11 6.17-20.45 8.26-28.29 10.93-37.96 1.96-6.3.98-3.36.42-1.54.56-1.82.7-1.82.7-1.82.7-2.11.7-1.68.7-1.68.7-1.4.56-1.26.98-1.96.98-1.82.84-1.54.98-1.4.84-1.4 1.26-1.82 1.12-1.4 1.26-1.68 1.82-2.1 2.11-2.39 1.82-2.1 1.54-1.54 1.4-1.54 1.68-1.82 1.68-2.1 1.26-1.68 1.4-1.96 1.96-2.94 1.4-2.1 1.12-1.96.7-1.27.84-1.4 1.12-2.38.85-2.1.84-1.82.84-1.96 1.12-2.8 1.26-3.22.56-1.82.7-2.24.56-1.96.42-1.69.56-2.52.28-2.1.42-2.38.56-3.08.42-3.78.42-3.08.14-2.8.14-2.53-.28-4.9-.14-2.52-.14-3.5-.42-4.48-.56-7.71-.14-1.96-1.54-13.58-.7-6.73-.42-4.06-.7-8.82-.14-3.22-.14-2.8.14-2.39v-1.96l.14-1.68.28-1.82.28-1.54.56-2.1.7-2.94 1.54-6.16 9.52-34.6 5.33-20.59 7.98-30.25 3.5-13.03 2.38-8.96 1.96-7.14 4.07-14.85 6.02-21.99 7.28-28.71 5.19-20.87 2.94-12.33.42-1.68 4.06-15.83 2.52-9.38 4.34-16.11 2.52-9.38 3.37-12.19 4.48-16.94 3.08-11.21 2.66-8.4 1.12-3.65.7-1.82.98-2.8 1.68-1.82.28-1.12 1.96-7.42 1.27-4.48 7.84-27.46.84-2.52 2.24-7.84 5.6-19.47.98-3.64 2.67-9.53 2.38-8.82 4.62-17.09 6.16-21.29 2.1-7.42 6.31-22.13.98-3.5 3.78-13.03 6.44-22.69 1.4-4.34.98-4.06 2.66-8.96 3.79-13.17.42-1.4.42-1.54 8.96-31.52 2.8-9.38 1.82-6.16 3.93-13.87 4.2-13.59 2.66-9.1 4.62-15.13.84-3.08.84-2.66 21.29-74.65.42-2.24.56-1.82.42-1.68.42-1.83 4.21-14.7.7-2.66.56-1.54.84-3.37 2.52-8.68.84-3.08 4.2-2.24 2.24-.98 9.81-5.18 2.52-1.26 3.5-1.97.56-.14 1.68.28 3.08-1.68 9.67-5.32 3.5-1.96 14.57-7.56 33.89-18.63 1.69-.84 4.2-2.24 2.38-1.4 4.2-2.24.98-.56 4.48-2.39 5.19-2.52 5.04-2.8 20.87-11.48 5.46-3.08 4.62-2.39 7.71-4.62 1.12-.56 1.26-.56 10.37-5.88 2.1-.84L2169 1081l1.82-.98h.14l2.94-1.54 3.22-1.82 2.67-1.68 2.94-1.82 3.22-2.24 3.36-2.38 3.92-2.94 10.51-7.99 6.02-4.76 25.91-20.03 1.26-.98 11.35-8.4 9.38-7.01 2.39-1.68 2.8-2.1 18.49-13.58 2.66-2.11 1.96-1.54 1.96-1.68 4.06-3.08 12.47-9.38 1.4-1.12 1.26-.84 3.5-2.66 3.36-2.53 3.5-2.66 3.51-2.66 4.06-3.08 3.92-2.8 5.18-3.92 5.47-4.2 5.32-4.07 2.66-2.1 1.82-1.54 1.96-1.4 2.1-1.82 3.5-3.08 3.79-3.5 3.36-3.36 3.08-2.94 4.48-4.35 3.92-3.78 4.49-4.34 2.66-2.24 1.96-1.68 1.54-1.68.42-.42 1.54-1.82 1.96-2.52 1.26-2.25.84-2.1 1.12-2.38.14-.7.56-1.4.42-1.4v-.14l.42-1.96.28-1.96.28-2.1.28-2.52 8.13 2.1 16.25 4.34 6.44 1.68 14.29 3.78 14.7 3.92-6.72 23.53-3.64 12.33-6.02 21.99-1.4 5.04-3.79 13.73-2.1 7.14-7.56 26.05-8.41 30.54-5.18 18.62-10.22 35.58-1.82 6.16-3.23 11.49-1.12 4.48-.7 2.24-.98 3.36-3.36 11.91-6.72 23.67-4.2 15.13-3.23 11.2-5.74 20.73-.84 2.94-.42 2.38v1.96l-.28 2.38-.56 2.67-.98 2.66-.7 2.52-2.24 7.14-2.38 7.56-1.4 5.19-.84 3.22-.7 3.08-.28 1.12-3.65 11.34-14.84 51.41-5.89 20.73-1.12 3.78-.84.98-1.12 3.92.14 1.26-1.68 5.6h-1.26l-5.88-2.1-3.22-2.1-1.13 5.18-10.5 38.94-6.16 22.41-2.67 9.95-1.82 6.72-.98 3.08 3.37 6.3 4.9-.56 5.74 2.1 3.22.56 8.27 2.53.7.7 1.68.56.7-.28 19.89 6.02 17.51 6.02 1.26-.14 18.77 5.32 7.84 2.81 33.48 9.52 1.26-5.46 1.4-7.57 2.8-14.42 14.43 4.9-1.4 1.12-1.26 1.26-1.12 1.12-.84 1.4-.56 1.12-.42 1.12-.28.98-.71 2.24-.84 2.52-.98 3.79-1.4 4.76-.42 1.4-.28 1.4-.42 1.68 2.94.84 2.67.56 3.36 1.26 12.18 3.22 8.97 2.66 10.64 2.53 5.19 2.66h1.4l1.54.42 1.68.56 15.97 4.76 1.26-.56 1.54.14 1.54.56.42 1.12 8.54 2.52 1.82-.42 3.65 1.26.56.84 6.72 1.96 2.66.84.56.14 2.66 1.26 1.26.84 1.12-.84 1.12.42 8.27 2.39 12.74 3.64 9.39 3.36 8.96 2.52 10.79 2.94.14 5.74.42 1.82.42.98.98 1.12 2.38 2.39 3.92 2.24 3.51 1.12 14.98 4.62 1.54.84 2.95 1.4 1.54.98.84 1.82.84 2.24 7.14-1.96 2.38-1.12 1.54-.84 4.35-2.94 2.38-2.52 1.82-2.38 3.22.98 1.68.7 1.82.98 3.08 1.4h3.22l23.4 6.16 2.94.7.84 1.54 3.22 1.26 1.68-1.12 18.77 5.47 6.86 2.1 4.07 1.26.14 1.96 3.64.84.7-1.54 3.36 1.4 1.26-.42 1.68.56 2.1.7 6.58 1.54 3.23 1.12 43.42 12.47 38.38 10.92 34.74 9.38-17.79 100.15-18.07 63.87-7.85 22.83-10.92 20.03-9.25 13.86-15.12 18.63-12.05 10.93-17.37 18.76-10.92 10.79-.57.7-.28.28-34.45 70.17-96.79 219.76-147.36 108.55-14 13.02-154.22 143.57-22.83 21.15-38.52 94.54-8.27 79.97-26.75 91.05-11.07 128.57 13.31 40.9 21.85 39.22 48.33 58.54-26.62 21.99-26.89 35.3-27.45 42.86-22.42 41.6-15.54 55.74-6.03 1.68-4.34.7-6.58-.28-.28-.98-7.15-.56-4.2-2.66-3.08-2.8-1.26-.98-6.16-13.17-1.68-7.98-3.09-5.88-1.82-3.08-3.5-5.05-3.36-2.52-1.26-.42-17.09-7.7-4.34 18.77-4.34 12.74-4.63 18.35 1.54-11.06-.42-4.2 2.67-2.95-6.59-1.12-2.52-.28h-2.24l-1.96-.42-1.12-.42-.98-.7-2.94-3.08-2.53-2.94-2.66 4.76-1.82 2.52-1.4 1.4-1.54 1.12-1.4.42-9.1 1.12-.99.57-.98.84-1.4 2.66-3.78 9.94-2.38 6.02-.42.84-.42.84-.56.84-.56.57-.56.56-.7.42-.7.28-.84.28-2.24.28v10.92l-.14 6.58-.28 3.93v5.46l.42 1.68v3.92l-.28 6.72v1.82l-1.96 1.83-.84-.14-.7.56-.71.56-.56.56-.56.56.7 2.52-.14 1.26v1.4l.14 1.12.28.84.56.56.43.42.7.28h.98l1.26-.14.7-.14-.7 1.82-.42 1.26-.28 1.4-.28 2.66.14 2.52.28 1.68.42 2.53.42 1.26 1.12 3.64.56.84.42 1.12.28 1.26-.14 1.96-.42 1.68-.84 1.96-.42 1.12-1.4 1.82-.98 1.54-.56 1.12-.42 1.55-.42 2.24-1.55 7.28-1.68 3.78-1.12 7.42-1.54 12.05z" stroke-linejoin="round"/></defs><use xlink:href="#c" fill="#6bacaf" stroke="#6bb4d2" stroke-width="5.76"/><defs><path id="d" d="M542.78 2463.14l2.1-1.82 1.96-1.96 4.34-4.62 4.2-4.91 3.78-5.32 2.94-4.34.71-1.12 2.94-4.76 2.94-5.61 2.52-5.18 2.24-4.9 1.68-4.9.7-2.38 1.12-5.19.56-1.82.84-2.8 1.26-5.18.98-4.76.98-5.75.43-1.96.56-2.38.14-1.96.14-2.52v-5.46l-.28-6.02-.85-7.71-1.26-8.96-1.26-6.3-1.12-5.61-2.24-6.86-.84-3.22-2.24-7.57-8.82-33.19-2.11-7.7-2.66-10.09-2.38-8.82-.14-1.26-.42-2.38-.28-4.63-.14-4.62.14-4.76.56-4.62 2.24-20.73.14-2.1.42-4.76-.7-2.1 1.26-14.99 1.26-13.17 1.55-19.19 1.26-2.52.28-4.48.14-4.76-.28-5.6-.7-7.85-.28-2.52-2.25-17.65-8.26-63.44-2.24-16.25-.56-.98-.56-5.88-.98-6.17-.28-1.4-.28-.98-.28-1.4-.56-2.38 3.08-2.52.28-1.96 2.1-4.06 1.4-2.11 1.12-1.82 4.76-8.26 21.15-6.3-.98 5.6v2.94l.84 2.38.28 3.64 1.83 2.25.84.7 4.48 3.22 5.18 2.8 3.36 2.38 7.43 6.02 7.42 4.2 5.46 3.51 2.94 1.54 3.51 2.52 3.5 1.68 3.92 1.4 5.32.98 9.95.14 3.92 1.12 4.34 2.1 1.26.7 6.73 2.38 6.58-14.84 2.1-3.79 1.68-3.22 10.09-16.95 2.94-6.58 2.52-6.72 6.16-12.75 8.41-15.26 3.08-4.35 2.66-4.48 12.61-34.87 3.78-7.85 4.06-7.84 18.49-28.01 5.6-10.09.42-.56 3.08-7.84 2.24-3.22-20.31-9.39-2.1-.56 1.68-7.28-.98-2.66 1.12-4.9.14-6.17.14-2.52 1.12.14h1.69l1.68-.14.84-.14 2.1-.28 1.96-.28 1.96-.28 3.36-.84 2.94-.7.56-.28.98-.28 1.68-.7 8.69-3.22 2.38-.84 1.4-.42 1.96.42 1.68-.56 1.96-.7 3.37-1.26 2.38-.84 3.36-1.12 2.8-.98 10.51-3.65 2.52-.84 7.56-2.8 6.02-2.38 7.57-2.94 1.54-.56.84-.28 2.1-.84 1.4-.28 1.54-.42 1.82-.14 4.2.28 2.11.28 2.94.7.56.14 16.11 5.46.98-.14 2.94.7-2.8-13.16-.98-6.31-2.95-15.68-.7-3.22-1.82-.56-3.92-1.55-3.78-1.96-3.64-2.38-3.93-2.8-1.12-1.26-2.1-2.66-1.96-2.52-3.22-4.2-2.66-4.06-1.82-4.21-1.54-3.5-1.12-3.08-.56-1.96-.42-2.1-.14-.84-.7-4.48-.42-4.49-.14-3.22v-3.5l.14-1.54.28-1.96.14-1.26.28-2.1.28-5.6 2.24-10.37 6.58-21.43 2.66-9.38 3.64-12.19 3.23-11.9 6.3-22.55 4.62-16.95 2.8-10.79 1.12-4.34 3.79-13.86.42-1.68.56-1.97.84-4.2.42-1.82.98-3.64.56-2.66.56-2.1.42-2.24.7-2.38.98-3.51 2.8-10.36 1.82-6.3 3.92-14.85 4.77-17.37 18.34-67.65 1.41-5.46 5.46-20.87 1.54-1.68 2.94-9.38.98-2.81.42-1.96.98-2.8 5.32-18.91 5.61-19.75.84-2.94 3.22-11.76 3.36-11.77.42-1.54.98-3.5.28-1.54-.28-2.24.98-3.22 2.94-9.81v-.28l2.52-9.24.85-2.66.56-2.52 4.48-17.23 2.94-11.91.14-.84.42-1.26 3.08-10.78 2.94-10.93.56-1.54.28-1.12.28-1.4 3.22-10.92 1.69-6.03 21.01-72.83 10.5-36.7 5.74-20.3 8.69-30.4 9.52-33.05 1.4-4.76.98-2.53 7.71-27.31 3.92-12.74.7-2.24 14.43 2.94 4.06.7 5.46.14.14-1.68.14-5.89-.14-1.96.28-3.5.14-2.66v-4.2l-.14-2.52-.14-2.66-.42-3.09-.84-5.04 2.8 2.1 1.97 1.54 1.12.84 2.94 2.11 2.1 1.12 2.38 1.54 2.24 1.12 3.36 1.4.7-2.94.42-1.96.28-2.25.14-2.66-.14-.42-.42-1.4-.84-2.1-.7-1.4-4.34-8.26-7-13.59-5.05-9.8-2.38-4.91-.84-2.38-.28-1.4v-2.1l.14-1.26.14-.84.7-2.66.84-2.94.98-3.08 6.03-20.03 1.26-4.34 7.42-25.64 2.94-10.36 8.13-27.17 4.62-15.55 12.89-43.56 7.56-28.43 8.82-30.53 3.09-11.07 5.18-18.21 2.38-8.54.98-3.78 1.12-3.22 3.22-11.21 8.13-29.27 8.12-27.46 3.92-14.42 2.52-8.69 13.87 3.79 18.77 5.6 15.55 4.48 20.87 5.88 21.99 6.17 3.64.98 7 2.1 81.11 21.99 1.4.42 5.46 1.68 12.33 3.78 5.6 1.54 9.66 2.94 14.57 4.48 7.84 2.39 63.04 19.46 57.71 16.81 4.06 4.62v-4.06l4.76-9.38 1.82-2.94 1.26-3.93 1.96-7.14 6.73-20.45 8.4-28.01 3.08-10.23 19.47-63.02 6.73-21.57 11.34-36.28 1.96-6.44 9.95-33.76.84-2.52 15.69-50.84 3.5-12.05 1.26-4.48 4.9-15.69 18.49-61.9 6.58-21.99.84-3.22 3.65 1.4h1.82l14.7 3.36 6.73 4.76 11.2 3.22 50.01 15.27 2.38.84 3.08.84 25.63 7.7 22 6.87 36.55 13.16 7.43 1.96-10.79 37.82-20.17 69.89-3.78 12.89-3.5 12.6-5.88 20.31-4.91 17.65-3.36 11.62-3.08 10.51-2.52 8.96-1.26 4.06-6.17 21.43-7.14 25.22-.98 3.5-16.67 58.26-19.75 68.35-11.06 38.66-11.07 37.68-6.02 19.89-1.68 6.58 1.12.14 1.12.14 3.08 1.12 5.46 1.4-10.36 15.55-6.45 9.1-.42 1.26-6.3 20.17-5.6 18.35-2.94 9.66-4.63 15.97-2.24 7.14-7.84 26.48-7.71 26.61-2.52 7.84-2.24 9.11-4.34 15.96-4.2 12.75-5.75 18.63-2.24 7.42-7.7 25.49-.42 1.54-1.12 3.64-2.1 8.97-1.12-.7-3.22 10.5-3.51 12.05-6.3 20.87-2.94 9.94-2.24 7.42-4.62 16.81-.56 1.96-3.23 11.21-.28.98 1.68.42-.42 1.68-1.68 4.06-4.06 15.27-9.24 32.91-.98 5.04-8.13 26.9-2.66 4.62-1.82 6.3-.42 5.04.14 2.94-.7 1.27-1.26.84 1.12 1.26-2.8 5.04-.42 6.02-14.15 54.07-7.14 24.79-2.52 7.98-.42 2.8-.56 1.12-.71.84-.28.84-3.78 13.87-5.74 18.35-.84 2.8-.42 1.82-4.2 15.27-6.45 21.85-7.42 27.73-3.92 14.42-3.5 12.75-.98-.84-.42 1.82-7.43 27.17-1.4 5.04-4.34 15.69-2.94 11.21-2.1 7.28-.84 3.08-2.81 10.23-3.92 14.28-1.54 5.18-1.12 4.07-1.26 4.34-2.94 9.66-2.1 7.29-2.52 8.54-6.87 25.91-.7 3.22-1.4 5.89-.98 3.64-2.94 11.06-1.12 4.2-3.08 11.49-3.78 14.01-4.07 14.14-6.44 23.95-3.08 11.49-.42 1.26-.84 2.52-4.2 15.13-2.66 9.66-2.81 10.36-4.34 15.97-.56 1.82-7.42 26.47-1.68 6.31-2.1 7.56-5.61 20.03-4.9 17.65-.56 2.24-6.72 24.09-6.87 26.47-4.76 17.37-2.52 9.52-3.5 12.61-3.92 14-2.25 7.99-1.54 5.46-1.54 5.6-1.54 5.19-.98 4.2-.56 2.38-.56 3.22-.28 2.52-.28 2.66-.28 3.5-.14 2.81-.14 3.08.14 2.52v3.5l.28 3.36.7 6.72 2.8 21.57-1.4.14-2.24.14-1.26-.14-1.12-.28-.98-.56-1.54-1.54-2.94-2.24-5.61-1.96-4.2 13.59-10.64 36.41-15.69 53.37-.42 1.82-6.03 10.78 2.53 1.96 1.26 5.19-1.4 4.06-1.12 2.24-.7 1.4-2.81 8.12-3.5 12.19-6.58 22.41-6.72 23.39-6.17 22.83 22.27 6.72-6.44 11.35-6.3 10.92-3.92 6.86-2.39 4.77-1.82 5.46-.7 2.52-2.38 8.26-.98 3.51-1.82 3.78-1.82 2.8-2.1 2.94-1.96 2.1-1.96 1.96-2.39 2.38-7.98 7.29-6.16 5.46-3.64 3.36-15.13 14.15-12.19 11.48-1.12.98-7.56 6.58-3.36 2.11-.14 5.6-.84 4.62-.85 3.22 42.17 11.91-2.38 8.4-11.49 39.22-21.15 72.83-14.29 38.66 14.15 4.2-.84 5.6-1.54 9.39-5.05 30.67-.98 6.44 14.43 4.77-.42 1.68-1.68 5.74-.56 2.1-15.13-5.46-12.46-4.63-13.87-5.18-25.63-9.52-10.65-4.06-42.58-15.97-30.12-11.35-25.49-9.38-29.55-10.78-11.63-4.21-16.95-5.88-10.92-3.5-10.23-3.5-2.66-.84-17.65-6.45-6.44-2.38-5.19-1.82-10.22-3.5-3.64-1.4-3.36-1.4-4.21-1.4-3.78-1.26-33.62-11.49-7.14-2.66-9.66-2.8-9.95-3.08-10.08-2.66-11.07-3.08-5.46-1.12-1.4-.28-1.68-.42-1.82-.42-1.41-.28-2.38-.42-3.78-.7-2.94-.84-1.12-.14-1.26-.43-1.54-.28-9.11-2.1-8.82-1.96-6.72-.98-12.75-1.82-6.02-.84-3.37-.56-16.8-2.38-3.51-.28-5.46-.42-6.58-.7-3.36-.14-3.09-.56-3.64-.42-8.96-1.4-18.91-2.52-53.23-7.57-38.8-5.32-15.27-2.1H560l-5.74-.84-6.44-1.12-.7-.14-4.34-.84z" stroke-linejoin="round"/></defs><use xlink:href="#d" fill="#09757a" stroke="#097d9b" stroke-width="5.76"/><defs><path id="e" d="M505.24 2491.71l-33.34-2.94-23.25-2.94-12.05-3.22-4.76-11.63-2.38-2.1-1.68-2.24-1.26-.98-1.12-.7-1.97-1.96-3.92-5.32-1.96-1.26-7.42.7-7.43-1.4-41.32-32.36.42-4.9-15.54 2.1-15.13 2.1-1.4-5.18-9.95-13.03-62.33-82.07-50.14-65.97-15.27-29-2.38-6.72-39.36-109.67-2.53-33.19-7.14-6.45-1.96-26.47-3.36-46.22-6.58-164.99-.57-15.97 12.61-40.06 67.94-218.77 10.64-34.18 36.7-118.49 31.52-148.47 13.86-28.57-2.8-4.34-1.26-1.82-1.4-2.25-1.82-2.52.56-.84.28-.98v-2.1l-.14-2.24-.14-2.38-.28-4.06-2.38-39.78-.42-6.86-.28-4.48-.28-5.61v-4.48l-.42-1.12v-5.74l-8.69-16.53-1.12-2.1-2.66-5.6 8.69-5.47 5.04-3.5 1.26-.84 2.24-1.4.98-.84.28-.84.28-1.26-.42-.84-1.4-1.12-2.1-1.82-6.3-3.64-2.95-1.68-1.68-.7-1.26-.7-1.12-.7-1.26-.56 2.38-10.09-12.04-3.92-7.57-2.24-7.14-.14-1.12-.84-1.12-.56-1.12-.56-1.12-.42-1.4-.56-11.49-3.08-8.82-2.53-22.42-5.88-8.68-2.38 3.22-11.34 2.66-8.55 1.68-5.32 1.68-5.6 38.1-131.24 4.07-14.15 9.8-34.31 7.56-25.77 8.13-26.2 12.61-43.42 1.4-4.76 1.68-6.3 3.08-11.63 2.1-7.56 4.9-17.23 4.2-15.12 3.09-10.79 4.2-15.55 4.06-14.84.42-1.68.7-2.24 2.52-9.11-4.76 1.68-2.1 1.68-4.62-1.12-1.26-1.96-22.84-10.64-.84-.28-.7-.28-.84-.28-1.68-.56-3.78-1.26-19.47-5.75-6.16-1.82-9.11-2.8-6.72-1.96-8.55-2.66 4.07-17.51 1.54-5.74.98-2.94 3.5-12.19.42-1.68 10.93-34.45.7-2.67-.28-1.96 2.38-1.54 1.4-1.82 2.24-5.32 3.22-5.88 2.66-5.04 2.24-4.49 2.52-4.62-1.4-2.8-4.2-8.82-1.4-4.35-2.24-1.4-.56-.98-1.68-8.54v-5.18l-1.26-13.59-4.06-20.87-2.39-5.18-2.94-2.66-8.96-24.79-2.52-3.92-.14-.71-.28-1.26.14-8.54-.7-2.94-2.67-7.98-1.96-12.61-3.08-12.33-3.22-9.24-2.24-6.3-.14-2.38.28-7.29-.56-6.86.28-5.18-.84-9.39-.98-5.32-9.67-13.58-5.04-6.31-2.8-2.24-.56-.28 11.49-17.79 13.16-14.56 58.69-21.71 30.4-11.21.28-2.24 8.54-39.22 38.94-35.29 57.01-35.16 71.02-24.79 21.85-4.62 9.1-2.94 20.03-6.16 80.82-9.11 69.2-2.94 71.71 16.67 39.22 14.84-1.54 3.37-1.12 7-3.36 38.52-.84 12.6-2.24 23.95-2.66 30.68-.28 3.64-28.44 102.52-3.22 27.74-.56 4.48-7 7.14-13.45 11.35-38.52 47.34-5.32-4.07-2.8-1.54-1.12-.28-3.5-1.26-10.37 40.06-6.86-5.04-3.93-1.26-6.3 18.77-11.2.42-.42 1.54 1.4 4.62-3.93 26.61-6.44 25.91 3.78 8.13.7 3.5 1.26 4.34 17.65-3.78 6.87-1.54 6.72-1.4 3.78-.7 6.87-.84 5.04-.84 8.54-.84 5.6-.14 2.25.14h5.88l7.42.7 6.17.84 5.74.98 5.04.98 13.31 3.92 2.66.84 2.24.98 5.04 2.1 2.52 1.26 9.67 4.48 7.28 3.79 7.99 3.5 8.96 2.66 4.9 1.68 5.89 1.82 9.66 3.08 5.46 1.96 2.81.7 3.22-.42h1.96l.84-.28.7-.28.56-.14 1.82-.7 1.54-.7 1.26-.7 1.68-1.12 1.68-1.4 1.4-1.4 1.41-1.68.84-1.12 2.24-3.08 2.24-2.1.42-1.27.42-1.12.42-1.54.56-1.82.42-1.26 1.12.84.84.84.56.28 2.52 2.66 6.87 18.91 1.26 5.05 1.12 4.48 1.54 5.88 2.66 4.2.28 1.12.42 1.82.42 1.82.42 1.54.56 1.55.7 1.82 1.12 2.66 1.12 2.1 1.12 2.38 7.43-3.64 3.22-1.82 5.46-3.08 1.54.42 5.32.14h2.66l12.19 2.8 9.95 2.24 9.66 2.24.42-1.68 5.6-1.26 2.39-8.97.98-7.7 2.94-1.12 7-5.04 3.08-2.38.84-14.43.56-10.08.14-5.75.42-16.66 2.38-8.97 6.03-20.87.98-3.36 3.22 1.12 5.46 1.12 9.39 2.94 11.76 3.64 4.77 1.26 8.12 2.39 24.37 7 5.6 1.68 9.25 2.52 10.64 2.94 7.71 2.38 10.22 2.8 4.77 1.41.56.14 10.92 3.08 33.62 9.94 5.32 1.26 9.95 2.94 12.18 3.64-2.52 8.69-3.92 14.42-8.12 27.46-8.13 29.27-3.22 11.21-1.12 3.22-.98 3.78-2.38 8.54-5.18 18.21-3.09 11.07-8.82 30.53-7.56 28.43-12.89 43.56-4.62 15.55-8.13 27.17-2.94 10.36-7.42 25.64-1.26 4.34-6.03 20.03-.98 3.08-.84 2.94-.7 2.66-.14.84-.14 1.26v2.1l.28 1.4.84 2.38 2.38 4.91 5.05 9.8 7 13.59 4.34 8.26.7 1.4.84 2.1.42 1.4.14.42-.14 2.66-.28 2.25-.42 1.96-.7 2.94-3.36-1.4-2.24-1.12-2.38-1.54-2.1-1.12-2.94-2.11-1.12-.84-1.97-1.54-2.8-2.1.84 5.04.42 3.09.14 2.66.14 2.52v4.2l-.14 2.66-.28 3.5.14 1.96-.14 5.89-.14 1.68-5.46-.14-4.06-.7-14.43-2.94-.7 2.24-3.92 12.74-7.71 27.31-.98 2.53-1.4 4.76-9.52 33.05-8.69 30.4-5.74 20.3-10.5 36.7-21.01 72.83-1.69 6.03-3.22 10.92-.28 1.4-.28 1.12-.56 1.54-2.94 10.93-3.08 10.78-.42 1.26-.14.84-2.94 11.91-4.48 17.23-.56 2.52-.85 2.66-2.52 9.24v.28l-2.94 9.81-.98 3.22.28 2.24-.28 1.54-.98 3.5-.42 1.54-3.36 11.77-3.22 11.76-.84 2.94-5.61 19.75-5.32 18.91-.98 2.8-.42 1.96-.98 2.81-2.94 9.38-1.54 1.68-5.46 20.87-1.41 5.46-18.34 67.65-4.77 17.37-3.92 14.85-1.82 6.3-2.8 10.36-.98 3.51-.7 2.38-.42 2.24-.56 2.1-.56 2.66-.98 3.64-.42 1.82-.84 4.2-.56 1.97-.42 1.68-3.79 13.86-1.12 4.34-2.8 10.79-4.62 16.95-6.3 22.55-3.23 11.9-3.64 12.19-2.66 9.38-6.58 21.43-2.24 10.37-.28 5.6-.28 2.1-.14 1.26-.28 1.96-.14 1.54v3.5l.14 3.22.42 4.49.7 4.48.14.84.42 2.1.56 1.96 1.12 3.08 1.54 3.5 1.82 4.21 2.66 4.06 3.22 4.2 1.96 2.52 2.1 2.66 1.12 1.26 3.93 2.8 3.64 2.38 3.78 1.96 3.92 1.55 1.82.56.7 3.22 2.95 15.68.98 6.31 2.8 13.16-2.94-.7-.98.14-16.11-5.46-.56-.14-2.94-.7-2.11-.28-4.2-.28-1.82.14-1.54.42-1.4.28-2.1.84-.84.28-1.54.56-7.57 2.94-6.02 2.38-7.56 2.8-2.52.84-10.51 3.65-2.8.98-3.36 1.12-2.38.84-3.37 1.26-1.96.7-1.68.56-1.96-.42-1.4.42-2.38.84-8.69 3.22-1.68.7-.98.28-.56.28-2.94.7-3.36.84-1.96.28-1.96.28-2.1.28-.84.14-1.68.14h-1.69l-1.12-.14-.14 2.52-.14 6.17-1.12 4.9.98 2.66-1.68 7.28 2.1.56 20.31 9.39-2.24 3.22-3.08 7.84-.42.56-5.6 10.09-18.49 28.01-4.06 7.84-3.78 7.85-12.61 34.87-2.66 4.48-3.08 4.35-8.41 15.26-6.16 12.75-2.52 6.72-2.94 6.58-10.09 16.95-1.68 3.22-2.1 3.79-6.58 14.84-6.73-2.38-1.26-.7-4.34-2.1-3.92-1.12-9.95-.14-5.32-.98-3.92-1.4-3.5-1.68-3.51-2.52-2.94-1.54-5.46-3.51-7.42-4.2-7.43-6.02-3.36-2.38-5.18-2.8-4.48-3.22-.84-.7-1.83-2.25-.28-3.64-.84-2.38v-2.94l.98-5.6-21.15 6.3-4.76 8.26-1.12 1.82-1.4 2.11-2.1 4.06-.28 1.96-3.08 2.52.56 2.38.28 1.4.28.98.28 1.4.98 6.17.56 5.88.56.98 2.24 16.25 8.26 63.44 2.25 17.65.28 2.52.7 7.85.28 5.6-.14 4.76-.28 4.48-1.26 2.52-1.55 19.19-1.26 13.17-1.26 14.99.7 2.1-.42 4.76-.14 2.1-2.24 20.73-.56 4.62-.14 4.76.14 4.62.28 4.63.42 2.38.14 1.26 2.38 8.82 2.66 10.09 2.11 7.7 8.82 33.19 2.24 7.57.84 3.22 2.24 6.86 1.12 5.61 1.26 6.3 1.26 8.96.85 7.71.28 6.02v5.46l-.14 2.52-.14 1.96-.56 2.38-.43 1.96-.98 5.75-.98 4.76-1.26 5.18-.84 2.8-.56 1.82-1.12 5.19-.7 2.38-1.68 4.9-2.24 4.9-2.52 5.18-2.94 5.61-2.94 4.76-.71 1.12-2.94 4.34-3.78 5.32-4.2 4.91-4.34 4.62-1.96 1.96-2.1 1.82 4.34.84.7.14 6.44 1.12 5.74.84-2.66 3.64-3.08 4.34-2.24 3.37-2.94 3.92-2.52 3.92-3.92 4.62-3.37 1.54-3.5 2.94-5.18 1.96-7.14-3.08-18.21-1.54z" stroke-linejoin="round"/></defs><use xlink:href="#e" fill="#004249" stroke="#00465f" stroke-width="5.76"/></svg>