<svg width="384" height="4.27in" viewBox="0 0 2880 3071" xmlns="http://www.w3.org/2000/svg" xmlns:xlink="http://www.w3.org/1999/xlink"><path fill="#fff" d="M0 0h2880v3071H0z"/><defs><path id="a" d="M2851.69 2474.36l-.29.87-.29 1.24-.67.77-2.59.96-5.85-.19-.87-1.06-.29-.28-.86-.29-.96-.29h-1.44l-.67.29h-1.34l-1.44.19-.29.1-.39.28-.19.2-.09.19-.1.29-37.91-1.44-3.65.19.2-.48v-1.35l-.2-.76-.38-1.16-.38-.86-.48-.86-.58-.48-2.3-1.06-.87-.67-1.05-1.25-.67-1.15-.96-2.69-.2-2.49-.19-3.84v-.77l.29-1.63.67-1.34.1-.58-.1-.77-.48-1.05-.57-.58-.96-.29-1.15-.57-1.83-.29h-1.25l-.57-.38-.39-.68-.09-.86.09-.67.1-.29.86-1.15 1.16-2.21v-.48l.09-.48v-.38l-.09-.48-.2-.86-.38-.77-.96-1.73-.1-.77v-.57l9.41 8.15-.38-1.34-2.12-12.86-.96-9.31v-.09l-1.05-1.92-2.02-4.32-3.55-7.97-1.63-3.93-3.93-10.18-.29-.48-.29-.67-.67-1.05-1.63-2.4-5.86-8.64-7.58-11.04-1.34-2.01-4.99-8.64-2.31-3.74-2.97-4.61-.29-.48-.19-.28-.1-.2-.09-.28v-.39l-2.79-.09h-3.55l-10.07-.2-3.75-.28-2.59-1.44-.77-2.31-.19-22.74-5.18.09h-9.02l-3.84.2-5.95.09-7.1.1 1.92 4.51.76 2.3 1.64 3.36 2.49 6.33 1.06 3.36 1.44 2.98.28 2.01-.28 4.23-.77 3.93-1.25 2.21-.96 1.73-2.4 3.64-3.07 5.28-.57.86-.39.68-.57.96-.39.86-.38.67-.39.67-1.63 3.46-.57-.19-1.92-.87-2.02-.76-7.2-2.21-13.91-3.94-1.92-.57-3.46-.96-19.29-5.38-14.2-3.84-9.12-2.59-6.33-1.82-.1.38-.09.29-.39.39-.29.38-.47.29-.48.19-.68.1h-.86l-1.92-.1-.48.1h-2.4l-3.45.09-1.44-.09-1.06-.2-1.53-.48-1.35-.67-.77-.38-.38-.19-.38-.29-.39-.29-.38-.38-.29-.29-.29-.29-.29-.38-.28-.39-.29-.57-.29-.29-.1-.38-.19-.39-.19-.38v-.19l-.09-.39v-.96l.09-.38-.57-.19-.87-.2-.29-.09-.38-.19h-.19l-2.79-1.16-2.68-1.15-2.69-1.24-2.59-1.44-2.5-1.54-4.79-3.17-2.12-1.63-1.92-1.53-.57-.48-1.06-.96-2.88-2.69-.48-.48-.38-.48-.19-.19-.67-.77-.68-.67-.76-.96-.77-.86-.86-.96-5.48-6.72-25.52-31.58-9.12-11.13-.96-1.05-3.94-4.71-3.26-4.03-1.34-1.72-1.06-1.35-3.45-4.22-4.13-5.18-1.73-.29-6.81-7.87-3.17-4.51-.19-1.92-1.73-2.02-.09-.19-1.44-1.73-.67-.95-.29-.29-6.72-8.45-.38-.57-2.31-2.98-.77-1.15-2.68-3.84-2.5-3.93-2.4-4.03-2.3-4.23-2.11-4.12-4.22-8.45-.29-.48-9.98-19.86-4.71-9.31-.96-1.83-1.24-2.59-3.27-6.43-4.6-9.21-4.99-10.08-8.93-17.66-2.97-6.04-2.79-5.38-1.05-2.3-1.83-3.36-.57-1.15-.29-.58-.38-.57-1.06-1.63-.38-.58-.1-.19-.38-.48-.77-1.06-.86-1.05-1.35-1.63-.96-1.16-1.25-1.24-5.66-5.76-7.68-7.49-8.73-8.73-1.73-1.82-7.1-7.01-7.58-7.48-4.22-4.23-3.75-3.74-3.35-3.26-2.12-2.11-2.49-2.4-1.54-1.44-1.34-1.06-1.25-.86-.96-.67-1.63-.96-1.34-.68-1.15-.57-3.08-1.06-1.44-.48-1.05-.28-.1-.1-.96-.19-.38-.1-.77-.19-1.15-.29-9.31-1.53-4.89-.87-8.16-1.44-6.53-1.24-13.24-2.31-1.35-.29-3.55-.67-11.03-2.01-13.63-2.31-8.25-1.44-.48-.09-2.21-.39-2.21-.48-6.24-.95-4.6-1.06-1.83-.38-2.4-.68-2.11-.67-1.92-.77-1.72-.76-1.16-.58-.48-.29-1.53-.96-1.44-1.15-1.63-1.25-1.73-1.53-2.11-1.92-2.88-2.88-6.62-6.33-2.69-2.6-.29-.28-2.59-2.59-10.46-9.7-9.6-9.21-13.14-12.67-7.39-7-6.34-6.15-3.17-2.87-5.47-5.19-14.58-13.91-5.19-5.09-4.03-3.65-.09-.09-2.5-2.4-4.03-3.74-7.77-7.78-1.73-1.72-1.15-1.06-.39-.38-1.24-1.16-1.92-1.82-7.3-6.72-.67-.57-25.62-24.47-6.53-6.34-1.92-1.82-13.72-12.96-4.8-4.7-5.57-5.28-6.71-6.33-.68-.67-4.03-3.84-4.6-4.51-17.76-16.8-8.73-8.25-1.54-1.54-12.57-11.99-6.24-5.95-3.26-3.07-7.58-7.3-5.95-5.66-2.02-1.82-4.03-3.94-.67-.77-.67-.67-.58-.57-.86-.96-1.06-1.25-.86-1.15-.96-1.35-.77-1.05-.19-.29-.67-1.06-.87-1.43-.76-1.54-.96-1.73-.68-1.53-1.05-2.11-.96-2.12-3.07-6.71-.77-1.83-.86-1.72-1.06-1.92-.38-.87-.48-.77-.2-.57-.28-.38-.87-1.44-.38-.77-.48-.67-.48-.77-.67-1.25-1.92-2.59-2.11-2.69-3.36-4.22-2.79-3.46-7-8.25-6.82-7.48-4.41-4.42-8.25-7.48-5.38-4.99-5.95-5.38-2.97-2.69-9.02-8.25-5.09-4.7-3.46-3.07-1.53-1.35-1.35-1.15-.76-.67-.87-.58-1.34-1.05-.77-.58-3.55-2.3-1.63-.96-2.02-1.34-2.01-1.15-2.11-1.16-15.65-8.25-4.41-2.21-2.88-1.53-5.66-2.98-6.14-3.16-2.4-1.44-2.02-1.35-1.73-1.34-1.15-.87-1.44-1.24-.38-.39-1.63-1.44-3.17-2.97-2.4-2.4-8.64-8.25-4.41-4.23-1.25-1.15-2.97-2.78-8.64-8.16-3.07-2.88-7.49-7.1-4.41-4.22-2.21-2.11-2.02-1.83-1.92-1.92-1.63-1.53-10.17-9.69-2.78-2.69-11.04-10.46-.77-.67-4.8-4.51-1.92-1.83-1.72-1.53-2.4-2.11-1.44-1.25-1.63-1.35-1.73-1.44-1.82-1.43-.29-.2-1.06-.86-1.15-.96-1.05-.77-.29-.19-.77-.58-1.54-1.05-2.2-1.63-4.03-2.88-3.94-2.88-.77-.48-1.82-1.25-.38-.67-2.98-2.21-3.45-2.49-4.51-3.36-.1-.58-.1-2.11-.09-7-.1-3.36-.19-1.73-.19-1.82-.48-2.79-.19-1.15-.58-1.92-2.11-6.81-5.57-24.38-5.85-22.55v-.19l-1.44-5.95-5.76-24.47-2.69-12.1-5.37-20.92-.87-5.08-1.91-8.64-1.25-5.28-1.15-5.85-.29-3.07.19-9.99.1-2.59-.2-7.58-.28-14.39v-5.09l.09-1.15.48-.96.67-.48 4.99-1.82 1.44-.58.48-.29.48-.96.39-.96.19-1.15-.19-9.31.09-5.08v-5.38l-.09-3.93.57-9.7.1-10.94-1.82-.57-1.16-.29-2.11-.58-2.3-.67-2.3-.57-2.5-.77-1.34-.29-.67-.19-.87-.29-.86-.29-.96-.38-1.44-.58-.77-.28-2.4-1.16-1.73-.86-2.01-1.06-1.34-.67-2.69-1.34-11.13-5.66-6.34-3.46-6.04-3.64-9.79-6.82-12-8.35-2.21-1.63-1.25-1.15-.57-.67-.39-.67-.28-.48-.29-.58-.29-.48-.19-.58-.1-.48-1.53.39-4.8 1.25-.96.19-.1-.48-.09-.48-2.11.57.76-.76 1.25-.39 2.11-.48 1.44-.29 2.4-.38 1.15-.38.39.38 5.18-1.44 7.1-1.82 2.02-.58.86-.19 2.4-.77.29-.29.29-.19.38-.19.48-.19.48-.29.58-.38.67-.48 2.97-1.63 13.53-7.39 3.08-1.73 10.46-6.14 4.41-2.59 7.49-4.23.96-.57 2.59 3.55 2.97 3.93 3.07 4.13 1.83-.29 11.9-3.07 12.47-3.45.96-.29 10.66-3.07 2.4-.68 9.4-2.01 11.81-3.36 12.09-3.26 4.51-1.25 9.21-2.21 9.79-2.49 8.73-2.21.58-.1 1.63-.38 33.59-8.45 11.52-3.45 1.34.38 19.1-4.89.77-.19 17.56-4.71.96-.19 7.2-1.72.57-.58 7.39-2.02 7.39-2.01 8.16-2.11 15.07-3.94-1.44-.96-.29-.48-.29-.38 1.44-8.16 10.94-12.28 13.05-14.4 6.53-8.15 4.8-5.28 4.99-5.28 1.25-1.25 1.34-1.05 2.4-1.83 13.44-7.77 17.08-9.31 16.41-9.5 3.07-2.5 5.76-5.08 1.34 2.3.96 1.82 2.21 3.84 12.19 21.5 11.9 20.92 12.67 23.03.86 1.64 1.34 2.2 2.69 4.9.58.96.38.57.48.77.48.77.39.77h5.18l5.85.09h13.53l7.78-.09 7 .09 12-.29 5.57.1h10.84l.48-.29 11.71-.19v-.58l-.1-.48v-.48l-.09-.28-.19-.48-.2-.39-.19-.38-.38-.58-.39-.57-.57-.96-2.11-3.65-12.67-19.29-.48-.86-.96-2.5 5.66-4.7 3.26-1.63 7.49-5.28 1.15-2.88 3.65 3.36 1.15 1.34.77.96.38.48.29.58.48.67.38.48.29.48.39.67.28.58.39.77.28.57.39.86.29.77.28.67.29.77.1.48.19.58.19.57.19.68.1.57.1.58.19.86.19 1.34.96 5.86 1.44 8.83.86 5.37.96 6.34 6.53.57 2.21.19.57.48 11.13.77 4.61.19 19.68 1.54.67-.29h.19l6.24.58 12.28.76 1.35.1 2.68.19h.39l5.56.48 8.35.58 16.22 1.44.48.29 6.43.47 10.08.77 6.52.48 2.98.19 11.42.68 7.39.38 5.09.29 1.72.09 5.76.29 7.68.48 5.47.48 4.89.48 7.78.87 3.84.28 12.47 1.06 5.86.38 5.28.39 14.1 1.05h.77l4.7.39 9.6.67 16.89 1.25 4.9.38 13.14.96h.2l4.8.38 10.74.77 4.61.29.19.86.1.58.29.67.19.19.38.48.48.58.58.57.67.87.77.86.77.96.96.96 1.05 1.25.86 1.05.39.39.86 1.15.96 1.05 1.63 1.73 1.44 1.44 1.35 1.34 1.15 1.06 1.15.86 3.26 2.12 1.44.96.87 3.07 1.92 2.49 7.96 3.26 3.36 3.08 2.21 5.37 2.01 13.92.48 15.35.67 2.88-.09 2.97-2.02-1.05-1.72-.77-40.98-14.39-.29 14.87-.29 17.56v13.34l1.25 46.55.57 21.3-.38 3.46-.67.67-1.54.67-2.59.58-2.59.19-13.15.29-1.44.09.1 1.92v2.5l.48 25.72-.58 8.73 66.22-1.73.96-.09 2.31 1.15 2.59 2.69 2.97 2.87.58.68.29 4.89 1.91 3.46.2 4.6 4.12 4.61v4.8l4.03 4.12 2.02 8.74 1.25 2.78 4.51 5.09.48 2.78 2.78 3.45.86 5.28 5.57 4.8 1.92 5.76 4.99 8.54.19 5.66 4.32 4.7.77 1.92.48 5.19 3.55 7.19-.19 5.47 1.92 2.6.38 4.7 3.07 4.03.87 5.37 4.12 2.98 1.35 2.21 1.92 6.14 4.03 4.8.67 4.89 1.73 2.69 3.07 2.78 1.05 2.02.58 5.37 6.72 10.75-.19.96 2.68 4.03 5.18 4.89 2.98 4.03.29 1.83 4.6 5.76.96 4.12 3.84 4.99 1.25 6.91 1.54 3.17.09 7.77.87 1.83v4.6l-.87 3.17-.09 7.96 1.24 4.42 1.35 11.13-1.63 6.91-2.69 1.83-14.11.38-3.17-1.82-4.41.48-9.12-5.19-.86 2.5.09 7.29v7.39l.48 3.46.39 3.45v2.4l.09 2.3.1 21.21 51.82-.96.29 30.52.1 1.82.09 5.38.39 5.47-.1 2.69-.09 2.2.09 6.34.67 40.88v11.32l.48 28.32v10.46l.1 2.97v8.54l.1 1.54v3.84l.09 4.79v6.43l-.19 6.53-.1 7.97v5.95l-.19 7.19v2.31l-.19 6.81v2.4l-.1 5.66-.09 4.7-.1 1.44-.09 2.6-.1 2.97-.1 1.34-.09 1.25-.1 2.02 2.79.76 1.72.48 2.31.68.96.28 2.68.77 2.88.87 2.5.76 1.24.39 1.64.48 1.82.48 2.21.57 2.88.77 4.31.86 2.02.29 1.73.29 1.82.19 1.82.1 1.83.09h1.63l3.55-.09 3.65-.19 3.64-.29 2.5-.1 3.74-.38 1.25-.1 1.44-.19 1.25-.19.67-.1 1.73-.38 1.63-.29 1.25-.29 1.34-.48 2.59-.77 5.18-1.82 1.06-.29.77-.28 1.44-.58 1.44-.48 1.53 4.13 4.03 10.07 1.73 5.76 1.53 3.84.68 1.34 1.05 1.25.58.67 1.25 2.31 4.12 7.77 3.75 6.24 4.41 3.55 1.73 1.92 1.63 2.69 2.11.38.58-.19 2.01-.67.67-1.06.77-2.78-4.41-3.94.28-4.8 2.12-3.55-.29-3.84 7.96-2.4 4.61-4.12 3.74 15.54 7.01 31.58 8.92 44.43 6.15 32.06 2.3 12.18.67 2.59 10.17 41.94.77 3.55-5.47-.28 64.11 70.82 3.46 3.74 16.69 18.43-.09 10.36-.39 35.99-16.89 138.58 1.64 12.19-.2 42.9v8.25l.2 34.55 15.45.67 41.17 28.79z" stroke-linejoin="round"/></defs><use xlink:href="#a" fill="#cee3e4" stroke="#cef5f5" stroke-width="5.76"/><defs><path id="b" d="M1511.74 1180.61l-3.26.57-.68-3.07-.38-2.11-.58-2.49-.38-1.83-.67-2.59-.1-.29-.77-.96-.96-3.55-.48-1.72-.47-1.44-.39-1.25-.48-1.25-.48-1.44-1.05-2.59-.58-1.54-.86-1.82-.77-1.53-.87-1.64-.76-1.53-.67-1.15-.77-1.35-.77-1.15-2.11-3.45-2.88-4.32-3.84-5.66-3.45-5.09-1.35-1.92-1.63-2.49-.58-.96-1.82-2.79-2.59-3.84-.96-1.34-.58-.77-.57-.77-.67-.95-.48-.68-1.35-1.72-1.05-1.25-.87-1.06-.96-1.05-.96-1.06-1.15-1.15-.86-.96-.48-.48-.58-.48-1.05-.96-1.06-.86-2.01-1.54-.68-.57-.96-.68-.86-.57-.67-.58-.67-.48-1.44-.96-1.15-.77-1.35-.95-1.72-1.06-2.02-1.06-3.26-1.82-4.32-2.49-2.79-1.54-2.39-1.34-2.31-1.25-3.16-1.82-4.71-2.69-1.53-.77-2.5-1.44-5.76-3.17-1.92-1.15-1.82-.96-2.11-1.25-3.74-2.11-1.92-1.05-4.8-2.79-4.61-2.59-5.85-3.16-4.61-2.5-2.88-1.73-3.45-1.92-3.46-1.91-4.8-2.69-1.34-.67-7.1-3.94-1.35-.77-1.24-.57-5.09-3.07-1.34-.67-15.74-8.83-3.65-2.12-1.15-.67-.48-.86-1.15-.77-1.63-.86-1.54-.77-1.25-.67-1.44-.67-1.44-.68-.96-.47-1.24-.48-1.25-.48-.96-.39-2.59-.96-1.25-.38-.1-.1-2.59-.67-2.4-.58-.19-.67-.19-.86-.19-.67-.19-.67-.2-.77-.57-2.98-.29-.86-.29-.77-.57-1.92-.39-1.15-.38-.96-.58-1.54-.48-.95-.29-.48-.28-.58-.58-.86-.57-.87-.68-.96-.48-.57-.48-.68-.76-1.05-.39-.58-.48-.57-.19.77-.29 1.05-.48 1.54-1.92 6.04-.38 1.25-2.3 6.62-1.16 3.07-1.53.1-1.34.09-2.5.2-2.78.28-3.94.39-6.81.77-.77.57-3.55.39-16.7 1.72-18.23 2.02-.96.09-6.24.77-8.64.87-5.28.48-2.59.19-2.69.09-1.24.1-1.44-.1h-2.02l-3.17-.09-2.49-.19-1.73-.2h-.96l-17.66-1.92-1.72-.09-7.49-.77-3.17-.29-2.49-.09-1.35.09h-2.11l-2.01.1-3.07.38-3.36.48-1.83.19-.57.2-2.11.48-2.59.67-5.09 1.44-4.42 1.25-13.43 3.83-11.52 3.36-4.13 1.15-2.2.68-2.11.57-1.16-.19-1.44.48-1.43.38-.77.2-.19.09-.68.19-1.24.29-1.92.48-3.07.67-3.46.68-4.61.67-3.45.38-1.34.29-.68.09-1.05.2-.77.09-.86.1-1.35.29-2.59.28-2.88.48-4.22.77-1.82.29-3.27.77-3.64 1.05h-.29l-1.44.48-2.5.67-12.76 3.75.1.29-.2.28-2.4.68-.09-.48-.19-.58-1.25.58-5.66 2.01-34.27 9.6-1.34.38-.29.29-4.32.96-5.37 1.63-9.12 2.69-8.63 2.11.19.48.19.77-6.24 1.72-.19-.38-.1-.48-8.83 3.17-7.1 1.53-8.54 2.88-3.93 1.15h-2.5l-.96 1.06-.77.29-.48.09-.67.29-3.45 1.15-2.31.87-2.11.76-3.84 1.35-1.53.57-1.44.48-.77.29-.67.29-.1-.38-1.15-2.79-6.91-21.69-.29-.86-.38-1.63-.86-2.79-.68-1.05-12.86-40.79-4.8-17.08-4.12-14.68-.48-1.54-2.88-9.6-3.74-11.42-1.44-8.15-.29-1.54-1.82-9.21-.96-5.38-.87-6.14-.29-2.68-1.72-15.17-.39-11.71-2.3-30.51-.86-4.42-.96-14.11.09-1.05.39-1.35-1.06-18.71-.67-10.46-2.11-27.45-.2-3.07-.28-2.59-.2-2.3-.19-3.55-.96-16.61v-.67l-.57-8.25-1.63-26.2-.77-13.34-.39-4.32-2.2-23.7-1.35-64.88-.67-8.44-1.82-35.7 2.49-.1 1.15-.1 2.12-.09 3.64-.29h3.75l3.83-.77 3.65-.28 2.31-.96-1.35-14.88 2.69 1.54.48.09h1.15l3.55-.29 1.25-.19 3.55-.86.96-.19 1.15-.1h3.07l3.55-.1h1.15l3.17-.28h.67l.58.19 1.63.57.58.2.76.38.68.38 2.01 1.54.39.19.96.48.57.29 1.82.57.58.1 2.02.58 4.99 1.05 1.63.29 2.11-9.4 1.73-7.2.09-.19 3.07-13.25.87-3.07h1.05l.48-.1.58-.09.67-.1.58-.19 2.88-.77 4.89-1.44 4.61-1.34 1.82-.58 6.43-1.91 3.74-1.25 3.75-1.15 2.59-.87 3.93-1.15 2.4-.67 13.15-4.13 10.46-3.16 9.12-2.98.96-1.54-.77-1.15-4.99-9.69-1.82-3.45-.29-.58-11.52-22.46-43.86 25.53-1.53.38.67-2.59 1.05-4.03 1.92-7.39 1.16-4.7 1.82-7.68.19-.76 3.07-12.29 1.25-5.57.19-1.15 1.15-4.6 1.44-5.86.39-1.63 2.11-8.54.86-3.74.67-2.79.68-3.35.19-1.06.38-1.73.29-2.11.19-1.05.38-3.17.2-3.07.19-1.92-.19-.39.09-4.51v-2.68l-.09-3.84-.2-2.69.58-.1 1.25.1h.48l.38.1.67.09.68.29.28.29.96.77.58.57.29.67.38 1.16.1.95.28 2.98.48 6.33 1.06 10.46.77 4.8 1.53 6.62v.29l.68 2.21 1.63 4.03.86 1.92 1.15 2.59 2.11 4.61 4.42-.67 1.53.38 2.4.86 1.15.29 4.8-1.05.39 4.7.48 2.4.76 1.34 1.25 2.02v2.3l1.25 2.01.86 3.17.87 3.07.77 2.21 1.72 1.34 2.02 2.21 2.49 1.25 2.4.57 1.63 10.94 1.73 4.04 1.54 1.72 2.11 1.73 1.25.48v2.3l-.48 3.75.48 2.68 4.03 2.11 4.51 1.83 1.25 3.84 1.53 2.11 2.88.48 2.5 1.34 1.24 1.92v1.63l1.15 1.25 1.25-.38 2.02-.1 2.78.86 2.11-1.82 3.65-1.25 3.26-.86 1.92-3.46 1.63-3.16.39-2.31v-2.11l1.15-3.36 1.25-2.2.76-1.06 2.5-.38 2.4.86 2.11 1.82 1.92 2.4 1.73 1.35 2.78-.77 2.4.29 2.11 1.44 3.94 2.68 1.43 2.12 1.06 1.43 1.25 2.5 2.01 2.11 1.73 2.3.38 2.69.39 2.98.57 4.89.68 1.44 2.11 2.02 2.4-.87 1.63.96 2.4 1.54 2.11 1.92 2.88 2.97 2.01 2.21 2.12 2.69 1.53 2.4 2.5 4.51 4.12.57 3.27.48 3.64-.96 4.51-1.25 2.79-2.78 1.44-.96.57-.38 3.17.57 2.97-2.01 2.02-1.73 2.4-.29 3.17-.09 3.26-2.11 4.61.76 3.26-.57 3.65-1.73 2.78.48.57.19 4.71 2.5 3.93 2.97 4.03 3.26 4.23 4.42 4.12 2.49 3.55.68 3.94-.39 5.28.48 3.55.1 4.41 1.25 2.4 1.82 3.07 2.3 2.02 3.55 2.88 2.98 2.4 2.49 1.82 2.69 3.65 3.65 3.55 3.64 4.41 1.73 5.18.39 6.43.67 3.17-.48 3.65-.67 3.65 1.44 3.35 2.59 4.03 4.7 2.5 2.59 3.36 4.22 2.59 3.46 1.73 1.82.38 2.69-1.92 3.55-.29 3.55.1 2.21 1.25 2.49 1.25 1.35 2.78.38 4.51 1.82 2.49 1.73 2.4.48 3.27-.29 2.78.1 2.88.77 4.89.86 1.73 2.59.48.38 3.17 2.88 4.12 2.88 2.79 2.98 4.6 10.55 10.75 7.39 7.78 13.25-.77 7.39.58 1.92.48 2.2.67 5.19.28.38.48.1 2.21 1.05 2.5 1.83 2.11 1.05 2.21 1.34.86.87 1.34 1.44 3.94 5.47.77.48.67.19 2.3-.38.86.19 1.06.48.86.77.48.48 1.73 3.35 1.15 5.38.29 2.59.19 4.41-.28 1.44-1.16 2.5-2.3 3.84-.58 2.97-1.44 6.24-2.87 3.36-1.44 2.11-1.64 2.4-.76 1.82-.58 2.02-.1 1.82-.09 1.44.38 5.76-.48 4.8v2.11l-.57 3.84-.39 2.97.29 4.42.67 3.93.48 2.11.48 1.35.67 1.92.48.48.68.19.96.09 1.15.29h.96l2.11-.38.77-.77 1.24-.38.39-.19.29-.48.86-2.31.48-3.45v-1.73l.19-.38.87-.68.28-.76.19-.68.2-.57.48-.67.67-.48.57-1.06v-.19l.2-1.34.09-.1.67-.1.39-.19.48-.57.19-.68.38-.28.48-.1.29.19.77.67.58.2 1.05-.29 1.06.09 1.44.58 1.15.67 1.34.77.29.38.19.58-.09 2.78.28.19h1.35l.38.2.77.96 1.63.76 1.54 1.25.19.29.19.1h.38l.29-.1 1.44-.48.19.1.39 2.11.19.19.57.09.29-.19.29-.29.58-.28.48-.19 1.15-.1.29 1.34.09.19h.19l1.44-.38.29.1.58 1.05.57.48.1.1h.38l.96-1.06.58-.09 1.53.28.39-.09 2.49-1.44 1.06-1.63.96-.77.96-.19 2.88-2.21 2.49-1.92h.58l.48.19.29-.09.28-.29.29-.96.29-1.25.29-.67.19-.1.67-.09.58.57 1.63 4.8 2.21 4.13.38.67 1.53-3.84 2.02-8.25 1.44-5.18 1.34-4.51 2.21-8.83.58-1.63.67-1.64 1.25-2.4 2.2-3.74 3.36-4.8.96-1.82.87-1.73.67-2.01.86-2.88.67-2.88.39-1.54-15.26-25.81-26.2-44.34-15.74 3.84-39.25-39.25-37.24-63.34-3.17-5.28-63.72-76.68-15.74-19 13.24-16.7 19.48-26.87 17.28-23.51 19-26.3 7.97 8.06 6.43 7.3 1.72 2.11 6.05 8.16 3.84 6.33 3.55 6.14 2.69 5.28 2.01 3.07 6.82 10.56 1.82 2.3 2.3 2.21 4.8 5.66 5.38 4.13 3.93 2.97 10.46 7.97 12.38 9.4 4.23 4.03 4.41 4.9 8.73 9.79.29.28 11.23 12.19 5.57 6.62 7.19 6.91 3.36 2.88 3.65 2.98 2.69 1.92 4.03 2.3 4.41 2.21 4.8 2.2 2.69-7.1 4.41-11.13-7.77-3.45 5.76-12.86 6.91 3.93-6.05-79.85-3.07-7.86-18.81-44.73-14.78-35.41 3.36 1.06 3.17 3.07 4.03 5.76 3.64 5.08 6.05 3.65 4.13.1 3.26 2.97.86.67 16.42-8.16-.68-.48-8.63-5.18-11.04-3.26-1.54-.58-7.96-2.68-4.22-2.02-1.73-1.05-2.31-1.92-2.87-3.27-1.73-3.07-26.59-55.56-2.11-4.71-1.44-3.45-1.72-5.66-2.6-9.22-5.47-22.84-1.15-5.08-2.11-8.83 41.94-14.59 28.22-9.79 11.99 9.5 5.28-1.34 5.28 1.25 8.44-1.92-2.39-12.77-7.11-38.38 33.59-26.4.29-1.24 7.77-7.97.68-2.3-.77-2.5-3.55-3.93-3.65-5.38-2.4-5.56.29-2.21v-1.25l-.86-1.92-.29-.96.29-1.15 3.64-2.59 1.15-2.01-.67-2.21-.86-2.3 6.14-2.6 1.63-.48 2.02-.57 4.6-.67 84.75-3.36 7.48-.29h3.55l1.54.1 1.82.28 1.73.48 2.21.87 1.82.48 1.54.29 3.45.48 4.61.38h.48l7.58.67 12.86 1.25 20.25 3.55 9.02 1.82 10.17 2.5 21.41 8.16 8.44 2.3 15.36 2.78 12.57 2.02 3.45.38.39.1 13.72 3.55 12.38 2.4 4.61 68.42 3.36 1.63 53.93 20.73 1.83 3.65 6.43 7.68 3.45 6.43 4.8 4.22 1.92 4.13 4.32 4.12 2.78 4.51 2.98 3.17 10.46 4.42 4.03 2.68 4.99 6.43 5.47 10.94 5.37 5.67 1.35 4.03 7.87 2.78 108.64 41.07 1.44-1.92.19-1.82 2.97-3.93.77-2.79 6.33-5.56 1.25-4.03-7-6.63h-3.55l-5.09-1.72-7.58-.87-3.65-1.63-2.3-3.17-1.92-6.81-3.65-5.09-.86-3.83-1.92-2.31v-1.15l-2.98-4.99-.48-1.73 59.98 22.75 48.18 18.33 14.97 5.66 6.91 2.69 6.82 2.49 11.23 4.32 3.16 1.25 109.89 41.36 21.79 8.25.19.29 2.11 5.95 4.51 4.32.1 4.9 2.78 2.97.29 2.3-1.25 2.88.1 2.98 4.79 6.43 1.35 3.93 3.45 3.17 9.5 3.26 8.45 5.66 7.58 6.53 2.69 5.37 4.8 3.36 5.66 7.97 1.73.96 3.83-.1 3.36-2.2 3.65-.77 3.65 2.49 2.59.87 4.51-.1 2.4 1.15 1.63 1.73 4.03 2.21 3.74 3.74 5.57.58 2.88 2.87 1.54 3.75 3.35 2.2 2.5 2.88 1.63.87 5.57-1.92 2.88 3.84 8.35 3.45 3.55 4.13 4.32 1.53 2.3 2.02 1.44 3.36 10.46 4.32 7.48 5.95 4.32 4.99 4.13 3.16 3.55 1.64 4.8 4.31 6.91 2.5 14.68-1.73 14.02.96 3.74 1.63 8.92-1.34 1.63.48 2.31.67 3.65 2.3 5.18.96 2.3.87 7.2 6.62 7.77 2.78 3.84.19 5.18-1.05 1.92 1.34 1.54 1.73 2.97 3.26 1.73 3.17 1.25 5.95 6.05 10.17 5.66 4.8 5.28 2.4 15.06 9.88 4.42 1.83 5.76-1.06 4.41 7.78 4.32 1.53.86 2.02 4.9 4.99 3.64 11.23 1.73 2.68 2.11.96 4.9-.09 4.89 4.89 5.38 1.34 6.33 4.61 4.32-.96 1.63 1.82 1.15 2.5 3.36 2.59.29.86 3.55 3.27 4.9 1.05.67.48-2.98 4.99-1.63 2.31-2.69 2.88-2.59 2.11-2.11 1.63-1.73 1.05-2.01.68-9.89 2.3-1.53.19-1.83.58-1.82.57-5.85 2.4-16.03 8.93-7.77 5.66-1.83 1.63-.67.67-13.24 12.38-6.15 7.2-37.33 31.38-2.11 1.73-37.72 30.42-7.77 6.14-6.33 5.38-2.88 2.88-1.64 2.11-.67 2.21.48 3.35.77 5.09.29 4.42 1.05 3.83 1.64 4.71.67 3.74v2.3l-.48 2.59-1.06 2.21-1.34 1.54-2.59 2.2-1.44 1.92-1.25 2.4-1.34 3.55-1.44 7.2.67 6.24-21.88 2.4-19.29 1.82-1.25.87 1.92 57.67 16.31.39 14.69-.58.77 13.15 3.93 13.63 5.85 12.66 10.47 14.69-.96 2.2-.68 2.98-.19 2.59.58 21.11.09 1.73.48 25.24v1.06l.96 37.62.58 4.41h-2.88l-2.11-7.77-.77-.48-37.04-2.11-15.74.28-40.41-2.68h-2.11l2.02 7.67-.58 9.89.67 1.82 2.98 4.61 1.15 6.43-1.44 5.56v4.13l3.84 6.82.67 4.79-1.44 3.17-4.99 5.85-1.25 2.69-.19 4.8 2.78 7.58 4.9 9.98 5.37 4.13 1.25.86 4.22 5.95 5.09 2.69 2.78 3.93 4.71 9.6 7.77 3.17 1.53.77 1.54.86 1.44.86 1.15.68 1.25.76.57.39.96.67.96.86.96 1.06.87.77.57.67.58.77.48.57.29.58.48.86.28.96.2.77v2.4l.09.77.1.96.09.86v.77l.1.67-4.61-.29-10.74-.77-4.8-.38h-.2l-13.14-.96-4.9-.38-16.89-1.25-9.6-.67-4.7-.39h-.77l-14.1-1.05-5.28-.39-5.86-.38-12.47-1.06-3.84-.28-7.78-.87-4.89-.48-5.47-.48-7.68-.48-5.76-.29-1.72-.09-5.09-.29-7.39-.38-11.42-.68-2.98-.19-6.52-.48-10.08-.77-6.43-.47-.48-.29-16.22-1.44-8.35-.58-5.56-.48h-.39l-2.68-.19-1.35-.1-12.28-.76-6.24-.58h-.19l-.67.29-19.68-1.54-4.61-.19-11.13-.77-.57-.48-2.21-.19-6.53-.57-.96-6.34-.86-5.37-1.44-8.83-.96-5.86-.19-1.34-.19-.86-.1-.58-.1-.57-.19-.68-.19-.57-.19-.58-.1-.48-.29-.77-.28-.67-.29-.77-.39-.86-.28-.57-.39-.77-.28-.58-.39-.67-.29-.48-.38-.48-.48-.67-.29-.58-.38-.48-.77-.96-1.15-1.34-3.65-3.36-1.15 2.88-7.49 5.28-3.26 1.63-5.66 4.7.96 2.5.48.86 12.67 19.29 2.11 3.65.57.96.39.57.38.58.19.38.2.39.19.48.09.28v.48l.1.48v.58l-11.71.19-.48.29h-10.84l-5.57-.1-12 .29-7-.09-7.78.09H2020l-5.85-.09h-5.18l-.39-.77-.48-.77-.48-.77-.38-.57-.58-.96-2.69-4.9-1.34-2.2-.86-1.64-12.67-23.03-11.9-20.92-12.19-21.5-2.21-3.84-.96-1.82-1.34-2.3-5.76 5.08-3.07 2.5-16.41 9.5-17.08 9.31-13.44 7.77-2.4 1.83-1.34 1.05-1.25 1.25-4.99 5.28-4.8 5.28-6.53 8.15-13.05 14.4-10.94 12.28-1.44 8.16.29.38.29.48 1.44.96-15.07 3.94-8.16 2.11-7.39 2.01-7.39 2.02-.57.58-7.2 1.72-.96.19-17.56 4.71-.77.19-19.1 4.89-1.34-.38-11.52 3.45-33.59 8.45-1.63.38-.58.1-8.73 2.21-9.79 2.49-9.21 2.21-4.51 1.25-12.09 3.26-11.81 3.36-9.4 2.01-2.4.68-10.66 3.07-.96.29-12.47 3.45-11.9 3.07-1.83.29-3.07-4.13-2.97-3.93-2.59-3.55-.96.57-7.49 4.23-4.41 2.59-10.46 6.14-3.08 1.73-13.53 7.39-2.97 1.63-.67.48-.58.38-.48.29-.48.19-.38.19-.29.19-.29.29-2.4.77-.86.19-2.02.58-7.1 1.82-5.18 1.44-.39-.38-1.15.38-2.4.38-1.44.29-2.11.29-2.69.38-1.82.96-12.38 2.79-11.42 3.16-1.63.87z" stroke-linejoin="round"/></defs><use xlink:href="#b" fill="#cee3e4" stroke="#cef5f5" stroke-width="5.76"/><defs><path id="c" d="M1148.68 1764l-.58.19-.86.2-.77.09h-1.92l-.86-.09-.86-.1-.68-.19-.86-.19-.77-.29-.77-.29-.86-.48-1.25-.58-.86-.48-.67-.38-.48-.29-.58-.19-.67-.29-.67-.19-.67-.1-1.25-.09h-1.92l-.77.19-.96.19-.96.19-1.25.48-1.15.39-.86.38-1.25.48-.38.19-.48.1-.39.1-.48.09h-.57l-1.15.1-1.92.19-2.02.1-2.97.19h-31.19l-2.02-.1-2.78-.09-.19-9.31.09-4.03v-1.54l.1-5.85v-2.4l.09-8.64.1-16.31v-11.23l.19-13.82.1-9.02.09-10.85v-4.7l-.09-5.09-.39-5.85-.28-2.3-.58-5.76-.67-4.51-.67-4.42-.39-2.2-.77-4.52-.57-2.11-.48-1.92-.87-2.97-.48-1.44-.67-2.02-.67-2.3-1.15-3.55-.58-2.02-.67-2.68-.67-2.31-1.25-3.45-.67-1.34-7.49-15.74-2.39-4.23-1.54-2.78-.96-1.63-.86-1.54-1.06-1.63-2.11-3.55-.38-.77-.68-1.05-.48-.96-1.72-2.88-2.69-4.89-1.92-3.65-1.44-2.98-.58-1.05-2.68-5.76-.87-1.92-.57-1.25-.48-1.05-1.92-4.61-1.35-3.74-1.43-3.65-.39-.86-.29-.67-.19-.48-.67-1.92-.29-1.06-.57-1.63-.77-2.59-.77-2.31-.67-2.39-.39-1.25-2.78-10.27-1.34-5.76-.39-1.82-.76-3.94-.77-3.16-.67-2.4-.2-.67-.19-.96-.19-.77v-.19l-.19-.68-.29-.67-6.72-23.13-3.26-12.28-2.97-11.13-2.31-9.12-4.51-17.27-1.73-6.05-.67-1.92-.96-3.36-.29-1.05-.19-1.16-.38-1.53-.39-1.54-.38-.96-.29-1.24-.38-1.44-.77-2.5-.38-1.34-.1-.67-.19-.68-1.54-5.37-4.89-15.83-.19-.58-1.83-6.53-.96-4.12-1.72-6.91-.77-2.88-.77-2.69-.67-2.78-1.34-4.8-1.35-4.7-1.53-5.67-1.54-5.66-6.05-22.55-3.93-12.96-1.15-3.26-.67-2.11-.29-1.06-.1-.28-.96-3.36.29-.87.38-.67.39-.19.38-.1.48.2.39.19.28.19.39.19-.29-1.25-.48-1.53-1.06-.67-.76-.39-1.92-.96-.48-2.49-.39-1.63-.38-1.63-.19-1.16-1.73-7.48-2.49-9.12-.58-2.21-4.51-16.98-.48-1.73-1.34-4.8-1.16-4.13-1.53-5.47-.96-3.55-.96-3.36-.96-3.93-.58-2.02-.57-2.2-1.44-5.28-1.25-4.03-1.25-3.55-1.05-2.88-.96-3.07-.48-1.15-.29-.68-.48-.76-.67-1.06-.67-1.05-.58-1.06-.48-.86-.29-1.06-.29-1.73-.28-2.59-.29-2.3-.39-1.92-.28-2.4-.2-1.15-.48-1.63-.57-1.92-.29-.87-.29-.86-.48-1.54-.67-2.3-2.59-8.44-1.06-3.56-.86-2.49-1.15-4.03-.96-2.78-.67-1.92-.77-2.88-.19-.39-.96-3.07-1.06-2.68-1.15-5.09-2.49-7.58-4.8-14.21-.29-.57-.19-.58 2.68-.96.87-.38.67-.29.77-.29 1.44-.48 1.53-.57 3.84-1.35 2.11-.76 2.31-.87 3.45-1.15.67-.29.48-.09.77-.29.96-1.06h2.5l3.93-1.15 8.54-2.88 7.1-1.53 8.83-3.17.1.48.19.38 6.24-1.72-.19-.77-.19-.48 8.63-2.11 9.12-2.69 5.37-1.63 4.32-.96.29-.29 1.34-.38 34.27-9.6 5.66-2.01 1.25-.58.19.58.09.48 2.4-.68.2-.28-.1-.29 12.76-3.75 2.5-.67 1.44-.48h.29l3.64-1.05 3.27-.77 1.82-.29 4.22-.77 2.88-.48 2.59-.28 1.35-.29.86-.1.77-.09 1.05-.2.68-.09 1.34-.29 3.45-.38 4.61-.67 3.46-.68 3.07-.67 1.92-.48 1.24-.29.68-.19.19-.09.77-.2 1.43-.38 1.44-.48 1.16.19 2.11-.57 2.2-.68 4.13-1.15 11.52-3.36 13.43-3.83 4.42-1.25 5.09-1.44 2.59-.67 2.11-.48.57-.2 1.83-.19 3.36-.48 3.07-.38 2.01-.1h2.11l1.35-.09 2.49.09 3.17.29 7.49.77 1.72.09 17.66 1.92h.96l1.73.2 2.49.19 3.17.09h2.02l1.44.1 1.24-.1 2.69-.09 2.59-.19 5.28-.48 8.64-.87 6.24-.77.96-.09 18.23-2.02 16.7-1.72 3.55-.39.77-.57 6.81-.77 3.94-.39 2.78-.28 2.5-.2 1.34-.09 1.53-.1 1.16-3.07 2.3-6.62.38-1.25 1.92-6.04.48-1.54.29-1.05.19-.77.48.57.39.58.76 1.05.48.68.48.57.68.96.57.87.58.86.28.58.29.48.48.95.58 1.54.38.96.39 1.15.57 1.92.29.77.29.86.57 2.98.2.77.19.67.19.67.19.86.19.67 2.4.58 2.59.67.1.1 1.25.38 2.59.96.96.39 1.25.48 1.24.48.96.47 1.44.68 1.44.67 1.25.67 1.54.77 1.63.86 1.15.77.48.86 1.15.67 3.65 2.12 15.74 8.83 1.34.67 5.09 3.07 1.24.57 1.35.77 7.1 3.94 1.34.67 4.8 2.69 3.46 1.91 3.45 1.92 2.88 1.73 4.61 2.5 5.85 3.16 4.61 2.59 4.8 2.79 1.92 1.05 3.74 2.11 2.11 1.25 1.82.96 1.92 1.15 5.76 3.17 2.5 1.44 1.53.77 4.71 2.69 3.16 1.82 2.31 1.25 2.39 1.34 2.79 1.54 4.32 2.49 3.26 1.82 2.02 1.06 1.72 1.06 1.35.95 1.15.77 1.44.96.67.48.67.58.86.57.96.68.68.57 2.01 1.54 1.06.86 1.05.96.58.48.48.48.86.96 1.15 1.15.96 1.06.96 1.05.87 1.06 1.05 1.25 1.35 1.72.48.68.67.95.57.77.58.77.96 1.34 2.59 3.84 1.82 2.79.58.96 1.63 2.49 1.35 1.92 3.45 5.09 3.84 5.66 2.88 4.32 2.11 3.45.77 1.15.77 1.35.67 1.15.76 1.53.87 1.64.77 1.53.86 1.82.58 1.54 1.05 2.59.48 1.44.48 1.25.39 1.25.47 1.44.48 1.72.96 3.55.77.96.1.29.67 2.59.38 1.83.58 2.49.38 2.11.68 3.07 3.26-.57 1.63-.87 11.42-3.16 12.38-2.79 1.82-.96 2.69-.38 2.11-.29-2.11.48-1.25.39-.76.76 2.11-.57.09.48.1.48.96-.19 4.8-1.25 1.53-.39.1.48.19.58.29.48.29.58.28.48.39.67.57.67 1.25 1.15 2.21 1.63 12 8.35 9.79 6.82 6.04 3.64 6.34 3.46 11.13 5.66 2.69 1.34 1.34.67 2.01 1.06 1.73.86 2.4 1.16.77.28 1.44.58.96.38.86.29.87.29.67.19 1.34.29 2.5.77 2.3.57 2.3.67 2.11.58 1.16.29 1.82.57-.1 10.94-.57 9.7.09 3.93v5.38l-.09 5.08.19 9.31-.19 1.15-.39.96-.48.96-.48.29-1.44.58-4.99 1.82-.67.48-.48.96-.09 1.15v5.09l.28 14.39.2 7.58-.1 2.59-.19 9.99.29 3.07 1.15 5.85 1.25 5.28 1.91 8.64.87 5.08 5.37 20.92 2.69 12.1 5.76 24.47 1.44 5.95v.19l5.85 22.55 5.57 24.38 2.11 6.81.58 1.92.19 1.15.48 2.79.19 1.82.19 1.73.1 3.36.09 7 .1 2.11.1.58v.86l.09.19.1 1.44.19 11.52-1.34.48-3.17.96-7.87 2.21-15.26 4.99-7.58 2.2-2.11.58-14.5 4.7-19.77 5.67-9.4 3.16-19.29 5.86-4.42 1.34-20.15 6.53-13.24 3.83-4.13 1.64-3.36 1.34-15.74 4.7-3.65 1.06-17.75 5.28-.86.38-4.03 1.54-1.44.86-.29.48-.29.29-.1 1.24.2 1.06.19 1.34 1.63 4.9 1.06 3.36 1.15 4.03 3.26 12.19.58 2.11 4.79 18.71 3.56 12.28 1.63 6.53 2.68 10.46 1.25 4.13.29 1.44.1 1.24-.2.68-.57.57-1.06.39-7.68 2.68-10.17 3.17-60.08 18.62-4.6 1.34-2.88.87-.87.28-.57.1-.58.1-.57.19-.87.29-2.88.96-4.7 1.43-.77.29-8.44 2.69-11.52 3.45-7.39 2.31-16.31 5.08-11.71 3.75-11.9 3.64-6.15 2.02-8.54 2.69-11.99 3.74-7.58 2.49-.29.1-5.95 2.02-.96.38-2.4.58-2.21.57-1.82.58-3.17.96-4.32 1.34-9.88 3.26-14.4 4.42-8.92 2.78-2.79.86-3.16.87-3.84 1.15-1.63.38-1.54.48-1.54.48-.76.39-1.06.38-.86.38-.77.39-.96.57-.77.48-.86.58-.77.58-.77.57-.86.77-.87.77-.76.67-1.15 1.05-.96.87-1.35 1.25-2.21 1.82-4.51 4.03-5.75 4.61-1.25 1.15-1.35.86-.96.67-1.43.96-.68.39-.48.29-2.11 1.34-1.63 1.05-2.88 1.44-5.47 2.21-3.26 1.44-5.28 2.5-2.98 1.34-2.2.86-3.46 1.44-3.26 1.35-1.54.57-1.53.67-2.4.96-.96.29z" stroke-linejoin="round"/></defs><use xlink:href="#c" fill="#9dc8ca" stroke="#9dd7f0" stroke-width="5.76"/><defs><path id="d" d="M2385.46 2861.4l-7.1 1.64-7.01-.2-.57-1.24-2.59-3.84-4.61-4.99-2.69-4.61-4.32-3.84-7.87-2.69-2.2-.95-11.9-3.17-8.93-5.66-3.93-9.79-1.44-7.01-2.31-11.99.58-6.15.96-1.92.09-1.82.48-3.45-.48-3.36-.57-1.06-.96-7.2-.67-5.66-.39-3.74-2.01-3.84-5.28-5.47-4.42-4.22-3.83-2.4-5.09-5.28-1.63-.67-2.02-2.02-1.63-.86-3.65-3.84-1.15-1.34-3.74-2.12-2.02-.67h-4.03l-4.99.67h-1.92l-1.92-.28-3.26-1.44-2.88-.48-3.36-.29-3.93-.67-2.11-.58-3.55-1.63-4.04-1.44-4.79-1.53-7.78-6.24-4.7-4.51-4.7-7.87-.96-1.25-.67-.38-2.21-.77-2.59-1.06-2.59-1.82-7.68-6.05-2.5-2.49-6.81-7.39-2.5-2.69-1.24-.96-.2.48-.09.39-.19.28-.29.48-.19.58-.39.67-4.32 7.49-1.92 3.26-.67 1.15-.57.86-.77 1.25-3.26-5.76-1.06-1.92-.96-1.91-.86-2.12-.87-2.2-.57-2.02-.48-2.21-.19-.96h-1.06l1.15.96-47.31 17.09-45.97 14.49-46.07 14.49-45.97 14.39-46.07 14.5-45.97 14.39-43.76 19.19-56.43 66.42-2.01-.29-3.27-1.44-1.53-1.35-2.59-4.79-.48-4.03-.96-5.76-3.27-19.1-2.49-7.77-2.02-5.09-1.15-2.3-2.88-3.46-.77-1.34.1-1.35-1.25-3.26.77-1.92-.96-1.73-.38-.38-1.64-2.49-1.34-1.06-2.01.1-.68-.2v-.48l.29-.67-.29-.38-.96.48-1.72.38-.77-.67-.1-2.78-.48-.67-1.34-.2-1.15-.67v-.38l-.58-.29-1.63-.58-.58-.76-1.34.09-.57.77-.39.29-.19-.1-.29-.29-.38-1.82-1.06-1.06-.86.2-1.83 1.34-1.05 1.06-2.3 1.92-1.35 1.63-.96 1.24v1.06l-.48.77-.67.38-.86-1.05-.48-1.16-4.23 5.38-.57-.29-1.92-7.1.38-4.22.77-2.21 1.44-3.07 1.15-4.51.19-2.59-1.05-4.42-2.3-6.33-2.4-4.99-3.46-4.13-3.07-2.78-6.43-3.17-9.02-2.59-5.38.19-7.48-.96-5.66-3.74-5.67-7.39-1.72-10.84v-6.43l-.68-3.65-.09-2.78 1.15-3.65 4.03-5.86 3.36-4.31 5.57-8.45 1.82-5.66 1.44-2.59-.67.29 3.45-7.11 1.54-3.74.77-3.74.48-5.66.28-6.24-2.49-4.22-17.66-14.11-11.52-11.42-4.12-4.13-4.8-18.71v-4.71l.48-6.81 2.01-5.66 4.61-.29 1.92 1.44 1.44-.1 2.01-9.5.87-4.99.09-.38.77-3.84.19-.86.87-10.37-1.15-7.77-5.67-9.6-5.76-7.48-2.78-4.71-3.17-6.71-2.78-6.91-.57-2.02-3.27-11.42-2.78-3.93-3.65-4.23-1.05-.96-4.13-4.03-4.51-5.28-5.09-8.44-3.64-9.21-2.31-5.19-3.93-1.44-.77-.57-16.51-12.67-.86-2.69-2.59-2.2-.87-1.06-4.12-5.37-8.16-9.79-5.85-5.57-1.83-3.36-.29-3.36v-3.93l.87-3.65 8.64-21.4 1.72-7.1.67-7.58-.47-5.57-.77-3.84-1.35-3.07-1.05-2.11-1.35-1.63-3.26-2.59-2.97-1.63-4.23-.48-18.04-5.28-1.73-.87-3.26-1.72-2.4-1.15-.77-.39-.86-1.34-.38-.67-.39-.77-.38-.87-.19-.67-.2-.67-.09-.67-.1-.67-.09-.67v-.58l-.1-.58v-1.24l.19-.87.1-.67.19-.77.86-2.78.2-.77.19-.67.19-.67.1-.58.09-.57.1-.96.09-1.92.29-2.4.1-.86.09-.58.1-.58.1-.48.19-.57.29-.67.28-.68.39-.86.38-.67.48-.86.29-.48.48-.87.96-1.53.86-1.44.58-.96.48-.67.48-.87.57-.86 1.06-1.35 3.65-4.7.48-1.73.09-1.05-.19-.96-.77-1.73-3.45-8.16-.1-5.08-.67-5.66-1.25-6.15-2.88-5.37-1.82-1.73-2.21-2.11-2.11-1.25-2.78-.86h-3.46l-6.62.38-4.51.48-9.89-1.34-6.04-.67-3.55.38-2.5.67-1.44.68-22.36 16.41-4.99 2.3-4.32-.58-2.69-2.49-2.68-4.22-2.02-6.43-.09-.29-2.11-3.55-2.02-3.27-1.54-1.63-4.51-4.51-3.64-4.12-4.99-5.67-.48-.67-.87-1.15-8.92-11.61-4.99-8.74-2.02-4.7-2.11-8.44-2.02-5.95-4.12-6.43-4.32-5.57-4.51-3.74-4.32-2.98-.86-.67-5.28-2.49-5.57-.77h-4.99l-4.51 1.44-9.89 4.22-6.62 1.63-5.76 1.25-4.12 1.34-7.1 2.11-7.01 1.73-7.39-.48-2.11-.38-3.74-.67-6.34-2.21-2.21-1.82-1.43-2.6-.68-3.16v-3.65l-.57-14.97-.39-12.67-.48-5.66-.86-2.78-1.54-2.21-1.72-1.54-2.4-2.68-1.25-4.8.19-4.99.58-4.42-.58-4.6-1.63-2.4-1.82-1.15-3.75-1.73-2.97-.39-2.88.2-2.59 1.24-2.5 2.31-1.44 1.53-2.11 2.11-5.08 2.98-3.84.57-9.12-.09-3.74-1.06-1.73-1.92-1.06-2.68-.38-3.27.1-1.72 1.15-1.35 4.99-4.8 2.4-2.78.96-3.07-.48-3.36-1.83-2.3-3.93-2.59-3.55-2.31-5.09-4.03-2.3-3.07-.87-2.49-.96-8.64v-3.17l.2-5.66.86-6.72.29-2.11.19-1.92-.38-3.93-.77-2.5-1.15-2.11-1.44-2.11-2.5-1.06-2.11-.57-1.73-.29-.48.1-.76.19-2.02.77-2.02 3.07-2.2 4.89-2.4 3.74-1.54 2.02-1.53.96-1.73.38-1.54-.38-2.87-2.88-10.66-15.74-2.59-2.97-.96-.87-1.92-1.82-2.49-1.34-2.69-.68-2.4.2-4.13 1.53-4.12.38-6.24-.48-3.07-2.39-.77-2.4-1.54-7.59-1.34-2.2-3.36-3.17-4.03-2.69-.57-.19-2.31 1.06-1.73-1.44h-.96l-3.74.77-2.11 1.72-1.54 2.11-1.15 1.83-1.44 1.34-2.3.86-3.07.48h-4.7l-4.61-1.63-3.26-.67-1.92-.86-.67-.58-.39-1.05.19-3.46-.28-5.18.57-4.13 1.06-2.97 2.3-9.5.19-2.69-.38-3.94-.87-2.39-2.78-3.94-1.82-1.53-4.8-4.52-5.66-6.43-5.09-8.44-2.59-2.59-4.51-2.11-5.38-1.06-2.11-.67h-4.32l-2.11 1.25-1.24 1.63-1.83 2.78-1.63 1.92-1.05 1.54-1.16 2.68.1 2.69.96 3.46.38 3.45v2.69l-.76 2.88-1.16 2.97-1.15 2.11-1.25 1.54-2.01 1.44-2.4.77-4.13.48-2.3.48-1.63.57-2.02 3.55-.29.1h-.57l-.19-.1-.58-.19-.48-.19-.67-.29-.77-.29-1.73-.86-2.11-.86-.86-.39-1.44-.48-2.11-.67.96-4.8 1.63-8.83.29-1.73.38-2.01.19-1.63.39-3.07.28-2.4.2-2.02.19-1.92.09-1.82.1-2.11v-2.4l.1-2.69v-2.01l-.39-14.59.19-4.99.1-4.51.86 1.82 1.54 1.44.38.58h1.16l.57-.19.48-.2 1.54-.38.09-5.66-.19-19.2.1-16.22v-7.96l-.1-2.69v-1.73l-.1-12.95v-7.97l.1-3.07v-16.98l-.19-19.97v-3.45l.09-13.44v-6.14l.1-5.37h28.22l2.97-.19 2.02-.1 1.92-.19 1.15-.1h.57l.48-.09.39-.1.48-.1.38-.19 1.25-.48.86-.38 1.15-.39 1.25-.48.96-.19.96-.19.77-.19h1.92l1.25.09.67.1.67.19.67.29.58.19.48.29.67.38.86.48 1.25.58.86.48.77.29.77.29.86.19.68.19.86.1.86.09h1.92l.77-.09.86-.2.58-.19.96-.29 2.4-.96 1.53-.67 1.54-.57 3.26-1.35 3.46-1.44 2.2-.86 2.98-1.34 5.28-2.5 3.26-1.44 5.47-2.21 2.88-1.44 1.63-1.05 2.11-1.34.48-.29.68-.39 1.43-.96.96-.67 1.35-.86 1.25-1.15 5.75-4.61 4.51-4.03 2.21-1.82 1.35-1.25.96-.87 1.15-1.05.76-.67.87-.77.86-.77.77-.57.77-.58.86-.58.77-.48.96-.57.77-.39.86-.38 1.06-.38.76-.39 1.54-.48 1.54-.48 1.63-.38 3.84-1.15 3.16-.87 2.79-.86 8.92-2.78 14.4-4.42 9.88-3.26 4.32-1.34 3.17-.96 1.82-.58 2.21-.57 2.4-.58.96-.38 5.95-2.02.29-.1 7.58-2.49 11.99-3.74 8.54-2.69 6.15-2.02 11.9-3.64 11.71-3.75 16.31-5.08 7.39-2.31 11.52-3.45 8.44-2.69.77-.29 4.7-1.43 2.88-.96.87-.29.57-.19.58-.1.57-.1.87-.28 2.88-.87 4.6-1.34 60.08-18.62 10.17-3.17 7.68-2.68 1.06-.39.57-.57.2-.68-.1-1.24-.29-1.44-1.25-4.13-2.68-10.46-1.63-6.53-3.56-12.28-4.79-18.71-.58-2.11-3.26-12.19-1.15-4.03-1.06-3.36-1.63-4.9-.19-1.34-.2-1.06.1-1.24.29-.29.29-.48 1.44-.86 4.03-1.54.86-.38 17.75-5.28 3.65-1.06 15.74-4.7 3.36-1.34 4.13-1.64 13.24-3.83 20.15-6.53 4.42-1.34 19.29-5.86 9.4-3.16 19.77-5.67 14.5-4.7 2.11-.58 7.58-2.2 15.26-4.99 7.87-2.21 3.17-.96 1.34-.48-.19-11.52-.1-1.44-.09-.19v-.86l4.51 3.36 3.45 2.49 2.98 2.21.38.67 1.82 1.25.77.48 3.94 2.88 4.03 2.88 2.2 1.63 1.54 1.05.77.58.29.19 1.05.77 1.15.96 1.06.86.29.2 1.82 1.43 1.73 1.44 1.63 1.35 1.44 1.25 2.4 2.11 1.72 1.53 1.92 1.83 4.8 4.51.77.67 11.04 10.46 2.78 2.69 10.17 9.69 1.63 1.53 1.92 1.92 2.02 1.83 2.21 2.11 4.41 4.22 7.49 7.1 3.07 2.88 8.64 8.16 2.97 2.78 1.25 1.15 4.41 4.23 8.64 8.25 2.4 2.4 3.17 2.97 1.63 1.44.38.39 1.44 1.24 1.15.87 1.73 1.34 2.02 1.35 2.4 1.44 6.14 3.16 5.66 2.98 2.88 1.53 4.41 2.21 15.65 8.25 2.11 1.16 2.01 1.15 2.02 1.34 1.63.96 3.55 2.3.77.58 1.34 1.05.87.58.76.67 1.35 1.15 1.53 1.35 3.46 3.07 5.09 4.7 9.02 8.25 2.97 2.69 5.95 5.38 5.38 4.99 8.25 7.48 4.41 4.42 6.82 7.48 7 8.25 2.79 3.46 3.36 4.22 2.11 2.69 1.92 2.59.67 1.25.48.77.48.67.38.77.87 1.44.28.38.2.57.48.77.38.87 1.06 1.92.86 1.72.77 1.83 3.07 6.71.96 2.12 1.05 2.11.68 1.53.96 1.73.76 1.54.87 1.43.67 1.06.19.29.77 1.05.96 1.35.86 1.15 1.06 1.25.86.96.58.57.67.67.67.77 4.03 3.94 2.02 1.82 5.95 5.66 7.58 7.3 3.26 3.07 6.24 5.95 12.57 11.99 1.54 1.54 8.73 8.25 17.76 16.8 4.6 4.51 4.03 3.84.68.67 6.71 6.33 5.57 5.28 4.8 4.7 13.72 12.96 1.92 1.82 6.53 6.34 25.62 24.47.67.57 7.3 6.72 1.92 1.82 1.24 1.16.39.38 1.15 1.06 1.73 1.72 7.77 7.78 4.03 3.74 2.5 2.4.09.09 4.03 3.65 5.19 5.09 14.58 13.91 5.47 5.19 3.17 2.87 6.34 6.15 7.39 7 13.14 12.67 9.6 9.21 10.46 9.7 2.59 2.59.29.28 2.69 2.6 6.62 6.33 2.88 2.88 2.11 1.92 1.73 1.53 1.63 1.25 1.44 1.15 1.53.96.48.29 1.16.58 1.72.76 1.92.77 2.11.67 2.4.68 1.83.38 4.6 1.06 6.24.95 2.21.48 2.21.39.48.09 8.25 1.44 13.63 2.31 11.03 2.01 3.55.67 1.35.29 13.24 2.31 6.53 1.24 8.16 1.44 4.89.87 9.31 1.53 1.15.29.77.19.38.1.96.19.1.1 1.05.28 1.44.48 3.08 1.06 1.15.57 1.34.68 1.63.96.96.67 1.25.86 1.34 1.06 1.54 1.44 2.49 2.4 2.12 2.11 3.35 3.26 3.75 3.74 4.22 4.23 7.58 7.48 7.1 7.01 1.73 1.82 8.73 8.73 7.68 7.49 5.66 5.76 1.25 1.24.96 1.16 1.35 1.63.86 1.05.77 1.06.38.48.1.19.38.58 1.06 1.63.38.57.29.58.57 1.15 1.83 3.36 1.05 2.3 2.79 5.38 2.97 6.04 8.93 17.66 4.99 10.08 4.6 9.21 3.27 6.43 1.24 2.59.96 1.83 4.71 9.31 9.98 19.86.29.48 4.22 8.45 2.11 4.12 2.3 4.23 2.4 4.03 2.5 3.93 2.68 3.84.77 1.15 2.31 2.98.38.57 6.72 8.45.29.29.67.95 1.44 1.73.09.19 1.73 2.02.19 1.92 3.17 4.51 6.81 7.87 1.73.29 4.13 5.18 3.45 4.22 1.06 1.35 1.34 1.72 3.26 4.03 3.94 4.71.96 1.05 9.12 11.13 25.52 31.58 5.48 6.72.86.96.77.86.76.96.68.67.67.77.19.19.38.48.48.48 2.88 2.69-.38.48-.38.76-.29.96-.29 1.25-.19 1.35-.1 1.05v.96l.19.96.29 1.15.96 2.4.38 1.44.2 1.25.09 1.63.1 2.59.09 1.54-.19 8.92.58 16.03.09 1.34.48 10.75.58 22.65.29 23.42.09 14.1.39 9.31-.19 9.5-.48 2.11-1.92 4.99-3.55 9.41-2.12 4.99-.96 3.84-14.97.38-23.32.19-29.65 1.25.86 1.54.77 1.05 3.17 3.75 2.01 1.44 3.74 2.49 1.73.58.67.09 1.06.39 4.51 2.88.38.28.48.2h.68l3.07-.77 2.88-.19 1.91.28 1.16.77 6.43 3.36 2.49 2.21 1.15 1.24 1.92 1.92-24.09 33.59-5.47 7.78-27.73 40.88-27.74 40.88-14.87 22.17-11.14 16.7.48 1.06 2.69 1.91 3.74 3.56 2.6 4.89 3.07 6.62.76 6.34-1.82 5.66-.48 1.15-2.78 7.87-1.83 3.93-1.15 1.92-.48 1.63.29 1.83 1.15.96 2.69 1.15 2.49 1.44 1.83 2.01-.67 3.55-1.83 4.9 1.06 14.87 3.26 14.5 1.73 11.42 1.25 11.32 2.49 13.53 1.25 12.38-.86 4.13-4.9 9.21-2.01 6.62.09 3.07 2.4 2.69 2.4 3.36 2.69 3.55 4.32 2.02h.09l-.48 3.84-.96 1.24-24.66.39-6.82.09-8.73.48-11.04.48-.86.19z" stroke-linejoin="round"/></defs><use xlink:href="#d" fill="#6bacaf" stroke="#6bb4d2" stroke-width="5.76"/><defs><path id="e" d="M1299.55 3028.68l-.87.09-.57.29-.48.58-.1.48-1.05 5.28-1.35 3.55-.48.76-.86.96-.87.29h-2.49l-2.3-11.8-.77-3.94-1.25-5.66-1.82-8.92-3.65-3.84-5.76-.1-1.34-6.81-1.06-5.28-.38-1.92-.29-1.34-.58-2.4-.28-1.63-.29-1.54-.67-2.78-.67-3.55-.58-2.88-.29-1.54-.19-1.44-.1-1.25-.19-1.44v-.57l-.09-.77-.1-.86v-.77l-.1-2.21-.09-2.88v-1.53l.09-3.36v-.96l.1-2.88v-4.41l-.1-2.79v-1.44l-.19-1.92-.29-3.16-.28-2.59-1.25-.29-21.69-3.36-1.06-11.33 6.91-.09h8.06l2.21-.1.58-.09.57-.1.87-.29h.09l.39-.09.67-.2.77-.09-.48-3.26-.48-2.79-.29-1.72-.38-2.12-2.69-13.14-.39-2.12-1.24-6.04-.96-4.51-.48-2.69-.77-3.45-1.06-5.19-.86-4.31-.38-1.83-.68-2.97-.48-2.21-1.05-5.76-.48-2.11-.29-1.54-.29-1.63-.67-2.01-.38-1.73-.96-4.13-.39-2.01-.96.09-1.82.2-2.3-.1h-2.11l-3.27.1h-16.7l-3.45-.1h-19.48l-4.71.1-7.58.09-5.76.1-7.87.09h-4.22l-1.63.1-2.02.19-2.2-.09-1.73.09-2.98.29-2.39.29-4.13.38-1.82.39-1.16.19-2.49.38-.58.1v-.48l-.09-.39-.1-.57-.96-6.91-1.25-7.97-.48-3.36-1.53-9.5-.19-1.63-.29-1.92-.29-2.11-.29-2.3-.38-2.5-.48-3.93-.87-7.2-.76-7.2-.67-8.06-.87-9.98-.19-2.49-.67-7.49-.19-2.5-.87-7.19-.19-2.5-.38-4.51-.2-2.3-.67-9.12-.09-2.11-.58-7.87-.48-5.28-2.21-27.06-.86-9.89v-.57l-.77-10.46-1.63-20.83-.38-5.18-.48-4.89-.1-1.83v-.77l-.1-.76-.09-1.06-.1-.58-.19-1.72-.67-9.02-.86-9.79-.87-10.08-.48-5.37-.96-10.94-.19-2.02-.1-1.92-1.72-19.67-.39-4.13-.09-1.05-.67-6.72-.2-2.98h-1.05l-.77-.38-.67-.1-.39-4.03-.19-1.53-.09-.77-.2-1.25-.19-1.63-.19-1.82-.1-1.06-.38-2.78-1.06-8.35-2.01-13.73-1.25-7.67-.29-1.15-3.36-20.83-.48-2.4 2.4-.29 1.83-.19-3.75-22.17-2.59-15.83-6.23-37.33-2.5-15.55-1.06-8.35-.96-8.16-1.53-.09-.58-.1-1.72-.29-1.44-20.05-.1-1.25-.1-.96v-1.35l-.09-1.24v-2.02l-.1-1.05v-.39l-.38-4.32-.39-2.78-.09-.77-.1-.77-.09-1.05-.96-11.13-.39-3.94-1.24-12.95-.87-12.38-.38-3.94-2.59-31.09-2.21-30.23-.38-5.38-.58-8.25-.48-6.72-.1-1.73-3.74-48.84-.48-6.24 2.21-.1-.19-1.63-.29-3.55-.67-8.25-.2-3.07-.48-4.99v-1.06l.87-3.26-2.5-31.67-1.44-26.49-.28-14.4.57-10.36 1.15-17.56.48-8.35-.09-.77.77-6.81 3.26-19 .67-2.31-.38-.29 3.26-16.12.86.39 2.11.86 1.73.86.77.29.67.29.48.19.58.19.19.1h.57l.29-.1 2.02-3.55 1.63-.57 2.3-.48 4.13-.48 2.4-.77 2.01-1.44 1.25-1.54 1.15-2.11 1.16-2.97.76-2.88v-2.69l-.38-3.45-.96-3.46-.1-2.69 1.16-2.68 1.05-1.54 1.63-1.92 1.83-2.78 1.24-1.63 2.11-1.25h4.32l2.11.67 5.38 1.06 4.51 2.11 2.59 2.59 5.09 8.44 5.66 6.43 4.8 4.52 1.82 1.53 2.78 3.94.87 2.39.38 3.94-.19 2.69-2.3 9.5-1.06 2.97-.57 4.13.28 5.18-.19 3.46.39 1.05.67.58 1.92.86 3.26.67 4.61 1.63h4.7l3.07-.48 2.3-.86 1.44-1.34 1.15-1.83 1.54-2.11 2.11-1.72 3.74-.77h.96l1.73 1.44 2.31-1.06.57.19 4.03 2.69 3.36 3.17 1.34 2.2 1.54 7.59.77 2.4 3.07 2.39 6.24.48 4.12-.38 4.13-1.53 2.4-.2 2.69.68 2.49 1.34 1.92 1.82.96.87 2.59 2.97 10.66 15.74 2.87 2.88 1.54.38 1.73-.38 1.53-.96 1.54-2.02 2.4-3.74 2.2-4.89 2.02-3.07 2.02-.77.76-.19.48-.1 1.73.29 2.11.57 2.5 1.06 1.44 2.11 1.15 2.11.77 2.5.38 3.93-.19 1.92-.29 2.11-.86 6.72-.2 5.66v3.17l.96 8.64.87 2.49 2.3 3.07 5.09 4.03 3.55 2.31 3.93 2.59 1.83 2.3.48 3.36-.96 3.07-2.4 2.78-4.99 4.8-1.15 1.35-.1 1.72.38 3.27 1.06 2.68 1.73 1.92 3.74 1.06 9.12.09 3.84-.57 5.08-2.98 2.11-2.11 1.44-1.53 2.5-2.31 2.59-1.24 2.88-.2 2.97.39 3.75 1.73 1.82 1.15 1.63 2.4.58 4.6-.58 4.42-.19 4.99 1.25 4.8 2.4 2.68 1.72 1.54 1.54 2.21.86 2.78.48 5.66.39 12.67.57 14.97v3.65l.68 3.16 1.43 2.6 2.21 1.82 6.34 2.21 3.74.67 2.11.38 7.39.48 7.01-1.73 7.1-2.11 4.12-1.34 5.76-1.25 6.62-1.63 9.89-4.22 4.51-1.44h4.99l5.57.77 5.28 2.49.86.67 4.32 2.98 4.51 3.74 4.32 5.57 4.12 6.43 2.02 5.95 2.11 8.44 2.02 4.7 4.99 8.74 8.92 11.61.87 1.15.48.67 4.99 5.67 3.64 4.12 4.51 4.51 1.54 1.63 2.02 3.27 2.11 3.55.09.29 2.02 6.43 2.68 4.22 2.69 2.49 4.32.58 4.99-2.3 22.36-16.41 1.44-.68 2.5-.67 3.55-.38 6.04.67 9.89 1.34 4.51-.48 6.62-.38h3.46l2.78.86 2.11 1.25 2.21 2.11 1.82 1.73 2.88 5.37 1.25 6.15.67 5.66.1 5.08 3.45 8.16.77 1.73.19.96-.09 1.05-.48 1.73-3.65 4.7-1.06 1.35-.57.86-.48.87-.48.67-.58.96-.86 1.44-.96 1.53-.48.87-.29.48-.48.86-.38.67-.39.86-.28.68-.29.67-.19.57-.1.48-.1.58-.09.58-.1.86-.29 2.4-.09 1.92-.1.96-.09.57-.1.58-.19.67-.19.67-.2.77-.86 2.78-.19.77-.1.67-.19.87v1.24l.1.58v.58l.09.67.1.67.09.67.2.67.19.67.38.87.39.77.38.67.86 1.34.77.39 2.4 1.15 3.26 1.72 1.73.87 18.04 5.28 4.23.48 2.97 1.63 3.26 2.59 1.35 1.63 1.05 2.11 1.35 3.07.77 3.84.47 5.57-.67 7.58-1.72 7.1-8.64 21.4-.87 3.65v3.93l.29 3.36 1.83 3.36 5.85 5.57 8.16 9.79 4.12 5.37.87 1.06 2.59 2.2.86 2.69 16.51 12.67.77.57 3.93 1.44 2.31 5.19 3.64 9.21 5.09 8.44 4.51 5.28 4.13 4.03 1.05.96 3.65 4.23 2.78 3.93 3.27 11.42.57 2.02 2.78 6.91 3.17 6.71 2.78 4.71 5.76 7.48 5.67 9.6 1.15 7.77-.87 10.37-.19.86-.77 3.84-.09.38-.87 4.99-2.01 9.5-1.44.1-1.92-1.44-4.61.29-2.01 5.66-.48 6.81v4.71l4.8 18.71 4.12 4.13 11.52 11.42 17.66 14.11 2.49 4.22-.28 6.24-.48 5.66-.77 3.74-1.54 3.74-3.45 7.11.67-.29-1.44 2.59-1.82 5.66-5.57 8.45-3.36 4.31-4.03 5.86-1.15 3.65.09 2.78.68 3.65v6.43l1.72 10.84 5.67 7.39 5.66 3.74 7.48.96 5.38-.19 9.02 2.59 6.43 3.17 3.07 2.78 3.46 4.13 2.4 4.99 2.3 6.33 1.05 4.42-.19 2.59-1.15 4.51-1.44 3.07-.77 2.21-.38 4.22 1.92 7.1.57.29-.57 1.05 1.63 3.65 1.34 2.4 1.44 1.92 1.54 1.54.67.38 2.02 1.25 2.49.86 2.59.58 2.69-.1-.19 1.54-.67 1.72-1.83 3.27-.67.96-1.82 1.92-2.11 2.11-1.83 2.11-1.53 2.4-.77 2.4-.77 1.72-1.05 1.16-2.69.96-2.11.28-1.44-.28-1.35-1.54-.86-1.34-1.06-1.44-1.15-.58-1.05.38-1.25.68-1.82 1.72-2.88 1.92-1.92.29-2.11.1-2.4-.1-1.73-.48-1.25-.48-.57-.48-.96-1.63-1.25-3.07v-2.21l1.34-7.58-.29-1.25-.76-.57-2.31-.87h-4.12l-1.63-.19-.77-.77-1.15-1.72-1.54-1.54-60.75 55.28-60.65 55.18-4.61 4.13-24.57 22.36-1.34-2.21-.48-.77-.19-.19-1.83-2.97-.86-1.44-.96-.96-.58-.2h-.09l-.29.1-.38.1-.29.28-1.44 1.16-4.99 4.12-.58.58-.19.29-.38.57v.58l.48.86.67.87.48.57.19.29 1.73 2.69.57.86 2.21 2.69-4.13 3.64-1.05.96-.1-.19-1.05-1.82-.87-1.44-1.73-2.59-1.53-2.11-1.63-2.11-1.06-1.44-1.05-1.64-35.9 20.45-24.37 15.35-1.06-1.34-.58-.58-2.01-2.69-2.11-3.74-1.54-2.11-1.05-1.15-1.15-1.35-1.64-1.24-1.82-1.15-2.02-.96-1.34-.48-1.82-.2-1.83-.09h-2.01l-1.92.29-1.73.48-2.11.76-1.34.29-7.58.87-5 .19-19.96.48-10.27.67-5.08.09-15.93.87-2.02.09-4.51.1h-.19l-7.49.58-2.59.28 3.55 20.06 1.06.77.09 3.36.39 7 .29 9.7v7.48l.09 2.02.1.86.09 7.49-3.16-.1-9.5-.1h-2.12l-3.45-.19h-5.66l-2.98.19-2.4.58h-.19l-5.18 1.73-1.25.38-1.34.19h-1.63l-10.18.29-13.43.58z" stroke-linejoin="round"/></defs><use xlink:href="#e" fill="#6bacaf" stroke="#6bb4d2" stroke-width="5.76"/><defs><path id="f" d="M1069.6 1963.9l-.19-.28-.29-.58-.38-.67-.29-.77-.39-.86-.48-1.06-1.53-3.84-.29-.76-.29-.68-.29-.67-.38-.67-.29-.38-.19-.29-.38-.48-.39-.19-.57-.48-7.3-5.19-1.63-1.82-1.53-1.25-1.83-1.15-2.11-1.05-7.1-2.6-1.54-.38-1.34.1-1.25.09-1.53-.28-15.26-8.55-1.06-.48-1.34-.38-1.73-.29h-1.34l-5.47.58-1.25.19-1.15.38-.96.58-1.06 1.06-.77 1.05-.57 1.25-.48 1.34-.48 1.15-.29.77-.38.67-.67 1.06-.96 1.05-1.54 1.54-2.21 1.34-1.82.87-1.54.38-3.74.77-1.82.09h-1.92l-1.54-.38-1.44-.77-13.43-9.5-2.59-1.25-2.6-.48-8.06-1.15-2.88-.48-.86-.28-.86-.68-.68-1.15-.57-1.15-7.01-16.51-.76-1.72-.68-1.35-.96-1.24-1.24-1.16-1.44-1.15-1.44-.96-6.43-3.45-1.44-.77-1.25-.86-6.91-6.72-1.82-1.54-1.16-.96-1.15-.86-1.44-.77-2.11-.86-2.3-.77-2.11-.19-2.11.09-2.98.1-3.07-.19-2.98-.58-2.78-.77-2.88-1.34-2.11-1.25-1.73-1.44-1.34-1.72-.86-1.83-.58-1.44-.19-1.82-.1-2.11-.38-2.21-.77-1.92-.58-1.15-.57-.86-1.15-1.25-1.54-1.06-1.82-.76-1.82-.58-11.33-2.5-2.11-.67-2.11-.76-1.73-1.44-.86-1.83-.39-.67-.19-.77-.1-1.15.1-2.59.38-3.07 2.69-18.71.19-2.6v-2.2l-.28-1.54-.39-1.82-.57-1.54-.68-1.73-.96-1.53-.96-1.15-1.82-1.63-1.92-1.35-2.11-1.15-9.6-4.99-1.53-1.15-1.06-1.34-2.11-3.65-.96-2.11-.67-1.83-.67-2.2-.48-2.59-.87-7.68-.28-1.25-.48-.86-1.16-2.02-1.44-2.01-1.05-.96-.96-.68-1.15-.76-.77-.77-2.78-2.98-.58-.76-.38-.87-.48-1.15-.29-1.34-.38-1.25-.39-1.25-1.53-3.45-1.25-2.79-.58-1.05-.67-.77-3.26-2.69-1.25-.57-1.34-.48-9.02-1.92-.77-.19-.67-.39-7.01-3.74-1.06-.38-.96-.39h-1.05l-.77.19-.86-.09-.87-.1-5.47-1.53-.96-.1h-.96l-2.78.19h-1.06l-.95-.29-5.67-1.82-1.05-.29h-1.25l-1.34.2-1.16.57-6.33 4.61-.96.19h-.96l-4.8-1.82-.77-.29-.86-.19-4.13-1.06-1.15-.48-1.15-.96-4.03-4.99-.58-.67-.86-.48-5.37-2.59-.96-.48-.77-.58-.77-1.05-.96-1.35-.77-1.05-.96-.77-6.91-4.8-.57-.57-.77-.77-.48-.96-.29-1.25-.38-4.51-.19-1.34-.48-.96-.77-.77-1.15-.48-4.23-.1-1.53-.28-1.34-.48-1.06-.96-.86-1.44-1.64-4.9-.57-1.34-.58-1.25-.57-1.05-.77-.96-.96-.87-5.47-3.55-1.15-.48-1.25-.19-1.15.19-1.15.48-6.82 5.38-1.15.57-1.34.29h-1.44l-1.35-.19-9.31-3.75-1.34-.38-1.53-.29h-1.35l-1.25.29-1.05.48-.96.67-7.29 7.78-1.06 1.24-.96 1.54-2.4 4.13-.86 1.15-1.06.96-1.15.48-1.54.28-1.05-.09-1.06-.67-3.55-3.55-1.15-1.06-1.34-.67-6.82-2.31-1.53-.57h-1.44l-5.95.48-2.79.19-1.63-.19-1.63-.77-1.34-1.15-.96-1.25-.87-1.73-.57-1.72-5.47-21.21-.48-1.54-.19-.67-.39-.58-.57-.48-.39-.28-.57-.19-.58-.1h-.67l-.67.19-3.46.96-.96.1h-.67l-.48-.1-.38-.1-.48-.28-.67-.48-.87-.39-1.05-.28-1.35-.29-1.25-.1-1.53.1-1.15.29-1.06.57-.86.77-.39.86-.28 1.15v1.25l.19 4.61-.1 1.25-.48 1.15-.57.77-.87.67-5.47 2.49-1.44.67-1.15.58-1.15.96-.58.58-.48.96-1.24 3.26-.2 1.15-.19 1.15.19 1.06.2 1.05.76 1.73.29.96.1.77-.1.96-.09.86-.29 1.15-.48.96-3.36 4.8-.67 1.15-.39 1.06-.19 1.15.1.96.48.86.86.67.96.39h1.06l1.24-.19 1.16-.29 1.34-.39 1.53.1 1.16.19.86.29.67.48.19.58.1.76-.1.96-.28 1.06-.58 1.34-.58 1.44-.38.96-.29 1.15-.38 1.54-.19 1.82-.2 1.25-.38 1.25-.57 1.15-.77.86-.77.77-.86.58-.96.38-1.06.29h-1.06l-3.35-.48-2.5-.29h-2.3l-2.31.1-2.2.38-4.8 1.63-1.54.39-1.15.19h-1.05l-.77-.39-.58-.57-.29-.96-.09-1.15.19-1.25.38-.96.77-1.15.96-1.06 1.15-.77.77-.67.77-.76.57-.96.29-1.06.19-1.15.1-1.06v-1.05l-.29-1.15-.57-.77-.96-.48-1.16-.19-1.24.09-1.44.29-1.54.86-5.08 3.84-1.54 1.44-1.15 1.15-5.66 5.76-.77.96-.67.86-.68 1.16-.48.96-.28 1.44.09 1.44.19 1.43.1 1.25-.1 1.44-.19 1.44-.29 1.34-.47 1.25-.68 1.15-.86 1.16-1.06 1.15-7.39 6.52-4.79 3.94-1.06.57-1.06.48-5.85 1.16-1.44.28-1.44.67-1.15 1.06-.86 1.54-2.21 4.89-.77 1.34-1.06.96-6.71 5.57-1.25 1.06-1.44.76-3.07 1.54-1.15.67-1.15.96-2.88 2.5-.96.96-.87 1.15-.86 1.15-.87.86-.76.58-1.06.48-1.15.38-1.06.19-1.24.29-.77.48-.67.87-.58 1.15-.67.76-.96.58-1.34.1-1.16-.1-1.15-.29-1.24-.48-2.6-1.82-.67-.38-.77-.29-.96.19-.96.58-5.27 3.16-1.06.39-1.15.19h-1.06l-1.05-.19-.96-.39-.67-.67-.39-.77-.29-.48-.28-.86-.2-.96v-.86l-.28-.87-.68-.67-.67-.48-1.15-.19-3.26-.67-1.15-.48-.96-.68-.58-.57-.48-.67-.38-.87.09-.76.39-.68.67-.38.96-.48.86-.67.58-.87.38-.95.39-1.16v-1.05l-.29-.96-.48-.48-.77-.48-.96-.29-3.93-.19-1.35-.19-1.15-.39-1.15-.67-.96-.86-3.26-3.07-21.5-97.22-4.13-38.29-6.62-21.98-28.98-53.36-7.39-29.65-2.59-7.87-1.35-3.46-4.51-8.54-4.03 2.31-23.22-59.7-1.06.2h-1.44l-3.07-.2-1.06-.19-.86-.38-1.25-.67-1.53-1.35-.96-1.15-.58-.96-.57-1.34-.39-1.06-.19-.86-.1-1.06.1-1.53.19-.67.77-3.36.96-3.27.67-3.45.38-2.02-.09-2.3-.19-1.15-.39-2.02-2.3-8.15 2.4-.77 4.03-1.44 10.27-3.17 2.01-.67 3.17-3.94 11.23-63.53-1.54-6.81-14.2-3.84 25.05-15.55 16.03-12.47 17.56-22.75 8.83-29.65-32.06-2.59-7.58-1.25-32.05-2.97-56.63-5.47-2.3-.2-26.1-2.4-6.14-.48-3.56-.67-1.15-.19-109.12-11.13-24.57.38-6.52.77h-8.83l-2.69.19-44.91 3.36-.19-2.88 39.44-21.5 38-21.97 36.95-21.12 10.08-5.75 28.5-16.41-4.22-42.9-3.07-.96-9.41-.29-6.04-.19-45.68-1.54-5.86-.19-.29-31.09-.19-11.52-2.78-3.26-2.78-4.32-3.46-5.47-5.18-5.57-3.07-2.78-3.94-.58-1.05-.28-.87-2.5-1.05-2.4-4.51-5.76-1.73-2.59-2.59-1.63-3.46-2.49-3.07-1.54.19-3.26.29-8.16-.57-49.23-.39-35.51.1-4.32 1.25-4.03.09-.77.58-2.59.19-1.73v-3.16l-.1-2.79-.09-7.48V888l-.1-2.5v-1.82l7.87 4.03 2.21 1.25.38-.87.1-.38.09-.38.2-.39v-.28l.09-.39v-1.44l-.09-5.08-.1-3.27-.19-5.85.38-1.44 4.03-9.41 2.21.2.58-.2 1.44-.86 1.15-1.34 1.92-1.73 3.84-3.36h.48l3.16.1 1.25-.29 2.69-1.35.77-.38 2.01-.77 1.44-.38.96-.1h1.54l1.43.68 5.38 4.03 5.66 4.51 2.98.76.67.1 1.25-.19h.96l1.63.86 2.11 1.44 1.25 3.26-.2 1.25-.86 1.06-2.21 2.2-2.97 1.92-3.46 1.73-10.55 4.9-.48.48-.29.38.19 1.25.96 4.99.58 1.44v2.01l.28 1.92-.19 1.15.1 1.16.48 1.15 1.15 1.72 4.89 2.02 4.99.77 5.28-.1 5.09-1.25 3.55-1.53 3.07-1.54 40.12-22.36 2.2-1.15.29-.38-.76-2.59-.2-.58.39-.58 3.26-1.92.67-.09.58.57.57 1.16.68.86.57.1.67-.39 21.6-10.94 1.92-.38-2.69-9.22-1.73-5.95-8.64-29.65 3.46-3.93 9.88-10.95 16.03-17.85 10.56-11.7 16.7-18.43 40.02-55.85 11.9-6.53 4.6-10.36 7.97-16.99 11.13-26.1 2.98-6.72 1.15-17.95 2.01-1.82 1.16-4.51 1.53-2.3 3.65-2.02.86-2.21-.09-3.26.28-4.89v-4.71l2.02-3.55 2.01-4.8.39-5.27 1.92-5.48 1.15-4.7 1.15-4.51 2.4-4.32 1.82-5.08 1.25-6.82 1.35-7.39.57-2.97 9.41-3.65 7.67-3.36 7.78-3.93 1.15-.67 6.62 5.08.48.39 2.98 2.49 1.63 1.06 1.34.48 22.07 6.81 7.59 2.4 14.68 3.84 6.72 1.82 2.01.67 2.21.96 1.54 1.16 1.72 1.63 5.47 7.58 8.93 14.3 2.49 4.03 6.24 9.79 14.59 23.22 1.06 2.4 1.44 2.98 5.66 1.53 1.25.39 12.09 3.35 5.85 1.73 6.34-5.47 1.53-1.34 5.76-5.18 2.5-1.92 2.68-1.54 4.99-2.21 3.07-1.53 3.36-2.5 2.11-2.3 3.08-4.32 2.97-5.09 3.07-6.91 3.46-10.74 2.2-8.16 2.4-12.38 1.83-7.97 4.8-18.04.76-3.36.39-2.78 2.01-17.47.19-1.92.29-1.92.39-4.7.38-2.97.38-2.79.58-2.88.77-2.97.77-2.88.28-1.15.48-1.63 1.06-2.88 1.25-3.46.67-1.72 1.15-2.59 1.44-3.46 1.06-2.02.48-.95 1.43-2.79 1.64-2.78.76-1.54.96-1.24 2.69-3.94 2.69-1.34 8.83 8.92 6.72 7.58 4.7 5.19 1.34 1.24 4.9 4.61 4.89 3.74 7.01 4.9 2.68 1.63 4.51 2.21 14.59 6.71 6.05 2.79 30.8 13.63 10.08 4.41.48.1 7.87 3.16 5.95 1.44 7.39 1.63 7.49.48 9.31-.09 6.81-.58 4.51-.19 7.29-.29 10.66.19 8.44-.28 8.93-.29 8.73-.77 5.76-.29 7.01-.48.48 3.94.38 1.72.67 1.44.87 1.06 1.63 1.34 1.92.96 3.16 1.25 1.83 1.06 1.72 1.53.48 1.63.29 1.92.1 2.88 1.44 44.72.09 1.83h4.9l1.82 35.7.67 8.44 1.35 64.88 2.2 23.7.39 4.32.77 13.34 1.63 26.2.57 8.25v.67l.96 16.61.19 3.55.2 2.3.28 2.59.2 3.07 2.11 27.45.67 10.46 1.06 18.71-.39 1.35-.09 1.05.96 14.11.86 4.42 2.3 30.51.39 11.71 1.72 15.17.29 2.68.87 6.14.96 5.38 1.82 9.21.29 1.54 1.44 8.15 3.74 11.42 2.88 9.6.48 1.54 4.12 14.68 4.8 17.08 12.86 40.79.68 1.05.86 2.79.38 1.63.29.86 6.91 21.69 1.15 2.79.1.38-.87.38-2.68.96.19.58.29.57 4.8 14.21 2.49 7.58 1.15 5.09 1.06 2.68.96 3.07.19.39.77 2.88.67 1.92.96 2.78 1.15 4.03.86 2.49 1.06 3.56 2.59 8.44.67 2.3.48 1.54.29.86.29.87.57 1.92.48 1.63.2 1.15.28 2.4.39 1.92.29 2.3.28 2.59.29 1.73.29 1.06.48.86.58 1.06.67 1.05.67 1.06.48.76.29.68.48 1.15.96 3.07 1.05 2.88 1.25 3.55 1.25 4.03 1.44 5.28.57 2.2.58 2.02.96 3.93.96 3.36.96 3.55 1.53 5.47 1.16 4.13 1.34 4.8.48 1.73 4.51 16.98.58 2.21 2.49 9.12 1.73 7.48.19 1.16.38 1.63.39 1.63.48 2.49 1.92.96.76.39 1.06.67.48 1.53.29 1.25-.39-.19-.28-.19-.39-.19-.48-.2-.38.1-.39.19-.38.67-.29.87.96 3.36.1.28.29 1.06.67 2.11 1.15 3.26 3.93 12.96 6.05 22.55 1.54 5.66 1.53 5.67 1.35 4.7 1.34 4.8.67 2.78.77 2.69.77 2.88 1.72 6.91.96 4.12 1.83 6.53.19.58 4.89 15.83 1.54 5.37.19.68.1.67.38 1.34.77 2.5.38 1.44.29 1.24.38.96.39 1.54.38 1.53.19 1.16.29 1.05.96 3.36.67 1.92 1.73 6.05 4.51 17.27 2.31 9.12 2.97 11.13 3.26 12.28 6.72 23.13.29.67.19.68v.19l.19.77.19.96.2.67.67 2.4.77 3.16.76 3.94.39 1.82 1.34 5.76 2.78 10.27.39 1.25.67 2.39.77 2.31.77 2.59.57 1.63.29 1.06.67 1.92.19.48.29.67.39.86 1.43 3.65 1.35 3.74 1.92 4.61.48 1.05.57 1.25.87 1.92 2.68 5.76.58 1.05 1.44 2.98 1.92 3.65 2.69 4.89 1.72 2.88.48.96.68 1.05.38.77 2.11 3.55 1.06 1.63.86 1.54.96 1.63 1.54 2.78 2.39 4.23 7.49 15.74.67 1.34 1.25 3.45.67 2.31.67 2.68.58 2.02 1.15 3.55.67 2.3.67 2.02.48 1.44.87 2.97.48 1.92.57 2.11.77 4.52.39 2.2.67 4.42.67 4.51.58 5.76.28 2.3.39 5.85.09 5.09v4.7l-.09 10.85-.1 9.02-.19 13.82v11.23l-.1 16.31-.09 8.64v2.4l-.1 5.85v1.54l-.09 4.03.19 9.31 2.78.09 2.02.1h2.97l-.1 5.37v6.14l-.09 13.44v3.45l.19 19.97v16.98l-.1 3.07v7.97l.1 12.95v1.73l.1 2.69v7.96l-.1 16.22.19 19.2-.09 5.66-1.54.38-.48.2-.57.19h-1.16l-.38-.58-1.54-1.44-.86-1.82-.1 4.51-.86-.39-.29-.09-.28-.29-.96-1.15-.1 8.06.1 12.09-.1 10.37-.38 4.7-.58 5.47-1.63 12-2.88 5.27z" stroke-linejoin="round"/></defs><use xlink:href="#f" fill="#09757a" stroke="#097d9b" stroke-width="5.76"/><defs><path id="g" d="M1098.01 2576.38l-1.54.09-2.4-1.34-.09-7.1-.1-5.86v-.38l-.19-.38-.29-.2-.19-.09-.29-.19-4.13.09-6.62.19-2.97.1.09 7.1.48 7.1-.86-.38-14.97.48h-2.02v-7.77l-.19-17.47-11.33-.58-2.01.29-2.88.19-1.06-.09h-.76l-2.69.19h-2.59l-1.54-.19-1.15.09-3.45.1h-4.9l-7.87-.1-4.6.1-4.04-.1.29-16.02.1-5.28v-9.69l-.1-.68-.57-1.92-.1-.57-1.25-.1-3.45-.19.38-5.28.96-10.27-14.2-1.53-.29-.48-2.5-4.9-2.59.39-12.09.19-21.21.29h-.38l-1.15.09-.39.2-.57.86-.2.19v2.98l-.19 10.65.1 3.65-16.03 1.82-19.58-2.3-2.11-2.98-1.92-2.21-.96-1.34-1.34-1.06-2.11-.76-4.99-2.98-5.09-2.4-.67-.19-4.03-1.15-.67-.29 3.16-10.46.2-.77.57.58 5.86 6.33-1.73-13.82-.67-4.99.28-18.52 1.06-7.96.19-10.18-.09-5.76-.2-11.51-.28-15.93-.1-.96-.19-14.01-1.06-24.76-8.83 6.62-4.41 3.26-1.73 1.15-.19 1.25-.39-.77-.95.67-2.69 1.83-3.17 2.3-.86.67-4.23 3.36-2.87 2.11-2.5 1.54-2.3 1.34-2.11 1.06-2.02.96-2.11.76-2.11.77-2.11.58-2.21.48-2.21.38-2.21.29-2.2.19h-.68l-1.53.1-2.3-.1-2.21-.19-.29-.1-1.92-.19-2.49-.48-1.06-.19-2.69-.77-3.93-1.24-.67-.29-1.83-.87-4.03-1.82-.67-.38-6.53-3.17-5.47-2.69-11.13-5.28-7.68-3.74-.57-.29-2.31-1.15-2.87-1.63-1.92-1.06-1.73-1.05-2.5-1.63-.19-.19-.67-.39-.58-.38-.67-.48-.77-.58-1.24-.86-.68-.48-1.15-.96-1.44-1.06-1.44-1.15-2.4-2.01-2.78-2.69-.77-.77-1.72-1.63-1.64-1.73-2.59-2.78-2.49-3.07-1.15-1.44-1.06-1.25-1.44-1.92-.19-.29-2.11-3.07-2.4-3.64-.86-1.54-1.92-3.36-2.02-3.84-1.92-3.93-1.82-3.74-.58-1.25-1.92-3.94-.57-1.24-.87-1.64-4.03-8.06-.29-.38-2.49-5.28-1.82-3.84-2.88-6.04-.96-2.02-2.5-4.99-1.63-3.17-4.03-8.25-4.22-8.93-.48-.86-2.98-6.05-.57-1.24-7.39-15.07-5.38-11.04-9.98-20.25-.29-.76-.29-.48-2.59-5.47-.19-.39-9.21-18.81-.39-.77-2.88-6.04-1.34-2.78-4.13-8.93-.86-2.01-.29-.77-2.78-6.24-1.25-2.98-1.25-2.97-2.97-7.29-.96-2.5-1.92-5.09-1.73-4.7-.48-1.53-2.11.48-3.26.76-2.78.58-2.6.58-2.49.57-2.98.77-2.88.67-1.05.29-.96-.29-2.88.58-2.5.67-1.72.48-3.75.96-5.95 1.53-4.99 1.35-8.54 2.2-20.63 5.09-3.84.77-3.17.86-3.36.87-14.97 3.74-4.12 1.15-4.42.96-4.41 1.06-4.13.96-10.65 2.39-7.39 1.64-8.35 1.63-7.68 1.53-5.09.96-5.95 1.25-9.21 1.82-7.77 1.54-6.34 1.25-9.6 1.92-8.82 1.72-9.79 2.02-7.3 1.53-6.52 1.25-5.95 1.25-3.46.48-2.3.38-1.15.2-1.92.19-2.02.09-3.17.1h-3.16l-7.1-.1-12-.09h-4.32l-3.55.09h-3.36l-6.53.2h-1.63v-4.52l-.09-5.18v-6.72l-.2-8.54v-8.35l-.86-.28-.96-.29-1.05-.1-4.42.29-1.82.19-1.06.19-.86.29-.96.48-.96.39-1.06.09-2.11.19-1.44-.09-.48-.29 11.61-12 .2-.19.09-.29-.86-63.53h1.92l10.27-29.08 10.55-1.92 11.71-1.53 28.79-5.66-13.72-24.19-.29-4.22-12.38-25.82-1.82-3.45-4.32-6.24-8.73-12.28-3.55-56.14-3.46-56.15.1-4.79 2.88-2.5.86-.48.86-.38h.77l.77.19.57.48.58.57.38.77.29.77.29.96.1.77v.96l-.1.76-.1.87.2.86.38.77.48.67.58.58.76.38.87.1.96-.19.96-.29 1.05-.58 1.15-.77 1.06-.86.67-.77.58-.96.28-1.34v-2.59l-.28-1.25-.29-.96-.58-.77-.57-.67-.67-.38-1.06-.29-.86-.19-.96-.58-.58-.67-.38-.86-.2-.96v-.96l.29-.96.29-.77.58-.86.86-.68 9.21-5.85.68-.77.38-.86.1-.96-.2-.96-.57-.77-.67-.57-2.98-1.54-.86-.58-.39-.76-.09-.68v-1.15l.19-.76.38-.58.67-.29.68-.09h1.34l.67-.2.58-.38.48-.48.29-.67.19-.48v-.48l-.19-.67-.2-.67-.38-.48-.48-.29-.67-.19-.67-.2-.68-.19-.76-.29-.58-.38-.58-.58-.19-.28-.19-.29-.19-.67.09-.68.1-.57.1-.19.28-.29.39-.38.57-.1.68-.1h.57l.67.1.77.19 2.59.86.67.2.87.19.96.09.96-.09.86-.1.87-.29.96-.48.76-.47.67-.58.39-.77.29-.96.19-.96.09-.96-.19-.86-.19-.77-.38-.86-.39-.67-.57-.58-.77-.77-.48-.57-.38-.68-.2-.76v-.77l.1-.96.29-.77.57-.67.58-.58.57-.38.68-.29h1.15l.67.29.67.29.67.29.58.09h.77l.67-.09.77-.2.76-.28.77-.48.77-.77.67-.96.58-.96.48-.86.57-.77.68-.58.76-.57 6.15-3.65.48-.19.57.09 6.05 1.06.57.19.48.29.87.77 3.26 3.07.96.86 1.15.67 1.15.39 1.35.19 3.93.19.96.29.77.48.48.48.29.96v1.05l-.39 1.16-.38.95-.58.87-.86.67-.96.48-.67.38-.39.68-.09.76.38.87.48.67.58.57.96.68 1.15.48 3.26.67 1.15.19.67.48.68.67.28.87v.86l.2.96.28.86.29.48.39.77.67.67.96.39 1.05.19h1.06l1.15-.19 1.06-.39 5.27-3.16.96-.58.96-.19.77.29.67.38 2.6 1.82 1.24.48 1.15.29 1.16.1 1.34-.1.96-.58.67-.76.58-1.15.67-.87.77-.48 1.24-.29 1.06-.19 1.15-.38 1.06-.48.76-.58.87-.86.86-1.15.87-1.15.96-.96 2.88-2.5 1.15-.96 1.15-.67 3.07-1.54 1.44-.76 1.25-1.06 6.71-5.57 1.06-.96.77-1.34 2.21-4.89.86-1.54 1.15-1.06 1.44-.67 1.44-.28 5.85-1.16 1.06-.48 1.06-.57 4.79-3.94 7.39-6.52 1.06-1.15.86-1.16.68-1.15.47-1.25.29-1.34.19-1.44.1-1.44-.1-1.25-.19-1.43-.09-1.44.28-1.44.48-.96.68-1.16.67-.86.77-.96 5.66-5.76 1.15-1.15 1.54-1.44 5.08-3.84 1.54-.86 1.44-.29 1.24-.09 1.16.19.96.48.57.77.29 1.15v1.05l-.1 1.06-.19 1.15-.29 1.06-.57.96-.77.76-.77.67-1.15.77-.96 1.06-.77 1.15-.38.96-.19 1.25.09 1.15.29.96.58.57.77.39h1.05l1.15-.19 1.54-.39 4.8-1.63 2.2-.38 2.31-.1h2.3l2.5.29 3.35.48h1.06l1.06-.29.96-.38.86-.58.77-.77.77-.86.57-1.15.38-1.25.2-1.25.19-1.82.38-1.54.29-1.15.38-.96.58-1.44.58-1.34.28-1.06.1-.96-.1-.76-.19-.58-.67-.48-.86-.29-1.16-.19-1.53-.1-1.34.39-1.16.29-1.24.19h-1.06l-.96-.39-.86-.67-.48-.86-.1-.96.19-1.15.39-1.06.67-1.15 3.36-4.8.48-.96.29-1.15.09-.86.1-.96-.1-.77-.29-.96-.76-1.73-.2-1.05-.19-1.06.19-1.15.2-1.15 1.24-3.26.48-.96.58-.58 1.15-.96 1.15-.58 1.44-.67 5.47-2.49.87-.67.57-.77.48-1.15.1-1.25-.19-4.61v-1.25l.28-1.15.39-.86.86-.77 1.06-.57 1.15-.29 1.53-.1 1.25.1 1.35.29 1.05.28.87.39.67.48.48.28.38.1.48.1h.67l.96-.1 3.46-.96.67-.19h.67l.58.1.57.19.39.28.57.48.39.58.19.67.48 1.54 5.47 21.21.57 1.72.87 1.73.96 1.25 1.34 1.15 1.63.77 1.63.19 2.79-.19 5.95-.48h1.44l1.53.57 6.82 2.31 1.34.67 1.15 1.06 3.55 3.55 1.06.67 1.05.09 1.54-.28 1.15-.48 1.06-.96.86-1.15 2.4-4.13.96-1.54 1.06-1.24 7.29-7.78.96-.67 1.05-.48 1.25-.29h1.35l1.53.29 1.34.38 9.31 3.75 1.35.19h1.44l1.34-.29 1.15-.57 6.82-5.38 1.15-.48 1.15-.19 1.25.19 1.15.48 5.47 3.55.96.87.77.96.57 1.05.58 1.25.57 1.34 1.64 4.9.86 1.44 1.06.96 1.34.48 1.53.28 4.23.1 1.15.48.77.77.48.96.19 1.34.38 4.51.29 1.25.48.96.77.77.57.57 6.91 4.8.96.77.77 1.05.96 1.35.77 1.05.77.58.96.48 5.37 2.59.86.48.58.67 4.03 4.99 1.15.96 1.15.48 4.13 1.06.86.19.77.29 4.8 1.82h.96l.96-.19 6.33-4.61 1.16-.57 1.34-.2h1.25l1.05.29 5.67 1.82.95.29h1.06l2.78-.19h.96l.96.1 5.47 1.53.87.1.86.09.77-.19h1.05l.96.39 1.06.38 7.01 3.74.67.39.77.19 9.02 1.92 1.34.48 1.25.57 3.26 2.69.67.77.58 1.05 1.25 2.79 1.53 3.45.39 1.25.38 1.25.29 1.34.48 1.15.38.87.58.76 2.78 2.98.77.77 1.15.76.96.68 1.05.96 1.44 2.01 1.16 2.02.48.86.28 1.25.87 7.68.48 2.59.67 2.2.67 1.83.96 2.11 2.11 3.65 1.06 1.34 1.53 1.15 9.6 4.99 2.11 1.15 1.92 1.35 1.82 1.63.96 1.15.96 1.53.68 1.73.57 1.54.39 1.82.28 1.54v2.2l-.19 2.6-2.69 18.71-.38 3.07-.1 2.59.1 1.15.19.77.39.67.86 1.83 1.73 1.44 2.11.76 2.11.67 11.33 2.5 1.82.58 1.82.76 1.54 1.06 1.15 1.25.57.86.58 1.15.77 1.92.38 2.21.1 2.11.19 1.82.58 1.44.86 1.83 1.34 1.72 1.73 1.44 2.11 1.25 2.88 1.34 2.78.77 2.98.58 3.07.19 2.98-.1 2.11-.09 2.11.19 2.3.77 2.11.86 1.44.77 1.15.86 1.16.96 1.82 1.54 6.91 6.72 1.25.86 1.44.77 6.43 3.45 1.44.96 1.44 1.15 1.24 1.16.96 1.24.68 1.35.76 1.72 7.01 16.51.57 1.15.68 1.15.86.68.86.28 2.88.48 8.06 1.15 2.6.48 2.59 1.25 13.43 9.5 1.44.77 1.54.38h1.92l1.82-.09 3.74-.77 1.54-.38 1.82-.87 2.21-1.34 1.54-1.54.96-1.05.67-1.06.38-.67.29-.77.48-1.15.48-1.34.57-1.25.77-1.05 1.06-1.06.96-.58 1.15-.38 1.25-.19 5.47-.58h1.34l1.73.29 1.34.38 1.06.48 15.26 8.55 1.53.28 1.25-.09 1.34-.1 1.54.38 7.1 2.6 2.11 1.05 1.83 1.15 1.53 1.25 1.63 1.82 7.3 5.19.57.48.39.19.38.48.19.29.29.38.38.67.29.67.29.68.29.76 1.53 3.84.48 1.06.39.86.29.77.38.67.29.58.19.28 2.88-5.27 1.63-12 .58-5.47.38-4.7.1-10.37-.1-12.09.1-8.06.96 1.15.28.29.29.09.86.39-.19 4.99.39 14.59v2.01l-.1 2.69v2.4l-.1 2.11-.09 1.82-.19 1.92-.2 2.02-.28 2.4-.39 3.07-.19 1.63-.38 2.01-.29 1.73-1.63 8.83-.96 4.8 2.11.67 1.44.48-3.26 16.12.38.29-.67 2.31-3.26 19-.77 6.81.09.77-.48 8.35-1.15 17.56-.57 10.36.28 14.4 1.44 26.49 2.5 31.67-.87 3.26v1.06l.48 4.99.2 3.07.67 8.25.29 3.55.19 1.63-2.21.1.48 6.24 3.74 48.84.1 1.73.48 6.72.58 8.25.38 5.38 2.21 30.23 2.59 31.09.38 3.94.87 12.38 1.24 12.95.39 3.94.96 11.13.09 1.05.1.77.09.77.39 2.78.38 4.32v.39l.1 1.05v2.02l.09 1.24v1.35l.1.96.1 1.25 1.44 20.05 1.72.29.58.1 1.53.09.96 8.16 1.06 8.35 2.5 15.55 6.23 37.33 2.59 15.83 3.75 22.17-1.83.19-2.4.29.48 2.4 3.36 20.83.29 1.15 1.25 7.67 2.01 13.73 1.06 8.35.38 2.78.1 1.06.19 1.82.19 1.63.2 1.25.09.77.19 1.53.39 4.03-5.76.1h-3.26l-3.36.29h-1.73l-.67 1.92-.29 2.49 2.98 14.2-4.23 6.53.29 1.82.1 2.79z" stroke-linejoin="round"/></defs><use xlink:href="#g" fill="#004249" stroke="#00465f" stroke-width="5.76"/></svg>