<svg width="384" height="489.6" viewBox="0 0 2880 3674" xmlns="http://www.w3.org/2000/svg" xmlns:xlink="http://www.w3.org/1999/xlink"><path fill="#fff" d="M0 0h2880v3674H0z"/><defs><path id="a" d="M2727.66 3633.24l-2.18-3.44-5.28-.35-7.12 8.61-.11-.34-.12-.46v-3.44l.12-2.87-.12-.58-.11-.46-.23-.23-.35-.23-.57-.23h-.46l-2.41-.11h-.46l-17.91-.23h-2.3l-4.01-.12h-.92l-1.04-.11-.91-.35-.69-.23-.46-.34-.46-.57-.81-.92-.45-.69-.12-.23-.11-.23-.12-.57-.11-.69-.12-.46-.11-2.41.11-5.51v-35.6l-.11-2.75-.12-3.33-.11-1.38-.23-1.49-.23-1.38-.23-1.26-.58-1.72-1.14-3.33-.23-.81-1.15-3.33-.35-1.03-.8-2.18-.34-.81-.23-.46-.46-1.14-.23-.69-.69-1.15-.69-1.15-.34-.69-1.38-2.41-.35-.69-.11-.34-.12-.46-.11-.46v-1.49l.23-2.76.34-4.02.23-3.1v-.69l-.11-.34-.12-.46-.11-.34-.12-.12.12-2.98.11-2.99.35-2.18.11-2.07.12-3.21-.12-2.07-.11-1.15-.35-.91-.11-.46-.58-.81-1.14-1.49-3.22-4.13-.92-1.27-.68-1.49-.69-2.64-.35-1.61-.23-2.06-.23-3.56-.11-2.3-.23-9.07-.23-19.06.11-4.36v-2.99l-.23-8.61-.11-1.37-.12-.58-.23-4.02-.11-1.49-.11-.57-.23-.81-.35-.8-.23-.8-.23-.69-.11-.58-.23-1.15-.23-2.87v-1.72l.11-.69-.11-1.15-.12-6.08.12-6.2v-1.03l-.23-3.56v-1.5l-.12-1.14-.34-1.61-.35-1.15-.68-2.41-1.04-3.21-2.18-7.93-2.06-7.8-.35-.92-2.07-7.24-.57-2.52-.46-1.49-.57-1.5-.69-1.6-1.61-3.91-.8-1.72-.46-.8-.81-1.27-1.83-2.75-.81-.81-1.14-1.26-.81-.8-.23-.23-.46-.35-1.72-1.14-1.95-1.15-.34-.23-.35-.23-.57-.69-.46-.46-.81-.92-2.41 1.84-15.61 5.16-8.15-3.78-5.51-.46-4.94 1.26-15.49 15.27-7.01 3.33-7.8 3.79 7.46 55.34 1.61 12.17-.46 1.03v.58l.68 8.15.58 5.51.11 2.98v.58l-.11.23-.12.23-.34.11-.34.12-1.04.34-1.83.46-.35.11-.34.35-.23.34-.23.46-.23.58-.12.46-.11.8v3.9l.11 11.48v5.86l-.11 7v.58l-.12.34-.11.35-.23.34-.23.23-.46.23-.34.23h-.69l-.92.11-2.41.12h-.58l-.34.23-.35.11-.22.46-.35.35-.23.46-.11.46v.34l-.12.69v1.03l-.11 2.53v1.72l-.12 2.18-.46 8.38v1.15l-.11 1.72-.23 1.38-.23 1.38-5.17-1.72-2.64-1.04-4.7-1.49-5.97-2.29-1.38-.69-.58-.23-.34-.12h-1.15l-.34.12-.35.11-.34.12-.92.46-.23.23-.23.11-.8.46-.58.23-.34.23h-1.61l-2.64-.35h-.57l-.46.12v.11l-.35.12-.46.23-3.21 2.06-2.07 1.38-.34.23-3.9 2.53-2.53 1.72-.46.23-.34.11-.23.12h-.35l-.46.11-2.98.12-4.82.11-4.25.23-3.21.12-3.68.11h-3.67l-3.22-.23-3.56-.57-4.7-.69-7.69-1.38-1.84-.46-1.49-.34-.81-.12-1.03.12h-.8l-2.64.23-2.53.23h-1.03l-1.38.11-8.15.58-5.51.34-2.53.23h-4.47l-3.79-.23-3.45-.11h-3.56l-3.78-.12h-4.71l-5.4-.11-1.49-.12-4.02-.23-2.18-.11-4.13-.35h-.69l-2.64-.23h-1.03l-3.1-.23-1.15-.11-1.38-.12-4.93-.23-1.5-.11h-.34l-.35.11-.46.12-.68.34-1.96-3.1-1.72-2.64-3.9-6.31-4.02-6.43-1.26-2.07-1.72-2.75-2.76-4.6-2.75-4.82-.92-1.72-1.38-2.3-8.5-15.73-.45-.68-1.61-2.99-2.41-4.36-8.5-15.5-2.41-4.48-.46-.69-3.1-5.74-1.49-2.64-1.95-3.44-.92-1.73-.69-1.26-3.44-5.62-2.99-5.17-1.95-3.22-1.15-1.95-2.06-3.33-3.33-5.28-1.84-2.87-4.02-6.2-4.02-6.08-8.26-11.94-.8-1.27-1.27-1.83-.46-.69-1.14-1.61-2.53-3.79-.69-.92-.69-.92-.69-.92-1.49-2.18-.92-1.37-.23-.46-3.21-4.6-2.07-2.98-1.03-1.38-.23-.34-1.95-2.87-.92-1.38-3.1-4.36-1.15-1.73-.8-1.03-.58-.92-.69-1.03-3.9-5.63-2.18-3.1-.57-.92-2.64-3.9-.69-1.03-2.41-3.56-1.38-2.3-.69-1.03-.92-1.49-3.44-5.4-.69-1.03h-.58l-.45.11-.69.12h-2.41l-1.61-.12-1.72-.11-2.07-.12h-1.72l-1.49-.11-2.41-.12-1.96-.11-6.65-.46-3.22-.12-2.18-.23-5.74-.23-5.17-.23-5.16-.11-5.28-.23-5.28-.12-5.4-.22-3.56-.12-1.38-.11h-.57l-4.82-.12h-.58l-5.51-.34h-1.37l-3.33-.12h-4.25l-1.38-.11-1.03-.12h-.92l-3.44-.34-2.76-.12-3.79-.23-4.59-.46-1.72-.11-1.15-.12-2.75-.11-2.3-.12-1.84-.11-1.6-.12-8.5-.57-.8-.11-3.1-.12-7.24-.46-3.9-.11h-.57l-2.18-.12-2.53-.11-8.38-.12-6.89-.23-1.72-.11-1.15-.12-.92-.34-.46-.23-.57-.35-5.17 1.73-.46-.46-1.95-1.61-14-5.28-3.79.92-9.18 8.26-16.77-2.18-2.52-.46-4.48-.34-1.03-.23-.92-.35-.69-.22-.69-.46-1.72-1.5-1.84-1.6-2.75-2.3-1.95-1.84-3.45-2.52-1.72-2.3-.8-1.49-1.04-1.49-1.6-1.73-1.38-1.26-.92-.92-1.61-1.26-1.14-.92-.92-1.15-.92-.92-.35-.8-.57-.8-.34-.81-.35-1.49-.23-1.15-.23-.69-.23-.57-.46-.57-.46-.58-1.14-1.03-.69-.81-1.95-2.29-1.61-1.95-1.38-2.19-1.72-2.75-1.15-2.07-1.03-2.18-.92-1.84-.69-1.6-.46-.92-.57-.92-.58-.69-.46-.57-1.14-1.04-.69-.57-.92-.57-1.03-.35-.92-.23-.81-.11h-1.14l-.92.11-.69.23-.35.23-.34.46-.34.57-.12.58-.23.92-.34 2.18-.23 1.61-.35 1.37-.34.92-.35.81-.46.57-.45.46-.69.34-.58.23-.69.12-.57-.12-1.26-.34-.92-.46-2.18-1.26-1.27-.81-1.03-1.03-.57-.58-1.38-1.95-1.15-2.18-1.95-3.33-1.26-2.29-.92-2.07-.92-2.3-1.03-2.29-1.38-3.56-1.03-2.76-1.15-2.41-1.15-2.41-.92-1.61-2.75-4.82-2.3-3.9-3.79-6.2-.69-1.27-.8-1.72-.69-1.49-.57-1.15-.58-1.38-.69-1.03-.57-.8-.57-1.27-.46-.69-.35-.45-.69-.81-1.03-.8-.69-.81-.69-.91-.69-1.38-.8-1.72-1.49-3.1-.46-1.04-.46-.92-.46-1.03-.34-1.03-.58-2.07-.57-2.3-.69-3.1-.46-1.49-.23-.92-.34-.92-.35-.91-.57-1.04-.35-.57-.34-.46-.46-.69-.34-.46-.92-.8-1.15-.81-1.03-.57-.81-.34-.8-.35-.69-.11-1.03-.12-1.38-.11h-3.44l-3.56.23-2.99.34-3.44.46-1.95.12h-2.64l-.69.11-.92.23-.81.11-.68.23-.69.35-.92.46-1.15.69-1.26.8-1.72 1.03-1.84 1.38-1.15.69-.92.46-.57.34-.81.23.12 1.04.23 1.03.11.57.35 1.27.57 3.33.12 1.6-.12.92v1.27l-.11 1.03-.12.46-.23 11.13v2.76l-.46 14.24v.69l-.46 13.2-.34 10.45-1.03 16.07-.58 8.84-.34 3.68-.12 2.06-.11 1.84v9.3l-.12 1.26-.23 1.95-.34 1.04-.34.8-.35.69-.69.92-.23-.12h-.46l-.46-.11h-7.69l-13.66-.23-3.79-.12-.11-.11-13.89-.35-5.51-.11-5.05-.23-.58-.11-.34-.12-.35-.34-.23-.35-.23-.34-.11-.35v-.34l-.12-.58v-2.06l-.34-6.78-.11-.8v-.11l-.12-.12v-.11l-.11-.12-.12-.23-.11-.11-.23-.12v-.11h-.12l-.11-.12h-.58l-.57-.11h-8.38l-7.81-.12h-6.89l-5.85-.11-5.97-.12h-3.21l-.23 3.68-.23 1.72-.69 7.35v.46l-.12.57.12 1.72.34 2.76.58 5.97.68 4.94.35 2.41.11.46v.23l.35 1.83.57 2.53.58 2.41.23.69 1.6 6.08-1.15.35-1.03.23-.34.11-.35.35-.23.34-.69 1.61-.34.57-.57.69-.81 1.38-.46.46-.34.34-.8.58-.46.46-.58.57-.34.57-.69.92-.69 1.15-.92 1.49-2.18 3.79-5.28 2.3-9.18 6.77-6.32 10.45.23 1.95 5.51 1.84.35 4.02.11 1.03v.12l-.57.23-.46.34-.46.34-.35.35-.46.57-.11.23-.34.58-.58.91-.46 1.15-.11.46-.46 1.04-.81 2.41-.45 1.49-.46 1.03-.12.35-2.87.11-.57.58-4.25 5.28-2.98 4.93-3.1 4.6-5.17 1.26-3.33 2.18-1.15 2.87-2.06 1.26-2.41 13.32-1.84 9.76-2.99 16.65-.34 2.07-2.76 15.38-1.95 11.48-1.72 9.3-.23 1.49-2.07 11.6-1.6 8.5-1.95 11.02-4.02 22.27-1.15 7.69v.35l-.92 9.41-.46 8.16-8.26-14.7-33.76 1.72.12-2.75v-6.2l.11-5.17.12-9.07v-11.94l-7.58-16.42-2.29-4.94-.23-.46-3.56-3.9-1.95-3.21-2.18 1.83-12.63 5.97-3.22 1.5-.23.11-4.47 2.53-3.68 8.72-.8.92-5.28 5.97-18.94 14.81-.35.23-11.94 10.22.69 10.91-.34 5.74-3.56-.12-1.38-.11-.8-.12-.92-.11h-.58l-1.37-.35.8-8.72.11-1.15.35-3.67.46-4.94.23-2.64.23-2.18 1.26-13.32.34-4.13.58-5.52.23-2.52.11-1.15.35-3.56.34-3.67.23-2.87.12-1.61.23-1.72.68-7.01.81-8.72 1.03-10.56.69-8.04 1.03-9.65.12-1.49 1.38-12.97.11-1.04.35-2.64 1.14-11.25.92-8.84.58-4.82 1.6-14.58.58-6.2.34-2.76.46-5.16.34-3.1.46-4.14 2.41-22.16.81-8.26.69-7.92.23-2.99.46-6.77 1.14-17.91.81-12.06.57-9.41.12-1.96.11-1.49.23-2.18.12-2.64.23-2.3.34-2.87.23-2.06.34-2.3.23-2.18.92-7.46.46-3.79.8-5.74 2.3-18.26.34-2.98 1.04-8.04.34-2.41.35-5.17.11-1.15v-1.26l.12-1.26v-5.05l-.12-2.19-.11-1.83-.35-5.4-.34-5.05-.69-10.22v-.34l-.35-5.28v-.58l-1.37-18.6-.23-4.13-.46-7-.58-7.93-.23-4.59-.11-1.26-.11-1.49-.12-5.86v-6.54l.12-8.85v-3.78l.11-11.6v-15.61l.11-4.48.12-14.7v-4.71l.11-3.78.12-20.1v-3.1l.11-2.87v-7.57l.12-8.04v-17.68l-.12-1.27-.23-6.42-.11-4.37-.12-5.05-.22-8.38-.12-3.79-.23-3.1v-2.53l-.11-2.41v-5.28l-.12-1.49.12-5.28v-7.12l.11-6.09v-1.03l.12-4.36v-5.51l.11-1.61v-1.38l.12-4.59.22-5.28.12-3.45v-1.95l.11-1.61v-1.14l-.11-1.27v-1.72l.11-1.49.12-9.99v-9.41l.11-1.5.12-23.88.11-7.81v-5.05l.23-5.05.12-1.72.23-3.9.57-7.93.23-3.79v-1.49l.12-1.26v-4.02l-.12-2.3-.11-3.21-.23-3.56-.23-4.59-.12-4.02-.11-2.3v-5.51l-.12-2.87.12-2.75v-7.81l.11-14.01.23-28.93.12-8.61v-9.53l.23-6.2v-5.63l.11-16.07h1.03l.12-1.84.69-10.33.46-.69.23-.23.11-.34.23-.35.35-.23.34-.34.34-.23.23-.23.35-.12.34-.23.81-.34 1.95.11 2.41.12 4.82.11 1.03.12h.92l.92.23.92.11.8.12.92.23.69.23 1.15.34.34.12 1.04.46.8.23.8.34.92.57.69.35.57.34 1.04.58.92.69.34.34 1.49 1.26 1.95 1.73 3.1 2.98 1.27 1.38 1.26 1.03 8.61 8.5 2.07 1.38 1.49 1.6 2.29 2.3 2.76 2.87 1.26 1.38 2.76 2.64.92 1.03.45.46-.45-2.18-.35-1.95-1.72-8.84-1.72-8.04-1.72-8.61-4.14-18.26-4.47-20.78-1.38-7.57-2.41-13.55-1.27-6.09-6.77-.11-.57-.46-.69-.46-1.04-.46-.68-.12-10.57-.57-9.41-.46-6.08-.11v-1.38l-.12-5.05v-.58l.12-7.12v-1.83h-3.33v-1.95l.11-3.22v-3.33l.12-8.95.11-6.66-.11-4.94.46.12 7.69-.35 3.67-.11 10.56-.69 6.55-.12 5.28.12 8.84-.23 4.47.8 3.33 1.03 1.73.92 1.6.69 2.53 1.61 3.21 2.3 2.53 2.41 1.26 1.37 6.09 6.09 2.06 1.49 1.49 1.04 2.3 1.49 1.15.57 2.06 1.04 1.96.91 5.97 2.3 1.26.46 4.59 1.84 2.87 1.03 4.48 1.72 3.1 1.15 2.06.92 1.73.92 1.72.92 2.18 1.26 3.44 2.29 2.18 1.73 1.5 1.37 4.01 3.79 1.96 1.73.46.57 1.6 1.38 1.04.8 1.14 1.03 1.27.92 1.14 1.04 1.96 1.26 1.03.8 1.03.58 1.27.8 1.72.92 1.72.8 1.49.58 1.72.8 1.61.57.8.23 2.99.81 2.41.69.57.11 4.6 1.26 3.67 1.04v.34l.69 3.22 1.03 1.83 1.38 1.27 1.49.8 12.06 15.61 3.44 5.52 2.3 2.87 3.78 3.67 1.27.92 5.16 1.61 1.5 1.14 3.55 4.6 1.73 1.6 1.14.46 1.84.58 4.94 1.95 3.79 1.72 1.37 1.15.69 1.26.81 5.17.11 1.49-.23.46-.46.69v1.15l.23 1.38.58 1.83 1.6 2.53.69.11.92-.11.57-2.76.58-2.64.69-2.98 1.15-4.37 1.03-4.24.8-3.56 2.41-11.37.58-2.3.23-1.03.23-.69.23-.57.34-.81.23-.68.34-.58.46-.46.46-.57.46-.46.69-.58.57-.45.69-.35.69-.34 1.04-.35-2.53-4.48-2.07-3.44-1.95-3.33-1.95-3.56-.92-1.38-1.84-3.33-1.83-3.44-.69-1.15 1.95-.92 1.72-.69 1.38-.68 3.33-1.38 3.21-1.49 2.64-1.15 2.87-1.15 8.04-3.56 3.44-1.61 2.53-1.15 1.38-.57 1.03-.57 1.03-.69 1.27-.69 1.14-.69.92-.57.69-.46 1.04-.81.8-.57 1.15-.92 1.6-1.15 1.5-1.26 1.26-1.15 1.15-1.15.92-.92 2.64-2.75 1.49 1.84 2.29 2.52.92 1.15 7.46-12.97 7.81-4.14 37.66-36.05.91-1.03-2.98-3.22-1.49-1.83-1.04-1.15-1.14-1.26-1.38-1.73 3.56-3.79 4.24-4.59 1.38-1.38 5.51-5.85 1.95-1.95 3.56-3.56 1.95-2.07 1.15-1.15 2.53-2.41.69-.69 5.51-5.05 2.29-2.18 1.27-1.26 1.14-1.5 1.04-1.49 1.72-2.87.8-1.72.46-1.15.46-1.03.46-1.49.35-1.15.11-1.04.11-.34.46-2.53.12-1.72.11-2.07v-2.52l-.34-4.59v-.69l-.57-4.14-.46-4.82-.46-4.82v-.12l-.58-4.59-.34-4.82-.23-3.1v-8.27l-.12-1.03.12-4.94v-13.2l.11-1.61v-5.62l-.11-.58v-1.6l-.23-1.73-.46-3.67-.11-.92-.35-1.84-.57-2.06-.35-1.04-.69-2.06-.69-2.3-2.29-5.17-.23-.57-.35-.69 1.5-.8 1.37-.92.69-.35.58-.34.46-.23.8-.11.57-.12.69.12h1.04l1.03.11 1.72.35.81.91.91.23-.91 8.27v.8l.11.92 1.03 6.2-.92.23.23.46 2.42 11.83-2.76 58.9.46 5.28 15.61-5.86 6.43-1.72-15.38-.46-1.84-59.13v-1.84l20.55-.45 5.28-42.03.23-2.18.12-1.03.34-1.38-2.99-.69-1.26-.34-6.43-1.49-3.33-.81-5.28-1.26-1.37-.35-1.38-.23-4.71-1.14-1.49-.35-4.48-1.03-3.1-.8-1.72-.46-2.87-.58-1.26-.57-1.15-.46-1.61-.58-.69-.11-1.72-.34-1.95-.46-.8-.23-.81-.58-.23-.11-.34-.58-.35-.57-.23-.69-.34-1.72-.11-1.38-.23-2.07-.23-1.83-.46-1.84-.46-2.18-.12-.35-.46-1.26-.57-1.84-1.03-2.29-.58-1.38-3.44-6.54-1.15-2.53-1.03-2.18-.69-2.07-1.03-3.67v-.46l-.46-1.61-.46-3.44-.12-3.79v-2.64l2.76.57.8.12 1.84.23 2.29.34 5.05.8 6.32.58 3.33.34 2.06.23 2.99.35.69.11 2.41.23 2.64.46 2.41.23.34-.11.92.22 2.18.23 1.15.23 2.18.23 1.5.23.57.12 11.94 1.49.57.12 4.25.45 4.02.35 5.16.69 3.22.34 2.87.35 1.15.34 4.02 1.03 7.11 1.84 3.79 1.03 5.86 1.5 2.75.69 9.3 2.29 1.15.23 1.15.23 9.07 2.18 1.6.35h.35l3.33.69 3.67.23.8.11 6.55.46.92.12 9.98.8 1.15.11 2.41.23h.46l6.77.58 2.07.23 6.09.57 6.08.46 12.51 1.03 1.04.12 10.56 1.38.8.11 4.59.46 7.69.8 11.48 1.04 1.04.11 12.17 1.15 5.05.57 6.77.92 11.83 1.15 11.36.92 3.56.46 8.5 1.03 4.24.35 5.4.46 2.75.23 10.91 1.37 1.03.12 2.87.11 5.97.81 1.15.11 7.46 1.26h.12l4.02.46 4.7.35 6.43.8 6.89.92 4.71.69 13.2 1.72 6.2.69 1.72.11 2.98.35 1.96.23 4.59.46 2.75.23 4.71.46 5.51.57 7.12.8 2.75.23 1.15.12 2.53.34 1.26.12 1.61.11 1.72.12 1.95.23 2.3.23.8.11 1.84.12 1.72.23 1.72.23 1.84.11 1.83.23 1.73.12 1.83.22h.46l1.26.12 1.73.11h1.83l1.73.12h3.33l1.14.11h4.94l4.36.12h9.53l2.3.11h8.95l3.1.12h8.38l5.63.11h10.44l5.05.23 4.02.23 1.26.12 2.07.11.35.12h.45l1.15.11 2.76.35 2.29.23 2.41.23 2.53.23 2.3.22 1.95.23 3.21.35 4.37.23 3.09.11h.81l10.1.46 1.84.12h.23l2.41.11 1.49.12h.92l2.29.11.92.12 2.99.11h.69l2.75.12h.23l2.07.11h.46l2.64.12 1.49.11h.46l1.84.12 4.59.23 1.83.11h.46l2.3.11 2.3.12 2.18.11h2.29l2.76.23 3.44.23 1.04.12.8.11 1.38.23 1.26.23h.11l.46.12 1.27.23 1.72.34 1.26.23h.46l1.03.23 2.41.46 1.84.34 2.87.46 2.3.23.8.12 2.53.34 2.52.35 2.41.23 2.53.34h.11l2.41.35 5.06.57 1.83.23h.58l2.52.23 2.07.11 1.95.12 3.1.11 3.79.23 2.41.12 1.61.11h.8l3.56.12 3.44.11 2.53-.11h.34l2.3-.23 1.26-.23 1.26-.12 2.64-.34 1.27-.23 1.37-.23 5.86-.92 1.03-.11 1.04-.23 1.6-.23 1.95-.23 1.38-.23 2.18-.35.58-.11 1.38-.23.91-.12h.23l2.99-.34 5.16-.57 1.84-.12 1.03-.11 6.32-.69 3.21-.23 1.72-.23 2.42-.23.8-.12 1.84-.23 6.31-.69 4.48-.45.69-.12 2.18-.11 4.47-.46 1.73-.12h.69l4.82-.46h.46l1.37-.11 5.86-.46 2.18-.23 1.49-.12 5.28-.46 1.72-.11 2.42-.11 10.21-.81 2.64-.23.69-.11h.69l8.04-.69h.23l2.29-.12 2.87-.23h.69l2.41-.11h6.66l1.15.11h1.03l1.26.12.81.11.69.12.34.11h.35l2.18.69 1.49.46 1.15.58 2.52 1.26 2.3 1.15-.35 2.52-.8 3.79-1.49 5.28-1.03 4.02-.35 1.84-.23.69-.46 1.14-.23.69-.23.69-.46 1.72-.11 2.3v1.49l.11 1.73.35 4.47.11 2.07.12 1.15.23 1.38.34 1.37.35 1.15.8 1.95 2.41 4.6 1.49 2.41 2.87 3.33 2.41 2.41 2.3 2.06 2.07 1.15 2.41 1.04 6.89 1.95-12.98-.35-79.44-1.49-29.16-.57-122.72-2.41 3.33 1.26 2.18.92 1.03.46 1.5.57.57.34.69.23.57.35.58.34.91.58 1.61.92 1.04.68.91.69.69.46 1.04 1.04.91.8.69.8.12.12 1.26 1.38 1.95 2.41 1.26 1.49.58.69.46.57.34.58.81 1.14 1.14 1.84 1.5 2.41 1.6 2.53 1.38 2.41 1.49 2.41 1.73 2.87 1.26 1.95 3.79 6.43 4.93 8.04.92 1.38 2.76 4.25 1.15 2.06 2.75 5.05.46.92 4.36 8.84.69 1.5.92 1.72 1.38 2.87 4.01 7.35 2.3 4.13 1.49 2.52.92 1.61 1.15 2.53 1.26 2.64.58 1.15.11.23 3.45 7 1.14 2.18.69 1.26.35.81.57.8.46.81.46.68.69.92 1.15 1.15 1.37 1.49 1.5 1.5 1.83 1.72 1.49 1.26 1.04 1.03 1.83 1.61 2.87 2.53 1.73 1.49 2.41 2.18 1.03 1.04 2.53 2.06 1.03.92 1.38 1.26 1.95 1.73 2.64 2.41 1.15.91 1.83 1.61 1.15.92.92.92.69.57 1.15 1.15.8.92.57.57.58.69.46.58.46.69.57 1.03.46.8.34.58.35.92.23.8.23.69.23.92.23 1.72.11 1.49.23 2.41.12 3.79.11 2.99.12 2.52.23 4.25v1.72l.11 1.38.12.8.11.81.23.69.23 1.03.46 1.26.8 2.07 1.27 2.98 1.37 3.22 1.38 3.21.92 2.19 1.26 2.98.23.69.69 1.49.34.69.23.46.58.57.46.46.46.58.69.46.68.23v.11l1.61.58h.12l4.47 1.14 1.27.23 2.75.58 4.71.92.69.22 1.26.23 3.33.69 1.49.23 1.26.23 2.87.35 1.27.11h1.03l4.82.46 4.94.46h.92l2.29.23 1.84.23 1.26.11 1.49.35.92.23.92.23 1.38.69 1.49.8 1.84 1.03 1.61 1.15 1.83 1.49 1.84 1.27 1.38 1.15.69.46.8.8.57.69.69.69.46.57.46.69.46.69.34.69.23.69.35 1.03.34 1.72.46 1.95.58 2.87.34 2.41.57 3.22.12.92.46 1.95.34 1.72.46 1.61.23 1.26.23.92.35 1.03.68 2.19.58 1.6.23.81.57 1.14.69 1.38.34.81.81 1.26.8 1.26 1.26 1.95 1.04 1.61.92 1.15.57 1.03 1.15 1.84 1.84 2.87 1.03 1.49 1.61 2.41 1.37 2.19.46.68.35.69.57 1.27.8 1.83 1.04 2.64 1.03 2.53.69 2.07.69 1.95.46 1.72.46 1.72.23 1.49.34 2.19.12 1.14.11 1.38-.11 2.18-.12 2.41-.11 1.84-.23 2.99-.12 3.33-.11 3.44-.12 4.36h-.69l-7.8-.23h-32.03l-.92-.11-.57-.23-.58-.46-.57-.46-.58-.69-.46-1.15-.57-1.83-.69-2.18-1.26-4.48-.69-2.53-.46-1.26v-.23l-.46-1.15-.34-.46-.46-.57-.46-.46-.69-.58h-.12l-.45-.34-.58-.23h-.46l-.46-.11-1.37-.12h-1.5l-1.6-.11-1.27.11-2.18-.11-2.52-.35-1.5-.23-.8-.23-1.15-.46-.57-.34-.35-.23-.68-.58-1.73-2.06-1.26-1.49-1.84-2.07-2.75-3.22-.92-1.03-1.26-1.72-2.41-2.76-1.5-1.83-3.1-3.68-.68-.8-1.27-1.49-1.49-1.73-.92-1.03-.8-1.03-1.03-1.27-.81-.8-.8-.69-.92-.46-.8-.46-.46-.23-1.15-.23-1.26-.23-2.53-.23-3.33-.45-3.79-.46-3.1-.35-2.29-.34-4.71-.69-2.64-.35-2.18-.34-1.72-.23-1.84-.46-1.26-.46-1.04-.57-.69-.35-1.83-1.26-2.3-1.61-3.44-2.75-2.18-1.61-2.41-1.84-.81-.69-.46-.57-.23-.34-.23-.58-.11-.46-.12-.69-.11-.92-.12-2.18-.11-2.64-.11-2.41-.12-4.36-.11-2.07-.12-3.67v-3.33l-.11-2.53-.23-1.72-.23-.8-.23-.69-.58-.81-.23-.45-.46-.58-.68-.8-1.73-1.61-2.18-2.18-1.72-1.49-.69-.35-.34-.23-.69-.23-.58-.11-.91-.12-3.45-.23-2.29-.11-3.22-.23-3.21-.58-1.15-.34-1.26-.46-.46-.23-.81-.34-5.16-3.33-2.3-1.5-1.49-1.03-.69-.46-.46-.46-.69-1.03-.34-.8-.35-.46-.46-.92-.57-1.15-.34-.57-.58-.92-.92-1.61-1.26-2.18-2.98-4.36-2.99-4.71-2.18-3.22-1.38-2.06-1.15-1.61-.68-.92-1.27-1.61-1.03-1.26-.8-.92-1.04-.92-.34-.34-1.04-.8-.68-.46-.92-.58-1.04-.69-.91-.46-.69-.46-.81-.57-1.6-.92-2.3-1.38-2.41-1.49-.34-.23-2.07-1.26-1.72-1.15-1.15-.92-3.1-2.29-1.38-1.04-1.49-1.03-1.38-.8-2.06-1.04-1.61-.46-1.26-.23-.92-.23-1.5-.11-1.49.11-1.26.23-1.03.23-.58.12-.69.34-1.83.81-1.38.23h-1.95l-.58-.12-.8-.11-1.26-.23-1.15-.46-1.15-.35-1.61-.57-.91-.35-.69-.22-.81-.12-.69-.23h-3.1l-.68.12h-.46l-1.73.11-1.26.12-2.18.11-1.84.23h-1.37l-.46-.12-.69-.34-.35-.23-.34-.34-.23-.35-.46-.69-.23-.46-.11-.46-.23-.68-.12-.69v-.58l-.11-.8v-.8l-.23-2.53v-2.18l-.12-2.53-.11-.57-.12-1.84-.11-2.18-.23-1.84-.23-2.29-.8-5.74-.12-1.15-.23-.92-.23-1.03-.69-2.07-1.38-3.1-1.37-2.99-1.61 4.14-1.03.46-2.87.92-3.68.45-.8-.11.92 8.04 1.95 4.02 2.98 2.75 3.22 5.05.11 6.32-2.64 6.77-4.24 5.63.11 2.98 4.94 4.59 3.9 4.48 1.61 5.17 4.93 7.35.46 4.47-1.26 2.64-1.26.81-7.35.92-.8 1.15-.58 12.85-1.26 5.97.69 6.2 1.61 4.6 7.46 16.64.34 4.14 1.15 14.35-.57 3.1-2.19 4.25-3.9 6.54h-6.31l-.35-.11-.11-.12-.12-.11-.11-.12-.12-.23-.11-.46-.23-.46-.34-.91-.46-1.04-.69-1.49-1.04-2.53-.68-1.72-1.73-5.28-1.83-5.28-.81-2.3-1.15-3.33-.11-.34-.23-.58-.46-1.26-1.84-4.93-.91-2.76-.35-1.03v-.12l-.69-1.72-.8-1.95-1.49-3.79-.92-2.18-.92-2.07-.69-1.49-.46-1.26-.34-.92-.23-.92-.12-.81-.23-1.03-.11-.69-.12-.8-.57-4.02-.46-2.64-.46-2.41-.23-1.15-.23-.92-.23-.69-.23-.8-.23-.57-.23-.46-.34-.69-.35-.46-.68-.92-.69-.92-.58-.8-.69-.58-.57-.57-.69-.58-.92-.57-.92-.46-1.03-.57-1.03-.46-.92-.23-.8-.35-.92-.11-.81-.12-.8-.11h-7.35l-5.62-.12h-1.95l-4.48-.11-2.18-.11h-25.83l-2.64-.12-1.49-.11 1.95 1.6 6.08 4.94 3.68 5.74 4.01 10.1 1.04 9.19 1.26 4.71 1.38.34 2.75 4.13.58 3.45-.81 3.21-4.82 6.66-2.41 1.27-.92 1.6-6.54 3.1-8.84 8.84-9.42 4.14-6.19 1.49-3.91-1.38-5.05-4.13-4.71-1.84-22.61 3.22-.46-.58-.69.92-1.38 1.61-2.18 2.29-.8.69-.46.35h-.23l-.35.11h-2.75l-2.07-.11h-6.88l-6.43-.69-2.64-.12-1.73-.11h-.46l-.34.23-.23.11-.11.23-.12.23-.11.35-.23.23-.12.34v.57l-.11.35v.34l.11.46v.46l.12.58.11.69.35.91.23 1.15.23.92.22.69.12.92.23 1.15v.8l.11 1.03v12.75l-.11.69v1.03l-.12.46.35.23.34.23 1.15.69 1.61 1.14.92.81 2.87 2.52 5.05 4.48 3.56 3.22 1.49 1.26 10.68 9.53 10.56 9.64 2.06 1.84 1.5 1.26 1.72 1.61 2.75 2.53 2.07 2.06 1.72 1.95 1.49 1.84.58.58 1.26 1.6.8 1.15 1.96 2.3 2.75 3.67.69 1.04 1.15 1.72.34.57.23.23.46.8 1.15 1.96.46.8.8 1.49.35.58 3.1 5.97 2.98 5.97 2.07 3.9.92 1.95 4.36 8.38.8 1.61.69 1.26 2.07 4.14 2.29 4.36 2.41 4.25.46.92.81 1.26.92 1.49.8 1.38.8 1.26.81 1.38 1.26 1.84.34.57 1.15 1.84.46.8 1.15 1.72.57.81 1.38 2.18.23.46 1.15 1.72.92 1.49 1.03 1.61.92 1.38 1.03 1.61.69 1.03.69 1.15 1.03 1.61.81 1.26.8 1.38.8 1.26.92 1.38.92 1.49.69 1.15.8 1.26.81 1.26.57.81.69 1.03.57.69.35.34.34.46 3.1 3.22 9.64 9.53 6.89 6.77.69.69 4.59 4.36 14.24 13.21 7.12 6.66 3.55 3.21 3.56 3.33 1.27 1.15.68-.69.81-1.03.57-1.04.69-1.38 1.03-2.29.46-1.15.46-.69.58-.57.92-.69 1.72-1.04 1.26-1.03 1.15-1.15 1.26-1.26.69-.8.23-.35.23-.46.34-.57.46-1.03.23-.92.23-1.72.35-4.71.34-3.79.46-4.02.34-2.76.35-2.18.23-1.37.46-1.96.8-2.41.92-2.64.92-1.72 1.15-1.95 1.26-2.18.69-1.04.34-.46.46-.34.69-.46.57-.23.58-.23h.57l.35-.11 2.75-.12 4.02-.23 3.21-.11h6.32l4.47-.23 1.04-.12.69-.11 1.03-.23.46-.23.57-.23.81-.46.57-.46.8-.69.81-.8.34-.46.69-.92.12-.23.91-1.49.58-.92.11-.23.23-.34.69-.69.92-.69.92-.58 2.18-1.14.92-.69.46-.35.57-.46.8-1.15 1.5-2.64.8-1.37 1.15-2.41.69-1.27 1.38-2.52.22-.46.92-1.84.46-.69.46-.8.58-.58.34-.46.46-.34.46-.11 1.72-.35 1.61-.11 1.38-.35 1.03-.23.23-.11.57-.35.69-.57 1.26-1.26.35-.46.8-1.15.92-1.38.8-1.84.92-2.06.23-.81.35-.69.23-.34.46-.46.34-.34.46-.35.46-.23.69-.23.8-.11h.92l.92.23 1.95.92 1.26.68 1.03.58.58.23 2.29 1.26 1.73.92.57.46.8.34.46.35.46.23.46.23.46.11.92.12.46.11h.23l1.49-.11 2.53-.23 3.33-.58.68-.11 1.38-.35.58-.11h1.6l2.87.34.58.12h.34l.92.23 1.49.23h1.38l1.15-.35 1.72-.57 1.26-.35 1.38-.22 2.07-.46 1.95-.23 3.1-.35 6.2-.34 1.37-.23 2.76.23 2.53-.12 1.26-.11.57-.23 1.84-.35 1.03-.23h1.27l.91.23.81.35.34.23.35.46.8 1.15 1.03 1.6.58.69.92 1.03.68.69.58.46 1.72 1.27.23.11 1.95 1.03 2.41.92.92.46 1.03.35 1.15.23 1.38.11h2.75l1.84-.11 1.61-.23.92-.23 1.37-.46 1.04-.23 1.83-.69h.12l3.67-.92 1.84-.34 1.49-.23 2.53-.46 3.1-.35h.11l2.41-.11 2.07-.12h1.95l.92-.11 1.15.11 1.49.12 1.03.23.92.23.81.34.22.12.92.46.69.34.23.11.92.46.46.35 1.15.69 2.64 1.37 1.49.69 1.49.58.92.23 1.15.34h.57l.69.12.46-.12.8-.11 1.27-.23 1.49-.35 2.07-.57 1.72-.58.46-.11 1.15.23-.81 24.11v9.99l.69 5.85 13.66 23.08 8.04 10.22 3.56 8.04-2.87 2.64 1.14 7.23v7l-1.26 6.78.46 9.64 1.61 4.37 6.31 5.62 4.59 5.28.46 4.37-3.1 13.43-4.82 7.69-.46 2.3-.92 4.13-1.83 3.56-.69 1.95 6.31-.92 1.84-.23 8.5-.46 1.6-.11 2.76.11 2.06.35 2.53.11 3.79-.11 2.75-.46 3.68-1.03 3.56-1.38 1.95-1.26 1.37-1.15 2.3-1.04 3.9-.8 3.22-.34 3.21-.58 12.4 1.95 7.69 3.1 8.38 8.38 2.99 1.5 22.15.92 3.45.23-.12.57-.23 1.26-.11 1.38v.34l-.12 2.42-.11 3.55-.11 2.65-.23 2.41-.23 1.83-.69 2.07-.92 2.76-.8 2.06-1.38 2.53-2.18 4.36-1.38 2.41-1.38 2.3-2.41 3.56-1.95 2.75-2.41 3.56-1.49 1.84-1.5 1.61-1.03 1.14-1.38 1.5-1.72 1.83-4.48 4.71-4.02 4.25-3.55 3.79-2.76 2.75-1.72 2.07-.58.8-.91 1.73-.46 1.03-.23.46-1.15 3.33-.34 1.15-.35 1.03-.46 1.03-.69 1.73-1.37 2.98-2.07 4.25-1.95 3.56-.92 1.49-.46.69-.57.46-.58.57-1.15 1.04-.91.68-1.84 1.38-2.07 2.18-2.06 2.07-2.3 2.41-4.59 4.71-3.33 3.67-.81.92-.11.23-.11.23-.23.35-1.15-.23-1.61-.46-2.41-.58-3.44-.69-2.76-.69-2.64-.57-2.98-.57-10.57-2.18-2.41-.46-5.62-1.15-2.64-.35-2.18-.23-4.25-.34-5.97-.23h-14.47l-7.23.11-16.76.12h-5.17l-.8-.12-2.07-.11.23 5.28.69 14.24.12 1.38.11 1.6.23 1.04.23 1.03.69 2.18 1.03 2.99 1.15 2.98.81 2.18.45.69.81 1.49 1.15 1.61 3.1 4.13 2.18 2.53 1.37 1.95 1.73 2.3 1.49 1.95 1.72 2.53 3.67 5.85 3.22 4.94 1.03 1.72.92 1.61.57 1.15.92 1.95.58 1.38.69 1.83.68 2.41.81 2.19.57 1.95.46 1.72.69 2.3.92 3.67.57 2.98.23 1.61.23 3.33.12 3.79.23 3.56.23 3.21.23 2.19.22 2.29.23 11.6.12 8.61v.23l.11 8.15-.34 8.5-.12 1.37-.34 8.96-.11 3.21-.35 7.24v.69l-.23 1.37-.23 1.38-.34 1.26-.92 2.88-2.18 7.34-4.82 14.81-4.71 14.93-.12.57-.11.92v1.38l.11 1.61.35 1.83.34 1.84.58 1.84.69 1.95.69 1.84 1.72 3.56.46.91.69 1.61.34.92.23.92.34 1.38.35 2.75.46 4.25.8 5.97.69 5.63.11.34.69 5.51.46 5.74.35 5.63-.12.92-.11 1.15-.35 2.29-.11 1.49-.12 1.5v1.03l.23 1.15.23 1.15.81 2.52.8 2.64 1.49 4.48 2.87 8.5 1.61 4.7.69 1.5.46.91.46.81.69.69.8.92 3.56 3.1 3.33 2.64.57.69.8.91.92 1.27 1.72 2.06.35.46 2.64 3.68 5.28 7.8 5.97 10.34 4.82 8.61.35.69.46.92.34.8.34.69.12.8.23 1.26.11.92-.11 1.27-.12 3.1-.23 1.37-.34 2.3-.46 3.67-.11.69-.12 1.61-.11 1.26v.69l.11 2.87.12 3.45.11 3.9.23 7.58v1.15l-.11 11.71v2.52l.11 1.27.12.8.22.57.23.58 2.42 4.93.57 1.27.46 1.15.57 1.6.58 1.84 1.83 5.51.23.58.23.68.12.23.69 1.5 1.14 1.95 2.64 4.02.12.11 4.13 6.66 1.04 1.72.45.81.46 1.37.35 1.27.57 2.98 1.26 4.48.35 1.72.57 2.41.35 1.61.23 3.1.69 5.86.91 7.23.12 1.38v1.14l-.12 1.27-.11 3.1-.12.8v1.03l-.22 5.17v29.62l-.69.12-2.64.8-2.3.8-3.9 1.5h-.12l-1.38.57-1.14.58-2.3 1.03-2.75 1.61-.35.23-1.61.91-2.29 1.5-2.41 1.6-2.41 1.84-3.79 3.1-3.56 2.99-1.49 1.14-2.07 1.84z" stroke-linejoin="round"/></defs><use xlink:href="#a" fill="#9dc8ca" stroke="#9dd7f0" stroke-width="5.76"/><defs><path id="b" d="M1804.09 2256.52l-2.18-.34-4.48-.8-2.75-.46-8.61-1.61-4.6-.69-2.75-.57-1.03-.23-4.71-.92-.35-.12-1.14-.23-4.94-.68-2.64-.46-1.03-.23v-13.55l.11-4.48.12-11.02.11-14.7v-8.72l.12-3.45-.12-2.29.12-2.76v-8.72l.11-6.55v-8.38l.12-6.54v-2.87l.45-.81v-5.39l.12-5.86.34-15.04.12-5.63 1.61.12 9.98.69 4.48.23h1.84l4.59.46 2.52.34 3.45.35 5.62.8 3.91.8 4.47.58 1.27.23 7 .46 7 .68.81.12 4.59.34 2.75.12h3.22l3.1-.12.23-.11 9.64-.58 5.97-.34 6.66-.34h.92l.11 1.26-.34.8.46 4.82h.8l10.68.92-.23.46-1.04 1.61-.34.69-.23.69v.8l.11 1.03.12 1.27.23 1.15.11.57.23.46.23.46.35.34.92.81 1.03.69.46.34.57.57.58.58.34.34.23.46.23.35.46 1.14.23.92v.12l.23 1.03.11 1.72.23 1.5.12.91.23.46.46.92.34.35.46.34.69.23 1.49.11h2.99l.68 4.71 13.44.92 9.64.35.23 4.24.23 4.6.23 3.67.34 3.33.35 2.98.23 1.15.11.23.12.92.23.69.69 3.1.57 1.95.23 1.15 1.95 5.74 1.38 4.36 1.49 4.37.8 2.64 4.02 12.51.81 2.41.8 2.64 1.61 5.05.34 1.15-1.26.46-.35.81-2.52.91-2.3.92-2.75.23-1.5-.92-3.9-.46-4.13.23-1.61.23h-1.95l-.46.12-8.5-.58-3.21-.23-2.18-.11-.57-.46.91-.34-2.06-.92v.69l-.69.23-.23.11-.35.23-.45.12-.69.11-1.96-.92-1.26-.23-1.83-.34-1.27.23h-3.67l-7.12-.35-2.75-.34-3.1-.23-3.56-.23-2.3-.23-.57-.12-.81.35-2.98.11h-1.95l-1.61.12-3.44.34-1.04.12h-1.83l-2.99-.23-3.21-.23-.81-.12-.57-.11-.57-.35-.92-.57-.69-.46-.46-.23-.69-.23-.69-.11-3.21-.35h-1.04l-1.37-.11h-3.68l-5.16-.46-2.3-.12-1.38-.11-3.56-.12-2.87-.22h-.46v7.8l.12 7.47v12.39z" stroke-linejoin="round"/></defs><use xlink:href="#b" fill="#9dc8ca" stroke="#9dd7f0" stroke-width="5.76"/><defs><path id="c" d="M1818.21 2667.67l-.92.11-.69-.11-1.6-2.53-.58-1.83-.23-1.38v-1.15l.46-.69.23-.46-.11-1.49-.81-5.17-.69-1.26-1.37-1.15-3.79-1.72-4.94-1.95-1.84-.58-1.14-.46-1.73-1.6-3.55-4.6-1.5-1.14-5.16-1.61-1.27-.92-3.78-3.67-2.3-2.87-3.44-5.52-12.06-15.61-1.49-.8-1.38-1.27-1.03-1.83-.69-3.22v-.34l-3.67-1.04-4.6-1.26-.57-.11-2.41-.69-2.99-.81-.8-.23-1.61-.57-1.72-.8-1.49-.58-1.72-.8-1.72-.92-1.27-.8-1.03-.58-1.03-.8-1.96-1.26-1.14-1.04-1.27-.92-1.14-1.03-1.04-.8-1.6-1.38-.46-.57-1.96-1.73-4.01-3.79-1.5-1.37-2.18-1.73-3.44-2.29-2.18-1.26-1.72-.92-1.73-.92-2.06-.92-3.1-1.15-4.48-1.72-2.87-1.03-4.59-1.84-1.26-.46-5.97-2.3-1.96-.91-2.06-1.04-1.15-.57-2.3-1.49-1.49-1.04-2.06-1.49-6.09-6.09-1.26-1.37-2.53-2.41-3.21-2.3-2.53-1.61-1.6-.69-1.73-.92-3.33-1.03-4.47-.8-8.84.23-5.28-.12-6.55.12-10.56.69-3.67.11-7.69.35-.46-.12.11 4.94-.11 6.66-.12 8.95v3.33l-.11 3.22v1.95h3.33v1.83l-.12 7.12v.58l.12 5.05v1.38l6.08.11 9.41.46 10.57.57.68.12 1.04.46.69.46.57.46 6.77.11 1.27 6.09 2.41 13.55 1.38 7.57 4.47 20.78 4.14 18.26 1.72 8.61 1.72 8.04 1.72 8.84.35 1.95.45 2.18-.45-.46-.92-1.03-2.76-2.64-1.26-1.38-2.76-2.87-2.29-2.3-1.49-1.6-2.07-1.38-8.61-8.5-1.26-1.03-1.27-1.38-3.1-2.98-1.95-1.73-1.49-1.26-.34-.34-.92-.69-1.04-.58-.57-.34-.69-.35-.92-.57-.8-.34-.8-.23-1.04-.46-.34-.12-1.15-.34-.69-.23-.92-.23-.8-.12-.92-.11-.92-.23h-.92l-1.03-.12-4.82-.11-2.41-.12-1.95-.11-.81.34-.34.23-.35.12-.23.23-.34.23-.34.34-.35.23-.23.35-.11.34-.23.23-.46.69-.69 10.33-.12 1.84h-1.03v-8.73l-.11-2.18v-5.28l.23-14.92v-7.93l.11-.8v-3.22l-1.84-1.72-6.08-6.2-20.55-21.01-1.61-1.49-4.93-4.94-2.53-2.64-20.43-22.27 19.17 3.44-.12-1.03v-.92l-1.6-16.99-4.94-55.69 7.58.35 1.37.11.23-.11.46-.12.46-.11.46-.34 2.07-2.07.69-.69.23-.23.34-.11h.35l3.78.11h1.27l.57-.11.69-.12.57-.34.58-.23.92-.58 1.49-1.03 2.98-1.61.35-.11h.57l.8-.12.92-.11.58-.23.34-.35.35-.23.11-.46 11.37.35h5.28l.11-13.78v-.57l.23-17.68.12-15.62.11-9.53.12-11.36.11-4.25v-6.55l.12-9.07.11-18.37.11-1.37v-7.24l.12-4.02v-8.72l.11-4.71v-.92l.23-17.45.12-11.83.23-17.22-.12-5.16v-8.96l.12-1.38v-1.03l-1.15-.69-2.07-1.61-4.01-3.44-.58-.57-.57-.58-1.04-1.15-1.83-2.06-2.18-2.41-3.22-3.56-11.25-12.63-.46-.46-1.37-1.61-1.73-1.95-2.75-2.99-2.3-2.64-2.87-3.33-.92-1.03-6.2-7-3.21-3.79-1.26-1.5-.81-1.03-.8-1.03-.69-.81-2.64-3.67-.69-.8-1.61-2.18-5.85-8.27-2.41-3.56.69-.8.57-.58.58-.69.34-1.03.69-.92.34-.46.46-.8.58-1.26.57-1.27.46-.8.57-1.26 1.96-5.17.68-1.61.58-1.61.34-1.03.81-1.95 2.87-7.12 3.1-7.81 1.72-4.13 1.26-3.21.46-1.27 2.41-5.85.57-1.27.92-2.64 4.37-10.79.57-1.38 1.26-3.1.81-2.06.57-1.38 1.26-2.87 1.04-2.64 1.6-3.45 1.73-3.9.91-1.72.92-1.84 1.04-1.95 1.03-2.07 1.72-2.87 1.38-2.52 1.72-2.87 4.36-7.58 1.84-2.99.11-.23 1.38-2.64.46-.8.57-1.15.58-1.15.23-.69.23-.46.69-1.6.69-2.07.68-2.07.46-2.29.46-2.3.23-2.52.23-2.64.12-3.22.11-1.61v-2.29l.12-3.56.23-3.45.23-3.44.11-.46.34-2.99.12-.22.23-1.96.57-2.52.81-3.56.57-2.18.35-1.27.34-1.49 1.49-4.48.81-2.41.34-.8.11-.35.69-2.06.69-1.95 1.15-2.99 5.05-14.81.23-.57 1.95-5.97.46-1.61 1.15-3.45.34-.69.23-.68 1.27-3.56 1.26-3.68.92-2.87.34-.92.46-1.49.35-1.49v-.12l.23-.8.23-1.15.11-.46.69-2.98.57-3.33.46-3.79.35-2.41.11-1.49 11.02 1.6 3.56.46 8.27 1.04.69.11 1.72.35.8.11h.46l.46-.11.34-.23.23-.35.12-.34v-2.53l2.52 1.03 10.11 4.14 6.54-.81-.11 3.22 6.42-2.53 16.65-5.62 4.25-1.84 3.56-1.49 2.06-1.15 4.25-2.3 5.17-2.87 1.26-.69-1.26-9.64-1.61-11.94-2.3-16.53-.46-3.45-1.14-8.15-1.04-8.38-.69-5.17-2.06-15.27-.23-1.61-10.45-33.98-2.87-7 1.03-24.46.58-42.25-.92-8.04-2.18-.8-2.41-.8-1.15-.46-1.03-.23-1.38-.35-2.64-.46-3.22-.34-5.62-.23-4.13-.23-1.84.11-.69-.11-3.21-.11-5.51-.23-2.53-.12-6.43-.23h-1.38l-1.95-.11-5.74-.23h-1.26l-1.03-.12-2.3-.23-1.49-.11-.92-5.17-.46-2.75-.92-4.48-.46-2.64-2.75-14.13-2.64-13.43-1.04-5.39-.11-.69-2.41-11.83-.46-2.3-.23-1.49-2.41-11.71-2.76-14.24-.46-2.64-.46-1.6-.11-.81-1.61-8.72-.46-2.18-.23-1.61-1.26-6.66-1.49-8.96-.69-4.82-1.15-7.58-2.29-19.63-.23-1.95-1.61-14.47-.69-5.85-.23-1.61-.34-3.56-.46-3.67-.23-2.76-.35-3.1-.92-6.89-.22-2.64-.69-6.08-2.07-17.8-.69-5.17-.34-3.21-.12-1.72-.57-4.25-2.3-21.24-.57-3.79-.35-4.13-.23-2.18-.34-2.19v-.34l-.12-.46v-.57l-.11-.58-.46-3.44-.57-5.74-.35-2.64-.34-2.99-.58-5.28-.23-1.72-.34-2.99-.23-1.6-1.26-11.49-.23-2.64-.23-2.52-.23-2.99-.12-2.06-.23-5.17v-11.14l.12-1.6v-1.5l.34-6.2.46-5.74.46-3.9.12-1.38.69-5.05.68-4.71 1.84-9.53 1.15-5.51 1.38-6.66 1.6-7.46 1.27-5.74.92-4.48.91-4.02v-.92l.58-2.87.34-1.72.23-1.15.46-2.87.69-4.47 1.49-9.88.69-4.48.23-1.72 1.15-7.81.46-2.75.57-3.67.46-2.88.46-3.55 1.26-8.04 1.27-8.04.34-2.29.23-2.19.57-3.9.46-3.79.35-3.9.23-3.91.11-2.87v-5.51l-.11-1.95v-1.84l-.23-2.98-.23-2.87-.12-2.3-.46-3.33-.57-5.39-.34-3.91-.23-1.95-.12-2.18-.23-2.53-.11-2.75-.35-5.97-.46-8.5-.69-11.25-.8-11.14-.92-17.68v-.69l-.11-9.87-.12-5.86-.11-2.52-.12-4.13-.46-6.32-.34-7.23-.23-2.41-.23-3.1-.34-4.14-.46-5.62-.81-7.12-.46-4.59-.34-3.45-.23-1.83-.23-2.65-.46-5.28-.34-2.87-.23-2.29-.35-2.76-.11-1.03-1.04-9.07-1.26-11.6-1.03-10.33-1.15-11.02-.92-9.76-.57-4.71-1.15-11.02-1.61-15.85-.11-1.14-.81-7.35-.45-4.59-.58-5.52-.8-7-.69-6.54-.58-4.83 1.04-.23.57-.23.58-.22 1.49-.69 7.58-3.79 2.75-1.38 8.95-4.59 2.53-1.15 2.18-1.03 2.53-1.27 2.41-1.26 1.38-.57 2.52-.69 2.18-.69.69-.12 6.2-1.72 1.95-.57 2.99-.58 4.24-.8 3.56-.69.92-.23 1.04-.34.91-.58 1.84-1.38 2.64-1.72 1.03-.8 3.68-2.76 1.72-1.37 1.49-1.04 1.95-1.49 6.89-4.94 1.38-1.15.92-.8.57-.57.81-.69 1.49-1.72.69-.81 1.26-1.49 2.64-3.1 4.71-4.36.69-.58.8-.8.8-.92.58-.8.46-.81.45-1.26.46-1.15.58-1.72 1.15-2.99 1.6-4.01.69-1.84.46-1.72.23-.81v-.57l.12-.8v-1.27l-.35-5.85-.34-5.17-.12-1.72.12-1.61.46-3.79.46-2.75.22-.92.23-.69.23-.57.12-.35.11-.23.23-.23.23-.23.23-.23.23-.23 1.26-.69 1.96-.8 2.29-.92 2.18-.8 1.73-.69 3.67-1.49 5.39-2.18 2.19-.69 1.37-.46 1.5-.46 1.72-.35 1.15-.11 2.18.34 1.72.23 4.02.35 4.13-.12 2.76-.11 2.41-.35 1.6-.46.81-.34 1.95-1.03.57-.35.58-.34 1.6-1.38 5.06-4.25 4.7-3.33 3.1-2.18 3.45-2.3 2.18-1.37.34-.23 2.07-1.5 2.75-1.83 6.2-4.25 4.25-2.87 3.33-2.18.92-.46 1.03-.58 2.99-1.37 2.18-.92 7.11-3.45v-.11l1.27-.58 2.64-1.49.69-.34 8.49-4.94 1.95-1.15.58-.34.57-.35.57-.34.35 1.15.34.69 2.76 3.79 2.07 1.95 3.32 2.64 1.27 1.49.8.69 4.25 3.56 2.64 2.52.23.12 3.21 1.84 1.95 1.37 1.84.46h1.15l1.49.58 1.15.8.92.46 2.06 2.07 1.38 1.49 3.33 3.21 2.3 1.15.34.46.23.58-.11 2.52.11.35.92.45 2.41.58 1.26.57.46.81 1.04 2.41.34 1.83 2.53 8.62 1.83 4.01.81 2.42 1.14 2.75 1.61 6.77.69 1.73 2.99 10.33 2.75 6.08.69 1.04.23.92-.12 1.37-1.49 2.53-2.87 4.25-1.26 1.72-1.03 1.15-1.38.8-5.74.81-5.17 1.14-4.93 1.84-.69.58-.46.68-2.07 6.09-1.03 2.41-1.49 2.64-1.15 2.18-.81 2.76-.68 2.75 4.24.23 2.87.23 3.91-.69 4.59-1.49 1.95-1.03 1.49-1.15.81-.46 1.03-.69 1.84-.23 2.18-.23 3.67-.11 2.76.23 3.21-.81 2.53-.11 3.9.69 2.41-.69 1.61-1.15 2.87-2.87 1.72-1.95 1.49-.92 12.97 50.17 3.56 13.67 1.72 6.77 11.71 45.24-1.95 26.17-.8 10.8-34.44 71.18 1.03-.23 1.84-.12h1.95l2.53.23 1.72.12 8.03.34 8.16.58 2.18.11.8.12.34.11-.68 4.37-.69 3.67-1.04 2.75-.34.81-.46.8-1.38 1.84-1.26 1.15-1.38 1.15-3.79 2.29-1.49 1.03-2.64 1.61-2.98 1.95-3.45 2.64-1.15 1.15-.8 1.04-.69 1.26-.46.92-.34.92-.12 1.14-.11 4.25v4.36l.11 6.09.12 4.13.11 1.96.12 4.82v.46l-.12.8-.23.57-.23.69.81.35 1.26.69 1.26.8 3.22 1.61 2.52 1.26.81.34 1.72.69 1.61.46 1.72.46 1.72.23 1.26.12 1.27.11 1.72.12 1.72.11 3.56.12 3.56.11h.8l6.31.35 19.18.68 7.92.35 8.03.34-1.49-2.18-.23-.46-.11-.23 3.44-7.35.46-2.75.11-14.58v-12.4l-.23-.69-.57-.46-.57-.11-1.5-.12h-1.37l-.58-3.67-.23-2.64.92-40.88 1.61-75.43 39.15 2.18 3.33 149.37v4.6l-.12 1.83-.11 1.84-.12 1.03-.11 3.45v1.6l10.21.46 2.18.12 6.55.46 8.61.57 7.23.46 4.82.23 5.97.35 4.71.23 7.35.34h1.03l8.38.34 8.04.23 5.39.23 4.02.35 4.25.23 8.84.46 8.72.57 1.72 13.09.46 9.64.46 6.66.81 3.68 1.72 2.64.11.23 1.84 1.37 4.71 2.87-.69 2.19-.58 1.14-.57.58-.58.23-1.03-.23-.8.46-.81 1.61-.11.8.46 1.38 1.84 2.98.45 1.15.23 2.98.12 2.65-.46 4.47-.46 1.04-.8 2.41-1.15 1.26-2.3 2.3-3.33 5.28-1.37 2.98-.69 1.96-.69 9.07-.58 2.87-.91 1.83-1.38 1.27-2.87 1.6-3.33 1.04-1.26 1.72-.81 3.21-.8.81-.8.69-.81.34-3.9 1.15-2.53.92-2.75.69-2.53.23-4.25-.58-4.82-1.38 4.25 11.03 1.38 2.87 7.58 12.05 8.84 11.37 5.74 5.97 4.13 3.56 2.41.69 1.26-.35 1.61-.69 4.25-4.25 2.41-3.67 4.7-10.33 2.53-5.17 14.58-17.11 2.75-1.6 3.45-1.38 3.67-.46 8.27.46 4.02-1.38 2.75-.69 2.64-.69 2.99-.57 5.74-.92 5.39-.11 4.13.57 3.33.69 3.45 1.03 3.67 1.38 4.13 1.95 3.68 1.84 1.72 1.61 1.03.91 1.27 1.04 1.14.92.92.8 1.04.69 1.03.8.92.69.8.58.92.57.92.69 1.03.57 1.03.58.92.57.92.35.69.34.46.34.57.35.69.46 1.03.8.69.81.46.68.69.69.81 1.27.45.68.46.92.23.81.35 1.03.34 1.03.12 1.15.23 1.38-.23 1.49-.35 1.26-.23.92-.23.69-.46.92-.68.8-.35.58-.57.46-.35.46-.57.46-.46.34-.8.57-.92.46-.81.35-3.21 1.72-1.61.8-1.61 1.04-.91.92-.69.68-1.27 1.38-.8 1.27-1.38 3.78-1.03 3.22-3.33 9.64.69 6.78 2.3 4.13 2.41 2.53 7.92 2.29 20.32-3.21 3.9 1.95 4.36 3.9 4.02 7.35 5.28 14.47 4.02 7.92 4.13 3.9 30.08 11.03 7 3.33 4.37 5.28 2.06 11.25v6.43l-5.74 11.13-2.64 7.93.92 8.61 9.87 13.89 6.66 6.66 4.13 6.08 1.04 7.58-1.38 11.6.8 6.43 1.5 3.1 2.87 3.21 5.85 1.95 3.33-.34 2.3-1.61 2.75-7.12 2.53-17.79 3.21-8.96.58-4.82 3.09-5.97 4.25-1.03 14.12 13.09 9.19 3.55 7.34-.68 9.3-4.14 8.61-2.87 5.17-.69 9.76 2.53 10.79 5.51 4.93 4.36 3.22 2.99 2.87 4.25 5.62 5.97 15.96 13.89 8.15 11.14 4.82 8.38 7.58 9.18 1.03 4.02-.57 3.21-4.36 4.02-9.19 4.94-17.45 5.86-12.51 10.1-16.07 8.27-5.17 1.26-10.44 4.82-1.61 2.07-.69 5.62 1.95 11.94 2.18 3.91 4.37 4.13 19.4 11.94 23.19 15.73 5.16 6.2 4.48 23.54 2.87 9.99 1.61 2.64 3.33 2.75 3.21.92 4.13-.11 16.65-8.39 4.94-.46 2.06 1.84 5.97 8.84 5.05 5.05 4.59 2.19 8.96.68v1.96l-.12.57-.23.46-.22.23-.69.8-1.5 1.72-3.78 4.48-.46.58-.58.8-1.49 2.87-2.3 4.59-.91 1.73-.23.68-.46 1.04-.23.8-1.15 4.36-1.03 4.37-1.27 4.47-1.14 4.48-1.04 4.48-1.26 4.48-.12.46-.34 1.26-.23.92-.11.92.11.92.12 1.37.45 1.61 1.5 5.05 2.75 9.42.92 3.56.8 3.21.58 2.99.11 1.14.92 4.6 6.66.11 2.87.12 5.85.46 7.7.68 6.42.46 8.16.58.91-.92.46-.46 1.73-1.26 2.64-1.61 7.23-4.82 1.84-1.27 4.01-2.75 4.02-2.76 1.61-1.14 2.29-1.27 1.27-.57 1.03-.35 1.03-.46.92-.22.81-.23.68-.12 1.04-.11 5.05-.81 2.41-.23 4.13-.8h.35l.57-.12.69-.23 1.15-.45 1.49-.69 2.87-1.15.57-.12.46-.11h.81l.23.23.23.23.34.46.34.34.35.58.57 1.14.58.92.23.58.23.34.57.69v.11h.12l.34.46 1.95 2.41 1.26 1.61.46.69.81.92 1.6 2.3 1.27 1.6 1.14 1.27.92.8.23.23.46.8.23 1.04 3.1-.35h.23l8.27-.69 2.87-.23 2.52-.46 3.79-.68 11.6-2.3 9.06-1.61 4.6-.92 6.08-1.15 9.99-1.72 5.62-1.03 4.37-.8 8.84-1.84.68-.12.81-.11h2.41l1.84.11 1.49.12 1.84.23 1.14.23 1.27.11.34.12 4.82.8 1.15.23.8.12 2.87.57 1.61.34 2.87.46 2.07.35.34.11 4.25.69 1.95.46 2.18.35.92.22 1.03.23 5.74 1.27 3.79.92 1.38.23 2.64.57 1.95.46.46.11.46.12 4.02.8h.11l2.3.46 1.49.35 1.15.11.46.12 1.03.23.81.11.68.23 2.53.46.8.11.58.12 1.26.23 2.41.46.58.11 1.49.35 3.33.57 1.37.35 4.14.8 2.75.57 2.87.58 1.61.34 2.07.46 2.64.46 1.49.34 2.29.46 2.87.46 1.61.23 2.41.23h.12l1.03.12 2.53.11 6.88.46.46.12.46.11h.35l1.49.46 1.38.46 1.26.57 1.26.69.35.23.92.69 1.6 1.26 7.12 6.09 1.84 1.49 4.13 3.45 1.95 1.49 1.72 1.49-1.03 4.94-.11.69-.35 2.87-.11 2.41v9.07l-.12 1.72v1.03l-.11 1.38-.12.92-.23 1.49-1.15 4.14v.11l-.22 1.72-.46 2.76-.23 3.79-.92 6.08-.35 2.64-.11 1.15.11 1.03.12 1.27.34 1.72 1.15 5.4 1.15 5.85.46 3.22v.91l-.12.69-.23 1.15-.57 2.18-.57 2.3-.69.23-8.38 1.95-4.14.92-3.56.69-1.37.46-4.82 1.14-4.94 1.27-1.61.46-.92.23-1.37.23.45 7 .46 8.15v.92l-.11 1.03-.12.81-.23 1.26-.22 1.61v.92l.11.91.11.81.35.69.8 1.15 1.61 2.18 2.98 3.67 1.27 1.72 1.03 1.72 1.38 2.53.92 1.49 1.6 2.07 1.84 2.3 2.76 2.52.91.92.69.92.69.92.46.92.46 1.14.34 1.5.23 1.49.12 2.3.11 1.6-.11 1.04v1.14l-.35 1.15-.45 2.07-.58 1.72-1.03 1.95-.92 1.95-.34.81-.35.92-1.15 4.25-2.06 9.18-.69 4.13-.46 2.53-.35 1.49-.34 1.49-.34.92-.46.92-.46.81-1.04 1.49-.46.57-.57.92-.46.8-.46.81-.23.92-.11.11-.35 1.38-1.03 4.94-.57 2.64-.23 1.26-.23 1.15-.12 1.49v3.1l.23 8.04.58 6.77.46 3.56.22 2.3.23 2.41v5.62l.12 1.38.23 1.61.34 1.72.35 1.49.46 1.38.34.92.58.92.57.8.69.69 2.98 2.53 2.3 2.64.92.92.69.8.46.69.45.92.46 1.14.23 1.04.35 1.61.34 2.98.12 2.76.11 2.75-.11 2.07v1.03l-.12 1.03-.23.81-.34 1.26-.46 1.84-.12.57-.23 1.04-.23 2.18-.22 1.72-.12 1.03v1.95l-.11 2.76.11 1.26v1.15l.23 1.03.23.92.34 1.38.35 1.26.46 1.15 1.49 4.13 1.15 2.76.57 1.38 2.87 5.28 2.64 5.05 1.5 2.87.45.92.23.46.23.8.23.81.23 1.14.12 1.84v3.56l-.12 2.07v4.82l-.11 5.51.11 7.46-.11 5.63v7.12l-.23 6.77.11 5.63.23 7.23v2.76l-.34 1.95-.12.8-.23.81-.23.57-.34.69-.57.69-.58.8-.23.46-.23.46-.23.57-.34 1.04-.12.46v2.18l.23 1.95.46 3.33.23 1.49.35 1.26 1.49 4.48.92 2.76.8 1.95 1.61 2.98 1.95 3.68 2.07 4.25 1.83 4.01.81 1.73.57 1.83 1.15 4.02.8 2.64.81 2.64.68 4.37.23 1.37.12.58-.12.34v.35l-.11.11v.12l-.12.23-.22.46-.23.46-1.61 1.6-.81.92-1.03 1.26-.34.58-1.95 2.52-1.96 2.64-2.98 3.91-.35.34-.34.58-.11.34-.12.23v.35l-.23 5.74v1.83l-.23 3.45-.11 1.6v2.53l.23.8.11.58.12.34 2.87 8.84.34.92.34 1.15.35 1.26.23.58.34.92.46.91.35.92 1.6 3.1.69 1.15.58.92.8 1.26 1.15 1.84.46.69.23.57.11.35.12.34v1.26l-.12.58-.23.69-.69 1.6-1.03 2.53-.46 1.03-.57 1.5-.35 1.14-.92 2.41v.12l-2.18 5.51-.11.46-.12.23-.34 1.15-1.72 4.82-.46 1.26-.69 1.95-1.03 2.65-.69 1.72-.58 1.38v.11l-1.14 3.21-4.37-1.95-5.16-2.29-.23-.12-1.38-.57-2.64-1.15-.46-.23-7.23-3.21-1.15-.46-5.63-2.53-3.44-1.61-2.76-1.15-16.07-7.8-3.44-1.84-3.67-1.84-3.56-1.95h-.12l-4.02-2.29-13.31-7.35-4.25-2.41-2.3-1.15-2.52-1.26-1.15-.58-1.49-.46-2.18-.69h-.35l-.34-.11-.69-.12-.81-.11-1.26-.12h-1.03l-1.15-.11h-6.66l-2.41.11h-.69l-2.87.23-2.29.12h-.23l-8.04.69h-.69l-.69.11-2.64.23-10.21.81-2.42.11-1.72.11-5.28.46-1.49.12-2.18.23-5.86.46-1.37.11h-.46l-4.82.46h-.69l-1.73.12-4.47.46-2.18.11-.69.12-4.48.45-6.31.69-1.84.23-.8.12-2.42.23-1.72.23-3.21.23-6.32.69-1.03.11-1.84.12-5.16.57-2.99.34h-.23l-.91.12-1.38.23-.58.11-2.18.35-1.38.23-1.95.23-1.6.23-1.04.23-1.03.11-5.86.92-1.37.23-1.27.23-2.64.34-1.26.12-1.26.23-2.3.23h-.34l-2.53.11-3.44-.11-3.56-.12h-.8l-1.61-.11-2.41-.12-3.79-.23-3.1-.11-1.95-.12-2.07-.11-2.52-.23h-.58l-1.83-.23-5.06-.57-2.41-.35h-.11l-2.53-.34-2.41-.23-2.52-.35-2.53-.34-.8-.12-2.3-.23-2.87-.46-1.84-.34-2.41-.46-1.03-.23h-.46l-1.26-.23-1.72-.34-1.27-.23-.46-.12h-.11l-1.26-.23-1.38-.23-.8-.11-1.04-.12-3.44-.23-2.76-.23h-2.29l-2.18-.11-2.3-.12-2.3-.11h-.46l-1.83-.11-4.59-.23-1.84-.12h-.46l-1.49-.11-2.64-.12h-.46l-2.07-.11h-.23l-2.75-.12h-.69l-2.99-.11-.92-.12-2.29-.11h-.92l-1.49-.12-2.41-.11h-.23l-1.84-.12-10.1-.46h-.81l-3.09-.11-4.37-.23-3.21-.35-1.95-.23-2.3-.22-2.53-.23-2.41-.23-2.29-.23-2.76-.35-1.15-.11h-.45l-.35-.12-2.07-.11-1.26-.12-4.02-.23-5.05-.23h-10.44l-5.63-.11h-8.38l-3.1-.12h-8.95l-2.3-.11h-9.53l-4.36-.12h-4.94l-1.14-.11h-3.33l-1.73-.12h-1.83l-1.73-.11-1.26-.12h-.46l-1.83-.22-1.73-.12-1.83-.23-1.84-.11-1.72-.23-1.72-.23-1.84-.12-.8-.11-2.3-.23-1.95-.23-1.72-.12-1.61-.11-1.26-.12-2.53-.34-1.15-.12-2.75-.23-7.12-.8-5.51-.57-4.71-.46-2.75-.23-4.59-.46-1.96-.23-2.98-.35-1.72-.11-6.2-.69-13.2-1.72-4.71-.69-6.89-.92-6.43-.8-4.7-.35-4.02-.46h-.12l-7.46-1.26-1.15-.11-5.97-.81-2.87-.11-1.03-.12-10.91-1.37-2.75-.23-5.4-.46-4.24-.35-8.5-1.03-3.56-.46-11.36-.92-11.83-1.15-6.77-.92-5.05-.57-12.17-1.15-1.04-.11-11.48-1.04-7.69-.8-4.59-.46-.8-.11-10.56-1.38-1.04-.12-12.51-1.03-6.08-.46-6.09-.57-2.07-.23-6.77-.58h-.46l-2.41-.23-1.15-.11-9.98-.8-.92-.12-6.55-.46-.8-.11-3.67-.23-3.33-.69h-.35l-1.6-.35-9.07-2.18-1.15-.23-1.15-.23-9.3-2.29-2.75-.69-5.86-1.5-3.79-1.03-7.11-1.84-4.02-1.03-1.15-.34-2.87-.35-3.22-.34-5.16-.69-4.02-.35-4.25-.45-.57-.12-11.94-1.49-.57-.12-1.5-.23-2.18-.23-1.15-.23-2.18-.23-.92-.22-.34.11-2.41-.23-2.64-.46-2.41-.23-.69-.11-2.99-.35-2.06-.23-3.33-.34-6.32-.58-5.05-.8-2.29-.34-1.84-.23-.8-.12-2.76-.57v2.64l.12 3.79.46 3.44.46 1.61v.46l1.03 3.67.69 2.07 1.03 2.18 1.15 2.53 3.44 6.54.58 1.38 1.03 2.29.57 1.84.46 1.26.12.35.46 2.18.46 1.84.23 1.83.23 2.07.11 1.38.34 1.72.23.69.35.57.34.58.23.11.81.58.8.23 1.95.46 1.72.34.69.11 1.61.58 1.15.46 1.26.57 2.87.58 1.72.46 3.1.8 4.48 1.03 1.49.35 4.71 1.14 1.38.23 1.37.35 5.28 1.26 3.33.81 6.43 1.49 1.26.34 2.99.69-.34 1.38-.12 1.03-.23 2.18-5.28 42.03-20.55.45v1.84l1.84 59.13 15.38.46-6.43 1.72-15.61 5.86-.46-5.28 2.76-58.9-2.42-11.83-.23-.46.92-.23-1.03-6.2-.11-.92v-.8l.91-8.27-.91-.23-.81-.91-1.72-.35-1.03-.11h-1.04l-.69-.12-.57.12-.8.11-.46.23-.58.34-.69.35-1.37.92-1.5.8.35.69.23.57 2.29 5.17.69 2.3.69 2.06.35 1.04.57 2.06.35 1.84.11.92.46 3.67.23 1.73v1.6l.11.58v5.62l-.11 1.61v13.2l-.12 4.94.12 1.03v8.27l.23 3.1.34 4.82.58 4.59v.12l.46 4.82.46 4.82.57 4.14v.69l.34 4.59v2.52l-.11 2.07-.12 1.72-.46 2.53-.11.34-.11 1.04-.35 1.15-.46 1.49-.46 1.03-.46 1.15-.8 1.72-1.72 2.87-1.04 1.49-1.14 1.5-1.27 1.26-2.29 2.18-5.51 5.05-.69.69-2.53 2.41-1.15 1.15-1.95 2.07-3.56 3.56-1.95 1.95-5.51 5.85-1.38 1.38-4.24 4.59-3.56 3.79 1.38 1.73 1.14 1.26 1.04 1.15 1.49 1.83 2.98 3.22-.91 1.03-37.66 36.05-7.81 4.14-7.46 12.97-.92-1.15-2.29-2.52-1.49-1.84-2.64 2.75-.92.92-1.15 1.15-1.26 1.15-1.5 1.26-1.6 1.15-1.15.92-.8.57-1.04.81-.69.46-.92.57-1.14.69-1.27.69-1.03.69-1.03.57-1.38.57-2.53 1.15-3.44 1.61-8.04 3.56-2.87 1.15-2.64 1.15-3.21 1.49-3.33 1.38-1.38.68-1.72.69-1.95.92.69 1.15 1.83 3.44 1.84 3.33.92 1.38 1.95 3.56 1.95 3.33 2.07 3.44 2.53 4.48-1.04.35-.69.34-.69.35-.57.45-.69.58-.46.46-.46.57-.46.46-.34.58-.23.68-.34.81-.23.57-.23.69-.23 1.03-.58 2.3-2.41 11.37-.8 3.56-1.03 4.24-1.15 4.37-.69 2.98-.58 2.64-.57 2.76z" stroke-linejoin="round"/></defs><use xlink:href="#c" fill="#6bacaf" stroke="#6bb4d2" stroke-width="5.76"/><defs><path id="d" d="M1778.72 2252.05l2.75.57 4.6.69 8.61 1.61 2.75.46 4.48.8 2.18.34v-12.39l-.12-7.47v-7.8h.46l2.87.22 3.56.12 1.38.11 2.3.12 5.16.46h3.68l1.37.11h1.04l3.21.35.69.11.69.23.46.23.69.46.92.57.57.35.57.11.81.12 3.21.23 2.99.23h1.83l1.04-.12 3.44-.34 1.61-.12h1.95l2.98-.11.81-.35.57.12 2.3.23 3.56.23 3.1.23 2.75.34 7.12.35h3.67l1.27-.23 1.83.34 1.26.23 1.96.92.69-.11.45-.12.35-.23.23-.11.69-.23v-.69l2.06.92-.91.34.57.46 2.18.11 3.21.23 8.5.58.46-.12h1.95l1.61-.23 4.13-.23 3.9.46 1.5.92 2.75-.23 2.3-.92 2.52-.91.35-.81 1.26-.46-.34-1.15-1.61-5.05-.8-2.64-.81-2.41-4.02-12.51-.8-2.64-1.49-4.37-1.38-4.36-1.95-5.74-.23-1.15-.57-1.95-.69-3.1-.23-.69-.12-.92-.11-.23-.23-1.15-.35-2.98-.34-3.33-.23-3.67-.23-4.6-.23-4.24-9.64-.35-13.44-.92-.68-4.71h-2.99l-1.49-.11-.69-.23-.46-.34-.34-.35-.46-.92-.23-.46-.12-.91-.23-1.5-.11-1.72-.23-1.03v-.12l-.23-.92-.46-1.14-.23-.35-.23-.46-.34-.34-.58-.58-.57-.57-.46-.34-1.03-.69-.92-.81-.35-.34-.23-.46-.23-.46-.11-.57-.23-1.15-.12-1.27-.11-1.03v-.8l.23-.69.34-.69 1.04-1.61.23-.46-10.68-.92h-.8l-.46-4.82.34-.8-.11-1.26h-.92l-6.66.34-5.97.34-9.64.58-.23.11-3.1.12h-3.22l-2.75-.12-4.59-.34-.81-.12-7-.68-7-.46-1.27-.23-4.47-.58-3.91-.8-5.62-.8-3.45-.35-2.52-.34-4.59-.46h-1.84l-4.48-.23-9.98-.69-1.61-.12-.12 5.63-.34 15.04-.12 5.86v5.39l-.45.81v2.87l-.12 6.54v8.38l-.11 6.55v8.72l-.12 2.76.12 2.29-.12 3.45v8.72l-.11 14.7-.12 11.02-.11 4.48v13.55l1.03.23 2.64.46 4.94.68 1.14.23.35.12 4.71.92 1.03.23z" stroke-linejoin="round"/></defs><use xlink:href="#d" fill="#6bacaf" stroke="#6bb4d2" stroke-width="5.76"/><defs><path id="e" d="M1561.63 2579.72l-26.52-26.86-18.48-19.29-45.35-46.16-15.38-15.5-10.33-10.33-4.36-4.36-.46-.58-3.45-4.59-11.48-11.48-1.03-1.03-11.37-11.37-43.39-43.86-54.65-54.99-1.49-1.61-6.89-7-26.29-26.41-2.41-2.41.12 1.72-4.36-4.48-4.71-4.82-2.41-1.72-2.64-2.18-1.72-1.15-1.73-1.15-1.72-.69-1.61-.69-1.72-.46-1.83-.34-1.73-.23-1.95-.12h-5.74l-1.61-.23-1.6-.34-1.61-.46-1.49-.57-1.49-.69-1.38-.81-1.38-.8-1.15-.92-1.15-.92-1.72-1.95-.57-.69-.23-.46-.23-.34-.23-.46-.12-.34v-.35l-.11-.34v-.69l.11-.35.12-.46.23-.46.34-.23.35-.22.69-.35 1.6-.8 2.07-.92 1.38-.58.69-.23.46-.22.57-.35 1.72-1.15-1.95.81-3.21 1.37-1.96.81-3.67 1.72-2.18 1.15-2.41 1.38-1.61.91-2.06 1.27-.81.57-.23.23-.46 1.15-3.21 2.07-1.38.8-3.1 1.95-.8.46-.69.46-1.38.92-3.79 2.75-.92.58-.8.57-.69.46-1.15.8-1.03.69-.92.69-.69.58-.8.57-1.49.92-.58.46-.11.11-.92.46-2.18 1.27-.8.34-1.73.8-2.18.92-2.64 1.04-2.06.68-2.19.58-3.21.69-1.49.23-.23-3.68-.12-.92v-1.03l-.11-1.03-.23-1.15-.12-1.15-.23-.8-.11-.69-.23-.69-.23-1.03-.34-.92-.69-2.3-.92-2.64-1.61-4.94-1.15-2.87-.69-2.87-.68-3.44-.46-3.56-.12-2.18v-3.1l.12-2.87v-6.2l.23-7.92.11-6.32-.11-5.05-.23-6.2-.46-5.4-.58-4.82-.11-1.49-.12-.92v-2.41l.23-1.26v-.23l.23-1.15.35-1.03.46-1.04.46-.92.57-.68v-.23l.69-.81 2.98-3.44-1.49-1.61-4.82-4.71-2.64 3.22-1.15 1.26-.57-.46-.81-.8-.46-.46-.8-.69-.46-.35-.57-.22-.58-.23-.57.11h-.69l-.69.23-.46.23-.11.23-.12.46v.57l.12 3.45.57.57.23.35.12.34v.8l-.12 1.38-.11 2.41-1.38 18.37-5.74 26.64 1.95 28.93 8.5 24.23-2.53.46-7.46 1.26-.58.11h-.46l-7.57 1.38-1.38.23-6.2 1.03-3.9.69-2.99.46-1.14.23-1.84.35-5.05.8-4.48.8-1.49.23-1.27.23-1.72.35-5.51.92-1.83.34-.81.12-4.48.68-1.14.23-.58-2.41-.34-1.26-.35-.92-.23-.8-.45-.81-.58-.8-.69-.8-.34-.23-.35-.35-.46-.23-.68-.34-1.5-1.03-.57-.23-.46-.35-.69-.46-.69-.57-.69-3.22-.69-.11-12.74.69-5.39.23-2.87-47.99-2.53-40.99-21.35 1.95v1.26l-.12 1.27-.23.8-.34.8-.46.81-.8 1.03-.46.46-.12.11-.57.23-1.84.92-.57.46-.46.58-.46.57-.35.69-1.49 2.98-6.66-3.56-2.06-1.14-3.91-2.19-5.51-3.21-4.13-2.3-.92-.57-.11-.92v-.8l24.79-1.61.35-18.49 6.66 2.65.11-4.48.12-5.97v-2.3h-5.97l-.81-.11.46-17.68-16.53-.92-2.64-.12h-2.18l.23-11.13 1.61-32.96 2.41-7.23 2.06-.23-.11-12.17 4.25.23.23-7.81-.46-1.37-7.92-16.19.23-1.95-.69-1.15.57-1.61-.11-5.74v-1.84l-.12-2.06-.34.8-.46 1.49-.12.12-.34 1.6v1.61l-.46 2.99-1.38 1.6-2.41 1.73-2.07-.12-1.83-.69-1.27-.34-1.14.46-.81 1.49.12 4.25.34 3.67-1.38-1.95-1.6-1.95-1.72-2.18-.58-.46-3.21-4.37-1.5-1.83-2.29-3.22-2.07-2.64-2.64-2.98-3.21-2.87-1.95-1.84-1.73-1.38-3.56-2.87-3.44-2.87-2.52-2.52-.12.8-.23.92-1.38 4.59-.34 1.38-.58 1.72-.11.23-.57 1.61-.58 1.15-.11.45-.12.35-.46 1.72-.8 3.79-.12.34-1.26.23-2.52-2.52-.46-1.84 1.03-5.62 1.26-6.43 1.95-4.48-2.06-4.36-.69-.58-.46-.23-1.61 1.95-4.93 6.2v.58l-1.04 8.26-.11.81-.69 3.21-1.84 8.61-3.56 4.37-.8.91-4.82 4.37-4.94 5.62-.57-.11-1.49-1.03-2.76-2.88-2.87-2.64-.46-.91-.11-1.5.23-2.52-1.84-.58-17.33-4.59-1.04-.11h-1.03l-.8.23-.69.57-3.33 3.56-1.04 1.03-.57.46-.92.58H899l-1.26-.35-2.41-.8-5.17-2.41-4.59-2.07-.34-7.58v-2.75l-.12-.23v-.81l-.46-13.32h-2.41l-4.93.35-6.66-.57-9.99-.12-.23-10.56h-7.92l-.12-9.99-1.83.11h-.35l-2.64.12h-2.18l-2.07-.12-2.18-.34-2.18-.23-1.61-.11-3.21-.46-5.28-.69-12.86-1.5-11.36-1.14-1.5-.23-4.7-.35-1.95-.11-.35 1.15-1.84 8.72-.57 2.3 5.05 4.48-.57 7.46-.81 4.82.23.34.12.69v1.04l-.23 23.76-23.76 1.15 1.14-4.71-4.24-1.03.57-27.78v-6.66l-.12-7.01v-10.67H771l-6.2-.35-4.13-.23-2.41-.11-5.28-.35-1.96-.23-1.95-.11-5.05-.23-3.21-.12-2.64.12-2.18.11-2.07.23-1.95.46-1.95.58-1.5.57-2.06.8-1.49.58-1.27.57-1.15.46-1.95.35-1.49.11-2.18.23h-1.38l-1.38-.11-1.72-.12-6.31-1.15-.23 1.27-11.48.91-84.84 12.17-4.25.81-1.83.11-89.55 16.65-95.63 17.57-95.51 17.56-97.24 17.8-56.94-125.61 6.2.12h1.38l3.21.11.81-.11.34.11 3.1.12h3.44l1.15.11h3.1l6.55.12h1.37l2.07.11h.57v-2.64l.12-1.61.46-7.11v-1.04l.23-1.26.34-1.38 1.61-6.66-1.72-.69-1.38-.57-.69-.23-.8-.11-1.15-.23-1.49-.12-5.97-.23-1.27-.23-.57-.11-.57-.12-.58-.23-.57-.34-.46-.35-.35-.23-.57-.46-.34-.45-.35-.58-.46-.69-.57-.69-.69-.68-.46-.46-.46-.23-.46-.23-.34-.23-.35-.12h-.23l-.46-.11-.91-.12h-3.22l-1.49-.11-3.9-.23h-2.3l-1.95-.12-.92.12h-.57l-.58.23-.34.23-.81.46-.57.34-.34.35-.69.8-.46.69-.35.57-.34.58-.12.57-.34 1.15-.34 1.95-1.15 6.54-1.49 8.04-.12.92-.11.69v5.62l-1.84-.23-1.84-.22-1.26-.23-2.99-.58-.68-.23h-.58l-.46-.11v-.58l.81-7.23 1.6-7.35-.34-5.16-5.63-5.4.46-4.48 3.91-4.82.68-2.18 4.83-3.56 9.75-20.21v-5.28l7.47-16.65 3.1-6.89h.68l4.02-1.49 3.1-1.03 1.72-.35 1.27.23 1.26.69 5.51 3.68 1.72.46h.92l.69-.46.92-1.5 1.38-3.79.8-4.36.57-3.44 1.38-10.68.8-10.68-.11-1.38-.46-1.95-3.44-6.89-4.14-10.1-.34-1.95v-1.26l.46-1.61 1.26-2.07 2.87-4.36 4.59-8.04 1.84-3.21 3.21-4.6 2.19-2.18 2.52-2.29 4.71-2.76.8-.46h.81l3.09 1.84 4.83 1.72 3.56 2.07 3.78 1.72.81.11h.92l6.2-2.52 2.52-1.72.46-.58.23-.92v-1.03l-.34-1.26-.92-2.3-1.5-3.1-1.26-2.06-2.18-2.88-.69-.57-.92.35-2.75 2.06-1.15.35h-1.38l-2.52-1.84-.46-.57-.35-1.15-.23-3.33.69-1.49 2.18-2.42 2.3-2.41 1.03-.69 1.27-.23 1.83.12h1.84l1.26-.35.81-.45.57-.69.23-1.15v-1.49l-.69-1.38-1.38-1.26-2.06-2.53-.92-2.18-.35-1.38-.11-1.49.34-1.95 1.04-2.07 8.03-12.86 3.45-4.02.91-1.38.69-1.49.58-1.84 1.26-5.74.46-1.6 1.15-1.84 1.6-1.49 1.73-1.27 2.18-.8 3.56-.57 1.14-.23.69-.46.46-.92.92-2.18.23-1.72v-.92l-.11-.81-.58-.92-1.03-.57-1.03-.34-.58-.46-.34-.58-.12-.46-.23-1.6.12-1.15.69-1.26 1.14-.58 3.22-.34 3.9-.58 1.38-.69 1.61-1.83 1.26-4.25.92-4.82 2.06-5.63 1.84-5.4 1.72-6.08.23-1.49-.11-1.38-2.99-10.56-.11-1.96-.12-2.87.12-1.83 3.1-.46 2.98.34 4.02 2.07 3.33 1.03 1.84-.34 3.9-2.41 2.53-.58 7.23.58 5.16-.46.92-.58.35-.8v-1.95l-.23-1.72-.35-4.48-.34-1.49-.92-2.07-1.49-2.3-.58-1.26v-1.26l.58-1.04 3.56-3.44 4.36-3.56.92-1.26.69-1.84v-4.36l.11-4.25.46-3.79.34-2.3 2.53-9.3.34-3.21-.91-6.32.11-1.83.69-1.95 1.26-2.3 2.07-3.33 4.82-6.2.92-1.72 36.51 59.01v.35l.11.34.23.23.34.11.23.12.69.11 1.95.58-.11.57-.23 1.38 2.53.12h1.83l1.15.11 1.15.11.92.35 1.26.8.92.81 2.64 2.06 1.03 1.04 3.56 2.87 1.03.92 3.1 2.52 3.22 2.53 2.29 1.95 1.61 1.26.35.23.34.23.34.23 1.96 1.03.45.46 2.42 1.15 2.18 1.38 3.67 2.07.8.46 2.64 1.6.23.12 2.53 1.72.34.11.23.12.35.11.69.12.69.11h1.37l2.87-.11h2.87l2.87-.12 2.87-.11h5.74l2.53-.12h9.07l2.87-.11h2.87l2.98.11.46.12.58.11.34.12.46.34.11.12.23.23.12.23.11.23.12.34.11.35.12.57v17.57l.11.8.23.57.12.23.11.23.12.23.23.12.46.46 1.26.8 1.15.69.69.34.68.35.69.11.69.12.69.11 1.95.12h4.82l2.41.11h.81l3.56.12h6.31v-3.22l.12-2.75v-8.04l-.12-2.64.12-2.64v-36.28l-.12-1.15v-18.71l-.11-2.65.11-1.37v-1.5l-.11-5.05v-15.5l-.12-8.38-.11-1.95v-1.26l-.12-.92-.34-1.72-.35-1.73-.46-1.6-.57-1.61-.57-1.26-.35-.69-.69-1.5-.92-1.6-.68-1.04-.23-.46-.35-.45-.23-.35-.57-.8-.69-.81-.8-.91-.35-.35-.8-.69-.81-.8-5.28-4.59-1.95-1.84-.23-.35-.92-.91-.57-.81-.92-1.15-.69-1.03-1.03-1.61-.46-.92v-.11l-.8-1.49-.69-2.07-.69-1.95-.58-2.18-.22-.69-.12-.69-.11-.92-.23-1.84-.12-1.83-.11-1.72.11-.58v-.46l.8-9.18v-.92l.35-2.99.34-4.02.46-3.9v-.23l.23-1.84.35-1.95.57-5.51.69-6.31.11-1.5.35-5.05.34-4.93 97.24 96.44.11-.58.81-3.9.23-3.56.11-1.38.23-.69.35-1.14.46-.92.68-1.26 1.96-3.33.11-.35.12-.57.11-.69-.11-2.76v-1.95l-.12-7.35-.11-3.9v-1.84l.11-.92.12-.8.11-.57.23-.58.23-.57.34-.81.23-.23.12-.34 1.38-1.38 2.06-1.95.81-.57 3.67-2.87 4.71-3.56.68-.69 2.87-2.3 1.61-1.26 2.18-2.18 2.3 3.33.57 1.03.23.57.12.35.11.46v.69l.12 1.03-.12.69v.8l-.11 1.61-.12 2.3-.11 1.49.11 1.49 57.4-43.05.69-.69.81-.81.23-.34.34-.23.34-.11.35-.12.46-.11.46.11h.34l.35.23h.8l.23-.23.34-.23.23-.34.23-.35.12-.23.23-.11.23-.12.23.12.34.11.57.23.35.23 1.03.23.81.23.45.23 1.61.69 2.99 1.72.92.35.57.23h1.15l.8-.12.23-.11.46-.23.92-.69 1.03-.69.58-.46.22-.34.23-.23.23-.23.12-.12.34-.57.58-.92.23-.58.23-.34.34-.23.35-.23.45-.23.35-.11h.57l.35.11.34.12 1.84.91 1.49.81 1.61.92 1.83 1.03.46.23.35.11h.46l.34.12-.11-.23v-.57l.11-.46.12-.92.46-1.61 2.06-7.58-5.05-1.95-3.67-1.72-2.3-.92-.57-.23-.58-.46-.8-.8-.46-.58-.34-.46-.23-.45-.12-.69-.11-.69v-1.15l.11-.69.12-.46.23-.92 1.37-3.9 1.38-4.02.58-1.95.23-1.03v-1.38l-.12-.58-.11-.46-.23-.57-.35-.34-.34-.46-.46-.35-1.15-.69-1.49-.8-4.48-1.72-1.95-.69-1.26-.58-1.61 5.63-1.03 2.87-.46 1.15-.46.69-.46.69-.69.57-.46.12-.57.11-.58.12-.46-.12-.69-.11-.8-.23-.8-.23-1.5-.69-1.49-.69-1.15-.58-.68-.45-.35-.35-.46-.57-.23-.35-.46-.69-.92-1.95-1.03-2.41-.34-.69-.58-1.38-.92-2.29-.45-1.04-.23-1.03-.23-.8-.12-.92v-2.18l.12-.81 1.72-9.18.34-1.61.46-2.75.81-3.68 1.49-8.49.34-2.07 1.61-8.15.34-1.61.69-3.33 1.27-7 .45-2.76h.23l6.78 1.84 1.03.23 3.56.92.92-5.4.8-4.25.69-3.21.46-1.49.34-1.04.58-1.15.57-1.14.12-.23 2.41-4.6 3.21-5.39-7.12-6.09-.57-.69-18.71-21.47.92-1.37 2.18-3.56 2.41-4.14 1.72 1.73 4.48 4.59 5.62 5.74 2.41-3.68 1.95-2.75-4.82-4.71 10.45-15.73-.46-43.4 2.07-.11 1.26-86.91 7.81 9.98 7.46 9.65 12.97 16.42 2.64 3.33 3.68 4.24-.23.23 7.8 9.99 16.07 20.21 9.76 12.51 4.36 2.19 6.2 8.49 1.04 1.38 7.8 9.87 6.78 9.19 5.62 7.23 2.76 3.56 5.51 7.35 2.18 2.98 9.07 11.37 2.41-2.3.57-.57.58-.46 1.14-1.15.69-1.15 1.73-2.18.8-.8.34-.46-4.36-3.67.23-.23 3.22-2.99 1.03-1.03 1.61-1.61.45-.34 1.5-1.61 2.18-2.07 1.95-1.72 1.61-1.84.69-.46.34-.23.57-.34 1.38-.57.92-.23.57-.23.58-.46.57-.35.81-.69.91-.91 2.42-2.42 6.65-6.54 6.43-6.2 1.27-.92.57-.46.69-.11.57-.23h1.49l.92.23 1.38.57 1.84.69.34-1.26.35-1.5.34-2.41.12-1.37v-1.04l-.23-2.75 5.39-16.65h.23l4.82 1.61 4.36 1.26 1.73.46.92.46.57.34.69.81.8 1.03.58.92 1.03 2.18.34.8.46.81.46.34.23.23.58.23.68.23h1.61l2.18-.34 1.84-.46 1.49-.46 1.72-.69 2.3-.92 1.03-.34h.23l.81-.12.46-.11 1.6-.12 2.18.12.69.11 1.04.12 1.83.22 2.07.23v-.8l.34-2.52 1.15-4.37 3.79-4.36 3.9-2.53 2.76-1.6 4.59-3.22 4.25-1.72 4.59-2.53 2.18-1.49 1.38-2.07.8-2.75-.23-3.1-.46-1.49-6.43-6.09-5.74-5.05-8.49-5.63-2.99-1.83-1.72-.12-3.21.58-7 2.64-6.09 1.37-11.25 2.19-5.28 1.26-3.9 1.49-5.4 1.15-3.33-.12-2.18-.91-1.49-.92-1.61-1.72-2.64-4.02-4.48-9.88-2.75-5.39-.81-5.4-.8-5.28.12-2.18.57-.69 2.98-1.38.81-.34 3.1-.12 1.49.58h.92l2.75-.58 4.14-1.38 4.93-1.26 4.94-1.95 4.48-.8 4.47-2.42 6.89-5.28 7.12-3.44 7.81-4.48 6.31-2.64 3.33-.46 6.43-.11 6.2-.69 3.67-.58 1.95-.8 2.41-1.38 2.41-1.83 8.73-10.68 5.16-12.4 13.21-31.35 4.13-16.41.11-4.02-.57-4.37-1.49-5.74-2.64-10.56-7.81-14.01-2.64-7.11-.34-3.68.57-7 .57-8.5v-4.25l-.23-6.2-.45-1.83-1.73-2.64-11.59-8.96-3.67-2.98-2.76-4.02-.46-1.84.23-1.38 1.38-2.87 11.02-25.95 1.61-6.31.11-3.1-.57-1.72-.92-1.95-4.36-2.3-11.14-4.25-9.76-4.02-5.62-.57-7.92-.23-14.35.8-6.2.12-4.94-3.45-9.53-8.95-2.75-2.53-7.24-3.1-2.98-.34-9.07.46-10.22-.35-2.75-1.15-1.38-2.29-1.26-2.99-.35-3.21.23-5.4 1.27-3.9 2.87-4.59 6.88-10.11 14.47-19.86 3.21-3.79 2.18-8.95 1.84-2.3 2.41-2.53 4.82-3.21 12.06-7.12 3.44-4.59 1.03-1.95v-2.53l-.57-1.84-3.44-2.64-7.24-4.7-7.8-3.91-6.09-2.06-3.44-.69-14.35 1.14-16.88 2.76-3.33.92-3.55-.35-3.79-.46-2.07-.91-4.13-2.19-8.84-6.65-7.35-9.07-1.03-1.5-2.3-3.9-.69-3.33.46-2.3.92-2.98 1.26-2.07 3.33-2.52.12-.12 3.67-2.52 11.25-4.02 10.1-2.18 8.5-1.5 13.55.58 12.97-1.27 11.02-.91 14.58-4.25 8.49-.23 5.86-1.84 4.48-1.61 8.72 2.64 5.51-2.41-.23-4.36v-.46l.8-3.1 1.15-3.33 2.07-1.84 4.13-1.49 2.3-3.1.8-1.38 4.02-2.06 1.03-1.04 1.04-1.83.34-3.22.69-2.87 1.03-1.72.81-2.18.34-4.02-.11-4.02-.58-5.62-.69-3.33-1.37-2.19-1.84-3.21-1.49-1.49-.35-.12-4.36-2.75-4.82-4.37-1.15-1.6-6.2-5.4-2.64-2.53-1.72-3.9-.92-2.41-.57-2.87-.35-1.95-1.15-5.51-.69-5.28v-4.25l.58-4.02.92-3.79 3.67-5.63 1.15-1.14 1.38-.81 1.72-.11.69.8.69 2.18-.69 1.27-1.15 1.72.11.92.23 1.14h.69l.81-.57.8-.34.57.11 1.15.58.58 1.14.11 1.84v3.56l.34 3.1.35 1.95 1.49 3.33 1.61 2.64.69 1.38 1.03.46.46-.35.34-1.26-.46-5.28-.91-8.96-.46-5.97.34-8.49v-2.07l1.15-2.64 2.64-5.28-.23-1.38-.46-1.49-.23-1.61.35-2.29.8-3.91.23-2.06v-1.27l-.57-1.83-1.15-4.48-4.25-6.2-3.56-3.22-4.94-2.75-.8-.69-.92-.46-7.8-1.03-1.27-3.33-13.89-2.87-.69-2.87.35-2.87.46-3.79.34-2.18.23-1.5.12-.69v-.23l.23-2.41.23-1.15.11-.34.34-1.72.12-.23.57-1.95.46-1.5.81-2.64.11-.57.57-2.07.35-1.72.46-2.3.46-2.41.23-1.26.92-5.63.8-3.9 2.41-12.51 1.03-4.94v-.23l1.61-7.81 1.26-7.12 1.04-5.62.34-1.72.12-1.38.11-.92.12-.92.11-1.15v-2.18l-.11-.92-.12-1.03-.34-1.38-.35-1.15-.57-1.72-.46-1.38-.23-.8-.35-.57-.45-.69-.92-1.27-1.5-1.72-1.03-1.15-1.15-1.14-3.67-3.56-5.51-6.09-1.95-2.75-.69-1.04-.58-.8-.22-.57-.23-.46-.46-1.15-.58-1.72-.23-1.04-.46-1.83-.23-1.04-.23-1.03-.11-1.03v-1.96l.23-1.95.34-2.98.35-1.73.34-1.6.35-1.84.46-1.49v-.23l1.03.11h.46l.23.12h.69l.8-.23h.34l.69-.12h.46l.58.23 1.03.35.23.11.23.12.34.11.23.12h.58l.34.11h.69l.46-.11h2.53l1.14.11h4.37l1.14-.11.46.11h.35l1.15.23v3.1l.22 1.61 1.04 1.49 7.23-.11 8.04-.46 12.17-.92 8.72-1.49 8.95-1.96 4.83-1.72 2.41-2.29 1.37-3.68.23-2.75.46-3.1.92-.69 2.07.8 2.41 1.72 1.15.12 1.03 1.03.57-.23 2.3 1.26.92.92 2.64 3.45.8.23h1.49l1.15-.58.69-1.14.92-9.65.23-.69.92-.57 2.06-.46 3.33-.35.69-.46.81-3.32.69-1.15 2.87-4.02 1.14-1.84 1.84-1.95.69-1.15.23-1.03.11-1.72.23-1.15.92-1.61.58-.8.45-1.61v-1.84l.23-1.95.58-2.98.8-1.61 1.61-.81 1.49-.34h1.49l1.38.46 1.72 1.15 1.04 1.03h.57l.69-.11.46-.35.11-2.41.35-.46.57-.11 2.41.8 1.38.23.92-.23v-1.84l-1.03-2.06-2.42-4.25-2.18-2.99-2.18-2.98-1.61-2.3-.34-2.18.12-1.49.68-1.04 1.38-1.6 2.18-1.27 1.61-.68 1.61-.35.92-.46.68-.57 1.04-.46 1.03-.12 3.67 1.04 2.07.57 1.84-.11 7.69-1.61 2.41-.69 1.95-1.03 2.3-1.38 13.2-5.51 28.36-12.63 6.19-3.22 1.04-1.26.23-2.41-.23-1.61-.12-.34-.57-1.26-.69-.92-1.15-.23-2.52.34-9.76 1.95-13.55-.11-1.15.34-1.72 2.3-2.06 3.56-4.6 5.85-2.41 1.5-5.39 1.26-3.79.57-13.43.92-4.94.46-3.21.8-2.76.92-3.21 1.38-10.45 7.58-6.66 8.61-5.39 5.63-8.96 8.26-3.9 2.3-3.91 1.72-7.23 2.41-7.46 1.95-.69.23-1.84 1.04-.8.46h-1.26l-1.26-.58h-.58l-.23.12-.92.34h-.57l-.34-.11-.12-.58-.23-1.26-.11-.69-.46-.8-1.38-1.5-.12-.69-.11-.68.34-1.38.58-.46 1.38-.23.34-.23.23-.92.11-4.13.12-1.61-.23-1.61-.69-1.37-.69-2.65-.57-5.51.57-4.93 1.72-4.25.12-2.53-.69-3.67-1.84-5.05-.34-3.45.34-2.41.69-2.41-.34-2.75-1.27-5.06-9.64-22.16-.8-1.26-.81-.46-1.49.23-2.52 1.15-1.61 1.26-1.38 2.07-2.64 2.3-4.02 1.49-5.62-.58-1.84-.91-.92-2.99.12-2.41 1.38-2.64 1.72-2.41.69-2.41-.23-.81-.81-.69-.8-.34-.35-.46-.34-.92.23-1.49 1.15-.8 1.72-.12 3.21 2.18 3.68 3.22 1.38-.12 1.95-.57.57-.81.69-1.26v-.92l-.23-1.95-2.41-10.91-3.1-10.44-1.84-5.74-.11-2.3.46-1.61.8-1.72 1.26-.57 2.53-.46 2.07-.12 1.49-.69.46-1.03v-.46l-.46-1.26-1.84-2.41-1.26-2.07-1.03-1.84-.46-1.83-.12-2.19.12-1.14 1.37-2.19.46-1.03.35-1.15.34-1.95-.11-1.72.23-1.15.69-3.1.57-2.29.23-2.65.8-4.36 1.15-2.52 2.64-3.91 2.53-1.83 1.14-.58.92-.34.69.11 2.41 2.18 1.5 1.04.8.11 1.84-.34.57-.23-.12-.58-.68-2.98-.69-2.64v-.46l-16.3-8.96 16.3-11.13 7.23-11.49 5.17-9.41 5.62-7 9.64-6.2 4.71-4.14 1.49-7.69-1.26-7.12-.46-9.99 3.9-14.35 3.45-8.61-1.61-14.92-1.38-7.7-2.52-6.54-2.99-5.63-3.79-5.16-2.29-5.63-.12-3.67 1.15-2.41 2.53-1.38 6.31-.46 8.38 2.18 11.48 7.23 10.22-.34 16.88-2.99 2.75-1.03 1.15-1.49.11-2.07.69-.23 1.38-.69 1.38-.92.92-.8.8-.8.92-.69.92-.69 1.14-.58 1.15-.34 1.04-.34.91-.12h.92l1.04.12 1.03.23 1.03.23 1.15.11 1.38.11 1.26-.11.8.57.35.81.11.57-.11.92v.57l.11.92.23.58.81.92.8.22h1.03l1.15-.22 1.61-.69 2.18-.92 1.26-.23 2.07-.23 1.95-.12h3.1l1.26-.11 1.27.11 1.49.23 1.26.12h3.22l1.95-.12h1.6l2.64-.11h2.07l1.03.11h1.04l.92-.23.68-.23.46-.23.35-.22.69-.69.34-.58.46-.8.57-.69.23-.46.58-.57.8-.92.23-.23v-.23l-.11-.35v-.8l.11-.34.12-.23.23-.23.34-.23.11-.23.23-.12-.11-.69v-1.37l2.18 1.49 83.12 56.72.57 1.14.34.69.35.81.34.92.35 1.14.23.92.23.81.11.8.12 1.49.11.81.35 3.44.34 2.87v.23l.12 1.03.11 1.38.23 2.3.11 1.6.35 3.1.23 2.42.34 2.87.35 2.52.23 2.64.11 1.27.12 1.14.69 5.63.57 7.12.34 3.1.46 2.64.35 1.84.57 2.06.69 2.41 4.02 10.45 2.75 7.81.92 2.75 1.26 4.02.35 1.38.11.46.46 2.3.35 2.18.23 2.29.11 2.3v3.1l-.11 4.13v2.64l.11 2.53.23 2.64.35 2.64.23 1.61.45 1.6 1.73 6.78.34 1.49.12 1.49.45 3.79.23 3.33.12 2.53-.12 6.54 6.55-3.67 13.77-6.32 5.28-2.52 2.42-.58h2.87l2.41.46 4.93 2.64 16.76 15.04 8.04 9.88 6.89 10.33 16.87 24.34.46 2.07v1.61l-.57 1.83-1.72 2.3-5.4 4.36-8.03 5.4-2.42 1.83-.34 1.38.23 2.3 2.75 6.77 4.71 9.07 4.48 9.53 1.38 1.84 1.26 1.03 2.64.12 2.3-.46 2.29-1.72 4.02-4.83 1.38-1.72 1.03-1.38.8-.91 1.38-1.27 4.94-4.59 3.21-2.64 3.79-1.72 2.76-.46 1.95.34 12.4 5.74 1.49 1.27 1.26 2.87.8 3.21.46 4.82 1.38 12.75.92 5.97.92 3.79.34 1.14.81-2.29 1.03-.92 1.61-1.72.69-.81 1.83-1.95 2.53-3.1.57-.69.69-.69.57-.57.69-.34.46-.35.69-.23.35-.11h.34l.69-.12h1.38l3.1.23 11.71 4.25.11-4.82.12-.35.46-.69.22-.68.12-.69.11-.81.12-1.26v-1.72l.34-8.96v-9.07l.23-8.26.12-.69.23-1.38.57-2.18 1.15-3.79.23-.69.23-.46.23-.46.34-.34.23-.35.35-.23.34-.23.23-.11.35-.12.22-.11h2.99l6.54.11 5.63.12.69-.12.69-.11.57-.12.57-.34.35-.23.34-.34.35-.46.46-.81.34-.69.23-1.14.12-.81.11-1.15.23-1.72.23-1.84.23-1.03.23-1.03.11-.58.12-.57.11-.46.23-.69.46-1.03.46-.92 1.49-2.87 1.84-3.56 1.26-2.75.46-1.27.23-1.26.23-1.03.12-1.27v-1.6l-.12-2.65-.11-1.83h3.33l33.75-.92 8.84-.23 4.47-.12 28.7 41.8 54.19 78.76.57-1.61 1.73-2.64 1.26-1.26 1.61-.81.8-2.06 1.03-1.38.69-1.84 1.15-.92 1.03-4.13.23-1.95.58-1.61 1.14-4.82.81-5.74.23-6.89.57-3.67.23-6.43v-9.88l.58-2.41 1.6-3.67 1.38-3.45.57-1.03 1.27-1.38 1.26-1.03 1.61-1.03 2.87-2.3 3.56-2.3 2.75-1.38 1.15-.34 4.59-.46 2.3.12 2.87.11 7.34 1.15 1.27.34 3.44 1.73 1.61.68 3.79 1.73 2.18.8 3.44.46 5.05.46 1.27.57.91 1.15 1.04 1.72 1.72 2.53 2.18 5.17.23.68 1.72 4.14 4.13 10.79 1.96 3.33 1.03 1.38 1.38 1.49 1.95 1.15 1.15.46 3.44 2.18 1.72.69 1.27.34h1.03l.8-.11-.23 4.13.12 15.96.11 8.73-.11 12.28 6.08 3.79v5.05l-.11 5.17v11.25l-.12 4.02v4.02l-.11 3.56v13.54l-.12 6.89v2.53l-.11 5.51v3.33l-.12 2.06v3.22l-.23 4.48v2.06l-.23 2.3-.11 2.41-.34 3.68-.35 3.32-.23 2.19-.34 2.52-.46 3.45-.46 2.75-.23 1.38-.46 2.18-.46 2.41-.69 2.87-.23 1.27-.8 3.1-.35 1.6-.46 1.72-.68 2.42-.23 1.03-.69 2.18-13.78 49.26-2.18 7.34-1.03 3.68-9.53 34.44-.81 2.64-1.49 5.17-8.03 28.47-10.79 38.46-.46 1.84.46 8.38-1.84 10.34-2.53 13.77-.57 9.19-3.1 7.69-5.51 13.2-8.73 23.08-.11 1.49-.12 3.22-.23 4.02v4.13l.12 4.02.23 4.13.46 4.02.46 4.13.34 1.96.12.8v.34l.46 2.87.57 3.45.69 3.79.23 1.95.23 1.26 1.03 6.43 1.38 7.81.69 4.36.34 1.95.35 2.41 1.03 6.43 1.03 5.86.69 4.59.58 3.45 1.26 7.69.92 5.62.69 4.25.8 4.14.57 3.67 1.73 10.45 1.03 7.46.46 2.99.23 1.72.23 2.06.23 1.5.34 1.72.35 2.64.57 3.56.8 6.08.58 5.4.69 5.86.45 3.78.58 4.83.69 6.54.8 7 .58 5.52.45 4.59.81 7.35.11 1.14 1.61 15.85 1.15 11.02.57 4.71.92 9.76 1.15 11.02 1.03 10.33 1.26 11.6 1.04 9.07.11 1.03.35 2.76.23 2.29.34 2.87.46 5.28.23 2.65.23 1.83.34 3.45.46 4.59.81 7.12.46 5.62.34 4.14.23 3.1.23 2.41.34 7.23.46 6.32.12 4.13.11 2.52.12 5.86.11 9.87v.69l.92 17.68.8 11.14.69 11.25.46 8.5.35 5.97.11 2.75.23 2.53.12 2.18.23 1.95.34 3.91.57 5.39.46 3.33.12 2.3.23 2.87.23 2.98v1.84l.11 1.95v5.51l-.11 2.87-.23 3.91-.35 3.9-.46 3.79-.57 3.9-.23 2.19-.34 2.29-1.27 8.04-1.26 8.04-.46 3.55-.46 2.88-.57 3.67-.46 2.75-1.15 7.81-.23 1.72-.69 4.48-1.49 9.88-.69 4.47-.46 2.87-.23 1.15-.34 1.72-.58 2.87v.92l-.91 4.02-.92 4.48-1.27 5.74-1.6 7.46-1.38 6.66-1.15 5.51-1.84 9.53-.68 4.71-.69 5.05-.12 1.38-.46 3.9-.46 5.74-.34 6.2v1.5l-.12 1.6v11.14l.23 5.17.12 2.06.23 2.99.23 2.52.23 2.64 1.26 11.49.23 1.6.34 2.99.23 1.72.58 5.28.34 2.99.35 2.64.57 5.74.46 3.44.11.58v.57l.12.46v.34l.34 2.19.23 2.18.35 4.13.57 3.79 2.3 21.24.57 4.25.12 1.72.34 3.21.69 5.17 2.07 17.8.69 6.08.22 2.64.92 6.89.35 3.1.23 2.76.46 3.67.34 3.56.23 1.61.69 5.85 1.61 14.47.23 1.95 2.29 19.63 1.15 7.58.69 4.82 1.49 8.96 1.26 6.66.23 1.61.46 2.18 1.61 8.72.11.81.46 1.6.46 2.64 2.76 14.24 2.41 11.71.23 1.49.46 2.3 2.41 11.83.11.69 1.04 5.39 2.64 13.43 2.75 14.13.46 2.64.92 4.48.46 2.75.92 5.17 1.49.11 2.3.23 1.03.12h1.26l5.74.23 1.95.11h1.38l6.43.23 2.53.12 5.51.23 3.21.11.69.11 1.84-.11 4.13.23 5.62.23 3.22.34 2.64.46 1.38.35 1.03.23 1.15.46 2.41.8 2.18.8.92 8.04-.58 42.25-1.03 24.46 2.87 7 10.45 33.98.23 1.61 2.06 15.27.69 5.17 1.04 8.38 1.14 8.15.46 3.45 2.3 16.53 1.61 11.94 1.26 9.64-1.26.69-5.17 2.87-4.25 2.3-2.06 1.15-3.56 1.49-4.25 1.84-16.65 5.62-6.42 2.53.11-3.22-6.54.81-10.11-4.14-2.52-1.03v2.53l-.12.34-.23.35-.34.23-.46.11h-.46l-.8-.11-1.72-.35-.69-.11-8.27-1.04-3.56-.46-11.02-1.6-.11 1.49-.35 2.41-.46 3.79-.57 3.33-.69 2.98-.11.46-.23 1.15-.23.8v.12l-.35 1.49-.46 1.49-.34.92-.92 2.87-1.26 3.68-1.27 3.56-.23.68-.34.69-1.15 3.45-.46 1.61-1.95 5.97-.23.57-5.05 14.81-1.15 2.99-.69 1.95-.69 2.06-.11.35-.34.8-.81 2.41-1.49 4.48-.34 1.49-.35 1.27-.57 2.18-.81 3.56-.57 2.52-.23 1.96-.12.22-.34 2.99-.11.46-.23 3.44-.23 3.45-.12 3.56v2.29l-.11 1.61-.12 3.22-.23 2.64-.23 2.52-.46 2.3-.46 2.29-.68 2.07-.69 2.07-.69 1.6-.23.46-.23.69-.58 1.15-.57 1.15-.46.8-1.38 2.64-.11.23-1.84 2.99-4.36 7.58-1.72 2.87-1.38 2.52-1.72 2.87-1.03 2.07-1.04 1.95-.92 1.84-.91 1.72-1.73 3.9-1.6 3.45-1.04 2.64-1.26 2.87-.57 1.38-.81 2.06-1.26 3.1-.57 1.38-4.37 10.79-.92 2.64-.57 1.27-2.41 5.85-.46 1.27-1.26 3.21-1.72 4.13-3.1 7.81-2.87 7.12-.81 1.95-.34 1.03-.58 1.61-.68 1.61-1.96 5.17-.57 1.26-.46.8-.57 1.27-.58 1.26-.46.8-.34.46-.69.92-.34 1.03-.58.69-.57.58-.69.8 2.41 3.56 5.85 8.27 1.61 2.18.69.8 2.64 3.67.69.81.8 1.03.81 1.03 1.26 1.5 3.21 3.79 6.2 7 .92 1.03 2.87 3.33 2.3 2.64 2.75 2.99 1.73 1.95 1.37 1.61.46.46 11.25 12.63 3.22 3.56 2.18 2.41 1.83 2.06 1.04 1.15.57.58.58.57 4.01 3.44 2.07 1.61 1.15.69v1.03l-.12 1.38v8.96l.12 5.16-.23 17.22-.12 11.83-.23 17.45v.92l-.11 4.71v8.72l-.12 4.02v7.24l-.11 1.37-.11 18.37-.12 9.07v6.55l-.11 4.25-.12 11.36-.11 9.53-.12 15.62-.23 17.68v.57l-.11 13.78h-5.28l-11.37-.35-.11.46-.35.23-.34.35-.58.23-.92.11-.8.12h-.57l-.35.11-2.98 1.61-1.49 1.03-.92.58-.58.23-.57.34-.69.12-.57.11h-1.27l-3.78-.11h-.35l-.34.11-.23.23-.69.69-2.07 2.07-.46.34-.46.11-.46.12-.23.11-1.37-.11-7.58-.35 4.94 55.69 1.6 16.99v.92l.12 1.03-19.17-3.44 20.43 22.27z" stroke-linejoin="round"/></defs><use xlink:href="#e" fill="#09757a" stroke="#097d9b" stroke-width="5.76"/><defs><path id="f" d="M1561.75 3603.62l-14.35-8.27-71.18 31-4.94-8.95-1.03-3.68.23-6.89 2.18-3.44-.23-2.3-2.64-2.29-.92-4.94-1.72-1.61-.46-4.82-2.07-2.07.46-5.16.58-6.66-.23-18.72.69-7.92-1.04-8.72-2.75-16.19-3.33-1.49-.34-1.61-2.76-.12h-1.84l-3.79-.23-1.49-.11h-1.49l-1.61-.23-3.21-.12-4.59-.34h-1.27l-1.72-.11-1.95-.23-4.71-.23-4.82-.23h-.57l-4.25-.23-1.26-.12h-2.07l-11.02-.57h-1.03l-11.71-.46h-1.84l-1.15.11-.69.12-1.03.34-1.03.46-.81.46-1.26.69-.23.23-.46.23-.8.34-.35.12h-.34l-.46-.12-.46-.46-.92-.68-.92-.69-.46-.46-.45-.12h-.46l-.92.12-1.15.23-4.25 1.26-.8.12-.92.11-1.15-.11-4.47-.46-1.96-.12h-3.67l-9.53-.23-16.3-.23-3.56-.11-7-.12h-4.48l-11.02-.23-17.33-.46h-1.73l-.57.12-.57.23-.46.23-.35.34-.34.58-.35.8-.34 1.15-2.99 10.45-.34 1.03-.12.34-.8 2.64-2.52 8.61-.23.92-.23 1.04-.35.8-.23.34-.23-.22-.57-.35-.81-.11-.57-.12h-1.72l-12.97-.34-10.34-.35-.91-.11-4.71-.58-8.15-1.26-4.48-.57-1.15-.12-1.37-.11h-1.04l-1.15.23-1.26.34-11.94 3.22-10.44 2.75-9.3 2.64-3.91 1.04-2.06.57-1.27.23-1.03.11h-1.03l-1.84-.11.23-2.07.12-.46v-.57l.11-.8v-1.96l.11-.57-.11-.69v-1.49l-.23-1.84-.23-1.95-.23-1.61-.11-1.26-.35-1.49-.23-1.5-.57-2.64-.35-2.18-.34-2.41-.57-8.15-.12-2.99-.11-1.49-.35-4.71-.8-7.92-.12-.8-.11-2.07-.23-2.52-.23-2.87-.23-3.45-.23-3.9-.11-2.53-.12-3.44-.23-3.22-.11-3.9v-.35l-.23-2.64v-2.87l-.12-2.41-.11-3.44-.12-1.95-.11-4.6-15.85 1.73-2.64-6.43-99.87 3.44-97.47 5.05-96.89 4.82-25.71-12.05-1.15.92-1.38.92-.57.34-.69.46-1.27.69-1.14.46-1.04.34-.8.23-.8.23-1.15.12h-.58l-.8-.12h-1.03l-1.27-.11-.46-.12-3.9-.34-15.96-1.5-15.84-1.26h-.57l-2.64-.46h-1.5l-.57.12-1.03.34-1.95.58-2.53.8-2.64.69-1.84.57-.57.12-.8.11-2.3.35-2.3.23-2.29.11-6.66.12-2.3.11h-.57l-5.97.35-4.13.22-2.41.23-9.99.81-8.96.57-20.66.92-5.51.23h-1.26l-8.61-.23h-1.5l-4.01-.23-4.6.12h-6.2l-2.98.11-2.41.12h-1.49l-3.22.11h-5.62l-1.38-.11-1.95-.23-2.87-.23-1.49-.23-3.33-.46-2.41-.23-2.42-.23-21.35-2.64-1.38-.12-.23-.11-1.26-.12h-1.03l-1.03-.11-1.61-.12h-2.53l-5.39.23-4.6.12-6.31.23-3.67.23h-3.79l-2.87-.12h-2.76l-.34-.11-2.53-.12.12-.69.69-5.39.11-.81.58-4.7 1.49-11.94.92-6.09.46-2.98.34-2.99.12-1.95-.12-1.72-.11-1.84v-.23l-.23-1.84-.23-1.83-2.53-21.36-.11-.46-.12-1.38-.8-7.23-.23-1.38v-.46l-.23-1.72-.23-1.95-.23-1.84-.23-1.83-.23-1.84-.23-1.84v-.11l-.11-1.73-.23-1.83-.23-1.49v-.35l-.23-1.84-.12-.91v-.81l-.46-3.56-.11-1.72-.46-3.67-.69-5.29-.57-5.39-.23-1.84-.23-1.84-.23-.8-.23-.69 3.33 1.26 10.21-9.64 7.35-6.89 6.2-5.74 38.46-18.6 49.59-1.49 52.35-1.72-44.08-144.78 1.38.92.68.57.58.35.57.45.69.35.69.46.69.34.8.35.58.23.69.11.8.12h1.49l.92.11.8.12.58.11.69.23.69.23.57.23.92.46 1.03.46.92.46.57.46.58.23.57.34.46.35.46.34.46.34.57.58.35.34.34.35.81.92.45.68.81 1.27.46 1.03.34 1.03.23 1.27.35 2.52.57 2.76.69 2.98.46 2.53.23 1.38.23 1.49.11 1.38.12 1.15.11.34.23 1.03.23 1.04.34.69.69 1.6 1.38 2.87.46.69 1.03 2.53 1.15 2.87.69 1.61.46 1.26.34 1.15.46.92.58 1.03.23.46.57.8.8 1.15.81 1.15.69 1.03.92 1.72.57 1.73.92 2.75.8 2.07.58 1.49.34 1.26.69.92.57.92.69.69.58.57.57.35.69.46.8.23.81.11.8-.11 1.15-.12 1.14-.23 1.15.12.69.23 1.38.57 2.07.69 1.83.57 1.38.35.57.11h.35l.34-.23.23-.34.23-.69.46-1.26.58-1.5.45-1.14.23-.81.12-.8.11-.92v-1.84l.12-.23.34-.11.81-.12 3.67-.57.69-.12.69-.22.57-.35 1.03-.46.69-.34.69-.35.58-.11.8-.12.69-.11h1.03l2.53.23h.8l.58-.12.57-.23.8-.57 1.04-.8 1.03-.69.8-.46 1.15-.58 1.03-.34 1.15-.35 2.53-.68 1.49-.35.57-.11 1.84-.46 2.18-.35 2.76-.34 2.87-.35 1.83-.11h1.61l.81.11.8.23 1.38.35.91.34.58.12.46.11.8.23h1.61l.8-.11.92-.23 1.26-.58 1.96-.69 2.87-.91 1.03-.23.34-.12.58-.23.34-.11.35-.35.34-.34.57-.81.46-.8.23-.34v-.12l.12-.46.46-1.49.92-4.59.11-.23.11-.81.12-.46.23-.22.11-.23.35-.23.34-.12.92-.23h1.15l.8-.11h1.5l2.98-.12 4.13-.11.58-.12.23-.11.23-.23.34-.35.23-.34 1.26-2.53 1.5-2.87.22-.34.23-.23.35-.12.34-.11.81-.23 1.49-.12h12.28l4.71.12h6.54l1.73-.12.8-.11.69-.12.57-.11.46-.23-.11-6.2-.12-2.53-.23-5.51v-4.7l-.11-4.37.11-7.8v-10.91l.12-1.61v-2.75l-.12-1.5-.34-5.05-.12-1.95-.23-2.64-.46-5.51-.8-6.89-.23-1.84-.46-2.18-.23-1.15-1.26-7.23-.92-5.51-.23-2.18-.11-.92v-1.72l.11-1.04.23-1.72.46-2.52.57-3.56.35-1.61.46-1.84.69-2.41.68-1.72 2.07-5.51.58-1.84.34-1.72.57-2.07.46-1.72.23-.69.12-.46.34-.92.46-.8.57-1.03 1.04-1.5.57-.69.58-.68.46-.46.57-.46.57-.46.58-.35.46-.34.57-.23.57-.23.81-.23 1.15-.23 1.03-.23 2.18-.46 2.87-.46 2.41-.57.69-.23.57-.23.35-.12 1.38-.57 2.64-1.26.8-.23.8-.35 1.15-.34h.23l.35-.12 1.14-.11 2.53-.23h10.33l3.1-.12 1.26-.11.35-.11.34-.12.23-.23.35-.23.34-.34.35-.35.34-.34.23-.35v-.34l.11-.46.12-.92-.12-3.33-.11-.23v-7.35l-.12-4.93v-8.38l.23-1.27.35-1.26.46-1.26.57-1.38.81-1.26.8-1.38.92-1.38 1.03-1.15.57-.46.23-.23.69-.57 1.95-1.38.92-.69 1.04-.8.69-.46.68-.57.69-.81.92-1.03.92-1.15.46-.46.46-.34.57-.35.46-.23.8-.11 1.61-.12 4.36.12 6.55.23h.46l7.69.11h.46l2.98.12 6.89.23 10.79.23 11.83.34h.34l20.67.46h.45l4.02.12.81-.12 2.98-.11h1.26l-.46-.92-.57-1.38-.69-1.61-.69-1.49-.34-1.15-.23-1.03-.23-.92-.12-1.03-.23-1.61-.22-1.72-.46-4.25-.35-4.02-.11-2.18-.12-1.84-.11-1.61.11-1.37-.11-1.61-.12-1.84-.11-1.61-.12-.68-.11-1.5-.81-6.2-.45-4.01-.46-4.02-.35-3.1-.34-1.73-.81-4.59-.57-2.41-.12-1.15-.57-3.56-.23-2.18-.11-.46-.81-9.07-.34-4.59-.23-3.21-.58-6.55-.34-5.4-.34-4.59-.12-2.75-.69-8.84-.46-6.66-.57-8.5-.46-6.43-.23-2.18-.11-1.84-.69-9.07-.46-7.12-.46-6.77-.58-6.89-.34-6.77-.69-10.45-.11-1.15-.12-.92-.11-1.83-.35-6.55-.57-8.49-.46-7.58-.35-4.71v-7.23l-8.95-.12-.92-6.2-3.9-.34-2.76-2.41-.69-1.49-.22-.23-.92-1.84-3.91 3.21-7.34 2.76-17.45 14.58-2.53 2.18-.23.23-.46.46-7.8 6.43-8.38 6.89-.46.34-2.99 2.53-1.95 1.72-4.36 3.68-4.37 3.55-2.06 1.73-6.66 5.51-7.12 5.97-2.29 1.95-3.1 2.64-2.3 1.95-3.56 2.99-5.28 4.25-2.52 2.06-2.87 2.41-2.87 2.41-3.33 2.76-2.53 2.3-3.56 2.87-2.52 2.06-2.07 1.95-2.76 2.3-1.83 1.72-1.72 1.5-1.96 1.83-3.21 2.99-2.3 2.18-.34.46-2.53 2.52-2.75 2.76-1.49 1.72-1.84 1.95-1.61 1.73-2.29 2.64-2.07 2.29-2.07 2.41-2.29 2.87-2.87 3.45-1.38 1.84-.92 1.26-2.87 3.67-2.75 3.91-2.76 3.78-2.52 4.02-1.5 2.07-1.26-1.38-.8-.8-.81-.92-.46-.57-.57-.69-.34-.69-.23-.58-.23-.46-.12-.34-.23-.69-.11-.8v-2.87l-.12-2.41v-24.69l-.11-15.96v-3.21l.11-1.38.12-.92.34-.8.35-1.04.57-.91.69-.92 1.15-1.38 2.87-2.87 5.51-5.4 8.84-8.95 21.92-21.82 6.89-6.77 3.33-3.33 1.61-1.72 3.56-3.45 1.26-1.14 2.98-3.1 3.91-3.45 5.16-4.71 5.51-5.05 4.94-4.36 4.48-4.02 4.82-4.48 6.08-5.62 5.74-5.28 4.94-4.94 1.95-1.95.58-.58.45-.34 2.3-2.3v-.11l1.61-1.84 1.26-1.26v-.12l.8-.8.35-.35 3.44-4.82 4.94-6.54 1.61-1.95.57-.69.57-.46.23-.23 1.15-.69.58-.23-.35-20.32-.11-2.07.57-1.95.12-.8.34-2.64v-.12l.57-5.05-1.6.23-.46-.8-1.04-.12h-.57l.12-2.76 2.64-.57-.35-.69-.11-1.03-.12-1.61-.11-2.07v-8.26l.23-10.34.11-10.67.12-11.14.23-10.91.11-5.51.12-4.48.11-6.65.11-6.55.12-13.2v-.92l-.34-5.86v-9.98l.45-8.27-.11-14.12.11-1.84-3.1-.12-1.14-.8-.58-.11h-1.49l-.92.11h-1.26l-3.44.23-2.76.46-2.53.69-2.06.69-2.41 1.38-.58.34-3.44 2.53-2.07 2.18-1.6 1.95-1.27 1.84-.23.34-.92 1.84v1.26l-13.08 1.84-10.22-3.1-7.69-.46-.46 1.15-.8.8-6.32 5.28-2.06 2.76-1.96 2.98-1.49 2.87-1.84 4.02-.8 1.38-.8.34-1.84.23-1.72-.23-3.79-.69h-2.53l-32.48-60.04-1.38-2.53-20.09-40.3-.69-1.49-11.83-23.88-2.41-8.96-21.12-42.59-9.87-38.92-16.19 3.33-5.62 1.03-4.83 1.03-9.29 12.17-10.57 13.78-2.06 2.76-28.82 37.65-51.31 65.22-3.33 4.13-48.22 60.97-51.66 65.44-136.04-32.84v-.8l-.23-2.41-.23-1.03-.11-.69-.12-.81-.34-1.15-.35-1.03-.91-2.87-.81-2.41-.23-.8-.23-1.15-.34-1.27-.35-1.49-.45-2.41-.58-2.29-.34-1.38-.35-1.04-.34-.91-.81-2.07-1.49-3.22-.8-1.6-1.49-3.1-1.84-3.68-3.9-9.07-1.15-2.52-1.15-2.53-.23-.46-.8-1.26-.23-.46-.12-.12-.23-.22-.46-.35.35-.8.46-1.27.8-2.52.46-1.72.23-1.27.57-3.44.58-4.82.8-4.71.81-4.82.22-1.73.23-1.83.12-1.27v-1.83l.23-2.87.11-4.82.23-4.71v-2.18l-.23-1.84-.69-5.63-.34-4.01-.57-6.89v-1.84l.11-4.25.23-5.39.12-5.52v-.45l.11-2.65v-2.52l.23-10.68v-1.84l.11-3.67.12-5.4v-5.74l.34-11.36v-15.27l-.11-8.96v-.92l.11-.46-50.62 48.57-9.53 9.3-57.52 55.91-57.4 54.31-10.9-2.53-49.14-68.31-48.9-69.92L36.05 2354l-6.89-9.41-.23-2.3-.34-3.33-.23-2.18-.12-1.84v-1.15l-.11-1.14v-1.27l.11-1.15.12-1.03.11-.92.12-.8.11-.92.23-1.03.34-.92.23-.92.12-.11.23-.92.69-1.73 1.49-4.13 1.26-3.21.92-2.53.92-2.41 1.26-3.22.92-2.18.69-1.72.57-1.38.69-1.26.58-1.15.34-.57.57-.69 1.04-1.49 1.15-1.27 1.49-1.49 2.87-2.52 9.41-7.81 2.99-2.76 2.41-2.29.34-.23 1.03-1.15.46-.58.81-.91.92-1.15.91-1.49.81-1.61.8-1.72.23-.35.12-.57.23-.58.68-2.41.12-.57.11-.92.12-1.15.23-1.38v-.46l.11-1.6-.11-3.79v-2.76l-.12-2.87-.23-4.93-.34-3.56-.34-3.22v-.46l-.23-1.26-.58-2.3-.57-2.41-.81-2.29-.8-2.19-.34-.68-.69-1.5-.35-.92-.34-.57-.58-1.26-7-14.12-.34-.92-.35-.81-.69-1.83-.23-.69-.34-1.04-.23-1.03-.23-1.03-.57-2.64-.46-2.41.46-1.15.34-.69.12-.35.34-.91.46-.92.46-.69.46-.69 1.15-.8 2.52-1.5 1.38-.91 63.94-15.39 5.97-1.61 3.45-.92 39.95-10.9 5.16 3.79 9.99-14.81.23-.23 35.93-53.85 97.24-17.8 95.51-17.56 95.63-17.57 89.55-16.65 1.83-.11 4.25-.81 84.84-12.17 11.48-.91.23-1.27 6.31 1.15 1.72.12 1.38.11h1.38l2.18-.23 1.49-.11 1.95-.35 1.15-.46 1.27-.57 1.49-.58 2.06-.8 1.5-.57 1.95-.58 1.95-.46 2.07-.23 2.18-.11 2.64-.12 3.21.12 5.05.23 1.95.11 1.96.23 5.28.35 2.41.11 4.13.23 6.2.35h.11v10.67l.12 7.01v6.66l-.57 27.78 4.24 1.03-1.14 4.71 23.76-1.15.23-23.76V2037l-.12-.69-.23-.34.81-4.82.57-7.46-5.05-4.48.57-2.3 1.84-8.72.35-1.15 1.95.11 4.7.35 1.5.23 11.36 1.14 12.86 1.5 5.28.69 3.21.46 1.61.11 2.18.23 2.18.34 2.07.12h2.18l2.64-.12h.35l1.83-.11.12 9.99h7.92l.23 10.56 9.99.12 6.66.57 4.93-.35h2.41l.46 13.32v.81l.12.23v2.75l.34 7.58 4.59 2.07 5.17 2.41 2.41.8 1.26.35h.69l.92-.58.57-.46 1.04-1.03 3.33-3.56.69-.57.8-.23h1.03l1.04.11 17.33 4.59 1.84.58-.23 2.52.11 1.5.46.91 2.87 2.64 2.76 2.88 1.49 1.03.57.11 4.94-5.62 4.82-4.37.8-.91 3.56-4.37 1.84-8.61.69-3.21.11-.81 1.04-8.26v-.58l4.93-6.2 1.61-1.95.46.23.69.58 2.06 4.36-1.95 4.48-1.26 6.43-1.03 5.62.46 1.84 2.52 2.52 1.26-.23.12-.34.8-3.79.46-1.72.12-.35.11-.45.58-1.15.57-1.61.11-.23.58-1.72.34-1.38 1.38-4.59.23-.92.12-.8 2.52 2.52 3.44 2.87 3.56 2.87 1.73 1.38 1.95 1.84 3.21 2.87 2.64 2.98 2.07 2.64 2.29 3.22 1.5 1.83 3.21 4.37.58.46 1.72 2.18 1.6 1.95 1.38 1.95-.34-3.67-.12-4.25.81-1.49 1.14-.46 1.27.34 1.83.69 2.07.12 2.41-1.73 1.38-1.6.46-2.99v-1.61l.34-1.6.12-.12.46-1.49.34-.8.12 2.06v1.84l.11 5.74-.57 1.61.69 1.15-.23 1.95 7.92 16.19.46 1.37-.23 7.81-4.25-.23.11 12.17-2.06.23-2.41 7.23-1.61 32.96-.23 11.13h2.18l2.64.12 16.53.92-.46 17.68.81.11h5.97v2.3l-.12 5.97-.11 4.48-6.66-2.65-.35 18.49-24.79 1.61v.8l.11.92.92.57 4.13 2.3 5.51 3.21 3.91 2.19 2.06 1.14 6.66 3.56 1.49-2.98.35-.69.46-.57.46-.58.57-.46 1.84-.92.57-.23.12-.11.46-.46.8-1.03.46-.81.34-.8.23-.8.12-1.27v-1.26l21.35-1.95 2.53 40.99 2.87 47.99 5.39-.23 12.74-.69.69.11.69 3.22.69.57.69.46.46.35.57.23 1.5 1.03.68.34.46.23.35.35.34.23.69.8.58.8.45.81.23.8.35.92.34 1.26.58 2.41 1.14-.23 4.48-.68.81-.12 1.83-.34 5.51-.92 1.72-.35 1.27-.23 1.49-.23 4.48-.8 5.05-.8 1.84-.35 1.14-.23 2.99-.46 3.9-.69 6.2-1.03 1.38-.23 7.57-1.38h.46l.58-.11 7.46-1.26 2.53-.46-8.5-24.23-1.95-28.93 5.74-26.64 1.38-18.37.11-2.41.12-1.38v-.8l-.12-.34-.23-.35-.57-.57-.12-3.45v-.57l.12-.46.11-.23.46-.23.69-.23h.69l.57-.11.58.23.57.22.46.35.8.69.46.46.81.8.57.46 1.15-1.26 2.64-3.22 4.82 4.71 1.49 1.61-2.98 3.44-.69.81v.23l-.57.68-.46.92-.46 1.04-.35 1.03-.23 1.15v.23l-.23 1.26v2.41l.12.92.11 1.49.58 4.82.46 5.4.23 6.2.11 5.05-.11 6.32-.23 7.92v6.2l-.12 2.87v3.1l.12 2.18.46 3.56.68 3.44.69 2.87 1.15 2.87 1.61 4.94.92 2.64.69 2.3.34.92.23 1.03.23.69.11.69.23.8.12 1.15.23 1.15.11 1.03v1.03l.12.92.23 3.68 1.49-.23 3.21-.69 2.19-.58 2.06-.68 2.64-1.04 2.18-.92 1.73-.8.8-.34 2.18-1.27.92-.46.11-.11.58-.46 1.49-.92.8-.57.69-.58.92-.69 1.03-.69 1.15-.8.69-.46.8-.57.92-.58 3.79-2.75 1.38-.92.69-.46.8-.46 3.1-1.95 1.38-.8 3.21-2.07.46-1.15.23-.23.81-.57 2.06-1.27 1.61-.91 2.41-1.38 2.18-1.15 3.67-1.72 1.96-.81 3.21-1.37 1.95-.81-1.72 1.15-.57.35-.46.22-.69.23-1.38.58-2.07.92-1.6.8-.69.35-.35.22-.34.23-.23.46-.12.46-.11.35v.69l.11.34v.35l.12.34.23.46.23.34.23.46.57.69 1.72 1.95 1.15.92 1.15.92 1.38.8 1.38.81 1.49.69 1.49.57 1.61.46 1.6.34 1.61.23h5.74l1.95.12 1.73.23 1.83.34 1.72.46 1.61.69 1.72.69 1.73 1.15 1.72 1.15 2.64 2.18 2.41 1.72 4.71 4.82 4.36 4.48-.12-1.72 2.41 2.41 26.29 26.41 6.89 7 1.49 1.61 54.65 54.99 43.39 43.86 11.37 11.37 1.03 1.03 11.48 11.48 3.45 4.59.46.58 4.36 4.36 10.33 10.33 15.38 15.5 45.35 46.16 18.48 19.29 26.52 26.86 2.53 2.64 4.93 4.94 1.61 1.49 20.55 21.01 6.08 6.2 1.84 1.72v3.22l-.11.8v7.93l-.23 14.92v5.28l.11 2.18v8.73l-.11 16.07v5.63l-.23 6.2v9.53l-.12 8.61-.23 28.93-.11 14.01v7.81l-.12 2.75.12 2.87v5.51l.11 2.3.12 4.02.23 4.59.23 3.56.11 3.21.12 2.3v4.02l-.12 1.26v1.49l-.23 3.79-.57 7.93-.23 3.9-.12 1.72-.23 5.05v5.05l-.11 7.81-.12 23.88-.11 1.5v9.41l-.12 9.99-.11 1.49v1.72l.11 1.27v1.14l-.11 1.61v1.95l-.12 3.45-.22 5.28-.12 4.59v1.38l-.11 1.61v5.51l-.12 4.36v1.03l-.11 6.09v7.12l-.12 5.28.12 1.49v5.28l.11 2.41v2.53l.23 3.1.12 3.79.22 8.38.12 5.05.11 4.37.23 6.42.12 1.27v17.68l-.12 8.04v7.57l-.11 2.87v3.1l-.12 20.1-.11 3.78v4.71l-.12 14.7-.11 4.48v15.61l-.11 11.6v3.78l-.12 8.85v6.54l.12 5.86.11 1.49.11 1.26.23 4.59.58 7.93.46 7 .23 4.13 1.37 18.6v.58l.35 5.28v.34l.69 10.22.34 5.05.35 5.4.11 1.83.12 2.19v5.05l-.12 1.26v1.26l-.11 1.15-.35 5.17-.34 2.41-1.04 8.04-.34 2.98-2.3 18.26-.8 5.74-.46 3.79-.92 7.46-.23 2.18-.34 2.3-.23 2.06-.34 2.87-.23 2.3-.12 2.64-.23 2.18-.11 1.49-.12 1.96-.57 9.41-.81 12.06-1.14 17.91-.46 6.77-.23 2.99-.69 7.92-.81 8.26-2.41 22.16-.46 4.14-.34 3.1-.46 5.16-.34 2.76-.58 6.2-1.6 14.58-.58 4.82-.92 8.84-1.14 11.25-.35 2.64-.11 1.04-1.38 12.97-.12 1.49-1.03 9.65-.69 8.04-1.03 10.56-.81 8.72-.68 7.01-.23 1.72-.12 1.61-.23 2.87-.34 3.67-.35 3.56-.11 1.15-.23 2.52-.58 5.52-.34 4.13-1.26 13.32-.23 2.18-.23 2.64-.46 4.94-.35 3.67-.11 1.15-.8 8.72-.23 2.19-.92 9.18-.35 3.67-.68 7.47-1.96 19.75-.34 3.32-.23 2.53-.69 7.92-.11 1.61z" stroke-linejoin="round"/></defs><use xlink:href="#f" fill="#004249" stroke="#00465f" stroke-width="5.76"/></svg>