<svg width="384" height="4.77in" viewBox="0 0 2880 3433" xmlns="http://www.w3.org/2000/svg" xmlns:xlink="http://www.w3.org/1999/xlink"><path fill="#fff" d="M0 0h2880v3433H0z"/><defs><path id="a" d="M732.98 1971.51l-7.72-1.93-3.44-3.76-3.21-.96-16.2-3.65-8.48-1.93-9.11-2.36-3.22-.86-2.47-.54-5.47-1.07-3.11-.64-3.33-.86-3.22-.75-3.96-.86-4.72-1.07-7.19-1.72-8.05-1.82-4.72-.97-4.07-.86-23.07-6.11-4.72-1.08 6.12-23.06 4.72-18.78.53-1.6.65-1.61 4.5-6.55.75-2.47.65-2.57 2.25-10.84 3.33-16.2 2.46-12.12 2.04-9.12.11-1.07v-.97l-1.29-4.07.75-3.44 1.08-4.72 1.39-5.47 1.72-7.08 5.47-23.28 3.43-14.91 2.15-8.9 2.14-9.12 1.07-4.72 4.72-19.96 4.4-18.24 7.62-31.86 9.12-38.19 5.47-21.13 1.07-3.97 4.4-17.28 2.57-12.23-13.62-3.21-9.98-2.36-.53-.11-9.34-2.15-31.21-7.08-27.57-6.54-37.44-8.8-16.3-3.97-11.37-2.68-.76-.22-7.4-1.82-16.73-4.08-12.66-2.89-15.23-3.76-25.1-6.22-23.92-5.36-10.41-2.69-10.4-2.36-7.3-1.71-6.76-1.93-19.63-4.62-6.76-1.82 10.73-44.84 9.76-40.99 15.56-65.33 3.32-14.7 1.5-6.11 1.29-5.26 2.79-11.91 1.93-7.94 2.36-9.87.43-1.82 3-12.02 2.47-8.68 1.72-5.8 1.82-5.47 3.22-9.12 2.36-5.68 1.18-2.79 1.93-4.62.97-2.25 1.18-2.36 1.71-3.75 4.29-8.59 1.29-2.57 5.15-9.34 1.29-2.14 1.39-2.47 2.58-4.18 2.46-4.19 3.01-4.29 4.5-6.76 3.22-4.39 4.72-6.33 1.61-1.83 1.29-1.82 4.93-5.8 2.47-2.89 1.82-2.04 1.07-.97 4.08-4.5.75-.97 4.08-3.86 2.36-2.36 11.26-10.62 12.98-10.41 13.09-9.12 10.51-6.75 8.37-4.83 7.61-3.97 8.91-4.19 8.79-3.75 4.29-1.61 4.51-1.61 5.15-1.71 6.97-2.26 72.94-18.56 54.39-13.94 42.16-10.52 24.03-6.22-1.18-9.98-1.4-23.81-.43-5.58-.32-4.19v-.64l-.32-6.87v-4.93l.21-6.12.33-6 .32-4.51.53-4.83.97-6.97 18.56.32.75 11.91 2.14 27.36.54 9.12-2.68 1.18 3.11 10.62-.43 10.94-1.61 9.01 6.33-1.18 3.11-.96 5.69-1.19 6-1.6 1.72-.43 6.97-2.04.22 6.76 5.04-1.4 9.65-2.89 2.68-2.9 2.58-.86 13.84-3 5.04-1.29 3.32-1.07 9.34-2.15 11.9-2.9 5.26-1.39 23.6-6.22 42.69-10.41-.75-5.58-.86-6.97-.75-5.9-1.61-16.63-.1-10.3L975.2 943l1.82-12.66 2.79-15.34 3-9.55 1.72-3.21 2.25-2.79 2.25-1.29 4.19-1.83 13.41.65 101.58 14.8 43.45 10.3 1.07 13.09-34.33 37.33 35.4 10.3 4.51 2.79 18.66 5.69 28.11 9.33 2.04.54 1.18.43 25.53 8.69 5.47 1.82 5.47 2.15-2.04 3.64-5.04 9.23-1.5 2.68-2.47 5.15-1.5 3.97-1.5 4.08 21.99 7.4 1.07.32 10.62 3.76 45.8 15.98.97-3.11.96-2.47 1.29-2.36 1.61-2.14 3.43-3.33 5.8-5.04 6-4.51 9.87-6.54 58.25-39.37 12.23 15.12 16.09 19.74 2.68 3.12 2.57 1.82 2.79 1.29 3.54.75 3.33.64 4.4.54h2.36l2.46-.32 2.58-1.08 3.65-1.71 4.39-2.47 3.65-3.22 1.82 6.65.65 4.29.43 2.36.53 6.76v6.76l-.1 3.43-.22 1.83-.32 1.93-.21 2.04-3.87 16.95-1.6 7.94 4.18-.43 3.65-.75 3-.86 2.9-.86 3.54-1.4 5.68-2.14 1.29-.43 9.33-3.97 3.11-1.39 4.61-2.36 8.26-4.08 3.76-2.25 3.43-2.47 9.12-7.73 13.62-11.69 11.05-9.23 7.62-6.32 2.14-1.72 20.28-14.16 12.87-8.91 20.17-13.62 20.06-13.52 10.94-7.83 16.41-10.3 5.15-2.9 3.32-1.5 4.72-1.93 22.32-7.83 3.86-1.29 4.72-1.5 13.62-4.61 12.44-3.97 9.02-3.33 7.18-2.47 32.93-10.83 42.48-14.16 43.66-14.49 5.37-1.93 1.93 6.23.64 3.32.11 2.04.11 2.15-.11 2.14-.43 3.11-.54 2.68-.53 2.69-.22.64-3.86 15.56-7.08 28.64-.11.64-2.89 12.13-2.36 10.08-1.93 8.48-1.51 5.79-6.97 30.04-5.36 22.96-1.5 6.65-1.61 6.65-18.45 74.67-3.86 17.05-5.69 24.57-2.9 12.34-2.79 11.48-4.82 20.49-3.01 12.34-3.11 13.62-.86 3.65-3.96 16.52-1.29 5.15-4.83 20.38-5.04 21.35-1.93 7.73-9.33 39.8-4.72 19.74-.65 2.68-1.07 4.29-5.26 21.46-9.54 40.33-1.4 5.8-5.15 21.03-9.11 37.22-9.77 41.09-3.64 15.13-8.05 34.11-7.08 29.5-10.08 41.63-6.12 25.75-.64 2.47-6.97 30.03-2.79 11.48-6.22 26.07-7.94 33.69-4.19 16.84-3 12.12-10.19 43.13-6.22 25.43-19.85 82.6-6.75 29.18-7.19 29.72-7.08 29.72-7.08 30.36-7.19 28.96-1.5 6.01-6.11 24.57-8.37-1.93-3.76-.97-8.36-2.04-72.73-17.05-7.94-1.83-8.9-2.14-6.98-1.72-30.25-7.19-5.47-1.28-8.36-2.04-10.62-2.47-12.98-3.22-9.98-2.47-12.01-2.79-6.87-1.71-43.12-10.3-44.31-10.41-19.95-4.72-6.65-1.39-15.45-3.54-2.14-.54-21.24-5.26-21.35-5.25-5.79-1.4-12.44-3-3.65-.97-14.7-3.54-3.97-.96-11.47-2.36-6.98-1.83-19.73-4.61-18.88-4.5-16.63-3.97-22.74-5.58-39.8-9.66-39.37-9.01-2.79-.64-23.17-5.47-17.91-4.19-5.69-1.29-11.8-3-4.82-1.18-18.88-4.72-40.23-9.66-66.51-15.66-14.05-3.22-18.77-4.29-13.84-3z" stroke-linejoin="round"/></defs><use xlink:href="#a" fill="#9dc8ca" stroke="#9dd7f0" stroke-width="5.76"/><defs><path id="b" d="M103.41 2957.21l-17.92-4.29-26.28-6.33-9.97-2.47-12.66-3-3.33-.76-2.79-.64-2.25-.64 3.76-7.73 6.33-12.23 1.39-5.9 4.4-18.13 4.4-18.02 6.54-27.04 3.97-17.7 6.01-26.93 2.68-12.12 1.93-8.69 5.36-24.46 4.83-18.45 6.65-25.86 3.86-17.8 2.47-11.59 1.72-7.83 31.21 6.11 6.54 1.29 8.69-8.15 8.26 5.79 18.13 4.72 59.97 14.48 15.98 3.44 1.82.75 2.15 1.18.53 1.61v1.93l-10.19 41.3-3.86 16.74-7.18 28 26.92 4.61 5.9 18.88 57.6 14.27 15.77 27.79 2.15 3.75 3.54 5.58 1.71 2.25 2.9 3.01 1.61.96 2.57 1.61 3.22 1.83 5.37 2.25 3.11.86 5.47 1.61 8.58 2.14-2.9 11.8-2.03 8.48-2.26 9.12-4.4 17.59-2.25 10.08 1.29 5.48-3.76 16.3-.42 1.83-1.29 5.68-.86 3.33-4.83 20.7-3.43 14.7-8.58-1.72-10.51-2.14-.86-.22-23.17-5.47-36.15-8.47-30.25-7.51-26.07-6.12-25.85-6-46.77-11.27-34.22-8.15z" stroke-linejoin="round"/></defs><use xlink:href="#b" fill="#9dc8ca" stroke="#9dd7f0" stroke-width="5.76"/><defs><path id="c" d="M472.42 2731.92l.54-2.47 1.07-3.86.32-1.93.43-2.04.96-3.54.54-2.26 2.15-8.47.53-1.72 2.26-9.33 2.46-9.87 4.08-16.09.54-2.36.85-3.44-3.64-.85-7.41-1.72-1.39-.43-2.57-.64-2.47-.54-9.66-2.25-8.47-2.15-19.52-3.22-5.05-.64.43-1.82 2.04-10.3.32-1.83 2.69-11.37 2.68-11.26 1.71-6.87 2.58-11.37 4.07-15.99 3.97-15.66 1.29-5.36 1.93-7.62 4.83-20.17 10.62-42.91 3.75-15.34 14.59-61.69 1.5-6.44 16.2-67.26 10.51-42.81 6.65-27.78 6.33-26.72 8.05-34 4.5-18.46 14.92-61.47 2.03-8.69 4.94-19.85 4.18-16.84 2.58-10.4 2.68-11.38 1.39-5.47 4.83-19.63 8.58-37.23 2.79-12.23 3.65-15.98 3.43-12.55 4.18-5.37 1.4-7.4.53-2.25 1.18-4.62 4.72 1.08 23.07 6.11 4.07.86 4.72.97 8.05 1.82 7.19 1.72 4.72 1.07 3.96.86 3.22.75 3.33.86 3.11.64 5.47 1.07 2.47.54 3.22.86 9.11 2.36 8.48 1.93 16.2 3.65 3.21.96 3.44 3.76 7.72 1.93 13.84 3 18.77 4.29 14.05 3.22 66.51 15.66 40.23 9.66 18.88 4.72 4.82 1.18 11.8 3 5.69 1.29 17.91 4.19 23.17 5.47 2.79.64 39.37 9.01 39.8 9.66 22.74 5.58 16.63 3.97 18.88 4.5 19.73 4.61 6.98 1.83 11.47 2.36 3.97.96 14.7 3.54 3.65.97 12.44 3 5.79 1.4 21.35 5.25 21.24 5.26 2.14.54 15.45 3.54 6.65 1.39 19.95 4.72 44.31 10.41 43.12 10.3 6.87 1.71 12.01 2.79 9.98 2.47 12.98 3.22 10.62 2.47 8.36 2.04 5.47 1.28 30.25 7.19 6.98 1.72 8.9 2.14 7.94 1.83 72.73 17.05 8.36 2.04 3.76.97 8.37 1.93-1.08 4.51-.75 3.96-8.79 37.45-10.41 44.73-11.05 44.85-6.86 28.53-3.97 16.42-3.33 14.05-7.29 31.33-1.29 5.36-9.12 38.62-2.57 10.62-8.37 33.58-3.75 16.31-6.98 29.18-2.14 8.26-1.83 7.72-1.82 7.41-8.58 35.61-.97 4.4-1.82 7.51-1.61 6.76-1.5 6.55-2.15 9.54-.32 1.4-1.93 8.04-3.86 15.56-5.15 22.1-1.18 5.15-2.47 10.19-2.36 9.76-2.89 12.45-3.11 13.19-2.69 11.59-2.57 10.41-3.43 14.16-1.08 4.4-1.82 7.83-3.43 14.48-1.83 7.08-.85 4.08-1.29 5.47-4.61 18.99-1.4 6.01-.32 1.6-2.9 11.27-2.89 12.55-2.58 10.94-.1.33-4.29 18.02-.54 2.9-.86 3-1.39 6.54-9.23-.43-7.51-6.65-3.65-.86-5.36-1.28-12.33-2.9-9.66-2.25-8.9-2.04-6.55-1.5-11.9-2.9-6.22-1.39-2.15-.65-36.47-9.01-19.2-5.04-21.57-5.26-20.81-4.4-19.41-.1-38.08-6.76-39.91-12.13-36.04-9.54-4.72-.86-9.33-2.15-76.49-17.16-37.54-7.19-43.77-12.77-21.77-3.86-21.24-4.83-18.24-4.39-20.06-5.58-38.62-9.87-17.59-6.76-14.27-3.22-11.26-1.93-1.72-.75-3.96-1.93-4.83-3.65-14.48-3.54-15.34-3.65-6.33-1.72-6.33 2.04-12.12 3.87-11.69 3.75-7.41 2.47-3.75 1.28-8.69 2.9-8.9 2.79-33.79 9.98 4.61-26.82 2.36-11.16-35.19 5.69-1.82.32-20.38 3.11-7.94.75-5.47.54-3.97.43-14.8.96-13.3.32h-6.01l-.86-.1-4.4-.11h-2.46l-9.44-.32-4.4-.43-2.68-.32-2.58-.33-2.79-.43-1.5-.42-2.36 1.28-1.61-.64-1.82 3.65-.22.43-.53.53-2.04 2.58z" stroke-linejoin="round"/></defs><use xlink:href="#c" fill="#9dc8ca" stroke="#9dd7f0" stroke-width="5.76"/><defs><path id="d" d="M813.11 1038.16l1.61-9.01.43-10.94-3.11-10.62 2.68-1.18-.54-9.12-2.14-27.36-.75-11.91-18.56-.32.54-11.69 1.18-6.33 8.9-47.31 2.14-12.88.86-8.9.32-9.12-.1-9.66-.75-10.19-1.29-11.05-1.61-9.65-2.36-9.66-4.72-7.19-4.72-7.18-7.51-35.73 9.44 8.69 6.01 2.79 4.07 1.93 13.63 10.62 6.97 6.12 39.26 28.64 1.83 16.52 4.29-13.94 1.82-5.8.54-13.84.1-5.79 4.29-15.77 1.51-5.15 2.89-3.54 4.4-18.88 4.4-19.85 1.07-4.61 2.15-9.01 8.9-37.55 1.61-7.08 1.29-5.69 6.54-27.78 7.19-29.51 1.71-7.08 3.11-13.19 3.11-13.09 6.55-28.11.53-2.57 2.26-9.87.75-3.65 2.47-10.84 2.36-9.44 2.68-10.83 2.25-9.23 1.72-6.76 2.46-10.83.54-2.58 1.93-8.79 2.47-11.05.53-2.58-1.18-4.93 2.04-8.8 7.3-35.19 1.07-5.26.32-1.93 6.54-29.18.97-4.29 4.72-19.95 1.5-5.9 1.5-5.69.54-2.25 1.5-6.87 1.4-6.01 4.18-17.59.86-4.94 3.65-23.6 3.32-20.27 3.22-16.53-18.56-4.07-9.65-1.61-20.81-3.11-13.84-2.15-49.45-9.33-41.84-6.33-14.37-64.8-17.27-104.6 13.08-2.25 7.73-.97 6 .43 3.76 1.18 14.91 8.05 6.22 4.08 25.42 16.2 7.51 4.82 26.61 16.52 13.4 9.34 20.71 12.76 17.27 9.44 14.91 4.62 7.08 1.82 9.65 1.72 7.62.86 5.9.96 5.79.43 8.26 1.29 17.59 3 11.27 2.04 44.3 10.84 4.4 1.71 9.65 10.19 14.38 16.95 6.22 6.66 2.04 2.36 1.71-1.18 13.84-15.24 14.91 19.1 3.01.21 3 .22 10.73 3.11 4.39.96 8.8 2.04 5.04 1.61 8.69-1.39 1.93 3.97 2.9.32 6.76 1.71 11.47 2.04.54.86 4.83 1.61 3.11.32 4.5.43 4.62.75 3.54 2.9-.11 8.26-2.58 11.48 55.46 13.62 42.05 9.44 2.36-.75 1.93-.53 1.83.53 1.07-.32 1.29-.32 5.25-2.04 6.98-2.47 2.14 2.26 2.04 1.82 3.54 2.15 12.12 5.9 11.37 5.04 26.93 13.3 6.86 3.54 7.19.43 1.72-.21 2.03-1.4 1.72-1.82.97-2.15 1.61-6.33v-7.83l2.36-2.68-.22 2.47-.11 2.46-.1 2.58-.11 2.36-.43 19.85 1.93.43 3.22.42 3.43.11h12.77l10.62-.32 4.72-.54 8.47-1.71 8.58-3.11 6.87-3.12 13.19-4.61 9.87-.43 4.29.75 17.06 3.87 11.69 2.78 4.4 1.08 19.95 5.25 14.37 3.01 43.23 10.19 120.9 28.64 98.79 23.71 72.41 16.85 32.29 7.61 21.03 4.62 41.4 9.54 41.3 9.87 39.37 9.34 39.8 9.22 36.9 8.69 2.89-.53 101.38 23.17 23.59 5.79-7.93 32.72-6.33 26.29-8.15 33.58-1.83 7.83-10.08 40.44-9.76 40.34-7.19 29.72-7.83 32.72-4.61 18.67-3.01 12.01-2.79 12.55-1.93 7.51-1.93 7.62-.53 2.79-1.83 7.72-1.5 6.55-3.65 14.59-5.9 23.81-.53 2.36-3.22-.75-12.34-2.68-5.47-1.18-1.82-.43-1.5-.32-7.62-1.82-3.43-.75-4.19-.97-3.75-.86-9.23-2.36-5.57-1.5-4.19-.86-3.86-.75-3.54-.43-3.22-.21-4.5.1-4.29.11-3.33.54-2.9.53-2.68.54-2.68.86-15.45 4.83-8.79 2.79-28.75 9.44-3.33-.86-3.86 1.18-8.04 3.11-4.08 1.39-7.94 3.54-6.11 2.58-.97.43-4.18 1.93-5.58 2.68-6.97 2.58-3.11 1.07-22.64 7.62-34.54 11.58-32.39 10.95-21.78 7.4-6.33 2.14-51.27 16.95-5.37 1.93-43.66 14.49-42.48 14.16-32.93 10.83-7.18 2.47-9.02 3.33-12.44 3.97-13.62 4.61-4.72 1.5-3.86 1.29-22.32 7.83-4.72 1.93-3.32 1.5-5.15 2.9-16.41 10.3-10.94 7.83-20.06 13.52-20.17 13.62-12.87 8.91-20.28 14.16-2.14 1.72-7.62 6.32-11.05 9.23-13.62 11.69-9.12 7.73-3.43 2.47-3.76 2.25-8.26 4.08-4.61 2.36-3.11 1.39-9.33 3.97-1.29.43-5.68 2.14-3.54 1.4-2.9.86-3 .86-3.65.75-4.18.43 1.6-7.94 3.87-16.95.21-2.04.32-1.93.22-1.83.1-3.43v-6.76l-.53-6.76-.43-2.36-.65-4.29-1.82-6.65-3.65 3.22-4.39 2.47-3.65 1.71-2.58 1.08-2.46.32h-2.36l-4.4-.54-3.33-.64-3.54-.75-2.79-1.29-2.57-1.82-2.68-3.12-16.09-19.74-12.23-15.12-58.25 39.37-9.87 6.54-6 4.51-5.8 5.04-3.43 3.33-1.61 2.14-1.29 2.36-.96 2.47-.97 3.11-45.8-15.98-10.62-3.76-1.07-.32-21.99-7.4 1.5-4.08 1.5-3.97 2.47-5.15 1.5-2.68 5.04-9.23 2.04-3.64-5.47-2.15-5.47-1.82-25.53-8.69-1.18-.43-2.04-.54-28.11-9.33-18.66-5.69-4.51-2.79-35.4-10.3 34.33-37.33-1.07-13.09-43.45-10.3-101.58-14.8-13.41-.65-4.19 1.83-2.25 1.29-2.25 2.79-1.72 3.21-3 9.55-2.79 15.34L975.2 943l-1.18 12.66.1 10.3 1.61 16.63.75 5.9.86 6.97.75 5.58-42.69 10.41-23.6 6.22-5.26 1.39-11.9 2.9-9.34 2.15-3.32 1.07-5.04 1.29-13.84 3-2.58.86-2.68 2.9-9.65 2.89-5.04 1.4-.22-6.76-6.97 2.04-1.72.43-6 1.6-5.69 1.19-3.11.96-6.33 1.18z" stroke-linejoin="round"/></defs><use xlink:href="#d" fill="#6bacaf" stroke="#6bb4d2" stroke-width="5.76"/><defs><path id="e" d="M2549.71 2405.78l-9.44-2.14-2.46-.54-8.05-2.04-5.47-1.39-6.97-1.83-8.26-2.14-6.22-1.5-10.09-2.69-2.25-2.36-7.94-2.03-7.18-1.61-1.72-.43-3.54.96-2.15-.43-5.9-1.39-34.11-7.83-24.78-6.01-4.72-1.18-5.36-1.29-5.79-1.5-7.08-1.72-5.15-1.18-4.19-.96-24.35-5.9-35.61-8.37-5.04-1.18-6.01-1.5-28.64-7.08-5.79-1.51-8.8-2.14-9.55-2.25-19.73-4.72-5.37-1.29-8.47-1.93-14.48-3.44-10.52-2.46-42.15-9.98-13.63-3.33-9.65-2.36-5.04-1.18-14.59-3.43-4.4-1.07-3.75-3.65-48.6-12.12-10.4-2.79-10.62-2.68-5.37-1.4-14.16-3.75-9.33-2.36-2.14-.65-11.8-2.57-10.95-2.47-18.66-4.18-4.51-.97-8.26-1.93-17.05-3.75-12.34-2.36-1.93-.33-4.61 1.51-3.22-.86-11.91-2.9-15.77-3.75-12.12-2.9-96.54-23.39-13.19-3.22-8.69-2.04-7.08-1.71-1.83-.43-4.61-1.18-2.57-.54-8.91-2.14-26.6-6.44-6.54-1.5-12.98-3.11-25-5.9-40.76-10.09-18.13-4.4-12.76-3 6.11-24.57 1.5-6.01 7.19-28.96 7.08-30.36 7.08-29.72 7.19-29.72 6.75-29.18 19.85-82.6 6.22-25.43 10.19-43.13 3-12.12 4.19-16.84 7.94-33.69 6.22-26.07 2.79-11.48 6.97-30.03.64-2.47 6.12-25.75 10.08-41.63 7.08-29.5 8.05-34.11 3.64-15.13 9.77-41.09 9.11-37.22 5.15-21.03 1.4-5.8 9.54-40.33 5.26-21.46 1.07-4.29.65-2.68 4.72-19.74 9.33-39.8 1.93-7.73 5.04-21.35 4.83-20.38 1.29-5.15 3.96-16.52.86-3.65 3.11-13.62 3.01-12.34 4.82-20.49 2.79-11.48 2.9-12.34 5.69-24.57 3.86-17.05 18.45-74.67 1.61-6.65 1.5-6.65 5.36-22.96 6.97-30.04 1.51-5.79 1.93-8.48 2.36-10.08 2.89-12.13.11-.64 7.08-28.64 3.86-15.56.22-.64.53-2.69.54-2.68.43-3.11.11-2.14-.11-2.15-.11-2.04-.64-3.32-1.93-6.23 51.27-16.95 6.33-2.14 21.78-7.4 32.39-10.95 34.54-11.58 22.64-7.62 3.11-1.07 6.97-2.58 5.58-2.68 4.18-1.93.97-.43 6.11-2.58 7.94-3.54 4.08-1.39 8.04-3.11 3.86-1.18 3.33.86 28.75-9.44 8.79-2.79 15.45-4.83 2.68-.86 2.68-.54 2.9-.53 3.33-.54 4.29-.11 4.5-.1 3.22.21 3.54.43 3.86.75 4.19.86 5.57 1.5 9.23 2.36 3.75.86 4.19.97 3.43.75 7.62 1.82 1.5.32 1.82.43 5.47 1.18 12.34 2.68 3.22.75-1.61 1.18-.75 3.65-2.47 10.52 4.4 5.68-1.83 5.58-3.43 10.94-5.9 6.76-3.65 21.67-1.71 4.62-1.72 3.75-3.43 14.7 6.22 1.18 4.72.96 5.69 2.47 2.68.75 7.29 1.18 3.43.97 4.72 1.18 5.69 1.18-.43 1.39-.11.43.22.22.32.21 38.08 8.58 4.08-.96-6.44 24.14-4.5 19.2-6.66 25.96-4.72 20.28-10.29 44.73-10.62 43.77-5.26 22.96-6.22 25.54-3.43 14.16-6.65 28.1 61.89 14.6 18.77 4.39 2.79.75 79.17 18.14 76.16 18.45 4.93 1.61 10.62-44.63 10.62-45.38 11.16-44.52 11.05-46.35 41.41 10.3 39.9 9.01 57.71 14.16 8.26 1.83 6.44 1.5 17.7 3.97 7.29 1.5 12.12 2.9 21.14 5.36 32.39 7.19 68.65 16.63 12.34 2.89-11.26 46.56-7.62 31.11-3.11 13.2-10.73 44.84-10.83 45.28-3.76 16.3-6.32 27.36-8.05 33.47-2.79 11.27-2.36 9.33-6.44 24.89-2.46 9.44-8.37 33.36-3.22 12.99-3.43 14.26-4.72 21.03-2.47 10.84-8.69 34.54-2.68 10.62-2.36 9.98-5.47 23.39-2.57 11.15-5.26 21.14-4.61 18.66-1.18 6.12-3.11 12.77-2.79 11.48-2.58 9.97-5.47 23.5-6.86 28.53-2.58 10.3-2.46 11.7-7.41 32.5-6 26.29-2.9 12.55-3 12.12-5.37 22.21-8.26 34.86-2.25 9.34-2.57 10.73-10.52 43.87-6.54 27.58-4.18 18.45-3.11 13.3-10.95 44.84-.96 3.97-2.68 11.05-3.65 15.56-8.9 36.26-1.18 5.36-7.08 30.15-.75 2.9-3.87 15.77-2.89 13.73-9.66 39.16-15.34 63.4-4.07 16.95-3.54 14.59-3.22 13.09-4.51 18.45z" stroke-linejoin="round"/></defs><use xlink:href="#e" fill="#09757a" stroke="#097d9b" stroke-width="5.76"/><defs><path id="f" d="M1610.56 3317.46l-49.02-11.59 6.22-24.46 4.61-21.67 4.72-13.52.97-3.64 2.14-3.65 7.19-18.88 3.86-1.29 2.79-.97 4.93-2.03 1.4-.65 3.97-.86 2.25-10.72 5.15-3.33-8.69-59.86-2.36-13.41.75-2.26 10.84-33.9 12.33-46.34 4.94-24.89 4.29-19.1v-2.57l-.97-2.04-1.07-.86-1.18-.75-75.95-17.49 5.9-24.56 3.65-14.38 1.5-5.79 1.07-4.83-16.41-3.86-1.93-.43-36.36-8.69-48.17-11.48-21.77-5.04-14.49-3.87-20.06-5.25-3-.86.86-3 .54-2.9 4.29-18.02.1-.33 2.58-10.94 2.89-12.55 2.9-11.27.32-1.6 1.4-6.01 4.61-18.99 1.29-5.47.85-4.08 1.83-7.08 3.43-14.48 1.82-7.83 1.08-4.4 3.43-14.16 2.57-10.41 2.69-11.59 3.11-13.19 2.89-12.45 2.36-9.76 2.47-10.19 1.18-5.15 5.15-22.1 3.86-15.56 1.93-8.04.32-1.4 2.15-9.54 1.5-6.55 1.61-6.76 1.82-7.51.97-4.4 8.58-35.61 1.82-7.41 1.83-7.72 2.14-8.26 6.98-29.18 3.75-16.31 8.37-33.58 2.57-10.62 9.12-38.62 1.29-5.36 7.29-31.33 3.33-14.05 3.97-16.42 6.86-28.53 11.05-44.85 10.41-44.73 8.79-37.45.75-3.96 1.08-4.51 12.76 3 18.13 4.4 40.76 10.09 25 5.9 12.98 3.11 6.54 1.5 26.6 6.44 8.91 2.14 2.57.54 4.61 1.18 1.83.43 7.08 1.71 8.69 2.04 13.19 3.22 96.54 23.39 12.12 2.9 15.77 3.75 11.91 2.9 3.22.86 4.61-1.51 1.93.33 12.34 2.36 17.05 3.75 8.26 1.93 4.51.97 18.66 4.18 10.95 2.47 11.8 2.57 2.14.65 9.33 2.36 14.16 3.75 5.37 1.4 10.62 2.68 10.4 2.79 48.6 12.12 3.75 3.65 4.4 1.07 14.59 3.43 5.04 1.18 9.65 2.36 13.63 3.33 42.15 9.98 10.52 2.46 14.48 3.44 8.47 1.93 5.37 1.29 19.73 4.72 9.55 2.25 8.8 2.14 5.79 1.51 28.64 7.08 6.01 1.5 5.04 1.18 35.61 8.37 24.35 5.9 4.19.96 5.15 1.18 7.08 1.72 5.79 1.5 5.36 1.29 4.72 1.18 24.78 6.01 34.11 7.83 5.9 1.39 2.15.43 3.54-.96 1.72.43 7.18 1.61 7.94 2.03 2.25 2.36 10.09 2.69 6.22 1.5 8.26 2.14 6.97 1.83 5.47 1.39 8.05 2.04 2.46.54 9.44 2.14-1.61 6.33-2.03 8.37-3.44 13.3-5.79 23.93-1.07 4.29-4.08 17.27-8.47 34.44-5.69 23.92-11.15 47.1-12.02 48.92-15.66 64.9-6.01 25-3 12.34-6.65 27.68-5.47 22.95-5.04 20.28-9.12 38.08-9.12 37.66-9.12 37.87-2.79 11.91-6.43 26.28-9.12 37.77-6.97 28.96-18.35 75.1-4.29 17.81-.86 3.22-.75 3-26.06-6.22-14.16-3.11-14.59-3.65-8.15-2.04-47.42-11.48-35.5-9.01-12.23-2.68-4.62-1.08-4.18-.96-18.24-4.29-11.15-2.9-31.11-8.26-18.56-4.29-24.35-5.58-31.96-7.72-19.85-4.62-8.58 36.16-4.83 20.7-7.61 30.58-4.3 17.16 6.87 1.4-3.22 13.3-20.06 79.28-4.83-3.75-1.39 5.25-1.5 7.3-2.15 9.44-5.68-.54-2.68 12.23-2.58 10.3-1.39 5.47-1.5 6.12-3.33 13.84-1.82 8.04-.65 3.44-1.07 4.29-.64 2.68-.86 3.86-.86 2.9-1.07 5.36-5.37 19.53-2.36 8.58-2.79 11.69-1.39 5.37-.43 1.82-.64 2.68-2.04 8.37-9.33-2.36-14.59-3.43-15.88-3.65-27.14-6.01-3.86-.75-16.09-3.65-21.24-4.61-12.44-2.79-13.73-3.43-6.98-1.72-16.3-3.65-41.62-9.54-108.77-25.86-9.66-2.14-34.54-8.37z" stroke-linejoin="round"/></defs><use xlink:href="#f" fill="#004249" stroke="#00465f" stroke-width="5.76"/></svg>