<svg width="384" height="4.74in" viewBox="0 0 2880 3411" xmlns="http://www.w3.org/2000/svg" xmlns:xlink="http://www.w3.org/1999/xlink"><path fill="#fff" d="M0 0h2880v3411H0z"/><defs><path id="a" d="M2826.81 1560l.1.96-.32.43-.42.1-4.05.32-2.67 1.17-2.34 2.03-1.07 1.07-2.66 5.11-5.33 11.83-.54 2.88v1.28l.54 3.84.21 3.73.32 2.56.53 2.45.11 4.16-37.84-2.46-.32.32-.43.22-2.99.64-10.55.85-5.12.64-8.42.96-6.5.53-9.49 1.07-1.49.1h-.75l-.64-.1-.53-.11-.96-4.58-.64-2.67-.1-.53-.32-.75-.11-.42-.21-.54-.43-.64-1.17-1.59-.64-.96-.22-.32-.53.21-1.6.64-.42.11-11.62 3.73 2.34 10.34-.53.21-.53.21-.64.11-.86.11-.96.21-1.28.11-4.9.53-3.62.42-1.82.11-1.59.21-8.75 1.07-3.83.43-11.3 1.28-2.67.21-12.15 1.28-12.37 1.49-1.27.11-1.39.1-9.38 1.07-3.31.32-19.29 1.81-12.37 1.17-8.31.75-6.4.64-6.07.64-7.14.64-1.71.21-6.4.54-7.56.74-12.37 1.28-6.5.64-4.48.32-2.88.21-3.2.22-2.77.21-7.67.64-1.5.11-10.02.53-4.26.21-14.5.96-14.5.85h-1.06l-15.56.86-4.48.32-5.12.32-5.75.32-13.97.85-5.12.32-9.16.42-.54-5.54-.21-2.66-.43-3.95-1.28-14.39-2.13-23.45-2.88-31.87-2.55-28.35-1.18-13.01-.74-7.99-.11-1.92-.32-2.77-.53-5.76-.64-7.03-1.07-11.84-2.24-24.94-3.09-34.32-.64-7.46-.74-8.74-.64-6.83-.96-11.4-1.07-11.94-.32-3.52-.64-7.03-2.02-22.71-2.99-33.36-3.3-33.26-.22-2.66-1.7-18.12-.53-6.19-.54-5.54-.1-.85-.11-1.07-.75-7.89-1.28-11.61-1.06-11.62-2.56-27.5-.43-4.69-.74-8-.75-9.06-.21-1.7-.64-7.79.64-1.7-1.28-16.42v-.74l-1.6-18.55-.32-3.31-.85-9.06-.22-2.66-.64-7.25-.32-3.09-.32-4.48-.32-2.66-.32-3.41-.32-4.16-.31-2.56-.54-5.97-.32-3.41-.21-2.98-.75-8.96-.21-2.34-.53-5.54-.32-3.1-.64-6.6-.54-6.08-.74-8.53-.11-1.17-.53-4.8-.21-2.66-.86-9.92-.53-5.65-.75-8.1-.42-4.26-.43-4.69-.64-6.29-.53-5.33-.54-5.44-.53-4.26-.32-2.34-.42-4.05-.11-.96-.53-.86-.54-5.97-.21-1.91-.11-.75-.64-7.14-.32-3.31-.42-5.01-.32-2.98-.22-2.03-1.49-17.26-1.06-12.05-.64-6.82v-.64l-.43-5.33-.21-1.71-.11-.85v-.96l-.11-1.06-.1-1.39.32-.85-1.07-15.14-.53-5.86v-.54l-.22-2.66-.21-2.66v-.54l-.53-5.22-1.92-16.74-.32-3.51-.32-.32-.43-5.12-.1-2.24-2.13-23.56-.43-4.47-.53-7.14-.54-5.55-.1-1.81-1.92-22.06-.64-7.68-.54-5.76-1.17-12.57-.74-8.32-.75-7.57-.64-6.39-1.17-10.23-.43-3.42-1.28-11.93-.42-3.31-.32-3.3-.32-2.88-1.07-10.45-.11-1.38-.42-5.55-.43-6.39-.11-1.92-.32-4.48-.32-5.43-.1-1.28v-1.6l-.32-6.29-.53-10.34-.64-12.04-.22-6.61-.21-2.99v-1.49l-.32-5.44-.11-7.35v-5.44l.32-4.26.75-8.53.43-4.37.31-4.48-.1-2.34-.11-3.09-.42-2.67-.32-1.17-.75-2.35-.85-2.45-1.07-2.34-.53-.96-1.92-4.05-8-15.88-6.18-12.05-6.08-11.62-4.69-9.59-4.15-8.1-1.07-1.71-5.01-9.27-2.34-4.05-2.14-4.05-3.62-7.68-3.2-6.82-.74-2.13-.86-2.45-.74-2.56-1.18-4.27-6.29-23.02-1.7-5.33-.64-2.77-.32-1.92-.32-1.81-.43-2.67-.21-2.55-.21-2.14-.22-2.87-.1-5.23v-5.86l.1-2.35.43-5.43 1.07-10.66.74-10.13.64-13.96.32-6.93.53-13.75.32-6.4.64-8.31.22-1.39.32-2.13.42-1.6.54-2.02.74-1.92.96-1.92 1.28-2.13.85-1.28 3.95-5.54 1.7-2.67.64-1.17.64-1.39.54-1.38.53-1.39.53-1.81.32-1.71.32-1.38.21-2.03.11-1.91v-1.18l-.11-2.56-.1-.96-.22-1.17-.32-1.28-.21-1.06-.21-.86-4.69-18.44-.32-.96-.21-1.06-.32-2.88-.11-1.7-.11-1.39-.1-1.81v-3.63l.21-7.03.32-7.25.42-6.18.11-2.03.21-1.38.22-1.07.1-.85.22-1.18.42-1.7.75-2.88.43-1.7.74-2.35 1.28-4.37.96-2.88.96-3.3.53-1.39.54-1.81 2.13-6.82.43-1.28.21-.96.21-1.28.21-1.17.32-2.56v-1.39l.11-1.17v-1.38l-.11-4.05-1.17-13.97-1.6-19.51-.42-4.05 16.09-2.02 33.9-4.26.96-4.59.11-.74V77.6l-.22-1.92-.53-6.07-.74-8.43-1.5-15.13-.64-9.28 3.31-.1 23.34-1.17 7.04-.32 8.63-.32 5.65-.11 21.32-1.17.86 10.12 1.49 18.55.32 5.33.74 9.91.75 9.92h.96l10.66-.54 3.41.22v18.33l3.09-.32h1.92l.64.21.64.22.85.42 4.8 3.42.64.31.64.11h.64l1.7-.21 1.92-.21 1.92-.43 1.92 8.95 10.55 29.53 2.24 5.44 1.82 2.66 1.27.64 10.13.64 3.95 15.99-1.5 7.67v4.16l.43.96 3.41 4.16 7.14 3.3 3.63 1.81 1.92 3.63 6.82 4.47 2.45 2.35 1.17-.75 3.52-5.33 2.03-4.58 6.82-.85 20.15-1.49 3.09-1.5 1.17 7.36.53 3.94.22 3.31.1 4.47.11 1.82v9.16l.11 4.91v.64l.53 8.1.42 5.22.32 4.48.75 14.71.11 14.39.42 7.24.86 9.81 10.66-.96 9.38-.96 2.45-.32 11.41-1.06h.32l15.13-1.6 5.55-.53 27.07-2.88 20.68-2.13 1.07-.11 10.66-.96 9.38-.96 14.82-1.39 8.95-.85 4.69-.42 2.35-.32h.85l1.28-.11.74-.11 2.03-.21h6.08l3.09-.11h.53l1.28.22 1.17.42.85.64.54.53 5.43 7.57-.85 2.13-.96 3.42-.85 4.9-1.71 16.31-4.15 23.66-.86 2.03-1.17 3.94-.43 4.48.54 7.14-.11.85-.32.64-1.49.75-2.99.1-1.49-.42-.21.21 1.17 3.31.11.85-.11.32-2.02 2.77-.11.53.11.43.96.53.21.75-1.81 3.52-1.18 2.98-.85 3.3-1.07 2.67-1.59 2.13-.43 1.28-.85 2.99-.86 5.75.54 17.7-.32 1.38-.96 2.03-.86 3.73-.53 3.3-.74 2.99-1.18 4.05-.74 4.26-.86 1.39-.21 1.06-.21 2.35v1.92l.21 2.23-.53 1.5.32 1.06 1.6 1.71.32 1.17.1 1.49-.85 7.15-.21 1.59-.54 1.71-.53.75-1.81 2.02-.85 1.6-.75 3.73-.43 1.39-1.28 2.45-.32 1.06.22 2.24-.43 1.49-.64 3.1v4.69l.96 8.42 1.39 7.67.64 2.56.1.75-.21.53-.75 1.28-1.38 1.38-.75 1.71-.53 2.34-.32 4.37.11 2.56.74 7.57.43 3.31 1.49 5.22.11 1.38-1.39 2.88v.86l.21 1.27.43 1.07.21.96-1.17 5.54-.32 2.56.32 4.37.64 11.3.11 4.9-1.28 5.44-.75 1.07-.1.96.1 5-.1 1.39-.54 1.92-.1 7.99v2.46l-.43 2.02-.64 1.39-.43 2.45.11 3.52-.21.42-2.24 5.23-.53 2.45-.11 2.66.85 8.74 1.28 7.25 3.2 10.55.43 2.56.1 2.24-.53 2.56-.21 4.48.21 4.47 1.6 5.97-.22 2.35-.1.96.1 2.98 1.28 5.76-.1 5.65.21 1.38.85 2.56.32.75.11.74-1.07.86v.74l.54 2.56.21 4.26.96 2.35v.74l-.32.32-.75.43-.42.53.1 3.73-.32.96-.21.32-1.71.43-1.27.53-.64 1.07-.43.96-.43 2.13v2.98l.22 2.03 1.28 5.12.21 1.49-.11 3.62-1.38 6.19-1.18 6.71-1.81 9.81-.96 7.03-.1 1.92v9.7l-.64 4.8-.22 3.73-.32 3.73.11 3.84-.43 2.45-.21 2.34-.85 3.1-1.18 5.64-.21 5.44v1.81l.11 4.69v5.33l-.22 2.77.86 6.19.21 4.58-.21 1.39-.75 1.49-3.41 5.97-.53 1.49-.22 1.71v8.52l1.28 17.59.86 25.69 1.28 17.27.85 8.42 1.06 7.78.75 10.34.53 3.41 1.71 12.37-.53 3.73-.22 2.87v8.53l.11 1.92 1.07 12.05 2.02 9.06-.53 2.02v.96l.53 2.88 4.69 18.97.11.75-.64 2.13-.32 1.6 1.38 10.13.64 3.62 2.67 8.21.11 1.28-.43 1.17-.11 1.6 2.24 7.78.85 4.58 2.67 18.44.53 2.03 2.35 7.03 1.17 3.95 3.84 16.95 3.19 12.68 3.74 11.83.42 1.28.43.86.53 1.38 6.29 16.42 2.56 4.69.85 2.87 1.92 3.63 1.6 5.22 1.71 3.95 2.87 8.84 1.82 4.48.85 3.3 1.92 5.55 1.28 5.54.64 2.77.32 1.07.42 2.02 1.28 8.42 1.71.11.64.32.53.43.21.21.75 2.34 5.12 21.43 3.73 17.59 4.26 17.16 5.86 26.22 2.24 8.64 3.73 16.41.96 5.01-.1.85-.54.43-7.03.85-.64.96-.85 2.24.21 8.42.96 8.64.64 1.81 1.92 3.84 2.87 7.24 3.84 9.28 2.77 7.89 2.14 5.64.53.86 1.6 1.81 1.06 1.39.96 1.7 1.5 2.24 2.87 5.54 3.31 4.91 1.49 1.59 2.45 3.52 1.81 1.81 1.39 2.03 1.28 2.56 2.66 3.41 3.2 3.3 1.5 3.41 2.87 3.2 1.07 1.71 2.13 4.37 1.39 2.98 6.93 8.74 2.13 2.35 5.75 7.35.96 1.6.64 1.07.75.32 1.28.1 12.26-2.55 20.04-3.42.21.32v.32l.11.86-.11.32-19.51 3.51-14.49 2.35-11.73 2.03-5.12.42-6.71 1.17-33.37 5.65-1.06-2.13-7.25-13.96.42-.43 2.99-1.38v-.43l-1.28-4.37-.32-.43h-.11l-4.79.32-.64-.64-.54-.32-4.58-11.51-.53.11-5.44 3.3-3.41 1.28-1.17-1.17-.11-.43.85-.85-.21-.53-3.09-2.78-.54-.95-1.7-5.97-.11-1.18v-.21l.11-1.07 1.6-1.7 1.6-1.17 1.7-8 1.39-4.47 5.65-23.67-.21-2.98-.11-.64 2.77-26.22-.11-.54-.74-.42.21-2.35-.11-.64-2.87-.43h-.43l-1.49-.21-.11.75-1.49-.11-.32.21-1.07 6.72-1.06 2.98-.96 4.16-.32.64-1.5.32-1.06 8.21.11 1.06.21.22-.11 1.49.11.53.85.54-.96 6.5v.42l.32.32.21.54-1.06.64-.64 4.58-1.28 4.8-.21 1.81.53.96-2.13 7.35-1.49 4.37-1.07 3.73-.43.54-2.13-1.07-.96 2.45-1.17.64-.32.43.11 1.81v.64l-1.39-.43-.32.11-1.49 5.76.21.42 1.92 1.18 2.45.85h.32l.96.85 1.92 4.05 1.07 1.6 2.34 2.67.43.96.21 1.38.43.53 4.69 5.23.21.1.64-.42.53.1 2.56 3.1.32.63v.43l.11 1.39-.64 5.11-5.97 20.04-.11 3.95.11 3.09 3.73 4.58.64.21 1.39-.1 23.34-4.8 4.58-1.06 13.65-2.56 9.06-2.03 19.19-2.88 9.59-.64 3.95-.53 2.45-.42 13-2.56 3.95-.54 11.62-2.02 8.31-1.28 6.93-1.28h.96l.21.32.11.75-.11.42-1.92.54-.1.21-.11.85 2.56 29.74.43 5.22 1.49 14.71.21 3.2-.21.85-.32.64-.53.32-7.25.43-8.11.85-.42.54.85 14.17.21 6.4.11 2.45.75 10.66.32 6.82-.43 2.99-.64 2.02-.75 1.71-.95 1.06-2.46 2.35-2.02 1.17-3.63.53-1.28-.32-.32-.32-.21-1.06.21-.53.43-.32 4.16-1.28 1.38-.64.96-.75 1.71-2.13.96-2.45.43-2.67v-.96l-7.89.11z" stroke-linejoin="round"/></defs><use xlink:href="#a" fill="#9dc8ca" stroke="#6bb4d2" stroke-width="5.76"/><defs><path id="b" d="M2558.07 2433.75l-.85.21-12.37.64-4.16.21-5.01.22-11.94.53h-1.38l-11.51.21-.11-.96-2.88-27.6-1.38-13.86-1.6-14.07-1.6-13.54-2.99-29.31-1.28-12.26-14.28-12.04-.64-8.32-8.85.43-1.6-19.3-1.92-23.87-.53-7.25-3.09-39.87-.85-10.87-2.67-32.3-.85-11.72-.43-4.48-.96-11.62-.96-11.62-.85-11.62-1.07-11.62-1.17-7.14-1.28-5.43-1.6-5.97-1.7-5.87-1.71-5.86-1.49-5.11-1.17-4.69-.96-4.69-.85-4.8-.64-5.01-.75-7.36-.75-8.1-.42-4.26-.43-3.84-3.41-32.72-2.99-30.17-3.19-30.38-3.2-30.7-1.17-11.3-.96-8.52-1.6-16.85-.85-7.99-.64-7.89-.32-2.98-2.03-18.55-1.49-15.67-.75-7.99-.53-6.72-.11-1.49-.21-1.71-.96-7.46-1.81-18.23-1.6-15.77-.75-7.14-2.56-24.41-3.19-30.81-2.03 1.6-2.34.53-1.6.43 5.65-5.22-.96-8.85-1.07-10.66-.85-9.38-2.77-28.04 9.16-.42 5.12-.32 13.97-.85 5.75-.32 5.12-.32 4.48-.32 15.56-.86h1.06l14.5-.85 14.5-.96 4.26-.21 10.02-.53 1.5-.11 7.67-.64 2.77-.21 3.2-.22 2.88-.21 4.48-.32 6.5-.64 12.37-1.28 7.56-.74 6.4-.54 1.71-.21 7.14-.64 6.07-.64 6.4-.64 8.31-.75 12.37-1.17 19.29-1.81 3.31-.32 9.38-1.07 1.39-.1 1.27-.11 12.37-1.49 12.15-1.28 2.67-.21 11.3-1.28 3.83-.43 8.75-1.07 1.59-.21 1.82-.11 3.62-.42 4.9-.53 1.28-.11.96-.21.86-.11.64-.11.53-.21.53-.21-2.34-10.34 11.62-3.73.42-.11 1.6-.64.53-.21.22.32.64.96 1.17 1.59.43.64.21.54.11.42.32.75.1.53.64 2.67.96 4.58.53.11.64.1h.75l1.49-.1 9.49-1.07 6.5-.53 8.42-.96 5.12-.64 10.55-.85 2.99-.64.43-.22.32-.32 37.84 2.46.21 1.17.11 3.41.64 2.56.21 3.94.64 8.64.21 4.37.22 2.34.64 1.71.1.53-.1.32-.64.43-.54.74-.32-.1-.21-.54-2.02-21.53-.11-.53-.32-.11h-.21l-.22.53.22 2.56-.32.64-.75.96-.21.64.1.43 1.18 1.28.21.53-.11.53-.21.43-1.28 1.28h-.96l-4.37-2.13-3.3-1.07-1.07-.21-6.93.1-.43.11-8.2 8.74v.32l.42 2.88-.1.53v.75l2.66 8.84 1.92 5.55 1.17 1.06.64 1.5 2.56 8.42.53 1.17.32.64 1.49 4.37 1.18 5.97v1.06l-.64.86-.11.74.11 1.07.53.96.43.53.96.53.64.64 5.11 11.62 1.18 3.31.85 3.73 1.6 10.98.42 1.28.43 2.45.32 4.05-.11 1.49-.96 1.71.22 3.19v.64l-.86 1.5-.1 3.83-.43 3.2v1.39l.21 1.06.22.64 2.77 4.59.32 1.17.21 3.09-.21.75-1.28 3.41-.43 2.02.22 1.6.74 2.56v1.07l-.21.21-.75.11-.42.63.64 2.24 2.34 3.2.32.64 1.17 5.54 1.07 2.88 4.26 7.04 2.03 2.87 1.49 1.71 1.39 2.13.32.85v1.18l-.32.42-.85.22h-2.46l-.32.21-.53 1.17.53 7.78 1.07 10.45.11 2.98-.22.43-1.49 1.71-.64.85-.43.96-.1.85.32 2.35.53 1.49.64 1.17 1.28 1.6 2.24 3.84.53 1.7.75 3.84 1.28 9.38 2.77 24.84.85 4.9.85 3.84 2.56 6.93.11.96-.21.96-.75.53-.64 1.17-.21 1.71.21 3.83.43 3.09.32 1.28v.22l.1 2.13-.42 2.13-.22 1.6v2.02l1.28 8.96.32 8.85 1.6 8.95.43 5.76.32 1.7.96 2.45.32 3.31.21 1.28.43 1.28 3.62 7.67.85 1.17.54.22 1.81-.11.32.21.64.75.42 1.28.54 3.3-.86 4.05-.96 5.12-.31.85-.43.43-.53.32-2.99-.43-1.49.11-.96.32-.43.74-.32 1.28v1.82l.75 7.88.53 4.16.22 2.88-.22 1.81-.64 1.92-3.09 6.4-.43 1.91v2.67l.54 2.66.85 3.1.32 2.45v2.34l-.21 1.49-15.25 1.07-14.17-.21-3.1-.75-.64 1.6-.74 1.07-1.07.53-1.28.32-5.43.42-43.18 2.56v13.22l-.1 4.37.1 9.38.11 7.14.11 4.59.1 2.77.11 2.77.43 8.31.32 4.91.32 4.69.64 7.25.53 5.64 2.45 26.23 2.88 29.2.32 3.31 2.98 30.7 1.28 13.32 2.67 26.76 1.28 13.32 1.38 13.43 1.71 10.98 2.34 14.71 2.14 12.47 1.06 4.69 1.07 4.48 1.28 4.26 1.49 4.37.75 2.03 1.06 2.77 3.63 10.23 2.87 7.78.64 2.14.32 1.7.11 1.71-.11 1.7-.21 1.6-.21.64-.22.96-.74 1.49-.75 1.39-1.06 1.38-1.28 1.39-1.5 1.28-1.06.85-1.39.96-1.49.96-1.28.85-2.77 1.6-1.81.85-1.39.64-1.39.54-2.45.85-1.92.43-.85.21-3.2.53-4.05.43-4.05.21-11.4.75-13.97 1.06-5.33.43-1.38.11h-1.5l-8.21.64-17.26 1.17-15.89 1.17-16.09 1.07-3.95.21-3.94.32-2.13.11-5.87.42-8.74.64-34.43 2.45.32 2.35.21 2.98.32 3.42.22 1.7.1 1.6.22 1.92v3.3l-.22 1.5-.1 1.27-.32 1.28-.22 1.28-.53 1.39-.43 1.17-.53 1.17-.53 1.07-.54.75-.74 1.17-.85 1.06-1.18 1.5-1.49 1.6-2.66 2.98-9.49 10.77-3.63 4.05-9.48 10.66-1.39 1.38-1.6 1.28-1.7 1.17-1.82.86-1.81.74-.96.32-.85.11z" stroke-linejoin="round"/></defs><use xlink:href="#b" fill="#9dc8ca" stroke="#6bb4d2" stroke-width="5.76"/><defs><path id="c" d="M2404.25 1634.93l-5.76.32-9.38.75-6.29.32-9.06.43-6.72.42-5.54.32-6.61.43-5.54.43-12.26.64-3.31.21-18.22.96-4.38.32-5.33.32-4.69.32-6.82.32-7.67.42-4.48.22-4.48.21-1.49.11-4.9.21-6.4.43-17.59 1.17-11.62.53h-.74l-6.93.32-3.84.21-11.94.75-11.83.64-2.67.21-2.98.11-11.62.64-13.01.75-14.71.85-13.11.74-8.53.54-5.33.32-7.57.42-5.65.43-15.45.96-18.23 1.17-3.94.22-7.68.53-4.26.21-14.93.96-2.88.21-13.53.75-4.59.32-7.89.53-5.54.32-8.1.54-9.7.64-2.35.1-3.3.21-4.27.32-5.01.32-4.79.32-1.6.11-6.5.21-.86-.42-6.61.32h-3.19l-3.63.1h-2.56l-2.66.11-7.78.53h-1.07l-1.17.11-4.27.21-1.17.11-3.2.32-9.48 1.28-1.18.11-4.26.53-.43.11-.42.31-3.95.22-25.79 1.92-7.57.53-7.68.53-15.03.86-11.83.74-7.57.43-7.89.53-21 1.17-8.95.64-6.29.32-3.95.22-6.61.42-2.02.22-2.03.1-56.6 3.95-25.48 1.7-3.52.32-26.01 1.6-7.99.43-8.1.53-18.34 1.07-3.52.21-.85.11-37.84 2.34-13.01.85-8.74.54-40.72 2.77-43.38 2.77-2.78.21-12.15.64-4.26.32-6.93.43-33.79 2.34-59.27 4.27-1.6.1-15.03.75-3.52.11-3.52.1-1.49.11-5.22.32-2.88.21h-1.17l-26.55 1.92-35.82 2.56-2.77.21-12.26.86-10.34.74-19.82 1.28-8.42.64-7.68.53-2.88.32-3.41.43-1.6.21-1.6.22-6.71.85-8.64.85-2.02.21-2.88.11-5.76.43-17.8 1.38-9.59.54-5.12.21-5.86.43-7.57.42-4.48.32-1.28.11-1.6.1-4.47.32-3.42.32-15.56 1.28-1.6.11-1.28.11-1.7.1-2.24.11-6.61.53-3.84.32-10.55.75-3.09.21-1.92.22-5.65.31-35.71 2.56-7.25.43-9.17.64-4.69.32-10.87.74-15.46 1.18-11.51.85-65.88 5.22-1.6.11-.75.11-105 7.78-18.12 1.49-10.66.85-35.39 2.56-17.48 1.28-18.44 1.39-14.82.96-21.32 1.49-1.07.1-25.47 1.71-31.88 2.13-6.71.32-64.28 4.48-40.51 3.41-19.83 1.7-17.48 1.6-35.28 3.09-18.23 1.39-31.77 2.77-2.13-22.92-1.17-12.79-1.5-17.26-2.66-30.38-2.24-23.67-1.92-19.72-.96-8.85-3.3-32.72-.86-7.25-.64-6.29-.74-6.5-.75-7.89-.85-7.78-.64-5.22-.75-7.89-1.06-9.81-1.28-12.25-.85-8.21-1.39-13.01-.11-.96-.1-.85-.22-.64-.32-.74-.32-.64-.32-.43-.64-.53-.53-.43-.75-.21-.63-.22-.96-.1-1.28-.11-2.88.32-35.39 2.88-9.6.74h-2.23l-.64-.1-.64-.21-.64-.32-.32-.32-.32-.32-.32-.43-.22-.32-.32-.53-.21-.54-.11-.64-.1-.53-.22-1.92-.32-2.45-.64-6.29-1.17-12.79-.64-6.5-1.06-11.51-2.24-21.22-.22-2.98-.63-6.29-.32-3.2-.54-5.33-1.81-19.61-.96-9.38-.64-5.44-.74-8.52-.11-1.5-.11-1.06-.21-2.24-.96.11-8.85.74-27.82 2.24-27.82 2.35-27.83 2.23-23.77 1.82-1.92.21-.1-3.09v-3.84l-.11-.64v-.43l-.11-.32-.1-.64-.32-.85-.43-.96-.75-1.28-1.06-1.6-1.49-2.34-2.35-3.94-2.13-3.42-1.28-2.13-1.71-2.56-1.27-1.91-3.84-5.23-1.49-1.92-2.14-2.66-1.38-1.49-1.18-1.28-1.81-1.92-1.49-1.71-1.81-2.34-3.52-4.69-4.48-6.18-2.24-3.41-3.3-4.38-2.45-3.09-1.6-1.92-4.58-11.29-10.66-25.05-7.68-19.62-.43-.85-.85-1.6-1.17-1.17-2.13-1.92-5.23-4.9-3.51-3.09-3.74-3.1-1.38-1.38-.64-.85-.43-1.07-.74-1.81-.75-3.09-1.6-6.51-2.45-7.99-2.24-7.99-1.6-5.87-2.88-9.16-.53-2.03-.21-1.49-.11-1.81-.32-5.55v-4.15l-.32-4.27-.64-4.58-.1-1.39v-.64l-.11-.74v-.54l-.21-.32-.22-.42-.21-.53-.21-.86-.22-1.7-.21-1.92-1.07-7.36-.85-4.47-.64-4.37-.75-3.73-.63-1.71-.96-2.13-.96-2.03-.86-2.24-.74-2.23-2.03-6.93-.21-1.6-.21-1.71-.11-1.6-.11-2.02.11-2.13.21-1.5.22-1.91.74-2.88 7.36-21.11 2.24-6.82.64-2.13.85-2.24.32-.96.1-1.07.22-1.81.1-1.49.11-1.49.11-1.17.74-2.35 2.03-7.35.43-1.39.53-2.45.32-2.45.53-4.37v-1.18l-.32-1.17-.21-.53-.53-1.17-.86-1.39-3.2-3.84-.74-1.28-.43-1.06-.32-1.18-.21-1.06v-1.17l.43-2.14.95-1.81.75-.85 7.46-5.12 2.03-1.49.64-.64.21-.64.32-1.17.11-1.71.32-2.55.42-1.07.75-.85.64-.32 1.07-.32 1.38-.43 5.65-1.28 1.17-.32.96-.53 1.39-.96 1.06-.85 1.28-1.18 1.28-1.59 5.65-7.68 1.07-1.92.64-1.28.32-.96.32-.64-.11-1.17-.21-1.17-.53-1.17-6.4-15.03-1.07-2.46-.96-1.7-.53-.85-.64-1.39-.75-1.6-.63-1.81-.86-2.24-.42-1.49-.11-1.49-.11-1.6v-2.35l.75-10.66.43-5.11.1-2.03v-1.17l-.21-1.07-.21-.96-.32-.74-.32-.96-4.48-8.1-2.03-4.05-1.92-4.27-1.17-2.56-.53-1.38-.32-1.49-.32-2.03.11-1.81.21-1.39 1.17-5.86 1.92-9.06.43-2.77v-1.71l-.11-1.7-.43-2.88-.74-4.05-.54-3.09 6.72-1.07 2.35-.21 1.81-.11.53-.1 2.45-.11 1.5-.11 1.59.11h.75l1.92.21 3.2.32 4.69.54 13.43 1.81 11.3 1.49 4.9.64 2.35.32 5.01.64.53.1 8.96 1.18 8.95 1.17 7.03.96 2.88.32 2.88.43 3.63.42 3.19.53 5.33.75 5.55.75 6.39.96 2.45.32 32.94 5.11.86.11 3.73.53 6.5.96 2.13.32 15.35 2.45 9.81 1.5 19.83 3.19 5.75.86v-1.39l-.1-2.34-2.77-31.45-2.03-22.6-.32-2.88-1.49-17.58-3.52-42.32-1.07-8.85-6.07-70.14 9.06-.74 8.63-.54 8.53-.74 32.51-1.92 4.16-.43 71.64-4.26 24.3-1.6 8.1-.43 9.49-.74 18.12-1.28 11.3-.43 13.65-.74 23.02-1.71 22.81-1.39 15.35-1.28 19.3-1.06 8.1-.32 25.16-2.03-.43-5.86-1.81-38.37.11-1.71.32-1.17.85-1.28 15.14-20.04.64-1.28.32-.96.1-1.28-.96-12.36-1.17-16.95 135.81 1.28 9.7.11 2.24 26.43 1.6 17.38 2.77 34.85.64 9.49 8.42-.53 25.37-2.14 13.64-1.17 26.65-1.81 26.65-1.71 53.3-3.62 24.2-1.6.32-.21 5.54-.64 9.28-.96 5.65-.32 2.66-.21 6.29-.64 16.1-.96 7.99-1.07 2.35-.11 11.51-.64h5.87l8.74.11 4.26-.21.85.42 4.37-.32-.32-2.77-1.49-15.13-.11-1.28-.31-.86-.54-2.98-.21-1.49-.64-3.2-.53-2.98-.54-2.78-.21-1.38-.43-2.03-.32-2.13-.53-4.8-.21-2.13-.22-1.81-.21-2.88-.32-2.34-.64-6.61-.64-6.5v-.54l.22-.42.21.32.21 1.6.22 1.27.53 1.18.21.42.96 1.28.11-.53 1.06-7.14.43-3.09.32-4.48.53-8.95.22-3.2.74 6.39 5.23 57.03 1.27 15.14.86 9.38 1.28-.11 1.38-.11 4.8-.42 3.52-.43 1.81-.21.53-.43 2.03-.32 5.97-1.6 6.39-.85 8.32-.96 13-1.38 5.65-.54 1.92-.21 11.41-.96 24.2-2.34 6.92-.75 3.52-.21 9.6-.96 5.11-.22 3.31-.1 6.93-.43 1.6-.11.64.32h.53l1.49-.21 24.09-2.56 26.76-2.66 26.65-2.13 26.76-2.03 12.25-.96h1.18l13.32-.85 7.89-.53-.32-2.88-2.77-31.77-2.99-31.76-6.07-63.43-2.88-31.76-3.09-31.77-2.88-31.76-2.88-31.66-.85-9.81 5.12-.42 41.14-3.2 20.58-1.49 20.57-1.71 61.72-4.69 20.58-1.38 7.46-.43-.86-9.27-5.86-61.29-2.88-29.42-.42-4.06-2.77-27.92-2.99-30.7-3.09-30.7-2.99-30.59-.74-7.89-.75-7.46-.85-7.68-.64-7.67-.32-5.33 32.83-2.13 43.92-2.99 44.13-2.77 21.75-1.39 21.96-1.59 32.94-2.24 10.87-.96 30.28-2.24 10.55-.64 39.12-2.45 23.35-1.49 6.93-.54 20.78-1.28 16.63-1.06 9.92-.54 2.45-.21 5.65-.32 8.74-.64 7.46-.53 13.01-.85 12.47-.86 21.32-1.38 19.83-1.17 5.33-.43 5.01-.32 7.14-.32 9.06-.53 4.69-.32 16.52-1.07 9.38-.43 6.61-.42 7.78-.53 9.6-.43 1.6-.11 3.83-.32h.75l8.21-.53 1.28-.11 1.06-.1 6.19-.32h.74l2.13-.11 4.48-.32 5.23-.43 11.3-.64 2.87-.21 6.51-.43 5.33-.42 10.23-.64 3.3-.11 4.37-.21 5.33-.32h.86l3.73-.32 2.66-.11 16.63-.85 13.97-.64 13.54-.75 9.27-.53 11.3-.64 2.02-.1 8.96-.64 6.39-.32 8.96-.54 15.46-.74 6.18-.32 24.2-.96 14.39-.86 15.77-.63 7.89-.54 18.34-.96 9.06-.32 1.17 15.14 1.92 22.81.53 6.18.54 7.78.42 4.05 1.6 19.51 1.17 13.97.11 4.05v1.38l-.11 1.17v1.39l-.32 2.56-.21 1.17-.21 1.28-.21.96-.43 1.28-2.13 6.82-.54 1.81-.53 1.39-.96 3.3-.96 2.88-1.28 4.37-.74 2.35-.43 1.7-.75 2.88-.42 1.7-.22 1.18-.1.85-.22 1.07-.21 1.38-.11 2.03-.42 6.18-.32 7.25-.21 7.03v3.63l.1 1.81.11 1.39.11 1.7.32 2.88.21 1.06.32.96 4.69 18.44.21.86.21 1.06.32 1.28.22 1.17.1.96.11 2.56v1.18l-.11 1.91-.21 2.03-.32 1.38-.32 1.71-.53 1.81-.53 1.39-.54 1.38-.64 1.39-.64 1.17-1.7 2.67-3.95 5.54-.85 1.28-1.28 2.13-.96 1.92-.74 1.92-.54 2.02-.42 1.6-.32 2.13-.22 1.39-.64 8.31-.32 6.4-.53 13.75-.32 6.93-.64 13.96-.74 10.13-1.07 10.66-.43 5.43-.1 2.35v5.86l.1 5.23.22 2.87.21 2.14.21 2.55.43 2.67.32 1.81.32 1.92.64 2.77 1.7 5.33 6.29 23.02 1.18 4.27.74 2.56.86 2.45.74 2.13 3.2 6.82 3.62 7.68 2.14 4.05 2.34 4.05 5.01 9.27 1.07 1.71 4.15 8.1 4.69 9.59 6.08 11.62 6.18 12.05 8 15.88 1.92 4.05.53.96 1.07 2.34.85 2.45.75 2.35.32 1.17.42 2.67.11 3.09.1 2.34-.31 4.48-.43 4.37-.75 8.53-.32 4.26v5.44l.11 7.35.32 5.44v1.49l.21 2.99.22 6.61.64 12.04.53 10.34.32 6.29v1.6l.1 1.28.32 5.43.32 4.48.11 1.92.43 6.39.42 5.55.11 1.38 1.07 10.45.32 2.88.32 3.3.42 3.31 1.28 11.93.43 3.42 1.17 10.23.64 6.39.75 7.57.74 8.32 1.17 12.57.54 5.76.64 7.68 1.92 22.06.1 1.81.54 5.55.53 7.14.43 4.47 2.13 23.56.1 2.24.43 5.12.32.32.32 3.51 1.92 16.74.53 5.22v.54l.21 2.66.22 2.66v.54l.53 5.86 1.07 15.14-.32.85.1 1.39.11 1.06v.96l.11.85.21 1.71.43 5.33v.64l.64 6.82 1.06 12.05 1.49 17.26.22 2.03.32 2.98.42 5.01.32 3.31.64 7.14.11.75.21 1.91.54 5.97.53.86.11.96.42 4.05.32 2.34.53 4.26.54 5.44.53 5.33.64 6.29.43 4.69.42 4.26.75 8.1.53 5.65.86 9.92.21 2.66.53 4.8.11 1.17.74 8.53.54 6.08.64 6.6.32 3.1.53 5.54.21 2.34.75 8.96.21 2.98.32 3.41.54 5.97.31 2.56.32 4.16.32 3.41.32 2.66.32 4.48.32 3.09.64 7.25.22 2.66.85 9.06.32 3.31 1.6 18.55v.74l1.28 16.42-.64 1.7.64 7.79.21 1.7.75 9.06.74 8 .43 4.69 2.56 27.5 1.06 11.62 1.28 11.61.75 7.89.11 1.07.1.85.54 5.54.53 6.19 1.7 18.12.22 2.66 3.3 33.26 2.99 33.36 2.02 22.71.64 7.03.32 3.52 1.07 11.94.96 11.4.64 6.83.74 8.74.64 7.46 3.09 34.32 2.24 24.94 1.07 11.84.64 7.03.53 5.76.32 2.77.11 1.92.74 7.99 1.18 13.01 2.55 28.35 2.88 31.87 2.13 23.45 1.28 14.39.43 3.95.21 2.66.54 5.54z" stroke-linejoin="round"/></defs><use xlink:href="#c" fill="#6bacaf" stroke="#097d9b" stroke-width="5.76"/><defs><path id="d" d="M1291.99 3318.26l-2.67.22-15.88 1.28-1.28.1h-1.17l-35.71 2.45-38.59 3.31-92.53 5.75-71.42 5.76-112.89 7.57-112.89 7.46-10.87.96-117.26 8.85-24.95 2.34-21.74 2.24-90.72 6.5-62.68 4.59-14.71-.43-73.77-1.81-.11-.86-.21-1.27-.21-.96-1.92-10.45-.43-2.34-.21-1.39-1.28-6.72-1.6-9.16-.53-2.88-1.71-9.17-1.17-6.71-2.24-12.26-.32-1.92-.32-1.92-2.13-11.3-1.6-9.17-1.38-7.56-2.88-16.21-1.07-5.75-2.02-11.94-1.39-7.99 1.92-.64 2.98-.86 7.25-2.45 6.61-2.24 12.15-4.58 5.33-1.92 3.73-1.49 6.4-2.35 5.97-2.34 6.29-2.45 5.44-2.03 7.46-2.66 6.93-2.56 8.95-3.2 21-7.57 7.89-2.88 5.65-2.13 3.52-1.38 3.2-1.18 2.34-.85 2.45-.85 2.35-.64 2.45-.85 2.66-.86-1.59-6.18-3.52-17.05-4.59-22.81-2.98-14.29-1.17-3.94-1.6-4.16-1.81-3.41-3.42-4.37-2.55-2.77-2.35-2.24-1.49-1.28-2.24-1.6-2.67-1.7-4.79-2.99-21.64-12.79-10.56-6.29-11.72-7.03-10.87-6.29-6.19-3.95-2.98-2.34-1.81-1.71-2.14-2.45-1.49-2.34-1.7-3.42-1.5-4.26-.74-3.3-.32-3.31-.11-2.98.21-3.41.43-2.46.53-2.13 1.5-3.83 2.66-5.87 8.1-17.91 4.59-10.02 1.28-3.83.53-2.77.32-2.88.1-2.56-.1-3.2-.32-4.47 7.89-4.38 7.25-4.15 6.18-3.52 7.03-4.05 6.29-3.41 15.67-8.32 3.73-2.02 9.7-5.01 10.66-5.44 10.56-5.43 10.66-5.55 10.23-5.54 2.67-1.49 1.6-1.07 1.06-.85.75-.96.74-1.28.43-.85.32-1.28.21-1.71-.1-3.62-.32-3.52-3.84-39.65-.53-6.08-.54-6.07v-1.18l.22-.85.53-1.06.32-.43.43-.32.85-.53.96-.32.42-.11 1.82-.21.74-.11 13.54-.75 4.58-.42 10.03-.64 33.79-2.67 6.39-.42 27.29-2.03 10.66-.85 3.63-.32-7.15-75.68-2.45-27.93-.53-4.8-1.28-13-1.28-12.69-.74-7.46-11.2-112.03v-.42l-1.17-5.33-.53-2.56v-2.45l-.11-7.25-.11-.96-6.93-68.97-1.38-15.03 3.84-1.17 2.98-1.7 2.13-1.5 3.2-3.09.75-1.06.32-1.28.53-3.84.32-1.49.64-1.07.96-.74 1.38-.64 2.14-.32 2.34-.11 1.71.32 1.81.53 1.39.22 1.59-.11 2.35-.43 3.3-.85 3.63.43 2.56.74 11.62 4.8.85.53 1.49 1.39 1.28.96 7.89 4.05 3.73 2.24 1.39.96.42.74.32 1.6v1.71l.32 1.91.32.86.64.74.75.54.85.21h.96l2.45-1.17 2.35-.32h.85l2.24.74.96.11 2.24-.11 2.87 1.39 1.18.11.85-.11 1.28-.53 1.81-1.18 2.67-.96 5.01-.64 5.01.32 1.38-.21 2.56-1.6 1.28-1.28.53-.64.32-1.17.11-1.28-.21-5.01v-1.38l.64-1.82 1.7-1.59 3.31-2.03.85-.11 1.28.54 1.17.42 2.24-.42 1.28-.86 1.28-1.49 1.28-1.38 1.49-2.46.64-2.23-.11-2.35-.53-2.77.11-1.28.85-1.17 4.05-3.63 1.49-1.81 1.07-1.92 3.84-5.11.53-1.07.32-1.39.1-2.23.43-1.6.96-1.71 5.33-5.43.75-.32 1.92-.22 2.55-.1 1.18-.22 4.79-1.92 1.39-.74 1.7-.32h1.6l1.07.32 2.66 1.7 1.18.54h1.17l1.6-.43 1.92-1.07.64-.53.53-.85.32-1.07-.21-1.38-.43-2.99.11-1.49.32-1.49.64-1.39 2.98-4.69 1.39-1.81 1.81-1.49.96-1.18.64-1.49 1.38-3.84 4.48-8.2 1.17-1.5 1.18-1.06 4.05-4.69 2.98-4.8 1.92-3.84 1.17-1.17.86-.53 1.28-.11 1.27.32 2.99 1.07 1.49.32 1.81.21 1.18-.43.85-.63.64-.86 2.24-4.58 3.09-5.33 1.17-1.71 1.39-.85 1.49-.21 1.71.64 1.27.53 1.07-.21 2.35-1.39 1.17-.11 4.26 1.71 1.71.11 2.98-.43 5.23-1.81 2.66-.53 1.71-.54.96-.64.53-.32 2.34-3.19.96-2.03.54-2.03.96-5.96 1.38-3.52 1.92-3.63.85-2.02.43-1.71v-1.92l-.32-1.49-3.3-5.75-.22-.86-.21-1.38v-1.28l2.02-4.27.86-2.13.74-4.58.75-1.92.75-1.17 2.77-2.24 1.6-.32h2.77l2.88.43 2.02-.11 1.71-.64 2.02-.43 1.6.32 1.39.32 1.6.96 2.23 1.6.86.43.85.1.96-.1 1.17-.43.96.11 1.17.53.86.75.96 1.38 1.81 3.2.74.64 1.18.43.85-.11 1.81-.43 1.07-.42 3.62-2.24 1.28-1.39 2.56-1.17 1.17-.96 1.28-.85 3.41-1.28 1.18-.32 1.38-.11 1.49.22h1.71l1.28-.22 2.02-1.6 1.07-.53h1.49l1.5.43 1.59.1.43-.1.32-.54.43-2.87.32-.32.74-.22 1.18.11h1.38l2.24-.96.96-.11 2.56.86 1.38.96h.54l.53-.43.21-.75.22-2.55.32-1.07.63-1.07 5.02-3.51 2.87-3.73 2.56-4.06 3.95-3.41 1.38-1.38 1.49-2.35 1.18-1.28 2.02-1.49 6.4-1.06 3.41-1.18 2.88-1.92 1.92-.96 2.34-.32 2.45.32 3.09-.1 2.78-.64 2.45-1.07 3.52-1.28 2.77-.32 2.02.11 2.88.85 2.45.32h1.28l1.49.11 2.24.75 1.6.85 1.81 1.38.96 1.07.75 1.28.75 1.92.53 1.7.85 5.55.53 1.81.22 1.49.1 2.03-.1 3.94.32 1.92.85 1.7 1.28 1.92 1.92 1.71 1.28.64 1.6.1 3.94-.32 6.4-1.27 9.16-1.28 1.71.32 1.6.85 1.06 1.49.64 1.6.64 3.09.96 3.52 1.82 2.66 1.49 1.18 2.34.1 1.71-.21 4.05-1.92 1.17-.85 1.17-1.6 1.07-1.07 1.28-.53 1.6-.21 2.56.53.74.32.64.43.32.64.64 3.83.22.64.32.54.64.32h.74l.85-.22.43-.53.64-1.07.96-3.41.43-.74.53-.54.64-.32h.74l.75.54.75 1.17 1.92 4.48 1.17 1.6.53.21.64-.21.85-.54.75-.85.75-1.28.42-1.17.22-1.49.1-1.5-.21-1.17-.43-1.6-.42-.74-1.6-1.39-.54-1.17-1.49-4.48-1.28-2.03-.32-.95-.21-1.71.21-2.03.64-2.13 2.13-4.69 1.6-3.09.96-1.28 1.28-.96 1.92-1.06 2.35-.75 5.11-.32.86-.21 1.38-.64.75-.96.64-2.03-.11-5.33.21-1.91v-1.82l-.32-2.87-1.38-4.27-.21-.85.21-1.39.85-1.38 1.81-1.49 1.07-.22.75.43.53.96.53 1.81.53.96.64.32 1.07-.11 2.67-1.49.74-.11.43.11.64.64.64.85.64.54h.53l1.07-.43 2.34-1.71 3.2-2.66 1.92-2.13 3.09-3.95.53-.42 1.07-.11 1.92.53 3.83 2.67 4.91.74 12.26.54h5.33l4.15-.22-1.49-15.88-1.28-13.43-1.17-12.58-1.17-12.36-.96-9.06-1.71-15.25-3.2-28.14-1.91-16.31-.75-5.96-1.17-10.24-2.88-33.26-1.39-16.41-.32-.85-.64-.64-1.28-.96-1.91-.32-2.99.32-2.88.42-8.63 1.6-11.19 1.07-.43.11-1.81.1-5.76.64-9.7.85-2.03.22-19.18 2.02-1.39.11-.96-.11-.64-.21-.53-.11-.43-.42-.42-.32-.54-.64-.32-.64-.32-.64-.1-.64-.11-1.07-.11-1.38-.21-1.71-.75-9.81v-.21l.11-.42-.96-18.34-.43-7.25-.32-4.9-.42-5.01-.11-1.81-.21-2.03-1.28.11-1.28.11-3.94.32-1.07.1-1.17.11-2.45.21-4.37.21-7.79.54-2.02.32-7.04.53-1.7.21-9.92.86-2.98.21-1.39.21-2.88.32-.85.11-11.08 1.07-2.56.21-6.19.74-2.23.32-6.29.75-3.63.43-6.29.85-15.13 2.02-4.16.43-14.18 1.81-9.81 1.18-15.13 1.81-5.87.64-3.83.42-9.07.75-35.81 2.66-9.81.75-23.35 1.71-10.66.64-2.13.1-16.73 1.28-2.67.21-.64.11-2.13.21-4.48.22-3.73.32-3.2.21-19.82 1.39-26.33 2.02-1.71.11-9.17.74-18.01 1.28-15.57 1.28-5.43.43-7.36.53-1.28.11-14.6 1.06-13.75 1.07-5.65.43-3.31.21-7.99.64-4.59.32-9.59.75-.43-4.05-.21-3.31-1.07-12.15-2.23-23.24-.75-7.89-5.76-57.88-.64-6.29-.74-11.29 33.36-2.67 5.44-.43 2.35-.53 1.81-.64 7.57-2.98-.96-5.65 8.95-.54-3.94-40.18 34.22-2.35 13.32-.96 4.16-.21 33.36-6.5 32.41-6.4 13.64-1.28 45.42-2.23v-1.28l.95-1.39 1.71-1.07.75.64.85.43 6.4-1.07 2.98-.21.75.75.42 1.38 30.28-5.22 14.6-1.71 21.43-4.69 22.81-4.26 26.86-5.33 44.56-8.63-1.81-14.29-2.35-24.83-5.22-36.35 9.17-.64 7.25-.43 35.71-2.56 5.65-.31 1.92-.22 3.09-.21 10.55-.75 3.84-.32 6.61-.53 2.24-.11 1.7-.1 1.28-.11 1.6-.11 15.56-1.28 3.42-.32 4.47-.32 1.6-.1 1.28-.11 4.48-.32 7.57-.42 5.86-.43 5.12-.21 9.59-.54 17.8-1.38 5.76-.43 2.88-.11 2.02-.21 8.64-.85 6.71-.85 1.6-.22 1.6-.21 3.41-.43 2.88-.32 7.68-.53 8.42-.64 19.82-1.28 10.34-.74 12.26-.86 2.77-.21 35.82-2.56 26.55-1.92h1.17l2.88-.21 5.22-.32 1.49-.11 3.52-.1 3.52-.11 15.03-.75 1.6-.1 59.27-4.27 33.79-2.34 6.93-.43 4.26-.32 12.15-.64 2.78-.21 43.38-2.77 40.72-2.77 8.74-.54 13.01-.85 37.84-2.34.85-.11 3.52-.21 18.34-1.07 8.1-.53 7.99-.43 26.01-1.6 3.52-.32 25.48-1.7 56.6-3.95 2.03-.1 2.02-.22 6.61-.42 3.95-.22 6.29-.32 8.95-.64 21-1.17 7.89-.53 7.57-.43 11.83-.74 15.03-.86 7.68-.53 7.57-.53 25.79-1.92 3.95-.22.42-.31.43-.11 4.26-.53 1.18-.11 9.48-1.28 3.2-.32 1.17-.11 4.27-.21 1.17-.11h1.07l7.78-.53 2.66-.11h2.56l3.63-.1h3.19l6.61-.32.86.42 6.5-.21 1.6-.11 4.79-.32 5.01-.32 4.27-.32 3.3-.21 2.35-.1 9.7-.64 8.1-.54 5.54-.32 7.89-.53 4.59-.32 13.53-.75 2.88-.21 14.93-.96 4.26-.21 7.68-.53 3.94-.22 18.23-1.17 15.45-.96 5.65-.43 7.57-.42 5.33-.32 8.53-.54 13.11-.74 14.71-.85 13.01-.75 11.62-.64 2.98-.11 2.67-.21 11.83-.64 11.94-.75 3.84-.21 6.93-.32h.74l11.62-.53 17.59-1.17 6.4-.43 4.9-.21 1.49-.11 4.48-.21 4.48-.22 7.67-.42 6.82-.32 4.69-.32 5.33-.32 4.38-.32 18.22-.96 3.31-.21 12.26-.64 5.54-.43 6.61-.43 5.54-.32 6.72-.42 9.06-.43 6.29-.32 9.38-.75 5.76-.32 2.77 28.04.85 9.38 1.07 10.66.96 8.85-5.65 5.22 1.6-.43 2.34-.53 2.03-1.6 3.19 30.81 2.56 24.41.75 7.14 1.6 15.77 1.81 18.23.96 7.46.21 1.71.11 1.49.53 6.72.75 7.99 1.49 15.67 2.03 18.55.32 2.98.64 7.89.85 7.99 1.6 16.85.96 8.52 1.17 11.3 3.2 30.7 3.19 30.38 2.99 30.17 3.41 32.72.43 3.84.42 4.26.75 8.1.75 7.36.64 5.01.85 4.8.96 4.69 1.17 4.69 1.49 5.11 1.71 5.86 1.7 5.87 1.6 5.97 1.28 5.43 1.17 7.14 1.07 11.62.85 11.62.96 11.62.96 11.62.43 4.48.85 11.72 2.67 32.3.85 10.87 3.09 39.87.53 7.25 1.92 23.87 1.6 19.3 8.85-.43.64 8.32 14.28 12.04 1.28 12.26 2.99 29.31 1.6 13.54 1.6 14.07 1.38 13.86 2.88 27.6.11.96-2.99.11-8.21.32-8.21.43-5.86.42-5.43.32-16.21 1.07-6.39.42-15.57 1.18-32.62 1.92-32.51 2.23-7.25.43-5.65.43-18.76 1.38-5.33.43-14.92 1.07-13.01.95-24.94 1.82-3.2.21-19.94 1.28-3.19.21-7.89.64-7.89.32-2.24.11-6.18.32-13.43.53-1.6.11-2.45.21-16.31 1.28-11.52.85-.64-6.71-1.49-14.61-.74-6.6-.54-5.76-.96-9.49-.96-8.1-1.06-10.87-2.77-27.29-3.1-29.85-.74-7.67-1.17-11.94-1.5-14.07-2.45-23.02-.74-8.1-1.39-13.54-1.28-13.01-.32-3.09-.53-4.26-.54-5.22-.74-5.87-.21-1.7-2.03-18.87-1.6-16.42-5.65.43-7.67.64-45.74 2.88-10.87.53-2.45.11-9.27.53-28.89 1.6-7.78.43-1.6-17.17-1.07-9.27-.21-2.77-.64-6.18-.32-2.77-1.17-12.9-.43-4.37-.64-5.97-15.46-2.35-17.05.64-11.73 14.29-.85-9.38-.86-4.05v-1.92l-.1-.75-2.03-14.07-.42-1.7-14.71.85.64 9.8-6.83 7.04-15.77.64-26.55 1.07-.85-18.77h-3.94l-2.35.11-.53.32-.32.21-.32.54-.21.74v5.55l-.11.64-.11.32-1.28 3.94-9.7-12.15-2.34 16.63-.43 2.77-3.3.1-1.6 1.5.53-4.37 1.49-9.06-1.49-.43-5.86-1.28-.43-.11-1.39-.21-1.38.11-1.6.32-1.71.53-2.23 1.07-3.1 1.59-37.2 20.58-9.17 4.9-9.48 5.22-1.18 1.5-1.6 2.45-1.38 4.58-.64 5.54-.32 6.4-13.65-6.18-9.48 1.06-27.61 15.35-18.55 10.34-8.95 4.91-3.95 2.13-.85-10.98-7.46-84.64-3.09-34.85-1.82-18.55-1.28-15.56-3.94-42.96-3.84-43.81-2.77.32.11 2.13-.22 1.28-.21.96-.32.64-.53.53-.64.43-.85.32-1.5.21-22.6 1.49-1.28-.1-.85-.22-.74-.32-.54-.64-.42-.74-.32-.85-.22-1.5-.1-.74-7.79.74-32.51 3.52-7.67.96-4.48.53-11.3 1.07-7.57.96-5.33.43-4.48.53-18.86 2.13-4.91.43-14.49 1.6-11.84.95-6.61.54-4.69.32-6.07.53-11.41.43-3.73.1-6.72.32-.96.11-5.86.21-4.69.11-2.24.11h-2.13l-3.52.1-9.06.11h-3.84l-9.27.11-10.66.21-8.42.11-10.98.1h-.64l-8.21.11-4.37.11-10.02.1-4.58.11-13.33.32h-5.33l-19.19.42h-3.09l-1.28.11h-.53l-9.7.53-3.62.22-10.98.53-10.77.64-10.23.75-5.76.32-7.36.53-18.76 1.28-8.1.53-19.4 1.28-21.11 1.49-7.78.54-6.71.53-8.85.64-7.14.53-1.82.11-3.09.21-1.28.11-1.49.1-4.69.43-5.65.53-5.12.32-5.65.43-4.37.32-.74.11-1.07.1.64 4.37.43 2.56.74 3.63 1.5.53.1.74.32 1.18.53 1.28.54.96.74 1.49.86 1.81 1.6 3.09 1.49 3.09.85 1.81.43.96.21.43.53 1.28.32 1.17.32 1.71v3.09l-.53 1.92-.43 1.28-.32 1.49-.32 1.17-.32.75-.32.96-.64 1.06-.74 1.17-.85 1.07-.96 1.07-1.07.85-1.07.75-1.17.64-1.17.53-1.07.21h-.1l-1.07.32-2.24.53-2.56.54-2.23.53h-.22l-1.38.43-1.18.42-1.28.64-.85.54-1.06.74-.75.64-1.07 1.07-.96 1.06-.74.96-.64 1.07-.53 1.17-.54 1.07-.32 1.17-.32 1.17-.21 1.28-.21 1.28-.11 2.03-.11 2.45.22 4.15.21 4.91.11 3.3.21 8.64.11 6.92.1 5.01.11 5.87.32 4.69.21 4.58.53 5.97 1.28 12.47 6.93 71.21.86 9.06.53 5.65 2.24 22.49 1.81 14.92 1.28 12.58.96 10.44 2.77 30.06 1.07 10.88.32 4.26.1 1.07.43 6.71.64 4.59 2.24 25.58 1.06 9.27 1.39 15.35 1.49 15.78 2.13 20.68.43 3.73.11 1.06.53 5.12.32 3.52.43 3.51.74 7.89.85 6.29.22 2.03.74.85.11.85.21 1.07.43 2.02 1.49 6.61.32 2.13.43 2.67.42 4.48.11.74.11 1.17.32 15.03.32 5.55.32 4.69.32 5.75.21 1.92.11 1.49.42 4.69.32 4.48.11.64.11 1.39.1 2.45.32 1.81.11 1.49.11 2.13.64 8 .21 2.13.21 2.99 3.63 36.66 2.23 23.45 1.39 14.18 2.45 25.8 2.13 22.17.11.53 1.6 17.06-.21.74 5.22 36.35.85 5.86-1.06-1.59-1.71-3.2 1.71 12.15 1.92 11.83 2.34 11.83 2.56 11.73 1.92 8.85.21 1.06.96 4.27.85 3.94.11.75.32 2.23-1.39.11-2.02.21-2.56.22-2.56.21-.74.11-1.92.21-3.09.21-2.35.22-3.73.21-5.22.43-4.48.42-8.85.64-3.73.21-8.21.86h-1.81l-11.51.64-3.2.21-2.88.11-2.13.21h-1.71l-2.56.21-6.07.32h-2.35l-9.16.11h-2.35l-2.66.11-2.46.1-3.51.32-8.85.54-8.85.74-10.34.85-11.94.96-25.8 2.46-9.48.85-2.35.1-1.06.11-6.72.64-7.04.75-5.54.64-3.2.32h-4.47l-1.39.21-.64.43-.64.1-28.03 2.13 2.66 27.61.96 9.6 6.08 61.61 2.02 21.1 5.22 53.94 1.6 16.95 4.16 40.72 3.09 35.6 9.7-.64 31.66-2.35 21.32-1.7 52.98-4.37 52.98-4.05 52.98-3.84 4.91-.43-.22-3.62 2.56-.11 1.17-.53.64 1.28 1.39 2.34 1.07-.53 1.59-4.58 1.71-4.69 1.49 15.67 6.72 67.26 3.3 33.68.64 3.94.86 3.52-6.4-22.06-.96-1.28.85 2.02.54 2.14 1.06 7.88 2.03 13.43.96 5.44.96 4.37.64 2.99.42 2.13.75 3.09.96 4.05 1.92 7.67.53 2.56.75 4.27.64 4.15v.43l.95 9.38 1.07 11.3.64 8.53.43 6.82.42 4.9.64 4.27.64 3.83.85 3.41.96 3.63-.64 2.66 1.18 6.93.32.85.53 3.95 6.5 21.21-.21 2.03.85 2.13.96 2.66 1.49 3.95.86 2.23.64 1.6z" stroke-linejoin="round"/></defs><use xlink:href="#d" fill="#09757a" stroke="#00465f" stroke-width="5.76"/></svg>