<svg width="384" height="6.79in" viewBox="0 0 2880 4890" xmlns="http://www.w3.org/2000/svg" xmlns:xlink="http://www.w3.org/1999/xlink"><path fill="#fff" d="M0 0h2880v4890H0z"/><defs><path id="a" d="M2070.48 2793.11l-7.49.61-3.21.15-1.22.15-5.5.46-1.68.16-5.96.45-3.52.31-4.12.3h-.61l-10.4.92-1.07-13.9-3.51-33.78 33.77-2.9 1.53-.15 4.74-.46 4.28-.61.76 8.4.92 13.76 1.07 12.22 1.22 13.91z" stroke-linejoin="round"/></defs><use xlink:href="#a" fill="#cee3e4" stroke="#cef5f5" stroke-width="5.76"/><defs><path id="b" d="M1679.86 2728.01h-1.22l-.92-.31-10.24.61-4.43.16-5.96.46-10.24.76-3.52.31-1.07-.62.16.77h3.36l.61.15-6.42.31-6.11-.31h-1.38l-6.26-.46v.61l-.61.16-.92-.16h-1.07l-.92-.15h-1.07l-5.04-.46-2.45-.3-7.64-.46h-.45l-6.12.3-9.17.62-2.75.3-5.5.46h-1.83l-5.2.46-5.5.46h-2.6l-4.58.15-2.3.15-4.58.31-4.74-.16-6.57-.3h-1.22l-1.68-.15h-4.59l-7.18.15h-1.99l-4.28.3-2.44.16-5.05.46-.15-2.3-.3-3.05-.46-1.68-.61-1.84-1.99-4.73-1.22-2.14-2.14-3.21-6.27-8.25-3.06-4.28-7.03-10.24-2.9-4.43-2.44-4.13-.77-1.83-1.53-4.59-.46-2.44-1.22-6.73-.76-3.21-1.07-3.51-4.74-11.61-2.14-5.2-3.51-7.03-.92-2.44-7.95-19.56-1.07-1.99-1.68-1.99-1.07-1.07-1.07-.91-1.68-.92-4.74-2.75-1.53-1.38-.91-.91-.61-1.68-.62-1.69-.3-2.44-.61-6.11v-5.2l.15-1.68.61-3.06 1.07-3.82 3.82-7.94 5.5-10.7 2.6-6.26 3.36-8.71 3.67-9.33.92-2.44 1.37-4.43.62-2.29.61-2.76.3-3.05.46-5.2.46-4.58.15-4.43v-3.06l-.15-3.06-.46-2.44-1.37-5.5-.77-2.6-.76-3.06-1.07-.3-7.49-1.22 6.11-31.94 1.53-7.95-3.82 1.07-23.54 6.11-10.08 3.37-5.5.3-13.3-10.08.31-1.69.91-1.98.77-.61 1.22-.16h.92l.61.46.76.77 2.29 6.26 1.07 1.99.92.92 1.53.45h2.14l3.36-.76 1.38.15h2.6l1.06.16h1.23l1.68-.46 1.22-.16.31-.15.91-.46.31-.61-.15-1.22-1.07-.31h-1.99l-1.99-.15-2.75-2.14-.91-1.07-3.37-6.87-.15-.46-.46-1.68-.15-1.53.15-1.53.15-.31.46-.76.61-.46 1.69-.61 1.68-1.07.91-.92 1.38-2.9.92-1.68 1.37-.31 1.07.92.46.61.15 1.07.31 3.36-.15 3.82.15 1.07.46 1.23.61 1.07.76.76 3.21 2.6 2.14 1.22 1.68.31.46.15.92-.15.61-.31.3-.31.16-.15.3-1.07v-.92l-.3-1.06-1.84-1.07-1.07-.92-.76-.77-.46-.61v-1.83l.46-1.07.76-.61 3.67-2.45.31-.45.46-.62.45-1.52.31-2.6v-1.84l-.15-1.37-.61-2.14-1.38-2.9-2.44-3.98-4.9-6.87-1.22-2.45-.3-.76 2.29-.61-.77-.46-10.08-61.59 16.81-1.52 12.68-1.38 4.28-.3 5.2-.46 4.43-.46-11.61-96.12 1.52-2.14-3.97-33.01-2.6-21.24-1.53-12.83-7.94-64.34-1.38-13.9-3.21.3-17.57 1.22-16.35.92-.46-7.49 21.85-1.53 3.82-.15 1.99-.46.15-.15 8.87-.31-1.84-16.19-7.95-63.88-4.58-39.12-1.68-13.45-.92-7.03-9.17.62-11 .76-16.81 1.22-25.83 1.84-4.43.3-12.23.77-6.11.45-15.28 1.23-4.13-61.43-1.38-20.33-1.22-17.11 4.74.61 6.27 4.12 4.73-.61 65.11-3.82 6.57-3.36 7.79-3.82h3.21l11.01-1.53h1.52l3.37.46 3.05.46 6.12.3 3.66-.15 1.84.15.91.46.92.92-.61-1.38-.31-.91-.15-2.14-.46-4.13-.76-10.39-.61-2.6 7.94-18.33 18.65-42.49-7.95.46-.61-.15-.61-.46-.15-.76-.31-1.68-.76-10.09-.46-5.5 12.38-.92 10.85-.3 3.67-.16 13.44.16 3.98-.16h5.04l25.83-26.28.76-1.22.77-1.84.61-1.52.15-1.99v-1.53l-.92-4.28-1.68-5.96-2.75-12.38-6.11-25.06-3.52-16.04-13.29 1.07-3.52 24.29-2.59 8.1-1.99 5.05-3.52 5.8-4.43 5.66-3.67 3.21-1.22.76-.61.92-.92.61-2.14.3-10.08.77-26.29.76-19.71.92-5.05.61-1.83 4.74-1.99 6.11-2.9 6.88-4.74 13.14-3.51 8.86-2.14 4.43-3.21.31-2.91.15-2.29-19.25-1.37-13.14-1.23-9.33-1.37-11.76-2.45-18.8-.3-4.58v-5.66l.15-3.21.31-4.12.61-3.52 1.07-4.58 1.98-5.96 1.38-3.82 1.68-3.52 3.67-6.11 2.14-2.9 3.82-4.28 3.36-3.06 2.9-2.44 12.08-8.71.3-.46.31-1.38-.31-2.29-2.44-2.75-.16-4.28-.91-2.44-.77-.92h2.14l1.53.15 1.53 1.84 21.7-21.85-.46-2.14-.76-5.51-.31-3.36v-5.19l-.15-2.91-.31-2.59-.45-7.19 4.89-.3 5.65-.61 5.96-.31h2.75l2.45-.15 3.21.15 5.34.31 13.15.61v-5.96l.15-2.45.46-2.14.76-1.83 1.23-2.75 1.68-2.9 1.83-3.06 1.22-2.75.61-1.83.31-1.84.15-2.44-.15-1.38-.46-2.14-5.04-14.21-2.45-6.42-1.22-3.82-1.37-4.73-.31-2.14-.15-2.3v-3.21l.76-5.8.15-.92.77-6.42 1.68-8.25.76-2.9.92-2.91 1.99-5.96 2.59-8.86 1.23-3.67.76-3.51.92-5.65.15-3.37v-3.21l.46-9.78.15-4.12v-.77l-87.72 1.23-14.21 1.37-12.08.92-14.67 4.89-.91-1.83.3-4.28-.46-3.82-.15-2.3-.76-12.99-1.84-22.46-.15-1.22-1.53-16.96v-2.45l.31-1.22 1.07-1.99 1.22-1.22 6.42-4.74 2.14-1.53 1.83-.91 1.38-.46 7.03-.76 11.15-.77 22.62-1.99 1.38-.3 5.5-2.45 4.28-1.68 2.9-.46 9.63 17.27 5.35 9.48 1.83 2.9 3.21 3.97 1.07 1.23 1.22 1.07 1.07 1.07 25.53-4.44 18.95-1.68 2.44-.3 31.94-2.75 6.42-.61 88.18-7.8-.15 1.22-.15 1.38v.92l.45 9.32 1.07 12.07 2.91 25.98v.61l.46 1.53.76 2.6 5.2 14.05 1.22 4.13.76 4.28.31 2.75.3 5.35.16 6.57.3 4.28.16 4.89.61 11.46.15 3.06.15 2.9.46 5.65.15 2.75.16 2.14 1.07 17.42-18.19 1.68-9.32.46-1.07-.15-.46-.46-.31-1.22-.45-6.11v-3.06l-.16-2.6-.91-1.53-.77-.91-1.68-.92-6.27-1.37-1.98-.31-.61.15-4.44 1.22-4.12 2.14-1.53 1.23-1.07 1.52-.46 1.53.15 1.38.16.91.46.46.45.31.92.92 1.68 1.83 2.14 27.66 3.21 39.73-15.59 7.34-12.38 5.34-12.37 5.2-12.69 6.26-4.28 1.69-6.57 2.29-5.2 1.07-3.97.46-7.64.76-14.06.61-13.91.46-2.14.15.31.77 2.14 7.79 1.68 5.04.76 1.84 1.07 1.68 1.07 1.53 2.14 2.13 3.67 3.52 4.28 3.67 1.68 1.98 2.45-.61 8.86-.76 11.92-.77 2.14-.15 1.07-.3.46-.31 3.82-2.45.92-.3.15 3.06.46 4.89.3 1.52.77 1.84 1.07 13.29.3 4.74 13.3-18.8-.77-2.29-1.22-3.36-.61-2.6-.46-3.67 9.63-.76 8.71-.76 1.38.15 1.07.46 1.22.91.91.92.92 1.38.46 1.22.46 1.68.76 6.72.77 12.08.46 2.59v1.53l1.22 2.29.92 1.23 1.52 1.22 2.75.76 3.82-.15 11.62-.92 4.28-.3 11.77-1.23 16.65-1.06 14.22-1.07-2.3 11.92-5.8 27.35-.31 1.68-.92 6.88-.3 4.43.15 4.73.15 10.7.16 3.67.3 4.43.92 6.57.76 4.74 1.69 11.61 1.68 11.77.61 3.51.76 3.52 1.07 2.9 1.53 4.59 3.67 8.71 1.07 3.21.46 2.29.3 1.83.31 3.36-.31 5.81v15.59l-.3 5.04-.31 6.11v5.96l.46 4.74.15 1.83.31 1.68.61 3.82.61 2.14 14.06-.91h1.68l.92.3 3.82 1.53-.61 2.45v1.52l.15 1.99 2.9 12.99 1.23 10.08.3 4.44-7.18.61-8.56.76 1.38 8.41.61 5.04.3 5.35v5.04l-.46 4.43-.76 3.67-.61 2.44-1.22 3.06-1.99 3.97-1.53 2.3-4.12 5.65-2.14 3.97-.31.92-.61 1.38-.77 3.05-.61 2.91-1.37 5.95-.92 5.35v2.14l.15 1.23.31 1.07.46 1.06 1.07 1.38 1.83 1.68 2.45 2.14 3.21 1.99 4.89 3.05 7.33 4.13 1.07.46h.77l-.46 12.83.15 5.66 1.53 17.57 1.99 23.69 1.37 16.5 1.38 14.98.76 9.47.76 9.78.62 8.56.3 4.89 1.07 12.22 1.38 12.84.61 5.04.3 1.53 2.14 14.21 2.3 13.45 2.44 10.39.92 4.59 2.14 9.62 12.38 55.02.91 2.29.61 1.37 2.6 17.27-5.35.46-11 68.76-.46 2.91-4.12 1.98-2.76 2.75-2.29 3.83-1.98 4.89-.77 4.58-.15 2.75.3 3.51 1.07 5.96 1.07 4.28.62 3.82.15 2.6-.15 1.99-.62 2.14-.91 2.44-2.3 3.98-1.22 1.52-1.22 1.07-1.22.31-11.16 2.9-1.83.77-1.68 2.59-.92 3.82-.46 5.81.15 5.2.31 2.6.61 2.9.76 2.29 8.41 19.87 1.22 4.12.31.61.15.77.92-.16h.91l2.76-.3 3.97-.31 16.2-.91h5.04v5.96l2.14 6.57.46 7.03.61 5.5.46 3.67.76 3.66.61 1.38.46.61.31.61.46.31.61.45.46.31 5.04.15 4.28.16 6.11.3 3.06-.15.92 12.53.76 12.53.92 13.29h-3.82l-1.53-.15-2.91-.61-3.66-.76-3.37-.92-2.59-.61h-2.75l-1.69.46-1.37 1.07-1.99 1.98 1.68 24.15v1.07l.77 12.22.91 12.23.77 12.37.92 13.45.91 12.23.46 5.35.31 7.33.3 5.5.61 6.73.62 6.11.3 6.11.46 6.57.46 5.81.91 12.22 1.07 12.38.92 12.99.92 12.23 1.07 12.07.91 12.38 1.07 11.3v1.07l-4.43.31-1.07.15-12.68 1.53-3.36.61-4.28.61-2.3.16-13.75 1.22-.76.15h-.77l-1.53.15-5.5.61-2.29.77z" stroke-linejoin="round"/></defs><use xlink:href="#b" fill="#cee3e4" stroke="#cef5f5" stroke-width="5.76"/><defs><path id="c" d="M1172.17 4825.97l-25.52 5.5-12.07 3.52-17.12 2.75-19.87 1.98-26.59 2.45-25.21-1.22-24-1.68-31.79-4.89-20.02-1.23-34.08-1.68-7.48-1.07-5.51-2.59-6.41-.46h-10.55l-12.84-5.35-15.28-8.25-18.49-16.97-14.52-15.58-12.38-15.59-10.54-14.82-5.81-9.32-2.9-4.28-8.56-14.83-2.6-8.4-2.75-12.53-4.28-11.77-5.35-10.24-4.43-13.75-3.36-16.35.15-14.06-3.36-18.18-5.35-11.92-6.57-16.66-2.6-20.93 1.37-14.52 1.53-25.06-.76-18.34-4.43-18.18-2.3-12.84-1.52-18.64 3.82-16.36 5.19-17.26 6.42-11.16 9.93-16.5 4.28-10.09 3.82-13.6 5.05-24.14 2.29-10.85 2.45-10.39 4.27-10.09 4.28-8.4 5.35-9.78 4.89-7.64 4.43-6.42 36.53-48.14 22.62-38.05 16.2-42.63 3.97-29.04 3.06-29.64-3.98-33.32-13.44-26.13-.31-.61-.15-.3v-3.37l.3-6.26.16-30.41-3.21-14.21-3.21-13.6-6.12-19.56-6.87-17.27-5.96-10.39-3.52-6.57-10.39-19.72-18.34-18.03-36.68-32.39-8.25-6.27-7.18-5.35-1.84-1.22-5.04-3.67-1.07-.46-1.07-.45-1.07-.31-1.07-.31-1.53-.3-9.32-1.84-12.68-2.9-11.16-3.82-13.3-4.13-12.68-3.36-9.02-1.22-7.03-2.29-3.21 1.22h-.15l-.76.31-6.27 1.07-2.75.76-2.75.92-2.91.91-1.37.62-3.36 1.83-4.89 2.75-3.98 1.68-1.37.31h-.77l-1.98-.16-1.23-.15-5.34-.31-4.74 2.14-4.74 4.59-6.27 6.42-1.37 1.37-.61.31-7.95 4.12-2.44 5.81-12.54 11.46-18.18 13.75-7.49 6.58-21.09 16.35-14.52 5.65-1.53.76-1.83 1.07-14.67 8.1-1.07-14.06-7.8-109.41-6.26-3.36-1.53.46-2.6 1.22-1.37 1.07-1.07 1.38-1.84 3.66-6.42 13.3-1.83 4.58-1.53 5.35-.46 2.14-.3 3.06-.31 6.87-.3 2.75-.46 1.99-.77 2.44-1.83 2.6-1.68 1.53-3.06 1.99-1.99 1.37-1.98 1.53-1.22 1.38-.62 1.22-.76 2.6-.15.91.3 3.52.46 2.44.46 3.52.31 3.97-.16 6.88-.76 4.43-.46 1.83-1.07 2.29-1.38 1.84-1.68 1.53-1.52.91-3.06 1.84-1.22 1.07-1.68 2.44-.62 1.84-.76 3.2-.61 1.84-3.98 7.79-.91 2.75-.46 2.29-.15 1.38.61 10.54-.15 1.68-.46 1.38-.77 1.83-.46.61-1.68 1.07-.91.46-1.07.31-2.6-.15-5.5-1.53-3.37-.46-4.58.15-2.45.31-1.98.76-.77.46-2.29 2.29-2.44 1.84-3.67 1.98-.92.77-.92 1.68-.15.91-.3 5.51-.31 1.37-.46 1.22-.76.77-1.38.61-2.6.46-1.98.61-.61.61-.62.76-.15 1.53.31 1.68 1.22 5.2.15 1.22-.46.15-2.29.92-10.54 3.21-4.89 1.83h-.31l-2.29-6.11-.15-.3-.62-1.23-1.52-1.22-1.84-1.22-3.05-2.45-1.53-.91-2.75-1.07-3.52-1.53-1.68-.92-1.68-1.83-.76-1.07-1.38-1.68-2.6-1.99-4.28-2.44-1.83-1.23-1.38-.46-1.37-.3-7.18-.31-1.07-.15-1.07-.76-.62-.77-6.57-10.54-7.94-11.62-2.91-3.66-4.43-4.59-2.9-3.66-1.07-1.38-1.84-3.06-.76-1.68-.92-2.14-1.53-6.26-1.52-7.8-1.69-6.87-.61-2.6-1.37-5.5-1.07-4.74-2.75-12.07-1.53-5.2-.77-3.82-1.83-7.03-1.99-11.3-3.36-18.19-.46-3.51-1.68-10.7-1.22-8.4-1.22-5.35-.31-2.45v-4.12l.15-1.99.31-1.07.92-2.6.76-3.67 1.99-7.64 1.37-3.66 1.23-2.91 3.05-5.8 1.99-2.75 1.99-2.3 2.59-3.21 1.68-3.51 1.53-3.52.92-2.75 6.42-17.42 5.04-13.44 1.38-3.67.91-2.75.92-3.36.15-1.38.16-3.36-1.07-13.45-.77-5.65-.91-10.24-.77-11.62v-2.9l.15-1.99.31-1.68.61-1.52.77-1.53.45-.46.92-.61 3.21-.77 11.62-2.44 4.73-.77 3.98-1.22 6.72-1.98 1.53-.92 3.67-1.68 8.25-3.67 3.51-1.99 1.38-1.22 1.53-2.75.46-1.37.76-3.06 2.29-7.95 1.07-2.59 1.99-3.82 3.97-5.66.92-1.68 1.07-1.83.61-1.68 1.99-8.41.46-3.36v-1.99l-.62-5.19-1.37-6.12-.61-2.75-1.53-7.64-.76-3.82-1.07-3.82-.77-2.29-1.83-2.6-4.74-5.96-4.43-5.5-.61-.92-8.87-11.76-4.58-6.27-3.21-3.51-1.83-2.45-3.06-5.96-.61-1.68-.31-1.37v-6.73l-.15-1.83-.61-3.67-1.07-1.07-1.07-1.22-1.84-2.6-1.68-3.05-1.53-3.67-4.58-14.52-2.6-9.63-1.68-5.5-1.22-3.21-4.28-8.55-2.29-3.98-.92-1.22-.92-1.07-5.04-3.97-4.28-3.98-3.82-2.9-1.07-1.22-.92-1.07-1.53-2.6-.61-1.99-1.37-5.65-1.53-9.32-.31-2.29-.91-7.03-1.07-12.69-1.23-11-.61-2.75-.76-1.83-3.67-6.42-.76-1.22-1.84-2.75-1.83-2.91-1.53-2.14-2.75-4.73-1.37-1.99-1.84-2.29-1.83-1.68-6.12-5.35-6.41-4.89-3.06-2.6-.61-.76-1.68-2.6-1.38-2.75-1.53-3.67-.46-1.38-.91-4.27-.92-5.51-3.06-20.63-.45-1.98-.77-1.53-3.97-6.57-3.67-5.81-5.81-8.25-.3-.61-.31-1.38-.15-.91V3219l-.77-5.05.16-1.98.76-3.98.46-1.37h-2.9l-2.91.76-3.21 1.07-1.83.77-1.83 1.22-18.5 13.14-4.58 3.36-.61-4.43-.92-11.31-.46-8.4-1.37-20.48-1.68-19.87-.46-7.79-.77-9.47 35.15-67.39-5.96.61-.15.15h-.31l-10.69.76-5.96.46-17.43 1.23-1.07-12.99-3.05-44.01-1.84-23.54-1.07-17.88-2.44-31.48.92.31 1.83.31 6.88 1.52 12.99 2.3 6.42.61 11.92.91 2.75.16 7.33.46 25.52 2.29 6.58.91 5.19.62 3.21-.16 2.91-.46 2.75-.76 5.8-2.14 7.95-2.9 29.19-42.33 45.08.92 66.18 39.27 1.07-4.28.3-3.67-1.07-13.44-3.51.3-47.99-36.06 2.75-49.67-.61-.15-.61-.46-1.38-1.22-.91-.15-.92.3-1.07.15-1.99-.45-1.83-1.07-.77-.16h-1.83l-1.68-.15-1.07-.76-.61-.16-4.74.46-3.51 1.07-1.23.61-2.44 1.53h-.92l-.61-.3-.76-.62-.31-.61v-.91l.15-.31 1.84-3.06-.16-.76-.61-1.37-.3-1.23-.46-.46-.61-.15-.31.31-.61.3h-.46l-.76-1.07-2.14-1.22-.46-.61-.31-.76.31-1.53-1.38-.16-.91.16-2.45.91h-2.9l-.77-.15-1.22-.61h-.92l-1.22.15-1.83.61-1.07.16-1.38-.31-.76-.15-5.96.92-2.75.61h-1.22l-1.23-.77-1.07-.3-3.21.3-1.52.46-1.53.15h-1.38l-3.36-.61-1.07.16-3.36.91-2.14.46-2.29.31-1.84.61-1.83.91-.92.16-7.33-.61-2.91.15-2.29-.15h-1.83l-5.81.45-.77-1.52-6.26-17.12-3.67-8.25-2.75-5.5-1.07-1.99 13.14-.92 11.16-.61 13.75-.76 32.25-1.99-2.6-71.05-.3-.16-.77-.61-3.97-4.74-.31-.76-.61-2.14-1.22-9.47-.77-10.7-.15-1.07-.15-.31-.46-.3-.92-.46 1.38-1.68.76-1.53 1.38-3.97.3-.92.46-5.2v-3.36l-.91-4.12-.77-1.07-2.9-3.36-1.68-1.84-1.99-1.68-1.07-.92-2.45-1.22-2.29-.76-3.67-.46-4.27-.31-.62.16-.45.3-1.07 1.38-.46.76-.16 1.22-.15 1.23.31 3.51 1.22 14.21-9.17.61-6.27.16.46-1.68.16-1.84-.16-1.98-.46-2.3-.3-1.07-2.14-5.65-4.43-10.39-1.38-3.97-.61-2.14-.46-2.3-1.22-5.5-2.29-9.78-1.07-5.04-.46-3.52-.15-.15-.31-.3-5.2-1.53-3.97-1.53-3.67-1.68-3.97-1.53-3.21-.61-2.9-.46-1.99-.3-28.58-3.52-1.37-.3-2.14-1.07-1.23-.77-1.68-1.22-1.37-1.22-1.84-2.14-3.82-4.74-3.05-3.36-.16-.15-3.82-3.06-2.44-1.22-.77-.31-1.22-.15h-1.37l-2.6.46-22.16 5.5-10.39 2.44-22.16 5.05-14.98 3.66-12.38 2.91-12.07 2.59-11.47 2.91-6.41 1.37-7.95 1.84-1.53-24.61-.92-10.39-1.07-12.99-1.37-13.14-.61-5.96-.16-1.07.46-5.65v-1.53l-.76-14.06-1.07-12.83-.92-12.69-2.14-25.36-.91-12.84-1.69-21.09-2.29-27.05-1.22-15.43-1.53-25.83-.76-12.83.3-3.52.16-13.45-1.99.16h-.92l-.76-23.38v-4.89l-.46-7.18-1.38-12.99-.45-4.74-1.84-21.09-.76-12.68-2.29-27.36-2.6-36.37-1.07-12.83-.92-12.84-1.83-21.09-.16-3.51-1.22-13.6-1.83-25.98-.77-8.4-1.07-17.42-1.83-25.37-1.83-25.83-1.99-24.9-.92-12.84-.76-12.68-1.99-30.41-1.68-20.63.15-1.23.46-1.07.46-.45.46-.62 1.98-1.22 9.94-5.81 4.28-2.29 10.54-3.51 15.13-4.59 7.03-1.37 4.28-.46 4.43-1.07.77-.31 4.43-1.83 7.03-3.36 9.02-3.97 3.05-1.07 1.68-.46 1.23-.31 9.62-.3 19.41-1.68 3.21-.31 15.13-.92 9.78-.76 1.53-.46.77-.61 5.04 5.81.76.76 1.07.92 1.23 1.22 3.2 2.44 4.59 3.37 4.28 2.14 3.51 1.52 5.51 1.38 10.08 2.75 22.93 5.96 7.03 1.37 6.57 1.07 4.73.92 11.47 1.99.46-4.13.15-3.97-.15-3.21.45-1.99.61-2.14 1.53-3.66.61-2.14.16-2.14-.31-7.03.31-2.75 2.14-14.37v-2.44l.76-3.06.46-1.22.15-.92-.61-5.19.15-2.75-.3-2.6-2.75-6.88-.46-2.9-.15-6.11.3-5.96.31-2.3.46-5.8.45-.77.77-.61.76-.3.77.3.91.15.31-.3.76-.61.31-.77-.15-1.07-.77-1.52-.15-1.38.15-.92.31-.61.61-.3.76-.16.61.46 1.84 2.91.92.45h.45l.46-.45 1.07-1.84.15-.76-.15-1.22-.15-.92-.61-.77-1.38-.61h-.76l-.61-.45-.31-.77v-.92l.46-.76 1.99-1.53 1.52-2.6 1.84-3.21.92-2.29 1.68-5.65.61-2.45 3.82-10.85 3.36-15.74 2.45-9.16.91-1.38.77-.76.3-1.07.16-1.23 1.22-7.18 1.83-6.42 2.29-11.3.77-2.45 2.14-6.57.76-3.21 1.38-3.67.91-3.51.92-2.14 3.21-5.66 1.38-3.2 2.29-3.21.76-1.23.77-1.68 1.07-3.51 1.68-3.52 1.37-2.9 1.53-3.67 8.1-.61 10.39-.91h1.68l2.76.61 1.07.45 2.44 1.84 2.29 1.22.92.31 1.38.45h1.83l1.07-.15 1.37-.3 1.23-.16-.16 1.07.16 3.21.3 3.21v5.2l.16 2.14.15 2.14.3 2.9.62 3.21.15 1.07.3 3.97.16 1.99.46 5.35.3 4.27 8.25 102.24.46 4.12 8.41 106.97v.46l.15 2.9 3.52 45.24.15 1.37 2.6 32.86-2.45 24.14h.61l.77.31 1.52.91.92.77.77 1.22.61 1.53.46 2.75.15 8.86.61 9.02.31 2.14.45 2.9v3.51l.31 3.06.46 5.96.76 4.43 1.53 28.58 7.79 100.55.62 1.53 4.27 56.23 2.91 36.83.15 1.99.46 5.34 5.81 77.33v2.44l.91 9.63 1.07-.15 8.41-.92 25.22-1.83 14.97-1.53 10.55-.92 25.06-1.99 7.79-.91 47.23-3.82 10.24-.92 10.24-1.07.61.15.61.31.15.61.46 8.86 1.22 13.76 1.53 25.21 1.07 15.59 1.68 21.7 3.67 44.16.15 6.27.46 8.09 16.96-1.98 2.3-.31 18.03-2.14 2.9-.3 6.88-.92 14.06-1.68 9.32-1.07 15.13-1.53.46.15 2.6.31 1.38.46 3.82 1.83 2.9 1.53 25.22 12.99 5.96 2.6 2.29.91.76.31 1.53.61 7.8 3.21 2.9 1.38 4.28 1.98 2.9 2.14 6.88 5.35 4.43 3.82 2.14 1.99 2.14 2.75 2.45 3.82 3.05 4.43 2.29 2.9 1.23 1.53 2.14 1.83 1.37 1.23 4.43 2.59 1.99 1.07 2.29.92 1.38.15h1.98l3.83-.3 6.72-1.22 1.53-.31 5.19-.92 4.59-.15 6.11.46 13.6 2.14 24.91 6.72 3.21.92 3.98 1.22 5.96 2.29 4.28 1.99 1.83.76 2.75 1.23 2.9 1.07 1.38.15 1.68-.15 25.22-1.84 3.21.16 3.21.3h1.68l3.36-.15 5.96-.15 4.28-.46 1.99-.46 2.13-.31 4.28-.76 6.73-.92 2.75-.15 15.13-.92h8.56l18.79.16 7.03-.16 13.61.16 10.54 1.22 6.88 1.07 4.43.46 2.29.3 9.78.92 5.35.61 4.28.76 2.14.61 1.38.62 6.11 2.59 13.14 5.35 11.77 4.59 5.04 2.14.46.3 3.98 1.99 8.1 4.89 8.25 5.04 4.89 2.45 4.74 1.98 6.87 2.6 2.3.92 3.66 1.37 6.88 2.75 10.55 4.44 2.59 1.68 3.06 1.98 7.95 6.12 1.68.91 8.25 3.36 4.28 2.14 2.6 1.53 3.51 3.06 2.45 1.83 3.67 2.45 1.07.45 5.65 2.6 1.38.61 4.43 1.68 2.9 1.07 4.59 1.84 1.22.3 2.9.46 2.45-1.37 6.42-4.43 3.21-2.3 1.98-1.37 4.74-3.52 3.82-2.9 5.04-3.67 3.52-2.75 1.68-1.07 1.07-.76 1.22-.31.92-.15.76-.15 6.12.61 5.5.76.15-4.74.31-3.05h2.75l3.21.15 11.15-.15 3.67-.46 6.11-.15 2.14-.31.31-.61v-.61l-1.38-18.03.31-3.98.92.46 7.03 1.84 3.66.91 3.37-.15 6.11-.46 3.97-.15h1.23l8.71-.76 4.43-.16 4.12-.3h1.38l9.47-.61 11.01-.92 10.85-.46 7.03-.61 3.67-.31 2.44.31 12.99-.77 6.27-.3 9.63-.76 12.99-.92 2.9-.15 11.61-.77 4.44-.3h1.52l15.44-1.07 9.78-.77 2.75-.15 1.99-.15.92 2.44 3.51 7.03 2.14 5.2 4.74 11.61 1.07 3.51.76 3.21 1.22 6.73.46 2.44 1.53 4.59.77 1.83 2.44 4.13 2.9 4.43 7.03 10.24 3.06 4.28 6.27 8.25 2.14 3.21 1.22 2.14 1.99 4.73.61 1.84.46 1.68.3 3.05.15 2.3.16 2.29.15 3.82-.31 4.89-.3 1.37-.61 3.06-.31 1.68-.46.77-1.22 2.75-.92 1.37-.76.92-1.68 1.68-1.53 1.53-1.22 1.22-.31 1.07.31 1.07.76 1.07-5.96-1.38-13.45-.15-3.97 1.99-13.45 6.41-11.77-3.05-9.47 4.58-25.52 12.08-41.88 34.99-9.47 26.13-9.02 24.6-6.57 34.54.15 17.27 11.92 52.11 9.32 30.71-9.78 51.19 3.06 24.15-7.8 52.41-26.74 55.47-11 16.51-75.19 89.09-48.6 70.75-4.13 7.64-1.98 4.13-1.53 3.97-2.45 7.03-1.68 5.35-1.37 5.8-1.07 3.36-1.23 6.27-1.98 6.42-1.69 5.19-1.98 5.81-.15.46-2.3 7.79-1.37 6.88-.92 2.9-.31 3.06-.61 2.9-.76 4.43-.15 4.13.15 3.21.61 3.51 1.68 7.49-.15 5.04.46 7.34 1.98 9.63 1.99 8.4 1.53 9.02 1.53 10.54 1.83 9.63 3.36 8.25 4.13 7.18 5.2 14.37 4.58 13.75 4.13 11.46 2.44 6.72 3.06 8.1 2.44 5.51 4.13 7.64 4.74 8.09 2.44 6.27 1.07.76 1.68 2.3 2.3 4.58 2.44 5.65 2.45 6.73 2.9 6.72 2.75 5.5 2.29 4.59 3.06 5.96 4.43 7.03 3.67 5.04 2.75 4.13.76 1.22 4.13 6.87 4.43 6.42 3.98 5.5 3.36 5.51 5.81 7.33 4.12 4.43 3.21 3.21 3.82 4.28 4.59 3.97 5.65 3.82 7.03 5.5 5.2 4.44 5.19 5.04 5.35 4.12 2.3 1.53 2.29 2.14 6.11 4.89 4.28 4.13 3.82 5.35 3.06 2.14 10.24 5.8 5.96 3.82 5.65 4.59 4.13 2.29 8.71 6.57 4.43 4.43 6.57 5.2 4.28 3.21 5.96 4.89 6.11 3.05 8.26 2.3 7.94 5.19 6.27 4.74 6.88 3.05 8.1 3.82 8.25 5.2 8.1 5.2 3.97 2.44 1.84.92 5.65 4.43 2.75 2.9 2.75 3.36 3.36 1.99 3.52 1.83 3.21 3.98 3.06 2.44 2.9 2.14 4.28 3.06 4.89 5.65 3.97 2.75 5.2 3.21 4.58 3.06 3.37 2.75 4.12 4.58 4.28 4.74 3.21 2.29 3.67 1.84 3.21 3.66-1.38 5.81 1.53 3.06 11.77 12.83 19.41 26.13 3.51 19.56-.61 12.69 2.75 14.97 3.52 13.6 3.97 11.77 3.97 12.23 2.45 5.96 1.68 4.58 4.74 12.84 5.5 16.96 4.43 13.6 3.06 11.15 1.68 5.96.3 1.99-.45 2.14 8.86 41.41 7.64 36.98.92 5.05.3 12.22-.15 21.39-.76 14.67.91 5.66 1.53 9.93 2.29 17.88.31 3.06 2.14 20.78-.77 2.9-3.97 17.58-16.5 40.34-11.77 16.2-8.25 16.5-9.63 23.53-7.49 26.13-5.35 24.61-3.82 11.92-3.36 10.69-10.24 9.17-.61.77-.77.91-.46.61-.61.92-.91 1.38-7.49 12.07-.61.92-.61 1.37-12.84 24.91-19.11 37.13-18.33 35.61-5.51 6.57-10.08 11.92-11.31 11.61-8.25 15.59-14.68 24.3-15.13 18.33-7.48 6.42-3.37 3.06-26.13 15.58-22.01 10.4-16.96 8.55-23.08 12.69-6.42 2.14-8.09 2.75-12.38 5.04-14.83 5.65-18.03 6.27-17.58 7.33-9.78 3.21-13.29 4.43-4.74 1.23-10.24 2.59-16.2 3.98-19.1 5.04-6.73 1.68z" stroke-linejoin="round"/></defs><use xlink:href="#c" fill="#9dc8ca" stroke="#9dd7f0" stroke-width="5.76"/><defs><path id="d" d="M1223.68 2688.58l-3.21 2.3-6.42 4.43-2.45 1.37-2.9-.46-1.22-.3-4.59-1.84-2.9-1.07-4.43-1.68-1.38-.61-5.65-2.6-1.07-.45-3.67-2.45-2.45-1.83-3.51-3.06-2.6-1.53-4.28-2.14-8.25-3.36-1.68-.91-7.95-6.12-3.06-1.98-2.59-1.68-10.55-4.44-6.88-2.75-3.66-1.37-2.3-.92-6.87-2.6-4.74-1.98-4.89-2.45-8.25-5.04-8.1-4.89-3.98-1.99-.46-.3-5.04-2.14-11.77-4.59-13.14-5.35-6.11-2.59-1.38-.62-2.14-.61-4.28-.76-5.35-.61-9.78-.92-2.29-.3-4.43-.46-6.88-1.07-10.54-1.22-13.61-.16-7.03.16-18.79-.16h-8.56l-15.13.92-2.75.15-6.73.92-4.28.76-2.13.31-1.99.46-4.28.46-5.96.15-3.36.15h-1.68l-3.21-.3-3.21-.16-25.22 1.84-1.68.15-1.38-.15-2.9-1.07-2.75-1.23-1.83-.76-4.28-1.99-5.96-2.29-3.98-1.22-3.21-.92-24.91-6.72-13.6-2.14-6.11-.46-4.59.15-5.19.92-1.53.31-6.72 1.22-3.83.3h-1.98l-1.38-.15-2.29-.92-1.99-1.07-4.43-2.59-1.37-1.23-2.14-1.83-1.23-1.53-2.29-2.9-3.05-4.43-2.45-3.82-2.14-2.75-2.14-1.99-4.43-3.82-6.88-5.35-2.9-2.14-4.28-1.98-2.9-1.38-7.8-3.21-1.53-.61-.76-.31-2.29-.91-5.96-2.6-25.22-12.99-2.9-1.53-3.82-1.83-1.38-.46-2.6-.31-.46-.15-15.13 1.53-9.32 1.07-14.06 1.68-6.88.92-2.9.3-18.03 2.14-2.3.31-16.96 1.98-.46-8.09-.15-6.27-3.67-44.16-1.68-21.7-1.07-15.59-1.53-25.21-1.22-13.76-.46-8.86-.15-.61-.61-.31-.61-.15-10.24 1.07-10.24.92-47.23 3.82-7.79.91-25.06 1.99-10.55.92-14.97 1.53-25.22 1.83-8.41.92-1.07.15-.91-9.63v-2.44l-5.81-77.33-.46-5.34-.15-1.99-2.91-36.83-4.27-56.23-.62-1.53-7.79-100.55-1.53-28.58-.76-4.43-.46-5.96-.31-3.06v-3.51l-.45-2.9-.31-2.14-.61-9.02-.15-8.86-.46-2.75-.61-1.53-.77-1.22-.92-.77-1.52-.91-.77-.31h-.61l2.45-24.14-2.6-32.86-.15-1.37-3.52-45.24-.15-2.9v-.46l-8.41-106.97-.46-4.12-8.25-102.24-.3-4.27-.46-5.35-.16-1.99-.3-3.97-.15-1.07-.62-3.21-.3-2.9-.15-2.14-.16-2.14v-5.2l-.3-3.21-.16-3.21.16-1.07-4.59-60.36-.46-5.96-.15-2.29-13.91-175.12v-1.07l-14.82-188.11 1.53-.62 3.36-1.68 28.58-9.93-1.99-7.79-1.37-3.82-7.8-11.92-3.97-6.11-9.93-14.83-1.84-3.36-.92-2.14-1.22-3.82-.92-3.67-2.29-11.76-.91-3.06-1.07-2.29-4.44-7.34-1.68-3.36-.3-.61-.92-3.06-.31-2.14-.45-4.12-.62-8.86-1.98-22.62-1.53-23.08-.15-1.68.3-1.52-2.9-27.66-6.27-77.33-1.22-12.07-1.07-13.29-.76-8.56v-4.13l-7.03-104.52 74.58-4.74-.31-4.74-1.68-22-2.29-30.26-1.23-19.86-.3-1.53 2.14.46 43.86 13.14 16.81 4.89 27.36 8.4 12.99 3.98 7.18 2.44 3.21 1.53 10.08 5.5 2.91 1.84 2.44 1.68 2.45 1.98 20.32 14.67 9.63 6.88 1.68-.15 8.87-.46-.92-8.25-.92-10.7-.61-8.41-1.37-16.35-1.53-25.06-3.98-49.81-1.22-12.69-.76-12.53-1.22-12.53-1.84-25.37-.61-7.02-.61-6.42.15-.92.46-.61.15-.15.92-.46 18.34-1.23 7.03-.61 21.85-1.37 2.91-.31 2.29 7.34 1.99 4.89 1.37 3.21.77 1.37 3.66 5.66 2.6 4.12 10.24 12.69 4.74 5.8 1.07 1.53.76 1.38 1.07 1.98 8.41 20.94 5.19 13.14 1.53 2.9.77 1.07.61.61.91.77 8.71 6.42 11.77 8.71 8.56 6.11 2.9 2.75 1.53 1.68.77 1.22 1.37 2.91.61 1.37 2.3 9.63.76 3.06.61 1.98.61 1.22.77 1.53 2.9 3.98L679 783.01l2.45 2.75 1.07 1.38 3.06 4.43 1.37 2.44 2.14 4.13 2.45 5.2 1.83 6.11 1.22 5.96 25.52-1.68 20.18-1.53 8.25-.46 6.57-.61 1.53.15 17.88-1.53 4.13-.45 4.89-.16 10.85-.76 16.66-1.07 14.21-.77 1.07-.91 1.37-.31h4.44l8.86-.46.92-.3.3-.15.31-.46.15-.46-.76-10.7-.46-5.81v-.76l.3-.92.62-.91-1.69-20.48-2.29-25.67-1.53-18.95-.15-.61v-.46l-3.97-54.71-1.07-22.46-2.6-23.08-4.28-58.07-3.06-38.2-.61-4.43-1.07-7.33.61-.16 7.8-.61 4.43 5.04 5.5 5.51 50.28 50.88 7.18 6.57 15.9-1.53 45.69-3.2 23.84-1.53 13.76-1.22 2.29-.31 11.77-3.06 39.89-7.94 4.43-1.38 9.01-3.82 13.45-6.11 24.91-11.16 5.05-1.68 4.28-1.37 10.54-2.45 9.78-2.6 29.8-7.18 14.22-3.05 28.42-6.73 11.31-3.21 2.75-.61 2.14-.3.46 3.66 1.22 23.38 2.75 34.54 9.94 110.94-1.23-.76-1.52-.31-12.23 1.07-18.34 1.38-1.07 10.08-.92 19.41-2.75 11.31-5.04 16.2-3.52 7.03-8.86 10.23-33.32 29.8-17.57 12.99.31 1.22 1.37 9.48 1.53 26.89.61 12.69 1.07 12.53 1.22 12.68.77 13.14.46 12.99 1.37 25.67 1.22 12.84 1.07 5.96-.15 3.51-.61 1.84-.46 1.83-4.58 7.95-3.67 5.96-1.38 3.36-.61.92-1.22 1.07-1.38 1.68-.76 1.22-.46.46-3.06 1.07-.91.61-.46 1.07-.31 2.14.16 2.9 15.28-.91 13.29-1.07 13.76-.92 22.62-1.07 16.5-.92h6.11l4.44.31h.46l3.97-.92 2.44-.46 9.02-.61 12.99-.3 13.75-1.07h4.74l3.98 48.59 1.68 21.55 1.53 16.5.76 9.17 1.37 25.52.46 12.84.46 13.6 1.38 18.49 1.83 32.09.77 11.61.45 6.72 1.38 19.72 2.14 29.34.76 9.93 1.38 13.14 2.44 27.05.92 12.38.76 13.29 1.07 13.45 3.21 3.06 1.68 1.83.92 1.68.92 2.75 1.22 3.97 3.52 14.22 1.37 8.4.31 1.22 32.7-2.29 18.95-2.44 25.98-.77 1.84 22.46.76 12.99.15 2.3.46 3.82-.3 4.28.91 1.83 14.67-4.89 12.08-.92 14.21-1.37 87.72-1.23v.77l-.15 4.12-.46 9.78v3.21l-.15 3.37-.92 5.65-.76 3.51-1.23 3.67-2.59 8.86-1.99 5.96-.92 2.91-.76 2.9-1.68 8.25-.77 6.42-.15.92-.76 5.8v3.21l.15 2.3.31 2.14 1.37 4.73 1.22 3.82 2.45 6.42 5.04 14.21.46 2.14.15 1.38-.15 2.44-.31 1.84-.61 1.83-1.22 2.75-1.83 3.06-1.68 2.9-1.23 2.75-.76 1.83-.46 2.14-.15 2.45v5.96l-13.15-.61-5.34-.31-3.21-.15-2.45.15h-2.75l-5.96.31-5.65.61-4.89.3.45 7.19.31 2.59.15 2.91v5.19l.31 3.36.76 5.51.46 2.14-21.7 21.85-1.53-1.84-1.53-.15H1428l.77.92.91 2.44.16 4.28 2.44 2.75.31 2.29-.31 1.38-.3.46-12.08 8.71-2.9 2.44-3.36 3.06-3.82 4.28-2.14 2.9-3.67 6.11-1.68 3.52-1.38 3.82-1.98 5.96-1.07 4.58-.61 3.52-.31 4.12-.15 3.21v5.66l.3 4.58 2.45 18.8 1.37 11.76 1.23 9.33 1.37 13.14 2.29 19.25 2.91-.15 3.21-.31 2.14-4.43 3.51-8.86 4.74-13.14 2.9-6.88 1.99-6.11 1.83-4.74 5.05-.61 19.71-.92 26.29-.76 10.08-.77 2.14-.3.92-.61.61-.92 1.22-.76 3.67-3.21 4.43-5.66 3.52-5.8 1.99-5.05 2.59-8.1 3.52-24.29 13.29-1.07 3.52 16.04 6.11 25.06 2.75 12.38 1.68 5.96.92 4.28v1.53l-.15 1.99-.61 1.52-.77 1.84-.76 1.22-25.83 26.28h-5.04l-3.98.16-13.44-.16-3.67.16-10.85.3-12.38.92.46 5.5.76 10.09.31 1.68.15.76.61.46.61.15 7.95-.46-18.65 42.49-7.94 18.33.61 2.6.76 10.39.46 4.13.15 2.14.31.91.61 1.38-.92-.92-.91-.46-1.84-.15-3.66.15-6.12-.3-3.05-.46-3.37-.46h-1.52l-11.01 1.53h-3.21l-7.79 3.82-6.57 3.36-65.11 3.82-4.73.61-6.27-4.12-4.74-.61 1.22 17.11 1.38 20.33 4.13 61.43 15.28-1.23 6.11-.45 12.23-.77 4.43-.3 25.83-1.84 16.81-1.22 11-.76 9.17-.62.92 7.03 1.68 13.45 4.58 39.12 7.95 63.88 1.84 16.19-8.87.31-.15.15-1.99.46-3.82.15-21.85 1.53.46 7.49 16.35-.92 17.57-1.22 3.21-.3 1.38 13.9 7.94 64.34 1.53 12.83 2.6 21.24 3.97 33.01-1.52 2.14 11.61 96.12-4.43.46-5.2.46-4.28.3-12.68 1.38-16.81 1.52 10.08 61.59.77.46-2.29.61.3.76 1.22 2.45 4.9 6.87 2.44 3.98 1.38 2.9.61 2.14.15 1.37v1.84l-.31 2.6-.45 1.52-.46.62-.31.45-3.67 2.45-.76.61-.46 1.07v1.83l.46.61.76.77 1.07.92 1.84 1.07.3 1.06v.92l-.3 1.07-.16.15-.3.31-.61.31-.92.15-.46-.15-1.68-.31-2.14-1.22-3.21-2.6-.76-.76-.61-1.07-.46-1.23-.15-1.07.15-3.82-.31-3.36-.15-1.07-.46-.61-1.07-.92-1.37.31-.92 1.68-1.38 2.9-.91.92-1.68 1.07-1.69.61-.61.46-.46.76-.15.31-.15 1.53.15 1.53.46 1.68.15.46 3.37 6.87.91 1.07 2.75 2.14 1.99.15h1.99l1.07.31.15 1.22-.31.61-.91.46-.31.15-1.22.16-1.68.46h-1.23l-1.06-.16h-2.6l-1.38-.15-3.36.76h-2.14l-1.53-.45-.92-.92-1.07-1.99-2.29-6.26-.76-.77-.61-.46h-.92l-1.22.16-.77.61-.91 1.98-.31 1.69 13.3 10.08 5.5-.3 10.08-3.37 23.54-6.11 3.82-1.07-1.53 7.95-6.11 31.94 7.49 1.22 1.07.3.76 3.06.77 2.6 1.37 5.5.46 2.44.15 3.06v3.06l-.15 4.43-.46 4.58-.46 5.2-.3 3.05-.61 2.76-.62 2.29-1.37 4.43-.92 2.44-3.67 9.33-3.36 8.71-2.6 6.26-5.5 10.7-3.82 7.94-1.07 3.82-.61 3.06-.15 1.68v5.2l.61 6.11.3 2.44.62 1.69.61 1.68.91.91 1.53 1.38 4.74 2.75 1.68.92 1.07.91 1.07 1.07 1.68 1.99 1.07 1.99 7.95 19.56-1.99.15-2.75.15-9.78.77-15.44 1.07h-1.52l-4.44.3-11.61.77-2.9.15-12.99.92-9.63.76-6.27.3-12.99.77-2.44-.31-3.67.31-7.03.61-10.85.46-11.01.92-9.47.61h-1.38l-4.12.3-4.43.16-8.71.76h-1.23l-3.97.15-6.11.46-3.37.15-3.66-.91-7.03-1.84-.92-.46-.31 3.98 1.38 18.03v.61l-.31.61-2.14.31-6.11.15-3.67.46-11.15.15-3.21-.15h-2.75l-.31 3.05-.15 4.74-5.5-.76-6.12-.61-.76.15-.92.15-1.22.31-1.07.76-1.68 1.07-3.52 2.75-5.04 3.67-3.82 2.9-4.74 3.52-1.98 1.37z" stroke-linejoin="round"/></defs><use xlink:href="#d" fill="#9dc8ca" stroke="#9dd7f0" stroke-width="5.76"/><defs><path id="e" d="M2311.34 3628.84l-4.89-3.97-35.61-28.27-59.61-42.95-60.36-22.92-19.72-7.33-155.88-76.26-28.12-16.35-2.9-1.52v-3.21l1.53.15-.61-6.57-.31-6.57-.31-4.28-.61-5.2-2.29-29.64-.76-12.69-2.91-38.5-.46-7.95-.91 11-.77-3.51-2.9-36.53-.61-9.01-4.43-52.11-.46-4.43-1.07-15.13-.16-3.36-.76-8.87-.15-2.75-.15-1.68-.16-2.75-.3-1.98-.16-2.6-.15-4.13-.3-6.57-1.69-22.92-1.07-15.28-1.22-15.59-1.22-15.28-.31-4.43-1.07-12.99-.91-13.45-.16-1.22-.91-12.99-1.84-20.32-.46-6.57-.45-9.33-.92-11.46-.46-6.26-.76-12.08-.92-12.22-.92-12.23-.76-12.22-1.07-15.74-.92-10.39-.61-10.54-.76-12.38-.92-12.08-.92-12.07-1.07-11.92-.91-12.37-1.23-14.52-.76-9.93-.15-2.45-.31-3.21-.46-5.81-.15-1.83-.31-4.28-.61-7.03-1.07-11.61-.3-2.6-1.53-15.59-1.84-17.87-.61-6.12-.91-10.39-.77-8.86-.61-5.35-.92-9.63 4.59-6.87.3-.46v-1.53l-1.68-1.07-3.66-1.83.45-.16 1.07-.3h18.04l1.68-.16 1.53-.15 7.79-.15 3.06-.46.76-.15 1.07-.15h1.07l1.83.15.92.3 2.91.46h.15l2.44-.46 7.19-.61 8.86-1.37 1.68.61 1.53.15 2.44-.15 15.44-1.38 4.59-.46 12.99-1.07 5.96-.45 3.2-.31 7.49-.61 14.37-1.07 8.1-.76 12.07-1.07 11.31-.92 1.38-.15 11-1.07.31 2.14v1.22l12.99-1.07 5.34-.31 6.88-.76 10.24-.61 6.42-.61.76-.16h.92l14.21-1.22 11.31-.76 10.39-1.07 6.73-.46 1.22-.15 18.8-1.53 10.09-.77 12.07-.91 10.39-.92 10.7-.92 9.63-.76 9.47-.76 6.88-.62.15 1.07 21.7-1.37 24-1.53 18.64-1.07 10.85-.76 4.74-.16.92-.15h.76l22.31-1.53 9.48-.46 14.52-.45 10.39-.92 7.64-.46 6.72-.92 1.99-.45 6.42-1.38 1.53-.46 9.32-1.37.31-.16 1.37 1.23.46 3.66.15 2.6 1.53 17.58.15.91.31 3.82.46 5.5.76 10.7 1.84 20.17 2.29 28.42.15.92.15 4.43 1.53 15.59v.92l.16 1.52 1.07 13.45 1.07 10.39 1.52 15.28 1.07 12.38 1.23 13.45.45 8.1.16.61v.76l.46 6.42.91 11.46.77 10.7.15.46 1.83 23.84.16.91.45 6.42v.46l.46 4.28.61 1.07.46 6.57 1.99 26.59.15.92v.61l-.46.91 1.23 15.13.46 6.27.76 10.39.31 4.43.91 11.31.31 3.51.91 10.4.77 11.46 1.53 21.24 1.07 12.22.76 9.32.31 2.6v.46l1.37 15.59.31 4.12.91 9.02.77 8.1 1.83 20.47.31 3.67-2.91.92-.45.46-.62.91-2.29 5.35-.91 1.68-.92 1.07-.77.77-.45.3-1.53.92-1.68.61-1.99.46-1.68.15h-1.07l-7.49.77h-.92l-1.83.3-4.28.46-3.06.31-12.37.76-9.02 1.07-9.17.46-24.15 2.6-15.13 1.22-17.11 1.22-25.22 1.68-12.84 1.38-14.67 1.22-1.37-.15-2.14.15 1.22 9.02-.61-.16-16.51 3.06-7.33.61-7.49 1.99-8.41 3.36.31 1.99v1.22l.15 1.22 1.07 13.14.46 1.99 7.34 34.99 12.07 133.1 7.18 91.54.46 1.53.76 1.68 1.84 1.37 2.6.61 2.75.77.76.61.46.92.15 1.07v1.68l.92 112.47 9.47 9.78 5.81 4.89 6.73 5.04 5.35 4.28 2.44 2.14 6.27 5.19.76.46 1.38.46.3 1.37v.77l.15.61-.15.46v.61l-.3.46z" stroke-linejoin="round"/></defs><use xlink:href="#e" fill="#6bacaf" stroke="#6bb4d2" stroke-width="5.76"/><defs><path id="f" d="M2062.99 2793.72l7.49-.61-1.22-13.91-1.07-12.22-.92-13.76-.76-8.4-4.28.61-4.74.46-1.53.15-33.77 2.9 3.51 33.78 1.07 13.9 10.4-.92h.61l4.12-.3 3.52-.31 5.96-.45 1.68-.16 5.5-.46 1.22-.15 3.21-.15z" stroke-linejoin="round"/></defs><use xlink:href="#f" fill="#6bacaf" stroke="#6bb4d2" stroke-width="5.76"/><defs><path id="g" d="M2237.98 2683.54v.76l-6.88.62-9.47.76-9.63.76-10.7.92-10.39.92-12.07.91-10.09.77-18.8 1.53-1.22.15-6.73.46-10.39 1.07-11.31.76-14.21 1.22h-.92l-.76.16-6.42.61-10.24.61-6.88.76-5.34.31-12.99 1.07v-1.22l-.31-2.14-11 1.07-1.38.15-11.31.92-12.07 1.07-8.1.76-14.37 1.07-7.49.61-3.2.31-5.96.45-12.99 1.07-4.59.46-15.44 1.38-2.44.15-1.53-.15-1.68-.61-8.86 1.37-7.19.61-2.44.46h-.15l-2.91-.46-.92-.3-1.83-.15h-1.07l-1.07.15-.76.15-3.06.46-7.79.15-1.53.15-1.68.16h-18.04l-1.07.3-.45.16-.92.3-1.99.46-5.35 1.38-9.47 1.98-4.74.77-1.22.3-8.71.77-8.1.91-15.13 1.07-7.8.46-1.83.15-5.81.46-14.21.92-10.7.76-11.16.92-10.69.61-11.16.61-10.24.46-16.05 1.22v-1.07l-1.07-11.3-.91-12.38-1.07-12.07-.92-12.23-.92-12.99-1.07-12.38-.91-12.22-.46-5.81-.46-6.57-.3-6.11-.62-6.11-.61-6.73-.3-5.5-.31-7.33-.46-5.35-.91-12.23-.92-13.45-.77-12.37-.91-12.23-.77-12.22v-1.07l-1.68-24.15 1.99-1.98 1.37-1.07 1.69-.46h2.75l2.59.61 3.37.92 3.66.76 2.91.61 1.53.15h3.82l-.92-13.29-.76-12.53-.92-12.53-3.06.15-6.11-.3-4.28-.16-5.04-.15-.46-.31-.61-.45-.46-.31-.31-.61-.46-.61-.61-1.38-.76-3.66-.46-3.67-.61-5.5-.46-7.03-2.14-6.57v-5.96h-5.04l-16.2.91-3.97.31-2.76.3h-.91l-.92.16-.15-.77-.31-.61-1.22-4.12-8.41-19.87-.76-2.29-.61-2.9-.31-2.6-.15-5.2.46-5.81.92-3.82 1.68-2.59 1.83-.77 11.16-2.9 1.22-.31 1.22-1.07 1.22-1.52 2.3-3.98.91-2.44.62-2.14.15-1.99-.15-2.6-.62-3.82-1.07-4.28-1.07-5.96-.3-3.51.15-2.75.77-4.58 1.98-4.89 2.29-3.83 2.76-2.75 4.12-1.98.46-2.91 11-68.76 5.35-.46-2.6-17.27-.61-1.37-.91-2.29-12.38-55.02-2.14-9.62-.92-4.59-2.44-10.39-2.3-13.45-2.14-14.21-.3-1.53-.61-5.04-1.38-12.84-1.07-12.22-.3-4.89-.62-8.56-.76-9.78-.76-9.47-1.38-14.98-1.37-16.5-1.99-23.69-1.53-17.57-.15-5.66.46-12.83h-.77l-1.07-.46-7.33-4.13-4.89-3.05-3.21-1.99-2.45-2.14-1.83-1.68-1.07-1.38-.46-1.06-.31-1.07-.15-1.23v-2.14l.92-5.35 1.37-5.95.61-2.91.77-3.05.61-1.38.31-.92 2.14-3.97 4.12-5.65 1.53-2.3 1.99-3.97 1.22-3.06.61-2.44.76-3.67.46-4.43v-5.04l-.3-5.35-.61-5.04-1.38-8.41 8.56-.76 7.18-.61-.3-4.44-1.23-10.08-2.9-12.99-.15-1.99v-1.52l.61-2.45-3.82-1.53-.92-.3h-1.68l-14.06.91-.61-2.14-.61-3.82-.31-1.68-.15-1.83-.46-4.74v-5.96l.31-6.11.3-5.04v-15.59l.31-5.81-.31-3.36-.3-1.83-.46-2.29-1.07-3.21-3.67-8.71-1.53-4.59-1.07-2.9-.76-3.52-.61-3.51-1.68-11.77-1.69-11.61-.76-4.74-.92-6.57-.3-4.43-.16-3.67-.15-10.7-.15-4.73.3-4.43.92-6.88.31-1.68 5.8-27.35 2.3-11.92-14.22 1.07-16.65 1.06-11.77 1.23-4.28.3-11.62.92-3.82.15-2.75-.76-1.52-1.22-.92-1.23-1.22-2.29v-1.53l-.46-2.59-.77-12.08-.76-6.72-.46-1.68-.46-1.22-.92-1.38-.91-.92-1.22-.91-1.07-.46-1.38-.15-8.71.76-9.63.76.46 3.67.61 2.6 1.22 3.36.77 2.29-13.3 18.8-.3-4.74-1.07-13.29-.77-1.84-.3-1.52-.46-4.89-.15-3.06-.92.3-3.82 2.45-.46.31-1.07.3-2.14.15-11.92.77-8.86.76-2.45.61-1.68-1.98-4.28-3.67-3.67-3.52-2.14-2.13-1.07-1.53-1.07-1.68-.76-1.84-1.68-5.04-2.14-7.79-.31-.77 2.14-.15 13.91-.46 14.06-.61 7.64-.76 3.97-.46 5.2-1.07 6.57-2.29 4.28-1.69 12.69-6.26 12.37-5.2 12.38-5.34 15.59-7.34-3.21-39.73-2.14-27.66-1.68-1.83-.92-.92-.45-.31-.46-.46-.16-.91-.15-1.38.46-1.53 1.07-1.52 1.53-1.23 4.12-2.14 4.44-1.22.61-.15 1.98.31 6.27 1.37 1.68.92.77.91.91 1.53.16 2.6v3.06l.45 6.11.31 1.22.46.46 1.07.15 9.32-.46 18.19-1.68-1.07-17.42-.16-2.14-.15-2.75-.46-5.65-.15-2.9-.15-3.06-.61-11.46-.16-4.89-.3-4.28-.16-6.57-.3-5.35-.31-2.75-.76-4.28-1.22-4.13-5.2-14.05-.76-2.6-.46-1.53v-.61l-2.91-25.98-1.07-12.07-.45-9.32v-.92l.15-1.38.15-1.22 34.23-1.53 14.37-.3h1.22l2.91-.15 3.21-.16 4.89 13.91 1.83 5.19 2.75 7.95 4.59 13.29 4.89 13.45 2.44 7.34 1.84.46 5.04 14.36 5.96 17.88 12.22 35.45 1.99 5.81 4.28 12.99 9.17 25.98 13.14 38.81 3.98 11.31 7.48 21.39 8.72 24.6 6.26 18.04-1.53.15 1.38 4.43 3.67 10.7 11.61 33.31 3.36 10.09 4.44 12.37 7.18 20.63 2.6 7.49 1.68 4.89 7.18 20.63 7.18 20.17 2.75 8.41 13.45 38.97 1.84 5.19 6.87 19.87.46 1.07 1.22 3.82.77-.62.76-.45 1.99-1.84 2.9-1.98 3.82-2.45 1.07-.61 14.98-9.93 5.5-3.67 1.53-.92 12.38-8.55 2.14-1.38 3.06-.15 2.75-.61 6.42-1.84 2.9-1.53-8.71-3.97-1.53-.76h.46l4.43 2.14 5.35-.92 5.2-.92 5.34-.91 10.09-6.88 2.6-1.83 4.74-3.21 3.05-1.07 11.46-3.98 9.17-6.87 7.95-17.12 6.73-1.68 17.57-4.13 15.59-5.95 4.58-1.84 2.3-2.44 7.18-8.71 5.5-7.64 4.28-7.34 3.51-1.53 7.19-13.29 5.5-10.09 5.35-8.86 2.9-.92 3.97.46 5.97-29.19 3.51-6.57 1.68-3.36 1.84-3.97 8.09.76 5.05.46h1.37l1.38 25.06.76 8.71 1.23 18.95.76 13.91 1.68 19.25.92 13.45 1.37 29.95 1.23-.31 1.98-1.07 5.35-2.9.77-.3 5.34-.62h2.91l10.54-.91 13.76-1.07 3.82-.31 1.98 27.05 3.06 36.98.77 11.46 1.52 21.7.77 9.93 1.37 18.49 8.41-.76 9.47-.76 18.95-1.38 6.88-.46h2.29l2.91-.15 10.54-.77 9.17-.61 11.01-.91 25.67-1.99 28.73-2.14 3.06-.15 8.4-.61 10.09-.92 4.43-.31 12.69-.91.3 6.72 1.22 18.03.46 7.64.77 16.81.3 12.84.16 4.89.15 1.22.61 18.34 1.53 17.42.46 3.82-3.82 5.04-1.69 3.06-.3 1.53-.15 1.37-.16 2.14.46 4.43.61 5.66.31.91 2.75 5.81.46 1.53.3 1.22.16 2.91v2.13l-.61 1.38-5.35 5.96-3.52 3.51-.61.77-.15.92-.16.3v2.75l.46 1.53.61 1.83 5.66 6.27 2.75 3.51 1.99 3.52 1.07 2.14.61 1.53.91 4.58.62 4.28v8.25h4.28l-4.13 9.47v10.24l-1.22 17.58-3.06 20.02-.46 2.44-1.37 11.61-3.98 25.07-1.68 5.96-.15.91-.31.61-1.07 4.13-.46 1.07-2.9 6.72-.76.92-1.84 2.14-2.14 2.14-2.14 2.29-3.51 3.67-2.6 3.21-.46.76-.76 1.22-.61.61-1.23.62-3.21.45-5.04-.3-7.03-1.38-10.7-4.89-5.65-2.44-2.29-1.22-1.84-1.38-1.68-1.68-3.51-2.75-2.91-2.14-2.59-1.53-1.38-.46-1.83-.15-2.45.15-4.13.92-2.59 1.38-1.84 1.22-.76.76-1.53 1.38-.76.76-4.74 6.73-3.82 4.58-2.14 2.14-3.52 3.05-4.43 4.74-3.97 5.04-3.36 5.51-1.07 2.75-.92 3.21-2.29 15.12-.16 4.44.61 6.72.77 4.58.61 2.91 1.07 3.21 1.22 2.14 2.91 4.73 1.52 2.3 3.37 4.27 5.65 7.95 2.75 4.89.92 1.53 3.21 6.26 1.22 2.6 1.22 3.21 3.06 9.63.92 5.35.15 3.05.15 1.38-.46 6.42-.61 4.12-1.53 7.03-1.22 3.97-.91 2.3-1.38 2.59-.15.31-.61.76-1.53 2.3-3.82 7.64-4.44 8.1-2.59 4.27-2.45 3.67-.15.15-3.52 4.28-3.36 3.82-1.53.92-1.83.92-1.22.46-1.38.61-2.29.15.92.92 1.68 2.29 1.07 1.53.61 1.07.46 1.37.61 1.99.91 4.28.46 1.37 2.3 5.35.45 1.38.31 1.52v1.07l-.15.92-.61 1.38-2.45 4.12-.76.92-1.07.92-2.14 1.37-3.21 1.99-.31.46v.46l1.22 1.06 2.3 1.53 3.36 1.84 4.74 1.98 1.37.77 4.13 3.36 9.17 7.33 6.72 4.59 6.27 5.35.61.61.46.76.3.77.16 1.37-.16.61-.3.61-1.68 1.99-.61.92-.31 1.22-.31.92v1.98l-1.22 2.14.15 1.68.16.46.76 1.99.61 1.83-6.87.46-3.37.31-8.1.61-8.1.46-2.44.15-6.73.61-6.41.46-6.42.3-7.03.62-7.64.3-1.69.15-3.36.16-5.04.3-1.99.16-7.03.3-3.67.15-4.58.31 1.83 23.38 1.53 19.71L2177 2548v1.07l-.3.61-.31.76-.61.46-1.38.76-4.43 1.99-1.98.76-15.9 5.35-1.68.15-.76-.3-.62-.76-.3-.77-.15-1.22-.92-10.39-.31-5.66-10.24.77 1.99 23.68.46 6.12 1.37 19.25.46 6.11 1.23 11.92 1.07 12.23 1.07 12.53.76 8.56.31 3.51 33.31-2.75.61.15.92.61 15.59 14.22 1.53 1.68.61.91.3.77.31.76.15 2.29.77 6.57 1.22 12.84 2.9.61 10.55-1.07 1.07-.15 2.44-.31 1.07-.15 1.22-.61 7.95-3.97 1.84-.77 2.44-.61 4.59-.61.76 7.64z" stroke-linejoin="round"/></defs><use xlink:href="#g" fill="#6bacaf" stroke="#6bb4d2" stroke-width="5.76"/><defs><path id="h" d="M1944.25 3429.27l-8.71-5.05-9.78-5.65-4.74-2.91-4.89-3.36-5.35-4.43-3.67-9.01-2.44-1.07-2.6-1.68-2.91-1.07-5.65-3.21-5.65-3.67-6.12-3.06-3.51-2.14-4.74-3.05-5.2-4.28-3.97-3.67-5.81-5.04-5.96-5.96-3.36-2.75-9.02-8.87-7.79-7.48-5.65-6.12-5.05-5.19-6.57-6.73-5.2-6.11-3.97-4.43-4.89-6.26-3.67-4.74-3.21-4.28-4.12-3.97-1.23-1.38-2.59-3.67-4.13-5.34-3.82-5.05-3.82-4.89-3.52-5.35-4.43-6.41-3.05-4.59-1.38-1.53-2.14-3.97-3.82-5.5-3.36-5.35-3.06-5.65-3.06-3.98-2.75-3.97-3.66-5.04-2.6-4.59-3.52-4.28-2.44-2.9-1.53-3.06-2.14-5.04-3.21-5.35-1.68-2.75-2.9-6.26-5.66-10.55-4.28-8.55-4.12-8.1-3.06-6.42-2.75-5.04-1.68-3.52-1.99-3.51-2.6-5.96-1.98-4.13-1.38-4.28-2.29-6.72-2.14-7.8-1.53-5.34-1.53-3.98-2.14-5.96-.3-.76-1.53-3.82-2.14-4.59-3.67-9.93-3.36-9.93-4.13-15.13-13.45-20.32 3.21-13.45 4.28-18.49.61-73.05-18.49-67.69 1.84.46 1.37.46.61.3.77.15.91.31.31-1.68 4.58-3.67 5.05-4.28 10.24-8.71 4.28-3.67 4.89-4.43 9.78-8.4 9.47-8.25 9.48-8.26 5.8-5.04 3.37-2.75.91-.92 9.17-7.94 5.96-5.2 4.13-3.51 9.32-7.95 6.88-6.11 2.6-1.99 1.07-.61.91-.3 1.38-.31 5.35-.46-.92-12.84-.76-11.15-4.74.31-6.42.45-7.18.16-2.14 1.98-9.02 7.95-2.6 2.29-.91.61h-.61l-.77.16-1.07-.16-4.12-3.51 1.68-3.52 1.98-4.12 4.28-9.94 1.07-3.05.16-.77-.16-1.83 1.07-4.13.31-1.22.15-1.07.31-1.07.45-2.14 16.05-1.22 10.24-.46 11.16-.61 10.69-.61 11.16-.92 10.7-.76 14.21-.92 5.81-.46 1.83-.15 7.8-.46 15.13-1.07 8.1-.91 8.71-.77 1.22-.3 4.74-.77 9.47-1.98 5.35-1.38 1.99-.46.92-.3 3.66 1.83 1.68 1.07v1.53l-.3.46-4.59 6.87.92 9.63.61 5.35.77 8.86.91 10.39.61 6.12 1.84 17.87 1.53 15.59.3 2.6 1.07 11.61.61 7.03.31 4.28.15 1.83.46 5.81.31 3.21.15 2.45.76 9.93 1.23 14.52.91 12.37 1.07 11.92.92 12.07.92 12.08.76 12.38.61 10.54.92 10.39 1.07 15.74.76 12.22.92 12.23.92 12.22.76 12.08.46 6.26.92 11.46.45 9.33.46 6.57 1.84 20.32.91 12.99.16 1.22.91 13.45 1.07 12.99.31 4.43 1.22 15.28 1.22 15.59 1.07 15.28 1.69 22.92.3 6.57.15 4.13.16 2.6.3 1.98.16 2.75.15 1.68.15 2.75.76 8.87.16 3.36 1.07 15.13.46 4.43 4.43 52.11.61 9.01 2.9 36.53.77 3.51.91-11 .46 7.95 2.91 38.5.76 12.69 2.29 29.64.61 5.2.31 4.28.31 6.57.61 6.57-1.53-.15v3.21z" stroke-linejoin="round"/></defs><use xlink:href="#h" fill="#09757a" stroke="#097d9b" stroke-width="5.76"/><defs><path id="i" d="M2475.32 1937.2v1.23l.3 3.36 2.75 11.31.31 1.68.46 11.92.3 5.19v6.88l-.15 1.37-.46 1.69-.76 3.05-1.99 4.74-.76 1.53-.61.76-3.67 3.67-1.68 1.22-2.75.92h-1.38l-1.07-.15-5.65-2.14-1.23-.31-15.74-7.64-1.37-.76-1.38-1.07-1.07-1.07-2.44-4.28-1.07-2.75-.92-2.75-.31-.92-1.52-1.99-9.63-11.15-1.07-1.07-1.07-.77-4.13-1.98-1.83-.61-1.68-.46-2.29-.16-10.24.46v-1.37l-4.13-71.21 3.67-5.05-5.5.46-24.46 1.99-19.86 1.53-12.69.91-4.43.31-10.09.92-8.4.61-3.06.15-28.73 2.14-25.67 1.99-11.01.91-9.17.61-10.54.77-2.91.15h-2.29l-6.88.46-18.95 1.38-9.47.76-8.41.76-1.37-18.49-.77-9.93-1.52-21.7-.77-11.46-3.06-36.98-1.98-27.05-3.82.31-13.76 1.07-10.54.91h-2.91l-5.34.62-.77.3-5.35 2.9-1.98 1.07-1.23.31-1.37-29.95-.92-13.45-1.68-19.25-.76-13.91-1.23-18.95-.76-8.71-1.38-25.06h-1.37l-5.05-.46-8.09-.76-1.84 3.97-1.68 3.36-3.51 6.57-5.97 29.19-3.97-.46-2.9.92-5.35 8.86-5.5 10.09-7.19 13.29-3.51 1.53-4.28 7.34-5.5 7.64-7.18 8.71-2.3 2.44-4.58 1.84-15.59 5.95-17.57 4.13-6.73 1.68-7.95 17.12-9.17 6.87-11.46 3.98-3.05 1.07-4.74 3.21-2.6 1.83-10.09 6.88-5.34.91-5.2.92-5.35.92-4.43-2.14h-.46l1.53.76 8.71 3.97-2.9 1.53-6.42 1.84-2.75.61-3.06.15-2.14 1.38-12.38 8.55-1.53.92-5.5 3.67-14.98 9.93-1.07.61-3.82 2.45-2.9 1.98-1.99 1.84-.76.45-.77.62-1.22-3.82-.46-1.07-6.87-19.87-1.84-5.19-13.45-38.97-2.75-8.41-7.18-20.17-7.18-20.63-1.68-4.89-2.6-7.49-7.18-20.63-4.44-12.37-3.36-10.09-11.61-33.31-3.67-10.7-1.38-4.43 1.53-.15-6.26-18.04-8.72-24.6-7.48-21.39-3.98-11.31-13.14-38.81-9.17-25.98-4.28-12.99-1.99-5.81-12.22-35.45-5.96-17.88-5.04-14.36-1.84-.46-2.44-7.34-4.89-13.45-4.59-13.29-2.75-7.95-1.83-5.19-4.89-13.91-3.21.16-2.91.15h-1.22l-14.37.3-34.23 1.53-88.18 7.8-6.42.61-31.94 2.75-2.44.3-18.95 1.68-25.53 4.44-1.07-1.07-1.22-1.07-1.07-1.23-3.21-3.97-1.83-2.9-5.35-9.48-9.63-17.27-2.9.46-4.28 1.68-5.5 2.45-1.38.3-22.62 1.99-11.15.77-7.03.76-1.38.46-1.83.91-2.14 1.53-6.42 4.74-1.22 1.22-1.07 1.99-.31 1.22v2.45l1.53 16.96.15 1.22-25.98.77-18.95 2.44-32.7 2.29-.31-1.22-1.37-8.4-3.52-14.22-1.22-3.97-.92-2.75-.92-1.68-1.68-1.83-3.21-3.06-1.07-13.45-.76-13.29-.92-12.38-2.44-27.05-1.38-13.14-.76-9.93-2.14-29.34-1.38-19.72-.45-6.72-.77-11.61-1.83-32.09-1.38-18.49-.46-13.6-.46-12.84-1.37-25.52-.76-9.17-1.53-16.5-1.68-21.55-3.98-48.59h-4.74l-13.75 1.07-12.99.3-9.02.61-2.44.46-3.97.92h-.46l-4.44-.31h-6.11l-16.5.92-22.62 1.07-13.76.92-13.29 1.07-15.28.91-.16-2.9.31-2.14.46-1.07.91-.61 3.06-1.07.46-.46.76-1.22 1.38-1.68 1.22-1.07.61-.92 1.38-3.36 3.67-5.96 4.58-7.95.46-1.83.61-1.84.15-3.51-1.07-5.96-1.22-12.84-1.37-25.67-.46-12.99-.77-13.14-1.22-12.68-1.07-12.53-.61-12.69-1.53-26.89-1.37-9.48-.31-1.22 17.57-12.99 33.32-29.8 8.86-10.23 3.52-7.03 5.04-16.2 2.75-11.31.92-19.41 1.07-10.08 18.34-1.38 12.23-1.07 1.52.31 1.23.76-9.94-110.94-2.75-34.54-1.22-23.38-.46-3.66-.92-11.77-.91-18.8-4.89-57.3-2.6-37.9v-.46l-1.99-26.43-2.14-25.22-.92-12.22-2.59-33.77-.46-5.05-.92-8.86-.46-7.18-.3-2.75-2.75-34.39-2.6-29.64 4.28-.15 84.51-7.49 21.55-1.84 21.55-2.13 1.07-.16 18.64-1.53 25.83-2.44 12.53-1.07.31 1.22.3 1.38.46 1.53.76 1.68.62 1.07.91.91 3.67 2.45.92.76 1.07.92.46.92.76 1.68 2.9 6.26.62 1.22.91 1.38 1.22 1.38.31.61 1.83 2.29 1.07 1.68 5.66 10.39 3.21 8.56 2.6 6.26.91 1.38 1.68 1.99.92.76.31.76.45 1.23 2.45 32.39 22.01-1.37 5.5-.46.76 3.67 1.53 6.41 1.22 4.59 2.14 6.26 2.6 8.26 10.39 31.93 4.13 12.69 4.13 12.68 1.22 2.75 2.14 4.74 1.98 3.82 1.07 1.98 13.45 19.57 3.52 5.8 5.65 10.09 3.98 9.01.45 1.38 18.19-1.53 7.8-.61 21.7-1.83 5.8-.62 56.09-5.19 30.87-3.06-1.22-16.96-.92-12.38-2.14-24.91-.61-12.53-.76-7.79-1.53-17.11-.46-6.73-.46-7.03-.15-3.21-.46-5.5-.76-9.47-.61-9.48-.16-2.9-1.07-11h1.23l1.37-.16 2.9-.3 4.44-.77 2.59-.76h.77l.61.15h.46l33.31-1.52.46-.62 1.07-.76.77-.31 5.19-.3 26.44-2.45 13.14-1.07 28.12-1.68 12.38-.61 37.29-2.14 31.18-1.83 5.04 26.59 1.99 12.22 1.68 13.45.46 3.67 4.13 21.39 3.66 20.78 3.06 18.19 4.43 26.13 9.32 53.18 28.73-1.84 14.68-.76 17.88-.76 15.74-.61 9.63-.31 15.58-.76 15.29-1.38 6.72-.31 7.8-.3 14.67-.76 28.57-1.69 28.74-1.37 14.67-.92-3.82-52.26-1.38-18.8-1.07-10.54-1.37-20.78-.77-8.25-2.44-33.78.3-1.22.31-.92-7.34-50.42 7.19-.46 17.88-1.38 17.72-1.22 1.68-1.38 1.53-5.8-1.53-17.27-.45-5.5-.77-9.63-.91-13.45-1.07-12.83-2.6-32.86h-4.28l-33.78 1.99 5.35-2.9 29.8-16.97 1.84-1.07 20.48-11.76 5.5-3.21 9.17-4.89 6.26-2.9 2.75-1.38 5.05-2.14 4.43-1.83 6.11-2.29 5.35-1.84 2.6-.92 7.33-2.29 4.13-1.22 4.74-1.22 3.97-.92 4.74-.92 7.03-1.37 5.2-.92 5.19-.61 4.13-.46 5.5-.61 12.38-1.07 4.28-.3 13.14-1.23 13.14-1.22 8.1-.76 39.74-3.52 3.51-.46h1.53l6.57-.76 4.44-.46 11-.92 31.63-2.9 1.99-.15 5.35-.46 1.22-.15-.15.76-.77 3.21-.15.61-.15.46-.92 4.58-1.53 5.81-.91 3.82-2.45 8.56-3.36 11.76-2.6 12.69-.3 1.37-.31 2.45-.31 1.53 2.6-.31h1.23l2.13-.3 19.72-1.38 4.89-.46 4.89-.3 2.29-.16 6.27-.46.76 9.78.92 9.17 13.45 178.49-1.07.15-.92.15-2.9.92-1.84.61-1.98.15-15.29.92-8.71-.15-3.36.76-8.71.61-2.6.16-2.75.15-25.52 1.83-8.41.46-1.37 7.95-.46 3.21-.31 5.96v5.5l.62 11 5.04 64.95 21.39-1.38 13.91-1.07 2.91-.15 1.37-.15 1.53-.16.61-.15h1.38l1.68-.31h1.22l7.34-.61 24.75-1.22 9.94-.46 7.18 95.36 2.44 31.32.62 8.1 3.05 39.28 5.35 65.7.46 7.03 3.82 46.76-11.16.62-2.59.15-11.31 1.07-12.69 1.07.16 1.68 2.13 26.89 5.81 69.53.92 10.85 2.14 25.22 1.68 18.95.92 10.08 2.75 33.32v1.22l1.83 21.09 3.06 42.32 1.22 13.15 2.29 31.93.31 5.51.76 14.05.92 13.6 4.28 58.68.61 7.8.76 9.17.31 5.35.15 3.82v1.52l-.15 1.53-.15 1.99-.77 2.75-1.98 8.56-2.45 9.78 7.34 2.44 1.98 18.8.77.91.46 2.6.45 4.89.62 8.25.91 9.02.46 13.14.31 3.06 1.22 6.57v3.67l1.22 16.65.31 5.81.61 5.65 1.68 17.88 2.29 17.27.31 2.9.76 8.87.92 8.86 1.53 20.78v2.14l6.26 84.2 3.52 58.68 1.68 15.28.46 6.57 5.19 60.82 1.99 22.31.15 1.23 2.91 30.71 5.35 65.86 4.12 57.31 2.6 36.52.61 6.57.92 10.09 1.83 17.57.46 3.21 1.07 11.92 1.07 11 .46 3.67.61 5.81 1.38 15.12 2.75 16.2.15.46 20.02-2.44 1.53-.31.15 1.83 2.29 12.69.31 2.9v1.84l-.31 1.22-.46 1.37-.61 1.38-.91 1.53-.77 1.37-2.44 2.45-1.84 1.68-3.21 2.75-.91.76-1.07.46-1.23.31-1.22.3-3.21.15-2.9-.15-1.68-.15-1.84-.31-1.68-.45-1.22-.77-1.53-.61-1.53-1.07-2.44-1.68-3.21-2.29-1.99-.61h-1.07l-.76.3-.61.46-1.07 1.07-1.07 1.68-1.22 2.29-1.07 2.6-.92 2.29-.31 1.23-.15 1.07-.15 1.37.3 1.99.31 1.22 2.29 7.03.31 1.53.15.91v1.38l-.46 1.99-.46 1.07-1.37 1.98-1.23 1.53-1.52 1.68-4.13 2.75-3.06 1.38-1.83.46-2.14.45-13.3.77-1.52.61-1.07.46h-.31l-.61.61-.31.46-.15.61-.15.3z" stroke-linejoin="round"/></defs><use xlink:href="#i" fill="#09757a" stroke="#097d9b" stroke-width="5.76"/><defs><path id="j" d="M1647.92 2861.11l-.31 1.68-.91-.31-.77-.15-.61-.3-1.37-.46-1.84-.46-35-48.6-32.7-22.92-47.99-22.92-18.49-3.36-.76-1.07-.31-1.07.31-1.07 1.22-1.22 1.53-1.53 1.68-1.68.76-.92.92-1.37 1.22-2.75.46-.77.31-1.68.61-3.06.3-1.37.31-4.89-.15-3.82-.16-2.29 5.05-.46 2.44-.16 4.28-.3h1.99l7.18-.15h4.59l1.68.15h1.22l6.57.3 4.74.16 4.58-.31 2.3-.15 4.58-.15h2.6l5.5-.46 5.2-.46h1.83l5.5-.46 2.75-.3 9.17-.62 6.12-.3h.45l7.64.46 2.45.3 5.04.46h1.07l.92.15h1.07l.92.16.61-.16v-.61l6.26.46h1.38l6.11.31 6.42-.31-.61-.15h-3.36l-.16-.77 1.07.62 3.52-.31 10.24-.76 5.96-.46 4.43-.16 10.24-.61.92.31h1.22l2.29-.77 5.5-.61 1.53-.15h.77l.76-.15 13.75-1.22 2.3-.16 4.28-.61 3.36-.61 12.68-1.53 1.07-.15 4.43-.31-.45 2.14-.31 1.07-.15 1.07-.31 1.22-1.07 4.13.16 1.83-.16.77-1.07 3.05-4.28 9.94-1.98 4.12-1.68 3.52 4.12 3.51 1.07.16.77-.16h.61l.91-.61 2.6-2.29 9.02-7.95 2.14-1.98 7.18-.16 6.42-.45 4.74-.31.76 11.15.92 12.84-5.35.46-1.38.31-.91.3-1.07.61-2.6 1.99-6.88 6.11-9.32 7.95-4.13 3.51-5.96 5.2-9.17 7.94-.91.92-3.37 2.75-5.8 5.04-9.48 8.26-9.47 8.25-9.78 8.4-4.89 4.43-4.28 3.67-10.24 8.71-5.05 4.28-4.58 3.67z" stroke-linejoin="round"/></defs><use xlink:href="#j" fill="#004249" stroke="#00465f" stroke-width="5.76"/><defs><path id="k" d="M2371.7 3614.17l-4.58 2.14-8.1 5.04-11.16 7.95-11.46 2.75-17.27.15h-.76l-.77-.15-1.07-.46-5.19-2.75.3-.46v-.61l.15-.46-.15-.61v-.77l-.3-1.37-1.38-.46-.76-.46-6.27-5.19-2.44-2.14-5.35-4.28-6.73-5.04-5.81-4.89-9.47-9.78-.92-112.47v-1.68l-.15-1.07-.46-.92-.76-.61-2.75-.77-2.6-.61-1.84-1.37-.76-1.68-.46-1.53-7.18-91.54-12.07-133.1-7.34-34.99-.46-1.99-1.07-13.14-.15-1.22v-1.22l-.31-1.99 8.41-3.36 7.49-1.99 7.33-.61 16.51-3.06.61.16-1.22-9.02 2.14-.15 1.37.15 14.67-1.22 12.84-1.38 25.22-1.68 17.11-1.22 15.13-1.22 24.15-2.6 9.17-.46 9.02-1.07 12.37-.76 3.06-.31 4.28-.46 1.83-.3h.92l7.49-.77h1.07l1.68-.15 1.99-.46 1.68-.61 1.53-.92.45-.3.77-.77.92-1.07.91-1.68 2.29-5.35.62-.91.45-.46 2.91-.92-.31-3.67-1.83-20.47-.77-8.1-.91-9.02-.31-4.12-1.37-15.59v-.46l-.31-2.6-.76-9.32-1.07-12.22-1.53-21.24-.77-11.46-.91-10.4-.31-3.51-.91-11.31-.31-4.43-.76-10.39-.46-6.27-1.23-15.13.46-.91v-.61l-.15-.92-1.99-26.59-.46-6.57-.61-1.07-.46-4.28v-.46l-.45-6.42-.16-.91-1.83-23.84-.15-.46-.77-10.7-.91-11.46-.46-6.42v-.76l-.16-.61-.45-8.1-1.23-13.45-1.07-12.38-1.52-15.28-1.07-10.39-1.07-13.45-.16-1.52v-.92l-1.53-15.59-.15-4.43-.15-.92-2.29-28.42-1.84-20.17-.76-10.7-.46-5.5-.31-3.82-.15-.91-1.53-17.58-.15-2.6-.46-3.66-1.37-1.23-.31.16-9.32 1.37-1.53.46-6.42 1.38-1.99.45-6.72.92-7.64.46-10.39.92-14.52.45-9.48.46-22.31 1.53h-.76l-.92.15-4.74.16-10.85.76-18.64 1.07-24 1.53-21.7 1.37-.15-1.07v-.76l-.76-7.64-4.59.61-2.44.61-1.84.77-7.95 3.97-1.22.61-1.07.15-2.44.31-1.07.15-10.55 1.07-2.9-.61-1.22-12.84-.77-6.57-.15-2.29-.31-.76-.3-.77-.61-.91-1.53-1.68-15.59-14.22-.92-.61-.61-.15-33.31 2.75-.31-3.51-.76-8.56-1.07-12.53-1.07-12.23-1.23-11.92-.46-6.11-1.37-19.25-.46-6.12-1.99-23.68 10.24-.77.31 5.66.92 10.39.15 1.22.3.77.62.76.76.3 1.68-.15 15.9-5.35 1.98-.76 4.43-1.99 1.38-.76.61-.46.31-.76.3-.61V2548l-1.07-14.83-1.53-19.71-1.83-23.38 4.58-.31 3.67-.15 7.03-.3 1.99-.16 5.04-.3 3.36-.16 1.69-.15 7.64-.3 7.03-.62 6.42-.3 6.41-.46 6.73-.61 2.44-.15 8.1-.46 8.1-.61 3.37-.31 6.87-.46-.61-1.83-.76-1.99-.16-.46-.15-1.68 1.22-2.14v-1.98l.31-.92.31-1.22.61-.92 1.68-1.99.3-.61.16-.61-.16-1.37-.3-.77-.46-.76-.61-.61-6.27-5.35-6.72-4.59-9.17-7.33-4.13-3.36-1.37-.77-4.74-1.98-3.36-1.84-2.3-1.53-1.22-1.06v-.46l.31-.46 3.21-1.99 2.14-1.37 1.07-.92.76-.92 2.45-4.12.61-1.38.15-.92v-1.07l-.31-1.52-.45-1.38-2.3-5.35-.46-1.37-.91-4.28-.61-1.99-.46-1.37-.61-1.07-1.07-1.53-1.68-2.29-.92-.92 2.29-.15 1.38-.61 1.22-.46 1.83-.92 1.53-.92 3.36-3.82 3.52-4.28.15-.15 2.45-3.67 2.59-4.27 4.44-8.1 3.82-7.64 1.53-2.3.61-.76.15-.31 1.38-2.59.91-2.3 1.22-3.97 1.53-7.03.61-4.12.46-6.42-.15-1.38-.15-3.05-.92-5.35-3.06-9.63-1.22-3.21-1.22-2.6-3.21-6.26-.92-1.53-2.75-4.89-5.65-7.95-3.37-4.27-1.52-2.3-2.91-4.73-1.22-2.14-1.07-3.21-.61-2.91-.77-4.58-.61-6.72.16-4.44 2.29-15.12.92-3.21 1.07-2.75 3.36-5.51 3.97-5.04 4.43-4.74 3.52-3.05 2.14-2.14 3.82-4.58 4.74-6.73.76-.76 1.53-1.38.76-.76 1.84-1.22 2.59-1.38 4.13-.92 2.45-.15 1.83.15 1.38.46 2.59 1.53 2.91 2.14 3.51 2.75 1.68 1.68 1.84 1.38 2.29 1.22 5.65 2.44 10.7 4.89 7.03 1.38 5.04.3 3.21-.45 1.23-.62.61-.61.76-1.22.46-.76 2.6-3.21 3.51-3.67 2.14-2.29 2.14-2.14 1.84-2.14.76-.92 2.9-6.72.46-1.07 1.07-4.13.31-.61.15-.91 1.68-5.96 3.98-25.07 1.37-11.61.46-2.44 3.06-20.02 1.22-17.58v-10.24l4.13-9.47h-4.28v-8.25l-.62-4.28-.91-4.58-.61-1.53-1.07-2.14-1.99-3.52-2.75-3.51-5.66-6.27-.61-1.83-.46-1.53v-2.75l.16-.3.15-.92.61-.77 3.52-3.51 5.35-5.96.61-1.38v-2.13l-.16-2.91-.3-1.22-.46-1.53-2.75-5.81-.31-.91-.61-5.66-.46-4.43.16-2.14.15-1.37.3-1.53 1.69-3.06 3.82-5.04-.46-3.82-1.53-17.42-.61-18.34-.15-1.22-.16-4.89-.3-12.84-.77-16.81-.46-7.64-1.22-18.03-.3-6.72 19.86-1.53 24.46-1.99 5.5-.46-3.67 5.05 4.13 71.21v1.37l10.24-.46 2.29.16 1.68.46 1.83.61 4.13 1.98 1.07.77 1.07 1.07 9.63 11.15 1.52 1.99.31.92.92 2.75 1.07 2.75 2.44 4.28 1.07 1.07 1.38 1.07 1.37.76 15.74 7.64 1.23.31 5.65 2.14 1.07.15h1.38l2.75-.92 1.68-1.22 3.67-3.67.61-.76.76-1.53 1.99-4.74.76-3.05.46-1.69.15-1.37v-6.88l-.3-5.19-.46-11.92-.31-1.68-2.75-11.31-.3-3.36v-1.23l.15-.3.15-.61.31-.46.61-.61h.31l1.07-.46 1.52-.61 13.3-.77 2.14-.45 1.83-.46 3.06-1.38 4.13-2.75 1.52-1.68 1.23-1.53 1.37-1.98.46-1.07.46-1.99v-1.38l-.15-.91-.31-1.53-2.29-7.03-.31-1.22-.3-1.99.15-1.37.15-1.07.31-1.23.92-2.29 1.07-2.6 1.22-2.29 1.07-1.68 1.07-1.07.61-.46.76-.3h1.07l1.99.61 3.21 2.29 2.44 1.68 1.53 1.07 1.53.61 1.22.77 1.68.45 1.84.31 1.68.15 2.9.15 3.21-.15 1.22-.3 1.23-.31 1.07-.46.91-.76 3.21-2.75 1.84-1.68 2.44-2.45.77-1.37.91-1.53.61-1.38.46-1.37.31-1.22v-1.84l-.31-2.9-2.29-12.69 84.21-8.4 3.36-.31 66.78-7.94 36.22-5.04 6.27-.77 1.22 10.7.16.92 2.59 25.51.16 1.38 2.14 18.95.76 7.49.15 1.22.31 3.21 3.67 33.92 5.19 48.44 5.05 52.57 9.32 95.51.15 2.44.31 2.45 8.71 90.01.61 5.65 1.37 14.67.46 3.82.31 4.74.15.76 7.8 104.07.15 16.19 3.36 48.9 1.07 21.09 2.29 39.12 1.99 42.49.61.45.15.92.31 3.51 3.21-.45 1.37 16.5 1.69 21.85 1.22 16.96 1.22 15.29.15 3.36.61 7.33.31 5.35.15.92.16 1.37.15 1.84.3 2.9.62 11.61.76 9.78.92 11.47.46 5.5.61 10.08 2.14 27.81.61 9.48.61 7.49 1.07 16.35.15 3.51.92 10.24.76 10.7.61 9.93 1.07 14.36 1.23 18.04 1.68 22.92.46 9.01.61 7.95.46 5.2 2.59 32.7 1.53 20.17.46 6.57.31 2.75.3 3.82 1.53 20.63.92 11.92.3 2.9v1.23l.31 2.29.76 10.7 1.99 24.75 1.53 24.15 1.22 18.03.46 6.26 1.37 22.01 2.3 27.96.61 20.63-1.68-.46-1.38.77-.76.76h-.77l-1.68 1.53-2.14 1.53-2.75 2.14-2.9 2.29-6.42 3.51-6.11 4.59-7.8 5.04-5.19 4.59-4.28 3.66-10.24 9.32-5.05 4.59-5.5 4.43-1.68 2.14-.61.31-4.13 2.9-4.43 3.97-4.12 2.91-4.9 3.51-4.43 3.97-3.51 3.52-4.13 4.12-5.96 5.35-4.74 3.36-.76.16-1.83-.16h-1.23l-1.68-.15-.61.15v1.84l.15 2.29-.76 1.53-.61 1.53-1.53 2.14-3.97 3.2-2.75 4.44-3.67 3.97-3.06 2.75-17.27 20.02-9.01 13.14-10.55 12.07-10.39 9.02-19.41 16.96-12.69 11.77-12.22 10.85-18.03 19.1-3.21 6.87-28.28 29.8-1.22 1.38-2.75 2.29-6.11 5.5-13.3 15.74-5.5 5.2-8.25 7.33-5.96 9.17-5.35 11.16-3.52 5.34-3.97 3.37-3.21 4.12-2.45 6.27-10.24 9.01-4.27 5.51-4.44 5.8-5.5 4.43-9.32 9.94-13.14 12.22-8.26 14.37-8.25 10.54-6.11 4.89-7.8 9.93-6.41 3.06-5.96 7.79-6.88 4.74-7.8 7.18-1.98 5.04-2.29 6.12-5.05 4.58-1.22 5.66-2.45 4.89-3.66.61-6.58 8.25-8.09 7.95-12.08 7.79z" stroke-linejoin="round"/></defs><use xlink:href="#k" fill="#004249" stroke="#00465f" stroke-width="5.76"/></svg>