<svg width="5.21in" height="384" viewBox="0 0 3750 2880" xmlns="http://www.w3.org/2000/svg" xmlns:xlink="http://www.w3.org/1999/xlink"><path fill="#fff" d="M0 0h3750v2880H0z"/><defs><path id="a" d="M1276.52 2851.87l-2.69-2.11-2.11-1.05-6.56-2.81-2.23-.47-1.99-.24-2.7-.11-5.86-.47-8.79-2.58-3.86-1.88-2.11-1.17-2.23-2.11-4.8-3.98-1.88-1.41-1.41-1.29-4.68-3.05-3.99-1.64-3.98-.82-4.57 2.23-1.41 1.64-.94 1.17-1.05 4.34-.7 6.21-.59 5.51-.12 1.17-.35.59-4.1 1.17-1.76-.7-.7-.36-.59-.7-.35-1.17-1.29-2.46-.82-1.64-1.05-.94-.71-.59-3.16-.11-2.81-.12-7.38 2.46-2.23.35-2.7-.7-2.46-1.99-1.17-3.87-.35-4.69.94-2.23 2.22-2.69.35-1.76.59-.7-.12-1.06.24-2.58-1.76-5.27-1.52-5.39-1.41-3.4-1.64-3.28-1.41-2.35-3.98-2.22-1.99-.59-1.53-.7-.7-.12-1.87-.35-3.4 1.41-2.46 2.81-5.16 7.62-4.34 7.73-1.75 1.29-5.63 2.23-7.03 1.52-1.52-5.39-3.87-6.33-6.56-7.26-10.43-6.45-15.35-5.74-17.23-2.11-16.41 1.29-16.4 4.68-17 7.74-12.18 3.28-14.18 1.88-14.65-4.22-11.49-7.62-8.67-9.14-5.97-10.9-3.99-12.19-.94-11.02.59-14.76 2.34-13.95 3.99-15.24 2.58-6.56 2.93-10.43 5.5-11.72 6.92-11.48 5.62-6.1 5.51-5.51 4.69-4.33 3.4-2.35 3.04-.82 5.04.35 8.44 2.93 12.07 3.4 10.78.94 7.62-1.17 7.97-3.4 12.65-2.46 8.91.23 7.15 1.18 7.62.82 8.55 1.75 11.37 4.11 11.72-1.18 10.07-4.68 7.86-9.03 3.75-8.67-.12-6.21-2.23-5.63-5.51-8.08-9.02-7.62-8.79-3.87-8.08-2.34-15.36-2.23-13.36-5.27-12.53-5.16-14.3-9.49-14.53-11.14-13.36-12.42-10.9-14.06-9.84-14.54-2.46-9.02 1.05-2.7.94-1.17.23-.58-.58-1.06-.71-1.41-.47-1.52-2.46-10.31-3.16-20.63-.82-18.63-.35-13.83.82-29.54 1.17-17.22 1.52-9.5 2.35-12.3 6.79-9.26 7.27-10.08 6.21-6.8 7.97-7.03 7.73-4.8 3.75-2.35 4.69-3.05 12.54-8.32 7.38-5.51 5.63-5.5 6.44-6.1 5.98-8.2 10.78-16.99 10.08-15.47 9.96-13.72 8.2-8.32 9.73-7.38 9.37-7.74 4.22-7.15 1.41-7.38-1.17-6.56-1.76-5.74-6.45-15.59-1.87-8.09-1.99-5.86-2.7-3.87-4.33-5.15-4.81-8.56-2.11-4.69-3.28-2.81-3.4-5.86-3.98-9.02-6.45-17.58-3.04-8.56-4.22-6.91-3.4-6.8-2.81-8.67 9.84-25.08 3.28-1.53.7-.46.71-.82.11-.59v-1.06l-.11-.82-.82-2.11-.59-.7-.94-.94-3.86-4.22-.82-1.4-.36-1.06v-.93l.12-.82.59-1.76.58-.82.47-.59.94-.58 4.92-2.35.94-.23h1.29l1.29.23 4.45 1.64 2.23 1.29 1.05.94 1.06 1.17 1.75 2.58 1.41-.47.59-.47.58-.7.47-.82.24-.94.11-.94-.23-3.16-.12-2.93-1.05-5.98.11-.94.24-.58.35-.47.7-.24h.59l.82.24 8.2 3.87 1.64.7 1.17.59 1.29.58.71.12.7-.12.7-.23.82-.71 1.17-.82.47-.58.36-.47.35-.47.11-.47.12-.94.24-.93.23-1.06.23-.94 1.06-3.51.23-.71.24-.46 7.03 4.1.47-.94-7.03-4.1-3.05-1.76 3.16-5.74-2.46-5.16-.11-.58-.24-1.88v-1.52l.59-1.29.58-.94 1.29-.82 1.53-.7 1.99-.36h3.4l.46-.35.47-.58.47-1.06.82-3.04 1.06-4.81.58-1.41.71-.7.93-.35h.82l1.06.59.94 1.05.7.35 1.52-.12 1.29-.23 6.92-2.46 8.55-3.28 6.68-2.93.7-.35.47-.59.47-.82.7-1.88-.46-2.57-.12-.36-.24-.46-1.29-1.76-.7-.59-.58-.35-1.18-.35-1.17.12-1.99.23-.82-.59-4.1-3.98-.71-.35-.7-.12h-.94l-1.87.23-1.29-.11-.82-.35-.59-.36-.82-1.52-.23-.82-.12-1.41.47-1.64v-.7l-.12-1.52-.7-1.18-.59-.46-.7-.36-.94-.35h-1.29l-4.33.94h-1.06l-.7-.12-.94-.58-1.05-1.06-.94-1.05-1.76-4.22-1.64-3.75-.7-1.53-.59-.93-4.33-3.87-2.46-1.76-.82-.58-2.35-.59-1.87-.35-1.99-1.41-.82-1.05-1.41-2.58-.7-.7-.59-.24-1.05.12-.82.35-.47.47-1.06 1.4-.47.12-5.15-2.46-6.33-4.57-13.36-11.49-6.68-5.27-2.34-1.29-.59-.7-2.58-3.75-.58-.7-4.11-3.64-9.02-7.85-10.9-8.91-.58-2.58 1.99-7.73 1.4-6.92 1.76-8.67 2.23-10.66.94-2.46-1.06-10.55-.12-.82.12-.71.12-.35 1.05.35 3.99-2.57-8.56-6.8-.11-.12-6.33-5.04-9.26-7.26-3.4-4.46.47-.47 17.93 13.01.7.24.82.23 6.21 2.46 1.41.35 4.92 2 2.35.7 10.19 1.17 10.31 1.53 2.11 1.4 4.81 1.06 15.23 3.4 9.38 2.46 4.8 1.05 3.87.59 3.75.23h3.52l4.57.12h6.91l12.3-.24 40.55-.82 7.5.47 3.75-.11h2.23l14.88-.24 1.64-.12 2.35-.11h5.15l1.41.11 1.29.12 1.4.24 1.88.35 2.58-.12 2.11.7 4.68 1.88 8.44 4.33 1.29.71 11.95 6.33 10.78 6.21 1.53.82 1.52 1.05 3.63 2.58 1.41 1.41 4.92 5.04 3.52 4.57 8.67 11.83 8.44 11.96 8.55 11.95 17.35 23.79 14.88 20.87-1.06 1.99-1.4 2.81-.59 1.99-1.87 5.63 12.07 14.65 11.6 14.65 2.93 3.63 4.22 5.27.23.36 7.74 10.31 3.51 4.57 4.22 5.27-.23.12-.12.35-.12.35-.12.36-.11.35.11.35v.35l.12.47.82 1.52 1.06 2.35.35.7.47 1.41.23.7.23.82.12.94.12 1.64v2.58l.12 1.52.11 1.29-.11.7-.12.71-.24.82-.35.82 5.63 3.86.94.59 1.17.82 2.46 1.76 4.22 3.05 1.05.82 3.05 2.46 1.41 1.29 3.16 2.69 1.41.59 1.64.82 1.29.7 3.75 1.99 5.39 3.52 4.21 2.81 2.23 1.53 2.11 1.52 1.29 1.05 8.67 5.98 2.11 1.41 2.46 1.52 1.99 1.17 1.29.59 1.17.35 1.18.35 1.05.35 1.06.24 1.17.12 1.52.11h1.41l11.36-.7 4.93-.35h1.17l.94-.12h4.1l12.42-.23h5.86l1.41.11 1.4.12 1.76.35 3.28.82 13.59 4.46 9.26 3.04 1.99.71 2.58.82 2.7 1.29 2.34 1.29 3.52 2.22 9.49 6.45 2.46 1.87 2.11 2 1.64 1.87 11.13 15 3.05 3.99 6.91 8.32 2.58 3.4 1.41 1.99 1.64 2.46 1.29 2.34 2.58 4.81 1.99 4.22 3.63 7.03 1.99 3.98-80.15 7.5-2.35-.58-1.99-1.41h-10.43l-2.23-.23-1.28-.24-.94-.35-.59-.35-.47-.7-.11-.35-4.22 6.91-2.35.47-1.87 3.4-9.02-.94 7.85 70.32.23 3.87v2.93l.82 8.43 1.53 9.61 1.4 7.39 1.76 7.62.47 2.34 1.05 4.22 1.64 5.86 1.64 5.86.94 2.93.94 2.81 2.11 5.63 2.11 5.62 2.46 5.74.94 2.23.82 1.88 5.39 12.18 3.63 8.33 1.29 2.93 1.87 4.33 3.87 9.03 3.99 8.9 1.75 4.34 1.41 3.52 1.05 3.16.82 2.93.71 2.34 1.29 6.68.11.82.24 1.29-2.93.24-3.17.23-2.34.24-3.75.35-23.2 2.34-11.25.94-8.09.94-3.28.35-4.34.47-3.39.23-24.61 2.46-3.4.24-.94.11-1.29.12-2.46.12-4.45.12-1.99-.12-4.57-.24-2.47-.35-2.57-.47-2.7-.46-.35-.12-3.16-.82-3.52-1.06-3.05-1.05-1.76-.7-2.34-1.18-1.17-.47-1.52-.7-2-1.05-3.04-1.53-1.06-.58-1.05-.47-1.53-.94-1.4.94-1.76.23-15.82 1.88-34.1 3.87-36.92-2.58-1.29-.59-.35-.47-6.79 4.81-1.88 1.05-1.52.7-1.29.59-1.88 9.14-.93 4.92-1.29 5.28-1.41 6.33-10.78 48.63-4.1 12.31-.94 4.1-2.46 12.78-5.51 26.6-2.81 12.89-2.34 12.31-1.18 7.38-.46 3.28-1.41 13.48-.12 3.05-.12 3.86.24 5.75.35 12.77-.23 4.34 4.1 19.69 2.46 12.54 1.52 7.26.24 5.04-.47 8.68-1.99 8.78-7.62 31.06-1.76 12.66 1.64 17.11.12.23 1.29 9.5.58 2.34 1.18 3.99 1.87 5.39 4.69 12.19 3.86 9.61.47 1.4.94 6.45.24 1.99.11 2.34-.11 2.35-.12 1.4-1.53 11.02-.46 2.35-.82 2.93-1.53 3.51-1.4 2.58-2 3.4-3.75 5.98-7.14 11.48-1.18 1.99z" stroke-linejoin="round"/></defs><use xlink:href="#a" fill="#cee3e4" stroke="#cef5f5" stroke-width="5.76"/><defs><path id="b" d="M1928.55 2383.67l-1.4-.23-1.99.23 1.17-7.5.23-5.86 1.06-3.98 1.17-2.58 2.23-3.17 2.69-2.11 2.58-1.4 2.46-1.06 6.09-1.4 4.57-.71 2.58-1.17 3.05-2.11 1.17-1.52 1.41-.59 1.17-.12 1.29-1.17.82-.94 1.52-2.1 2.11-2.23 1.64-3.05.71-1.99.11-2.35.35-1.4 1.29-.94v-1.76l2.23-5.62 1.52-4.22 1.41-3.28.35-1.29-.23-5.74-.94-3.29-.47-3.28-.12-3.4.35-3.28.71-2.46 1.17-2.58 2.93-3.63 6.44-6.45 2.35-.93 3.75-1.41 3.16-.94 1.64-.82-.82-2.81-.58-2.58-.24-1.99-.94-3.28v-6.33l-.11-3.52-.24-9.26v-3.04l-.93-4.46-1.18-2.93-1.29-4.57.94-3.63.94-5.51-.59-3.05-4.21-1.17-1.41-.82-1.41-4.69-2.93-5.86-.58-5.5-2.11 6.09-3.05 2.7-4.1 2.69-1.99.7-.71 2.7-1.29.94-11.71 2.58h-.24l-2.81.23-1.76-4.69-3.4-12.66-7.03-2.46-11.72-9.37-4.22-14.18-2.69-8.91-1.41.59-1.17.46-.82.47-1.41.82-1.64 1.18-1.75 1.4-1.53 1.41-1.29 1.52-.47.59-.46.82-.59.94-3.63 7.38-1.06 1.87-.82 1.18-1.17 1.29-.82.93-1.05 1.06-1.53 1.4-1.52 1.18-1.06.7-.93.47-.94.47-2.46 1.29-2.58.58-5.51 1.76-.47-2.93-.93-3.05-1.76-3.98-1.53-2.23-1.05-1.29-1.29-1.05-1.52-1.29-1.41-1.99-2.11-3.87-2.34-5.04-.94-3.4-.23-1.76-.71-5.39-.11-1.4-.59-1.76-1.29-2.11-1.05-1.06-2.7 1.88-3.16 1.64-1.29.23h-1.06l-1.05-.35h-1.17l-1.06.35-1.17.82h-1.17l-1.99-1.75-.36-.12h-.82l-2.57.23-1.53.35-1.64.47-1.17.12-.7-.12-9.61-4.8-1.06-.7-.7-.94-.47-.94-.12-1.17.12-3.87-.35-3.87-.7-2.46-51.8 7.03-33.05 3.05-22.62 6.8-8.67-1.17-6.44-2.11-2.23.35h-2.23l-1.28-.24-.36-.11-.46-.35-.59-.59-.82-1.52-67.27 15.11-1.99-3.98-3.63-7.03-1.99-4.22-2.58-4.81-1.29-2.34-1.64-2.46-1.41-1.99-2.58-3.4-6.91-8.32-3.05-3.99-11.13-15-1.64-1.87-2.11-2-2.46-1.87-9.49-6.45-3.52-2.22-2.34-1.29-2.7-1.29-2.58-.82-1.99-.71-9.26-3.04-13.59-4.46-3.28-.82-1.76-.35-1.4-.12-1.41-.11h-5.86l-12.42.23h-4.1l-.94.12h-1.17l-.59-5.98-.59-6.09-.11-.59-.71-8.32-1.52-14.42-1.76-14.41-.58-3.63-.47-3.52-1.29-7.15-1.17-6.91-1.64-8.21-.59-2.46-.47-2.23-1.05-5.15 1.76-.82-3.17-13.48-11.13-47.82-.82-3.75-.7 1.76-1.29-5.98-2.58-12.89-3.75-16.64-2.93-14.18-.7-2.7-.47-2.11-1.41-5.74-3.63-17.11-3.4-15.82-1.17-5.74-.94-4.22-.7-2.93-1.41-6.68-1.17-4.81-4.81-21.33-3.28-14.41-2.34-10.67-3.99-18.98-1.17-6.21-.58-3.76-.71-4.33-1.05-6.8-.59-4.57-.23-1.64-.47-3.98-.47-3.17-.23-1.87-.24-2.11-.12-.71-.82-7.15-.82-6.21-.58-4.57-.24-1.76-.7-6.91-1.52-12.78-.12-.58.94-.59.58-.35 5.86-3.28 3.4-1.76-1.76-.12-1.87 1.06-2.35 1.29-3.39 1.76-.71.35-.82.35-.58-4.81-.47-3.39-.82-7.27-.12-.59-.12-1.05-.58-5.51-.24-1.52-.23-2-.12-1.4-.35-2.7-.23-1.99-.24-2.11-.47-3.28-.58-3.28-.47-1.99-.47-2.11-.35-1.76-.82-2.93-.59-1.88-.23-.58-.59-1.64-.12-.24-.11-.47-.24-.93-.23-.36-.24-.7-.11-.47-.36-.94-.82-2.11-.93-1.99-1.06-2.11-.35-.58-.82-1.64-.82-1.53-.12-.23-1.29-2.23-.7-1.17-1.41-1.99-.82-1.29-2.11-2.81-.11-.12-3.05-3.99-3.05-3.51-1.87-2.23-1.06-1.05-.11-.12-1.76-2.11-2.46-2.81-1.17-1.41-2.7-3.05-3.16-3.75-4.57-5.27-4.1-4.81-4.46-5.04-3.51-4.1-2.7-3.16-3.16-3.64-2.46-3.04-2.11-2.82-2.7-3.86-2.58-3.75-2.22-3.4-1.76-3.05-2.7-4.69-2.81-5.15-4.33-8.32-3.17-5.98-2.34-4.69-2.11-3.98-2.35-4.46-2.93-5.62-2.93-5.75-2.1-4.1-1.18-2.11-2.22-4.45-.82-1.52-1.41-2.93-2.34-4.46-2.82-5.27-2.69-5.39-3.63-6.68-3.29-6.45-2.81-4.92-1.52-3.05-3.28-6.09-.35-.82-.59-1.06-.47-.82-.35-.7-1.99-4.1-.71-1.41-5.39-10.78-.35-.59-1.87-3.63-1.99-3.75-1.65-3.05-1.17-2.11-1.99-3.86-1.76-3.4-.47-.94-.7-1.29-1.64-3.4-.47-.94-1.4-2.93-1.65-3.04-1.28-2.46-2.11-3.99-2.58-5.04-1.64-3.16-5.74-11.02-3.99-7.62-1.41-3.04-.58-1.29-.59-1.41-.93-2.58-.83-2.58-.46-2.22-.59-2.93-.47-3.52-.58-5.04.7.12 1.05.12.71.11 1.52.24 1.76.23 2.34.24-.12-.47v-1.76l.12-1.99v-1.53l-1.17-2.22-.35-1.18-.24-1.4.36-3.64.35-2.57.47-2.93.93-7.74.12-1.17-.12-1.17-.58-2.58-1.41-3.63-2.58-6.57-3.4-6.68-.7-1.17-1.64-2.81-8.09-12.31-6.09-8.67-7.38-1.76-3.87-.82-2.69-3.16-5.75-12.78-.7-2.93-9.61-22.38-6.44-10.9-5.75-8.67-.35.93-1.52-2.11-1.41-1.87-2.69-3.63-2.58-3.29-.24-.46-2.69-3.29-1.41-1.99-1.76-2.11-1.87-2.46-1.29-1.76-.7-.93-.24-.36.59-.46 1.05-.36.94-.58 5.51-.71 13.71-8.2 4.45-2.69 3.28-2.58 13.6-5.86-.35-.71 2.46-.82-.24-1.17-.23-1.29 5.39-1.64 2.69-.94 2.58-.93 2.11-.82 1.29-.59 1.99-.94 1.29-.58 1.53-.82 1.17-.71 1.64-.93 1.05-.59 2.35-1.52 10.31-6.57 3.16-2.11 1.41-.82 2.23-1.52 33.28-21.1 11.36-7.26 13.13-8.56 3.52-2.22 2.93-1.88 9.14-5.86.93-.59 6.8-4.21 4.69-2.93 2.58-1.76 1.4-1.06 1.41-1.05 1.29-1.06 1.29-1.05 1.29-1.17 1.4-1.18 1.06-.93 1.87-1.76 2.81-2.81 2.93-2.93 3.75-3.87 1.88-1.88 1.99-2.11 1.88-1.87 2.81-2.93 2.34-2.34 2.46-2.47 1.88-1.99 1.99-1.99 1.88-1.88 1.05-1.05.47-.47 2.34-2.46 2.93-2.7 2.11-1.99 1.52-1.29 1.53-1.17 2.11-1.64 2.22-1.52 2.11-1.29 2.46-1.29 2.35-1.17 1.87-.82 2-.82 2.34-.94 2.58-.71 2.58-.82 2.46-.82 2.46-.82 3.63-1.29 2.58-.93 1.76-.82 1.75-.82 2.23-1.06 2.11-1.05 1.64-.94.35-.24 3.05-1.87 1.87-1.29 1.41-1.05 1.17-.94 1.17-.82.82-.82 1.06-.94 1.05-.82.94-.94 1.06-.94 3.75-3.75.82-1.05 1.4-1.64 1.29-1.53 1.41-1.75 1.29-1.53.82-1.05 1.05-1.41 1.53-1.87 1.64-2.11 1.75-2.11 1.76-2.23 1.64-2.23 1.76-2.11 1.64-2.11 1.76-2.22 1.76-2.11 1.75-2.23 2.46-3.28 1.76-2.11 1.76-1.99 1.41-1.76 1.17-1.29 2.11-2.11.47-.47.35-.35 1.05-1.05.94-.82.94-.94 1.17-.94.94-.82 1.05-.82 1.06-.82 1.05-.82 1.17-.82 1.18-.7 1.28-.82.94-.59 1.06-.7 1.17-.71 1.29-.58 1.17-.71.59-.23.58-.35 1.17-.47 1.17-.59 1.18-.47 1.29-.58 1.17-.47 1.29-.47 1.29-.47 1.28-.35 1.18-.35 1.29-.35 1.28-.35 1.29-.36 1.41-.23 1.29-.23 2.46-.59 3.87-.7 2.46-.36 2.34-.46.35-.12 1.76-.24 1.88-.46 4.8-.82 1.76-.36 2.93-.47 3.75-.7 3.98-.7.94-.24 1.64-.23 2.58-.59 2.58-.35 2.69-.58 2.46-.36 2.7-.58 2.46-.47 2.7-.47 2.46-.47 3.98-.7 2.23-.35 1.64-.35 3.86-.71 3.87-.7 3.99-.7 5.04-.94 3.86-.7 5.28-.94 3.75-.71 3.98-.7 5.16-.94 5.15-.93 3.87-.71 3.98-.82 3.87-.7 3.99-.7 2.46-.36 1.17-.23 1.52-.35 1.64-.24 3.52-.7 2.58-.58 2.57-.59 2.47-.7 2.69-.82 2.46-.82 2.35-.94 1.87-.71 1.88-.82 2.34-1.17 1.87-.94 1.76-.93 1.76-.94 5.04-3.05 2.23-1.52 1.17-.82 1.17-.82 1.05-.82 1.53-1.17 1.52-1.29 2.11-1.76 1.88-1.76.7-3.4v-.47l.7-.7.59-.59 1.4-1.4 1.06-1.29.82-.94.94-.94.7-.82.12-.23.58-.7.35-.36.82-1.17.12-.12 2.35-3.16 2.57-3.4 2.46-3.4 1.53-2.11 1.64-2.22 1.17-1.41 3.05-4.22 1.76-2.46 3.39-4.69 1.41-1.76 3.87-5.15 8.67-11.84 15.35-20.74 1.99-2.7 18.52-25.08 4.33-5.86 7.39-9.96.47-.82 22.96-31.06 1.76 1.29 11.72-16.06 13.13-17.81 4.33-5.86 1.17-1.64 3.52-4.8 4.69-6.33.58-.94 1.76-2.46 2.23-3.4 7.15-12.42 1.28-2.35 1.65-3.04 1.99-3.87 13.36-25.9 1.64 1.05 1.4.94 1.88 1.17 1.17.7 1.17.71 2.58 1.87 2.58 1.53 1.64 7.26-.82 2.23-.7 1.76-.12.23-.24 1.99-.11 2 .11 1.52.24 1.29.7 1.64 2.58 3.4.82.82.47.23.47.36.35.11.35.12.59.12h.93l.24-1.53.47-1.64.23-.94.82-2.22 2.23-5.98 1.52-1.41.24-.23.23-.23.24-.24.35-.12.35-.11.58-.12.47-.12h1.41l1.52.82.35.12.59 1.06.47.82.12.82.11.82v.7l-2.69 8.32-.24.94v1.52l.12.82.12.35.23.47.35.82.36.71.23.35.12.47.11.35-.23.23-.23.24-1.18.82-5.62 3.51-1.52 1.06 19.1 6.21 2.34.7 1.76 1.53 1.05.58 1.06.71 2.69.93 1.76 1.17 1.29 1.41 2.93 5.98 8.79 18.05.35.93.47 1.06.12.94v1.05l-.36.94-.46 1.17-.59.7-.7.82-1.29.59-1.29.47-1.99.58-2.7.71-1.05 13.36-14.53 11.6v9.14l.11 1.06.24 4.8.11 1.88.59 6.56.23 2.11.12 1.41.7 7.61.24 2.35.23 3.75.59 5.16.59 6.56.58 6.09 1.06 9.61 1.87 17.58.12 1.17.7 5.75 4.57-4.57 4.34-4.11 4.45-3.63 2.46-1.64 2.58-1.52 2.46-1.53 2.7-1.29 2.69-1.17 2.7-.94 3.04-1.05 1.18-.23 2.34-.59 4.45-.94 4.22-.7 13.95-2.46 4.68.7 13.48 2.11.82-1.05 12.19.46h2.11l7.97.36 6.21-.24.82-.82 3.28-.23h.47l1.17-.47 1.41-.47 2.34-1.29.47-.59 1.29-1.29 1.29-1.17.7-1.05.59-.59.82-1.17 1.17-1.41 5.62-8.79 3.87-6.21 1.17-1.4 1.64-2.35 1.53-1.99.93-1.29 1.18-1.29 3.98-4.22 1.99-1.64 1.64-1.05 1.99-1.29 1.41-.82 4.22-2.23.35-.12 37.85-16.99 5.63-2.46 12.19-5.28 3.28-1.99.47-.35 10.07-3.63 25.9-11.49 1.64-.7 1.88-.94 1.52-.7 1.52-1.06 1.53-.93 22.26-15.12 31.41-22.86 9.84-6.56 1.29-.82 1.17-.47 2.23-.82 15.24-5.62 27.89-11.02 15.7-6.09 1.64-.47 2.69-.71 3.87-.7 1.41-.23.82-.12 2.34-.24 5.04-.7 2.35-.47 6.79-1.52 2.23-.59.47-.11 1.87-.47 5.39-1.64 9.5-2.7 14.06-3.75 7.26-2.11 5.16-1.64 5.39-2.11 4.8-1.87 13.48-6.1 2.7-1.41 3.16-1.75 2.58-1.53 3.87-2.22 3.16-2.11 2.58-1.88 5.15-3.87 6.45-5.04 2.81-2.1 1.88-1.65 1.99-1.75 2.23-2 9.02-7.85 1.52-1.52 1.53-1.53 3.16-3.28 4.45-4.57 2.58-2.69 3.99-4.22.46-.47 1.29-1.17 2-1.88.58-.7.94-.7 1.52-1.41 1.41-1.06.47-.35 2.58-2.11 18.28-13.47 21.09-17.35 1.52-1.41 1.76-1.64 10.2-9.26 17.93-16.64 3.04-2.69 2.58-2.11 24.73-20.51 3.87-2.93 1.05-.7.94-.71 1.52-.94 1.17-.7 1.29-.7 1.64-.94 1.64-.7 2.93-1.53 2.11-.82 1.17-.58 1.41-.71 4.45-1.87 1.18-.47 1.29-.47 3.04-1.05 32.11-9.73 4.22-1.17 1.76-.59 15.94-4.57 40.54-12.42 4.57-1.41 1.99-.47 1.65-.47 1.64-.23 1.64-.47 2.11-.47 3.86-.7 4.34-.7 5.16-.59 15-.7 32.69-.82 15.35-.47 2.81-.12 2.47-.23 3.39-.47 1.76-.24 1.88-.47 1.4-.35.82-.23 7.97-3.17 11.96-4.45 5.74-3.87 1.52-1.17 1.41-1.05.58-.71 1.53-1.99.47-.7.35-.71.35-.82.47-1.05.58-3.4 1.41-6.56 1.41-6.68.11-.71 8.21-.23h1.99l5.86-.12 3.98-.35 12.66-1.17 13.83-6.56.93-.47 27.78-17.7.7-.47 9.84-2.34 40.79-9.5 16.05-3.75 5.74-.7 2.23-.23 3.28.11 3.05.12 4.92 1.17 7.62 1.76 1.75.82 3.75 1.52 4.93 2.82 23.67 13.12 8.55 2.11.59.24 24.84 6.21 32.7 8.55h.11l8.79.47 3.99-.35 21.33-1.99 10.19.7.7.12 6.22 1.64 15.82 4.34 1.99.46 139.1 37.39 13.59 3.63 50.28 13.48 3.86 1.06 27.19 6.79 55.08 8.32 1.05.24 7.74 4.57.23.12 2.11.82 8.56 3.16 7.85 2.93 3.4 2.23 15 9.84 14.76 5.75 10.2 1.87 15.47-1.64 11.95-3.52 17.93-8.55 24.96-11.25 12.19-5.51 1.87-.12 6.45-.47 9.49-.7h.35l6.21-.35 41.96 15.94-39.14 97.86 6.79 64.69 3.75 6.45 32.35 42.19-10.32 12.54-.7 1.52-18.87 3.52-18.86 1.05-26.02 3.75-4.22.82-5.39-.94-1.99 1.53-1.99 15.94-3.28 1.87-9.73 1.76-1.41 1.99-.58 4.34-1.76 1.76.12 3.28-2.35 3.28-5.15 3.05-3.64-.71-7.73.59-2.58-.94-3.63 1.06-3.52 3.16-8.32 4.34-8.67 10.78-1.41 8.91-2.22 2.11-.24 2.46-2.22 4.45-8.09 6.09-4.45 5.98-7.03 5.98-.71 1.29-4.92 7.03-5.04 1.52-3.63 4.34-1.41 6.56 1.41 2.82 3.16 2.69.47 3.87-1.76 8.67-2.93 3.4-3.75 1.05-5.39-1.75-3.16 1.87-3.75 4.92-5.39 1.29-5.39 9.73-1.41 4.1-15.58 3.99-5.39 10.08-3.05-.24-8.09-5.16-3.28.12-5.51 6.45-13 9.14-1.88 5.27-3.16.47-.59-16.29-3.05-4.22-10.43 4.57v2.11l-3.04 2.58-.35 11.13-6.92 8.44-.82 4.93-2.11 3.04.71 8.09 4.33 1.52 3.63-1.87 1.18.47 1.64 6.68 4.92 2.46 1.76 7.73 3.39 5.28-.11 7.97-10.55 8.43 1.06 9.26-.71 3.4-1.87.94-7.74 3.75-6.44 1.17-1.06.59 1.41 4.68.94 5.4-.47.93-4.46 4.11-1.75 3.75-3.64 1.64-3.63-2.82-4.57 1.18-2.23 1.99-1.28 7.15-10.08 1.29-2.11 2.93v2.46l4.1 3.98 1.17 1.06 9.96 2.81 1.29 1.87.35 5.16-4.33 12.31.93 6.91.82.47.94 3.16 4.57 5.86 1.88 3.75 1.52 7.39.24 1.17-1.76 1.41-2.7-.12-7.73-.12-5.16 3.64-1.64 3.75-.35 4.68.23 1.64 3.75 24.85.24 1.64-.59 1.64-.7 1.76-4.22 1.99-7.5-.7-1.87.12-3.64.46-.58 1.29-.47.94v.94l.23 7.62.12 2.58-6.45 8.9-5.74 9.26-.12.24v2.69l1.06 1.76 6.68 5.04.23 2.46.24 1.76-.35.58-1.53 3.28-1.29 5.28 1.41 3.16 4.8 2.23 2.23.94.24 1.29.46 2.57-12.18 9.85-.12 6.44 8.09 10.9.93 7.5-2.81 5.51-2.34.82-2.58-.82-4.57-1.4-1.99.11h-.94l-2.58.12.12 3.28 1.29 1.29 2.58 2.81 3.04 3.05 1.76 10.32-1.99 3.63-17.81 11.01-3.75 2.35-.83.47-.46.58-2.46 2.93-.47.59-.71 2.11v.35l.59 5.04 1.29 1.64 3.75 1.76 9.37-6.45 1.29-.93 1.06.58 1.05.7.24 1.76-3.17 6.1-.35 2.46-.59 3.4-10.07 12.77-7.27 5.98-6.91 2.58-5.39 1.99-2.35 8.44.82 6.56 2.11 2.7 1.17 1.52 1.18 1.52 5.27 4.22 2.69 3.99 1.65 7.38-.94 4.45-.59 2.93-3.28 5.28-7.15 3.16-2.22.94-10.43 3.16-.82.71-1.88 1.64-3.52 5.04-.58 1.75-.82 2.58.23 1.88.24 1.87 1.52 10.9 3.75 8.91 6.45 19.22 1.99 18.87-2.7 21.21-2.93 7.85-6.91 13.25-12.66 7.26-3.86 5.39-2 2.58-.47.71-1.05 4.92.35 5.74 1.17 2.81 2 4.69-1.76 9.03-.47 1.05-1.52 3.05v3.98l3.63 3.17 1.87-.24 3.52-.35 8.44-3.52 5.15 3.99.12.47 1.17 5.74v1.76l-2.81 3.63-.59.7-7.73 2.23-3.16 2.7-3.75 1.4-4.34-.58-1.29-.24-.94.94-4.45 4.57-6.21 4.22-5.27 3.52-7.04.35-2.57.11-6.92 1.76-.12-.11-6.44 1.05-3.52 3.16-1.17 5.86.35 5.63.12 7.15 2.81 9.37.47 4.81-.47 4.45-5.04 2.58-10.54-.35-4.81 4.22-2.81 7.15-3.87 5.16-.7 4.33.7 8.09-5.74 4.92-5.27 5.16-3.87 9.14-1.88 8.79 1.76 5.86 6.21 2.46 6.68 2.81 6.1 4.34 2.81 6.44.59 7.74-1.88 13.95-3.05 3.63-4.22.47-4.92.47-5.5 2.81-3.29 8.79v5.04l-.11 5.97 8.08 9.73.12.82 2.34 14.89-1.64 6.79-2.46 3.87-7.73 4.81-8.91 5.51-2.11 5.27.24 8.91-.24 2.11-.58 5.5-2.23 11.49-.12 10.43-1.64 8.2-1.29 5.75.71 3.39.82 5.16-1.06 3.87-2.58 4.34-1.75 1.05-3.75 3.16-4.46 5.28-2.93 4.1-3.4 1.88-7.5-1.65-.46 1.29-.59.36-6.21 3.16-3.4-.23-7.27-1.18-4.57-.35-6.44 3.28-1.06 2-1.4 3.39v4.11l1.99 7.38 2.81 5.62 1.88 5.63.11 1.88-1.52 8.2-1.17 6.45.12 6.09.35 5.39 2.22 8.44 1.18 7.26v8.33l-.94 5.62-1.99 3.99-5.16 8.2-4.22 4.34-3.98 3.86-2.7 3.52-2.81 3.52-2.34 3.39-2.46 4.34-.24 4.45 1.52 4.46 2.11 4.45 2.23 5.04-.23 2.93-2.93 5.63-.36 3.63-.7 3.87.24 2.11 2.22 2.34 3.17 1.64 5.86-.23 6.32-1.41 3.4.47 1.06 1.29.7 5.86.47 5.86.12 4.22 1.64 4.22 3.75 10.19-2 2.58-2.57-.35-2.11-.35-4.46-4.81-2.46-6.68-1.05-5.62-1.76-3.17-3.28-1.05-8.91 1.05-6.56 3.4-2.69 3.4-4.34 6.33-5.86 5.15-3.98.24-7.15-1.88-5.63-2.11-5.86-3.16-3.04-2.58-3.75-2.46-3.4-3.05-3.05-.82-1.76.59-2.34 1.17-2.23 1.76-3.86 2.69-1.41.59-2.23.47-1.52.82-3.28-.23-1.88-1.18-3.4-2.34-.82-1.64-.46-1.41-1.53-3.63-.12-3.75.94-2.7.47-1.75.94-2.47 2.22-6.32-1.05-3.29-1.52-2.34-4.1-1.64-3.75-.47-3.64 1.76-1.76 1.64-.58.59-.35 2.34.47 4.34.7 2.22.35 2.11-1.76 3.17-2.69-.59-2.7-.23-4.33-2.93-3.05-2.35-4.69-3.98-7.85-2.46-3.4 1.17-.94 3.05v2.81l1.29 4.22 2.11 2.46 3.28 2.69 2.11.59 4.46.23 4.92.24 1.52 1.52.12 2.58.35 1.64-.35 3.63-.47 1.76-1.41.35-3.28-1.29-2.11-1.28-2.11-1.18-2.34.71-.47.23-1.05.94-1.29 2.69-1.17 5.51.58.59-.94 1.99-.82 1.17-.58.71-2.81 1.17-1.65 1.05-2.1.71-3.75 1.4-.59.71-1.06 1.64-.46 1.75-.47.12v1.88l.82 2.46 2.93 1.76 5.04 3.28 1.75 1.4.59 1.64-.12 4.22-.58 1.41-.47.94-1.41 2.46-1.76.47-1.4.11-2.93-.7-3.87-1.41-2.69-.58-5.28 1.05-4.69 2.46-1.52 2.11-.82 3.87-.35 3.05.35 5.04-.47 4.33-2.81 7.15-1.17 1.41-1.17 1.99-1.64 1.29-1.06.12-1.76-1.06-2.11-1.52-5.39-1.05-4.92-.59-2.34-.59-7.39-1.29-4.21-.35-1.76-.23-5.04 2.34-2.7 1.17-4.45 3.05-2.46 1.99v2.58l-.35 2.11.94 1.17 3.63 1.64 2.34.59 1.76 1.29 2.58 1.99 1.4 1.53 2.23 6.09 1.52 4.69-.35 3.4-.11 1.05-1.06 2.93-1.17.94-3.4 2.58-4.8 2.69-2.23 1.88-1.41 2.11-1.05 2.22-3.52 7.15-2.34.94-2.23.94-3.04.82-3.75-.47-4.46-1.76-3.28-1.29-4.69-1.4-4.57-.47-3.4-.71-2.81.36-1.52.58-3.87 1.53-1.64.58-1.87.24h-1.64l-3.64-1.06-1.64-.82-1.76-1.05-2.34-1.88-5.39-4.8-4.57-4.58-2.34-1.99-1.41-1.99-7.15-6.09-3.28-3.4-6.09-1.64-4.57-.82-2.11-.36-3.05-.11-6.68.35-2.23-.82-3.98-1.41-3.28-1.17-3.87-1.64-2.69-1.17-3.29-1.76-3.04-1.88-7.97-5.04-3.52-2.1-3.86-1.88-5.04-4.34-1.18-1.17-1.64-1.05-1.75-1.53-3.29-5.5-1.4-3.29-.94-2.22-.23-1.53-.12-2.34.47-1.52.35-.82 1.17-2.93 1.64-4.46 1.06-3.28v-1.52l-.59-2.46-1.99-2.58-2.23-1.88-2.46-.82-3.63-1.05-2.35.11-3.98.82-2.34.36-1.64.35-1.29 1.4-2 2.82-1.75 1.87-1.64 3.17-3.17 8.43-.47 1.18-1.64 2.46-2.11 2.58-3.51 3.16h-2.81l-2.7 1.06-1.52.7-3.87 1.05-.7 2-1.41 2.11-1.64 3.28-.12.47-.23 1.75v2.58l-.24 3.87.47 1.17v3.4l.94 2.58 1.05 2.81 3.4 4.34 2.82 3.51 1.17 1.53 1.29 2.93.35 4.57-.12 1.76-1.76 6.79-1.17 4.22-1.87 3.17-2.46 1.64-2.93 1.52-4.22-.12-2.93.94-3.28.35-2.35 1.41-1.4.82-2.47 1.87-.11.12-.47 1.76-.7 1.76-.59 4.33.35 1.64-1.17 4.22-.35.71-.94 1.52-3.4 1.06-1.52.23-2.23.59-4.45-.36h-1.52l-3.52.24-3.52 1.17-1.4.59-.94.35-2.46 1.76-1.99 1.87-1.29 1.88-2.58 3.28-3.87 7.26-2.93 3.17-2.34 1.76-1.99 1.05-4.46 1.76-2.11.23h-3.98l-3.28-.47-10.43-1.05-4.45-1.52-1.64-.82-1.76-1.41-3.17-1.99-2.46-1.53-3.04-.93-3.4-1.64-2.58-.36h-1.29l-4.69.94-2.81 1.17-.94.47-5.04 2.35-2.22 1.52-1.99 1.87-2.58 2.82-2.46 3.63-2 2.34-1.99 1.65-3.05 1.87-5.85-.59-2.35-1.87-1.52-2.23-4.22-4.57-2.93-2.58-1.52-.82-5.28-1.05-2.22-.71-3.17.36-1.87 1.05-2.11 2.7-3.99 6.09-2.34 1.99-5.04 2.46-5.86 1.53-1.76-.82-1.99-1.88-2.11-1.4-1.4-2.46-3.52-3.64-2.11-1.4-1.05-.71-2.93.35-1.18.12-3.04.24-4.69 1.99-3.05 2.22-1.64 2.7-.11 1.76.46 5.15 1.06 3.05.82 1.99-.24 5.98-.58 2.46-.47 1.88-1.76 3.87-2.81 1.99-1.76.35-4.45-.47-1.52-.47-2.58-2.69-1.17-1.53-3.64-3.16-4.33-3.28-2.11-1.64-.94-1.18-4.57-2.22-3.4-1.64-5.86-.12-7.26-.7-4.81.23-2.11.47-8.67 1.41-8.79 1.87-4.69.35-2.34.71-4.22 1.05-5.74 1.41-4.57.93-5.51.47h-2.34l-2.23.12-2.11-.82-1.64-.94-3.28-2.34-3.28-2.11-6.1-5.39-4.57-3.05-1.05-.7-1.52-.24-3.87-1.05h-3.28l-2.93-.7-4.81.93-3.86 3.4-1.76 2.11-4.46 3.75-2.92 5.39-5.63 7.97-2.93 6.21-3.16 5.04-2.82 2.23-5.97 1.64h-3.64l-4.33-1.41-5.27-1.99-2.93-2.23-6.22-6.79-4.92-4.34-3.63-3.87-3.63-2.34-3.87-.94-9.02.59-14.65 1.76-10.9 1.64-14.77 3.4-11.36 2.93-15 5.27-7.03 3.98-3.64 1.76-3.4-.23-6.09-1.64-6.33-4.22-1.87-.12h-2.58l-2.81 2.23-4.34 8.44-7.26 8.79-5.86 7.38-6.1 7.73-1.99 2.46-3.87 3.75-4.33 3.64-2.46 1.05-2.11.59h-5.16l-3.98-1.52-5.63-4.34-4.8-5.74-4.57-5.39-3.99-2.35-4.8-.82-3.52.47-3.98 1.17-3.4 1.76-4.45 3.16-7.5 8.68-8.21 7.15-5.27 2.57-4.81 2-10.54 3.28-8.56 1.17-7.97 1.87-5.86 2.23-1.99.82-2.11.94-1.29.94-2.81 1.64-2.11 3.16-1.76 2.23-1.17 1.52-.94 1.76-.46 1.52-.59 2.35-.35 3.4.94 3.98.93 3.99-1.4 10.66-4.34 11.84-1.52 3.87-.59 3.04.24 1.64.7 1.53-1.17 2.22-1.41-.58-1.64.47-4.92 4.8-5.74 3.99-5.04 2.11-2.7.82-2.69.46-3.4.83-3.28.93-2.23 2-1.29 1.05-2.34 1.05-1.29.83-1.41 1.52-1.05 2.58-.47 2.58v7.96l.58 3.05v3.4z" stroke-linejoin="round"/></defs><use xlink:href="#b" fill="#cee3e4" stroke="#cef5f5" stroke-width="5.76"/><defs><path id="c" d="M1505.98 2084l-4.93.35-11.36.7h-1.41l-1.52-.11-1.17-.12-1.06-.24-1.05-.35-1.18-.35-1.17-.35-1.29-.59-1.99-1.17-2.46-1.52-2.11-1.41-8.67-5.98-1.29-1.05-2.11-1.52-2.23-1.53-4.21-2.81-5.39-3.52-3.75-1.99-1.29-.7-1.64-.82-1.41-.59-3.16-2.69-1.41-1.29-3.05-2.46-1.05-.82-4.22-3.05-2.46-1.76-1.17-.82-.94-.59-5.63-3.86.35-.82.24-.82.12-.71.11-.7-.11-1.29-.12-1.52v-2.58l-.12-1.64-.12-.94-.23-.82-.23-.7-.47-1.41-.35-.7-1.06-2.35-.82-1.52-.12-.47v-.35l-.11-.35.11-.35.12-.36.12-.35.12-.35.23-.12-4.22-5.27-3.51-4.57-7.74-10.31-.23-.36-4.22-5.27-2.93-3.63-11.6-14.65-12.07-14.65 1.87-5.63.59-1.99 1.4-2.81 1.06-1.99-14.88-20.87-17.35-23.79-8.55-11.95-8.44-11.96-8.67-11.83-3.52-4.57-4.92-5.04-1.41-1.41-3.63-2.58-1.52-1.05-1.53-.82-10.78-6.21-11.95-6.33-1.29-.71-8.44-4.33-4.68-1.88-2.11-.7-2.58.12-1.88-.35-1.4-.24-1.29-.12-1.41-.11h-5.15l-2.35.11-1.64.12-14.88.24h-2.23l-3.75.11-7.5-.47-40.55.82-12.3.24h-6.91l-4.57-.12h-3.52l-3.75-.23-3.87-.59-4.8-1.05-9.38-2.46-15.23-3.4-4.81-1.06-2.11-1.4-10.31-1.53-10.19-1.17-2.35-.7-4.92-2-1.41-.35-6.21-2.46-.82-.23-.7-.24-17.93-13.01-9.02-6.44-9.96-6.92-2.82-2.11-5.39-4.1-15.23-10.66-9.26-6.68-8.32-5.86-37.38-26.61-18.4-12.77-11.6-7.97-1.41-.94 1.29-1.87-1.76-1.88-.93-10.19-.59-5.28-.35-3.4-.24-1.29-.35-2.81v-.47l-.12-.7-.23-1.99-.12-.82-.23-1.53-1.99-18.4-.82-13.12 3.28-.35 8.08-1.06 6.33-.7 4.81-.71 3.75-.46 3.39-.47 2-.24 1.05.12 1.06.59 1.4-.36 1.06.12.93.82 3.99-5.39 5.98-8.91 1.4-1.4.94-.82 1.52-1.18.24 2.35.11 1.17 2.58-1.05 1.17-.47 1.06-.47 5.74-2.11 1.29-.47 1.88-.7 3.04-1.06 4.34-1.52 2.11-.82.82-.35.82-.47.7-.47.7-.59.47-.58.47-.71.35-1.05.12-1.06-.12-1.17-.35-3.63 2.81-.7 4.11-1.88 6.91-4.92 5.98-3.75 1.17-.59 1.29-.35.7-.7 1.64-1.88.7-.47 1.76-.7 7.03-2.11 3.28-.59 2-.35.23-.58.35-1.06 1.17-2.93.36-1.05 2.22-.24 4.34-.58 4.45-.59.12-1.05.59-6.8 1.05-9.26 2.23-26.95.23-2.93 1.99-21.69.24-2.22.7-8.32.47-7.97.23-1.88v-1.99l.12-.94-.12-1.4-.11-1.88-.24-2.23-.23-2.22-.71-3.05-.46-1.88-.47-1.52-2.82-7.62-2.57-6.68-.59-1.52-.59-1.76-.93-2.58-.71-2.58-.7-2.46-.47-2.11-.35-2.46-.23-1.29-.24-2.93-.12-2.69-.11-2.46.35-15.82.12-7.39.23-13.36.12-3.4.11-3.86h-1.17v-3.17l.12-10.43-.12-14.65v-4.69l-1.87-13.47-1.29-9.85-.47-4.22-.12-2.23-.11-2.69v-2.46l.35-2.23.23-1.41.59-2.46 1.4-6.09 2.11-8.56.94-3.75.7-1.87 3.52-7.03 2.11-3.4 7.73-11.02 2.23-3.75.35-1.05.12-4.22.47-3.05.7-2.46 1.52-1.76 17.7-17.34 3.16-2.35 2.23-1.87 3.28-1.88 5.04-2.22 4.45-1.18 12.89-2.81 5.51-1.52 19.34-2.93 9.26-1.76 7.61-1.52 6.21-1.65 1.41-.58 1.64-.94 1.76-1.17 1.4-1.29 1.65-1.76 2.46-2.69 2.22-3.05 1.76-2.81 2.34-5.04 1.41-5.39 6.21-18.29 3.87-11.25.7-2.58.35-.93 5.75 8.67 6.44 10.9 9.61 22.38.7 2.93 5.75 12.78 2.69 3.16 3.87.82 7.38 1.76 6.09 8.67 8.09 12.31 1.64 2.81.7 1.17 3.4 6.68 2.58 6.57 1.41 3.63.58 2.58.12 1.17-.12 1.17-.93 7.74-.47 2.93-.35 2.57-.36 3.64.24 1.4.35 1.18 1.17 2.22v1.53l-.12 1.99v1.76l.12.47-2.34-.24-1.76-.23-1.52-.24-.71-.11-1.05-.12-.7-.12.58 5.04.47 3.52.59 2.93.46 2.22.83 2.58.93 2.58.59 1.41.58 1.29 1.41 3.04 3.99 7.62 5.74 11.02 1.64 3.16 2.58 5.04 2.11 3.99 1.28 2.46 1.65 3.04 1.4 2.93.47.94 1.64 3.4.7 1.29.47.94 1.76 3.4 1.99 3.86 1.17 2.11 1.65 3.05 1.99 3.75 1.87 3.63.35.59 5.39 10.78.71 1.41 1.99 4.1.35.7.47.82.59 1.06.35.82 3.28 6.09 1.52 3.05 2.81 4.92 3.29 6.45 3.63 6.68 2.69 5.39 2.82 5.27 2.34 4.46 1.41 2.93.82 1.52 2.22 4.45 1.18 2.11 2.1 4.1 2.93 5.75 2.93 5.62 2.35 4.46 2.11 3.98 2.34 4.69 3.17 5.98 4.33 8.32 2.81 5.15 2.7 4.69 1.76 3.05 2.22 3.4 2.58 3.75 2.7 3.86 2.11 2.82 2.46 3.04 3.16 3.64 2.7 3.16 3.51 4.1 4.46 5.04 4.1 4.81 4.57 5.27 3.16 3.75 2.7 3.05 1.17 1.41 2.46 2.81 1.76 2.11.11.12 1.06 1.05 1.87 2.23 3.05 3.51 3.05 3.99.11.12 2.11 2.81.82 1.29 1.41 1.99.7 1.17 1.29 2.23.12.23.82 1.53.82 1.64.35.58 1.06 2.11.93 1.99.82 2.11.36.94.11.47.24.7.23.36.24.93.11.47.12.24.59 1.64.23.58.59 1.88.82 2.93.35 1.76.47 2.11.47 1.99.58 3.28.47 3.28.24 2.11.23 1.99.35 2.7.12 1.4.23 2 .24 1.52.58 5.51.12 1.05.12.59.82 7.27.47 3.39.58 4.81.82-.35.71-.35 3.39-1.76 2.35-1.29 1.87-1.06 1.76.12-3.4 1.76-5.86 3.28-.58.35-.94.59.12.58 1.52 12.78.7 6.91.24 1.76.58 4.57.82 6.21.82 7.15.12.71.24 2.11.23 1.87.47 3.17.47 3.98.23 1.64.59 4.57 1.05 6.8.71 4.33.58 3.76 1.17 6.21 3.99 18.98 2.34 10.67 3.28 14.41 4.81 21.33 1.17 4.81 1.41 6.68.7 2.93.94 4.22 1.17 5.74 3.4 15.82 3.63 17.11 1.41 5.74.47 2.11.7 2.7 2.93 14.18 3.75 16.64 2.58 12.89 1.29 5.98.7-1.76.82 3.75 11.13 47.82 3.17 13.48-1.76.82 1.05 5.15.47 2.23.59 2.46 1.64 8.21 1.17 6.91 1.29 7.15.47 3.52.58 3.63 1.76 14.41 1.52 14.42.71 8.32.11.59.59 6.09.59 5.98z" stroke-linejoin="round"/></defs><use xlink:href="#c" fill="#9dc8ca" stroke="#9dd7f0" stroke-width="5.76"/><defs><path id="d" d="M1167.54 1142.91l-.59.46-.35-.46-1.87-2.82-1.53-2.22-.58-.94-3.64-5.86-.82-1.76-2.11-3.75-1.87-3.87-.35-.82-.7-1.64-.83-1.76-.23-.58-1.52-3.64-1.76-4.45-1.52-4.45-1.53-4.46-1.29-4.57-1.05-4.57-.12-.35-.94-4.34-.82-4.68-.7-4.93-.7-5.86-1.17-9.37-.71-5.63-.58-5.5-.12-1.18-.82-6.79-.24-2-.23-1.87-.59-4.57-.23-2.81-1.17-10.9-.12-.82-.59-4.58-.35-2.34-.35-2.11-.12-.47-.7-3.63-.47-2.7-.82-3.28-.94-3.28-1.17-3.16-1.29-3.17.71-.58-1.17-2.93-1.18-2.7-3.16-5.62-.7.93-.59 1.29-.35.71-.35.82-.24.82-.35 1.29-.35 1.52-.23 1.41-.24 2.1-1.05 8.33-.71 3.75-.11.46h-1.06l.12-.58.58-3.52.36-3.51.82-6.1.23-1.52.23-1.41.47-1.64.24-1.05.47-1.06.93-1.87.59-1.29.59-.94.46-.7-.82-1.17-1.99-2.93-2.34-3.29-2.11-2.57-.59-.59-.11-.23-11.25-12.31-1.06-1.06-.82.24-.47-.59-16.52-17.81-6.8-7.03-6.68-7.15-11.01-12.42-7.5-7.62-5.04-7.27-8.56-12.77-7.5-16.18-4.45-14.41-1.52-4.45-.47-1.88-.47-1.05-1.52-7.51-1.53-13.71-.58-7.85-.94-12.89-3.63-35.39-.36-1.65-5.27-33.4-6.21-27.66-1.76-5.5-2.46-9.26-3.28-13.48-1.05-3.4-1.88-6.33-7.03-27.54-1.17-4.8-.12-.94-.35-1.99-.24-.94-.58-2.11-.59-1.99-.58-1.64-.59-2.46-1.64-5.98-5.74-22.62-4.34-16.76-1.76-7.03-2.22-8.44-8.91-37.5-7.15-36.57-1.17-11.25-2.34-25.2-1.29-18.4-2.35-28.59-.58-7.27-1.29-13.83-1.17-14.77-1.88-21.21-.12-1.87 2 .58 2.46.59 1.99.47 3.75.7 1.99.24 5.16.58 1.87-.35.94-1.29 50.74-83.09 12.89-23.09 12.54-22.74 22.62-39.26-.59 1.88-.58 1.64-.82 2.23-1.76 5.03-1.29 3.29-.7 1.64-.59 1.87-.82 2.35-.35 1.17-.47 1.29-.23 1.52-.35 1.41-.24 1.64-.23 1.64-.24 3.63v3.28l.12 1.76.23 2.46.47 2.58.35 1.99.82 2.82.59 1.99.94 2.58 1.29 3.16 1.17 3.05.23.58.71 1.64.7 2.35 1.05 3.4 1.06 4.33.7 2.82.35 1.75.94 4.22 2.23 9.85 1.05 4.8.47 2 .47 3.28.12 2.69.23 2.35v2.57l-.12 2.23-.11 2.7-.47 3.86-.35 2.58-.24 2.7-.11 2.11-.12 2.58-.12 1.4.12 1.64.12 3.52.7 13.71.23 3.52.12 3.04.23 1.65.12 1.28.12.94.12 1.53.23 1.4.35 2.11 1.06 5.51.58 2.34.47 2 .59 2.11.35 1.52 1.64 4.8 2.46 6.68 2.81-.58 4.22-.82.82-.12 6.56-1.41 10.67-2.22 5.97-1.17 1.29-.24-3.16-6.09-4.34-8.56-1.52-3.05-.94-1.87-1.29-2.93-1.05-2.58-.7-2.23-.47-1.4-.59-2.23-.47-1.99-.47-2.46-.35-2.11-.23-1.53-.12-2.1-.12-3.05v-2.81l.12-2.7.24-2.23 1.4-9.02 1.06-7.97.7-4.69.35-2.34.12-1.64.12-1.41.11-1.76.12-1.64v-2.81l-.23-2.58-.24-2.46-.23-1.99-.24-1.53-.47-1.99-.7-3.4-2.7-10.9-2.69-10.43-1.76-7.03-.23-1.17-1.17-4.69-3.52-15-2.46-9.49-1.52-5.98-1.29-4.81-1.18-4.8-1.05-4.22-1.05-5.04 15.35-1.76 74.18-8.9 89.06-10.43 88.94-10.55 89.42-10.32-.35 2.35-.47 2.81-.47 2.35-.7 2.1-.71 2-.82 1.99-1.05 1.87-1.06 1.76-1.17 1.76-1.4 1.52-1.41 1.53-1.52 1.4-1.65 1.29-5.27 3.75-5.39 3.52-3.28 2.34-.47.36-7.97 5.39-6.21 4.22-1.76 1.17-5.04 3.51-4.1 2.82-1.99 1.4-6.33 4.34-3.4 2.34-2.81 2.23-2.81 2.58-4.22 3.86-.59.47-4.68 4.69-.59.47-3.75 3.52.24.35.35.23.35.24.35.11h1.05l.71-.11h.7l.7-.12.59-.12.94-.11 1.17-.12 5.51-.82 6.33-.82 5.39-.82 5.03-.59 1.88-.12 1.52.12 1.76.12 1.64.12 1.06.23 1.17.23 1.05.24.94.35 1.17.47 1.06.35 1.75.82.94.47.94.47 1.29.82 2.93 2.11 2.46 1.64.82.58 1.87 1.18 5.16 3.51 2.58 1.88 2.46 1.76 2.23 1.75 3.28 2.7 2.34 2.23 5.04 5.04 5.39 5.39 1.41 1.4.82.59.58.47.59.58.7.47.94.59 1.52.94 1.18.7 1.17.47.82.35 1.87.59 2 .35 1.87.35 8.44.58 5.74.47 19.1 1.64 7.62.47 1.99.12 9.61.82h5.27l2.35-.35 2.22-.47 2.23-.59 2.23-.82 2.22-.82 2.11-1.05 2.11-1.17 2.23-1.53 2.11-1.4 1.05-.82.94-.47h.23l.59-.12.94 1.88 1.29 2.57 1.4 2.58 1.53 3.05 1.52 2.81 2.58 4.92 1.87 3.52.71 1.29 3.98 7.5 1.76 3.16 4.33 8.09 1.53 3.05 1.52 2.81 1.17 2.23 1.76 3.4 1.52 2.57 2.58 4.93 2 3.75 2.81 5.27 1.87 3.52 2.7 5.04 2.69 4.45 2.23 3.98 1.29 1.88 3.4 4.92 4.45 6.57 2.46 3.63 1.88 2.58 2.81 4.22 1.05 1.52.47.94.71 1.17 1.17 2.34.82 1.64 1.05 2.35 1.06 3.04.93 2.93.59 2.47.59 2.69.35 2.81 2.34 21.33 1.53 14.07.23 2.34.23 1.64 1.06 11.14.23 1.4 45.71-10.9 8.2-1.87 8.2-1.88 15.82-3.51 3.4-.82 39.26-9.85 11.48-2.11-.11-1.05-1.53.23-10.31 2.35-12.3-7.04-6.8-5.27-4.45-9.14-2.7-18.64-2.58-12.89-1.29-34.1.35-2.81.59-.59 2.23-2.58.82-.58.11-.71-.23-1.4-.47-1.53-.58-1.05 24.02-2.23 21.8 5.51 14.41 5.62 12.3 7.39 16.76 19.1 21.92 11.37 25.89 2.23 21.92-11.25 5.04 4.1 17.58 12.54 3.04 1.87 2.11 1.53 1.17.82 1.29.93.59.59.82.7.59.71.58.58.59.71.47.58.58.94.71 1.29.46.82.36.82.46.82.47 1.05.35.82.47 1.18.24.93.23.82.12.82.23.71.12.7.12 1.52.47 3.75v.47l.23 3.17.47 6.68.12.23v.24l.11.23.24.24.23.23.24.23.35.24-4.92 7.03-1.76 2.46-.59.82-1.05 1.41-.94 1.29-.58.94-1.41 1.52-.94 1.05-.94 1.06.59.82.47.7.35.47.35.82.12.47.12.35.23.59.94 3.28.23.94.24 1.17.35 1.29.23 1.17.24 1.29.11 1.29.12.82v3.75l-.12 1.05-.11 1.18-.12.93-.12.82-.11.82-.24 1.18-.35 1.17-.59 1.64-.47 1.4-.93 2.58-.94 2-.7 1.99-2.35 8.08-.47 2.58-.11 1.41-.35 2.34v2.23l-.12 3.05v6.09l.12 5.04v8.56l-.12 1.75v1.53l-.12 2.69-.23 4.81.11 5.86.82 19.57-.11 1.05-.12.94-.23 1.06-.71.58-.82.71-1.17.58-.94.35-1.4.24-4.22.23-1.29.12-1.52-.12-1.29-.23-.59 11.95-.12 4.81.35 5.62.59 3.05 1.76 5.86 1.64 3.63 1.76 3.28 3.63 4.58 1.17 1.17 2.93 2.58 3.75 3.16 3.17 2.34 3.51 2.23 1.88 1.29-.47.94-13.36 25.9-1.99 3.87-1.65 3.04-1.28 2.35-7.15 12.42-2.23 3.4-1.76 2.46-.58.94-4.69 6.33-3.52 4.8-1.17 1.64-4.33 5.86-13.13 17.81-11.72 16.06-1.76-1.29-22.96 31.06-.47.82-7.39 9.96-4.33 5.86-18.52 25.08-1.99 2.7-15.35 20.74-8.67 11.84-3.87 5.15-1.41 1.76-3.39 4.69-1.76 2.46-3.05 4.22-1.17 1.41-1.64 2.22-1.53 2.11-2.46 3.4-2.57 3.4-2.35 3.16-.12.12-.82 1.17-.35.36-.58.7-.12.23-.7.82-.94.94-.82.94-1.06 1.29-1.4 1.4-.59.59-.7.7v.47l-.7 3.4-1.88 1.76-2.11 1.76-1.52 1.29-1.53 1.17-1.05.82-1.17.82-1.17.82-2.23 1.52-5.04 3.05-1.76.94-1.76.93-1.87.94-2.34 1.17-1.88.82-1.87.71-2.35.94-2.46.82-2.69.82-2.47.7-2.57.59-2.58.58-3.52.7-1.64.24-1.52.35-1.17.23-2.46.36-3.99.7-3.87.7-3.98.82-3.87.71-5.15.93-5.16.94-3.98.7-3.75.71-5.28.94-3.86.7-5.04.94-3.99.7-3.87.7-3.86.71-1.64.35-2.23.35-3.98.7-2.46.47-2.7.47-2.46.47-2.7.58-2.46.36-2.69.58-2.58.35-2.58.59-1.64.23-.94.24-3.98.7-3.75.7-2.93.47-1.76.36-4.8.82-1.88.46-1.76.24-.35.12-2.34.46-2.46.36-3.87.7-2.46.59-1.29.23-1.41.23-1.29.36-1.28.35-1.29.35-1.18.35-1.28.35-1.29.47-1.29.47-1.17.47-1.29.58-1.18.47-1.17.59-1.17.47-.58.35-.59.23-1.17.71-1.29.58-1.17.71-1.06.7-.94.59-1.28.82-1.18.7-1.17.82-1.05.82-1.06.82-1.05.82-.94.82-1.17.94-.94.94-.94.82-1.05 1.05-.35.35-.47.47-2.11 2.11-1.17 1.29-1.41 1.76-1.76 1.99-1.76 2.11-2.46 3.28-1.75 2.23-1.76 2.11-1.76 2.22-1.64 2.11-1.76 2.11-1.64 2.23-1.76 2.23-1.75 2.11-1.64 2.11-1.53 1.87-1.05 1.41-.82 1.05-1.29 1.53-1.41 1.75-1.29 1.53-1.4 1.64-.82 1.05-3.75 3.75-1.06.94-.94.94-1.05.82-1.06.94-.82.82-1.17.82-1.17.94-1.41 1.05-1.87 1.29-3.05 1.87-.35.24-1.64.94-2.11 1.05-2.23 1.06-1.75.82-1.76.82-2.58.93-3.63 1.29-2.46.82-2.46.82-2.58.82-2.58.71-2.34.94-2 .82-1.87.82-2.35 1.17-2.46 1.29-2.11 1.29-2.22 1.52-2.11 1.64-1.53 1.17-1.52 1.29-2.11 1.99-2.93 2.7-2.34 2.46-.47.47-1.05 1.05-1.88 1.88-1.99 1.99-1.88 1.99-2.46 2.47-2.34 2.34-2.81 2.93-1.88 1.87-1.99 2.11-1.88 1.88-3.75 3.87-2.93 2.93-2.81 2.81-1.87 1.76-1.06.93-1.4 1.18-1.29 1.17-1.29 1.05-1.29 1.06-1.41 1.05-1.4 1.06-2.58 1.76-4.69 2.93-6.8 4.21-.93.59-9.14 5.86-2.93 1.88-3.52 2.22-13.13 8.56-11.36 7.26-33.28 21.1-2.23 1.52-1.41.82-3.16 2.11-10.31 6.57-2.35 1.52-1.05.59-1.64.93-1.17.71-1.53.82-1.29.58-1.99.94-1.29.59-2.11.82-2.58.93-2.69.94-5.39 1.64.23 1.29.24 1.17-2.46.82.35.71-13.6 5.86-3.28 2.58-4.45 2.69-13.71 8.2-5.51.71-.94.58-1.05.36z" stroke-linejoin="round"/></defs><use xlink:href="#d" fill="#6bacaf" stroke="#6bb4d2" stroke-width="5.76"/><defs><path id="e" d="M816.91 1508.56h-.46l-.12-.59-1.29-.23-1.41-8.56-1.05-6.56v-.7l-.35-2.23-.24-1.17-.23-1.52-.12-.94-.12-1.29-.35-2.23-.35-2.22-1.29-9.61-1.05-8.44-.12-1.76-.23-2.58-.24-6.09v-5.98l.12-2.34.35-3.99.7-6.33-7.5 1.06 5.51-11.84-1.05-.23-14.18 1.75-1.41-11.25-12.07 1.53-5.39.7-6.21.59-4.34.46h-1.4l-1.18-.23-1.4-.82-4.22.7-8.32 2.11 1.05 2.46 2 3.52.58 1.64.35 1.64 1.88 3.87 1.64 2.81.35 1.06.59 1.75.35 2.82.94 2.22.7 2.82.35 3.98v9.61l-.23 3.75.35 1.53.35 1.05.23 1.41-.23 1.87-.47 1.29-.12.82.24.47 1.17.59.58.46.24 1.18-24.49 5.39-2.35-37.39-.82-6.8-1.17-5.86-3.87-11.83-5.74-17 .47-1.17.12-.94-.71-1.4-1.75-1.41-2.11-3.51-2.7-5.51-8.9-29.07-1.18-8.08-2.11-5.75-3.04-4.92-2.93-2.81-4.22-1.64h-4.81l-1.75-.59-1.53-2.11-1.17-2.22.24-1.88-.24-1.88-.94-1.75-.7-1.53-.47-3.98-.58-3.99-.82-2.11-.47-2.69.23-3.75-.23-3.52.93-3.75 1.18-5.15 2.93-9.03 1.4-5.27.94-1.64 1.52-1.76 1.18-2.34-.12-2.58-1.06-2.11-.47-2.23v-.12l-.23-1.99v-2.11l.12-1.64.82-3.98v-.24l2.11-7.73.58-6.68-.58-4.57-.35-6.68-.59-4.11-2.11-5.86-2.7-4.92-3.39-5.86-2.35-1.64-3.86-1.87-4.46-1.06-4.22-.7-3.39-.59-3.05-1.17-2.93-1.41-1.76-1.75-1.64-3.4-.47-3.05.7-3.75.94-3.75 1.64-3.52 1.99-2.46 1.41-2.69.7-2.7-.23-1.76-.7-1.87-2.46-4.57-1.41-2.82-16.64-12.18-3.75-23.21-.47-1.87-1.52-7.62-4.93-24.61-4.8-22.86-22.03-22.5-5.98-4.8-11.95-7.39-14.53-8.55-5.39-20.28-.94-15.12-.59-15.58-8.43-18.29-14.53-11.6-16.06-4.22-3.4-.94-20.51-4.1-16.17-.47-6.91-5.27-10.2-13.48-6.68-9.14 2.23-10.55 4.57-12.89-5.39-12.19-.47-.47-3.87-3.04-7.38-4.93-13.24-12.42-7.97-7.03-4.8-11.13-5.51-2.11-12.31-.47-8.08-13.6-5.75-21.8-12.3-31.52-1.29-10.2 5.86-7.73 3.4-8.32.35-10.67-5.62-3.63-11.72 3.51-11.49.94-9.37-6.91-11.96-10.55-7.14-4.22-7.15 1.76-17.11 3.87-16.53 3.39-10.43 5.86-7.5-8.08-8.32-12.89-5.03-13.36-4.22-32.58-5.16-16.3-.82-1.99-5.98-9.96-10.78-5.04-2.11-6.91-1.99-6.92-6.56-8.55-9.85-4.81-7.5 1.06-7.73.7-2.34-8.56-8.09-8.79-8.79-2.81-12.07 5.63-15.7 1.64-11.49-8.21-13.82-14.06 1.4-11.6-1.64-12.07-5.62-13.95-6.33-14.06-3.99-4.22-.11-.12-11.37-11.02-13.95-10.19-9.02-1.06-10.9-2.34 6.68-65.51-30.35-24.03.82-.12 5.16-1.76 4.57-2.81 11.36-9.96.82-1.17 2.35-2.58 4.33-3.75.82-.7 2.58-2.35 1.29-1.64 1.88-2.22.93-.94 2.23-1.17 1.06-.59.93-.82 1.99-2.93 1.53-2.81 1.99-4.34.94-2.58.94-3.05.46-2.81.36-1.05.82-1.53.7-.58.7-.24 1.41-1.17.7-.58 1.17-1.53 1.64-2.58.94-1.29.82-.7.94-.47.82-.58.82-.94 2.7-5.39 1.87-3.52.59-1.99.47-2.11.35-.82 2.22-3.16 2-2.82 4.21-7.26.82-1.53 1.65-3.98 1.99-4.46.7-1.05.7-.94 2-2.11 1.4-1.76 1.99-2.22 2.23-1.41 1.64-1.29 2.35-2.93 2.92-2.93 3.52-3.04 1.41-1.65 3.4-3.75 5.15-4.8 5.51-3.75 3.75-2.58 2.23-2.11 5.5-5.98 3.28-3.39 1.53-.94 4.92-1.53 2.23-1.05 2.93-1.99 1.17-.82 1.99-1.64 2.11-1.64 1.05-1.18 2.35-3.51 10.08-14.65 3.51-5.28 5.39-1.05 2.7-.7 4.8-1.53 9.14-3.28 2.7-.82 3.75-.82 3.28-.59 6.45.12h2.34l1.76.35 2.69.71 2.11.82 2.93 1.64 3.52 2.22 3.51 2.11 2.11 1.06 1.99.7 2.35.7 13.24 2.7 5.39 1.06 4.81.7 5.74.23 11.13-.58 3.4-.47 1.64-.24 3.63-.58 14.06-1.17 3.52-.36 7.97-.58 3.05-.24.58-.23 1.17-.35.59-.24-.82-1.29-4.34-5.74-1.17-4.69-.58-2.34-.71-2.34-.58-2.47-.59-2.46-.35-2.34-.35-2.11-.47-3.28-.35-2.81-.35-3.29-.59-2.69-.82-3.17-1.76-4.33 2.23-3.4 2.34-3.99.7-1.75 1.88-3.28 1.99-4.46 2.81-5.74 2.23-5.86.82-2.46 3.17-6.57.46-1.75.12-4.34.35-2.58 1.41-6.09 2.69-7.85 1.41-4.46.24-3.28.58-3.28.7-2.46 1.53-1.88 1.76-1.4 1.4-1.88.94-2.11.23-.7.36-1.52.46-2.47v-3.39l-.11-.59-.59-2.81-1.41-5.39-.35-3.17.35-2.46.82-1.41 1.88-1.4 1.17-.35 1.53-.47 2.46-.24 2.93.47 4.33 1.29 6.45 2.34 2.69.47 2.46-.7 1.64-1.41.59-1.87.47-2.81-.94-8.91h1.64l1.17-1.17 1.18-6.1.82-1.99 2.46-3.52 2.11-1.52 3.63-1.41 1.99.82 2.58 1.06 1.29 2.11 2.81 4.22 1.17 2.23 3.28 3.86 3.52 8.68.82 4.8.7 5.39 1.76 7.74-.12 1.4-.47 3.99.12 1.64 1.53 1.87.58-.11.35-.12h.59l.58.23.59.35.7.59.82.82.59.82.47.82 1.41 3.87 1.17 2.34 1.29 2.11 1.05-.82 1.29-.82 2.81-.94 3.87-.23 10.19 1.99.83.71.35.46.47.36.23.35.23.23.12.35.12.36V92l-.12.35-.12.35.71.35 1.87 1.06 1.76 1.17 1.64 1.29 1.52 1.41 1.41 1.64 1.41 1.64 1.4 1.87 1.88 2.82 11.01 16.64 2.82 4.33 1.29 1.88 1.05 1.76.94 1.4.93 1.41 1.53 2.11 1.05 1.41.59.58 1.05 1.06 1.29 1.17 1.64 1.29 1.53 1.17 1.17.7.7.47 1.06.47.7.35.94.35.7.36 1.29.46 1.17.24 1.29.35 1.17.23 1.29.12 1.17.12 1.41.12 1.76.11 1.64.12 1.76.12h1.75l1.88-.24 2.22-.23 1.88-.35 2.34-.47 2.11-.24 1.29-.23 1.17-.12 1.06-.11 1.52-.12 1.64.12h1.17l.82.11 1.06.12 1.05.12 1.18.11.93.24 1.18.35.82.23.82.24 1.52.47 1.52.47 1.53.58.82.24 1.05.35 1.17.35 1.53.47.93.23.82.24.82.23.71.12.7.12.82.11.7.12h1.88l.94.12h.82l.93-.12.83-.12 1.05-.11 1.29-.12 1.64-.35.82-.24 1.29-.47 1.17-.35 1.76-.7 1.52-.82.82-.35 1.06-.59 1.05-.7 1.06-.59 1.75-1.29 1.53-1.05 1.29-.94 1.87-1.29 2.46-1.64 1.88-1.17 1.76-1.17 1.75-1.29 1.88-1.17 1.29-.82 1.05-.82 1.17-.71.82-.7.71-.47.58-.47 1.29-1.05 1.29-1.18.82-.82.82-.93.71-.94.82-.94 1.05-1.52.82-1.41 1.06-1.87.93-2 .82-2.11.59-1.87.47-1.64.47-1.64.7-4.22.7-3.4.82-3.87 1.17-6.21.71-3.05.7-3.16.59-1.99.58-1.88.94-1.87 1.06-2 1.17-1.87 1.17-1.88 1.41-1.75 1.52-1.64 1.52-1.53 1.76-1.29 1.64-1.17 1.88-1.05 1.87-1.06 1.99-.82 2.11-.7 2.11-.47 2.81-.47 22.74-2.34 4.57-.36 3.05-.23 23.67-2.46 3.98-.35 4.57-.47 3.87-.35 3.05-.35 8.55-.82 5.27-.47 5.28-.59h.58l2.23-.23 2.46-.36 1.64-.11 1.64-.12h2.93l1.29-.12.82 3.87 1.99 10.31 1.76 8.91.82 3.87 1.99 9.26 1.76 9.26.94 3.98.35 1.29.47 1.76.23.82.71 2.11.82 1.99 1.17 2.34.59 1.18.46-.12.47-.12.47-.12h.47l.59.12 4.21 1.17 2.7.82 1.76.36.94.11.93.12.71.12h.93l.94.11 1.29-.11 1.41-.12 1.29-.12 1.17-.23 1.52-.24 1.29-.35.94-.35 1.05-.35 1.41-.47 1.87-.7 3.28-1.41 1.18-.47 1.29-.47 1.64-.58 1.52-.47 1.29-.35 1.17-.24 1.88-.23 1.99-.24h1.29l1.17-.11h.82l1.64.11 1.52.12 1.29.23 1.88.24 3.04.7 5.04.94 18.99 3.63h.58l3.52.47 10.9.82 1.64.12 8.67.47 43.24 2.69 1.64.24 1.41.35 1.87.47 1.88.58 5.74 2.23 2.58 2.11 6.91 3.52 1.64.93 1.88 1.18 1.76 1.05 5.04 3.52 9.37 6.56 1.76 1.29 1.87 1.29 4.81 3.63 11.13 7.85 1.29.82 1.29.71 1.64.82 1.52.7 1.53.7 2.34.82 3.75 1.18 1.41.47 9.14 1.64 4.1.7 4.33.7 4.69.82 5.86 1.06 5.16.93 5.62.94 6.21 1.17 8.09 1.41 8.44 1.52 9.26 1.65 5.62.93-22.62 39.26-12.54 22.74-12.89 23.09-50.74 83.09-.94 1.29-1.87.35-5.16-.58-1.99-.24-3.75-.7-1.99-.47-2.46-.59-2-.58.12 1.87 1.88 21.21 1.17 14.77 1.29 13.83.58 7.27 2.35 28.59 1.29 18.4 2.34 25.2 1.17 11.25 7.15 36.57 8.91 37.5 2.22 8.44 1.76 7.03 4.34 16.76 5.74 22.62 1.64 5.98.59 2.46.58 1.64.59 1.99.58 2.11.24.94.35 1.99.12.94 1.17 4.8 7.03 27.54 1.88 6.33 1.05 3.4 3.28 13.48 2.46 9.26 1.76 5.5 6.21 27.66 5.27 33.4.36 1.65 3.63 35.39.94 12.89.58 7.85 1.53 13.71 1.52 7.51.47 1.05.47 1.88 1.52 4.45 4.45 14.41 7.5 16.18 8.56 12.77 5.04 7.27 7.5 7.62 11.01 12.42 6.68 7.15 6.8 7.03 16.52 17.81.47.59.82-.24 1.06 1.06 11.25 12.31.11.23.59.59 2.11 2.57 2.34 3.29 1.99 2.93.82 1.17-.46.7-.59.94-.59 1.29-.93 1.87-.47 1.06-.24 1.05-.47 1.64-.23 1.41-.23 1.52-.82 6.1-.36 3.51-.58 3.52-.12.58h1.06l.11-.46.71-3.75 1.05-8.33.24-2.1.23-1.41.35-1.52.35-1.29.24-.82.35-.82.35-.71.59-1.29.7-.93 3.16 5.62 1.18 2.7 1.17 2.93-.71.58 1.29 3.17 1.17 3.16.94 3.28.82 3.28.47 2.7.7 3.63.12.47.35 2.11.35 2.34.59 4.58.12.82 1.17 10.9.23 2.81.59 4.57.23 1.87.24 2 .82 6.79.12 1.18.58 5.5.71 5.63 1.17 9.37.7 5.86.7 4.93.82 4.68.94 4.34.12.35 1.05 4.57 1.29 4.57 1.53 4.46 1.52 4.45 1.76 4.45 1.52 3.64.23.58.83 1.76.7 1.64.35.82 1.87 3.87 2.11 3.75.82 1.76 3.64 5.86.58.94 1.53 2.22 1.87 2.82.35.46.24.36.7.93 1.29 1.76 1.87 2.46 1.76 2.11 1.41 1.99 2.69 3.29.24.46 2.58 3.29 2.69 3.63 1.41 1.87 1.52 2.11-.7 2.58-3.87 11.25-6.21 18.29-1.41 5.39-2.34 5.04-1.76 2.81-2.22 3.05-2.46 2.69-1.65 1.76-1.4 1.29-1.76 1.17-1.64.94-1.41.58-6.21 1.65-7.61 1.52-9.26 1.76-19.34 2.93-5.51 1.52-12.89 2.81-4.45 1.18-5.04 2.22-3.28 1.88-2.23 1.87-3.16 2.35-17.7 17.34-1.52 1.76-8.67 9.61-15.24 16.76-5.5 5.98-2.82 2.93-13 13.94-5.16 6.21-3.75 4.34-4.57 4.57.7 1.17-11.48 13.48-13.24 15.82-6.1 7.27-8.79 10.31-3.75 4.22-3.86 3.87-4.11 3.75-2.22 1.87-9.73 8.09-2.81 2.34-1.29 1.18-1.76 1.4-2.34 1.88-.82.93-1.41 1.41-1.87 1.52-3.17 2.58-4.92 3.99-1.41 1.05-7.14 5.63-1.18.94-.46.35-.36.35-7.03 5.62-.82.71-11.6 9.14-8.2 6.68-.94.7-8.79 7.03-5.86 4.81-.58.35-2 1.64-.47.24-.35.7-.58.94-2.93 2.93-1.53 1.17-.93.47-1.29.7-1.17.47-2.82 2.23-3.86 3.16-1.64 1.76-.82 1.17-1.53 2.93-3.28 5.98-1.87.47-1.53 2.57-1.05 1.76-1.64 3.87-5.16 8.56-1.99 3.75-.47.23-6.45.82z" stroke-linejoin="round"/></defs><use xlink:href="#e" fill="#09757a" stroke="#097d9b" stroke-width="5.76"/><defs><path id="f" d="M1087.27 2084.82l-2.82-16.64-3.16-13.6-5.98-10.9-9.84-15.7-16.52-23.91-10.67-14.06-9.84-10.08-8.09-5.51-11.6-3.05-7.62-1.87-1.87-.47-63.87-7.15-51.44-18.87-12.54-6.56-7.62-4.46-4.22-3.86-20.04-10.32-6.33-4.1-6.91-4.34-28.13-13.94-5.5-4.34-7.5-9.61-8.56-14.3-.58-.93-10.32-20.63-2.46-5.74-2.34-7.5-1.88-6.57-1.29-8.67-.23-1.05-1.29-7.04-2.46-9.84-4.34-12.54-5.39-14.89-3.28-7.61-3.98-8.68-3.05-7.26-1.41-6.33-1.05-6.92-1.41-8.43-1.75-6.57-.94-4.92-.82-4.8v-2.93l-.35-2.82-1.88-9.37-1.05-2.11v-2.23l-.59-2.34-.47-1.29.24-1.53V1684l-.24-1.17-1.64-4.57-.94-3.75.12-2.58.12-1.52-.47-3.87.23-2.58-.11-1.99-.94-1.87-.7-2.47.11-1.99.94-4.69.82-2.46 1.41-2.22 2.58-2 1.28-.82.71-1.05.94-2.58.93-3.05 1.06-3.39 1.64-7.86 1.4-11.83.94-5.16 1.29-4.34 2.23-6.68 3.4-8.32 3.28-8.08.58-2.11.35-1.88-.82-3.98-.7-8.09-1.29-15.59-1.05-15.47-.47-14.18-.7-10.31-.12-1.29-.47-7.27-.82-10.19-2.81-13.01 24.49-5.39-.24-1.18-.58-.46-1.17-.59-.24-.47.12-.82.47-1.29.23-1.87-.23-1.41-.35-1.05-.35-1.53.23-3.75v-9.61l-.35-3.98-.7-2.82-.94-2.22-.35-2.82-.59-1.75-.35-1.06-1.64-2.81-1.88-3.87-.35-1.64-.58-1.64-2-3.52-1.05-2.46 8.32-2.11 4.22-.7 1.4.82 1.18.23h1.4l4.34-.46 6.21-.59 5.39-.7 12.07-1.53 1.41 11.25 14.18-1.75 1.05.23-5.51 11.84 7.5-1.06-.7 6.33-.35 3.99-.12 2.34v5.98l.24 6.09.23 2.58.12 1.76 1.05 8.44 1.29 9.61.35 2.22.35 2.23.12 1.29.12.94.23 1.52.24 1.17.35 2.23v.7l1.05 6.56 1.41 8.56 1.29.23.12.59h.46l6.45-.82.47-.23 1.99-3.75 5.16-8.56 1.64-3.87 1.05-1.76 1.53-2.57 1.87-.47 3.28-5.98 1.53-2.93.82-1.17 1.64-1.76 3.86-3.16 2.82-2.23 1.17-.47 1.29-.7.93-.47 1.53-1.17 2.93-2.93.58-.94.35-.7.47-.24 2-1.64.58-.35 5.86-4.81 8.79-7.03.94-.7 8.2-6.68 11.6-9.14.82-.71 7.03-5.62.36-.35.46-.35 1.18-.94 7.14-5.63 1.41-1.05 4.92-3.99 3.17-2.58 1.87-1.52 1.41-1.41.82-.93 2.34-1.88 1.76-1.4 1.29-1.18 2.81-2.34 9.73-8.09 2.22-1.87 4.11-3.75 3.86-3.87 3.75-4.22 8.79-10.31 6.1-7.27 13.24-15.82 11.48-13.48-.7-1.17 4.57-4.57 3.75-4.34 5.16-6.21 13-13.94 2.82-2.93 5.5-5.98 15.24-16.76 8.67-9.61-.7 2.46-.47 3.05-.12 4.22-.35 1.05-2.23 3.75-7.73 11.02-2.11 3.4-3.52 7.03-.7 1.87-.94 3.75-2.11 8.56-1.4 6.09-.59 2.46-.23 1.41-.35 2.23v2.46l.11 2.69.12 2.23.47 4.22 1.29 9.85 1.87 13.47v4.69l.12 14.65-.12 10.43v3.17h1.17l-.11 3.86-.12 3.4-.23 13.36-.12 7.39-.35 15.82.11 2.46.12 2.69.24 2.93.23 1.29.35 2.46.47 2.11.7 2.46.71 2.58.93 2.58.59 1.76.59 1.52 2.57 6.68 2.82 7.62.47 1.52.46 1.88.71 3.05.23 2.22.24 2.23.11 1.88.12 1.4-.12.94v1.99l-.23 1.88-.47 7.97-.7 8.32-.24 2.22-1.99 21.69-.23 2.93-2.23 26.95-1.05 9.26-.59 6.8-.12 1.05-4.45.59-4.34.58-2.22.24-.36 1.05-1.17 2.93-.35 1.06-.23.58-2 .35-3.28.59-7.03 2.11-1.76.7-.7.47-1.64 1.88-.7.7-1.29.35-1.17.59-5.98 3.75-6.91 4.92-4.11 1.88-2.81.7.35 3.63.12 1.17-.12 1.06-.35 1.05-.47.71-.47.58-.7.59-.7.47-.82.47-.82.35-2.11.82-4.34 1.52-3.04 1.06-1.88.7-1.29.47-5.74 2.11-1.06.47-1.17.47-2.58 1.05-.11-1.17-.24-2.35-1.52 1.18-.94.82-1.4 1.4-5.98 8.91-3.99 5.39-.93-.82-1.06-.12-1.4.36-1.06-.59-1.05-.12-2 .24-3.39.47-3.75.46-4.81.71-6.33.7-8.08 1.06-3.28.35.82 13.12 1.99 18.4.23 1.53.12.82.23 1.99.12.7v.47l.35 2.81.24 1.29.35 3.4.59 5.28.93 10.19 1.76 1.88-1.29 1.87 1.41.94 11.6 7.97 18.4 12.77 37.38 26.61 8.32 5.86 9.26 6.68 15.23 10.66 5.39 4.1 2.82 2.11 9.96 6.92 9.02 6.44-.47.47 3.4 4.46 9.26 7.26 6.33 5.04.11.12 8.56 6.8-3.99 2.57-1.05-.35-.12.35-.12.71.12.82 1.06 10.55-.94 2.46-2.23 10.66-1.76 8.67-1.4 6.92-1.99 7.73.58 2.58 10.9 8.91 9.02 7.85 4.11 3.64.58.7 2.58 3.75.59.7 2.34 1.29 6.68 5.27 13.36 11.49 6.33 4.57 5.15 2.46.47-.12 1.06-1.4.47-.47.82-.35 1.05-.12.59.24.7.7 1.41 2.58.82 1.05 1.99 1.41 1.87.35 2.35.59.82.58 2.46 1.76 4.33 3.87.59.93.7 1.53 1.64 3.75 1.76 4.22.94 1.05 1.05 1.06.94.58.7.12h1.06l4.33-.94h1.29l.94.35.7.36.59.46.7 1.18.12 1.52v.7l-.47 1.64.12 1.41.23.82.82 1.52.59.36.82.35 1.29.11 1.87-.23h.94l.7.12.71.35 4.1 3.98.82.59 1.99-.23 1.17-.12 1.18.35.58.35.7.59 1.29 1.76.24.46.12.36.46 2.57-.7 1.88-.47.82-.47.59-.7.35-6.68 2.93-8.55 3.28-6.92 2.46-1.29.23-1.52.12-.7-.35-.94-1.05-1.06-.59h-.82l-.93.35-.71.7-.58 1.41-1.06 4.81-.82 3.04-.47 1.06-.47.58-.46.35h-3.4l-1.99.36-1.53.7-1.29.82-.58.94-.59 1.29v1.52l.24 1.88.11.58 2.46 5.16-3.16 5.74 3.05 1.76 7.03 4.1-.47.94-7.03-4.1-.24.46-.23.71-1.06 3.51-.23.94-.23 1.06-.24.93-.12.94-.11.47-.35.47-.36.47-.47.58-1.17.82-.82.71-.7.23-.7.12-.71-.12-1.29-.58-1.17-.59-1.64-.7-8.2-3.87-.82-.24h-.59l-.7.24-.35.47-.24.58-.11.94 1.05 5.98.12 2.93.23 3.16-.11.94-.24.94-.47.82-.58.7-.59.47-1.41.47-1.75-2.58-1.06-1.17-1.05-.94-2.23-1.29-4.45-1.64-1.29-.23h-1.29l-.94.23-4.92 2.35-.94.58-.47.59-.58.82-.59 1.76-.12.82v.93l.36 1.06.82 1.4 3.86 4.22.94.94.59.7.82 2.11.11.82v1.06l-.11.59-.71.82-.7.46-3.28 1.53-9.84 25.08z" stroke-linejoin="round"/></defs><use xlink:href="#f" fill="#004249" stroke="#00465f" stroke-width="5.76"/></svg>