<svg width="384" height="5.24in" viewBox="0 0 2880 3770" xmlns="http://www.w3.org/2000/svg" xmlns:xlink="http://www.w3.org/1999/xlink"><path fill="#fff" d="M0 0h2880v3770H0z"/><defs><path id="a" d="M1964.53 3733.12l-1.65-11.31-3.65-48.42-7.54-1.06-3.53-.47-2.01-.82-.82-1.3-.24-1.53-1.06-7.3-.7-2.36-.83-1.65-1.41-.82-20.74-3.77-6.48-.83-8.24-.24-10.25 3.07-3.54 1.41-7.65 4.13-1.53.94-3.66.94-5.53.71-5.66.35-2.24-.59-6.12-.35-2.83.35-2.12 1.89-2.24.7-2.59-.35h-2.24l-1.18.12-.82.94-.47 3.06-.71 3.3-1.18 2.36-1.29 1.65-1.65.12-2.83.11-1.41.71-3.77 2.59-1.65.36-1.89-.48-4-3.41-1.3-.47-1.18.47-2 2 .35-8.48 1.54-11.19 2.35-27.81-.59-32.16v-15.2l-.12-8.6-.11-2.59-1.18-19.09-.12-2.12-.12-2-.11-3.18v-9.31l-20.97-.12-12.96-1.41-19.44-.35-37.82-.95-28.27-.35-10.37-.12-11.07-.35-2.36.12-.35 22.03-.12 1.06-.23 9.31-.83 10.36-1.06 10.49-.35 4.95-.94 12.13-.24 5.42v2.12h-4.95l-6.59.12-12.96.47-4.01-.12-4.83-.23-4-.12-2.36-.24-11.9-.47-1.18.36-2.59-.24-15.43-.82-13.67-.12-8.24-.12h-6.72l-2.12-.12h-30.75l-12.25.12-9.54-.12-9.78-.23h-9.19l-9.89-.24H1482l-9.66-.12-9.54-.11-6.37-.12-24.5-.12-12.37-.24h-2.36l-2.23-.11-2.95-.12-12.96-.47h-3.3l-1.17.35-.95.59-1.17.94-.48.71-.58 1.18-.24 1.41-.12 1.42-.12 26.74v8.25l-.23 29.68-.12 8.96-.24 16.61-.35 6.71-.23 2.6-.36 1.65-.35 1.29-.47.71-.36.47-.7.59-.71.59-.82.47-.95.35-1.29.36-1.65.11-2.12-.11-5.66-.24-7.77-1.06-24.39-.47h-.47l-58.78-.35-37.82-.24-47.83.35h-10.6l-24.51-.7h-22.5l-18.37-.83-5.07-.12-2-.11h-7.66l-1.06.23-1.06.12v-2.83l-.24-4.71-.7-11.07-.12-4.95-.59-13.55-.12-2.24-.11-15.32.11-6.48.36-24.85.35-20.27.24-13.66.47-29.22.11-6.6.12-5.65.36-16.97.11-4 .71-28.28v-4.36l.24-5.42.35-7.89.23-6.01.71-17.32.47-5.54.36-13.78.35-19.32.12-16.38-.12-4 .24-13.79.23-6.24v-.59l.24-4.48.11-3.88v-3.77l.24-20.03.12-15.08.12-5.42.11-12.37.36-15.67.35-20.85-.12-4.95v-3.42l-.12-5.42.24-12.96.12-3.3.12-4.47v-3.07l.11-4.83.24-16.37v-2l.35-13.2.24-14.02-.36-7.89v-5.89l.12-3.89.12-4.36.83-24.62v-12.49l-1.77-.24-1.53-1.06h-1.3l-1.41-.11h-4.24l-3.3.11h-2.12l1.76-5.06 1.3-6.36.71-10.02.11-4.59.48-3.54v-2.71l.47-2.35-.12-3.42-97.31-10.84-12.01-1.3-7.9-71.86 1.53-3.3.48-3.18v-22.62l.23-17.79 9.19.24h35.11l9.07-.48 4.71-.7 5.06-1.53 4.6-1.77 1.88 4.24 2.48 4.24 2.24 2.83 4.24 4.36 3.65 3.06 2.24 1.3 7.77 3.77 6.25 2.23 2.47.59 3.77.24 3.06-.12 1.53-.82.83-1.77v-2.12l-.94-12.37 8.01-.59 12.37-.59.94.47.59.36 7.3.11v-2.12l.24-5.06.12-7.19.11-14.73.24-10.6.24-12.02.11-5.42.12-2.59h1.77l1.41-.12 4.71-.23 1.65-.12h10.49l.35.12.35.12.95.7 4.94-.47 37.35.94 8.83.36 9.78.35 35.58 1.42 82.11 2.94 13.9.59 15.08.59 21.21.71 13.54.35 13.55.35 7.89.24 8.84.35 8.01.36 22.27.82 8.24.12 14.37.35 18.38.35 8.37.36 6.36.23 7.66.24 7.77.24 7.66.23 7.89.35 7.54.36 7.89.23 7.9.36 16.37.35 16.14.47 20.97.94 9.78.47 12.13.48 20.74.7 2.47.12 3.77.35 3.65.59 3.54.71 1.29-.47h.24l4 .12 5.3.23 2.71.36 1.77.11 2.83.12H1701l1.77.94h6.12l8.25.12 21.09.59 37.58 1.3h1.53l1.29.11 1.53.24 1.77.35 2.12.48 1.3.23 1.29.35 1.3.24 1.18.12 1.29.23 1.89.24 6.48.82 6.59.83 4.25.23 4.12.12 16.73.71 1.65.35.59.12 2.23.71 6.84 2 1.76.47 1.77.35.12-11.42 3.77.35 96.84 6.6 6.36.12 15.43.47 31.34.7 12.48-2.59 10.61 3.3 10.72.24 65.61.94h1.77l60.44 2.35 23.67.36 57.73 1.65 14.84.59h7.78l22.62-.47 11.07 2.12 7.54.23h3.06l8.13.47 69.04 2.48 50.65 1.53 5.42-.24h8.01l82.82 1.18 28.27.24.12 7.89v1.65l-1.41 81.29-.12 8.01.35 10.96.12 1.88.59 6.6.35 2.83.59 4.36 1.3 8.01.94 4.71 2.36 8.6 2.71 6.72 4.59 10.95 5.77 11.43 7.42 12.84 4.72 8.6.82.83.71.7 2.12 4.01 2.83 9.42 8.48 16.85.47.94 12.37 26.75 14.14 34.16 24.73 33.82 4.95 5.41 6.01 5.19 13.08 8.83-14.02 1.18-2 .24-10.37.23-6.95.95-5.19.59-5.65-.24-1.65-.24-14.61-2-21.08-1.53-.83-.12h-.94l-6.83-.12-1.54.12-6.83 1.06-5.18 1.42-9.66 4-11.55 4.6-5.53 2.23-6.95 3.3-2.01 1.18-2 1.65-3.3 3.18-1.53 1.65-2.12 2.71-4.01 5.42-4 4.6-.83 1.64-2.47 7.19-.59 1.77-1.77 4.95-2 6.36-.35 1.06-2.12 4.95-.59 1.41-1.18 2.59-1.06 2-1.77 2.95-1.06 1.65-1.06 2-1.76 2.59-1.77 2.95-.71 1.53-6.24 10.96-6.25 14.14-1.29 3.41-1.18 3.3-.35 1.06-.71 2.36-1.88 5.53-.83 4.01-.47 2.83-.35 3.41-.71 8.49-.12 5.53v1.06l-.94 16.03-.59 9.19-.82 5.18-1.54 4.71-4 16.26-3.3 11.78-4.83 12.61-4.48 9.78-6.48 12.84-6.48 15.9-5.65 8.13-4.83 5.54-5.65 5.3-4.6 4.01-2.83 2.59-1.76 1.18-3.3 1.65-6.36 1.29-4.48.83-4.24.23-3.65-.35-4.48-1.3-2.71-1.06-4.59-2.71-10.61-7.42-4.24-3.3-2.59-1.77-4.12-2.94-1.3-1.18-1.41-1.3-3.07-3.18-2-1.76-1.65-1.06-1.53-.71-1.29-.71-4.72-1.29-1.17-.24-1.42-.12h-1.88l-3.07.83-.82.35-2.47.94-1.89.95-2 1.17-4.6 3.07-10.13 6.59-8.01 4.83-16.61 8.61-8.48 5.65-14.49 10.13-20.5 13.2-11.54 7.66-4.25 3.18-11.89 9.66-123.82 45.83-7.77 2.82-26.16 9.78-67.38 22.03-5.66 1.89-4.47.7-4.24 1.42-8.72 2-6.24 2.83-7.19 4.12-2.24 2z" stroke-linejoin="round"/></defs><use xlink:href="#a" fill="#cee3e4" stroke="#cef5f5" stroke-width="5.76"/><defs><path id="b" d="M2568.87 2913.74l-.94 3.89-.82 1.76-1.77 4.95-1.77 12.84-2.12 17.09-28.27-.24-82.82-1.18h-8.01l-5.42.24-50.65-1.53-69.04-2.48-8.13-.47h-3.06l-7.54-.23-11.07-2.12-22.62.47h-7.78l-14.84-.59-57.73-1.65-23.67-.36-60.44-2.35h-1.77l-65.61-.94-10.72-.24-10.61-3.3-12.48 2.59-31.34-.7-15.43-.47-6.36-.12-96.84-6.6-3.77-.35-.12 11.42-1.77-.35-1.76-.47-6.84-2-2.23-.71-.59-.12-1.65-.35-16.73-.71-4.12-.12-4.25-.23-6.59-.83-6.48-.82-1.89-.24-1.29-.23-1.18-.12-1.3-.24-1.29-.35-1.3-.23-2.12-.48-1.77-.35-1.53-.24-1.29-.11h-1.53l-37.58-1.3-21.09-.59-8.25-.12h-6.12l-1.77-.94h-12.84l-2.83-.12-1.77-.11-2.71-.36-5.3-.23-4-.12h-.24l-1.29.47-3.54-.71-3.65-.59-3.77-.35-2.47-.12-20.74-.7-12.13-.48-9.78-.47-20.97-.94-16.14-.47-16.37-.35-7.9-.36-7.89-.23-7.54-.36-7.89-.35-7.66-.23-7.77-.24-7.66-.24-6.36-.23-8.37-.36-18.38-.35-14.37-.35-8.24-.12-22.27-.82-8.01-.36-8.84-.35-7.89-.24-13.55-.35-13.54-.35-21.21-.71-15.08-.59-13.9-.59-82.11-2.94-35.58-1.42-9.78-.35-8.83-.36-37.35-.94-4.94.47-.95-.7-.35-.12-.35-.12h-10.49l-1.65.12-4.71.23-1.41.12h-3.3l-3.18.24h-1.06l-.36.23-.11.12-1.42.71-3.77-.24h-1.17l-3.42-.23-42.41-1.65-19.91-.83-3.06-.11-19.68-.71-7.07-.24-22.5-.7-8.12-.12-30.75-.94-15.32-.36-47.71-.7-16.49.11-17.32-.11h-2.47l-2.71-.12-30.98-1.18-32.87-.83-6.13-.47h-16.37l-.59-.47h-2.48l-7.06-.47-18.15-1.77-2-.23-5.3-.71-5.66-.82-8.36-.95-6.13-.47-5.53-.35-.36.12-10.48-.83h-2.71l-28.04-1.53-11.9-.71-46.53-1.17-11.43-.71-19.43-.83-11.43-.47-24.98-.7-8.95-.24v-6.01l-3.18-.12-6.24-.35-17.09.94-26.74-1.65-7.89-.35.23-5.89v-8.01l.36-15.2 1.06-86v-17.91l.7-27.33 1.89-76.23v-.59l.12-1.76 1.65-75.17.82-36.4.59-24.98 1.53-38.4 5.54-1.18 13.66-2.59 10.49-1.65 4.12-.95 12.49-2.94 11.43-2 1.88-.12 4.6-.12 2.82-.12 2.6-.12 2.59.12h2l9.19-.12 27.56.48 6.13.11h3.06l3.66.12 3.65.24 2.94.23 4.24.47 13.55 2.01 24.62 3.41 5.19.83 4.47.59 3.66.47 5.18.7 2.71.24 3.53.12h2.12l2.71-.12 2.59-.12 2.6-.12 2.82-.23h.59l1.77-.24 2.94-.23 2.71-.12 2.95-.12h4l12.26.47 4.24.12 21.32.47 12.96.59 3.65.24 4.24.12 2.95.23 2.59-.12 6.95.24.82-.12 2.71.24 13.2.47 8.83.47 7.9.47 9.42.71 10.72.7 10.49.71 4.71.24 17.55 1.29 6.36.24 5.42.12 2.95-.24 1.53-.12 1.29-.23 2.12-.47 4.95-1.3 1.77-.59 6.01-2 8.01-3.07 6.48-2.23 4.71-1.3 2.36-.59 1.88-.23 1.89-.36 4.94-.35 2.48-.24h3.06l3.18-.11 1.65.11 1.65.12 3.42.12 4.71.59 16.96.35 39.47.35 39.11.36 10.37.12 2.94.11 1.77.12 1.88.12 1.65.23 1.77.24 1.88.35 1.42.36 1.41.35 1.18.35 1.65.36 4 1.29 4.48 1.77 3.06 1.3.83.35 3.77 1.88 4.71 2.83 1.89 1.18 3.88 2.47 5.89 3.89.36.24 7.42 5.42 5.3 3.65 4.01 2.71 2 1.41.35.12 2.12 1.3 2.36 1.18 1.77.7.94.36 2.59.82 2.47.47 1.42.24.23-7.19.12-3.77.24-4.01.23-5.18.59 2.59.35 1.42.24 1.41.24 1.41.23 1.18.24.36.23.47.24.23.59.12.82-.12 6.72-.23 1.53-.12h3.65l3.18.12h6.01l4-.24 2.12-.12 2.36-.35 1.89-.24 1.29-.35.94-.23.95-.36.94-.35 1.18-.47 1.65-.83 1.88-.94 2.12-1.18 4.6-2.59 4.12-2.59 4.36-2.95.23-.11 2.83-1.77 3.42-2.36 3.65-2.24 2.47-1.65 1.65-.82 1.77-.94 1.65-.71 1.88-.94 2.01-.83 1.41-.59 1.53-.47 1.77-.47 1.65-.35 1.76-.24 2.48-.35 2.47-.24 1.89-.11 9.3.58 1.65 1.54 6.37.23 21.55.12 36.88.23 14.6.24 24.98.12 21.68.23h10.24l7.9.12 4.36.12 4.36.23 2.12.12h2l5.06.24 7.43.23 2.82.12h5.66l1.41.12 2.83.12h8.72l4.83-.12 2.59-.24 2.12-.47 2.24-.7 3.89-1.06 4 .11 15.67.24 7.77.23 22.98.24 52.18.82 7.43.12 8.36.12h2.24l2 .12h1.77l2.35.35 4.36.47 4.24.59 1.42.24h1.41l1.3.12h1.41l1.53.11h5.42l6.83.12h1.18l16.61.35h5.42l9.19.24h2.47l3.07.12 22.26.35 21.44 1.18 3.54.24 2.59.11h2.36l5.41.12 1.89.12h1.3l4.35.23h6.01l10.72-.35h4.95l7.42-.12 7.54-.35h9.43l4.24.12 25.33.47 24.38 1.18 8.37.35 1.76.12 4.6.12 7.18.11 2.83-.11 4.01.11 1.41.12h2.47l4.6.47 4.47.47h2.36l35.7-.7h5.42l5.41-.12 3.18.23h3.42l4.12-.11h1.54l2.12-.24 4.83-.59 1.65-.23 2.59-.24 5.77.12h10.01l5.3-.12 7.54-.59 4.83-.12 11.31-.35 16.38.12 1.88-.12 1.77.12 4.36-.59h1.41l6.01-.82 4.36-.24h13.31l16.26-.24 3.06-.11 15.91.82 15.66.83 15.91 1.06 7.42.58 14.96 1.77 11.31.83 7.66.7 10.72 1.18 1.77.12 11.19.94h21.08l4.13.36h2l2.71.11 4.36.12h18.73l25.8-.47 16.85.47 15.31.24 5.18.23h7.54l10.25.24 7.31.12 6.12-.24 5.07.12h8.6l3.06.12 22.5.23 24.98.59 8.01-.12 3.06.12 8.13.12 1.41.12 1.53.23 2.01.12 3.18.12 4 .12 6.13-.36 2.94-.35 3.66-.36 4.47-.35 4.36.12 2.24-.35 4.12.11 4.24.24h1.54l1.06.12 2.59.11.94.12 2.36.24 2.23.12 2.95.35 4.12.82 4.01.83 2.94.47 2.01.35 2.35.12 3.06.35 6.48.48 2.01-.12 2.71-.12 2.12-.24 1.88-.23 6.48-.12 3.65.12h7.9l4.24.12 16.37.82 2.12-1.77 4.13.36 13.19 2.35 6.71.12h10.84l2.01.12h4.59l8.72.82 9.66 1.06 10.72 1.65 4.24.83 5.65 1.18 3.66.82 5.41 1.42 1.77.47 2 .59 3.42.94 5.54 1.65 2 .35 9.54 2.95 6.6 4.94 4.24 1.89 1.18.59 2.12.94 4.12 2 6.13 2.71 13.55 6.72 16.61 8.83 9.66 5.19 8.6 4.48 9.3.35 2.12.94 1.42.83-4.83 1.88 1.76.94 3.77 2.12 1.06.36 2.95 1.65 1.53.82 1.65.83.59.35.47.24-.35 2-.36 1.53 2.01-2.47-.24 1.29v1.42l.35 1.41.48 1.41 1.06 1.89 1.06 1.41 19.2 7.19 6.01 2.47 11.42 4.6 5.78 2.35 3.06 1.06 1.41.36 1.3.11 1.06-.23.94-.47 1.06-.71.83-1.06 1.29-1.77 1.53-2.35 4.6 3.89 7.66 6.47 6.48 6.37 11.78 10.6.82.82 8.72 7.9 2.12 1.88.47.36 1.77 1.65-1.53 2.47-2.24 3.77-2.95 4.59-8.95 12.73-4.48 6.24-1.41 2.24-.83 1.65-3.65 8.36-.94 1.77-1.06 1.53-1.65 2.01-10.96 12.01-11.31 11.2-15.31 18.37-12.13 12.61-4.48 3.89-1.18.94-5.54 2.47-10.83 3.77-1.3.59-1.41.71-1.42 1.06-1.06 1.06-1.29 1.89-9.43 12.96-24.85 29.33-13.32 19.79-7.54 8.49-16.61 19.43-33.1 41.59-14.84 18.62-6.01 7.18-8.72 12.49-1.41 2.36-3.07 5.77-4.36 8.72z" stroke-linejoin="round"/></defs><use xlink:href="#b" fill="#cee3e4" stroke="#cef5f5" stroke-width="5.76"/><defs><path id="c" d="M2826.28 2600.59l-5.54 7.43-.7 1.06-1.77-1.65-.47-.36-2.12-1.88-8.72-7.9-.82-.82-11.78-10.6-6.48-6.37-7.66-6.47-4.6-3.89-1.53 2.35-1.29 1.77-.83 1.06-1.06.71-.94.47-1.06.23-1.3-.11-1.41-.36-3.06-1.06-5.78-2.35-11.42-4.6-6.01-2.47-19.2-7.19-1.06-1.41-1.06-1.89-.48-1.41-.35-1.41v-1.42l.24-1.29-2.01 2.47.36-1.53.35-2-.47-.24-.59-.35-1.65-.83-1.53-.82-2.95-1.65-1.06-.36-3.77-2.12-1.76-.94 4.83-1.88-1.42-.83-2.12-.94-9.3-.35-8.6-4.48-9.66-5.19-16.61-8.83-13.55-6.72-6.13-2.71-4.12-2-2.12-.94-1.18-.59-4.24-1.89-6.6-4.94-9.54-2.95-2-.35-5.54-1.65-3.42-.94-2-.59-1.77-.47-5.41-1.42-3.66-.82-5.65-1.18-4.24-.83-10.72-1.65-9.66-1.06-8.72-.82h-4.59l-2.01-.12h-10.84l-6.71-.12-13.19-2.35-4.13-.36-2.12 1.77-16.37-.82-4.24-.12h-7.9l-3.65-.12-6.48.12-1.88.23-2.12.24-2.71.12-2.01.12-6.48-.48-3.06-.35-2.35-.12-2.01-.35-2.94-.47-4.01-.83-4.12-.82-2.95-.35-2.23-.12-2.36-.24-.94-.12-2.59-.11-1.06-.12h-1.54l-4.24-.24-4.12-.11-2.24.35-4.36-.12-4.47.35-3.66.36-2.94.35-6.13.36-4-.12-3.18-.12-2.01-.12-1.53-.23-1.41-.12-8.13-.12-3.06-.12-8.01.12-24.98-.59-22.5-.23-3.06-.12h-8.6l-5.07-.12-6.12.24-7.31-.12-10.25-.24h-7.54l-5.18-.23-15.31-.24-16.85-.47-25.8.47h-18.73l-4.36-.12-2.71-.11h-2l-4.13-.36h-21.08l-11.19-.94-1.77-.12-10.72-1.18-7.66-.7-11.31-.83-14.96-1.77-7.42-.58-15.91-1.06-15.66-.83-15.91-.82-3.06.11-16.26.24h-13.31l-4.36.24-6.01.82h-1.41l-4.36.59-1.77-.12-1.88.12-16.38-.12-11.31.35-4.83.12-7.54.59-5.3.12h-10.01l-5.77-.12-2.59.24-1.65.23-4.83.59-2.12.24h-1.54l-4.12.11h-3.42l-3.18-.23-5.41.12h-5.42l-35.7.7h-2.36l-4.47-.47-4.6-.47h-2.47l-1.41-.12-4.01-.11-2.83.11-7.18-.11-4.6-.12-1.76-.12-8.37-.35-24.38-1.18-25.33-.47-4.24-.12h-9.43l-7.54.35-7.42.12h-4.95l-10.72.35H1705l-4.35-.23h-1.3l-1.89-.12-5.41-.12h-2.36l-2.59-.11-3.54-.24-21.44-1.18-22.26-.35-3.07-.12h-2.47l-9.19-.24h-5.42l-16.61-.35h-1.18l-6.83-.12h-5.42l-1.53-.11h-1.41l-1.3-.12h-1.41l-1.42-.24-4.24-.59-4.36-.47-2.35-.35h-1.77l-2-.12h-2.24l-8.36-.12-7.43-.12-52.18-.82-22.98-.24-7.77-.23-15.67-.24-4-.11-3.89 1.06-2.24.7-2.12.47-2.59.24-4.83.12h-8.72l-2.83-.12-1.41-.12h-5.66l-2.82-.12-7.43-.23-5.06-.24h-2l-2.12-.12-4.36-.23-4.36-.12-7.9-.12h-10.24l-21.68-.23-24.98-.12-14.6-.24-36.88-.23-21.55-.12-6.37-.23-1.65-1.54-9.3-.58-1.89.11-2.47.24-2.48.35-1.76.24-1.65.35-1.77.47-1.53.47-1.41.59-2.01.83-1.88.94-1.65.71-1.77.94-1.65.82-2.47 1.65-3.65 2.24-3.42 2.36-2.83 1.77-.23.11-4.36 2.95-4.12 2.59-4.6 2.59-2.12 1.18-1.88.94-1.65.83-1.18.47-.94.35-.95.36-.94.23-1.29.35-1.89.24-2.36.35-2.12.12-4 .24h-6.01l-3.18-.12h-3.65l-1.53.12-6.72.23-.82.12-.59-.12-.24-.23-.23-.47-.24-.36-.23-1.18-.24-1.41-.24-1.41-.35-1.42-.59-2.59-.23 5.18-.24 4.01-.12 3.77-.23 7.19-1.42-.24-2.47-.47-2.59-.82-.94-.36-1.77-.7-2.36-1.18-2.12-1.3-.35-.12-2-1.41-4.01-2.71-5.3-3.65-7.42-5.42-.36-.24-5.89-3.89-3.88-2.47-1.89-1.18-4.71-2.83-3.77-1.88-.83-.35-3.06-1.3-4.48-1.77-4-1.29-1.65-.36-1.18-.35-1.41-.35-1.42-.36-1.88-.35-1.77-.24-1.65-.23-1.88-.12-1.77-.12-2.94-.11-10.37-.12-39.11-.36-39.47-.35-16.96-.35-4.71-.59-3.42-.12-1.65-.12-1.65-.11-3.18.11h-3.06l-2.48.24-4.94.35-1.89.36-1.88.23-2.36.59-4.71 1.3-6.48 2.23-8.01 3.07-6.01 2-1.77.59-4.95 1.3-2.12.47-1.29.23-1.53.12-2.95.24-5.42-.12-6.36-.24-17.55-1.29-4.71-.24-10.49-.71-10.72-.7-9.42-.71-7.9-.47-8.83-.47-13.2-.47-2.71-.24-.82.12-6.95-.24-2.59.12-2.95-.23-4.24-.12-3.65-.24-12.96-.59-21.32-.47-4.24-.12-12.26-.47h-4l-2.95.12-2.71.12-2.94.23-1.77.24h-.59l-2.82.23-2.6.12-2.59.12-2.71.12h-2.12l-3.53-.12-2.71-.24-5.18-.7-3.66-.47-4.47-.59-5.19-.83-24.62-3.41-13.55-2.01-4.24-.47-2.94-.23-3.65-.24-3.66-.12h-3.06l-6.13-.11-27.56-.48-9.19.12h-2l-2.59-.12-2.6.12-2.82.12-4.6.12-1.88.12-11.43 2-12.49 2.94-4.12.95-10.49 1.65-13.66 2.59-5.54 1.18-34.87 6.95-13.55 2.47-1.76.35-7.43.83-3.53.23-3.89.24-16.73.47-24.15.71-2.59.12-6.36.35-9.42.71-4.95.11h-4.95l-11.9.36h-8.13l-6.71.47-1.77.12-6.24-.24-6.01-.59-8.95-1.88-6.36-2.12-2.48-.83-4.48-1.65-4.24-1.53-6.83-2.83-13.08-5.06-5.41-1.89-5.31-1.88-9.66-3.77-5.65-2.12.12-8.02-.24-2.59-2.71-1.29-2.59-.95v4.72l-19.79-.83-1.3-.35-4.94-1.3-5.07-1.17-5.07-.83-5.18-.47-6.13-.24-9.3-.35-4.13-.12-5.18-.12-5.42-.23h-6.01l-4.35.12-4.36.35-2.24.24-2.83.47-3.18.59-3.77.82-2.47.59-1.89.59-1.65.59-4.71 1.53-1.88.71-2.48 1.06-1.88.82-2.6 1.18-2.7 1.3-2.01 1.06-2.35 1.41-2.12 1.3-5.42 3.53-5.42 4.12-2.24 1.89-1.89 1.65-2.82 2.82-1.18 1.07-1.65 1.76-1.77 1.77-3.41 4.24-2.01 2.48-1.41 2.12-2 2.71-1.65 2.47-1.77 3.18-2 3.53-1.42 2.6-1.41 2.94-2.12 4.48-1.06 2.35-1.18 3.07-1.53 4.12-.82 2.59-1.3 4.24-1.18 5.07-.7 3.42-.59 3.06-1.42 8.84-.35 1.53-1.65-.47-.82-.83-6.25-.23-6.36-.36h-.59l-2.94-.23.35-17.09.35-16.49v-6.71l.12-31.23.12-3.88v-30.4l.12-5.77.11-3.18v-2.12l.12-4.24 1.42-.59 1.76-.71 8.6-3.06 6.95-2.48 3.89-1.29 8.36-2.24 5.07-1.3 3.77-.82 3.89-.83 4.47-.7 4.13-.71 3.65-.47 4-.59 3.19-.35 5.3-.36 4.71-.35 4.95-.24 6.36.12 4.95.12 3.88.35 3.07.24 2.59.23 2.59.24 1.53.23 4.24.59 3.3.47 3.42.59 2.71.59 2.35.47 2.24.48 2.71.7 2.83.71 2.71.71 2.35.59 3.42.94 5.07 1.53 11.89 3.3 5.07 1.53 4.95 1.3 19.55 5.41 3.42 1.07 1.88.35 5.19 1.29 3.77.83 3.18.82 1.88.48 25.8 7.18 9.9 2.59 7.66 1.42 2.94.35 12.02 1.3 18.73.59 24.97.23 26.63.36 2.35.11h2.83l2.83.24h5.65l4.6.12 1.18.11h1.17l24.15-.23 15.79.23 6.95.12 4.95.24 5.65.12 24.27.35h6.48l10.72.23.35-8.95v-3.3l2.83-1.06 2.95-.82 1.76-.47.95-.12 1.29-.24 1.42-.23 1.53-.12 2.59-.12h2.59l2.36.24 1.65.11 1.76.36 2.12-.59 2.24.94 2.83 1.3 3.06 1.53 3.65 1.65 2.83 1.18 2.95.82 3.65 1.06 3.18.59 3.3.59 1.53.12 1.88.11 1.77.12 2.12.12 2.95.24 5.65.23h5.54l2.12-.12 1.88-.11 4.13-.48 3.65-.47 2.24-.11 2.12-.24 2.35-.12 3.54-.12h6.24l46.77-.58 4.6-.24 1.88-.12 1.77-.23 2.12-.47 2.12-.48 2.12-.7 3.18-1.06 3.3-1.18 1.88-.59 2.12-.71 2.01-.47 1.65-.35 1.41-.36 1.18-.11.94-.12 1.3-.12 1.53-.12h5.89l.23-9.42.24-2.36.35-3.18.36-1.41 1.76-6.95.59-3.3.24-3.18.12-1.77.47-21.21.11-13.19.12-21.91.36-12.96.11-22.51v-10.83l-7.18-.59 3.41-118.88 6.95-109.56 1.65 1.53 1.06.59 1.65 1.06 1.77.59.35-5.42 2.6-35.35.58-5.89 1.54-2.59 1.17.12 6.95-.24h4.83l10.61.12h27.21l7.07.12 13.9-.35 7.54.11 26.39-.35h11.9l8.95.24h1.65l1.53.11 5.65.12H829l10.37-.12 6.12.24 12.96.12 4.95.12h5.77l14.85.35h4l10.72.23h8.37l8.95.12 14.37.12 6.01.24 18.85.58 2.59.12 4.48.12 8.6.12 5.65.12h10.13l22.86.23 8.12.24 11.08.12 6.6.11 6.24.12 11.43.12h5.42l5.3.23h.82l2.36.12 5.89-.12 20.61.12 6.84.24 4 .12 4.13.11 3.06.12h2.35l6.6.12 7.07.12 7.07.23 3.41.12h4.13l1.29.12 20.15.35 1.41-.12h1.65l8.6.24 9.07.12 1.53.11 1.06.12 1.3.24 1.3.23 1.06.24.23.12 1.42.47 1.53.59 2.12 1.06.94.7.94.59.83.71.94.71.94.94 1.06 1.18 1.06 1.18 3.77 4.36 1.06 1.29 2.24 2.36 2.47 2.35 2.71 2.36 2.01 1.53 1.88 1.06 2.24 1.06 1.18.47h.23l1.77.59 1.65.47 3.18.71 3.18.35 3.3.12 4.01-.12 2-.11 2.35-.24 2.95-.35 1.06-.36 1.77-.47 3.65-1.18 1.65-.7 3.41-1.3 3.19-.94 3.06-.59 2.94-.35h1.06l3.66-.12h2.82l2.36-.12 1.53-.12h.59l1.41-.11 1.65-.36 3.89-.71.47-.11 2.48-.47 1.88-.12 2.12-.12 2.71-.12 6.13.12h10.01l11.54.12 12.49.12 4.36.11 1.06.12 1.3.24 1.29.35.83.24 1.06.47 1.06.59.47.35 1.06.82 1.53 1.18.94 1.06 6.36 7.31 1.77 2 1.53 2 .83.95 1.65 1.76.59.36 1.06.94 1.76 1.18 1.77.82.71.35 1.65.48 1.53.23 1.77.12h.47l1.17.12 1.77-.12 2.48-.24 8.36-1.17 22.74-3.42 4.36-.59 8.36-1.18 4.48-.47 4.59-.35 3.53-.12 4.01-.24h6.72l1.88-.11 1.18-.12 1.53-.36 1.77-.35 1.88-.59 1.53-.47 1.53-.71 1.42-.7 11.66-6.25 3.77-1.88.59-.24 1.53-.7 1.77-.83 2.24-.94 2-.83 2.94-.94 2.24-.71 2.71-.7 2-.47 3.66-.71 2.59-.47 4.59-.71 3.77-.35 3.77-.12 6.01-.12 3.3.12 8.01.24 2.24.23 2.24.12 2.94.47 2.12.35 3.18.83 1.42.35 5.53 1.65 3.77 1.18 6.84 2.24 4.12 1.18 2 .47 1.18.12 1.65.11 1.88.12 1.3-.12h.47l33.81-3.18 11.9-1.06 1.18-.12 1.06-.11 2.59-.59 1.89-.47.58-.12 1.65-.59 2.95-1.06 1.77-.94 2.23-1.18 1.65-.94 1.18-.71 1.3-.94.94-.71 1.53-1.3 1.77-1.53 2.24-2.35 1.41-1.42.82-1.06 1.07-1.29 3.65-4.36 4-4.83 8.01-9.9 11.55-13.9 2.12-2.12 1.88-1.65 2.01-1.3 2.12-1.29 2.12-.95 2.24-.7 2.35-.59 2.59-.24h4.6l2.47.12h9.07l2.48.12h2.71l5.89.12 1.29.11h1.18l1.53.24 1.3.35 1.41.36 1.65.47 1.3.59 1.17.59 1.18.7 1.53.83 1.54 1.06 1.41.94 1.53 1.3 1.06.94.83.82 1.53 1.77 1.41-1.06 1.65-1.18 8.6-6.12 1.77-1.3 12.25-8.6 2-1.18 5.89-4.24 1.89-1.3 4.94-3.88 10.25-8.84 4.6-4.01 4.95-4.47 5.3-4.95 1.53-1.3 1.65-1.41 1.77-1.41 1.64-1.3 1.54-1.06 1.41-.94 2.47-1.3 1.54-.82 1.76-.83 1.65-.71 2.24-.82 1.41-.47 4.83-1.41 2.83-.71-.23-2.12-.36-3.89v-3.89l.24-3.77.23-3.77.59-3.77.12-.82.59-2.83 1.06-3.89 1.29-3.89 1.77-4 2-4.24.95-1.89 1.41-2.47.83-1.53.47-.83 1.65-2.47 1.53-2.24 1.88-2.36 1.3-1.65 1.53-1.76 1.53-1.53 2.12-2.01 1.89-1.76 1.76-1.42 1.65-1.29 3.54-2.48 2.35-1.41 2.48-1.65 8.13-4.83 4.71-2.71 2.35-1.42 2.71-1.64 1.65-1.18 2.71-1.65 2.59-1.65 7.9-4.71 5.18-3.3 2.71-1.77 4.24-2.71 3.18-2 2.83-2.24h.12l5.18-4.36 2.71-2.47 2.71-2.6.94-.82 4.6-4.24 3.77-3.42.94 1.3 16.61-14.49 2.71-2.83.94 1.41 6.36-5.77 6.13-5.07 5.65-4.24 4.01 7.07 1.53 2.71.35.71.59 1.41.95 2.36.11.59.24 1.18.12 2 .11 1.29v11.08l.24 3.18.24 2.24.58 2.24 1.06 2.94 1.18 2.83.83 1.65.47.71 1.88 3.18 4.83 6.83 1.06 1.53 1.65 2.24 1.18 1.65 6.6 9.89 1.77 2.71 2 3.07 1.53 2 1.53 1.89 1.18 1.53 1.88 2 1.18 1.3 3.42 3.41 3.06 2.83 2.24 2.36 1.18 1.29 1.53 1.77 2.24 2.83 2.94 4.24 3.3 4.83.35.47.83 1.3 6.36 10.25 1.53 2.59.47.82.47 1.18.48.82.59 1.07.58 1.06.83 1.29 1.18 1.65 1.76 2.59 1.18 1.65 1.77 2.36 2.59 3.65 3.18 4.36 1.65 2.59 1.65 2.12 1.77 2.59 2.94 4.01.71 1.06 2.24 3.06.82 1.06 2.95 3.89.82.94.71 1.06.82.95.83.94 1.53 2 2.47 2.83.83 1.18 2.71 3.06 12.01 13.43 7.66 7.89 2.24 2.24 6.71 6.25 1.3 1.06 2.12 1.88 1.53 1.3 4.95 3.77 6.48 4.12 1.88 1.18-2.35 3.89-1.06 1.65 2.12 1.53 1.18-1.89 2.35-3.65 6.84 4.48 10.01 7.66 2.59 1.53 40.41 29.92 4.12 2.83 8.84 5.65 5.77 4.01 2.71 2.12 2.83 2.36 15.66 13.43 5.31 4.59 4.71 3.77 4.47 3.54 3.3 2.47 4.95 3.54 2.47 1.53 3.54 2.12 8.83 4.59 2.6 1.65 3.18 2.48 1.88 1.53 4.95 3.88 4.12 3.19 3.77 3.18 2.95 2.12 2.12 1.53 1.77 1.29 1.76 1.42 1.65 1.06 2.48 1.77 2.59 1.76 2.12 1.53 2.47 1.77 16.26 14.85 16.49 11.66 7.07 4.24 8.72 5.66 7.07 3.06 4.35 3.06 11.43-1.65 5.54 3.07 2.12 1.65 4.95 11.66 1.65 2.83 1.41.94-.24-4.95.12-4.95.36-9.07.58-89.3.48-25.8.11-4.24 3.77.7 4.83.83 1.54.23h3.18l1.76-.11 2.48-.48 2.24-.47 1.41-.59 1.06-.47 1.18-.7 2.71-1.65 1.53-1.06 3.41-2.24 1.89-1.65.59-.83.47-.7.47-1.53.24-1.42.47-4.83.35-4.71.83-8.25.7-4.12.47-2.36.71-1.76.71-1.18.47-1.06.71-.71.7-.59 2.12-1.41 1.06-.71 1.3-.47.94-.24 1.65-.47 1.53-.12h1.65l1.53.36 1.18.23 1.41.59.95.47 1.06.83.7.59.71.82 1.3 1.77 1.53 3.06 1.06 2.71.82 3.65 1.89 13.44 2.24 13.19.59 2.24 1.88 5.42.83 2.12.58 1.18.83 1.17 1.77 2.13 2.71 2 3.06 1.88 4 1.89 1.54.47.82.12h.71l2.12-.12 2.24-.35 1.41-.59 1.06-.36 1.3-.7 1.17-.59 2.95-1.65 2.47-1.42 9.19-6.12 2.24-1.3 2.83-1.53 2.82-1.18 1.89-.47 2.59-.59 1.65-.35h2l1.77.23.71.12.94.47 4.12 2.6 2.83 2 1.18.94 1.41 1.41 1.18 1.42.94.94.71 1.06.47.71.35 1.06.71 2.83 1.41 8.01.48 1.29.58 2.01 1.54 3.88.47 1.54.47.94.59 1.06.59.94 1.06 1.53.7.94 1.89 1.89 1.29 1.3.95.82 1.88.94 2.24 1.18 1.53.83.35-.59.59-1.18h1.42l1.06.47.59.47.35.24 2.36 2 1.65 1.06 1.88.47h1.41l1.18-.12 2-.23 4.01-.71 7.78-2.47 4.35-1.89 2.36-.71 1.65-.47 1.53-.11 1.41.11 1.07.24.47.23 1.06.59 1.06 1.18.7.94.59.95.47.94.36 1.3.35 1.41v1.65l-.12.94-.11 1.06-1.07 10.84.12 1.41.47 1.06.59 1.42 1.06 1.76.83 1.18 1.06.95 3.3 3.53 2 1.53 3.53 2.24 1.65.94 10.37 4.01 2.12.71 2.24-.12 1.77-.12 1.64-.24 1.42-.35 2.94-.71 1.65-.82 1.42-1.06 1.17-1.53 1.42-1.77 1.29-2.24 2.36-4 3.3-8.72.94-2.12 1.42-2.12.94-1.65.94-.71.82-.71 2.6-1.29 3.41-.83 1.18-.12 1.89-.11 1.17.11h1.77l1.77.24 1.29.47.83.24 2.35.82 3.42 1.89 4.83 4 3.18 3.77 1.42 1.77 1.17 1.3 1.3 2 1.06 2.35.59 1.3.82 2.24.36 1.18.59 2.35.35 3.07.59 5.53-.12 1.06-.71 1.54-12.6 15.55-1.65 2.82-.47 1.06-.36 1.3-.11.94.35 1.18 1.18 3.06 1.88 2.36.71.83.59.47 2.12 1.29 1.06.24 1.77 1.06 1.53.59 1.65.35 6.24.83 4.01-.12 14.02-2.71 2-.71 3.89-1.29 4.47-1.89 8.6-4.59.83-.48 1.06-.35 1.29.12 1.06.23 3.3.71 3.3.94 2.71.95 1.65.82 1.77 1.41 5.53 6.72 1.89 2.95 1.29 2.35.71 1.53 1.06 2.36.24 1.18.47 1.29.12 1.06.11 1.18-.23 2-.36 2.01-2.82 10.13-.24 3.65.12 3.54.12 1.65.7 3.53.47 1.88 1.3 3.19 2 2.71 7.54 3.41 1.06 1.89 1.89 3.06.71 2.71 4 3.3 1.65 1.18 1.53 1.06 2.83 1.76 3.06 1.18 3.42 1.06 2 .24h2.95l2.71-.36 3.53-.7 1.41-.71 1.53-1.06 3.19-2.94 7.53-7.54 6.48-5.42 2.48-1.65 2.12-.47 1.29-.12h.83l.82.12 1.65.23 1.89.47 1.41.83.59.47 1.53 1.41 1.42 2 1.06 1.65.7 1.42.71 1.88.35 1.65.24 1.65.12 3.77-.83 5.89-1.29 7.07-1.54 4.71-1.29 3.66-6.83 14.13-5.89 10.49-.48 1.06-.11.82.11 2.01.59 3.06 1.65 6.24.36 2.83.47 6.6-2.59 35.11-.12 8.48-.24 25.68.47 10.02v2.47l-.35 4.01-.35 5.18.11 2.36v1.41l.95 6.36 1.06 5.42.11 1.06.48 8.37.11 9.3-.23 6.48-.12 2.24-1.88 13.9-2.6 16.14-.47 2.83v2.12l.12 4.01.71 3.77 1.06 4 4 10.37.83 2.24.35 1.53.71 2.95.35 2 .12 2.12-.35 3.77-.12 1.77-1.77 7.06-1.06 3.66-.59 2.82-.47 4.36-.12 4.13-.23 8.01.11 14.14-.11 3.18-.36 2.35-.35 2.6-.12 1.06-.59 2.82-.23 1.18-1.3 4.01-1.65 3.88-.82 2.01-2.83 5.06z" stroke-linejoin="round"/></defs><use xlink:href="#c" fill="#9dc8ca" stroke="#9dd7f0" stroke-width="5.76"/><defs><path id="d" d="M684.57 2072.56l-1.77-.59-1.65-1.06-1.06-.59-1.65-1.53 5.78-42.06-.36-.94.83-2.6-.24-.82-.12-1.65 7.19-57.96 2.36-3.54 7.06-20.62 6.72-13.78 63.38-99.08 9.54-18.03.83-1.41 1.41-3.3 36.4-64.09 5.89-8.6 46.77-68.45 12.14-17.67 16.02-23.56 23.2-39.12 110.04-162.69 9.77-11.67 1.53-1.76 24.27-28.63 1.77 2.35.71.83 2.94-2.48 2.59-2 2.12-1.65 2.01-1.41 1.88-1.18 2.48-1.77 1.76-1.06 2.01-1.18 1.06-.7 1.64-.95 3.19-1.64 2.47-1.18 4.12-1.77 1.89-.71 1.88-.7 2.83-1.06 3.3-1.18 2.94-.94 3.42-.95 5.3-1.18 3.77-.7 2.83-.47 2.24-.36h1.06l1.06-.23 3.41-.24h16.14l24.86.47h18.85l4.59.24 44.65.82 18.5.24 4.36.12 6.12.11h7.31l6.24-.11h7.42l3.3.23 2.59.36 2.24.7 2.24.83 2.12 1.18 2 1.29 2 1.53 2.12 1.77 2.13-2.94 10.95-14.73 8.95-9.9 1.54-1.65 3.53-3.65 1.41-1.41 3.89-4.13 5.89-6.24 5.77-5.54 10.61-11.19 5.77-6.6 2-2.35 1.77-1.65 1.88-2.48 1.65-2.12 3.3-4.47 7.89-9.67 7.19-8.24 4.24-4.24 4.12-3.66 4.36-4 4.83-3.77 3.54-2.59 4.24-2.71 2.71-1.3 2.12-1.06 2.94-1.41 2.83-1.3 3.42-1.41 2.47-.83 4.13-1.53 2.59-.82 1.65-.71 2.23-.94 1.42-.71 2.24-.94 2-1.18.94-.47.94-.71 2.01-1.29 1.41-.95 3.89-2.94.59-.59 2.12-1.77 1.76-1.41 2.6-2.01 2.82 2.01 3.66 2.47 3.77 2.59 1.29.83.94.71 3.42 2.23 4.36 3.3 1.88 1.53 1.54 1.3 2.23 1.77 2.71 2.24.24.11 5.42 3.89 2.12 1.53 3.3 2.59 8.48 5.9 24.03 17.79 3.3 2.23 5.54 4.13 6.95 4.94 1.76 1.18.95.59 1.06.59 1.18.83.94.58 2.47 1.42 2.83 1.65 2 1.06 2.59 1.41 2.59 1.3 2.36 1.18.83.47 11.31 6.36 4.83 2.71 2.94 3.18 1.41 1.65.83.94 1.29 2 .48.83.47.94.82 2.12.83 2.71.94 3.89.71 2.95.82 4 1.06 4.36 1.06 3.53 1.06 2.95 1.06 2.47 1.41 2.48 1.65 2.47 1.06 1.3.83 1.18 2.12 2.47 6.36 6.01 2.36 1.53 2.35 1.77 4.83 3.3 2.59 1.29 1.77.83 1.06.35.94.35 1.65.47 1.54.36 1.29.12 1.65.23 1.41.12h1.65l1.54-.12 1.88-.12 4.24-.7 3.65-.71 2.83-.59 6.48-1.06 2.47-.59 2.01-.23 1.06-.12 1.17-.12h3.3l1.42.12 2 .47 1.53.47 1.18.35 3.42 1.77 6.12 2.71 4.83 3.77 2.95 2.36 3.3 2.47 3.76 2.83 4.36 3.42 5.3 3.65 23.8 17.43 7.07 5.31 2.12 1.76 2.47 1.89 14.38 10.48 3.18 2.36 4.83 3.65 21.08 15.08 12.49 9.19 9.31 7.66 2.83 2.47 2.82 2.59 2.83 2.83 5.18 5.54.71.94 3.3 4.12 4.36 5.66.71 1.06 2 2.95 1.53 2.12 8.72 13.54 1.29 1.89 2.95 4.95 5.89 9.19 2.24 3.53 5.42 8.72 2.71 4.24.35.47 2.24 3.89 1.88 3.3.94 1.65.95 2.24 1.18 2.35.94 2.36 1.06 2.12.94 3.06 1.06 2.83 7.3 18.03 2.83 6.83 1.89 4.95 2 5.18 1.3 3.42.94 2.59.82 2.83.36 2 .35 2 .12 1.65v15.55l.11 21.44v35.7l.12 2.36.12 2.59.24 2.24.59 5.06.35 3.07 1.65 9.89.94 4.36 1.18 6.01 1.29 5.19.71 3.53.83 2.71.7 2.83 1.3 4.47 10.37 29.57.7 2.24.47 1.53.36 1.54.23.82.36 1.53.11 1.65.12 1.42v1.29l-.23 3.06-.36 3.66-.7 4.24-.48 3.77-.11 2v2.12l.35 2.12.47 2 .83 1.89.23.59.59.94.94 1.41.47.83.48.59 4.24 5.77-3.77 3.42-4.6 4.24-.94.82-2.71 2.6-2.71 2.47-5.18 4.36h-.12l-2.83 2.24-3.18 2-4.24 2.71-2.71 1.77-5.18 3.3-7.9 4.71-2.59 1.65-2.71 1.65-1.65 1.18-2.71 1.64-2.35 1.42-4.71 2.71-8.13 4.83-2.48 1.65-2.35 1.41-3.54 2.48-1.65 1.29-1.76 1.42-1.89 1.76-2.12 2.01-1.53 1.53-1.53 1.76-1.3 1.65-1.88 2.36-1.53 2.24-1.65 2.47-.47.83-.83 1.53-1.41 2.47-.95 1.89-2 4.24-1.77 4-1.29 3.89-1.06 3.89-.59 2.83-.12.82-.59 3.77-.23 3.77-.24 3.77v3.89l.36 3.89.23 2.12-2.83.71-4.83 1.41-1.41.47-2.24.82-1.65.71-1.76.83-1.54.82-2.47 1.3-1.41.94-1.54 1.06-1.64 1.3-1.77 1.41-1.65 1.41-1.53 1.3-5.3 4.95-4.95 4.47-4.6 4.01-10.25 8.84-4.94 3.88-1.89 1.3-5.89 4.24-2 1.18-12.25 8.6-1.77 1.3-8.6 6.12-1.65 1.18-1.41 1.06-1.53-1.77-.83-.82-1.06-.94-1.53-1.3-1.41-.94-1.54-1.06-1.53-.83-1.18-.7-1.17-.59-1.3-.59-1.65-.47-1.41-.36-1.3-.35-1.53-.24h-1.18l-1.29-.11-5.89-.12h-2.71l-2.48-.12h-9.07l-2.47-.12h-4.6l-2.59.24-2.35.59-2.24.7-2.12.95-2.12 1.29-2.01 1.3-1.88 1.65-2.12 2.12-11.55 13.9-8.01 9.9-4 4.83-3.65 4.36-1.07 1.29-.82 1.06-1.41 1.42-2.24 2.35-1.77 1.53-1.53 1.3-.94.71-1.3.94-1.18.71-1.65.94-2.23 1.18-1.77.94-2.95 1.06-1.65.59-.58.12-1.89.47-2.59.59-1.06.11-1.18.12-11.9 1.06-33.81 3.18h-.47l-1.3.12-1.88-.12-1.65-.11-1.18-.12-2-.47-4.12-1.18-6.84-2.24-3.77-1.18-5.53-1.65-1.42-.35-3.18-.83-2.12-.35-2.94-.47-2.24-.12-2.24-.23-8.01-.24-3.3-.12-6.01.12-3.77.12-3.77.35-4.59.71-2.59.47-3.66.71-2 .47-2.71.7-2.24.71-2.94.94-2 .83-2.24.94-1.77.83-1.53.7-.59.24-3.77 1.88-11.66 6.25-1.42.7-1.53.71-1.53.47-1.88.59-1.77.35-1.53.36-1.18.12-1.88.11h-6.72l-4.01.24-3.53.12-4.59.35-4.48.47-8.36 1.18-4.36.59-22.74 3.42-8.36 1.17-2.48.24-1.77.12-1.17-.12h-.47l-1.77-.12-1.53-.23-1.65-.48-.71-.35-1.77-.82-1.76-1.18-1.06-.94-.59-.36-1.65-1.76-.83-.95-1.53-2-1.77-2-6.36-7.31-.94-1.06-1.53-1.18-1.06-.82-.47-.35-1.06-.59-1.06-.47-.83-.24-1.29-.35-1.3-.24-1.06-.12-4.36-.11-12.49-.12-11.54-.12h-10.01l-6.13-.12-2.71.12-2.12.12-1.88.12-2.48.47-.47.11-3.89.71-1.65.36-1.41.11h-.59l-1.53.12-2.36.12h-2.82l-3.66.12h-1.06l-2.94.35-3.06.59-3.19.94-3.41 1.3-1.65.7-3.65 1.18-1.77.47-1.06.36-2.95.35-2.35.24-2 .11-4.01.12-3.3-.12-3.18-.35-3.18-.71-1.65-.47-1.77-.59h-.23l-1.18-.47-2.24-1.06-1.88-1.06-2.01-1.53-2.71-2.36-2.47-2.35-2.24-2.36-1.06-1.29-3.77-4.36-1.06-1.18-1.06-1.18-.94-.94-.94-.71-.83-.71-.94-.59-.94-.7-2.12-1.06-1.53-.59-1.42-.47-.23-.12-1.06-.24-1.3-.23-1.3-.24-1.06-.12-1.53-.11-9.07-.12-8.6-.24h-1.65l-1.41.12-20.15-.35-1.29-.12H1138l-3.41-.12-7.07-.23-7.07-.12-6.6-.12h-2.35l-3.06-.12-4.13-.11-4-.12-6.84-.24-20.61-.12-5.89.12-2.36-.12h-.82l-5.3-.23h-5.42l-11.43-.12-6.24-.12-6.6-.11-11.08-.12-8.12-.24-22.86-.23h-10.13l-5.65-.12-8.6-.12-4.48-.12-2.59-.12-18.85-.58-6.01-.24-14.37-.12-8.95-.12h-8.37l-10.72-.23h-4l-14.85-.35h-5.77l-4.95-.12-12.96-.12-6.12-.24-10.37.12h-4.01l-5.65-.12-1.53-.11h-1.65l-8.95-.24h-11.9l-26.39.35-7.54-.11-13.9.35-7.07-.12H713.2l-10.61-.12h-4.83l-6.95.24-1.17-.12-1.54 2.59-.58 5.89-2.6 35.35-.35 5.42z" stroke-linejoin="round"/></defs><use xlink:href="#d" fill="#6bacaf" stroke="#6bb4d2" stroke-width="5.76"/><defs><path id="e" d="M1328.26 1344.36l-10.95 14.73-2.13 2.94-2.12-1.77-2-1.53-2-1.29-2.12-1.18-2.24-.83-2.24-.7-2.59-.36-3.3-.23h-7.42l-6.24.11h-7.31l-6.12-.11-4.36-.12-18.5-.24-44.65-.82-4.59-.24h-12.02l.59-9.19 1.53-26.74.36-8.84.23-6.71.59-40.65-5.89-6.59.24-76.94v-3.53l.11-5.42-.7-5.89-2.95-23.56-3.18-17.32-1.65-2-1.88-2.36-9.07-11.43-10.37-19.67-1.77-3.54-26.62 15.08-13.08 7.54-4.12-.47-9.43-1.18-.35-2.59-.59-6.01-.12-.7-2.47-21.44-2.59-22.74-28.63-30.87-.71.12-.47.47-.47 1.18-.35.47-.35.23-.71.12h-.59l-1.3-.59-2-1.65-1.3-.94-.7-1.18-.59-.82-.83-.94-.23-.48-.59-.11-.82-.12-.71.35-.47.71-.36.47-.59.47-.82.12h-.94l-1.65.24-4.12.23h-.83l-.59-.35-.59-.36-.7-.47h-.71l-.59.24-1.06.82-.71.36-.94.23-5.89-1.18-.94-.35-.71-.94-.24-.71-1.17-3.77-.47-.82-.59-.71-.59-1.3-.83-.23-.7-.24-.83-.35-1.06-1.18-2.47-3.89-1.53-1.18-.59-.47-.71-.23-.71.23-.82.47-1.06.83-.83.35-.94.36-1.41-.12-.83-.35-.35-.48-.12-.7-.47-1.06-.35-1.18-.83-1.42-.47-.7-.59-.59-1.53-1.18-3.18-1.88-2-1.06-1.53-.36-1.06-.47-1.3-.23-1.53-.48-1.42-1.29-2.23-1.89-2.01-.94-22.73-10.72-1.18-.59-1.18-.23h-.94l-1.06.47-1.06.82-.83.24h-.94l-.82-.24-.48-.59-1.76-2.47-1.89-2.12-1.53-1.65-3.77-2.83-2.71-1.53-2.24-.47-1.65-.12-2.94-.94-3.42-1.77-4.12-2.71-4.59-3.42-5.89-4.36-3.3-2.35-11.43-5.42-5.66-3.06-3.06-2.36-1.88-.71-.83-.35-1.06-.35-.94-.12-1.06.35-1.18.12-1.77.12-1.88.23-2.36-.23-2.12-1.65-2.47-3.54-1.18-1.41-1.3-.83-1.17-.58-1.53-.83-.71-1.18-.47-.94-.71-.71-.59-1.06-.82-.35H870l-.95.59-1.41.71-1.06.7-1.41.24-1.42-.36-1.41-.47-1.3-.82-1.17-.83-1.07-1.41-.47-1.3-.11-.94-.12-1.77-.59-1.06-.94-.7-.95-.12-.59 1.88-1.88 2.13-1.18.11-.94-.23-1.41-1.18-.24-1.41-.12-1.3.83-1.65-.12-1.06-.71-.82-.82-.36-1.77-.35-.94-.94-.59-1.18-1.06-1.42-1.65.24-.94.82-.83.48-1.18 1.41-1.17 2-1.18 1.89-1.18.59-.71-.47-.35-1.18.35-2.48-.7-.7-.71-.48-1.18-.23-1.06.71-1.18 1.29-1.53.83-1.18.7-.94.36h-1.06l-.94-.47-.24-.95.36-1.65.11-1.65v-1.53l-.82-.59-.71-.23-.7.71-1.06.94-1.65.23-1.42-.23-1.53-1.53-1.88.47-1.77.23-1.06-.35-1.18-.24-.71-.7-.58-1.06.35-1.18.59-.83.35-1.29.24-1.3-.24-2-1.18-2.47-1.17-1.42-1.42-1.18-1.41-.7-1.65.23-1.89-.94-1.76-.82-1.06.35-1.3.82-.82 1.42-1.18.7-1.3.12-1.06-.47-.94-.82-1.06-1.18-.94-1.65-.24-2.24-8.01-9.07 12.02-12.84 6.24-6.48 4.24-4.6 2.24-2.71.71-1.65.47-1.88.23-2.48v-.82l-.11-2.12-.48-1.89-.82-1.41-.94-1.53-20.97-23.8-14.61-16.61-8.25-9.54-8.71-9.66-8.96-10.37-2.35-3.07-2.36-4.24-1.89-4-1.17-3.42-.95-3.77-.82-4-.35-3.3-.24-4.01-.35-5.06-1.06-6.13-.71-4.01-2.12-5.06-1.18-2.71-1.65-3.18-1.88-3.18-1.89-2.95-1.88-2.59-2.36-2.71-2.94-3.3-3.66-4.01-4.12-4.12-4-4.48-1.77-.58-3.3-4.36.94-1.18.59-1.06 1.65-1.06 3.06-5.66 2.24-3.77 3.54-6.59 3.06-5.54 2.12-4.24 2.71 1.65 1.06.7-.24-6.48v-.7l-.23-1.3-.83-2.24.12-1.18-1.29-.47-2.01-2.59-15.19-39v-1.06l.23-.94 4.83-42.29 5.66-48.89 3.88-32.87.24-2.36 7.89-15.08.24-.71-.36-1.41-7.77-124.06v-.82l-1.77-26.98v-1.06l-.12-1.18-.23-2.71-.12-2.59.12-41.94-12.37-.95-1.53-1.17-6.36-.24-8.37-.24-5.77-.94-5.54-1.65-4.59-1.76-5.3-3.07-4.83-3.3-3.42-2.82-3.42-2.83-3.18-2.36-4.47-2.71-5.42-4.83-7.07-5.18-12.49-6.6-24.85-12.02-24.15-12.37-14.14-5.53.35-12.73h4.83l8.25-.11h16.37l27.1 1.06 22.85.82h6.13l14.96.47 10.13.71 6.6.35 2.83.12 5.89-.59 8.95.12 11.43.82 11.19.59 18.14.83.71.35.82.83 21.56 21.08 36.52 1.89-2.59-15.43 2 1.53 3.65 2.94 1.3 1.06 3.77 3.42 8.01 7.07 6.71 6.6 9.31 9.77 1.89 1.89.47.59 1.29 1.18 1.53 2.12.48.59 8.83 10.83 2.83 3.66 1.53 2.12 3.18 4.12 3.06 4.12 3.42 4.83 6.24 9.08 2.01 3.18 3.06 4.71 8.6 13.31 3.3 4.95 1.76 3.3 3.07 4.95 2.94 4.71 2.83 4.36 6.6 10.6 2.24 3.42 2.71 4.24 2.47 4.01 2.83 4.35 2.94 4.72 1.42 2.35 2.7 4.24 2.48 3.77 3.42 5.54 3.65 6.13.59.94.82 1.3.83 1.17 1.17 1.89 2.12 3.18 6.72 10.6 4.71 7.31 5.3 8.48 5.3 8.37 3.77 6.12 3.66 5.66 3.06 5.06 5.65 8.84.71 1.06 5.18 8.25 2.12 3.41 2.01 2.95 3.41 5.53.83 1.18 4.83 7.78 5.89 9.31 3.41 5.41 3.89 6.01 1.77 2.83.94 1.53 2.83 4.36 2.12 3.42 2.12 3.06 2.36 3.3 3.06 4.12 4.36 5.78 4.59 5.89 2.48 3.18 3.06 3.65 3.42 3.89 2.82 3.06 3.54 3.89 4.94 4.83 3.77 3.53 5.19 4.95 4.36 2.95 10.6 7.3 2 1.3 2.83 1.88 1.88 1.06 2.24 1.18 2.24 1.18 2.59 1.29 2.24.95 2.24.94 2.12.82 2.83 1.06 2.35.71 2.6.83 2.82.94 1.53.47 1.18.35 1.65.59 2.59.71 2.83.94 2.83.94 2.35.95 2.48.82 3.77 1.53 3.18 1.42 3.06 1.29 3.42 1.42 1.53.7 1.18.47 2.35.95 2.36.82 3.3 1.42 2.59.94 3.42 1.41 2 .71.94.35 6.36 2.59 2.12.95 1.77.59-.12-8.49.24-13.78v-4.95l20.14.12 14.73.47 13.19.35 2.59.12 45.6.35 17.9-.11 18.26.82 21.44-.82 1.65-.24 1.65-.12 1.65-.11h1.41l1.77.11 12.37.59 6.6.24 6.83.35 5.66.12 29.68 1.18 22.97 1.06h1.06l46.54 2 12.72.24h.71l8.6.35 5.65.24 15.08.7 6.72.36h1.65l5.89.23 10.48.35 4.48.24 19.44.71 12.25.47 10.48.47 6.13.24 9.3.23 2.36-40.06 4.83-128.41 2-4.12-.82-1.18-1.41-14.85-.48-24.62h-4l-1.3.35-53.36 4.01-.59-10.96 4.59-4.47 2.59-2.36 1.89-.59 1.88-.12 2.71.59 3.18 1.18 3.66 2.36 1.64.47 2.24-.36 1.42-.82 1.29-.94 1.18-1.06.71-.95.35-1.06.24-1.29.23-2.48.12-2.47v-5.66l.12-3.41.47-3.18.59-3.18 1.06-5.07 2.59-9.07-7.78-8.96-1.88-2.47-2-3.3-1.77-4.24-1.3-4.36-.94-4.83-.23-4.36.35-3.3.71-3.06.82-2.83.94-2.94 1.3-3.3 1.65-3.06 5.77-10.84 2.71-5.07 1.18-2.12.47-.94v-1.3l-.12-1.06-.82-1.41-4.13-2.83-4.83-4.01-2.12-1.64-2.23-1.54-4.95-3.29-1.42-1.07-.7-1.29-.47-1.53-.24-1.89-.59-6.83-.12-2 .24-2.83.47-3.77-.24-1.06.24-1.3-.47-2.35 8.13-7.54 6.12-10.37 1.89-2.59.82-2.48.36-2.82-.47-4.48-4.72-43.83 1.18-4.71 3.54-3.18 15.78-6.48 10.72-5.18 2.48-1.77 5.89.12 5.77-2.48 10.13-4.24 1.3-.35 1.41-.59.82-.59 1.18-1.06 1.53-1.06 1.54-.94 1.53-.36h1.41l1.77.47 1.41.24 1.3.12h1.76l1.89-.24 1.18-1.18v-1.29l-.47-1.65-.59-2.24v-2.24l.82-1.41 1.06-.71 1.06.24.94.47 1.77 1.18 1.65 1.41.94.23h.95l1.06-.23.82-.47.71-.59.35-.83.24-1.17-.12-1.18-.83-2.12-.7-.95-.95-.58-2.23-.83-2.36-1.18-1.06-.59-.82-1.06-.48-1.76v-1.77l.95-1.3 1.76-.94h1.3l1.53.35 1.77.95 2.24 1.53 2.12.94 2.23.59 1.89-.35 1.88-.59.83-1.18.35-2.12.59-1.65 1.3-.83 1.29-.35 5.54.59.94-.12.71-.47.47-.59.24-1.06 1.41-3.65.35-.71.71-.59.94-.11 1.18.11.94.24 2.24-.12 3.18-.23 3.77-1.06 2.71 4.24 1.42 4.12 1.06 4.36 1.88 1.18 2.59-.24 5.07-2 1.88-.94 1.77-1.3 2-2.12 2.59-1.65 3.77-1.77 5.07-1.41 1.06-.35.47-.59.83-1.06.35-.71 1.41-3.53 1.06-3.77.83-2.24.47-.83.82-.94 1.3-.47 1.3-.24 1.88.36 2.47 1.06.95.23 4.47 1.42 2.6.47 2.7.23 3.77-.59 4.01-.94 2.83-.12h1.18v-1.41l-.36-7.19 3.42-.82 17.9-.12h7.31l28.63.71L1875 85.3l11.78.7 6.71.24 6.01.47 13.55.47h1.18l51.6 1.3 6.95 11.78-5.07 6.01 4.95 2.82 4.83 4.01 4.95 4.59 5.06 6.84 3.89 7.66 2.71 4.94.82 6.95.24 7.07-.12 2.95-1.18.47-.82 1.3.47 3.77.47 5.06 1.89 2.95.82 1.76 15.2 31.22-1.53 44.3-.36 9.31-.59 9.78 4.25 21.79-1.89 13.2 2.24 1.88 2.12 1.65 1.41.83 1.3.47 3.65.71 4.83.82 3.77 1.41 1.53.71 1.06.94 1.3 1.06.94 1.3 2 4.95 1.3 2.12 1.65 1.65 1.77.7h2l1.88-.58 1.53-.59 1.77-1.3 1.3-.35 1.29.11 3.3.71 3.07.12 1.76-.12 1.18.36.94.58.59.95.12 1.41-.35 1.3-1.18 1.17-1.06 1.42-.71 1.29.24 1.54.94.82 1.53.35h1.41l1.54-.47 1.29-.94.94-1.77.71-2.24.47-5.06.71-3.65.23-1.54.48-1.29.7-1.53.95-.95.94-.23.94.23.94.71.59 1.06.12 1.65-.47 1.3-.47.82-.59.94-.47 1.18-.12 1.42-.12 1.17.12 1.18.59.95.7.35 1.77.23 2.36.36 3.06 1.29 1.65.71 1.53.83 1.65 1.76 1.77 1.89 3.77 5.18 2 2.71 1.41 1.18 1.3.59 1.18.47 1.53.23 1.41-.23 1.42-.47.82-1.18.47-1.53.36-2.71.59-.94.7-.71.94-.35 1.3.11 3.18.47.71 7.78.23 4.59v4.01l-.23 7.3-.12 6.25 8.36 9.9-9.54 18.61-4.36 8.01 1.77 4.48 6.95 18.73 9.19 13.55 18.97 6.71.7 21.8 9.07 28.39-.47 6.84-.23 15.43-11.9 18.97-21.79 12.96-1.3-.59-.35 4.24.47 7.54.7 9.19 12.84 6.83-.7 4.71-9.9 14.73-15.9-2.12.82 2.94-.7 6.37-1.3 6-2.36 5.66-3.65 7.07-12.49 18.26-1.64 6.71-.71 4.6.94 9.66.83 9.9-9.43 5.89-4.48 19.79-1.29 3.77-6.36 9.54-1.89 6.72 1.53 12.37 8.84 22.62 2.83 7.07-1.42 23.09-.47 13.55 10.6 4.47-2.47 7.66-4.12 4.48-10.02 10.95.24 5.78-3.77 3.53-5.66 4.71-13.43 11.67-2.35 2.12-3.06 2.71-3.66 3.65-1.76 1.53-2.36 2.24-3.53 2.71-2.6 2.24-7.18 6.71-3.89 3.07-3.3 2.71-3.65 2.71-.94.58-2.83 1.77-3.42 2-2.23 1.18-2.24.83-2.83.94-1.88.47-2.36.59-1.41.35-1.42.36-1.41.12-2 .11-2.36.12h-3.89l-6.48-.71-1.53-.23-2.71-.36-15.43-1.76-3.3-.36h-1.3l-1.17-.23-4.13-.47-3.06-.12-8.36-.83-6.01-.58h-1.89l-1.65-.12-2.35.23-2 .12-1.42.12-1.41.12-1.3.23-1.06.24-1.18.35-3.41 1.18-5.66 2.24-3.65 1.77-20.62 10.36-11.19 5.54-12.72 6.6-5.65 3.18-8.84 5.42-8.72 5.77-4.83 3.42-4.59 3.06-4.13 2.59-1.17.83-1.42.94-4.12 2.83-1.65 1.17-8.36 6.13-3.77 2.95-1.89 1.41-3.65 2.95-4.95 4.12-12.37 10.37-12.37 10.36-16.73 13.91-3.88 3.29-9.78 8.25-4.36 3.77-3.53 3.06-7.07 5.78-12.61 11.07-5.65 4.71-.59.48-6.36 5.89-16.73 14.72-5.89 5.54-3.42 3.18-10.13 8.6-9.42 7.66-13.79 11.19-6.59 5.66-18.38 15.31-4.95 3.77-2.36 1.77-4.12 3.18-8.36 6.6-4.24 3.18-3.77 3.06-13.43 11.43-5.89 4.95-1.42 1.06-.94.94-1.18 1.06-2.36 1.89-5.06 4.24-13.19 11.42-10.02 8.84-8.13 7.07-4.83 4.24-4.59 3.65-6.48 5.19-4.36 3.53-.71.71-3.77 3.06-.47.47-4.36 3.42-7.65 6.12-2.6 2.01-1.76 1.41-2.12 1.77-.59.59-3.89 2.94-1.41.95-2.01 1.29-.94.71-.94.47-2 1.18-2.24.94-1.42.71-2.23.94-1.65.71-2.59.82-4.13 1.53-2.47.83-3.42 1.41-2.83 1.3-2.94 1.41-2.12 1.06-2.71 1.3-4.24 2.71-3.54 2.59-4.83 3.77-4.36 4-4.12 3.66-4.24 4.24-7.19 8.24-7.89 9.67-3.3 4.47-1.65 2.12-1.88 2.48-1.77 1.65-2 2.35-5.77 6.6-10.61 11.19-5.77 5.54-5.89 6.24-3.89 4.13-1.41 1.41-3.53 3.65-1.54 1.65-8.95 9.9z" stroke-linejoin="round"/></defs><use xlink:href="#e" fill="#09757a" stroke="#097d9b" stroke-width="5.76"/><defs><path id="f" d="M2405.24 2191.31l-.12 4.95.24 4.95-1.41-.94-1.65-2.83-4.95-11.66-2.12-1.65-5.54-3.07-11.43 1.65-4.35-3.06-7.07-3.06-8.72-5.66-7.07-4.24-16.49-11.66-16.26-14.85-2.47-1.77-2.12-1.53-2.59-1.76-2.48-1.77-1.65-1.06-1.76-1.42-1.77-1.29-2.12-1.53-2.95-2.12-3.77-3.18-4.12-3.19-4.95-3.88-1.88-1.53-3.18-2.48-2.6-1.65-8.83-4.59-3.54-2.12-2.47-1.53-4.95-3.54-3.3-2.47-4.47-3.54-4.71-3.77-5.31-4.59-15.66-13.43-2.83-2.36-2.71-2.12-5.77-4.01-8.84-5.65-4.12-2.83-40.41-29.92-2.59-1.53-10.01-7.66-6.84-4.48-2.35 3.65-1.18 1.89-2.12-1.53 1.06-1.65 2.35-3.89-1.88-1.18-6.48-4.12-4.95-3.77-1.53-1.3-2.12-1.88-1.3-1.06-6.71-6.25-2.24-2.24-7.66-7.89-12.01-13.43-2.71-3.06-.83-1.18-2.47-2.83-1.53-2-.83-.94-.82-.95-.71-1.06-.82-.94-2.95-3.89-.82-1.06-2.24-3.06-.71-1.06-2.94-4.01-1.77-2.59-1.65-2.12-1.65-2.59-3.18-4.36-2.59-3.65-1.77-2.36-1.18-1.65-1.76-2.59-1.18-1.65-.83-1.29-.58-1.06-.59-1.07-.48-.82-.47-1.18-.47-.82-1.53-2.59-6.36-10.25-.83-1.3-.35-.47-3.3-4.83-2.94-4.24-2.24-2.83-1.53-1.77-1.18-1.29-2.24-2.36-3.06-2.83-3.42-3.41-1.18-1.3-1.88-2-1.18-1.53-1.53-1.89-1.53-2-2-3.07-1.77-2.71-6.6-9.89-1.18-1.65-1.65-2.24-1.06-1.53-4.83-6.83-1.88-3.18-.47-.71-.83-1.65-1.18-2.83-1.06-2.94-.58-2.24-.24-2.24-.24-3.18v-11.08l-.11-1.29-.12-2-.24-1.18-.11-.59-.95-2.36-.59-1.41-.35-.71-1.53-2.71-4.01-7.07-5.65 4.24-6.13 5.07-6.36 5.77-.94-1.41-2.71 2.83-16.61 14.49-.94-1.3-4.24-5.77-.48-.59-.47-.83-.94-1.41-.59-.94-.23-.59-.83-1.89-.47-2-.35-2.12v-2.12l.11-2 .48-3.77.7-4.24.36-3.66.23-3.06v-1.29l-.12-1.42-.11-1.65-.36-1.53-.23-.82-.36-1.54-.47-1.53-.7-2.24-10.37-29.57-1.3-4.47-.7-2.83-.83-2.71-.71-3.53-1.29-5.19-1.18-6.01-.94-4.36-1.65-9.89-.35-3.07-.59-5.06-.24-2.24-.12-2.59-.12-2.36v-35.7l-.11-21.44v-15.55l-.12-1.65-.35-2-.36-2-.82-2.83-.94-2.59-1.3-3.42-2-5.18-1.89-4.95-2.83-6.83-7.3-18.03-1.06-2.83-.94-3.06-1.06-2.12-.94-2.36-1.18-2.35-.95-2.24-.94-1.65-1.88-3.3-2.24-3.89-.35-.47-2.71-4.24-5.42-8.72-2.24-3.53-5.89-9.19-2.95-4.95-1.29-1.89-8.72-13.54-1.53-2.12-2-2.95-.71-1.06-4.36-5.66-3.3-4.12-.71-.94-5.18-5.54-2.83-2.83-2.82-2.59-2.83-2.47-9.31-7.66-12.49-9.19-21.08-15.08-4.83-3.65-3.18-2.36-14.38-10.48-2.47-1.89-2.12-1.76-7.07-5.31-23.8-17.43-5.3-3.65-4.36-3.42-3.76-2.83-3.3-2.47-2.95-2.36-4.83-3.77-6.12-2.71-3.42-1.77-1.18-.35-1.53-.47-2-.47-1.42-.12h-3.3l-1.17.12-1.06.12-2.01.23-2.47.59-6.48 1.06-2.83.59-3.65.71-4.24.7-1.88.12-1.54.12h-1.65l-1.41-.12-1.65-.23-1.29-.12-1.54-.36-1.65-.47-.94-.35-1.06-.35-1.77-.83-2.59-1.29-4.83-3.3-2.35-1.77-2.36-1.53-6.36-6.01-2.12-2.47-.83-1.18-1.06-1.3-1.65-2.47-1.41-2.48-1.06-2.47-1.06-2.95-1.06-3.53-1.06-4.36-.82-4-.71-2.95-.94-3.89-.83-2.71-.82-2.12-.47-.94-.48-.83-1.29-2-.83-.94-1.41-1.65-2.94-3.18-4.83-2.71-11.31-6.36-.83-.47-2.36-1.18-2.59-1.3-2.59-1.41-2-1.06-2.83-1.65-2.47-1.42-.94-.58-1.18-.83-1.06-.59-.95-.59-1.76-1.18-6.95-4.94-5.54-4.13-3.3-2.23-24.03-17.79-8.48-5.9-3.3-2.59-2.12-1.53-5.42-3.89-.24-.11-2.71-2.24-2.23-1.77-1.54-1.3-1.88-1.53-4.36-3.3-3.42-2.23-.94-.71-1.29-.83-3.77-2.59-3.66-2.47-2.82-2.01 7.65-6.12 4.36-3.42.47-.47 3.77-3.06.71-.71 4.36-3.53 6.48-5.19 4.59-3.65 4.83-4.24 8.13-7.07 10.02-8.84 13.19-11.42 5.06-4.24 2.36-1.89 1.18-1.06.94-.94 1.42-1.06 5.89-4.95 13.43-11.43 3.77-3.06 4.24-3.18 8.36-6.6 4.12-3.18 2.36-1.77 4.95-3.77 18.38-15.31 6.59-5.66 13.79-11.19 9.42-7.66 10.13-8.6 3.42-3.18 5.89-5.54 16.73-14.72 6.36-5.89.59-.48 5.65-4.71 12.61-11.07 7.07-5.78 3.53-3.06 4.36-3.77 9.78-8.25 3.88-3.29 16.73-13.91 12.37-10.36 12.37-10.37 4.95-4.12 3.65-2.95 1.89-1.41 3.77-2.95 8.36-6.13 1.65-1.17 4.12-2.83 1.42-.94 1.17-.83 4.13-2.59 4.59-3.06 4.83-3.42 8.72-5.77 8.84-5.42 5.65-3.18 12.72-6.6 11.19-5.54 20.62-10.36 3.65-1.77 5.66-2.24 3.41-1.18 1.18-.35 1.06-.24 1.3-.23 1.41-.12 1.42-.12 2-.12 2.35-.23 1.65.12h1.89l6.01.58 8.36.83 3.06.12 4.13.47 1.17.23h1.3l3.3.36 15.43 1.76 2.71.36 1.53.23 6.48.71h3.89l2.36-.12 2-.11 1.41-.12 1.42-.36 1.41-.35 2.36-.59 1.88-.47 2.83-.94 2.24-.83 2.23-1.18 3.42-2 2.83-1.77.94-.58 3.65-2.71 3.3-2.71 3.89-3.07 7.18-6.71 2.6-2.24 3.53-2.71 2.36-2.24 1.76-1.53 3.66-3.65 3.06-2.71 2.35-2.12 13.43-11.67.83 1.42.82 1.53 1.77 2.12 2.59 2.94 2.01 2.01 2.47 2 3.18 2 4.01 2.24 3.06 1.65 2.83 1.42 2.71 1.06 1.17.47 2.24.7 3.3.95 3.89.7 7.66 1.06 3.41.47 5.77.59 2.36.24 15.43 1.88 3.07.95 2.71.94 7.3 3.65 3.77 2.71 4.95 3.65 7.07 7.19 1.88 2.83 2 3.41 3.54 6.84 1.06 2.24 1.65 3.65 1.53 4.36 1.18 4 .94 3.07 1.06 3.65 1.06 4.59.47 2.24.83 4.6h-.24l-.12.47-1.41 4.59v2.12l-.47 2.12-1.53 6.84-1.06 3.29-1.3 2.83-.94 1.77-1.42 1.88-1.65 2.12-1.88 2.36-.83 1.3-.58 1.29-.48 2.01v2.23l.24 1.65.35 1.06 1.06 2.6 1.06 2.47 2.36 3.77 1.41 2.12 1.18 1.77 1.65 2.12 2.83 3.18.82.94 1.53 2 3.66 5.66 2.23 3.18.95 1.18.94 1.06.82.59 1.3.35 1.65.35 1.18.48.94.47 1.65 1.41 3.89 5.3 1.53 2.48 1.29 2.82.59 2.01v.82l-.47.59-.59.12-.94-.24-1.18-.82-1.77-.83-.58-.35-.59.12-.12.82 1.65 2.59 1.53 2.48 1.06 1.41 2 3.3 4.6 6.13 5.06 5.65 2.95 3.07 1.41 1.17 8.37 7.19 13.19 11.19 5.18 4.24 2.6 2.12.58.71.36 1.06.12.71.11.47-.11 1.06-.36 1.53-.35.83-2.24 3.77-5.65 9.54-1.77 3.06-.83 1.77-.58 2-.36 2.12-.12 2.01.24 4.83.12 2.59.47 5.77.35 2.47.47 2.12.59 1.77.36.94.82 2.83.12 1.06-.12.83-.59.7-.82.36-1.18.12 12.01 9.3 5.89 5.54 11.55 8.25 5.65 1.41 8.25-.24 14.37-7.3 6.84-7.54 6.36-2.71 6.36 2.59 6.71 4.95 1.89 8.6-2.24 12.37-3.77 9.43 4.36 11.42-13.9.12-6.13 1.42-4.24.58h-6.95l-13.9-1.29-20.73-1.77-6.37-.12-5.3.59-4.71 1.3-3.77 2-3.06 3.42-1.89 3.41-1.65 3.89-2.12 6.36-1.53 6.48-.82 2.01-1.3.82h-1.53v3.42l-.24 5.54v2.59l.24 3.18.35 3.41.83 3.19.71 2.23.94 2.71 1.06 2.36.94 1.77 2.36 3.77 4.24 6.48 3.06 4.36 3.18 5.53 1.89 4.13 1.53 4.36.59 3.53.82 5.18.24 2.24.23 2.71v1.77l-.12 1.65-.35 2.94-1.65 7.19-1.18 3.77-.82 2.12-1.3 2.71-1.88 2.71-1.42 2-1.17 1.42-2.36 2-2.71 1.65-2.36.82-1.53.47-2.12.59-2.47.24-3.89-.12h-13.55l-5.3.12-1.88.12-2.83.47-2.24.35-1.88.36-2.36.82-2.36 1.3-1.53 1.17-1.53 1.3-1.18 1.41-1.17 2.36-.36.83-.82 2.12-.36 1.65-.47 2.12v3.41l.47 3.54 1.06 4.71 3.07 11.31.82 2.71 3.3 8.48 1.77 3.77 1.53 2.95 2.59 5.06.94 2.12.24.47.35 1.3.36 1.18.35 2.47v.59l.23 3.54-.23 3.06-.24 2.71-.7 2.59-.59 1.65v.12l-.94 2-2.36 3.77-2 2.59-1.53 1.65-4.25 3.77-4.71 4.6-6.24 5.77-3.42 4.24-1.65 2.47-1.88 2.95-3.54 9.19-.82 3.06-.83 5.89.36 4.13.35 3.88 1.41 5.89 1.54 4.6 1.53 4.24 2.94 5.18 2.01 3.77 1.29 2.48 1.3-.94 4-2.83 1.42-.59 1.17-.12.83.24 5.42.7 5.18.12 2.83-.47 2.71-.59 2.71-1.06 2.12-.82 8.6-3.54 2.12-.7.94-.12h1.41l2.24.47 1.77.47 1.06.59 1.18.59 1.29.82.71.71 1.3 1.18 2.12 2.71 1.76 2.94.95 2.01.7 2.71.36 2.82.12 1.18.11 1.3-.11 2.12v.7l-.36 2.01-1.06 3.89-.94 2.35-1.18 3.3-1.29 2.47-3.3 5.07-2.95 3.65-1.77 1.65-1.53.83-2 .47-.94.12-.71 2.59-1.65 2.24-.82 2.47-1.42 3.42-1.88 3.41-3.18 7.9-1.06 11.31.47 13.66 2 13.32.24 3.29-.12 3.19-.24 3.41v3.89l-.11 4.83-1.42 12.37-1.18 17.44-.82 4-.59 2.59-.94 3.19-1.42 3.41-1.17 3.3-2.24 5.18-1.42 3.3-1.65 2.59-2 2.83-3.53 4.83-5.66 7.54-2.82 3.77-1.3 2.01-.71 1.41-1.06 2.59-2.12 6.01-1.29 3.42-1.06 4-1.18 5.42-1.3 7.19-1.29 8.24-.24 2.48-.12 2.47.24 4.36.47 3.18.24 2.24.47 1.65.47 2.24.82 2 1.3 3.3 1.53 2.95 1.53 2.59 1.77 2.35 1.41 1.3 2.01 1.41 2.82 1.77 2.48 1.41 1.06.71 1.88.71 2.83 1.53 1.29.71 6.37 3.77 3.53 2.71 3.53 2.12.83.47 4.95 2.94 2.35 1.06 6.01 2.36 2 .82 5.19 1.54 4.71.59 2.94.23 1.89.24 1.65-.12h.23l.83-.12 1.18-.12 1.65-.59 1.53-.7 1.41-1.06 2.59-2.48 2.24-2.94 8.95-12.84 3.66-4.72 3.65-3.88 2.36-2.13 1.29-1.29 1.18-.47 2.83-1.06.94-.36 2-.7 3.42-.71 1.18.24.82.11 2 .36 2.71.82 1.42.59 1.88 1.18 1.53 1.18 1.06 1.29 1.18 1.77.94 1.89.95 2.7.7 1.77 1.18 3.3 1.18 4.24.71 3.42.23 2.36.12 1.06v1.53l-.24 2.12-.23 3.06-.59 2.83-.35 1.53-.95 2.12 6.95 8.72-.47 6.6-9.78 2.12-10.95-3.66-8.48 4.83-4.95 2.83-5.66 3.3-4.94 3.3-5.66 4.12-6.48 5.3-3.3 4.01-6.36 4.95-2-.12-8.48 4.12-8.72 7.78-2.24 1.41 2.24 1.89 3.89 5.89 14.25 23.09 2.71 2.36 3.06 6.36 4.36 9.66 9.31 20.73 1.3 2.83.82 2.24.82 2.24.83 2.35.47 1.77.24 1.42.23 1.65.24 1.76.12 1.65v1.42l.11 2.47-.11 2.71-.12 2v1.89l-.24 2-.12 1.06-.11.71-.24 1.88-.47 2.12-.59 2.01-.71 2-.94 2.24-.82 2-1.06 2.12-1.06 2-1.42 2.12-1.53 2.12-1.41 1.77-1.77 2.12-1.53 1.65-1.65 1.53-1.89 1.53-2 1.42-2.47 1.53-2.36 1.41-2.35 1.18 3.77 5.89 3.88 5.42 1.77 2.59 1.53-2.12 2.24-2.24 2.12-2.47 2.24-1.65 2.47-1.3 1.89-.35 1.88-.35 1.77.47 1.53.35 1.89.59 3.41 1.77 2.59 1.65-.47 1.53-.47 1.53-.35 2.83.23 3.42.36 2.23.35 1.42.47 1.06.94 1.18 1.54 1.29 1.29.94 2.95 1.54 8.01 3.53 7.65 2.36 2.48.59 8.25 1.65 6.83 2.23.59.12 16.73 5.42 4.71 1.53 19.32 4.95 10.25 2.12 1.88.24 2.12.11 1.18-.11 4.95-.83 3.3-.82 2.94-1.3 1.53-.82 1.3-.83 1.3-1.29 1.29-1.18 2.83-3.06 8.24-11.43 1.18-1.06 1.18-.71.83-.47.94-.24.82-.11h.95l1.41.23.82.35.83.36 1.29.7.83.59.59.59.47.71.71 1.77.58 1.88.36 1.3.23 1.65v1.88l-.47 4.83-.59 4.24-1.41 15.79-.24 2.95v1.88l.24 1.65.35 1.3.59 1.41.94 2 .83 1.3.94 1.41.59.59.94.71.59.59.83.23 1.65.47 1.76.48 2.12.47-.11 4.24-.48 25.8-.58 89.3-.36 9.07z" stroke-linejoin="round"/></defs><use xlink:href="#f" fill="#004249" stroke="#00465f" stroke-width="5.76"/></svg>