<svg width="384" height="4.31in" viewBox="0 0 2880 3101" xmlns="http://www.w3.org/2000/svg" xmlns:xlink="http://www.w3.org/1999/xlink"><path fill="#fff" d="M0 0h2880v3101H0z"/><defs><path id="a" d="M213.23 2361.51l-10.56 2.81-8.92 2.52-3.88.77-3.97.58-9.01.49-3.59.19-15.9.88-9.69.48-16.38 1.07-5.91.77-5.72.78-3.2-33.15-7.07-91.96-.68-13.86-1.46-19.18v-3.69l-1.35-1.84-.49-3.29-.87-15.02-2.23-25.68-.97-6.59-.58-3.49-.58-6.98-.39-2.62.2-1.26.19-.67.19-.88-.38-2.32-.59-1.75-.38-1.26-.29-4.84.09-1.84-.29-2.52-.48-1.94v-1.07l.19-.67.19-1.65-.09-1.94-1.07-12.02-.48-6.3-.49-2.13-1.74-3.78 1.16-6.97.58-1.84.1-2.14-.19-1.74-2.14-9.01-.38-2.43-.2-2.52-.19-1.64-2.13-27.04-.88-12.99-.58-3.97-2.91-32.75-1.26-13.86-1.64-20.54-1.85-20.84-1.26-16.76-1.93-20.74-1.55-11.92-.88-9.5-.87-9.98-.87-11.63-2.52-29.65-.49-8.72-.58-7.47-.19-.96-.29-.68-.29-.29-.58-.2-.39-13.27-.87-3.78-4.08-45.35.39-3.49.1-2.43-.29-5.62-1.84-16.28-6.98-86.15 8.24-1.64 9.69-2.52 7.27-1.84 11.14-2.14 5.34-.77 5.62-.68 10.37-.78 25.59-2.03 14.73-1.07 22.1-1.74 7.46-.49 32.47-2.51 5.91-.39 10.37-.68 5.62-.49h3.11l18.41-1.16 9.21-.77 17.54-.88 17.64-1.26 9.4-.58 8.44-.58 16.96-1.06 1.36-.1 38.47-2.52-.19-2.42-.97-15.7-2.71-39.15-2.23-31.3-.2-2.33-.09-1.94 15.8-1.06 19.77-1.46 15.22-.97 6.59-.58 77.05-5.52-.1-.87-2.32.09-.68-8.52-.19-5.72h2.03l-.68-8.33-3.29.29-1.26-19.48 2.81-.2 3-.19-.58-9.11 2.23-.19 16.67-.97.68 8.62 27.72-2.42 4.56-.19.67 13.27v.97l-4.07 3.2.1 2.23 1.36 15.41.48 6.49.1 2.03 3.78 61.25 1.65 25.68-.1 1.16 11.92-.97 25.3-2.52 90.23-8.33 38.48-3.2 38.09-3.97 1.26-.1 36.45-3.39 40.12-3.3-.09-1.55-.39-1.64-.78-7.95-.87-11.53-.68-11.34-2.71-34.59-1.26-18.13-.1-1.64.49-.1 11.73-.97 4.55-.48 3.3-.1 5.71-.78 10.28-.97 8.82-.77 8.82-.97 32.37-2.81 16.28-1.55 16.19-2.04 16.19-2.03 16.28-1.94 7.95-.87-1.94-24.13-3.49-46.42-1.65-21.51 2.43-.2 25-1.55 5.72-.29 14.44-.77 14.83-.97 5.24-.49 19.67-1.93 18.22-1.26h2.72l2.52.29 1.16.48.87.29 1.94 1.07 1.55 1.16 3.01 2.23 4.07 3.29 2.52 1.46 1.35.48 1.17.29 7.94.2h6.21l4.94.09 2.23.2 2.81.39 1.36.29 1.74.87 2.72 1.36 1.45.48 2.81.58 9.98 1.16 18.61 2.91 2.81.58 4.27 1.26 2.33 1.17 2.32 1.55 12.41 8.62 3.58 2.62 2.52 1.64 4.07 2.14 7.95 3.68 1.84.48 1.75.58 2.52.49.58 9.98-.19.1-3.88.77 2.33 36.44 9.4 3.1.58.39.68.29 1.16.29 1.26-.29 1.36-.58.77-.29 1.17.29 2.23 1.26h.58l.58-.29.48-.68.88-.78.29-.09 1.74-.68h2.52l2.04.19 1.55-.1 1.06-.29.88-1.06.96-.68.68-.29.78-.19h.68l.48.38.39.97.77 2.91.49 1.26.68.97.58.39.68-.2.87-.39.48-.48.97-.58-.97-9.31-.38-3.39-.88-9.2-1.93-23.84 3.97.29 8.04.29 5.53-.1 2.91-.09 5.04-.29 2.42-.1 5.52-.68 6.01-.68 1.17 9.69.19.58.29.2.68.09 6.11-.48 9.59-1.07.78 8.73 9.01-.1 7.66-.58 4.84-.58 9.02-.97 10.08-1.07 6.49-.68 13.77-1.55 5.42-.48 12.22-1.26 21.03-2.13 9.01-.97 1.94-.2.97-.97h.19l7.08-.67 5.43-.59 3.58-.48 1.26-.1 2.04-.19 6.59-.87 1.45-.1 5.04-.58 5.24-.39 11.14-.77 2.52-.2 8.15-.87 2.03-.19 2.71-.3h.39l4.46-.48 8.05-.68 6-.48 7.56-.58 11.34-1.36 1.36-.19.1 1.45 11.73-1.07 12.5-1.26 3.88-.29 9.11-.77 10.47-.87 2.81-.1 1.16 14.44 1.36 14.73.58 7.46.87 7.17 1.36 15.8.09 3 .88 12.5.97 10.37.19 2.33.19 1.64.49 6.11 1.35 14.15 12.02-1.36.1 1.55.87 10.47.1 1.06.1 1.94.87 11.73-11.92 1.06 1.35 12.99 1.26 13.08-13.08 1.45 1.16 11.15v1.94l8.24-.68 5.04-.58 11.73-1.17.97 10.57-11.83.87 1.84 20.06.3 1.55.38 4.65h1.65l.87.19.68.29.68.49 1.26 1.16.19.49.39 1.26.49 2.71.77 6.49.49 5.72.87 9.3 1.36 14.25-2.52-1.17-19.87-9.69-1.36 5.14-1.16 3.1-1.26 2.13-1.26 1.65-7.08 8.24-1.94 2.52-.48 1.26-.78 2.61-.58 3.3-.68 7.46-.09 3.49.29 2.23.48 2.61-.1.78-.29.97-.48 1.35-1.07 2.52-1.26-1.35-.97-.78-3.39-2.13-4.17-2.23-1.45-.58-5.62-2.33-3.2-1.16-7.66-3.2-.39-.19-2.03-1.07-6.11-4.45-2.91-1.94-2.13-1.07-2.42-.68-1.94-.38-8.04-2.52-1.46-.39h-.68l-8.53 1.36-3.58.48-10.86 1.45-3.87.39-5.43.87-1.16.58-1.94 1.46-2.43 1.55-15.99 8.62-2.71 1.26-6.69 2.43-1.84.96-.39.3-1.36 1.26-1.55 1.84-.77 1.06-1.26 2.04-1.55-2.33-.88-1.26-.48 3.88-1.45 12.11-1.56 2.23-1.74 2.13-2.91 2.72-3.2 2.22-4.26 3.59-2.52 2.52-10.66 10.66-3.1 3.49-2.14 3.1-1.55 2.03-2.13 1.65-2.23 1.07-2.03.68-6.69 1.16-7.08.48-6.69.97-6.1 1.75-3.88.87-11.44 1.16-4.94-.1-4.17-.58-5.62-1.64-6.3-2.04-.97-.29-3.87-2.52-4.27-3-3.49-3.3-3.87-5.13-1.94-3.4-2.14-4.65-2.81-6.78-1.55-3.59-1.16-2.9-.97-4.27-4.65-12.89-3.01-6.59-2.13-4.26-4.65-8.53-1.84-2.23-.97-.58-2.72-1.55-2.52-1.06-2.13-1.07-1.45-.48-1.84-.2-5.72.39-2.23.48-1.75.68-2.52 1.65-1.06.87-4.46 2.13-.97.68-1.45 1.26-1.26 1.75-.68 1.16-.68 1.84-.39 3.39-.19 4.65-.49 4.17-.38 3.29-.49.78-1.36 1.55-1.74 1.36-.87.38-1.07.39-.87.1-.87-.19-1.07-.59-5.14-1.93-1.16-.39-1.07-.1-1.45.2-1.26.58-.97.77-2.81 2.42-2.91 1.85-1.16.38-1.84.39-1.84.1-3.4-.29-2.32-.58-1.75-.68-1.06-.58-.88-.68-.58-.58-1.94-3.1-.67-.78-.68-.48-.97-.2h-2.33l-1.26.39-1.16.58-2.81 2.04-.78.38-2.03.39-1.17-.1-1.55-.67-5.04-3.3-20.06 4.46-.29 1.45-.19 1.55v1.17l.29 3.58-.2 2.81-.68 1.65-.58.58-.58.39-.87.48-1.46.49-2.9.58-4.85-.29h-6.01l-5.52-.29-1.46-.29-1.35-.49-.97-.68-.68-.67-.39-.97-.19-1.07-.2-1.65.1-2.71.1-.97.38-1.07 4.56-9.3.48-1.65.29-2.13-.09-1.16-.2-.78-.87-1.84-.77-1.06-1.07-1.07-1.55-1.26-1.65-1.07-4.26-1.84-3.98-1.45-1.74-.29-1.84-.19-2.62.09-5.62.58-1.46.59-1.93.67-1.75.88-3.2 1.74-1.64.58-1.07.29-2.33.2-.58-.2-.58-.39-.48-.87-.3-1.45-.09-1.36.19-1.16.39-.97.58-.97.49-.68 4.07-4.26.38-.97.2-.87-.1-1.17-.19-.48-.49-.58-1.26-.97-1.26-.68-3.29-1.26-1.94-.39-1.94-.09-6.01.29-7.17.68-4.36 1.74-.39.19-1.75 1.26-1.26 1.26-1.45 1.65-.87 1.45-1.46 3.49-.87 3.2-.77 3.78-.1 1.75.1 3.87 1.45 10.76.39 1.65.29.58.29.38.48.3 1.56.38 3.39.29 1.84.49.48.29.2.39.19.67.1.78-.39 1.45-.77 2.14-.68 1.45-1.07 1.74-1.16 1.55-1.07.97-1.36.88-1.35.58-5.33 1.45-4.85 2.23-1.65 1.07-1.65 1.25-2.42 2.43-2.91 3.29-1.16 1.84-1.16 2.72-1.07 4.16-1.16 5.62-.78 1.65-1.16 1.16-3.88 2.62-1.94 1.45-1.26 1.36-.77 1.16-.39.88-.19.87v.87l.19 1.26.29.97.87 1.74.78.97.48.58 1.75 1.26 2.33.88 2.42.67 1.36.78.67.78.59 1.16.29.87.29 2.81-.1 2.13-1.84 2.04-1.26 4.16-.29 12.02.19-.48.68-4.27 24.04 57.47 18.9 45.25.68 10.66.97 10.66 2.13 25.97.97 14.93 2.03 18.89.39 7.85 2.52 32.37.1 3.78-2.91-2.23-12.02-9.59-13.18-10.47-11.73-9.5-1.36-1.06-5.91-5.04-4.65-4.17-3.78-3.58-4.07-4.17-4.07-4.17-3.98-4.26-3.87-4.46-3.78-4.46-3.78-4.94-3.69-4.94-2.81-3.88.49 6.5 1.94 21.9 2.03 22.87.49 4.45-2.52.29-13.38 1.26-7.27.88-2.23.29-4.07.29-3.39.29-6.69.19-5.43.2-24.03 2.42-9.89.87 1.84 20.45 1.55 17.54 1.94 22.87 1.36 17.25 2.32 28.97 2.72 34.99 2.42 30.23-6.98 2.71-4.94 1.55-3.39.78-14.74 1.84-10.27.87-27.53 2.91-10.46 1.07-16.58 1.74-12.99 1.16-19.09 2.13-15.22 1.56-9.2.87-8.24.97-6.79 1.06-3.2.87-5.91 2.23-18.12 7.85-3.1 1.17-5.53 1.64-4.36.97-4.56.87-22.19 2.33-1.07-12.79-.87-11.82-1.07-11.73-.97-11.43-2.61-34.12-1.55-19.18-50.79 4.45-2.62-3.39-3-4.84-6.98-11.24-.68-1.17-.39-1.26-.19-1.16-.1-2.03.1-1.36 1.35-5.62.2-1.26v-.97l-.2-1.07-.19-.77-.39-.68-1.84-2.42-5.62-6.88-2.91-4.17-3.68-6.1-3.88-7.37-3.58-6.1-2.62-4.46-.68-1.07-.68-.77-3.1-2.81-3.2-2.62-.29-.39-.1-.29-11.72 3.01 1.26 1.06 1.55 1.84 1.55 1.65 3.49 7.66 1.55 3.97.87 3.2.58 3.29.58 4.36.29 4.75.1 2.62-.19 2.52-.97 5.91-.58 1.94-.49 1.26-1.06 1.55-.78.67-1.55 2.14-1.16 1.06-1.26 1.46-2.04 1.55-1.36.77-1.74.68-3.3 1.74-3.68 1.55-2.03 1.07-2.43.87-2.9 1.17-1.56.58-2.13 1.16-.97.97-.97.77-.97.49-2.23.58-.67.29-1.07.49-1.45.87-1.17.87-7.36 2.81-1.94 1.16-1.55.58-1.55.3-4.17.58-2.42-.1-1.85-.48-1.16-.1-1.45.48-.58.58-1.26 1.75-1.46 2.62-.48 1.35-.49 2.13-.38 4.17v2.81l-6.5.29-1.74.1-.88.39h-1.06l-1.07-.1-1.65-.49-3.39.1-1.06-.1-1.65.59-1.36.87-1.26.39h-2.32l-6.69.58-5.04.77-70.27 6.01-2.43.19-43.22 3.69-2.23.09-1.75.1-1.55 2.71-.48.97-.29 1.46-.1 1.55.58 6.39.49 2.62.19.68 1.84 3 .97.87.78.88 3.48 10.46.68 4.07.29 4.65.1.97-.1 2.72-.29 2.9-.38 2.23-.59 1.55-1.26 2.43.49 2.52.68 4.07 2.23 13.85.58 2.72 1.06 4.74 2.23 8.24 1.94 8.72 1.16 6.3.78 6.69.48 5.13.59 11.54.38 11.04 1.17 23.16.97 12.41v.77l-20.07 1.65-43.61 3.97-4.17.3-1.94.19-1.84.39-3.78 1.16-3.59 1.45-2.03 1.17-1.75 1.06-1.64 1.26-10.96 7.17-5.04 2.43-3 1.16-3.98 1.06-8.91 2.33-55.15 14.92-21.52 5.62-5.23 1.26-16.58 4.56z" stroke-linejoin="round"/></defs><use xlink:href="#a" fill="#9dc8ca" stroke="#6bb4d2" stroke-width="5.76"/><defs><path id="b" d="M1046.88 2110.13l-1.07-13.76-2.42-30.72v-1.16l16.18-.29.97 5.52.68 3.78.19 2.81.1 1.17.1 2.32-.2.97-.67 1.36-.68.77-5.72 7.46-.58 1.07-.29.78-.1.87.39 6.2.29 5.04.1 2.23-.2 1.16-.19.49-.49.67-.68.49-.19.19-1.16.2-4.36.38z" stroke-linejoin="round"/></defs><use xlink:href="#b" fill="#9dc8ca" stroke="#6bb4d2" stroke-width="5.76"/><defs><path id="c" d="M2081.54 2987.91h-1.45l-6.21.58-1.06.29-1.07.58-1.55.39-1.16.1h-2.91l-1.55.1-.78.19-.48.58-.49.78-.48 1.35-.29 1.55-.2 2.04v3l-.48.87-.68.3-1.26.48-1.74.48-.68.2-.49.39-.38.67-1.94 6.01-.58 1.46-.49.67-2.71 2.72-.49.58-.87 3.29-1.65 4.36-2.61 5.92-2.14 3.87-.87 1.16-.77.78-1.65 1.16-.29.29-.78 1.75-1.26 2.52-.97 1.55-.68.87-6.3 5.43-.97 1.16-.77 1.26-.58 1.16-.39 1.26-.39 3.98-.29 1.16-.39.58-.58.87-5.52 6.01-2.13 3-1.56 1.65-.96.68-1.56.39-3.68.29-1.94-.2-2.42-.48-.78-.48-3.58-36.83-6.2-68.41-3.4-34.41-3.2-35.66-1.16-11.82-2.52-28.59-3.2-33.72-4.75-51.94-3.68-40.41-2.91-31.79-1.06-13.76-2.62.1-30.43.39-12.02.09-45.07.58-19 .29h-9.3l-17.94.3-7.75.09.19.68.2 2.81 1.06 8.24-.09.68-.2.38-1.16 1.36-2.03 1.84-1.36.97-.68.78-.39.19h-.58l-1.16.19-1.26-.48-.2-.19-.09-.78.19-1.16v-.49l-.58-.87v-.58l-.39-.87-.58-.88-2.23-2.22-.48-.68-.29-.2-1.65-.09.29 2.13 1.94 20.16 5.33 57.36.39 4.17-53.89 1.45-6.89.78-4.65-.1-3.58-1.26-1.94.2-2.33.38-2.52 1.07-2.42 1.36-9.79-.2-30.63 2.91-12.12 1.26-27.04 2.33-1.16-11.34-2.23-23.55-3.49-35.56-1.36-11.83-.67-7.85-2.04-22.29-5.72-57.56-.87-9.78-1.26-12.22-3.1-34.11-2.43-22.96-3.87-40.32-.1-1.84-.39-3.58-1.55-15.99-.39-5.24-1.26-13.47-3.58-34.11-.97-11.24-1.55-15.31-.58-7.36-1.17-11.15-2.61-27.52-.58-6.39-22.1-.3-16.38-.19-9.79.1h-10.76l.19.68 1.26 3.48 1.07 3.59.97 3.59.77 3.58.49 2.23.19 1.36.58 3.58.49 3.59.39 3.68.19 3.59v7.36l-.19 3.59-.29 3.68-.49 3.58-.48 3.49-.68 3.59-.78 3.49-.87 3.49-1.07 3.48-1.06 3.4-1.26 3.29-1.36 3.3-1.55 3.19-1.55 3.1-1.75 3.01-1.74 3-2.13 3.2-1.94 2.81-.97 1.16-2.13 2.72-2.23 2.52-2.33 2.52-2.42 2.32-2.42 2.23-2.62 2.13-2.81 2.23-3.49 2.42-7.37 4.85-22.19 14.44-5.53 3.58-3.97 2.81-3.3 2.52-2.91 2.43-2.03 1.74-.87.68.38 3.2.68 7.85 1.55 16.37.78 7.08 4.26 44.96.97 11.63 2.04 23.16 1.84 19 .39 4.84 2.23 22.58 4.26 45.16 3.78 43.41 2.23 22.68 1.75 19.67-61.65 4.94-17.64 1.17-2.13.09-4.94 2.42-72.11 4.95-5.72-60.57-2.62-30.43-1.16-11.14-.68-6.88-9.5-102.43-.48-5.24-5.82-63.86-3.3-37.89-.87-10.27-.77-7.56-2.62-27.52-.97-11.24-2.33-23.45-1.35-15.8-2.14-23.64-.67-8.05-1.75.2-4.65.1h-8.43l-54.47.96-37.03.78-13.18.19-36.83.58-2.23.2-10.18.58-24.91 1.84-25.59 1.45-16.76 1.56-2.91.19-.87-.19-.78-.3-.29-.19-.29-.19-.68-.88-.97-1.16-.58-.19-.68-.2-3.2.1-20.84 1.75-1.84.09h-4.26l-2.33.1-43.9 2.52 3.78 53.59.29 5.04-18.9 27.62-2.81 4.16-5.53 8.14-8.72 12.5-32.96 47.88-.19-1.56-.1-3.19-.48-5.24-.58-6.3-.39-4.84-1.55-18.51-1.84-19.96-.29-1.46-.2-.67-.19-.39-.49-.87-.58-.68-.58-.58-1.55-.78-2.52-.58-1.36-.48-1.06-.78-.88-.97-.97-1.84-.29-1.16-.29-2.72-1.16-11.63-2.33-27.81-.58-6.88-2.91-33.82-6.2.49-13.66 1.26-24.24 2.03-15.31 1.26-12.7.87-42.16 3.2-32.66 2.33-1.55.09-22.3 1.55-19.19 1.26-10.46.49-12.51 1.06-14.34.88-25.98 1.84-33.73 2.13-7.75.78-6.59.38-15.9 1.17-8.04.38-13.28.88-75.99 5.03-11.92.97-11.63.68-11.54 1.07-8.62.39-1.46.19-15.02 1.45-13.47 1.55-27.33 2.72-10.47 1.06-45.36 4.94-5.91.49-1.75-20.93-2.33-26.75-2.61-30.33 8.91-2.33 3.98-1.06 3-1.16 5.04-2.43 10.96-7.17 1.64-1.26 1.75-1.06 2.03-1.17 3.59-1.45 3.78-1.16 1.84-.39 1.94-.19 4.17-.3 43.61-3.97 20.07-1.65v-.77l-.97-12.41-1.17-23.16-.38-11.04-.59-11.54-.48-5.13-.78-6.69-1.16-6.3-1.94-8.72-2.23-8.24-1.06-4.74-.58-2.72-2.23-13.85-.68-4.07-.49-2.52 1.26-2.43.59-1.55.38-2.23.29-2.9.1-2.72-.1-.97-.29-4.65-.68-4.07-3.48-10.46-.78-.88-.97-.87-1.84-3-.19-.68-.49-2.62-.58-6.39.1-1.55.29-1.46.48-.97 1.55-2.71 1.75-.1 2.23-.09 43.22-3.69 2.43-.19 70.27-6.01 5.04-.77 6.69-.58h2.32l1.26-.39 1.36-.87 1.65-.59 1.06.1 3.39-.1 1.65.49 1.07.1h1.06l.88-.39 1.74-.1 6.5-.29v-2.81l.38-4.17.49-2.13.48-1.35 1.46-2.62 1.26-1.75.58-.58 1.45-.48 1.16.1 1.85.48 2.42.1 4.17-.58 1.55-.3 1.55-.58 1.94-1.16 7.36-2.81 1.17-.87 1.45-.87 1.07-.49.67-.29 2.23-.58.97-.49.97-.77.97-.97 2.13-1.16 1.56-.58 2.9-1.17 2.43-.87 2.03-1.07 3.68-1.55 3.3-1.74 1.74-.68 1.36-.77 2.04-1.55 1.26-1.46 1.16-1.06 1.55-2.14.78-.67 1.06-1.55.49-1.26.58-1.94.97-5.91.19-2.52-.1-2.62-.29-4.75-.58-4.36-.58-3.29-.87-3.2-1.55-3.97-3.49-7.66-1.55-1.65-1.55-1.84-1.26-1.06 11.72-3.01.1.29.29.39 3.2 2.62 3.1 2.81.68.77.68 1.07 2.62 4.46 3.58 6.1 3.88 7.37 3.68 6.1 2.91 4.17 5.62 6.88 1.84 2.42.39.68.19.77.2 1.07v.97l-.2 1.26-1.35 5.62-.1 1.36.1 2.03.19 1.16.39 1.26.68 1.17 6.98 11.24 3 4.84 2.62 3.39 50.79-4.45 1.55 19.18 2.61 34.12.97 11.43 1.07 11.73.87 11.82 1.07 12.79 22.19-2.33 4.56-.87 4.36-.97 5.53-1.64 3.1-1.17 18.12-7.85 5.91-2.23 3.2-.87 6.79-1.06 8.24-.97 9.2-.87 15.22-1.56 19.09-2.13 12.99-1.16 16.58-1.74 10.46-1.07 27.53-2.91 10.27-.87 14.74-1.84 3.39-.78 4.94-1.55 6.98-2.71-2.42-30.23-2.72-34.99-2.32-28.97-1.36-17.25-1.94-22.87-1.55-17.54-1.84-20.45 9.89-.87 24.03-2.42 5.43-.2 6.69-.19 3.39-.29 4.07-.29 2.23-.29 7.27-.88 13.38-1.26 2.52-.29-.49-4.45-2.03-22.87-1.94-21.9-.49-6.5 2.81 3.88 3.69 4.94 3.78 4.94 3.78 4.46 3.87 4.46 3.98 4.26 4.07 4.17 4.07 4.17 3.78 3.58 4.65 4.17 5.91 5.04 1.36 1.06 11.73 9.5 13.18 10.47 12.02 9.59 2.91 2.23-.1-3.78-2.52-32.37-.39-7.85-2.03-18.89-.97-14.93-2.13-25.97-.97-10.66-.68-10.66-18.9-45.25-24.04-57.47-.68 4.27-.19.48.29-12.02 1.26-4.16 1.84-2.04.1-2.13-.29-2.81-.29-.87-.59-1.16-.67-.78-1.36-.78-2.42-.67-2.33-.88-1.75-1.26-.48-.58-.78-.97-.87-1.74-.29-.97-.19-1.26v-.87l.19-.87.39-.88.77-1.16 1.26-1.36 1.94-1.45 3.88-2.62 1.16-1.16.78-1.65 1.16-5.62 1.07-4.16 1.16-2.72 1.16-1.84 2.91-3.29 2.42-2.43 1.65-1.25 1.65-1.07 4.85-2.23 5.33-1.45 1.35-.58 1.36-.88 1.07-.97 1.16-1.55 1.07-1.74.68-1.45.77-2.14.39-1.45-.1-.78-.19-.67-.2-.39-.48-.29-1.84-.49-3.39-.29-1.56-.38-.48-.3-.29-.38-.29-.58-.39-1.65-1.45-10.76-.1-3.87.1-1.75.77-3.78.87-3.2 1.46-3.49.87-1.45 1.45-1.65 1.26-1.26 1.75-1.26.39-.19 4.36-1.74 7.17-.68 6.01-.29 1.94.09 1.94.39 3.29 1.26 1.26.68 1.26.97.49.58.19.48.1 1.17-.2.87-.38.97-4.07 4.26-.49.68-.58.97-.39.97-.19 1.16.09 1.36.3 1.45.48.87.58.39.58.2 2.33-.2 1.07-.29 1.64-.58 3.2-1.74 1.75-.88 1.93-.67 1.46-.59 5.62-.58 2.62-.09 1.84.19 1.74.29 3.98 1.45 4.26 1.84 1.65 1.07 1.55 1.26 1.07 1.07.77 1.06.87 1.84.2.78.09 1.16-.29 2.13-.48 1.65-4.56 9.3-.38 1.07-.1.97-.1 2.71.2 1.65.19 1.07.39.97.68.67.97.68 1.35.49 1.46.29 5.52.29h6.01l4.85.29 2.9-.58 1.46-.49.87-.48.58-.39.58-.58.68-1.65.2-2.81-.29-3.58v-1.17l.19-1.55.29-1.45 20.06-4.46 5.04 3.3 1.55.67 1.17.1 2.03-.39.78-.38 2.81-2.04 1.16-.58 1.26-.39h2.33l.97.2.68.48.67.78 1.94 3.1.58.58.88.68 1.06.58 1.75.68 2.32.58 3.4.29 1.84-.1 1.84-.39 1.16-.38 2.91-1.85 2.81-2.42.97-.77 1.26-.58 1.45-.2 1.07.1 1.16.39 5.14 1.93 1.07.59.87.19.87-.1 1.07-.39.87-.38 1.74-1.36 1.36-1.55.49-.78.38-3.29.49-4.17.19-4.65.39-3.39.68-1.84.68-1.16 1.26-1.75 1.45-1.26.97-.68 4.46-2.13 1.06-.87 2.52-1.65 1.75-.68 2.23-.48 5.72-.39 1.84.2 1.45.48 2.13 1.07 2.52 1.06 2.72 1.55.97.58 1.84 2.23 4.65 8.53 2.13 4.26 3.01 6.59 4.65 12.89.97 4.27 1.16 2.9 1.55 3.59 2.81 6.78 2.14 4.65 1.94 3.4 3.87 5.13 3.49 3.3 4.27 3 3.87 2.52.97.29 6.3 2.04 5.62 1.64 4.17.58 4.94.1 11.44-1.16 3.88-.87 6.1-1.75 6.69-.97 7.08-.48 6.69-1.16 2.03-.68 2.23-1.07 2.13-1.65 1.55-2.03 2.14-3.1 3.1-3.49 10.66-10.66 2.52-2.52 4.26-3.59 3.2-2.22 2.91-2.72 1.74-2.13 1.56-2.23 1.45-12.11.48-3.88.88 1.26 1.55 2.33 1.26-2.04.77-1.06 1.55-1.84 1.36-1.26.39-.3 1.84-.96 6.69-2.43 2.71-1.26 15.99-8.62 2.43-1.55 1.94-1.46 1.16-.58 5.43-.87 3.87-.39 10.86-1.45 3.58-.48 8.53-1.36h.68l1.46.39 8.04 2.52 1.94.38 2.42.68 2.13 1.07 2.91 1.94 6.11 4.45 2.03 1.07.39.19 7.66 3.2 3.2 1.16 5.62 2.33 1.45.58 4.17 2.23 3.39 2.13.97.78 1.26 1.35 1.07-2.52.48-1.35.29-.97.1-.78-.48-2.61-.29-2.23.09-3.49.68-7.46.58-3.3.78-2.61.48-1.26 1.94-2.52 7.08-8.24 1.26-1.65 1.26-2.13 1.16-3.1 1.36-5.14 19.87 9.69 2.52 1.17-1.36-14.25-.87-9.3-.49-5.72-.77-6.49-.49-2.71-.39-1.26-.19-.49-1.26-1.16-.68-.49-.68-.29-.87-.19h-1.65l-.38-4.65-.3-1.55 8.05 2.9 2.03.59 2.04.38 2.62.49 6.1.68 5.14.48 2.52.19 8.14 1.17 6.59.97 5.62.77.68-6.59.1-.97.58-1.84.78-1.16.38-.49.59-.19 1.06-.19 10.57-.88-1.46-16.76 14.54-1.74-1.16-14.64 4.84-.48 8.63-1.16-.68-6.98-27.33 6.1 3.2-8.72 6.49-16.67 7.85-.77 7.76-.97-.88-9.89-.38-2.9-7.47.58-1.74.19-5.91.49-1.07-11.53-.29-.97 6.11-2.04v.2l.38.29h.59l3.78-.39 1.55-.2 1.45-3.87 2.13-7.08.58-2.42.2-.39-4.56.59-1.16.09.19-3.29.2-1.46.29-1.06 6.01.58 1.64-10.66.59-5.14-21.04 1.65-1.74.19-.19-1.93-.49-5.33-1.74-16.19-11.44 1.07-.97.1-.78-8.43-4.26.38-14.93 1.75-1.16-12.7-19.68 2.04.49 6.01.68 5.62.09.97.1 3.19.78 9.69.38 5.72.39 6.3.39 6.49-12.6 1.17-8.92.77-2.71.2-.19-2.33-.97-10.37-.88-12.5-.09-3-1.36-15.8-.87-7.17-.58-7.46-1.36-14.73-1.16-14.44 8.62-.2 3.39-.29 12.8-1.26-.2-1.35 6.98-.78 12.31-1.45 8.73-.78.87.29 9.4-1.06 13.18-1.36 11.83-1.36 11.82-1.35 1.36-.1 8.04-.97-1.55-1.35-1.74-.49-1.75.1-.87-.1-.78-3.88-.38-4.55.09-.78.29-.58.59-.29.77-.19 9.89-.97-1.26-12.89 11.14-1.36 13.09-1.35 1.36 12.79 10.56-1.55h1.94l.87.1 4.46-.2 5.72-.68 1.36-.38.48-.39.1-.29-1.17-12.41 3.49-.77 8.92-.87 1.26 12.98 6.3-.68 3.1-.38 9.89-1.36 19.38-2.62-1.26-12.4-1.35-12.89-1.17-11.73-.97-13.08 29.66-4.17.1.88.97 14.34 1.36 14.15.19 1.45 1.07 10.37.67 7.36 2.62 3.3 8.43-1.16 1.17-.1 6.2-.78 13.08-1.84 6.59-.87 13.57-1.55.3 3.68.48 3.69.39.87 1.65 2.61.67.88 1.17.97 1.06.38 2.43.49.67.09 9.79-1.45 1.75-.19 3.49-.58 4.17-.49 3.29-.39 3.1-.38 4.65-.49h1.56l4.07-.58 1.84-.39 4.84-1.74 2.81-1.46 1.75-.48 31.02 1.74-8.15 3.78-13.66 5.72-22.68 11.34.97 4.94.09 1.45.49 4.46 1.16 8.82 3.39 46.13.58 7.65 1.07 14.44 10.37-1.26 3.68-.29 2.62.1 4.27.58.58.1 2.13.29.87-.29 9.21 2.13 5.53.87 1.84.1h4.36l2.91-.2 3.87-.48 3.3-.68 1.84-.58 7.46-2.81 1.07.29 2.81-1.45 9.6-5.82 6.49-3.58-1.07-18.8-1.94-18.12-6.1-1.84-.39-6.4-1.16-15.7.09-.58.2-.39.48-.58.97-.29 3.88-.49 4.75-.29 11.14-.97 11.05-1.25 10.76-.97-2.42-33.63 13.38-.97 9.2-.77-2.61-32.08 12.11 9.21.58 7.84 1.26 14.06.29 4.07 19.29-1.75 19.58-1.84 1.07 12.7.87 8.23 17.93-2.13 7.08-.68.19-1.45 2.81.1-.29.48-.29.19 2.62 1.26 3.19-.38 2.81-.29h1.94l1.55.19 3.01.29 4.26.87 6.4-18.51.68-2.03 1.94-6.59 1.84-4.75.87-2.04 1.16-3.77.88-2.33 1.55-3.49.87-2.23.87-2.03 6.5-14.15 1.16-2.62.48-1.84.29-3.1.78-6.59 1.94-12.31 2.32.49.1-.2 3.39-5.23-.67-1.16-.88-13.76v-.2l.29-.19.78-.97.87-.48 1.16-.58 2.62-.39 1.65-.2 2.33-.58 2.52-.87 1.26-.68.67-.68.59-.77.38-.78.39-1.84-.1-1.74-.29-.39-.38-.29-2.62-.49-3.01-.19-2.13.68h-1.26l-.68-.19-.29-.2-.19-.68-.2-1.74.1-1.36-6.98-2.03.29-1.17 2.14-.58.97-.48.19-.29-7.46.77-7.37-76.46-1.16-12.4-2.91-29.56-3.2 2.52.58 7.56-.1.97-.09.58-.39.49-.39.19-1.35.29-7.18.78-.97 3.68 5.14-.39 1.75 24.42.09.49-6.88.48-4.65 7.66-.58-7.76-.97-14.73-1.84-5.42-2.72-4.95-4.36-4.55-2.13-1.65-2.04-1.45-5.23-3-10.37-5.53-6.59-2.91 8.04 41.38-8.53 2.33-10.37 3.78-15.22 1.36-36.54 3.77-.09-2.03-.1-.97-2.91-36.24-.58-6.88-.39-5.43-.19-2.23-.78-6.59-.29-3.68-1.55-19.96-.77-8.92-.39-5.52-.39-9.11-.19-33.14-.1-2.23-.48-8.92-.1-2.32-.78-11.34-.87-11.82-.87-8.82-.58-4.85-.2-4.55-.19-3.3-38.96 1.46-22.97.77.48-8.62-2.23-49.43-.77-16.86-3.98.39-1.94.1-12.5 1.26-8.63.77-7.17.68-2.91.19-3.78-.19-2.52-.39-1.74-.19-.39-.1-4.36-1.16-5.33-1.55 1.55-2.71 1.94-3.11 2.42-3 5.33-9.4 8.73-14.63 6.39-10.66 32.08-55.53 1.26-2.32 17.26-29.95 6.78-12.11 6.2-11.92 3.59-6.4 7.95-14.15 3-5.13 2.23-3.88 1.84-3 7.86-12.89 1.35-2.13 1.55-2.72 6.69-12.3 3.1-.29 5.62-.88 4.27-.48 20.06-2.62 9.5-1.06 11.63-1.26 1.75-.2 2.03-.09 1.07-.1 6.98-1.07 7.07-.77 4.36-.58 22.68-2.81 10.66-1.26 8.73-1.07 6.78-1.16 1.17-.29 4.55-.97 5.23-1.16 5.14-1.36 5.04-1.45.29-.1 4.75-1.65 4.95-1.84 4.94-1.94 1.06-.48 3.3-1.46 4.26-1.93 4.27-2.14 4.26-2.23 1.17 3.49 2.03 6.69 1.65 5.04.78 1.16.77.78.29.48.39 3.49.39.97.58.58.77.49.97.38.68.2.39.58.1 1.84.09.87-.97 5.14.2 1.16.19.68.39.68.39.97v1.64l-.58 1.46-.3.29-.87.29-.29.39-.29.67.29 1.65-1.36 2.91-.19 1.26v1.16l.1 2.23 41.97-1.84 3.19-11.63 2.52-9.98 1.56-7.07 1.16-3.01.97-1.84 4.84-8.24.68-1.26 1.26-3.49.49-1.93.68-3.1.09-1.56.39-7.55.29-3.3.49-3 .77-3.59 2.42-7.75 2.23-7.85.49-1.36.87-1.64 2.13-4.07 1.36-2.04 1.74-2.13 1.65-1.75 3.3-2.81 6.1-4.36 1.94-1.55 1.84-2.9.39-.88.29-.97.29-1.16.2-1.36v-4.45l-.39-3.98v-2.81l.29-1.84.87-2.61.39-1.07 1.55-2.52.97-1.07 1.16-1.16 1.26-.97 1.36-.77 2.42-.97 1.46-.39 6.39-.68 5.82-.77 3.49-.29 1.84-.39 1.94-.78 1.45-1.16.68-.77 1.36-2.33.58-1.65.29-1.94 14.15-1.55 9.5-1.26 4.75-.58 12.5-1.16 10.08-.78 1.94-.29 2.04-.67 1.45-.59 2.23-1.26 6.59-4.16 6.3-4.95 1.26.78 3.2 2.33 2.52 1.84.68.58.48.39.39.48.39.39.19.58.19.68.2.87.1 2.13.19 3.3.19 2.52.88 12.59.38 7.08.2 3.29.19 2.04.39 2.91 9.59 1.06 1.17.39 1.26.58.97.68 1.16 1.16.58.68 1.36 2.13 6.69 6.69 1.64.87 1.07 1.26 1.55 2.23-.39.68-.39.58-.38.68-8.92-2.33-4.46-1.35-1.84-.2-3.88.39-1.16.29-2.33 1.07-3.1 1.64-3.29 2.52-1.17.87-5.04 4.46-.67.87-2.62 4.95-.29.29-2.62 3.39-1.84 2.91-.68 1.26-.58.67-.39.2-.48-.29-.2-.39-.48-.29-.78-.29-1.06-1.16-.59-.49-.38-.1h-.88l-1.35.39-2.91 1.26-.68.68-1.26 2.23-1.45 1.74-1.26.88-2.04 1.45-.87 1.16-.1.49v1.26l19.39 18.02 20.06 16.09 3.78 2.81 4.17 1.94 3.68.38 2.91-.58 2.13-1.84 2.04 1.16 1.35 1.36.59 1.16.29 1.17.09.48-.19.48-1.65.68-2.23.49-3.78.29-.58.29-.68.77-.68.3-1.06.09-2.91-.48-3-.68-1.55-.68-1.36-.87-6.2-4.94-2.23-1.07-2.43.1-.87.29-.48.68-.49.97-.29 1.06-1.07 1.75-.87.38-1.35.29-5.72.49-1.94.39-3.59-.2-2.71-.68-5.24-.58-5.62.78-6.98.58-4.65 1.16-2.81.97-1.84.87-.87.68-3.59 3.88-4.36 4.16-2.04 1.85-1.64 1.26-.97.29-2.81.19-.88.39-.87.87-.68.87-.77 1.46-1.46 3.1-.77 1.16-.49 1.16-1.16 3.3-.39.58-.29.19-1.26.49-1.65.38-1.74.1-2.81.97-.78.49-1.06.96-1.84 2.43-1.46 1.64-.68.39-.48.1-.39.1-1.45-.49-1.36-1.16-1.65-1.55-.77-.29-.68-.2-.97.39-.39.68-.29 1.07-3.68 6.29-.78 2.81-.87 3.2-.19 1.75.38 4.84-.09 2.72-.2 2.22-.77 3.2-.68 1.84-.78 1.46-.77 1.26-.39 1.74-.29 1.45-.19 1.46-.2 2.71 2.91 17.93 4.26 25.58v2.33l4.46 10.95 1.65 4.75.29 1.26v.68l-.29.77-.87 1.55v.58l.29.29 1.07.68.09.29.2.97-.2.87-.09 1.46.58 11.04.09 6.3.1 1.75.29.87.97 1.45.29 1.26.58 6.3.2 5.43-.2 1.84-.38.48-2.81 2.14 3.87 26.94 1.07 3 1.26 2.42.87 2.04.1 2.03-.29 2.14-.29 3.1.48 1.55.49 1.16 5.04 14.15.29 1.55.09 5.13.68 2.04 2.91 6.69 1.84 5.42.49 2.13 1.06 7.95.39 11.73.1 1.55.38 6.49.1.19.1.49.29.48.29.1.29-.1.39-.29.48.29.49-.19h.68l.77.48.58 1.17.68.38 2.23-.09 1.94-.58 1.36-.78.58-.19.38.09.2.1 1.55 1.74.48.2 1.46.39.68.38 2.23 1.85.29.09.09-.09v-.88l.1-1.45.1-.49.38-.58.68-.58 1.26-.68 1.36-.48 2.23-.29.48.1.2.19.09.29-.09.39-.58.19-1.46.29-2.91.87-.48.49-.29.58-.29.87v.68l.48.87.58.49h.39l.58-.2.78-.09.68.29.09.38.1.59-.19.29-4.95 2.32-4.45 2.72-4.95 2.42-4.84 2.62-1.07.67-1.45 1.94-2.72 9.69-.19-.09v.87l-.29.29-.2.39-.96 1.55.29 1.16-.29 1.94-.3.77-.19.39-.87.58-3.59.87-.29.2-.68.87-.29.48-.19.88v1.06l.39 4.27 1.55 14.63.58 6.98.68 7.65.38 2.33.3 1.06.48.39.68.29 1.26.1 14.15-1.16 16.28-1.46 7.27-.77 10.76-.78 39.84-3.97 23.94-2.04 35.28-3.29 7.36-.78 7.18-.48 17.34-1.65 20.65-1.65 30.05-2.61 16.76-1.75 14.54-1.26 27.92-2.9 21.51-1.84 1.46-.2 20.64-1.94 12.02-1.16 8.82-.68 12.12-1.45 14.73-1.36 16.38-1.74 4.85-.49 11.53-1.26 21.03-1.93 1.26 4.36 4.56 14.73 3.68 11.24-7.56 2.61-2.52 1.07-1.65.87-.39.39-.29.48-.09.68.19.87.58 1.75 1.07 3.78.39.97.48.68.19.77-3 1.26-11.82 5.81-7.18 3.49-6.49 2.43-15.99 5.81-19 7.27-4.65 1.65-16 6.29-1.06.49-7.08 2.42-11.14 4.27-13.86 5.23-.58 4.17 1.16 3.29 5.23 67.45 1.55 16.96 1.17 13.76-3.78.09-29.57 2.33-17.35 1.07-23.55 1.84-4.46.48-3.87 1.26-1.75.29-6.88.49-22 1.84-17.74 1.55-29.37 2.13 6.21 69.09 1.45 16.48 7.56 84.21.49 6.78.48 5.04 3.59 41.19 4.16 45.83 5.14 56.21 2.62 28.59 2.32 23.93 3.3 37.99 3.49 37.99 6.69 75.97.09.2 25.2-2.14 19.39-1.55 19.38-1.35 12.51-1.07 39.54-3.88 19.39-1.64 7.75-.68 14.64-1.75 4.65 55.24 1.94 22.48.77 10.18 5.04 58.63.97 12.79 23.26 6.2 15.7 4.36 13.77 3.68 1.84.58.68 2.81.48 4.56 2.91 35.18 1.65 18.21 2.13 24.81 1.45 16.48.59 6.88.38 4.36.88 10.08.96 11.82.68 7.56.29 3.49.39 3.87.78 6.59 1.35 9.11 1.36 7.66 1.07 6.2.58 4.07.29 1.26.29 1.84.19 1.55.2 1.84.48 5.43.29 2.13.39 2.71.29 3.3 1.16 13.08.68 7.46 5.92 61.25.48 6.68.87 8.92 2.62 28.39 1.94 20.26-47.2 7.26-10.96.2-43.81.97-15.79.29-.39-4.65-1.75-23.26-1.84-21.32-.29-.29-.29-.29-.1-.78-.19-4.46-.97-11.62-1.74-23.07-.39-3.49v-.48l-.49-5.04-.77-7.66-.68-7.07-.58-5.14-.68-8.52-.49-4.46-4.16 2.52-4.27 2.91-5.23 4.26-5.04 4.26-5.33 3.59-4.85 3.88-1.36 1.35-.77 1.16-.78 1.56-.58 2.32-.48 4.36-.1.97-.58 2.04-.58 1.45-.97 1.07-1.36 1.35-1.06.68-5.53 2.71-2.52 1.75-1.45 1.45-.78.87-.77.88-.88 1.35-.68 1.36-.58 1.94-.48 2.13-.49 3.39-.77 8.63-.39 2.61-.87 2.91-1.65 7.56-6.4-2.13-7.07-1.94-4.27-1.75-4.36-2.13-2.32-.39-.68-.09-3.1.29-3.01.58-2.03.77-3.2.68-3.69.2-2.61.38-2.43-.19-3.39-.58-12.5-4.85-14.54-6.29-3.49-.97-3.68-.2-6.3-.48-4.07-.78-2.43-.68-1.64-1.16-1.85-1.16-1.45-.87-1.55-.49-1.07.29-2.03.1-1.07-.19-1.35-.59-.97-.87-.59-.97-2.61-3.68-.87-.48-1.94-.78-3.59-.87 1.84 8.53 1.65 6.97 1.65 2.72.39 1.06.09 3.01.29 1.74.39 2.33v2.42l-13.47 1.07-6.98.48-4.56.19-1.74-16.37-1.45-14.25-5.24.58-.77.29-.78.49-.58.87-1.07.97-.87.39-.97.19-2.42-.29-1.26-.48-2.04-.3-1.45-.67-.68-.88-2.03-.96-1.75-.39-1.84.29-1.55-.1-1.46-.58-1.74-1.45-1.36-.2-1.84.29-1.74.68-1.84.78-.97 1.35-.88.68h-.67l-.68-.39-1.94-.87-1.16-.19-1.17.1-.77.29-.78.58-.58.77-6.88 6.11-5.72 5.52-2.42 2.23-2.14 1.74-4.26 4.27-3.2 3.68-1.45 2.42-1.75 3.01-2.23 3-3.68 5.91-1.26 1.55-1.16.88-1.46.67-2.52.97-2.61.78h-2.23l-1.26-.39-1.07-.77-1.16-.97-3.1-3.59-.88-1.94-.38-.48-3.98-1.36-1.55-.68-.97-.58-.29-.39-.29-.77-.19-1.16.09-.39.39-.68 2.23-2.62.19-.38.2-2.62.1-4.56.19-2.03.87-3 .2-.59 1.93-.29 6.01-.38-.87-8.82-2.13-21.81.68-.29 4.55-.87 2.04-.48.77-.59.68-.77.39-.87.39-1.17.39-3.48-.2-2.81-.48-2.23-.68-1.94-1.65-3.1-1.36-1.94-1.64-1.84-1.75-.97-2.42-.87-1.65-.78-.78-.68.78-2.42-.29-.1v-.19l-.19-19.09-22.39 3-5.14.39-25.88 1.94-11.34 1.26-1.26-6.01-1.55-6.78-.48-1.94-2.43-9.21-3.2-10.17-1.35-3.97-2.52-7.47-3.01-7.65-.77-1.75-20.36 1.26 1.17 13.09-60.58 4.65 1.16 9.59 1.16 12.4-12.31 1.75.78 6.3 12.21 4.55.68 8.43-12.11 1.65-7.86.19-.29-1.26-1.26-.09-.87-.1h-1.65l-.09-.58.29-1.36 2.03-.29v-.58l-.38-1.07-.3-.38-.77-.78-.78-.87-.77-1.16-.58-3.1-.39-3.3-.78-4.17-.29-1.45-1.06-2.52-.29-1.16-.39-1.65-34.02 1.36.77 10.46 1.17 12.99 6.88.87 1.74 3.59-.87.77-.87-.1-1.26.1-5.33.29-21.42 2.33-11.25.97-8.62 1.06-9.21.88-3.59.38-5.04.49-8.04.77-10.18 1.07-1.06.1-15.12 1.26 4.07 10.17 3.2 8.63.58 6.49 7.56 12.6 4.26 36.72 60.48-4.75-.19 1.26-.1 5.53 1.36 17.44 1.74 19.96-6.3-2.42-40.71-13.27-13.47-4.56-26.56-8.24-17.34-5.91-25.11-8.33-7.75-2.72-4.27-1.45-7.17-2.52-3.49-1.06 1.65 17.54.78 9.4 1.64 23.64.68 1.16 4.94 8.63-.96 2.42-.78 2.71-.78 2.72-1.06 3.1-.2.87-.09 1.36.09 2.23.39 5.33.97 6.2 3.49 23.16 35.77-3.2 15.02-1.26 6.78-.68 20.36-1.84 21.13-1.84 21.03-1.84.68 7.27.87 8.62 2.62 28.4.29 3.29.29 2.23.1.58 1.06 11.82 1.07 12.02.29 2.91 1.16 10.95.78 4.84 4.26 21.81 1.84 9.69 2.81 16.86.29 4.36.39 8.24.87 8.14.49 3.97v2.42l-.29 1.94-1.16 4.85-.1 2.13v3.68l1.94 17.83 1.65 13.47v.19l1.06 7.37 1.55 14.24 1.65 15.8 1.26 13.37v2.04l.1.87 3.87-.39 5.53-.58 6.1-.87 8.82-1.07 9.31-.87h1.07l.77.2.78.29 1.16.87.77.87.68 1.16.88 1.75.19 1.26.29 2.32 1.45 12.7 1.46 12.69.39 3.2.48 6.2.1 2.23.29 1.36.58 1.26.29.58.48.58 4.08 3.39 1.06.87-.48 1.36-.68 1.94-.87 3.88-2.33 10.17-1.45 7.07-.68 4.37v1.74l.09 1.74.3 1.94.48 1.55.87 2.43 1.55 3.58.68 2.04.1.29.58 2.32.58 5.04 3.1 33.82 2.14 22.77.87 8.63.58 6.4-19.19 1.84-9.98.58-3.49.39-8.15.96-15.41 1.56-10.46.77-9.6.68-11.44 1.45-23.65 2.33-13.18 1.06-13.76 1.55-19.19 1.94 2.32 24.33.78 8.81 1.65 11.54 1.16 9.2 5.23 51.46 4.17 45.35 2.33 26.75 1.84 18.51 1.45 17.73-1.45-.19-.19-.29.19-.68v-.78l-.29-.68-.68-.87-1.36.2-.87-.39-.39-.39-.38-.68h-.49l-.48.58-.59.49h-.48l-.48-.1-.2.29-.97.87-.48.2h-.39l-.68-.68-1.84-.39-.68.1-2.52 2.03-.58-.09-1.55.09-.87.39-.49.29-.48.2h-1.17l-1.06.97-.2.29.2 1.16-.1.68-.48 1.16-.68 1.26-.97 1.26v.39l.29.97v1.84l-.1.39-1.55 1.93-.39.29-.96.49-1.85.58-1.74.78-1.55.87-.87.29-3.78.48-1.75.58-1.26.49-.77.1-1.36.09-.58-.29-1.07-.39-1.84-.19z" stroke-linejoin="round"/></defs><use xlink:href="#c" fill="#9dc8ca" stroke="#6bb4d2" stroke-width="5.76"/><defs><path id="d" d="M1045.81 2096.37l1.07 13.76 4.36-.38 1.16-.2.19-.19.68-.49.49-.67.19-.49.2-1.16-.1-2.23-.29-5.04-.39-6.2.1-.87.29-.78.58-1.07 5.72-7.46.68-.77.67-1.36.2-.97-.1-2.32-.1-1.17-.19-2.81-.68-3.78-.97-5.52-16.18.29v1.16l2.42 30.72z" stroke-linejoin="round"/></defs><use xlink:href="#d" fill="#9dc8ca" stroke="#6bb4d2" stroke-width="5.76"/><defs><path id="e" d="M688.35 1573.08l-90.23 8.33-25.3 2.52-11.92.97.1-1.16-1.65-25.68-3.78-61.25-.1-2.03-.48-6.49-1.36-15.41-.1-2.23 4.07-3.2v-.97l-.67-13.27-4.56.19-27.72 2.42-.68-8.62-16.67.97-2.23.19.58 9.11-3 .19-2.81.2 1.26 19.48 3.29-.29.68 8.33h-2.03l.19 5.72.68 8.52 2.32-.09.1.87-77.05 5.52-6.59.58-15.22.97-19.77 1.46-15.8 1.06-26.08 1.94-10.75.68-81.81 5.81-8.91.59-7.56.58-9.41.48-31.3 2.33-16.29 1.06-76.66 5.53-27.14 2.03-18.13 1.16-9.69.78-.19-4.55-2.33-31.21-1.74-20.83-1.84-23.16-.59-6.21-1.74-21.8-.97-12.69-1.07-15.41-2.52-30.72-.68-8.34-2.52-32.56-1.74-21.22-2.04-28 6.6-.49 24.42-2.32 22.29-1.85 32.08-3.39 34.99-3.1 15.71-1.45 9.49-.87-1.84-24.91-1.16-23.64-.68-11.83-.87-11.63-.39-9.11-.58-14.63-.58-11.43-4.46-69.78-1.16-17.44-1.94-28.39-.68-11.92-.87-11.82-.68-11.92-.87-11.92-.58-12.02-3.2-47.68-1.65-24.51 3.59-.3 29.56-2.61 12.31-1.26 11.72-1.07 110.4 109.02 2.52 38.76.87 11.44.58 9.11 4.17-.49 26.95-2.61 13.57-1.07 6.59-.68 7.36-.68 13.96-1.16 45.56-4.07 1.35-.29.87 9.69v1.26l1.07 16.96 3.59 50.88 33.05 32.56 3.68-1.75 4.36-1.74 4.65-2.33 1.75-.39 1.16-.19 4.75.68-17.93-110.28 34.6-3.3 26.95-2.51 12.31-1.36 4.16-.2 1.65.1 4.17.68 3.59-.29 26.94-2.23 14.15-1.45 31.31-2.91 3.68 50.68 1.55 24.62.49 6.1.09 2.52-.09 1.55-.58 2.81-.39 3.3v2.9l.09 1.17.97 13.85 1.17 15.8 2.13 30.33 1.84 22.58 80.54-7.75 81.23-7.95 19.58-1.55 7.36-.77 7.47-.49 15.99-1.55 8.33-.87 8.34-.68 17.74-1.74 8.62-.68 8.63-.78 25.68-2.61 8.44-.68 9.78-.87 1.07-.39.97-.49 1.45-1.35.29-.39 5.43 2.03 4.27-.48 11.92-.97 4.55.19 1.46-.58 2.81-.48 6.78-.58 23.07-2.04 35.57-2.91 16.58-1.55 33.63-2.81 8.14-.77-1.26-15.41-1.16-17.64-4.07-54.85-1.07-16.95-2.03-26.75-.97-.58-1.26-.39-1.17-.77-1.94-1.75-1.55-1.26-.97-.97-.77-.58-.49-.58-.48-.68-.78-2.52-.09-.48v-1.46l-.2-.58-.29-.09-.87.09-1.74.78-.88.68-2.61 3-1.84 1.45-.49.68-.58.29h-.39l-.58-1.45-.29-.39-.39-.29h-.87l-.68.39-.68.68-.58 1.45-.39 2.62-.19 2.23-.19.77-.49.78-.39.38-.48.2-1.94.29-.87.29-1.17 1.45-.97 1.55-1.84 1.46-1.45.77-1.65.1-1.06-.39-2.72-2.23-2.62-2.42-2.13-1.84-.97-.87-1.55-1.55-.97-.97-.48-.58-.58-1.26-.29-1.07-.29-2.04-.1-1.45.1-1.65-.39-2.52-.49-1.55-.58-1.35-1.06-1.65-2.52-3.39-1.17-1.26-4.26-4.36-.68-.58-.78-.88-.97-1.45-1.64-1.94-1.17-1.55-3.19-3.49-.78-1.35-.58-1.46-.29-1.06-.29-.49-.49-.58-.39-.1-68.91 13.18-7.66-10.75-3.87-51.56-2.04-28.39-.68-9.3-1.35-19.1-1.65-21.51-2.91-40.41-1.06-16.76-2.33-28.49-.97-13.86-.29-3.39-1.75-24.23 2.91-1.55 141.9-11.34-.39-4.75-2.13-27.42-2.23-28.88-1.45-22-2.62-31.78-3.68-50.3-.68-7.17-.49-7.17-1.84-21.8-1.65-22-.68-7.27-1.45-21.51-1.16-15.02-.87-13.96-.59-7.17-5.52-70.74-.68-11.72-1.55-17.54-3.78-52.82-.29-2.81 2.52-.48 20.64-2.62 11.54-1.65 6.98-1.16 12.4-1.65 16.77-2.03 19.68-2.72 4.26-.48 35.86-5.14 9.79-1.26 11.34-1.64-.19-2.72-2.72-34.59-1.84-23.07-1.26-17.73-6.78-95.74 4.36-.58 19-1.94 9.98-1.17 31.6-3.39 13.47-1.35 9.5-.88 13.18-.97 18.71-1.64 20.74-1.55 4.36-.39 6.4-.68 1.26-.1 25.1-3.48 9.6-1.46 39.54-5.52 8.14-.97 28.79-2.91 11.53-1.26 29.47-3.2 2.42-.19 14.25-1.36 13.76-1.45 13.96-1.36 8.33-.97 11.83-1.26 9.5-.87 11.43-1.26 9.12-1.26 32.46-3.87 23.07-2.91 6.59-.87 32.18-3.69 9.99-1.26 5.42-.58 12.51-1.55 57.57-5.71 34.5-3.59 4.37-.48.87 9.3 5.43 71.42 1.16 13.76 1.26 16.47 4.75 59.6 3.58 42.35 2.52 29.75.97 10.95.49 7.95 1.26 13.27 3.68 44.09 1.36 17.16 1.36 16.37 11.92-2.9 8.91-1.55 14.35-2.04 20.35-2.42 31.12-3.2 41.58-4.36 14.63-1.16 14.15-1.55 4.56-.39 2.03 25.48.88 10.57 6.88-.97 11.24-1.26h2.71l.49-.49.1-.77.09-1.26-.68-9.11-2.03-24.81 15.7-1.74 14.25-1.46 6.69-.58 19.48-2.23 28.88-3.68 17.93-2.13 14.44-1.55 10.67-1.26 11.34-1.26.29 10.27 1.06 13.47-1.16 4.56-3.2 6.39 1.94 3.78 3 2.52 1.07 8.43 5.82 9.98.87 1.17.39.58.58.68 3.49 3.68 5.42 3 4.07.68 5.72-.39 10.28-1.16 1.35 16.09.49 5.13 1.65 18.12 1.26 15.22 1.45 15.79.78 10.18 2.81 33.82 3.2 37.31 2.52 29.07.96 9.98.68 5.23.39 1.85.49 2.9 2.9 37.31.68 3.59-.1 4.07-1.06.48-4.94 1.94-4.95 1.84-4.75 1.65-.29.1-5.04 1.45-5.14 1.36-5.23 1.16-4.55.97-1.17.29-6.78 1.16-8.73 1.07-10.66 1.26-22.68 2.81-4.36.58-7.07.77-6.98 1.07-1.07.1-2.03.09-1.75.2-11.63 1.26-9.5 1.06-20.06 2.62-4.27.48-5.62.88-3.1.29-6.69 12.3-1.55 2.72-1.35 2.13-7.86 12.89-1.84 3-2.23 3.88-3 5.13-7.95 14.15-3.59 6.4-6.2 11.92-6.78 12.11-17.26 29.95-1.26 2.32-32.08 55.53-6.39 10.66-8.73 14.63-5.33 9.4-2.42 3-1.94 3.11-1.55 2.71 5.33 1.55 4.36 1.16.39.1 1.74.19 2.52.39 3.78.19 2.91-.19 7.17-.68 8.63-.77 12.5-1.26 1.94-.1 3.98-.39.77 16.86 2.23 49.43-.48 8.62 22.97-.77 38.96-1.46.19 3.3.2 4.55.58 4.85.87 8.82.87 11.82.78 11.34.1 2.32.48 8.92.1 2.23.19 33.14.39 9.11.39 5.52.77 8.92 1.55 19.96.29 3.68.78 6.59.19 2.23.39 5.43.58 6.88 2.91 36.24.1.97.09 2.03 36.54-3.77 15.22-1.36 10.37-3.78 8.53-2.33-8.04-41.38 6.59 2.91 10.37 5.53 5.23 3 2.04 1.45 2.13 1.65 4.36 4.55 2.72 4.95 1.84 5.42.97 14.73.58 7.76 4.65-7.66 6.88-.48-.09-.49-1.75-24.42-5.14.39.97-3.68 7.18-.78 1.35-.29.39-.19.39-.49.09-.58.1-.97-.58-7.56 3.2-2.52 2.91 29.56 1.16 12.4 7.37 76.46 7.46-.77-.19.29-.97.48-2.14.58-.29 1.17 6.98 2.03-.1 1.36.2 1.74.19.68.29.2.68.19h1.26l2.13-.68 3.01.19 2.62.49.38.29.29.39.1 1.74-.39 1.84-.38.78-.59.77-.67.68-1.26.68-2.52.87-2.33.58-1.65.2-2.62.39-1.16.58-.87.48-.78.97-.29.19v.2l.88 13.76.67 1.16-3.39 5.23-.1.2-2.32-.49-1.94 12.31-.78 6.59-.29 3.1-.48 1.84-1.16 2.62-6.5 14.15-.87 2.03-.87 2.23-1.55 3.49-.88 2.33-1.16 3.77-.87 2.04-1.84 4.75-1.94 6.59-.68 2.03-6.4 18.51-4.26-.87-3.01-.29-1.55-.19h-1.94l-2.81.29-3.19.38-2.62-1.26.29-.19.29-.48-2.81-.1-.19 1.45-7.08.68-17.93 2.13-.87-8.23-1.07-12.7-19.58 1.84-19.29 1.75-.29-4.07-1.26-14.06-.58-7.84-12.11-9.21 2.61 32.08-9.2.77-13.38.97 2.42 33.63-10.76.97-11.05 1.25-11.14.97-4.75.29-3.88.49-.97.29-.48.58-.2.39-.09.58 1.16 15.7.39 6.4 6.1 1.84 1.94 18.12 1.07 18.8-6.49 3.58-9.6 5.82-2.81 1.45-1.07-.29-7.46 2.81-1.84.58-3.3.68-3.87.48-2.91.2h-4.36l-1.84-.1-5.53-.87-9.21-2.13-.87.29-2.13-.29-.58-.1-4.27-.58-2.62-.1-3.68.29-10.37 1.26-1.07-14.44-.58-7.65-3.39-46.13-1.16-8.82-.49-4.46-.09-1.45-.97-4.94 22.68-11.34 13.66-5.72 8.15-3.78-31.02-1.74-1.75.48-2.81 1.46-4.84 1.74-1.84.39-4.07.58h-1.56l-4.65.49-3.1.38-3.29.39-4.17.49-3.49.58-1.75.19-9.79 1.45-.67-.09-2.43-.49-1.06-.38-1.17-.97-.67-.88-1.65-2.61-.39-.87-.48-3.69-.3-3.68-13.57 1.55-6.59.87-13.08 1.84-6.2.78-1.17.1-8.43 1.16-2.62-3.3-.67-7.36-1.07-10.37-.19-1.45-1.36-14.15-.97-14.34-.1-.88-29.66 4.17.97 13.08 1.17 11.73 1.35 12.89 1.26 12.4-19.38 2.62-9.89 1.36-3.1.38-6.3.68-1.26-12.98-8.92.87-3.49.77 1.17 12.41-.1.29-.48.39-1.36.38-5.72.68-4.46.2-.87-.1h-1.94l-10.56 1.55-1.36-12.79-13.09 1.35-11.14 1.36 1.26 12.89-9.89.97-.77.19-.59.29-.29.58-.09.78.38 4.55.78 3.88.87.1 1.75-.1 1.74.49 1.55 1.35-8.04.97-1.36.1-11.82 1.35-11.83 1.36-13.18 1.36-9.4 1.06-.87-.29-8.73.78-12.31 1.45-6.98.78.2 1.35-12.8 1.26-3.39.29-8.62.2-2.81.1-10.47.87-9.11.77-3.88.29-12.5 1.26-11.73 1.07-.1-1.45-1.36.19-11.34 1.36-7.56.58-6 .48-8.05.68-4.46.48h-.39l-2.71.3-2.03.19-8.15.87-2.52.2-11.14.77-5.24.39-5.04.58-1.45.1-6.59.87-2.04.19-1.26.1-3.58.48-5.43.59-7.08.67h-.19l-.97.97-1.94.2-9.01.97-21.03 2.13-12.22 1.26-5.42.48-13.77 1.55-6.49.68-10.08 1.07-9.02.97-4.84.58-7.66.58-9.01.1-.78-8.73-9.59 1.07-6.11.48-.68-.09-.29-.2-.19-.58-1.17-9.69-6.01.68-5.52.68-2.42.1-5.04.29-2.91.09-5.53.1-8.04-.29-3.97-.29 1.93 23.84.88 9.2.38 3.39.97 9.31-.97.58-.48.48-.87.39-.68.2-.58-.39-.68-.97-.49-1.26-.77-2.91-.39-.97-.48-.38h-.68l-.78.19-.68.29-.96.68-.88 1.06-1.06.29-1.55.1-2.04-.19h-2.52l-1.74.68-.29.09-.88.78-.48.68-.58.29h-.58l-2.23-1.26-1.17-.29-.77.29-1.36.58-1.26.29-1.16-.29-.68-.29-.58-.39-9.4-3.1-2.33-36.44 3.88-.77.19-.1-.58-9.98-2.52-.49-1.75-.58-1.84-.48-7.95-3.68-4.07-2.14-2.52-1.64-3.58-2.62-12.41-8.62-2.32-1.55-2.33-1.17-4.27-1.26-2.81-.58-18.61-2.91-9.98-1.16-2.81-.58-1.45-.48-2.72-1.36-1.74-.87-1.36-.29-2.81-.39-2.23-.2-4.94-.09h-6.21l-7.94-.2-1.17-.29-1.35-.48-2.52-1.46-4.07-3.29-3.01-2.23-1.55-1.16-1.94-1.07-.87-.29-1.16-.48-2.52-.29h-2.72l-18.22 1.26-19.67 1.93-5.24.49-14.83.97-14.44.77-5.72.29-25 1.55-2.43.2 1.65 21.51 3.49 46.42 1.94 24.13-7.95.87-16.28 1.94-16.19 2.03-16.19 2.04-16.28 1.55-32.37 2.81-8.82.97-8.82.77-10.28.97-5.71.78-3.3.1-4.55.48-11.73.97-.49.1.1 1.64 1.26 18.13 2.71 34.59.68 11.34.87 11.53.78 7.95.39 1.64.09 1.55-40.12 3.3-36.45 3.39-1.26.1-38.09 3.97-38.48 3.2z" stroke-linejoin="round"/></defs><use xlink:href="#e" fill="#6bacaf" stroke="#097d9b" stroke-width="5.76"/><defs><path id="f" d="M1396.58 702.28v1.55l.58 6.98 1.16 12.79 2.91 37.99 4.75-.39 6.4-.49 10.76-.77 3.48-.39 7.08-.87 6.88-1.45 6.2-.68 23.94-2.81 8.53-1.17 3.49-.38 5.33-.59 4.08-.48 16.08-1.55 3.3-.48h.48l6.21-4.95-1.17-3.19-.09-1.75-.2-.68-.38-1.45-1.36-3.39-.29-1.65-.1-1.36.58-2.81.1-.38.68-1.36v-.78l-.2-3.49-.77-9.78.1-1.07.09-2.03-.48-4.95v-.77l.1-10.18-.68-3.39 7.56-.87.87.29 17.06-2.13h.97l.58-.1.19.1.29-.2.49 2.52 1.45 6.01 4.17-.48.1 2.81 3.58-.29.1-2.72-.1-8.91 1.36-.29 1.07 10.95 4.26-3.49-.97-8.04-.39-2.52-1.16-15.99v-.39l-.39-6.3.2-1.74.97-3.2.87-3.2.29-2.23.1-2.81v-1.55l.29-1.26.58-1.06-.97-1.56-.29-1.06-.39-3.68-.39-2.62-.19-1.16-.29-.78-.49-.77-.77-.68 8.14-.87 3.97-.49 9.7-1.16 7.56-.49-.2-11.53-.58-11.24-.68.39-.97.19-16.47 1.46-.59-3.01-.96-2.03-1.56-1.75-1.64-1.06-2.91-1.36-1.36-1.07-1.16-1.64-.68-1.75-.48-2.13-.78-8.33-1.65-20.74.1-1.65 5.14-.58 2.9.19 4.08-.19 8.14-1.07 5.42-.38.97-.2 1.17-.39.38-.58.1-.38.39.48.39.19 1.06-.09 1.07-.49 1.36-.19 3-.2 10.37-1.25 2.42-.3.3-.19.19-.29v-1.26l-.78-6.98 1.26-.87-1.06-9.59-1.94-19-.78-7.26-.58-6.59-1.65-14.93 2.43-.39-7.37-74.13-2.62.39-6.97.77-3.49.39-8.14.97-2.04.19-3.97.59-5.04.58-13.96 1.55-5.82.87-4.55.29-3.01.1-.58.09-5.43.78-8.82.87-33.34 3.2-17.15 1.65-18.71 2.03-18.42 1.84-14.44 1.46-18.99 1.94-9.99.96-9.4.97-31.5 2.91-5.04.49-2.81.19-2.52.29-15.9 1.55-4.07.39-11.05 1.06-22.77 2.52-1.94.1-4.36.1-3.78.38-21.71 2.33-27.24 3.1 2.04 26.26 2.32 32.76.97 12.89.29 3.29.78 11.63-.1 2.13-.58 3.3-.1 1.74 1.84 26.36.88 10.37.29 1.06 1.16 3.11.29 2.9 2.81 35.37.58 7.56 3.3 45.06 2.03 26.07 1.17 16.48 6.39-.59 51.66-5.71-6.88-86.73 52.44-3.88 7.07-.58.39 6.1 2.04 26.36.48 7.66 4.56-.39 34.5-3.88.1 1.36.58 5.23.19 1.17 2.14 30.23.58 6.59z" stroke-linejoin="round"/></defs><use xlink:href="#f" fill="#6bacaf" stroke="#097d9b" stroke-width="5.76"/><defs><path id="g" d="M1654.49 1605.25l-.68 6.59-5.62-.77-6.59-.97-8.14-1.17-2.52-.19-5.14-.48-6.1-.68-2.62-.49-2.04-.38-2.03-.59-8.05-2.9-1.84-20.06 11.83-.87-.97-10.57-11.73 1.17-5.04.58-8.24.68v-1.94l-1.16-11.15 13.08-1.45-1.26-13.08-1.35-12.99 11.92-1.06-.87-11.73-.1-1.94-.1-1.06-.87-10.47-.1-1.55-12.02 1.36-1.35-14.15-.49-6.11-.19-1.64 2.71-.2 8.92-.77 12.6-1.17-.39-6.49-.39-6.3-.38-5.72-.78-9.69-.1-3.19-.09-.97-.68-5.62-.49-6.01 19.68-2.04 1.16 12.7 14.93-1.75 4.26-.38.78 8.43.97-.1 11.44-1.07 1.74 16.19.49 5.33.19 1.93 1.74-.19 21.04-1.65-.59 5.14-1.64 10.66-6.01-.58-.29 1.06-.2 1.46-.19 3.29 1.16-.09 4.56-.59-.2.39-.58 2.42-2.13 7.08-1.45 3.87-1.55.2-3.78.39h-.59l-.38-.29v-.2l-6.11 2.04.29.97 1.07 11.53 5.91-.49 1.74-.19 7.47-.58.38 2.9.88 9.89-7.76.97-7.85.77-6.49 16.67-3.2 8.72 27.33-6.1.68 6.98-8.63 1.16-4.84.48 1.16 14.64-14.54 1.74 1.46 16.76-10.57.88-1.06.19-.59.19-.38.49-.78 1.16-.58 1.84-.1.97z" stroke-linejoin="round"/></defs><use xlink:href="#g" fill="#09757a" stroke="#00465f" stroke-width="5.76"/></svg>