<svg width="384" height="7.74in" viewBox="0 0 2880 5573" xmlns="http://www.w3.org/2000/svg" xmlns:xlink="http://www.w3.org/1999/xlink"><path fill="#fff" d="M0 0h2880v5573H0z"/><defs><path id="a" d="M1380.44 5512.05l-8.54 5.57-8.53.87-6.8-2.09-10.1-9.23-6.44-8.01-7.14-8.36-3.66-5.92-4.18-10.1-6.62-15.85-3.65-10.8-7.49-16.89-1.57-2.62-1.92-1.91-4.87-6.1-5.58-4.87-6.44-4.18-7.84-2.09-8.01-.35-8.19.87-13.93 2.09-5.75 1.57-5.22.87-8.19-1.74-5.4-2.27-6.79-3.13-4.53-3.66-4.87-5.05-5.75-5.92-6.27-9.41-4.36-5.74-2.61-2.44-1.04-2.44-1.92-3.48-2.79-3.14-4.7-3.31-4.87-1.91-6.27-.18-6.45 1.22-1.91 1.22-2.97 1.74-2.96 2.09-2.43 1.92-6.8 7.14-3.13 4.18-4.53 6.44-4.18 9.41-11.32 23.86-4.7 7.14-7.32 5.4-10.27 9.92-7.32 6.45-4.18 1.56-5.4.53-7.49-.7-6.62-.7-6.27-2.26-10.45-6.79-15.32-10.8-10.8-6.62-9.06-6.62-6.09-5.22-12.89-11.84-10.63-10.8-7.83-4.7-6.62-2.27-9.41-3.48-10.27-4.35-9.23-4.36-10.1-2.96-16.2-2.44-14.63-.35h-10.45l-6.27 1.75-4.36-.35-2.61.69-3.83 1.57-3.66.35-11.49-2.09-10.97-2.26-16.55-2.44-22.29-4.18-16.37-1.57h-5.4l-7.32.52-5.57-.35-4.01-1.04-3.31-1.05-2.44-2.61-2.61-3.83-1.57-4.88-1.56-9.05.35-14.46-.7-10.79-.52-6.97-1.4-3.83-2.44-3.31-2.96-2.96-2.43-1.57h-5.06l-4.87.35-4.01 1.74-3.83 2.61-3.48 3.14-1.57 1.74-2.26 4.18-1.92 3.31-5.57 12.02-6.62 15.32-10.8 22.47-4.88 9.23-5.74 8.36-5.75 5.57-2.09 1.57-1.92.17-1.74-.52-1.74-1.92-1.22-1.56-1.39-4.88-2.44-7.14-2.61-8.36-3.31-9.4-4.18-10.98-2.79-6.96-3.66-9.06-14.28-25.43-3.66-6.79-4.18-2.61-3.83-2.44-3.48-4.18-2.79-5.57-3.48-6.79-4.7-10.45-3.84-8.36-5.05-15.68-1.22-2.61-1.56-3.66-.87-3.48-1.05-5.05-1.04-7.66v-22.47l-1.4-7.49-1.39-4.18-1.92-3.13-2.43-1.92-3.31-2.26-3.49-1.39-2.78-1.22-4.88-.7-6.62-.52-8.71-1.05-9.05-.69-16.9-3.66-12.01-4.36-5.06-2.09-13.23-3.3-8.19-1.92-5.92-2.44-24.03-3.83-4.88-1.57-4.88-2.26-3.13-2.44-1.57-2.96-1.22-4.7-4.88-3.66-3.13-2.44-11.32-108.5-.35-10.97-1.22-16.54-1.57-16.72-.69-8.01-.7-9.06-.52-4.35-.52-7.32-.53-6.09-2.44-28.22-4.35-52.24-.52-7.14-.52-4.01-2.27-24.9-2.79-33.62-2.78-34.83-2.96-32.74-.18-2.44-1.04-13.58-1.92-21.77-2.78-34.48-3.14-35.36-2.96-34.66-.52-7.31-1.57-20.9-.52-6.79-.35-4.53-.18-2.09-.87-8.53-.69-7.84-.87-7.14-1.22-2.96-.18-2.61-2.78-34.14-.35-4-.35-6.62-.52-5.75-3.14-35.7-8.01-87.25-4.18-44.06-1.04-13.94 14.28-1.22 3.65-.34 18.29-1.05 17.77-1.57 10.27-.87 4.01-.35 10.97-.87 4.53-.34-1.74-22.64 68.79-5.75 13.59-1.57 4.18-.17 4.35-.35-5.05-55.56 30.31-3.65 2.43-.88 24.56-1.74-.52-1.39-.52-2.26-.7-3.14-.17-3.31 59.91 4.36 51.55-5.58 36.4 11.32 26.3 47.72 2.27 1.05 2.09 1.22 2.96 1.21 5.74.88 2.09-.18 2.79.52.17 4.36 6.97 2.44 1.39 1.74 1.4 5.05 1.91 3.83 5.23 6.1 4.35 6.09 20.03 24.9 2.27 2.62 2.26 1.39 5.4 1.74 2.26.7.87 2.61 2.62 2.09 50.33 48.24 2.61.52 2.44 2.44 4.53 6.27 14.28 17.42 5.92 7.31 1.74 2.09 6.97 5.23 2.44 5.05 6.97 1.22 15.32 9.92 7.84 5.05 1.57 16.37-5.23.7-8.88 1.05-9.75 1.22 42.14 67.39 2.09 2.62 54.34 60.43 12.89-1.57 3.14-.52 3.66-.18 102.06-10.97 60.78-6.79 28.39-2.79 34.31-3.48 16.72-1.57 12.02-1.22 31.69-2.43 16.03-1.4 21.94-1.74 25.61-2.44 29.08-1.91 15.33-1.22 14.1-1.05 8.36-.69 22.3-1.92 16.2-1.91 14.45-1.75 1.74-.17 1.74 17.42.53 5.57.52 4.35 3.48 38.49.87 12.71 3.84 41.63 1.91 20.2 2.09 23.69.87 11.66 3.14 35.36 3.83 42.32 1.04 11.32 1.4 15.5 1.56 16.54.88 9.75 5.74 61.66 1.05 10.62.52 5.22 2.26 3.66.53 5.57 2.43 26.48.18 5.92.35 4.7.52 6.97.17 2.09.35 4.18 3.14 34.13.87 9.75 1.91 14.81 1.57 11.14 1.22 8.71.7 6.44.52 5.23 2.26 22.46.18 3.84 1.39 12.19.18 3.13.52 4.36.17 6.79.35 1.57.52 4.35.53 3.83 1.21 7.66.7 3.84.18.87 2.09-1.22 1.74-.87 2.78-1.05 2.96-.52h4.53l1.57.17 2.96.87 2.96 1.22 2.96 1.57 2.96 2.26 3.66 3.49 17.59 18.81 8.88 10.27.7.7 12.89 13.41 4.01 3.31 3.3 2.44 2.09 1.21 1.57.7 1.57.87 1.74.7 1.39.35 1.05.34 1.04.35 1.4.35 1.39.18 1.92.17 2.78.17 5.75.18 5.92-.18 16.03-.69 12.01-.18 2.62-.17h1.56l1.22.17 6.79.87 9.24 1.4 18.46-1.74 26.12-2.09 8.54-.7 7.14-.52 30.65-2.62 11.15-1.04 49.81-3.83 18.11-5.05 2.61-.35 11.67-1.57 9.06-.87 11.32-1.39 2.96-.35.7 6.27.52 4.7.17 2.61.53 4.18 1.22 12.72 3.3 36.22 7.15 83.6 2.61 26.64.17 2.44-2.96-1.22-1.57-2.26-2.96-5.92-2.44-2.79-9.23-4.01-9.92-3.83-8.89-1.22-4.18.87-6.61 3.66-6.8 3.66-11.67 7.49-6.79 4.35-10.27 5.05-6.8 3.66-6.79 2.61-5.92 3.66-11.84 4.18-13.41 9.23-2.97 2.61-3.83 5.57-6.62 14.28-3.3 4.36-2.44 2.61-4.01 1.57-5.75 1.74-6.61 4.01-8.02 3.65-3.83 1.22-5.74 1.57-4.18.7h-3.66l-2.61-.18-5.23-.52h-1.92l-1.39.7-1.39.69-1.92.53-3.48-1.22-4.36-.87-3.13 1.04-5.4 1.05-2.79 1.04-.69.17-3.31 1.75-3.14 1.39-3.48 1.57h-1.39l-3.66-.53-5.4-3.13-5.75-2.61-8.53-1.4-7.49.7-6.27 1.92-5.23 2.09-7.31 3.65-9.58 10.97-6.79 9.58-8.19 9.93-6.27 5.75-3.48 2.26-4.18 1.39-3.83 1.22-4.36.35-5.57-2.09-9.41-2.26-13.75-2.79-9.76-.17-7.49 1.39-7.83 4.01-8.19 8.01-7.14 6.44-4.53 4.18-3.66 4.01-2.43 2.96-2.09 2.61-2.44 3.66-2.44 2.61-2.09 2.96-2.61 1.74-3.49 1.57-4 .52-5.75.52-6.27-.52-6.1-.87-4.52.52-4.71 1.57-5.05.7-2.96.87-2.96.35-1.92.17-1.56.35-2.27-.87-3.13-1.22-2.79-.52-2.96-.87-4.35-1.92-4.88-4.18-7.49-4.53-10.1-6.44-15.33-3.48-8.71-1.92-5.39-.17h-7.84l-5.92 1.91-4.53 2.79-.52.35-4.01 4.35-2.09 2.79-5.05 6.44-6.1 7.49-9.23 13.23-4.87 5.06z" stroke-linejoin="round"/></defs><use xlink:href="#a" fill="#9dc8ca" stroke="#6bb4d2" stroke-width="5.76"/><defs><path id="b" d="M1225.08 3577.34l-2.09 3.31-4.18 5.05-14.8 9.76-14.29 9.57-8.7 4.53-7.14 2.27-7.15 1.56-9.75 1.4-23.51 1.91-19.68-.35-14.46-1.56-13.93-3.14-8.53-3.31-16.9-6.96-5.57-4.18-29.96-26.47-8.01-7.84-11.32-11.15-9.75-8.36-3.31-2.09-3.31-1.56-5.4-2.44-6.97-3.14-6.79-2.96-4.36-2.09-5.39-2.09-4.71-1.57-3.65-1.21-1.4-.53-1.56-.52-5.4-2.09-6.45-1.91-2.78-.7-3.49-.52-7.84-.53-5.74-.17-9.41-1.05-9.75-1.21-7.66-.53-5.23-.35-3.66.7-5.57.52-4.01-.34-3.48-.7-6.1-.7-6.27-.69-6.61.52-7.32.52-11.67.35-11.49-1.22-13.76-1.74-7.66-1.74-8.36-2.79-10.8-4.01-8.19-2.78-13.58-5.92-17.77-8.19-10.62-5.75-9.93-5.05-16.89-9.75-12.54-6.97-14.98-9.23-11.32-7.48-10.8-6.62-13.24-8.19-12.54-7.31-13.41-6.79-3.83-1.92-4.18-1.57-5.75-1.74-.17-11.14-.87-7.84-1.4-8.19-1.21-5.4-1.22-5.05-3.31-10.27-29.09 5.4-4.18.35-6.62-1.75-11.14-5.22-43.72-22.99-8.01-3.83-7.66-5.23-4.53-4-6.1 18.98-9.05-6.62-6.97-5.05-4.88-3.48-4.7-2.61-5.4-3.31-5.92-3.48-6.27-4.18-5.23-2.79-4.52-1.57-13.59-3.13-7.14-1.22-6.27-.87-8.36.69-2.96.53-11.84-.87-18.64-2.79-21.42-1.92-6.79-.34h-13.24l-20.55-2.27-9.41-105.71-2.61-27.87-2.26-26.12-1.4-18.11-1.74-19.51-5.22-52.77-.18-1.74-1.74-15.5-.7-8.71-7.14-81.15-1.74-19.33-4.7-54.69-6.62-78.72-15.85-185.65-12.36-102.23-1.92-50.68-.35-12.71-4.35-47.89-2.27-22.64 4.71 4.35 11.49 11.15 5.57 4.87 8.19 6.1 10.62 6.44 11.15 6.27 9.06 4.88 5.92 2.61 4.7 1.74 5.92 1.22 3.14.35 9.58.87 19.68 2.26 25.95 3.31 17.76 2.61 13.94 1.92 18.81 2.44 18.11 2.61 6.09.35h7.67l1.74.17 2.61.53.35-2.44 1.74-11.15 3.31-22.99.52-2.78 118.61 32.22 5.92 8.7 11.5 16.03 13.41 17.58 16.02 21.08 4.18 5.4 3.66 4.7 16.72 21.94 3.83 4.7 13.93 17.94.87 13.06-1.22 2.97 1.22 12.71 1.05 12.71.52 4.53.52 6.44 1.4 18.12.69 8.01.87 10.8 1.05 14.8 1.04 12.71.53 8.36.69 8.36 2.09 3.48 1.4 18.99 1.91 20.72 2.79 33.27-10.45.87-8.88.52-8.71.87-8.01.52 2.78 33.96 3.49 36.92.87 9.58 4 46.33 5.4 13.23 5.75 65.66 1.39 3.83 15.5-1.39 15.16-1.05 32.39-2.61 16.9-2.44 15.5-2.09 14.8-1.56 1.74-.18 9.41-1.04 3.31-.35 3.65-.35-1.56-2.44-5.05-8.53-4.71-9.06-5.57-13.23-1.39-3.49-3.66-8.18-3.31-8.19-2.61-7.83-2.62-8.89-1.04-3.83-1.22-10.8-.52-3.13-1.57-8.53-1.22-8.54-.7-6.09-.87-8.71-1.39-25.08-.35-4.7-2.26-24.04-1.05-9.05-.52-3.31-2.09-14.11-.7-7.14 3.14-.35 20.55-1.91 7.66-.87 20.56-2.79 2.09-.17 7.31-.87 34.83-3.49 35.01-4.18 17.59-1.74 21.08-2.09 68.62-8.01 32.04-3.13 18.46-2.62 23.69-2.26 36.75-3.83 16.89-2.27 29.79-2.43 8.88 8.18 14.45 135.67-8.88 17.59 4.36 48.94 2.26 28.21 3.14 39.01 5.92-.52 4.7 22.29 7.66 13.93 3.66 18.46 2.26 11.32.35 2.09.7 6.27-14.63 25.6-.87 1.4-.52 1.91.17 2.62.17 2.78.35 4.01.53 5.4.52 4.7 1.39 14.45 1.39 15.5.35 6.62 2.96 35.18 1.4 15.15 1.56 16.9 1.75 18.11 1.56 16.19 1.92 18.64 6.44 69.49 5.58 66.7.17 1.39.35 1.4.7 1.56.69 1.22.87.7 3.14 16.54 3.13 17.25 2.09 9.92-1.74 6.79.7 2.62 2.09 7.83 1.22 4.71 1.39 4.7h-1.91l-1.92.17-5.23-.35 2.62 10.8 3.31 10.28 8.18 19.85 6.79 25.95 12.2 36.92 2.26 2.61z" stroke-linejoin="round"/></defs><use xlink:href="#b" fill="#9dc8ca" stroke="#6bb4d2" stroke-width="5.76"/><defs><path id="c" d="M1894.75 4475.64l-7.84 5.23-24.04-15.33-28.21-17.07.35 5.05.69 6.8-8.53-4.71-5.05-2.26-22.47-15.5-39.71-19.68-80.81-40.23-31.7-18.29-5.05 2.09-10.45 1.4-16.55-2.96-71.75 5.74-17.94 1.74 2.09 100.14 3.13 34.84-1.74.17-1.74.17-14.45 1.75-16.2 1.91-22.3 1.92-8.36.69-14.1 1.05-15.33 1.22-29.08 1.91-25.61 2.44-21.94 1.74-16.03 1.4-31.69 2.43-12.02 1.22-16.72 1.57-34.31 3.48-28.39 2.79-60.78 6.79-102.06 10.97-3.66.18-3.14.52-12.89 1.57-54.34-60.43-2.09-2.62-42.14-67.39 9.75-1.22 8.88-1.05 5.23-.7-1.57-16.37-7.84-5.05-15.32-9.92-6.97-1.22-2.44-5.05-6.97-5.23-1.74-2.09-5.92-7.31-14.28-17.42-4.53-6.27-2.44-2.44-2.61-.52-50.33-48.24-2.62-2.09-.87-2.61-2.26-.7-5.4-1.74-2.26-1.39-2.27-2.62-20.03-24.9-4.35-6.09-5.23-6.1-1.91-3.83-1.4-5.05-1.39-1.74-6.97-2.44-.17-4.36-2.79-.52-2.09.18-5.74-.88-2.96-1.21-2.09-1.22-2.27-1.05-26.3-47.72-36.4-11.32-51.55 5.58-59.91-4.36.17 3.31.7 3.14.52 2.26.52 1.39-24.56 1.74-2.43.88-30.31 3.65 5.05 55.56-4.35.35-4.18.17-13.59 1.57-68.79 5.75 1.74 22.64-4.53.34-10.97.87-4.01.35-10.27.87-17.77 1.57-18.29 1.05-3.65.34-14.28 1.22-1.22-11.84-.7-7.49-2.96-33.61-4.01-45.63-2.26-28.91-.52-5.05-1.74-17.59-1.4-15.85-2.96-34.13-2.96-33.79-3.13-34.13-.88-11.85-2.09-21.76-2.43-33.79-1.4-19.33-1.22-13.76-1.04-17.07-1.39-16.37-2.09-34.48-2.79-32.92-2.96-33.78-3.14-32.75-2.96-33.08-1.39-14.46-3.14-35.53-1.56-19.33-3.84-44.93-2.09-22.64-.17-2.27-3.13-35.35-1.92-20.72-1.39-12.89-.7-6.1-1.05-10.62v-.7l-.52-5.57-1.04-9.75-1.57-31.18-.52-9.92v-7.84l-.18-2.26-7.66-84.99-2.61-28.74 20.55 2.27h13.24l6.79.34 21.42 1.92 18.64 2.79 11.84.87 2.96-.53 8.36-.69 6.27.87 7.14 1.22 13.59 3.13 4.52 1.57 5.23 2.79 6.27 4.18 5.92 3.48 5.4 3.31 4.7 2.61 4.88 3.48 6.97 5.05 9.05 6.62 6.1-18.98 4.53 4 7.66 5.23 8.01 3.83 43.72 22.99 11.14 5.22 6.62 1.75 4.18-.35 29.09-5.4 3.31 10.27 1.22 5.05 1.21 5.4 1.4 8.19.87 7.84.17 11.14 5.75 1.74 4.18 1.57 3.83 1.92 13.41 6.79 12.54 7.31 13.24 8.19 10.8 6.62 11.32 7.48 14.98 9.23 12.54 6.97 16.89 9.75 9.93 5.05 10.62 5.75 17.77 8.19 13.58 5.92 8.19 2.78 10.8 4.01 8.36 2.79 7.66 1.74 13.76 1.74 11.49 1.22 11.67-.35 7.32-.52 6.61-.52 6.27.69 6.1.7 3.48.7 4.01.34 5.57-.52 3.66-.7 5.23.35 7.66.53 9.75 1.21 9.41 1.05 5.74.17 7.84.53 3.49.52 2.78.7 6.45 1.91 5.4 2.09 1.56.52 1.4.53 3.65 1.21 4.71 1.57 5.39 2.09 4.36 2.09 6.79 2.96 6.97 3.14 5.4 2.44 3.31 1.56 3.31 2.09 9.75 8.36 11.32 11.15 8.01 7.84 29.96 26.47 5.57 4.18 16.9 6.96 8.53 3.31 13.93 3.14 14.46 1.56 19.68.35 23.51-1.91 9.75-1.4 7.15-1.56 7.14-2.27 8.7-4.53 14.29-9.57 14.8-9.76 4.18-5.05 2.09-3.31 2.09 5.4-9.23 13.24-11.84 17.24 5.22 49.63 2.96 25.08 2.09 19.68 1.74 18.99 1.05 10.44.69 9.24 1.92 20.89 33.09 17.07 31.87 16.72 14.29 7.49 18.46 9.75 1.22.7 1.22.52 4.18 1.57 2.61.69 21.59-.69 30.14-2.79 30.47-2.26 14.98-1.22 15.68-1.39 14.1-1.4 11.15-1.04 7.49-.35 2.09-.18 4.53-.52 6.27-.52 2.96-.17 5.4-.53 38.49-3.31 12.71-1.04 56.43-4.88 46.51-4 70.18-5.92 104.68-8.36 9.4-.7 32.22-2.26 9.76-.7 59.91-5.57 12.54-1.05 7.31-.52 2.96 28.73 3.14 26.48 1.57 17.06 3.31 39.89.34 10.1-.52 8.18-2.26 13.24-2.96 11.84-1.92 4.88-4.7 10.1-10.63 18.98-4.52 7.84-4.71 7.31-4.87 9.41-7.67 13.76-5.05 8.01-9.23 15.32-17.59 27.69-6.79 10.8-7.49 13.24-2.79 6.09-3.13 8.36-2.61 9.93-2.27 14.98-.17 4 .35 17.94 3.83 47.37.69 10.28 1.22 14.62 10.63 125.75.87 8.53 1.22 9.23 2.09 27.69 3.13 34.48 3.14 34.83 2.44 28.39z" stroke-linejoin="round"/></defs><use xlink:href="#c" fill="#6bacaf" stroke="#097d9b" stroke-width="5.76"/><defs><path id="d" d="M707.11 2959.61l-32.39 2.61-15.16 1.05-15.5 1.39-1.39-3.83-5.75-65.66-5.4-13.23-4-46.33-.87-9.58-3.49-36.92-2.78-33.96 8.01-.52 8.71-.87 8.88-.52 10.45-.87-2.79-33.27-1.91-20.72-1.4-18.99-2.09-3.48-.69-8.36-.53-8.36-1.04-12.71-1.05-14.8-.87-10.8-.69-8.01-1.4-18.12-.52-6.44-.52-4.53-1.05-12.71-1.22-12.71 1.22-2.97-.87-13.06-13.93-17.94-3.83-4.7-16.72-21.94-3.66-4.7-4.18-5.4-16.02-21.08-13.41-17.58-11.5-16.03-5.92-8.7-118.61-32.22-.52 2.78-3.31 22.99-1.74 11.15-.35 2.44-2.61-.53-1.74-.17h-7.67l-6.09-.35-18.11-2.61-18.81-2.44-13.94-1.92-17.76-2.61-25.95-3.31-19.68-2.26-9.58-.87-3.14-.35-5.92-1.22-4.7-1.74-5.92-2.61-9.06-4.88-11.15-6.27-10.62-6.44-8.19-6.1-5.57-4.87-11.49-11.15-4.71-4.35-5.05-54.34 2.27-26.65-2.27-20.2.7-21.59-1.92-7.49-4-13.59-10.28-26.99-4.18-74.37-13.58-173.63-2.44-20.55-1.4-3.83-1.74-6.1-10.27-141.06-1.4-20.9-.69-9.41-5.05-57.82-15.16-196.62-1.56-31.17-3.66-65.66-3.31-39.53-13.06-158.49-.7-8.7-.87-10.63-33.96-407-.35-3.48-.52-6.97-.35-4.35-.18-3.84-4.35-51.55-4.01-47.89-1.91-21.77-5.05-58.86-.87-10.8-5.58-69.66-.17-11.5-4.88-58.34-4.35-65.13-.18-3.49-.17-2.78v-1.22l-.17-.87v-.87l-.18-.53v-1.04l-.17-2.44-.18-3.14-.17-1.39-.17-4.18-1.92-22.99v-12.36l-4.53-97.01 2.44-7.66.7-6.44 1.04-8.36-1.04-9.41-.7-6.27-.52-4-2.62-23.69 1.92-.52 1.39-1.39 3.31-4.53 7.32-10.28 16.54-19.5 20.38-22.99 16.72-19.51.52-.17 1.05-.17 15.33 18.11 45.8 50.5 16.37 17.77 60.26 67.57 30.13 33.44 12.37 14.28v.87l.17.52-.52 1.22L229.55 314l-1.22 2.09.18 1.05 3.3 4.7 8.02 10.28 4.35 7.14 2.44 2.96 2.96 3.13 12.19 17.59 16.55 19.33 10.97 15.15 27.69 35.18 28.91 34.66 24.56 24.73 10.45 8.71 6.27 3.13 9.06 5.4 7.49 1.92 12.01 5.57 2.44.52 2.96-2.61 21.95-35.35 4-5.92 2.09-1.92 5.4-2.61 6.79-2.27 1.05-.17 6.79-.17 8.88 1.91 23.69 11.67 18.98 11.32 13.07 8.88 8.71 5.92 8.88 6.97 11.14 10.8 5.06 7.49 2.09 13.06 1.56 35 3.66 45.81.52 4.18 1.4 3.48 10.45 6.62 1.39 1.91.7 3.83v3.84l-1.75 5.22-6.27 11.15-2.61 5.22-1.04 2.96.52 3.31 1.57 3.14 3.13 3.65 4.18 2.96 3.83 2.09 2.27-.34 2.96-4.18 2.61-4.01 1.39-.87.87-.17.7.87.18 1.39-1.4 2.61-9.05 14.11-9.06 15.15-1.74 2.61-3.83 5.92.34 5.92-2.61 21.08.52 3.13.53 6.62.87 6.79.87 10.28.87 10.1 1.39 17.76.35 2.79.52 5.92-33.61-26.99-15.85-12.37-18.11-14.11 8.71 90.74 2.96 25.78-9.23.87-20.73 1.74-2.96-33.44-3.48-38.49-6.97-71.93-.18-1.91-.34-3.66-7.67-4.35-19.33-13.93-24.9-17.07-31.88-22.64-17.41-12.54-24.39-19.51-10.62-9.4-22.82-17.59-5.4-4.18-4.52 4.35-21.77 19.68-1.75 1.57-1.74 1.74-1.74 1.57 8.88 10.62 9.41 10.28 1.04 1.22 12.72 14.97 4.7 5.58 1.04 1.39 2.27 2.79 3.66 4.18 3.31 4 8.88 10.28 8.18 9.4 2.09 2.27 1.05 1.21 2.79 3.14 4.18 5.05 20.37 23.86 26.48 30.65 8.18 9.75-8.01 8.71-.87 1.39-.52 1.75-.18 1.74.18 1.57 2.61 22.11-30.48.18-1.39 12.36.87 8.36.52 9.41v9.75l-1.74 8.53-5.75 18.29-6.27 21.59-.87 4.53-6.1 20.03-7.31 19.16-2.79 5.74-1.39 2.09-10.97 10.63-3.14 4.35-5.4 9.76-19.33 25.07-21.07 32.05-9.23 12.54v1.39l.52 1.74.52.7.87.17 1.39-.35 2.09-2.61.88-.52h1.56l2.79.87 22.99 21.42 1.22 1.74.7 2.27v4.18l-.53 1.39-.87.87-.52 1.39-2.44 3.84-1.91 4-1.92 8.19.35 4.18 1.91 11.84 3.14 7.84 4.53 7.49 3.13 3.48 10.63 12.02 2.26 4.7 3.14 2.44 8.7 5.39 2.44 2.09 3.66 6.62.35 3.31.52 4.7-.35 16.72 1.05 9.41 1.74 11.14 1.22 4.7 2.09 4.88 2.26 3.31 5.23 3.31 4.35 1.91 8.53.53 10.45-1.22 8.02-.52 2.61 1.74 2.61.69 1.57 1.22 1.74 1.05 2.09 6.96.7 4.88 1.56 10.97.35 3.83 2.09 19.51 1.74 26.47v7.14l1.57 4.01 1.92 2.44 4 1.56 10.28 2.96 17.76-.69 7.49-1.05 3.49-1.57 4.7-4 3.48-1.57 4.71-.17 2.26.52 2.09-2.26 4.35-4.53 2.96 4 .53.53 20.2-1.57 12.89-1.05 17.76-6.96 1.22 13.93 2.27 28.21 6.09 69.84 1.4 14.98 3.13 34.83 4.88 56.08 1.74 18.98.7 7.49 4.18 44.58 1.56 20.38 1.22 13.06 11.67-1.04 17.77-2.09 16.89-2.09 9.58-1.05 11.67-1.39 18.11-2.09 14.11-1.4 13.58-1.56 13.07-1.57 17.94-2.09 21.94-2.44 15.85-2.09 23.16-2.61 48.77-5.23 32.39-4.18 40.24-3.83 1.91 22.82 1.4 17.24 1.04 11.32.35 2.26.7 2.09.52 1.22 1.04 1.22 1.22.87 2.27.52 21.07-1.21 17.07-1.57 16.89-2.09 8.71-.7.87.18.35.17.35.35 1.39 1.39 1.57 4.88 6.62 70.36 4 42.14 2.44 26.65.7 7.31 3.66 40.58 1.56 18.11 15.68-1.56 15.32-1.74 4.53-.35 10.1-.53 11.67.35h4.71l6.96 70.71 2.44 31 15.5-9.06 8.19-10.97.35 2.79.87 8.53 3.83 39.36 1.04 11.84-4.7.53-4 2.96 1.56 3.13-12.36 55.91 5.74 56.42 7.67 47.2.17 1.74 19.86 234.59 2.26 16.72 2.09 11.84 5.75 79.59 12.89 184.61-29.79 2.43-16.89 2.27-36.75 3.83-23.69 2.26-18.46 2.62-32.04 3.13-68.62 8.01-21.08 2.09-17.59 1.74-35.01 4.18-34.83 3.49-7.31.87-2.09.17-20.56 2.79-7.66.87-20.55 1.91-3.14.35.7 7.14 2.09 14.11.52 3.31 1.05 9.05 2.26 24.04.35 4.7 1.39 25.08.87 8.71.7 6.09 1.22 8.54 1.57 8.53.52 3.13 1.22 10.8 1.04 3.83 2.62 8.89 2.61 7.83 3.31 8.19 3.66 8.18 1.39 3.49 5.57 13.23 4.71 9.06 5.05 8.53 1.56 2.44-3.65.35-3.31.35-9.41 1.04-1.74.18-14.8 1.56-15.5 2.09-16.9 2.44z" stroke-linejoin="round"/></defs><use xlink:href="#d" fill="#6bacaf" stroke="#097d9b" stroke-width="5.76"/><defs><path id="e" d="M2252.83 1547.55l-44.76 56.25-61.48 82.73-71.41 92.48-23.16 24.73-7.84 2.26-4.88-3.13-1.04-1.57-3.66-4.88-1.22-3.31-1.04-2.78.17-5.75 3.83-10.97 2.96-6.45 37.62-47.02 119.83-155.17 16.37-19.33 19.33-25.95 4.18-7.32 16.2 35.18z" stroke-linejoin="round"/></defs><use xlink:href="#e" fill="#6bacaf" stroke="#097d9b" stroke-width="5.76"/><defs><path id="f" d="M2236.63 1512.37l-154.83-204.11-222.24-292.93 149.44-128 8.36-8.54 48.24-42.14 5.75-5.58 1.22-.52.87-.35 1.22.35 1.74 2.61 50.68 145.6 50.68 142.28 49.64 143.51 8.01 24.55 3.84 22.64 2.26 32.4v70.36l1.04 63.39-4.7 32.39-1.22 2.09z" stroke-linejoin="round"/></defs><use xlink:href="#f" fill="#6bacaf" stroke="#097d9b" stroke-width="5.76"/><defs><path id="g" d="M2629.2 5362.1l-10.27 8.7-1.92 1.22-2.61.87-2.44.7-4.35-1.04-2.79-1.4-2.79-2.26-2.44-3.31-1.91-3.83-1.57-4.01-1.57-7.66.53-8.88 3.48-10.45 2.79-5.05 5.74-7.32 2.96-8.01 3.84-10.1 2.78-7.14v-4.18l-.87-10.62-.87-3.49-.87-1.91-1.39-1.92-3.14-2.44-7.66-5.57-8.19-4-10.45-3.31-11.67-2.96-9.4-1.4-20.9 1.92-13.76-.35-7.32.52-7.14 1.05h-8.7l-9.41-1.22-9.4 1.39-16.9 1.57-10.97.35-1.57-.35-1.74-1.22-1.57-1.57-3.13-1.04-6.27.35-13.76.34-11.85.7-13.93.87-31.52 2.27-14.11.87-13.06 1.04-7.32.35-8.53 1.05-9.41.69-14.63 1.22-10.79 2.61-6.45.7-7.66 1.04-8.19.88-5.92.52-16.37 4.35-10.45 1.22-2.96 23.51-1.22 9.76-8.19.34-.69.53-.7.87-.35 1.22-.17 2.78 1.22 13.59-1.22.17-35.18 1.57-7.49.35-14.63-4.88-4.71-6.27-.87.35-3.3 1.39-10.11 2.61-11.67-1.39-6.09-1.04-3.48-.87-6.27-.35-3.84-.87-3.65-.87-5.05-.18-7.84-.17-2.27.17h-.69l-5.23.18-5.4.87-2.09 1.04-1.74.7-2.79.87-3.65 2.79-8.01 4.52-8.02 5.05-4.52 2.62-12.2 7.66-11.49-.18-11.67.18-9.58 1.22-5.22.69-2.27-.34-2.61-1.75-2.61-1.91-.18-.18-1.91-4-3.49-2.79-7.14-1.04-3.65-.35h-5.58l-6.27-1.22-.17-2.44-2.61-26.64-7.15-83.6-3.3-36.22-1.22-12.72-.53-4.18-.17-2.61-.52-4.7-.7-6.27-2.96.35-11.32 1.39-9.06.87-11.67 1.57-2.61.35-18.11 5.05-49.81 3.83-11.15 1.04-30.65 2.62-7.14.52-8.54.7-26.12 2.09-18.46 1.74-9.24-1.4-6.79-.87-1.22-.17h-1.56l-2.62.17-12.01.18-16.03.69-5.92.18-5.75-.18-2.78-.17-1.92-.17-1.39-.18-1.4-.35-1.04-.35-1.05-.34-1.39-.35-1.74-.7-1.57-.87-1.57-.7-2.09-1.21-3.3-2.44-4.01-3.31-12.89-13.41-.7-.7-8.88-10.27-17.59-18.81-3.66-3.49-2.96-2.26-2.96-1.57-2.96-1.22-2.96-.87-1.57-.17h-4.53l-2.96.52-2.78 1.05-1.74.87-2.09 1.22-.18-.87-.7-3.84-1.21-7.66-.53-3.83-.52-4.35-.35-1.57-.17-6.79-.52-4.36-.18-3.13-1.39-12.19-.18-3.84-2.26-22.46-.52-5.23-.7-6.44-1.22-8.71-1.57-11.14-1.91-14.81-.87-9.75-3.14-34.13-.35-4.18-.17-2.09-.52-6.97-.35-4.7-.18-5.92-2.43-26.48-.53-5.57-2.26-3.66-.52-5.22-1.05-10.62-5.74-61.66-.88-9.75-1.56-16.54-1.4-15.5-1.04-11.32-3.83-42.32-3.14-35.36-.87-11.66-2.09-23.69-1.91-20.2-3.84-41.63-.87-12.71-3.48-38.49-.52-4.35-.53-5.57-1.74-17.42 1.74-.17-3.13-34.84-2.09-100.14 17.94-1.74 71.75-5.74 16.55 2.96 10.45-1.4 5.05-2.09 31.7 18.29 80.81 40.23 39.71 19.68 22.47 15.5 5.05 2.26 8.53 4.71-.69-6.8-.35-5.05 28.21 17.07 24.04 15.33 7.84-5.23-2.44-28.39-3.14-34.83-3.13-34.48-2.09-27.69-1.22-9.23-.87-8.53-10.63-125.75-1.22-14.62-.69-10.28-3.83-47.37-.35-17.94.17-4 2.27-14.98 2.61-9.93 3.13-8.36 2.79-6.09 7.49-13.24 6.79-10.8 17.59-27.69 9.23-15.32 5.05-8.01 7.67-13.76 4.87-9.41 4.71-7.31 4.52-7.84 10.63-18.98 4.7-10.1 1.92-4.88 2.96-11.84 2.26-13.24.52-8.18-.34-10.1-3.31-39.89-1.57-17.06-3.14-26.48-2.96-28.73 4.36.17 5.05-.17 5.57-.52 36.23-3.14 1.39-.35 12.89-1.04 17.07-1.4 9.93-.87 5.05-.52 18.98-1.74 6.1-.52 5.4-.7 6.09-.7 6.27-.69 8.71-.52 6.27-.7 21.77-1.92 2.79-.35 14.1-1.39 16.9-1.39 14.63-1.57 5.4-.52 4.87-.35 5.93-.17 4.18.17 4.35.7 5.22.87 10.98-9.76 15.67 3.49 3.49.52h4.35l5.4-.52 13.93-1.4 133.06-7.48 106.07-6.97 6.1-1.05 4-1.21 4.36-1.92 4.35-2.09 4.18-1.39 4.88-1.4 4.7-.69 34.14-1.4 58.17-5.22 7.84-.7 9.4-1.91 38.84-10.1 8.18-2.44 4.01-.35 2.09.35.35 3.48.35 4.01.87 7.66.52 6.27 1.22 11.32 2.44 29.61 1.04 11.49 1.4 16.37 1.22 13.93.17 3.31 1.04 10.28.88-7.67.52.87 7.84 87.43 3.3 43.89-2.26-10.45.87 9.06.52 6.79.18 2.44.35 2.43 1.39.53.17 1.74 2.09 18.46 1.05 10.45.35 2.44 3.83 43.53.7 2.79-1.05-.87-1.74-2.79.7 13.24.17 2.61.35 2.61.17 3.66.7 8.01 1.22 14.28 1.39 16.03.35 2.96.52 5.57 1.22 12.02 1.39 22.29.7 11.32.52 13.06 2.44 1.92v15.32l5.58 96.14-1.92 1.22 1.22 11.49 2.79 31.52 6.09 71.75.35 2.79 1.57 19.68.52 8.36 2.26 24.03.7 4.01.35 2.44.69 3.31.35 2.78.35 2.44.52 4.7 4.88 54.17 2.44 26.64.35 5.05.52 4.36 1.57 15.32 1.39 15.15 2.79 27.69.69 8.89.53 6.27 1.04 15.5 1.39 13.06.53 5.74 1.74 19.34.17 1.22 1.57 20.02 1.22 15.68 4.53 50.15 2.26 27 1.74 19.16 1.75 16.37 2.61-.18 14.8 146.99-2.61.35 6.79 52.25 6.79 44.93 1.22 7.14 1.57 11.32 2.09-2.61 2.09 13.41-2.79-.18.35 4.36 3.83 35.18 1.4 14.28 2.78 28.73 1.4 16.2 2.78 28.73v1.92l.53 5.57.35 3.49.17 2.96.52 7.83.35 4.01 2.44 26.3.7 5.22.69 9.93.87 11.14 2.09 19.16 1.22 14.11 1.22 14.63-6.27-3.31-5.22-2.61-1.57-1.4-2.44-1.91-6.1-6.45-4.7-4.18-5.92-4.7-9.4-4.7-8.36-4.18-3.66-1.39-6.79-2.62-6.8-1.39-10.62-.17-18.11 2.43-21.95 8.19-22.47 6.44-17.06 3.49-7.49 1.56-4.71-.17-11.49 1.92-16.9 7.14-24.38 18.46z" stroke-linejoin="round"/></defs><use xlink:href="#g" fill="#09757a" stroke="#00465f" stroke-width="5.76"/></svg>