<svg width="384" height="4.99in" viewBox="0 0 2880 3594" xmlns="http://www.w3.org/2000/svg" xmlns:xlink="http://www.w3.org/1999/xlink"><path fill="#fff" d="M0 0h2880v3594H0z"/><defs><path id="a" d="M1678.99 3101.85l-1.12-.12h-1.8l-.67-.11-.68-.11-.78-.11-4.27-.68-1.91-.45-2.02-.45-.79-.11-.56-.22-.56-.23-.68-.22-.67-.23-.56-.33-.9-.34-1.24-.56-1.57-.68-1.68-.67-1.01-.34-.9-.33-1.91-.68-.79-.33-.9-.34-1.79-.79-2.92-1.23-1.57-.68-1.35-.45-1.13-.44-1.57-.57-.78-.33-.79-.34-1.01-.67-.67-.57-.45-.33-.57-.56-.78-.68-.45-.56-.45-.45-.67-.9-.45-.78-.68-.9-.78-1.12-.56-1.02-.68-1.23-.45-.79-.56-.9-.45-.78-7.07-11.68-1.13-1.91-1.12-2.25-1.01-1.68-.67-1.46-.45-1.24-.34-1.01-.56-1.57-1.57-6.07-.23-.56-.34-1.01-.44-1.35-1.13-2.24-.67-1.24-.56-1.12-.12-.23-1.23-2.35-.45-.9-.9-2.02-.56-1.02-.56-1.23-3.71-7.64-.22-.56-.56-1.24-.68-1.23-2.36-4.38-1.23-2.25-1.46-2.24-1.12-1.69-1.24-1.91-1.01-1.23-1.12-1.58-1.35-1.57-1.57-2.02-1.35-1.68-1.8-2.03-2.02-2.13-1.57-1.8-1.46-1.79-2.25-2.81-2.13-3.03-2.02-3.04-1.91-3.14-1.8-3.15-1.68-3.36-1.58-3.37-1.46-3.37-1.34-3.6-1.13-3.48-1.01-3.37-.9-3.48-.78-3.26-.68-3.37-.45-3.25-.33-3.26-.23-3.26v-3.14l-.11-3.37v-13.14l.11-.79v-.79l.23-1.12.67-4.49.23-1.8.33-1.46.34-2.02.34-1.57.33-1.69.56-2.36.57-1.68.45-1.57.67-2.36.45-1.46.45-1.8.56-2.02.22-1.12.12-.79v-2.69l-.12-.57-.11-.89-.34-1.13-.22-.78-.22-.68-.45-.78-.23-.68-.11-.78-.11-.57-.12-.89.12-.57.11-.44v-.45l.22-.45.12-.45.22-.45.23-.34.11-.34.22-.33.11-.34.23-.34.11-.33.23-.34.11-.45.11-.34v-1.57l-.11-.78-.11-.57v-.67l-.12-.67v-2.03l.12-.67v-.56l.22-.56.11-.56.12-.68.22-.56.22-.56.34-.45.23-.45.56-.67.45-.45.56-.45.67-.68.79-.67 1.01-.9 1.12-1.12.9-.9.9-.79.45-.45.45-.56.45-.45.56-.67.45-.56.33-.45.45-.79 1.24-2.02.56-.9.56-1.01.9-2.02 1.12-1.91.57-1.01.56-1.01.45-.79.33-.67.23-.45.22-.45.23-.67.22-.79.23-1.01.22-1.68.23-1.13.33-1.68.56-3.15.34-1.91.23-1.23.22-1.46.22-.56.12-.57.22-.67.23-.79.22-.56.45-.9.34-1.01.78-1.34.56-.9.57-.9.56-.9.67-1.12.56-.79.56-.79.57-1.01.33-.56.34-.78.22-.45.12-.56 1.12-4.05.9-2.36.45-1.57v-1.12l.11-1.35-.56-2.47-.23-2.58-.11-2.92-.11-3.26-.23-3.26-.33-3.03-.11-2.02-.23-2.81V2773l.11-1.8-.33-2.02-.79-1.13-1.68-1.12-.68-.34-1.01-.45-.9-.33-2.81-.9-2.8-.9-1.01-.22-.68-.23-.45-.22-.56-.23-.45-.33-.45-.34-.22-.34-.56-.67-.56-.79-.45-.9-.57-.9-.67-1.57-.34-.9-.45-1.23-.56-1.69-.33-1.12-.23-1.12-.45-1.91-.78-2.02-.23-2.03-.56-4.04v-3.37l.11-2.69.56-6.29.34-3.37.11-2.02v-5.51l.12-2.92-.12-1.68 22.8 4.49 5.39-15.84.23-.56 20.1-56.49-39.31-14.26 1.35-2.48 1.01-2.47.56-1.57.23-1.57.56-2.13.22-1.46.23-1.46.22-1.24.23-2.02.45-2.47.11-1.91.11-2.02v-3.93l-.11-3.94v-4.49l-.23-2.36-.45-3.37-.33-1.91-1.01-4.26-.79-2.25-2.69-6.51-1.35-3.6-.68-1.46-.89-1.46-1.35-1.79-3.6-5.85-3.14-4.82-3.71-5.73-1.01-1.35-1.46-2.13-3.48-5.73-4.15-7.75-1.58-2.81-4.26-7.64-3.49-6.29-.89-1.57-1.58-3.03-3.25-6.63-.57-1.01-1.01-1.8-1.91-2.92-1.12-1.68-6.96-9.88-2.25-3.26-3.14-4.16-3.03-4.15-.68-.9-1.46-1.68-.45-.45-1.46-1.35-3.25-2.92-1.24-1.01-1.91-1.58-1.12-1.01 117.58 19.66 40.66 8.98-24.71 85.81 10.45 53.35 48.85 58.85 63.12 17.86 2.13-.34 23.7-5.05 3.48 1.12-1.46 2.36-.68 4.83-.56 8.65-.33 2.02-21.79 98.61-15.5 65.36-10.89 46.05-9.21 28.19 1.01 5.84-9.32 41.11-3.37 6.29-2.47 14.71-.12 1.01-4.15 5.39-2.36.57-1.12.22-1.58.45-1.68 6.06-6.96 2.7 3.48 23.47.34 1.24.33 2.81.34 1.79.45 2.7-.23.9-.22.11-2.13.22-2.25.12-11.57.67-9.21-.11h-.67l-4.27.67-.34.23-.22.33-.23 1.46-.67 10.45-.56 8.65z" stroke-linejoin="round"/></defs><use xlink:href="#a" fill="#9dc8ca" stroke="#6bb4d2" stroke-width="5.76"/><defs><path id="b" d="M2388.77 3196.08v.56l-.45 1.12-1.68 3.48-1.8 2.59-.68 1.34-.56 1.01-.45 1.24-.67 1.69-.45 1.79-1.35 5.28-.56 2.13-.45 1.35-5.73-3.82-5.5-3.81-11.12-7.87-.45-.33-.45-.23-3.59-2.58-5.95-3.93-11.91-8.31-13.7-9.55-2.58-1.8-6.29-4.38-10.78-7.41-2.36-1.57-8.98-6.29-1.69-1.12-3.59-2.59-2.47-1.68-1.01-.68-7.08-4.83-6.4-4.49-1.12-.78-1.35-1.02-.9-.56-.45-.33-1.12-.68-1.01-.56-2.02-1.46-3.37-2.02-2.36-1.46-3.37-1.8-.79-.45-4.71-2.47-2.14-1.01-3.26-1.35-.67-.33-2.47-1.13-2.92-1.34-5.05-2.25-19.99-9.1-1.46-.67.67-1.01.34-.45.33-.56.34-.45.23-.45.11-.34.11-.22.11-.45.34-1.46 1.01-4.05-2.58-.67-.79-.22-2.13-.68-.79-.34-1.12-.45-.56-.33-1.24-.9-1.57-1.01-2.14-1.69-2.02-1.79-.56-.56-.67-.79-12.69 4.94-.34.23h-.34l-.33.11h-1.01l-.34-.11-2.14-.68-6.73-2.13 1.79 3.82-13.59-4.16-1.79-.56-2.25-.67-5.84-1.69-2.47-.79-5.17-1.57-5.61-1.68-4.83-1.46-9.88-2.92-.79-.23-.9-.22-3.14-1.01-5.96-1.91-6.4-2.02-1.01-.34-10.55-3.26-2.59-.9-2.58-.89-3.26-1.02-1.01-.33-3.82-1.24-7.86-2.69-14.6-4.95-6.29-2.02-3.48-1.12-4.04-1.35-1.12-.45-1.69-.67-1.23-.45-1.69-.67.45-.9.11-.11 1.13-1.69 2.02-2.81.33-.45 2.36-3.25 2.59-3.71 1.57-2.25 1.01-1.68 2.24-3.15 2.92-3.48 2.03-2.13 3.25-3.82 2.36-2.7 1.24-1.68.45-.67.56-1.46 1.01-2.25.67-2.47 1.01-3.82 2.02-7.19.68-2.81.22-2.13.23-2.13-.23-1.58-.11-3.36.23-2.59.33-1.46.56-1.46 1.24-2.69 2.25-2.7 1.12-.79 3.03-2.47 2.02-1.91 3.37-3.03 4.04-3.14 2.25-2.02 3.37-4.16 2.92-3.59 2.58-3.71 2.59-3.15 1.12-1.23 1.01-.67.67-.57 1.24-.67 2.69-1.35 1.46-.22h1.8l.9.11 9.32 4.6 6.07 3.49 4.15 1.23 2.02.11h1.35l1.68-.44 2.03-1.02 1.91-.89 1.34-1.13 2.7-3.25 1.8-2.25.78-1.01 2.47-2.47 1.13-.9 1.34-1.01 2.25-.9 2.25-1.24 1.9-.89 2.36-1.35 3.04-2.7 3.14-3.59 3.14-3.82 3.49-4.72 4.04-6.29 2.02-4.04 3.03-8.2 1.13-2.24 2.13-3.04 2.47-3.25 1.01-1.69.45-1.23.34-2.03.11-2.8.34-2.92 1.91-9.78 1.68-7.41 1.01-3.82.23-1.12.22-.9.11-2.13.68-4.72.45-3.03.56-1.57.56-1.01.79-1.35 2.35-3.15 1.13-1.46 1.46-2.24 1.23-4.16 2.7-9.21 2.36-7.41.89-2.36.9-1.68 1.01-1.35 1.8-2.47 1.8-2.59 1.91-3.48 2.24-3.37-1.34-3.25-.57-1.69-.78-1.57-.79-1.35-1.68-4.72-.34-1.34-.11-2.36-.34-1.46-.56-2.25-.23-3.14-.22-2.47.11-2.48.56-3.48 1.8-7.75 3.03-13.7 2.59-9.99 1.57-7.98 1.35-8.09.67-6.62 1.12-5.73.34-2.36-.23-3.14-.78-3.48-1.69-3.49-2.92-3.7-.67-1.24v-2.02l-.34-4.16.34-4.6.11-5.05.56-3.6.57-2.81.44-1.46.79-1.79 3.03-3.6 2.47-2.47 8.99-8.87 2.58-2.81 1.35-2.36 1.12-2.47 2.81-9.1 1.24-3.59.56-2.58.22-3.37-.45-1.69-.9-2.36-1.12-1.79-1.01-3.03-1.01-5.17-.34-3.37.45-3.37.45-3.14v-2.48l-.22-3.48-.34-4.49-.79-4.94-.33-4.04.33-2.81 13.59-27.74 12.13-24.94 1.01-2.02 17.75-35.94 3.59-7.41 3.26-6.52 19.31-29.31 33.81-9.66.56-6.96.11-2.02.23-.68.45-.67.45-.34-1.58.34-61.2 11.9-5.51 1.02.79-1.46 4.6-8.99 18.42-35.72 49.75 12.7.23-.45.78-2.02 1.46-3.37 4.16-7.3.56-1.24 1.01-2.47.56-2.81v-1.8l.57-2.47 2.8-6.06 2.59-5.5.33-.57 2.14-5.16 2.69-5.06 2.02-2.36.57-.44 30.99 8.76 3.82 7.97 1.01-1.01.34-.23.11-.11.34-.11h.33l.23.11.34.11.22.23.23.22 2.58 3.37 14.94-22.01 2.92-1.01.22-1.24.56-1.68 1.91-2.36.34-.79.22-.78-.11-1.8-.56-2.24v-.68l.22-.79 3.37-4.04.34-.56.34-1.35.11-1.68-.11-1.24v-2.24l.22-1.46.23-.57.22-.56.45-.78.45-.68 1.91-1.57.56-.67.34-1.01h.89l.34-.12.56-.9.45-2.02.23-1.57-.23-2.47.11-1.8 6.41-13.81 1.57-3.6 4.83-.67 7.18-1.12 12.47-18.87 12.92-24.37 11-37.74-15.72-3.59 42-38.08.11-.45-22.23-2.02v-.34l11-17.07-2.47-2.8 13.93-1.91 10.11-.9h.33l2.7-7.64 2.13-6.29 4.72.11 5.39-10.33 3.59-9.43 4.27-12.81.11-.22-2.58-.9 3.03-6.4-.11-.11-3.59.44-12.58-13.36 1.35-1.01 2.58-1.35 3.37-1.46 2.13-.67 4.27-1.24 2.81-.67 3.93-.68 4.04-.22 2.02.11-.11.45-2.13 6.29 9.88 2.81 1.91-6.29 1.57.56 1.57.34.79.11 3.37.11 2.02-.56h.56l1.35.34 3.93 2.24 1.46.45 6.4-1.12 1.24-.11 2.47-.12 3.93-.89 4.04-2.59 2.47-2.36 3.37-8.42 1.57-2.69.34-.57.68-1.34 5.72-3.26 6.63-4.72.79-.45 9.09-6.4 3.37-3.26 2.47-2.35 3.93-5.4 1.24-2.24 2.81-6.85.56-2.25.67-9.21.45-.11 4.27-.45.78.11 3.82 1.01 1.35.9 2.36 1.24 2.13.78 4.94-1.23 1.91-2.14 1.01-1.46 1.35-1.12 1.57-1.01 3.04-3.37 3.48-2.58 4.15-4.27 1.35-1.12.67-.45.57-.34 2.47-.9 1.79-.11 1.58.11 2.35.79 2.92.78 1.69.23 1.12-.34 1.57-.79 1.02-.22 4.94 1.12.45.34-.12 1.01.12.56.67.79 5.05 3.71 1.8 3.14.56.45.68.45 1.91.45 2.02.33 1.12.23 1.35.56.45.45.45.56 1.23 5.5 1.01 4.27.56 2.92.9 1.58.68 1.01.67.67 3.48 1.46 1.24.67 4.71 3.37 1.69 1.69.22.33v.79l-1.46 3.6-.67 1.79-.23 1.69v4.26l-1.12 4.5v17.63l.9 2.47.56 3.37.45 4.16.23.89.33.9.68.56.67.45 1.91.68 1.8.45 1.01.67 1.79 2.25.79 2.58.45.79.34.33 2.92.68 1.34.45 1.35.67 1.35.79 1.46 2.02.79 1.57.22 1.46-.45 2.36-.11 1.46.11.67.56.56 1.69.9 2.8 1.91 1.91 2.02.68 2.47v1.8l-.11 1.35-.79 2.7-1.46 2.58-.23.9v1.01l2.59 6.17 1.01 4.83 1.12 4.72.9 3.15.56 2.35.45 2.14v1.91l-.34 1.46-.22.67-.79.9 1.35-.67 2.7-4.38 6.29-10.22 40.99-76.71 3.48 8.76 6.74 13.92 2.02 3.26.34 1.8-.12 1.46-.67 1.57-1.12 1.68-1.69 1.46-3.03 3.49-.56 1.23-.79 2.02-.9 3.37-.11 1.69 1.01 7.3.79 7.3-.11 4.94-.79 3.03-1.24 3.15-4.38 6.96-1.91 2.58-.33 1.24.22.9 1.91 1.12 4.61 1.57 2.02 1.35.56 1.46-.11 1.24-.12.56-.33 1.23-2.92 4.05-1.24 1.79-3.48 4.16-1.8 2.36-.22 1.91.34 1.12 3.37 4.83 1.9 3.26.57 2.24v1.69l-.45 1.91-5.06 13.25-.9 5.05v4.05l.79 1.46.79.33 7.52 2.36 3.71 1.46 2.36 1.8 2.35 2.92.45 2.25-.11 1.34-.34 1.01-.44.68-1.35.67-2.36 1.91-1.69 2.14-.89 1.57-.68 1.57.11 2.7 1.02 4.94.67 1.79.9 1.24 1.12 1.12 1.57.9.9.79.34 2.13 1.46 8.54-.11 1.91-.45-.12-1.35-.11-1.8.23h-1.57l-1.57-.45-2.14-1.01-2.24-1.01-1.35-1.01-.67-.9-.45-.68-.79-1.79-.45-1.91-.22-1.58-.34-4.94-.45-3.14-.9-2.59v-.78l.11-.23.12-.11.22-.22.79-.45 1.23-.9.23-.34.11-1.12-.22-1.01-.57-.9-.89-.67-.45-.12h-1.24l-4.27 1.24h-1.79l-2.25-.11-4.72-1.01h-1.34l-1.01.33-4.95 3.48-.56.34-.56.23h-.67l-.68.33-3.03.68-2.02.22-2.92.23-1.8-.23-1.12-.11-1.12-.45-.68-.9-3.82-2.13-2.47-1.01-2.24.11-.68-.23-.67-.44-2.92-3.49-2.13-3.37-2.25-1.79-.67-.9-.68-1.24-.78-.67-1.24-.34-1.91-.22-2.02-.45-1.12.11-1.24.11v.56l2.7 17.86 3.25 5.39 2.02 3.37 7.75 12.81 1.13 5.72-1.69 3.49-2.02-.12-1.68-.78-5.06-2.59-1.91-.56-8.2-1.01-1.34.45-.79 1.46-1.01.9-1.57 1.12-4.49 2.36-1.46.68-1.02 1.12-1.01.78-.56 1.35-.11 3.48-.34 2.81-.78 2.02-1.13 1.35-1.23 1.12-1.24.79-.9.9-1.9 4.15-3.04 5.73-1.12 1.35-1.8 3.03-2.02 4.61-.56 2.02-.11 1.57.11 1.57.22 1.01 1.24 4.16 2.13 3.93 1.13 1.91.67.79.45.33 1.46.68 1.46-.23-.22.12-.12.22-.11.22-1.12 2.81-1.13 1.91-1.34 1.69-.45.67-.23 1.24-1.01 7.18.23 1.46v.9l-.56 1.13-.57.67-.78 2.25-1.13 3.93.68 3.7.9 3.82 1.46 8.99.11.56.11 3.7-.11 1.46-.56 2.03-.45 1.46-.79.89-1.68 1.35-1.46-.11h-.45l-.23.11-.11.23-.78 2.13-.45 1.57.33 2.92-.45 8.43.12 5.16-.23 1.01-.11.79-.34 1.01-.9-2.81-.33-1.57-.12-1.23v-1.24l.12-1.35.45-2.81v-1.01l-.12-1.23-.45-.9-.44-.67-1.46-1.46-.79-.68-.9-.45-.9-.33h-4.38l-1.01.22-1.23.45-1.91.9-2.92 2.13-.9.9-1.01 1.12-1.91 1.91-1.57 1.35-1.35 1.24-1.8 1.79-2.58 2.47-1.57 1.91-.57.68-1.23 1.57-1.91 2.02-1.12 1.12-1.24.79-1.01.22-.78-.11-.9-.67-.68-.9-.56-.67-.45-1.24-.45-1.91-.22-1.23.11-1.35.34-1.12.45-1.13.67-1.57.79-1.35 1.01-2.13.45-1.12.11-1.24-.23-.9-.33-.79-.56-.44-.68-.23-1.12-.11-1.12-.11-1.58-.12-1.34-.33-1.24-.34-1.57-.56-1.35-.45-2.69-.79-1.69-.22-2.58-.56-2.92-.9-2.92-1.35-1.35-.79-3.59-2.13-6.07-3.59-2.24-1.24-1.58-.45-1.46-.22-2.36.11-2.8.22-1.46-.11-.34.79-.22.11-.12.11-.11.12-.11.11h-.23l-5.16.67-.34.11-.22.12-.23.11-.11.34-1.12 2.58-.12.22v.45l.12.23 2.8 4.15-20.55 22.02-35.82 82.32-5.73.56-4.83.79-2.47 1.01-.79 1.01-.78 1.91-1.24 4.6-1.68 5.4-.57 1.57-.56 1.12-5.05 3.82-8.76 6.06-4.49 4.83-12.81 16.85-2.69 3.48 1.23.68 1.91 2.35 1.01 1.13 1.24 1.68 8.53 11.23 1.58 2.03.78 2.02-.22 1.46-.79 2.92-1.79 3.14-4.27 5.95-18.42 25.95-11.01 15.5-3.03 4.27-30.77 55.7-19.21 31.67-2.02 6.07-19.99 65.25-14.04 58.29-54.47 75.14-5.16 6.96-2.92 4.27-2.02 3.03 16.62-8.08 1.35-.56 15.83-28.08 9.88 2.92 6.86 2.02 10.33 3.03 55.03 16.4-.23 3.71-1.79 5.27-1.69 4.05-1.46 3.14-4.38 6.52-1.68 2.69-1.58 4.05-.22 1.68v2.13l.34 2.7 1.68 6.4 2.81.68 6.06.56-2.13 1.46-1.24 1.23-6.73 8.65-1.13 1.57-1.68 2.59-.9 1.57-.67 1.23-1.24 3.49-2.02 7.63-.34 1.35-.78 5.5-.12 1.69.34 5.39-.22 4.04-.56 1.35-3.82 7.08-.9 1.23-.68.79-2.92 4.72-2.24 3.81-.68 1.01-.78 1.58-.9 2.47-1.46 2.24-.56 1.8-.79 3.15-.56 1.46-1.23 2.69-1.91 3.82-.45 1.24-.9 4.38-1.12 3.25-2.36 4.27-1.46 2.92-1.69 2.58-1.79 2.92-.57 1.35-.45 1.69-.22 1.34-.11 3.37.56 6.74-.23 3.37-.22 2.02-.67 3.48-.9 2.25-1.13 2.14-5.61 10.22-1.69 4.04-2.35 7.07-2.59 4.38-.67 1.8v4.38l.9 3.71 3.93 7.75-2.14 3.7-.56 1.46-1.01 2.47-1.23 4.27-.34 1.46-.22 1.35-.12 1.01.23 4.27v1.57l-.11.34-.23 1.46-.67 2.02-1.13 3.93-.22 2.02-.11 2.02v1.91l.11 1.24.45 3.93-.23 1.35-.22 1.23-.45 1.13-.45 1.23-.56-.33-2.36-1.47-1.12-.67-.79-.56-.67-.45-.79-.45-.34-.22-.44-.23-.57-.22-.67-.45-.9-.34-1.01-.45-.9-.45-1.12-.45-1.12-.33-1.58-.68-1.46-.56-1.34-.45-1.01-.45-7.08 17.41-1.8 4.27-.67 1.91-2.25 5.95 7.98 2.02 4.49.23z" stroke-linejoin="round"/></defs><use xlink:href="#b" fill="#9dc8ca" stroke="#6bb4d2" stroke-width="5.76"/><defs><path id="c" d="M2325.2 3526.05l-3.48.9-4.71 2.58-7.98 3.93-7.97 3.04-6.85 3.25-3.82 3.37-10.45 9.77-3.93 3.15-3.93 2.13-1.91.68-1.79-.12-1.01-.33-3.82-2.47-2.81-1.24-2.02-.22-1.35.11-1.35.45-4.27 2.13-1.23.79-.56.22-6.52-3.14-1.57.11-1.23.34-1.46.56-1.13.22-.45-.33-.11-1.35v-.68l.23-1.9-1.35-1.46-.45-1.91.34-1.58.45-1.68-.12-1.12-.45-.9-5.5-7.08-.79-1.68v-1.24l.12-1.35.33-.67.23-.67.11-.57v-.89l-.67-3.26-1.13-2.81-.67-1.01-.22-.22h-.23l-.67.22-1.91.9-.79.22-1.01-.22-1.01-.79-6.96-8.65-5.62-6.51-1.68-1.46-.56-.9-.34-2.36-2.25-2.92-4.6-6.17-4.38-5.84-1.24-1.35-.78-.9-2.36-2.13-.68-1.24v-.11l.12-1.57.45-1.58.45-.78.78-.68 3.03-1.68 2.03-1.46 1.68-2.25.56-1.35.23-1.01-.23-1.01-1.35-1.91-.78-.9-6.4-5.84-1.01-.89-.34.44-.45.57-1.57 3.25-.45.34-1.24-.22-.33-.12-1.13-.33-1.91-1.69-1.91-1.12-2.58-.79-.45.11-3.14.57-1.91-.79-.9-.11-1.12.22-.68.34-.9.34-.45-.23-.44-.22-.34-1.01-.45-2.14-1.12-1.46-1.69-.56-1.57-.34-2.7.34-3.59.79-1.46.56-1.57 1.35-.45.45-1.24.78-2.47-.11-2.36-1.24-.56-1.01v-.33l-.22-1.01.33-1.35 2.14-4.49.34-.79 1.01-2.81.67-2.69.11-1.24-.11-.45-.34-1.46-.45-.9-.33-.45-.23-.22-.67-.23-.79.34-.45.79-.22 1.01-.23 2.36-.33 1.01-6.97 8.42-.67 1.12-.22 2.14-.34 2.69-.23.9-.67.79h-.67l-5.17-.79-7.19.79-9.99 3.7-3.82 2.36-.45-.45-.11-1.68v-2.02l-.56-2.47-.57-1.58-1.34-2.58-2.59-2.81-3.03-3.82-9.1-9.99-.78-.79-3.93-3.82-1.57-1.34-.57-.57-2.35-2.02-17.75-14.49-6.18-7.18-1.57-1.24-2.92-.9-3.59-.56-1.13.11-.56.57-.33 1.01-.23 1.91-.67 2.24-.34.34-.56-.11-.45-.57v-.78l.67-3.48.45-1.91 1.58-6.97.22-4.6.67-5.5.79-2.81.79-.79.45-2.36 2.13.23 2.69.45h.57l.45-.9v-1.69l.44-3.14 1.13-16.17 2.24-10.79.23-2.69-.56-.9.33-2.36-2.13-.56.34-2.36-1.91-.11.22-2.36.45-2.13.11-.23.9-1.46v-.45l-.11-1.35v-.56l-.22-.33-.23-.68-.11-.45.11-1.01.11-1.91.56-1.57.57-1.23.89-.57 1.69-.11 3.48.9 2.47-.67 4.61-2.47 2.8-1.58 3.71-3.82 2.47-3.37 2.92-4.71 4.38-6.85 4.27-6.18 1.46-1.91.67-.79 6.4-6.06 1.8-2.13 2.02-3.04 4.27-5.73.11-.44v-.23l-.11-.34-3.59-3.25-2.14-1.69-.22-.11-.45.11-.45.34-4.04 5.17-1.13 1.01-.9.45-1.01-.12-.89-.33-1.02-.23-.67.11-.67.34-1.35 2.47-.67 1.57-1.02 3.15-.44 2.25-2.36 4.49-3.93 5.84-.79 1.35-2.58 4.26-5.73 3.82-6.07 3.82-2.13 1.46-2.58 2.47-3.48 3.48-1.46 2.14-1.91 2.69-.9 1.24-1.12.9-1.58.9-1.01 1.01-.67.78-.56.68-1.46 1.46-1.24.89-.9 2.92-2.58 13.48-2.02 8.09-1.35 7.3-1.12 5.95.22 2.92.45 1.35.9 1.24 1.12 1.01 2.59.67-.12.79-.11.56-1.12-.23-.45 2.14-.9-.12v.34l-.34 3.26.12.78-.34 1.35-.79 1.57-1.12 2.92-2.25 8.54-1.68 6.85-1.69 8.31.68 1.35 1.8 2.7 1.57 1.12 1.01.22.34.68-.34.78-.34.79-.45.34-.9.22h-.11l-1.12-.34-1.12-.78-1.13-1.24-2.02-3.25-.67-4.05-1.01-2.58-3.6-3.26-8.76-7.07-3.25-2.47-3.04-2.14-5.16-3.48-5.84-3.93-8.31-5.62-22.58-10.44-7.07-3.93-.9-.45-3.26-1.46 1.91-6.4 2.58-10.22-3.14-12.58-1.01-4.16 7.19-2.36 2.47-.9-.23-.33-.22-.34-.23-.22-.11-.57-.11-.44-.11-1.13-.45-4.71-.9-3.15-.45-1.68-.45-2.14-.34-1.46-.22-1.35-.23-1.12-.11-1.57v-4.16l.11-1.46-.11-.56-.11-.78-.22-.68-.23-.67-.11-.34-.34-.67-.34-.57-.44-.56-.34-.45-.56-.45-.79-.44-.9-.57.68-12.91 1.46-.23 7.3-1.12v-1.8l-.12-1.46-.45-3.59-.67-8.87-.56-5.62-.45-4.04-.22-4.05-1.24-14.93-.34-2.7-.45-4.83-.33-5.84v-1.8l-.12-1.57-.11-1.35v-1.23l-.11-1.12-.11-1.8v-1.35l-.11-1.23-.12-1.35v-1.8l-.11-.9-.11-1.23v-2.47l-.11-.79v-1.01l-.12-1.01v-1.01l-.11-.79-.11-1.01-.11-1.12-.23-1.69-5.95 5.28-4.72 3.48-3.93 2.7-2.13 1.35-1.35.89-1.01.45-1.46.68-1.24.45-1.46.33-1.34.34 1.34-1.01-.11-1.12-.11-5.28v-3.6l-.11-1.34-.11-2.81-.12-1.01-.33-2.02-.45-3.37 1.46-.23.78-.11.79.11.9.11 1.01.34.67.23h3.37l1.12-1.01 2.14-.79 1.12-.56.9-.45.45-.34.34-.34.33-.22.23-.34.33-.45.34-.45.45-.67 2.47-5.17 3.37-6.51 3.37-6.63.34-.78 1.34-2.7 1.35-2.69.11-.34.12-.34.11-.45.11-.45.11-.56.12-.56v-1.68l-.12-.9v-.45l-.22-.45-.23-.67-.22-.45-.22-.34-.34-.56-.45-.45-.45-.56-3.14-2.47-.68-.57-.56-.67-.45-.56-.22-.45-.34-.67-.11-.57-.12-.67v-1.91l1.58-.45.67-.22.79-.11.67-.12.79-.11.67-.11h.67l.79-.11h4.83l2.81.11 3.93.22 4.6.23 2.92.11h6.29l2.92-.11h2.92l2.25.11 2.47.22 1.12-.44-.22-.57-2.47-.45-.68-.11-.9-.11h-3.93l-4.49.34-3.48.11.79-1.8.44-4.6.12-.9.11-.56.11-.45.11-.45.23-.45.34-.23.33-.22h.34l.45-.11h9.32l3.37.11 2.58.11 1.69.11 1.12.12h1.12l4.5-6.85 1.46-2.14-1.46-.11-4.27-.11h-23.14l-7.52-2.14-2.58-.67-3.71-.45h-1.01l-3.6-.45-3.48-.45.45-1.12.23-.56.22-.45.34-.34.34-.34.56-.45.33-.22.9-.56.45-.11.56-.23.56-.11.68-.11 2.81-.12 3.48-.22h3.37l1.23.11 2.58.23h1.58l.9-.12 1.01-.22 1.12-.34 1.8-.67 3.25-1.8 5.51-3.59.22-.11 1.8-1.46 4.49-4.16 5.95-5.62 2.36-2.24.56-.79.56-.78.34-.68.45-.78.45-1.13.67-2.24 1.13-3.15 1.34-.67.57-.34.33-.11.34-.23.67-.67.23-.34.78-1.01.68-.78.67-1.24.79-1.35.78-1.34.45-1.24.68-1.8.56-1.23.34-1.01.22-.68.67-2.13.9-2.47 1.24-2.36.9-1.24.67-.89.79-.9.45-.56.33-.57.9-1.34 1.69.67 1.23.45 1.69.67 1.12.45 4.04 1.35 3.48 1.12 6.29 2.02 14.6 4.95 7.86 2.69 3.82 1.24 1.01.33 3.26 1.02 2.58.89 2.59.9 10.55 3.26 1.01.34 6.4 2.02 5.96 1.91 3.14 1.01.9.22.79.23 9.88 2.92 4.83 1.46 5.61 1.68 5.17 1.57 2.47.79 5.84 1.69 2.25.67 1.79.56 13.59 4.16-1.79-3.82 6.73 2.13 2.14.68.34.11h1.01l.33-.11h.34l.34-.23 12.69-4.94.67.79.56.56 2.02 1.79 2.14 1.69 1.57 1.01 1.24.9.56.33 1.12.45.79.34 2.13.68.79.22 2.58.67-1.01 4.05-.34 1.46-.11.45-.11.22-.11.34-.23.45-.34.45-.33.56-.34.45-.67 1.01 1.46.67 19.99 9.1 5.05 2.25 2.92 1.34 2.47 1.13.67.33 3.26 1.35 2.14 1.01 4.71 2.47.79.45 3.37 1.8 2.36 1.46 3.37 2.02 2.02 1.46 1.01.56 1.12.68.45.33.9.56 1.35 1.02 1.12.78 6.4 4.49 7.08 4.83 1.01.68 2.47 1.68 3.59 2.59 1.69 1.12 8.98 6.29 2.36 1.57 10.78 7.41 6.29 4.38 2.58 1.8 13.7 9.55 11.91 8.31 5.95 3.93 3.59 2.58.45.23.45.33 11.12 7.87 5.5 3.81 5.73 3.82 3.03 2.02 3.15 1.8 3.26 1.69 2.35 1.23 2.14 1.12 3.48 1.46 2.47.9 4.72 1.8.56.22.67.23 1.46.45 14.83 5.28 2.24.78 7.87 2.81.89.34 1.46.45-.11.67-.11.79-.23.67-.11.56-.22.79-.11.45-.45 1.46-.34.9-.34.9-.33.78-.34.79-.45.78-.67 1.13-.68 1.46-.45.56-.56 1.01-.22.34-.12.22-.78 1.35-.45.56-.68 1.12-.22.45-1.35 2.25-1.01 1.68-.67 1.24-.45.67-.34.68-.34.9-.22.78-.67 2.25-.45 1.57-1.69 6.63h-.45l-3.59-1.46-1.46.11-2.13.11-1.69-.11-7.86-2.25-2.25-.33 2.47-10-5.05-1.01-4.04-.9-3.15-.56-8.08-2.58-2.36-1.13-1.13 2.47-6.28-1.68-.57 1.23-1.91 4.5 4.61 1.34 2.69-.22 3.37 2.13-2.24 8.65-.9 3.82-.23.34.12.33-.34.68-.56 1.8.9.67 2.47 1.91-1.13.11-.56.11-.67.12-.67.22-.79.34-1.01.45-1.12.67-1.13.9-1.01.9-.78 1.01-.79 1.12-.79 1.12-.45 1.01-.45.9-.22.68-.22 1.12-.12 1.57-.11 1.46.11 1.46.23 1.69.22 1.01.34 1.12.22 1.12.23 1.35v1.8l-.23 1.01-.11 1.24-.34 1.34-.22.56-.9 2.03-1.8 3.82-.22.78-.34.79-1.46 5.61-3.03 11.12-.22.56-.23.79 1.24.34 2.24.67 15.28 4.16-3.93 14.15-.23.67-3.03 10.9-2.25 7.52 14.04 4.49 6.74 1.8-2.02 7.08-1.8 6.29-.56 1.9-1.01 3.49-.34 1.12-1.01 4.16-.67 2.8.11 1.24-1.35 4.6 4.16.56 6.96 1.02 6.29.78 13.03 1.69 4.71.67 7.42 1.12 6.51 1.13 3.59.56 3.71.45 1.24.22 1.46.11 5.95 2.92-.34.79-.22.45-.23.34-.33.33-.34.34-.34.23-.45.22-3.59 2.25.34 6.4-1.91 2.02-1.13 1.91-.56 2.13-.45 3.15-.33 3.59-.34 1.01-.34.45-1.68.56-1.91.12-1.91.22-4.94 1.57-11.35 4.94-5.39 2.14-4.26 2.47-1.13 1.23-.78 1.58-.68 3.59-.67 2.25-.56 1.46-1.35 1.68-1.01.45h-2.47l-.9.23-2.02 1.01-5.73 1.91-3.59 1.91-1.69 1.23-1.23 1.24-.79 1.23-.45 1.24-.9 4.15-.56 1.91-1.12 2.14-.9 1.01-.9.78-1.46 2.81-1.91 4.16-.78 1.01-1.02.45h-1.46l-.78.33-1.91 1.91-1.12.34-2.25.45-1.35.67-1.57 1.13-5.84 5.72-3.37 3.49-1.8 2.02-1.46 1.01-.67.11-3.93-.79-2.47.23-6.85 1.57-7.53 1.46z" stroke-linejoin="round"/></defs><use xlink:href="#c" fill="#6bacaf" stroke="#097d9b" stroke-width="5.76"/><defs><path id="d" d="M1509.41 3406.21l-3.6.23-2.69 1.12-3.04 2.14-7.41 2.35-4.27-.67-5.39-.22-4.94-1.46h-3.37l-8.64 1.12-2.25.67-1.69-.33-1.23-.34-1.46.11-2.58 1.35-4.16.45-1.23-.11v-.12l-.68-1.34v-.57l-.22-.78-.45-1.57-.79-1.35-2.36-2.59-3.59-2.58-1.12-.34-.9.12-.9.89-1.91 2.14-1.01.67-.45-.33-.11-1.24-.11-1.91-.12-1.8-.9-.78-4.26-2.92-1.69-.68-1.35-.11-.11.11-1.12 1.01-.9.57-2.02-.23-4.38-3.03-2.13-3.15-3.49-5.5-3.7-4.49-1.46-1.24-1.91-.45-1.8.12-1.8-.68-.67-1.12.23-2.92-.23-1.12-1.01-1.13-1.8-1.01-1.68-.45-1.46.56-1.46 1.35-1.69 2.25-1.12.78-1.23.45-1.13-.56-1.01-2.24-.78-2.03-1.02-1.68-4.04-2.36-3.26-3.03-1.12-.56-1.12.11-1.35-.23-1.35-1.34-.56-1.91-.22-5.51.56-8.31.45-3.7-.34-2.7-.78-2.58-.12-.34-1.68-1.68-.56-.68-6.74-2.47-10.56-6.06-5.84-3.82-3.48-3.15-1.91-.67-1.35-.22-4.26.67-1.46.22-1.35.57-1.13 1.9-2.02 1.35-2.13.56-1.57 1.24-1.01 1.35-1.35 1.34-2.02-.67-2.59-1.57-3.48-1.8-2.24-2.24-1.69-5.28-2.02-2.92-3.82-2.59-3.14-1.01h-1.35l-1.46-.11-2.13.79-1.69 1.57-2.02.67-3.03-.45-2.25-2.69-1.57-4.27-1.12-4.49.56-3.93.33-4.16-.78-1.01-1.13-.22-1.01.11-1.91-.34-8.98-3.59-4.27-2.47-13.25-6.86-2.47-.67-3.71 2.81-2.24.67-2.02-1.12-1.24-2.81-1.23-3.03-3.26-4.61-2.58-3.59-3.82-2.36-3.15-2.47-1.46-.11-1.68.22-1.8.45-1.68-.33-1.58-1.24-3.37-3.37-2.8-2.36-2.25-1.23-2.47-.45-3.59.9-1.58-.12-1.46-.45-3.93-3.14-2.13-1.24-1.69.57-1.01.56-1.57-.23-1.91-.67-1.12-.23-1.46-.44-1.12-1.13-2.03-.11-3.81 2.36-2.03-.34-1.79-1.35-2.47-3.7-4.94-8.43-2.7-2.92-3.59-1.68-3.93-1.01-6.18-.23-2.14-1.12-4.04-3.37-4.15-2.81-4.72-1.91-4.6-2.47-4.61-4.26-13.03-18.09-.9-2.36-3.36-9.09-4.5-10.22-4.94-6.07-7.64-8.76-5.72-12.69-5.62-14.83-3.82-10.1-2.02-1.24-2.24-1.35-5.4-1.57-5.84.11-8.76 1.8-5.39-1.01-4.6-2.7-3.93-4.6-1.35-3.48-.34-7.64-4.6-16.17-2.13-6.97-1.8-3.81-5.06-6.86-4.38-4.38-1.9-1.12-3.26-2.02-5.95-1.8-5.28-.78-3.03-.45h-2.14l-1.46.33-1.01.68-.78 1.01-.9 1.46-1.01 1.35-1.8 1.57-.23.34-2.8 3.93-.9.78-1.8-.78-.67-.9-1.13-1.8-.89-1.8-1.13-1.23-.78-.45h-.79l-4.27 1.57-.9-.34-.78-1.01-2.02-4.26-.79-3.04-1.12-5.39-.56-3.82-.79-2.92-1.24-3.25-1.79-3.48-1.91-1.91-1.91-1.24-2.7-1.01h-1.91l-3.59.79-1.12.45-1.13-.34-1.46-1.57-1.01-2.36-1.12-3.15-1.46-3.03-2.25-2.7-2.69-3.81-2.25-1.35-2.58-.45-3.93.67-1.24.34-1.46.79-1.01 1.57-1.12 3.7-.79 2.14-1.01 1.35-1.23.45-1.91-1.69-2.02-1.91-.68-1.35.23-2.24.11-2.14-.45-1.57-.67-1.57-1.46-1.57-1.35-1.58-2.02-3.81-.45-2.14.34-1.57 1.12-1.69 1.8-1.01 1.46-4.04 1.46-5.05.22-2.47-2.25-14.04-2.24-8.09-4.27-12.35-5.95-26.29-7.53-15.72-6.29-13.14-8.19-11.12-1.91-.9-4.5-3.93-2.02-.34-1.12.68-2.25-.34-2.24-2.69-2.02-3.82-3.82-3.93-6.4-3.71-6.85-3.03-1.69-.23-2.25 1.13-3.48 4.26-2.58 1.46-4.16-.78-1.01-.11-1.12.78-1.35 1.24-1.46-.11-2.47-1.13-1.01-.11-2.13 1.24h-.56l-.79-.79-1.68-2.02-2.36-2.25-2.25-1.12-1.68-.23-3.15 1.8-1.91.23-2.13-.45-7.64-.57-1.57.57-1.57 1.46-1.91-.68-.56-1.12-3.04-6.74.23-2.25 1.01-2.8 1.23-2.47.57-2.93.22-3.03-.45-2.24-1.35-1.69-1.23-1.23-.45-6.07-1.12-4.49-1.69-2.47-1.35-2.25-.22-2.92 1.91-9.1.45-4.04.45-4.38-1.13-3.37-3.93-9.66-2.69-8.31-2.14-2.69-1.23-1.69-3.71-5.73-2.36-5.05-1.23-10.45-.79-9.77-2.47-4.71-2.92-1.91-3.14-2.7-1.8-3.37-1.23-5.16-.57-5.4-1.57-10.55-2.36-8.65-2.13-3.93-4.83-3.6-2.92-2.58-4.38-.56-4.83-.11-6.63 1.01-2.02-.68-2.69-2.13-1.46-2.02-1.57-3.15-.9-1.57-2.47-3.14-4.61-3.82-6.74-2.02-2.13-.79-1.46-2.02-.79-5.17.9-4.94 1.57-7.52-.33-4.5-2.36-8.31-3.26-7.3-1.68-4.38-.79-2.02-2.58-5.05-3.37-11.69-2.02-5.16-1.8-2.7-3.26-2.47-3.03-1.68-2.69-2.02-1.35-1.91-3.15-5.62-11-14.15-1.46-4.38.33-4.94-.67-5.17-1.68-2.58-3.15-1.35-4.04-1.01-4.83-.56-4.49-1.35-12.58-4.94-4.61-4.04-2.24-3.71-3.15-4.72-2.69-5.5-2.59-3.93-.78-2.59-.11-.22 1.12-3.15 2.47-3.36 1.68-1.69 3.49-2.13 2.35-.34 1.35-.9.79-.56.45-.79.33-1.34.34-2.47-.67-2.59-2.59-5.95-2.13-3.59-2.02-1.24-1.91-.9-2.58-1.01-2.81-.67-3.93-.68-5.06.56-2.35-.89-.23-.23-1.01-1.12.11-4.05.23-1.01.78-5.72 1.01-4.61 1.58-3.59.9-3.04.22-3.36-.9-2.81-1.23-1.01-2.47-.56-2.14-1.24-1.46-4.16-1.23-2.8-2.47-4.83-1.46-1.01-1.69-.34-2.58 1.01-2.36-.22-2.02-1.69-1.46-9.1-7.53-16.17-2.13-3.14-2.58-4.16-2.47-1.57-2.92-1.01-1.02-1.24-.33-2.02-.23-5.28.12-5.39-2.14-7.19-2.24-5.84-3.71-8.53-.79-.9 6.4-.68 1.91-.33 1.01-.23.79-.22 2.36-.9 1.91-1.12.9-.45 1.23-.56 1.8-.68 1.57-.45.9-.11.9-.22 8.08-1.46 4.95-7.19-.9-3.93-.34-.9-.34-.56-2.35-2.25.78-.67.34-.34.34-.67.11-.9.33-7.19.45-1.57.45-.79 1.01-1.24 2.47-2.02 2.25-1.46 4.94-3.14 6.07-3.82.67-.9 1.46-2.13 8.42-15.95.9-1.69 1.01-1.57 1.13-1.23 5.72-4.27 2.81-2.02 13.48-8.76 1.12-.9.68-1.01 1.23-3.93 2.81-11.35.22-2.02.12-.79 5.39-8.08 6.06-9.89 2.02-3.14 1.35-2.47 1.23-2.47.45-1.12 1.46-3.71 1.58-3.48.78-2.02.79-3.71.9-5.05.45-1.8.56-1.35.78-1.68.68-1.01.78-.68 1.13-.56 3.03-.56 1.01-2.14 3.71-5.5 6.62-11.23 11.79-19.21 2.92-2.13 2.81-1.46 3.03-1.01 2.59-2.02 1.46-1.69.9-2.47.33-3.93.12-4.38.44-3.48 1.13-3.48 1.68-1.69 4.61-2.36 4.94-4.38 7.07-5.61 8.88-8.42 7.52-5.06 13.7-15.05.45-.79.56-1.12 1.91-5.73.79-1.34 8.2-7.87 4.26-6.17 3.04-4.83.67-1.13 1.01-.89 2.02-1.58 2.02-2.35 2.81-1.35 3.03-2.36 2.14-1.8 1.57-1.12 4.94-5.39 5.17-4.83 8.2-5.62 3.48-3.59.33-.45 2.48-5.17 3.03-5.28 2.13-5.61.9-1.57 2.13-3.37 3.6-4.61.9-1.57 1.23-2.7.34-1.34.45-3.04v-1.91l-.11-2.13-.34-2.25v-1.01l.11-1.34.56-2.7.45-3.03v-2.47l-.22-3.71v-3.82l.67-4.15.23-1.58-.12-2.47-.33-2.8-2.03-1.13-8.19-3.25-5.28-3.82-6.74-5.96-3.82-4.04-2.58-3.59-4.38-6.85-3.48-3.71-3.26-3.15-2.36-5.39-.45-2.8.34-2.81.78-3.03 2.14-4.95 4.27-10.78.56-6.29 1.01-14.82.78-20.67-.11-3.7 1.24-3.15 2.24-6.51 2.14-4.05 2.69-1.91 4.16-.89 4.15-2.59 5.28-7.41 1.46-6.18 1.35-4.83.67-1.57 1.13-1.35 1.46-.11.9.11 1.01 1.01 6.51 4.27 1.12.34.9-.23.68-2.02.22-2.58-.45-6.07.56-4.38.79-2.24.45-1.35 1.46-.79 4.38 1.01 4.27-.78 1.9-2.25 2.25-3.93 1.46-3.37 1.46-4.49-.22-1.24-.57-2.8.9-4.72 2.47-8.31 1.35-1.69 1.91-.56h.23l2.35-.11 1.01 1.8.12 3.59 2.24 5.84 1.13 1.46 1.12 1.57 2.92 1.58 2.02-.57 2.25-1.46 2.69-5.61 1.57-1.24 1.13.68 1.12 1.91 3.93 5.5 4.83 8.76 10.44 11.79 6.97 2.7h5.95l5.05.78 3.82.12 7.19 2.24 5.28.9h4.04l11.79-6.51 9.89-3.26 1.34-.45 6.74-1.35 6.97.45 6.62.34 2.36-1.24 4.27-4.6 2.58-2.25 2.02-1.46 1.35-1.12 2.92-4.04 2.13-4.83 1.02-6.07.11-4.38.33-3.59.45-2.92 1.13-3.71 1.46-8.98.33-3.71 1.24-2.58-38.75-9.21-2.69-.56-41.44-9.89-81.31-21.9 1.91-13.14 2.47-24.48 2.8-24.04 1.13-12.24.78-5.84v-1.8l-1.12-16.62-.9-11.34-.9-14.04-.9-5.96-.11-1.46.11-1.01.34-.78.79-1.24 1.01-1.46 13.25-13.92 13.25-20.89 5.96-9.66 2.47-3.26.67-1.01.45-1.24.22-.9.56-4.82v-4.61l-.11-2.47.11-1.35.79-3.82.23-.78 4.38-10.56 2.02-5.73.33-1.23.9-4.83.45-12.47 2.47-12.13 1.13-4.49v-1.57l-.12-.9-.11-3.71-2.02-14.71.22-.56.57-.57 10.1-2.24 1.35-1.01.56-.9.79-1.8 4.27-11.34.22-.79.56-1.12.79-.9 8.65-6.74 25.94-21-8.31-2.02-7.41-3.37-1.58-.68-4.94-2.02-4.6-1.79-1.57-.68-16.4-13.59-67.5-55.48-1.57-2.02-45.37-31.67-35.15-24.49-29.65-21.22-28.87-20.67-55.81-40.1-1.91 1.91-4.83 6.63-5.17 6.51-8.2 4.38-13.36 6.63-12.24 12.35-6.4 10.45-7.98 7.86-7.75 4.72-3.03 1.57-7.52 3.82-3.82 2.7-12.24 15.61-8.31 4.15-3.49 1.91-1.68 1.8-3.48 4.94-2.7 3.15-4.71 4.49-5.51 3.14-5.84 2.47-6.06 4.38-3.82 5.73-3.93 10.9-.45 1.23-5.5 12.8-3.6 4.72-3.81 2.92-4.5-1.35-5.05-.67-5.28 1.12-2.02 2.36-1.57 2.02-.68 1.13-2.24 4.71-.68 1.46-4.38 2.59-3.93-.23-2.92.45-2.92 1.91-7.07 10.9-11.68 17.07-5.28 9.88-8.09 9.32-9.43 8.54-1.46 1.35-3.93 4.71-7.19 5.17-3.59 3.03-1.8.68-7.41 5.39-4.27 4.04-3.93 1.57-.34.23-2.24 1.01-6.41 5.28-3.14 2.92-3.37 2.47-2.69 1.35-1.35.78-9.21-13.36-.56-1.24-2.81-11.46-.45-1.01-.34-.45-.33-.44-1.24-.9-2.02-1.35-1.01-.9-2.92-2.92-1.57-1.46-2.03-1.91-.44-.56-.12-.45.12-.45.56-.9 7.3-7.75.11-.45-5.39-7.3-5.28-6.74-.56-1.57-.23-6.06.57-26.73-4.16-8.43-1.57-2.92-1.8-3.48-2.69-6.06-2.48-4.83-2.47-1.24-2.02-.45-2.24-.11-1.8.45-1.91.67-2.13 1.91-8.65 6.97-11.79 8.98-2.36 1.57-3.26 1.58-2.47.78-1.91.23-2.02-.45-1.24-.9-1.01-.34-1.57-.11h-.45l-.56.11-1.57 1.01-3.37 4.27-.45.34-.34.34-.9.44-1.68.34-3.37.34-3.14.22-2.14.45-1.35.68-1.01 1.12-.67.67-2.92 3.6-1.12.9-.68.22-.67-.34-.79-.45-1.23-.89-1.01-1.24-1.01-1.91-2.36-4.6-3.6-6.29-2.02-2.59-.9-1.46-.22-1.12-.23-1.91-.67-2.13-.45-1.13-.67-1.12-.56-.34-5.06-1.68-1.46-.79-1.46-1.12-1.46-.9-2.47-2.81-1.57-2.24-1.69-1.24-1.23-.78h-1.12l-.68.11-.33.45-.23 1.23.11.79.68.9 1.91 1.91 1.34 1.23 1.46 1.46.79 1.12.79 1.02 2.02 1.68 1.01 1.35v.67l-.34 1.01-.45.68-.67.56-2.14 1.57-1.12 1.01-1.35 1.46-1.57 2.25-.22 1.23v1.24l.33 1.91.34 5.39.11 1.8v.56l-.11.78-.11.9-.45.9-.45.56-.45.56-.56.34-.9.34-.56.22-.45-.11h-.67l-.45-.22-.56-.45-.23-.23-.11-.45-.11-.56v-.9l.11-.45.11-.45.45-1.01.34-.9.22-.67.23-.56.22-.67.11-.57.12-1.01-.12-.9-.11-.56-.22-.45-.34-.45-.34-.56-.22-.45-.34-.45-.56-1.23-.34-.9-.11-1.12.11-.68.23-1.23.45-.9.45-.56.67-1.01.9-1.35.56-1.01.45-.79.11-.67-.22-.68-.12-.33-.22-.34-.45-.11-.34-.11-.56-.12h-.56l-.56.12-1.12.33-.9.23-.79.11-.67.11h-.68l-.78-.22-.79-.34-.45-.22-.56-.34-.45-.45-.34-.34-.33-.45-.12-.56v-.9l.12-1.01.11-.9v-.56l-.11-.67-.12-.23-.22-.33-.22-.23-.34-.33-.45-.45-.56-.45-.45-.56-.56-.57-.34-.56-.34-.45-.45-.45-.33-.45-.56-.67-.9-1.01-1.13-1.35-.78-.78-1.01-1.01-.56-.68-.57-.56-.78-1.12-.45-.79-.56-1.01-.23-.79-.11-.78-.11-.68v-.56l.11-.56.22-.67.34-.68.45-.78.34-.68.33-.56.12-.56v-.45l-.23-.34-.22-.33-.45-.12h-.23l-.56.12-.67.22-.9.34-1.12.33-.79.23-1.12.11-.68.11h-.33l-.68.12-.45.11-.56.11-.45.34-.33.33-.34.34-.23.45-.33.45-.34.56-.45.56-.34.34-.44.22-.57.34-1.12-3.03-.56-1.57-.45-1.46-.67-1.91-1.24-3.03-1.35-2.7-1.12-2.36-1.23-2.58-1.46-2.81-1.02-2.02-4.71-8.76h-3.03l-1.58.22-1.46.45-3.25.45-2.92 1.24-3.26-5.39-1.8-1.91-2.02-1.91-2.47-2.81-2.13-2.25-1.46-1.79-3.82-6.29-1.69-8.76-1.34-5.73-.45-3.15v-3.7l1.46-9.32.45-2.36.22-6.07-.45-6.51-1.23-8.76-.23-1.69-.56-2.13-2.13-12.69.33-2.02.45-1.58.79-1.23.22-2.36-1.46-5.84-2.02-7.3.45-.9.45-.9.34-.78.22-.9.11-.68.12-.67.11-.67.33-.68.45-1.12.34-.56.23-.56.33-.57.23-.45.22-.89.11-.57.12-.67v-3.14l-.12-.9.12-1.01.11-.57.11-.33.34-.56.56-.57.56-.33.34-.23.45-.45.67-.89.34-.45.33-.45 1.02-1.01.44-.57.34-.11h.45l.56-.11.23-.11.33-.34.34-.67.11-.45.12-.45.11-.79.22-.67.23-.9.11-.9.11-.78v-.68l-.34-.67-.22-.68-.45-.56-.45-.67-.45-.68-.33-.67-.23-.45-.11-.45-.11-.34v-.67l.11-.45.22-.56.45-.79.56-.67.45-.45.9-.67.68-.56 1.23-.68 1.46-.56.79-.22.67-.23.9-.34.79-.11.44-.22.68-.12.56.12.67.33.57.23.56.22.67-.11h2.02l.56-.11.45-.11.34-.23 1.12-.34.56-.22.34-.34.34-.67.22-.45.23-.45.11-.79.22-.78v-1.57l-.22-1.01-.11-.45-.34-.79-.45-.56-.56.34-.34.33-.11.34v.45l.11.45.34 1.12.34 1.12.11.45v.56l-.11.45-.23.45-.22.34-.34.22-.56.23-.67.11-1.02.11-1.01-.45-.67-.11-1.24-.33h-.67l-.79.11-2.58.33-1.8.34-1.9.23-.9.22-.9.34-.68.33-.67.57-.45.33-.56.56-.34.34-.56.56-.9.9-.67 1.12-.34.79-.22.45-.23.79-.11.78-.11.79v.67l.22.68.12.45.44.56.34.33.45.45.34.57.22.56v2.58l-.22.45-.34.22-.45.34-.45.34-.78.78-.79.23h-1.57l-.56.22-.68.23-.33.33-.23.34-.45.79-.11.56-.11.56.22.45.11.56.12.56.11.56.11.57.11.78.12 1.01v1.01l-.12.34-.11.9v.45l.11.79.12 1.23.22 1.01-.11.68v.78l-.23.56-.11.68-.34.9-.22.56-.23.45-.44.67-.23.45-.22.79-.23.78v.68l-.22.78-.12.68-.33.89-.79 1.01-.67.68 1.12 3.14.23 1.01 2.35 7.98-.22.56h-.23l-.44-.22-.9-1.69-.45-.67-1.8-5.06-1.35-8.87-.9-3.03-.67-3.37-.67-1.8-2.59-7.97-2.47-5.62-4.26-10.67-1.02-3.37-2.35-8.42-1.01-3.93-.12-.79-9.88-26.95-2.36-10.45-2.81-11.68-1.91-4.49-5.05-10.67-1.91-3.93-3.48-8.76-1.46-4.61-4.83-10.78-1.68-2.92-.9-.67-.79-.12-2.81 1.13-.89.11-.68-.56-.56-2.36-.22-2.25-1.13-2.8-4.71-6.63-2.03-4.72-1.79-2.36-3.37-3.48-.9-2.02-1.12-3.03-.9-2.36-.68-1.01-1.9-2.25-2.92-3.93-.68-.45-.78-1.01 6.62-5.39 11.79-14.6 29.99-38.3 5.95-6.51-3.7-34.03-.23-.45-.11-1.35-5.06-26.84-2.8-14.94-15.5-93.56-4.38-27.18-2.36-13.36-10.22-62.11-.22-1.35-10.45-64.13-.34-1.91-11.45-69.3-2.13-5.39-.68-11.79-2.69-16.17-2.25-13.59-1.01-6.52 23.7-136.79 14.26-82.22 9.77-56.83.45-2.35 1.01-.79 2.13-1.68 3.6-.12 6.06-.67 1.35.34 3.48.78 4.49 1.13 5.06 1.79 2.47.56 2.47.68 2.02.56 10.89 4.27 2.7.78 8.87 2.7 5.73 1.57 2.25.68 1.79.56 2.47.9 2.36.89 11.91 4.83 4.6 1.58 4.94 2.02 16.4 4.71 7.75 1.8 6.4 1.8 2.36 1.91 2.69 3.48 5.84 8.98 3.26 5.62 1.68 2.13.45.23 2.25 1.23 3.48.9 6.74 1.01 9.43 1.69 7.75.9 3.15.33 3.25.12.68-.12 1.01-.11 2.13-1.46.23-.11 1.91-2.7.67-1.79 1.35-3.49 3.14-5.39.12-.22 19.09-16.85 4.27-3.7 24.37-17.08 7.97-4.26 9.1-3.15 6.85-1.8h.67l2.92-.33 16.85 1.91 20.44 3.03 2.24.34 5.17-.23 5.84-1.01 6.06-.67h.45l1.69-1.69 1.01-1.91.78-2.13.9-4.38-.11-1.46-.9-2.81.11-4.38-.11-1.46-.33-1.68-.9-4.27v-.34l.56-2.36 1.12-3.25 1.57-2.48.79-1.01 1.01-1.12 2.13-1.46 3.49-1.23 2.58-1.35 2.58-1.8.56-1.35.23-1.35v-1.9l.45-.23 1.57-2.25.56-1.23.45-1.24.23-1.34-.57-3.04-1.23-3.48-1.24-2.92-.33-3.14.11-1.58.34-1.34.56-1.01 3.93-4.38 2.24-3.37 1.69-3.82.78-2.25.68-2.24v-.9l-.11-1.13-.45-1.57-1.01-2.13-1.24-4.05v-1.34l.22-.79.12-.22.11-.12.11-.11.23-.11 2.58-1.12 1.68-.34 1.46-1.01 1.13-1.35 3.82-5.39 2.69-2.13.9-1.02.34-.56.22-.78v-.45l-.45-2.25-.11-1.91.34-1.12.45-.68 4.38-3.81 3.25-3.37.56-.9 42.12 2.81L511 39.53l25.72 1.69 74.45 21.34 74.24 51.66-44.14-12.46-24.82 92.09-24.82 92.1 22.13 10.11 16.84 5.5 73.34 19.88 67.27 26.84L783 357.6l-15.27 25.83-2.13 7.19 16.84 4.38 1.24-2.58 1.57-1.91 10.67-2.25 5.5 11.01-12.58 31.67-9.32 23.25-1.57.9-1.23 2.7-1.35 5.27v5.62l-1.24 2.47-.56 3.37-3.14 7.08-.79 2.69 36.5 11.79-41.44 151.29-8.54 40.99-11.45 51.78-6.07 24.93-12.69 53.13.45.22h6.52l3.36-.11 7.3-.45 7.87-2.13 6.06-2.7 8.76-6.4 8.09-7.53 11.11-11 8.54-7.75 2.7-1.91 6.06-2.92 7.97-2.92 12.13-4.16 5.51-2.81 3.7-2.13 2.7-.56 3.14.45 3.71 1.91 2.47 3.14 2.92 6.52 84-149.38.45 2.13 1.35 2.7.9 1.46.56.9 1.69 1.91 7.63 5.84 2.59 2.47.78 1.12.45 1.35v1.57l-.22 1.57-.34 2.92-.22 4.5-.12 3.37-.22 2.36.56 2.69 2.47 4.72.11.78-.33 3.04.11.33.22.34.79.45 4.94.56 1.35.45.9.79.11.45-.23 1.12-1.12 2.02-.11.67v.68l.56 1.46 1.24.67 2.69.68 1.91 1.23.34.9.45.79 1.23 2.8 3.26 5.84 4.27 5.73.67 1.57-.11 1.8-.56 2.25-.45 1.46-.79 1.35-.45.33h-.45l-.45-.22-.78-1.24-.79-1.46-.34-.45-.78-.67-1.69-.45-1.23.11-1.12.45-1.13.68h-.45l-.56-.12-1.57-2.24-1.91-.79h-.56l-.56.34-2.92 3.93-.79 1.46-.45 1.12-.34 1.24.12 1.35.11.78.45 1.01.56 1.13 2.7 3.36.11.57.11.56-.67 2.13-.79 1.24-.67.78-1.69 1.58-6.18 4.94-3.7 3.93-.9 1.23-.67 1.58-.68 2.02-.22 1.01-.11 2.13.22 1.24.56 2.24 1.24 2.92 1.68 2.92 4.72 6.52 1.46 1.46 1.57 1.35 1.12.78 2.47 1.35 1.58.67 1.01.23 1.01-.23 2.13-.56.9.23 2.25 1.01 3.37 2.92-.45.45-.12.56.12.9 1.12 1.35 2.47 1.46 1.35.44 1.91.23 14.15-1.12h.78l1.58.56 1.01.56.9.79 2.58 2.58 3.37 3.03 1.57 1.12 1.35.57 5.05 1.79 12.13 3.82 7.97 2.36 1.02.22 1.46-.11 5.5-.78h1.91l.9.22 5.05 2.02 5.17 2.81 8.42 4.04 1.12.9 1.24 1.8 1.35 3.37.78 1.12 1.69 1.91 1.12.9.9.56 1.12.56.9.23 2.36.56 3.48.56.34.22.22-.44.79-1.13.56-.45.9-.33 7.07-1.46 5.17-1.13 2.13.34 8.87 4.16 5.62 12.91 3.14 7.75 16.96 5.17 14.83 3.25.45 23.48 12.8 10.11 30.32-3.04 7.41 42.01 23.25 19.09 8.09 6.52-6.96 34.03 25.71 37.85.68 9.88 23.02 22.46-9.32 25.27 7.64 23.25-.12 12.92 6.85 13.25.79 5.73 10.89 14.71v5.5l-.45 35.94 4.72 6.63 4.94 6.85 4.05 7.86 1.34 2.81.9 1.69 1.01 2.02-.33 3.48 1.68.56 1.8.9 1.91 1.57 2.24 1.46 1.01 1.01 3.37 4.83 3.26 4.83 1.91 2.36.56.79.11.11.79 1.46.11.45.34.33.34.34.78.45.68.11 1.01.34.67.22.45.23.45.56.22.56.68 1.69.11.33.45 1.69.11 1.35-.11.56-.34 1.35-.67 1.46-.68.89-.56.23 24.15 22.12-8.42 34.48 18.53 75.14-15.5-3.71-.23 2.59-.45 1.57-.56 1.46-2.02 3.48-1.8 2.36-9.77 10.9 23.59 49.19 4.04 5.28-9.77 57.16-13.03-2.47.34 2.47-.11 1.13-.56 1.91-3.6 8.87-.78 4.49-.45 1.69-1.69 9.65-.67 2.36-.11 1.13-.12.11v.11l-.22.11-.11.12h-.12l-.22-.12-2.47-1.34-5.28-2.92-2.02-.34-1.8.22-2.92.23 2.02 5.84 3.15 9.66 4.6 13.36 5.51 12.92 1.34 3.93.34 1.57.22 3.82v2.92l-.22 1.8-.9 3.37-2.92 7.18-.56 1.8-.22 1.91-.12 7.75-.22 9.55-.45 7.86v3.48l-.23 8.65-.33 15.5-.34 11.9-.34 11.57-.11 6.74-.11 6.96-.11 1.8.11 2.81 1.12 2.47.45 1.01.68 1.12 1.23 1.58 1.46 1.57 6.96 5.61.45.79.34.79.22 1.01v1.34l-.33 2.92-.45 1.91-.9 2.36-1.12 2.36-1.24 2.47-.56 1.46-.11 1.01.11 1.91 64.13 24.94-20.67 82.43 69.41 28.31-2.14 4.94-14.82 34.25-27.63-10.11-4.27-1.46-3.81 12.02 3.14.9 3.59 2.13 2.7 1.13 3.82 2.02 6.06 4.72 3.71 5.5 2.25 2.92 1.46 3.59 1.57 1.69 2.81 1.12 3.59 2.81.22.11 4.61 5.73.34.34 3.48 5.95.33.67 1.01 2.25.45.78.45.57.79.56.22-.56.12-.57.45-.67.22-.34.22-.22.34-.23.23-.11.33-.11.34-.11.45-.11h.56l.34.11.33.11.34.22.23.23.22.11.11.34.45.67 1.91 3.04 1.12 1.9 5.4 8.43.89 1.35.45.56.68.78 1.57 1.69.67.56.68.56 2.58 2.02.56.45 3.26 2.02 1.57 1.01.79.57 1.01.89.67.57.45.56.79.9.33.56.45.56.34 1.35.9 3.48 1.8 7.52 1.46 6.18.11.45.22.67.45.68.23.45.45.56.22.34.34.33.33.23.23.22.34.23.44.22.68.34.67.45.68.22 13.25 4.94 4.6 1.69 2.14.9.67.22.67.34.68.22.45.34.56.34.45.45.67.56.56.67.79.9.79 1.12 1.12 1.46 2.02 3.04 1.57 2.69 1.13 1.57.44.57.45.56.68.56.56.45.34.22.33.11.45.23.34.11.45.11.34.12.33.11.23.11.22.23.34.33.22.34.23.22.22.45.11.34.12.67v.45l.11 1.58v1.79l.11 1.24.11 1.12.12.45.11.34.11.33.23.23.22.34.22.22.45.45.23.22.34.23.44.34.57.22.45.23 1.46.67 1.68.67 2.13.68 3.04.78 1.91.45 1.79.45 1.57.34 1.35.34 1.57.56 1.69.45 1.46.56 1.12.45.9.45 1.01.56.79.45 1.12.67 1.35.9 1.68 1.23.79.57.67.67.34.34.34.33.22.23.34.45.34.56.33.56.56 1.24.79 1.91.11.45.11.56.23.67v1.69l-.11.56-.12.45-.33 1.12-1.01 3.82-.79 3.48-.34 1.23v2.36l.12.68.22.78.34 1.24 1.12 3.03.56 1.46.34.9.45.9.56.9 1.57 2.24 1.91 2.36.9 1.01 1.91 2.25.9 1.12.9 1.01.45.68.22.56.11.56-.11.56-.22.79-.45 1.12-.23.79-.22.56-.23.34-.22.44-.45.45-.34.34-.45.56-1.23 1.57-.23.45-.33.68-.23.56-.11.67-.23.9-.11.79-.11 1.57-.11.56v.68l.11.44.11.57.11.67.34.67.34.79.45.67.22.34.34.34.34.22.44.34 2.59 1.8 7.97 4.83-.45 3.59-9.09 15.72-15.73 2.36-7.3 5.39-45.37 46.95-17.18 17.86-7.53 18.64-6.51 16.17-8.99 22.13v-.79l-.33-.67-.56-.45-.45.11-.45.34-.34.34-.45 1.46-.34 2.8-.11 1.69.11 2.36 1.24 6.18.45 1.34 1.46 2.47.67 1.46.23 1.01v1.47l-.11 1.57-.34 1.35-.23 2.92.79 4.94.67 2.36.34.67.11.67v.56l-.45 1.46-.67.57-.79.33h-.78l-.9-.11-1.69-.45-3.14-.67-1.8-.23-1.68.34-1.91.11h-3.59l-.68.23-.9.45-.33.22-.57.45-.33.34-.34.45-.34.45-.22.45-.45.78-.11.56-.34 1.13-.11 1.01-.11 1.68-.12.79-.22.67-.11.45-.68 1.12-1.46 2.36-1.12 1.8-.34.34-.33.45-.34.33-.56.45-1.69 1.24-.45.33-.33.34-.79.9-.45.56-.45.56-.45.79-1.01 1.57-1.01 1.8-1.91 3.26 36.39 9.65 12.8 10.79 4.27 6.74 1.57 5.72-.11 1.01-.22 1.24-.68 1.68-1.46 5.28-.45 1.13-.78 1.23-.56.79-2.81 1.35-2.36.56-2.36-1.46-.34-.12-.56-.11-.56.11-.79.45-2.92 2.14-1.12.78-.9.34-.9.11-.22-.11-.9-.11-1.12-.45-.34-.11-1.8-.79-2.8-1.23-1.13-.34-1.12-.34-.9-.11h-.9l-.56.11-.78.34-.9.45-.68 1.57-1.57.67.45 2.03.56 3.03.79 4.15.34 1.35.44 1.46.34 1.01.45.9.67 1.12.34.68.34.45.78.9.79.89.34.34.33.34 1.46 1.01 1.24.78.45.12 1.12.56.9.22.79.23.78.22 2.7.34 1.91.22h1.57l2.36-.11 1.01-.11 3.48-.34h1.69l.67.11.67.12.56.22 1.46.56 1.35.68.56.33.45.34.45.45.79.56.56.56.67.79.45.45.34.56.34.67.9 1.58.89 1.91 2.14 4.49 1.79 3.7.45.9.9 1.24.79.9.9 1.01 1.68 1.57 1.46 1.24 3.03 2.13 3.04 2.36 3.37 2.47 1.34 1.01 7.75 5.17 1.35.89 1.23 1.02 1.13.89 1.23 1.24.68.9.67.78 1.57 2.25.68.9.9 1.35 1.12 2.13 1.23 2.13.79 1.58 1.01 2.02.34.67.33.68.57.67.56.67 1.12 1.01 1.91 1.58 1.24 1.01 3.25 2.92 1.46 1.35.45.45 1.46 1.68.68.9 3.03 4.15 3.14 4.16 2.25 3.26 6.96 9.88 1.12 1.68 1.91 2.92 1.01 1.8.57 1.01 3.25 6.63 1.58 3.03.89 1.57 3.49 6.29 4.26 7.64 1.58 2.81 4.15 7.75 3.48 5.73 1.46 2.13 1.01 1.35 3.71 5.73 3.14 4.82 3.6 5.85 1.35 1.79.89 1.46.68 1.46 1.35 3.6 2.69 6.51.79 2.25 1.01 4.26.33 1.91.45 3.37.23 2.36v4.49l.11 3.94v3.93l-.11 2.02-.11 1.91-.45 2.47-.23 2.02-.22 1.24-.23 1.46-.22 1.46-.56 2.13-.23 1.57-.56 1.57-1.01 2.47-1.35 2.48 39.31 14.26-20.1 56.49-.23.56-5.39 15.84-22.8-4.49.12 1.68-.12 2.92v5.51l-.11 2.02-.34 3.37-.56 6.29-.11 2.69v3.37l.56 4.04.23 2.03.78 2.02.45 1.91.23 1.12.33 1.12.56 1.69.45 1.23.34.9.67 1.57.57.9.45.9.56.79.56.67.22.34.45.34.45.33.56.23.45.22.68.23 1.01.22 2.8.9 2.81.9.9.33 1.01.45.68.34 1.68 1.12.79 1.13.33 2.02-.11 1.8v1.68l.23 2.81.11 2.02.33 3.03.23 3.26.11 3.26.11 2.92.23 2.58.56 2.47-.11 1.35v1.12l-.45 1.57-.9 2.36-1.12 4.05-.12.56-.22.45-.34.78-.33.56-.57 1.01-.56.79-.56.79-.67 1.12-.56.9-.57.9-.56.9-.78 1.34-.34 1.01-.45.9-.22.56-.23.79-.22.67-.12.57-.22.56-.22 1.46-.23 1.23-.34 1.91-.56 3.15-.33 1.68-.23 1.13-.22 1.68-.23 1.01-.22.79-.23.67-.22.45-.23.45-.33.67-.45.79-.56 1.01-.57 1.01-1.12 1.91-.9 2.02-.56 1.01-.56.9-1.24 2.02-.45.79-.33.45-.45.56-.56.67-.45.45-.45.56-.45.45-.9.79-.9.9-1.12 1.12-1.01.9-.79.67-.67.68-.56.45-.45.45-.56.67-.23.45-.34.45-.22.56-.22.56-.12.68-.11.56-.22.56v.56l-.12.67v2.03l.12.67v.67l.11.57.11.78v1.57l-.11.34-.11.45-.23.34-.11.33-.23.34-.11.34-.22.33-.11.34-.23.34-.22.45-.12.45-.22.45v.45l-.11.44-.12.57.12.89.11.57.11.78.23.68.45.78.22.68.22.78.34 1.13.11.89.12.57v2.69l-.12.79-.22 1.12-.56 2.02-.45 1.8-.45 1.46-.67 2.36-.45 1.57-.57 1.68-.56 2.36-.33 1.69-.34 1.57-.34 2.02-.33 1.46-.23 1.8-.67 4.49-.23 1.12v.79l-.11.79v13.14l.11 3.37v3.14l.23 3.26.33 3.26.45 3.25.68 3.37.78 3.26.9 3.48 1.01 3.37 1.13 3.48 1.34 3.6 1.46 3.37 1.58 3.37 1.68 3.36 1.8 3.15 1.91 3.14 2.02 3.04 2.13 3.03 2.25 2.81 1.46 1.79 1.57 1.8 2.02 2.13 1.8 2.03 1.35 1.68 1.57 2.02 1.35 1.57 1.12 1.58 1.01 1.23 1.24 1.91 1.12 1.69 1.46 2.24 1.23 2.25 2.36 4.38.68 1.23.56 1.24.22.56 3.71 7.64.56 1.23.56 1.02.9 2.02.45.9 1.23 2.35.12.23.56 1.12.67 1.24 1.13 2.24.44 1.35.34 1.01.23.56 1.57 6.07.56 1.57.34 1.01.45 1.24.67 1.46 1.01 1.68 1.12 2.25 1.13 1.91 7.07 11.68.45.78.56.9.45.79.68 1.23.56 1.02.78 1.12.68.9.45.78.67.9.45.45.45.56.78.68.57.56.45.33.67.57 1.01.67.79.34.78.33 1.57.57 1.13.44 1.35.45 1.57.68 2.92 1.23 1.79.79.9.34.79.33 1.91.68.9.33 1.01.34 1.68.67 1.57.68 1.24.56.9.34.56.33.67.23.68.22.56.23.56.22.79.11 2.02.45 1.91.45 4.27.68.78.11.68.11.67.11h1.8l1.12.12.56-8.65.67-10.45.23-1.46.22-.33.34-.23 4.27-.67h.67l9.21.11 11.57-.67 2.25-.12 2.13-.22.22-.11.23-.9-.45-2.7-.34-1.79-.33-2.81-.34-1.24-3.48-23.47 6.96-2.7 1.68-6.06 1.58-.45 1.12-.22 2.36-.57 4.15-5.39.12-1.01 2.47-14.71 3.37-6.29 9.32-41.11-1.01-5.84 9.21-28.19 10.89-46.05 15.5-65.36 21.79-98.61.33-2.02.56-8.65.68-4.83 1.46-2.36-3.48-1.12-23.7 5.05-2.13.34-63.12-17.86-48.85-58.85-10.45-53.35 24.71-85.81 6.74-5.16 74.12-56.5 45.26-34.93 9.77 7.19 27.4 55.49 16.29-2.03 20.44-16.39-.9-6.74 8.98-15.73 6.07-1.23 15.61-3.15 25.94 13.59 18.31 1.13 3.48 11.23.67-3.82 7.64 6.96 25.83 31.56 1.46 1.57.9 1.02 10.89 7.07 1.91 1.8-21.45 14.49 1.35 3.93 12.13 35.26 9.32-4.15 69.63-31.67 13.81-6.29.79.22.9.11.45.12 1.12.44 2.7 1.24 10.22 4.38 2.02.79.56-.9.34-.45 1.34-4.16 1.24-2.92 3.03-8.2 1.01-2.69.68-2.58.44-5.62.12-2.36.11-2.02.45-2.47.78-2.25 1.02-2.02.89-2.36.68-.9.67-.78.68-.68.44-.45.57-.56.67-.56.79-.56.56-.45.9-.34.89-.45 1.58-.78.33-1.35v-.45l.34.11.79-.45.78-.22v1.12l.45 5.39-.33.79-.45 5.62-1.01 5.5 1.34 2.36.34-.23 2.47-1.68.11 1.01.12 1.01.11 1.12-.11 1.24-.12 1.01 3.6 10.22 3.25 11.23 11.57 27.97 1.12-2.25.68-1.91.56-3.03 4.94-27.74 1.12-6.52 19.43 1.01 3.37.23 34.48-16.85 48.18-23.58 8.99-4.38 11.56-2.47 5.51-1.02 61.2-11.9 1.58-.34-.45.34-.45.67-.23.68-.11 2.02-.56 6.96-33.81 9.66-19.31 29.31-3.26 6.52-3.59 7.41-17.75 35.94-1.01 2.02-12.13 24.94-13.59 27.74-.33 2.81.33 4.04.79 4.94.34 4.49.22 3.48v2.48l-.45 3.14-.45 3.37.34 3.37 1.01 5.17 1.01 3.03 1.12 1.79.9 2.36.45 1.69-.22 3.37-.56 2.58-1.24 3.59-2.81 9.1-1.12 2.47-1.35 2.36-2.58 2.81-8.99 8.87-2.47 2.47-3.03 3.6-.79 1.79-.44 1.46-.57 2.81-.56 3.6-.11 5.05-.34 4.6.34 4.16v2.02l.67 1.24 2.92 3.7 1.69 3.49.78 3.48.23 3.14-.34 2.36-1.12 5.73-.67 6.62-1.35 8.09-1.57 7.98-2.59 9.99-3.03 13.7-1.8 7.75-.56 3.48-.11 2.48.22 2.47.23 3.14.56 2.25.34 1.46.11 2.36.34 1.34 1.68 4.72.79 1.35.78 1.57.57 1.69 1.34 3.25-2.24 3.37-1.91 3.48-1.8 2.59-1.8 2.47-1.01 1.35-.9 1.68-.89 2.36-2.36 7.41-2.7 9.21-1.23 4.16-1.46 2.24-1.13 1.46-2.35 3.15-.79 1.35-.56 1.01-.56 1.57-.45 3.03-.68 4.72-.11 2.13-.22.9-.23 1.12-1.01 3.82-1.68 7.41-1.91 9.78-.34 2.92-.11 2.8-.34 2.03-.45 1.23-1.01 1.69-2.47 3.25-2.13 3.04-1.13 2.24-3.03 8.2-2.02 4.04-4.04 6.29-3.49 4.72-3.14 3.82-3.14 3.59-3.04 2.7-2.36 1.35-1.9.89-2.25 1.24-2.25.9-1.34 1.01-1.13.9-2.47 2.47-.78 1.01-1.8 2.25-2.7 3.25-1.34 1.13-1.91.89-2.03 1.02-1.68.44h-1.35l-2.02-.11-4.15-1.23-6.07-3.49-9.32-4.6-.9-.11h-1.8l-1.46.22-2.69 1.35-1.24.67-.67.57-1.01.67-1.12 1.23-2.59 3.15-2.58 3.71-2.92 3.59-3.37 4.16-2.25 2.02-4.04 3.14-3.37 3.03-2.02 1.91-3.03 2.47-1.12.79-2.25 2.7-1.24 2.69-.56 1.46-.33 1.46-.23 2.59.11 3.36.23 1.58-.23 2.13-.22 2.13-.68 2.81-2.02 7.19-1.01 3.82-.67 2.47-1.01 2.25-.56 1.46-.45.67-1.24 1.68-2.36 2.7-3.25 3.82-2.03 2.13-2.92 3.48-2.24 3.15-1.01 1.68-1.57 2.25-2.59 3.71-2.36 3.25-.33.45-2.02 2.81-1.13 1.69-.11.11-.45.9-.9 1.34-.33.57-.45.56-.79.9-.67.89-.9 1.24-1.24 2.36-.9 2.47-.67 2.13-.22.68-.34 1.01-.56 1.23-.68 1.8-.45 1.24-.78 1.34-.79 1.35-.67 1.24-.68.78-.78 1.01-.23.34-.67.67-.34.23-.33.11-.57.34-1.34.67-1.13 3.15-.67 2.24-.45 1.13-.45.78-.34.68-.56.78-.56.79-2.36 2.24-5.95 5.62-4.49 4.16-1.8 1.46-.22.11-5.51 3.59-3.25 1.8-1.8.67-1.12.34-1.01.22-.9.12h-1.58l-2.58-.23-1.23-.11h-3.37l-3.48.22-2.81.12-.68.11-.56.11-.56.23-.45.11-.9.56-.33.22-.56.45-.34.34-.34.34-.22.45-.23.56-.45 1.12 3.48.45 3.6.45h1.01l3.71.45 2.58.67 7.52 2.14h23.14l4.27.11 1.46.11-1.46 2.14-4.5 6.85h-1.12l-1.12-.12-1.69-.11-2.58-.11-3.37-.11h-9.32l-.45.11h-.34l-.33.22-.34.23-.23.45-.11.45-.11.45-.11.56-.12.9-.44 4.6-.79 1.8 3.48-.11 4.49-.34h3.93l.9.11.68.11 2.47.45.22.57-1.12.44-2.47-.22-2.25-.11h-2.92l-2.92.11h-6.29l-2.92-.11-4.6-.23-3.93-.22-2.81-.11h-4.83l-.79.11h-.67l-.67.11-.79.11-.67.12-.79.11-.67.22-1.58.45v1.91l.12.67.11.57.34.67.22.45.45.56.56.67.68.57 3.14 2.47.45.56.45.45.34.56.22.34.22.45.23.67.22.45v.45l.12.9v1.68l-.12.56-.11.56-.11.45-.11.45-.12.34-.11.34-1.35 2.69-1.34 2.7-.34.78-3.37 6.63-3.37 6.51-2.47 5.17-.45.67-.34.45-.33.45-.23.34-.33.22-.34.34-.45.34-.9.45-1.12.56-2.14.79-1.12 1.01h-3.37l-.67-.23-1.01-.34-.9-.11-.79-.11-.78.11-1.46.23.45 3.37.33 2.02.12 1.01.11 2.81.11 1.34v3.6l.11 5.28.11 1.12-1.34 1.01 1.34-.34 1.46-.33 1.24-.45 1.46-.68 1.01-.45 1.35-.89 2.13-1.35 3.93-2.7 4.72-3.48 5.95-5.28.23 1.69.11 1.12.11 1.01.11.79v1.01l.12 1.01v1.01l.11.79v2.47l.11 1.23.11.9v1.8l.12 1.35.11 1.23v1.35l.11 1.8.11 1.12v1.23l.11 1.35.12 1.57v1.8l.33 5.84.45 4.83.34 2.7 1.24 14.93.22 4.05.45 4.04.56 5.62.67 8.87.45 3.59.12 1.46v1.8l-7.3 1.12-1.46.23-.68 12.91.9.57.79.44.56.45.34.45.44.56.34.57.34.67.11.34.23.67.22.68.11.78.11.56-.11 1.46v4.16l.11 1.57.23 1.12.22 1.35.34 1.46.45 2.14.45 1.68.9 3.15.45 4.71.11 1.13.11.44.11.57.23.22.22.34.23.33-2.47.9-7.19 2.36 1.01 4.16 3.14 12.58-2.58 10.22-1.91 6.4-3.93 2.36-14.71-6.74-18.87-2.92-5.16-.34-2.36-.45-17.07-.67-13.26-2.02-11 .22-3.26.23-1.35.22.12 1.01 2.35 3.26 1.69.56 15.16 26.06.67-.68 1.01 1.69-.67.78 1.8 2.7.67-.56 1.01-.68 6.85 11.23 1.8 3.15-1.68 1.01-.45.45-.23 11.01-.56.33-.11 7.98-1.01-.12-1.69-.11.23-3.59v-3.93l-.79-.23-.22-2.13-.12-5.73-2.24-3.59.56-2.25-9.1-15.27-7.52-11.57 1.57-1.57-3.03-5.06-.56-.78-.23-.34-.11-.34-.79.56-.22.12-.34-.23-.67-1.35v-.33l.33-.34.45-.45-6.06-10.11-.34.11-3.25 1.58-2.36 1.46-5.39 3.48-5.84 4.6-7.53 5.17-5.16 5.73-2.03.67-2.24 3.48-4.94 9.1-1.35 3.48-.23 3.26.23 1.12 1.8 3.71.22 2.13v2.92l.79 3.37 1.23 3.15.45 2.13-.11 3.03-.11 4.05-.23 1.12-.67 2.25-1.35 2.92-2.25 4.94-6.4 9.88-3.59 6.4-3.15 4.61-8.42 8.76-1.01 2.92-.67 2.92.22 1.57-.11 1.57-.9 1.35-1.01-.34-.56-.45-.68-.78-.89-.45-.9.22-.9 1.01-1.46 3.82.22 2.03-.45 1.23-1.12-.56-1.12-2.81-.56-2.25-.34-.33-3.93-5.73-4.04-2.7-7.87-3.7-7.07-3.03-3.82-1.46-7.52-2.14-4.38-1.46-7.42-4.15-4.04-1.91-4.49-1.13-3.93-.56-4.16-.45-9.77-8.08-3.25-3.93-3.82-3.6-3.37-2.13-8.43-1.91-3.25-1.35-5.84-2.13-4.72-1.24h-11.34l-2.92 1.12-1.57 1.35-2.03 3.26-6.96 6.4-1.23 1.12-4.05 3.15-3.93 1.57-6.06.56-6.97-.22-4.6.67-2.47 1.46-1.57 1.57-2.25 1.13-2.7.78-3.25-.11-9.32-3.14-2.36-.9-2.14-.23-2.92-.33-3.81-.12-5.96 1.24h-2.47l-1.91-1.01-1.23-1.91-3.03-1.8-6.41-2.58-3.36-1.57-1.69-.34-2.13.45-1.69-.34-1.01-.67-1.23-1.24-3.49-1.23-4.82-.9-2.81.56-2.02 1.12-3.6 2.81-1.57.23-2.13-.79-1.91-1.57-2.47-2.47-2.7-1.46-2.69-1.24-2.14-.67-1.68-.12-3.48.34-1.91-.22-4.5-5.06-.45-3.25-1.34-1.91-3.15-2.02-5.16-4.05-2.36-1.46-1.13-.11-.56-.11-2.92.67-1.34.11z" stroke-linejoin="round"/></defs><use xlink:href="#d" fill="#09757a" stroke="#00465f" stroke-width="5.76"/></svg>