<svg width="384" height="7.84in" viewBox="0 0 2880 5647" xmlns="http://www.w3.org/2000/svg" xmlns:xlink="http://www.w3.org/1999/xlink"><path fill="#fff" d="M0 0h2880v5647H0z"/><defs><path id="a" d="M403.26 2682.5l-4.76-1.23-9.18-2.3-59.83-14.64-27.18-6.53-13.94-3.89-5.65-1.23-3.88-.88 11.82-48.53 4.59-22.94 2.65-22.24 1.24-11.82 2.11-42.71-4.23-49.59-.88-3.88-10.24-45.7-12-52.77-16.06-65.64-6.18-24.53-19.23-69.36-21.18-12.35 18.71 4.06-5.65-26.65-18.53-77.29-28.59-120.7-31.77-139.41-11.12-51.36-7.06-17.82 7.59-3.88-11.29-35.65-3-9.7 2.47.52 3.53.89 24.18 5.47 8.11 2.29 10.77 2.65 16.41 3.88 12.36 3 8.29 1.94 81.36 19.77 8.12 2.11 19.06 4.59 16.94 4.24 8.82 2.12 10.94 2.64 18.18 4.24 8.65 2.12 91.06 21.7 9.36 2.29 30.53 7.42 30.53 7.58 8.47 1.95 45.36 11.11 17.82 4.24 8.65 1.94 46.59 11.12 8.47 1.94 28.59 6.7 16.41 4.06 8.83 2.12 42.35 10.24 8.12 1.94 21.89 5.29 13.94 3.35 8.47 2.12 28.06 6.88 6.88 1.59 30.18 7.41 33 8.12 9 2.3 55.95 13.94 10.23 2.11 11.12 2.3 4.77.88 2.29.35 3.18.36 10.23 2.47 11.47 3 3.89 1.06 7.94 1.94 31.94 8.47 20.3 4.76 9 2.3 19.41 4.58 18.71 4.59 8.65 2.12 21.17 5.29 18.89 4.42 8.29 2.11 21.18 5.12 8.47 2.12 9.18 2.12 31.23 7.76 17.83 4.24 11.65 2.64 8.29 1.94 12.53 2.83 18.53 4.41 8.65 2.12 20.65 4.94 19.23 4.76 7.95 1.94 20.82 5.12 10.94 2.65 8.65 2.12 28.77 6.88 12 2.65 14.82 3.7 8.47 2.12 12.36 3 18.35 4.41 8.12 1.94 21.18 5.12 18.35 4.41 8.47 1.94 20.47 4.77 9.71 2.64 8.29 1.95 15.36 4.05 18.18 4.24 7.41 1.76 5.65 1.06 13.94 3.18 2.29.71 9 2.47 2.83.88 10.41 2.82 6.71 1.94 11.29 2.12 7.06 1.24 22.24 5.11 9.88 2.47 1.41.36 13.94 3.53 22.06 5.11 17.83 4.24 9 2.12 21.71 5.11 19.06 4.77 29.29 7.06 17.12 4.06 9.53 2.29 22.06 5.29 13.24 3.18 35.47 8.47 8.47 2.12 9.35 2.29 30.89 7.77 30.71 7.06 18.7 4.41 15.53 3.88 6.71 1.77 25.59 5.64 20.12 4.77 30.88 7.59-2.47 9.35 45.36 10.59 67.24 15.7 41.65 6.71 39.18 13.41 2.47-9.53 11.29 2.65 9.71 2.47 26.12 6.35 30.88 7.41 17.65 4.06 49.24 11.47 11.64 2.82 35.83 9 10.41 2.48 7.24 1.76 31.41 7.24 11.3 2.82 37.23 9 14.3 3.7 2.29.53 5.65 1.24 6.88 1.41 22.24 4.59 20.83 4.76 5.11 1.24 53.12 12.35 21.89 4.94 11.29 3-13.76 101.12-5.47 102-6.18 17.12 3 15.35-13.41 100.06-.89 11.82-11.64 94.94-3 5.12-8.47 67.06-2.47 20.11-.89 10.24-.7 10.76-1.24 15.18-.7 5.47v3l-.36 4.41-10.23 83.12-2.65 22.59-8.12 64.76-3 24.88-5.47 43.24-3.71 29.47-.88 8.29-3.35 28.59-24.71-6.18-9.71-2.47-70.59-16.94-16.06-3.88-18.53-4.41-7.59-1.77-8.47-2.11-16.23-4.06-13.42-3-9.35-2.12-23.3-5.65-48.53-11.82-20.82-4.77-27.89-6.7-18-4.41-27.35-6.53-12-2.83-38.65-9.17-48.71-11.47-21.18-4.77-4.94-1.06-16.06-3.88-7.94-2.12-24-6.35-18.18-4.94-43.24-10.59-41.47-10.23-43.24-10.06-23.83-6.18-48.88-11.65-48.53-11.47-68.13-17.11-29.47-6.89-20.29-4.76-12-2.3-12-2.64-36.54-8.83-16.76-4.05-15.89-3.71-31.06-7.41-11.64-2.83-8.3-1.94-29.47-7.23-31.41-7.41-13.77-3.36-40.24-9.7-10.23-2.47-4.95-1.24-13.05-3-9.36-2.29-21.53-5.12-32.3-7.76-13.05-3.18-5.65-1.24-5.47-1.23-19.59-4.59-9.71-2.29-12.88-3.18-12.53-3-35.48-8.47-13.94-3.35-22.41-5.3-12.53-3-12.88-3-7.59-1.94-14.65-3.53-13.77-3.35-13.23-3.71-2.65-3.35-1.76-.71-34.24-9-4.77-.88-16.41-3.88-11.82-2.82-14.47-3.36-25.95-6.53-5.82-1.58-3.88-1.06-6.36-1.59-14.47-3-7.94-.88-3.88 1.59-4.42-1.06-6.7-1.42-15.88-3.7-23.65-5.82-5.65-1.42-19.94-4.94-48.89-11.12-10.23-2.47-28.59-6.7-8.83-1.94-11.29-2.83-37.59-9.53-9.89-2.29-38.65-9.35-9.7-2.47-31.06-7.41-9.71-2.3-9.18-2.12-34.41-7.76-21.36-5.12-30.7-7.59-43.59-10.41-37.77-9-10.94-2.65-10.59-2.64-68.83-16.41-13.76-3.36-26.65-6.35-66.89-16.06z" stroke-linejoin="round"/></defs><use xlink:href="#a" fill="#9dc8ca" stroke="#6bb4d2" stroke-width="5.76"/><defs><path id="b" d="M2202.31 2212.92l2.47-9.35-30.88-7.59-20.12-4.77-25.59-5.64-6.71-1.77-15.53-3.88-18.7-4.41-30.71-7.06-30.89-7.77-9.35-2.29-8.47-2.12-35.47-8.47-13.24-3.18-22.06-5.29-9.53-2.29-17.12-4.06-29.29-7.06-19.06-4.77-21.71-5.11-9-2.12-17.83-4.24-22.06-5.11-13.94-3.53-1.41-.36-9.88-2.47-22.24-5.11-7.06-1.24-11.29-2.12-6.71-1.94-10.41-2.82-2.83-.88-9-2.47-2.29-.71-13.94-3.18-5.65-1.06-7.41-1.76-18.18-4.24-15.36-4.05-8.29-1.95-9.71-2.64-20.47-4.77-8.47-1.94-18.35-4.41-21.18-5.12-8.12-1.94-18.35-4.41-12.36-3-8.47-2.12-14.82-3.7-12-2.65-28.77-6.88-8.65-2.12-10.94-2.65-20.82-5.12-7.95-1.94-19.23-4.76-20.65-4.94-8.65-2.12-18.53-4.41-12.53-2.83-8.29-1.94-11.65-2.64-17.83-4.24-31.23-7.76-9.18-2.12-8.47-2.12-21.18-5.12-8.29-2.11-18.89-4.42-21.17-5.29-8.65-2.12-18.71-4.59-19.41-4.58-9-2.3-20.3-4.76-31.94-8.47-7.94-1.94-3.89-1.06-11.47-3-10.23-2.47-3.18-.36-2.29-.35-4.77-.88-11.12-2.3-10.23-2.11-55.95-13.94-9-2.3-33-8.12-30.18-7.41-6.88-1.59-28.06-6.88-8.47-2.12-13.94-3.35-21.89-5.29-8.12-1.94-42.35-10.24-8.83-2.12-16.41-4.06-28.59-6.7-8.47-1.94-46.59-11.12-8.65-1.94-17.82-4.24-45.36-11.11-8.47-1.95-30.53-7.58-30.53-7.42-9.36-2.29-91.06-21.7-8.65-2.12-18.18-4.24-10.94-2.64-8.82-2.12-16.94-4.24-19.06-4.59-8.12-2.11-81.36-19.77-8.29-1.94-12.36-3-16.41-3.88-10.77-2.65-8.11-2.29-24.18-5.47-3.53-.89-2.47-.52-5.47-12.18-6-13.77-9.89-45.88-27.53-108.53-12.88-58.94-4.59-18.53-7.77-37.94-4.05-20.47-3.18-15.17-4.24-31.77-2.82-18.17-4.06-33.71.35-26.65 1.42-25.05.35-9.36v-1.06l.35-4.06 1.41-18.52.89-11.47 1.41-13.77.17-1.23 2.83-27 2.12-19.77 4.41-37.94 1.41-9.35.53-2.83 16.23-63.17 11.83-55.94 16.06-33 8.82-15.71 5.12-8.64 10.24-16.95 2.82-9.35.88-3 1.77-6.7.88-2.12 1.94-4.94.53-1.06 2.3-4.94 6.35-13.94 19.06-39.89 14.82-31.05 14.65-30.36 17.47-32.11 11.65-23.12 34.77-72 108.89-232.06 12.53-17.47 3.35-4.41 25.94-53.82 17.83-32.65L422.5 249l18.53-40.94 23.65-51.36 23.29-45.17L502.09 84l9.88-21 3.36-7.41 4.05 1.06 2.3.53 9.88 2.64 14.3 3.36 9.35 2.29L593.86 75l28.06 7.06 105.89 25.23 8.82 2.12 13.24 3.18 13.24 3.17 6.35 1.59L841.11 135l38.47 9.17 34.95 8.12 4.76 4.94 2.65.53 6.18 1.59 3.88.88 56.3 13.94 13.76 3.71 7.59 1.59 28.41 5.82 8.65 1.94 6.35 1.42 7.24 1.58 1.94.53 2.83.71 1.76.35 2.47.53 2.12.53 4.41 1.24 3 .88 1.77.35 5.29 1.24 5.29 1.41 18.36 4.59 7.41 1.76 19.06 4.59 14.47 4.23 5.12 1.59 4.59 1.06 4.41 1.06 20.12 4.41 5.47-1.94 15.88 3.88 34.06 7.77 7.95 1.94 23.47 5.29 14.47 3.71 32.3 7.59 9 2.11 27.53 6.36 7.41 1.76 20.12 4.94 18.35 4.41 10.24 2.48 15.71 3.88 27.88 6.88 25.59 6.53 17.82 4.41 9.18 2.3 21.36 5.29 15.35 3.71 10.06 2.47 21 5.11 11.12 2.83 10.06 2.47 1.76.53 24.71 6 12.53 2.82 8.12 1.76 3.35.89 28.24 6.88 9 2.29 12.18 3.18 10.94 2.65 8.29 2.11 7.24 1.95 57.71 14.82 5.47 1.41 3.35.71 14.3 3.53 27.35 6.35 14.65 3.7 19.94 5.12 14.83 3.71 18.53 4.59 7.76 1.94 20.65 5.29 31.59 8.3 4.24 1.05 3 .71 3.88.71 5.12.88 5.11.7 4.77.36h3.71l4.41-.18 4.23-.35 3.53-.35 4.94-.71 6.89-1.06 4.94-1.23 4.76-1.42 5.12-1.94 3.36-1.23 1.58-.71 5.3-2.47.53-.18 4.41-2.47 4.59-2.47 5.12-3 9-5.64 15.35-9.89 9.35 5.83 169.6 74.47 52.59 68.47-5.11 68.82 66 267.17-3.35 14.47-1.42 6.36-1.58 6.35-1.59 6.88-1.94 7.77-1.59 8.47-1.24 4.76-3 15.18-4.94 21.35-2.12 9-3.88 15.71-7.23 30.17-13.42 54.88-1.94 8.65-4.59 19.24-4.59 19.23-8.64 36-12.71 52.77-13.06 53.99-6.53 26.83-.88 3.88-1.06 5.29-4.24 18-4.76 20.47-8.12 32.83-12.88 54-12.71 53.82-9.18 37.76-3.88 16.24-3.7 15.53-22.06 91.59-16.59 68.47-1.06 4.05-1.94 8.83-6.36 26.82-4.23 17.65 54.18 1.06 142.95 36.53 60.53 14.29 33.71 6.18 76.24 19.06 1.76-6.71 23.65 5.65-1.76 7.41-5.83 24-33.71 139.23-22.76 96.53 8.12 6.53 4.94 2.82 140.65 88.77 25.59 13.06 82.95 42.17-4.94 16.94-2.65 62.12-22.24-4.59-6.88-1.41-5.65-1.24-2.29-.53-14.3-3.7-37.23-9-11.3-2.82-31.41-7.24-7.24-1.76-10.41-2.48-35.83-9-11.64-2.82-49.24-11.47-17.65-4.06-30.88-7.41-26.12-6.35-9.71-2.47-11.29-2.65-2.47 9.53-39.18-13.41-41.65-6.71-67.24-15.7-45.36-10.59z" stroke-linejoin="round"/></defs><use xlink:href="#b" fill="#9dc8ca" stroke="#6bb4d2" stroke-width="5.76"/><defs><path id="c" d="M1535.56 4322.95l-2.29-1.41-2.12-1.06-3.17-5.29-.71-.35-4.06-.71-4.94-.88-2.29-.71-3-1.06-7.59-1.76h-.36l-12.88-3.18-29.47-5.11-4.94 1.76-15.18-3.53-23.3-5.82-9.35-2.3-15.35-3.88-32.12-7.59-16.77-3.88-16.94-4.06-67.59-16.23-12.89-3-19.23-4.59-45.89-10.77-13.23-3.35-19.06-4.76 5.82-24 2.47-10.41 5.47-23.12 12.71-52.06 12.35-52.94 8.65-36.71 4.06-16.58 3.35-14.3 9.71-40.06 12.88-54 10.06-42.7 2.65-10.41 2.29-10.24 2.83-12 2.47-10.23.7-2.83 2.3-10.06 1.76-8.11 6.88-27.53 7.42-29.83 4.05-17.11 8.12-33.53 3.89-16.41 8.11-32.83 3.89-16.23 2.29-9.18 6-26.47 1.77-7.41 1.76-7.06 5.47-23.12 1.06-4.94 16.77-72 3.53-14.29 3.7-4.24 1.41-5.47 3-13.76.89-4.77 2.64-10.23 1.42-4.94 2.11-7.41 5.3-21.18 1.59-6 1.05-4.59-1.41-5.29.89-3.36.52-2.47.71-3.35 5.47-23.29 3.53-15 12.18-52.06 3-13.24 4.06-16.76 17.47-74.47 4.24-17.47 4.41-18.35 18.17-74.65 3.71-15 3.35-14.29 16.24-66 2.47-12.18 3.18-15.18 5.65 1.24 13.05 3.18 32.3 7.76 21.53 5.12 9.36 2.29 13.05 3 4.95 1.24 10.23 2.47 40.24 9.7 13.77 3.36 31.41 7.41 29.47 7.23 8.3 1.94 11.64 2.83 31.06 7.41 15.89 3.71 16.76 4.05 36.54 8.83 12 2.64 12 2.3 20.29 4.76 29.47 6.89 68.13 17.11 48.53 11.47 48.88 11.65 23.83 6.18 43.24 10.06 41.47 10.23 43.24 10.59 18.18 4.94 24 6.35 7.94 2.12 16.06 3.88 4.94 1.06 21.18 4.77 48.71 11.47 38.65 9.17 12 2.83 27.35 6.53 18 4.41 27.89 6.7 20.82 4.77 48.53 11.82 23.3 5.65 9.35 2.12 13.42 3 16.23 4.06 8.47 2.11 7.59 1.77 18.53 4.41 16.06 3.88 70.59 16.94 9.71 2.47 24.71 6.18-3.18 27.53-1.59 12.53-1.06 9-3 24.17-2.64 20.3-1.24 9.53-1.23 9.7-3 21.89-8.3 65.64-2.29 19.24-14.65 119.64-1.06 8.12-1.94 16.94-.35 2.12-4.59 37.59-1.41 10.58-.53 3.89-.71 3.7-1.06 8.83-.17 3.88v2.65l.17 3.17v8.65l.53 8.47 1.06 11.47.35 7.06 3.36 70.76 4.06 38.47 1.76 12.71.35 9.7 1.24 17.83.53 4.94 1.23 19.59-2.11 8.64-.36 4.06 3.36 29.47.7 11.65 1.24 22.41.35 26.65 3 24 3.53 53.12 1.59 15.88 1.76 10.76 1.59 19.77.71 4.41.88 4.41-22.77 4.06-2.64.35-9.89 1.06-5.47.18-6.53.17-7.41-.17h-.53l-5.29-.36-5.47-.7-3.36-.71-3.35-.53-3-.7-4.94-1.41-3.53-.89-2.65-.88-3.18-.88-18.17-4.59-6.53 27.53-19.77 79.76-25.06 107.65 51 12.35 46.06 10.59 9.89.88 35.12 12.53 36 .53.35 6.18 1.77 22.76.88 13.06 1.94 23.47.53 6.18 1.06 14.47 2.47 39.7 1.77 9.71 1.05 12.35 1.95 20.83 3 31.41-26.12 4.94-9.53 1.76-13.06 2.47-12.71 2.12-6.35 1.24-5.65.88-10.94 1.06-6.36-.18-5.29-.53-7.77-1.59-12.53-2.64-5.11-1.06-12.53-3.18-15-3.71-15.01-3.52-33.7-7.95-25.77-6.35-21.71-4.94-22.23-5.47-54.89-13.06-54.89-12.88-28.59-7.06-22.06-5.29-14.47-3.53-20.29-4.42-25.06-5.47-50.48-12.17-48.88-12-48.53-12.35-27.36-6.71-21.18-5.29-13.06-3.18-34.94-8.3-9.88-2.29-35.83-8.82-10.76-2.47-9.18-1.94-7.77-1.59-23.11-5.83-.71-15.17-3-2.83-3 .71-3.35-.53-1.59 2.12 1.41 3.7-5.47 4.77-1.41 2.12-1.94 1.23-11.12-2.65-7.94-1.94-18.89-4.58-7.94-1.77-41.65-9.71-38.3-9.17-49.94-12-51.18-12-23.82-5.65-49.6-12.17-33.88-8.83-11.3-2.82-6.88-1.77-17.29-4.06h-7.42z" stroke-linejoin="round"/></defs><use xlink:href="#c" fill="#6bacaf" stroke="#097d9b" stroke-width="5.76"/><defs><path id="d" d="M1416.97 5280.12l-11.65 3.88-13.41 3.18-18.53 3-21.18 2.29-45 2.47 11.65-47.82.17-.35 12.18-51 4.41-18.35 4.41-18.36 15.89-66.17 4.41-18.35 4.59-19.59 16.23-67.77 4.06-17.64 4.41-18.36 17.12-71.29 4.42-17.65 4.76-19.94 13.77-57.7 2.82-10.77 4.94-19.59-13.94-3.35-34.94-8.29-48.18-12.18-48.71-12-48.36-11.65-49.06-10.76-50.3-12-8.65-2.12-34.94-8.47-3.35-.88-22.24-5.12-10.76-2.65-16.42-4.05 6.53-26.83 1.77-7.41 10.94-45.35 3.53-15.18 3-12.7 10.94-46.06 8.65-36.88 6-25.06 5.29-21.53 1.24-5.12 1.59-5.47.53-3 3.7-17.29 10.24-43.06 2.47-10.59 3.53-13.59 6.71-27.17 3.17-12.36 3-12.88 2.65-11.29.88-3.18 4.94-20.82 1.95-8.47 19.06 4.76 13.23 3.35 45.89 10.77 19.23 4.59 12.89 3 67.59 16.23 16.94 4.06 16.77 3.88 32.12 7.59 15.35 3.88 9.35 2.3 23.3 5.82 15.18 3.53 4.94-1.76 29.47 5.11 12.88 3.18h.36l7.59 1.76 3 1.06 2.29.71 4.94.88 4.06.71.71.35 3.17 5.29 2.12 1.06 2.29 1.41h7.42l17.29 4.06 6.88 1.77 11.3 2.82 33.88 8.83 49.6 12.17 23.82 5.65 51.18 12 49.94 12 38.3 9.17 41.65 9.71 7.94 1.77 18.89 4.58 7.94 1.94 11.12 2.65 1.94-1.23 1.41-2.12 5.47-4.77-1.41-3.7 1.59-2.12 3.35.53 3-.71 3 2.83.71 15.17 23.11 5.83 7.77 1.59 9.18 1.94 10.76 2.47 35.83 8.82 9.88 2.29 34.94 8.3 13.06 3.18 21.18 5.29 27.36 6.71 48.53 12.35 48.88 12 50.48 12.17 25.06 5.47 20.29 4.42 14.47 3.53 22.06 5.29 28.59 7.06 54.89 12.88 54.89 13.06 22.23 5.47 21.71 4.94 25.77 6.35 33.7 7.95 15.01 3.52 15 3.71 12.53 3.18 5.11 1.06 12.53 2.64 7.77 1.59 5.29.53 6.36.18 10.94-1.06 5.65-.88 6.35-1.24 12.71-2.12 13.06-2.47 9.53-1.76 26.12-4.94 3.17 27.53.71 8.47 5.47 52.23 2.12 21.35.7 4.42 4.06 44.99 2.65 42.53 2.65 28.24 1.76 11.29-.18 13.94-.17 16.24 1.94 13.59 2.12 4.59 3.53 7.58-1.06 4.42-.53 2.47-1.24 5.47-2.82 11.47 1.76 33.35.89 12.53 1.41 20.12 2.47 32.11 3.53 42.36 3 39.88 1.23 15.53 4.24 42.35 5.47 59.12 1.24 16.58 2.11 33.53 4.42 77.83 2.47 36.53.35 12.7-.35 20.12-2.12 4.94-.53.88v10.41l7.59 6.36 4.59 79.05 5.11 72.18.53 9.71-.88 7.58-.53 2.47-8.65 1.59-32.47 3.89-3-.18-33.35-4.24-1.77-.35-23.65-4.76-15.88-4.95-9.18-2.82-17.12-6.7-1.41-.71-25.76-13.94-21.36-12.88-6.7-3.89-23.3-13.23-4.06-2.47-11.47-7.24-21.18-11.64-2.12-1.24-17.47-9.7-18.88-10.06-32.12-14.3-11.65-3.7-5.12-1.77-4.06-1.41-5.11-1.76-7.06-2.3-9.18-3-21.18-6-2.82-.88-37.77-11.12-17.47-5.12-17.65-5.29-3.35-1.06-31.94-9-28.77-8.29-27.35-6.36-32.12-9.35-31.42-9.17-16.06-4.77-16.59-4.94-36.53 1.41-13.24-4.23-.35 6 .71 25.76-6.18-.71-2.82 1.59-4.24-30.7-.53-5.47-3.88-1.06-2.82-.71-32.3-23.82-19.24-14.12-26.82-8.82-16.77-5.47-10.06-3.36-10.06-3.17-29.82-50.83-16.06-27.17 1.94-4.77.88-1.94 3.53-3.35 2.65-4.24 2.65-6 4.41-15.17 4.59-18 1.94-10.24-16.24-3.7-15.35-3.88-21.89-5.12-54.35-6.18-22.77-2.47-1.23-.18-6.71-1.94-4.94-1.94-7.77-2.82-48.18-36.71-7.06-1.94-12.7 52.24-4.94 20.11-4.24 18-4.23 18.18-6.89 27.18-28.41-6.71-13.41-2.12-14.12-1.94-13.06-1.23-14.65-.36-71.47 3.18-10.95.71-9.17 1.05-9.89 1.42-7.06 1.94-11.29 4.06-28.41 10.76-62.65 31.94-16.24 6z" stroke-linejoin="round"/></defs><use xlink:href="#d" fill="#09757a" stroke="#00465f" stroke-width="5.76"/></svg>