<svg width="451.2" height="384" viewBox="0 0 3383 2880" xmlns="http://www.w3.org/2000/svg" xmlns:xlink="http://www.w3.org/1999/xlink"><path fill="#fff" d="M0 0h3383v2880H0z"/><defs><path id="a" d="M2814.76 1988.11l-.21-.21h-1.69l-2.96-.63-8.67-7.51-6.77-9.19-2.64-7.72-6.13-8.25-.42-.95-3.07-4.12-1.27-4.55-.53-2.32-3.06-8.46-.85-1.8-1.69-4.65-.53-2.32-.95-3.7-.95-3.28-.21-1.9-1.59-19.56-1.06-4.23-.42-1.48-.63-3.8-.95-1.59-.53-.53-.74-.53-.53-.63v-5.6l-1.59-7.3v-1.05l-2.01-9.62-.95-3.92v-2l-.21-1.17-.84-7.29-.11-.85-.32-2.85v-1.48l-1.05-5.18-.53-1.38-.43-2 .85-3.92.21-1.05-.74-3.17.11-1.27.63-3.28-.42-1.8-.32-.52-.63-.43-.64-1.05-.21-1.17-.11-2.53.22-2.33-.96-4.97.11-.95-.11-.85-.84-2.85.1-3.17-.21-1.48-1.37-5.18-1.06-2.86-.95-1.9-1.16-3.06-1.8-5.61-1.37-3.06-3.81-9.2-1.69-5.18-9.3-13.53-3.81-5.6-8.35-11.1-9.83-11-6.98-5.92-11.84-8.88-2.86-1.69-.53-.31-.74-.53-6.23-4.02-5.71-4.65-4.34-3.17-4.33-1.38-8.25-2.01-10.89-4.54-7.82-4.34-14.06-7.71-3.06-2.43-3.71-2.86-5.49-4.86-4.34-5.18-3.59-5.6-4.02-8.46-3.91-9.94-4.12-7.71-12.16-16.71-4.34-5.18-3.06-4.33-7.51-15.12-1.27-2.75-1.16-2.43-.95-1.79-2.33-4.76-.42-1.06-1.48-3.8-2.22-5.5-1.58-4.23-1.49-3.7-5.07-18.71-2.01-13.95-2.01-12.27-.84-3.48-2.65-4.55-4.12-5.07-1.58-3.92-2.75-11.62-1.27-3.28-1.27-3.6-4.44-13.21-.63-2.43-.85-3.91-.95-5.39-.64-19.67-.1-9.62-.42-7.39-1.48-9.73-2.12-13.43.21-8.88 1.06-6.13.74-3.49 2.43-7.92 3.6-6.13.52-2.12 1.17-6.45v-4.65l-.74-3.7-1.91-11.94-2.85-13.11-1.06-4.86-3.28-6.77-7.4-18.92-4.12-7.51-1.69-5.18-1.06-9.83.11-1.9.53-7.4.31-1.59.85-3.91.85-3.59 7.82-19.14 5.5-11.84 1.9-3.7 5.81-3.17 7.4.53 10.15 3.07 10.47 3.17 10.25 3.17 7.72 2.11 2.12.43 1.48-.22 1.58-.52.32.84.95.95 2.33 1.38 4.75 1.69 12.37 3.91 8.67 2.33 10.15 2.85 10.47 2.96 7.19 2.11 21.99 6.24 30.02 8.99 5.81 1.69 17.98 5.07 20.51 5.6 22.72 7.19 15.02 4.23 4.86 1.38 10.68 2.53 3.38.74 10.89 3.17 12.79 3.6 8.46 2.43 15.54 4.44.74.21 6.55-20.3.74-2.22 2.12-7.08 6.45-22.09.42-1.59 2.85-9.93 2.75-9.62 4.44-15.65.74.21 4.97 1.38 2.54.74 6.66 1.79 33.3 11.31 4.34 1.48 2.32-8.03 6.56-21.88.1-.53v-.95l-.1-.21-.22-.21-.31-.22-.43-.1-13.84-3.6-18.51-5.39-2-.63-7.4-2.12-5.82-1.79-3.59-1.27-.64-.32 8.14-28.86 2.54-9.09 14.7-51.9 1.26-4.55.74-2.32 2.65-9.1 3.7-12.68.53.21 9.09 2.43 28.96 8.56 11.63 3.49 9.94 3.07 10.68 3.49.95.31 8.99 2.65 5.39 1.27 17.55 4.96.74.11 16.38 4.76 3.92 1.16 6.23 1.9 20.93 6.13 38.8 11.21 4.87 1.48 6.66 1.9 6.76 1.9-7.93 27.91-5.28 17.66-4.12 13.84-9.2 31.72-7.93 28.33 3.49.53 1.05-.43 4.34-6.44 9.2-16.92 8.77-14.16 8.88-14.06 1.9-2.75 18.08 4.97-2.43 8.03-2.43 8.78-4.65 17.23-3.17 10.99-.22 2.64.22 6.77.1.21.95 12.69.53 1.69.64 2.53.31 2.12.21 3.91-.1 3.49-.53 4.97-2.54 8.56-2.01 6.87-.95 3.07-.31 1.79-.11 1.91.32 1.79 2.53 9.94.85 2.54.11.31 1.37 1.48 1.16.74 4.66 1.59 8.35 2.01 1.05.42 15.02 5.18 3.91 1.06 11.73 2.85.11 2.64v1.91l-.85 4.33-1.37 4.12-1.16 2.54-.85 1.38-2.22 2.53-3.38 3.28-2.75 1.69-3.39 2.01-7.29 4.97-.74.53-3.49 2.96-4.44 4.75-.63.64-1.69 2.53-7.09 10.36-11.52 13.64-.85.95-11.2 12.27-3.49 4.12-3.49 4.54-7.72 12.69 14.8 7.82 2.43.42h1.59l2.11-.31 1.8-.74 4.55-3.39 6.13-3.48.42-.53 1.27-2.33.63-2.22.22-1.58-.74-2.33.1-1.48 1.27-2.43 1.59-4.76.84-1.69.64-.53 1.37-.1 1.06.21.95-.11.85-.84.31-.64 3.39-6.97 1.05-4.66.53-1.26.21-.64 1.48-6.87.43-1.69 1.05-2.01.53-1.48.11-.21.1-.21v-.53l-.21-.21-.21-.21-.32-.22-.42-.31-.53-.64-.1-.63.31-1.48 18.82 3.38-.53 1.59-.74 1.58-1.16 1.69-4.65 9.84-2.22 4.54-2.22 5.82-2.12 3.8-2.53 4.02-5.18 6.55-1.91 2.54-1.37 1.8-2.22 3.27-2.43 5.08-2.86 3.7-1.48 1.69-2.54 4.02-1.37 2.85-.95 2.96v.85l.32.74.31 2.32-.21 1.16.21 1.8-.31 1.8.63 1.9.32 1.48.1 2.33-.1.95.1.74.32.53.95 1.37.85.85 1.69 1.05 2.85 1.7.96.74 2.64 3.48 1.58 2.86 2.22 6.45.32 1.26-.1 1.7-.43 2.32.53 2.12-.53 3.06-.42 2.33-.74 1.79-.11 2.65-.74 2.53-.1 1.06.21 1.9 3.7 10.58.32 1.16.31 1.06 2.01 12.89.21.74.32.32.42 1.06 2.22 13.53.96 3.38.52 1.37 1.17 3.6 1.58 5.07 1.17 2.86.95 2.01.74 2.11.74 4.12.1 1.8-.31 3.59-.53 2.54-1.69 3.49-.43.53-.42.74-2.85 7.5-1.06 3.49-.32 1.48-2.96 9.3-3.28 6.98-1.48 2.54-5.39 10.36-2.96 5.18-2.11 2.96-1.38.84-1.37 1.17-1.48 1.48-5.39 6.76-9.2 10.26-2.01 2.53-2.64 4.02-2.33 1.9-.95.21-1.27.64-1.37.32-1.27.52-1.69 1.17-3.28 2.75-3.7 3.38-2.75 3.17-2.01 2.85-1.48 2.54-3.38 5.29-1.48 1.9-1.8 2.85-1.79 4.34-.64 2.85-1.58 9.62-.64 2.43-2.01 4.87-2.85 9.83-.64 1.48-.84 1.05-2.33 4.34-5.39 7.4-2.43 4.01-3.81 7.19-1.05 1.8.1 1.69-.42 1.27-4.02 5.07-3.7 3.6-1.48 1.9-1.37 1.48-1.48 1.38-4.76 6.23-2.43 2.65-3.49 4.96-.53.43-.32.31-2.43 3.81-.63.84-1.69 1.8-2.96 2.33-1.06 1.27-2.12 3.91-3.27 5.39-3.39 6.34-3.59 7.93-1.37 3.7-.85 3.28-1.16 6.76-2.43 9.83-1.27 3.81-.95 1.27-.85 1.48-1.16 1.16-.96.85-1.79.95-4.87.53-3.8 1.05-8.14 2.96-.85.64-2.75 1.9-3.7 3.38-2.74 2.75-2.01 2.54-6.45 9.3-6.24 12.05-4.02 6.66-10.89 14.48-1.16 1.48-.95 1.17-2.22.95-2.22.95-1.27.53-3.49 2.54-4.54 4.12-2.65 1.8-.84 1.26-1.27 1.8-1.16.85-.85.63-.85.32-.63.74-1.27 1.8-.74.84-4.86 3.7-3.17 3.28-1.48.74-1.06.95-7.4 8.67-6.56 8.24-2.53 2.86-1.8 2.32-2.43 3.6-3.38 5.28-4.02 6.66-4.86 5.61-1.59 1.37-2.11 1.37-3.18 1.38-7.29 2.64-3.81.53-1.27.21-2.22.11-1.05.1-.43-.21-.42-.85-1.27-.31-1.05.53-3.49 1.37-2.33 1.16-1.8.43-5.07 1.05-6.77.64-1.48-.11-4.65.21z" stroke-linejoin="round"/></defs><use xlink:href="#a" fill="#9dc8ca" stroke="#9dd7f0" stroke-width="5.76"/><defs><path id="b" d="M2275.17 2097.74l.11-7.72 7.5-4.12 8.78-5.18 3.07-1.91 2.64-1.58 3.17-2.01 2.11-1.37 2.22-1.38 10.36-6.13 5.61-3.38 4.02-1.91 5.28-2.32 3.91-5.92.43-1.16 3.48-7.83.64-1.48 5.18-16.91.84-3.17 2.33-3.38 2.85-2.54 4.66-2.75 3.38-1.48 3.91-.32 4.55.85 3.38.95 7.19 2.33 3.28-.22 1.9-1.26 8.35-21.36 1.69-3.91 4.55-9.83 4.86-11.1 14.48-32.35 2.44.74 1.05.32 1.27.42-2.01 7.72-.21.74-.21.53-.32.42-.42.32-.32.21-.53.1-.52.11-.64.21-.53.32-.31.42-.22.64-.52 1.58-4.66 15.86-.1.74v.53l-.11.84-3.38 8.57-.95 3.48 3.59.53 6.77 1.59 8.56 2.32 4.13-13.63 8.88 2.53 3.48 1.17 3.6.95-2.33 14.37-.53 4.02-.1 3.6-.11 1.05v1.8l-.21 1.27-.21 1.06-.32 1.26-.42.96-.42.84-1.38 2.12-.42.84-.32.74-.31.95-.22 1.06-.21 1.06-.31 1.27-.22 1.26-.42 1.06-.21 1.16-.21 1.06-.21 1.06-.11 1.06-1.27.21-1.79.31-1.91.22-1.48.1h-1.69l-1.9-.21-2.54-.21-2.11-.32-3.28-.53.74.53.74.64 5.39 5.28 4.65 4.23.74-.21.74-.21h.74l1.17.21.84.31 7.08 1.59 4.34 1.27 11.63 3.38 13.53 3.6 3.17.52 2.33.11 2.22-.21 1.37-.53 2.54-.63 8.77-3.81 4.87-2.11.74-.32 7.19-3.59 6.76-3.07 1.38-.95 3.48-2.01 3.39-2.22 15.96-13 1.9-1.38 9.2-7.61 12.27-10.57 2.64-1.8.42-.21 3.07-1.58 3.06-.43 2.33.21 3.91.74 6.24 2.01 3.38.74 9.94 2.75 16.81 4.65 1.37.43 17.02 5.18 8.04 2.32 1.27.11.42.1 3.7-.74 1.16-.21h1.48l3.07.85.95.31 3.06.85 1.8.42.53.21.32-.21 2.11-.21.64.85.84.63 1.17.32 1.26.42 1.91.53.21 1.69.32 3.17.74 5.92 4.12 2.33-1.38 2.85-.95 2.01-.63 1.27-3.49 7.08-2.01 3.7 2.43 1.9 2.01 1.59-.42.32-.53.21-9.73 6.87-.95.53-3.06 1.69-3.49.32-7.51.95-7.93-1.8-5.49 18.29-2.65-.74 4.97-17.44-2.11-1.17-6.45 22.52-2.65 9.52-3.27-.64 2.43-9.41 5.81-22.51-9.51-3.07-.42 1.8 2.85 1.16-2.96 10.57-1.9-.74-.85-2.11-.42-.43h-.74l-.53.53-.95 1.48-2.75 11.53-.42 1.79-8.04 28.33-4.23-1.27 3.49-12.58 5.29-18.18 8.35-28.65-4.97-1.69 1.69-6.13-1.16-2.32-2.33-.43-1.69-.74-1.79.96-1.27 4.96-3.6-1.16-6.76 23.26 2.96.95-1.59 5.18-2.64-1.38-.53 2.01-6.87 23.68-2.12 7.4-3.38-.95.21-.85.42-1.48 7.93-27.06 2.43-8.45 4.34-15.86-10.26-3.38-5.6 8.14-4.54 15.54-2.01 6.87-2.43 8.03-6.77 23.89-3.49-.84 2.54-8.36 6.34-21.98 2.86-9.73 5.18-17.12-8.57-2.33-.42 1.37-4.34-1.16.32-1.37-11.73-3.6-9.31 32.14-2.11 6.98-2.54 8.45-4.23 15.44-5.07-1.48 6.24-21.36 2.96-10.04-4.44-1.37-2.12-.32-6.98-2.64-1.69-.74-1.58-.11-1.59 1.69-5.5 8.35-1.69 3.39-1.37 4.54-.74 1.91-.95 2.53-1.38 2.01-1.37 1.16-2.54.53-4.86-1.16-6.77-1.48-1.37 1.27-1.27 4.44-2.43-.74-1.17-.32-5.81-1.06-2.75 1.38-2.64 1.58-.74 2.75-.32.32-.21-.21-.53.1-.42.85-2.01 8.24-7.93 26.96 5.29 1.48-1.48 5.18-11.42-4.12 8.99-30.98 3.7-12.89 2.64-8.99-7.19-2.11-3.6 12.58-6.97 24.52-4.87 16.07-2.11-.42.32-1.06.95-2.64-3.28-.85-.95-.31 8.14-28.65.11-.53 1.37-4.76 3.28-11.1-2.33-.42-3.49 12.05-5.6 19.35-3.28 11.41-.84 3.07 1.27.63 1.79.95.95.53-.95 3.07-.1.74-.85 3.49h-.1l-7.09-2.54.21-.53.11-.42 1.9-5.92 2.75-9.52 6.98-23.78 1.58-5.39 2.44-8.04-4.66-1.37-7.08-2.22-9.09-2.64-6.24 21.35-.32 1.06-.52 1.69-.43 1.48-2.53-.85-1.17-.42-1.05-.32.1-.31.21-.74 2.43-8.88 4.76-15.65-15.22-4.02-6.45-1.9-6.66 23.47-2.54 9.2-6.24 21.24-2.53-.84 1.48-5.6 4.86-16.07 2.43-8.57 3.28-11.62 3.38-12.05-4.12-1.27-3.38-.85-7.62-2.32-2.11-.43-1.48.21-2.11-.74-2.22-.31-1.91.31-1.58.74-.74.85-.64 1.37-.74 2.22-1.27 3.6-1.26 4.97-1.06 3.17-1.48 2.96-.53.32h-.63l-2.54-.53-8.04-1.38-4.12-1.05-1.16-.32-6.77-2.64-2.01-.32-2.96-.53-2.11-.32-.95-.1-1.48-.21-1.38-.11-1.79.21-2.65 1.48-.95.74-7.61 3.38-1.48.64-.53.32-2.22 1.26-.42.32-1.38.74-2.53 2.22-.53 1.38-.43 1.05-1.58 4.23-1.06 1.9-1.48 1.27-4.33 2.43-5.08 1.91-2.64 1.16-1.59.21-1.79-.42-1.91-.11-1.79.74-1.17.64z" stroke-linejoin="round"/></defs><use xlink:href="#b" fill="#9dc8ca" stroke="#9dd7f0" stroke-width="5.76"/><defs><path id="c" d="M3118.6 1427.31l-4.55 3.39-1.8.74-2.11.31h-1.59l-2.43-.42-14.8-7.82 7.72-12.69 3.49-4.54 3.49-4.12 11.2-12.27.85-.95 11.52-13.64 7.09-10.36 1.69-2.53.63-.64 4.44-4.75 3.49-2.96.74-.53 7.29-4.97 3.39-2.01 2.75-1.69 3.38-3.28 2.22-2.53.85-1.38 1.16-2.54 1.37-4.12.85-4.33v-1.91l-.11-2.64-11.73-2.85-3.91-1.06-15.02-5.18-1.05-.42-8.35-2.01-4.66-1.59-1.16-.74-1.37-1.48-.11-.31-.85-2.54-2.53-9.94-.32-1.79.11-1.91.31-1.79.95-3.07 2.01-6.87 2.54-8.56.53-4.97.1-3.49-.21-3.91-.31-2.12-.64-2.53-.53-1.69-.95-12.69-.1-.21-.22-6.77.22-2.64 3.17-10.99 4.65-17.23 2.43-8.78 2.43-8.03-18.08-4.97-1.9 2.75-8.88 14.06-8.77 14.16-9.2 16.92-4.34 6.44-1.05.43-3.49-.53 7.93-28.33 9.2-31.72 4.12-13.84 5.28-17.66 7.93-27.91-6.76-1.9-6.66-1.9-4.87-1.48-38.8-11.21-20.93-6.13-6.23-1.9-3.92-1.16-16.38-4.76-.74-.11-17.55-4.96-5.39-1.27-8.99-2.65-.95-.31-10.68-3.49-9.94-3.07-11.63-3.49-28.96-8.56-9.09-2.43-.53-.21-3.7 12.68-2.65 9.1-.74 2.32-1.26 4.55-14.7 51.9-2.54 9.09-8.14 28.86.64.32 3.59 1.27 5.82 1.79 7.4 2.12 2 .63 18.51 5.39 13.84 3.6.43.1.31.22.22.21.1.21v.95l-.1.53-6.56 21.88-2.32 8.03-4.34-1.48-33.3-11.31-6.66-1.79-2.54-.74-4.97-1.38-.74-.21-4.44 15.65-2.75 9.62-2.85 9.93-.42 1.59-6.45 22.09-2.12 7.08-.74 2.22-6.55 20.3-.74-.21-15.54-4.44-8.46-2.43-12.79-3.6-10.89-3.17-3.38-.74-10.68-2.53-4.86-1.38-15.02-4.23-22.72-7.19-20.51-5.6-17.98-5.07-5.81-1.69-30.02-8.99-21.99-6.24-7.19-2.11-10.47-2.96-10.15-2.85-8.67-2.33-12.37-3.91-4.75-1.69-2.33-1.38-.95-.95-.32-.84-1.58.52-1.48.22-2.12-.43-7.72-2.11-10.25-3.17-10.47-3.17-10.15-3.07-7.4-.53-5.81 3.17 6.77-13.21 8.88-15.33 1.37-3.06 1.59-4.13 2.43-9.09 1.27-7.93 2.22-20.19 2.22-10.89 1.16-2.96 1.16-2.32 1.16-2.64 1.59-2.75 4.55-7.61 2.22-4.44 2.75-10.15 1.37-5.6.95-6.45 1.06-5.39.63-5.29-.53-6.03-.74-3.8-1.26-5.07-2.54-4.97-3.28-4.65-9.2-10.26-8.88-6.55-6.23-4.76-3.49-2.64-3.91-2.75-6.56-4.65-5.81-4.13-1.91-1.79-11.94-11.1-2.43-3.81-.85-1.69-4.55-8.98-1.37-2.33-6.66-10.78-4.65-6.03-10.05-13.74-4.86-8.46-1.37-3.27-2.54-4.66-2.85-6.02-5.18-8.04-3.18-6.34-3.38-7.19-3.38-4.01-3.17-3.07-.96-2.32-.42-1.8-.84-8.35.1-4.13v-9.51l.53-3.17.32-2.22-.53-7.72-.32-5.18 2.75-13 1.27-6.55 14.17-20.83 2.11-3.07 2.75-4.44 2.85-5.6 3.39-8.24 2.32-5.39 4.97-11.74 2.11-4.44 1.38-1.9 2.11-2.54 3.81-3.7 26.64-24.52 6.98-5.08 9.72-6.45 4.66-5.81 3.27-6.24 2.43-8.14 1.59-6.34 2.43-9.72.42-1.8.11-1.27v-1.48l.11-.85v-.95l.42-1.16.53-3.17.31-5.82-1.79-8.66-.95-2.22-2.01-4.97-3.81-8.35-3.7-7.83-7.29-15.11-5.82-22.1-4.54-19.87-1.7-14.69-2.11-11.84-3.07-9.31-8.14-19.55-4.75-11.42-2.33-5.71-5.6-27.06-1.48-14.06 7.61-6.77 8.56 1.38 7.61 4.86 4.02 5.82 7.4 1.26.11-3.27-8.14-14.38 10.99 7.82 5.92 10.57 11.1 2.96 19.14 5.82 4.65-15.96.74-2.54 2.11-8.25 4.55-16.59 6.45 1.79 13.21 3.91 3.6-13 11.31-39.32 1.37-4.44.53-1.59-.95-4.23 3.17-.1 2.86-.21 2.96-.53 6.55-1.38 2.86-.84 3.49-1.16 5.7-2.54 4.55-2.33 3.07-1.9 1.16 2.85 1.27 2.44.95 1.37-3.81 13.53-.31 1.27-.22.74-.31.42-.64.64-12.37 61.1 9.31 2.64 5.81 1.59.53.21.74.21 17.66 4.97 13.53 4.01 7.29 2.22 3.6 1.06.63.21.53.11 2.11.63 30.13 8.67 8.46 2.22 2.43-5.5 2.54.43-2.54-4.76-1.05-1.8-.22-.42-.21-.74v-1.06l.21-.74.32-.63.85-1.38.53-.95.84-1.05.42-.96.53-1.05.74-2.01 1.38-4.65.63-2.33 3.7-12.79 4.12-11.84 1.17-3.06 4.75-15.44 3.81-13.11v-1.05l-.21-.85-.74-.74-.95-.53-6.03-2.01-4.86-1.27-8.56-2.32-6.45-1.9-25.16-7.61-9.62-2.96-8.25-3.07 15.12-21.25 10.67 2.22 52.44 11.31.85-.1.84-.11 39.33 15.54-1.69 6.45-2.33 5.6-3.91 2.43-3.81 2.96-4.65 6.45-5.18 13.43-3.17 9.41-.1 7.4 26.21-30.77.74.74 1.27.43.53-.11.85-.63.42-.53 1.16-2.96 3.07-9.52 2.54-8.77 1.05-3.7 7.93 2.22 14.27 4.33 6.14 1.91 10.14 2.96 14.81 4.54-4.55 15.01-6.24 21.36-6.98 23.99-8.88 29.29-.63 2.53-1.48 5.18-2.64 8.99-3.07 10.36-.42 1.79 11.2 3.07 6.03 1.69 12.58 3.6 28.44 8.14 6.98 1.9 6.76 1.8 14.17 3.91 20.61 6.13 6.24-21.25 5.39-18.08 1.69-5.28 6.35-12.16 1.58-3.49 3.6-7.93 3.59-6.76 3.39-5.82.42-.74 5.71-8.56 8.14-13.11 5.07-8.03 4.55 1.27 4.54 1.48 5.4 1.69 12.58 3.49 7.92 2.43 11.95 3.17 2.75 1.06.95.74.74 1.16.21.42.32 1.17 1.59 5.6 3.38 17.65 3.59 19.03 3.28 14.59.63 1.58 1.7 3.18 1.26 1.79 1.06 1.27 1.8 1.69 1.59.95 2.32 1.06 4.02 1.38 20.72 6.44 7.19 2.01 17.23 4.34 2.22.84 4.12 1.38-1.16 4.96-.21 1.48-.11.96.53.84 4.97 2.43 15.22 4.23 3.28.85 5.18-7.83 5.18 1.38-.1 2.64.21 2.96.31 6.24-.1 2.96-.32 3.8-.74 3.7-1.27 3.81-1.69 3.49-.84 1.48-.74 1.16-2.86 2.86 10.36 1.79 10.26 1.38h1.16l.95.1.74-.1.53-.11.74-.21.32-.21.31-.11.32-.21.21-.32.21-.42.11-.42.21-.74.11-.64.1-1.26.11-1.7.32-4.54.21-2.12.21-1.79.1-1.27.22-1.38.31-1.69.21-1.58.22-1.06.21-.85.21-.84.32-1.59.1-.42.42-1.9.43-1.69.42-1.17.32-1.37.53-1.48.42-1.38.63-1.69.64-2.01.21-.63.21-.53.95-2.32.74-1.91.95-2.32 1.06-2.33 1.06-2.64.74-1.69.53-1.27 1.05-2.64 3.49-8.46 1.69-4.02 1.06-2.64 1.27-3.07 1.06-2.74.95-2.44.63-1.69.42-1.37.43-1.16.31-1.27.43-1.59.42-1.27.21-1.37.32-1.27.63-3.28.53-2.11.43-2.54 2.96.32 1.79.11 1.91.42 2.85 3.17 2.75 2.54 1.27.52 1.37.11 12.58 10.89-3.59 7.61-.85 2.01-7.61 23.68-1.16 3.59-3.17 9.09-4.44 7.61-6.03 9.84-8.35 12.36-2.86 2.65-4.65 2.22-3.17 1.9-2.85 2.85-1.06 1.7-1.48 1.37-2.64 1.27-1.06 5.6-4.02 11.95 1.06 1.37 1.06 4.97 1.37 2.43 13.32 20.72 5.6 9.72 3.39 5.08 13.32 10.99 3.91 7.19 2.01 3.38 6.34 2.54 6.03 2.43 4.33 3.81.74.84 3.17 3.81.74 4.02-.74 8.77.21 1.69.64 1.27 2.22 2.43.84.85 7.93 6.87 20.72 18.5 6.66 14.59 2.22 13.1.53 4.66-1.27 4.96-3.48 5.82-8.57 8.24-4.54 6.35-2.44 8.88-.95 5.07v5.92l2.01 8.14 2.54 10.57 1.58 5.6 4.34 4.23 4.23 3.07 3.49 4.97 5.18 6.34.1 1.27-1.27 6.13.64 1.27 1.27.63 2.43.11 6.66-2.01 3.06-.32 28.23-.21 6.66.74 6.98 2.64 4.97 3.49 3.38 3.17 3.6 4.55 2.74 2.54 1.7 2.53.42 1.91-.32 2.43-1.06 3.27-1.16 4.44-.32 2.12.22 2.22.52 2.85.85 2.43v6.03l-.63 9.83-.43 1.48-1.27 4.97-9.3 30.34-2.32 6.55-9.31 26.22-2.22 6.24-2.85 7.5-4.76 10.25-3.38 5.82-8.67 19.77-2.64 7.61-.74 4.23-1.06 3.38-1.06 2.22-4.12 5.71-4.23 6.87-2.75 3.17-2.01 3.91-1.27 3.49-1.37 2.75-3.28 5.28-6.55 11.95-1.17 2.96-2.11 3.81-2.33 5.49-3.7 11.95-1.16 4.75-4.86 14.7-.11 1.27-.21 1.05-.42.53-.32.11-.63 1.58-2.22 7.62-1.38 3.17-2.22 6.55-1.48 3.49-2.32 6.34-.64 1.8-2.32 4.76-1.27 2.43-1.8 4.65-.63 1.9-1.48 3.17-.53 1.38-1.38 2.22-1.27 3.59-.95 2.33-2.01 3.49-.42.84-.32 2.54-.84 2.11-2.33 3.49-3.49 5.5-3.38 5.49-1.37 2.96-2.33 5.61-1.48 4.12-.85 2.01-1.05 1.8-3.39 6.13-.74 1.79-1.79 3.7-1.91 2.86-1.05 2.01-2.33 3.38-1.16 2.22-2.75 4.76-1.16 1.79-3.81 8.78-1.16 3.7-.32 5.07-.42 2.54-.21 2.01v2.85l.31 1.38 1.69 2.32 2.01 1.27.95 1.16 3.18 9.52 1.27 3.59.74 2.64-.96 4.44-1.05 5.08-.11.74-.32.63-1.05 1.27-2.33 3.17-1.16 2.43-.53 2.12-.53 2.96-.74 2.11-.42.64-1.59 3.7-.53.42-1.05 2.11-1.48 2.33-.74.84-2.33 2.22-3.17 3.39-5.5 4.54-6.87 5.08-1.37 1.16h-.53l-2.65 1.8-1.48 1.58-.84 1.69-.32 1.27-18.82-3.38-.31 1.48.1.63.53.64.42.31.32.22.21.21.21.21v.53l-.1.21-.11.21-.53 1.48-1.05 2.01-.43 1.69-1.48 6.87-.21.64-.53 1.26-1.05 4.66-3.39 6.97-.31.64-.85.84-.95.11-1.06-.21-1.37.1-.64.53-.84 1.69-1.59 4.76-1.27 2.43-.1 1.48.74 2.33-.22 1.58-.63 2.22-1.27 2.33-.42.53-6.13 3.48z" stroke-linejoin="round"/></defs><use xlink:href="#c" fill="#6bacaf" stroke="#6bb4d2" stroke-width="5.76"/><defs><path id="d" d="M906.33 2770.27l-22.63 14.7-37 23.25-18.08 11.74-50.53 31.82 13.53-41.23 8.67-30.55 11.31-34.78 8.14-30.34 17.66-65.33 8.14-6.87 10.99-11.95 7.4-9.19 5.5-8.57 2.12-2.43 16.38-19.66 2.01-2.96 4.76-7.19 1.37-2.11 4.13-8.67.63-3.7.21-4.02-.53-6.66-.1-2.54-.32-7.82-.95-6.97.32-.64 4.33-11.31 6.03-14.59 2.85-7.93 10.89-26.53 1.48-4.02-20.3-5.49-2.01-.53-2.75-.74-31.61-9.41-32.77-8.67-3.8 13.21-14.07 48-52.96-15.54-6.24 21.67-11.42 36.68-37.42-11.1-15.12-5.28-18.71 65.22-4.02-.21-1.05-.43-.64-1.26-.63-5.92-.85-4.87-2.43-3.38-1.69-1.16-1.59-.11-1.16.64-1.48 1.05-1.16.64h-1.59l-2.96-1.06-.21.11-1.16.42-.85.85-1.69 2-2.64 1.38-.64.1h-.84l-.85-.21-1.48-.53-1.16-1.58-.53-1.16v-4.02l-.11-3.28-4.01-16.7-.85-13.22-2.11 5.4-2.01-8.36-1.91-1.37-1.9-2.01-1.27-4.33-21.35 4.12-9.94 2.86-23.36 8.66-39.23 15.65-8.03 7.61-12.26 1.59-1.59.1-5.18-.53-5.5-.84-19.45-2.12-19.66-.95-7.83-.63-5.07.31-2.43.64-1.59.53-2.22 1.27-10.46 4.33-2.22.74-6.88.53-6.55-.64-6.13-1.16-1.48-.63-1.38-1.17-.84-1.16-1.38-3.91-.53-2.33-.21-2.96.53-5.7.74-3.92 1.69-5.49 1.48-4.34 1.48-3.48 3.17-8.36 1.17-3.91 2.01-8.35 4.33-19.03.42-2.64.11-2.75-.64-3.06-.95-1.8-.95-1.16-10.57-8.78-3.7-2.53-7.51-5.82-1.16-1.16-1.16-1.59-.74-1.58-.53-1.91-.21-.52-.11-1.59-.1-.85.21-2.64 1.37-6.13.64-3.07.21-1.9.1-2.01-.63-2.32-.95-3.28-5.29-11.2-2.11-5.08-1.27-3.17-.95-4.44-2.54-19.56-.63-5.92-1.8-16.59-1.06-14.7 1.06-.63 1.37-1.69 1.06-2.01 1.48-2.64 12.58-27.17 6.66-14.8 6.03-12.69 5.39-10.89 6.55-14.58 10.15-22.41 1.8-4.13 6.13-11.63 13.74-25.15 6.77-12.8.74-1.26 3.91-7.09 2.22-3.7 9.73-17.65 1.8-3.38 2.85-5.08 5.29-9.41 9.3-16.28 1.8-3.06 3.49-6.98-6.24-5.39-16.28-16.07-12.05-11.84-6.66-6.55-4.02-3.17-2.12-.95-1.79-.43-5.71.21h-1.48l-20.72.85-8.67.21-2.22.74-1.48 1.48-1.38 2.96-4.97 10.04-1.69 3.49-31.92-10.46-10.58-3.49-7.19-3.28-20.08-5.6-.95-.32-2.96-.95-2.12-.63-7.5-2.54-.53 5.71h-2.86l-6.13.95-3.06 1.06-2.75 1.16-2.01 1.16-2.12 1.38-2 1.58-2.12 1.8-1.37 1.37-1.38 1.38-6.66 7.08-2.01 1.9-1.79 1.38-2.22 1.58-2.54 1.38-2.75 1.37-2.64.95-1.91.43-2.32.31-1.16.11-1.27.1-1.69-.1-1.38-.11-21.35-2.64-9.41-1.27-13.01-1.48-8.14-1.06-5.92-.74-5.07-.21-3.49.32-1.16.21-5.71 1.27-.21-1.59-.32-.74-1.27-1.9-6.24-6.13-2.96-3.7-2.01-3.91-1.48-3.6-.31-2.21v-5.18l.63-4.02 1.69-8.04 5.71-25.58.21-1.27-59.62-17.02-12.9-3.8-78.76-23.05 3.38-5.71 2.43-7.5 7.19-8.67 36.58-27.27 5.82-.11 23.15 6.45 7.61-.11 4.55-1.58 7.93-10.57 7.5-15.01 15.65-21.04 6.76-7.19 7.72-5.71 8.14-1.9 15.23-.11 3.91-2.11 2.01-3.59-2.86-.74-5.71-2.86-4.44-4.86-1.37-5.6 1.9-17.97 3.81-15.65-.11-17.34-4.65-25.9-3.17-12.26 4.54-18.6-1.05-3.49.63-6.34-1.16-6.98 4.33-12.26 3.49-16.71-.42-4.75 2.64-9.52 15.65-17.65 2.85-3.28 8.88-3.06 7.19-5.18 7.51-5.29 2.11-5.71 8.78-7.71 6.55-13.54 5.18-5.28 9.41-2.75 5.29-6.66 3.38-3.28 1.27-1.26 2.11-1.8 3.6-.11 16.7 3.38 12.9-.42 10.46-.95 21.78-6.55 14.17-3.17 10.15-4.23 7.19-1.59 5.49.42 3.49 2.33 8.78 4.02 3.91.42 4.02-1.59 4.01-3.17 4.34-5.18 3.49-6.13 4.44-4.33 1.26-.32 7.41-31.92-7.41-14.7-6.13-5.5-6.87.53-2.43-2.75-2.11-11.2-4.44-2.96-5.08-3.91-2.11-4.44-4.97-5.08-23.68-3.8-14.91-13.11-2.96-1.48-7.19-6.03-4.65-.42-4.86-5.07-7.72-4.13.85-2.74.63-3.07-.11-3.17-1.05-8.56 1.05.1 1.59 1.06 2.64 3.07 2.33 1.48 1.69.84 3.7 3.59 3.59 1.38 5.08 1.37 3.06.43 4.87-.43h10.04l4.34.74 5.28.53 4.86-5.6 25.91-36.68 28.12-39.54 26.21-37.1 15.86-22.31 11.42-16.38 1.06-11.74 4.75-3.06 12.27 1.37 9.72 3.91 7.72 1.91 5.08-1.06 15.01 4.54 11.52 5.39 1.8-2.96 1.8-3.59.1-15.75 3.38-21.04 11.85-27.48.1-26.01 2.33-5.49 3.91-21.89 22.41-97.67 1.27-5.61 1.8-3.48.74-.64 2.53-2.43 5.4-11.84 21.77-46.41 2.65-3.27 4.54-19.77 2.33-7.08 15.96-18.29 21.04-52.44 1.8-.84 4.65-.53 8.46 1.69 7.71 2.01 6.77 2.01 7.08 3.8 3.7 2.75 2.96.95 2.86-2.11 2.01-3.7-7.3-5.18-4.65-3.7-5.18-3.49-5.39-3.17-1.8-.85 1.9-6.87-1.58-5.81-4.34-4.23-2.64-6.66.95-9.94-1.9-8.77-1.48-2.11-4.55-5.08-1.58-1.48-4.55-4.23-13.85.43-9.09.74-16.49-3.39-3.81-2.22-.42-.21 75.69-41.97 14.07-4.54 11.73 2.22 36.47 11.31 6.87 2.01 1.17.95.31.95 1.06-1.58.85-2.54 9.2-36.47 12.68-13 19.24-9.84 17.34-2.43 96.94-189.11 33.2-24.64 96.31 28.86 14.17 3.92-4.44 16.27-2.86 9.73-.42 1.37-9.3 31.4 85.1 28.54 47.89 15.65 39.64 12.9 1.38-6.24 2.96-9.2 6.98-12.26 5.07-7.61 1.9-4.02 4.34-16.6.42-1.16 6.77-19.34 2.53-17.34.74-12.26 3.49-15.23 2.54-13.1 7.82-17.13 12.79-15.12 8.36-4.33 1.79-3.81 4.97-10.14 2.12-3.18 1.9-2.22 2.33-2 1.9-1.27 3.59-2.54.95-.95 1.27-1.9 1.38-2.33 1.79-4.02 1.17-3.27.74-5.92-.11-8.88.53-1.8 1.27-3.07.63-2.96-.1-1.58-.64-2.12v-2.43l1.27-4.23 1.17-1.9.95-.84 2.96-1.27.95-1.27.84-2.43.32-3.7.53-7.4.63-2.75.85-3.07 1.06-2.22 1.69-2.11 2.11-1.9 3.91-2.75.74-1.38 2.65-8.35 3.27-9.3 1.38-5.29 2.85-12.68 1.91-9.09 1.27-4.34 4.12-12.47 1.48-3.07 1.8-2.64 1.37-1.58 5.39-4.13 2.33-1.48 2.11-.95 4.76-1.37 3.91-.53 2.22-.85 2.64-1.58 3.7-2.54 2.75-2.75 2.86-2.32h.31l4.13-1.69 2.22-1.06 8.67-2.54 1.79-.63 1.69-.85 2.22-1.58 4.66-4.97 3.27-4.02 5.4-5.39 8.77-11.31 9.94-12.48 5.18-7.18 3.17-5.61 4.86-7.71 9.2-19.46 5.07-10.04 10.79-19.24 20.72-32.56 6.13-9.3 2.85-5.39 2.22-4.76 1.06-3.17.85-4.12.63-4.76-.21-4.02 22.1-22.83 7.82-30.13 4.12-4.12.32.11 6.98 3.17.63-.85-4.23-14.06.74-5.92-.1-12.68V41.54l4.01-.1 8.04-1.06 3.38-.84 3.81-1.48 2.11-1.17 3.07-1.69 4.01-1.58 1.8-.96 2.22-1.26 2.65-.96 5.6-2 3.49-.11 2.96.32 2.64.95.63.21-.21.85 2.22 28.43 4.34 16.71.95 3.69 8.88-3.06 102.65-7.4 13.96-23.68 2.96 1.48 14.38 6.66 7.71 2.96 2.86.63 10.57 1.8 3.28.42 4.54.32 7.83.32 4.33-.32 1.48-.32-1.59 6.66-1.48 4.55-1.16 3.28-3.49 4.44-2.22 2.11-1.69 1.27-1.69 1.06-2.64.95-2.33.63-2.43.11-6.56-.95-4.54-1.06-3.6-.95-2.11-.32-2.85-.11-3.07.74-2.43.96-4.55 2.43-13.21 8.98-2.96 2.65-3.07 3.17-1.58 1.27-6.77 3.59-3.17 1.27-.74.21-3.7.21-3.91.11h-2.86l-14.27.21-6.98.32-3.8-.11-4.55-.42-2.22-.11-3.07.42h-3.91l-19.34-3.17-5.29-1.27-.63-.21-3.39-.74-2.32-.84-4.65-.74-1.59-.11-7.08.32-.11 4.97-.21 3.7-.42 2.85-.53 3.28-.42 2.11-10.05 38.59-5.39 20.82-1.06 2.86-2.01 4.86-2.64 5.6-2.75 5.18-3.7 6.13-12.68 17.45-7.3 9.93-2.32 2.96-5.18 8.78-2.96 4.54-4.34 6.87-4.44 7.4-12.26 18.71-6.77 10.36-5.28 8.67-4.23 7.93-1.8 4.55-.85 3.59-.42 3.17.21 6.66 1.17 5.6 1.05 4.02.64 1.59.63 1.9 1.16 1.9.64 1.16 8.67 9.94 10.36 12.79 2.01 3.28 3.06 6.34.32.95 1.69 4.66 1.16 4.44.53 4.33.85 10.57.21 15.54 23.05 6.34 9.51 2.33 7.19 1.8 18.39 5.92 14.17 4.96 16.49 5.92 1.59.53 14.91 4.55 28.86 7.61 3.17 1.27 4.65 1.69.85.21 2.64.74 2.43.63 1.8.53 2.22.64 1.05.31 2.54.74 12.9 3.81 15.22 3.91 6.56 1.59 2.32.53 2.96.63 4.87 1.37 6.34 2.01 9.94 2.96 10.36 3.07 15.75 4.65 2.64.85.43.1 3.59 1.16.42.11 16.92 5.28 1.27 1.59-.43 3.28-3.27 8.98-6.35 23.47-.84 20.93 10.68.74-9.52 29.18 6.24 5.6 3.49 3.17 18.81 7.4 6.77 1.38 2.01.95 2.01 1.05 3.06 1.06 11.84 2.54 5.82 1.27 2.43.42h1.06l.42-.11.21-.1.32-.21.21-.21.11-.32.21-.53.42-.95 1.48-4.23 3.07-10.04 2.22.95 1.9.74 3.59.74h1.7l7.61-1.06h1.79l10.68 3.17 7.19-16.06 19.24 11.1.11.42.21.21.32.11.42-.11 50.53 17.65 8.99-29.49 8.14-28.44 12.9 21.15.21 7.29-.11 5.92.42.11 3.28.95 7.61 2.01 3.6.74-6.56 27.06 79.93 29.49 10.99 4.12 2.54-.95 14.69-39.64 2.44-7.08 1.16-3.6 1.06-3.06 1.16-3.38 2.01.52 1.9.74 1.8.64 1.58.53 1.8 1.26 2.75-.21 3.91-.84 8.35-7.08 1.59-1.27.63-.21 5.08-1.17 1.58.95 7.51-7.61 2.01.32 3.06.63 6.35 1.27 3.17.64 3.28.63 8.98 1.59 5.39.95 13.22 2.22 1.16.1 2.12.32h1.58l1.59-.32.74-.1.42 2.75.21 1.79-.32 1.59-.63 1.27-.21.32-2.64 4.12 1.05 4.54 9.09 7.51-3.27 2.11-3.6 3.28-1.05.95-4.02 4.76-2.86 4.97-7.93 17.02-4.22 11.2-17.87 35.42-4.97 8.24-3.38 4.76-8.99 8.45-19.56 15.54-6.23 6.56-3.07 4.86-1.16 2.64-15.75 35.52-2.54 7.19-2.12 7.3-.63 3.06-1.06 3.38-1.58 3.28-3.18 3.91-17.86 17.76-3.81 3.38-1.16 1.48-.95 3.07-.85 2.96-.42 4.23-.63 13-.64 17.23-.84 10.15-1.17 8.46-1.05 5.28-1.06 3.81-.95 2.75-.21.74-2.44 5.18-1.79 2.43-3.28 2.53-4.97 2.33-5.92 3.7-3.38 2.64-3.49 4.55-1.48 3.38-1.16 3.7-4.34 10.15-2.96 9.51-.63 2.75-7.62 31.4-.52 5.5.1 4.33.74 6.55 1.27 4.87v8.03l-.63 3.07-1.8 8.66-.95 5.61-.32 3.7.11 6.34-.74 5.6-1.8 7.09-4.23 10.46-5.39 15.33-3.49 11.52-.95 5.92-.53 9.94 1.48 7.93 1.69 4.75 1.8 3.49 4.86 8.35 1.27 3.81.42 1.06.85 2.53 1.27 9.83 1.27 1.8 1.79.21 3.17-1.9 11.42-10.47 4.87-1.9 6.02-1.16 6.45 2.64 4.44 1.27 6.77-.21 5.6-1.8h7.4l6.34 2.54 3.81 3.28 2.32 8.56 2.96 5.18 3.6 2.01 4.97-.21 5.39-2.96 5.39-4.76 5.6-5.82 11-14.37 14.48-22.73 2.33-4.12 2.11-5.39 3.39-6.98 3.48-4.76 4.34-4.76 5.07-2.85 7.19-2.75 2.43-.95 7.93-1.27 6.98.11 7.4 1.9 6.24 2.22 1.9 2.22 3.38 7.51.64 5.7-.42 7.62.31 5.39 1.17 5.6 1.69 5.28 1.05 7.19-.1 5.08.53 6.66.95 2.85 1.48 3.17 1.8 2.33 3.91 2.85 8.14 3.91 2.22 1.48.21 1.59-1.59.74-5.39-1.16-5.39.31-2.54.85-2.01 2.43-1.79 3.38-1.17 4.76-1.9 10.25-.95 8.46-.63 3.38-1.27 3.81-1.69 2.75-2.22 4.12-2.01 4.65-4.55 12.48-1.37 4.65-1.38 6.02-1.69 4.23-.42.64-2.54 4.44-3.49 9.4-2.64 9.1-2.64 5.6-3.6 5.49-2.75 3.28-2.11 1.9-.32.32-5.18 9.2-1.9 2.75-3.17 4.12-3.18 1.8-4.44.63-2.85-1.69-.53-1.16-.84-1.8-1.8-12.79-1.9-5.92-3.49-7.08-3.91-4.55-2.75-3.49-2.86-.95-5.07-.32-5.39-1.05-4.44-3.17-1.27-.53-.64.31-.95 2.01-.21 3.91v5.5l.42 4.86.95 2.75 1.7 3.91 3.38 6.24 4.97 7.72 1.58 5.71.53 1.9.64 2.11.52 1.91.32 2.64.32 2.54.1 12.05.32 2.75 2.33 4.75 3.06 8.25 1.27 4.44 1.27 1.69 1.48.74 3.07 1.06.63.74.64.63 1.16 2.33 2.01 4.75 2.22 3.49.53 2.33 1.16 2.22.74 2.75.84 2.11 1.91 2.22 2.22 1.59 2.22.63 1.79 1.59.96 2.53.31 3.39.11 1.16-.11 5.92.43 8.35.31 8.98-.1 1.7-.32 1.16-.53.84-1.16.43h-4.23l-4.86-.21-10.05-1.8-2.53-.21-3.7.63-3.81 1.27-3.38 2.01-1.69 1.27-.74 1.48-.96 2.11-1.16 3.91-2.11 6.56-2.86 5.71-4.12 6.65-4.12 6.56-5.61 10.57-3.8 7.51-2.65 5.81-2.43 7.61-1.16 4.97-1.37 3.38-1.48 2.33-6.14 7.82-4.12 5.81-.42.85-.42.85-.32 1.26.1 5.29.96 7.4 2 8.03.96 4.34 2.43 8.14 1.16 4.01 1.16 4.97.53 8.04.42 9.62v6.45l1.38 14.16.95 4.65.42 3.28-.42 4.65-.63 6.87-.11 2.12-.11 3.59v22.94l.43 7.29.53 3.49.95 2.75 1.37 2.64 2.33 3.28 3.38 3.81 6.45 6.66 8.46 8.45 3.91 4.55 3.7 2.54 2.32.74h1.91l1.16-1.06.63-1.59.64-2.43.42-3.91.85-3.7 1.69-4.76 2.96-4.23 7.93-9.51 3.17-4.55 2.54-4.75 1.58-4.55 2.12-8.77 1.58-7.93 2.33-7.4 5.6-14.8 2.75-8.14 2.33-5.07 1.48-1.59 2.75-2.32 2.53-.96 2.96-.1 2.33.84 1.8 1.59.95 2.33.53 2.74-.32 1.91-.95 1.26-2.01 1.27-.95 1.69-1.48 3.92-2.01 3.38-1.16 2.96-1.7 7.19-.84 3.8-1.8 6.56-1.37 3.27-2.33 3.49-1.69 3.28-.95 3.28-.21 2.85-.53 5.39-1.06 3.81-2.22 4.44-3.07 6.87-.84 2.75-.11 3.38.43 3.7-.53 4.55-.64 3.48-.95 8.04-.84 2.01-1.59 2.53-3.59 4.65-2.44 5.4-1.05 3.59-1.38 3.38-.74 1.17-.63 1.16-1.48 1.8-2.64 1.26-1.17-.21-.95-1.05-2.22-4.23-1.59-4.13-1.58-1.26-1.9-.43-1.59.85-2.01 1.48-2.11 2.11-1.38 2.22-4.01 7.3-1.27 2.53-.85 3.18-1.69 4.75-1.27 1.91-.95 2.43-.32 2.32.43 3.28 1.48 4.86 1.37 7.19 1.16 4.97 2.33 4.33 1.8 2.54 3.91 3.7 3.7 2.22 3.91 1.59 2.01 1.48 3.38 3.17 1.9 2.85 1.59 2.96.21 3.38.42 2.54.96 3.38 2.11 3.6 2.11 1.69 2.44.42 5.49-.31 3.28-.64h5.18l1.69.95.74 1.69 1.38 4.23 1.05 1.38 3.6 3.06 4.12 3.07 2.33.42 3.49-.42 3.7-.85 4.33-.42 7.19-.95 2.22.53 11.1 3.7 3.81 1.58 4.33 3.38 3.38 2.44 3.17.95 2.86-.85 1.58-1.37.85-2.01.32-2.33v-3.38l-.85-5.07-2.96-6.24-3.8-4.97-.85-2.22.11-1.48-.85-2.32-.11-1.7 1.17-5.18.1-2.74-.21-3.07-2.75-4.12-.63-2.33.21-2.11.95-4.34.74-6.87-.42-4.97-.95-2.96-.74-3.7-.95-7.18-.74-1.8-.96-1.8-5.07-5.07-.53-1.17v-1.16l.74-2.54 1.16-3.38 2.12-3.28 1.9-1.05 3.49-.21 4.76.21 1.79-1.27 1.06-2.64.11-2.12.21-7.61-1.06-4.44-.21-.53-1.16-4.12-1.48-3.59v-1.06l.53-1.16 1.05-1.06 2.12-.21 2.22-.85 1.27-1.48.31-1.9-.42-1.38-1.48-2.53-4.97-7.19-3.8-3.7-3.6-1.16h-3.49l-2.96 1.16-3.17 1.9-5.5 4.02-4.01 4.12-1.7 2.43-.74 1.8-.21 1.48.85 2.64.95 2.43.42 2.54-.31 2.75-1.06 2.54-1.8 2.22-2.75 2.32-5.18 3.49-5.71 1.16-3.38.95-3.8.22-1.48-.74-.85-1.48.11-1.91.74-3.17 1.79-6.23 1.91-6.35.84-3.17 1.59-6.13.42-5.18.11-4.02.21-5.92.42-6.76 1.06-5.61 3.06-9.19 3.07-6.66 2.64-6.34 1.38-5.71 1.16-5.39.74-7.09 3.28-12.37 4.86-18.49 2.54-13.22 1.58-19.34 2.33-19.67 1.48-5.92 1.9-5.92 8.46-20.93 5.18-13.63 2.11-6.56.53-3.49.21-4.65.53-8.56.74-2.96 1.59-2.85 3.06-3.49 4.55-5.6 2.33-5.08.74-3.17v-4.33l-.85-4.13-1.27-3.7-2.33-3.59-2.32-2.33-3.7-1.58-4.86.31-1.8-.74-.21-2 1.27-2.96 2.32-1.48 6.45-5.61 3.28-3.91 3.38-6.24 3.6-5.17 2.74-3.39 3.81-3.91 2.96-1.48 3.49-.21 5.39 1.27 9.83 1.69 4.87 3.28.31.53 4.87 7.5.74 5.81.84 2.44 1.06 4.01 1.16 2.43.21 1.38-.42.95-1.48.95-.74.42-.85 1.48-.74 2.22.11 2.33.74 4.33 1.06 4.13.53 4.75-.22 4.34-.63 3.8-1.48 3.07-6.45 10.04-3.17 5.6-1.27 3.49-4.23 17.97-1.37 9.52-.11.95v2.64l-.74 2.86-1.06 2.96-1.37 2.85-1.27 3.38-2.32 11.1-.64 1.91-1.06 1.58-2.32 2.43-1.59 2.65-1.16 3.7-3.81 13.95-.95 5.71-3.38 17.55-2.01 7.82-3.06 9.3-2.01 7.72-2.12 10.89-3.06 14.9-4.76 12.9-2.01 5.18-2.75 8.03-1.69 7.19.53 2.75h1.06l1.26-1.9.32-1.69.95-3.18 1.06-1.69 3.17-4.44 2.22-4.33 1.8-3.07 1.8-2.85 2.32-2.96 1.17-1.38 2.85-3.59 1.48-2.43 1.37-3.7 3.07-11 .63-3.06.74-3.49 1.48-5.5 1.8-4.22 2.43-4.55 2.65-7.61 1.37-6.45 2.33-7.29 6.23-15.97 2.54-8.24 1.48-5.18 2.86-11.42 1.37-8.56 1.59-5.71 2.11-4.76 7.29-14.48 1.27-4.23.95-3.38 2.12-9.09.74-5.29v-3.91l.84-2.85 1.8-3.17 8.88-11.42 2.12-4.86 2.11-5.29 4.02-13.74 7.4-19.77 3.28-7.61 7.29-17.02 2.85-6.03 5.82-10.57 2.01-4.54 3.17-10.57.53-3.81-.11-3.7-1.79-9.09-.85-5.6.11-1.06.31-2.22 1.17-3.59 1.37-2.54 2.64-3.91 3.39-2.86 4.12-2.64 2.54-1.48 2.11-1.8 2.01-2.11 1.06-3.17.31-3.91-.63-2.54-1.27-2.43.11-1.9.74-2.12 1.37-1.58 8.14-7.62 2.01-2.85 1.58-2.43 1.91-2.43 1.9-1.48 2.96-1.8 2.86-.74 2 .11h1.59l2.96.84 2.96 1.69 2.75 2.01 1.37 1.8 1.27 2.54.53 2.74.21 13.22.64 3.59 1.48 1.8 11.2 5.28 7.19 6.45 1.06 2.12.84 2.96 1.27 3.38 1.48 3.17.32 3.07-.32 2.01-1.27 3.06-.74 2.33-.74 9.41-.95 2.11-1.37 2.75-.85 2.11-.1 1.59.42 1.37 1.06 1.06 3.17 1.48 2.43 1.8 4.44 5.6 1.16 2.75.11 2.22-.32 2.01-.21 1.58-2.85 8.99-.32.74-2.01 3.17-2.11 2.54-3.7 3.38-3.07 2.43-1.48 2.01-1.48 3.28-2.22 5.6-5.92 11.1-1.69 4.44-1.38 5.92-1.16 2.85-1.69 2.75-4.76 5.6-4.54 4.65-6.14 7.51-4.44 6.66-2.32 4.54-1.27 2.96-1.48 5.18-1.16 4.87-1.8 3.49-2.86 4.22-5.81 6.66-3.81 5.82-2.74 6.24-3.49 8.66-1.69 6.03-1.7 7.93-2.32 5.92-5.82 13.74-.21.63-1.37 4.97-2.22 12.05-.64 2.12-2.75 3.7-1.79 3.27-1.48 4.13-3.6 11.31-1.37 3.17-1.48 2.11-1.59 1.48-1.58.53-1.59-.53-1.06-1.37-.42-1.9.11-2.22.84-4.34.64-2.96.53-1.69 1.58-2.96.64-2.96.84-6.55.74-2.33.64-.84 1.69-1.38 2.64-1.27.53-.74.32-1.48.21-5.39.31-7.29.53-4.02.95-2.96 6.35-17.02.84-2.85.43-2.22-.11-.74-.53-.53-.95-.32-.95.21-.74.74-.95 2.01-.95 2.96-1.59 6.03-1.48 4.33-3.59 7.19-2.86 7.4-1.37 2.33-1.48 2.43-2.33 2.32-.63 1.27-.43 2.54.11 3.06.21 3.17-.42 2.44-.64 1.37-.95.85-2.01 1.16-1.26 1.16-.64 1.59-.1 1.9 1.37 6.77-2.01 6.02-.74 2.75-.84 3.28-.85 4.54-.42 6.98.1.63.32 3.39 1.9 6.76 1.48 8.78 1.8 7.08 4.55 10.78 5.92 11.63 8.14 17.34.84 1.58 3.6 7.3 2 3.38 3.18 2.11 2.64.95 2.85.11 5.82-1.16 2.85-1.17 2.65-2.11.84-.95 2.33-2.54.84-.95 2.96-4.65 2.75-5.71 2.86-7.29 4.44-10.15 3.06-3.91 2.01-3.81 1.27-4.12 1.9-7.61.11-.43 2.85-7.18 2.65-6.66 7.5-17.23 3.28-6.03 4.33-7.93 5.5-8.56 13.96-19.66 1.9-1.91 1.69-1.26 3.59-.53 3.7 2.96 4.23 5.92 3.81 5.28 1.37 2.64 4.87 8.46 3.06 6.03 1.59 6.76 3.8 22.73 1.91 8.14 3.38 7.4 1.06 3.59.63 8.67 1.59 6.24 3.06 11.21 1.69 4.22.96 2.54.42.42 4.23 4.55 4.12 3.38 2.12 4.23.42 5.39-1.69 15.33-.85 13.53-1.27 7.72v1.79l.64 1.48 2.22 3.81.42 2.01-.21 1.48.21 1.27.53.63 1.37.74 2.75.95 12.9 10.57 3.06 2.54 5.19 2.75 3.91-.11 2.53.11 2.01.63-4.01 7.3-2.96 12.26-1.17-.32-4.76-1.37-1.16.1-1.8.53-1.37.64-1.27.74-1.9 2.01-.42.95-.85 3.06-8.77 30.66-2.65 9.09-6.13-1.8-11.21-3.27-8.45 29.7-3.6 12.26-.95 3.18 7.93 2.32 12.26 3.6 1.17.31-4.02 13.74-8.04-2.32-12.58-3.7-.31-.11-.32 1.59-.32 1.27-1.48 4.86-1.79 5.29-3.39 12.05-3.38 11.31-3.38 12.05-3.49 12.79-2.86 8.88-.63 2.22-.21.95-1.59 5.18-2.01 6.87-1.37 4.76-2.33 8.25-4.01 13.84-1.91 7.4-.31 1.48-8.25-2.01-8.04-2.11-4.22-1.27-15.86-4.65-4.55-1.27-1.27-.42-1.05-.32-2.44-.74-14.48 32.35-4.86 11.1-4.55 9.83-1.69 3.91-8.35 21.36-1.9 1.26-3.28.22-7.19-2.33-3.38-.95-4.55-.85-3.91.32-3.38 1.48-4.66 2.75-2.85 2.54-2.33 3.38-.84 3.17-5.18 16.91-.64 1.48-3.48 7.83-.43 1.16-3.91 5.92-5.28 2.32-4.02 1.91-5.61 3.38-10.36 6.13-2.22 1.38-2.11 1.37-3.17 2.01-2.64 1.58-3.07 1.91-8.78 5.18-7.5 4.12-.11 7.72-1.79.95-1.8.53-5.5-.43-1.58.43-1.27 1.26-.95 1.59-1.38 3.07-1.16 2-.85 1.27-2.96 1.8-4.54 1.9-3.07.64-7.08-.32-6.87 1.37-3.18.11-.95.11-3.7 1.05-6.66 2.54-5.18 2.33-12.68 5.28-6.88 3.17-6.55 2.54-8.25 4.12-4.23 1.69-13.84 4.23-3.28 1.27-3.07.53-3.17.53-7.08-.11-4.87.32-4.12 1.37-1.69.85-3.59 3.38-1.17 1.59-1.05.63-.22-.1-1.05-.11-3.07-1.59-1.48.43-.32.21-1.58 1.16-1.38 1.38-1.9 1.79-1.58 1.91-11.42 16.59-6.98 9.52-12.9 14.48-1.37 2.32-1.8 4.23-.84 2.65-1.38 7.5-.53 3.81-.74 3.38-1.37 3.17-2.43 4.44-.96 1.27-.84 1.16-1.8 2.22-3.8 6.03-2.65 6.23-2.64 10.05-2.01 10.25-1.69 4.65-1.69 3.07-2.75 3.17-1.59 1.9-3.27 3.28-2.12 1.37-3.8 1.17-3.49 2.11-2.12 1.9-2.01 2.22-2 1.8-1.91 1.16-2.75.85-3.59.32-7.08.21-7.3.84-4.54.74-5.18 1.59-2.54 1.16-2.22 1.69-3.38 1.8-1.59.21h-1.27l-2.64-.63-2.01.1h-.63l-6.35 1.48-6.66 2.65-4.54 2.64-6.14 4.44-7.61 5.92-4.86 4.33-2.54 2.22-6.24 4.44-11.1 6.35-8.24 4.33-4.76 2.11-.74.43-4.97 1.37-3.59.21-4.13.11-1.05.63-.85.95-1.9 1.48-1.48.53-1.38.32-1.48.63-4.75 2.33-.85.21-1.27.11-1.9.95-3.07.42-1.58-.11-.85.32-6.13 2.96-2.33.53-1.69.85-1.79 1.37-2.75 1.27-2.01 1.27-7.93 7.19-4.12 3.38-3.28 3.38-2.33 2.75-.84 1.59-.74 2.11-1.59 3.28-.74 1.27-3.59 3.48-3.7 4.02-2.75 3.38-2.64 2.86-1.48.84-2.33.43-1.8-.22-1.48-.42-.84-.84-1.06-2.44-1.16-2.43-1.06-1.9-1.06-1.27-1.16-1.06-1.37-.84-1.7-.74-1.69-.32-1.06.64-.95.84-2.96 3.81-2.01 3.38-1.16 2.33-1.27 2.22-1.16 1.26-1.37.85h-1.59l-.85-.63-1.37-1.17-.63-1.37.1-1.27 1.48-6.13.21-1.9-.1-1.69-.64-1.27-1.05-1.27-1.59-.85h-1.69l-3.28.64-1.37.63-2.01 1.48-.21.11-1.06.95-.74 1.27-.95 2.43-.64 1.27-1.37 1.37-1.27.42-3.28.74v1.59l-.63 2.01-2.01 3.7-.63 2.11v1.8l1.16 3.59 2.75 1.69 1.27.53h1.58l5.08 1.27 2.75 1.16 2 1.27 1.8.85 2.12.53 3.06-.53 1.8-.64 1.58-.95 1.06-1.79 2.33-5.4 1.37-2.53 1.48-.95 3.81 1.16 2.96 2.32 1.37 2.54.43.64 3.27 2.43 5.08 2.64 2.75 1.8 4.22 5.92.85 4.54v3.49l.85 1.8 1.16.74 2.22.74 3.17-.53 4.65 1.37 2.75.64 2.75.1 4.97 1.06 3.49.21.74.11 2.75-.42.21-.11 1.16-1.69 1.27-3.28 1.58-6.24 1.48-6.13 1.27-4.33.74-2.01.64-1.9 1.69-2.75 1.58-.53 1.8.74 4.44 2.54 4.44 2.11 3.49 1.9.32.11 7.93 2.22 1.16 1.8-.11 1.58-.1 2.12-1.27 7.93 8.25-1.27 4.96-.74 5.18-.85 3.92-.53 2.85-.42.64-.11 2.85-.42 3.07-.53 2.64-.42-.32 2.01-.21 1.27v.42l-.21 3.28-4.12-.32h-2.22l-2.54-.11-.64.32-.52.11-16.81.95-5.82.42-1.37.11-4.76 1.16-8.77 2.01-12.37 3.38-8.99 2.54-4.33 1.27-7.93 2.11-6.77 1.37-5.5.32-13 .64-.95-.11-5.39-.32-2.33-.1-6.66-.85-2.11-.21-2.22-.42-2.22-.53-1.7-.42-3.59-1.06-3.17-.74-3.38-1.16-6.66-3.49-6.24-3.6-.95-.42-3.07-1.58-1.48-.74-4.55-2.75-2.22-2.22-1.16-1.91-3.49-2-6.13-3.92-5.81-1.79-5.08-2.01-3.38.53 1.06-1.38-3.39-1.16-15.01-5.39-.84-.32-4.55-1.37-.95-.11-.74-.21-3.6-1.06.85-.63-1.38-1.48-1.69-2.12-.63.32-4.23 1.38-.74.21-11.73 4.01-5.82 1.91-13.11 3.38-3.38.42-3.28.32-1.8.11-4.12-.11-2.32-.21-3.6-.53-8.77-1.8-3.18-.84-9.4-2.54-1.38-.42-13.42-3.28-4.55-1.06-6.03-1.48-4.23-.95-1.9-.42-3.06-.74-5.71-1.16-2.12-.32 3.28-5.82 2.64-4.86 2.65-6.97 2.85-8.14 3.38-12.69 2.54-6.66 2.43-4.86.53-.95 1.38-2.12 1.69-2.54 4.23-5.92 4.01-4.12 5.08-5.92 3.59-5.07 1.48-3.6-9.2-2.53-6.23-2.01-7.72-2.01-7.72-2.22-5.71-1.27-12.15-1.9-6.14.32-12.58 2.64-7.08.84-5.92-.63-7.61-1.59-7.72-2.32-6.77-1.69-5.81-.74-5.81.84-4.87.95-7.5 3.07-13.96 4.55-5.28 1.26-3.92-.42-4.54-2.43-1.16-1.06-10.37-9.72-4.75-2.86-6.13-1.05-16.39-2.54-10.15-1.48-4.02-.11-15.64.95-22.84 2.75-11.42.43-7.71-.22-3.92.53-4.22.74-4.13 1.59-6.97 3.06-9.94 4.97-12.58 7.3-4.55 1.79-1.27.53-1.69.21-1.06.22-8.77.1-2.33-.32-4.75-.52-8.67-1.8-5.18-1.59-3.07-2.22-3.49-3.7-4.86-5.71-3.07-4.33-5.28-6.66-3.28-3.28-3.81-3.27-4.33-3.7-4.55-4.44-1.37-.85-2.22-1.48-2.75-1.16-5.92-1.27-4.02-.53-4.65-.1-4.54.52-5.92.11-14.49-.32-5.92-1.05-4.97 4.12-6.34 6.13-2.96 2.33-20.4 17.54-12.9 11.21-8.35 7.4-4.65 4.33-13.33 11.21-.31.32-3.49 2.53-3.7 2.54-2.75 1.27-5.5 1.69-16.91 4.23-15.54 3.59-16.07 3.07-4.13 1.16-2.43.53-9.72 2.22.84-6.13-1.27-4.44-3.17-.43-2.11.11-2.33.32-6.13.1-15.65-4.54-2.64.21-3.28 1.8-7.61-3.18-5.81-4.44-10.05-11.31-8.45-4.01-3.39-.21-3.7 1.05-12.68 21.36 1.58 1.79 5.39 14.06-1.58 4.65 7.19 8.78-4.87 15.01-3.27 3.59-2.33 3.07-1.8 2.75-1.48 2.75-3.06 5.7-2.33 4.87-4.65 11.31 3.81 1.48 5.81 2.32 7.3 3.28 6.34 2.75 16.6 9.51 5.6-.21h.74l5.81 4.44 1.8.42 3.49 5.5-3.06 11.52.42 4.76-3.91 11.84-6.88 8.04-4.01 9.72.84 1.69-.74 4.86 1.27 8.88 14.7 3.28 26.21 8.35 17.03 5.39 2.22 1.59 17.02 12.68 3.48 3.07 3.71.42-3.18 11 9.1 12.47 4.54 6.34 3.7 1.48 23.47 10.05 10.57 5.39 13.64 9.51 9.2 13.32-1.8 1.16-5.28 3.49-7.83 5.08-14.16 8.77-16.92 10.99-11.95 7.51-10.46 6.66-15.12 9.51-7.19 4.44-17.34 11.42-8.14 5.18-54.76 34.46-11.84 7.72-8.77 5.81-12.27 7.4-17.55 11.74-9.83 6.23-2.85 1.8z" stroke-linejoin="round"/></defs><use xlink:href="#d" fill="#09757a" stroke="#097d9b" stroke-width="5.76"/><defs><path id="e" d="M2428.04 2031.35l-4.65-4.23-5.39-5.28-.74-.64-.74-.53 3.28.53 2.11.32 2.54.21 1.9.21h1.69l1.48-.1 1.91-.22 1.79-.31 1.27-.21.11-1.06.21-1.06.21-1.06.21-1.16.42-1.06.22-1.26.31-1.27.21-1.06.22-1.06.31-.95.32-.74.42-.84 1.38-2.12.42-.84.42-.96.32-1.26.21-1.06.21-1.27v-1.8l.11-1.05.1-3.6.53-4.02 2.33-14.37-3.6-.95-3.48-1.17-8.88-2.53-4.13 13.63-8.56-2.32-6.77-1.59-3.59-.53.95-3.48 3.38-8.57.11-.84v-.53l.1-.74 4.66-15.86.52-1.58.22-.64.31-.42.53-.32.64-.21.52-.11.53-.1.32-.21.42-.32.32-.42.21-.53.21-.74 2.01-7.72 4.55 1.27 15.86 4.65 4.22 1.27 8.04 2.11 8.25 2.01.31-1.48 1.91-7.4 4.01-13.84 2.33-8.25 1.37-4.76 2.01-6.87 1.59-5.18.21-.95.63-2.22 2.86-8.88 3.49-12.79 3.38-12.05 3.38-11.31 3.39-12.05 1.79-5.29 1.48-4.86.32-1.27.32-1.59.31.11 12.58 3.7 8.04 2.32 4.02-13.74-1.17-.31-12.26-3.6-7.93-2.32.95-3.18 3.6-12.26 8.45-29.7 11.21 3.27 6.13 1.8 2.65-9.09 8.77-30.66.85-3.06.42-.95 1.9-2.01 1.27-.74 1.37-.64 1.8-.53 1.16-.1 4.76 1.37 1.17.32 2.96-12.26 4.01-7.3 1.06.32 1.69.11 1.27-.21 3.07 1.48 2.96 2 1.79 3.7 1.8 2.33 7.29 6.55 4.02 3.81 2.43 2.01 2.54.74 4.23.31 17.76-.31 2.96 1.05 7.08 3.7 3.81.64 7.29.63 7.93.32 7.19 1.9 6.03 3.17 2.11 1.17 4.87 3.06.52.43.53.42 8.99 5.18 3.06 2.64 5.92 10.36 2.01 4.34 1.8 4.22 2.54 6.35 2.54 8.24.95 2.54 1.58 3.06 1.06 4.34 2.96 9.83 3.07 9.09.95 2.01.53 1.59.21 2.22-.21 1.16-.43.63-.63.64-3.17 3.7-2.22 2.22-.85.74-2.64 1.16-3.7 1.27-3.28 1.48-.63.63-1.38 1.38-2.11 2.74-.32 1.27.63.21.85-.95 1.06-.84 2.01-.95 2.96-.53 5.39 1.27 2.11 1.16 4.02 1.48.74.21h1.48l5.81-1.8 1.59-.42h.85l.84.32 1.38 2.53.42 3.49 2.22 7.83 4.23 17.86 1.37 9.41.42 8.35.75 4.12v3.07l-.22 2.96.32 3.28-.42 4.54.1 1.8-.1 2.01-1.17 8.67-.52 3.27-.64 2.22-1.16 4.12-.95 3.28-.74 3.28-.32 2.32-.42 2.12-.53 3.06-1.48 5.08-.95 2.43-2.22 4.23-4.02 7.82-3.7 9.62-2.11 4.34-2.86 6.13-.53 1.26-.95 1.91-1.06 2.53-.74 3.28-.1 1.69-.42 1.8v1.06l.63.63 2.22.95.32 1.17-.32.52h-.74l-.42.64-.43.21-.42-.21h-.21l-1.27 1.27-1.16 2.32-1.27 2.22-1.16 2.65-.95 1.48-.85.95-1.16 1.27-.11.52.21.53-.84.95-.96 1.06-.21.32-.21.63-4.23 3.28-2.32 1.9-.64.32-.53.21-.74.32-.74.74-.74.95-.95 1.59-.31.95v.74l-.64 1.48-.63 1.16-7.4 2.43v3.59l-.32 2.01-.53.64-.74.42-.42.32-.64.21-.95.42-.42.32-.53.21-2.01-1.59-2.43-1.9 2.01-3.7 3.49-7.08.63-1.27.95-2.01 1.38-2.85-4.12-2.33-.74-5.92-.32-3.17-.21-1.69-1.91-.53-1.26-.42-1.17-.32-.84-.63-.64-.85-2.11.21-.32.21-.53-.21-1.8-.42-3.06-.85-.95-.31-3.07-.85h-1.48l-1.16.21-3.7.74-.42-.1-1.27-.11-8.04-2.32-17.02-5.18-1.37-.43-16.81-4.65-9.94-2.75-3.38-.74-6.24-2.01-3.91-.74-2.33-.21-3.06.43-3.07 1.58-.42.21-2.64 1.8-12.27 10.57-9.2 7.61-1.9 1.38-15.96 13-3.39 2.22-3.48 2.01-1.38.95-6.76 3.07-7.19 3.59-.74.32-4.87 2.11-8.77 3.81-2.54.63-1.37.53-2.22.21-2.33-.11-3.17-.52-13.53-3.6-11.63-3.38-4.34-1.27-7.08-1.59-.84-.31-1.17-.21h-.74l-.74.21-.74.21z" stroke-linejoin="round"/></defs><use xlink:href="#e" fill="#004249" stroke="#00465f" stroke-width="5.76"/></svg>