<svg width="278" height="278" fill="none" xmlns="http://www.w3.org/2000/svg"><path d="M93.282 217.296c-15.42-18.135-25.302-44.958-25.954-75.038v-6.516c.652-30.08 10.642-56.903 25.954-75.038 19.981-25.845 49.302-37.465 82.423-37.465 20.415 0 39.636 1.412 55.925 12.271C207.197 13.466 174.945.11 139.543 0H139C62.224 0 0 62.224 0 139c0 74.495 58.64 135.416 132.376 138.891 2.172.109 4.452.109 6.624.109 35.619 0 68.088-13.357 92.63-35.402-16.289 10.86-34.424 11.294-54.839 11.294-33.013.109-63.636-10.642-83.509-36.596z" fill="url(#paint0_linear)"/><path d="M93.282 60.704c12.706-15.095 29.212-24.108 47.238-24.108 40.506 0 73.301 45.827 73.301 102.513 0 56.685-32.795 102.512-73.301 102.512-18.026 0-34.424-9.122-47.238-24.108 19.981 25.846 49.628 42.352 82.64 42.352 20.307 0 39.42-6.19 55.709-17.049C260.082 217.187 278 180.157 278 139c0-41.157-17.918-78.188-46.369-103.599-16.289-10.859-35.293-17.049-55.709-17.049-33.121 0-62.767 16.398-82.64 42.352z" fill="url(#paint1_linear)"/><defs><linearGradient id="paint0_linear" x1="115.822" y1="4.531" x2="115.822" y2="273.955" gradientUnits="userSpaceOnUse"><stop offset=".3" stop-color="#FF1B2D"/><stop offset=".438" stop-color="#FA1A2C"/><stop offset=".594" stop-color="#ED1528"/><stop offset=".758" stop-color="#D60E21"/><stop offset=".927" stop-color="#B70519"/><stop offset="1" stop-color="#A70014"/></linearGradient><linearGradient id="paint1_linear" x1="185.623" y1="20.412" x2="185.623" y2="258.703" gradientUnits="userSpaceOnUse"><stop stop-color="#9C0000"/><stop offset=".7" stop-color="#FF4B4B"/></linearGradient></defs></svg>