<svg width="278" height="278" fill="none" xmlns="http://www.w3.org/2000/svg"><path d="M139 271.484c74.369 0 134.656-60.287 134.656-134.656S213.369 2.172 139 2.172 4.344 62.46 4.344 136.828c0 74.369 60.287 134.656 134.656 134.656z" fill="url(#paint0_linear)"/><path d="M139 261.385c68.791 0 124.557-55.766 124.557-124.557 0-68.79-55.766-124.557-124.557-124.557-68.79 0-124.557 55.766-124.557 124.557S70.21 261.385 139 261.385z" fill="url(#paint1_radial)"/><path d="M139.212 42.569c-.842 0-1.578-.631-1.578-1.473V19.11c0-.841.736-1.472 1.578-1.472.841 0 1.578.63 1.578 1.472v21.987c-.106.842-.737 1.473-1.578 1.473z" fill="#F3F3F3"/><path d="M139.212 42.674c-.947 0-1.684-.736-1.684-1.578V19.11c0-.842.737-1.578 1.684-1.578.946 0 1.683.736 1.683 1.578v21.986c0 .842-.842 1.578-1.683 1.578zm0-24.933c-.737 0-1.473.632-1.473 1.369v21.986c0 .737.631 1.369 1.473 1.369.736 0 1.472-.632 1.472-1.369V19.11c-.104-.737-.736-1.369-1.472-1.369z" fill="#fff"/><path d="M149.731 30.786c-.841-.105-1.472-.736-1.472-1.578l.736-9.784c.104-.84.842-1.472 1.683-1.367.842.105 1.473.737 1.473 1.579l-.736 9.783c-.106.842-.842 1.473-1.684 1.369v-.002z" fill="#F3F3F3"/><path d="M149.731 30.892c-.947-.105-1.578-.842-1.578-1.683l.737-9.785c.105-.84.841-1.576 1.788-1.472.946.105 1.578.842 1.578 1.683l-.736 9.784c-.106.947-.842 1.578-1.789 1.473zm.947-12.73c-.736 0-1.473.527-1.473 1.263l-.737 9.785c0 .735.527 1.367 1.369 1.471.736 0 1.472-.526 1.472-1.262l.736-9.784c0-.736-.631-1.367-1.368-1.473h.001z" fill="#fff"/><path d="M157.622 44.463c-.843-.21-1.368-.947-1.263-1.789l4.313-21.566c.211-.841.947-1.368 1.789-1.157.842.21 1.367.947 1.262 1.788l-4.314 21.567c-.105.735-.946 1.262-1.788 1.157h.001z" fill="#F3F3F3"/><path d="M157.622 44.568c-.948-.21-1.474-1.052-1.368-1.894l4.313-21.566c.211-.841 1.052-1.473 1.998-1.262.947.21 1.474 1.052 1.368 1.893l-4.313 21.567c-.211.84-1.052 1.367-1.998 1.262zm4.943-24.512c-.736-.105-1.473.315-1.683 1.053l-4.312 21.566c-.106.736.314 1.472 1.156 1.684.736.104 1.473-.318 1.683-1.054l4.314-21.566c.105-.841-.421-1.472-1.158-1.683z" fill="#fff"/><path d="M170.245 34.995a1.56 1.56 0 01-.971-.708 1.56 1.56 0 01-.186-1.186l2.63-9.468c.21-.841 1.051-1.262 1.893-1.052.842.21 1.368 1.052 1.158 1.894l-2.631 9.468c-.21.84-1.052 1.262-1.893 1.052z" fill="#F3F3F3"/><path d="M170.245 35.1c-.841-.21-1.472-1.158-1.156-1.998l2.63-9.47c.209-.84 1.156-1.367 1.998-1.156.842.21 1.473 1.157 1.158 1.998l-2.63 9.47c-.211.84-1.053 1.366-1.999 1.156h-.001zm3.472-12.308c-.736-.21-1.578.21-1.789.947l-2.629 9.467c-.21.736.21 1.473 1.052 1.683.736.21 1.577-.21 1.788-.946l2.63-9.47c.106-.734-.315-1.47-1.052-1.682z" fill="#fff"/><path d="M175.4 49.828c-.842-.316-1.157-1.263-.842-1.999l8.416-20.304c.315-.736 1.263-1.157 1.998-.736.843.315 1.159 1.263.843 1.998l-8.416 20.304c-.315.737-1.263 1.158-1.998.737h-.001z" fill="#F3F3F3"/><path d="M175.4 49.934a1.633 1.633 0 01-.947-2.105l8.416-20.304c.316-.841 1.263-1.157 2.21-.841a1.633 1.633 0 01.947 2.104l-8.416 20.304c-.421.842-1.368 1.262-2.21.842zm9.574-23.04c-.737-.315-1.578 0-1.894.737l-8.416 20.303c-.315.737.105 1.473.841 1.789.737.315 1.578 0 1.894-.736l8.416-20.304c.211-.632-.105-1.474-.841-1.789z" fill="#fff"/><path d="M189.603 43.096c-.738-.422-1.054-1.263-.738-2l4.419-8.73c.42-.738 1.262-1.054 2.104-.633.737.422 1.052 1.263.737 1.998l-4.42 8.733c-.42.736-1.262 1.053-2.104.632h.002z" fill="#F3F3F3"/><path d="M189.603 43.201c-.842-.421-1.157-1.368-.737-2.21l4.419-8.73c.42-.844 1.368-1.158 2.208-.738.842.421 1.158 1.368.737 2.21l-4.418 8.73c-.421.842-1.368 1.158-2.21.737l.001.001zm5.786-11.468c-.737-.314-1.579-.105-1.894.631l-4.418 8.733c-.315.63 0 1.472.631 1.893.736.315 1.577.106 1.893-.63l4.419-8.733c.315-.63 0-1.472-.631-1.894z" fill="#fff"/><path d="M191.706 58.665c-.736-.526-.947-1.473-.421-2.104l12.204-18.2c.42-.736 1.368-.842 2.103-.42.738.525.947 1.472.422 2.103l-12.204 18.2c-.42.737-1.367.947-2.104.42z" fill="#F3F3F3"/><path d="M191.706 58.77c-.736-.526-.947-1.578-.525-2.314l12.202-18.2c.526-.737 1.473-.947 2.314-.42.737.525.947 1.577.527 2.314l-12.204 18.2c-.525.736-1.578.946-2.314.42zm13.886-20.724c-.63-.421-1.578-.316-1.998.315l-12.204 18.2c-.42.63-.21 1.473.422 1.893.63.421 1.577.316 1.998-.315l12.203-18.095c.421-.63.211-1.578-.421-1.998z" fill="#fff"/><path d="M207.065 54.773c-.63-.527-.841-1.474-.315-2.105l6.102-7.68c.525-.63 1.472-.736 2.103-.21.632.526.842 1.473.315 2.104l-6.101 7.68c-.525.631-1.472.736-2.103.21h-.001z" fill="#F3F3F3"/><path d="M206.961 54.878c-.737-.527-.842-1.579-.315-2.315l6.1-7.679c.526-.737 1.578-.843 2.315-.21.736.525.841 1.577.314 2.313l-6.1 7.68c-.526.737-1.578.842-2.314.211zm7.889-9.995c-.63-.526-1.473-.42-1.998.21l-6.102 7.68c-.42.631-.315 1.473.315 1.999.632.526 1.473.42 1.999-.21l6.102-7.68c.421-.63.315-1.578-.315-1.998l-.001-.001z" fill="#fff"/><path d="M206.013 70.552c-.631-.63-.631-1.578 0-2.104l15.569-15.464c.632-.63 1.578-.527 2.105 0 .525.526.631 1.578 0 2.103l-15.464 15.465c-.632.631-1.579.631-2.21 0z" fill="#F3F3F3"/><path d="M205.908 70.658a1.652 1.652 0 010-2.314l15.569-15.465a1.652 1.652 0 012.315 0 1.649 1.649 0 010 2.314l-15.57 15.464a1.65 1.65 0 01-2.314 0zm17.779-17.674c-.526-.527-1.473-.527-1.998 0l-15.57 15.464c-.527.527-.527 1.474 0 2 .525.526 1.472.526 1.998 0l15.57-15.465c.526-.526.526-1.368 0-1.999z" fill="#fff"/><path d="M221.793 69.71c-.526-.63-.526-1.577.105-2.104l7.469-6.311c.631-.526 1.578-.422 2.105.21.526.631.526 1.578-.105 2.104l-7.469 6.312c-.632.526-1.579.42-2.105-.21z" fill="#F3F3F3"/><path d="M221.688 69.816c-.63-.736-.525-1.788.106-2.314l7.469-6.312c.631-.631 1.683-.526 2.314.21.632.736.527 1.789-.104 2.314l-7.47 6.313c-.63.63-1.684.525-2.313-.21h-.002zm9.679-8.31c-.526-.632-1.368-.632-1.998-.211l-7.47 6.312c-.525.526-.631 1.368-.105 1.999.525.63 1.368.63 1.998.21l7.47-6.312c.631-.526.631-1.368.105-1.998z" fill="#fff"/><path d="M217.585 84.86c-.526-.737-.315-1.684.421-2.105l18.305-12.203c.736-.421 1.683-.21 2.103.422.527.736.316 1.683-.42 2.103L219.689 85.28c-.632.421-1.579.21-2.104-.42z" fill="#F3F3F3"/><path d="M217.48 84.86c-.525-.736-.315-1.789.422-2.314l18.304-12.204c.736-.526 1.789-.315 2.314.526.527.737.315 1.789-.42 2.314l-18.304 12.204c-.738.527-1.789.316-2.316-.525v-.001zm20.83-13.78c-.421-.633-1.262-.843-1.893-.422L218.111 82.86c-.63.42-.841 1.263-.315 1.999.421.63 1.262.841 1.894.421l18.305-12.204c.631-.525.736-1.368.315-1.998z" fill="#fff"/><path d="M233.261 87.07c-.422-.738-.211-1.684.525-2.105l8.522-4.839c.736-.421 1.683-.105 2.103.63.421.737.211 1.683-.526 2.104l-8.521 4.84c-.736.42-1.683.106-2.104-.632l.001.002z" fill="#F3F3F3"/><path d="M233.155 87.174c-.421-.842-.21-1.789.526-2.209l8.521-4.839c.736-.421 1.789-.105 2.209.63.421.843.211 1.79-.526 2.21l-8.521 4.84c-.736.42-1.789.104-2.209-.632zm11.151-6.312c-.421-.736-1.262-.947-1.893-.526l-8.522 4.84c-.63.42-.841 1.261-.526 1.892.421.737 1.263.947 1.894.527l8.521-4.84c.631-.315.842-1.156.526-1.893z" fill="#fff"/><path d="M226.212 101.061c-.315-.842 0-1.684.841-1.998l20.304-8.416c.736-.316 1.683.104 1.998.84.316.842 0 1.683-.842 1.998l-20.302 8.416c-.738.316-1.683 0-1.999-.84z" fill="#F3F3F3"/><path d="M226.107 101.165c-.315-.841 0-1.788.842-2.209l20.303-8.416a1.636 1.636 0 012.104.947c.316.842 0 1.789-.842 2.209l-20.302 8.416a1.636 1.636 0 01-2.105-.946v-.001zm23.039-9.573c-.316-.736-1.157-1.052-1.788-.841l-20.304 8.416c-.736.315-1.052 1.157-.736 1.894.315.736 1.156 1.052 1.788.841l20.303-8.416c.737-.315 1.053-1.157.737-1.894z" fill="#fff"/><path d="M241.045 106.321c-.315-.843.105-1.683.947-1.999l9.257-3.052c.737-.315 1.684.211 1.894.947.315.842-.105 1.683-.947 1.999l-9.257 3.052c-.736.315-1.578-.105-1.894-.948v.001z" fill="#F3F3F3"/><path d="M240.939 106.425c-.315-.841.106-1.788 1.054-2.103l9.256-3.052c.842-.315 1.789.211 2.105 1.054.315.84-.106 1.787-1.054 2.103l-9.256 3.052c-.842.209-1.789-.212-2.105-1.054zm12.204-3.996c-.211-.737-1.052-1.159-1.789-.948l-9.257 3.052c-.736.209-1.052 1.051-.842 1.788.211.736 1.053 1.157 1.789.946l9.257-3.05c.737-.315 1.053-1.053.842-1.789v.001z" fill="#fff"/><path d="M231.578 118.84c-.211-.842.315-1.683 1.156-1.789l21.567-4.208c.841-.21 1.578.421 1.787 1.262.211.842-.314 1.683-1.156 1.789l-21.567 4.208c-.841.105-1.683-.421-1.788-1.262h.001z" fill="#F3F3F3"/><path d="M231.367 118.84c-.211-.947.42-1.789 1.262-2l21.567-4.208c.841-.21 1.683.422 1.892 1.369.211.946-.42 1.787-1.261 1.998l-21.567 4.208c-.841.21-1.683-.42-1.893-1.368v.001zm24.512-4.735c-.106-.736-.842-1.262-1.578-1.157l-21.567 4.208c-.736.106-1.262.946-1.052 1.684.105.736.842 1.261 1.579 1.156l21.566-4.208c.736-.211 1.261-.947 1.052-1.683z" fill="#fff"/><path d="M245.043 126.94c-.106-.842.42-1.578 1.262-1.683l9.677-1.158c.842-.104 1.579.527 1.684 1.368.105.842-.421 1.578-1.262 1.683l-9.679 1.157c-.736.105-1.578-.526-1.683-1.367h.001z" fill="#F3F3F3"/><path d="M244.938 126.94c-.105-.947.526-1.789 1.367-1.894l9.678-1.157c.842-.105 1.684.526 1.789 1.473.105.947-.526 1.788-1.367 1.894l-9.679 1.156c-.841.106-1.683-.525-1.788-1.472zm12.729-1.473c-.105-.736-.841-1.368-1.578-1.263l-9.678 1.158c-.736.105-1.263.841-1.158 1.578.106.736.842 1.368 1.578 1.263l9.679-1.158c.736-.105 1.262-.842 1.158-1.578h-.001z" fill="#fff"/><path d="M233.261 137.144c0-.841.63-1.578 1.472-1.578h21.987c.842 0 1.473.737 1.473 1.578 0 .842-.631 1.578-1.473 1.578h-21.987c-.841 0-1.472-.736-1.472-1.578z" fill="#F3F3F3"/><path d="M233.155 137.144c0-.947.737-1.683 1.578-1.683h21.987c.842 0 1.578.736 1.578 1.683 0 .947-.736 1.683-1.578 1.683h-21.987c-.841 0-1.578-.736-1.578-1.683zm24.932.106c0-.737-.631-1.473-1.368-1.473h-21.985c-.736 0-1.368.63-1.368 1.473 0 .736.632 1.472 1.368 1.472h21.987c.736-.105 1.367-.736 1.367-1.472h-.001z" fill="#fff"/><path d="M244.938 147.769c.104-.841.736-1.472 1.577-1.472l9.785.736c.84.105 1.471.842 1.366 1.683-.104.842-.736 1.473-1.578 1.473l-9.783-.737c-.736-.105-1.368-.841-1.368-1.683h.001z" fill="#F3F3F3"/><path d="M244.833 147.769c.105-.947.842-1.578 1.683-1.578l9.785.737c.84.105 1.576.841 1.471 1.788-.104.947-.842 1.578-1.683 1.578l-9.783-.736c-.842-.106-1.473-.947-1.473-1.789zm12.835.947c.104-.736-.527-1.472-1.263-1.472l-9.785-.737c-.735 0-1.367.526-1.472 1.369-.104.735.527 1.471 1.263 1.471l9.784.736c.735 0 1.367-.63 1.473-1.367z" fill="#fff"/><path d="M231.367 155.449c.211-.842.947-1.368 1.789-1.262l21.565 4.313c.842.21 1.368.946 1.158 1.788-.211.841-.947 1.368-1.789 1.263l-21.567-4.314c-.736-.105-1.261-.947-1.156-1.788z" fill="#F3F3F3"/><path d="M231.261 155.449c.211-.947 1.053-1.473 1.894-1.368l21.566 4.314c.842.21 1.472 1.051 1.262 1.998-.21.947-1.051 1.474-1.893 1.368l-21.567-4.313c-.841-.211-1.367-1.052-1.262-1.998v-.001zm24.512 4.944c.106-.736-.315-1.472-1.052-1.683l-21.567-4.313c-.735-.105-1.472.316-1.683 1.157-.104.736.316 1.473 1.053 1.683l21.566 4.314c.842.105 1.472-.422 1.683-1.158z" fill="#fff"/><path d="M240.836 168.073a1.566 1.566 0 011.892-1.157l9.469 2.629c.841.211 1.262 1.054 1.052 1.894a1.567 1.567 0 01-1.894 1.158l-9.468-2.63c-.842-.211-1.262-1.053-1.052-1.894h.001z" fill="#F3F3F3"/><path d="M240.728 168.073c.211-.842 1.158-1.473 2-1.157l9.468 2.629c.842.211 1.368 1.158 1.158 2-.211.841-1.158 1.472-2 1.157l-9.468-2.63c-.842-.211-1.368-1.052-1.157-1.998l-.001-.001zm12.31 3.472c.21-.737-.211-1.578-.947-1.789l-9.469-2.63c-.736-.211-1.472.211-1.683 1.052-.209.736.211 1.578.947 1.789l9.468 2.63c.737.105 1.473-.315 1.684-1.052z" fill="#fff"/><path d="M226.001 173.122c.315-.841 1.263-1.157 1.998-.841l20.305 8.416c.736.315 1.157 1.263.842 1.998-.316.843-1.263 1.158-2 .843l-20.303-8.416c-.842-.315-1.158-1.263-.842-1.998v-.002z" fill="#F3F3F3"/><path d="M225.896 173.017c.154-.404.462-.731.857-.908a1.631 1.631 0 011.248-.039l20.304 8.416c.841.316 1.156 1.263.841 2.21a1.633 1.633 0 01-2.104.947l-20.304-8.416c-.842-.421-1.157-1.368-.842-2.21zm23.039 9.574c.315-.737 0-1.578-.736-1.894l-20.304-8.416c-.736-.315-1.472.105-1.788.841-.315.737 0 1.578.736 1.894l20.304 8.416c.736.211 1.578-.105 1.788-.841z" fill="#fff"/><path d="M232.84 187.324c.421-.736 1.262-1.052 1.998-.736l8.732 4.419c.737.315 1.053 1.262.632 2.103-.421.737-1.263 1.054-1.999.737l-8.731-4.418c-.737-.421-1.053-1.368-.632-2.105z" fill="#F3F3F3"/><path d="M232.734 187.219c.422-.842 1.368-1.157 2.21-.736l8.731 4.418c.842.422 1.158 1.369.736 2.209-.42.842-1.368 1.158-2.209.736l-8.73-4.417c-.843-.315-1.158-1.368-.738-2.21zm11.362 5.786c.315-.736.105-1.578-.632-1.893l-8.731-4.419c-.632-.315-1.472 0-1.893.631-.315.737-.106 1.578.63 1.894l8.731 4.419c.738.315 1.579.105 1.895-.632z" fill="#fff"/><path d="M217.375 189.323c.526-.736 1.368-.946 2.104-.421l18.305 12.204c.736.42.842 1.368.421 2.103-.526.738-1.368.947-2.104.422l-18.305-12.204c-.736-.526-.947-1.473-.421-2.104z" fill="#F3F3F3"/><path d="M217.269 189.218c.527-.736 1.579-.947 2.316-.525l18.304 12.202c.736.526.947 1.473.42 2.314-.525.738-1.577.947-2.313.527l-18.305-12.204c-.842-.525-.947-1.577-.422-2.314zm20.726 13.886c.42-.63.314-1.578-.315-1.998l-18.306-12.204c-.631-.42-1.473-.209-1.894.422-.42.631-.315 1.577.315 1.998l18.306 12.204c.631.421 1.472.21 1.894-.421v-.001z" fill="#fff"/><path d="M221.268 204.578c.525-.632 1.472-.842 2.103-.315l7.68 5.995c.631.526.736 1.473.211 2.105-.526.63-1.473.842-2.105.315l-7.68-5.997c-.63-.525-.736-1.472-.209-2.103z" fill="#F3F3F3"/><path d="M221.163 204.472c.525-.736 1.578-.841 2.314-.315l7.68 5.996c.736.525.841 1.578.315 2.314-.526.737-1.578.842-2.313.316l-7.681-5.997c-.737-.525-.841-1.577-.315-2.314zm10.099 7.891c.526-.632.42-1.474-.211-1.999l-7.679-5.997c-.631-.42-1.473-.315-1.999.315-.526.632-.421 1.474.21 1.999l7.68 5.997c.631.421 1.472.315 1.998-.315h.001z" fill="#fff"/><path d="M205.591 203.525c.632-.63 1.579-.63 2.105 0l15.569 15.464c.632.632.527 1.579 0 2.105-.63.631-1.578.631-2.103 0l-15.571-15.464c-.525-.527-.525-1.579 0-2.105z" fill="#F3F3F3"/><path d="M205.592 203.42a1.651 1.651 0 012.315 0l15.57 15.464a1.653 1.653 0 010 2.315 1.65 1.65 0 01-2.315 0l-15.57-15.464c-.736-.632-.736-1.683 0-2.315zm17.674 17.568c.527-.525.527-1.472 0-1.998l-15.569-15.465c-.526-.525-1.473-.525-1.998 0-.527.526-.527 1.473 0 1.999l15.569 15.464c.525.632 1.368.632 1.998 0z" fill="#fff"/><path d="M206.539 219.2c.632-.526 1.578-.526 2.105.105l6.418 7.364c.524.632.42 1.579-.212 2.104-.63.526-1.578.526-2.104-.105l-6.417-7.364c-.526-.525-.421-1.472.21-2.104z" fill="#F3F3F3"/><path d="M206.435 219.2c.736-.63 1.683-.526 2.313.105l6.417 7.364c.631.632.526 1.683-.21 2.315-.737.631-1.683.526-2.314-.105l-6.418-7.364c-.526-.736-.526-1.788.21-2.315h.002zm8.416 9.574c.629-.526.629-1.369.209-1.999l-6.418-7.364c-.525-.526-1.367-.631-1.998-.106-.631.527-.631 1.368-.211 1.998l6.418 7.365c.526.631 1.369.631 1.998.106h.002z" fill="#fff"/><path d="M191.391 215.203c.736-.526 1.683-.315 2.104.421l12.202 18.199c.421.736.21 1.683-.42 2.105-.737.525-1.684.315-2.105-.422l-12.203-18.2c-.421-.735-.21-1.683.421-2.103h.001z" fill="#F3F3F3"/><path d="M191.39 215.097c.736-.525 1.789-.315 2.314.422l12.204 18.2c.526.735.315 1.787-.526 2.313-.737.527-1.788.316-2.315-.42l-12.202-18.201c-.526-.84-.315-1.787.525-2.313v-.001zm13.887 20.725c.631-.421.842-1.263.42-1.894l-12.202-18.2c-.422-.63-1.263-.736-1.998-.315-.632.42-.843 1.262-.422 1.894l12.203 18.199c.421.526 1.368.737 1.998.315l.001.001z" fill="#fff"/><path d="M189.181 230.772c.737-.421 1.684-.21 2.104.526l4.84 8.522c.42.736.104 1.683-.632 2.103-.736.421-1.683.211-2.104-.525l-4.839-8.522c-.316-.736-.105-1.683.63-2.103l.001-.001z" fill="#F3F3F3"/><path d="M189.182 230.667c.841-.421 1.788-.21 2.208.526l4.839 8.521c.422.737.211 1.789-.63 2.209-.842.422-1.789.211-2.209-.525l-4.839-8.522c-.422-.736-.211-1.683.629-2.209h.002zm6.311 11.152c.632-.421.947-1.263.527-1.894l-4.839-8.521c-.422-.631-1.263-.842-1.894-.527-.632.421-.947 1.263-.527 1.894l4.84 8.521c.315.631 1.262.947 1.893.526v.001z" fill="#fff"/><path d="M175.189 223.829c.842-.315 1.683 0 1.999.737l8.522 20.303c.315.737-.106 1.684-.842 1.998-.736.316-1.683 0-1.998-.736l-8.521-20.302c-.317-.738.104-1.684.84-2z" fill="#F3F3F3"/><path d="M175.189 223.724c.842-.315 1.789 0 2.21.841l8.522 20.304a1.636 1.636 0 01-.947 2.104c-.842.316-1.789 0-2.209-.842l-8.521-20.303c-.316-.737.105-1.683.945-2.104zm9.574 23.039c.736-.316 1.052-1.157.736-1.788l-8.521-20.304c-.315-.736-1.157-1.052-1.893-.736-.736.314-1.053 1.156-.736 1.788l8.52 20.304c.422.736 1.158 1.051 1.894.736z" fill="#fff"/><path d="M170.035 238.767c.842-.315 1.683.106 1.999.947l3.051 9.258c.315.736-.21 1.683-.947 1.894-.841.315-1.683-.106-1.998-.947l-3.051-9.258c-.315-.736.105-1.578.947-1.894h-.001z" fill="#F3F3F3"/><path d="M169.93 238.662a1.638 1.638 0 012.104.947l3.051 9.258c.315.841-.211 1.788-1.053 2.104a1.631 1.631 0 01-2.104-.947l-3.05-9.257c-.211-.842.211-1.789 1.052-2.105zm4.103 12.097c.736-.209 1.156-1.051.947-1.787l-3.052-9.258c-.209-.736-1.051-1.052-1.787-.841-.737.21-1.158 1.052-.947 1.788l3.05 9.258a1.339 1.339 0 00.707.82 1.339 1.339 0 001.082.022v-.002z" fill="#fff"/><path d="M157.622 229.195c.84-.211 1.683.315 1.787 1.156l4.419 21.567c.211.841-.421 1.578-1.263 1.788-.84.21-1.683-.315-1.787-1.157l-4.42-21.567c-.104-.736.421-1.578 1.263-1.788l.001.001z" fill="#F3F3F3"/><path d="M157.621 229.088c.946-.209 1.788.422 1.998 1.263l4.419 21.567c.211.841-.421 1.788-1.263 1.893-.947.211-1.788-.42-1.998-1.262l-4.42-21.567c-.209-.841.317-1.683 1.263-1.892l.001-.002zm4.943 24.512c.738-.104 1.263-.841 1.158-1.683l-4.419-21.566c-.104-.736-.945-1.261-1.683-1.052-.736.105-1.262.842-1.156 1.683l4.418 21.567c.21.736.946 1.157 1.684 1.052l-.002-.001z" fill="#fff"/><path d="M149.627 242.87c.841-.105 1.578.422 1.788 1.263l1.262 9.678c.105.842-.525 1.578-1.368 1.683-.841.106-1.577-.42-1.788-1.262l-1.261-9.679c-.106-.841.525-1.577 1.367-1.683z" fill="#F3F3F3"/><path d="M149.627 242.765c.947-.105 1.788.526 1.893 1.368l1.262 9.678c.106.841-.525 1.683-1.472 1.788-.947.106-1.789-.525-1.894-1.368l-1.262-9.678c-.105-.841.526-1.683 1.473-1.788zm1.577 12.624c.737-.105 1.369-.842 1.263-1.578l-1.263-9.678c-.105-.736-.841-1.263-1.577-1.158-.737.106-1.369.842-1.263 1.578l1.263 9.679c.105.736.841 1.262 1.577 1.157z" fill="#fff"/><path d="M138.791 231.088c.841 0 1.578.632 1.578 1.473v21.986c0 .842-.737 1.474-1.578 1.474-.842 0-1.578-.632-1.578-1.474v-21.986c.105-.841.736-1.473 1.578-1.473z" fill="#F3F3F3"/><path d="M138.791 230.982c.947 0 1.683.737 1.683 1.578v21.987c0 .842-.736 1.578-1.683 1.578-.947 0-1.684-.736-1.684-1.578v-21.986c0-.841.842-1.579 1.684-1.579zm0 24.933c.736 0 1.472-.631 1.472-1.368v-21.986c0-.737-.631-1.368-1.472-1.368-.737 0-1.473.631-1.473 1.368v21.986c.104.737.736 1.368 1.473 1.368z" fill="#fff"/><path d="M128.27 242.87c.842.105 1.473.736 1.473 1.578l-.737 9.784c-.104.842-.841 1.473-1.683 1.368-.841-.106-1.472-.737-1.472-1.579l.736-9.784c.105-.84.841-1.472 1.683-1.367z" fill="#F3F3F3"/><path d="M128.27 242.765c.947.105 1.578.841 1.578 1.683l-.736 9.784c-.106.842-.842 1.578-1.789 1.473-.946-.106-1.578-.842-1.578-1.683l.736-9.785c.106-.946.842-1.577 1.789-1.472zm-.947 12.729c.736 0 1.474-.526 1.474-1.262l.736-9.784c0-.736-.527-1.367-1.368-1.473-.737 0-1.473.526-1.473 1.263l-.736 9.784c0 .736.631 1.368 1.368 1.472h-.001z" fill="#fff"/><path d="M120.381 229.195c.842.209 1.367.946 1.262 1.787l-4.314 21.567c-.21.842-.947 1.368-1.788 1.157-.842-.21-1.367-.946-1.262-1.789l4.313-21.566c.106-.736.947-1.261 1.789-1.156z" fill="#F3F3F3"/><path d="M120.381 229.088c.945.211 1.472 1.054 1.367 1.894l-4.314 21.567c-.21.842-1.052 1.473-1.998 1.262-.947-.211-1.473-1.052-1.368-1.894l4.313-21.566c.211-.841 1.053-1.368 1.998-1.261l.002-.002zm-4.945 24.512c.737.106 1.473-.315 1.683-1.051l4.313-21.567c.105-.736-.315-1.472-1.157-1.683-.736-.104-1.472.316-1.683 1.053l-4.313 21.565c-.106.842.42 1.474 1.157 1.683z" fill="#fff"/><path d="M107.755 238.662c.843.211 1.369 1.052 1.158 1.894l-2.63 9.468c-.21.842-1.051 1.262-1.893 1.053a1.594 1.594 0 01-.556-.257 1.567 1.567 0 01-.601-1.637l2.63-9.469c.21-.841 1.052-1.261 1.894-1.052h-.002z" fill="#F3F3F3"/><path d="M107.756 238.558c.842.209 1.473 1.156 1.157 1.998l-2.63 9.468c-.21.842-1.156 1.369-1.998 1.157-.842-.21-1.473-1.157-1.158-1.998l2.63-9.469c.211-.841 1.053-1.368 1.999-1.157v.001zm-3.471 12.308c.736.211 1.578-.211 1.788-.947l2.63-9.468c.21-.737-.21-1.473-1.052-1.684-.736-.21-1.578.211-1.788.947l-2.63 9.469c-.106.736.315 1.472 1.052 1.683z" fill="#fff"/><path d="M102.601 223.829c.842.315 1.157 1.262.842 1.998l-8.416 20.304c-.315.737-1.263 1.158-1.998.737-.737-.421-1.159-1.263-.843-1.999l8.416-20.304c.315-.736 1.263-1.157 1.998-.736h.001z" fill="#F3F3F3"/><path d="M102.602 223.724a1.633 1.633 0 01.947 2.104l-8.416 20.303c-.316.842-1.263 1.158-2.21.842a1.633 1.633 0 01-.947-2.104l8.416-20.304c.421-.841 1.368-1.261 2.21-.841zm-9.574 23.039c.737.315 1.578 0 1.894-.736l8.416-20.304c.315-.736-.105-1.474-.841-1.789-.737-.314-1.578 0-1.894.737l-8.416 20.304c-.21.63.105 1.472.841 1.788z" fill="#fff"/><path d="M88.4 230.562c.736.42 1.05 1.262.736 1.998l-4.419 8.732c-.421.736-1.263 1.053-2.104.631-.737-.42-1.052-1.262-.737-1.998l4.42-8.731c.42-.737 1.262-1.053 2.104-.632z" fill="#F3F3F3"/><path d="M88.4 230.457c.842.42 1.157 1.368.736 2.208l-4.418 8.733c-.422.841-1.368 1.157-2.209.736-.842-.42-1.158-1.369-.736-2.209l4.417-8.731c.422-.843 1.369-1.158 2.21-.737zm-5.786 11.467c.737.315 1.578.104 1.893-.632l4.419-8.731c.315-.632 0-1.473-.631-1.894-.736-.315-1.578-.105-1.894.631l-4.419 8.731c-.315.632 0 1.474.632 1.894v.001z" fill="#fff"/><path d="M86.295 214.993c.737.525.947 1.472.422 2.103l-12.204 18.201c-.42.735-1.368.84-2.104.42-.736-.527-.947-1.473-.42-2.105l12.203-18.2c.42-.735 1.367-.946 2.103-.42v.001z" fill="#F3F3F3"/><path d="M86.295 214.887c.737.526.947 1.578.526 2.315l-12.203 18.2c-.525.735-1.472.946-2.314.42-.736-.526-.947-1.578-.526-2.315l12.203-18.199c.526-.736 1.578-.947 2.314-.421zM72.41 235.612c.63.42 1.578.315 1.999-.315l12.203-18.201c.42-.631.211-1.472-.421-1.893-.63-.421-1.578-.315-1.998.314l-12.204 18.095c-.42.632-.21 1.578.421 1.999v.001z" fill="#fff"/><path d="M70.936 218.885c.631.525.841 1.472.315 2.103l-6.101 7.68c-.526.631-1.473.736-2.104.211-.63-.526-.841-1.473-.315-2.105l6.101-7.68c.526-.629 1.473-.736 2.104-.209z" fill="#F3F3F3"/><path d="M71.041 218.78c.736.525.842 1.578.315 2.314l-6.1 7.68c-.526.736-1.579.841-2.315.21-.736-.526-.842-1.578-.315-2.315l6.1-7.679c.526-.737 1.579-.841 2.315-.21zm-7.89 9.994c.63.525 1.473.421 1.999-.211l6.102-7.68c.421-.63.315-1.472-.315-1.998-.632-.527-1.474-.421-2 .211l-6.101 7.678c-.42.632-.315 1.578.315 2z" fill="#fff"/><path d="M71.988 203.105c.631.63.631 1.578 0 2.104L56.42 220.672c-.632.632-1.578.527-2.104 0-.526-.525-.631-1.578 0-2.103l15.463-15.464c.632-.632 1.58-.632 2.21 0z" fill="#F3F3F3"/><path d="M72.094 203a1.65 1.65 0 010 2.313l-15.57 15.466a1.651 1.651 0 01-2.314 0 1.652 1.652 0 010-2.315L69.78 203a1.649 1.649 0 012.314 0zm-17.78 17.672c.526.526 1.473.526 1.999 0l15.57-15.464c.526-.526.526-1.473 0-1.999s-1.473-.526-1.998 0l-15.57 15.464c-.526.526-.526 1.368 0 1.998v.001z" fill="#fff"/><path d="M56.208 203.947c.526.63.526 1.578-.105 2.103l-7.47 6.313c-.63.525-1.577.42-2.104-.211-.525-.632-.525-1.578.106-2.104l7.469-6.312c.632-.527 1.578-.421 2.104.211z" fill="#F3F3F3"/><path d="M56.314 203.84c.631.738.526 1.789-.105 2.316l-7.47 6.311c-.63.632-1.682.527-2.313-.209-.632-.738-.527-1.789.104-2.316l7.47-6.311c.63-.631 1.683-.526 2.313.211l.001-.002zm-9.679 8.312c.527.631 1.369.631 1.998.211l7.47-6.313c.526-.525.631-1.368.106-1.998-.527-.632-1.368-.632-1.998-.21l-7.47 6.311c-.631.526-.631 1.368-.106 1.998v.001z" fill="#fff"/><path d="M60.417 188.797c.526.737.315 1.683-.421 2.104L41.69 203.105c-.736.42-1.683.21-2.104-.421-.526-.736-.316-1.683.42-2.105l18.306-12.202c.633-.421 1.578-.211 2.105.42h-.001z" fill="#F3F3F3"/><path d="M60.522 188.797c.525.737.315 1.788-.422 2.315l-18.304 12.203c-.736.526-1.789.315-2.314-.526-.527-.736-.315-1.788.42-2.314l18.306-12.204c.736-.525 1.787-.315 2.313.526zm-20.83 13.782c.42.63 1.262.841 1.893.421l18.305-12.204c.632-.42.841-1.262.316-1.998-.42-.632-1.262-.842-1.894-.421L40.007 200.58c-.63.526-.736 1.368-.314 1.999z" fill="#fff"/><path d="M44.741 186.588c.422.736.21 1.683-.525 2.105l-8.522 4.839c-.736.42-1.683.105-2.103-.631-.422-.736-.21-1.683.525-2.105l8.522-4.839c.736-.421 1.683-.105 2.104.631z" fill="#F3F3F3"/><path d="M44.848 186.483c.42.841.21 1.788-.527 2.21l-8.521 4.839c-.737.42-1.789.105-2.21-.631-.42-.842-.21-1.789.526-2.21l8.522-4.839c.736-.422 1.788-.106 2.209.631zm-11.153 6.312c.421.737 1.263.947 1.894.526l8.521-4.839c.631-.421.842-1.263.527-1.894-.421-.736-1.263-.947-1.894-.525l-8.521 4.838c-.631.315-.842 1.158-.526 1.894h-.001z" fill="#fff"/><path d="M51.79 172.597c.315.842 0 1.683-.841 1.998l-20.304 8.416c-.737.316-1.683-.104-1.998-.842-.316-.841 0-1.683.841-1.998l20.304-8.416c.736-.315 1.683 0 1.998.842z" fill="#F3F3F3"/><path d="M51.895 172.492c.315.841 0 1.788-.841 2.208l-20.304 8.416a1.633 1.633 0 01-2.103-.947c-.316-.841 0-1.788.841-2.208l20.304-8.416a1.633 1.633 0 012.103.947zm-23.039 9.572c.316.737 1.158 1.053 1.789.842l20.304-8.416c.736-.315 1.052-1.157.736-1.893-.315-.736-1.157-1.052-1.789-.842l-20.304 8.416c-.736.315-1.05 1.157-.736 1.894v-.001z" fill="#fff"/><path d="M36.957 167.337c.315.841-.105 1.683-.947 1.998l-9.258 3.051c-.736.315-1.683-.21-1.894-.947-.314-.841.106-1.683.947-1.998l9.258-3.051c.736-.315 1.578.105 1.894.947z" fill="#F3F3F3"/><path d="M37.06 167.231c.317.842-.104 1.789-1.05 2.105l-9.258 3.05c-.842.315-1.789-.21-2.105-1.052-.315-.842.106-1.789 1.054-2.103l9.256-3.052c.842-.21 1.789.211 2.105 1.053l-.001-.001zm-12.2 3.999c.21.736 1.052 1.157 1.789.947l9.257-3.052c.736-.209 1.052-1.051.842-1.787-.21-.737-1.053-1.158-1.789-.947l-9.257 3.051c-.737.315-1.053 1.051-.842 1.788z" fill="#fff"/><path d="M46.425 154.818c.21.842-.316 1.683-1.158 1.788L23.7 160.814c-.841.211-1.578-.421-1.787-1.263-.21-.841.315-1.683 1.156-1.788l21.567-4.208c.842-.104 1.683.421 1.787 1.263h.002z" fill="#F3F3F3"/><path d="M46.635 154.818c.211.947-.42 1.788-1.262 1.998l-21.566 4.208c-.842.211-1.683-.42-1.893-1.367-.21-.947.42-1.789 1.262-1.998l21.567-4.208c.84-.211 1.683.42 1.892 1.367zm-24.511 4.735c.105.735.841 1.261 1.577 1.156l21.567-4.208c.736-.105 1.262-.947 1.052-1.683-.105-.736-.841-1.263-1.579-1.158l-21.565 4.208c-.736.211-1.262.947-1.052 1.683v.002z" fill="#fff"/><path d="M32.96 146.718c.104.84-.422 1.578-1.263 1.683l-9.678 1.157c-.843.105-1.58-.526-1.683-1.369-.106-.84.42-1.577 1.262-1.683l9.678-1.156c.737-.106 1.578.525 1.684 1.368z" fill="#F3F3F3"/><path d="M33.065 146.718c.104.946-.527 1.787-1.368 1.893l-9.678 1.157c-.843.106-1.683-.525-1.789-1.472-.105-.947.526-1.789 1.367-1.894l9.68-1.158c.84-.105 1.683.527 1.787 1.473v.001zm-12.73 1.472c.105.737.842 1.369 1.578 1.262l9.678-1.156c.737-.106 1.263-.842 1.158-1.578-.105-.737-.842-1.368-1.578-1.263l-9.679 1.158c-.736.105-1.262.841-1.158 1.577z" fill="#fff"/><path d="M44.74 136.512c0 .843-.63 1.579-1.472 1.579H21.282c-.841 0-1.472-.736-1.472-1.578 0-.841.63-1.579 1.472-1.579H43.27c.842 0 1.474.738 1.474 1.579l-.003-.001z" fill="#F3F3F3"/><path d="M44.848 136.512c0 .948-.738 1.683-1.58 1.683H21.284c-.842 0-1.578-.736-1.578-1.683 0-.946.736-1.683 1.578-1.683H43.27c.841 0 1.578.737 1.578 1.683zm-24.933-.104c0 .736.63 1.472 1.368 1.472h21.986c.736 0 1.368-.63 1.368-1.472 0-.736-.632-1.474-1.368-1.474H21.283c-.736.106-1.367.738-1.367 1.474h-.001z" fill="#fff"/><path d="M33.065 125.887c-.106.842-.737 1.473-1.579 1.473l-9.784-.736c-.84-.106-1.472-.842-1.368-1.683.106-.842.738-1.473 1.58-1.473l9.783.736c.736.106 1.368.842 1.368 1.683z" fill="#E2E2E2"/><path d="M33.17 125.887c-.106.947-.842 1.578-1.684 1.578l-9.784-.736c-.84-.105-1.577-.842-1.471-1.788.104-.946.841-1.578 1.683-1.578l9.783.736c.842.105 1.473.947 1.473 1.788zm-12.835-.946c-.104.736.527 1.473 1.263 1.473l9.784.736c.735 0 1.367-.526 1.473-1.368.105-.736-.527-1.472-1.263-1.472l-9.784-.737c-.736 0-1.368.631-1.473 1.369v-.001z" fill="#fff"/><path d="M46.635 118.208c-.21.841-.947 1.368-1.788 1.263l-21.566-4.419c-.841-.211-1.368-.947-1.157-1.789.21-.841.947-1.368 1.788-1.261l21.567 4.313c.736.209 1.262 1.051 1.156 1.893z" fill="#F3F3F3"/><path d="M46.74 118.208c-.21.947-1.053 1.473-1.894 1.368l-21.566-4.313c-.841-.211-1.472-1.053-1.262-1.999.21-.948 1.052-1.473 1.893-1.368l21.567 4.313c.841.211 1.367 1.053 1.262 1.999zm-24.512-4.945c-.105.737.315 1.473 1.052 1.684l21.567 4.313c.736.105 1.472-.315 1.683-1.158.104-.736-.316-1.472-1.053-1.683l-21.565-4.312c-.841-.106-1.472.42-1.683 1.156h-.001z" fill="#fff"/><path d="M37.168 105.585a1.576 1.576 0 01-.707.971 1.579 1.579 0 01-1.187.185l-9.468-2.63c-.842-.211-1.262-1.052-1.053-1.894a1.574 1.574 0 01.708-.971 1.578 1.578 0 011.186-.185l9.469 2.63c.841.209 1.261 1.051 1.052 1.893v.001z" fill="#F3F3F3"/><path d="M37.272 105.585c-.21.84-1.157 1.472-1.998 1.156l-9.468-2.63c-.842-.21-1.369-1.157-1.158-1.998.21-.843 1.158-1.474 2-1.158l9.467 2.631c.842.21 1.369 1.052 1.157 1.998v.001zm-12.308-3.474c-.21.737.21 1.579.947 1.788l9.468 2.631c.736.21 1.473-.211 1.684-1.053.209-.736-.211-1.578-.948-1.787l-9.468-2.63c-.736-.106-1.472.315-1.683 1.052v-.001z" fill="#fff"/><path d="M52 100.535c-.315.841-1.263 1.157-1.998.841L29.697 92.96c-.736-.315-1.156-1.262-.841-1.998.316-.842 1.263-1.158 1.999-.842l20.304 8.416c.841.315 1.157 1.262.841 1.998v.001z" fill="#F3F3F3"/><path d="M52.106 100.639a1.635 1.635 0 01-2.105.947L29.698 93.17c-.842-.315-1.157-1.262-.842-2.209a1.634 1.634 0 012.105-.946l20.303 8.416c.842.42 1.157 1.368.842 2.208zm-23.04-9.572c-.314.736 0 1.578.737 1.893l20.304 8.416c.736.316 1.472-.106 1.788-.842.315-.736 0-1.578-.736-1.893l-20.304-8.416c-.736-.21-1.578.106-1.788.842z" fill="#fff"/><path d="M45.162 86.332c-.42.737-1.262 1.053-1.998.737l-8.732-4.418c-.736-.316-1.052-1.263-.63-2.105.42-.736 1.26-1.052 1.997-.736l8.731 4.419c.737.42 1.053 1.368.632 2.103z" fill="#F3F3F3"/><path d="M45.267 86.438c-.421.841-1.368 1.157-2.21.736l-8.73-4.419c-.842-.42-1.158-1.367-.737-2.209.42-.841 1.368-1.157 2.209-.736l8.73 4.419c.844.315 1.158 1.368.738 2.209zm-11.362-5.786c-.315.736-.104 1.578.632 1.894l8.731 4.418c.632.315 1.474 0 1.894-.632.315-.736.105-1.578-.631-1.894l-8.838-4.416c-.631-.315-1.473-.106-1.789.63h.001z" fill="#fff"/><path d="M60.626 84.333c-.526.737-1.367.948-2.103.421l-18.2-12.097c-.736-.421-.841-1.368-.421-2.105.421-.736 1.368-.946 2.105-.42L60.31 82.334c.631.421.842 1.368.315 1.998z" fill="#F3F3F3"/><path d="M60.731 84.438c-.525.738-1.578.947-2.313.527l-18.2-12.204c-.736-.525-.947-1.472-.421-2.313.526-.737 1.579-.948 2.315-.526l18.2 12.202c.84.527.946 1.578.42 2.314zM40.007 70.552c-.42.631-.315 1.578.315 1.999l18.306 12.204c.63.422 1.472.211 1.894-.42.42-.632.315-1.579-.315-1.999L41.9 70.132c-.63-.421-1.472-.21-1.894.42h.001z" fill="#fff"/><path d="M56.734 69.08c-.526.63-1.473.841-2.104.315l-7.68-5.996c-.63-.526-.736-1.473-.21-2.104.525-.631 1.472-.842 2.104-.315l7.679 5.995c.632.527.737 1.473.21 2.105z" fill="#F3F3F3"/><path d="M56.84 69.184c-.526.737-1.579.843-2.315.316l-7.68-5.995c-.736-.526-.841-1.578-.315-2.313.526-.738 1.578-.843 2.313-.316l7.68 5.995c.738.527.843 1.578.316 2.315v-.002zm-10.1-7.89c-.526.632-.42 1.473.21 1.999l7.68 5.998c.631.42 1.473.315 1.999-.316s.42-1.473-.21-1.998l-7.68-5.998c-.63-.42-1.473-.315-1.998.316h-.001z" fill="#fff"/><path d="M72.409 70.131c-.63.632-1.578.632-2.103 0L54.632 54.667c-.63-.63-.526-1.578 0-2.104.631-.63 1.578-.63 2.104 0l15.57 15.465c.63.525.63 1.578.105 2.104h-.002z" fill="#F3F3F3"/><path d="M72.408 70.237a1.65 1.65 0 01-2.313 0L54.524 54.772a1.65 1.65 0 010-2.316 1.65 1.65 0 012.314 0l15.57 15.465c.736.631.736 1.683 0 2.314v.002zm-17.671-17.57c-.527.527-.527 1.474 0 1.998L70.306 70.13c.526.527 1.472.527 1.998 0 .526-.526.526-1.473 0-1.998l-15.57-15.57c-.525-.525-1.367-.525-1.997.106v-.001z" fill="#fff"/><path d="M71.463 54.457c-.631.526-1.578.526-2.105-.106l-6.418-7.364c-.524-.63-.42-1.577.212-2.103.63-.527 1.578-.527 2.104.104l6.418 7.365c.525.526.42 1.473-.211 2.104z" fill="#F3F3F3"/><path d="M71.568 54.457c-.736.63-1.683.526-2.315-.106l-6.417-7.363c-.63-.631-.526-1.684.21-2.315.737-.632 1.684-.526 2.315.106l6.418 7.362c.525.738.525 1.79-.21 2.316zm-8.416-9.573c-.632.526-.632 1.367-.21 1.998l6.417 7.364c.526.527 1.368.632 1.998.105.631-.525.631-1.368.211-1.998l-6.418-7.365c-.525-.63-1.368-.63-1.998-.104z" fill="#fff"/><path d="M86.611 58.455c-.736.526-1.683.315-2.104-.421l-12.308-18.2c-.422-.737-.21-1.684.42-2.104.736-.526 1.683-.315 2.105.421l12.202 18.2c.527.736.316 1.683-.315 2.103v.001z" fill="#F3F3F3"/><path d="M86.612 58.56c-.736.526-1.789.314-2.315-.421l-12.203-18.2c-.525-.737-.315-1.788.526-2.313.736-.527 1.788-.316 2.315.42l12.203 18.2c.525.84.314 1.788-.526 2.313zM72.724 37.834c-.631.42-.842 1.262-.42 1.894l12.202 18.2c.422.63 1.263.736 1.998.314.632-.42.843-1.262.422-1.893L74.724 38.255c-.421-.63-1.368-.841-1.998-.42h-.002z" fill="#fff"/><path d="M88.82 42.885c-.736.42-1.683.21-2.103-.526l-4.84-8.521c-.42-.736-.106-1.683.632-2.105.736-.42 1.683-.21 2.103.527l4.84 8.52c.315.737.105 1.684-.63 2.105h-.002z" fill="#F3F3F3"/><path d="M88.82 42.99c-.841.42-1.788.21-2.208-.526l-4.84-8.52c-.42-.738-.21-1.79.631-2.21.842-.42 1.789-.211 2.21.526l4.838 8.52c.422.737.21 1.684-.63 2.21zm-6.31-11.15c-.632.42-.947 1.262-.527 1.894l4.84 8.521c.42.63 1.262.842 1.893.526.632-.42.947-1.263.527-1.894l-4.84-8.522c-.315-.63-1.262-.947-1.893-.525z" fill="#fff"/><path d="M102.812 49.828c-.841.315-1.683 0-1.998-.736l-8.522-20.305c-.315-.736.106-1.683.842-1.999.841-.315 1.683 0 1.998.736l8.521 20.304c.316.736-.104 1.683-.841 1.998v.002z" fill="#F3F3F3"/><path d="M102.811 49.934c-.84.315-1.787 0-2.209-.843l-8.521-20.303a1.634 1.634 0 01.947-2.104c.841-.315 1.788 0 2.21.841l8.52 20.304c.316.736-.104 1.683-.946 2.105h-.001zm-9.572-23.04c-.737.315-1.053 1.158-.737 1.789l8.521 20.303c.314.736 1.156 1.05 1.892.736.737-.315 1.054-1.158.737-1.789l-8.52-20.303c-.422-.737-1.158-1.053-1.895-.737l.002.001z" fill="#fff"/><path d="M107.967 34.89c-.842.315-1.683-.106-1.998-.947l-3.052-9.258c-.315-.737.211-1.684.947-1.893.737-.21 1.684.105 1.998.947l3.052 9.257c.315.736-.105 1.578-.947 1.893v.001z" fill="#F3F3F3"/><path d="M108.072 34.994a1.633 1.633 0 01-2.103-.947l-3.052-9.257c-.314-.842.211-1.788 1.054-2.104a1.634 1.634 0 012.103.947l3.051 9.258c.21.842-.211 1.788-1.053 2.103zm-4.102-12.097c-.737.21-1.158 1.051-.947 1.787l3.051 9.26c.21.735 1.051 1.05 1.789.84.736-.21 1.156-1.051.946-1.788l-3.051-9.259a1.325 1.325 0 00-1.788-.842v.002z" fill="#fff"/><path d="M120.381 44.463c-.842.21-1.683-.315-1.789-1.158l-4.418-21.566c-.211-.841.421-1.577 1.262-1.788.842-.21 1.683.315 1.788 1.157l4.42 21.567c.104.735-.422 1.577-1.263 1.788z" fill="#F3F3F3"/><path d="M120.381 44.568c-.947.21-1.789-.421-2-1.263l-4.418-21.566c-.211-.841.421-1.788 1.263-1.893.947-.211 1.788.421 1.998 1.263l4.42 21.566c.209.84-.316 1.684-1.263 1.893zm-4.945-24.512c-.737.106-1.263.842-1.157 1.683l4.418 21.567c.106.735.946 1.262 1.684 1.051.736-.105 1.261-.841 1.156-1.683l-4.419-21.566c-.209-.736-.945-1.157-1.683-1.052h.001z" fill="#fff"/><path d="M128.375 30.786c-.841.106-1.577-.42-1.788-1.261l-1.262-9.68c-.105-.841.526-1.577 1.368-1.683.841-.105 1.577.422 1.788 1.263l1.262 9.678c.105.842-.526 1.578-1.368 1.683z" fill="#F3F3F3"/><path d="M128.375 30.892c-.947.105-1.788-.526-1.894-1.369l-1.262-9.677c-.105-.842.526-1.684 1.473-1.789.947-.104 1.789.527 1.894 1.368l1.262 9.678c.105.842-.526 1.683-1.473 1.789zm-1.578-12.624c-.736.105-1.368.841-1.263 1.578l1.263 9.679c.106.736.842 1.261 1.578 1.156.736-.104 1.368-.841 1.263-1.578l-1.263-9.678c-.105-.736-.841-1.263-1.578-1.157z" fill="#fff"/><path d="M139.738 261.28c68.791 0 124.557-55.766 124.557-124.557S208.529 12.166 139.738 12.166 15.181 67.932 15.181 136.723 70.947 261.28 139.738 261.28z" fill="url(#paint2_linear)" fill-opacity=".2"/><g filter="url(#filter0_d)"><path d="M226.001 57.718L125.534 122.1h-.105v.104l-.105.105-62.698 103.413 92.155-74.166.105-.105v-.105l71.116-93.628-.001-.001z" fill="#000" fill-opacity=".05"/></g><path d="M224.107 51.721l-99.309 70.589 29.456 29.246 69.853-99.835z" fill="#CD151E"/><path d="M124.903 122.101l14.834 14.622 84.37-85.002-99.204 70.38z" fill="#FA5153"/><path d="M124.903 122.101l29.456 29.244-99.31 70.59 69.854-99.836v.002z" fill="#ACACAC"/><path d="M55.05 221.935l84.686-85.212-14.834-14.624-69.852 99.836z" fill="#EEE"/><defs><linearGradient id="paint0_linear" x1="139" y1="271.484" x2="139" y2="2.172" gradientUnits="userSpaceOnUse"><stop offset=".25" stop-color="#DBDBDA"/><stop offset="1" stop-color="#fff"/></linearGradient><linearGradient id="paint2_linear" x1="137.371" y1="101.107" x2="79.235" y2="205.409" gradientUnits="userSpaceOnUse"><stop stop-opacity="0"/><stop offset="1"/></linearGradient><radialGradient id="paint1_radial" cx="0" cy="0" r="1" gradientUnits="userSpaceOnUse" gradientTransform="translate(156.501 109.468) scale(152.039)"><stop stop-color="#2ABCE1"/><stop offset=".114" stop-color="#2ABBE1"/><stop offset="1" stop-color="#3375F8"/></radialGradient><filter id="filter0_d" x="23.564" y="28.421" width="241.501" height="246.13" filterUnits="userSpaceOnUse" color-interpolation-filters="sRGB"><feFlood flood-opacity="0" result="BackgroundImageFix"/><feColorMatrix in="SourceAlpha" values="0 0 0 0 0 0 0 0 0 0 0 0 0 0 0 0 0 0 127 0"/><feOffset dy="9.766"/><feGaussianBlur stdDeviation="19.531"/><feColorMatrix values="0 0 0 0 0 0 0 0 0 0 0 0 0 0 0 0 0 0 1 0"/><feBlend in2="BackgroundImageFix" result="effect1_dropShadow"/><feBlend in="SourceGraphic" in2="effect1_dropShadow" result="shape"/></filter></defs></svg>