<svg xmlns="http://www.w3.org/2000/svg" viewBox="0 0 1000 202"><path d="M646.1 179.4c0-2.3-1.8-4.1-4-4.2h-6.5v8.3h6.2c2.1.3 4.1-1.1 4.4-3.2-.1-.2-.1-.5-.1-.9zm-1.1-12.3c0-2-1.6-3.6-4.5-3.6h-4.9v7.2h5.4c2.5 0 4-1.1 4-3.6zm-4.5-8.3c5.7 0 9.4 3 9.4 7.7.1 2.4-1 4.8-3.1 6.1 2.8 1.2 4.6 4.1 4.5 7.1 0 5.2-3.8 8.7-10 8.7h-11.1v-29.6h10.3zm20.8 29.6l-8.3-20.6h5.8l5.1 14.1 5.5-14.1h5.4l-11.9 30h-5.5l3.9-9.4zM7.5.1l33.3 86.1L73.9.1h7.2L43.5 95.8h-5.7L.2.1h7.3zm76.8 62.2c0-21.1 12.2-35.2 29.7-35.2 17 0 28.1 12.3 28.1 30 0 2-.1 3.8-.4 5.6H91c.6 18.7 9.9 28.1 24.2 28.1 8.9 0 14.9-2.6 21.1-9.1l4.5 4.1c-7.6 7.9-14.9 11-25.7 11-18.5 0-30.8-13.3-30.8-34.5zm6.8-4.6h44.5v-.5c0-14.7-8.4-24.4-22-24.4-11.5 0-21.4 8.7-22.5 24.9zm77.5-29.6v12.7c3.9-8.7 12-13.6 21.8-13.6 14 0 22.8 8.7 22.8 24.5v44.2h-6.4V52.6c0-13-6.5-19.7-17.8-19.7-12.2 0-20.3 8.1-20.3 21.9v41.1h-6.4V28.1h6.3zm71.3 47.8V33.5h-11.3v-5.4h11.3V7.7h6.4v20.5h19.5v5.4h-19.5V76c0 10.8 4.1 15.1 12.2 15.1 2.7 0 5.1-.3 7.6-1.2v5.8c-1.8.6-4.8 1.1-7.9 1.1-12 0-18.3-6.9-18.3-20.9zm88 19.9V83.2c-3.9 8.7-12 13.6-21.8 13.6-14 0-22.8-8.7-22.8-24.5V28.1h6.4v43.3c0 13 6.5 19.7 17.8 19.7 12.2 0 20.3-8.1 20.3-21.9V28.1h6.4v67.7h-6.3zm35.6-67.7v15.4c4.2-11.4 12.3-16.4 21.3-16.4 2 0 3.8.2 5.4.6v6.6c-2-.7-3.8-.9-5.7-.9-9.5 0-20.9 7.1-20.9 26v36.4h-6.4V28.1h6.3zm35.6 34.2c0-21.1 12.2-35.2 29.7-35.2 17 0 28.1 12.3 28.1 30 0 2-.1 3.8-.4 5.6h-50.7c.6 18.7 9.9 28.1 24.2 28.1 8.9 0 14.9-2.6 21.1-9.1l4.5 4.1c-7.6 7.9-14.9 11-25.7 11-18.4 0-30.8-13.3-30.8-34.5zm6.9-4.6h44.5v-.5c0-14.7-8.4-24.4-22-24.4-11.5 0-21.4 8.7-22.5 24.9zM579.9.1v6.1h-56.7v38.4H573v6.1h-49.7v45.2h-6.8V.1h63.4zm40 96.7c-18.7 0-32-14.9-32-34.8 0-19.8 13.2-34.8 32-34.8 18.7 0 32 14.9 32 34.8 0 19.8-13.3 34.8-32 34.8zm0-63.9c-15.3 0-25.2 12.4-25.2 29.1s9.9 29.1 25.2 29.1 25.2-12.4 25.2-29.1c0-16.7-9.8-29.1-25.2-29.1zm57.9-4.8v15.4c4.2-11.4 12.3-16.4 21.3-16.4 2 0 3.8.2 5.4.6v6.6c-2-.7-3.8-.9-5.7-.9-9.5 0-20.9 7.1-20.9 26v36.4h-6.4V28.1h6.3zm43.4 0l15.9 58.2L757 28.1h6.2l19.9 58.2L799 28.1h6.9l-19.3 67.7h-6.4l-20.2-59-20.1 59.1h-6.4l-19.3-67.7 7-.1zm118.6 68.7c-13.8 0-22.8-7.4-22.8-19.6 0-12.3 9.7-20.1 29.9-20.1h18.6c-.1-17.8-6.6-24.2-19.9-24.2-9.2 0-15.9 3.7-21 11.6l-4.9-3.7c6.4-9.4 14.7-13.7 26.4-13.7 16.3 0 25.4 9.1 25.4 29.6v39.1H866l-.4-15.2c-5.5 10.7-14.7 16.2-25.8 16.2zm25.6-29.2v-5.3H846c-15.9 0-22.5 5.7-22.5 14.6 0 8.7 6.2 14.3 17.4 14.3 16.4 0 24.6-14.1 24.5-23.6zm34.2-39.5v15.4c4.2-11.4 12.3-16.4 21.3-16.4 2 0 3.8.2 5.4.6v6.6c-2-.7-3.8-.9-5.7-.9-9.5 0-20.9 7.1-20.9 26v36.4h-6.4V28.1h6.3zM996 95.8h-6.4v-17c-3.9 11-13.3 17.9-25.8 17.9-18.2.1-28.8-15.3-28.8-34.7s10.6-34.8 28.9-34.8c12.5 0 21.9 7 25.8 17.9V.1h6.4v95.7h-.1zM990.1 62c0-16.7-10-29.2-25-29.2s-23.4 12.7-23.4 29.1S950.1 91 965.1 91c15 .1 25-12.4 25-29zm-241.2 78.2c-7.5-4.7-17.5-3.6-26.3 2-8.8-5.6-18.8-6.7-26.3-2-11.9 7.5-13.4 26.7-3.2 42.9 7.5 12 19.1 19 29.5 18.9 10.4.1 22.1-6.9 29.5-18.9 10.1-16.3 8.7-35.5-3.2-42.9zm-50.4 39.5c-2.1-3.4-3.7-7-4.7-10.7-.9-3.5-1.2-6.9-1-10.1.5-6 2.9-10.7 6.9-13.2s9.2-2.6 14.8-.4c.8.3 1.7.7 2.5 1.2-3 2.7-5.7 5.9-8 9.7-6.1 9.9-8 20.8-5.9 29.6-1.7-2-3.2-4-4.6-6.1zm52.8-10.8c-1 3.7-2.5 7.3-4.7 10.7-1.4 2.2-2.9 4.2-4.6 6 1.9-7.8.6-17.5-4.1-26.4-.3-.6-1.1-.8-1.7-.5l-14.7 9.2c-.6.3-.7 1.1-.4 1.7l2.1 3.5c.3.6 1.1.7 1.6.4l9.5-5.9c.3.9.6 1.8.8 2.8.9 3.5 1.2 6.9 1 10.1-.5 6-2.9 10.7-6.9 13.2-2 1.2-4.3 1.9-6.8 2h-.3c-2.5-.1-4.8-.7-6.8-2-4-2.5-6.4-7.2-6.9-13.2-.2-3.2.1-6.6 1-10.1 1-3.7 2.5-7.3 4.7-10.7 2.1-3.4 4.7-6.4 7.6-8.9 2.7-2.3 5.6-4.1 8.6-5.3 5.6-2.2 10.8-2.1 14.8.4s6.4 7.2 6.9 13.2c.5 3 .2 6.4-.7 9.8zm75.6-7.2c7.8 0 14 6 14 13.7 0 7.6-6.2 13.5-14 13.5-7.7 0-13.9-5.9-13.9-13.5s6.2-13.7 13.9-13.7zm0 20.1c3.6 0 6.3-2.9 6.3-6.4 0-3.6-2.7-6.5-6.3-6.5-3.5 0-6.3 2.9-6.3 6.5.1 3.5 2.8 6.4 6.3 6.4zm50.6-12.1c0 11-7.9 18.6-19.2 18.6h-14.2c-.7 0-1.2-.5-1.2-1.2v-34.7c0-.6.5-1.2 1.2-1.2h14.2c11.4 0 19.2 7.4 19.2 18.5zm-8.3 0c0-6.5-4.3-11.2-10.6-11.2h-7.8v22.4h7.8c6.3 0 10.6-4.9 10.6-11.2zm22.7-8c3.4 0 6.2 1.5 7.4 3.5v-1.6c0-.6.6-1.2 1.1-1.2h5.3c.6 0 1.1.5 1.1 1.2v23.5c0 .6-.5 1.1-1.1 1.1h-5.3c-.6 0-1.1-.5-1.1-1.1v-1.6c-1.2 2-4 3.5-7.4 3.5-6.6 0-12.8-5.3-12.8-13.7 0-8.3 6.2-13.6 12.8-13.6zm1.5 20.2c3.5 0 6.2-2.7 6.2-6.5s-2.6-6.5-6.2-6.5c-3.5 0-6.2 2.7-6.2 6.5s2.6 6.5 6.2 6.5zm28.3-20.2c3.5 0 6.3 1.5 7.5 3.4v-12.8c0-.6.5-1.1 1.2-1.1h5.3c.6 0 1.1.5 1.1 1.1v34.8c0 .6-.5 1.1-1.1 1.1h-5.3c-.6 0-1.1-.5-1.1-1.1v-1.6c-1.4 2-4 3.5-7.4 3.5-6.7 0-12.8-5.3-12.8-13.7-.1-8.3 6-13.6 12.6-13.6zm1.6 20.2c3.5 0 6.1-2.7 6.1-6.6 0-3.8-2.6-6.6-6.1-6.6s-6.2 2.7-6.2 6.6 2.7 6.6 6.2 6.6zm28.3-20.2c3.5 0 6.3 1.5 7.5 3.4v-12.8c0-.6.5-1.1 1.2-1.1h5.3c.6 0 1.1.5 1.1 1.1v34.8c0 .6-.5 1.1-1.1 1.1h-5.3c-.6 0-1.1-.5-1.1-1.1v-1.6c-1.4 2-4 3.5-7.4 3.5-6.7 0-12.8-5.3-12.8-13.7-.1-8.3 6-13.6 12.6-13.6zm1.6 20.2c3.5 0 6.2-2.7 6.2-6.6 0-3.8-2.6-6.6-6.2-6.6-3.5 0-6.2 2.7-6.2 6.6.1 3.9 2.7 6.6 6.2 6.6zm40.6-19.4h-5.3c-.8 0-1.3.6-1.4 1.2l-4.9 18.4-5.3-18.4c-.3-1-.8-1.2-1.5-1.2h-5.6c-1.3 0-1.6.9-1.3 1.8l7.1 22.9c.2.6.6 1.1 1.4 1.1h3.2l-.7 2.3c-.7 2-1.9 2.5-3.6 2.5-1.4 0-2.3-.6-3.3-1.2-.4-.3-.7-.4-1-.4-.5 0-.8.2-1.3.9l-1.6 2.4c-.3.5-.5.8-.5 1.3 0 .8.8 1.4 1.8 1.9 1.7 1 3.9 1.5 6.4 1.5 5.3 0 8.8-2.9 10.3-7.8l8-27.4c.5-1.1.2-1.8-.9-1.8zm-189.6 20.7c-2.8 3.5-7.7 5.8-13.1 5.8-10.3 0-18.4-7.8-18.4-18.9 0-11.5 8.7-19.5 19.7-19.5 8.1 0 14.6 3.5 17.5 10.5.1.2.1.4.1.6 0 .3-.2.6-.9.8l-5.1 2c-.4.1-.7.1-1 0s-.4-.4-.6-.7c-1.8-3.5-5.1-5.9-10.2-5.9-6.6 0-11.2 5.1-11.2 11.8 0 6.5 4 11.7 11.4 11.7 3.9 0 7-1.9 8.5-3.9h-4.6c-.7 0-1.2-.5-1.2-1.2v-4c0-.7.5-1.2 1.2-1.2h13.6c.7 0 1.2.5 1.2 1.2V187c0 .7-.5 1.2-1.2 1.2h-4.4c-.7 0-1.2-.5-1.2-1.2l-.1-3.8zm194-25.7c0-.1 0-.2-.1-.3s-.2-.1-.3-.1h-.4v.8h.4c.1 0 .2 0 .3-.1.1-.1.1-.1.1-.3zm-.9 1.9h-.6v-2.9h1.1c.3 0 .6.1.8.3s.3.4.3.7c0 .2 0 .3-.1.5-.1.1-.2.3-.4.3l.6.9v.1h-.7s-.1 0-.1-.1l-.5-.8h-.4v1zm.5.6c.5 0 1-.2 1.4-.6.4-.4.6-.8.6-1.4 0-.6-.2-1-.6-1.4-.4-.4-.8-.6-1.4-.6-.5 0-1 .2-1.4.6-.4.4-.6.8-.6 1.4 0 .6.2 1 .6 1.4.4.4.8.6 1.4.6zm-1.7-.3c-.2-.2-.4-.5-.5-.8s-.2-.6-.2-.9c0-.3.1-.6.2-.9.1-.3.3-.5.5-.8.2-.2.5-.4.8-.5s.6-.2.9-.2c.3 0 .6.1.9.2.3.1.6.3.8.5s.4.5.5.8.2.6.2.9c0 .3-.1.6-.2.9-.1.3-.3.5-.5.8-.2.2-.5.4-.8.5s-.6.2-.9.2c-.3 0-.6-.1-.9-.2-.4-.1-.6-.3-.8-.5z"/></svg>