<svg version="1.2" baseProfile="tiny" xmlns="http://www.w3.org/2000/svg" viewBox="0 0 216 24"><path fill-rule="evenodd" fill="#000111" d="M11.1 11.1h.2l.7.7.7-.7h.2c.1 0 0 .1 0 .2l-.7.7.7.7v.2c0 .1-.1 0-.2 0l-.7-.7-.7.7h-.2c-.1 0 0-.1 0-.2l.7-.7-.7-.7c-.1-.1-.1-.2 0-.2z"/><path fill-rule="evenodd" fill="#000111" d="M12.5 10.8c.2-.2.5-.2.7 0 .2.2.2.5 0 .7l-.5.5.5.5c.2.2.2.5 0 .7-.2.2-.5.2-.7 0l-.5-.5-.5.5c-.2.2-.5.2-.7 0-.2-.2-.2-.5 0-.7l.5-.5-.5-.5c-.2-.2-.2-.5 0-.7s.5-.2.7 0l.5.5.5-.5zm21.7-.6c.1-.1.2-.1.3 0l1.5 1.5 1.5-1.5c.1-.1.2-.1.3 0 .1.1.1.2 0 .3L36.3 12l1.5 1.5c.1.1.1.2 0 .3s-.2.1-.3 0L36 12.3l-1.5 1.5c-.1.1-.2.1-.3 0-.1-.1-.1-.2 0-.3l1.5-1.5-1.5-1.5c-.1-.1-.1-.2 0-.3z"/><path fill-rule="evenodd" fill="#000111" d="M37.2 9.9c.2-.2.6-.2.8 0 .2.2.2.6 0 .8L36.8 12l1.2 1.2c.2.2.2.6 0 .8-.2.2-.6.2-.8 0L36 12.8 34.8 14c-.2.2-.6.2-.8 0-.2-.2-.2-.6 0-.8l1.2-1.2-1.2-1.2c-.2-.2-.2-.6 0-.8.2-.2.6-.2.8 0l1.2 1.2 1.2-1.3zm20.1-.6c.1-.1.4-.1.5 0l2.2 2.2 2.2-2.2c.1-.1.4-.1.5 0 .1.1.1.4 0 .5L60.5 12l2.2 2.2c.1.1.1.4 0 .5-.1.1-.4.1-.5 0L60 12.5l-2.2 2.2c-.1.1-.4.1-.5 0-.1-.1-.1-.4 0-.5l2.2-2.2-2.2-2.2c-.2-.2-.2-.4 0-.5z"/><path fill-rule="evenodd" fill="#000111" d="M62 9c.3-.3.7-.3 1 0 .3.3.3.7 0 1l-2 2 2 2c.3.3.3.7 0 1-.3.3-.7.3-1 0l-2-2-2 2c-.3.3-.7.3-1 0-.3-.3-.3-.7 0-1l2-2-2-2c-.3-.3-.3-.7 0-1 .3-.3.7-.3 1 0l2 2 2-2zm.5.5l-2.3 2.2c-.1.1-.4.1-.5 0l-2.2-2.2 2.2 2.2c.1.1.1.4 0 .5l-2.2 2.2 2.2-2.2c.1-.1.2-.1.2-.1.1 0 .2 0 .2.1l2.2 2.2-2.2-2.2c-.1-.1-.1-.2-.1-.2 0-.1 0-.2.1-.2l2.4-2.3zm17.8-1.2c.2-.2.5-.2.7 0l3 3 3-3c.2-.2.5-.2.7 0 .2.2.2.5 0 .7l-3 3 3 3c.2.2.2.5 0 .7-.2.2-.5.2-.7 0l-3-3-3 3c-.2.2-.5.2-.7 0-.2-.2-.2-.5 0-.7l3-3-3-3c-.1-.2-.1-.5 0-.7z"/><path fill-rule="evenodd" fill="#000111" d="M86.8 8.1c.3-.3.8-.3 1.1 0 .3.3.3.8 0 1.1L85.1 12l2.8 2.8c.3.3.3.8 0 1.1-.3.3-.8.3-1.1 0L84 13.1l-2.8 2.8c-.3.3-.8.3-1.1 0-.3-.3-.3-.8 0-1.1l2.8-2.8-2.8-2.8c-.3-.3-.3-.8 0-1.1.3-.3.8-.3 1.1 0l2.8 2.8 2.8-2.8zm.7.4c-.1-.1-.2-.1-.2 0l-3 3c-.1.1-.3.1-.4 0l-3-3c-.1-.1-.2-.1-.2 0-.1.1-.1.2 0 .2l3 3c.1.1.1.3 0 .4l-3 3c-.1.1-.1.2 0 .2.1.1.2.1.2 0l3-3c.1-.1.1-.1.2-.1s.2 0 .2.1l3 3c.1.1.2.1.2 0 .1-.1.1-.2 0-.2l-3-3c-.1-.1-.1-.1-.1-.2s0-.2.1-.2l3-3v-.2zm15.9-1.1c.2-.2.6-.2.8 0l3.7 3.7 3.7-3.7c.2-.2.6-.2.8 0 .2.2.2.6 0 .8l-3.7 3.7 3.7 3.7c.2.2.2.6 0 .8-.2.2-.6.2-.8 0l-3.7-3.7-3.7 3.7c-.2.2-.6.2-.8 0-.2-.2-.2-.6 0-.8l3.7-3.7-3.7-3.7c-.2-.2-.2-.5 0-.8z"/><path fill-rule="evenodd" fill="#000111" d="M111.5 7.2c.3-.3.9-.3 1.3 0s.3.9 0 1.3l-3.5 3.5 3.5 3.5c.3.3.3.9 0 1.3-.3.3-.9.3-1.3 0l-3.5-3.5-3.5 3.5c-.3.3-.9.3-1.3 0-.3-.3-.3-.9 0-1.3l3.5-3.5-3.5-3.5c-.3-.3-.3-.9 0-1.3s.9-.3 1.3 0l3.5 3.5 3.5-3.5zm.9.4c-.1-.1-.3-.1-.4 0l-3.7 3.7c-.1.1-.3.1-.4 0L104 7.6c-.1-.1-.3-.1-.4 0-.1.1-.1.3 0 .4l3.7 3.7c.1.1.1.3 0 .4l-3.7 3.7c-.1.1-.1.3 0 .4.1.1.3.1.4 0l3.7-3.7c.1-.1.1-.1.2-.1s.2 0 .2.1l3.7 3.7c.1.1.3.1.4 0 .1-.1.1-.3 0-.4l-3.7-3.7c-.1-.1-.1-.1-.1-.2s0-.2.1-.2l3.7-3.7c.3-.1.3-.3.2-.4zm14.1-1.1c.3-.3.7-.3 1 0L132 11l4.5-4.5c.3-.3.7-.3 1 0 .3.3.3.7 0 1L133 12l4.5 4.5c.3.3.3.7 0 1-.3.3-.7.3-1 0L132 13l-4.5 4.5c-.3.3-.7.3-1 0-.3-.3-.3-.7 0-1L131 12l-4.5-4.5c-.3-.3-.3-.7 0-1z"/><path fill-rule="evenodd" fill="#000111" d="M136.3 6.4c.4-.4.9-.4 1.3 0s.4.9 0 1.3l-4.3 4.3 4.3 4.3c.4.4.4.9 0 1.3s-.9.4-1.3 0l-4.3-4.3-4.3 4.3c-.4.4-.9.4-1.3 0s-.4-.9 0-1.3l4.3-4.3-4.3-4.3c-.4-.4-.4-.9 0-1.3s.9-.4 1.3 0l4.3 4.3 4.3-4.3zm1.1.2c-.2-.2-.5-.2-.7 0l-4.5 4.5c-.1.1-.2.1-.3 0l-4.5-4.5c-.2-.2-.5-.2-.7 0-.2.2-.2.5 0 .7l4.5 4.5c.1.1.1.2 0 .3l-4.5 4.5c-.2.2-.2.5 0 .7.2.2.5.2.7 0l4.5-4.5.1-.1s.1 0 .1.1l4.5 4.5c.2.2.5.2.7 0 .2-.2.2-.5 0-.7l-4.5-4.5-.1-.1c0-.1 0-.1.1-.1l4.5-4.5c.3-.2.3-.6.1-.8zm12.2-1c.3-.3.9-.3 1.2 0l5.2 5.2 5.2-5.2c.3-.3.9-.3 1.2 0 .3.3.3.9 0 1.2l-5.2 5.2 5.2 5.2c.3.3.3.9 0 1.2s-.9.3-1.2 0l-5.2-5.2-5.2 5.2c-.3.3-.9.3-1.2 0-.3-.3-.3-.9 0-1.2l5.2-5.2-5.2-5.2c-.3-.4-.3-.9 0-1.2z"/><path fill-rule="evenodd" fill="#000111" d="M161.1 5.5c.4-.4 1-.4 1.4 0 .4.4.4 1 0 1.4l-5.1 5.1 5.1 5.1c.4.4.4 1 0 1.4-.4.4-1 .4-1.4 0l-5.1-5.1-5.1 5.1c-.4.4-1 .4-1.4 0-.4-.4-.4-1 0-1.4l5.1-5.1-5.1-5.1c-.4-.4-.4-1 0-1.4.4-.4 1-.4 1.4 0l5.1 5.1 5.1-5.1zm1.2.2c-.3-.3-.7-.3-.9 0l-5.2 5.2c-.1.1-.2.1-.2 0l-5.2-5.2c-.3-.3-.7-.3-.9 0-.3.3-.3.7 0 .9l5.2 5.2c.1.1.1.2 0 .2l-5.2 5.2c-.3.3-.3.7 0 .9.3.3.7.3.9 0l5.2-5.2.1-.1s.1 0 .1.1l5.2 5.2c.3.3.7.3.9 0 .3-.3.3-.7 0-.9l-5.2-5.2-.1-.1s0-.1.1-.1l5.2-5.2c.2-.2.2-.6 0-.9zm10.4-1c.4-.4 1-.4 1.3 0l6 6 6-6c.4-.4 1-.4 1.3 0 .4.4.4 1 0 1.3l-6 6 6 6c.4.4.4 1 0 1.3-.4.4-1 .4-1.3 0l-6-6-6 6c-.4.4-1 .4-1.3 0s-.4-1 0-1.3l6-6-6-6c-.4-.4-.4-1 0-1.3z"/><path fill-rule="evenodd" fill="#000111" d="M185.9 4.6c.4-.4 1.1-.4 1.5 0 .4.4.4 1.1 0 1.5l-5.9 5.9 5.9 5.9c.4.4.4 1.1 0 1.5-.4.4-1.1.4-1.5 0l-5.9-5.9-5.9 5.9c-.4.4-1.1.4-1.5 0-.4-.4-.4-1.1 0-1.5l5.9-5.9-5.9-5.9c-.4-.4-.4-1.1 0-1.5.4-.4 1.1-.4 1.5 0l5.9 5.9 5.9-5.9zm1.4.1c-.3-.3-.9-.3-1.2 0l-6 6h-.1l-6-6c-.3-.3-.9-.3-1.2 0-.3.3-.3.9 0 1.2l6 6v.1l-6 6c-.3.3-.3.9 0 1.2.3.3.9.3 1.2 0l6-6h.2l6 6c.3.3.9.3 1.2 0 .3-.3.3-.9 0-1.2l-6-6v-.2l6-6c.2-.2.2-.7-.1-1.1zm8.5-.9c.4-.4 1.1-.4 1.5 0l6.7 6.7 6.7-6.7c.4-.4 1.1-.4 1.5 0 .4.4.4 1.1 0 1.5l-6.7 6.7 6.7 6.7c.4.4.4 1.1 0 1.5s-1.1.4-1.5 0l-6.7-6.7-6.7 6.7c-.4.4-1.1.4-1.5 0-.4-.4-.4-1.1 0-1.5l6.7-6.7-6.7-6.7c-.5-.4-.5-1.1 0-1.5z"/></svg>