<svg version="1.1" id="Layer_1" xmlns="http://www.w3.org/2000/svg" x="0" y="0" viewBox="0 0 408 24" xml:space="preserve"><style>.st0{fill:#00a4a6}.st1{fill:#08a5a7}</style><path class="st0" d="M22 17.5v4.4c-.1.4-.5.7-.9.7H3c-.5 0-.9-.3-.9-.8v-4.4c0-.5.4-.9.9-.9.3 0 .5.1.7.3.2.2.3.4.3.6v3.3h16.2v-3.3c0-.5.4-.9.9-.9.3 0 .5.1.7.3.1.2.2.4.2.7z"/><path class="st0" d="M16.7 13.3l-4 4c-.1.1-.3.2-.5.3H12c-.2 0-.4-.1-.5-.3l-4-4c-.4-.2-.5-.5-.5-.7s.1-.5.3-.7c.4-.4 1-.4 1.4 0l2.4 2.4V5.5c0-.5.4-.9 1-.9.3 0 .5.1.7.3.1.1.2.4.2.6v8.8l2.4-2.4c.4-.4 1-.4 1.4 0 .3.4.3 1-.1 1.4zM46 17.5v4.4c-.1.4-.5.7-.9.7H27c-.5 0-.9-.3-.9-.8v-4.4c0-.5.4-.9.9-.9.3 0 .5.1.7.3.2.2.3.4.3.6v3.3h16.2v-3.3c0-.5.4-.9.9-.9.3 0 .5.1.7.3.1.2.2.4.2.7zm-5.3-9.8l-4 4c-.1.1-.3.2-.5.3H36c-.2 0-.4-.1-.5-.3l-4-4c-.4-.2-.5-.4-.5-.7 0-.2.1-.5.3-.7.4-.4 1-.4 1.4 0l2.4 2.4V3c0-.5.4-.9 1-.9.3 0 .5.1.7.3.1.1.2.3.2.6v5.8l2.4-2.4c.4-.4 1-.4 1.4 0 .3.3.3.9-.1 1.3zM70 17.5v4.4c-.1.4-.5.7-.9.7H51c-.5 0-.9-.3-.9-.8v-4.4c0-.5.4-.9.9-.9.3 0 .5.1.7.3.2.2.3.4.3.6v3.3h16.2v-3.3c0-.5.4-.9.9-.9.3 0 .5.1.7.3.1.2.2.4.2.7zm-5.3-7.8l-4 4c-.1.1-.3.2-.5.3H60c-.2 0-.4-.1-.5-.3l-4-4c-.4-.2-.5-.5-.5-.7s.1-.5.3-.7c.4-.4 1-.4 1.4 0l2.4 2.4V4c0-.5.4-.9 1-.9.3 0 .5.1.7.3.1.1.2.3.2.6v6.7l2.4-2.4c.4-.4 1-.4 1.4 0 .3.4.3 1-.1 1.4zM94 17.5v4.4c-.1.4-.5.7-.9.7H75c-.5 0-.9-.3-.9-.8v-4.4c0-.5.4-.9.9-.9.3 0 .5.1.7.3.2.2.3.4.3.6v3.3h16.2v-3.3c0-.5.4-.9.9-.9.3 0 .5.1.7.3.1.2.2.4.2.7zm-5.3-5.9l-4 4c-.1.1-.3.2-.5.3H84c-.2 0-.4-.1-.5-.3l-4-4c-.2-.2-.3-.4-.3-.7 0-.2.1-.5.3-.7.4-.4 1-.4 1.4 0l2.4 2.4V4.5c0-.5.4-.9 1-.9.3 0 .5.1.7.3-.1.1 0 .3 0 .6v8.2l2.4-2.4c.4-.4 1-.4 1.4 0 .3.3.3.9-.1 1.3zm29.3 5.9v4.4c-.1.4-.5.7-.9.7H99c-.5 0-.9-.3-.9-.8v-4.4c0-.5.4-.9.9-.9.3 0 .5.1.7.3.2.2.3.4.3.6v3.3h16.2v-3.3c0-.5.4-.9.9-.9.3 0 .5.1.7.3.1.2.2.4.2.7z"/><path class="st0" d="M112.7 15.3l-4 4c-.1.1-.3.2-.5.3h-.2c-.2 0-.4-.1-.5-.3l-4-4c-.2-.2-.3-.4-.3-.7 0-.2.1-.5.3-.7.4-.4 1-.4 1.4 0l2.4 2.4V7.5c0-.5.4-.9 1-.9.3 0 .5.1.7.3.2.2.3.4.3.7v8.8l2.4-2.4c.4-.4 1-.4 1.4 0 0 .3 0 .9-.4 1.3zM132 7c.6 0 1 .4 1 1v11c0 .6-.4 1-1 1s-1-.4-1-1V8c0-.6.4-1 1-1z"/><path class="st0" d="M142 17.5v4.4c-.1.4-.5.7-.9.7H123c-.5 0-.9-.3-.9-.8v-4.4c0-.5.4-.9.9-.9.3 0 .5.1.7.3.2.2.3.4.3.6v3.3h16.2v-3.3c0-.5.4-.9.9-.9.3 0 .5.1.7.3.1.2.2.4.2.7zm14-7.5c.6 0 1 .4 1 1v8c0 .6-.4 1-1 1s-1-.4-1-1v-8c0-.6.4-1 1-1z"/><path class="st0" d="M166 17.5v4.4c-.1.4-.5.7-.9.7H147c-.5 0-.9-.3-.9-.8v-4.4c0-.5.4-.9.9-.9.3 0 .5.1.7.3.2.2.3.4.3.6v3.3h16.2v-3.3c0-.5.4-.9.9-.9.3 0 .5.1.7.3.1.2.2.4.2.7z"/><path class="st1" d="M147.4 9.2c-.1-.3 0-.5.1-.8.1-.2.3-.4.6-.5 2.6-.9 4.8-2.7 6.4-5 .1-.2.4-.4.6-.5.3-.1.5 0 .8.1l.3.3c.1.1.1.3.2.4v.4c0 .1-.1.3-.2.4-1.8 2.6-4.3 4.6-7.3 5.7-.1.1-.3.1-.4.1-.1 0-.3 0-.4-.1-.1-.1-.3-.1-.4-.3-.1 0-.2-.1-.3-.2z"/><path class="st0" d="M180 13c.6 0 1 .4 1 1v5c0 .6-.4 1-1 1s-1-.4-1-1v-5c0-.6.4-1 1-1z"/><path class="st0" d="M190 17.5v4.4c-.1.4-.5.7-.9.7H171c-.5 0-.9-.3-.9-.8v-4.4c0-.5.4-.9.9-.9.3 0 .5.1.7.3.2.2.3.4.3.6v3.3h16.2v-3.3c0-.5.4-.9.9-.9.3 0 .5.1.7.3.1.2.2.4.2.7z"/><path class="st1" d="M172.3 8.6c0-.3.2-.5.4-.7s.5-.3.8-.3c3-.3 5.9-1.4 8.3-3.3.2-.2.5-.3.8-.3s.6.1.8.3c.1.1.2.2.2.4 0 .1.1.3 0 .4s-.1.3-.2.4l-.3.3c-2.7 2.1-6.1 3.4-9.5 3.8h-.5c-.2 0-.3-.1-.4-.2l-.3-.3c-.1-.2-.1-.4-.1-.5z"/><path class="st0" d="M204 15c.6 0 1 .4 1 1v3c0 .6-.4 1-1 1s-1-.4-1-1v-3c0-.6.4-1 1-1z"/><path class="st0" d="M214 17.5v4.4c-.1.4-.5.7-.9.7H195c-.5 0-.9-.3-.9-.8v-4.4c0-.5.4-.9.9-.9.3 0 .5.1.7.3.2.2.3.4.3.6v3.3h16.2v-3.3c0-.5.4-.9.9-.9.3 0 .5.1.7.3.1.2.2.4.2.7z"/><path class="st1" d="M197.2 9.7c.1-.3.3-.5.5-.6.3-.2.6-.2.8-.2 3 .3 6-.2 8.7-1.5.3-.1.6-.2.9-.1.3.1.5.2.7.4.1.1.1.3.1.4 0 .1 0 .3-.1.4-.1.1-.1.3-.2.4-.1.1-.2.2-.4.2-3.1 1.5-6.6 2.2-10.1 1.8-.2 0-.3 0-.5-.1-.1-.1-.3-.2-.4-.3-.1-.1-.2-.2-.2-.4.1-.1.1-.3.2-.4z"/><path class="st0" d="M228 17c.6 0 1 .4 1 1v1c0 .6-.4 1-1 1s-1-.4-1-1v-1c0-.6.4-1 1-1z"/><path class="st0" d="M238 17.5v4.4c-.1.4-.5.7-.9.7H219c-.5 0-.9-.3-.9-.8v-4.4c0-.5.4-.9.9-.9.3 0 .5.1.7.3.2.2.3.4.3.6v3.3h16.2v-3.3c0-.5.4-.9.9-.9.3 0 .5.1.7.3.1.2.2.4.2.7zm-3-3.5c0 .6-.4 1-1 1h-12c-.6 0-1-.4-1-1s.4-1 1-1h12c.6 0 1 .4 1 1z"/><path class="st1" d="M234.2 9.2c.1-.3 0-.5-.1-.8-.1-.2-.3-.4-.6-.5-2.6-.9-4.8-2.7-6.4-5-.1-.2-.4-.4-.6-.5-.3-.1-.5 0-.8.1l-.3.3c-.1.1-.1.3-.2.4v.4c0 .1.1.3.2.4 1.8 2.6 4.3 4.6 7.3 5.7.1.1.3.1.4.1.1 0 .3 0 .4-.1.1-.1.3-.1.4-.3.2 0 .3-.1.3-.2z"/><path class="st0" d="M252 18c.6 0 1 .4 1 1s-.4 1-1 1-1-.4-1-1 .4-1 1-1z"/><path class="st0" d="M262 17.5v4.4c-.1.4-.5.7-.9.7H243c-.5 0-.9-.3-.9-.8v-4.4c0-.5.4-.9.9-.9.3 0 .5.1.7.3.2.2.3.4.3.6v3.3h16.2v-3.3c0-.5.4-.9.9-.9.3 0 .5.1.7.3.1.2.2.4.2.7zm-3-2.1c0 .6-.4 1-1 1h-12c-.6 0-1-.4-1-1s.4-1 1-1h12c.6 0 1 .5 1 1z"/><path class="st1" d="M258.8 11c0-.3-.2-.5-.4-.7s-.5-.3-.8-.3c-3-.3-5.9-1.4-8.3-3.3-.2-.2-.5-.3-.8-.3s-.6.1-.8.3c-.1.1-.2.2-.2.4 0 .1-.1.3 0 .4s.1.3.2.4l.3.3c2.7 2.1 6.1 3.4 9.5 3.8h.5c.2 0 .3-.1.4-.2l.3-.3c.1-.2.2-.4.1-.5zm23.3 2.7c-.1-.3-.3-.5-.5-.6-.3-.2-.6-.2-.8-.2-3 .3-6-.2-8.7-1.5-.3-.1-.6-.2-.9-.1-.3.1-.5.2-.7.4-.1.1-.1.3-.1.4 0 .1 0 .3.1.4.1.1.1.3.2.4.1.1.2.2.4.2 3.1 1.5 6.6 2.2 10.1 1.8.2 0 .3 0 .5-.1.1-.1.3-.2.4-.3s.2-.2.2-.4c-.2-.1-.2-.3-.2-.4z"/><path class="st0" d="M286 17.5v4.4c-.1.4-.5.7-.9.7H267c-.5 0-.9-.3-.9-.8v-4.4c0-.5.4-.9.9-.9.3 0 .5.1.7.3.2.2.3.4.3.6v3.3h16.2v-3.3c0-.5.4-.9.9-.9.3 0 .5.1.7.3.1.2.2.4.2.7z"/><path class="st0" d="M283 18c0 .6-.4 1-1 1h-12c-.6 0-1-.4-1-1s.4-1 1-1h12c.6 0 1 .4 1 1zm27-.5v4.4c-.1.4-.5.7-.9.7H291c-.5 0-.9-.3-.9-.8v-4.4c0-.5.4-.9.9-.9.3 0 .5.1.7.3.2.2.3.4.3.6v3.3h16.2v-3.3c0-.5.4-.9.9-.9.3 0 .5.1.7.3.1.2.2.4.2.7z"/><path class="st0" d="M307 18c0 .6-.4 1-1 1h-12c-.6 0-1-.4-1-1s.4-1 1-1h12c.6 0 1 .4 1 1zm0-4c0 .6-.4 1-1 1h-12c-.6 0-1-.4-1-1s.4-1 1-1h12c.6 0 1 .4 1 1z"/><path class="st1" d="M317.4 9.2c-.1-.3 0-.5.1-.8.1-.2.3-.4.6-.5 2.6-.9 4.8-2.7 6.4-5 .1-.2.4-.4.6-.5.3-.1.5 0 .8.1l.3.3c.1.1.1.3.2.4v.4c0 .1-.1.3-.2.4-1.8 2.6-4.3 4.6-7.3 5.7-.1.1-.3.1-.4.1s-.3 0-.4-.1-.3-.1-.4-.3c-.1 0-.2-.1-.3-.2z"/><path class="st0" d="M334 17.5v4.4c-.1.4-.5.7-.9.7H315c-.5 0-.9-.3-.9-.8v-4.4c0-.5.4-.9.9-.9.3 0 .5.1.7.3.2.2.3.4.3.6v3.3h16.2v-3.3c0-.5.4-.9.9-.9.3 0 .5.1.7.3.1.2.2.4.2.7z"/><path class="st0" d="M331 18c0 .6-.4 1-1 1h-12c-.6 0-1-.4-1-1s.4-1 1-1h12c.6 0 1 .4 1 1zm0-4c0 .6-.4 1-1 1h-12c-.6 0-1-.4-1-1s.4-1 1-1h12c.6 0 1 .4 1 1zm27 3.5v4.4c-.1.4-.5.7-.9.7H339c-.5 0-.9-.3-.9-.8v-4.4c0-.5.4-.9.9-.9.3 0 .5.1.7.3.2.2.3.4.3.6v3.3h16.2v-3.3c0-.5.4-.9.9-.9.3 0 .5.1.7.3.1.2.2.4.2.7z"/><path class="st0" d="M355 18c0 .6-.4 1-1 1h-12c-.6 0-1-.4-1-1s.4-1 1-1h12c.6 0 1 .4 1 1zm0-4c0 .6-.4 1-1 1h-12c-.6 0-1-.4-1-1s.4-1 1-1h12c.6 0 1 .4 1 1z"/><path class="st1" d="M341.3 10c0-.3.2-.5.4-.7.2-.2.5-.3.8-.3 3-.3 5.9-1.4 8.3-3.3.2-.2.5-.3.8-.3s.6.1.8.3c.1.1.2.2.2.4 0 .1.1.3 0 .4 0 .1-.1.3-.2.4l-.3.3c-2.7 2.1-6.1 3.4-9.5 3.8h-.5c-.2 0-.3-.1-.4-.2l-.3-.3c-.1-.2-.1-.4-.1-.5z"/><path class="st0" d="M382 17.5v4.4c-.1.4-.5.7-.9.7H363c-.5 0-.9-.3-.9-.8v-4.4c0-.5.4-.9.9-.9.3 0 .5.1.7.3.2.2.3.4.3.6v3.3h16.2v-3.3c0-.5.4-.9.9-.9.3 0 .5.1.7.3.1.2.2.4.2.7z"/><path class="st0" d="M379 18c0 .6-.4 1-1 1h-12c-.6 0-1-.4-1-1s.4-1 1-1h12c.6 0 1 .4 1 1zm0-4c0 .6-.4 1-1 1h-12c-.6 0-1-.4-1-1s.4-1 1-1h12c.6 0 1 .4 1 1z"/><path class="st1" d="M365.2 9.7c.1-.3.3-.5.5-.6.3-.2.6-.2.8-.2 3 .3 6-.2 8.7-1.5.3-.1.6-.2.9-.1s.5.2.7.4c.1.1.1.3.1.4 0 .1 0 .3-.1.4-.1.1-.1.3-.2.4-.1.1-.2.2-.4.2-3.1 1.5-6.6 2.2-10.1 1.8-.2 0-.3 0-.5-.1-.1-.1-.3-.2-.4-.3s-.2-.2-.2-.4c.1-.1.1-.3.2-.4z"/><path class="st0" d="M406 17.5v4.4c-.1.4-.5.7-.9.7H387c-.5 0-.9-.3-.9-.8v-4.4c0-.5.4-.9.9-.9.3 0 .5.1.7.3.2.2.3.4.3.6v3.3h16.2v-3.3c0-.5.4-.9.9-.9.3 0 .5.1.7.3.1.2.2.4.2.7z"/><path class="st0" d="M403 18c0 .6-.4 1-1 1h-12c-.6 0-1-.4-1-1s.4-1 1-1h12c.6 0 1 .4 1 1zm0-4c0 .6-.4 1-1 1h-12c-.6 0-1-.4-1-1s.4-1 1-1h12c.6 0 1 .4 1 1zm0-4c0 .6-.4 1-1 1h-12c-.6 0-1-.4-1-1s.4-1 1-1h12c.6 0 1 .4 1 1z"/><path fill="none" d="M0 0h408v24H0z"/></svg>