<svg width="25" height="24" fill="none" xmlns="http://www.w3.org/2000/svg"><path d="M24.5 17.466v5.323c0 .106-.015.204-.038.295a1.141 1.141 0 01-1.11.916H1.641a1.138 1.138 0 01-1.127-1.015C.5 22.917.5 22.857.5 22.781V17.46c0-.629.514-1.136 1.133-1.136a1.136 1.136 0 011.134 1.136v4.262h19.474V17.46c0-.629.513-1.136 1.133-1.136.31 0 .597.129.801.333.197.212.325.5.325.81z" fill="#00A4A6"/><path d="M19.035 12.136l-5.57 5.58c-.007.015-.022.023-.03.03a1.312 1.312 0 01-.733.372c-.022 0-.045.007-.068.007-.045.008-.09.008-.136.008l-.128-.008c-.023 0-.045-.007-.068-.007a1.289 1.289 0 01-.733-.371l-.03-.03-5.57-5.58a1.325 1.325 0 01-.385-.94c0-.34.129-.68.385-.938a1.33 1.33 0 011.874 0l3.348 3.354V1.325A1.33 1.33 0 0112.513 0a1.313 1.313 0 011.323 1.325v12.288l3.347-3.354a1.33 1.33 0 011.875 0 1.358 1.358 0 01-.023 1.877z" fill="#00A4A6"/></svg>