<?xml version="1.0" encoding="UTF-8"?> <svg xmlns="http://www.w3.org/2000/svg" width="828" height="232" viewBox="0 0 828 232" fill="none"><rect width="828" height="232" fill="white"></rect><path d="M37.87 128H60.42V127.12H55.195V87.025L36.55 94.78V94.835L43.095 98.52V127.12H37.87V128ZM79.627 129.1C90.572 129.1 96.622 119.53 96.622 108.035C96.622 96.485 90.572 87.3 79.627 87.3C68.682 87.355 62.632 96.595 62.632 108.035C62.632 119.64 68.682 129.1 79.627 129.1ZM79.627 128C75.997 128 75.227 120.575 75.227 107.87C75.227 95.55 75.942 88.4 79.627 88.4C83.257 88.4 84.027 95.55 84.027 107.925C84.027 120.575 83.312 128 79.627 128ZM128.646 91.37L133.541 88.4H111.651L116.546 91.37V127.12H112.146V128H132.771V127.12H128.646V91.37ZM154.991 127.12L137.446 100.28L155.871 88.4H138.656L143.551 91.315L129.196 109.025L141.076 128H157.741V127.12H154.991Z" fill="#2B2B2B"></path><path d="M37.7578 146.191V160H40.2383V154.404H42.0742C44.9648 154.404 47.0352 152.949 47.0352 150.312C47.0352 147.705 44.9844 146.191 42.1914 146.191H37.7578ZM42.1035 152.119H40.2383V148.477H42.1035C43.7344 148.477 44.4766 149.17 44.4766 150.342C44.4766 151.514 43.7539 152.119 42.1035 152.119ZM57.9727 155.117C57.9727 152.305 55.9902 150.039 52.9727 150.039C49.9551 150.039 47.9727 152.305 47.9727 155.117C47.9727 157.93 49.9551 160.195 52.9727 160.195C55.9902 160.195 57.9727 157.93 57.9727 155.117ZM55.4922 155.117C55.4922 156.729 54.7695 158.105 52.9727 158.105C51.166 158.105 50.4531 156.729 50.4531 155.117C50.4531 153.506 51.1758 152.129 52.9727 152.129C54.7793 152.129 55.4922 153.506 55.4922 155.117ZM59.9258 164.043H62.3086V159.014C62.9824 159.854 64.0762 160.195 65.1016 160.195C67.7578 160.195 69.3301 158.027 69.3301 155.117C69.3301 152.178 67.7578 150.039 65.0625 150.039C64.0176 150.039 62.9824 150.381 62.3086 151.201V150.234H59.9258V164.043ZM64.4668 152.129C66.1074 152.129 66.8496 153.438 66.8496 155.117C66.8496 156.777 66.1074 158.105 64.4668 158.105C62.8262 158.105 62.1035 156.797 62.1035 155.117C62.1035 153.418 62.8262 152.129 64.4668 152.129ZM80.1406 160V150.234H77.7578V155.674C77.7578 157.334 76.9473 158.096 75.5898 158.096C74.4863 158.096 73.6953 157.324 73.6953 155.801V150.234H71.3125V156.094C71.3125 158.74 72.7285 160.195 74.877 160.195C75.9902 160.195 77.0254 159.707 77.7578 158.857V160H80.1406ZM82.875 160H85.2578V146.191H82.875V160ZM87.1621 157.178C87.1621 159.053 88.4219 160.195 90.5605 160.195C91.957 160.195 92.9922 159.648 93.7441 158.604L93.9004 160H95.8633V154.014C95.8633 151.611 94.3594 150.039 91.7324 150.039C89.9551 150.039 88.627 150.713 87.543 152.178L89.3691 153.496C89.877 152.627 90.6875 152.119 91.6543 152.119C92.8066 152.119 93.5879 152.832 93.5879 154.18H91.0488C88.5488 154.18 87.1621 155.293 87.1621 157.178ZM91.0488 158.184C90.1016 158.184 89.6035 157.734 89.6035 157.07C89.6035 156.377 90.1406 155.898 91.2246 155.898H93.5879C93.5879 157.119 92.4355 158.184 91.0488 158.184ZM101.879 160.195C102.553 160.195 103.275 160.039 103.637 159.902V157.744C103.314 157.9 102.777 158.096 102.279 158.096C101.654 158.096 101.176 157.822 101.176 156.885V152.188H103.637V150.234H101.176V146.201H98.8516V150.234H97.2402V152.188H98.8125V157.305C98.8125 159.082 99.9551 160.195 101.879 160.195ZM106.889 148.691C107.641 148.691 108.236 148.096 108.236 147.344C108.236 146.611 107.641 145.996 106.889 145.996C106.137 145.996 105.541 146.611 105.541 147.344C105.541 148.096 106.137 148.691 106.889 148.691ZM105.688 150.234V160H108.07V150.234H105.688ZM120.023 155.117C120.023 152.305 118.041 150.039 115.023 150.039C112.006 150.039 110.023 152.305 110.023 155.117C110.023 157.93 112.006 160.195 115.023 160.195C118.041 160.195 120.023 157.93 120.023 155.117ZM117.543 155.117C117.543 156.729 116.82 158.105 115.023 158.105C113.217 158.105 112.504 156.729 112.504 155.117C112.504 153.506 113.227 152.129 115.023 152.129C116.83 152.129 117.543 153.506 117.543 155.117ZM121.977 150.234V160H124.359V154.561C124.359 152.9 125.17 152.139 126.527 152.139C127.631 152.139 128.422 152.91 128.422 154.434V160H130.805V154.141C130.805 151.494 129.389 150.039 127.24 150.039C126.127 150.039 125.092 150.527 124.359 151.377V150.234H121.977ZM39.3398 173.047C39.3398 169.092 40.4629 166.455 41.9668 164.639H39.8281C38.3828 166.475 37.4648 169.16 37.4648 173.096C37.4648 177.031 38.3828 179.717 39.8281 181.553H41.9668C40.4531 179.727 39.3398 177.051 39.3398 173.047ZM49.2227 180.195C52.9238 180.195 54.5254 177.988 54.5254 174.512V166.191H52.0449V174.336C52.0449 176.602 51.4785 177.861 49.252 177.861C47.0352 177.861 46.4395 176.602 46.4395 174.336V166.191H43.9688V174.629C43.9688 178.008 45.5215 180.195 49.2227 180.195ZM58.9004 180.195C59.7207 180.195 60.3652 179.531 60.3652 178.73C60.3652 177.91 59.7012 177.295 58.9004 177.295C58.0996 177.295 57.4648 177.93 57.4648 178.73C57.4648 179.531 58.0801 180.195 58.9004 180.195ZM67.3965 180.195C70.3066 180.195 72.2207 178.545 72.2207 176.191C72.2207 171.455 65.5605 172.441 65.5605 169.639C65.5605 168.75 66.3027 168.145 67.3672 168.145C68.4219 168.145 69.0762 168.672 69.5254 169.678L71.8203 169.072C71.0879 167.09 69.5059 165.996 67.416 165.996C64.877 165.996 63.0996 167.549 63.0996 169.805C63.0996 174.609 69.7793 173.643 69.7793 176.455C69.7793 177.393 69.0371 178.047 67.5039 178.047C66.0293 178.047 64.8867 177.266 64.6426 175.518L62.1816 176.143C62.6016 178.594 64.5645 180.195 67.3965 180.195ZM75.6973 180.195C76.5176 180.195 77.1621 179.531 77.1621 178.73C77.1621 177.91 76.498 177.295 75.6973 177.295C74.8965 177.295 74.2617 177.93 74.2617 178.73C74.2617 179.531 74.877 180.195 75.6973 180.195ZM90.9805 180.195C94.0664 180.195 96.0195 178.877 97.1035 176.221L94.8086 175.283C94.0664 177.109 92.8848 177.852 91.0293 177.852C88.5195 177.852 86.8984 176.221 86.8984 173.037C86.8984 170.059 88.4805 168.34 91.0293 168.34C93.0312 168.34 94.1836 169.238 94.7695 170.879L97.084 169.961C95.9902 167.334 94.0469 165.996 91.0293 165.996C86.9375 165.996 84.3203 168.779 84.3203 173.135C84.3203 177.588 87.0352 180.195 90.9805 180.195ZM103.217 180.195C104.857 180.195 106.156 179.619 107.221 178.438L105.58 177.002C104.887 177.773 104.164 178.076 103.266 178.076C101.967 178.076 101.029 177.422 100.795 175.898H107.494C107.553 175.615 107.582 175.332 107.582 174.961C107.582 172.783 106.479 170.039 103.061 170.039C100.189 170.039 98.2754 172.119 98.2754 175.156C98.2754 178.164 100.102 180.195 103.217 180.195ZM103.041 172.041C104.311 172.041 105.121 172.852 105.238 174.18H100.805C101.029 172.715 101.859 172.041 103.041 172.041ZM109.535 170.234V180H111.918V174.561C111.918 172.9 112.729 172.139 114.086 172.139C115.189 172.139 115.98 172.91 115.98 174.434V180H118.363V174.141C118.363 171.494 116.947 170.039 114.799 170.039C113.686 170.039 112.65 170.527 111.918 171.377V170.234H109.535ZM124.203 180.195C126.117 180.195 127.992 179.209 127.992 176.973C127.992 173.35 122.758 174.424 122.758 172.754C122.758 172.275 123.188 171.924 124.027 171.924C125.082 171.924 125.658 172.52 125.971 173.096L127.836 172.051C127.123 170.762 125.854 170.039 124.018 170.039C121.85 170.039 120.473 171.211 120.473 172.93C120.473 176.709 125.648 175.469 125.648 177.256C125.648 177.822 125.141 178.223 124.125 178.223C123.197 178.223 122.387 177.773 121.85 176.719L120.023 177.842C120.697 179.404 122.035 180.195 124.203 180.195ZM138.734 180V170.234H136.352V175.674C136.352 177.334 135.541 178.096 134.184 178.096C133.08 178.096 132.289 177.324 132.289 175.801V170.234H129.906V176.094C129.906 178.74 131.322 180.195 133.471 180.195C134.584 180.195 135.619 179.707 136.352 178.857V180H138.734ZM144.672 180.195C146.586 180.195 148.461 179.209 148.461 176.973C148.461 173.35 143.227 174.424 143.227 172.754C143.227 172.275 143.656 171.924 144.496 171.924C145.551 171.924 146.127 172.52 146.439 173.096L148.305 172.051C147.592 170.762 146.322 170.039 144.486 170.039C142.318 170.039 140.941 171.211 140.941 172.93C140.941 176.709 146.117 175.469 146.117 177.256C146.117 177.822 145.609 178.223 144.594 178.223C143.666 178.223 142.855 177.773 142.318 176.719L140.492 177.842C141.166 179.404 142.504 180.195 144.672 180.195ZM155.707 166.191V180H160.902C163.832 180 165.59 178.34 165.59 175.928C165.59 174.414 164.799 173.232 163.471 172.598C164.457 171.914 164.906 171.035 164.906 169.766C164.906 167.607 163.197 166.191 160.531 166.191H155.707ZM160.707 171.768H158.188V168.408H160.492C161.869 168.408 162.611 169.131 162.611 170.078C162.611 171.23 161.928 171.768 160.707 171.768ZM161.078 177.773H158.188V173.896H160.961C162.309 173.896 163.139 174.639 163.139 175.82C163.139 177.129 162.396 177.773 161.078 177.773ZM176.488 180V170.234H174.105V175.674C174.105 177.334 173.295 178.096 171.938 178.096C170.834 178.096 170.043 177.324 170.043 175.801V170.234H167.66V176.094C167.66 178.74 169.076 180.195 171.225 180.195C172.338 180.195 173.373 179.707 174.105 178.857V180H176.488ZM179.223 170.234V180H181.527V175.879C181.527 173.857 182.592 172.363 184.223 172.363C184.73 172.363 185.023 172.451 185.248 172.539V170.176C185.033 170.107 184.682 170.039 184.164 170.039C183.031 170.039 182.074 170.742 181.547 171.992V170.234H179.223ZM191.225 180.195C192.865 180.195 194.164 179.619 195.229 178.438L193.588 177.002C192.895 177.773 192.172 178.076 191.273 178.076C189.975 178.076 189.037 177.422 188.803 175.898H195.502C195.561 175.615 195.59 175.332 195.59 174.961C195.59 172.783 194.486 170.039 191.068 170.039C188.197 170.039 186.283 172.119 186.283 175.156C186.283 178.164 188.109 180.195 191.225 180.195ZM191.049 172.041C192.318 172.041 193.129 172.852 193.246 174.18H188.812C189.037 172.715 189.867 172.041 191.049 172.041ZM196.713 177.178C196.713 179.053 197.973 180.195 200.111 180.195C201.508 180.195 202.543 179.648 203.295 178.604L203.451 180H205.414V174.014C205.414 171.611 203.91 170.039 201.283 170.039C199.506 170.039 198.178 170.713 197.094 172.178L198.92 173.496C199.428 172.627 200.238 172.119 201.205 172.119C202.357 172.119 203.139 172.832 203.139 174.18H200.6C198.1 174.18 196.713 175.293 196.713 177.178ZM200.6 178.184C199.652 178.184 199.154 177.734 199.154 177.07C199.154 176.377 199.691 175.898 200.775 175.898H203.139C203.139 177.119 201.986 178.184 200.6 178.184ZM216.605 180V170.234H214.223V175.674C214.223 177.334 213.412 178.096 212.055 178.096C210.951 178.096 210.16 177.324 210.16 175.801V170.234H207.777V176.094C207.777 178.74 209.193 180.195 211.342 180.195C212.455 180.195 213.49 179.707 214.223 178.857V180H216.605ZM221.186 173.145C221.186 177.1 220.062 179.736 218.559 181.553H220.697C222.143 179.717 223.061 177.031 223.061 173.096C223.061 169.16 222.143 166.475 220.697 164.639H218.559C220.072 166.465 221.186 169.141 221.186 173.145Z" fill="#06757A"></path><path d="M345.87 128H368.42V127.12H363.195V87.025L344.55 94.78V94.835L351.095 98.52V127.12H345.87V128ZM393.402 105.12L389.497 102.315C394.942 102.04 398.682 99.675 398.682 95.44C398.682 91.04 393.402 87.3 386.142 87.3C377.947 87.3 372.447 92.195 372.392 98.465C372.337 102.865 374.152 105.835 379.762 110.07C373.932 110.565 370.137 114.085 370.137 118.65C370.137 125.25 376.572 129.1 385.262 129.1C393.622 129.1 400.497 123.215 400.497 116.01C400.497 111.94 398.352 108.64 393.402 105.12ZM385.207 88.455C388.177 88.455 390.377 90.93 390.377 95.22C390.377 97.805 389.937 99.95 388.947 101.93L384.877 99.015C382.237 97.145 380.752 95.11 380.752 92.965C380.752 90.215 382.622 88.455 385.207 88.455ZM386.142 127.945C381.907 127.945 379.102 124.535 379.102 117.165C379.102 114.635 379.487 112.655 380.367 110.51C380.862 110.895 381.357 111.225 381.907 111.61L385.812 114.305C389.112 116.615 391.257 119.035 391.257 122.17C391.257 125.47 389.222 127.945 386.142 127.945ZM409.153 128.825C412.343 128.825 414.433 126.79 414.433 123.49C414.433 120.19 412.343 118.155 409.153 118.155C405.963 118.155 403.873 120.19 403.873 123.49C403.873 126.79 405.963 128.825 409.153 128.825ZM417.95 128H440.5V127.12H435.275V87.025L416.63 94.78V94.835L423.175 98.52V127.12H417.95V128ZM442.657 128H465.207V127.12H459.982V87.025L441.337 94.78V94.835L447.882 98.52V127.12H442.657V128Z" fill="#2B2B2B"></path><path d="M344.117 146.191L349.664 160H351.5L356.979 146.191H354.283L350.621 156.025L346.861 146.191H344.117ZM361.939 160.195C363.58 160.195 364.879 159.619 365.943 158.438L364.303 157.002C363.609 157.773 362.887 158.076 361.988 158.076C360.689 158.076 359.752 157.422 359.518 155.898H366.217C366.275 155.615 366.305 155.332 366.305 154.961C366.305 152.783 365.201 150.039 361.783 150.039C358.912 150.039 356.998 152.119 356.998 155.156C356.998 158.164 358.824 160.195 361.939 160.195ZM361.764 152.041C363.033 152.041 363.844 152.852 363.961 154.18H359.527C359.752 152.715 360.582 152.041 361.764 152.041ZM368.258 150.234V160H370.641V154.561C370.641 152.9 371.451 152.139 372.809 152.139C373.912 152.139 374.703 152.91 374.703 154.434V160H377.086V154.141C377.086 151.494 375.67 150.039 373.521 150.039C372.408 150.039 371.373 150.527 370.641 151.377V150.234H368.258ZM383.238 160.195C383.912 160.195 384.635 160.039 384.996 159.902V157.744C384.674 157.9 384.137 158.096 383.639 158.096C383.014 158.096 382.535 157.822 382.535 156.885V152.188H384.996V150.234H382.535V146.201H380.211V150.234H378.6V152.188H380.172V157.305C380.172 159.082 381.314 160.195 383.238 160.195ZM395.836 160V150.234H393.453V155.674C393.453 157.334 392.643 158.096 391.285 158.096C390.182 158.096 389.391 157.324 389.391 155.801V150.234H387.008V156.094C387.008 158.74 388.424 160.195 390.572 160.195C391.686 160.195 392.721 159.707 393.453 158.857V160H395.836ZM398.57 150.234V160H400.875V155.879C400.875 153.857 401.939 152.363 403.57 152.363C404.078 152.363 404.371 152.451 404.596 152.539V150.176C404.381 150.107 404.029 150.039 403.512 150.039C402.379 150.039 401.422 150.742 400.895 151.992V150.234H398.57ZM410.572 160.195C412.213 160.195 413.512 159.619 414.576 158.438L412.936 157.002C412.242 157.773 411.52 158.076 410.621 158.076C409.322 158.076 408.385 157.422 408.15 155.898H414.85C414.908 155.615 414.938 155.332 414.938 154.961C414.938 152.783 413.834 150.039 410.416 150.039C407.545 150.039 405.631 152.119 405.631 155.156C405.631 158.164 407.457 160.195 410.572 160.195ZM410.396 152.041C411.666 152.041 412.477 152.852 412.594 154.18H408.16C408.385 152.715 409.215 152.041 410.396 152.041ZM430.465 146.191H428.082V151.221C427.408 150.381 426.314 150.039 425.289 150.039C422.633 150.039 421.061 152.207 421.061 155.117C421.061 158.057 422.633 160.195 425.328 160.195C426.373 160.195 427.408 159.854 428.082 159.033V160H430.465V146.191ZM425.924 158.105C424.283 158.105 423.541 156.797 423.541 155.117C423.541 153.457 424.283 152.129 425.924 152.129C427.564 152.129 428.287 153.438 428.287 155.117C428.287 156.816 427.564 158.105 425.924 158.105ZM437.428 160.195C439.068 160.195 440.367 159.619 441.432 158.438L439.791 157.002C439.098 157.773 438.375 158.076 437.477 158.076C436.178 158.076 435.24 157.422 435.006 155.898H441.705C441.764 155.615 441.793 155.332 441.793 154.961C441.793 152.783 440.689 150.039 437.271 150.039C434.4 150.039 432.486 152.119 432.486 155.156C432.486 158.164 434.312 160.195 437.428 160.195ZM437.252 152.041C438.521 152.041 439.332 152.852 439.449 154.18H435.016C435.24 152.715 436.07 152.041 437.252 152.041ZM443.746 150.234V160H446.129V154.561C446.129 152.9 446.939 152.139 448.297 152.139C449.4 152.139 450.191 152.91 450.191 154.434V160H452.574V154.141C452.574 151.494 451.158 150.039 449.01 150.039C447.896 150.039 446.861 150.527 446.129 151.377V150.234H443.746ZM458.414 160.195C460.328 160.195 462.203 159.209 462.203 156.973C462.203 153.35 456.969 154.424 456.969 152.754C456.969 152.275 457.398 151.924 458.238 151.924C459.293 151.924 459.869 152.52 460.182 153.096L462.047 152.051C461.334 150.762 460.064 150.039 458.229 150.039C456.061 150.039 454.684 151.211 454.684 152.93C454.684 156.709 459.859 155.469 459.859 157.256C459.859 157.822 459.352 158.223 458.336 158.223C457.408 158.223 456.598 157.773 456.061 156.719L454.234 157.842C454.908 159.404 456.246 160.195 458.414 160.195ZM465.455 148.691C466.207 148.691 466.803 148.096 466.803 147.344C466.803 146.611 466.207 145.996 465.455 145.996C464.703 145.996 464.107 146.611 464.107 147.344C464.107 148.096 464.703 148.691 465.455 148.691ZM464.254 150.234V160H466.637V150.234H464.254ZM472.887 160.195C473.561 160.195 474.283 160.039 474.645 159.902V157.744C474.322 157.9 473.785 158.096 473.287 158.096C472.662 158.096 472.184 157.822 472.184 156.885V152.188H474.645V150.234H472.184V146.201H469.859V150.234H468.248V152.188H469.82V157.305C469.82 159.082 470.963 160.195 472.887 160.195ZM477.438 164.189H480.025L485.602 150.234H483.092L480.504 156.777L478.131 150.234H475.406L479.264 159.805L477.438 164.189ZM345.367 184.043H347.75V179.014C348.424 179.854 349.518 180.195 350.543 180.195C353.199 180.195 354.771 178.027 354.771 175.117C354.771 172.178 353.199 170.039 350.504 170.039C349.459 170.039 348.424 170.381 347.75 171.201V170.234H345.367V184.043ZM349.908 172.129C351.549 172.129 352.291 173.438 352.291 175.117C352.291 176.777 351.549 178.105 349.908 178.105C348.268 178.105 347.545 176.797 347.545 175.117C347.545 173.418 348.268 172.129 349.908 172.129ZM361.1 180.195C362.74 180.195 364.039 179.619 365.104 178.438L363.463 177.002C362.77 177.773 362.047 178.076 361.148 178.076C359.85 178.076 358.912 177.422 358.678 175.898H365.377C365.436 175.615 365.465 175.332 365.465 174.961C365.465 172.783 364.361 170.039 360.943 170.039C358.072 170.039 356.158 172.119 356.158 175.156C356.158 178.164 357.984 180.195 361.1 180.195ZM360.924 172.041C362.193 172.041 363.004 172.852 363.121 174.18H358.688C358.912 172.715 359.742 172.041 360.924 172.041ZM367.418 170.234V180H369.723V175.879C369.723 173.857 370.787 172.363 372.418 172.363C372.926 172.363 373.219 172.451 373.443 172.539V170.176C373.229 170.107 372.877 170.039 372.359 170.039C371.227 170.039 370.27 170.742 369.742 171.992V170.234H367.418ZM382.34 169.941V180H384.781V166.201H382.438C382.438 167.432 381.334 168.057 379.664 168.057V169.941H382.34ZM392.301 180.195C396.002 180.195 397.74 176.543 397.74 173.115C397.74 169.678 395.963 165.977 392.164 165.977C387.984 165.977 386.705 170.156 386.705 173.096C386.705 176.016 388.023 180.195 392.301 180.195ZM392.242 177.861C390.006 177.861 389.146 175.303 389.146 173.096C389.146 170.879 390.006 168.359 392.164 168.359C394.322 168.359 395.182 170.859 395.182 173.076C395.182 175.244 394.342 177.861 392.242 177.861ZM403.902 180.195C407.604 180.195 409.342 176.543 409.342 173.115C409.342 169.678 407.564 165.977 403.766 165.977C399.586 165.977 398.307 170.156 398.307 173.096C398.307 176.016 399.625 180.195 403.902 180.195ZM403.844 177.861C401.607 177.861 400.748 175.303 400.748 173.096C400.748 170.879 401.607 168.359 403.766 168.359C405.924 168.359 406.783 170.859 406.783 173.076C406.783 175.244 405.943 177.861 403.844 177.861ZM415.777 184.043H418.16V179.014C418.834 179.854 419.928 180.195 420.953 180.195C423.609 180.195 425.182 178.027 425.182 175.117C425.182 172.178 423.609 170.039 420.914 170.039C419.869 170.039 418.834 170.381 418.16 171.201V170.234H415.777V184.043ZM420.318 172.129C421.959 172.129 422.701 173.438 422.701 175.117C422.701 176.777 421.959 178.105 420.318 178.105C418.678 178.105 417.955 176.797 417.955 175.117C417.955 173.418 418.678 172.129 420.318 172.129ZM431.51 180.195C433.15 180.195 434.449 179.619 435.514 178.438L433.873 177.002C433.18 177.773 432.457 178.076 431.559 178.076C430.26 178.076 429.322 177.422 429.088 175.898H435.787C435.846 175.615 435.875 175.332 435.875 174.961C435.875 172.783 434.771 170.039 431.354 170.039C428.482 170.039 426.568 172.119 426.568 175.156C426.568 178.164 428.395 180.195 431.51 180.195ZM431.334 172.041C432.604 172.041 433.414 172.852 433.531 174.18H429.098C429.322 172.715 430.152 172.041 431.334 172.041ZM447.047 175.117C447.047 172.305 445.064 170.039 442.047 170.039C439.029 170.039 437.047 172.305 437.047 175.117C437.047 177.93 439.029 180.195 442.047 180.195C445.064 180.195 447.047 177.93 447.047 175.117ZM444.566 175.117C444.566 176.729 443.844 178.105 442.047 178.105C440.24 178.105 439.527 176.729 439.527 175.117C439.527 173.506 440.25 172.129 442.047 172.129C443.854 172.129 444.566 173.506 444.566 175.117ZM449 184.043H451.383V179.014C452.057 179.854 453.15 180.195 454.176 180.195C456.832 180.195 458.404 178.027 458.404 175.117C458.404 172.178 456.832 170.039 454.137 170.039C453.092 170.039 452.057 170.381 451.383 171.201V170.234H449V184.043ZM453.541 172.129C455.182 172.129 455.924 173.438 455.924 175.117C455.924 176.777 455.182 178.105 453.541 178.105C451.9 178.105 451.178 176.797 451.178 175.117C451.178 173.418 451.9 172.129 453.541 172.129ZM460.504 180H462.887V166.191H460.504V180ZM469.85 180.195C471.49 180.195 472.789 179.619 473.854 178.438L472.213 177.002C471.52 177.773 470.797 178.076 469.898 178.076C468.6 178.076 467.662 177.422 467.428 175.898H474.127C474.186 175.615 474.215 175.332 474.215 174.961C474.215 172.783 473.111 170.039 469.693 170.039C466.822 170.039 464.908 172.119 464.908 175.156C464.908 178.164 466.734 180.195 469.85 180.195ZM469.674 172.041C470.943 172.041 471.754 172.852 471.871 174.18H467.438C467.662 172.715 468.492 172.041 469.674 172.041ZM347.34 193.047C347.34 189.092 348.463 186.455 349.967 184.639H347.828C346.383 186.475 345.465 189.16 345.465 193.096C345.465 197.031 346.383 199.717 347.828 201.553H349.967C348.453 199.727 347.34 197.051 347.34 193.047ZM356.139 200.195C359.4 200.195 361.354 198.389 361.354 195.752C361.354 194.092 360.738 193.018 359.381 192.373C360.25 191.67 360.602 190.869 360.602 189.697C360.602 187.578 358.854 185.996 356.158 185.996C353.775 185.996 351.725 187.529 351.725 190.234H354.059C354.078 188.945 354.918 188.164 356.178 188.164C357.35 188.164 358.18 188.74 358.18 189.941C358.18 191.094 357.613 191.641 356.363 191.641H354.967V193.721H356.314C357.975 193.721 358.814 194.492 358.814 195.781C358.814 197.285 357.633 197.988 356.207 197.988C354.557 197.988 353.551 197.158 353.551 195.645H351.109C351.109 198.701 353.424 200.195 356.139 200.195ZM365.064 200.195C365.885 200.195 366.529 199.531 366.529 198.73C366.529 197.91 365.865 197.295 365.064 197.295C364.264 197.295 363.629 197.93 363.629 198.73C363.629 199.531 364.244 200.195 365.064 200.195ZM371.09 199.99H373.922L377.535 194.053C378.512 192.461 378.805 191.67 378.805 190.723C378.805 188.086 376.588 185.996 373.785 185.996C370.865 185.996 368.746 188.271 368.746 190.83C368.746 193.652 370.855 195.449 373.688 195.449H374.068L371.09 199.99ZM373.766 193.311C372.35 193.311 371.168 192.188 371.168 190.811C371.168 189.434 372.35 188.311 373.766 188.311C375.201 188.311 376.383 189.434 376.383 190.811C376.383 192.188 375.201 193.311 373.766 193.311ZM385.777 190.234V200H388.16V194.561C388.16 192.9 388.971 192.139 390.328 192.139C391.432 192.139 392.223 192.91 392.223 194.434V200H394.605V194.141C394.605 191.494 393.189 190.039 391.041 190.039C389.928 190.039 388.893 190.527 388.16 191.377V190.234H385.777ZM396.412 197.178C396.412 199.053 397.672 200.195 399.811 200.195C401.207 200.195 402.242 199.648 402.994 198.604L403.15 200H405.113V194.014C405.113 191.611 403.609 190.039 400.982 190.039C399.205 190.039 397.877 190.713 396.793 192.178L398.619 193.496C399.127 192.627 399.938 192.119 400.904 192.119C402.057 192.119 402.838 192.832 402.838 194.18H400.299C397.799 194.18 396.412 195.293 396.412 197.178ZM400.299 198.184C399.352 198.184 398.854 197.734 398.854 197.07C398.854 196.377 399.391 195.898 400.475 195.898H402.838C402.838 197.119 401.686 198.184 400.299 198.184ZM411.129 200.195C411.803 200.195 412.525 200.039 412.887 199.902V197.744C412.564 197.9 412.027 198.096 411.529 198.096C410.904 198.096 410.426 197.822 410.426 196.885V192.188H412.887V190.234H410.426V186.201H408.102V190.234H406.49V192.188H408.062V197.305C408.062 199.082 409.205 200.195 411.129 200.195ZM416.139 188.691C416.891 188.691 417.486 188.096 417.486 187.344C417.486 186.611 416.891 185.996 416.139 185.996C415.387 185.996 414.791 186.611 414.791 187.344C414.791 188.096 415.387 188.691 416.139 188.691ZM414.938 190.234V200H417.32V190.234H414.938ZM429.273 195.117C429.273 192.305 427.291 190.039 424.273 190.039C421.256 190.039 419.273 192.305 419.273 195.117C419.273 197.93 421.256 200.195 424.273 200.195C427.291 200.195 429.273 197.93 429.273 195.117ZM426.793 195.117C426.793 196.729 426.07 198.105 424.273 198.105C422.467 198.105 421.754 196.729 421.754 195.117C421.754 193.506 422.477 192.129 424.273 192.129C426.08 192.129 426.793 193.506 426.793 195.117ZM431.227 190.234V200H433.609V194.561C433.609 192.9 434.42 192.139 435.777 192.139C436.881 192.139 437.672 192.91 437.672 194.434V200H440.055V194.141C440.055 191.494 438.639 190.039 436.49 190.039C435.377 190.039 434.342 190.527 433.609 191.377V190.234H431.227ZM441.861 197.178C441.861 199.053 443.121 200.195 445.26 200.195C446.656 200.195 447.691 199.648 448.443 198.604L448.6 200H450.562V194.014C450.562 191.611 449.059 190.039 446.432 190.039C444.654 190.039 443.326 190.713 442.242 192.178L444.068 193.496C444.576 192.627 445.387 192.119 446.354 192.119C447.506 192.119 448.287 192.832 448.287 194.18H445.748C443.248 194.18 441.861 195.293 441.861 197.178ZM445.748 198.184C444.801 198.184 444.303 197.734 444.303 197.07C444.303 196.377 444.84 195.898 445.924 195.898H448.287C448.287 197.119 447.135 198.184 445.748 198.184ZM453.102 200H455.484V186.191H453.102V200ZM462.193 197.178C462.193 199.053 463.453 200.195 465.592 200.195C466.988 200.195 468.023 199.648 468.775 198.604L468.932 200H470.895V194.014C470.895 191.611 469.391 190.039 466.764 190.039C464.986 190.039 463.658 190.713 462.574 192.178L464.4 193.496C464.908 192.627 465.719 192.119 466.686 192.119C467.838 192.119 468.619 192.832 468.619 194.18H466.08C463.58 194.18 462.193 195.293 462.193 197.178ZM466.08 198.184C465.133 198.184 464.635 197.734 464.635 197.07C464.635 196.377 465.172 195.898 466.256 195.898H468.619C468.619 197.119 467.467 198.184 466.08 198.184ZM471.92 190.234L475.895 200H477.857L481.842 190.234H479.254L476.881 196.924L474.518 190.234H471.92ZM489.547 199.961C489.547 201.484 488.756 202.158 487.379 202.158C486.061 202.158 485.201 201.504 484.82 200.82L482.994 202.139C483.854 203.34 485.172 204.238 487.34 204.238C490.24 204.238 491.92 202.617 491.92 199.961L491.93 190.234H489.547V191.221C488.873 190.381 487.779 190.039 486.754 190.039C484.098 190.039 482.525 192.168 482.525 195.02C482.525 197.9 484.098 200 486.793 200C487.838 200 488.873 199.658 489.547 198.838V199.961ZM487.389 197.91C485.748 197.91 485.006 196.641 485.006 195.02C485.006 193.418 485.748 192.129 487.389 192.129C489.029 192.129 489.752 193.398 489.752 195.02C489.752 196.66 489.029 197.91 487.389 197.91ZM496.139 200.195C496.959 200.195 497.604 199.531 497.604 198.73C497.604 197.91 496.939 197.295 496.139 197.295C495.338 197.295 494.703 197.93 494.703 198.73C494.703 199.531 495.318 200.195 496.139 200.195ZM502.291 193.145C502.291 197.1 501.168 199.736 499.664 201.553H501.803C503.248 199.717 504.166 197.031 504.166 193.096C504.166 189.16 503.248 186.475 501.803 184.639H499.664C501.178 186.465 502.291 189.141 502.291 193.145Z" fill="#06757A"></path><path d="M667.695 105.12L663.79 102.315C669.235 102.04 672.975 99.675 672.975 95.44C672.975 91.04 667.695 87.3 660.435 87.3C652.24 87.3 646.74 92.195 646.685 98.465C646.63 102.865 648.445 105.835 654.055 110.07C648.225 110.565 644.43 114.085 644.43 118.65C644.43 125.25 650.865 129.1 659.555 129.1C667.915 129.1 674.79 123.215 674.79 116.01C674.79 111.94 672.645 108.64 667.695 105.12ZM659.5 88.455C662.47 88.455 664.67 90.93 664.67 95.22C664.67 97.805 664.23 99.95 663.24 101.93L659.17 99.015C656.53 97.145 655.045 95.11 655.045 92.965C655.045 90.215 656.915 88.455 659.5 88.455ZM660.435 127.945C656.2 127.945 653.395 124.535 653.395 117.165C653.395 114.635 653.78 112.655 654.66 110.51C655.155 110.895 655.65 111.225 656.2 111.61L660.105 114.305C663.405 116.615 665.55 119.035 665.55 122.17C665.55 125.47 663.515 127.945 660.435 127.945ZM683.446 128.825C686.636 128.825 688.726 126.79 688.726 123.49C688.726 120.19 686.636 118.155 683.446 118.155C680.256 118.155 678.166 120.19 678.166 123.49C678.166 126.79 680.256 128.825 683.446 128.825ZM709.293 129.1C720.238 129.1 726.288 119.53 726.288 108.035C726.288 96.485 720.238 87.3 709.293 87.3C698.348 87.355 692.298 96.595 692.298 108.035C692.298 119.64 698.348 129.1 709.293 129.1ZM709.293 128C705.663 128 704.893 120.575 704.893 107.87C704.893 95.55 705.608 88.4 709.293 88.4C712.923 88.4 713.693 95.55 713.693 107.925C713.693 120.575 712.978 128 709.293 128ZM744.82 106.935C751.86 105.78 756.81 101.765 756.81 96.65C756.81 91.205 751.255 87.3 741.96 87.3C736.9 87.3 732.5 88.455 728.155 90.875L733.05 102.755H733.105L738.825 88.51C739.155 88.4 739.65 88.345 740.09 88.345C742.62 88.345 744.16 91.48 744.16 96.65C744.16 103.8 741.85 107.1 735.965 107.1V107.65C742.455 107.65 746.25 112.215 746.25 117.99C746.25 124.425 743.335 128.055 740.145 128.055C739.65 128.055 739.32 128 738.935 127.89L731.51 113.48H731.455L728.925 126.68C732.555 128.33 736.46 129.1 740.64 129.1C752.355 129.1 758.9 124.37 758.9 116.945C758.9 111.5 753.18 107.43 744.82 106.935Z" fill="#2B2B2B"></path><path d="M650.539 160.195C653.625 160.195 655.578 158.877 656.662 156.221L654.367 155.283C653.625 157.109 652.443 157.852 650.588 157.852C648.078 157.852 646.457 156.221 646.457 153.037C646.457 150.059 648.039 148.34 650.588 148.34C652.59 148.34 653.742 149.238 654.328 150.879L656.643 149.961C655.549 147.334 653.605 145.996 650.588 145.996C646.496 145.996 643.879 148.779 643.879 153.135C643.879 157.588 646.594 160.195 650.539 160.195ZM659.748 148.691C660.5 148.691 661.096 148.096 661.096 147.344C661.096 146.611 660.5 145.996 659.748 145.996C658.996 145.996 658.4 146.611 658.4 147.344C658.4 148.096 658.996 148.691 659.748 148.691ZM658.547 150.234V160H660.93V150.234H658.547ZM667.18 160.195C667.854 160.195 668.576 160.039 668.938 159.902V157.744C668.615 157.9 668.078 158.096 667.58 158.096C666.955 158.096 666.477 157.822 666.477 156.885V152.188H668.938V150.234H666.477V146.201H664.152V150.234H662.541V152.188H664.113V157.305C664.113 159.082 665.256 160.195 667.18 160.195ZM671.73 164.189H674.318L679.895 150.234H677.385L674.797 156.777L672.424 150.234H669.699L673.557 159.805L671.73 164.189ZM686.027 150.234V160H688.332V155.879C688.332 153.857 689.396 152.363 691.027 152.363C691.535 152.363 691.828 152.451 692.053 152.539V150.176C691.838 150.107 691.486 150.039 690.969 150.039C689.836 150.039 688.879 150.742 688.352 151.992V150.234H686.027ZM698.029 160.195C699.67 160.195 700.969 159.619 702.033 158.438L700.393 157.002C699.699 157.773 698.977 158.076 698.078 158.076C696.779 158.076 695.842 157.422 695.607 155.898H702.307C702.365 155.615 702.395 155.332 702.395 154.961C702.395 152.783 701.291 150.039 697.873 150.039C695.002 150.039 693.088 152.119 693.088 155.156C693.088 158.164 694.914 160.195 698.029 160.195ZM697.854 152.041C699.123 152.041 699.934 152.852 700.051 154.18H695.617C695.842 152.715 696.672 152.041 697.854 152.041ZM708.342 160.195C710.549 160.195 711.984 159.18 712.629 157.305L710.432 156.484C710.168 157.48 709.426 158.105 708.479 158.105C707.072 158.105 706.145 157.07 706.145 155.098C706.145 153.096 707.121 152.129 708.381 152.129C709.377 152.129 710.061 152.725 710.334 153.77L712.6 152.891C711.867 150.938 710.412 150.039 708.371 150.039C705.432 150.039 703.664 152.002 703.664 155.137C703.664 158.232 705.402 160.195 708.342 160.195ZM718.615 160.195C720.256 160.195 721.555 159.619 722.619 158.438L720.979 157.002C720.285 157.773 719.562 158.076 718.664 158.076C717.365 158.076 716.428 157.422 716.193 155.898H722.893C722.951 155.615 722.98 155.332 722.98 154.961C722.98 152.783 721.877 150.039 718.459 150.039C715.588 150.039 713.674 152.119 713.674 155.156C713.674 158.164 715.5 160.195 718.615 160.195ZM718.439 152.041C719.709 152.041 720.52 152.852 720.637 154.18H716.203C716.428 152.715 717.258 152.041 718.439 152.041ZM728.137 160.195C730.051 160.195 731.926 159.209 731.926 156.973C731.926 153.35 726.691 154.424 726.691 152.754C726.691 152.275 727.121 151.924 727.961 151.924C729.016 151.924 729.592 152.52 729.904 153.096L731.77 152.051C731.057 150.762 729.787 150.039 727.951 150.039C725.783 150.039 724.406 151.211 724.406 152.93C724.406 156.709 729.582 155.469 729.582 157.256C729.582 157.822 729.074 158.223 728.059 158.223C727.131 158.223 726.32 157.773 725.783 156.719L723.957 157.842C724.631 159.404 725.969 160.195 728.137 160.195ZM737.18 160.195C739.094 160.195 740.969 159.209 740.969 156.973C740.969 153.35 735.734 154.424 735.734 152.754C735.734 152.275 736.164 151.924 737.004 151.924C738.059 151.924 738.635 152.52 738.947 153.096L740.812 152.051C740.1 150.762 738.83 150.039 736.994 150.039C734.826 150.039 733.449 151.211 733.449 152.93C733.449 156.709 738.625 155.469 738.625 157.256C738.625 157.822 738.117 158.223 737.102 158.223C736.174 158.223 735.363 157.773 734.826 156.719L733 157.842C733.674 159.404 735.012 160.195 737.18 160.195ZM744.221 148.691C744.973 148.691 745.568 148.096 745.568 147.344C745.568 146.611 744.973 145.996 744.221 145.996C743.469 145.996 742.873 146.611 742.873 147.344C742.873 148.096 743.469 148.691 744.221 148.691ZM743.02 150.234V160H745.402V150.234H743.02ZM757.355 155.117C757.355 152.305 755.373 150.039 752.355 150.039C749.338 150.039 747.355 152.305 747.355 155.117C747.355 157.93 749.338 160.195 752.355 160.195C755.373 160.195 757.355 157.93 757.355 155.117ZM754.875 155.117C754.875 156.729 754.152 158.105 752.355 158.105C750.549 158.105 749.836 156.729 749.836 155.117C749.836 153.506 750.559 152.129 752.355 152.129C754.162 152.129 754.875 153.506 754.875 155.117ZM759.309 150.234V160H761.691V154.561C761.691 152.9 762.502 152.139 763.859 152.139C764.963 152.139 765.754 152.91 765.754 154.434V160H768.137V154.141C768.137 151.494 766.721 150.039 764.572 150.039C763.459 150.039 762.424 150.527 761.691 151.377V150.234H759.309ZM644.367 170.234V180H646.672V175.879C646.672 173.857 647.736 172.363 649.367 172.363C649.875 172.363 650.168 172.451 650.393 172.539V170.176C650.178 170.107 649.826 170.039 649.309 170.039C648.176 170.039 647.219 170.742 646.691 171.992V170.234H644.367ZM656.369 180.195C658.01 180.195 659.309 179.619 660.373 178.438L658.732 177.002C658.039 177.773 657.316 178.076 656.418 178.076C655.119 178.076 654.182 177.422 653.947 175.898H660.646C660.705 175.615 660.734 175.332 660.734 174.961C660.734 172.783 659.631 170.039 656.213 170.039C653.342 170.039 651.428 172.119 651.428 175.156C651.428 178.164 653.254 180.195 656.369 180.195ZM656.193 172.041C657.463 172.041 658.273 172.852 658.391 174.18H653.957C654.182 172.715 655.012 172.041 656.193 172.041ZM666.682 180.195C668.889 180.195 670.324 179.18 670.969 177.305L668.771 176.484C668.508 177.48 667.766 178.105 666.818 178.105C665.412 178.105 664.484 177.07 664.484 175.098C664.484 173.096 665.461 172.129 666.721 172.129C667.717 172.129 668.4 172.725 668.674 173.77L670.939 172.891C670.207 170.938 668.752 170.039 666.711 170.039C663.771 170.039 662.004 172.002 662.004 175.137C662.004 178.232 663.742 180.195 666.682 180.195ZM681.945 175.117C681.945 172.305 679.963 170.039 676.945 170.039C673.928 170.039 671.945 172.305 671.945 175.117C671.945 177.93 673.928 180.195 676.945 180.195C679.963 180.195 681.945 177.93 681.945 175.117ZM679.465 175.117C679.465 176.729 678.742 178.105 676.945 178.105C675.139 178.105 674.426 176.729 674.426 175.117C674.426 173.506 675.148 172.129 676.945 172.129C678.752 172.129 679.465 173.506 679.465 175.117ZM682.482 170.234L686.457 180H688.42L692.404 170.234H689.816L687.443 176.924L685.08 170.234H682.482ZM697.951 180.195C699.592 180.195 700.891 179.619 701.955 178.438L700.314 177.002C699.621 177.773 698.898 178.076 698 178.076C696.701 178.076 695.764 177.422 695.529 175.898H702.229C702.287 175.615 702.316 175.332 702.316 174.961C702.316 172.783 701.213 170.039 697.795 170.039C694.924 170.039 693.01 172.119 693.01 175.156C693.01 178.164 694.836 180.195 697.951 180.195ZM697.775 172.041C699.045 172.041 699.855 172.852 699.973 174.18H695.539C695.764 172.715 696.594 172.041 697.775 172.041ZM704.27 170.234V180H706.574V175.879C706.574 173.857 707.639 172.363 709.27 172.363C709.777 172.363 710.07 172.451 710.295 172.539V170.176C710.08 170.107 709.729 170.039 709.211 170.039C708.078 170.039 707.121 170.742 706.594 171.992V170.234H704.27ZM713.098 184.189H715.686L721.262 170.234H718.752L716.164 176.777L713.791 170.234H711.066L714.924 179.805L713.098 184.189ZM729.367 173.047C729.367 169.092 730.49 166.455 731.994 164.639H729.855C728.41 166.475 727.492 169.16 727.492 173.096C727.492 177.031 728.41 179.717 729.855 181.553H731.994C730.48 179.727 729.367 177.051 729.367 173.047ZM738.488 180.195C742.189 180.195 743.928 176.543 743.928 173.115C743.928 169.678 742.15 165.977 738.352 165.977C734.172 165.977 732.893 170.156 732.893 173.096C732.893 176.016 734.211 180.195 738.488 180.195ZM738.43 177.861C736.193 177.861 735.334 175.303 735.334 173.096C735.334 170.879 736.193 168.359 738.352 168.359C740.51 168.359 741.369 170.859 741.369 173.076C741.369 175.244 740.529 177.861 738.43 177.861ZM747.092 180.195C747.912 180.195 748.557 179.531 748.557 178.73C748.557 177.91 747.893 177.295 747.092 177.295C746.291 177.295 745.656 177.93 745.656 178.73C745.656 179.531 746.271 180.195 747.092 180.195ZM757.893 168.457L752.033 180H754.768L760.891 167.461V166.201H750.93V168.457H757.893ZM644.367 190.234V200H646.75V194.561C646.75 192.9 647.561 192.139 648.918 192.139C650.021 192.139 650.812 192.91 650.812 194.434V200H653.195V194.141C653.195 191.494 651.779 190.039 649.631 190.039C648.518 190.039 647.482 190.527 646.75 191.377V190.234H644.367ZM655.002 197.178C655.002 199.053 656.262 200.195 658.4 200.195C659.797 200.195 660.832 199.648 661.584 198.604L661.74 200H663.703V194.014C663.703 191.611 662.199 190.039 659.572 190.039C657.795 190.039 656.467 190.713 655.383 192.178L657.209 193.496C657.717 192.627 658.527 192.119 659.494 192.119C660.646 192.119 661.428 192.832 661.428 194.18H658.889C656.389 194.18 655.002 195.293 655.002 197.178ZM658.889 198.184C657.941 198.184 657.443 197.734 657.443 197.07C657.443 196.377 657.98 195.898 659.064 195.898H661.428C661.428 197.119 660.275 198.184 658.889 198.184ZM669.719 200.195C670.393 200.195 671.115 200.039 671.477 199.902V197.744C671.154 197.9 670.617 198.096 670.119 198.096C669.494 198.096 669.016 197.822 669.016 196.885V192.188H671.477V190.234H669.016V186.201H666.691V190.234H665.08V192.188H666.652V197.305C666.652 199.082 667.795 200.195 669.719 200.195ZM674.729 188.691C675.48 188.691 676.076 188.096 676.076 187.344C676.076 186.611 675.48 185.996 674.729 185.996C673.977 185.996 673.381 186.611 673.381 187.344C673.381 188.096 673.977 188.691 674.729 188.691ZM673.527 190.234V200H675.91V190.234H673.527ZM687.863 195.117C687.863 192.305 685.881 190.039 682.863 190.039C679.846 190.039 677.863 192.305 677.863 195.117C677.863 197.93 679.846 200.195 682.863 200.195C685.881 200.195 687.863 197.93 687.863 195.117ZM685.383 195.117C685.383 196.729 684.66 198.105 682.863 198.105C681.057 198.105 680.344 196.729 680.344 195.117C680.344 193.506 681.066 192.129 682.863 192.129C684.67 192.129 685.383 193.506 685.383 195.117ZM689.816 190.234V200H692.199V194.561C692.199 192.9 693.01 192.139 694.367 192.139C695.471 192.139 696.262 192.91 696.262 194.434V200H698.645V194.141C698.645 191.494 697.229 190.039 695.08 190.039C693.967 190.039 692.932 190.527 692.199 191.377V190.234H689.816ZM700.451 197.178C700.451 199.053 701.711 200.195 703.85 200.195C705.246 200.195 706.281 199.648 707.033 198.604L707.189 200H709.152V194.014C709.152 191.611 707.648 190.039 705.021 190.039C703.244 190.039 701.916 190.713 700.832 192.178L702.658 193.496C703.166 192.627 703.977 192.119 704.943 192.119C706.096 192.119 706.877 192.832 706.877 194.18H704.338C701.838 194.18 700.451 195.293 700.451 197.178ZM704.338 198.184C703.391 198.184 702.893 197.734 702.893 197.07C702.893 196.377 703.43 195.898 704.514 195.898H706.877C706.877 197.119 705.725 198.184 704.338 198.184ZM711.691 200H714.074V186.191H711.691V200ZM720.783 197.178C720.783 199.053 722.043 200.195 724.182 200.195C725.578 200.195 726.613 199.648 727.365 198.604L727.521 200H729.484V194.014C729.484 191.611 727.98 190.039 725.354 190.039C723.576 190.039 722.248 190.713 721.164 192.178L722.99 193.496C723.498 192.627 724.309 192.119 725.275 192.119C726.428 192.119 727.209 192.832 727.209 194.18H724.67C722.17 194.18 720.783 195.293 720.783 197.178ZM724.67 198.184C723.723 198.184 723.225 197.734 723.225 197.07C723.225 196.377 723.762 195.898 724.846 195.898H727.209C727.209 197.119 726.057 198.184 724.67 198.184ZM730.51 190.234L734.484 200H736.447L740.432 190.234H737.844L735.471 196.924L733.107 190.234H730.51ZM748.137 199.961C748.137 201.484 747.346 202.158 745.969 202.158C744.65 202.158 743.791 201.504 743.41 200.82L741.584 202.139C742.443 203.34 743.762 204.238 745.93 204.238C748.83 204.238 750.51 202.617 750.51 199.961L750.52 190.234H748.137V191.221C747.463 190.381 746.369 190.039 745.344 190.039C742.688 190.039 741.115 192.168 741.115 195.02C741.115 197.9 742.688 200 745.383 200C746.428 200 747.463 199.658 748.137 198.838V199.961ZM745.979 197.91C744.338 197.91 743.596 196.641 743.596 195.02C743.596 193.418 744.338 192.129 745.979 192.129C747.619 192.129 748.342 193.398 748.342 195.02C748.342 196.66 747.619 197.91 745.979 197.91ZM754.729 200.195C755.549 200.195 756.193 199.531 756.193 198.73C756.193 197.91 755.529 197.295 754.729 197.295C753.928 197.295 753.293 197.93 753.293 198.73C753.293 199.531 753.908 200.195 754.729 200.195ZM760.881 193.145C760.881 197.1 759.758 199.736 758.254 201.553H760.393C761.838 199.717 762.756 197.031 762.756 193.096C762.756 189.16 761.838 186.475 760.393 184.639H758.254C759.768 186.465 760.881 189.141 760.881 193.145Z" fill="#06757A"></path><path d="M37.8457 29.501V44H40.4502V37.9194H47.0127V35.561H40.4502V31.8594H47.915V29.501H37.8457ZM55.8003 29.501H53.9136L48.1406 44H50.8887L52.0884 40.8521H57.5742L58.7637 44H61.5732L55.8003 29.501ZM54.8262 33.1821L56.8257 38.627H52.8472L54.8262 33.1821ZM63.5215 29.501V44H66.126V29.501H63.5215ZM79.9175 33.6846C79.9175 31.1519 77.959 29.501 75.0264 29.501H69.8174V44H72.4219V37.8784H74.2983L77.6001 44H80.584L76.8311 37.6016C78.7075 37.0171 79.9175 35.5508 79.9175 33.6846ZM74.8418 35.561H72.4424V31.8594H74.8418C76.3901 31.8594 77.2515 32.5464 77.2515 33.7051C77.2515 34.8638 76.4106 35.561 74.8418 35.561ZM82.7988 29.501V44H85.4033V37.9194H91.9658V35.561H85.4033V31.8594H92.8682V29.501H82.7988ZM95.4521 29.501V44H98.0566V29.501H95.4521ZM101.748 29.501V44H111.387V41.5903H104.353V37.8477H110.905V35.4893H104.353V31.8594H111.387V29.501H101.748ZM114.504 29.501V44H123.302V41.5391H117.108V29.501H114.504ZM125.722 29.501V44H129.875C134.827 44 137.544 41.375 137.544 36.7505C137.544 32.1465 134.909 29.501 129.875 29.501H125.722ZM129.875 41.6108H128.326V31.8901H129.885C133.443 31.8901 134.837 33.3052 134.837 36.7505C134.837 40.3701 132.838 41.6108 129.875 41.6108ZM151.285 29.501H149.398L143.625 44H146.373L147.573 40.8521H153.059L154.248 44H157.058L151.285 29.501ZM150.311 33.1821L152.31 38.627H148.332L150.311 33.1821ZM169.106 33.6846C169.106 31.1519 167.147 29.501 164.215 29.501H159.006V44H161.61V37.8784H163.487L166.789 44H169.772L166.02 37.6016C167.896 37.0171 169.106 35.5508 169.106 33.6846ZM164.03 35.561H161.631V31.8594H164.03C165.579 31.8594 166.44 32.5464 166.44 33.7051C166.44 34.8638 165.599 35.561 164.03 35.561ZM171.987 29.501V44H181.626V41.5903H174.592V37.8477H181.144V35.4893H174.592V31.8594H181.626V29.501H171.987ZM190.66 29.501H188.773L183 44H185.748L186.948 40.8521H192.434L193.623 44H196.433L190.66 29.501ZM189.686 33.1821L191.685 38.627H187.707L189.686 33.1821ZM201.703 29.501L207.527 44H209.455L215.208 29.501H212.377L208.532 39.8267L204.584 29.501H201.703ZM217.187 29.501V44H226.825V41.5903H219.791V37.8477H226.343V35.4893H219.791V31.8594H226.825V29.501H217.187ZM229.942 29.501V44H232.444V33.8384L238.515 44H241.119V29.501H238.617V39.6523L232.557 29.501H229.942ZM247.712 31.8594V44H250.317V31.8594H254.859V29.501H243.17V31.8594H247.712ZM262.16 44.2051C266.046 44.2051 267.728 41.8877 267.728 38.2373V29.501H265.124V38.0527C265.124 40.4316 264.529 41.7544 262.191 41.7544C259.863 41.7544 259.238 40.4316 259.238 38.0527V29.501H256.644V38.3604C256.644 41.9082 258.274 44.2051 262.16 44.2051ZM281.222 33.6846C281.222 31.1519 279.264 29.501 276.331 29.501H271.122V44H273.727V37.8784H275.603L278.905 44H281.889L278.136 37.6016C280.012 37.0171 281.222 35.5508 281.222 33.6846ZM276.146 35.561H273.747V31.8594H276.146C277.695 31.8594 278.556 32.5464 278.556 33.7051C278.556 34.8638 277.715 35.561 276.146 35.561ZM284.104 29.501V44H293.742V41.5903H286.708V37.8477H293.26V35.4893H286.708V31.8594H293.742V29.501H284.104ZM305.996 44.2051C309.051 44.2051 311.061 42.4722 311.061 40.001C311.061 35.0278 304.068 36.0635 304.068 33.1206C304.068 32.1875 304.847 31.5518 305.965 31.5518C307.072 31.5518 307.759 32.1055 308.231 33.1616L310.641 32.5259C309.872 30.4443 308.21 29.2959 306.016 29.2959C303.35 29.2959 301.484 30.9263 301.484 33.2949C301.484 38.3398 308.498 37.3247 308.498 40.2778C308.498 41.2622 307.718 41.9492 306.108 41.9492C304.56 41.9492 303.36 41.1289 303.104 39.2935L300.52 39.9497C300.961 42.5234 303.022 44.2051 305.996 44.2051ZM313.573 29.501V44H316.075V33.8384L322.146 44H324.75V29.501H322.248V39.6523L316.188 29.501H313.573ZM334.358 29.501H332.471L326.698 44H329.446L330.646 40.8521H336.132L337.321 44H340.131L334.358 29.501ZM333.384 33.1821L335.383 38.627H331.405L333.384 33.1821ZM342.079 29.501V44H344.684V38.1245H346.611C349.646 38.1245 351.82 36.5967 351.82 33.8281C351.82 31.0903 349.667 29.501 346.734 29.501H342.079ZM346.642 35.7251H344.684V31.9004H346.642C348.354 31.9004 349.134 32.6284 349.134 33.8589C349.134 35.0894 348.375 35.7251 346.642 35.7251ZM358.126 44.2051C361.182 44.2051 363.192 42.4722 363.192 40.001C363.192 35.0278 356.199 36.0635 356.199 33.1206C356.199 32.1875 356.978 31.5518 358.096 31.5518C359.203 31.5518 359.89 32.1055 360.362 33.1616L362.771 32.5259C362.002 30.4443 360.341 29.2959 358.147 29.2959C355.481 29.2959 353.615 30.9263 353.615 33.2949C353.615 38.3398 360.628 37.3247 360.628 40.2778C360.628 41.2622 359.849 41.9492 358.239 41.9492C356.691 41.9492 355.491 41.1289 355.235 39.2935L352.651 39.9497C353.092 42.5234 355.153 44.2051 358.126 44.2051ZM365.704 29.501V44H368.309V37.8887H374.656V44H377.26V29.501H374.656V35.5303H368.309V29.501H365.704ZM387.012 44.2051C391.79 44.2051 393.984 40.6982 393.984 36.7505C393.984 32.8027 391.79 29.2959 387.012 29.2959C382.233 29.2959 380.039 32.8027 380.039 36.7505C380.039 40.6982 382.233 44.2051 387.012 44.2051ZM387.012 41.8467C383.895 41.8467 382.746 39.4575 382.746 36.7505C382.746 34.0435 383.895 31.6543 387.012 31.6543C390.129 31.6543 391.277 34.0435 391.277 36.7505C391.277 39.4575 390.129 41.8467 387.012 41.8467ZM399.45 31.8594V44H402.054V31.8594H406.597V29.501H394.907V31.8594H399.45Z" fill="#06757A"></path></svg> 