<svg width="21" height="21" viewBox="0 0 21 21" fill="none" xmlns="http://www.w3.org/2000/svg">
<path d="M19.9892 -0.00012207H13.2997C12.7633 -0.00012207 12.3286 0.434572 12.3286 0.970943C12.3286 1.50731 12.7633 1.94201 13.2997 1.94201H17.7527L8.22304 11.4717C7.84362 11.8509 7.84362 12.4658 8.22304 12.845C8.41264 13.0346 8.66124 13.1295 8.9096 13.1295C9.15796 13.1295 9.40656 13.0346 9.59615 12.845L19.0181 3.42286V7.66019C19.0181 8.19656 19.4528 8.63125 19.9892 8.63125C20.5255 8.63125 20.9602 8.19656 20.9602 7.66019V0.970943C20.9602 0.434572 20.5255 -0.00012207 19.9892 -0.00012207Z" fill="#00A4A6"/>
<path d="M16.6283 9.77829C16.092 9.77829 15.6573 10.213 15.6573 10.7494V18.4106C15.6573 18.7616 15.3609 19.058 15.0099 19.058H2.62906C2.27808 19.058 1.98168 18.7616 1.98168 18.4106V6.02975C1.98168 5.67878 2.27808 5.38238 2.62906 5.38238H10.3174C10.8537 5.38238 11.2884 4.94768 11.2884 4.41131C11.2884 3.87494 10.8537 3.44025 10.3174 3.44025H2.62906C1.20114 3.44025 0.0395508 4.60184 0.0395508 6.02975V18.4106C0.0395508 19.8385 1.20114 21.0001 2.62906 21.0001H15.0099C16.4378 21.0001 17.5994 19.8385 17.5994 18.4106V10.7494C17.5994 10.2132 17.1647 9.77829 16.6283 9.77829Z" fill="#00A4A6"/>
</svg>
