<?xml version="1.0" encoding="UTF-8"?> <svg xmlns="http://www.w3.org/2000/svg" width="828" height="217" viewBox="0 0 828 217" fill="none"><rect width="828" height="217" fill="white"></rect><path d="M37.87 125H60.42V124.12H55.195V84.025L36.55 91.78V91.835L43.095 95.52V124.12H37.87V125ZM67.637 125.825C70.827 125.825 72.917 123.79 72.917 120.49C72.917 117.19 70.827 115.155 67.637 115.155C64.447 115.155 62.357 117.19 62.357 120.49C62.357 123.79 64.447 125.825 67.637 125.825ZM91.9995 84.3C82.8145 84.3 75.6645 89.745 75.6645 97.94C75.6645 104.98 80.7795 109.6 88.9745 109.6C91.5045 109.6 93.5945 109.215 95.2995 108.39C93.8695 117.575 89.8545 122.855 82.3745 125.825L82.5945 126.43C98.2695 122.855 108.609 113.725 108.609 100.8C108.609 89.745 101.569 84.3 91.9995 84.3ZM92.8245 107.895C90.0195 107.895 88.3145 105.53 88.3145 96.345C88.3145 88.315 89.3045 85.4 92.0545 85.4C95.0245 85.4 95.9595 89.03 95.9595 99.15C95.9595 102.01 95.7945 104.595 95.5195 106.96C94.6395 107.565 93.7595 107.895 92.8245 107.895ZM177.198 124.12L172.688 88.37L177.638 85.4H159.048L152.943 110.645L143.318 85.4H126.488L131.438 88.37V88.425L126.598 124.12H123.078V125H136.443V124.12H130.778L132.263 90.35L146.068 125.275H149.093L160.698 90.405L165.043 124.12H159.543V125H181.378V124.12H177.198Z" fill="#2B2B2B"></path><path d="M299.56 100.8C297.03 100.8 294.995 101.185 293.29 101.955C294.83 92.99 298.79 87.49 306.16 84.575L305.94 83.97C290.265 87.545 279.925 96.675 279.925 109.6C279.925 120.655 286.965 126.1 296.535 126.1C305.72 126.1 312.87 120.655 312.87 112.46C312.87 105.42 307.755 100.8 299.56 100.8ZM296.7 125C293.73 125 292.575 121.92 292.575 111.8C292.575 108.72 292.74 105.915 293.07 103.385C293.895 102.78 294.775 102.505 295.71 102.505C298.515 102.505 300.22 104.87 300.22 114.055C300.22 122.085 299.45 125 296.7 125ZM320.916 125.825C324.106 125.825 326.196 123.79 326.196 120.49C326.196 117.19 324.106 115.155 320.916 115.155C317.726 115.155 315.636 117.19 315.636 120.49C315.636 123.79 317.726 125.825 320.916 125.825ZM352.539 102.12L348.634 99.315C354.079 99.04 357.819 96.675 357.819 92.44C357.819 88.04 352.539 84.3 345.279 84.3C337.084 84.3 331.584 89.195 331.529 95.465C331.474 99.865 333.289 102.835 338.899 107.07C333.069 107.565 329.274 111.085 329.274 115.65C329.274 122.25 335.709 126.1 344.399 126.1C352.759 126.1 359.634 120.215 359.634 113.01C359.634 108.94 357.489 105.64 352.539 102.12ZM344.344 85.455C347.314 85.455 349.514 87.93 349.514 92.22C349.514 94.805 349.074 96.95 348.084 98.93L344.014 96.015C341.374 94.145 339.889 92.11 339.889 89.965C339.889 87.215 341.759 85.455 344.344 85.455ZM345.279 124.945C341.044 124.945 338.239 121.535 338.239 114.165C338.239 111.635 338.624 109.655 339.504 107.51C339.999 107.895 340.494 108.225 341.044 108.61L344.949 111.305C348.249 113.615 350.394 116.035 350.394 119.17C350.394 122.47 348.359 124.945 345.279 124.945Z" fill="#2B2B2B"></path><path d="M577.05 106.135H566.05V95.135H564.95V106.135H553.95V107.235H564.95V118.235H566.05V107.235H577.05V106.135ZM613.384 113.065C613.384 108.335 611.074 105.035 606.124 101.955L599.634 97.94V85.51C600.349 85.565 600.954 85.675 601.559 85.84L608.544 99.205H608.599L612.119 86.72C608.709 85.29 604.529 84.3 599.634 84.3V80.12H598.534V84.3C590.229 84.74 585.609 89.855 585.609 96.62C585.609 101.625 588.249 105.64 593.749 108.72L598.534 111.415V124.78H598.039C596.719 124.78 595.509 124.56 594.299 124.065L587.314 109.325H587.259L583.354 123.35C586.709 124.67 592.814 126.1 598.149 126.1H598.534V130.335H599.634V126.045C607.719 125.495 613.384 120.325 613.384 113.065ZM593.639 90.625C593.639 87.765 595.674 85.62 598.534 85.51V97.28C594.959 94.915 593.639 92.66 593.639 90.625ZM599.634 124.615V112.02L599.854 112.13C602.989 113.89 604.474 116.09 604.474 118.73C604.474 121.81 602.439 124.01 599.634 124.615ZM632.988 103.935C640.028 102.78 644.978 98.765 644.978 93.65C644.978 88.205 639.423 84.3 630.128 84.3C625.068 84.3 620.668 85.455 616.323 87.875L621.218 99.755H621.273L626.993 85.51C627.323 85.4 627.818 85.345 628.258 85.345C630.788 85.345 632.328 88.48 632.328 93.65C632.328 100.8 630.018 104.1 624.133 104.1V104.65C630.623 104.65 634.418 109.215 634.418 114.99C634.418 121.425 631.503 125.055 628.313 125.055C627.818 125.055 627.488 125 627.103 124.89L619.678 110.48H619.623L617.093 123.68C620.723 125.33 624.628 126.1 628.808 126.1C640.523 126.1 647.068 121.37 647.068 113.945C647.068 108.5 641.348 104.43 632.988 103.935ZM656.18 115.155C652.825 115.155 650.9 117.355 650.9 120.49C650.9 123.24 652.44 125.44 655.74 125.77C654.97 130.225 653.265 133.085 648.92 136.44V136.55C657.555 133.36 661.68 127.86 661.68 121.26C661.68 116.86 659.315 115.155 656.18 115.155ZM692.915 111.855V115.1H673.72C689.01 105.42 693.63 100.58 693.63 94.365C693.63 87.875 688.46 84.3 678.505 84.3C673.72 84.3 669.32 85.62 665.415 87.71L669.98 101.405H670.035L675.755 85.51C676.085 85.4 676.47 85.345 676.855 85.345C679.495 85.345 680.98 88.37 680.98 94.2C680.98 101.9 677.515 108.995 667.78 121.37L664.975 124.945V125H694.015V111.855H692.915ZM697.555 125H720.105V124.12H714.88V84.025L696.235 91.78V91.835L702.78 95.52V124.12H697.555V125ZM738.047 103.935C745.087 102.78 750.037 98.765 750.037 93.65C750.037 88.205 744.482 84.3 735.187 84.3C730.127 84.3 725.727 85.455 721.382 87.875L726.277 99.755H726.332L732.052 85.51C732.382 85.4 732.877 85.345 733.317 85.345C735.847 85.345 737.387 88.48 737.387 93.65C737.387 100.8 735.077 104.1 729.192 104.1V104.65C735.682 104.65 739.477 109.215 739.477 114.99C739.477 121.425 736.562 125.055 733.372 125.055C732.877 125.055 732.547 125 732.162 124.89L724.737 110.48H724.682L722.152 123.68C725.782 125.33 729.687 126.1 733.867 126.1C745.582 126.1 752.127 121.37 752.127 113.945C752.127 108.5 746.407 104.43 738.047 103.935Z" fill="#2B2B2B"></path><path d="M37.7578 143.191V157H40.2383V151.404H42.0742C44.9648 151.404 47.0352 149.949 47.0352 147.312C47.0352 144.705 44.9844 143.191 42.1914 143.191H37.7578ZM42.1035 149.119H40.2383V145.477H42.1035C43.7344 145.477 44.4766 146.17 44.4766 147.342C44.4766 148.514 43.7539 149.119 42.1035 149.119ZM57.9727 152.117C57.9727 149.305 55.9902 147.039 52.9727 147.039C49.9551 147.039 47.9727 149.305 47.9727 152.117C47.9727 154.93 49.9551 157.195 52.9727 157.195C55.9902 157.195 57.9727 154.93 57.9727 152.117ZM55.4922 152.117C55.4922 153.729 54.7695 155.105 52.9727 155.105C51.166 155.105 50.4531 153.729 50.4531 152.117C50.4531 150.506 51.1758 149.129 52.9727 149.129C54.7793 149.129 55.4922 150.506 55.4922 152.117ZM59.9258 161.043H62.3086V156.014C62.9824 156.854 64.0762 157.195 65.1016 157.195C67.7578 157.195 69.3301 155.027 69.3301 152.117C69.3301 149.178 67.7578 147.039 65.0625 147.039C64.0176 147.039 62.9824 147.381 62.3086 148.201V147.234H59.9258V161.043ZM64.4668 149.129C66.1074 149.129 66.8496 150.438 66.8496 152.117C66.8496 153.777 66.1074 155.105 64.4668 155.105C62.8262 155.105 62.1035 153.797 62.1035 152.117C62.1035 150.418 62.8262 149.129 64.4668 149.129ZM80.1406 157V147.234H77.7578V152.674C77.7578 154.334 76.9473 155.096 75.5898 155.096C74.4863 155.096 73.6953 154.324 73.6953 152.801V147.234H71.3125V153.094C71.3125 155.74 72.7285 157.195 74.877 157.195C75.9902 157.195 77.0254 156.707 77.7578 155.857V157H80.1406ZM82.875 157H85.2578V143.191H82.875V157ZM87.1621 154.178C87.1621 156.053 88.4219 157.195 90.5605 157.195C91.957 157.195 92.9922 156.648 93.7441 155.604L93.9004 157H95.8633V151.014C95.8633 148.611 94.3594 147.039 91.7324 147.039C89.9551 147.039 88.627 147.713 87.543 149.178L89.3691 150.496C89.877 149.627 90.6875 149.119 91.6543 149.119C92.8066 149.119 93.5879 149.832 93.5879 151.18H91.0488C88.5488 151.18 87.1621 152.293 87.1621 154.178ZM91.0488 155.184C90.1016 155.184 89.6035 154.734 89.6035 154.07C89.6035 153.377 90.1406 152.898 91.2246 152.898H93.5879C93.5879 154.119 92.4355 155.184 91.0488 155.184ZM101.879 157.195C102.553 157.195 103.275 157.039 103.637 156.902V154.744C103.314 154.9 102.777 155.096 102.279 155.096C101.654 155.096 101.176 154.822 101.176 153.885V149.188H103.637V147.234H101.176V143.201H98.8516V147.234H97.2402V149.188H98.8125V154.305C98.8125 156.082 99.9551 157.195 101.879 157.195ZM106.889 145.691C107.641 145.691 108.236 145.096 108.236 144.344C108.236 143.611 107.641 142.996 106.889 142.996C106.137 142.996 105.541 143.611 105.541 144.344C105.541 145.096 106.137 145.691 106.889 145.691ZM105.688 147.234V157H108.07V147.234H105.688ZM120.023 152.117C120.023 149.305 118.041 147.039 115.023 147.039C112.006 147.039 110.023 149.305 110.023 152.117C110.023 154.93 112.006 157.195 115.023 157.195C118.041 157.195 120.023 154.93 120.023 152.117ZM117.543 152.117C117.543 153.729 116.82 155.105 115.023 155.105C113.217 155.105 112.504 153.729 112.504 152.117C112.504 150.506 113.227 149.129 115.023 149.129C116.83 149.129 117.543 150.506 117.543 152.117ZM121.977 147.234V157H124.359V151.561C124.359 149.9 125.17 149.139 126.527 149.139C127.631 149.139 128.422 149.91 128.422 151.434V157H130.805V151.141C130.805 148.494 129.389 147.039 127.24 147.039C126.127 147.039 125.092 147.527 124.359 148.377V147.234H121.977Z" fill="#06757A"></path><path d="M278.117 143.191L283.664 157H285.5L290.979 143.191H288.283L284.621 153.025L280.861 143.191H278.117ZM295.939 157.195C297.58 157.195 298.879 156.619 299.943 155.438L298.303 154.002C297.609 154.773 296.887 155.076 295.988 155.076C294.689 155.076 293.752 154.422 293.518 152.898H300.217C300.275 152.615 300.305 152.332 300.305 151.961C300.305 149.783 299.201 147.039 295.783 147.039C292.912 147.039 290.998 149.119 290.998 152.156C290.998 155.164 292.824 157.195 295.939 157.195ZM295.764 149.041C297.033 149.041 297.844 149.852 297.961 151.18H293.527C293.752 149.715 294.582 149.041 295.764 149.041ZM302.258 147.234V157H304.641V151.561C304.641 149.9 305.451 149.139 306.809 149.139C307.912 149.139 308.703 149.91 308.703 151.434V157H311.086V151.141C311.086 148.494 309.67 147.039 307.521 147.039C306.408 147.039 305.373 147.527 304.641 148.377V147.234H302.258ZM317.238 157.195C317.912 157.195 318.635 157.039 318.996 156.902V154.744C318.674 154.9 318.137 155.096 317.639 155.096C317.014 155.096 316.535 154.822 316.535 153.885V149.188H318.996V147.234H316.535V143.201H314.211V147.234H312.6V149.188H314.172V154.305C314.172 156.082 315.314 157.195 317.238 157.195ZM329.836 157V147.234H327.453V152.674C327.453 154.334 326.643 155.096 325.285 155.096C324.182 155.096 323.391 154.324 323.391 152.801V147.234H321.008V153.094C321.008 155.74 322.424 157.195 324.572 157.195C325.686 157.195 326.721 156.707 327.453 155.857V157H329.836ZM332.57 147.234V157H334.875V152.879C334.875 150.857 335.939 149.363 337.57 149.363C338.078 149.363 338.371 149.451 338.596 149.539V147.176C338.381 147.107 338.029 147.039 337.512 147.039C336.379 147.039 335.422 147.742 334.895 148.992V147.234H332.57ZM344.572 157.195C346.213 157.195 347.512 156.619 348.576 155.438L346.936 154.002C346.242 154.773 345.52 155.076 344.621 155.076C343.322 155.076 342.385 154.422 342.15 152.898H348.85C348.908 152.615 348.938 152.332 348.938 151.961C348.938 149.783 347.834 147.039 344.416 147.039C341.545 147.039 339.631 149.119 339.631 152.156C339.631 155.164 341.457 157.195 344.572 157.195ZM344.396 149.041C345.666 149.041 346.477 149.852 346.594 151.18H342.16C342.385 149.715 343.215 149.041 344.396 149.041ZM364.465 143.191H362.082V148.221C361.408 147.381 360.314 147.039 359.289 147.039C356.633 147.039 355.061 149.207 355.061 152.117C355.061 155.057 356.633 157.195 359.328 157.195C360.373 157.195 361.408 156.854 362.082 156.033V157H364.465V143.191ZM359.924 155.105C358.283 155.105 357.541 153.797 357.541 152.117C357.541 150.457 358.283 149.129 359.924 149.129C361.564 149.129 362.287 150.438 362.287 152.117C362.287 153.816 361.564 155.105 359.924 155.105ZM371.428 157.195C373.068 157.195 374.367 156.619 375.432 155.438L373.791 154.002C373.098 154.773 372.375 155.076 371.477 155.076C370.178 155.076 369.24 154.422 369.006 152.898H375.705C375.764 152.615 375.793 152.332 375.793 151.961C375.793 149.783 374.689 147.039 371.271 147.039C368.4 147.039 366.486 149.119 366.486 152.156C366.486 155.164 368.312 157.195 371.428 157.195ZM371.252 149.041C372.521 149.041 373.332 149.852 373.449 151.18H369.016C369.24 149.715 370.07 149.041 371.252 149.041ZM377.746 147.234V157H380.129V151.561C380.129 149.9 380.939 149.139 382.297 149.139C383.4 149.139 384.191 149.91 384.191 151.434V157H386.574V151.141C386.574 148.494 385.158 147.039 383.01 147.039C381.896 147.039 380.861 147.527 380.129 148.377V147.234H377.746ZM392.414 157.195C394.328 157.195 396.203 156.209 396.203 153.973C396.203 150.35 390.969 151.424 390.969 149.754C390.969 149.275 391.398 148.924 392.238 148.924C393.293 148.924 393.869 149.52 394.182 150.096L396.047 149.051C395.334 147.762 394.064 147.039 392.229 147.039C390.061 147.039 388.684 148.211 388.684 149.93C388.684 153.709 393.859 152.469 393.859 154.256C393.859 154.822 393.352 155.223 392.336 155.223C391.408 155.223 390.598 154.773 390.061 153.719L388.234 154.842C388.908 156.404 390.246 157.195 392.414 157.195ZM399.455 145.691C400.207 145.691 400.803 145.096 400.803 144.344C400.803 143.611 400.207 142.996 399.455 142.996C398.703 142.996 398.107 143.611 398.107 144.344C398.107 145.096 398.703 145.691 399.455 145.691ZM398.254 147.234V157H400.637V147.234H398.254ZM406.887 157.195C407.561 157.195 408.283 157.039 408.645 156.902V154.744C408.322 154.9 407.785 155.096 407.287 155.096C406.662 155.096 406.184 154.822 406.184 153.885V149.188H408.645V147.234H406.184V143.201H403.859V147.234H402.248V149.188H403.82V154.305C403.82 156.082 404.963 157.195 406.887 157.195ZM411.438 161.189H414.025L419.602 147.234H417.092L414.504 153.777L412.131 147.234H409.406L413.264 156.805L411.438 161.189ZM279.367 181.043H281.75V176.014C282.424 176.854 283.518 177.195 284.543 177.195C287.199 177.195 288.771 175.027 288.771 172.117C288.771 169.178 287.199 167.039 284.504 167.039C283.459 167.039 282.424 167.381 281.75 168.201V167.234H279.367V181.043ZM283.908 169.129C285.549 169.129 286.291 170.438 286.291 172.117C286.291 173.777 285.549 175.105 283.908 175.105C282.268 175.105 281.545 173.797 281.545 172.117C281.545 170.418 282.268 169.129 283.908 169.129ZM295.1 177.195C296.74 177.195 298.039 176.619 299.104 175.438L297.463 174.002C296.77 174.773 296.047 175.076 295.148 175.076C293.85 175.076 292.912 174.422 292.678 172.898H299.377C299.436 172.615 299.465 172.332 299.465 171.961C299.465 169.783 298.361 167.039 294.943 167.039C292.072 167.039 290.158 169.119 290.158 172.156C290.158 175.164 291.984 177.195 295.1 177.195ZM294.924 169.041C296.193 169.041 297.004 169.852 297.121 171.18H292.688C292.912 169.715 293.742 169.041 294.924 169.041ZM301.418 167.234V177H303.723V172.879C303.723 170.857 304.787 169.363 306.418 169.363C306.926 169.363 307.219 169.451 307.443 169.539V167.176C307.229 167.107 306.877 167.039 306.359 167.039C305.227 167.039 304.27 167.742 303.742 168.992V167.234H301.418ZM316.34 166.941V177H318.781V163.201H316.438C316.438 164.432 315.334 165.057 313.664 165.057V166.941H316.34ZM326.301 177.195C330.002 177.195 331.74 173.543 331.74 170.115C331.74 166.678 329.963 162.977 326.164 162.977C321.984 162.977 320.705 167.156 320.705 170.096C320.705 173.016 322.023 177.195 326.301 177.195ZM326.242 174.861C324.006 174.861 323.146 172.303 323.146 170.096C323.146 167.879 324.006 165.359 326.164 165.359C328.322 165.359 329.182 167.859 329.182 170.076C329.182 172.244 328.342 174.861 326.242 174.861ZM337.902 177.195C341.604 177.195 343.342 173.543 343.342 170.115C343.342 166.678 341.564 162.977 337.766 162.977C333.586 162.977 332.307 167.156 332.307 170.096C332.307 173.016 333.625 177.195 337.902 177.195ZM337.844 174.861C335.607 174.861 334.748 172.303 334.748 170.096C334.748 167.879 335.607 165.359 337.766 165.359C339.924 165.359 340.783 167.859 340.783 170.076C340.783 172.244 339.943 174.861 337.844 174.861ZM349.777 181.043H352.16V176.014C352.834 176.854 353.928 177.195 354.953 177.195C357.609 177.195 359.182 175.027 359.182 172.117C359.182 169.178 357.609 167.039 354.914 167.039C353.869 167.039 352.834 167.381 352.16 168.201V167.234H349.777V181.043ZM354.318 169.129C355.959 169.129 356.701 170.438 356.701 172.117C356.701 173.777 355.959 175.105 354.318 175.105C352.678 175.105 351.955 173.797 351.955 172.117C351.955 170.418 352.678 169.129 354.318 169.129ZM365.51 177.195C367.15 177.195 368.449 176.619 369.514 175.438L367.873 174.002C367.18 174.773 366.457 175.076 365.559 175.076C364.26 175.076 363.322 174.422 363.088 172.898H369.787C369.846 172.615 369.875 172.332 369.875 171.961C369.875 169.783 368.771 167.039 365.354 167.039C362.482 167.039 360.568 169.119 360.568 172.156C360.568 175.164 362.395 177.195 365.51 177.195ZM365.334 169.041C366.604 169.041 367.414 169.852 367.531 171.18H363.098C363.322 169.715 364.152 169.041 365.334 169.041ZM381.047 172.117C381.047 169.305 379.064 167.039 376.047 167.039C373.029 167.039 371.047 169.305 371.047 172.117C371.047 174.93 373.029 177.195 376.047 177.195C379.064 177.195 381.047 174.93 381.047 172.117ZM378.566 172.117C378.566 173.729 377.844 175.105 376.047 175.105C374.24 175.105 373.527 173.729 373.527 172.117C373.527 170.506 374.25 169.129 376.047 169.129C377.854 169.129 378.566 170.506 378.566 172.117ZM383 181.043H385.383V176.014C386.057 176.854 387.15 177.195 388.176 177.195C390.832 177.195 392.404 175.027 392.404 172.117C392.404 169.178 390.832 167.039 388.137 167.039C387.092 167.039 386.057 167.381 385.383 168.201V167.234H383V181.043ZM387.541 169.129C389.182 169.129 389.924 170.438 389.924 172.117C389.924 173.777 389.182 175.105 387.541 175.105C385.9 175.105 385.178 173.797 385.178 172.117C385.178 170.418 385.9 169.129 387.541 169.129ZM394.504 177H396.887V163.191H394.504V177ZM403.85 177.195C405.49 177.195 406.789 176.619 407.854 175.438L406.213 174.002C405.52 174.773 404.797 175.076 403.898 175.076C402.6 175.076 401.662 174.422 401.428 172.898H408.127C408.186 172.615 408.215 172.332 408.215 171.961C408.215 169.783 407.111 167.039 403.693 167.039C400.822 167.039 398.908 169.119 398.908 172.156C398.908 175.164 400.734 177.195 403.85 177.195ZM403.674 169.041C404.943 169.041 405.754 169.852 405.871 171.18H401.438C401.662 169.715 402.492 169.041 403.674 169.041Z" fill="#06757A"></path><path d="M556.393 143.191H554.596L549.098 157H551.715L552.857 154.002H558.082L559.215 157H561.891L556.393 143.191ZM555.465 146.697L557.369 151.883H553.58L555.465 146.697ZM563.355 147.234V157H565.738V151.561C565.738 149.9 566.549 149.139 567.906 149.139C569.01 149.139 569.801 149.91 569.801 151.434V157H572.184V151.141C572.184 148.494 570.768 147.039 568.619 147.039C567.506 147.039 566.471 147.527 565.738 148.377V147.234H563.355ZM574.82 147.234V157H577.203V151.561C577.203 149.9 578.014 149.139 579.371 149.139C580.475 149.139 581.266 149.91 581.266 151.434V157H583.648V151.141C583.648 148.494 582.232 147.039 580.084 147.039C578.971 147.039 577.936 147.527 577.203 148.377V147.234H574.82ZM595.016 157V147.234H592.633V152.674C592.633 154.334 591.822 155.096 590.465 155.096C589.361 155.096 588.57 154.324 588.57 152.801V147.234H586.188V153.094C586.188 155.74 587.604 157.195 589.752 157.195C590.865 157.195 591.9 156.707 592.633 155.857V157H595.016ZM596.92 154.178C596.92 156.053 598.18 157.195 600.318 157.195C601.715 157.195 602.75 156.648 603.502 155.604L603.658 157H605.621V151.014C605.621 148.611 604.117 147.039 601.49 147.039C599.713 147.039 598.385 147.713 597.301 149.178L599.127 150.496C599.635 149.627 600.445 149.119 601.412 149.119C602.564 149.119 603.346 149.832 603.346 151.18H600.807C598.307 151.18 596.92 152.293 596.92 154.178ZM600.807 155.184C599.859 155.184 599.361 154.734 599.361 154.07C599.361 153.377 599.898 152.898 600.982 152.898H603.346C603.346 154.119 602.193 155.184 600.807 155.184ZM608.16 157H610.543V143.191H608.16V157ZM618.082 147.234V157H620.465V151.561C620.465 149.9 621.197 149.139 622.428 149.139C623.502 149.139 624.137 149.9 624.137 151.434V157H626.52V151.375C626.52 149.715 627.32 149.139 628.482 149.139C629.557 149.139 630.191 149.9 630.191 151.434V157H632.574V151.141C632.574 148.445 631.207 147.039 629.049 147.039C627.682 147.039 626.686 147.508 625.895 148.631C625.318 147.596 624.381 147.039 623.238 147.039C622.105 147.039 621.158 147.508 620.465 148.377V147.234H618.082ZM639.439 157.195C641.08 157.195 642.379 156.619 643.443 155.438L641.803 154.002C641.109 154.773 640.387 155.076 639.488 155.076C638.189 155.076 637.252 154.422 637.018 152.898H643.717C643.775 152.615 643.805 152.332 643.805 151.961C643.805 149.783 642.701 147.039 639.283 147.039C636.412 147.039 634.498 149.119 634.498 152.156C634.498 155.164 636.324 157.195 639.439 157.195ZM639.264 149.041C640.533 149.041 641.344 149.852 641.461 151.18H637.027C637.252 149.715 638.082 149.041 639.264 149.041ZM654.527 143.191H652.145V148.221C651.471 147.381 650.377 147.039 649.352 147.039C646.695 147.039 645.123 149.207 645.123 152.117C645.123 155.057 646.695 157.195 649.391 157.195C650.436 157.195 651.471 156.854 652.145 156.033V157H654.527V143.191ZM649.986 155.105C648.346 155.105 647.604 153.797 647.604 152.117C647.604 150.457 648.346 149.129 649.986 149.129C651.627 149.129 652.35 150.438 652.35 152.117C652.35 153.816 651.627 155.105 649.986 155.105ZM658.463 145.691C659.215 145.691 659.811 145.096 659.811 144.344C659.811 143.611 659.215 142.996 658.463 142.996C657.711 142.996 657.115 143.611 657.115 144.344C657.115 145.096 657.711 145.691 658.463 145.691ZM657.262 147.234V157H659.645V147.234H657.262ZM661.549 154.178C661.549 156.053 662.809 157.195 664.947 157.195C666.344 157.195 667.379 156.648 668.131 155.604L668.287 157H670.25V151.014C670.25 148.611 668.746 147.039 666.119 147.039C664.342 147.039 663.014 147.713 661.93 149.178L663.756 150.496C664.264 149.627 665.074 149.119 666.041 149.119C667.193 149.119 667.975 149.832 667.975 151.18H665.436C662.936 151.18 661.549 152.293 661.549 154.178ZM665.436 155.184C664.488 155.184 663.99 154.734 663.99 154.07C663.99 153.377 664.527 152.898 665.611 152.898H667.975C667.975 154.119 666.822 155.184 665.436 155.184ZM672.789 147.234V157H675.172V151.561C675.172 149.9 675.982 149.139 677.34 149.139C678.443 149.139 679.234 149.91 679.234 151.434V157H681.617V151.141C681.617 148.494 680.201 147.039 678.053 147.039C676.939 147.039 675.904 147.527 675.172 148.377V147.234H672.789ZM551.568 165.691C552.32 165.691 552.916 165.096 552.916 164.344C552.916 163.611 552.32 162.996 551.568 162.996C550.816 162.996 550.221 163.611 550.221 164.344C550.221 165.096 550.816 165.691 551.568 165.691ZM550.367 167.234V177H552.75V167.234H550.367ZM555.484 167.234V177H557.867V171.561C557.867 169.9 558.678 169.139 560.035 169.139C561.139 169.139 561.93 169.91 561.93 171.434V177H564.312V171.141C564.312 168.494 562.896 167.039 560.748 167.039C559.635 167.039 558.6 167.527 557.867 168.377V167.234H555.484ZM570.943 177.195C573.15 177.195 574.586 176.18 575.23 174.305L573.033 173.484C572.77 174.48 572.027 175.105 571.08 175.105C569.674 175.105 568.746 174.07 568.746 172.098C568.746 170.096 569.723 169.129 570.982 169.129C571.979 169.129 572.662 169.725 572.936 170.77L575.201 169.891C574.469 167.938 573.014 167.039 570.973 167.039C568.033 167.039 566.266 169.002 566.266 172.137C566.266 175.232 568.004 177.195 570.943 177.195ZM586.207 172.117C586.207 169.305 584.225 167.039 581.207 167.039C578.189 167.039 576.207 169.305 576.207 172.117C576.207 174.93 578.189 177.195 581.207 177.195C584.225 177.195 586.207 174.93 586.207 172.117ZM583.727 172.117C583.727 173.729 583.004 175.105 581.207 175.105C579.4 175.105 578.688 173.729 578.688 172.117C578.688 170.506 579.41 169.129 581.207 169.129C583.014 169.129 583.727 170.506 583.727 172.117ZM588.16 167.234V177H590.543V171.561C590.543 169.9 591.275 169.139 592.506 169.139C593.58 169.139 594.215 169.9 594.215 171.434V177H596.598V171.375C596.598 169.715 597.398 169.139 598.561 169.139C599.635 169.139 600.27 169.9 600.27 171.434V177H602.652V171.141C602.652 168.445 601.285 167.039 599.127 167.039C597.76 167.039 596.764 167.508 595.973 168.631C595.396 167.596 594.459 167.039 593.316 167.039C592.184 167.039 591.236 167.508 590.543 168.377V167.234H588.16ZM609.518 177.195C611.158 177.195 612.457 176.619 613.521 175.438L611.881 174.002C611.188 174.773 610.465 175.076 609.566 175.076C608.268 175.076 607.33 174.422 607.096 172.898H613.795C613.854 172.615 613.883 172.332 613.883 171.961C613.883 169.783 612.779 167.039 609.361 167.039C606.49 167.039 604.576 169.119 604.576 172.156C604.576 175.164 606.402 177.195 609.518 177.195ZM609.342 169.041C610.611 169.041 611.422 169.852 611.539 171.18H607.105C607.33 169.715 608.16 169.041 609.342 169.041ZM624.635 177.195C626.842 177.195 628.277 176.18 628.922 174.305L626.725 173.484C626.461 174.48 625.719 175.105 624.771 175.105C623.365 175.105 622.438 174.07 622.438 172.098C622.438 170.096 623.414 169.129 624.674 169.129C625.67 169.129 626.354 169.725 626.627 170.77L628.893 169.891C628.16 167.938 626.705 167.039 624.664 167.039C621.725 167.039 619.957 169.002 619.957 172.137C619.957 175.232 621.695 177.195 624.635 177.195ZM630.68 163.191V177H633.062V171.561C633.062 169.9 633.873 169.139 635.23 169.139C636.334 169.139 637.125 169.91 637.125 171.434V177H639.508V171.141C639.508 168.494 638.092 167.039 635.943 167.039C634.83 167.039 633.795 167.527 633.062 168.377V163.191H630.68ZM641.314 174.178C641.314 176.053 642.574 177.195 644.713 177.195C646.109 177.195 647.145 176.648 647.896 175.604L648.053 177H650.016V171.014C650.016 168.611 648.512 167.039 645.885 167.039C644.107 167.039 642.779 167.713 641.695 169.178L643.521 170.496C644.029 169.627 644.84 169.119 645.807 169.119C646.959 169.119 647.74 169.832 647.74 171.18H645.201C642.701 171.18 641.314 172.293 641.314 174.178ZM645.201 175.184C644.254 175.184 643.756 174.734 643.756 174.07C643.756 173.377 644.293 172.898 645.377 172.898H647.74C647.74 174.119 646.588 175.184 645.201 175.184ZM652.555 167.234V177H654.938V171.561C654.938 169.9 655.748 169.139 657.105 169.139C658.209 169.139 659 169.91 659 171.434V177H661.383V171.141C661.383 168.494 659.967 167.039 657.818 167.039C656.705 167.039 655.67 167.527 654.938 168.377V167.234H652.555ZM670.406 176.961C670.406 178.484 669.615 179.158 668.238 179.158C666.92 179.158 666.061 178.504 665.68 177.82L663.854 179.139C664.713 180.34 666.031 181.238 668.199 181.238C671.1 181.238 672.779 179.617 672.779 176.961L672.789 167.234H670.406V168.221C669.732 167.381 668.639 167.039 667.613 167.039C664.957 167.039 663.385 169.168 663.385 172.02C663.385 174.9 664.957 177 667.652 177C668.697 177 669.732 176.658 670.406 175.838V176.961ZM668.248 174.91C666.607 174.91 665.865 173.641 665.865 172.02C665.865 170.418 666.607 169.129 668.248 169.129C669.889 169.129 670.611 170.398 670.611 172.02C670.611 173.66 669.889 174.91 668.248 174.91ZM679.752 177.195C681.393 177.195 682.691 176.619 683.756 175.438L682.115 174.002C681.422 174.773 680.699 175.076 679.801 175.076C678.502 175.076 677.564 174.422 677.33 172.898H684.029C684.088 172.615 684.117 172.332 684.117 171.961C684.117 169.783 683.014 167.039 679.596 167.039C676.725 167.039 674.811 169.119 674.811 172.156C674.811 175.164 676.637 177.195 679.752 177.195ZM679.576 169.041C680.846 169.041 681.656 169.852 681.773 171.18H677.34C677.564 169.715 678.395 169.041 679.576 169.041Z" fill="#06757A"></path><path d="M37.8457 26.501V41H40.3477V30.8384L46.418 41H49.0225V26.501H46.5205V36.6523L40.4604 26.501H37.8457ZM58.6304 26.501H56.7437L50.9707 41H53.7188L54.9185 37.8521H60.4043L61.5938 41H64.4033L58.6304 26.501ZM57.6562 30.1821L59.6558 35.627H55.6772L57.6562 30.1821ZM70.4019 41.2051C73.4575 41.2051 75.4673 39.4722 75.4673 37.001C75.4673 32.0278 68.4741 33.0635 68.4741 30.1206C68.4741 29.1875 69.2534 28.5518 70.3711 28.5518C71.4785 28.5518 72.1655 29.1055 72.6372 30.1616L75.0469 29.5259C74.2778 27.4443 72.6167 26.2959 70.4224 26.2959C67.7563 26.2959 65.8901 27.9263 65.8901 30.2949C65.8901 35.3398 72.9038 34.3247 72.9038 37.2778C72.9038 38.2622 72.1245 38.9492 70.5146 38.9492C68.9663 38.9492 67.7666 38.1289 67.5103 36.2935L64.9263 36.9497C65.3672 39.5234 67.4282 41.2051 70.4019 41.2051ZM77.9795 26.501V41H80.584V34.8887H86.9312V41H89.5356V26.501H86.9312V32.5303H80.584V26.501H77.9795ZM91.5146 26.501L97.3389 41H99.2666L105.019 26.501H102.189L98.3438 36.8267L94.396 26.501H91.5146ZM106.998 26.501V41H109.603V26.501H106.998ZM113.294 26.501V41H122.092V38.5391H115.898V26.501H113.294ZM124.512 26.501V41H133.31V38.5391H127.116V26.501H124.512ZM135.729 26.501V41H145.368V38.5903H138.334V34.8477H144.886V32.4893H138.334V28.8594H145.368V26.501H135.729ZM153.53 26.501V41H156.032V30.1514L159.672 41H162.092L165.732 30.1514V41H168.234V26.501H164.625L160.882 37.8931L157.14 26.501H153.53ZM171.926 26.501V41H181.564V38.5903H174.53V34.8477H181.083V32.4893H174.53V28.8594H181.564V26.501H171.926ZM187.583 28.8594V41H190.188V28.8594H194.73V26.501H183.041V28.8594H187.583ZM206.881 30.6846C206.881 28.1519 204.923 26.501 201.99 26.501H196.781V41H199.386V34.8784H201.262L204.564 41H207.548L203.795 34.6016C205.671 34.0171 206.881 32.5508 206.881 30.6846ZM201.806 32.561H199.406V28.8594H201.806C203.354 28.8594 204.215 29.5464 204.215 30.7051C204.215 31.8638 203.375 32.561 201.806 32.561ZM215.751 41.2051C220.529 41.2051 222.724 37.6982 222.724 33.7505C222.724 29.8027 220.529 26.2959 215.751 26.2959C210.973 26.2959 208.778 29.8027 208.778 33.7505C208.778 37.6982 210.973 41.2051 215.751 41.2051ZM215.751 38.8467C212.634 38.8467 211.485 36.4575 211.485 33.7505C211.485 31.0435 212.634 28.6543 215.751 28.6543C218.868 28.6543 220.017 31.0435 220.017 33.7505C220.017 36.4575 218.868 38.8467 215.751 38.8467ZM236.454 26.501H234.567L228.794 41H231.542L232.742 37.8521H238.228L239.417 41H242.227L236.454 26.501ZM235.479 30.1821L237.479 35.627H233.5L235.479 30.1821ZM254.275 30.6846C254.275 28.1519 252.316 26.501 249.384 26.501H244.175V41H246.779V34.8784H248.656L251.958 41H254.941L251.188 34.6016C253.065 34.0171 254.275 32.5508 254.275 30.6846ZM249.199 32.561H246.8V28.8594H249.199C250.748 28.8594 251.609 29.5464 251.609 30.7051C251.609 31.8638 250.768 32.561 249.199 32.561ZM257.156 26.501V41H266.795V38.5903H259.761V34.8477H266.313V32.4893H259.761V28.8594H266.795V26.501H257.156ZM275.829 26.501H273.942L268.169 41H270.917L272.117 37.8521H277.603L278.792 41H281.602L275.829 26.501ZM274.854 30.1821L276.854 35.627H272.875L274.854 30.1821ZM286.872 26.501L292.696 41H294.624L300.376 26.501H297.546L293.701 36.8267L289.753 26.501H286.872ZM302.355 26.501V41H311.994V38.5903H304.96V34.8477H311.512V32.4893H304.96V28.8594H311.994V26.501H302.355ZM315.111 26.501V41H317.613V30.8384L323.684 41H326.288V26.501H323.786V36.6523L317.726 26.501H315.111ZM332.881 28.8594V41H335.486V28.8594H340.028V26.501H328.339V28.8594H332.881ZM347.329 41.2051C351.215 41.2051 352.897 38.8877 352.897 35.2373V26.501H350.292V35.0527C350.292 37.4316 349.698 38.7544 347.36 38.7544C345.032 38.7544 344.407 37.4316 344.407 35.0527V26.501H341.812V35.3604C341.812 38.9082 343.443 41.2051 347.329 41.2051ZM366.391 30.6846C366.391 28.1519 364.433 26.501 361.5 26.501H356.291V41H358.896V34.8784H360.772L364.074 41H367.058L363.305 34.6016C365.181 34.0171 366.391 32.5508 366.391 30.6846ZM361.315 32.561H358.916V28.8594H361.315C362.864 28.8594 363.725 29.5464 363.725 30.7051C363.725 31.8638 362.884 32.561 361.315 32.561ZM369.272 26.501V41H378.911V38.5903H371.877V34.8477H378.429V32.4893H371.877V28.8594H378.911V26.501H369.272ZM391.165 41.2051C394.22 41.2051 396.23 39.4722 396.23 37.001C396.23 32.0278 389.237 33.0635 389.237 30.1206C389.237 29.1875 390.016 28.5518 391.134 28.5518C392.241 28.5518 392.928 29.1055 393.4 30.1616L395.81 29.5259C395.041 27.4443 393.379 26.2959 391.185 26.2959C388.519 26.2959 386.653 27.9263 386.653 30.2949C386.653 35.3398 393.667 34.3247 393.667 37.2778C393.667 38.2622 392.887 38.9492 391.277 38.9492C389.729 38.9492 388.529 38.1289 388.273 36.2935L385.689 36.9497C386.13 39.5234 388.191 41.2051 391.165 41.2051ZM398.742 26.501V41H401.244V30.8384L407.314 41H409.919V26.501H407.417V36.6523L401.357 26.501H398.742ZM419.527 26.501H417.64L411.867 41H414.615L415.815 37.8521H421.301L422.49 41H425.3L419.527 26.501ZM418.553 30.1821L420.552 35.627H416.574L418.553 30.1821ZM427.248 26.501V41H429.853V35.1245H431.78C434.815 35.1245 436.989 33.5967 436.989 30.8281C436.989 28.0903 434.836 26.501 431.903 26.501H427.248ZM431.811 32.7251H429.853V28.9004H431.811C433.523 28.9004 434.303 29.6284 434.303 30.8589C434.303 32.0894 433.544 32.7251 431.811 32.7251ZM448.34 41.2051C451.396 41.2051 453.406 39.4722 453.406 37.001C453.406 32.0278 446.413 33.0635 446.413 30.1206C446.413 29.1875 447.192 28.5518 448.31 28.5518C449.417 28.5518 450.104 29.1055 450.576 30.1616L452.985 29.5259C452.216 27.4443 450.555 26.2959 448.361 26.2959C445.695 26.2959 443.829 27.9263 443.829 30.2949C443.829 35.3398 450.842 34.3247 450.842 37.2778C450.842 38.2622 450.063 38.9492 448.453 38.9492C446.905 38.9492 445.705 38.1289 445.449 36.2935L442.865 36.9497C443.306 39.5234 445.367 41.2051 448.34 41.2051ZM455.918 26.501V41H458.522V34.8887H464.87V41H467.474V26.501H464.87V32.5303H458.522V26.501H455.918ZM477.226 41.2051C482.004 41.2051 484.198 37.6982 484.198 33.7505C484.198 29.8027 482.004 26.2959 477.226 26.2959C472.447 26.2959 470.253 29.8027 470.253 33.7505C470.253 37.6982 472.447 41.2051 477.226 41.2051ZM477.226 38.8467C474.108 38.8467 472.96 36.4575 472.96 33.7505C472.96 31.0435 474.108 28.6543 477.226 28.6543C480.343 28.6543 481.491 31.0435 481.491 33.7505C481.491 36.4575 480.343 38.8467 477.226 38.8467ZM489.664 28.8594V41H492.268V28.8594H496.811V26.501H485.121V28.8594H489.664Z" fill="#06757A"></path></svg> 