<?xml version="1.0" encoding="UTF-8"?> <svg xmlns="http://www.w3.org/2000/svg" width="828" height="289" viewBox="0 0 828 289" fill="none"><rect width="828" height="289" fill="#1C383E"></rect><path d="M96.7822 115.015C93.271 115.015 90.2188 116.254 88.0386 118.595C88.1304 107.212 90.127 102.484 94.8086 102.484H95.4512C96.3003 102.484 96.438 102.645 96.7363 103.173L101.464 111.894H101.556L105.503 103.288C101.923 102.048 98.3428 101.543 95.3594 101.543C84.5044 101.543 78.9966 107.946 78.9966 119.742C78.9966 130.873 84.0225 137.505 93.5005 137.505C101.625 137.505 106.788 132.731 106.788 125.365C106.788 118.549 102.611 115.015 96.7822 115.015ZM92.6055 117.31C96.897 117.31 98.5264 121.44 98.5264 126.811C98.5264 133.03 96.3003 136.541 93.4087 136.541C90.1729 136.541 88.0386 132.227 88.0386 119.742V119.191C89.5303 117.906 91.0679 117.31 92.6055 117.31ZM128.223 115.015C124.711 115.015 121.659 116.254 119.479 118.595C119.571 107.212 121.567 102.484 126.249 102.484H126.892C127.741 102.484 127.878 102.645 128.177 103.173L132.904 111.894H132.996L136.943 103.288C133.363 102.048 129.783 101.543 126.8 101.543C115.945 101.543 110.437 107.946 110.437 119.742C110.437 130.873 115.463 137.505 124.941 137.505C133.065 137.505 138.229 132.731 138.229 125.365C138.229 118.549 134.052 115.015 128.223 115.015ZM124.046 117.31C128.337 117.31 129.967 121.44 129.967 126.811C129.967 133.03 127.741 136.541 124.849 136.541C121.613 136.541 119.479 132.227 119.479 119.742V119.191C120.971 117.906 122.508 117.31 124.046 117.31ZM149.634 102.278C151.47 102.278 151.769 104.32 151.769 109.002C151.769 113.569 151.47 115.657 149.634 115.657C147.844 115.657 147.592 113.569 147.592 108.956C147.592 104.32 147.844 102.278 149.634 102.278ZM149.634 101.543C144.769 101.543 142.566 104.527 142.566 108.956C142.566 113.431 144.769 116.415 149.634 116.415C154.614 116.415 156.794 113.431 156.794 109.002C156.794 104.481 154.614 101.543 149.634 101.543ZM163.794 123.322C165.63 123.322 165.928 125.365 165.928 130.046C165.928 134.613 165.63 136.702 163.794 136.702C162.004 136.702 161.751 134.613 161.751 130C161.751 125.365 162.004 123.322 163.794 123.322ZM163.794 122.588C158.929 122.588 156.726 125.571 156.726 130C156.726 134.476 158.929 137.459 163.794 137.459C168.774 137.459 170.954 134.476 170.954 130.046C170.954 125.525 168.774 122.588 163.794 122.588ZM170.128 102.347L168.544 101.245L143.484 136.61L145.067 137.757L170.128 102.347Z" fill="white"></path><path d="M80.6562 172.156C82.1875 172.156 83.6875 171.367 83.6875 169.578C83.6875 166.68 79.5 167.539 79.5 166.203C79.5 165.82 79.8438 165.539 80.5156 165.539C81.3594 165.539 81.8203 166.016 82.0703 166.477L83.5625 165.641C82.9922 164.609 81.9766 164.031 80.5078 164.031C78.7734 164.031 77.6719 164.969 77.6719 166.344C77.6719 169.367 81.8125 168.375 81.8125 169.805C81.8125 170.258 81.4062 170.578 80.5938 170.578C79.8516 170.578 79.2031 170.219 78.7734 169.375L77.3125 170.273C77.8516 171.523 78.9219 172.156 80.6562 172.156ZM84.6328 169.742C84.6328 171.242 85.6406 172.156 87.3516 172.156C88.4688 172.156 89.2969 171.719 89.8984 170.883L90.0234 172H91.5938V167.211C91.5938 165.289 90.3906 164.031 88.2891 164.031C86.8672 164.031 85.8047 164.57 84.9375 165.742L86.3984 166.797C86.8047 166.102 87.4531 165.695 88.2266 165.695C89.1484 165.695 89.7734 166.266 89.7734 167.344H87.7422C85.7422 167.344 84.6328 168.234 84.6328 169.742ZM87.7422 170.547C86.9844 170.547 86.5859 170.188 86.5859 169.656C86.5859 169.102 87.0156 168.719 87.8828 168.719H89.7734C89.7734 169.695 88.8516 170.547 87.7422 170.547ZM94 175.352H96.0703L100.531 164.188H98.5234L96.4531 169.422L94.5547 164.188H92.375L95.4609 171.844L94 175.352ZM108.25 172.156C108.789 172.156 109.367 172.031 109.656 171.922V170.195C109.398 170.32 108.969 170.477 108.57 170.477C108.07 170.477 107.688 170.258 107.688 169.508V165.75H109.656V164.188H107.688V160.961H105.828V164.188H104.539V165.75H105.797V169.844C105.797 171.266 106.711 172.156 108.25 172.156ZM111.125 160.953V172H113.031V167.648C113.031 166.32 113.68 165.711 114.766 165.711C115.648 165.711 116.281 166.328 116.281 167.547V172H118.188V167.312C118.188 165.195 117.055 164.031 115.336 164.031C114.445 164.031 113.617 164.422 113.031 165.102V160.953H111.125ZM123.68 172.156C124.992 172.156 126.031 171.695 126.883 170.75L125.57 169.602C125.016 170.219 124.438 170.461 123.719 170.461C122.68 170.461 121.93 169.938 121.742 168.719H127.102C127.148 168.492 127.172 168.266 127.172 167.969C127.172 166.227 126.289 164.031 123.555 164.031C121.258 164.031 119.727 165.695 119.727 168.125C119.727 170.531 121.188 172.156 123.68 172.156ZM123.539 165.633C124.555 165.633 125.203 166.281 125.297 167.344H121.75C121.93 166.172 122.594 165.633 123.539 165.633ZM129.695 162.953C130.297 162.953 130.773 162.477 130.773 161.875C130.773 161.289 130.297 160.797 129.695 160.797C129.094 160.797 128.617 161.289 128.617 161.875C128.617 162.477 129.094 162.953 129.695 162.953ZM128.734 164.188V172H130.641V164.188H128.734ZM132.828 164.188V172H134.672V168.703C134.672 167.086 135.523 165.891 136.828 165.891C137.234 165.891 137.469 165.961 137.648 166.031V164.141C137.477 164.086 137.195 164.031 136.781 164.031C135.875 164.031 135.109 164.594 134.688 165.594V164.188H132.828ZM142 164.188L144.398 172H146.117L147.617 166.883L149.156 172H150.875L153.312 164.188H151.281L149.945 169.086L148.469 164.188H146.844L145.375 169.086L144.031 164.188H142ZM157.867 172.156C159.18 172.156 160.219 171.695 161.07 170.75L159.758 169.602C159.203 170.219 158.625 170.461 157.906 170.461C156.867 170.461 156.117 169.938 155.93 168.719H161.289C161.336 168.492 161.359 168.266 161.359 167.969C161.359 166.227 160.477 164.031 157.742 164.031C155.445 164.031 153.914 165.695 153.914 168.125C153.914 170.531 155.375 172.156 157.867 172.156ZM157.727 165.633C158.742 165.633 159.391 166.281 159.484 167.344H155.938C156.117 166.172 156.781 165.633 157.727 165.633ZM162.922 172H164.828V171.211C165.367 171.883 166.242 172.156 167.062 172.156C169.188 172.156 170.445 170.422 170.445 168.094C170.445 165.742 169.188 164.031 167.031 164.031C166.195 164.031 165.367 164.305 164.828 164.961V160.953H162.922V172ZM166.555 165.703C167.867 165.703 168.461 166.75 168.461 168.094C168.461 169.422 167.867 170.484 166.555 170.484C165.242 170.484 164.664 169.438 164.664 168.094C164.664 166.734 165.242 165.703 166.555 165.703ZM174.688 172.156C176.219 172.156 177.719 171.367 177.719 169.578C177.719 166.68 173.531 167.539 173.531 166.203C173.531 165.82 173.875 165.539 174.547 165.539C175.391 165.539 175.852 166.016 176.102 166.477L177.594 165.641C177.023 164.609 176.008 164.031 174.539 164.031C172.805 164.031 171.703 164.969 171.703 166.344C171.703 169.367 175.844 168.375 175.844 169.805C175.844 170.258 175.438 170.578 174.625 170.578C173.883 170.578 173.234 170.219 172.805 169.375L171.344 170.273C171.883 171.523 172.953 172.156 174.688 172.156ZM180.32 162.953C180.922 162.953 181.398 162.477 181.398 161.875C181.398 161.289 180.922 160.797 180.32 160.797C179.719 160.797 179.242 161.289 179.242 161.875C179.242 162.477 179.719 162.953 180.32 162.953ZM179.359 164.188V172H181.266V164.188H179.359ZM186.266 172.156C186.805 172.156 187.383 172.031 187.672 171.922V170.195C187.414 170.32 186.984 170.477 186.586 170.477C186.086 170.477 185.703 170.258 185.703 169.508V165.75H187.672V164.188H185.703V160.961H183.844V164.188H182.555V165.75H183.812V169.844C183.812 171.266 184.727 172.156 186.266 172.156ZM192.695 172.156C194.008 172.156 195.047 171.695 195.898 170.75L194.586 169.602C194.031 170.219 193.453 170.461 192.734 170.461C191.695 170.461 190.945 169.938 190.758 168.719H196.117C196.164 168.492 196.188 168.266 196.188 167.969C196.188 166.227 195.305 164.031 192.57 164.031C190.273 164.031 188.742 165.695 188.742 168.125C188.742 170.531 190.203 172.156 192.695 172.156ZM192.555 165.633C193.57 165.633 194.219 166.281 194.312 167.344H190.766C190.945 166.172 191.609 165.633 192.555 165.633ZM201.594 160.953V172H203.5V167.648C203.5 166.32 204.148 165.711 205.234 165.711C206.117 165.711 206.75 166.328 206.75 167.547V172H208.656V167.312C208.656 165.195 207.523 164.031 205.805 164.031C204.914 164.031 204.086 164.422 203.5 165.102V160.953H201.594ZM210.102 169.742C210.102 171.242 211.109 172.156 212.82 172.156C213.938 172.156 214.766 171.719 215.367 170.883L215.492 172H217.062V167.211C217.062 165.289 215.859 164.031 213.758 164.031C212.336 164.031 211.273 164.57 210.406 165.742L211.867 166.797C212.273 166.102 212.922 165.695 213.695 165.695C214.617 165.695 215.242 166.266 215.242 167.344H213.211C211.211 167.344 210.102 168.234 210.102 169.742ZM213.211 170.547C212.453 170.547 212.055 170.188 212.055 169.656C212.055 169.102 212.484 168.719 213.352 168.719H215.242C215.242 169.695 214.32 170.547 213.211 170.547ZM221.656 172.156C223.188 172.156 224.688 171.367 224.688 169.578C224.688 166.68 220.5 167.539 220.5 166.203C220.5 165.82 220.844 165.539 221.516 165.539C222.359 165.539 222.82 166.016 223.07 166.477L224.562 165.641C223.992 164.609 222.977 164.031 221.508 164.031C219.773 164.031 218.672 164.969 218.672 166.344C218.672 169.367 222.812 168.375 222.812 169.805C222.812 170.258 222.406 170.578 221.594 170.578C220.852 170.578 220.203 170.219 219.773 169.375L218.312 170.273C218.852 171.523 219.922 172.156 221.656 172.156ZM78.0938 181.953V193H80V188.648C80 187.32 80.6484 186.711 81.7344 186.711C82.6172 186.711 83.25 187.328 83.25 188.547V193H85.1562V188.312C85.1562 186.195 84.0234 185.031 82.3047 185.031C81.4141 185.031 80.5859 185.422 80 186.102V181.953H78.0938ZM90.6484 193.156C91.9609 193.156 93 192.695 93.8516 191.75L92.5391 190.602C91.9844 191.219 91.4062 191.461 90.6875 191.461C89.6484 191.461 88.8984 190.938 88.7109 189.719H94.0703C94.1172 189.492 94.1406 189.266 94.1406 188.969C94.1406 187.227 93.2578 185.031 90.5234 185.031C88.2266 185.031 86.6953 186.695 86.6953 189.125C86.6953 191.531 88.1562 193.156 90.6484 193.156ZM90.5078 186.633C91.5234 186.633 92.1719 187.281 92.2656 188.344H88.7188C88.8984 187.172 89.5625 186.633 90.5078 186.633ZM95.7031 193H97.6094V181.953H95.7031V193ZM99.7969 196.234H101.703V192.211C102.242 192.883 103.117 193.156 103.938 193.156C106.062 193.156 107.32 191.422 107.32 189.094C107.32 186.742 106.062 185.031 103.906 185.031C103.07 185.031 102.242 185.305 101.703 185.961V185.188H99.7969V196.234ZM103.43 186.703C104.742 186.703 105.336 187.75 105.336 189.094C105.336 190.422 104.742 191.484 103.43 191.484C102.117 191.484 101.539 190.438 101.539 189.094C101.539 187.734 102.117 186.703 103.43 186.703ZM112.383 193.156C113.695 193.156 114.734 192.695 115.586 191.75L114.273 190.602C113.719 191.219 113.141 191.461 112.422 191.461C111.383 191.461 110.633 190.938 110.445 189.719H115.805C115.852 189.492 115.875 189.266 115.875 188.969C115.875 187.227 114.992 185.031 112.258 185.031C109.961 185.031 108.43 186.695 108.43 189.125C108.43 191.531 109.891 193.156 112.383 193.156ZM112.242 186.633C113.258 186.633 113.906 187.281 114 188.344H110.453C110.633 187.172 111.297 186.633 112.242 186.633ZM124.453 181.953H122.547V185.977C122.008 185.305 121.133 185.031 120.312 185.031C118.188 185.031 116.93 186.766 116.93 189.094C116.93 191.445 118.188 193.156 120.344 193.156C121.18 193.156 122.008 192.883 122.547 192.227V193H124.453V181.953ZM120.82 191.484C119.508 191.484 118.914 190.438 118.914 189.094C118.914 187.766 119.508 186.703 120.82 186.703C122.133 186.703 122.711 187.75 122.711 189.094C122.711 190.453 122.133 191.484 120.82 191.484ZM133.297 193.156C133.836 193.156 134.414 193.031 134.703 192.922V191.195C134.445 191.32 134.016 191.477 133.617 191.477C133.117 191.477 132.734 191.258 132.734 190.508V186.75H134.703V185.188H132.734V181.961H130.875V185.188H129.586V186.75H130.844V190.844C130.844 192.266 131.758 193.156 133.297 193.156ZM136.172 181.953V193H138.078V188.648C138.078 187.32 138.727 186.711 139.812 186.711C140.695 186.711 141.328 187.328 141.328 188.547V193H143.234V188.312C143.234 186.195 142.102 185.031 140.383 185.031C139.492 185.031 138.664 185.422 138.078 186.102V181.953H136.172ZM148.727 193.156C150.039 193.156 151.078 192.695 151.93 191.75L150.617 190.602C150.062 191.219 149.484 191.461 148.766 191.461C147.727 191.461 146.977 190.938 146.789 189.719H152.148C152.195 189.492 152.219 189.266 152.219 188.969C152.219 187.227 151.336 185.031 148.602 185.031C146.305 185.031 144.773 186.695 144.773 189.125C144.773 191.531 146.234 193.156 148.727 193.156ZM148.586 186.633C149.602 186.633 150.25 187.281 150.344 188.344H146.797C146.977 187.172 147.641 186.633 148.586 186.633ZM154.742 183.953C155.344 183.953 155.82 183.477 155.82 182.875C155.82 182.289 155.344 181.797 154.742 181.797C154.141 181.797 153.664 182.289 153.664 182.875C153.664 183.477 154.141 183.953 154.742 183.953ZM153.781 185.188V193H155.688V185.188H153.781ZM157.875 185.188V193H159.719V189.703C159.719 188.086 160.57 186.891 161.875 186.891C162.281 186.891 162.516 186.961 162.695 187.031V185.141C162.523 185.086 162.242 185.031 161.828 185.031C160.922 185.031 160.156 185.594 159.734 186.594V185.188H157.875ZM168.062 193H169.969V192.211C170.508 192.883 171.383 193.156 172.203 193.156C174.328 193.156 175.586 191.422 175.586 189.094C175.586 186.742 174.328 185.031 172.172 185.031C171.336 185.031 170.508 185.305 169.969 185.961V181.953H168.062V193ZM171.695 186.703C173.008 186.703 173.602 187.75 173.602 189.094C173.602 190.422 173.008 191.484 171.695 191.484C170.383 191.484 169.805 190.438 169.805 189.094C169.805 187.734 170.383 186.703 171.695 186.703ZM184.234 193V185.188H182.328V189.539C182.328 190.867 181.68 191.477 180.594 191.477C179.711 191.477 179.078 190.859 179.078 189.641V185.188H177.172V189.875C177.172 191.992 178.305 193.156 180.023 193.156C180.914 193.156 181.742 192.766 182.328 192.086V193H184.234ZM188.984 193.156C190.516 193.156 192.016 192.367 192.016 190.578C192.016 187.68 187.828 188.539 187.828 187.203C187.828 186.82 188.172 186.539 188.844 186.539C189.688 186.539 190.148 187.016 190.398 187.477L191.891 186.641C191.32 185.609 190.305 185.031 188.836 185.031C187.102 185.031 186 185.969 186 187.344C186 190.367 190.141 189.375 190.141 190.805C190.141 191.258 189.734 191.578 188.922 191.578C188.18 191.578 187.531 191.219 187.102 190.375L185.641 191.273C186.18 192.523 187.25 193.156 188.984 193.156ZM194.617 183.953C195.219 183.953 195.695 183.477 195.695 182.875C195.695 182.289 195.219 181.797 194.617 181.797C194.016 181.797 193.539 182.289 193.539 182.875C193.539 183.477 194.016 183.953 194.617 183.953ZM193.656 185.188V193H195.562V185.188H193.656ZM197.75 185.188V193H199.656V188.648C199.656 187.32 200.305 186.711 201.391 186.711C202.273 186.711 202.906 187.328 202.906 188.547V193H204.812V188.312C204.812 186.195 203.68 185.031 201.961 185.031C201.07 185.031 200.242 185.422 199.656 186.102V185.188H197.75ZM210.305 193.156C211.617 193.156 212.656 192.695 213.508 191.75L212.195 190.602C211.641 191.219 211.062 191.461 210.344 191.461C209.305 191.461 208.555 190.938 208.367 189.719H213.727C213.773 189.492 213.797 189.266 213.797 188.969C213.797 187.227 212.914 185.031 210.18 185.031C207.883 185.031 206.352 186.695 206.352 189.125C206.352 191.531 207.812 193.156 210.305 193.156ZM210.164 186.633C211.18 186.633 211.828 187.281 211.922 188.344H208.375C208.555 187.172 209.219 186.633 210.164 186.633ZM217.922 193.156C219.453 193.156 220.953 192.367 220.953 190.578C220.953 187.68 216.766 188.539 216.766 187.203C216.766 186.82 217.109 186.539 217.781 186.539C218.625 186.539 219.086 187.016 219.336 187.477L220.828 186.641C220.258 185.609 219.242 185.031 217.773 185.031C216.039 185.031 214.938 185.969 214.938 187.344C214.938 190.367 219.078 189.375 219.078 190.805C219.078 191.258 218.672 191.578 217.859 191.578C217.117 191.578 216.469 191.219 216.039 190.375L214.578 191.273C215.117 192.523 216.188 193.156 217.922 193.156ZM225.156 193.156C226.688 193.156 228.188 192.367 228.188 190.578C228.188 187.68 224 188.539 224 187.203C224 186.82 224.344 186.539 225.016 186.539C225.859 186.539 226.32 187.016 226.57 187.477L228.062 186.641C227.492 185.609 226.477 185.031 225.008 185.031C223.273 185.031 222.172 185.969 222.172 187.344C222.172 190.367 226.312 189.375 226.312 190.805C226.312 191.258 225.906 191.578 225.094 191.578C224.352 191.578 223.703 191.219 223.273 190.375L221.812 191.273C222.352 192.523 223.422 193.156 225.156 193.156ZM233.008 190.742C233.008 192.242 234.016 193.156 235.727 193.156C236.844 193.156 237.672 192.719 238.273 191.883L238.398 193H239.969V188.211C239.969 186.289 238.766 185.031 236.664 185.031C235.242 185.031 234.18 185.57 233.312 186.742L234.773 187.797C235.18 187.102 235.828 186.695 236.602 186.695C237.523 186.695 238.148 187.266 238.148 188.344H236.117C234.117 188.344 233.008 189.234 233.008 190.742ZM236.117 191.547C235.359 191.547 234.961 191.188 234.961 190.656C234.961 190.102 235.391 189.719 236.258 189.719H238.148C238.148 190.695 237.227 191.547 236.117 191.547ZM249.016 181.953H247.109V185.977C246.57 185.305 245.695 185.031 244.875 185.031C242.75 185.031 241.492 186.766 241.492 189.094C241.492 191.445 242.75 193.156 244.906 193.156C245.742 193.156 246.57 192.883 247.109 192.227V193H249.016V181.953ZM245.383 191.484C244.07 191.484 243.477 190.438 243.477 189.094C243.477 187.766 244.07 186.703 245.383 186.703C246.695 186.703 247.273 187.75 247.273 189.094C247.273 190.453 246.695 191.484 245.383 191.484ZM250.539 190.742C250.539 192.242 251.547 193.156 253.258 193.156C254.375 193.156 255.203 192.719 255.805 191.883L255.93 193H257.5V188.211C257.5 186.289 256.297 185.031 254.195 185.031C252.773 185.031 251.711 185.57 250.844 186.742L252.305 187.797C252.711 187.102 253.359 186.695 254.133 186.695C255.055 186.695 255.68 187.266 255.68 188.344H253.648C251.648 188.344 250.539 189.234 250.539 190.742ZM253.648 191.547C252.891 191.547 252.492 191.188 252.492 190.656C252.492 190.102 252.922 189.719 253.789 189.719H255.68C255.68 190.695 254.758 191.547 253.648 191.547ZM259.531 196.234H261.438V192.211C261.977 192.883 262.852 193.156 263.672 193.156C265.797 193.156 267.055 191.422 267.055 189.094C267.055 186.742 265.797 185.031 263.641 185.031C262.805 185.031 261.977 185.305 261.438 185.961V185.188H259.531V196.234ZM263.164 186.703C264.477 186.703 265.07 187.75 265.07 189.094C265.07 190.422 264.477 191.484 263.164 191.484C261.852 191.484 261.273 190.438 261.273 189.094C261.273 187.734 261.852 186.703 263.164 186.703ZM271.531 193.156C272.07 193.156 272.648 193.031 272.938 192.922V191.195C272.68 191.32 272.25 191.477 271.852 191.477C271.352 191.477 270.969 191.258 270.969 190.508V186.75H272.938V185.188H270.969V181.961H269.109V185.188H267.82V186.75H269.078V190.844C269.078 192.266 269.992 193.156 271.531 193.156ZM85.1094 202.953H83.2031V206.977C82.6641 206.305 81.7891 206.031 80.9688 206.031C78.8438 206.031 77.5859 207.766 77.5859 210.094C77.5859 212.445 78.8438 214.156 81 214.156C81.8359 214.156 82.6641 213.883 83.2031 213.227V214H85.1094V202.953ZM81.4766 212.484C80.1641 212.484 79.5703 211.438 79.5703 210.094C79.5703 208.766 80.1641 207.703 81.4766 207.703C82.7891 207.703 83.3672 208.75 83.3672 210.094C83.3672 211.453 82.7891 212.484 81.4766 212.484ZM94.2812 214V206.188H92.375V210.539C92.375 211.867 91.7266 212.477 90.6406 212.477C89.7578 212.477 89.125 211.859 89.125 210.641V206.188H87.2188V210.875C87.2188 212.992 88.3516 214.156 90.0703 214.156C90.9609 214.156 91.7891 213.766 92.375 213.086V214H94.2812ZM96.4688 206.188V214H98.3125V210.703C98.3125 209.086 99.1641 207.891 100.469 207.891C100.875 207.891 101.109 207.961 101.289 208.031V206.141C101.117 206.086 100.836 206.031 100.422 206.031C99.5156 206.031 98.75 206.594 98.3281 207.594V206.188H96.4688ZM103.773 204.953C104.375 204.953 104.852 204.477 104.852 203.875C104.852 203.289 104.375 202.797 103.773 202.797C103.172 202.797 102.695 203.289 102.695 203.875C102.695 204.477 103.172 204.953 103.773 204.953ZM102.812 206.188V214H104.719V206.188H102.812ZM106.906 206.188V214H108.812V209.648C108.812 208.32 109.461 207.711 110.547 207.711C111.43 207.711 112.062 208.328 112.062 209.547V214H113.969V209.312C113.969 207.195 112.836 206.031 111.117 206.031C110.227 206.031 109.398 206.422 108.812 207.102V206.188H106.906ZM121.188 213.969C121.188 215.188 120.555 215.727 119.453 215.727C118.398 215.727 117.711 215.203 117.406 214.656L115.945 215.711C116.633 216.672 117.688 217.391 119.422 217.391C121.742 217.391 123.086 216.094 123.086 213.969L123.094 206.188H121.188V206.977C120.648 206.305 119.773 206.031 118.953 206.031C116.828 206.031 115.57 207.734 115.57 210.016C115.57 212.32 116.828 214 118.984 214C119.82 214 120.648 213.727 121.188 213.07V213.969ZM119.461 212.328C118.148 212.328 117.555 211.312 117.555 210.016C117.555 208.734 118.148 207.703 119.461 207.703C120.773 207.703 121.352 208.719 121.352 210.016C121.352 211.328 120.773 212.328 119.461 212.328ZM134.062 214.156C136.531 214.156 138.094 213.102 138.961 210.977L137.125 210.227C136.531 211.688 135.586 212.281 134.102 212.281C132.094 212.281 130.797 210.977 130.797 208.43C130.797 206.047 132.062 204.672 134.102 204.672C135.703 204.672 136.625 205.391 137.094 206.703L138.945 205.969C138.07 203.867 136.516 202.797 134.102 202.797C130.828 202.797 128.734 205.023 128.734 208.508C128.734 212.07 130.906 214.156 134.062 214.156ZM145.328 214.156C148.969 214.156 150.641 211.484 150.641 208.477C150.641 205.469 148.969 202.797 145.328 202.797C141.688 202.797 140.016 205.469 140.016 208.477C140.016 211.484 141.688 214.156 145.328 214.156ZM145.328 212.359C142.953 212.359 142.078 210.539 142.078 208.477C142.078 206.414 142.953 204.594 145.328 204.594C147.703 204.594 148.578 206.414 148.578 208.477C148.578 210.539 147.703 212.359 145.328 212.359ZM151.234 202.953L155.672 214H157.141L161.523 202.953H159.367L156.438 210.82L153.43 202.953H151.234ZM163.031 202.953V214H165.016V202.953H163.031ZM167.828 202.953V214H170.992C174.766 214 176.836 212 176.836 208.477C176.836 204.969 174.828 202.953 170.992 202.953H167.828ZM170.992 212.18H169.812V204.773H171C173.711 204.773 174.773 205.852 174.773 208.477C174.773 211.234 173.25 212.18 170.992 212.18ZM178.695 208.75V210.188H183.258V208.75H178.695ZM187.203 205.953V214H189.156V202.961H187.281C187.281 203.945 186.398 204.445 185.062 204.445V205.953H187.203ZM192.922 213.992H195.188L198.078 209.242C198.859 207.969 199.094 207.336 199.094 206.578C199.094 204.469 197.32 202.797 195.078 202.797C192.742 202.797 191.047 204.617 191.047 206.664C191.047 208.922 192.734 210.359 195 210.359H195.305L192.922 213.992ZM195.062 208.648C193.93 208.648 192.984 207.75 192.984 206.648C192.984 205.547 193.93 204.648 195.062 204.648C196.211 204.648 197.156 205.547 197.156 206.648C197.156 207.75 196.211 208.648 195.062 208.648Z" fill="#9FFFB8"></path><path d="M345.782 115.015C342.271 115.015 339.219 116.254 337.039 118.595C337.13 107.212 339.127 102.484 343.809 102.484H344.451C345.3 102.484 345.438 102.645 345.736 103.173L350.464 111.894H350.556L354.503 103.288C350.923 102.048 347.343 101.543 344.359 101.543C333.504 101.543 327.997 107.946 327.997 119.742C327.997 130.873 333.022 137.505 342.5 137.505C350.625 137.505 355.788 132.731 355.788 125.365C355.788 118.549 351.611 115.015 345.782 115.015ZM341.605 117.31C345.897 117.31 347.526 121.44 347.526 126.811C347.526 133.03 345.3 136.541 342.409 136.541C339.173 136.541 337.039 132.227 337.039 119.742V119.191C338.53 117.906 340.068 117.31 341.605 117.31ZM382.363 110.999C382.363 105.468 378.347 101.543 370.43 101.543C365.909 101.543 361.388 102.829 358.198 104.366L362.076 113.385H362.191L366.414 103.379C366.597 102.943 366.758 102.783 367.148 102.691C367.492 102.576 367.951 102.53 368.456 102.53C371.371 102.53 373.321 105.169 373.321 110.7C373.321 115.129 371.921 118.411 368.502 123.414C367.309 125.158 365.863 127.109 363.912 129.45L357.716 136.908V137H381.124L382.868 125.709H382.776L379.495 129.289C378.737 130.092 378.646 130.184 377.246 130.184H364.371L366.551 128.738C375.501 122.978 382.363 118.113 382.363 110.999ZM394.458 102.278C396.293 102.278 396.592 104.32 396.592 109.002C396.592 113.569 396.293 115.657 394.458 115.657C392.667 115.657 392.415 113.569 392.415 108.956C392.415 104.32 392.667 102.278 394.458 102.278ZM394.458 101.543C389.592 101.543 387.389 104.527 387.389 108.956C387.389 113.431 389.592 116.415 394.458 116.415C399.438 116.415 401.618 113.431 401.618 109.002C401.618 104.481 399.438 101.543 394.458 101.543ZM408.617 123.322C410.453 123.322 410.751 125.365 410.751 130.046C410.751 134.613 410.453 136.702 408.617 136.702C406.827 136.702 406.575 134.613 406.575 130C406.575 125.365 406.827 123.322 408.617 123.322ZM408.617 122.588C403.752 122.588 401.549 125.571 401.549 130C401.549 134.476 403.752 137.459 408.617 137.459C413.597 137.459 415.777 134.476 415.777 130.046C415.777 125.525 413.597 122.588 408.617 122.588ZM414.951 102.347L413.368 101.245L388.307 136.61L389.891 137.757L414.951 102.347Z" fill="white"></path><path d="M330.477 172.156C331.789 172.156 332.828 171.695 333.68 170.75L332.367 169.602C331.812 170.219 331.234 170.461 330.516 170.461C329.477 170.461 328.727 169.938 328.539 168.719H333.898C333.945 168.492 333.969 168.266 333.969 167.969C333.969 166.227 333.086 164.031 330.352 164.031C328.055 164.031 326.523 165.695 326.523 168.125C326.523 170.531 327.984 172.156 330.477 172.156ZM330.336 165.633C331.352 165.633 332 166.281 332.094 167.344H328.547C328.727 166.172 329.391 165.633 330.336 165.633ZM337.102 168.125L334.453 172H336.734L338.352 169.391L339.969 172H342.289L339.641 168.062L342.289 164.188H340.008L338.391 166.797L336.773 164.188H334.453L337.102 168.125ZM343.469 175.234H345.375V171.211C345.914 171.883 346.789 172.156 347.609 172.156C349.734 172.156 350.992 170.422 350.992 168.094C350.992 165.742 349.734 164.031 347.578 164.031C346.742 164.031 345.914 164.305 345.375 164.961V164.188H343.469V175.234ZM347.102 165.703C348.414 165.703 349.008 166.75 349.008 168.094C349.008 169.422 348.414 170.484 347.102 170.484C345.789 170.484 345.211 169.438 345.211 168.094C345.211 166.734 345.789 165.703 347.102 165.703ZM356.055 172.156C357.367 172.156 358.406 171.695 359.258 170.75L357.945 169.602C357.391 170.219 356.812 170.461 356.094 170.461C355.055 170.461 354.305 169.938 354.117 168.719H359.477C359.523 168.492 359.547 168.266 359.547 167.969C359.547 166.227 358.664 164.031 355.93 164.031C353.633 164.031 352.102 165.695 352.102 168.125C352.102 170.531 353.562 172.156 356.055 172.156ZM355.914 165.633C356.93 165.633 357.578 166.281 357.672 167.344H354.125C354.305 166.172 354.969 165.633 355.914 165.633ZM364.305 172.156C366.07 172.156 367.219 171.344 367.734 169.844L365.977 169.188C365.766 169.984 365.172 170.484 364.414 170.484C363.289 170.484 362.547 169.656 362.547 168.078C362.547 166.477 363.328 165.703 364.336 165.703C365.133 165.703 365.68 166.18 365.898 167.016L367.711 166.312C367.125 164.75 365.961 164.031 364.328 164.031C361.977 164.031 360.562 165.602 360.562 168.109C360.562 170.586 361.953 172.156 364.305 172.156ZM371.953 172.156C372.492 172.156 373.07 172.031 373.359 171.922V170.195C373.102 170.32 372.672 170.477 372.273 170.477C371.773 170.477 371.391 170.258 371.391 169.508V165.75H373.359V164.188H371.391V160.961H369.531V164.188H368.242V165.75H369.5V169.844C369.5 171.266 370.414 172.156 371.953 172.156ZM378.844 172H380.75V171.211C381.289 171.883 382.164 172.156 382.984 172.156C385.109 172.156 386.367 170.422 386.367 168.094C386.367 165.742 385.109 164.031 382.953 164.031C382.117 164.031 381.289 164.305 380.75 164.961V160.953H378.844V172ZM382.477 165.703C383.789 165.703 384.383 166.75 384.383 168.094C384.383 169.422 383.789 170.484 382.477 170.484C381.164 170.484 380.586 169.438 380.586 168.094C380.586 166.734 381.164 165.703 382.477 165.703ZM395.016 172V164.188H393.109V168.539C393.109 169.867 392.461 170.477 391.375 170.477C390.492 170.477 389.859 169.859 389.859 168.641V164.188H387.953V168.875C387.953 170.992 389.086 172.156 390.805 172.156C391.695 172.156 392.523 171.766 393.109 171.086V172H395.016ZM399.766 172.156C401.297 172.156 402.797 171.367 402.797 169.578C402.797 166.68 398.609 167.539 398.609 166.203C398.609 165.82 398.953 165.539 399.625 165.539C400.469 165.539 400.93 166.016 401.18 166.477L402.672 165.641C402.102 164.609 401.086 164.031 399.617 164.031C397.883 164.031 396.781 164.969 396.781 166.344C396.781 169.367 400.922 168.375 400.922 169.805C400.922 170.258 400.516 170.578 399.703 170.578C398.961 170.578 398.312 170.219 397.883 169.375L396.422 170.273C396.961 171.523 398.031 172.156 399.766 172.156ZM405.398 162.953C406 162.953 406.477 162.477 406.477 161.875C406.477 161.289 406 160.797 405.398 160.797C404.797 160.797 404.32 161.289 404.32 161.875C404.32 162.477 404.797 162.953 405.398 162.953ZM404.438 164.188V172H406.344V164.188H404.438ZM408.531 164.188V172H410.438V167.648C410.438 166.32 411.086 165.711 412.172 165.711C413.055 165.711 413.688 166.328 413.688 167.547V172H415.594V167.312C415.594 165.195 414.461 164.031 412.742 164.031C411.852 164.031 411.023 164.422 410.438 165.102V164.188H408.531ZM421.086 172.156C422.398 172.156 423.438 171.695 424.289 170.75L422.977 169.602C422.422 170.219 421.844 170.461 421.125 170.461C420.086 170.461 419.336 169.938 419.148 168.719H424.508C424.555 168.492 424.578 168.266 424.578 167.969C424.578 166.227 423.695 164.031 420.961 164.031C418.664 164.031 417.133 165.695 417.133 168.125C417.133 170.531 418.594 172.156 421.086 172.156ZM420.945 165.633C421.961 165.633 422.609 166.281 422.703 167.344H419.156C419.336 166.172 420 165.633 420.945 165.633ZM428.703 172.156C430.234 172.156 431.734 171.367 431.734 169.578C431.734 166.68 427.547 167.539 427.547 166.203C427.547 165.82 427.891 165.539 428.562 165.539C429.406 165.539 429.867 166.016 430.117 166.477L431.609 165.641C431.039 164.609 430.023 164.031 428.555 164.031C426.82 164.031 425.719 164.969 425.719 166.344C425.719 169.367 429.859 168.375 429.859 169.805C429.859 170.258 429.453 170.578 428.641 170.578C427.898 170.578 427.25 170.219 426.82 169.375L425.359 170.273C425.898 171.523 426.969 172.156 428.703 172.156ZM435.938 172.156C437.469 172.156 438.969 171.367 438.969 169.578C438.969 166.68 434.781 167.539 434.781 166.203C434.781 165.82 435.125 165.539 435.797 165.539C436.641 165.539 437.102 166.016 437.352 166.477L438.844 165.641C438.273 164.609 437.258 164.031 435.789 164.031C434.055 164.031 432.953 164.969 432.953 166.344C432.953 169.367 437.094 168.375 437.094 169.805C437.094 170.258 436.688 170.578 435.875 170.578C435.133 170.578 434.484 170.219 434.055 169.375L432.594 170.273C433.133 171.523 434.203 172.156 435.938 172.156ZM447.648 172.156C449.414 172.156 450.562 171.344 451.078 169.844L449.32 169.188C449.109 169.984 448.516 170.484 447.758 170.484C446.633 170.484 445.891 169.656 445.891 168.078C445.891 166.477 446.672 165.703 447.68 165.703C448.477 165.703 449.023 166.18 449.242 167.016L451.055 166.312C450.469 164.75 449.305 164.031 447.672 164.031C445.32 164.031 443.906 165.602 443.906 168.109C443.906 170.586 445.297 172.156 447.648 172.156ZM459.859 168.094C459.859 165.844 458.273 164.031 455.859 164.031C453.445 164.031 451.859 165.844 451.859 168.094C451.859 170.344 453.445 172.156 455.859 172.156C458.273 172.156 459.859 170.344 459.859 168.094ZM457.875 168.094C457.875 169.383 457.297 170.484 455.859 170.484C454.414 170.484 453.844 169.383 453.844 168.094C453.844 166.805 454.422 165.703 455.859 165.703C457.305 165.703 457.875 166.805 457.875 168.094ZM461.422 164.188V172H463.328V167.648C463.328 166.32 463.977 165.711 465.062 165.711C465.945 165.711 466.578 166.328 466.578 167.547V172H468.484V167.312C468.484 165.195 467.352 164.031 465.633 164.031C464.742 164.031 463.914 164.422 463.328 165.102V164.188H461.422ZM477.609 160.953H475.703V164.977C475.164 164.305 474.289 164.031 473.469 164.031C471.344 164.031 470.086 165.766 470.086 168.094C470.086 170.445 471.344 172.156 473.5 172.156C474.336 172.156 475.164 171.883 475.703 171.227V172H477.609V160.953ZM473.977 170.484C472.664 170.484 472.07 169.438 472.07 168.094C472.07 166.766 472.664 165.703 473.977 165.703C475.289 165.703 475.867 166.75 475.867 168.094C475.867 169.453 475.289 170.484 473.977 170.484ZM480.758 162.953C481.359 162.953 481.836 162.477 481.836 161.875C481.836 161.289 481.359 160.797 480.758 160.797C480.156 160.797 479.68 161.289 479.68 161.875C479.68 162.477 480.156 162.953 480.758 162.953ZM479.797 164.188V172H481.703V164.188H479.797ZM486.703 172.156C487.242 172.156 487.82 172.031 488.109 171.922V170.195C487.852 170.32 487.422 170.477 487.023 170.477C486.523 170.477 486.141 170.258 486.141 169.508V165.75H488.109V164.188H486.141V160.961H484.281V164.188H482.992V165.75H484.25V169.844C484.25 171.266 485.164 172.156 486.703 172.156ZM490.711 162.953C491.312 162.953 491.789 162.477 491.789 161.875C491.789 161.289 491.312 160.797 490.711 160.797C490.109 160.797 489.633 161.289 489.633 161.875C489.633 162.477 490.109 162.953 490.711 162.953ZM489.75 164.188V172H491.656V164.188H489.75ZM501.219 168.094C501.219 165.844 499.633 164.031 497.219 164.031C494.805 164.031 493.219 165.844 493.219 168.094C493.219 170.344 494.805 172.156 497.219 172.156C499.633 172.156 501.219 170.344 501.219 168.094ZM499.234 168.094C499.234 169.383 498.656 170.484 497.219 170.484C495.773 170.484 495.203 169.383 495.203 168.094C495.203 166.805 495.781 165.703 497.219 165.703C498.664 165.703 499.234 166.805 499.234 168.094ZM502.781 164.188V172H504.688V167.648C504.688 166.32 505.336 165.711 506.422 165.711C507.305 165.711 507.938 166.328 507.938 167.547V172H509.844V167.312C509.844 165.195 508.711 164.031 506.992 164.031C506.102 164.031 505.273 164.422 504.688 165.102V164.188H502.781ZM514.516 172.156C516.047 172.156 517.547 171.367 517.547 169.578C517.547 166.68 513.359 167.539 513.359 166.203C513.359 165.82 513.703 165.539 514.375 165.539C515.219 165.539 515.68 166.016 515.93 166.477L517.422 165.641C516.852 164.609 515.836 164.031 514.367 164.031C512.633 164.031 511.531 164.969 511.531 166.344C511.531 169.367 515.672 168.375 515.672 169.805C515.672 170.258 515.266 170.578 514.453 170.578C513.711 170.578 513.062 170.219 512.633 169.375L511.172 170.273C511.711 171.523 512.781 172.156 514.516 172.156ZM327.703 186.75V193H329.609V186.75H331.43V185.188H329.609V184.344C329.609 183.734 330.078 183.492 330.461 183.492C330.852 183.492 331.188 183.594 331.43 183.711V182.039C331.016 181.875 330.617 181.797 330.125 181.797C328.859 181.797 327.703 182.664 327.703 184.438V185.188H326.273V186.75H327.703ZM339.984 189.094C339.984 186.844 338.398 185.031 335.984 185.031C333.57 185.031 331.984 186.844 331.984 189.094C331.984 191.344 333.57 193.156 335.984 193.156C338.398 193.156 339.984 191.344 339.984 189.094ZM338 189.094C338 190.383 337.422 191.484 335.984 191.484C334.539 191.484 333.969 190.383 333.969 189.094C333.969 187.805 334.547 186.703 335.984 186.703C337.43 186.703 338 187.805 338 189.094ZM341.547 185.188V193H343.391V189.703C343.391 188.086 344.242 186.891 345.547 186.891C345.953 186.891 346.188 186.961 346.367 187.031V185.141C346.195 185.086 345.914 185.031 345.5 185.031C344.594 185.031 343.828 185.594 343.406 186.594V185.188H341.547ZM354.547 193.156C355.086 193.156 355.664 193.031 355.953 192.922V191.195C355.695 191.32 355.266 191.477 354.867 191.477C354.367 191.477 353.984 191.258 353.984 190.508V186.75H355.953V185.188H353.984V181.961H352.125V185.188H350.836V186.75H352.094V190.844C352.094 192.266 353.008 193.156 354.547 193.156ZM357.422 181.953V193H359.328V188.648C359.328 187.32 359.977 186.711 361.062 186.711C361.945 186.711 362.578 187.328 362.578 188.547V193H364.484V188.312C364.484 186.195 363.352 185.031 361.633 185.031C360.742 185.031 359.914 185.422 359.328 186.102V181.953H357.422ZM369.977 193.156C371.289 193.156 372.328 192.695 373.18 191.75L371.867 190.602C371.312 191.219 370.734 191.461 370.016 191.461C368.977 191.461 368.227 190.938 368.039 189.719H373.398C373.445 189.492 373.469 189.266 373.469 188.969C373.469 187.227 372.586 185.031 369.852 185.031C367.555 185.031 366.023 186.695 366.023 189.125C366.023 191.531 367.484 193.156 369.977 193.156ZM369.836 186.633C370.852 186.633 371.5 187.281 371.594 188.344H368.047C368.227 187.172 368.891 186.633 369.836 186.633ZM375.992 183.953C376.594 183.953 377.07 183.477 377.07 182.875C377.07 182.289 376.594 181.797 375.992 181.797C375.391 181.797 374.914 182.289 374.914 182.875C374.914 183.477 375.391 183.953 375.992 183.953ZM375.031 185.188V193H376.938V185.188H375.031ZM379.125 185.188V193H380.969V189.703C380.969 188.086 381.82 186.891 383.125 186.891C383.531 186.891 383.766 186.961 383.945 187.031V185.141C383.773 185.086 383.492 185.031 383.078 185.031C382.172 185.031 381.406 185.594 380.984 186.594V185.188H379.125ZM392.508 193.156C394.273 193.156 395.422 192.344 395.938 190.844L394.18 190.188C393.969 190.984 393.375 191.484 392.617 191.484C391.492 191.484 390.75 190.656 390.75 189.078C390.75 187.477 391.531 186.703 392.539 186.703C393.336 186.703 393.883 187.18 394.102 188.016L395.914 187.312C395.328 185.75 394.164 185.031 392.531 185.031C390.18 185.031 388.766 186.602 388.766 189.109C388.766 191.586 390.156 193.156 392.508 193.156ZM404.719 189.094C404.719 186.844 403.133 185.031 400.719 185.031C398.305 185.031 396.719 186.844 396.719 189.094C396.719 191.344 398.305 193.156 400.719 193.156C403.133 193.156 404.719 191.344 404.719 189.094ZM402.734 189.094C402.734 190.383 402.156 191.484 400.719 191.484C399.273 191.484 398.703 190.383 398.703 189.094C398.703 187.805 399.281 186.703 400.719 186.703C402.164 186.703 402.734 187.805 402.734 189.094ZM406.281 185.188V193H408.188V188.648C408.188 187.32 408.773 186.711 409.758 186.711C410.617 186.711 411.125 187.32 411.125 188.547V193H413.031V188.5C413.031 187.172 413.672 186.711 414.602 186.711C415.461 186.711 415.969 187.32 415.969 188.547V193H417.875V188.312C417.875 186.156 416.781 185.031 415.055 185.031C413.961 185.031 413.164 185.406 412.531 186.305C412.07 185.477 411.32 185.031 410.406 185.031C409.5 185.031 408.742 185.406 408.188 186.102V185.188H406.281ZM419.984 196.234H421.891V192.211C422.43 192.883 423.305 193.156 424.125 193.156C426.25 193.156 427.508 191.422 427.508 189.094C427.508 186.742 426.25 185.031 424.094 185.031C423.258 185.031 422.43 185.305 421.891 185.961V185.188H419.984V196.234ZM423.617 186.703C424.93 186.703 425.523 187.75 425.523 189.094C425.523 190.422 424.93 191.484 423.617 191.484C422.305 191.484 421.727 190.438 421.727 189.094C421.727 187.734 422.305 186.703 423.617 186.703ZM428.523 190.742C428.523 192.242 429.531 193.156 431.242 193.156C432.359 193.156 433.188 192.719 433.789 191.883L433.914 193H435.484V188.211C435.484 186.289 434.281 185.031 432.18 185.031C430.758 185.031 429.695 185.57 428.828 186.742L430.289 187.797C430.695 187.102 431.344 186.695 432.117 186.695C433.039 186.695 433.664 187.266 433.664 188.344H431.633C429.633 188.344 428.523 189.234 428.523 190.742ZM431.633 191.547C430.875 191.547 430.477 191.188 430.477 190.656C430.477 190.102 430.906 189.719 431.773 189.719H433.664C433.664 190.695 432.742 191.547 431.633 191.547ZM437.516 185.188V193H439.422V188.648C439.422 187.32 440.07 186.711 441.156 186.711C442.039 186.711 442.672 187.328 442.672 188.547V193H444.578V188.312C444.578 186.195 443.445 185.031 441.727 185.031C440.836 185.031 440.008 185.422 439.422 186.102V185.188H437.516ZM447.172 196.352H449.242L453.703 185.188H451.695L449.625 190.422L447.727 185.188H445.547L448.633 192.844L447.172 196.352ZM461.422 193.156C461.961 193.156 462.539 193.031 462.828 192.922V191.195C462.57 191.32 462.141 191.477 461.742 191.477C461.242 191.477 460.859 191.258 460.859 190.508V186.75H462.828V185.188H460.859V181.961H459V185.188H457.711V186.75H458.969V190.844C458.969 192.266 459.883 193.156 461.422 193.156ZM471.844 189.094C471.844 186.844 470.258 185.031 467.844 185.031C465.43 185.031 463.844 186.844 463.844 189.094C463.844 191.344 465.43 193.156 467.844 193.156C470.258 193.156 471.844 191.344 471.844 189.094ZM469.859 189.094C469.859 190.383 469.281 191.484 467.844 191.484C466.398 191.484 465.828 190.383 465.828 189.094C465.828 187.805 466.406 186.703 467.844 186.703C469.289 186.703 469.859 187.805 469.859 189.094ZM328.055 204.953C328.656 204.953 329.133 204.477 329.133 203.875C329.133 203.289 328.656 202.797 328.055 202.797C327.453 202.797 326.977 203.289 326.977 203.875C326.977 204.477 327.453 204.953 328.055 204.953ZM327.094 206.188V214H329V206.188H327.094ZM331.188 206.188V214H333.094V209.648C333.094 208.32 333.68 207.711 334.664 207.711C335.523 207.711 336.031 208.32 336.031 209.547V214H337.938V209.5C337.938 208.172 338.578 207.711 339.508 207.711C340.367 207.711 340.875 208.32 340.875 209.547V214H342.781V209.312C342.781 207.156 341.688 206.031 339.961 206.031C338.867 206.031 338.07 206.406 337.438 207.305C336.977 206.477 336.227 206.031 335.312 206.031C334.406 206.031 333.648 206.406 333.094 207.102V206.188H331.188ZM344.891 217.234H346.797V213.211C347.336 213.883 348.211 214.156 349.031 214.156C351.156 214.156 352.414 212.422 352.414 210.094C352.414 207.742 351.156 206.031 349 206.031C348.164 206.031 347.336 206.305 346.797 206.961V206.188H344.891V217.234ZM348.523 207.703C349.836 207.703 350.43 208.75 350.43 210.094C350.43 211.422 349.836 212.484 348.523 212.484C347.211 212.484 346.633 211.438 346.633 210.094C346.633 208.734 347.211 207.703 348.523 207.703ZM354.094 206.188V214H355.938V210.703C355.938 209.086 356.789 207.891 358.094 207.891C358.5 207.891 358.734 207.961 358.914 208.031V206.141C358.742 206.086 358.461 206.031 358.047 206.031C357.141 206.031 356.375 206.594 355.953 207.594V206.188H354.094ZM367.688 210.094C367.688 207.844 366.102 206.031 363.688 206.031C361.273 206.031 359.688 207.844 359.688 210.094C359.688 212.344 361.273 214.156 363.688 214.156C366.102 214.156 367.688 212.344 367.688 210.094ZM365.703 210.094C365.703 211.383 365.125 212.484 363.688 212.484C362.242 212.484 361.672 211.383 361.672 210.094C361.672 208.805 362.25 207.703 363.688 207.703C365.133 207.703 365.703 208.805 365.703 210.094ZM368.117 206.188L371.297 214H372.867L376.055 206.188H373.984L372.086 211.539L370.195 206.188H368.117ZM380.492 214.156C381.805 214.156 382.844 213.695 383.695 212.75L382.383 211.602C381.828 212.219 381.25 212.461 380.531 212.461C379.492 212.461 378.742 211.938 378.555 210.719H383.914C383.961 210.492 383.984 210.266 383.984 209.969C383.984 208.227 383.102 206.031 380.367 206.031C378.07 206.031 376.539 207.695 376.539 210.125C376.539 212.531 378 214.156 380.492 214.156ZM380.352 207.633C381.367 207.633 382.016 208.281 382.109 209.344H378.562C378.742 208.172 379.406 207.633 380.352 207.633ZM390.352 204.953C390.953 204.953 391.43 204.477 391.43 203.875C391.43 203.289 390.953 202.797 390.352 202.797C389.75 202.797 389.273 203.289 389.273 203.875C389.273 204.477 389.75 204.953 390.352 204.953ZM389.391 206.188V214H391.297V206.188H389.391ZM393.484 206.188V214H395.391V209.648C395.391 208.32 396.039 207.711 397.125 207.711C398.008 207.711 398.641 208.328 398.641 209.547V214H400.547V209.312C400.547 207.195 399.414 206.031 397.695 206.031C396.805 206.031 395.977 206.422 395.391 207.102V206.188H393.484ZM409.312 214.156C409.852 214.156 410.43 214.031 410.719 213.922V212.195C410.461 212.32 410.031 212.477 409.633 212.477C409.133 212.477 408.75 212.258 408.75 211.508V207.75H410.719V206.188H408.75V202.961H406.891V206.188H405.602V207.75H406.859V211.844C406.859 213.266 407.773 214.156 409.312 214.156ZM412.188 202.953V214H414.094V209.648C414.094 208.32 414.742 207.711 415.828 207.711C416.711 207.711 417.344 208.328 417.344 209.547V214H419.25V209.312C419.25 207.195 418.117 206.031 416.398 206.031C415.508 206.031 414.68 206.422 414.094 207.102V202.953H412.188ZM424.742 214.156C426.055 214.156 427.094 213.695 427.945 212.75L426.633 211.602C426.078 212.219 425.5 212.461 424.781 212.461C423.742 212.461 422.992 211.938 422.805 210.719H428.164C428.211 210.492 428.234 210.266 428.234 209.969C428.234 208.227 427.352 206.031 424.617 206.031C422.32 206.031 420.789 207.695 420.789 210.125C420.789 212.531 422.25 214.156 424.742 214.156ZM424.602 207.633C425.617 207.633 426.266 208.281 426.359 209.344H422.812C422.992 208.172 423.656 207.633 424.602 207.633ZM436.453 214.156C436.992 214.156 437.57 214.031 437.859 213.922V212.195C437.602 212.32 437.172 212.477 436.773 212.477C436.273 212.477 435.891 212.258 435.891 211.508V207.75H437.859V206.188H435.891V202.961H434.031V206.188H432.742V207.75H434V211.844C434 213.266 434.914 214.156 436.453 214.156ZM439.328 202.953V214H441.234V209.648C441.234 208.32 441.883 207.711 442.969 207.711C443.852 207.711 444.484 208.328 444.484 209.547V214H446.391V209.312C446.391 207.195 445.258 206.031 443.539 206.031C442.648 206.031 441.82 206.422 441.234 207.102V202.953H439.328ZM449.461 204.953C450.062 204.953 450.539 204.477 450.539 203.875C450.539 203.289 450.062 202.797 449.461 202.797C448.859 202.797 448.383 203.289 448.383 203.875C448.383 204.477 448.859 204.953 449.461 204.953ZM448.5 206.188V214H450.406V206.188H448.5ZM452.594 206.188V214H454.438V210.703C454.438 209.086 455.289 207.891 456.594 207.891C457 207.891 457.234 207.961 457.414 208.031V206.141C457.242 206.086 456.961 206.031 456.547 206.031C455.641 206.031 454.875 206.594 454.453 207.594V206.188H452.594ZM465.828 202.953H463.922V206.977C463.383 206.305 462.508 206.031 461.688 206.031C459.562 206.031 458.305 207.766 458.305 210.094C458.305 212.445 459.562 214.156 461.719 214.156C462.555 214.156 463.383 213.883 463.922 213.227V214H465.828V202.953ZM462.195 212.484C460.883 212.484 460.289 211.438 460.289 210.094C460.289 208.766 460.883 207.703 462.195 207.703C463.508 207.703 464.086 208.75 464.086 210.094C464.086 211.453 463.508 212.484 462.195 212.484ZM478.875 206.188H476.969V206.977C476.43 206.305 475.555 206.031 474.734 206.031C472.609 206.031 471.352 207.766 471.352 210.094C471.352 212.445 472.609 214.156 474.766 214.156C475.602 214.156 476.43 213.883 476.969 213.227V217.234H478.875V206.188ZM475.242 212.484C473.93 212.484 473.336 211.438 473.336 210.094C473.336 208.766 473.93 207.703 475.242 207.703C476.555 207.703 477.133 208.75 477.133 210.094C477.133 211.453 476.555 212.484 475.242 212.484ZM488.047 214V206.188H486.141V210.539C486.141 211.867 485.492 212.477 484.406 212.477C483.523 212.477 482.891 211.859 482.891 210.641V206.188H480.984V210.875C480.984 212.992 482.117 214.156 483.836 214.156C484.727 214.156 485.555 213.766 486.141 213.086V214H488.047ZM489.57 211.742C489.57 213.242 490.578 214.156 492.289 214.156C493.406 214.156 494.234 213.719 494.836 212.883L494.961 214H496.531V209.211C496.531 207.289 495.328 206.031 493.227 206.031C491.805 206.031 490.742 206.57 489.875 207.742L491.336 208.797C491.742 208.102 492.391 207.695 493.164 207.695C494.086 207.695 494.711 208.266 494.711 209.344H492.68C490.68 209.344 489.57 210.234 489.57 211.742ZM492.68 212.547C491.922 212.547 491.523 212.188 491.523 211.656C491.523 211.102 491.953 210.719 492.82 210.719H494.711C494.711 211.695 493.789 212.547 492.68 212.547ZM498.562 206.188V214H500.406V210.703C500.406 209.086 501.258 207.891 502.562 207.891C502.969 207.891 503.203 207.961 503.383 208.031V206.141C503.211 206.086 502.93 206.031 502.516 206.031C501.609 206.031 500.844 206.594 500.422 207.594V206.188H498.562ZM507.875 214.156C508.414 214.156 508.992 214.031 509.281 213.922V212.195C509.023 212.32 508.594 212.477 508.195 212.477C507.695 212.477 507.312 212.258 507.312 211.508V207.75H509.281V206.188H507.312V202.961H505.453V206.188H504.164V207.75H505.422V211.844C505.422 213.266 506.336 214.156 507.875 214.156ZM514.305 214.156C515.617 214.156 516.656 213.695 517.508 212.75L516.195 211.602C515.641 212.219 515.062 212.461 514.344 212.461C513.305 212.461 512.555 211.938 512.367 210.719H517.727C517.773 210.492 517.797 210.266 517.797 209.969C517.797 208.227 516.914 206.031 514.18 206.031C511.883 206.031 510.352 207.695 510.352 210.125C510.352 212.531 511.812 214.156 514.305 214.156ZM514.164 207.633C515.18 207.633 515.828 208.281 515.922 209.344H512.375C512.555 208.172 513.219 207.633 514.164 207.633ZM519.359 206.188V214H521.203V210.703C521.203 209.086 522.055 207.891 523.359 207.891C523.766 207.891 524 207.961 524.18 208.031V206.141C524.008 206.086 523.727 206.031 523.312 206.031C522.406 206.031 521.641 206.594 521.219 207.594V206.188H519.359Z" fill="#9FFFB8"></path><path d="M583.011 125.961C583.011 119.903 578.766 115.565 571.812 115.565C567.727 115.565 564.698 116.667 561.164 118.939L561.623 108.956L570.274 109.3C571.307 109.346 572.409 109.346 573.51 109.346C578.169 109.346 580.418 108.451 580.923 104.32L581.474 99.501H581.359L579.913 100.855C578.582 102.094 576.677 102.438 574.153 102.438C573.005 102.438 572.064 102.393 570.917 102.347L560.98 101.934L560.131 120.247L560.223 120.293C562.127 119.191 564.055 118.641 566.006 118.641C571.422 118.641 574.061 122.083 574.061 127.201C574.061 133.076 571.215 136.541 567.635 136.541H566.488C565.799 136.541 565.547 136.357 565.294 135.715L561.462 125.961H561.37L557.583 135.853C560.521 136.908 564.652 137.505 568.025 137.505C576.884 137.505 583.011 133.856 583.011 125.961ZM610.963 127.247C610.963 122.473 607.177 119.237 601.21 118.641V118.549C606.442 117.447 609.678 115.061 609.678 110.149C609.678 104.779 604.882 101.543 597.836 101.543C593.361 101.543 588.771 102.829 585.696 104.366L589.575 113.385H589.667L593.912 103.425C594.142 102.875 594.348 102.691 594.853 102.576C595.243 102.53 595.496 102.53 595.932 102.53C598.823 102.53 600.866 105.376 600.866 109.805C600.866 114.67 598.777 117.906 593.958 118.939V119.054C599.718 119.788 601.898 122.817 601.898 127.797C601.898 133.03 599.122 136.541 595.404 136.541H594.302C593.614 136.541 593.315 136.312 593.063 135.715L589.368 125.87H589.276L585.306 135.807C588.381 136.908 592.352 137.505 595.748 137.505C605.892 137.505 610.963 133.259 610.963 127.247ZM622.3 102.278C624.136 102.278 624.435 104.32 624.435 109.002C624.435 113.569 624.136 115.657 622.3 115.657C620.51 115.657 620.258 113.569 620.258 108.956C620.258 104.32 620.51 102.278 622.3 102.278ZM622.3 101.543C617.435 101.543 615.232 104.527 615.232 108.956C615.232 113.431 617.435 116.415 622.3 116.415C627.28 116.415 629.46 113.431 629.46 109.002C629.46 104.481 627.28 101.543 622.3 101.543ZM636.46 123.322C638.296 123.322 638.594 125.365 638.594 130.046C638.594 134.613 638.296 136.702 636.46 136.702C634.67 136.702 634.417 134.613 634.417 130C634.417 125.365 634.67 123.322 636.46 123.322ZM636.46 122.588C631.595 122.588 629.392 125.571 629.392 130C629.392 134.476 631.595 137.459 636.46 137.459C641.44 137.459 643.62 134.476 643.62 130.046C643.62 125.525 641.44 122.588 636.46 122.588ZM642.794 102.347L641.21 101.245L616.15 136.61L617.733 137.757L642.794 102.347Z" fill="white"></path><path d="M557.094 174.234H559V170.211C559.539 170.883 560.414 171.156 561.234 171.156C563.359 171.156 564.617 169.422 564.617 167.094C564.617 164.742 563.359 163.031 561.203 163.031C560.367 163.031 559.539 163.305 559 163.961V163.188H557.094V174.234ZM560.727 164.703C562.039 164.703 562.633 165.75 562.633 167.094C562.633 168.422 562.039 169.484 560.727 169.484C559.414 169.484 558.836 168.438 558.836 167.094C558.836 165.734 559.414 164.703 560.727 164.703ZM566.297 171H568.203V159.953H566.297V171ZM569.727 168.742C569.727 170.242 570.734 171.156 572.445 171.156C573.562 171.156 574.391 170.719 574.992 169.883L575.117 171H576.688V166.211C576.688 164.289 575.484 163.031 573.383 163.031C571.961 163.031 570.898 163.57 570.031 164.742L571.492 165.797C571.898 165.102 572.547 164.695 573.32 164.695C574.242 164.695 574.867 165.266 574.867 166.344H572.836C570.836 166.344 569.727 167.234 569.727 168.742ZM572.836 169.547C572.078 169.547 571.68 169.188 571.68 168.656C571.68 168.102 572.109 167.719 572.977 167.719H574.867C574.867 168.695 573.945 169.547 572.836 169.547ZM578.719 163.188V171H580.625V166.648C580.625 165.32 581.273 164.711 582.359 164.711C583.242 164.711 583.875 165.328 583.875 166.547V171H585.781V166.312C585.781 164.195 584.648 163.031 582.93 163.031C582.039 163.031 581.211 163.422 580.625 164.102V163.188H578.719ZM594.547 171.156C595.086 171.156 595.664 171.031 595.953 170.922V169.195C595.695 169.32 595.266 169.477 594.867 169.477C594.367 169.477 593.984 169.258 593.984 168.508V164.75H595.953V163.188H593.984V159.961H592.125V163.188H590.836V164.75H592.094V168.844C592.094 170.266 593.008 171.156 594.547 171.156ZM604.969 167.094C604.969 164.844 603.383 163.031 600.969 163.031C598.555 163.031 596.969 164.844 596.969 167.094C596.969 169.344 598.555 171.156 600.969 171.156C603.383 171.156 604.969 169.344 604.969 167.094ZM602.984 167.094C602.984 168.383 602.406 169.484 600.969 169.484C599.523 169.484 598.953 168.383 598.953 167.094C598.953 165.805 599.531 164.703 600.969 164.703C602.414 164.703 602.984 165.805 602.984 167.094ZM609.359 163.188L611.758 171H613.477L614.977 165.883L616.516 171H618.234L620.672 163.188H618.641L617.305 168.086L615.828 163.188H614.203L612.734 168.086L611.391 163.188H609.359ZM629.219 167.094C629.219 164.844 627.633 163.031 625.219 163.031C622.805 163.031 621.219 164.844 621.219 167.094C621.219 169.344 622.805 171.156 625.219 171.156C627.633 171.156 629.219 169.344 629.219 167.094ZM627.234 167.094C627.234 168.383 626.656 169.484 625.219 169.484C623.773 169.484 623.203 168.383 623.203 167.094C623.203 165.805 623.781 164.703 625.219 164.703C626.664 164.703 627.234 165.805 627.234 167.094ZM630.781 163.188V171H632.625V167.703C632.625 166.086 633.477 164.891 634.781 164.891C635.188 164.891 635.422 164.961 635.602 165.031V163.141C635.43 163.086 635.148 163.031 634.734 163.031C633.828 163.031 633.062 163.594 632.641 164.594V163.188H630.781ZM639.031 159.953H637.125V171H639.031V168.68L640.164 167.5L642.367 171H644.617L641.445 166.289L644.453 163.188H641.977L639.031 166.391V159.953ZM649.672 163.188V171H651.578V166.648C651.578 165.32 652.164 164.711 653.148 164.711C654.008 164.711 654.516 165.32 654.516 166.547V171H656.422V166.5C656.422 165.172 657.062 164.711 657.992 164.711C658.852 164.711 659.359 165.32 659.359 166.547V171H661.266V166.312C661.266 164.156 660.172 163.031 658.445 163.031C657.352 163.031 656.555 163.406 655.922 164.305C655.461 163.477 654.711 163.031 653.797 163.031C652.891 163.031 652.133 163.406 651.578 164.102V163.188H649.672ZM670.75 167.094C670.75 164.844 669.164 163.031 666.75 163.031C664.336 163.031 662.75 164.844 662.75 167.094C662.75 169.344 664.336 171.156 666.75 171.156C669.164 171.156 670.75 169.344 670.75 167.094ZM668.766 167.094C668.766 168.383 668.188 169.484 666.75 169.484C665.305 169.484 664.734 168.383 664.734 167.094C664.734 165.805 665.312 164.703 666.75 164.703C668.195 164.703 668.766 165.805 668.766 167.094ZM672.312 163.188V171H674.156V167.703C674.156 166.086 675.008 164.891 676.312 164.891C676.719 164.891 676.953 164.961 677.133 165.031V163.141C676.961 163.086 676.68 163.031 676.266 163.031C675.359 163.031 674.594 163.594 674.172 164.594V163.188H672.312ZM681.914 171.156C683.227 171.156 684.266 170.695 685.117 169.75L683.805 168.602C683.25 169.219 682.672 169.461 681.953 169.461C680.914 169.461 680.164 168.938 679.977 167.719H685.336C685.383 167.492 685.406 167.266 685.406 166.969C685.406 165.227 684.523 163.031 681.789 163.031C679.492 163.031 677.961 164.695 677.961 167.125C677.961 169.531 679.422 171.156 681.914 171.156ZM681.773 164.633C682.789 164.633 683.438 165.281 683.531 166.344H679.984C680.164 165.172 680.828 164.633 681.773 164.633ZM690.812 159.953V171H692.719V166.648C692.719 165.32 693.367 164.711 694.453 164.711C695.336 164.711 695.969 165.328 695.969 166.547V171H697.875V166.312C697.875 164.195 696.742 163.031 695.023 163.031C694.133 163.031 693.305 163.422 692.719 164.102V159.953H690.812ZM707.359 167.094C707.359 164.844 705.773 163.031 703.359 163.031C700.945 163.031 699.359 164.844 699.359 167.094C699.359 169.344 700.945 171.156 703.359 171.156C705.773 171.156 707.359 169.344 707.359 167.094ZM705.375 167.094C705.375 168.383 704.797 169.484 703.359 169.484C701.914 169.484 701.344 168.383 701.344 167.094C701.344 165.805 701.922 164.703 703.359 164.703C704.805 164.703 705.375 165.805 705.375 167.094ZM715.906 171V163.188H714V167.539C714 168.867 713.352 169.477 712.266 169.477C711.383 169.477 710.75 168.859 710.75 167.641V163.188H708.844V167.875C708.844 169.992 709.977 171.156 711.695 171.156C712.586 171.156 713.414 170.766 714 170.086V171H715.906ZM718.094 163.188V171H719.938V167.703C719.938 166.086 720.789 164.891 722.094 164.891C722.5 164.891 722.734 164.961 722.914 165.031V163.141C722.742 163.086 722.461 163.031 722.047 163.031C721.141 163.031 720.375 163.594 719.953 164.594V163.188H718.094ZM726.922 171.156C728.453 171.156 729.953 170.367 729.953 168.578C729.953 165.68 725.766 166.539 725.766 165.203C725.766 164.82 726.109 164.539 726.781 164.539C727.625 164.539 728.086 165.016 728.336 165.477L729.828 164.641C729.258 163.609 728.242 163.031 726.773 163.031C725.039 163.031 723.938 163.969 723.938 165.344C723.938 168.367 728.078 167.375 728.078 168.805C728.078 169.258 727.672 169.578 726.859 169.578C726.117 169.578 725.469 169.219 725.039 168.375L723.578 169.273C724.117 170.523 725.188 171.156 726.922 171.156ZM736.398 161.953C737 161.953 737.477 161.477 737.477 160.875C737.477 160.289 737 159.797 736.398 159.797C735.797 159.797 735.32 160.289 735.32 160.875C735.32 161.477 735.797 161.953 736.398 161.953ZM735.438 163.188V171H737.344V163.188H735.438ZM739.531 163.188V171H741.438V166.648C741.438 165.32 742.086 164.711 743.172 164.711C744.055 164.711 744.688 165.328 744.688 166.547V171H746.594V166.312C746.594 164.195 745.461 163.031 743.742 163.031C742.852 163.031 742.023 163.422 741.438 164.102V163.188H739.531ZM755.359 171.156C755.898 171.156 756.477 171.031 756.766 170.922V169.195C756.508 169.32 756.078 169.477 755.68 169.477C755.18 169.477 754.797 169.258 754.797 168.508V164.75H756.766V163.188H754.797V159.961H752.938V163.188H751.648V164.75H752.906V168.844C752.906 170.266 753.82 171.156 755.359 171.156ZM758.234 159.953V171H760.141V166.648C760.141 165.32 760.789 164.711 761.875 164.711C762.758 164.711 763.391 165.328 763.391 166.547V171H765.297V166.312C765.297 164.195 764.164 163.031 762.445 163.031C761.555 163.031 760.727 163.422 760.141 164.102V159.953H758.234ZM770.789 171.156C772.102 171.156 773.141 170.695 773.992 169.75L772.68 168.602C772.125 169.219 771.547 169.461 770.828 169.461C769.789 169.461 769.039 168.938 768.852 167.719H774.211C774.258 167.492 774.281 167.266 774.281 166.969C774.281 165.227 773.398 163.031 770.664 163.031C768.367 163.031 766.836 164.695 766.836 167.125C766.836 169.531 768.297 171.156 770.789 171.156ZM770.648 164.633C771.664 164.633 772.312 165.281 772.406 166.344H768.859C769.039 165.172 769.703 164.633 770.648 164.633ZM559.906 192.156C560.445 192.156 561.023 192.031 561.312 191.922V190.195C561.055 190.32 560.625 190.477 560.227 190.477C559.727 190.477 559.344 190.258 559.344 189.508V185.75H561.312V184.188H559.344V180.961H557.484V184.188H556.195V185.75H557.453V189.844C557.453 191.266 558.367 192.156 559.906 192.156ZM562.781 180.953V192H564.688V187.648C564.688 186.32 565.336 185.711 566.422 185.711C567.305 185.711 567.938 186.328 567.938 187.547V192H569.844V187.312C569.844 185.195 568.711 184.031 566.992 184.031C566.102 184.031 565.273 184.422 564.688 185.102V180.953H562.781ZM572.914 182.953C573.516 182.953 573.992 182.477 573.992 181.875C573.992 181.289 573.516 180.797 572.914 180.797C572.312 180.797 571.836 181.289 571.836 181.875C571.836 182.477 572.312 182.953 572.914 182.953ZM571.953 184.188V192H573.859V184.188H571.953ZM576.047 184.188V192H577.891V188.703C577.891 187.086 578.742 185.891 580.047 185.891C580.453 185.891 580.688 185.961 580.867 186.031V184.141C580.695 184.086 580.414 184.031 580 184.031C579.094 184.031 578.328 184.594 577.906 185.594V184.188H576.047ZM589.281 180.953H587.375V184.977C586.836 184.305 585.961 184.031 585.141 184.031C583.016 184.031 581.758 185.766 581.758 188.094C581.758 190.445 583.016 192.156 585.172 192.156C586.008 192.156 586.836 191.883 587.375 191.227V192H589.281V180.953ZM585.648 190.484C584.336 190.484 583.742 189.438 583.742 188.094C583.742 186.766 584.336 185.703 585.648 185.703C586.961 185.703 587.539 186.75 587.539 188.094C587.539 189.453 586.961 190.484 585.648 190.484ZM602.328 184.188H600.422V184.977C599.883 184.305 599.008 184.031 598.188 184.031C596.062 184.031 594.805 185.766 594.805 188.094C594.805 190.445 596.062 192.156 598.219 192.156C599.055 192.156 599.883 191.883 600.422 191.227V195.234H602.328V184.188ZM598.695 190.484C597.383 190.484 596.789 189.438 596.789 188.094C596.789 186.766 597.383 185.703 598.695 185.703C600.008 185.703 600.586 186.75 600.586 188.094C600.586 189.453 600.008 190.484 598.695 190.484ZM611.5 192V184.188H609.594V188.539C609.594 189.867 608.945 190.477 607.859 190.477C606.977 190.477 606.344 189.859 606.344 188.641V184.188H604.438V188.875C604.438 190.992 605.57 192.156 607.289 192.156C608.18 192.156 609.008 191.766 609.594 191.086V192H611.5ZM613.023 189.742C613.023 191.242 614.031 192.156 615.742 192.156C616.859 192.156 617.688 191.719 618.289 190.883L618.414 192H619.984V187.211C619.984 185.289 618.781 184.031 616.68 184.031C615.258 184.031 614.195 184.57 613.328 185.742L614.789 186.797C615.195 186.102 615.844 185.695 616.617 185.695C617.539 185.695 618.164 186.266 618.164 187.344H616.133C614.133 187.344 613.023 188.234 613.023 189.742ZM616.133 190.547C615.375 190.547 614.977 190.188 614.977 189.656C614.977 189.102 615.406 188.719 616.273 188.719H618.164C618.164 189.695 617.242 190.547 616.133 190.547ZM622.016 184.188V192H623.859V188.703C623.859 187.086 624.711 185.891 626.016 185.891C626.422 185.891 626.656 185.961 626.836 186.031V184.141C626.664 184.086 626.383 184.031 625.969 184.031C625.062 184.031 624.297 184.594 623.875 185.594V184.188H622.016ZM631.328 192.156C631.867 192.156 632.445 192.031 632.734 191.922V190.195C632.477 190.32 632.047 190.477 631.648 190.477C631.148 190.477 630.766 190.258 630.766 189.508V185.75H632.734V184.188H630.766V180.961H628.906V184.188H627.617V185.75H628.875V189.844C628.875 191.266 629.789 192.156 631.328 192.156ZM637.758 192.156C639.07 192.156 640.109 191.695 640.961 190.75L639.648 189.602C639.094 190.219 638.516 190.461 637.797 190.461C636.758 190.461 636.008 189.938 635.82 188.719H641.18C641.227 188.492 641.25 188.266 641.25 187.969C641.25 186.227 640.367 184.031 637.633 184.031C635.336 184.031 633.805 185.695 633.805 188.125C633.805 190.531 635.266 192.156 637.758 192.156ZM637.617 185.633C638.633 185.633 639.281 186.281 639.375 187.344H635.828C636.008 186.172 636.672 185.633 637.617 185.633ZM642.812 184.188V192H644.656V188.703C644.656 187.086 645.508 185.891 646.812 185.891C647.219 185.891 647.453 185.961 647.633 186.031V184.141C647.461 184.086 647.18 184.031 646.766 184.031C645.859 184.031 645.094 184.594 644.672 185.594V184.188H642.812ZM655.812 192.156C656.352 192.156 656.93 192.031 657.219 191.922V190.195C656.961 190.32 656.531 190.477 656.133 190.477C655.633 190.477 655.25 190.258 655.25 189.508V185.75H657.219V184.188H655.25V180.961H653.391V184.188H652.102V185.75H653.359V189.844C653.359 191.266 654.273 192.156 655.812 192.156ZM658.688 180.953V192H660.594V187.648C660.594 186.32 661.242 185.711 662.328 185.711C663.211 185.711 663.844 186.328 663.844 187.547V192H665.75V187.312C665.75 185.195 664.617 184.031 662.898 184.031C662.008 184.031 661.18 184.422 660.594 185.102V180.953H658.688ZM667.195 189.742C667.195 191.242 668.203 192.156 669.914 192.156C671.031 192.156 671.859 191.719 672.461 190.883L672.586 192H674.156V187.211C674.156 185.289 672.953 184.031 670.852 184.031C669.43 184.031 668.367 184.57 667.5 185.742L668.961 186.797C669.367 186.102 670.016 185.695 670.789 185.695C671.711 185.695 672.336 186.266 672.336 187.344H670.305C668.305 187.344 667.195 188.234 667.195 189.742ZM670.305 190.547C669.547 190.547 669.148 190.188 669.148 189.656C669.148 189.102 669.578 188.719 670.445 188.719H672.336C672.336 189.695 671.414 190.547 670.305 190.547ZM676.188 184.188V192H678.094V187.648C678.094 186.32 678.742 185.711 679.828 185.711C680.711 185.711 681.344 186.328 681.344 187.547V192H683.25V187.312C683.25 185.195 682.117 184.031 680.398 184.031C679.508 184.031 678.68 184.422 678.094 185.102V184.188H676.188ZM692.016 192.156C692.555 192.156 693.133 192.031 693.422 191.922V190.195C693.164 190.32 692.734 190.477 692.336 190.477C691.836 190.477 691.453 190.258 691.453 189.508V185.75H693.422V184.188H691.453V180.961H689.594V184.188H688.305V185.75H689.562V189.844C689.562 191.266 690.477 192.156 692.016 192.156ZM694.891 180.953V192H696.797V187.648C696.797 186.32 697.445 185.711 698.531 185.711C699.414 185.711 700.047 186.328 700.047 187.547V192H701.953V187.312C701.953 185.195 700.82 184.031 699.102 184.031C698.211 184.031 697.383 184.422 696.797 185.102V180.953H694.891ZM707.445 192.156C708.758 192.156 709.797 191.695 710.648 190.75L709.336 189.602C708.781 190.219 708.203 190.461 707.484 190.461C706.445 190.461 705.695 189.938 705.508 188.719H710.867C710.914 188.492 710.938 188.266 710.938 187.969C710.938 186.227 710.055 184.031 707.32 184.031C705.023 184.031 703.492 185.695 703.492 188.125C703.492 190.531 704.953 192.156 707.445 192.156ZM707.305 185.633C708.32 185.633 708.969 186.281 709.062 187.344H705.516C705.695 186.172 706.359 185.633 707.305 185.633ZM712.984 195.352H715.055L719.516 184.188H717.508L715.438 189.422L713.539 184.188H711.359L714.445 191.844L712.984 195.352ZM731.438 180.953H729.531V184.977C728.992 184.305 728.117 184.031 727.297 184.031C725.172 184.031 723.914 185.766 723.914 188.094C723.914 190.445 725.172 192.156 727.328 192.156C728.164 192.156 728.992 191.883 729.531 191.227V192H731.438V180.953ZM727.805 190.484C726.492 190.484 725.898 189.438 725.898 188.094C725.898 186.766 726.492 185.703 727.805 185.703C729.117 185.703 729.695 186.75 729.695 188.094C729.695 189.453 729.117 190.484 727.805 190.484ZM734.586 182.953C735.188 182.953 735.664 182.477 735.664 181.875C735.664 181.289 735.188 180.797 734.586 180.797C733.984 180.797 733.508 181.289 733.508 181.875C733.508 182.477 733.984 182.953 734.586 182.953ZM733.625 184.188V192H735.531V184.188H733.625ZM744.734 180.953H742.828V184.977C742.289 184.305 741.414 184.031 740.594 184.031C738.469 184.031 737.211 185.766 737.211 188.094C737.211 190.445 738.469 192.156 740.625 192.156C741.461 192.156 742.289 191.883 742.828 191.227V192H744.734V180.953ZM741.102 190.484C739.789 190.484 739.195 189.438 739.195 188.094C739.195 186.766 739.789 185.703 741.102 185.703C742.414 185.703 742.992 186.75 742.992 188.094C742.992 189.453 742.414 190.484 741.102 190.484ZM751.727 182.953C752.328 182.953 752.805 182.477 752.805 181.875C752.805 181.289 752.328 180.797 751.727 180.797C751.125 180.797 750.648 181.289 750.648 181.875C750.648 182.477 751.125 182.953 751.727 182.953ZM750.766 184.188V192H752.672V184.188H750.766ZM754.859 184.188V192H756.766V187.648C756.766 186.32 757.414 185.711 758.5 185.711C759.383 185.711 760.016 186.328 760.016 187.547V192H761.922V187.312C761.922 185.195 760.789 184.031 759.07 184.031C758.18 184.031 757.352 184.422 756.766 185.102V184.188H754.859ZM559.906 213.156C560.445 213.156 561.023 213.031 561.312 212.922V211.195C561.055 211.32 560.625 211.477 560.227 211.477C559.727 211.477 559.344 211.258 559.344 210.508V206.75H561.312V205.188H559.344V201.961H557.484V205.188H556.195V206.75H557.453V210.844C557.453 212.266 558.367 213.156 559.906 213.156ZM562.781 201.953V213H564.688V208.648C564.688 207.32 565.336 206.711 566.422 206.711C567.305 206.711 567.938 207.328 567.938 208.547V213H569.844V208.312C569.844 206.195 568.711 205.031 566.992 205.031C566.102 205.031 565.273 205.422 564.688 206.102V201.953H562.781ZM575.336 213.156C576.648 213.156 577.688 212.695 578.539 211.75L577.227 210.602C576.672 211.219 576.094 211.461 575.375 211.461C574.336 211.461 573.586 210.938 573.398 209.719H578.758C578.805 209.492 578.828 209.266 578.828 208.969C578.828 207.227 577.945 205.031 575.211 205.031C572.914 205.031 571.383 206.695 571.383 209.125C571.383 211.531 572.844 213.156 575.336 213.156ZM575.195 206.633C576.211 206.633 576.859 207.281 576.953 208.344H573.406C573.586 207.172 574.25 206.633 575.195 206.633ZM586.797 213.156C588.328 213.156 589.828 212.367 589.828 210.578C589.828 207.68 585.641 208.539 585.641 207.203C585.641 206.82 585.984 206.539 586.656 206.539C587.5 206.539 587.961 207.016 588.211 207.477L589.703 206.641C589.133 205.609 588.117 205.031 586.648 205.031C584.914 205.031 583.812 205.969 583.812 207.344C583.812 210.367 587.953 209.375 587.953 210.805C587.953 211.258 587.547 211.578 586.734 211.578C585.992 211.578 585.344 211.219 584.914 210.375L583.453 211.273C583.992 212.523 585.062 213.156 586.797 213.156ZM594.852 213.156C596.164 213.156 597.203 212.695 598.055 211.75L596.742 210.602C596.188 211.219 595.609 211.461 594.891 211.461C593.852 211.461 593.102 210.938 592.914 209.719H598.273C598.32 209.492 598.344 209.266 598.344 208.969C598.344 207.227 597.461 205.031 594.727 205.031C592.43 205.031 590.898 206.695 590.898 209.125C590.898 211.531 592.359 213.156 594.852 213.156ZM594.711 206.633C595.727 206.633 596.375 207.281 596.469 208.344H592.922C593.102 207.172 593.766 206.633 594.711 206.633ZM603.102 213.156C604.867 213.156 606.016 212.344 606.531 210.844L604.773 210.188C604.562 210.984 603.969 211.484 603.211 211.484C602.086 211.484 601.344 210.656 601.344 209.078C601.344 207.477 602.125 206.703 603.133 206.703C603.93 206.703 604.477 207.18 604.695 208.016L606.508 207.312C605.922 205.75 604.758 205.031 603.125 205.031C600.773 205.031 599.359 206.602 599.359 209.109C599.359 211.586 600.75 213.156 603.102 213.156ZM615.312 209.094C615.312 206.844 613.727 205.031 611.312 205.031C608.898 205.031 607.312 206.844 607.312 209.094C607.312 211.344 608.898 213.156 611.312 213.156C613.727 213.156 615.312 211.344 615.312 209.094ZM613.328 209.094C613.328 210.383 612.75 211.484 611.312 211.484C609.867 211.484 609.297 210.383 609.297 209.094C609.297 207.805 609.875 206.703 611.312 206.703C612.758 206.703 613.328 207.805 613.328 209.094ZM616.875 205.188V213H618.781V208.648C618.781 207.32 619.43 206.711 620.516 206.711C621.398 206.711 622.031 207.328 622.031 208.547V213H623.938V208.312C623.938 206.195 622.805 205.031 621.086 205.031C620.195 205.031 619.367 205.422 618.781 206.102V205.188H616.875ZM633.062 201.953H631.156V205.977C630.617 205.305 629.742 205.031 628.922 205.031C626.797 205.031 625.539 206.766 625.539 209.094C625.539 211.445 626.797 213.156 628.953 213.156C629.789 213.156 630.617 212.883 631.156 212.227V213H633.062V201.953ZM629.43 211.484C628.117 211.484 627.523 210.438 627.523 209.094C627.523 207.766 628.117 206.703 629.43 206.703C630.742 206.703 631.32 207.75 631.32 209.094C631.32 210.453 630.742 211.484 629.43 211.484ZM646.109 205.188H644.203V205.977C643.664 205.305 642.789 205.031 641.969 205.031C639.844 205.031 638.586 206.766 638.586 209.094C638.586 211.445 639.844 213.156 642 213.156C642.836 213.156 643.664 212.883 644.203 212.227V216.234H646.109V205.188ZM642.477 211.484C641.164 211.484 640.57 210.438 640.57 209.094C640.57 207.766 641.164 206.703 642.477 206.703C643.789 206.703 644.367 207.75 644.367 209.094C644.367 210.453 643.789 211.484 642.477 211.484ZM655.281 213V205.188H653.375V209.539C653.375 210.867 652.727 211.477 651.641 211.477C650.758 211.477 650.125 210.859 650.125 209.641V205.188H648.219V209.875C648.219 211.992 649.352 213.156 651.07 213.156C651.961 213.156 652.789 212.766 653.375 212.086V213H655.281ZM656.805 210.742C656.805 212.242 657.812 213.156 659.523 213.156C660.641 213.156 661.469 212.719 662.07 211.883L662.195 213H663.766V208.211C663.766 206.289 662.562 205.031 660.461 205.031C659.039 205.031 657.977 205.57 657.109 206.742L658.57 207.797C658.977 207.102 659.625 206.695 660.398 206.695C661.32 206.695 661.945 207.266 661.945 208.344H659.914C657.914 208.344 656.805 209.234 656.805 210.742ZM659.914 211.547C659.156 211.547 658.758 211.188 658.758 210.656C658.758 210.102 659.188 209.719 660.055 209.719H661.945C661.945 210.695 661.023 211.547 659.914 211.547ZM665.797 205.188V213H667.641V209.703C667.641 208.086 668.492 206.891 669.797 206.891C670.203 206.891 670.438 206.961 670.617 207.031V205.141C670.445 205.086 670.164 205.031 669.75 205.031C668.844 205.031 668.078 205.594 667.656 206.594V205.188H665.797ZM675.109 213.156C675.648 213.156 676.227 213.031 676.516 212.922V211.195C676.258 211.32 675.828 211.477 675.43 211.477C674.93 211.477 674.547 211.258 674.547 210.508V206.75H676.516V205.188H674.547V201.961H672.688V205.188H671.398V206.75H672.656V210.844C672.656 212.266 673.57 213.156 675.109 213.156ZM681.539 213.156C682.852 213.156 683.891 212.695 684.742 211.75L683.43 210.602C682.875 211.219 682.297 211.461 681.578 211.461C680.539 211.461 679.789 210.938 679.602 209.719H684.961C685.008 209.492 685.031 209.266 685.031 208.969C685.031 207.227 684.148 205.031 681.414 205.031C679.117 205.031 677.586 206.695 677.586 209.125C677.586 211.531 679.047 213.156 681.539 213.156ZM681.398 206.633C682.414 206.633 683.062 207.281 683.156 208.344H679.609C679.789 207.172 680.453 206.633 681.398 206.633ZM686.594 205.188V213H688.438V209.703C688.438 208.086 689.289 206.891 690.594 206.891C691 206.891 691.234 206.961 691.414 207.031V205.141C691.242 205.086 690.961 205.031 690.547 205.031C689.641 205.031 688.875 205.594 688.453 206.594V205.188H686.594ZM704.156 209.094C704.156 206.844 702.57 205.031 700.156 205.031C697.742 205.031 696.156 206.844 696.156 209.094C696.156 211.344 697.742 213.156 700.156 213.156C702.57 213.156 704.156 211.344 704.156 209.094ZM702.172 209.094C702.172 210.383 701.594 211.484 700.156 211.484C698.711 211.484 698.141 210.383 698.141 209.094C698.141 207.805 698.719 206.703 700.156 206.703C701.602 206.703 702.172 207.805 702.172 209.094ZM706.328 206.75V213H708.234V206.75H710.055V205.188H708.234V204.344C708.234 203.734 708.703 203.492 709.086 203.492C709.477 203.492 709.812 203.594 710.055 203.711V202.039C709.641 201.875 709.242 201.797 708.75 201.797C707.484 201.797 706.328 202.664 706.328 204.438V205.188H704.898V206.75H706.328ZM714.594 213H722.602V211.211H717.156C718.031 209.633 722.039 208.375 722.039 205.125C722.039 203.047 720.906 201.797 718.625 201.797C716.086 201.797 714.664 203.688 714.664 205.891H716.648C716.648 204.703 717.016 203.57 718.477 203.57C719.531 203.57 719.969 204.211 719.969 205.125C719.969 208.312 714.594 208.766 714.594 212.773V213ZM727.984 213.156C730.945 213.156 732.336 210.234 732.336 207.492C732.336 204.742 730.914 201.781 727.875 201.781C724.531 201.781 723.508 205.125 723.508 207.477C723.508 209.812 724.562 213.156 727.984 213.156ZM727.938 211.289C726.148 211.289 725.461 209.242 725.461 207.477C725.461 205.703 726.148 203.688 727.875 203.688C729.602 203.688 730.289 205.688 730.289 207.461C730.289 209.195 729.617 211.289 727.938 211.289ZM733.156 213H741.164V211.211H735.719C736.594 209.633 740.602 208.375 740.602 205.125C740.602 203.047 739.469 201.797 737.188 201.797C734.648 201.797 733.227 203.688 733.227 205.891H735.211C735.211 204.703 735.578 203.57 737.039 203.57C738.094 203.57 738.531 204.211 738.531 205.125C738.531 208.312 733.156 208.766 733.156 212.773V213ZM746.547 213.156C749.508 213.156 750.898 210.234 750.898 207.492C750.898 204.742 749.477 201.781 746.438 201.781C743.094 201.781 742.07 205.125 742.07 207.477C742.07 209.812 743.125 213.156 746.547 213.156ZM746.5 211.289C744.711 211.289 744.023 209.242 744.023 207.477C744.023 205.703 744.711 203.688 746.438 203.688C748.164 203.688 748.852 205.688 748.852 207.461C748.852 209.195 748.18 211.289 746.5 211.289Z" fill="#9FFFB8"></path><path d="M38.5195 51.1953C43.0703 51.1953 45.1602 47.8555 45.1602 44.0957C45.1602 40.3359 43.0703 36.9961 38.5195 36.9961C33.9688 36.9961 31.8789 40.3359 31.8789 44.0957C31.8789 47.8555 33.9688 51.1953 38.5195 51.1953ZM38.5195 48.9492C35.5508 48.9492 34.457 46.6738 34.457 44.0957C34.457 41.5176 35.5508 39.2422 38.5195 39.2422C41.4883 39.2422 42.582 41.5176 42.582 44.0957C42.582 46.6738 41.4883 48.9492 38.5195 48.9492ZM47.7969 37.1914V51H50.1797V41.3223L55.9609 51H58.4414V37.1914H56.0586V46.8594L50.2871 37.1914H47.7969ZM61.957 37.1914V51H70.3359V48.6562H64.4375V37.1914H61.957ZM72.6406 37.1914V51H75.1211V37.1914H72.6406ZM78.6367 37.1914V51H81.0195V41.3223L86.8008 51H89.2812V37.1914H86.8984V46.8594L81.127 37.1914H78.6367ZM92.7969 37.1914V51H101.977V48.7051H95.2773V45.1406H101.518V42.8945H95.2773V39.4375H101.977V37.1914H92.7969ZM109.75 37.1914V51H112.133V40.668L115.6 51H117.904L121.371 40.668V51H123.754V37.1914H120.316L116.752 48.041L113.188 37.1914H109.75ZM127.27 37.1914V51H129.75V37.1914H127.27ZM139.047 51.1953C142.133 51.1953 144.086 49.877 145.17 47.2207L142.875 46.2832C142.133 48.1094 140.951 48.8516 139.096 48.8516C136.586 48.8516 134.965 47.2207 134.965 44.0371C134.965 41.0586 136.547 39.3398 139.096 39.3398C141.098 39.3398 142.25 40.2383 142.836 41.8789L145.15 40.9609C144.057 38.334 142.113 36.9961 139.096 36.9961C135.004 36.9961 132.387 39.7793 132.387 44.1348C132.387 48.5879 135.102 51.1953 139.047 51.1953ZM157.064 41.1758C157.064 38.7637 155.199 37.1914 152.406 37.1914H147.445V51H149.926V45.1699H151.713L154.857 51H157.699L154.125 44.9062C155.912 44.3496 157.064 42.9531 157.064 41.1758ZM152.23 42.9629H149.945V39.4375H152.23C153.705 39.4375 154.525 40.0918 154.525 41.1953C154.525 42.2988 153.725 42.9629 152.23 42.9629ZM165.512 51.1953C170.062 51.1953 172.152 47.8555 172.152 44.0957C172.152 40.3359 170.062 36.9961 165.512 36.9961C160.961 36.9961 158.871 40.3359 158.871 44.0957C158.871 47.8555 160.961 51.1953 165.512 51.1953ZM165.512 48.9492C162.543 48.9492 161.449 46.6738 161.449 44.0957C161.449 41.5176 162.543 39.2422 165.512 39.2422C168.48 39.2422 169.574 41.5176 169.574 44.0957C169.574 46.6738 168.48 48.9492 165.512 48.9492ZM174.789 37.1914V51H179.984C182.914 51 184.672 49.3398 184.672 46.9277C184.672 45.4141 183.881 44.2324 182.553 43.5977C183.539 42.9141 183.988 42.0352 183.988 40.7656C183.988 38.6074 182.279 37.1914 179.613 37.1914H174.789ZM179.789 42.7676H177.27V39.4082H179.574C180.951 39.4082 181.693 40.1309 181.693 41.0781C181.693 42.2305 181.01 42.7676 179.789 42.7676ZM180.16 48.7734H177.27V44.8965H180.043C181.391 44.8965 182.221 45.6387 182.221 46.8203C182.221 48.1289 181.479 48.7734 180.16 48.7734ZM192.27 51.1953C195.971 51.1953 197.572 48.9883 197.572 45.5117V37.1914H195.092V45.3359C195.092 47.6016 194.525 48.8613 192.299 48.8613C190.082 48.8613 189.486 47.6016 189.486 45.3359V37.1914H187.016V45.6289C187.016 49.0078 188.568 51.1953 192.27 51.1953ZM204.701 51.1953C207.611 51.1953 209.525 49.5449 209.525 47.1914C209.525 42.4551 202.865 43.4414 202.865 40.6387C202.865 39.75 203.607 39.1445 204.672 39.1445C205.727 39.1445 206.381 39.6719 206.83 40.6777L209.125 40.0723C208.393 38.0898 206.811 36.9961 204.721 36.9961C202.182 36.9961 200.404 38.5488 200.404 40.8047C200.404 45.6094 207.084 44.6426 207.084 47.4551C207.084 48.3926 206.342 49.0469 204.809 49.0469C203.334 49.0469 202.191 48.2656 201.947 46.5176L199.486 47.1426C199.906 49.5938 201.869 51.1953 204.701 51.1953ZM211.918 37.1914V51H214.398V37.1914H211.918ZM217.914 37.1914V51H220.297V41.3223L226.078 51H228.559V37.1914H226.176V46.8594L220.404 37.1914H217.914ZM232.074 37.1914V51H241.254V48.7051H234.555V45.1406H240.795V42.8945H234.555V39.4375H241.254V37.1914H232.074ZM248.119 51.1953C251.029 51.1953 252.943 49.5449 252.943 47.1914C252.943 42.4551 246.283 43.4414 246.283 40.6387C246.283 39.75 247.025 39.1445 248.09 39.1445C249.145 39.1445 249.799 39.6719 250.248 40.6777L252.543 40.0723C251.811 38.0898 250.229 36.9961 248.139 36.9961C245.6 36.9961 243.822 38.5488 243.822 40.8047C243.822 45.6094 250.502 44.6426 250.502 47.4551C250.502 48.3926 249.76 49.0469 248.227 49.0469C246.752 49.0469 245.609 48.2656 245.365 46.5176L242.904 47.1426C243.324 49.5938 245.287 51.1953 248.119 51.1953ZM259.232 51.1953C262.143 51.1953 264.057 49.5449 264.057 47.1914C264.057 42.4551 257.396 43.4414 257.396 40.6387C257.396 39.75 258.139 39.1445 259.203 39.1445C260.258 39.1445 260.912 39.6719 261.361 40.6777L263.656 40.0723C262.924 38.0898 261.342 36.9961 259.252 36.9961C256.713 36.9961 254.936 38.5488 254.936 40.8047C254.936 45.6094 261.615 44.6426 261.615 47.4551C261.615 48.3926 260.873 49.0469 259.34 49.0469C257.865 49.0469 256.723 48.2656 256.479 46.5176L254.018 47.1426C254.438 49.5938 256.4 51.1953 259.232 51.1953ZM266.449 37.1914V51H275.629V48.7051H268.93V45.1406H275.17V42.8945H268.93V39.4375H275.629V37.1914H266.449ZM282.494 51.1953C285.404 51.1953 287.318 49.5449 287.318 47.1914C287.318 42.4551 280.658 43.4414 280.658 40.6387C280.658 39.75 281.4 39.1445 282.465 39.1445C283.52 39.1445 284.174 39.6719 284.623 40.6777L286.918 40.0723C286.186 38.0898 284.604 36.9961 282.514 36.9961C279.975 36.9961 278.197 38.5488 278.197 40.8047C278.197 45.6094 284.877 44.6426 284.877 47.4551C284.877 48.3926 284.135 49.0469 282.602 49.0469C281.127 49.0469 279.984 48.2656 279.74 46.5176L277.279 47.1426C277.699 49.5938 279.662 51.1953 282.494 51.1953ZM300.15 37.1914H298.354L292.855 51H295.473L296.615 48.002H301.84L302.973 51H305.648L300.15 37.1914ZM299.223 40.6973L301.127 45.8828H297.338L299.223 40.6973ZM317.123 41.1758C317.123 38.7637 315.258 37.1914 312.465 37.1914H307.504V51H309.984V45.1699H311.771L314.916 51H317.758L314.184 44.9062C315.971 44.3496 317.123 42.9531 317.123 41.1758ZM312.289 42.9629H310.004V39.4375H312.289C313.764 39.4375 314.584 40.0918 314.584 41.1953C314.584 42.2988 313.783 42.9629 312.289 42.9629ZM319.867 37.1914V51H329.047V48.7051H322.348V45.1406H328.588V42.8945H322.348V39.4375H329.047V37.1914H319.867ZM340.717 51.1953C343.627 51.1953 345.541 49.5449 345.541 47.1914C345.541 42.4551 338.881 43.4414 338.881 40.6387C338.881 39.75 339.623 39.1445 340.688 39.1445C341.742 39.1445 342.396 39.6719 342.846 40.6777L345.141 40.0723C344.408 38.0898 342.826 36.9961 340.736 36.9961C338.197 36.9961 336.42 38.5488 336.42 40.8047C336.42 45.6094 343.1 44.6426 343.1 47.4551C343.1 48.3926 342.357 49.0469 340.824 49.0469C339.35 49.0469 338.207 48.2656 337.963 46.5176L335.502 47.1426C335.922 49.5938 337.885 51.1953 340.717 51.1953ZM352.875 51.1953C356.576 51.1953 358.178 48.9883 358.178 45.5117V37.1914H355.697V45.3359C355.697 47.6016 355.131 48.8613 352.904 48.8613C350.688 48.8613 350.092 47.6016 350.092 45.3359V37.1914H347.621V45.6289C347.621 49.0078 349.174 51.1953 352.875 51.1953ZM371.029 41.1758C371.029 38.7637 369.164 37.1914 366.371 37.1914H361.41V51H363.891V45.1699H365.678L368.822 51H371.664L368.09 44.9062C369.877 44.3496 371.029 42.9531 371.029 41.1758ZM366.195 42.9629H363.91V39.4375H366.195C367.67 39.4375 368.49 40.0918 368.49 41.1953C368.49 42.2988 367.689 42.9629 366.195 42.9629ZM371.938 37.1914L377.484 51H379.32L384.799 37.1914H382.104L378.441 47.0254L374.682 37.1914H371.938ZM386.684 37.1914V51H389.164V37.1914H386.684ZM391.039 37.1914L396.586 51H398.422L403.9 37.1914H401.205L397.543 47.0254L393.783 37.1914H391.039ZM405.785 37.1914V51H408.266V37.1914H405.785ZM411.781 37.1914V51H414.164V41.3223L419.945 51H422.426V37.1914H420.043V46.8594L414.271 37.1914H411.781ZM431.586 51.1953C433.461 51.1953 434.975 50.5312 435.893 49.0469L436.107 51H438.07V43.6172H432.533V45.668H435.717C435.463 47.5625 433.9 48.9492 431.771 48.9492C428.871 48.9492 427.641 46.7227 427.641 43.998C427.641 40.9609 429.252 39.2227 431.771 39.2227C433.559 39.2227 434.809 40.0234 435.463 41.7422L437.777 40.8242C436.684 38.2754 434.633 36.9961 431.771 36.9961C427.641 36.9961 425.062 39.7988 425.062 44.0957C425.062 48.4805 427.611 51.1953 431.586 51.1953ZM448.646 39.4375V51H451.127V39.4375H455.453V37.1914H444.32V39.4375H448.646ZM457.406 37.1914V51H459.887V45.1797H465.932V51H468.412V37.1914H465.932V42.9336H459.887V37.1914H457.406ZM471.938 37.1914V51H481.117V48.7051H474.418V45.1406H480.658V42.8945H474.418V39.4375H481.117V37.1914H471.938ZM488.891 37.1914V51H491.371V45.4043H493.207C496.098 45.4043 498.168 43.9492 498.168 41.3125C498.168 38.7051 496.117 37.1914 493.324 37.1914H488.891ZM493.236 43.1191H491.371V39.4766H493.236C494.867 39.4766 495.609 40.1699 495.609 41.3418C495.609 42.5137 494.887 43.1191 493.236 43.1191ZM504.818 37.1914H503.021L497.523 51H500.141L501.283 48.002H506.508L507.641 51H510.316L504.818 37.1914ZM503.891 40.6973L505.795 45.8828H502.006L503.891 40.6973ZM512.172 37.1914V51H514.555V41.3223L520.336 51H522.816V37.1914H520.434V46.8594L514.662 37.1914H512.172ZM526.332 37.1914V51H530.287C535.004 51 537.592 48.5 537.592 44.0957C537.592 39.7109 535.082 37.1914 530.287 37.1914H526.332ZM530.287 48.7246H528.812V39.4668H530.297C533.686 39.4668 535.014 40.8145 535.014 44.0957C535.014 47.543 533.109 48.7246 530.287 48.7246ZM540.238 37.1914V51H549.418V48.7051H542.719V45.1406H548.959V42.8945H542.719V39.4375H549.418V37.1914H540.238ZM552.387 37.1914V51H554.77V40.668L558.236 51H560.541L564.008 40.668V51H566.391V37.1914H562.953L559.389 48.041L555.824 37.1914H552.387ZM569.906 37.1914V51H572.387V37.1914H569.906ZM581.684 51.1953C584.77 51.1953 586.723 49.877 587.807 47.2207L585.512 46.2832C584.77 48.1094 583.588 48.8516 581.732 48.8516C579.223 48.8516 577.602 47.2207 577.602 44.0371C577.602 41.0586 579.184 39.3398 581.732 39.3398C583.734 39.3398 584.887 40.2383 585.473 41.8789L587.787 40.9609C586.693 38.334 584.75 36.9961 581.732 36.9961C577.641 36.9961 575.023 39.7793 575.023 44.1348C575.023 48.5879 577.738 51.1953 581.684 51.1953Z" fill="white"></path><path d="M626.098 272.088C627.697 272.088 628.729 271.186 628.729 269.938C628.729 266.879 624.439 267.793 624.439 265.584C624.439 264.84 625.049 264.283 625.975 264.283C626.742 264.283 627.299 264.611 627.697 265.332L628.336 265.021C627.809 264.066 627.07 263.627 625.98 263.627C624.68 263.627 623.707 264.518 623.707 265.602C623.707 268.408 627.984 267.477 627.984 269.967C627.984 270.828 627.311 271.426 626.145 271.426C624.955 271.426 624.176 270.805 623.912 269.645L623.186 269.85C623.543 271.279 624.586 272.088 626.098 272.088ZM635.549 269.07C635.549 267.354 634.395 266.053 632.736 266.053C631.078 266.053 629.924 267.359 629.924 269.07C629.924 270.787 631.078 272.088 632.736 272.088C634.395 272.088 635.549 270.781 635.549 269.07ZM634.799 269.07C634.799 270.43 634.02 271.461 632.736 271.461C631.447 271.461 630.674 270.424 630.674 269.07C630.674 267.711 631.453 266.68 632.736 266.68C634.02 266.68 634.799 267.717 634.799 269.07ZM641.666 272V266.141H640.957V269.645C640.957 270.805 640.295 271.455 639.275 271.455C638.35 271.455 637.805 270.898 637.805 269.814V266.141H637.096V269.908C637.096 271.309 637.869 272.088 639.1 272.088C639.914 272.088 640.605 271.689 640.957 270.98V272H641.666ZM643.787 266.141V272H644.49V268.977C644.49 267.418 645.422 266.75 646.266 266.75C646.465 266.75 646.623 266.779 646.787 266.838V266.111C646.646 266.076 646.488 266.053 646.283 266.053C645.527 266.053 644.842 266.486 644.49 267.424V266.141H643.787ZM650.156 272.088C651.27 272.088 652.119 271.502 652.477 270.482L651.814 270.236C651.568 270.986 650.977 271.438 650.186 271.438C648.914 271.438 648.281 270.359 648.281 269.07C648.281 267.6 649.055 266.703 650.156 266.703C650.924 266.703 651.516 267.137 651.809 267.898L652.482 267.641C652.043 266.586 651.24 266.053 650.162 266.053C648.557 266.053 647.537 267.301 647.537 269.07C647.537 270.811 648.51 272.088 650.156 272.088ZM656.268 272.088C657.211 272.088 657.867 271.807 658.523 271.121L658.031 270.676C657.51 271.227 657.012 271.443 656.279 271.443C655.125 271.443 654.357 270.705 654.293 269.211H658.623C658.646 269.053 658.658 268.895 658.658 268.713C658.658 267.225 657.75 266.053 656.174 266.053C654.621 266.053 653.549 267.277 653.549 269.1C653.549 270.928 654.621 272.088 656.268 272.088ZM656.145 266.668C657.264 266.668 657.949 267.459 657.949 268.666H654.299C654.416 267.359 655.201 266.668 656.145 266.668ZM661.096 267.055C661.371 267.055 661.6 266.826 661.6 266.551C661.6 266.27 661.365 266.047 661.096 266.047C660.814 266.047 660.586 266.275 660.586 266.551C660.586 266.826 660.814 267.055 661.096 267.055ZM661.096 272.088C661.371 272.088 661.6 271.859 661.6 271.578C661.6 271.303 661.365 271.08 661.096 271.08C660.814 271.08 660.586 271.303 660.586 271.578C660.586 271.859 660.814 272.088 661.096 272.088ZM670.594 272.088C671.918 272.088 672.926 271.508 673.441 270.488L673.5 272H674.104V267.764H671.338V268.391H673.389V268.801C673.389 270.02 672.604 271.42 670.635 271.42C668.678 271.42 667.664 270.014 667.664 267.828C667.664 265.654 668.695 264.289 670.676 264.289C672.018 264.289 672.885 264.863 673.348 266.111L674.021 265.836C673.424 264.359 672.328 263.627 670.682 263.627C668.221 263.627 666.885 265.314 666.885 267.857C666.885 270.512 668.297 272.088 670.594 272.088ZM681.322 269.07C681.322 267.354 680.168 266.053 678.51 266.053C676.852 266.053 675.697 267.359 675.697 269.07C675.697 270.787 676.852 272.088 678.51 272.088C680.168 272.088 681.322 270.781 681.322 269.07ZM680.572 269.07C680.572 270.43 679.793 271.461 678.51 271.461C677.221 271.461 676.447 270.424 676.447 269.07C676.447 267.711 677.227 266.68 678.51 266.68C679.793 266.68 680.572 267.717 680.572 269.07ZM683.209 263.715V272H685.395C688.137 272 689.672 270.488 689.672 267.84C689.672 265.191 688.184 263.715 685.441 263.715H683.209ZM685.418 271.32H683.959V264.395H685.418C687.768 264.395 688.893 265.537 688.893 267.857C688.893 270.207 687.604 271.32 685.418 271.32ZM695.15 270.77L695.197 272H695.795V268.584C695.795 266.867 694.986 266.053 693.545 266.053C692.514 266.053 691.781 266.428 691.213 267.254L691.758 267.658C692.18 267.002 692.742 266.686 693.504 266.686C694.57 266.686 695.121 267.219 695.127 268.625H693.527C691.822 268.625 690.984 269.299 690.984 270.371C690.984 271.443 691.764 272.088 692.977 272.088C693.92 272.088 694.682 271.643 695.15 270.77ZM693.111 271.473C692.203 271.473 691.711 271.027 691.711 270.336C691.711 269.627 692.244 269.176 693.486 269.176H695.127V269.551C695.133 270.365 694.424 271.473 693.111 271.473ZM702.697 263.715H701.988V267.453C701.637 266.586 700.852 266.053 699.855 266.053C698.268 266.053 697.348 267.377 697.348 269.07C697.348 270.77 698.268 272.088 699.855 272.088C700.857 272.088 701.637 271.555 701.988 270.688V272H702.697V263.715ZM700.014 271.461C698.771 271.461 698.092 270.418 698.092 269.07C698.092 267.723 698.771 266.68 700.014 266.68C701.256 266.68 702.047 267.711 702.047 269.076C702.047 270.43 701.256 271.461 700.014 271.461ZM709.693 263.715H708.984V267.453C708.633 266.586 707.848 266.053 706.852 266.053C705.264 266.053 704.344 267.377 704.344 269.07C704.344 270.77 705.264 272.088 706.852 272.088C707.854 272.088 708.633 271.555 708.984 270.688V272H709.693V263.715ZM707.01 271.461C705.768 271.461 705.088 270.418 705.088 269.07C705.088 267.723 705.768 266.68 707.01 266.68C708.252 266.68 709.043 267.711 709.043 269.076C709.043 270.43 708.252 271.461 707.01 271.461ZM712.441 274.508H713.227L716.426 266.141H715.676L713.807 271.127L711.727 266.141H710.93L713.449 272.023L712.441 274.508ZM722.648 272.088C723.949 272.088 724.758 271.432 724.758 270.395C724.758 268.086 721.271 269.123 721.271 267.535C721.271 267.02 721.723 266.656 722.531 266.656C723.258 266.656 723.75 266.984 724.031 267.57L724.617 267.26C724.219 266.492 723.504 266.053 722.537 266.053C721.312 266.053 720.574 266.703 720.574 267.576C720.574 269.867 724.049 268.66 724.049 270.471C724.049 271.068 723.557 271.479 722.666 271.479C721.811 271.479 721.23 271.08 720.914 270.312L720.311 270.594C720.68 271.52 721.453 272.088 722.648 272.088ZM730.846 272V266.141H730.137V269.645C730.137 270.805 729.475 271.455 728.455 271.455C727.529 271.455 726.984 270.898 726.984 269.814V266.141H726.275V269.908C726.275 271.309 727.049 272.088 728.279 272.088C729.094 272.088 729.785 271.689 730.137 270.98V272H730.846ZM732.967 266.141V272H733.67V268.977C733.67 267.418 734.602 266.75 735.445 266.75C735.645 266.75 735.803 266.779 735.967 266.838V266.111C735.826 266.076 735.668 266.053 735.463 266.053C734.707 266.053 734.021 266.486 733.67 267.424V266.141H732.967ZM736.664 266.141L739.055 272H739.658L742.049 266.141H741.281L739.365 271.08L737.443 266.141H736.664ZM745.6 272.088C746.543 272.088 747.199 271.807 747.855 271.121L747.363 270.676C746.842 271.227 746.344 271.443 745.611 271.443C744.457 271.443 743.689 270.705 743.625 269.211H747.955C747.979 269.053 747.99 268.895 747.99 268.713C747.99 267.225 747.082 266.053 745.506 266.053C743.953 266.053 742.881 267.277 742.881 269.1C742.881 270.928 743.953 272.088 745.6 272.088ZM745.477 266.668C746.596 266.668 747.281 267.459 747.281 268.666H743.631C743.748 267.359 744.533 266.668 745.477 266.668ZM750.223 274.508H751.008L754.207 266.141H753.457L751.588 271.127L749.508 266.141H748.711L751.23 272.023L750.223 274.508ZM756.275 271.812C756.275 271.314 756.029 271.062 755.695 271.062C755.414 271.062 755.197 271.279 755.197 271.561C755.197 271.842 755.402 272.064 755.689 272.064H755.719C755.719 272.305 755.596 272.527 755.25 272.668V273.225C755.9 272.973 756.275 272.527 756.275 271.812ZM763.893 272.088C765.645 272.088 766.488 270.945 766.488 268.977V263.715H765.744V268.994C765.744 270.617 765.176 271.396 763.904 271.396C762.768 271.396 762.082 270.664 762.006 269.521L761.273 269.598C761.379 271.057 762.363 272.088 763.893 272.088ZM773.232 272V266.141H772.523V269.645C772.523 270.805 771.861 271.455 770.842 271.455C769.916 271.455 769.371 270.898 769.371 269.814V266.141H768.662V269.908C768.662 271.309 769.436 272.088 770.666 272.088C771.48 272.088 772.172 271.689 772.523 270.98V272H773.232ZM775.354 272H776.062V263.715H775.354V272ZM778.816 274.508H779.602L782.801 266.141H782.051L780.182 271.127L778.102 266.141H777.305L779.824 272.023L778.816 274.508ZM786.645 272H792.422V271.326H787.535C788.256 269.99 791.807 268.379 791.807 265.965C791.807 264.465 790.934 263.627 789.416 263.627C787.723 263.627 786.75 264.811 786.75 266.445H787.477C787.477 265.18 788.086 264.295 789.381 264.295C790.512 264.295 791.062 264.939 791.062 265.971C791.062 268.432 786.645 269.996 786.645 271.865V272ZM796.248 272.088C798.545 272.088 799.225 269.727 799.225 267.857C799.225 266.006 798.539 263.627 796.23 263.627C793.887 263.627 793.26 266.041 793.26 267.857C793.26 269.656 793.893 272.088 796.248 272.088ZM796.242 271.385C794.479 271.385 793.992 269.451 793.992 267.857C793.992 266.252 794.49 264.336 796.23 264.336C797.988 264.336 798.48 266.264 798.48 267.857C798.48 269.451 797.982 271.385 796.242 271.385ZM800.051 272H805.828V271.326H800.941C801.662 269.99 805.213 268.379 805.213 265.965C805.213 264.465 804.34 263.627 802.822 263.627C801.129 263.627 800.156 264.811 800.156 266.445H800.883C800.883 265.18 801.492 264.295 802.787 264.295C803.918 264.295 804.469 264.939 804.469 265.971C804.469 268.432 800.051 269.996 800.051 271.865V272ZM809.654 272.088C811.951 272.088 812.631 269.727 812.631 267.857C812.631 266.006 811.945 263.627 809.637 263.627C807.293 263.627 806.666 266.041 806.666 267.857C806.666 269.656 807.299 272.088 809.654 272.088ZM809.648 271.385C807.885 271.385 807.398 269.451 807.398 267.857C807.398 266.252 807.896 264.336 809.637 264.336C811.395 264.336 811.887 266.264 811.887 267.857C811.887 269.451 811.389 271.385 809.648 271.385Z" fill="white"></path></svg> 