<svg width="278" height="278" viewBox="0 0 278 278" fill="none" xmlns="http://www.w3.org/2000/svg">
<path d="M139 271.484C213.369 271.484 273.656 211.197 273.656 136.828C273.656 62.4595 213.369 2.17188 139 2.17188C64.6314 2.17188 4.34375 62.4595 4.34375 136.828C4.34375 211.197 64.6314 271.484 139 271.484Z" fill="url(#paint0_linear)"/>
<path d="M139 261.385C207.791 261.385 263.557 205.619 263.557 136.828C263.557 68.0372 207.791 12.2711 139 12.2711C70.2094 12.2711 14.4434 68.0372 14.4434 136.828C14.4434 205.619 70.2094 261.385 139 261.385Z" fill="url(#paint1_radial)"/>
<path d="M139.212 42.5689C138.37 42.5689 137.634 41.9379 137.634 41.0963V19.1094C137.634 18.2678 138.37 17.6368 139.212 17.6368C140.053 17.6368 140.79 18.2678 140.79 19.1094V41.0963C140.684 41.9379 140.053 42.5689 139.212 42.5689Z" fill="#F3F3F3"/>
<path d="M139.212 42.6743C138.265 42.6743 137.528 41.9381 137.528 41.0965V19.1095C137.528 18.2679 138.265 17.5316 139.212 17.5316C140.158 17.5316 140.895 18.2679 140.895 19.1095V41.0965C140.895 41.9381 140.053 42.6743 139.212 42.6743ZM139.212 17.7412C138.475 17.7412 137.739 18.3732 137.739 19.1095V41.0965C137.739 41.8327 138.37 42.4647 139.212 42.4647C139.948 42.4647 140.684 41.8327 140.684 41.0965V19.1095C140.58 18.3732 139.948 17.7412 139.212 17.7412Z" fill="white"/>
<path d="M149.731 30.7864C148.89 30.681 148.259 30.0501 148.259 29.2085L148.995 19.4242C149.099 18.5837 149.837 17.9517 150.678 18.057C151.52 18.1624 152.151 18.7944 152.151 19.636L151.415 29.4192C151.309 30.2608 150.573 30.8917 149.731 30.7875V30.7864Z" fill="#F3F3F3"/>
<path d="M149.731 30.8918C148.784 30.7865 148.153 30.0502 148.153 29.2086L148.89 19.4243C148.995 18.5838 149.731 17.8475 150.678 17.9518C151.624 18.0571 152.256 18.7945 152.256 19.635L151.52 29.4193C151.414 30.3662 150.678 30.9971 149.731 30.8918ZM150.678 18.1624C149.942 18.1624 149.205 18.6891 149.205 19.4254L148.468 29.2097C148.468 29.9449 148.995 30.5769 149.837 30.6811C150.573 30.6811 151.309 30.1555 151.309 29.4193L152.045 19.635C152.045 18.8987 151.414 18.2678 150.677 18.1624H150.678Z" fill="white"/>
<path d="M157.622 44.4628C156.779 44.2521 156.254 43.5158 156.359 42.6742L160.672 21.1075C160.883 20.267 161.619 19.7403 162.461 19.951C163.303 20.1617 163.828 20.8979 163.723 21.7395L159.409 43.3063C159.304 44.0414 158.463 44.5681 157.621 44.4628H157.622Z" fill="#F3F3F3"/>
<path d="M157.622 44.5681C156.674 44.3574 156.148 43.5158 156.254 42.6742L160.567 21.1075C160.778 20.267 161.619 19.635 162.565 19.8456C163.512 20.0563 164.039 20.8979 163.933 21.7395L159.62 43.3062C159.409 44.1467 158.568 44.6734 157.622 44.5681ZM162.565 20.0563C161.829 19.951 161.092 20.3712 160.882 21.1086L156.57 42.6753C156.464 43.4105 156.884 44.1467 157.726 44.3585C158.462 44.4628 159.199 44.0414 159.409 43.3051L163.723 21.7395C163.828 20.8979 163.302 20.267 162.565 20.0563Z" fill="white"/>
<path d="M170.245 34.9945C170.044 34.9462 169.855 34.8589 169.689 34.7376C169.522 34.6162 169.381 34.4632 169.274 34.2873C169.166 34.1114 169.095 33.9161 169.063 33.7125C169.031 33.5088 169.04 33.3009 169.088 33.1006L171.718 23.6334C171.928 22.7918 172.769 22.3705 173.611 22.5812C174.453 22.7918 174.979 23.6334 174.769 24.475L172.138 33.9433C171.928 34.7838 171.086 35.2052 170.245 34.9945Z" fill="#F3F3F3"/>
<path d="M170.245 35.0998C169.404 34.8891 168.773 33.9422 169.089 33.1017L171.719 23.6323C171.928 22.7918 172.875 22.2651 173.717 22.4758C174.559 22.6865 175.19 23.6334 174.875 24.4739L172.245 33.9433C172.034 34.7838 171.192 35.3105 170.246 35.0998H170.245ZM173.717 22.7918C172.981 22.5811 172.139 23.0025 171.928 23.7387L169.299 33.2059C169.089 33.9422 169.509 34.6795 170.351 34.8891C171.087 35.0998 171.928 34.6795 172.139 33.9433L174.769 24.4739C174.875 23.7387 174.454 23.0025 173.717 22.7907V22.7918Z" fill="white"/>
<path d="M175.4 49.8283C174.558 49.5123 174.243 48.5654 174.558 47.8291L182.974 27.5254C183.289 26.7891 184.237 26.3678 184.972 26.7891C185.815 27.104 186.131 28.0521 185.815 28.7872L177.399 49.091C177.084 49.8283 176.136 50.2486 175.401 49.8283H175.4Z" fill="#F3F3F3"/>
<path d="M175.4 49.9336C174.996 49.7796 174.669 49.4715 174.492 49.077C174.314 48.6825 174.3 48.2338 174.453 47.8291L182.869 27.5253C183.185 26.6837 184.132 26.3677 185.079 26.6837C185.483 26.8378 185.81 27.1458 185.987 27.5403C186.165 27.9348 186.179 28.3835 186.026 28.7882L177.61 49.092C177.189 49.9336 176.242 50.3539 175.4 49.9336ZM184.974 26.8944C184.237 26.5794 183.396 26.8944 183.08 27.6306L174.664 47.9344C174.349 48.6707 174.769 49.4069 175.505 49.7229C176.242 50.0379 177.083 49.7229 177.399 48.9867L185.815 28.6829C186.026 28.0509 185.71 27.2093 184.974 26.8944Z" fill="white"/>
<path d="M189.603 43.0956C188.865 42.6742 188.549 41.8326 188.865 41.0964L193.284 32.3654C193.704 31.6281 194.546 31.3121 195.388 31.7334C196.125 32.1547 196.44 32.9963 196.125 33.7315L191.705 42.4636C191.285 43.1998 190.443 43.5169 189.601 43.0956H189.603Z" fill="#F3F3F3"/>
<path d="M189.603 43.201C188.761 42.7797 188.446 41.8327 188.866 40.9911L193.285 32.2602C193.705 31.4175 194.653 31.1026 195.493 31.5229C196.335 31.9442 196.651 32.8911 196.23 33.7327L191.812 42.4637C191.391 43.3053 190.444 43.6213 189.602 43.1999L189.603 43.201ZM195.389 31.7335C194.652 31.4186 193.81 31.6282 193.495 32.3645L189.077 41.0965C188.762 41.7274 189.077 42.569 189.708 42.9904C190.444 43.3053 191.285 43.0957 191.601 42.3594L196.02 33.6274C196.335 32.9965 196.02 32.1549 195.389 31.7335Z" fill="white"/>
<path d="M191.706 58.6646C190.97 58.139 190.759 57.1921 191.285 56.5612L203.489 38.3609C203.909 37.6246 204.857 37.5192 205.592 37.9406C206.33 38.4662 206.539 39.4131 206.014 40.0441L193.81 58.2444C193.39 58.9806 192.443 59.1913 191.706 58.6646Z" fill="#F3F3F3"/>
<path d="M191.706 58.7701C190.97 58.2445 190.759 57.1922 191.181 56.4559L203.383 38.2556C203.909 37.5193 204.856 37.3087 205.697 37.8353C206.434 38.3609 206.644 39.4132 206.224 40.1495L194.02 58.3498C193.495 59.0861 192.442 59.2956 191.706 58.7701ZM205.592 38.046C204.962 37.6247 204.014 37.73 203.594 38.3609L191.39 56.5613C190.97 57.1911 191.18 58.0338 191.812 58.454C192.442 58.8754 193.389 58.7701 193.81 58.1391L206.013 40.0441C206.434 39.4132 206.224 38.4663 205.592 38.046Z" fill="white"/>
<path d="M207.065 54.7728C206.435 54.2461 206.224 53.2991 206.75 52.6682L212.852 44.9884C213.377 44.3586 214.324 44.2522 214.955 44.7789C215.587 45.3045 215.797 46.2514 215.27 46.8823L209.169 54.5621C208.644 55.193 207.697 55.2983 207.066 54.7728H207.065Z" fill="#F3F3F3"/>
<path d="M206.961 54.878C206.224 54.3513 206.119 53.299 206.646 52.5628L212.746 44.8841C213.272 44.1467 214.324 44.0414 215.061 44.6734C215.797 45.199 215.902 46.2513 215.375 46.9875L209.275 54.6673C208.749 55.4036 207.697 55.5089 206.961 54.878ZM214.85 44.883C214.22 44.3574 213.377 44.4627 212.852 45.0937L206.75 52.7734C206.33 53.4044 206.435 54.246 207.065 54.7716C207.697 55.2982 208.538 55.1929 209.064 54.562L215.166 46.8822C215.587 46.2513 215.481 45.3043 214.851 44.8841L214.85 44.883Z" fill="white"/>
<path d="M206.013 70.5523C205.382 69.9214 205.382 68.9745 206.013 68.4478L221.582 52.9841C222.214 52.3531 223.16 52.4574 223.687 52.9841C224.212 53.5096 224.318 54.5619 223.687 55.0875L208.223 70.5523C207.591 71.1833 206.644 71.1833 206.013 70.5523Z" fill="#F3F3F3"/>
<path d="M205.908 70.6577C205.605 70.349 205.435 69.9335 205.435 69.5007C205.435 69.0678 205.605 68.6523 205.908 68.3436L221.477 52.8788C221.786 52.575 222.202 52.4048 222.635 52.4048C223.068 52.4048 223.484 52.575 223.792 52.8788C224.096 53.1875 224.266 53.603 224.266 54.0358C224.266 54.4687 224.096 54.8842 223.792 55.1929L208.222 70.6566C207.913 70.9601 207.498 71.1301 207.065 71.1301C206.632 71.1301 206.217 70.9601 205.908 70.6566V70.6577ZM223.687 52.9841C223.161 52.4574 222.214 52.4574 221.689 52.9841L206.119 68.4478C205.592 68.9745 205.592 69.9215 206.119 70.4471C206.644 70.9737 207.591 70.9737 208.117 70.4471L223.687 54.9833C224.213 54.4566 224.213 53.615 223.687 52.9841Z" fill="white"/>
<path d="M221.793 69.7108C221.267 69.0798 221.267 68.1329 221.898 67.6062L229.367 61.2948C229.998 60.7692 230.945 60.8734 231.472 61.5054C231.998 62.1364 231.998 63.0833 231.367 63.6089L223.898 69.9214C223.266 70.447 222.319 70.3417 221.793 69.7108Z" fill="#F3F3F3"/>
<path d="M221.688 69.8162C221.058 69.0799 221.163 68.0276 221.794 67.502L229.263 61.1895C229.894 60.5585 230.946 60.6639 231.577 61.4001C232.209 62.1364 232.104 63.1887 231.473 63.7143L224.003 70.0268C223.373 70.6567 222.319 70.5524 221.69 69.8162H221.688ZM231.367 61.5055C230.841 60.8745 229.999 60.8745 229.369 61.2948L221.899 67.6074C221.374 68.133 221.268 68.9746 221.794 69.6055C222.319 70.2364 223.162 70.2364 223.792 69.8162L231.262 63.5036C231.893 62.978 231.893 62.1364 231.367 61.5055Z" fill="white"/>
<path d="M217.585 84.8595C217.059 84.1233 217.27 83.1763 218.006 82.755L236.311 70.5523C237.047 70.131 237.994 70.3417 238.414 70.9737C238.941 71.7099 238.73 72.6569 237.994 73.0771L219.689 85.2798C219.057 85.7011 218.11 85.4905 217.585 84.8595Z" fill="#F3F3F3"/>
<path d="M217.48 84.8597C216.955 84.1235 217.165 83.0712 217.902 82.5456L236.206 70.3418C236.942 69.8162 237.995 70.0269 238.52 70.8685C239.047 71.6048 238.835 72.657 238.1 73.1815L219.796 85.3864C219.058 85.9131 218.007 85.7024 217.48 84.8608V84.8597ZM238.31 71.0792C237.889 70.4471 237.048 70.2365 236.417 70.6578L218.111 82.8605C217.481 83.2819 217.27 84.1235 217.796 84.8597C218.217 85.4907 219.058 85.7013 219.69 85.2811L237.995 73.0773C238.626 72.5517 238.731 71.709 238.31 71.0792Z" fill="white"/>
<path d="M233.261 87.0695C232.839 86.3322 233.05 85.3863 233.786 84.965L242.308 80.126C243.044 79.7047 243.991 80.0207 244.411 80.7559C244.832 81.4932 244.622 82.4391 243.885 82.8604L235.364 87.7004C234.628 88.1207 233.681 87.8058 233.26 87.0684L233.261 87.0695Z" fill="#F3F3F3"/>
<path d="M233.155 87.1738C232.734 86.3322 232.945 85.3852 233.681 84.965L242.202 80.126C242.938 79.7047 243.991 80.0207 244.411 80.7559C244.832 81.5986 244.622 82.5455 243.885 82.9658L235.364 87.8058C234.628 88.226 233.575 87.91 233.155 87.1738ZM244.306 80.8623C243.885 80.126 243.044 79.9154 242.413 80.3356L233.891 85.1757C233.261 85.5959 233.05 86.4375 233.365 87.0684C233.786 87.8047 234.628 88.0154 235.259 87.5951L243.78 82.7551C244.411 82.4402 244.622 81.5986 244.306 80.8623Z" fill="white"/>
<path d="M226.212 101.061C225.897 100.219 226.212 99.3775 227.053 99.0626L247.357 90.6466C248.093 90.3306 249.04 90.7508 249.355 91.4871C249.671 92.3287 249.355 93.1703 248.513 93.4852L228.211 101.901C227.473 102.217 226.528 101.901 226.212 101.061Z" fill="#F3F3F3"/>
<path d="M226.107 101.165C225.792 100.324 226.107 99.3775 226.949 98.9562L247.252 90.5402C247.657 90.3877 248.106 90.4018 248.5 90.5792C248.894 90.7567 249.202 91.0832 249.356 91.4871C249.672 92.3287 249.356 93.2757 248.514 93.6959L228.212 102.112C227.807 102.265 227.358 102.251 226.964 102.074C226.569 101.897 226.261 101.57 226.107 101.166V101.165ZM249.146 91.5925C248.83 90.8562 247.989 90.5402 247.358 90.7509L227.054 99.1669C226.318 99.4818 226.002 100.324 226.318 101.061C226.633 101.797 227.474 102.113 228.106 101.902L248.409 93.4864C249.146 93.1714 249.462 92.3287 249.146 91.5925Z" fill="white"/>
<path d="M241.045 106.321C240.73 105.478 241.15 104.638 241.992 104.322L251.249 101.27C251.986 100.955 252.933 101.481 253.143 102.217C253.458 103.059 253.038 103.9 252.196 104.216L242.939 107.268C242.203 107.583 241.361 107.163 241.045 106.32V106.321Z" fill="#F3F3F3"/>
<path d="M240.939 106.425C240.624 105.584 241.045 104.637 241.993 104.322L251.249 101.27C252.091 100.955 253.038 101.481 253.354 102.324C253.669 103.164 253.248 104.111 252.3 104.427L243.044 107.479C242.202 107.688 241.255 107.267 240.939 106.425ZM253.143 102.429C252.932 101.692 252.091 101.27 251.354 101.481L242.097 104.533C241.361 104.742 241.045 105.584 241.255 106.321C241.466 107.057 242.308 107.478 243.044 107.267L252.301 104.217C253.038 103.902 253.354 103.164 253.143 102.428V102.429Z" fill="white"/>
<path d="M231.578 118.84C231.367 117.998 231.893 117.157 232.734 117.051L254.301 112.843C255.142 112.633 255.879 113.264 256.088 114.105C256.299 114.947 255.774 115.788 254.932 115.894L233.365 120.102C232.524 120.207 231.682 119.681 231.577 118.84H231.578Z" fill="#F3F3F3"/>
<path d="M231.367 118.84C231.156 117.893 231.787 117.051 232.629 116.84L254.196 112.632C255.037 112.422 255.879 113.054 256.088 114.001C256.299 114.947 255.668 115.788 254.827 115.999L233.26 120.207C232.419 120.417 231.577 119.787 231.367 118.839V118.84ZM255.879 114.105C255.773 113.369 255.037 112.843 254.301 112.948L232.734 117.156C231.998 117.262 231.472 118.102 231.682 118.84C231.787 119.576 232.524 120.101 233.261 119.996L254.827 115.788C255.563 115.577 256.088 114.841 255.879 114.105Z" fill="white"/>
<path d="M245.043 126.94C244.937 126.098 245.463 125.362 246.305 125.257L255.982 124.099C256.824 123.995 257.561 124.626 257.666 125.467C257.771 126.309 257.245 127.045 256.404 127.15L246.725 128.307C245.989 128.412 245.147 127.781 245.042 126.94H245.043Z" fill="#F3F3F3"/>
<path d="M244.938 126.94C244.833 125.993 245.464 125.151 246.305 125.046L255.983 123.889C256.825 123.784 257.667 124.415 257.772 125.362C257.877 126.309 257.246 127.15 256.405 127.256L246.726 128.412C245.885 128.518 245.043 127.887 244.938 126.94ZM257.667 125.467C257.562 124.731 256.826 124.099 256.089 124.204L246.411 125.362C245.675 125.467 245.148 126.203 245.253 126.94C245.359 127.676 246.095 128.308 246.831 128.203L256.51 127.045C257.246 126.94 257.772 126.203 257.668 125.467H257.667Z" fill="white"/>
<path d="M233.261 137.144C233.261 136.303 233.891 135.566 234.733 135.566H256.72C257.562 135.566 258.193 136.303 258.193 137.144C258.193 137.986 257.562 138.722 256.72 138.722H234.733C233.892 138.722 233.261 137.986 233.261 137.144Z" fill="#F3F3F3"/>
<path d="M233.155 137.144C233.155 136.197 233.892 135.461 234.733 135.461H256.72C257.562 135.461 258.298 136.197 258.298 137.144C258.298 138.091 257.562 138.827 256.72 138.827H234.733C233.892 138.827 233.155 138.091 233.155 137.144ZM258.087 137.25C258.087 136.513 257.456 135.777 256.719 135.777H234.734C233.998 135.777 233.366 136.407 233.366 137.25C233.366 137.986 233.998 138.722 234.734 138.722H256.721C257.457 138.617 258.088 137.986 258.088 137.25H258.087Z" fill="white"/>
<path d="M244.938 147.769C245.042 146.928 245.674 146.297 246.515 146.297L256.3 147.033C257.14 147.138 257.771 147.875 257.666 148.716C257.562 149.558 256.93 150.189 256.088 150.189L246.305 149.452C245.569 149.347 244.937 148.611 244.937 147.769H244.938Z" fill="#F3F3F3"/>
<path d="M244.833 147.769C244.938 146.822 245.675 146.191 246.516 146.191L256.301 146.928C257.141 147.033 257.877 147.769 257.772 148.716C257.668 149.663 256.93 150.294 256.089 150.294L246.306 149.558C245.464 149.452 244.833 148.611 244.833 147.769ZM257.668 148.716C257.772 147.98 257.141 147.244 256.405 147.244L246.62 146.507C245.885 146.507 245.253 147.033 245.148 147.876C245.044 148.611 245.675 149.347 246.411 149.347L256.195 150.083C256.93 150.083 257.562 149.453 257.668 148.716Z" fill="white"/>
<path d="M231.367 155.449C231.578 154.607 232.314 154.081 233.156 154.187L254.721 158.5C255.563 158.71 256.089 159.446 255.879 160.288C255.668 161.129 254.932 161.656 254.09 161.551L232.523 157.237C231.787 157.132 231.262 156.29 231.367 155.449Z" fill="#F3F3F3"/>
<path d="M231.261 155.449C231.472 154.502 232.314 153.976 233.155 154.081L254.721 158.395C255.563 158.605 256.193 159.446 255.983 160.393C255.773 161.34 254.932 161.867 254.09 161.761L232.523 157.448C231.682 157.237 231.156 156.396 231.261 155.45V155.449ZM255.773 160.393C255.879 159.657 255.458 158.921 254.721 158.71L233.154 154.397C232.419 154.292 231.682 154.713 231.471 155.554C231.367 156.29 231.787 157.027 232.524 157.237L254.09 161.551C254.932 161.656 255.562 161.129 255.773 160.393Z" fill="white"/>
<path d="M240.836 168.073C240.884 167.872 240.971 167.684 241.092 167.517C241.214 167.351 241.367 167.21 241.542 167.102C241.718 166.995 241.913 166.923 242.117 166.891C242.32 166.859 242.528 166.868 242.728 166.916L252.197 169.545C253.038 169.756 253.459 170.599 253.249 171.439C253.201 171.64 253.114 171.829 252.992 171.995C252.871 172.162 252.718 172.303 252.542 172.411C252.366 172.518 252.171 172.59 251.967 172.622C251.763 172.654 251.555 172.645 251.355 172.597L241.887 169.967C241.045 169.756 240.625 168.914 240.835 168.073H240.836Z" fill="#F3F3F3"/>
<path d="M240.728 168.073C240.939 167.231 241.886 166.6 242.728 166.916L252.196 169.545C253.038 169.756 253.564 170.703 253.354 171.545C253.143 172.386 252.196 173.017 251.354 172.702L241.886 170.072C241.044 169.861 240.518 169.02 240.729 168.074L240.728 168.073ZM253.038 171.545C253.248 170.808 252.827 169.967 252.091 169.756L242.622 167.126C241.886 166.915 241.15 167.337 240.939 168.178C240.73 168.914 241.15 169.756 241.886 169.967L251.354 172.597C252.091 172.702 252.827 172.282 253.038 171.545Z" fill="white"/>
<path d="M226.001 173.122C226.316 172.281 227.264 171.965 227.999 172.281L248.304 180.697C249.04 181.012 249.461 181.96 249.146 182.695C248.83 183.538 247.883 183.853 247.146 183.538L226.843 175.122C226.001 174.807 225.685 173.859 226.001 173.124V173.122Z" fill="#F3F3F3"/>
<path d="M225.896 173.017C226.05 172.613 226.358 172.286 226.753 172.109C227.147 171.931 227.596 171.917 228.001 172.07L248.305 180.486C249.146 180.802 249.461 181.749 249.146 182.696C248.992 183.1 248.684 183.427 248.29 183.604C247.895 183.782 247.446 183.796 247.042 183.643L226.738 175.227C225.896 174.806 225.581 173.859 225.896 173.017ZM248.935 182.591C249.25 181.854 248.935 181.013 248.199 180.697L227.895 172.281C227.159 171.966 226.423 172.386 226.107 173.122C225.792 173.859 226.107 174.7 226.843 175.016L247.147 183.432C247.883 183.643 248.725 183.327 248.935 182.591Z" fill="white"/>
<path d="M232.84 187.324C233.261 186.588 234.102 186.272 234.838 186.588L243.57 191.007C244.307 191.322 244.623 192.269 244.202 193.11C243.781 193.847 242.939 194.164 242.203 193.847L233.472 189.429C232.735 189.008 232.419 188.061 232.84 187.324Z" fill="#F3F3F3"/>
<path d="M232.734 187.219C233.156 186.377 234.102 186.062 234.944 186.483L243.675 190.901C244.517 191.323 244.833 192.27 244.411 193.11C243.991 193.952 243.043 194.268 242.202 193.846L233.472 189.429C232.629 189.114 232.314 188.061 232.734 187.219ZM244.096 193.005C244.411 192.269 244.201 191.427 243.464 191.112L234.733 186.693C234.101 186.378 233.261 186.693 232.84 187.324C232.525 188.061 232.734 188.902 233.47 189.218L242.201 193.637C242.939 193.952 243.78 193.742 244.096 193.005Z" fill="white"/>
<path d="M217.375 189.323C217.901 188.587 218.743 188.377 219.479 188.902L237.784 201.106C238.52 201.526 238.626 202.474 238.205 203.209C237.679 203.947 236.837 204.156 236.101 203.631L217.796 191.427C217.06 190.901 216.849 189.954 217.375 189.323Z" fill="#F3F3F3"/>
<path d="M217.269 189.218C217.796 188.482 218.848 188.271 219.585 188.693L237.889 200.895C238.625 201.421 238.836 202.368 238.309 203.209C237.784 203.947 236.732 204.156 235.996 203.736L217.691 191.532C216.849 191.007 216.744 189.955 217.269 189.218ZM237.995 203.104C238.415 202.474 238.309 201.526 237.68 201.106L219.374 188.902C218.743 188.482 217.901 188.693 217.48 189.324C217.06 189.955 217.165 190.901 217.795 191.322L236.101 203.526C236.732 203.947 237.573 203.736 237.995 203.105V203.104Z" fill="white"/>
<path d="M221.268 204.578C221.793 203.946 222.74 203.736 223.371 204.263L231.051 210.258C231.682 210.784 231.787 211.731 231.262 212.363C230.736 212.993 229.789 213.205 229.157 212.678L221.477 206.681C220.847 206.156 220.741 205.209 221.268 204.578Z" fill="#F3F3F3"/>
<path d="M221.163 204.472C221.688 203.736 222.741 203.631 223.477 204.157L231.157 210.153C231.893 210.678 231.998 211.731 231.472 212.467C230.946 213.204 229.894 213.309 229.159 212.783L221.478 206.786C220.741 206.261 220.637 205.209 221.163 204.472ZM231.262 212.363C231.788 211.731 231.682 210.889 231.051 210.364L223.372 204.367C222.741 203.947 221.899 204.052 221.373 204.682C220.847 205.314 220.952 206.156 221.583 206.681L229.263 212.678C229.894 213.099 230.735 212.993 231.261 212.363H231.262Z" fill="white"/>
<path d="M205.591 203.525C206.223 202.895 207.17 202.895 207.696 203.525L223.265 218.989C223.897 219.621 223.792 220.568 223.265 221.094C222.635 221.725 221.687 221.725 221.162 221.094L205.591 205.63C205.066 205.103 205.066 204.051 205.591 203.525Z" fill="#F3F3F3"/>
<path d="M205.592 203.42C205.901 203.116 206.317 202.946 206.75 202.946C207.183 202.946 207.599 203.116 207.907 203.42L223.477 218.884C223.78 219.193 223.951 219.608 223.951 220.041C223.951 220.475 223.78 220.89 223.477 221.199C223.168 221.503 222.752 221.673 222.32 221.673C221.887 221.673 221.471 221.503 221.162 221.199L205.592 205.735C204.856 205.103 204.856 204.052 205.592 203.42ZM223.266 220.988C223.793 220.463 223.793 219.516 223.266 218.99L207.697 203.525C207.171 203 206.224 203 205.699 203.525C205.172 204.051 205.172 204.998 205.699 205.524L221.268 220.988C221.793 221.62 222.636 221.62 223.266 220.988Z" fill="white"/>
<path d="M206.539 219.2C207.171 218.674 208.117 218.674 208.644 219.305L215.062 226.669C215.586 227.301 215.482 228.248 214.85 228.773C214.22 229.299 213.272 229.299 212.746 228.668L206.329 221.304C205.803 220.779 205.908 219.832 206.539 219.2Z" fill="#F3F3F3"/>
<path d="M206.435 219.2C207.171 218.57 208.118 218.674 208.748 219.305L215.165 226.669C215.796 227.301 215.691 228.352 214.955 228.984C214.218 229.615 213.272 229.51 212.641 228.879L206.223 221.515C205.697 220.779 205.697 219.727 206.433 219.2H206.435ZM214.851 228.774C215.48 228.248 215.48 227.405 215.06 226.775L208.642 219.411C208.117 218.885 207.275 218.78 206.644 219.305C206.013 219.832 206.013 220.673 206.433 221.303L212.851 228.668C213.377 229.299 214.22 229.299 214.849 228.774H214.851Z" fill="white"/>
<path d="M191.391 215.203C192.127 214.677 193.074 214.888 193.495 215.624L205.697 233.823C206.118 234.559 205.907 235.506 205.277 235.928C204.54 236.453 203.593 236.243 203.172 235.506L190.969 217.306C190.548 216.571 190.759 215.623 191.39 215.203H191.391Z" fill="#F3F3F3"/>
<path d="M191.39 215.097C192.126 214.572 193.179 214.782 193.704 215.519L205.908 233.719C206.434 234.454 206.223 235.506 205.382 236.032C204.645 236.559 203.594 236.348 203.067 235.612L190.865 217.411C190.339 216.571 190.55 215.624 191.39 215.098V215.097ZM205.277 235.822C205.908 235.401 206.119 234.559 205.697 233.928L193.495 215.728C193.073 215.098 192.232 214.992 191.497 215.413C190.865 215.833 190.654 216.675 191.075 217.307L203.278 235.506C203.699 236.032 204.646 236.243 205.276 235.821L205.277 235.822Z" fill="white"/>
<path d="M189.181 230.772C189.918 230.351 190.865 230.562 191.285 231.298L196.125 239.82C196.545 240.556 196.229 241.503 195.493 241.923C194.757 242.344 193.81 242.134 193.389 241.398L188.55 232.876C188.234 232.14 188.445 231.193 189.18 230.773L189.181 230.772Z" fill="#F3F3F3"/>
<path d="M189.182 230.667C190.023 230.246 190.97 230.457 191.39 231.193L196.229 239.714C196.651 240.451 196.44 241.503 195.599 241.923C194.757 242.345 193.81 242.134 193.39 241.398L188.551 232.876C188.129 232.14 188.34 231.193 189.18 230.667H189.182ZM195.493 241.819C196.125 241.398 196.44 240.556 196.02 239.925L191.181 231.404C190.759 230.773 189.918 230.562 189.287 230.877C188.655 231.298 188.34 232.14 188.76 232.771L193.6 241.292C193.915 241.923 194.862 242.239 195.493 241.818V241.819Z" fill="white"/>
<path d="M175.189 223.829C176.031 223.514 176.872 223.829 177.188 224.566L185.71 244.869C186.025 245.606 185.604 246.553 184.868 246.867C184.132 247.183 183.185 246.867 182.87 246.131L174.349 225.829C174.032 225.091 174.453 224.145 175.189 223.829Z" fill="#F3F3F3"/>
<path d="M175.189 223.724C176.031 223.409 176.978 223.724 177.399 224.565L185.921 244.869C186.073 245.274 186.059 245.722 185.882 246.117C185.704 246.511 185.378 246.819 184.974 246.973C184.132 247.289 183.185 246.973 182.765 246.131L174.244 225.828C173.928 225.091 174.349 224.145 175.189 223.724ZM184.763 246.763C185.499 246.447 185.815 245.606 185.499 244.975L176.978 224.671C176.663 223.935 175.821 223.619 175.085 223.935C174.349 224.249 174.032 225.091 174.349 225.723L182.869 246.027C183.291 246.763 184.027 247.078 184.763 246.763Z" fill="white"/>
<path d="M170.035 238.767C170.877 238.452 171.718 238.873 172.034 239.714L175.085 248.972C175.4 249.708 174.875 250.655 174.138 250.866C173.297 251.181 172.455 250.76 172.14 249.919L169.089 240.661C168.774 239.925 169.194 239.083 170.036 238.767H170.035Z" fill="#F3F3F3"/>
<path d="M169.93 238.662C170.335 238.51 170.783 238.524 171.177 238.701C171.572 238.879 171.88 239.205 172.034 239.609L175.085 248.867C175.4 249.708 174.874 250.655 174.032 250.971C173.627 251.124 173.179 251.11 172.784 250.932C172.39 250.755 172.082 250.428 171.928 250.024L168.878 240.767C168.667 239.925 169.089 238.978 169.93 238.662ZM174.033 250.759C174.769 250.55 175.189 249.708 174.98 248.972L171.928 239.714C171.719 238.978 170.877 238.662 170.141 238.873C169.404 239.083 168.983 239.925 169.194 240.661L172.244 249.919C172.298 250.098 172.389 250.263 172.51 250.404C172.632 250.545 172.782 250.659 172.951 250.739C173.12 250.818 173.303 250.861 173.49 250.865C173.676 250.869 173.861 250.833 174.033 250.761V250.759Z" fill="white"/>
<path d="M157.622 229.195C158.462 228.984 159.305 229.51 159.409 230.351L163.828 251.918C164.039 252.759 163.407 253.496 162.565 253.706C161.725 253.916 160.882 253.391 160.778 252.549L156.358 230.982C156.254 230.246 156.779 229.404 157.621 229.194L157.622 229.195Z" fill="#F3F3F3"/>
<path d="M157.621 229.088C158.567 228.879 159.409 229.51 159.619 230.351L164.038 251.918C164.249 252.759 163.617 253.706 162.775 253.811C161.828 254.022 160.987 253.391 160.777 252.549L156.357 230.982C156.148 230.141 156.674 229.299 157.62 229.09L157.621 229.088ZM162.564 253.6C163.302 253.496 163.827 252.759 163.722 251.917L159.303 230.351C159.199 229.615 158.358 229.09 157.62 229.299C156.884 229.404 156.358 230.141 156.464 230.982L160.882 252.549C161.092 253.285 161.828 253.706 162.566 253.601L162.564 253.6Z" fill="white"/>
<path d="M149.627 242.87C150.468 242.765 151.205 243.292 151.415 244.133L152.677 253.811C152.782 254.653 152.152 255.389 151.309 255.494C150.468 255.6 149.732 255.074 149.521 254.232L148.26 244.553C148.154 243.712 148.785 242.976 149.627 242.87Z" fill="#F3F3F3"/>
<path d="M149.627 242.765C150.574 242.66 151.415 243.291 151.52 244.133L152.782 253.811C152.888 254.652 152.257 255.494 151.31 255.599C150.363 255.705 149.521 255.074 149.416 254.231L148.154 244.553C148.049 243.712 148.68 242.87 149.627 242.765ZM151.204 255.389C151.941 255.284 152.573 254.547 152.467 253.811L151.204 244.133C151.099 243.397 150.363 242.87 149.627 242.975C148.89 243.081 148.258 243.817 148.364 244.553L149.627 254.232C149.732 254.968 150.468 255.494 151.204 255.389Z" fill="white"/>
<path d="M138.791 231.088C139.632 231.088 140.369 231.72 140.369 232.561V254.547C140.369 255.389 139.632 256.021 138.791 256.021C137.949 256.021 137.213 255.389 137.213 254.547V232.561C137.318 231.72 137.949 231.088 138.791 231.088Z" fill="#F3F3F3"/>
<path d="M138.791 230.982C139.738 230.982 140.474 231.719 140.474 232.56V254.547C140.474 255.389 139.738 256.125 138.791 256.125C137.844 256.125 137.107 255.389 137.107 254.547V232.561C137.107 231.72 137.949 230.982 138.791 230.982ZM138.791 255.915C139.527 255.915 140.263 255.284 140.263 254.547V232.561C140.263 231.824 139.632 231.193 138.791 231.193C138.054 231.193 137.318 231.824 137.318 232.561V254.547C137.422 255.284 138.054 255.915 138.791 255.915Z" fill="white"/>
<path d="M128.27 242.87C129.112 242.975 129.743 243.606 129.743 244.448L129.006 254.232C128.902 255.074 128.165 255.705 127.323 255.6C126.482 255.494 125.851 254.863 125.851 254.021L126.587 244.237C126.692 243.397 127.428 242.765 128.27 242.87Z" fill="#F3F3F3"/>
<path d="M128.27 242.765C129.217 242.87 129.848 243.606 129.848 244.448L129.112 254.232C129.006 255.074 128.27 255.81 127.323 255.705C126.377 255.599 125.745 254.863 125.745 254.022L126.481 244.237C126.587 243.291 127.323 242.66 128.27 242.765ZM127.323 255.494C128.059 255.494 128.797 254.968 128.797 254.232L129.533 244.448C129.533 243.712 129.006 243.081 128.165 242.975C127.428 242.975 126.692 243.501 126.692 244.238L125.956 254.022C125.956 254.758 126.587 255.39 127.324 255.494H127.323Z" fill="white"/>
<path d="M120.381 229.195C121.223 229.404 121.748 230.141 121.643 230.982L117.329 252.549C117.119 253.391 116.382 253.917 115.541 253.706C114.699 253.496 114.174 252.76 114.279 251.917L118.592 230.351C118.698 229.615 119.539 229.09 120.381 229.195Z" fill="#F3F3F3"/>
<path d="M120.381 229.088C121.326 229.299 121.853 230.142 121.748 230.982L117.434 252.549C117.224 253.391 116.382 254.022 115.436 253.811C114.489 253.6 113.963 252.759 114.068 251.917L118.381 230.351C118.592 229.51 119.434 228.983 120.379 229.09L120.381 229.088ZM115.436 253.6C116.173 253.706 116.909 253.285 117.119 252.549L121.432 230.982C121.537 230.246 121.117 229.51 120.275 229.299C119.539 229.195 118.803 229.615 118.592 230.352L114.279 251.917C114.173 252.759 114.699 253.391 115.436 253.6Z" fill="white"/>
<path d="M107.755 238.662C108.598 238.873 109.124 239.714 108.913 240.556L106.283 250.024C106.073 250.866 105.232 251.286 104.39 251.077C104.19 251.028 104.001 250.941 103.834 250.82C103.667 250.699 103.526 250.546 103.419 250.37C103.311 250.194 103.239 249.998 103.207 249.795C103.175 249.591 103.184 249.383 103.233 249.183L105.863 239.714C106.073 238.873 106.915 238.453 107.757 238.662H107.755Z" fill="#F3F3F3"/>
<path d="M107.756 238.558C108.598 238.767 109.229 239.714 108.913 240.556L106.283 250.024C106.073 250.866 105.127 251.393 104.285 251.181C103.443 250.971 102.812 250.024 103.127 249.183L105.757 239.714C105.968 238.873 106.81 238.346 107.756 238.557V238.558ZM104.285 250.866C105.021 251.077 105.863 250.655 106.073 249.919L108.703 240.451C108.913 239.714 108.493 238.978 107.651 238.767C106.915 238.557 106.073 238.978 105.863 239.714L103.233 249.183C103.127 249.919 103.548 250.655 104.285 250.866Z" fill="white"/>
<path d="M102.601 223.829C103.443 224.144 103.758 225.091 103.443 225.827L95.027 246.131C94.7121 246.868 93.7641 247.289 93.0289 246.868C92.2916 246.447 91.8702 245.605 92.1862 244.869L100.602 224.565C100.917 223.829 101.865 223.408 102.6 223.829H102.601Z" fill="#F3F3F3"/>
<path d="M102.602 223.724C103.006 223.878 103.333 224.186 103.51 224.58C103.688 224.975 103.702 225.424 103.549 225.828L95.1329 246.131C94.8169 246.973 93.87 247.289 92.923 246.973C92.5191 246.819 92.1926 246.511 92.0151 246.116C91.8377 245.722 91.8236 245.274 91.9761 244.869L100.392 224.565C100.813 223.724 101.76 223.304 102.602 223.724ZM93.0284 246.763C93.7646 247.078 94.6063 246.763 94.9223 246.027L103.338 225.723C103.653 224.987 103.233 224.249 102.497 223.934C101.76 223.62 100.919 223.934 100.603 224.671L92.1868 244.975C91.9761 245.605 92.2921 246.447 93.0284 246.763Z" fill="white"/>
<path d="M88.3997 230.562C89.136 230.982 89.4509 231.824 89.136 232.56L84.7173 241.292C84.2959 242.028 83.4543 242.345 82.6127 241.923C81.8765 241.503 81.5615 240.661 81.8765 239.925L86.2962 231.194C86.7165 230.457 87.5581 230.141 88.3997 230.562Z" fill="#F3F3F3"/>
<path d="M88.4002 230.457C89.2418 230.877 89.5568 231.825 89.1365 232.665L84.7178 241.398C84.2965 242.239 83.3495 242.555 82.509 242.134C81.6674 241.714 81.3514 240.765 81.7728 239.925L86.1904 231.194C86.6117 230.351 87.5586 230.036 88.4002 230.457ZM82.6144 241.924C83.3506 242.239 84.1922 242.028 84.5071 241.292L88.9258 232.561C89.2407 231.929 88.9258 231.088 88.2949 230.667C87.5586 230.352 86.717 230.562 86.401 231.298L81.9823 240.029C81.6674 240.661 81.9823 241.503 82.6144 241.923V241.924Z" fill="white"/>
<path d="M86.2953 214.993C87.0316 215.518 87.2422 216.465 86.7166 217.096L74.5129 235.297C74.0926 236.032 73.1446 236.137 72.4094 235.717C71.6732 235.19 71.4625 234.244 71.9881 233.612L84.1918 215.412C84.6121 214.677 85.559 214.466 86.2953 214.992V214.993Z" fill="#F3F3F3"/>
<path d="M86.2954 214.887C87.0316 215.413 87.2423 216.465 86.821 217.202L74.6183 235.402C74.0927 236.137 73.1458 236.348 72.3042 235.822C71.5679 235.296 71.3572 234.244 71.7775 233.507L83.9812 215.308C84.5068 214.572 85.5591 214.361 86.2954 214.887ZM72.4095 235.612C73.0393 236.032 73.9874 235.927 74.4076 235.297L86.6114 217.096C87.0316 216.465 86.8221 215.624 86.19 215.203C85.5591 214.782 84.6122 214.888 84.1919 215.517L71.9882 233.612C71.5679 234.244 71.7775 235.19 72.4095 235.611V235.612Z" fill="white"/>
<path d="M70.9355 218.885C71.5675 219.41 71.7771 220.357 71.2515 220.988L65.1496 228.668C64.624 229.299 63.677 229.404 63.0461 228.879C62.4152 228.353 62.2045 227.406 62.7312 226.774L68.832 219.094C69.3576 218.465 70.3045 218.358 70.9355 218.885Z" fill="#F3F3F3"/>
<path d="M71.0411 218.78C71.7773 219.305 71.8827 220.358 71.356 221.094L65.2552 228.774C64.7296 229.51 63.6773 229.615 62.9411 228.984C62.2048 228.458 62.0994 227.406 62.6261 226.669L68.7269 218.99C69.2525 218.253 70.3048 218.149 71.0411 218.78ZM63.1517 228.774C63.7816 229.299 64.6243 229.195 65.1498 228.563L71.2517 220.883C71.6731 220.253 71.5667 219.411 70.9368 218.885C70.3048 218.358 69.4632 218.464 68.9376 219.096L62.8357 226.774C62.4155 227.406 62.5208 228.352 63.1506 228.774H63.1517Z" fill="white"/>
<path d="M71.9881 203.105C72.619 203.735 72.619 204.683 71.9881 205.209L56.419 220.672C55.787 221.304 54.8412 221.199 54.3145 220.672C53.7889 220.147 53.6835 219.094 54.3145 218.569L69.7782 203.105C70.4102 202.473 71.3572 202.473 71.9881 203.105Z" fill="#F3F3F3"/>
<path d="M72.0935 203C72.3966 203.308 72.5664 203.724 72.5664 204.156C72.5664 204.589 72.3966 205.004 72.0935 205.313L56.5234 220.779C56.2147 221.082 55.7994 221.252 55.3668 221.252C54.9342 221.252 54.5189 221.082 54.2103 220.779C53.9066 220.47 53.7363 220.054 53.7363 219.621C53.7363 219.188 53.9066 218.772 54.2103 218.464L69.7794 203C70.0881 202.696 70.5036 202.526 70.9365 202.526C71.3693 202.526 71.7848 202.696 72.0935 203ZM54.3146 220.672C54.8401 221.198 55.7871 221.198 56.3127 220.672L71.8829 205.208C72.4095 204.682 72.4095 203.735 71.8829 203.209C71.3573 202.683 70.4103 202.683 69.8847 203.209L54.3146 218.673C53.789 219.199 53.789 220.041 54.3146 220.671V220.672Z" fill="white"/>
<path d="M56.2084 203.947C56.7339 204.577 56.7339 205.525 56.103 206.05L48.6339 212.363C48.003 212.888 47.0561 212.783 46.5294 212.152C46.0038 211.52 46.0038 210.574 46.6347 210.048L54.1038 203.736C54.7358 203.209 55.6817 203.315 56.2084 203.947Z" fill="#F3F3F3"/>
<path d="M56.3142 203.84C56.9452 204.578 56.8398 205.629 56.2089 206.156L48.7398 212.467C48.1089 213.099 47.0566 212.994 46.4257 212.258C45.7937 211.52 45.899 210.469 46.53 209.942L54.0001 203.631C54.63 203 55.6833 203.105 56.3132 203.842L56.3142 203.84ZM46.6353 212.152C47.162 212.783 48.0036 212.783 48.6334 212.363L56.1036 206.05C56.6292 205.525 56.7345 204.682 56.2089 204.052C55.6822 203.42 54.8406 203.42 54.2108 203.842L46.7406 210.153C46.1097 210.679 46.1097 211.521 46.6353 212.151V212.152Z" fill="white"/>
<path d="M60.4169 188.797C60.9425 189.534 60.7318 190.48 59.9956 190.901L41.691 203.105C40.9547 203.525 40.0078 203.315 39.5875 202.684C39.0609 201.948 39.2715 201.001 40.0078 200.579L58.3134 188.377C58.9455 187.956 59.8913 188.166 60.418 188.797H60.4169Z" fill="#F3F3F3"/>
<path d="M60.5218 188.797C61.0474 189.534 60.8367 190.585 60.1005 191.112L41.7959 203.315C41.0597 203.841 40.0074 203.63 39.4818 202.789C38.9551 202.053 39.1669 201.001 39.902 200.475L58.2077 188.271C58.9439 187.746 59.9951 187.956 60.5207 188.797H60.5218ZM39.6925 202.579C40.1127 203.209 40.9543 203.42 41.5852 203L59.8898 190.796C60.5218 190.376 60.7314 189.534 60.2058 188.798C59.7855 188.166 58.9439 187.956 58.3119 188.377L40.0074 200.58C39.3765 201.106 39.2711 201.948 39.6925 202.579Z" fill="white"/>
<path d="M44.7412 186.588C45.1625 187.324 44.9518 188.271 44.2156 188.693L35.6942 193.532C34.958 193.952 34.011 193.637 33.5908 192.901C33.1694 192.165 33.3801 191.218 34.1164 190.796L42.6377 185.957C43.374 185.536 44.3209 185.852 44.7423 186.588H44.7412Z" fill="#F3F3F3"/>
<path d="M44.8476 186.483C45.2678 187.324 45.0572 188.271 44.3209 188.693L35.7996 193.532C35.0633 193.952 34.011 193.637 33.5908 192.901C33.1694 192.059 33.3801 191.112 34.1164 190.691L42.6377 185.852C43.374 185.43 44.4262 185.746 44.8465 186.483H44.8476ZM33.695 192.795C34.1164 193.532 34.958 193.742 35.5889 193.321L44.1102 188.482C44.7412 188.061 44.9518 187.219 44.6369 186.588C44.2156 185.852 43.374 185.641 42.743 186.063L34.2217 190.901C33.5908 191.216 33.3801 192.059 33.6961 192.795H33.695Z" fill="white"/>
<path d="M51.7901 172.597C52.105 173.439 51.7901 174.28 50.9485 174.595L30.6447 183.011C29.9084 183.327 28.9615 182.907 28.6466 182.169C28.3306 181.328 28.6466 180.486 29.4882 180.171L49.792 171.755C50.5282 171.44 51.4752 171.755 51.7901 172.597Z" fill="#F3F3F3"/>
<path d="M51.8954 172.492C52.2103 173.333 51.8954 174.28 51.0538 174.7L30.75 183.116C30.3455 183.269 29.897 183.255 29.5027 183.077C29.1085 182.9 28.8007 182.573 28.6466 182.169C28.3306 181.328 28.6466 180.381 29.4882 179.961L49.792 171.545C50.1965 171.392 50.645 171.406 51.0393 171.584C51.4335 171.761 51.7414 172.088 51.8954 172.492ZM28.8562 182.064C29.1722 182.801 30.0138 183.117 30.6447 182.906L50.9485 174.49C51.6847 174.175 52.0008 173.333 51.6847 172.597C51.3698 171.861 50.5282 171.545 49.8962 171.755L29.5924 180.171C28.8562 180.486 28.5413 181.328 28.8562 182.065V182.064Z" fill="white"/>
<path d="M36.9568 167.337C37.2717 168.178 36.8515 169.02 36.0099 169.335L26.7523 172.386C26.016 172.701 25.0691 172.176 24.8584 171.439C24.5435 170.598 24.9637 169.756 25.8053 169.441L35.063 166.39C35.7992 166.075 36.6408 166.495 36.9568 167.337Z" fill="#F3F3F3"/>
<path d="M37.0606 167.231C37.3766 168.073 36.9564 169.02 36.0094 169.336L26.7518 172.386C25.9102 172.701 24.9633 172.176 24.6473 171.334C24.3323 170.492 24.7526 169.545 25.7006 169.231L34.9571 166.179C35.7988 165.969 36.7457 166.39 37.0617 167.232L37.0606 167.231ZM24.859 171.23C25.0697 171.966 25.9113 172.387 26.6476 172.177L35.9052 169.125C36.6414 168.916 36.9574 168.074 36.7468 167.338C36.5361 166.601 35.6945 166.18 34.9582 166.391L25.7006 169.442C24.9644 169.757 24.6483 170.493 24.859 171.23Z" fill="white"/>
<path d="M46.4245 154.818C46.6341 155.66 46.1085 156.501 45.2669 156.606L23.7002 160.814C22.8586 161.025 22.1223 160.393 21.9127 159.551C21.7021 158.71 22.2277 157.868 23.0693 157.763L44.636 153.555C45.4776 153.451 46.3192 153.976 46.4234 154.818H46.4245Z" fill="#F3F3F3"/>
<path d="M46.6353 154.818C46.846 155.765 46.215 156.606 45.3734 156.816L23.8067 161.024C22.9651 161.235 22.1235 160.604 21.9139 159.657C21.7033 158.71 22.3342 157.868 23.1758 157.659L44.7425 153.451C45.583 153.24 46.4257 153.871 46.6353 154.818ZM22.1235 159.553C22.2289 160.288 22.9651 160.814 23.7014 160.709L45.2681 156.501C46.0044 156.396 46.53 155.554 46.3204 154.818C46.215 154.082 45.4788 153.555 44.7414 153.66L23.1758 157.868C22.4395 158.079 21.9139 158.815 22.1235 159.551V159.553Z" fill="white"/>
<path d="M32.9597 146.718C33.0639 147.558 32.5383 148.296 31.6967 148.401L22.0188 149.558C21.1762 149.663 20.4399 149.032 20.3356 148.189C20.2303 147.349 20.7559 146.612 21.5975 146.506L31.2765 145.35C32.0127 145.244 32.8543 145.875 32.9597 146.718Z" fill="#F3F3F3"/>
<path d="M33.0649 146.718C33.1692 147.664 32.5383 148.505 31.6967 148.611L22.0188 149.768C21.1761 149.874 20.3356 149.243 20.2303 148.296C20.1249 147.349 20.7558 146.507 21.5974 146.402L31.2764 145.244C32.1169 145.139 32.9596 145.771 33.0639 146.717L33.0649 146.718ZM20.3345 148.19C20.4398 148.927 21.1772 149.559 21.9135 149.452L31.5913 148.296C32.3276 148.19 32.8543 147.454 32.7489 146.718C32.6436 145.981 31.9073 145.35 31.1711 145.455L21.4921 146.613C20.7558 146.718 20.2303 147.454 20.3345 148.19Z" fill="white"/>
<path d="M44.7405 136.512C44.7405 137.355 44.1107 138.091 43.268 138.091H21.2821C20.4405 138.091 19.8096 137.355 19.8096 136.513C19.8096 135.672 20.4405 134.934 21.2821 134.934H43.2691C44.1107 134.934 44.7427 135.672 44.7427 136.513L44.7405 136.512Z" fill="#F3F3F3"/>
<path d="M44.8478 136.512C44.8478 137.46 44.1104 138.195 43.2688 138.195H21.2829C20.4413 138.195 19.7051 137.459 19.7051 136.512C19.7051 135.566 20.4413 134.829 21.2829 134.829H43.2699C44.1115 134.829 44.8478 135.566 44.8478 136.512ZM19.9147 136.408C19.9147 137.144 20.5456 137.88 21.2829 137.88H43.2688C44.0051 137.88 44.6371 137.25 44.6371 136.408C44.6371 135.672 44.0051 134.934 43.2688 134.934H21.2829C20.5467 135.04 19.9158 135.672 19.9158 136.408H19.9147Z" fill="white"/>
<path d="M33.065 125.887C32.9586 126.729 32.3276 127.36 31.486 127.36L21.7017 126.624C20.8612 126.518 20.2303 125.782 20.3345 124.941C20.4399 124.099 21.0719 123.468 21.9135 123.468L31.6967 124.204C32.433 124.31 33.065 125.046 33.065 125.887Z" fill="#E2E2E2"/>
<path d="M33.1697 125.887C33.0644 126.834 32.3281 127.465 31.4865 127.465L21.7022 126.729C20.8617 126.624 20.1254 125.887 20.2308 124.941C20.335 123.995 21.0724 123.363 21.914 123.363L31.6972 124.099C32.5388 124.204 33.1697 125.046 33.1697 125.887ZM20.335 124.941C20.2308 125.677 20.8617 126.414 21.598 126.414L31.3823 127.15C32.1175 127.15 32.7495 126.624 32.8548 125.782C32.9601 125.046 32.3281 124.31 31.5919 124.31L21.8076 123.573C21.0724 123.573 20.4404 124.204 20.335 124.942V124.941Z" fill="white"/>
<path d="M46.6354 118.208C46.4247 119.049 45.6884 119.576 44.8468 119.471L23.2812 115.052C22.4396 114.841 21.9129 114.105 22.1236 113.263C22.3343 112.422 23.0705 111.895 23.9121 112.002L45.4789 116.315C46.2151 116.524 46.7407 117.366 46.6354 118.208Z" fill="#F3F3F3"/>
<path d="M46.7398 118.208C46.5291 119.155 45.6875 119.681 44.8459 119.576L23.2803 115.263C22.4387 115.052 21.8078 114.21 22.0184 113.264C22.228 112.316 23.0696 111.791 23.9112 111.896L45.4779 116.209C46.3195 116.42 46.8451 117.262 46.7398 118.208ZM22.228 113.263C22.1227 114 22.5429 114.736 23.2803 114.947L44.847 119.26C45.5833 119.365 46.3195 118.945 46.5302 118.102C46.6344 117.366 46.2142 116.63 45.4768 116.419L23.9123 112.107C23.0707 112.001 22.4398 112.527 22.2291 113.263H22.228Z" fill="white"/>
<path d="M37.168 105.585C37.1197 105.785 37.0323 105.974 36.911 106.141C36.7896 106.307 36.6367 106.448 36.4608 106.556C36.2849 106.663 36.0895 106.735 35.8859 106.767C35.6823 106.798 35.4744 106.79 35.2741 106.741L25.8058 104.111C24.9642 103.9 24.5439 103.059 24.7535 102.217C24.8018 102.017 24.8891 101.828 25.0105 101.661C25.1318 101.495 25.2848 101.354 25.4607 101.246C25.6366 101.139 25.8319 101.067 26.0356 101.035C26.2392 101.004 26.4471 101.012 26.6474 101.061L36.1157 103.691C36.9573 103.9 37.3775 104.742 37.168 105.584V105.585Z" fill="#F3F3F3"/>
<path d="M37.272 105.585C37.0625 106.425 36.1155 107.057 35.2739 106.741L25.8056 104.111C24.964 103.901 24.4373 102.954 24.648 102.113C24.8587 101.27 25.8056 100.639 26.6472 100.955L36.1155 103.586C36.9571 103.796 37.4838 104.638 37.272 105.584V105.585ZM24.964 102.111C24.7534 102.848 25.1747 103.69 25.911 103.899L35.3793 106.53C36.1155 106.74 36.8518 106.319 37.0625 105.477C37.272 104.741 36.8518 103.899 36.1155 103.69L26.6472 101.06C25.911 100.954 25.1747 101.375 24.964 102.112V102.111Z" fill="white"/>
<path d="M52.0003 100.535C51.6854 101.376 50.7374 101.692 50.0022 101.376L29.6973 92.9596C28.9611 92.6447 28.5408 91.6977 28.8557 90.9615C29.1717 90.1199 30.1187 89.8038 30.8549 90.1199L51.1587 98.5359C52.0003 98.8508 52.3163 99.7977 52.0003 100.534V100.535Z" fill="#F3F3F3"/>
<path d="M52.106 100.639C51.9519 101.044 51.6439 101.37 51.2494 101.548C50.8549 101.725 50.4062 101.739 50.0015 101.586L29.6977 93.1703C28.8561 92.8554 28.5412 91.9084 28.8561 90.9615C29.0101 90.5573 29.3182 90.2306 29.7127 90.0531C30.1072 89.8756 30.5559 89.8617 30.9606 90.0146L51.2644 98.4306C52.106 98.8508 52.4209 99.7989 52.106 100.639ZM29.0668 91.0668C28.7518 91.8031 29.0668 92.6447 29.803 92.9596L50.1068 101.376C50.8431 101.692 51.5793 101.27 51.8953 100.534C52.2103 99.7978 51.8953 98.9562 51.1591 98.6412L30.8553 90.2252C30.119 90.0146 29.2774 90.3306 29.0668 91.0668Z" fill="white"/>
<path d="M45.1621 86.3322C44.7419 87.0685 43.9003 87.3845 43.164 87.0685L34.432 82.6508C33.6957 82.3348 33.3797 81.3879 33.8011 80.5463C34.2213 79.81 35.0629 79.494 35.7992 79.81L44.5301 84.2287C45.2675 84.649 45.5835 85.597 45.1621 86.3322Z" fill="#F3F3F3"/>
<path d="M45.2672 86.4375C44.8459 87.2791 43.8989 87.5951 43.0573 87.1737L34.3264 82.7551C33.4848 82.3348 33.1688 81.3879 33.5901 80.5463C34.0104 79.7047 34.9584 79.3886 35.7989 79.81L44.5299 84.2287C45.3726 84.5436 45.6875 85.597 45.2672 86.4375ZM33.9051 80.6516C33.5901 81.3879 33.8008 82.2295 34.5371 82.5455L43.268 86.9642C43.9 87.2791 44.7416 86.9642 45.1619 86.3321C45.4768 85.5959 45.2672 84.7543 44.531 84.4383L35.6925 80.0218C35.0616 79.7068 34.22 79.9164 33.904 80.6527L33.9051 80.6516Z" fill="white"/>
<path d="M60.626 84.3331C60.1004 85.0704 59.2588 85.2811 58.5225 84.7544L40.3222 72.6571C39.5871 72.2357 39.4817 71.2888 39.902 70.5525C40.3233 69.8162 41.2703 69.6056 42.0065 70.1312L60.3111 82.3349C60.942 82.7563 61.1527 83.7032 60.626 84.3331Z" fill="#F3F3F3"/>
<path d="M60.7314 84.4384C60.2058 85.1757 59.1535 85.3853 58.4183 84.965L40.218 72.7613C39.4818 72.2357 39.2711 71.2887 39.7967 70.4482C40.3234 69.7109 41.3756 69.5002 42.1119 69.9215L60.3111 82.1242C61.1527 82.6509 61.2581 83.7021 60.7314 84.4384ZM40.0074 70.5525C39.5871 71.1834 39.6924 72.1303 40.3223 72.5506L58.6279 84.7555C59.2588 85.1768 60.1005 84.9661 60.5218 84.3352C60.9421 83.7032 60.8367 82.7562 60.2069 82.336L41.9001 70.1322C41.2692 69.7109 40.4276 69.9215 40.0063 70.5525H40.0074Z" fill="white"/>
<path d="M56.7336 69.0799C56.208 69.7108 55.2611 69.9215 54.6302 69.3948L46.9504 63.3993C46.3195 62.8726 46.2141 61.9257 46.7397 61.2948C47.2653 60.6638 48.2123 60.4532 48.8443 60.9798L56.523 66.9753C57.155 67.502 57.2603 68.4478 56.7336 69.0799Z" fill="#F3F3F3"/>
<path d="M56.8392 69.1842C56.3136 69.9215 55.2614 70.0269 54.5251 69.5002L46.8453 63.5047C46.1091 62.9791 46.0037 61.9269 46.5304 61.1917C47.056 60.4543 48.1083 60.349 48.8435 60.8757L56.5232 66.8711C57.2606 67.3978 57.3659 68.449 56.8392 69.1864V69.1842ZM46.74 61.2949C46.2144 61.9258 46.3198 62.7674 46.9507 63.293L54.6304 69.2906C55.2614 69.7109 56.103 69.6055 56.6286 68.9746C57.1552 68.3437 57.0499 67.5021 56.419 66.9765L48.7392 60.9788C48.1083 60.5586 47.2656 60.6639 46.7411 61.2949H46.74Z" fill="white"/>
<path d="M72.409 70.1311C71.7792 70.7631 70.8312 70.7631 70.3056 70.1311L54.6322 54.6674C54.0013 54.0365 54.1056 53.0895 54.6322 52.5628C55.2632 51.933 56.2101 51.933 56.7357 52.5628L72.3059 68.0277C72.9368 68.5533 72.9368 69.6055 72.4112 70.1322L72.409 70.1311Z" fill="#F3F3F3"/>
<path d="M72.4081 70.2375C72.0995 70.5406 71.6842 70.7104 71.2516 70.7104C70.819 70.7104 70.4037 70.5406 70.0951 70.2375L54.5238 54.7716C54.22 54.4628 54.0498 54.0471 54.0498 53.614C54.0498 53.1809 54.22 52.7651 54.5238 52.4564C54.8325 52.1529 55.248 51.9829 55.6808 51.9829C56.1137 51.9829 56.5292 52.1529 56.8379 52.4564L72.4081 67.9212C73.1444 68.5521 73.1444 69.6044 72.4081 70.2353V70.2375ZM54.7366 52.667C54.2099 53.1937 54.2099 54.1406 54.7366 54.6651L70.3057 70.13C70.8324 70.6567 71.7783 70.6567 72.3039 70.13C72.8305 69.6044 72.8305 68.6574 72.3039 68.1319L56.7348 52.5628C56.2092 52.0372 55.3665 52.0372 54.7366 52.6681V52.667Z" fill="white"/>
<path d="M71.4628 54.4566C70.8319 54.9833 69.8849 54.9833 69.3583 54.3513L62.9404 46.9875C62.4159 46.3566 62.5201 45.4097 63.1521 44.8841C63.782 44.3574 64.73 44.3574 65.2556 44.9883L71.6735 52.3532C72.1991 52.8788 72.0937 53.8257 71.4628 54.4566Z" fill="#F3F3F3"/>
<path d="M71.5681 54.4567C70.8318 55.0877 69.8849 54.9834 69.2529 54.3514L62.8361 46.9877C62.2051 46.3567 62.3105 45.3045 63.0467 44.6735C63.783 44.0415 64.7299 44.1468 65.3609 44.7789L71.7788 52.1415C72.3044 52.8789 72.3044 53.9311 71.5681 54.4567ZM63.1521 44.8842C62.5201 45.4098 62.5201 46.2514 62.9414 46.8823L69.3593 54.2461C69.8849 54.7727 70.7265 54.8781 71.3574 54.3514C71.9883 53.8258 71.9883 52.9831 71.5681 52.3533L65.1502 44.9884C64.6246 44.3586 63.7819 44.3586 63.1521 44.8842Z" fill="white"/>
<path d="M86.6113 58.455C85.875 58.9806 84.9281 58.77 84.5068 58.0337L72.1987 39.8334C71.7774 39.0971 71.9881 38.1502 72.619 37.7299C73.3553 37.2043 74.3022 37.415 74.7236 38.1513L86.9262 56.3505C87.4529 57.0868 87.2422 58.0337 86.6113 58.4539V58.455Z" fill="#F3F3F3"/>
<path d="M86.6119 58.5593C85.8757 59.0859 84.8234 58.8742 84.2967 58.139L72.0941 39.9387C71.5685 39.2024 71.7791 38.1512 72.6196 37.6256C73.3559 37.099 74.4082 37.3096 74.9349 38.0459L87.1375 56.2451C87.6631 57.0867 87.4524 58.0337 86.6119 58.5593ZM72.7239 37.8352C72.093 38.2555 71.8823 39.0971 72.3036 39.7291L84.5063 57.9283C84.9276 58.5593 85.7692 58.6646 86.5044 58.2432C87.1364 57.823 87.3471 56.9814 86.9258 56.3505L74.7242 38.2555C74.3029 37.6256 73.3559 37.4139 72.7261 37.8352H72.7239Z" fill="white"/>
<path d="M88.8202 42.8849C88.0839 43.3052 87.137 43.0956 86.7167 42.3593L81.8767 33.838C81.4565 33.1017 81.7714 32.1548 82.5087 31.7334C83.245 31.3132 84.1919 31.5228 84.6122 32.2601L89.4511 40.7804C89.7671 41.5166 89.5565 42.4636 88.8213 42.8849H88.8202Z" fill="#F3F3F3"/>
<path d="M88.8203 42.9903C87.9787 43.4105 87.0318 43.2009 86.6115 42.4636L81.7715 33.9433C81.3512 33.206 81.5619 32.1548 82.4035 31.7334C83.2451 31.3132 84.192 31.5228 84.6123 32.2601L89.4512 40.7804C89.8726 41.5166 89.6619 42.4636 88.8214 42.9903H88.8203ZM82.5088 31.8388C81.8768 32.259 81.5619 33.1006 81.9821 33.7326L86.8222 42.254C87.2424 42.8838 88.084 43.0956 88.715 42.7796C89.347 42.3593 89.6619 41.5166 89.2416 40.8857L84.4016 32.3644C84.0867 31.7345 83.1398 31.4174 82.5088 31.8388Z" fill="white"/>
<path d="M102.812 49.8284C101.971 50.1433 101.129 49.8284 100.814 49.0921L92.2922 28.7873C91.9773 28.051 92.3976 27.1041 93.1338 26.7881C93.9754 26.4732 94.8171 26.7881 95.132 27.5243L103.653 47.8281C103.969 48.5644 103.549 49.5113 102.812 49.8262V49.8284Z" fill="#F3F3F3"/>
<path d="M102.811 49.9336C101.971 50.2486 101.024 49.9336 100.602 49.091L92.081 28.7883C91.9281 28.3836 91.942 27.9348 92.1195 27.5403C92.297 27.1458 92.6237 26.8378 93.0279 26.6837C93.8695 26.3688 94.8164 26.6837 95.2378 27.5253L103.758 47.8291C104.074 48.5654 103.654 49.5123 102.812 49.9336H102.811ZM93.2386 26.8944C92.5023 27.2093 92.1863 28.052 92.5023 28.6829L101.023 48.9856C101.337 49.7219 102.179 50.0368 102.915 49.7219C103.652 49.407 103.969 48.5643 103.652 47.9334L95.1314 27.6296C94.71 26.8933 93.9737 26.5773 93.2375 26.8933L93.2386 26.8944Z" fill="white"/>
<path d="M107.967 34.8902C107.125 35.2051 106.284 34.7837 105.969 33.9432L102.917 24.6845C102.602 23.9482 103.128 23.0013 103.864 22.7917C104.601 22.5811 105.548 22.8971 105.862 23.7387L108.914 32.9963C109.229 33.7325 108.809 34.5741 107.967 34.8891V34.8902Z" fill="#F3F3F3"/>
<path d="M108.072 34.9943C107.668 35.1468 107.219 35.1328 106.825 34.9553C106.431 34.7778 106.123 34.4514 105.969 34.0474L102.917 24.7898C102.603 23.9482 103.128 23.0023 103.971 22.6863C104.375 22.5338 104.824 22.5479 105.218 22.7253C105.612 22.9028 105.92 23.2293 106.074 23.6333L109.125 32.8909C109.335 33.7325 108.914 34.6794 108.072 34.9943ZM103.97 22.897C103.233 23.1066 102.812 23.9482 103.023 24.6844L106.074 33.9432C106.284 34.6794 107.125 34.9943 107.863 34.7837C108.599 34.5741 109.019 33.7325 108.809 32.9962L105.758 23.7375C105.705 23.5589 105.614 23.3936 105.492 23.2524C105.371 23.1111 105.22 22.9971 105.052 22.9177C104.883 22.8383 104.699 22.7954 104.513 22.7916C104.327 22.7878 104.142 22.8234 103.97 22.8959V22.897Z" fill="white"/>
<path d="M120.381 44.4627C119.539 44.6734 118.698 44.1478 118.592 43.3051L114.174 21.7395C113.963 20.8979 114.595 20.1616 115.436 19.9509C116.278 19.7403 117.119 20.2659 117.224 21.1085L121.644 42.6753C121.748 43.4104 121.222 44.252 120.381 44.4627Z" fill="#F3F3F3"/>
<path d="M120.381 44.5681C119.434 44.7788 118.592 44.1467 118.381 43.3051L113.963 21.7395C113.752 20.8979 114.384 19.951 115.226 19.8456C116.173 19.635 117.014 20.267 117.224 21.1086L121.644 42.6753C121.853 43.5158 121.328 44.3585 120.381 44.5681ZM115.436 20.0563C114.699 20.1617 114.173 20.8979 114.279 21.7395L118.697 43.3062C118.803 44.0414 119.643 44.5681 120.381 44.3574C121.117 44.2521 121.642 43.5158 121.537 42.6742L117.118 21.1075C116.909 20.3723 116.173 19.951 115.435 20.0563H115.436Z" fill="white"/>
<path d="M128.375 30.7864C127.534 30.8918 126.798 30.3662 126.587 29.5246L125.325 19.8456C125.22 19.004 125.851 18.2677 126.693 18.1624C127.534 18.0571 128.27 18.5837 128.481 19.4254L129.743 29.1032C129.848 29.9448 129.217 30.6811 128.375 30.7864Z" fill="#F3F3F3"/>
<path d="M128.375 30.8918C127.428 30.9971 126.587 30.3662 126.481 29.5235L125.219 19.8456C125.114 19.004 125.745 18.1624 126.692 18.0571C127.639 17.9528 128.481 18.5837 128.586 19.4253L129.848 29.1032C129.953 29.9448 129.322 30.7864 128.375 30.8918ZM126.797 18.2677C126.061 18.3731 125.429 19.1093 125.534 19.8456L126.797 29.5246C126.903 30.2608 127.639 30.7864 128.375 30.6811C129.111 30.5768 129.743 29.8395 129.638 29.1032L128.375 19.4253C128.27 18.6891 127.534 18.1624 126.797 18.2677Z" fill="white"/>
<path d="M139.738 261.28C208.529 261.28 264.295 205.514 264.295 136.723C264.295 67.932 208.529 12.1659 139.738 12.1659C70.9467 12.1659 15.1807 67.932 15.1807 136.723C15.1807 205.514 70.9467 261.28 139.738 261.28Z" fill="url(#paint2_linear)" fill-opacity="0.2"/>
<g filter="url(#filter0_d)">
<path d="M226.001 57.7177L125.534 122.101H125.429V122.205L125.324 122.31L62.626 225.723L154.781 151.557L154.886 151.452V151.347L226.002 57.7187L226.001 57.7177Z" fill="black" fill-opacity="0.05"/>
</g>
<path d="M224.107 51.7211L124.798 122.31L154.254 151.556L224.107 51.7211Z" fill="#CD151E"/>
<path d="M124.903 122.101L139.737 136.723L224.107 51.7211L124.903 122.101Z" fill="#FA5153"/>
<path d="M124.903 122.101L154.359 151.345L55.0498 221.935L124.903 122.099V122.101Z" fill="#ACACAC"/>
<path d="M55.0498 221.935L139.736 136.723L124.902 122.099L55.0498 221.935Z" fill="#EEEEEE"/>
<defs>
<filter id="filter0_d" x="23.5635" y="28.4208" width="241.501" height="246.13" filterUnits="userSpaceOnUse" color-interpolation-filters="sRGB">
<feFlood flood-opacity="0" result="BackgroundImageFix"/>
<feColorMatrix in="SourceAlpha" type="matrix" values="0 0 0 0 0 0 0 0 0 0 0 0 0 0 0 0 0 0 127 0"/>
<feOffset dy="9.76562"/>
<feGaussianBlur stdDeviation="19.5312"/>
<feColorMatrix type="matrix" values="0 0 0 0 0 0 0 0 0 0 0 0 0 0 0 0 0 0 1 0"/>
<feBlend mode="normal" in2="BackgroundImageFix" result="effect1_dropShadow"/>
<feBlend mode="normal" in="SourceGraphic" in2="effect1_dropShadow" result="shape"/>
</filter>
<linearGradient id="paint0_linear" x1="139" y1="271.484" x2="139" y2="2.17188" gradientUnits="userSpaceOnUse">
<stop offset="0.25" stop-color="#DBDBDA"/>
<stop offset="1" stop-color="white"/>
</linearGradient>
<radialGradient id="paint1_radial" cx="0" cy="0" r="1" gradientUnits="userSpaceOnUse" gradientTransform="translate(156.501 109.468) scale(152.039)">
<stop stop-color="#2ABCE1"/>
<stop offset="0.11363" stop-color="#2ABBE1"/>
<stop offset="1" stop-color="#3375F8"/>
</radialGradient>
<linearGradient id="paint2_linear" x1="137.371" y1="101.107" x2="79.2354" y2="205.409" gradientUnits="userSpaceOnUse">
<stop stop-opacity="0"/>
<stop offset="1"/>
</linearGradient>
</defs>
</svg>
