<?xml version="1.0" encoding="UTF-8" standalone="no"?>
<!-- This is a Stata 16.1 generated SVG file (http://www.stata.com) -->

<svg version="1.1" width="4.00in" height="4.34in" viewBox="0 0 2880 3123" xmlns="http://www.w3.org/2000/svg" xmlns:xlink="http://www.w3.org/1999/xlink">
	<desc>Stata Graph - Graph</desc>
	<rect x="0" y="0" width="2880" height="3123" style="fill:#FFFFFF;stroke:none"/>
	<defs>
		<path id="path_teTEFUiI" d="M785.71 1822.95 L785.71 1822.95 L769.51 1822.95 L766.19 1822.66 L760.82 1822.27 L758.87 1822.27 L752.72 1822.08 L750.48 1822.08 L744.43 1821.98 L741.59 1821.88 L736.03 1821.78 L734.37 1821.78 L732.62 1821.78 L726.47 1821.68 L724.42 1821.68 L717.58 1821.59 L711.34 1821.59 L707.73 1821.59 L699.33 1821.49 L690.84 1821.29 L682.35 1821.20 L674.74 1821.20 L672.10 1821.20 L664.19 1821.10 L649.16 1820.81 L643.31 1820.61 L636.57 1820.22 L635.69 1820.22 L634.82 1820.32 L626.42 1820.32 L620.96 1820.32 L613.15 1820.22 L607.10 1820.12 L598.12 1820.03 L590.41 1819.93 L569.03 1819.44 L561.91 1819.34 L553.61 1819.34 L549.02 1819.34 L541.51 1819.25 L538.19 1819.25 L532.23 1819.15 L524.52 1818.95 L518.28 1818.85 L504.51 1818.85 L501.68 1818.76 L495.34 1818.76 L488.21 1818.66 L481.38 1818.56 L469.28 1818.46 L465.38 1818.46 L444.29 1817.98 L438.53 1817.88 L419.79 1817.59 L412.86 1817.39 L405.64 1817.49 L401.25 1817.49 L394.52 1817.49 L384.95 1817.20 L377.14 1816.90 L374.21 1816.81 L373.24 1816.81 L371.97 1818.17 L371.87 1816.81 L370.99 1816.81 L349.91 1816.71 L343.76 1816.71 L326.97 1816.51 L311.36 1816.32 L303.94 1816.32 L277.88 1816.22 L263.04 1816.02 L257.09 1815.93 L243.23 1815.93 L239.42 1815.93 L236.20 1815.83 L236.20 1817.20 L233.18 1817.10 L232.98 1815.83 L234.15 1793.68 L238.64 1768.69 L238.74 1742.54 L240.11 1653.73 L240.98 1634.99 L240.40 1627.86 L234.15 1630.69 L154.51 1659.48 L154.60 1654.99 L154.31 1530.86 L148.94 1530.76 L144.75 1530.66 L111.66 1530.07 L111.76 1526.76 L112.24 1514.36 L112.34 1511.14 L112.44 1508.80 L112.54 1503.43 L112.83 1496.60 L113.12 1488.60 L113.42 1480.11 L113.51 1476.50 L113.61 1471.91 L114.10 1455.61 L114.29 1446.63 L114.39 1442.92 L114.59 1430.72 L114.68 1428.09 L114.78 1422.62 L114.98 1412.77 L115.08 1408.67 L115.17 1402.62 L115.37 1392.66 L115.56 1381.44 L115.66 1379.59 L113.32 1379.49 L96.82 1379.39 L90.67 1379.29 L76.13 1379.00 L70.47 1378.90 L56.22 1378.61 L45.87 1378.41 L40.12 1378.22 L33.67 1378.12 L31.33 1378.02 L29.77 1377.93 L28.21 1377.83 L29.09 1361.92 L29.28 1353.23 L29.96 1311.76 L30.55 1280.82 L32.01 1230.95 L33.97 1230.95 L35.24 1181.86 L42.56 1178.54 L42.65 1162.24 L36.11 1162.05 L28.70 1091.59 L28.60 1089.44 L29.48 1089.34 L29.96 1089.24 L30.94 1088.76 L31.43 1088.56 L32.70 1087.88 L35.04 1086.32 L36.60 1086.80 L37.19 1087.00 L40.12 1087.88 L43.04 1088.56 L46.46 1089.15 L47.53 1089.24 L50.75 1089.44 L53.49 1089.54 L55.54 1089.63 L60.61 1089.63 L74.08 1089.83 L78.38 1089.73 L80.04 1089.63 L94.29 1089.24 L99.85 1089.15 L119.08 1088.56 L121.32 1088.56 L124.64 1089.44 L126.10 1089.34 L133.82 1089.63 L135.96 1089.73 L137.91 1089.93 L141.23 1090.41 L148.75 1090.22 L150.11 1090.41 L151.77 1090.41 L179.10 1090.81 L193.06 1091.20 L213.66 1091.49 L241.18 1092.07 L256.89 1092.17 L258.94 1091.98 L258.94 1091.00 L264.21 1091.20 L271.73 1091.39 L278.07 1091.49 L301.40 1091.88 L306.38 1091.98 L313.60 1092.17 L319.95 1092.27 L323.07 1092.27 L331.46 1092.37 L336.54 1092.46 L355.96 1092.95 L361.92 1093.15 L372.26 1093.44 L377.92 1093.44 L379.29 1093.44 L380.85 1093.54 L385.93 1093.54 L388.27 1093.64 L403.20 1093.73 L409.06 1093.83 L420.77 1093.83 L430.53 1094.03 L436.29 1094.22 L441.37 1094.12 L449.47 1094.22 L455.71 1094.32 L470.55 1094.61 L476.70 1094.61 L489.29 1094.61 L516.42 1095.00 L520.81 1095.00 L541.02 1095.00 L543.46 1095.00 L547.07 1095.00 L555.17 1095.29 L558.49 1095.39 L564.54 1095.49 L577.43 1095.49 L595.19 1095.69 L596.65 1095.69 L607.49 1096.17 L608.46 1096.17 L610.22 1096.27 L612.37 1096.37 L614.42 1096.47 L616.17 1096.66 L619.20 1097.25 L620.76 1097.73 L622.32 1098.32 L623.98 1098.91 L626.03 1099.59 L628.18 1100.47 L629.55 1100.96 L631.30 1101.44 L633.25 1101.83 L635.11 1102.13 L636.67 1102.32 L638.53 1102.61 L640.57 1102.81 L645.36 1102.91 L647.21 1102.91 L651.99 1102.91 L652.78 1103.00 L653.85 1103.00 L654.43 1103.00 L658.63 1103.39 L662.05 1103.69 L665.27 1104.18 L666.24 1104.37 L668.10 1104.86 L670.93 1105.64 L673.27 1106.52 L675.81 1107.49 L677.86 1108.08 L678.74 1108.27 L680.59 1108.86 L683.23 1109.35 L685.96 1109.74 L688.50 1110.03 L690.94 1110.13 L693.57 1110.32 L696.60 1110.42 L702.94 1110.62 L708.70 1110.71 L717.88 1111.01 L720.41 1111.01 L727.44 1111.30 L731.05 1111.40 L739.15 1111.69 L743.64 1111.89 L745.89 1111.79 L749.50 1111.40 L751.36 1111.10 L752.82 1110.81 L753.60 1110.52 L762.68 1107.79 L765.02 1107.10 L765.61 1106.91 L766.58 1106.62 L767.75 1106.42 L768.24 1106.42 L769.02 1106.42 L772.63 1106.32 L775.76 1106.23 L784.05 1105.93 L831.39 1106.52 L835.20 1106.42 L839.10 1106.52 L842.91 1106.62 L855.11 1106.91 L860.77 1106.91 L873.65 1107.01 L876.39 1107.01 L877.95 1106.81 L879.70 1106.62 L880.00 1106.62 L881.46 1106.23 L888.29 1103.20 L888.78 1102.91 L889.37 1102.61 L890.05 1102.32 L891.51 1101.44 L892.69 1100.96 L894.05 1100.47 L895.32 1100.08 L896.79 1099.78 L898.05 1099.69 L899.52 1099.59 L902.06 1099.39 L902.15 1100.47 L902.15 1101.54 L902.25 1123.99 L902.25 1129.35 L902.06 1132.67 L901.96 1133.65 L901.67 1139.11 L901.67 1140.48 L901.57 1146.43 L901.57 1155.02 L901.47 1157.27 L901.47 1163.90 L901.47 1172.10 L901.47 1175.32 L901.47 1180.40 L901.57 1188.59 L901.67 1191.23 L901.76 1196.89 L901.86 1205.19 L901.86 1208.99 L901.86 1213.68 L902.06 1217.29 L902.15 1221.87 L902.25 1223.44 L902.45 1230.36 L902.64 1242.47 L902.64 1243.83 L902.84 1250.66 L902.84 1258.86 L902.74 1261.59 L902.74 1267.25 L902.74 1269.79 L902.64 1271.65 L902.45 1273.89 L902.35 1275.55 L902.15 1276.92 L902.06 1277.89 L901.86 1278.77 L901.67 1279.75 L901.47 1280.82 L901.18 1281.70 L900.98 1282.77 L900.79 1283.46 L900.59 1284.63 L900.40 1286.29 L900.40 1287.36 L900.30 1289.21 L900.20 1292.04 L900.20 1294.68 L900.01 1302.68 L900.01 1308.54 L899.91 1320.93 L899.91 1324.74 L899.91 1331.67 L899.91 1340.16 L899.62 1352.26 L899.52 1357.72 L899.62 1369.24 L899.62 1374.80 L899.71 1380.37 L899.81 1384.76 L900.10 1389.64 L900.30 1392.17 L900.40 1394.22 L900.49 1397.93 L900.40 1400.57 L900.49 1403.11 L900.49 1404.47 L900.69 1407.01 L900.79 1408.38 L901.08 1410.03 L901.27 1411.40 L901.76 1413.65 L901.86 1414.33 L902.15 1416.38 L902.25 1417.26 L902.35 1419.01 L902.35 1420.09 L902.45 1422.33 L902.45 1426.33 L902.35 1428.77 L902.35 1429.07 L902.25 1432.09 L902.25 1434.34 L902.25 1439.12 L900.88 1439.41 L899.13 1439.70 L895.13 1440.58 L894.93 1440.78 L893.95 1440.87 L892.98 1441.07 L887.90 1442.24 L887.90 1446.63 L888.00 1453.07 L888.10 1470.54 L901.96 1471.03 L901.96 1473.28 L901.67 1494.55 L902.64 1494.55 L902.64 1497.28 L901.67 1497.28 L901.76 1521.97 L901.47 1533.88 L901.37 1536.22 L901.27 1537.39 L901.27 1539.25 L901.08 1543.64 L900.88 1545.98 L900.69 1547.45 L900.40 1549.20 L900.10 1551.06 L899.81 1552.81 L899.32 1555.06 L898.83 1557.60 L897.96 1561.60 L896.69 1566.57 L895.32 1572.04 L893.95 1577.41 L893.47 1579.26 L893.08 1580.92 L892.30 1584.63 L891.71 1588.34 L891.61 1589.61 L891.22 1596.24 L891.12 1600.05 L891.12 1603.47 L891.12 1606.30 L891.32 1611.76 L891.71 1616.64 L891.90 1620.15 L892.00 1623.37 L891.90 1633.91 L891.81 1639.18 L891.71 1643.58 L891.61 1645.24 L891.51 1652.95 L891.51 1653.82 L891.51 1655.39 L891.12 1681.05 L891.12 1687.30 L890.93 1697.06 L890.83 1704.57 L890.73 1713.06 L890.44 1732.09 L890.25 1738.24 L890.15 1749.66 L890.05 1751.71 L889.95 1758.64 L889.76 1765.57 L889.66 1770.94 L889.37 1793.19 L889.27 1799.53 L889.17 1801.87 L889.07 1804.70 L888.59 1808.31 L888.10 1811.14 L888.00 1811.83 L887.12 1815.34 L886.15 1818.76 L884.68 1822.37 L875.21 1822.37 L867.70 1822.47 L865.26 1822.47 L864.28 1822.47 L863.60 1823.15 L855.89 1823.15 L854.23 1822.76 L849.15 1823.05 L838.71 1823.15 L835.10 1823.15 L821.63 1823.05 L807.58 1823.15 L804.06 1823.05 L793.23 1822.95 L785.71 1822.95 L785.71 1822.95 Z" stroke-linejoin="round"/>
	</defs>
	<use xlink:href="#path_teTEFUiI" style="fill:#9DC8CA;stroke:#9DD7F0;stroke-width:5.76"/>
	<defs>
		<path id="path_XMUBNikm" d="M2211.90 3023.75 L2211.90 3023.75 L2211.90 3023.75 L2156.85 3092.45 L2134.79 3029.70 L2132.74 3017.70 L2126.50 3018.09 L2089.31 3019.26 L2050.95 3020.53 L1951.49 3015.16 L1942.42 3009.11 L1941.15 3013.11 L1939.29 3018.28 L1938.90 3019.55 L1937.44 3024.04 L1718.81 3032.92 L1708.56 3025.31 L1685.62 3035.17 L1683.18 3034.29 L1681.03 3033.12 L1678.79 3031.85 L1677.32 3030.87 L1672.25 3027.65 L1670.00 3026.19 L1668.05 3025.02 L1665.22 3023.26 L1664.64 3022.87 L1664.25 3022.48 L1663.76 3021.89 L1663.46 3021.40 L1663.27 3020.72 L1663.27 3020.04 L1663.27 3019.26 L1663.46 3018.57 L1663.66 3018.09 L1664.05 3017.40 L1665.71 3015.45 L1666.29 3014.77 L1666.69 3014.09 L1667.08 3013.50 L1667.27 3013.01 L1667.47 3012.33 L1667.47 3011.55 L1667.37 3010.96 L1667.17 3010.18 L1666.88 3009.30 L1666.39 3008.52 L1665.90 3007.84 L1665.32 3007.25 L1664.44 3006.77 L1663.66 3006.47 L1661.32 3006.47 L1658.58 3006.86 L1656.14 3007.55 L1654.58 3008.23 L1653.70 3008.23 L1652.92 3007.94 L1652.04 3007.45 L1650.87 3006.57 L1649.70 3005.20 L1648.73 3003.94 L1647.75 3002.96 L1646.87 3002.57 L1645.80 3002.47 L1644.04 3002.57 L1642.38 3002.86 L1641.02 3003.15 L1639.55 3003.15 L1638.77 3002.86 L1638.28 3002.28 L1637.50 3001.01 L1637.11 2998.86 L1636.53 2996.42 L1635.84 2994.66 L1634.96 2993.49 L1634.18 2993.01 L1633.01 2992.52 L1631.55 2991.93 L1630.18 2991.35 L1628.81 2990.86 L1627.45 2990.37 L1626.28 2990.08 L1625.30 2989.98 L1624.72 2989.30 L1624.23 2988.61 L1624.13 2987.54 L1624.42 2985.98 L1624.62 2983.15 L1624.52 2981.59 L1624.33 2980.90 L1623.93 2979.93 L1623.25 2978.85 L1622.37 2977.19 L1621.69 2975.83 L1620.91 2974.85 L1620.23 2974.17 L1619.44 2973.88 L1617.88 2973.78 L1616.71 2974.17 L1615.74 2974.76 L1615.05 2975.24 L1614.27 2976.02 L1612.91 2977.88 L1611.83 2980.12 L1611.15 2981.39 L1610.37 2982.47 L1609.59 2983.05 L1608.03 2983.34 L1606.66 2983.05 L1605.10 2982.17 L1603.83 2981.29 L1602.07 2980.61 L1600.41 2979.73 L1598.95 2978.85 L1597.68 2977.59 L1597.00 2976.22 L1596.90 2975.24 L1597.29 2974.36 L1597.68 2973.39 L1598.36 2971.34 L1598.75 2970.17 L1598.95 2969.39 L1599.05 2968.41 L1599.14 2967.34 L1598.85 2966.46 L1598.46 2965.78 L1597.68 2965.29 L1597.09 2965.00 L1593.09 2962.75 L1592.02 2962.07 L1590.65 2960.99 L1589.87 2960.02 L1589.38 2959.34 L1588.89 2958.46 L1588.02 2956.41 L1586.94 2954.36 L1584.80 2950.65 L1583.33 2948.01 L1580.79 2944.11 L1580.50 2943.53 L1580.11 2942.65 L1579.82 2941.77 L1579.72 2941.18 L1579.72 2939.91 L1579.92 2939.13 L1580.31 2937.18 L1581.18 2935.91 L1581.87 2934.94 L1582.26 2933.47 L1582.36 2932.11 L1582.45 2930.06 L1581.67 2928.79 L1580.60 2927.81 L1579.43 2927.13 L1578.26 2926.64 L1576.69 2926.45 L1574.45 2926.25 L1570.45 2925.47 L1567.23 2924.59 L1564.20 2923.23 L1561.47 2922.05 L1558.54 2922.25 L1555.61 2921.27 L1553.76 2919.42 L1551.32 2916.59 L1547.61 2915.22 L1544.39 2913.95 L1541.46 2913.08 L1537.46 2913.08 L1534.14 2913.86 L1531.50 2915.52 L1528.97 2917.17 L1526.92 2918.83 L1523.99 2921.47 L1521.26 2922.64 L1517.84 2922.93 L1515.40 2922.05 L1510.23 2917.96 L1505.05 2915.22 L1500.95 2914.05 L1497.05 2914.05 L1491.88 2913.86 L1487.68 2912.59 L1484.95 2910.64 L1481.73 2909.66 L1478.21 2909.46 L1474.01 2910.15 L1470.50 2912.10 L1467.38 2915.22 L1465.23 2917.17 L1462.40 2918.93 L1459.37 2920.30 L1455.57 2920.98 L1452.83 2922.84 L1446.10 2928.20 L1442.59 2930.64 L1439.46 2931.52 L1435.27 2931.33 L1431.56 2931.13 L1427.17 2932.50 L1423.46 2934.06 L1420.24 2934.64 L1416.82 2934.84 L1412.33 2934.45 L1408.91 2933.38 L1406.57 2931.03 L1405.11 2928.98 L1403.15 2926.06 L1401.89 2925.08 L1399.74 2924.69 L1396.42 2923.81 L1393.49 2922.64 L1391.73 2921.18 L1389.78 2919.32 L1387.15 2918.15 L1383.24 2916.88 L1378.56 2916.98 L1374.46 2918.05 L1370.36 2919.91 L1361.97 2924.98 L1354.65 2929.28 L1347.13 2932.69 L1338.83 2933.38 L1332.00 2932.69 L1325.27 2931.13 L1320.48 2927.62 L1316.78 2922.15 L1314.04 2918.15 L1310.63 2915.22 L1308.28 2914.25 L1307.21 2913.95 L1305.65 2913.76 L1304.18 2913.76 L1299.21 2913.86 L1292.86 2914.25 L1291.30 2914.15 L1289.74 2913.95 L1285.05 2913.27 L1280.86 2904.49 L1279.39 2901.95 L1281.93 2900.19 L1282.91 2899.51 L1283.78 2898.83 L1284.57 2898.14 L1285.15 2897.56 L1286.03 2896.48 L1291.30 2891.02 L1292.67 2889.56 L1295.59 2886.63 L1299.01 2883.11 L1301.74 2880.67 L1303.21 2879.41 L1305.16 2878.23 L1307.11 2877.26 L1309.55 2876.48 L1312.29 2875.89 L1313.94 2875.80 L1315.99 2875.89 L1316.19 2871.89 L1315.99 2869.65 L1315.51 2866.82 L1314.92 2864.96 L1314.63 2863.79 L1314.24 2862.62 L1313.85 2861.64 L1313.36 2860.77 L1312.58 2859.69 L1311.70 2858.62 L1311.02 2857.64 L1286.22 2829.73 L1284.76 2828.07 L1286.71 2825.92 L1288.86 2823.68 L1286.81 2821.63 L1254.50 2785.13 L1244.74 2774.10 L1240.94 2769.61 L1239.38 2769.52 L1235.47 2764.64 L1234.79 2763.37 L1196.33 2717.21 L1194.38 2714.67 L1192.43 2716.72 L1187.74 2721.60 L1182.57 2727.06 L1177.40 2732.53 L1168.12 2742.48 L1161.88 2749.22 L1159.93 2751.27 L1161.88 2753.51 L1156.02 2759.85 L1153.09 2763.07 L1146.46 2770.39 L1138.26 2779.18 L1133.47 2784.45 L1130.25 2787.86 L1123.42 2795.38 L1112.88 2806.41 L1112.39 2806.99 L1110.83 2808.65 L1103.90 2816.17 L1098.43 2822.31 L1096.78 2823.88 L1096.19 2824.46 L1095.02 2825.53 L1094.73 2824.75 L1094.04 2823.29 L1093.65 2822.41 L1093.26 2821.63 L1092.68 2820.46 L1090.92 2816.85 L1089.75 2814.51 L1088.77 2812.65 L1086.43 2808.46 L1084.18 2804.65 L1082.23 2801.62 L1079.79 2797.52 L1078.13 2794.99 L1075.50 2790.99 L1074.33 2789.23 L1072.18 2786.20 L1069.93 2783.18 L1066.32 2778.69 L1062.81 2774.49 L1057.64 2768.73 L1058.51 2767.47 L1059.78 2768.54 L1060.47 2767.86 L1067.20 2773.03 L1064.57 2770.10 L1060.37 2765.32 L1059.98 2764.83 L1058.12 2762.68 L1055.88 2760.15 L1053.15 2757.02 L1052.37 2756.05 L1051.39 2754.97 L1048.17 2751.27 L1047.00 2749.90 L1045.44 2748.14 L1044.17 2746.68 L1042.61 2744.92 L1040.75 2742.68 L1038.90 2740.53 L1037.43 2738.97 L1036.65 2738.09 L1034.80 2735.94 L1032.94 2733.80 L1031.28 2731.94 L1029.33 2729.70 L1026.99 2726.96 L1025.04 2724.72 L1023.18 2722.67 L1021.62 2720.82 L1019.86 2718.86 L1017.42 2715.94 L1015.96 2714.37 L1013.32 2711.35 L1011.57 2709.30 L1009.13 2706.57 L1006.98 2704.13 L1004.05 2700.71 L1002.59 2699.05 L1000.83 2696.91 L999.37 2695.44 L997.12 2692.81 L995.76 2691.25 L994.19 2689.59 L993.02 2688.12 L991.95 2686.95 L991.27 2686.17 L989.31 2683.83 L988.83 2683.34 L986.78 2680.90 L984.92 2678.75 L983.16 2676.70 L981.80 2675.04 L980.53 2673.48 L978.28 2670.95 L976.23 2668.60 L974.09 2665.97 L971.55 2663.04 L970.28 2661.67 L967.94 2659.04 L964.13 2654.65 L961.50 2651.52 L958.08 2647.72 L956.52 2645.96 L955.64 2644.99 L954.08 2643.13 L940.61 2628.20 L928.41 2614.93 L922.75 2609.46 L920.11 2606.92 L917.77 2604.87 L915.62 2602.92 L913.77 2601.26 L912.50 2600.09 L908.50 2596.68 L903.72 2592.68 L900.10 2589.65 L895.03 2585.55 L891.71 2582.82 L890.05 2581.35 L888.68 2580.28 L887.81 2579.50 L886.73 2578.62 L888.88 2576.28 L890.44 2574.52 L891.90 2572.86 L892.49 2573.64 L893.66 2574.82 L898.25 2569.84 L903.72 2563.98 L907.91 2559.20 L914.94 2551.59 L915.82 2550.71 L919.62 2546.51 L922.36 2543.59 L923.33 2542.51 L924.31 2541.44 L927.63 2537.93 L928.70 2536.75 L935.83 2528.75 L940.61 2523.58 L944.12 2519.77 L949.20 2514.31 L950.56 2512.94 L954.86 2508.35 L957.30 2505.91 L960.81 2502.01 L966.08 2496.45 L973.60 2488.06 L980.63 2480.15 L979.85 2479.27 L981.41 2479.27 L982.29 2478.30 L992.53 2467.27 L996.34 2463.17 L998.10 2461.22 L1005.42 2453.31 L1009.91 2448.53 L1012.74 2445.41 L1015.96 2441.89 L1018.20 2439.36 L1018.99 2438.58 L1023.28 2433.89 L1030.31 2426.38 L1034.80 2421.50 L1046.41 2409.10 L1051.39 2403.73 L1055.39 2399.44 L1057.64 2397.10 L1061.05 2393.29 L1077.25 2375.53 L1081.16 2371.33 L1087.21 2364.79 L1091.21 2360.40 L1095.41 2355.91 L1100.48 2350.25 L1112.20 2337.76 L1119.62 2329.56 L1120.79 2328.20 L1124.59 2324.10 L1128.40 2319.90 L1131.13 2317.07 L1133.08 2314.83 L1138.26 2309.46 L1139.23 2308.48 L1144.21 2303.21 L1148.99 2298.24 L1153.48 2293.06 L1154.95 2291.31 L1159.24 2286.72 L1161.49 2284.28 L1163.44 2282.23 L1170.17 2274.91 L1171.44 2273.54 L1176.03 2268.57 L1181.11 2263.00 L1186.38 2257.54 L1187.84 2256.07 L1193.21 2250.41 L1197.50 2245.92 L1201.80 2241.44 L1217.12 2224.94 L1226.49 2214.69 L1227.96 2213.04 L1237.42 2203.18 L1259.87 2178.98 L1261.24 2177.51 L1268.17 2170.19 L1269.53 2168.73 L1274.90 2162.97 L1277.05 2160.63 L1280.86 2156.53 L1284.57 2152.43 L1288.47 2148.23 L1293.74 2142.67 L1294.62 2141.69 L1298.13 2137.89 L1301.35 2134.86 L1302.23 2133.98 L1302.92 2133.11 L1314.63 2120.61 L1318.92 2116.03 L1322.83 2111.83 L1333.56 2100.51 L1338.44 2095.34 L1340.98 2092.70 L1346.45 2086.94 L1351.33 2081.77 L1359.14 2073.38 L1359.92 2072.70 L1365.38 2066.84 L1381.58 2050.44 L1385.88 2046.15 L1391.05 2041.08 L1398.57 2033.66 L1401.79 2030.54 L1405.40 2026.63 L1406.57 2025.46 L1408.91 2022.73 L1416.62 2014.82 L1424.33 2006.82 L1429.80 2001.06 L1430.68 2000.18 L1437.02 1993.65 L1443.07 1987.40 L1447.95 1982.32 L1450.69 1979.40 L1452.35 1977.83 L1454.01 1976.08 L1457.91 1972.17 L1462.69 1967.49 L1471.09 1959.00 L1472.94 1957.15 L1475.19 1954.61 L1477.04 1952.56 L1478.21 1951.29 L1479.19 1950.31 L1479.58 1949.92 L1481.53 1948.07 L1484.07 1945.43 L1486.90 1942.31 L1488.17 1941.04 L1492.75 1936.36 L1498.42 1930.70 L1500.76 1928.35 L1504.17 1924.94 L1509.74 1919.08 L1512.86 1915.86 L1515.79 1912.94 L1518.72 1909.81 L1521.26 1907.37 L1524.28 1904.15 L1525.35 1903.18 L1528.67 1899.76 L1532.67 1895.66 L1537.07 1891.07 L1549.27 1878.78 L1550.73 1877.31 L1555.71 1872.53 L1561.76 1866.58 L1563.91 1864.72 L1567.81 1861.31 L1577.48 1853.11 L1589.97 1842.57 L1592.31 1840.62 L1594.36 1838.86 L1595.73 1837.69 L1599.92 1838.08 L1604.51 1838.47 L1609.68 1838.76 L1614.66 1839.06 L1625.01 1839.35 L1631.65 1839.25 L1642.97 1839.06 L1684.74 1837.69 L1686.60 1837.69 L1687.77 1837.69 L1694.60 1837.50 L1695.38 1837.50 L1700.85 1837.20 L1702.41 1836.32 L1709.83 1836.52 L1715.10 1836.71 L1742.43 1837.01 L1742.91 1841.40 L1743.30 1844.13 L1743.89 1846.47 L1744.57 1849.40 L1745.45 1852.52 L1746.53 1855.94 L1747.70 1859.75 L1749.06 1864.43 L1749.45 1867.07 L1749.94 1869.60 L1750.62 1872.14 L1753.75 1883.75 L1754.92 1887.56 L1757.46 1896.15 L1758.04 1897.81 L1758.63 1899.86 L1759.12 1901.42 L1759.41 1903.27 L1759.80 1905.32 L1760.38 1908.25 L1760.97 1910.98 L1761.65 1913.72 L1762.24 1916.06 L1766.63 1932.55 L1847.25 2077.28 L1767.51 2161.60 L1767.71 2163.65 L1767.71 2165.31 L1767.61 2167.26 L1767.31 2170.00 L1767.31 2171.95 L1767.51 2173.90 L1768.39 2176.83 L1769.75 2180.05 L1770.73 2181.71 L1771.90 2183.27 L1773.17 2185.42 L1774.54 2187.27 L1776.00 2189.22 L1777.37 2190.78 L1778.64 2191.96 L1781.27 2193.52 L1785.18 2194.88 L1792.01 2197.03 L1795.91 2198.69 L1799.43 2200.15 L1801.77 2201.72 L1803.23 2202.79 L1804.99 2204.64 L1807.04 2206.89 L1808.99 2209.42 L1810.16 2210.79 L1812.12 2213.13 L1815.24 2217.13 L1816.51 2218.31 L1819.04 2219.97 L1820.80 2220.65 L1822.85 2221.14 L1825.88 2221.53 L1827.24 2222.01 L1828.22 2222.60 L1828.71 2223.58 L1829.10 2224.84 L1829.20 2226.21 L1829.39 2227.97 L1829.59 2229.92 L1830.17 2232.46 L1831.05 2234.12 L1831.93 2235.29 L1833.39 2236.46 L1835.44 2238.22 L1837.10 2239.19 L1838.57 2239.97 L1840.42 2241.14 L1842.08 2242.80 L1844.13 2244.46 L1845.40 2245.92 L1846.08 2247.39 L1852.62 2253.93 L1838.96 2272.37 L1838.96 2274.52 L1839.25 2277.06 L1839.83 2279.30 L1840.71 2282.23 L1841.40 2284.77 L1842.37 2287.30 L1843.54 2289.65 L1845.11 2291.99 L1847.35 2295.21 L1850.38 2298.04 L1853.89 2301.55 L1857.99 2304.58 L1861.21 2306.63 L1865.60 2309.07 L1868.04 2310.63 L1870.19 2311.80 L1873.12 2312.78 L1875.17 2313.26 L1877.41 2313.46 L1880.05 2313.66 L1882.39 2313.36 L1885.12 2313.26 L1887.47 2314.24 L1889.71 2316.00 L1892.25 2319.41 L1894.10 2322.83 L1896.64 2327.12 L1899.57 2333.66 L1901.03 2337.37 L1901.33 2339.22 L1901.33 2340.79 L1900.84 2342.45 L1900.15 2343.91 L1899.37 2345.47 L1898.49 2346.45 L1897.13 2347.32 L1896.84 2348.01 L1896.93 2348.30 L1897.32 2348.50 L1898.30 2348.59 L1899.37 2348.40 L1900.15 2348.20 L1900.74 2347.72 L1901.23 2346.84 L1901.81 2345.67 L1902.40 2345.28 L1902.98 2345.37 L1903.28 2345.86 L1903.28 2346.74 L1903.47 2347.81 L1903.77 2348.89 L1904.64 2350.35 L1907.18 2353.38 L1910.79 2357.77 L1913.92 2361.18 L1917.14 2363.92 L1920.85 2366.65 L1924.36 2368.89 L1928.56 2370.06 L1933.05 2370.26 L1937.63 2369.97 L1946.52 2370.84 L1949.25 2370.84 L1950.52 2371.24 L1952.18 2372.11 L1953.54 2373.77 L1955.69 2376.41 L1959.01 2379.14 L1961.64 2381.58 L1965.26 2384.02 L1969.26 2386.17 L1974.43 2388.02 L1969.55 2393.19 L1965.35 2396.12 L1968.38 2396.61 L1990.14 2398.17 L2007.42 2397.98 L2020.11 2396.80 L2040.41 2393.39 L2041.00 2392.22 L2041.48 2391.05 L2041.97 2389.78 L2042.46 2388.12 L2043.05 2386.07 L2043.92 2382.36 L2048.90 2360.30 L2051.73 2348.01 L2053.00 2342.74 L2054.27 2343.03 L2055.34 2343.42 L2056.81 2344.01 L2057.30 2344.20 L2057.59 2344.49 L2057.98 2345.08 L2058.17 2345.67 L2058.08 2346.64 L2057.88 2347.91 L2057.49 2349.86 L2056.52 2353.86 L2055.34 2358.26 L2053.68 2363.53 L2053.39 2364.70 L2053.10 2365.77 L2053.00 2366.84 L2052.90 2368.01 L2052.90 2369.28 L2053.10 2370.55 L2053.20 2371.63 L2053.39 2372.50 L2053.68 2373.48 L2054.08 2374.55 L2054.47 2375.14 L2055.05 2375.92 L2055.73 2376.51 L2056.22 2376.90 L2056.81 2377.09 L2057.49 2377.29 L2058.57 2377.29 L2059.44 2377.38 L2060.61 2377.97 L2065.49 2379.43 L2066.57 2379.82 L2067.94 2379.73 L2070.77 2379.34 L2073.40 2379.14 L2076.04 2379.24 L2078.09 2379.63 L2079.26 2380.02 L2083.16 2382.85 L2084.53 2384.22 L2085.41 2385.09 L2087.16 2386.56 L2089.60 2389.00 L2093.80 2392.41 L2098.09 2396.02 L2102.39 2399.73 L2104.73 2402.37 L2108.25 2406.08 L2111.27 2410.66 L2115.76 2418.67 L2117.91 2423.55 L2119.76 2426.86 L2120.45 2428.23 L2121.03 2429.21 L2121.81 2429.60 L2123.08 2429.99 L2123.96 2430.47 L2126.01 2431.55 L2127.77 2433.01 L2129.23 2434.67 L2131.08 2436.53 L2133.82 2439.84 L2137.43 2443.75 L2141.43 2446.77 L2146.12 2449.41 L2150.12 2450.87 L2154.90 2452.34 L2160.85 2453.41 L2166.12 2453.80 L2171.98 2453.51 L2179.69 2452.24 L2186.91 2450.29 L2193.45 2448.53 L2201.85 2445.60 L2203.60 2444.63 L2205.17 2443.55 L2207.02 2442.48 L2208.19 2441.60 L2209.75 2440.82 L2211.90 2440.04 L2214.63 2439.65 L2219.32 2439.36 L2223.13 2438.97 L2226.54 2439.16 L2229.18 2440.14 L2230.84 2439.75 L2231.81 2439.65 L2232.69 2439.84 L2233.67 2440.33 L2237.38 2441.89 L2240.89 2443.45 L2245.96 2445.31 L2246.94 2445.99 L2248.11 2447.07 L2249.09 2447.94 L2250.45 2448.72 L2252.02 2449.41 L2253.58 2450.19 L2254.94 2450.87 L2256.21 2451.75 L2257.68 2453.12 L2258.75 2454.19 L2260.12 2455.07 L2261.39 2455.56 L2262.46 2455.65 L2263.34 2455.75 L2264.12 2455.85 L2265.00 2456.43 L2266.07 2457.22 L2267.34 2458.09 L2268.80 2459.46 L2270.76 2461.22 L2272.32 2462.00 L2273.88 2462.39 L2274.56 2462.39 L2275.15 2462.39 L2275.44 2462.58 L2275.83 2463.17 L2276.12 2463.56 L2276.61 2463.85 L2277.39 2463.85 L2278.08 2463.66 L2278.76 2463.27 L2279.83 2462.97 L2280.61 2462.88 L2281.20 2462.97 L2282.66 2463.46 L2285.01 2464.24 L2287.06 2465.02 L2288.72 2465.61 L2297.50 2465.41 L2300.13 2466.97 L2304.72 2468.15 L2306.48 2468.34 L2309.21 2468.63 L2321.12 2472.05 L2325.12 2472.64 L2328.15 2472.64 L2330.98 2472.24 L2333.71 2471.76 L2335.66 2471.17 L2339.18 2469.81 L2341.13 2468.63 L2342.98 2467.37 L2344.06 2466.29 L2345.13 2465.02 L2346.30 2463.36 L2348.84 2460.05 L2355.09 2452.63 L2355.67 2452.04 L2356.26 2451.95 L2356.94 2451.85 L2358.21 2451.85 L2360.36 2451.46 L2361.33 2451.07 L2362.60 2450.29 L2363.87 2449.12 L2364.55 2448.14 L2365.24 2447.16 L2365.72 2446.68 L2366.51 2446.09 L2368.75 2444.82 L2370.31 2444.24 L2371.58 2443.94 L2372.46 2443.75 L2373.24 2443.36 L2373.92 2442.67 L2374.70 2441.89 L2376.07 2440.82 L2378.22 2439.65 L2379.58 2439.16 L2380.27 2439.06 L2380.95 2438.97 L2381.83 2438.58 L2389.64 2433.79 L2394.91 2430.87 L2395.88 2429.99 L2396.57 2429.01 L2396.86 2428.62 L2397.25 2428.23 L2397.74 2428.03 L2398.32 2428.03 L2399.11 2427.94 L2399.59 2427.45 L2399.98 2426.96 L2400.86 2425.69 L2401.94 2424.42 L2402.81 2423.35 L2403.20 2422.86 L2403.69 2422.76 L2404.08 2422.86 L2404.18 2423.55 L2404.47 2423.94 L2404.96 2423.84 L2405.35 2423.35 L2405.94 2422.86 L2406.52 2422.47 L2407.11 2421.98 L2407.11 2421.50 L2406.62 2421.01 L2406.52 2420.42 L2406.82 2420.03 L2407.21 2419.84 L2407.79 2419.64 L2408.57 2419.35 L2409.55 2418.86 L2410.04 2417.98 L2410.52 2416.62 L2410.92 2415.74 L2411.31 2415.45 L2411.89 2415.05 L2412.67 2414.47 L2413.36 2413.59 L2414.43 2411.25 L2414.92 2410.47 L2415.50 2409.88 L2417.26 2408.13 L2418.14 2407.35 L2418.63 2406.95 L2418.92 2406.37 L2419.11 2405.10 L2419.21 2403.64 L2419.70 2402.27 L2420.29 2401.10 L2420.48 2400.12 L2420.68 2399.05 L2420.68 2397.29 L2420.77 2395.83 L2421.07 2394.46 L2421.26 2393.97 L2422.04 2392.90 L2422.34 2392.41 L2422.34 2391.93 L2422.34 2390.75 L2422.34 2390.17 L2422.53 2389.68 L2423.12 2389.10 L2423.70 2388.41 L2424.09 2387.63 L2424.19 2386.75 L2423.99 2385.19 L2423.90 2384.31 L2423.90 2383.53 L2424.48 2382.07 L2424.68 2380.90 L2425.07 2380.12 L2425.46 2379.63 L2426.14 2379.34 L2426.92 2378.75 L2427.31 2378.16 L2427.61 2377.48 L2427.80 2376.12 L2427.80 2374.85 L2427.51 2373.68 L2427.12 2373.09 L2426.63 2372.60 L2425.75 2372.02 L2425.26 2371.63 L2424.97 2370.94 L2424.19 2364.79 L2424.19 2363.72 L2424.38 2362.65 L2424.78 2361.77 L2425.17 2361.09 L2425.75 2360.60 L2426.43 2360.11 L2427.51 2359.72 L2428.68 2359.52 L2430.44 2359.62 L2432.78 2360.01 L2435.41 2360.30 L2437.95 2360.40 L2440.00 2360.11 L2441.47 2359.52 L2443.03 2358.84 L2444.69 2357.96 L2447.42 2357.47 L2451.71 2357.38 L2456.11 2357.57 L2457.37 2356.79 L2458.45 2355.72 L2459.23 2354.74 L2460.40 2353.57 L2461.67 2352.59 L2463.72 2351.42 L2465.57 2350.55 L2468.01 2349.96 L2470.84 2349.86 L2473.09 2350.16 L2474.85 2350.55 L2477.09 2351.42 L2479.14 2352.40 L2481.00 2353.28 L2486.07 2355.43 L2491.93 2357.38 L2495.54 2358.26 L2498.66 2359.13 L2501.59 2359.72 L2503.44 2360.11 L2505.49 2359.72 L2507.35 2359.43 L2509.01 2358.65 L2510.86 2358.06 L2512.62 2357.77 L2514.77 2357.67 L2516.43 2357.38 L2519.45 2356.89 L2522.38 2356.50 L2525.99 2355.82 L2529.99 2354.94 L2534.09 2354.16 L2536.53 2353.67 L2538.58 2353.08 L2540.53 2352.69 L2545.90 2352.11 L2557.03 2351.33 L2561.81 2350.74 L2563.37 2350.84 L2564.35 2351.62 L2565.23 2352.30 L2565.62 2352.69 L2566.01 2352.99 L2566.69 2354.06 L2567.96 2356.11 L2609.15 2332.20 L2626.91 2321.85 L2634.04 2318.14 L2634.92 2319.80 L2635.99 2321.46 L2636.67 2321.85 L2637.55 2322.05 L2638.63 2321.66 L2640.38 2320.49 L2644.48 2318.34 L2669.66 2303.70 L2686.16 2294.62 L2706.07 2283.69 L2716.12 2277.84 L2749.31 2259.30 L2764.05 2251.20 L2771.07 2247.39 L2777.52 2244.07 L2782.79 2241.83 L2786.89 2240.26 L2792.45 2238.51 L2793.72 2238.41 L2794.69 2238.41 L2795.38 2238.61 L2796.55 2239.09 L2797.52 2239.48 L2798.31 2240.07 L2798.60 2240.65 L2798.70 2241.34 L2798.89 2242.02 L2799.09 2242.80 L2799.77 2243.49 L2800.65 2244.07 L2801.43 2244.66 L2802.31 2245.24 L2802.89 2245.63 L2803.58 2246.12 L2803.87 2246.71 L2804.16 2247.58 L2804.26 2249.05 L2804.65 2250.51 L2805.04 2252.95 L2805.33 2255.49 L2805.43 2256.76 L2805.63 2257.64 L2806.21 2258.12 L2806.60 2258.81 L2806.41 2259.39 L2806.31 2259.88 L2806.60 2260.47 L2807.19 2260.86 L2807.38 2261.54 L2807.68 2262.03 L2807.97 2262.42 L2808.94 2263.59 L2809.73 2264.37 L2810.41 2264.96 L2811.38 2265.25 L2812.56 2265.25 L2814.02 2265.05 L2816.95 2264.66 L2817.73 2264.66 L2818.51 2264.86 L2819.19 2265.25 L2820.27 2266.13 L2821.24 2267.30 L2822.32 2268.86 L2823.49 2272.76 L2823.88 2273.25 L2824.66 2274.13 L2824.85 2274.91 L2824.76 2275.89 L2824.85 2276.96 L2825.24 2277.64 L2826.03 2278.62 L2826.81 2280.18 L2827.68 2282.72 L2827.98 2284.18 L2828.47 2285.35 L2828.95 2286.04 L2829.73 2286.52 L2830.12 2287.11 L2830.51 2287.89 L2831.10 2288.96 L2832.66 2291.01 L2834.52 2292.97 L2835.30 2294.14 L2835.88 2295.89 L2836.08 2297.45 L2835.98 2298.14 L2835.69 2298.82 L2835.30 2299.21 L2834.81 2299.60 L2833.54 2300.38 L2830.51 2302.24 L2827.88 2303.99 L2826.03 2305.16 L2825.15 2305.85 L2824.85 2306.63 L2824.85 2307.41 L2825.05 2308.19 L2825.24 2309.26 L2825.34 2310.14 L2825.63 2310.73 L2826.12 2311.61 L2828.17 2313.36 L2829.34 2314.34 L2830.42 2315.61 L2830.61 2316.19 L2830.81 2316.88 L2830.71 2317.95 L2830.03 2319.61 L2829.64 2320.88 L2829.54 2322.54 L2829.44 2324.78 L2829.64 2326.73 L2830.12 2328.39 L2830.42 2331.03 L2830.71 2332.39 L2831.20 2333.95 L2832.08 2335.42 L2832.76 2336.59 L2833.15 2337.86 L2833.74 2340.59 L2833.93 2341.76 L2833.93 2343.13 L2833.74 2344.40 L2833.35 2345.76 L2832.66 2347.91 L2832.08 2349.67 L2831.49 2351.91 L2831.30 2354.06 L2831.39 2355.82 L2831.10 2358.84 L2830.81 2360.11 L2830.51 2361.38 L2830.51 2362.06 L2830.51 2362.55 L2830.81 2363.14 L2831.39 2363.62 L2832.08 2363.82 L2832.76 2364.40 L2833.35 2365.28 L2833.83 2366.75 L2834.22 2368.70 L2834.13 2369.58 L2834.03 2370.55 L2834.13 2371.63 L2834.61 2372.21 L2834.91 2372.50 L2835.30 2373.09 L2835.49 2374.16 L2835.79 2374.85 L2836.18 2375.24 L2836.76 2375.43 L2837.35 2375.63 L2838.13 2375.92 L2839.10 2376.31 L2839.88 2376.12 L2840.47 2375.72 L2841.15 2375.53 L2842.13 2375.63 L2842.91 2375.63 L2843.59 2375.53 L2843.98 2375.33 L2844.57 2374.65 L2845.35 2374.36 L2846.23 2374.46 L2846.91 2374.36 L2847.50 2374.07 L2848.57 2373.19 L2849.65 2372.60 L2850.62 2372.41 L2850.82 2372.50 L2851.40 2577.16 L2851.40 2579.50 L2851.69 2677.97 L2849.35 2858.13 L2847.89 2979.54 L2847.11 3036.43 L2846.91 3051.76 L2703.24 3032.92 L2695.92 3031.95 L2689.87 3033.80 L2521.11 3020.82 L2500.32 3024.24 L2490.27 3027.55 L2489.00 3028.72 L2482.85 3032.43 L2481.19 3033.12 L2479.73 3033.21 L2477.87 3032.82 L2475.53 3032.53 L2471.92 3032.82 L2462.55 3032.82 L2453.28 3032.73 L2390.32 3031.65 L2373.53 3031.16 L2364.94 3031.07 L2300.43 3029.70 L2297.40 3029.80 L2274.86 3029.90 L2230.45 3029.41 L2225.47 3029.31 L2224.88 3020.33 L2217.17 3020.72 L2211.90 3023.75 L2211.90 3023.75 Z" stroke-linejoin="round"/>
	</defs>
	<use xlink:href="#path_XMUBNikm" style="fill:#9DC8CA;stroke:#9DD7F0;stroke-width:5.76"/>
	<defs>
		<path id="path_CrCjPTVy" d="M1356.30 1840.91 L1356.30 1840.91 L1356.01 1831.93 L1356.50 1828.71 L1347.42 1828.52 L1346.25 1828.52 L1340.49 1828.42 L1333.56 1828.42 L1331.51 1828.42 L1326.24 1828.42 L1319.51 1828.42 L1302.43 1828.61 L1299.21 1828.61 L1298.23 1828.61 L1291.69 1828.61 L1280.56 1828.61 L1279.39 1828.61 L1271.49 1828.52 L1264.46 1828.52 L1250.79 1828.42 L1242.21 1828.42 L1235.28 1828.42 L1212.92 1828.13 L1206.87 1828.13 L1205.21 1828.13 L1189.11 1827.93 L1185.20 1827.93 L1179.06 1827.93 L1175.25 1827.83 L1169.78 1827.74 L1160.80 1827.64 L1158.56 1827.64 L1150.56 1827.35 L1145.09 1827.25 L1142.84 1827.15 L1135.43 1826.86 L1132.79 1826.76 L1127.72 1826.66 L1118.15 1826.37 L1114.83 1826.27 L1108.59 1826.17 L1101.07 1825.88 L1098.04 1825.78 L1093.36 1825.59 L1090.92 1825.49 L1085.75 1825.39 L1083.11 1825.30 L1077.55 1825.20 L1063.40 1824.61 L1057.54 1824.42 L1054.51 1824.32 L1051.10 1824.22 L1049.63 1824.22 L1044.56 1824.03 L1040.46 1823.83 L1028.84 1823.44 L1025.04 1823.34 L1016.45 1823.05 L1013.32 1823.05 L1006.30 1822.95 L998.59 1822.95 L995.56 1822.95 L984.43 1823.05 L969.30 1823.44 L961.30 1823.83 L956.62 1823.93 L954.37 1824.03 L945.78 1823.73 L940.12 1823.64 L921.77 1823.54 L913.28 1823.44 L905.18 1823.44 L903.23 1823.34 L897.96 1823.34 L892.10 1823.05 L890.54 1822.95 L887.22 1822.56 L885.95 1822.47 L884.68 1822.37 L886.15 1818.76 L887.12 1815.34 L888.00 1811.83 L888.10 1811.14 L888.59 1808.31 L889.07 1804.70 L889.17 1801.87 L889.27 1799.53 L889.37 1793.19 L889.66 1770.94 L889.76 1765.57 L889.95 1758.64 L890.05 1751.71 L890.15 1749.66 L890.25 1738.24 L890.44 1732.09 L890.73 1713.06 L890.83 1704.57 L890.93 1697.06 L891.12 1687.30 L891.12 1681.05 L891.51 1655.39 L891.51 1653.82 L891.51 1652.95 L891.61 1645.24 L891.71 1643.58 L891.81 1639.18 L891.90 1633.91 L892.00 1623.37 L891.90 1620.15 L891.71 1616.64 L891.32 1611.76 L891.12 1606.30 L891.12 1603.47 L891.12 1600.05 L891.22 1596.24 L891.61 1589.61 L891.71 1588.34 L892.30 1584.63 L893.08 1580.92 L893.47 1579.26 L893.95 1577.41 L895.32 1572.04 L896.69 1566.57 L897.96 1561.60 L898.83 1557.60 L899.32 1555.06 L899.81 1552.81 L900.10 1551.06 L900.40 1549.20 L900.69 1547.45 L900.88 1545.98 L901.08 1543.64 L901.27 1539.25 L901.27 1537.39 L901.37 1536.22 L901.47 1533.88 L901.76 1521.97 L901.67 1497.28 L902.64 1497.28 L902.64 1494.55 L901.67 1494.55 L901.96 1473.28 L901.96 1471.03 L888.10 1470.54 L888.00 1453.07 L887.90 1446.63 L887.90 1442.24 L892.98 1441.07 L893.95 1440.87 L894.93 1440.78 L895.13 1440.58 L899.13 1439.70 L900.88 1439.41 L902.25 1439.12 L902.25 1434.34 L902.25 1432.09 L902.35 1429.07 L902.35 1428.77 L902.45 1426.33 L902.45 1422.33 L902.35 1420.09 L902.35 1419.01 L902.25 1417.26 L902.15 1416.38 L901.86 1414.33 L901.76 1413.65 L901.27 1411.40 L901.08 1410.03 L900.79 1408.38 L900.69 1407.01 L900.49 1404.47 L900.49 1403.11 L900.40 1400.57 L900.49 1397.93 L900.40 1394.22 L900.30 1392.17 L900.10 1389.64 L899.81 1384.76 L899.71 1380.37 L899.62 1374.80 L899.62 1369.24 L899.52 1357.72 L899.62 1352.26 L899.91 1340.16 L899.91 1331.67 L899.91 1324.74 L899.91 1320.93 L900.01 1308.54 L900.01 1302.68 L900.20 1294.68 L900.20 1292.04 L900.30 1289.21 L900.40 1287.36 L900.40 1286.29 L900.59 1284.63 L900.79 1283.46 L900.98 1282.77 L901.18 1281.70 L901.47 1280.82 L901.67 1279.75 L901.86 1278.77 L902.06 1277.89 L902.15 1276.92 L902.35 1275.55 L902.45 1273.89 L902.64 1271.65 L902.74 1269.79 L902.74 1267.25 L902.74 1261.59 L902.84 1258.86 L902.84 1250.66 L902.64 1243.83 L902.64 1242.47 L902.45 1230.36 L902.25 1223.44 L902.15 1221.87 L902.06 1217.29 L901.86 1213.68 L901.86 1208.99 L901.86 1205.19 L901.76 1196.89 L901.67 1191.23 L901.57 1188.59 L901.47 1180.40 L901.47 1175.32 L901.47 1172.10 L901.47 1163.90 L901.47 1157.27 L901.57 1155.02 L901.57 1146.43 L901.67 1140.48 L901.67 1139.11 L901.96 1133.65 L902.06 1132.67 L902.25 1129.35 L902.25 1123.99 L902.15 1101.54 L902.15 1100.47 L902.06 1099.39 L901.96 1088.76 L901.86 1084.95 L901.86 1079.09 L901.86 1076.56 L901.86 1073.82 L901.96 1069.33 L901.86 1068.26 L901.86 1062.60 L901.96 1059.38 L901.96 1050.50 L901.96 1043.96 L901.96 1040.93 L901.96 1031.76 L902.06 1025.52 L902.06 1022.29 L902.06 1020.25 L902.15 1013.41 L902.15 1007.56 L902.15 1004.43 L902.35 995.36 L902.35 988.92 L902.35 986.28 L902.25 977.21 L902.35 972.42 L902.35 968.62 L902.45 959.25 L902.74 950.66 L903.13 941.68 L903.32 934.75 L903.42 932.41 L903.62 924.21 L903.91 915.82 L904.20 904.30 L904.59 891.42 L904.79 885.08 L905.18 872.10 L906.06 851.02 L906.16 844.87 L906.35 836.48 L906.94 825.16 L907.03 823.69 L907.13 822.72 L907.13 820.08 L906.94 816.57 L906.55 812.66 L906.16 810.22 L905.67 807.69 L904.69 803.20 L903.42 796.46 L902.45 792.07 L901.37 788.66 L900.30 785.92 L899.32 783.58 L898.35 781.53 L897.47 779.77 L896.59 778.31 L895.81 777.04 L894.93 775.58 L894.15 774.41 L893.08 773.04 L892.30 771.97 L891.22 770.80 L890.05 769.43 L888.49 767.67 L881.46 759.67 L880.09 758.30 L855.30 731.07 L850.72 726.20 L841.54 716.24 L839.69 714.19 L837.25 711.46 L827.29 700.72 L824.85 698.09 L818.70 691.26 L814.60 686.67 L805.33 676.62 L800.94 671.84 L794.20 664.71 L785.81 655.73 L783.08 652.71 L781.51 650.95 L782.30 650.07 L782.98 649.29 L787.08 644.61 L789.03 642.46 L792.06 639.24 L801.52 628.99 L818.41 610.74 L840.66 587.22 L844.47 583.12 L866.14 559.90 L871.70 554.14 L884.00 541.16 L893.08 531.01 L904.11 519.20 L907.91 515.20 L917.77 505.05 L919.23 503.39 L927.53 494.41 L929.87 491.87 L931.43 490.31 L935.05 486.41 L937.10 484.16 L946.76 473.72 L951.15 469.13 L954.57 465.42 L961.69 457.91 L966.28 453.03 L976.72 442.10 L980.82 437.71 L983.95 434.39 L984.14 434.19 L989.41 427.95 L990.39 426.78 L991.17 425.51 L995.17 422.00 L999.17 413.70 L1000.25 411.65 L1001.81 408.33 L1002.59 406.48 L1003.66 403.16 L1005.22 398.48 L1006.39 399.55 L1007.57 400.72 L1008.54 401.70 L1012.93 405.99 L1015.47 408.53 L1015.67 408.82 L1016.94 410.09 L1017.72 410.87 L1020.35 413.90 L1021.82 415.46 L1024.16 417.99 L1028.45 423.07 L1034.02 429.90 L1038.12 434.68 L1045.92 443.47 L1053.93 452.74 L1057.25 456.54 L1057.34 456.54 L1061.64 461.42 L1063.00 462.89 L1066.62 466.89 L1070.91 471.57 L1074.03 474.89 L1078.13 479.48 L1079.21 480.75 L1080.77 482.50 L1083.50 485.53 L1085.84 488.16 L1091.31 494.12 L1094.82 497.63 L1105.07 507.98 L1111.12 513.83 L1114.54 517.15 L1117.08 519.39 L1119.22 521.44 L1121.27 523.30 L1126.35 527.79 L1130.84 531.89 L1141.77 541.35 L1152.61 550.43 L1160.61 557.07 L1163.83 559.90 L1169.10 564.19 L1180.32 573.17 L1185.20 576.68 L1189.60 580.00 L1190.96 581.27 L1191.45 581.66 L1194.09 583.71 L1207.75 593.86 L1209.61 595.52 L1210.78 596.49 L1213.02 598.25 L1214.29 599.32 L1214.68 599.81 L1218.68 603.62 L1220.83 606.25 L1223.76 609.86 L1226.30 612.99 L1229.32 616.69 L1236.84 624.60 L1246.50 633.29 L1251.38 637.29 L1255.77 641.09 L1258.99 640.41 L1261.34 639.43 L1262.31 641.19 L1262.60 642.75 L1269.34 654.76 L1273.24 657.49 L1278.51 661.59 L1280.76 662.66 L1287.79 666.96 L1292.57 669.98 L1296.77 673.10 L1300.96 676.32 L1304.48 678.76 L1309.94 682.96 L1318.04 687.45 L1324.88 692.82 L1329.07 696.23 L1331.32 697.70 L1332.98 698.67 L1334.83 699.26 L1336.69 699.65 L1338.64 699.84 L1339.22 699.84 L1340.40 695.65 L1346.54 671.64 L1356.40 636.31 L1381.97 580.29 L1409.11 532.76 L1452.93 451.76 L1478.70 403.55 L1517.45 363.44 L1524.48 356.12 L1533.85 354.56 L1537.56 355.83 L1539.80 353.97 L1545.66 349.09 L1549.76 345.77 L1553.66 342.55 L1556.10 340.50 L1558.25 338.75 L1560.78 336.70 L1568.79 330.16 L1578.65 321.96 L1583.62 317.77 L1588.89 313.37 L1597.58 306.35 L1611.25 295.03 L1612.22 294.25 L1617.88 289.56 L1621.59 286.44 L1621.20 289.56 L1621.10 291.02 L1621.20 292.68 L1621.10 328.40 L1620.32 365.68 L1620.13 373.39 L1620.23 392.42 L1620.13 396.91 L1619.64 402.28 L1619.93 431.66 L1619.93 439.66 L1620.13 453.81 L1631.06 466.40 L1643.36 480.06 L1650.19 487.68 L1665.03 504.36 L1668.15 507.88 L1684.35 526.03 L1692.65 535.30 L1712.17 557.46 L1720.17 566.53 L1742.72 591.32 L1761.75 612.69 L1793.18 648.32 L1800.99 657.10 L1802.35 658.56 L1806.55 663.05 L1811.43 668.71 L1815.82 673.59 L1828.71 687.55 L1821.29 694.77 L1819.63 696.53 L1817.97 698.28 L1816.70 699.75 L1814.95 701.70 L1813.38 703.46 L1811.33 705.80 L1810.16 707.26 L1808.89 708.73 L1807.43 710.68 L1805.48 712.92 L1803.82 715.17 L1802.45 717.12 L1801.18 718.97 L1800.31 720.44 L1799.43 722.10 L1798.84 723.66 L1798.35 725.12 L1798.06 726.29 L1797.77 727.56 L1797.57 729.12 L1797.47 730.98 L1797.38 733.12 L1797.38 734.00 L1797.38 736.44 L1797.67 747.86 L1798.45 768.26 L1798.84 776.85 L1798.94 778.31 L1799.04 779.38 L1799.23 780.26 L1799.52 781.04 L1799.91 781.73 L1800.31 782.31 L1790.94 790.02 L1786.74 793.44 L1780.30 798.80 L1771.61 805.83 L1769.36 807.59 L1767.41 809.25 L1767.71 811.88 L1767.90 814.03 L1768.00 816.18 L1768.00 818.52 L1768.19 822.13 L1768.39 824.76 L1768.68 827.79 L1769.17 830.33 L1769.85 833.45 L1770.44 836.09 L1770.93 838.23 L1771.32 840.77 L1771.71 843.21 L1772.20 846.43 L1772.59 849.26 L1772.88 851.51 L1773.27 854.63 L1773.46 859.22 L1773.56 862.83 L1773.66 866.73 L1773.95 871.32 L1774.05 873.07 L1774.05 877.08 L1774.24 881.27 L1774.44 884.49 L1774.64 888.20 L1774.93 891.71 L1775.22 894.15 L1775.81 896.20 L1776.29 899.23 L1776.68 902.55 L1776.68 905.38 L1776.78 908.99 L1776.39 912.70 L1776.20 916.31 L1775.71 919.92 L1775.42 923.33 L1774.64 927.53 L1774.15 930.85 L1773.37 934.36 L1772.68 937.88 L1772.10 941.49 L1771.61 945.20 L1771.32 948.90 L1770.54 953.00 L1769.85 956.22 L1769.56 959.44 L1769.36 961.98 L1769.56 964.81 L1769.85 967.35 L1770.24 970.28 L1771.02 973.60 L1771.61 976.04 L1772.20 978.57 L1772.29 980.62 L1772.00 982.96 L1771.90 985.60 L1771.51 987.94 L1771.02 989.99 L1770.34 992.53 L1769.27 994.09 L1767.80 995.07 L1766.53 996.43 L1765.66 997.60 L1765.07 999.36 L1764.39 1001.70 L1763.80 1004.14 L1763.22 1007.07 L1763.02 1010.10 L1762.73 1012.93 L1762.43 1015.56 L1761.56 1018.39 L1760.68 1020.64 L1759.99 1022.68 L1759.80 1024.83 L1759.60 1027.95 L1759.51 1030.98 L1759.51 1034.40 L1759.31 1037.13 L1758.73 1040.54 L1758.34 1042.89 L1758.24 1044.84 L1758.14 1046.50 L1757.85 1049.13 L1757.36 1051.96 L1756.77 1054.50 L1756.29 1057.43 L1756.09 1060.26 L1755.60 1063.58 L1755.11 1067.19 L1755.02 1068.94 L1755.11 1071.38 L1766.83 1075.09 L1756.19 1101.35 L1777.27 1102.22 L1778.05 1102.22 L1780.69 1102.42 L1783.42 1102.81 L1786.45 1103.49 L1789.57 1104.37 L1792.20 1105.44 L1795.42 1106.91 L1798.55 1108.57 L1801.57 1110.42 L1804.31 1112.47 L1806.84 1114.52 L1809.48 1117.06 L1812.51 1120.38 L1835.15 1146.63 L1841.20 1153.66 L1839.64 1155.61 L1838.57 1157.36 L1836.13 1161.37 L1833.69 1165.85 L1831.73 1169.86 L1831.44 1170.54 L1831.44 1171.81 L1821.88 1192.40 L1793.96 1252.71 L1787.91 1265.30 L1783.22 1275.75 L1782.74 1276.82 L1782.35 1277.89 L1781.96 1279.06 L1779.71 1282.58 L1774.34 1294.58 L1770.54 1302.29 L1764.97 1312.83 L1760.38 1317.91 L1754.53 1323.18 L1740.38 1323.57 L1734.62 1323.76 L1734.72 1329.62 L1734.42 1338.60 L1734.42 1348.94 L1734.42 1355.38 L1734.42 1363.97 L1734.32 1372.36 L1734.23 1382.03 L1733.93 1389.83 L1733.84 1395.10 L1733.93 1400.28 L1733.84 1405.74 L1733.54 1410.52 L1733.74 1415.50 L1733.54 1422.53 L1733.45 1425.94 L1733.64 1430.63 L1733.64 1437.17 L1733.74 1441.07 L1733.74 1443.90 L1733.64 1446.44 L1733.25 1447.80 L1732.57 1453.95 L1732.47 1458.83 L1732.57 1464.20 L1731.88 1470.93 L1731.59 1480.11 L1731.59 1487.04 L1731.59 1493.67 L1731.59 1504.31 L1731.40 1517.39 L1731.30 1521.10 L1731.59 1526.07 L1731.88 1529.10 L1732.28 1532.03 L1732.67 1534.27 L1733.15 1537.69 L1733.35 1540.71 L1733.45 1542.96 L1732.96 1544.42 L1730.91 1547.15 L1729.64 1549.59 L1728.86 1550.86 L1728.27 1552.52 L1728.27 1554.67 L1728.86 1558.18 L1732.47 1561.21 L1733.54 1563.65 L1734.03 1566.57 L1734.03 1568.72 L1734.23 1570.77 L1734.62 1572.92 L1735.59 1575.55 L1736.18 1576.63 L1738.13 1580.34 L1738.91 1582.68 L1739.11 1583.95 L1739.30 1585.22 L1738.91 1587.07 L1738.81 1588.63 L1738.62 1590.39 L1739.11 1592.05 L1739.69 1593.41 L1739.99 1594.49 L1740.08 1595.66 L1739.89 1597.41 L1739.89 1599.17 L1740.08 1601.42 L1739.89 1609.91 L1740.96 1700.28 L1740.86 1721.46 L1740.77 1729.07 L1741.06 1732.09 L1741.16 1736.19 L1741.06 1740.19 L1740.47 1745.27 L1740.18 1748.00 L1740.08 1750.34 L1740.08 1753.27 L1740.28 1756.30 L1740.47 1758.44 L1740.57 1764.69 L1740.86 1769.96 L1740.86 1777.67 L1740.86 1783.53 L1740.77 1788.02 L1740.96 1793.87 L1740.96 1796.31 L1741.06 1798.65 L1741.16 1801.48 L1741.25 1804.41 L1741.65 1807.92 L1742.52 1813.00 L1742.43 1816.02 L1742.43 1819.34 L1742.23 1823.93 L1742.23 1828.22 L1742.33 1831.83 L1742.43 1837.01 L1715.10 1836.71 L1709.83 1836.52 L1702.41 1836.32 L1700.85 1837.20 L1695.38 1837.50 L1694.60 1837.50 L1687.77 1837.69 L1686.60 1837.69 L1684.74 1837.69 L1642.97 1839.06 L1631.65 1839.25 L1625.01 1839.35 L1614.66 1839.06 L1609.68 1838.76 L1604.51 1838.47 L1599.92 1838.08 L1595.73 1837.69 L1593.97 1837.50 L1592.02 1837.30 L1583.04 1836.81 L1577.67 1836.42 L1573.57 1836.23 L1568.79 1835.93 L1562.83 1835.84 L1559.61 1832.62 L1555.42 1832.42 L1552.10 1832.23 L1536.58 1831.83 L1525.65 1831.74 L1519.79 1831.74 L1501.73 1831.35 L1494.61 1831.15 L1485.14 1830.96 L1478.99 1830.86 L1469.33 1830.57 L1463.28 1830.37 L1456.74 1830.27 L1449.71 1830.18 L1441.12 1829.98 L1430.97 1829.88 L1422.77 1829.69 L1420.24 1829.69 L1412.82 1829.39 L1396.81 1829.20 L1390.76 1829.10 L1381.19 1829.00 L1368.31 1828.91 L1362.75 1828.81 L1362.75 1832.03 L1362.75 1840.81 L1356.30 1840.91 L1356.30 1840.91 Z" stroke-linejoin="round"/>
	</defs>
	<use xlink:href="#path_CrCjPTVy" style="fill:#6BACAF;stroke:#6BB4D2;stroke-width:5.76"/>
	<defs>
		<path id="path_ZSGnshwF" d="M888.88 2576.28 L888.88 2576.28 L886.73 2578.62 L883.32 2575.99 L880.68 2573.55 L878.73 2571.99 L877.36 2570.81 L875.41 2569.06 L870.04 2564.37 L865.26 2560.57 L861.65 2557.54 L857.65 2554.22 L853.06 2550.42 L849.64 2547.59 L844.66 2543.49 L843.20 2542.32 L841.93 2541.15 L825.92 2527.78 L813.92 2517.72 L803.87 2509.33 L801.52 2507.38 L780.15 2489.32 L776.54 2486.30 L772.24 2482.78 L768.14 2481.22 L758.68 2471.46 L757.21 2470.20 L756.14 2469.22 L753.70 2466.97 L747.06 2461.41 L728.22 2445.60 L720.90 2439.55 L701.48 2423.25 L699.04 2421.30 L697.48 2419.93 L694.55 2419.93 L692.99 2419.84 L689.86 2419.84 L679.62 2419.93 L669.76 2419.93 L668.59 2419.54 L667.42 2418.28 L632.86 2385.87 L630.33 2382.95 L596.85 2352.20 L601.05 2344.10 L601.83 2342.64 L602.22 2341.86 L602.61 2341.08 L603.00 2340.30 L600.95 2338.54 L599.48 2337.18 L598.41 2336.20 L597.43 2335.32 L595.29 2333.47 L592.36 2331.03 L590.02 2329.07 L586.70 2326.34 L583.48 2324.00 L578.89 2320.68 L575.28 2318.24 L570.50 2315.22 L566.88 2312.87 L563.27 2310.63 L557.81 2307.51 L553.02 2304.97 L551.76 2304.38 L549.71 2303.31 L545.12 2301.07 L541.02 2299.31 L537.21 2297.65 L536.14 2297.26 L524.62 2293.06 L522.38 2292.38 L516.52 2290.62 L512.52 2289.35 L511.64 2289.06 L499.73 2285.55 L497.29 2284.86 L485.68 2281.35 L484.31 2280.96 L481.58 2280.38 L476.31 2279.11 L474.06 2278.52 L472.60 2278.23 L465.77 2276.28 L460.69 2274.72 L455.81 2272.96 L455.32 2272.76 L452.10 2271.49 L450.93 2271.01 L446.15 2268.86 L441.07 2266.22 L435.61 2263.30 L430.73 2260.47 L429.65 2259.78 L422.72 2255.59 L420.28 2253.93 L415.11 2250.12 L412.47 2248.36 L407.20 2244.07 L405.25 2242.41 L399.98 2237.92 L396.47 2234.70 L393.44 2231.77 L390.61 2229.04 L387.59 2225.82 L383.97 2221.62 L383.00 2220.36 L381.53 2218.60 L380.07 2216.84 L378.80 2215.38 L376.07 2212.26 L373.53 2209.03 L371.58 2206.69 L369.92 2204.74 L369.53 2204.35 L368.85 2203.57 L367.58 2202.11 L367.67 2195.37 L367.77 2189.52 L367.97 2181.90 L367.97 2176.54 L367.97 2170.19 L368.16 2148.92 L368.26 2143.94 L368.36 2134.18 L368.45 2127.74 L363.28 2127.84 L358.69 2128.32 L358.40 2128.32 L354.11 2128.81 L351.76 2129.01 L347.08 2129.30 L347.08 2128.03 L347.08 2126.28 L351.08 2126.18 L354.50 2125.98 L359.67 2125.49 L361.23 2125.40 L365.72 2125.01 L368.45 2125.01 L368.45 2123.05 L368.55 2121.00 L368.65 2114.76 L368.65 2096.80 L368.75 2088.99 L368.85 2078.75 L368.85 2074.75 L368.94 2071.43 L369.04 2063.42 L369.14 2056.98 L369.33 2044.69 L369.72 2018.53 L369.72 2012.97 L369.82 1986.52 L369.24 1986.52 L329.90 1986.03 L259.43 1985.94 L259.43 1952.95 L259.92 1922.69 L259.72 1901.13 L244.01 1900.74 L235.81 1900.44 L216.39 1900.74 L209.46 1901.03 L209.36 1897.61 L209.36 1893.32 L209.36 1873.31 L209.56 1854.09 L209.65 1848.13 L209.56 1845.11 L209.46 1842.77 L209.26 1840.42 L208.97 1838.28 L208.58 1836.32 L208.29 1834.27 L207.99 1832.03 L207.90 1830.08 L207.80 1828.52 L207.70 1827.05 L207.80 1825.30 L207.90 1818.17 L207.99 1816.90 L215.22 1817.10 L233.18 1817.10 L236.20 1817.20 L236.20 1815.83 L239.42 1815.93 L243.23 1815.93 L257.09 1815.93 L263.04 1816.02 L277.88 1816.22 L303.94 1816.32 L311.36 1816.32 L326.97 1816.51 L343.76 1816.71 L349.91 1816.71 L370.99 1816.81 L371.87 1816.81 L371.97 1818.17 L373.24 1816.81 L374.21 1816.81 L377.14 1816.90 L384.95 1817.20 L394.52 1817.49 L401.25 1817.49 L405.64 1817.49 L412.86 1817.39 L419.79 1817.59 L438.53 1817.88 L444.29 1817.98 L465.38 1818.46 L469.28 1818.46 L481.38 1818.56 L488.21 1818.66 L495.34 1818.76 L501.68 1818.76 L504.51 1818.85 L518.28 1818.85 L524.52 1818.95 L532.23 1819.15 L538.19 1819.25 L541.51 1819.25 L549.02 1819.34 L553.61 1819.34 L561.91 1819.34 L569.03 1819.44 L590.41 1819.93 L598.12 1820.03 L607.10 1820.12 L613.15 1820.22 L620.96 1820.32 L626.42 1820.32 L634.82 1820.32 L635.69 1820.22 L636.57 1820.22 L643.31 1820.61 L649.16 1820.81 L664.19 1821.10 L672.10 1821.20 L674.74 1821.20 L682.35 1821.20 L690.84 1821.29 L699.33 1821.49 L707.73 1821.59 L711.34 1821.59 L717.58 1821.59 L724.42 1821.68 L726.47 1821.68 L732.62 1821.78 L734.37 1821.78 L736.03 1821.78 L741.59 1821.88 L744.43 1821.98 L750.48 1822.08 L752.72 1822.08 L758.87 1822.27 L760.82 1822.27 L766.19 1822.66 L769.51 1822.95 L785.71 1822.95 L793.23 1822.95 L804.06 1823.05 L807.58 1823.15 L821.63 1823.05 L835.10 1823.15 L838.71 1823.15 L849.15 1823.05 L854.23 1822.76 L855.89 1823.15 L863.60 1823.15 L864.28 1822.47 L865.26 1822.47 L867.70 1822.47 L875.21 1822.37 L884.68 1822.37 L885.95 1822.47 L887.22 1822.56 L890.54 1822.95 L892.10 1823.05 L897.96 1823.34 L903.23 1823.34 L905.18 1823.44 L913.28 1823.44 L921.77 1823.54 L940.12 1823.64 L945.78 1823.73 L954.37 1824.03 L956.62 1823.93 L961.30 1823.83 L969.30 1823.44 L984.43 1823.05 L995.56 1822.95 L998.59 1822.95 L1006.30 1822.95 L1013.32 1823.05 L1016.45 1823.05 L1025.04 1823.34 L1028.84 1823.44 L1040.46 1823.83 L1044.56 1824.03 L1049.63 1824.22 L1051.10 1824.22 L1054.51 1824.32 L1057.54 1824.42 L1063.40 1824.61 L1077.55 1825.20 L1083.11 1825.30 L1085.75 1825.39 L1090.92 1825.49 L1093.36 1825.59 L1098.04 1825.78 L1101.07 1825.88 L1108.59 1826.17 L1114.83 1826.27 L1118.15 1826.37 L1127.72 1826.66 L1132.79 1826.76 L1135.43 1826.86 L1142.84 1827.15 L1145.09 1827.25 L1150.56 1827.35 L1158.56 1827.64 L1160.80 1827.64 L1169.78 1827.74 L1175.25 1827.83 L1179.06 1827.93 L1185.20 1827.93 L1189.11 1827.93 L1205.21 1828.13 L1206.87 1828.13 L1212.92 1828.13 L1235.28 1828.42 L1242.21 1828.42 L1250.79 1828.42 L1264.46 1828.52 L1271.49 1828.52 L1279.39 1828.61 L1280.56 1828.61 L1291.69 1828.61 L1298.23 1828.61 L1299.21 1828.61 L1302.43 1828.61 L1319.51 1828.42 L1326.24 1828.42 L1331.51 1828.42 L1333.56 1828.42 L1340.49 1828.42 L1346.25 1828.52 L1347.42 1828.52 L1356.50 1828.71 L1356.01 1831.93 L1356.30 1840.91 L1362.75 1840.81 L1362.75 1832.03 L1362.75 1828.81 L1368.31 1828.91 L1381.19 1829.00 L1390.76 1829.10 L1396.81 1829.20 L1412.82 1829.39 L1420.24 1829.69 L1422.77 1829.69 L1430.97 1829.88 L1441.12 1829.98 L1449.71 1830.18 L1456.74 1830.27 L1463.28 1830.37 L1469.33 1830.57 L1478.99 1830.86 L1485.14 1830.96 L1494.61 1831.15 L1501.73 1831.35 L1519.79 1831.74 L1525.65 1831.74 L1536.58 1831.83 L1552.10 1832.23 L1555.42 1832.42 L1559.61 1832.62 L1562.83 1835.84 L1568.79 1835.93 L1573.57 1836.23 L1577.67 1836.42 L1583.04 1836.81 L1592.02 1837.30 L1593.97 1837.50 L1595.73 1837.69 L1594.36 1838.86 L1592.31 1840.62 L1589.97 1842.57 L1577.48 1853.11 L1567.81 1861.31 L1563.91 1864.72 L1561.76 1866.58 L1555.71 1872.53 L1550.73 1877.31 L1549.27 1878.78 L1537.07 1891.07 L1532.67 1895.66 L1528.67 1899.76 L1525.35 1903.18 L1524.28 1904.15 L1521.26 1907.37 L1518.72 1909.81 L1515.79 1912.94 L1512.86 1915.86 L1509.74 1919.08 L1504.17 1924.94 L1500.76 1928.35 L1498.42 1930.70 L1492.75 1936.36 L1488.17 1941.04 L1486.90 1942.31 L1484.07 1945.43 L1481.53 1948.07 L1479.58 1949.92 L1479.19 1950.31 L1478.21 1951.29 L1477.04 1952.56 L1475.19 1954.61 L1472.94 1957.15 L1471.09 1959.00 L1462.69 1967.49 L1457.91 1972.17 L1454.01 1976.08 L1452.35 1977.83 L1450.69 1979.40 L1447.95 1982.32 L1443.07 1987.40 L1437.02 1993.65 L1430.68 2000.18 L1429.80 2001.06 L1424.33 2006.82 L1416.62 2014.82 L1408.91 2022.73 L1406.57 2025.46 L1405.40 2026.63 L1401.79 2030.54 L1398.57 2033.66 L1391.05 2041.08 L1385.88 2046.15 L1381.58 2050.44 L1365.38 2066.84 L1359.92 2072.70 L1359.14 2073.38 L1351.33 2081.77 L1346.45 2086.94 L1340.98 2092.70 L1338.44 2095.34 L1333.56 2100.51 L1322.83 2111.83 L1318.92 2116.03 L1314.63 2120.61 L1302.92 2133.11 L1302.23 2133.98 L1301.35 2134.86 L1298.13 2137.89 L1294.62 2141.69 L1293.74 2142.67 L1288.47 2148.23 L1284.57 2152.43 L1280.86 2156.53 L1277.05 2160.63 L1274.90 2162.97 L1269.53 2168.73 L1268.17 2170.19 L1261.24 2177.51 L1259.87 2178.98 L1237.42 2203.18 L1227.96 2213.04 L1226.49 2214.69 L1217.12 2224.94 L1201.80 2241.44 L1197.50 2245.92 L1193.21 2250.41 L1187.84 2256.07 L1186.38 2257.54 L1181.11 2263.00 L1176.03 2268.57 L1171.44 2273.54 L1170.17 2274.91 L1163.44 2282.23 L1161.49 2284.28 L1159.24 2286.72 L1154.95 2291.31 L1153.48 2293.06 L1148.99 2298.24 L1144.21 2303.21 L1139.23 2308.48 L1138.26 2309.46 L1133.08 2314.83 L1131.13 2317.07 L1128.40 2319.90 L1124.59 2324.10 L1120.79 2328.20 L1119.62 2329.56 L1112.20 2337.76 L1100.48 2350.25 L1095.41 2355.91 L1091.21 2360.40 L1087.21 2364.79 L1081.16 2371.33 L1077.25 2375.53 L1061.05 2393.29 L1057.64 2397.10 L1055.39 2399.44 L1051.39 2403.73 L1046.41 2409.10 L1034.80 2421.50 L1030.31 2426.38 L1023.28 2433.89 L1018.99 2438.58 L1018.20 2439.36 L1015.96 2441.89 L1012.74 2445.41 L1009.91 2448.53 L1005.42 2453.31 L998.10 2461.22 L996.34 2463.17 L992.53 2467.27 L982.29 2478.30 L981.41 2479.27 L979.85 2479.27 L980.63 2480.15 L973.60 2488.06 L966.08 2496.45 L960.81 2502.01 L957.30 2505.91 L954.86 2508.35 L950.56 2512.94 L949.20 2514.31 L944.12 2519.77 L940.61 2523.58 L935.83 2528.75 L928.70 2536.75 L927.63 2537.93 L924.31 2541.44 L923.33 2542.51 L922.36 2543.59 L919.62 2546.51 L915.82 2550.71 L914.94 2551.59 L907.91 2559.20 L903.72 2563.98 L898.25 2569.84 L893.66 2574.82 L892.49 2573.64 L891.90 2572.86 L890.44 2574.52 L888.88 2576.28 L888.88 2576.28 Z" stroke-linejoin="round"/>
	</defs>
	<use xlink:href="#path_ZSGnshwF" style="fill:#09757A;stroke:#097D9B;stroke-width:5.76"/>
	<defs>
		<path id="path_HmJoWKeM" d="M752.82 1110.81 L752.82 1110.81 L751.36 1111.10 L749.50 1111.40 L745.89 1111.79 L743.64 1111.89 L739.15 1111.69 L731.05 1111.40 L727.44 1111.30 L720.41 1111.01 L717.88 1111.01 L708.70 1110.71 L702.94 1110.62 L696.60 1110.42 L693.57 1110.32 L690.94 1110.13 L688.50 1110.03 L685.96 1109.74 L683.23 1109.35 L680.59 1108.86 L678.74 1108.27 L677.86 1108.08 L675.81 1107.49 L673.27 1106.52 L670.93 1105.64 L668.10 1104.86 L666.24 1104.37 L665.27 1104.18 L662.05 1103.69 L658.63 1103.39 L654.43 1103.00 L653.85 1103.00 L652.78 1103.00 L651.99 1102.91 L647.21 1102.91 L645.36 1102.91 L640.57 1102.81 L638.53 1102.61 L636.67 1102.32 L635.11 1102.13 L633.25 1101.83 L631.30 1101.44 L629.55 1100.96 L628.18 1100.47 L626.03 1099.59 L623.98 1098.91 L622.32 1098.32 L620.76 1097.73 L619.20 1097.25 L616.17 1096.66 L614.42 1096.47 L612.37 1096.37 L610.22 1096.27 L608.46 1096.17 L607.49 1096.17 L596.65 1095.69 L595.19 1095.69 L577.43 1095.49 L564.54 1095.49 L558.49 1095.39 L555.17 1095.29 L547.07 1095.00 L543.46 1095.00 L541.02 1095.00 L520.81 1095.00 L516.42 1095.00 L489.29 1094.61 L476.70 1094.61 L470.55 1094.61 L455.71 1094.32 L449.47 1094.22 L441.37 1094.12 L436.29 1094.22 L430.53 1094.03 L420.77 1093.83 L409.06 1093.83 L403.20 1093.73 L388.27 1093.64 L385.93 1093.54 L380.85 1093.54 L379.29 1093.44 L377.92 1093.44 L378.61 1090.81 L379.00 1089.15 L379.39 1087.58 L379.87 1085.24 L380.07 1083.68 L380.27 1082.31 L380.46 1081.24 L380.56 1080.07 L380.75 1075.87 L380.85 1069.24 L380.95 1061.62 L382.12 1061.62 L382.22 1047.28 L382.22 1044.16 L382.31 1026.20 L381.24 1026.10 L381.24 1017.71 L381.24 1011.36 L381.24 1009.41 L381.34 1003.36 L381.53 992.82 L381.53 986.87 L381.73 972.52 L381.73 968.03 L381.83 966.08 L381.73 962.66 L381.53 958.96 L381.34 955.93 L380.85 952.42 L380.56 950.56 L380.36 947.34 L380.27 944.90 L380.27 944.32 L380.27 935.05 L380.56 916.99 L380.75 909.28 L380.75 901.67 L380.95 896.20 L380.95 894.15 L381.05 889.96 L381.05 886.54 L381.05 878.93 L381.14 871.22 L381.14 862.83 L381.34 856.48 L381.34 854.34 L381.53 846.33 L381.53 842.72 L381.73 831.60 L382.02 822.32 L382.12 817.74 L382.12 815.20 L382.12 806.71 L382.12 799.78 L382.22 796.85 L382.22 788.85 L382.31 787.68 L382.41 776.65 L382.61 767.09 L382.61 763.09 L382.80 755.28 L382.80 749.42 L383.10 739.57 L383.19 731.86 L383.29 723.56 L383.39 717.61 L383.39 714.29 L383.49 705.60 L383.78 694.67 L383.78 690.09 L383.97 681.50 L384.17 673.01 L384.36 664.71 L384.46 663.25 L384.56 656.61 L384.56 654.37 L384.46 645.78 L384.56 641.39 L384.66 637.29 L384.66 631.82 L384.66 629.09 L384.85 622.84 L384.95 615.04 L384.95 611.23 L385.24 594.25 L385.44 586.25 L385.54 584.20 L385.73 578.63 L385.83 567.51 L385.93 562.04 L386.12 536.47 L386.12 532.28 L386.32 517.73 L386.32 515.88 L386.32 513.83 L387.49 513.83 L387.68 494.70 L387.98 482.99 L387.88 474.50 L388.07 457.13 L388.07 455.08 L388.07 450.98 L386.90 450.98 L386.90 447.17 L387.00 443.37 L387.10 439.76 L388.17 439.76 L388.37 434.78 L387.10 434.78 L387.19 430.58 L387.19 426.39 L388.46 423.85 L388.37 418.87 L388.46 407.75 L388.66 402.96 L388.85 373.10 L388.76 371.34 L388.95 360.22 L389.15 331.04 L389.73 322.74 L388.37 320.30 L388.37 311.52 L388.37 303.81 L388.46 293.85 L388.76 267.89 L388.76 264.97 L388.85 254.23 L388.95 249.94 L388.85 238.71 L388.85 237.93 L388.56 234.91 L388.37 230.61 L388.46 221.83 L388.66 205.53 L388.76 198.70 L388.95 196.16 L389.15 192.85 L389.64 188.36 L389.73 187.18 L390.32 181.72 L390.90 174.69 L390.90 173.03 L391.00 169.91 L391.39 158.49 L391.59 150.98 L391.78 145.32 L391.98 136.73 L392.08 130.39 L392.37 117.80 L392.47 112.23 L393.05 87.64 L393.15 86.96 L393.05 86.08 L393.34 75.34 L393.64 58.65 L393.73 34.26 L396.47 34.45 L398.52 34.55 L408.18 34.74 L421.06 34.74 L427.90 35.43 L436.48 36.40 L442.15 37.18 L445.07 37.57 L449.86 38.26 L453.66 38.74 L456.01 38.94 L458.54 39.14 L460.98 39.23 L463.81 39.14 L466.35 39.14 L469.08 38.94 L471.13 38.65 L473.67 38.35 L475.72 38.06 L478.75 37.38 L485.58 35.82 L487.82 35.23 L489.97 34.84 L492.02 34.35 L493.97 33.96 L495.54 33.57 L497.10 33.18 L498.56 32.99 L499.93 32.89 L501.20 32.79 L503.64 32.60 L506.37 32.30 L507.54 32.21 L508.52 32.21 L513.59 32.01 L523.35 32.11 L524.62 32.11 L530.77 32.30 L536.72 32.69 L537.02 32.69 L539.75 32.89 L542.87 33.28 L544.83 33.57 L545.90 33.77 L546.87 33.96 L547.66 34.16 L548.53 34.45 L549.90 34.94 L551.27 35.43 L552.63 35.91 L554.00 36.50 L555.37 37.09 L556.73 37.67 L558.20 38.45 L559.66 39.23 L560.93 40.01 L562.10 40.70 L569.52 45.67 L570.79 46.55 L573.62 48.41 L581.62 53.87 L582.89 51.53 L583.57 50.36 L584.06 49.68 L585.33 47.33 L586.31 45.28 L587.19 43.53 L589.24 38.35 L590.41 34.06 L590.70 32.89 L591.19 30.74 L594.12 30.94 L601.44 31.03 L608.56 31.13 L619.00 31.91 L631.79 31.62 L634.62 31.52 L634.91 31.52 L637.55 31.72 L639.31 31.82 L641.75 31.72 L644.97 31.72 L649.36 31.91 L653.56 31.91 L655.41 31.91 L658.34 32.01 L663.41 32.40 L664.59 32.50 L668.29 32.69 L676.49 32.89 L710.56 34.16 L723.34 33.28 L725.49 33.28 L732.62 33.67 L763.36 35.23 L790.01 36.79 L796.84 37.09 L848.96 40.21 L897.18 42.94 L917.77 44.21 L918.55 44.31 L924.60 41.57 L933.39 41.67 L940.51 41.67 L974.09 42.26 L1020.35 43.53 L1023.18 43.53 L1022.99 48.70 L1029.43 48.70 L1041.34 49.19 L1043.39 48.89 L1048.75 49.38 L1051.19 49.68 L1051.78 38.26 L1052.37 36.70 L1053.63 33.28 L1186.57 41.09 L1199.75 53.87 L1208.63 53.97 L1222.39 54.36 L1281.34 54.95 L1282.32 54.95 L1284.76 54.85 L1294.91 55.53 L1297.16 55.43 L1300.18 55.43 L1303.21 55.43 L1339.22 56.80 L1347.03 57.19 L1353.38 52.12 L1403.06 53.48 L1415.16 53.97 L1435.75 54.16 L1435.66 58.75 L1435.66 60.02 L1435.56 61.58 L1435.56 62.36 L1435.36 66.95 L1435.36 69.97 L1435.27 82.66 L1435.36 93.69 L1435.27 96.13 L1434.88 110.09 L1435.66 111.74 L1435.36 124.33 L1434.97 139.75 L1434.58 156.35 L1434.29 172.84 L1434.09 180.94 L1433.90 189.62 L1433.70 198.12 L1433.31 214.71 L1433.02 226.52 L1433.31 232.47 L1434.00 239.01 L1435.07 244.47 L1436.54 249.25 L1438.49 255.50 L1440.73 260.09 L1441.71 261.65 L1442.88 263.60 L1445.91 267.80 L1448.64 271.21 L1459.08 283.22 L1460.06 284.29 L1471.48 297.17 L1473.14 299.12 L1475.77 302.15 L1480.07 306.83 L1480.46 307.23 L1485.34 312.59 L1503.39 332.89 L1510.71 341.19 L1512.57 343.53 L1515.59 346.75 L1517.35 348.70 L1518.33 349.78 L1524.48 356.12 L1517.45 363.44 L1478.70 403.55 L1452.93 451.76 L1409.11 532.76 L1381.97 580.29 L1356.40 636.31 L1346.54 671.64 L1340.40 695.65 L1339.22 699.84 L1338.64 699.84 L1336.69 699.65 L1334.83 699.26 L1332.98 698.67 L1331.32 697.70 L1329.07 696.23 L1324.88 692.82 L1318.04 687.45 L1309.94 682.96 L1304.48 678.76 L1300.96 676.32 L1296.77 673.10 L1292.57 669.98 L1287.79 666.96 L1280.76 662.66 L1278.51 661.59 L1273.24 657.49 L1269.34 654.76 L1262.60 642.75 L1262.31 641.19 L1261.34 639.43 L1258.99 640.41 L1255.77 641.09 L1251.38 637.29 L1246.50 633.29 L1236.84 624.60 L1229.32 616.69 L1226.30 612.99 L1223.76 609.86 L1220.83 606.25 L1218.68 603.62 L1214.68 599.81 L1214.29 599.32 L1213.02 598.25 L1210.78 596.49 L1209.61 595.52 L1207.75 593.86 L1194.09 583.71 L1191.45 581.66 L1190.96 581.27 L1189.60 580.00 L1185.20 576.68 L1180.32 573.17 L1169.10 564.19 L1163.83 559.90 L1160.61 557.07 L1152.61 550.43 L1141.77 541.35 L1130.84 531.89 L1126.35 527.79 L1121.27 523.30 L1119.22 521.44 L1117.08 519.39 L1114.54 517.15 L1111.12 513.83 L1105.07 507.98 L1094.82 497.63 L1091.31 494.12 L1085.84 488.16 L1083.50 485.53 L1080.77 482.50 L1079.21 480.75 L1078.13 479.48 L1074.03 474.89 L1070.91 471.57 L1066.62 466.89 L1063.00 462.89 L1061.64 461.42 L1057.34 456.54 L1057.25 456.54 L1053.93 452.74 L1045.92 443.47 L1038.12 434.68 L1034.02 429.90 L1028.45 423.07 L1024.16 417.99 L1021.82 415.46 L1020.35 413.90 L1017.72 410.87 L1016.94 410.09 L1015.67 408.82 L1015.47 408.53 L1012.93 405.99 L1008.54 401.70 L1007.57 400.72 L1006.39 399.55 L1005.22 398.48 L1003.66 403.16 L1002.59 406.48 L1001.81 408.33 L1000.25 411.65 L999.17 413.70 L995.17 422.00 L991.17 425.51 L990.39 426.78 L989.41 427.95 L984.14 434.19 L983.95 434.39 L980.82 437.71 L976.72 442.10 L966.28 453.03 L961.69 457.91 L954.57 465.42 L951.15 469.13 L946.76 473.72 L937.10 484.16 L935.05 486.41 L931.43 490.31 L929.87 491.87 L927.53 494.41 L919.23 503.39 L917.77 505.05 L907.91 515.20 L904.11 519.20 L893.08 531.01 L884.00 541.16 L871.70 554.14 L866.14 559.90 L844.47 583.12 L840.66 587.22 L818.41 610.74 L801.52 628.99 L792.06 639.24 L789.03 642.46 L787.08 644.61 L782.98 649.29 L782.30 650.07 L781.51 650.95 L783.08 652.71 L785.81 655.73 L794.20 664.71 L800.94 671.84 L805.33 676.62 L814.60 686.67 L818.70 691.26 L824.85 698.09 L827.29 700.72 L837.25 711.46 L839.69 714.19 L841.54 716.24 L850.72 726.20 L855.30 731.07 L880.09 758.30 L881.46 759.67 L888.49 767.67 L890.05 769.43 L891.22 770.80 L892.30 771.97 L893.08 773.04 L894.15 774.41 L894.93 775.58 L895.81 777.04 L896.59 778.31 L897.47 779.77 L898.35 781.53 L899.32 783.58 L900.30 785.92 L901.37 788.66 L902.45 792.07 L903.42 796.46 L904.69 803.20 L905.67 807.69 L906.16 810.22 L906.55 812.66 L906.94 816.57 L907.13 820.08 L907.13 822.72 L907.03 823.69 L906.94 825.16 L906.35 836.48 L906.16 844.87 L906.06 851.02 L905.18 872.10 L904.79 885.08 L904.59 891.42 L904.20 904.30 L903.91 915.82 L903.62 924.21 L903.42 932.41 L903.32 934.75 L903.13 941.68 L902.74 950.66 L902.45 959.25 L902.35 968.62 L902.35 972.42 L902.25 977.21 L902.35 986.28 L902.35 988.92 L902.35 995.36 L902.15 1004.43 L902.15 1007.56 L902.15 1013.41 L902.06 1020.25 L902.06 1022.29 L902.06 1025.52 L901.96 1031.76 L901.96 1040.93 L901.96 1043.96 L901.96 1050.50 L901.96 1059.38 L901.86 1062.60 L901.86 1068.26 L901.96 1069.33 L901.86 1073.82 L901.86 1076.56 L901.86 1079.09 L901.86 1084.95 L901.96 1088.76 L902.06 1099.39 L899.52 1099.59 L898.05 1099.69 L896.79 1099.78 L895.32 1100.08 L894.05 1100.47 L892.69 1100.96 L891.51 1101.44 L890.05 1102.32 L889.37 1102.61 L888.78 1102.91 L888.29 1103.20 L881.46 1106.23 L880.00 1106.62 L879.70 1106.62 L877.95 1106.81 L876.39 1107.01 L873.65 1107.01 L860.77 1106.91 L855.11 1106.91 L842.91 1106.62 L839.10 1106.52 L835.20 1106.42 L831.39 1106.52 L784.05 1105.93 L775.76 1106.23 L772.63 1106.32 L769.02 1106.42 L768.24 1106.42 L767.75 1106.42 L766.58 1106.62 L765.61 1106.91 L765.02 1107.10 L762.68 1107.79 L753.60 1110.52 L752.82 1110.81 L752.82 1110.81 Z" stroke-linejoin="round"/>
	</defs>
	<use xlink:href="#path_HmJoWKeM" style="fill:#004249;stroke:#00465F;stroke-width:5.76"/>
</svg>
