<?xml version="1.0" encoding="UTF-8" standalone="no"?>
<!-- This is a Stata 16.1 generated SVG file (http://www.stata.com) -->

<svg version="1.1" width="4.00in" height="4.88in" viewBox="0 0 2880 3516" xmlns="http://www.w3.org/2000/svg" xmlns:xlink="http://www.w3.org/1999/xlink">
	<desc>Stata Graph - Graph</desc>
	<rect x="0" y="0" width="2880" height="3516" style="fill:#FFFFFF;stroke:none"/>
	<defs>
		<path id="path_uNpPsNzf" d="M2032.77 3271.64 L2032.77 3271.64 L2031.78 3272.85 L2028.26 3269.33 L2012.66 3253.73 L2005.85 3247.14 L1985.74 3227.58 L1970.69 3213.40 L1969.70 3212.42 L1968.38 3211.21 L1966.18 3209.45 L1965.41 3208.79 L1964.54 3209.01 L1963.66 3209.01 L1962.89 3208.90 L1959.59 3208.90 L1956.73 3209.12 L1946.41 3214.39 L1938.39 3203.95 L1931.35 3202.86 L1921.25 3206.92 L1912.46 3202.09 L1908.94 3187.80 L1907.07 3181.87 L1904.65 3180.55 L1900.48 3180.55 L1898.94 3181.87 L1898.17 3184.07 L1898.94 3186.48 L1898.83 3187.47 L1897.40 3187.91 L1894.99 3187.80 L1893.78 3187.14 L1890.70 3185.50 L1888.06 3185.28 L1886.64 3186.16 L1885.87 3188.02 L1884.77 3188.79 L1880.92 3189.01 L1879.05 3189.23 L1877.19 3187.58 L1875.98 3186.59 L1874.55 3187.25 L1873.23 3186.48 L1872.90 3184.84 L1873.45 3181.98 L1873.23 3178.24 L1872.35 3175.94 L1871.91 3174.95 L1871.25 3173.52 L1870.81 3173.30 L1868.18 3172.42 L1866.09 3171.98 L1863.89 3170.77 L1861.80 3170.99 L1860.71 3171.76 L1859.83 3172.20 L1858.51 3171.98 L1856.42 3170.22 L1855.10 3170.33 L1854.00 3170.99 L1853.34 3171.76 L1852.68 3172.75 L1850.38 3174.40 L1848.84 3174.62 L1847.96 3173.63 L1847.08 3173.63 L1845.87 3174.84 L1844.77 3177.37 L1844.00 3178.79 L1843.35 3180.22 L1843.13 3181.98 L1842.25 3182.20 L1840.82 3180.66 L1840.05 3179.78 L1839.72 3179.34 L1837.96 3179.34 L1838.95 3181.65 L1839.50 3182.42 L1836.86 3180.55 L1832.69 3177.48 L1816.87 3165.28 L1802.58 3154.29 L1793.57 3147.26 L1793.46 3147.15 L1786.32 3141.66 L1784.89 3140.56 L1775.00 3132.87 L1772.59 3132.21 L1770.61 3132.32 L1764.90 3134.18 L1761.38 3134.29 L1756.76 3132.65 L1744.57 3134.29 L1742.15 3132.87 L1739.62 3131.66 L1737.32 3130.34 L1736.44 3130.01 L1735.01 3126.27 L1732.37 3122.10 L1729.96 3124.74 L1727.10 3119.02 L1718.42 3114.41 L1720.95 3106.06 L1720.95 3105.07 L1720.62 3104.30 L1720.18 3104.08 L1719.30 3104.08 L1714.24 3106.17 L1710.29 3105.29 L1711.50 3098.58 L1695.24 3092.32 L1687.00 3097.05 L1663.26 3113.53 L1608.88 3098.80 L1606.79 3094.30 L1605.80 3092.10 L1608.00 3089.36 L1613.16 3080.13 L1616.79 3072.43 L1617.12 3070.79 L1616.90 3067.05 L1613.71 3050.79 L1611.84 3047.71 L1604.26 3041.45 L1599.32 3037.60 L1593.60 3034.31 L1582.84 3031.67 L1573.61 3030.46 L1561.74 3029.91 L1543.72 3030.02 L1524.38 3035.96 L1521.64 3027.83 L1520.76 3023.54 L1520.43 3020.02 L1520.76 3016.18 L1520.76 3014.97 L1487.90 3012.33 L1485.16 3012.00 L1481.97 3012.33 L1479.88 3012.55 L1476.59 3013.43 L1468.90 3017.06 L1462.30 3022.00 L1451.21 3029.80 L1445.27 3032.00 L1438.13 3033.76 L1430.33 3035.08 L1426.93 3034.86 L1421.76 3034.64 L1416.93 3033.21 L1411.21 3030.57 L1407.92 3029.03 L1405.50 3027.17 L1403.41 3025.08 L1401.76 3023.32 L1396.93 3017.50 L1386.05 2997.83 L1378.91 2983.99 L1374.30 2977.28 L1368.47 2966.63 L1365.73 2961.57 L1339.58 2914.65 L1337.16 2910.48 L1336.28 2907.51 L1335.07 2904.22 L1334.63 2902.46 L1327.05 2834.67 L1325.62 2821.59 L1327.93 2808.73 L1331.12 2802.47 L1333.86 2799.18 L1337.05 2796.10 L1343.42 2792.36 L1345.18 2791.26 L1350.34 2787.97 L1354.52 2785.00 L1357.92 2781.38 L1361.77 2776.10 L1364.41 2771.49 L1368.25 2766.76 L1369.24 2764.67 L1370.01 2762.59 L1371.11 2757.64 L1371.88 2753.58 L1371.99 2749.73 L1371.99 2746.55 L1371.99 2745.34 L1372.54 2739.84 L1372.87 2736.00 L1373.75 2733.14 L1374.30 2731.93 L1374.85 2730.83 L1375.39 2729.95 L1376.27 2728.53 L1376.49 2727.98 L1377.04 2727.10 L1377.81 2725.67 L1378.69 2724.13 L1379.68 2722.37 L1380.89 2720.18 L1382.10 2717.65 L1385.83 2721.38 L1391.88 2730.94 L1392.64 2732.59 L1393.19 2733.25 L1393.63 2734.02 L1394.84 2736.55 L1396.38 2739.18 L1397.92 2741.82 L1399.46 2744.02 L1401.21 2746.11 L1402.53 2748.08 L1403.41 2749.40 L1405.06 2751.93 L1407.59 2754.24 L1409.57 2755.45 L1410.77 2755.77 L1411.54 2755.66 L1453.73 2752.70 L1464.72 2759.51 L1474.61 2756.21 L1489.44 2763.03 L1506.69 2765.44 L1529.11 2759.29 L1533.39 2759.62 L1546.58 2760.50 L1551.30 2760.28 L1568.99 2758.96 L1569.76 2758.96 L1573.39 2758.74 L1577.67 2759.95 L1590.42 2763.58 L1593.60 2764.45 L1613.49 2775.88 L1632.17 2786.65 L1635.03 2788.52 L1639.31 2791.26 L1649.75 2798.08 L1657.55 2798.63 L1680.07 2796.32 L1684.03 2797.97 L1687.87 2799.61 L1689.08 2800.16 L1697.98 2804.78 L1700.18 2806.43 L1704.47 2809.61 L1716.22 2818.40 L1720.84 2821.92 L1726.22 2825.88 L1748.19 2842.47 L1768.74 2853.12 L1770.61 2854.00 L1770.28 2856.31 L1769.84 2858.84 L1769.62 2860.49 L1768.96 2864.88 L1768.30 2868.62 L1774.56 2870.81 L1777.31 2871.80 L1783.68 2873.56 L1789.51 2874.66 L1809.94 2879.71 L1815.00 2879.71 L1820.27 2878.83 L1837.74 2875.65 L1861.25 2873.12 L1879.49 2871.91 L1885.65 2867.85 L1889.38 2848.18 L1899.16 2831.48 L1907.62 2827.96 L1914.87 2825.77 L1926.85 2824.01 L1939.48 2824.23 L1940.25 2821.59 L1950.36 2825.33 L1973.33 2828.40 L1975.08 2834.99 L1979.92 2835.54 L1988.16 2834.88 L1994.75 2832.25 L2002.77 2829.61 L2011.78 2824.89 L2017.49 2820.05 L2017.82 2819.83 L2023.21 2813.68 L2028.04 2810.38 L2032.55 2807.64 L2040.57 2805.22 L2045.07 2804.23 L2052.65 2803.35 L2058.37 2802.91 L2059.58 2802.80 L2061.22 2802.14 L2062.43 2801.81 L2064.30 2801.37 L2066.17 2801.48 L2067.93 2801.81 L2069.24 2801.92 L2071.77 2802.58 L2074.08 2803.13 L2075.62 2803.24 L2077.38 2803.46 L2079.35 2804.23 L2080.89 2804.34 L2082.21 2804.78 L2084.96 2804.78 L2086.27 2805.11 L2088.25 2806.21 L2090.45 2807.09 L2091.55 2807.53 L2093.31 2807.97 L2094.30 2807.86 L2095.72 2808.30 L2099.02 2811.15 L2103.74 2812.80 L2104.29 2812.91 L2104.84 2812.80 L2104.95 2812.58 L2104.95 2812.36 L2104.84 2812.03 L2104.62 2811.70 L2100.01 2808.95 L2099.90 2808.19 L2100.56 2807.86 L2102.10 2807.97 L2108.58 2812.69 L2111.77 2816.65 L2113.30 2817.96 L2116.93 2820.38 L2138.25 2831.48 L2145.28 2835.10 L2148.35 2836.09 L2151.65 2836.86 L2162.53 2840.38 L2181.54 2843.02 L2187.80 2842.36 L2191.53 2842.03 L2199.88 2842.03 L2202.74 2841.81 L2207.58 2840.82 L2205.38 2856.64 L2206.15 2856.86 L2207.79 2856.97 L2208.56 2856.86 L2209.88 2856.31 L2210.98 2855.10 L2216.69 2846.42 L2217.90 2844.66 L2219.11 2843.57 L2220.10 2843.02 L2221.09 2842.58 L2264.60 2839.94 L2278.88 2849.17 L2277.56 2859.28 L2273.94 2885.87 L2272.18 2898.94 L2271.74 2902.35 L2269.32 2919.49 L2290.31 2922.24 L2334.92 2928.06 L2340.52 2928.83 L2333.82 2978.38 L2338.10 2979.92 L2339.20 2980.36 L2339.42 2981.13 L2339.86 2981.79 L2340.41 2983.22 L2340.63 2983.99 L2340.85 2985.85 L2340.74 2986.40 L2340.63 2988.16 L2340.63 2989.70 L2340.74 2990.69 L2341.07 2992.34 L2341.40 2993.43 L2342.06 2994.42 L2342.61 2995.30 L2343.27 2995.74 L2344.70 2996.29 L2345.25 2996.18 L2346.67 2996.73 L2348.21 2997.17 L2349.20 2998.16 L2350.08 2998.16 L2351.18 2999.04 L2352.17 2999.92 L2353.60 3000.58 L2354.04 3001.13 L2355.68 3002.00 L2357.11 3002.44 L2357.55 3002.77 L2358.65 3003.87 L2359.20 3005.41 L2359.42 3006.18 L2359.97 3007.94 L2360.96 3009.04 L2361.95 3009.48 L2363.16 3009.59 L2364.14 3009.59 L2365.24 3009.92 L2367.66 3010.14 L2368.21 3010.14 L2369.53 3010.14 L2370.96 3010.57 L2372.60 3010.68 L2410.62 3045.84 L2476.65 3004.42 L2477.86 3006.62 L2478.74 3008.38 L2480.06 3012.00 L2480.17 3012.99 L2480.50 3014.75 L2480.83 3015.85 L2481.60 3017.06 L2482.37 3018.05 L2483.14 3018.60 L2484.02 3019.58 L2484.68 3020.24 L2485.33 3021.23 L2485.77 3022.33 L2486.32 3023.76 L2486.87 3025.41 L2487.31 3026.40 L2487.86 3027.39 L2489.84 3029.80 L2491.27 3032.55 L2494.01 3037.38 L2496.43 3040.24 L2497.31 3041.56 L2498.30 3042.88 L2498.41 3043.98 L2498.96 3045.30 L2499.84 3046.50 L2500.61 3046.94 L2501.49 3047.71 L2502.26 3048.37 L2503.13 3048.59 L2504.34 3049.58 L2504.89 3050.02 L2505.22 3050.90 L2505.99 3051.89 L2506.87 3053.76 L2509.51 3057.49 L2512.36 3059.25 L2514.89 3062.11 L2515.88 3062.66 L2517.20 3063.10 L2517.86 3063.64 L2518.41 3065.07 L2518.85 3065.84 L2519.40 3067.38 L2520.27 3069.03 L2521.37 3070.02 L2522.25 3071.01 L2523.46 3072.00 L2524.45 3072.76 L2525.55 3073.75 L2526.98 3074.74 L2527.42 3075.51 L2528.41 3076.50 L2528.95 3077.49 L2530.60 3079.03 L2531.15 3080.46 L2532.36 3081.88 L2533.24 3082.65 L2534.12 3083.42 L2536.65 3085.95 L2540.05 3089.47 L2542.69 3092.65 L2544.56 3094.96 L2529.39 3185.50 L2514.23 3276.03 L2512.80 3276.14 L2512.14 3276.03 L2510.94 3276.25 L2509.07 3276.69 L2507.97 3277.13 L2506.10 3277.46 L2504.23 3278.01 L2478.85 3285.37 L2476.98 3285.48 L2476.00 3286.03 L2474.13 3286.36 L2472.48 3286.91 L2471.38 3287.57 L2469.51 3288.01 L2468.52 3288.23 L2467.54 3288.56 L2466.33 3288.67 L2464.90 3289.00 L2463.80 3289.11 L2462.48 3289.33 L2460.61 3289.44 L2458.97 3289.44 L2457.21 3289.00 L2455.67 3288.78 L2453.80 3288.78 L2452.48 3288.89 L2419.63 3283.50 L2416.11 3283.17 L2414.36 3282.85 L2413.37 3282.63 L2411.06 3282.08 L2408.42 3281.20 L2406.34 3280.43 L2403.59 3279.66 L2401.72 3279.11 L2397.88 3278.12 L2394.91 3277.24 L2392.93 3276.47 L2390.51 3276.25 L2388.10 3275.37 L2385.90 3274.71 L2384.03 3274.17 L2382.71 3273.40 L2381.39 3272.96 L2380.41 3273.18 L2361.73 3268.12 L2360.63 3267.79 L2358.87 3267.46 L2357.55 3267.24 L2355.35 3266.91 L2353.82 3266.58 L2350.52 3265.92 L2348.76 3265.49 L2347.66 3265.27 L2346.35 3264.72 L2344.81 3264.17 L2343.27 3263.51 L2342.28 3263.18 L2340.74 3262.41 L2339.53 3262.19 L2338.32 3262.08 L2337.01 3262.19 L2336.13 3262.08 L2335.03 3262.19 L2333.71 3261.97 L2333.05 3262.41 L2331.95 3262.74 L2331.07 3263.40 L2330.30 3263.95 L2329.86 3265.05 L2328.99 3265.59 L2328.55 3265.92 L2320.09 3272.08 L2318.55 3272.85 L2317.12 3273.73 L2315.91 3274.49 L2315.03 3274.93 L2313.93 3275.48 L2313.27 3275.92 L2312.28 3276.58 L2311.08 3277.57 L2309.21 3278.56 L2306.57 3280.43 L2305.25 3280.65 L2303.93 3280.98 L2302.84 3281.31 L2301.41 3281.75 L2300.09 3281.75 L2298.33 3281.53 L2297.12 3281.09 L2295.25 3280.65 L2293.39 3280.10 L2291.74 3279.55 L2290.20 3279.00 L2288.66 3278.12 L2287.23 3278.01 L2285.70 3277.68 L2283.61 3277.02 L2281.08 3276.80 L2278.99 3276.47 L2277.45 3276.58 L2275.81 3276.80 L2273.94 3276.80 L2208.23 3269.77 L2196.81 3268.56 L2195.82 3268.78 L2194.83 3268.78 L2193.73 3268.89 L2192.63 3269.22 L2191.31 3269.11 L2190.11 3269.22 L2189.56 3269.11 L2188.57 3269.33 L2187.58 3269.22 L2185.93 3270.54 L2182.74 3271.75 L2181.43 3271.97 L2180.33 3272.96 L2178.68 3273.40 L2066.61 3246.92 L2066.17 3246.59 L2064.19 3243.95 L2063.53 3243.51 L2062.65 3242.85 L2060.56 3241.97 L2050.79 3250.76 L2045.84 3255.60 L2034.74 3269.11 L2032.77 3271.64 L2032.77 3271.64 Z" stroke-linejoin="round"/>
	</defs>
	<use xlink:href="#path_uNpPsNzf" style="fill:#CEE3E4;stroke:#CEF5F5;stroke-width:5.76"/>
	<defs>
		<path id="path_XAWQePzU" d="M1815.00 2879.71 L1815.00 2879.71 L1815.00 2879.71 L1809.94 2879.71 L1789.51 2874.66 L1783.68 2873.56 L1777.31 2871.80 L1774.56 2870.81 L1768.30 2868.62 L1768.96 2864.88 L1769.62 2860.49 L1769.84 2858.84 L1770.28 2856.31 L1770.61 2854.00 L1771.16 2850.38 L1781.38 2776.87 L1781.49 2775.33 L1782.80 2765.88 L1783.13 2763.58 L1783.46 2760.94 L1784.34 2754.02 L1786.54 2738.63 L1786.65 2737.54 L1786.87 2735.89 L1789.73 2715.01 L1790.94 2705.78 L1792.36 2694.68 L1797.64 2655.24 L1801.15 2628.43 L1801.92 2622.17 L1802.58 2617.33 L1803.02 2613.93 L1803.35 2611.07 L1805.33 2595.80 L1805.88 2592.28 L1806.21 2588.98 L1806.87 2584.70 L1806.98 2583.60 L1807.09 2582.61 L1807.31 2581.62 L1807.31 2580.96 L1807.42 2580.30 L1809.28 2564.15 L1810.38 2555.91 L1811.26 2548.66 L1812.03 2542.95 L1812.25 2541.41 L1812.47 2539.43 L1813.24 2534.05 L1813.35 2532.95 L1814.45 2525.04 L1816.10 2513.06 L1816.43 2509.55 L1817.31 2503.28 L1817.96 2498.56 L1818.73 2492.73 L1819.28 2488.12 L1819.94 2483.18 L1820.27 2481.31 L1821.37 2473.07 L1823.90 2453.95 L1824.12 2452.52 L1824.67 2448.23 L1825.33 2442.96 L1825.44 2442.30 L1826.31 2436.26 L1827.30 2429.67 L1827.63 2426.26 L1828.18 2422.30 L1828.73 2417.91 L1829.17 2415.27 L1829.39 2412.86 L1830.05 2408.46 L1830.27 2406.92 L1830.38 2406.04 L1830.82 2402.75 L1831.37 2396.81 L1832.03 2392.97 L1833.13 2385.83 L1834.67 2373.30 L1834.88 2371.87 L1836.42 2359.57 L1836.86 2356.49 L1838.07 2347.48 L1839.17 2337.15 L1840.16 2329.90 L1840.38 2328.25 L1841.92 2316.60 L1842.36 2313.31 L1842.47 2311.99 L1842.91 2309.02 L1843.35 2304.96 L1843.45 2304.30 L1844.33 2297.38 L1844.99 2292.32 L1846.75 2278.81 L1848.07 2270.35 L1849.17 2259.36 L1851.26 2244.75 L1851.81 2241.34 L1852.24 2238.81 L1852.46 2236.07 L1852.57 2233.76 L1852.79 2232.99 L1852.90 2232.66 L1853.23 2231.89 L1854.88 2230.13 L1856.75 2228.59 L1858.40 2227.39 L1860.05 2225.85 L1862.02 2223.87 L1864.77 2220.79 L1867.08 2217.94 L1869.93 2214.64 L1872.13 2211.78 L1874.11 2209.15 L1875.43 2207.39 L1876.53 2206.18 L1877.19 2205.63 L1877.85 2205.19 L1878.61 2204.75 L1879.71 2204.53 L1883.34 2204.20 L1887.40 2203.43 L1887.84 2203.32 L1888.39 2202.99 L1888.83 2202.44 L1889.16 2201.89 L1889.49 2201.24 L1889.60 2200.47 L1889.82 2199.70 L1889.93 2199.04 L1890.04 2198.49 L1890.04 2197.94 L1889.93 2197.17 L1889.82 2196.18 L1889.71 2194.97 L1889.60 2193.65 L1889.49 2192.56 L1889.49 2191.35 L1889.60 2190.25 L1889.71 2189.26 L1889.93 2188.60 L1890.26 2187.83 L1890.59 2187.17 L1891.25 2186.18 L1892.35 2184.97 L1893.45 2183.55 L1894.66 2182.34 L1899.93 2176.07 L1901.25 2174.43 L1902.79 2172.34 L1903.56 2170.91 L1905.31 2168.05 L1906.96 2165.20 L1907.62 2164.32 L1908.28 2163.88 L1909.71 2163.44 L1916.63 2161.24 L1917.73 2161.24 L1919.16 2161.35 L1926.52 2162.34 L1929.71 2162.67 L1934.43 2163.44 L1955.31 2166.30 L1955.53 2164.65 L1956.40 2149.37 L1956.84 2141.46 L1956.73 2139.60 L1954.98 2136.19 L1951.35 2126.96 L1945.75 2113.78 L1943.11 2108.39 L1943.11 2108.17 L1942.78 2105.75 L1943.22 2104.00 L1944.32 2102.35 L1947.72 2099.38 L1948.82 2099.27 L1949.48 2099.38 L1950.25 2099.71 L1952.45 2100.92 L1953.99 2101.36 L1954.65 2101.58 L1956.18 2102.46 L1958.93 2104.00 L1959.70 2104.55 L1963.66 2107.62 L1964.97 2108.39 L1966.51 2109.60 L1969.59 2111.47 L1970.58 2112.57 L1971.35 2112.68 L1971.90 2112.35 L1972.12 2112.24 L1972.67 2111.91 L1973.00 2111.58 L1973.33 2111.14 L1973.65 2110.70 L1974.31 2109.60 L1974.86 2108.06 L1975.30 2106.74 L1977.06 2098.72 L1976.73 2097.84 L1976.62 2096.96 L1976.51 2095.65 L1977.39 2092.46 L1977.50 2090.70 L1977.39 2090.48 L1975.85 2087.19 L1975.19 2086.42 L1974.09 2085.65 L1972.89 2084.33 L1970.69 2082.90 L1970.25 2082.68 L1970.14 2082.46 L1969.26 2081.58 L1968.27 2079.93 L1966.40 2077.63 L1965.52 2076.42 L1964.32 2075.32 L1962.12 2073.34 L1960.80 2072.46 L1959.70 2071.69 L1958.82 2070.70 L1957.72 2068.29 L1957.61 2067.96 L1957.61 2067.30 L1957.72 2066.64 L1957.72 2065.98 L1957.83 2065.10 L1958.05 2064.22 L1957.72 2063.56 L1957.39 2063.12 L1957.06 2062.24 L1956.51 2061.04 L1956.08 2059.50 L1955.64 2058.29 L1954.98 2056.75 L1954.65 2054.44 L1954.76 2054.22 L1955.20 2053.01 L1956.18 2050.38 L1955.97 2048.73 L1955.75 2048.51 L1955.20 2047.96 L1954.76 2047.63 L1954.54 2047.41 L1953.88 2046.97 L1953.66 2046.75 L1952.56 2045.54 L1952.45 2043.02 L1954.10 2039.72 L1955.31 2036.09 L1955.64 2032.14 L1956.29 2029.94 L1956.29 2025.77 L1956.40 2025.11 L1956.62 2024.01 L1957.17 2023.24 L1957.72 2022.47 L1958.27 2022.14 L1958.93 2021.59 L1959.48 2021.26 L1960.03 2020.71 L1960.47 2020.16 L1961.57 2016.54 L1961.68 2016.32 L1962.34 2015.22 L1963.00 2014.34 L1963.55 2013.79 L1963.77 2013.46 L1964.10 2012.36 L1964.21 2012.03 L1965.41 2009.17 L1965.96 2007.31 L1969.48 2005.66 L1970.47 2004.23 L1971.79 2002.80 L1973.65 2000.93 L1974.97 1997.97 L1976.51 1996.10 L1977.72 1994.89 L1978.05 1994.12 L1978.49 1992.80 L1979.26 1991.92 L1979.92 1991.04 L1980.58 1989.95 L1980.80 1989.73 L1980.80 1989.51 L1981.24 1988.85 L1981.68 1987.75 L1981.24 1981.49 L1982.22 1976.10 L1982.99 1974.67 L1985.85 1973.03 L1986.29 1971.60 L1988.93 1970.06 L1988.93 1969.95 L1989.70 1968.96 L1989.92 1968.63 L1989.92 1968.41 L1989.92 1968.08 L1990.36 1967.75 L1990.58 1967.53 L1991.01 1967.20 L1991.45 1966.87 L1992.66 1965.88 L1994.53 1963.25 L1994.75 1962.81 L1996.40 1959.18 L1997.17 1956.54 L1997.50 1955.99 L1998.82 1954.46 L2000.68 1952.70 L2001.89 1951.71 L2004.86 1945.56 L2004.86 1945.01 L2004.53 1942.48 L2006.51 1944.24 L2011.67 1946.33 L2016.62 1948.52 L2022.99 1946.33 L2027.82 1944.68 L2032.22 1943.69 L2041.45 1944.90 L2044.96 1944.02 L2051.45 1938.85 L2055.29 1931.05 L2055.51 1930.50 L2059.03 1928.53 L2067.60 1923.91 L2071.88 1923.69 L2076.39 1924.57 L2085.07 1931.27 L2088.03 1938.96 L2090.78 1943.25 L2092.65 1950.06 L2101.99 1946.66 L2106.82 1943.58 L2110.34 1939.40 L2123.30 1923.03 L2126.82 1917.32 L2135.06 1899.74 L2145.50 1884.80 L2156.15 1865.02 L2165.16 1845.57 L2164.50 1834.91 L2165.38 1831.62 L2167.80 1828.87 L2174.61 1817.88 L2178.90 1816.12 L2184.06 1817.00 L2191.09 1814.15 L2196.59 1807.55 L2200.43 1806.02 L2205.16 1805.58 L2209.22 1798.87 L2215.71 1796.68 L2219.44 1792.72 L2244.16 1768.66 L2247.46 1760.75 L2250.21 1749.21 L2254.05 1737.34 L2263.72 1716.14 L2270.86 1707.24 L2279.98 1699.33 L2282.84 1696.36 L2285.04 1685.04 L2288.77 1681.20 L2299.21 1677.46 L2302.51 1676.25 L2366.12 1648.67 L2366.23 1657.90 L2366.89 1664.50 L2369.42 1668.23 L2373.15 1672.52 L2380.41 1677.24 L2386.34 1680.65 L2392.27 1685.37 L2395.90 1688.45 L2397.88 1693.83 L2399.19 1695.92 L2401.39 1703.94 L2401.39 1714.27 L2402.71 1723.17 L2406.23 1728.88 L2410.40 1733.17 L2413.70 1737.78 L2416.66 1740.97 L2422.82 1748.66 L2429.63 1753.61 L2439.52 1757.89 L2447.32 1764.59 L2456.00 1769.54 L2467.87 1780.63 L2480.94 1792.50 L2490.39 1802.94 L2494.45 1809.31 L2501.38 1815.68 L2507.97 1820.52 L2518.30 1829.20 L2531.04 1840.74 L2542.58 1852.71 L2554.99 1864.91 L2563.89 1880.07 L2573.12 1894.79 L2578.73 1903.36 L2586.64 1913.91 L2595.98 1922.04 L2600.15 1932.92 L2616.63 1948.74 L2626.63 1955.78 L2641.68 1969.73 L2650.04 1976.98 L2657.95 1985.00 L2662.78 1993.24 L2670.58 2002.80 L2677.83 2010.82 L2684.10 2018.51 L2688.05 2027.41 L2689.15 2038.62 L2687.06 2046.97 L2683.99 2059.39 L2681.24 2065.87 L2680.36 2074.22 L2680.69 2083.56 L2679.92 2094.11 L2682.78 2109.82 L2690.14 2114.87 L2699.04 2117.62 L2707.39 2118.72 L2716.07 2118.28 L2720.57 2116.41 L2725.41 2115.42 L2735.19 2112.90 L2740.46 2110.48 L2746.72 2106.85 L2753.10 2103.78 L2757.93 2103.34 L2765.95 2100.48 L2774.52 2097.62 L2779.80 2095.98 L2785.29 2095.10 L2793.86 2096.31 L2800.12 2095.65 L2802.43 2097.07 L2807.37 2097.73 L2817.48 2096.41 L2823.42 2098.72 L2828.69 2099.49 L2835.61 2099.82 L2838.91 2100.59 L2843.85 2101.91 L2845.06 2126.96 L2851.76 2188.82 L2847.37 2193.54 L2847.04 2195.41 L2846.71 2196.84 L2846.71 2200.36 L2847.70 2209.15 L2821.66 2214.31 L2820.34 2212.33 L2793.75 2218.05 L2793.20 2220.02 L2698.82 2238.59 L2698.38 2238.70 L2622.35 2254.74 L2574.44 2264.85 L2567.74 2266.28 L2566.53 2265.29 L2561.70 2258.04 L2557.74 2251.12 L2557.30 2249.36 L2557.08 2246.39 L2556.42 2246.39 L2507.75 2217.50 L2437.65 2175.74 L2393.59 2149.37 L2385.90 2144.76 L2385.35 2149.92 L2383.92 2168.16 L2383.26 2176.51 L2384.03 2179.70 L2384.47 2183.33 L2384.25 2204.86 L2383.48 2212.22 L2383.15 2214.53 L2381.72 2233.98 L2380.41 2247.71 L2378.21 2262.66 L2377.00 2274.30 L2376.67 2279.69 L2376.67 2290.12 L2376.89 2291.88 L2376.23 2293.09 L2375.68 2293.97 L2374.91 2295.40 L2374.25 2296.61 L2373.70 2298.04 L2373.15 2299.79 L2372.93 2301.11 L2372.71 2302.10 L2372.60 2303.20 L2372.50 2304.30 L2371.07 2305.07 L2360.41 2310.34 L2357.33 2311.77 L2354.15 2313.09 L2350.74 2314.41 L2348.10 2315.40 L2344.92 2316.49 L2342.39 2317.15 L2339.53 2317.81 L2336.68 2318.36 L2333.71 2318.69 L2330.74 2319.02 L2327.89 2319.13 L2324.92 2319.13 L2322.06 2319.02 L2319.10 2318.69 L2316.24 2318.36 L2314.15 2318.03 L2311.63 2317.48 L2309.32 2317.04 L2307.34 2316.49 L2305.25 2315.84 L2304.81 2315.73 L2301.74 2314.63 L2287.34 2309.02 L2286.57 2310.12 L2285.80 2311.11 L2283.72 2315.07 L2275.81 2313.42 L2275.92 2318.25 L2274.16 2336.93 L2273.28 2341.77 L2272.73 2344.40 L2271.41 2349.13 L2271.85 2349.24 L2272.07 2349.35 L2272.18 2349.46 L2272.29 2349.57 L2272.40 2349.79 L2272.51 2350.12 L2272.62 2350.78 L2272.40 2352.53 L2270.09 2370.22 L2269.65 2374.07 L2269.54 2375.28 L2268.66 2380.66 L2268.23 2385.06 L2267.57 2389.89 L2266.69 2396.81 L2265.48 2405.82 L2264.60 2412.42 L2262.51 2429.12 L2258.56 2459.00 L2258.12 2462.41 L2258.12 2462.96 L2258.23 2464.39 L2258.45 2465.16 L2258.23 2466.03 L2258.01 2466.69 L2257.57 2467.79 L2257.35 2468.34 L2257.02 2468.89 L2256.47 2469.55 L2256.14 2469.99 L2255.59 2470.98 L2254.60 2471.86 L2254.05 2472.30 L2253.94 2472.52 L2255.26 2479.00 L2255.92 2480.54 L2256.36 2481.42 L2256.25 2483.07 L2257.35 2484.49 L2256.69 2484.93 L2255.59 2485.70 L2255.04 2486.69 L2254.16 2488.12 L2253.72 2488.78 L2253.50 2489.33 L2253.39 2489.88 L2253.17 2493.06 L2254.49 2494.71 L2253.83 2496.36 L2253.61 2498.45 L2252.62 2504.71 L2251.52 2513.50 L2251.30 2514.38 L2249.11 2520.53 L2248.01 2522.62 L2250.43 2523.28 L2249.44 2528.55 L2249.00 2532.29 L2248.56 2535.70 L2247.35 2544.70 L2247.35 2544.81 L2245.81 2555.91 L2244.60 2564.48 L2244.16 2567.23 L2244.49 2568.66 L2244.27 2569.98 L2241.97 2587.23 L2241.75 2589.75 L2241.64 2590.74 L2241.20 2593.71 L2241.20 2594.04 L2239.66 2607.44 L2238.67 2616.34 L2236.91 2630.41 L2235.59 2641.07 L2234.49 2647.77 L2230.76 2668.20 L2230.43 2670.62 L2228.89 2680.29 L2227.13 2692.27 L2226.47 2699.08 L2226.14 2701.39 L2225.81 2707.21 L2225.37 2711.06 L2223.73 2722.81 L2222.52 2729.19 L2220.21 2747.97 L2219.99 2749.62 L2219.77 2751.38 L2219.33 2754.02 L2212.41 2805.44 L2212.08 2807.75 L2210.65 2818.40 L2209.77 2824.89 L2208.45 2834.12 L2208.01 2837.74 L2207.58 2840.82 L2202.74 2841.81 L2199.88 2842.03 L2191.53 2842.03 L2187.80 2842.36 L2181.54 2843.02 L2162.53 2840.38 L2151.65 2836.86 L2148.35 2836.09 L2145.28 2835.10 L2138.25 2831.48 L2116.93 2820.38 L2113.30 2817.96 L2111.77 2816.65 L2108.58 2812.69 L2102.10 2807.97 L2100.56 2807.86 L2099.90 2808.19 L2100.01 2808.95 L2104.62 2811.70 L2104.84 2812.03 L2104.95 2812.36 L2104.95 2812.58 L2104.84 2812.80 L2104.29 2812.91 L2103.74 2812.80 L2099.02 2811.15 L2095.72 2808.30 L2094.30 2807.86 L2093.31 2807.97 L2091.55 2807.53 L2090.45 2807.09 L2088.25 2806.21 L2086.27 2805.11 L2084.96 2804.78 L2082.21 2804.78 L2080.89 2804.34 L2079.35 2804.23 L2077.38 2803.46 L2075.62 2803.24 L2074.08 2803.13 L2071.77 2802.58 L2069.24 2801.92 L2067.93 2801.81 L2066.17 2801.48 L2064.30 2801.37 L2062.43 2801.81 L2061.22 2802.14 L2059.58 2802.80 L2058.37 2802.91 L2052.65 2803.35 L2045.07 2804.23 L2040.57 2805.22 L2032.55 2807.64 L2028.04 2810.38 L2023.21 2813.68 L2017.82 2819.83 L2017.49 2820.05 L2011.78 2824.89 L2002.77 2829.61 L1994.75 2832.25 L1988.16 2834.88 L1979.92 2835.54 L1975.08 2834.99 L1973.33 2828.40 L1950.36 2825.33 L1940.25 2821.59 L1939.48 2824.23 L1926.85 2824.01 L1914.87 2825.77 L1907.62 2827.96 L1899.16 2831.48 L1889.38 2848.18 L1885.65 2867.85 L1879.49 2871.91 L1861.25 2873.12 L1837.74 2875.65 L1820.27 2878.83 L1815.00 2879.71 L1815.00 2879.71 Z" stroke-linejoin="round"/>
	</defs>
	<use xlink:href="#path_XAWQePzU" style="fill:#CEE3E4;stroke:#CEF5F5;stroke-width:5.76"/>
	<defs>
		<path id="path_ZsyyIRQr" d="M1771.16 2850.38 L1771.16 2850.38 L1770.61 2854.00 L1768.74 2853.12 L1748.19 2842.47 L1726.22 2825.88 L1720.84 2821.92 L1716.22 2818.40 L1704.47 2809.61 L1700.18 2806.43 L1697.98 2804.78 L1689.08 2800.16 L1687.87 2799.61 L1684.03 2797.97 L1680.07 2796.32 L1657.55 2798.63 L1649.75 2798.08 L1639.31 2791.26 L1635.03 2788.52 L1632.17 2786.65 L1613.49 2775.88 L1593.60 2764.45 L1590.42 2763.58 L1577.67 2759.95 L1573.39 2758.74 L1569.76 2758.96 L1568.99 2758.96 L1551.30 2760.28 L1546.58 2760.50 L1533.39 2759.62 L1529.11 2759.29 L1506.69 2765.44 L1489.44 2763.03 L1474.61 2756.21 L1464.72 2759.51 L1453.73 2752.70 L1411.54 2755.66 L1410.77 2755.77 L1409.57 2755.45 L1407.59 2754.24 L1405.06 2751.93 L1403.41 2749.40 L1402.53 2748.08 L1401.21 2746.11 L1399.46 2744.02 L1397.92 2741.82 L1396.38 2739.18 L1394.84 2736.55 L1393.63 2734.02 L1393.19 2733.25 L1392.64 2732.59 L1391.88 2730.94 L1385.83 2721.38 L1382.10 2717.65 L1380.89 2720.18 L1379.68 2722.37 L1378.69 2724.13 L1377.81 2725.67 L1377.04 2727.10 L1375.28 2726.00 L1371.88 2724.24 L1356.39 2716.55 L1336.94 2705.34 L1316.39 2688.09 L1313.98 2684.25 L1311.78 2674.25 L1311.12 2663.26 L1312.66 2657.11 L1312.66 2652.71 L1310.79 2644.03 L1308.37 2629.42 L1308.15 2628.54 L1306.83 2625.35 L1303.21 2617.11 L1298.04 2598.98 L1292.77 2587.23 L1287.94 2581.84 L1287.17 2577.67 L1286.40 2575.80 L1285.63 2572.72 L1282.55 2564.04 L1279.80 2557.67 L1277.72 2552.95 L1276.73 2550.64 L1271.12 2537.78 L1258.93 2508.56 L1256.84 2503.72 L1248.93 2484.60 L1241.46 2466.91 L1240.14 2463.84 L1238.16 2456.15 L1229.15 2428.79 L1236.29 2430.98 L1237.72 2431.42 L1238.93 2431.97 L1239.37 2429.23 L1239.81 2425.60 L1239.81 2421.43 L1241.68 2419.56 L1243.22 2418.68 L1244.10 2418.24 L1241.90 2414.61 L1239.70 2411.21 L1237.28 2408.13 L1238.49 2406.81 L1241.02 2405.05 L1243.11 2407.25 L1244.76 2409.78 L1246.40 2413.29 L1247.50 2414.83 L1248.38 2415.60 L1249.59 2416.26 L1250.69 2416.59 L1264.09 2418.57 L1273.10 2419.67 L1274.64 2419.89 L1275.19 2415.82 L1279.04 2418.24 L1283.87 2422.19 L1282.22 2422.41 L1283.32 2424.28 L1283.65 2425.60 L1283.65 2427.14 L1282.22 2437.58 L1289.69 2439.33 L1289.47 2445.27 L1290.46 2448.12 L1291.12 2449.88 L1292.00 2451.09 L1294.53 2452.96 L1296.29 2453.73 L1296.73 2453.84 L1302.33 2454.61 L1302.88 2454.61 L1306.17 2454.94 L1310.68 2455.49 L1314.96 2456.26 L1318.26 2453.73 L1318.92 2454.61 L1320.02 2456.15 L1321.56 2458.67 L1323.86 2461.64 L1324.96 2463.62 L1327.05 2466.69 L1329.91 2470.65 L1330.68 2471.75 L1333.53 2475.70 L1340.13 2485.48 L1343.09 2489.55 L1344.08 2490.76 L1349.90 2499.00 L1350.89 2500.54 L1353.75 2505.81 L1356.17 2511.30 L1358.03 2515.59 L1365.95 2534.49 L1370.45 2545.25 L1371.00 2546.79 L1373.31 2552.29 L1373.64 2553.06 L1373.86 2553.71 L1374.08 2554.59 L1374.63 2553.28 L1375.39 2553.39 L1376.71 2544.92 L1376.93 2542.18 L1377.26 2538.55 L1377.37 2537.01 L1378.14 2531.52 L1378.80 2526.25 L1379.24 2523.28 L1379.79 2520.09 L1381.11 2508.01 L1382.87 2497.24 L1383.53 2492.29 L1384.18 2486.80 L1385.61 2476.25 L1367.81 2473.84 L1364.19 2473.40 L1360.12 2472.63 L1357.38 2472.30 L1355.07 2472.08 L1351.55 2471.53 L1346.61 2470.87 L1340.67 2469.99 L1339.47 2469.77 L1339.03 2469.11 L1337.60 2466.80 L1336.94 2465.81 L1335.95 2464.61 L1333.53 2461.53 L1330.79 2458.56 L1328.81 2456.81 L1325.95 2454.06 L1329.69 2456.59 L1333.64 2459.22 L1334.74 2458.78 L1335.62 2458.67 L1337.27 2459.00 L1338.37 2459.33 L1339.80 2459.99 L1341.44 2460.87 L1342.87 2461.53 L1344.74 2462.52 L1347.38 2463.73 L1350.01 2464.83 L1353.53 2466.03 L1355.73 2466.69 L1357.70 2467.35 L1359.35 2467.79 L1360.01 2468.34 L1360.23 2469.44 L1360.34 2469.99 L1360.45 2470.65 L1364.08 2471.75 L1368.36 2472.52 L1369.02 2472.63 L1385.83 2474.82 L1387.59 2461.09 L1388.25 2455.60 L1388.91 2446.26 L1389.02 2445.27 L1390.45 2436.15 L1390.56 2435.27 L1391.66 2425.60 L1391.99 2423.62 L1393.08 2414.94 L1394.40 2405.71 L1395.83 2395.17 L1397.15 2387.58 L1397.48 2385.17 L1398.03 2381.76 L1399.13 2373.74 L1400.99 2361.10 L1401.87 2355.39 L1402.64 2349.24 L1404.62 2332.54 L1404.40 2331.77 L1404.51 2328.69 L1405.50 2322.76 L1405.94 2315.95 L1406.05 2314.96 L1406.71 2314.96 L1407.26 2315.07 L1411.10 2315.62 L1417.04 2316.27 L1421.65 2316.71 L1449.45 2320.78 L1453.73 2321.44 L1477.69 2324.74 L1478.13 2324.85 L1478.68 2324.85 L1480.43 2325.06 L1481.09 2325.72 L1487.69 2326.60 L1496.15 2327.59 L1496.91 2327.26 L1499.99 2327.59 L1503.95 2328.14 L1506.25 2328.25 L1513.94 2329.24 L1523.83 2330.67 L1524.38 2330.78 L1526.25 2331.11 L1528.45 2331.22 L1549.21 2334.07 L1570.31 2337.15 L1581.19 2338.69 L1581.52 2338.80 L1582.40 2338.80 L1584.04 2339.02 L1584.92 2339.13 L1603.82 2341.77 L1617.56 2343.63 L1620.74 2343.96 L1623.27 2344.29 L1633.60 2345.83 L1645.13 2347.37 L1652.17 2348.25 L1666.01 2349.79 L1666.56 2349.90 L1670.18 2350.34 L1671.83 2350.56 L1680.18 2351.76 L1686.67 2352.64 L1692.27 2353.41 L1697.32 2354.18 L1702.71 2354.84 L1710.73 2355.94 L1728.53 2358.47 L1748.08 2361.10 L1763.25 2363.08 L1773.80 2364.40 L1774.89 2364.73 L1778.30 2365.17 L1780.61 2365.50 L1789.95 2366.71 L1805.22 2368.69 L1805.55 2368.80 L1816.43 2370.22 L1817.63 2370.33 L1823.24 2370.88 L1826.75 2371.43 L1826.97 2371.54 L1827.85 2372.31 L1828.95 2372.42 L1831.59 2372.86 L1834.34 2373.19 L1834.67 2373.30 L1833.13 2385.83 L1832.03 2392.97 L1831.37 2396.81 L1830.82 2402.75 L1830.38 2406.04 L1830.27 2406.92 L1830.05 2408.46 L1829.39 2412.86 L1829.17 2415.27 L1828.73 2417.91 L1828.18 2422.30 L1827.63 2426.26 L1827.30 2429.67 L1826.31 2436.26 L1825.44 2442.30 L1825.33 2442.96 L1824.67 2448.23 L1824.12 2452.52 L1823.90 2453.95 L1821.37 2473.07 L1820.27 2481.31 L1819.94 2483.18 L1819.28 2488.12 L1818.73 2492.73 L1817.96 2498.56 L1817.31 2503.28 L1816.43 2509.55 L1816.10 2513.06 L1814.45 2525.04 L1813.35 2532.95 L1813.24 2534.05 L1812.47 2539.43 L1812.25 2541.41 L1812.03 2542.95 L1811.26 2548.66 L1810.38 2555.91 L1809.28 2564.15 L1807.42 2580.30 L1807.31 2580.96 L1807.31 2581.62 L1807.09 2582.61 L1806.98 2583.60 L1806.87 2584.70 L1806.21 2588.98 L1805.88 2592.28 L1805.33 2595.80 L1803.35 2611.07 L1803.02 2613.93 L1802.58 2617.33 L1801.92 2622.17 L1801.15 2628.43 L1797.64 2655.24 L1792.36 2694.68 L1790.94 2705.78 L1789.73 2715.01 L1786.87 2735.89 L1786.65 2737.54 L1786.54 2738.63 L1784.34 2754.02 L1783.46 2760.94 L1783.13 2763.58 L1782.80 2765.88 L1781.49 2775.33 L1781.38 2776.87 L1771.16 2850.38 L1771.16 2850.38 Z" stroke-linejoin="round"/>
	</defs>
	<use xlink:href="#path_ZsyyIRQr" style="fill:#9DC8CA;stroke:#9DD7F0;stroke-width:5.76"/>
	<defs>
		<path id="path_mrwgiSNO" d="M1834.67 2373.30 L1834.67 2373.30 L1834.34 2373.19 L1831.59 2372.86 L1828.95 2372.42 L1827.85 2372.31 L1826.97 2371.54 L1826.75 2371.43 L1823.24 2370.88 L1817.63 2370.33 L1816.43 2370.22 L1805.55 2368.80 L1805.22 2368.69 L1789.95 2366.71 L1780.61 2365.50 L1778.30 2365.17 L1774.89 2364.73 L1773.80 2364.40 L1763.25 2363.08 L1748.08 2361.10 L1728.53 2358.47 L1710.73 2355.94 L1702.71 2354.84 L1697.32 2354.18 L1692.27 2353.41 L1686.67 2352.64 L1680.18 2351.76 L1671.83 2350.56 L1670.18 2350.34 L1666.56 2349.90 L1666.01 2349.79 L1652.17 2348.25 L1645.13 2347.37 L1633.60 2345.83 L1623.27 2344.29 L1620.74 2343.96 L1617.56 2343.63 L1603.82 2341.77 L1584.92 2339.13 L1584.04 2339.02 L1582.40 2338.80 L1581.52 2338.80 L1581.19 2338.69 L1570.31 2337.15 L1549.21 2334.07 L1528.45 2331.22 L1526.25 2331.11 L1524.38 2330.78 L1523.83 2330.67 L1513.94 2329.24 L1506.25 2328.25 L1503.95 2328.14 L1499.99 2327.59 L1496.91 2327.26 L1496.15 2327.59 L1487.69 2326.60 L1481.09 2325.72 L1480.43 2325.06 L1478.68 2324.85 L1478.13 2324.85 L1477.69 2324.74 L1453.73 2321.44 L1449.45 2320.78 L1421.65 2316.71 L1417.04 2316.27 L1411.10 2315.62 L1407.26 2315.07 L1406.71 2314.96 L1406.05 2314.96 L1406.38 2312.76 L1406.93 2309.46 L1407.59 2308.58 L1408.03 2306.50 L1408.36 2304.08 L1409.24 2297.71 L1411.10 2283.75 L1411.76 2279.36 L1412.97 2270.02 L1414.84 2256.06 L1415.17 2253.87 L1417.59 2235.30 L1420.99 2209.48 L1421.21 2208.49 L1422.75 2197.72 L1423.08 2194.64 L1424.07 2187.83 L1425.39 2177.94 L1427.36 2161.57 L1427.91 2156.96 L1428.13 2154.43 L1428.35 2152.67 L1430.77 2134.87 L1438.02 2080.92 L1440.66 2062.46 L1440.77 2061.47 L1440.88 2060.60 L1441.54 2056.53 L1441.65 2055.21 L1442.42 2048.73 L1442.75 2046.20 L1444.07 2036.53 L1445.05 2028.40 L1445.38 2026.97 L1445.71 2024.45 L1446.15 2020.60 L1449.01 2000.82 L1449.89 1993.90 L1451.43 1981.05 L1455.60 1945.78 L1456.48 1938.96 L1460.88 1907.32 L1465.49 1873.81 L1466.70 1866.45 L1470.65 1835.90 L1470.98 1832.82 L1472.19 1822.94 L1473.40 1814.59 L1477.91 1780.96 L1481.20 1755.03 L1481.75 1750.31 L1482.41 1744.71 L1482.63 1743.17 L1481.86 1743.17 L1471.86 1744.27 L1463.07 1746.02 L1453.40 1748.33 L1449.78 1748.55 L1440.00 1750.09 L1433.63 1750.20 L1431.76 1749.10 L1430.11 1746.46 L1429.23 1742.07 L1428.90 1740.31 L1427.80 1732.51 L1426.93 1725.37 L1426.38 1719.54 L1430.88 1713.50 L1436.04 1707.90 L1438.35 1704.38 L1442.75 1702.40 L1447.14 1699.55 L1451.21 1695.26 L1453.84 1691.42 L1453.18 1688.78 L1453.07 1685.15 L1451.21 1679.77 L1448.90 1674.71 L1443.41 1670.43 L1436.48 1666.25 L1430.66 1662.63 L1425.28 1659.66 L1421.65 1659.00 L1416.27 1658.56 L1409.24 1658.67 L1405.94 1660.10 L1403.63 1661.20 L1400.01 1664.28 L1393.74 1669.44 L1389.13 1669.00 L1385.17 1666.58 L1381.22 1662.52 L1377.70 1658.67 L1375.72 1655.93 L1373.86 1653.07 L1388.03 1644.17 L1389.46 1643.07 L1390.89 1641.86 L1392.10 1640.65 L1392.97 1639.44 L1394.95 1636.37 L1408.36 1613.29 L1428.02 1576.93 L1431.98 1569.34 L1434.29 1565.61 L1435.39 1563.85 L1446.26 1550.56 L1450.11 1546.49 L1452.64 1544.40 L1457.91 1541.33 L1460.77 1539.24 L1462.30 1537.81 L1463.07 1536.93 L1468.24 1528.14 L1474.39 1517.81 L1480.76 1505.51 L1487.03 1490.23 L1489.33 1483.09 L1489.99 1480.57 L1491.09 1478.37 L1492.30 1476.28 L1493.51 1474.63 L1494.83 1471.89 L1495.27 1469.47 L1494.50 1463.86 L1494.61 1462.88 L1494.83 1461.89 L1495.05 1461.45 L1501.97 1450.79 L1504.39 1447.82 L1508.23 1443.65 L1509.66 1442.11 L1511.64 1439.58 L1513.07 1437.38 L1513.29 1436.84 L1514.60 1435.19 L1516.47 1433.65 L1518.23 1432.66 L1531.85 1426.62 L1533.06 1425.85 L1533.72 1425.30 L1534.49 1424.42 L1535.15 1423.10 L1536.69 1419.04 L1538.23 1415.63 L1539.44 1413.54 L1540.75 1411.67 L1541.85 1410.36 L1542.62 1409.48 L1544.49 1407.94 L1546.36 1406.84 L1549.87 1405.96 L1550.86 1405.30 L1557.89 1397.94 L1558.55 1396.73 L1561.63 1391.46 L1568.44 1380.58 L1583.82 1357.07 L1585.69 1353.33 L1586.79 1350.91 L1589.10 1344.10 L1590.42 1341.13 L1591.41 1339.27 L1592.61 1337.51 L1594.48 1335.31 L1606.13 1324.10 L1611.40 1318.72 L1615.91 1314.98 L1635.24 1302.02 L1643.71 1297.07 L1645.02 1296.09 L1646.89 1294.44 L1649.86 1291.03 L1653.59 1285.43 L1660.30 1277.96 L1661.94 1275.87 L1670.40 1265.21 L1671.39 1264.33 L1672.05 1263.89 L1672.71 1263.45 L1685.46 1258.40 L1703.59 1250.16 L1730.83 1238.84 L1742.92 1234.34 L1746.66 1232.36 L1749.84 1230.93 L1751.27 1230.60 L1752.70 1231.04 L1754.24 1231.37 L1755.34 1231.48 L1757.09 1231.26 L1758.30 1231.04 L1761.49 1230.49 L1764.46 1229.50 L1767.53 1228.40 L1769.51 1227.41 L1789.84 1216.32 L1793.02 1214.45 L1815.33 1198.52 L1832.14 1185.44 L1834.67 1183.02 L1839.28 1177.64 L1840.05 1176.32 L1841.04 1173.79 L1842.14 1171.27 L1844.44 1168.08 L1851.59 1161.16 L1854.11 1158.52 L1859.28 1153.25 L1867.85 1146.33 L1869.93 1143.80 L1872.02 1141.60 L1873.34 1140.61 L1878.94 1136.99 L1881.91 1133.91 L1884.11 1132.48 L1884.66 1131.05 L1884.66 1130.61 L1884.77 1129.51 L1884.99 1128.42 L1885.43 1127.54 L1886.20 1126.88 L1887.40 1126.55 L1888.72 1126.00 L1891.03 1124.57 L1891.69 1124.02 L1893.12 1122.15 L1894.77 1118.75 L1895.53 1117.87 L1896.96 1116.88 L1898.39 1116.11 L1900.04 1115.56 L1900.48 1115.45 L1901.25 1115.01 L1902.79 1113.03 L1905.53 1110.51 L1906.41 1109.08 L1909.93 1102.16 L1910.81 1100.95 L1921.03 1086.00 L1938.28 1056.45 L1956.62 1023.16 L1961.68 1013.60 L1972.89 993.27 L1974.53 990.85 L1975.08 990.19 L1977.50 988.22 L1988.60 979.65 L1991.45 977.23 L1999.37 971.30 L2000.90 970.53 L2002.33 969.76 L2003.43 969.10 L2003.98 968.44 L2006.07 965.58 L2006.95 964.59 L2007.83 964.04 L2010.79 962.29 L2012.11 961.19 L2016.62 957.67 L2020.35 954.92 L2023.10 952.62 L2026.17 950.09 L2029.03 947.78 L2032.33 945.47 L2035.84 943.28 L2037.49 942.40 L2041.23 940.86 L2043.20 939.43 L2044.74 938.00 L2045.29 937.67 L2045.73 937.56 L2046.28 937.56 L2047.38 938.11 L2048.48 938.33 L2049.25 938.33 L2050.68 937.78 L2052.32 936.57 L2054.30 934.93 L2057.71 932.95 L2059.69 931.30 L2060.34 930.42 L2061.55 927.67 L2062.54 926.47 L2064.41 925.15 L2069.24 922.62 L2070.56 921.52 L2071.11 920.75 L2072.10 918.34 L2072.43 917.90 L2072.76 917.57 L2076.72 915.26 L2077.92 914.93 L2078.80 914.93 L2082.32 915.26 L2082.87 915.04 L2083.53 914.60 L2088.03 910.64 L2090.12 908.01 L2091.00 907.13 L2091.77 897.02 L2091.22 893.06 L2091.66 890.10 L2093.31 885.37 L2094.41 881.64 L2093.86 878.23 L2092.65 874.61 L2092.54 870.76 L2092.87 864.50 L2094.41 848.56 L2096.49 840.65 L2100.34 833.29 L2102.43 826.04 L2103.74 820.55 L2103.20 807.36 L2105.72 809.01 L2110.78 817.03 L2116.49 816.04 L2121.43 815.49 L2125.39 815.27 L2131.43 815.60 L2134.29 814.61 L2135.61 812.53 L2139.78 811.10 L2144.62 812.42 L2148.68 814.72 L2151.65 816.48 L2154.51 817.14 L2157.14 816.59 L2160.99 818.02 L2161.87 818.24 L2164.07 820.00 L2163.08 826.59 L2163.08 832.63 L2163.41 835.82 L2165.38 839.01 L2167.14 841.20 L2168.02 844.94 L2165.93 847.58 L2165.93 852.85 L2166.81 855.38 L2167.58 856.81 L2169.34 860.65 L2169.01 864.61 L2168.24 869.55 L2167.58 871.75 L2167.58 877.13 L2169.23 880.76 L2168.90 884.71 L2168.35 889.44 L2166.81 895.26 L2165.38 897.68 L2164.94 900.21 L2162.75 907.13 L2162.75 910.31 L2163.85 912.40 L2166.81 911.52 L2169.56 911.74 L2172.20 911.85 L2175.93 911.30 L2179.23 911.52 L2181.54 911.41 L2183.84 911.08 L2185.49 912.40 L2186.26 913.72 L2188.24 916.80 L2188.90 921.08 L2189.78 923.50 L2190.76 925.04 L2191.20 928.44 L2191.97 931.30 L2190.33 934.82 L2187.80 939.65 L2185.60 943.50 L2184.17 948.77 L2182.85 955.47 L2181.97 961.96 L2182.41 964.37 L2175.82 976.24 L2175.05 980.09 L2174.17 988.77 L2175.93 992.72 L2178.13 995.03 L2180.66 998.76 L2185.27 998.76 L2187.58 997.34 L2190.22 996.35 L2194.72 998.87 L2202.96 1002.17 L2207.14 1005.91 L2209.22 1007.88 L2214.61 1010.19 L2218.23 1013.49 L2219.99 1014.26 L2222.85 1015.68 L2226.47 1020.08 L2227.02 1023.38 L2227.46 1030.08 L2227.90 1036.23 L2228.01 1045.79 L2226.91 1057.77 L2225.59 1060.40 L2222.19 1067.11 L2221.64 1072.60 L2222.96 1078.20 L2222.19 1081.50 L2223.51 1085.35 L2222.96 1091.50 L2224.39 1095.45 L2227.68 1100.95 L2228.12 1108.09 L2228.89 1112.92 L2226.36 1119.19 L2225.48 1123.36 L2226.14 1127.10 L2228.23 1128.53 L2235.04 1125.34 L2239.44 1124.68 L2242.95 1122.48 L2247.13 1122.70 L2252.62 1125.78 L2256.91 1131.60 L2260.09 1136.44 L2263.39 1132.81 L2267.46 1138.74 L2267.24 1141.27 L2267.46 1146.11 L2265.92 1151.49 L2265.37 1154.79 L2267.90 1156.32 L2271.08 1158.63 L2272.84 1162.15 L2276.58 1165.22 L2279.87 1163.14 L2283.17 1167.20 L2283.83 1173.57 L2285.04 1176.65 L2285.59 1183.35 L2287.34 1186.65 L2290.09 1190.06 L2290.42 1193.46 L2294.92 1198.08 L2294.59 1203.68 L2298.44 1207.42 L2298.00 1210.93 L2303.27 1208.52 L2303.93 1220.71 L2304.59 1241.26 L2311.41 1261.36 L2311.84 1262.13 L2325.03 1281.91 L2330.96 1299.38 L2336.79 1316.52 L2337.67 1333.00 L2337.01 1338.17 L2334.04 1343.77 L2332.94 1347.18 L2332.06 1352.01 L2327.45 1357.07 L2323.38 1355.86 L2319.54 1354.32 L2315.14 1357.51 L2315.14 1363.55 L2316.68 1368.93 L2318.77 1377.61 L2317.45 1388.93 L2318.22 1394.09 L2319.98 1401.46 L2321.95 1412.88 L2323.49 1421.56 L2327.67 1430.79 L2333.27 1434.09 L2333.71 1442.55 L2333.93 1449.47 L2333.16 1454.74 L2331.73 1463.86 L2334.81 1473.20 L2336.24 1478.26 L2340.63 1483.42 L2345.47 1492.10 L2345.80 1504.85 L2347.55 1512.43 L2349.75 1522.43 L2349.31 1530.23 L2348.54 1540.67 L2347.33 1548.36 L2345.69 1555.06 L2342.83 1563.08 L2341.51 1566.38 L2346.13 1569.67 L2350.19 1576.16 L2352.06 1582.42 L2356.67 1595.06 L2360.96 1605.49 L2365.02 1615.93 L2367.00 1620.99 L2365.90 1627.14 L2365.35 1631.42 L2365.79 1639.99 L2366.12 1648.67 L2302.51 1676.25 L2299.21 1677.46 L2288.77 1681.20 L2285.04 1685.04 L2282.84 1696.36 L2279.98 1699.33 L2270.86 1707.24 L2263.72 1716.14 L2254.05 1737.34 L2250.21 1749.21 L2247.46 1760.75 L2244.16 1768.66 L2219.44 1792.72 L2215.71 1796.68 L2209.22 1798.87 L2205.16 1805.58 L2200.43 1806.02 L2196.59 1807.55 L2191.09 1814.15 L2184.06 1817.00 L2178.90 1816.12 L2174.61 1817.88 L2167.80 1828.87 L2165.38 1831.62 L2164.50 1834.91 L2165.16 1845.57 L2156.15 1865.02 L2145.50 1884.80 L2135.06 1899.74 L2126.82 1917.32 L2123.30 1923.03 L2110.34 1939.40 L2106.82 1943.58 L2101.99 1946.66 L2092.65 1950.06 L2090.78 1943.25 L2088.03 1938.96 L2085.07 1931.27 L2076.39 1924.57 L2071.88 1923.69 L2067.60 1923.91 L2059.03 1928.53 L2055.51 1930.50 L2055.29 1931.05 L2051.45 1938.85 L2044.96 1944.02 L2041.45 1944.90 L2032.22 1943.69 L2027.82 1944.68 L2022.99 1946.33 L2016.62 1948.52 L2011.67 1946.33 L2006.51 1944.24 L2004.53 1942.48 L2004.86 1945.01 L2004.86 1945.56 L2001.89 1951.71 L2000.68 1952.70 L1998.82 1954.46 L1997.50 1955.99 L1997.17 1956.54 L1996.40 1959.18 L1994.75 1962.81 L1994.53 1963.25 L1992.66 1965.88 L1991.45 1966.87 L1991.01 1967.20 L1990.58 1967.53 L1990.36 1967.75 L1989.92 1968.08 L1989.92 1968.41 L1989.92 1968.63 L1989.70 1968.96 L1988.93 1969.95 L1988.93 1970.06 L1986.29 1971.60 L1985.85 1973.03 L1982.99 1974.67 L1982.22 1976.10 L1981.24 1981.49 L1981.68 1987.75 L1981.24 1988.85 L1980.80 1989.51 L1980.80 1989.73 L1980.58 1989.95 L1979.92 1991.04 L1979.26 1991.92 L1978.49 1992.80 L1978.05 1994.12 L1977.72 1994.89 L1976.51 1996.10 L1974.97 1997.97 L1973.65 2000.93 L1971.79 2002.80 L1970.47 2004.23 L1969.48 2005.66 L1965.96 2007.31 L1965.41 2009.17 L1964.21 2012.03 L1964.10 2012.36 L1963.77 2013.46 L1963.55 2013.79 L1963.00 2014.34 L1962.34 2015.22 L1961.68 2016.32 L1961.57 2016.54 L1960.47 2020.16 L1960.03 2020.71 L1959.48 2021.26 L1958.93 2021.59 L1958.27 2022.14 L1957.72 2022.47 L1957.17 2023.24 L1956.62 2024.01 L1956.40 2025.11 L1956.29 2025.77 L1956.29 2029.94 L1955.64 2032.14 L1955.31 2036.09 L1954.10 2039.72 L1952.45 2043.02 L1952.56 2045.54 L1953.66 2046.75 L1953.88 2046.97 L1954.54 2047.41 L1954.76 2047.63 L1955.20 2047.96 L1955.75 2048.51 L1955.97 2048.73 L1956.18 2050.38 L1955.20 2053.01 L1954.76 2054.22 L1954.65 2054.44 L1954.98 2056.75 L1955.64 2058.29 L1956.08 2059.50 L1956.51 2061.04 L1957.06 2062.24 L1957.39 2063.12 L1957.72 2063.56 L1958.05 2064.22 L1957.83 2065.10 L1957.72 2065.98 L1957.72 2066.64 L1957.61 2067.30 L1957.61 2067.96 L1957.72 2068.29 L1958.82 2070.70 L1959.70 2071.69 L1960.80 2072.46 L1962.12 2073.34 L1964.32 2075.32 L1965.52 2076.42 L1966.40 2077.63 L1968.27 2079.93 L1969.26 2081.58 L1970.14 2082.46 L1970.25 2082.68 L1970.69 2082.90 L1972.89 2084.33 L1974.09 2085.65 L1975.19 2086.42 L1975.85 2087.19 L1977.39 2090.48 L1977.50 2090.70 L1977.39 2092.46 L1976.51 2095.65 L1976.62 2096.96 L1976.73 2097.84 L1977.06 2098.72 L1975.30 2106.74 L1974.86 2108.06 L1974.31 2109.60 L1973.65 2110.70 L1973.33 2111.14 L1973.00 2111.58 L1972.67 2111.91 L1972.12 2112.24 L1971.90 2112.35 L1971.35 2112.68 L1970.58 2112.57 L1969.59 2111.47 L1966.51 2109.60 L1964.97 2108.39 L1963.66 2107.62 L1959.70 2104.55 L1958.93 2104.00 L1956.18 2102.46 L1954.65 2101.58 L1953.99 2101.36 L1952.45 2100.92 L1950.25 2099.71 L1949.48 2099.38 L1948.82 2099.27 L1947.72 2099.38 L1944.32 2102.35 L1943.22 2104.00 L1942.78 2105.75 L1943.11 2108.17 L1943.11 2108.39 L1945.75 2113.78 L1951.35 2126.96 L1954.98 2136.19 L1956.73 2139.60 L1956.84 2141.46 L1956.40 2149.37 L1955.53 2164.65 L1955.31 2166.30 L1934.43 2163.44 L1929.71 2162.67 L1926.52 2162.34 L1919.16 2161.35 L1917.73 2161.24 L1916.63 2161.24 L1909.71 2163.44 L1908.28 2163.88 L1907.62 2164.32 L1906.96 2165.20 L1905.31 2168.05 L1903.56 2170.91 L1902.79 2172.34 L1901.25 2174.43 L1899.93 2176.07 L1894.66 2182.34 L1893.45 2183.55 L1892.35 2184.97 L1891.25 2186.18 L1890.59 2187.17 L1890.26 2187.83 L1889.93 2188.60 L1889.71 2189.26 L1889.60 2190.25 L1889.49 2191.35 L1889.49 2192.56 L1889.60 2193.65 L1889.71 2194.97 L1889.82 2196.18 L1889.93 2197.17 L1890.04 2197.94 L1890.04 2198.49 L1889.93 2199.04 L1889.82 2199.70 L1889.60 2200.47 L1889.49 2201.24 L1889.16 2201.89 L1888.83 2202.44 L1888.39 2202.99 L1887.84 2203.32 L1887.40 2203.43 L1883.34 2204.20 L1879.71 2204.53 L1878.61 2204.75 L1877.85 2205.19 L1877.19 2205.63 L1876.53 2206.18 L1875.43 2207.39 L1874.11 2209.15 L1872.13 2211.78 L1869.93 2214.64 L1867.08 2217.94 L1864.77 2220.79 L1862.02 2223.87 L1860.05 2225.85 L1858.40 2227.39 L1856.75 2228.59 L1854.88 2230.13 L1853.23 2231.89 L1852.90 2232.66 L1852.79 2232.99 L1852.57 2233.76 L1852.46 2236.07 L1852.24 2238.81 L1851.81 2241.34 L1851.26 2244.75 L1849.17 2259.36 L1848.07 2270.35 L1846.75 2278.81 L1844.99 2292.32 L1844.33 2297.38 L1843.45 2304.30 L1843.35 2304.96 L1842.91 2309.02 L1842.47 2311.99 L1842.36 2313.31 L1841.92 2316.60 L1840.38 2328.25 L1840.16 2329.90 L1839.17 2337.15 L1838.07 2347.48 L1836.86 2356.49 L1836.42 2359.57 L1834.88 2371.87 L1834.67 2373.30 L1834.67 2373.30 Z" stroke-linejoin="round"/>
	</defs>
	<use xlink:href="#path_mrwgiSNO" style="fill:#6BACAF;stroke:#6BB4D2;stroke-width:5.76"/>
	<defs>
		<path id="path_HchPzYBr" d="M437.96 3479.85 L437.96 3479.85 L428.62 3481.50 L427.08 3481.61 L440.26 3467.22 L440.59 3466.34 L440.81 3465.35 L441.03 3464.47 L440.92 3463.37 L440.37 3461.83 L439.82 3460.29 L438.94 3458.32 L438.17 3456.78 L435.76 3451.28 L432.68 3440.52 L432.57 3439.53 L432.68 3438.43 L433.01 3437.33 L433.45 3436.23 L437.19 3431.29 L440.15 3427.88 L441.47 3426.56 L442.79 3425.57 L444.22 3424.69 L446.75 3422.61 L447.40 3421.95 L448.06 3420.85 L448.50 3419.75 L448.83 3418.10 L448.83 3417.33 L448.83 3416.45 L451.03 3409.09 L453.89 3404.26 L454.66 3400.19 L454.66 3397.44 L454.44 3392.72 L454.11 3391.84 L475.31 3377.45 L475.86 3374.37 L475.09 3369.10 L470.70 3365.69 L467.84 3342.29 L467.29 3338.22 L464.54 3330.97 L473.88 3323.94 L479.71 3312.62 L487.07 3307.79 L495.20 3245.38 L497.07 3231.42 L430.81 3223.95 L417.96 3300.86 L392.47 3456.56 L369.06 3451.39 L365.44 3452.93 L363.35 3451.50 L361.92 3450.07 L360.82 3448.54 L359.73 3446.56 L357.31 3441.83 L352.69 3432.28 L351.27 3429.53 L350.17 3428.32 L349.29 3427.66 L341.71 3423.60 L333.25 3419.20 L325.23 3415.24 L323.03 3413.93 L318.41 3411.18 L311.05 3407.22 L309.51 3406.45 L308.19 3405.91 L306.33 3405.25 L302.37 3404.37 L300.17 3404.15 L298.64 3404.26 L296.55 3404.70 L294.57 3405.58 L293.14 3406.34 L289.74 3408.76 L286.99 3410.41 L283.80 3411.84 L281.39 3412.83 L278.20 3413.93 L274.02 3415.24 L272.27 3415.46 L266.33 3415.68 L264.14 3415.57 L264.03 3415.57 L260.29 3415.35 L243.48 3413.49 L242.27 3413.05 L241.06 3412.39 L239.96 3411.40 L239.41 3410.52 L238.97 3409.75 L238.64 3408.76 L238.54 3407.22 L238.64 3406.13 L238.86 3405.14 L239.63 3403.71 L241.39 3401.73 L243.15 3399.97 L259.74 3384.70 L260.51 3383.82 L262.27 3384.04 L265.78 3372.72 L266.99 3370.75 L268.09 3366.35 L267.87 3361.85 L267.65 3356.02 L266.55 3352.18 L266.66 3347.56 L267.98 3342.73 L270.18 3338.77 L272.82 3333.83 L274.02 3331.19 L274.68 3328.11 L274.90 3324.82 L274.90 3321.63 L274.46 3319.98 L273.15 3318.12 L268.53 3315.26 L259.63 3316.14 L257.10 3314.60 L239.30 3311.85 L233.26 3313.28 L221.50 3320.20 L218.10 3320.75 L216.34 3320.20 L214.25 3319.21 L210.74 3317.24 L209.64 3312.29 L210.41 3304.27 L210.19 3296.03 L209.64 3291.64 L207.99 3286.91 L205.02 3284.27 L313.03 3295.37 L318.52 3261.53 L334.34 3164.29 L340.50 3165.50 L348.19 3166.38 L349.73 3166.16 L357.20 3165.17 L395.21 3145.39 L417.74 3131.66 L439.16 3124.63 L458.17 3120.45 L470.15 3119.57 L479.82 3119.90 L490.47 3118.14 L506.52 3105.84 L517.72 3095.07 L523.33 3083.31 L527.94 3073.09 L532.12 3066.50 L525.08 3066.94 L477.18 3062.00 L427.96 3053.43 L379.17 3046.28 L330.28 3038.92 L281.39 3033.98 L200.19 3024.97 L207.99 2967.06 L215.35 2909.05 L223.59 2850.71 L168.22 2841.48 L112.62 2833.13 L55.71 2825.77 L64.83 2762.15 L73.73 2699.52 L82.41 2636.67 L34.94 2630.52 L42.85 2566.68 L28.13 2564.81 L29.67 2547.78 L36.59 2544.81 L38.35 2544.49 L39.66 2544.81 L41.97 2545.91 L44.28 2544.16 L44.83 2543.94 L46.26 2543.39 L47.79 2542.95 L51.75 2541.96 L55.71 2541.30 L57.79 2541.30 L61.09 2541.63 L73.94 2543.39 L93.94 2546.02 L96.58 2546.24 L99.66 2546.24 L102.18 2545.80 L103.39 2545.36 L104.60 2544.92 L106.91 2543.61 L108.34 2542.51 L108.99 2541.85 L109.65 2541.08 L110.75 2539.43 L111.30 2538.00 L111.85 2536.02 L112.18 2534.05 L112.18 2518.77 L112.40 2516.58 L113.17 2510.20 L113.17 2509.22 L113.06 2508.23 L112.62 2506.25 L110.42 2500.54 L109.76 2498.34 L109.87 2496.03 L110.86 2494.05 L112.73 2492.84 L114.38 2492.73 L116.91 2492.62 L119.32 2492.73 L121.63 2492.18 L133.94 2486.03 L135.25 2485.15 L136.57 2484.27 L137.23 2483.28 L137.67 2482.74 L138.11 2480.76 L137.67 2478.78 L137.45 2478.34 L136.57 2476.91 L134.70 2476.03 L132.40 2475.48 L128.11 2475.04 L126.24 2473.95 L125.15 2472.08 L125.15 2469.99 L125.91 2467.90 L127.56 2466.36 L144.81 2453.84 L147.23 2452.52 L154.59 2449.00 L156.57 2447.25 L157.89 2444.83 L158.22 2442.08 L157.56 2436.70 L158.22 2434.06 L159.76 2431.97 L167.78 2425.27 L169.53 2423.51 L170.63 2421.32 L170.96 2420.00 L171.07 2419.34 L170.96 2416.92 L170.08 2414.17 L169.75 2413.40 L168.66 2410.99 L168.11 2410.11 L166.79 2408.79 L166.02 2408.24 L154.04 2400.77 L152.39 2399.23 L151.95 2397.25 L152.72 2395.38 L154.48 2394.51 L157.34 2394.29 L161.18 2393.63 L163.16 2392.42 L164.92 2390.88 L168.77 2386.92 L170.74 2385.28 L172.17 2384.62 L173.82 2384.07 L175.47 2383.74 L177.56 2382.64 L179.09 2380.77 L183.16 2373.74 L183.71 2372.86 L185.03 2371.43 L186.67 2370.22 L188.98 2369.34 L191.29 2369.45 L193.38 2369.78 L198.10 2370.11 L200.19 2369.67 L202.06 2368.36 L203.16 2366.38 L203.49 2364.07 L203.05 2361.76 L200.74 2354.62 L199.86 2352.42 L198.32 2350.67 L192.50 2346.38 L185.69 2343.08 L183.71 2341.33 L182.17 2339.02 L176.68 2329.13 L175.14 2327.04 L173.27 2325.28 L169.42 2322.65 L168.11 2320.78 L168.11 2319.79 L168.00 2318.58 L168.88 2316.49 L170.41 2314.96 L176.13 2310.45 L180.08 2308.03 L182.06 2307.27 L183.71 2307.05 L185.58 2307.16 L186.46 2307.27 L190.85 2308.47 L192.50 2308.80 L193.27 2308.91 L194.04 2308.91 L195.46 2308.58 L196.89 2308.03 L197.44 2307.70 L203.82 2303.31 L205.79 2301.77 L207.00 2299.57 L209.53 2292.21 L210.74 2289.90 L212.71 2288.26 L214.91 2287.60 L217.33 2287.82 L219.31 2289.14 L222.71 2292.54 L224.14 2293.64 L225.79 2294.41 L226.67 2294.74 L228.87 2294.85 L238.54 2292.87 L241.28 2291.99 L242.27 2291.55 L244.03 2290.45 L244.80 2289.69 L246.56 2287.71 L249.08 2284.19 L251.61 2281.22 L252.93 2280.24 L254.36 2279.25 L256.77 2277.93 L257.98 2277.38 L259.30 2277.05 L260.73 2276.72 L275.67 2275.73 L277.98 2275.18 L279.30 2274.63 L280.73 2273.64 L281.28 2273.09 L282.37 2271.89 L283.25 2270.35 L283.69 2269.58 L284.35 2267.38 L284.68 2265.40 L284.68 2263.43 L284.35 2261.56 L284.13 2260.57 L283.25 2258.48 L282.59 2257.49 L281.17 2255.62 L280.29 2254.85 L277.87 2252.88 L276.66 2252.11 L263.59 2246.17 L261.72 2244.86 L260.51 2242.77 L260.18 2240.46 L261.06 2230.02 L260.95 2227.61 L260.18 2225.52 L258.75 2223.87 L253.26 2219.69 L252.27 2219.04 L250.84 2218.49 L248.64 2218.27 L246.23 2218.71 L245.35 2219.15 L242.27 2221.01 L239.41 2223.10 L234.58 2225.85 L227.22 2228.81 L225.57 2229.14 L224.36 2229.36 L222.05 2229.47 L219.64 2228.92 L214.69 2227.39 L212.60 2226.07 L211.84 2225.08 L210.85 2223.54 L210.08 2221.89 L208.43 2220.24 L206.23 2219.58 L202.17 2219.80 L198.76 2219.69 L196.56 2218.60 L194.92 2216.62 L194.04 2214.09 L194.15 2211.23 L194.37 2209.48 L194.70 2207.39 L195.24 2205.52 L196.67 2202.77 L203.05 2193.76 L204.58 2192.12 L206.12 2190.58 L222.93 2180.91 L224.47 2179.15 L225.35 2177.06 L225.57 2174.87 L225.02 2172.78 L223.70 2171.24 L221.94 2170.25 L221.39 2170.03 L219.42 2169.81 L217.44 2169.81 L215.13 2169.26 L213.15 2167.94 L211.62 2166.52 L209.64 2164.10 L191.84 2142.12 L189.64 2140.04 L187.11 2139.05 L184.59 2139.60 L181.40 2141.90 L177.88 2143.99 L175.47 2144.21 L173.27 2143.11 L171.95 2141.46 L171.73 2141.13 L170.52 2138.61 L168.44 2133.00 L166.24 2127.29 L164.48 2122.57 L164.04 2121.03 L163.60 2119.38 L163.38 2117.62 L163.71 2114.76 L164.92 2112.35 L166.46 2109.93 L168.88 2105.97 L169.31 2103.78 L168.88 2101.80 L167.67 2100.15 L166.02 2099.16 L163.93 2099.27 L161.84 2100.15 L147.78 2107.51 L145.36 2108.06 L142.51 2107.84 L138.11 2107.73 L135.80 2108.28 L133.83 2109.60 L130.20 2113.23 L128.22 2114.54 L126.02 2114.76 L124.05 2113.89 L116.25 2107.51 L114.49 2105.64 L113.72 2103.45 L113.83 2101.03 L114.93 2099.05 L121.85 2090.81 L123.50 2088.50 L124.60 2085.76 L125.15 2082.35 L126.24 2077.85 L126.35 2077.08 L127.78 2074.55 L129.76 2072.57 L139.21 2065.98 L141.30 2064.44 L143.16 2062.68 L156.90 2046.31 L157.23 2045.98 L160.42 2042.14 L163.05 2038.95 L165.36 2035.65 L165.47 2035.54 L165.69 2034.34 L165.80 2032.69 L165.25 2030.82 L164.81 2030.05 L164.15 2029.39 L162.39 2028.18 L154.15 2024.01 L149.54 2021.70 L147.45 2020.49 L146.79 2019.72 L146.35 2018.51 L146.02 2016.98 L146.13 2015.44 L147.23 2010.93 L147.56 2008.73 L147.56 2006.32 L147.23 2003.35 L146.90 2001.81 L145.80 1999.18 L144.81 1997.53 L138.88 1990.93 L132.73 1984.56 L131.74 1983.24 L131.19 1982.25 L130.97 1980.50 L130.97 1979.07 L131.30 1977.20 L134.38 1971.38 L135.36 1969.95 L136.79 1968.63 L138.66 1967.64 L142.18 1966.65 L145.58 1965.44 L147.12 1964.35 L148.33 1963.25 L149.21 1961.82 L149.87 1960.17 L153.82 1946.66 L155.80 1941.05 L156.90 1937.87 L157.34 1935.45 L157.23 1932.59 L156.68 1931.38 L156.13 1930.28 L154.70 1928.20 L146.79 1919.30 L145.69 1917.98 L144.48 1916.22 L143.82 1914.79 L143.71 1912.92 L144.04 1911.06 L144.81 1909.52 L145.58 1908.42 L146.79 1907.54 L148.55 1906.99 L150.42 1907.32 L152.06 1908.09 L155.36 1911.28 L161.07 1916.33 L161.84 1916.66 L163.05 1916.55 L164.48 1915.78 L166.13 1913.91 L166.90 1912.37 L167.01 1910.84 L166.90 1909.85 L166.46 1908.64 L165.25 1907.54 L164.37 1907.10 L162.94 1906.55 L154.26 1904.02 L153.05 1903.14 L152.28 1902.38 L151.52 1901.17 L151.30 1899.74 L151.52 1898.31 L151.95 1896.99 L152.61 1896.00 L153.49 1895.45 L154.48 1894.79 L155.91 1894.57 L157.56 1894.79 L158.88 1895.12 L160.63 1896.22 L163.93 1898.53 L165.03 1898.86 L166.35 1898.64 L167.45 1897.87 L168.11 1896.99 L168.66 1895.89 L168.99 1894.57 L169.10 1892.93 L169.10 1891.83 L168.66 1890.18 L168.11 1888.75 L167.12 1887.32 L165.58 1885.89 L151.95 1876.88 L149.54 1874.91 L148.44 1873.81 L147.67 1872.38 L147.45 1870.84 L147.45 1868.86 L148.00 1866.67 L148.66 1865.79 L149.76 1865.13 L150.75 1864.91 L154.37 1865.68 L156.57 1866.45 L158.66 1866.78 L163.16 1867.00 L164.92 1867.22 L165.80 1867.77 L166.90 1868.75 L169.42 1872.16 L172.06 1876.99 L173.16 1879.08 L173.71 1882.38 L173.60 1885.45 L173.27 1892.05 L172.72 1899.85 L172.72 1901.72 L172.72 1902.71 L173.16 1905.67 L173.27 1908.97 L172.72 1911.83 L172.50 1912.70 L171.73 1915.23 L171.40 1917.32 L171.29 1918.75 L171.73 1920.72 L172.83 1923.03 L173.71 1925.45 L174.15 1928.09 L174.04 1929.30 L174.15 1929.84 L174.04 1931.71 L173.49 1934.02 L172.83 1936.22 L170.08 1941.93 L161.73 1957.42 L160.74 1959.18 L160.42 1960.50 L160.42 1961.82 L160.74 1962.81 L161.62 1963.91 L162.61 1964.67 L163.93 1965.11 L165.25 1965.00 L166.35 1964.57 L167.23 1963.69 L172.28 1956.87 L173.16 1955.78 L174.15 1954.90 L180.08 1952.04 L187.55 1948.85 L191.18 1946.98 L200.63 1938.96 L201.62 1937.87 L202.06 1936.88 L202.50 1934.46 L202.61 1928.64 L202.94 1922.81 L203.27 1920.94 L203.92 1919.08 L204.91 1916.88 L205.57 1916.11 L206.23 1915.23 L210.41 1910.73 L211.73 1908.75 L212.71 1906.99 L217.55 1896.66 L220.52 1892.05 L221.72 1890.73 L223.15 1889.74 L231.61 1886.11 L232.93 1886.00 L234.36 1886.00 L235.57 1886.33 L236.89 1887.10 L238.64 1890.07 L240.84 1895.23 L241.72 1896.55 L243.26 1897.87 L244.58 1898.64 L245.68 1898.86 L249.52 1898.31 L251.39 1898.31 L253.15 1898.75 L255.13 1900.07 L256.99 1902.16 L258.20 1903.91 L259.52 1905.34 L260.40 1905.45 L261.39 1905.34 L262.16 1904.79 L262.82 1904.13 L263.15 1903.47 L263.26 1902.49 L263.15 1901.61 L262.93 1901.06 L262.49 1900.51 L261.72 1899.85 L260.62 1899.41 L258.31 1898.64 L255.02 1897.54 L247.87 1894.46 L246.67 1893.70 L246.23 1893.15 L245.13 1890.95 L244.58 1888.86 L244.14 1884.25 L243.37 1880.73 L241.83 1877.21 L240.95 1876.12 L238.75 1873.81 L236.78 1872.27 L235.13 1871.28 L233.81 1870.73 L232.05 1870.29 L230.29 1870.51 L228.98 1871.39 L228.21 1872.38 L226.89 1875.46 L226.34 1877.87 L225.68 1879.41 L224.58 1880.51 L223.15 1880.95 L221.94 1881.06 L220.96 1880.51 L219.97 1879.74 L219.31 1878.75 L218.87 1877.87 L216.67 1865.13 L214.69 1853.81 L212.82 1843.04 L212.28 1837.99 L212.39 1830.96 L212.60 1828.54 L212.60 1826.01 L212.82 1824.47 L213.04 1823.82 L213.15 1823.49 L213.26 1823.16 L213.59 1822.72 L214.03 1822.17 L214.36 1820.96 L214.58 1819.75 L214.47 1818.65 L212.93 1815.24 L205.35 1792.72 L202.94 1784.81 L201.73 1779.65 L194.48 1749.65 L188.65 1725.26 L184.37 1707.24 L182.61 1698.56 L182.39 1696.25 L182.17 1694.60 L182.06 1690.65 L182.39 1685.37 L186.35 1658.01 L187.33 1650.21 L187.55 1648.89 L187.77 1647.14 L188.10 1645.49 L188.76 1640.32 L189.64 1634.61 L191.51 1621.10 L194.59 1598.79 L195.68 1591.65 L202.28 1600.11 L202.72 1600.77 L222.93 1626.04 L239.41 1642.96 L242.60 1648.02 L244.14 1658.01 L248.64 1668.45 L250.29 1672.30 L251.17 1674.28 L278.53 1701.63 L285.01 1707.13 L298.53 1718.66 L323.36 1737.45 L327.42 1738.99 L331.27 1745.80 L333.80 1750.20 L337.75 1757.01 L341.05 1761.19 L347.09 1768.88 L355.66 1776.57 L366.76 1785.80 L366.98 1786.35 L388.95 1802.50 L391.59 1805.47 L392.69 1806.67 L393.79 1807.88 L396.42 1809.53 L401.70 1812.17 L411.81 1818.98 L413.34 1820.19 L416.42 1822.72 L419.72 1826.78 L426.97 1836.23 L428.18 1837.66 L431.80 1842.05 L436.97 1846.12 L440.59 1848.10 L444.33 1848.76 L447.84 1848.65 L455.86 1848.87 L462.02 1851.17 L466.85 1855.02 L470.70 1859.85 L481.68 1881.17 L485.09 1887.10 L487.84 1889.96 L490.36 1890.84 L495.97 1891.06 L500.14 1891.72 L504.54 1890.40 L510.36 1887.32 L514.87 1882.82 L521.35 1872.27 L531.57 1847.88 L534.31 1842.38 L539.81 1834.36 L546.73 1829.86 L549.92 1828.43 L559.91 1828.32 L566.84 1830.85 L581.67 1836.67 L596.06 1839.86 L601.56 1842.82 L607.05 1848.21 L613.53 1857.22 L618.59 1866.89 L626.61 1880.51 L653.31 1917.21 L660.67 1923.80 L671.99 1932.59 L677.04 1938.74 L679.79 1946.55 L680.34 1949.73 L680.99 1953.47 L682.53 1962.26 L685.94 1975.99 L693.96 1987.97 L699.67 1995.88 L705.61 2001.59 L719.78 2011.26 L722.75 2014.45 L725.38 2017.31 L730.55 2023.68 L740.99 2039.61 L749.12 2064.99 L751.20 2071.80 L750.76 2105.42 L752.85 2111.47 L754.39 2116.08 L771.75 2135.64 L776.47 2138.06 L791.75 2145.86 L802.62 2145.09 L849.87 2132.56 L860.09 2133.55 L873.16 2146.74 L897.01 2186.51 L898.21 2189.59 L922.39 2205.74 L938.76 2226.40 L940.85 2228.81 L940.96 2228.92 L942.49 2231.56 L955.24 2252.88 L955.46 2253.21 L957.55 2256.61 L963.26 2264.85 L967.54 2271.45 L972.60 2279.03 L978.75 2292.10 L986.22 2298.80 L988.20 2302.98 L990.07 2307.05 L990.29 2307.38 L994.13 2311.77 L996.11 2312.65 L1000.84 2314.85 L1007.65 2315.29 L1016.00 2313.53 L1022.92 2310.45 L1026.99 2308.47 L1041.93 2302.21 L1051.49 2298.59 L1060.50 2298.15 L1073.02 2301.33 L1079.62 2304.63 L1085.99 2309.57 L1089.17 2313.97 L1089.72 2314.74 L1093.02 2319.24 L1095.66 2324.95 L1096.76 2327.37 L1097.20 2330.78 L1097.41 2331.88 L1096.98 2338.03 L1095.88 2355.50 L1096.10 2360.55 L1095.88 2368.58 L1097.41 2381.32 L1101.37 2390.88 L1104.78 2397.03 L1105.66 2398.02 L1107.52 2399.89 L1108.62 2401.10 L1114.12 2404.39 L1118.51 2406.26 L1121.59 2407.58 L1135.43 2410.11 L1140.05 2411.76 L1144.22 2413.18 L1158.94 2413.84 L1171.25 2410.00 L1176.74 2410.44 L1184.10 2410.77 L1202.89 2409.56 L1207.62 2410.66 L1211.46 2411.65 L1222.01 2417.14 L1223.11 2417.36 L1227.40 2423.73 L1229.15 2428.79 L1238.16 2456.15 L1240.14 2463.84 L1241.46 2466.91 L1248.93 2484.60 L1256.84 2503.72 L1258.93 2508.56 L1271.12 2537.78 L1276.73 2550.64 L1277.72 2552.95 L1279.80 2557.67 L1282.55 2564.04 L1285.63 2572.72 L1286.40 2575.80 L1287.17 2577.67 L1287.94 2581.84 L1292.77 2587.23 L1298.04 2598.98 L1303.21 2617.11 L1306.83 2625.35 L1308.15 2628.54 L1308.37 2629.42 L1310.79 2644.03 L1312.66 2652.71 L1312.66 2657.11 L1311.12 2663.26 L1311.78 2674.25 L1313.98 2684.25 L1316.39 2688.09 L1336.94 2705.34 L1356.39 2716.55 L1371.88 2724.24 L1375.28 2726.00 L1377.04 2727.10 L1376.49 2727.98 L1376.27 2728.53 L1375.39 2729.95 L1374.85 2730.83 L1374.30 2731.93 L1373.75 2733.14 L1372.87 2736.00 L1372.54 2739.84 L1371.99 2745.34 L1371.99 2746.55 L1371.99 2749.73 L1371.88 2753.58 L1371.11 2757.64 L1370.01 2762.59 L1369.24 2764.67 L1368.25 2766.76 L1364.41 2771.49 L1361.77 2776.10 L1357.92 2781.38 L1354.52 2785.00 L1350.34 2787.97 L1345.18 2791.26 L1343.42 2792.36 L1337.05 2796.10 L1333.86 2799.18 L1331.12 2802.47 L1327.93 2808.73 L1325.62 2821.59 L1327.05 2834.67 L1334.63 2902.46 L1335.07 2904.22 L1336.28 2907.51 L1337.16 2910.48 L1339.58 2914.65 L1365.73 2961.57 L1368.47 2966.63 L1374.30 2977.28 L1378.91 2983.99 L1386.05 2997.83 L1396.93 3017.50 L1401.76 3023.32 L1403.41 3025.08 L1405.50 3027.17 L1407.92 3029.03 L1411.21 3030.57 L1416.93 3033.21 L1421.76 3034.64 L1426.93 3034.86 L1430.33 3035.08 L1438.13 3033.76 L1445.27 3032.00 L1451.21 3029.80 L1462.30 3022.00 L1468.90 3017.06 L1476.59 3013.43 L1479.88 3012.55 L1481.97 3012.33 L1485.16 3012.00 L1487.90 3012.33 L1520.76 3014.97 L1520.76 3016.18 L1520.43 3020.02 L1520.76 3023.54 L1521.64 3027.83 L1524.38 3035.96 L1543.72 3030.02 L1561.74 3029.91 L1573.61 3030.46 L1582.84 3031.67 L1593.60 3034.31 L1599.32 3037.60 L1604.26 3041.45 L1611.84 3047.71 L1613.71 3050.79 L1616.90 3067.05 L1617.12 3070.79 L1616.79 3072.43 L1613.16 3080.13 L1608.00 3089.36 L1605.80 3092.10 L1602.72 3096.06 L1586.90 3105.62 L1569.54 3115.29 L1563.28 3117.15 L1555.92 3118.36 L1552.73 3117.92 L1542.62 3113.64 L1536.91 3111.11 L1526.36 3109.02 L1517.35 3108.47 L1511.09 3111.55 L1507.90 3114.74 L1502.19 3117.59 L1426.16 3137.26 L1342.21 3158.91 L1258.27 3180.44 L1174.33 3201.98 L1090.38 3223.51 L1005.23 3241.20 L1006.33 3245.16 L1006.55 3246.48 L1006.77 3249.55 L1006.77 3251.09 L1006.22 3254.28 L1005.78 3255.82 L1004.79 3257.90 L1003.36 3259.66 L1001.06 3261.86 L998.42 3264.94 L997.21 3266.80 L995.56 3269.55 L994.13 3272.41 L992.82 3275.48 L991.94 3278.01 L991.39 3280.76 L991.06 3288.78 L990.51 3291.42 L989.85 3293.06 L988.97 3295.37 L988.53 3296.36 L985.56 3301.74 L984.68 3302.51 L983.04 3303.39 L980.95 3304.16 L972.05 3307.13 L970.18 3308.34 L969.08 3309.22 L967.22 3311.63 L965.57 3314.05 L961.83 3317.68 L958.75 3321.19 L957.88 3322.73 L956.89 3324.49 L956.12 3325.81 L955.24 3326.69 L954.36 3327.67 L953.04 3328.33 L949.86 3329.10 L948.76 3329.43 L948.21 3329.76 L944.58 3335.48 L940.41 3342.29 L939.09 3343.17 L937.55 3343.83 L935.46 3344.05 L932.50 3344.81 L930.19 3345.58 L927.77 3346.90 L925.35 3348.22 L923.49 3349.65 L922.61 3350.97 L922.17 3352.62 L922.06 3354.59 L922.06 3356.35 L922.17 3357.56 L922.17 3358.55 L921.40 3360.75 L920.74 3361.85 L919.75 3363.49 L918.54 3364.81 L916.01 3366.90 L911.40 3369.76 L910.30 3371.07 L909.64 3372.39 L908.87 3374.26 L907.99 3377.56 L907.55 3379.65 L907.22 3380.96 L906.56 3381.73 L905.80 3382.06 L905.03 3382.17 L903.27 3381.84 L902.28 3381.29 L900.08 3379.97 L898.43 3379.10 L896.24 3378.55 L894.15 3378.33 L891.62 3378.55 L887.56 3379.54 L884.48 3380.19 L883.16 3380.30 L881.84 3380.30 L880.31 3379.76 L876.35 3377.12 L870.97 3374.04 L863.93 3370.75 L859.32 3368.88 L857.23 3367.78 L855.69 3366.57 L854.70 3365.47 L851.41 3360.64 L848.55 3356.68 L847.45 3355.91 L845.80 3355.58 L841.74 3355.80 L836.91 3355.80 L833.39 3355.58 L830.75 3355.03 L828.66 3354.15 L827.13 3353.06 L826.03 3352.07 L823.83 3349.43 L820.53 3344.81 L819.44 3343.17 L818.23 3340.86 L816.80 3337.67 L816.14 3335.91 L815.15 3334.05 L813.94 3332.62 L811.74 3330.31 L808.12 3327.34 L806.80 3326.36 L805.81 3325.81 L804.82 3325.15 L803.06 3324.38 L801.20 3323.72 L797.68 3322.84 L794.82 3322.07 L793.94 3321.63 L791.53 3319.98 L788.23 3317.57 L786.47 3316.36 L783.07 3314.71 L781.09 3313.39 L779.11 3311.63 L777.35 3310.31 L775.71 3309.76 L773.95 3309.76 L773.73 3309.76 L771.97 3310.42 L769.22 3312.62 L767.14 3314.16 L757.80 3318.77 L745.49 3324.16 L743.29 3324.93 L741.10 3325.15 L739.12 3324.49 L735.60 3321.85 L733.40 3321.30 L731.87 3321.30 L729.34 3321.63 L726.70 3322.18 L720.00 3321.74 L715.28 3321.96 L712.97 3322.40 L710.44 3323.06 L708.46 3323.83 L707.80 3324.16 L706.82 3324.60 L704.95 3325.81 L698.68 3331.63 L696.82 3333.17 L695.28 3334.49 L693.52 3335.59 L692.31 3336.24 L690.44 3336.90 L686.05 3338.33 L684.84 3339.10 L683.41 3340.31 L682.86 3340.97 L680.01 3343.94 L675.28 3349.87 L674.07 3351.96 L669.68 3359.76 L668.03 3362.18 L666.16 3364.04 L664.73 3365.36 L662.98 3366.79 L655.39 3372.39 L640.56 3382.06 L635.29 3386.02 L630.12 3389.75 L628.81 3390.52 L627.93 3390.74 L606.50 3390.52 L604.85 3390.19 L578.37 3388.76 L572.22 3388.65 L568.37 3389.31 L565.74 3389.86 L560.24 3391.07 L558.05 3391.62 L551.67 3392.28 L548.93 3392.50 L547.94 3392.50 L540.47 3393.93 L531.24 3395.91 L529.48 3396.57 L527.61 3397.34 L523.77 3399.75 L520.36 3402.28 L498.93 3422.06 L496.19 3425.46 L493.55 3428.98 L489.05 3436.01 L482.01 3448.10 L479.49 3451.72 L477.07 3454.25 L475.20 3456.01 L453.23 3474.91 L450.81 3476.45 L449.49 3476.99 L439.05 3479.63 L437.96 3479.85 L437.96 3479.85 Z" stroke-linejoin="round"/>
	</defs>
	<use xlink:href="#path_HchPzYBr" style="fill:#09757A;stroke:#097D9B;stroke-width:5.76"/>
	<defs>
		<path id="path_EJFJavQv" d="M1374.63 2553.28 L1374.63 2553.28 L1374.08 2554.59 L1373.86 2553.71 L1373.64 2553.06 L1373.31 2552.29 L1371.00 2546.79 L1370.45 2545.25 L1365.95 2534.49 L1358.03 2515.59 L1356.17 2511.30 L1353.75 2505.81 L1350.89 2500.54 L1349.90 2499.00 L1344.08 2490.76 L1343.09 2489.55 L1340.13 2485.48 L1333.53 2475.70 L1330.68 2471.75 L1329.91 2470.65 L1327.05 2466.69 L1324.96 2463.62 L1323.86 2461.64 L1321.56 2458.67 L1320.02 2456.15 L1318.92 2454.61 L1318.26 2453.73 L1314.96 2456.26 L1310.68 2455.49 L1306.17 2454.94 L1302.88 2454.61 L1302.33 2454.61 L1296.73 2453.84 L1296.29 2453.73 L1294.53 2452.96 L1292.00 2451.09 L1291.12 2449.88 L1290.46 2448.12 L1289.47 2445.27 L1289.69 2439.33 L1282.22 2437.58 L1283.65 2427.14 L1283.65 2425.60 L1283.32 2424.28 L1282.22 2422.41 L1283.87 2422.19 L1279.04 2418.24 L1275.19 2415.82 L1274.64 2419.89 L1273.10 2419.67 L1264.09 2418.57 L1250.69 2416.59 L1249.59 2416.26 L1248.38 2415.60 L1247.50 2414.83 L1246.40 2413.29 L1244.76 2409.78 L1243.11 2407.25 L1241.02 2405.05 L1238.49 2406.81 L1237.28 2408.13 L1239.70 2411.21 L1241.90 2414.61 L1244.10 2418.24 L1243.22 2418.68 L1241.68 2419.56 L1239.81 2421.43 L1239.81 2425.60 L1239.37 2429.23 L1238.93 2431.97 L1237.72 2431.42 L1236.29 2430.98 L1229.15 2428.79 L1227.40 2423.73 L1223.11 2417.36 L1222.01 2417.14 L1211.46 2411.65 L1207.62 2410.66 L1202.89 2409.56 L1184.10 2410.77 L1176.74 2410.44 L1171.25 2410.00 L1158.94 2413.84 L1144.22 2413.18 L1140.05 2411.76 L1135.43 2410.11 L1121.59 2407.58 L1118.51 2406.26 L1114.12 2404.39 L1108.62 2401.10 L1107.52 2399.89 L1105.66 2398.02 L1104.78 2397.03 L1101.37 2390.88 L1097.41 2381.32 L1095.88 2368.58 L1096.10 2360.55 L1095.88 2355.50 L1096.98 2338.03 L1097.41 2331.88 L1097.20 2330.78 L1096.76 2327.37 L1095.66 2324.95 L1093.02 2319.24 L1089.72 2314.74 L1089.17 2313.97 L1085.99 2309.57 L1079.62 2304.63 L1073.02 2301.33 L1060.50 2298.15 L1051.49 2298.59 L1041.93 2302.21 L1026.99 2308.47 L1022.92 2310.45 L1016.00 2313.53 L1007.65 2315.29 L1000.84 2314.85 L996.11 2312.65 L994.13 2311.77 L990.29 2307.38 L990.07 2307.05 L988.20 2302.98 L986.22 2298.80 L978.75 2292.10 L972.60 2279.03 L967.54 2271.45 L963.26 2264.85 L957.55 2256.61 L955.46 2253.21 L955.24 2252.88 L942.49 2231.56 L940.96 2228.92 L940.85 2228.81 L938.76 2226.40 L922.39 2205.74 L898.21 2189.59 L897.01 2186.51 L873.16 2146.74 L860.09 2133.55 L849.87 2132.56 L802.62 2145.09 L791.75 2145.86 L776.47 2138.06 L771.75 2135.64 L754.39 2116.08 L752.85 2111.47 L750.76 2105.42 L751.20 2071.80 L749.12 2064.99 L740.99 2039.61 L730.55 2023.68 L725.38 2017.31 L722.75 2014.45 L719.78 2011.26 L705.61 2001.59 L699.67 1995.88 L693.96 1987.97 L685.94 1975.99 L687.37 1965.99 L688.91 1951.05 L689.89 1940.61 L690.11 1937.98 L688.91 1934.13 L691.43 1930.50 L692.09 1929.40 L693.41 1927.32 L694.51 1926.00 L692.86 1923.03 L692.97 1920.62 L693.85 1916.00 L694.40 1913.91 L695.17 1911.72 L696.27 1905.78 L697.48 1898.86 L699.45 1884.58 L727.69 1912.26 L731.98 1916.44 L732.64 1913.91 L734.06 1909.19 L734.28 1908.20 L734.72 1904.35 L735.49 1898.09 L740.55 1859.74 L742.63 1843.70 L743.62 1836.23 L746.37 1816.12 L748.79 1797.45 L751.53 1777.67 L754.06 1757.34 L756.81 1736.90 L767.79 1656.04 L778.67 1575.28 L786.69 1517.48 L787.68 1513.42 L789.33 1509.46 L790.76 1505.95 L791.97 1501.99 L792.63 1498.48 L793.07 1496.28 L793.62 1492.21 L802.41 1428.05 L802.73 1426.07 L802.95 1424.09 L802.84 1421.89 L803.83 1417.28 L800.65 1414.97 L800.76 1414.09 L801.53 1410.47 L806.47 1372.89 L811.52 1336.19 L812.18 1331.58 L812.18 1328.94 L812.84 1324.10 L817.24 1291.58 L822.18 1254.22 L751.20 1244.55 L743.29 1243.24 L741.75 1242.47 L740.22 1241.70 L739.12 1241.15 L738.02 1240.49 L737.03 1239.50 L736.04 1238.18 L735.27 1237.19 L735.05 1236.20 L734.94 1234.23 L735.05 1232.36 L735.38 1230.27 L735.71 1227.85 L736.04 1225.77 L736.26 1223.90 L736.26 1221.81 L736.26 1220.93 L735.93 1220.49 L734.39 1219.50 L730.11 1219.06 L723.96 1218.40 L722.20 1207.75 L718.57 1200.38 L712.09 1190.94 L702.31 1179.18 L694.18 1171.71 L688.91 1171.16 L687.70 1171.16 L692.97 1131.16 L693.85 1124.68 L700.77 1073.15 L725.27 1076.45 L734.83 1077.76 L738.46 1070.07 L740.88 1066.67 L749.67 1060.95 L757.47 1053.70 L762.30 1046.01 L764.06 1044.80 L773.62 1041.61 L779.66 1033.15 L782.52 1030.74 L791.75 1030.52 L796.69 1029.09 L809.99 1022.17 L818.78 1020.30 L827.57 1015.57 L836.47 1007.66 L840.75 1000.63 L847.78 991.51 L850.86 982.28 L859.10 975.47 L863.71 969.54 L870.42 954.59 L880.20 959.65 L883.71 957.89 L884.92 954.59 L885.14 948.11 L887.01 944.05 L899.20 942.62 L902.06 940.86 L905.25 938.00 L906.89 932.07 L907.33 917.35 L913.71 916.36 L914.92 913.50 L915.79 903.28 L917.66 899.11 L930.63 884.60 L930.74 876.69 L939.97 872.63 L945.02 866.25 L949.31 862.19 L957.33 849.66 L958.75 838.46 L961.28 831.75 L966.01 826.37 L971.61 823.29 L977.98 821.97 L983.81 817.47 L992.93 803.41 L996.22 802.20 L996.55 801.65 L997.65 799.45 L998.31 797.58 L1000.07 792.53 L1002.04 786.05 L1004.46 779.34 L1006.33 773.19 L1006.88 771.43 L1007.76 769.34 L1008.31 767.81 L1009.63 765.28 L1010.83 763.08 L1012.15 761.32 L1013.14 759.90 L1014.57 758.47 L1016.33 756.93 L1020.28 753.96 L1025.45 750.01 L1028.19 748.03 L1030.61 745.94 L1032.15 744.73 L1033.47 743.19 L1034.68 741.77 L1036.11 739.57 L1036.98 737.81 L1037.75 735.83 L1038.19 734.07 L1038.52 732.10 L1038.85 729.79 L1038.85 727.92 L1038.41 724.85 L1037.42 720.45 L1037.31 719.02 L1037.31 717.70 L1037.53 716.39 L1038.19 714.96 L1040.06 711.55 L1043.69 705.51 L1048.96 696.39 L1051.82 690.78 L1054.23 686.50 L1055.22 684.85 L1056.54 683.09 L1057.75 681.55 L1059.73 679.36 L1062.26 676.06 L1064.34 673.75 L1065.00 672.87 L1067.09 670.35 L1072.47 662.99 L1074.12 660.57 L1082.25 648.04 L1090.38 631.45 L1093.02 627.17 L1101.26 616.29 L1103.24 613.98 L1105.33 612.33 L1106.53 611.56 L1107.74 611.01 L1107.74 610.91 L1112.47 608.93 L1114.56 607.39 L1116.97 604.97 L1132.13 584.86 L1142.13 569.37 L1144.22 566.41 L1145.65 564.32 L1149.49 559.26 L1160.70 543.22 L1168.50 533.22 L1170.70 529.82 L1172.02 527.51 L1182.46 504.77 L1184.76 500.37 L1188.06 494.88 L1195.31 484.22 L1201.03 477.30 L1207.07 471.03 L1208.06 469.94 L1222.12 456.53 L1224.43 454.00 L1230.25 446.09 L1233.66 440.05 L1234.87 437.63 L1237.17 434.12 L1238.38 432.36 L1244.21 424.78 L1252.45 415.55 L1256.18 411.70 L1258.71 409.28 L1261.02 407.53 L1270.47 401.15 L1273.76 398.63 L1275.30 397.31 L1282.44 390.06 L1286.18 385.77 L1287.28 384.12 L1288.16 382.47 L1289.03 380.61 L1289.58 379.07 L1290.13 377.09 L1291.23 369.62 L1291.45 367.42 L1291.67 366.21 L1292.44 363.80 L1293.54 361.60 L1303.32 346.33 L1305.19 344.24 L1312.44 339.29 L1313.21 338.96 L1314.41 338.20 L1321.01 333.69 L1328.70 328.42 L1337.49 322.81 L1340.78 321.05 L1342.98 319.96 L1344.85 318.31 L1347.71 315.89 L1350.78 313.47 L1354.08 311.06 L1359.57 307.32 L1365.40 303.47 L1368.69 301.50 L1373.09 299.08 L1376.82 297.21 L1383.74 293.81 L1384.29 293.15 L1385.50 290.95 L1386.93 288.75 L1387.70 287.76 L1388.69 286.88 L1389.90 286.00 L1392.10 284.47 L1397.70 280.40 L1402.64 276.89 L1405.06 275.24 L1406.60 274.25 L1408.58 273.26 L1410.77 272.38 L1415.28 271.28 L1418.14 270.40 L1420.66 269.52 L1424.29 268.09 L1428.02 266.89 L1430.99 265.68 L1432.97 264.80 L1434.40 263.92 L1434.51 263.81 L1437.25 261.83 L1442.31 258.10 L1447.58 254.36 L1451.10 251.94 L1452.86 250.95 L1455.93 249.75 L1460.11 247.99 L1461.32 247.11 L1462.19 246.34 L1463.51 245.02 L1464.06 244.14 L1464.61 242.71 L1466.37 236.89 L1467.80 232.83 L1468.79 229.75 L1469.34 227.55 L1469.78 223.60 L1470.11 222.61 L1470.54 221.40 L1471.53 219.42 L1471.97 217.88 L1472.19 217.00 L1472.41 216.45 L1473.07 215.57 L1475.38 212.50 L1477.25 209.64 L1478.13 208.43 L1479.11 207.55 L1480.10 206.78 L1481.20 206.35 L1482.30 206.13 L1484.39 206.35 L1489.66 206.57 L1490.87 206.89 L1493.51 208.10 L1493.62 208.10 L1493.95 208.10 L1494.17 207.77 L1494.50 207.44 L1494.61 207.33 L1495.16 206.57 L1496.58 203.82 L1497.13 203.27 L1498.23 202.39 L1500.32 201.07 L1503.29 198.87 L1506.14 196.90 L1507.57 196.13 L1508.56 195.58 L1509.44 194.92 L1510.10 194.26 L1510.65 193.49 L1510.87 192.94 L1511.20 192.28 L1511.64 189.97 L1511.97 187.78 L1512.19 185.58 L1512.41 185.25 L1512.63 185.03 L1513.40 184.37 L1517.46 181.73 L1518.01 181.18 L1518.56 180.63 L1519.88 179.10 L1522.41 175.80 L1526.03 169.98 L1530.76 160.31 L1531.30 159.10 L1532.95 156.35 L1534.49 153.82 L1535.37 152.40 L1537.13 149.21 L1537.68 148.44 L1538.12 148.00 L1538.34 147.78 L1539.00 147.34 L1539.66 146.90 L1540.31 146.46 L1542.18 145.47 L1544.60 144.27 L1547.46 143.17 L1548.34 142.62 L1548.66 142.29 L1549.10 141.85 L1549.54 141.30 L1550.53 140.09 L1552.40 137.89 L1553.72 136.46 L1556.36 133.50 L1560.75 128.99 L1563.28 126.03 L1564.05 125.26 L1564.38 125.15 L1564.71 125.04 L1565.04 124.93 L1565.48 125.04 L1571.08 126.69 L1571.63 126.69 L1572.07 126.80 L1572.51 126.69 L1573.28 126.36 L1574.27 125.92 L1574.81 125.59 L1575.36 125.37 L1576.02 124.93 L1577.67 123.72 L1579.10 122.40 L1582.07 119.54 L1583.93 117.79 L1585.80 115.70 L1587.01 114.27 L1588.00 113.06 L1588.88 111.74 L1589.65 110.31 L1589.98 109.66 L1590.20 108.78 L1590.53 107.68 L1592.94 100.65 L1593.49 99.11 L1594.04 98.12 L1595.14 96.25 L1596.24 94.49 L1597.23 93.39 L1597.56 92.95 L1598.11 92.51 L1598.88 92.08 L1600.42 91.31 L1602.72 90.43 L1603.38 90.10 L1604.48 89.00 L1607.34 85.48 L1607.78 85.15 L1608.22 84.93 L1608.66 84.71 L1609.10 84.60 L1609.75 84.60 L1611.84 84.71 L1614.48 84.71 L1615.80 84.49 L1616.90 84.16 L1620.30 82.52 L1620.96 82.30 L1621.40 82.19 L1622.06 82.19 L1623.16 82.41 L1624.70 82.96 L1625.14 83.07 L1625.69 82.96 L1626.46 82.85 L1627.00 82.63 L1627.33 82.41 L1627.77 82.08 L1628.43 81.31 L1631.18 76.91 L1631.84 75.70 L1632.39 74.72 L1633.05 73.07 L1633.38 72.08 L1633.71 71.42 L1634.26 70.65 L1636.01 68.01 L1637.33 66.25 L1637.77 65.82 L1641.29 63.29 L1641.62 62.85 L1641.84 62.30 L1642.17 61.20 L1642.39 60.21 L1642.61 58.78 L1643.05 56.81 L1644.25 53.07 L1644.58 51.86 L1644.58 50.87 L1644.69 50.54 L1644.58 48.89 L1644.58 47.91 L1644.69 46.70 L1644.91 45.93 L1645.02 45.38 L1645.24 44.61 L1645.57 43.62 L1646.01 42.30 L1646.78 40.10 L1647.00 39.55 L1647.33 39.23 L1647.99 38.68 L1649.86 37.36 L1652.06 35.82 L1653.48 34.61 L1653.81 38.13 L1653.26 40.21 L1656.12 52.63 L1657.66 64.28 L1660.85 76.36 L1664.58 90.43 L1668.32 97.68 L1668.76 102.40 L1669.42 111.08 L1669.31 122.40 L1667.00 137.67 L1662.60 153.82 L1658.43 163.16 L1653.04 165.47 L1646.56 169.21 L1641.18 174.26 L1638.76 179.65 L1637.33 185.91 L1637.00 193.49 L1637.22 197.67 L1640.96 202.28 L1645.35 202.83 L1652.82 202.61 L1656.67 201.51 L1664.14 200.96 L1673.92 203.71 L1684.58 207.99 L1694.36 211.07 L1700.40 216.78 L1704.36 222.94 L1701.94 231.29 L1693.15 239.75 L1683.48 246.12 L1677.11 251.39 L1672.82 255.79 L1671.61 262.49 L1673.26 268.31 L1671.28 273.37 L1666.01 277.32 L1661.72 279.74 L1653.81 291.28 L1649.64 297.65 L1646.23 302.93 L1650.19 303.69 L1655.79 307.43 L1660.74 311.83 L1663.37 317.87 L1663.59 323.58 L1661.72 330.94 L1658.32 341.82 L1658.76 351.38 L1661.94 350.28 L1667.00 347.86 L1675.13 345.01 L1678.75 345.45 L1685.24 348.19 L1691.72 355.78 L1704.68 341.05 L1707.32 357.64 L1722.26 349.62 L1729.41 341.93 L1729.96 341.27 L1729.08 340.61 L1731.71 330.39 L1737.76 320.18 L1744.90 314.90 L1747.21 306.88 L1747.21 293.26 L1754.13 286.55 L1770.61 279.85 L1785.99 280.62 L1797.20 288.75 L1807.97 280.62 L1821.37 268.31 L1824.78 252.05 L1830.93 243.70 L1841.92 236.67 L1846.64 228.54 L1849.50 216.78 L1852.57 210.74 L1855.21 207.44 L1855.87 209.64 L1863.78 211.51 L1865.65 207.55 L1870.59 201.95 L1872.79 212.06 L1868.62 226.01 L1862.90 238.87 L1860.16 252.60 L1866.42 270.40 L1869.49 286.66 L1867.08 297.32 L1858.73 320.62 L1849.39 333.47 L1844.44 346.11 L1839.28 365.11 L1830.05 376.54 L1822.91 374.89 L1810.60 383.90 L1805.33 393.57 L1804.67 403.68 L1801.81 410.16 L1794.34 410.71 L1788.85 414.23 L1785.33 423.68 L1774.89 433.68 L1762.70 439.39 L1758.63 455.21 L1753.03 470.37 L1748.85 485.10 L1749.40 490.81 L1750.83 490.92 L1754.24 487.63 L1759.62 479.60 L1767.20 476.31 L1773.25 478.95 L1774.23 481.69 L1773.47 491.03 L1778.41 496.96 L1784.45 502.68 L1790.06 509.82 L1794.23 511.03 L1798.63 508.17 L1805.22 504.44 L1810.16 508.06 L1814.45 516.96 L1824.56 522.35 L1831.26 523.11 L1838.84 519.16 L1837.41 511.80 L1836.97 504.88 L1838.51 500.92 L1844.33 499.82 L1856.64 499.82 L1861.69 490.37 L1857.52 482.79 L1862.02 479.38 L1866.86 477.96 L1867.74 470.16 L1868.40 464.44 L1876.86 462.57 L1887.07 459.06 L1893.12 450.49 L1900.92 447.85 L1909.49 449.72 L1919.49 452.25 L1923.22 458.07 L1921.03 469.72 L1918.50 478.18 L1915.64 490.37 L1913.55 500.92 L1915.09 505.32 L1916.63 505.86 L1921.90 505.43 L1931.35 500.48 L1941.13 493.67 L1950.36 493.78 L1962.56 496.85 L1974.53 504.88 L1983.54 512.24 L1990.36 519.93 L1995.74 533.66 L1991.67 554.54 L1984.64 572.45 L1960.03 601.35 L1958.16 605.08 L1958.71 608.38 L1961.90 611.56 L1970.58 612.77 L1980.03 611.56 L1987.72 608.27 L1991.34 605.41 L1998.05 602.99 L2006.40 598.71 L2017.38 597.39 L2027.38 600.91 L2038.26 611.67 L2044.30 615.85 L2045.07 617.83 L2046.94 621.12 L2048.15 623.98 L2047.71 627.61 L2045.62 631.01 L2042.98 633.76 L2043.86 635.85 L2047.82 634.97 L2051.66 635.41 L2058.04 636.84 L2062.76 638.92 L2067.16 643.21 L2067.71 647.05 L2067.05 652.44 L2068.37 655.18 L2069.35 660.24 L2072.21 663.21 L2075.62 667.27 L2076.06 671.67 L2076.50 676.94 L2078.91 679.03 L2082.43 681.22 L2082.76 687.05 L2080.34 692.76 L2076.94 697.38 L2073.86 700.23 L2068.04 706.94 L2065.62 712.10 L2065.84 714.74 L2067.27 716.71 L2068.92 720.12 L2069.13 723.75 L2068.04 726.82 L2066.61 733.97 L2065.62 737.59 L2063.97 745.50 L2062.87 750.34 L2060.67 753.63 L2057.38 758.25 L2055.84 760.66 L2053.64 761.65 L2050.24 761.87 L2046.39 760.77 L2042.66 760.77 L2039.25 765.28 L2036.06 768.69 L2035.18 770.99 L2035.95 773.63 L2037.93 775.72 L2042.11 777.48 L2046.28 779.34 L2050.24 782.31 L2051.01 784.84 L2052.76 788.79 L2053.97 792.09 L2056.17 791.87 L2059.36 792.31 L2062.65 792.64 L2065.18 794.40 L2066.94 798.35 L2068.15 801.54 L2069.68 806.15 L2072.98 806.59 L2075.29 804.94 L2078.69 804.94 L2081.44 805.82 L2084.52 806.70 L2087.37 810.33 L2091.66 810.99 L2095.06 810.22 L2098.58 808.68 L2103.20 807.36 L2103.74 820.55 L2102.43 826.04 L2100.34 833.29 L2096.49 840.65 L2094.41 848.56 L2092.87 864.50 L2092.54 870.76 L2092.65 874.61 L2093.86 878.23 L2094.41 881.64 L2093.31 885.37 L2091.66 890.10 L2091.22 893.06 L2091.77 897.02 L2091.00 907.13 L2090.12 908.01 L2088.03 910.64 L2083.53 914.60 L2082.87 915.04 L2082.32 915.26 L2078.80 914.93 L2077.92 914.93 L2076.72 915.26 L2072.76 917.57 L2072.43 917.90 L2072.10 918.34 L2071.11 920.75 L2070.56 921.52 L2069.24 922.62 L2064.41 925.15 L2062.54 926.47 L2061.55 927.67 L2060.34 930.42 L2059.69 931.30 L2057.71 932.95 L2054.30 934.93 L2052.32 936.57 L2050.68 937.78 L2049.25 938.33 L2048.48 938.33 L2047.38 938.11 L2046.28 937.56 L2045.73 937.56 L2045.29 937.67 L2044.74 938.00 L2043.20 939.43 L2041.23 940.86 L2037.49 942.40 L2035.84 943.28 L2032.33 945.47 L2029.03 947.78 L2026.17 950.09 L2023.10 952.62 L2020.35 954.92 L2016.62 957.67 L2012.11 961.19 L2010.79 962.29 L2007.83 964.04 L2006.95 964.59 L2006.07 965.58 L2003.98 968.44 L2003.43 969.10 L2002.33 969.76 L2000.90 970.53 L1999.37 971.30 L1991.45 977.23 L1988.60 979.65 L1977.50 988.22 L1975.08 990.19 L1974.53 990.85 L1972.89 993.27 L1961.68 1013.60 L1956.62 1023.16 L1938.28 1056.45 L1921.03 1086.00 L1910.81 1100.95 L1909.93 1102.16 L1906.41 1109.08 L1905.53 1110.51 L1902.79 1113.03 L1901.25 1115.01 L1900.48 1115.45 L1900.04 1115.56 L1898.39 1116.11 L1896.96 1116.88 L1895.53 1117.87 L1894.77 1118.75 L1893.12 1122.15 L1891.69 1124.02 L1891.03 1124.57 L1888.72 1126.00 L1887.40 1126.55 L1886.20 1126.88 L1885.43 1127.54 L1884.99 1128.42 L1884.77 1129.51 L1884.66 1130.61 L1884.66 1131.05 L1884.11 1132.48 L1881.91 1133.91 L1878.94 1136.99 L1873.34 1140.61 L1872.02 1141.60 L1869.93 1143.80 L1867.85 1146.33 L1859.28 1153.25 L1854.11 1158.52 L1851.59 1161.16 L1844.44 1168.08 L1842.14 1171.27 L1841.04 1173.79 L1840.05 1176.32 L1839.28 1177.64 L1834.67 1183.02 L1832.14 1185.44 L1815.33 1198.52 L1793.02 1214.45 L1789.84 1216.32 L1769.51 1227.41 L1767.53 1228.40 L1764.46 1229.50 L1761.49 1230.49 L1758.30 1231.04 L1757.09 1231.26 L1755.34 1231.48 L1754.24 1231.37 L1752.70 1231.04 L1751.27 1230.60 L1749.84 1230.93 L1746.66 1232.36 L1742.92 1234.34 L1730.83 1238.84 L1703.59 1250.16 L1685.46 1258.40 L1672.71 1263.45 L1672.05 1263.89 L1671.39 1264.33 L1670.40 1265.21 L1661.94 1275.87 L1660.30 1277.96 L1653.59 1285.43 L1649.86 1291.03 L1646.89 1294.44 L1645.02 1296.09 L1643.71 1297.07 L1635.24 1302.02 L1615.91 1314.98 L1611.40 1318.72 L1606.13 1324.10 L1594.48 1335.31 L1592.61 1337.51 L1591.41 1339.27 L1590.42 1341.13 L1589.10 1344.10 L1586.79 1350.91 L1585.69 1353.33 L1583.82 1357.07 L1568.44 1380.58 L1561.63 1391.46 L1558.55 1396.73 L1557.89 1397.94 L1550.86 1405.30 L1549.87 1405.96 L1546.36 1406.84 L1544.49 1407.94 L1542.62 1409.48 L1541.85 1410.36 L1540.75 1411.67 L1539.44 1413.54 L1538.23 1415.63 L1536.69 1419.04 L1535.15 1423.10 L1534.49 1424.42 L1533.72 1425.30 L1533.06 1425.85 L1531.85 1426.62 L1518.23 1432.66 L1516.47 1433.65 L1514.60 1435.19 L1513.29 1436.84 L1513.07 1437.38 L1511.64 1439.58 L1509.66 1442.11 L1508.23 1443.65 L1504.39 1447.82 L1501.97 1450.79 L1495.05 1461.45 L1494.83 1461.89 L1494.61 1462.88 L1494.50 1463.86 L1495.27 1469.47 L1494.83 1471.89 L1493.51 1474.63 L1492.30 1476.28 L1491.09 1478.37 L1489.99 1480.57 L1489.33 1483.09 L1487.03 1490.23 L1480.76 1505.51 L1474.39 1517.81 L1468.24 1528.14 L1463.07 1536.93 L1462.30 1537.81 L1460.77 1539.24 L1457.91 1541.33 L1452.64 1544.40 L1450.11 1546.49 L1446.26 1550.56 L1435.39 1563.85 L1434.29 1565.61 L1431.98 1569.34 L1428.02 1576.93 L1408.36 1613.29 L1394.95 1636.37 L1392.97 1639.44 L1392.10 1640.65 L1390.89 1641.86 L1389.46 1643.07 L1388.03 1644.17 L1373.86 1653.07 L1375.72 1655.93 L1377.70 1658.67 L1381.22 1662.52 L1385.17 1666.58 L1389.13 1669.00 L1393.74 1669.44 L1400.01 1664.28 L1403.63 1661.20 L1405.94 1660.10 L1409.24 1658.67 L1416.27 1658.56 L1421.65 1659.00 L1425.28 1659.66 L1430.66 1662.63 L1436.48 1666.25 L1443.41 1670.43 L1448.90 1674.71 L1451.21 1679.77 L1453.07 1685.15 L1453.18 1688.78 L1453.84 1691.42 L1451.21 1695.26 L1447.14 1699.55 L1442.75 1702.40 L1438.35 1704.38 L1436.04 1707.90 L1430.88 1713.50 L1426.38 1719.54 L1426.93 1725.37 L1427.80 1732.51 L1428.90 1740.31 L1429.23 1742.07 L1430.11 1746.46 L1431.76 1749.10 L1433.63 1750.20 L1440.00 1750.09 L1449.78 1748.55 L1453.40 1748.33 L1463.07 1746.02 L1471.86 1744.27 L1481.86 1743.17 L1482.63 1743.17 L1482.41 1744.71 L1481.75 1750.31 L1481.20 1755.03 L1477.91 1780.96 L1473.40 1814.59 L1472.19 1822.94 L1470.98 1832.82 L1470.65 1835.90 L1466.70 1866.45 L1465.49 1873.81 L1460.88 1907.32 L1456.48 1938.96 L1455.60 1945.78 L1451.43 1981.05 L1449.89 1993.90 L1449.01 2000.82 L1446.15 2020.60 L1445.71 2024.45 L1445.38 2026.97 L1445.05 2028.40 L1444.07 2036.53 L1442.75 2046.20 L1442.42 2048.73 L1441.65 2055.21 L1441.54 2056.53 L1440.88 2060.60 L1440.77 2061.47 L1440.66 2062.46 L1438.02 2080.92 L1430.77 2134.87 L1428.35 2152.67 L1428.13 2154.43 L1427.91 2156.96 L1427.36 2161.57 L1425.39 2177.94 L1424.07 2187.83 L1423.08 2194.64 L1422.75 2197.72 L1421.21 2208.49 L1420.99 2209.48 L1417.59 2235.30 L1415.17 2253.87 L1414.84 2256.06 L1412.97 2270.02 L1411.76 2279.36 L1411.10 2283.75 L1409.24 2297.71 L1408.36 2304.08 L1408.03 2306.50 L1407.59 2308.58 L1406.93 2309.46 L1406.38 2312.76 L1406.05 2314.96 L1405.94 2315.95 L1405.50 2322.76 L1404.51 2328.69 L1404.40 2331.77 L1404.62 2332.54 L1402.64 2349.24 L1401.87 2355.39 L1400.99 2361.10 L1399.13 2373.74 L1398.03 2381.76 L1397.48 2385.17 L1397.15 2387.58 L1395.83 2395.17 L1394.40 2405.71 L1393.08 2414.94 L1391.99 2423.62 L1391.66 2425.60 L1390.56 2435.27 L1390.45 2436.15 L1389.02 2445.27 L1388.91 2446.26 L1388.25 2455.60 L1387.59 2461.09 L1385.83 2474.82 L1369.02 2472.63 L1368.36 2472.52 L1364.08 2471.75 L1360.45 2470.65 L1360.34 2469.99 L1360.23 2469.44 L1360.01 2468.34 L1359.35 2467.79 L1357.70 2467.35 L1355.73 2466.69 L1353.53 2466.03 L1350.01 2464.83 L1347.38 2463.73 L1344.74 2462.52 L1342.87 2461.53 L1341.44 2460.87 L1339.80 2459.99 L1338.37 2459.33 L1337.27 2459.00 L1335.62 2458.67 L1334.74 2458.78 L1333.64 2459.22 L1329.69 2456.59 L1325.95 2454.06 L1328.81 2456.81 L1330.79 2458.56 L1333.53 2461.53 L1335.95 2464.61 L1336.94 2465.81 L1337.60 2466.80 L1339.03 2469.11 L1339.47 2469.77 L1340.67 2469.99 L1346.61 2470.87 L1351.55 2471.53 L1355.07 2472.08 L1357.38 2472.30 L1360.12 2472.63 L1364.19 2473.40 L1367.81 2473.84 L1385.61 2476.25 L1384.18 2486.80 L1383.53 2492.29 L1382.87 2497.24 L1381.11 2508.01 L1379.79 2520.09 L1379.24 2523.28 L1378.80 2526.25 L1378.14 2531.52 L1377.37 2537.01 L1377.26 2538.55 L1376.93 2542.18 L1376.71 2544.92 L1375.39 2553.39 L1374.63 2553.28 L1374.63 2553.28 Z" stroke-linejoin="round"/>
	</defs>
	<use xlink:href="#path_EJFJavQv" style="fill:#004249;stroke:#00465F;stroke-width:5.76"/>
</svg>
