<?xml version="1.0" encoding="UTF-8" standalone="no"?>
<!-- This is a Stata 16.1 generated SVG file (http://www.stata.com) -->

<svg version="1.1" width="4.00in" height="4.99in" viewBox="0 0 2880 3593" xmlns="http://www.w3.org/2000/svg" xmlns:xlink="http://www.w3.org/1999/xlink">
	<desc>Stata Graph - Graph</desc>
	<rect x="0" y="0" width="2880" height="3593" style="fill:#FFFFFF;stroke:none"/>
	<defs>
		<path id="path_vBvbmcTl" d="M1619.50 2129.86 L1619.50 2129.86 L1608.27 2128.96 L1606.92 2129.30 L1606.59 2127.73 L1606.36 2126.38 L1606.03 2125.15 L1583.01 1980.87 L1577.50 1947.52 L1577.39 1946.62 L1569.64 1897.78 L1562.68 1854.32 L1561.45 1854.55 L1555.05 1855.45 L1553.02 1855.78 L1551.11 1856.01 L1547.75 1856.68 L1546.74 1856.91 L1545.84 1857.02 L1536.29 1858.70 L1535.17 1858.82 L1535.73 1861.29 L1543.37 1899.57 L1543.37 1900.92 L1542.81 1902.94 L1542.81 1903.95 L1549.43 1939.88 L1550.78 1947.52 L1552.24 1952.12 L1553.02 1955.83 L1554.71 1966.49 L1554.60 1967.17 L1554.26 1968.74 L1553.81 1969.64 L1553.02 1970.42 L1549.32 1972.22 L1548.20 1973.01 L1547.30 1974.13 L1546.17 1975.70 L1545.39 1977.72 L1542.02 1990.19 L1540.78 1993.33 L1534.50 2004.67 L1533.60 2006.35 L1531.91 2008.15 L1530.79 2009.05 L1528.99 2010.17 L1526.19 2011.63 L1520.68 2014.10 L1516.53 2015.79 L1515.97 2005.12 L1514.28 2001.41 L1513.50 1999.84 L1512.93 1997.15 L1513.83 1991.20 L1515.41 1981.43 L1502.04 1919.00 L1501.59 1916.19 L1498.22 1894.18 L1497.89 1892.16 L1496.54 1887.67 L1495.87 1885.09 L1493.06 1866.79 L1490.59 1867.24 L1476.89 1869.82 L1465.88 1872.18 L1455.78 1874.09 L1440.73 1876.67 L1435.45 1877.57 L1421.53 1880.26 L1415.69 1881.27 L1409.18 1882.62 L1396.71 1884.98 L1393.45 1885.76 L1388.29 1887.45 L1343.82 1903.84 L1257.69 1934.27 L1248.82 1938.65 L1236.47 1943.70 L1229.28 1946.40 L1222.54 1948.75 L1215.81 1951.00 L1210.98 1952.46 L1194.58 1957.06 L1184.25 1960.32 L1180.88 1961.55 L1179.31 1961.89 L1178.41 1962.00 L1177.40 1962.00 L1172.46 1947.29 L1169.76 1940.78 L1168.08 1941.90 L1166.06 1941.57 L1164.71 1942.69 L1163.14 1942.69 L1160.67 1944.37 L1157.86 1946.06 L1156.74 1948.08 L1158.42 1951.11 L1161.12 1951.34 L1161.23 1953.36 L1161.68 1954.26 L1164.15 1954.37 L1168.19 1953.58 L1169.65 1954.03 L1169.76 1954.37 L1169.54 1954.70 L1161.90 1955.83 L1160.33 1956.61 L1159.77 1957.85 L1160.00 1960.09 L1161.34 1962.00 L1161.01 1963.91 L1159.66 1966.04 L1160.33 1969.53 L1159.43 1972.00 L1157.30 1974.13 L1154.94 1972.67 L1152.36 1973.01 L1150.34 1975.25 L1147.76 1979.97 L1144.72 1984.46 L1143.60 1987.60 L1139.56 1994.23 L1138.77 1997.37 L1136.75 2000.40 L1136.75 2000.74 L1136.41 2002.76 L1136.86 2005.46 L1134.84 2005.57 L1133.16 2004.56 L1130.01 2001.41 L1127.54 2000.96 L1126.08 2002.54 L1125.97 2005.01 L1123.50 2010.51 L1122.49 2013.32 L1123.05 2016.01 L1124.85 2016.35 L1125.97 2017.81 L1128.10 2018.48 L1128.55 2019.38 L1129.00 2023.42 L1128.89 2024.32 L1129.45 2028.47 L1127.32 2030.49 L1126.42 2033.53 L1123.72 2035.77 L1096.55 1868.25 L1076.67 1745.64 L1056.68 1623.03 L1036.81 1500.41 L1016.93 1377.69 L1002.67 1289.66 L999.64 1271.25 L998.52 1264.51 L985.83 1186.36 L973.48 1110.35 L969.10 1083.18 L953.49 986.50 L937.77 889.94 L1009.41 879.39 L1011.43 879.05 L981.79 697.27 L957.75 547.37 L1015.02 537.27 L1061.74 528.96 L1063.76 528.73 L1072.97 527.05 L1077.46 525.93 L1086.78 522.56 L1090.26 521.55 L1093.52 520.99 L1099.47 520.31 L1099.92 520.54 L1102.73 520.31 L1107.44 519.97 L1113.28 519.53 L1114.85 519.30 L1117.77 518.85 L1122.49 517.95 L1131.47 556.24 L1160.67 681.21 L1272.06 653.14 L1273.08 652.80 L1282.28 674.92 L1317.32 758.68 L1328.10 784.51 L1331.69 793.04 L1336.75 805.28 L1342.92 819.99 L1364.37 871.08 L1369.31 882.76 L1377.96 903.41 L1395.14 946.19 L1397.50 952.03 L1398.40 954.28 L1412.66 989.65 L1416.47 992.12 L1420.52 997.28 L1427.03 1005.14 L1431.52 1010.76 L1440.39 1021.76 L1542.92 1009.97 L1587.72 1004.80 L1616.58 997.28 L1627.81 994.36 L1636.01 993.13 L1652.18 990.55 L1661.61 991.33 L1685.08 980.33 L1697.32 978.64 L1699.45 987.85 L1700.69 987.63 L1702.82 986.84 L1703.61 986.95 L1710.68 985.72 L1730.78 982.12 L1778.40 973.48 L1776.71 962.36 L1777.84 961.02 L1778.73 965.96 L1778.96 967.98 L1779.63 972.02 L1780.76 978.53 L1783.45 994.59 L1784.69 1001.77 L1785.36 1005.37 L1785.81 1007.84 L1786.37 1011.65 L1787.61 1018.39 L1788.84 1026.48 L1789.07 1027.71 L1790.19 1034.78 L1790.75 1037.59 L1790.86 1038.94 L1791.09 1040.06 L1792.43 1048.59 L1793.33 1053.53 L1793.33 1053.98 L1793.89 1057.35 L1794.34 1060.05 L1794.90 1063.19 L1795.13 1064.43 L1795.47 1067.01 L1795.92 1069.59 L1796.59 1073.86 L1796.93 1075.54 L1798.16 1083.06 L1799.73 1084.97 L1801.08 1092.27 L1801.75 1096.43 L1802.54 1101.59 L1804.23 1110.91 L1805.80 1120.23 L1807.26 1128.88 L1810.29 1146.95 L1810.74 1149.20 L1810.85 1150.10 L1812.31 1158.52 L1815.45 1178.17 L1816.69 1185.24 L1818.49 1196.47 L1819.95 1204.89 L1820.17 1208.15 L1821.18 1216.34 L1825.22 1241.27 L1829.27 1262.94 L1829.27 1265.41 L1831.18 1275.29 L1833.31 1289.33 L1833.65 1291.68 L1838.47 1321.21 L1838.81 1323.01 L1839.60 1327.50 L1840.16 1330.87 L1840.83 1334.57 L1841.39 1337.94 L1841.84 1340.75 L1846.78 1368.48 L1851.50 1395.54 L1851.73 1396.89 L1852.85 1403.29 L1856.44 1423.84 L1858.58 1435.40 L1859.47 1441.02 L1860.71 1447.75 L1862.84 1459.77 L1863.07 1461.23 L1863.40 1462.91 L1864.08 1467.07 L1864.75 1470.66 L1865.09 1472.91 L1865.43 1474.70 L1865.54 1475.38 L1866.32 1479.75 L1866.77 1482.00 L1867.90 1488.51 L1869.13 1495.25 L1870.25 1502.21 L1871.49 1509.06 L1871.71 1510.07 L1871.83 1510.97 L1871.94 1511.75 L1872.05 1512.54 L1872.72 1516.47 L1873.85 1523.43 L1874.63 1527.92 L1875.19 1531.07 L1875.42 1532.64 L1875.76 1534.66 L1876.88 1541.40 L1877.55 1546.00 L1878.00 1548.58 L1878.34 1550.38 L1879.57 1558.01 L1882.16 1573.17 L1882.49 1575.31 L1882.61 1576.09 L1883.06 1578.79 L1883.73 1583.17 L1884.07 1585.52 L1884.85 1590.13 L1885.30 1593.05 L1885.64 1595.63 L1886.65 1602.37 L1886.87 1603.71 L1887.21 1605.96 L1887.21 1606.30 L1887.55 1608.20 L1888.00 1610.56 L1888.33 1612.47 L1888.67 1614.49 L1889.12 1616.51 L1889.34 1618.09 L1889.79 1620.78 L1890.69 1625.72 L1891.48 1629.43 L1891.93 1632.46 L1892.94 1637.85 L1893.27 1639.53 L1894.40 1645.59 L1894.96 1648.96 L1895.86 1654.02 L1897.09 1660.64 L1897.54 1663.22 L1900.24 1678.49 L1901.02 1682.76 L1901.70 1686.69 L1903.04 1693.65 L1903.38 1695.78 L1904.73 1704.20 L1905.63 1709.48 L1905.96 1711.50 L1906.08 1712.18 L1906.19 1712.96 L1906.52 1714.98 L1907.65 1721.95 L1907.98 1723.63 L1908.10 1724.64 L1908.43 1726.21 L1909.33 1731.71 L1909.56 1732.95 L1910.34 1737.44 L1911.13 1742.61 L1911.91 1747.32 L1912.36 1749.90 L1913.15 1754.28 L1913.94 1759.22 L1914.27 1761.69 L1914.61 1763.26 L1915.51 1769.10 L1916.18 1773.26 L1916.41 1774.16 L1917.08 1777.97 L1917.75 1782.13 L1917.98 1783.70 L1917.98 1784.26 L1918.20 1786.62 L1918.20 1786.84 L1918.32 1788.64 L1918.20 1790.32 L1918.20 1790.44 L1917.98 1791.90 L1917.64 1793.47 L1917.42 1794.37 L1917.19 1794.93 L1916.63 1796.16 L1916.18 1797.40 L1914.72 1800.65 L1914.05 1802.11 L1913.60 1803.35 L1913.49 1803.69 L1912.93 1805.71 L1912.59 1807.84 L1912.48 1809.19 L1912.36 1810.31 L1912.36 1811.32 L1912.36 1813.23 L1912.59 1815.03 L1912.81 1816.49 L1913.26 1819.41 L1913.49 1820.98 L1914.05 1824.57 L1914.83 1829.62 L1915.51 1833.22 L1915.73 1835.24 L1917.42 1844.89 L1918.65 1852.08 L1918.76 1852.75 L1918.88 1853.65 L1920.34 1863.53 L1922.47 1876.22 L1922.70 1877.79 L1923.82 1884.42 L1924.15 1886.21 L1924.72 1889.69 L1925.28 1893.17 L1925.50 1894.86 L1928.76 1915.41 L1930.11 1923.60 L1931.45 1932.14 L1932.35 1937.86 L1933.59 1945.27 L1933.81 1947.29 L1934.49 1951.45 L1934.82 1953.13 L1935.50 1957.74 L1936.96 1966.38 L1937.85 1972.56 L1938.87 1978.40 L1939.65 1983.22 L1940.44 1988.28 L1940.66 1989.51 L1941.45 1994.56 L1943.24 2005.12 L1943.58 2006.58 L1907.54 2020.16 L1862.73 2029.93 L1838.81 2034.76 L1819.50 2033.30 L1801.31 2038.58 L1786.82 2045.09 L1785.58 2040.94 L1777.50 1985.36 L1768.85 1986.93 L1764.02 1988.05 L1763.35 1987.71 L1756.05 1988.95 L1754.48 1989.29 L1744.15 1991.20 L1739.77 1991.98 L1733.82 1992.88 L1721.13 1995.24 L1704.85 1998.16 L1703.83 1998.38 L1678.57 2003.21 L1669.02 2005.01 L1663.86 2006.02 L1658.13 2007.14 L1648.81 2008.82 L1650.72 2020.39 L1651.39 2024.21 L1652.74 2032.29 L1653.41 2036.22 L1654.65 2043.18 L1656.11 2052.05 L1658.92 2070.58 L1662.06 2090.00 L1662.17 2090.45 L1662.51 2092.36 L1665.88 2113.47 L1666.22 2115.49 L1664.31 2116.28 L1628.93 2127.51 L1626.46 2128.29 L1625.12 2128.74 L1619.50 2129.86 L1619.50 2129.86 Z" stroke-linejoin="round"/>
	</defs>
	<use xlink:href="#path_vBvbmcTl" style="fill:#9DC8CA;stroke:#9DD7F0;stroke-width:5.76"/>
	<defs>
		<path id="path_lwBQMrar" d="M1951.89 1980.87 L1951.89 1980.87 L1951.89 1980.87 L1939.65 1983.22 L1938.87 1978.40 L1937.85 1972.56 L1936.96 1966.38 L1935.50 1957.74 L1934.82 1953.13 L1934.49 1951.45 L1933.81 1947.29 L1933.59 1945.27 L1932.35 1937.86 L1931.45 1932.14 L1930.11 1923.60 L1928.76 1915.41 L1925.50 1894.86 L1925.28 1893.17 L1924.72 1889.69 L1924.15 1886.21 L1923.82 1884.42 L1922.70 1877.79 L1922.47 1876.22 L1920.34 1863.53 L1918.88 1853.65 L1918.76 1852.75 L1918.65 1852.08 L1917.42 1844.89 L1915.73 1835.24 L1915.51 1833.22 L1914.83 1829.62 L1914.05 1824.57 L1913.49 1820.98 L1913.26 1819.41 L1912.81 1816.49 L1912.59 1815.03 L1912.36 1813.23 L1912.36 1811.32 L1912.36 1810.31 L1912.48 1809.19 L1912.59 1807.84 L1912.93 1805.71 L1913.49 1803.69 L1913.60 1803.35 L1914.05 1802.11 L1914.72 1800.65 L1916.18 1797.40 L1916.63 1796.16 L1917.19 1794.93 L1917.42 1794.37 L1917.64 1793.47 L1917.98 1791.90 L1918.20 1790.44 L1918.20 1790.32 L1918.32 1788.64 L1918.20 1786.84 L1918.20 1786.62 L1917.98 1784.26 L1917.98 1783.70 L1917.75 1782.13 L1917.08 1777.97 L1916.41 1774.16 L1916.18 1773.26 L1915.51 1769.10 L1914.61 1763.26 L1914.27 1761.69 L1913.94 1759.22 L1913.15 1754.28 L1912.36 1749.90 L1911.91 1747.32 L1911.13 1742.61 L1910.34 1737.44 L1909.56 1732.95 L1909.33 1731.71 L1908.43 1726.21 L1908.10 1724.64 L1907.98 1723.63 L1907.65 1721.95 L1906.52 1714.98 L1906.19 1712.96 L1906.08 1712.18 L1905.96 1711.50 L1905.63 1709.48 L1904.73 1704.20 L1903.38 1695.78 L1903.04 1693.65 L1901.70 1686.69 L1901.02 1682.76 L1900.24 1678.49 L1897.54 1663.22 L1897.09 1660.64 L1895.86 1654.02 L1894.96 1648.96 L1894.40 1645.59 L1893.27 1639.53 L1892.94 1637.85 L1891.93 1632.46 L1891.48 1629.43 L1890.69 1625.72 L1889.79 1620.78 L1889.34 1618.09 L1889.12 1616.51 L1888.67 1614.49 L1888.33 1612.47 L1888.00 1610.56 L1887.55 1608.20 L1887.21 1606.30 L1887.21 1605.96 L1886.87 1603.71 L1886.65 1602.37 L1885.64 1595.63 L1885.30 1593.05 L1884.85 1590.13 L1884.07 1585.52 L1883.73 1583.17 L1883.06 1578.79 L1882.61 1576.09 L1882.49 1575.31 L1882.16 1573.17 L1879.57 1558.01 L1878.34 1550.38 L1878.00 1548.58 L1877.55 1546.00 L1876.88 1541.40 L1875.76 1534.66 L1875.42 1532.64 L1875.19 1531.07 L1874.63 1527.92 L1873.85 1523.43 L1872.72 1516.47 L1872.05 1512.54 L1871.94 1511.75 L1871.83 1510.97 L1871.71 1510.07 L1871.49 1509.06 L1870.25 1502.21 L1869.13 1495.25 L1867.90 1488.51 L1866.77 1482.00 L1866.32 1479.75 L1865.54 1475.38 L1865.43 1474.70 L1865.09 1472.91 L1864.75 1470.66 L1864.08 1467.07 L1863.40 1462.91 L1863.07 1461.23 L1862.84 1459.77 L1860.71 1447.75 L1859.47 1441.02 L1858.58 1435.40 L1856.44 1423.84 L1852.85 1403.29 L1851.73 1396.89 L1851.50 1395.54 L1846.78 1368.48 L1841.84 1340.75 L1841.39 1337.94 L1840.83 1334.57 L1840.16 1330.87 L1839.60 1327.50 L1838.81 1323.01 L1838.47 1321.21 L1833.65 1291.68 L1833.31 1289.33 L1831.18 1275.29 L1829.27 1265.41 L1829.27 1262.94 L1825.22 1241.27 L1821.18 1216.34 L1820.17 1208.15 L1819.95 1204.89 L1818.49 1196.47 L1816.69 1185.24 L1815.45 1178.17 L1812.31 1158.52 L1810.85 1150.10 L1810.74 1149.20 L1810.29 1146.95 L1807.26 1128.88 L1805.80 1120.23 L1804.23 1110.91 L1802.54 1101.59 L1801.75 1096.43 L1801.08 1092.27 L1799.73 1084.97 L1798.16 1083.06 L1796.93 1075.54 L1796.59 1073.86 L1795.92 1069.59 L1795.47 1067.01 L1795.13 1064.43 L1794.90 1063.19 L1794.34 1060.05 L1793.89 1057.35 L1793.33 1053.98 L1793.33 1053.53 L1792.43 1048.59 L1791.09 1040.06 L1790.86 1038.94 L1790.75 1037.59 L1790.19 1034.78 L1789.07 1027.71 L1788.84 1026.48 L1787.61 1018.39 L1786.37 1011.65 L1785.81 1007.84 L1785.36 1005.37 L1784.69 1001.77 L1783.45 994.59 L1780.76 978.53 L1779.63 972.02 L1778.96 967.98 L1780.98 967.75 L1782.10 968.09 L1812.31 979.77 L1870.25 976.51 L1869.92 974.49 L1888.56 972.80 L1928.76 1013.90 L1929.10 1014.24 L1937.18 1013.11 L1946.39 1011.77 L1946.84 1011.65 L1949.87 1010.98 L1947.85 1008.40 L1934.26 991.22 L1927.86 981.90 L1924.38 976.29 L1919.33 968.31 L1915.17 960.90 L1909.78 950.57 L1883.50 899.04 L1876.21 884.78 L1869.58 871.19 L1876.77 871.75 L1887.43 892.75 L1887.77 893.53 L1888.11 893.76 L1888.45 894.10 L1889.01 894.32 L1889.68 894.21 L1893.50 893.53 L1894.06 893.31 L1894.40 892.75 L1894.51 892.41 L1894.62 891.85 L1899.79 890.95 L1903.72 890.84 L1912.70 889.38 L1918.99 888.14 L1921.80 895.22 L1928.53 893.53 L1933.03 901.17 L1936.51 905.89 L1945.04 917.11 L1946.73 919.58 L1947.96 918.46 L1950.32 921.49 L1951.89 919.81 L1956.38 914.64 L1959.53 907.91 L1964.69 907.68 L1966.94 907.46 L1974.01 917.34 L1975.70 921.38 L1976.37 923.63 L1976.60 926.21 L1976.71 927.44 L1976.82 929.80 L1977.05 930.25 L1978.39 933.28 L1983.90 936.76 L1986.37 939.12 L1986.81 939.57 L1988.84 941.48 L1990.52 944.73 L1991.31 946.08 L2000.96 961.58 L2001.97 964.05 L2002.54 965.06 L2009.72 978.08 L2038.69 1026.14 L2040.72 1030.41 L2041.61 1032.09 L2040.83 1033.66 L2039.26 1035.01 L2037.23 1036.13 L2033.19 1031.53 L2032.52 1030.85 L2032.18 1030.74 L2031.84 1030.85 L2027.58 1033.10 L2027.35 1033.55 L2027.35 1034.00 L2028.59 1035.68 L2031.51 1042.31 L2031.73 1042.64 L2032.29 1042.76 L2033.08 1042.53 L2035.21 1041.63 L2037.35 1040.17 L2041.05 1036.92 L2042.06 1036.36 L2043.30 1037.03 L2060.14 1060.61 L2062.39 1063.75 L2069.69 1073.07 L2083.84 1095.86 L2084.17 1096.54 L2106.74 1132.81 L2109.10 1139.54 L2110.67 1144.37 L2110.23 1148.19 L2108.43 1152.79 L2105.85 1155.82 L2105.96 1159.87 L2106.30 1163.12 L2108.54 1168.51 L2117.86 1159.98 L2121.34 1161.66 L2123.36 1165.03 L2157.61 1218.59 L2157.61 1219.04 L2157.28 1219.26 L2153.91 1219.60 L2153.57 1219.82 L2153.57 1220.38 L2156.72 1242.06 L2171.09 1268.33 L2189.62 1305.27 L2206.46 1314.70 L2229.14 1328.62 L2236.22 1340.08 L2243.52 1352.88 L2242.17 1370.73 L2250.93 1393.19 L2260.92 1407.00 L2261.04 1407.45 L2259.24 1411.49 L2259.35 1412.05 L2259.80 1412.39 L2262.72 1410.81 L2263.06 1410.70 L2268.67 1420.92 L2278.11 1431.81 L2282.04 1433.94 L2285.18 1436.19 L2287.99 1441.80 L2298.54 1453.03 L2300.56 1452.92 L2302.36 1453.26 L2304.27 1455.16 L2308.54 1463.59 L2312.13 1471.11 L2328.86 1496.82 L2336.05 1510.52 L2339.31 1515.91 L2344.92 1524.55 L2345.26 1525.12 L2346.27 1527.92 L2351.99 1536.68 L2357.50 1543.75 L2358.28 1545.55 L2360.87 1549.03 L2361.88 1551.73 L2364.12 1556.55 L2366.59 1560.71 L2367.72 1562.51 L2368.84 1564.30 L2370.86 1566.44 L2372.09 1567.33 L2374.34 1570.81 L2377.93 1572.39 L2379.28 1576.09 L2380.63 1577.89 L2381.19 1578.11 L2383.55 1579.01 L2384.56 1579.35 L2385.79 1579.46 L2386.81 1579.46 L2388.15 1579.46 L2390.29 1579.46 L2392.42 1579.35 L2394.78 1579.24 L2397.14 1579.01 L2398.15 1578.90 L2399.38 1578.56 L2400.51 1578.11 L2401.52 1577.66 L2403.31 1576.65 L2405.78 1575.31 L2407.47 1574.30 L2409.38 1573.28 L2411.85 1572.05 L2412.52 1571.71 L2413.19 1571.60 L2413.76 1571.49 L2414.54 1571.60 L2414.77 1571.83 L2415.22 1572.05 L2415.55 1572.50 L2415.89 1573.28 L2416.34 1573.96 L2416.68 1574.52 L2417.35 1576.09 L2417.35 1576.88 L2417.01 1577.55 L2416.56 1578.00 L2415.44 1578.56 L2408.25 1582.27 L2406.79 1582.94 L2405.67 1583.39 L2404.66 1583.73 L2403.54 1584.06 L2401.97 1584.29 L2400.84 1584.51 L2399.72 1584.85 L2398.71 1585.19 L2397.81 1585.64 L2397.02 1586.08 L2396.35 1586.87 L2395.68 1587.66 L2394.89 1588.78 L2393.88 1590.58 L2392.64 1592.48 L2392.31 1592.93 L2392.08 1593.27 L2391.75 1593.38 L2391.41 1593.38 L2390.96 1593.16 L2390.51 1592.82 L2390.06 1592.82 L2389.73 1592.93 L2389.39 1593.27 L2388.94 1594.51 L2388.38 1595.85 L2388.04 1597.09 L2388.04 1597.87 L2388.38 1598.66 L2388.71 1599.45 L2390.96 1603.60 L2407.02 1629.99 L2407.69 1631.11 L2413.42 1648.06 L2409.26 1656.49 L2410.05 1659.97 L2414.65 1665.47 L2426.45 1677.37 L2431.39 1681.75 L2441.49 1701.29 L2452.83 1722.17 L2454.18 1738.23 L2458.11 1746.42 L2462.04 1753.61 L2463.73 1767.98 L2471.59 1782.24 L2475.29 1789.43 L2484.28 1804.70 L2494.38 1819.85 L2503.37 1835.24 L2515.83 1857.81 L2523.13 1869.48 L2517.07 1869.60 L2515.72 1870.16 L2514.48 1870.61 L2511.68 1871.17 L2503.48 1872.85 L2501.46 1873.08 L2486.41 1875.43 L2465.41 1878.80 L2457.10 1880.26 L2455.30 1880.49 L2448.68 1881.61 L2440.48 1882.84 L2431.84 1884.19 L2421.17 1885.99 L2403.54 1889.24 L2401.85 1888.23 L2382.88 1870.94 L2381.30 1869.37 L2380.85 1868.47 L2380.85 1874.87 L2349.75 1846.58 L2345.59 1842.09 L2342.22 1837.03 L2338.07 1829.40 L2334.48 1821.54 L2332.01 1814.69 L2330.77 1809.08 L2301.24 1813.01 L2300.11 1814.24 L2301.80 1815.70 L2305.06 1818.51 L2315.05 1827.38 L2319.43 1831.19 L2321.79 1833.22 L2324.71 1835.80 L2324.93 1836.02 L2326.73 1837.59 L2328.19 1838.83 L2320.44 1849.05 L2316.17 1854.44 L2316.06 1854.44 L2314.94 1856.12 L2313.48 1857.69 L2308.99 1861.17 L2304.61 1863.76 L2304.16 1863.98 L2298.99 1865.78 L2296.86 1866.34 L2287.76 1868.36 L2267.44 1872.74 L2265.87 1873.19 L2265.08 1873.08 L2203.54 1886.66 L2194.33 1888.80 L2193.10 1889.02 L2174.46 1893.29 L2170.98 1893.29 L2167.72 1892.73 L2161.21 1890.93 L2158.51 1890.37 L2156.94 1890.48 L2155.37 1890.70 L2150.09 1891.60 L2120.11 1898.11 L2118.09 1899.13 L2117.75 1899.57 L2117.19 1900.36 L2116.74 1901.71 L2122.35 1932.58 L2117.86 1933.15 L2110.45 1899.13 L2107.64 1888.46 L2078.33 1892.61 L2071.60 1851.97 L1991.87 1863.64 L1992.77 1869.37 L2015.56 1865.67 L2016.24 1865.78 L2016.57 1866.00 L2017.13 1866.68 L2018.14 1872.74 L2017.92 1873.52 L2017.58 1873.86 L2016.91 1874.20 L2014.44 1874.65 L1977.94 1880.82 L1942.12 1886.89 L1935.72 1887.78 L1948.97 1964.14 L1951.89 1980.87 L1951.89 1980.87 Z" stroke-linejoin="round"/>
	</defs>
	<use xlink:href="#path_lwBQMrar" style="fill:#9DC8CA;stroke:#9DD7F0;stroke-width:5.76"/>
	<defs>
		<path id="path_uuhJoASz" d="M927.66 3522.15 L927.66 3522.15 L927.77 3522.94 L928.22 3523.95 L928.33 3525.86 L928.22 3527.43 L927.77 3529.67 L927.66 3532.14 L927.77 3533.94 L927.43 3534.84 L927.88 3537.76 L927.21 3539.33 L926.76 3540.90 L926.76 3541.91 L924.40 3542.14 L923.28 3541.91 L920.81 3541.69 L918.11 3541.13 L918.11 3541.35 L917.55 3542.14 L916.77 3542.81 L915.42 3543.03 L914.75 3542.70 L914.07 3542.59 L912.61 3542.70 L903.40 3544.16 L870.61 3549.77 L862.30 3551.12 L853.88 3552.35 L837.60 3555.39 L820.87 3557.86 L817.50 3552.35 L816.71 3551.12 L816.15 3549.32 L816.04 3548.09 L815.59 3546.63 L813.46 3543.26 L810.54 3537.53 L808.29 3533.72 L806.16 3530.12 L798.63 3520.69 L798.18 3519.79 L797.85 3517.88 L797.74 3516.65 L795.60 3504.07 L795.26 3501.15 L794.48 3490.60 L794.14 3488.24 L793.69 3486.56 L792.68 3483.08 L790.44 3475.33 L789.43 3469.72 L788.86 3462.30 L787.85 3458.49 L787.40 3457.25 L784.48 3452.65 L777.86 3440.19 L775.73 3435.47 L772.92 3428.40 L771.91 3426.49 L768.65 3421.88 L765.96 3418.51 L764.50 3417.06 L762.92 3416.04 L761.91 3415.26 L760.90 3414.25 L760.12 3413.24 L759.22 3411.44 L758.88 3410.32 L758.77 3409.20 L758.77 3407.96 L759.67 3402.12 L760.00 3397.86 L759.56 3394.15 L758.99 3392.13 L757.65 3387.97 L756.19 3383.03 L754.61 3376.97 L752.71 3370.68 L751.02 3366.42 L750.46 3364.96 L749.11 3361.81 L746.42 3356.09 L745.29 3353.17 L744.40 3349.01 L741.93 3333.07 L740.91 3329.25 L740.35 3327.79 L739.45 3326.11 L737.21 3320.83 L736.31 3318.36 L735.86 3316.79 L734.18 3309.38 L733.05 3306.35 L731.03 3301.97 L728.56 3296.58 L723.96 3286.58 L722.61 3283.33 L721.71 3281.64 L713.29 3268.84 L712.17 3266.71 L710.93 3263.57 L708.24 3257.73 L707.11 3254.92 L706.10 3250.21 L705.09 3243.92 L704.87 3241.90 L704.87 3240.77 L705.09 3240.10 L705.88 3238.42 L711.16 3228.98 L714.08 3224.83 L715.54 3222.92 L721.38 3213.71 L727.10 3203.61 L728.79 3200.24 L729.69 3198.11 L730.47 3195.97 L731.59 3192.04 L733.95 3181.26 L734.40 3179.69 L734.96 3178.46 L735.64 3177.33 L736.54 3176.55 L737.77 3175.65 L739.57 3174.86 L740.47 3174.19 L741.14 3173.52 L741.59 3172.62 L742.60 3170.60 L744.40 3165.21 L745.97 3162.18 L749.34 3156.34 L750.68 3154.32 L758.54 3143.88 L763.04 3138.93 L763.82 3135.34 L764.05 3133.43 L764.16 3132.20 L764.05 3130.51 L763.71 3128.60 L763.37 3124.56 L763.26 3119.06 L762.70 3111.31 L762.14 3105.59 L759.56 3088.07 L757.53 3078.53 L756.64 3076.17 L752.82 3069.10 L752.14 3067.07 L751.58 3064.83 L751.13 3061.69 L751.36 3058.20 L751.81 3056.30 L752.59 3054.05 L753.49 3051.58 L754.39 3049.56 L755.40 3047.99 L756.41 3046.64 L757.65 3045.40 L759.56 3043.72 L762.36 3041.59 L765.62 3038.89 L767.75 3036.09 L768.65 3034.40 L769.89 3031.48 L771.12 3028.11 L774.38 3017.00 L779.32 3004.20 L782.69 2996.79 L784.37 2992.74 L784.82 2991.51 L785.38 2990.16 L787.97 2981.18 L788.30 2978.71 L788.75 2973.77 L788.75 2970.96 L788.64 2968.38 L788.30 2965.12 L787.29 2951.87 L785.83 2939.64 L783.14 2921.89 L782.01 2912.46 L781.68 2906.51 L781.45 2895.96 L781.34 2889.11 L781.57 2885.63 L782.46 2878.44 L783.36 2874.06 L783.70 2871.26 L784.60 2860.93 L786.06 2851.27 L786.17 2848.35 L785.50 2829.82 L785.83 2823.20 L786.39 2817.92 L787.52 2810.29 L788.98 2802.99 L789.76 2799.85 L790.55 2797.49 L792.12 2793.33 L796.84 2783.79 L799.87 2778.62 L803.57 2773.68 L809.75 2766.61 L811.55 2764.14 L814.02 2760.32 L815.14 2757.96 L815.59 2756.62 L815.81 2755.38 L815.93 2753.59 L815.70 2751.79 L814.80 2748.31 L813.46 2741.80 L809.30 2740.22 L806.83 2739.89 L805.93 2739.89 L805.37 2740.22 L804.92 2740.67 L804.92 2741.68 L804.70 2742.47 L804.36 2742.92 L803.69 2743.14 L803.24 2743.03 L802.68 2742.47 L799.98 2738.99 L798.07 2737.19 L795.71 2735.51 L794.37 2734.95 L792.79 2734.72 L791.56 2734.50 L791.11 2734.16 L789.54 2732.48 L789.20 2731.92 L788.98 2731.13 L788.98 2730.46 L789.99 2727.31 L791.00 2725.85 L793.02 2720.69 L793.13 2720.24 L793.02 2719.68 L792.68 2718.78 L792.23 2717.77 L791.45 2717.09 L791.22 2716.87 L790.55 2716.98 L790.10 2717.21 L789.76 2717.77 L789.43 2718.10 L788.98 2718.10 L788.19 2717.77 L786.96 2715.63 L786.73 2714.74 L786.84 2713.39 L786.84 2712.94 L786.39 2712.38 L785.50 2711.59 L785.16 2711.26 L784.93 2710.58 L784.71 2709.68 L785.05 2706.65 L784.93 2705.42 L784.60 2704.86 L784.04 2704.29 L782.46 2703.17 L782.13 2702.50 L782.46 2701.60 L782.35 2699.58 L783.25 2696.66 L783.36 2695.54 L783.70 2694.30 L783.47 2689.92 L783.36 2689.14 L782.58 2687.11 L782.58 2686.55 L782.80 2684.53 L783.02 2683.19 L783.47 2682.29 L784.71 2679.93 L784.82 2679.26 L784.82 2676.22 L785.27 2674.99 L785.94 2673.75 L786.51 2673.08 L787.74 2671.84 L788.42 2671.40 L790.21 2670.83 L792.91 2669.60 L794.25 2668.59 L795.94 2667.80 L796.84 2667.13 L797.29 2666.23 L797.29 2665.56 L796.61 2661.29 L796.61 2660.73 L796.50 2659.04 L796.28 2658.60 L795.04 2657.47 L793.47 2656.46 L792.46 2656.24 L789.99 2655.00 L788.98 2654.89 L788.19 2655.00 L785.38 2653.54 L782.35 2652.76 L781.68 2652.76 L781.34 2652.98 L780.67 2653.99 L780.33 2654.22 L778.87 2654.33 L778.20 2654.10 L776.40 2652.87 L776.06 2652.53 L775.84 2652.20 L775.61 2650.62 L775.50 2650.06 L775.28 2649.73 L773.59 2648.94 L773.26 2648.49 L773.03 2647.59 L773.03 2645.80 L772.58 2642.99 L771.23 2637.15 L770.78 2634.79 L770.67 2633.44 L770.78 2632.66 L771.23 2631.54 L771.91 2630.53 L773.03 2629.51 L773.93 2628.95 L774.94 2628.73 L775.95 2628.62 L777.41 2628.84 L779.43 2629.40 L780.89 2630.41 L782.69 2631.98 L783.47 2632.43 L784.15 2632.88 L785.05 2633.11 L786.06 2633.78 L787.63 2635.13 L788.30 2635.91 L788.98 2636.93 L789.31 2637.26 L790.21 2637.37 L790.89 2637.26 L791.33 2637.37 L792.79 2638.27 L793.92 2639.17 L795.26 2640.07 L796.28 2640.52 L799.42 2641.08 L799.87 2641.30 L801.22 2642.20 L802.45 2643.44 L803.35 2644.11 L808.29 2646.58 L809.19 2647.37 L810.09 2648.49 L811.21 2649.39 L812.22 2649.73 L814.47 2650.06 L814.92 2650.40 L815.81 2651.30 L816.38 2652.31 L817.84 2654.10 L820.42 2656.01 L822.10 2656.69 L822.66 2656.69 L824.91 2656.46 L826.93 2656.35 L833.00 2649.84 L832.43 2648.60 L831.87 2646.92 L831.76 2644.78 L831.87 2638.83 L831.65 2637.37 L831.20 2637.04 L830.75 2637.04 L830.19 2637.37 L829.29 2638.05 L828.28 2638.61 L827.38 2639.73 L826.37 2642.88 L826.03 2643.44 L825.36 2643.77 L824.80 2643.77 L824.01 2643.21 L822.89 2643.10 L822.44 2643.10 L821.43 2643.55 L820.98 2643.89 L820.64 2644.34 L820.53 2644.78 L820.42 2645.57 L820.08 2646.02 L819.86 2646.02 L819.41 2645.68 L819.41 2645.35 L819.74 2642.99 L819.63 2641.53 L819.97 2640.41 L820.08 2639.40 L819.74 2638.05 L819.41 2637.60 L818.96 2637.37 L818.62 2637.37 L816.71 2637.71 L815.48 2637.82 L814.24 2637.60 L813.79 2637.49 L813.46 2637.15 L811.77 2634.68 L810.99 2631.65 L810.42 2631.09 L808.96 2630.53 L808.18 2630.41 L806.38 2630.64 L805.03 2631.20 L803.57 2631.54 L803.13 2631.54 L802.45 2631.31 L802.00 2630.97 L801.78 2630.41 L802.00 2629.85 L802.68 2629.29 L804.59 2626.60 L806.49 2624.80 L807.39 2624.01 L808.18 2623.11 L808.40 2622.33 L808.85 2620.31 L809.19 2619.18 L812.00 2613.68 L812.67 2612.90 L813.01 2612.67 L813.34 2612.67 L814.02 2612.78 L814.24 2612.67 L814.92 2612.22 L815.70 2611.21 L815.93 2610.43 L816.04 2609.42 L815.70 2606.83 L815.37 2606.16 L814.58 2605.26 L809.86 2598.75 L808.85 2596.39 L808.52 2595.94 L808.07 2595.83 L806.38 2594.71 L805.82 2594.15 L805.15 2592.80 L804.36 2591.90 L803.91 2590.89 L803.46 2588.98 L802.79 2586.62 L802.00 2585.50 L801.22 2583.03 L801.22 2581.91 L801.78 2577.42 L801.89 2576.52 L800.99 2571.13 L800.54 2565.85 L800.09 2563.38 L799.76 2562.26 L798.63 2559.68 L798.52 2558.89 L799.20 2553.72 L799.64 2549.23 L800.32 2548.11 L801.55 2546.43 L802.34 2545.64 L803.01 2545.19 L806.83 2544.41 L808.29 2543.62 L808.85 2543.17 L810.42 2542.50 L811.21 2542.38 L812.33 2541.82 L812.90 2541.15 L812.90 2540.14 L812.33 2536.32 L812.00 2535.09 L812.00 2533.96 L812.33 2533.63 L813.12 2533.40 L813.79 2533.29 L815.03 2533.29 L815.59 2533.18 L816.60 2532.84 L818.96 2530.48 L819.97 2528.91 L820.87 2527.90 L821.65 2527.34 L822.55 2527.11 L823.56 2527.00 L824.91 2527.00 L826.37 2527.23 L829.18 2528.69 L831.09 2529.25 L831.76 2529.58 L832.55 2530.15 L833.89 2531.94 L835.02 2532.73 L837.71 2533.29 L841.87 2534.75 L842.54 2534.75 L842.77 2534.75 L843.33 2534.30 L844.00 2533.63 L845.46 2533.51 L846.02 2533.74 L846.81 2534.52 L847.82 2534.64 L848.94 2534.30 L849.62 2534.30 L850.29 2534.52 L851.64 2534.41 L852.53 2533.96 L853.10 2533.40 L853.32 2532.73 L853.21 2532.05 L852.98 2530.93 L852.53 2530.03 L852.65 2529.58 L853.10 2528.69 L853.10 2528.24 L852.76 2527.00 L852.98 2526.33 L853.21 2525.99 L855.90 2523.63 L858.26 2521.39 L862.64 2517.35 L865.45 2516.00 L865.79 2515.55 L866.01 2513.64 L867.36 2509.37 L868.03 2507.58 L868.71 2507.02 L869.38 2506.57 L870.39 2506.34 L871.85 2506.23 L872.86 2506.01 L874.10 2505.33 L875.67 2503.54 L877.13 2503.09 L880.27 2503.09 L880.72 2502.97 L881.17 2502.64 L881.96 2499.83 L882.63 2498.48 L883.86 2496.57 L885.21 2493.88 L886.45 2492.53 L887.57 2491.52 L888.69 2490.96 L893.19 2489.05 L894.87 2488.71 L899.14 2488.94 L900.60 2488.71 L902.51 2488.71 L903.85 2489.05 L905.09 2489.61 L905.76 2490.06 L906.66 2490.29 L907.56 2490.06 L908.91 2489.50 L910.59 2487.59 L911.15 2486.69 L912.16 2485.46 L912.95 2484.78 L914.63 2483.66 L920.58 2481.64 L924.40 2480.74 L928.33 2481.08 L932.15 2480.74 L937.77 2481.30 L941.92 2482.65 L943.61 2482.65 L946.64 2482.65 L952.03 2483.32 L955.06 2484.22 L957.64 2485.23 L959.44 2485.23 L960.45 2484.90 L962.58 2484.11 L964.15 2482.99 L965.28 2482.65 L966.06 2482.54 L968.42 2482.54 L969.43 2482.43 L971.57 2481.53 L973.36 2480.29 L975.72 2479.39 L977.07 2479.17 L981.00 2479.06 L982.91 2478.50 L985.04 2478.61 L985.83 2478.38 L986.50 2477.93 L987.40 2477.82 L988.07 2478.16 L990.43 2479.39 L991.55 2479.51 L992.57 2479.39 L993.35 2479.17 L993.80 2478.61 L994.81 2477.49 L995.60 2475.80 L996.16 2473.89 L996.72 2472.99 L997.28 2472.32 L998.74 2471.76 L1000.09 2471.65 L1001.10 2471.87 L1005.03 2472.88 L1006.04 2472.77 L1007.16 2472.10 L1007.61 2471.42 L1008.85 2469.51 L1010.42 2467.38 L1018.39 2459.86 L1019.29 2459.30 L1020.75 2459.30 L1021.65 2459.63 L1022.21 2460.08 L1024.12 2462.66 L1024.79 2463.23 L1026.25 2463.56 L1027.26 2463.45 L1028.27 2462.89 L1029.96 2460.64 L1031.19 2459.97 L1032.65 2459.41 L1033.44 2458.85 L1036.92 2455.37 L1042.54 2448.74 L1056.57 2441.22 L1071.62 2435.83 L1090.82 2422.24 L1116.99 2410.00 L1139.33 2393.39 L1150.56 2387.77 L1152.02 2387.44 L1152.81 2386.99 L1150.79 2385.86 L1142.14 2381.26 L1136.53 2378.12 L1028.50 2319.62 L1029.17 2317.37 L1023.90 2316.47 L1022.44 2316.25 L1016.48 2315.46 L1014.69 2315.24 L1012.89 2315.01 L1010.64 2314.79 L1008.06 2314.57 L1006.15 2314.45 L1003.91 2314.34 L1001.44 2314.23 L998.74 2314.12 L997.28 2314.00 L995.71 2314.12 L993.69 2314.00 L990.88 2314.12 L989.53 2314.12 L986.95 2314.23 L984.82 2314.34 L982.80 2314.45 L980.10 2314.68 L977.63 2314.90 L975.16 2315.13 L973.70 2315.35 L971.23 2315.69 L970.22 2315.80 L969.43 2315.91 L967.41 2316.25 L964.72 2316.70 L958.88 2317.60 L949.22 2319.28 L936.64 2321.41 L923.17 2323.55 L905.09 2326.58 L875.22 2331.52 L845.35 2336.46 L836.93 2337.81 L818.85 2340.84 L796.84 2344.43 L762.25 2350.05 L724.18 2356.33 L687.91 2362.40 L675.45 2364.42 L636.71 2370.71 L609.98 2375.20 L608.30 2375.53 L608.30 2376.21 L608.41 2376.66 L608.41 2377.11 L608.52 2378.23 L605.49 2379.46 L602.68 2380.47 L593.92 2381.93 L587.18 2382.94 L576.74 2384.52 L570.56 2383.39 L577.64 2429.43 L581.01 2449.53 L581.23 2452.11 L581.01 2472.32 L576.40 2472.99 L568.66 2474.12 L566.97 2474.12 L565.62 2474.01 L564.28 2473.78 L557.65 2471.65 L556.30 2471.65 L554.06 2471.98 L552.49 2472.43 L550.91 2473.22 L550.02 2473.78 L548.33 2475.35 L547.43 2475.80 L546.42 2476.14 L522.50 2480.41 L520.03 2480.97 L517.79 2481.75 L515.99 2482.43 L514.42 2483.32 L514.42 2483.89 L513.07 2484.00 L511.16 2484.11 L507.79 2484.56 L499.37 2485.79 L476.58 2489.39 L470.85 2490.29 L453.55 2493.21 L436.26 2496.01 L419.08 2499.04 L402.01 2501.63 L367.43 2507.13 L349.80 2510.38 L343.06 2511.39 L341.71 2511.62 L340.81 2506.79 L337.33 2484.56 L335.08 2472.88 L333.06 2460.76 L326.33 2425.39 L324.98 2424.71 L324.19 2424.60 L321.95 2424.38 L316.78 2425.39 L314.09 2425.61 L296.90 2428.42 L267.82 2433.47 L253.45 2435.83 L255.69 2451.32 L258.39 2467.61 L258.50 2469.18 L258.50 2470.41 L258.28 2470.97 L257.60 2471.87 L256.82 2472.43 L253.56 2473.44 L251.20 2474.12 L232.90 2476.70 L64.12 2466.59 L57.16 2466.26 L58.95 2465.92 L58.62 2463.79 L44.13 2466.15 L44.02 2465.13 L43.91 2464.46 L43.68 2463.34 L42.22 2458.17 L37.51 2430.66 L35.26 2418.87 L31.11 2395.07 L28.86 2383.06 L28.41 2380.14 L28.86 2377.33 L29.31 2376.21 L29.31 2375.20 L29.20 2374.86 L28.19 2374.07 L37.39 2372.39 L53.45 2370.03 L56.26 2369.02 L57.27 2369.81 L57.83 2370.71 L59.85 2374.86 L60.75 2375.76 L62.10 2375.98 L63.56 2376.43 L66.03 2376.66 L70.30 2376.54 L77.60 2376.10 L80.40 2375.42 L81.75 2374.86 L83.43 2373.29 L84.89 2371.72 L86.13 2370.37 L87.48 2368.57 L88.04 2367.34 L95.23 2363.18 L121.61 2359.03 L136.10 2356.67 L150.47 2354.09 L179.33 2349.60 L207.97 2344.43 L222.23 2342.19 L256.70 2336.46 L257.27 2337.36 L258.28 2338.14 L259.06 2337.81 L260.30 2337.13 L261.64 2335.67 L280.06 2332.87 L295.89 2330.85 L313.86 2327.70 L325.65 2325.57 L340.92 2323.21 L371.69 2317.60 L399.32 2312.88 L417.62 2309.96 L432.67 2307.27 L478.93 2299.86 L482.86 2299.30 L483.87 2299.18 L492.97 2297.72 L524.41 2292.33 L540.13 2289.86 L568.77 2285.60 L577.30 2284.81 L586.29 2283.35 L616.16 2278.97 L631.32 2276.61 L647.71 2274.03 L679.94 2268.31 L692.07 2265.72 L713.29 2261.57 L730.13 2258.54 L751.02 2255.06 L779.99 2250.45 L796.61 2247.65 L825.81 2243.94 L817.61 2192.07 L816.60 2182.86 L811.55 2150.97 L804.36 2101.90 L802.11 2087.65 L799.08 2067.10 L798.30 2061.60 L796.50 2059.69 L793.81 2059.01 L793.02 2058.90 L791.78 2059.13 L784.04 2060.70 L740.69 2068.00 L710.82 2072.71 L695.66 2075.18 L649.28 2082.37 L619.53 2087.31 L604.70 2090.23 L589.88 2092.92 L565.85 2096.74 L560.91 2097.30 L533.06 2101.12 L526.77 2102.35 L526.10 2102.24 L525.54 2101.79 L525.31 2100.89 L524.97 2094.05 L524.08 2086.07 L522.95 2074.40 L521.94 2066.42 L520.48 2054.63 L518.35 2042.28 L516.78 2031.17 L513.18 2008.15 L509.81 1985.13 L507.34 1967.62 L506.33 1960.43 L504.54 1947.18 L503.08 1935.95 L500.83 1920.01 L498.58 1920.46 L491.17 1868.58 L488.37 1850.51 L486.68 1838.04 L483.20 1810.87 L479.38 1780.78 L477.59 1767.19 L472.76 1736.20 L472.42 1734.41 L471.86 1730.70 L471.75 1728.79 L471.75 1726.32 L471.52 1724.64 L470.96 1722.06 L470.62 1720.04 L468.94 1706.56 L468.27 1702.18 L467.93 1696.57 L466.81 1692.42 L466.58 1690.51 L466.47 1686.69 L465.46 1684.11 L465.46 1682.53 L465.57 1680.74 L465.46 1678.83 L465.01 1677.37 L464.56 1675.91 L464.34 1674.45 L464.22 1672.99 L464.45 1670.30 L463.32 1662.55 L459.96 1642.34 L459.62 1639.53 L458.16 1627.85 L454.00 1596.30 L449.85 1558.58 L449.62 1557.45 L448.61 1553.86 L447.94 1552.51 L446.14 1550.27 L445.02 1549.14 L443.45 1548.13 L437.27 1545.44 L425.48 1540.84 L419.53 1525.68 L418.63 1520.18 L419.42 1515.57 L420.65 1513.21 L422.67 1511.31 L432.78 1509.62 L439.29 1508.95 L442.77 1508.39 L445.02 1507.38 L447.04 1503.56 L448.05 1498.62 L448.39 1488.06 L449.06 1470.77 L447.72 1462.46 L445.36 1455.95 L443.00 1451.01 L438.40 1440.68 L437.16 1434.51 L434.35 1425.86 L432.44 1420.02 L431.77 1415.75 L431.88 1411.71 L432.22 1408.79 L431.55 1406.32 L429.97 1403.96 L426.38 1399.59 L424.02 1395.66 L423.12 1393.41 L422.79 1392.06 L423.01 1389.71 L422.79 1388.47 L421.66 1386.90 L418.29 1383.87 L416.72 1381.73 L416.05 1380.05 L415.71 1378.25 L416.05 1375.45 L415.26 1368.03 L414.93 1363.54 L414.81 1357.26 L414.36 1354.79 L412.34 1350.18 L411.67 1347.60 L411.56 1345.35 L410.66 1338.84 L410.10 1336.37 L436.82 1353.78 L438.40 1354.00 L440.53 1353.33 L442.55 1351.42 L443.90 1348.61 L444.35 1344.34 L445.58 1340.41 L446.59 1339.18 L448.16 1338.17 L450.86 1338.39 L453.22 1339.40 L455.35 1341.31 L458.16 1344.68 L460.29 1346.81 L463.21 1348.05 L465.23 1348.05 L470.06 1347.15 L475.00 1346.36 L488.03 1348.27 L491.96 1348.16 L496.00 1346.81 L498.81 1345.13 L506.11 1339.40 L507.68 1337.83 L511.39 1333.12 L513.86 1330.65 L517.00 1327.95 L519.47 1325.03 L520.71 1323.23 L521.38 1318.74 L522.17 1315.49 L523.51 1312.90 L524.86 1312.01 L525.09 1311.89 L528.01 1311.00 L533.28 1310.55 L536.88 1311.45 L540.92 1314.59 L543.84 1316.27 L546.76 1317.06 L551.03 1318.63 L558.10 1323.35 L562.82 1325.70 L564.84 1325.59 L566.63 1324.58 L567.42 1323.12 L567.76 1320.88 L566.97 1317.62 L563.38 1309.42 L563.38 1307.74 L564.61 1306.06 L567.98 1304.71 L571.91 1305.16 L576.63 1306.73 L580.90 1309.54 L585.61 1312.34 L591.45 1314.59 L598.41 1316.27 L605.83 1317.85 L610.20 1319.30 L615.82 1321.66 L623.68 1325.59 L627.83 1328.17 L630.31 1330.65 L633.90 1334.91 L637.60 1339.63 L639.74 1341.65 L642.21 1342.55 L646.70 1342.55 L655.57 1339.74 L660.06 1339.07 L666.24 1339.40 L670.73 1339.29 L672.42 1345.35 L673.20 1346.81 L675.00 1349.51 L677.81 1352.99 L679.15 1354.11 L682.30 1355.80 L683.98 1356.13 L686.00 1356.25 L687.46 1356.02 L689.03 1355.46 L698.36 1350.18 L700.49 1349.51 L701.61 1349.40 L703.18 1349.62 L705.21 1350.74 L707.68 1352.32 L708.91 1352.65 L710.26 1352.76 L711.49 1352.43 L713.18 1351.75 L717.56 1348.83 L719.24 1348.05 L721.15 1347.49 L723.06 1347.26 L724.30 1347.38 L729.46 1348.50 L735.75 1349.40 L737.21 1349.17 L739.01 1348.83 L740.58 1348.83 L742.71 1349.06 L744.17 1349.51 L745.63 1350.29 L746.64 1351.19 L747.65 1352.54 L748.33 1354.00 L750.01 1358.27 L750.57 1359.39 L752.03 1361.63 L757.53 1366.13 L759.78 1368.37 L762.14 1370.39 L763.49 1371.29 L764.95 1371.63 L769.44 1372.08 L771.68 1372.75 L773.93 1373.99 L777.30 1376.57 L782.58 1381.51 L786.28 1384.88 L787.29 1386.00 L788.08 1387.12 L789.20 1388.13 L791.11 1389.03 L792.79 1389.14 L793.81 1388.81 L795.15 1387.91 L797.85 1383.64 L798.97 1382.18 L799.98 1381.40 L801.67 1380.83 L803.01 1380.72 L804.59 1381.06 L806.05 1381.96 L807.39 1383.19 L810.87 1387.35 L812.56 1388.81 L813.68 1389.59 L815.93 1390.49 L816.83 1390.60 L818.85 1390.38 L832.66 1386.34 L843.66 1383.64 L847.82 1382.63 L856.47 1380.83 L858.94 1380.16 L860.40 1379.60 L862.42 1378.36 L874.99 1370.06 L880.72 1368.26 L881.06 1368.15 L884.88 1366.13 L892.40 1362.98 L898.58 1362.65 L905.09 1362.87 L921.15 1363.66 L934.85 1366.35 L951.58 1371.07 L966.85 1373.76 L982.57 1375.78 L993.35 1377.92 L1016.93 1377.69 L1036.81 1500.41 L1056.68 1623.03 L1076.67 1745.64 L1096.55 1868.25 L1123.72 2035.77 L1126.42 2033.53 L1127.32 2030.49 L1129.45 2028.47 L1128.89 2024.32 L1129.00 2023.42 L1128.55 2019.38 L1128.10 2018.48 L1125.97 2017.81 L1124.85 2016.35 L1123.05 2016.01 L1122.49 2013.32 L1123.50 2010.51 L1125.97 2005.01 L1126.08 2002.54 L1127.54 2000.96 L1130.01 2001.41 L1133.16 2004.56 L1134.84 2005.57 L1136.86 2005.46 L1136.41 2002.76 L1136.75 2000.74 L1136.75 2000.40 L1138.77 1997.37 L1139.56 1994.23 L1143.60 1987.60 L1144.72 1984.46 L1147.76 1979.97 L1150.34 1975.25 L1152.36 1973.01 L1154.94 1972.67 L1157.30 1974.13 L1159.43 1972.00 L1160.33 1969.53 L1159.66 1966.04 L1161.01 1963.91 L1161.34 1962.00 L1160.00 1960.09 L1159.77 1957.85 L1160.33 1956.61 L1161.90 1955.83 L1169.54 1954.70 L1169.76 1954.37 L1169.65 1954.03 L1168.19 1953.58 L1164.15 1954.37 L1161.68 1954.26 L1161.23 1953.36 L1161.12 1951.34 L1158.42 1951.11 L1156.74 1948.08 L1157.86 1946.06 L1160.67 1944.37 L1163.14 1942.69 L1164.71 1942.69 L1166.06 1941.57 L1168.08 1941.90 L1169.76 1940.78 L1172.46 1947.29 L1177.40 1962.00 L1178.41 1962.00 L1179.31 1961.89 L1180.88 1961.55 L1184.25 1960.32 L1194.58 1957.06 L1210.98 1952.46 L1215.81 1951.00 L1222.54 1948.75 L1229.28 1946.40 L1236.47 1943.70 L1248.82 1938.65 L1257.69 1934.27 L1343.82 1903.84 L1388.29 1887.45 L1393.45 1885.76 L1396.71 1884.98 L1409.18 1882.62 L1415.69 1881.27 L1421.53 1880.26 L1435.45 1877.57 L1440.73 1876.67 L1455.78 1874.09 L1465.88 1872.18 L1476.89 1869.82 L1490.59 1867.24 L1493.06 1866.79 L1495.87 1885.09 L1496.54 1887.67 L1497.89 1892.16 L1498.22 1894.18 L1501.59 1916.19 L1502.04 1919.00 L1515.41 1981.43 L1513.83 1991.20 L1512.93 1997.15 L1513.50 1999.84 L1514.28 2001.41 L1515.97 2005.12 L1516.53 2015.79 L1520.68 2014.10 L1526.19 2011.63 L1528.99 2010.17 L1530.79 2009.05 L1531.91 2008.15 L1533.60 2006.35 L1534.50 2004.67 L1540.78 1993.33 L1542.02 1990.19 L1545.39 1977.72 L1546.17 1975.70 L1547.30 1974.13 L1548.20 1973.01 L1549.32 1972.22 L1553.02 1970.42 L1553.81 1969.64 L1554.26 1968.74 L1554.60 1967.17 L1554.71 1966.49 L1553.02 1955.83 L1552.24 1952.12 L1550.78 1947.52 L1549.43 1939.88 L1542.81 1903.95 L1542.81 1902.94 L1543.37 1900.92 L1543.37 1899.57 L1535.73 1861.29 L1535.17 1858.82 L1536.29 1858.70 L1545.84 1857.02 L1546.74 1856.91 L1547.75 1856.68 L1551.11 1856.01 L1553.02 1855.78 L1555.05 1855.45 L1561.45 1854.55 L1562.68 1854.32 L1569.64 1897.78 L1577.39 1946.62 L1577.50 1947.52 L1583.01 1980.87 L1606.03 2125.15 L1606.36 2126.38 L1606.59 2127.73 L1606.92 2129.30 L1608.27 2128.96 L1619.50 2129.86 L1625.12 2128.74 L1626.46 2128.29 L1628.93 2127.51 L1664.31 2116.28 L1666.22 2115.49 L1665.88 2113.47 L1662.51 2092.36 L1662.17 2090.45 L1662.06 2090.00 L1658.92 2070.58 L1656.11 2052.05 L1654.65 2043.18 L1653.41 2036.22 L1652.74 2032.29 L1651.39 2024.21 L1650.72 2020.39 L1648.81 2008.82 L1658.13 2007.14 L1663.86 2006.02 L1669.02 2005.01 L1678.57 2003.21 L1703.83 1998.38 L1704.85 1998.16 L1721.13 1995.24 L1733.82 1992.88 L1739.77 1991.98 L1744.15 1991.20 L1754.48 1989.29 L1756.05 1988.95 L1763.35 1987.71 L1764.02 1988.05 L1768.85 1986.93 L1777.50 1985.36 L1785.58 2040.94 L1786.82 2045.09 L1801.31 2038.58 L1819.50 2033.30 L1838.81 2034.76 L1862.73 2029.93 L1907.54 2020.16 L1943.58 2006.58 L1943.24 2005.12 L1941.45 1994.56 L1940.66 1989.51 L1940.44 1988.28 L1939.65 1983.22 L1951.89 1980.87 L1970.08 1978.17 L1990.30 1975.14 L1990.86 1975.14 L1991.31 1975.25 L1991.76 1975.36 L1993.33 1976.37 L2001.41 2004.11 L1956.83 2011.41 L1965.03 2055.53 L1965.14 2056.54 L1965.37 2057.78 L1968.51 2079.79 L1973.11 2079.00 L1975.81 2078.55 L1977.72 2078.21 L1979.40 2077.99 L1980.75 2078.55 L1991.53 2076.64 L2001.64 2074.96 L2003.77 2074.62 L2006.35 2074.28 L2013.09 2073.05 L2016.91 2072.49 L2023.42 2071.48 L2027.47 2070.80 L2033.19 2069.79 L2036.22 2069.34 L2042.62 2068.22 L2046.11 2067.66 L2056.55 2065.86 L2081.70 2061.82 L2093.49 2059.91 L2096.53 2059.35 L2099.78 2058.79 L2100.57 2058.68 L2106.18 2057.55 L2107.98 2056.54 L2115.73 2054.86 L2121.79 2053.29 L2127.63 2051.83 L2128.87 2051.72 L2129.88 2051.60 L2131.22 2051.72 L2132.46 2051.72 L2133.25 2051.94 L2133.70 2051.94 L2134.82 2052.28 L2135.94 2052.61 L2136.95 2053.06 L2137.40 2053.29 L2138.75 2054.07 L2139.53 2054.75 L2139.98 2055.20 L2140.55 2055.76 L2141.22 2056.43 L2142.00 2057.44 L2142.45 2058.00 L2142.90 2058.68 L2143.24 2059.35 L2143.58 2059.91 L2143.80 2060.47 L2144.03 2061.15 L2144.36 2061.93 L2144.59 2062.61 L2144.81 2063.39 L2144.92 2064.18 L2145.94 2070.02 L2146.61 2074.06 L2147.62 2080.23 L2148.18 2083.72 L2148.52 2085.74 L2148.97 2088.77 L2150.54 2097.98 L2150.76 2099.66 L2151.77 2106.17 L2151.10 2107.63 L2150.54 2108.75 L2150.65 2109.65 L2151.55 2114.59 L2151.55 2114.59 L2152.11 2117.62 L2152.22 2118.07 L2152.90 2121.22 L2152.45 2124.81 L2156.04 2142.78 L2156.94 2143.67 L2157.73 2144.80 L2158.51 2149.51 L2162.33 2171.29 L2163.57 2178.48 L2165.03 2185.67 L2166.60 2192.85 L2166.71 2193.86 L2167.27 2196.45 L2167.83 2199.37 L2167.94 2200.04 L2168.39 2203.18 L2169.07 2207.11 L2169.63 2209.92 L2169.18 2210.93 L2169.29 2211.49 L2170.30 2211.49 L2170.42 2212.05 L2170.53 2212.61 L2171.31 2216.88 L2171.99 2221.37 L2172.32 2223.28 L2173.00 2226.20 L2173.33 2228.22 L2173.11 2229.23 L2173.22 2229.91 L2174.57 2230.92 L2175.13 2231.59 L2175.69 2232.04 L2176.25 2232.26 L2176.93 2232.38 L2177.94 2232.60 L2180.52 2231.93 L2181.76 2231.70 L2182.88 2231.48 L2183.89 2231.37 L2184.68 2231.37 L2185.46 2231.37 L2186.14 2231.48 L2186.70 2231.59 L2187.48 2232.04 L2188.94 2233.05 L2189.51 2232.49 L2190.40 2231.70 L2191.41 2231.03 L2192.54 2230.58 L2192.87 2230.47 L2194.33 2230.13 L2195.46 2229.91 L2197.59 2229.57 L2199.72 2229.23 L2201.86 2228.90 L2204.22 2228.45 L2206.46 2228.11 L2208.26 2227.77 L2208.60 2227.66 L2210.62 2227.32 L2211.40 2227.10 L2212.97 2226.65 L2213.09 2226.54 L2214.43 2225.98 L2215.33 2225.53 L2217.02 2224.74 L2217.24 2224.52 L2219.26 2223.62 L2221.17 2222.72 L2222.41 2222.27 L2223.19 2222.05 L2223.98 2222.05 L2222.63 2212.28 L2264.74 2214.19 L2261.26 2193.19 L2275.07 2191.73 L2322.35 2184.54 L2332.12 2183.42 L2342.79 2181.74 L2343.68 2185.89 L2346.38 2202.85 L2347.39 2208.46 L2348.74 2217.44 L2350.98 2232.38 L2351.43 2232.94 L2352.44 2239.90 L2353.12 2244.17 L2353.34 2246.19 L2353.68 2248.43 L2354.13 2251.58 L2355.03 2256.07 L2355.48 2258.65 L2355.59 2260.11 L2355.81 2260.90 L2356.15 2262.13 L2356.82 2264.38 L2357.16 2265.84 L2357.61 2267.63 L2358.06 2269.54 L2358.62 2271.34 L2358.96 2272.91 L2359.52 2275.27 L2359.97 2277.63 L2362.55 2295.70 L2363.22 2299.97 L2362.77 2301.20 L2364.01 2308.73 L2366.14 2321.86 L2367.60 2331.41 L2369.62 2344.43 L2371.20 2354.43 L2372.21 2360.83 L2372.43 2361.95 L2373.89 2372.05 L2375.58 2383.17 L2376.92 2391.93 L2377.26 2394.40 L2378.27 2400.35 L2379.84 2411.80 L2381.53 2422.02 L2382.76 2430.33 L2383.66 2436.28 L2384.67 2442.68 L2385.01 2445.71 L2385.12 2446.50 L2386.36 2454.80 L2387.70 2463.68 L2388.83 2470.97 L2389.61 2476.36 L2390.74 2483.32 L2391.97 2491.41 L2395.90 2517.35 L2396.58 2521.28 L2399.05 2537.78 L2399.94 2539.80 L2403.20 2558.55 L2403.99 2564.28 L2405.22 2571.69 L2408.70 2594.48 L2411.73 2615.70 L2413.08 2625.47 L2413.42 2627.49 L2413.64 2628.95 L2414.21 2631.31 L2416.45 2642.43 L2417.80 2649.28 L2422.29 2673.87 L2422.96 2677.57 L2423.75 2681.61 L2425.10 2689.59 L2425.77 2693.96 L2426.33 2696.55 L2429.36 2712.49 L2429.36 2712.72 L2430.26 2717.21 L2430.49 2718.67 L2432.51 2732.70 L2433.74 2742.02 L2438.46 2774.02 L2443.51 2807.48 L2443.74 2809.05 L2443.06 2809.16 L2442.39 2809.28 L2434.64 2810.40 L2431.50 2810.96 L2427.46 2811.63 L2426.45 2811.75 L2425.32 2811.86 L2423.53 2812.20 L2422.51 2812.42 L2422.07 2812.53 L2415.66 2813.66 L2405.90 2815.00 L2402.08 2815.68 L2400.62 2815.90 L2398.71 2816.24 L2398.15 2816.35 L2392.98 2817.02 L2391.63 2817.36 L2382.54 2819.05 L2379.28 2819.72 L2377.71 2820.06 L2373.78 2820.84 L2373.78 2820.84 L2372.32 2821.18 L2368.05 2821.85 L2365.81 2822.30 L2355.03 2823.99 L2349.19 2824.77 L2344.36 2825.45 L2343.01 2825.67 L2336.72 2826.57 L2333.58 2826.91 L2332.90 2827.02 L2329.98 2827.35 L2323.25 2828.25 L2320.55 2828.59 L2313.14 2829.04 L2309.10 2829.71 L2283.61 2833.53 L2275.52 2834.88 L2272.60 2835.33 L2258.79 2837.46 L2251.27 2838.58 L2249.47 2838.92 L2250.37 2839.93 L2248.80 2840.15 L2223.42 2844.08 L2218.70 2844.53 L2211.74 2845.54 L2203.32 2846.78 L2201.18 2847.12 L2195.01 2848.13 L2189.17 2849.02 L2137.51 2856.21 L2115.05 2859.13 L2098.21 2861.71 L2095.85 2862.05 L2095.07 2861.94 L2094.28 2862.27 L2091.70 2862.61 L2091.14 2862.72 L2087.77 2863.51 L2087.32 2863.51 L2086.76 2863.62 L2086.53 2863.51 L2086.31 2863.51 L2085.97 2863.28 L2085.63 2863.06 L2085.41 2862.61 L2084.17 2860.36 L2083.95 2859.92 L2083.72 2859.35 L2083.39 2859.02 L2083.05 2858.79 L2082.49 2858.68 L2082.04 2858.68 L2080.69 2858.91 L2080.47 2864.86 L2074.18 2866.43 L2057.11 2869.35 L2040.72 2875.52 L2033.64 2873.61 L2023.31 2875.52 L2016.57 2876.76 L1982.88 2883.16 L1970.64 2885.52 L1951.22 2889.11 L1928.20 2893.49 L1928.09 2892.93 L1920.67 2847.23 L1914.50 2806.81 L1914.05 2804.00 L1914.16 2801.64 L1826.80 2816.35 L1781.99 2823.76 L1764.70 2826.57 L1743.02 2830.16 L1711.36 2802.88 L1657.23 2844.53 L1645.10 2836.00 L1642.97 2836.56 L1587.95 2854.08 L1578.85 2857.00 L1576.38 2857.11 L1571.89 2858.01 L1565.71 2859.02 L1493.28 2870.47 L1487.22 2871.48 L1466.33 2875.30 L1401.20 2885.18 L1391.88 2886.53 L1320.46 2897.64 L1271.84 2905.05 L1262.18 2905.61 L1230.97 2910.55 L1229.95 2910.78 L1228.61 2910.55 L1226.92 2912.46 L1225.91 2914.71 L1225.57 2917.29 L1224.00 2911.23 L1223.10 2912.46 L1221.76 2913.70 L1216.82 2916.73 L1203.45 2925.15 L1186.95 2936.04 L1174.03 2944.58 L1145.62 2963.21 L1119.01 2980.51 L1105.53 2988.93 L1079.03 3006.11 L1072.41 3010.15 L1075.66 3030.92 L1084.20 3088.86 L1091.50 3137.36 L1093.18 3149.26 L1096.77 3172.73 L1100.03 3195.41 L1105.08 3231.23 L1108.68 3253.69 L1115.41 3300.96 L1115.86 3302.42 L1116.65 3303.65 L1117.32 3304.55 L1118.11 3305.45 L1119.23 3306.01 L1118.45 3308.25 L1118.33 3308.93 L1118.22 3311.06 L1118.22 3313.64 L1118.45 3315.78 L1120.24 3328.58 L1121.14 3336.33 L1125.18 3361.70 L1127.21 3377.53 L1128.44 3384.83 L1131.36 3405.15 L1132.26 3410.88 L1134.06 3423.01 L1135.85 3433.22 L1136.75 3440.97 L1137.65 3446.36 L1138.66 3455.46 L1139.67 3459.83 L1141.35 3468.82 L1142.14 3475.78 L1142.14 3477.13 L1142.59 3481.28 L1143.15 3483.19 L1143.26 3483.75 L1143.15 3485.88 L1142.14 3486.45 L1028.16 3505.42 L927.66 3522.15 L927.66 3522.15 Z" stroke-linejoin="round"/>
	</defs>
	<use xlink:href="#path_uuhJoASz" style="fill:#6BACAF;stroke:#6BB4D2;stroke-width:5.76"/>
	<defs>
		<path id="path_ZwnLUSQK" d="M1949.87 1010.98 L1949.87 1010.98 L1946.84 1011.65 L1946.39 1011.77 L1937.18 1013.11 L1929.10 1014.24 L1928.76 1013.90 L1888.56 972.80 L1869.92 974.49 L1870.25 976.51 L1812.31 979.77 L1782.10 968.09 L1780.98 967.75 L1778.96 967.98 L1778.73 965.96 L1777.84 961.02 L1776.71 962.36 L1778.40 973.48 L1730.78 982.12 L1710.68 985.72 L1703.61 986.95 L1702.82 986.84 L1700.69 987.63 L1699.45 987.85 L1697.32 978.64 L1685.08 980.33 L1661.61 991.33 L1652.18 990.55 L1636.01 993.13 L1627.81 994.36 L1616.58 997.28 L1587.72 1004.80 L1542.92 1009.97 L1440.39 1021.76 L1431.52 1010.76 L1427.03 1005.14 L1420.52 997.28 L1416.47 992.12 L1412.66 989.65 L1398.40 954.28 L1397.50 952.03 L1395.14 946.19 L1377.96 903.41 L1369.31 882.76 L1364.37 871.08 L1342.92 819.99 L1336.75 805.28 L1331.69 793.04 L1328.10 784.51 L1317.32 758.68 L1282.28 674.92 L1273.08 652.80 L1272.06 653.14 L1160.67 681.21 L1131.47 556.24 L1122.49 517.95 L1117.77 518.85 L1114.85 519.30 L1113.28 519.53 L1107.44 519.97 L1102.73 520.31 L1099.92 520.54 L1099.47 520.31 L1093.52 520.99 L1090.26 521.55 L1086.78 522.56 L1077.46 525.93 L1072.97 527.05 L1063.76 528.73 L1061.74 528.96 L1015.02 537.27 L957.75 547.37 L923.84 544.34 L924.07 546.02 L896.33 550.40 L895.54 550.51 L880.61 552.09 L874.66 553.10 L872.30 553.66 L871.40 554.00 L855.90 556.47 L847.71 557.70 L838.61 558.71 L833.78 558.37 L838.61 556.80 L836.93 546.14 L834.12 530.42 L830.86 510.54 L819.97 447.89 L812.11 421.95 L801.67 359.97 L799.08 343.81 L795.94 324.61 L794.93 322.47 L794.70 322.47 L792.79 321.91 L788.98 323.15 L773.26 327.52 L746.98 333.59 L731.15 316.75 L724.18 317.87 L703.63 321.80 L681.51 325.73 L681.29 324.27 L700.26 320.90 L707.56 319.55 L770.11 308.10 L781.12 306.08 L785.94 305.18 L787.74 304.96 L790.21 304.39 L787.63 281.38 L778.98 203.90 L778.87 202.22 L775.05 168.42 L799.31 164.38 L803.69 163.37 L809.86 161.12 L814.92 159.33 L820.87 156.18 L825.36 153.49 L833.78 147.43 L837.82 143.61 L841.64 139.68 L847.48 132.94 L850.29 129.35 L850.74 128.79 L850.96 128.45 L860.84 116.10 L863.99 112.28 L864.89 111.16 L869.49 105.77 L873.87 101.73 L882.18 95.44 L883.42 94.65 L887.35 92.30 L888.81 91.96 L897.90 85.67 L905.65 81.29 L911.60 78.04 L911.94 77.92 L919.69 74.67 L922.83 73.54 L926.54 72.31 L929.34 71.52 L932.60 70.85 L935.18 70.40 L940.91 69.73 L945.06 68.94 L947.09 68.72 L985.15 64.00 L1023.56 59.62 L1024.68 59.62 L1025.80 59.28 L1030.86 58.84 L1047.14 56.48 L1076.34 52.66 L1085.66 51.87 L1089.03 51.65 L1094.64 52.10 L1099.58 52.77 L1106.32 53.78 L1111.26 54.57 L1115.08 54.91 L1118.78 55.02 L1119.68 55.02 L1121.70 54.91 L1127.77 54.34 L1138.10 53.45 L1139.78 53.00 L1144.95 52.21 L1147.08 51.87 L1152.70 51.20 L1162.13 49.97 L1168.75 49.07 L1171.22 48.84 L1189.64 46.48 L1200.65 45.02 L1239.39 40.20 L1261.62 37.39 L1262.63 37.28 L1274.65 35.82 L1280.71 35.37 L1282.73 35.48 L1284.98 35.48 L1290.82 35.93 L1296.77 36.60 L1297.89 37.28 L1300.14 37.73 L1303.51 38.51 L1308.90 40.20 L1313.73 41.99 L1317.43 43.68 L1323.83 46.93 L1330.35 49.97 L1333.94 51.31 L1337.98 52.55 L1342.02 53.67 L1346.40 54.57 L1348.31 55.02 L1349.10 55.24 L1350.89 55.24 L1358.87 55.47 L1365.04 55.47 L1368.86 55.13 L1382.34 53.00 L1397.05 50.41 L1400.53 50.08 L1404.01 50.19 L1407.04 50.53 L1411.76 51.54 L1421.98 55.13 L1429.61 57.71 L1431.41 58.50 L1433.54 59.06 L1435.79 59.40 L1437.70 59.51 L1438.71 59.51 L1441.85 59.28 L1443.54 59.06 L1446.01 58.50 L1447.36 58.05 L1449.38 57.15 L1456.00 53.33 L1457.01 52.66 L1470.49 80.06 L1479.13 97.12 L1514.28 167.19 L1564.37 265.99 L1608.05 349.76 L1611.98 357.95 L1618.83 371.76 L1627.59 389.50 L1639.83 417.80 L1641.96 422.07 L1644.43 426.78 L1646.68 430.71 L1648.70 434.30 L1650.16 436.89 L1654.20 444.63 L1654.54 445.31 L1667.79 472.03 L1709.11 558.60 L1745.61 550.29 L1746.62 552.09 L1749.87 557.25 L1749.87 557.36 L1752.79 562.08 L1762.45 577.91 L1763.57 577.13 L1753.92 561.29 L1751.00 556.58 L1746.73 549.50 L1739.54 537.49 L1739.54 537.49 L1738.87 536.26 L1737.63 534.01 L1736.62 532.10 L1735.95 530.75 L1735.05 528.96 L1733.59 525.93 L1727.08 511.55 L1722.70 501.90 L1721.80 500.21 L1718.43 493.36 L1717.65 491.90 L1714.28 485.73 L1707.54 473.71 L1703.72 466.87 L1698.22 456.98 L1697.43 455.64 L1692.49 446.65 L1690.81 443.40 L1689.57 441.27 L1686.88 436.32 L1684.97 432.84 L1684.18 431.27 L1682.95 428.91 L1692.16 423.41 L1692.72 423.08 L1693.28 422.96 L1693.84 422.85 L1694.40 422.85 L1695.41 423.08 L1701.81 421.28 L1699.57 433.74 L1700.02 434.75 L1699.45 443.74 L1701.03 449.91 L1708.78 461.81 L1714.50 474.28 L1723.37 483.93 L1731.80 485.62 L1737.52 490.56 L1742.24 498.19 L1743.36 504.82 L1743.81 511.44 L1744.37 516.61 L1752.91 522.67 L1758.75 527.95 L1772.90 525.93 L1776.94 531.09 L1772.33 542.09 L1771.44 554.00 L1775.25 570.39 L1775.93 574.88 L1777.27 577.46 L1780.98 580.49 L1781.54 582.63 L1787.38 583.86 L1793.89 579.71 L1796.03 583.97 L1799.85 591.39 L1797.38 595.54 L1796.48 604.63 L1800.97 616.20 L1809.39 626.64 L1814.11 629.22 L1816.69 627.32 L1820.51 628.78 L1825.90 644.05 L1826.46 663.69 L1825.56 667.74 L1827.25 671.11 L1831.62 678.07 L1842.18 691.76 L1846.45 695.36 L1851.39 698.28 L1855.43 701.87 L1860.04 704.56 L1864.53 705.91 L1870.93 706.70 L1875.64 705.58 L1879.01 705.35 L1881.71 705.01 L1883.84 704.79 L1885.97 704.34 L1887.88 703.78 L1889.57 703.22 L1891.59 702.54 L1894.17 701.42 L1895.63 700.75 L1896.76 700.30 L1897.32 700.19 L1898.10 700.07 L1898.89 700.19 L1899.23 700.41 L1899.56 700.97 L1900.12 702.77 L1900.80 704.90 L1901.36 706.59 L1901.47 707.26 L1901.36 707.71 L1901.13 708.16 L1900.69 708.38 L1900.01 708.61 L1898.78 709.06 L1897.43 709.51 L1895.07 710.29 L1893.27 711.08 L1891.48 711.86 L1890.13 712.42 L1888.78 713.21 L1887.66 714.22 L1886.42 715.68 L1884.96 717.59 L1883.62 719.50 L1882.38 721.41 L1881.37 722.87 L1877.33 729.38 L1869.47 750.15 L1869.24 754.53 L1870.70 757.90 L1873.51 765.08 L1875.53 765.20 L1876.77 766.32 L1876.99 767.22 L1877.33 768.79 L1876.88 770.70 L1879.80 778.56 L1884.52 787.99 L1887.43 793.04 L1891.59 799.78 L1893.27 800.00 L1895.07 801.46 L1896.08 804.16 L1895.41 806.97 L1896.98 809.88 L1900.57 814.94 L1905.85 827.63 L1909.11 830.21 L1910.34 833.46 L1910.12 835.82 L1912.36 840.65 L1913.60 843.23 L1914.05 844.24 L1914.83 845.81 L1918.09 853.00 L1918.88 854.80 L1919.44 856.03 L1926.18 870.40 L1939.20 892.52 L1943.92 889.04 L1951.22 897.69 L1952.90 902.85 L1959.53 907.91 L1956.38 914.64 L1951.89 919.81 L1950.32 921.49 L1947.96 918.46 L1946.73 919.58 L1945.04 917.11 L1936.51 905.89 L1933.03 901.17 L1928.53 893.53 L1921.80 895.22 L1918.99 888.14 L1912.70 889.38 L1903.72 890.84 L1899.79 890.95 L1894.62 891.85 L1894.51 892.41 L1894.40 892.75 L1894.06 893.31 L1893.50 893.53 L1889.68 894.21 L1889.01 894.32 L1888.45 894.10 L1888.11 893.76 L1887.77 893.53 L1887.43 892.75 L1876.77 871.75 L1869.58 871.19 L1876.21 884.78 L1883.50 899.04 L1909.78 950.57 L1915.17 960.90 L1919.33 968.31 L1924.38 976.29 L1927.86 981.90 L1934.26 991.22 L1947.85 1008.40 L1949.87 1010.98 L1949.87 1010.98 Z" stroke-linejoin="round"/>
	</defs>
	<use xlink:href="#path_ZwnLUSQK" style="fill:#09757A;stroke:#097D9B;stroke-width:5.76"/>
	<defs>
		<path id="path_ihZkFHYC" d="M1934.04 697.38 L1934.04 697.38 L1934.04 697.38 L1933.03 698.28 L1929.66 699.51 L1925.84 700.41 L1922.70 701.20 L1920.67 701.65 L1918.99 702.43 L1917.42 702.99 L1915.85 703.67 L1914.16 704.90 L1912.36 705.35 L1910.23 705.69 L1908.43 706.14 L1906.97 706.47 L1906.19 706.47 L1905.85 706.25 L1905.51 705.91 L1905.18 705.46 L1904.95 704.90 L1904.62 703.67 L1903.83 701.53 L1903.38 700.07 L1903.27 699.51 L1903.27 699.18 L1903.38 698.84 L1903.61 698.39 L1904.05 698.05 L1904.62 697.72 L1905.51 697.38 L1906.41 696.93 L1907.31 696.48 L1908.10 696.03 L1909.33 695.25 L1910.57 694.80 L1912.25 694.01 L1913.49 693.45 L1914.95 693.00 L1916.29 692.66 L1917.64 692.33 L1919.55 691.65 L1922.13 690.64 L1923.59 689.97 L1924.49 689.63 L1925.39 689.41 L1926.51 689.07 L1928.76 688.40 L1929.43 688.17 L1930.22 688.17 L1930.67 688.17 L1931.23 688.51 L1931.79 688.73 L1932.24 689.29 L1932.58 689.86 L1932.91 690.53 L1933.25 691.65 L1933.92 693.56 L1934.26 695.13 L1934.49 695.81 L1934.37 696.37 L1934.26 696.82 L1934.04 697.38 L1934.04 697.38 Z" stroke-linejoin="round"/>
	</defs>
	<use xlink:href="#path_ihZkFHYC" style="fill:#09757A;stroke:#097D9B;stroke-width:5.76"/>
	<defs>
		<path id="path_HJJdLHqy" d="M2580.06 2788.39 L2580.06 2788.39 L2576.69 2788.95 L2571.87 2789.74 L2555.81 2792.21 L2551.54 2792.88 L2550.98 2793.00 L2550.42 2793.11 L2550.31 2792.32 L2550.31 2791.87 L2550.19 2790.75 L2531.55 2769.19 L2530.99 2765.26 L2529.42 2757.18 L2528.86 2753.36 L2510.67 2752.35 L2492.02 2759.65 L2492.47 2763.02 L2493.82 2770.99 L2495.51 2777.84 L2495.06 2779.07 L2494.83 2779.52 L2493.48 2783.45 L2491.91 2786.48 L2491.01 2787.72 L2486.19 2793.67 L2485.51 2794.57 L2484.95 2795.47 L2484.61 2796.48 L2484.28 2797.49 L2484.16 2798.50 L2484.16 2799.73 L2484.28 2801.53 L2484.28 2802.43 L2484.39 2803.21 L2477.76 2804.34 L2472.04 2805.12 L2469.79 2805.46 L2464.40 2806.25 L2462.15 2806.47 L2458.11 2807.03 L2450.25 2808.15 L2448.23 2808.38 L2443.74 2809.05 L2443.51 2807.48 L2438.46 2774.02 L2433.74 2742.02 L2432.51 2732.70 L2430.49 2718.67 L2430.26 2717.21 L2429.36 2712.72 L2429.36 2712.49 L2426.33 2696.55 L2425.77 2693.96 L2425.10 2689.59 L2423.75 2681.61 L2422.96 2677.57 L2422.29 2673.87 L2417.80 2649.28 L2416.45 2642.43 L2414.21 2631.31 L2413.64 2628.95 L2413.42 2627.49 L2413.08 2625.47 L2411.73 2615.70 L2408.70 2594.48 L2405.22 2571.69 L2403.99 2564.28 L2403.20 2558.55 L2399.94 2539.80 L2399.05 2537.78 L2396.58 2521.28 L2395.90 2517.35 L2391.97 2491.41 L2390.74 2483.32 L2389.61 2476.36 L2388.83 2470.97 L2387.70 2463.68 L2386.36 2454.80 L2385.12 2446.50 L2385.01 2445.71 L2384.67 2442.68 L2383.66 2436.28 L2382.76 2430.33 L2381.53 2422.02 L2379.84 2411.80 L2378.27 2400.35 L2377.26 2394.40 L2376.92 2391.93 L2375.58 2383.17 L2373.89 2372.05 L2372.43 2361.95 L2372.21 2360.83 L2371.20 2354.43 L2369.62 2344.43 L2367.60 2331.41 L2366.14 2321.86 L2364.01 2308.73 L2362.77 2301.20 L2363.22 2299.97 L2362.55 2295.70 L2359.97 2277.63 L2359.52 2275.27 L2358.96 2272.91 L2358.62 2271.34 L2358.06 2269.54 L2357.61 2267.63 L2357.16 2265.84 L2356.82 2264.38 L2356.15 2262.13 L2355.81 2260.90 L2355.59 2260.11 L2355.48 2258.65 L2355.03 2256.07 L2354.13 2251.58 L2353.68 2248.43 L2353.34 2246.19 L2353.12 2244.17 L2352.44 2239.90 L2351.43 2232.94 L2350.98 2232.38 L2348.74 2217.44 L2347.39 2208.46 L2346.38 2202.85 L2343.68 2185.89 L2342.79 2181.74 L2332.12 2183.42 L2322.35 2184.54 L2275.07 2191.73 L2261.26 2193.19 L2264.74 2214.19 L2222.63 2212.28 L2223.98 2222.05 L2223.19 2222.05 L2222.41 2222.27 L2221.17 2222.72 L2219.26 2223.62 L2217.24 2224.52 L2217.02 2224.74 L2215.33 2225.53 L2214.43 2225.98 L2213.09 2226.54 L2212.97 2226.65 L2211.40 2227.10 L2210.62 2227.32 L2208.60 2227.66 L2208.26 2227.77 L2206.46 2228.11 L2204.22 2228.45 L2201.86 2228.90 L2199.72 2229.23 L2197.59 2229.57 L2195.46 2229.91 L2194.33 2230.13 L2192.87 2230.47 L2192.54 2230.58 L2191.41 2231.03 L2190.40 2231.70 L2189.51 2232.49 L2188.94 2233.05 L2187.48 2232.04 L2186.70 2231.59 L2186.14 2231.48 L2185.46 2231.37 L2184.68 2231.37 L2183.89 2231.37 L2182.88 2231.48 L2181.76 2231.70 L2180.52 2231.93 L2177.94 2232.60 L2176.93 2232.38 L2176.25 2232.26 L2175.69 2232.04 L2175.13 2231.59 L2174.57 2230.92 L2173.22 2229.91 L2173.11 2229.23 L2173.33 2228.22 L2173.00 2226.20 L2172.32 2223.28 L2171.99 2221.37 L2171.31 2216.88 L2170.53 2212.61 L2170.42 2212.05 L2170.30 2211.49 L2169.29 2211.49 L2169.18 2210.93 L2169.63 2209.92 L2169.07 2207.11 L2168.39 2203.18 L2167.94 2200.04 L2167.83 2199.37 L2167.27 2196.45 L2166.71 2193.86 L2166.60 2192.85 L2165.03 2185.67 L2163.57 2178.48 L2162.33 2171.29 L2158.51 2149.51 L2157.73 2144.80 L2156.94 2143.67 L2156.04 2142.78 L2152.45 2124.81 L2152.90 2121.22 L2152.22 2118.07 L2152.11 2117.62 L2151.55 2114.59 L2151.55 2114.59 L2150.65 2109.65 L2150.54 2108.75 L2151.10 2107.63 L2151.77 2106.17 L2150.76 2099.66 L2150.54 2097.98 L2148.97 2088.77 L2148.52 2085.74 L2148.18 2083.72 L2147.62 2080.23 L2146.61 2074.06 L2145.94 2070.02 L2144.92 2064.18 L2144.81 2063.39 L2144.59 2062.61 L2144.36 2061.93 L2144.03 2061.15 L2143.80 2060.47 L2143.58 2059.91 L2143.24 2059.35 L2142.90 2058.68 L2142.45 2058.00 L2142.00 2057.44 L2141.22 2056.43 L2140.55 2055.76 L2139.98 2055.20 L2139.53 2054.75 L2138.75 2054.07 L2137.40 2053.29 L2136.95 2053.06 L2135.94 2052.61 L2134.82 2052.28 L2133.70 2051.94 L2133.25 2051.94 L2132.46 2051.72 L2131.22 2051.72 L2129.88 2051.60 L2128.87 2051.72 L2127.63 2051.83 L2121.79 2053.29 L2115.73 2054.86 L2107.98 2056.54 L2106.18 2057.55 L2100.57 2058.68 L2099.78 2058.79 L2096.53 2059.35 L2093.49 2059.91 L2081.70 2061.82 L2056.55 2065.86 L2046.11 2067.66 L2042.62 2068.22 L2036.22 2069.34 L2033.19 2069.79 L2027.47 2070.80 L2023.42 2071.48 L2016.91 2072.49 L2013.09 2073.05 L2006.35 2074.28 L2003.77 2074.62 L2001.64 2074.96 L1991.53 2076.64 L1980.75 2078.55 L1979.40 2077.99 L1977.72 2078.21 L1975.81 2078.55 L1973.11 2079.00 L1968.51 2079.79 L1965.37 2057.78 L1965.14 2056.54 L1965.03 2055.53 L1956.83 2011.41 L2001.41 2004.11 L1993.33 1976.37 L1991.76 1975.36 L1991.31 1975.25 L1990.86 1975.14 L1990.30 1975.14 L1970.08 1978.17 L1951.89 1980.87 L1948.97 1964.14 L1935.72 1887.78 L1942.12 1886.89 L1977.94 1880.82 L2014.44 1874.65 L2016.91 1874.20 L2017.58 1873.86 L2017.92 1873.52 L2018.14 1872.74 L2017.13 1866.68 L2016.57 1866.00 L2016.24 1865.78 L2015.56 1865.67 L1992.77 1869.37 L1991.87 1863.64 L2071.60 1851.97 L2078.33 1892.61 L2107.64 1888.46 L2110.45 1899.13 L2117.86 1933.15 L2122.35 1932.58 L2116.74 1901.71 L2117.19 1900.36 L2117.75 1899.57 L2118.09 1899.13 L2120.11 1898.11 L2150.09 1891.60 L2155.37 1890.70 L2156.94 1890.48 L2158.51 1890.37 L2161.21 1890.93 L2167.72 1892.73 L2170.98 1893.29 L2174.46 1893.29 L2193.10 1889.02 L2194.33 1888.80 L2203.54 1886.66 L2265.08 1873.08 L2265.87 1873.19 L2267.44 1872.74 L2287.76 1868.36 L2296.86 1866.34 L2298.99 1865.78 L2304.16 1863.98 L2304.61 1863.76 L2308.99 1861.17 L2313.48 1857.69 L2314.94 1856.12 L2316.06 1854.44 L2316.17 1854.44 L2320.44 1849.05 L2328.19 1838.83 L2326.73 1837.59 L2324.93 1836.02 L2324.71 1835.80 L2321.79 1833.22 L2319.43 1831.19 L2315.05 1827.38 L2305.06 1818.51 L2301.80 1815.70 L2300.11 1814.24 L2301.24 1813.01 L2330.77 1809.08 L2332.01 1814.69 L2334.48 1821.54 L2338.07 1829.40 L2342.22 1837.03 L2345.59 1842.09 L2349.75 1846.58 L2380.85 1874.87 L2380.85 1868.47 L2381.30 1869.37 L2382.88 1870.94 L2401.85 1888.23 L2403.54 1889.24 L2421.17 1885.99 L2431.84 1884.19 L2440.48 1882.84 L2448.68 1881.61 L2455.30 1880.49 L2457.10 1880.26 L2465.41 1878.80 L2486.41 1875.43 L2501.46 1873.08 L2503.48 1872.85 L2511.68 1871.17 L2514.48 1870.61 L2515.72 1870.16 L2517.07 1869.60 L2523.13 1869.48 L2577.03 1952.68 L2586.35 1953.69 L2608.81 1992.54 L2602.19 1997.71 L2607.69 2006.69 L2614.54 2001.41 L2619.93 2010.28 L2612.74 2015.22 L2618.92 2025.55 L2626.33 2020.61 L2629.58 2026.00 L2623.18 2031.62 L2657.21 2086.07 L2671.92 2104.26 L2681.58 2117.29 L2688.88 2126.27 L2706.17 2147.72 L2713.24 2156.36 L2724.70 2168.26 L2729.08 2171.07 L2730.99 2172.31 L2734.69 2171.86 L2744.91 2166.69 L2747.83 2164.67 L2788.03 2136.94 L2789.94 2135.93 L2790.61 2136.04 L2791.06 2136.26 L2791.40 2136.49 L2791.74 2136.94 L2793.87 2140.08 L2794.54 2141.54 L2794.88 2142.33 L2794.99 2142.89 L2794.88 2143.45 L2794.77 2144.01 L2794.54 2144.68 L2794.43 2145.58 L2794.32 2146.26 L2794.43 2147.27 L2794.66 2149.18 L2794.77 2150.75 L2794.88 2152.43 L2794.88 2153.89 L2794.77 2157.82 L2791.96 2160.07 L2790.16 2158.83 L2788.71 2157.04 L2787.13 2155.35 L2785.79 2154.00 L2783.20 2154.34 L2778.26 2156.14 L2770.63 2161.41 L2768.27 2162.87 L2766.13 2164.33 L2763.55 2166.02 L2760.74 2167.48 L2757.60 2168.49 L2755.35 2169.61 L2753.11 2170.96 L2752.10 2172.75 L2751.87 2174.21 L2751.87 2176.01 L2752.32 2178.48 L2752.55 2180.28 L2752.77 2181.62 L2753.00 2183.08 L2752.43 2186.12 L2753.89 2190.83 L2754.90 2192.07 L2756.03 2193.19 L2757.49 2194.09 L2759.06 2196.11 L2759.73 2198.35 L2760.63 2201.39 L2761.53 2204.19 L2762.77 2205.88 L2764.67 2208.12 L2765.80 2208.91 L2772.20 2206.78 L2775.34 2205.32 L2777.25 2203.63 L2777.92 2202.28 L2777.48 2200.71 L2776.80 2199.93 L2775.68 2199.48 L2774.33 2199.48 L2772.98 2199.59 L2771.19 2200.94 L2770.18 2201.05 L2768.83 2200.60 L2768.04 2199.59 L2767.71 2198.24 L2767.82 2196.45 L2768.04 2196.00 L2769.05 2195.10 L2776.35 2193.08 L2778.37 2193.08 L2781.29 2193.41 L2784.44 2196.22 L2786.46 2198.58 L2783.76 2210.59 L2783.09 2213.74 L2783.20 2222.72 L2782.98 2227.32 L2783.20 2235.52 L2783.76 2244.05 L2774.33 2263.37 L2803.30 2321.19 L2851.59 2375.53 L2845.86 2376.54 L2844.63 2375.98 L2843.95 2376.21 L2843.39 2376.32 L2842.83 2376.43 L2824.98 2378.68 L2823.97 2378.90 L2822.73 2379.02 L2821.49 2379.35 L2821.16 2379.58 L2818.80 2380.14 L2815.32 2381.04 L2814.64 2381.26 L2814.08 2381.49 L2813.52 2381.60 L2812.85 2381.82 L2812.29 2381.93 L2813.07 2382.61 L2813.86 2383.39 L2814.76 2384.18 L2815.66 2384.97 L2817.79 2386.54 L2821.05 2402.82 L2810.38 2404.50 L2812.96 2407.98 L2823.63 2425.39 L2827.11 2430.66 L2843.06 2455.93 L2851.70 2469.63 L2846.54 2470.52 L2842.38 2470.41 L2841.48 2471.09 L2840.58 2471.42 L2833.85 2472.32 L2831.83 2472.66 L2821.27 2474.12 L2810.49 2475.80 L2799.71 2477.37 L2789.04 2478.83 L2787.69 2479.06 L2787.13 2479.28 L2778.37 2480.52 L2766.13 2482.09 L2756.70 2483.32 L2745.47 2484.90 L2746.15 2487.93 L2746.26 2490.17 L2748.84 2507.69 L2748.95 2508.25 L2752.10 2530.03 L2755.35 2553.61 L2758.95 2577.53 L2761.75 2596.84 L2763.44 2609.42 L2765.24 2622.22 L2765.35 2623.45 L2769.17 2649.05 L2770.85 2660.06 L2771.86 2667.91 L2771.86 2668.48 L2771.64 2668.48 L2749.85 2671.62 L2743.45 2672.52 L2703.14 2676.90 L2692.69 2680.38 L2686.29 2682.51 L2666.98 2688.91 L2631.61 2693.07 L2627.45 2693.74 L2614.99 2696.10 L2602.63 2699.58 L2601.29 2699.69 L2601.62 2701.94 L2602.19 2705.53 L2602.52 2708.00 L2602.97 2710.69 L2604.43 2721.47 L2604.66 2722.60 L2604.77 2723.72 L2606.34 2737.87 L2606.56 2739.21 L2606.68 2740.22 L2606.90 2741.57 L2607.91 2748.64 L2608.81 2754.71 L2609.03 2755.83 L2609.82 2761.33 L2610.05 2763.69 L2611.51 2773.80 L2611.62 2774.69 L2611.73 2775.26 L2611.84 2778.96 L2611.84 2779.41 L2611.73 2780.20 L2611.51 2781.09 L2610.83 2781.77 L2609.37 2782.44 L2604.43 2783.23 L2603.31 2783.34 L2601.17 2783.68 L2599.27 2784.13 L2598.03 2784.24 L2595.11 2785.02 L2594.10 2785.14 L2593.09 2785.47 L2592.75 2785.47 L2588.71 2786.60 L2585.90 2787.27 L2582.65 2787.94 L2580.06 2788.39 L2580.06 2788.39 Z" stroke-linejoin="round"/>
	</defs>
	<use xlink:href="#path_HJJdLHqy" style="fill:#004249;stroke:#00465F;stroke-width:5.76"/>
</svg>
