<?xml version="1.0" encoding="UTF-8" standalone="no"?>
<!-- This is a Stata 16.1 generated SVG file (http://www.stata.com) -->

<svg version="1.1" width="4.00in" height="8.99in" viewBox="0 0 2880 6474" xmlns="http://www.w3.org/2000/svg" xmlns:xlink="http://www.w3.org/1999/xlink">
	<desc>Stata Graph - Graph</desc>
	<rect x="0" y="0" width="2880" height="6474" style="fill:#FFFFFF;stroke:none"/>
	<defs>
		<path id="path_IjwsJfid" d="M238.75 4926.71 L238.75 4926.71 L192.01 4927.52 L192.22 4922.67 L192.42 4919.23 L192.82 4915.18 L193.23 4910.93 L193.83 4901.63 L194.44 4893.13 L194.64 4888.07 L195.25 4881.80 L196.06 4877.15 L196.87 4872.90 L198.08 4869.05 L199.70 4865.21 L201.32 4861.37 L202.74 4858.94 L203.95 4856.92 L204.76 4855.70 L205.77 4854.29 L206.78 4852.87 L207.80 4851.66 L209.41 4849.84 L210.83 4848.42 L212.65 4846.60 L214.27 4845.18 L215.28 4844.37 L216.70 4843.36 L218.52 4842.15 L220.34 4840.93 L230.66 4834.66 L247.86 4824.14 L256.36 4818.48 L280.84 4802.49 L357.12 4803.91 L324.74 4760.01 L324.34 4745.04 L298.04 4748.68 L295.20 4740.59 L295.00 4739.98 L295.00 4739.37 L294.19 4735.93 L301.07 4732.90 L313.01 4727.44 L316.85 4725.82 L318.07 4725.21 L318.88 4724.60 L319.69 4724.00 L320.70 4722.99 L321.30 4721.97 L322.11 4720.76 L322.72 4719.95 L323.53 4719.34 L324.54 4718.94 L325.55 4718.53 L326.56 4718.33 L331.62 4718.33 L333.04 4715.10 L333.85 4713.27 L341.54 4702.75 L341.33 4680.90 L334.86 4680.10 L335.47 4671.60 L334.66 4643.68 L347.61 4627.49 L356.91 4626.89 L364.40 4628.71 L374.11 4629.52 L374.32 4608.07 L374.92 4583.19 L375.93 4520.67 L376.34 4512.78 L376.14 4501.25 L349.43 4498.62 L339.11 4487.29 L336.88 4484.66 L333.65 4479.81 L328.59 4469.49 L324.14 4456.74 L319.69 4443.79 L311.79 4422.35 L312.00 4410.61 L312.40 4407.78 L312.20 4405.56 L312.00 4401.92 L306.74 4402.72 L305.32 4403.13 L288.93 4406.77 L288.93 4400.09 L288.93 4397.87 L289.13 4395.24 L289.13 4388.77 L289.13 4384.31 L289.34 4352.75 L289.34 4343.45 L289.54 4333.94 L289.54 4326.05 L289.94 4298.74 L286.91 4298.74 L284.48 4298.53 L279.42 4315.12 L274.97 4328.48 L271.93 4335.35 L263.23 4354.57 L256.36 4366.71 L250.69 4374.60 L234.71 4395.24 L224.79 4405.96 L212.85 4416.68 L205.17 4422.75 L196.06 4429.23 L189.79 4433.27 L180.08 4438.74 L175.83 4440.76 L168.95 4444.00 L162.88 4446.42 L157.62 4448.24 L151.95 4449.46 L146.89 4450.07 L140.22 4450.27 L84.37 4449.05 L54.63 4448.65 L55.03 4297.32 L54.83 4260.70 L56.45 4196.57 L56.45 4194.34 L56.86 4181.39 L56.86 4171.89 L60.30 4040.99 L60.30 4028.85 L60.90 3993.45 L61.31 3952.78 L61.91 3941.05 L62.12 3893.10 L62.72 3848.79 L62.93 3842.12 L63.33 3772.93 L63.33 3771.51 L63.53 3729.63 L64.14 3703.53 L64.75 3675.82 L64.75 3664.28 L64.95 3652.95 L64.95 3641.42 L66.97 3449.43 L71.83 3449.63 L81.74 3450.04 L118.97 3451.65 L118.36 3475.32 L117.76 3489.89 L164.70 3493.53 L165.10 3452.46 L181.69 3452.87 L188.57 3452.87 L221.96 3453.47 L258.99 3454.28 L280.23 3454.49 L298.24 3454.69 L310.38 3455.30 L358.74 3456.10 L361.77 3456.31 L363.59 3456.10 L365.21 3455.50 L366.22 3454.89 L368.25 3453.68 L370.67 3454.69 L372.09 3455.30 L373.30 3455.70 L374.52 3455.90 L375.73 3456.31 L376.95 3456.51 L378.16 3456.71 L422.87 3457.12 L461.52 3458.13 L473.86 3458.53 L478.11 3458.53 L528.49 3459.95 L551.96 3459.95 L568.96 3460.35 L588.59 3460.76 L598.30 3460.96 L612.86 3461.36 L631.48 3461.57 L657.78 3461.97 L683.07 3462.58 L707.76 3462.98 L732.04 3463.39 L767.65 3464.20 L783.43 3464.40 L805.08 3464.60 L825.52 3465.01 L834.22 3465.21 L841.50 3464.80 L845.55 3465.01 L848.18 3465.01 L851.41 3465.21 L852.83 3465.21 L854.25 3465.41 L862.75 3465.41 L864.97 3465.41 L923.04 3466.62 L980.91 3467.64 L995.27 3467.43 L1002.35 3467.03 L1003.16 3469.86 L1002.56 3474.11 L1005.79 3571.83 L1005.79 3579.92 L992.24 3769.69 L990.01 3801.45 L1010.25 3796.39 L1010.45 3798.62 L1010.45 3799.63 L1010.45 3800.84 L1010.65 3802.46 L1011.06 3805.09 L1011.66 3808.33 L1011.86 3809.95 L1012.88 3814.80 L1017.93 3837.26 L1021.98 3855.87 L1022.99 3860.53 L1024.00 3864.98 L1026.43 3876.51 L1029.27 3890.06 L1031.69 3899.98 L1032.70 3903.82 L1033.11 3905.44 L1034.12 3907.87 L1034.73 3909.28 L1035.74 3911.71 L1036.95 3914.34 L1037.76 3915.76 L1039.38 3919.00 L1044.84 3928.71 L1047.68 3933.76 L1061.44 3958.24 L1071.35 3976.05 L1101.09 4029.46 L1103.52 4034.31 L1105.54 4038.97 L1107.57 4044.02 L1109.19 4049.28 L1114.65 4068.30 L1106.76 4070.93 L1105.75 4071.13 L1103.12 4071.74 L1100.28 4072.15 L1096.44 4072.15 L1085.11 4071.94 L1053.14 4070.73 L1021.37 4070.33 L950.36 4068.91 L949.34 4154.08 L957.84 4198.79 L960.07 4219.43 L965.94 4229.55 L971.20 4239.05 L976.66 4248.97 L978.48 4251.80 L980.50 4255.64 L986.37 4265.96 L990.62 4273.85 L999.32 4289.83 L1003.57 4297.72 L1005.59 4301.37 L1008.22 4306.22 L1013.08 4315.73 L1016.11 4321.19 L1022.18 4333.13 L1023.80 4335.76 L1037.97 4363.07 L1058.20 4402.12 L1059.21 4403.74 L1061.23 4407.58 L1063.26 4411.63 L1067.71 4419.92 L1088.95 4460.79 L1089.16 4461.19 L1100.49 4483.24 L1107.77 4497.41 L1113.23 4507.52 L1114.65 4510.15 L1140.35 4559.52 L1153.90 4585.62 L1166.04 4608.88 L1170.09 4616.77 L1172.92 4622.23 L1173.93 4624.46 L1175.96 4627.90 L1182.63 4640.44 L1202.26 4678.27 L1210.15 4693.25 L1209.34 4695.88 L1208.53 4697.49 L1207.72 4698.71 L1206.10 4701.74 L1205.50 4702.35 L1205.09 4702.75 L1204.08 4703.56 L1202.46 4704.78 L1181.22 4711.25 L1179.80 4712.47 L1179.19 4713.68 L1177.98 4717.52 L1172.11 4720.36 L1152.28 4721.57 L1004.58 4734.11 L914.74 4724.81 L803.26 4717.12 L771.49 4722.78 L703.91 4722.18 L704.52 4835.67 L704.72 4843.77 L702.30 4918.62 L565.52 4920.85 L559.45 4920.85 L458.49 4922.47 L409.93 4923.27 L282.46 4925.70 L238.75 4926.71 L238.75 4926.71 Z" stroke-linejoin="round"/>
	</defs>
	<use xlink:href="#path_IjwsJfid" style="fill:#9DC8CA;stroke:#9DD7F0;stroke-width:5.76"/>
	<defs>
		<path id="path_WzsyRZAD" d="M1823.42 2100.61 L1823.42 2100.61 L1823.42 2100.61 L1792.67 2139.25 L1791.25 2135.41 L1786.80 2127.11 L1784.17 2122.46 L1775.06 2103.85 L1767.98 2090.50 L1763.73 2082.60 L1758.27 2074.31 L1747.14 2063.39 L1730.95 2051.04 L1722.66 2046.19 L1720.64 2043.96 L1719.83 2042.14 L1718.21 2036.48 L1717.20 2034.66 L1715.78 2033.65 L1714.16 2030.81 L1713.35 2027.37 L1708.09 2018.07 L1704.25 2008.15 L1680.98 2007.95 L1664.79 2007.75 L1653.26 2006.74 L1643.34 2005.73 L1633.43 1971.33 L1630.80 1967.69 L1627.76 1965.06 L1624.12 1963.65 L1622.30 1963.04 L1613.80 1962.03 L1611.78 1961.22 L1609.96 1960.21 L1607.53 1958.59 L1608.34 1958.39 L1609.76 1956.56 L1610.36 1953.73 L1612.59 1937.55 L1611.78 1935.73 L1608.34 1935.12 L1604.09 1933.91 L1597.41 1931.28 L1585.07 1924.19 L1576.17 1918.53 L1573.54 1915.29 L1569.09 1908.82 L1556.95 1889.40 L1555.94 1888.38 L1551.49 1883.53 L1546.83 1877.06 L1541.57 1870.78 L1538.13 1865.12 L1537.12 1862.69 L1522.35 1862.49 L1514.05 1862.29 L1499.08 1862.08 L1482.69 1862.89 L1476.62 1863.10 L1471.56 1863.50 L1463.27 1863.30 L1456.59 1863.30 L1452.75 1863.30 L1449.71 1863.30 L1447.08 1863.30 L1439.80 1863.10 L1435.75 1863.10 L1432.92 1863.10 L1428.67 1863.10 L1425.84 1863.30 L1423.81 1863.30 L1411.07 1862.89 L1396.90 1862.69 L1388.81 1862.69 L1384.56 1862.49 L1379.70 1862.49 L1359.07 1860.87 L1344.50 1860.06 L1332.76 1859.86 L1310.91 1859.45 L1287.64 1859.45 L1260.53 1859.05 L1249.81 1859.05 L1241.71 1859.05 L1222.69 1858.64 L1197.81 1858.44 L1185.06 1858.44 L1167.05 1858.24 L1163.01 1858.04 L1150.26 1858.04 L1140.55 1857.84 L1127.40 1857.43 L1117.89 1857.43 L1104.74 1857.23 L1095.63 1856.82 L1082.28 1856.42 L1073.37 1856.22 L1059.62 1855.81 L1039.58 1855.81 L1016.11 1856.01 L991.83 1855.81 L982.53 1855.81 L968.77 1855.81 L960.07 1855.21 L951.37 1854.80 L945.09 1854.40 L937.61 1854.40 L932.55 1854.40 L929.52 1854.60 L925.87 1854.80 L924.25 1855.00 L920.81 1855.21 L896.54 1854.80 L888.85 1854.40 L883.18 1853.99 L877.72 1853.59 L873.06 1853.18 L862.34 1853.18 L848.78 1852.78 L840.08 1852.78 L825.31 1852.58 L817.63 1852.37 L802.25 1852.58 L794.96 1852.58 L786.06 1852.58 L771.49 1852.17 L767.24 1852.17 L750.86 1851.97 L747.62 1851.97 L745.39 1851.97 L745.80 1826.68 L746.00 1801.19 L746.20 1775.90 L746.20 1750.61 L751.46 1750.61 L758.14 1701.85 L756.32 1675.55 L754.70 1669.48 L750.86 1659.97 L745.19 1650.06 L703.31 1649.45 L680.65 1649.05 L681.05 1645.61 L681.66 1630.44 L681.86 1625.58 L681.86 1622.14 L681.86 1615.87 L672.96 1611.22 L648.27 1605.96 L648.27 1599.68 L643.62 1601.10 L605.58 1592.20 L571.99 1588.36 L568.76 1592.00 L568.15 1593.01 L550.14 1573.99 L536.38 1558.41 L532.54 1553.56 L531.32 1552.14 L514.53 1532.31 L511.50 1528.88 L500.77 1517.55 L496.73 1513.10 L480.13 1494.68 L471.64 1484.16 L467.39 1478.90 L465.36 1475.67 L461.52 1466.97 L459.09 1463.53 L457.07 1461.30 L444.32 1450.58 L437.65 1445.73 L434.81 1443.90 L430.16 1441.48 L429.15 1440.47 L423.08 1432.78 L418.63 1426.91 L417.21 1424.68 L415.39 1421.25 L414.17 1418.21 L413.37 1415.99 L412.76 1414.77 L410.73 1410.12 L409.32 1407.49 L400.01 1392.11 L399.00 1391.10 L397.79 1390.49 L395.76 1390.09 L390.91 1390.09 L389.69 1389.89 L387.87 1389.68 L385.65 1388.67 L383.82 1387.46 L381.60 1385.44 L367.84 1370.26 L350.44 1351.04 L327.78 1325.75 L323.12 1321.91 L317.86 1319.08 L307.75 1315.23 L289.13 1308.35 L223.58 1315.23 L204.56 1314.02 L175.02 1315.23 L143.25 1316.85 L133.74 1313.01 L115.13 1313.01 L130.10 1244.42 L121.80 1114.74 L160.85 1014.60 L170.77 983.85 L187.76 931.45 L200.31 919.91 L212.04 903.93 L222.77 882.28 L228.84 870.15 L235.51 858.21 L237.34 854.16 L247.25 838.18 L254.74 817.14 L305.32 663.18 L306.13 661.36 L312.00 643.35 L331.83 583.67 L358.94 502.54 L363.19 489.19 L367.64 461.47 L375.73 416.97 L379.78 392.28 L379.78 268.06 L384.23 204.54 L386.66 193.41 L413.77 132.31 L433.60 86.99 L446.75 80.93 L469.82 69.39 L480.94 65.14 L484.38 63.93 L483.98 95.90 L483.57 113.30 L482.97 140.00 L531.73 121.39 L548.73 114.51 L621.97 84.57 L646.86 92.05 L680.44 103.38 L693.19 107.63 L700.27 110.06 L710.79 110.46 L721.92 111.47 L741.35 110.87 L759.96 109.86 L781.61 109.45 L793.35 107.43 L847.57 129.28 L896.54 149.91 L992.64 188.56 L1011.46 205.95 L1042.01 234.68 L1083.49 273.12 L1139.33 326.94 L1158.76 345.95 L1178.59 364.97 L1191.94 378.12 L1199.83 387.02 L1213.19 400.78 L1218.45 406.04 L1255.27 443.47 L1282.79 484.74 L1297.36 505.17 L1334.99 536.94 L1357.25 546.65 L1393.87 563.24 L1442.83 590.75 L1487.75 615.64 L1518.10 632.43 L1535.70 641.94 L1544.81 647.40 L1546.83 648.82 L1586.89 679.16 L1613.60 706.88 L1647.19 734.80 L1672.88 760.90 L1713.55 804.19 L1741.07 832.92 L1747.95 841.62 L1748.76 842.83 L1749.37 843.64 L1768.79 877.02 L1789.63 912.02 L1806.02 939.54 L1813.51 961.79 L1827.47 1005.09 L1829.29 1011.16 L1847.70 1068.21 L1866.31 1125.67 L1873.40 1175.44 L1882.70 1242.00 L1885.54 1259.80 L1885.33 1264.05 L1899.70 1308.76 L1886.14 1345.99 L1882.50 1355.49 L1856.80 1425.49 L1851.54 1440.06 L1827.26 1505.41 L1793.27 1597.05 L1804.00 1676.56 L1808.25 1707.92 L1813.10 1744.14 L1816.74 1771.04 L1821.80 1792.08 L1828.68 1817.17 L1831.92 1828.50 L1842.64 1881.71 L1864.49 1967.69 L1900.51 2033.04 L1823.42 2100.61 L1823.42 2100.61 Z" stroke-linejoin="round"/>
	</defs>
	<use xlink:href="#path_WzsyRZAD" style="fill:#9DC8CA;stroke:#9DD7F0;stroke-width:5.76"/>
	<defs>
		<path id="path_NZiWejDp" d="M165.10 3452.46 L165.10 3452.46 L164.70 3493.53 L117.76 3489.89 L118.36 3475.32 L118.97 3451.65 L81.74 3450.04 L71.83 3449.63 L66.97 3449.43 L70.61 3248.73 L71.42 3191.28 L71.63 3173.07 L72.23 3147.38 L72.23 3121.68 L72.44 3107.52 L72.64 3085.47 L72.84 3078.59 L73.24 3038.94 L73.45 2955.38 L74.26 2896.10 L74.66 2865.96 L75.27 2822.26 L75.47 2795.96 L75.87 2766.83 L76.28 2748.42 L76.28 2734.86 L76.89 2692.58 L77.29 2667.89 L77.70 2639.57 L78.10 2614.69 L78.91 2542.46 L79.31 2531.13 L79.92 2515.96 L81.14 2488.85 L82.96 2456.07 L85.99 2374.34 L86.60 2361.19 L88.01 2326.39 L84.78 2295.64 L71.42 2258.21 L56.65 2215.32 L49.57 2181.13 L46.33 2124.28 L59.69 1952.52 L56.65 1899.51 L42.09 1834.37 L35.41 1809.69 L37.43 1796.33 L39.66 1788.04 L49.17 1765.18 L79.31 1710.15 L80.53 1708.33 L82.55 1705.29 L78.71 1685.47 L70.61 1642.37 L66.57 1621.74 L88.22 1521.19 L84.98 1482.95 L108.05 1358.33 L111.28 1337.49 L112.90 1327.78 L115.13 1313.01 L133.74 1313.01 L143.25 1316.85 L175.02 1315.23 L204.56 1314.02 L223.58 1315.23 L289.13 1308.35 L307.75 1315.23 L317.86 1319.08 L323.12 1321.91 L327.78 1325.75 L350.44 1351.04 L367.84 1370.26 L381.60 1385.44 L383.82 1387.46 L385.65 1388.67 L387.87 1389.68 L389.69 1389.89 L390.91 1390.09 L395.76 1390.09 L397.79 1390.49 L399.00 1391.10 L400.01 1392.11 L409.32 1407.49 L410.73 1410.12 L412.76 1414.77 L413.37 1415.99 L414.17 1418.21 L415.39 1421.25 L417.21 1424.68 L418.63 1426.91 L423.08 1432.78 L429.15 1440.47 L430.16 1441.48 L434.81 1443.90 L437.65 1445.73 L444.32 1450.58 L457.07 1461.30 L459.09 1463.53 L461.52 1466.97 L465.36 1475.67 L467.39 1478.90 L471.64 1484.16 L480.13 1494.68 L496.73 1513.10 L500.77 1517.55 L511.50 1528.88 L514.53 1532.31 L531.32 1552.14 L532.54 1553.56 L536.38 1558.41 L550.14 1573.99 L568.15 1593.01 L568.76 1592.00 L571.99 1588.36 L605.58 1592.20 L643.62 1601.10 L648.27 1599.68 L648.27 1605.96 L672.96 1611.22 L681.86 1615.87 L681.86 1622.14 L681.86 1625.58 L681.66 1630.44 L681.05 1645.61 L680.65 1649.05 L703.31 1649.45 L745.19 1650.06 L750.86 1659.97 L754.70 1669.48 L756.32 1675.55 L758.14 1701.85 L751.46 1750.61 L746.20 1750.61 L746.20 1775.90 L746.00 1801.19 L745.80 1826.68 L745.39 1851.97 L747.62 1851.97 L750.86 1851.97 L749.24 1897.08 L749.03 1925.41 L749.03 1952.11 L744.79 1952.11 L742.56 1971.33 L736.69 1984.89 L720.51 2010.78 L719.09 2017.86 L728.60 2052.26 L748.63 2098.99 L753.49 2110.12 L754.50 2112.75 L759.56 2128.93 L764.41 2148.96 L771.09 2158.67 L768.86 2156.45 L767.85 2155.44 L766.84 2154.63 L765.63 2154.22 L764.41 2153.82 L762.79 2153.62 L760.77 2153.41 L758.75 2153.41 L756.52 2153.41 L754.70 2153.62 L753.08 2153.82 L751.46 2154.22 L750.05 2154.83 L748.63 2155.64 L742.96 2151.59 L728.80 2151.80 L731.84 2152.81 L732.04 2152.81 L735.88 2154.02 L738.72 2155.24 L741.55 2156.45 L745.39 2158.47 L744.38 2160.70 L743.57 2164.95 L743.37 2167.98 L743.37 2173.44 L743.37 2179.31 L743.17 2226.45 L742.96 2254.17 L745.80 2255.99 L751.06 2259.63 L748.43 2266.91 L746.20 2274.40 L744.99 2279.25 L744.18 2283.91 L743.57 2288.76 L743.37 2294.63 L743.37 2304.95 L743.17 2308.59 L742.76 2355.32 L742.56 2381.83 L742.36 2407.11 L742.36 2432.81 L742.36 2436.65 L742.56 2443.13 L742.76 2449.40 L743.37 2454.46 L743.57 2456.07 L743.98 2457.89 L745.39 2463.15 L746.20 2466.19 L747.62 2469.83 L749.03 2473.27 L750.65 2476.71 L752.68 2480.55 L756.12 2486.42 L758.54 2489.66 L761.78 2493.10 L765.63 2497.35 L768.86 2501.19 L774.33 2506.85 L782.01 2515.76 L784.24 2517.98 L787.28 2521.42 L791.52 2526.07 L795.57 2530.93 L798.40 2534.37 L800.43 2537.61 L801.64 2539.43 L802.65 2541.05 L803.87 2543.27 L804.68 2544.69 L806.29 2548.13 L807.31 2550.35 L808.32 2552.58 L810.14 2557.23 L811.56 2561.07 L813.78 2566.94 L817.63 2580.09 L819.04 2586.16 L820.86 2594.05 L823.29 2605.58 L821.67 2611.65 L821.07 2612.26 L820.26 2613.07 L819.65 2613.88 L818.64 2616.10 L806.90 2647.66 L792.94 2657.37 L776.15 2657.17 L751.67 2656.97 L732.65 2656.57 L677.41 2655.35 L685.10 2683.88 L688.33 2694.80 L689.35 2699.46 L701.89 2699.66 L717.67 2699.66 L739.53 2699.86 L751.46 2700.26 L751.26 2731.22 L751.46 2759.54 L751.46 2777.75 L751.06 2780.99 L750.25 2782.20 L750.05 2782.40 L748.63 2783.42 L741.95 2784.63 L743.37 2798.18 L773.92 2791.51 L788.08 2788.47 L800.22 2786.85 L818.03 2777.55 L818.23 2779.37 L817.83 2801.62 L791.93 2806.28 L771.49 2810.12 L753.08 2813.56 L751.46 2814.37 L750.45 2815.38 L749.44 2817.00 L748.43 2820.84 L747.82 2846.13 L747.21 2850.79 L746.00 2853.21 L745.60 2854.22 L743.17 2856.85 L741.75 2857.46 L740.33 2857.46 L736.09 2857.66 L737.70 2883.36 L737.50 2907.23 L737.70 2933.33 L738.31 2958.42 L714.44 2958.62 L714.44 2996.86 L706.14 2993.62 L702.90 2992.40 L699.46 2991.39 L696.43 2990.79 L693.39 2990.58 L690.36 2990.58 L687.32 2990.99 L684.90 2991.39 L686.11 2994.02 L686.51 2995.03 L687.32 2996.05 L688.33 2997.46 L689.75 2999.28 L690.56 3000.70 L691.37 3002.12 L691.98 3003.73 L692.18 3004.75 L692.38 3005.96 L692.38 3007.58 L692.38 3009.20 L691.98 3010.81 L691.37 3012.43 L688.33 3020.12 L687.93 3021.13 L687.73 3022.35 L687.73 3024.37 L687.93 3026.19 L688.33 3027.81 L688.54 3029.02 L689.14 3031.05 L689.95 3032.87 L691.37 3035.50 L689.95 3037.72 L688.94 3038.73 L686.92 3039.14 L682.47 3038.94 L679.84 3039.14 L669.32 3043.59 L661.63 3047.03 L660.62 3047.84 L659.40 3049.66 L658.79 3052.49 L659.00 3056.94 L658.59 3057.95 L657.38 3058.56 L645.24 3058.36 L633.10 3058.36 L585.35 3057.55 L585.35 3085.06 L615.29 3084.86 L645.44 3085.67 L675.39 3085.87 L680.65 3085.87 L706.14 3086.48 L716.86 3086.68 L729.61 3086.68 L733.66 3087.09 L734.26 3087.90 L734.47 3089.92 L735.07 3125.73 L735.07 3141.51 L734.87 3160.93 L734.87 3189.86 L734.87 3197.75 L734.26 3234.37 L734.26 3236.19 L733.86 3260.87 L733.46 3273.42 L733.05 3288.99 L732.65 3295.67 L732.65 3321.36 L732.44 3330.06 L732.44 3336.34 L732.44 3359.20 L732.65 3364.66 L732.65 3368.10 L732.24 3393.99 L732.24 3428.79 L732.04 3445.58 L732.04 3463.39 L707.76 3462.98 L683.07 3462.58 L657.78 3461.97 L631.48 3461.57 L612.86 3461.36 L598.30 3460.96 L588.59 3460.76 L568.96 3460.35 L551.96 3459.95 L528.49 3459.95 L478.11 3458.53 L473.86 3458.53 L461.52 3458.13 L422.87 3457.12 L378.16 3456.71 L376.95 3456.51 L375.73 3456.31 L374.52 3455.90 L373.30 3455.70 L372.09 3455.30 L370.67 3454.69 L368.25 3453.68 L366.22 3454.89 L365.21 3455.50 L363.59 3456.10 L361.77 3456.31 L358.74 3456.10 L310.38 3455.30 L298.24 3454.69 L280.23 3454.49 L258.99 3454.28 L221.96 3453.47 L188.57 3452.87 L181.69 3452.87 L165.10 3452.46 L165.10 3452.46 Z" stroke-linejoin="round"/>
	</defs>
	<use xlink:href="#path_NZiWejDp" style="fill:#6BACAF;stroke:#6BB4D2;stroke-width:5.76"/>
	<defs>
		<path id="path_ubSbamaQ" d="M2018.06 4725.01 L2018.06 4725.01 L2011.39 4726.02 L1941.78 4727.64 L1940.77 4727.23 L1937.33 4726.22 L1850.33 4726.22 L1850.13 4676.05 L1849.72 4590.67 L1850.33 4558.71 L1850.33 4540.70 L1849.72 4527.55 L1848.91 4524.31 L1840.82 4523.51 L1825.04 4524.52 L1804.81 4523.71 L1775.47 4523.91 L1745.32 4524.92 L1712.95 4519.46 L1550.88 4521.68 L1548.25 4523.51 L1546.43 4526.34 L1545.82 4527.55 L1545.42 4530.59 L1544.61 4558.30 L1544.61 4584.60 L1545.21 4620.82 L1481.88 4622.23 L1457.60 4622.64 L1455.98 4644.08 L1427.66 4642.67 L1428.47 4623.25 L1368.37 4624.05 L1369.99 4520.67 L1371.81 4476.57 L1372.02 4468.48 L1372.22 4455.53 L1372.42 4444.00 L1370.80 4415.87 L1370.80 4414.26 L1370.60 4411.63 L1373.63 4381.68 L1374.24 4157.52 L1374.24 4112.81 L1373.63 4060.82 L1374.04 3918.59 L1374.24 3914.54 L1376.27 3909.89 L1376.27 3887.23 L1375.25 3884.60 L1374.44 3881.37 L1374.04 3877.12 L1374.24 3869.02 L1374.65 3820.06 L1374.65 3814.40 L1374.85 3790.93 L1374.65 3757.15 L1375.05 3743.39 L1375.25 3740.96 L1375.25 3737.93 L1362.51 3735.50 L1355.43 3710.82 L1368.98 3710.82 L1369.79 3649.92 L1370.20 3613.91 L1370.40 3596.71 L1370.60 3572.64 L1370.80 3548.56 L1364.13 3548.76 L1331.55 3548.16 L1327.71 3548.36 L1312.94 3550.58 L1315.36 3522.46 L1315.57 3478.36 L1315.36 3469.66 L1312.13 3469.86 L1309.09 3469.66 L1296.14 3469.86 L1289.06 3469.66 L1275.71 3469.46 L1242.52 3469.25 L1230.99 3469.05 L1220.67 3468.85 L1208.94 3468.85 L1207.72 3468.85 L1167.05 3468.24 L1163.01 3468.24 L1141.56 3467.84 L1096.03 3467.23 L1053.75 3466.42 L1050.31 3466.42 L1011.86 3466.62 L1004.18 3467.03 L1002.35 3467.03 L995.27 3467.43 L980.91 3467.64 L923.04 3466.62 L864.97 3465.41 L862.75 3465.41 L854.25 3465.41 L852.83 3465.21 L851.41 3465.21 L848.18 3465.01 L845.55 3465.01 L841.50 3464.80 L834.22 3465.21 L825.52 3465.01 L805.08 3464.60 L783.43 3464.40 L767.65 3464.20 L732.04 3463.39 L732.04 3445.58 L732.24 3428.79 L732.24 3393.99 L732.65 3368.10 L732.65 3364.66 L732.44 3359.20 L732.44 3336.34 L732.44 3330.06 L732.65 3321.36 L732.65 3295.67 L733.05 3288.99 L733.46 3273.42 L733.86 3260.87 L734.26 3236.19 L734.26 3234.37 L734.87 3197.75 L734.87 3189.86 L734.87 3160.93 L735.07 3141.51 L735.07 3125.73 L734.47 3089.92 L734.26 3087.90 L733.66 3087.09 L729.61 3086.68 L716.86 3086.68 L706.14 3086.48 L680.65 3085.87 L675.39 3085.87 L645.44 3085.67 L615.29 3084.86 L585.35 3085.06 L585.35 3057.55 L633.10 3058.36 L645.24 3058.36 L657.38 3058.56 L658.59 3057.95 L659.00 3056.94 L658.79 3052.49 L659.40 3049.66 L660.62 3047.84 L661.63 3047.03 L669.32 3043.59 L679.84 3039.14 L682.47 3038.94 L686.92 3039.14 L688.94 3038.73 L689.95 3037.72 L691.37 3035.50 L689.95 3032.87 L689.14 3031.05 L688.54 3029.02 L688.33 3027.81 L687.93 3026.19 L687.73 3024.37 L687.73 3022.35 L687.93 3021.13 L688.33 3020.12 L691.37 3012.43 L691.98 3010.81 L692.38 3009.20 L692.38 3007.58 L692.38 3005.96 L692.18 3004.75 L691.98 3003.73 L691.37 3002.12 L690.56 3000.70 L689.75 2999.28 L688.33 2997.46 L687.32 2996.05 L686.51 2995.03 L686.11 2994.02 L684.90 2991.39 L687.32 2990.99 L690.36 2990.58 L693.39 2990.58 L696.43 2990.79 L699.46 2991.39 L702.90 2992.40 L706.14 2993.62 L714.44 2996.86 L714.44 2958.62 L738.31 2958.42 L737.70 2933.33 L737.50 2907.23 L737.70 2883.36 L736.09 2857.66 L740.33 2857.46 L741.75 2857.46 L743.17 2856.85 L745.60 2854.22 L746.00 2853.21 L747.21 2850.79 L747.82 2846.13 L748.43 2820.84 L749.44 2817.00 L750.45 2815.38 L751.46 2814.37 L753.08 2813.56 L771.49 2810.12 L791.93 2806.28 L817.83 2801.62 L818.23 2779.37 L818.03 2777.55 L800.22 2786.85 L788.08 2788.47 L773.92 2791.51 L743.37 2798.18 L741.95 2784.63 L748.63 2783.42 L750.05 2782.40 L750.25 2782.20 L751.06 2780.99 L751.46 2777.75 L751.46 2759.54 L751.26 2731.22 L751.46 2700.26 L739.53 2699.86 L717.67 2699.66 L701.89 2699.66 L689.35 2699.46 L688.33 2694.80 L685.10 2683.88 L677.41 2655.35 L732.65 2656.57 L751.67 2656.97 L776.15 2657.17 L792.94 2657.37 L806.90 2647.66 L818.64 2616.10 L819.65 2613.88 L820.26 2613.07 L821.07 2612.26 L821.67 2611.65 L823.29 2605.58 L820.86 2594.05 L819.04 2586.16 L817.63 2580.09 L813.78 2566.94 L811.56 2561.07 L810.14 2557.23 L808.32 2552.58 L807.31 2550.35 L806.29 2548.13 L804.68 2544.69 L803.87 2543.27 L802.65 2541.05 L801.64 2539.43 L800.43 2537.61 L798.40 2534.37 L795.57 2530.93 L791.52 2526.07 L787.28 2521.42 L784.24 2517.98 L782.01 2515.76 L774.33 2506.85 L768.86 2501.19 L765.63 2497.35 L761.78 2493.10 L758.54 2489.66 L756.12 2486.42 L752.68 2480.55 L750.65 2476.71 L749.03 2473.27 L747.62 2469.83 L746.20 2466.19 L745.39 2463.15 L743.98 2457.89 L743.57 2456.07 L743.37 2454.46 L742.76 2449.40 L742.56 2443.13 L742.36 2436.65 L742.36 2432.81 L742.36 2407.11 L742.56 2381.83 L742.76 2355.32 L743.17 2308.59 L743.37 2304.95 L743.37 2294.63 L743.57 2288.76 L744.18 2283.91 L744.99 2279.25 L746.20 2274.40 L748.43 2266.91 L751.06 2259.63 L745.80 2255.99 L742.96 2254.17 L743.17 2226.45 L743.37 2179.31 L743.37 2173.44 L743.37 2167.98 L743.57 2164.95 L744.38 2160.70 L745.39 2158.47 L741.55 2156.45 L738.72 2155.24 L735.88 2154.02 L732.04 2152.81 L731.84 2152.81 L728.80 2151.80 L742.96 2151.59 L748.63 2155.64 L750.05 2154.83 L751.46 2154.22 L753.08 2153.82 L754.70 2153.62 L756.52 2153.41 L758.75 2153.41 L760.77 2153.41 L762.79 2153.62 L764.41 2153.82 L765.63 2154.22 L766.84 2154.63 L767.85 2155.44 L768.86 2156.45 L771.09 2158.67 L764.41 2148.96 L759.56 2128.93 L754.50 2112.75 L753.49 2110.12 L748.63 2098.99 L728.60 2052.26 L719.09 2017.86 L720.51 2010.78 L736.69 1984.89 L742.56 1971.33 L744.79 1952.11 L749.03 1952.11 L749.03 1925.41 L749.24 1897.08 L750.86 1851.97 L767.24 1852.17 L771.49 1852.17 L786.06 1852.58 L794.96 1852.58 L802.25 1852.58 L817.63 1852.37 L825.31 1852.58 L840.08 1852.78 L848.78 1852.78 L862.34 1853.18 L873.06 1853.18 L877.72 1853.59 L883.18 1853.99 L888.85 1854.40 L896.54 1854.80 L920.81 1855.21 L924.25 1855.00 L925.87 1854.80 L929.52 1854.60 L932.55 1854.40 L937.61 1854.40 L945.09 1854.40 L951.37 1854.80 L960.07 1855.21 L968.77 1855.81 L982.53 1855.81 L991.83 1855.81 L1016.11 1856.01 L1039.58 1855.81 L1059.62 1855.81 L1073.37 1856.22 L1082.28 1856.42 L1095.63 1856.82 L1104.74 1857.23 L1117.89 1857.43 L1127.40 1857.43 L1140.55 1857.84 L1150.26 1858.04 L1163.01 1858.04 L1167.05 1858.24 L1185.06 1858.44 L1197.81 1858.44 L1222.69 1858.64 L1241.71 1859.05 L1249.81 1859.05 L1260.53 1859.05 L1287.64 1859.45 L1310.91 1859.45 L1332.76 1859.86 L1344.50 1860.06 L1359.07 1860.87 L1379.70 1862.49 L1384.56 1862.49 L1388.81 1862.69 L1396.90 1862.69 L1411.07 1862.89 L1423.81 1863.30 L1425.84 1863.30 L1428.67 1863.10 L1432.92 1863.10 L1435.75 1863.10 L1439.80 1863.10 L1447.08 1863.30 L1449.71 1863.30 L1452.75 1863.30 L1456.59 1863.30 L1463.27 1863.30 L1471.56 1863.50 L1476.62 1863.10 L1482.69 1862.89 L1499.08 1862.08 L1514.05 1862.29 L1522.35 1862.49 L1537.12 1862.69 L1538.13 1865.12 L1541.57 1870.78 L1546.83 1877.06 L1551.49 1883.53 L1555.94 1888.38 L1556.95 1889.40 L1569.09 1908.82 L1573.54 1915.29 L1576.17 1918.53 L1585.07 1924.19 L1597.41 1931.28 L1604.09 1933.91 L1608.34 1935.12 L1611.78 1935.73 L1612.59 1937.55 L1610.36 1953.73 L1609.76 1956.56 L1608.34 1958.39 L1607.53 1958.59 L1609.96 1960.21 L1611.78 1961.22 L1613.80 1962.03 L1622.30 1963.04 L1624.12 1963.65 L1627.76 1965.06 L1630.80 1967.69 L1633.43 1971.33 L1643.34 2005.73 L1653.26 2006.74 L1664.79 2007.75 L1680.98 2007.95 L1704.25 2008.15 L1708.09 2018.07 L1713.35 2027.37 L1714.16 2030.81 L1715.78 2033.65 L1717.20 2034.66 L1718.21 2036.48 L1719.83 2042.14 L1720.64 2043.96 L1722.66 2046.19 L1730.95 2051.04 L1747.14 2063.39 L1758.27 2074.31 L1763.73 2082.60 L1767.98 2090.50 L1775.06 2103.85 L1784.17 2122.46 L1786.80 2127.11 L1791.25 2135.41 L1792.67 2139.25 L1823.42 2100.61 L1900.51 2033.04 L1956.15 2083.01 L2042.55 2127.32 L2097.78 2155.64 L2163.95 2197.72 L2217.97 2228.88 L2231.93 2278.85 L2242.25 2323.15 L2260.86 2394.17 L2265.92 2411.16 L2291.01 2511.31 L2299.51 2543.07 L2303.76 2560.67 L2314.28 2580.70 L2335.12 2609.83 L2392.78 2627.63 L2393.80 2632.69 L2394.81 2635.73 L2396.63 2639.37 L2398.65 2641.80 L2401.89 2643.82 L2405.13 2645.03 L2409.17 2644.83 L2413.02 2646.65 L2414.43 2646.05 L2417.87 2644.02 L2420.30 2643.21 L2421.11 2642.81 L2423.54 2642.40 L2425.76 2643.01 L2430.21 2645.84 L2431.43 2646.25 L2433.25 2645.84 L2434.87 2645.24 L2436.69 2644.43 L2437.70 2644.63 L2441.34 2648.88 L2443.77 2649.08 L2445.19 2649.89 L2448.63 2653.33 L2451.06 2654.54 L2453.08 2655.35 L2454.70 2656.57 L2456.92 2657.58 L2461.37 2657.17 L2463.80 2657.78 L2471.09 2660.81 L2475.74 2660.81 L2480.19 2659.40 L2484.04 2655.55 L2514.79 2664.86 L2613.12 2695.61 L2628.10 2703.30 L2666.13 2723.33 L2665.53 2776.74 L2665.53 2821.25 L2666.74 2837.23 L2666.94 2844.31 L2666.94 2850.99 L2665.53 2891.25 L2665.12 2900.76 L2665.53 2908.04 L2665.33 2923.82 L2665.53 2940.61 L2665.93 2965.70 L2646.71 2967.32 L2631.54 2967.32 L2620.61 2968.53 L2608.67 2974.40 L2594.51 2980.67 L2580.35 2985.32 L2565.17 2988.36 L2550.00 2988.36 L2546.96 2985.93 L2545.54 2984.92 L2533.61 2991.39 L2528.95 2995.24 L2522.88 3000.09 L2510.95 3010.01 L2504.47 3012.64 L2499.21 3012.43 L2494.96 3015.06 L2487.27 3020.12 L2483.02 3025.38 L2474.32 3027.81 L2466.63 3027.61 L2462.39 3029.23 L2449.23 3038.73 L2447.01 3037.32 L2444.78 3036.31 L2440.33 3035.09 L2436.69 3034.69 L2433.45 3034.69 L2431.43 3035.09 L2426.78 3036.71 L2405.13 3050.67 L2397.44 3057.35 L2392.78 3063.01 L2389.95 3067.06 L2389.14 3066.65 L2382.87 3066.05 L2337.34 3065.64 L2305.98 3082.43 L2305.58 3104.69 L2305.58 3161.13 L2305.58 3217.58 L2305.78 3262.90 L2305.58 3284.95 L2305.38 3333.91 L2305.38 3359.40 L2305.17 3372.95 L2305.17 3400.87 L2305.17 3412.40 L2305.17 3419.49 L2304.97 3433.85 L2304.77 3452.67 L2303.96 3472.29 L2303.55 3482.61 L2303.15 3496.57 L2302.75 3511.34 L2302.75 3532.78 L2302.75 3570.61 L2296.68 3570.61 L2274.22 3570.01 L2233.14 3568.59 L2201.98 3567.38 L2159.29 3565.76 L2137.64 3564.75 L2110.53 3563.73 L2091.92 3563.13 L2086.45 3562.93 L2074.31 3562.52 L2071.07 3565.35 L2069.86 3566.57 L2046.79 3561.31 L2036.68 3560.90 L2026.76 3560.50 L2025.75 3560.30 L2016.24 3559.49 L2009.36 3558.68 L2005.52 3558.07 L1994.59 3556.65 L1973.15 3552.41 L1966.27 3550.99 L1966.47 3555.24 L1966.47 3595.50 L1965.86 3648.71 L1945.02 3667.52 L1939.36 3667.72 L1937.33 3667.72 L1935.92 3667.32 L1934.50 3667.12 L1932.88 3666.31 L1931.47 3665.70 L1930.45 3665.09 L1929.24 3664.69 L1928.23 3664.69 L1923.78 3664.28 L1914.27 3663.88 L1912.65 3663.88 L1911.23 3663.88 L1910.22 3664.08 L1899.50 3655.99 L1897.88 3693.01 L1849.52 3693.42 L1855.19 3576.89 L1838.19 3565.76 L1828.07 3581.94 L1826.66 3584.78 L1816.95 3611.68 L1817.35 3625.44 L1817.96 3640.82 L1818.36 3655.99 L1811.08 3671.16 L1759.28 3717.29 L1770.00 3723.36 L1784.57 3723.16 L1787.40 3722.95 L1791.25 3722.55 L1795.30 3727.81 L1803.59 3735.50 L1824.84 3755.53 L1835.76 3766.45 L1851.75 3781.22 L1866.72 3796.39 L1871.78 3800.84 L1885.74 3814.80 L1920.94 3771.11 L1923.57 3767.46 L1926.00 3763.62 L1933.49 3750.67 L1935.31 3746.63 L1937.13 3742.38 L1938.75 3737.72 L1939.96 3734.49 L1940.98 3730.64 L1942.39 3725.18 L1942.59 3755.32 L1942.80 3755.93 L1943.20 3756.74 L1943.20 3757.35 L1943.20 3758.36 L1943.00 3760.99 L1940.77 3788.30 L1939.76 3792.55 L1938.75 3795.18 L1935.31 3802.67 L1930.66 3813.39 L1928.84 3819.26 L1928.23 3826.94 L1928.63 3839.08 L1928.84 3843.53 L1929.64 3848.19 L1932.88 3854.86 L1934.70 3858.10 L1935.31 3859.11 L1936.32 3862.55 L1937.54 3869.43 L1938.55 3876.91 L1938.95 3885.61 L1939.15 3891.89 L1942.39 3908.07 L1943.61 3911.51 L1945.22 3914.54 L1947.85 3917.78 L1950.48 3920.41 L1951.70 3921.22 L1952.91 3921.83 L1956.96 3922.64 L1981.04 3923.45 L2017.25 3923.85 L2037.29 3923.65 L2047.60 3923.65 L2074.11 3924.05 L2078.56 3924.86 L2087.06 3928.30 L2096.77 3934.37 L2104.46 3939.43 L2129.95 3954.80 L2135.82 3958.04 L2145.74 3962.29 L2149.18 3963.10 L2151.40 3963.50 L2155.65 3964.11 L2196.12 3973.22 L2206.23 3974.83 L2213.72 3975.64 L2223.63 3976.45 L2244.47 3976.65 L2244.07 3982.32 L2243.66 3989.60 L2243.66 4013.68 L2243.87 4041.19 L2243.26 4078.22 L2242.86 4188.48 L2242.86 4228.94 L2242.86 4234.81 L2242.25 4295.50 L2242.65 4322.20 L2242.65 4376.02 L2242.05 4413.45 L2241.84 4426.19 L2244.88 4428.62 L2250.34 4432.67 L2260.66 4439.14 L2280.49 4450.67 L2291.41 4456.34 L2294.05 4457.96 L2150.79 4716.11 L2078.16 4720.96 L2018.06 4725.01 L2018.06 4725.01 Z" stroke-linejoin="round"/>
	</defs>
	<use xlink:href="#path_ubSbamaQ" style="fill:#09757A;stroke:#097D9B;stroke-width:5.76"/>
	<defs>
		<path id="path_aFkvVgOD" d="M697.24 6388.02 L697.24 6388.02 L700.47 6394.29 L700.88 6401.98 L699.26 6406.63 L696.63 6410.68 L559.25 6389.23 L464.56 6390.44 L202.53 6378.31 L199.10 6376.49 L181.49 6376.89 L113.31 6369.40 L60.50 6363.13 L49.98 6361.92 L46.74 6360.91 L44.11 6358.68 L41.48 6356.25 L28.12 6355.04 L30.55 6320.65 L32.98 6287.67 L31.77 6150.10 L36.22 5948.19 L37.03 5911.57 L37.43 5872.52 L37.84 5831.46 L38.04 5816.08 L40.06 5614.37 L42.69 5391.02 L43.91 5351.17 L47.75 5120.33 L49.17 5033.13 L49.77 4945.12 L49.57 4919.63 L50.18 4898.19 L50.58 4891.92 L50.58 4822.32 L50.58 4780.04 L51.19 4686.97 L51.39 4656.42 L53.42 4541.92 L53.82 4510.76 L54.63 4466.05 L54.63 4459.17 L54.63 4454.31 L54.63 4448.65 L84.37 4449.05 L140.22 4450.27 L146.89 4450.07 L151.95 4449.46 L157.62 4448.24 L162.88 4446.42 L168.95 4444.00 L175.83 4440.76 L180.08 4438.74 L189.79 4433.27 L196.06 4429.23 L205.17 4422.75 L212.85 4416.68 L224.79 4405.96 L234.71 4395.24 L250.69 4374.60 L256.36 4366.71 L263.23 4354.57 L271.93 4335.35 L274.97 4328.48 L279.42 4315.12 L284.48 4298.53 L286.91 4298.74 L289.94 4298.74 L289.54 4326.05 L289.54 4333.94 L289.34 4343.45 L289.34 4352.75 L289.13 4384.31 L289.13 4388.77 L289.13 4395.24 L288.93 4397.87 L288.93 4400.09 L288.93 4406.77 L305.32 4403.13 L306.74 4402.72 L312.00 4401.92 L312.20 4405.56 L312.40 4407.78 L312.00 4410.61 L311.79 4422.35 L319.69 4443.79 L324.14 4456.74 L328.59 4469.49 L333.65 4479.81 L336.88 4484.66 L339.11 4487.29 L349.43 4498.62 L376.14 4501.25 L376.34 4512.78 L375.93 4520.67 L374.92 4583.19 L374.32 4608.07 L374.11 4629.52 L364.40 4628.71 L356.91 4626.89 L347.61 4627.49 L334.66 4643.68 L335.47 4671.60 L334.86 4680.10 L341.33 4680.90 L341.54 4702.75 L333.85 4713.27 L333.04 4715.10 L331.62 4718.33 L326.56 4718.33 L325.55 4718.53 L324.54 4718.94 L323.53 4719.34 L322.72 4719.95 L322.11 4720.76 L321.30 4721.97 L320.70 4722.99 L319.69 4724.00 L318.88 4724.60 L318.07 4725.21 L316.85 4725.82 L313.01 4727.44 L301.07 4732.90 L294.19 4735.93 L295.00 4739.37 L295.00 4739.98 L295.20 4740.59 L298.04 4748.68 L324.34 4745.04 L324.74 4760.01 L357.12 4803.91 L280.84 4802.49 L256.36 4818.48 L247.86 4824.14 L230.66 4834.66 L220.34 4840.93 L218.52 4842.15 L216.70 4843.36 L215.28 4844.37 L214.27 4845.18 L212.65 4846.60 L210.83 4848.42 L209.41 4849.84 L207.80 4851.66 L206.78 4852.87 L205.77 4854.29 L204.76 4855.70 L203.95 4856.92 L202.74 4858.94 L201.32 4861.37 L199.70 4865.21 L198.08 4869.05 L196.87 4872.90 L196.06 4877.15 L195.25 4881.80 L194.64 4888.07 L194.44 4893.13 L193.83 4901.63 L193.23 4910.93 L192.82 4915.18 L192.42 4919.23 L192.22 4922.67 L192.01 4927.52 L238.75 4926.71 L282.46 4925.70 L409.93 4923.27 L458.49 4922.47 L559.45 4920.85 L565.52 4920.85 L702.30 4918.62 L704.72 4843.77 L704.52 4835.67 L703.91 4722.18 L771.49 4722.78 L803.26 4717.12 L914.74 4724.81 L1004.58 4734.11 L1152.28 4721.57 L1172.11 4720.36 L1177.98 4717.52 L1179.19 4713.68 L1179.80 4712.47 L1181.22 4711.25 L1202.46 4704.78 L1204.08 4703.56 L1205.09 4702.75 L1205.50 4702.35 L1206.10 4701.74 L1207.72 4698.71 L1208.53 4697.49 L1209.34 4695.88 L1210.15 4693.25 L1202.26 4678.27 L1182.63 4640.44 L1175.96 4627.90 L1173.93 4624.46 L1172.92 4622.23 L1170.09 4616.77 L1166.04 4608.88 L1153.90 4585.62 L1140.35 4559.52 L1114.65 4510.15 L1113.23 4507.52 L1107.77 4497.41 L1100.49 4483.24 L1089.16 4461.19 L1088.95 4460.79 L1067.71 4419.92 L1063.26 4411.63 L1061.23 4407.58 L1059.21 4403.74 L1058.20 4402.12 L1037.97 4363.07 L1023.80 4335.76 L1022.18 4333.13 L1016.11 4321.19 L1013.08 4315.73 L1008.22 4306.22 L1005.59 4301.37 L1003.57 4297.72 L999.32 4289.83 L990.62 4273.85 L986.37 4265.96 L980.50 4255.64 L978.48 4251.80 L976.66 4248.97 L971.20 4239.05 L965.94 4229.55 L960.07 4219.43 L957.84 4198.79 L949.34 4154.08 L950.36 4068.91 L1021.37 4070.33 L1053.14 4070.73 L1085.11 4071.94 L1096.44 4072.15 L1100.28 4072.15 L1103.12 4071.74 L1105.75 4071.13 L1106.76 4070.93 L1114.65 4068.30 L1109.19 4049.28 L1107.57 4044.02 L1105.54 4038.97 L1103.52 4034.31 L1101.09 4029.46 L1071.35 3976.05 L1061.44 3958.24 L1047.68 3933.76 L1044.84 3928.71 L1039.38 3919.00 L1037.76 3915.76 L1036.95 3914.34 L1035.74 3911.71 L1034.73 3909.28 L1034.12 3907.87 L1033.11 3905.44 L1032.70 3903.82 L1031.69 3899.98 L1029.27 3890.06 L1026.43 3876.51 L1024.00 3864.98 L1022.99 3860.53 L1021.98 3855.87 L1017.93 3837.26 L1012.88 3814.80 L1011.86 3809.95 L1011.66 3808.33 L1011.06 3805.09 L1010.65 3802.46 L1010.45 3800.84 L1010.45 3799.63 L1010.45 3798.62 L1010.25 3796.39 L990.01 3801.45 L992.24 3769.69 L1005.79 3579.92 L1005.79 3571.83 L1002.56 3474.11 L1003.16 3469.86 L1002.35 3467.03 L1004.18 3467.03 L1011.86 3466.62 L1050.31 3466.42 L1053.75 3466.42 L1096.03 3467.23 L1141.56 3467.84 L1163.01 3468.24 L1167.05 3468.24 L1207.72 3468.85 L1208.94 3468.85 L1220.67 3468.85 L1230.99 3469.05 L1242.52 3469.25 L1275.71 3469.46 L1289.06 3469.66 L1296.14 3469.86 L1309.09 3469.66 L1312.13 3469.86 L1315.36 3469.66 L1315.57 3478.36 L1315.36 3522.46 L1312.94 3550.58 L1327.71 3548.36 L1331.55 3548.16 L1364.13 3548.76 L1370.80 3548.56 L1370.60 3572.64 L1370.40 3596.71 L1370.20 3613.91 L1369.79 3649.92 L1368.98 3710.82 L1355.43 3710.82 L1362.51 3735.50 L1375.25 3737.93 L1375.25 3740.96 L1375.05 3743.39 L1374.65 3757.15 L1374.85 3790.93 L1374.65 3814.40 L1374.65 3820.06 L1374.24 3869.02 L1374.04 3877.12 L1374.44 3881.37 L1375.25 3884.60 L1376.27 3887.23 L1376.27 3909.89 L1374.24 3914.54 L1374.04 3918.59 L1373.63 4060.82 L1374.24 4112.81 L1374.24 4157.52 L1373.63 4381.68 L1370.60 4411.63 L1370.80 4414.26 L1370.80 4415.87 L1372.42 4444.00 L1372.22 4455.53 L1372.02 4468.48 L1371.81 4476.57 L1369.99 4520.67 L1368.37 4624.05 L1428.47 4623.25 L1427.66 4642.67 L1455.98 4644.08 L1457.60 4622.64 L1481.88 4622.23 L1545.21 4620.82 L1544.61 4584.60 L1544.61 4558.30 L1545.42 4530.59 L1545.82 4527.55 L1546.43 4526.34 L1548.25 4523.51 L1550.88 4521.68 L1712.95 4519.46 L1745.32 4524.92 L1775.47 4523.91 L1804.81 4523.71 L1825.04 4524.52 L1840.82 4523.51 L1848.91 4524.31 L1849.72 4527.55 L1850.33 4540.70 L1850.33 4558.71 L1849.72 4590.67 L1850.13 4676.05 L1850.33 4726.22 L1937.33 4726.22 L1940.77 4727.23 L1941.78 4727.64 L2011.39 4726.02 L2018.06 4725.01 L2078.16 4720.96 L2150.79 4716.11 L2294.05 4457.96 L2291.41 4456.34 L2280.49 4450.67 L2260.66 4439.14 L2250.34 4432.67 L2244.88 4428.62 L2241.84 4426.19 L2242.05 4413.45 L2242.65 4376.02 L2242.65 4322.20 L2242.25 4295.50 L2242.86 4234.81 L2242.86 4228.94 L2242.86 4188.48 L2243.26 4078.22 L2243.87 4041.19 L2243.66 4013.68 L2243.66 3989.60 L2244.07 3982.32 L2244.47 3976.65 L2223.63 3976.45 L2213.72 3975.64 L2206.23 3974.83 L2196.12 3973.22 L2155.65 3964.11 L2151.40 3963.50 L2149.18 3963.10 L2145.74 3962.29 L2135.82 3958.04 L2129.95 3954.80 L2104.46 3939.43 L2096.77 3934.37 L2087.06 3928.30 L2078.56 3924.86 L2074.11 3924.05 L2047.60 3923.65 L2037.29 3923.65 L2017.25 3923.85 L1981.04 3923.45 L1956.96 3922.64 L1952.91 3921.83 L1951.70 3921.22 L1950.48 3920.41 L1947.85 3917.78 L1945.22 3914.54 L1943.61 3911.51 L1942.39 3908.07 L1939.15 3891.89 L1938.95 3885.61 L1938.55 3876.91 L1937.54 3869.43 L1936.32 3862.55 L1935.31 3859.11 L1934.70 3858.10 L1932.88 3854.86 L1929.64 3848.19 L1928.84 3843.53 L1928.63 3839.08 L1928.23 3826.94 L1928.84 3819.26 L1930.66 3813.39 L1935.31 3802.67 L1938.75 3795.18 L1939.76 3792.55 L1940.77 3788.30 L1943.00 3760.99 L1943.20 3758.36 L1943.20 3757.35 L1943.20 3756.74 L1942.80 3755.93 L1942.59 3755.32 L1942.39 3725.18 L1940.98 3730.64 L1939.96 3734.49 L1938.75 3737.72 L1937.13 3742.38 L1935.31 3746.63 L1933.49 3750.67 L1926.00 3763.62 L1923.57 3767.46 L1920.94 3771.11 L1885.74 3814.80 L1871.78 3800.84 L1866.72 3796.39 L1851.75 3781.22 L1835.76 3766.45 L1824.84 3755.53 L1803.59 3735.50 L1795.30 3727.81 L1791.25 3722.55 L1787.40 3722.95 L1784.57 3723.16 L1770.00 3723.36 L1759.28 3717.29 L1811.08 3671.16 L1818.36 3655.99 L1817.96 3640.82 L1817.35 3625.44 L1816.95 3611.68 L1826.66 3584.78 L1828.07 3581.94 L1838.19 3565.76 L1855.19 3576.89 L1849.52 3693.42 L1897.88 3693.01 L1899.50 3655.99 L1910.22 3664.08 L1911.23 3663.88 L1912.65 3663.88 L1914.27 3663.88 L1923.78 3664.28 L1928.23 3664.69 L1929.24 3664.69 L1930.45 3665.09 L1931.47 3665.70 L1932.88 3666.31 L1934.50 3667.12 L1935.92 3667.32 L1937.33 3667.72 L1939.36 3667.72 L1945.02 3667.52 L1965.86 3648.71 L1966.47 3595.50 L1966.47 3555.24 L1966.27 3550.99 L1973.15 3552.41 L1994.59 3556.65 L2005.52 3558.07 L2009.36 3558.68 L2016.24 3559.49 L2025.75 3560.30 L2026.76 3560.50 L2036.68 3560.90 L2046.79 3561.31 L2069.86 3566.57 L2071.07 3565.35 L2074.31 3562.52 L2086.45 3562.93 L2091.92 3563.13 L2110.53 3563.73 L2137.64 3564.75 L2159.29 3565.76 L2201.98 3567.38 L2233.14 3568.59 L2274.22 3570.01 L2296.68 3570.61 L2302.75 3570.61 L2308.21 3570.21 L2332.08 3568.39 L2344.83 3567.17 L2356.97 3566.16 L2366.08 3565.35 L2370.32 3565.15 L2374.78 3571.22 L2372.75 3570.61 L2370.73 3570.61 L2370.32 3570.82 L2369.72 3571.02 L2368.50 3571.62 L2367.49 3572.23 L2364.66 3576.48 L2361.02 3584.57 L2356.97 3590.44 L2353.33 3594.89 L2352.11 3596.10 L2347.46 3600.56 L2343.82 3604.20 L2332.29 3615.93 L2305.78 3642.23 L2285.55 3662.67 L2265.31 3683.10 L2261.07 3687.35 L2255.80 3692.61 L2251.76 3696.65 L2235.77 3712.23 L2215.14 3732.26 L2194.09 3753.50 L2203.00 3764.43 L2234.36 3803.47 L2268.15 3845.56 L2281.50 3862.35 L2292.22 3874.49 L2297.69 3881.77 L2307.60 3894.31 L2317.52 3906.25 L2323.38 3912.32 L2326.62 3915.56 L2331.48 3919.20 L2335.12 3921.63 L2340.99 3925.06 L2349.28 3929.31 L2409.58 3930.32 L2482.21 3931.54 L2506.29 3931.54 L2535.83 3932.75 L2571.44 3932.35 L2585.00 3921.63 L2603.82 3922.84 L2661.08 3861.34 L2661.28 3860.53 L2678.68 3838.27 L2685.96 3828.56 L2696.89 3815.61 L2715.50 3792.75 L2719.35 3771.71 L2738.57 3784.86 L2753.14 3795.38 L2839.94 3728.01 L2843.18 3732.26 L2845.40 3736.31 L2848.84 3744.40 L2850.46 3750.47 L2851.07 3754.72 L2851.27 3760.18 L2851.27 3771.91 L2851.47 3815.01 L2851.67 3831.60 L2842.57 3842.93 L2833.67 3853.04 L2808.78 3884.60 L2801.90 3877.72 L2767.91 3921.22 L2747.67 3946.31 L2733.92 3963.71 L2723.60 3976.45 L2691.63 4018.33 L2688.59 4022.38 L2670.59 4041.60 L2663.30 4051.51 L2659.46 4055.56 L2646.10 4072.96 L2636.39 4084.69 L2621.62 4103.30 L2618.79 4107.75 L2616.77 4113.42 L2614.94 4121.11 L2614.34 4122.72 L2612.31 4125.96 L2606.85 4132.44 L2604.22 4135.47 L2602.80 4137.49 L2593.90 4151.65 L2587.22 4162.58 L2579.74 4173.10 L2575.89 4177.75 L2572.05 4175.93 L2569.82 4175.33 L2566.99 4174.72 L2564.77 4174.72 L2561.12 4175.53 L2559.91 4176.94 L2557.28 4183.42 L2555.86 4186.25 L2554.85 4187.06 L2552.22 4188.07 L2546.76 4187.87 L2542.91 4188.27 L2540.69 4188.68 L2539.07 4189.69 L2535.63 4193.74 L2532.19 4195.76 L2523.49 4197.98 L2521.06 4199.20 L2518.43 4201.22 L2516.21 4202.03 L2510.54 4203.65 L2508.11 4205.07 L2505.48 4207.70 L2503.26 4210.53 L2493.95 4226.31 L2489.09 4235.41 L2487.27 4238.65 L2484.24 4243.71 L2482.21 4245.93 L2479.18 4247.55 L2477.76 4248.56 L2474.53 4249.57 L2452.67 4252.81 L2438.11 4253.82 L2430.82 4256.45 L2427.38 4257.26 L2422.32 4257.26 L2415.85 4256.86 L2395.41 4252.61 L2390.36 4251.60 L2384.69 4251.60 L2383.48 4257.67 L2426.98 4265.76 L2439.32 4267.98 L2462.59 4273.04 L2469.67 4274.26 L2479.99 4276.08 L2476.14 4291.66 L2470.07 4321.19 L2464.41 4346.89 L2461.58 4363.48 L2457.53 4383.50 L2456.32 4387.55 L2453.48 4393.01 L2448.83 4399.89 L2432.64 4425.79 L2416.25 4452.29 L2399.46 4478.59 L2380.44 4509.95 L2373.16 4521.28 L2366.68 4530.38 L2368.50 4532.41 L2371.74 4536.05 L2374.57 4539.69 L2380.04 4547.58 L2382.26 4551.42 L2416.25 4608.27 L2421.11 4617.38 L2423.74 4623.04 L2424.55 4626.28 L2425.16 4630.73 L2425.16 4635.79 L2424.35 4640.85 L2423.13 4644.49 L2421.72 4647.73 L2419.90 4650.96 L2416.86 4654.60 L2413.62 4657.84 L2405.73 4664.11 L2394.81 4673.22 L2391.57 4676.66 L2389.34 4680.10 L2387.32 4684.14 L2386.31 4687.58 L2385.09 4691.22 L2384.89 4695.27 L2385.09 4701.14 L2387.32 4717.52 L2387.73 4720.15 L2388.74 4730.27 L2390.15 4737.35 L2390.56 4738.36 L2392.18 4743.42 L2394.60 4749.49 L2397.84 4755.56 L2407.76 4769.52 L2414.23 4777.00 L2428.60 4789.95 L2435.27 4795.41 L2453.08 4811.19 L2471.90 4828.39 L2475.54 4832.03 L2478.98 4836.08 L2481.41 4839.52 L2482.21 4840.73 L2489.50 4852.67 L2492.33 4856.11 L2497.79 4860.96 L2508.92 4869.66 L2510.95 4872.09 L2512.97 4875.12 L2514.79 4878.77 L2531.79 4918.82 L2548.58 4960.30 L2554.45 4973.04 L2560.11 4987.61 L2570.63 5011.69 L2573.47 5018.16 L2584.39 5046.08 L2605.64 5097.67 L2609.28 5106.77 L2617.57 5128.62 L2613.73 5130.65 L2609.08 5132.67 L2600.17 5135.30 L2597.95 5135.70 L2587.22 5137.73 L2557.28 5139.14 L2547.77 5139.14 L2479.38 5138.54 L2371.13 5136.92 L2366.08 5136.71 L2298.29 5134.89 L2298.29 5162.00 L2298.50 5188.51 L2297.89 5232.61 L2297.48 5237.06 L2297.28 5239.49 L2292.02 5249.20 L2289.80 5268.42 L2291.62 5273.07 L2294.45 5283.39 L2296.27 5291.89 L2298.29 5315.76 L2298.09 5325.27 L2297.08 5331.54 L2295.87 5336.40 L2294.25 5340.85 L2293.44 5345.30 L2293.64 5348.54 L2295.06 5353.39 L2297.08 5356.63 L2300.92 5360.88 L2305.38 5364.92 L2308.61 5367.55 L2324.80 5378.28 L2333.10 5384.14 L2342.20 5391.22 L2348.68 5398.51 L2353.13 5404.37 L2357.98 5413.28 L2366.08 5429.87 L2368.71 5431.89 L2370.73 5435.13 L2371.94 5438.16 L2373.36 5440.79 L2378.22 5446.25 L2382.46 5450.50 L2385.30 5453.94 L2388.74 5459.61 L2391.97 5463.25 L2396.02 5467.09 L2401.69 5470.93 L2404.32 5471.95 L2406.54 5471.95 L2408.97 5471.54 L2410.18 5471.14 L2409.17 5475.79 L2407.55 5479.23 L2404.92 5483.48 L2400.88 5486.92 L2396.43 5489.95 L2392.58 5491.77 L2388.33 5493.19 L2384.29 5493.19 L2380.64 5492.18 L2377.00 5488.74 L2374.37 5485.10 L2373.16 5484.08 L2371.94 5484.29 L2371.13 5485.70 L2370.32 5490.56 L2370.12 5495.01 L2370.73 5498.85 L2371.74 5501.69 L2373.76 5505.33 L2377.81 5511.40 L2378.82 5514.03 L2379.63 5517.67 L2378.22 5533.04 L2377.61 5537.70 L2377.41 5540.13 L2376.19 5543.77 L2372.75 5548.82 L2371.74 5551.45 L2370.93 5554.49 L2370.93 5560.15 L2370.32 5564.81 L2365.87 5570.88 L2364.46 5573.51 L2363.65 5577.15 L2361.62 5591.72 L2361.02 5594.55 L2360.41 5595.56 L2359.60 5596.17 L2350.50 5596.98 L2349.69 5597.38 L2348.27 5598.80 L2347.46 5600.82 L2346.85 5603.25 L2346.65 5610.33 L2346.04 5613.16 L2344.83 5614.17 L2343.62 5614.58 L2342.20 5614.58 L2340.58 5614.17 L2338.56 5612.76 L2336.54 5611.14 L2335.52 5610.73 L2334.11 5610.73 L2333.50 5611.34 L2332.69 5612.55 L2332.49 5613.97 L2332.89 5616.40 L2334.31 5619.03 L2340.18 5631.98 L2340.38 5635.62 L2340.18 5644.72 L2340.78 5648.36 L2344.63 5655.44 L2345.24 5657.47 L2345.44 5659.49 L2345.24 5661.31 L2343.01 5670.21 L2343.01 5672.44 L2343.41 5674.66 L2344.43 5678.51 L2344.83 5680.73 L2344.63 5683.77 L2342.61 5691.46 L2341.39 5694.09 L2339.37 5696.72 L2338.36 5698.94 L2337.95 5700.56 L2337.95 5702.58 L2338.56 5706.43 L2338.36 5708.04 L2337.75 5709.26 L2336.33 5710.07 L2330.26 5710.47 L2329.05 5711.28 L2327.83 5712.09 L2327.03 5714.32 L2327.23 5715.13 L2327.83 5715.94 L2329.86 5717.15 L2330.87 5718.57 L2331.48 5721.40 L2331.68 5724.63 L2331.48 5727.06 L2331.07 5728.48 L2330.47 5729.69 L2330.06 5730.10 L2328.24 5730.91 L2326.82 5731.11 L2323.59 5730.70 L2320.75 5729.89 L2318.33 5728.28 L2316.91 5726.66 L2314.28 5726.05 L2311.04 5725.65 L2308.82 5726.25 L2308.21 5727.87 L2308.01 5731.51 L2309.22 5735.96 L2309.22 5737.38 L2308.61 5737.99 L2307.60 5738.59 L2303.96 5738.19 L2298.90 5737.18 L2296.68 5737.38 L2294.85 5737.78 L2294.05 5738.59 L2293.84 5740.01 L2294.25 5742.03 L2295.06 5744.26 L2295.87 5748.91 L2296.07 5750.73 L2295.66 5751.95 L2295.06 5752.55 L2293.44 5753.16 L2291.82 5754.17 L2291.62 5755.59 L2292.63 5762.26 L2292.63 5764.69 L2292.22 5767.12 L2291.01 5769.55 L2288.58 5772.58 L2287.77 5774.00 L2287.17 5776.22 L2287.17 5778.25 L2286.76 5780.07 L2286.15 5781.08 L2281.50 5787.15 L2279.88 5789.78 L2278.87 5791.80 L2278.26 5794.43 L2278.06 5797.67 L2276.44 5801.92 L2276.04 5803.94 L2276.64 5807.78 L2276.24 5812.03 L2275.84 5813.65 L2275.03 5815.88 L2273.61 5817.50 L2276.64 5826.60 L2279.68 5838.13 L2280.69 5841.17 L2281.10 5843.80 L2282.71 5851.89 L2285.14 5863.02 L2286.36 5869.09 L2288.18 5878.39 L2292.83 5902.06 L2295.26 5913.80 L2296.68 5918.85 L2297.89 5922.90 L2298.90 5925.33 L2299.91 5927.96 L2301.13 5930.39 L2302.54 5933.42 L2304.16 5935.85 L2305.58 5938.28 L2306.99 5940.30 L2309.02 5942.93 L2310.64 5944.95 L2312.86 5947.79 L2314.48 5949.40 L2317.72 5952.84 L2322.98 5958.91 L2330.47 5967.00 L2337.34 5974.29 L2344.43 5981.98 L2346.04 5983.80 L2347.26 5985.62 L2348.68 5987.64 L2350.50 5990.27 L2352.32 5993.71 L2353.73 5996.74 L2355.15 6000.59 L2356.57 6004.43 L2357.38 6007.06 L2357.58 6008.28 L2357.98 6010.10 L2358.79 6014.14 L2358.79 6014.95 L2358.79 6015.36 L2358.39 6016.57 L2358.18 6018.80 L2339.37 6010.70 L2298.29 5992.29 L2296.88 5994.92 L2296.47 5996.14 L2295.66 5997.35 L2294.45 5999.17 L2293.24 6000.59 L2292.22 6001.40 L2291.01 6002.21 L2289.80 6002.41 L2281.30 6003.62 L2280.49 6003.83 L2270.57 6005.24 L2261.47 6006.66 L2253.78 6008.07 L2242.86 6010.91 L2230.51 6014.14 L2203.60 6021.43 L2200.57 6022.24 L2199.56 6026.28 L2197.94 6028.10 L2192.27 6033.16 L2189.64 6036.20 L2188.02 6038.83 L2187.01 6041.05 L2186.81 6042.27 L2186.81 6043.28 L2187.21 6044.49 L2188.02 6045.91 L2188.83 6047.32 L2189.03 6048.13 L2189.03 6048.94 L2188.83 6049.55 L2188.23 6050.16 L2187.42 6050.36 L2186.81 6050.16 L2186.20 6049.95 L2183.77 6048.33 L2183.17 6048.33 L2182.76 6048.33 L2181.95 6048.94 L2181.55 6049.75 L2181.14 6050.56 L2180.74 6051.17 L2179.93 6051.57 L2179.12 6051.98 L2175.68 6053.59 L2175.28 6054.00 L2174.87 6054.40 L2174.87 6055.01 L2174.87 6055.62 L2175.28 6056.22 L2175.68 6056.83 L2176.29 6057.03 L2177.10 6057.44 L2177.91 6058.45 L2178.51 6059.46 L2179.12 6063.10 L2179.12 6063.51 L2178.51 6064.72 L2176.29 6066.74 L2174.26 6067.55 L2173.05 6067.55 L2171.63 6067.15 L2169.81 6064.92 L2167.99 6063.51 L2166.17 6063.10 L2164.55 6063.31 L2164.15 6063.51 L2164.15 6064.11 L2164.55 6067.55 L2164.15 6068.77 L2163.34 6069.17 L2162.12 6068.77 L2159.29 6066.74 L2158.89 6066.95 L2158.48 6067.76 L2158.89 6069.98 L2159.09 6071.80 L2158.48 6073.62 L2157.67 6075.24 L2156.26 6076.46 L2154.44 6077.06 L2152.21 6077.47 L2150.59 6078.28 L2148.57 6080.10 L2147.76 6080.10 L2146.34 6077.67 L2145.33 6076.66 L2144.12 6076.25 L2142.50 6076.25 L2140.68 6075.85 L2140.07 6074.43 L2139.87 6070.99 L2138.45 6066.34 L2137.04 6064.32 L2136.02 6064.32 L2134.81 6065.33 L2133.60 6067.55 L2131.57 6073.22 L2130.76 6074.43 L2130.16 6075.24 L2127.73 6075.04 L2126.92 6074.64 L2126.31 6073.83 L2125.30 6067.96 L2124.90 6066.54 L2123.68 6065.94 L2122.67 6066.14 L2121.66 6066.74 L2120.85 6068.16 L2118.02 6073.83 L2117.21 6074.43 L2116.20 6074.43 L2115.18 6073.83 L2113.97 6073.42 L2110.13 6072.61 L2108.91 6071.80 L2108.51 6070.79 L2107.90 6070.79 L2105.07 6071.80 L2100.01 6071.60 L2097.99 6072.21 L2095.56 6074.23 L2091.11 6079.29 L2089.89 6080.30 L2088.88 6080.70 L2087.67 6080.50 L2085.64 6079.49 L2083.82 6079.09 L2082.41 6079.09 L2079.57 6080.30 L2074.92 6084.35 L2073.71 6084.95 L2071.88 6084.95 L2070.87 6085.16 L2068.65 6086.77 L2067.84 6086.98 L2066.83 6086.57 L2064.20 6084.35 L2063.18 6083.94 L2062.78 6083.94 L2062.17 6084.75 L2061.77 6085.76 L2060.35 6086.37 L2059.34 6086.17 L2057.32 6084.95 L2055.90 6083.74 L2055.50 6082.53 L2055.50 6079.90 L2055.09 6078.48 L2053.07 6075.65 L2052.86 6072.81 L2052.66 6071.80 L2050.23 6070.39 L2049.43 6069.78 L2049.02 6069.98 L2046.39 6074.03 L2045.78 6074.23 L2040.52 6074.43 L2039.92 6074.03 L2039.51 6073.42 L2039.71 6072.01 L2039.51 6069.98 L2038.50 6069.17 L2036.48 6068.36 L2034.25 6067.96 L2032.83 6067.96 L2032.02 6068.57 L2031.42 6069.17 L2029.19 6074.03 L2025.75 6162.64 L2018.87 6162.64 L1876.43 6164.06 L1860.24 6164.26 L1831.51 6164.46 L1752.40 6165.27 L1712.34 6165.68 L1713.76 6291.51 L1448.30 6120.56 L1388.00 6083.13 L1381.73 6084.75 L1366.96 6088.39 L1361.29 6153.33 L1340.25 6395.71 L1302.82 6394.90 L1302.82 6397.93 L1083.09 6393.68 L999.32 6392.06 L697.24 6388.02 L697.24 6388.02 Z" stroke-linejoin="round"/>
	</defs>
	<use xlink:href="#path_aFkvVgOD" style="fill:#004249;stroke:#00465F;stroke-width:5.76"/>
</svg>
