<?xml version="1.0" encoding="UTF-8" standalone="no"?>
<!-- This is a Stata 16.1 generated SVG file (http://www.stata.com) -->

<svg version="1.1" width="4.00in" height="6.15in" viewBox="0 0 2880 4426" xmlns="http://www.w3.org/2000/svg" xmlns:xlink="http://www.w3.org/1999/xlink">
	<desc>Stata Graph - Graph</desc>
	<rect x="0" y="0" width="2880" height="4426" style="fill:#FFFFFF;stroke:none"/>
	<defs>
		<path id="path_uLiSvoJM" d="M2229.92 2926.14 L2229.92 2926.14 L2222.59 2941.08 L2219.54 2944.53 L2214.98 2945.92 L2207.37 2947.99 L2203.09 2949.93 L2199.07 2953.53 L2184.83 2974.13 L2172.52 2963.21 L2157.58 2949.93 L2149.28 2942.88 L2143.19 2938.03 L2129.78 2925.72 L2122.72 2919.64 L2120.23 2917.29 L2117.33 2915.07 L2116.22 2914.11 L2118.57 2912.86 L2120.51 2911.75 L2121.06 2907.19 L2118.44 2905.39 L2116.50 2897.09 L2131.85 2886.72 L2140.29 2880.91 L2129.50 2879.94 L2123.28 2864.45 L2210.83 2707.19 L2188.56 2689.76 L2187.73 2689.07 L2200.18 2666.53 L2184.97 2657.26 L2190.78 2645.64 L2198.52 2634.99 L2199.63 2632.50 L2223.97 2572.61 L2218.16 2558.37 L2215.12 2556.43 L2208.76 2552.28 L2199.63 2546.33 L2193.40 2542.32 L2189.67 2539.83 L2169.75 2526.97 L2141.53 2508.71 L2111.94 2489.76 L2110.55 2488.80 L2106.54 2486.31 L2095.75 2479.39 L2088.98 2474.69 L2078.60 2467.63 L2073.90 2464.45 L2070.72 2461.96 L2066.98 2459.75 L2062.00 2456.29 L2059.93 2454.91 L2047.20 2445.36 L2011.38 2418.67 L1980.67 2395.71 L1968.50 2386.72 L1960.07 2380.50 L1941.81 2367.63 L1933.09 2361.69 L1916.77 2351.04 L1908.89 2346.06 L1922.31 2350.21 L1916.63 2343.29 L1922.03 2343.71 L1929.50 2345.09 L1917.60 2338.03 L1888.42 2320.05 L1877.63 2313.14 L1911.52 2255.46 L1934.48 2214.52 L1940.42 2205.12 L1941.67 2202.90 L1942.78 2197.51 L1940.70 2169.29 L1945.27 2168.88 L1961.31 2165.84 L1984.96 2162.10 L1979.29 2093.64 L1956.05 2097.37 L1944.57 2099.45 L1942.64 2071.92 L1926.18 2074.96 L1912.76 2077.04 L1868.09 2083.68 L1863.52 2084.37 L1853.70 2085.34 L1853.98 2083.95 L1855.22 2071.78 L1856.88 2065.42 L1858.13 2061.13 L1841.81 2052.14 L1844.16 2048.96 L1845.40 2046.75 L1846.09 2045.64 L1846.51 2044.26 L1847.62 2041.35 L1848.03 2039.97 L1848.31 2038.45 L1849.14 2033.19 L1848.86 2028.21 L1847.06 2020.88 L1846.09 2018.53 L1844.16 2015.21 L1838.21 2009.54 L1836.55 2008.57 L1857.71 1965.56 L1861.45 1957.12 L1848.72 1953.11 L1796.85 1939.28 L1802.94 1920.61 L1804.18 1913.83 L1804.74 1909.13 L1804.74 1907.47 L1804.74 1905.25 L1804.46 1898.06 L1804.32 1896.40 L1804.05 1895.02 L1803.77 1893.22 L1801.00 1884.23 L1796.30 1871.92 L1791.60 1862.79 L1785.23 1849.79 L1760.34 1800.69 L1757.57 1794.60 L1754.67 1788.10 L1752.04 1786.72 L1749.27 1785.20 L1740.97 1780.64 L1730.32 1774.69 L1728.39 1773.72 L1720.50 1769.57 L1714.83 1766.67 L1713.45 1765.70 L1712.90 1764.73 L1712.62 1761.27 L1713.03 1748.96 L1713.03 1747.86 L1708.61 1746.06 L1703.91 1760.58 L1654.25 1913.42 L1651.76 1915.63 L1662.13 1878.01 L1675.55 1833.89 L1697.82 1756.43 L1698.23 1754.63 L1705.43 1731.81 L1734.47 1629.87 L1768.22 1514.94 L1790.08 1434.72 L1801.42 1395.43 L1811.24 1361.41 L1813.04 1351.87 L1815.25 1327.25 L1815.39 1325.45 L1816.22 1312.59 L1818.02 1299.58 L1818.57 1297.37 L1819.95 1291.15 L1821.47 1286.72 L1822.72 1282.85 L1826.87 1273.86 L1835.72 1256.85 L1847.20 1268.60 L1847.75 1268.46 L1863.11 1223.24 L1874.72 1188.80 L1875.14 1188.66 L1949.42 1264.73 L1914.84 1308.16 L1958.54 1337.76 L1977.35 1336.93 L1977.63 1343.57 L1977.63 1349.65 L2007.92 1366.11 L2018.16 1374.13 L2024.24 1377.73 L2036.55 1383.82 L2051.49 1392.53 L2095.89 1418.67 L2109.03 1426.42 L2115.67 1416.04 L2113.46 1414.52 L2106.96 1412.86 L2110.14 1408.71 L2177.91 1096.40 L2178.19 1119.64 L2238.91 1210.23 L2344.17 1295.16 L2392.44 1330.84 L2393.13 1331.26 L2393.41 1331.26 L2395.62 1356.85 L2417.47 1450.90 L2415.12 1456.29 L2413.19 1461.55 L2411.94 1466.80 L2411.11 1471.92 L2411.53 1476.07 L2416.09 1491.15 L2419.83 1500.83 L2422.04 1503.87 L2425.50 1505.81 L2430.75 1507.74 L2422.45 1518.81 L2451.50 1513.00 L2528.26 1519.09 L2595.76 1524.34 L2671.97 1551.17 L2674.60 1552.28 L2734.22 1585.34 L2810.29 1627.52 L2842.38 1648.55 L2851.65 1648.41 L2722.18 1875.24 L2719.83 1873.58 L2706.55 1897.51 L2695.49 1906.78 L2689.68 1911.76 L2678.47 1918.39 L2670.31 1921.71 L2661.19 1923.65 L2590.92 1932.64 L2542.37 2021.58 L2518.17 2088.52 L2497.56 2162.79 L2500.46 2193.08 L2503.64 2200.14 L2508.90 2205.25 L2528.82 2215.49 L2552.61 2228.77 L2586.22 2245.64 L2597.84 2206.08 L2606.97 2210.10 L2610.29 2212.03 L2594.66 2246.20 L2591.20 2252.70 L2587.46 2269.02 L2549.01 2428.21 L2533.11 2485.20 L2524.94 2511.20 L2477.64 2662.79 L2467.41 2676.49 L2468.65 2700.14 L2468.10 2704.01 L2467.54 2707.88 L2465.88 2711.62 L2463.81 2716.60 L2471.28 2721.44 L2494.52 2736.37 L2495.35 2736.79 L2505.03 2743.15 L2510.70 2746.47 L2515.95 2750.07 L2517.34 2751.04 L2511.11 2752.28 L2509.45 2752.70 L2505.17 2753.94 L2501.71 2754.77 L2498.94 2755.60 L2496.45 2756.29 L2484.56 2759.61 L2467.41 2765.14 L2425.36 2780.77 L2415.95 2784.23 L2381.79 2796.96 L2375.29 2799.31 L2370.86 2800.83 L2382.90 2799.03 L2385.52 2798.20 L2388.70 2797.37 L2406.55 2792.94 L2420.10 2789.21 L2421.48 2788.93 L2424.11 2788.24 L2426.46 2787.83 L2428.26 2787.83 L2430.06 2787.69 L2431.72 2787.83 L2434.35 2787.97 L2437.67 2788.52 L2438.91 2788.66 L2440.16 2789.07 L2441.26 2789.35 L2443.75 2790.04 L2446.11 2791.01 L2392.72 2971.92 L2390.78 2980.91 L2339.05 2950.62 L2343.06 2941.63 L2352.05 2921.57 L2311.39 2892.53 L2308.07 2889.35 L2307.10 2885.34 L2306.55 2880.08 L2305.16 2876.35 L2301.98 2874.13 L2297.42 2871.37 L2293.13 2870.26 L2289.26 2870.95 L2253.71 2886.44 L2249.28 2888.93 L2245.82 2893.91 L2229.92 2926.14 L2229.92 2926.14 Z" stroke-linejoin="round"/>
	</defs>
	<use xlink:href="#path_uLiSvoJM" style="fill:#9DC8CA;stroke:#6BB4D2;stroke-width:5.76"/>
	<defs>
		<path id="path_RihWwBnY" d="M1042.90 4382.71 L1042.90 4382.71 L1042.90 4382.71 L1002.92 4371.78 L958.11 4358.64 L970.28 4314.94 L915.65 4292.81 L929.20 4242.74 L874.43 4226.97 L864.61 4210.79 L704.30 4186.30 L708.45 4171.92 L710.25 4165.70 L710.94 4162.79 L710.39 4160.58 L710.25 4159.75 L710.53 4158.37 L713.02 4151.45 L715.09 4144.40 L717.58 4136.93 L718.82 4135.54 L719.52 4133.47 L733.49 4084.64 L740.68 4059.47 L742.06 4054.35 L744.14 4047.02 L746.90 4036.51 L751.19 4019.78 L753.13 4013.28 L759.63 3990.18 L760.32 3985.20 L764.61 3970.54 L768.06 3958.37 L779.13 3919.08 L785.91 3896.40 L787.71 3889.90 L786.05 3889.49 L788.67 3879.67 L719.10 3864.45 L729.34 3852.56 L734.18 3838.73 L710.11 3824.89 L711.91 3818.67 L702.64 3816.46 L674.84 3811.20 L674.43 3813.14 L674.15 3814.38 L646.07 3837.07 L640.26 3826.00 L631.69 3822.68 L614.67 3816.32 L581.20 3811.06 L562.25 3797.09 L510.80 3790.87 L509.69 3794.74 L507.62 3802.49 L464.74 3804.56 L452.01 3802.21 L439.98 3794.33 L455.33 3745.36 L432.65 3743.43 L397.66 3736.79 L362.80 3722.27 L327.39 3711.34 L293.92 3701.24 L272.20 3695.16 L271.10 3693.36 L240.81 3684.78 L268.47 3589.35 L289.22 3517.43 L304.29 3464.73 L315.36 3426.28 L321.03 3407.05 L322.97 3400.55 L325.87 3390.59 L330.71 3373.17 L341.92 3333.33 L354.50 3287.83 L357.54 3276.90 L362.11 3259.06 L381.20 3260.86 L443.72 3277.73 L479.26 3165.00 L448.69 3154.35 L397.24 3135.54 L402.36 3119.22 L407.06 3103.18 L410.24 3090.73 L414.25 3074.69 L416.33 3068.46 L423.24 3044.40 L495.03 3075.66 L541.50 3090.87 L638.60 3117.56 L629.47 3097.23 L617.30 3068.60 L615.78 3061.41 L615.23 3055.74 L615.78 3048.96 L615.92 3048.41 L617.58 3041.77 L621.31 3031.67 L623.94 3026.83 L632.79 2975.66 L635.28 2968.88 L639.02 2959.20 L639.71 2956.43 L590.74 2941.63 L541.78 2927.52 L505.40 2917.43 L502.64 2915.90 L502.08 2914.80 L501.95 2913.41 L502.08 2909.54 L507.34 2891.28 L508.59 2886.58 L505.27 2887.27 L478.02 2877.18 L470.69 2880.22 L472.21 2875.10 L474.01 2867.22 L475.39 2861.69 L476.63 2857.12 L478.71 2849.65 L481.20 2840.80 L483.27 2833.19 L485.49 2825.59 L487.15 2819.64 L488.53 2814.52 L491.16 2805.12 L502.50 2765.42 L507.34 2748.13 L466.40 2735.27 L441.78 2727.38 L350.35 2701.52 L344.13 2700.27 L315.91 2692.81 L298.07 2688.10 L278.98 2682.85 L253.26 2675.79 L249.94 2674.83 L222.00 2666.66 L205.26 2661.82 L187.69 2656.84 L214.39 2628.63 L230.71 2609.40 L240.67 2612.86 L260.72 2619.92 L264.60 2620.33 L266.12 2620.05 L310.24 2556.98 L358.24 2496.82 L427.39 2408.99 L419.51 2400.55 L409.55 2389.90 L411.76 2387.55 L414.25 2384.65 L402.91 2371.78 L394.48 2362.93 L390.19 2358.37 L381.61 2349.24 L373.87 2340.80 L365.57 2332.09 L358.93 2324.89 L354.64 2320.33 L352.57 2318.12 L342.75 2307.33 L337.49 2301.52 L329.47 2292.81 L313.56 2275.38 L312.04 2273.72 L302.22 2263.21 L275.25 2233.47 L271.93 2229.74 L253.53 2209.96 L243.30 2198.34 L234.31 2188.52 L227.94 2181.46 L222.00 2174.96 L219.78 2172.34 L210.65 2161.69 L207.61 2157.81 L207.06 2157.12 L203.05 2151.87 L199.59 2147.44 L193.09 2137.76 L175.25 2113.83 L169.44 2106.64 L167.50 2104.01 L158.79 2092.11 L142.60 2071.23 L138.04 2065.42 L135.69 2062.10 L133.47 2059.06 L125.73 2049.24 L124.07 2047.03 L121.99 2044.54 L108.85 2026.97 L103.04 2019.50 L98.62 2013.69 L95.44 2009.27 L92.53 2005.12 L89.49 2000.69 L86.03 1995.85 L83.13 1991.29 L80.08 1986.31 L75.80 1978.42 L72.20 1971.23 L69.30 1964.45 L64.59 1954.08 L59.61 1942.74 L51.87 1925.03 L49.38 1919.64 L37.76 1893.64 L36.65 1891.15 L28.22 1871.64 L50.90 1844.81 L52.28 1844.81 L55.19 1846.20 L57.40 1848.82 L61.69 1854.91 L64.32 1854.63 L75.11 1846.20 L78.15 1842.88 L78.84 1840.66 L78.84 1838.59 L77.46 1834.58 L68.60 1822.68 L71.79 1820.33 L87.69 1805.81 L111.07 1842.32 L134.72 1825.72 L137.35 1831.67 L156.85 1819.22 L153.67 1813.55 L141.77 1797.09 L128.91 1775.66 L116.88 1755.19 L113.00 1749.51 L166.95 1800.28 L206.64 1794.05 L221.72 1781.19 L218.26 1775.52 L212.87 1767.22 L201.66 1750.07 L190.88 1732.36 L188.94 1729.87 L186.73 1728.21 L182.85 1726.69 L179.53 1724.34 L177.18 1721.58 L161.14 1698.48 L145.92 1678.98 L127.53 1654.63 L134.58 1648.41 L133.34 1646.33 L121.58 1615.21 L125.73 1611.06 L130.71 1607.61 L146.20 1599.03 L151.46 1595.71 L165.56 1581.88 L170.82 1576.76 L173.31 1572.89 L180.22 1558.37 L182.44 1554.91 L193.50 1544.95 L199.73 1539.97 L230.29 1586.03 L262.25 1637.21 L288.11 1677.59 L297.93 1692.95 L308.86 1710.10 L358.79 1788.10 L363.22 1795.02 L363.63 1795.57 L364.60 1797.09 L365.71 1798.62 L367.23 1797.51 L369.16 1795.99 L374.28 1791.84 L378.02 1789.35 L380.78 1787.69 L381.34 1788.93 L382.17 1790.32 L382.86 1791.56 L383.82 1793.08 L384.52 1794.19 L392.40 1806.64 L398.21 1815.77 L408.86 1833.47 L414.25 1842.05 L420.06 1851.31 L428.22 1864.45 L432.51 1871.78 L436.80 1884.37 L437.35 1885.34 L447.73 1898.48 L451.18 1905.95 L454.37 1910.23 L460.59 1918.67 L469.03 1929.32 L483.41 1944.95 L540.81 2003.18 L569.31 2032.23 L607.90 2068.88 L642.47 2103.59 L640.68 2105.81 L635.01 2112.86 L637.63 2115.21 L643.44 2108.44 L644.83 2106.50 L646.07 2107.61 L655.48 2117.15 L671.38 2130.15 L681.34 2137.34 L684.80 2140.66 L714.26 2168.19 L749.12 2204.98 L749.53 2211.06 L756.86 2234.85 L787.84 2265.84 L778.85 2273.17 L778.30 2274.96 L776.92 2277.18 L741.37 2319.78 L736.81 2325.45 L722.84 2342.74 L706.38 2363.07 L681.89 2391.98 L662.53 2414.80 L637.77 2444.40 L632.38 2451.04 L614.40 2473.44 L611.08 2477.59 L587.15 2506.50 L566.26 2531.40 L559.76 2539.42 L557.00 2542.74 L555.47 2544.40 L553.81 2546.33 L553.40 2546.89 L550.91 2549.24 L552.43 2552.56 L556.72 2563.76 L557.41 2565.28 L558.79 2569.02 L560.18 2572.61 L560.73 2574.27 L562.67 2580.22 L563.77 2583.68 L564.88 2587.14 L568.75 2598.06 L570.83 2604.15 L572.63 2609.82 L573.73 2613.28 L574.84 2616.18 L577.47 2623.93 L580.51 2631.81 L581.75 2634.99 L583.14 2638.45 L584.66 2641.63 L585.49 2643.71 L586.18 2645.09 L587.70 2648.27 L589.64 2652.00 L591.02 2655.05 L592.96 2658.64 L595.72 2663.62 L596.55 2665.14 L599.32 2669.71 L602.64 2675.24 L605.27 2679.25 L607.62 2682.43 L612.18 2688.66 L613.29 2690.04 L615.92 2693.50 L627.40 2707.47 L629.47 2709.82 L632.79 2714.24 L639.29 2721.58 L647.73 2732.23 L652.02 2737.34 L659.63 2746.47 L662.25 2749.65 L688.39 2781.88 L691.58 2785.75 L714.54 2813.69 L720.76 2821.16 L726.71 2828.63 L733.07 2836.65 L737.36 2841.49 L739.02 2843.57 L740.82 2845.92 L748.70 2855.18 L758.80 2867.63 L767.23 2878.01 L795.59 2912.03 L817.17 2938.59 L819.66 2941.63 L838.88 2965.28 L844.97 2972.34 L847.32 2975.38 L852.02 2981.19 L867.10 2999.31 L873.32 3007.05 L890.20 3027.80 L897.53 3036.51 L913.71 3056.01 L919.80 3063.21 L923.53 3068.05 L935.56 3082.57 L966.41 3120.19 L976.51 3132.50 L992.83 3152.28 L999.05 3159.47 L1001.82 3162.93 L1009.70 3173.17 L1018.69 3183.82 L1020.90 3186.58 L1036.40 3205.39 L1044.14 3214.94 L1063.64 3238.73 L1072.36 3249.24 L1081.63 3260.99 L1086.05 3266.25 L1100.85 3284.09 L1108.04 3292.39 L1113.71 3298.75 L1114.68 3299.86 L1116.07 3301.24 L1117.31 3302.21 L1118.42 3303.46 L1123.40 3308.85 L1126.99 3312.45 L1135.15 3321.16 L1137.37 3323.65 L1145.11 3331.81 L1149.54 3336.24 L1153.13 3340.80 L1165.72 3354.35 L1170.29 3359.61 L1173.05 3362.38 L1180.94 3370.81 L1186.74 3377.31 L1192.83 3383.95 L1200.44 3392.11 L1204.86 3396.82 L1211.23 3403.04 L1216.90 3408.30 L1224.92 3415.63 L1232.67 3422.54 L1239.03 3428.35 L1241.38 3430.43 L1244.42 3433.19 L1248.30 3436.93 L1249.12 3437.90 L1254.38 3442.18 L1255.35 3443.43 L1257.29 3445.09 L1263.65 3451.04 L1267.80 3455.18 L1274.71 3461.82 L1307.08 3492.11 L1317.59 3502.07 L1322.43 3506.50 L1325.20 3509.13 L1337.92 3520.88 L1361.02 3542.46 L1363.79 3545.23 L1375.13 3555.74 L1382.74 3562.79 L1388.82 3568.74 L1392.00 3571.78 L1394.63 3574.27 L1398.64 3578.14 L1399.89 3579.11 L1430.04 3608.71 L1449.54 3627.80 L1452.03 3630.29 L1453.83 3632.09 L1455.49 3633.61 L1460.89 3639.14 L1468.35 3646.47 L1470.98 3649.24 L1476.52 3655.05 L1483.15 3661.69 L1488.00 3666.66 L1500.03 3678.56 L1498.92 3678.01 L1498.37 3677.73 L1496.99 3677.31 L1495.88 3676.90 L1493.94 3676.07 L1499.34 3683.40 L1499.48 3686.72 L1493.80 3687.83 L1425.20 3764.04 L1395.60 3796.54 L1401.55 3805.81 L1406.67 3813.83 L1401.82 3818.95 L1401.13 3819.64 L1400.03 3820.61 L1387.16 3830.98 L1378.31 3839.55 L1355.77 3865.42 L1335.71 3891.98 L1314.96 3916.73 L1308.05 3908.99 L1274.57 3947.30 L1255.90 4019.78 L1253.69 4023.93 L1253.69 4039.69 L1253.14 4049.10 L1252.72 4055.05 L1252.86 4056.71 L1253.41 4059.20 L1254.52 4062.79 L1255.35 4066.25 L1255.76 4068.60 L1255.90 4070.68 L1255.76 4073.03 L1255.35 4076.48 L1254.66 4080.08 L1252.72 4087.69 L1251.75 4090.87 L1245.94 4108.71 L1244.42 4112.17 L1243.18 4114.24 L1241.93 4115.90 L1240.13 4117.42 L1231.42 4123.65 L1229.76 4124.76 L1228.65 4126.00 L1227.41 4128.07 L1225.89 4132.22 L1225.20 4135.27 L1224.78 4137.76 L1224.78 4139.42 L1224.78 4141.49 L1225.06 4143.15 L1225.61 4144.81 L1230.73 4155.74 L1236.40 4167.77 L1236.81 4169.85 L1236.95 4171.64 L1236.68 4173.58 L1235.99 4175.79 L1235.02 4178.28 L1231.97 4183.95 L1230.18 4187.27 L1228.93 4189.90 L1227.82 4193.64 L1227.13 4197.37 L1226.86 4200.41 L1227.27 4206.08 L1228.24 4216.73 L1228.10 4220.88 L1227.69 4226.00 L1226.44 4231.95 L1223.12 4244.40 L1217.73 4262.93 L1214.55 4273.86 L1213.16 4277.18 L1212.19 4278.70 L1210.95 4279.94 L1209.71 4280.91 L1208.05 4282.02 L1205.83 4283.81 L1201.54 4286.44 L1197.67 4289.07 L1194.77 4291.15 L1192.28 4293.22 L1189.51 4296.12 L1187.30 4298.89 L1185.50 4301.52 L1183.43 4304.98 L1168.76 4300.55 L1163.51 4293.77 L1082.46 4279.25 L1068.07 4275.52 L1042.90 4382.71 L1042.90 4382.71 Z" stroke-linejoin="round"/>
	</defs>
	<use xlink:href="#path_RihWwBnY" style="fill:#9DC8CA;stroke:#6BB4D2;stroke-width:5.76"/>
	<defs>
		<path id="path_pCvKcDTv" d="M1452.03 3630.29 L1452.03 3630.29 L1449.54 3627.80 L1430.04 3608.71 L1399.89 3579.11 L1398.64 3578.14 L1394.63 3574.27 L1392.00 3571.78 L1388.82 3568.74 L1382.74 3562.79 L1375.13 3555.74 L1363.79 3545.23 L1361.02 3542.46 L1337.92 3520.88 L1325.20 3509.13 L1322.43 3506.50 L1317.59 3502.07 L1307.08 3492.11 L1274.71 3461.82 L1267.80 3455.18 L1263.65 3451.04 L1257.29 3445.09 L1255.35 3443.43 L1254.38 3442.18 L1249.12 3437.90 L1248.30 3436.93 L1244.42 3433.19 L1241.38 3430.43 L1239.03 3428.35 L1232.67 3422.54 L1224.92 3415.63 L1216.90 3408.30 L1211.23 3403.04 L1204.86 3396.82 L1200.44 3392.11 L1192.83 3383.95 L1186.74 3377.31 L1180.94 3370.81 L1173.05 3362.38 L1170.29 3359.61 L1165.72 3354.35 L1153.13 3340.80 L1149.54 3336.24 L1145.11 3331.81 L1137.37 3323.65 L1135.15 3321.16 L1126.99 3312.45 L1123.40 3308.85 L1118.42 3303.46 L1117.31 3302.21 L1116.07 3301.24 L1114.68 3299.86 L1113.71 3298.75 L1108.04 3292.39 L1100.85 3284.09 L1086.05 3266.25 L1081.63 3260.99 L1072.36 3249.24 L1063.64 3238.73 L1044.14 3214.94 L1036.40 3205.39 L1020.90 3186.58 L1018.69 3183.82 L1009.70 3173.17 L1001.82 3162.93 L999.05 3159.47 L992.83 3152.28 L976.51 3132.50 L966.41 3120.19 L935.56 3082.57 L923.53 3068.05 L919.80 3063.21 L913.71 3056.01 L897.53 3036.51 L890.20 3027.80 L873.32 3007.05 L867.10 2999.31 L852.02 2981.19 L847.32 2975.38 L844.97 2972.34 L838.88 2965.28 L819.66 2941.63 L817.17 2938.59 L795.59 2912.03 L767.23 2878.01 L758.80 2867.63 L748.70 2855.18 L740.82 2845.92 L739.02 2843.57 L737.36 2841.49 L733.07 2836.65 L726.71 2828.63 L720.76 2821.16 L714.54 2813.69 L691.58 2785.75 L688.39 2781.88 L662.25 2749.65 L659.63 2746.47 L652.02 2737.34 L647.73 2732.23 L639.29 2721.58 L632.79 2714.24 L629.47 2709.82 L627.40 2707.47 L615.92 2693.50 L613.29 2690.04 L612.18 2688.66 L607.62 2682.43 L605.27 2679.25 L602.64 2675.24 L599.32 2669.71 L596.55 2665.14 L595.72 2663.62 L592.96 2658.64 L591.02 2655.05 L589.64 2652.00 L587.70 2648.27 L586.18 2645.09 L585.49 2643.71 L584.66 2641.63 L583.14 2638.45 L581.75 2634.99 L580.51 2631.81 L577.47 2623.93 L574.84 2616.18 L573.73 2613.28 L572.63 2609.82 L570.83 2604.15 L568.75 2598.06 L564.88 2587.14 L563.77 2583.68 L562.67 2580.22 L560.73 2574.27 L560.18 2572.61 L558.79 2569.02 L557.41 2565.28 L556.72 2563.76 L552.43 2552.56 L550.91 2549.24 L553.40 2546.89 L553.81 2546.33 L555.47 2544.40 L557.00 2542.74 L559.76 2539.42 L566.26 2531.40 L587.15 2506.50 L611.08 2477.59 L614.40 2473.44 L632.38 2451.04 L637.77 2444.40 L662.53 2414.80 L681.89 2391.98 L706.38 2363.07 L722.84 2342.74 L736.81 2325.45 L741.37 2319.78 L776.92 2277.18 L778.30 2274.96 L778.85 2273.17 L787.84 2265.84 L796.83 2274.27 L858.94 2337.07 L904.72 2382.16 L922.56 2400.00 L930.86 2408.16 L938.47 2415.90 L964.61 2442.18 L1018.83 2495.99 L1032.52 2509.40 L1034.04 2510.79 L1038.47 2506.78 L1043.45 2500.55 L1046.49 2497.37 L1047.05 2500.28 L1058.11 2509.13 L1065.03 2515.63 L1067.66 2518.67 L1084.25 2536.51 L1094.49 2547.30 L1099.61 2552.42 L1115.51 2568.46 L1120.77 2573.72 L1150.09 2603.04 L1151.61 2604.70 L1153.00 2606.08 L1153.55 2606.64 L1172.77 2625.86 L1213.85 2665.28 L1263.51 2715.77 L1279.55 2732.09 L1293.80 2746.75 L1307.08 2759.33 L1318.14 2770.54 L1360.05 2817.15 L1361.58 2818.81 L1369.60 2825.72 L1377.34 2830.29 L1389.93 2843.43 L1395.05 2848.68 L1397.68 2851.17 L1405.97 2859.89 L1405.01 2863.07 L1436.27 2895.43 L1523.54 2980.63 L1525.62 2982.85 L1536.27 2993.36 L1538.48 2995.71 L1543.87 3002.35 L1567.80 3024.34 L1605.70 3057.81 L1647.47 3092.25 L1668.50 3109.96 L1678.18 3118.81 L1684.82 3124.62 L1726.04 3159.89 L1792.70 3215.77 L1814.83 3234.30 L1820.51 3238.59 L1818.43 3241.77 L1813.87 3250.07 L1808.33 3254.22 L1810.27 3255.60 L1809.03 3257.40 L1807.92 3259.47 L1800.17 3252.28 L1789.11 3243.15 L1786.62 3241.35 L1784.54 3239.56 L1780.39 3236.10 L1778.18 3237.90 L1738.90 3223.79 L1733.23 3221.85 L1731.98 3221.30 L1717.05 3216.04 L1711.10 3214.24 L1691.32 3206.91 L1682.33 3203.87 L1664.62 3197.23 L1641.11 3189.07 L1621.33 3185.06 L1609.99 3177.59 L1598.37 3183.12 L1594.77 3185.06 L1587.58 3189.76 L1583.43 3192.81 L1576.93 3198.06 L1575.83 3198.75 L1574.03 3199.86 L1572.09 3200.97 L1569.88 3201.24 L1568.36 3201.24 L1566.70 3200.83 L1565.73 3200.27 L1563.93 3199.17 L1558.26 3195.57 L1547.06 3215.90 L1544.57 3219.64 L1541.80 3222.40 L1538.76 3229.32 L1536.96 3232.78 L1534.75 3237.34 L1528.25 3248.82 L1516.35 3270.26 L1503.76 3292.94 L1496.02 3306.78 L1487.58 3320.74 L1494.36 3325.86 L1501.55 3333.19 L1506.94 3338.86 L1513.45 3344.53 L1528.80 3355.46 L1552.87 3370.95 L1562.69 3377.59 L1565.31 3379.53 L1568.91 3381.60 L1573.20 3383.26 L1581.77 3387.41 L1583.99 3387.00 L1588.55 3389.35 L1592.70 3391.70 L1596.30 3393.77 L1576.93 3414.80 L1561.58 3435.68 L1536.13 3481.05 L1488.00 3566.53 L1475.69 3588.24 L1471.54 3595.85 L1452.03 3630.29 L1452.03 3630.29 Z" stroke-linejoin="round"/>
	</defs>
	<use xlink:href="#path_pCvKcDTv" style="fill:#6BACAF;stroke:#097D9B;stroke-width:5.76"/>
	<defs>
		<path id="path_YvXaZCkU" d="M1880.81 3264.18 L1880.81 3264.18 L1877.21 3263.35 L1870.16 3260.99 L1865.60 3259.47 L1861.03 3257.54 L1856.33 3255.60 L1851.63 3253.39 L1848.17 3251.45 L1846.79 3250.76 L1840.70 3247.16 L1837.93 3245.50 L1835.72 3244.26 L1832.68 3242.18 L1822.99 3234.58 L1820.51 3238.59 L1814.83 3234.30 L1792.70 3215.77 L1726.04 3159.89 L1684.82 3124.62 L1678.18 3118.81 L1668.50 3109.96 L1647.47 3092.25 L1605.70 3057.81 L1567.80 3024.34 L1543.87 3002.35 L1538.48 2995.71 L1536.27 2993.36 L1525.62 2982.85 L1523.54 2980.63 L1436.27 2895.43 L1405.01 2863.07 L1405.97 2859.89 L1397.68 2851.17 L1395.05 2848.68 L1389.93 2843.43 L1377.34 2830.29 L1369.60 2825.72 L1361.58 2818.81 L1360.05 2817.15 L1318.14 2770.54 L1307.08 2759.33 L1293.80 2746.75 L1279.55 2732.09 L1263.51 2715.77 L1213.85 2665.28 L1172.77 2625.86 L1153.55 2606.64 L1153.00 2606.08 L1151.61 2604.70 L1150.09 2603.04 L1120.77 2573.72 L1115.51 2568.46 L1099.61 2552.42 L1094.49 2547.30 L1084.25 2536.51 L1067.66 2518.67 L1065.03 2515.63 L1058.11 2509.13 L1047.05 2500.28 L1046.49 2497.37 L1043.45 2500.55 L1038.47 2506.78 L1034.04 2510.79 L1032.52 2509.40 L1018.83 2495.99 L964.61 2442.18 L938.47 2415.90 L930.86 2408.16 L922.56 2400.00 L904.72 2382.16 L858.94 2337.07 L796.83 2274.27 L787.84 2265.84 L756.86 2234.85 L749.53 2211.06 L749.12 2204.98 L714.26 2168.19 L684.80 2140.66 L681.34 2137.34 L671.38 2130.15 L655.48 2117.15 L646.07 2107.61 L644.83 2106.50 L643.44 2108.44 L637.63 2115.21 L635.01 2112.86 L640.68 2105.81 L642.47 2103.59 L607.90 2068.88 L569.31 2032.23 L540.81 2003.18 L483.41 1944.95 L469.03 1929.32 L460.59 1918.67 L454.37 1910.23 L451.18 1905.95 L447.73 1898.48 L437.35 1885.34 L436.80 1884.37 L432.51 1871.78 L428.22 1864.45 L420.06 1851.31 L414.25 1842.05 L408.86 1833.47 L398.21 1815.77 L392.40 1806.64 L384.52 1794.19 L383.82 1793.08 L382.86 1791.56 L382.17 1790.32 L381.34 1788.93 L383.69 1786.44 L388.39 1781.74 L394.61 1775.10 L400.98 1767.63 L406.79 1760.30 L408.72 1757.40 L411.90 1752.70 L413.01 1751.04 L414.25 1749.10 L417.30 1744.12 L419.93 1739.83 L422.00 1736.24 L434.59 1713.83 L441.50 1701.94 L444.27 1697.79 L446.76 1694.33 L449.39 1690.87 L451.46 1688.24 L453.67 1685.48 L455.61 1683.68 L458.38 1680.64 L461.42 1677.59 L465.71 1673.58 L467.51 1675.93 L471.24 1674.69 L472.76 1676.76 L474.84 1680.08 L476.50 1683.40 L477.19 1685.48 L477.46 1687.69 L477.46 1691.15 L477.05 1694.33 L475.67 1696.40 L474.97 1699.45 L474.28 1703.32 L485.07 1693.08 L526.70 1664.04 L560.73 1630.70 L574.70 1617.01 L576.36 1615.21 L577.74 1613.55 L583.00 1606.78 L583.55 1604.84 L584.11 1603.04 L585.21 1601.52 L598.91 1590.87 L610.52 1577.04 L649.11 1529.87 L641.09 1520.61 L640.26 1519.64 L619.79 1494.05 L622.97 1488.38 L624.08 1486.31 L634.18 1469.99 L646.35 1450.07 L667.23 1416.60 L668.89 1414.11 L682.17 1393.22 L690.47 1379.53 L691.30 1378.01 L696.00 1369.85 L698.63 1364.87 L701.26 1360.03 L713.71 1334.30 L718.41 1323.10 L726.57 1301.94 L730.30 1292.12 L731.69 1288.66 L735.42 1278.56 L738.74 1269.16 L739.02 1263.48 L740.82 1264.18 L760.04 1271.23 L763.22 1272.47 L780.10 1278.84 L822.28 1294.74 L847.32 1303.73 L851.88 1305.39 L860.32 1308.44 L867.79 1311.06 L873.46 1313.14 L886.05 1317.70 L898.22 1322.27 L936.67 1336.79 L950.92 1342.32 L967.65 1348.96 L975.81 1352.28 L978.72 1353.94 L981.21 1350.21 L992.41 1354.77 L1011.08 1373.58 L1002.79 1358.37 L999.33 1351.87 L992.00 1338.45 L984.80 1325.03 L977.47 1311.62 L970.14 1298.20 L962.67 1284.65 L959.08 1278.15 L954.24 1269.71 L970.56 1289.76 L977.34 1301.11 L980.93 1306.91 L983.70 1310.79 L986.33 1313.55 L988.95 1315.63 L991.72 1317.15 L994.76 1318.12 L997.39 1318.39 L1003.34 1318.39 L1008.18 1317.70 L1014.40 1316.87 L1028.10 1314.25 L1034.60 1313.00 L1040.82 1312.03 L1044.97 1312.03 L1047.46 1312.45 L1049.40 1313.00 L1051.33 1314.38 L1052.86 1316.46 L1053.55 1317.84 L1053.96 1319.22 L1055.62 1316.87 L1059.77 1311.06 L1062.54 1307.47 L1064.47 1305.12 L1065.72 1303.46 L1067.10 1301.94 L1068.35 1300.69 L1070.01 1299.03 L1071.94 1297.37 L1082.46 1289.35 L1084.67 1287.97 L1089.37 1285.75 L1094.35 1284.09 L1100.44 1282.71 L1108.46 1281.33 L1109.56 1281.33 L1112.19 1280.91 L1114.96 1280.50 L1114.54 1275.24 L1113.85 1270.26 L1112.75 1265.42 L1111.09 1260.86 L1110.12 1258.51 L1108.18 1254.49 L1106.66 1251.87 L1102.65 1245.09 L1101.68 1240.66 L1098.91 1237.76 L1094.90 1234.44 L1090.20 1230.98 L1086.60 1228.77 L1082.04 1225.59 L1079.97 1224.07 L1073.46 1219.22 L1065.72 1213.97 L1061.85 1210.93 L1055.21 1205.12 L1050.50 1200.69 L1046.77 1196.68 L1044.28 1193.36 L1041.38 1191.70 L1040.41 1188.66 L1034.60 1193.91 L1031.83 1197.92 L1029.90 1201.52 L1023.53 1216.46 L1010.95 1251.87 L1005.00 1267.91 L1003.06 1272.61 L1002.51 1273.44 L1002.09 1274.41 L998.77 1278.42 L995.32 1280.91 L991.86 1282.85 L987.85 1283.95 L984.39 1284.23 L983.28 1283.95 L982.31 1283.95 L978.58 1282.85 L974.02 1280.77 L971.66 1278.84 L967.93 1275.79 L967.24 1274.96 L966.55 1274.13 L926.16 1201.38 L905.00 1158.78 L897.67 1141.35 L891.03 1126.42 L887.85 1117.43 L884.94 1106.64 L880.65 1090.46 L878.72 1078.56 L878.03 1070.12 L876.92 1041.35 L875.67 990.87 L875.12 963.07 L874.84 934.16 L875.26 929.87 L875.67 927.66 L876.92 923.93 L878.30 921.02 L878.86 920.05 L881.76 915.91 L882.31 914.94 L886.88 908.16 L888.81 904.70 L890.47 901.24 L891.03 899.58 L891.72 896.96 L891.58 895.30 L891.03 893.91 L890.06 892.81 L883.14 888.52 L888.54 875.52 L897.25 854.77 L909.84 825.17 L927.54 795.85 L940.68 771.78 L942.34 764.87 L942.20 761.27 L941.10 753.39 L940.96 751.59 L941.10 748.27 L941.37 746.47 L941.93 744.54 L943.03 740.11 L946.77 728.91 L949.67 720.47 L953.13 713.69 L954.10 712.31 L956.45 710.51 L960.18 707.88 L964.20 704.29 L974.57 704.43 L985.22 666.67 L995.04 634.30 L995.87 631.26 L1003.20 608.57 L1015.10 595.16 L1017.03 594.88 L1018.42 595.71 L1018.28 602.07 L1019.52 603.60 L1021.46 603.32 L1028.51 597.92 L1042.90 591.98 L1067.10 560.44 L1080.80 542.74 L1086.33 531.81 L1117.17 493.64 L1140.55 486.58 L1174.02 487.41 L1186.88 490.59 L1189.10 494.74 L1199.88 496.13 L1218.83 494.19 L1226.03 488.80 L1233.08 461.96 L1236.95 453.66 L1237.64 447.86 L1237.64 443.43 L1237.09 438.87 L1236.54 436.65 L1235.99 420.75 L1226.30 394.47 L1221.88 382.99 L1220.22 374.97 L1220.08 371.65 L1214.27 348.82 L1219.25 335.27 L1223.26 317.15 L1229.07 302.49 L1232.53 289.07 L1257.42 267.50 L1273.05 261.69 L1288.27 261.41 L1295.74 263.35 L1340.69 255.60 L1348.44 256.98 L1365.17 261.13 L1377.07 264.18 L1379.00 264.59 L1391.31 267.22 L1397.12 263.76 L1403.21 248.41 L1406.94 240.94 L1401.82 221.58 L1412.61 187.41 L1415.38 177.45 L1423.13 159.06 L1423.40 138.17 L1424.51 127.66 L1427.41 108.99 L1427.41 133.61 L1427.00 138.73 L1426.31 144.81 L1426.17 152.28 L1426.45 161.41 L1427.14 170.12 L1427.41 174.41 L1428.80 181.33 L1431.98 190.46 L1432.67 193.64 L1432.95 204.70 L1432.25 208.02 L1430.87 210.65 L1428.66 212.45 L1425.89 215.91 L1423.13 221.02 L1419.53 234.30 L1417.04 243.02 L1414.41 252.84 L1413.17 260.44 L1413.58 278.15 L1414.14 286.45 L1414.41 290.73 L1414.41 299.45 L1413.72 305.26 L1411.51 312.86 L1408.88 319.78 L1404.59 326.14 L1401.00 328.91 L1399.47 329.32 L1397.12 329.74 L1389.51 327.80 L1388.27 328.22 L1386.75 330.98 L1380.52 355.74 L1379.83 361.55 L1379.97 363.35 L1380.11 365.56 L1381.35 368.88 L1383.43 372.48 L1385.64 373.31 L1387.86 373.58 L1389.51 372.75 L1392.28 369.57 L1393.53 367.22 L1399.89 352.01 L1404.45 343.84 L1413.31 331.54 L1417.04 324.62 L1417.45 323.65 L1420.22 315.21 L1422.43 300.83 L1422.30 299.72 L1421.60 285.06 L1421.88 278.56 L1422.02 255.74 L1422.85 246.75 L1425.06 237.76 L1438.20 212.03 L1439.72 207.47 L1440.55 202.90 L1436.96 173.03 L1436.82 164.87 L1436.68 152.01 L1436.27 130.84 L1434.61 98.89 L1432.53 73.44 L1431.70 49.52 L1432.95 45.23 L1434.19 43.85 L1434.61 43.43 L1436.40 43.71 L1439.03 45.92 L1441.24 51.31 L1441.80 55.60 L1443.18 61.41 L1444.56 62.24 L1447.19 62.79 L1449.68 61.13 L1454.94 51.73 L1457.01 49.93 L1460.06 49.38 L1465.31 51.18 L1471.95 57.68 L1517.04 116.74 L1520.08 120.75 L1526.45 127.80 L1536.27 135.82 L1551.21 144.95 L1560.20 148.96 L1562.13 149.79 L1567.66 154.63 L1574.72 159.75 L1586.48 163.35 L1596.71 165.28 L1605.01 165.84 L1607.78 166.80 L1611.51 171.23 L1616.35 179.39 L1621.88 184.09 L1626.45 185.89 L1629.91 185.34 L1635.02 185.89 L1650.10 189.49 L1656.19 190.18 L1672.78 184.65 L1679.84 180.22 L1682.88 178.84 L1684.26 177.18 L1685.09 174.27 L1685.09 170.12 L1684.54 165.70 L1681.08 151.45 L1681.64 147.86 L1683.02 143.98 L1685.65 141.63 L1688.55 141.22 L1704.18 144.95 L1732.54 153.67 L1746.09 159.47 L1748.17 161.55 L1753.01 167.22 L1754.94 171.78 L1758.26 204.01 L1762.97 241.91 L1770.57 275.80 L1775.55 299.17 L1779.01 321.58 L1780.12 326.14 L1782.88 331.67 L1787.03 334.16 L1788.28 334.85 L1794.92 336.65 L1802.25 336.93 L1808.47 335.13 L1817.05 328.91 L1821.06 323.10 L1822.86 317.01 L1824.65 294.05 L1827.14 282.99 L1830.05 273.72 L1831.43 271.37 L1831.85 271.23 L1834.48 269.99 L1838.35 270.95 L1843.05 273.86 L1849.55 278.70 L1853.42 282.30 L1858.68 285.20 L1863.11 285.48 L1870.58 281.60 L1873.76 281.60 L1879.15 283.13 L1883.58 287.00 L1885.93 290.59 L1888.00 292.39 L1898.10 295.16 L1901.56 297.79 L1904.19 302.63 L1916.50 337.34 L1923.00 347.30 L1925.76 349.24 L1928.25 350.07 L1931.43 350.07 L1944.02 346.47 L1949.00 346.06 L1951.90 345.09 L1954.26 343.29 L1957.44 339.56 L1960.76 336.65 L1965.04 334.16 L1969.75 332.23 L1975.97 332.23 L1981.09 333.47 L1986.21 334.16 L1991.32 333.33 L1997.96 330.15 L2006.82 323.10 L2014.01 316.60 L2017.88 314.38 L2021.89 313.42 L2025.63 313.83 L2033.23 317.01 L2038.21 318.40 L2048.86 316.74 L2070.86 314.94 L2079.43 315.63 L2089.39 318.26 L2098.80 323.37 L2130.88 352.42 L2135.59 359.06 L2142.50 370.40 L2146.24 379.39 L2149.00 390.04 L2150.53 401.94 L2152.19 407.33 L2154.81 411.06 L2166.16 418.81 L2169.75 424.76 L2172.52 433.06 L2173.62 448.55 L2173.62 460.44 L2179.43 505.26 L2182.89 518.67 L2198.94 547.86 L2204.47 556.43 L2210.00 562.79 L2218.58 573.44 L2227.29 582.99 L2231.30 590.87 L2236.28 594.88 L2248.59 599.31 L2268.78 602.77 L2294.65 604.15 L2294.51 611.48 L2292.71 680.91 L2285.52 716.60 L2246.10 854.22 L2245.69 854.77 L2237.80 879.67 L2181.65 1072.75 L2177.77 1093.36 L2177.91 1096.40 L2110.14 1408.71 L2106.96 1412.86 L2113.46 1414.52 L2115.67 1416.04 L2109.03 1426.42 L2095.89 1418.67 L2051.49 1392.53 L2036.55 1383.82 L2024.24 1377.73 L2018.16 1374.13 L2007.92 1366.11 L1977.63 1349.65 L1977.63 1343.57 L1977.35 1336.93 L1958.54 1337.76 L1914.84 1308.16 L1949.42 1264.73 L1875.14 1188.66 L1874.72 1188.80 L1863.11 1223.24 L1847.75 1268.46 L1847.20 1268.60 L1835.72 1256.85 L1826.87 1273.86 L1822.72 1282.85 L1821.47 1286.72 L1819.95 1291.15 L1818.57 1297.37 L1818.02 1299.58 L1816.22 1312.59 L1815.39 1325.45 L1815.25 1327.25 L1813.04 1351.87 L1811.24 1361.41 L1801.42 1395.43 L1790.08 1434.72 L1768.22 1514.94 L1734.47 1629.87 L1705.43 1731.81 L1698.23 1754.63 L1697.82 1756.43 L1675.55 1833.89 L1662.13 1878.01 L1651.76 1915.63 L1654.25 1913.42 L1703.91 1760.58 L1708.61 1746.06 L1713.03 1747.86 L1713.03 1748.96 L1712.62 1761.27 L1712.90 1764.73 L1713.45 1765.70 L1714.83 1766.67 L1720.50 1769.57 L1728.39 1773.72 L1730.32 1774.69 L1740.97 1780.64 L1749.27 1785.20 L1752.04 1786.72 L1754.67 1788.10 L1757.57 1794.60 L1760.34 1800.69 L1785.23 1849.79 L1791.60 1862.79 L1796.30 1871.92 L1801.00 1884.23 L1803.77 1893.22 L1804.05 1895.02 L1804.32 1896.40 L1804.46 1898.06 L1804.74 1905.25 L1804.74 1907.47 L1804.74 1909.13 L1804.18 1913.83 L1802.94 1920.61 L1796.85 1939.28 L1848.72 1953.11 L1861.45 1957.12 L1857.71 1965.56 L1836.55 2008.57 L1838.21 2009.54 L1844.16 2015.21 L1846.09 2018.53 L1847.06 2020.88 L1848.86 2028.21 L1849.14 2033.19 L1848.31 2038.45 L1848.03 2039.97 L1847.62 2041.35 L1846.51 2044.26 L1846.09 2045.64 L1845.40 2046.75 L1844.16 2048.96 L1841.81 2052.14 L1858.13 2061.13 L1856.88 2065.42 L1855.22 2071.78 L1853.98 2083.95 L1853.70 2085.34 L1863.52 2084.37 L1868.09 2083.68 L1912.76 2077.04 L1926.18 2074.96 L1942.64 2071.92 L1944.57 2099.45 L1956.05 2097.37 L1979.29 2093.64 L1984.96 2162.10 L1961.31 2165.84 L1945.27 2168.88 L1940.70 2169.29 L1942.78 2197.51 L1941.67 2202.90 L1940.42 2205.12 L1934.48 2214.52 L1911.52 2255.46 L1877.63 2313.14 L1888.42 2320.05 L1917.60 2338.03 L1929.50 2345.09 L1922.03 2343.71 L1916.63 2343.29 L1922.31 2350.21 L1908.89 2346.06 L1916.77 2351.04 L1933.09 2361.69 L1941.81 2367.63 L1960.07 2380.50 L1968.50 2386.72 L1980.67 2395.71 L2011.38 2418.67 L2047.20 2445.36 L2059.93 2454.91 L2062.00 2456.29 L2066.98 2459.75 L2070.72 2461.96 L2073.90 2464.45 L2078.60 2467.63 L2088.98 2474.69 L2095.75 2479.39 L2106.54 2486.31 L2110.55 2488.80 L2111.94 2489.76 L2141.53 2508.71 L2169.75 2526.97 L2189.67 2539.83 L2193.40 2542.32 L2199.63 2546.33 L2208.76 2552.28 L2215.12 2556.43 L2218.16 2558.37 L2223.97 2572.61 L2199.63 2632.50 L2198.52 2634.99 L2190.78 2645.64 L2184.97 2657.26 L2200.18 2666.53 L2187.73 2689.07 L2188.56 2689.76 L2210.83 2707.19 L2123.28 2864.45 L2129.50 2879.94 L2140.29 2880.91 L2131.85 2886.72 L2116.50 2897.09 L2118.44 2905.39 L2121.06 2907.19 L2120.51 2911.75 L2118.57 2912.86 L2116.22 2914.11 L2117.33 2915.07 L2120.23 2917.29 L2122.72 2919.64 L2129.78 2925.72 L2143.19 2938.03 L2141.40 2938.31 L2140.15 2939.69 L2117.33 2982.16 L2102.39 3009.54 L2084.96 3028.49 L2070.86 3083.68 L2046.51 3095.85 L2028.12 3156.84 L2024.66 3163.07 L2026.46 3164.18 L2032.96 3168.60 L2039.18 3175.79 L2040.56 3177.59 L2041.67 3178.28 L2044.44 3172.06 L2044.99 3170.95 L2078.60 3192.81 L2105.43 3209.96 L2128.67 3224.34 L2129.50 3224.76 L2133.51 3228.08 L2131.16 3231.12 L2130.61 3231.81 L2126.46 3237.90 L2122.86 3243.43 L2120.37 3247.44 L2119.82 3248.55 L2112.21 3262.93 L2110.83 3265.42 L2103.22 3279.11 L2097.83 3275.65 L2092.57 3272.75 L2088.56 3270.81 L2086.49 3269.98 L2081.23 3267.77 L2078.74 3266.80 L2077.22 3266.11 L2070.44 3263.90 L2066.98 3263.07 L2060.62 3261.41 L2055.78 3260.58 L2052.87 3260.03 L2049.83 3259.75 L2045.96 3259.20 L2039.60 3258.78 L2038.35 3258.78 L2029.78 3258.64 L2018.99 3259.20 L2005.29 3260.58 L2004.05 3258.64 L1999.49 3255.18 L1988.14 3249.10 L1977.91 3253.11 L1977.63 3254.22 L1977.08 3255.60 L1976.39 3256.84 L1975.69 3257.81 L1974.31 3259.06 L1972.93 3259.75 L1971.41 3260.44 L1969.89 3260.86 L1968.23 3261.27 L1965.74 3261.69 L1954.53 3265.28 L1931.43 3267.63 L1922.44 3268.32 L1915.25 3268.32 L1909.86 3268.32 L1904.32 3268.05 L1896.16 3267.22 L1890.08 3266.25 L1882.89 3264.59 L1880.81 3264.18 L1880.81 3264.18 Z" stroke-linejoin="round"/>
	</defs>
	<use xlink:href="#path_YvXaZCkU" style="fill:#09757A;stroke:#00465F;stroke-width:5.76"/>
</svg>
