<?xml version="1.0" encoding="UTF-8" standalone="no"?>
<!-- This is a Stata 16.1 generated SVG file (http://www.stata.com) -->

<svg version="1.1" width="5.24in" height="4.00in" viewBox="0 0 3771 2880" xmlns="http://www.w3.org/2000/svg" xmlns:xlink="http://www.w3.org/1999/xlink">
	<desc>Stata Graph - Graph</desc>
	<rect x="0" y="0" width="3771" height="2880" style="fill:#FFFFFF;stroke:none"/>
	<defs>
		<path id="path_JAmescXj" d="M2893.65 2283.17 L2893.65 2283.17 L2871.15 2285.76 L2866.31 2286.47 L2858.06 2287.64 L2842.74 2289.77 L2832.37 2290.94 L2812.58 2293.42 L2805.39 2294.24 L2799.85 2294.83 L2779.93 2297.07 L2779.46 2294.24 L2777.93 2279.87 L2777.70 2277.75 L2775.46 2255.24 L2774.04 2243.10 L2773.69 2238.86 L2772.75 2230.85 L2770.51 2208.34 L2768.62 2192.79 L2768.03 2187.84 L2767.56 2183.24 L2767.21 2180.06 L2765.91 2168.04 L2762.38 2135.05 L2761.90 2131.16 L2760.84 2121.38 L2758.37 2099.46 L2757.31 2089.21 L2755.42 2072.01 L2753.77 2055.98 L2752.48 2044.55 L2752.01 2039.48 L2751.53 2035.01 L2751.42 2033.71 L2750.94 2029.47 L2750.00 2021.34 L2748.94 2012.26 L2746.58 1991.17 L2744.23 1969.25 L2742.46 1951.93 L2741.87 1946.16 L2739.63 1926.01 L2737.75 1907.51 L2737.04 1902.56 L2736.80 1899.85 L2735.15 1884.18 L2733.62 1870.86 L2731.74 1853.31 L2731.26 1849.42 L2729.38 1830.33 L2728.79 1825.50 L2727.73 1815.24 L2727.14 1809.94 L2726.32 1801.46 L2725.02 1788.85 L2724.19 1781.43 L2723.60 1773.41 L2722.54 1765.05 L2721.48 1754.91 L2717.59 1718.86 L2715.00 1694.35 L2714.53 1690.46 L2713.94 1685.51 L2711.58 1663.59 L2711.23 1659.82 L2711.23 1656.40 L2711.47 1650.75 L2709.23 1642.15 L2708.29 1632.60 L2706.16 1615.87 L2705.46 1609.74 L2705.10 1607.38 L2704.75 1606.80 L2704.40 1602.20 L2702.63 1585.35 L2700.04 1558.37 L2699.09 1550.12 L2696.97 1530.08 L2696.62 1527.37 L2695.91 1521.60 L2695.09 1520.66 L2694.62 1516.65 L2694.26 1514.65 L2693.20 1510.64 L2692.85 1509.46 L2692.38 1508.17 L2690.49 1502.98 L2689.78 1501.10 L2688.72 1498.62 L2688.02 1496.62 L2687.54 1495.21 L2687.43 1495.09 L2683.42 1483.42 L2682.71 1481.54 L2681.42 1477.88 L2681.18 1477.06 L2680.83 1476.23 L2680.36 1474.58 L2679.77 1473.17 L2680.36 1473.05 L2681.06 1472.82 L2681.89 1472.70 L2678.47 1457.03 L2677.53 1454.08 L2677.65 1450.55 L2679.41 1439.35 L2680.36 1437.11 L2680.95 1435.70 L2682.95 1431.10 L2683.42 1429.45 L2684.48 1426.39 L2685.07 1424.03 L2685.66 1421.56 L2685.78 1420.03 L2685.89 1418.50 L2686.01 1417.32 L2686.01 1416.14 L2686.01 1414.72 L2685.89 1412.84 L2685.78 1411.78 L2684.60 1400.11 L2684.24 1396.58 L2683.07 1383.85 L2682.71 1381.50 L2682.48 1379.26 L2680.95 1363.11 L2679.18 1347.21 L2677.88 1336.60 L2677.17 1331.89 L2676.23 1326.70 L2675.41 1321.99 L2674.46 1315.74 L2672.81 1301.72 L2671.16 1285.46 L2669.28 1268.02 L2669.04 1265.90 L2668.69 1262.01 L2668.34 1258.36 L2667.98 1254.82 L2672.81 1252.94 L2674.46 1252.23 L2676.94 1251.17 L2687.54 1247.28 L2691.90 1246.10 L2696.74 1244.45 L2700.27 1243.63 L2701.92 1243.16 L2702.16 1244.45 L2702.28 1245.16 L2702.51 1245.75 L2702.98 1245.87 L2704.51 1246.10 L2707.58 1245.99 L2716.77 1245.04 L2733.39 1243.04 L2734.21 1238.68 L2739.40 1238.09 L2744.35 1237.38 L2750.59 1236.68 L2755.66 1236.20 L2758.84 1235.73 L2766.85 1234.91 L2784.06 1232.55 L2793.96 1230.67 L2844.51 1221.36 L2845.46 1227.96 L2845.81 1229.84 L2848.87 1229.49 L2858.65 1228.55 L2863.37 1228.19 L2873.03 1226.78 L2874.33 1226.66 L2875.74 1225.13 L2883.52 1219.83 L2887.29 1217.82 L2896.36 1216.76 L2900.37 1216.88 L2902.37 1217.12 L2909.68 1218.53 L2915.45 1218.88 L2920.88 1218.88 L2924.53 1218.65 L2925.94 1218.41 L2927.95 1218.06 L2931.48 1215.70 L2934.66 1212.99 L2935.49 1212.05 L2930.30 1210.99 L2909.21 1208.98 L2912.98 1208.40 L2929.95 1204.74 L2963.42 1198.14 L2974.61 1196.49 L2974.02 1190.25 L2973.08 1182.59 L2974.26 1182.47 L2977.68 1182.35 L2988.64 1181.77 L2994.29 1180.94 L2997.12 1180.35 L3004.19 1178.70 L3015.15 1177.52 L3024.93 1177.52 L3036.83 1176.93 L3039.43 1176.82 L3046.38 1176.46 L3061.58 1173.63 L3064.41 1173.16 L3073.36 1171.87 L3076.08 1171.40 L3078.08 1170.81 L3081.85 1169.39 L3087.74 1165.50 L3099.17 1157.73 L3112.37 1149.24 L3124.39 1142.64 L3149.14 1128.74 L3182.49 1110.59 L3200.16 1102.34 L3204.41 1099.52 L3206.53 1099.75 L3211.71 1100.93 L3213.72 1101.17 L3215.01 1101.40 L3217.25 1101.64 L3219.61 1101.87 L3225.27 1102.23 L3231.75 1102.11 L3234.46 1101.87 L3238.70 1101.52 L3250.01 1099.40 L3264.86 1096.22 L3279.71 1093.27 L3295.38 1089.97 L3296.33 1089.85 L3302.22 1088.68 L3316.95 1085.61 L3320.37 1085.14 L3323.19 1084.79 L3325.08 1084.67 L3327.20 1084.55 L3329.91 1084.55 L3332.03 1084.67 L3335.21 1085.02 L3337.10 1085.38 L3339.34 1085.85 L3341.93 1086.55 L3353.01 1090.56 L3357.25 1092.21 L3365.50 1095.27 L3366.44 1095.51 L3370.57 1097.16 L3378.82 1100.34 L3389.19 1104.23 L3390.13 1104.58 L3390.60 1104.70 L3394.49 1106.35 L3395.20 1106.70 L3404.27 1110.83 L3406.51 1111.77 L3410.87 1113.77 L3413.93 1115.31 L3418.29 1117.43 L3425.36 1120.84 L3427.49 1121.79 L3430.43 1122.97 L3435.73 1125.09 L3438.09 1125.91 L3438.21 1126.03 L3440.21 1126.62 L3441.63 1127.09 L3444.81 1127.91 L3445.87 1128.15 L3465.55 1131.92 L3471.56 1132.98 L3476.39 1133.92 L3479.69 1134.40 L3481.58 1134.75 L3483.46 1135.10 L3489.24 1136.40 L3494.19 1137.69 L3498.55 1138.76 L3503.73 1140.05 L3511.63 1142.29 L3513.75 1143.00 L3515.51 1143.47 L3518.11 1144.41 L3521.64 1145.71 L3526.59 1147.59 L3526.95 1147.71 L3527.77 1147.95 L3528.71 1148.30 L3533.19 1149.95 L3534.25 1150.30 L3535.67 1150.89 L3537.20 1151.60 L3540.38 1153.01 L3541.32 1154.31 L3542.15 1154.78 L3553.70 1160.32 L3554.64 1160.79 L3556.29 1161.62 L3558.53 1162.68 L3560.06 1163.50 L3573.49 1169.98 L3582.33 1174.34 L3583.98 1175.17 L3587.16 1176.70 L3593.88 1180.12 L3595.29 1180.82 L3596.36 1191.19 L3597.30 1202.50 L3596.83 1203.56 L3597.18 1205.92 L3598.48 1217.70 L3600.01 1231.14 L3601.19 1243.51 L3601.42 1245.63 L3579.39 1236.79 L3484.64 1197.79 L3483.93 1197.79 L3483.11 1197.79 L3479.69 1194.37 L3478.98 1194.84 L3478.28 1195.32 L3477.33 1195.91 L3476.51 1196.38 L3470.50 1199.32 L3469.56 1199.68 L3468.38 1200.27 L3467.32 1200.74 L3466.61 1200.97 L3465.20 1201.56 L3462.96 1202.27 L3461.42 1202.62 L3460.13 1202.98 L3458.60 1203.33 L3455.53 1203.80 L3450.47 1204.51 L3446.93 1204.63 L3438.33 1204.39 L3431.37 1204.39 L3423.95 1204.15 L3421.95 1204.15 L3421.12 1204.27 L3419.71 1204.39 L3416.88 1204.63 L3414.40 1204.74 L3411.81 1204.86 L3409.46 1205.10 L3407.33 1205.33 L3405.68 1205.57 L3394.61 1206.86 L3391.78 1207.22 L3380.35 1208.63 L3373.87 1209.46 L3364.67 1210.52 L3365.03 1214.29 L3365.74 1221.95 L3366.44 1228.90 L3367.27 1236.32 L3369.27 1254.82 L3372.92 1287.70 L3373.75 1295.71 L3378.46 1338.60 L3378.93 1342.37 L3379.99 1352.63 L3382.12 1370.54 L3382.82 1377.25 L3383.18 1380.55 L3383.65 1384.79 L3389.78 1384.09 L3398.50 1383.03 L3401.91 1382.67 L3408.87 1381.85 L3411.93 1381.50 L3417.82 1380.79 L3421.12 1380.43 L3428.43 1379.61 L3431.85 1379.14 L3438.92 1378.43 L3442.69 1377.96 L3449.05 1377.25 L3452.47 1376.90 L3458.48 1376.07 L3463.07 1375.60 L3467.08 1375.01 L3470.50 1374.66 L3477.57 1373.95 L3481.22 1373.48 L3487.47 1372.78 L3491.24 1372.42 L3494.07 1372.07 L3497.72 1371.60 L3502.55 1414.25 L3526.71 1411.31 L3528.01 1411.07 L3564.42 1407.18 L3583.63 1404.71 L3611.91 1401.64 L3607.32 1358.87 L3610.38 1358.40 L3613.21 1358.16 L3614.97 1374.78 L3618.16 1400.94 L3619.69 1415.78 L3622.28 1438.29 L3622.52 1441.12 L3629.35 1504.28 L3632.30 1531.62 L3638.07 1582.76 L3644.32 1640.61 L3646.79 1662.53 L3650.68 1662.18 L3661.76 1757.86 L3665.18 1794.51 L3719.86 1788.26 L3733.76 1918.11 L3733.88 1920.00 L3721.98 1921.30 L3720.80 1921.41 L3716.91 1921.77 L3716.20 1921.89 L3713.37 1922.24 L3710.07 1922.59 L3676.61 1926.48 L3673.07 1926.83 L3637.95 1930.96 L3619.57 1932.96 L3617.21 1933.32 L3601.30 1935.08 L3576.79 1937.91 L3551.22 1940.86 L3548.04 1941.21 L3492.42 1947.69 L3457.54 1951.70 L3444.10 1953.35 L3458.83 2072.24 L3461.42 2089.80 L3460.60 2091.80 L3460.13 2093.45 L3459.77 2095.22 L3459.77 2096.63 L3459.77 2098.40 L3460.36 2103.12 L3462.49 2125.86 L3471.21 2214.23 L3468.38 2214.59 L3466.26 2214.82 L3463.78 2215.18 L3375.28 2225.55 L3356.07 2228.02 L3316.95 2232.73 L3297.98 2234.62 L3282.54 2236.50 L3242.47 2241.45 L3198.16 2246.76 L3182.25 2248.64 L3178.13 2249.11 L3017.51 2267.61 L3011.38 2268.32 L2991.82 2270.91 L2913.22 2279.99 L2900.02 2281.40 L2893.65 2283.17 L2893.65 2283.17 Z" stroke-linejoin="round"/>
	</defs>
	<use xlink:href="#path_JAmescXj" style="fill:#9DC8CA;stroke:#9DD7F0;stroke-width:5.76"/>
	<defs>
		<path id="path_KevSnocq" d="M2618.96 2849.36 L2618.96 2849.36 L2618.96 2849.36 L2601.87 2851.84 L2567.58 2837.11 L2572.65 2775.72 L2576.18 2730.94 L2576.77 2724.58 L2487.09 2732.24 L2475.07 2732.35 L2475.07 2733.30 L2468.24 2734.12 L2468.71 2739.19 L2408.25 2739.89 L2349.22 2738.95 L2344.85 2698.42 L2342.50 2676.73 L2341.79 2671.08 L2338.49 2641.62 L2338.37 2638.79 L2335.78 2617.94 L2335.31 2611.45 L2335.07 2601.20 L2332.72 2589.18 L2332.01 2583.65 L2331.07 2575.40 L2328.36 2552.89 L2322.82 2506.58 L2317.04 2458.74 L2311.15 2404.54 L2309.62 2391.69 L2308.79 2384.39 L2308.32 2380.26 L2307.62 2371.54 L2307.03 2362.35 L2307.14 2358.82 L2307.26 2355.75 L2294.77 2357.28 L2265.43 2360.94 L2264.84 2361.06 L2251.76 2362.71 L2249.76 2362.94 L2247.75 2363.18 L2191.07 2370.48 L2144.40 2376.26 L2142.05 2376.49 L2090.55 2382.86 L2087.72 2383.21 L2086.31 2383.33 L2083.48 2383.68 L2026.91 2390.28 L1989.91 2393.93 L1975.77 2395.58 L1954.56 2397.94 L1949.61 2398.53 L1931.69 2400.53 L1902.35 2403.59 L1897.17 2404.18 L1874.54 2406.54 L1850.62 2408.54 L1836.36 2410.07 L1813.97 2412.90 L1810.90 2409.37 L1811.02 2413.26 L1766.71 2415.61 L1763.18 2417.03 L1751.04 2419.86 L1720.40 2423.15 L1695.06 2413.49 L1669.14 2433.17 L1657.94 2434.00 L1638.74 2435.76 L1607.62 2440.24 L1593.95 2439.30 L1584.29 2439.89 L1575.34 2440.48 L1574.86 2434.58 L1572.15 2430.70 L1570.39 2428.22 L1566.97 2423.86 L1565.08 2421.50 L1563.79 2419.86 L1568.62 2413.73 L1577.22 2402.89 L1581.11 2397.94 L1585.94 2391.46 L1590.65 2385.09 L1596.31 2378.14 L1597.37 2376.85 L1598.90 2374.84 L1605.15 2366.59 L1614.70 2354.46 L1622.12 2344.79 L1640.62 2320.87 L1643.10 2317.46 L1646.87 2312.63 L1650.64 2307.32 L1655.12 2300.02 L1662.42 2287.88 L1665.72 2281.87 L1668.20 2277.04 L1668.55 2276.33 L1672.44 2268.44 L1682.57 2248.41 L1683.87 2245.70 L1686.46 2240.27 L1689.76 2233.68 L1691.53 2230.02 L1688.70 2228.37 L1685.28 2226.25 L1683.99 2225.66 L1683.40 2225.31 L1682.34 2224.84 L1681.39 2224.60 L1680.45 2224.37 L1679.16 2224.37 L1677.98 2224.37 L1676.92 2224.49 L1676.21 2224.72 L1674.09 2225.55 L1672.32 2226.49 L1656.18 2237.80 L1652.99 2239.92 L1650.05 2241.81 L1644.98 2174.64 L1636.14 2176.05 L1628.36 2177.35 L1581.11 2181.36 L1574.98 2175.11 L1572.74 2154.37 L1572.27 2151.66 L1571.45 2148.48 L1569.09 2141.65 L1564.61 2127.98 L1563.55 2122.32 L1563.32 2115.84 L1564.02 2109.83 L1565.32 2104.41 L1567.09 2100.29 L1569.21 2096.52 L1571.45 2093.33 L1574.04 2090.51 L1579.34 2085.20 L1565.44 2095.46 L1540.34 2113.84 L1512.52 2134.46 L1506.99 2138.58 L1482.12 2157.20 L1456.55 2176.29 L1441.11 2187.72 L1430.27 2195.62 L1420.49 2203.04 L1417.42 2205.28 L1406.47 2213.64 L1371.94 2238.86 L1353.55 2252.65 L1349.19 2256.06 L1348.84 2256.30 L1346.01 2258.19 L1345.66 2255.12 L1339.88 2195.62 L1339.88 2194.91 L1338.70 2168.40 L1338.59 2166.63 L1337.88 2157.20 L1337.41 2150.84 L1337.76 2149.78 L1337.88 2136.70 L1337.17 2129.04 L1337.06 2127.39 L1337.06 2126.33 L1337.06 2124.80 L1337.17 2123.50 L1337.29 2121.85 L1337.29 2119.97 L1337.53 2117.96 L1337.76 2115.72 L1338.35 2113.25 L1338.82 2111.25 L1339.41 2108.89 L1340.24 2106.53 L1340.94 2104.41 L1341.89 2103.00 L1343.30 2100.29 L1345.07 2097.58 L1346.01 2096.16 L1346.95 2094.98 L1348.13 2093.33 L1349.55 2091.45 L1351.20 2089.45 L1352.73 2087.33 L1354.50 2085.09 L1355.79 2083.20 L1357.32 2081.20 L1358.86 2078.96 L1360.62 2076.84 L1362.16 2074.72 L1363.57 2072.83 L1365.81 2069.77 L1368.40 2066.47 L1370.52 2063.52 L1372.64 2060.81 L1373.47 2059.75 L1374.06 2059.05 L1375.71 2057.28 L1376.30 2056.57 L1376.77 2056.10 L1377.48 2055.51 L1378.18 2054.92 L1379.13 2054.10 L1379.95 2053.51 L1380.66 2052.92 L1381.36 2052.45 L1382.07 2052.09 L1382.66 2051.74 L1383.49 2051.27 L1384.43 2050.68 L1385.72 2050.09 L1387.37 2049.50 L1388.55 2049.03 L1389.61 2048.68 L1390.91 2048.32 L1391.26 2048.20 L1391.85 2048.09 L1392.44 2047.97 L1393.03 2047.85 L1393.62 2047.73 L1394.09 2047.62 L1394.80 2047.50 L1396.92 2047.14 L1397.63 2047.14 L1398.22 2047.03 L1400.34 2046.67 L1400.81 2046.67 L1401.63 2046.55 L1404.34 2046.08 L1405.99 2045.85 L1407.17 2045.61 L1417.19 2043.02 L1418.13 2042.67 L1432.27 2041.02 L1439.11 2040.31 L1446.65 2039.48 L1452.54 2038.90 L1459.26 2038.19 L1463.74 2037.72 L1469.28 2037.13 L1486.25 2035.24 L1491.55 2034.65 L1499.09 2033.83 L1505.69 2033.00 L1511.94 2032.30 L1515.71 2031.71 L1517.83 2052.56 L1535.74 2050.68 L1558.25 2049.38 L1565.08 2048.56 L1571.21 2048.09 L1576.28 2047.50 L1580.28 2046.79 L1582.76 2045.73 L1584.64 2044.79 L1603.38 2033.47 L1626.72 2016.62 L1642.98 2004.13 L1647.34 2000.83 L1657.12 1993.29 L1664.78 1986.46 L1687.88 1966.07 L1701.66 1952.88 L1702.37 1952.05 L1703.08 1951.23 L1709.91 1943.45 L1725.82 1924.83 L1740.79 1906.45 L1748.80 1897.73 L1750.92 1895.49 L1754.22 1892.78 L1770.72 1880.29 L1767.18 1834.10 L1766.01 1834.10 L1763.41 1801.10 L1762.71 1794.62 L1763.53 1739.59 L1771.07 1731.46 L1758.11 1716.73 L1758.11 1716.15 L1758.94 1700.95 L1757.40 1688.45 L1757.64 1670.78 L1757.05 1657.70 L1750.92 1635.90 L1754.10 1630.60 L1750.45 1593.83 L1750.22 1592.07 L1747.74 1570.03 L1741.02 1507.46 L1740.55 1502.98 L1740.20 1499.33 L1746.92 1498.62 L1752.93 1498.03 L1756.58 1497.68 L1761.65 1497.21 L1777.56 1495.44 L1792.64 1493.79 L1818.09 1490.85 L1822.57 1490.37 L1824.10 1490.14 L1825.52 1490.02 L1827.64 1489.90 L1830.47 1489.67 L1826.46 1451.02 L1812.32 1451.14 L1807.61 1451.02 L1804.66 1450.66 L1802.42 1449.96 L1800.89 1449.01 L1799.59 1447.60 L1798.53 1446.07 L1797.35 1444.42 L1795.94 1443.12 L1794.52 1441.36 L1792.40 1436.88 L1787.45 1421.79 L1781.33 1404.71 L1780.50 1396.93 L1779.91 1394.69 L1779.44 1392.81 L1778.62 1390.92 L1777.67 1389.15 L1776.73 1387.15 L1775.91 1384.91 L1775.32 1382.44 L1774.96 1379.49 L1773.90 1362.88 L1773.78 1361.46 L1788.99 1360.05 L1799.95 1358.99 L1802.07 1358.87 L1806.43 1358.40 L1822.92 1356.75 L1836.48 1355.45 L1838.36 1355.22 L1838.95 1356.99 L1844.25 1356.40 L1844.14 1354.75 L1848.85 1354.16 L1849.09 1355.92 L1869.36 1354.16 L1879.14 1353.21 L1877.25 1351.56 L1879.14 1351.33 L1883.26 1350.98 L1884.44 1350.86 L1887.97 1350.50 L1890.21 1350.27 L1895.99 1349.68 L1905.77 1348.50 L1926.39 1346.38 L1927.57 1346.26 L1933.58 1345.56 L1934.64 1345.32 L1943.48 1344.14 L1948.08 1343.43 L1953.73 1342.61 L1956.44 1342.26 L1959.39 1341.90 L1961.86 1341.67 L1970.58 1340.37 L1977.18 1339.55 L1977.30 1341.08 L1980.25 1340.61 L1989.20 1339.31 L1990.15 1338.60 L1992.27 1338.37 L1995.57 1338.13 L1999.45 1337.66 L2005.58 1336.95 L2013.83 1336.01 L2014.77 1335.89 L2015.84 1335.78 L2019.25 1335.42 L2023.85 1334.83 L2024.91 1334.01 L2029.51 1333.18 L2039.52 1332.00 L2042.35 1331.65 L2050.83 1330.59 L2051.66 1330.47 L2056.02 1329.88 L2060.85 1329.29 L2064.62 1328.82 L2067.69 1328.47 L2072.28 1327.88 L2084.54 1326.58 L2091.26 1325.88 L2108.34 1323.87 L2110.11 1323.64 L2131.44 1320.93 L2145.46 1319.04 L2148.29 1318.57 L2149.47 1318.45 L2151.12 1318.22 L2151.36 1320.22 L2155.48 1319.63 L2159.25 1319.28 L2163.26 1318.81 L2165.85 1318.57 L2167.03 1318.34 L2168.44 1317.16 L2177.28 1316.10 L2191.78 1314.33 L2195.78 1313.86 L2201.20 1313.15 L2206.51 1312.56 L2211.46 1311.85 L2215.82 1311.38 L2218.06 1311.03 L2229.13 1309.62 L2248.81 1307.14 L2252.11 1306.79 L2263.90 1305.14 L2272.97 1304.08 L2273.80 1303.96 L2274.97 1304.43 L2278.74 1304.08 L2293.12 1302.19 L2307.73 1300.42 L2320.46 1298.66 L2322.11 1298.54 L2327.06 1297.95 L2336.25 1296.77 L2350.63 1294.89 L2354.05 1294.42 L2355.93 1294.06 L2356.88 1293.35 L2361.47 1292.88 L2362.89 1292.65 L2364.89 1292.41 L2371.02 1291.59 L2378.68 1290.64 L2385.16 1289.82 L2393.41 1288.76 L2397.65 1288.17 L2409.43 1286.76 L2419.21 1285.46 L2420.51 1285.34 L2421.69 1285.11 L2425.11 1284.52 L2427.58 1283.81 L2428.88 1283.34 L2430.53 1282.75 L2435.12 1279.69 L2435.83 1279.33 L2436.66 1286.28 L2437.36 1285.70 L2439.13 1282.51 L2451.39 1281.34 L2466.94 1279.33 L2481.91 1277.68 L2499.94 1275.56 L2508.89 1274.62 L2510.66 1274.03 L2514.08 1274.03 L2519.97 1273.20 L2523.03 1272.14 L2531.17 1271.32 L2538.59 1270.38 L2552.38 1268.61 L2553.67 1281.22 L2561.45 1280.39 L2576.06 1278.39 L2575.59 1296.18 L2581.96 1295.48 L2584.20 1295.12 L2585.49 1294.42 L2585.73 1293.94 L2594.57 1292.53 L2595.27 1286.05 L2596.57 1278.63 L2597.39 1273.91 L2598.69 1265.90 L2599.04 1261.19 L2599.16 1257.89 L2599.16 1254.35 L2599.04 1250.82 L2598.81 1245.16 L2598.81 1242.57 L2598.69 1240.56 L2608.71 1239.86 L2612.60 1239.62 L2615.78 1239.15 L2616.25 1244.45 L2617.43 1256.59 L2633.93 1254.82 L2638.52 1254.00 L2650.66 1252.58 L2667.63 1250.70 L2667.98 1254.82 L2668.34 1258.36 L2668.69 1262.01 L2669.04 1265.90 L2669.28 1268.02 L2671.16 1285.46 L2672.81 1301.72 L2674.46 1315.74 L2675.41 1321.99 L2676.23 1326.70 L2677.17 1331.89 L2677.88 1336.60 L2679.18 1347.21 L2680.95 1363.11 L2682.48 1379.26 L2682.71 1381.50 L2683.07 1383.85 L2684.24 1396.58 L2684.60 1400.11 L2685.78 1411.78 L2685.89 1412.84 L2686.01 1414.72 L2686.01 1416.14 L2686.01 1417.32 L2685.89 1418.50 L2685.78 1420.03 L2685.66 1421.56 L2685.07 1424.03 L2684.48 1426.39 L2683.42 1429.45 L2682.95 1431.10 L2680.95 1435.70 L2680.36 1437.11 L2679.41 1439.35 L2677.65 1450.55 L2677.53 1454.08 L2678.47 1457.03 L2681.89 1472.70 L2681.06 1472.82 L2680.36 1473.05 L2679.77 1473.17 L2680.36 1474.58 L2680.83 1476.23 L2681.18 1477.06 L2681.42 1477.88 L2682.71 1481.54 L2683.42 1483.42 L2687.43 1495.09 L2687.54 1495.21 L2688.02 1496.62 L2688.72 1498.62 L2689.78 1501.10 L2690.49 1502.98 L2692.38 1508.17 L2692.85 1509.46 L2693.20 1510.64 L2694.26 1514.65 L2694.62 1516.65 L2695.09 1520.66 L2695.91 1521.60 L2696.62 1527.37 L2696.97 1530.08 L2699.09 1550.12 L2700.04 1558.37 L2702.63 1585.35 L2704.40 1602.20 L2704.75 1606.80 L2705.10 1607.38 L2705.46 1609.74 L2706.16 1615.87 L2708.29 1632.60 L2709.23 1642.15 L2711.47 1650.75 L2711.23 1656.40 L2711.23 1659.82 L2711.58 1663.59 L2713.94 1685.51 L2714.53 1690.46 L2715.00 1694.35 L2717.59 1718.86 L2721.48 1754.91 L2722.54 1765.05 L2723.60 1773.41 L2724.19 1781.43 L2725.02 1788.85 L2726.32 1801.46 L2727.14 1809.94 L2727.73 1815.24 L2728.79 1825.50 L2729.38 1830.33 L2731.26 1849.42 L2731.74 1853.31 L2733.62 1870.86 L2735.15 1884.18 L2736.80 1899.85 L2737.04 1902.56 L2737.75 1907.51 L2739.63 1926.01 L2741.87 1946.16 L2742.46 1951.93 L2744.23 1969.25 L2746.58 1991.17 L2748.94 2012.26 L2750.00 2021.34 L2750.94 2029.47 L2751.42 2033.71 L2751.53 2035.01 L2752.01 2039.48 L2752.48 2044.55 L2753.77 2055.98 L2755.42 2072.01 L2757.31 2089.21 L2758.37 2099.46 L2760.84 2121.38 L2761.90 2131.16 L2762.38 2135.05 L2765.91 2168.04 L2767.21 2180.06 L2767.56 2183.24 L2768.03 2187.84 L2768.62 2192.79 L2770.51 2208.34 L2772.75 2230.85 L2773.69 2238.86 L2774.04 2243.10 L2775.46 2255.24 L2777.70 2277.75 L2777.93 2279.87 L2779.46 2294.24 L2779.93 2297.07 L2778.76 2297.19 L2777.11 2297.42 L2765.44 2298.60 L2750.00 2299.78 L2745.76 2300.37 L2742.58 2300.61 L2738.22 2301.20 L2722.43 2303.32 L2705.57 2305.32 L2669.16 2309.92 L2657.97 2311.21 L2632.28 2314.39 L2619.78 2315.92 L2613.30 2316.63 L2608.24 2317.10 L2604.35 2317.57 L2601.17 2317.93 L2589.15 2319.34 L2555.21 2322.76 L2548.72 2323.23 L2548.14 2323.23 L2547.66 2323.35 L2547.19 2323.35 L2547.07 2323.35 L2546.84 2323.47 L2546.37 2323.47 L2546.13 2323.58 L2545.78 2323.58 L2545.31 2323.82 L2544.95 2324.17 L2544.60 2324.41 L2544.84 2330.07 L2546.01 2343.38 L2546.49 2348.57 L2546.96 2352.81 L2548.25 2365.30 L2549.20 2373.55 L2549.79 2379.44 L2550.49 2386.04 L2552.02 2400.53 L2536.47 2401.83 L2538.59 2427.63 L2554.73 2426.10 L2556.38 2441.18 L2558.27 2459.57 L2559.57 2471.23 L2561.10 2485.25 L2562.51 2499.04 L2564.63 2518.95 L2566.28 2534.63 L2567.34 2544.41 L2568.17 2551.48 L2570.29 2570.57 L2570.76 2575.28 L2571.59 2583.06 L2571.82 2585.88 L2571.94 2586.36 L2572.06 2588.36 L2572.29 2590.01 L2569.23 2590.60 L2565.93 2591.07 L2556.97 2592.13 L2547.43 2593.19 L2533.64 2594.84 L2529.28 2595.31 L2523.15 2596.14 L2516.55 2596.84 L2513.02 2597.31 L2504.06 2598.14 L2481.67 2600.97 L2477.43 2601.32 L2464.70 2602.85 L2459.40 2603.56 L2457.51 2603.80 L2456.69 2604.03 L2455.98 2604.38 L2455.51 2604.62 L2455.27 2604.97 L2455.04 2605.44 L2454.45 2604.74 L2454.21 2604.50 L2453.86 2604.27 L2453.62 2604.27 L2453.15 2604.15 L2452.68 2604.15 L2423.93 2607.45 L2404.13 2609.69 L2400.95 2609.92 L2391.76 2611.10 L2384.57 2611.93 L2382.09 2612.16 L2379.03 2612.28 L2376.91 2612.16 L2375.85 2612.16 L2391.76 2663.42 L2395.29 2667.54 L2398.71 2676.15 L2399.89 2680.15 L2401.77 2685.22 L2402.95 2687.10 L2405.54 2692.52 L2407.08 2694.41 L2407.78 2695.00 L2422.75 2693.82 L2430.53 2692.88 L2432.41 2692.64 L2433.59 2692.52 L2433.83 2692.41 L2434.53 2692.17 L2434.89 2691.82 L2435.24 2690.99 L2438.54 2684.75 L2439.72 2682.39 L2440.19 2681.21 L2441.60 2678.03 L2444.08 2673.08 L2446.08 2669.43 L2448.09 2665.07 L2448.44 2664.48 L2449.03 2663.77 L2449.74 2663.18 L2451.39 2662.12 L2451.97 2661.77 L2452.80 2661.42 L2453.62 2661.06 L2454.69 2660.71 L2456.57 2660.24 L2460.11 2659.53 L2462.11 2677.68 L2491.45 2674.38 L2490.04 2657.29 L2489.57 2650.93 L2485.91 2651.16 L2485.21 2643.62 L2483.91 2643.15 L2485.32 2641.97 L2486.86 2639.97 L2486.97 2639.73 L2487.09 2639.38 L2487.33 2639.15 L2488.04 2638.44 L2488.51 2637.97 L2488.74 2637.73 L2488.98 2637.50 L2489.21 2637.50 L2489.68 2637.38 L2489.92 2637.14 L2490.16 2636.91 L2490.86 2636.20 L2491.10 2636.08 L2491.33 2635.96 L2491.45 2635.85 L2491.57 2635.85 L2491.81 2635.73 L2491.92 2635.73 L2492.40 2635.73 L2495.46 2635.02 L2497.82 2634.55 L2499.94 2634.08 L2500.29 2633.84 L2500.88 2633.37 L2501.35 2633.02 L2501.59 2632.55 L2501.70 2632.19 L2501.70 2631.37 L2501.70 2631.02 L2501.82 2630.90 L2502.65 2629.37 L2575.12 2622.30 L2585.14 2621.12 L2587.61 2588.01 L2587.73 2586.12 L2595.16 2494.33 L2598.45 2454.50 L2611.30 2453.44 L2638.29 2450.26 L2641.70 2491.15 L2680.24 2487.96 L2682.60 2511.18 L2684.72 2532.15 L2684.95 2534.51 L2688.37 2534.04 L2689.67 2532.51 L2708.52 2531.09 L2709.58 2541.70 L2709.58 2543.35 L2709.46 2545.11 L2709.35 2548.53 L2709.35 2550.42 L2708.99 2553.60 L2708.99 2555.72 L2708.99 2557.37 L2709.58 2562.79 L2710.88 2573.51 L2707.22 2574.22 L2703.81 2574.57 L2704.04 2576.81 L2747.06 2572.10 L2747.17 2572.92 L2747.17 2576.46 L2746.23 2580.35 L2742.81 2586.00 L2740.10 2589.42 L2732.21 2598.02 L2730.56 2600.38 L2713.82 2619.94 L2713.00 2621.23 L2712.06 2623.24 L2710.88 2626.07 L2710.41 2628.19 L2709.58 2633.73 L2712.29 2634.79 L2713.12 2635.14 L2713.82 2635.49 L2718.30 2626.54 L2722.78 2627.01 L2727.85 2627.83 L2742.11 2626.89 L2743.99 2626.42 L2785.47 2622.41 L2799.97 2620.88 L2810.93 2619.82 L2812.11 2631.02 L2812.93 2639.97 L2813.76 2647.16 L2814.11 2650.81 L2814.82 2657.65 L2816.35 2672.49 L2818.70 2694.76 L2815.29 2695.00 L2708.17 2703.13 L2702.86 2703.60 L2701.21 2689.58 L2696.74 2645.63 L2696.38 2642.56 L2695.44 2634.20 L2690.96 2590.36 L2689.90 2582.70 L2689.08 2576.10 L2683.07 2576.81 L2657.14 2579.87 L2652.66 2580.46 L2635.34 2582.23 L2623.32 2583.65 L2624.85 2601.67 L2628.62 2648.22 L2644.41 2770.88 L2645.95 2777.25 L2648.89 2778.66 L2651.48 2810.60 L2633.93 2812.13 L2637.34 2847.48 L2618.96 2849.36 L2618.96 2849.36 Z" stroke-linejoin="round"/>
	</defs>
	<use xlink:href="#path_KevSnocq" style="fill:#9DC8CA;stroke:#9DD7F0;stroke-width:5.76"/>
	<defs>
		<path id="path_MQwkLgqT" d="M3595.06 1179.17 L3595.06 1179.17 L3595.29 1180.82 L3593.88 1180.12 L3587.16 1176.70 L3583.98 1175.17 L3582.33 1174.34 L3573.49 1169.98 L3560.06 1163.50 L3558.53 1162.68 L3556.29 1161.62 L3554.64 1160.79 L3553.70 1160.32 L3542.15 1154.78 L3541.32 1154.31 L3540.38 1153.01 L3537.20 1151.60 L3535.67 1150.89 L3534.25 1150.30 L3533.19 1149.95 L3528.71 1148.30 L3527.77 1147.95 L3526.95 1147.71 L3526.59 1147.59 L3521.64 1145.71 L3518.11 1144.41 L3515.51 1143.47 L3513.75 1143.00 L3511.63 1142.29 L3503.73 1140.05 L3498.55 1138.76 L3494.19 1137.69 L3489.24 1136.40 L3483.46 1135.10 L3481.58 1134.75 L3479.69 1134.40 L3476.39 1133.92 L3471.56 1132.98 L3465.55 1131.92 L3445.87 1128.15 L3444.81 1127.91 L3441.63 1127.09 L3440.21 1126.62 L3438.21 1126.03 L3438.09 1125.91 L3435.73 1125.09 L3430.43 1122.97 L3427.49 1121.79 L3425.36 1120.84 L3418.29 1117.43 L3413.93 1115.31 L3410.87 1113.77 L3406.51 1111.77 L3404.27 1110.83 L3395.20 1106.70 L3394.49 1106.35 L3390.60 1104.70 L3390.13 1104.58 L3389.19 1104.23 L3378.82 1100.34 L3370.57 1097.16 L3366.44 1095.51 L3365.50 1095.27 L3357.25 1092.21 L3353.01 1090.56 L3341.93 1086.55 L3339.34 1085.85 L3337.10 1085.38 L3335.21 1085.02 L3332.03 1084.67 L3329.91 1084.55 L3327.20 1084.55 L3325.08 1084.67 L3323.19 1084.79 L3320.37 1085.14 L3316.95 1085.61 L3302.22 1088.68 L3296.33 1089.85 L3295.38 1089.97 L3279.71 1093.27 L3264.86 1096.22 L3250.01 1099.40 L3238.70 1101.52 L3234.46 1101.87 L3231.75 1102.11 L3225.27 1102.23 L3219.61 1101.87 L3217.25 1101.64 L3215.01 1101.40 L3213.72 1101.17 L3211.71 1100.93 L3206.53 1099.75 L3204.41 1099.52 L3200.16 1102.34 L3182.49 1110.59 L3149.14 1128.74 L3124.39 1142.64 L3112.37 1149.24 L3099.17 1157.73 L3087.74 1165.50 L3081.85 1169.39 L3078.08 1170.81 L3076.08 1171.40 L3073.36 1171.87 L3064.41 1173.16 L3061.58 1173.63 L3046.38 1176.46 L3039.43 1176.82 L3036.83 1176.93 L3024.93 1177.52 L3015.15 1177.52 L3004.19 1178.70 L2997.12 1180.35 L2994.29 1180.94 L2988.64 1181.77 L2977.68 1182.35 L2974.26 1182.47 L2973.08 1182.59 L2974.02 1190.25 L2974.61 1196.49 L2963.42 1198.14 L2929.95 1204.74 L2912.98 1208.40 L2909.21 1208.98 L2930.30 1210.99 L2935.49 1212.05 L2934.66 1212.99 L2931.48 1215.70 L2927.95 1218.06 L2925.94 1218.41 L2924.53 1218.65 L2920.88 1218.88 L2915.45 1218.88 L2909.68 1218.53 L2902.37 1217.12 L2900.37 1216.88 L2896.36 1216.76 L2887.29 1217.82 L2883.52 1219.83 L2875.74 1225.13 L2874.33 1226.66 L2873.03 1226.78 L2863.37 1228.19 L2858.65 1228.55 L2848.87 1229.49 L2845.81 1229.84 L2845.46 1227.96 L2844.51 1221.36 L2793.96 1230.67 L2784.06 1232.55 L2766.85 1234.91 L2758.84 1235.73 L2755.66 1236.20 L2750.59 1236.68 L2744.35 1237.38 L2739.40 1238.09 L2734.21 1238.68 L2733.39 1243.04 L2716.77 1245.04 L2707.58 1245.99 L2704.51 1246.10 L2702.98 1245.87 L2702.51 1245.75 L2702.28 1245.16 L2702.16 1244.45 L2701.92 1243.16 L2700.27 1243.63 L2696.74 1244.45 L2691.90 1246.10 L2687.54 1247.28 L2676.94 1251.17 L2674.46 1252.23 L2672.81 1252.94 L2667.98 1254.82 L2667.63 1250.70 L2650.66 1252.58 L2638.52 1254.00 L2633.93 1254.82 L2617.43 1256.59 L2616.25 1244.45 L2615.78 1239.15 L2612.60 1239.62 L2608.71 1239.86 L2598.69 1240.56 L2592.21 1241.15 L2590.91 1241.27 L2589.50 1241.27 L2583.37 1241.04 L2576.89 1240.68 L2577.60 1221.95 L2582.90 1222.30 L2591.03 1222.65 L2590.79 1213.58 L2590.68 1211.11 L2590.68 1209.34 L2590.68 1207.69 L2590.79 1206.16 L2590.79 1189.31 L2593.51 1189.42 L2594.92 1189.31 L2597.75 1189.07 L2601.05 1188.84 L2604.58 1188.36 L2609.77 1187.54 L2610.00 1186.71 L2610.36 1185.42 L2610.71 1183.77 L2611.77 1178.23 L2613.66 1167.74 L2615.54 1158.20 L2616.96 1149.83 L2618.49 1141.70 L2620.14 1132.98 L2620.49 1130.04 L2622.38 1123.91 L2624.62 1119.90 L2626.15 1117.90 L2626.97 1116.60 L2628.62 1113.42 L2628.98 1111.65 L2632.51 1094.21 L2635.93 1075.36 L2635.93 1075.24 L2636.52 1070.65 L2636.40 1069.35 L2635.58 1067.23 L2635.34 1067.11 L2632.75 1065.93 L2632.51 1065.23 L2632.16 1064.52 L2632.51 1062.63 L2632.75 1061.34 L2632.98 1060.16 L2638.88 1027.05 L2641.94 1011.61 L2642.06 1010.20 L2641.94 1008.67 L2641.70 1007.25 L2641.35 1005.37 L2641.11 1004.54 L2640.64 1003.25 L2637.58 996.06 L2635.69 986.63 L2635.46 984.86 L2634.51 978.03 L2634.63 972.25 L2634.63 960.12 L2634.99 958.00 L2634.51 955.64 L2634.51 946.45 L2635.34 928.54 L2629.09 928.42 L2667.39 731.16 L2668.81 723.62 L2672.93 723.03 L2675.17 723.27 L2676.59 723.03 L2677.65 722.80 L2685.89 721.27 L2688.96 719.73 L2690.37 719.50 L2692.73 719.15 L2703.81 719.62 L2708.17 712.31 L2730.32 715.02 L2731.74 715.02 L2732.21 715.02 L2736.92 714.55 L2739.99 714.31 L2747.76 713.49 L2761.55 712.08 L2764.38 711.72 L2765.20 711.60 L2777.22 710.07 L2787.48 709.01 L2799.73 707.48 L2803.97 707.01 L2842.98 701.12 L2852.76 699.82 L2853.12 699.94 L2865.49 698.29 L2881.04 696.29 L2895.30 694.75 L2900.96 694.28 L2905.08 694.40 L2908.27 694.16 L2909.09 694.16 L2910.74 693.93 L2911.57 694.05 L2912.63 693.81 L2918.16 692.87 L2922.88 692.04 L2924.53 691.93 L2929.01 691.57 L2929.71 691.45 L2930.42 691.34 L2930.66 691.34 L2930.89 691.34 L2931.13 691.45 L2931.36 691.69 L2931.48 691.93 L2935.37 690.87 L2939.85 690.28 L2955.52 688.39 L2960.12 688.04 L2961.18 687.92 L2961.41 687.68 L2961.77 687.57 L2962.36 687.33 L2964.36 686.98 L2967.89 686.74 L2971.31 686.51 L2976.14 685.92 L2989.58 684.38 L2996.53 683.44 L3004.31 682.50 L3008.32 682.15 L3017.39 680.97 L3027.88 679.67 L3033.77 678.85 L3040.25 678.26 L3047.91 677.31 L3059.93 675.90 L3074.54 674.01 L3084.44 672.72 L3102.35 670.72 L3112.61 669.42 L3119.91 668.48 L3132.40 667.18 L3144.07 665.77 L3154.09 664.47 L3171.41 662.35 L3195.22 659.40 L3207.94 657.99 L3221.26 656.10 L3236.70 654.10 L3239.76 653.51 L3245.42 653.04 L3273.23 649.62 L3303.40 646.21 L3304.93 645.97 L3297.15 569.85 L3354.54 564.08 L3358.43 605.32 L3413.23 598.37 L3412.40 589.88 L3420.65 587.52 L3440.33 581.63 L3484.40 577.27 L3529.07 571.15 L3534.13 613.45 L3534.96 620.40 L3543.21 699.11 L3543.80 704.53 L3545.09 716.91 L3546.15 726.10 L3546.98 733.17 L3547.45 737.41 L3547.80 740.47 L3548.04 742.95 L3548.16 744.48 L3549.57 757.80 L3550.16 763.69 L3554.76 809.76 L3556.29 825.20 L3556.41 826.26 L3559.00 852.30 L3559.35 856.78 L3559.71 859.60 L3560.65 868.32 L3561.59 877.28 L3561.83 880.58 L3562.65 885.88 L3563.24 890.83 L3563.71 893.54 L3564.54 899.79 L3564.77 902.61 L3568.07 934.43 L3568.54 938.91 L3568.90 940.79 L3569.49 945.98 L3571.25 961.41 L3571.73 965.42 L3575.26 997.35 L3576.09 1003.13 L3576.79 1010.79 L3577.15 1013.85 L3579.03 1033.88 L3582.45 1066.76 L3583.39 1075.01 L3585.28 1092.09 L3588.70 1091.27 L3603.66 1086.67 L3616.15 1082.78 L3622.75 1080.54 L3635.24 1076.66 L3640.55 1075.01 L3642.90 1108.94 L3591.41 1113.66 L3587.64 1114.01 L3589.40 1133.10 L3589.99 1138.05 L3590.35 1141.11 L3592.11 1157.73 L3592.94 1158.91 L3594.47 1173.40 L3594.59 1174.69 L3594.94 1178.11 L3595.06 1179.17 L3595.06 1179.17 Z" stroke-linejoin="round"/>
	</defs>
	<use xlink:href="#path_MQwkLgqT" style="fill:#6BACAF;stroke:#6BB4D2;stroke-width:5.76"/>
	<defs>
		<path id="path_qmKvzUah" d="M2585.73 1293.94 L2585.73 1293.94 L2585.49 1294.42 L2584.20 1295.12 L2581.96 1295.48 L2575.59 1296.18 L2576.06 1278.39 L2561.45 1280.39 L2553.67 1281.22 L2552.38 1268.61 L2538.59 1270.38 L2531.17 1271.32 L2523.03 1272.14 L2519.97 1273.20 L2514.08 1274.03 L2510.66 1274.03 L2508.89 1274.62 L2499.94 1275.56 L2481.91 1277.68 L2466.94 1279.33 L2451.39 1281.34 L2439.13 1282.51 L2437.36 1285.70 L2436.66 1286.28 L2435.83 1279.33 L2435.12 1279.69 L2430.53 1282.75 L2428.88 1283.34 L2427.58 1283.81 L2425.11 1284.52 L2421.69 1285.11 L2420.51 1285.34 L2419.21 1285.46 L2409.43 1286.76 L2397.65 1288.17 L2393.41 1288.76 L2385.16 1289.82 L2378.68 1290.64 L2371.02 1291.59 L2364.89 1292.41 L2362.89 1292.65 L2361.47 1292.88 L2356.88 1293.35 L2355.93 1294.06 L2354.05 1294.42 L2350.63 1294.89 L2336.25 1296.77 L2327.06 1297.95 L2322.11 1298.54 L2320.46 1298.66 L2307.73 1300.42 L2293.12 1302.19 L2278.74 1304.08 L2274.97 1304.43 L2273.80 1303.96 L2272.97 1304.08 L2263.90 1305.14 L2252.11 1306.79 L2248.81 1307.14 L2229.13 1309.62 L2218.06 1311.03 L2215.82 1311.38 L2211.46 1311.85 L2206.51 1312.56 L2201.20 1313.15 L2195.78 1313.86 L2191.78 1314.33 L2177.28 1316.10 L2168.44 1317.16 L2167.03 1318.34 L2165.85 1318.57 L2163.26 1318.81 L2159.25 1319.28 L2155.48 1319.63 L2151.36 1320.22 L2151.12 1318.22 L2149.47 1318.45 L2148.29 1318.57 L2145.46 1319.04 L2131.44 1320.93 L2110.11 1323.64 L2108.34 1323.87 L2091.26 1325.88 L2084.54 1326.58 L2072.28 1327.88 L2067.69 1328.47 L2064.62 1328.82 L2060.85 1329.29 L2056.02 1329.88 L2051.66 1330.47 L2050.83 1330.59 L2042.35 1331.65 L2039.52 1332.00 L2029.51 1333.18 L2024.91 1334.01 L2023.85 1334.83 L2019.25 1335.42 L2015.84 1335.78 L2014.77 1335.89 L2013.83 1336.01 L2005.58 1336.95 L1999.45 1337.66 L1995.57 1338.13 L1992.27 1338.37 L1990.15 1338.60 L1989.20 1339.31 L1980.25 1340.61 L1977.30 1341.08 L1977.18 1339.55 L1970.58 1340.37 L1961.86 1341.67 L1959.39 1341.90 L1956.44 1342.26 L1953.73 1342.61 L1948.08 1343.43 L1943.48 1344.14 L1934.64 1345.32 L1933.58 1345.56 L1927.57 1346.26 L1926.39 1346.38 L1905.77 1348.50 L1895.99 1349.68 L1890.21 1350.27 L1887.97 1350.50 L1884.44 1350.86 L1883.26 1350.98 L1879.14 1351.33 L1877.25 1351.56 L1879.14 1353.21 L1869.36 1354.16 L1849.09 1355.92 L1848.85 1354.16 L1844.14 1354.75 L1844.25 1356.40 L1838.95 1356.99 L1838.36 1355.22 L1836.48 1355.45 L1822.92 1356.75 L1806.43 1358.40 L1802.07 1358.87 L1799.95 1358.99 L1788.99 1360.05 L1773.78 1361.46 L1766.60 1362.17 L1731.36 1365.59 L1724.17 1366.29 L1723.46 1359.70 L1723.23 1357.81 L1722.76 1353.45 L1722.52 1351.21 L1722.29 1348.62 L1722.17 1347.32 L1721.82 1344.38 L1721.23 1340.25 L1720.75 1336.13 L1720.52 1334.83 L1720.28 1332.83 L1719.69 1327.29 L1719.46 1325.17 L1718.87 1320.93 L1718.75 1319.87 L1718.28 1315.27 L1717.22 1306.55 L1716.51 1300.90 L1716.16 1298.30 L1715.45 1292.41 L1714.16 1281.69 L1714.04 1281.10 L1713.33 1274.74 L1712.51 1267.90 L1711.68 1261.30 L1711.21 1256.83 L1711.09 1256.00 L1709.91 1245.75 L1709.21 1237.85 L1709.09 1236.20 L1708.03 1226.19 L1707.56 1221.48 L1707.20 1217.47 L1706.97 1215.47 L1706.38 1209.81 L1704.02 1188.84 L1703.67 1185.65 L1703.20 1180.82 L1702.72 1174.69 L1700.96 1156.55 L1700.49 1152.42 L1700.37 1150.54 L1699.90 1146.18 L1699.31 1140.29 L1698.95 1137.58 L1698.25 1136.40 L1696.95 1128.15 L1696.60 1125.32 L1696.24 1123.08 L1695.54 1117.78 L1695.30 1115.19 L1694.95 1111.54 L1694.24 1104.58 L1693.65 1099.75 L1692.94 1093.04 L1692.24 1086.44 L1692.71 1085.14 L1689.64 1056.04 L1689.05 1050.14 L1688.70 1046.61 L1687.99 1040.48 L1687.52 1036.00 L1687.17 1033.18 L1685.52 1018.21 L1684.81 1010.79 L1683.28 996.29 L1681.98 983.45 L1681.63 980.27 L1680.92 972.84 L1680.69 970.84 L1679.86 963.54 L1679.04 955.52 L1677.86 944.21 L1677.39 940.44 L1677.03 937.38 L1674.44 915.22 L1673.85 909.68 L1673.26 904.50 L1672.44 896.96 L1671.73 890.48 L1670.91 882.35 L1667.96 854.30 L1667.37 849.35 L1666.78 843.46 L1666.55 841.22 L1665.49 830.62 L1664.90 825.31 L1663.72 814.47 L1659.71 778.06 L1659.12 772.29 L1658.30 764.63 L1657.47 756.62 L1656.88 751.43 L1653.70 722.68 L1653.58 721.15 L1653.11 717.38 L1652.99 716.08 L1652.17 709.25 L1651.34 701.35 L1650.64 694.87 L1649.81 686.74 L1646.75 659.87 L1646.16 654.45 L1645.45 648.21 L1645.10 644.79 L1643.92 634.66 L1644.39 633.36 L1644.39 633.01 L1643.80 627.59 L1643.57 626.29 L1643.45 624.76 L1643.10 620.87 L1642.62 616.39 L1642.51 614.98 L1641.92 610.27 L1640.62 610.38 L1624.12 612.15 L1591.24 608.97 L1587.24 608.85 L1582.64 583.52 L1589.71 582.58 L1605.62 581.16 L1608.21 580.93 L1609.27 580.10 L1609.27 580.10 L1620.00 578.80 L1621.65 578.69 L1636.61 577.04 L1635.32 562.90 L1635.32 562.66 L1636.02 561.01 L1634.73 549.82 L1632.96 532.61 L1631.66 520.36 L1631.19 515.29 L1629.78 502.21 L1629.31 498.56 L1627.42 481.83 L1626.24 470.99 L1624.95 458.97 L1624.59 456.02 L1623.77 450.01 L1623.42 445.77 L1622.94 441.17 L1649.93 438.23 L1652.99 437.99 L1655.82 437.64 L1658.53 437.28 L1660.65 436.81 L1662.19 436.46 L1663.36 435.99 L1665.01 435.52 L1667.37 434.57 L1668.90 433.87 L1670.20 433.28 L1672.44 431.98 L1675.03 430.33 L1677.03 428.92 L1678.92 427.27 L1680.57 425.62 L1681.87 424.32 L1684.34 421.38 L1685.75 419.61 L1687.64 417.02 L1691.53 411.48 L1694.36 407.47 L1696.13 405.00 L1699.54 400.05 L1700.25 399.11 L1697.42 398.05 L1690.12 391.45 L1689.05 390.50 L1686.70 388.38 L1685.87 387.56 L1679.86 382.02 L1675.15 377.78 L1673.03 375.89 L1669.73 372.83 L1666.31 369.77 L1657.94 362.11 L1653.70 358.10 L1645.22 350.44 L1644.04 349.38 L1642.86 348.32 L1641.56 347.14 L1636.14 342.07 L1632.25 338.66 L1622.00 329.35 L1620.94 328.41 L1620.12 327.58 L1616.93 324.63 L1611.98 320.16 L1609.04 317.33 L1607.51 315.92 L1598.79 308.26 L1596.31 306.02 L1594.31 304.13 L1591.36 301.30 L1590.30 300.24 L1588.89 298.83 L1585.35 294.94 L1582.05 291.17 L1580.40 289.28 L1581.23 287.63 L1581.93 286.10 L1582.88 284.92 L1583.47 284.10 L1584.88 282.10 L1590.89 273.97 L1596.08 266.78 L1598.79 262.54 L1599.26 261.83 L1599.96 261.24 L1600.79 260.77 L1603.50 260.53 L1603.26 257.82 L1601.38 239.91 L1600.55 232.49 L1599.61 223.53 L1598.20 210.69 L1597.84 208.80 L1595.13 183.94 L1594.31 176.16 L1607.51 186.41 L1611.98 189.71 L1624.83 169.45 L1623.18 167.56 L1620.23 166.38 L1620.47 164.85 L1617.41 163.20 L1613.05 159.78 L1608.80 156.60 L1606.80 154.95 L1606.33 154.36 L1605.97 153.66 L1605.74 153.07 L1605.62 152.24 L1605.39 150.24 L1591.72 151.42 L1589.83 135.39 L1595.02 134.80 L1605.86 133.62 L1604.09 116.66 L1597.02 117.36 L1588.18 118.19 L1588.65 107.23 L1588.53 89.91 L1588.65 82.84 L1589.01 78.01 L1589.83 75.18 L1590.07 74.71 L1590.65 73.76 L1591.60 72.47 L1592.78 71.29 L1593.13 70.94 L1593.84 70.35 L1595.13 69.64 L1596.31 69.05 L1598.43 68.58 L1604.91 68.11 L1622.71 66.81 L1628.84 66.46 L1631.66 66.22 L1642.51 65.40 L1646.75 65.16 L1654.29 64.93 L1655.59 64.81 L1656.77 64.69 L1657.47 64.46 L1658.06 64.22 L1664.54 61.04 L1666.78 59.86 L1667.96 59.51 L1669.02 59.27 L1670.08 59.04 L1671.61 59.04 L1673.85 59.04 L1680.92 59.62 L1685.87 60.10 L1690.35 60.80 L1698.01 61.98 L1700.37 62.10 L1702.49 61.98 L1705.32 61.63 L1709.09 60.68 L1712.86 59.98 L1718.87 58.33 L1731.12 55.62 L1737.96 53.85 L1739.61 53.38 L1751.04 50.20 L1759.05 47.96 L1759.76 47.72 L1768.36 45.25 L1774.49 42.89 L1778.38 41.24 L1781.33 39.36 L1784.39 37.59 L1788.51 35.23 L1790.52 33.70 L1791.46 32.40 L1792.05 30.28 L1799.71 29.58 L1806.31 28.99 L1806.90 28.87 L1809.96 28.52 L1813.38 28.28 L1814.09 28.75 L1814.32 30.40 L1814.56 33.35 L1815.85 45.13 L1817.62 61.39 L1818.68 72.11 L1818.80 73.18 L1823.75 119.60 L1824.93 130.56 L1825.75 137.98 L1825.99 140.34 L1826.93 149.18 L1828.93 168.15 L1830.35 181.47 L1830.58 183.35 L1831.76 193.48 L1833.77 213.40 L1825.52 214.22 L1826.58 227.42 L1795.35 230.13 L1766.71 232.61 L1758.82 242.15 L1758.94 233.31 L1755.75 233.55 L1726.41 242.39 L1720.64 221.65 L1718.87 221.88 L1716.75 222.24 L1710.15 222.94 L1709.56 223.06 L1700.01 226.48 L1697.07 226.60 L1694.59 226.01 L1694.12 225.89 L1691.18 224.12 L1675.27 211.63 L1673.85 210.34 L1672.91 208.92 L1671.85 207.04 L1671.14 205.50 L1670.20 202.32 L1669.96 200.20 L1669.96 198.67 L1669.96 196.55 L1670.44 193.01 L1671.50 185.71 L1671.50 184.18 L1671.50 183.00 L1657.71 184.53 L1655.23 184.76 L1657.35 209.04 L1664.31 214.69 L1658.89 225.54 L1660.65 226.95 L1665.96 231.07 L1685.52 246.16 L1718.28 271.26 L1722.88 274.79 L1755.05 299.89 L1756.93 301.30 L1783.33 321.81 L1787.10 324.40 L1796.53 332.06 L1815.97 346.79 L1835.30 361.52 L1851.33 374.01 L1851.91 378.84 L1853.09 388.03 L1854.74 404.29 L1855.45 410.77 L1856.75 423.38 L1858.40 439.52 L1859.81 452.25 L1860.16 455.67 L1861.93 471.57 L1863.35 485.36 L1863.58 487.84 L1864.64 498.79 L1867.23 498.56 L1868.18 498.44 L1885.50 496.67 L1891.98 495.73 L1898.82 543.34 L1898.93 545.22 L1899.41 549.58 L1891.27 550.64 L1886.68 551.23 L1881.02 551.82 L1877.37 552.41 L1870.77 553.71 L1871.83 562.54 L1872.77 572.09 L1872.42 573.03 L1872.42 573.74 L1873.24 579.86 L1873.36 581.51 L1873.48 581.99 L1874.07 582.69 L1874.42 586.82 L1875.13 594.12 L1876.66 609.09 L1877.13 613.68 L1877.25 614.63 L1879.02 631.48 L1880.08 641.61 L1876.07 642.08 L1875.13 642.20 L1874.54 642.20 L1874.07 642.20 L1873.48 642.08 L1872.77 641.73 L1871.12 640.55 L1873.13 636.54 L1873.24 635.95 L1873.36 635.13 L1873.36 634.42 L1873.36 633.83 L1873.24 633.36 L1872.77 632.18 L1872.42 631.01 L1872.07 629.47 L1871.95 627.47 L1871.83 625.82 L1871.48 623.70 L1870.77 620.87 L1870.53 620.16 L1869.94 619.34 L1868.29 618.51 L1869.24 616.63 L1869.71 615.45 L1870.42 615.57 L1872.42 615.22 L1867.23 571.85 L1865.47 555.36 L1865.94 555.00 L1866.41 554.65 L1866.53 554.41 L1866.64 554.06 L1866.76 553.59 L1866.88 553.23 L1866.88 552.76 L1866.88 552.17 L1866.76 551.47 L1866.64 550.88 L1866.53 550.05 L1866.29 549.46 L1865.94 548.64 L1864.76 547.58 L1863.46 546.52 L1860.40 543.93 L1858.04 541.80 L1856.75 538.98 L1848.03 531.08 L1845.90 529.55 L1845.79 529.55 L1844.25 529.08 L1837.42 522.95 L1836.01 521.65 L1829.76 516.00 L1825.99 512.58 L1819.63 507.16 L1818.68 506.34 L1815.85 503.86 L1814.09 502.33 L1813.26 501.62 L1811.73 500.21 L1805.84 494.79 L1805.84 496.56 L1806.07 500.80 L1806.66 506.81 L1822.92 520.83 L1826.70 524.48 L1820.69 532.14 L1823.40 534.85 L1826.81 538.27 L1835.77 545.81 L1836.48 546.40 L1837.18 547.22 L1837.54 547.81 L1837.77 548.05 L1837.89 548.64 L1838.24 550.52 L1839.07 558.18 L1829.64 559.13 L1822.57 559.83 L1825.16 590.12 L1826.22 602.25 L1824.81 602.37 L1821.98 602.61 L1816.44 603.08 L1816.91 611.56 L1818.80 631.12 L1820.45 649.62 L1829.52 733.64 L1830.82 749.55 L1840.25 819.19 L1841.43 824.73 L1845.20 862.31 L1847.32 882.23 L1848.03 889.65 L1852.15 928.77 L1853.33 942.44 L1853.56 943.86 L1853.92 946.10 L1854.27 949.04 L1854.86 955.17 L1855.57 955.17 L1871.95 953.52 L1888.56 951.75 L1904.83 949.98 L1912.37 948.92 L1914.37 948.69 L1921.44 947.63 L1933.93 945.86 L1935.11 943.27 L1944.54 925.59 L1964.57 890.01 L1974.00 872.57 L1976.59 868.56 L1982.49 857.72 L1981.54 844.52 L1978.36 808.58 L1988.97 807.17 L1997.81 806.11 L2013.12 803.99 L2018.07 803.40 L2024.32 802.69 L2030.80 801.63 L2045.30 799.74 L2060.73 797.62 L2061.79 796.80 L2068.28 796.09 L2077.59 794.91 L2087.25 793.62 L2090.31 793.03 L2091.96 792.79 L2098.68 792.09 L2101.51 791.73 L2105.87 791.26 L2112.94 790.20 L2114.00 790.08 L2116.71 789.85 L2130.38 771.82 L2132.26 773.23 L2134.03 774.76 L2141.46 780.77 L2147.58 786.31 L2156.07 785.13 L2161.14 784.19 L2165.50 783.60 L2166.91 783.37 L2182.23 781.36 L2186.36 781.01 L2189.07 780.66 L2190.13 780.54 L2190.83 780.42 L2192.84 780.18 L2200.73 779.24 L2206.03 778.53 L2209.57 778.18 L2221.24 776.65 L2228.66 775.82 L2229.49 775.71 L2230.08 775.71 L2235.97 775.00 L2237.03 774.88 L2245.63 773.82 L2249.17 773.35 L2264.13 771.46 L2277.33 770.17 L2278.63 770.17 L2280.28 769.93 L2294.18 768.52 L2308.56 766.75 L2323.17 764.98 L2337.67 763.10 L2351.22 761.57 L2352.04 761.57 L2366.42 759.80 L2367.60 759.68 L2374.91 758.86 L2380.80 758.03 L2382.33 757.91 L2388.57 757.32 L2395.29 756.62 L2409.90 754.73 L2424.52 753.08 L2438.66 751.20 L2453.15 749.19 L2467.53 747.19 L2482.14 746.13 L2496.76 744.24 L2513.25 742.36 L2519.50 741.42 L2522.92 740.95 L2526.10 740.59 L2529.87 740.24 L2541.77 738.82 L2542.60 738.71 L2543.42 738.47 L2543.89 738.35 L2544.36 737.88 L2545.90 736.94 L2546.49 736.70 L2547.07 736.47 L2547.55 736.23 L2548.02 736.11 L2552.85 735.17 L2590.21 730.10 L2596.22 729.75 L2607.76 729.04 L2610.00 728.69 L2613.89 727.87 L2616.13 726.69 L2618.37 725.74 L2622.14 724.68 L2622.26 734.35 L2626.27 734.23 L2652.07 732.11 L2653.84 722.56 L2654.55 718.44 L2654.55 711.96 L2653.84 704.18 L2651.84 695.93 L2651.01 689.69 L2651.01 685.09 L2652.31 678.96 L2653.49 672.84 L2653.37 669.77 L2661.85 677.55 L2663.86 679.67 L2669.63 680.38 L2667.75 683.56 L2668.81 723.62 L2667.39 731.16 L2629.09 928.42 L2635.34 928.54 L2634.51 946.45 L2634.51 955.64 L2634.99 958.00 L2634.63 960.12 L2634.63 972.25 L2634.51 978.03 L2635.46 984.86 L2635.69 986.63 L2637.58 996.06 L2640.64 1003.25 L2641.11 1004.54 L2641.35 1005.37 L2641.70 1007.25 L2641.94 1008.67 L2642.06 1010.20 L2641.94 1011.61 L2638.88 1027.05 L2632.98 1060.16 L2632.75 1061.34 L2632.51 1062.63 L2632.16 1064.52 L2632.51 1065.23 L2632.75 1065.93 L2635.34 1067.11 L2635.58 1067.23 L2636.40 1069.35 L2636.52 1070.65 L2635.93 1075.24 L2635.93 1075.36 L2632.51 1094.21 L2628.98 1111.65 L2628.62 1113.42 L2626.97 1116.60 L2626.15 1117.90 L2624.62 1119.90 L2622.38 1123.91 L2620.49 1130.04 L2620.14 1132.98 L2618.49 1141.70 L2616.96 1149.83 L2615.54 1158.20 L2613.66 1167.74 L2611.77 1178.23 L2610.71 1183.77 L2610.36 1185.42 L2610.00 1186.71 L2609.77 1187.54 L2604.58 1188.36 L2601.05 1188.84 L2597.75 1189.07 L2594.92 1189.31 L2593.51 1189.42 L2590.79 1189.31 L2590.79 1206.16 L2590.68 1207.69 L2590.68 1209.34 L2590.68 1211.11 L2590.79 1213.58 L2591.03 1222.65 L2582.90 1222.30 L2577.60 1221.95 L2576.89 1240.68 L2583.37 1241.04 L2589.50 1241.27 L2590.91 1241.27 L2592.21 1241.15 L2598.69 1240.56 L2598.81 1242.57 L2598.81 1245.16 L2599.04 1250.82 L2599.16 1254.35 L2599.16 1257.89 L2599.04 1261.19 L2598.69 1265.90 L2597.39 1273.91 L2596.57 1278.63 L2595.27 1286.05 L2594.57 1292.53 L2585.73 1293.94 L2585.73 1293.94 Z" stroke-linejoin="round"/>
	</defs>
	<use xlink:href="#path_qmKvzUah" style="fill:#09757A;stroke:#097D9B;stroke-width:5.76"/>
	<defs>
		<path id="path_XyNyiKfh" d="M1341.89 2103.00 L1341.89 2103.00 L1340.94 2104.41 L1340.24 2106.53 L1339.41 2108.89 L1338.82 2111.25 L1338.35 2113.25 L1337.76 2115.72 L1337.53 2117.96 L1337.29 2119.97 L1337.29 2121.85 L1337.17 2123.50 L1337.06 2124.80 L1337.06 2126.33 L1337.06 2127.39 L1337.17 2129.04 L1337.88 2136.70 L1337.76 2149.78 L1336.94 2143.53 L1333.40 2114.31 L1332.58 2105.94 L1329.98 2083.44 L1328.69 2072.24 L1327.16 2061.05 L1326.80 2057.28 L1326.57 2053.51 L1325.86 2048.91 L1325.62 2047.38 L1324.80 2039.60 L1321.97 2008.49 L1319.03 1980.92 L1318.67 1977.50 L1317.02 1962.07 L1316.20 1955.35 L1315.14 1945.22 L1314.43 1939.21 L1311.95 1915.52 L1310.89 1906.21 L1309.60 1893.25 L1309.24 1889.72 L1308.77 1885.12 L1307.48 1872.87 L1305.83 1857.31 L1305.00 1849.65 L1304.41 1844.23 L1304.06 1841.05 L1300.76 1811.24 L1296.99 1776.60 L1296.63 1772.94 L1295.57 1763.16 L1293.92 1750.44 L1292.75 1738.89 L1291.92 1731.70 L1291.45 1727.69 L1290.86 1722.74 L1290.51 1718.15 L1290.27 1715.32 L1290.15 1713.79 L1290.04 1712.49 L1289.92 1709.78 L1289.80 1706.37 L1289.68 1704.13 L1289.68 1701.77 L1289.80 1700.47 L1289.80 1698.71 L1289.80 1697.41 L1290.51 1684.80 L1290.51 1684.68 L1290.74 1679.73 L1290.86 1676.67 L1291.10 1674.43 L1291.33 1670.31 L1291.80 1665.71 L1292.16 1662.53 L1292.39 1659.70 L1292.86 1656.52 L1293.45 1651.69 L1294.28 1646.86 L1294.98 1642.26 L1295.57 1638.49 L1296.16 1635.31 L1296.75 1632.48 L1297.34 1629.54 L1297.93 1626.36 L1298.28 1624.71 L1298.76 1623.29 L1299.70 1619.52 L1301.11 1614.57 L1302.64 1609.03 L1303.35 1606.68 L1304.29 1603.73 L1305.36 1600.43 L1307.36 1594.78 L1307.59 1593.95 L1308.77 1590.30 L1311.01 1584.05 L1313.02 1578.63 L1315.25 1572.51 L1316.08 1570.27 L1316.90 1567.91 L1318.55 1563.67 L1321.85 1554.36 L1325.27 1545.29 L1328.10 1537.74 L1328.69 1535.98 L1332.11 1526.55 L1335.17 1517.95 L1335.41 1517.36 L1338.70 1508.17 L1342.12 1498.86 L1345.54 1489.79 L1347.43 1484.60 L1348.84 1480.59 L1349.78 1478.12 L1350.73 1475.41 L1351.67 1473.05 L1352.37 1471.05 L1355.32 1462.92 L1357.80 1455.61 L1360.15 1451.72 L1361.68 1448.07 L1362.63 1445.95 L1364.04 1443.48 L1365.57 1441.12 L1367.46 1438.53 L1369.82 1435.93 L1370.88 1434.64 L1373.23 1432.28 L1378.18 1427.21 L1379.71 1425.45 L1380.89 1423.92 L1381.72 1422.62 L1382.54 1421.21 L1383.13 1419.67 L1383.96 1417.67 L1384.19 1416.37 L1384.78 1413.19 L1385.84 1405.65 L1386.31 1401.88 L1386.67 1400.00 L1389.50 1399.64 L1391.97 1399.41 L1404.93 1397.87 L1414.24 1396.93 L1422.37 1396.11 L1426.03 1395.75 L1432.04 1395.28 L1433.22 1395.16 L1431.68 1379.02 L1429.92 1361.46 L1429.44 1355.81 L1427.91 1336.84 L1425.79 1317.04 L1424.02 1299.72 L1424.14 1298.19 L1424.14 1297.36 L1424.02 1296.30 L1423.79 1295.71 L1423.43 1295.12 L1422.96 1294.65 L1420.84 1293.12 L1425.67 1279.33 L1429.68 1268.37 L1431.33 1264.37 L1438.64 1243.75 L1445.35 1225.25 L1448.42 1217.00 L1449.01 1214.88 L1451.36 1207.57 L1451.95 1206.04 L1453.96 1199.56 L1455.84 1192.84 L1457.37 1186.95 L1458.32 1182.83 L1459.14 1179.41 L1460.08 1174.69 L1461.03 1170.34 L1461.50 1167.39 L1462.44 1162.09 L1463.74 1152.19 L1464.56 1142.76 L1464.68 1141.58 L1464.80 1140.52 L1465.15 1138.64 L1465.39 1137.69 L1466.09 1135.81 L1466.68 1134.75 L1467.39 1133.92 L1468.10 1133.22 L1469.04 1132.51 L1470.10 1131.92 L1471.51 1131.45 L1473.87 1131.10 L1478.70 1130.74 L1481.77 1130.39 L1488.60 1129.68 L1493.20 1129.33 L1495.08 1128.98 L1495.67 1128.74 L1496.14 1128.15 L1496.62 1127.68 L1496.73 1127.21 L1496.97 1126.38 L1496.97 1125.32 L1496.73 1123.44 L1480.71 1124.85 L1474.70 1125.32 L1467.51 1126.15 L1462.79 1126.62 L1462.91 1123.55 L1463.15 1115.78 L1463.27 1108.00 L1463.15 1103.88 L1463.03 1099.99 L1462.68 1094.21 L1462.56 1091.39 L1461.85 1081.13 L1460.32 1066.99 L1458.91 1054.86 L1456.67 1035.53 L1455.02 1020.33 L1452.90 1001.83 L1451.48 989.22 L1449.48 970.61 L1443.94 922.41 L1440.76 893.54 L1440.29 889.77 L1437.69 866.09 L1436.87 859.60 L1436.16 853.12 L1433.22 853.36 L1429.33 853.71 L1427.21 834.86 L1422.73 792.79 L1416.95 771.58 L1416.72 773.23 L1415.42 777.71 L1413.42 783.37 L1409.29 794.09 L1408.11 797.51 L1406.70 799.16 L1404.82 800.57 L1403.99 801.39 L1398.45 816.12 L1396.92 818.95 L1394.09 830.15 L1392.44 840.16 L1392.32 841.81 L1392.68 845.11 L1392.91 848.65 L1391.73 853.48 L1391.15 857.13 L1390.56 861.14 L1390.08 870.56 L1389.85 875.51 L1390.08 887.53 L1390.67 891.77 L1391.62 894.96 L1393.03 898.37 L1396.09 904.15 L1400.57 910.27 L1401.99 912.39 L1403.52 915.22 L1405.64 920.29 L1408.35 927.83 L1409.53 932.66 L1410.24 936.90 L1411.89 941.50 L1413.06 946.57 L1414.95 953.75 L1416.36 960.00 L1417.90 970.96 L1419.07 976.14 L1419.90 980.86 L1420.49 993.11 L1420.61 996.41 L1420.02 1000.30 L1419.19 1004.90 L1417.90 1008.90 L1416.25 1012.08 L1415.19 1013.85 L1410.94 1019.51 L1408.23 1024.46 L1407.29 1028.70 L1406.47 1034.00 L1406.35 1038.48 L1406.94 1043.43 L1407.64 1047.67 L1411.41 1057.45 L1415.07 1064.64 L1417.66 1069.12 L1430.27 1087.97 L1431.57 1089.97 L1433.33 1092.92 L1435.57 1097.63 L1429.56 1098.46 L1342.95 1103.17 L1342.24 1103.29 L1339.77 1081.49 L1339.53 1079.13 L1338.94 1078.19 L1338.59 1075.24 L1338.23 1072.89 L1320.09 1074.65 L1322.91 1083.61 L1306.42 1085.14 L1293.57 1086.32 L1289.92 1086.67 L1288.74 1077.72 L1280.73 1078.66 L1265.52 1081.13 L1264.93 1081.13 L1260.10 1081.61 L1243.49 1083.26 L1231.23 1084.55 L1223.93 1085.14 L1223.10 1085.26 L1221.80 1085.49 L1219.80 1065.58 L1218.62 1054.86 L1216.38 1034.47 L1216.15 1032.47 L1215.20 1024.10 L1214.62 1018.68 L1215.79 1018.56 L1216.85 1018.45 L1224.04 1017.74 L1253.39 1014.79 L1262.22 1014.32 L1267.65 1013.50 L1272.01 1013.26 L1277.90 1012.79 L1280.25 1012.67 L1280.25 1011.85 L1277.19 985.69 L1275.54 970.02 L1273.77 954.46 L1273.18 948.22 L1272.59 942.68 L1272.12 937.49 L1276.01 936.55 L1277.66 936.20 L1279.43 935.14 L1280.37 934.31 L1281.08 933.37 L1283.08 935.37 L1284.97 936.67 L1286.26 937.14 L1288.62 937.38 L1307.12 935.25 L1308.77 934.78 L1310.42 933.61 L1311.37 932.66 L1311.72 932.07 L1312.66 930.31 L1313.13 928.07 L1313.25 926.89 L1312.90 919.70 L1320.91 918.76 L1321.50 918.76 L1322.68 918.52 L1324.45 934.90 L1325.04 939.85 L1350.96 937.14 L1405.05 937.73 L1404.46 935.61 L1400.22 924.41 L1398.69 920.05 L1394.45 911.45 L1392.32 907.92 L1389.38 902.50 L1387.26 897.19 L1384.90 889.65 L1383.60 874.92 L1383.72 871.51 L1383.84 867.38 L1385.14 857.37 L1387.49 839.93 L1387.85 836.27 L1388.91 828.26 L1391.62 812.00 L1395.15 803.52 L1395.98 802.69 L1396.92 802.10 L1398.69 800.10 L1406.11 787.14 L1409.41 779.01 L1412.00 769.81 L1413.06 765.22 L1413.06 762.39 L1412.95 757.09 L1412.59 754.02 L1412.59 752.38 L1413.06 751.43 L1413.42 749.90 L1412.48 746.95 L1410.59 743.42 L1408.59 740.71 L1402.58 735.88 L1399.75 733.52 L1397.16 731.16 L1391.85 727.39 L1387.37 724.68 L1381.84 722.68 L1378.42 720.44 L1376.53 718.91 L1379.71 716.44 L1385.37 715.85 L1383.13 714.31 L1379.95 712.55 L1377.83 711.60 L1370.52 705.36 L1379.95 694.52 L1411.18 686.39 L1414.24 685.09 L1416.95 684.74 L1416.25 678.14 L1415.19 668.01 L1408.00 604.14 L1407.88 603.67 L1407.76 602.25 L1407.64 600.84 L1411.53 600.49 L1414.13 600.25 L1419.66 599.66 L1425.56 599.07 L1428.74 598.84 L1428.38 594.83 L1427.32 581.75 L1425.67 564.43 L1421.90 531.91 L1420.37 517.29 L1420.25 514.00 L1420.49 511.99 L1420.96 509.87 L1421.67 508.22 L1424.26 502.09 L1426.62 496.67 L1428.86 490.90 L1431.45 484.42 L1434.28 476.17 L1436.99 469.93 L1437.22 469.22 L1438.64 465.57 L1418.01 467.80 L1414.83 467.80 L1408.00 468.39 L1404.46 468.98 L1405.17 464.98 L1406.70 458.26 L1408.47 451.66 L1410.35 445.06 L1412.36 438.46 L1414.60 431.98 L1416.95 425.62 L1419.55 419.37 L1422.37 413.13 L1425.32 407.12 L1428.38 401.11 L1431.68 395.34 L1433.10 392.74 L1433.22 392.63 L1433.69 391.80 L1435.69 388.62 L1437.58 385.67 L1439.70 382.37 L1443.11 377.31 L1445.47 373.89 L1447.95 370.12 L1451.01 365.76 L1453.48 361.99 L1455.84 358.57 L1460.79 351.27 L1465.39 344.78 L1468.22 340.78 L1469.51 338.66 L1470.69 337.13 L1471.75 335.48 L1475.99 329.23 L1483.77 317.80 L1491.67 306.49 L1507.34 283.51 L1527.37 254.52 L1528.43 252.76 L1529.14 251.93 L1534.91 243.56 L1536.92 240.74 L1544.22 230.13 L1551.41 219.41 L1555.54 212.34 L1558.84 206.68 L1561.55 201.50 L1563.08 198.55 L1564.14 196.43 L1567.20 189.60 L1568.15 187.36 L1568.38 186.65 L1569.56 183.59 L1571.92 177.69 L1573.69 172.27 L1573.92 171.92 L1575.69 166.03 L1576.63 162.49 L1594.31 176.16 L1595.13 183.94 L1597.84 208.80 L1598.20 210.69 L1599.61 223.53 L1600.55 232.49 L1601.38 239.91 L1603.26 257.82 L1603.50 260.53 L1600.79 260.77 L1599.96 261.24 L1599.26 261.83 L1598.79 262.54 L1596.08 266.78 L1590.89 273.97 L1584.88 282.10 L1583.47 284.10 L1582.88 284.92 L1581.93 286.10 L1581.23 287.63 L1580.40 289.28 L1582.05 291.17 L1585.35 294.94 L1588.89 298.83 L1590.30 300.24 L1591.36 301.30 L1594.31 304.13 L1596.31 306.02 L1598.79 308.26 L1607.51 315.92 L1609.04 317.33 L1611.98 320.16 L1616.93 324.63 L1620.12 327.58 L1620.94 328.41 L1622.00 329.35 L1632.25 338.66 L1636.14 342.07 L1641.56 347.14 L1642.86 348.32 L1644.04 349.38 L1645.22 350.44 L1653.70 358.10 L1657.94 362.11 L1666.31 369.77 L1669.73 372.83 L1673.03 375.89 L1675.15 377.78 L1679.86 382.02 L1685.87 387.56 L1686.70 388.38 L1689.05 390.50 L1690.12 391.45 L1697.42 398.05 L1700.25 399.11 L1699.54 400.05 L1696.13 405.00 L1694.36 407.47 L1691.53 411.48 L1687.64 417.02 L1685.75 419.61 L1684.34 421.38 L1681.87 424.32 L1680.57 425.62 L1678.92 427.27 L1677.03 428.92 L1675.03 430.33 L1672.44 431.98 L1670.20 433.28 L1668.90 433.87 L1667.37 434.57 L1665.01 435.52 L1663.36 435.99 L1662.19 436.46 L1660.65 436.81 L1658.53 437.28 L1655.82 437.64 L1652.99 437.99 L1649.93 438.23 L1622.94 441.17 L1623.42 445.77 L1623.77 450.01 L1624.59 456.02 L1624.95 458.97 L1626.24 470.99 L1627.42 481.83 L1629.31 498.56 L1629.78 502.21 L1631.19 515.29 L1631.66 520.36 L1632.96 532.61 L1634.73 549.82 L1636.02 561.01 L1635.32 562.66 L1635.32 562.90 L1636.61 577.04 L1621.65 578.69 L1620.00 578.80 L1609.27 580.10 L1609.27 580.10 L1608.21 580.93 L1605.62 581.16 L1589.71 582.58 L1582.64 583.52 L1587.24 608.85 L1591.24 608.97 L1624.12 612.15 L1640.62 610.38 L1641.92 610.27 L1642.51 614.98 L1642.62 616.39 L1643.10 620.87 L1643.45 624.76 L1643.57 626.29 L1643.80 627.59 L1644.39 633.01 L1644.39 633.36 L1643.92 634.66 L1645.10 644.79 L1645.45 648.21 L1646.16 654.45 L1646.75 659.87 L1649.81 686.74 L1650.64 694.87 L1651.34 701.35 L1652.17 709.25 L1652.99 716.08 L1653.11 717.38 L1653.58 721.15 L1653.70 722.68 L1656.88 751.43 L1657.47 756.62 L1658.30 764.63 L1659.12 772.29 L1659.71 778.06 L1663.72 814.47 L1664.90 825.31 L1665.49 830.62 L1666.55 841.22 L1666.78 843.46 L1667.37 849.35 L1667.96 854.30 L1670.91 882.35 L1671.73 890.48 L1672.44 896.96 L1673.26 904.50 L1673.85 909.68 L1674.44 915.22 L1677.03 937.38 L1677.39 940.44 L1677.86 944.21 L1679.04 955.52 L1679.86 963.54 L1680.69 970.84 L1680.92 972.84 L1681.63 980.27 L1681.98 983.45 L1683.28 996.29 L1684.81 1010.79 L1685.52 1018.21 L1687.17 1033.18 L1687.52 1036.00 L1687.99 1040.48 L1688.70 1046.61 L1689.05 1050.14 L1689.64 1056.04 L1692.71 1085.14 L1692.24 1086.44 L1692.94 1093.04 L1693.65 1099.75 L1694.24 1104.58 L1694.95 1111.54 L1695.30 1115.19 L1695.54 1117.78 L1696.24 1123.08 L1696.60 1125.32 L1696.95 1128.15 L1698.25 1136.40 L1698.95 1137.58 L1699.31 1140.29 L1699.90 1146.18 L1700.37 1150.54 L1700.49 1152.42 L1700.96 1156.55 L1702.72 1174.69 L1703.20 1180.82 L1703.67 1185.65 L1704.02 1188.84 L1706.38 1209.81 L1706.97 1215.47 L1707.20 1217.47 L1707.56 1221.48 L1708.03 1226.19 L1709.09 1236.20 L1709.21 1237.85 L1709.91 1245.75 L1711.09 1256.00 L1711.21 1256.83 L1711.68 1261.30 L1712.51 1267.90 L1713.33 1274.74 L1714.04 1281.10 L1714.16 1281.69 L1715.45 1292.41 L1716.16 1298.30 L1716.51 1300.90 L1717.22 1306.55 L1718.28 1315.27 L1718.75 1319.87 L1718.87 1320.93 L1719.46 1325.17 L1719.69 1327.29 L1720.28 1332.83 L1720.52 1334.83 L1720.75 1336.13 L1721.23 1340.25 L1721.82 1344.38 L1722.17 1347.32 L1722.29 1348.62 L1722.52 1351.21 L1722.76 1353.45 L1723.23 1357.81 L1723.46 1359.70 L1724.17 1366.29 L1731.36 1365.59 L1766.60 1362.17 L1773.78 1361.46 L1773.90 1362.88 L1774.96 1379.49 L1775.32 1382.44 L1775.91 1384.91 L1776.73 1387.15 L1777.67 1389.15 L1778.62 1390.92 L1779.44 1392.81 L1779.91 1394.69 L1780.50 1396.93 L1781.33 1404.71 L1787.45 1421.79 L1792.40 1436.88 L1794.52 1441.36 L1795.94 1443.12 L1797.35 1444.42 L1798.53 1446.07 L1799.59 1447.60 L1800.89 1449.01 L1802.42 1449.96 L1804.66 1450.66 L1807.61 1451.02 L1812.32 1451.14 L1826.46 1451.02 L1830.47 1489.67 L1827.64 1489.90 L1825.52 1490.02 L1824.10 1490.14 L1822.57 1490.37 L1818.09 1490.85 L1792.64 1493.79 L1777.56 1495.44 L1761.65 1497.21 L1756.58 1497.68 L1752.93 1498.03 L1746.92 1498.62 L1740.20 1499.33 L1740.55 1502.98 L1741.02 1507.46 L1747.74 1570.03 L1750.22 1592.07 L1750.45 1593.83 L1754.10 1630.60 L1750.92 1635.90 L1757.05 1657.70 L1757.64 1670.78 L1757.40 1688.45 L1758.94 1700.95 L1758.11 1716.15 L1758.11 1716.73 L1771.07 1731.46 L1763.53 1739.59 L1762.71 1794.62 L1763.41 1801.10 L1766.01 1834.10 L1767.18 1834.10 L1770.72 1880.29 L1754.22 1892.78 L1750.92 1895.49 L1748.80 1897.73 L1740.79 1906.45 L1725.82 1924.83 L1709.91 1943.45 L1703.08 1951.23 L1702.37 1952.05 L1701.66 1952.88 L1687.88 1966.07 L1664.78 1986.46 L1657.12 1993.29 L1647.34 2000.83 L1642.98 2004.13 L1626.72 2016.62 L1603.38 2033.47 L1584.64 2044.79 L1582.76 2045.73 L1580.28 2046.79 L1576.28 2047.50 L1571.21 2048.09 L1565.08 2048.56 L1558.25 2049.38 L1535.74 2050.68 L1517.83 2052.56 L1515.71 2031.71 L1511.94 2032.30 L1505.69 2033.00 L1499.09 2033.83 L1491.55 2034.65 L1486.25 2035.24 L1469.28 2037.13 L1463.74 2037.72 L1459.26 2038.19 L1452.54 2038.90 L1446.65 2039.48 L1439.11 2040.31 L1432.27 2041.02 L1418.13 2042.67 L1417.19 2043.02 L1407.17 2045.61 L1405.99 2045.85 L1404.34 2046.08 L1401.63 2046.55 L1400.81 2046.67 L1400.34 2046.67 L1398.22 2047.03 L1397.63 2047.14 L1396.92 2047.14 L1394.80 2047.50 L1394.09 2047.62 L1393.62 2047.73 L1393.03 2047.85 L1392.44 2047.97 L1391.85 2048.09 L1391.26 2048.20 L1390.91 2048.32 L1389.61 2048.68 L1388.55 2049.03 L1387.37 2049.50 L1385.72 2050.09 L1384.43 2050.68 L1383.49 2051.27 L1382.66 2051.74 L1382.07 2052.09 L1381.36 2052.45 L1380.66 2052.92 L1379.95 2053.51 L1379.13 2054.10 L1378.18 2054.92 L1377.48 2055.51 L1376.77 2056.10 L1376.30 2056.57 L1375.71 2057.28 L1374.06 2059.05 L1373.47 2059.75 L1372.64 2060.81 L1370.52 2063.52 L1368.40 2066.47 L1365.81 2069.77 L1363.57 2072.83 L1362.16 2074.72 L1360.62 2076.84 L1358.86 2078.96 L1357.32 2081.20 L1355.79 2083.20 L1354.50 2085.09 L1352.73 2087.33 L1351.20 2089.45 L1349.55 2091.45 L1348.13 2093.33 L1346.95 2094.98 L1346.01 2096.16 L1345.07 2097.58 L1343.30 2100.29 L1341.89 2103.00 L1341.89 2103.00 Z" stroke-linejoin="round"/>
	</defs>
	<use xlink:href="#path_XyNyiKfh" style="fill:#004249;stroke:#00465F;stroke-width:5.76"/>
	<defs>
		<path id="path_XrCVRRjs" d="M587.69 1483.78 L587.69 1483.78 L587.69 1483.78 L573.43 1346.85 L517.69 1353.57 L455.47 1360.87 L415.05 1365.94 L405.85 1367.35 L393.83 1233.85 L360.13 1238.09 L337.50 1240.92 L330.79 1241.74 L327.25 1242.10 L326.19 1242.10 L325.37 1242.21 L326.90 1256.59 L327.49 1261.07 L327.84 1264.25 L329.02 1272.97 L329.49 1273.91 L330.08 1279.80 L330.08 1280.86 L332.32 1303.61 L332.56 1305.96 L335.74 1337.19 L339.74 1375.37 L331.02 1376.31 L314.52 1378.31 L313.82 1378.31 L312.99 1378.43 L283.30 1381.73 L254.42 1384.91 L234.39 1387.27 L225.08 1388.21 L212.83 1389.63 L169.69 1394.22 L109.12 1401.17 L104.53 1356.99 L99.46 1304.67 L96.51 1272.97 L95.57 1264.01 L94.16 1250.34 L92.63 1234.56 L91.56 1224.07 L90.03 1210.28 L88.74 1198.38 L84.97 1162.79 L82.37 1138.52 L95.45 1137.58 L139.53 1132.16 L145.89 1131.57 L154.49 1130.51 L164.63 1129.45 L166.04 1129.09 L168.75 1128.50 L170.76 1128.27 L176.77 1127.56 L194.09 1125.56 L214.59 1123.20 L254.90 1117.90 L254.19 1111.42 L240.40 983.10 L220.25 985.22 L181.83 989.11 L179.12 989.34 L124.80 995.00 L64.11 1001.36 L59.16 955.05 L57.15 936.08 L54.80 913.10 L51.26 873.86 L45.61 820.60 L42.90 795.50 L41.60 783.72 L36.89 740.47 L57.74 738.35 L83.08 735.64 L109.59 732.81 L143.30 729.04 L153.08 727.98 L196.45 723.39 L214.12 721.50 L217.89 721.03 L247.24 717.85 L265.38 716.20 L269.16 715.85 L269.27 717.73 L269.51 720.09 L270.45 729.04 L272.69 750.02 L273.75 759.45 L274.93 770.52 L275.28 773.59 L276.70 786.78 L277.64 796.56 L277.76 796.92 L278.94 808.58 L280.59 823.31 L281.65 833.45 L282.47 841.46 L282.94 845.23 L290.37 909.80 L291.55 922.06 L291.66 923.71 L293.67 947.86 L293.78 949.28 L293.90 950.57 L294.26 953.64 L295.43 964.12 L295.91 967.78 L296.38 972.73 L296.97 977.44 L298.14 977.32 L299.21 977.20 L338.45 972.61 L339.74 972.49 L387.82 966.95 L389.12 966.72 L390.77 966.60 L457.71 958.94 L459.47 958.70 L507.67 953.28 L529.35 950.93 L531.48 950.81 L532.18 950.81 L533.36 950.93 L534.19 950.93 L535.13 950.81 L535.72 950.81 L540.20 950.34 L543.50 950.10 L560.35 948.57 L563.65 948.22 L566.36 947.98 L590.75 945.74 L594.76 945.39 L620.09 942.91 L644.61 940.79 L646.73 940.56 L647.43 940.44 L648.26 940.44 L679.96 937.49 L697.63 935.96 L699.28 935.73 L734.76 932.43 L736.88 932.31 L759.03 930.19 L767.28 929.25 L768.93 929.25 L791.44 927.12 L796.27 926.65 L813.71 924.89 L817.25 924.65 L825.14 923.94 L833.16 1010.55 L837.40 1055.33 L831.98 1055.92 L821.61 1056.86 L787.67 1059.81 L765.16 1061.81 L751.14 1063.34 L747.37 1063.69 L692.10 1069.47 L659.45 1072.89 L633.53 1075.36 L633.76 1078.42 L638.01 1122.73 L629.99 1134.16 L552.10 1143.47 L553.39 1154.78 L553.51 1156.43 L559.76 1219.12 L564.47 1218.53 L578.49 1216.88 L595.94 1215.23 L613.73 1213.11 L617.62 1212.28 L634.94 1210.28 L646.02 1209.22 L683.02 1205.33 L690.09 1204.51 L704.82 1202.15 L716.25 1201.21 L727.57 1199.68 L738.06 1198.62 L748.43 1197.44 L765.87 1195.67 L773.88 1270.38 L776.83 1294.06 L780.36 1327.17 L783.78 1359.46 L788.02 1395.87 L790.38 1417.79 L794.97 1459.15 L783.07 1460.33 L776.83 1460.92 L775.18 1461.15 L766.10 1461.98 L759.97 1462.68 L739.12 1464.69 L732.40 1465.39 L720.26 1466.57 L708.83 1467.75 L707.53 1467.87 L705.18 1468.22 L703.88 1468.46 L702.47 1468.81 L700.93 1469.28 L698.81 1469.99 L695.99 1471.05 L694.22 1471.76 L692.57 1472.58 L692.21 1471.99 L691.86 1471.64 L691.51 1471.40 L691.15 1471.40 L683.02 1472.35 L665.23 1474.35 L639.54 1477.41 L622.69 1479.53 L611.49 1480.83 L590.28 1483.54 L587.69 1483.78 L587.69 1483.78 Z" stroke-linejoin="round"/>
	</defs>
	<use xlink:href="#path_XrCVRRjs" style="fill:#004249;stroke:#00465F;stroke-width:5.76"/>
</svg>
