<?xml version="1.0" encoding="UTF-8" standalone="no"?>
<!-- This is a Stata 16.1 generated SVG file (http://www.stata.com) -->

<svg version="1.1" width="5.65in" height="4.00in" viewBox="0 0 4069 2880" xmlns="http://www.w3.org/2000/svg" xmlns:xlink="http://www.w3.org/1999/xlink">
	<desc>Stata Graph - Graph</desc>
	<rect x="0" y="0" width="4069" height="2880" style="fill:#FFFFFF;stroke:none"/>
	<defs>
		<path id="path_OzYhHwqD" d="M1505.78 2847.19 L1505.78 2847.19 L1498.79 2851.77 L1489.38 2848.97 L1487.98 2841.47 L1478.06 2788.83 L1477.30 2785.14 L1469.54 2787.30 L1468.78 2786.79 L1468.15 2786.67 L1435.34 2792.26 L1412.07 2796.08 L1410.80 2796.71 L1405.97 2797.60 L1405.59 2793.91 L1403.42 2788.70 L1401.39 2779.42 L1387.40 2703.50 L1386.64 2664.21 L1386.26 2646.03 L1387.53 2642.60 L1406.98 2639.42 L1420.84 2637.13 L1422.88 2636.75 L1432.80 2634.97 L1439.28 2633.70 L1448.06 2632.04 L1445.51 2613.22 L1441.70 2586.27 L1428.47 2511.37 L1414.61 2445.63 L1404.44 2386.75 L1397.32 2390.44 L1390.58 2357.51 L1384.48 2345.43 L1373.16 2287.57 L1365.66 2248.66 L1358.54 2236.58 L1356.88 2233.91 L1356.38 2232.13 L1357.01 2230.22 L1356.25 2228.82 L1353.58 2224.37 L1351.42 2220.94 L1346.58 2208.22 L1344.17 2203.27 L1379.14 2196.91 L1387.66 2195.00 L1402.41 2192.33 L1421.86 2188.77 L1434.32 2186.86 L1439.41 2185.72 L1481.50 2177.83 L1486.20 2177.20 L1490.91 2176.44 L1583.10 2159.90 L1633.32 2150.88 L1687.49 2141.09 L1695.50 2139.56 L1697.54 2139.18 L1704.53 2137.91 L1767.85 2126.33 L1819.10 2116.93 L1903.91 2101.54 L1920.44 2098.49 L1983.89 2086.92 L1986.69 2086.41 L2002.08 2083.74 L2005.89 2082.97 L2030.30 2078.65 L2044.67 2075.85 L2070.99 2071.15 L2097.82 2066.44 L2114.74 2063.14 L2133.30 2060.09 L2155.68 2055.76 L2159.49 2055.13 L2161.66 2054.62 L2173.48 2052.71 L2180.86 2051.06 L2185.56 2050.29 L2189.63 2049.91 L2193.45 2049.15 L2200.44 2054.87 L2201.46 2060.85 L2203.11 2068.61 L2211.25 2120.74 L2220.28 2149.60 L2227.90 2191.95 L2231.08 2212.80 L2235.15 2235.82 L2241.00 2304.86 L2252.19 2364.76 L2254.73 2372.64 L2255.62 2378.36 L2256.64 2379.51 L2247.49 2398.20 L2238.71 2415.62 L2238.08 2417.27 L2230.70 2432.28 L2219.64 2456.06 L2213.92 2468.26 L2211.37 2467.75 L2209.98 2467.63 L2210.48 2469.41 L2212.01 2472.20 L2207.05 2482.63 L2205.91 2484.67 L2212.65 2482.76 L2213.28 2487.59 L2214.04 2491.15 L2206.03 2509.46 L2207.81 2509.84 L2210.10 2510.99 L2212.52 2513.79 L2217.10 2521.67 L2217.99 2523.07 L2218.75 2524.47 L2219.00 2525.61 L2219.26 2526.50 L2219.13 2528.28 L2219.13 2530.82 L2223.33 2554.09 L2230.83 2596.69 L2230.45 2599.62 L2229.68 2601.40 L2228.79 2602.92 L2231.34 2604.45 L2232.48 2605.34 L2233.37 2606.61 L2230.19 2607.37 L2216.46 2610.68 L2161.27 2619.07 L2156.32 2619.33 L2143.60 2608.14 L2143.09 2609.28 L2142.46 2610.43 L2136.10 2623.14 L2132.16 2631.02 L2129.99 2631.66 L2128.34 2631.15 L2126.56 2634.71 L2123.00 2641.71 L2122.62 2642.98 L2120.97 2646.03 L2119.95 2648.19 L2121.73 2648.57 L2123.26 2648.70 L2122.49 2650.35 L2121.60 2652.13 L2119.69 2656.20 L2119.06 2657.35 L2118.68 2658.24 L2117.41 2660.91 L2109.01 2677.06 L2103.67 2688.37 L2102.40 2691.04 L2102.02 2688.12 L2101.51 2685.58 L2099.86 2677.44 L2099.60 2676.17 L2099.35 2674.77 L2097.70 2675.02 L2095.79 2675.28 L2073.92 2679.22 L2054.46 2682.40 L2040.98 2684.56 L2028.02 2686.72 L2019.88 2688.12 L2007.54 2690.15 L1993.56 2692.57 L1977.53 2695.37 L1961.13 2698.16 L1923.75 2704.14 L1920.06 2704.90 L1902.38 2708.08 L1900.86 2708.34 L1890.56 2710.12 L1869.20 2713.68 L1858.52 2715.33 L1845.80 2716.60 L1843.64 2716.86 L1836.39 2718.26 L1827.62 2719.53 L1821.13 2720.54 L1819.99 2720.93 L1818.97 2721.18 L1810.83 2722.58 L1802.95 2723.72 L1795.19 2725.12 L1773.45 2728.68 L1771.16 2729.19 L1737.08 2735.17 L1722.71 2737.84 L1695.12 2743.18 L1691.43 2743.94 L1679.61 2746.10 L1661.42 2749.15 L1647.18 2751.57 L1631.16 2754.24 L1618.44 2756.28 L1611.58 2757.55 L1561.73 2765.30 L1556.77 2766.19 L1542.53 2768.86 L1540.50 2769.25 L1541.01 2772.17 L1543.93 2788.19 L1544.31 2790.10 L1544.57 2791.37 L1547.36 2803.96 L1548.00 2806.50 L1548.64 2809.30 L1550.03 2814.90 L1551.94 2822.91 L1553.09 2827.48 L1553.72 2830.28 L1554.36 2832.82 L1555.50 2838.17 L1505.78 2847.19 L1505.78 2847.19 Z" stroke-linejoin="round"/>
	</defs>
	<use xlink:href="#path_OzYhHwqD" style="fill:#CEE3E4;stroke:#CEF5F5;stroke-width:5.76"/>
	<defs>
		<path id="path_spikSKgn" d="M2306.23 2027.91 L2306.23 2027.91 L2306.23 2027.91 L2252.95 2038.09 L2231.85 2041.65 L2234.90 2040.76 L2233.12 2036.05 L2235.28 2029.57 L2265.67 1992.82 L2267.20 1991.67 L2269.87 1991.04 L2270.88 1990.66 L2271.39 1990.28 L2273.05 1989.64 L2274.19 1989.26 L2275.33 1988.50 L2276.22 1987.61 L2276.73 1986.84 L2277.11 1985.95 L2279.28 1983.54 L2279.40 1982.90 L2279.78 1982.14 L2279.91 1981.88 L2280.17 1981.37 L2280.55 1980.99 L2280.93 1980.61 L2281.31 1980.23 L2281.82 1979.98 L2282.20 1979.59 L2282.58 1979.47 L2283.09 1979.34 L2283.85 1979.09 L2284.23 1978.96 L2285.89 1974.76 L2284.74 1973.36 L2284.87 1969.29 L2284.49 1966.50 L2284.23 1964.59 L2282.58 1957.21 L2278.51 1938.90 L2277.24 1932.93 L2273.68 1915.63 L2272.28 1907.62 L2270.88 1898.98 L2268.85 1887.15 L2264.65 1855.87 L2264.78 1853.96 L2265.16 1850.40 L2265.29 1848.49 L2265.54 1846.59 L2265.80 1841.12 L2265.80 1839.09 L2265.80 1836.16 L2265.80 1834.25 L2265.67 1831.96 L2265.54 1830.44 L2265.42 1827.51 L2265.29 1825.61 L2265.16 1824.21 L2264.91 1821.79 L2264.65 1819.50 L2264.14 1815.94 L2263.38 1810.98 L2262.87 1807.55 L2262.62 1806.53 L2262.24 1804.63 L2262.24 1804.37 L2261.09 1798.14 L2259.57 1788.73 L2259.44 1787.71 L2258.80 1783.52 L2257.91 1778.81 L2257.15 1774.36 L2257.02 1773.85 L2256.26 1769.53 L2256.01 1768.13 L2255.12 1762.92 L2252.70 1749.06 L2252.32 1746.64 L2249.52 1747.15 L2248.76 1743.46 L2247.87 1737.87 L2247.61 1736.21 L2246.60 1730.49 L2245.58 1724.01 L2245.33 1722.35 L2245.07 1720.57 L2244.18 1715.61 L2243.42 1711.67 L2243.29 1710.91 L2242.78 1707.35 L2242.27 1705.19 L2240.75 1695.91 L2239.98 1691.20 L2239.60 1688.28 L2237.31 1675.31 L2236.55 1670.98 L2236.30 1669.08 L2235.66 1665.01 L2234.26 1656.87 L2233.88 1654.45 L2232.99 1649.49 L2231.59 1641.48 L2231.47 1640.85 L2228.54 1622.79 L2228.16 1620.25 L2225.74 1605.50 L2225.49 1603.59 L2224.98 1600.66 L2224.47 1598.12 L2222.18 1585.53 L2221.93 1583.75 L2219.64 1570.27 L2218.88 1565.19 L2218.88 1564.93 L2217.10 1554.76 L2215.06 1541.41 L2213.41 1530.09 L2213.15 1528.82 L2212.77 1526.15 L2211.63 1519.28 L2210.87 1514.83 L2209.98 1510.38 L2208.58 1501.61 L2207.69 1496.27 L2207.31 1494.23 L2206.03 1486.35 L2205.40 1482.79 L2204.76 1479.23 L2202.60 1466.64 L2200.18 1452.02 L2199.42 1447.06 L2202.09 1446.42 L2201.71 1443.62 L2200.69 1437.65 L2198.02 1422.64 L2197.01 1417.68 L2195.73 1410.44 L2195.35 1407.00 L2195.10 1405.10 L2192.43 1388.69 L2190.01 1374.96 L2188.49 1366.06 L2188.23 1364.28 L2187.72 1361.48 L2186.96 1356.78 L2186.07 1350.93 L2185.05 1345.08 L2184.80 1343.30 L2182.00 1343.68 L2179.46 1328.93 L2178.82 1325.37 L2178.19 1321.93 L2178.06 1320.54 L2177.17 1315.58 L2175.52 1304.89 L2174.24 1298.16 L2173.61 1294.09 L2172.59 1287.86 L2170.94 1278.32 L2167.89 1260.52 L2167.76 1259.50 L2165.34 1244.75 L2164.84 1241.70 L2164.07 1236.99 L2161.78 1224.15 L2161.02 1219.70 L2157.33 1198.59 L2157.08 1196.30 L2155.68 1188.16 L2155.17 1185.24 L2154.79 1183.33 L2154.15 1179.90 L2153.90 1178.12 L2153.39 1174.94 L2153.14 1173.92 L2151.23 1162.22 L2154.41 1161.84 L2164.07 1160.57 L2169.29 1159.81 L2172.59 1159.43 L2175.13 1159.04 L2176.28 1158.92 L2180.09 1158.28 L2180.98 1158.15 L2190.78 1156.50 L2191.92 1156.25 L2196.12 1155.48 L2198.40 1155.10 L2202.73 1154.21 L2206.67 1153.32 L2212.90 1152.05 L2220.40 1150.52 L2219.77 1147.35 L2222.44 1146.84 L2229.68 1145.44 L2234.39 1144.55 L2244.31 1142.64 L2248.50 1141.88 L2248.89 1141.75 L2260.08 1139.59 L2267.32 1138.32 L2280.55 1135.65 L2284.74 1134.76 L2288.18 1134.12 L2292.88 1133.10 L2296.82 1132.34 L2302.29 1131.32 L2307.25 1130.31 L2318.82 1128.02 L2324.29 1127.13 L2336.37 1124.71 L2343.24 1123.31 L2350.61 1121.91 L2353.15 1121.41 L2359.00 1120.26 L2359.64 1123.31 L2360.02 1125.22 L2360.91 1126.36 L2361.16 1127.51 L2361.42 1129.29 L2361.55 1131.45 L2361.29 1134.38 L2361.04 1136.28 L2360.78 1138.57 L2360.53 1141.24 L2360.27 1143.79 L2360.02 1145.82 L2360.15 1147.98 L2360.15 1150.02 L2360.53 1152.43 L2361.04 1154.98 L2361.80 1157.65 L2362.69 1159.93 L2363.58 1162.10 L2364.60 1164.51 L2365.49 1166.29 L2366.76 1168.45 L2367.90 1170.11 L2369.68 1172.78 L2371.46 1174.56 L2373.75 1176.21 L2375.79 1177.61 L2377.95 1179.14 L2381.00 1181.17 L2382.40 1180.79 L2408.47 1176.59 L2410.25 1175.83 L2411.90 1174.30 L2413.17 1172.40 L2413.68 1171.51 L2413.43 1167.31 L2413.68 1164.77 L2414.19 1161.46 L2415.33 1157.39 L2416.99 1152.43 L2421.05 1145.44 L2421.56 1144.80 L2422.33 1143.79 L2423.09 1142.90 L2425.00 1140.73 L2427.79 1137.55 L2432.88 1131.96 L2440.00 1124.20 L2441.40 1122.30 L2442.42 1120.90 L2443.43 1119.24 L2444.20 1117.72 L2444.58 1116.70 L2445.09 1115.56 L2445.47 1114.54 L2446.10 1113.14 L2446.49 1112.12 L2446.74 1110.98 L2446.99 1109.71 L2446.99 1108.69 L2446.87 1107.16 L2446.87 1106.40 L2446.74 1105.51 L2450.30 1104.88 L2451.70 1104.62 L2452.08 1106.27 L2452.72 1109.45 L2461.87 1161.21 L2464.42 1174.05 L2464.67 1175.32 L2481.07 1262.42 L2491.37 1299.81 L2527.23 1385.13 L2527.87 1386.78 L2528.50 1388.06 L2548.34 1441.34 L2557.11 1477.96 L2559.91 1493.34 L2562.07 1505.17 L2564.36 1517.63 L2568.94 1539.25 L2571.99 1559.34 L2573.90 1576.38 L2575.17 1590.87 L2575.17 1592.27 L2576.31 1600.03 L2576.44 1601.30 L2576.31 1645.04 L2573.13 1680.52 L2572.75 1683.19 L2572.63 1684.08 L2564.87 1731.13 L2560.80 1747.66 L2545.41 1793.31 L2523.67 1839.72 L2510.45 1865.66 L2464.92 1954.93 L2465.56 1958.87 L2461.24 1967.51 L2459.71 1970.18 L2452.46 1983.54 L2451.70 1985.19 L2450.94 1986.59 L2450.43 1987.48 L2449.92 1988.75 L2448.14 1992.06 L2444.71 1998.54 L2437.97 1999.43 L2433.39 2000.32 L2428.05 2001.72 L2414.32 2007.32 L2412.28 2008.08 L2399.44 2011.00 L2380.87 2014.18 L2345.02 2021.18 L2339.17 2021.30 L2334.59 2021.56 L2306.23 2027.91 L2306.23 2027.91 Z" stroke-linejoin="round"/>
	</defs>
	<use xlink:href="#path_spikSKgn" style="fill:#CEE3E4;stroke:#CEF5F5;stroke-width:5.76"/>
	<defs>
		<path id="path_FSYbViof" d="M3326.92 2363.10 L3326.92 2363.10 L3321.70 2355.86 L3311.91 2358.14 L3307.84 2359.92 L3302.76 2361.96 L3276.18 2368.83 L3261.05 2361.32 L3248.59 2355.73 L3221.12 2331.31 L3218.45 2330.42 L3211.71 2328.01 L3208.41 2327.12 L3201.67 2324.96 L3200.01 2324.83 L3203.07 2317.20 L3205.99 2308.93 L3208.41 2302.45 L3209.17 2299.52 L3210.31 2295.45 L3211.33 2291.26 L3211.97 2288.21 L3209.42 2288.72 L3211.20 2279.05 L3213.11 2268.12 L3214.26 2258.32 L3215.27 2238.87 L3214.51 2220.94 L3212.48 2202.76 L3209.30 2184.83 L3209.17 2183.81 L3207.01 2184.45 L3207.26 2186.35 L3194.67 2190.17 L3189.46 2191.06 L3188.95 2188.64 L3186.15 2174.40 L3204.08 2168.68 L3206.37 2167.92 L3194.93 2103.57 L3186.92 2059.07 L3185.39 2050.80 L3183.48 2039.99 L3181.70 2030.08 L3180.05 2020.03 L3178.91 2013.42 L3178.14 2009.10 L3177.25 2003.88 L3173.18 1980.48 L3171.02 1967.90 L3170.90 1966.62 L3170.64 1965.23 L3168.61 1953.27 L3158.43 1895.92 L3156.91 1888.17 L3153.73 1870.49 L3153.47 1869.35 L3153.35 1868.46 L3153.22 1867.57 L3153.09 1866.17 L3144.07 1814.67 L3143.81 1813.27 L3141.65 1813.40 L3138.09 1812.89 L3137.96 1811.87 L3137.07 1801.96 L3136.05 1792.55 L3134.53 1782.50 L3133.51 1775.63 L3134.15 1771.44 L3135.55 1775.63 L3139.11 1785.68 L3134.91 1763.17 L3128.81 1728.33 L3108.84 1616.30 L3102.99 1582.10 L3092.44 1519.66 L3087.35 1489.91 L3071.20 1407.26 L3071.33 1399.25 L3071.59 1393.02 L3072.09 1372.54 L3078.71 1343.30 L3087.99 1322.06 L3096.64 1304.26 L3109.22 1279.34 L3110.24 1277.30 L3111.26 1275.27 L3114.69 1273.49 L3120.16 1273.49 L3139.61 1269.54 L3145.72 1268.53 L3146.86 1269.29 L3147.24 1269.93 L3152.58 1268.53 L3163.52 1266.49 L3169.12 1265.35 L3173.06 1264.71 L3186.79 1262.04 L3192.89 1260.64 L3199.51 1259.37 L3209.17 1257.46 L3211.20 1257.21 L3216.29 1256.07 L3224.68 1254.41 L3227.99 1253.78 L3229.77 1253.40 L3234.86 1252.38 L3239.43 1251.62 L3244.14 1250.73 L3246.55 1250.34 L3247.95 1250.09 L3249.10 1249.84 L3249.73 1249.71 L3254.56 1248.69 L3256.73 1248.31 L3259.65 1247.80 L3262.32 1247.29 L3265.88 1246.66 L3269.19 1246.02 L3268.93 1244.75 L3270.46 1244.62 L3283.30 1242.33 L3295.89 1240.17 L3324.12 1234.45 L3338.23 1232.29 L3347.01 1230.76 L3351.46 1230.13 L3351.46 1228.98 L3353.11 1228.85 L3355.53 1228.73 L3359.09 1223.64 L3373.20 1220.21 L3373.96 1220.33 L3373.84 1224.02 L3373.71 1226.69 L3373.46 1229.62 L3373.33 1231.02 L3373.20 1233.05 L3377.40 1233.43 L3376.89 1239.66 L3376.25 1262.93 L3379.05 1261.53 L3408.04 1258.61 L3408.04 1259.50 L3430.17 1263.82 L3430.80 1259.12 L3434.74 1255.68 L3436.02 1255.43 L3437.67 1255.18 L3439.20 1254.92 L3440.47 1254.79 L3453.31 1252.25 L3453.82 1252.25 L3465.90 1249.84 L3466.15 1249.84 L3474.80 1248.06 L3485.35 1245.89 L3498.83 1243.35 L3539.39 1235.85 L3555.03 1232.80 L3558.72 1232.03 L3568.51 1229.87 L3575.76 1228.35 L3581.48 1229.87 L3586.70 1227.46 L3587.33 1227.33 L3597.76 1225.29 L3609.84 1223.39 L3612.76 1222.88 L3620.52 1221.73 L3631.84 1217.66 L3640.23 1216.14 L3642.14 1215.76 L3644.04 1215.38 L3645.19 1215.25 L3647.48 1214.87 L3651.29 1213.85 L3651.80 1213.72 L3653.96 1213.21 L3659.18 1212.45 L3660.07 1212.32 L3660.96 1212.20 L3662.10 1212.07 L3664.01 1211.94 L3665.79 1211.94 L3667.57 1212.07 L3669.48 1212.07 L3673.93 1212.32 L3678.38 1212.58 L3682.32 1212.58 L3684.73 1212.58 L3686.01 1212.45 L3688.93 1212.58 L3689.95 1227.96 L3690.07 1229.36 L3690.20 1234.07 L3690.46 1239.66 L3690.84 1245.64 L3690.58 1249.45 L3690.71 1251.23 L3691.09 1257.59 L3691.47 1263.70 L3691.60 1265.98 L3691.85 1272.22 L3692.11 1275.65 L3692.24 1278.70 L3692.49 1284.42 L3692.62 1287.22 L3692.74 1291.03 L3693.00 1295.23 L3693.13 1297.90 L3693.13 1299.30 L3693.38 1308.20 L3693.63 1316.47 L3693.76 1319.01 L3694.02 1324.60 L3694.78 1336.05 L3695.03 1340.12 L3695.41 1347.24 L3696.18 1361.99 L3696.31 1364.28 L3696.43 1366.95 L3696.56 1370.38 L3696.94 1378.52 L3697.07 1383.61 L3697.20 1384.62 L3697.58 1390.22 L3697.58 1392.00 L3697.70 1393.40 L3698.59 1410.69 L3698.59 1412.47 L3698.72 1415.01 L3700.25 1440.32 L3700.37 1444.90 L3700.50 1448.33 L3700.63 1450.36 L3701.39 1466.89 L3701.39 1468.04 L3702.03 1483.81 L3702.15 1485.33 L3703.43 1508.98 L3703.55 1511.40 L3703.68 1514.58 L3703.81 1516.49 L3703.93 1519.41 L3704.44 1533.40 L3705.71 1558.32 L3706.22 1571.80 L3706.35 1573.45 L3706.48 1575.49 L3707.37 1596.59 L3708.38 1613.63 L3708.51 1616.69 L3708.64 1620.63 L3708.89 1624.32 L3709.15 1629.27 L3709.40 1633.60 L3709.53 1637.03 L3709.66 1639.07 L3709.78 1642.37 L3710.04 1646.44 L3710.55 1654.58 L3710.93 1658.65 L3711.18 1661.19 L3711.44 1663.86 L3711.95 1667.55 L3712.33 1669.97 L3712.33 1670.60 L3712.84 1673.27 L3713.73 1678.48 L3713.73 1678.74 L3716.01 1691.96 L3717.41 1699.47 L3718.05 1703.28 L3719.57 1712.18 L3720.72 1718.54 L3722.50 1728.20 L3723.14 1731.89 L3724.15 1737.87 L3728.73 1764.06 L3729.11 1765.08 L3729.24 1766.35 L3731.78 1777.92 L3733.56 1786.70 L3736.10 1798.65 L3738.14 1808.69 L3739.16 1813.65 L3740.56 1820.90 L3740.94 1822.55 L3743.48 1835.52 L3744.75 1840.99 L3746.28 1847.99 L3746.66 1849.77 L3748.44 1858.41 L3750.22 1867.57 L3750.86 1871.26 L3751.24 1873.04 L3751.36 1874.31 L3752.00 1880.41 L3752.25 1882.95 L3752.51 1885.37 L3752.51 1885.75 L3752.64 1888.55 L3752.64 1891.09 L3752.64 1894.40 L3752.64 1894.91 L3752.51 1896.81 L3751.62 1907.75 L3750.35 1917.92 L3749.84 1922.63 L3749.46 1926.06 L3749.07 1928.22 L3748.31 1935.60 L3746.40 1951.49 L3745.77 1956.83 L3744.50 1967.26 L3743.23 1978.20 L3742.34 1985.83 L3742.08 1987.48 L3741.83 1990.02 L3740.30 2001.85 L3739.79 2007.95 L3739.28 2011.38 L3738.65 2016.85 L3737.38 2026.90 L3735.85 2038.98 L3735.47 2042.92 L3734.20 2057.16 L3733.82 2060.34 L3732.67 2075.98 L3732.42 2083.10 L3732.29 2084.37 L3732.04 2090.60 L3731.91 2092.00 L3731.91 2093.02 L3731.65 2103.07 L3731.15 2116.54 L3730.76 2124.55 L3730.64 2128.12 L3730.00 2144.01 L3729.62 2155.58 L3729.49 2157.74 L3729.37 2162.19 L3729.24 2166.90 L3729.11 2169.06 L3728.73 2181.78 L3728.35 2189.15 L3727.97 2200.98 L3727.84 2205.43 L3727.46 2213.57 L3727.46 2216.24 L3727.20 2220.18 L3708.64 2224.76 L3705.84 2225.26 L3694.27 2227.30 L3681.94 2229.59 L3681.55 2229.59 L3677.49 2206.44 L3664.26 2207.84 L3641.63 2213.06 L3628.66 2215.60 L3599.92 2221.07 L3550.20 2232.77 L3549.19 2230.73 L3526.42 2235.31 L3524.01 2223.87 L3508.37 2227.17 L3505.57 2227.81 L3505.06 2239.25 L3506.46 2248.03 L3507.73 2256.80 L3506.08 2266.84 L3502.14 2275.24 L3495.40 2282.87 L3492.86 2284.90 L3489.42 2286.94 L3485.73 2288.72 L3461.45 2292.02 L3449.24 2300.03 L3444.79 2301.43 L3440.47 2304.99 L3431.95 2310.59 L3411.35 2324.96 L3403.97 2329.15 L3397.36 2333.22 L3356.93 2357.13 L3345.35 2359.67 L3332.13 2362.09 L3326.92 2363.10 L3326.92 2363.10 Z" stroke-linejoin="round"/>
	</defs>
	<use xlink:href="#path_FSYbViof" style="fill:#9DC8CA;stroke:#9DD7F0;stroke-width:5.76"/>
	<defs>
		<path id="path_BkGGKTYs" d="M3430.80 1259.12 L3430.80 1259.12 L3430.80 1259.12 L3430.17 1263.82 L3408.04 1259.50 L3408.04 1258.61 L3379.05 1261.53 L3376.25 1262.93 L3376.89 1239.66 L3377.40 1233.43 L3373.20 1233.05 L3373.33 1231.02 L3373.46 1229.62 L3373.71 1226.69 L3373.84 1224.02 L3373.96 1220.33 L3373.20 1220.21 L3359.09 1223.64 L3355.53 1228.73 L3353.11 1228.85 L3351.46 1228.98 L3351.46 1230.13 L3347.01 1230.76 L3338.23 1232.29 L3324.12 1234.45 L3295.89 1240.17 L3283.30 1242.33 L3270.46 1244.62 L3268.93 1244.75 L3269.19 1246.02 L3265.88 1246.66 L3262.32 1247.29 L3259.65 1247.80 L3256.73 1248.31 L3254.56 1248.69 L3249.73 1249.71 L3249.10 1249.84 L3247.95 1250.09 L3246.55 1250.34 L3244.14 1250.73 L3239.43 1251.62 L3234.86 1252.38 L3229.77 1253.40 L3227.99 1253.78 L3224.68 1254.41 L3216.29 1256.07 L3211.20 1257.21 L3209.17 1257.46 L3199.51 1259.37 L3192.89 1260.64 L3186.79 1262.04 L3173.06 1264.71 L3169.12 1265.35 L3163.52 1266.49 L3152.58 1268.53 L3147.24 1269.93 L3146.86 1269.29 L3145.72 1268.53 L3139.61 1269.54 L3120.16 1273.49 L3114.69 1273.49 L3111.26 1275.27 L3108.72 1275.01 L3108.46 1274.38 L3106.05 1277.17 L3107.32 1277.81 L3103.25 1278.57 L3100.07 1279.21 L3098.92 1279.46 L3094.86 1279.97 L3063.07 1285.82 L3056.96 1286.97 L3049.97 1288.36 L3040.05 1290.27 L3038.65 1290.53 L3034.20 1291.42 L3025.68 1292.94 L3019.33 1294.34 L3009.79 1296.12 L2998.34 1298.03 L2997.20 1298.28 L2987.41 1299.94 L2984.99 1300.44 L2982.96 1300.83 L2973.68 1302.48 L2965.79 1304.00 L2959.31 1305.40 L2949.01 1307.44 L2932.60 1310.74 L2921.54 1312.52 L2919.51 1312.91 L2917.73 1313.16 L2913.79 1313.80 L2900.05 1315.83 L2899.80 1315.83 L2888.48 1317.48 L2875.64 1319.52 L2869.54 1320.79 L2862.54 1322.06 L2859.11 1322.95 L2854.78 1323.59 L2852.24 1324.10 L2843.72 1325.62 L2839.14 1326.51 L2834.82 1327.27 L2832.79 1327.66 L2826.43 1328.93 L2823.00 1329.56 L2820.58 1330.20 L2815.49 1331.34 L2810.92 1332.23 L2806.97 1333.12 L2802.27 1334.01 L2800.23 1334.52 L2798.84 1334.78 L2792.61 1336.05 L2792.48 1334.52 L2792.10 1332.87 L2790.19 1322.06 L2788.16 1311.13 L2787.65 1307.95 L2786.12 1300.06 L2783.58 1286.33 L2783.20 1283.66 L2778.87 1260.64 L2777.60 1253.78 L2775.57 1242.59 L2775.06 1239.92 L2774.80 1238.65 L2774.30 1236.10 L2771.62 1220.84 L2770.35 1213.85 L2769.72 1210.29 L2767.94 1200.88 L2766.92 1195.16 L2766.67 1193.63 L2766.54 1193.12 L2764.63 1183.08 L2763.11 1174.68 L2761.96 1168.45 L2760.18 1159.04 L2759.16 1153.32 L2758.27 1149.13 L2757.64 1145.44 L2757.38 1143.66 L2756.62 1139.72 L2755.98 1136.54 L2753.31 1122.42 L2753.06 1120.64 L2752.17 1116.45 L2751.41 1112.25 L2750.64 1107.93 L2749.63 1102.71 L2749.50 1101.82 L2748.48 1096.36 L2747.08 1090.00 L2746.19 1084.91 L2745.94 1083.00 L2745.05 1078.04 L2745.05 1078.04 L2744.67 1076.14 L2744.16 1072.96 L2743.90 1071.18 L2743.78 1070.54 L2743.40 1068.25 L2743.40 1067.87 L2742.76 1064.18 L2742.25 1061.13 L2740.09 1050.58 L2739.84 1049.05 L2739.45 1047.40 L2738.69 1044.09 L2737.93 1040.66 L2737.29 1036.97 L2736.28 1031.63 L2735.51 1028.07 L2735.26 1026.16 L2734.37 1022.10 L2733.86 1019.04 L2733.22 1016.37 L2732.84 1014.47 L2731.70 1008.74 L2730.81 1004.42 L2729.92 999.84 L2729.66 998.70 L2729.54 997.68 L2728.52 992.34 L2727.76 988.40 L2726.48 981.79 L2725.59 977.21 L2725.21 975.30 L2724.83 972.38 L2723.56 966.65 L2722.54 961.31 L2722.29 959.53 L2721.40 954.57 L2720.89 952.67 L2719.11 943.26 L2718.47 939.95 L2714.91 921.00 L2713.90 915.41 L2711.73 904.73 L2711.48 903.08 L2715.42 902.06 L2716.95 899.77 L2719.87 881.97 L2722.29 865.82 L2725.72 844.33 L2721.27 845.22 L2716.06 846.24 L2704.99 848.40 L2701.31 849.29 L2695.59 819.53 L2696.73 819.41 L2698.38 819.02 L2699.78 818.77 L2700.93 818.39 L2702.07 818.01 L2705.76 817.75 L2709.83 816.86 L2709.57 815.59 L2708.30 809.74 L2706.27 797.28 L2703.21 797.92 L2702.07 798.04 L2700.93 791.56 L2698.76 779.73 L2697.24 780.11 L2691.39 781.26 L2688.85 781.64 L2688.46 779.99 L2687.70 775.54 L2687.19 772.61 L2686.43 768.80 L2685.92 766.13 L2685.29 762.44 L2684.65 758.50 L2684.01 755.19 L2683.25 750.87 L2681.47 752.39 L2681.09 750.61 L2680.58 747.94 L2680.58 747.43 L2680.45 746.54 L2679.44 740.31 L2677.40 727.34 L2675.62 715.90 L2678.16 719.33 L2716.95 710.05 L2719.11 712.72 L2722.54 711.07 L2723.69 710.69 L2723.94 710.56 L2725.85 709.80 L2728.01 709.16 L2730.43 708.40 L2732.46 707.89 L2736.28 707.13 L2741.62 706.11 L2750.64 704.33 L2754.59 703.56 L2760.69 702.29 L2766.54 701.15 L2771.24 700.13 L2772.64 699.88 L2775.31 699.37 L2785.74 697.21 L2787.14 696.83 L2790.95 696.06 L2794.89 695.30 L2805.07 693.65 L2807.10 693.14 L2808.63 692.88 L2809.39 692.63 L2810.53 692.37 L2811.93 691.99 L2814.60 691.48 L2817.40 690.85 L2820.20 690.21 L2823.89 689.45 L2827.32 688.81 L2829.74 688.31 L2831.77 687.92 L2833.42 687.54 L2837.87 686.65 L2842.71 685.76 L2848.81 684.49 L2853.77 683.47 L2857.58 682.71 L2864.45 681.44 L2865.85 681.19 L2868.90 680.55 L2870.17 680.29 L2875.00 679.28 L2880.98 678.01 L2884.67 677.12 L2884.41 675.97 L2884.29 674.95 L2884.03 674.45 L2883.90 673.17 L2883.78 672.03 L2884.03 670.38 L2886.45 664.65 L2886.57 663.51 L2886.19 662.37 L2886.07 661.98 L2885.05 661.09 L2876.91 657.03 L2869.15 653.34 L2860.51 649.01 L2860.13 648.63 L2859.62 648.00 L2858.85 645.96 L2858.60 644.95 L2857.33 637.06 L2856.18 631.08 L2865.97 632.36 L2869.92 630.45 L2871.57 623.71 L2873.10 617.35 L2869.92 611.38 L2871.32 608.83 L2867.25 604.64 L2871.19 595.23 L2872.97 592.30 L2873.86 591.67 L2875.13 591.03 L2883.65 589.25 L2888.23 580.73 L2936.80 569.92 L2939.98 567.89 L2941.00 567.25 L2941.25 569.03 L2943.03 578.70 L2944.81 589.25 L2945.19 591.79 L2945.57 593.45 L2945.57 594.08 L2945.70 594.72 L2946.08 596.12 L2947.86 603.49 L2949.64 612.90 L2950.03 615.95 L2951.42 622.95 L2951.81 624.98 L2958.54 662.11 L2958.80 663.51 L2959.31 663.51 L2960.07 663.38 L2961.60 663.13 L2977.62 660.33 L2981.18 659.95 L2982.70 659.82 L2983.98 659.57 L2988.68 659.19 L3002.29 659.06 L3008.39 659.44 L3013.86 659.95 L3022.76 661.35 L3045.90 666.18 L3045.77 664.91 L3047.05 657.92 L3047.81 653.21 L3050.22 620.91 L3050.61 607.69 L3050.48 606.16 L3051.62 606.16 L3052.89 606.29 L3053.40 602.60 L3054.04 586.33 L3054.17 584.55 L3059.25 529.87 L3070.19 526.94 L3070.06 525.67 L3069.68 523.76 L3079.98 523.25 L3081.50 523.00 L3092.95 520.71 L3125.12 514.48 L3125.50 516.52 L3127.03 516.01 L3173.69 502.02 L3181.07 501.38 L3182.59 501.13 L3185.26 500.75 L3195.56 499.35 L3204.85 498.33 L3209.04 497.57 L3211.97 496.93 L3214.26 496.42 L3216.93 495.92 L3230.15 494.39 L3242.87 491.97 L3247.57 491.08 L3249.61 490.70 L3256.73 489.43 L3286.99 483.96 L3291.95 483.07 L3301.36 481.29 L3315.60 478.75 L3329.20 476.33 L3343.45 473.66 L3350.31 472.39 L3356.42 471.12 L3364.94 469.59 L3369.39 468.83 L3371.04 468.58 L3382.48 466.42 L3384.52 466.03 L3390.37 496.30 L3395.96 495.28 L3398.51 496.30 L3399.40 497.19 L3400.67 499.48 L3403.34 497.31 L3414.27 495.66 L3418.47 462.35 L3418.47 459.42 L3426.61 457.77 L3428.64 457.51 L3432.20 457.01 L3438.43 455.99 L3449.62 453.95 L3450.89 453.70 L3452.17 453.45 L3452.42 456.62 L3454.33 455.86 L3454.07 453.95 L3453.95 452.94 L3460.68 451.79 L3468.70 450.52 L3482.56 447.98 L3495.65 445.31 L3497.31 445.05 L3534.56 437.93 L3547.53 435.39 L3548.17 435.26 L3560.50 432.85 L3561.14 432.72 L3573.98 430.30 L3587.20 427.76 L3599.79 425.34 L3624.21 420.77 L3646.46 416.57 L3648.49 416.06 L3650.40 415.68 L3652.18 415.42 L3654.09 414.92 L3655.11 414.79 L3656.76 414.41 L3669.73 411.61 L3675.96 407.54 L3676.60 418.10 L3676.85 419.75 L3671.38 420.77 L3672.53 427.63 L3669.73 437.93 L3675.45 462.09 L3677.49 479.77 L3677.61 487.01 L3682.95 486.00 L3690.84 484.47 L3702.15 482.18 L3712.07 480.02 L3712.84 479.89 L3725.93 477.22 L3752.89 471.76 L3754.54 471.37 L3753.27 464.00 L3741.70 406.78 L3737.76 409.83 L3735.60 411.10 L3732.80 396.99 L3737.76 395.97 L3739.41 395.72 L3741.06 395.46 L3774.38 388.72 L3775.65 388.34 L3823.33 376.26 L3824.73 380.84 L3844.95 376.90 L3847.11 376.64 L3847.75 380.46 L3848.38 385.54 L3849.02 385.29 L3849.66 388.34 L3850.29 389.87 L3849.91 392.66 L3850.42 395.33 L3857.54 394.32 L3887.55 388.47 L3894.41 387.07 L3896.83 399.15 L3909.04 472.01 L3910.18 517.28 L3931.93 588.87 L3930.91 631.72 L3932.82 643.80 L3942.35 691.36 L3952.52 744.76 L3958.50 819.28 L3951.38 818.77 L3949.47 818.13 L3954.56 855.39 L3963.97 926.60 L3964.60 935.25 L3964.73 936.26 L3964.99 937.92 L3965.24 939.44 L3965.49 941.48 L3965.75 943.13 L3965.88 943.77 L3966.13 944.66 L3966.26 945.42 L3966.89 947.45 L3971.98 955.59 L3973.38 961.57 L3974.65 970.72 L3974.52 974.92 L3974.27 975.30 L3973.38 977.59 L3974.14 985.47 L3974.14 996.54 L3972.36 1002.64 L3970.33 1004.29 L3966.51 1011.67 L3964.73 1024.38 L3961.81 1046.26 L3958.76 1068.51 L3945.15 1088.34 L3942.48 1092.16 L3935.49 1099.41 L3914.00 1117.21 L3906.75 1120.39 L3881.70 1131.45 L3878.90 1130.69 L3878.39 1130.43 L3877.63 1128.65 L3876.10 1127.76 L3875.85 1127.76 L3875.60 1127.89 L3875.34 1127.64 L3871.02 1128.27 L3866.82 1129.16 L3802.86 1142.01 L3792.05 1144.55 L3782.26 1146.58 L3780.61 1146.84 L3779.59 1146.96 L3778.96 1146.96 L3778.58 1146.84 L3778.19 1146.71 L3777.56 1146.33 L3776.67 1146.71 L3775.65 1147.22 L3774.63 1147.73 L3773.36 1148.11 L3772.47 1148.36 L3770.06 1149.00 L3767.89 1149.51 L3765.61 1149.89 L3763.82 1150.40 L3761.41 1150.78 L3754.67 1152.05 L3739.03 1155.10 L3729.62 1156.88 L3726.31 1157.52 L3721.61 1158.41 L3715.00 1159.68 L3701.77 1162.10 L3699.23 1162.48 L3693.76 1163.50 L3689.95 1164.13 L3688.42 1164.39 L3686.90 1164.51 L3687.15 1170.11 L3687.40 1177.99 L3687.66 1182.57 L3687.66 1184.09 L3687.66 1185.24 L3687.79 1188.04 L3687.91 1189.56 L3688.17 1194.90 L3688.17 1195.67 L3688.55 1205.08 L3688.80 1209.78 L3688.80 1211.05 L3682.83 1210.42 L3675.96 1210.03 L3672.27 1210.16 L3663.24 1210.16 L3658.16 1210.54 L3656.25 1211.05 L3646.97 1213.98 L3643.66 1214.23 L3642.01 1214.61 L3629.42 1218.05 L3625.35 1218.81 L3620.90 1219.70 L3618.49 1220.21 L3613.65 1221.10 L3607.93 1222.11 L3606.66 1222.37 L3605.26 1222.62 L3597.89 1223.90 L3596.36 1224.28 L3586.70 1226.18 L3580.97 1227.33 L3579.83 1227.58 L3578.30 1227.84 L3568.39 1228.35 L3536.47 1234.96 L3498.58 1242.08 L3485.10 1244.62 L3485.35 1245.89 L3474.80 1248.06 L3466.15 1249.84 L3465.90 1249.84 L3453.82 1252.25 L3453.31 1252.25 L3440.47 1254.79 L3439.20 1254.92 L3437.67 1255.18 L3436.02 1255.43 L3434.74 1255.68 L3430.80 1259.12 L3430.80 1259.12 Z" stroke-linejoin="round"/>
	</defs>
	<use xlink:href="#path_BkGGKTYs" style="fill:#9DC8CA;stroke:#9DD7F0;stroke-width:5.76"/>
	<defs>
		<path id="path_qJBIYklb" d="M2257.40 2378.23 L2257.40 2378.23 L2256.64 2379.51 L2255.62 2378.36 L2254.73 2372.64 L2252.19 2364.76 L2241.00 2304.86 L2235.15 2235.82 L2231.08 2212.80 L2227.90 2191.95 L2220.28 2149.60 L2211.25 2120.74 L2203.11 2068.61 L2201.46 2060.85 L2200.44 2054.87 L2193.45 2049.15 L2189.63 2049.91 L2185.56 2050.29 L2180.86 2051.06 L2173.48 2052.71 L2161.66 2054.62 L2159.49 2055.13 L2155.68 2055.76 L2133.30 2060.09 L2114.74 2063.14 L2097.82 2066.44 L2070.99 2071.15 L2044.67 2075.85 L2030.30 2078.65 L2005.89 2082.97 L2002.08 2083.74 L1986.69 2086.41 L1983.89 2086.92 L1920.44 2098.49 L1903.91 2101.54 L1819.10 2116.93 L1767.85 2126.33 L1704.53 2137.91 L1697.54 2139.18 L1695.50 2139.56 L1687.49 2141.09 L1633.32 2150.88 L1583.10 2159.90 L1490.91 2176.44 L1486.20 2177.20 L1485.18 2173.26 L1466.24 2072.04 L1465.73 2068.99 L1460.39 2039.23 L1459.37 2033.13 L1456.45 2016.47 L1441.19 1930.13 L1445.13 1929.24 L1439.28 1890.84 L1435.85 1882.95 L1432.03 1875.83 L1431.14 1869.98 L1430.25 1866.42 L1427.07 1854.73 L1426.31 1855.23 L1425.04 1848.37 L1426.69 1848.62 L1417.41 1790.77 L1411.43 1759.36 L1399.61 1697.18 L1403.81 1695.14 L1397.83 1659.79 L1395.16 1644.15 L1394.65 1639.96 L1393.12 1633.60 L1394.78 1626.22 L1397.07 1615.80 L1396.30 1615.03 L1395.92 1613.76 L1394.14 1605.50 L1393.63 1599.01 L1390.71 1586.17 L1390.45 1584.26 L1391.22 1582.86 L1395.16 1582.23 L1394.52 1578.67 L1383.46 1515.60 L1363.24 1399.25 L1362.86 1397.85 L1362.86 1397.59 L1362.99 1397.47 L1362.86 1397.21 L1360.70 1384.75 L1359.55 1377.63 L1357.90 1374.07 L1357.39 1370.64 L1356.76 1366.69 L1357.14 1364.15 L1357.14 1363.90 L1354.60 1352.20 L1352.56 1335.79 L1351.80 1331.60 L1361.33 1330.20 L1364.90 1329.56 L1367.18 1329.18 L1375.83 1327.91 L1392.49 1325.37 L1395.54 1324.99 L1397.96 1324.60 L1400.63 1324.22 L1406.86 1323.33 L1414.49 1322.06 L1416.52 1321.81 L1430.76 1319.65 L1432.42 1319.39 L1435.85 1318.63 L1441.32 1317.86 L1447.80 1316.97 L1460.64 1315.07 L1475.90 1312.65 L1478.19 1312.52 L1483.79 1311.51 L1498.79 1309.35 L1504.64 1308.46 L1507.44 1307.95 L1512.01 1307.18 L1513.54 1306.93 L1528.04 1303.88 L1530.83 1302.99 L1535.67 1301.08 L1537.57 1300.32 L1541.90 1298.41 L1546.73 1296.25 L1550.67 1294.34 L1553.85 1292.94 L1558.17 1291.16 L1560.21 1290.27 L1563.77 1289.13 L1565.67 1288.62 L1566.57 1288.36 L1569.49 1287.60 L1572.67 1286.84 L1575.21 1286.33 L1575.34 1286.33 L1578.14 1285.95 L1581.19 1285.44 L1585.26 1284.80 L1591.36 1283.91 L1594.79 1283.41 L1598.74 1282.64 L1600.77 1282.26 L1602.80 1281.75 L1605.73 1280.86 L1609.04 1279.46 L1611.45 1278.45 L1611.96 1278.19 L1613.74 1277.30 L1616.92 1275.65 L1620.10 1273.87 L1623.53 1271.83 L1626.84 1269.93 L1629.63 1268.27 L1635.48 1264.84 L1657.35 1252.00 L1662.95 1248.95 L1666.00 1247.29 L1666.64 1247.04 L1668.67 1246.02 L1671.09 1244.88 L1673.25 1243.99 L1675.67 1242.97 L1676.17 1242.84 L1679.61 1241.57 L1682.15 1240.81 L1683.17 1240.55 L1685.58 1239.92 L1690.67 1238.90 L1692.58 1238.65 L1717.50 1234.83 L1721.44 1234.19 L1726.27 1233.43 L1728.05 1233.18 L1730.47 1232.80 L1734.92 1232.16 L1740.77 1231.27 L1745.22 1230.63 L1748.40 1230.13 L1750.31 1229.74 L1755.90 1228.98 L1756.79 1228.85 L1760.22 1228.35 L1765.18 1227.46 L1770.52 1226.57 L1778.28 1225.42 L1778.66 1225.42 L1782.98 1224.53 L1786.04 1224.02 L1786.67 1223.90 L1790.61 1223.00 L1790.87 1222.88 L1794.68 1221.99 L1798.75 1221.10 L1806.76 1218.81 L1808.16 1218.43 L1810.07 1217.79 L1821.77 1214.87 L1827.11 1213.34 L1832.32 1212.07 L1835.88 1211.05 L1844.53 1209.02 L1844.27 1205.20 L1852.67 1203.42 L1857.12 1202.41 L1865.89 1200.75 L1873.90 1199.48 L1882.04 1198.21 L1884.58 1197.83 L1886.11 1197.70 L1887.63 1197.32 L1892.09 1196.56 L1890.30 1197.57 L1889.67 1197.95 L1888.91 1198.34 L1887.89 1199.10 L1891.45 1200.37 L1913.07 1197.19 L1916.75 1196.81 L1925.78 1195.28 L1932.01 1194.27 L1934.30 1194.01 L1939.26 1193.25 L1947.53 1191.85 L1949.56 1191.47 L1954.52 1190.45 L1957.06 1190.07 L1958.21 1189.82 L1964.31 1188.80 L1971.30 1187.66 L1973.85 1187.15 L1977.66 1186.51 L1986.31 1185.11 L1990.76 1184.48 L1993.94 1183.97 L2005.00 1182.57 L2008.05 1182.06 L2010.72 1181.68 L2011.99 1181.55 L2014.28 1181.30 L2015.17 1181.17 L2018.35 1180.66 L2022.42 1180.15 L2025.22 1179.77 L2027.38 1179.39 L2039.08 1177.74 L2041.37 1177.36 L2045.31 1176.72 L2044.93 1173.54 L2054.59 1172.01 L2067.05 1170.23 L2071.25 1169.73 L2080.53 1168.58 L2082.18 1168.45 L2091.59 1167.06 L2107.11 1165.02 L2108.50 1164.77 L2116.01 1163.75 L2125.67 1162.22 L2130.88 1161.46 L2132.66 1161.33 L2143.35 1159.81 L2144.74 1159.68 L2150.59 1159.17 L2151.23 1162.22 L2153.14 1173.92 L2153.39 1174.94 L2153.90 1178.12 L2154.15 1179.90 L2154.79 1183.33 L2155.17 1185.24 L2155.68 1188.16 L2157.08 1196.30 L2157.33 1198.59 L2161.02 1219.70 L2161.78 1224.15 L2164.07 1236.99 L2164.84 1241.70 L2165.34 1244.75 L2167.76 1259.50 L2167.89 1260.52 L2170.94 1278.32 L2172.59 1287.86 L2173.61 1294.09 L2174.24 1298.16 L2175.52 1304.89 L2177.17 1315.58 L2178.06 1320.54 L2178.19 1321.93 L2178.82 1325.37 L2179.46 1328.93 L2182.00 1343.68 L2184.80 1343.30 L2185.05 1345.08 L2186.07 1350.93 L2186.96 1356.78 L2187.72 1361.48 L2188.23 1364.28 L2188.49 1366.06 L2190.01 1374.96 L2192.43 1388.69 L2195.10 1405.10 L2195.35 1407.00 L2195.73 1410.44 L2197.01 1417.68 L2198.02 1422.64 L2200.69 1437.65 L2201.71 1443.62 L2202.09 1446.42 L2199.42 1447.06 L2200.18 1452.02 L2202.60 1466.64 L2204.76 1479.23 L2205.40 1482.79 L2206.03 1486.35 L2207.31 1494.23 L2207.69 1496.27 L2208.58 1501.61 L2209.98 1510.38 L2210.87 1514.83 L2211.63 1519.28 L2212.77 1526.15 L2213.15 1528.82 L2213.41 1530.09 L2215.06 1541.41 L2217.10 1554.76 L2218.88 1564.93 L2218.88 1565.19 L2219.64 1570.27 L2221.93 1583.75 L2222.18 1585.53 L2224.47 1598.12 L2224.98 1600.66 L2225.49 1603.59 L2225.74 1605.50 L2228.16 1620.25 L2228.54 1622.79 L2231.47 1640.85 L2231.59 1641.48 L2232.99 1649.49 L2233.88 1654.45 L2234.26 1656.87 L2235.66 1665.01 L2236.30 1669.08 L2236.55 1670.98 L2237.31 1675.31 L2239.60 1688.28 L2239.98 1691.20 L2240.75 1695.91 L2242.27 1705.19 L2242.78 1707.35 L2243.29 1710.91 L2243.42 1711.67 L2244.18 1715.61 L2245.07 1720.57 L2245.33 1722.35 L2245.58 1724.01 L2246.60 1730.49 L2247.61 1736.21 L2247.87 1737.87 L2248.76 1743.46 L2249.52 1747.15 L2252.32 1746.64 L2252.70 1749.06 L2255.12 1762.92 L2256.01 1768.13 L2256.26 1769.53 L2257.02 1773.85 L2257.15 1774.36 L2257.91 1778.81 L2258.80 1783.52 L2259.44 1787.71 L2259.57 1788.73 L2261.09 1798.14 L2262.24 1804.37 L2262.24 1804.63 L2262.62 1806.53 L2262.87 1807.55 L2263.38 1810.98 L2264.14 1815.94 L2264.65 1819.50 L2264.91 1821.79 L2265.16 1824.21 L2265.29 1825.61 L2265.42 1827.51 L2265.54 1830.44 L2265.67 1831.96 L2265.80 1834.25 L2265.80 1836.16 L2265.80 1839.09 L2265.80 1841.12 L2265.54 1846.59 L2265.29 1848.49 L2265.16 1850.40 L2264.78 1853.96 L2264.65 1855.87 L2268.85 1887.15 L2270.88 1898.98 L2272.28 1907.62 L2273.68 1915.63 L2277.24 1932.93 L2278.51 1938.90 L2282.58 1957.21 L2284.23 1964.59 L2284.49 1966.50 L2284.87 1969.29 L2284.74 1973.36 L2285.89 1974.76 L2284.23 1978.96 L2283.85 1979.09 L2283.09 1979.34 L2282.58 1979.47 L2282.20 1979.59 L2281.82 1979.98 L2281.31 1980.23 L2280.93 1980.61 L2280.55 1980.99 L2280.17 1981.37 L2279.91 1981.88 L2279.78 1982.14 L2279.40 1982.90 L2279.28 1983.54 L2277.11 1985.95 L2276.73 1986.84 L2276.22 1987.61 L2275.33 1988.50 L2274.19 1989.26 L2273.05 1989.64 L2271.39 1990.28 L2270.88 1990.66 L2269.87 1991.04 L2267.20 1991.67 L2265.67 1992.82 L2235.28 2029.57 L2233.12 2036.05 L2234.90 2040.76 L2231.85 2041.65 L2252.95 2038.09 L2306.23 2027.91 L2334.59 2021.56 L2339.17 2021.30 L2345.02 2021.18 L2380.87 2014.18 L2399.44 2011.00 L2412.28 2008.08 L2414.32 2007.32 L2428.05 2001.72 L2433.39 2000.32 L2437.97 1999.43 L2444.71 1998.54 L2444.20 1999.69 L2434.79 2017.87 L2431.10 2025.37 L2428.56 2030.46 L2423.73 2040.50 L2420.93 2046.48 L2419.66 2049.15 L2416.99 2055.25 L2410.88 2067.72 L2405.16 2079.03 L2393.84 2102.94 L2392.44 2105.86 L2391.43 2107.77 L2388.38 2113.62 L2380.49 2129.26 L2371.72 2146.81 L2364.22 2161.81 L2353.79 2182.79 L2352.77 2185.21 L2347.69 2195.13 L2345.65 2199.20 L2343.49 2203.77 L2337.89 2215.09 L2322.51 2246.88 L2314.63 2262.27 L2309.41 2273.08 L2306.61 2278.54 L2294.53 2303.34 L2265.92 2360.81 L2265.29 2362.09 L2257.40 2378.23 L2257.40 2378.23 Z" stroke-linejoin="round"/>
	</defs>
	<use xlink:href="#path_qJBIYklb" style="fill:#6BACAF;stroke:#6BB4D2;stroke-width:5.76"/>
	<defs>
		<path id="path_vunEzXGi" d="M2413.68 1171.51 L2413.68 1171.51 L2413.68 1171.51 L2413.17 1172.40 L2411.90 1174.30 L2410.25 1175.83 L2408.47 1176.59 L2382.40 1180.79 L2381.00 1181.17 L2377.95 1179.14 L2375.79 1177.61 L2373.75 1176.21 L2371.46 1174.56 L2369.68 1172.78 L2367.90 1170.11 L2366.76 1168.45 L2365.49 1166.29 L2364.60 1164.51 L2363.58 1162.10 L2362.69 1159.93 L2361.80 1157.65 L2361.04 1154.98 L2360.53 1152.43 L2360.15 1150.02 L2360.15 1147.98 L2360.02 1145.82 L2360.27 1143.79 L2360.53 1141.24 L2360.78 1138.57 L2361.04 1136.28 L2361.29 1134.38 L2361.55 1131.45 L2361.42 1129.29 L2361.16 1127.51 L2360.91 1126.36 L2360.02 1125.22 L2359.64 1123.31 L2359.00 1120.26 L2353.15 1121.41 L2350.61 1121.91 L2343.24 1123.31 L2336.37 1124.71 L2324.29 1127.13 L2318.82 1128.02 L2307.25 1130.31 L2302.29 1131.32 L2296.82 1132.34 L2292.88 1133.10 L2288.18 1134.12 L2284.74 1134.76 L2280.55 1135.65 L2267.32 1138.32 L2260.08 1139.59 L2248.89 1141.75 L2248.50 1141.88 L2244.31 1142.64 L2234.39 1144.55 L2229.68 1145.44 L2222.44 1146.84 L2219.77 1147.35 L2220.40 1150.52 L2212.90 1152.05 L2206.67 1153.32 L2202.73 1154.21 L2198.40 1155.10 L2196.12 1155.48 L2191.92 1156.25 L2190.78 1156.50 L2180.98 1158.15 L2180.09 1158.28 L2176.28 1158.92 L2175.13 1159.04 L2172.59 1159.43 L2169.29 1159.81 L2164.07 1160.57 L2154.41 1161.84 L2151.23 1162.22 L2150.59 1159.17 L2144.74 1159.68 L2143.35 1159.81 L2132.66 1161.33 L2130.88 1161.46 L2125.67 1162.22 L2116.01 1163.75 L2108.50 1164.77 L2107.11 1165.02 L2091.59 1167.06 L2082.18 1168.45 L2080.53 1168.58 L2071.25 1169.73 L2067.05 1170.23 L2054.59 1172.01 L2044.93 1173.54 L2045.31 1176.72 L2041.37 1177.36 L2039.08 1177.74 L2027.38 1179.39 L2025.22 1179.77 L2022.42 1180.15 L2018.35 1180.66 L2015.17 1181.17 L2014.28 1181.30 L2011.99 1181.55 L2010.72 1181.68 L2008.05 1182.06 L2005.00 1182.57 L1993.94 1183.97 L1990.76 1184.48 L1986.31 1185.11 L1977.66 1186.51 L1973.85 1187.15 L1971.30 1187.66 L1964.31 1188.80 L1958.21 1189.82 L1957.06 1190.07 L1954.52 1190.45 L1949.56 1191.47 L1947.53 1191.85 L1939.26 1193.25 L1934.30 1194.01 L1932.01 1194.27 L1925.78 1195.28 L1916.75 1196.81 L1913.07 1197.19 L1891.45 1200.37 L1887.89 1199.10 L1888.91 1198.34 L1889.67 1197.95 L1890.30 1197.57 L1892.09 1196.56 L1887.63 1197.32 L1886.11 1197.70 L1884.58 1197.83 L1884.33 1196.81 L1883.31 1190.58 L1883.06 1189.05 L1882.68 1186.76 L1880.39 1174.18 L1878.86 1165.02 L1876.32 1151.03 L1873.65 1135.90 L1871.61 1125.09 L1870.09 1117.21 L1868.31 1107.55 L1867.93 1105.51 L1867.04 1100.93 L1864.75 1088.85 L1864.36 1086.44 L1863.47 1081.86 L1863.35 1080.72 L1862.97 1078.43 L1861.44 1069.78 L1860.93 1066.98 L1860.68 1065.84 L1860.55 1064.95 L1860.04 1061.77 L1858.39 1052.99 L1857.88 1050.20 L1857.50 1047.91 L1856.99 1044.09 L1856.23 1039.52 L1855.85 1036.97 L1853.43 1023.88 L1853.05 1022.10 L1852.92 1020.95 L1852.67 1019.68 L1851.90 1016.25 L1851.52 1013.58 L1850.89 1010.27 L1849.87 1005.31 L1849.74 1005.06 L1849.11 1002.13 L1848.98 1001.11 L1848.22 997.43 L1847.83 995.39 L1847.07 990.69 L1846.31 986.75 L1845.42 981.79 L1845.29 981.02 L1845.04 979.62 L1843.26 970.47 L1842.62 966.40 L1841.35 960.55 L1840.97 957.88 L1840.21 953.43 L1838.55 943.89 L1838.30 942.37 L1837.28 936.77 L1836.64 933.47 L1836.01 929.91 L1835.25 925.33 L1834.74 923.17 L1833.72 916.94 L1832.45 909.43 L1831.94 906.64 L1831.81 905.87 L1831.30 902.44 L1830.29 896.21 L1829.65 892.78 L1829.40 891.38 L1829.02 889.60 L1828.63 887.31 L1828.38 886.29 L1828.00 883.49 L1827.87 882.22 L1827.62 879.81 L1827.24 877.90 L1825.96 869.63 L1825.33 865.44 L1824.69 861.88 L1824.44 860.48 L1824.18 859.33 L1823.55 855.90 L1823.17 854.12 L1822.66 851.32 L1822.66 851.20 L1821.13 842.68 L1819.61 833.77 L1817.70 823.86 L1817.32 821.82 L1816.17 815.59 L1815.66 813.17 L1814.01 804.40 L1813.63 802.11 L1813.25 799.57 L1812.61 795.75 L1812.23 793.47 L1811.47 789.91 L1810.83 786.47 L1809.69 780.62 L1809.05 777.70 L1808.29 774.14 L1806.89 768.92 L1804.98 761.55 L1803.33 755.83 L1801.42 748.83 L1800.15 744.64 L1799.64 742.98 L1799.01 740.95 L1796.84 732.68 L1796.46 731.29 L1796.08 729.89 L1795.95 728.87 L1794.94 724.93 L1794.43 722.64 L1792.78 715.52 L1792.14 711.83 L1791.76 708.91 L1791.38 706.24 L1791.00 704.20 L1790.74 702.29 L1790.49 700.89 L1790.11 698.86 L1789.60 695.94 L1789.22 694.03 L1788.71 692.12 L1787.18 685.00 L1785.66 676.86 L1785.53 676.10 L1785.02 673.17 L1784.77 671.52 L1784.64 670.50 L1783.11 659.82 L1782.86 658.04 L1782.48 655.37 L1781.84 651.68 L1781.46 649.90 L1781.20 648.12 L1779.93 639.86 L1779.42 635.66 L1779.42 635.54 L1779.04 633.25 L1778.15 627.65 L1776.50 611.25 L1776.50 609.98 L1776.37 608.71 L1776.12 604.13 L1775.86 601.33 L1775.61 597.77 L1775.48 595.23 L1775.23 592.81 L1775.10 591.03 L1774.97 589.76 L1774.72 586.45 L1773.96 580.48 L1773.58 577.30 L1773.45 576.92 L1772.43 570.18 L1770.65 559.11 L1769.51 553.14 L1766.07 534.06 L1763.02 516.01 L1762.51 512.70 L1761.11 505.71 L1760.22 500.88 L1760.10 499.98 L1758.57 492.99 L1758.32 491.72 L1757.94 489.81 L1757.05 484.98 L1754.76 472.52 L1753.48 465.02 L1752.34 459.80 L1748.53 441.87 L1748.14 439.33 L1746.49 431.83 L1745.09 425.47 L1743.69 418.73 L1742.80 414.53 L1738.48 394.06 L1737.84 391.01 L1736.95 386.31 L1734.67 375.62 L1730.85 359.09 L1727.54 344.60 L1724.75 331.12 L1724.24 329.21 L1723.98 327.69 L1722.46 320.69 L1721.44 316.62 L1720.68 312.30 L1719.79 307.21 L1719.28 304.67 L1719.15 304.29 L1718.26 299.84 L1717.50 297.04 L1717.50 296.79 L1716.86 294.24 L1716.86 294.12 L1715.34 286.36 L1714.19 280.13 L1714.07 279.49 L1711.65 267.29 L1709.87 257.37 L1709.74 256.10 L1708.47 248.47 L1708.22 247.45 L1706.31 236.77 L1705.80 234.73 L1705.55 233.21 L1703.26 220.87 L1702.88 218.97 L1702.37 216.42 L1702.11 214.52 L1699.82 201.93 L1698.30 193.66 L1696.90 185.40 L1696.39 182.73 L1694.87 174.71 L1694.10 170.26 L1692.20 160.60 L1691.94 158.95 L1691.31 156.02 L1690.29 151.06 L1688.89 143.56 L1688.38 140.51 L1688.00 138.98 L1687.74 137.58 L1687.11 134.53 L1686.85 133.13 L1686.85 132.88 L1686.09 129.07 L1686.85 122.33 L1688.13 121.94 L1689.78 121.69 L1692.45 121.31 L1696.65 120.67 L1727.80 115.08 L1738.86 113.04 L1748.53 111.52 L1767.34 108.34 L1784.26 105.41 L1795.70 103.51 L1806.51 101.85 L1861.06 92.83 L1863.47 92.44 L1883.57 89.39 L1900.48 86.98 L1908.11 85.70 L1910.78 85.32 L1948.16 79.09 L1954.01 78.33 L1964.56 76.29 L1966.47 76.04 L1968.12 75.40 L1971.81 74.51 L1985.67 71.84 L1992.41 70.57 L2010.34 67.52 L2025.47 64.98 L2074.17 56.46 L2104.82 51.50 L2110.16 50.61 L2121.22 48.96 L2227.65 31.15 L2239.22 29.25 L2242.27 28.74 L2244.56 28.36 L2245.07 31.66 L2245.45 33.70 L2272.79 184.89 L2275.97 203.20 L2276.35 204.85 L2281.44 230.66 L2281.69 232.44 L2283.47 232.32 L2283.73 233.72 L2284.36 236.64 L2285.51 242.49 L2293.90 282.54 L2315.39 385.42 L2316.79 392.03 L2322.25 418.10 L2324.29 428.01 L2325.69 434.50 L2331.54 455.86 L2332.81 463.62 L2334.21 470.61 L2334.46 471.63 L2334.97 474.93 L2335.86 479.39 L2335.99 480.15 L2336.24 482.06 L2336.50 483.45 L2338.66 495.28 L2342.09 512.70 L2346.16 530.38 L2349.08 545.63 L2350.86 554.28 L2354.55 573.48 L2363.07 616.72 L2373.50 674.83 L2390.28 768.29 L2396.64 803.26 L2397.91 804.66 L2398.80 804.53 L2401.85 804.02 L2405.41 803.38 L2419.02 800.97 L2426.52 799.82 L2430.85 799.19 L2475.10 792.45 L2481.45 791.18 L2519.86 779.99 L2561.31 770.96 L2561.69 770.83 L2667.23 750.99 L2677.66 737.90 L2679.44 740.31 L2680.45 746.54 L2680.58 747.43 L2680.58 747.94 L2681.09 750.61 L2681.47 752.39 L2683.25 750.87 L2684.01 755.19 L2684.65 758.50 L2685.29 762.44 L2685.92 766.13 L2686.43 768.80 L2687.19 772.61 L2687.70 775.54 L2688.46 779.99 L2688.85 781.64 L2691.39 781.26 L2697.24 780.11 L2698.76 779.73 L2700.93 791.56 L2702.07 798.04 L2703.21 797.92 L2706.27 797.28 L2708.30 809.74 L2709.57 815.59 L2709.83 816.86 L2705.76 817.75 L2702.07 818.01 L2700.93 818.39 L2699.78 818.77 L2698.38 819.02 L2696.73 819.41 L2695.59 819.53 L2701.31 849.29 L2704.99 848.40 L2716.06 846.24 L2721.27 845.22 L2725.72 844.33 L2722.29 865.82 L2719.87 881.97 L2716.95 899.77 L2715.42 902.06 L2711.48 903.08 L2711.73 904.73 L2713.90 915.41 L2714.91 921.00 L2718.47 939.95 L2719.11 943.26 L2720.89 952.67 L2721.40 954.57 L2722.29 959.53 L2722.54 961.31 L2723.56 966.65 L2724.83 972.38 L2725.21 975.30 L2725.59 977.21 L2726.48 981.79 L2727.76 988.40 L2728.52 992.34 L2729.54 997.68 L2729.66 998.70 L2729.92 999.84 L2730.81 1004.42 L2731.70 1008.74 L2732.84 1014.47 L2733.22 1016.37 L2733.86 1019.04 L2734.37 1022.10 L2735.26 1026.16 L2735.51 1028.07 L2736.28 1031.63 L2737.29 1036.97 L2737.93 1040.66 L2738.69 1044.09 L2739.45 1047.40 L2739.84 1049.05 L2740.09 1050.58 L2738.69 1050.96 L2736.78 1051.34 L2730.30 1052.74 L2727.37 1053.25 L2721.02 1054.39 L2718.73 1054.90 L2714.02 1055.67 L2710.21 1056.43 L2704.23 1057.45 L2698.13 1058.59 L2693.93 1059.35 L2690.37 1059.99 L2688.21 1060.37 L2685.79 1060.75 L2682.62 1061.39 L2673.33 1063.04 L2671.17 1063.42 L2661.38 1065.07 L2658.07 1065.58 L2656.55 1065.84 L2654.39 1066.35 L2652.86 1066.60 L2643.58 1068.38 L2638.37 1069.40 L2629.72 1070.92 L2623.61 1072.07 L2622.34 1072.32 L2619.16 1072.96 L2612.43 1074.23 L2600.47 1076.65 L2587.12 1079.06 L2582.16 1080.08 L2577.33 1081.10 L2565.50 1083.64 L2557.11 1085.17 L2552.92 1085.93 L2544.27 1087.71 L2539.69 1088.60 L2527.23 1091.14 L2515.15 1093.69 L2528.37 1089.49 L2519.35 1090.76 L2505.36 1093.69 L2503.07 1094.07 L2490.61 1096.74 L2486.67 1097.50 L2461.11 1102.84 L2458.69 1103.22 L2453.61 1104.24 L2451.70 1104.62 L2450.30 1104.88 L2446.74 1105.51 L2446.87 1106.40 L2446.87 1107.16 L2446.99 1108.69 L2446.99 1109.71 L2446.74 1110.98 L2446.49 1112.12 L2446.10 1113.14 L2445.47 1114.54 L2445.09 1115.56 L2444.58 1116.70 L2444.20 1117.72 L2443.43 1119.24 L2442.42 1120.90 L2441.40 1122.30 L2440.00 1124.20 L2432.88 1131.96 L2427.79 1137.55 L2425.00 1140.73 L2423.09 1142.90 L2422.33 1143.79 L2421.56 1144.80 L2421.05 1145.44 L2416.99 1152.43 L2415.33 1157.39 L2414.19 1161.46 L2413.68 1164.77 L2413.43 1167.31 L2413.68 1171.51 L2413.68 1171.51 Z" stroke-linejoin="round"/>
	</defs>
	<use xlink:href="#path_vunEzXGi" style="fill:#6BACAF;stroke:#6BB4D2;stroke-width:5.76"/>
	<defs>
		<path id="path_YjjrCoyb" d="M1530.83 1302.99 L1530.83 1302.99 L1530.33 1300.06 L1543.42 1293.83 L1548.38 1291.42 L1552.70 1289.51 L1554.61 1288.62 L1556.90 1287.86 L1558.94 1287.09 L1561.35 1286.33 L1565.17 1285.19 L1569.11 1284.17 L1572.54 1283.41 L1576.23 1282.64 L1579.53 1282.13 L1583.35 1281.62 L1590.72 1280.48 L1594.79 1280.10 L1598.10 1279.46 L1597.08 1272.98 L1593.90 1256.70 L1585.26 1211.94 L1552.32 1001.37 L1544.95 1002.39 L1542.53 1003.02 L1529.18 1004.93 L1520.15 1006.20 L1510.11 1007.73 L1501.08 1009.00 L1495.23 1009.89 L1491.03 1010.52 L1481.62 1011.92 L1477.81 1012.56 L1468.53 1013.83 L1464.33 1014.47 L1460.77 1014.97 L1453.27 1016.37 L1448.56 1017.14 L1445.39 1017.77 L1443.73 1017.90 L1436.74 1018.79 L1434.32 1019.17 L1416.39 1021.59 L1414.36 1021.97 L1412.32 1022.22 L1409.40 1022.60 L1405.71 1023.24 L1402.53 1023.62 L1389.82 1025.66 L1382.95 1026.67 L1382.82 1026.80 L1377.87 1027.56 L1369.22 1028.83 L1362.73 1029.85 L1360.19 1030.23 L1349.38 1031.89 L1346.71 1032.14 L1342.13 1032.90 L1333.23 1034.18 L1288.22 1040.66 L1286.95 1040.91 L1285.42 1041.17 L1271.56 1043.46 L1269.53 1043.71 L1264.70 1044.48 L1259.74 1045.11 L1258.34 1045.37 L1257.19 1045.49 L1252.36 1046.26 L1248.93 1046.64 L1245.75 1047.15 L1240.54 1048.04 L1233.42 1049.18 L1232.02 1049.31 L1227.57 1050.07 L1223.12 1050.71 L1217.52 1051.60 L1208.62 1052.74 L1192.85 1055.16 L1185.99 1056.17 L1183.57 1056.56 L1173.27 1058.08 L1167.04 1058.97 L1165.01 1059.23 L1158.14 1060.24 L1151.65 1061.26 L1143.77 1062.53 L1142.24 1062.79 L1138.81 1063.42 L1128.38 1064.82 L1123.17 1065.71 L1108.93 1067.87 L1099.90 1069.27 L1087.95 1070.80 L1085.91 1071.05 L1081.34 1071.81 L1078.16 1072.32 L1074.98 1072.83 L1071.67 1073.47 L1069.00 1073.85 L1065.06 1074.48 L1064.68 1074.61 L1061.25 1075.12 L1049.17 1076.77 L1037.34 1078.81 L1032.89 1079.44 L1029.71 1079.95 L1027.04 1080.46 L1018.90 1081.61 L1014.20 1082.24 L1011.15 1082.62 L1008.73 1082.88 L1008.22 1080.46 L1006.44 1070.67 L1006.31 1070.29 L1005.68 1067.11 L1005.68 1066.86 L1005.42 1065.84 L1005.04 1063.68 L1004.53 1060.75 L1004.15 1058.59 L1003.90 1056.81 L1003.77 1055.79 L1003.64 1054.39 L1003.26 1050.83 L1003.26 1049.56 L1003.14 1048.16 L1003.01 1046.89 L1003.01 1046.26 L1002.88 1043.84 L1002.88 1041.30 L1002.75 1038.88 L1002.75 1036.72 L1002.75 1034.56 L1002.88 1031.63 L1003.01 1030.11 L1003.14 1028.07 L1003.26 1026.29 L1003.39 1025.15 L1003.64 1023.24 L1003.77 1021.33 L1004.15 1018.66 L1004.92 1013.32 L1005.55 1009.00 L1005.55 1008.87 L1005.93 1006.84 L1006.95 1002.13 L1008.22 996.41 L1008.48 995.65 L1008.98 993.23 L1009.11 992.72 L1010.00 988.40 L1010.51 986.24 L1010.89 984.33 L1011.78 979.75 L1012.42 976.45 L1012.67 973.78 L1013.05 971.49 L1013.05 970.22 L1013.44 966.78 L1013.56 964.49 L1013.44 960.81 L1013.44 959.15 L1013.44 958.77 L1013.31 955.59 L1013.05 952.03 L1012.93 951.65 L1012.67 948.73 L1012.29 946.06 L1011.15 941.10 L1009.87 935.76 L1008.48 931.30 L1007.20 927.74 L1006.31 925.46 L1004.79 922.15 L1003.77 920.24 L1002.50 917.57 L1000.97 914.77 L998.69 910.45 L998.30 909.82 L995.76 905.75 L994.11 902.95 L991.56 898.75 L989.66 895.45 L987.37 891.25 L987.11 890.87 L985.59 888.45 L984.70 886.67 L983.04 883.75 L981.26 880.57 L979.74 878.03 L979.23 877.26 L977.45 874.59 L975.80 871.41 L974.78 869.51 L974.02 867.73 L972.87 865.18 L972.75 865.06 L971.22 861.37 L970.71 859.97 L969.18 856.79 L968.80 855.65 L968.29 854.37 L967.79 852.98 L967.15 851.20 L965.37 845.47 L963.97 840.90 L963.59 839.50 L962.32 834.79 L961.56 831.87 L960.92 828.69 L959.90 824.49 L959.14 820.17 L958.50 816.86 L958.38 816.35 L957.61 811.65 L957.61 811.52 L956.34 802.62 L955.45 796.52 L955.32 794.99 L954.43 789.52 L953.93 786.34 L952.78 778.72 L952.65 777.32 L952.15 774.65 L952.15 774.39 L951.76 772.48 L951.13 770.20 L950.87 769.18 L949.98 766.38 L948.71 762.31 L948.08 760.53 L946.93 757.86 L945.79 754.94 L944.14 750.99 L942.10 746.54 L941.08 744.51 L940.45 743.37 L938.79 740.57 L937.52 738.66 L936.12 736.63 L935.36 735.74 L934.85 734.97 L934.47 734.46 L933.58 733.45 L932.56 731.92 L930.40 729.12 L927.86 726.33 L926.46 724.93 L925.70 724.29 L923.92 722.77 L922.39 721.37 L921.76 720.86 L919.34 718.82 L916.92 717.04 L914.38 714.75 L912.22 712.72 L910.18 710.81 L908.53 709.03 L905.61 705.85 L904.34 704.45 L902.05 701.78 L900.27 699.75 L898.99 698.10 L897.21 695.94 L896.58 694.92 L895.69 693.52 L894.29 691.36 L893.27 689.70 L891.75 686.78 L890.35 684.11 L888.82 680.68 L887.42 677.24 L887.04 676.48 L886.15 673.81 L885.52 672.16 L884.75 669.61 L883.74 666.05 L883.23 664.15 L882.85 663.00 L882.72 662.24 L882.46 660.84 L881.83 658.04 L881.83 657.92 L881.32 655.75 L881.19 654.86 L880.81 652.45 L880.56 649.01 L880.30 645.58 L880.05 641.51 L879.92 637.95 L879.67 632.48 L879.41 628.54 L879.29 626.13 L878.90 619.64 L878.27 613.16 L878.14 612.14 L878.01 610.61 L877.63 604.13 L877.12 590.78 L877.00 586.33 L877.00 581.87 L877.12 579.59 L877.25 577.04 L877.51 573.23 L879.16 559.62 L880.30 551.87 L881.32 546.65 L882.85 539.53 L885.39 527.96 L887.55 516.77 L888.31 512.06 L889.20 506.72 L891.24 489.05 L891.62 482.31 L891.62 478.37 L890.98 463.11 L890.22 452.56 L889.33 445.18 L887.55 433.10 L885.39 421.27 L884.37 414.92 L882.72 400.04 L882.08 384.91 L881.96 382.62 L882.72 380.84 L878.14 353.12 L877.89 351.46 L873.31 326.67 L863.26 273.64 L855.00 226.34 L837.71 135.93 L838.98 132.75 L837.83 126.27 L854.87 123.85 L858.69 123.22 L974.91 103.76 L980.88 102.74 L1117.70 79.86 L1230.62 60.91 L1241.17 59.13 L1249.56 57.73 L1257.45 56.08 L1291.53 61.93 L1312.13 65.87 L1320.14 67.39 L1351.42 72.73 L1358.41 74.01 L1364.64 75.02 L1373.16 76.55 L1378.63 77.44 L1387.27 78.71 L1389.31 79.09 L1400.50 80.75 L1409.91 82.14 L1453.27 89.90 L1495.87 97.53 L1502.10 98.55 L1603.95 116.35 L1662.06 125.63 L1667.78 125.50 L1671.60 124.87 L1681.13 123.34 L1684.95 122.71 L1685.46 122.58 L1686.09 122.45 L1686.85 122.33 L1686.09 129.07 L1686.85 132.88 L1686.85 133.13 L1687.11 134.53 L1687.74 137.58 L1688.00 138.98 L1688.38 140.51 L1688.89 143.56 L1690.29 151.06 L1691.31 156.02 L1691.94 158.95 L1692.20 160.60 L1694.10 170.26 L1694.87 174.71 L1696.39 182.73 L1696.90 185.40 L1698.30 193.66 L1699.82 201.93 L1702.11 214.52 L1702.37 216.42 L1702.88 218.97 L1703.26 220.87 L1705.55 233.21 L1705.80 234.73 L1706.31 236.77 L1708.22 247.45 L1708.47 248.47 L1709.74 256.10 L1709.87 257.37 L1711.65 267.29 L1714.07 279.49 L1714.19 280.13 L1715.34 286.36 L1716.86 294.12 L1716.86 294.24 L1717.50 296.79 L1717.50 297.04 L1718.26 299.84 L1719.15 304.29 L1719.28 304.67 L1719.79 307.21 L1720.68 312.30 L1721.44 316.62 L1722.46 320.69 L1723.98 327.69 L1724.24 329.21 L1724.75 331.12 L1727.54 344.60 L1730.85 359.09 L1734.67 375.62 L1736.95 386.31 L1737.84 391.01 L1738.48 394.06 L1742.80 414.53 L1743.69 418.73 L1745.09 425.47 L1746.49 431.83 L1748.14 439.33 L1748.53 441.87 L1752.34 459.80 L1753.48 465.02 L1754.76 472.52 L1757.05 484.98 L1757.94 489.81 L1758.32 491.72 L1758.57 492.99 L1760.10 499.98 L1760.22 500.88 L1761.11 505.71 L1762.51 512.70 L1763.02 516.01 L1766.07 534.06 L1769.51 553.14 L1770.65 559.11 L1772.43 570.18 L1773.45 576.92 L1773.58 577.30 L1773.96 580.48 L1774.72 586.45 L1774.97 589.76 L1775.10 591.03 L1775.23 592.81 L1775.48 595.23 L1775.61 597.77 L1775.86 601.33 L1776.12 604.13 L1776.37 608.71 L1776.50 609.98 L1776.50 611.25 L1778.15 627.65 L1779.04 633.25 L1779.42 635.54 L1779.42 635.66 L1779.93 639.86 L1781.20 648.12 L1781.46 649.90 L1781.84 651.68 L1782.48 655.37 L1782.86 658.04 L1783.11 659.82 L1784.64 670.50 L1784.77 671.52 L1785.02 673.17 L1785.53 676.10 L1785.66 676.86 L1787.18 685.00 L1788.71 692.12 L1789.22 694.03 L1789.60 695.94 L1790.11 698.86 L1790.49 700.89 L1790.74 702.29 L1791.00 704.20 L1791.38 706.24 L1791.76 708.91 L1792.14 711.83 L1792.78 715.52 L1794.43 722.64 L1794.94 724.93 L1795.95 728.87 L1796.08 729.89 L1796.46 731.29 L1796.84 732.68 L1799.01 740.95 L1799.64 742.98 L1800.15 744.64 L1801.42 748.83 L1803.33 755.83 L1804.98 761.55 L1806.89 768.92 L1808.29 774.14 L1809.05 777.70 L1809.69 780.62 L1810.83 786.47 L1811.47 789.91 L1812.23 793.47 L1812.61 795.75 L1813.25 799.57 L1813.63 802.11 L1814.01 804.40 L1815.66 813.17 L1816.17 815.59 L1817.32 821.82 L1817.70 823.86 L1819.61 833.77 L1821.13 842.68 L1822.66 851.20 L1822.66 851.32 L1823.17 854.12 L1823.55 855.90 L1824.18 859.33 L1824.44 860.48 L1824.69 861.88 L1825.33 865.44 L1825.96 869.63 L1827.24 877.90 L1827.62 879.81 L1827.87 882.22 L1828.00 883.49 L1828.38 886.29 L1828.63 887.31 L1829.02 889.60 L1829.40 891.38 L1829.65 892.78 L1830.29 896.21 L1831.30 902.44 L1831.81 905.87 L1831.94 906.64 L1832.45 909.43 L1833.72 916.94 L1834.74 923.17 L1835.25 925.33 L1836.01 929.91 L1836.64 933.47 L1837.28 936.77 L1838.30 942.37 L1838.55 943.89 L1840.21 953.43 L1840.97 957.88 L1841.35 960.55 L1842.62 966.40 L1843.26 970.47 L1845.04 979.62 L1845.29 981.02 L1845.42 981.79 L1846.31 986.75 L1847.07 990.69 L1847.83 995.39 L1848.22 997.43 L1848.98 1001.11 L1849.11 1002.13 L1849.74 1005.06 L1849.87 1005.31 L1850.89 1010.27 L1851.52 1013.58 L1851.90 1016.25 L1852.67 1019.68 L1852.92 1020.95 L1853.05 1022.10 L1853.43 1023.88 L1855.85 1036.97 L1856.23 1039.52 L1856.99 1044.09 L1857.50 1047.91 L1857.88 1050.20 L1858.39 1052.99 L1860.04 1061.77 L1860.55 1064.95 L1860.68 1065.84 L1860.93 1066.98 L1861.44 1069.78 L1862.97 1078.43 L1863.35 1080.72 L1863.47 1081.86 L1864.36 1086.44 L1864.75 1088.85 L1867.04 1100.93 L1867.93 1105.51 L1868.31 1107.55 L1870.09 1117.21 L1871.61 1125.09 L1873.65 1135.90 L1876.32 1151.03 L1878.86 1165.02 L1880.39 1174.18 L1882.68 1186.76 L1883.06 1189.05 L1883.31 1190.58 L1884.33 1196.81 L1884.58 1197.83 L1882.04 1198.21 L1873.90 1199.48 L1865.89 1200.75 L1857.12 1202.41 L1852.67 1203.42 L1844.27 1205.20 L1844.53 1209.02 L1835.88 1211.05 L1832.32 1212.07 L1827.11 1213.34 L1821.77 1214.87 L1810.07 1217.79 L1808.16 1218.43 L1806.76 1218.81 L1798.75 1221.10 L1794.68 1221.99 L1790.87 1222.88 L1790.61 1223.00 L1786.67 1223.90 L1786.04 1224.02 L1782.98 1224.53 L1778.66 1225.42 L1778.28 1225.42 L1770.52 1226.57 L1765.18 1227.46 L1760.22 1228.35 L1756.79 1228.85 L1755.90 1228.98 L1750.31 1229.74 L1748.40 1230.13 L1745.22 1230.63 L1740.77 1231.27 L1734.92 1232.16 L1730.47 1232.80 L1728.05 1233.18 L1726.27 1233.43 L1721.44 1234.19 L1717.50 1234.83 L1692.58 1238.65 L1690.67 1238.90 L1685.58 1239.92 L1683.17 1240.55 L1682.15 1240.81 L1679.61 1241.57 L1676.17 1242.84 L1675.67 1242.97 L1673.25 1243.99 L1671.09 1244.88 L1668.67 1246.02 L1666.64 1247.04 L1666.00 1247.29 L1662.95 1248.95 L1657.35 1252.00 L1635.48 1264.84 L1629.63 1268.27 L1626.84 1269.93 L1623.53 1271.83 L1620.10 1273.87 L1616.92 1275.65 L1613.74 1277.30 L1611.96 1278.19 L1611.45 1278.45 L1609.04 1279.46 L1605.73 1280.86 L1602.80 1281.75 L1600.77 1282.26 L1598.74 1282.64 L1594.79 1283.41 L1591.36 1283.91 L1585.26 1284.80 L1581.19 1285.44 L1578.14 1285.95 L1575.34 1286.33 L1575.21 1286.33 L1572.67 1286.84 L1569.49 1287.60 L1566.57 1288.36 L1565.67 1288.62 L1563.77 1289.13 L1560.21 1290.27 L1558.17 1291.16 L1553.85 1292.94 L1550.67 1294.34 L1546.73 1296.25 L1541.90 1298.41 L1537.57 1300.32 L1535.67 1301.08 L1530.83 1302.99 L1530.83 1302.99 Z" stroke-linejoin="round"/>
	</defs>
	<use xlink:href="#path_YjjrCoyb" style="fill:#09757A;stroke:#097D9B;stroke-width:5.76"/>
	<defs>
		<path id="path_nUvtHLRv" d="M2284.62 2476.53 L2284.62 2476.53 L2284.62 2476.53 L2250.28 2484.03 L2220.66 2489.50 L2212.65 2482.76 L2205.91 2484.67 L2207.05 2482.63 L2212.01 2472.20 L2210.48 2469.41 L2209.98 2467.63 L2211.37 2467.75 L2213.92 2468.26 L2219.64 2456.06 L2230.70 2432.28 L2238.08 2417.27 L2238.71 2415.62 L2247.49 2398.20 L2256.64 2379.51 L2257.40 2378.23 L2265.29 2362.09 L2265.92 2360.81 L2294.53 2303.34 L2306.61 2278.54 L2309.41 2273.08 L2314.63 2262.27 L2322.51 2246.88 L2337.89 2215.09 L2343.49 2203.77 L2345.65 2199.20 L2347.69 2195.13 L2352.77 2185.21 L2353.79 2182.79 L2364.22 2161.81 L2371.72 2146.81 L2380.49 2129.26 L2388.38 2113.62 L2391.43 2107.77 L2392.44 2105.86 L2393.84 2102.94 L2405.16 2079.03 L2410.88 2067.72 L2416.99 2055.25 L2419.66 2049.15 L2420.93 2046.48 L2423.73 2040.50 L2428.56 2030.46 L2431.10 2025.37 L2434.79 2017.87 L2444.20 1999.69 L2444.71 1998.54 L2448.14 1992.06 L2449.92 1988.75 L2450.43 1987.48 L2450.94 1986.59 L2451.70 1985.19 L2452.46 1983.54 L2459.71 1970.18 L2461.24 1967.51 L2465.56 1958.87 L2464.92 1954.93 L2510.45 1865.66 L2523.67 1839.72 L2545.41 1793.31 L2560.80 1747.66 L2564.87 1731.13 L2572.63 1684.08 L2572.75 1683.19 L2573.13 1680.52 L2576.31 1645.04 L2576.44 1601.30 L2576.31 1600.03 L2575.17 1592.27 L2575.17 1590.87 L2573.90 1576.38 L2571.99 1559.34 L2568.94 1539.25 L2564.36 1517.63 L2562.07 1505.17 L2559.91 1493.34 L2557.11 1477.96 L2548.34 1441.34 L2528.50 1388.06 L2527.87 1386.78 L2527.23 1385.13 L2491.37 1299.81 L2481.07 1262.42 L2464.67 1175.32 L2464.42 1174.05 L2461.87 1161.21 L2452.72 1109.45 L2452.08 1106.27 L2451.70 1104.62 L2453.61 1104.24 L2458.69 1103.22 L2461.11 1102.84 L2486.67 1097.50 L2490.61 1096.74 L2503.07 1094.07 L2505.36 1093.69 L2519.35 1090.76 L2528.37 1089.49 L2515.15 1093.69 L2527.23 1091.14 L2539.69 1088.60 L2544.27 1087.71 L2552.92 1085.93 L2557.11 1085.17 L2565.50 1083.64 L2577.33 1081.10 L2582.16 1080.08 L2587.12 1079.06 L2600.47 1076.65 L2612.43 1074.23 L2619.16 1072.96 L2622.34 1072.32 L2623.61 1072.07 L2629.72 1070.92 L2638.37 1069.40 L2643.58 1068.38 L2652.86 1066.60 L2654.39 1066.35 L2656.55 1065.84 L2658.07 1065.58 L2661.38 1065.07 L2671.17 1063.42 L2673.33 1063.04 L2682.62 1061.39 L2685.79 1060.75 L2688.21 1060.37 L2690.37 1059.99 L2693.93 1059.35 L2698.13 1058.59 L2704.23 1057.45 L2710.21 1056.43 L2714.02 1055.67 L2718.73 1054.90 L2721.02 1054.39 L2727.37 1053.25 L2730.30 1052.74 L2736.78 1051.34 L2738.69 1050.96 L2740.09 1050.58 L2742.25 1061.13 L2742.76 1064.18 L2743.40 1067.87 L2743.40 1068.25 L2743.78 1070.54 L2743.90 1071.18 L2744.16 1072.96 L2744.67 1076.14 L2745.05 1078.04 L2745.05 1078.04 L2745.94 1083.00 L2746.19 1084.91 L2747.08 1090.00 L2748.48 1096.36 L2749.50 1101.82 L2749.63 1102.71 L2750.64 1107.93 L2751.41 1112.25 L2752.17 1116.45 L2753.06 1120.64 L2753.31 1122.42 L2755.98 1136.54 L2756.62 1139.72 L2757.38 1143.66 L2757.64 1145.44 L2758.27 1149.13 L2759.16 1153.32 L2760.18 1159.04 L2761.96 1168.45 L2763.11 1174.68 L2764.63 1183.08 L2766.54 1193.12 L2766.67 1193.63 L2766.92 1195.16 L2767.94 1200.88 L2769.72 1210.29 L2770.35 1213.85 L2771.62 1220.84 L2774.30 1236.10 L2774.80 1238.65 L2775.06 1239.92 L2775.57 1242.59 L2777.60 1253.78 L2778.87 1260.64 L2783.20 1283.66 L2783.58 1286.33 L2786.12 1300.06 L2787.65 1307.95 L2788.16 1311.13 L2790.19 1322.06 L2792.10 1332.87 L2792.48 1334.52 L2792.61 1336.05 L2798.84 1334.78 L2800.23 1334.52 L2802.27 1334.01 L2806.97 1333.12 L2810.92 1332.23 L2815.49 1331.34 L2820.58 1330.20 L2823.00 1329.56 L2826.43 1328.93 L2832.79 1327.66 L2834.82 1327.27 L2839.14 1326.51 L2843.72 1325.62 L2852.24 1324.10 L2854.78 1323.59 L2859.11 1322.95 L2862.54 1322.06 L2869.54 1320.79 L2875.64 1319.52 L2888.48 1317.48 L2899.80 1315.83 L2900.05 1315.83 L2913.79 1313.80 L2917.73 1313.16 L2919.51 1312.91 L2921.54 1312.52 L2932.60 1310.74 L2949.01 1307.44 L2959.31 1305.40 L2965.79 1304.00 L2973.68 1302.48 L2982.96 1300.83 L2984.99 1300.44 L2987.41 1299.94 L2997.20 1298.28 L2998.34 1298.03 L3009.79 1296.12 L3019.33 1294.34 L3025.68 1292.94 L3034.20 1291.42 L3038.65 1290.53 L3040.05 1290.27 L3049.97 1288.36 L3056.96 1286.97 L3063.07 1285.82 L3094.86 1279.97 L3098.92 1279.46 L3100.07 1279.21 L3103.25 1278.57 L3107.32 1277.81 L3106.05 1277.17 L3108.46 1274.38 L3108.72 1275.01 L3111.26 1275.27 L3110.24 1277.30 L3109.22 1279.34 L3096.64 1304.26 L3087.99 1322.06 L3078.71 1343.30 L3072.09 1372.54 L3071.59 1393.02 L3071.33 1399.25 L3071.20 1407.26 L3087.35 1489.91 L3092.44 1519.66 L3102.99 1582.10 L3108.84 1616.30 L3128.81 1728.33 L3134.91 1763.17 L3139.11 1785.68 L3135.55 1775.63 L3134.15 1771.44 L3133.51 1775.63 L3134.53 1782.50 L3136.05 1792.55 L3137.07 1801.96 L3137.96 1811.87 L3138.09 1812.89 L3141.65 1813.40 L3143.81 1813.27 L3144.07 1814.67 L3153.09 1866.17 L3153.22 1867.57 L3153.35 1868.46 L3153.47 1869.35 L3153.73 1870.49 L3156.91 1888.17 L3158.43 1895.92 L3168.61 1953.27 L3170.64 1965.23 L3170.90 1966.62 L3171.02 1967.90 L3173.18 1980.48 L3177.25 2003.88 L3178.14 2009.10 L3178.91 2013.42 L3180.05 2020.03 L3181.70 2030.08 L3183.48 2039.99 L3185.39 2050.80 L3186.92 2059.07 L3194.93 2103.57 L3206.37 2167.92 L3204.08 2168.68 L3186.15 2174.40 L3188.95 2188.64 L3189.46 2191.06 L3194.67 2190.17 L3207.26 2186.35 L3207.01 2184.45 L3209.17 2183.81 L3209.30 2184.83 L3212.48 2202.76 L3214.51 2220.94 L3215.27 2238.87 L3214.26 2258.32 L3213.11 2268.12 L3211.20 2279.05 L3209.42 2288.72 L3206.75 2289.22 L3199.76 2290.24 L3195.56 2290.75 L3193.40 2291.00 L3190.86 2291.13 L3174.20 2290.62 L3167.72 2291.26 L3162.50 2291.89 L3156.40 2293.04 L3150.17 2294.18 L3146.61 2294.69 L3140.12 2295.71 L3138.98 2295.96 L3136.94 2296.22 L3129.32 2297.62 L3120.29 2299.14 L3102.99 2302.19 L3086.72 2304.99 L3081.12 2306.01 L3047.81 2297.11 L3039.42 2296.73 L3025.94 2295.96 L3023.39 2296.22 L3020.98 2295.96 L3021.49 2316.18 L3010.55 2317.96 L2984.87 2322.41 L2950.41 2328.26 L2924.34 2332.84 L2888.99 2338.82 L2885.81 2339.58 L2870.30 2343.52 L2866.10 2344.67 L2853.26 2347.97 L2820.20 2355.35 L2786.63 2363.74 L2758.15 2370.48 L2752.81 2371.62 L2744.54 2373.40 L2738.69 2375.44 L2733.22 2377.22 L2711.99 2382.56 L2699.78 2385.36 L2686.43 2388.53 L2672.95 2391.71 L2664.18 2393.49 L2656.68 2395.40 L2639.89 2399.34 L2624.63 2403.16 L2622.22 2403.54 L2618.66 2404.30 L2605.81 2406.72 L2595.00 2408.75 L2589.28 2410.15 L2583.18 2412.06 L2578.60 2413.97 L2573.77 2416.38 L2569.57 2419.05 L2566.65 2420.83 L2563.22 2423.25 L2557.37 2426.55 L2555.71 2427.32 L2551.90 2428.97 L2547.45 2430.75 L2543.63 2431.77 L2537.78 2433.55 L2523.80 2435.84 L2511.08 2438.38 L2502.31 2439.91 L2495.70 2441.05 L2486.79 2442.70 L2470.14 2446.14 L2469.12 2446.26 L2452.59 2449.32 L2428.18 2454.02 L2422.71 2454.91 L2416.22 2455.29 L2409.99 2455.29 L2403.25 2454.91 L2400.71 2454.40 L2390.54 2452.37 L2389.14 2452.24 L2381.64 2451.35 L2378.97 2451.22 L2375.66 2451.22 L2368.16 2451.73 L2364.98 2452.24 L2363.33 2452.37 L2345.91 2456.56 L2344.25 2457.07 L2341.46 2457.84 L2338.78 2456.95 L2332.05 2458.22 L2309.28 2463.05 L2293.77 2465.97 L2289.96 2466.86 L2287.92 2468.14 L2286.40 2469.53 L2285.51 2470.93 L2284.62 2476.53 L2284.62 2476.53 Z" stroke-linejoin="round"/>
	</defs>
	<use xlink:href="#path_nUvtHLRv" style="fill:#09757A;stroke:#097D9B;stroke-width:5.76"/>
	<defs>
		<path id="path_ZAvcXiDp" d="M1008.22 1080.46 L1008.22 1080.46 L1008.73 1082.88 L1000.08 1083.89 L994.87 1084.78 L993.22 1085.04 L990.04 1085.55 L986.61 1086.18 L986.10 1086.31 L982.66 1086.82 L977.20 1087.71 L971.86 1088.60 L968.68 1088.85 L966.51 1089.23 L964.73 1089.49 L959.65 1090.25 L952.15 1091.52 L952.02 1091.52 L944.39 1092.67 L940.96 1093.18 L935.11 1093.81 L933.07 1094.07 L919.98 1096.10 L917.05 1096.48 L913.87 1096.99 L902.43 1098.90 L887.30 1101.19 L880.05 1102.20 L871.27 1103.48 L862.50 1104.49 L855.13 1105.77 L850.17 1106.66 L845.59 1107.42 L833.89 1108.94 L817.74 1111.49 L815.07 1111.87 L812.66 1112.25 L798.92 1114.41 L795.49 1114.92 L782.52 1116.83 L777.31 1117.46 L773.62 1117.97 L762.81 1119.75 L746.28 1122.42 L733.69 1124.46 L732.17 1124.71 L732.04 1124.84 L730.51 1124.97 L717.67 1126.87 L713.47 1127.38 L694.15 1130.05 L693.38 1130.18 L683.72 1131.71 L679.01 1132.47 L669.22 1134.12 L660.70 1135.27 L647.86 1137.05 L647.61 1137.17 L625.61 1140.61 L619.38 1141.50 L608.57 1143.02 L607.93 1143.02 L604.12 1143.66 L599.92 1144.42 L591.79 1145.82 L568.90 1149.25 L561.52 1150.27 L560.89 1150.27 L555.04 1151.16 L547.79 1152.31 L534.18 1154.34 L526.55 1155.36 L511.68 1157.65 L500.74 1159.30 L491.71 1160.70 L484.08 1161.84 L478.74 1162.60 L476.58 1162.99 L471.37 1163.75 L455.73 1166.29 L453.44 1166.67 L439.71 1169.09 L415.67 1172.90 L414.15 1172.40 L412.75 1172.78 L380.20 1179.39 L378.54 1179.64 L355.91 1183.46 L350.57 1184.22 L343.96 1185.37 L341.80 1185.75 L340.91 1185.87 L340.40 1185.87 L287.37 1194.27 L257.11 1198.97 L222.27 1204.31 L216.17 1205.33 L214.13 1205.58 L206.25 1206.98 L201.42 1207.87 L200.27 1200.37 L200.14 1199.35 L197.98 1184.09 L197.60 1181.93 L197.47 1180.92 L195.95 1171.12 L191.24 1142.51 L185.01 1103.86 L182.60 1088.47 L183.49 1085.93 L182.34 1086.31 L180.82 1086.69 L179.29 1086.95 L177.26 1087.33 L175.22 1087.71 L171.15 1064.57 L168.74 1062.28 L130.97 826.91 L129.95 823.60 L112.66 736.24 L76.93 493.50 L59.64 386.43 L43.87 289.54 L39.80 264.23 L42.47 263.73 L44.76 263.34 L48.96 262.58 L61.03 260.55 L165.81 242.49 L267.03 225.07 L426.99 196.33 L486.50 185.78 L493.11 184.25 L555.04 173.19 L559.49 172.30 L562.92 171.66 L637.43 159.46 L673.93 153.48 L685.63 149.54 L837.83 126.27 L838.98 132.75 L837.71 135.93 L855.00 226.34 L863.26 273.64 L873.31 326.67 L877.89 351.46 L878.14 353.12 L882.72 380.84 L881.96 382.62 L882.08 384.91 L882.72 400.04 L884.37 414.92 L885.39 421.27 L887.55 433.10 L889.33 445.18 L890.22 452.56 L890.98 463.11 L891.62 478.37 L891.62 482.31 L891.24 489.05 L889.20 506.72 L888.31 512.06 L887.55 516.77 L885.39 527.96 L882.85 539.53 L881.32 546.65 L880.30 551.87 L879.16 559.62 L877.51 573.23 L877.25 577.04 L877.12 579.59 L877.00 581.87 L877.00 586.33 L877.12 590.78 L877.63 604.13 L878.01 610.61 L878.14 612.14 L878.27 613.16 L878.90 619.64 L879.29 626.13 L879.41 628.54 L879.67 632.48 L879.92 637.95 L880.05 641.51 L880.30 645.58 L880.56 649.01 L880.81 652.45 L881.19 654.86 L881.32 655.75 L881.83 657.92 L881.83 658.04 L882.46 660.84 L882.72 662.24 L882.85 663.00 L883.23 664.15 L883.74 666.05 L884.75 669.61 L885.52 672.16 L886.15 673.81 L887.04 676.48 L887.42 677.24 L888.82 680.68 L890.35 684.11 L891.75 686.78 L893.27 689.70 L894.29 691.36 L895.69 693.52 L896.58 694.92 L897.21 695.94 L898.99 698.10 L900.27 699.75 L902.05 701.78 L904.34 704.45 L905.61 705.85 L908.53 709.03 L910.18 710.81 L912.22 712.72 L914.38 714.75 L916.92 717.04 L919.34 718.82 L921.76 720.86 L922.39 721.37 L923.92 722.77 L925.70 724.29 L926.46 724.93 L927.86 726.33 L930.40 729.12 L932.56 731.92 L933.58 733.45 L934.47 734.46 L934.85 734.97 L935.36 735.74 L936.12 736.63 L937.52 738.66 L938.79 740.57 L940.45 743.37 L941.08 744.51 L942.10 746.54 L944.14 750.99 L945.79 754.94 L946.93 757.86 L948.08 760.53 L948.71 762.31 L949.98 766.38 L950.87 769.18 L951.13 770.20 L951.76 772.48 L952.15 774.39 L952.15 774.65 L952.65 777.32 L952.78 778.72 L953.93 786.34 L954.43 789.52 L955.32 794.99 L955.45 796.52 L956.34 802.62 L957.61 811.52 L957.61 811.65 L958.38 816.35 L958.50 816.86 L959.14 820.17 L959.90 824.49 L960.92 828.69 L961.56 831.87 L962.32 834.79 L963.59 839.50 L963.97 840.90 L965.37 845.47 L967.15 851.20 L967.79 852.98 L968.29 854.37 L968.80 855.65 L969.18 856.79 L970.71 859.97 L971.22 861.37 L972.75 865.06 L972.87 865.18 L974.02 867.73 L974.78 869.51 L975.80 871.41 L977.45 874.59 L979.23 877.26 L979.74 878.03 L981.26 880.57 L983.04 883.75 L984.70 886.67 L985.59 888.45 L987.11 890.87 L987.37 891.25 L989.66 895.45 L991.56 898.75 L994.11 902.95 L995.76 905.75 L998.30 909.82 L998.69 910.45 L1000.97 914.77 L1002.50 917.57 L1003.77 920.24 L1004.79 922.15 L1006.31 925.46 L1007.20 927.74 L1008.48 931.30 L1009.87 935.76 L1011.15 941.10 L1012.29 946.06 L1012.67 948.73 L1012.93 951.65 L1013.05 952.03 L1013.31 955.59 L1013.44 958.77 L1013.44 959.15 L1013.44 960.81 L1013.56 964.49 L1013.44 966.78 L1013.05 970.22 L1013.05 971.49 L1012.67 973.78 L1012.42 976.45 L1011.78 979.75 L1010.89 984.33 L1010.51 986.24 L1010.00 988.40 L1009.11 992.72 L1008.98 993.23 L1008.48 995.65 L1008.22 996.41 L1006.95 1002.13 L1005.93 1006.84 L1005.55 1008.87 L1005.55 1009.00 L1004.92 1013.32 L1004.15 1018.66 L1003.77 1021.33 L1003.64 1023.24 L1003.39 1025.15 L1003.26 1026.29 L1003.14 1028.07 L1003.01 1030.11 L1002.88 1031.63 L1002.75 1034.56 L1002.75 1036.72 L1002.75 1038.88 L1002.88 1041.30 L1002.88 1043.84 L1003.01 1046.26 L1003.01 1046.89 L1003.14 1048.16 L1003.26 1049.56 L1003.26 1050.83 L1003.64 1054.39 L1003.77 1055.79 L1003.90 1056.81 L1004.15 1058.59 L1004.53 1060.75 L1005.04 1063.68 L1005.42 1065.84 L1005.68 1066.86 L1005.68 1067.11 L1006.31 1070.29 L1006.44 1070.67 L1008.22 1080.46 L1008.22 1080.46 Z" stroke-linejoin="round"/>
	</defs>
	<use xlink:href="#path_ZAvcXiDp" style="fill:#004249;stroke:#00465F;stroke-width:5.76"/>
	<defs>
		<path id="path_bxZEvMFN" d="M3882.72 2301.43 L3882.72 2301.43 L3882.72 2301.43 L3875.85 2303.08 L3879.66 2250.06 L3880.55 2242.05 L3881.06 2231.49 L3883.73 2158.89 L3878.27 2156.22 L3878.14 2156.22 L3878.01 2156.09 L3877.88 2156.09 L3867.84 2158.51 L3865.42 2159.40 L3859.32 2163.34 L3845.97 2165.63 L3835.16 2163.85 L3833.89 2164.36 L3803.50 2170.59 L3782.77 2174.78 L3780.99 2175.29 L3779.85 2176.18 L3779.21 2177.07 L3778.96 2177.96 L3778.96 2178.85 L3776.16 2179.61 L3781.63 2209.50 L3769.29 2211.15 L3756.70 2214.71 L3730.00 2219.80 L3728.86 2219.92 L3727.20 2220.18 L3727.46 2216.24 L3727.46 2213.57 L3727.84 2205.43 L3727.97 2200.98 L3728.35 2189.15 L3728.73 2181.78 L3729.11 2169.06 L3729.24 2166.90 L3729.37 2162.19 L3729.49 2157.74 L3729.62 2155.58 L3730.00 2144.01 L3730.64 2128.12 L3730.76 2124.55 L3731.15 2116.54 L3731.65 2103.07 L3731.91 2093.02 L3731.91 2092.00 L3732.04 2090.60 L3732.29 2084.37 L3732.42 2083.10 L3732.67 2075.98 L3733.82 2060.34 L3734.20 2057.16 L3735.47 2042.92 L3735.85 2038.98 L3737.38 2026.90 L3738.65 2016.85 L3739.28 2011.38 L3739.79 2007.95 L3740.30 2001.85 L3741.83 1990.02 L3742.08 1987.48 L3742.34 1985.83 L3743.23 1978.20 L3744.50 1967.26 L3745.77 1956.83 L3746.40 1951.49 L3748.31 1935.60 L3749.07 1928.22 L3749.46 1926.06 L3749.84 1922.63 L3750.35 1917.92 L3751.62 1907.75 L3752.51 1896.81 L3752.64 1894.91 L3752.64 1894.40 L3752.64 1891.09 L3752.64 1888.55 L3752.51 1885.75 L3752.51 1885.37 L3752.25 1882.95 L3752.00 1880.41 L3751.36 1874.31 L3751.24 1873.04 L3750.86 1871.26 L3750.22 1867.57 L3748.44 1858.41 L3746.66 1849.77 L3746.28 1847.99 L3744.75 1840.99 L3743.48 1835.52 L3740.94 1822.55 L3740.56 1820.90 L3739.16 1813.65 L3738.14 1808.69 L3736.10 1798.65 L3733.56 1786.70 L3731.78 1777.92 L3729.24 1766.35 L3729.11 1765.08 L3728.73 1764.06 L3724.15 1737.87 L3723.14 1731.89 L3722.50 1728.20 L3720.72 1718.54 L3719.57 1712.18 L3718.05 1703.28 L3717.41 1699.47 L3716.01 1691.96 L3713.73 1678.74 L3713.73 1678.48 L3712.84 1673.27 L3712.33 1670.60 L3712.33 1669.97 L3711.95 1667.55 L3711.44 1663.86 L3711.18 1661.19 L3710.93 1658.65 L3710.55 1654.58 L3710.04 1646.44 L3709.78 1642.37 L3709.66 1639.07 L3709.53 1637.03 L3709.40 1633.60 L3709.15 1629.27 L3708.89 1624.32 L3708.64 1620.63 L3708.51 1616.69 L3708.38 1613.63 L3707.37 1596.59 L3706.48 1575.49 L3706.35 1573.45 L3706.22 1571.80 L3705.71 1558.32 L3704.44 1533.40 L3703.93 1519.41 L3703.81 1516.49 L3703.68 1514.58 L3703.55 1511.40 L3703.43 1508.98 L3702.15 1485.33 L3702.03 1483.81 L3701.39 1468.04 L3701.39 1466.89 L3700.63 1450.36 L3700.50 1448.33 L3700.37 1444.90 L3700.25 1440.32 L3698.72 1415.01 L3698.59 1412.47 L3698.59 1410.69 L3697.70 1393.40 L3697.58 1392.00 L3697.58 1390.22 L3697.20 1384.62 L3697.07 1383.61 L3696.94 1378.52 L3696.56 1370.38 L3696.43 1366.95 L3696.31 1364.28 L3696.18 1361.99 L3695.41 1347.24 L3695.03 1340.12 L3694.78 1336.05 L3694.02 1324.60 L3693.76 1319.01 L3693.63 1316.47 L3693.38 1308.20 L3693.13 1299.30 L3693.13 1297.90 L3693.00 1295.23 L3692.74 1291.03 L3692.62 1287.22 L3692.49 1284.42 L3692.24 1278.70 L3692.11 1275.65 L3691.85 1272.22 L3691.60 1265.98 L3691.47 1263.70 L3691.09 1257.59 L3690.71 1251.23 L3690.58 1249.45 L3690.84 1245.64 L3690.46 1239.66 L3690.20 1234.07 L3690.07 1229.36 L3689.95 1227.96 L3688.93 1212.58 L3686.01 1212.45 L3684.73 1212.58 L3682.32 1212.58 L3678.38 1212.58 L3673.93 1212.32 L3669.48 1212.07 L3667.57 1212.07 L3665.79 1211.94 L3664.01 1211.94 L3662.10 1212.07 L3660.96 1212.20 L3660.07 1212.32 L3659.18 1212.45 L3653.96 1213.21 L3651.80 1213.72 L3651.29 1213.85 L3647.48 1214.87 L3645.19 1215.25 L3644.04 1215.38 L3642.14 1215.76 L3640.23 1216.14 L3631.84 1217.66 L3620.52 1221.73 L3612.76 1222.88 L3609.84 1223.39 L3597.76 1225.29 L3587.33 1227.33 L3586.70 1227.46 L3581.48 1229.87 L3575.76 1228.35 L3568.51 1229.87 L3558.72 1232.03 L3555.03 1232.80 L3539.39 1235.85 L3498.83 1243.35 L3485.35 1245.89 L3485.10 1244.62 L3498.58 1242.08 L3536.47 1234.96 L3568.39 1228.35 L3578.30 1227.84 L3579.83 1227.58 L3580.97 1227.33 L3586.70 1226.18 L3596.36 1224.28 L3597.89 1223.90 L3605.26 1222.62 L3606.66 1222.37 L3607.93 1222.11 L3613.65 1221.10 L3618.49 1220.21 L3620.90 1219.70 L3625.35 1218.81 L3629.42 1218.05 L3642.01 1214.61 L3643.66 1214.23 L3646.97 1213.98 L3656.25 1211.05 L3658.16 1210.54 L3663.24 1210.16 L3672.27 1210.16 L3675.96 1210.03 L3682.83 1210.42 L3688.80 1211.05 L3688.80 1209.78 L3688.55 1205.08 L3688.17 1195.67 L3688.17 1194.90 L3687.91 1189.56 L3687.79 1188.04 L3687.66 1185.24 L3687.66 1184.09 L3687.66 1182.57 L3687.40 1177.99 L3687.15 1170.11 L3686.90 1164.51 L3688.42 1164.39 L3689.95 1164.13 L3693.76 1163.50 L3699.23 1162.48 L3701.77 1162.10 L3715.00 1159.68 L3721.61 1158.41 L3726.31 1157.52 L3729.62 1156.88 L3739.03 1155.10 L3754.67 1152.05 L3761.41 1150.78 L3763.82 1150.40 L3765.61 1149.89 L3767.89 1149.51 L3770.06 1149.00 L3772.47 1148.36 L3773.36 1148.11 L3774.63 1147.73 L3775.65 1147.22 L3776.67 1146.71 L3777.56 1146.33 L3778.19 1146.71 L3778.58 1146.84 L3778.96 1146.96 L3779.59 1146.96 L3780.61 1146.84 L3782.26 1146.58 L3792.05 1144.55 L3802.86 1142.01 L3866.82 1129.16 L3871.02 1128.27 L3875.34 1127.64 L3875.60 1127.89 L3875.85 1127.76 L3876.10 1127.76 L3877.63 1128.65 L3878.39 1130.43 L3878.90 1130.69 L3881.70 1131.45 L3906.75 1120.39 L3914.00 1117.21 L3935.49 1099.41 L3942.48 1092.16 L3945.15 1088.34 L3958.76 1068.51 L3961.81 1046.26 L3964.73 1024.38 L3966.51 1011.67 L3970.33 1004.29 L3972.36 1002.64 L3974.14 996.54 L3974.14 985.47 L3973.38 977.59 L3974.27 975.30 L3974.52 974.92 L3974.65 970.72 L3973.38 961.57 L3971.98 955.59 L3966.89 947.45 L3966.26 945.42 L3966.13 944.66 L3965.88 943.77 L3965.75 943.13 L3965.49 941.48 L3965.24 939.44 L3964.99 937.92 L3964.73 936.26 L3964.60 935.25 L3963.97 926.60 L3954.56 855.39 L3949.47 818.13 L3951.38 818.77 L3958.50 819.28 L3952.52 744.76 L3942.35 691.36 L3932.82 643.80 L3930.91 631.72 L3931.93 588.87 L3910.18 517.28 L3909.04 472.01 L3896.83 399.15 L3894.41 387.07 L3893.52 382.49 L3884.75 326.67 L3883.22 309.12 L3881.19 218.46 L3882.72 218.08 L3887.17 217.44 L3888.06 217.19 L3888.57 217.06 L3896.58 215.66 L3896.70 214.90 L3897.85 214.77 L3900.52 214.26 L3903.95 213.63 L3911.58 211.97 L3912.98 211.72 L3918.83 210.45 L3924.30 209.43 L3925.57 209.17 L3926.46 208.92 L3926.84 208.67 L3927.22 208.41 L3932.05 208.54 L3931.93 227.74 L3941.21 297.93 L3943.50 348.16 L3945.79 358.71 L3948.84 359.35 L3956.21 462.35 L3962.19 508.25 L3962.44 510.54 L3967.53 562.80 L3967.28 582.89 L3968.93 591.54 L3972.62 611.88 L3973.89 633.88 L3975.79 656.01 L3982.66 735.48 L3985.08 749.85 L3984.95 768.42 L3991.18 819.02 L3989.91 821.06 L3992.83 846.62 L3995.00 872.43 L3997.79 892.01 L4003.77 948.09 L4002.50 960.42 L4010.51 1035.70 L4014.07 1062.53 L4015.98 1079.70 L4018.52 1079.83 L4021.19 1093.56 L4021.06 1101.44 L4022.97 1111.87 L4023.35 1122.80 L4024.88 1134.12 L4027.67 1153.32 L4028.56 1156.76 L4028.82 1160.06 L4026.78 1166.04 L4025.64 1166.04 L4024.75 1166.29 L4022.72 1166.55 L4015.85 1160.32 L4011.02 1156.76 L4005.80 1166.93 L4004.40 1178.12 L4003.77 1178.88 L4003.13 1179.90 L3999.06 1182.44 L3997.16 1183.59 L3993.34 1187.66 L3990.16 1193.12 L3988.26 1202.79 L3986.22 1212.71 L3984.95 1224.53 L3984.95 1233.18 L3982.92 1250.34 L3983.93 1277.81 L3984.57 1290.53 L3984.57 1295.36 L3984.31 1300.57 L3984.19 1307.31 L3984.19 1307.82 L3985.71 1313.92 L3985.46 1321.68 L3986.98 1330.45 L3988.64 1336.94 L3991.43 1343.04 L3991.82 1351.31 L3992.32 1360.08 L3990.29 1366.31 L3987.62 1374.83 L3987.62 1381.70 L3988.38 1387.29 L3987.37 1395.18 L3987.49 1403.06 L3989.02 1413.74 L3988.13 1421.12 L3984.44 1435.23 L3981.26 1443.37 L3980.63 1447.95 L3979.99 1456.47 L3979.74 1465.50 L3979.74 1474.14 L3980.50 1480.12 L3979.86 1486.09 L3979.74 1497.41 L3979.10 1512.16 L3978.08 1524.50 L3976.18 1585.53 L3977.19 1597.23 L3976.05 1608.55 L3975.92 1622.79 L3974.78 1634.74 L3976.94 1651.53 L3978.08 1661.95 L3976.05 1696.03 L3977.45 1708.11 L3978.08 1715.74 L3977.45 1720.57 L3976.94 1726.17 L3976.18 1747.28 L3983.17 1780.34 L3984.57 1815.69 L3986.60 1835.27 L3989.78 1850.15 L3995.63 1902.03 L3997.03 1908.77 L3998.43 1940.56 L3997.67 1956.07 L3996.39 2003.12 L3996.14 2022.07 L3997.28 2027.41 L3998.43 2034.02 L3989.27 2122.14 L3989.40 2139.05 L3990.29 2204.66 L3990.29 2210.51 L3991.05 2267.73 L3991.18 2276.25 L3977.45 2278.54 L3962.70 2280.96 L3958.50 2280.83 L3903.70 2291.64 L3900.01 2292.40 L3895.94 2293.17 L3895.56 2293.17 L3895.30 2293.42 L3894.80 2294.06 L3894.54 2294.69 L3894.41 2295.33 L3894.54 2296.85 L3894.54 2297.24 L3894.41 2297.74 L3894.16 2298.25 L3893.65 2298.51 L3892.13 2299.14 L3882.72 2301.43 L3882.72 2301.43 Z" stroke-linejoin="round"/>
	</defs>
	<use xlink:href="#path_bxZEvMFN" style="fill:#004249;stroke:#00465F;stroke-width:5.76"/>
</svg>
