<?xml version="1.0" encoding="UTF-8" standalone="no"?>
<!-- This is a Stata 16.1 generated SVG file (http://www.stata.com) -->

<svg version="1.1" width="6.47in" height="4.00in" viewBox="0 0 4656 2880" xmlns="http://www.w3.org/2000/svg" xmlns:xlink="http://www.w3.org/1999/xlink">
	<desc>Stata Graph - Graph</desc>
	<rect x="0" y="0" width="4656" height="2880" style="fill:#FFFFFF;stroke:none"/>
	<defs>
		<path id="path_cclTgmPg" d="M4015.07 2382.42 L4015.07 2382.42 L3977.97 2379.51 L3973.31 2379.80 L3965.89 2380.53 L3962.26 2380.82 L3958.76 2380.82 L3950.32 2380.53 L3950.76 2378.35 L3951.63 2374.56 L3953.09 2364.82 L3955.85 2342.85 L3957.75 2327.28 L3961.97 2294.98 L3967.20 2260.93 L3968.51 2244.79 L3976.22 2195.17 L3977.53 2183.97 L3979.28 2167.82 L3983.06 2149.78 L4004.60 1958.02 L4005.32 1948.42 L4006.63 1939.98 L4007.94 1932.56 L4008.67 1926.74 L4008.82 1924.70 L4009.98 1916.41 L4011.43 1904.19 L4023.95 1805.98 L4033.55 1743.71 L4035.30 1726.11 L4058.87 1546.28 L4047.81 1552.54 L4044.17 1552.83 L4040.68 1552.25 L4036.17 1553.26 L4020.31 1552.68 L3999.65 1552.97 L4009.69 1549.19 L4028.31 1545.70 L4059.60 1539.73 L4059.45 1538.42 L4061.05 1523.73 L4061.78 1510.49 L4062.07 1500.89 L4062.21 1490.41 L4054.65 1474.85 L4053.34 1456.51 L4044.46 1400.64 L4012.74 1267.81 L4004.45 1223.15 L4002.27 1211.80 L4012.16 1210.34 L4018.42 1208.89 L4000.96 1204.81 L3999.94 1198.56 L3996.16 1174.99 L3988.16 1179.93 L3984.81 1179.93 L3982.77 1177.46 L3980.88 1177.32 L3956.00 1174.55 L3962.55 1172.37 L3966.62 1171.79 L3969.53 1170.91 L3979.72 1169.02 L3994.41 1166.40 L3993.97 1164.95 L3993.83 1163.78 L3989.17 1138.61 L3986.99 1127.99 L3963.27 965.92 L3962.40 947.15 L3963.13 914.85 L3963.57 899.43 L3963.71 893.75 L3973.17 893.03 L3976.81 892.88 L3977.10 884.15 L3979.43 823.63 L3979.57 821.30 L3980.44 797.87 L3982.48 749.57 L3982.77 740.84 L3986.26 645.25 L3986.55 591.57 L3987.14 588.95 L3986.99 586.04 L3981.46 528.57 L3977.10 498.16 L3966.62 423.53 L3966.18 419.89 L3964.29 416.83 L3958.62 403.74 L3957.16 393.70 L3954.69 377.26 L3950.76 349.47 L3950.18 345.98 L3948.58 335.50 L3945.23 314.70 L3941.16 289.09 L3940.43 284.14 L3938.83 267.99 L3932.86 230.02 L3931.99 223.47 L3934.90 224.49 L3937.08 224.93 L3953.53 221.73 L3973.02 218.53 L3992.67 214.31 L4005.61 212.27 L4004.45 202.67 L4014.05 201.51 L4024.53 200.05 L4026.86 199.61 L4064.54 194.23 L4073.13 193.21 L4076.04 192.48 L4082.29 191.47 L4084.48 210.09 L4084.91 212.71 L4084.77 212.85 L4086.08 224.06 L4086.95 225.80 L4088.26 227.11 L4090.01 228.28 L4091.75 228.57 L4099.03 227.55 L4099.90 236.71 L4101.65 247.63 L4103.97 267.56 L4106.45 288.36 L4108.34 304.08 L4108.48 305.53 L4109.07 310.62 L4109.79 316.88 L4110.52 322.85 L4112.41 338.85 L4112.85 343.36 L4114.45 356.16 L4114.89 358.49 L4114.74 358.78 L4115.90 368.67 L4117.36 378.86 L4121.72 378.28 L4128.27 377.26 L4136.86 375.95 L4147.33 374.49 L4158.68 413.20 L4165.96 427.31 L4170.76 461.93 L4185.31 459.75 L4187.93 459.32 L4208.15 455.10 L4220.66 453.35 L4222.56 453.06 L4227.21 454.37 L4228.96 454.81 L4228.08 459.17 L4245.11 457.13 L4291.96 451.31 L4296.32 446.95 L4300.40 446.51 L4303.60 446.08 L4326.88 442.44 L4341.87 435.31 L4357.29 428.18 L4366.60 419.01 L4387.84 415.52 L4435.28 405.92 L4435.86 419.60 L4437.02 446.80 L4439.64 469.65 L4441.97 540.21 L4442.26 581.24 L4444.59 625.18 L4522.43 621.10 L4587.61 617.90 L4591.40 617.32 L4596.20 617.03 L4601.00 616.45 L4604.78 616.59 L4604.78 623.28 L4604.64 625.47 L4607.26 625.47 L4606.97 633.18 L4606.09 638.85 L4605.80 640.60 L4606.53 651.51 L4605.22 665.77 L4605.80 677.99 L4606.97 692.68 L4605.51 695.30 L4604.35 702.29 L4605.22 712.47 L4608.42 716.25 L4604.06 767.61 L4602.75 787.54 L4601.00 812.13 L4598.82 816.93 L4597.80 837.74 L4595.62 843.99 L4595.91 887.35 L4593.00 894.33 L4594.16 915.72 L4593.44 921.69 L4594.31 938.42 L4595.62 959.81 L4597.36 983.81 L4596.49 986.72 L4595.33 999.53 L4596.49 1028.04 L4595.33 1028.04 L4594.74 1048.70 L4595.47 1060.34 L4597.07 1081.44 L4605.51 1233.62 L4608.28 1327.17 L4610.31 1396.43 L4610.17 1401.66 L4610.17 1442.26 L4607.55 1444.87 L4606.68 1494.34 L4604.93 1575.67 L4605.37 1578.58 L4606.68 1588.91 L4607.84 1634.30 L4605.95 1639.83 L4604.35 1655.84 L4604.64 1687.41 L4603.18 1695.56 L4584.41 1702.54 L4581.80 1703.41 L4576.27 1704.43 L4556.33 1707.63 L4552.55 1708.21 L4554.30 1714.76 L4555.90 1720.29 L4556.33 1721.74 L4558.37 1727.85 L4559.97 1732.51 L4560.99 1735.27 L4559.68 1735.57 L4558.66 1736.73 L4556.62 1737.17 L4555.60 1737.31 L4550.66 1738.33 L4535.23 1741.24 L4525.92 1742.84 L4516.76 1744.30 L4515.74 1743.86 L4490.86 1748.81 L4490.28 1749.10 L4489.84 1749.68 L4489.84 1750.11 L4490.71 1755.64 L4492.17 1761.03 L4494.49 1764.95 L4491.59 1765.83 L4489.69 1767.43 L4489.55 1768.59 L4484.02 1777.18 L4476.89 1778.34 L4480.38 1855.01 L4481.25 1866.80 L4481.98 1870.58 L4482.42 1876.11 L4473.25 1875.67 L4473.11 1883.53 L4474.42 1893.42 L4474.56 1895.46 L4475.73 1914.81 L4476.89 1920.48 L4478.78 1930.52 L4469.32 1932.56 L4451.14 1935.91 L4442.55 1937.51 L4442.70 1930.09 L4427.56 1932.42 L4427.56 1930.09 L4427.71 1928.05 L4429.17 1916.41 L4429.02 1915.39 L4428.73 1914.67 L4428.44 1914.23 L4428.58 1913.21 L4439.50 1911.17 L4442.70 1910.45 L4441.39 1905.35 L4441.53 1904.48 L4441.68 1904.04 L4442.26 1903.61 L4443.28 1903.17 L4444.44 1902.88 L4463.79 1899.68 L4464.81 1899.68 L4465.40 1899.68 L4460.01 1897.79 L4458.70 1895.61 L4457.83 1895.17 L4447.06 1897.06 L4444.59 1897.64 L4440.08 1898.37 L4438.91 1898.66 L4437.46 1898.37 L4436.73 1898.08 L4436.00 1896.77 L4435.71 1895.75 L4435.71 1895.17 L4435.86 1894.15 L4436.30 1892.41 L4436.59 1888.48 L4436.44 1886.59 L4436.00 1882.37 L4435.86 1881.49 L4436.88 1881.20 L4439.93 1879.75 L4440.81 1879.46 L4441.68 1879.17 L4453.17 1877.42 L4461.18 1875.82 L4460.45 1871.60 L4452.88 1872.47 L4445.90 1876.40 L4444.44 1876.55 L4442.55 1876.84 L4438.33 1877.42 L4436.30 1877.71 L4434.99 1877.57 L4432.80 1876.55 L4432.66 1873.05 L4432.66 1871.45 L4423.78 1874.36 L4423.93 1869.42 L4424.07 1862.43 L4420.58 1850.50 L4420.58 1845.99 L4420.58 1841.48 L4419.42 1841.63 L4418.25 1841.63 L4417.09 1841.63 L4415.63 1841.63 L4414.32 1841.63 L4413.16 1841.92 L4412.29 1842.50 L4411.12 1843.52 L4405.01 1850.50 L4403.56 1852.10 L4399.92 1856.47 L4394.68 1862.43 L4390.17 1867.38 L4385.66 1872.62 L4382.90 1876.11 L4379.99 1879.46 L4378.24 1881.35 L4375.77 1884.26 L4371.11 1889.50 L4368.93 1892.11 L4367.91 1891.10 L4367.18 1890.22 L4367.04 1889.35 L4366.89 1887.75 L4366.16 1869.85 L4347.54 1871.60 L4347.54 1873.20 L4342.88 1873.49 L4342.59 1873.49 L4342.59 1875.09 L4343.03 1909.72 L4343.76 1929.51 L4344.05 1938.96 L4347.83 1937.65 L4348.12 1945.22 L4348.85 1966.02 L4349.14 1973.44 L4349.43 1980.43 L4349.43 1984.79 L4349.58 1988.72 L4349.87 1997.30 L4350.01 2000.51 L4350.30 2007.93 L4350.45 2015.05 L4350.60 2019.42 L4350.89 2027.42 L4351.03 2033.24 L4351.61 2051.43 L4352.05 2062.05 L4353.51 2103.51 L4352.49 2103.95 L4351.61 2104.24 L4349.43 2104.82 L4345.94 2105.11 L4340.56 2105.99 L4337.79 2106.42 L4310.58 2110.93 L4298.51 2113.26 L4275.81 2117.33 L4253.69 2121.41 L4224.01 2126.36 L4221.10 2126.79 L4218.34 2127.96 L4218.77 2130.57 L4193.89 2135.96 L4180.07 2139.16 L4180.51 2143.96 L4159.12 2144.40 L4154.61 2145.56 L4154.90 2156.47 L4156.06 2161.86 L4150.39 2163.02 L4134.53 2166.07 L4135.40 2172.33 L4136.71 2183.10 L4138.17 2193.72 L4142.09 2213.21 L4145.00 2229.51 L4147.33 2244.35 L4145.88 2244.79 L4142.68 2245.37 L4134.09 2247.40 L4125.22 2248.86 L4111.25 2250.90 L4108.34 2252.06 L4106.74 2253.95 L4106.30 2255.55 L4110.23 2273.30 L4110.96 2275.05 L4111.98 2277.08 L4113.14 2282.32 L4109.50 2282.61 L4098.30 2284.80 L4090.88 2285.38 L4079.53 2285.09 L4078.80 2285.38 L4076.91 2287.85 L4075.16 2289.01 L4072.84 2290.03 L4069.64 2290.76 L4066.43 2293.67 L4064.98 2299.64 L4065.42 2301.53 L4065.71 2302.84 L4066.14 2305.45 L4067.31 2310.84 L4067.31 2320.73 L4068.33 2324.22 L4071.09 2342.41 L4072.11 2349.98 L4072.98 2355.21 L4053.34 2359.00 L4039.81 2361.03 L4010.42 2365.98 L4015.07 2375.87 L4016.38 2378.35 L4015.65 2380.53 L4015.07 2382.42 L4015.07 2382.42 Z" stroke-linejoin="round"/>
	</defs>
	<use xlink:href="#path_cclTgmPg" style="fill:#CEE3E4;stroke:#CEF5F5;stroke-width:5.76"/>
	<defs>
		<path id="path_sWiVBiho" d="M2242.01 2762.59 L2242.01 2762.59 L2242.01 2762.59 L2238.37 2759.39 L2232.26 2755.90 L2203.02 2685.48 L2054.61 2751.39 L2042.09 2751.68 L2028.71 2751.82 L2027.25 2751.82 L2025.65 2751.68 L2025.07 2747.60 L2024.34 2741.64 L2023.61 2734.80 L2022.30 2725.20 L2021.43 2718.65 L2020.56 2713.27 L2019.25 2705.12 L2018.38 2699.88 L2017.79 2696.39 L2016.05 2685.62 L2012.99 2667.73 L2010.23 2650.85 L2004.55 2617.97 L2002.81 2607.79 L1998.88 2583.49 L1998.01 2578.54 L1995.82 2564.43 L1994.95 2558.90 L1990.73 2533.59 L1985.06 2500.85 L1978.65 2462.88 L1971.23 2419.81 L1966.87 2393.04 L1963.52 2373.40 L1962.94 2369.91 L1957.27 2336.30 L1955.08 2323.50 L1952.90 2310.69 L1951.45 2302.11 L1950.57 2296.73 L1949.12 2288.43 L1945.19 2264.43 L1943.88 2256.86 L1937.77 2221.22 L1930.79 2179.75 L1923.80 2137.85 L1917.54 2101.77 L1915.22 2087.80 L1912.89 2073.69 L1911.58 2065.54 L1909.25 2052.01 L1906.20 2033.24 L1899.79 1995.56 L1898.34 1987.12 L1893.54 1959.62 L1889.32 1933.43 L1888.01 1925.72 L1884.52 1905.79 L1876.66 1858.94 L1868.95 1813.11 L1861.24 1767.57 L1857.45 1747.93 L1852.65 1718.83 L1848.58 1694.97 L1847.27 1687.26 L1846.25 1681.73 L1843.63 1667.48 L1842.47 1663.84 L1841.45 1660.93 L1840.14 1657.29 L1838.68 1650.16 L1834.46 1627.90 L1831.41 1610.59 L1824.57 1570.29 L1824.42 1569.56 L1824.13 1568.98 L1823.84 1567.67 L1823.26 1564.61 L1822.82 1561.85 L1822.24 1558.36 L1818.02 1559.08 L1817.15 1554.28 L1804.49 1479.65 L1794.60 1426.25 L1787.47 1387.70 L1783.39 1364.71 L1767.10 1275.23 L1774.37 1274.07 L1775.97 1273.63 L1778.45 1273.34 L1787.32 1271.59 L1827.63 1263.74 L1876.66 1254.86 L1893.54 1251.52 L1967.31 1238.28 L2066.68 1218.05 L2082.98 1217.18 L2094.18 1216.02 L2122.12 1211.21 L2146.56 1206.56 L2155.87 1204.81 L2277.22 1182.99 L2304.43 1178.62 L2312.43 1177.32 L2321.74 1175.72 L2328.29 1174.70 L2336.29 1174.11 L2338.33 1174.11 L2340.22 1174.41 L2344.01 1174.70 L2350.26 1174.99 L2356.37 1174.84 L2361.90 1174.41 L2367.28 1173.82 L2372.81 1172.81 L2390.42 1169.60 L2391.15 1169.46 L2410.21 1166.69 L2420.39 1165.24 L2449.06 1159.86 L2503.76 1150.11 L2537.37 1145.60 L2545.67 1144.29 L2566.91 1140.80 L2590.48 1136.87 L2635.73 1129.30 L2652.32 1126.54 L2662.36 1124.94 L2700.63 1118.97 L2700.92 1120.72 L2703.24 1134.54 L2703.83 1137.74 L2714.88 1214.27 L2742.68 1212.52 L2794.47 1202.34 L2809.02 1194.34 L2846.71 1192.59 L2847.73 1206.85 L2848.89 1208.01 L2850.05 1215.29 L2849.04 1218.20 L2851.80 1234.35 L2852.96 1239.88 L2853.69 1240.75 L2855.00 1241.19 L2891.38 1234.64 L2893.56 1235.37 L2894.72 1236.24 L2895.45 1237.55 L2900.25 1236.82 L2900.69 1240.02 L2902.58 1252.24 L2903.45 1257.04 L2905.49 1270.14 L2906.07 1273.34 L2906.36 1275.23 L2909.85 1298.22 L2910.15 1299.53 L2910.29 1301.27 L2911.02 1305.20 L2911.89 1310.44 L2913.93 1323.24 L2914.36 1325.86 L2914.95 1329.50 L2916.98 1341.72 L2919.75 1357.43 L2920.04 1360.93 L2921.20 1368.05 L2921.64 1370.24 L2922.08 1372.56 L2923.24 1381.00 L2924.40 1390.75 L2924.40 1391.48 L2929.35 1427.12 L2931.68 1443.27 L2931.82 1445.02 L2933.13 1456.08 L2935.32 1467.72 L2936.19 1474.26 L2936.48 1476.59 L2936.92 1479.06 L2937.35 1483.14 L2937.50 1484.74 L2938.52 1491.14 L2940.12 1503.65 L2941.28 1512.09 L2942.01 1516.75 L2943.90 1531.00 L2945.21 1541.63 L2945.36 1541.92 L2946.81 1553.26 L2946.81 1553.56 L2948.27 1562.29 L2949.14 1567.96 L2950.01 1573.34 L2950.45 1576.54 L2951.47 1582.80 L2952.49 1588.76 L2953.50 1595.02 L2954.38 1599.97 L2955.69 1607.39 L2956.85 1614.81 L2959.32 1629.79 L2959.76 1632.56 L2961.22 1640.85 L2962.67 1649.29 L2963.25 1653.36 L2965.73 1668.64 L2966.74 1675.04 L2968.64 1685.81 L2969.22 1689.30 L2971.26 1700.94 L2971.40 1701.96 L2973.87 1716.65 L2976.64 1733.53 L2977.22 1737.17 L2978.39 1745.17 L2979.11 1749.53 L2979.55 1753.02 L2980.86 1761.32 L2981.30 1763.50 L2981.73 1766.26 L2982.75 1773.10 L2982.90 1773.83 L2984.50 1786.34 L2985.51 1791.87 L2985.81 1793.33 L2986.24 1795.51 L2989.73 1812.82 L2993.08 1831.15 L2993.81 1834.79 L2995.12 1841.77 L2995.84 1845.12 L2996.57 1848.76 L2998.46 1859.67 L3001.23 1875.82 L3004.28 1892.99 L3006.76 1907.10 L3008.94 1919.90 L3009.23 1921.36 L3011.85 1937.36 L3012.87 1942.75 L3014.18 1950.02 L3015.63 1958.75 L3015.92 1960.64 L3016.22 1962.39 L3017.82 1971.70 L3017.96 1972.28 L3018.54 1976.21 L3020.29 1985.67 L3021.02 1990.76 L3022.91 2001.67 L3024.22 2008.94 L3027.71 2028.73 L3028.44 2033.53 L3030.33 2044.01 L3031.06 2047.64 L3032.66 2058.41 L3036.44 2079.65 L3038.62 2091.58 L3040.80 2104.68 L3041.53 2109.33 L3043.13 2118.64 L3043.71 2121.70 L3045.02 2129.12 L3046.48 2137.12 L3049.10 2150.07 L3051.72 2163.16 L3054.34 2176.70 L3056.81 2189.50 L3056.95 2190.08 L3057.39 2192.55 L3058.12 2196.05 L3059.14 2200.85 L3059.43 2202.74 L3059.72 2203.47 L3061.90 2214.81 L3062.34 2217.72 L3063.94 2225.00 L3066.99 2240.42 L3069.61 2253.37 L3069.61 2253.66 L3071.80 2264.28 L3071.80 2264.43 L3074.71 2278.98 L3075.29 2282.03 L3077.47 2293.09 L3080.67 2309.24 L3081.54 2313.75 L3083.29 2322.19 L3073.25 2327.13 L2994.10 2337.61 L2962.67 2341.83 L2939.97 2342.12 L2908.98 2355.36 L2909.85 2395.08 L2919.17 2433.05 L2924.70 2442.51 L2928.62 2472.92 L2943.76 2541.88 L2927.02 2545.52 L2823.14 2561.08 L2802.33 2569.81 L2762.46 2573.89 L2747.62 2576.51 L2719.98 2581.45 L2710.37 2583.05 L2700.63 2585.09 L2678.66 2588.87 L2664.11 2591.20 L2658.14 2592.51 L2648.25 2594.11 L2625.40 2598.62 L2604.89 2602.11 L2583.35 2605.75 L2581.75 2606.04 L2579.57 2606.48 L2534.90 2614.04 L2496.20 2620.88 L2479.76 2623.64 L2443.53 2629.75 L2401.77 2637.18 L2354.04 2645.61 L2310.39 2653.18 L2297.01 2655.65 L2263.11 2661.62 L2234.01 2681.84 L2235.32 2687.95 L2242.74 2722.72 L2253.07 2744.11 L2243.90 2759.39 L2242.01 2762.59 L2242.01 2762.59 Z" stroke-linejoin="round"/>
	</defs>
	<use xlink:href="#path_sWiVBiho" style="fill:#CEE3E4;stroke:#CEF5F5;stroke-width:5.76"/>
	<defs>
		<path id="path_wtqryBCR" d="M1044.25 2478.88 L1044.25 2478.88 L1019.81 2443.38 L1012.83 2421.99 L1007.30 2398.71 L999.88 2384.02 L998.42 2375.87 L974.85 2329.32 L957.97 2295.85 L952.01 2284.07 L916.50 2245.08 L913.45 2238.09 L902.97 2214.96 L954.92 2203.32 L961.90 2193.72 L964.52 2190.08 L1047.75 2160.84 L1050.36 2157.20 L1048.18 2152.40 L936.87 2046.63 L921.16 1963.84 L876.64 1866.07 L868.34 1829.12 L848.41 1753.46 L774.93 1771.94 L642.96 1823.15 L622.16 1783.43 L507.50 1561.41 L483.06 1565.20 L405.51 1451.86 L388.92 1428.72 L186.82 1220.24 L45.54 1073.58 L58.20 1071.40 L129.79 1059.18 L145.21 1056.70 L367.97 1021.49 L601.93 982.50 L604.12 982.21 L627.83 979.59 L789.34 959.08 L797.19 958.06 L950.84 927.51 L965.10 920.09 L968.88 918.34 L977.47 919.07 L980.82 920.23 L1034.36 910.63 L1081.21 902.19 L1119.04 895.21 L1193.39 882.11 L1247.37 872.22 L1299.32 862.62 L1337.00 855.63 L1341.22 855.05 L1424.30 840.07 L1424.30 840.07 L1460.97 841.96 L1491.96 832.21 L1541.86 827.41 L1543.61 827.41 L1588.86 819.99 L1596.28 817.95 L1676.45 804.57 L1686.35 802.97 L1689.69 802.38 L1691.29 802.24 L1694.20 803.40 L1702.93 802.38 L1723.59 798.46 L1751.38 793.80 L1787.76 787.69 L1825.15 780.42 L1843.48 776.92 L1891.21 767.90 L1948.24 757.86 L1966.72 753.94 L2039.04 740.84 L2040.35 740.70 L2043.40 757.72 L2043.98 760.92 L2046.17 760.48 L2064.94 757.28 L2070.90 755.68 L2078.18 753.21 L2083.71 750.15 L2089.67 745.21 L2093.02 742.30 L2102.33 734.15 L2108.59 730.80 L2113.97 728.62 L2128.66 724.40 L2138.70 723.24 L2143.36 723.82 L2148.16 724.26 L2162.13 728.18 L2170.86 731.68 L2179.59 735.17 L2182.94 736.62 L2193.27 740.26 L2195.30 742.59 L2202.00 744.77 L2215.82 749.86 L2217.57 750.44 L2219.31 751.17 L2220.18 748.70 L2222.95 741.13 L2224.55 737.35 L2226.88 731.82 L2229.93 724.84 L2233.13 717.27 L2235.46 711.74 L2237.06 707.82 L2238.52 704.32 L2435.23 674.50 L2442.65 672.17 L2441.49 658.20 L2450.22 656.17 L2464.77 655.44 L2592.08 629.83 L2597.32 633.03 L2617.69 631.87 L2628.02 631.29 L2637.04 635.65 L2646.64 631.58 L2682.44 626.05 L2693.79 630.41 L2796.51 614.12 L2799.57 631.72 L2805.24 662.42 L2808.00 677.70 L2808.88 681.92 L2813.97 711.31 L2824.01 768.92 L2824.88 772.85 L2825.17 776.63 L2825.90 779.11 L2827.21 788.42 L2827.79 790.31 L2828.81 797.29 L2829.25 798.89 L2829.83 800.06 L2830.56 800.93 L2831.43 801.51 L2832.45 802.09 L2832.16 804.28 L2832.16 808.06 L2832.01 810.68 L2831.87 815.62 L2832.16 821.15 L2832.45 826.25 L2833.03 832.21 L2833.47 835.56 L2833.90 838.47 L2835.21 846.18 L2837.69 861.31 L2838.85 868.00 L2840.74 879.79 L2841.47 884.01 L2843.36 893.90 L2844.38 899.57 L2844.96 903.79 L2846.27 910.92 L2848.74 926.05 L2850.64 937.11 L2851.95 944.67 L2853.55 953.55 L2854.13 957.62 L2856.16 969.55 L2856.46 970.72 L2858.64 984.54 L2858.93 986.29 L2859.22 988.32 L2860.97 997.63 L2861.26 998.94 L2861.69 1002.87 L2863.59 1014.07 L2864.46 1018.88 L2866.93 1034.88 L2867.22 1036.33 L2869.26 1048.85 L2872.02 1065.14 L2872.90 1070.82 L2874.35 1079.25 L2875.52 1086.82 L2875.66 1087.98 L2876.10 1089.88 L2876.24 1091.33 L2876.53 1092.49 L2877.84 1100.64 L2879.74 1112.14 L2881.63 1124.07 L2883.52 1135.27 L2885.70 1148.51 L2886.28 1152.29 L2891.81 1185.75 L2893.70 1198.41 L2895.45 1209.76 L2895.60 1210.78 L2898.36 1226.64 L2900.25 1236.82 L2895.45 1237.55 L2894.72 1236.24 L2893.56 1235.37 L2891.38 1234.64 L2855.00 1241.19 L2853.69 1240.75 L2852.96 1239.88 L2851.80 1234.35 L2849.04 1218.20 L2850.05 1215.29 L2848.89 1208.01 L2847.73 1206.85 L2846.71 1192.59 L2809.02 1194.34 L2794.47 1202.34 L2742.68 1212.52 L2714.88 1214.27 L2703.83 1137.74 L2703.24 1134.54 L2700.92 1120.72 L2700.63 1118.97 L2662.36 1124.94 L2652.32 1126.54 L2635.73 1129.30 L2590.48 1136.87 L2566.91 1140.80 L2545.67 1144.29 L2537.37 1145.60 L2503.76 1150.11 L2449.06 1159.86 L2420.39 1165.24 L2410.21 1166.69 L2391.15 1169.46 L2390.42 1169.60 L2372.81 1172.81 L2367.28 1173.82 L2361.90 1174.41 L2356.37 1174.84 L2350.26 1174.99 L2344.01 1174.70 L2340.22 1174.41 L2338.33 1174.11 L2336.29 1174.11 L2328.29 1174.70 L2321.74 1175.72 L2312.43 1177.32 L2304.43 1178.62 L2277.22 1182.99 L2155.87 1204.81 L2146.56 1206.56 L2122.12 1211.21 L2094.18 1216.02 L2082.98 1217.18 L2066.68 1218.05 L1967.31 1238.28 L1893.54 1251.52 L1876.66 1254.86 L1827.63 1263.74 L1787.32 1271.59 L1778.45 1273.34 L1775.97 1273.63 L1774.37 1274.07 L1767.10 1275.23 L1783.39 1364.71 L1787.47 1387.70 L1794.60 1426.25 L1804.49 1479.65 L1817.15 1554.28 L1818.02 1559.08 L1819.04 1564.61 L1782.08 1570.87 L1781.07 1573.49 L1780.63 1575.96 L1779.76 1571.60 L1751.67 1576.54 L1730.58 1580.33 L1658.26 1595.60 L1611.41 1603.46 L1565.73 1610.44 L1556.27 1610.73 L1477.26 1626.01 L1473.48 1626.74 L1354.61 1647.98 L1353.59 1642.60 L1342.24 1644.63 L1319.68 1648.71 L1308.05 1650.74 L1301.79 1651.91 L1296.11 1652.93 L1277.93 1656.13 L1274.43 1656.85 L1269.20 1657.73 L1252.17 1660.78 L1227.44 1665.15 L1224.82 1665.58 L1209.69 1668.35 L1205.18 1669.22 L1191.35 1671.69 L1188.30 1672.28 L1182.62 1673.15 L1173.60 1674.75 L1169.97 1675.33 L1167.93 1675.62 L1166.33 1675.77 L1159.63 1676.35 L1157.02 1676.79 L1153.96 1677.08 L1144.94 1678.10 L1142.32 1678.39 L1136.94 1679.55 L1134.03 1679.99 L1109.00 1684.35 L1106.38 1684.79 L1103.91 1685.08 L1101.58 1685.52 L1102.89 1692.65 L1104.05 1699.05 L1106.24 1711.70 L1108.42 1723.34 L1109.58 1730.04 L1110.75 1735.71 L1110.89 1736.73 L1111.47 1739.35 L1112.64 1745.31 L1113.66 1750.11 L1114.53 1755.50 L1115.55 1760.74 L1117.59 1772.96 L1121.37 1792.16 L1123.99 1808.46 L1126.32 1823.59 L1131.12 1850.36 L1132.43 1858.36 L1132.86 1860.25 L1134.03 1867.38 L1137.52 1886.88 L1143.19 1918.88 L1146.69 1937.94 L1151.49 1965.30 L1153.09 1973.59 L1153.38 1975.77 L1158.18 2002.11 L1162.55 2026.84 L1171.13 2075.00 L1171.57 2078.05 L1173.89 2091.00 L1175.49 2099.88 L1178.40 2115.88 L1180.15 2126.79 L1193.39 2199.25 L1195.72 2212.49 L1197.32 2221.80 L1198.19 2226.45 L1199.79 2235.62 L1202.70 2251.19 L1204.59 2261.66 L1207.65 2279.12 L1208.23 2282.90 L1213.47 2312.29 L1216.82 2330.92 L1221.04 2354.05 L1222.93 2364.82 L1230.64 2408.32 L1232.09 2416.76 L1237.04 2444.84 L1230.64 2446.14 L1207.94 2450.07 L1179.28 2454.73 L1156.00 2458.66 L1102.89 2468.70 L1056.18 2476.84 L1044.25 2478.88 L1044.25 2478.88 Z" stroke-linejoin="round"/>
	</defs>
	<use xlink:href="#path_wtqryBCR" style="fill:#9DC8CA;stroke:#9DD7F0;stroke-width:5.76"/>
	<defs>
		<path id="path_RaJuNTbT" d="M3490.98 2463.46 L3490.98 2463.46 L3490.11 2457.64 L3449.22 2465.93 L3373.42 2476.26 L3347.23 2480.77 L3336.17 2482.08 L3329.77 2482.81 L3323.66 2482.81 L3301.98 2484.41 L3285.24 2488.63 L3207.69 2500.41 L3206.53 2500.85 L3204.64 2500.85 L3125.05 2511.76 L3124.90 2512.34 L3121.41 2513.07 L3035.13 2528.78 L2944.19 2544.50 L2943.76 2541.88 L2928.62 2472.92 L2924.70 2442.51 L2919.17 2433.05 L2909.85 2395.08 L2908.98 2355.36 L2939.97 2342.12 L2962.67 2341.83 L2994.10 2337.61 L3073.25 2327.13 L3083.29 2322.19 L3081.54 2313.75 L3080.67 2309.24 L3077.47 2293.09 L3075.29 2282.03 L3074.71 2278.98 L3071.80 2264.43 L3071.80 2264.28 L3069.61 2253.66 L3069.61 2253.37 L3066.99 2240.42 L3063.94 2225.00 L3062.34 2217.72 L3061.90 2214.81 L3059.72 2203.47 L3059.43 2202.74 L3059.14 2200.85 L3058.12 2196.05 L3057.39 2192.55 L3056.95 2190.08 L3056.81 2189.50 L3054.34 2176.70 L3051.72 2163.16 L3049.10 2150.07 L3046.48 2137.12 L3045.02 2129.12 L3043.71 2121.70 L3043.13 2118.64 L3041.53 2109.33 L3040.80 2104.68 L3038.62 2091.58 L3036.44 2079.65 L3032.66 2058.41 L3031.06 2047.64 L3030.33 2044.01 L3028.44 2033.53 L3027.71 2028.73 L3024.22 2008.94 L3022.91 2001.67 L3021.02 1990.76 L3020.29 1985.67 L3018.54 1976.21 L3017.96 1972.28 L3017.82 1971.70 L3016.22 1962.39 L3015.92 1960.64 L3015.63 1958.75 L3014.18 1950.02 L3012.87 1942.75 L3011.85 1937.36 L3009.23 1921.36 L3008.94 1919.90 L3006.76 1907.10 L3004.28 1892.99 L3001.23 1875.82 L2998.46 1859.67 L2996.57 1848.76 L2995.84 1845.12 L2995.12 1841.77 L2993.81 1834.79 L2993.08 1831.15 L2989.73 1812.82 L2986.24 1795.51 L2985.81 1793.33 L2985.51 1791.87 L2984.50 1786.34 L2982.90 1773.83 L2982.75 1773.10 L2981.73 1766.26 L2981.30 1763.50 L2980.86 1761.32 L2979.55 1753.02 L2979.11 1749.53 L2978.39 1745.17 L2977.22 1737.17 L2976.64 1733.53 L2973.87 1716.65 L2971.40 1701.96 L2971.26 1700.94 L2969.22 1689.30 L2968.64 1685.81 L2966.74 1675.04 L2965.73 1668.64 L2963.25 1653.36 L2962.67 1649.29 L2961.22 1640.85 L2959.76 1632.56 L2959.32 1629.79 L2956.85 1614.81 L2955.69 1607.39 L2954.38 1599.97 L2953.50 1595.02 L2952.49 1588.76 L2951.47 1582.80 L2950.45 1576.54 L2950.01 1573.34 L2949.14 1567.96 L2948.27 1562.29 L2946.81 1553.56 L2946.81 1553.26 L2945.36 1541.92 L2945.21 1541.63 L2943.90 1531.00 L2942.01 1516.75 L2941.28 1512.09 L2940.12 1503.65 L2938.52 1491.14 L2937.50 1484.74 L2937.35 1483.14 L2936.92 1479.06 L2936.48 1476.59 L2936.19 1474.26 L2935.32 1467.72 L2933.13 1456.08 L2931.82 1445.02 L2931.68 1443.27 L2929.35 1427.12 L2924.40 1391.48 L2924.40 1390.75 L2923.24 1381.00 L2922.08 1372.56 L2921.64 1370.24 L2921.20 1368.05 L2920.04 1360.93 L2919.75 1357.43 L2916.98 1341.72 L2914.95 1329.50 L2914.36 1325.86 L2913.93 1323.24 L2911.89 1310.44 L2911.02 1305.20 L2910.29 1301.27 L2910.15 1299.53 L2909.85 1298.22 L2906.36 1275.23 L2906.07 1273.34 L2905.49 1270.14 L2903.45 1257.04 L2902.58 1252.24 L2900.69 1240.02 L2900.25 1236.82 L2898.36 1226.64 L2895.60 1210.78 L2895.45 1209.76 L2893.70 1198.41 L2891.81 1185.75 L2886.28 1152.29 L2885.70 1148.51 L2883.52 1135.27 L2881.63 1124.07 L2879.74 1112.14 L2877.84 1100.64 L2876.53 1092.49 L2876.24 1091.33 L2876.10 1089.88 L2875.66 1087.98 L2875.52 1086.82 L2874.35 1079.25 L2872.90 1070.82 L2872.02 1065.14 L2869.26 1048.85 L2867.22 1036.33 L2866.93 1034.88 L2864.46 1018.88 L2863.59 1014.07 L2861.69 1002.87 L2861.26 998.94 L2860.97 997.63 L2859.22 988.32 L2858.93 986.29 L2858.64 984.54 L2856.46 970.72 L2856.16 969.55 L2854.13 957.62 L2853.55 953.55 L2851.95 944.67 L2850.64 937.11 L2848.74 926.05 L2846.27 910.92 L2844.96 903.79 L2844.38 899.57 L2843.36 893.90 L2841.47 884.01 L2840.74 879.79 L2838.85 868.00 L2837.69 861.31 L2835.21 846.18 L2833.90 838.47 L2833.47 835.56 L2833.03 832.21 L2832.45 826.25 L2832.16 821.15 L2831.87 815.62 L2832.01 810.68 L2832.16 808.06 L2832.16 804.28 L2832.45 802.09 L2831.43 801.51 L2830.56 800.93 L2829.83 800.06 L2829.25 798.89 L2828.81 797.29 L2827.79 790.31 L2827.21 788.42 L2825.90 779.11 L2825.17 776.63 L2824.88 772.85 L2824.01 768.92 L2813.97 711.31 L2808.88 681.92 L2808.00 677.70 L2805.24 662.42 L2799.57 631.72 L2796.51 614.12 L2795.35 607.86 L2794.76 604.81 L2785.74 554.32 L2818.92 548.36 L2826.19 547.63 L2833.18 598.55 L2828.37 599.28 L2808.59 602.19 L2809.17 605.97 L2809.75 611.35 L2810.04 613.68 L2849.76 605.53 L2901.12 597.24 L2922.22 593.90 L2938.23 591.13 L2947.54 589.09 L2948.85 588.95 L2950.01 589.09 L2951.61 589.82 L2953.07 591.28 L2954.52 592.30 L2956.85 587.93 L2957.00 587.49 L2958.01 585.02 L2960.20 580.22 L2961.36 577.16 L2962.96 573.09 L2964.13 569.60 L2965.29 565.38 L2966.60 560.58 L2967.33 557.09 L2967.76 554.76 L2968.64 550.98 L2969.36 547.48 L2969.36 546.03 L2969.66 543.99 L2970.09 540.50 L2970.38 537.59 L2970.53 534.97 L2970.67 532.06 L2970.82 529.30 L2970.82 526.53 L2970.82 525.66 L2970.82 524.35 L2970.82 521.73 L2970.67 518.53 L2970.53 515.48 L2970.24 511.26 L2969.95 508.49 L2969.22 499.62 L2968.49 492.34 L2967.76 482.30 L2967.47 478.81 L2966.60 468.77 L2965.87 461.06 L2965.58 456.12 L2965.29 452.77 L2965.29 451.90 L2964.56 444.77 L2964.13 439.24 L2963.54 431.67 L2963.40 429.64 L2963.11 426.87 L2962.38 418.87 L2961.51 407.81 L2960.93 400.25 L2960.34 393.26 L2960.05 390.06 L2959.91 388.17 L2959.03 379.59 L2957.43 360.24 L2956.12 343.21 L2955.83 340.45 L2954.96 329.97 L2953.80 317.61 L2953.21 310.04 L2952.78 305.10 L2952.34 298.98 L2951.03 283.71 L2950.16 274.69 L2949.72 267.99 L2951.90 267.70 L2952.92 267.56 L2963.54 266.10 L2964.85 267.12 L2966.02 266.98 L2967.33 274.98 L2968.35 281.67 L2969.66 285.31 L2970.82 286.18 L2972.86 286.47 L2981.30 285.74 L2990.17 285.16 L2999.34 283.71 L3007.92 281.23 L3015.49 279.20 L3021.74 277.60 L3023.64 276.00 L3024.36 273.96 L3024.80 271.20 L3024.07 266.83 L3022.76 261.45 L3021.31 253.88 L3019.85 244.28 L3019.71 239.19 L3019.71 236.86 L3020.43 232.93 L3020.43 227.98 L3020.00 222.17 L3018.69 219.11 L3016.36 216.78 L3012.87 216.64 L3007.34 217.22 L3005.88 216.35 L3005.30 214.75 L3004.87 210.82 L3003.85 203.98 L3003.27 201.21 L3001.66 191.18 L3001.08 187.39 L3006.76 186.23 L3017.82 184.19 L3029.89 182.30 L3033.68 181.72 L3044.01 180.12 L3055.65 177.94 L3063.79 176.34 L3094.49 171.39 L3097.70 170.81 L3106.57 169.35 L3121.99 166.59 L3140.62 163.24 L3165.79 158.15 L3178.88 155.82 L3193.72 153.06 L3214.24 149.27 L3220.35 148.40 L3245.23 144.91 L3254.54 143.45 L3265.75 141.56 L3267.35 141.27 L3269.53 140.84 L3281.03 138.80 L3285.24 137.93 L3292.66 136.47 L3298.92 135.45 L3306.78 133.85 L3311.58 132.83 L3325.26 130.21 L3339.22 127.45 L3354.36 124.69 L3359.01 123.81 L3364.98 122.50 L3376.91 120.32 L3388.99 118.14 L3417.50 113.63 L3423.91 112.46 L3430.45 111.16 L3434.24 110.43 L3436.56 109.99 L3438.02 109.70 L3439.33 109.55 L3440.64 109.26 L3459.70 105.34 L3461.74 117.70 L3462.75 122.65 L3463.63 127.74 L3464.94 134.72 L3465.23 135.89 L3465.52 138.07 L3467.85 151.17 L3468.57 154.37 L3468.87 156.40 L3469.45 159.75 L3470.47 165.71 L3471.19 170.22 L3471.63 174.30 L3472.36 180.41 L3473.38 189.72 L3475.56 207.18 L3475.99 209.94 L3476.43 214.02 L3477.01 219.40 L3477.45 222.17 L3477.74 224.06 L3478.18 227.98 L3478.61 231.62 L3479.34 237.30 L3480.51 246.75 L3481.52 255.05 L3482.54 264.07 L3483.12 269.16 L3483.56 275.27 L3483.85 281.09 L3484.14 286.62 L3484.43 292.87 L3484.72 298.55 L3485.02 305.24 L3485.31 309.61 L3485.74 315.28 L3486.33 321.54 L3486.91 326.77 L3487.20 328.81 L3487.64 332.01 L3488.22 337.54 L3488.65 340.89 L3489.24 345.11 L3490.40 353.98 L3492.44 371.44 L3492.73 373.33 L3493.31 378.28 L3494.18 384.24 L3494.33 385.70 L3496.07 399.66 L3496.36 402.43 L3497.38 410.58 L3499.28 427.74 L3501.75 446.51 L3503.35 459.75 L3504.08 465.72 L3504.22 467.17 L3505.53 478.38 L3505.68 478.96 L3507.13 490.31 L3508.01 496.42 L3510.48 513.88 L3511.79 521.30 L3512.52 526.10 L3516.59 552.87 L3518.04 562.03 L3518.48 565.23 L3519.94 574.84 L3520.66 579.35 L3521.39 583.57 L3522.12 588.51 L3522.41 591.42 L3525.17 609.46 L3526.48 617.76 L3526.48 617.90 L3526.92 620.37 L3527.50 624.30 L3527.79 626.49 L3529.25 635.36 L3529.98 640.02 L3530.70 643.94 L3532.01 653.11 L3532.16 654.57 L3533.61 663.73 L3534.49 669.84 L3535.07 673.19 L3535.80 677.70 L3536.38 682.21 L3536.52 682.79 L3537.40 688.32 L3538.27 693.99 L3539.00 699.23 L3540.01 705.20 L3541.76 717.56 L3542.93 725.42 L3543.36 727.46 L3544.53 734.88 L3544.82 737.06 L3545.69 743.02 L3546.56 747.83 L3547.14 752.19 L3548.60 761.21 L3549.62 768.05 L3550.05 770.38 L3550.35 772.56 L3552.09 783.76 L3552.67 788.42 L3554.57 801.22 L3555.73 809.08 L3557.91 823.63 L3559.22 831.48 L3562.28 850.54 L3563.44 857.67 L3568.82 888.66 L3569.41 892.30 L3571.15 901.03 L3572.17 906.41 L3573.92 915.58 L3574.35 918.05 L3576.83 931.29 L3580.17 949.33 L3581.48 957.62 L3583.23 965.92 L3589.92 1002.14 L3594.43 1026.73 L3599.09 1051.61 L3599.52 1054.52 L3599.82 1055.83 L3600.11 1056.99 L3606.51 1091.48 L3608.40 1101.37 L3611.02 1115.77 L3611.75 1119.85 L3612.18 1121.88 L3613.64 1129.45 L3614.51 1134.40 L3618.00 1152.87 L3621.35 1171.06 L3621.79 1173.39 L3623.10 1180.52 L3625.28 1193.17 L3625.71 1195.50 L3628.62 1209.91 L3630.52 1220.09 L3631.97 1226.93 L3634.59 1240.46 L3637.50 1257.19 L3637.79 1259.66 L3638.08 1261.70 L3640.70 1275.38 L3641.57 1279.89 L3642.88 1286.87 L3645.65 1301.86 L3646.52 1306.22 L3646.81 1307.82 L3649.58 1322.95 L3650.16 1326.44 L3651.03 1330.37 L3651.90 1335.32 L3654.81 1351.03 L3658.60 1370.53 L3659.32 1374.89 L3661.07 1384.20 L3663.40 1397.01 L3664.42 1402.83 L3664.71 1404.14 L3665.44 1407.92 L3667.47 1418.98 L3669.95 1431.34 L3670.38 1434.25 L3674.31 1456.37 L3675.33 1461.46 L3679.40 1483.43 L3686.39 1521.69 L3686.39 1522.13 L3688.43 1532.31 L3691.48 1548.90 L3691.92 1550.06 L3697.59 1582.80 L3700.65 1598.22 L3703.41 1612.92 L3703.70 1614.66 L3706.61 1631.83 L3707.05 1634.30 L3707.49 1636.34 L3714.47 1673.00 L3714.61 1674.02 L3716.51 1684.50 L3719.71 1701.67 L3721.31 1709.96 L3724.07 1724.65 L3728.58 1749.24 L3729.16 1752.15 L3731.20 1763.35 L3732.51 1769.90 L3733.38 1774.41 L3737.89 1799.00 L3738.62 1802.93 L3741.68 1819.81 L3744.73 1835.81 L3745.17 1837.99 L3746.92 1847.74 L3750.55 1866.94 L3753.90 1884.69 L3754.63 1888.19 L3755.79 1895.17 L3757.39 1903.32 L3757.83 1906.23 L3759.14 1913.06 L3761.61 1925.87 L3763.36 1935.62 L3763.94 1938.67 L3765.10 1945.22 L3766.27 1950.46 L3768.89 1965.15 L3769.61 1968.21 L3770.05 1971.41 L3772.23 1983.05 L3772.52 1984.79 L3772.96 1986.83 L3773.25 1989.45 L3773.54 1990.90 L3777.76 2013.16 L3779.80 2023.93 L3782.13 2036.59 L3783.29 2042.84 L3783.73 2045.75 L3789.84 2083.29 L3791.44 2092.60 L3793.91 2107.15 L3799.44 2139.16 L3801.33 2149.78 L3804.24 2166.37 L3813.70 2220.34 L3815.74 2231.84 L3818.21 2246.53 L3819.81 2255.41 L3822.14 2268.21 L3823.89 2278.10 L3824.32 2280.58 L3825.20 2285.96 L3826.07 2290.91 L3826.07 2291.20 L3827.09 2296.87 L3828.25 2303.56 L3830.43 2316.66 L3830.72 2318.40 L3831.45 2322.33 L3832.32 2327.42 L3838.87 2363.51 L3843.38 2389.55 L3844.55 2395.37 L3845.27 2400.17 L3845.71 2402.64 L3840.18 2401.77 L3735.28 2420.97 L3720.73 2422.87 L3718.69 2420.83 L3686.97 2428.98 L3667.62 2433.34 L3658.31 2433.92 L3625.28 2436.25 L3616.98 2438.00 L3604.76 2442.94 L3603.60 2443.38 L3588.90 2446.44 L3524.16 2456.47 L3517.75 2458.37 L3490.98 2463.46 L3490.98 2463.46 Z" stroke-linejoin="round"/>
	</defs>
	<use xlink:href="#path_RaJuNTbT" style="fill:#6BACAF;stroke:#6BB4D2;stroke-width:5.76"/>
	<defs>
		<path id="path_hJHDqiEw" d="M3862.15 2400.61 L3862.15 2400.61 L3857.93 2395.81 L3848.33 2394.79 L3846.29 2395.08 L3844.55 2395.37 L3843.38 2389.55 L3838.87 2363.51 L3832.32 2327.42 L3831.45 2322.33 L3830.72 2318.40 L3830.43 2316.66 L3828.25 2303.56 L3827.09 2296.87 L3826.07 2291.20 L3826.07 2290.91 L3825.20 2285.96 L3824.32 2280.58 L3823.89 2278.10 L3822.14 2268.21 L3819.81 2255.41 L3818.21 2246.53 L3815.74 2231.84 L3813.70 2220.34 L3804.24 2166.37 L3801.33 2149.78 L3799.44 2139.16 L3793.91 2107.15 L3791.44 2092.60 L3789.84 2083.29 L3783.73 2045.75 L3783.29 2042.84 L3782.13 2036.59 L3779.80 2023.93 L3777.76 2013.16 L3773.54 1990.90 L3773.25 1989.45 L3772.96 1986.83 L3772.52 1984.79 L3772.23 1983.05 L3770.05 1971.41 L3769.61 1968.21 L3768.89 1965.15 L3766.27 1950.46 L3765.10 1945.22 L3763.94 1938.67 L3763.36 1935.62 L3761.61 1925.87 L3759.14 1913.06 L3757.83 1906.23 L3757.39 1903.32 L3755.79 1895.17 L3754.63 1888.19 L3753.90 1884.69 L3750.55 1866.94 L3746.92 1847.74 L3745.17 1837.99 L3744.73 1835.81 L3741.68 1819.81 L3738.62 1802.93 L3737.89 1799.00 L3733.38 1774.41 L3732.51 1769.90 L3731.20 1763.35 L3729.16 1752.15 L3728.58 1749.24 L3724.07 1724.65 L3721.31 1709.96 L3719.71 1701.67 L3716.51 1684.50 L3714.61 1674.02 L3714.47 1673.00 L3707.49 1636.34 L3707.05 1634.30 L3706.61 1631.83 L3703.70 1614.66 L3703.41 1612.92 L3700.65 1598.22 L3697.59 1582.80 L3691.92 1550.06 L3691.48 1548.90 L3688.43 1532.31 L3686.39 1522.13 L3686.39 1521.69 L3679.40 1483.43 L3675.33 1461.46 L3674.31 1456.37 L3670.38 1434.25 L3669.95 1431.34 L3667.47 1418.98 L3665.44 1407.92 L3664.71 1404.14 L3664.42 1402.83 L3663.40 1397.01 L3661.07 1384.20 L3659.32 1374.89 L3658.60 1370.53 L3654.81 1351.03 L3651.90 1335.32 L3651.03 1330.37 L3650.16 1326.44 L3649.58 1322.95 L3646.81 1307.82 L3646.52 1306.22 L3645.65 1301.86 L3642.88 1286.87 L3641.57 1279.89 L3640.70 1275.38 L3638.08 1261.70 L3637.79 1259.66 L3637.50 1257.19 L3634.59 1240.46 L3631.97 1226.93 L3630.52 1220.09 L3628.62 1209.91 L3625.71 1195.50 L3625.28 1193.17 L3623.10 1180.52 L3621.79 1173.39 L3621.35 1171.06 L3618.00 1152.87 L3614.51 1134.40 L3613.64 1129.45 L3612.18 1121.88 L3611.75 1119.85 L3611.02 1115.77 L3608.40 1101.37 L3606.51 1091.48 L3600.11 1056.99 L3599.82 1055.83 L3599.52 1054.52 L3599.09 1051.61 L3594.43 1026.73 L3589.92 1002.14 L3583.23 965.92 L3581.48 957.62 L3580.17 949.33 L3576.83 931.29 L3574.35 918.05 L3573.92 915.58 L3572.17 906.41 L3571.15 901.03 L3569.41 892.30 L3568.82 888.66 L3563.44 857.67 L3562.28 850.54 L3559.22 831.48 L3557.91 823.63 L3555.73 809.08 L3554.57 801.22 L3552.67 788.42 L3552.09 783.76 L3550.35 772.56 L3550.05 770.38 L3549.62 768.05 L3548.60 761.21 L3547.14 752.19 L3546.56 747.83 L3545.69 743.02 L3544.82 737.06 L3544.53 734.88 L3543.36 727.46 L3542.93 725.42 L3541.76 717.56 L3540.01 705.20 L3539.00 699.23 L3538.27 693.99 L3537.40 688.32 L3536.52 682.79 L3536.38 682.21 L3535.80 677.70 L3535.07 673.19 L3534.49 669.84 L3533.61 663.73 L3532.16 654.57 L3532.01 653.11 L3530.70 643.94 L3529.98 640.02 L3529.25 635.36 L3527.79 626.49 L3527.50 624.30 L3526.92 620.37 L3526.48 617.90 L3526.48 617.76 L3525.17 609.46 L3522.41 591.42 L3522.12 588.51 L3521.39 583.57 L3520.66 579.35 L3519.94 574.84 L3518.48 565.23 L3518.04 562.03 L3516.59 552.87 L3512.52 526.10 L3511.79 521.30 L3510.48 513.88 L3508.01 496.42 L3507.13 490.31 L3505.68 478.96 L3505.53 478.38 L3504.22 467.17 L3504.08 465.72 L3503.35 459.75 L3501.75 446.51 L3499.28 427.74 L3497.38 410.58 L3496.36 402.43 L3496.07 399.66 L3494.33 385.70 L3494.18 384.24 L3493.31 378.28 L3492.73 373.33 L3492.44 371.44 L3490.40 353.98 L3489.24 345.11 L3488.65 340.89 L3488.22 337.54 L3487.64 332.01 L3487.20 328.81 L3486.91 326.77 L3486.33 321.54 L3485.74 315.28 L3485.31 309.61 L3485.02 305.24 L3484.72 298.55 L3484.43 292.87 L3484.14 286.62 L3483.85 281.09 L3483.56 275.27 L3483.12 269.16 L3482.54 264.07 L3481.52 255.05 L3480.51 246.75 L3479.34 237.30 L3478.61 231.62 L3478.18 227.98 L3477.74 224.06 L3477.45 222.17 L3477.01 219.40 L3476.43 214.02 L3475.99 209.94 L3475.56 207.18 L3473.38 189.72 L3472.36 180.41 L3471.63 174.30 L3471.19 170.22 L3470.47 165.71 L3469.45 159.75 L3468.87 156.40 L3468.57 154.37 L3467.85 151.17 L3465.52 138.07 L3465.23 135.89 L3464.94 134.72 L3463.63 127.74 L3462.75 122.65 L3461.74 117.70 L3459.70 105.34 L3461.74 104.90 L3463.92 104.61 L3471.19 103.15 L3482.25 100.97 L3491.42 99.08 L3504.51 96.46 L3526.19 92.24 L3559.37 85.99 L3572.17 83.51 L3597.63 78.71 L3602.87 77.69 L3616.55 75.07 L3627.17 73.18 L3645.50 69.69 L3666.60 66.49 L3671.84 65.91 L3674.17 65.62 L3676.78 65.47 L3685.22 64.16 L3693.23 63.00 L3694.24 62.85 L3696.86 62.42 L3700.65 61.83 L3707.49 60.67 L3713.16 59.51 L3719.42 58.20 L3730.18 56.60 L3742.55 53.98 L3747.93 52.52 L3752.74 51.65 L3765.54 49.18 L3767.43 48.74 L3775.14 46.99 L3777.76 46.56 L3782.42 45.83 L3796.09 43.36 L3819.67 39.72 L3820.10 39.72 L3827.96 38.41 L3831.01 37.97 L3831.31 37.83 L3837.42 36.81 L3845.57 35.65 L3866.08 32.59 L3890.52 28.95 L3891.54 28.66 L3895.18 28.37 L3895.62 29.97 L3897.36 72.31 L3899.40 86.13 L3910.89 156.84 L3912.06 166.15 L3922.10 165.28 L3926.61 188.99 L3927.77 196.41 L3931.70 221.87 L3931.99 223.47 L3932.86 230.02 L3938.83 267.99 L3940.43 284.14 L3941.16 289.09 L3945.23 314.70 L3948.58 335.50 L3950.18 345.98 L3950.76 349.47 L3954.69 377.26 L3957.16 393.70 L3958.62 403.74 L3964.29 416.83 L3966.18 419.89 L3966.62 423.53 L3977.10 498.16 L3981.46 528.57 L3986.99 586.04 L3987.14 588.95 L3986.55 591.57 L3986.26 645.25 L3982.77 740.84 L3982.48 749.57 L3980.44 797.87 L3979.57 821.30 L3979.43 823.63 L3977.10 884.15 L3976.81 892.88 L3973.17 893.03 L3963.71 893.75 L3963.57 899.43 L3963.13 914.85 L3962.40 947.15 L3963.27 965.92 L3986.99 1127.99 L3989.17 1138.61 L3993.83 1163.78 L3993.97 1164.95 L3994.41 1166.40 L3979.72 1169.02 L3969.53 1170.91 L3966.62 1171.79 L3962.55 1172.37 L3956.00 1174.55 L3980.88 1177.32 L3982.77 1177.46 L3984.81 1179.93 L3988.16 1179.93 L3996.16 1174.99 L3999.94 1198.56 L4000.96 1204.81 L4018.42 1208.89 L4012.16 1210.34 L4002.27 1211.80 L4004.45 1223.15 L4012.74 1267.81 L4044.46 1400.64 L4053.34 1456.51 L4054.65 1474.85 L4062.21 1490.41 L4062.07 1500.89 L4061.78 1510.49 L4061.05 1523.73 L4059.45 1538.42 L4059.60 1539.73 L4028.31 1545.70 L4009.69 1549.19 L3999.65 1552.97 L4020.31 1552.68 L4036.17 1553.26 L4040.68 1552.25 L4044.17 1552.83 L4047.81 1552.54 L4058.87 1546.28 L4035.30 1726.11 L4033.55 1743.71 L4023.95 1805.98 L4011.43 1904.19 L4009.98 1916.41 L4008.82 1924.70 L4008.67 1926.74 L4007.94 1932.56 L4006.63 1939.98 L4005.32 1948.42 L4004.60 1958.02 L3983.06 2149.78 L3979.28 2167.82 L3977.53 2183.97 L3976.22 2195.17 L3968.51 2244.79 L3967.20 2260.93 L3961.97 2294.98 L3957.75 2327.28 L3955.85 2342.85 L3953.09 2364.82 L3951.63 2374.56 L3950.76 2378.35 L3950.32 2380.53 L3949.89 2383.29 L3949.45 2385.18 L3938.68 2386.78 L3862.15 2400.61 L3862.15 2400.61 Z" stroke-linejoin="round"/>
	</defs>
	<use xlink:href="#path_hJHDqiEw" style="fill:#09757A;stroke:#097D9B;stroke-width:5.76"/>
	<defs>
		<path id="path_gwSGWaCW" d="M1675.58 2802.60 L1675.58 2802.60 L1569.07 2829.22 L1472.75 2839.84 L1323.47 2851.63 L1316.19 2851.63 L1311.25 2851.77 L1300.92 2847.99 L1247.08 2837.95 L1238.64 2836.50 L1192.37 2844.06 L1154.25 2850.47 L1124.71 2848.57 L1000.75 2846.39 L959.86 2838.83 L928.87 2833.15 L925.38 2838.10 L894.53 2664.96 L862.67 2485.28 L815.09 2229.07 L795.16 2141.49 L786.72 2123.15 L767.22 2087.36 L758.20 2070.49 L634.53 1838.28 L483.06 1565.20 L507.50 1561.41 L622.16 1783.43 L642.96 1823.15 L774.93 1771.94 L848.41 1753.46 L868.34 1829.12 L876.64 1866.07 L921.16 1963.84 L936.87 2046.63 L1048.18 2152.40 L1050.36 2157.20 L1047.75 2160.84 L964.52 2190.08 L961.90 2193.72 L954.92 2203.32 L902.97 2214.96 L913.45 2238.09 L916.50 2245.08 L952.01 2284.07 L957.97 2295.85 L974.85 2329.32 L998.42 2375.87 L999.88 2384.02 L1007.30 2398.71 L1012.83 2421.99 L1019.81 2443.38 L1044.25 2478.88 L1056.18 2476.84 L1102.89 2468.70 L1156.00 2458.66 L1179.28 2454.73 L1207.94 2450.07 L1230.64 2446.14 L1237.04 2444.84 L1232.09 2416.76 L1230.64 2408.32 L1222.93 2364.82 L1221.04 2354.05 L1216.82 2330.92 L1213.47 2312.29 L1208.23 2282.90 L1207.65 2279.12 L1204.59 2261.66 L1202.70 2251.19 L1199.79 2235.62 L1198.19 2226.45 L1197.32 2221.80 L1195.72 2212.49 L1193.39 2199.25 L1180.15 2126.79 L1178.40 2115.88 L1175.49 2099.88 L1173.89 2091.00 L1171.57 2078.05 L1171.13 2075.00 L1162.55 2026.84 L1158.18 2002.11 L1153.38 1975.77 L1153.09 1973.59 L1151.49 1965.30 L1146.69 1937.94 L1143.19 1918.88 L1137.52 1886.88 L1134.03 1867.38 L1132.86 1860.25 L1132.43 1858.36 L1131.12 1850.36 L1126.32 1823.59 L1123.99 1808.46 L1121.37 1792.16 L1117.59 1772.96 L1115.55 1760.74 L1114.53 1755.50 L1113.66 1750.11 L1112.64 1745.31 L1111.47 1739.35 L1110.89 1736.73 L1110.75 1735.71 L1109.58 1730.04 L1108.42 1723.34 L1106.24 1711.70 L1104.05 1699.05 L1102.89 1692.65 L1101.58 1685.52 L1103.91 1685.08 L1106.38 1684.79 L1109.00 1684.35 L1134.03 1679.99 L1136.94 1679.55 L1142.32 1678.39 L1144.94 1678.10 L1153.96 1677.08 L1157.02 1676.79 L1159.63 1676.35 L1166.33 1675.77 L1167.93 1675.62 L1169.97 1675.33 L1173.60 1674.75 L1182.62 1673.15 L1188.30 1672.28 L1191.35 1671.69 L1205.18 1669.22 L1209.69 1668.35 L1224.82 1665.58 L1227.44 1665.15 L1252.17 1660.78 L1269.20 1657.73 L1274.43 1656.85 L1277.93 1656.13 L1296.11 1652.93 L1301.79 1651.91 L1308.05 1650.74 L1319.68 1648.71 L1342.24 1644.63 L1353.59 1642.60 L1354.61 1647.98 L1473.48 1626.74 L1477.26 1626.01 L1556.27 1610.73 L1565.73 1610.44 L1611.41 1603.46 L1658.26 1595.60 L1730.58 1580.33 L1751.67 1576.54 L1779.76 1571.60 L1780.63 1575.96 L1781.07 1573.49 L1782.08 1570.87 L1819.04 1564.61 L1818.02 1559.08 L1822.24 1558.36 L1822.82 1561.85 L1823.26 1564.61 L1823.84 1567.67 L1824.13 1568.98 L1824.42 1569.56 L1824.57 1570.29 L1831.41 1610.59 L1834.46 1627.90 L1838.68 1650.16 L1840.14 1657.29 L1841.45 1660.93 L1842.47 1663.84 L1843.63 1667.48 L1846.25 1681.73 L1847.27 1687.26 L1848.58 1694.97 L1852.65 1718.83 L1857.45 1747.93 L1861.24 1767.57 L1868.95 1813.11 L1876.66 1858.94 L1884.52 1905.79 L1888.01 1925.72 L1889.32 1933.43 L1893.54 1959.62 L1898.34 1987.12 L1899.79 1995.56 L1906.20 2033.24 L1909.25 2052.01 L1911.58 2065.54 L1912.89 2073.69 L1915.22 2087.80 L1917.54 2101.77 L1923.80 2137.85 L1930.79 2179.75 L1937.77 2221.22 L1943.88 2256.86 L1945.19 2264.43 L1949.12 2288.43 L1950.57 2296.73 L1951.45 2302.11 L1952.90 2310.69 L1955.08 2323.50 L1957.27 2336.30 L1962.94 2369.91 L1963.52 2373.40 L1966.87 2393.04 L1971.23 2419.81 L1978.65 2462.88 L1985.06 2500.85 L1990.73 2533.59 L1994.95 2558.90 L1995.82 2564.43 L1998.01 2578.54 L1998.88 2583.49 L2002.81 2607.79 L2004.55 2617.97 L2010.23 2650.85 L2012.99 2667.73 L2016.05 2685.62 L2017.79 2696.39 L2018.38 2699.88 L2019.25 2705.12 L2020.56 2713.27 L2021.43 2718.65 L2022.30 2725.20 L2023.61 2734.80 L2024.34 2741.64 L2025.07 2747.60 L2025.65 2751.68 L2020.85 2750.95 L2016.78 2750.51 L1889.46 2742.66 L1876.08 2738.58 L1869.09 2739.60 L1801.14 2764.48 L1727.96 2789.65 L1675.58 2802.60 L1675.58 2802.60 Z" stroke-linejoin="round"/>
	</defs>
	<use xlink:href="#path_gwSGWaCW" style="fill:#004249;stroke:#00465F;stroke-width:5.76"/>
</svg>
