<?xml version="1.0" encoding="UTF-8" standalone="no"?>
<!-- This is a Stata 14.2 generated SVG file (http://www.stata.com) -->

<svg version="1.1" width="4.00in" height="5.89in" viewBox="0 0 2880 4244" xmlns="http://www.w3.org/2000/svg">
	<desc>Stata Graph - Graph</desc>
	<path d="M1304.65 3147.59 L1304.65 3147.59 L1288.47 3147.59 L1250.41 3147.06 L1242.85 3147.06 L1229.45 3146.53 L1220.83 3146.13 L1217.92 3146.00 L1207.44 3145.07 L1204.39 3144.94 L1201.60 3144.80 L1197.36 3143.21 L1195.63 3143.08 L1190.99 3142.95 L1189.80 3142.95 L1188.61 3143.08 L1185.55 3143.48 L1182.50 3144.14 L1180.65 3144.41 L1178.79 3144.80 L1177.60 3145.20 L1163.01 3143.74 L1155.85 3143.74 L1101.87 3144.54 L1095.37 3145.20 L1079.19 3144.01 L1023.75 3140.29 L1002.79 3138.84 L985.42 3137.51 L965.26 3135.79 L952.26 3134.72 L941.39 3133.93 L935.69 3133.66 L932.77 3133.66 L836.08 3132.74 L814.99 3132.47 L779.85 3132.34 L704.65 3131.94 L685.95 3131.94 L664.06 3131.41 L647.35 3131.28 L636.61 3131.67 L629.05 3131.41 L593.64 3131.28 L573.21 3131.81 L522.42 3131.41 L497.48 3131.01 L473.74 3130.75 L476.13 3004.49 L476.66 2943.08 L476.66 2909.39 L477.19 2870.80 L477.19 2852.37 L477.99 2785.26 L478.65 2723.85 L478.92 2698.12 L478.92 2697.59 L479.85 2609.13 L480.38 2563.24 L480.51 2555.02 L481.30 2482.08 L482.63 2348.79 L482.76 2314.97 L484.09 2148.79 L484.89 2088.18 L480.91 2088.31 L463.93 2087.92 L428.39 2087.92 L410.35 2087.92 L386.74 2087.65 L367.38 2087.38 L344.43 2087.38 L324.27 2087.52 L314.72 2087.25 L297.22 2086.99 L294.03 2086.85 L270.69 2086.72 L253.98 2086.99 L254.91 2005.29 L255.44 1968.95 L255.57 1952.24 L256.37 1869.88 L256.37 1853.17 L256.63 1831.82 L280.37 1831.82 L286.47 1830.76 L298.15 1827.31 L300.93 1826.91 L303.72 1826.64 L366.71 1826.51 L410.88 1826.91 L414.59 1826.78 L422.02 1827.17 L430.64 1827.44 L433.16 1827.97 L436.74 1828.90 L440.85 1830.49 L442.97 1831.42 L447.48 1833.94 L450.40 1835.80 L455.18 1839.24 L466.98 1849.32 L471.22 1853.17 L472.55 1855.03 L473.74 1856.75 L475.20 1859.93 L475.47 1861.39 L475.87 1863.38 L476.13 1867.23 L476.13 1869.61 L476.13 1877.31 L476.53 1880.09 L477.06 1881.68 L477.19 1882.35 L478.78 1884.60 L479.58 1885.26 L480.11 1885.66 L481.44 1886.33 L483.03 1886.72 L487.54 1887.25 L488.07 1846.67 L487.67 1841.23 L487.54 1836.19 L487.67 1826.11 L487.67 1820.28 L487.80 1815.24 L488.07 1802.11 L488.20 1796.80 L489.00 1764.18 L489.66 1710.60 L489.53 1693.09 L489.92 1671.74 L276.26 1648.26 L258.23 1646.41 L144.03 1634.34 L28.12 1621.34 L28.65 1595.48 L28.78 1577.31 L28.78 1565.64 L259.55 1566.83 L300.53 1566.70 L434.88 1568.03 L452.52 1567.76 L491.12 1568.03 L491.78 1556.35 L492.05 1550.92 L499.47 1305.16 L500.93 1248.80 L502.39 1209.54 L503.06 1187.79 L505.31 1121.21 L507.70 1047.60 L507.70 1047.21 L507.70 1046.41 L570.96 1047.21 L624.81 1047.47 L659.42 1047.74 L676.93 1047.74 L733.16 1048.27 L737.81 1048.40 L773.61 1048.40 L808.89 1049.20 L826.93 1049.06 L855.58 1048.14 L859.29 1048.53 L863.93 1049.59 L868.71 1052.11 L873.22 1054.37 L874.68 1056.36 L878.26 1056.49 L879.85 1055.30 L887.01 1054.50 L895.63 1053.31 L897.62 1052.78 L911.28 966.44 L921.36 922.41 L922.16 919.89 L922.69 919.22 L923.35 918.69 L925.21 917.90 L927.99 917.50 L948.95 919.09 L972.42 919.62 L972.69 914.58 L972.82 900.92 L972.95 893.63 L972.95 876.78 L973.35 871.61 L973.62 869.49 L974.54 866.70 L977.46 860.60 L978.13 858.88 L978.79 855.56 L978.79 854.24 L978.66 852.51 L978.13 850.52 L977.60 848.80 L976.40 846.28 L975.74 844.56 L974.94 840.18 L974.54 834.08 L974.54 828.77 L974.94 805.70 L975.47 787.26 L984.62 787.93 L989.80 788.59 L996.43 788.85 L1001.47 788.72 L1006.51 788.19 L1010.22 787.66 L1013.54 786.86 L1024.41 784.34 L1027.73 783.55 L1038.47 780.63 L1043.78 779.30 L1051.07 778.51 L1053.99 778.51 L1059.16 778.91 L1066.06 780.10 L1074.02 782.62 L1077.33 784.08 L1084.23 787.53 L1096.03 793.63 L1100.67 795.88 L1103.33 796.94 L1104.92 797.34 L1110.09 798.00 L1135.55 800.26 L1151.73 801.59 L1198.95 804.77 L1206.24 805.03 L1205.85 843.89 L1205.05 899.60 L1204.12 995.62 L1203.86 1019.75 L1203.72 1037.39 L1203.46 1056.76 L1203.33 1060.07 L1203.19 1065.91 L1202.66 1107.68 L1201.87 1142.30 L1200.94 1211.00 L1200.54 1230.76 L1199.08 1326.65 L1198.95 1336.86 L1198.42 1391.37 L1198.29 1404.90 L1197.49 1457.68 L1197.49 1482.88 L1197.23 1505.82 L1197.23 1513.52 L1197.09 1520.68 L1196.03 1528.11 L1194.57 1538.18 L1194.18 1540.44 L1190.99 1559.14 L1190.33 1565.11 L1189.93 1570.94 L1189.80 1580.76 L1191.52 1585.40 L1196.43 1588.45 L1211.55 1589.11 L1212.61 1589.11 L1224.81 1588.98 L1237.28 1589.38 L1238.61 1589.64 L1239.14 1585.53 L1241.79 1583.54 L1243.91 1582.08 L1249.22 1578.50 L1259.03 1571.74 L1266.86 1566.70 L1274.02 1562.72 L1278.92 1559.80 L1283.96 1557.02 L1301.47 1546.14 L1313.54 1538.85 L1318.98 1535.53 L1336.22 1524.92 L1348.82 1517.76 L1359.43 1511.93 L1369.77 1505.82 L1392.45 1491.77 L1398.42 1487.39 L1410.23 1481.16 L1428.00 1470.15 L1428.00 1472.54 L1426.54 1549.72 L1425.74 1591.77 L1447.49 1592.30 L1452.67 1592.43 L1466.33 1592.69 L1483.30 1592.83 L1503.86 1593.09 L1536.62 1593.62 L1541.66 1593.75 L1540.60 1668.56 L1539.80 1720.01 L1539.93 1724.79 L1539.14 1778.37 L1539.40 1786.59 L1572.56 1790.30 L1578.00 1790.70 L1588.21 1791.63 L1597.63 1792.56 L1617.52 1794.55 L1642.85 1796.67 L1650.41 1797.60 L1655.72 1798.13 L1655.72 1801.98 L1655.85 1805.95 L1655.72 1809.93 L1655.59 1813.12 L1655.32 1827.17 L1655.72 1849.59 L1655.59 1852.77 L1655.59 1856.75 L1655.06 1882.74 L1655.06 1887.39 L1654.66 1903.83 L1653.60 1938.98 L1653.07 1963.65 L1652.67 1982.08 L1642.32 1981.95 L1634.23 1981.95 L1626.27 1981.82 L1617.65 1981.42 L1608.10 1981.28 L1603.73 1981.15 L1594.97 1981.02 L1581.84 1980.22 L1567.52 1979.43 L1553.46 1978.90 L1548.82 1978.63 L1545.50 1978.76 L1542.06 1978.63 L1538.08 1978.90 L1538.08 1985.66 L1537.95 1989.11 L1538.08 1989.77 L1537.81 2002.77 L1537.68 2016.56 L1537.28 2032.35 L1537.02 2051.31 L1536.62 2069.61 L1536.62 2075.58 L1536.35 2086.32 L1536.35 2086.59 L1536.35 2090.57 L1535.96 2107.54 L1535.96 2110.06 L1535.82 2121.60 L1535.69 2124.52 L1535.69 2126.38 L1535.56 2127.17 L1535.43 2127.70 L1534.63 2188.45 L1533.70 2238.58 L1532.77 2290.04 L1532.77 2303.83 L1532.24 2327.97 L1532.24 2353.83 L1532.11 2356.35 L1531.84 2361.92 L1531.84 2363.51 L1526.14 2363.91 L1503.73 2363.78 L1496.43 2363.64 L1493.52 2363.51 L1487.41 2363.51 L1476.54 2363.38 L1459.70 2362.98 L1442.32 2362.85 L1431.18 2362.71 L1423.36 2362.58 L1419.64 2362.45 L1417.78 2362.45 L1417.65 2366.30 L1417.65 2367.09 L1417.65 2368.02 L1417.52 2374.78 L1416.86 2392.82 L1416.72 2397.99 L1416.59 2407.28 L1416.33 2416.56 L1416.46 2427.44 L1416.46 2431.68 L1416.46 2432.61 L1416.59 2434.99 L1416.72 2447.99 L1414.87 2451.97 L1414.60 2460.86 L1414.60 2463.51 L1414.34 2495.60 L1414.34 2496.40 L1414.20 2505.02 L1413.54 2560.59 L1412.88 2626.11 L1413.94 2688.44 L1414.07 2699.05 L1415.13 2754.36 L1415.13 2755.68 L1415.13 2757.14 L1416.59 2834.73 L1416.99 2855.55 L1416.99 2882.74 L1417.78 2884.33 L1417.92 2886.72 L1416.46 2886.72 L1384.36 2885.12 L1360.36 2884.33 L1326.01 2882.60 L1308.90 2881.81 L1302.93 2881.54 L1260.49 2879.55 L1258.90 2879.69 L1253.33 2879.42 L1246.83 2879.16 L1234.23 2878.76 L1234.23 2883.53 L1232.11 2898.65 L1231.84 2903.69 L1231.71 2908.33 L1231.05 2914.57 L1230.91 2915.50 L1230.25 2918.81 L1229.32 2922.52 L1228.26 2925.44 L1226.27 2930.08 L1222.82 2936.32 L1221.23 2938.70 L1218.71 2939.77 L1214.73 2939.90 L1211.81 2938.84 L1201.47 2933.93 L1197.23 2932.87 L1192.72 2934.33 L1189.93 2936.45 L1188.34 2937.38 L1187.15 2938.70 L1186.09 2940.30 L1185.16 2941.89 L1184.63 2943.35 L1184.49 2945.34 L1184.89 2947.33 L1185.42 2948.92 L1186.75 2951.17 L1187.81 2952.37 L1189.27 2953.43 L1190.20 2953.69 L1191.26 2953.56 L1192.85 2952.90 L1195.77 2949.18 L1197.09 2948.25 L1199.88 2945.87 L1201.34 2945.20 L1203.72 2944.94 L1206.24 2945.47 L1208.10 2946.79 L1210.22 2948.78 L1211.42 2950.64 L1213.01 2953.43 L1215.93 2959.13 L1219.37 2968.41 L1223.62 2979.69 L1228.92 2990.16 L1230.25 2993.21 L1232.24 2996.66 L1235.16 3003.03 L1235.95 3004.35 L1239.40 3008.86 L1240.20 3010.45 L1240.73 3011.78 L1241.13 3013.11 L1254.12 3013.11 L1291.79 3014.04 L1306.64 3014.30 L1307.04 3031.14 L1309.69 3129.02 L1310.09 3131.54 L1310.22 3134.46 L1310.22 3147.59 L1304.65 3147.59 L1304.65 3147.59 Z" stroke-linecap="round" style="fill:#9DC8CA;stroke:#9DD7F0;stroke-width:5.76"/>
	<path d="M2335.03 1606.22 L2335.03 1606.22 L2335.03 1606.22 L2318.19 1606.22 L2309.57 1605.82 L2308.24 1605.82 L2285.83 1605.56 L2272.57 1605.43 L2268.59 1605.43 L2263.81 1605.29 L2259.04 1605.29 L2255.19 1605.29 L2247.24 1605.16 L2244.58 1605.16 L2239.54 1605.03 L2237.82 1605.03 L2231.19 1604.90 L2230.26 1604.90 L2230.39 1602.51 L2230.52 1597.34 L2230.66 1595.08 L2230.92 1593.36 L2232.25 1587.12 L2242.20 1584.60 L2248.43 1583.14 L2250.15 1582.61 L2252.94 1581.95 L2256.65 1581.02 L2257.18 1566.70 L2257.45 1565.90 L2259.44 1562.46 L2260.23 1561.26 L2260.63 1560.47 L2260.76 1557.28 L2242.46 1556.35 L2234.37 1555.96 L2234.64 1545.21 L2234.64 1541.90 L2234.50 1539.78 L2234.64 1538.58 L2234.64 1537.39 L2234.64 1532.88 L2234.64 1525.05 L2234.90 1474.66 L2241.27 1474.79 L2249.22 1474.79 L2255.86 1474.92 L2259.70 1474.92 L2269.91 1475.06 L2275.88 1475.19 L2300.95 1475.72 L2301.88 1475.72 L2301.88 1473.07 L2302.28 1452.38 L2302.41 1437.92 L2302.41 1432.88 L2302.41 1417.76 L2302.41 1414.71 L2302.28 1413.78 L2302.14 1412.85 L2302.01 1411.40 L2302.01 1410.47 L2302.01 1408.08 L2302.14 1405.03 L2302.14 1402.11 L2302.41 1380.36 L2302.81 1359.80 L2302.81 1358.61 L2302.54 1357.55 L2302.14 1356.62 L2301.75 1355.69 L2301.35 1354.90 L2300.68 1354.10 L2300.15 1353.57 L2299.62 1352.78 L2299.23 1352.11 L2298.96 1351.32 L2298.83 1350.12 L2298.69 1348.66 L2298.69 1346.67 L2324.16 1347.20 L2328.14 1347.34 L2336.23 1347.47 L2337.55 1347.47 L2343.13 1347.60 L2355.06 1347.74 L2354.93 1355.69 L2354.80 1363.92 L2354.66 1379.83 L2354.53 1382.22 L2354.40 1393.76 L2354.13 1413.25 L2353.87 1440.04 L2353.74 1443.62 L2353.60 1451.05 L2353.34 1476.91 L2352.81 1520.15 L2352.54 1538.98 L2352.54 1541.90 L2352.14 1563.25 L2351.88 1581.95 L2351.75 1594.29 L2351.61 1606.35 L2343.26 1606.35 L2335.03 1606.22 L2335.03 1606.22 Z" stroke-linecap="round" style="fill:#9DC8CA;stroke:#9DD7F0;stroke-width:5.76"/>
	<path d="M2145.78 4202.22 L2145.78 4202.22 L2132.25 4202.49 L2089.01 4201.69 L2070.84 4201.29 L2062.22 4200.90 L2036.49 4200.37 L2016.86 4199.57 L1999.09 4199.17 L1981.72 4198.38 L1898.56 4196.26 L1898.29 4192.94 L1897.23 4189.76 L1887.02 4164.82 L1885.56 4160.58 L1884.63 4157.40 L1883.97 4154.08 L1883.44 4150.63 L1883.17 4146.79 L1883.17 4140.95 L1883.57 4123.18 L1883.84 4118.93 L1884.37 4089.36 L1884.90 4072.38 L1885.03 4065.75 L1885.16 4055.14 L1886.22 4003.55 L1886.62 3986.44 L1887.15 3969.60 L1887.02 3940.55 L1892.06 3934.19 L1890.73 3934.32 L1889.94 3934.45 L1889.27 3934.59 L1888.74 3934.85 L1880.65 3934.98 L1876.14 3934.45 L1868.19 3933.52 L1831.18 3932.60 L1774.95 3931.54 L1752.01 3931.14 L1704.79 3930.08 L1691.79 3929.81 L1675.21 3929.41 L1637.02 3928.62 L1616.46 3928.35 L1556.91 3927.42 L1515.66 3926.89 L1486.62 3926.36 L1479.85 3926.23 L1469.91 3926.23 L1464.60 3926.10 L1424.02 3925.30 L1415.80 3925.17 L1411.42 3925.17 L1406.64 3925.17 L1407.71 3884.19 L1409.43 3797.98 L1410.36 3762.97 L1410.62 3745.46 L1411.02 3710.71 L1411.55 3668.41 L1411.55 3664.30 L1407.17 3664.30 L1409.56 3574.24 L1409.69 3571.46 L1410.62 3534.99 L1414.20 3404.48 L1398.82 3404.48 L1376.01 3404.35 L1373.22 3404.35 L1368.45 3404.35 L1361.15 3404.22 L1341.52 3404.09 L1334.10 3404.09 L1326.54 3403.95 L1309.69 3404.09 L1300.68 3403.95 L1291.39 3403.95 L1193.38 3403.95 L1190.33 3403.95 L1191.39 3363.64 L1192.19 3331.81 L1192.72 3307.93 L1192.85 3299.44 L1193.51 3285.92 L1193.51 3279.15 L1192.98 3265.63 L1192.72 3257.80 L1192.32 3249.31 L1192.05 3242.95 L1191.92 3241.22 L1191.79 3239.50 L1191.39 3232.34 L1190.99 3224.78 L1190.86 3222.26 L1190.59 3219.21 L1190.20 3212.71 L1189.93 3206.47 L1189.67 3202.36 L1189.67 3198.65 L1189.67 3195.07 L1189.80 3190.29 L1190.06 3186.05 L1190.59 3179.68 L1191.26 3173.72 L1191.92 3168.68 L1192.32 3166.82 L1191.66 3164.43 L1192.05 3157.14 L1192.19 3150.64 L1192.72 3146.93 L1195.10 3146.40 L1195.63 3143.08 L1197.36 3143.21 L1201.60 3144.80 L1204.39 3144.94 L1207.44 3145.07 L1217.92 3146.00 L1220.83 3146.13 L1229.45 3146.53 L1242.85 3147.06 L1250.41 3147.06 L1288.47 3147.59 L1304.65 3147.59 L1310.22 3147.59 L1310.22 3134.46 L1310.09 3131.54 L1309.69 3129.02 L1307.04 3031.14 L1306.64 3014.30 L1291.79 3014.04 L1254.12 3013.11 L1241.13 3013.11 L1240.73 3011.78 L1240.20 3010.45 L1239.40 3008.86 L1235.95 3004.35 L1235.16 3003.03 L1232.24 2996.66 L1230.25 2993.21 L1228.92 2990.16 L1223.62 2979.69 L1219.37 2968.41 L1215.93 2959.13 L1213.01 2953.43 L1211.42 2950.64 L1210.22 2948.78 L1208.10 2946.79 L1206.24 2945.47 L1203.72 2944.94 L1201.34 2945.20 L1199.88 2945.87 L1197.09 2948.25 L1195.77 2949.18 L1192.85 2952.90 L1191.26 2953.56 L1190.20 2953.69 L1189.27 2953.43 L1187.81 2952.37 L1186.75 2951.17 L1185.42 2948.92 L1184.89 2947.33 L1184.49 2945.34 L1184.63 2943.35 L1185.16 2941.89 L1186.09 2940.30 L1187.15 2938.70 L1188.34 2937.38 L1189.93 2936.45 L1192.72 2934.33 L1197.23 2932.87 L1201.47 2933.93 L1211.81 2938.84 L1214.73 2939.90 L1218.71 2939.77 L1221.23 2938.70 L1222.82 2936.32 L1226.27 2930.08 L1228.26 2925.44 L1229.32 2922.52 L1230.25 2918.81 L1230.91 2915.50 L1231.05 2914.57 L1231.71 2908.33 L1231.84 2903.69 L1232.11 2898.65 L1234.23 2883.53 L1234.23 2878.76 L1246.83 2879.16 L1253.33 2879.42 L1258.90 2879.69 L1260.49 2879.55 L1302.93 2881.54 L1308.90 2881.81 L1326.01 2882.60 L1360.36 2884.33 L1384.36 2885.12 L1416.46 2886.72 L1417.92 2886.72 L1417.78 2884.33 L1416.99 2882.74 L1416.99 2855.55 L1416.59 2834.73 L1415.13 2757.14 L1415.13 2755.68 L1415.13 2754.36 L1414.07 2699.05 L1413.94 2688.44 L1412.88 2626.11 L1413.54 2560.59 L1414.20 2505.02 L1414.34 2496.40 L1414.34 2495.60 L1414.60 2463.51 L1414.60 2460.86 L1414.87 2451.97 L1416.72 2447.99 L1416.59 2434.99 L1416.46 2432.61 L1416.46 2431.68 L1416.46 2427.44 L1416.33 2416.56 L1416.59 2407.28 L1416.72 2397.99 L1416.86 2392.82 L1417.52 2374.78 L1417.65 2368.02 L1417.65 2367.09 L1417.65 2366.30 L1417.78 2362.45 L1419.64 2362.45 L1423.36 2362.58 L1431.18 2362.71 L1442.32 2362.85 L1459.70 2362.98 L1476.54 2363.38 L1487.41 2363.51 L1493.52 2363.51 L1496.43 2363.64 L1503.73 2363.78 L1526.14 2363.91 L1531.84 2363.51 L1541.66 2364.17 L1565.80 2364.57 L1570.44 2364.44 L1576.01 2364.44 L1585.82 2364.44 L1589.14 2364.31 L1596.96 2364.57 L1618.05 2364.70 L1635.69 2364.84 L1645.51 2364.97 L1646.04 2364.97 L1647.76 2364.97 L1649.48 2365.10 L1681.32 2365.63 L1702.40 2366.30 L1705.72 2366.43 L1707.97 2366.69 L1707.18 2369.08 L1706.38 2370.67 L1705.98 2371.34 L1705.45 2372.00 L1711.55 2370.80 L1717.79 2370.94 L1728.66 2371.34 L1763.41 2372.26 L1764.74 2372.26 L1764.74 2375.98 L1764.87 2380.35 L1764.87 2382.08 L1763.68 2385.79 L1763.28 2438.58 L1763.28 2458.47 L1762.35 2505.82 L1763.01 2505.82 L1763.68 2505.82 L1764.87 2505.82 L1771.24 2505.68 L1776.14 2505.55 L1779.19 2505.82 L1785.69 2506.08 L1868.32 2503.16 L1874.42 2481.28 L1878.40 2471.47 L1878.53 2474.65 L1878.80 2481.81 L1879.73 2500.78 L1879.99 2507.28 L1880.92 2516.29 L1882.38 2532.08 L1883.04 2538.58 L1883.70 2544.94 L1884.63 2557.81 L1885.03 2563.77 L1885.16 2565.63 L1885.16 2568.55 L1885.16 2570.67 L1885.30 2573.85 L1885.69 2586.98 L1885.83 2595.34 L1886.09 2614.70 L1886.22 2621.07 L1886.49 2626.51 L1886.62 2636.98 L1886.62 2637.91 L1886.75 2638.97 L1887.42 2638.97 L1892.59 2638.71 L1908.64 2638.84 L1912.48 2638.84 L1927.60 2639.50 L1929.73 2639.64 L1934.63 2639.90 L1941.66 2640.43 L1961.69 2640.96 L1976.94 2641.09 L1988.88 2641.23 L2015.14 2641.76 L2041.13 2642.16 L2068.45 2642.69 L2104.00 2643.22 L2113.28 2643.48 L2132.65 2643.35 L2143.39 2643.22 L2153.20 2643.08 L2160.50 2642.82 L2182.25 2642.82 L2208.24 2642.42 L2223.36 2642.29 L2226.81 2642.29 L2242.46 2642.29 L2262.22 2642.02 L2283.18 2641.76 L2301.88 2642.16 L2301.75 2640.17 L2306.92 2640.30 L2329.46 2639.37 L2332.25 2639.37 L2334.50 2639.37 L2336.63 2640.56 L2339.54 2640.56 L2345.25 2640.43 L2359.57 2640.30 L2360.76 2640.03 L2367.40 2640.30 L2369.39 2639.90 L2381.85 2637.78 L2385.17 2636.19 L2388.22 2634.73 L2400.15 2649.45 L2451.61 2677.96 L2469.65 2692.69 L2499.49 2721.07 L2531.06 2755.81 L2536.63 2770.01 L2533.58 2782.87 L2524.03 2786.85 L2498.30 2758.20 L2447.64 2744.41 L2426.55 2732.07 L2414.48 2732.07 L2404.40 2736.45 L2398.83 2747.19 L2398.03 2765.89 L2402.01 2810.72 L2342.86 2826.37 L2318.46 2874.65 L2319.52 2889.10 L2320.18 2896.80 L2320.31 2899.05 L2320.84 2911.12 L2323.89 2922.92 L2324.96 2934.46 L2326.81 2950.51 L2322.83 2963.77 L2315.27 2985.26 L2308.38 2993.21 L2301.21 3000.64 L2298.30 3003.69 L2297.10 3003.69 L2294.45 3008.47 L2292.06 3015.10 L2291.27 3021.60 L2292.46 3022.79 L2292.86 3025.44 L2295.91 3031.54 L2303.87 3042.82 L2309.57 3048.92 L2326.02 3055.02 L2336.63 3060.85 L2349.49 3067.75 L2361.03 3075.04 L2367.66 3084.19 L2369.39 3092.42 L2369.52 3100.24 L2368.32 3106.34 L2363.68 3111.12 L2357.18 3116.29 L2337.82 3121.99 L2318.19 3124.25 L2296.17 3129.02 L2287.55 3135.65 L2283.97 3143.74 L2284.77 3150.37 L2287.55 3153.03 L2295.64 3158.60 L2300.15 3159.92 L2306.65 3160.32 L2314.61 3158.46 L2327.48 3154.35 L2341.93 3152.63 L2345.78 3154.22 L2353.07 3161.25 L2355.19 3167.09 L2356.92 3171.33 L2360.76 3182.73 L2364.48 3195.33 L2364.35 3212.58 L2362.49 3221.59 L2359.57 3228.49 L2348.83 3237.91 L2338.35 3243.48 L2316.07 3252.76 L2302.94 3260.06 L2297.77 3265.36 L2296.31 3269.34 L2295.91 3278.09 L2295.78 3281.67 L2299.76 3287.51 L2304.80 3291.62 L2311.69 3294.14 L2320.71 3294.67 L2349.23 3288.30 L2354.27 3289.63 L2364.35 3295.47 L2371.91 3303.69 L2375.22 3308.99 L2377.74 3316.02 L2379.07 3324.25 L2377.48 3333.66 L2374.56 3338.97 L2370.58 3343.08 L2363.55 3348.25 L2352.28 3357.27 L2349.23 3363.37 L2348.83 3378.89 L2357.18 3409.39 L2361.96 3418.01 L2364.88 3422.39 L2369.12 3428.75 L2377.34 3433.26 L2393.79 3433.40 L2401.35 3431.80 L2410.90 3424.11 L2419.78 3417.22 L2424.16 3415.62 L2429.60 3415.76 L2432.38 3418.94 L2431.99 3422.65 L2425.35 3434.06 L2422.04 3443.08 L2421.91 3456.21 L2425.49 3461.11 L2429.86 3463.63 L2446.18 3470.80 L2450.82 3476.50 L2455.46 3486.05 L2455.46 3491.75 L2455.46 3495.07 L2453.87 3501.96 L2453.07 3503.69 L2447.24 3514.70 L2443.52 3521.19 L2439.41 3523.98 L2414.61 3541.09 L2407.32 3550.77 L2400.69 3559.39 L2392.59 3572.39 L2384.11 3588.30 L2374.96 3598.51 L2357.32 3616.82 L2349.49 3626.50 L2345.51 3633.93 L2344.98 3642.55 L2347.90 3648.65 L2354.40 3655.68 L2364.21 3661.91 L2371.11 3664.03 L2396.84 3662.17 L2405.73 3657.80 L2418.46 3645.99 L2435.70 3628.89 L2442.33 3623.32 L2452.94 3617.21 L2467.93 3613.63 L2479.73 3615.36 L2486.76 3616.29 L2491.14 3619.20 L2495.38 3627.43 L2495.38 3629.81 L2497.90 3637.64 L2498.43 3652.49 L2498.03 3657.13 L2497.64 3660.18 L2494.19 3677.82 L2492.46 3678.22 L2491.27 3681.94 L2485.04 3689.63 L2477.34 3693.61 L2467.13 3695.20 L2460.63 3692.68 L2444.32 3681.94 L2434.90 3676.90 L2428.01 3678.49 L2424.69 3680.48 L2421.77 3684.59 L2422.04 3705.54 L2423.36 3710.85 L2423.63 3716.55 L2424.82 3719.47 L2425.09 3724.38 L2427.21 3735.12 L2429.33 3738.83 L2430.79 3744.93 L2439.28 3760.58 L2443.66 3767.21 L2454.13 3776.36 L2465.01 3782.60 L2482.78 3786.44 L2524.16 3793.74 L2542.33 3795.86 L2572.84 3807.27 L2577.48 3812.17 L2580.26 3818.41 L2580.66 3826.23 L2578.01 3838.83 L2569.78 3853.55 L2565.41 3858.06 L2553.74 3862.84 L2547.90 3864.43 L2543.52 3864.03 L2519.65 3850.24 L2468.46 3834.19 L2444.85 3829.55 L2439.15 3829.41 L2433.97 3830.21 L2428.54 3833.92 L2426.68 3837.90 L2426.55 3849.84 L2430.79 3858.86 L2444.58 3871.72 L2459.31 3881.67 L2471.38 3887.90 L2487.95 3892.68 L2497.77 3894.80 L2534.24 3892.15 L2537.82 3893.87 L2542.20 3895.99 L2549.36 3903.42 L2551.22 3908.72 L2553.60 3918.54 L2553.47 3930.47 L2552.01 3936.58 L2549.49 3939.49 L2539.94 3943.47 L2526.15 3943.34 L2518.19 3939.63 L2505.86 3928.88 L2492.20 3914.82 L2486.36 3910.58 L2478.01 3908.46 L2467.13 3910.05 L2460.23 3912.84 L2456.52 3917.34 L2450.29 3927.56 L2450.16 3939.89 L2453.34 3945.20 L2458.38 3951.03 L2466.07 3955.54 L2477.21 3957.66 L2487.42 3961.11 L2490.34 3963.10 L2493.13 3968.14 L2492.86 3969.33 L2494.32 3970.13 L2495.65 3976.36 L2497.77 3985.78 L2497.24 4005.01 L2495.38 4007.93 L2491.00 4009.92 L2477.21 4010.98 L2464.48 4001.03 L2451.61 3986.18 L2445.78 3983.26 L2438.09 3984.45 L2431.85 3987.24 L2426.81 3990.95 L2422.70 3999.44 L2422.30 4005.14 L2422.30 4006.87 L2420.45 4006.07 L2419.12 4006.07 L2417.66 4006.20 L2413.95 4007.26 L2409.84 4008.19 L2406.92 4008.72 L2405.46 4008.59 L2404.27 4007.53 L2402.54 4005.54 L2401.35 4003.02 L2401.08 4000.37 L2401.08 3999.31 L2401.61 3996.12 L2402.28 3993.87 L2403.60 3988.17 L2408.11 3971.46 L2408.64 3967.61 L2408.51 3965.75 L2407.98 3964.16 L2407.05 3962.70 L2404.93 3959.52 L2400.55 3954.21 L2398.30 3951.96 L2394.98 3949.44 L2392.99 3948.64 L2390.21 3948.64 L2388.75 3949.04 L2387.95 3949.84 L2387.29 3950.77 L2386.49 3952.09 L2386.23 3953.02 L2386.10 3954.61 L2386.49 3957.66 L2386.76 3959.92 L2386.63 3962.84 L2386.10 3964.56 L2385.43 3965.35 L2384.11 3966.55 L2382.52 3967.74 L2378.54 3969.47 L2371.77 3971.46 L2357.32 3975.04 L2348.70 3976.10 L2343.92 3977.29 L2341.67 3978.48 L2340.47 3979.41 L2339.41 3980.74 L2339.01 3982.20 L2339.01 3983.79 L2339.15 3985.78 L2339.41 3986.97 L2341.14 3990.69 L2342.06 3992.28 L2346.04 3997.85 L2346.44 3998.91 L2346.97 4001.30 L2346.97 4002.76 L2346.71 4003.68 L2346.04 4005.14 L2343.39 4008.72 L2341.80 4012.04 L2339.81 4018.01 L2338.62 4022.78 L2337.29 4029.15 L2335.57 4036.04 L2334.90 4037.64 L2333.71 4039.36 L2332.38 4040.82 L2329.86 4042.81 L2327.48 4043.60 L2328.40 4018.40 L2329.33 4001.43 L2329.60 3990.55 L2329.73 3984.19 L2329.07 3966.42 L2328.27 3951.83 L2315.94 3951.56 L2308.64 3951.30 L2303.47 3951.03 L2300.15 3950.90 L2299.36 3951.83 L2289.28 3951.96 L2273.10 3951.43 L2267.00 3950.63 L2265.27 3950.10 L2263.15 3949.84 L2260.50 3949.57 L2227.34 3947.98 L2226.55 3947.85 L2226.02 3947.72 L2225.62 3947.32 L2225.22 3946.65 L2223.89 3947.19 L2222.70 3947.45 L2221.11 3947.58 L2210.90 3947.19 L2210.10 3947.05 L2190.34 3945.99 L2164.21 3944.93 L2127.74 3943.34 L2097.50 3942.28 L2097.10 3981.27 L2096.70 4008.86 L2095.51 4072.91 L2095.38 4077.29 L2094.58 4112.30 L2094.58 4127.69 L2094.85 4136.04 L2095.38 4145.86 L2096.04 4161.91 L2096.44 4163.89 L2097.10 4165.22 L2098.16 4166.68 L2107.05 4176.23 L2109.30 4178.09 L2112.88 4180.34 L2116.47 4182.06 L2118.32 4182.86 L2126.41 4184.85 L2129.86 4186.18 L2131.58 4187.10 L2133.04 4188.16 L2136.36 4191.75 L2142.86 4196.79 L2143.65 4197.58 L2144.71 4198.38 L2145.25 4199.57 L2145.78 4202.22 L2145.78 4202.22 Z" stroke-linecap="round" style="fill:#6BACAF;stroke:#6BB4D2;stroke-width:5.76"/>
	<path d="M2587.69 1882.35 L2587.69 1882.35 L2590.34 1893.75 L2587.16 1893.49 L2578.94 1893.49 L2541.93 1892.69 L2534.37 1892.69 L2532.65 1892.69 L2505.33 1890.44 L2492.73 1889.24 L2487.82 1888.71 L2479.47 1887.92 L2466.47 1886.72 L2460.63 1885.79 L2451.75 1884.87 L2450.82 1884.73 L2427.34 1882.48 L2415.14 1881.02 L2393.39 1878.63 L2347.37 1873.46 L2326.15 1871.21 L2308.24 1868.95 L2292.20 1867.23 L2289.81 1867.09 L2272.83 1865.37 L2258.64 1863.65 L2253.87 1863.12 L2238.48 1861.52 L2221.24 1860.33 L2215.67 1860.07 L2201.48 1859.00 L2192.33 1857.94 L2181.98 1856.48 L2174.56 1855.42 L2146.57 1852.11 L2137.02 1850.91 L2121.24 1849.46 L2114.48 1848.93 L2096.97 1846.80 L2068.72 1843.75 L2049.75 1841.50 L2029.59 1839.51 L2012.88 1837.65 L2002.54 1836.46 L1981.85 1833.67 L1964.74 1832.21 L1944.58 1829.83 L1941.80 1829.56 L1933.70 1828.90 L1920.84 1827.71 L1900.81 1825.72 L1893.12 1824.79 L1891.00 1824.65 L1887.55 1824.12 L1886.89 1830.22 L1886.36 1837.65 L1885.96 1841.10 L1885.56 1845.08 L1885.16 1848.26 L1884.90 1850.52 L1884.90 1852.90 L1884.77 1854.23 L1884.63 1856.09 L1883.44 1855.95 L1882.11 1855.95 L1881.32 1855.95 L1880.52 1855.95 L1875.08 1855.69 L1865.93 1855.42 L1862.09 1855.56 L1855.85 1855.56 L1853.86 1855.42 L1852.14 1855.56 L1850.95 1855.56 L1850.28 1855.42 L1849.09 1855.42 L1846.17 1855.42 L1842.86 1855.29 L1842.19 1855.29 L1837.82 1855.16 L1829.86 1855.03 L1821.10 1854.76 L1812.09 1854.63 L1802.01 1854.36 L1786.75 1853.96 L1781.05 1853.83 L1771.90 1853.70 L1763.41 1853.43 L1757.97 1853.30 L1749.35 1853.17 L1746.97 1853.17 L1718.98 1852.51 L1708.90 1851.98 L1707.97 1851.84 L1703.99 1851.84 L1697.76 1851.71 L1682.38 1851.58 L1674.15 1851.45 L1663.28 1851.31 L1661.02 1852.51 L1657.44 1852.51 L1655.59 1852.77 L1655.72 1849.59 L1655.32 1827.17 L1655.59 1813.12 L1655.72 1809.93 L1655.85 1805.95 L1655.72 1801.98 L1655.72 1798.13 L1650.41 1797.60 L1642.85 1796.67 L1617.52 1794.55 L1597.63 1792.56 L1588.21 1791.63 L1578.00 1790.70 L1572.56 1790.30 L1539.40 1786.59 L1539.14 1778.37 L1539.93 1724.79 L1539.80 1720.01 L1540.60 1668.56 L1541.66 1593.75 L1536.62 1593.62 L1503.86 1593.09 L1483.30 1592.83 L1466.33 1592.69 L1452.67 1592.43 L1447.49 1592.30 L1425.74 1591.77 L1426.54 1549.72 L1428.00 1472.54 L1428.00 1470.15 L1410.23 1481.16 L1398.42 1487.39 L1392.45 1491.77 L1369.77 1505.82 L1359.43 1511.93 L1348.82 1517.76 L1336.22 1524.92 L1318.98 1535.53 L1313.54 1538.85 L1301.47 1546.14 L1283.96 1557.02 L1278.92 1559.80 L1274.02 1562.72 L1266.86 1566.70 L1259.03 1571.74 L1249.22 1578.50 L1243.91 1582.08 L1241.79 1583.54 L1239.14 1585.53 L1238.61 1589.64 L1237.28 1589.38 L1224.81 1588.98 L1212.61 1589.11 L1211.55 1589.11 L1196.43 1588.45 L1191.52 1585.40 L1189.80 1580.76 L1189.93 1570.94 L1190.33 1565.11 L1190.99 1559.14 L1194.18 1540.44 L1194.57 1538.18 L1196.03 1528.11 L1197.09 1520.68 L1197.23 1513.52 L1197.23 1505.82 L1197.49 1482.88 L1197.49 1457.68 L1198.29 1404.90 L1198.42 1391.37 L1198.95 1336.86 L1199.08 1326.65 L1200.54 1230.76 L1200.94 1211.00 L1201.87 1142.30 L1202.66 1107.68 L1203.19 1065.91 L1203.33 1060.07 L1203.46 1056.76 L1203.72 1037.39 L1203.86 1019.75 L1204.12 995.62 L1205.05 899.60 L1205.85 843.89 L1206.24 805.03 L1198.95 804.77 L1151.73 801.59 L1135.55 800.26 L1110.09 798.00 L1104.92 797.34 L1103.33 796.94 L1100.67 795.88 L1096.03 793.63 L1084.23 787.53 L1077.33 784.08 L1074.02 782.62 L1066.06 780.10 L1059.16 778.91 L1053.99 778.51 L1051.07 778.51 L1043.78 779.30 L1038.47 780.63 L1027.73 783.55 L1024.41 784.34 L1013.54 786.86 L1010.22 787.66 L1006.51 788.19 L1001.47 788.72 L996.43 788.85 L989.80 788.59 L984.62 787.93 L975.47 787.26 L976.67 748.27 L977.33 718.43 L978.13 684.88 L978.52 667.63 L979.05 650.79 L979.72 600.53 L980.91 550.26 L981.18 533.42 L981.44 526.79 L989.40 527.32 L998.15 528.11 L1011.95 529.17 L1027.20 530.50 L1058.23 532.89 L1086.35 535.41 L1102.53 536.47 L1120.83 537.93 L1129.72 538.86 L1133.70 539.39 L1136.62 539.25 L1147.89 535.94 L1149.75 535.80 L1151.73 536.20 L1155.85 537.66 L1151.87 539.65 L1147.23 542.30 L1142.45 545.35 L1135.95 548.67 L1131.58 551.32 L1127.86 554.37 L1125.08 557.03 L1121.89 561.27 L1120.83 563.52 L1120.17 565.38 L1119.64 567.64 L1119.37 569.76 L1119.37 572.01 L1120.30 575.86 L1120.83 577.58 L1125.21 587.26 L1126.14 590.71 L1126.54 593.10 L1126.67 595.88 L1126.40 599.07 L1125.74 603.18 L1124.41 609.15 L1123.49 613.52 L1123.35 615.51 L1123.75 617.63 L1124.15 619.49 L1132.24 621.08 L1135.16 621.22 L1136.88 621.48 L1138.21 621.88 L1139.67 622.67 L1140.86 623.47 L1142.58 624.40 L1143.78 624.93 L1145.24 625.06 L1146.56 624.93 L1150.14 624.53 L1153.19 624.27 L1155.05 624.40 L1157.31 624.53 L1158.50 624.66 L1159.83 624.93 L1163.01 625.72 L1165.13 626.12 L1166.06 626.12 L1166.59 626.26 L1167.52 626.26 L1168.31 626.26 L1169.77 626.12 L1170.57 625.86 L1171.23 625.72 L1171.76 625.59 L1172.69 625.19 L1174.02 624.66 L1175.48 624.00 L1176.93 623.47 L1177.99 623.20 L1179.45 622.94 L1180.38 622.94 L1181.44 622.81 L1183.43 622.81 L1205.32 624.27 L1206.11 624.27 L1208.76 624.40 L1222.29 624.40 L1246.17 633.28 L1265.66 657.55 L1296.43 708.22 L1306.51 725.59 L1409.03 798.00 L1422.43 807.16 L1428.79 811.66 L1437.94 811.80 L1438.21 790.18 L1438.47 752.65 L1439.14 707.82 L1439.93 641.91 L1440.20 619.76 L1440.46 594.03 L1440.60 588.32 L1440.60 584.61 L1440.86 573.07 L1440.86 551.85 L1455.85 552.12 L1463.54 551.99 L1470.70 552.12 L1471.90 552.12 L1492.98 552.25 L1533.44 552.52 L1539.27 552.65 L1555.19 552.65 L1600.28 553.05 L1613.41 553.05 L1617.92 553.05 L1625.35 553.05 L1649.35 553.31 L1662.48 553.58 L1667.79 553.44 L1669.38 553.84 L1670.31 554.37 L1670.44 554.64 L1675.21 556.36 L1679.86 556.36 L1682.24 556.49 L1687.15 556.49 L1689.54 556.23 L1692.72 555.30 L1696.83 553.05 L1698.42 552.38 L1699.49 552.25 L1700.55 552.38 L1705.59 554.24 L1708.24 554.64 L1714.87 554.51 L1687.68 489.92 L1670.57 450.66 L1666.73 442.44 L1644.18 390.45 L1622.43 339.79 L1615.40 323.07 L1607.71 305.57 L1602.80 294.03 L1593.38 271.62 L1571.37 220.56 L1551.74 175.99 L1548.56 168.04 L1542.19 168.57 L1539.54 161.94 L1531.98 144.96 L1528.53 136.34 L1523.36 124.80 L1519.24 114.99 L1516.46 108.75 L1516.06 107.96 L1501.61 74.14 L1494.31 57.43 L1487.68 41.64 L1488.48 41.64 L1496.30 41.78 L1508.50 42.17 L1513.54 41.91 L1526.67 41.78 L1529.46 41.91 L1540.47 42.17 L1543.38 42.31 L1548.02 42.31 L1559.17 42.44 L1568.85 42.57 L1582.11 42.97 L1630.25 43.63 L1673.36 44.43 L1707.97 44.96 L1723.62 45.36 L1738.08 45.49 L1745.11 45.76 L1778.27 46.15 L1856.38 47.48 L1880.52 47.74 L1905.19 49.07 L1921.37 49.20 L1939.54 49.47 L1974.16 50.13 L2034.90 51.19 L2039.94 51.33 L2064.08 51.59 L2074.16 51.72 L2081.72 51.72 L2088.88 51.99 L2105.06 52.78 L2125.35 53.32 L2124.95 55.57 L2123.89 61.67 L2120.44 68.57 L2115.27 76.79 L2113.02 89.12 L2111.43 99.47 L2110.89 113.79 L2110.10 124.40 L2107.98 129.31 L2106.92 131.83 L2102.41 137.00 L2096.57 142.04 L2090.60 148.67 L2089.54 152.92 L2089.94 160.08 L2091.66 164.99 L2095.91 174.80 L2107.45 189.79 L2121.24 211.40 L2129.33 221.62 L2139.54 227.72 L2151.74 228.38 L2172.57 229.97 L2189.01 236.47 L2197.37 244.56 L2199.62 250.26 L2202.67 259.55 L2206.78 267.64 L2209.30 272.15 L2220.44 280.37 L2235.03 286.20 L2244.32 284.88 L2249.76 281.96 L2254.66 277.19 L2258.91 272.01 L2259.30 265.78 L2260.90 255.44 L2261.69 243.90 L2264.21 232.49 L2266.07 224.53 L2266.60 223.74 L2269.52 219.89 L2270.98 218.43 L2273.89 217.90 L2279.07 218.04 L2289.54 224.93 L2292.86 232.76 L2295.25 243.37 L2298.96 255.70 L2307.45 275.33 L2314.74 281.16 L2319.92 282.62 L2324.16 281.16 L2327.34 277.19 L2329.86 270.42 L2328.80 262.86 L2325.75 256.89 L2322.17 249.60 L2318.59 240.45 L2317.40 231.83 L2318.72 221.48 L2320.84 213.79 L2325.09 207.69 L2329.33 206.63 L2335.03 207.29 L2346.71 211.93 L2351.08 215.78 L2359.84 224.40 L2372.83 235.14 L2382.25 241.78 L2391.27 246.82 L2395.11 251.99 L2395.65 259.15 L2393.52 267.24 L2388.35 280.37 L2380.92 289.79 L2374.82 296.81 L2369.25 305.83 L2359.17 327.98 L2352.01 354.64 L2348.16 363.26 L2342.20 370.95 L2334.37 378.25 L2326.15 382.36 L2313.42 383.95 L2302.54 388.59 L2295.38 400.39 L2296.97 413.79 L2305.86 430.77 L2324.82 451.85 L2340.61 465.12 L2349.09 487.79 L2351.08 513.66 L2347.10 533.55 L2337.29 555.17 L2310.50 566.04 L2298.43 574.53 L2295.38 582.36 L2294.32 585.54 L2294.05 587.93 L2294.32 592.57 L2294.58 595.09 L2295.25 597.87 L2295.91 600.26 L2296.97 601.72 L2299.09 603.31 L2301.21 605.04 L2344.05 638.46 L2360.90 640.71 L2369.39 635.80 L2378.80 625.06 L2384.11 607.29 L2390.61 596.41 L2398.96 593.23 L2408.78 594.82 L2419.78 601.85 L2426.55 612.46 L2432.65 635.54 L2433.05 656.63 L2426.02 685.94 L2425.62 690.05 L2423.90 706.49 L2428.01 723.47 L2445.78 751.98 L2448.17 765.38 L2444.19 779.70 L2437.69 791.51 L2431.99 810.07 L2432.91 827.31 L2434.90 844.69 L2436.10 855.03 L2436.23 863.12 L2436.63 879.97 L2431.59 900.52 L2427.61 918.03 L2426.55 929.97 L2430.66 940.97 L2439.94 947.47 L2447.37 946.68 L2452.41 943.76 L2462.22 917.50 L2466.87 904.50 L2473.90 896.01 L2481.99 894.29 L2492.60 899.33 L2499.49 905.56 L2502.41 914.71 L2502.28 927.31 L2496.84 952.38 L2492.73 977.31 L2494.59 992.03 L2499.23 997.61 L2507.18 1000.13 L2516.60 994.69 L2541.67 945.88 L2551.48 932.49 L2558.78 929.44 L2565.41 929.83 L2571.11 935.27 L2573.10 944.95 L2572.70 959.14 L2576.42 970.68 L2586.10 974.66 L2591.67 972.27 L2596.58 966.70 L2599.63 962.19 L2601.62 956.23 L2608.38 938.85 L2610.24 920.82 L2607.05 904.50 L2608.11 891.77 L2615.94 883.15 L2634.37 876.12 L2654.93 871.61 L2667.00 865.25 L2677.74 853.57 L2694.06 842.83 L2705.60 839.52 L2724.56 831.03 L2735.30 817.37 L2741.54 811.93 L2749.23 812.59 L2754.67 814.98 L2757.45 824.26 L2757.72 846.01 L2759.71 859.94 L2769.92 871.74 L2785.83 877.84 L2800.42 887.26 L2810.37 905.56 L2813.02 916.57 L2810.64 927.05 L2804.80 937.39 L2796.71 944.56 L2782.25 944.02 L2759.84 921.48 L2743.79 911.93 L2728.94 912.46 L2720.45 921.61 L2716.21 931.82 L2715.41 942.04 L2727.88 965.51 L2752.81 973.20 L2784.64 976.25 L2821.11 984.21 L2846.18 998.27 L2850.29 1006.89 L2851.75 1015.91 L2848.04 1023.07 L2840.61 1029.57 L2824.83 1033.02 L2808.78 1031.96 L2789.42 1024.40 L2771.38 1010.60 L2758.12 1007.55 L2738.62 1018.83 L2737.16 1036.20 L2740.48 1054.90 L2757.72 1086.20 L2772.31 1103.31 L2780.26 1107.42 L2807.45 1130.36 L2823.77 1152.25 L2830.53 1171.21 L2827.48 1184.47 L2823.77 1189.38 L2818.46 1192.56 L2807.32 1188.98 L2792.33 1167.76 L2780.93 1143.89 L2769.12 1122.54 L2768.33 1121.48 L2767.53 1120.95 L2767.00 1121.48 L2766.74 1122.41 L2766.60 1124.00 L2766.87 1135.14 L2767.13 1149.33 L2767.13 1154.24 L2766.60 1156.09 L2765.68 1157.42 L2757.85 1166.57 L2747.37 1178.64 L2729.20 1204.24 L2727.21 1212.33 L2727.88 1221.34 L2732.52 1249.46 L2731.32 1266.97 L2721.25 1302.78 L2716.07 1326.91 L2707.72 1345.61 L2699.76 1349.72 L2687.69 1346.81 L2674.43 1332.22 L2664.61 1320.95 L2656.79 1318.16 L2650.82 1319.09 L2644.72 1322.67 L2627.35 1352.64 L2622.84 1360.73 L2621.38 1371.87 L2624.29 1386.59 L2643.00 1397.20 L2651.62 1404.37 L2656.26 1418.29 L2652.54 1431.29 L2641.40 1440.57 L2607.72 1447.07 L2597.24 1469.75 L2586.23 1507.81 L2585.97 1527.44 L2598.43 1540.84 L2608.91 1544.15 L2644.98 1546.14 L2656.66 1552.38 L2663.55 1560.20 L2665.14 1571.47 L2663.29 1580.36 L2659.44 1588.98 L2651.62 1598.13 L2623.37 1607.68 L2615.94 1610.47 L2609.97 1618.03 L2608.25 1631.42 L2613.15 1684.20 L2618.59 1709.14 L2626.42 1716.57 L2637.03 1720.81 L2660.10 1709.40 L2660.77 1709.27 L2671.64 1705.69 L2680.53 1709.80 L2685.17 1720.94 L2686.10 1729.43 L2685.57 1746.80 L2673.50 1802.90 L2670.18 1815.90 L2668.19 1823.46 L2659.04 1838.71 L2649.10 1842.82 L2642.60 1840.30 L2637.29 1834.20 L2635.70 1825.98 L2641.93 1799.06 L2640.74 1784.47 L2639.41 1777.57 L2635.97 1771.47 L2627.61 1770.54 L2618.06 1781.29 L2604.93 1802.64 L2596.97 1811.66 L2588.49 1814.31 L2576.55 1812.32 L2563.29 1805.56 L2553.47 1794.68 L2543.66 1791.10 L2536.10 1796.14 L2533.71 1804.10 L2541.54 1838.98 L2546.44 1847.73 L2554.40 1862.59 L2581.72 1876.11 L2585.17 1878.50 L2586.10 1879.16 L2587.03 1880.36 L2587.56 1881.55 L2587.69 1882.35 L2587.69 1882.35 Z" stroke-linecap="round" style="fill:#09757A;stroke:#097D9B;stroke-width:5.76"/>
	<path d="M2318.19 1606.22 L2318.19 1606.22 L2318.19 1606.22 L2335.03 1606.22 L2343.26 1606.35 L2351.61 1606.35 L2351.75 1594.29 L2351.88 1581.95 L2352.14 1563.25 L2352.54 1541.90 L2352.54 1538.98 L2352.81 1520.15 L2353.34 1476.91 L2353.60 1451.05 L2353.74 1443.62 L2353.87 1440.04 L2354.13 1413.25 L2354.40 1393.76 L2354.53 1382.22 L2354.66 1379.83 L2354.80 1363.92 L2354.93 1355.69 L2355.06 1347.74 L2343.13 1347.60 L2337.55 1347.47 L2336.23 1347.47 L2328.14 1347.34 L2324.16 1347.20 L2298.69 1346.67 L2298.69 1348.66 L2298.83 1350.12 L2298.96 1351.32 L2299.23 1352.11 L2299.62 1352.78 L2300.15 1353.57 L2300.68 1354.10 L2301.35 1354.90 L2301.75 1355.69 L2302.14 1356.62 L2302.54 1357.55 L2302.81 1358.61 L2302.81 1359.80 L2302.41 1380.36 L2302.14 1402.11 L2302.14 1405.03 L2302.01 1408.08 L2302.01 1410.47 L2302.01 1411.40 L2302.14 1412.85 L2302.28 1413.78 L2302.41 1414.71 L2302.41 1417.76 L2302.41 1432.88 L2302.41 1437.92 L2302.28 1452.38 L2301.88 1473.07 L2301.88 1475.72 L2300.95 1475.72 L2275.88 1475.19 L2269.91 1475.06 L2259.70 1474.92 L2255.86 1474.92 L2249.22 1474.79 L2241.27 1474.79 L2234.90 1474.66 L2234.64 1525.05 L2234.64 1532.88 L2234.64 1537.39 L2234.64 1538.58 L2234.50 1539.78 L2234.64 1541.90 L2234.64 1545.21 L2234.37 1555.96 L2242.46 1556.35 L2260.76 1557.28 L2260.63 1560.47 L2260.23 1561.26 L2259.44 1562.46 L2257.45 1565.90 L2257.18 1566.70 L2256.65 1581.02 L2252.94 1581.95 L2250.15 1582.61 L2248.43 1583.14 L2242.20 1584.60 L2232.25 1587.12 L2230.92 1593.36 L2230.66 1595.08 L2230.52 1597.34 L2230.39 1602.51 L2230.26 1604.90 L2231.19 1604.90 L2237.82 1605.03 L2239.54 1605.03 L2244.58 1605.16 L2247.24 1605.16 L2255.19 1605.29 L2259.04 1605.29 L2263.81 1605.29 L2268.59 1605.43 L2272.57 1605.43 L2285.83 1605.56 L2308.24 1605.82 L2309.57 1605.82 L2318.19 1606.22 L2318.19 1606.22 Z" stroke-linecap="round" style="fill:#09757A;stroke:#097D9B;stroke-width:5.76"/>
	<path d="M2490.61 2630.88 L2490.61 2630.88 L2482.78 2641.23 L2471.11 2647.73 L2459.44 2645.74 L2445.91 2638.44 L2411.69 2614.44 L2402.54 2613.24 L2394.98 2615.63 L2388.09 2622.53 L2388.22 2634.73 L2385.17 2636.19 L2381.85 2637.78 L2369.39 2639.90 L2367.40 2640.30 L2360.76 2640.03 L2359.57 2640.30 L2345.25 2640.43 L2339.54 2640.56 L2336.63 2640.56 L2334.50 2639.37 L2332.25 2639.37 L2329.46 2639.37 L2306.92 2640.30 L2301.75 2640.17 L2301.88 2642.16 L2283.18 2641.76 L2262.22 2642.02 L2242.46 2642.29 L2226.81 2642.29 L2223.36 2642.29 L2208.24 2642.42 L2182.25 2642.82 L2160.50 2642.82 L2153.20 2643.08 L2143.39 2643.22 L2132.65 2643.35 L2113.28 2643.48 L2104.00 2643.22 L2068.45 2642.69 L2041.13 2642.16 L2015.14 2641.76 L1988.88 2641.23 L1976.94 2641.09 L1961.69 2640.96 L1941.66 2640.43 L1934.63 2639.90 L1929.73 2639.64 L1927.60 2639.50 L1912.48 2638.84 L1908.64 2638.84 L1892.59 2638.71 L1887.42 2638.97 L1886.75 2638.97 L1886.62 2637.91 L1886.62 2636.98 L1886.49 2626.51 L1886.22 2621.07 L1886.09 2614.70 L1885.83 2595.34 L1885.69 2586.98 L1885.30 2573.85 L1885.16 2570.67 L1885.16 2568.55 L1885.16 2565.63 L1885.03 2563.77 L1884.63 2557.81 L1883.70 2544.94 L1883.04 2538.58 L1882.38 2532.08 L1880.92 2516.29 L1879.99 2507.28 L1879.73 2500.78 L1878.80 2481.81 L1878.53 2474.65 L1878.40 2471.47 L1874.42 2481.28 L1868.32 2503.16 L1785.69 2506.08 L1779.19 2505.82 L1776.14 2505.55 L1771.24 2505.68 L1764.87 2505.82 L1763.68 2505.82 L1763.01 2505.82 L1762.35 2505.82 L1763.28 2458.47 L1763.28 2438.58 L1763.68 2385.79 L1764.87 2382.08 L1764.87 2380.35 L1764.74 2375.98 L1764.74 2372.26 L1763.41 2372.26 L1728.66 2371.34 L1717.79 2370.94 L1711.55 2370.80 L1705.45 2372.00 L1705.98 2371.34 L1706.38 2370.67 L1707.18 2369.08 L1707.97 2366.69 L1705.72 2366.43 L1702.40 2366.30 L1681.32 2365.63 L1649.48 2365.10 L1647.76 2364.97 L1646.04 2364.97 L1645.51 2364.97 L1635.69 2364.84 L1618.05 2364.70 L1596.96 2364.57 L1589.14 2364.31 L1585.82 2364.44 L1576.01 2364.44 L1570.44 2364.44 L1565.80 2364.57 L1541.66 2364.17 L1531.84 2363.51 L1531.84 2361.92 L1532.11 2356.35 L1532.24 2353.83 L1532.24 2327.97 L1532.77 2303.83 L1532.77 2290.04 L1533.70 2238.58 L1534.63 2188.45 L1535.43 2127.70 L1535.56 2127.17 L1535.69 2126.38 L1535.69 2124.52 L1535.82 2121.60 L1535.96 2110.06 L1535.96 2107.54 L1536.35 2090.57 L1536.35 2086.59 L1536.35 2086.32 L1536.62 2075.58 L1536.62 2069.61 L1537.02 2051.31 L1537.28 2032.35 L1537.68 2016.56 L1537.81 2002.77 L1538.08 1989.77 L1537.95 1989.11 L1538.08 1985.66 L1538.08 1978.90 L1542.06 1978.63 L1545.50 1978.76 L1548.82 1978.63 L1553.46 1978.90 L1567.52 1979.43 L1581.84 1980.22 L1594.97 1981.02 L1603.73 1981.15 L1608.10 1981.28 L1617.65 1981.42 L1626.27 1981.82 L1634.23 1981.95 L1642.32 1981.95 L1652.67 1982.08 L1653.07 1963.65 L1653.60 1938.98 L1654.66 1903.83 L1655.06 1887.39 L1655.06 1882.74 L1655.59 1856.75 L1655.59 1852.77 L1657.44 1852.51 L1661.02 1852.51 L1663.28 1851.31 L1674.15 1851.45 L1682.38 1851.58 L1697.76 1851.71 L1703.99 1851.84 L1707.97 1851.84 L1708.90 1851.98 L1718.98 1852.51 L1746.97 1853.17 L1749.35 1853.17 L1757.97 1853.30 L1763.41 1853.43 L1771.90 1853.70 L1781.05 1853.83 L1786.75 1853.96 L1802.01 1854.36 L1812.09 1854.63 L1821.10 1854.76 L1829.86 1855.03 L1837.82 1855.16 L1842.19 1855.29 L1842.86 1855.29 L1846.17 1855.42 L1849.09 1855.42 L1850.28 1855.42 L1850.95 1855.56 L1852.14 1855.56 L1853.86 1855.42 L1855.85 1855.56 L1862.09 1855.56 L1865.93 1855.42 L1875.08 1855.69 L1880.52 1855.95 L1881.32 1855.95 L1882.11 1855.95 L1883.44 1855.95 L1884.63 1856.09 L1884.77 1854.23 L1884.90 1852.90 L1884.90 1850.52 L1885.16 1848.26 L1885.56 1845.08 L1885.96 1841.10 L1886.36 1837.65 L1886.89 1830.22 L1887.55 1824.12 L1891.00 1824.65 L1893.12 1824.79 L1900.81 1825.72 L1920.84 1827.71 L1933.70 1828.90 L1941.80 1829.56 L1944.58 1829.83 L1964.74 1832.21 L1981.85 1833.67 L2002.54 1836.46 L2012.88 1837.65 L2029.59 1839.51 L2049.75 1841.50 L2068.72 1843.75 L2096.97 1846.80 L2114.48 1848.93 L2121.24 1849.46 L2137.02 1850.91 L2146.57 1852.11 L2174.56 1855.42 L2181.98 1856.48 L2192.33 1857.94 L2201.48 1859.00 L2215.67 1860.07 L2221.24 1860.33 L2238.48 1861.52 L2253.87 1863.12 L2258.64 1863.65 L2272.83 1865.37 L2289.81 1867.09 L2292.20 1867.23 L2308.24 1868.95 L2326.15 1871.21 L2347.37 1873.46 L2393.39 1878.63 L2415.14 1881.02 L2427.34 1882.48 L2450.82 1884.73 L2451.75 1884.87 L2460.63 1885.79 L2466.47 1886.72 L2479.47 1887.92 L2487.82 1888.71 L2492.73 1889.24 L2505.33 1890.44 L2532.65 1892.69 L2534.37 1892.69 L2541.93 1892.69 L2578.94 1893.49 L2587.16 1893.49 L2590.34 1893.75 L2590.47 1895.08 L2590.34 1896.40 L2590.34 1897.86 L2590.21 1899.06 L2589.81 1900.52 L2588.62 1903.17 L2587.42 1905.29 L2554.13 1925.05 L2539.02 1935.00 L2527.87 1946.93 L2523.76 1959.67 L2536.63 1986.59 L2540.47 1997.86 L2541.93 2002.77 L2537.42 2024.26 L2532.52 2036.06 L2530.79 2040.30 L2527.61 2046.01 L2522.04 2055.95 L2517.00 2065.10 L2513.02 2072.53 L2502.94 2093.88 L2501.61 2122.66 L2507.98 2137.52 L2525.35 2157.41 L2551.35 2178.50 L2572.57 2203.56 L2581.59 2220.94 L2587.29 2241.63 L2586.89 2252.50 L2577.48 2263.38 L2565.28 2263.64 L2501.88 2229.96 L2489.28 2234.73 L2484.24 2244.41 L2483.31 2253.56 L2487.56 2279.69 L2497.64 2299.72 L2516.73 2312.05 L2541.67 2309.93 L2580.93 2287.91 L2601.88 2290.30 L2610.90 2299.32 L2612.09 2301.44 L2616.20 2308.74 L2615.94 2320.67 L2610.24 2333.40 L2596.05 2342.02 L2554.40 2356.22 L2544.32 2363.51 L2537.29 2371.87 L2535.04 2374.39 L2529.07 2381.15 L2524.43 2395.87 L2523.50 2409.80 L2527.87 2426.51 L2542.33 2446.00 L2577.34 2473.06 L2595.78 2505.55 L2598.30 2515.23 L2596.97 2523.85 L2592.20 2532.47 L2582.52 2536.72 L2574.56 2537.25 L2556.39 2527.83 L2518.59 2496.40 L2483.58 2487.91 L2463.68 2491.89 L2454.80 2502.63 L2453.47 2514.44 L2460.50 2529.29 L2483.18 2543.75 L2496.31 2552.63 L2505.46 2565.76 L2508.78 2578.76 L2505.86 2596.27 L2490.61 2630.88 L2490.61 2630.88 Z" stroke-linecap="round" style="fill:#004249;stroke:#00465F;stroke-width:5.76"/>
	<rect x="77.72" y="3886.31" width="93.63" height="69.89" style="fill:#004249;stroke:#00465F;stroke-width:5.76"/>
	<rect x="77.72" y="3956.20" width="93.63" height="70.03" style="fill:#09757A;stroke:#097D9B;stroke-width:5.76"/>
	<rect x="77.72" y="4026.23" width="93.63" height="70.03" style="fill:#6BACAF;stroke:#6BB4D2;stroke-width:5.76"/>
	<rect x="77.72" y="4096.26" width="93.63" height="70.03" style="fill:#9DC8CA;stroke:#9DD7F0;stroke-width:5.76"/>
	<text x="201.33" y="3942.21" style="font-family:'Helvetica';font-size:59.95px;fill:#000000">Top 25%</text>
	<text x="201.33" y="4012.23" style="font-family:'Helvetica';font-size:59.95px;fill:#000000">50%-75%</text>
	<text x="201.33" y="4082.26" style="font-family:'Helvetica';font-size:59.95px;fill:#000000">25%-50%</text>
	<text x="201.33" y="4152.28" style="font-family:'Helvetica';font-size:59.95px;fill:#000000">Bottom 25%</text>
</svg>
