<?xml version="1.0" encoding="UTF-8" standalone="no"?>
<!-- This is a Stata 16.1 generated SVG file (http://www.stata.com) -->

<svg version="1.1" width="5.78in" height="4.00in" viewBox="0 0 4162 2880" xmlns="http://www.w3.org/2000/svg" xmlns:xlink="http://www.w3.org/1999/xlink">
	<desc>Stata Graph - Graph</desc>
	<rect x="0" y="0" width="4162" height="2880" style="fill:#FFFFFF;stroke:none"/>
	<defs>
		<path id="path_dqIyKmvK" d="M2881.92 2771.91 L2881.92 2771.91 L2671.48 2842.02 L2595.53 2850.21 L2589.93 2850.86 L2583.43 2851.77 L2492.78 2828.36 L2479.77 2824.98 L2397.70 2803.78 L2291.70 2746.80 L2253.98 2554.42 L2201.31 2409.39 L2200.53 2406.66 L2148.50 2224.29 L2175.04 2214.01 L2182.97 2210.89 L2188.04 2208.94 L2186.74 2201.01 L2185.57 2194.50 L2183.88 2184.23 L2181.80 2169.79 L2179.33 2154.05 L2198.71 2151.84 L2210.67 2148.59 L2216.00 2146.11 L2236.16 2142.21 L2257.36 2138.31 L2256.32 2109.04 L2255.41 2089.92 L2253.85 2081.73 L2251.25 2069.89 L2248.26 2058.44 L2244.88 2045.83 L2242.15 2035.55 L2236.29 2011.49 L2228.23 1977.93 L2225.76 1971.42 L2224.85 1967.65 L2214.83 1928.76 L2212.36 1919.00 L2166.19 1931.62 L2161.51 1910.68 L2159.04 1896.89 L2157.74 1891.17 L2176.08 1889.74 L2206.51 1884.79 L2200.14 1849.15 L2197.80 1835.75 L2197.15 1832.89 L2196.50 1830.03 L2195.85 1827.30 L2194.93 1824.31 L2194.15 1822.23 L2192.72 1820.41 L2190.90 1818.97 L2188.82 1817.28 L2186.74 1815.46 L2182.58 1810.52 L2212.49 1830.42 L2212.23 1831.46 L2211.32 1833.15 L2210.15 1834.45 L2208.85 1835.49 L2205.21 1837.32 L2220.17 1842.13 L2224.46 1843.17 L2229.66 1843.43 L2263.09 1851.23 L2314.72 1863.20 L2323.96 1808.70 L2327.86 1777.09 L2331.76 1753.42 L2338.13 1708.54 L2338.91 1703.73 L2347.76 1653.13 L2369.61 1524.74 L2371.30 1514.08 L2371.56 1504.32 L2396.66 1502.50 L2411.36 1501.59 L2419.16 1500.94 L2412.66 1437.85 L2408.24 1390.12 L2406.94 1376.20 L2446.35 1410.15 L2493.95 1449.56 L2500.58 1454.50 L2521.91 1470.50 L2525.03 1472.58 L2527.76 1474.67 L2530.50 1477.27 L2532.84 1480.00 L2533.49 1481.30 L2534.66 1483.64 L2535.57 1486.50 L2536.09 1489.88 L2536.35 1492.36 L2591.89 1458.28 L2605.67 1468.68 L2607.75 1470.37 L2637.93 1441.50 L2671.61 1431.09 L2691.77 1423.81 L2735.73 1413.40 L2741.07 1412.88 L2743.80 1412.62 L2748.48 1412.62 L2751.73 1412.23 L2782.30 1408.59 L2794.39 1397.27 L2796.47 1399.61 L2796.99 1401.69 L2796.73 1404.42 L2795.95 1407.29 L2826.65 1403.38 L2861.11 1393.50 L2879.97 1427.71 L2888.69 1447.61 L2890.12 1451.90 L2890.77 1455.80 L2891.29 1461.40 L2891.42 1468.55 L2855.78 1470.89 L2854.87 1480.26 L2849.54 1528.65 L2845.51 1560.78 L2836.79 1638.95 L2872.04 1664.32 L2908.72 1691.11 L2946.31 1719.08 L2962.43 1731.04 L2962.95 1731.30 L2969.20 1735.73 L2973.36 1739.11 L2997.94 1757.32 L3026.55 1780.08 L3028.25 1776.96 L3034.23 1769.68 L3038.65 1765.90 L3041.90 1763.04 L3045.80 1759.79 L3048.93 1766.16 L3057.12 1781.64 L3066.74 1800.50 L3073.12 1812.86 L3103.94 1835.75 L3106.15 1820.54 L3107.97 1808.18 L3109.14 1798.03 L3110.05 1789.06 L3111.09 1772.93 L3113.70 1740.80 L3120.20 1741.32 L3132.95 1742.75 L3150.24 1745.87 L3156.10 1747.69 L3176.13 1754.59 L3193.03 1761.61 L3195.90 1788.41 L3199.54 1830.81 L3201.88 1858.52 L3205.13 1885.57 L3206.17 1893.12 L3206.56 1897.41 L3207.21 1900.79 L3214.62 1980.27 L3226.20 1983.52 L3231.92 1984.95 L3298.52 1987.42 L3298.78 1993.80 L3301.77 2010.97 L3304.63 2015.26 L3305.15 2017.86 L3305.93 2022.28 L3317.11 2084.07 L3318.67 2093.43 L3320.11 2099.42 L3321.15 2102.80 L3322.58 2106.05 L3325.31 2110.73 L3337.40 2127.90 L3351.58 2147.16 L3369.40 2170.83 L3388.65 2195.54 L3400.48 2208.42 L3401.00 2216.75 L3408.81 2224.42 L3409.46 2238.34 L3518.58 2380.90 L3456.28 2434.88 L3324.27 2549.35 L3322.45 2550.78 L3217.49 2613.09 L3078.19 2693.99 L3029.29 2722.22 L2881.92 2771.91 L2881.92 2771.91 Z" stroke-linejoin="round"/>
	</defs>
	<use xlink:href="#path_dqIyKmvK" style="fill:#9DC8CA;stroke:#9DD7F0;stroke-width:5.76"/>
	<defs>
		<path id="path_XzWCGSXz" d="M1998.28 1078.72 L1998.28 1078.72 L1998.28 1078.72 L1987.49 1087.95 L1978.90 1093.41 L1970.71 1096.02 L1966.81 1082.75 L1963.03 1076.50 L1960.69 1074.29 L1957.57 1072.60 L1953.15 1071.95 L1935.33 1075.98 L1910.23 1083.01 L1878.23 1089.51 L1871.60 1053.74 L1831.54 1061.42 L1809.04 1065.58 L1806.83 1065.97 L1736.85 1079.76 L1730.22 1046.33 L1729.05 1040.08 L1724.50 1041.12 L1719.69 1017.58 L1717.22 1018.75 L1706.68 1024.99 L1685.87 1038.00 L1678.07 1042.68 L1659.99 1054.39 L1657.00 1056.34 L1650.88 1060.50 L1638.40 1070.78 L1630.98 1079.50 L1617.72 1094.84 L1605.36 1110.84 L1594.44 1123.20 L1578.83 1142.19 L1576.49 1145.31 L1546.44 1181.08 L1538.25 1190.84 L1517.96 1164.57 L1495.85 1132.83 L1495.07 1131.92 L1474.13 1102.65 L1458.91 1082.10 L1453.71 1074.81 L1441.22 1057.12 L1427.96 1071.04 L1410.79 1091.07 L1394.01 1109.28 L1380.35 1094.84 L1371.38 1083.40 L1369.82 1081.58 L1350.96 1061.16 L1332.10 1046.85 L1324.04 1039.82 L1320.13 1037.74 L1306.35 1051.66 L1278.12 1027.99 L1246.13 1058.29 L1224.80 1030.72 L1219.34 1023.95 L1217.52 1021.61 L1206.72 1008.47 L1188.25 985.84 L1177.07 972.05 L1160.42 951.76 L1148.97 936.80 L1126.21 949.81 L1120.62 948.51 L1097.60 942.92 L1090.18 943.31 L1087.71 943.05 L1087.84 940.06 L1087.84 939.14 L1087.71 934.98 L1076.66 902.59 L1065.08 896.48 L1056.89 894.14 L1037.90 835.34 L1030.36 807.64 L994.72 808.16 L967.66 809.20 L933.72 809.07 L915.64 808.81 L899.77 808.94 L869.60 808.68 L831.62 808.94 L794.03 809.46 L757.74 809.85 L753.58 809.98 L664.49 810.76 L652.00 810.76 L638.09 810.76 L631.06 810.50 L625.47 810.11 L618.45 809.72 L605.05 806.86 L588.66 803.48 L567.33 800.74 L524.15 791.25 L504.25 785.01 L472.91 773.56 L454.70 767.18 L354.55 734.02 L239.84 717.37 L221.89 716.98 L161.28 729.46 L102.75 742.73 L103.14 740.52 L116.67 671.32 L126.03 645.30 L129.93 634.51 L155.68 545.28 L148.53 517.70 L144.37 502.74 L139.95 489.21 L136.44 478.42 L128.37 463.72 L101.84 430.81 L111.85 426.52 L116.02 425.09 L127.85 419.75 L134.48 417.02 L140.86 414.55 L148.14 412.34 L155.68 410.65 L159.59 410.00 L163.36 409.61 L183.65 409.48 L203.42 412.99 L215.64 414.94 L223.06 416.24 L263.51 423.27 L267.15 423.79 L314.49 433.15 L440.91 485.57 L439.61 471.13 L438.96 460.73 L440.52 457.22 L441.43 454.61 L452.36 449.67 L541.84 465.02 L571.23 470.09 L592.30 473.99 L593.35 469.44 L594.13 465.15 L594.91 462.29 L596.34 458.91 L598.42 456.04 L600.63 453.31 L604.53 449.67 L609.99 443.56 L624.82 429.77 L628.33 423.14 L630.93 417.15 L632.49 411.56 L633.66 404.66 L635.23 397.38 L638.22 386.19 L642.64 371.89 L645.76 363.95 L648.75 357.06 L655.51 346.52 L662.41 337.94 L675.80 324.28 L682.18 318.55 L688.29 313.74 L693.75 309.58 L704.16 303.21 L713.91 298.65 L726.01 294.36 L737.06 290.72 L742.92 288.25 L749.03 285.39 L754.23 281.74 L763.60 272.90 L767.37 269.65 L772.83 264.05 L777.64 258.98 L782.98 252.61 L797.15 224.77 L797.93 218.53 L814.19 167.54 L821.21 142.04 L823.30 133.59 L824.47 125.91 L825.51 117.85 L826.03 111.99 L826.03 107.31 L826.16 103.67 L826.16 100.42 L826.29 95.35 L826.16 90.79 L826.03 86.76 L825.64 81.56 L827.98 28.36 L830.45 29.14 L860.88 50.60 L864.14 49.43 L867.00 54.63 L872.07 59.44 L957.91 129.03 L1003.56 165.98 L1017.22 177.03 L1046.22 201.49 L1074.97 229.32 L1116.20 268.48 L1133.36 276.93 L1144.16 282.26 L1169.00 294.49 L1164.32 311.79 L1157.04 325.71 L1174.72 331.04 L1193.84 338.33 L1215.69 363.56 L1240.54 394.26 L1271.75 431.98 L1280.21 416.89 L1313.63 443.69 L1309.86 450.84 L1306.09 457.22 L1341.33 484.01 L1368.91 510.42 L1390.76 531.10 L1424.57 561.41 L1438.49 537.08 L1469.32 559.32 L1479.59 566.35 L1501.83 525.76 L1513.28 505.47 L1516.40 500.01 L1517.70 497.28 L1517.96 496.63 L1519.13 494.03 L1546.57 531.10 L1548.65 533.96 L1551.13 537.60 L1553.21 540.07 L1555.94 543.33 L1558.67 546.32 L1561.01 548.66 L1562.96 550.22 L1577.92 565.05 L1582.34 569.21 L1584.42 571.42 L1607.18 593.40 L1613.56 599.00 L1618.37 603.29 L1625.91 609.92 L1640.61 621.37 L1645.81 625.14 L1667.14 641.79 L1686.52 658.31 L1702.52 672.36 L1713.96 681.99 L1728.53 694.34 L1739.85 704.36 L1737.90 707.22 L1708.76 745.46 L1711.75 748.84 L1715.52 753.14 L1737.90 777.07 L1714.09 811.28 L1731.91 830.27 L1782.12 880.48 L1793.56 878.27 L1814.89 873.07 L1815.28 875.28 L1815.93 877.10 L1817.10 879.83 L1823.22 892.58 L1825.95 897.78 L1825.69 901.03 L1825.95 904.80 L1829.07 916.64 L1832.45 926.79 L1867.18 955.79 L1913.22 989.48 L1916.08 991.70 L1947.56 1016.67 L1976.69 1037.48 L2008.16 1066.23 L2004.78 1071.69 L1998.28 1078.72 L1998.28 1078.72 Z" stroke-linejoin="round"/>
	</defs>
	<use xlink:href="#path_XzWCGSXz" style="fill:#9DC8CA;stroke:#9DD7F0;stroke-width:5.76"/>
	<defs>
		<path id="path_kUOwLcky" d="M3594.02 2315.21 L3594.02 2315.21 L3518.58 2380.90 L3409.46 2238.34 L3408.81 2224.42 L3401.00 2216.75 L3400.48 2208.42 L3388.65 2195.54 L3369.40 2170.83 L3351.58 2147.16 L3337.40 2127.90 L3325.31 2110.73 L3322.58 2106.05 L3321.15 2102.80 L3320.11 2099.42 L3318.67 2093.43 L3317.11 2084.07 L3305.93 2022.28 L3305.15 2017.86 L3304.63 2015.26 L3301.77 2010.97 L3298.78 1993.80 L3298.52 1987.42 L3231.92 1984.95 L3226.20 1983.52 L3214.62 1980.27 L3207.21 1900.79 L3206.56 1897.41 L3206.17 1893.12 L3205.13 1885.57 L3201.88 1858.52 L3199.54 1830.81 L3195.90 1788.41 L3193.03 1761.61 L3225.42 1774.88 L3240.38 1780.47 L3240.38 1778.91 L3240.38 1777.74 L3239.99 1774.10 L3238.56 1761.35 L3236.87 1745.48 L3232.70 1706.59 L3232.44 1702.56 L3244.93 1701.78 L3320.63 1696.31 L3388.39 1691.24 L3389.30 1699.96 L3392.81 1732.21 L3485.94 1726.62 L3489.97 1683.83 L3530.42 1681.22 L3560.59 1679.53 L3569.96 1678.62 L3576.46 1677.97 L3645.00 1672.64 L3649.94 1715.56 L3702.75 1711.01 L3706.65 1707.50 L3713.54 1703.86 L3727.07 1659.76 L3727.98 1656.77 L3732.66 1642.85 L3736.57 1629.98 L3738.13 1625.55 L3755.81 1569.62 L3757.25 1565.46 L3758.68 1560.91 L3760.63 1554.40 L3761.28 1552.71 L3762.84 1548.03 L3768.56 1528.91 L3770.90 1522.14 L3773.63 1514.08 L3780.01 1516.42 L3782.61 1517.20 L3783.78 1517.20 L3785.99 1517.07 L3787.42 1516.68 L3789.89 1518.63 L3792.49 1519.93 L3793.40 1519.93 L3795.35 1520.71 L3798.61 1503.54 L3807.84 1476.49 L3813.82 1478.96 L3824.88 1483.38 L3852.45 1494.31 L3861.43 1497.95 L3860.78 1499.51 L3860.39 1501.46 L3860.26 1503.15 L3860.39 1504.71 L3861.04 1506.27 L3862.73 1507.44 L3896.54 1522.79 L3893.03 1533.46 L3886.53 1552.32 L3884.06 1560.64 L3883.41 1562.86 L3882.37 1566.76 L3877.68 1590.82 L3877.55 1591.60 L3809.53 1943.98 L3809.66 1954.25 L3809.53 1960.24 L3803.68 2132.72 L3743.72 2185.01 L3594.02 2315.21 L3594.02 2315.21 Z" stroke-linejoin="round"/>
	</defs>
	<use xlink:href="#path_kUOwLcky" style="fill:#6BACAF;stroke:#6BB4D2;stroke-width:5.76"/>
	<defs>
		<path id="path_fpMVzPaM" d="M2175.04 2214.01 L2175.04 2214.01 L2148.50 2224.29 L2092.97 2047.52 L2064.87 2026.31 L2033.40 1986.64 L2025.85 1980.27 L1922.97 1998.87 L1867.96 2002.77 L1844.94 2004.46 L1828.55 2005.76 L1823.74 2006.02 L1810.86 1994.97 L1798.37 1984.04 L1792.26 1981.05 L1750.51 1961.15 L1686.39 1894.68 L1582.60 1786.98 L1556.72 1782.03 L1443.95 1799.85 L1385.17 1866.32 L1371.38 1906.00 L1383.21 1922.12 L1388.68 1929.28 L1398.17 1941.64 L1400.51 1944.63 L1404.41 1949.57 L1410.79 1957.51 L1411.70 1958.81 L1435.11 1987.55 L1484.40 2048.17 L1431.99 2181.76 L1363.32 2239.25 L1347.45 2267.08 L1252.37 2462.72 L1132.19 2458.43 L1084.07 2461.42 L1074.45 2444.25 L1072.89 2440.21 L1070.93 2436.18 L1069.37 2432.80 L1066.25 2427.47 L1053.64 2404.83 L1046.87 2390.66 L1043.36 2383.24 L1048.56 2380.12 L1057.80 2374.79 L1065.73 2371.14 L1073.28 2366.72 L1084.72 2359.44 L1094.09 2351.63 L1100.46 2344.09 L1105.66 2335.37 L1107.87 2325.62 L1110.21 2305.72 L1112.94 2281.91 L1115.94 2257.72 L1119.32 2227.54 L1124.52 2188.00 L1128.03 2168.62 L1129.85 2151.06 L1130.11 2147.81 L1131.93 2127.38 L1131.93 2101.89 L1129.07 2069.24 L1127.64 2051.29 L1126.34 2042.31 L1123.61 2025.14 L1119.84 2004.85 L1115.68 1986.25 L1105.53 1937.86 L1099.03 1893.64 L1085.50 1896.11 L1073.80 1898.32 L1020.34 1907.95 L937.75 1923.04 L930.73 1924.34 L928.00 1903.00 L922.27 1857.22 L920.97 1851.23 L919.93 1846.94 L919.80 1839.79 L914.08 1841.74 L885.60 1851.23 L862.57 1858.91 L857.50 1860.47 L852.30 1862.29 L847.88 1864.11 L843.20 1866.32 L839.68 1868.14 L836.04 1870.09 L830.71 1872.83 L817.18 1879.46 L806.39 1884.92 L783.11 1896.63 L758.39 1908.99 L743.70 1917.31 L740.45 1919.13 L739.28 1919.78 L730.56 1924.21 L730.30 1924.34 L720.55 1929.80 L714.43 1933.31 L708.97 1936.95 L707.80 1937.73 L705.72 1938.90 L701.95 1941.64 L700.26 1942.81 L698.83 1943.85 L696.48 1945.67 L694.66 1946.97 L687.64 1952.43 L686.08 1951.00 L684.39 1950.48 L682.05 1949.96 L679.58 1949.44 L676.06 1949.18 L668.78 1948.92 L656.82 1948.66 L644.85 1949.18 L639.00 1949.57 L628.72 1950.61 L609.21 1952.82 L583.07 1955.68 L570.06 1957.38 L558.23 1958.68 L527.40 1962.32 L512.06 1964.27 L479.15 1904.17 L460.68 1866.58 L453.01 1855.92 L432.07 1833.28 L418.15 1785.03 L391.23 1748.34 L381.73 1749.77 L381.47 1746.26 L380.82 1742.75 L379.91 1740.54 L378.87 1738.07 L376.40 1733.65 L376.53 1730.00 L365.35 1704.12 L362.74 1697.74 L356.24 1682.01 L351.95 1671.47 L347.92 1661.71 L361.18 1662.10 L365.35 1662.23 L370.42 1662.49 L374.06 1662.62 L389.67 1663.01 L380.43 1645.97 L368.73 1624.38 L365.87 1619.31 L363.65 1615.28 L362.61 1613.33 L359.23 1607.34 L351.82 1594.07 L313.32 1591.08 L297.06 1587.96 L280.15 1583.15 L275.21 1581.85 L273.26 1581.33 L270.53 1580.55 L267.15 1580.03 L265.98 1579.90 L261.95 1579.90 L260.91 1580.03 L258.04 1580.42 L253.36 1580.81 L251.28 1574.69 L250.11 1571.05 L248.29 1566.11 L246.21 1561.30 L244.13 1557.39 L242.05 1553.62 L239.45 1549.72 L236.84 1545.82 L229.56 1536.58 L205.89 1507.57 L203.03 1504.06 L175.32 1468.94 L164.27 1454.89 L141.12 1425.63 L124.60 1404.55 L105.74 1380.36 L105.22 1377.76 L94.17 1361.37 L94.82 1359.94 L95.08 1358.12 L94.56 1356.30 L93.78 1354.48 L92.47 1352.65 L91.17 1351.74 L89.61 1351.09 L93.51 1351.09 L98.98 1348.49 L101.58 1345.37 L103.27 1343.55 L104.96 1341.47 L107.43 1339.65 L110.94 1337.70 L115.76 1335.22 L122.39 1332.10 L142.81 1321.18 L147.36 1318.96 L151.65 1317.01 L157.25 1313.89 L160.37 1311.81 L163.10 1309.34 L165.70 1305.83 L167.78 1302.32 L169.47 1298.67 L171.03 1294.90 L172.59 1289.83 L173.89 1284.10 L174.80 1278.64 L175.45 1273.96 L176.10 1268.11 L176.23 1262.64 L176.10 1256.27 L175.71 1251.59 L175.19 1246.25 L174.41 1240.01 L172.46 1216.60 L169.21 1181.08 L167.00 1159.23 L164.40 1128.27 L161.54 1102.13 L160.76 1096.80 L159.85 1092.63 L158.42 1087.69 L157.25 1084.57 L155.68 1080.80 L152.30 1074.29 L140.73 1052.96 L139.30 1050.49 L137.61 1046.98 L117.19 1003.79 L87.14 944.09 L86.49 942.92 L83.63 937.06 L80.64 931.86 L78.56 928.74 L75.44 924.06 L72.44 918.33 L69.84 911.18 L68.15 907.02 L63.21 896.74 L62.30 894.92 L52.42 875.15 L40.71 851.73 L50.33 808.29 L62.56 805.43 L90.13 792.29 L88.31 786.83 L87.79 780.71 L88.18 775.51 L88.31 770.83 L88.57 768.75 L89.48 766.66 L92.47 765.62 L94.43 764.32 L95.73 764.19 L97.16 763.15 L98.46 763.02 L98.98 763.28 L102.75 742.73 L161.28 729.46 L221.89 716.98 L239.84 717.37 L354.55 734.02 L454.70 767.18 L472.91 773.56 L504.25 785.01 L524.15 791.25 L567.33 800.74 L588.66 803.48 L605.05 806.86 L618.45 809.72 L625.47 810.11 L631.06 810.50 L638.09 810.76 L652.00 810.76 L664.49 810.76 L753.58 809.98 L757.74 809.85 L794.03 809.46 L831.62 808.94 L869.60 808.68 L899.77 808.94 L915.64 808.81 L933.72 809.07 L967.66 809.20 L994.72 808.16 L1030.36 807.64 L1037.90 835.34 L1056.89 894.14 L1065.08 896.48 L1076.66 902.59 L1087.71 934.98 L1087.84 939.14 L1087.84 940.06 L1087.71 943.05 L1090.18 943.31 L1097.60 942.92 L1120.62 948.51 L1126.21 949.81 L1148.97 936.80 L1160.42 951.76 L1177.07 972.05 L1188.25 985.84 L1206.72 1008.47 L1217.52 1021.61 L1219.34 1023.95 L1224.80 1030.72 L1246.13 1058.29 L1278.12 1027.99 L1306.35 1051.66 L1320.13 1037.74 L1324.04 1039.82 L1332.10 1046.85 L1350.96 1061.16 L1369.82 1081.58 L1371.38 1083.40 L1380.35 1094.84 L1394.01 1109.28 L1410.79 1091.07 L1427.96 1071.04 L1441.22 1057.12 L1453.71 1074.81 L1458.91 1082.10 L1474.13 1102.65 L1495.07 1131.92 L1495.85 1132.83 L1517.96 1164.57 L1538.25 1190.84 L1546.44 1181.08 L1576.49 1145.31 L1578.83 1142.19 L1594.44 1123.20 L1605.36 1110.84 L1617.72 1094.84 L1630.98 1079.50 L1638.40 1070.78 L1650.88 1060.50 L1657.00 1056.34 L1659.99 1054.39 L1678.07 1042.68 L1685.87 1038.00 L1706.68 1024.99 L1717.22 1018.75 L1719.69 1017.58 L1724.50 1041.12 L1729.05 1040.08 L1730.22 1046.33 L1736.85 1079.76 L1806.83 1065.97 L1809.04 1065.58 L1831.54 1061.42 L1871.60 1053.74 L1878.23 1089.51 L1910.23 1083.01 L1935.33 1075.98 L1953.15 1071.95 L1957.57 1072.60 L1960.69 1074.29 L1963.03 1076.50 L1966.81 1082.75 L1970.71 1096.02 L1978.90 1093.41 L1987.49 1087.95 L1998.28 1078.72 L2004.78 1071.69 L2008.16 1066.23 L2033.66 1084.57 L2054.99 1099.92 L2067.21 1108.63 L2097.65 1097.84 L2082.69 1116.05 L2092.84 1115.27 L2113.26 1114.49 L2120.15 1114.23 L2155.40 1139.20 L2170.48 1150.78 L2183.88 1160.53 L2195.98 1169.38 L2215.22 1183.30 L2226.67 1191.49 L2240.46 1201.51 L2255.28 1211.91 L2261.27 1216.21 L2265.04 1218.94 L2267.12 1220.37 L2270.89 1223.10 L2259.19 1244.95 L2278.56 1255.10 L2287.93 1273.96 L2295.21 1281.63 L2305.88 1292.69 L2379.62 1353.56 L2389.64 1361.76 L2397.44 1368.39 L2406.94 1376.20 L2408.24 1390.12 L2412.66 1437.85 L2419.16 1500.94 L2411.36 1501.59 L2396.66 1502.50 L2371.56 1504.32 L2371.30 1514.08 L2369.61 1524.74 L2347.76 1653.13 L2338.91 1703.73 L2338.13 1708.54 L2331.76 1753.42 L2327.86 1777.09 L2323.96 1808.70 L2314.72 1863.20 L2263.09 1851.23 L2229.66 1843.43 L2224.46 1843.17 L2220.17 1842.13 L2205.21 1837.32 L2208.85 1835.49 L2210.15 1834.45 L2211.32 1833.15 L2212.23 1831.46 L2212.49 1830.42 L2182.58 1810.52 L2186.74 1815.46 L2188.82 1817.28 L2190.90 1818.97 L2192.72 1820.41 L2194.15 1822.23 L2194.93 1824.31 L2195.85 1827.30 L2196.50 1830.03 L2197.15 1832.89 L2197.80 1835.75 L2200.14 1849.15 L2206.51 1884.79 L2176.08 1889.74 L2157.74 1891.17 L2159.04 1896.89 L2161.51 1910.68 L2166.19 1931.62 L2212.36 1919.00 L2214.83 1928.76 L2224.85 1967.65 L2225.76 1971.42 L2228.23 1977.93 L2236.29 2011.49 L2242.15 2035.55 L2244.88 2045.83 L2248.26 2058.44 L2251.25 2069.89 L2253.85 2081.73 L2255.41 2089.92 L2256.32 2109.04 L2257.36 2138.31 L2236.16 2142.21 L2216.00 2146.11 L2210.67 2148.59 L2198.71 2151.84 L2179.33 2154.05 L2181.80 2169.79 L2183.88 2184.23 L2185.57 2194.50 L2186.74 2201.01 L2188.04 2208.94 L2182.97 2210.89 L2175.04 2214.01 L2175.04 2214.01 Z" stroke-linejoin="round"/>
	</defs>
	<use xlink:href="#path_fpMVzPaM" style="fill:#09757A;stroke:#097D9B;stroke-width:5.76"/>
	<defs>
		<path id="path_WXRPDqeE" d="M3713.54 1703.86 L3713.54 1703.86 L3706.65 1707.50 L3702.75 1711.01 L3649.94 1715.56 L3645.00 1672.64 L3576.46 1677.97 L3569.96 1678.62 L3560.59 1679.53 L3530.42 1681.22 L3489.97 1683.83 L3485.94 1726.62 L3392.81 1732.21 L3389.30 1699.96 L3388.39 1691.24 L3320.63 1696.31 L3244.93 1701.78 L3232.44 1702.56 L3232.70 1706.59 L3236.87 1745.48 L3238.56 1761.35 L3239.99 1774.10 L3240.38 1777.74 L3240.38 1778.91 L3240.38 1780.47 L3225.42 1774.88 L3193.03 1761.61 L3176.13 1754.59 L3156.10 1747.69 L3150.24 1745.87 L3132.95 1742.75 L3120.20 1741.32 L3113.70 1740.80 L3111.09 1772.93 L3110.05 1789.06 L3109.14 1798.03 L3107.97 1808.18 L3106.15 1820.54 L3103.94 1835.75 L3073.12 1812.86 L3066.74 1800.50 L3057.12 1781.64 L3048.93 1766.16 L3045.80 1759.79 L3041.90 1763.04 L3038.65 1765.90 L3034.23 1769.68 L3028.25 1776.96 L3026.55 1780.08 L2997.94 1757.32 L2973.36 1739.11 L2969.20 1735.73 L2962.95 1731.30 L2962.43 1731.04 L2946.31 1719.08 L2908.72 1691.11 L2872.04 1664.32 L2836.79 1638.95 L2845.51 1560.78 L2849.54 1528.65 L2854.87 1480.26 L2855.78 1470.89 L2891.42 1468.55 L2891.29 1461.40 L2890.77 1455.80 L2890.12 1451.90 L2888.69 1447.61 L2879.97 1427.71 L2861.11 1393.50 L2898.83 1395.06 L2937.59 1400.13 L2935.64 1376.72 L2934.99 1369.17 L2942.01 1366.83 L2990.66 1362.02 L2987.41 1335.22 L3006.78 1339.65 L3014.07 1339.65 L3016.41 1357.47 L3016.80 1360.98 L3017.71 1368.00 L3037.61 1359.68 L3109.01 1360.59 L3139.19 1367.09 L3160.13 1364.75 L3160.91 1368.65 L3163.12 1379.19 L3201.75 1394.41 L3203.57 1375.42 L3209.81 1364.49 L3225.16 1309.99 L3244.93 1314.15 L3266.78 1311.16 L3275.10 1311.16 L3289.28 1311.03 L3332.20 1299.97 L3347.55 1293.21 L3350.41 1292.30 L3353.14 1291.00 L3358.47 1288.92 L3366.02 1284.62 L3367.58 1283.71 L3394.37 1257.05 L3407.51 1248.72 L3430.14 1224.40 L3492.18 1222.97 L3559.42 1219.59 L3589.72 1217.38 L3613.92 1216.99 L3636.81 1216.08 L3680.64 1235.72 L3700.28 1244.69 L3706.78 1238.06 L3709.90 1233.90 L3730.97 1212.43 L3752.95 1254.71 L3837.75 1252.37 L3845.17 1242.09 L3859.47 1247.03 L3865.98 1248.46 L3872.35 1250.68 L3881.20 1250.28 L3883.54 1245.34 L3888.09 1238.71 L3890.43 1236.89 L3890.95 1236.37 L3892.90 1234.94 L3903.05 1238.71 L3904.48 1240.53 L3915.92 1241.57 L3920.08 1242.35 L3928.67 1244.04 L3931.40 1244.69 L3937.25 1243.65 L3947.01 1247.29 L3950.00 1247.03 L3955.07 1248.85 L3967.17 1255.10 L3975.75 1259.52 L3985.90 1265.37 L3991.75 1269.28 L4001.50 1276.04 L4006.32 1279.55 L4010.35 1282.41 L4016.20 1286.45 L4021.92 1290.48 L4028.69 1295.29 L4033.24 1299.32 L4043.12 1307.52 L4053.01 1315.32 L4053.66 1313.89 L4054.96 1311.94 L4074.86 1328.85 L4076.03 1330.02 L4079.54 1333.01 L4080.71 1333.92 L4083.31 1336.13 L4091.12 1342.25 L4092.29 1343.29 L4115.57 1363.45 L4119.99 1369.04 L4121.03 1373.08 L4118.43 1378.28 L4103.99 1392.46 L4100.61 1393.37 L4095.41 1395.32 L4079.28 1399.74 L4007.10 1419.64 L4003.58 1420.42 L3981.08 1424.85 L3965.61 1427.84 L3937.51 1433.30 L3928.15 1435.12 L3926.20 1435.51 L3921.51 1436.42 L3910.98 1461.53 L3909.94 1464.00 L3903.96 1492.36 L3901.48 1506.40 L3901.09 1508.22 L3899.40 1513.95 L3861.43 1497.95 L3852.45 1494.31 L3824.88 1483.38 L3813.82 1478.96 L3807.84 1476.49 L3798.61 1503.54 L3795.35 1520.71 L3793.40 1519.93 L3792.49 1519.93 L3789.89 1518.63 L3787.42 1516.68 L3785.99 1517.07 L3783.78 1517.20 L3782.61 1517.20 L3780.01 1516.42 L3773.63 1514.08 L3770.90 1522.14 L3768.56 1528.91 L3762.84 1548.03 L3761.28 1552.71 L3760.63 1554.40 L3758.68 1560.91 L3757.25 1565.46 L3755.81 1569.62 L3738.13 1625.55 L3736.57 1629.98 L3732.66 1642.85 L3727.98 1656.77 L3727.07 1659.76 L3713.54 1703.86 L3713.54 1703.86 Z" stroke-linejoin="round"/>
	</defs>
	<use xlink:href="#path_WXRPDqeE" style="fill:#004249;stroke:#00465F;stroke-width:5.76"/>
</svg>
