<?xml version="1.0" encoding="UTF-8" standalone="no"?>
<!-- This is a Stata 16.1 generated SVG file (http://www.stata.com) -->

<svg version="1.1" width="4.00in" height="4.64in" viewBox="0 0 2880 3342" xmlns="http://www.w3.org/2000/svg" xmlns:xlink="http://www.w3.org/1999/xlink">
	<desc>Stata Graph - Graph</desc>
	<rect x="0" y="0" width="2880" height="3342" style="fill:#FFFFFF;stroke:none"/>
	<defs>
		<path id="path_OuzUacjn" d="M2159.22 1592.25 L2159.22 1592.25 L2155.35 1592.99 L2154.20 1582.44 L2149.40 1550.06 L2129.25 1413.87 L2126.95 1401.03 L2127.26 1395.70 L2128.83 1389.75 L2126.01 1384.53 L2123.61 1377.64 L2122.25 1370.22 L2118.91 1347.56 L2118.18 1343.07 L2103.24 1240.93 L2087.05 1133.56 L2086.74 1132.10 L2086.43 1131.06 L2085.91 1129.80 L2085.49 1128.66 L2085.07 1127.61 L2084.86 1126.25 L2083.09 1114.77 L2083.09 1113.51 L2083.30 1112.78 L2084.03 1109.86 L2084.34 1108.60 L2084.34 1107.87 L2084.13 1106.31 L2080.89 1087.51 L2080.68 1083.54 L2081.10 1078.94 L2081.62 1076.33 L2082.56 1074.45 L2083.61 1072.99 L2090.19 1065.89 L2087.99 1061.40 L2086.32 1054.09 L2085.07 1046.25 L2077.97 1009.70 L2075.78 999.26 L2071.49 975.97 L2065.33 946.20 L2064.71 942.86 L2064.08 939.42 L2061.05 924.90 L2060.63 920.09 L2061.26 915.92 L2051.55 911.22 L2049.88 910.28 L2046.54 905.58 L2044.76 899.73 L2043.30 892.94 L2042.25 884.79 L2040.48 880.30 L2038.81 875.29 L2036.20 858.48 L2036.41 854.51 L2037.97 849.18 L2034.32 843.86 L2033.17 841.66 L2021.05 769.29 L2018.44 755.29 L2008.52 695.03 L2008.11 690.54 L2008.31 687.83 L2009.04 685.53 L2010.40 684.59 L2008.94 682.60 L2007.48 680.20 L2006.23 677.80 L2005.39 675.19 L2004.66 671.95 L2004.03 668.30 L2001.63 652.32 L2011.45 650.65 L2005.81 616.70 L1998.29 617.12 L1997.04 616.39 L1996.41 615.24 L1994.95 607.62 L1982.62 531.17 L1973.23 474.77 L1969.05 447.10 L1969.36 445.53 L1966.44 437.59 L1964.45 431.01 L1962.89 426.11 L1961.53 415.87 L1950.46 417.85 L1943.78 418.79 L1937.09 419.84 L1925.60 421.41 L1906.49 424.64 L1882.79 427.98 L1877.67 428.82 L1888.53 409.60 L1881.12 393.94 L1884.56 392.37 L1886.76 391.12 L1888.11 389.24 L1889.58 385.79 L1889.26 381.41 L1874.22 289.81 L1868.69 254.41 L1867.33 249.81 L1864.51 244.28 L1863.26 242.40 L1864.62 240.83 L1865.14 239.48 L1865.35 236.55 L1861.90 212.74 L1860.44 204.38 L1855.84 174.62 L1852.29 153.84 L1851.56 149.24 L1914.64 137.75 L1917.56 137.23 L1966.02 128.04 L1968.84 127.52 L1972.81 127.00 L1977.61 126.26 L1991.92 123.65 L2041.11 114.57 L2051.65 112.69 L2059.49 111.23 L2081.42 107.26 L2094.16 104.96 L2112.22 101.62 L2150.24 94.72 L2158.90 93.16 L2194.10 86.68 L2216.13 82.61 L2253.83 75.72 L2281.71 70.81 L2290.59 69.14 L2293.72 68.51 L2312.52 64.96 L2318.06 64.02 L2342.70 59.32 L2346.04 58.69 L2371.11 53.89 L2375.08 53.16 L2394.08 49.82 L2420.71 44.80 L2448.49 39.69 L2471.99 35.40 L2485.56 32.90 L2495.17 92.01 L2499.14 118.64 L2505.72 157.39 L2510.31 185.38 L2511.67 193.10 L2511.78 194.98 L2512.09 197.39 L2512.82 200.10 L2514.18 208.04 L2516.89 223.60 L2523.89 268.72 L2527.75 290.96 L2529.95 302.87 L2530.68 307.88 L2539.87 361.67 L2544.57 389.66 L2544.78 392.27 L2554.80 448.04 L2565.45 508.92 L2566.08 513.10 L2569.63 534.82 L2574.12 560.72 L2575.48 568.56 L2578.40 585.48 L2586.76 636.55 L2587.49 641.14 L2592.19 667.36 L2596.37 692.63 L2600.65 719.05 L2605.24 745.06 L2606.50 752.89 L2608.06 761.77 L2608.17 762.50 L2608.06 763.54 L2607.85 765.74 L2607.85 766.26 L2607.85 767.62 L2608.27 769.50 L2611.72 788.50 L2616.00 814.51 L2619.97 838.32 L2623.10 856.39 L2623.83 861.30 L2624.77 869.55 L2628.01 886.15 L2629.05 893.88 L2631.45 906.62 L2633.54 918.84 L2638.24 947.77 L2638.87 953.41 L2639.29 955.71 L2639.39 956.75 L2639.39 960.20 L2642.84 977.01 L2644.09 983.70 L2644.72 986.73 L2645.03 990.59 L2650.98 1024.22 L2656.94 1060.88 L2663.83 1103.17 L2667.69 1128.24 L2668.00 1129.91 L2668.32 1132.10 L2677.30 1184.32 L2678.24 1189.96 L2683.25 1217.95 L2697.04 1289.28 L2705.08 1335.13 L2705.50 1337.11 L2713.01 1381.81 L2710.72 1415.75 L2701.74 1443.43 L2697.98 1454.92 L2694.32 1465.88 L2690.67 1466.82 L2634.38 1480.30 L2615.58 1484.79 L2577.36 1493.77 L2553.76 1499.41 L2530.36 1505.05 L2523.68 1506.72 L2521.80 1507.14 L2399.93 1539.51 L2397.11 1540.24 L2394.19 1540.98 L2386.35 1543.06 L2365.99 1548.29 L2335.50 1556.22 L2323.59 1558.83 L2320.04 1550.27 L2318.68 1550.48 L2297.90 1554.87 L2288.71 1556.54 L2282.97 1557.58 L2280.46 1558.10 L2280.77 1560.71 L2281.51 1567.50 L2281.61 1568.02 L2275.97 1569.07 L2249.45 1574.40 L2180.42 1588.08 L2159.22 1592.25 L2159.22 1592.25 Z" stroke-linejoin="round"/>
	</defs>
	<use xlink:href="#path_OuzUacjn" style="fill:#9DC8CA;stroke:#9DD7F0;stroke-width:5.76"/>
	<defs>
		<path id="path_ZHztYmWD" d="M1749.22 1678.83 L1749.22 1678.83 L1749.22 1678.83 L1744.94 1679.46 L1727.39 1681.13 L1712.25 1682.49 L1727.92 1671.42 L1711.21 1674.24 L1681.24 1678.31 L1680.71 1678.42 L1651.26 1681.76 L1621.29 1685.52 L1607.61 1687.29 L1595.29 1689.38 L1592.47 1689.80 L1590.49 1689.90 L1586.31 1690.74 L1574.61 1692.72 L1564.17 1694.50 L1545.89 1697.84 L1504.85 1705.36 L1495.24 1707.14 L1469.14 1711.73 L1467.15 1712.04 L1466.11 1705.99 L1464.44 1695.65 L1461.93 1680.92 L1461.20 1676.33 L1457.13 1650.84 L1454.10 1632.46 L1453.68 1629.85 L1448.98 1599.98 L1440.84 1549.64 L1435.51 1516.54 L1435.20 1514.55 L1431.12 1488.97 L1430.71 1486.98 L1430.39 1484.89 L1428.09 1470.38 L1425.69 1455.86 L1424.44 1448.13 L1421.20 1427.56 L1420.26 1422.02 L1417.55 1405.31 L1415.77 1394.55 L1411.80 1370.43 L1408.67 1351.11 L1406.27 1336.80 L1402.72 1314.35 L1402.30 1311.73 L1401.36 1305.89 L1398.02 1285.73 L1397.08 1279.88 L1393.53 1258.58 L1392.90 1254.61 L1392.28 1250.12 L1391.34 1244.48 L1390.29 1238.52 L1389.56 1233.72 L1388.72 1228.81 L1388.10 1224.63 L1385.59 1210.01 L1384.55 1204.06 L1380.58 1180.56 L1380.16 1178.16 L1378.07 1165.31 L1376.71 1157.27 L1372.33 1131.37 L1369.09 1112.68 L1368.67 1110.17 L1368.26 1107.66 L1362.83 1075.71 L1362.41 1073.62 L1360.95 1064.53 L1360.21 1060.46 L1359.80 1057.74 L1359.38 1055.45 L1356.25 1036.96 L1351.44 1007.30 L1345.80 973.15 L1345.07 968.66 L1343.30 958.01 L1342.57 953.41 L1339.22 931.79 L1337.03 918.32 L1334.63 903.38 L1333.48 895.86 L1331.91 886.26 L1331.50 883.33 L1331.18 881.56 L1330.45 877.48 L1329.93 873.83 L1329.30 869.86 L1328.78 866.52 L1327.84 860.36 L1319.90 811.37 L1319.70 809.60 L1316.88 792.79 L1315.73 785.89 L1316.35 779.42 L1314.26 763.02 L1312.80 754.04 L1309.46 733.46 L1305.08 706.83 L1303.30 695.45 L1301.73 685.74 L1300.38 677.49 L1300.17 676.13 L1299.96 674.56 L1297.66 660.67 L1295.15 657.23 L1292.44 640.31 L1289.62 622.97 L1289.41 621.40 L1288.89 617.85 L1283.14 582.34 L1281.37 571.17 L1279.70 561.04 L1275.52 536.18 L1271.13 506.63 L1263.30 455.45 L1262.26 448.66 L1261.11 441.25 L1259.33 429.55 L1258.19 421.72 L1252.65 386.11 L1249.31 363.44 L1247.64 352.58 L1244.30 330.96 L1243.98 328.98 L1236.46 279.27 L1237.93 274.88 L1237.82 273.84 L1236.46 266.21 L1236.15 263.50 L1239.39 262.87 L1251.92 260.57 L1255.26 260.05 L1259.75 259.21 L1261.32 258.90 L1263.82 260.05 L1283.56 257.13 L1285.34 256.81 L1302.99 253.57 L1307.27 252.84 L1309.98 252.43 L1319.17 250.75 L1325.96 249.19 L1328.68 246.79 L1330.56 246.47 L1349.35 243.13 L1354.26 242.30 L1372.33 239.06 L1377.86 238.01 L1402.40 233.52 L1406.79 232.69 L1409.19 232.27 L1428.09 228.93 L1439.69 226.94 L1454.31 224.23 L1470.49 221.30 L1478.33 219.74 L1503.29 214.93 L1513.21 212.95 L1537.96 208.14 L1564.38 203.13 L1577.85 200.62 L1631.42 191.64 L1652.73 187.67 L1661.92 185.90 L1686.98 181.09 L1702.54 177.86 L1711.42 176.19 L1723.32 173.89 L1737.52 171.49 L1742.22 170.65 L1748.59 169.08 L1764.89 165.32 L1766.24 165.01 L1768.85 164.59 L1771.46 164.07 L1780.65 162.30 L1784.41 161.67 L1790.05 160.62 L1804.78 157.91 L1827.75 153.84 L1851.56 149.24 L1852.29 153.84 L1855.84 174.62 L1860.44 204.38 L1861.90 212.74 L1865.35 236.55 L1865.14 239.48 L1864.62 240.83 L1863.26 242.40 L1864.51 244.28 L1867.33 249.81 L1868.69 254.41 L1874.22 289.81 L1889.26 381.41 L1889.58 385.79 L1888.11 389.24 L1886.76 391.12 L1884.56 392.37 L1881.12 393.94 L1888.53 409.60 L1877.67 428.82 L1882.79 427.98 L1906.49 424.64 L1925.60 421.41 L1937.09 419.84 L1943.78 418.79 L1950.46 417.85 L1961.53 415.87 L1962.89 426.11 L1964.45 431.01 L1966.44 437.59 L1969.36 445.53 L1969.05 447.10 L1973.23 474.77 L1982.62 531.17 L1994.95 607.62 L1996.41 615.24 L1997.04 616.39 L1998.29 617.12 L2005.81 616.70 L2011.45 650.65 L2001.63 652.32 L2004.03 668.30 L2004.66 671.95 L2005.39 675.19 L2006.23 677.80 L2007.48 680.20 L2008.94 682.60 L2010.40 684.59 L2009.04 685.53 L2008.31 687.83 L2008.11 690.54 L2008.52 695.03 L2018.44 755.29 L2021.05 769.29 L2033.17 841.66 L2034.32 843.86 L2037.97 849.18 L2036.41 854.51 L2036.20 858.48 L2038.81 875.29 L2040.48 880.30 L2042.25 884.79 L2043.30 892.94 L2044.76 899.73 L2046.54 905.58 L2049.88 910.28 L2051.55 911.22 L2061.26 915.92 L2060.63 920.09 L2061.05 924.90 L2064.08 939.42 L2064.71 942.86 L2065.33 946.20 L2071.49 975.97 L2075.78 999.26 L2077.97 1009.70 L2085.07 1046.25 L2086.32 1054.09 L2087.99 1061.40 L2090.19 1065.89 L2083.61 1072.99 L2082.56 1074.45 L2081.62 1076.33 L2081.10 1078.94 L2080.68 1083.54 L2080.89 1087.51 L2084.13 1106.31 L2084.34 1107.87 L2084.34 1108.60 L2084.03 1109.86 L2083.30 1112.78 L2083.09 1113.51 L2083.09 1114.77 L2084.86 1126.25 L2085.07 1127.61 L2085.49 1128.66 L2085.91 1129.80 L2086.43 1131.06 L2086.74 1132.10 L2087.05 1133.56 L2103.24 1240.93 L2118.18 1343.07 L2118.91 1347.56 L2122.25 1370.22 L2123.61 1377.64 L2126.01 1384.53 L2128.83 1389.75 L2127.26 1395.70 L2126.95 1401.03 L2129.25 1413.87 L2149.40 1550.06 L2154.20 1582.44 L2155.35 1592.99 L2141.15 1595.81 L2108.99 1601.97 L2089.14 1605.52 L2087.47 1605.73 L2083.82 1606.25 L2076.19 1607.40 L2064.08 1609.17 L2045.39 1611.99 L2027.22 1614.71 L1977.61 1622.02 L1938.66 1627.76 L1938.35 1625.26 L1938.14 1622.96 L1937.82 1621.39 L1937.41 1620.66 L1936.57 1619.62 L1935.32 1618.89 L1933.75 1618.15 L1920.70 1620.03 L1914.85 1621.18 L1910.46 1621.71 L1912.03 1631.84 L1913.18 1638.21 L1914.74 1649.49 L1906.39 1650.84 L1900.54 1651.89 L1890.10 1653.56 L1883.94 1654.60 L1860.65 1658.89 L1850.00 1660.56 L1830.36 1664.42 L1811.46 1667.55 L1783.68 1672.57 L1765.51 1676.01 L1749.22 1678.83 L1749.22 1678.83 Z" stroke-linejoin="round"/>
	</defs>
	<use xlink:href="#path_ZHztYmWD" style="fill:#9DC8CA;stroke:#9DD7F0;stroke-width:5.76"/>
	<defs>
		<path id="path_mjSmPBKQ" d="M536.46 3296.88 L536.46 3296.88 L539.80 3297.41 L540.33 3297.82 L540.85 3298.55 L541.27 3299.29 L541.37 3300.12 L541.37 3300.96 L541.06 3301.79 L540.64 3302.63 L540.12 3303.25 L539.39 3303.67 L538.34 3303.88 L520.80 3306.70 L503.98 3307.95 L495.94 3308.48 L490.83 3309.00 L489.78 3309.00 L488.01 3309.31 L487.48 3306.49 L487.07 3304.92 L486.75 3302.84 L486.75 3302.31 L486.75 3301.90 L487.59 3299.70 L487.48 3299.18 L486.65 3294.17 L484.46 3279.13 L483.72 3273.80 L480.49 3254.06 L478.92 3245.08 L477.77 3237.56 L476.62 3230.04 L472.76 3205.40 L464.82 3156.00 L460.02 3126.55 L457.20 3108.37 L453.34 3084.77 L448.53 3054.90 L444.67 3031.19 L444.04 3027.02 L440.59 3007.28 L440.39 3004.88 L439.13 2997.57 L436.73 2982.84 L434.33 2968.43 L432.97 2958.71 L429.84 2939.50 L429.00 2934.38 L426.60 2919.24 L425.77 2914.02 L421.59 2888.74 L421.17 2886.34 L420.02 2878.92 L419.50 2876.31 L417.52 2863.68 L417.20 2861.38 L415.74 2852.08 L414.70 2846.13 L413.23 2837.04 L410.83 2822.11 L408.12 2807.70 L406.76 2800.80 L406.24 2797.46 L402.79 2778.56 L399.45 2758.30 L397.99 2750.15 L396.42 2741.80 L392.56 2720.28 L385.46 2679.24 L382.43 2662.53 L382.22 2661.38 L381.80 2658.67 L380.65 2657.10 L376.58 2635.69 L373.55 2619.19 L373.13 2616.58 L372.82 2614.59 L372.51 2612.92 L371.98 2609.79 L371.77 2608.12 L371.36 2605.30 L368.64 2589.11 L366.66 2576.06 L366.14 2572.19 L364.05 2557.47 L362.79 2547.75 L362.38 2545.14 L363.11 2543.16 L361.33 2532.09 L358.09 2510.78 L353.81 2481.64 L343.37 2411.57 L340.03 2391.31 L339.30 2386.61 L336.79 2370.10 L334.39 2355.59 L333.34 2348.90 L331.05 2334.39 L328.12 2318.62 L325.51 2302.01 L321.75 2279.24 L320.71 2272.56 L316.01 2242.80 L308.70 2194.96 L305.46 2177.21 L303.79 2167.50 L301.07 2151.10 L297.42 2131.88 L297.00 2129.38 L296.79 2127.91 L295.96 2123.42 L295.54 2119.87 L292.20 2100.86 L289.80 2085.30 L288.02 2074.34 L286.35 2064.83 L280.71 2029.22 L279.67 2023.27 L279.14 2019.61 L273.71 1985.36 L271.83 1973.35 L262.44 1918.10 L260.56 1906.61 L272.57 1905.15 L275.70 1904.73 L310.37 1900.24 L312.35 1899.93 L314.76 1899.51 L327.29 1897.94 L335.64 1896.90 L337.83 1895.02 L351.51 1893.24 L365.20 1891.26 L371.15 1889.80 L376.16 1888.23 L380.76 1886.45 L385.87 1884.05 L389.53 1882.07 L394.85 1879.46 L397.46 1877.47 L400.28 1875.70 L403.63 1873.61 L406.55 1871.94 L408.33 1871.00 L413.13 1868.80 L418.04 1866.92 L423.05 1865.36 L423.89 1865.15 L427.65 1864.00 L431.82 1863.06 L436.21 1862.02 L440.70 1861.18 L444.04 1860.66 L455.63 1858.57 L463.78 1857.21 L483.52 1853.66 L550.67 1841.76 L553.28 1841.34 L577.82 1837.58 L601.11 1834.13 L610.30 1832.77 L636.30 1828.81 L640.79 1828.07 L644.34 1827.55 L646.95 1827.13 L659.06 1825.36 L682.87 1821.81 L693.42 1820.14 L702.72 1818.47 L711.38 1817.00 L708.67 1800.71 L803.60 1783.90 L805.48 1796.74 L805.69 1798.52 L805.69 1800.61 L805.48 1802.59 L804.43 1809.69 L803.70 1815.75 L802.87 1822.75 L802.66 1824.84 L802.55 1826.82 L804.33 1826.72 L810.18 1826.72 L816.13 1827.13 L821.04 1827.76 L830.12 1828.81 L836.18 1829.74 L840.46 1830.27 L844.64 1830.37 L848.82 1830.16 L852.89 1829.54 L856.02 1828.81 L857.90 1828.28 L859.89 1827.66 L870.12 1823.69 L876.07 1821.29 L879.62 1819.93 L883.90 1818.15 L887.66 1816.59 L892.26 1814.71 L896.96 1812.62 L900.51 1811.26 L903.22 1810.32 L905.84 1809.38 L908.03 1808.86 L919.20 1806.87 L929.33 1805.20 L942.18 1803.01 L956.07 1800.71 L963.48 1799.46 L978.10 1796.95 L987.60 1795.39 L1005.88 1792.36 L1030.32 1788.28 L1040.03 1786.61 L1054.65 1784.21 L1057.26 1783.69 L1070.84 1781.08 L1074.80 1780.45 L1076.16 1780.24 L1082.43 1779.20 L1094.75 1777.11 L1100.39 1776.17 L1101.54 1775.86 L1103.94 1775.54 L1107.70 1774.92 L1116.89 1773.35 L1128.17 1771.36 L1138.72 1769.59 L1140.39 1769.28 L1141.74 1768.96 L1149.06 1767.81 L1161.17 1765.83 L1172.45 1764.05 L1200.23 1759.25 L1203.99 1758.62 L1213.38 1756.95 L1217.25 1756.22 L1237.51 1752.88 L1243.46 1751.83 L1252.34 1750.27 L1259.02 1770.11 L1260.07 1770.53 L1251.92 1788.18 L1254.11 1790.37 L1280.32 1931.15 L1281.26 1935.23 L1283.67 1952.98 L1296.62 2065.67 L1302.57 2111.20 L1308.52 2204.15 L1308.31 2206.24 L1309.46 2209.27 L1318.23 2207.91 L1321.47 2207.50 L1325.65 2206.97 L1331.91 2206.03 L1340.58 2204.68 L1341.00 2207.50 L1348.21 2241.44 L1351.96 2259.30 L1356.66 2280.91 L1362.30 2306.29 L1368.05 2332.09 L1371.70 2346.82 L1376.40 2368.22 L1390.60 2432.45 L1393.74 2446.76 L1399.69 2473.18 L1441.57 2460.13 L1448.25 2459.50 L1454.41 2458.88 L1491.48 2455.64 L1531.27 2448.75 L1581.92 2440.70 L1585.37 2440.18 L1587.67 2454.49 L1589.34 2464.52 L1592.05 2480.39 L1593.20 2487.70 L1596.33 2506.40 L1597.17 2511.30 L1600.41 2531.46 L1600.82 2534.38 L1604.58 2556.63 L1608.55 2581.07 L1612.62 2606.34 L1614.19 2615.22 L1616.18 2627.13 L1616.80 2630.26 L1619.31 2645.51 L1620.25 2651.15 L1620.87 2654.70 L1624.84 2678.40 L1628.81 2701.90 L1632.68 2725.09 L1634.45 2735.43 L1636.75 2749.32 L1639.25 2764.15 L1640.72 2772.92 L1644.58 2796.63 L1648.65 2820.23 L1652.62 2844.15 L1654.40 2854.38 L1655.23 2859.08 L1656.49 2865.87 L1657.01 2868.17 L1657.63 2871.09 L1659.41 2877.46 L1660.77 2882.27 L1663.69 2892.71 L1670.58 2916.31 L1671.21 2918.51 L1678.62 2944.41 L1682.59 2957.46 L1683.43 2960.39 L1686.25 2970.41 L1690.74 2986.29 L1694.08 2997.77 L1700.56 3020.23 L1701.18 3022.32 L1708.07 3046.55 L1708.70 3048.53 L1709.12 3050.20 L1715.38 3071.72 L1716.12 3074.22 L1717.68 3079.65 L1718.94 3084.14 L1720.71 3089.99 L1721.23 3092.29 L1721.86 3094.59 L1722.17 3096.26 L1722.59 3098.03 L1717.06 3099.08 L1710.69 3100.33 L1697.63 3102.63 L1696.27 3102.84 L1684.16 3104.93 L1672.88 3106.91 L1671.84 3107.12 L1662.75 3108.69 L1646.25 3111.40 L1645.31 3111.61 L1637.37 3112.86 L1632.26 3113.70 L1622.02 3115.37 L1608.66 3117.77 L1596.65 3120.17 L1568.45 3124.87 L1554.35 3127.38 L1549.03 3128.32 L1543.91 3129.05 L1542.66 3129.26 L1534.20 3130.62 L1517.28 3133.33 L1505.58 3135.11 L1476.13 3139.39 L1463.29 3141.17 L1455.14 3142.63 L1449.50 3143.46 L1441.98 3144.72 L1422.98 3148.06 L1417.34 3149.00 L1413.06 3149.94 L1410.86 3150.04 L1398.54 3152.13 L1366.17 3157.88 L1361.47 3158.71 L1360.21 3158.92 L1353.84 3160.07 L1350.29 3160.80 L1337.24 3163.31 L1323.14 3166.02 L1318.55 3166.86 L1311.97 3168.11 L1307.06 3168.95 L1299.64 3170.30 L1289.93 3172.08 L1286.70 3172.60 L1274.89 3174.80 L1271.03 3175.53 L1265.70 3176.47 L1264.14 3176.68 L1256.72 3178.03 L1254.43 3178.35 L1242.10 3180.54 L1240.95 3180.75 L1236.46 3181.48 L1219.44 3184.51 L1205.55 3186.91 L1202.31 3187.54 L1195.32 3188.69 L1180.70 3191.19 L1176.00 3192.03 L1169.63 3193.18 L1152.81 3196.21 L1151.67 3196.41 L1143.83 3197.77 L1138.72 3198.71 L1130.26 3200.17 L1129.11 3200.28 L1118.46 3202.16 L1106.24 3204.25 L1098.93 3205.60 L1094.23 3206.44 L1071.67 3210.30 L1060.60 3212.18 L1045.04 3215.00 L1035.12 3216.88 L1018.62 3219.70 L1010.27 3220.96 L1001.49 3222.63 L994.50 3223.78 L984.58 3225.55 L978.62 3226.70 L956.48 3230.46 L952.93 3231.09 L949.90 3231.61 L946.56 3232.24 L936.64 3234.12 L932.57 3234.74 L923.48 3236.41 L911.37 3238.61 L902.08 3240.07 L899.99 3240.28 L877.01 3243.93 L866.67 3245.60 L860.83 3246.44 L854.56 3247.38 L846.62 3248.53 L835.34 3250.30 L831.79 3250.83 L830.85 3251.03 L829.91 3251.14 L813.83 3253.54 L812.79 3253.65 L809.13 3254.17 L791.59 3256.99 L786.37 3257.72 L770.39 3260.23 L763.70 3261.27 L748.98 3263.46 L741.04 3264.72 L733.63 3265.76 L729.66 3266.39 L718.90 3268.06 L714.41 3268.79 L708.67 3269.73 L704.39 3270.36 L695.30 3271.71 L687.26 3273.07 L683.08 3273.70 L660.21 3277.35 L657.39 3277.67 L625.65 3282.68 L621.36 3283.41 L605.49 3285.92 L601.84 3286.44 L584.92 3289.15 L581.16 3289.68 L578.97 3290.09 L571.03 3291.35 L566.23 3292.18 L563.09 3292.71 L557.66 3293.54 L550.56 3294.79 L536.46 3296.88 L536.46 3296.88 Z" stroke-linejoin="round"/>
	</defs>
	<use xlink:href="#path_mjSmPBKQ" style="fill:#6BACAF;stroke:#6BB4D2;stroke-width:5.76"/>
	<defs>
		<path id="path_dJsNOKIk" d="M1725.10 3097.62 L1725.10 3097.62 L1722.59 3098.03 L1722.17 3096.26 L1721.86 3094.59 L1721.23 3092.29 L1720.71 3089.99 L1718.94 3084.14 L1717.68 3079.65 L1716.12 3074.22 L1715.38 3071.72 L1709.12 3050.20 L1708.70 3048.53 L1708.07 3046.55 L1701.18 3022.32 L1700.56 3020.23 L1694.08 2997.77 L1690.74 2986.29 L1686.25 2970.41 L1683.43 2960.39 L1682.59 2957.46 L1678.62 2944.41 L1671.21 2918.51 L1670.58 2916.31 L1663.69 2892.71 L1660.77 2882.27 L1659.41 2877.46 L1657.63 2871.09 L1657.01 2868.17 L1656.49 2865.87 L1655.23 2859.08 L1654.40 2854.38 L1652.62 2844.15 L1648.65 2820.23 L1644.58 2796.63 L1640.72 2772.92 L1639.25 2764.15 L1636.75 2749.32 L1634.45 2735.43 L1632.68 2725.09 L1628.81 2701.90 L1624.84 2678.40 L1620.87 2654.70 L1620.25 2651.15 L1619.31 2645.51 L1616.80 2630.26 L1616.18 2627.13 L1614.19 2615.22 L1612.62 2606.34 L1608.55 2581.07 L1604.58 2556.63 L1600.82 2534.38 L1600.41 2531.46 L1597.17 2511.30 L1596.33 2506.40 L1593.20 2487.70 L1592.05 2480.39 L1589.34 2464.52 L1587.67 2454.49 L1585.37 2440.18 L1583.49 2428.38 L1581.71 2417.62 L1579.31 2402.38 L1597.90 2397.99 L1642.81 2389.74 L1695.75 2380.24 L1749.85 2370.94 L1753.29 2370.31 L1763.42 2368.43 L1771.36 2366.66 L1806.66 2360.81 L1813.03 2359.87 L1805.51 2311.93 L1804.46 2308.70 L1801.64 2290.21 L1800.50 2283.53 L1796.42 2257.10 L1794.02 2244.68 L1782.53 2170.52 L1777.73 2137.84 L1777.10 2132.40 L1776.89 2131.15 L1776.89 2129.90 L1777.00 2128.75 L1777.00 2127.91 L1776.89 2126.87 L1776.79 2125.62 L1773.97 2108.28 L1770.63 2087.18 L1770.21 2083.84 L1769.90 2081.54 L1758.72 2011.88 L1756.11 1995.49 L1751.62 1966.45 L1747.24 1938.36 L1746.09 1931.15 L1742.54 1909.22 L1740.76 1896.48 L1738.67 1883.84 L1737.52 1869.43 L1737.42 1861.29 L1736.90 1849.27 L1735.96 1838.73 L1730.84 1805.31 L1724.78 1766.04 L1722.90 1752.57 L1722.59 1749.64 L1712.25 1682.49 L1727.39 1681.13 L1744.94 1679.46 L1749.22 1678.83 L1765.51 1676.01 L1783.68 1672.57 L1811.46 1667.55 L1830.36 1664.42 L1850.00 1660.56 L1860.65 1658.89 L1883.94 1654.60 L1890.10 1653.56 L1900.54 1651.89 L1906.39 1650.84 L1914.74 1649.49 L1913.18 1638.21 L1912.03 1631.84 L1910.46 1621.71 L1914.85 1621.18 L1920.70 1620.03 L1933.75 1618.15 L1935.32 1618.89 L1936.57 1619.62 L1937.41 1620.66 L1937.82 1621.39 L1938.14 1622.96 L1938.35 1625.26 L1938.66 1627.76 L1977.61 1622.02 L2027.22 1614.71 L2045.39 1611.99 L2064.08 1609.17 L2076.19 1607.40 L2083.82 1606.25 L2087.47 1605.73 L2089.14 1605.52 L2108.99 1601.97 L2141.15 1595.81 L2155.35 1592.99 L2159.22 1592.25 L2180.42 1588.08 L2249.45 1574.40 L2275.97 1569.07 L2281.61 1568.02 L2281.51 1567.50 L2280.77 1560.71 L2280.46 1558.10 L2282.97 1557.58 L2288.71 1556.54 L2297.90 1554.87 L2318.68 1550.48 L2320.04 1550.27 L2323.59 1558.83 L2335.50 1556.22 L2365.99 1548.29 L2386.35 1543.06 L2394.19 1540.98 L2397.11 1540.24 L2399.93 1539.51 L2521.80 1507.14 L2523.68 1506.72 L2530.36 1505.05 L2553.76 1499.41 L2577.36 1493.77 L2615.58 1484.79 L2634.38 1480.30 L2690.67 1466.82 L2694.32 1465.88 L2697.98 1454.92 L2701.74 1443.43 L2710.72 1415.75 L2712.49 1416.80 L2713.43 1417.84 L2713.95 1418.99 L2714.48 1420.45 L2714.89 1422.33 L2715.31 1424.21 L2719.39 1450.11 L2720.64 1459.93 L2721.79 1466.20 L2723.77 1477.58 L2725.44 1483.64 L2728.37 1492.52 L2729.72 1494.29 L2731.50 1499.30 L2732.65 1503.80 L2734.53 1513.82 L2740.69 1551.21 L2744.34 1572.10 L2751.34 1614.50 L2755.10 1637.58 L2757.50 1656.59 L2758.13 1662.12 L2759.90 1675.60 L2762.10 1689.49 L2763.35 1697.00 L2765.44 1710.90 L2765.96 1713.92 L2770.66 1743.17 L2773.90 1762.59 L2779.43 1794.86 L2781.52 1807.29 L2798.33 1911.10 L2798.65 1915.28 L2800.95 1923.11 L2801.57 1925.93 L2802.09 1928.96 L2805.96 1955.28 L2810.76 1986.09 L2813.79 2004.68 L2814.84 2011.26 L2818.80 2036.01 L2822.77 2060.45 L2826.53 2083.01 L2839.59 2164.88 L2809.30 2170.73 L2801.47 2172.72 L2781.10 2176.90 L2774.32 2178.67 L2753.01 2183.47 L2747.89 2184.73 L2739.75 2186.50 L2761.78 2307.55 L2782.77 2423.58 L2783.19 2425.56 L2783.51 2426.19 L2792.59 2501.28 L2797.08 2543.78 L2744.34 2554.65 L2746.75 2569.06 L2753.53 2612.71 L2805.75 2600.49 L2820.37 2659.19 L2835.30 2777.62 L2851.49 2891.25 L2851.70 2892.50 L2845.02 2893.96 L2842.20 2894.49 L2838.23 2895.22 L2834.26 2896.05 L2821.83 2898.45 L2813.48 2899.81 L2800.95 2902.00 L2796.98 2902.63 L2795.83 2902.84 L2774.94 2906.60 L2763.77 2908.58 L2749.04 2911.20 L2737.14 2913.39 L2723.88 2915.79 L2709.36 2918.30 L2700.69 2919.86 L2698.19 2920.39 L2697.14 2920.59 L2684.82 2922.68 L2673.44 2924.56 L2658.92 2927.28 L2654.74 2928.01 L2646.18 2929.58 L2645.24 2929.68 L2630.72 2932.29 L2598.14 2938.14 L2595.01 2938.66 L2586.03 2940.23 L2552.50 2946.08 L2543.11 2947.75 L2534.23 2949.32 L2518.15 2952.24 L2517.00 2952.45 L2499.98 2955.48 L2495.59 2956.21 L2492.14 2956.83 L2488.91 2957.36 L2466.56 2961.12 L2465.41 2961.43 L2463.63 2961.64 L2445.78 2964.88 L2440.87 2965.71 L2439.72 2965.92 L2423.64 2968.64 L2414.66 2970.20 L2413.51 2970.41 L2406.20 2971.56 L2400.56 2972.60 L2389.90 2974.38 L2388.76 2974.59 L2378.00 2976.47 L2363.90 2978.87 L2362.34 2979.18 L2356.90 2980.12 L2337.69 2983.47 L2314.09 2987.43 L2312.63 2987.75 L2308.66 2988.48 L2286.10 2992.34 L2267.51 2995.48 L2265.32 2996.00 L2261.45 2996.73 L2260.41 2996.94 L2248.82 2999.13 L2240.36 3000.91 L2234.41 3002.06 L2232.95 3002.26 L2224.38 3003.83 L2219.68 3004.77 L2210.49 3006.44 L2209.13 3006.65 L2197.23 3008.53 L2188.67 3009.89 L2165.59 3014.17 L2152.85 3016.36 L2142.93 3018.03 L2133.11 3019.91 L2131.96 3020.23 L2130.71 3020.33 L2114.42 3023.67 L2109.09 3024.82 L2096.04 3027.64 L2086.22 3029.73 L2079.74 3031.19 L2057.61 3035.68 L2049.77 3037.36 L2040.27 3039.34 L2033.80 3040.70 L2011.24 3045.29 L1990.46 3049.57 L1983.77 3050.83 L1979.39 3051.56 L1974.16 3052.60 L1971.24 3053.13 L1966.54 3053.96 L1947.74 3057.20 L1943.78 3057.93 L1941.58 3058.35 L1936.88 3059.18 L1929.78 3060.44 L1924.35 3061.48 L1917.46 3062.63 L1915.89 3062.94 L1895.84 3066.39 L1894.80 3066.60 L1891.56 3067.22 L1873.70 3070.25 L1865.24 3071.92 L1863.36 3072.24 L1858.77 3073.18 L1846.03 3075.79 L1838.82 3077.04 L1825.98 3079.55 L1819.29 3080.80 L1794.86 3085.08 L1789.74 3086.02 L1779.71 3087.80 L1773.55 3089.05 L1770.21 3089.47 L1768.44 3089.78 L1765.62 3090.31 L1754.86 3092.19 L1748.91 3093.23 L1746.71 3093.65 L1744.94 3093.96 L1734.91 3095.84 L1725.10 3097.62 L1725.10 3097.62 Z" stroke-linejoin="round"/>
	</defs>
	<use xlink:href="#path_dJsNOKIk" style="fill:#09757A;stroke:#097D9B;stroke-width:5.76"/>
	<defs>
		<path id="path_aAyzBzzf" d="M857.90 1828.28 L857.90 1828.28 L856.02 1828.81 L852.89 1829.54 L848.82 1830.16 L844.64 1830.37 L840.46 1830.27 L836.18 1829.74 L830.12 1828.81 L821.04 1827.76 L816.13 1827.13 L810.18 1826.72 L804.33 1826.72 L802.55 1826.82 L802.66 1824.84 L802.87 1822.75 L803.70 1815.75 L804.43 1809.69 L805.48 1802.59 L805.69 1800.61 L805.69 1798.52 L805.48 1796.74 L803.60 1783.90 L708.67 1800.71 L711.38 1817.00 L702.72 1818.47 L693.42 1820.14 L682.87 1821.81 L659.06 1825.36 L646.95 1827.13 L644.34 1827.55 L640.79 1828.07 L636.30 1828.81 L610.30 1832.77 L601.11 1834.13 L577.82 1837.58 L553.28 1841.34 L550.67 1841.76 L483.52 1853.66 L463.78 1857.21 L455.63 1858.57 L444.04 1860.66 L440.70 1861.18 L436.21 1862.02 L431.82 1863.06 L427.65 1864.00 L423.89 1865.15 L423.05 1865.36 L418.04 1866.92 L413.13 1868.80 L408.33 1871.00 L406.55 1871.94 L403.63 1873.61 L400.28 1875.70 L397.46 1877.47 L394.85 1879.46 L389.53 1882.07 L385.87 1884.05 L380.76 1886.45 L376.16 1888.23 L371.15 1889.80 L365.20 1891.26 L351.51 1893.24 L337.83 1895.02 L335.64 1896.90 L327.29 1897.94 L314.76 1899.51 L312.35 1899.93 L310.37 1900.24 L275.70 1904.73 L272.57 1905.15 L260.56 1906.61 L258.26 1891.99 L257.42 1886.45 L254.71 1868.07 L251.68 1849.38 L250.74 1843.84 L248.65 1831.00 L247.29 1822.33 L246.35 1816.48 L244.68 1806.25 L241.24 1784.73 L240.92 1782.85 L239.98 1777.00 L238.83 1769.17 L238.00 1763.74 L233.40 1735.23 L232.46 1729.59 L230.69 1718.21 L226.20 1690.74 L224.53 1679.98 L222.54 1667.66 L220.98 1658.89 L220.04 1652.41 L219.72 1650.63 L216.38 1628.70 L213.35 1610.43 L211.79 1601.24 L211.16 1597.27 L208.24 1579.30 L206.56 1568.86 L202.07 1540.45 L201.45 1536.38 L199.25 1522.70 L197.69 1512.78 L196.33 1504.21 L196.12 1502.96 L194.56 1493.77 L191.00 1472.36 L189.75 1465.05 L189.02 1460.87 L188.29 1456.69 L188.18 1455.44 L185.78 1441.86 L185.57 1440.09 L182.86 1423.80 L177.74 1392.78 L170.54 1349.44 L166.57 1325.52 L165.73 1319.46 L162.91 1303.69 L160.93 1291.16 L157.17 1268.71 L151.11 1232.26 L149.55 1222.75 L149.02 1219.10 L147.25 1206.88 L144.53 1188.81 L136.60 1141.61 L129.70 1101.71 L129.39 1099.52 L128.97 1096.70 L126.88 1082.81 L117.28 1024.74 L110.91 986.20 L110.70 984.64 L107.46 965.42 L104.85 948.92 L101.40 928.45 L99.73 918.32 L97.33 903.70 L97.02 901.92 L93.26 880.72 L93.05 879.05 L91.38 868.71 L84.07 823.91 L81.14 806.68 L79.47 796.23 L78.85 792.68 L76.44 778.58 L65.16 710.91 L63.08 698.27 L61.51 687.72 L61.30 686.15 L57.33 663.07 L55.35 650.65 L50.96 624.22 L48.35 608.14 L45.95 594.88 L32.48 513.62 L31.33 506.63 L29.24 494.62 L28.82 492.63 L28.20 488.87 L34.15 488.56 L40.21 487.72 L46.68 486.57 L51.07 485.84 L53.68 485.22 L103.80 476.44 L106.21 476.03 L161.76 465.37 L170.54 463.49 L184.84 460.88 L188.81 460.15 L212.10 455.77 L223.90 453.36 L250.84 448.25 L283.01 442.19 L306.30 437.59 L310.26 436.86 L329.38 433.10 L369.48 425.48 L391.72 421.20 L398.40 419.94 L412.40 417.12 L416.99 416.29 L427.02 414.30 L512.97 397.91 L538.45 392.89 L552.44 390.18 L557.98 389.13 L585.44 383.91 L590.56 382.87 L612.59 378.69 L630.14 375.35 L641.73 373.26 L650.29 371.48 L670.97 367.52 L680.89 365.53 L693.42 363.13 L704.91 360.83 L732.90 355.51 L750.23 352.16 L765.17 349.45 L775.30 347.46 L823.54 338.06 L838.89 334.30 L843.49 333.36 L848.08 332.32 L850.28 332.01 L853.72 331.28 L861.14 329.81 L865.84 328.98 L868.03 328.56 L944.16 315.51 L963.69 312.16 L990.22 307.26 L992.20 306.84 L999.20 305.58 L1023.53 301.20 L1042.64 297.54 L1092.04 288.56 L1096.53 287.83 L1099.55 287.41 L1111.98 285.01 L1115.85 284.38 L1133.49 281.46 L1153.75 278.01 L1177.36 273.63 L1180.18 273.21 L1181.74 273.10 L1205.45 268.82 L1211.30 267.78 L1216.41 266.84 L1222.68 265.69 L1232.08 264.12 L1236.15 263.50 L1236.46 266.21 L1237.82 273.84 L1237.93 274.88 L1236.46 279.27 L1243.98 328.98 L1244.30 330.96 L1247.64 352.58 L1249.31 363.44 L1252.65 386.11 L1258.19 421.72 L1259.33 429.55 L1261.11 441.25 L1262.26 448.66 L1263.30 455.45 L1271.13 506.63 L1275.52 536.18 L1279.70 561.04 L1281.37 571.17 L1283.14 582.34 L1288.89 617.85 L1289.41 621.40 L1289.62 622.97 L1292.44 640.31 L1295.15 657.23 L1297.66 660.67 L1299.96 674.56 L1300.17 676.13 L1300.38 677.49 L1301.73 685.74 L1303.30 695.45 L1305.08 706.83 L1309.46 733.46 L1312.80 754.04 L1314.26 763.02 L1316.35 779.42 L1315.73 785.89 L1316.88 792.79 L1319.70 809.60 L1319.90 811.37 L1327.84 860.36 L1328.78 866.52 L1329.30 869.86 L1329.93 873.83 L1330.45 877.48 L1331.18 881.56 L1331.50 883.33 L1331.91 886.26 L1333.48 895.86 L1334.63 903.38 L1337.03 918.32 L1339.22 931.79 L1342.57 953.41 L1343.30 958.01 L1345.07 968.66 L1345.80 973.15 L1351.44 1007.30 L1356.25 1036.96 L1359.38 1055.45 L1359.80 1057.74 L1360.21 1060.46 L1360.95 1064.53 L1362.41 1073.62 L1362.83 1075.71 L1368.26 1107.66 L1368.67 1110.17 L1369.09 1112.68 L1372.33 1131.37 L1376.71 1157.27 L1378.07 1165.31 L1380.16 1178.16 L1380.58 1180.56 L1384.55 1204.06 L1385.59 1210.01 L1388.10 1224.63 L1388.72 1228.81 L1389.56 1233.72 L1390.29 1238.52 L1391.34 1244.48 L1392.28 1250.12 L1392.90 1254.61 L1393.53 1258.58 L1397.08 1279.88 L1398.02 1285.73 L1401.36 1305.89 L1402.30 1311.73 L1402.72 1314.35 L1406.27 1336.80 L1408.67 1351.11 L1411.80 1370.43 L1415.77 1394.55 L1417.55 1405.31 L1420.26 1422.02 L1421.20 1427.56 L1424.44 1448.13 L1425.69 1455.86 L1428.09 1470.38 L1430.39 1484.89 L1430.71 1486.98 L1431.12 1488.97 L1435.20 1514.55 L1435.51 1516.54 L1440.84 1549.64 L1448.98 1599.98 L1453.68 1629.85 L1454.10 1632.46 L1457.13 1650.84 L1461.20 1676.33 L1461.93 1680.92 L1464.44 1695.65 L1466.11 1705.99 L1467.15 1712.04 L1465.38 1712.36 L1436.55 1717.27 L1433.84 1717.68 L1415.77 1720.71 L1396.35 1723.95 L1374.73 1727.61 L1369.61 1728.44 L1357.40 1730.63 L1353.22 1731.16 L1344.45 1732.62 L1334.21 1734.39 L1328.36 1735.65 L1324.29 1737.00 L1318.44 1738.99 L1312.49 1741.29 L1311.03 1741.81 L1303.82 1745.05 L1299.33 1747.34 L1292.65 1751.21 L1283.46 1750.58 L1279.49 1750.37 L1275.42 1750.06 L1268.63 1749.54 L1263.51 1749.33 L1261.32 1749.22 L1257.87 1749.54 L1255.26 1749.85 L1252.34 1750.27 L1243.46 1751.83 L1237.51 1752.88 L1217.25 1756.22 L1213.38 1756.95 L1203.99 1758.62 L1200.23 1759.25 L1172.45 1764.05 L1161.17 1765.83 L1149.06 1767.81 L1141.74 1768.96 L1140.39 1769.28 L1138.72 1769.59 L1128.17 1771.36 L1116.89 1773.35 L1107.70 1774.92 L1103.94 1775.54 L1101.54 1775.86 L1100.39 1776.17 L1094.75 1777.11 L1082.43 1779.20 L1076.16 1780.24 L1074.80 1780.45 L1070.84 1781.08 L1057.26 1783.69 L1054.65 1784.21 L1040.03 1786.61 L1030.32 1788.28 L1005.88 1792.36 L987.60 1795.39 L978.10 1796.95 L963.48 1799.46 L956.07 1800.71 L942.18 1803.01 L929.33 1805.20 L919.20 1806.87 L908.03 1808.86 L905.84 1809.38 L903.22 1810.32 L900.51 1811.26 L896.96 1812.62 L892.26 1814.71 L887.66 1816.59 L883.90 1818.15 L879.62 1819.93 L876.07 1821.29 L870.12 1823.69 L859.89 1827.66 L857.90 1828.28 L857.90 1828.28 Z" stroke-linejoin="round"/>
	</defs>
	<use xlink:href="#path_aAyzBzzf" style="fill:#004249;stroke:#00465F;stroke-width:5.76"/>
</svg>
