<svg width="277" height="278" fill="none" xmlns="http://www.w3.org/2000/svg"><g clip-path="url(#clip0)"><path d="M138.258.038s81.49-3.656 124.694 78.23H131.324s-24.841-.801-46.061 29.326c-6.096 12.645-12.648 25.67-5.295 51.341-10.592-17.939-56.233-97.387-56.233-97.387S55.928 3.275 138.257.038h.001z" fill="#EF3F36"/><path d="M258.722 207.914s-37.603 72.402-130.104 68.822c11.43-19.768 65.833-113.955 65.833-113.955s13.144-21.1-2.362-54.539C184.202 96.625 176.163 84.476 150.258 78c20.84-.189 112.465 0 112.465 0s34.325 57.016-4.001 129.914z" fill="#FCD900"/><path d="M18.363 208.485s-43.927-68.746 5.448-147.052c11.391 19.768 65.795 113.955 65.795 113.955s11.734 21.938 48.422 25.212c13.983-1.028 28.535-1.904 47.128-21.061-10.25 18.13-56.235 97.349-56.235 97.349s-66.594 1.219-110.559-68.403h.001z" fill="#61BC5B"/><path d="M128.581 277.421l18.515-77.239s20.344-1.6 37.413-20.3c-10.592 18.625-55.928 97.539-55.928 97.539z" fill="#5AB055"/><path d="M76.234 139.586c0-34.048 27.622-61.661 61.681-61.661 34.058 0 61.68 27.613 61.68 61.661 0 34.05-27.622 61.662-61.68 61.662-34.059-.038-61.68-27.612-61.68-61.662z" fill="#fff"/><path d="M86.558 139.586c0-28.335 22.973-51.34 51.356-51.34 28.344 0 51.356 22.967 51.356 51.34 0 28.337-22.973 51.341-51.356 51.341-28.345 0-51.356-23.004-51.356-51.341z" fill="url(#paint0_linear)"/><path d="M262.684 78.04l-76.234 22.356s-11.505-16.873-36.23-22.357c21.449-.114 112.464 0 112.464 0z" fill="#EACA05"/><path d="M78.483 156.116c-10.707-18.548-54.748-94.568-54.748-94.568l56.461 55.834s-5.791 11.921-3.619 28.984l1.905 9.75z" fill="#DF3A32"/></g><defs><linearGradient id="paint0_linear" x1="137.912" y1="88.971" x2="137.912" y2="187.837" gradientUnits="userSpaceOnUse"><stop stop-color="#86BBE5"/><stop offset="1" stop-color="#1072BA"/></linearGradient><clipPath id="clip0"><path fill="#fff" d="M0 0h276.971v278H0z"/></clipPath></defs></svg>