<?xml version="1.0" encoding="UTF-8" standalone="no"?>
<!-- This is a Stata 16.1 generated SVG file (http://www.stata.com) -->

<svg version="1.1" width="4.00in" height="4.40in" viewBox="0 0 2880 3171" xmlns="http://www.w3.org/2000/svg" xmlns:xlink="http://www.w3.org/1999/xlink">
	<desc>Stata Graph - Graph</desc>
	<rect x="0" y="0" width="2880" height="3171" style="fill:#FFFFFF;stroke:none"/>
	<defs>
		<path id="path_fPBieYhZ" d="M956.20 2810.79 L956.20 2810.79 L951.84 2813.27 L951.05 2807.43 L950.65 2803.06 L950.36 2799.99 L949.76 2795.34 L949.17 2789.98 L948.77 2786.42 L947.88 2780.97 L945.40 2760.65 L944.81 2755.70 L943.02 2740.93 L942.53 2735.28 L940.94 2722.20 L940.15 2712.79 L938.86 2699.31 L933.51 2658.49 L932.92 2653.43 L930.74 2635.89 L947.09 2632.62 L964.72 2629.35 L976.32 2627.17 L991.68 2624.40 L1001.58 2622.52 L1011.79 2620.53 L1035.57 2615.98 L1059.55 2611.52 L1069.26 2609.73 L1071.54 2631.63 L1077.09 2677.51 L1082.54 2726.27 L1084.72 2747.77 L1084.92 2753.32 L1085.02 2756.99 L1077.19 2756.99 L1072.33 2757.38 L1071.74 2757.38 L1066.78 2757.98 L1062.82 2758.67 L1057.37 2759.66 L1055.98 2760.06 L1051.72 2761.05 L1048.35 2762.24 L1045.58 2763.33 L1040.72 2765.81 L1032.30 2769.67 L1030.22 2770.66 L1027.15 2772.15 L1023.09 2774.43 L1018.33 2777.00 L1013.38 2779.68 L983.85 2795.43 L971.96 2802.17 L966.21 2805.34 L956.20 2810.79 L956.20 2810.79 Z" stroke-linejoin="round"/>
	</defs>
	<use xlink:href="#path_fPBieYhZ" style="fill:#CEE3E4;stroke:#CEF5F5;stroke-width:5.76"/>
	<defs>
		<path id="path_rdXCvRvA" d="M773.38 2841.81 L773.38 2841.81 L773.38 2841.81 L762.78 2842.11 L755.25 2841.91 L746.23 2841.41 L737.91 2840.52 L730.18 2839.53 L722.06 2838.05 L715.22 2836.46 L705.31 2833.98 L698.08 2831.80 L689.06 2828.23 L688.37 2827.84 L679.35 2823.38 L663.99 2814.66 L670.93 2814.96 L671.72 2813.27 L673.01 2810.40 L670.83 2783.84 L667.85 2781.86 L667.66 2779.58 L667.46 2776.51 L667.46 2775.02 L667.46 2774.13 L665.67 2762.83 L664.39 2754.51 L664.19 2752.33 L663.59 2745.99 L662.01 2728.25 L661.41 2721.71 L660.13 2708.23 L662.11 2701.59 L677.96 2689.21 L678.85 2688.61 L689.36 2682.17 L690.05 2679.99 L691.34 2678.11 L701.25 2675.83 L726.12 2670.87 L729.69 2670.38 L734.64 2669.39 L736.13 2671.67 L752.77 2668.50 L759.12 2667.41 L765.75 2666.22 L783.39 2663.05 L793.10 2661.36 L800.34 2725.87 L801.43 2735.09 L802.22 2742.72 L810.54 2814.36 L811.04 2821.40 L811.53 2826.15 L811.93 2832.30 L812.13 2835.47 L797.16 2836.06 L793.20 2837.65 L787.65 2837.75 L786.27 2841.32 L773.38 2841.81 L773.38 2841.81 Z" stroke-linejoin="round"/>
	</defs>
	<use xlink:href="#path_rdXCvRvA" style="fill:#CEE3E4;stroke:#CEF5F5;stroke-width:5.76"/>
	<defs>
		<path id="path_KoxWiATG" d="M427.07 3070.92 L427.07 3070.92 L421.72 3067.74 L420.13 3065.07 L421.32 3058.92 L420.04 3054.56 L419.44 3044.46 L418.85 3036.73 L417.36 3023.75 L415.28 3005.51 L411.12 2972.81 L409.33 2955.57 L408.14 2945.07 L407.65 2935.75 L407.75 2931.89 L408.24 2926.73 L408.94 2923.17 L410.62 2916.03 L411.91 2912.46 L412.50 2911.08 L414.88 2905.83 L417.16 2901.47 L420.33 2896.81 L424.69 2891.65 L428.85 2887.59 L435.20 2882.44 L440.25 2878.28 L446.89 2875.80 L451.45 2874.81 L452.83 2876.10 L454.42 2877.19 L456.80 2878.08 L459.27 2878.57 L461.65 2878.67 L464.43 2878.57 L466.71 2877.98 L468.39 2877.39 L491.28 2873.32 L505.65 2870.65 L538.45 2863.31 L556.18 2859.75 L572.63 2856.38 L605.92 2850.04 L639.91 2845.48 L648.24 2845.58 L660.92 2845.48 L671.92 2844.98 L673.90 2846.57 L675.98 2846.77 L676.57 2860.04 L685.20 2931.69 L690.65 2973.61 L694.91 2997.39 L697.09 3003.43 L698.57 3005.32 L701.05 3007.30 L703.92 3008.39 L707.79 3009.18 L712.35 3009.38 L717.99 3008.78 L730.97 3004.82 L736.32 3002.44 L740.29 3000.16 L745.44 2996.20 L739.79 3004.42 L733.85 3012.95 L724.93 3025.73 L717.10 3029.00 L703.63 3032.27 L658.94 3042.87 L653.49 3038.51 L626.54 3046.24 L610.09 3044.66 L562.52 3052.58 L549.05 3054.86 L533.99 3056.35 L526.06 3057.14 L513.87 3057.83 L501.29 3057.64 L453.82 3058.53 L448.28 3059.02 L456.00 3062.49 L460.36 3064.38 L460.56 3064.67 L460.26 3064.77 L449.56 3065.37 L427.07 3070.92 L427.07 3070.92 Z" stroke-linejoin="round"/>
	</defs>
	<use xlink:href="#path_KoxWiATG" style="fill:#9DC8CA;stroke:#9DD7F0;stroke-width:5.76"/>
	<defs>
		<path id="path_PaauihcV" d="M2029.13 2090.58 L2029.13 2090.58 L2029.13 2090.58 L2018.13 2073.44 L1995.84 2038.16 L1973.54 2002.78 L1970.77 1998.72 L1965.22 1990.60 L1961.06 1984.15 L1959.97 1982.47 L1948.87 1965.62 L1948.57 1960.97 L1939.95 1950.16 L1937.27 1948.58 L1935.89 1946.80 L1933.21 1945.51 L1924.99 1932.13 L1922.91 1928.86 L1914.29 1915.09 L1909.83 1908.15 L1902.59 1896.95 L1895.16 1885.26 L1891.20 1879.11 L1883.87 1867.22 L1880.00 1861.28 L1869.30 1843.94 L1863.95 1835.61 L1857.41 1825.11 L1850.37 1814.01 L1846.11 1807.27 L1842.25 1801.23 L1833.43 1787.35 L1827.98 1778.73 L1824.61 1773.48 L1816.09 1759.90 L1809.65 1749.70 L1802.71 1738.60 L1798.06 1731.27 L1786.36 1713.83 L1775.56 1696.19 L1771.80 1690.04 L1764.46 1677.95 L1756.44 1665.17 L1752.87 1659.32 L1741.87 1642.78 L1730.97 1625.53 L1726.81 1618.99 L1719.78 1607.90 L1713.14 1597.19 L1708.38 1589.76 L1704.02 1582.82 L1697.18 1571.73 L1690.94 1561.92 L1685.79 1553.79 L1674.00 1535.16 L1667.36 1524.66 L1656.46 1507.22 L1651.40 1499.29 L1644.37 1488.39 L1629.61 1465.00 L1633.47 1461.93 L1638.42 1458.16 L1671.32 1432.40 L1674.89 1429.63 L1677.46 1427.35 L1684.90 1421.50 L1702.73 1407.13 L1725.13 1388.50 L1731.17 1383.45 L1773.28 1349.76 L1821.24 1312.20 L1847.10 1291.98 L1865.93 1277.62 L1884.16 1263.15 L1901.90 1249.27 L1917.06 1236.89 L2010.90 1163.36 L2013.37 1161.38 L2019.12 1157.12 L2021.70 1155.23 L2023.58 1153.55 L2025.26 1152.06 L2026.95 1150.38 L2028.44 1148.69 L2029.92 1147.01 L2031.11 1145.42 L2033.09 1142.65 L2036.76 1134.52 L2041.22 1126.00 L2045.68 1118.17 L2060.74 1089.14 L2067.87 1070.71 L2069.16 1063.67 L2069.36 1061.99 L2068.67 1052.38 L2067.38 1045.34 L2062.03 1013.04 L2059.25 999.06 L2050.14 951.40 L2050.14 946.54 L2051.32 941.09 L2053.21 936.24 L2060.34 921.08 L2061.53 913.94 L2061.73 912.06 L2061.93 910.18 L2062.03 907.90 L2062.03 906.01 L2061.83 903.93 L2061.53 901.55 L2061.13 899.18 L2060.74 896.70 L2058.86 889.37 L2055.68 884.71 L2051.42 879.26 L2047.46 876.48 L2043.70 873.91 L2036.56 870.74 L2029.13 868.66 L2016.54 865.78 L2009.21 865.29 L2003.47 865.29 L1994.55 866.18 L1987.81 868.95 L1984.04 871.23 L1980.68 873.61 L1973.94 877.77 L1971.36 879.36 L1966.80 882.53 L1963.43 884.21 L1960.06 885.20 L1957.39 886.20 L1953.92 886.10 L1949.56 885.11 L1944.31 881.54 L1940.35 876.78 L1934.50 869.25 L1930.44 862.81 L1928.16 860.23 L1925.88 858.45 L1921.82 856.27 L1910.62 851.31 L1905.96 848.04 L1905.37 847.55 L1902.10 844.28 L1897.44 840.41 L1893.48 836.35 L1892.59 835.46 L1891.00 834.07 L1887.43 822.18 L1888.52 817.92 L1891.59 810.29 L1906.46 795.03 L1916.07 781.95 L1930.34 767.58 L1944.31 757.97 L1960.56 748.06 L1977.21 742.31 L1998.41 732.80 L2036.07 721.60 L1850.77 550.86 L1715.32 426.00 L1640.31 424.42 L1631.19 424.22 L1624.06 411.04 L1623.66 410.74 L1623.16 410.55 L1622.67 410.64 L1620.29 412.03 L1617.42 413.82 L1614.74 415.60 L1610.68 418.08 L1542.80 220.38 L1499.60 82.25 L1532.00 88.99 L1623.86 110.19 L1668.55 122.48 L1693.72 128.52 L1702.83 132.69 L1806.58 151.71 L1964.92 188.38 L1996.73 196.90 L2107.71 226.63 L2157.65 237.92 L2264.76 268.44 L2285.67 273.40 L2470.67 304.52 L2509.41 310.96 L2511.09 310.96 L2630.40 338.90 L2633.86 346.63 L2647.24 381.41 L2661.91 419.27 L2695.50 505.97 L2745.64 644.80 L2804.79 848.34 L2851.76 1009.96 L2829.86 1106.48 L2795.87 1257.10 L2719.68 1589.86 L2697.68 1685.49 L2640.01 1746.33 L2585.21 1802.22 L2577.09 1812.03 L2570.05 1819.76 L2552.22 1838.59 L2547.86 1844.43 L2532.99 1830.26 L2524.27 1821.94 L2521.30 1820.05 L2519.02 1816.88 L2493.06 1790.92 L2484.64 1782.00 L2483.25 1783.79 L2479.88 1779.92 L2465.32 1769.02 L2460.76 1764.66 L2433.51 1739.00 L2424.99 1747.72 L2414.38 1759.31 L2391.10 1786.16 L2364.54 1814.41 L2339.28 1844.53 L2313.31 1863.26 L2306.68 1869.01 L2296.47 1876.93 L2278.93 1892.00 L2255.45 1913.00 L2248.21 1919.74 L2249.11 1921.33 L2220.37 1944.32 L2121.78 2015.86 L2106.72 2028.45 L2093.93 2039.35 L2081.45 2051.54 L2067.48 2062.74 L2058.16 2070.07 L2047.26 2079.19 L2044.79 2080.67 L2042.31 2082.26 L2029.13 2090.58 L2029.13 2090.58 Z" stroke-linejoin="round"/>
	</defs>
	<use xlink:href="#path_PaauihcV" style="fill:#9DC8CA;stroke:#9DD7F0;stroke-width:5.76"/>
	<defs>
		<path id="path_MDICwmlL" d="M1464.52 1612.55 L1464.52 1612.55 L1461.65 1613.05 L1460.26 1613.35 L1458.98 1610.37 L1458.28 1608.69 L1457.59 1607.40 L1456.20 1605.02 L1455.51 1603.93 L1453.33 1601.06 L1450.95 1597.79 L1448.57 1594.62 L1446.19 1591.05 L1444.01 1587.18 L1441.93 1583.32 L1441.44 1582.23 L1440.15 1579.55 L1438.76 1575.89 L1437.28 1571.63 L1435.10 1565.68 L1433.31 1560.63 L1431.63 1556.76 L1430.24 1553.39 L1429.05 1551.02 L1427.37 1547.35 L1425.38 1543.68 L1424.69 1542.10 L1423.50 1539.82 L1421.62 1536.55 L1419.24 1532.88 L1411.12 1520.49 L1403.09 1503.95 L1400.32 1499.98 L1398.14 1496.91 L1394.96 1492.25 L1391.79 1487.40 L1388.92 1482.94 L1386.05 1478.48 L1381.79 1471.84 L1377.82 1465.30 L1374.55 1460.25 L1370.19 1453.41 L1366.33 1447.36 L1363.06 1441.91 L1359.59 1436.76 L1355.23 1429.82 L1351.17 1423.38 L1346.81 1416.25 L1342.25 1409.11 L1336.70 1400.19 L1331.55 1392.27 L1326.89 1385.03 L1322.73 1378.39 L1322.43 1378.00 L1318.96 1372.15 L1314.21 1364.52 L1312.13 1361.15 L1308.06 1354.22 L1306.18 1350.75 L1302.52 1344.31 L1299.05 1338.26 L1294.98 1331.13 L1290.62 1323.00 L1286.86 1316.16 L1282.80 1308.93 L1278.04 1300.21 L1273.58 1291.98 L1271.10 1290.70 L1268.53 1289.31 L1264.07 1286.63 L1261.20 1284.55 L1257.93 1282.27 L1254.66 1278.90 L1253.27 1277.62 L1252.67 1276.92 L1247.92 1270.98 L1245.74 1267.41 L1240.98 1259.38 L1234.44 1248.38 L1228.20 1237.78 L1223.64 1230.15 L1223.24 1229.36 L1215.61 1216.67 L1213.43 1212.21 L1207.98 1206.27 L1206.80 1204.88 L1205.51 1203.10 L1203.72 1200.72 L1201.45 1197.65 L1199.66 1195.17 L1197.88 1192.99 L1196.39 1191.11 L1194.31 1188.53 L1192.33 1186.15 L1190.05 1183.48 L1186.98 1180.31 L1184.01 1176.94 L1180.74 1173.17 L1177.96 1169.50 L1175.88 1166.83 L1174.10 1164.55 L1172.21 1161.97 L1170.13 1159.00 L1167.56 1155.33 L1165.48 1152.26 L1164.88 1151.27 L1161.71 1146.91 L1158.24 1145.72 L1149.23 1142.25 L1135.25 1135.52 L1143.08 1147.01 L1146.45 1151.67 L1148.04 1153.65 L1149.42 1155.93 L1149.62 1158.21 L1162.60 1176.14 L1163.69 1177.93 L1165.38 1180.31 L1177.96 1198.94 L1183.41 1206.76 L1197.58 1227.67 L1210.56 1246.40 L1222.15 1264.83 L1226.71 1271.87 L1224.14 1270.48 L1222.55 1269.69 L1221.46 1269.49 L1220.77 1269.49 L1219.97 1269.69 L1219.08 1269.99 L1216.51 1270.48 L1215.52 1270.58 L1214.72 1270.48 L1210.66 1269.49 L1209.67 1269.69 L1206.99 1270.08 L1203.62 1270.08 L1200.55 1269.59 L1197.38 1268.90 L1193.62 1267.81 L1178.95 1264.04 L1156.66 1258.79 L1136.64 1253.83 L1121.08 1250.17 L1108.70 1247.19 L1106.42 1246.60 L1104.04 1246.10 L1091.56 1242.93 L1076.20 1238.97 L1068.27 1236.99 L1044.89 1231.04 L1023.88 1225.59 L1003.57 1220.34 L990.29 1216.97 L982.86 1214.99 L977.90 1213.60 L957.29 1208.15 L951.05 1225.69 L949.76 1229.65 L945.70 1240.85 L937.87 1261.96 L936.78 1265.23 L935.89 1268.10 L935.19 1270.78 L934.60 1273.16 L930.93 1287.23 L875.25 1257.20 L825.11 1230.35 L701.84 1164.65 L630.60 1126.50 L632.38 1120.06 L634.07 1113.52 L640.21 1116.29 L661.91 1126.20 L663.79 1121.44 L664.49 1119.56 L665.18 1117.18 L674.20 1081.21 L674.99 1077.25 L674.89 1076.16 L674.79 1074.28 L674.20 1072.59 L673.21 1071.30 L672.12 1070.21 L670.83 1069.42 L669.74 1068.92 L667.95 1068.43 L664.78 1067.54 L660.82 1066.65 L650.91 1064.07 L659.04 1027.80 L659.93 1023.64 L670.33 976.77 L667.36 975.58 L665.18 974.49 L666.27 970.43 L667.56 965.27 L670.43 954.57 L671.42 950.41 L676.77 929.99 L679.94 917.81 L682.92 918.60 L683.71 916.52 L703.33 832.39 L702.63 828.82 L705.71 824.26 L741.48 707.53 L740.09 682.16 L742.96 669.97 L746.43 666.21 L746.93 664.62 L747.22 663.04 L752.18 642.33 L752.87 639.15 L754.46 632.81 L756.64 624.19 L758.72 616.46 L760.80 609.23 L764.47 596.64 L766.35 590.70 L767.54 587.13 L768.53 583.76 L770.81 576.13 L772.19 571.18 L780.82 540.75 L782.00 536.59 L785.67 521.03 L789.63 504.68 L785.87 503.59 L787.16 499.04 L788.35 494.58 L790.92 491.70 L792.11 487.14 L798.25 463.07 L800.43 454.94 L807.77 427.19 L816.98 390.63 L822.63 374.57 L821.05 374.67 L822.93 366.85 L826.00 354.46 L827.19 349.60 L832.74 331.07 L835.21 318.09 L836.80 315.22 L838.09 309.57 L839.28 303.62 L840.37 296.39 L842.25 293.52 L842.65 291.43 L844.73 287.47 L851.86 282.12 L853.15 280.73 L852.85 280.04 L855.33 279.44 L840.37 254.97 L844.63 251.70 L847.01 249.91 L1003.17 204.63 L1024.37 194.22 L1052.81 180.55 L1061.63 176.29 L1091.16 161.52 L1189.95 113.17 L1231.07 93.05 L1265.65 77.49 L1297.26 61.64 L1278.24 31.21 L1301.13 35.38 L1327.29 41.82 L1348.49 47.47 L1360.38 50.04 L1499.60 82.25 L1542.80 220.38 L1610.68 418.08 L1614.74 415.60 L1617.42 413.82 L1620.29 412.03 L1622.67 410.64 L1623.16 410.55 L1623.66 410.74 L1624.06 411.04 L1631.19 424.22 L1640.31 424.42 L1715.32 426.00 L1850.77 550.86 L2036.07 721.60 L1998.41 732.80 L1977.21 742.31 L1960.56 748.06 L1944.31 757.97 L1930.34 767.58 L1916.07 781.95 L1906.46 795.03 L1891.59 810.29 L1888.52 817.92 L1887.43 822.18 L1891.00 834.07 L1892.59 835.46 L1893.48 836.35 L1897.44 840.41 L1902.10 844.28 L1905.37 847.55 L1905.96 848.04 L1910.62 851.31 L1921.82 856.27 L1925.88 858.45 L1928.16 860.23 L1930.44 862.81 L1934.50 869.25 L1940.35 876.78 L1944.31 881.54 L1949.56 885.11 L1953.92 886.10 L1957.39 886.20 L1960.06 885.20 L1963.43 884.21 L1966.80 882.53 L1971.36 879.36 L1973.94 877.77 L1980.68 873.61 L1984.04 871.23 L1987.81 868.95 L1994.55 866.18 L2003.47 865.29 L2009.21 865.29 L2016.54 865.78 L2029.13 868.66 L2036.56 870.74 L2043.70 873.91 L2047.46 876.48 L2051.42 879.26 L2055.68 884.71 L2058.86 889.37 L2060.74 896.70 L2061.13 899.18 L2061.53 901.55 L2061.83 903.93 L2062.03 906.01 L2062.03 907.90 L2061.93 910.18 L2061.73 912.06 L2061.53 913.94 L2060.34 921.08 L2053.21 936.24 L2051.32 941.09 L2050.14 946.54 L2050.14 951.40 L2059.25 999.06 L2062.03 1013.04 L2067.38 1045.34 L2068.67 1052.38 L2069.36 1061.99 L2069.16 1063.67 L2067.87 1070.71 L2060.74 1089.14 L2045.68 1118.17 L2041.22 1126.00 L2036.76 1134.52 L2033.09 1142.65 L2031.11 1145.42 L2029.92 1147.01 L2028.44 1148.69 L2026.95 1150.38 L2025.26 1152.06 L2023.58 1153.55 L2021.70 1155.23 L2019.12 1157.12 L2013.37 1161.38 L2010.90 1163.36 L1917.06 1236.89 L1901.90 1249.27 L1884.16 1263.15 L1865.93 1277.62 L1847.10 1291.98 L1821.24 1312.20 L1773.28 1349.76 L1731.17 1383.45 L1725.13 1388.50 L1702.73 1407.13 L1684.90 1421.50 L1677.46 1427.35 L1674.89 1429.63 L1671.32 1432.40 L1638.42 1458.16 L1633.47 1461.93 L1629.61 1465.00 L1618.61 1447.66 L1614.54 1441.22 L1607.71 1430.42 L1559.35 1468.57 L1585.31 1509.99 L1614.44 1555.28 L1597.60 1568.46 L1592.15 1572.82 L1566.49 1593.03 L1554.30 1593.23 L1548.06 1595.31 L1543.40 1601.65 L1538.64 1602.15 L1531.61 1603.14 L1521.80 1604.82 L1520.51 1605.02 L1518.53 1605.32 L1511.49 1606.61 L1506.93 1607.40 L1503.57 1607.80 L1501.09 1608.09 L1495.24 1608.69 L1483.85 1609.88 L1472.45 1611.17 L1464.52 1612.55 L1464.52 1612.55 Z" stroke-linejoin="round"/>
	</defs>
	<use xlink:href="#path_MDICwmlL" style="fill:#6BACAF;stroke:#6BB4D2;stroke-width:5.76"/>
	<defs>
		<path id="path_pEPgBaqF" d="M1701.74 2559.69 L1701.74 2559.69 L1697.88 2553.55 L1694.71 2548.69 L1689.36 2540.07 L1679.55 2524.41 L1676.18 2519.26 L1663.99 2500.04 L1646.45 2472.29 L1639.81 2461.59 L1633.17 2451.08 L1627.23 2441.57 L1624.16 2436.42 L1614.05 2421.06 L1613.35 2420.07 L1603.15 2403.82 L1601.56 2401.14 L1591.26 2385.09 L1583.63 2373.20 L1578.87 2365.76 L1571.94 2354.17 L1556.68 2330.39 L1552.02 2323.15 L1545.28 2312.45 L1541.62 2306.51 L1537.95 2300.76 L1534.38 2296.00 L1532.60 2294.12 L1531.01 2292.73 L1528.93 2291.05 L1526.75 2289.56 L1524.27 2288.27 L1521.70 2286.89 L1519.52 2286.09 L1511.99 2283.42 L1506.84 2281.73 L1501.19 2279.95 L1496.73 2278.46 L1492.96 2277.27 L1489.20 2275.99 L1486.03 2274.80 L1483.45 2273.71 L1480.48 2272.32 L1477.80 2270.83 L1475.23 2269.35 L1472.55 2267.66 L1469.68 2265.58 L1467.10 2263.30 L1464.13 2260.63 L1461.95 2258.45 L1459.77 2256.17 L1457.89 2253.79 L1455.90 2251.31 L1454.42 2249.23 L1451.25 2244.18 L1450.16 2242.00 L1448.57 2238.83 L1447.48 2236.35 L1446.29 2232.78 L1445.30 2230.10 L1444.21 2225.74 L1443.72 2222.38 L1443.62 2220.99 L1441.83 2204.74 L1438.56 2177.78 L1436.58 2160.64 L1432.22 2121.00 L1431.63 2115.75 L1430.83 2108.02 L1430.34 2103.76 L1428.46 2089.00 L1427.66 2081.66 L1423.50 2044.11 L1419.24 2005.66 L1413.10 1950.76 L1411.02 1931.83 L1408.74 1913.40 L1404.08 1873.17 L1402.20 1856.72 L1395.76 1797.96 L1394.27 1784.88 L1393.78 1781.01 L1393.18 1775.46 L1387.93 1729.98 L1383.87 1693.51 L1383.47 1689.45 L1381.29 1686.38 L1380.50 1682.51 L1379.80 1677.26 L1377.43 1659.32 L1376.24 1648.92 L1375.54 1642.78 L1374.65 1635.25 L1374.35 1632.17 L1374.16 1630.09 L1373.76 1623.95 L1372.87 1614.93 L1371.48 1601.26 L1370.89 1596.30 L1368.11 1568.36 L1366.92 1556.27 L1363.16 1519.60 L1272.29 1470.95 L1245.54 1457.27 L1237.61 1453.01 L1214.43 1440.62 L1190.05 1427.54 L1179.84 1422.00 L1144.67 1403.27 L1110.98 1384.74 L1085.51 1370.96 L1063.81 1359.37 L1030.91 1341.93 L1002.97 1326.87 L992.86 1321.42 L965.91 1306.06 L930.93 1287.23 L934.60 1273.16 L935.19 1270.78 L935.89 1268.10 L936.78 1265.23 L937.87 1261.96 L945.70 1240.85 L949.76 1229.65 L951.05 1225.69 L957.29 1208.15 L977.90 1213.60 L982.86 1214.99 L990.29 1216.97 L1003.57 1220.34 L1023.88 1225.59 L1044.89 1231.04 L1068.27 1236.99 L1076.20 1238.97 L1091.56 1242.93 L1104.04 1246.10 L1106.42 1246.60 L1108.70 1247.19 L1121.08 1250.17 L1136.64 1253.83 L1156.66 1258.79 L1178.95 1264.04 L1193.62 1267.81 L1197.38 1268.90 L1200.55 1269.59 L1203.62 1270.08 L1206.99 1270.08 L1209.67 1269.69 L1210.66 1269.49 L1214.72 1270.48 L1215.52 1270.58 L1216.51 1270.48 L1219.08 1269.99 L1219.97 1269.69 L1220.77 1269.49 L1221.46 1269.49 L1222.55 1269.69 L1224.14 1270.48 L1226.71 1271.87 L1222.15 1264.83 L1210.56 1246.40 L1197.58 1227.67 L1183.41 1206.76 L1177.96 1198.94 L1165.38 1180.31 L1163.69 1177.93 L1162.60 1176.14 L1149.62 1158.21 L1149.42 1155.93 L1148.04 1153.65 L1146.45 1151.67 L1143.08 1147.01 L1135.25 1135.52 L1149.23 1142.25 L1158.24 1145.72 L1161.71 1146.91 L1164.88 1151.27 L1165.48 1152.26 L1167.56 1155.33 L1170.13 1159.00 L1172.21 1161.97 L1174.10 1164.55 L1175.88 1166.83 L1177.96 1169.50 L1180.74 1173.17 L1184.01 1176.94 L1186.98 1180.31 L1190.05 1183.48 L1192.33 1186.15 L1194.31 1188.53 L1196.39 1191.11 L1197.88 1192.99 L1199.66 1195.17 L1201.45 1197.65 L1203.72 1200.72 L1205.51 1203.10 L1206.80 1204.88 L1207.98 1206.27 L1213.43 1212.21 L1215.61 1216.67 L1223.24 1229.36 L1223.64 1230.15 L1228.20 1237.78 L1234.44 1248.38 L1240.98 1259.38 L1245.74 1267.41 L1247.92 1270.98 L1252.67 1276.92 L1253.27 1277.62 L1254.66 1278.90 L1257.93 1282.27 L1261.20 1284.55 L1264.07 1286.63 L1268.53 1289.31 L1271.10 1290.70 L1273.58 1291.98 L1278.04 1300.21 L1282.80 1308.93 L1286.86 1316.16 L1290.62 1323.00 L1294.98 1331.13 L1299.05 1338.26 L1302.52 1344.31 L1306.18 1350.75 L1308.06 1354.22 L1312.13 1361.15 L1314.21 1364.52 L1318.96 1372.15 L1322.43 1378.00 L1322.73 1378.39 L1326.89 1385.03 L1331.55 1392.27 L1336.70 1400.19 L1342.25 1409.11 L1346.81 1416.25 L1351.17 1423.38 L1355.23 1429.82 L1359.59 1436.76 L1363.06 1441.91 L1366.33 1447.36 L1370.19 1453.41 L1374.55 1460.25 L1377.82 1465.30 L1381.79 1471.84 L1386.05 1478.48 L1388.92 1482.94 L1391.79 1487.40 L1394.96 1492.25 L1398.14 1496.91 L1400.32 1499.98 L1403.09 1503.95 L1411.12 1520.49 L1419.24 1532.88 L1421.62 1536.55 L1423.50 1539.82 L1424.69 1542.10 L1425.38 1543.68 L1427.37 1547.35 L1429.05 1551.02 L1430.24 1553.39 L1431.63 1556.76 L1433.31 1560.63 L1435.10 1565.68 L1437.28 1571.63 L1438.76 1575.89 L1440.15 1579.55 L1441.44 1582.23 L1441.93 1583.32 L1444.01 1587.18 L1446.19 1591.05 L1448.57 1594.62 L1450.95 1597.79 L1453.33 1601.06 L1455.51 1603.93 L1456.20 1605.02 L1457.59 1607.40 L1458.28 1608.69 L1458.98 1610.37 L1460.26 1613.35 L1461.65 1613.05 L1464.52 1612.55 L1472.45 1611.17 L1483.85 1609.88 L1495.24 1608.69 L1501.09 1608.09 L1503.57 1607.80 L1506.93 1607.40 L1511.49 1606.61 L1518.53 1605.32 L1520.51 1605.02 L1521.80 1604.82 L1531.61 1603.14 L1538.64 1602.15 L1543.40 1601.65 L1548.06 1595.31 L1554.30 1593.23 L1566.49 1593.03 L1592.15 1572.82 L1597.60 1568.46 L1614.44 1555.28 L1585.31 1509.99 L1559.35 1468.57 L1607.71 1430.42 L1614.54 1441.22 L1618.61 1447.66 L1629.61 1465.00 L1644.37 1488.39 L1651.40 1499.29 L1656.46 1507.22 L1667.36 1524.66 L1674.00 1535.16 L1685.79 1553.79 L1690.94 1561.92 L1697.18 1571.73 L1704.02 1582.82 L1708.38 1589.76 L1713.14 1597.19 L1719.78 1607.90 L1726.81 1618.99 L1730.97 1625.53 L1741.87 1642.78 L1752.87 1659.32 L1756.44 1665.17 L1764.46 1677.95 L1771.80 1690.04 L1775.56 1696.19 L1786.36 1713.83 L1798.06 1731.27 L1802.71 1738.60 L1809.65 1749.70 L1816.09 1759.90 L1824.61 1773.48 L1827.98 1778.73 L1833.43 1787.35 L1842.25 1801.23 L1846.11 1807.27 L1850.37 1814.01 L1857.41 1825.11 L1863.95 1835.61 L1869.30 1843.94 L1880.00 1861.28 L1883.87 1867.22 L1891.20 1879.11 L1895.16 1885.26 L1902.59 1896.95 L1909.83 1908.15 L1914.29 1915.09 L1922.91 1928.86 L1924.99 1932.13 L1933.21 1945.51 L1935.89 1946.80 L1937.27 1948.58 L1939.95 1950.16 L1948.57 1960.97 L1948.87 1965.62 L1959.97 1982.47 L1961.06 1984.15 L1965.22 1990.60 L1970.77 1998.72 L1973.54 2002.78 L1995.84 2038.16 L2018.13 2073.44 L2029.13 2090.58 L2036.07 2101.48 L2040.62 2109.01 L2044.59 2115.26 L2045.88 2117.34 L2051.82 2126.55 L2063.22 2144.59 L2057.77 2148.25 L2043.79 2159.45 L1983.25 2206.52 L1976.22 2212.37 L1963.53 2222.57 L1940.84 2245.86 L1948.67 2260.33 L1964.82 2274.30 L1981.96 2288.37 L2002.67 2321.47 L1956.20 2352.39 L1948.77 2360.12 L1956.20 2377.26 L1951.94 2386.87 L1944.41 2391.73 L1933.61 2398.27 L1910.12 2421.06 L1901.90 2413.13 L1898.73 2410.06 L1896.35 2411.05 L1853.84 2446.13 L1850.87 2446.23 L1848.89 2448.51 L1845.62 2452.07 L1838.78 2456.73 L1837.89 2457.33 L1827.68 2464.26 L1823.32 2467.24 L1818.17 2470.51 L1811.83 2474.57 L1807.07 2478.14 L1797.96 2484.38 L1718.78 2548.99 L1712.94 2553.75 L1711.65 2554.84 L1703.43 2554.54 L1701.74 2559.69 L1701.74 2559.69 Z" stroke-linejoin="round"/>
	</defs>
	<use xlink:href="#path_pEPgBaqF" style="fill:#09757A;stroke:#097D9B;stroke-width:5.76"/>
	<defs>
		<path id="path_JVUyiWDZ" d="M1218.49 2853.21 L1218.49 2853.21 L1218.49 2853.21 L1117.02 2852.81 L1070.65 2852.61 L1010.50 2853.21 L999.80 2853.21 L988.70 2853.90 L976.61 2855.49 L963.93 2857.47 L965.22 2855.88 L967.30 2853.70 L965.12 2853.01 L963.63 2850.83 L963.73 2847.66 L964.13 2843.79 L961.55 2842.50 L959.27 2840.72 L957.19 2838.74 L955.31 2836.56 L953.72 2833.19 L953.13 2831.70 L952.44 2829.42 L952.14 2828.23 L951.74 2825.56 L951.45 2821.30 L951.35 2817.33 L951.84 2813.27 L956.20 2810.79 L966.21 2805.34 L971.96 2802.17 L983.85 2795.43 L1013.38 2779.68 L1018.33 2777.00 L1023.09 2774.43 L1027.15 2772.15 L1030.22 2770.66 L1032.30 2769.67 L1040.72 2765.81 L1045.58 2763.33 L1048.35 2762.24 L1051.72 2761.05 L1055.98 2760.06 L1057.37 2759.66 L1062.82 2758.67 L1066.78 2757.98 L1071.74 2757.38 L1072.33 2757.38 L1077.19 2756.99 L1085.02 2756.99 L1084.92 2753.32 L1084.72 2747.77 L1082.54 2726.27 L1077.09 2677.51 L1071.54 2631.63 L1069.26 2609.73 L1059.55 2611.52 L1035.57 2615.98 L1011.79 2620.53 L1001.58 2622.52 L991.68 2624.40 L976.32 2627.17 L964.72 2629.35 L947.09 2632.62 L930.74 2635.89 L928.75 2616.57 L928.16 2612.31 L927.27 2604.68 L923.11 2567.12 L918.35 2525.70 L917.66 2518.47 L916.47 2507.37 L914.88 2494.09 L914.39 2489.14 L913.89 2484.87 L911.31 2462.58 L899.42 2355.56 L898.23 2345.05 L897.15 2335.05 L895.56 2321.67 L894.97 2317.01 L892.69 2295.70 L884.76 2225.74 L881.59 2197.80 L880.10 2184.62 L878.81 2172.63 L877.92 2165.20 L865.34 2051.93 L865.04 2049.16 L863.26 2034.00 L861.28 2016.26 L859.49 2000.21 L848.29 1902.80 L846.31 1886.84 L846.02 1883.28 L845.72 1879.71 L843.74 1861.48 L831.75 1754.36 L829.67 1735.53 L829.17 1731.27 L827.68 1719.18 L827.59 1718.58 L827.29 1715.21 L826.79 1711.94 L826.50 1706.39 L826.50 1701.24 L826.99 1695.49 L827.98 1689.25 L829.67 1682.31 L830.95 1677.36 L839.38 1645.55 L857.61 1572.72 L869.00 1528.12 L872.08 1517.13 L838.78 1510.78 L839.38 1509.10 L844.43 1490.67 L854.24 1493.14 L863.16 1495.42 L877.13 1498.89 L881.69 1479.97 L895.06 1426.65 L898.93 1412.38 L901.31 1402.97 L913.89 1353.22 L921.92 1321.61 L925.58 1307.74 L929.05 1295.06 L930.93 1287.23 L965.91 1306.06 L992.86 1321.42 L1002.97 1326.87 L1030.91 1341.93 L1063.81 1359.37 L1085.51 1370.96 L1110.98 1384.74 L1144.67 1403.27 L1179.84 1422.00 L1190.05 1427.54 L1214.43 1440.62 L1237.61 1453.01 L1245.54 1457.27 L1272.29 1470.95 L1363.16 1519.60 L1366.92 1556.27 L1368.11 1568.36 L1370.89 1596.30 L1371.48 1601.26 L1372.87 1614.93 L1373.76 1623.95 L1374.16 1630.09 L1374.35 1632.17 L1374.65 1635.25 L1375.54 1642.78 L1376.24 1648.92 L1377.43 1659.32 L1379.80 1677.26 L1380.50 1682.51 L1381.29 1686.38 L1383.47 1689.45 L1383.87 1693.51 L1387.93 1729.98 L1393.18 1775.46 L1393.78 1781.01 L1394.27 1784.88 L1395.76 1797.96 L1402.20 1856.72 L1404.08 1873.17 L1408.74 1913.40 L1411.02 1931.83 L1413.10 1950.76 L1419.24 2005.66 L1423.50 2044.11 L1427.66 2081.66 L1428.46 2089.00 L1430.34 2103.76 L1430.83 2108.02 L1431.63 2115.75 L1432.22 2121.00 L1436.58 2160.64 L1438.56 2177.78 L1441.83 2204.74 L1443.62 2220.99 L1443.72 2222.38 L1444.21 2225.74 L1445.30 2230.10 L1446.29 2232.78 L1447.48 2236.35 L1448.57 2238.83 L1450.16 2242.00 L1451.25 2244.18 L1454.42 2249.23 L1455.90 2251.31 L1457.89 2253.79 L1459.77 2256.17 L1461.95 2258.45 L1464.13 2260.63 L1467.10 2263.30 L1469.68 2265.58 L1472.55 2267.66 L1475.23 2269.35 L1477.80 2270.83 L1480.48 2272.32 L1483.45 2273.71 L1486.03 2274.80 L1489.20 2275.99 L1492.96 2277.27 L1496.73 2278.46 L1501.19 2279.95 L1506.84 2281.73 L1511.99 2283.42 L1519.52 2286.09 L1521.70 2286.89 L1524.27 2288.27 L1526.75 2289.56 L1528.93 2291.05 L1531.01 2292.73 L1532.60 2294.12 L1534.38 2296.00 L1537.95 2300.76 L1541.62 2306.51 L1545.28 2312.45 L1552.02 2323.15 L1556.68 2330.39 L1571.94 2354.17 L1578.87 2365.76 L1583.63 2373.20 L1591.26 2385.09 L1601.56 2401.14 L1603.15 2403.82 L1613.35 2420.07 L1614.05 2421.06 L1624.16 2436.42 L1627.23 2441.57 L1633.17 2451.08 L1639.81 2461.59 L1646.45 2472.29 L1663.99 2500.04 L1676.18 2519.26 L1679.55 2524.41 L1689.36 2540.07 L1694.71 2548.69 L1697.88 2553.55 L1674.89 2578.52 L1612.86 2645.90 L1609.29 2649.57 L1602.46 2658.29 L1576.00 2669.09 L1571.04 2665.62 L1567.28 2662.85 L1549.44 2649.97 L1543.99 2648.38 L1528.93 2648.18 L1517.93 2649.27 L1512.19 2653.33 L1506.14 2657.79 L1500.89 2661.76 L1495.74 2664.93 L1493.66 2666.32 L1492.37 2668.10 L1458.28 2731.92 L1448.37 2736.57 L1444.11 2758.47 L1414.29 2815.55 L1408.34 2827.94 L1406.56 2832.89 L1405.47 2836.56 L1405.17 2837.95 L1404.58 2840.13 L1404.18 2844.19 L1403.59 2849.64 L1394.96 2853.90 L1371.78 2853.11 L1253.96 2854.00 L1247.82 2853.50 L1242.47 2853.11 L1236.23 2852.91 L1218.49 2853.21 L1218.49 2853.21 Z" stroke-linejoin="round"/>
	</defs>
	<use xlink:href="#path_JVUyiWDZ" style="fill:#09757A;stroke:#097D9B;stroke-width:5.76"/>
	<defs>
		<path id="path_nwMhjrmp" d="M265.56 3139.98 L265.56 3139.98 L265.16 3133.44 L261.79 3084.39 L258.52 3030.78 L253.47 3026.42 L253.47 3019.39 L253.77 3018.69 L255.25 3015.42 L255.45 3001.85 L255.25 2993.13 L253.57 2968.35 L250.59 2915.54 L249.11 2892.74 L248.32 2881.55 L244.55 2841.32 L241.68 2812.58 L240.88 2802.07 L238.80 2775.12 L236.42 2746.28 L234.74 2724.48 L233.75 2710.91 L233.25 2702.39 L232.06 2679.69 L233.95 2671.96 L234.74 2668.30 L235.14 2666.51 L235.83 2663.64 L233.45 2658.29 L231.97 2655.32 L230.68 2646.00 L230.78 2635.10 L230.97 2625.59 L229.79 2617.96 L227.90 2598.73 L226.22 2569.90 L223.34 2539.38 L222.95 2536.30 L221.46 2521.94 L217.70 2486.36 L217.30 2480.61 L215.22 2461.98 L213.04 2440.68 L211.75 2426.51 L211.06 2418.18 L209.87 2411.55 L208.18 2384.59 L207.39 2374.78 L207.09 2370.62 L205.71 2354.67 L205.21 2345.75 L204.02 2330.29 L203.73 2326.23 L179.35 2325.73 L155.47 2317.31 L148.73 2316.71 L117.52 2309.58 L82.94 2301.16 L99.88 2228.02 L113.36 2173.92 L117.72 2155.29 L130.10 2158.26 L132.18 2158.96 L133.97 2159.55 L136.44 2160.24 L139.81 2161.04 L141.89 2161.63 L144.07 2162.03 L146.35 2162.42 L150.12 2162.92 L153.69 2163.12 L154.08 2163.12 L159.04 2163.22 L163.50 2163.12 L167.16 2163.12 L173.90 2162.32 L175.78 2162.03 L191.14 2159.25 L190.55 2156.28 L190.05 2153.31 L189.06 2139.93 L187.77 2132.60 L186.78 2121.89 L184.30 2085.82 L182.22 2069.47 L182.03 2051.44 L181.33 2036.18 L180.74 2028.25 L178.56 2008.33 L178.76 2005.46 L180.14 1999.61 L179.25 1986.33 L179.05 1983.06 L178.16 1970.97 L177.86 1964.34 L176.77 1955.71 L174.00 1929.65 L171.72 1881.59 L171.32 1876.74 L170.73 1869.01 L170.43 1863.26 L170.33 1857.41 L170.23 1855.23 L170.23 1853.45 L170.43 1850.77 L171.13 1844.83 L171.52 1842.25 L171.82 1839.68 L172.81 1832.54 L175.98 1806.88 L176.18 1805.49 L177.57 1794.09 L178.26 1788.54 L188.17 1707.29 L189.75 1694.21 L195.40 1649.71 L197.38 1634.85 L198.28 1628.21 L199.17 1621.77 L200.85 1607.99 L202.93 1591.64 L203.63 1585.50 L204.72 1577.08 L206.90 1558.35 L209.08 1538.93 L209.67 1533.28 L212.25 1513.36 L215.91 1484.03 L217.99 1467.08 L223.44 1423.09 L225.33 1407.82 L232.16 1351.34 L232.56 1348.47 L232.56 1346.39 L232.96 1342.62 L233.85 1332.32 L234.24 1325.08 L234.94 1318.05 L236.62 1304.47 L242.27 1258.89 L244.45 1255.42 L252.28 1191.01 L252.87 1182.98 L261.99 1115.00 L260.01 1104.70 L264.07 1093.00 L267.84 1023.84 L277.15 955.16 L269.42 953.18 L254.66 949.81 L218.59 941.39 L215.12 940.60 L201.05 937.33 L202.73 895.21 L206.20 883.62 L149.92 855.08 L132.48 846.16 L36.96 785.91 L33.79 784.03 L28.14 779.67 L43.60 714.17 L66.49 619.53 L70.45 603.28 L71.64 598.23 L91.36 602.89 L186.88 625.38 L189.26 625.98 L207.69 630.43 L237.42 637.47 L253.96 641.33 L272.39 645.60 L283.99 648.57 L294.09 651.15 L300.93 652.63 L309.55 654.81 L312.33 655.51 L314.51 655.60 L315.10 655.51 L317.18 655.01 L318.67 654.02 L319.36 652.83 L319.96 651.24 L320.15 649.66 L320.45 647.68 L321.15 640.74 L323.42 620.72 L324.51 611.61 L327.09 590.60 L328.97 575.34 L335.71 521.23 L337.49 507.06 L339.48 490.91 L345.22 442.85 L346.61 431.95 L347.90 421.35 L352.56 422.54 L368.81 426.80 L378.32 429.27 L379.90 429.57 L380.90 429.47 L381.69 429.08 L382.18 428.18 L382.68 426.99 L383.08 425.61 L384.96 418.18 L393.78 383.69 L397.44 368.63 L399.72 360.90 L403.49 346.13 L411.81 316.90 L418.85 290.54 L419.94 285.09 L434.50 288.76 L432.32 284.89 L418.55 283.31 L424.59 259.72 L425.19 254.27 L426.87 246.84 L432.22 238.82 L439.85 209.88 L452.44 160.53 L465.52 166.08 L490.98 204.63 L504.06 219.79 L505.05 221.18 L524.87 250.41 L551.72 289.85 L571.44 319.18 L580.95 332.16 L582.44 325.13 L591.76 338.70 L599.58 350.10 L604.93 358.03 L613.65 370.91 L650.71 425.51 L661.02 440.57 L670.23 454.44 L686.78 478.13 L712.54 516.38 L724.63 519.05 L734.14 526.39 L739.79 530.35 L741.48 531.64 L744.25 529.46 L745.94 527.67 L747.13 525.69 L748.02 522.62 L749.40 517.47 L788.54 365.85 L814.11 372.69 L817.78 373.78 L821.05 374.67 L822.63 374.57 L816.98 390.63 L807.77 427.19 L800.43 454.94 L798.25 463.07 L792.11 487.14 L790.92 491.70 L788.35 494.58 L787.16 499.04 L785.87 503.59 L789.63 504.68 L785.67 521.03 L782.00 536.59 L780.82 540.75 L772.19 571.18 L770.81 576.13 L768.53 583.76 L767.54 587.13 L766.35 590.70 L764.47 596.64 L760.80 609.23 L758.72 616.46 L756.64 624.19 L754.46 632.81 L752.87 639.15 L752.18 642.33 L747.22 663.04 L746.93 664.62 L746.43 666.21 L742.96 669.97 L740.09 682.16 L741.48 707.53 L705.71 824.26 L702.63 828.82 L703.33 832.39 L683.71 916.52 L682.92 918.60 L679.94 917.81 L676.77 929.99 L671.42 950.41 L670.43 954.57 L667.56 965.27 L666.27 970.43 L665.18 974.49 L667.36 975.58 L670.33 976.77 L659.93 1023.64 L659.04 1027.80 L650.91 1064.07 L660.82 1066.65 L664.78 1067.54 L667.95 1068.43 L669.74 1068.92 L670.83 1069.42 L672.12 1070.21 L673.21 1071.30 L674.20 1072.59 L674.79 1074.28 L674.89 1076.16 L674.99 1077.25 L674.20 1081.21 L665.18 1117.18 L664.49 1119.56 L663.79 1121.44 L661.91 1126.20 L640.21 1116.29 L634.07 1113.52 L632.38 1120.06 L630.60 1126.50 L701.84 1164.65 L825.11 1230.35 L875.25 1257.20 L930.93 1287.23 L929.05 1295.06 L925.58 1307.74 L921.92 1321.61 L913.89 1353.22 L901.31 1402.97 L898.93 1412.38 L895.06 1426.65 L881.69 1479.97 L877.13 1498.89 L863.16 1495.42 L854.24 1493.14 L844.43 1490.67 L839.38 1509.10 L838.78 1510.78 L872.08 1517.13 L869.00 1528.12 L857.61 1572.72 L839.38 1645.55 L830.95 1677.36 L829.67 1682.31 L827.98 1689.25 L826.99 1695.49 L826.50 1701.24 L826.50 1706.39 L826.79 1711.94 L827.29 1715.21 L827.59 1718.58 L827.68 1719.18 L829.17 1731.27 L829.67 1735.53 L831.75 1754.36 L843.74 1861.48 L845.72 1879.71 L846.02 1883.28 L846.31 1886.84 L848.29 1902.80 L859.49 2000.21 L861.28 2016.26 L863.26 2034.00 L865.04 2049.16 L865.34 2051.93 L877.92 2165.20 L878.81 2172.63 L880.10 2184.62 L881.59 2197.80 L884.76 2225.74 L892.69 2295.70 L894.97 2317.01 L895.56 2321.67 L897.15 2335.05 L898.23 2345.05 L899.42 2355.56 L911.31 2462.58 L913.89 2484.87 L914.39 2489.14 L914.88 2494.09 L916.47 2507.37 L917.66 2518.47 L918.35 2525.70 L923.11 2567.12 L927.27 2604.68 L928.16 2612.31 L928.75 2616.57 L930.74 2635.89 L932.92 2653.43 L933.51 2658.49 L938.86 2699.31 L940.15 2712.79 L940.94 2722.20 L942.53 2735.28 L943.02 2740.93 L944.81 2755.70 L945.40 2760.65 L947.88 2780.97 L948.77 2786.42 L949.17 2789.98 L949.76 2795.34 L950.36 2799.99 L950.65 2803.06 L951.05 2807.43 L951.84 2813.27 L951.35 2817.33 L951.45 2821.30 L951.74 2825.56 L952.14 2828.23 L952.44 2829.42 L953.13 2831.70 L953.72 2833.19 L955.31 2836.56 L957.19 2838.74 L959.27 2840.72 L961.55 2842.50 L964.13 2843.79 L963.73 2847.66 L963.63 2850.83 L965.12 2853.01 L967.30 2853.70 L965.22 2855.88 L963.93 2857.47 L931.92 2881.05 L844.73 2939.32 L836.90 2940.41 L832.44 2939.81 L800.73 2957.45 L785.18 2972.91 L776.26 2981.43 L764.76 2992.53 L743.95 3015.13 L724.93 3025.73 L733.85 3012.95 L739.79 3004.42 L745.44 2996.20 L740.29 3000.16 L736.32 3002.44 L730.97 3004.82 L717.99 3008.78 L712.35 3009.38 L707.79 3009.18 L703.92 3008.39 L701.05 3007.30 L698.57 3005.32 L697.09 3003.43 L694.91 2997.39 L690.65 2973.61 L685.20 2931.69 L676.57 2860.04 L675.98 2846.77 L673.90 2846.57 L671.92 2844.98 L660.92 2845.48 L648.24 2845.58 L639.91 2845.48 L605.92 2850.04 L572.63 2856.38 L556.18 2859.75 L538.45 2863.31 L505.65 2870.65 L491.28 2873.32 L468.39 2877.39 L466.71 2877.98 L464.43 2878.57 L461.65 2878.67 L459.27 2878.57 L456.80 2878.08 L454.42 2877.19 L452.83 2876.10 L451.45 2874.81 L446.89 2875.80 L440.25 2878.28 L435.20 2882.44 L428.85 2887.59 L424.69 2891.65 L420.33 2896.81 L417.16 2901.47 L414.88 2905.83 L412.50 2911.08 L411.91 2912.46 L410.62 2916.03 L408.94 2923.17 L408.24 2926.73 L407.75 2931.89 L407.65 2935.75 L408.14 2945.07 L409.33 2955.57 L411.12 2972.81 L415.28 3005.51 L417.36 3023.75 L418.85 3036.73 L419.44 3044.46 L420.04 3054.56 L421.32 3058.92 L420.13 3065.07 L413.10 3067.65 L400.61 3071.91 L381.89 3078.94 L363.06 3086.77 L352.26 3092.42 L328.48 3108.27 L306.58 3120.56 L286.27 3131.96 L272.79 3137.41 L265.56 3139.98 L265.56 3139.98 Z" stroke-linejoin="round"/>
	</defs>
	<use xlink:href="#path_nwMhjrmp" style="fill:#004249;stroke:#00465F;stroke-width:5.76"/>
	<defs>
		<path id="path_VUdLbeAW" d="M715.22 2836.46 L715.22 2836.46 L715.22 2836.46 L722.06 2838.05 L730.18 2839.53 L737.91 2840.52 L746.23 2841.41 L755.25 2841.91 L762.78 2842.11 L773.38 2841.81 L786.27 2841.32 L787.65 2837.75 L793.20 2837.65 L797.16 2836.06 L812.13 2835.47 L811.93 2832.30 L811.53 2826.15 L811.04 2821.40 L810.54 2814.36 L802.22 2742.72 L801.43 2735.09 L800.34 2725.87 L793.10 2661.36 L783.39 2663.05 L765.75 2666.22 L759.12 2667.41 L752.77 2668.50 L736.13 2671.67 L734.64 2669.39 L729.69 2670.38 L726.12 2670.87 L701.25 2675.83 L691.34 2678.11 L690.05 2679.99 L689.36 2682.17 L678.85 2688.61 L677.96 2689.21 L662.11 2701.59 L660.13 2708.23 L661.41 2721.71 L662.01 2728.25 L663.59 2745.99 L664.19 2752.33 L664.39 2754.51 L665.67 2762.83 L667.46 2774.13 L667.46 2775.02 L667.46 2776.51 L667.66 2779.58 L667.85 2781.86 L670.83 2783.84 L673.01 2810.40 L671.72 2813.27 L670.93 2814.96 L663.99 2814.66 L679.35 2823.38 L688.37 2827.84 L689.06 2828.23 L698.08 2831.80 L705.31 2833.98 L715.22 2836.46 L715.22 2836.46 Z" stroke-linejoin="round"/>
	</defs>
	<use xlink:href="#path_VUdLbeAW" style="fill:#004249;stroke:#00465F;stroke-width:5.76"/>
</svg>
