<?xml version="1.0" encoding="UTF-8" standalone="no"?>
<!-- This is a Stata 16.1 generated SVG file (http://www.stata.com) -->

<svg version="1.1" width="5.61in" height="4.00in" viewBox="0 0 4043 2880" xmlns="http://www.w3.org/2000/svg" xmlns:xlink="http://www.w3.org/1999/xlink">
	<desc>Stata Graph - Graph</desc>
	<rect x="0" y="0" width="4043" height="2880" style="fill:#FFFFFF;stroke:none"/>
	<defs>
		<path id="path_JCvdcZrE" d="M588.13 2272.31 L588.13 2272.31 L565.39 2277.87 L557.05 2242.37 L550.61 2213.19 L559.96 2210.66 L564.50 2209.52 L567.54 2208.39 L571.07 2207.00 L572.59 2206.49 L574.11 2205.73 L573.60 2204.22 L573.22 2202.83 L571.45 2203.33 L570.19 2203.71 L566.27 2204.98 L558.82 2206.75 L549.72 2209.02 L536.20 2212.43 L522.68 2215.72 L509.17 2219.00 L505.12 2220.01 L495.77 2222.28 L494.13 2222.79 L483.64 2226.07 L479.98 2227.21 L469.24 2230.24 L453.83 2233.91 L442.71 2236.69 L415.04 2243.13 L388.25 2249.83 L383.07 2223.67 L380.93 2214.45 L379.79 2209.52 L376.88 2196.89 L376.25 2197.78 L374.61 2198.41 L371.20 2204.22 L360.84 2220.89 L357.43 2226.58 L356.04 2228.85 L354.65 2231.13 L354.02 2232.01 L353.64 2232.39 L353.38 2232.90 L352.50 2233.78 L351.74 2234.67 L350.86 2235.55 L349.85 2236.69 L348.96 2237.82 L347.95 2238.71 L347.19 2239.34 L345.55 2240.60 L343.40 2241.74 L341.13 2242.63 L340.37 2242.75 L338.73 2243.00 L336.20 2242.88 L332.28 2242.12 L328.75 2241.61 L325.84 2241.87 L322.93 2242.25 L321.04 2242.63 L306.64 2266.76 L304.99 2264.48 L299.94 2255.89 L297.92 2251.72 L297.03 2249.57 L296.02 2247.30 L294.76 2245.28 L293.37 2243.64 L286.93 2237.82 L286.80 2235.30 L282.13 2231.25 L281.11 2233.02 L268.86 2223.04 L265.45 2220.39 L266.08 2217.99 L262.29 2217.61 L263.30 2215.59 L263.93 2214.33 L285.41 2175.29 L307.65 2011.05 L336.33 2000.06 L365.26 1995.00 L366.52 1993.99 L367.66 1993.36 L371.20 1989.95 L380.55 1981.61 L382.32 1963.42 L383.07 1958.11 L384.21 1950.15 L385.10 1940.55 L386.11 1928.80 L386.49 1925.14 L387.75 1919.83 L388.25 1913.51 L390.28 1903.28 L393.18 1888.12 L394.45 1882.56 L402.03 1854.77 L411.50 1821.54 L416.56 1804.48 L420.60 1790.46 L423.00 1791.09 L426.41 1790.97 L468.74 1783.01 L507.02 1776.56 L514.22 1775.05 L514.60 1774.16 L515.23 1772.90 L515.86 1772.27 L516.62 1771.64 L518.26 1775.93 L519.27 1778.33 L528.75 1800.82 L542.01 1832.41 L546.56 1843.14 L551.62 1854.89 L557.05 1850.60 L559.32 1848.58 L560.84 1846.93 L562.61 1844.66 L566.90 1837.71 L569.30 1832.28 L570.44 1827.73 L570.95 1825.71 L571.33 1823.31 L571.45 1818.76 L571.45 1812.57 L571.33 1797.54 L571.33 1782.38 L571.20 1765.95 L623.00 1757.36 L620.60 1742.96 L677.20 1733.48 L679.60 1747.76 L736.08 1738.03 L771.83 1732.09 L769.31 1717.56 L845.62 1704.43 L848.27 1719.21 L902.22 1709.86 L989.40 1694.57 L1009.49 1691.16 L1027.05 1688.38 L1029.20 1688.00 L1031.09 1687.62 L1031.98 1687.50 L1032.99 1687.12 L1033.49 1686.99 L1034.00 1686.61 L1036.15 1685.35 L1029.45 1672.21 L1022.25 1658.19 L1014.67 1643.91 L1009.61 1634.18 L1010.75 1633.42 L1011.76 1633.04 L1012.90 1632.67 L1014.41 1632.29 L1025.53 1630.39 L1083.65 1620.66 L1100.71 1617.50 L1112.46 1615.36 L1115.36 1615.99 L1114.10 1626.10 L1114.48 1631.28 L1118.14 1643.53 L1119.28 1648.84 L1120.16 1654.14 L1120.80 1660.59 L1120.92 1665.26 L1120.54 1691.79 L1120.67 1694.44 L1121.55 1700.00 L1123.70 1706.70 L1126.48 1712.89 L1129.51 1717.82 L1137.85 1730.96 L1140.76 1727.92 L1143.54 1724.89 L1148.97 1716.17 L1150.99 1713.02 L1152.00 1709.86 L1153.39 1706.07 L1153.90 1702.78 L1153.01 1696.59 L1147.33 1685.35 L1146.19 1682.06 L1145.69 1679.79 L1145.69 1674.86 L1146.95 1670.69 L1149.98 1665.01 L1154.02 1655.91 L1154.91 1651.74 L1154.66 1647.19 L1152.26 1634.56 L1152.51 1633.04 L1153.64 1631.91 L1155.29 1631.02 L1158.07 1628.88 L1163.50 1628.62 L1165.77 1626.47 L1167.80 1621.93 L1169.56 1619.27 L1172.98 1615.48 L1176.39 1610.30 L1177.40 1608.16 L1177.14 1606.51 L1176.26 1604.11 L1174.74 1601.33 L1172.34 1596.41 L1170.32 1590.59 L1170.20 1589.21 L1170.45 1588.07 L1174.62 1584.40 L1178.28 1578.85 L1179.29 1575.56 L1179.29 1574.30 L1178.28 1570.63 L1176.13 1566.97 L1175.88 1565.20 L1178.28 1547.26 L1179.29 1544.61 L1180.05 1542.97 L1180.43 1541.32 L1180.18 1539.93 L1178.28 1536.90 L1176.89 1535.26 L1176.13 1533.36 L1175.12 1532.23 L1174.49 1530.71 L1174.62 1527.55 L1175.12 1526.29 L1180.81 1521.11 L1182.20 1521.49 L1182.83 1522.25 L1183.71 1522.75 L1184.22 1522.63 L1184.98 1521.36 L1184.85 1519.21 L1185.10 1518.46 L1186.87 1516.81 L1191.93 1515.30 L1196.73 1512.14 L1196.73 1511.51 L1196.10 1509.86 L1194.71 1508.22 L1193.06 1507.34 L1192.05 1507.72 L1189.65 1509.86 L1186.49 1514.29 L1184.73 1515.68 L1182.20 1516.43 L1181.06 1517.70 L1179.04 1519.09 L1176.64 1519.21 L1175.25 1518.71 L1173.35 1518.58 L1172.34 1518.71 L1171.08 1519.47 L1169.69 1520.60 L1168.30 1523.13 L1167.42 1525.91 L1167.04 1529.19 L1167.29 1531.60 L1167.80 1533.24 L1167.54 1538.67 L1168.81 1544.10 L1169.82 1546.88 L1169.94 1549.66 L1169.31 1554.59 L1168.17 1557.62 L1166.78 1558.25 L1165.52 1557.75 L1164.13 1556.86 L1163.63 1556.99 L1162.62 1558.00 L1161.35 1561.03 L1161.10 1563.43 L1162.74 1571.77 L1162.87 1574.42 L1162.62 1576.32 L1159.20 1583.52 L1158.95 1587.69 L1159.33 1589.33 L1160.09 1590.72 L1165.52 1596.28 L1166.15 1598.18 L1166.41 1599.56 L1166.15 1600.83 L1164.64 1602.22 L1160.97 1604.37 L1158.45 1604.74 L1154.28 1603.61 L1150.23 1601.59 L1146.95 1600.83 L1144.30 1598.81 L1140.00 1596.41 L1132.04 1588.07 L1129.39 1586.30 L1126.99 1585.29 L1125.09 1583.52 L1123.70 1581.25 L1121.30 1570.63 L1120.29 1568.61 L1117.26 1564.32 L1116.37 1561.79 L1116.12 1559.39 L1116.75 1549.03 L1117.26 1547.01 L1120.29 1542.59 L1126.10 1536.65 L1130.90 1528.31 L1131.79 1526.67 L1131.91 1523.89 L1131.79 1521.99 L1132.04 1520.98 L1133.94 1518.71 L1137.09 1517.32 L1139.12 1516.81 L1142.02 1517.07 L1144.30 1517.70 L1147.45 1519.59 L1147.96 1519.47 L1148.59 1518.58 L1148.59 1517.95 L1148.09 1516.94 L1144.67 1515.30 L1140.25 1514.54 L1137.60 1515.04 L1132.92 1517.19 L1131.03 1517.57 L1130.02 1516.94 L1127.62 1514.29 L1125.72 1511.00 L1125.22 1509.49 L1124.84 1507.72 L1124.84 1505.82 L1127.11 1502.54 L1127.37 1499.51 L1128.76 1492.56 L1128.76 1491.42 L1128.12 1491.04 L1129.13 1488.39 L1134.31 1487.50 L1149.98 1484.98 L1184.09 1479.42 L1192.94 1477.90 L1203.42 1475.88 L1225.28 1471.71 L1276.83 1461.35 L1302.60 1456.17 L1309.68 1454.66 L1313.09 1454.02 L1320.92 1452.51 L1331.28 1450.61 L1333.94 1449.98 L1345.18 1447.83 L1357.82 1445.31 L1399.00 1437.09 L1403.43 1436.21 L1412.40 1434.44 L1434.89 1430.02 L1447.77 1477.14 L1457.25 1512.01 L1466.72 1546.12 L1470.26 1563.05 L1476.33 1586.80 L1501.22 1678.40 L1514.36 1721.99 L1517.14 1731.34 L1519.54 1740.68 L1519.92 1741.95 L1520.42 1743.21 L1521.43 1745.11 L1504.88 1767.34 L1475.32 1806.89 L1458.13 1830.01 L1439.43 1855.02 L1437.54 1855.78 L1432.11 1862.98 L1424.02 1873.84 L1422.63 1875.61 L1421.62 1877.13 L1406.33 1896.71 L1398.37 1906.82 L1382.33 1926.53 L1368.81 1942.70 L1357.82 1955.21 L1346.32 1968.22 L1345.69 1967.84 L1345.31 1967.71 L1344.68 1967.59 L1344.04 1967.59 L1342.53 1967.84 L1336.72 1968.72 L1323.70 1971.12 L1305.64 1974.41 L1246.51 1985.91 L1188.52 1996.14 L1167.92 1999.93 L1163.12 2000.56 L1145.69 2003.85 L1125.72 2007.51 L1113.21 2009.78 L1100.45 2012.06 L1087.44 2014.46 L1074.05 2017.11 L1061.54 2019.26 L1059.39 2019.64 L1048.78 2021.66 L1035.77 2024.19 L1026.29 2025.83 L1021.24 2026.71 L1008.73 2028.99 L1002.41 2030.25 L995.84 2031.51 L991.92 2032.27 L983.71 2033.66 L981.31 2034.17 L970.32 2036.32 L959.96 2038.21 L957.05 2038.97 L950.36 2040.11 L945.30 2041.12 L939.49 2042.13 L932.54 2043.52 L927.74 2044.40 L919.78 2045.79 L915.49 2046.55 L900.45 2049.33 L893.38 2050.72 L887.31 2051.85 L875.06 2054.13 L862.04 2056.66 L848.52 2059.06 L836.14 2061.46 L824.27 2064.11 L811.38 2067.39 L797.23 2070.93 L770.57 2077.75 L757.05 2081.17 L743.66 2084.58 L730.14 2087.73 L716.87 2090.77 L706.39 2093.42 L694.64 2096.20 L681.12 2099.61 L667.73 2102.90 L654.08 2106.31 L640.69 2109.46 L629.95 2112.24 L627.30 2112.88 L613.90 2116.29 L600.26 2119.45 L586.99 2122.60 L573.35 2126.02 L561.72 2128.79 L580.68 2201.19 L578.53 2202.07 L576.51 2202.07 L575.62 2202.20 L575.87 2203.21 L577.64 2207.12 L578.28 2211.55 L588.13 2272.31 L588.13 2272.31 Z" stroke-linejoin="round"/>
	</defs>
	<use xlink:href="#path_JCvdcZrE" style="fill:#9DC8CA;stroke:#6BB4D2;stroke-width:5.76"/>
	<defs>
		<path id="path_DaEtnEUm" d="M3874.84 2851.83 L3874.84 2851.83 L3874.84 2851.83 L3731.18 2762.38 L3449.18 2673.82 L3435.03 2669.14 L3411.79 2660.42 L3386.01 2652.21 L3340.78 2635.41 L3316.90 2626.57 L3222.14 2594.60 L3141.54 2564.41 L3005.21 2512.61 L2994.60 2508.82 L2976.15 2503.13 L2951.01 2496.19 L2944.57 2495.17 L2932.31 2492.27 L2926.63 2491.38 L2900.22 2488.23 L2880.13 2487.09 L2866.36 2486.46 L2853.47 2486.96 L2848.55 2487.47 L2580.44 2529.03 L2310.57 2572.37 L2282.40 2576.41 L2238.18 2582.60 L2174.25 2590.05 L2097.81 2598.39 L1993.33 2609.26 L1990.04 2609.64 L1986.76 2609.76 L1953.02 2612.16 L1823.77 2625.05 L1796.99 2483.05 L1794.84 2466.87 L1794.21 2464.35 L1793.58 2461.32 L1782.46 2417.22 L1768.81 2367.83 L1742.79 2365.43 L1723.33 2363.53 L1698.06 2361.00 L1693.64 2360.50 L1681.89 2359.36 L1667.99 2357.97 L1665.46 2357.72 L1651.19 2356.20 L1645.88 2355.70 L1636.03 2354.56 L1624.78 2353.30 L1622.25 2352.92 L1621.12 2352.79 L1616.32 2352.03 L1610.25 2350.64 L1605.83 2349.63 L1592.82 2346.47 L1590.67 2349.00 L1588.27 2351.53 L1583.34 2356.08 L1581.95 2357.21 L1580.43 2358.60 L1578.54 2359.99 L1576.39 2361.38 L1574.50 2362.52 L1572.47 2363.66 L1569.82 2365.17 L1567.29 2366.31 L1564.51 2367.45 L1545.82 2350.01 L1548.60 2334.60 L1544.81 2333.46 L1520.93 2326.51 L1493.38 2318.30 L1465.97 2309.96 L1440.45 2302.51 L1418.97 2296.70 L1362.49 2281.28 L1356.93 2279.89 L1352.64 2279.26 L1348.72 2279.01 L1344.17 2279.14 L1338.49 2279.64 L1330.40 2280.40 L1314.35 2247.68 L1328.63 2246.92 L1341.14 2245.78 L1437.79 2238.96 L1452.45 2237.95 L1465.33 2237.07 L1495.78 2234.79 L1529.01 2232.01 L1529.77 2231.51 L1530.15 2230.62 L1530.28 2229.49 L1529.52 2224.18 L1526.99 2211.55 L1520.55 2173.52 L1505.76 2090.89 L1495.03 2031.64 L1468.75 1884.20 L1466.47 1887.11 L1462.81 1882.56 L1450.55 1880.41 L1445.75 1879.66 L1441.08 1878.90 L1437.92 1878.27 L1432.61 1877.26 L1430.08 1878.39 L1426.93 1878.01 L1425.41 1877.76 L1424.40 1877.51 L1421.62 1877.13 L1422.63 1875.61 L1424.02 1873.84 L1432.11 1862.98 L1437.54 1855.78 L1439.43 1855.02 L1458.13 1830.01 L1475.32 1806.89 L1504.88 1767.34 L1521.43 1745.11 L1520.42 1743.21 L1519.92 1741.95 L1519.54 1740.68 L1517.14 1731.34 L1514.36 1721.99 L1501.22 1678.40 L1476.33 1586.80 L1470.26 1563.05 L1466.72 1546.12 L1457.25 1512.01 L1447.77 1477.14 L1434.89 1430.02 L1428.19 1405.13 L1426.42 1398.31 L1424.65 1392.50 L1418.46 1371.65 L1409.49 1340.57 L1408.48 1337.54 L1407.72 1334.38 L1407.09 1331.98 L1406.58 1329.20 L1405.83 1325.29 L1399.89 1289.41 L1399.00 1284.35 L1397.99 1279.80 L1397.36 1276.39 L1396.73 1273.36 L1394.08 1277.53 L1392.43 1279.80 L1389.28 1282.84 L1376.01 1292.18 L1373.36 1294.84 L1353.65 1194.02 L1286.43 1207.92 L1284.41 1202.36 L1276.58 1183.03 L1275.06 1180.50 L1273.92 1179.74 L1273.04 1179.87 L1267.48 1164.71 L1272.28 1159.53 L1274.43 1157.63 L1277.84 1155.11 L1299.45 1144.24 L1319.66 1134.51 L1340.25 1126.43 L1361.10 1119.10 L1391.42 1109.50 L1404.06 1105.20 L1419.98 1098.89 L1433.75 1092.32 L1441.08 1090.68 L1445.12 1090.04 L1449.29 1089.92 L1452.57 1090.17 L1459.65 1091.94 L1464.83 1094.47 L1468.87 1097.37 L1472.41 1100.53 L1475.44 1103.81 L1477.34 1106.59 L1479.74 1110.89 L1482.26 1118.60 L1481.89 1113.16 L1481.89 1110.26 L1482.01 1105.71 L1482.26 1101.67 L1482.52 1098.38 L1482.90 1095.35 L1483.40 1093.08 L1484.16 1089.54 L1485.30 1086.13 L1486.31 1083.10 L1487.19 1081.33 L1488.08 1079.31 L1489.09 1077.66 L1490.35 1075.89 L1492.25 1073.37 L1493.64 1071.98 L1496.16 1069.70 L1491.11 1064.90 L1488.83 1062.88 L1492.63 1061.24 L1505.76 1055.30 L1522.19 1047.34 L1554.53 1031.68 L1559.97 1029.28 L1589.91 1016.01 L1655.10 986.19 L1711.33 960.67 L1784.61 927.45 L1828.83 907.23 L1859.65 893.21 L1951.88 851.39 L1986.63 835.85 L1986.38 834.59 L1985.37 829.91 L1985.11 828.65 L1977.91 797.45 L1973.36 774.07 L1965.91 737.56 L1962.88 723.66 L1956.94 696.63 L1942.54 631.69 L1936.34 601.75 L1922.70 533.78 L1921.31 522.66 L1920.80 513.94 L1920.42 507.37 L1919.29 499.41 L1910.32 458.23 L1884.67 339.34 L1881.13 322.29 L1869.63 269.86 L1869.51 269.23 L1869.13 268.59 L1868.37 267.71 L1876.84 261.77 L1883.41 257.35 L1885.18 256.09 L1893.89 250.91 L1902.61 245.98 L1911.58 241.43 L1920.55 237.26 L1929.77 233.35 L1938.37 230.06 L1946.45 227.28 L1954.16 225.26 L1961.61 223.74 L1968.81 222.61 L1975.89 221.98 L1982.97 221.60 L1990.04 221.72 L1996.99 222.10 L2004.06 222.86 L2011.14 224.00 L2018.09 225.51 L2025.04 227.41 L2027.56 228.17 L2047.78 234.61 L2050.43 235.37 L2057.89 237.52 L2071.41 240.80 L2088.84 244.34 L2094.15 245.35 L2100.72 246.74 L2116.01 249.77 L2156.69 257.86 L2199.52 266.32 L2228.58 271.25 L2252.96 275.29 L2263.32 277.06 L2272.67 278.32 L2276.71 278.70 L2280.13 278.83 L2282.78 278.95 L2285.18 278.95 L2288.84 278.95 L2292.51 278.95 L2296.04 278.58 L2300.72 278.07 L2305.14 277.56 L2308.55 277.06 L2313.23 276.17 L2321.44 274.66 L2334.45 272.01 L2351.26 268.22 L2352.65 267.96 L2370.97 264.05 L2381.58 261.65 L2388.53 260.13 L2401.04 257.48 L2430.98 250.78 L2439.45 248.38 L2447.15 245.60 L2454.10 242.57 L2460.29 239.54 L2466.74 235.87 L2473.56 231.58 L2482.28 225.51 L2503.38 210.10 L2563.51 166.64 L2658.02 98.80 L2709.82 61.40 L2714.50 57.99 L2752.15 30.70 L2755.30 28.30 L2766.42 87.05 L2792.20 219.07 L2793.21 223.24 L2794.47 226.78 L2795.73 229.68 L2797.25 232.21 L2799.02 234.36 L2801.55 237.26 L2803.95 239.41 L2806.22 240.93 L2808.37 241.94 L2810.39 242.57 L2812.92 242.95 L2816.20 242.82 L2831.36 240.17 L2845.64 237.39 L2847.41 237.26 L2848.93 237.64 L2850.19 238.27 L2851.45 239.16 L2852.46 240.55 L2853.22 242.19 L2853.98 244.46 L2854.36 246.23 L2867.12 321.66 L2869.52 334.04 L2868.13 336.69 L2869.39 344.14 L2868.51 347.18 L2866.99 348.44 L2859.79 349.45 L2857.77 350.97 L2771.48 358.67 L2633.64 411.36 L2655.24 532.01 L2665.85 591.51 L2667.12 598.84 L2676.09 649.12 L2689.61 725.18 L2698.96 722.53 L2718.66 717.09 L2730.92 714.19 L2764.15 708.50 L2795.36 703.07 L2847.28 694.48 L2866.11 691.45 L2887.84 687.53 L2932.94 679.70 L2958.21 675.02 L3018.73 665.04 L3023.53 692.96 L3040.21 786.45 L3046.91 823.85 L3052.34 854.30 L3068.64 946.02 L3080.13 1011.21 L3086.20 1045.70 L3087.59 1053.91 L3089.86 1067.05 L3093.02 1085.37 L3116.77 1229.52 L3127.51 1294.59 L3138.88 1363.44 L3140.65 1374.30 L3141.79 1382.01 L3141.03 1387.95 L3143.43 1385.80 L3145.83 1383.91 L3148.23 1382.01 L3154.93 1376.33 L3166.93 1366.72 L3204.71 1341.71 L3217.09 1334.00 L3243.62 1316.95 L3347.22 1249.61 L3337.12 1196.29 L3332.82 1173.81 L3332.44 1169.76 L3333.07 1167.74 L3334.21 1166.35 L3342.17 1161.55 L3356.70 1152.08 L3376.54 1138.68 L3380.83 1136.54 L3381.72 1136.16 L3386.64 1134.77 L3427.71 1125.54 L3450.95 1121.12 L3506.92 1109.50 L3526.00 1105.33 L3529.67 1104.45 L3531.43 1104.32 L3532.44 1104.45 L3533.46 1104.83 L3534.47 1106.09 L3535.48 1110.13 L3539.65 1131.23 L3544.70 1155.99 L3551.14 1154.73 L3564.41 1152.08 L3618.61 1140.33 L3621.90 1140.20 L3622.40 1140.58 L3623.16 1141.97 L3623.67 1143.99 L3627.71 1167.87 L3731.94 1147.53 L3745.59 1143.61 L3753.17 1140.58 L3769.21 1132.75 L3814.32 1109.50 L3850.58 1091.69 L3892.02 1071.60 L3901.12 1120.62 L3906.04 1146.39 L3916.02 1198.57 L3922.22 1230.91 L3937.12 1305.70 L3937.88 1309.62 L3938.77 1314.04 L3954.94 1395.66 L3975.91 1503.67 L3980.46 1526.79 L4001.18 1631.02 L4001.69 1633.55 L4002.95 1639.99 L4003.20 1641.26 L3998.78 1638.60 L3994.74 1636.33 L3989.56 1632.54 L3980.46 1625.21 L3976.29 1621.55 L3957.97 1605.00 L3931.19 1582.13 L3924.11 1576.82 L3919.56 1573.79 L3912.49 1569.50 L3908.06 1567.10 L3903.77 1564.82 L3900.74 1563.43 L3891.39 1559.52 L3887.09 1557.87 L3879.51 1555.60 L3869.15 1553.07 L3862.58 1551.81 L3850.83 1550.17 L3841.73 1549.16 L3830.87 1548.40 L3816.84 1547.89 L3801.30 1547.89 L3764.79 1548.65 L3745.21 1549.16 L3729.16 1549.79 L3729.79 1552.95 L3739.27 1601.84 L3740.66 1609.55 L3747.23 1641.76 L3765.80 1731.84 L3781.97 1808.53 L3792.84 1860.33 L3798.40 1886.60 L3819.75 1988.31 L3823.16 2004.60 L3835.29 2062.72 L3852.60 2144.59 L3807.24 2115.91 L3743.31 2063.35 L3742.68 2063.10 L3695.81 2044.53 L3675.47 2042.00 L3667.63 2040.99 L3647.92 2044.15 L3638.32 2051.48 L3623.67 2069.54 L3634.40 2094.81 L3746.98 2145.85 L3819.12 2547.10 L3827.46 2594.60 L3827.71 2596.24 L3828.47 2600.29 L3830.49 2610.65 L3830.24 2613.17 L3830.62 2616.96 L3832.38 2623.03 L3833.40 2626.31 L3839.59 2657.39 L3839.84 2660.30 L3844.39 2686.96 L3845.65 2694.16 L3874.84 2851.83 L3874.84 2851.83 Z" stroke-linejoin="round"/>
	</defs>
	<use xlink:href="#path_DaEtnEUm" style="fill:#9DC8CA;stroke:#6BB4D2;stroke-width:5.76"/>
	<defs>
		<path id="path_aSQxHcHH" d="M307.65 2011.05 L307.65 2011.05 L320.03 1921.60 L359.95 1631.02 L350.98 1591.10 L347.07 1577.83 L340.88 1559.52 L340.24 1557.87 L339.99 1557.12 L337.46 1551.81 L311.94 1498.37 L292.23 1454.78 L272.78 1424.08 L249.15 1397.93 L227.29 1374.56 L39.55 1244.93 L128.62 1125.29 L211.75 1013.48 L267.98 976.47 L314.60 878.68 L336.83 797.32 L357.05 796.31 L388.51 795.17 L390.28 794.16 L392.68 792.77 L397.10 789.74 L402.66 785.19 L404.93 784.18 L424.39 776.73 L434.88 777.10 L439.42 776.60 L443.34 777.10 L445.61 778.12 L458.88 777.74 L474.04 752.09 L472.40 744.64 L474.42 738.19 L478.08 734.40 L483.01 732.25 L485.79 729.35 L491.73 725.81 L491.86 717.73 L498.81 709.39 L501.96 705.34 L504.24 699.03 L505.38 696.00 L529.76 691.70 L530.26 675.91 L526.35 671.61 L537.59 662.26 L533.04 649.76 L531.53 649.38 L529.63 649.50 L528.50 649.76 L526.73 650.64 L531.78 642.05 L536.08 641.92 L538.10 641.80 L545.68 642.68 L562.61 640.41 L575.62 638.51 L577.52 638.26 L582.44 637.50 L584.34 637.25 L586.24 636.87 L610.87 633.33 L624.14 631.31 L640.06 628.91 L645.87 627.39 L648.90 634.97 L649.79 638.13 L655.22 635.73 L665.58 631.31 L672.65 628.15 L702.34 615.39 L756.93 606.67 L798.87 599.85 L826.92 595.30 L852.95 591.14 L858.38 590.63 L885.42 585.83 L893.76 583.81 L895.02 584.19 L895.52 580.52 L896.79 576.73 L899.69 571.30 L903.61 565.87 L907.78 562.08 L919.28 553.74 L920.54 528.60 L921.93 528.35 L923.32 527.21 L906.64 479.83 L908.29 478.57 L916.75 491.96 L923.95 503.96 L931.91 517.35 L933.68 519.63 L935.45 519.63 L937.09 518.24 L936.33 516.09 L919.66 479.20 L901.34 440.41 L897.55 431.70 L896.16 428.29 L895.15 424.87 L893.76 420.20 L892.62 415.78 L891.99 413.00 L891.36 409.46 L890.72 405.29 L889.97 398.34 L889.71 394.43 L889.59 387.10 L889.46 385.84 L889.59 383.94 L889.46 381.92 L889.33 379.77 L889.46 378.89 L889.71 378.00 L890.09 377.25 L890.72 376.11 L891.23 375.35 L891.86 374.72 L892.49 374.09 L893.25 373.71 L894.13 373.20 L895.65 372.70 L897.29 372.57 L898.81 372.32 L900.70 371.81 L902.60 371.56 L909.55 407.31 L916.37 439.66 L922.06 458.73 L928.63 474.78 L937.09 494.87 L958.82 539.84 L976.89 576.99 L992.81 610.72 L995.59 617.29 L1012.77 653.80 L1024.14 681.09 L1027.68 680.58 L1028.44 680.46 L1031.60 679.95 L1064.70 674.39 L1234.38 646.60 L1249.16 646.09 L1300.84 635.73 L1341.90 629.79 L1343.03 630.81 L1352.51 618.93 L1359.21 610.21 L1365.52 602.00 L1370.96 594.67 L1382.58 579.26 L1382.71 578.12 L1385.49 574.59 L1399.89 556.27 L1403.55 551.59 L1409.74 544.14 L1415.43 537.95 L1421.11 532.64 L1423.14 530.75 L1426.42 527.84 L1431.73 523.54 L1437.29 519.63 L1442.97 515.84 L1444.24 515.08 L1446.26 513.94 L1448.78 512.43 L1452.70 510.41 L1455.35 509.14 L1464.20 505.23 L1464.70 505.10 L1467.36 504.09 L1476.20 500.55 L1503.49 489.69 L1530.28 479.07 L1541.52 475.03 L1554.91 470.74 L1585.36 461.64 L1620.23 451.53 L1646.76 443.83 L1660.03 439.78 L1666.35 437.63 L1673.17 434.73 L1679.61 431.70 L1685.30 428.66 L1688.08 427.02 L1691.49 424.87 L1697.55 420.83 L1703.24 416.54 L1708.55 411.99 L1713.85 407.06 L1722.32 398.72 L1740.51 380.15 L1746.70 373.96 L1770.33 349.96 L1773.87 346.42 L1780.06 340.10 L1791.68 328.35 L1797.37 323.05 L1802.29 318.88 L1814.55 309.15 L1822.51 303.08 L1835.40 293.10 L1842.47 287.55 L1854.09 278.58 L1868.37 267.71 L1869.13 268.59 L1869.51 269.23 L1869.63 269.86 L1881.13 322.29 L1884.67 339.34 L1910.32 458.23 L1919.29 499.41 L1920.42 507.37 L1920.80 513.94 L1921.31 522.66 L1922.70 533.78 L1936.34 601.75 L1942.54 631.69 L1956.94 696.63 L1962.88 723.66 L1965.91 737.56 L1973.36 774.07 L1977.91 797.45 L1985.11 828.65 L1985.37 829.91 L1986.38 834.59 L1986.63 835.85 L1951.88 851.39 L1859.65 893.21 L1828.83 907.23 L1784.61 927.45 L1711.33 960.67 L1655.10 986.19 L1589.91 1016.01 L1559.97 1029.28 L1554.53 1031.68 L1522.19 1047.34 L1505.76 1055.30 L1492.63 1061.24 L1488.83 1062.88 L1491.11 1064.90 L1496.16 1069.70 L1493.64 1071.98 L1492.25 1073.37 L1490.35 1075.89 L1489.09 1077.66 L1488.08 1079.31 L1487.19 1081.33 L1486.31 1083.10 L1485.30 1086.13 L1484.16 1089.54 L1483.40 1093.08 L1482.90 1095.35 L1482.52 1098.38 L1482.26 1101.67 L1482.01 1105.71 L1481.89 1110.26 L1481.89 1113.16 L1482.26 1118.60 L1479.74 1110.89 L1477.34 1106.59 L1475.44 1103.81 L1472.41 1100.53 L1468.87 1097.37 L1464.83 1094.47 L1459.65 1091.94 L1452.57 1090.17 L1449.29 1089.92 L1445.12 1090.04 L1441.08 1090.68 L1433.75 1092.32 L1419.98 1098.89 L1404.06 1105.20 L1391.42 1109.50 L1361.10 1119.10 L1340.25 1126.43 L1319.66 1134.51 L1299.45 1144.24 L1277.84 1155.11 L1274.43 1157.63 L1272.28 1159.53 L1267.48 1164.71 L1273.04 1179.87 L1273.92 1179.74 L1275.06 1180.50 L1276.58 1183.03 L1284.41 1202.36 L1286.43 1207.92 L1353.65 1194.02 L1373.36 1294.84 L1376.01 1292.18 L1389.28 1282.84 L1392.43 1279.80 L1394.08 1277.53 L1396.73 1273.36 L1397.36 1276.39 L1397.99 1279.80 L1399.00 1284.35 L1399.89 1289.41 L1405.83 1325.29 L1406.58 1329.20 L1407.09 1331.98 L1407.72 1334.38 L1408.48 1337.54 L1409.49 1340.57 L1418.46 1371.65 L1424.65 1392.50 L1426.42 1398.31 L1428.19 1405.13 L1434.89 1430.02 L1412.40 1434.44 L1403.43 1436.21 L1399.00 1437.09 L1357.82 1445.31 L1345.18 1447.83 L1333.94 1449.98 L1331.28 1450.61 L1320.92 1452.51 L1313.09 1454.02 L1309.68 1454.66 L1302.60 1456.17 L1276.83 1461.35 L1225.28 1471.71 L1203.42 1475.88 L1192.94 1477.90 L1184.09 1479.42 L1149.98 1484.98 L1134.31 1487.50 L1129.13 1488.39 L1128.12 1491.04 L1128.76 1491.42 L1128.76 1492.56 L1127.37 1499.51 L1127.11 1502.54 L1124.84 1505.82 L1124.84 1507.72 L1125.22 1509.49 L1125.72 1511.00 L1127.62 1514.29 L1130.02 1516.94 L1131.03 1517.57 L1132.92 1517.19 L1137.60 1515.04 L1140.25 1514.54 L1144.67 1515.30 L1148.09 1516.94 L1148.59 1517.95 L1148.59 1518.58 L1147.96 1519.47 L1147.45 1519.59 L1144.30 1517.70 L1142.02 1517.07 L1139.12 1516.81 L1137.09 1517.32 L1133.94 1518.71 L1132.04 1520.98 L1131.79 1521.99 L1131.91 1523.89 L1131.79 1526.67 L1130.90 1528.31 L1126.10 1536.65 L1120.29 1542.59 L1117.26 1547.01 L1116.75 1549.03 L1116.12 1559.39 L1116.37 1561.79 L1117.26 1564.32 L1120.29 1568.61 L1121.30 1570.63 L1123.70 1581.25 L1125.09 1583.52 L1126.99 1585.29 L1129.39 1586.30 L1132.04 1588.07 L1140.00 1596.41 L1144.30 1598.81 L1146.95 1600.83 L1150.23 1601.59 L1154.28 1603.61 L1158.45 1604.74 L1160.97 1604.37 L1164.64 1602.22 L1166.15 1600.83 L1166.41 1599.56 L1166.15 1598.18 L1165.52 1596.28 L1160.09 1590.72 L1159.33 1589.33 L1158.95 1587.69 L1159.20 1583.52 L1162.62 1576.32 L1162.87 1574.42 L1162.74 1571.77 L1161.10 1563.43 L1161.35 1561.03 L1162.62 1558.00 L1163.63 1556.99 L1164.13 1556.86 L1165.52 1557.75 L1166.78 1558.25 L1168.17 1557.62 L1169.31 1554.59 L1169.94 1549.66 L1169.82 1546.88 L1168.81 1544.10 L1167.54 1538.67 L1167.80 1533.24 L1167.29 1531.60 L1167.04 1529.19 L1167.42 1525.91 L1168.30 1523.13 L1169.69 1520.60 L1171.08 1519.47 L1172.34 1518.71 L1173.35 1518.58 L1175.25 1518.71 L1176.64 1519.21 L1179.04 1519.09 L1181.06 1517.70 L1182.20 1516.43 L1184.73 1515.68 L1186.49 1514.29 L1189.65 1509.86 L1192.05 1507.72 L1193.06 1507.34 L1194.71 1508.22 L1196.10 1509.86 L1196.73 1511.51 L1196.73 1512.14 L1191.93 1515.30 L1186.87 1516.81 L1185.10 1518.46 L1184.85 1519.21 L1184.98 1521.36 L1184.22 1522.63 L1183.71 1522.75 L1182.83 1522.25 L1182.20 1521.49 L1180.81 1521.11 L1175.12 1526.29 L1174.62 1527.55 L1174.49 1530.71 L1175.12 1532.23 L1176.13 1533.36 L1176.89 1535.26 L1178.28 1536.90 L1180.18 1539.93 L1180.43 1541.32 L1180.05 1542.97 L1179.29 1544.61 L1178.28 1547.26 L1175.88 1565.20 L1176.13 1566.97 L1178.28 1570.63 L1179.29 1574.30 L1179.29 1575.56 L1178.28 1578.85 L1174.62 1584.40 L1170.45 1588.07 L1170.20 1589.21 L1170.32 1590.59 L1172.34 1596.41 L1174.74 1601.33 L1176.26 1604.11 L1177.14 1606.51 L1177.40 1608.16 L1176.39 1610.30 L1172.98 1615.48 L1169.56 1619.27 L1167.80 1621.93 L1165.77 1626.47 L1163.50 1628.62 L1158.07 1628.88 L1155.29 1631.02 L1153.64 1631.91 L1152.51 1633.04 L1152.26 1634.56 L1154.66 1647.19 L1154.91 1651.74 L1154.02 1655.91 L1149.98 1665.01 L1146.95 1670.69 L1145.69 1674.86 L1145.69 1679.79 L1146.19 1682.06 L1147.33 1685.35 L1153.01 1696.59 L1153.90 1702.78 L1153.39 1706.07 L1152.00 1709.86 L1150.99 1713.02 L1148.97 1716.17 L1143.54 1724.89 L1140.76 1727.92 L1137.85 1730.96 L1129.51 1717.82 L1126.48 1712.89 L1123.70 1706.70 L1121.55 1700.00 L1120.67 1694.44 L1120.54 1691.79 L1120.92 1665.26 L1120.80 1660.59 L1120.16 1654.14 L1119.28 1648.84 L1118.14 1643.53 L1114.48 1631.28 L1114.10 1626.10 L1115.36 1615.99 L1112.46 1615.36 L1100.71 1617.50 L1083.65 1620.66 L1025.53 1630.39 L1014.41 1632.29 L1012.90 1632.67 L1011.76 1633.04 L1010.75 1633.42 L1009.61 1634.18 L1014.67 1643.91 L1022.25 1658.19 L1029.45 1672.21 L1036.15 1685.35 L1034.00 1686.61 L1033.49 1686.99 L1032.99 1687.12 L1031.98 1687.50 L1031.09 1687.62 L1029.20 1688.00 L1027.05 1688.38 L1009.49 1691.16 L989.40 1694.57 L902.22 1709.86 L848.27 1719.21 L845.62 1704.43 L769.31 1717.56 L771.83 1732.09 L736.08 1738.03 L679.60 1747.76 L677.20 1733.48 L620.60 1742.96 L623.00 1757.36 L571.20 1765.95 L571.33 1782.38 L571.33 1797.54 L571.45 1812.57 L571.45 1818.76 L571.33 1823.31 L570.95 1825.71 L570.44 1827.73 L569.30 1832.28 L566.90 1837.71 L562.61 1844.66 L560.84 1846.93 L559.32 1848.58 L557.05 1850.60 L551.62 1854.89 L546.56 1843.14 L542.01 1832.41 L528.75 1800.82 L519.27 1778.33 L518.26 1775.93 L516.62 1771.64 L515.86 1772.27 L515.23 1772.90 L514.60 1774.16 L514.22 1775.05 L507.02 1776.56 L468.74 1783.01 L426.41 1790.97 L423.00 1791.09 L420.60 1790.46 L416.56 1804.48 L411.50 1821.54 L402.03 1854.77 L394.45 1882.56 L393.18 1888.12 L390.28 1903.28 L388.25 1913.51 L387.75 1919.83 L386.49 1925.14 L386.11 1928.80 L385.10 1940.55 L384.21 1950.15 L383.07 1958.11 L382.32 1963.42 L380.55 1981.61 L371.20 1989.95 L367.66 1993.36 L366.52 1993.99 L365.26 1995.00 L336.33 2000.06 L307.65 2011.05 L307.65 2011.05 Z" stroke-linejoin="round"/>
	</defs>
	<use xlink:href="#path_aSQxHcHH" style="fill:#6BACAF;stroke:#097D9B;stroke-width:5.76"/>
	<defs>
		<path id="path_tUlYUEjJ" d="M1398.25 2745.32 L1398.25 2745.32 L1232.10 2735.34 L1192.81 2731.81 L1102.22 2723.72 L948.46 2709.95 L891.36 2703.88 L820.60 2696.30 L502.47 2665.35 L184.46 2634.27 L138.35 2524.86 L260.65 2221.15 L261.15 2219.76 L262.29 2217.61 L266.08 2217.99 L265.45 2220.39 L268.86 2223.04 L281.11 2233.02 L282.13 2231.25 L286.80 2235.30 L286.93 2237.82 L293.37 2243.64 L294.76 2245.28 L296.02 2247.30 L297.03 2249.57 L297.92 2251.72 L299.94 2255.89 L304.99 2264.48 L306.64 2266.76 L321.04 2242.63 L322.93 2242.25 L325.84 2241.87 L328.75 2241.61 L332.28 2242.12 L336.20 2242.88 L338.73 2243.00 L340.37 2242.75 L341.13 2242.63 L343.40 2241.74 L345.55 2240.60 L347.19 2239.34 L347.95 2238.71 L348.96 2237.82 L349.85 2236.69 L350.86 2235.55 L351.74 2234.67 L352.50 2233.78 L353.38 2232.90 L353.64 2232.39 L354.02 2232.01 L354.65 2231.13 L356.04 2228.85 L357.43 2226.58 L360.84 2220.89 L371.20 2204.22 L374.61 2198.41 L376.25 2197.78 L376.88 2196.89 L379.79 2209.52 L380.93 2214.45 L383.07 2223.67 L388.25 2249.83 L415.04 2243.13 L442.71 2236.69 L453.83 2233.91 L469.24 2230.24 L479.98 2227.21 L483.64 2226.07 L494.13 2222.79 L495.77 2222.28 L505.12 2220.01 L509.17 2219.00 L522.68 2215.72 L536.20 2212.43 L549.72 2209.02 L558.82 2206.75 L566.27 2204.98 L570.19 2203.71 L571.45 2203.33 L573.22 2202.83 L573.60 2204.22 L574.11 2205.73 L572.59 2206.49 L571.07 2207.00 L567.54 2208.39 L564.50 2209.52 L559.96 2210.66 L550.61 2213.19 L557.05 2242.37 L565.39 2277.87 L588.13 2272.31 L578.28 2211.55 L577.64 2207.12 L575.87 2203.21 L575.62 2202.20 L576.51 2202.07 L578.53 2202.07 L580.68 2201.19 L561.72 2128.79 L573.35 2126.02 L586.99 2122.60 L600.26 2119.45 L613.90 2116.29 L627.30 2112.88 L629.95 2112.24 L640.69 2109.46 L654.08 2106.31 L667.73 2102.90 L681.12 2099.61 L694.64 2096.20 L706.39 2093.42 L716.87 2090.77 L730.14 2087.73 L743.66 2084.58 L757.05 2081.17 L770.57 2077.75 L797.23 2070.93 L811.38 2067.39 L824.27 2064.11 L836.14 2061.46 L848.52 2059.06 L862.04 2056.66 L875.06 2054.13 L887.31 2051.85 L893.38 2050.72 L900.45 2049.33 L915.49 2046.55 L919.78 2045.79 L927.74 2044.40 L932.54 2043.52 L939.49 2042.13 L945.30 2041.12 L950.36 2040.11 L957.05 2038.97 L959.96 2038.21 L970.32 2036.32 L981.31 2034.17 L983.71 2033.66 L991.92 2032.27 L995.84 2031.51 L1002.41 2030.25 L1008.73 2028.99 L1021.24 2026.71 L1026.29 2025.83 L1035.77 2024.19 L1048.78 2021.66 L1059.39 2019.64 L1061.54 2019.26 L1074.05 2017.11 L1087.44 2014.46 L1100.45 2012.06 L1113.21 2009.78 L1125.72 2007.51 L1145.69 2003.85 L1163.12 2000.56 L1167.92 1999.93 L1188.52 1996.14 L1246.51 1985.91 L1305.64 1974.41 L1323.70 1971.12 L1336.72 1968.72 L1342.53 1967.84 L1344.04 1967.59 L1344.68 1967.59 L1345.31 1967.71 L1345.69 1967.84 L1346.32 1968.22 L1357.82 1955.21 L1368.81 1942.70 L1382.33 1926.53 L1398.37 1906.82 L1406.33 1896.71 L1421.62 1877.13 L1424.40 1877.51 L1425.41 1877.76 L1426.93 1878.01 L1430.08 1878.39 L1432.61 1877.26 L1437.92 1878.27 L1441.08 1878.90 L1445.75 1879.66 L1450.55 1880.41 L1462.81 1882.56 L1466.47 1887.11 L1468.75 1884.20 L1495.03 2031.64 L1505.76 2090.89 L1520.55 2173.52 L1526.99 2211.55 L1529.52 2224.18 L1530.28 2229.49 L1530.15 2230.62 L1529.77 2231.51 L1529.01 2232.01 L1495.78 2234.79 L1465.33 2237.07 L1452.45 2237.95 L1437.79 2238.96 L1341.14 2245.78 L1328.63 2246.92 L1314.35 2247.68 L1330.40 2280.40 L1338.49 2279.64 L1344.17 2279.14 L1348.72 2279.01 L1352.64 2279.26 L1356.93 2279.89 L1362.49 2281.28 L1418.97 2296.70 L1440.45 2302.51 L1465.97 2309.96 L1493.38 2318.30 L1520.93 2326.51 L1544.81 2333.46 L1548.60 2334.60 L1545.82 2350.01 L1564.51 2367.45 L1567.29 2366.31 L1569.82 2365.17 L1572.47 2363.66 L1574.50 2362.52 L1576.39 2361.38 L1578.54 2359.99 L1580.43 2358.60 L1581.95 2357.21 L1583.34 2356.08 L1588.27 2351.53 L1590.67 2349.00 L1592.82 2346.47 L1605.83 2349.63 L1610.25 2350.64 L1616.32 2352.03 L1621.12 2352.79 L1622.25 2352.92 L1624.78 2353.30 L1636.03 2354.56 L1645.88 2355.70 L1651.19 2356.20 L1665.46 2357.72 L1667.99 2357.97 L1681.89 2359.36 L1693.64 2360.50 L1698.06 2361.00 L1723.33 2363.53 L1742.79 2365.43 L1768.81 2367.83 L1782.46 2417.22 L1793.58 2461.32 L1794.21 2464.35 L1794.84 2466.87 L1796.99 2483.05 L1823.77 2625.05 L1798.76 2627.32 L1642.97 2649.69 L1637.54 2650.95 L1606.33 2656.63 L1591.17 2661.94 L1552.01 2675.46 L1535.33 2681.40 L1509.81 2692.14 L1477.84 2707.42 L1471.02 2711.72 L1458.13 2718.03 L1398.25 2745.32 L1398.25 2745.32 Z" stroke-linejoin="round"/>
	</defs>
	<use xlink:href="#path_tUlYUEjJ" style="fill:#09757A;stroke:#00465F;stroke-width:5.76"/>
</svg>
