<?xml version="1.0" encoding="UTF-8" standalone="no"?>
<!-- This is a Stata 16.1 generated SVG file (http://www.stata.com) -->

<svg version="1.1" width="5.47in" height="4.00in" viewBox="0 0 3935 2880" xmlns="http://www.w3.org/2000/svg" xmlns:xlink="http://www.w3.org/1999/xlink">
	<desc>Stata Graph - Graph</desc>
	<rect x="0" y="0" width="3935" height="2880" style="fill:#FFFFFF;stroke:none"/>
	<defs>
		<path id="path_aKWovODH" d="M393.01 2439.97 L393.01 2439.97 L392.15 2440.95 L390.79 2443.78 L388.95 2448.09 L386.98 2451.16 L384.15 2454.85 L382.92 2456.45 L382.31 2456.82 L380.34 2458.17 L377.27 2459.40 L372.60 2461.00 L367.92 2461.86 L365.09 2462.48 L360.79 2462.60 L358.45 2462.48 L356.49 2461.86 L355.01 2460.75 L354.40 2460.14 L354.03 2459.77 L353.17 2458.29 L353.04 2457.68 L352.92 2456.82 L352.80 2454.11 L352.31 2451.41 L351.69 2448.33 L350.58 2444.77 L349.72 2441.69 L348.37 2438.86 L347.39 2437.39 L345.67 2434.93 L342.84 2433.21 L337.30 2430.13 L333.74 2428.29 L330.66 2426.32 L328.33 2424.84 L327.10 2424.35 L325.50 2423.00 L323.65 2421.03 L321.07 2416.85 L320.58 2413.65 L320.33 2410.08 L320.33 2406.89 L320.46 2403.44 L319.96 2399.51 L319.35 2396.93 L318.98 2396.06 L318.74 2395.57 L317.87 2394.47 L316.40 2392.74 L315.29 2390.90 L313.94 2388.93 L313.32 2387.82 L312.71 2387.21 L312.34 2386.84 L309.76 2385.00 L307.67 2383.89 L307.30 2383.64 L306.93 2383.52 L305.33 2382.66 L302.50 2381.43 L297.95 2380.57 L296.23 2380.45 L295.00 2380.69 L293.53 2380.94 L291.56 2381.55 L288.61 2383.03 L286.27 2383.89 L283.44 2384.14 L280.25 2383.77 L277.91 2382.91 L277.54 2382.66 L277.29 2382.17 L276.68 2380.45 L273.85 2373.44 L269.92 2367.90 L266.97 2365.07 L264.14 2362.49 L261.55 2362.37 L258.85 2362.24 L254.91 2363.11 L252.45 2364.70 L247.91 2367.78 L242.62 2369.87 L237.08 2373.93 L234.26 2375.65 L231.55 2376.26 L228.72 2376.51 L226.26 2375.77 L223.56 2374.54 L221.47 2372.57 L216.92 2368.64 L213.84 2365.44 L209.29 2357.33 L205.11 2352.04 L201.42 2349.70 L198.84 2348.72 L195.77 2347.86 L195.27 2347.73 L194.91 2347.49 L193.06 2346.13 L192.45 2345.76 L192.08 2345.64 L190.60 2345.89 L190.23 2345.89 L189.86 2346.13 L185.81 2348.72 L185.31 2348.96 L185.07 2349.09 L181.75 2349.70 L178.67 2349.70 L176.21 2349.21 L173.14 2348.47 L170.80 2347.49 L166.38 2345.52 L163.06 2343.43 L159.98 2341.21 L156.17 2337.28 L154.57 2335.68 L154.20 2335.31 L153.96 2335.07 L153.71 2334.70 L153.22 2334.20 L152.97 2333.84 L152.73 2334.94 L151.01 2339.62 L149.78 2342.57 L146.33 2349.82 L145.10 2352.77 L144.49 2354.13 L143.01 2357.57 L142.27 2356.96 L141.91 2356.46 L139.82 2354.62 L137.97 2352.90 L137.48 2352.53 L136.37 2350.07 L134.16 2349.21 L131.82 2347.61 L130.47 2347.12 L130.72 2345.76 L130.72 2345.40 L130.59 2343.43 L130.10 2341.34 L125.31 2331.87 L123.58 2328.55 L119.03 2318.71 L118.17 2316.37 L118.30 2314.16 L118.54 2313.30 L118.66 2312.68 L118.54 2311.33 L118.17 2310.59 L116.57 2309.73 L114.85 2308.38 L113.13 2306.78 L112.02 2305.67 L111.90 2305.18 L111.53 2304.32 L111.29 2303.46 L110.79 2302.11 L110.06 2301.49 L104.65 2297.80 L104.15 2297.56 L102.80 2297.06 L102.31 2296.82 L101.45 2295.71 L99.24 2293.62 L97.02 2290.42 L93.95 2285.26 L92.96 2282.31 L91.00 2280.58 L87.80 2277.02 L86.45 2275.54 L85.71 2274.80 L85.34 2274.31 L84.97 2273.94 L82.02 2270.87 L77.72 2268.78 L72.92 2265.70 L72.55 2265.33 L72.31 2265.09 L70.95 2263.61 L68.25 2260.78 L64.80 2256.11 L58.16 2246.76 L56.20 2243.20 L54.23 2239.26 L52.88 2235.57 L51.40 2232.13 L51.28 2231.39 L51.28 2230.53 L51.52 2228.81 L52.26 2219.34 L52.63 2215.16 L52.02 2207.53 L50.66 2198.19 L50.05 2194.50 L49.93 2193.88 L49.68 2192.77 L49.68 2192.16 L49.56 2191.54 L48.94 2190.44 L49.31 2189.45 L48.20 2187.36 L46.24 2182.69 L44.64 2178.26 L42.55 2172.48 L41.07 2169.16 L40.46 2167.69 L39.47 2166.09 L38.49 2164.24 L39.10 2159.57 L39.72 2143.21 L42.42 2143.34 L43.78 2143.34 L43.90 2142.60 L44.15 2141.86 L44.76 2139.28 L49.80 2119.60 L50.42 2117.26 L50.79 2115.66 L51.40 2113.33 L51.52 2112.47 L51.52 2111.24 L51.52 2110.01 L51.40 2108.90 L51.16 2106.81 L50.91 2104.23 L52.02 2103.37 L52.38 2102.01 L54.72 2103.74 L56.44 2103.74 L60.50 2103.74 L62.47 2103.86 L65.67 2103.86 L67.51 2103.98 L66.53 2102.63 L57.30 2091.93 L57.30 2089.72 L56.07 2086.76 L59.27 2075.20 L60.38 2070.90 L61.24 2067.09 L61.36 2065.86 L67.63 2040.03 L87.68 2044.58 L97.27 2046.92 L98.99 2047.16 L101.70 2046.43 L103.17 2046.92 L103.54 2046.92 L104.28 2044.46 L106.12 2037.20 L106.74 2036.59 L107.11 2035.11 L110.55 2022.20 L111.53 2018.63 L111.41 2017.65 L114.61 2006.21 L115.59 2002.40 L115.96 2000.43 L115.96 1999.20 L115.84 1998.83 L115.71 1998.46 L115.47 1998.09 L115.22 1997.85 L114.24 1996.86 L97.15 1992.56 L86.20 1989.98 L83.25 1989.24 L80.79 1988.62 L80.91 1987.89 L81.28 1987.39 L83.99 1977.19 L86.45 1967.23 L91.73 1945.70 L91.98 1944.72 L92.72 1941.03 L98.87 1942.51 L99.85 1938.82 L98.87 1938.57 L98.13 1938.32 L95.42 1937.59 L96.04 1935.62 L97.39 1930.08 L98.01 1927.62 L98.38 1926.15 L98.62 1923.81 L98.99 1918.89 L99.48 1912.99 L99.48 1911.51 L99.11 1908.56 L103.29 1907.33 L104.15 1907.09 L104.65 1906.84 L105.75 1906.59 L107.84 1905.98 L108.21 1897.99 L106.86 1893.07 L111.90 1872.65 L110.43 1869.33 L109.44 1866.99 L106.49 1864.29 L107.72 1861.95 L108.83 1859.74 L108.83 1859.12 L108.83 1858.39 L112.02 1856.91 L120.26 1853.71 L121.00 1853.34 L121.62 1850.76 L126.04 1832.81 L128.01 1824.69 L128.26 1823.70 L131.45 1825.06 L132.56 1824.93 L133.54 1824.57 L134.40 1824.07 L135.27 1823.34 L136.13 1822.35 L136.74 1821.49 L138.22 1816.45 L138.34 1815.47 L139.57 1808.95 L140.31 1806.49 L142.77 1798.74 L144.12 1797.76 L150.14 1785.58 L143.26 1778.20 L153.34 1780.91 L157.40 1781.77 L159.49 1781.64 L164.53 1782.38 L165.52 1782.75 L166.25 1782.87 L177.07 1781.77 L177.57 1780.05 L178.80 1780.29 L181.13 1771.19 L183.10 1763.07 L183.22 1762.58 L182.12 1761.84 L181.50 1761.11 L180.89 1759.88 L184.45 1756.06 L184.94 1753.48 L185.19 1752.50 L185.56 1751.15 L186.17 1749.79 L187.90 1746.47 L188.51 1743.52 L188.76 1746.84 L189.99 1749.55 L193.55 1757.42 L196.87 1758.16 L202.16 1753.24 L220.48 1758.03 L225.40 1739.09 L230.81 1718.31 L231.30 1715.60 L237.82 1689.41 L271.76 1692.48 L320.83 1704.78 L300.90 1733.93 L297.22 1747.33 L283.57 1803.41 L296.35 1805.01 L302.63 1805.87 L311.85 1807.96 L316.89 1808.46 L333.37 1809.68 L335.46 1809.93 L340.75 1810.42 L350.71 1811.53 L355.87 1812.14 L360.79 1812.02 L371.00 1814.24 L370.75 1816.33 L370.38 1818.91 L369.77 1824.57 L380.71 1827.39 L401.37 1817.68 L400.51 1820.26 L399.89 1821.86 L398.42 1824.57 L396.82 1827.15 L393.75 1831.45 L392.52 1833.17 L388.58 1837.72 L385.02 1841.05 L384.28 1841.66 L381.20 1844.12 L379.36 1845.47 L378.74 1845.96 L375.79 1848.18 L374.81 1849.04 L369.03 1853.22 L367.06 1854.57 L366.57 1854.94 L365.71 1855.56 L364.73 1855.31 L363.37 1854.94 L358.82 1854.08 L357.96 1854.33 L351.57 1852.48 L349.85 1851.25 L348.74 1855.43 L347.88 1858.75 L346.65 1862.69 L348.00 1864.29 L348.49 1864.90 L349.48 1866.01 L349.97 1866.63 L350.71 1867.49 L351.44 1868.35 L353.41 1866.50 L354.03 1865.76 L365.09 1856.91 L365.83 1856.66 L366.20 1856.42 L366.57 1856.30 L366.94 1855.80 L371.00 1852.97 L371.61 1852.48 L372.23 1851.99 L375.18 1850.15 L376.28 1849.29 L379.97 1846.21 L380.22 1845.96 L381.69 1844.98 L382.06 1844.61 L383.05 1843.87 L384.28 1842.89 L384.89 1842.28 L385.14 1842.03 L385.63 1841.66 L389.32 1838.22 L393.25 1833.67 L394.61 1831.94 L397.68 1827.76 L399.40 1825.06 L400.88 1822.23 L401.49 1820.63 L402.11 1818.91 L402.35 1817.92 L402.72 1817.31 L402.72 1817.06 L403.09 1816.33 L403.71 1814.60 L404.20 1813.13 L404.44 1812.39 L404.69 1811.78 L405.31 1810.05 L405.67 1809.19 L405.92 1809.32 L408.50 1810.18 L409.85 1811.16 L411.21 1811.53 L415.02 1812.51 L417.60 1812.64 L420.55 1813.25 L423.14 1813.13 L424.98 1813.37 L427.19 1813.62 L429.65 1813.50 L432.36 1812.76 L433.34 1812.88 L434.33 1812.76 L435.06 1812.64 L438.14 1814.60 L439.86 1815.22 L440.72 1816.33 L440.97 1818.54 L440.84 1819.52 L440.35 1820.88 L439.98 1821.49 L439.00 1822.97 L437.52 1825.18 L436.91 1825.67 L436.05 1826.53 L434.08 1827.15 L432.24 1828.38 L431.37 1828.99 L430.76 1829.73 L430.02 1830.96 L429.65 1831.94 L429.41 1832.93 L429.28 1834.04 L429.78 1836.74 L432.36 1841.91 L433.34 1841.17 L434.45 1840.80 L435.56 1840.92 L436.17 1841.05 L437.03 1841.78 L438.26 1843.50 L441.58 1850.88 L442.32 1854.45 L443.30 1858.14 L444.41 1861.71 L445.15 1863.80 L445.52 1865.15 L446.50 1867.73 L451.42 1875.97 L452.03 1876.96 L452.65 1876.59 L454.98 1875.48 L457.07 1874.25 L457.81 1873.76 L461.99 1871.67 L465.07 1871.18 L467.65 1870.32 L468.76 1870.32 L469.49 1870.44 L470.11 1870.68 L470.97 1871.79 L471.83 1873.14 L473.31 1874.62 L474.04 1875.60 L474.41 1876.10 L476.87 1875.97 L478.59 1875.73 L477.73 1876.34 L475.03 1877.45 L477.49 1880.03 L477.12 1882.37 L477.24 1882.12 L477.98 1881.75 L478.84 1881.38 L479.21 1881.51 L480.07 1881.51 L481.30 1881.88 L485.36 1883.11 L489.91 1883.84 L491.38 1884.34 L492.00 1884.58 L492.37 1885.20 L492.61 1886.06 L492.61 1887.16 L491.63 1890.61 L491.38 1891.84 L491.01 1893.07 L490.40 1895.53 L490.03 1897.49 L489.29 1900.69 L487.69 1907.09 L485.97 1914.34 L484.13 1921.48 L482.04 1929.72 L481.55 1931.44 L479.33 1940.17 L477.86 1945.46 L477.73 1946.07 L476.87 1949.76 L476.63 1951.24 L476.13 1955.30 L476.26 1959.72 L475.40 1959.85 L473.68 1960.09 L471.34 1960.83 L469.62 1961.57 L466.79 1963.17 L464.33 1964.64 L461.50 1966.73 L461.75 1967.47 L461.99 1967.96 L464.21 1972.27 L464.94 1973.99 L466.42 1978.05 L467.04 1980.63 L467.16 1981.86 L467.40 1983.83 L467.53 1986.41 L467.53 1989.12 L467.16 1991.70 L466.54 1995.02 L465.93 1997.60 L465.56 1998.95 L458.55 2026.13 L457.32 2030.81 L455.72 2036.83 L449.45 2061.68 L447.61 2069.79 L446.75 2073.73 L444.90 2080.86 L441.33 2094.88 L440.23 2099.19 L438.63 2105.58 L436.42 2114.07 L434.69 2120.83 L434.57 2121.45 L439.86 2122.67 L441.83 2122.92 L444.65 2124.27 L446.01 2124.64 L454.25 2126.73 L458.06 2127.72 L457.94 2128.21 L457.32 2130.55 L455.97 2133.37 L455.23 2134.24 L439.61 2150.35 L438.75 2151.45 L437.03 2153.30 L435.80 2155.14 L435.43 2156.13 L434.20 2160.68 L432.11 2169.04 L429.16 2181.09 L428.92 2182.20 L427.44 2181.83 L425.96 2181.34 L425.35 2180.72 L423.63 2180.48 L421.29 2179.86 L419.57 2179.49 L418.46 2178.75 L417.60 2178.14 L417.11 2177.77 L415.51 2176.17 L413.54 2174.08 L407.40 2167.56 L404.81 2170.64 L399.65 2176.66 L396.45 2180.23 L395.96 2180.85 L392.39 2184.78 L390.55 2186.87 L390.30 2187.24 L385.63 2192.65 L384.77 2193.64 L382.92 2195.85 L382.31 2196.59 L384.65 2198.92 L385.75 2200.15 L386.24 2200.77 L386.98 2201.88 L387.47 2202.86 L387.97 2203.97 L388.21 2205.07 L388.34 2206.43 L388.58 2208.89 L388.83 2211.47 L389.20 2213.93 L389.69 2216.26 L390.30 2218.60 L391.16 2220.94 L392.02 2223.15 L393.01 2225.37 L394.11 2227.46 L395.34 2229.42 L396.82 2231.64 L398.66 2233.97 L401.25 2237.29 L402.48 2238.77 L403.21 2239.75 L403.46 2240.12 L405.18 2242.83 L406.78 2244.67 L408.38 2246.15 L409.73 2247.62 L412.81 2250.45 L415.88 2253.28 L419.20 2255.99 L422.40 2258.57 L425.35 2260.66 L425.84 2261.03 L429.16 2263.24 L432.73 2265.46 L436.17 2267.55 L439.86 2269.64 L443.67 2271.48 L446.38 2272.84 L448.47 2273.82 L464.58 2280.71 L466.91 2281.57 L468.02 2282.06 L467.28 2284.03 L472.32 2286.12 L482.78 2290.55 L486.46 2292.02 L488.43 2292.88 L491.63 2297.06 L498.52 2300.26 L509.46 2304.57 L521.88 2310.10 L524.34 2312.44 L531.59 2315.63 L536.14 2317.60 L536.76 2317.85 L537.37 2318.09 L537.74 2318.34 L546.23 2321.78 L559.14 2327.32 L571.31 2332.36 L576.11 2334.33 L581.64 2336.66 L592.83 2341.58 L604.27 2346.75 L606.73 2347.98 L615.21 2352.41 L625.66 2358.55 L630.71 2361.75 L632.43 2362.86 L636.12 2365.20 L640.67 2368.52 L640.91 2368.76 L641.16 2368.89 L641.65 2369.25 L646.32 2372.70 L649.52 2375.40 L652.84 2378.11 L657.88 2382.29 L662.19 2385.86 L661.33 2389.18 L660.59 2392.13 L667.97 2398.52 L670.30 2400.00 L673.13 2401.60 L698.46 2422.38 L698.09 2423.98 L696.37 2423.98 L691.95 2422.87 L683.58 2420.78 L681.12 2421.40 L680.51 2421.64 L673.50 2425.33 L664.28 2436.16 L660.22 2438.00 L658.62 2439.23 L655.55 2441.57 L652.23 2441.94 L648.78 2446.12 L648.29 2446.73 L647.68 2447.10 L645.22 2446.73 L642.88 2448.09 L640.67 2447.35 L638.33 2445.26 L636.24 2445.38 L633.66 2444.52 L633.17 2444.15 L632.80 2444.03 L632.06 2443.29 L631.20 2441.94 L629.72 2437.88 L627.51 2432.71 L626.89 2430.25 L625.54 2427.79 L625.30 2427.30 L624.31 2426.44 L623.33 2425.95 L618.66 2423.61 L615.09 2423.00 L612.75 2422.14 L612.14 2421.64 L610.79 2420.54 L610.42 2420.42 L609.56 2419.92 L606.11 2418.57 L604.88 2418.69 L603.90 2418.32 L601.32 2417.22 L599.10 2415.62 L597.26 2414.51 L595.05 2413.65 L593.32 2413.28 L591.11 2413.65 L590.25 2413.77 L588.41 2414.14 L584.10 2415.99 L582.13 2416.73 L580.54 2417.09 L578.69 2417.09 L575.49 2416.36 L570.08 2414.88 L565.53 2413.41 L559.63 2411.31 L555.33 2409.96 L549.67 2408.61 L545.61 2408.49 L542.54 2408.24 L538.73 2408.24 L537.74 2408.36 L536.27 2408.24 L534.79 2408.61 L533.19 2409.10 L531.59 2409.72 L528.64 2411.19 L526.55 2412.91 L524.58 2414.39 L523.85 2415.74 L521.88 2419.06 L518.56 2423.24 L517.21 2424.97 L513.39 2427.79 L509.83 2429.52 L508.23 2429.52 L503.93 2428.78 L502.45 2428.65 L500.11 2427.79 L496.42 2427.55 L491.51 2428.53 L490.03 2429.02 L489.05 2429.15 L486.22 2430.13 L482.78 2431.61 L482.28 2431.85 L480.68 2433.21 L480.07 2434.19 L479.70 2434.80 L479.21 2435.66 L479.09 2436.40 L478.96 2437.14 L478.72 2438.86 L478.59 2439.97 L478.47 2440.71 L478.35 2441.32 L478.10 2441.94 L477.86 2442.31 L477.49 2442.67 L476.75 2443.29 L475.89 2443.90 L474.66 2444.77 L473.80 2445.63 L472.69 2446.49 L471.34 2447.47 L470.11 2449.07 L468.02 2450.79 L466.79 2450.91 L466.05 2451.28 L464.45 2451.65 L462.98 2452.39 L459.66 2453.87 L457.81 2454.36 L456.46 2454.60 L452.65 2455.22 L451.30 2455.34 L448.47 2455.47 L446.01 2455.96 L444.90 2456.08 L443.18 2455.71 L442.69 2455.59 L441.83 2455.47 L441.09 2455.10 L440.35 2454.85 L439.37 2454.36 L438.38 2454.36 L437.65 2453.99 L436.91 2453.74 L436.54 2453.50 L436.29 2453.37 L433.46 2451.53 L430.14 2449.44 L427.44 2446.86 L424.12 2444.77 L423.26 2444.27 L422.03 2443.17 L420.68 2442.55 L417.60 2440.83 L414.16 2439.72 L411.82 2438.99 L407.27 2437.88 L400.88 2437.51 L398.30 2438.00 L393.62 2439.60 L393.01 2439.97 L393.01 2439.97 Z" stroke-linejoin="round"/>
	</defs>
	<use xlink:href="#path_aKWovODH" style="fill:#9DC8CA;stroke:#6BB4D2;stroke-width:5.76"/>
	<defs>
		<path id="path_rLWxmDCq" d="M1035.77 2774.97 L1035.77 2774.97 L1035.77 2774.97 L1013.75 2755.66 L1011.17 2753.45 L1010.56 2751.98 L996.54 2719.51 L993.59 2712.50 L989.78 2717.17 L989.16 2711.39 L988.91 2709.67 L994.20 2697.99 L997.65 2690.36 L998.01 2689.50 L998.63 2688.27 L999.00 2687.41 L999.12 2687.29 L1002.20 2680.52 L999.98 2674.00 L995.43 2672.90 L982.40 2669.58 L972.07 2668.72 L970.10 2668.59 L969.36 2668.10 L968.26 2667.49 L966.29 2666.13 L966.17 2665.89 L963.09 2662.94 L962.35 2662.69 L960.51 2662.20 L959.53 2661.83 L958.79 2661.46 L958.17 2660.23 L955.96 2659.49 L952.39 2659.37 L950.43 2659.25 L949.20 2659.12 L948.21 2659.12 L947.11 2658.39 L946.86 2658.14 L945.14 2656.54 L939.73 2652.24 L932.60 2646.58 L922.88 2643.75 L912.06 2643.50 L896.69 2641.41 L893.61 2640.55 L890.79 2639.57 L885.50 2637.60 L883.16 2636.86 L880.95 2636.62 L874.18 2636.13 L869.63 2636.99 L868.41 2636.86 L867.54 2636.62 L866.56 2635.76 L859.80 2626.78 L857.22 2623.46 L855.99 2621.86 L853.77 2618.91 L852.79 2617.56 L850.94 2615.34 L849.96 2613.50 L848.61 2610.67 L848.24 2609.19 L847.87 2607.23 L847.25 2604.15 L849.47 2605.01 L848.12 2600.34 L840.74 2591.11 L832.87 2584.72 L817.13 2573.28 L811.96 2571.68 L800.77 2569.72 L799.67 2569.47 L797.21 2568.73 L796.10 2567.87 L794.50 2566.52 L785.89 2558.89 L782.82 2555.57 L780.11 2551.88 L777.90 2548.81 L775.32 2543.89 L773.60 2540.32 L766.10 2529.62 L760.68 2521.01 L757.61 2517.20 L753.68 2513.02 L751.59 2507.49 L748.51 2497.28 L747.65 2492.48 L746.05 2484.12 L744.82 2481.29 L743.35 2479.69 L742.24 2478.71 L738.80 2477.11 L736.21 2475.88 L734.74 2475.76 L733.26 2475.63 L731.30 2474.40 L725.27 2465.55 L723.30 2461.74 L722.20 2459.28 L722.20 2457.56 L721.70 2456.69 L720.72 2455.96 L715.68 2454.24 L714.57 2453.99 L704.61 2452.02 L696.99 2449.68 L671.53 2444.40 L662.80 2442.43 L660.10 2440.95 L661.94 2439.60 L666.00 2435.17 L664.65 2436.03 L664.28 2436.16 L673.50 2425.33 L680.51 2421.64 L681.12 2421.40 L683.58 2420.78 L691.95 2422.87 L696.37 2423.98 L698.09 2423.98 L698.46 2422.38 L673.13 2401.60 L670.30 2400.00 L667.97 2398.52 L660.59 2392.13 L661.33 2389.18 L662.19 2385.86 L657.88 2382.29 L652.84 2378.11 L649.52 2375.40 L646.32 2372.70 L641.65 2369.25 L641.16 2368.89 L640.91 2368.76 L640.67 2368.52 L636.12 2365.20 L632.43 2362.86 L630.71 2361.75 L625.66 2358.55 L615.21 2352.41 L606.73 2347.98 L604.27 2346.75 L592.83 2341.58 L581.64 2336.66 L576.11 2334.33 L571.31 2332.36 L559.14 2327.32 L546.23 2321.78 L537.74 2318.34 L537.37 2318.09 L536.76 2317.85 L536.14 2317.60 L531.59 2315.63 L524.34 2312.44 L521.88 2310.10 L509.46 2304.57 L498.52 2300.26 L491.63 2297.06 L488.43 2292.88 L486.46 2292.02 L482.78 2290.55 L472.32 2286.12 L467.28 2284.03 L468.02 2282.06 L466.91 2281.57 L464.58 2280.71 L448.47 2273.82 L446.38 2272.84 L443.67 2271.48 L439.86 2269.64 L436.17 2267.55 L432.73 2265.46 L429.16 2263.24 L425.84 2261.03 L425.35 2260.66 L422.40 2258.57 L419.20 2255.99 L415.88 2253.28 L412.81 2250.45 L409.73 2247.62 L408.38 2246.15 L406.78 2244.67 L405.18 2242.83 L403.46 2240.12 L403.21 2239.75 L402.48 2238.77 L401.25 2237.29 L398.66 2233.97 L396.82 2231.64 L395.34 2229.42 L394.11 2227.46 L393.01 2225.37 L392.02 2223.15 L391.16 2220.94 L390.30 2218.60 L389.69 2216.26 L389.20 2213.93 L388.83 2211.47 L388.58 2208.89 L388.34 2206.43 L388.21 2205.07 L387.97 2203.97 L387.47 2202.86 L386.98 2201.88 L386.24 2200.77 L385.75 2200.15 L384.65 2198.92 L382.31 2196.59 L382.92 2195.85 L384.77 2193.64 L385.63 2192.65 L390.30 2187.24 L390.55 2186.87 L392.39 2184.78 L395.96 2180.85 L396.45 2180.23 L399.65 2176.66 L404.81 2170.64 L407.40 2167.56 L413.54 2174.08 L415.51 2176.17 L417.11 2177.77 L417.60 2178.14 L418.46 2178.75 L419.57 2179.49 L421.29 2179.86 L423.63 2180.48 L425.35 2180.72 L425.96 2181.34 L427.44 2181.83 L428.92 2182.20 L429.16 2181.09 L432.11 2169.04 L434.20 2160.68 L435.43 2156.13 L435.80 2155.14 L437.03 2153.30 L438.75 2151.45 L439.61 2150.35 L455.23 2134.24 L455.97 2133.37 L457.32 2130.55 L457.94 2128.21 L458.06 2127.72 L454.25 2126.73 L446.01 2124.64 L444.65 2124.27 L441.83 2122.92 L439.86 2122.67 L434.57 2121.45 L434.69 2120.83 L436.42 2114.07 L438.63 2105.58 L440.23 2099.19 L441.33 2094.88 L444.90 2080.86 L446.75 2073.73 L447.61 2069.79 L449.45 2061.68 L455.72 2036.83 L457.32 2030.81 L458.55 2026.13 L465.56 1998.95 L465.93 1997.60 L466.54 1995.02 L467.16 1991.70 L467.53 1989.12 L467.53 1986.41 L467.40 1983.83 L467.16 1981.86 L467.04 1980.63 L466.42 1978.05 L464.94 1973.99 L464.21 1972.27 L461.99 1967.96 L461.75 1967.47 L461.50 1966.73 L464.33 1964.64 L466.79 1963.17 L469.62 1961.57 L471.34 1960.83 L473.68 1960.09 L475.40 1959.85 L476.26 1959.72 L476.13 1955.30 L476.63 1951.24 L476.87 1949.76 L477.73 1946.07 L477.86 1945.46 L479.33 1940.17 L481.55 1931.44 L482.04 1929.72 L484.13 1921.48 L485.97 1914.34 L487.69 1907.09 L489.29 1900.69 L490.03 1897.49 L490.40 1895.53 L491.01 1893.07 L491.38 1891.84 L491.63 1890.61 L492.61 1887.16 L492.61 1886.06 L492.37 1885.20 L492.00 1884.58 L491.38 1884.34 L489.91 1883.84 L485.36 1883.11 L481.30 1881.88 L480.07 1881.51 L479.21 1881.51 L478.84 1881.38 L477.98 1881.75 L477.24 1882.12 L477.12 1882.37 L477.49 1880.03 L475.03 1877.45 L477.73 1876.34 L478.59 1875.73 L485.60 1874.50 L485.97 1874.50 L486.83 1874.50 L487.57 1874.99 L487.94 1875.48 L489.54 1876.96 L490.15 1877.33 L493.47 1879.66 L494.83 1880.40 L495.93 1880.52 L502.45 1879.29 L503.07 1877.33 L503.68 1876.71 L503.43 1876.34 L503.93 1874.50 L507.62 1858.75 L509.09 1860.23 L509.34 1860.35 L511.92 1843.01 L513.39 1841.54 L514.13 1838.95 L514.87 1832.93 L515.49 1828.01 L517.21 1828.38 L516.84 1828.99 L516.71 1829.73 L517.33 1833.42 L517.08 1835.14 L516.71 1836.50 L516.10 1838.59 L514.26 1843.26 L513.64 1844.49 L513.15 1845.72 L513.15 1846.09 L513.39 1846.70 L515.24 1847.81 L516.47 1848.67 L518.81 1851.13 L521.76 1854.08 L522.86 1855.93 L523.85 1858.14 L524.58 1862.20 L524.83 1865.64 L524.83 1867.24 L524.95 1870.07 L524.46 1873.02 L523.72 1877.20 L522.62 1880.65 L521.39 1883.35 L521.02 1885.44 L529.50 1887.29 L533.44 1896.14 L539.46 1893.31 L537.37 1888.27 L539.59 1888.76 L546.72 1890.61 L549.67 1891.22 L550.78 1891.59 L553.36 1892.21 L556.31 1892.94 L559.26 1893.31 L559.51 1893.56 L563.81 1894.91 L565.29 1895.28 L566.03 1895.40 L566.39 1895.53 L566.52 1894.91 L566.52 1894.42 L566.64 1893.44 L567.25 1890.73 L568.61 1885.44 L569.47 1882.49 L569.84 1881.14 L570.45 1877.08 L570.45 1875.85 L570.58 1874.25 L570.70 1872.65 L570.82 1870.07 L570.82 1868.47 L570.94 1866.38 L572.67 1863.06 L574.14 1863.06 L577.34 1864.78 L582.50 1862.20 L586.07 1862.20 L590.99 1860.23 L592.46 1860.85 L598.24 1859.62 L610.29 1861.21 L610.54 1860.23 L611.28 1860.85 L613.49 1861.21 L615.58 1863.67 L619.52 1866.38 L621.48 1866.87 L628.62 1868.59 L628.99 1869.70 L633.29 1868.47 L635.01 1872.90 L636.61 1873.27 L639.19 1873.88 L647.55 1875.97 L653.46 1877.57 L654.81 1878.06 L655.79 1877.33 L659.85 1881.38 L664.77 1883.60 L664.89 1883.84 L667.47 1884.70 L672.27 1887.16 L672.15 1887.53 L674.24 1887.78 L683.09 1889.13 L687.03 1897.99 L689.85 1900.94 L692.44 1903.64 L696.00 1907.09 L698.46 1909.55 L708.18 1919.14 L706.46 1925.90 L706.09 1928.24 L705.47 1929.22 L704.61 1930.82 L709.04 1935.74 L706.70 1945.95 L706.70 1946.56 L706.95 1947.67 L707.44 1948.78 L708.55 1951.98 L706.70 1959.35 L706.58 1959.85 L699.82 1985.18 L698.83 1988.99 L698.22 1990.84 L698.83 1990.96 L699.32 1990.96 L701.17 1991.94 L709.28 1960.46 L713.46 1943.86 L712.11 1943.24 L714.08 1941.64 L715.56 1941.28 L716.29 1938.08 L719.74 1932.54 L721.70 1926.52 L721.46 1925.66 L722.44 1923.81 L734.74 1920.86 L747.40 1920.49 L755.52 1922.34 L782.33 1916.31 L784.05 1915.45 L787.74 1913.97 L786.75 1928.73 L792.53 1936.48 L795.24 1939.68 L804.34 1958.62 L830.53 1943.74 L831.02 1943.74 L834.22 1943.86 L834.96 1943.86 L846.52 1950.99 L851.68 1954.31 L873.69 1968.33 L874.92 1968.95 L876.89 1970.18 L878.12 1970.55 L906.16 1976.57 L914.64 1978.54 L929.89 1983.09 L931.12 1983.46 L933.70 1984.44 L952.64 1991.45 L956.57 1992.68 L980.68 2002.64 L984.00 2003.75 L991.74 2005.96 L996.29 2006.95 L1008.34 2009.04 L1032.32 2012.85 L1052.86 2015.56 L1071.18 2018.14 L1079.42 2019.62 L1080.28 2019.98 L1082.00 2019.49 L1084.34 2019.62 L1087.90 2018.51 L1090.98 2019.49 L1094.18 2019.25 L1097.74 2014.70 L1101.31 2012.48 L1106.35 1999.94 L1111.76 1994.28 L1114.83 1991.21 L1115.33 1989.36 L1115.94 1983.46 L1115.08 1973.01 L1113.97 1964.27 L1116.19 1958.12 L1116.06 1953.57 L1118.40 1942.75 L1121.23 1934.88 L1120.25 1933.28 L1124.43 1928.36 L1128.12 1926.76 L1130.82 1922.21 L1131.80 1918.52 L1132.05 1916.19 L1131.68 1916.43 L1130.82 1917.79 L1130.21 1918.77 L1129.22 1920.12 L1126.64 1922.21 L1125.41 1923.81 L1124.43 1924.92 L1123.32 1926.15 L1121.72 1928.36 L1120.98 1930.08 L1120.00 1932.30 L1118.65 1932.79 L1116.93 1933.04 L1113.73 1933.16 L1110.90 1933.77 L1108.69 1933.41 L1108.07 1933.04 L1107.58 1932.54 L1105.49 1931.93 L1104.63 1932.18 L1104.14 1932.67 L1103.77 1933.28 L1103.28 1933.28 L1102.91 1932.91 L1102.54 1931.19 L1102.54 1930.58 L1103.15 1928.73 L1103.77 1927.87 L1104.51 1926.76 L1105.12 1925.04 L1105.37 1923.69 L1105.24 1922.34 L1105.12 1921.72 L1103.40 1918.89 L1102.54 1917.05 L1100.45 1913.85 L1100.08 1912.38 L1100.20 1911.64 L1100.94 1909.55 L1101.80 1907.82 L1102.05 1906.96 L1102.05 1905.24 L1100.94 1901.68 L1100.32 1899.22 L1099.46 1894.17 L1099.71 1892.70 L1099.71 1891.22 L1099.34 1889.25 L1098.73 1887.41 L1097.00 1883.72 L1095.77 1883.11 L1094.67 1882.37 L1093.81 1882.00 L1090.86 1882.00 L1089.75 1881.75 L1089.13 1881.01 L1088.77 1879.78 L1088.77 1875.97 L1089.01 1873.51 L1089.38 1872.41 L1090.24 1868.35 L1090.73 1867.12 L1090.98 1861.58 L1090.24 1857.16 L1090.61 1855.68 L1091.96 1853.34 L1092.33 1852.11 L1092.33 1851.74 L1091.35 1849.90 L1090.61 1849.41 L1087.29 1847.69 L1086.18 1847.19 L1084.46 1846.09 L1084.09 1844.37 L1084.22 1842.28 L1084.71 1841.17 L1085.08 1839.32 L1085.08 1837.72 L1084.46 1835.88 L1083.97 1833.42 L1082.13 1827.52 L1081.51 1826.04 L1081.39 1824.57 L1081.26 1820.88 L1081.26 1819.52 L1081.63 1817.19 L1081.51 1815.96 L1082.37 1812.64 L1083.85 1809.81 L1084.71 1808.82 L1085.69 1807.23 L1086.06 1806.49 L1086.80 1804.64 L1086.92 1803.54 L1086.92 1803.04 L1086.55 1801.81 L1087.17 1798.74 L1087.90 1796.40 L1088.64 1792.59 L1088.77 1790.99 L1089.01 1789.27 L1089.50 1787.18 L1090.61 1785.58 L1090.98 1783.61 L1090.49 1782.01 L1091.22 1778.45 L1091.35 1773.28 L1091.59 1769.96 L1092.21 1768.49 L1092.70 1767.62 L1093.07 1766.76 L1093.19 1765.90 L1093.07 1764.06 L1093.68 1761.23 L1095.77 1755.94 L1095.77 1755.33 L1094.91 1752.01 L1093.32 1746.59 L1092.58 1743.77 L1089.13 1746.23 L1086.92 1748.32 L1086.18 1749.05 L1085.32 1749.30 L1085.69 1748.56 L1086.80 1744.38 L1086.80 1742.66 L1086.67 1740.45 L1085.45 1728.39 L1084.95 1725.56 L1085.20 1723.47 L1084.09 1721.38 L1082.99 1719.66 L1074.75 1710.56 L1072.90 1708.72 L1071.43 1706.38 L1070.69 1705.52 L1070.57 1705.40 L1070.57 1705.27 L1070.57 1705.15 L1070.57 1705.03 L1070.57 1704.90 L1070.81 1704.29 L1071.06 1702.20 L1071.55 1699.98 L1072.04 1688.55 L1071.67 1685.35 L1071.18 1679.45 L1068.84 1668.87 L1067.98 1662.97 L1067.86 1662.11 L1067.49 1660.38 L1066.38 1656.69 L1065.89 1654.24 L1065.52 1652.76 L1063.56 1651.28 L1061.34 1648.09 L1060.11 1645.87 L1058.64 1642.31 L1058.02 1638.86 L1057.41 1634.56 L1057.41 1634.31 L1057.41 1633.82 L1057.53 1633.33 L1057.78 1632.96 L1058.15 1632.71 L1058.52 1632.59 L1057.78 1628.90 L1057.65 1625.83 L1058.02 1622.63 L1058.52 1620.66 L1059.13 1618.82 L1059.25 1618.57 L1060.36 1616.23 L1063.43 1611.31 L1065.28 1614.51 L1066.26 1615.74 L1067.74 1617.34 L1069.09 1618.45 L1072.04 1620.91 L1075.98 1623.86 L1078.80 1625.95 L1081.51 1628.04 L1088.77 1633.70 L1092.95 1636.89 L1093.56 1637.26 L1104.75 1646.12 L1105.00 1646.36 L1106.60 1647.35 L1110.53 1650.67 L1112.50 1652.64 L1121.23 1662.11 L1122.95 1664.20 L1123.69 1662.35 L1120.25 1653.99 L1121.97 1649.93 L1123.44 1645.75 L1123.07 1642.92 L1111.64 1632.71 L1107.21 1628.78 L1106.96 1628.53 L1103.52 1612.30 L1105.73 1606.27 L1109.67 1572.45 L1106.47 1566.55 L1104.01 1563.23 L1095.65 1552.16 L1092.21 1540.11 L1089.50 1533.47 L1089.26 1530.51 L1084.71 1528.67 L1084.83 1527.81 L1084.71 1527.32 L1084.58 1525.10 L1084.46 1525.10 L1084.34 1522.89 L1084.34 1522.15 L1083.60 1519.32 L1082.74 1516.86 L1082.00 1515.14 L1081.88 1515.02 L1080.16 1512.19 L1078.31 1510.96 L1075.98 1507.76 L1071.18 1505.43 L1070.07 1497.43 L1082.13 1499.65 L1087.78 1500.75 L1096.39 1502.35 L1175.21 1516.86 L1176.07 1516.86 L1199.81 1423.77 L1211.37 1378.63 L1217.88 1353.67 L1234.11 1357.36 L1273.22 1366.21 L1275.92 1356.50 L1270.39 1357.11 L1264.73 1355.76 L1264.36 1355.63 L1265.72 1351.45 L1267.19 1348.38 L1269.65 1345.80 L1271.37 1341.86 L1265.47 1339.15 L1263.50 1337.56 L1262.15 1335.59 L1249.98 1304.10 L1259.81 1296.85 L1251.58 1283.44 L1257.72 1284.92 L1262.89 1286.03 L1265.96 1285.41 L1267.07 1284.67 L1268.18 1284.06 L1269.78 1281.97 L1271.13 1280.49 L1273.22 1279.26 L1276.91 1275.70 L1279.24 1274.96 L1283.42 1270.53 L1284.78 1270.28 L1285.88 1269.18 L1286.25 1267.46 L1286.74 1266.84 L1287.73 1266.47 L1288.47 1266.47 L1288.96 1265.49 L1288.59 1264.75 L1289.94 1261.92 L1292.52 1259.71 L1292.77 1259.58 L1295.60 1257.99 L1298.06 1256.88 L1298.55 1245.81 L1299.04 1237.45 L1299.66 1226.87 L1302.73 1212.97 L1308.76 1187.27 L1310.72 1182.72 L1311.95 1180.02 L1320.07 1161.32 L1321.67 1161.94 L1322.28 1161.94 L1322.90 1161.32 L1323.64 1160.46 L1324.13 1159.72 L1324.62 1158.25 L1358.31 1149.27 L1387.58 1147.55 L1411.56 1146.20 L1451.28 1143.86 L1451.77 1148.41 L1452.63 1152.84 L1453.12 1154.44 L1453.86 1155.54 L1454.60 1156.40 L1455.70 1157.39 L1458.29 1158.99 L1459.39 1159.35 L1459.88 1159.48 L1460.25 1159.48 L1462.22 1159.23 L1465.30 1158.37 L1466.53 1158.25 L1468.86 1158.62 L1469.85 1158.99 L1472.18 1159.97 L1473.53 1160.34 L1474.40 1160.34 L1478.08 1160.34 L1485.09 1159.48 L1486.82 1159.48 L1489.52 1160.22 L1490.75 1160.34 L1493.70 1160.09 L1495.42 1159.72 L1497.64 1159.60 L1499.73 1159.85 L1501.08 1160.09 L1503.05 1160.71 L1503.91 1161.20 L1505.88 1162.06 L1506.86 1162.43 L1507.97 1162.67 L1509.93 1163.04 L1511.41 1163.90 L1514.48 1166.86 L1514.85 1167.23 L1515.71 1168.46 L1518.42 1172.88 L1520.39 1175.34 L1521.74 1177.43 L1523.46 1181.37 L1524.20 1182.48 L1528.13 1187.76 L1530.35 1191.08 L1532.19 1193.67 L1532.07 1196.86 L1529.98 1208.67 L1528.50 1215.07 L1527.39 1220.60 L1525.43 1237.69 L1524.81 1246.06 L1524.81 1249.50 L1524.94 1250.36 L1525.43 1252.33 L1525.92 1253.93 L1526.66 1255.40 L1527.52 1256.51 L1530.35 1258.85 L1535.51 1262.04 L1537.60 1262.91 L1539.69 1263.64 L1542.27 1264.87 L1544.98 1265.61 L1569.33 1277.05 L1652.21 1274.59 L1656.39 1275.57 L1657.50 1278.03 L1656.76 1284.80 L1661.18 1291.07 L1660.94 1295.99 L1659.09 1301.28 L1652.09 1304.97 L1650.36 1305.83 L1644.09 1324.03 L1639.17 1328.82 L1640.16 1332.64 L1639.05 1334.48 L1636.96 1340.75 L1634.99 1344.44 L1632.29 1356.13 L1629.34 1358.34 L1627.86 1369.53 L1625.65 1373.84 L1626.02 1375.07 L1624.42 1382.57 L1622.57 1385.64 L1624.42 1389.09 L1623.80 1392.53 L1619.38 1401.01 L1619.25 1405.69 L1617.29 1408.39 L1616.67 1411.84 L1617.29 1413.31 L1622.94 1418.85 L1623.68 1421.55 L1621.96 1425.37 L1623.31 1429.92 L1622.82 1441.84 L1626.63 1458.45 L1626.14 1463.49 L1624.91 1465.21 L1617.41 1470.13 L1605.85 1480.09 L1600.81 1486.73 L1597.00 1489.32 L1590.60 1490.42 L1588.14 1491.78 L1587.40 1494.48 L1588.02 1497.92 L1586.79 1502.84 L1580.27 1509.49 L1577.57 1518.09 L1578.92 1520.31 L1590.11 1528.67 L1591.71 1532.11 L1592.32 1541.21 L1593.92 1544.66 L1601.67 1549.09 L1604.50 1553.39 L1604.62 1560.52 L1604.99 1563.97 L1603.76 1577.37 L1604.00 1583.15 L1610.52 1596.80 L1611.51 1601.72 L1610.89 1604.92 L1611.63 1612.79 L1612.00 1616.73 L1615.56 1621.64 L1615.69 1623.12 L1615.93 1626.20 L1616.30 1626.69 L1629.70 1649.68 L1635.98 1654.48 L1635.98 1657.06 L1658.73 1698.63 L1662.41 1706.63 L1661.31 1711.42 L1668.56 1728.02 L1668.07 1730.61 L1669.30 1737.25 L1678.77 1752.74 L1684.79 1757.54 L1697.46 1776.97 L1695.25 1785.46 L1690.08 1796.40 L1687.25 1807.23 L1687.50 1815.83 L1686.15 1821.49 L1687.87 1829.85 L1698.08 1848.06 L1698.94 1849.29 L1706.68 1860.11 L1706.81 1861.21 L1714.68 1862.94 L1725.74 1857.52 L1734.60 1849.65 L1738.78 1848.55 L1764.97 1851.38 L1770.26 1850.39 L1771.12 1850.15 L1777.39 1847.69 L1785.51 1846.95 L1791.29 1849.04 L1793.87 1851.25 L1794.24 1851.99 L1795.22 1854.94 L1795.10 1859.25 L1799.65 1866.75 L1804.44 1870.93 L1814.77 1882.00 L1818.34 1884.09 L1823.13 1885.32 L1837.64 1884.83 L1844.53 1882.49 L1853.02 1874.99 L1855.48 1873.76 L1834.20 1960.71 L1811.33 2047.66 L1796.82 2102.51 L1783.66 2154.16 L1774.81 2188.84 L1773.58 2193.39 L1768.04 2215.16 L1811.70 2204.70 L1814.53 2203.97 L1826.21 2212.45 L1833.46 2214.42 L1836.78 2216.63 L1862.61 2222.66 L1867.28 2224.38 L1874.29 2229.18 L1885.48 2231.27 L1889.54 2233.85 L1888.68 2247.75 L1883.88 2263.12 L1879.21 2273.70 L1878.96 2274.44 L1878.84 2275.05 L1878.72 2275.42 L1878.72 2275.91 L1878.72 2276.28 L1891.26 2271.73 L1897.53 2269.52 L1898.76 2269.02 L1900.73 2268.41 L1903.43 2267.43 L1907.61 2265.95 L1911.06 2264.97 L1914.50 2263.98 L1920.53 2262.63 L1926.43 2261.28 L1932.45 2260.17 L1938.48 2259.43 L1944.50 2258.69 L1950.53 2258.20 L1956.56 2257.96 L1970.33 2257.22 L1975.37 2256.85 L1979.06 2256.36 L1982.26 2255.74 L1985.45 2255.00 L1988.65 2254.14 L1991.85 2253.16 L1995.05 2252.05 L1998.12 2250.70 L2001.44 2249.22 L2005.13 2247.26 L2010.29 2244.43 L2017.43 2240.37 L2024.93 2236.19 L2031.20 2232.74 L2034.64 2231.02 L2037.47 2229.79 L2040.54 2228.56 L2043.62 2227.46 L2045.83 2226.72 L2046.69 2226.47 L2049.89 2225.61 L2053.09 2225.00 L2056.28 2224.38 L2059.48 2223.89 L2062.68 2223.64 L2065.75 2223.40 L2068.95 2223.27 L2072.15 2223.40 L2075.34 2223.64 L2078.42 2224.01 L2081.49 2224.38 L2084.69 2225.00 L2088.13 2225.86 L2092.19 2226.96 L2127.11 2236.93 L2128.10 2237.29 L2135.11 2239.26 L2146.79 2242.58 L2157.36 2245.53 L2165.23 2247.87 L2180.24 2252.05 L2219.95 2263.24 L2251.93 2272.34 L2256.23 2273.57 L2257.21 2273.82 L2261.15 2274.93 L2261.89 2275.17 L2262.63 2275.42 L2263.24 2275.54 L2265.82 2277.02 L2266.68 2277.39 L2268.16 2278.00 L2269.39 2278.49 L2272.71 2279.85 L2274.43 2280.58 L2275.29 2280.95 L2276.03 2281.45 L2277.38 2282.43 L2278.12 2283.04 L2278.61 2283.54 L2283.41 2285.13 L2293.37 2288.70 L2310.34 2295.83 L2310.21 2296.45 L2310.21 2296.69 L2310.09 2296.94 L2310.09 2297.68 L2309.97 2298.54 L2310.34 2300.14 L2310.58 2300.51 L2311.07 2301.61 L2311.94 2302.97 L2313.04 2304.69 L2314.52 2306.16 L2316.24 2307.39 L2319.31 2309.61 L2321.77 2311.21 L2326.20 2313.17 L2328.54 2313.91 L2330.75 2314.28 L2332.72 2314.40 L2338.50 2314.28 L2341.32 2314.16 L2345.51 2314.77 L2348.46 2315.27 L2355.47 2317.23 L2360.88 2319.32 L2366.04 2321.54 L2368.75 2322.77 L2373.42 2325.10 L2382.40 2329.78 L2387.07 2332.48 L2389.90 2334.33 L2391.87 2335.68 L2394.69 2337.77 L2402.69 2343.92 L2404.78 2346.13 L2406.50 2347.98 L2410.43 2345.52 L2413.38 2343.67 L2414.49 2343.31 L2416.83 2342.20 L2420.89 2340.72 L2425.68 2340.85 L2444.74 2341.09 L2445.48 2341.09 L2458.51 2339.62 L2462.94 2339.98 L2467.74 2340.72 L2473.89 2341.34 L2480.16 2341.95 L2486.43 2342.20 L2490.86 2342.57 L2492.82 2342.44 L2494.30 2342.69 L2495.40 2343.55 L2496.51 2344.66 L2497.50 2346.99 L2497.62 2350.19 L2498.36 2352.90 L2498.97 2356.10 L2499.71 2358.55 L2500.32 2359.91 L2502.41 2362.24 L2503.15 2362.74 L2504.14 2363.35 L2505.37 2364.09 L2506.96 2364.34 L2508.81 2364.21 L2513.60 2364.09 L2519.51 2361.75 L2520.98 2358.92 L2523.07 2354.99 L2524.79 2351.54 L2529.84 2346.01 L2531.93 2344.53 L2535.74 2341.71 L2547.05 2336.05 L2550.49 2334.20 L2552.46 2332.24 L2552.46 2326.33 L2552.46 2325.72 L2552.46 2317.11 L2549.14 2312.81 L2548.65 2310.71 L2548.16 2308.13 L2549.02 2303.83 L2550.74 2295.10 L2551.72 2287.35 L2551.48 2274.44 L2553.94 2264.10 L2563.53 2246.03 L2566.36 2241.60 L2570.05 2232.87 L2572.14 2231.51 L2573.49 2231.88 L2573.98 2232.25 L2577.92 2236.56 L2580.50 2236.93 L2581.97 2235.82 L2584.19 2231.27 L2587.39 2224.63 L2588.00 2223.40 L2589.48 2215.53 L2589.60 2214.79 L2588.49 2211.59 L2588.62 2208.52 L2590.95 2199.29 L2604.97 2175.19 L2606.45 2172.61 L2608.04 2169.90 L2609.27 2169.53 L2614.56 2168.30 L2622.68 2172.48 L2623.05 2172.36 L2625.26 2171.50 L2650.35 2162.15 L2665.10 2154.40 L2686.50 2141.00 L2690.19 2137.43 L2694.12 2135.96 L2707.03 2135.83 L2718.22 2136.69 L2719.95 2136.82 L2730.52 2141.00 L2734.21 2144.07 L2736.42 2147.64 L2737.53 2161.17 L2737.53 2170.76 L2738.64 2173.84 L2738.76 2174.33 L2741.59 2176.42 L2751.67 2180.97 L2757.33 2183.06 L2762.12 2184.90 L2762.86 2185.27 L2763.85 2185.89 L2765.20 2186.63 L2779.83 2194.25 L2784.63 2200.40 L2792.25 2204.09 L2795.94 2205.69 L2798.40 2205.93 L2805.53 2206.79 L2813.40 2206.92 L2821.52 2207.53 L2825.94 2206.06 L2828.28 2202.98 L2829.88 2199.42 L2831.97 2194.13 L2834.55 2190.19 L2838.36 2188.47 L2843.90 2186.99 L2850.29 2186.99 L2855.09 2187.24 L2863.33 2188.10 L2865.91 2188.96 L2868.98 2190.56 L2873.41 2195.36 L2875.99 2198.19 L2877.71 2199.78 L2880.17 2200.77 L2888.17 2203.11 L2899.73 2203.84 L2914.85 2205.69 L2927.27 2207.78 L2933.54 2209.38 L2937.97 2210.12 L2943.63 2210.85 L2948.42 2209.50 L2952.97 2209.62 L2965.51 2213.31 L2972.89 2214.05 L2978.80 2212.82 L2989.37 2210.48 L2997.49 2208.52 L3019.99 2206.67 L3021.47 2205.93 L3030.20 2201.14 L3037.70 2199.17 L3043.72 2198.80 L3044.34 2198.92 L3048.89 2200.40 L3100.53 2221.92 L3121.32 2235.57 L3125.62 2239.88 L3133.12 2252.30 L3136.56 2255.25 L3148.86 2260.05 L3158.70 2266.07 L3162.63 2270.25 L3167.18 2274.80 L3173.33 2289.07 L3176.28 2290.91 L3189.93 2293.87 L3196.94 2293.62 L3202.11 2289.19 L3209.48 2284.15 L3216.00 2280.95 L3221.41 2279.48 L3225.22 2278.86 L3230.39 2278.74 L3237.40 2279.60 L3267.28 2284.77 L3278.35 2287.10 L3286.22 2289.19 L3297.65 2292.14 L3297.90 2292.14 L3304.29 2294.24 L3309.58 2294.60 L3311.67 2294.11 L3314.50 2293.50 L3317.45 2293.99 L3318.93 2296.08 L3319.54 2297.68 L3319.42 2299.40 L3319.79 2301.37 L3321.51 2303.09 L3326.18 2306.41 L3340.32 2316.99 L3348.07 2322.40 L3352.74 2325.10 L3356.80 2326.70 L3360.49 2326.70 L3364.67 2326.83 L3367.62 2326.83 L3370.70 2325.47 L3373.65 2323.63 L3377.71 2321.66 L3379.06 2319.69 L3379.55 2318.59 L3381.52 2314.53 L3383.85 2311.82 L3392.34 2303.70 L3393.81 2301.12 L3394.55 2299.52 L3400.82 2291.78 L3403.41 2286.36 L3404.27 2284.15 L3405.13 2281.94 L3406.60 2277.63 L3407.96 2274.31 L3409.31 2271.24 L3411.15 2269.27 L3421.11 2258.57 L3435.26 2245.17 L3439.68 2241.48 L3442.14 2240.37 L3447.55 2239.88 L3455.91 2239.75 L3470.67 2237.05 L3480.63 2234.34 L3482.23 2233.85 L3482.84 2233.73 L3483.70 2233.60 L3486.53 2232.99 L3487.89 2232.38 L3491.82 2230.16 L3493.05 2229.67 L3495.88 2228.44 L3498.58 2228.19 L3500.31 2228.81 L3503.13 2230.04 L3504.24 2232.01 L3505.47 2235.94 L3509.04 2240.74 L3511.74 2242.83 L3514.82 2244.30 L3516.78 2244.92 L3518.14 2245.04 L3519.00 2244.55 L3520.72 2243.32 L3521.58 2243.20 L3525.15 2243.81 L3528.34 2244.67 L3535.47 2244.80 L3547.40 2246.03 L3561.05 2247.62 L3569.66 2249.10 L3577.78 2251.19 L3580.24 2252.30 L3582.45 2253.77 L3590.93 2259.68 L3598.80 2264.23 L3609.01 2270.01 L3619.59 2275.54 L3624.50 2277.51 L3626.35 2277.88 L3629.30 2278.12 L3631.64 2278.12 L3634.22 2277.26 L3636.19 2276.03 L3640.74 2272.47 L3644.55 2269.64 L3653.16 2264.47 L3655.25 2263.00 L3666.93 2256.73 L3672.22 2254.39 L3678.12 2251.93 L3681.81 2250.08 L3683.41 2249.59 L3686.23 2249.10 L3689.68 2248.49 L3694.72 2248.24 L3699.15 2248.36 L3707.63 2250.70 L3711.20 2251.56 L3716.24 2252.67 L3718.94 2252.91 L3726.32 2255.37 L3728.54 2255.50 L3733.58 2255.00 L3737.88 2254.02 L3744.40 2251.81 L3751.28 2248.98 L3754.48 2247.75 L3762.47 2242.71 L3765.67 2240.98 L3771.08 2238.40 L3774.16 2236.93 L3780.67 2234.47 L3786.70 2232.99 L3790.27 2232.01 L3797.28 2228.19 L3800.10 2225.73 L3802.44 2223.27 L3806.99 2217.25 L3809.94 2213.56 L3811.54 2212.08 L3819.29 2206.06 L3825.19 2200.89 L3827.89 2198.92 L3831.46 2197.45 L3835.15 2196.34 L3837.36 2195.97 L3841.54 2196.46 L3847.08 2199.17 L3847.57 2199.54 L3848.68 2200.40 L3849.41 2201.01 L3849.54 2201.14 L3849.78 2201.26 L3849.91 2201.38 L3850.40 2201.75 L3850.64 2201.88 L3850.77 2202.00 L3851.14 2202.24 L3852.86 2203.60 L3853.96 2204.34 L3854.33 2204.70 L3854.70 2204.95 L3856.05 2205.44 L3858.02 2206.06 L3859.74 2205.44 L3859.99 2205.32 L3861.22 2204.83 L3862.57 2203.72 L3863.06 2203.23 L3863.80 2202.61 L3864.29 2202.12 L3864.66 2201.75 L3865.03 2201.51 L3865.65 2201.01 L3866.01 2200.65 L3866.26 2200.28 L3867.12 2199.66 L3868.60 2198.19 L3869.09 2197.82 L3869.33 2197.57 L3870.69 2196.59 L3870.81 2196.46 L3874.99 2193.14 L3880.52 2188.59 L3883.11 2186.38 L3885.94 2183.43 L3889.26 2180.35 L3885.94 2185.27 L3884.71 2186.26 L3880.40 2190.68 L3874.75 2195.23 L3876.47 2196.46 L3876.96 2199.17 L3878.68 2204.21 L3879.42 2207.16 L3880.03 2207.90 L3882.98 2206.92 L3882.62 2208.52 L3885.07 2209.13 L3896.26 2210.24 L3885.69 2213.68 L3883.48 2214.42 L3870.93 2220.81 L3863.92 2222.41 L3862.33 2226.35 L3859.62 2226.47 L3856.91 2226.72 L3854.46 2226.84 L3852.36 2226.59 L3849.78 2226.59 L3848.18 2226.84 L3846.83 2226.84 L3845.85 2227.21 L3844.62 2227.70 L3842.65 2228.56 L3840.93 2229.67 L3838.84 2231.39 L3835.52 2234.96 L3833.80 2237.17 L3831.21 2240.61 L3830.48 2242.58 L3829.74 2245.90 L3828.26 2252.05 L3827.28 2255.13 L3826.05 2256.97 L3824.45 2258.82 L3822.98 2260.05 L3821.50 2260.91 L3820.02 2261.03 L3818.55 2260.66 L3817.32 2259.92 L3816.58 2259.06 L3815.97 2257.71 L3815.11 2256.11 L3814.12 2253.90 L3813.01 2251.81 L3812.03 2249.96 L3811.42 2249.35 L3810.92 2248.73 L3810.19 2248.36 L3809.08 2247.62 L3807.97 2246.89 L3807.24 2246.64 L3805.14 2246.27 L3803.42 2246.15 L3801.70 2245.90 L3799.73 2245.78 L3797.77 2246.27 L3796.05 2246.64 L3793.83 2247.01 L3792.23 2247.38 L3790.63 2248.12 L3787.93 2248.73 L3786.82 2248.73 L3785.47 2248.61 L3784.12 2248.24 L3782.64 2247.87 L3781.53 2247.87 L3780.43 2247.87 L3777.85 2248.49 L3773.17 2250.58 L3768.87 2252.54 L3767.02 2252.79 L3765.80 2253.04 L3764.93 2253.90 L3763.95 2255.13 L3763.70 2256.11 L3763.34 2257.09 L3762.47 2258.45 L3758.66 2263.49 L3757.19 2265.09 L3755.47 2266.20 L3753.13 2266.81 L3751.41 2267.06 L3749.69 2267.06 L3748.33 2267.30 L3747.10 2269.27 L3746.24 2271.36 L3740.34 2272.96 L3737.51 2273.70 L3729.64 2273.45 L3724.72 2273.08 L3715.62 2272.34 L3710.21 2272.34 L3706.16 2272.22 L3702.47 2271.36 L3694.60 2269.76 L3691.64 2269.64 L3689.19 2270.01 L3685.37 2270.99 L3679.35 2271.98 L3675.41 2272.96 L3674.31 2273.21 L3672.46 2274.19 L3669.76 2276.03 L3665.70 2278.99 L3663.61 2280.34 L3655.49 2286.24 L3653.52 2286.61 L3652.05 2286.61 L3650.08 2286.61 L3648.11 2286.24 L3646.15 2286.24 L3644.30 2286.61 L3640.49 2288.21 L3636.68 2289.81 L3635.20 2290.42 L3633.36 2291.04 L3614.67 2309.73 L3613.56 2307.52 L3613.44 2308.13 L3612.82 2308.99 L3611.47 2309.73 L3609.99 2310.35 L3608.27 2310.59 L3606.80 2310.35 L3605.69 2309.61 L3604.71 2308.62 L3603.35 2307.15 L3602.25 2305.18 L3600.89 2302.97 L3597.94 2300.26 L3594.87 2297.92 L3594.38 2297.68 L3592.53 2296.33 L3590.69 2295.59 L3589.58 2295.59 L3588.23 2295.71 L3586.01 2296.33 L3584.29 2297.06 L3582.69 2297.92 L3581.46 2298.91 L3580.11 2299.52 L3578.88 2299.77 L3577.65 2299.89 L3576.05 2299.77 L3574.70 2299.15 L3573.47 2298.29 L3565.23 2290.91 L3562.53 2288.58 L3560.31 2287.47 L3555.64 2285.75 L3547.40 2282.92 L3540.27 2281.45 L3538.67 2281.20 L3536.21 2280.95 L3534.37 2281.08 L3531.17 2281.57 L3519.98 2278.74 L3516.66 2278.49 L3514.94 2279.23 L3512.85 2280.95 L3508.30 2282.18 L3503.26 2282.55 L3497.60 2282.80 L3492.93 2282.31 L3491.70 2281.81 L3490.71 2282.67 L3489.48 2282.92 L3487.27 2283.17 L3484.20 2283.04 L3482.35 2283.04 L3477.43 2282.67 L3476.20 2282.80 L3474.73 2282.92 L3473.62 2282.80 L3472.88 2282.55 L3471.41 2282.31 L3470.30 2281.81 L3468.70 2281.57 L3467.23 2281.20 L3466.61 2281.20 L3465.75 2281.32 L3464.52 2281.81 L3461.69 2283.29 L3458.37 2284.40 L3456.77 2285.13 L3456.04 2285.63 L3455.05 2286.49 L3453.82 2287.47 L3452.84 2288.33 L3450.75 2289.19 L3448.78 2289.81 L3447.55 2290.18 L3446.45 2290.55 L3445.09 2290.79 L3443.00 2290.91 L3441.03 2290.79 L3438.94 2290.55 L3436.61 2290.18 L3433.78 2289.93 L3430.58 2289.68 L3429.60 2289.68 L3427.63 2289.68 L3426.03 2289.93 L3423.94 2290.18 L3421.36 2290.79 L3419.39 2291.41 L3417.79 2291.90 L3416.32 2292.64 L3413.61 2293.99 L3410.05 2295.83 L3409.19 2296.20 L3408.32 2296.20 L3407.46 2295.34 L3407.59 2297.19 L3407.83 2298.29 L3408.20 2299.28 L3409.19 2300.63 L3409.92 2301.49 L3413.12 2303.21 L3414.23 2303.83 L3414.84 2304.69 L3415.09 2305.80 L3415.33 2306.66 L3415.21 2308.50 L3414.97 2310.47 L3414.47 2313.91 L3413.86 2315.51 L3412.87 2317.11 L3411.40 2319.20 L3409.43 2320.80 L3406.48 2322.03 L3404.51 2322.89 L3402.67 2324.00 L3400.82 2325.23 L3399.10 2326.58 L3397.63 2327.93 L3396.03 2329.41 L3394.68 2330.27 L3393.45 2330.76 L3391.97 2330.88 L3390.49 2330.88 L3389.39 2330.51 L3387.91 2329.78 L3386.56 2329.29 L3384.96 2328.79 L3383.49 2328.55 L3382.13 2328.67 L3380.66 2328.79 L3379.55 2328.79 L3378.32 2328.92 L3377.09 2328.92 L3375.86 2329.16 L3374.88 2329.65 L3373.65 2330.39 L3372.79 2331.13 L3371.68 2331.99 L3370.82 2332.48 L3369.84 2332.97 L3368.97 2333.22 L3367.75 2333.22 L3366.52 2333.22 L3365.41 2333.22 L3363.93 2332.85 L3362.33 2332.61 L3360.98 2332.36 L3359.63 2332.48 L3358.40 2332.73 L3356.55 2333.34 L3354.96 2333.96 L3353.23 2334.57 L3351.64 2335.07 L3349.91 2335.19 L3348.07 2335.19 L3346.59 2335.07 L3344.87 2334.70 L3343.27 2334.33 L3341.92 2333.71 L3341.06 2333.10 L3340.20 2332.48 L3339.46 2331.38 L3338.48 2330.02 L3337.25 2329.04 L3335.53 2327.69 L3333.93 2326.83 L3332.33 2326.33 L3331.10 2326.09 L3329.62 2325.96 L3327.90 2326.33 L3325.94 2327.07 L3320.65 2328.92 L3317.82 2329.53 L3316.22 2329.53 L3314.99 2329.29 L3313.39 2328.79 L3311.67 2327.93 L3309.09 2326.46 L3302.45 2322.52 L3300.85 2321.91 L3298.88 2321.29 L3297.16 2321.17 L3293.47 2321.17 L3291.38 2320.68 L3290.03 2319.94 L3286.59 2317.60 L3281.54 2314.28 L3280.31 2314.40 L3278.35 2314.04 L3276.63 2313.05 L3275.40 2311.70 L3272.20 2308.87 L3269.99 2306.29 L3268.14 2304.44 L3266.79 2303.34 L3265.07 2302.35 L3263.84 2301.98 L3262.36 2301.74 L3260.39 2301.74 L3258.55 2302.11 L3256.58 2302.97 L3254.24 2304.81 L3252.03 2306.90 L3249.94 2308.13 L3248.34 2308.62 L3246.62 2308.75 L3244.28 2308.75 L3242.32 2308.75 L3240.47 2308.62 L3239.37 2308.26 L3237.77 2307.52 L3236.78 2306.53 L3235.68 2305.06 L3234.20 2302.60 L3233.09 2300.88 L3231.74 2299.40 L3230.39 2298.54 L3228.79 2297.80 L3227.07 2297.43 L3225.10 2297.19 L3223.50 2297.06 L3222.03 2297.19 L3219.81 2297.56 L3217.35 2298.91 L3215.63 2300.26 L3218.58 2308.01 L3219.69 2311.70 L3220.55 2314.53 L3220.43 2317.85 L3221.54 2321.29 L3218.83 2333.34 L3214.40 2336.30 L3213.79 2337.77 L3216.49 2342.32 L3215.26 2349.95 L3217.85 2353.88 L3219.94 2359.42 L3217.85 2365.93 L3218.58 2369.50 L3217.85 2373.44 L3217.60 2374.42 L3213.79 2381.06 L3207.39 2406.40 L3205.30 2422.26 L3198.91 2437.02 L3192.88 2445.38 L3191.28 2452.14 L3192.02 2454.73 L3192.15 2462.72 L3191.90 2464.07 L3192.76 2468.38 L3197.43 2475.63 L3199.03 2480.06 L3198.29 2484.61 L3192.27 2493.96 L3192.51 2495.93 L3194.24 2498.02 L3204.44 2504.53 L3207.52 2507.98 L3206.29 2514.50 L3210.59 2521.38 L3210.84 2521.63 L3210.71 2525.20 L3214.40 2531.59 L3214.28 2534.91 L3211.57 2545.00 L3220.43 2547.09 L3220.80 2547.70 L3220.67 2553.73 L3217.23 2568.73 L3213.54 2574.63 L3210.84 2583.37 L3210.47 2590.50 L3210.10 2596.77 L3207.03 2610.05 L3207.64 2616.20 L3210.10 2621.98 L3216.00 2630.96 L3216.37 2634.77 L3215.39 2633.91 L3213.05 2632.07 L3208.99 2628.38 L3206.78 2626.41 L3205.06 2624.20 L3204.32 2622.84 L3203.58 2621.37 L3201.98 2619.65 L3200.02 2617.68 L3197.93 2615.22 L3196.33 2612.64 L3194.85 2611.16 L3193.74 2610.05 L3192.39 2609.56 L3190.30 2608.95 L3188.33 2608.70 L3186.37 2608.09 L3184.77 2607.10 L3180.71 2603.66 L3178.25 2601.94 L3176.65 2601.20 L3174.93 2600.58 L3173.82 2600.34 L3173.09 2600.22 L3168.29 2599.72 L3165.83 2599.72 L3164.23 2599.85 L3163.13 2600.34 L3162.14 2600.71 L3160.54 2600.34 L3155.01 2599.85 L3148.98 2599.35 L3137.92 2597.26 L3131.40 2595.42 L3126.36 2593.21 L3121.32 2589.27 L3118.61 2584.10 L3114.43 2579.55 L3112.71 2578.45 L3110.25 2577.09 L3110.13 2575.86 L3109.51 2573.77 L3109.14 2572.67 L3108.53 2570.08 L3107.79 2568.85 L3106.93 2566.40 L3105.45 2563.81 L3102.62 2560.86 L3100.29 2558.89 L3098.44 2557.17 L3097.21 2556.06 L3096.11 2555.33 L3094.75 2553.73 L3094.14 2552.87 L3091.93 2549.55 L3088.97 2544.01 L3086.15 2539.09 L3083.69 2534.05 L3081.11 2527.04 L3080.61 2525.32 L3079.75 2522.00 L3076.06 2519.78 L3073.85 2518.55 L3071.76 2518.06 L3069.55 2517.94 L3066.96 2518.31 L3064.63 2519.17 L3061.92 2520.40 L3059.34 2522.00 L3057.13 2523.60 L3055.90 2524.58 L3054.42 2526.30 L3044.46 2535.28 L3039.05 2538.60 L3031.18 2541.55 L3018.27 2544.63 L3017.28 2544.87 L3015.81 2546.72 L3012.49 2547.09 L2985.31 2549.92 L2985.68 2548.56 L2989.12 2539.09 L2992.94 2533.56 L2997.98 2530.12 L2999.82 2521.51 L3002.53 2518.68 L3003.27 2512.04 L3002.77 2511.05 L3003.63 2507.49 L3004.86 2502.08 L3006.46 2495.43 L3007.20 2492.24 L3009.78 2487.93 L2984.33 2481.66 L2978.30 2480.18 L2977.81 2479.08 L2962.93 2475.63 L2961.33 2475.27 L2926.78 2466.66 L2905.75 2461.74 L2887.43 2457.19 L2879.68 2489.16 L2874.27 2510.19 L2861.61 2510.07 L2859.27 2510.07 L2853.61 2509.95 L2831.23 2509.33 L2816.60 2509.33 L2814.14 2509.33 L2792.74 2508.96 L2780.69 2508.59 L2765.20 2508.22 L2761.51 2508.35 L2752.53 2508.47 L2744.42 2508.72 L2736.55 2508.84 L2728.92 2508.96 L2708.14 2509.21 L2690.93 2509.33 L2639.89 2509.95 L2609.03 2510.44 L2584.07 2510.44 L2573.49 2510.56 L2573.12 2510.56 L2571.89 2512.28 L2570.05 2513.88 L2566.60 2515.85 L2565.37 2517.57 L2564.88 2518.55 L2557.01 2518.55 L2542.38 2510.93 L2530.33 2506.87 L2530.20 2506.01 L2523.93 2501.95 L2514.59 2496.05 L2487.41 2488.06 L2483.48 2486.46 L2482.12 2491.38 L2480.65 2496.79 L2480.40 2497.52 L2482.99 2500.11 L2486.18 2501.46 L2492.45 2508.84 L2499.09 2512.41 L2502.05 2514.74 L2504.50 2518.68 L2506.23 2526.18 L2513.73 2539.58 L2514.59 2544.01 L2514.34 2552.87 L2512.87 2560.74 L2512.87 2566.27 L2513.97 2572.54 L2518.52 2585.21 L2520.37 2596.03 L2517.66 2606.86 L2514.59 2610.18 L2512.74 2612.14 L2510.53 2616.08 L2509.05 2620.88 L2511.51 2634.40 L2512.62 2646.21 L2514.34 2655.93 L2514.10 2658.88 L2515.69 2668.59 L2518.40 2677.20 L2518.65 2681.88 L2516.68 2690.73 L2515.82 2694.30 L2515.33 2696.14 L2515.20 2701.43 L2515.08 2708.44 L2516.80 2721.97 L2515.45 2727.38 L2509.30 2736.23 L2504.14 2741.28 L2501.92 2750.25 L2499.22 2752.34 L2478.44 2760.22 L2468.11 2766.86 L2452.86 2774.24 L2447.82 2777.68 L2443.27 2786.41 L2425.56 2799.45 L2390.64 2830.07 L2376.13 2848.02 L2370.47 2851.84 L2369.12 2845.32 L2366.04 2829.45 L2360.88 2802.64 L2356.82 2781.49 L2356.20 2778.54 L2354.73 2771.04 L2352.02 2757.14 L2348.33 2737.83 L2347.97 2736.23 L2346.24 2726.76 L2344.65 2727.26 L2344.52 2726.03 L2341.57 2710.41 L2338.99 2696.51 L2338.00 2692.08 L2336.78 2687.78 L2334.32 2682.24 L2333.09 2679.29 L2331.86 2676.10 L2330.01 2670.44 L2329.03 2665.40 L2328.91 2661.58 L2328.78 2659.25 L2328.91 2654.94 L2329.15 2651.62 L2329.40 2649.90 L2330.63 2645.35 L2331.36 2642.64 L2332.10 2640.68 L2332.72 2639.08 L2334.68 2635.14 L2319.19 2618.91 L2337.76 2584.84 L2335.67 2580.42 L2325.83 2560.12 L2322.26 2552.25 L2320.30 2547.95 L2319.93 2548.19 L2316.36 2550.90 L2312.18 2556.43 L2306.28 2563.57 L2300.99 2566.64 L2296.69 2566.40 L2295.70 2560.98 L2292.26 2550.28 L2292.14 2546.96 L2285.37 2545.49 L2277.26 2549.05 L2275.17 2546.96 L2273.69 2545.00 L2273.32 2544.14 L2273.45 2543.77 L2273.57 2543.64 L2274.18 2543.15 L2275.91 2541.55 L2277.50 2539.58 L2278.36 2537.49 L2278.86 2535.28 L2279.23 2531.10 L2279.35 2530.48 L2279.72 2518.80 L2279.72 2516.83 L2278.36 2516.83 L2275.41 2515.97 L2272.83 2514.99 L2270.74 2513.64 L2268.40 2511.67 L2266.81 2510.07 L2266.07 2501.83 L2265.21 2497.16 L2264.10 2492.73 L2262.63 2487.32 L2259.67 2477.85 L2256.23 2470.96 L2251.43 2465.06 L2246.27 2459.28 L2240.49 2453.37 L2234.96 2447.96 L2230.04 2443.29 L2226.96 2441.08 L2224.87 2439.85 L2222.91 2438.86 L2217.37 2436.77 L2214.91 2435.54 L2212.95 2433.82 L2210.98 2431.73 L2209.87 2429.27 L2209.26 2426.93 L2209.26 2426.44 L2209.01 2424.10 L2209.26 2421.40 L2209.99 2418.57 L2210.61 2416.60 L2211.59 2414.63 L2213.07 2412.42 L2216.27 2409.35 L2220.45 2405.29 L2224.26 2401.60 L2225.61 2399.51 L2226.47 2397.54 L2227.09 2395.45 L2227.58 2392.62 L2227.70 2390.53 L2227.58 2389.18 L2230.53 2392.13 L2241.97 2394.71 L2225.00 2375.40 L2221.80 2372.45 L2218.60 2370.24 L2215.53 2368.76 L2211.96 2367.78 L2205.81 2366.55 L2199.05 2365.20 L2194.99 2364.21 L2191.80 2362.74 L2171.14 2354.00 L2154.54 2346.26 L2147.16 2342.44 L2145.44 2341.83 L2142.85 2340.97 L2141.13 2340.72 L2137.44 2340.48 L2135.60 2340.35 L2132.03 2340.11 L2130.68 2340.11 L2118.14 2339.37 L2108.91 2338.88 L2098.09 2338.14 L2096.62 2338.02 L2093.79 2338.63 L2092.31 2339.00 L2090.96 2339.62 L2089.85 2340.35 L2088.75 2341.09 L2087.76 2341.95 L2086.66 2343.06 L2085.67 2344.53 L2084.44 2346.75 L2083.34 2348.59 L2082.23 2350.19 L2081.74 2350.68 L2081.12 2351.18 L2080.63 2351.42 L2080.02 2351.67 L2079.52 2351.79 L2079.03 2351.79 L2077.93 2351.79 L2076.94 2351.67 L2075.96 2351.54 L2074.48 2351.18 L2069.44 2350.07 L2063.17 2348.22 L2059.11 2347.24 L2056.28 2346.50 L2047.80 2344.17 L2044.23 2343.31 L2042.51 2342.81 L2041.28 2342.57 L2040.17 2342.57 L2034.27 2342.69 L2027.14 2342.94 L2018.16 2343.43 L2015.09 2343.55 L2014.11 2343.67 L2004.76 2343.43 L2003.28 2343.43 L1999.10 2343.67 L1995.66 2343.92 L1989.88 2344.66 L1986.56 2345.27 L1983.49 2346.01 L1980.17 2347.24 L1970.82 2352.41 L1970.70 2352.53 L1968.85 2353.76 L1967.38 2354.87 L1966.15 2355.85 L1964.67 2357.33 L1963.57 2358.55 L1962.70 2360.15 L1961.97 2361.26 L1960.98 2362.86 L1960.49 2364.46 L1959.51 2367.90 L1959.14 2370.12 L1959.14 2372.94 L1959.02 2375.90 L1958.89 2378.48 L1958.77 2380.57 L1958.52 2384.63 L1959.88 2388.19 L1959.63 2391.88 L1964.79 2397.29 L1966.89 2402.83 L1966.27 2420.17 L1968.98 2426.69 L1971.19 2428.78 L1964.30 2432.10 L1957.54 2431.85 L1950.53 2426.93 L1945.86 2421.28 L1943.64 2412.30 L1943.15 2412.67 L1918.68 2422.38 L1917.57 2417.83 L1907.25 2422.01 L1895.44 2424.23 L1893.72 2424.60 L1882.28 2423.86 L1867.28 2421.03 L1861.01 2419.80 L1857.32 2416.97 L1853.88 2412.42 L1852.03 2408.73 L1850.31 2404.80 L1849.82 2398.16 L1848.22 2396.68 L1828.91 2378.85 L1810.96 2363.23 L1808.26 2367.53 L1806.66 2374.05 L1806.16 2389.05 L1806.29 2396.80 L1805.92 2402.09 L1804.94 2405.90 L1801.49 2409.47 L1796.94 2411.68 L1794.36 2411.07 L1787.23 2408.12 L1783.91 2406.64 L1771.98 2401.48 L1755.50 2396.31 L1746.77 2395.45 L1747.26 2396.93 L1748.62 2402.95 L1752.06 2416.60 L1752.43 2435.66 L1741.11 2460.75 L1739.15 2461.49 L1734.23 2463.83 L1730.42 2471.08 L1730.91 2475.88 L1729.92 2479.32 L1729.31 2480.55 L1728.57 2481.17 L1727.59 2481.41 L1726.73 2481.29 L1721.44 2479.32 L1708.65 2472.07 L1707.05 2471.94 L1705.70 2472.44 L1704.47 2473.91 L1702.01 2476.74 L1698.81 2480.55 L1690.94 2498.39 L1688.36 2499.37 L1676.19 2494.45 L1672.62 2495.19 L1626.38 2520.28 L1620.97 2521.38 L1617.41 2526.18 L1603.88 2534.42 L1597.98 2533.93 L1573.51 2547.70 L1565.88 2546.47 L1556.29 2550.04 L1551.62 2552.62 L1550.76 2553.36 L1547.32 2561.84 L1544.24 2564.06 L1506.37 2582.01 L1497.02 2586.32 L1492.23 2586.07 L1488.78 2586.69 L1473.17 2599.48 L1467.51 2600.46 L1458.90 2604.64 L1457.55 2607.84 L1455.21 2610.67 L1442.05 2616.69 L1439.47 2619.15 L1433.08 2636.86 L1418.44 2640.18 L1409.47 2642.40 L1399.75 2645.47 L1391.64 2654.20 L1391.51 2654.82 L1391.39 2656.54 L1392.25 2658.88 L1395.45 2665.15 L1399.02 2668.59 L1398.65 2669.70 L1397.29 2671.18 L1395.45 2672.41 L1394.10 2672.77 L1393.24 2673.14 L1392.13 2673.39 L1390.90 2673.64 L1389.55 2673.64 L1388.56 2673.39 L1387.46 2672.90 L1386.10 2672.41 L1385.00 2671.54 L1378.11 2667.49 L1375.16 2665.40 L1370.24 2660.23 L1367.90 2654.08 L1367.54 2654.08 L1363.35 2655.31 L1354.50 2665.76 L1347.37 2666.99 L1334.33 2672.90 L1319.95 2691.22 L1319.70 2691.47 L1316.26 2692.70 L1308.39 2690.61 L1299.53 2692.45 L1289.70 2697.49 L1278.14 2703.40 L1275.43 2707.70 L1268.05 2719.39 L1265.10 2722.83 L1260.55 2726.40 L1234.48 2736.73 L1225.14 2740.54 L1223.66 2741.15 L1221.69 2742.14 L1216.65 2746.44 L1203.50 2759.97 L1198.08 2762.18 L1192.80 2762.06 L1186.03 2760.09 L1185.91 2760.09 L1185.54 2760.09 L1181.36 2759.97 L1175.83 2761.94 L1172.26 2765.13 L1169.92 2768.46 L1149.51 2763.54 L1146.07 2765.01 L1145.70 2764.89 L1143.73 2764.64 L1142.50 2762.18 L1140.90 2756.77 L1136.48 2745.95 L1131.19 2740.66 L1130.70 2740.17 L1125.66 2736.85 L1120.25 2737.34 L1118.65 2737.46 L1112.25 2740.29 L1106.23 2745.58 L1101.80 2747.30 L1097.62 2750.50 L1092.33 2754.68 L1091.72 2755.17 L1089.50 2759.48 L1080.90 2758.74 L1077.82 2759.23 L1068.48 2765.26 L1057.90 2768.95 L1051.75 2773.25 L1045.73 2774.11 L1035.77 2774.97 L1035.77 2774.97 Z" stroke-linejoin="round"/>
	</defs>
	<use xlink:href="#path_rLWxmDCq" style="fill:#9DC8CA;stroke:#6BB4D2;stroke-width:5.76"/>
	<defs>
		<path id="path_DyECaXUa" d="M1223.05 1192.19 L1223.05 1192.19 L1218.37 1209.16 L1215.91 1208.30 L1207.43 1205.60 L1208.05 1203.01 L1208.91 1199.32 L1211.61 1189.24 L1206.82 1187.89 L1195.99 1185.43 L1183.94 1182.23 L1173.61 1179.65 L1173.12 1179.40 L1160.95 1176.20 L1158.73 1175.59 L1155.17 1174.73 L1147.54 1173.01 L1145.82 1172.64 L1137.21 1170.55 L1135.49 1170.05 L1135.12 1169.93 L1126.27 1167.72 L1124.06 1167.23 L1103.77 1162.31 L1090.36 1158.86 L1079.42 1155.54 L1075.61 1154.68 L1060.85 1150.75 L1055.32 1149.39 L1052.24 1148.53 L1040.56 1145.58 L1036.63 1144.47 L1035.89 1144.35 L1032.32 1143.49 L1021.75 1140.66 L1004.41 1136.23 L1003.06 1135.86 L969.73 1127.38 L939.36 1120.49 L927.68 1117.42 L927.18 1116.80 L924.23 1116.06 L923.86 1115.94 L921.16 1115.08 L918.08 1114.22 L915.26 1113.36 L912.55 1112.62 L909.35 1112.01 L907.02 1111.51 L904.44 1111.39 L903.21 1111.02 L902.47 1110.41 L901.61 1109.42 L901.36 1108.81 L900.99 1108.19 L900.38 1107.95 L899.89 1107.95 L899.27 1107.95 L898.90 1108.07 L897.92 1107.58 L896.69 1106.47 L895.09 1105.00 L893.37 1103.03 L891.28 1099.83 L891.03 1099.22 L890.17 1097.00 L889.92 1096.51 L889.31 1094.42 L889.19 1094.17 L887.59 1088.64 L886.97 1086.79 L886.24 1084.58 L885.01 1082.49 L883.90 1081.01 L883.65 1080.77 L881.93 1078.68 L880.83 1077.33 L879.72 1078.55 L877.75 1075.85 L876.28 1074.25 L871.73 1069.33 L871.48 1068.96 L869.02 1066.26 L867.79 1064.90 L867.67 1064.78 L866.56 1063.92 L867.18 1063.67 L868.04 1062.94 L868.28 1062.08 L868.41 1061.71 L868.41 1061.09 L868.28 1060.60 L867.91 1060.11 L867.30 1059.74 L866.68 1059.62 L866.19 1059.49 L865.21 1058.88 L862.26 1056.17 L851.56 1044.00 L843.07 1035.39 L841.84 1034.28 L840.98 1032.81 L840.00 1031.21 L839.63 1031.82 L838.89 1032.31 L838.40 1032.56 L837.66 1032.44 L837.05 1032.19 L836.43 1031.58 L836.19 1031.08 L835.94 1030.35 L836.06 1029.49 L836.43 1028.62 L835.82 1027.39 L834.34 1025.30 L832.87 1023.58 L832.74 1022.35 L831.51 1020.51 L829.92 1017.56 L826.23 1009.93 L825.74 1008.58 L825.24 1007.47 L823.77 1003.17 L822.17 998.49 L815.77 978.20 L812.33 967.26 L806.06 946.47 L802.99 935.03 L797.45 936.88 L796.47 937.13 L793.39 937.37 L785.77 936.26 L782.70 935.28 L772.74 932.94 L765.36 931.22 L760.32 929.99 L751.22 927.78 L749.37 927.29 L734.98 923.23 L727.98 917.94 L728.34 915.11 L730.31 904.78 L730.56 903.18 L735.72 896.91 L741.50 890.15 L742.49 888.92 L743.47 887.32 L744.70 883.26 L745.31 882.28 L746.54 880.92 L747.53 879.69 L748.26 878.22 L750.97 869.61 L749.49 868.99 L749.74 867.52 L750.60 864.57 L751.22 860.88 L751.71 857.56 L752.32 853.62 L753.43 850.05 L753.31 849.19 L752.08 843.90 L751.59 841.81 L751.46 840.71 L751.46 839.60 L751.83 833.21 L751.71 830.75 L751.46 829.88 L751.22 829.15 L750.60 828.29 L748.88 826.56 L746.67 825.46 L744.58 824.60 L744.08 824.23 L743.59 823.74 L742.36 821.89 L740.64 819.68 L739.04 818.20 L738.06 817.59 L737.20 817.22 L735.97 816.11 L734.00 814.02 L733.26 813.41 L732.52 813.28 L730.43 813.04 L729.20 812.54 L728.34 811.81 L726.13 809.72 L724.16 807.26 L721.33 805.17 L719.49 804.43 L719.00 804.18 L718.38 803.57 L717.89 801.84 L717.52 801.11 L717.15 800.61 L715.19 799.26 L714.82 798.65 L714.20 797.17 L713.71 796.43 L711.50 794.71 L709.16 793.60 L708.55 792.99 L707.69 791.76 L706.70 789.67 L706.46 789.42 L705.47 788.93 L704.24 787.33 L703.87 787.09 L703.14 786.72 L701.54 786.59 L701.17 786.47 L700.92 786.23 L699.82 784.38 L698.59 783.27 L696.62 782.04 L695.63 781.68 L691.70 780.81 L690.47 780.45 L688.63 779.22 L686.90 777.74 L679.16 769.38 L678.91 769.01 L678.30 766.55 L677.43 764.46 L676.94 763.84 L676.57 763.23 L675.84 761.88 L674.85 760.52 L673.87 759.66 L670.79 758.80 L670.30 758.55 L669.81 757.94 L669.44 750.56 L669.20 748.59 L667.47 744.53 L667.11 743.31 L666.74 738.75 L666.49 737.52 L666.24 736.79 L664.28 734.20 L663.17 732.97 L661.94 731.74 L656.53 727.56 L653.46 725.23 L651.24 724.86 L650.50 724.12 L648.91 722.64 L648.05 722.77 L640.54 712.44 L636.49 707.52 L627.63 694.73 L621.73 686.36 L619.15 683.29 L611.40 676.53 L609.31 674.80 L602.79 670.99 L599.35 668.53 L596.40 667.79 L592.09 667.43 L590.74 666.69 L587.91 665.58 L586.32 665.58 L584.72 665.33 L583.36 664.72 L582.63 663.98 L581.64 662.75 L580.78 660.29 L580.04 658.94 L578.81 657.59 L577.95 656.97 L577.34 656.60 L575.49 655.99 L575.12 655.74 L574.51 655.25 L574.51 654.39 L574.14 653.04 L571.56 647.99 L569.71 645.29 L568.85 644.55 L567.99 644.18 L567.38 643.44 L565.78 642.46 L563.57 641.60 L562.58 641.11 L561.72 640.00 L559.51 635.57 L558.03 632.01 L557.79 630.04 L557.54 629.05 L556.19 627.70 L556.06 627.09 L556.19 625.12 L556.43 624.01 L556.80 623.15 L558.16 621.55 L559.02 620.32 L559.51 619.34 L560.12 617.49 L560.37 616.39 L560.25 613.68 L560.61 611.96 L560.86 611.47 L561.72 610.48 L564.43 608.15 L565.29 607.78 L566.03 607.66 L567.01 607.29 L567.62 606.92 L569.10 605.20 L570.08 603.84 L570.33 603.23 L570.82 600.77 L572.54 595.97 L573.65 593.39 L574.02 592.77 L574.63 592.16 L577.34 590.32 L578.08 589.21 L578.57 587.98 L578.81 587.12 L578.94 586.63 L578.81 586.26 L577.09 583.43 L576.85 582.94 L576.85 581.95 L577.71 576.91 L578.08 575.56 L578.45 574.70 L579.31 573.47 L582.75 567.44 L583.24 566.46 L583.49 564.98 L584.10 558.95 L583.98 557.48 L583.24 554.40 L579.06 544.32 L578.69 542.72 L578.45 539.65 L578.57 535.59 L578.69 534.24 L577.83 531.28 L577.83 528.21 L577.58 527.35 L576.97 525.75 L575.37 520.83 L573.90 517.14 L573.40 516.28 L571.80 513.70 L582.99 507.43 L583.12 506.20 L583.49 504.10 L584.47 500.78 L585.70 497.46 L586.68 495.50 L588.53 492.18 L590.37 489.59 L592.71 487.13 L594.18 485.78 L596.64 483.94 L598.24 482.95 L601.44 481.48 L604.88 480.37 L618.78 476.80 L636.49 472.38 L646.57 469.79 L660.10 466.10 L666.98 463.27 L673.13 459.58 L680.51 453.80 L698.22 439.42 L700.06 437.82 L707.32 431.05 L709.53 418.88 L726.01 350.25 L728.96 337.59 L760.44 213.50 L778.64 126.67 L781.71 112.77 L790.20 75.76 L793.64 48.82 L796.35 28.29 L801.02 29.39 L802.62 28.90 L803.23 29.15 L805.94 33.94 L806.31 34.56 L819.34 37.14 L835.57 40.34 L877.14 52.64 L954.36 67.15 L949.32 86.46 L923.74 191.36 L900.99 282.74 L875.78 382.23 L862.50 435.23 L848.48 487.62 L845.66 498.32 L840.74 516.53 L841.23 516.89 L842.21 517.63 L842.95 517.88 L843.20 517.76 L843.93 517.02 L844.67 516.77 L845.29 516.89 L846.02 517.26 L846.64 517.76 L848.12 519.48 L848.85 520.71 L848.85 521.45 L848.98 522.80 L849.71 523.66 L850.57 524.77 L850.57 525.26 L850.33 525.87 L849.96 526.36 L848.98 526.61 L848.85 526.73 L848.73 526.86 L848.48 526.98 L848.48 527.23 L848.36 527.47 L846.52 535.10 L846.52 536.45 L846.89 537.92 L847.13 539.40 L847.25 540.26 L847.01 542.11 L846.52 543.83 L846.27 545.55 L846.39 546.53 L847.01 548.50 L848.48 551.58 L849.10 552.31 L849.47 552.68 L850.08 552.81 L850.45 552.81 L851.07 552.44 L852.30 552.19 L852.67 552.31 L853.89 553.17 L854.88 553.67 L857.34 554.65 L860.17 556.37 L861.89 556.99 L862.38 557.36 L862.63 558.09 L862.99 559.82 L862.99 560.80 L862.75 562.03 L862.75 563.01 L862.87 563.38 L863.12 563.63 L863.49 563.75 L864.22 563.87 L864.35 563.87 L864.35 564.00 L864.47 564.00 L864.47 564.12 L864.47 564.24 L864.72 565.72 L864.96 566.70 L865.33 567.19 L866.56 568.55 L867.05 568.79 L867.67 568.67 L868.53 568.18 L868.90 568.06 L869.39 568.30 L870.62 569.29 L871.85 570.76 L872.59 571.01 L873.32 570.88 L874.80 570.51 L877.63 570.02 L878.61 570.02 L879.60 570.51 L881.07 571.13 L882.30 572.24 L883.78 573.84 L885.50 576.05 L893.12 585.52 L897.06 591.54 L900.99 596.34 L901.48 596.83 L902.34 596.71 L904.56 596.22 L905.79 595.60 L907.63 594.99 L908.49 594.50 L909.60 594.25 L912.18 592.90 L913.53 591.54 L914.64 590.68 L917.72 588.96 L918.82 585.27 L919.68 582.32 L920.79 579.98 L923.50 575.19 L927.06 569.65 L933.82 560.31 L937.64 555.02 L939.60 552.31 L941.57 549.73 L943.91 546.41 L946.86 543.09 L951.78 540.02 L955.71 537.06 L958.42 536.20 L960.51 531.04 L961.98 530.18 L962.48 528.46 L964.69 521.94 L974.04 515.17 L992.60 503.86 L1023.35 437.82 L1050.15 417.40 L1090.12 391.82 L1122.70 370.55 L1124.43 368.58 L1127.99 364.27 L1128.12 364.03 L1134.51 357.76 L1145.33 347.06 L1151.97 337.22 L1158.73 326.03 L1162.55 319.51 L1172.88 312.38 L1188.74 316.56 L1192.67 317.42 L1205.71 320.98 L1208.05 321.35 L1210.38 321.60 L1213.09 321.35 L1215.79 320.61 L1218.01 319.75 L1223.17 317.17 L1226.86 312.50 L1232.15 308.56 L1235.22 308.07 L1240.39 309.05 L1252.31 302.29 L1256.13 302.54 L1259.08 300.57 L1265.84 303.03 L1266.70 302.41 L1268.67 304.75 L1268.67 305.24 L1268.79 306.47 L1269.78 306.10 L1272.60 302.78 L1275.31 299.58 L1277.77 297.49 L1278.26 297.13 L1279.00 296.02 L1281.58 292.57 L1282.93 291.71 L1285.15 291.47 L1287.97 290.61 L1288.96 290.36 L1291.29 291.22 L1295.48 285.20 L1301.26 284.21 L1315.77 278.19 L1320.19 281.26 L1326.10 278.43 L1330.89 278.06 L1337.53 275.48 L1340.61 275.23 L1348.35 277.08 L1356.71 261.46 L1357.21 261.58 L1358.44 261.83 L1358.31 263.67 L1359.30 267.98 L1369.13 274.87 L1371.35 276.46 L1378.36 274.50 L1383.15 272.77 L1388.93 296.26 L1390.16 305.00 L1391.64 310.90 L1391.88 316.31 L1391.88 317.17 L1393.48 315.82 L1396.43 313.24 L1396.56 314.47 L1396.80 315.57 L1397.17 316.56 L1398.03 317.42 L1398.89 317.91 L1401.23 318.65 L1401.11 320.25 L1408.24 324.43 L1411.56 325.17 L1412.66 325.53 L1419.31 327.01 L1425.08 330.95 L1432.71 332.79 L1435.17 334.88 L1448.82 368.70 L1452.14 372.51 L1459.76 381.37 L1461.48 376.82 L1454.72 371.53 L1455.70 368.58 L1460.87 351.48 L1461.61 350.13 L1463.82 346.93 L1467.39 341.89 L1467.88 340.78 L1468.25 339.55 L1468.12 334.76 L1467.39 333.65 L1487.43 303.27 L1498.99 286.92 L1500.96 283.60 L1502.80 280.77 L1508.70 274.00 L1521.00 260.72 L1521.62 261.71 L1522.97 262.81 L1525.18 263.55 L1526.66 263.80 L1528.26 263.67 L1530.35 263.43 L1531.70 263.55 L1532.93 264.17 L1535.14 265.27 L1537.85 267.73 L1546.09 277.69 L1552.11 284.58 L1557.03 289.01 L1563.18 295.03 L1567.48 299.83 L1571.29 305.61 L1573.02 307.82 L1574.74 309.55 L1579.90 316.06 L1581.38 317.29 L1584.82 319.14 L1587.16 320.74 L1590.85 323.07 L1593.18 324.18 L1595.40 324.43 L1599.45 325.41 L1599.33 325.78 L1599.45 325.90 L1601.05 326.64 L1606.59 329.22 L1611.38 332.67 L1618.76 339.43 L1623.68 345.33 L1631.43 350.99 L1636.71 358.49 L1648.03 369.68 L1654.91 374.60 L1668.32 383.34 L1672.01 388.38 L1674.71 394.04 L1675.57 396.86 L1675.33 411.25 L1672.74 431.91 L1710.74 439.66 L1713.20 440.52 L1747.02 450.98 L1766.82 456.51 L1769.40 457.86 L1778.99 460.69 L1788.46 464.26 L1788.21 466.10 L1787.47 468.93 L1786.98 469.79 L1786.37 470.28 L1797.56 484.92 L1798.91 488.61 L1798.54 496.73 L1799.65 499.31 L1802.23 501.77 L1807.76 509.64 L1823.87 503.61 L1841.09 502.26 L1859.41 512.71 L1871.83 510.99 L1886.83 514.68 L1904.54 529.93 L1903.68 543.09 L1898.39 554.28 L1900.97 562.15 L1896.30 594.00 L1901.22 598.43 L1904.91 601.88 L1921.51 607.66 L1922.74 613.68 L1922.99 615.28 L1898.51 652.91 L1897.16 655.62 L1892.49 664.97 L1882.41 678.12 L1880.07 695.59 L1884.74 709.73 L1864.58 704.44 L1860.39 703.34 L1844.41 701.25 L1832.23 715.14 L1831.13 732.24 L1843.67 754.13 L1849.57 764.58 L1850.68 766.43 L1868.14 794.22 L1881.67 806.89 L1879.82 821.64 L1861.38 836.16 L1833.22 858.42 L1805.06 882.03 L1798.42 908.96 L1797.43 910.19 L1796.94 911.67 L1794.73 914.99 L1792.39 918.06 L1791.41 919.66 L1790.92 920.77 L1790.55 921.75 L1789.81 923.97 L1789.07 926.30 L1788.33 931.47 L1788.09 933.56 L1788.21 935.40 L1788.21 937.13 L1788.33 941.18 L1788.83 945.24 L1788.70 948.19 L1788.46 953.11 L1788.09 960.74 L1788.21 968.24 L1788.21 969.84 L1788.09 971.31 L1787.35 975.37 L1786.86 977.83 L1786.74 978.45 L1786.24 979.55 L1782.80 989.27 L1782.19 990.75 L1781.45 991.73 L1780.59 992.34 L1779.73 992.71 L1778.25 993.08 L1776.78 993.45 L1782.92 1034.53 L1783.54 1038.95 L1801.62 1051.50 L1875.40 1103.40 L1907.61 1105.12 L1922.12 1101.06 L1926.80 1108.07 L1895.69 1160.34 L1893.10 1174.97 L1858.18 1199.32 L1856.34 1200.68 L1796.20 1206.21 L1770.01 1229.09 L1758.21 1255.53 L1754.89 1255.90 L1741.48 1256.14 L1736.20 1257.74 L1724.51 1265.24 L1716.03 1271.88 L1707.91 1280.25 L1692.30 1286.89 L1687.62 1292.30 L1679.38 1298.94 L1675.33 1298.45 L1670.04 1296.60 L1662.17 1299.80 L1659.09 1301.28 L1660.94 1295.99 L1661.18 1291.07 L1656.76 1284.80 L1657.50 1278.03 L1656.39 1275.57 L1652.21 1274.59 L1569.33 1277.05 L1544.98 1265.61 L1542.27 1264.87 L1539.69 1263.64 L1537.60 1262.91 L1535.51 1262.04 L1530.35 1258.85 L1527.52 1256.51 L1526.66 1255.40 L1525.92 1253.93 L1525.43 1252.33 L1524.94 1250.36 L1524.81 1249.50 L1524.81 1246.06 L1525.43 1237.69 L1527.39 1220.60 L1528.50 1215.07 L1529.98 1208.67 L1532.07 1196.86 L1532.19 1193.67 L1530.35 1191.08 L1528.13 1187.76 L1524.20 1182.48 L1523.46 1181.37 L1521.74 1177.43 L1520.39 1175.34 L1518.42 1172.88 L1515.71 1168.46 L1514.85 1167.23 L1514.48 1166.86 L1511.41 1163.90 L1509.93 1163.04 L1507.97 1162.67 L1506.86 1162.43 L1505.88 1162.06 L1503.91 1161.20 L1503.05 1160.71 L1501.08 1160.09 L1499.73 1159.85 L1497.64 1159.60 L1495.42 1159.72 L1493.70 1160.09 L1490.75 1160.34 L1489.52 1160.22 L1486.82 1159.48 L1485.09 1159.48 L1478.08 1160.34 L1474.40 1160.34 L1473.53 1160.34 L1472.18 1159.97 L1469.85 1158.99 L1468.86 1158.62 L1466.53 1158.25 L1465.30 1158.37 L1462.22 1159.23 L1460.25 1159.48 L1459.88 1159.48 L1459.39 1159.35 L1458.29 1158.99 L1455.70 1157.39 L1454.60 1156.40 L1453.86 1155.54 L1453.12 1154.44 L1452.63 1152.84 L1451.77 1148.41 L1451.28 1143.86 L1411.56 1146.20 L1387.58 1147.55 L1358.31 1149.27 L1324.62 1158.25 L1324.13 1159.72 L1323.64 1160.46 L1322.90 1161.32 L1322.28 1161.94 L1321.67 1161.94 L1320.07 1161.32 L1311.95 1180.02 L1310.72 1182.72 L1308.76 1187.27 L1302.61 1189.73 L1300.76 1190.22 L1298.80 1190.47 L1295.48 1189.61 L1293.75 1188.87 L1292.77 1188.75 L1292.03 1189.36 L1290.56 1190.35 L1289.45 1191.82 L1287.24 1193.67 L1285.15 1194.90 L1280.97 1196.00 L1278.88 1196.86 L1272.36 1198.71 L1269.41 1199.45 L1267.68 1199.45 L1266.46 1198.71 L1265.96 1198.59 L1264.61 1199.08 L1263.38 1200.06 L1260.92 1202.40 L1260.31 1202.89 L1259.81 1203.14 L1258.46 1203.75 L1256.99 1203.63 L1256.25 1203.63 L1256.74 1201.66 L1245.92 1198.71 L1242.60 1196.74 L1241.86 1196.74 L1240.02 1196.50 L1228.83 1193.67 L1223.05 1192.19 L1223.05 1192.19 Z" stroke-linejoin="round"/>
	</defs>
	<use xlink:href="#path_DyECaXUa" style="fill:#6BACAF;stroke:#097D9B;stroke-width:5.76"/>
	<defs>
		<path id="path_ueFNfSxk" d="M701.17 1991.94 L701.17 1991.94 L699.32 1990.96 L698.83 1990.96 L698.22 1990.84 L698.83 1988.99 L699.82 1985.18 L706.58 1959.85 L706.70 1959.35 L708.55 1951.98 L707.44 1948.78 L706.95 1947.67 L706.70 1946.56 L706.70 1945.95 L709.04 1935.74 L704.61 1930.82 L705.47 1929.22 L706.09 1928.24 L706.46 1925.90 L708.18 1919.14 L698.46 1909.55 L696.00 1907.09 L692.44 1903.64 L689.85 1900.94 L687.03 1897.99 L683.09 1889.13 L674.24 1887.78 L672.15 1887.53 L672.27 1887.16 L667.47 1884.70 L664.89 1883.84 L664.77 1883.60 L659.85 1881.38 L655.79 1877.33 L654.81 1878.06 L653.46 1877.57 L647.55 1875.97 L639.19 1873.88 L636.61 1873.27 L635.01 1872.90 L633.29 1868.47 L628.99 1869.70 L628.62 1868.59 L621.48 1866.87 L619.52 1866.38 L615.58 1863.67 L613.49 1861.21 L611.28 1860.85 L610.54 1860.23 L610.29 1861.21 L598.24 1859.62 L592.46 1860.85 L590.99 1860.23 L586.07 1862.20 L582.50 1862.20 L577.34 1864.78 L574.14 1863.06 L572.67 1863.06 L570.94 1866.38 L570.82 1868.47 L570.82 1870.07 L570.70 1872.65 L570.58 1874.25 L570.45 1875.85 L570.45 1877.08 L569.84 1881.14 L569.47 1882.49 L568.61 1885.44 L567.25 1890.73 L566.64 1893.44 L566.52 1894.42 L566.52 1894.91 L566.39 1895.53 L566.03 1895.40 L565.29 1895.28 L563.81 1894.91 L559.51 1893.56 L559.26 1893.31 L556.31 1892.94 L553.36 1892.21 L550.78 1891.59 L549.67 1891.22 L546.72 1890.61 L539.59 1888.76 L537.37 1888.27 L539.46 1893.31 L533.44 1896.14 L529.50 1887.29 L521.02 1885.44 L521.39 1883.35 L522.62 1880.65 L523.72 1877.20 L524.46 1873.02 L524.95 1870.07 L524.83 1867.24 L524.83 1865.64 L524.58 1862.20 L523.85 1858.14 L522.86 1855.93 L521.76 1854.08 L518.81 1851.13 L516.47 1848.67 L515.24 1847.81 L513.39 1846.70 L513.15 1846.09 L513.15 1845.72 L513.64 1844.49 L514.26 1843.26 L516.10 1838.59 L516.71 1836.50 L517.08 1835.14 L517.33 1833.42 L516.71 1829.73 L516.84 1828.99 L517.21 1828.38 L515.49 1828.01 L514.87 1832.93 L514.13 1838.95 L513.39 1841.54 L511.92 1843.01 L509.34 1860.35 L509.09 1860.23 L507.62 1858.75 L503.93 1874.50 L503.43 1876.34 L503.68 1876.71 L503.07 1877.33 L502.45 1879.29 L495.93 1880.52 L494.83 1880.40 L493.47 1879.66 L490.15 1877.33 L489.54 1876.96 L487.94 1875.48 L487.57 1874.99 L486.83 1874.50 L485.97 1874.50 L485.60 1874.50 L478.59 1875.73 L476.87 1875.97 L474.41 1876.10 L474.04 1875.60 L473.31 1874.62 L471.83 1873.14 L470.97 1871.79 L470.11 1870.68 L469.49 1870.44 L468.76 1870.32 L467.65 1870.32 L465.07 1871.18 L461.99 1871.67 L457.81 1873.76 L457.07 1874.25 L454.98 1875.48 L452.65 1876.59 L452.03 1876.96 L451.42 1875.97 L446.50 1867.73 L445.52 1865.15 L445.15 1863.80 L444.41 1861.71 L443.30 1858.14 L442.32 1854.45 L441.58 1850.88 L438.26 1843.50 L437.03 1841.78 L436.17 1841.05 L435.56 1840.92 L434.45 1840.80 L433.34 1841.17 L432.36 1841.91 L429.78 1836.74 L429.28 1834.04 L429.41 1832.93 L429.65 1831.94 L430.02 1830.96 L430.76 1829.73 L431.37 1828.99 L432.24 1828.38 L434.08 1827.15 L436.05 1826.53 L436.91 1825.67 L437.52 1825.18 L439.00 1822.97 L439.98 1821.49 L440.35 1820.88 L440.84 1819.52 L440.97 1818.54 L440.72 1816.33 L439.86 1815.22 L438.14 1814.60 L435.06 1812.64 L434.33 1812.76 L433.34 1812.88 L432.36 1812.76 L429.65 1813.50 L427.19 1813.62 L424.98 1813.37 L423.14 1813.13 L420.55 1813.25 L417.60 1812.64 L415.02 1812.51 L411.21 1811.53 L409.85 1811.16 L408.50 1810.18 L405.92 1809.32 L405.67 1809.19 L405.31 1810.05 L404.69 1811.78 L404.44 1812.39 L404.20 1813.13 L403.71 1814.60 L403.09 1816.33 L402.72 1817.06 L402.72 1817.31 L402.35 1817.92 L402.11 1818.91 L401.49 1820.63 L400.88 1822.23 L399.40 1825.06 L397.68 1827.76 L394.61 1831.94 L393.25 1833.67 L389.32 1838.22 L385.63 1841.66 L385.14 1842.03 L384.89 1842.28 L384.28 1842.89 L383.05 1843.87 L382.06 1844.61 L381.69 1844.98 L380.22 1845.96 L379.97 1846.21 L376.28 1849.29 L375.18 1850.15 L372.23 1851.99 L371.61 1852.48 L371.00 1852.97 L366.94 1855.80 L366.57 1856.30 L366.20 1856.42 L365.83 1856.66 L365.09 1856.91 L354.03 1865.76 L353.41 1866.50 L351.44 1868.35 L350.71 1867.49 L349.97 1866.63 L349.48 1866.01 L348.49 1864.90 L348.00 1864.29 L346.65 1862.69 L347.88 1858.75 L348.74 1855.43 L349.85 1851.25 L351.57 1852.48 L357.96 1854.33 L358.82 1854.08 L363.37 1854.94 L364.73 1855.31 L365.71 1855.56 L366.57 1854.94 L367.06 1854.57 L369.03 1853.22 L374.81 1849.04 L375.79 1848.18 L378.74 1845.96 L379.36 1845.47 L381.20 1844.12 L384.28 1841.66 L385.02 1841.05 L388.58 1837.72 L392.52 1833.17 L393.75 1831.45 L396.82 1827.15 L398.42 1824.57 L399.89 1821.86 L400.51 1820.26 L401.37 1817.68 L380.71 1827.39 L369.77 1824.57 L370.26 1823.95 L376.04 1817.68 L384.77 1808.09 L382.19 1803.54 L390.43 1790.99 L380.22 1780.17 L410.59 1666.41 L441.09 1552.41 L442.93 1545.52 L442.93 1545.40 L444.04 1541.09 L446.75 1529.65 L447.48 1526.83 L448.59 1522.77 L448.96 1504.32 L442.69 1483.17 L442.81 1481.45 L443.43 1481.69 L453.88 1485.50 L464.08 1488.09 L467.04 1488.82 L469.86 1488.09 L474.41 1483.29 L478.35 1474.44 L483.76 1461.03 L489.66 1457.46 L499.62 1456.97 L512.41 1461.28 L514.01 1461.64 L517.21 1461.03 L521.51 1455.37 L525.08 1448.12 L529.87 1441.48 L531.72 1436.80 L532.21 1429.30 L530.36 1419.34 L526.92 1416.76 L523.11 1416.63 L521.63 1416.02 L521.63 1413.80 L521.39 1406.92 L521.14 1400.40 L521.26 1399.78 L521.88 1392.53 L520.90 1386.99 L520.16 1383.55 L517.82 1383.18 L507.25 1380.11 L499.75 1377.52 L490.52 1374.20 L487.94 1371.62 L475.52 1365.47 L473.31 1364.73 L472.57 1373.34 L469.99 1372.36 L470.48 1365.47 L467.40 1363.63 L469.99 1354.04 L470.11 1354.16 L479.95 1349.61 L498.76 1295.37 L500.73 1294.14 L502.70 1287.01 L503.93 1282.21 L499.01 1267.95 L497.04 1262.41 L500.61 1250.61 L509.83 1228.22 L512.78 1220.97 L514.50 1217.28 L527.17 1189.24 L536.14 1178.42 L538.48 1166.86 L539.34 1162.43 L538.73 1158.99 L538.97 1158.00 L538.11 1140.66 L540.82 1128.85 L542.17 1122.09 L538.23 1121.48 L548.32 1111.27 L548.44 1111.02 L551.51 1108.69 L566.15 1051.13 L572.42 1048.30 L582.50 1059.74 L591.36 1073.02 L596.28 1067.12 L604.27 1057.40 L614.72 1044.24 L618.78 1039.20 L619.89 1037.85 L627.88 1028.01 L636.12 1018.29 L668.83 978.57 L673.99 972.18 L681.25 963.20 L683.83 960.00 L688.99 953.73 L690.47 951.88 L691.21 950.78 L694.28 944.38 L695.39 942.29 L697.97 935.77 L698.71 934.30 L699.08 933.80 L700.80 932.70 L706.58 930.85 L708.79 929.50 L714.82 922.86 L720.84 914.99 L730.56 903.18 L730.31 904.78 L728.34 915.11 L727.98 917.94 L734.98 923.23 L749.37 927.29 L751.22 927.78 L760.32 929.99 L765.36 931.22 L772.74 932.94 L782.70 935.28 L785.77 936.26 L793.39 937.37 L796.47 937.13 L797.45 936.88 L802.99 935.03 L806.06 946.47 L812.33 967.26 L815.77 978.20 L822.17 998.49 L823.77 1003.17 L825.24 1007.47 L825.74 1008.58 L826.23 1009.93 L829.92 1017.56 L831.51 1020.51 L832.74 1022.35 L832.87 1023.58 L834.34 1025.30 L835.82 1027.39 L836.43 1028.62 L836.06 1029.49 L835.94 1030.35 L836.19 1031.08 L836.43 1031.58 L837.05 1032.19 L837.66 1032.44 L838.40 1032.56 L838.89 1032.31 L839.63 1031.82 L840.00 1031.21 L840.98 1032.81 L841.84 1034.28 L843.07 1035.39 L851.56 1044.00 L862.26 1056.17 L865.21 1058.88 L866.19 1059.49 L866.68 1059.62 L867.30 1059.74 L867.91 1060.11 L868.28 1060.60 L868.41 1061.09 L868.41 1061.71 L868.28 1062.08 L868.04 1062.94 L867.18 1063.67 L866.56 1063.92 L867.67 1064.78 L867.79 1064.90 L869.02 1066.26 L871.48 1068.96 L871.73 1069.33 L876.28 1074.25 L877.75 1075.85 L879.72 1078.55 L880.83 1077.33 L881.93 1078.68 L883.65 1080.77 L883.90 1081.01 L885.01 1082.49 L886.24 1084.58 L886.97 1086.79 L887.59 1088.64 L889.19 1094.17 L889.31 1094.42 L889.92 1096.51 L890.17 1097.00 L891.03 1099.22 L891.28 1099.83 L893.37 1103.03 L895.09 1105.00 L896.69 1106.47 L897.92 1107.58 L898.90 1108.07 L899.27 1107.95 L899.89 1107.95 L900.38 1107.95 L900.99 1108.19 L901.36 1108.81 L901.61 1109.42 L902.47 1110.41 L903.21 1111.02 L904.44 1111.39 L907.02 1111.51 L909.35 1112.01 L912.55 1112.62 L915.26 1113.36 L918.08 1114.22 L921.16 1115.08 L923.86 1115.94 L924.23 1116.06 L927.18 1116.80 L927.68 1117.42 L939.36 1120.49 L969.73 1127.38 L1003.06 1135.86 L1004.41 1136.23 L1021.75 1140.66 L1032.32 1143.49 L1035.89 1144.35 L1036.63 1144.47 L1040.56 1145.58 L1052.24 1148.53 L1055.32 1149.39 L1060.85 1150.75 L1075.61 1154.68 L1079.42 1155.54 L1090.36 1158.86 L1103.77 1162.31 L1124.06 1167.23 L1126.27 1167.72 L1135.12 1169.93 L1135.49 1170.05 L1137.21 1170.55 L1145.82 1172.64 L1147.54 1173.01 L1155.17 1174.73 L1158.73 1175.59 L1160.95 1176.20 L1173.12 1179.40 L1173.61 1179.65 L1183.94 1182.23 L1195.99 1185.43 L1206.82 1187.89 L1211.61 1189.24 L1208.91 1199.32 L1208.05 1203.01 L1207.43 1205.60 L1215.91 1208.30 L1218.37 1209.16 L1223.05 1192.19 L1228.83 1193.67 L1240.02 1196.50 L1241.86 1196.74 L1242.60 1196.74 L1245.92 1198.71 L1256.74 1201.66 L1256.25 1203.63 L1256.99 1203.63 L1258.46 1203.75 L1259.81 1203.14 L1260.31 1202.89 L1260.92 1202.40 L1263.38 1200.06 L1264.61 1199.08 L1265.96 1198.59 L1266.46 1198.71 L1267.68 1199.45 L1269.41 1199.45 L1272.36 1198.71 L1278.88 1196.86 L1280.97 1196.00 L1285.15 1194.90 L1287.24 1193.67 L1289.45 1191.82 L1290.56 1190.35 L1292.03 1189.36 L1292.77 1188.75 L1293.75 1188.87 L1295.48 1189.61 L1298.80 1190.47 L1300.76 1190.22 L1302.61 1189.73 L1308.76 1187.27 L1302.73 1212.97 L1299.66 1226.87 L1299.04 1237.45 L1298.55 1245.81 L1298.06 1256.88 L1295.60 1257.99 L1292.77 1259.58 L1292.52 1259.71 L1289.94 1261.92 L1288.59 1264.75 L1288.96 1265.49 L1288.47 1266.47 L1287.73 1266.47 L1286.74 1266.84 L1286.25 1267.46 L1285.88 1269.18 L1284.78 1270.28 L1283.42 1270.53 L1279.24 1274.96 L1276.91 1275.70 L1273.22 1279.26 L1271.13 1280.49 L1269.78 1281.97 L1268.18 1284.06 L1267.07 1284.67 L1265.96 1285.41 L1262.89 1286.03 L1257.72 1284.92 L1251.58 1283.44 L1259.81 1296.85 L1249.98 1304.10 L1262.15 1335.59 L1263.50 1337.56 L1265.47 1339.15 L1271.37 1341.86 L1269.65 1345.80 L1267.19 1348.38 L1265.72 1351.45 L1264.36 1355.63 L1264.73 1355.76 L1270.39 1357.11 L1275.92 1356.50 L1273.22 1366.21 L1234.11 1357.36 L1217.88 1353.67 L1211.37 1378.63 L1199.81 1423.77 L1176.07 1516.86 L1175.21 1516.86 L1096.39 1502.35 L1087.78 1500.75 L1082.13 1499.65 L1070.07 1497.43 L1071.18 1505.43 L1075.98 1507.76 L1078.31 1510.96 L1080.16 1512.19 L1081.88 1515.02 L1082.00 1515.14 L1082.74 1516.86 L1083.60 1519.32 L1084.34 1522.15 L1084.34 1522.89 L1084.46 1525.10 L1084.58 1525.10 L1084.71 1527.32 L1084.83 1527.81 L1084.71 1528.67 L1089.26 1530.51 L1089.50 1533.47 L1092.21 1540.11 L1095.65 1552.16 L1104.01 1563.23 L1106.47 1566.55 L1109.67 1572.45 L1105.73 1606.27 L1103.52 1612.30 L1106.96 1628.53 L1107.21 1628.78 L1111.64 1632.71 L1123.07 1642.92 L1123.44 1645.75 L1121.97 1649.93 L1120.25 1653.99 L1123.69 1662.35 L1122.95 1664.20 L1121.23 1662.11 L1112.50 1652.64 L1110.53 1650.67 L1106.60 1647.35 L1105.00 1646.36 L1104.75 1646.12 L1093.56 1637.26 L1092.95 1636.89 L1088.77 1633.70 L1081.51 1628.04 L1078.80 1625.95 L1075.98 1623.86 L1072.04 1620.91 L1069.09 1618.45 L1067.74 1617.34 L1066.26 1615.74 L1065.28 1614.51 L1063.43 1611.31 L1060.36 1616.23 L1059.25 1618.57 L1059.13 1618.82 L1058.52 1620.66 L1058.02 1622.63 L1057.65 1625.83 L1057.78 1628.90 L1058.52 1632.59 L1058.15 1632.71 L1057.78 1632.96 L1057.53 1633.33 L1057.41 1633.82 L1057.41 1634.31 L1057.41 1634.56 L1058.02 1638.86 L1058.64 1642.31 L1060.11 1645.87 L1061.34 1648.09 L1063.56 1651.28 L1065.52 1652.76 L1065.89 1654.24 L1066.38 1656.69 L1067.49 1660.38 L1067.86 1662.11 L1067.98 1662.97 L1068.84 1668.87 L1071.18 1679.45 L1071.67 1685.35 L1072.04 1688.55 L1071.55 1699.98 L1071.06 1702.20 L1070.81 1704.29 L1070.57 1704.90 L1070.57 1705.03 L1070.57 1705.15 L1070.57 1705.27 L1070.57 1705.40 L1070.69 1705.52 L1071.43 1706.38 L1072.90 1708.72 L1074.75 1710.56 L1082.99 1719.66 L1084.09 1721.38 L1085.20 1723.47 L1084.95 1725.56 L1085.45 1728.39 L1086.67 1740.45 L1086.80 1742.66 L1086.80 1744.38 L1085.69 1748.56 L1085.32 1749.30 L1086.18 1749.05 L1086.92 1748.32 L1089.13 1746.23 L1092.58 1743.77 L1093.32 1746.59 L1094.91 1752.01 L1095.77 1755.33 L1095.77 1755.94 L1093.68 1761.23 L1093.07 1764.06 L1093.19 1765.90 L1093.07 1766.76 L1092.70 1767.62 L1092.21 1768.49 L1091.59 1769.96 L1091.35 1773.28 L1091.22 1778.45 L1090.49 1782.01 L1090.98 1783.61 L1090.61 1785.58 L1089.50 1787.18 L1089.01 1789.27 L1088.77 1790.99 L1088.64 1792.59 L1087.90 1796.40 L1087.17 1798.74 L1086.55 1801.81 L1086.92 1803.04 L1086.92 1803.54 L1086.80 1804.64 L1086.06 1806.49 L1085.69 1807.23 L1084.71 1808.82 L1083.85 1809.81 L1082.37 1812.64 L1081.51 1815.96 L1081.63 1817.19 L1081.26 1819.52 L1081.26 1820.88 L1081.39 1824.57 L1081.51 1826.04 L1082.13 1827.52 L1083.97 1833.42 L1084.46 1835.88 L1085.08 1837.72 L1085.08 1839.32 L1084.71 1841.17 L1084.22 1842.28 L1084.09 1844.37 L1084.46 1846.09 L1086.18 1847.19 L1087.29 1847.69 L1090.61 1849.41 L1091.35 1849.90 L1092.33 1851.74 L1092.33 1852.11 L1091.96 1853.34 L1090.61 1855.68 L1090.24 1857.16 L1090.98 1861.58 L1090.73 1867.12 L1090.24 1868.35 L1089.38 1872.41 L1089.01 1873.51 L1088.77 1875.97 L1088.77 1879.78 L1089.13 1881.01 L1089.75 1881.75 L1090.86 1882.00 L1093.81 1882.00 L1094.67 1882.37 L1095.77 1883.11 L1097.00 1883.72 L1098.73 1887.41 L1099.34 1889.25 L1099.71 1891.22 L1099.71 1892.70 L1099.46 1894.17 L1100.32 1899.22 L1100.94 1901.68 L1102.05 1905.24 L1102.05 1906.96 L1101.80 1907.82 L1100.94 1909.55 L1100.20 1911.64 L1100.08 1912.38 L1100.45 1913.85 L1102.54 1917.05 L1103.40 1918.89 L1105.12 1921.72 L1105.24 1922.34 L1105.37 1923.69 L1105.12 1925.04 L1104.51 1926.76 L1103.77 1927.87 L1103.15 1928.73 L1102.54 1930.58 L1102.54 1931.19 L1102.91 1932.91 L1103.28 1933.28 L1103.77 1933.28 L1104.14 1932.67 L1104.63 1932.18 L1105.49 1931.93 L1107.58 1932.54 L1108.07 1933.04 L1108.69 1933.41 L1110.90 1933.77 L1113.73 1933.16 L1116.93 1933.04 L1118.65 1932.79 L1120.00 1932.30 L1120.98 1930.08 L1121.72 1928.36 L1123.32 1926.15 L1124.43 1924.92 L1125.41 1923.81 L1126.64 1922.21 L1129.22 1920.12 L1130.21 1918.77 L1130.82 1917.79 L1131.68 1916.43 L1132.05 1916.19 L1131.80 1918.52 L1130.82 1922.21 L1128.12 1926.76 L1124.43 1928.36 L1120.25 1933.28 L1121.23 1934.88 L1118.40 1942.75 L1116.06 1953.57 L1116.19 1958.12 L1113.97 1964.27 L1115.08 1973.01 L1115.94 1983.46 L1115.33 1989.36 L1114.83 1991.21 L1111.76 1994.28 L1106.35 1999.94 L1101.31 2012.48 L1097.74 2014.70 L1094.18 2019.25 L1090.98 2019.49 L1087.90 2018.51 L1084.34 2019.62 L1082.00 2019.49 L1080.28 2019.98 L1079.42 2019.62 L1071.18 2018.14 L1052.86 2015.56 L1032.32 2012.85 L1008.34 2009.04 L996.29 2006.95 L991.74 2005.96 L984.00 2003.75 L980.68 2002.64 L956.57 1992.68 L952.64 1991.45 L933.70 1984.44 L931.12 1983.46 L929.89 1983.09 L914.64 1978.54 L906.16 1976.57 L878.12 1970.55 L876.89 1970.18 L874.92 1968.95 L873.69 1968.33 L851.68 1954.31 L846.52 1950.99 L834.96 1943.86 L834.22 1943.86 L831.02 1943.74 L830.53 1943.74 L804.34 1958.62 L795.24 1939.68 L792.53 1936.48 L786.75 1928.73 L787.74 1913.97 L784.05 1915.45 L782.33 1916.31 L755.52 1922.34 L747.40 1920.49 L734.74 1920.86 L722.44 1923.81 L721.46 1925.66 L721.70 1926.52 L719.74 1932.54 L716.29 1938.08 L715.56 1941.28 L714.08 1941.64 L712.11 1943.24 L713.46 1943.86 L709.28 1960.46 L701.17 1991.94 L701.17 1991.94 Z" stroke-linejoin="round"/>
	</defs>
	<use xlink:href="#path_ueFNfSxk" style="fill:#09757A;stroke:#00465F;stroke-width:5.76"/>
</svg>
