<?xml version="1.0" encoding="UTF-8" standalone="no"?>
<!-- This is a Stata 16.1 generated SVG file (http://www.stata.com) -->

<svg version="1.1" width="4.00in" height="4.30in" viewBox="0 0 2880 3096" xmlns="http://www.w3.org/2000/svg" xmlns:xlink="http://www.w3.org/1999/xlink">
	<desc>Stata Graph - Graph</desc>
	<rect x="0" y="0" width="2880" height="3096" style="fill:#FFFFFF;stroke:none"/>
	<defs>
		<path id="path_EObKIEzZ" d="M1280.61 3063.20 L1280.61 3063.20 L1257.68 3065.72 L1254.20 3057.01 L1248.01 3042.40 L1244.62 3029.34 L1237.08 3006.51 L1215.99 2932.40 L1213.96 2879.76 L1204.67 2680.17 L1200.60 2674.46 L1197.61 2662.37 L1190.93 2662.95 L1173.61 2664.40 L1165.39 2664.88 L1151.46 2666.14 L1141.11 2667.01 L1134.72 2667.59 L1133.27 2650.37 L1129.88 2606.25 L1129.11 2595.32 L1121.37 2486.38 L1119.73 2463.45 L1119.15 2454.84 L1114.99 2395.63 L1114.11 2384.11 L1112.57 2361.47 L1107.63 2293.85 L1105.31 2262.21 L1110.63 2261.53 L1118.27 2260.18 L1124.18 2259.11 L1127.27 2258.82 L1132.59 2258.14 L1135.88 2257.85 L1135.59 2253.69 L1130.08 2160.91 L1126.89 2068.52 L1115.08 1963.25 L1107.34 1848.89 L1115.28 1848.12 L1134.82 1846.09 L1148.56 1844.73 L1157.46 1843.96 L1170.90 1842.60 L1185.42 1841.25 L1189.38 1840.77 L1215.50 1837.77 L1243.37 1834.67 L1272.10 1831.38 L1300.54 1828.09 L1328.99 1824.70 L1429.21 1813.10 L1449.63 1811.26 L1469.17 1809.52 L1483.58 1807.97 L1500.90 1806.23 L1520.25 1803.90 L1532.73 1802.36 L1559.14 1799.16 L1615.45 1792.29 L1644.18 1789.20 L1670.11 1786.49 L1673.40 1786.10 L1703.39 1782.62 L1731.54 1779.14 L1759.79 1775.56 L1795.88 1771.40 L1804.10 1770.43 L1809.03 1769.94 L1827.03 1768.01 L1847.05 1766.56 L1852.47 1766.17 L1854.60 1765.98 L1856.44 1765.88 L1865.82 1765.11 L1897.94 1762.69 L1919.13 1761.04 L1925.42 1760.56 L1933.64 1760.17 L1950.18 1759.40 L1965.28 1758.04 L1984.72 1756.30 L2017.33 1754.46 L2045.48 1752.43 L2073.24 1750.59 L2095.88 1748.76 L2106.91 1747.89 L2126.36 1746.24 L2135.74 1745.18 L2145.22 1743.92 L2154.80 1742.95 L2184.98 1740.92 L2217.68 1738.89 L2224.84 1738.50 L2251.35 1737.24 L2285.50 1734.92 L2319.85 1732.50 L2347.71 1730.57 L2357.19 1729.89 L2392.41 1727.28 L2550.20 1715.28 L2583.09 1695.45 L2585.12 1697.19 L2592.09 1707.93 L2595.09 1713.35 L2597.50 1716.15 L2598.18 1718.47 L2599.05 1722.63 L2600.31 1729.41 L2605.05 1753.69 L2609.98 1779.14 L2613.18 1787.65 L2616.76 1790.55 L2618.50 1794.33 L2617.53 1801.10 L2615.50 1802.45 L2612.31 1805.16 L2606.31 1811.64 L2602.54 1819.87 L2600.12 1828.19 L2601.66 1854.79 L2604.08 1875.98 L2606.12 1894.17 L2608.24 1905.39 L2604.47 1911.78 L2601.96 1917.10 L2602.92 1923.39 L2605.92 1933.36 L2607.86 1941.00 L2613.95 1958.61 L2620.34 1974.86 L2627.50 1989.37 L2629.82 1999.92 L2631.95 2014.24 L2632.14 2018.69 L2630.98 2026.43 L2629.72 2028.46 L2626.43 2030.69 L2625.17 2033.59 L2625.56 2038.52 L2631.08 2070.55 L2635.43 2089.32 L2635.33 2092.41 L2633.88 2093.86 L2631.85 2096.19 L2630.40 2099.09 L2630.59 2103.83 L2632.33 2108.67 L2634.36 2113.60 L2638.23 2116.50 L2642.20 2118.34 L2647.04 2119.41 L2647.72 2121.15 L2647.81 2125.50 L2648.10 2130.43 L2649.07 2139.82 L2662.03 2214.80 L2665.32 2233.47 L2677.71 2293.17 L2684.38 2320.84 L2685.64 2330.71 L2686.22 2346.19 L2688.83 2363.22 L2693.86 2395.92 L2698.89 2414.30 L2702.47 2422.43 L2707.41 2428.81 L2724.53 2447.19 L2742.62 2470.61 L2753.07 2488.51 L2757.23 2496.73 L2761.10 2503.89 L2803.09 2598.80 L2827.85 2649.89 L2841.98 2679.78 L2850.78 2700.97 L2851.75 2707.36 L2844.88 2708.61 L2837.63 2707.74 L2836.17 2707.36 L2833.85 2707.07 L2814.70 2708.90 L2699.57 2724.38 L2656.23 2732.12 L2598.96 2730.48 L2582.99 2731.25 L2505.69 2737.54 L2449.19 2742.19 L2397.92 2746.35 L2402.08 2762.70 L2404.40 2772.95 L2407.50 2784.85 L2411.17 2798.78 L2412.04 2799.75 L2414.37 2802.46 L2415.33 2803.52 L2420.75 2808.46 L2424.62 2812.04 L2428.59 2814.75 L2454.13 2832.55 L2479.86 2854.71 L2497.86 2874.64 L2507.53 2885.18 L2514.98 2892.24 L2523.01 2898.92 L2538.59 2910.72 L2547.49 2918.66 L2555.32 2933.56 L2559.19 2937.72 L2550.87 2938.49 L2535.20 2939.65 L2527.27 2940.62 L2505.60 2943.04 L2499.99 2943.52 L2476.57 2945.26 L2475.41 2945.36 L2469.70 2945.75 L2464.58 2945.75 L2451.81 2946.23 L2449.58 2946.23 L2446.97 2946.33 L2438.75 2946.71 L2428.39 2947.20 L2414.17 2948.26 L2400.44 2949.33 L2386.89 2950.10 L2374.22 2951.07 L2348.29 2953.00 L2341.42 2953.58 L2322.27 2954.84 L2319.56 2955.33 L2309.98 2956.10 L2296.53 2957.16 L2284.53 2958.03 L2283.66 2958.13 L2271.18 2959.00 L2252.61 2960.36 L2229.49 2962.10 L2209.36 2963.45 L2202.69 2964.13 L2195.72 2964.71 L2186.15 2965.48 L2170.18 2966.65 L2168.63 2966.74 L2155.96 2967.61 L2143.09 2968.58 L2141.35 2968.68 L2119.58 2970.42 L2115.81 2970.61 L2102.85 2971.39 L2072.86 2973.13 L2027.48 2976.61 L2006.10 2978.74 L1995.36 2979.32 L1982.79 2980.58 L1970.31 2981.54 L1965.08 2982.13 L1946.22 2983.19 L1937.51 2984.06 L1915.07 2986.77 L1903.55 2988.12 L1843.96 2995.19 L1822.09 2998.19 L1764.92 3004.86 L1706.97 3011.73 L1697.10 3012.80 L1677.85 3015.02 L1625.99 3021.50 L1614.19 3022.95 L1591.65 3025.76 L1569.40 3028.47 L1557.88 3030.11 L1505.54 3036.79 L1437.24 3044.43 L1418.18 3046.56 L1415.67 3046.85 L1390.61 3050.14 L1372.71 3051.69 L1358.78 3053.33 L1358.11 3053.43 L1331.98 3056.91 L1321.05 3058.27 L1308.77 3059.82 L1307.89 3059.91 L1295.12 3061.56 L1280.61 3063.20 L1280.61 3063.20 Z" stroke-linejoin="round"/>
	</defs>
	<use xlink:href="#path_EObKIEzZ" style="fill:#9DC8CA;stroke:#6BB4D2;stroke-width:5.76"/>
	<defs>
		<path id="path_zhZvMrnu" d="M2300.88 1291.42 L2300.88 1291.42 L2300.88 1291.42 L2266.54 1281.16 L2235.10 1271.88 L2198.14 1260.07 L2178.70 1254.07 L2171.44 1251.36 L2171.63 1249.43 L2165.05 1246.82 L2134.10 1235.50 L2112.72 1226.69 L2097.62 1219.73 L2093.56 1181.12 L2125.97 1178.51 L2142.61 1177.93 L2161.57 1177.16 L2170.38 1176.58 L2174.54 1177.25 L2179.37 1179.09 L2184.98 1180.06 L2190.40 1180.64 L2195.05 1179.87 L2204.43 1176.67 L2211.88 1174.35 L2222.23 1173.09 L2230.36 1173.48 L2238.19 1174.35 L2242.06 1175.42 L2246.13 1177.25 L2160.41 1129.56 L2162.06 1128.88 L2165.15 1128.30 L2167.96 1128.11 L2240.13 1123.46 L2254.25 1122.11 L2252.71 1095.69 L2247.38 1022.45 L2242.45 956.76 L2240.23 922.51 L2237.52 889.13 L2232.49 830.11 L2230.07 800.90 L2228.04 770.71 L2193.79 771.68 L2184.21 772.26 L2166.60 773.32 L2134.00 775.35 L2129.65 720.30 L2162.25 718.27 L2189.53 716.63 L2222.71 713.43 L2218.94 650.06 L2214.49 599.37 L2213.62 586.30 L2310.17 580.02 L2314.04 579.92 L2317.04 580.21 L2319.56 581.18 L2320.62 582.63 L2321.39 584.37 L2322.27 587.85 L2322.65 591.82 L2325.07 621.04 L2324.97 624.52 L2324.30 629.36 L2323.62 632.26 L2322.36 634.97 L2320.91 637.00 L2316.07 641.65 L2309.50 646.77 L2307.85 648.71 L2306.59 650.84 L2305.43 653.26 L2304.56 656.74 L2304.27 660.90 L2306.69 699.89 L2307.56 707.82 L2308.72 715.27 L2309.40 717.50 L2311.24 720.11 L2313.07 721.46 L2315.49 721.95 L2317.91 722.14 L2322.94 722.14 L2336.00 720.21 L2382.05 716.63 L2388.63 715.66 L2397.53 714.69 L2405.18 713.72 L2408.56 713.34 L2411.08 712.47 L2414.08 711.21 L2417.37 710.34 L2421.91 709.66 L2425.98 709.76 L2431.20 710.73 L2441.07 713.24 L2446.00 713.34 L2483.83 711.50 L2493.60 709.37 L2491.96 742.85 L2498.15 815.60 L2498.53 831.08 L2499.21 843.18 L2501.34 864.65 L2504.92 895.52 L2513.53 948.44 L2516.92 965.66 L2524.85 999.72 L2528.91 1014.52 L2540.33 1051.38 L2552.91 1083.21 L2554.65 1089.21 L2555.32 1093.95 L2554.55 1097.34 L2553.29 1100.14 L2541.88 1107.69 L2528.24 1108.66 L2526.20 1107.88 L2522.53 1106.53 L2516.34 1097.63 L2511.60 1085.15 L2504.24 1059.41 L2495.83 1043.06 L2492.92 1031.84 L2490.80 1001.85 L2486.15 982.40 L2482.57 972.24 L2478.02 963.82 L2472.51 959.76 L2467.77 957.15 L2456.64 946.12 L2443.97 931.90 L2440.68 921.83 L2440.29 912.35 L2442.62 902.77 L2449.39 897.84 L2470.87 897.65 L2474.64 895.81 L2477.64 892.13 L2480.54 884.20 L2481.12 870.46 L2477.54 861.17 L2471.35 853.34 L2458.00 844.63 L2446.39 844.82 L2437.97 847.53 L2431.68 850.72 L2422.98 862.53 L2420.36 867.36 L2420.75 882.65 L2419.49 894.94 L2414.95 906.06 L2408.66 914.19 L2390.86 926.86 L2382.44 936.73 L2373.83 956.18 L2370.54 966.44 L2370.83 972.53 L2373.35 980.27 L2376.25 987.24 L2387.67 997.40 L2389.89 998.75 L2394.82 1001.75 L2402.47 1005.23 L2414.27 1006.88 L2453.35 1002.23 L2460.61 1002.04 L2465.93 1004.56 L2468.54 1013.17 L2469.70 1052.35 L2470.96 1061.06 L2477.15 1070.44 L2493.70 1089.60 L2507.15 1098.69 L2508.69 1105.08 L2508.40 1107.69 L2503.28 1119.88 L2499.12 1130.14 L2495.83 1147.55 L2494.37 1164.10 L2496.31 1194.38 L2495.73 1196.60 L2494.76 1198.06 L2491.67 1199.51 L2483.93 1194.57 L2435.07 1205.99 L2383.80 1212.95 L2379.54 1215.76 L2374.22 1219.34 L2368.80 1222.53 L2367.93 1219.05 L2366.77 1216.82 L2365.51 1215.18 L2364.25 1214.02 L2363.09 1213.24 L2362.03 1212.76 L2360.38 1212.18 L2357.38 1211.31 L2351.39 1209.57 L2346.35 1208.12 L2320.52 1200.67 L2311.14 1243.91 L2300.88 1291.42 L2300.88 1291.42 Z" stroke-linejoin="round"/>
	</defs>
	<use xlink:href="#path_zhZvMrnu" style="fill:#9DC8CA;stroke:#6BB4D2;stroke-width:5.76"/>
	<defs>
		<path id="path_WPvLpabY" d="M831.52 1879.56 L831.52 1879.56 L802.89 1882.46 L778.99 1876.47 L777.25 1858.95 L773.86 1801.00 L775.22 1789.00 L769.32 1782.81 L758.29 1784.55 L733.81 1787.36 L705.56 1790.55 L691.24 1792.29 L652.64 1795.20 L637.74 1780.68 L633.39 1774.88 L633.49 1740.53 L633.29 1724.76 L633.97 1718.47 L637.16 1711.89 L646.06 1695.35 L650.42 1689.84 L654.19 1687.90 L662.32 1687.42 L692.21 1687.32 L706.33 1686.93 L747.55 1681.13 L757.22 1679.10 L761.09 1679.58 L764.87 1681.61 L766.61 1684.51 L789.92 1679.10 L807.72 1678.32 L820.20 1651.52 L832.68 1624.72 L787.21 1629.08 L785.57 1602.95 L780.93 1578.48 L779.18 1578.67 L774.73 1527.88 L773.28 1502.14 L771.83 1476.40 L729.65 1481.05 L700.82 1484.24 L683.89 1485.69 L676.54 1486.47 L638.61 1490.82 L614.72 1493.43 L596.05 1494.98 L575.05 1497.30 L551.06 1499.82 L506.27 1504.46 L467.76 1508.24 L461.76 1508.91 L420.36 1513.46 L417.74 1513.85 L415.91 1487.43 L415.81 1486.56 L410.20 1411.10 L407.68 1364.56 L405.85 1340.18 L402.07 1308.54 L395.20 1208.60 L387.17 1107.11 L389.79 1106.92 L409.52 1105.08 L427.81 1103.53 L431.48 1103.14 L475.79 1098.40 L482.37 1097.73 L485.18 1099.08 L520.68 1094.92 L534.13 1093.76 L565.28 1090.47 L580.57 1088.82 L583.08 1086.79 L609.59 1084.08 L653.80 1079.34 L698.21 1074.99 L715.82 1073.34 L743.39 1070.64 L795.53 1065.02 L801.63 1064.64 L805.60 1064.64 L810.14 1064.93 L813.62 1065.12 L816.72 1065.51 L821.75 1066.28 L825.14 1067.15 L829.10 1068.12 L833.17 1069.28 L838.29 1070.83 L841.68 1071.89 L844.97 1073.15 L849.03 1074.80 L853.68 1077.02 L858.22 1079.54 L867.12 1084.47 L920.33 1116.01 L933.30 1123.56 L975.48 1147.84 L978.48 1154.90 L980.22 1156.84 L982.06 1158.00 L991.25 1161.68 L1001.21 1168.26 L1014.18 1176.48 L1016.79 1177.74 L1017.56 1173.29 L1021.24 1175.51 L1026.08 1178.32 L1030.53 1180.93 L1044.75 1189.06 L1053.36 1193.31 L1055.10 1194.09 L1061.39 1196.80 L1064.87 1198.25 L1069.03 1200.09 L1070.87 1203.57 L1075.03 1205.02 L1078.13 1205.70 L1081.61 1205.99 L1080.93 1207.44 L1092.15 1209.57 L1099.89 1212.76 L1077.74 1256.01 L1079.09 1277.10 L1083.25 1321.70 L1082.38 1342.60 L1082.19 1356.63 L1082.19 1369.11 L1085.38 1414.00 L1087.61 1444.19 L1076.96 1445.25 L1092.44 1678.42 L1107.34 1848.89 L1100.67 1849.67 L1081.71 1851.70 L1076.00 1852.47 L1071.26 1852.96 L1066.23 1853.63 L1044.17 1856.44 L1041.36 1855.28 L1008.86 1857.70 L1002.86 1858.47 L1000.54 1858.86 L997.05 1861.57 L977.70 1863.99 L951.39 1866.69 L935.33 1868.44 L909.98 1870.95 L890.83 1873.27 L873.22 1874.82 L847.29 1877.92 L831.52 1879.56 L831.52 1879.56 Z" stroke-linejoin="round"/>
	</defs>
	<use xlink:href="#path_WPvLpabY" style="fill:#6BACAF;stroke:#097D9B;stroke-width:5.76"/>
	<defs>
		<path id="path_hqoxYmGK" d="M1107.34 1848.89 L1107.34 1848.89 L1092.44 1678.42 L1076.96 1445.25 L1087.61 1444.19 L1085.38 1414.00 L1082.19 1369.11 L1082.19 1356.63 L1082.38 1342.60 L1083.25 1321.70 L1079.09 1277.10 L1077.74 1256.01 L1099.89 1212.76 L1092.15 1209.57 L1080.93 1207.44 L1081.61 1205.99 L1078.13 1205.70 L1075.03 1205.02 L1070.87 1203.57 L1069.03 1200.09 L1064.87 1198.25 L1061.39 1196.80 L1055.10 1194.09 L1053.36 1193.31 L1044.75 1189.06 L1030.53 1180.93 L1026.08 1178.32 L1021.24 1175.51 L1017.56 1173.29 L1016.79 1177.74 L1014.18 1176.48 L1001.21 1168.26 L991.25 1161.68 L982.06 1158.00 L980.22 1156.84 L978.48 1154.90 L975.48 1147.84 L933.30 1123.56 L920.33 1116.01 L867.12 1084.47 L858.22 1079.54 L853.68 1077.02 L849.03 1074.80 L844.97 1073.15 L841.68 1071.89 L838.29 1070.83 L833.17 1069.28 L829.10 1068.12 L825.14 1067.15 L821.75 1066.28 L816.72 1065.51 L813.62 1065.12 L810.14 1064.93 L805.60 1064.64 L801.63 1064.64 L795.53 1065.02 L743.39 1070.64 L715.82 1073.34 L698.21 1074.99 L653.80 1079.34 L609.59 1084.08 L583.08 1086.79 L580.57 1088.82 L565.28 1090.47 L534.13 1093.76 L520.68 1094.92 L485.18 1099.08 L482.37 1097.73 L475.79 1098.40 L431.48 1103.14 L427.81 1103.53 L409.52 1105.08 L389.79 1106.92 L387.17 1107.11 L387.95 1103.53 L387.37 1100.82 L387.08 1076.05 L382.92 1056.03 L379.43 1006.10 L375.56 955.70 L371.79 905.00 L368.21 860.59 L365.12 815.99 L363.76 804.09 L360.28 758.91 L358.83 745.56 L355.54 704.92 L356.31 702.60 L354.57 702.70 L352.93 702.79 L340.06 704.34 L333.87 705.11 L330.48 705.50 L311.23 707.34 L266.73 711.02 L247.86 712.56 L237.80 713.34 L222.90 714.79 L205.78 716.24 L189.14 717.50 L174.91 718.56 L168.14 719.05 L168.05 714.98 L159.24 602.27 L159.24 599.75 L159.53 598.30 L160.21 597.14 L147.34 461.01 L115.13 401.61 L101.87 377.42 L89.20 352.17 L53.02 279.41 L50.50 211.01 L50.31 209.95 L50.02 209.17 L49.53 207.92 L45.47 199.50 L44.60 198.14 L43.83 197.27 L42.76 196.69 L41.41 196.60 L39.76 196.31 L37.63 196.21 L28.15 195.73 L39.96 193.50 L49.92 191.95 L67.82 190.02 L85.72 189.63 L115.32 188.76 L125.38 188.18 L127.51 208.40 L127.99 214.69 L128.57 221.17 L129.44 227.75 L130.12 232.97 L131.38 239.84 L132.83 246.52 L134.38 251.94 L135.73 256.10 L137.18 259.97 L138.93 264.61 L140.86 269.55 L142.99 274.38 L144.73 278.64 L146.28 282.12 L148.41 286.38 L151.12 292.09 L153.34 295.67 L155.28 298.86 L157.69 302.63 L160.50 307.18 L164.08 312.99 L167.18 317.73 L172.21 325.76 L182.07 341.62 L205.20 331.56 L233.74 319.37 L243.51 315.02 L248.73 312.89 L253.47 310.66 L262.57 306.31 L260.34 338.24 L262.37 336.88 L268.18 335.14 L290.72 332.34 L414.17 324.50 L445.22 321.50 L460.31 318.40 L473.47 310.08 L492.14 308.83 L500.07 312.41 L500.66 310.86 L502.20 310.08 L530.94 308.54 L570.89 306.12 L609.01 304.09 L632.91 301.86 L655.54 300.89 L677.80 299.25 L724.23 296.05 L747.16 294.60 L773.57 292.77 L797.28 290.73 L821.75 289.38 L845.07 287.73 L869.16 286.38 L940.84 283.57 L1036.14 273.61 L1046.10 272.93 L1105.50 268.00 L1143.53 264.80 L1150.20 264.32 L1167.32 263.45 L1198.09 262.10 L1208.83 262.00 L1218.31 261.32 L1222.18 261.03 L1224.98 260.55 L1227.21 259.87 L1229.53 258.61 L1233.50 255.03 L1237.37 255.23 L1248.40 260.45 L1263.30 258.23 L1265.42 258.52 L1270.16 258.52 L1281.87 257.94 L1308.96 256.97 L1313.89 256.77 L1344.66 254.74 L1374.36 252.42 L1407.35 249.81 L1436.28 247.39 L1439.37 247.29 L1466.36 245.65 L1469.75 245.45 L1496.35 242.65 L1522.38 240.23 L1529.73 239.94 L1537.08 239.36 L1562.82 237.71 L1588.36 235.78 L1602.58 234.81 L1627.93 233.65 L1659.56 230.75 L1671.85 230.07 L1680.65 229.59 L1707.26 227.36 L1716.26 226.30 L1729.32 225.62 L1733.96 225.23 L1731.15 180.54 L1742.47 178.50 L1782.82 176.57 L1813.00 175.31 L1827.32 173.38 L1835.25 172.99 L1855.08 171.92 L1868.43 171.73 L1880.33 171.34 L1890.78 170.18 L1914.97 169.31 L1937.90 167.96 L1961.60 165.83 L1959.76 134.00 L1959.18 122.58 L1956.47 74.11 L1953.86 40.25 L2064.25 33.96 L2077.89 30.48 L2106.14 80.88 L2114.94 98.49 L2133.61 128.87 L2157.03 175.99 L2159.35 180.63 L2164.47 197.76 L2170.38 208.98 L2189.14 237.81 L2203.56 265.58 L2210.72 279.32 L2223.49 298.57 L2227.75 306.12 L2239.65 327.21 L2259.38 363.78 L2272.44 381.20 L2287.24 400.84 L2314.04 430.15 L2316.46 435.67 L2317.43 439.83 L2317.33 445.24 L2314.33 449.98 L2315.98 457.34 L2318.30 463.24 L2322.36 468.85 L2324.78 473.40 L2329.71 485.39 L2333.20 492.84 L2337.94 501.94 L2339.00 506.20 L2343.65 513.45 L2350.51 530.19 L2360.19 545.57 L2366.96 552.25 L2372.77 559.51 L2377.22 565.50 L2386.12 578.18 L2397.05 592.01 L2407.79 610.59 L2420.75 633.91 L2430.04 649.87 L2438.26 659.16 L2442.81 661.09 L2449.49 659.06 L2454.03 656.55 L2459.35 656.06 L2493.02 664.19 L2496.21 671.45 L2496.12 676.86 L2495.83 685.67 L2495.44 694.76 L2493.60 709.37 L2483.83 711.50 L2446.00 713.34 L2441.07 713.24 L2431.20 710.73 L2425.98 709.76 L2421.91 709.66 L2417.37 710.34 L2414.08 711.21 L2411.08 712.47 L2408.56 713.34 L2405.18 713.72 L2397.53 714.69 L2388.63 715.66 L2382.05 716.63 L2336.00 720.21 L2322.94 722.14 L2317.91 722.14 L2315.49 721.95 L2313.07 721.46 L2311.24 720.11 L2309.40 717.50 L2308.72 715.27 L2307.56 707.82 L2306.69 699.89 L2304.27 660.90 L2304.56 656.74 L2305.43 653.26 L2306.59 650.84 L2307.85 648.71 L2309.50 646.77 L2316.07 641.65 L2320.91 637.00 L2322.36 634.97 L2323.62 632.26 L2324.30 629.36 L2324.97 624.52 L2325.07 621.04 L2322.65 591.82 L2322.27 587.85 L2321.39 584.37 L2320.62 582.63 L2319.56 581.18 L2317.04 580.21 L2314.04 579.92 L2310.17 580.02 L2213.62 586.30 L2214.49 599.37 L2218.94 650.06 L2222.71 713.43 L2189.53 716.63 L2162.25 718.27 L2129.65 720.30 L2134.00 775.35 L2166.60 773.32 L2184.21 772.26 L2193.79 771.68 L2228.04 770.71 L2230.07 800.90 L2232.49 830.11 L2237.52 889.13 L2240.23 922.51 L2242.45 956.76 L2247.38 1022.45 L2252.71 1095.69 L2254.25 1122.11 L2240.13 1123.46 L2167.96 1128.11 L2165.15 1128.30 L2162.06 1128.88 L2160.41 1129.56 L2246.13 1177.25 L2242.06 1175.42 L2238.19 1174.35 L2230.36 1173.48 L2222.23 1173.09 L2211.88 1174.35 L2204.43 1176.67 L2195.05 1179.87 L2190.40 1180.64 L2184.98 1180.06 L2179.37 1179.09 L2174.54 1177.25 L2170.38 1176.58 L2161.57 1177.16 L2142.61 1177.93 L2125.97 1178.51 L2093.56 1181.12 L2097.62 1219.73 L2112.72 1226.69 L2134.10 1235.50 L2165.05 1246.82 L2171.63 1249.43 L2171.44 1251.36 L2178.70 1254.07 L2198.14 1260.07 L2235.10 1271.88 L2266.54 1281.16 L2300.88 1291.42 L2311.14 1243.91 L2320.52 1200.67 L2346.35 1208.12 L2351.39 1209.57 L2357.38 1211.31 L2360.38 1212.18 L2362.03 1212.76 L2363.09 1213.24 L2364.25 1214.02 L2365.51 1215.18 L2366.77 1216.82 L2367.93 1219.05 L2368.80 1222.53 L2374.22 1219.34 L2379.54 1215.76 L2383.80 1212.95 L2435.07 1205.99 L2483.93 1194.57 L2491.67 1199.51 L2485.96 1200.38 L2479.28 1202.60 L2475.32 1207.73 L2469.61 1223.31 L2468.45 1227.47 L2467.58 1234.92 L2467.19 1243.14 L2467.77 1254.27 L2469.22 1269.07 L2470.19 1280.58 L2471.06 1286.00 L2471.54 1291.32 L2471.64 1297.71 L2469.22 1306.32 L2464.96 1316.57 L2460.80 1322.96 L2454.52 1327.80 L2449.39 1331.18 L2449.97 1344.44 L2451.42 1353.92 L2452.77 1359.92 L2453.55 1366.79 L2455.48 1375.20 L2462.93 1398.71 L2468.35 1421.55 L2470.29 1428.51 L2472.51 1442.93 L2472.70 1448.64 L2472.41 1456.86 L2472.32 1470.12 L2476.38 1484.14 L2482.86 1503.79 L2486.73 1517.72 L2499.12 1569.67 L2500.95 1578.77 L2502.89 1585.54 L2508.11 1597.83 L2516.43 1609.34 L2530.94 1626.37 L2540.14 1635.95 L2551.45 1653.46 L2557.84 1666.04 L2565.29 1676.39 L2580.57 1693.13 L2583.09 1695.45 L2550.20 1715.28 L2392.41 1727.28 L2357.19 1729.89 L2347.71 1730.57 L2319.85 1732.50 L2285.50 1734.92 L2251.35 1737.24 L2224.84 1738.50 L2217.68 1738.89 L2184.98 1740.92 L2154.80 1742.95 L2145.22 1743.92 L2135.74 1745.18 L2126.36 1746.24 L2106.91 1747.89 L2095.88 1748.76 L2073.24 1750.59 L2045.48 1752.43 L2017.33 1754.46 L1984.72 1756.30 L1965.28 1758.04 L1950.18 1759.40 L1933.64 1760.17 L1925.42 1760.56 L1919.13 1761.04 L1897.94 1762.69 L1865.82 1765.11 L1856.44 1765.88 L1854.60 1765.98 L1852.47 1766.17 L1847.05 1766.56 L1827.03 1768.01 L1809.03 1769.94 L1804.10 1770.43 L1795.88 1771.40 L1759.79 1775.56 L1731.54 1779.14 L1703.39 1782.62 L1673.40 1786.10 L1670.11 1786.49 L1644.18 1789.20 L1615.45 1792.29 L1559.14 1799.16 L1532.73 1802.36 L1520.25 1803.90 L1500.90 1806.23 L1483.58 1807.97 L1469.17 1809.52 L1449.63 1811.26 L1429.21 1813.10 L1328.99 1824.70 L1300.54 1828.09 L1272.10 1831.38 L1243.37 1834.67 L1215.50 1837.77 L1189.38 1840.77 L1185.42 1841.25 L1170.90 1842.60 L1157.46 1843.96 L1148.56 1844.73 L1134.82 1846.09 L1115.28 1848.12 L1107.34 1848.89 L1107.34 1848.89 Z" stroke-linejoin="round"/>
	</defs>
	<use xlink:href="#path_hqoxYmGK" style="fill:#09757A;stroke:#00465F;stroke-width:5.76"/>
</svg>
