<?xml version="1.0" encoding="UTF-8" standalone="no"?>
<!-- This is a Stata 16.1 generated SVG file (http://www.stata.com) -->

<svg version="1.1" width="4.04in" height="4.00in" viewBox="0 0 2912 2880" xmlns="http://www.w3.org/2000/svg" xmlns:xlink="http://www.w3.org/1999/xlink">
	<desc>Stata Graph - Graph</desc>
	<rect x="0" y="0" width="2912" height="2880" style="fill:#FFFFFF;stroke:none"/>
	<defs>
		<path id="path_WMcuckbn" d="M2243.61 1022.75 L2243.61 1022.75 L2238.69 1019.66 L2217.67 1006.10 L2210.03 1001.01 L2208.84 1000.10 L2193.55 990.18 L2192.64 989.54 L2183.91 984.26 L2183.18 983.81 L2182.54 983.35 L2181.63 982.72 L2174.08 977.99 L2174.81 976.80 L2177.08 973.35 L2177.90 971.71 L2179.18 968.80 L2178.09 959.15 L2177.36 958.70 L2174.45 956.88 L2164.07 950.23 L2159.43 957.60 L2157.61 960.42 L2155.06 964.43 L2154.79 964.79 L2152.33 963.25 L2148.24 960.61 L2144.23 958.06 L2140.78 955.78 L2133.31 951.05 L2118.39 941.59 L2112.93 938.04 L2112.29 937.04 L2111.93 936.77 L2110.29 935.67 L2108.29 934.31 L2103.74 931.31 L2100.01 928.85 L2089.27 921.84 L2077.17 914.20 L2074.89 912.74 L2073.80 912.02 L2072.25 911.02 L2061.79 904.19 L2059.97 903.10 L2059.69 903.01 L2059.15 902.55 L2058.51 902.19 L2052.51 898.28 L2051.32 897.55 L2047.86 895.73 L2046.41 895.64 L2041.31 892.45 L2034.31 887.99 L2030.94 885.72 L2030.30 884.45 L2029.57 883.90 L2029.12 883.63 L2023.57 880.17 L2018.29 876.80 L2013.92 874.07 L2008.28 870.62 L2002.82 867.25 L1998.72 864.79 L1997.63 864.34 L1993.26 861.61 L1990.90 860.24 L1985.80 856.97 L1984.62 856.24 L1984.16 855.97 L1993.08 834.86 L1996.18 827.67 L1996.99 825.48 L1997.72 823.21 L1998.00 822.30 L1998.36 821.30 L1998.54 820.66 L1998.72 819.84 L1998.91 819.20 L1999.36 817.57 L1999.63 816.02 L1999.82 814.93 L2000.00 813.74 L2000.27 812.20 L2000.45 811.11 L2000.63 809.92 L2000.73 808.83 L2000.91 806.37 L2001.00 805.19 L2001.09 803.28 L2001.18 802.19 L2001.27 800.91 L2001.36 799.46 L2001.45 797.91 L2002.18 785.99 L1998.27 783.72 L1997.54 783.26 L1998.27 783.44 L2000.09 784.08 L1998.63 782.63 L2002.18 784.63 L2004.09 785.72 L2004.37 779.44 L2004.82 773.71 L2005.18 770.89 L2005.46 769.07 L2005.64 767.98 L2005.91 766.52 L2006.19 765.34 L2006.46 764.06 L2006.55 763.43 L2006.73 762.70 L2007.01 761.79 L2007.28 760.79 L2007.73 759.51 L2008.19 758.33 L2008.73 756.87 L2009.19 755.78 L2009.55 754.78 L2010.28 753.33 L2010.92 751.96 L2011.37 750.96 L2012.01 749.87 L2012.56 748.78 L2013.56 747.05 L2018.93 738.49 L2020.47 736.22 L2024.39 729.85 L2029.94 721.11 L2043.13 700.37 L2047.95 693.18 L2058.15 677.07 L2060.97 672.62 L2062.06 670.89 L2063.79 671.98 L2066.70 673.89 L2067.79 674.89 L2078.44 684.63 L2091.36 692.36 L2111.11 705.01 L2114.29 706.19 L2115.57 707.28 L2120.66 709.29 L2128.76 714.02 L2135.32 718.66 L2139.05 721.93 L2142.05 724.39 L2148.15 729.85 L2152.51 733.85 L2153.79 735.95 L2153.88 742.22 L2155.24 743.59 L2156.34 744.04 L2157.16 744.86 L2157.79 745.59 L2158.79 745.41 L2161.70 746.77 L2167.44 747.68 L2172.26 748.41 L2173.17 751.51 L2173.53 752.69 L2173.72 753.33 L2173.81 753.69 L2173.63 753.96 L2171.72 756.78 L2169.80 758.33 L2170.99 760.06 L2175.90 752.33 L2177.99 749.05 L2180.36 745.32 L2184.91 738.13 L2198.65 716.66 L2203.38 709.10 L2204.84 707.10 L2204.93 705.83 L2210.84 696.55 L2211.57 695.36 L2212.66 696.00 L2217.85 699.46 L2219.58 700.37 L2221.49 701.28 L2223.59 701.82 L2224.59 702.01 L2225.77 702.10 L2227.32 702.28 L2229.14 702.28 L2230.96 702.19 L2232.96 701.82 L2235.23 701.19 L2236.60 700.82 L2238.87 700.00 L2239.60 699.73 L2241.24 699.37 L2243.15 699.00 L2245.06 698.91 L2246.79 699.00 L2249.16 699.00 L2249.70 699.09 L2252.70 699.91 L2254.25 700.46 L2255.43 700.91 L2256.44 701.37 L2258.26 702.28 L2259.26 702.83 L2260.44 703.55 L2262.17 704.65 L2267.08 707.83 L2272.45 711.29 L2274.64 712.65 L2281.82 717.20 L2284.55 712.93 L2286.65 709.65 L2288.29 707.10 L2289.20 705.65 L2292.11 701.19 L2292.56 700.91 L2293.47 699.46 L2294.57 697.82 L2296.66 694.45 L2298.20 692.00 L2299.48 689.81 L2300.48 687.81 L2300.93 686.54 L2301.21 685.90 L2301.84 684.08 L2302.21 682.99 L2303.12 679.35 L2305.03 669.52 L2305.12 668.79 L2307.76 651.69 L2308.31 648.96 L2308.49 648.32 L2308.85 647.23 L2309.58 647.68 L2312.13 649.41 L2315.95 651.87 L2317.13 652.69 L2318.77 653.78 L2319.68 654.33 L2320.23 654.60 L2321.14 655.05 L2321.68 655.33 L2323.14 655.87 L2323.78 656.15 L2325.05 656.60 L2325.78 656.78 L2326.96 657.06 L2328.42 657.33 L2328.78 657.33 L2330.33 657.60 L2331.33 657.69 L2335.88 658.06 L2336.15 658.15 L2342.16 658.78 L2345.62 659.15 L2351.89 659.88 L2357.90 660.42 L2362.63 660.88 L2372.55 662.06 L2388.93 663.61 L2394.03 663.97 L2398.49 664.43 L2399.49 662.88 L2399.85 662.33 L2401.49 659.88 L2405.04 654.42 L2405.49 653.60 L2405.86 652.96 L2411.50 644.32 L2413.96 640.68 L2414.14 640.40 L2414.59 639.68 L2400.13 630.40 L2395.21 627.30 L2391.03 624.57 L2387.93 622.66 L2385.29 620.84 L2385.66 620.48 L2386.11 619.66 L2373.83 611.83 L2372.19 611.83 L2370.64 610.92 L2367.27 608.74 L2355.72 601.37 L2351.08 598.46 L2349.98 597.82 L2347.25 596.55 L2344.43 595.55 L2341.52 594.91 L2339.25 594.64 L2337.88 594.64 L2334.88 594.73 L2331.78 595.27 L2325.96 597.00 L2323.78 590.54 L2323.32 589.27 L2322.87 587.99 L2321.59 585.45 L2320.77 583.81 L2320.50 583.26 L2319.95 582.35 L2319.23 581.17 L2317.13 578.35 L2314.77 575.62 L2315.31 575.07 L2333.70 561.42 L2334.06 561.15 L2337.97 558.15 L2339.52 556.51 L2339.88 556.24 L2340.43 555.60 L2340.97 554.87 L2341.79 553.87 L2343.43 551.23 L2343.80 550.59 L2345.62 547.87 L2359.72 551.50 L2363.18 548.05 L2367.73 544.41 L2372.55 541.59 L2374.92 541.31 L2379.10 540.95 L2382.11 540.13 L2383.56 537.86 L2384.38 533.85 L2384.93 531.76 L2386.11 530.03 L2388.66 529.39 L2391.30 530.30 L2393.48 531.21 L2396.12 532.76 L2402.40 534.49 L2404.77 535.76 L2409.50 537.22 L2413.05 536.76 L2415.50 537.40 L2418.23 537.58 L2426.51 538.13 L2433.61 540.40 L2434.98 540.49 L2436.07 540.13 L2436.71 539.22 L2436.89 537.58 L2437.07 536.67 L2437.62 532.21 L2438.71 530.39 L2440.53 529.21 L2442.80 529.94 L2446.99 533.12 L2448.26 534.03 L2450.27 533.12 L2453.54 533.58 L2457.55 539.13 L2461.82 542.31 L2470.38 539.40 L2474.65 538.58 L2477.57 539.22 L2478.66 540.95 L2481.11 546.50 L2482.75 549.32 L2485.66 550.78 L2487.12 553.42 L2490.85 556.60 L2495.22 558.88 L2499.13 559.88 L2500.86 559.24 L2501.50 559.51 L2501.77 560.33 L2501.23 561.33 L2503.05 566.79 L2504.59 568.52 L2505.96 571.34 L2513.78 574.71 L2518.15 573.71 L2522.16 569.16 L2526.71 568.43 L2528.43 570.80 L2529.16 574.53 L2529.53 577.71 L2530.53 579.08 L2532.17 578.98 L2533.44 578.35 L2534.80 576.98 L2536.53 574.62 L2536.35 571.89 L2535.35 568.07 L2535.90 565.79 L2536.72 562.42 L2537.35 561.24 L2538.63 560.33 L2541.63 559.97 L2544.91 560.60 L2549.64 563.15 L2550.64 563.97 L2551.91 565.24 L2553.55 567.61 L2555.92 570.98 L2563.20 576.62 L2564.74 576.71 L2569.20 581.44 L2570.48 583.72 L2570.57 586.35 L2572.30 587.54 L2577.39 586.90 L2579.21 588.54 L2579.67 591.00 L2585.40 597.27 L2595.05 602.82 L2598.78 606.28 L2600.87 611.56 L2597.32 616.84 L2593.14 623.48 L2593.14 624.30 L2584.95 637.49 L2581.85 642.32 L2581.40 642.95 L2575.48 652.23 L2569.02 662.42 L2565.65 667.79 L2556.83 681.71 L2547.27 696.64 L2546.09 698.46 L2545.72 699.00 L2545.36 699.64 L2544.09 701.64 L2542.99 703.37 L2541.90 705.01 L2540.99 706.46 L2539.63 708.74 L2539.26 709.29 L2539.08 709.56 L2538.81 709.92 L2537.63 711.83 L2537.08 711.56 L2536.35 711.01 L2534.44 714.20 L2529.44 722.39 L2526.98 726.03 L2524.89 729.21 L2520.97 735.49 L2520.88 736.67 L2515.79 744.50 L2514.78 745.96 L2510.14 753.51 L2509.14 753.96 L2508.78 754.51 L2507.32 756.87 L2505.78 759.33 L2501.77 766.06 L2501.77 767.07 L2497.49 773.89 L2487.94 788.99 L2480.30 800.82 L2478.48 803.92 L2474.56 810.20 L2474.11 810.74 L2473.84 811.29 L2469.38 818.11 L2468.38 819.75 L2468.28 820.66 L2468.01 821.30 L2461.91 830.67 L2461.28 831.85 L2460.73 832.67 L2459.91 833.95 L2454.36 842.86 L2450.81 848.50 L2447.90 853.14 L2441.44 863.43 L2437.89 868.89 L2427.97 884.45 L2425.33 888.72 L2424.06 890.63 L2419.05 898.55 L2415.23 904.46 L2410.59 911.93 L2410.32 912.38 L2405.59 919.75 L2397.30 932.76 L2396.21 934.40 L2393.03 939.50 L2390.75 943.05 L2389.48 944.96 L2389.02 945.77 L2387.11 948.78 L2386.57 949.60 L2385.57 951.14 L2379.92 960.06 L2377.19 964.34 L2373.55 970.07 L2370.82 974.16 L2368.28 978.08 L2358.81 993.00 L2358.45 993.73 L2356.26 997.19 L2355.17 996.64 L2348.53 1007.10 L2341.61 1017.93 L2340.43 1019.84 L2339.61 1021.12 L2330.69 1035.13 L2323.68 1046.05 L2322.50 1048.05 L2321.86 1049.05 L2317.22 1056.60 L2311.86 1064.97 L2296.29 1055.06 L2295.11 1054.42 L2294.20 1054.51 L2286.01 1049.32 L2283.83 1047.87 L2282.83 1047.05 L2280.46 1045.59 L2280.01 1045.32 L2276.73 1043.23 L2269.63 1038.77 L2256.98 1030.76 L2255.62 1029.76 L2254.80 1029.21 L2253.61 1029.12 L2244.51 1023.30 L2243.61 1022.75 L2243.61 1022.75 Z" stroke-linejoin="round"/>
	</defs>
	<use xlink:href="#path_WMcuckbn" style="fill:#CEE3E4;stroke:#CEF5F5;stroke-width:5.76"/>
	<defs>
		<path id="path_SqhtgevV" d="M2494.58 1181.45 L2494.58 1181.45 L2494.58 1181.45 L2483.30 1177.81 L2480.57 1176.35 L2467.37 1166.98 L2465.55 1166.98 L2464.28 1166.34 L2461.00 1165.52 L2459.46 1164.25 L2447.72 1152.15 L2449.90 1153.06 L2452.54 1154.15 L2456.55 1155.42 L2459.73 1156.24 L2462.28 1156.70 L2462.46 1156.24 L2462.55 1155.79 L2460.09 1155.24 L2458.64 1154.88 L2457.55 1154.60 L2456.64 1154.42 L2455.82 1154.15 L2454.91 1153.87 L2452.81 1153.15 L2451.27 1152.60 L2450.27 1152.24 L2448.90 1151.60 L2447.81 1151.05 L2446.17 1150.33 L2444.44 1149.42 L2442.80 1148.51 L2440.89 1147.23 L2433.25 1142.41 L2432.16 1142.32 L2431.34 1141.77 L2422.24 1136.04 L2418.05 1133.31 L2417.32 1132.86 L2409.59 1127.94 L2408.32 1127.12 L2383.74 1111.47 L2381.74 1110.11 L2374.55 1105.56 L2371.73 1103.65 L2356.08 1093.73 L2352.80 1091.64 L2352.35 1091.36 L2350.17 1090.00 L2348.35 1088.81 L2346.16 1087.45 L2344.98 1086.72 L2341.61 1084.54 L2333.33 1079.26 L2332.88 1078.44 L2330.87 1077.08 L2319.77 1070.07 L2312.76 1065.52 L2311.86 1064.97 L2317.22 1056.60 L2321.86 1049.05 L2322.50 1048.05 L2323.68 1046.05 L2330.69 1035.13 L2339.61 1021.12 L2340.43 1019.84 L2341.61 1017.93 L2348.53 1007.10 L2355.17 996.64 L2356.26 997.19 L2358.45 993.73 L2358.81 993.00 L2368.28 978.08 L2370.82 974.16 L2373.55 970.07 L2377.19 964.34 L2379.92 960.06 L2385.57 951.14 L2386.57 949.60 L2387.11 948.78 L2389.02 945.77 L2389.48 944.96 L2390.75 943.05 L2393.03 939.50 L2396.21 934.40 L2397.30 932.76 L2405.59 919.75 L2410.32 912.38 L2410.59 911.93 L2415.23 904.46 L2419.05 898.55 L2424.06 890.63 L2425.33 888.72 L2427.97 884.45 L2437.89 868.89 L2441.44 863.43 L2447.90 853.14 L2450.81 848.50 L2454.36 842.86 L2459.91 833.95 L2460.73 832.67 L2461.28 831.85 L2461.91 830.67 L2468.01 821.30 L2468.28 820.66 L2468.38 819.75 L2469.38 818.11 L2473.84 811.29 L2474.11 810.74 L2474.56 810.20 L2478.48 803.92 L2480.30 800.82 L2487.94 788.99 L2497.49 773.89 L2501.77 767.07 L2501.77 766.06 L2505.78 759.33 L2507.32 756.87 L2508.78 754.51 L2509.14 753.96 L2510.14 753.51 L2514.78 745.96 L2515.79 744.50 L2520.88 736.67 L2520.97 735.49 L2524.89 729.21 L2526.98 726.03 L2529.44 722.39 L2534.44 714.20 L2536.35 711.01 L2537.08 711.56 L2537.63 711.83 L2537.90 712.02 L2549.00 719.93 L2561.29 728.03 L2565.84 731.31 L2572.84 736.22 L2595.41 751.60 L2607.33 758.79 L2612.79 762.06 L2621.89 768.07 L2625.26 770.52 L2627.08 771.71 L2634.81 776.62 L2639.27 779.26 L2655.65 788.81 L2656.84 789.54 L2658.29 790.45 L2659.66 791.27 L2663.48 793.45 L2666.39 794.73 L2669.85 796.09 L2673.40 797.18 L2678.04 798.28 L2680.04 798.64 L2682.22 799.00 L2690.96 800.37 L2697.97 801.64 L2701.15 802.19 L2702.43 802.37 L2713.35 804.19 L2720.26 805.28 L2725.09 805.92 L2727.54 806.28 L2728.73 806.47 L2730.09 804.37 L2730.73 803.28 L2731.46 802.19 L2735.19 796.18 L2737.64 792.36 L2739.92 788.99 L2741.65 786.45 L2742.38 784.99 L2742.74 784.17 L2742.92 783.54 L2743.20 782.35 L2743.47 781.08 L2743.56 778.53 L2743.47 777.89 L2742.10 777.89 L2742.01 777.07 L2741.47 775.16 L2741.38 774.89 L2740.92 773.71 L2740.47 772.89 L2739.83 771.98 L2739.01 770.98 L2737.37 769.34 L2735.10 767.34 L2734.64 767.07 L2733.18 765.97 L2733.64 765.34 L2734.19 764.52 L2734.28 764.34 L2734.46 764.25 L2735.10 763.43 L2735.73 762.61 L2736.37 761.88 L2737.01 761.06 L2737.55 760.42 L2738.10 760.97 L2738.55 761.33 L2739.01 761.70 L2739.55 761.97 L2741.74 764.15 L2745.56 768.16 L2746.56 769.07 L2746.93 769.61 L2747.29 770.07 L2747.84 771.16 L2748.11 771.98 L2748.29 772.80 L2748.38 773.62 L2748.47 775.07 L2748.47 775.89 L2748.29 778.71 L2748.29 779.80 L2748.29 781.35 L2748.38 781.99 L2748.56 782.72 L2748.75 783.81 L2749.29 785.26 L2749.84 786.36 L2750.47 787.45 L2751.29 788.36 L2752.66 789.81 L2754.21 791.36 L2758.57 795.64 L2762.21 799.19 L2763.94 800.91 L2764.85 801.64 L2765.95 802.10 L2766.86 802.46 L2767.86 802.64 L2768.22 802.64 L2768.86 802.64 L2769.49 802.64 L2770.40 802.55 L2771.13 802.28 L2771.86 801.92 L2772.50 801.46 L2773.50 800.73 L2774.86 799.73 L2775.77 799.19 L2776.50 798.82 L2777.41 798.46 L2778.32 798.28 L2779.32 798.09 L2780.41 797.91 L2781.14 798.00 L2781.87 798.09 L2783.24 798.37 L2784.51 798.82 L2785.78 799.19 L2787.15 799.46 L2787.88 799.64 L2791.79 800.01 L2793.88 800.10 L2795.88 800.28 L2797.16 800.28 L2797.89 800.19 L2798.61 800.10 L2799.25 799.82 L2799.71 799.55 L2799.98 799.37 L2800.80 798.73 L2801.43 798.09 L2802.34 797.09 L2802.62 796.91 L2802.80 796.73 L2803.16 796.46 L2803.53 796.27 L2803.89 796.09 L2804.26 795.91 L2805.35 795.46 L2806.26 795.09 L2807.26 794.73 L2808.17 794.36 L2808.99 793.73 L2809.81 793.09 L2810.63 792.54 L2811.45 792.18 L2812.36 791.91 L2813.26 791.72 L2814.08 791.72 L2814.63 791.72 L2814.99 791.72 L2815.81 792.00 L2816.45 792.18 L2816.81 792.36 L2817.09 792.54 L2817.63 792.91 L2817.91 793.45 L2818.00 793.73 L2818.18 794.00 L2818.27 794.45 L2818.36 795.27 L2818.27 795.82 L2818.18 796.27 L2817.91 797.09 L2817.91 797.28 L2818.09 797.46 L2818.18 797.55 L2818.36 797.55 L2818.45 797.55 L2811.63 809.83 L2807.53 817.20 L2806.26 819.48 L2814.36 820.84 L2827.55 822.21 L2835.38 822.66 L2840.66 822.75 L2846.30 822.39 L2851.03 822.21 L2883.34 820.21 L2864.32 847.96 L2858.95 855.87 L2828.37 903.01 L2812.17 893.64 L2800.71 889.45 L2791.06 904.65 L2789.51 906.10 L2783.96 915.75 L2773.41 933.22 L2748.38 973.53 L2695.51 1058.51 L2628.90 1165.25 L2624.44 1172.62 L2622.89 1175.17 L2615.34 1187.18 L2583.22 1236.68 L2564.20 1225.03 L2558.19 1219.66 L2551.00 1214.75 L2547.18 1212.29 L2544.00 1213.02 L2539.72 1214.02 L2539.08 1214.20 L2538.54 1213.93 L2538.26 1213.93 L2537.99 1213.75 L2535.81 1209.29 L2534.53 1206.65 L2522.07 1200.64 L2522.70 1198.46 L2514.69 1195.82 L2511.14 1192.55 L2504.23 1188.18 L2503.23 1187.00 L2502.95 1186.63 L2495.68 1182.17 L2495.13 1181.81 L2494.58 1181.45 L2494.58 1181.45 Z" stroke-linejoin="round"/>
	</defs>
	<use xlink:href="#path_SqhtgevV" style="fill:#CEE3E4;stroke:#CEF5F5;stroke-width:5.76"/>
	<defs>
		<path id="path_zfziStNr" d="M219.86 365.97 L219.86 365.97 L183.00 364.88 L169.44 354.78 L151.97 341.86 L95.55 297.45 L76.17 285.17 L34.22 252.41 L28.48 232.30 L30.85 212.56 L40.77 212.10 L64.61 228.85 L92.82 243.31 L120.30 247.86 L138.87 250.87 L172.99 249.50 L176.90 249.32 L211.76 237.76 L250.16 211.65 L304.67 167.52 L365.82 115.92 L405.59 78.98 L472.02 32.94 L503.32 29.75 L517.79 28.30 L554.28 39.76 L596.50 56.69 L639.82 70.79 L651.65 77.25 L670.03 84.99 L690.69 93.36 L717.26 101.91 L732.46 108.37 L740.10 114.20 L744.84 118.93 L748.38 123.93 L752.12 132.39 L754.57 142.04 L755.66 150.32 L756.21 154.87 L752.66 169.97 L752.12 170.79 L746.20 183.53 L740.38 192.45 L732.73 202.37 L725.91 212.83 L719.99 219.20 L712.17 227.66 L698.52 239.76 L680.77 252.69 L663.66 262.88 L644.19 273.07 L625.08 284.08 L612.79 289.36 L607.06 291.54 L589.95 299.73 L580.58 304.10 L569.66 307.83 L558.38 310.92 L546.36 315.02 L534.63 318.84 L521.70 322.39 L499.59 327.66 L485.39 330.67 L469.74 334.03 L383.84 350.78 L297.93 367.52 L235.24 369.07 L219.86 365.97 L219.86 365.97 Z" stroke-linejoin="round"/>
	</defs>
	<use xlink:href="#path_zfziStNr" style="fill:#9DC8CA;stroke:#9DD7F0;stroke-width:5.76"/>
	<defs>
		<path id="path_xsAxNtHJ" d="M1215.67 1022.39 L1215.67 1022.39 L1215.67 1022.39 L1214.12 1016.84 L1179.63 950.42 L1159.43 903.01 L1154.24 890.91 L1138.96 844.77 L1137.59 841.32 L1136.59 838.04 L1135.59 830.40 L1135.41 826.94 L1134.86 823.66 L1133.68 819.75 L1125.67 802.73 L1121.48 794.36 L1117.48 786.63 L1112.93 769.25 L1110.56 764.34 L1110.29 763.79 L1109.02 759.88 L1105.74 753.69 L1101.28 739.86 L1097.28 735.49 L1093.27 727.39 L1090.45 720.93 L1087.90 714.93 L1085.72 705.55 L1083.99 695.36 L1083.45 671.89 L1083.45 670.89 L1083.17 670.07 L1082.08 668.16 L1078.99 663.88 L1077.35 661.51 L1076.08 660.06 L1075.26 658.78 L1071.89 653.60 L1068.34 648.14 L1063.79 642.22 L1058.97 636.40 L1055.33 632.49 L1053.05 629.85 L1051.69 628.39 L1050.41 627.12 L1049.23 625.57 L1047.14 622.21 L1045.77 619.84 L1043.32 615.75 L1040.31 611.01 L1039.04 609.01 L1037.67 606.74 L1036.13 604.64 L1031.94 598.00 L1024.57 585.54 L1019.75 576.89 L1016.11 570.43 L1013.74 564.15 L1007.64 548.59 L1002.73 534.49 L1002.64 531.94 L1002.55 529.85 L1002.64 527.48 L1002.73 526.03 L1003.18 523.21 L1003.37 521.75 L1003.55 520.39 L1004.09 518.20 L1004.46 516.47 L1004.64 515.65 L1004.82 514.93 L1005.10 513.47 L1005.28 512.74 L1005.46 512.01 L1005.64 511.10 L1006.10 509.65 L1006.46 508.56 L1007.28 506.92 L1007.92 505.55 L1008.55 504.28 L1009.10 503.10 L1009.55 502.28 L1010.74 500.91 L1012.56 499.37 L1014.38 498.18 L1015.92 497.36 L1017.29 496.64 L1018.65 496.00 L1019.75 495.54 L1021.20 495.18 L1022.20 494.91 L1022.84 495.00 L1023.57 495.09 L1024.30 494.91 L1025.30 494.73 L1026.03 494.45 L1027.03 494.00 L1027.85 493.45 L1028.85 492.09 L1030.30 490.45 L1031.39 488.99 L1031.94 488.17 L1032.12 487.63 L1032.21 487.17 L1032.76 486.45 L1033.21 485.81 L1033.58 484.99 L1034.12 484.08 L1034.67 483.53 L1035.03 483.26 L1036.13 482.53 L1037.04 482.08 L1037.95 481.26 L1038.86 480.71 L1039.04 480.44 L1039.04 480.17 L1038.67 480.08 L1038.77 479.71 L1039.22 479.17 L1039.77 478.71 L1040.59 477.62 L1041.40 476.62 L1042.13 475.44 L1042.86 474.25 L1043.50 473.34 L1044.50 471.80 L1045.50 470.16 L1047.14 468.88 L1049.05 466.70 L1050.50 465.24 L1052.32 463.79 L1053.78 462.42 L1054.87 461.51 L1056.51 460.33 L1058.42 458.78 L1058.79 458.33 L1059.33 457.69 L1059.79 457.33 L1060.33 457.24 L1060.79 456.87 L1061.70 455.96 L1062.97 455.14 L1064.88 454.51 L1065.70 454.23 L1066.34 453.87 L1067.61 453.05 L1068.43 452.51 L1069.16 451.87 L1070.07 451.32 L1070.89 450.69 L1071.43 450.59 L1072.16 450.41 L1072.53 450.23 L1072.71 449.87 L1072.80 449.50 L1073.07 448.96 L1073.62 448.59 L1075.35 448.05 L1076.08 447.59 L1076.98 447.05 L1077.26 447.14 L1077.53 447.23 L1079.17 446.50 L1081.44 445.04 L1081.99 444.50 L1082.35 443.86 L1082.72 443.50 L1083.36 443.13 L1083.72 442.86 L1084.08 442.59 L1084.54 442.40 L1084.90 442.31 L1085.17 442.13 L1085.45 442.13 L1085.81 441.95 L1086.09 441.86 L1086.72 441.50 L1086.90 441.40 L1087.18 441.40 L1087.54 441.40 L1087.81 441.40 L1088.45 441.59 L1089.36 441.40 L1090.00 441.22 L1090.73 440.49 L1091.91 439.40 L1096.37 436.67 L1097.10 436.40 L1097.82 436.31 L1098.83 435.94 L1099.83 435.31 L1101.28 434.58 L1104.29 433.12 L1105.56 432.58 L1106.83 432.49 L1110.65 431.67 L1112.93 430.67 L1115.39 429.39 L1118.39 428.03 L1120.12 427.57 L1122.12 426.85 L1123.12 426.21 L1125.12 424.93 L1126.67 423.75 L1128.22 422.48 L1134.22 418.29 L1135.68 417.20 L1136.59 416.11 L1137.77 413.92 L1138.77 411.92 L1139.41 410.47 L1140.32 409.28 L1141.41 408.37 L1142.05 408.19 L1143.23 407.37 L1149.06 404.92 L1152.42 404.55 L1153.79 404.73 L1155.43 405.37 L1156.61 405.64 L1157.88 406.19 L1159.07 407.74 L1159.98 408.37 L1160.43 408.10 L1160.70 407.65 L1159.43 406.92 L1159.43 406.19 L1159.70 405.64 L1161.52 405.01 L1163.34 404.28 L1164.98 403.19 L1166.26 402.82 L1167.53 402.91 L1169.17 402.55 L1171.81 402.46 L1174.08 402.91 L1174.99 402.91 L1176.08 402.55 L1176.81 402.91 L1177.18 403.73 L1177.54 405.01 L1177.72 405.64 L1177.72 405.74 L1177.81 405.92 L1177.90 405.92 L1177.99 405.92 L1177.99 405.83 L1178.09 405.74 L1178.18 405.64 L1178.18 405.55 L1178.18 405.46 L1178.18 405.37 L1178.09 405.28 L1178.09 405.28 L1177.99 405.19 L1177.81 404.73 L1177.99 404.19 L1178.36 403.73 L1178.90 403.55 L1179.63 403.37 L1180.27 403.19 L1180.72 403.01 L1181.54 402.91 L1182.27 402.82 L1182.73 403.01 L1183.09 403.10 L1183.45 403.37 L1183.91 403.37 L1184.55 403.28 L1184.73 403.37 L1184.82 403.73 L1185.18 404.01 L1186.00 403.82 L1186.46 403.46 L1186.91 403.46 L1187.19 403.64 L1187.91 404.19 L1188.64 404.55 L1189.46 405.19 L1189.92 405.37 L1190.46 405.64 L1190.73 407.10 L1190.83 407.28 L1190.92 407.28 L1191.28 407.01 L1191.37 406.74 L1191.37 406.55 L1191.46 406.19 L1191.64 405.46 L1191.92 404.92 L1192.10 404.64 L1192.37 404.37 L1192.65 404.01 L1192.92 403.73 L1193.10 403.46 L1193.28 403.37 L1193.46 403.37 L1194.56 403.37 L1195.01 403.37 L1195.92 403.37 L1196.74 403.46 L1199.93 403.64 L1200.65 404.01 L1201.29 404.37 L1202.02 404.73 L1202.38 404.92 L1202.57 405.37 L1202.47 406.01 L1202.38 407.28 L1202.47 407.46 L1202.75 407.46 L1202.93 407.28 L1203.20 406.83 L1203.47 406.19 L1203.57 405.55 L1203.75 405.01 L1203.93 404.37 L1204.20 403.92 L1204.66 403.46 L1204.93 403.28 L1205.48 403.10 L1206.20 402.82 L1206.93 402.55 L1209.12 402.19 L1211.66 401.91 L1213.76 402.10 L1217.03 401.37 L1222.13 401.37 L1224.40 400.91 L1227.13 400.64 L1229.77 400.55 L1233.87 400.55 L1237.24 400.46 L1239.78 401.09 L1240.60 401.73 L1241.24 402.55 L1241.88 403.73 L1242.33 404.37 L1242.70 404.46 L1242.97 404.01 L1243.42 403.01 L1244.61 402.10 L1246.88 400.55 L1248.88 399.64 L1250.80 399.00 L1252.52 398.36 L1254.71 398.27 L1257.26 398.18 L1258.98 398.91 L1260.26 399.18 L1261.17 399.00 L1261.44 399.00 L1261.62 399.00 L1261.71 399.18 L1261.71 401.09 L1261.71 401.82 L1261.62 403.73 L1261.81 403.92 L1261.90 404.01 L1262.08 403.92 L1262.26 403.73 L1262.44 403.46 L1262.53 403.19 L1262.53 403.01 L1262.44 402.64 L1262.35 401.28 L1262.35 399.91 L1262.44 399.64 L1262.53 399.37 L1262.63 399.00 L1262.90 398.55 L1263.17 398.27 L1264.26 397.55 L1265.72 397.18 L1267.17 396.64 L1268.72 396.36 L1270.00 395.91 L1271.54 395.18 L1272.82 394.72 L1276.28 393.27 L1278.91 392.81 L1280.28 392.27 L1281.64 391.63 L1282.83 391.36 L1284.37 391.09 L1286.47 390.81 L1289.38 391.27 L1291.65 391.63 L1291.93 391.45 L1292.38 391.27 L1293.57 390.63 L1295.38 390.36 L1296.84 389.90 L1297.75 388.54 L1298.39 387.90 L1299.57 387.17 L1301.94 386.44 L1304.67 385.26 L1307.49 384.44 L1309.40 384.81 L1309.94 385.72 L1310.04 387.17 L1310.22 388.36 L1310.76 389.45 L1310.95 389.54 L1311.22 389.54 L1311.40 389.36 L1311.58 389.08 L1311.67 388.90 L1311.77 388.26 L1311.77 387.63 L1311.67 386.99 L1311.95 385.63 L1312.04 384.72 L1312.49 384.08 L1315.31 381.62 L1316.68 380.44 L1317.68 378.89 L1319.23 376.98 L1320.41 376.25 L1321.96 376.25 L1326.69 374.07 L1328.96 373.16 L1330.60 372.61 L1334.24 370.34 L1337.43 367.88 L1339.16 366.70 L1340.88 365.88 L1343.07 364.70 L1345.53 363.42 L1346.98 362.51 L1348.98 361.15 L1350.99 360.15 L1352.62 359.42 L1354.26 358.33 L1355.26 357.69 L1356.26 357.24 L1360.45 354.14 L1366.18 348.23 L1370.91 344.32 L1375.92 339.40 L1391.03 323.66 L1420.51 290.27 L1434.80 279.16 L1452.00 270.43 L1462.73 267.43 L1469.01 265.70 L1473.20 265.24 L1475.93 265.61 L1476.11 265.70 L1476.29 265.79 L1480.02 267.88 L1483.12 272.25 L1485.12 272.80 L1486.48 275.71 L1490.40 277.16 L1491.22 276.16 L1496.13 279.80 L1502.05 285.72 L1506.78 289.90 L1515.33 303.73 L1524.25 318.38 L1526.98 324.11 L1531.71 334.12 L1534.99 339.04 L1538.08 341.95 L1540.08 343.04 L1544.63 347.68 L1548.91 355.96 L1553.92 363.42 L1571.12 380.53 L1579.76 388.45 L1583.13 391.90 L1589.59 398.46 L1595.78 402.46 L1608.42 410.65 L1614.98 412.92 L1621.16 414.74 L1626.72 417.47 L1631.54 421.20 L1635.27 424.48 L1638.36 426.75 L1639.18 427.39 L1642.28 427.94 L1644.64 428.03 L1647.56 428.39 L1652.38 430.58 L1654.84 430.76 L1657.11 431.39 L1658.47 431.39 L1661.48 432.12 L1662.57 432.85 L1664.66 433.76 L1665.57 434.22 L1666.94 434.58 L1667.67 434.76 L1668.21 434.76 L1669.49 435.03 L1670.58 434.94 L1670.12 435.31 L1667.85 437.22 L1649.74 452.69 L1631.90 466.97 L1631.27 467.34 L1611.15 479.62 L1597.78 487.63 L1610.70 498.55 L1602.87 510.74 L1594.05 524.57 L1603.06 530.30 L1618.89 540.49 L1634.09 550.14 L1634.45 550.41 L1625.17 564.97 L1620.16 572.89 L1616.52 578.53 L1615.89 579.53 L1611.15 586.81 L1606.51 594.09 L1601.96 601.46 L1597.32 608.56 L1595.68 608.47 L1596.60 614.47 L1593.14 614.65 L1591.68 614.74 L1591.23 615.84 L1590.95 619.93 L1592.05 622.66 L1592.23 623.21 L1592.50 624.03 L1592.50 624.94 L1592.68 626.85 L1595.87 630.58 L1596.05 630.76 L1596.32 636.40 L1598.14 640.04 L1603.24 648.50 L1610.24 657.15 L1613.07 661.06 L1624.81 669.52 L1626.63 672.43 L1629.81 671.89 L1630.72 671.98 L1631.99 671.98 L1630.72 678.71 L1629.99 682.44 L1629.26 682.90 L1628.63 683.81 L1625.71 685.72 L1624.71 686.72 L1624.26 687.45 L1623.44 688.72 L1622.80 690.00 L1622.26 691.36 L1620.16 696.55 L1619.62 697.91 L1619.16 699.00 L1618.71 700.10 L1618.43 701.10 L1627.08 707.65 L1628.35 708.65 L1635.45 714.38 L1635.36 713.56 L1635.54 712.56 L1635.72 712.29 L1636.27 711.65 L1637.27 713.56 L1676.31 748.59 L1675.40 749.96 L1675.86 750.41 L1681.50 755.42 L1680.50 755.69 L1679.68 755.87 L1685.05 760.79 L1686.14 761.70 L1690.60 765.25 L1693.06 766.97 L1695.06 768.16 L1697.42 769.80 L1699.70 771.43 L1701.61 772.62 L1704.16 773.89 L1705.70 774.80 L1706.70 775.35 L1707.80 775.98 L1713.71 778.89 L1714.17 779.17 L1714.71 779.35 L1715.81 779.90 L1718.08 781.08 L1717.72 781.72 L1715.62 784.45 L1713.98 786.99 L1713.26 788.36 L1711.62 791.45 L1702.06 812.11 L1699.52 817.84 L1694.24 830.12 L1693.60 831.67 L1689.05 841.77 L1685.14 850.60 L1682.13 852.14 L1681.32 854.15 L1677.77 861.88 L1675.58 866.98 L1672.85 873.16 L1671.12 877.89 L1669.76 881.63 L1669.67 881.90 L1667.58 889.27 L1665.48 896.91 L1665.39 897.28 L1665.12 898.09 L1664.94 898.91 L1664.03 902.55 L1662.75 907.56 L1661.20 913.75 L1659.57 920.57 L1657.38 929.21 L1655.74 935.31 L1655.11 937.77 L1654.02 941.77 L1653.29 944.59 L1652.38 947.78 L1651.92 949.51 L1651.47 951.42 L1650.74 953.87 L1650.19 955.69 L1649.56 957.51 L1648.56 959.97 L1647.74 961.70 L1646.83 963.52 L1643.82 968.80 L1641.82 972.07 L1637.82 978.99 L1625.90 996.82 L1624.44 999.10 L1621.26 1004.46 L1618.80 1008.65 L1616.62 1012.38 L1614.34 1016.48 L1608.70 1026.67 L1607.06 1029.49 L1606.24 1031.13 L1605.24 1032.85 L1604.24 1034.58 L1602.69 1037.22 L1602.06 1038.22 L1601.51 1038.95 L1599.78 1041.59 L1598.14 1043.86 L1596.96 1045.41 L1595.32 1047.60 L1593.96 1049.32 L1584.58 1061.79 L1583.58 1061.61 L1579.58 1061.34 L1575.03 1061.24 L1572.84 1061.15 L1568.02 1061.06 L1554.55 1060.43 L1553.10 1060.52 L1551.73 1061.79 L1540.45 1061.06 L1539.17 1060.97 L1536.90 1060.70 L1533.81 1059.88 L1531.53 1059.15 L1528.53 1057.97 L1526.62 1056.88 L1525.98 1056.60 L1525.25 1056.15 L1523.70 1055.15 L1516.15 1050.33 L1503.68 1042.23 L1501.59 1045.05 L1498.13 1049.60 L1490.49 1053.42 L1487.21 1055.15 L1486.85 1055.24 L1486.76 1055.15 L1486.85 1054.87 L1490.49 1049.05 L1490.49 1048.87 L1490.22 1048.78 L1484.12 1055.42 L1474.29 1060.33 L1472.65 1061.79 L1469.74 1065.79 L1466.74 1067.34 L1465.46 1066.61 L1464.64 1065.34 L1457.00 1063.34 L1455.82 1060.43 L1449.90 1060.15 L1447.36 1057.24 L1444.53 1056.97 L1443.53 1056.42 L1445.08 1053.15 L1442.81 1050.60 L1438.62 1047.32 L1438.89 1043.68 L1433.98 1030.76 L1430.34 1023.57 L1429.97 1021.75 L1429.52 1019.48 L1424.51 1021.57 L1415.05 1022.94 L1410.41 1024.30 L1409.13 1025.48 L1403.22 1027.76 L1384.66 1027.76 L1378.10 1027.85 L1374.56 1028.40 L1362.91 1025.94 L1357.90 1022.03 L1353.35 1019.75 L1349.08 1019.66 L1347.44 1021.39 L1345.07 1020.39 L1341.80 1018.93 L1340.70 1019.11 L1338.79 1018.39 L1334.24 1018.93 L1328.96 1021.66 L1321.68 1018.66 L1324.14 1009.65 L1316.22 1006.10 L1309.40 1009.01 L1295.57 997.37 L1301.21 986.90 L1297.66 975.26 L1293.57 971.80 L1290.38 971.07 L1286.29 974.80 L1283.10 983.08 L1277.18 994.64 L1269.63 1028.49 L1243.24 1023.39 L1239.15 1022.57 L1220.58 1016.38 L1215.67 1022.39 L1215.67 1022.39 Z" stroke-linejoin="round"/>
	</defs>
	<use xlink:href="#path_xsAxNtHJ" style="fill:#9DC8CA;stroke:#9DD7F0;stroke-width:5.76"/>
	<defs>
		<path id="path_wUHGsDeb" d="M1704.16 773.89 L1704.16 773.89 L1704.16 773.89 L1701.61 772.62 L1699.70 771.43 L1697.42 769.80 L1695.06 768.16 L1693.06 766.97 L1690.60 765.25 L1686.14 761.70 L1685.05 760.79 L1679.68 755.87 L1680.50 755.69 L1681.50 755.42 L1675.86 750.41 L1675.40 749.96 L1676.31 748.59 L1637.27 713.56 L1636.27 711.65 L1635.72 712.29 L1635.54 712.56 L1635.36 713.56 L1635.45 714.38 L1628.35 708.65 L1627.08 707.65 L1618.43 701.10 L1618.71 700.10 L1619.16 699.00 L1619.62 697.91 L1620.16 696.55 L1622.26 691.36 L1622.80 690.00 L1623.44 688.72 L1624.26 687.45 L1624.71 686.72 L1625.71 685.72 L1628.63 683.81 L1629.26 682.90 L1629.99 682.44 L1630.72 678.71 L1631.99 671.98 L1630.72 671.98 L1629.81 671.89 L1626.63 672.43 L1624.81 669.52 L1613.07 661.06 L1610.24 657.15 L1603.24 648.50 L1598.14 640.04 L1596.32 636.40 L1596.05 630.76 L1595.87 630.58 L1592.68 626.85 L1592.50 624.94 L1592.50 624.03 L1592.23 623.21 L1592.05 622.66 L1590.95 619.93 L1591.23 615.84 L1591.68 614.74 L1593.14 614.65 L1596.60 614.47 L1595.68 608.47 L1597.32 608.56 L1601.96 601.46 L1606.51 594.09 L1611.15 586.81 L1615.89 579.53 L1616.52 578.53 L1620.16 572.89 L1625.17 564.97 L1634.45 550.41 L1634.09 550.14 L1618.89 540.49 L1603.06 530.30 L1594.05 524.57 L1602.87 510.74 L1610.70 498.55 L1597.78 487.63 L1611.15 479.62 L1631.27 467.34 L1631.90 466.97 L1649.74 452.69 L1667.85 437.22 L1670.12 435.31 L1670.58 434.94 L1672.94 435.31 L1675.04 436.13 L1678.68 436.95 L1680.86 437.67 L1683.59 438.49 L1686.96 439.49 L1687.78 439.77 L1688.96 440.13 L1690.96 441.04 L1693.78 442.31 L1695.88 443.22 L1696.42 443.41 L1698.88 443.86 L1701.15 444.22 L1702.97 444.77 L1704.16 445.13 L1706.34 445.95 L1709.16 447.32 L1709.80 447.77 L1710.89 448.05 L1715.99 450.50 L1716.17 450.50 L1716.71 450.78 L1717.53 450.87 L1718.08 451.14 L1719.44 451.41 L1720.26 451.32 L1721.90 451.23 L1723.36 451.32 L1727.63 451.23 L1729.73 451.32 L1731.55 451.50 L1732.73 451.50 L1734.37 451.60 L1737.74 452.32 L1738.83 452.69 L1740.10 453.05 L1741.47 453.14 L1743.29 453.14 L1745.02 452.78 L1749.47 452.60 L1751.93 452.60 L1754.12 452.41 L1756.12 452.51 L1757.30 452.60 L1758.21 452.41 L1759.67 452.51 L1760.67 452.32 L1767.77 452.69 L1773.68 454.05 L1780.78 456.24 L1786.42 456.96 L1791.88 457.69 L1802.71 458.97 L1803.89 458.97 L1805.08 459.06 L1810.26 460.60 L1818.54 464.15 L1820.27 466.06 L1821.37 466.70 L1822.82 467.15 L1823.37 467.34 L1823.64 467.79 L1825.19 468.25 L1825.64 468.34 L1827.46 469.16 L1829.19 470.25 L1830.10 470.52 L1831.10 470.25 L1832.01 470.89 L1832.74 470.61 L1833.56 470.79 L1835.02 471.34 L1836.29 471.98 L1836.84 472.34 L1838.11 472.98 L1839.29 473.43 L1840.66 473.80 L1841.20 473.89 L1842.20 474.07 L1845.48 474.80 L1847.03 475.16 L1847.94 475.34 L1848.85 475.71 L1849.39 475.98 L1849.85 476.35 L1850.12 476.71 L1850.67 477.35 L1852.67 476.80 L1854.40 476.16 L1855.85 475.62 L1857.31 475.34 L1857.95 475.07 L1860.04 474.16 L1872.87 470.16 L1873.14 470.52 L1873.42 470.79 L1870.87 472.89 L1873.14 474.89 L1873.14 476.16 L1872.69 479.26 L1872.69 479.53 L1872.33 483.99 L1873.14 492.27 L1873.87 494.27 L1873.42 503.28 L1873.78 508.65 L1878.79 511.83 L1880.79 513.74 L1881.24 515.38 L1880.88 516.84 L1877.24 522.66 L1875.51 525.30 L1875.15 526.75 L1876.24 527.57 L1877.33 527.85 L1881.61 528.57 L1882.06 529.03 L1882.52 529.58 L1882.70 530.30 L1883.06 533.94 L1884.06 535.40 L1885.88 539.68 L1887.52 542.59 L1888.16 543.50 L1889.52 544.95 L1890.07 545.59 L1890.34 545.86 L1889.16 546.86 L1888.16 547.96 L1887.07 549.14 L1886.34 550.32 L1886.16 550.41 L1886.16 548.68 L1884.88 550.32 L1882.34 554.42 L1879.06 559.60 L1876.51 563.42 L1875.96 564.43 L1865.68 580.17 L1860.40 588.17 L1859.31 589.72 L1854.40 597.46 L1852.21 600.91 L1850.67 603.19 L1850.21 604.01 L1849.12 605.46 L1842.30 616.38 L1840.75 618.57 L1835.56 626.76 L1832.92 630.94 L1830.46 634.85 L1828.10 638.40 L1823.37 645.68 L1818.91 652.60 L1817.63 654.69 L1814.27 659.88 L1811.81 663.70 L1805.53 673.43 L1805.17 674.07 L1804.62 674.89 L1791.97 694.54 L1790.15 697.37 L1789.24 698.64 L1785.33 704.46 L1784.60 705.55 L1781.87 709.74 L1779.41 713.65 L1776.50 718.20 L1775.50 719.84 L1774.14 722.02 L1773.77 722.48 L1773.50 722.93 L1772.41 724.57 L1762.31 740.13 L1760.58 742.41 L1757.66 746.41 L1755.57 749.05 L1754.03 750.69 L1752.66 752.05 L1752.11 754.51 L1751.30 760.70 L1748.11 777.80 L1747.75 779.08 L1746.56 784.90 L1746.47 785.72 L1745.38 791.18 L1745.29 791.54 L1741.10 790.00 L1740.47 790.09 L1739.65 790.00 L1735.37 788.36 L1735.01 788.36 L1732.28 787.08 L1731.00 786.63 L1730.73 787.27 L1729.64 786.90 L1728.64 786.45 L1727.63 785.99 L1726.63 785.45 L1719.81 781.99 L1718.08 781.08 L1715.81 779.90 L1714.71 779.35 L1714.17 779.17 L1713.71 778.89 L1707.80 775.98 L1706.70 775.35 L1705.70 774.80 L1704.16 773.89 L1704.16 773.89 Z" stroke-linejoin="round"/>
	</defs>
	<use xlink:href="#path_wUHGsDeb" style="fill:#9DC8CA;stroke:#9DD7F0;stroke-width:5.76"/>
	<defs>
		<path id="path_eyUPzgxh" d="M2076.07 1734.22 L2076.07 1734.22 L2080.53 1727.04 L2085.26 1719.67 L2094.55 1705.02 L2103.37 1691.18 L2117.66 1668.71 L2107.38 1662.07 L2110.11 1657.70 L2113.57 1652.15 L2118.66 1644.05 L2120.48 1641.14 L2121.30 1640.05 L2117.11 1637.50 L2106.38 1630.58 L2101.83 1627.67 L2111.29 1612.75 L2120.39 1598.55 L2090.54 1579.54 L2060.79 1560.52 L2035.31 1544.32 L2031.03 1541.59 L2026.21 1538.50 L2020.38 1534.86 L2016.01 1532.13 L2014.56 1531.13 L2009.19 1527.67 L2001.45 1522.76 L1997.45 1520.21 L1988.99 1514.84 L1983.16 1511.11 L1971.42 1503.65 L1952.86 1491.82 L1941.67 1484.72 L1931.38 1478.17 L1927.47 1475.62 L1911.91 1465.71 L1896.71 1455.97 L1882.15 1446.69 L1874.60 1441.96 L1869.60 1438.68 L1852.31 1427.67 L1837.47 1418.12 L1822.64 1408.65 L1816.54 1404.74 L1802.07 1395.55 L1801.44 1395.46 L1793.15 1390.36 L1792.24 1389.82 L1787.06 1386.18 L1782.51 1383.27 L1782.33 1382.90 L1781.51 1382.36 L1769.95 1375.08 L1767.49 1373.44 L1766.86 1372.53 L1764.13 1370.80 L1761.76 1369.34 L1760.03 1368.25 L1759.03 1368.16 L1725.54 1346.78 L1720.08 1343.32 L1719.08 1343.32 L1717.72 1342.50 L1710.71 1338.13 L1708.89 1336.95 L1708.62 1336.77 L1707.89 1336.31 L1706.70 1335.59 L1703.79 1333.68 L1702.61 1332.86 L1703.25 1331.86 L1724.45 1298.28 L1725.72 1296.37 L1727.00 1294.28 L1728.09 1292.55 L1729.55 1290.27 L1732.73 1285.27 L1742.38 1270.07 L1750.38 1257.61 L1759.94 1242.50 L1764.94 1234.77 L1768.59 1228.94 L1770.22 1226.40 L1773.68 1221.03 L1777.05 1215.66 L1779.87 1211.20 L1784.42 1204.10 L1785.51 1202.37 L1787.69 1199.01 L1791.88 1192.46 L1793.88 1189.27 L1796.16 1185.81 L1797.43 1183.72 L1797.80 1183.17 L1799.34 1180.72 L1800.80 1178.44 L1803.98 1173.62 L1813.17 1159.24 L1814.27 1157.61 L1814.81 1156.79 L1815.36 1155.79 L1823.09 1143.68 L1824.28 1144.32 L1825.82 1146.96 L1830.28 1140.23 L1836.20 1131.58 L1838.56 1128.12 L1845.03 1119.12 L1846.85 1116.75 L1847.94 1115.29 L1848.57 1114.57 L1848.76 1114.20 L1852.85 1108.83 L1857.40 1103.01 L1855.40 1101.46 L1854.49 1101.19 L1853.67 1100.73 L1857.40 1095.91 L1860.22 1092.27 L1862.50 1089.18 L1863.50 1087.90 L1864.04 1087.18 L1864.59 1086.36 L1865.41 1085.36 L1866.41 1083.90 L1869.60 1079.35 L1870.41 1078.17 L1872.14 1075.62 L1873.14 1074.07 L1874.51 1071.89 L1875.87 1069.62 L1877.79 1066.25 L1880.06 1062.15 L1882.34 1057.79 L1885.07 1052.69 L1886.43 1050.14 L1887.52 1047.87 L1889.89 1043.50 L1890.62 1042.04 L1893.80 1036.04 L1894.98 1033.76 L1896.26 1031.49 L1897.08 1029.76 L1898.81 1026.67 L1900.08 1024.39 L1901.35 1022.12 L1902.45 1020.21 L1904.99 1015.75 L1906.81 1012.65 L1908.82 1009.29 L1911.09 1005.56 L1915.82 998.10 L1925.56 982.90 L1925.74 982.63 L1925.92 982.35 L1931.57 973.53 L1932.29 972.34 L1933.30 970.71 L1933.93 969.71 L1934.57 968.52 L1935.21 967.52 L1936.03 965.98 L1936.66 964.79 L1937.66 962.88 L1938.12 961.97 L1938.48 961.24 L1938.94 960.42 L1939.30 959.61 L1939.85 958.60 L1940.58 957.06 L1941.03 956.06 L1941.39 955.24 L1942.03 953.87 L1942.49 952.78 L1943.12 951.23 L1946.31 943.86 L1952.40 929.85 L1958.05 916.66 L1959.50 913.38 L1961.87 907.74 L1963.33 904.10 L1968.60 892.00 L1970.70 887.18 L1971.70 884.63 L1973.79 879.90 L1980.71 864.06 L1982.98 858.88 L1983.71 857.06 L1984.16 855.97 L1984.62 856.24 L1985.80 856.97 L1990.90 860.24 L1993.26 861.61 L1997.63 864.34 L1998.72 864.79 L2002.82 867.25 L2008.28 870.62 L2013.92 874.07 L2018.29 876.80 L2023.57 880.17 L2029.12 883.63 L2029.57 883.90 L2030.30 884.45 L2030.94 885.72 L2034.31 887.99 L2041.31 892.45 L2046.41 895.64 L2047.86 895.73 L2051.32 897.55 L2052.51 898.28 L2058.51 902.19 L2059.15 902.55 L2059.69 903.01 L2059.97 903.10 L2061.79 904.19 L2072.25 911.02 L2073.80 912.02 L2074.89 912.74 L2077.17 914.20 L2089.27 921.84 L2100.01 928.85 L2103.74 931.31 L2108.29 934.31 L2110.29 935.67 L2111.93 936.77 L2112.29 937.04 L2112.93 938.04 L2118.39 941.59 L2133.31 951.05 L2140.78 955.78 L2144.23 958.06 L2148.24 960.61 L2152.33 963.25 L2154.79 964.79 L2155.06 964.43 L2157.61 960.42 L2159.43 957.60 L2164.07 950.23 L2174.45 956.88 L2177.36 958.70 L2178.09 959.15 L2179.18 968.80 L2177.90 971.71 L2177.08 973.35 L2174.81 976.80 L2174.08 977.99 L2181.63 982.72 L2182.54 983.35 L2183.18 983.81 L2183.91 984.26 L2192.64 989.54 L2193.55 990.18 L2208.84 1000.10 L2210.03 1001.01 L2217.67 1006.10 L2238.69 1019.66 L2243.61 1022.75 L2244.51 1023.30 L2253.61 1029.12 L2254.80 1029.21 L2255.62 1029.76 L2256.98 1030.76 L2269.63 1038.77 L2276.73 1043.23 L2280.01 1045.32 L2280.46 1045.59 L2282.83 1047.05 L2283.83 1047.87 L2286.01 1049.32 L2294.20 1054.51 L2295.11 1054.42 L2296.29 1055.06 L2311.86 1064.97 L2312.76 1065.52 L2319.77 1070.07 L2330.87 1077.08 L2332.88 1078.44 L2333.33 1079.26 L2341.61 1084.54 L2344.98 1086.72 L2346.16 1087.45 L2348.35 1088.81 L2350.17 1090.00 L2352.35 1091.36 L2352.80 1091.64 L2356.08 1093.73 L2371.73 1103.65 L2374.55 1105.56 L2381.74 1110.11 L2383.74 1111.47 L2408.32 1127.12 L2409.59 1127.94 L2417.32 1132.86 L2418.05 1133.31 L2422.24 1136.04 L2431.34 1141.77 L2432.16 1142.32 L2433.25 1142.41 L2440.89 1147.23 L2442.80 1148.51 L2444.44 1149.42 L2446.17 1150.33 L2447.81 1151.05 L2448.90 1151.60 L2450.27 1152.24 L2451.27 1152.60 L2452.81 1153.15 L2454.91 1153.87 L2455.82 1154.15 L2456.64 1154.42 L2457.55 1154.60 L2458.64 1154.88 L2460.09 1155.24 L2462.55 1155.79 L2462.46 1156.24 L2462.28 1156.70 L2459.73 1156.24 L2456.55 1155.42 L2452.54 1154.15 L2449.90 1153.06 L2447.72 1152.15 L2459.46 1164.25 L2461.00 1165.52 L2464.28 1166.34 L2465.55 1166.98 L2467.37 1166.98 L2480.57 1176.35 L2483.30 1177.81 L2494.58 1181.45 L2495.13 1181.81 L2495.68 1182.17 L2502.95 1186.63 L2503.23 1187.00 L2504.23 1188.18 L2511.14 1192.55 L2514.69 1195.82 L2522.70 1198.46 L2522.07 1200.64 L2534.53 1206.65 L2535.81 1209.29 L2537.99 1213.75 L2538.26 1213.93 L2538.54 1213.93 L2539.08 1214.20 L2539.72 1214.02 L2544.00 1213.02 L2547.18 1212.29 L2551.00 1214.75 L2558.19 1219.66 L2564.20 1225.03 L2583.22 1236.68 L2530.98 1317.11 L2525.43 1325.67 L2522.43 1360.43 L2551.09 1379.81 L2555.46 1382.72 L2565.47 1389.09 L2606.79 1415.30 L2612.34 1418.75 L2604.24 1429.04 L2603.51 1429.13 L2602.05 1429.13 L2600.05 1429.04 L2598.14 1429.22 L2597.69 1429.13 L2594.05 1436.04 L2555.01 1497.19 L2540.17 1519.57 L2533.08 1530.67 L2530.44 1534.59 L2452.72 1485.27 L2440.53 1477.72 L2400.58 1489.64 L2389.02 1507.74 L2344.43 1577.63 L2333.06 1595.46 L2326.41 1601.37 L2317.77 1620.48 L2298.93 1647.96 L2289.92 1664.34 L2286.56 1669.35 L2284.28 1672.08 L2281.37 1677.81 L2259.80 1708.38 L2259.71 1711.29 L2232.96 1752.33 L2228.50 1756.15 L2232.05 1751.79 L2222.31 1745.60 L2212.48 1739.23 L2202.47 1732.86 L2197.01 1741.23 L2194.56 1745.60 L2182.00 1737.50 L2176.72 1740.96 L2168.89 1733.13 L2162.16 1728.49 L2138.41 1755.88 L2135.86 1754.24 L2103.10 1734.13 L2094.46 1728.67 L2086.27 1740.59 L2076.07 1734.22 L2076.07 1734.22 Z" stroke-linejoin="round"/>
	</defs>
	<use xlink:href="#path_eyUPzgxh" style="fill:#6BACAF;stroke:#6BB4D2;stroke-width:5.76"/>
	<defs>
		<path id="path_ylTCvwKp" d="M1679.86 2545.78 L1679.86 2545.78 L1679.86 2545.78 L1678.13 2546.06 L1677.77 2545.33 L1677.40 2544.97 L1676.86 2544.06 L1676.40 2543.69 L1675.67 2543.33 L1675.58 2543.06 L1675.49 2542.69 L1675.31 2542.42 L1675.04 2542.15 L1674.58 2541.96 L1674.04 2541.33 L1673.49 2540.69 L1671.58 2538.78 L1666.21 2533.41 L1665.30 2532.41 L1663.57 2530.86 L1662.75 2530.50 L1661.93 2530.32 L1660.57 2529.95 L1659.93 2529.86 L1659.38 2529.68 L1659.02 2529.50 L1658.20 2529.04 L1658.02 2528.68 L1657.20 2528.50 L1656.75 2528.41 L1656.65 2528.04 L1656.47 2527.68 L1656.65 2526.86 L1656.56 2526.59 L1656.56 2526.22 L1656.29 2526.22 L1656.20 2526.04 L1656.02 2525.68 L1656.02 2525.40 L1656.02 2525.04 L1655.84 2524.67 L1655.74 2524.40 L1655.65 2524.04 L1655.56 2523.67 L1655.38 2523.49 L1655.20 2523.22 L1655.20 2522.85 L1655.11 2522.22 L1654.38 2521.58 L1653.92 2521.22 L1653.74 2520.76 L1653.56 2520.49 L1653.29 2520.40 L1648.92 2516.12 L1648.19 2515.21 L1646.64 2513.57 L1645.19 2512.30 L1643.01 2509.93 L1638.09 2505.20 L1635.45 2503.66 L1634.45 2502.84 L1634.27 2502.29 L1633.45 2501.29 L1633.09 2500.93 L1632.81 2500.47 L1632.45 2499.74 L1631.99 2498.92 L1631.81 2498.20 L1631.90 2497.83 L1631.81 2497.38 L1631.81 2496.83 L1632.09 2496.19 L1632.18 2495.47 L1632.27 2494.83 L1632.18 2494.10 L1631.36 2491.92 L1630.08 2488.73 L1629.90 2487.82 L1629.45 2486.82 L1628.90 2485.64 L1628.63 2485.00 L1628.54 2484.64 L1628.44 2484.37 L1628.08 2483.36 L1627.81 2482.64 L1627.35 2482.00 L1627.26 2481.18 L1627.08 2480.73 L1626.72 2480.18 L1626.63 2479.54 L1626.26 2478.72 L1625.62 2476.90 L1625.08 2475.63 L1624.81 2475.08 L1624.26 2473.90 L1623.89 2473.17 L1623.44 2471.26 L1622.80 2468.99 L1622.44 2467.17 L1622.17 2466.08 L1621.89 2465.26 L1621.80 2464.44 L1621.26 2461.44 L1621.26 2460.80 L1621.07 2460.16 L1620.80 2459.43 L1620.80 2458.16 L1620.89 2456.43 L1620.71 2454.06 L1620.71 2453.25 L1620.53 2452.43 L1620.07 2451.15 L1619.89 2450.70 L1619.89 2450.42 L1619.98 2449.70 L1619.62 2449.15 L1619.44 2448.15 L1619.44 2447.15 L1619.53 2446.42 L1619.80 2445.60 L1619.98 2444.97 L1620.16 2444.60 L1619.98 2444.06 L1619.98 2443.60 L1619.62 2443.42 L1619.35 2443.42 L1618.71 2443.33 L1618.16 2442.96 L1617.80 2442.60 L1617.98 2442.05 L1618.16 2441.51 L1618.16 2440.96 L1618.34 2440.60 L1618.43 2440.23 L1619.16 2440.14 L1619.25 2439.78 L1619.07 2439.51 L1618.53 2439.14 L1618.71 2438.60 L1619.07 2438.05 L1619.53 2437.78 L1619.44 2437.32 L1619.53 2436.78 L1619.89 2436.14 L1619.98 2435.41 L1619.71 2434.68 L1619.62 2433.14 L1619.62 2431.41 L1619.35 2428.68 L1619.35 2427.59 L1619.44 2426.31 L1619.25 2424.95 L1618.62 2420.58 L1617.25 2413.57 L1616.52 2409.02 L1615.98 2407.66 L1615.25 2406.66 L1614.70 2404.93 L1614.16 2403.38 L1613.61 2402.20 L1613.61 2401.65 L1613.88 2400.74 L1614.52 2400.11 L1614.89 2399.56 L1615.16 2398.10 L1615.43 2395.10 L1616.07 2391.19 L1615.89 2388.64 L1616.34 2387.37 L1617.89 2384.55 L1618.07 2382.91 L1618.07 2382.36 L1617.80 2381.82 L1617.43 2381.45 L1617.07 2381.09 L1616.98 2380.54 L1617.16 2380.00 L1617.07 2379.36 L1617.34 2379.00 L1617.71 2378.54 L1618.16 2377.63 L1617.98 2377.27 L1618.53 2376.36 L1619.71 2374.90 L1620.07 2373.63 L1620.62 2369.53 L1620.35 2365.80 L1619.35 2361.16 L1618.25 2359.07 L1617.25 2356.98 L1616.52 2356.43 L1616.25 2355.70 L1616.62 2355.16 L1616.71 2354.61 L1616.43 2353.43 L1614.61 2349.61 L1609.97 2341.78 L1608.97 2340.14 L1608.06 2339.32 L1607.33 2338.23 L1606.42 2335.87 L1604.88 2332.95 L1603.51 2331.13 L1601.96 2330.22 L1600.96 2328.59 L1600.33 2327.22 L1599.78 2323.76 L1598.05 2320.03 L1597.23 2318.03 L1596.60 2317.03 L1595.50 2314.94 L1594.87 2313.94 L1594.50 2313.57 L1594.32 2312.66 L1593.41 2310.30 L1591.23 2305.57 L1589.22 2300.38 L1588.86 2298.19 L1588.95 2296.10 L1588.86 2292.92 L1588.68 2290.46 L1588.13 2286.64 L1587.40 2282.63 L1587.22 2279.63 L1586.95 2279.00 L1586.49 2278.36 L1585.95 2278.18 L1585.58 2277.63 L1585.58 2276.90 L1584.77 2273.72 L1584.13 2272.26 L1583.49 2271.62 L1582.58 2271.26 L1582.31 2270.71 L1582.04 2269.99 L1581.13 2269.44 L1580.85 2268.90 L1580.31 2267.89 L1580.40 2267.35 L1580.03 2266.89 L1578.21 2266.07 L1577.03 2265.53 L1576.58 2264.62 L1576.58 2263.53 L1577.58 2261.89 L1578.03 2260.89 L1577.76 2259.70 L1574.85 2255.06 L1569.20 2246.51 L1567.29 2244.42 L1566.93 2244.15 L1566.57 2244.24 L1565.93 2244.60 L1565.11 2245.15 L1564.65 2244.78 L1564.65 2243.78 L1564.74 2242.96 L1564.38 2241.69 L1564.38 2240.41 L1563.93 2238.96 L1563.02 2238.41 L1562.56 2237.96 L1562.47 2237.14 L1562.47 2236.23 L1562.29 2235.77 L1562.47 2235.41 L1562.56 2234.77 L1562.56 2233.14 L1562.74 2232.23 L1562.74 2231.59 L1562.11 2231.04 L1562.02 2230.50 L1562.20 2230.04 L1562.29 2229.13 L1561.92 2228.04 L1561.65 2227.22 L1561.47 2224.13 L1561.20 2220.67 L1561.01 2217.85 L1560.83 2215.48 L1560.29 2213.03 L1560.10 2212.21 L1559.74 2211.57 L1559.10 2210.57 L1558.83 2210.02 L1558.38 2209.57 L1558.38 2208.39 L1558.10 2205.84 L1558.38 2202.47 L1558.65 2200.29 L1558.92 2199.19 L1559.38 2198.47 L1560.01 2197.65 L1560.38 2196.47 L1561.56 2193.01 L1565.29 2182.00 L1566.20 2177.90 L1566.66 2174.90 L1566.66 2172.44 L1566.75 2168.89 L1566.84 2167.07 L1566.84 2165.07 L1566.57 2158.79 L1565.65 2154.52 L1565.38 2149.88 L1566.11 2144.96 L1566.29 2138.59 L1565.65 2121.31 L1565.20 2117.94 L1565.56 2117.03 L1565.93 2116.66 L1566.20 2115.03 L1566.02 2114.03 L1565.93 2112.84 L1565.84 2112.02 L1566.11 2111.30 L1566.11 2110.66 L1565.93 2110.30 L1565.65 2110.02 L1565.29 2110.11 L1564.84 2110.02 L1564.74 2109.75 L1564.84 2109.29 L1564.93 2109.02 L1565.02 2108.20 L1565.20 2107.57 L1565.20 2107.20 L1565.56 2106.29 L1565.75 2105.84 L1565.65 2105.20 L1566.02 2104.47 L1566.20 2103.93 L1566.11 2103.56 L1566.11 2103.20 L1566.20 2102.65 L1566.38 2102.38 L1566.66 2102.11 L1566.93 2101.65 L1567.29 2100.92 L1566.93 2100.10 L1566.66 2099.29 L1566.47 2098.74 L1565.84 2097.65 L1565.20 2097.37 L1564.84 2097.19 L1564.65 2096.83 L1564.84 2096.56 L1565.47 2096.19 L1565.65 2095.83 L1565.20 2095.46 L1565.56 2095.19 L1566.02 2095.46 L1566.75 2095.65 L1567.66 2095.37 L1568.02 2094.92 L1568.38 2093.92 L1568.20 2093.01 L1568.11 2092.37 L1568.20 2091.01 L1568.20 2090.19 L1568.38 2089.19 L1568.57 2088.64 L1568.75 2088.18 L1568.75 2087.37 L1568.75 2086.09 L1568.75 2085.09 L1569.02 2083.91 L1569.02 2083.09 L1569.11 2082.09 L1569.30 2080.81 L1569.30 2080.27 L1569.57 2077.90 L1569.84 2076.72 L1570.11 2075.81 L1570.30 2074.26 L1570.30 2072.99 L1570.48 2071.99 L1570.84 2069.44 L1571.12 2065.98 L1570.93 2064.98 L1571.39 2063.43 L1571.66 2061.89 L1571.48 2060.89 L1571.02 2060.34 L1570.84 2059.61 L1570.66 2059.25 L1570.20 2058.79 L1569.57 2058.16 L1569.30 2057.70 L1569.20 2057.25 L1569.30 2055.97 L1569.75 2054.97 L1570.30 2054.15 L1571.75 2053.52 L1572.39 2053.24 L1572.66 2052.15 L1572.48 2050.70 L1573.12 2046.42 L1573.30 2044.87 L1573.39 2043.60 L1573.48 2042.51 L1573.48 2041.51 L1573.75 2039.78 L1573.75 2039.23 L1573.57 2038.87 L1573.48 2038.68 L1573.48 2037.96 L1573.66 2037.68 L1573.57 2036.59 L1573.39 2036.14 L1573.12 2035.86 L1572.84 2035.77 L1572.75 2035.59 L1572.93 2035.32 L1573.12 2035.32 L1573.21 2035.04 L1573.03 2034.77 L1573.03 2034.23 L1573.03 2033.41 L1573.12 2032.86 L1573.21 2032.22 L1573.30 2032.04 L1573.21 2031.86 L1573.12 2031.68 L1573.21 2031.50 L1573.30 2031.41 L1573.48 2031.13 L1573.57 2030.95 L1574.21 2030.40 L1574.76 2029.68 L1574.76 2029.13 L1574.66 2028.58 L1574.76 2027.77 L1574.94 2027.58 L1574.76 2027.40 L1574.66 2027.13 L1574.76 2026.40 L1574.76 2026.04 L1574.85 2025.67 L1575.03 2025.49 L1575.12 2025.22 L1575.30 2024.76 L1575.21 2024.58 L1574.94 2023.94 L1575.30 2023.31 L1575.57 2022.31 L1575.85 2020.94 L1575.76 2019.76 L1575.85 2018.58 L1576.21 2017.21 L1576.12 2016.57 L1575.94 2016.39 L1575.85 2015.85 L1575.85 2015.03 L1575.76 2013.39 L1575.66 2012.48 L1575.94 2011.84 L1575.94 2011.30 L1575.94 2010.84 L1576.12 2010.66 L1576.39 2010.84 L1577.03 2010.29 L1577.21 2009.29 L1577.21 2008.20 L1576.94 2007.38 L1576.58 2007.02 L1576.21 2006.56 L1576.12 2006.29 L1576.03 2005.93 L1576.30 2005.38 L1576.48 2005.11 L1576.58 2004.29 L1576.48 2003.74 L1576.67 2002.92 L1576.48 2002.47 L1576.48 2002.29 L1576.48 2002.01 L1576.76 2001.92 L1577.03 2001.74 L1577.03 2001.29 L1576.85 2001.10 L1576.67 2000.83 L1576.58 2000.47 L1576.76 1999.65 L1576.94 1998.92 L1576.94 1998.10 L1577.21 1997.37 L1577.39 1996.65 L1577.30 1996.19 L1577.39 1995.92 L1577.58 1995.55 L1577.48 1995.46 L1577.39 1995.19 L1577.30 1994.74 L1577.48 1994.37 L1577.67 1994.19 L1577.94 1993.92 L1578.03 1993.37 L1578.12 1993.01 L1578.30 1992.64 L1578.30 1992.19 L1578.39 1991.55 L1578.58 1991.28 L1578.39 1990.55 L1578.49 1989.91 L1578.58 1989.64 L1578.76 1988.91 L1578.76 1988.18 L1578.85 1987.82 L1579.31 1987.55 L1579.31 1987.18 L1579.21 1986.64 L1579.03 1986.27 L1579.21 1985.54 L1578.85 1984.63 L1579.12 1984.27 L1579.21 1983.82 L1579.21 1983.45 L1579.21 1982.54 L1579.03 1982.00 L1578.94 1981.36 L1579.03 1981.09 L1579.21 1980.81 L1579.12 1980.45 L1579.21 1979.99 L1579.40 1979.63 L1579.40 1979.18 L1579.12 1978.45 L1578.85 1978.17 L1578.76 1977.54 L1578.85 1977.26 L1579.03 1976.63 L1579.03 1975.72 L1578.67 1975.54 L1578.49 1975.26 L1578.49 1974.81 L1578.49 1974.26 L1578.30 1973.90 L1578.30 1973.35 L1578.21 1972.62 L1578.12 1972.17 L1578.12 1971.62 L1578.39 1971.08 L1578.30 1969.53 L1578.12 1968.80 L1577.85 1968.26 L1577.67 1966.80 L1577.30 1965.80 L1576.85 1964.98 L1576.67 1964.71 L1576.30 1964.25 L1575.76 1964.07 L1575.48 1963.89 L1575.30 1963.52 L1575.48 1963.07 L1575.39 1962.43 L1575.66 1961.98 L1575.85 1961.43 L1575.66 1960.07 L1575.57 1959.70 L1575.39 1959.25 L1575.39 1958.52 L1575.30 1957.97 L1575.12 1957.61 L1575.03 1957.43 L1574.76 1957.06 L1574.48 1956.43 L1574.48 1955.70 L1574.30 1955.06 L1574.12 1954.33 L1574.03 1953.70 L1573.94 1953.15 L1573.75 1952.70 L1573.39 1952.15 L1573.39 1951.15 L1573.30 1950.60 L1573.21 1950.42 L1573.03 1950.15 L1573.03 1949.69 L1573.03 1949.06 L1572.75 1948.51 L1572.57 1947.96 L1572.48 1947.42 L1572.39 1947.15 L1572.03 1946.05 L1571.84 1945.42 L1571.57 1945.05 L1571.48 1944.42 L1571.57 1943.69 L1571.57 1943.14 L1571.57 1943.05 L1572.57 1941.23 L1568.02 1921.94 L1566.57 1915.21 L1565.47 1910.66 L1564.65 1907.20 L1563.93 1904.20 L1562.83 1899.38 L1562.11 1896.46 L1561.56 1893.82 L1560.83 1891.00 L1560.65 1889.91 L1559.01 1882.81 L1558.01 1878.72 L1557.10 1874.72 L1556.19 1870.80 L1555.46 1867.62 L1554.83 1864.89 L1554.10 1861.89 L1553.55 1859.43 L1552.64 1855.43 L1552.28 1853.79 L1551.82 1851.97 L1551.46 1849.69 L1551.19 1848.42 L1551.00 1846.78 L1550.73 1844.78 L1550.55 1842.50 L1550.55 1841.32 L1550.46 1839.41 L1550.37 1837.05 L1550.37 1835.95 L1550.46 1834.32 L1550.55 1832.13 L1550.64 1831.22 L1550.73 1829.86 L1550.91 1827.95 L1551.28 1825.31 L1551.73 1822.67 L1552.19 1820.85 L1552.55 1819.21 L1552.91 1817.66 L1553.46 1815.94 L1554.01 1813.84 L1554.46 1812.66 L1555.01 1811.11 L1556.46 1807.38 L1557.28 1805.20 L1557.92 1803.83 L1558.38 1802.74 L1562.65 1791.73 L1567.11 1780.18 L1568.66 1775.99 L1571.21 1769.53 L1572.84 1765.43 L1573.48 1763.80 L1574.39 1761.43 L1576.58 1755.88 L1578.49 1751.24 L1579.40 1748.87 L1580.12 1746.87 L1580.85 1745.14 L1590.59 1720.48 L1591.77 1721.76 L1591.68 1723.21 L1591.86 1723.67 L1592.77 1721.30 L1593.59 1719.30 L1594.41 1717.30 L1595.23 1715.12 L1595.68 1713.93 L1596.14 1712.48 L1596.87 1710.47 L1597.41 1708.66 L1598.41 1705.38 L1598.87 1703.38 L1599.69 1699.65 L1600.42 1696.10 L1600.60 1695.01 L1601.87 1689.09 L1602.60 1686.00 L1603.42 1682.90 L1604.60 1679.17 L1606.33 1675.26 L1606.70 1674.44 L1607.24 1673.53 L1609.97 1668.71 L1614.98 1660.34 L1617.62 1656.24 L1626.90 1640.96 L1627.63 1639.68 L1628.17 1638.77 L1629.72 1635.77 L1630.99 1633.22 L1631.81 1631.22 L1632.45 1629.49 L1633.45 1626.40 L1634.36 1622.49 L1634.63 1621.12 L1635.00 1618.75 L1635.27 1617.48 L1635.45 1616.39 L1636.18 1611.29 L1639.46 1590.46 L1639.55 1589.64 L1640.46 1584.09 L1640.73 1581.90 L1640.91 1580.81 L1641.91 1574.35 L1643.19 1563.80 L1643.46 1561.25 L1643.82 1557.52 L1644.10 1553.15 L1644.55 1546.32 L1645.55 1533.77 L1645.64 1531.95 L1647.37 1509.11 L1647.74 1504.65 L1650.65 1466.52 L1650.74 1463.43 L1650.83 1462.79 L1651.10 1459.34 L1651.29 1457.33 L1651.74 1452.51 L1652.01 1449.51 L1652.20 1447.69 L1652.92 1442.32 L1653.29 1440.86 L1653.38 1439.95 L1654.02 1436.31 L1654.38 1433.95 L1654.74 1432.22 L1655.11 1430.40 L1655.47 1428.85 L1655.93 1426.85 L1656.11 1425.67 L1656.38 1424.39 L1657.11 1422.39 L1657.57 1420.85 L1657.93 1419.39 L1658.47 1417.30 L1659.20 1414.93 L1661.39 1407.93 L1662.39 1405.01 L1662.93 1403.56 L1663.93 1401.01 L1664.48 1399.46 L1665.21 1397.64 L1667.76 1391.46 L1670.76 1384.90 L1671.76 1382.90 L1672.58 1381.36 L1673.40 1379.63 L1674.31 1377.99 L1675.22 1376.35 L1675.86 1375.08 L1676.49 1373.99 L1677.13 1372.98 L1678.49 1370.53 L1679.50 1368.89 L1680.77 1366.80 L1681.41 1365.80 L1682.59 1364.07 L1686.68 1358.06 L1695.42 1344.05 L1702.61 1332.86 L1703.79 1333.68 L1706.70 1335.59 L1707.89 1336.31 L1708.62 1336.77 L1708.89 1336.95 L1710.71 1338.13 L1717.72 1342.50 L1719.08 1343.32 L1720.08 1343.32 L1725.54 1346.78 L1759.03 1368.16 L1760.03 1368.25 L1761.76 1369.34 L1764.13 1370.80 L1766.86 1372.53 L1767.49 1373.44 L1769.95 1375.08 L1781.51 1382.36 L1782.33 1382.90 L1782.51 1383.27 L1787.06 1386.18 L1792.24 1389.82 L1793.15 1390.36 L1801.44 1395.46 L1802.07 1395.55 L1816.54 1404.74 L1822.64 1408.65 L1837.47 1418.12 L1852.31 1427.67 L1869.60 1438.68 L1874.60 1441.96 L1882.15 1446.69 L1896.71 1455.97 L1911.91 1465.71 L1927.47 1475.62 L1931.38 1478.17 L1941.67 1484.72 L1952.86 1491.82 L1971.42 1503.65 L1983.16 1511.11 L1988.99 1514.84 L1997.45 1520.21 L2001.45 1522.76 L2009.19 1527.67 L2014.56 1531.13 L2016.01 1532.13 L2020.38 1534.86 L2026.21 1538.50 L2031.03 1541.59 L2035.31 1544.32 L2060.79 1560.52 L2090.54 1579.54 L2120.39 1598.55 L2111.29 1612.75 L2101.83 1627.67 L2106.38 1630.58 L2117.11 1637.50 L2121.30 1640.05 L2120.48 1641.14 L2118.66 1644.05 L2113.57 1652.15 L2110.11 1657.70 L2107.38 1662.07 L2117.66 1668.71 L2103.37 1691.18 L2094.55 1705.02 L2085.26 1719.67 L2080.53 1727.04 L2076.07 1734.22 L2086.27 1740.59 L2094.46 1728.67 L2103.10 1734.13 L2135.86 1754.24 L2138.41 1755.88 L2162.16 1728.49 L2168.89 1733.13 L2176.72 1740.96 L2182.00 1737.50 L2194.56 1745.60 L2197.01 1741.23 L2202.47 1732.86 L2212.48 1739.23 L2222.31 1745.60 L2232.05 1751.79 L2228.50 1756.15 L2232.96 1752.33 L2259.71 1711.29 L2259.80 1708.38 L2281.37 1677.81 L2284.28 1672.08 L2286.56 1669.35 L2289.92 1664.34 L2298.93 1647.96 L2317.77 1620.48 L2326.41 1601.37 L2333.06 1595.46 L2344.43 1577.63 L2389.02 1507.74 L2390.21 1509.02 L2391.84 1510.38 L2392.21 1510.56 L2374.92 1608.38 L2363.72 1672.08 L2360.90 1703.47 L2359.99 1731.59 L2357.08 1791.73 L2354.81 1830.58 L2350.62 1921.03 L2330.42 1910.48 L2303.66 1896.92 L2301.30 1896.01 L2298.02 1894.83 L2272.91 1885.36 L2290.65 1904.29 L2298.30 1912.48 L2340.52 1957.61 L2351.17 1968.98 L2365.82 1984.63 L2374.01 1998.28 L2369.00 2042.69 L2368.55 2049.51 L2389.48 2146.60 L2410.50 2243.69 L2445.35 2330.13 L2480.30 2416.48 L2515.24 2502.93 L2550.28 2589.37 L2585.86 2676.36 L2489.40 2702.84 L2456.36 2759.80 L2412.59 2851.79 L2346.98 2762.53 L2306.12 2706.93 L2243.61 2641.96 L2179.27 2607.75 L2173.72 2607.11 L2165.07 2607.02 L2160.34 2608.75 L2157.06 2609.84 L2151.97 2609.02 L2144.78 2608.75 L2128.67 2607.30 L2116.75 2609.93 L2114.29 2611.39 L2108.93 2616.40 L2107.11 2616.85 L2100.55 2615.39 L2093.00 2615.67 L2084.72 2607.48 L2081.08 2605.11 L2074.53 2600.02 L2066.34 2596.47 L2059.42 2592.28 L2053.87 2592.10 L2047.23 2591.37 L2042.31 2587.82 L2035.67 2584.00 L2026.75 2581.54 L2019.11 2580.54 L2012.46 2580.36 L1994.99 2576.63 L1991.17 2575.63 L1985.71 2576.63 L1980.07 2577.00 L1972.15 2577.91 L1970.24 2577.91 L1959.41 2576.90 L1953.50 2576.54 L1947.40 2574.27 L1942.21 2575.18 L1936.21 2575.18 L1932.48 2576.18 L1928.29 2576.54 L1918.46 2572.99 L1914.18 2572.17 L1910.91 2572.63 L1909.91 2572.72 L1908.72 2572.54 L1903.45 2569.72 L1901.44 2569.35 L1898.53 2569.26 L1896.44 2569.72 L1889.89 2569.53 L1884.70 2568.81 L1880.97 2567.08 L1877.33 2564.98 L1876.69 2564.26 L1876.78 2561.98 L1875.06 2558.52 L1872.96 2557.43 L1860.40 2556.43 L1854.03 2555.43 L1848.85 2555.70 L1842.48 2555.07 L1837.29 2555.43 L1827.92 2553.97 L1824.82 2552.97 L1819.36 2551.34 L1808.99 2548.70 L1797.52 2543.15 L1792.70 2542.96 L1788.51 2540.60 L1779.87 2534.87 L1776.78 2531.23 L1774.59 2529.13 L1770.68 2528.04 L1766.95 2526.04 L1763.94 2523.58 L1761.03 2522.67 L1757.57 2521.49 L1755.39 2520.13 L1750.38 2515.94 L1748.47 2514.94 L1745.29 2514.94 L1729.00 2508.84 L1722.81 2507.20 L1711.07 2506.57 L1706.07 2504.38 L1703.34 2501.65 L1693.33 2499.47 L1691.14 2500.56 L1688.23 2499.83 L1684.87 2501.93 L1682.23 2502.75 L1679.22 2519.12 L1681.22 2545.60 L1679.86 2545.78 L1679.86 2545.78 Z" stroke-linejoin="round"/>
	</defs>
	<use xlink:href="#path_ylTCvwKp" style="fill:#6BACAF;stroke:#6BB4D2;stroke-width:5.76"/>
	<defs>
		<path id="path_hLFtXcTB" d="M1571.57 1943.05 L1571.57 1943.05 L1571.39 1942.41 L1571.21 1941.41 L1571.12 1940.78 L1571.02 1940.59 L1571.12 1940.32 L1571.12 1940.05 L1570.66 1939.87 L1570.57 1939.23 L1570.30 1938.05 L1570.02 1937.41 L1569.93 1937.05 L1569.75 1936.86 L1569.75 1936.59 L1570.02 1936.14 L1569.93 1935.68 L1569.75 1935.41 L1569.66 1934.95 L1569.30 1934.50 L1569.20 1934.04 L1569.39 1933.77 L1569.48 1933.41 L1569.48 1933.22 L1569.02 1932.77 L1568.75 1932.31 L1568.75 1931.77 L1568.48 1930.77 L1568.20 1930.04 L1568.20 1929.49 L1568.20 1929.22 L1568.11 1929.04 L1568.02 1928.86 L1567.84 1928.31 L1567.75 1927.95 L1567.66 1927.49 L1567.66 1927.13 L1567.57 1926.49 L1567.47 1926.04 L1567.47 1925.67 L1567.20 1924.49 L1567.02 1923.67 L1566.84 1923.12 L1566.84 1922.76 L1566.66 1922.40 L1566.57 1922.12 L1566.38 1921.49 L1566.02 1920.21 L1565.75 1918.85 L1565.38 1917.85 L1565.29 1916.94 L1565.29 1916.39 L1565.11 1916.03 L1565.02 1915.84 L1564.93 1915.12 L1564.65 1914.30 L1564.38 1913.30 L1563.93 1911.57 L1563.65 1910.20 L1563.56 1909.75 L1563.38 1909.02 L1563.38 1908.75 L1563.38 1908.47 L1563.11 1908.02 L1562.92 1907.75 L1563.02 1907.29 L1562.83 1906.56 L1562.56 1905.47 L1562.20 1904.47 L1562.11 1903.65 L1561.83 1902.47 L1561.65 1901.10 L1561.29 1899.38 L1561.20 1898.74 L1560.92 1897.65 L1560.56 1896.55 L1559.74 1893.01 L1559.19 1891.19 L1559.10 1890.55 L1559.01 1889.73 L1558.74 1888.82 L1558.65 1888.09 L1558.38 1887.46 L1558.28 1886.91 L1558.56 1886.45 L1558.74 1886.00 L1558.38 1885.82 L1558.10 1885.64 L1557.92 1885.27 L1557.83 1884.82 L1557.74 1884.27 L1557.74 1883.82 L1557.65 1883.45 L1557.37 1882.81 L1557.19 1882.36 L1557.19 1881.81 L1557.19 1881.36 L1557.01 1880.81 L1556.74 1879.90 L1556.46 1878.99 L1556.46 1878.54 L1556.28 1877.99 L1556.28 1877.54 L1556.28 1876.99 L1556.28 1876.44 L1556.37 1875.99 L1556.19 1875.54 L1555.83 1875.26 L1555.64 1874.63 L1555.55 1874.08 L1555.55 1873.44 L1555.55 1873.17 L1555.28 1872.81 L1554.92 1872.35 L1554.83 1871.71 L1555.01 1871.62 L1554.92 1871.26 L1554.83 1870.89 L1554.64 1870.53 L1554.37 1869.89 L1554.28 1869.35 L1554.28 1869.07 L1554.28 1868.80 L1554.10 1868.26 L1554.10 1868.07 L1554.10 1867.71 L1553.73 1867.25 L1553.83 1866.80 L1553.83 1866.62 L1553.55 1865.98 L1553.46 1865.43 L1553.46 1864.98 L1553.28 1864.52 L1553.10 1863.89 L1552.82 1863.16 L1552.91 1862.61 L1552.64 1862.16 L1552.55 1861.89 L1552.64 1861.52 L1552.37 1861.07 L1552.28 1860.79 L1552.19 1860.43 L1552.10 1860.16 L1551.91 1859.88 L1551.91 1859.43 L1551.91 1859.25 L1551.64 1858.25 L1551.55 1857.61 L1551.46 1857.15 L1551.10 1856.24 L1551.00 1855.70 L1550.55 1853.70 L1550.46 1852.97 L1550.37 1852.60 L1550.09 1851.70 L1550.09 1850.97 L1549.73 1850.24 L1549.82 1849.51 L1549.73 1848.87 L1549.64 1848.33 L1549.37 1847.78 L1549.46 1847.33 L1549.55 1846.96 L1549.46 1846.60 L1549.18 1845.33 L1549.28 1844.32 L1549.00 1843.51 L1548.91 1842.41 L1548.91 1841.87 L1548.82 1840.96 L1548.91 1840.14 L1548.82 1839.05 L1548.91 1838.14 L1548.91 1837.23 L1549.09 1833.59 L1549.18 1831.22 L1549.28 1829.40 L1549.46 1828.22 L1549.64 1826.85 L1550.09 1826.04 L1550.09 1825.40 L1549.82 1825.31 L1549.82 1824.76 L1549.91 1823.76 L1550.09 1822.76 L1550.37 1821.94 L1550.73 1820.94 L1551.00 1819.94 L1551.10 1819.03 L1551.28 1817.85 L1551.46 1817.39 L1551.55 1817.12 L1551.55 1816.75 L1551.73 1816.39 L1551.82 1816.12 L1552.19 1815.12 L1552.55 1814.48 L1552.73 1813.66 L1553.01 1813.11 L1553.19 1812.75 L1553.28 1812.39 L1553.28 1812.02 L1553.55 1811.75 L1553.64 1811.20 L1554.01 1810.48 L1554.37 1809.66 L1554.55 1808.93 L1554.92 1808.02 L1555.64 1805.83 L1556.10 1805.20 L1556.19 1804.65 L1556.19 1804.29 L1556.28 1804.02 L1556.46 1803.92 L1556.74 1803.65 L1556.83 1803.29 L1557.01 1803.11 L1557.10 1802.65 L1557.46 1801.10 L1557.74 1800.92 L1558.10 1800.19 L1558.28 1799.65 L1558.38 1798.83 L1558.65 1797.74 L1558.92 1797.01 L1559.19 1796.55 L1559.56 1795.92 L1559.74 1795.37 L1559.83 1794.92 L1560.01 1794.64 L1560.19 1794.28 L1560.65 1793.00 L1560.92 1792.73 L1561.11 1792.46 L1561.11 1792.10 L1561.38 1791.64 L1561.38 1791.00 L1561.65 1790.64 L1561.92 1790.18 L1562.20 1789.64 L1562.56 1788.82 L1562.74 1788.09 L1562.83 1787.55 L1563.47 1786.18 L1563.84 1785.18 L1565.65 1779.72 L1561.74 1772.90 L1550.55 1763.89 L1533.26 1748.60 L1499.50 1717.57 L1491.40 1712.11 L1482.75 1704.20 L1478.02 1697.55 L1474.56 1692.00 L1469.83 1667.98 L1466.46 1655.42 L1466.10 1654.79 L1443.44 1607.11 L1441.44 1602.92 L1432.34 1578.99 L1424.70 1559.06 L1418.14 1539.86 L1414.87 1531.40 L1411.87 1520.76 L1401.95 1485.63 L1390.39 1449.42 L1381.93 1425.12 L1381.84 1424.94 L1377.47 1413.29 L1377.47 1413.11 L1375.01 1406.65 L1372.64 1401.01 L1371.37 1398.19 L1367.55 1390.27 L1358.99 1372.44 L1357.54 1368.16 L1356.26 1361.61 L1355.44 1356.61 L1349.80 1343.96 L1346.44 1336.41 L1342.34 1326.76 L1340.34 1320.57 L1331.60 1303.92 L1327.60 1296.55 L1319.59 1277.53 L1311.95 1263.34 L1306.58 1252.42 L1302.57 1244.59 L1302.30 1244.14 L1299.48 1234.68 L1297.75 1228.67 L1291.74 1215.57 L1284.65 1199.64 L1284.10 1198.64 L1278.64 1188.54 L1273.18 1176.71 L1271.09 1172.80 L1265.72 1163.97 L1250.07 1130.94 L1229.77 1066.98 L1215.67 1022.39 L1220.58 1016.38 L1239.15 1022.57 L1243.24 1023.39 L1269.63 1028.49 L1277.18 994.64 L1283.10 983.08 L1286.29 974.80 L1290.38 971.07 L1293.57 971.80 L1297.66 975.26 L1301.21 986.90 L1295.57 997.37 L1309.40 1009.01 L1316.22 1006.10 L1324.14 1009.65 L1321.68 1018.66 L1328.96 1021.66 L1334.24 1018.93 L1338.79 1018.39 L1340.70 1019.11 L1341.80 1018.93 L1345.07 1020.39 L1347.44 1021.39 L1349.08 1019.66 L1353.35 1019.75 L1357.90 1022.03 L1362.91 1025.94 L1374.56 1028.40 L1378.10 1027.85 L1384.66 1027.76 L1403.22 1027.76 L1409.13 1025.48 L1410.41 1024.30 L1415.05 1022.94 L1424.51 1021.57 L1429.52 1019.48 L1429.97 1021.75 L1430.34 1023.57 L1433.98 1030.76 L1438.89 1043.68 L1438.62 1047.32 L1442.81 1050.60 L1445.08 1053.15 L1443.53 1056.42 L1444.53 1056.97 L1447.36 1057.24 L1449.90 1060.15 L1455.82 1060.43 L1457.00 1063.34 L1464.64 1065.34 L1465.46 1066.61 L1466.74 1067.34 L1469.74 1065.79 L1472.65 1061.79 L1474.29 1060.33 L1484.12 1055.42 L1490.22 1048.78 L1490.49 1048.87 L1490.49 1049.05 L1486.85 1054.87 L1486.76 1055.15 L1486.85 1055.24 L1487.21 1055.15 L1490.49 1053.42 L1498.13 1049.60 L1501.59 1045.05 L1503.68 1042.23 L1516.15 1050.33 L1523.70 1055.15 L1525.25 1056.15 L1525.98 1056.60 L1526.62 1056.88 L1528.53 1057.97 L1531.53 1059.15 L1533.81 1059.88 L1536.90 1060.70 L1539.17 1060.97 L1540.45 1061.06 L1551.73 1061.79 L1553.10 1060.52 L1554.55 1060.43 L1568.02 1061.06 L1572.84 1061.15 L1575.03 1061.24 L1579.58 1061.34 L1583.58 1061.61 L1584.58 1061.79 L1586.86 1061.88 L1590.86 1062.25 L1595.68 1062.52 L1602.69 1062.97 L1603.97 1063.06 L1610.61 1063.34 L1615.25 1063.61 L1619.35 1063.70 L1639.00 1064.88 L1645.19 1065.25 L1646.37 1065.34 L1654.56 1065.52 L1658.75 1065.61 L1662.12 1065.79 L1665.48 1066.34 L1667.85 1066.79 L1671.03 1067.61 L1671.76 1067.89 L1672.76 1068.16 L1674.67 1068.89 L1675.86 1069.25 L1678.31 1070.34 L1681.86 1072.16 L1684.87 1073.89 L1693.24 1079.81 L1693.78 1080.17 L1694.51 1080.72 L1697.42 1082.54 L1700.06 1084.17 L1707.16 1088.72 L1726.09 1100.55 L1740.56 1109.74 L1748.29 1114.66 L1755.21 1119.21 L1760.49 1122.57 L1764.76 1125.39 L1766.22 1126.30 L1766.95 1126.76 L1768.13 1127.58 L1769.49 1128.40 L1770.50 1129.12 L1771.50 1129.76 L1771.77 1129.94 L1773.23 1130.76 L1775.68 1132.31 L1784.15 1137.95 L1784.87 1138.41 L1785.60 1138.86 L1788.06 1140.41 L1792.97 1143.59 L1793.79 1144.14 L1797.16 1146.05 L1800.89 1148.23 L1809.54 1153.42 L1808.90 1154.69 L1809.90 1155.06 L1814.27 1157.61 L1813.17 1159.24 L1803.98 1173.62 L1800.80 1178.44 L1799.34 1180.72 L1797.80 1183.17 L1797.43 1183.72 L1796.16 1185.81 L1793.88 1189.27 L1791.88 1192.46 L1787.69 1199.01 L1785.51 1202.37 L1784.42 1204.10 L1779.87 1211.20 L1777.05 1215.66 L1773.68 1221.03 L1770.22 1226.40 L1768.59 1228.94 L1764.94 1234.77 L1759.94 1242.50 L1750.38 1257.61 L1742.38 1270.07 L1732.73 1285.27 L1729.55 1290.27 L1728.09 1292.55 L1727.00 1294.28 L1725.72 1296.37 L1724.45 1298.28 L1703.25 1331.86 L1702.61 1332.86 L1695.42 1344.05 L1686.68 1358.06 L1682.59 1364.07 L1681.41 1365.80 L1680.77 1366.80 L1679.50 1368.89 L1678.49 1370.53 L1677.13 1372.98 L1676.49 1373.99 L1675.86 1375.08 L1675.22 1376.35 L1674.31 1377.99 L1673.40 1379.63 L1672.58 1381.36 L1671.76 1382.90 L1670.76 1384.90 L1667.76 1391.46 L1665.21 1397.64 L1664.48 1399.46 L1663.93 1401.01 L1662.93 1403.56 L1662.39 1405.01 L1661.39 1407.93 L1659.20 1414.93 L1658.47 1417.30 L1657.93 1419.39 L1657.57 1420.85 L1657.11 1422.39 L1656.38 1424.39 L1656.11 1425.67 L1655.93 1426.85 L1655.47 1428.85 L1655.11 1430.40 L1654.74 1432.22 L1654.38 1433.95 L1654.02 1436.31 L1653.38 1439.95 L1653.29 1440.86 L1652.92 1442.32 L1652.20 1447.69 L1652.01 1449.51 L1651.74 1452.51 L1651.29 1457.33 L1651.10 1459.34 L1650.83 1462.79 L1650.74 1463.43 L1650.65 1466.52 L1647.74 1504.65 L1647.37 1509.11 L1645.64 1531.95 L1645.55 1533.77 L1644.55 1546.32 L1644.10 1553.15 L1643.82 1557.52 L1643.46 1561.25 L1643.19 1563.80 L1641.91 1574.35 L1640.91 1580.81 L1640.73 1581.90 L1640.46 1584.09 L1639.55 1589.64 L1639.46 1590.46 L1636.18 1611.29 L1635.45 1616.39 L1635.27 1617.48 L1635.00 1618.75 L1634.63 1621.12 L1634.36 1622.49 L1633.45 1626.40 L1632.45 1629.49 L1631.81 1631.22 L1630.99 1633.22 L1629.72 1635.77 L1628.17 1638.77 L1627.63 1639.68 L1626.90 1640.96 L1617.62 1656.24 L1614.98 1660.34 L1609.97 1668.71 L1607.24 1673.53 L1606.70 1674.44 L1606.33 1675.26 L1604.60 1679.17 L1603.42 1682.90 L1602.60 1686.00 L1601.87 1689.09 L1600.60 1695.01 L1600.42 1696.10 L1599.69 1699.65 L1598.87 1703.38 L1598.41 1705.38 L1597.41 1708.66 L1596.87 1710.47 L1596.14 1712.48 L1595.68 1713.93 L1595.23 1715.12 L1594.41 1717.30 L1593.59 1719.30 L1592.77 1721.30 L1591.86 1723.67 L1591.68 1723.21 L1591.77 1721.76 L1590.59 1720.48 L1580.85 1745.14 L1580.12 1746.87 L1579.40 1748.87 L1578.49 1751.24 L1576.58 1755.88 L1574.39 1761.43 L1573.48 1763.80 L1572.84 1765.43 L1571.21 1769.53 L1568.66 1775.99 L1567.11 1780.18 L1562.65 1791.73 L1558.38 1802.74 L1557.92 1803.83 L1557.28 1805.20 L1556.46 1807.38 L1555.01 1811.11 L1554.46 1812.66 L1554.01 1813.84 L1553.46 1815.94 L1552.91 1817.66 L1552.55 1819.21 L1552.19 1820.85 L1551.73 1822.67 L1551.28 1825.31 L1550.91 1827.95 L1550.73 1829.86 L1550.64 1831.22 L1550.55 1832.13 L1550.46 1834.32 L1550.37 1835.95 L1550.37 1837.05 L1550.46 1839.41 L1550.55 1841.32 L1550.55 1842.50 L1550.73 1844.78 L1551.00 1846.78 L1551.19 1848.42 L1551.46 1849.69 L1551.82 1851.97 L1552.28 1853.79 L1552.64 1855.43 L1553.55 1859.43 L1554.10 1861.89 L1554.83 1864.89 L1555.46 1867.62 L1556.19 1870.80 L1557.10 1874.72 L1558.01 1878.72 L1559.01 1882.81 L1560.65 1889.91 L1560.83 1891.00 L1561.56 1893.82 L1562.11 1896.46 L1562.83 1899.38 L1563.93 1904.20 L1564.65 1907.20 L1565.47 1910.66 L1566.57 1915.21 L1568.02 1921.94 L1572.57 1941.23 L1571.57 1943.05 L1571.57 1943.05 Z" stroke-linejoin="round"/>
	</defs>
	<use xlink:href="#path_hLFtXcTB" style="fill:#09757A;stroke:#097D9B;stroke-width:5.76"/>
	<defs>
		<path id="path_XSWEGZiy" d="M1586.86 1061.88 L1586.86 1061.88 L1586.86 1061.88 L1584.58 1061.79 L1593.96 1049.32 L1595.32 1047.60 L1596.96 1045.41 L1598.14 1043.86 L1599.78 1041.59 L1601.51 1038.95 L1602.06 1038.22 L1602.69 1037.22 L1604.24 1034.58 L1605.24 1032.85 L1606.24 1031.13 L1607.06 1029.49 L1608.70 1026.67 L1614.34 1016.48 L1616.62 1012.38 L1618.80 1008.65 L1621.26 1004.46 L1624.44 999.10 L1625.90 996.82 L1637.82 978.99 L1641.82 972.07 L1643.82 968.80 L1646.83 963.52 L1647.74 961.70 L1648.56 959.97 L1649.56 957.51 L1650.19 955.69 L1650.74 953.87 L1651.47 951.42 L1651.92 949.51 L1652.38 947.78 L1653.29 944.59 L1654.02 941.77 L1655.11 937.77 L1655.74 935.31 L1657.38 929.21 L1659.57 920.57 L1661.20 913.75 L1662.75 907.56 L1664.03 902.55 L1664.94 898.91 L1665.12 898.09 L1665.39 897.28 L1665.48 896.91 L1667.58 889.27 L1669.67 881.90 L1669.76 881.63 L1671.12 877.89 L1672.85 873.16 L1675.58 866.98 L1677.77 861.88 L1681.32 854.15 L1682.13 852.14 L1685.14 850.60 L1689.05 841.77 L1693.60 831.67 L1694.24 830.12 L1699.52 817.84 L1702.06 812.11 L1711.62 791.45 L1713.26 788.36 L1713.98 786.99 L1715.62 784.45 L1717.72 781.72 L1718.08 781.08 L1719.81 781.99 L1726.63 785.45 L1727.63 785.99 L1728.64 786.45 L1729.64 786.90 L1730.73 787.27 L1731.00 786.63 L1732.28 787.08 L1735.01 788.36 L1735.37 788.36 L1739.65 790.00 L1740.47 790.09 L1741.10 790.00 L1745.29 791.54 L1751.11 793.64 L1753.75 794.73 L1754.66 795.64 L1758.76 797.28 L1764.58 799.55 L1768.49 800.91 L1773.04 803.19 L1777.68 805.83 L1780.32 807.56 L1781.78 808.47 L1791.24 814.56 L1798.52 819.11 L1807.81 825.03 L1828.83 838.49 L1838.56 844.68 L1838.93 845.68 L1843.48 848.78 L1844.93 849.87 L1852.94 854.51 L1853.31 854.69 L1854.03 854.69 L1857.86 857.15 L1874.14 867.52 L1887.61 876.17 L1893.07 879.71 L1898.08 882.90 L1910.45 890.63 L1910.82 891.27 L1916.82 895.18 L1917.83 895.64 L1920.65 897.46 L1922.83 898.73 L1925.01 899.46 L1926.83 900.10 L1927.65 900.10 L1928.02 900.10 L1931.29 899.46 L1939.66 892.00 L1943.03 886.72 L1945.58 890.27 L1953.77 894.82 L1963.42 898.28 L1961.41 902.83 L1963.33 904.10 L1961.87 907.74 L1959.50 913.38 L1958.05 916.66 L1952.40 929.85 L1946.31 943.86 L1943.12 951.23 L1942.49 952.78 L1942.03 953.87 L1941.39 955.24 L1941.03 956.06 L1940.58 957.06 L1939.85 958.60 L1939.30 959.61 L1938.94 960.42 L1938.48 961.24 L1938.12 961.97 L1937.66 962.88 L1936.66 964.79 L1936.03 965.98 L1935.21 967.52 L1934.57 968.52 L1933.93 969.71 L1933.30 970.71 L1932.29 972.34 L1931.57 973.53 L1925.92 982.35 L1925.74 982.63 L1925.56 982.90 L1915.82 998.10 L1911.09 1005.56 L1908.82 1009.29 L1906.81 1012.65 L1904.99 1015.75 L1902.45 1020.21 L1901.35 1022.12 L1900.08 1024.39 L1898.81 1026.67 L1897.08 1029.76 L1896.26 1031.49 L1894.98 1033.76 L1893.80 1036.04 L1890.62 1042.04 L1889.89 1043.50 L1887.52 1047.87 L1886.43 1050.14 L1885.07 1052.69 L1882.34 1057.79 L1880.06 1062.15 L1877.79 1066.25 L1875.87 1069.62 L1874.51 1071.89 L1873.14 1074.07 L1872.14 1075.62 L1870.41 1078.17 L1869.60 1079.35 L1866.41 1083.90 L1865.41 1085.36 L1864.59 1086.36 L1864.04 1087.18 L1863.50 1087.90 L1862.50 1089.18 L1860.22 1092.27 L1857.40 1095.91 L1853.67 1100.73 L1854.49 1101.19 L1855.40 1101.46 L1857.40 1103.01 L1852.85 1108.83 L1848.76 1114.20 L1848.57 1114.57 L1847.94 1115.29 L1846.85 1116.75 L1845.03 1119.12 L1838.56 1128.12 L1836.20 1131.58 L1830.28 1140.23 L1825.82 1146.96 L1824.28 1144.32 L1823.09 1143.68 L1815.36 1155.79 L1814.81 1156.79 L1814.27 1157.61 L1809.90 1155.06 L1808.90 1154.69 L1809.54 1153.42 L1800.89 1148.23 L1797.16 1146.05 L1793.79 1144.14 L1792.97 1143.59 L1788.06 1140.41 L1785.60 1138.86 L1784.87 1138.41 L1784.15 1137.95 L1775.68 1132.31 L1773.23 1130.76 L1771.77 1129.94 L1771.50 1129.76 L1770.50 1129.12 L1769.49 1128.40 L1768.13 1127.58 L1766.95 1126.76 L1766.22 1126.30 L1764.76 1125.39 L1760.49 1122.57 L1755.21 1119.21 L1748.29 1114.66 L1740.56 1109.74 L1726.09 1100.55 L1707.16 1088.72 L1700.06 1084.17 L1697.42 1082.54 L1694.51 1080.72 L1693.78 1080.17 L1693.24 1079.81 L1684.87 1073.89 L1681.86 1072.16 L1678.31 1070.34 L1675.86 1069.25 L1674.67 1068.89 L1672.76 1068.16 L1671.76 1067.89 L1671.03 1067.61 L1667.85 1066.79 L1665.48 1066.34 L1662.12 1065.79 L1658.75 1065.61 L1654.56 1065.52 L1646.37 1065.34 L1645.19 1065.25 L1639.00 1064.88 L1619.35 1063.70 L1615.25 1063.61 L1610.61 1063.34 L1603.97 1063.06 L1602.69 1062.97 L1595.68 1062.52 L1590.86 1062.25 L1586.86 1061.88 L1586.86 1061.88 Z" stroke-linejoin="round"/>
	</defs>
	<use xlink:href="#path_XSWEGZiy" style="fill:#09757A;stroke:#097D9B;stroke-width:5.76"/>
	<defs>
		<path id="path_mHuriPSD" d="M2175.90 752.33 L2175.90 752.33 L2170.99 760.06 L2169.80 758.33 L2171.72 756.78 L2173.63 753.96 L2173.81 753.69 L2173.72 753.33 L2173.53 752.69 L2173.17 751.51 L2172.26 748.41 L2167.44 747.68 L2161.70 746.77 L2158.79 745.41 L2157.79 745.59 L2157.16 744.86 L2156.34 744.04 L2155.24 743.59 L2153.88 742.22 L2153.79 735.95 L2152.51 733.85 L2148.15 729.85 L2142.05 724.39 L2139.05 721.93 L2135.32 718.66 L2128.76 714.02 L2120.66 709.29 L2115.57 707.28 L2114.29 706.19 L2111.11 705.01 L2091.36 692.36 L2078.44 684.63 L2067.79 674.89 L2066.70 673.89 L2063.79 671.98 L2062.06 670.89 L2060.51 670.07 L2059.60 669.52 L2045.68 660.42 L2048.59 649.14 L2048.77 648.41 L2049.23 647.14 L2043.59 645.59 L2040.95 644.95 L2041.68 642.86 L2044.22 635.95 L2043.77 635.85 L2036.76 636.67 L2033.21 636.04 L2031.67 631.58 L2017.20 625.48 L2011.01 615.75 L2010.28 617.11 L2007.91 621.57 L2003.18 618.57 L2001.55 617.66 L2001.45 617.38 L1996.72 614.29 L1991.26 610.83 L1993.81 606.74 L1994.81 605.10 L1995.17 604.64 L1996.45 602.64 L1988.53 598.91 L1987.53 597.46 L1982.71 594.27 L1982.25 592.91 L1981.16 592.54 L1975.70 585.45 L1972.70 583.63 L1970.24 580.71 L1968.33 578.89 L1960.32 571.61 L1959.05 569.25 L1949.13 565.97 L1944.03 561.42 L1942.39 560.79 L1938.39 556.42 L1937.03 555.33 L1935.84 554.96 L1933.93 554.51 L1932.84 553.96 L1931.38 552.51 L1931.20 552.51 L1929.38 552.05 L1926.29 552.87 L1923.83 551.78 L1923.47 551.60 L1920.65 552.23 L1915.64 552.23 L1913.00 553.05 L1911.45 552.69 L1908.36 551.41 L1907.00 551.69 L1905.27 551.32 L1904.17 549.87 L1894.53 547.23 L1893.53 545.77 L1890.34 545.86 L1890.07 545.59 L1889.52 544.95 L1888.16 543.50 L1887.52 542.59 L1885.88 539.68 L1884.06 535.40 L1883.06 533.94 L1882.70 530.30 L1882.52 529.58 L1882.06 529.03 L1881.61 528.57 L1877.33 527.85 L1876.24 527.57 L1875.15 526.75 L1875.51 525.30 L1877.24 522.66 L1880.88 516.84 L1881.24 515.38 L1880.79 513.74 L1878.79 511.83 L1873.78 508.65 L1873.42 503.28 L1873.87 494.27 L1873.14 492.27 L1872.33 483.99 L1872.69 479.53 L1872.69 479.26 L1873.14 476.16 L1873.14 474.89 L1870.87 472.89 L1873.42 470.79 L1873.14 470.52 L1872.87 470.16 L1873.69 469.79 L1875.24 469.16 L1876.06 468.70 L1876.88 468.16 L1877.42 467.70 L1878.42 466.88 L1879.15 466.52 L1882.70 465.15 L1885.52 460.97 L1896.35 456.60 L1902.72 455.78 L1911.73 453.51 L1918.28 451.60 L1930.93 445.04 L1933.57 444.22 L1934.20 443.31 L1935.48 442.86 L1952.59 436.95 L1964.51 432.21 L1976.88 427.94 L2001.18 418.47 L2006.64 415.02 L2011.83 415.11 L2015.92 410.10 L2018.38 408.19 L2026.57 407.83 L2031.76 405.92 L2029.94 401.19 L2035.12 398.91 L2035.21 398.46 L2027.75 380.17 L2027.75 379.17 L2028.21 378.62 L2028.94 378.62 L2029.57 378.80 L2031.58 383.08 L2033.30 382.53 L2032.48 377.44 L2032.85 376.98 L2033.30 376.62 L2034.03 376.89 L2037.85 388.54 L2042.86 401.82 L2052.32 398.27 L2062.79 393.09 L2082.53 406.01 L2084.90 409.47 L2084.45 408.46 L2083.54 406.37 L2071.07 392.18 L2069.98 390.99 L2068.89 389.72 L2068.16 388.72 L2066.97 386.54 L2065.43 383.99 L2061.33 379.80 L2057.05 375.25 L2056.60 374.43 L2056.78 373.71 L2057.33 372.98 L2058.06 372.52 L2059.15 371.89 L2060.24 371.34 L2060.51 370.07 L2060.60 369.61 L2060.51 369.07 L2060.33 368.70 L2060.42 368.16 L2060.70 367.88 L2061.24 367.61 L2064.61 366.52 L2066.97 365.70 L2067.52 365.70 L2067.70 366.24 L2068.07 366.88 L2068.34 367.06 L2068.98 366.88 L2069.89 366.61 L2072.25 365.97 L2073.98 365.52 L2075.16 365.15 L2075.80 364.79 L2076.62 364.79 L2077.44 365.15 L2078.17 365.33 L2079.80 368.79 L2081.44 367.88 L2082.44 367.52 L2083.35 366.97 L2084.08 366.52 L2084.63 366.15 L2085.45 365.61 L2086.18 365.24 L2086.99 365.06 L2087.36 364.61 L2087.63 364.33 L2087.99 363.88 L2088.72 363.33 L2089.63 362.60 L2090.36 362.24 L2091.00 362.15 L2091.91 361.79 L2094.55 360.33 L2098.37 358.24 L2100.01 357.42 L2100.37 357.05 L2100.46 356.78 L2100.46 356.42 L2100.19 355.87 L2099.82 355.23 L2099.37 354.32 L2099.37 353.78 L2099.64 353.23 L2100.01 352.87 L2100.28 352.87 L2100.74 353.32 L2102.10 355.14 L2102.55 355.60 L2103.01 355.69 L2103.56 355.51 L2105.01 354.69 L2106.10 354.14 L2106.74 353.87 L2108.38 354.32 L2110.56 354.96 L2111.93 355.23 L2113.38 355.23 L2115.20 355.05 L2116.57 354.78 L2117.66 354.51 L2118.21 354.23 L2118.75 353.69 L2125.40 350.50 L2126.12 350.41 L2126.40 350.59 L2126.58 351.23 L2128.22 352.60 L2129.40 353.51 L2130.31 353.87 L2131.13 353.96 L2131.95 353.69 L2132.59 352.96 L2133.49 351.87 L2134.50 350.78 L2135.50 349.77 L2136.68 348.23 L2140.05 342.68 L2141.50 340.22 L2139.77 337.13 L2137.86 334.12 L2137.68 333.85 L2137.50 333.76 L2137.32 333.76 L2137.14 333.85 L2136.13 334.31 L2135.50 334.67 L2135.13 334.67 L2134.95 334.31 L2134.95 333.94 L2135.22 333.58 L2135.68 333.12 L2136.22 332.85 L2136.86 332.67 L2137.59 332.40 L2138.05 332.21 L2138.32 332.30 L2138.50 332.58 L2138.41 332.94 L2138.32 333.40 L2141.78 339.58 L2141.87 339.58 L2141.96 339.58 L2142.59 338.86 L2144.41 337.76 L2146.87 335.94 L2149.97 333.85 L2148.24 331.49 L2146.96 329.67 L2146.33 329.85 L2145.96 329.76 L2145.42 329.76 L2144.78 329.85 L2143.78 330.30 L2142.23 331.03 L2140.68 331.76 L2139.05 332.67 L2138.95 332.67 L2138.86 332.67 L2138.86 332.58 L2138.95 332.49 L2139.14 331.94 L2139.86 331.21 L2141.05 330.48 L2142.59 329.57 L2144.32 328.76 L2146.24 327.75 L2147.42 327.03 L2148.51 326.75 L2148.78 327.21 L2148.78 327.66 L2147.78 328.76 L2149.69 331.49 L2150.97 333.21 L2163.43 324.84 L2163.89 324.48 L2164.25 324.02 L2164.16 323.66 L2162.71 321.29 L2162.34 321.11 L2162.16 321.11 L2160.16 322.66 L2158.97 323.48 L2158.70 323.48 L2158.16 322.93 L2158.07 322.48 L2158.25 322.11 L2166.89 315.65 L2174.54 309.83 L2178.90 306.55 L2188.73 299.18 L2205.84 286.35 L2210.39 282.90 L2210.75 282.62 L2211.21 282.44 L2211.57 282.53 L2212.30 283.71 L2213.85 282.53 L2213.67 282.35 L2213.94 281.99 L2214.21 281.80 L2214.67 281.99 L2214.58 282.35 L2214.30 282.71 L2211.57 284.72 L2212.94 286.44 L2213.67 287.26 L2213.94 287.35 L2214.94 286.81 L2218.76 284.17 L2224.22 280.44 L2227.59 280.26 L2233.87 284.62 L2233.69 284.72 L2233.50 284.81 L2233.05 284.99 L2233.41 290.99 L2228.32 301.82 L2209.75 340.40 L2210.39 341.31 L2211.12 342.50 L2213.03 344.68 L2214.94 346.32 L2218.94 350.96 L2212.30 361.06 L2205.48 369.98 L2194.19 376.71 L2201.38 383.81 L2194.19 393.36 L2194.28 396.64 L2195.83 401.09 L2197.74 406.37 L2202.84 405.64 L2204.11 410.83 L2204.11 413.56 L2201.47 414.83 L2198.65 416.65 L2198.01 419.38 L2196.92 419.93 L2196.19 420.48 L2197.29 420.93 L2197.74 421.02 L2198.20 421.11 L2198.65 421.39 L2199.47 421.93 L2200.29 422.57 L2200.93 423.48 L2202.02 424.84 L2204.57 427.76 L2210.39 434.22 L2216.30 440.86 L2222.22 447.32 L2230.86 456.87 L2231.23 454.60 L2233.41 450.69 L2235.87 447.05 L2240.60 449.96 L2241.42 449.50 L2244.79 450.78 L2249.61 453.87 L2255.16 457.42 L2268.72 467.34 L2264.35 472.80 L2262.62 476.25 L2257.26 482.81 L2260.99 488.45 L2260.44 489.27 L2261.99 491.27 L2267.36 497.18 L2269.63 499.73 L2271.18 501.10 L2272.27 501.73 L2274.36 502.55 L2278.37 504.46 L2286.47 507.37 L2296.93 509.92 L2318.13 512.01 L2320.86 512.11 L2323.87 513.38 L2326.69 514.20 L2328.60 514.47 L2330.78 514.47 L2332.88 514.29 L2333.79 514.11 L2335.15 513.65 L2336.70 513.02 L2338.97 511.92 L2343.07 509.56 L2347.34 507.19 L2348.07 506.83 L2348.80 506.74 L2349.98 506.55 L2351.62 506.55 L2353.53 506.83 L2355.08 507.37 L2356.08 507.83 L2357.45 508.74 L2358.17 509.19 L2359.18 509.74 L2362.09 515.20 L2365.55 523.21 L2358.45 526.03 L2358.08 526.39 L2358.63 526.48 L2362.72 526.57 L2371.01 526.66 L2381.93 526.75 L2381.47 528.39 L2381.29 529.39 L2381.11 536.58 L2380.92 536.95 L2378.65 537.86 L2375.01 538.95 L2366.55 541.13 L2361.54 542.22 L2360.27 542.50 L2359.90 542.41 L2359.63 542.22 L2359.27 541.68 L2358.99 540.86 L2358.99 540.04 L2358.72 538.22 L2358.81 537.13 L2358.90 536.58 L2358.99 536.22 L2359.36 536.22 L2359.72 535.85 L2359.99 535.49 L2359.99 535.04 L2359.99 534.67 L2359.81 534.31 L2359.45 534.13 L2359.18 534.03 L2358.81 534.03 L2358.45 534.22 L2358.17 534.58 L2355.44 533.40 L2355.08 533.22 L2354.53 533.22 L2354.08 533.22 L2353.26 534.58 L2349.71 540.77 L2349.62 541.22 L2345.62 547.87 L2343.80 550.59 L2343.43 551.23 L2341.79 553.87 L2340.97 554.87 L2340.43 555.60 L2339.88 556.24 L2339.52 556.51 L2337.97 558.15 L2334.06 561.15 L2333.70 561.42 L2315.31 575.07 L2314.77 575.62 L2317.13 578.35 L2319.23 581.17 L2319.95 582.35 L2320.50 583.26 L2320.77 583.81 L2321.59 585.45 L2322.87 587.99 L2323.32 589.27 L2323.78 590.54 L2325.96 597.00 L2331.78 595.27 L2334.88 594.73 L2337.88 594.64 L2339.25 594.64 L2341.52 594.91 L2344.43 595.55 L2347.25 596.55 L2349.98 597.82 L2351.08 598.46 L2355.72 601.37 L2367.27 608.74 L2370.64 610.92 L2372.19 611.83 L2373.83 611.83 L2386.11 619.66 L2385.66 620.48 L2385.29 620.84 L2387.93 622.66 L2391.03 624.57 L2395.21 627.30 L2400.13 630.40 L2414.59 639.68 L2414.14 640.40 L2413.96 640.68 L2411.50 644.32 L2405.86 652.96 L2405.49 653.60 L2405.04 654.42 L2401.49 659.88 L2399.85 662.33 L2399.49 662.88 L2398.49 664.43 L2394.03 663.97 L2388.93 663.61 L2372.55 662.06 L2362.63 660.88 L2357.90 660.42 L2351.89 659.88 L2345.62 659.15 L2342.16 658.78 L2336.15 658.15 L2335.88 658.06 L2331.33 657.69 L2330.33 657.60 L2328.78 657.33 L2328.42 657.33 L2326.96 657.06 L2325.78 656.78 L2325.05 656.60 L2323.78 656.15 L2323.14 655.87 L2321.68 655.33 L2321.14 655.05 L2320.23 654.60 L2319.68 654.33 L2318.77 653.78 L2317.13 652.69 L2315.95 651.87 L2312.13 649.41 L2309.58 647.68 L2308.85 647.23 L2308.49 648.32 L2308.31 648.96 L2307.76 651.69 L2305.12 668.79 L2305.03 669.52 L2303.12 679.35 L2302.21 682.99 L2301.84 684.08 L2301.21 685.90 L2300.93 686.54 L2300.48 687.81 L2299.48 689.81 L2298.20 692.00 L2296.66 694.45 L2294.57 697.82 L2293.47 699.46 L2292.56 700.91 L2292.11 701.19 L2289.20 705.65 L2288.29 707.10 L2286.65 709.65 L2284.55 712.93 L2281.82 717.20 L2274.64 712.65 L2272.45 711.29 L2267.08 707.83 L2262.17 704.65 L2260.44 703.55 L2259.26 702.83 L2258.26 702.28 L2256.44 701.37 L2255.43 700.91 L2254.25 700.46 L2252.70 699.91 L2249.70 699.09 L2249.16 699.00 L2246.79 699.00 L2245.06 698.91 L2243.15 699.00 L2241.24 699.37 L2239.60 699.73 L2238.87 700.00 L2236.60 700.82 L2235.23 701.19 L2232.96 701.82 L2230.96 702.19 L2229.14 702.28 L2227.32 702.28 L2225.77 702.10 L2224.59 702.01 L2223.59 701.82 L2221.49 701.28 L2219.58 700.37 L2217.85 699.46 L2212.66 696.00 L2211.57 695.36 L2210.84 696.55 L2204.93 705.83 L2204.84 707.10 L2203.38 709.10 L2198.65 716.66 L2184.91 738.13 L2180.36 745.32 L2177.99 749.05 L2175.90 752.33 L2175.90 752.33 Z" stroke-linejoin="round"/>
	</defs>
	<use xlink:href="#path_mHuriPSD" style="fill:#004249;stroke:#00465F;stroke-width:5.76"/>
	<defs>
		<path id="path_oqsJQTMk" d="M1751.11 793.64 L1751.11 793.64 L1751.11 793.64 L1745.29 791.54 L1745.38 791.18 L1746.47 785.72 L1746.56 784.90 L1747.75 779.08 L1748.11 777.80 L1751.30 760.70 L1752.11 754.51 L1752.66 752.05 L1754.03 750.69 L1755.57 749.05 L1757.66 746.41 L1760.58 742.41 L1762.31 740.13 L1772.41 724.57 L1773.50 722.93 L1773.77 722.48 L1774.14 722.02 L1775.50 719.84 L1776.50 718.20 L1779.41 713.65 L1781.87 709.74 L1784.60 705.55 L1785.33 704.46 L1789.24 698.64 L1790.15 697.37 L1791.97 694.54 L1804.62 674.89 L1805.17 674.07 L1805.53 673.43 L1811.81 663.70 L1814.27 659.88 L1817.63 654.69 L1818.91 652.60 L1823.37 645.68 L1828.10 638.40 L1830.46 634.85 L1832.92 630.94 L1835.56 626.76 L1840.75 618.57 L1842.30 616.38 L1849.12 605.46 L1850.21 604.01 L1850.67 603.19 L1852.21 600.91 L1854.40 597.46 L1859.31 589.72 L1860.40 588.17 L1865.68 580.17 L1875.96 564.43 L1876.51 563.42 L1879.06 559.60 L1882.34 554.42 L1884.88 550.32 L1886.16 548.68 L1886.16 550.41 L1886.34 550.32 L1887.07 549.14 L1888.16 547.96 L1889.16 546.86 L1890.34 545.86 L1893.53 545.77 L1894.53 547.23 L1904.17 549.87 L1905.27 551.32 L1907.00 551.69 L1908.36 551.41 L1911.45 552.69 L1913.00 553.05 L1915.64 552.23 L1920.65 552.23 L1923.47 551.60 L1923.83 551.78 L1926.29 552.87 L1929.38 552.05 L1931.20 552.51 L1931.38 552.51 L1932.84 553.96 L1933.93 554.51 L1935.84 554.96 L1937.03 555.33 L1938.39 556.42 L1942.39 560.79 L1944.03 561.42 L1949.13 565.97 L1959.05 569.25 L1960.32 571.61 L1968.33 578.89 L1970.24 580.71 L1972.70 583.63 L1975.70 585.45 L1981.16 592.54 L1982.25 592.91 L1982.71 594.27 L1987.53 597.46 L1988.53 598.91 L1996.45 602.64 L1995.17 604.64 L1994.81 605.10 L1993.81 606.74 L1991.26 610.83 L1996.72 614.29 L2001.45 617.38 L2001.55 617.66 L2003.18 618.57 L2007.91 621.57 L2010.28 617.11 L2011.01 615.75 L2017.20 625.48 L2031.67 631.58 L2033.21 636.04 L2036.76 636.67 L2043.77 635.85 L2044.22 635.95 L2041.68 642.86 L2040.95 644.95 L2043.59 645.59 L2049.23 647.14 L2048.77 648.41 L2048.59 649.14 L2045.68 660.42 L2059.60 669.52 L2060.51 670.07 L2062.06 670.89 L2060.97 672.62 L2058.15 677.07 L2047.95 693.18 L2043.13 700.37 L2029.94 721.11 L2024.39 729.85 L2020.47 736.22 L2018.93 738.49 L2013.56 747.05 L2012.56 748.78 L2012.01 749.87 L2011.37 750.96 L2010.92 751.96 L2010.28 753.33 L2009.55 754.78 L2009.19 755.78 L2008.73 756.87 L2008.19 758.33 L2007.73 759.51 L2007.28 760.79 L2007.01 761.79 L2006.73 762.70 L2006.55 763.43 L2006.46 764.06 L2006.19 765.34 L2005.91 766.52 L2005.64 767.98 L2005.46 769.07 L2005.18 770.89 L2004.82 773.71 L2004.37 779.44 L2004.09 785.72 L2002.18 784.63 L1998.63 782.63 L2000.09 784.08 L1998.27 783.44 L1997.54 783.26 L1998.27 783.72 L2002.18 785.99 L2001.45 797.91 L2001.36 799.46 L2001.27 800.91 L2001.18 802.19 L2001.09 803.28 L2001.00 805.19 L2000.91 806.37 L2000.73 808.83 L2000.63 809.92 L2000.45 811.11 L2000.27 812.20 L2000.00 813.74 L1999.82 814.93 L1999.63 816.02 L1999.36 817.57 L1998.91 819.20 L1998.72 819.84 L1998.54 820.66 L1998.36 821.30 L1998.00 822.30 L1997.72 823.21 L1996.99 825.48 L1996.18 827.67 L1993.08 834.86 L1984.16 855.97 L1983.71 857.06 L1982.98 858.88 L1980.71 864.06 L1973.79 879.90 L1971.70 884.63 L1970.70 887.18 L1968.60 892.00 L1963.33 904.10 L1961.41 902.83 L1963.42 898.28 L1953.77 894.82 L1945.58 890.27 L1943.03 886.72 L1939.66 892.00 L1931.29 899.46 L1928.02 900.10 L1927.65 900.10 L1926.83 900.10 L1925.01 899.46 L1922.83 898.73 L1920.65 897.46 L1917.83 895.64 L1916.82 895.18 L1910.82 891.27 L1910.45 890.63 L1898.08 882.90 L1893.07 879.71 L1887.61 876.17 L1874.14 867.52 L1857.86 857.15 L1854.03 854.69 L1853.31 854.69 L1852.94 854.51 L1844.93 849.87 L1843.48 848.78 L1838.93 845.68 L1838.56 844.68 L1828.83 838.49 L1807.81 825.03 L1798.52 819.11 L1791.24 814.56 L1781.78 808.47 L1780.32 807.56 L1777.68 805.83 L1773.04 803.19 L1768.49 800.91 L1764.58 799.55 L1758.76 797.28 L1754.66 795.64 L1753.75 794.73 L1751.11 793.64 L1751.11 793.64 Z" stroke-linejoin="round"/>
	</defs>
	<use xlink:href="#path_oqsJQTMk" style="fill:#004249;stroke:#00465F;stroke-width:5.76"/>
</svg>
