<?xml version="1.0" encoding="UTF-8" standalone="no"?>
<!-- This is a Stata 16.1 generated SVG file (http://www.stata.com) -->

<svg version="1.1" width="4.00in" height="5.16in" viewBox="0 0 2880 3715" xmlns="http://www.w3.org/2000/svg" xmlns:xlink="http://www.w3.org/1999/xlink">
	<desc>Stata Graph - Graph</desc>
	<rect x="0" y="0" width="2880" height="3715" style="fill:#FFFFFF;stroke:none"/>
	<defs>
		<path id="path_ykmhOqkh" d="M2359.12 1950.61 L2359.12 1950.61 L2359.70 1952.70 L2357.73 1952.81 L2356.80 1952.93 L2288.07 1952.81 L2282.97 1954.09 L2282.97 1952.81 L2276.35 1924.02 L2270.54 1896.74 L2265.09 1870.85 L2264.86 1869.46 L2264.39 1868.76 L2262.77 1863.42 L2262.53 1862.61 L2242.92 1867.83 L2236.41 1869.46 L2226.55 1872.01 L2223.64 1872.36 L2220.86 1871.78 L2219.12 1873.17 L2203.33 1885.36 L2199.73 1885.59 L2176.86 1886.99 L2147.14 1890.35 L2138.79 1873.99 L2150.05 1815.24 L2153.99 1800.96 L2161.89 1791.44 L2182.43 1766.60 L2236.53 1701.01 L2275.54 1653.87 L2392.20 1731.42 L2414.61 1756.73 L2475.55 1819.07 L2504.34 1837.65 L2527.21 1876.77 L2523.03 1876.08 L2513.40 1874.68 L2490.88 1877.70 L2467.43 1883.51 L2447.58 1891.98 L2410.78 1909.16 L2410.78 1910.09 L2401.84 1914.85 L2391.16 1920.65 L2379.90 1890.59 L2378.04 1891.17 L2347.97 1900.11 L2346.23 1900.69 L2345.77 1902.54 L2352.62 1936.21 L2355.29 1935.63 L2356.68 1941.09 L2358.31 1947.82 L2359.12 1950.61 L2359.12 1950.61 Z" stroke-linejoin="round"/>
	</defs>
	<use xlink:href="#path_ykmhOqkh" style="fill:#CEE3E4;stroke:#CEF5F5;stroke-width:5.76"/>
	<defs>
		<path id="path_MDyfCDyO" d="M2586.18 2838.96 L2586.18 2838.96 L2586.18 2838.96 L2579.33 2840.81 L2575.97 2826.88 L2575.27 2823.86 L2574.34 2820.03 L2569.24 2800.07 L2565.29 2784.86 L2565.06 2783.70 L2564.13 2780.33 L2563.20 2776.50 L2559.72 2776.38 L2548.69 2775.92 L2548.11 2775.80 L2546.02 2775.45 L2533.71 2773.94 L2531.51 2773.60 L2527.33 2772.55 L2521.06 2770.58 L2517.23 2769.18 L2514.67 2768.37 L2512.70 2767.79 L2510.61 2767.33 L2508.64 2766.86 L2506.90 2766.63 L2503.65 2766.40 L2483.10 2765.70 L2475.67 2765.35 L2471.61 2765.24 L2467.43 2764.89 L2464.29 2764.66 L2461.27 2764.19 L2458.26 2763.50 L2455.35 2762.80 L2452.45 2761.64 L2450.25 2760.48 L2447.92 2758.97 L2445.95 2757.69 L2444.21 2756.30 L2443.16 2755.37 L2441.19 2753.40 L2440.03 2752.23 L2433.18 2744.34 L2430.05 2740.51 L2413.10 2720.77 L2410.78 2718.10 L2408.57 2715.55 L2407.87 2714.85 L2402.42 2709.05 L2399.63 2705.80 L2398.47 2704.40 L2398.12 2703.82 L2397.89 2703.24 L2397.66 2702.66 L2397.54 2701.39 L2397.43 2700.80 L2397.08 2700.22 L2396.73 2699.76 L2398.94 2697.44 L2405.32 2690.94 L2407.18 2688.96 L2413.68 2682.23 L2419.83 2675.96 L2424.24 2671.20 L2433.07 2662.03 L2438.17 2656.81 L2439.91 2656.46 L2441.42 2655.06 L2442.35 2654.14 L2442.47 2655.18 L2442.70 2655.88 L2443.05 2656.57 L2443.51 2657.15 L2443.98 2657.50 L2444.79 2657.97 L2446.30 2658.55 L2448.04 2658.90 L2453.61 2659.36 L2463.60 2656.92 L2481.24 2652.74 L2492.97 2649.72 L2493.78 2649.38 L2508.99 2645.78 L2514.44 2644.15 L2517.69 2642.76 L2521.76 2640.90 L2522.80 2640.32 L2525.47 2638.23 L2528.95 2634.98 L2528.49 2633.93 L2527.91 2631.96 L2526.98 2628.71 L2526.17 2626.62 L2525.59 2624.76 L2524.77 2621.98 L2524.08 2619.66 L2523.38 2617.68 L2522.34 2615.01 L2521.87 2614.20 L2521.64 2613.73 L2521.29 2613.27 L2520.25 2611.76 L2517.58 2610.37 L2518.27 2606.42 L2518.27 2603.98 L2518.04 2601.43 L2517.58 2599.34 L2517.00 2597.13 L2516.65 2596.09 L2516.42 2594.93 L2515.14 2590.75 L2508.41 2567.99 L2505.39 2557.66 L2509.45 2555.69 L2513.63 2553.71 L2518.16 2551.51 L2521.64 2549.88 L2527.91 2546.98 L2529.42 2546.17 L2530.46 2545.59 L2531.39 2545.01 L2532.32 2544.31 L2534.06 2543.03 L2538.24 2539.55 L2540.91 2537.23 L2547.18 2532.24 L2554.84 2525.62 L2559.60 2521.67 L2563.55 2518.31 L2568.42 2514.36 L2570.05 2512.97 L2573.30 2510.41 L2574.34 2509.48 L2575.16 2510.64 L2575.27 2510.99 L2575.39 2511.46 L2575.62 2512.50 L2577.01 2518.54 L2580.50 2533.63 L2593.61 2522.72 L2617.99 2501.82 L2627.51 2494.39 L2638.77 2484.17 L2649.80 2475.47 L2664.77 2463.28 L2682.77 2449.35 L2673.02 2434.37 L2654.44 2406.28 L2649.22 2410.45 L2641.44 2409.06 L2638.19 2408.36 L2628.67 2407.32 L2633.32 2403.61 L2635.17 2402.10 L2635.29 2401.86 L2635.29 2401.63 L2635.29 2401.52 L2635.06 2401.05 L2634.82 2400.70 L2634.59 2400.35 L2626.58 2388.16 L2623.80 2384.10 L2611.72 2366.11 L2600.11 2348.58 L2599.07 2345.33 L2593.61 2336.73 L2589.32 2329.42 L2611.14 2312.12 L2634.48 2294.24 L2622.75 2276.25 L2611.03 2257.91 L2598.49 2225.87 L2583.63 2218.32 L2580.73 2215.07 L2582.12 2209.03 L2580.50 2206.83 L2577.25 2203.34 L2580.50 2201.25 L2589.09 2195.57 L2597.10 2190.11 L2618.22 2175.95 L2624.49 2171.77 L2628.79 2168.86 L2632.85 2176.29 L2681.96 2269.28 L2730.13 2355.89 L2755.55 2401.86 L2763.56 2416.26 L2762.75 2421.72 L2760.20 2485.45 L2759.97 2491.84 L2758.81 2522.37 L2776.45 2578.56 L2792.47 2629.29 L2810.12 2685.36 L2804.31 2690.36 L2797.69 2697.67 L2786.55 2707.77 L2782.60 2710.21 L2763.22 2722.51 L2747.20 2738.30 L2737.56 2744.57 L2730.13 2749.56 L2729.55 2750.03 L2729.32 2750.49 L2729.09 2750.96 L2729.09 2751.54 L2729.44 2753.16 L2730.13 2756.07 L2734.19 2771.04 L2737.45 2784.04 L2740.46 2794.96 L2741.16 2797.86 L2741.97 2801.46 L2742.09 2802.15 L2742.09 2802.50 L2741.97 2802.97 L2741.86 2803.20 L2741.62 2803.32 L2741.39 2803.43 L2740.70 2803.32 L2739.65 2803.32 L2738.95 2803.20 L2734.89 2802.39 L2731.41 2801.46 L2729.55 2801.23 L2726.88 2800.99 L2724.68 2800.99 L2722.12 2801.34 L2717.36 2802.27 L2715.50 2802.62 L2714.00 2802.97 L2699.60 2807.03 L2684.74 2811.44 L2677.43 2813.53 L2661.99 2818.06 L2658.62 2819.10 L2653.17 2820.50 L2611.61 2832.11 L2601.28 2835.01 L2596.75 2836.29 L2588.16 2838.49 L2586.18 2838.96 L2586.18 2838.96 Z" stroke-linejoin="round"/>
	</defs>
	<use xlink:href="#path_MDyfCDyO" style="fill:#CEE3E4;stroke:#CEF5F5;stroke-width:5.76"/>
	<defs>
		<path id="path_xcHJJdBU" d="M2591.18 3536.33 L2591.18 3536.33 L2591.18 3536.45 L2590.25 3536.56 L2589.43 3535.98 L2589.09 3535.05 L2589.32 3533.89 L2589.90 3532.62 L2590.01 3532.04 L2589.90 3531.34 L2589.09 3530.64 L2586.30 3528.67 L2573.65 3519.15 L2570.98 3517.18 L2569.82 3516.60 L2568.89 3516.71 L2567.38 3518.22 L2566.68 3518.45 L2565.87 3518.34 L2564.94 3517.52 L2563.43 3516.25 L2563.20 3515.55 L2563.20 3514.85 L2563.66 3514.04 L2564.13 3513.11 L2563.78 3512.42 L2563.08 3511.60 L2556.47 3505.92 L2554.38 3503.71 L2551.94 3507.31 L2546.25 3516.48 L2545.32 3517.06 L2544.62 3517.41 L2543.93 3517.64 L2543.70 3517.64 L2542.65 3517.64 L2541.72 3517.06 L2531.97 3510.33 L2522.92 3504.64 L2518.16 3501.74 L2516.65 3500.23 L2517.00 3501.04 L2509.22 3497.79 L2498.77 3494.42 L2482.40 3490.94 L2474.74 3489.31 L2470.45 3488.39 L2463.25 3486.30 L2460.11 3485.13 L2458.14 3484.32 L2456.05 3483.39 L2453.15 3481.77 L2450.59 3479.68 L2447.46 3477.01 L2444.56 3473.99 L2441.66 3470.39 L2438.06 3465.28 L2407.76 3420.01 L2386.28 3387.73 L2367.94 3360.10 L2362.60 3352.44 L2360.98 3349.89 L2359.35 3346.98 L2357.61 3343.15 L2356.45 3340.25 L2352.39 3326.78 L2340.89 3290.33 L2338.69 3284.06 L2337.64 3281.27 L2336.71 3279.18 L2334.74 3275.82 L2334.16 3274.54 L2333.93 3273.15 L2329.28 3273.38 L2323.48 3273.03 L2311.75 3272.45 L2310.59 3271.52 L2309.08 3272.22 L2293.76 3278.84 L2269.50 3289.52 L2265.78 3291.14 L2231.77 3306.35 L2219.81 3311.57 L2199.96 3320.28 L2199.38 3320.51 L2198.69 3320.75 L2197.18 3321.33 L2178.60 3329.34 L2145.52 3343.38 L2115.22 3356.39 L2070.87 3376.35 L2055.90 3382.86 L1997.28 3409.09 L1963.26 3423.49 L1960.01 3421.51 L1946.20 3409.09 L1944.92 3405.84 L1936.68 3399.11 L1922.40 3387.85 L1908.24 3376.47 L1905.33 3374.26 L1902.43 3371.94 L1897.09 3368.00 L1888.97 3362.07 L1886.99 3360.80 L1884.55 3359.40 L1876.89 3355.57 L1872.71 3353.25 L1864.94 3348.96 L1857.97 3345.01 L1854.60 3343.04 L1838.58 3333.86 L1826.63 3326.90 L1819.20 3322.60 L1805.96 3314.59 L1803.64 3313.08 L1801.44 3311.46 L1799.46 3309.83 L1797.26 3307.98 L1793.77 3304.38 L1791.10 3302.05 L1787.97 3299.38 L1784.60 3296.83 L1783.68 3296.02 L1781.24 3293.81 L1779.96 3292.42 L1778.68 3291.03 L1776.48 3288.12 L1774.04 3284.64 L1770.79 3279.30 L1769.28 3277.33 L1768.93 3276.63 L1768.82 3276.28 L1768.58 3275.82 L1768.58 3275.24 L1768.70 3274.77 L1768.82 3274.19 L1769.16 3273.61 L1770.33 3271.64 L1770.56 3271.41 L1773.46 3266.41 L1774.27 3264.90 L1775.67 3262.70 L1768.00 3256.20 L1763.94 3252.60 L1761.15 3250.39 L1767.77 3241.80 L1770.33 3238.55 L1771.60 3236.93 L1773.00 3235.88 L1774.74 3235.30 L1777.52 3234.84 L1779.38 3234.72 L1790.29 3244.94 L1792.85 3247.03 L1794.12 3247.49 L1796.44 3247.26 L1810.96 3243.20 L1826.74 3238.09 L1829.41 3237.16 L1832.90 3234.84 L1835.45 3231.01 L1836.03 3229.03 L1837.19 3219.98 L1838.12 3210.57 L1840.56 3177.37 L1841.72 3159.61 L1843.46 3138.01 L1845.90 3115.49 L1846.71 3107.48 L1846.94 3106.32 L1847.17 3104.23 L1847.06 3102.03 L1846.71 3099.94 L1846.13 3098.08 L1845.32 3096.57 L1844.50 3095.29 L1843.11 3093.90 L1829.30 3082.41 L1826.51 3080.08 L1825.12 3078.92 L1826.74 3076.60 L1827.44 3075.56 L1830.57 3071.61 L1833.48 3068.24 L1835.80 3065.69 L1837.89 3063.60 L1841.72 3060.12 L1843.92 3058.26 L1846.25 3056.40 L1848.92 3054.31 L1851.35 3052.80 L1854.95 3050.48 L1858.90 3048.16 L1860.64 3050.25 L1862.85 3053.50 L1863.43 3054.54 L1864.24 3056.17 L1865.52 3058.03 L1867.14 3060.00 L1868.19 3061.04 L1870.04 3062.55 L1871.90 3063.60 L1878.63 3067.43 L1882.12 3069.87 L1883.97 3071.03 L1885.02 3071.49 L1886.06 3071.49 L1887.81 3071.38 L1906.73 3068.36 L1907.89 3068.01 L1908.70 3067.89 L1909.28 3067.89 L1910.21 3068.24 L1911.02 3068.71 L1930.53 3080.90 L1930.64 3081.13 L1931.11 3081.71 L1931.11 3082.87 L1931.22 3084.26 L1931.45 3085.54 L1931.69 3086.82 L1932.38 3088.44 L1933.08 3089.14 L1933.78 3089.60 L1934.59 3089.95 L1935.40 3090.07 L1936.56 3089.72 L1937.37 3089.25 L1937.72 3088.91 L1938.19 3088.44 L1938.65 3087.51 L1938.77 3086.24 L1938.19 3084.96 L1937.14 3083.68 L1942.02 3082.17 L1944.57 3072.89 L1947.47 3070.33 L1957.57 3061.86 L1983.93 3053.73 L2000.41 3050.25 L2007.37 3044.67 L2007.37 3043.40 L2009.58 3042.47 L2011.55 3042.35 L2013.06 3043.40 L2010.04 3029.00 L2008.88 3024.24 L2004.47 3007.99 L2003.31 3004.04 L2002.96 3002.53 L2000.29 2992.78 L1997.74 2982.22 L1991.01 2961.32 L1988.92 2953.31 L1985.43 2939.96 L1977.08 2942.40 L1972.32 2943.79 L1945.73 2950.64 L1919.38 2958.77 L1913.81 2959.81 L1911.25 2960.51 L1909.51 2960.97 L1895.47 2964.69 L1892.91 2965.61 L1882.93 2968.17 L1871.32 2971.30 L1868.77 2972.00 L1852.05 2976.06 L1851.01 2976.06 L1848.92 2975.72 L1845.55 2975.13 L1843.34 2974.55 L1842.42 2974.32 L1841.83 2974.44 L1841.49 2974.55 L1836.84 2972.93 L1834.29 2971.65 L1828.72 2968.05 L1824.07 2964.69 L1820.94 2961.20 L1813.97 2955.17 L1807.47 2947.74 L1801.78 2939.38 L1799.70 2935.55 L1797.72 2931.95 L1796.33 2929.16 L1795.17 2926.49 L1794.36 2924.52 L1797.84 2923.12 L1802.13 2921.62 L1806.78 2920.11 L1813.51 2918.02 L1821.87 2915.69 L1826.51 2914.42 L1829.88 2913.49 L1863.78 2904.55 L1870.39 2902.92 L1875.85 2901.65 L1879.33 2900.83 L1885.83 2899.44 L1888.97 2898.63 L1891.98 2897.93 L1889.20 2884.70 L1887.11 2874.71 L1883.51 2856.14 L1882.12 2848.94 L1899.18 2845.57 L1896.16 2830.37 L1893.03 2813.30 L1889.08 2792.75 L1887.57 2785.32 L1886.18 2778.36 L1885.14 2773.48 L1884.90 2772.32 L1891.40 2770.46 L1898.72 2768.26 L1907.54 2765.82 L1913.46 2764.08 L1916.71 2763.26 L1922.05 2761.75 L1930.99 2759.20 L1932.96 2758.74 L1934.94 2758.16 L1937.84 2757.46 L1941.44 2756.41 L1943.41 2755.83 L1947.71 2754.67 L1949.10 2754.21 L1952.12 2753.40 L1953.86 2752.82 L1960.01 2751.07 L1962.91 2750.14 L1968.37 2748.52 L1972.20 2747.36 L1975.33 2746.43 L2018.98 2732.85 L2024.09 2731.22 L2026.99 2730.41 L2030.13 2729.36 L2033.49 2728.32 L2039.07 2726.58 L2044.06 2724.95 L2050.56 2722.98 L2057.52 2720.77 L2061.12 2719.73 L2062.52 2719.26 L2067.28 2717.75 L2068.55 2717.17 L2069.71 2716.71 L2071.22 2716.01 L2072.50 2715.32 L2085.04 2708.82 L2097.46 2701.97 L2108.25 2696.05 L2122.18 2688.50 L2124.62 2687.11 L2126.13 2686.18 L2126.83 2686.76 L2132.75 2690.24 L2145.05 2697.09 L2154.81 2701.73 L2173.50 2708.93 L2184.99 2712.76 L2184.52 2714.50 L2183.94 2717.52 L2183.48 2718.80 L2183.01 2720.08 L2182.32 2721.82 L2181.85 2722.98 L2181.16 2724.26 L2180.11 2725.88 L2179.18 2727.51 L2178.37 2728.67 L2177.44 2729.71 L2176.40 2730.76 L2174.89 2732.03 L2172.91 2733.43 L2171.64 2734.24 L2170.13 2735.05 L2168.27 2735.87 L2166.76 2736.45 L2162.47 2738.30 L2158.75 2739.81 L2151.79 2742.71 L2145.40 2745.15 L2142.50 2746.31 L2138.55 2747.94 L2134.84 2749.45 L2130.66 2751.54 L2124.51 2754.79 L2123.93 2755.02 L2120.79 2756.88 L2118.01 2758.62 L2113.36 2761.99 L2144.24 2753.74 L2189.40 2765.00 L2206.00 2778.47 L2230.03 2786.71 L2245.12 2789.27 L2257.19 2790.20 L2270.66 2790.66 L2280.64 2790.31 L2287.26 2790.66 L2288.19 2790.89 L2292.37 2791.94 L2296.32 2794.49 L2299.10 2798.56 L2302.58 2803.66 L2304.33 2806.33 L2305.83 2811.21 L2307.69 2818.87 L2309.32 2822.70 L2316.75 2835.24 L2321.74 2839.07 L2322.90 2839.89 L2325.22 2841.39 L2327.66 2842.90 L2330.10 2844.41 L2330.91 2844.99 L2333.35 2846.97 L2336.37 2849.29 L2336.95 2849.64 L2337.76 2850.10 L2338.69 2850.33 L2340.20 2850.80 L2341.82 2851.03 L2343.21 2851.26 L2344.38 2851.26 L2346.23 2851.15 L2347.51 2850.91 L2348.44 2850.80 L2349.37 2850.80 L2349.95 2850.91 L2350.53 2851.03 L2351.22 2851.26 L2351.69 2851.61 L2352.15 2851.96 L2352.62 2852.42 L2352.97 2853.12 L2353.66 2854.51 L2354.36 2856.14 L2355.06 2858.34 L2355.75 2860.55 L2356.10 2861.59 L2357.03 2865.19 L2357.26 2866.24 L2357.38 2867.28 L2357.49 2870.07 L2357.49 2871.46 L2357.38 2872.97 L2356.91 2875.41 L2356.33 2878.20 L2355.52 2882.03 L2355.40 2883.30 L2355.40 2884.70 L2355.64 2886.09 L2356.56 2890.97 L2383.96 2893.75 L2389.18 2895.73 L2403.00 2903.62 L2406.83 2905.01 L2409.50 2905.48 L2414.61 2905.13 L2417.39 2905.13 L2419.72 2905.71 L2422.97 2906.64 L2428.19 2907.10 L2431.09 2906.87 L2433.53 2906.29 L2436.90 2904.09 L2440.49 2900.95 L2442.47 2899.33 L2445.60 2898.28 L2447.23 2897.70 L2450.48 2897.82 L2456.98 2899.09 L2456.98 2898.16 L2457.33 2896.89 L2458.14 2895.61 L2462.32 2897.00 L2465.22 2898.05 L2469.28 2899.67 L2473.58 2901.07 L2477.18 2902.58 L2477.99 2903.27 L2481.36 2905.71 L2484.96 2910.35 L2488.55 2916.28 L2489.14 2918.48 L2489.48 2919.76 L2489.25 2921.38 L2488.90 2922.43 L2488.67 2923.01 L2488.67 2923.94 L2489.02 2924.52 L2489.48 2925.10 L2490.30 2925.68 L2490.88 2926.03 L2491.69 2926.03 L2492.27 2925.56 L2492.73 2924.75 L2493.20 2922.89 L2494.01 2921.38 L2494.94 2920.22 L2495.64 2919.18 L2496.22 2918.48 L2496.68 2918.36 L2497.15 2918.48 L2498.07 2919.29 L2498.54 2919.99 L2498.65 2920.57 L2498.54 2921.15 L2498.31 2921.73 L2497.15 2923.47 L2496.68 2924.29 L2496.80 2927.19 L2497.26 2928.46 L2497.61 2931.48 L2497.61 2932.99 L2497.49 2933.46 L2497.26 2933.57 L2497.15 2933.69 L2496.91 2933.69 L2496.68 2933.69 L2496.33 2933.34 L2495.98 2933.22 L2495.64 2933.22 L2495.40 2933.34 L2495.06 2934.04 L2495.06 2934.97 L2495.17 2935.89 L2495.87 2936.82 L2496.33 2937.98 L2496.56 2939.49 L2496.56 2943.79 L2496.22 2946.34 L2496.22 2947.74 L2496.33 2949.48 L2497.03 2952.26 L2498.19 2955.75 L2499.47 2958.77 L2500.28 2959.81 L2501.56 2960.51 L2503.30 2961.09 L2505.16 2961.32 L2507.59 2961.55 L2511.19 2961.90 L2513.17 2961.67 L2515.25 2961.32 L2518.51 2960.74 L2525.70 2959.46 L2531.16 2958.65 L2532.78 2958.65 L2535.45 2958.53 L2538.12 2958.65 L2539.40 2958.88 L2540.79 2959.23 L2542.19 2959.93 L2544.74 2961.67 L2546.95 2963.06 L2549.73 2964.45 L2548.57 2967.59 L2577.01 3026.45 L2591.99 3031.79 L2620.89 3025.64 L2635.64 3021.46 L2641.09 3030.28 L2681.14 3068.94 L2772.85 3040.50 L2775.75 3049.20 L2778.31 3060.70 L2778.54 3061.97 L2774.83 3059.30 L2771.46 3056.75 L2765.65 3054.77 L2760.08 3054.31 L2755.79 3055.24 L2751.84 3058.26 L2746.50 3063.83 L2742.55 3067.31 L2734.19 3069.98 L2725.02 3071.26 L2713.88 3073.81 L2710.40 3074.63 L2702.74 3075.67 L2690.08 3075.56 L2683.58 3073.47 L2679.40 3071.61 L2674.99 3068.36 L2661.41 3076.48 L2662.34 3090.07 L2512.00 3153.69 L2512.58 3155.08 L2512.70 3156.94 L2512.47 3160.30 L2512.00 3164.25 L2511.54 3168.20 L2509.10 3185.73 L2508.75 3188.75 L2507.24 3202.56 L2505.50 3219.86 L2503.41 3236.69 L2501.21 3251.55 L2500.74 3256.43 L2498.89 3272.91 L2496.68 3291.95 L2507.83 3304.26 L2517.92 3283.36 L2565.75 3296.25 L2576.55 3306.12 L2617.18 3295.67 L2623.10 3298.80 L2622.05 3303.68 L2621.71 3306.70 L2621.59 3309.14 L2621.47 3311.11 L2621.71 3314.94 L2622.05 3319.00 L2622.64 3326.32 L2622.98 3332.59 L2623.22 3340.25 L2623.68 3348.96 L2623.91 3351.74 L2624.26 3353.60 L2625.07 3355.92 L2625.89 3357.90 L2627.16 3360.33 L2628.32 3362.31 L2629.25 3363.58 L2630.65 3365.09 L2640.40 3376.47 L2641.91 3378.33 L2643.07 3380.19 L2645.16 3383.67 L2646.32 3385.87 L2647.48 3388.20 L2648.06 3389.94 L2648.17 3391.45 L2648.17 3392.84 L2648.06 3394.35 L2647.59 3395.39 L2646.67 3397.02 L2643.30 3402.82 L2642.25 3404.57 L2641.09 3406.42 L2640.74 3407.47 L2640.74 3408.16 L2640.86 3409.67 L2641.09 3411.30 L2644.23 3429.18 L2644.58 3431.73 L2644.81 3433.82 L2645.04 3436.38 L2644.92 3438.46 L2644.69 3439.51 L2644.23 3440.21 L2643.30 3441.13 L2642.37 3441.83 L2641.33 3442.41 L2640.51 3442.99 L2639.35 3443.69 L2638.66 3444.85 L2638.42 3445.55 L2638.31 3446.71 L2638.42 3448.56 L2638.42 3449.49 L2638.19 3450.31 L2637.61 3451.58 L2636.22 3454.14 L2630.53 3463.89 L2626.93 3469.81 L2624.72 3474.22 L2619.38 3483.51 L2612.30 3495.35 L2603.95 3509.98 L2600.46 3515.55 L2600.11 3516.60 L2600.11 3517.87 L2600.11 3519.27 L2599.88 3520.43 L2599.07 3522.17 L2596.75 3526.70 L2594.19 3530.88 L2591.99 3535.17 L2591.18 3536.33 L2591.18 3536.33 Z" stroke-linejoin="round"/>
	</defs>
	<use xlink:href="#path_xcHJJdBU" style="fill:#9DC8CA;stroke:#9DD7F0;stroke-width:5.76"/>
	<defs>
		<path id="path_xGhHPBby" d="M1373.89 3678.66 L1373.89 3678.66 L1318.63 3638.26 L1309.81 3632.69 L1294.02 3616.55 L1281.37 3602.97 L1279.63 3601.11 L1266.04 3586.48 L1265.23 3585.67 L1151.81 3463.42 L1146.59 3458.08 L1141.71 3453.09 L1136.26 3447.75 L1094.35 3405.84 L1089.71 3401.20 L1085.99 3397.48 L1086.34 3390.17 L1085.99 3369.51 L1085.30 3363.00 L1084.25 3357.90 L1082.16 3353.95 L1078.80 3350.58 L1073.11 3346.52 L1056.16 3334.91 L1036.66 3320.17 L1028.99 3313.32 L1025.16 3309.95 L1020.98 3307.74 L1017.73 3305.89 L1008.68 3302.75 L1005.08 3302.52 L999.74 3302.87 L995.45 3303.45 L992.31 3303.22 L988.25 3301.94 L986.39 3300.66 L981.28 3296.60 L980.24 3295.20 L979.08 3293.00 L978.15 3286.96 L977.22 3284.41 L975.83 3281.85 L972.69 3280.00 L969.79 3279.18 L967.82 3277.67 L967.24 3275.47 L967.70 3270.94 L967.58 3266.18 L967.47 3262.00 L968.16 3260.14 L972.58 3256.08 L972.92 3253.99 L972.00 3252.71 L970.14 3251.90 L963.17 3249.23 L960.04 3247.37 L957.72 3246.56 L952.14 3246.21 L948.78 3246.33 L945.41 3245.87 L941.23 3244.36 L935.66 3240.99 L931.83 3239.48 L928.00 3237.27 L924.52 3235.88 L919.29 3235.53 L915.81 3235.42 L912.44 3234.84 L911.28 3234.37 L908.96 3233.44 L897.35 3227.41 L892.36 3234.14 L892.13 3234.72 L891.66 3236.11 L890.97 3238.20 L891.32 3243.66 L891.20 3245.52 L890.73 3247.84 L887.83 3254.11 L887.02 3255.97 L885.05 3258.98 L883.89 3259.80 L882.49 3260.38 L879.13 3260.38 L876.34 3259.33 L873.67 3257.71 L872.04 3255.97 L869.61 3251.32 L865.66 3246.45 L861.71 3243.20 L851.61 3236.81 L846.16 3232.98 L839.08 3243.89 L827.58 3236.11 L816.09 3241.80 L807.04 3247.95 L799.72 3251.09 L761.99 3182.94 L757.70 3175.16 L739.13 3141.73 L696.41 3064.53 L728.45 2878.78 L730.30 2868.10 L741.10 2805.06 L742.96 2794.72 L743.19 2793.56 L743.30 2792.17 L745.39 2782.77 L770.58 2669.81 L840.00 2553.13 L859.28 2520.63 L879.82 2515.87 L882.26 2515.40 L882.49 2515.40 L882.61 2515.17 L882.61 2514.94 L882.38 2514.59 L866.36 2484.29 L884.58 2461.30 L884.93 2457.94 L912.33 2418.47 L939.03 2379.69 L1060.22 2330.93 L1088.90 2324.78 L1265.12 2300.75 L1290.07 2402.33 L1296.69 2430.77 L1311.09 2467.22 L1318.98 2486.96 L1336.51 2531.31 L1351.02 2553.02 L1356.48 2562.31 L1406.51 2594.00 L1427.99 2616.75 L1441.68 2599.22 L1449.23 2598.06 L1452.94 2595.51 L1455.03 2593.88 L1456.31 2592.49 L1457.59 2590.63 L1458.52 2589.01 L1461.42 2583.78 L1461.88 2582.74 L1462.00 2581.81 L1462.11 2580.18 L1462.58 2579.02 L1463.16 2578.33 L1463.86 2577.86 L1464.09 2577.63 L1464.20 2577.28 L1464.32 2576.82 L1464.44 2576.12 L1464.67 2575.31 L1465.13 2574.73 L1466.06 2574.03 L1466.41 2573.57 L1466.76 2572.87 L1466.87 2572.41 L1466.99 2571.36 L1467.11 2570.90 L1467.22 2570.43 L1467.45 2569.97 L1468.27 2569.15 L1469.78 2571.01 L1472.91 2574.61 L1478.95 2581.11 L1481.62 2583.78 L1483.94 2585.99 L1487.31 2588.77 L1492.30 2592.14 L1495.43 2593.77 L1500.07 2595.97 L1508.78 2599.80 L1511.68 2600.96 L1514.70 2601.89 L1519.69 2602.94 L1523.87 2603.75 L1523.99 2604.80 L1525.03 2608.86 L1526.31 2612.81 L1527.70 2616.75 L1529.33 2620.47 L1531.30 2624.18 L1533.51 2627.67 L1536.06 2631.03 L1538.73 2634.17 L1540.36 2635.68 L1541.75 2636.72 L1543.96 2638.46 L1546.51 2639.97 L1548.60 2641.13 L1551.85 2642.64 L1554.87 2643.92 L1557.07 2644.62 L1559.28 2645.20 L1561.72 2645.66 L1564.04 2646.01 L1567.99 2646.47 L1571.35 2646.59 L1573.67 2646.47 L1574.95 2646.24 L1577.50 2645.89 L1580.87 2645.20 L1588.88 2643.69 L1584.47 2624.30 L1632.88 2612.23 L1635.20 2611.64 L1637.99 2610.95 L1636.01 2620.12 L1632.65 2635.91 L1655.17 2631.85 L1681.17 2626.85 L1689.18 2625.11 L1696.61 2623.37 L1697.07 2624.76 L1699.16 2630.92 L1700.32 2633.93 L1701.83 2636.95 L1702.88 2639.04 L1705.08 2642.87 L1707.64 2646.71 L1709.73 2649.61 L1712.17 2652.51 L1714.72 2655.06 L1718.09 2658.43 L1721.80 2662.15 L1725.40 2665.74 L1728.53 2668.76 L1736.43 2676.43 L1737.36 2677.24 L1742.23 2682.00 L1745.37 2684.90 L1750.01 2689.66 L1753.26 2692.91 L1754.77 2694.65 L1756.16 2696.28 L1727.02 2726.81 L1710.77 2743.99 L1701.60 2753.74 L1688.72 2767.09 L1679.78 2776.61 L1641.24 2818.29 L1640.19 2819.57 L1639.03 2820.85 L1642.86 2820.15 L1645.18 2820.03 L1645.42 2821.77 L1649.94 2822.47 L1651.45 2822.59 L1652.85 2822.70 L1654.82 2823.05 L1656.33 2823.40 L1657.95 2823.98 L1659.58 2824.68 L1661.09 2825.37 L1662.60 2826.07 L1664.11 2826.77 L1665.27 2827.46 L1667.47 2828.86 L1669.45 2830.25 L1671.77 2832.22 L1673.74 2833.96 L1677.22 2837.33 L1680.82 2840.81 L1683.26 2843.25 L1685.23 2844.88 L1686.97 2846.27 L1689.18 2847.66 L1692.43 2849.64 L1694.52 2850.80 L1696.61 2851.73 L1699.05 2852.66 L1701.72 2853.24 L1703.11 2853.58 L1704.74 2853.82 L1705.55 2853.93 L1706.59 2853.93 L1708.80 2853.93 L1712.17 2853.82 L1714.95 2843.37 L1716.58 2837.45 L1718.55 2830.60 L1720.87 2823.40 L1723.66 2815.16 L1724.01 2814.46 L1724.82 2812.37 L1726.68 2807.38 L1728.19 2803.20 L1730.28 2798.44 L1733.29 2791.24 L1736.43 2784.62 L1739.91 2777.19 L1742.58 2771.97 L1744.79 2767.56 L1747.46 2762.80 L1750.13 2758.04 L1752.56 2753.86 L1756.63 2747.01 L1760.81 2740.39 L1765.10 2734.01 L1769.51 2727.39 L1773.81 2721.47 L1775.67 2718.92 L1778.10 2721.82 L1781.47 2725.42 L1784.84 2729.25 L1787.04 2726.23 L1791.69 2719.38 L1792.85 2717.87 L1800.28 2709.05 L1807.47 2701.04 L1815.13 2692.68 L1822.56 2685.02 L1837.66 2669.69 L1857.04 2648.56 L1859.60 2645.66 L1862.38 2644.04 L1882.12 2638.69 L1885.37 2652.05 L1895.93 2692.10 L1897.90 2699.64 L1904.17 2725.77 L1904.87 2730.29 L1904.87 2734.47 L1904.29 2738.30 L1903.59 2741.44 L1902.90 2743.06 L1902.08 2745.27 L1900.23 2747.94 L1909.05 2754.21 L1914.16 2761.87 L1914.16 2762.45 L1913.46 2764.08 L1907.54 2765.82 L1898.72 2768.26 L1891.40 2770.46 L1884.90 2772.32 L1885.14 2773.48 L1886.18 2778.36 L1887.57 2785.32 L1889.08 2792.75 L1893.03 2813.30 L1896.16 2830.37 L1899.18 2845.57 L1882.12 2848.94 L1883.51 2856.14 L1887.11 2874.71 L1889.20 2884.70 L1891.98 2897.93 L1888.97 2898.63 L1885.83 2899.44 L1879.33 2900.83 L1875.85 2901.65 L1870.39 2902.92 L1863.78 2904.55 L1829.88 2913.49 L1826.51 2914.42 L1821.87 2915.69 L1813.51 2918.02 L1806.78 2920.11 L1802.13 2921.62 L1797.84 2923.12 L1794.36 2924.52 L1795.17 2926.49 L1796.33 2929.16 L1797.72 2931.95 L1799.70 2935.55 L1801.78 2939.38 L1807.47 2947.74 L1813.97 2955.17 L1820.94 2961.20 L1824.07 2964.69 L1828.72 2968.05 L1834.29 2971.65 L1836.84 2972.93 L1841.49 2974.55 L1841.83 2974.44 L1842.42 2974.32 L1843.34 2974.55 L1845.55 2975.13 L1848.92 2975.72 L1851.01 2976.06 L1852.05 2976.06 L1868.77 2972.00 L1871.32 2971.30 L1882.93 2968.17 L1892.91 2965.61 L1895.47 2964.69 L1909.51 2960.97 L1911.25 2960.51 L1913.81 2959.81 L1919.38 2958.77 L1945.73 2950.64 L1972.32 2943.79 L1977.08 2942.40 L1985.43 2939.96 L1988.92 2953.31 L1991.01 2961.32 L1997.74 2982.22 L2000.29 2992.78 L2002.96 3002.53 L2003.31 3004.04 L2004.47 3007.99 L2008.88 3024.24 L2010.04 3029.00 L2013.06 3043.40 L2011.55 3042.35 L2009.58 3042.47 L2007.37 3043.40 L2007.37 3044.67 L2000.41 3050.25 L1983.93 3053.73 L1957.57 3061.86 L1947.47 3070.33 L1944.57 3072.89 L1942.02 3082.17 L1937.14 3083.68 L1938.19 3084.96 L1938.77 3086.24 L1938.65 3087.51 L1938.19 3088.44 L1937.72 3088.91 L1937.37 3089.25 L1936.56 3089.72 L1935.40 3090.07 L1934.59 3089.95 L1933.78 3089.60 L1933.08 3089.14 L1932.38 3088.44 L1931.69 3086.82 L1931.45 3085.54 L1931.22 3084.26 L1931.11 3082.87 L1931.11 3081.71 L1930.64 3081.13 L1930.53 3080.90 L1911.02 3068.71 L1910.21 3068.24 L1909.28 3067.89 L1908.70 3067.89 L1907.89 3068.01 L1906.73 3068.36 L1887.81 3071.38 L1886.06 3071.49 L1885.02 3071.49 L1883.97 3071.03 L1882.12 3069.87 L1878.63 3067.43 L1871.90 3063.60 L1870.04 3062.55 L1868.19 3061.04 L1867.14 3060.00 L1865.52 3058.03 L1864.24 3056.17 L1863.43 3054.54 L1862.85 3053.50 L1860.64 3050.25 L1858.90 3048.16 L1854.95 3050.48 L1851.35 3052.80 L1848.92 3054.31 L1846.25 3056.40 L1843.92 3058.26 L1841.72 3060.12 L1837.89 3063.60 L1835.80 3065.69 L1833.48 3068.24 L1830.57 3071.61 L1827.44 3075.56 L1826.74 3076.60 L1825.12 3078.92 L1826.51 3080.08 L1829.30 3082.41 L1843.11 3093.90 L1844.50 3095.29 L1845.32 3096.57 L1846.13 3098.08 L1846.71 3099.94 L1847.06 3102.03 L1847.17 3104.23 L1846.94 3106.32 L1846.71 3107.48 L1845.90 3115.49 L1843.46 3138.01 L1841.72 3159.61 L1840.56 3177.37 L1838.12 3210.57 L1837.19 3219.98 L1836.03 3229.03 L1835.45 3231.01 L1832.90 3234.84 L1829.41 3237.16 L1826.74 3238.09 L1810.96 3243.20 L1796.44 3247.26 L1794.12 3247.49 L1792.85 3247.03 L1790.29 3244.94 L1779.38 3234.72 L1777.52 3234.84 L1774.74 3235.30 L1773.00 3235.88 L1771.60 3236.93 L1770.33 3238.55 L1767.77 3241.80 L1761.15 3250.39 L1763.94 3252.60 L1768.00 3256.20 L1775.67 3262.70 L1774.27 3264.90 L1773.46 3266.41 L1770.56 3271.41 L1770.33 3271.64 L1769.16 3273.61 L1768.82 3274.19 L1768.70 3274.77 L1768.58 3275.24 L1768.58 3275.82 L1768.82 3276.28 L1768.93 3276.63 L1769.28 3277.33 L1770.79 3279.30 L1774.04 3284.64 L1776.48 3288.12 L1778.68 3291.03 L1779.96 3292.42 L1781.24 3293.81 L1783.68 3296.02 L1784.60 3296.83 L1787.97 3299.38 L1791.10 3302.05 L1793.77 3304.38 L1797.26 3307.98 L1799.46 3309.83 L1801.44 3311.46 L1803.64 3313.08 L1805.96 3314.59 L1819.20 3322.60 L1826.63 3326.90 L1838.58 3333.86 L1854.60 3343.04 L1857.97 3345.01 L1864.94 3348.96 L1872.71 3353.25 L1876.89 3355.57 L1884.55 3359.40 L1886.99 3360.80 L1888.97 3362.07 L1897.09 3368.00 L1902.43 3371.94 L1905.33 3374.26 L1908.24 3376.47 L1922.40 3387.85 L1936.68 3399.11 L1944.92 3405.84 L1946.20 3409.09 L1960.01 3421.51 L1963.26 3423.49 L1960.24 3424.65 L1938.19 3433.82 L1880.14 3458.78 L1822.56 3484.21 L1774.50 3505.22 L1682.91 3544.34 L1589.58 3585.44 L1577.39 3590.90 L1576.69 3591.13 L1575.76 3591.59 L1555.45 3600.42 L1488.47 3628.63 L1418.47 3659.74 L1385.38 3673.79 L1373.89 3678.66 L1373.89 3678.66 Z" stroke-linejoin="round"/>
	</defs>
	<use xlink:href="#path_xGhHPBby" style="fill:#6BACAF;stroke:#6BB4D2;stroke-width:5.76"/>
	<defs>
		<path id="path_GrpNCQhV" d="M2847.03 3075.32 L2847.03 3075.32 L2847.03 3075.32 L2834.15 3074.28 L2821.14 3072.89 L2819.52 3071.38 L2818.47 3070.80 L2808.14 3068.36 L2807.21 3067.89 L2802.45 3066.04 L2792.35 3064.41 L2788.99 3064.76 L2785.62 3065.11 L2781.09 3063.95 L2778.54 3061.97 L2778.31 3060.70 L2775.75 3049.20 L2772.85 3040.50 L2681.14 3068.94 L2641.09 3030.28 L2635.64 3021.46 L2620.89 3025.64 L2591.99 3031.79 L2577.01 3026.45 L2548.57 2967.59 L2549.73 2964.45 L2546.95 2963.06 L2544.74 2961.67 L2542.19 2959.93 L2540.79 2959.23 L2539.40 2958.88 L2538.12 2958.65 L2535.45 2958.53 L2532.78 2958.65 L2531.16 2958.65 L2525.70 2959.46 L2518.51 2960.74 L2515.25 2961.32 L2513.17 2961.67 L2511.19 2961.90 L2507.59 2961.55 L2505.16 2961.32 L2503.30 2961.09 L2501.56 2960.51 L2500.28 2959.81 L2499.47 2958.77 L2498.19 2955.75 L2497.03 2952.26 L2496.33 2949.48 L2496.22 2947.74 L2496.22 2946.34 L2496.56 2943.79 L2496.56 2939.49 L2496.33 2937.98 L2495.87 2936.82 L2495.17 2935.89 L2495.06 2934.97 L2495.06 2934.04 L2495.40 2933.34 L2495.64 2933.22 L2495.98 2933.22 L2496.33 2933.34 L2496.68 2933.69 L2496.91 2933.69 L2497.15 2933.69 L2497.26 2933.57 L2497.49 2933.46 L2497.61 2932.99 L2497.61 2931.48 L2497.26 2928.46 L2496.80 2927.19 L2496.68 2924.29 L2497.15 2923.47 L2498.31 2921.73 L2498.54 2921.15 L2498.65 2920.57 L2498.54 2919.99 L2498.07 2919.29 L2497.15 2918.48 L2496.68 2918.36 L2496.22 2918.48 L2495.64 2919.18 L2494.94 2920.22 L2494.01 2921.38 L2493.20 2922.89 L2492.73 2924.75 L2492.27 2925.56 L2491.69 2926.03 L2490.88 2926.03 L2490.30 2925.68 L2489.48 2925.10 L2489.02 2924.52 L2488.67 2923.94 L2488.67 2923.01 L2488.90 2922.43 L2489.25 2921.38 L2489.48 2919.76 L2489.14 2918.48 L2488.55 2916.28 L2484.96 2910.35 L2481.36 2905.71 L2477.99 2903.27 L2477.18 2902.58 L2473.58 2901.07 L2469.28 2899.67 L2465.22 2898.05 L2462.32 2897.00 L2458.14 2895.61 L2457.33 2896.89 L2456.98 2898.16 L2456.98 2899.09 L2450.48 2897.82 L2447.23 2897.70 L2445.60 2898.28 L2442.47 2899.33 L2440.49 2900.95 L2436.90 2904.09 L2433.53 2906.29 L2431.09 2906.87 L2428.19 2907.10 L2422.97 2906.64 L2419.72 2905.71 L2417.39 2905.13 L2414.61 2905.13 L2409.50 2905.48 L2406.83 2905.01 L2403.00 2903.62 L2389.18 2895.73 L2383.96 2893.75 L2356.56 2890.97 L2355.64 2886.09 L2355.40 2884.70 L2355.40 2883.30 L2355.52 2882.03 L2356.33 2878.20 L2356.91 2875.41 L2357.38 2872.97 L2357.49 2871.46 L2357.49 2870.07 L2357.38 2867.28 L2357.26 2866.24 L2357.03 2865.19 L2356.10 2861.59 L2355.75 2860.55 L2355.06 2858.34 L2354.36 2856.14 L2353.66 2854.51 L2352.97 2853.12 L2352.62 2852.42 L2352.15 2851.96 L2351.69 2851.61 L2351.22 2851.26 L2350.53 2851.03 L2349.95 2850.91 L2349.37 2850.80 L2348.44 2850.80 L2347.51 2850.91 L2346.23 2851.15 L2344.38 2851.26 L2343.21 2851.26 L2341.82 2851.03 L2340.20 2850.80 L2338.69 2850.33 L2337.76 2850.10 L2336.95 2849.64 L2336.37 2849.29 L2333.35 2846.97 L2330.91 2844.99 L2330.10 2844.41 L2327.66 2842.90 L2325.22 2841.39 L2322.90 2839.89 L2321.74 2839.07 L2316.75 2835.24 L2309.32 2822.70 L2307.69 2818.87 L2305.83 2811.21 L2304.33 2806.33 L2302.58 2803.66 L2299.10 2798.56 L2296.32 2794.49 L2292.37 2791.94 L2288.19 2790.89 L2287.26 2790.66 L2280.64 2790.31 L2270.66 2790.66 L2257.19 2790.20 L2245.12 2789.27 L2230.03 2786.71 L2206.00 2778.47 L2189.40 2765.00 L2144.24 2753.74 L2113.36 2761.99 L2118.01 2758.62 L2120.79 2756.88 L2123.93 2755.02 L2124.51 2754.79 L2130.66 2751.54 L2134.84 2749.45 L2138.55 2747.94 L2142.50 2746.31 L2145.40 2745.15 L2151.79 2742.71 L2158.75 2739.81 L2162.47 2738.30 L2166.76 2736.45 L2168.27 2735.87 L2170.13 2735.05 L2171.64 2734.24 L2172.91 2733.43 L2174.89 2732.03 L2176.40 2730.76 L2177.44 2729.71 L2178.37 2728.67 L2179.18 2727.51 L2180.11 2725.88 L2181.16 2724.26 L2181.85 2722.98 L2182.32 2721.82 L2183.01 2720.08 L2183.48 2718.80 L2183.94 2717.52 L2184.52 2714.50 L2184.99 2712.76 L2173.50 2708.93 L2154.81 2701.73 L2145.05 2697.09 L2132.75 2690.24 L2126.83 2686.76 L2126.13 2686.18 L2124.62 2687.11 L2122.18 2688.50 L2108.25 2696.05 L2097.46 2701.97 L2085.04 2708.82 L2072.50 2715.32 L2071.22 2716.01 L2069.71 2716.71 L2068.55 2717.17 L2067.28 2717.75 L2062.52 2719.26 L2061.12 2719.73 L2057.52 2720.77 L2050.56 2722.98 L2044.06 2724.95 L2039.07 2726.58 L2033.49 2728.32 L2030.13 2729.36 L2026.99 2730.41 L2024.09 2731.22 L2018.98 2732.85 L1975.33 2746.43 L1972.20 2747.36 L1968.37 2748.52 L1962.91 2750.14 L1960.01 2751.07 L1953.86 2752.82 L1952.12 2753.40 L1949.10 2754.21 L1947.71 2754.67 L1943.41 2755.83 L1941.44 2756.41 L1937.84 2757.46 L1934.94 2758.16 L1932.96 2758.74 L1930.99 2759.20 L1922.05 2761.75 L1916.71 2763.26 L1913.46 2764.08 L1914.16 2762.45 L1914.16 2761.87 L1909.05 2754.21 L1900.23 2747.94 L1902.08 2745.27 L1902.90 2743.06 L1903.59 2741.44 L1904.29 2738.30 L1904.87 2734.47 L1904.87 2730.29 L1904.17 2725.77 L1897.90 2699.64 L1895.93 2692.10 L1885.37 2652.05 L1882.12 2638.69 L1862.38 2644.04 L1859.60 2645.66 L1857.04 2648.56 L1837.66 2669.69 L1822.56 2685.02 L1815.13 2692.68 L1807.47 2701.04 L1800.28 2709.05 L1792.85 2717.87 L1791.69 2719.38 L1787.04 2726.23 L1784.84 2729.25 L1781.47 2725.42 L1778.10 2721.82 L1775.67 2718.92 L1777.17 2717.06 L1782.63 2709.51 L1787.51 2703.36 L1796.68 2692.10 L1798.30 2690.12 L1805.62 2681.77 L1812.46 2674.22 L1817.22 2669.11 L1824.54 2661.68 L1831.97 2654.48 L1837.66 2649.49 L1834.75 2642.87 L1839.40 2636.26 L1852.28 2622.21 L1858.09 2617.33 L1861.11 2615.94 L1867.72 2615.24 L1873.06 2608.51 L1870.28 2581.34 L1871.09 2576.58 L1871.32 2574.61 L1872.48 2573.33 L1881.30 2563.70 L1887.22 2557.31 L1893.96 2550.23 L1916.01 2527.13 L1921.82 2520.98 L1927.74 2526.66 L1930.87 2527.94 L1935.17 2528.75 L1947.47 2528.41 L1961.87 2526.66 L1970.69 2525.97 L1978.47 2524.69 L1983.69 2523.07 L1986.60 2525.04 L1989.27 2524.81 L1992.40 2523.76 L1995.53 2518.77 L2000.06 2517.61 L2005.05 2516.22 L2005.87 2514.36 L2006.45 2512.04 L2006.68 2510.53 L2006.56 2509.48 L2006.56 2508.32 L2007.03 2507.86 L2008.19 2506.81 L2012.48 2504.03 L2011.79 2500.89 L2011.44 2499.50 L2008.30 2488.70 L1999.95 2460.03 L1995.65 2443.54 L1989.96 2422.88 L1981.72 2392.92 L1979.98 2385.49 L1978.12 2377.72 L1972.43 2356.35 L1963.26 2322.22 L1961.17 2315.14 L1956.06 2298.08 L1950.14 2277.06 L1938.19 2252.10 L1937.84 2251.64 L1937.37 2250.71 L1937.37 2249.32 L1929.83 2207.41 L1927.62 2193.94 L1926.00 2173.39 L1927.27 2171.30 L1927.04 2169.91 L1925.88 2158.65 L1925.65 2150.52 L1924.84 2143.56 L1923.10 2134.85 L1921.01 2122.19 L1914.62 2097.58 L1908.24 2075.29 L1893.26 2023.05 L1888.04 2008.89 L1883.16 1997.97 L1878.75 1984.16 L1879.91 1983.81 L1885.48 1981.60 L1884.09 1975.22 L1882.93 1970.58 L1882.12 1967.09 L1880.61 1961.98 L1885.83 1955.48 L1894.42 1949.45 L1896.40 1942.13 L1898.95 1938.77 L1900.92 1936.44 L1899.88 1929.83 L1901.16 1928.55 L1903.59 1926.11 L1908.35 1936.44 L1908.00 1963.15 L1913.34 1980.44 L1919.26 1978.59 L1920.43 1978.35 L1933.43 1978.35 L1942.95 1972.55 L1942.83 1964.77 L1943.06 1961.52 L1943.88 1956.88 L1945.73 1953.16 L1946.66 1951.54 L1947.71 1948.52 L1947.36 1945.62 L1946.20 1942.48 L1944.80 1940.74 L1943.53 1939.58 L1942.13 1939.11 L1935.28 1939.00 L1931.34 1938.65 L1928.55 1938.65 L1927.86 1938.19 L1927.51 1937.02 L1927.51 1936.10 L1927.74 1935.28 L1928.78 1934.24 L1956.18 1940.62 L1999.71 1916.71 L2009.35 1918.33 L2025.25 1922.86 L2038.83 1918.22 L2138.79 1873.99 L2147.14 1890.35 L2176.86 1886.99 L2199.73 1885.59 L2203.33 1885.36 L2219.12 1873.17 L2220.86 1871.78 L2223.64 1872.36 L2226.55 1872.01 L2236.41 1869.46 L2242.92 1867.83 L2262.53 1862.61 L2262.77 1863.42 L2264.39 1868.76 L2264.86 1869.46 L2265.09 1870.85 L2270.54 1896.74 L2276.35 1924.02 L2282.97 1952.81 L2282.97 1954.09 L2288.07 1952.81 L2356.80 1952.93 L2357.73 1952.81 L2359.70 1952.70 L2359.12 1950.61 L2358.31 1947.82 L2356.68 1941.09 L2355.29 1935.63 L2352.62 1936.21 L2345.77 1902.54 L2346.23 1900.69 L2347.97 1900.11 L2378.04 1891.17 L2379.90 1890.59 L2391.16 1920.65 L2401.84 1914.85 L2410.78 1910.09 L2410.78 1909.16 L2447.58 1891.98 L2467.43 1883.51 L2490.88 1877.70 L2513.40 1874.68 L2523.03 1876.08 L2527.21 1876.77 L2535.45 1890.82 L2578.29 1939.69 L2579.80 1956.76 L2580.50 1964.65 L2588.62 2037.79 L2590.94 2059.27 L2591.18 2061.82 L2595.01 2105.13 L2616.95 2147.04 L2621.13 2155.98 L2624.49 2162.01 L2628.79 2168.86 L2624.49 2171.77 L2618.22 2175.95 L2597.10 2190.11 L2589.09 2195.57 L2580.50 2201.25 L2577.25 2203.34 L2580.50 2206.83 L2582.12 2209.03 L2580.73 2215.07 L2583.63 2218.32 L2598.49 2225.87 L2611.03 2257.91 L2622.75 2276.25 L2634.48 2294.24 L2611.14 2312.12 L2589.32 2329.42 L2593.61 2336.73 L2599.07 2345.33 L2600.11 2348.58 L2611.72 2366.11 L2623.80 2384.10 L2626.58 2388.16 L2634.59 2400.35 L2634.82 2400.70 L2635.06 2401.05 L2635.29 2401.52 L2635.29 2401.63 L2635.29 2401.86 L2635.17 2402.10 L2633.32 2403.61 L2628.67 2407.32 L2638.19 2408.36 L2641.44 2409.06 L2649.22 2410.45 L2654.44 2406.28 L2673.02 2434.37 L2682.77 2449.35 L2664.77 2463.28 L2649.80 2475.47 L2638.77 2484.17 L2627.51 2494.39 L2617.99 2501.82 L2593.61 2522.72 L2580.50 2533.63 L2577.01 2518.54 L2575.62 2512.50 L2575.39 2511.46 L2575.27 2510.99 L2575.16 2510.64 L2574.34 2509.48 L2573.30 2510.41 L2570.05 2512.97 L2568.42 2514.36 L2563.55 2518.31 L2559.60 2521.67 L2554.84 2525.62 L2547.18 2532.24 L2540.91 2537.23 L2538.24 2539.55 L2534.06 2543.03 L2532.32 2544.31 L2531.39 2545.01 L2530.46 2545.59 L2529.42 2546.17 L2527.91 2546.98 L2521.64 2549.88 L2518.16 2551.51 L2513.63 2553.71 L2509.45 2555.69 L2505.39 2557.66 L2508.41 2567.99 L2515.14 2590.75 L2516.42 2594.93 L2516.65 2596.09 L2517.00 2597.13 L2517.58 2599.34 L2518.04 2601.43 L2518.27 2603.98 L2518.27 2606.42 L2517.58 2610.37 L2520.25 2611.76 L2521.29 2613.27 L2521.64 2613.73 L2521.87 2614.20 L2522.34 2615.01 L2523.38 2617.68 L2524.08 2619.66 L2524.77 2621.98 L2525.59 2624.76 L2526.17 2626.62 L2526.98 2628.71 L2527.91 2631.96 L2528.49 2633.93 L2528.95 2634.98 L2525.47 2638.23 L2522.80 2640.32 L2521.76 2640.90 L2517.69 2642.76 L2514.44 2644.15 L2508.99 2645.78 L2493.78 2649.38 L2492.97 2649.72 L2481.24 2652.74 L2463.60 2656.92 L2453.61 2659.36 L2448.04 2658.90 L2446.30 2658.55 L2444.79 2657.97 L2443.98 2657.50 L2443.51 2657.15 L2443.05 2656.57 L2442.70 2655.88 L2442.47 2655.18 L2442.35 2654.14 L2441.42 2655.06 L2439.91 2656.46 L2438.17 2656.81 L2433.07 2662.03 L2424.24 2671.20 L2419.83 2675.96 L2413.68 2682.23 L2407.18 2688.96 L2405.32 2690.94 L2398.94 2697.44 L2396.73 2699.76 L2397.08 2700.22 L2397.43 2700.80 L2397.54 2701.39 L2397.66 2702.66 L2397.89 2703.24 L2398.12 2703.82 L2398.47 2704.40 L2399.63 2705.80 L2402.42 2709.05 L2407.87 2714.85 L2408.57 2715.55 L2410.78 2718.10 L2413.10 2720.77 L2430.05 2740.51 L2433.18 2744.34 L2440.03 2752.23 L2441.19 2753.40 L2443.16 2755.37 L2444.21 2756.30 L2445.95 2757.69 L2447.92 2758.97 L2450.25 2760.48 L2452.45 2761.64 L2455.35 2762.80 L2458.26 2763.50 L2461.27 2764.19 L2464.29 2764.66 L2467.43 2764.89 L2471.61 2765.24 L2475.67 2765.35 L2483.10 2765.70 L2503.65 2766.40 L2506.90 2766.63 L2508.64 2766.86 L2510.61 2767.33 L2512.70 2767.79 L2514.67 2768.37 L2517.23 2769.18 L2521.06 2770.58 L2527.33 2772.55 L2531.51 2773.60 L2533.71 2773.94 L2546.02 2775.45 L2548.11 2775.80 L2548.69 2775.92 L2559.72 2776.38 L2563.20 2776.50 L2564.13 2780.33 L2565.06 2783.70 L2565.29 2784.86 L2569.24 2800.07 L2574.34 2820.03 L2575.27 2823.86 L2575.97 2826.88 L2579.33 2840.81 L2586.18 2838.96 L2588.16 2838.49 L2596.75 2836.29 L2601.28 2835.01 L2611.61 2832.11 L2653.17 2820.50 L2658.62 2819.10 L2661.99 2818.06 L2677.43 2813.53 L2684.74 2811.44 L2699.60 2807.03 L2714.00 2802.97 L2715.50 2802.62 L2717.36 2802.27 L2722.12 2801.34 L2724.68 2800.99 L2726.88 2800.99 L2729.55 2801.23 L2731.41 2801.46 L2734.89 2802.39 L2738.95 2803.20 L2739.65 2803.32 L2740.70 2803.32 L2741.39 2803.43 L2741.62 2803.32 L2741.86 2803.20 L2741.97 2802.97 L2742.09 2802.50 L2742.09 2802.15 L2741.97 2801.46 L2741.16 2797.86 L2740.46 2794.96 L2737.45 2784.04 L2734.19 2771.04 L2730.13 2756.07 L2729.44 2753.16 L2729.09 2751.54 L2729.09 2750.96 L2729.32 2750.49 L2729.55 2750.03 L2730.13 2749.56 L2737.56 2744.57 L2747.20 2738.30 L2763.22 2722.51 L2782.60 2710.21 L2786.55 2707.77 L2797.69 2697.67 L2804.31 2690.36 L2810.12 2685.36 L2833.91 2770.46 L2834.15 2774.87 L2834.38 2780.91 L2851.67 2993.36 L2847.03 3075.32 L2847.03 3075.32 Z" stroke-linejoin="round"/>
	</defs>
	<use xlink:href="#path_GrpNCQhV" style="fill:#6BACAF;stroke:#6BB4D2;stroke-width:5.76"/>
	<defs>
		<path id="path_LOmyuNjn" d="M939.03 2379.69 L939.03 2379.69 L915.23 2341.73 L912.21 2336.04 L867.63 2284.61 L851.73 2265.11 L837.33 2247.46 L814.81 2216.35 L811.33 2199.86 L810.52 2190.34 L806.92 2173.28 L806.34 2170.72 L799.26 2142.16 L794.15 2093.29 L795.43 2069.37 L797.63 2047.20 L796.12 2039.77 L791.94 2036.75 L788.11 2024.44 L785.33 2020.61 L780.45 2015.39 L776.97 2010.86 L772.09 2006.22 L767.22 2002.73 L761.07 2000.53 L755.84 1997.28 L752.59 1994.37 L726.94 1978.93 L707.20 1965.00 L694.66 1934.35 L693.97 1933.31 L680.15 1929.48 L667.27 1925.88 L658.91 1926.34 L650.90 1926.81 L642.66 1927.39 L635.58 1927.74 L598.89 1929.36 L570.80 1929.48 L554.31 1931.80 L539.69 1933.77 L535.16 1901.62 L533.19 1884.67 L530.75 1867.02 L527.27 1842.18 L526.45 1834.86 L525.29 1826.62 L524.94 1824.53 L524.83 1822.44 L523.67 1814.20 L519.95 1784.24 L518.10 1770.20 L515.89 1749.88 L514.73 1739.32 L514.03 1731.89 L513.68 1729.10 L513.10 1728.98 L487.45 1723.06 L487.68 1722.48 L487.68 1721.90 L484.20 1721.09 L481.99 1720.74 L480.72 1720.63 L479.44 1720.63 L477.47 1720.63 L476.77 1720.63 L472.59 1721.09 L471.08 1721.21 L467.02 1721.67 L465.39 1721.90 L463.19 1722.13 L460.40 1722.60 L456.69 1723.30 L434.17 1728.52 L431.61 1718.30 L430.80 1715.05 L430.68 1713.89 L430.45 1713.08 L430.45 1712.15 L430.45 1710.06 L431.38 1707.74 L432.54 1706.23 L444.61 1703.21 L473.63 1692.30 L475.38 1691.60 L467.25 1674.77 L465.04 1673.26 L461.79 1666.53 L454.36 1669.66 L440.09 1673.84 L440.90 1676.63 L441.25 1679.88 L440.67 1683.01 L439.74 1684.75 L431.50 1688.70 L426.97 1690.79 L412.34 1695.67 L405.14 1698.80 L400.50 1700.77 L385.87 1706.93 L383.90 1707.27 L368.46 1710.06 L364.75 1710.29 L359.87 1710.53 L356.04 1710.76 L343.27 1713.20 L344.55 1721.55 L345.13 1727.71 L337.81 1729.22 L310.88 1734.79 L258.76 1745.59 L246.45 1748.37 L235.77 1750.58 L230.78 1751.85 L110.17 1778.32 L99.72 1780.53 L113.07 1745.01 L113.88 1742.34 L117.71 1731.65 L118.06 1730.15 L117.36 1730.26 L114.81 1730.96 L112.14 1731.42 L109.47 1731.89 L106.92 1732.12 L102.62 1732.35 L98.33 1732.35 L95.19 1732.35 L90.32 1732.12 L72.79 1730.73 L65.12 1730.96 L61.41 1730.49 L59.32 1729.91 L57.70 1729.45 L55.72 1728.52 L54.21 1727.71 L52.82 1726.66 L51.54 1725.62 L50.50 1724.57 L49.22 1723.18 L47.25 1720.63 L43.53 1715.52 L38.31 1705.30 L31.92 1693.23 L28.21 1686.49 L30.53 1682.66 L31.92 1681.04 L33.55 1679.41 L38.19 1675.46 L44.23 1670.94 L48.29 1668.04 L53.17 1664.55 L56.07 1662.81 L58.74 1661.53 L61.76 1660.37 L64.08 1659.79 L66.40 1659.21 L70.12 1658.63 L76.15 1657.93 L84.16 1657.35 L92.41 1656.89 L101.69 1656.31 L101.69 1655.73 L101.81 1654.92 L102.39 1653.99 L103.20 1653.06 L103.67 1652.59 L104.36 1652.36 L104.83 1652.25 L105.64 1652.25 L104.36 1639.24 L113.07 1639.01 L126.77 1639.48 L133.27 1639.13 L135.36 1638.43 L137.68 1637.50 L140.12 1635.76 L141.97 1633.32 L144.18 1629.03 L145.69 1624.50 L147.55 1619.62 L156.02 1598.49 L163.57 1582.94 L170.76 1566.80 L173.78 1559.84 L174.01 1559.14 L173.90 1558.44 L173.55 1557.75 L173.67 1548.92 L173.67 1545.09 L177.03 1546.14 L178.66 1546.72 L179.70 1546.60 L185.62 1548.81 L183.07 1539.64 L196.77 1518.04 L214.18 1489.72 L242.85 1461.85 L259.80 1456.74 L261.43 1455.93 L263.87 1453.73 L267.23 1449.31 L273.85 1439.21 L276.87 1434.45 L281.86 1424.47 L283.02 1420.64 L284.30 1412.16 L285.11 1406.94 L286.62 1400.44 L286.85 1398.35 L287.55 1395.68 L290.68 1389.64 L292.07 1385.58 L291.73 1380.35 L291.61 1375.01 L291.61 1370.72 L290.80 1336.59 L289.87 1300.25 L289.06 1266.58 L289.40 1246.27 L291.03 1243.02 L296.02 1232.80 L296.83 1231.17 L265.72 1207.96 L258.76 1177.66 L259.80 1174.87 L260.38 1172.31 L259.92 1168.14 L258.64 1163.61 L252.72 1153.86 L250.63 1149.79 L249.82 1147.93 L248.89 1144.68 L246.80 1140.62 L238.33 1127.62 L234.50 1122.28 L231.71 1118.91 L228.81 1116.82 L225.91 1115.78 L222.31 1115.08 L218.36 1114.27 L215.23 1112.64 L211.97 1109.62 L211.63 1106.61 L211.86 1103.47 L213.25 1101.15 L214.99 1094.53 L216.85 1086.87 L219.52 1084.08 L221.96 1081.99 L223.70 1081.18 L229.16 1080.83 L235.31 1080.83 L253.77 1083.74 L255.97 1082.34 L256.32 1078.51 L255.51 1070.38 L255.16 1068.29 L254.23 1064.12 L253.07 1060.40 L250.75 1053.90 L251.21 1048.56 L253.30 1040.78 L255.51 1036.37 L257.13 1031.03 L258.53 1023.60 L259.34 1019.19 L259.69 1013.85 L258.99 1011.64 L258.29 1009.20 L257.95 1007.69 L256.67 1001.66 L258.06 990.40 L259.45 987.03 L262.01 984.59 L266.19 984.71 L269.79 984.94 L272.22 985.06 L272.22 982.39 L270.02 979.83 L267.93 978.67 L266.77 975.88 L265.72 973.79 L263.17 972.98 L259.69 973.68 L256.67 973.33 L254.00 972.29 L250.17 971.01 L248.43 969.73 L244.13 967.99 L240.30 965.09 L237.28 963.69 L235.54 961.14 L234.03 955.45 L234.26 952.32 L235.66 950.11 L237.40 947.09 L236.47 942.91 L237.51 939.31 L238.56 938.50 L240.42 935.72 L240.65 932.70 L237.05 931.07 L235.19 930.84 L231.13 931.65 L229.62 934.32 L228.34 936.64 L226.49 939.31 L224.05 940.48 L220.22 943.61 L216.04 946.86 L212.21 946.98 L209.54 946.86 L205.36 945.70 L199.21 946.40 L196.77 947.56 L191.20 952.43 L189.92 951.62 L188.06 948.72 L184.81 944.42 L181.91 939.31 L181.68 938.15 L182.02 937.34 L182.95 937.22 L225.09 822.52 L202.80 623.89 L180.52 425.37 L173.09 359.54 L329.34 405.98 L454.25 415.04 L457.73 415.27 L458.20 415.50 L458.66 414.34 L457.73 412.25 L454.13 383.81 L453.55 375.80 L453.55 371.96 L451.46 362.44 L450.07 357.57 L447.98 341.55 L445.89 334.93 L438.46 300.80 L437.88 294.53 L438.34 286.40 L438.69 267.94 L437.76 263.07 L437.18 254.48 L436.49 248.21 L433.82 236.48 L433.47 224.18 L431.15 207.92 L429.87 186.68 L429.75 185.17 L430.33 174.95 L431.26 164.97 L434.17 153.82 L437.30 146.05 L443.80 137.69 L449.84 133.86 L457.73 130.61 L539.11 117.37 L658.91 92.41 L724.38 81.38 L780.57 71.98 L902.00 49.57 L940.88 41.79 L969.21 36.57 L975.13 36.92 L980.35 37.27 L991.50 40.52 L1000.55 46.44 L1007.05 53.29 L1010.77 60.95 L1012.74 65.24 L1014.83 71.05 L1029.11 112.03 L1078.56 256.34 L1090.75 246.47 L1127.09 216.98 L1150.31 186.56 L1205.10 79.99 L1217.29 115.40 L1336.51 461.82 L1385.96 558.18 L1556.96 663.71 L1658.19 725.82 L1655.98 744.28 L1642.51 869.08 L1638.33 906.92 L1634.04 946.05 L1624.75 1031.61 L1614.19 1128.20 L1603.28 1228.74 L1757.56 1376.52 L1723.19 1445.83 L1637.64 1659.79 L1629.98 1678.95 L1592.94 1707.39 L1552.78 1737.92 L1537.57 1745.59 L1535.83 1748.60 L1534.55 1750.93 L1531.77 1758.24 L1515.75 1774.26 L1473.14 1816.87 L1461.07 1820.81 L1458.05 1821.74 L1448.76 1831.15 L1387.82 1978.12 L1378.07 2000.53 L1322.23 2128.93 L1312.71 2162.01 L1312.48 2163.99 L1312.36 2165.50 L1295.07 2279.50 L1287.75 2296.10 L1265.12 2300.75 L1088.90 2324.78 L1060.22 2330.93 L939.03 2379.69 L939.03 2379.69 Z" stroke-linejoin="round"/>
	</defs>
	<use xlink:href="#path_LOmyuNjn" style="fill:#09757A;stroke:#097D9B;stroke-width:5.76"/>
	<defs>
		<path id="path_Evlflqel" d="M1712.17 2853.82 L1712.17 2853.82 L1708.80 2853.93 L1706.59 2853.93 L1705.55 2853.93 L1704.74 2853.82 L1703.11 2853.58 L1701.72 2853.24 L1699.05 2852.66 L1696.61 2851.73 L1694.52 2850.80 L1692.43 2849.64 L1689.18 2847.66 L1686.97 2846.27 L1685.23 2844.88 L1683.26 2843.25 L1680.82 2840.81 L1677.22 2837.33 L1673.74 2833.96 L1671.77 2832.22 L1669.45 2830.25 L1667.47 2828.86 L1665.27 2827.46 L1664.11 2826.77 L1662.60 2826.07 L1661.09 2825.37 L1659.58 2824.68 L1657.95 2823.98 L1656.33 2823.40 L1654.82 2823.05 L1652.85 2822.70 L1651.45 2822.59 L1649.94 2822.47 L1645.42 2821.77 L1645.18 2820.03 L1642.86 2820.15 L1639.03 2820.85 L1640.19 2819.57 L1641.24 2818.29 L1679.78 2776.61 L1688.72 2767.09 L1701.60 2753.74 L1710.77 2743.99 L1727.02 2726.81 L1756.16 2696.28 L1754.77 2694.65 L1753.26 2692.91 L1750.01 2689.66 L1745.37 2684.90 L1742.23 2682.00 L1737.36 2677.24 L1736.43 2676.43 L1728.53 2668.76 L1725.40 2665.74 L1721.80 2662.15 L1718.09 2658.43 L1714.72 2655.06 L1712.17 2652.51 L1709.73 2649.61 L1707.64 2646.71 L1705.08 2642.87 L1702.88 2639.04 L1701.83 2636.95 L1700.32 2633.93 L1699.16 2630.92 L1697.07 2624.76 L1696.61 2623.37 L1689.18 2625.11 L1681.17 2626.85 L1655.17 2631.85 L1632.65 2635.91 L1636.01 2620.12 L1637.99 2610.95 L1635.20 2611.64 L1632.88 2612.23 L1584.47 2624.30 L1588.88 2643.69 L1580.87 2645.20 L1577.50 2645.89 L1574.95 2646.24 L1573.67 2646.47 L1571.35 2646.59 L1567.99 2646.47 L1564.04 2646.01 L1561.72 2645.66 L1559.28 2645.20 L1557.07 2644.62 L1554.87 2643.92 L1551.85 2642.64 L1548.60 2641.13 L1546.51 2639.97 L1543.96 2638.46 L1541.75 2636.72 L1540.36 2635.68 L1538.73 2634.17 L1536.06 2631.03 L1533.51 2627.67 L1531.30 2624.18 L1529.33 2620.47 L1527.70 2616.75 L1526.31 2612.81 L1525.03 2608.86 L1523.99 2604.80 L1523.87 2603.75 L1519.69 2602.94 L1514.70 2601.89 L1511.68 2600.96 L1508.78 2599.80 L1500.07 2595.97 L1495.43 2593.77 L1492.30 2592.14 L1487.31 2588.77 L1483.94 2585.99 L1481.62 2583.78 L1478.95 2581.11 L1472.91 2574.61 L1469.78 2571.01 L1468.27 2569.15 L1467.45 2569.97 L1467.22 2570.43 L1467.11 2570.90 L1466.99 2571.36 L1466.87 2572.41 L1466.76 2572.87 L1466.41 2573.57 L1466.06 2574.03 L1465.13 2574.73 L1464.67 2575.31 L1464.44 2576.12 L1464.32 2576.82 L1464.20 2577.28 L1464.09 2577.63 L1463.86 2577.86 L1463.16 2578.33 L1462.58 2579.02 L1462.11 2580.18 L1462.00 2581.81 L1461.88 2582.74 L1461.42 2583.78 L1458.52 2589.01 L1457.59 2590.63 L1456.31 2592.49 L1455.03 2593.88 L1452.94 2595.51 L1449.23 2598.06 L1441.68 2599.22 L1427.99 2616.75 L1406.51 2594.00 L1356.48 2562.31 L1351.02 2553.02 L1336.51 2531.31 L1318.98 2486.96 L1311.09 2467.22 L1296.69 2430.77 L1290.07 2402.33 L1265.12 2300.75 L1287.75 2296.10 L1295.07 2279.50 L1312.36 2165.50 L1312.48 2163.99 L1312.71 2162.01 L1322.23 2128.93 L1378.07 2000.53 L1387.82 1978.12 L1448.76 1831.15 L1458.05 1821.74 L1461.07 1820.81 L1473.14 1816.87 L1515.75 1774.26 L1531.77 1758.24 L1534.55 1750.93 L1535.83 1748.60 L1537.57 1745.59 L1552.78 1737.92 L1592.94 1707.39 L1629.98 1678.95 L1637.64 1659.79 L1723.19 1445.83 L1757.56 1376.52 L1940.86 1468.35 L2050.56 1526.52 L2130.43 1568.89 L2131.36 1569.36 L2275.54 1653.87 L2236.53 1701.01 L2182.43 1766.60 L2161.89 1791.44 L2153.99 1800.96 L2150.05 1815.24 L2138.79 1873.99 L2038.83 1918.22 L2025.25 1922.86 L2009.35 1918.33 L1999.71 1916.71 L1956.18 1940.62 L1928.78 1934.24 L1927.74 1935.28 L1927.51 1936.10 L1927.51 1937.02 L1927.86 1938.19 L1928.55 1938.65 L1931.34 1938.65 L1935.28 1939.00 L1942.13 1939.11 L1943.53 1939.58 L1944.80 1940.74 L1946.20 1942.48 L1947.36 1945.62 L1947.71 1948.52 L1946.66 1951.54 L1945.73 1953.16 L1943.88 1956.88 L1943.06 1961.52 L1942.83 1964.77 L1942.95 1972.55 L1933.43 1978.35 L1920.43 1978.35 L1919.26 1978.59 L1913.34 1980.44 L1908.00 1963.15 L1908.35 1936.44 L1903.59 1926.11 L1901.16 1928.55 L1899.88 1929.83 L1900.92 1936.44 L1898.95 1938.77 L1896.40 1942.13 L1894.42 1949.45 L1885.83 1955.48 L1880.61 1961.98 L1882.12 1967.09 L1882.93 1970.58 L1884.09 1975.22 L1885.48 1981.60 L1879.91 1983.81 L1878.75 1984.16 L1883.16 1997.97 L1888.04 2008.89 L1893.26 2023.05 L1908.24 2075.29 L1914.62 2097.58 L1921.01 2122.19 L1923.10 2134.85 L1924.84 2143.56 L1925.65 2150.52 L1925.88 2158.65 L1927.04 2169.91 L1927.27 2171.30 L1926.00 2173.39 L1927.62 2193.94 L1929.83 2207.41 L1937.37 2249.32 L1937.37 2250.71 L1937.84 2251.64 L1938.19 2252.10 L1950.14 2277.06 L1956.06 2298.08 L1961.17 2315.14 L1963.26 2322.22 L1972.43 2356.35 L1978.12 2377.72 L1979.98 2385.49 L1981.72 2392.92 L1989.96 2422.88 L1995.65 2443.54 L1999.95 2460.03 L2008.30 2488.70 L2011.44 2499.50 L2011.79 2500.89 L2012.48 2504.03 L2008.19 2506.81 L2007.03 2507.86 L2006.56 2508.32 L2006.56 2509.48 L2006.68 2510.53 L2006.45 2512.04 L2005.87 2514.36 L2005.05 2516.22 L2000.06 2517.61 L1995.53 2518.77 L1992.40 2523.76 L1989.27 2524.81 L1986.60 2525.04 L1983.69 2523.07 L1978.47 2524.69 L1970.69 2525.97 L1961.87 2526.66 L1947.47 2528.41 L1935.17 2528.75 L1930.87 2527.94 L1927.74 2526.66 L1921.82 2520.98 L1916.01 2527.13 L1893.96 2550.23 L1887.22 2557.31 L1881.30 2563.70 L1872.48 2573.33 L1871.32 2574.61 L1871.09 2576.58 L1870.28 2581.34 L1873.06 2608.51 L1867.72 2615.24 L1861.11 2615.94 L1858.09 2617.33 L1852.28 2622.21 L1839.40 2636.26 L1834.75 2642.87 L1837.66 2649.49 L1831.97 2654.48 L1824.54 2661.68 L1817.22 2669.11 L1812.46 2674.22 L1805.62 2681.77 L1798.30 2690.12 L1796.68 2692.10 L1787.51 2703.36 L1782.63 2709.51 L1777.17 2717.06 L1775.67 2718.92 L1773.81 2721.47 L1769.51 2727.39 L1765.10 2734.01 L1760.81 2740.39 L1756.63 2747.01 L1752.56 2753.86 L1750.13 2758.04 L1747.46 2762.80 L1744.79 2767.56 L1742.58 2771.97 L1739.91 2777.19 L1736.43 2784.62 L1733.29 2791.24 L1730.28 2798.44 L1728.19 2803.20 L1726.68 2807.38 L1724.82 2812.37 L1724.01 2814.46 L1723.66 2815.16 L1720.87 2823.40 L1718.55 2830.60 L1716.58 2837.45 L1714.95 2843.37 L1712.17 2853.82 L1712.17 2853.82 Z" stroke-linejoin="round"/>
	</defs>
	<use xlink:href="#path_Evlflqel" style="fill:#004249;stroke:#00465F;stroke-width:5.76"/>
</svg>
