<?xml version="1.0" encoding="utf-8"?>
<!-- Generator: Adobe Illustrator 23.1.1, SVG Export Plug-In . SVG Version: 6.00 Build 0)  -->
<svg version="1.1" id="Layer_1" xmlns="http://www.w3.org/2000/svg" xmlns:xlink="http://www.w3.org/1999/xlink" x="0px" y="0px"
	 viewBox="0 0 42 15" style="enable-background:new 0 0 42 15;" xml:space="preserve">
<style type="text/css">
	.st0{fill:none;}
	.st1{fill:#00A4A6;}
	.st2{fill:#FFFFFF;}
</style>
<rect class="st0" width="21" height="15"/>
<g>
	<path class="st1" d="M20.7,8.2c0.4-0.4,0.4-1,0-1.4l-6.4-6.4c-0.4-0.4-1-0.4-1.4,0s-0.4,1,0,1.4l5.7,5.7l-5.7,5.7
		c-0.4,0.4-0.4,1,0,1.4s1,0.4,1.4,0L20.7,8.2z M0,8.5h20v-2H0V8.5z"/>
</g>
<rect x="21" class="st0" width="21" height="15"/>
<g>
	<path class="st2" d="M41.7,8.2c0.4-0.4,0.4-1,0-1.4l-6.4-6.4c-0.4-0.4-1-0.4-1.4,0s-0.4,1,0,1.4l5.7,5.7l-5.7,5.7
		c-0.4,0.4-0.4,1,0,1.4c0.4,0.4,1,0.4,1.4,0L41.7,8.2z M21,8.5h20v-2H21V8.5z"/>
</g>
</svg>
