<?xml version="1.0" encoding="UTF-8"?> <svg xmlns="http://www.w3.org/2000/svg" width="784" height="330" viewBox="0 0 784 330" fill="none"><rect width="784" height="330" fill="#EDEDED"></rect><path d="M62.2949 97.0518L46.6919 103.443V103.551L52.0898 105.538C52.627 105.699 52.6807 105.995 52.6807 106.693V133.709C52.6807 134.408 52.6807 134.623 52.0898 135.106L47.4438 138.893V139H67.5317V138.893L62.9126 135.106C62.2949 134.623 62.2949 134.408 62.2949 133.709V97.0518ZM71.0229 135.052C71.0229 137.657 73.1714 139.457 75.6689 139.457C78.3008 139.457 80.3955 137.657 80.3955 135.052C80.3955 132.313 78.3008 130.433 75.6689 130.433C73.1714 130.433 71.0229 132.313 71.0229 135.052ZM106.821 107.875C107.17 106.827 107.573 105.887 108.11 105.082L112.542 98.2065V98.0991H84.0747L82.7319 110.721H82.8394L86.062 106.935C86.626 106.236 86.814 106.129 87.7271 106.129H106.311C101.343 112.87 93.313 126.432 87.6196 139H99.8389C101.826 127.479 103.921 116.898 106.821 107.875Z" fill="#2B2B2B"></path><path d="M46.7578 169.191V183H49.1406V172.668L52.6074 183H54.9121L58.3789 172.668V183H60.7617V169.191H57.3242L53.7598 180.041L50.1953 169.191H46.7578ZM65.0879 171.691C65.8398 171.691 66.4355 171.096 66.4355 170.344C66.4355 169.611 65.8398 168.996 65.0879 168.996C64.3359 168.996 63.7402 169.611 63.7402 170.344C63.7402 171.096 64.3359 171.691 65.0879 171.691ZM63.8867 173.234V183H66.2695V173.234H63.8867ZM72.998 183.195C75.2051 183.195 76.6406 182.18 77.2852 180.305L75.0879 179.484C74.8242 180.48 74.082 181.105 73.1348 181.105C71.7285 181.105 70.8008 180.07 70.8008 178.098C70.8008 176.096 71.7773 175.129 73.0371 175.129C74.0332 175.129 74.7168 175.725 74.9902 176.77L77.2559 175.891C76.5234 173.938 75.0684 173.039 73.0273 173.039C70.0879 173.039 68.3203 175.002 68.3203 178.137C68.3203 181.232 70.0586 183.195 72.998 183.195ZM79.043 173.234V183H81.3477V178.879C81.3477 176.857 82.4121 175.363 84.043 175.363C84.5508 175.363 84.8438 175.451 85.0684 175.539V173.176C84.8535 173.107 84.502 173.039 83.9844 173.039C82.8516 173.039 81.8945 173.742 81.3672 174.992V173.234H79.043ZM96.0352 178.117C96.0352 175.305 94.0527 173.039 91.0352 173.039C88.0176 173.039 86.0352 175.305 86.0352 178.117C86.0352 180.93 88.0176 183.195 91.0352 183.195C94.0527 183.195 96.0352 180.93 96.0352 178.117ZM93.5547 178.117C93.5547 179.729 92.832 181.105 91.0352 181.105C89.2285 181.105 88.5156 179.729 88.5156 178.117C88.5156 176.506 89.2383 175.129 91.0352 175.129C92.8418 175.129 93.5547 176.506 93.5547 178.117ZM97.9883 183H100.371V182.014C101.045 182.854 102.139 183.195 103.164 183.195C105.82 183.195 107.393 181.027 107.393 178.117C107.393 175.178 105.82 173.039 103.125 173.039C102.08 173.039 101.045 173.381 100.371 174.201V169.191H97.9883V183ZM102.529 175.129C104.17 175.129 104.912 176.438 104.912 178.117C104.912 179.777 104.17 181.105 102.529 181.105C100.889 181.105 100.166 179.797 100.166 178.117C100.166 176.418 100.889 175.129 102.529 175.129ZM118.203 183V173.234H115.82V178.674C115.82 180.334 115.01 181.096 113.652 181.096C112.549 181.096 111.758 180.324 111.758 178.801V173.234H109.375V179.094C109.375 181.74 110.791 183.195 112.939 183.195C114.053 183.195 115.088 182.707 115.82 181.857V183H118.203ZM124.141 183.195C126.055 183.195 127.93 182.209 127.93 179.973C127.93 176.35 122.695 177.424 122.695 175.754C122.695 175.275 123.125 174.924 123.965 174.924C125.02 174.924 125.596 175.52 125.908 176.096L127.773 175.051C127.061 173.762 125.791 173.039 123.955 173.039C121.787 173.039 120.41 174.211 120.41 175.93C120.41 179.709 125.586 178.469 125.586 180.256C125.586 180.822 125.078 181.223 124.062 181.223C123.135 181.223 122.324 180.773 121.787 179.719L119.961 180.842C120.635 182.404 121.973 183.195 124.141 183.195ZM131.182 171.691C131.934 171.691 132.529 171.096 132.529 170.344C132.529 169.611 131.934 168.996 131.182 168.996C130.43 168.996 129.834 169.611 129.834 170.344C129.834 171.096 130.43 171.691 131.182 171.691ZM129.98 173.234V183H132.363V173.234H129.98ZM135.098 173.234V183H137.48V177.561C137.48 175.9 138.291 175.139 139.648 175.139C140.752 175.139 141.543 175.91 141.543 177.434V183H143.926V177.141C143.926 174.494 142.51 173.039 140.361 173.039C139.248 173.039 138.213 173.527 137.48 174.377V173.234H135.098ZM150.791 183.195C152.432 183.195 153.73 182.619 154.795 181.438L153.154 180.002C152.461 180.773 151.738 181.076 150.84 181.076C149.541 181.076 148.604 180.422 148.369 178.898H155.068C155.127 178.615 155.156 178.332 155.156 177.961C155.156 175.783 154.053 173.039 150.635 173.039C147.764 173.039 145.85 175.119 145.85 178.156C145.85 181.164 147.676 183.195 150.791 183.195ZM150.615 175.041C151.885 175.041 152.695 175.852 152.812 177.18H148.379C148.604 175.715 149.434 175.041 150.615 175.041ZM160.312 183.195C162.227 183.195 164.102 182.209 164.102 179.973C164.102 176.35 158.867 177.424 158.867 175.754C158.867 175.275 159.297 174.924 160.137 174.924C161.191 174.924 161.768 175.52 162.08 176.096L163.945 175.051C163.232 173.762 161.963 173.039 160.127 173.039C157.959 173.039 156.582 174.211 156.582 175.93C156.582 179.709 161.758 178.469 161.758 180.256C161.758 180.822 161.25 181.223 160.234 181.223C159.307 181.223 158.496 180.773 157.959 179.719L156.133 180.842C156.807 182.404 158.145 183.195 160.312 183.195ZM169.355 183.195C171.27 183.195 173.145 182.209 173.145 179.973C173.145 176.35 167.91 177.424 167.91 175.754C167.91 175.275 168.34 174.924 169.18 174.924C170.234 174.924 170.811 175.52 171.123 176.096L172.988 175.051C172.275 173.762 171.006 173.039 169.17 173.039C167.002 173.039 165.625 174.211 165.625 175.93C165.625 179.709 170.801 178.469 170.801 180.256C170.801 180.822 170.293 181.223 169.277 181.223C168.35 181.223 167.539 180.773 167.002 179.719L165.176 180.842C165.85 182.404 167.188 183.195 169.355 183.195ZM179.424 183.195C181.064 183.195 182.363 182.619 183.428 181.438L181.787 180.002C181.094 180.773 180.371 181.076 179.473 181.076C178.174 181.076 177.236 180.422 177.002 178.898H183.701C183.76 178.615 183.789 178.332 183.789 177.961C183.789 175.783 182.686 173.039 179.268 173.039C176.396 173.039 174.482 175.119 174.482 178.156C174.482 181.164 176.309 183.195 179.424 183.195ZM179.248 175.041C180.518 175.041 181.328 175.852 181.445 177.18H177.012C177.236 175.715 178.066 175.041 179.248 175.041ZM188.945 183.195C190.859 183.195 192.734 182.209 192.734 179.973C192.734 176.35 187.5 177.424 187.5 175.754C187.5 175.275 187.93 174.924 188.77 174.924C189.824 174.924 190.4 175.52 190.713 176.096L192.578 175.051C191.865 173.762 190.596 173.039 188.76 173.039C186.592 173.039 185.215 174.211 185.215 175.93C185.215 179.709 190.391 178.469 190.391 180.256C190.391 180.822 189.883 181.223 188.867 181.223C187.939 181.223 187.129 180.773 186.592 179.719L184.766 180.842C185.439 182.404 186.777 183.195 188.945 183.195ZM46.3672 209.043H48.75V204.014C49.4238 204.854 50.5176 205.195 51.543 205.195C54.1992 205.195 55.7715 203.027 55.7715 200.117C55.7715 197.178 54.1992 195.039 51.5039 195.039C50.459 195.039 49.4238 195.381 48.75 196.201V195.234H46.3672V209.043ZM50.9082 197.129C52.5488 197.129 53.291 198.438 53.291 200.117C53.291 201.777 52.5488 203.105 50.9082 203.105C49.2676 203.105 48.5449 201.797 48.5449 200.117C48.5449 198.418 49.2676 197.129 50.9082 197.129ZM62.0996 205.195C63.7402 205.195 65.0391 204.619 66.1035 203.438L64.4629 202.002C63.7695 202.773 63.0469 203.076 62.1484 203.076C60.8496 203.076 59.9121 202.422 59.6777 200.898H66.377C66.4355 200.615 66.4648 200.332 66.4648 199.961C66.4648 197.783 65.3613 195.039 61.9434 195.039C59.0723 195.039 57.1582 197.119 57.1582 200.156C57.1582 203.164 58.9844 205.195 62.0996 205.195ZM61.9238 197.041C63.1934 197.041 64.0039 197.852 64.1211 199.18H59.6875C59.9121 197.715 60.7422 197.041 61.9238 197.041ZM68.418 195.234V205H70.7227V200.879C70.7227 198.857 71.7871 197.363 73.418 197.363C73.9258 197.363 74.2188 197.451 74.4434 197.539V195.176C74.2285 195.107 73.877 195.039 73.3594 195.039C72.2266 195.039 71.2695 195.742 70.7422 196.992V195.234H68.418ZM83.3398 194.941V205H85.7812V191.201H83.4375C83.4375 192.432 82.334 193.057 80.6641 193.057V194.941H83.3398ZM93.3008 205.195C97.002 205.195 98.7402 201.543 98.7402 198.115C98.7402 194.678 96.9629 190.977 93.1641 190.977C88.9844 190.977 87.7051 195.156 87.7051 198.096C87.7051 201.016 89.0234 205.195 93.3008 205.195ZM93.2422 202.861C91.0059 202.861 90.1465 200.303 90.1465 198.096C90.1465 195.879 91.0059 193.359 93.1641 193.359C95.3223 193.359 96.1816 195.859 96.1816 198.076C96.1816 200.244 95.3418 202.861 93.2422 202.861ZM104.902 205.195C108.604 205.195 110.342 201.543 110.342 198.115C110.342 194.678 108.564 190.977 104.766 190.977C100.586 190.977 99.3066 195.156 99.3066 198.096C99.3066 201.016 100.625 205.195 104.902 205.195ZM104.844 202.861C102.607 202.861 101.748 200.303 101.748 198.096C101.748 195.879 102.607 193.359 104.766 193.359C106.924 193.359 107.783 195.859 107.783 198.076C107.783 200.244 106.943 202.861 104.844 202.861ZM116.777 209.043H119.16V204.014C119.834 204.854 120.928 205.195 121.953 205.195C124.609 205.195 126.182 203.027 126.182 200.117C126.182 197.178 124.609 195.039 121.914 195.039C120.869 195.039 119.834 195.381 119.16 196.201V195.234H116.777V209.043ZM121.318 197.129C122.959 197.129 123.701 198.438 123.701 200.117C123.701 201.777 122.959 203.105 121.318 203.105C119.678 203.105 118.955 201.797 118.955 200.117C118.955 198.418 119.678 197.129 121.318 197.129ZM132.51 205.195C134.15 205.195 135.449 204.619 136.514 203.438L134.873 202.002C134.18 202.773 133.457 203.076 132.559 203.076C131.26 203.076 130.322 202.422 130.088 200.898H136.787C136.846 200.615 136.875 200.332 136.875 199.961C136.875 197.783 135.771 195.039 132.354 195.039C129.482 195.039 127.568 197.119 127.568 200.156C127.568 203.164 129.395 205.195 132.51 205.195ZM132.334 197.041C133.604 197.041 134.414 197.852 134.531 199.18H130.098C130.322 197.715 131.152 197.041 132.334 197.041ZM148.047 200.117C148.047 197.305 146.064 195.039 143.047 195.039C140.029 195.039 138.047 197.305 138.047 200.117C138.047 202.93 140.029 205.195 143.047 205.195C146.064 205.195 148.047 202.93 148.047 200.117ZM145.566 200.117C145.566 201.729 144.844 203.105 143.047 203.105C141.24 203.105 140.527 201.729 140.527 200.117C140.527 198.506 141.25 197.129 143.047 197.129C144.854 197.129 145.566 198.506 145.566 200.117ZM150 209.043H152.383V204.014C153.057 204.854 154.15 205.195 155.176 205.195C157.832 205.195 159.404 203.027 159.404 200.117C159.404 197.178 157.832 195.039 155.137 195.039C154.092 195.039 153.057 195.381 152.383 196.201V195.234H150V209.043ZM154.541 197.129C156.182 197.129 156.924 198.438 156.924 200.117C156.924 201.777 156.182 203.105 154.541 203.105C152.9 203.105 152.178 201.797 152.178 200.117C152.178 198.418 152.9 197.129 154.541 197.129ZM161.504 205H163.887V191.191H161.504V205ZM170.85 205.195C172.49 205.195 173.789 204.619 174.854 203.438L173.213 202.002C172.52 202.773 171.797 203.076 170.898 203.076C169.6 203.076 168.662 202.422 168.428 200.898H175.127C175.186 200.615 175.215 200.332 175.215 199.961C175.215 197.783 174.111 195.039 170.693 195.039C167.822 195.039 165.908 197.119 165.908 200.156C165.908 203.164 167.734 205.195 170.85 205.195ZM170.674 197.041C171.943 197.041 172.754 197.852 172.871 199.18H168.438C168.662 197.715 169.492 197.041 170.674 197.041Z" fill="#06757A"></path><path d="M47.3379 220.133C47.3379 217.364 48.124 215.519 49.1768 214.247H47.6797C46.668 215.532 46.0254 217.412 46.0254 220.167C46.0254 222.922 46.668 224.802 47.6797 226.087H49.1768C48.1172 224.809 47.3379 222.936 47.3379 220.133ZM50.8242 215.334V225H52.4922V218.226L56.5391 225H58.2754V215.334H56.6074V222.102L52.5674 215.334H50.8242ZM59.8818 223.024C59.8818 224.337 60.7637 225.137 62.2607 225.137C63.2383 225.137 63.9629 224.754 64.4893 224.022L64.5986 225H65.9727V220.81C65.9727 219.128 64.9199 218.027 63.0811 218.027C61.8369 218.027 60.9072 218.499 60.1484 219.524L61.4268 220.447C61.7822 219.839 62.3496 219.483 63.0264 219.483C63.833 219.483 64.3799 219.982 64.3799 220.926H62.6025C60.8525 220.926 59.8818 221.705 59.8818 223.024ZM62.6025 223.729C61.9395 223.729 61.5908 223.414 61.5908 222.949C61.5908 222.464 61.9668 222.129 62.7256 222.129H64.3799C64.3799 222.983 63.5732 223.729 62.6025 223.729ZM70.1836 225.137C70.6553 225.137 71.1611 225.027 71.4141 224.932V223.421C71.1885 223.53 70.8125 223.667 70.4639 223.667C70.0264 223.667 69.6914 223.476 69.6914 222.819V219.531H71.4141V218.164H69.6914V215.341H68.0645V218.164H66.9365V219.531H68.0371V223.113C68.0371 224.357 68.8369 225.137 70.1836 225.137ZM73.6904 217.084C74.2168 217.084 74.6338 216.667 74.6338 216.141C74.6338 215.628 74.2168 215.197 73.6904 215.197C73.1641 215.197 72.7471 215.628 72.7471 216.141C72.7471 216.667 73.1641 217.084 73.6904 217.084ZM72.8496 218.164V225H74.5176V218.164H72.8496ZM82.8848 221.582C82.8848 219.613 81.4971 218.027 79.3848 218.027C77.2725 218.027 75.8848 219.613 75.8848 221.582C75.8848 223.551 77.2725 225.137 79.3848 225.137C81.4971 225.137 82.8848 223.551 82.8848 221.582ZM81.1484 221.582C81.1484 222.71 80.6426 223.674 79.3848 223.674C78.1201 223.674 77.6211 222.71 77.6211 221.582C77.6211 220.454 78.127 219.49 79.3848 219.49C80.6494 219.49 81.1484 220.454 81.1484 221.582ZM84.252 218.164V225H85.9199V221.192C85.9199 220.03 86.4873 219.497 87.4375 219.497C88.21 219.497 88.7637 220.037 88.7637 221.104V225H90.4316V220.898C90.4316 219.046 89.4404 218.027 87.9365 218.027C87.1572 218.027 86.4326 218.369 85.9199 218.964V218.164H84.252ZM91.6963 223.024C91.6963 224.337 92.5781 225.137 94.0752 225.137C95.0527 225.137 95.7773 224.754 96.3037 224.022L96.4131 225H97.7871V220.81C97.7871 219.128 96.7344 218.027 94.8955 218.027C93.6514 218.027 92.7217 218.499 91.9629 219.524L93.2412 220.447C93.5967 219.839 94.1641 219.483 94.8408 219.483C95.6475 219.483 96.1943 219.982 96.1943 220.926H94.417C92.667 220.926 91.6963 221.705 91.6963 223.024ZM94.417 223.729C93.7539 223.729 93.4053 223.414 93.4053 222.949C93.4053 222.464 93.7812 222.129 94.54 222.129H96.1943C96.1943 222.983 95.3877 223.729 94.417 223.729ZM99.5645 225H101.232V215.334H99.5645V225ZM105.929 223.024C105.929 224.337 106.811 225.137 108.308 225.137C109.285 225.137 110.01 224.754 110.536 224.022L110.646 225H112.02V220.81C112.02 219.128 110.967 218.027 109.128 218.027C107.884 218.027 106.954 218.499 106.195 219.524L107.474 220.447C107.829 219.839 108.396 219.483 109.073 219.483C109.88 219.483 110.427 219.982 110.427 220.926H108.649C106.899 220.926 105.929 221.705 105.929 223.024ZM108.649 223.729C107.986 223.729 107.638 223.414 107.638 222.949C107.638 222.464 108.014 222.129 108.772 222.129H110.427C110.427 222.983 109.62 223.729 108.649 223.729ZM112.737 218.164L115.52 225H116.894L119.683 218.164H117.871L116.21 222.847L114.556 218.164H112.737ZM123.565 225.137C124.714 225.137 125.623 224.733 126.368 223.906L125.22 222.901C124.734 223.441 124.229 223.653 123.6 223.653C122.69 223.653 122.034 223.195 121.87 222.129H126.56C126.601 221.931 126.621 221.732 126.621 221.473C126.621 219.948 125.849 218.027 123.456 218.027C121.446 218.027 120.106 219.483 120.106 221.609C120.106 223.715 121.385 225.137 123.565 225.137ZM123.442 219.429C124.331 219.429 124.898 219.996 124.98 220.926H121.877C122.034 219.9 122.615 219.429 123.442 219.429ZM127.988 218.164V225H129.602V222.115C129.602 220.7 130.347 219.654 131.488 219.654C131.844 219.654 132.049 219.716 132.206 219.777V218.123C132.056 218.075 131.81 218.027 131.447 218.027C130.654 218.027 129.984 218.52 129.615 219.395V218.164H127.988ZM132.849 223.024C132.849 224.337 133.73 225.137 135.228 225.137C136.205 225.137 136.93 224.754 137.456 224.022L137.565 225H138.939V220.81C138.939 219.128 137.887 218.027 136.048 218.027C134.804 218.027 133.874 218.499 133.115 219.524L134.394 220.447C134.749 219.839 135.316 219.483 135.993 219.483C136.8 219.483 137.347 219.982 137.347 220.926H135.569C133.819 220.926 132.849 221.705 132.849 223.024ZM135.569 223.729C134.906 223.729 134.558 223.414 134.558 222.949C134.558 222.464 134.934 222.129 135.692 222.129H137.347C137.347 222.983 136.54 223.729 135.569 223.729ZM145.188 224.973C145.188 226.039 144.634 226.511 143.67 226.511C142.747 226.511 142.146 226.053 141.879 225.574L140.601 226.497C141.202 227.338 142.125 227.967 143.643 227.967C145.673 227.967 146.849 226.832 146.849 224.973L146.855 218.164H145.188V218.854C144.716 218.267 143.95 218.027 143.232 218.027C141.373 218.027 140.272 219.518 140.272 221.514C140.272 223.53 141.373 225 143.26 225C143.991 225 144.716 224.761 145.188 224.187V224.973ZM143.677 223.537C142.528 223.537 142.009 222.648 142.009 221.514C142.009 220.393 142.528 219.49 143.677 219.49C144.825 219.49 145.331 220.379 145.331 221.514C145.331 222.662 144.825 223.537 143.677 223.537ZM151.729 225.137C152.878 225.137 153.787 224.733 154.532 223.906L153.384 222.901C152.898 223.441 152.393 223.653 151.764 223.653C150.854 223.653 150.198 223.195 150.034 222.129H154.724C154.765 221.931 154.785 221.732 154.785 221.473C154.785 219.948 154.013 218.027 151.62 218.027C149.61 218.027 148.271 219.483 148.271 221.609C148.271 223.715 149.549 225.137 151.729 225.137ZM151.606 219.429C152.495 219.429 153.062 219.996 153.145 220.926H150.041C150.198 219.9 150.779 219.429 151.606 219.429ZM162.462 225.137C164.745 225.137 166.112 223.872 166.112 222.026C166.112 220.864 165.682 220.112 164.731 219.661C165.34 219.169 165.586 218.608 165.586 217.788C165.586 216.305 164.362 215.197 162.476 215.197C160.808 215.197 159.372 216.271 159.372 218.164H161.006C161.02 217.262 161.607 216.715 162.489 216.715C163.31 216.715 163.891 217.118 163.891 217.959C163.891 218.766 163.494 219.148 162.619 219.148H161.642V220.604H162.585C163.747 220.604 164.335 221.145 164.335 222.047C164.335 223.1 163.508 223.592 162.51 223.592C161.354 223.592 160.65 223.011 160.65 221.951H158.941C158.941 224.091 160.562 225.137 162.462 225.137ZM168.71 225.137C169.284 225.137 169.735 224.672 169.735 224.111C169.735 223.537 169.271 223.106 168.71 223.106C168.149 223.106 167.705 223.551 167.705 224.111C167.705 224.672 168.136 225.137 168.71 225.137ZM174.671 225.137C176.954 225.137 178.321 223.872 178.321 222.026C178.321 220.864 177.891 220.112 176.94 219.661C177.549 219.169 177.795 218.608 177.795 217.788C177.795 216.305 176.571 215.197 174.685 215.197C173.017 215.197 171.581 216.271 171.581 218.164H173.215C173.229 217.262 173.816 216.715 174.698 216.715C175.519 216.715 176.1 217.118 176.1 217.959C176.1 218.766 175.703 219.148 174.828 219.148H173.851V220.604H174.794C175.956 220.604 176.544 221.145 176.544 222.047C176.544 223.1 175.717 223.592 174.719 223.592C173.563 223.592 172.859 223.011 172.859 221.951H171.15C171.15 224.091 172.771 225.137 174.671 225.137ZM181.138 220.201C181.138 222.97 180.352 224.815 179.299 226.087H180.796C181.808 224.802 182.45 222.922 182.45 220.167C182.45 217.412 181.808 215.532 180.796 214.247H179.299C180.358 215.525 181.138 217.398 181.138 220.201Z" fill="#06757A"></path><path d="M48.457 306.088C50.0566 306.088 51.0879 305.186 51.0879 303.938C51.0879 300.879 46.7988 301.793 46.7988 299.584C46.7988 298.84 47.4082 298.283 48.334 298.283C49.1016 298.283 49.6582 298.611 50.0566 299.332L50.6953 299.021C50.168 298.066 49.4297 297.627 48.3398 297.627C47.0391 297.627 46.0664 298.518 46.0664 299.602C46.0664 302.408 50.3438 301.477 50.3438 303.967C50.3438 304.828 49.6699 305.426 48.5039 305.426C47.3145 305.426 46.5352 304.805 46.2715 303.645L45.5449 303.85C45.9023 305.279 46.9453 306.088 48.457 306.088ZM57.9082 303.07C57.9082 301.354 56.7539 300.053 55.0957 300.053C53.4375 300.053 52.2832 301.359 52.2832 303.07C52.2832 304.787 53.4375 306.088 55.0957 306.088C56.7539 306.088 57.9082 304.781 57.9082 303.07ZM57.1582 303.07C57.1582 304.43 56.3789 305.461 55.0957 305.461C53.8066 305.461 53.0332 304.424 53.0332 303.07C53.0332 301.711 53.8125 300.68 55.0957 300.68C56.3789 300.68 57.1582 301.717 57.1582 303.07ZM64.0254 306V300.141H63.3164V303.645C63.3164 304.805 62.6543 305.455 61.6348 305.455C60.709 305.455 60.1641 304.898 60.1641 303.814V300.141H59.4551V303.908C59.4551 305.309 60.2285 306.088 61.459 306.088C62.2734 306.088 62.9648 305.689 63.3164 304.98V306H64.0254ZM66.1465 300.141V306H66.8496V302.977C66.8496 301.418 67.7812 300.75 68.625 300.75C68.8242 300.75 68.9824 300.779 69.1465 300.838V300.111C69.0059 300.076 68.8477 300.053 68.6426 300.053C67.8867 300.053 67.2012 300.486 66.8496 301.424V300.141H66.1465ZM72.5156 306.088C73.6289 306.088 74.4785 305.502 74.8359 304.482L74.1738 304.236C73.9277 304.986 73.3359 305.438 72.5449 305.438C71.2734 305.438 70.6406 304.359 70.6406 303.07C70.6406 301.6 71.4141 300.703 72.5156 300.703C73.2832 300.703 73.875 301.137 74.168 301.898L74.8418 301.641C74.4023 300.586 73.5996 300.053 72.5215 300.053C70.916 300.053 69.8965 301.301 69.8965 303.07C69.8965 304.811 70.8691 306.088 72.5156 306.088ZM78.627 306.088C79.5703 306.088 80.2266 305.807 80.8828 305.121L80.3906 304.676C79.8691 305.227 79.3711 305.443 78.6387 305.443C77.4844 305.443 76.7168 304.705 76.6523 303.211H80.9824C81.0059 303.053 81.0176 302.895 81.0176 302.713C81.0176 301.225 80.1094 300.053 78.5332 300.053C76.9805 300.053 75.9082 301.277 75.9082 303.1C75.9082 304.928 76.9805 306.088 78.627 306.088ZM78.5039 300.668C79.623 300.668 80.3086 301.459 80.3086 302.666H76.6582C76.7754 301.359 77.5605 300.668 78.5039 300.668ZM83.4551 301.055C83.7305 301.055 83.959 300.826 83.959 300.551C83.959 300.27 83.7246 300.047 83.4551 300.047C83.1738 300.047 82.9453 300.275 82.9453 300.551C82.9453 300.826 83.1738 301.055 83.4551 301.055ZM83.4551 306.088C83.7305 306.088 83.959 305.859 83.959 305.578C83.959 305.303 83.7246 305.08 83.4551 305.08C83.1738 305.08 82.9453 305.303 82.9453 305.578C82.9453 305.859 83.1738 306.088 83.4551 306.088ZM88.875 297.715L92.1504 306H92.7539L96.0176 297.715H95.2207L92.4609 304.881L89.6895 297.715H88.875ZM99.5566 306.088C100.5 306.088 101.156 305.807 101.812 305.121L101.32 304.676C100.799 305.227 100.301 305.443 99.5684 305.443C98.4141 305.443 97.6465 304.705 97.582 303.211H101.912C101.936 303.053 101.947 302.895 101.947 302.713C101.947 301.225 101.039 300.053 99.4629 300.053C97.9102 300.053 96.8379 301.277 96.8379 303.1C96.8379 304.928 97.9102 306.088 99.5566 306.088ZM99.4336 300.668C100.553 300.668 101.238 301.459 101.238 302.666H97.5879C97.7051 301.359 98.4902 300.668 99.4336 300.668ZM103.6 300.141V306H104.309V302.496C104.309 301.336 104.971 300.68 105.99 300.68C106.916 300.68 107.461 301.242 107.461 302.326V306H108.17V302.232C108.17 300.832 107.396 300.053 106.166 300.053C105.357 300.053 104.66 300.451 104.309 301.16V300.141H103.6ZM112.037 306.088C112.33 306.088 112.623 306.035 112.793 305.977V305.332C112.576 305.414 112.348 305.455 112.102 305.455C111.463 305.455 111.117 305.121 111.117 304.254V300.738H112.77V300.141H111.117V298.254H110.414V300.141H109.441V300.738H110.408V304.295C110.408 305.484 110.982 306.088 112.037 306.088ZM118.822 306V300.141H118.113V303.645C118.113 304.805 117.451 305.455 116.432 305.455C115.506 305.455 114.961 304.898 114.961 303.814V300.141H114.252V303.908C114.252 305.309 115.025 306.088 116.256 306.088C117.07 306.088 117.762 305.689 118.113 304.98V306H118.822ZM120.943 300.141V306H121.646V302.977C121.646 301.418 122.578 300.75 123.422 300.75C123.621 300.75 123.779 300.779 123.943 300.838V300.111C123.803 300.076 123.645 300.053 123.439 300.053C122.684 300.053 121.998 300.486 121.646 301.424V300.141H120.943ZM127.6 306.088C128.543 306.088 129.199 305.807 129.855 305.121L129.363 304.676C128.842 305.227 128.344 305.443 127.611 305.443C126.457 305.443 125.689 304.705 125.625 303.211H129.955C129.979 303.053 129.99 302.895 129.99 302.713C129.99 301.225 129.082 300.053 127.506 300.053C125.953 300.053 124.881 301.277 124.881 303.1C124.881 304.928 125.953 306.088 127.6 306.088ZM127.477 300.668C128.596 300.668 129.281 301.459 129.281 302.666H125.631C125.748 301.359 126.533 300.668 127.477 300.668ZM135.006 297.715V306H135.756V302.168H139.969V301.494H135.756V298.389H140.555V297.715H135.006ZM147.088 303.07C147.088 301.354 145.934 300.053 144.275 300.053C142.617 300.053 141.463 301.359 141.463 303.07C141.463 304.787 142.617 306.088 144.275 306.088C145.934 306.088 147.088 304.781 147.088 303.07ZM146.338 303.07C146.338 304.43 145.559 305.461 144.275 305.461C142.986 305.461 142.213 304.424 142.213 303.07C142.213 301.711 142.992 300.68 144.275 300.68C145.559 300.68 146.338 301.717 146.338 303.07ZM148.693 300.141V306H149.396V302.977C149.396 301.418 150.328 300.75 151.172 300.75C151.371 300.75 151.529 300.779 151.693 300.838V300.111C151.553 300.076 151.395 300.053 151.189 300.053C150.434 300.053 149.748 300.486 149.396 301.424V300.141H148.693ZM152.484 300.141L154.178 306H154.857L156.486 301.119L158.133 306H158.818L160.518 300.141H159.756L158.443 304.934L156.832 300.141H156.17L154.559 304.934L153.246 300.141H152.484ZM165.545 304.77L165.592 306H166.189V302.584C166.189 300.867 165.381 300.053 163.939 300.053C162.908 300.053 162.176 300.428 161.607 301.254L162.152 301.658C162.574 301.002 163.137 300.686 163.898 300.686C164.965 300.686 165.516 301.219 165.521 302.625H163.922C162.217 302.625 161.379 303.299 161.379 304.371C161.379 305.443 162.158 306.088 163.371 306.088C164.314 306.088 165.076 305.643 165.545 304.77ZM163.506 305.473C162.598 305.473 162.105 305.027 162.105 304.336C162.105 303.627 162.639 303.176 163.881 303.176H165.521V303.551C165.527 304.365 164.818 305.473 163.506 305.473ZM168.217 300.141V306H168.92V302.977C168.92 301.418 169.852 300.75 170.695 300.75C170.895 300.75 171.053 300.779 171.217 300.838V300.111C171.076 300.076 170.918 300.053 170.713 300.053C169.957 300.053 169.271 300.486 168.92 301.424V300.141H168.217ZM177.498 297.715H176.789V301.453C176.438 300.586 175.652 300.053 174.656 300.053C173.068 300.053 172.148 301.377 172.148 303.07C172.148 304.77 173.068 306.088 174.656 306.088C175.658 306.088 176.438 305.555 176.789 304.688V306H177.498V297.715ZM174.814 305.461C173.572 305.461 172.893 304.418 172.893 303.07C172.893 301.723 173.572 300.68 174.814 300.68C176.057 300.68 176.848 301.711 176.848 303.076C176.848 304.43 176.057 305.461 174.814 305.461ZM180.955 305.812C180.955 305.314 180.709 305.062 180.375 305.062C180.094 305.062 179.877 305.279 179.877 305.561C179.877 305.842 180.082 306.064 180.369 306.064H180.398C180.398 306.305 180.275 306.527 179.93 306.668V307.225C180.58 306.973 180.955 306.527 180.955 305.812ZM186.838 297.715V306H189.521C191.209 306 192.199 305.15 192.199 303.668C192.199 302.695 191.666 301.887 190.682 301.617C191.385 301.295 191.795 300.615 191.795 299.812C191.795 298.4 190.799 297.715 189.34 297.715H186.838ZM189.574 301.371H187.588V298.389H189.322C190.465 298.389 191.086 298.904 191.086 299.871C191.086 300.82 190.436 301.371 189.574 301.371ZM189.545 305.314H187.588V302.021H189.785C190.828 302.021 191.449 302.654 191.449 303.65C191.449 304.752 190.793 305.314 189.545 305.314ZM198.451 306V300.141H197.742V303.645C197.742 304.805 197.08 305.455 196.061 305.455C195.135 305.455 194.59 304.898 194.59 303.814V300.141H193.881V303.908C193.881 305.309 194.654 306.088 195.885 306.088C196.699 306.088 197.391 305.689 197.742 304.98V306H198.451ZM200.572 300.141V306H201.275V302.977C201.275 301.418 202.207 300.75 203.051 300.75C203.25 300.75 203.408 300.779 203.572 300.838V300.111C203.432 300.076 203.273 300.053 203.068 300.053C202.312 300.053 201.627 300.486 201.275 301.424V300.141H200.572ZM207.229 306.088C208.172 306.088 208.828 305.807 209.484 305.121L208.992 304.676C208.471 305.227 207.973 305.443 207.24 305.443C206.086 305.443 205.318 304.705 205.254 303.211H209.584C209.607 303.053 209.619 302.895 209.619 302.713C209.619 301.225 208.711 300.053 207.135 300.053C205.582 300.053 204.51 301.277 204.51 303.1C204.51 304.928 205.582 306.088 207.229 306.088ZM207.105 300.668C208.225 300.668 208.91 301.459 208.91 302.666H205.26C205.377 301.359 206.162 300.668 207.105 300.668ZM214.916 304.77L214.963 306H215.561V302.584C215.561 300.867 214.752 300.053 213.311 300.053C212.279 300.053 211.547 300.428 210.979 301.254L211.523 301.658C211.945 301.002 212.508 300.686 213.27 300.686C214.336 300.686 214.887 301.219 214.893 302.625H213.293C211.588 302.625 210.75 303.299 210.75 304.371C210.75 305.443 211.529 306.088 212.742 306.088C213.686 306.088 214.447 305.643 214.916 304.77ZM212.877 305.473C211.969 305.473 211.477 305.027 211.477 304.336C211.477 303.627 212.01 303.176 213.252 303.176H214.893V303.551C214.898 304.365 214.189 305.473 212.877 305.473ZM222.041 306V300.141H221.332V303.645C221.332 304.805 220.67 305.455 219.65 305.455C218.725 305.455 218.18 304.898 218.18 303.814V300.141H217.471V303.908C217.471 305.309 218.244 306.088 219.475 306.088C220.289 306.088 220.98 305.689 221.332 304.98V306H222.041ZM232.354 303.07C232.354 301.354 231.199 300.053 229.541 300.053C227.883 300.053 226.729 301.359 226.729 303.07C226.729 304.787 227.883 306.088 229.541 306.088C231.199 306.088 232.354 304.781 232.354 303.07ZM231.604 303.07C231.604 304.43 230.824 305.461 229.541 305.461C228.252 305.461 227.479 304.424 227.479 303.07C227.479 301.711 228.258 300.68 229.541 300.68C230.824 300.68 231.604 301.717 231.604 303.07ZM234.305 300.738V306H235.014V300.738H236.637V300.141H235.014V299.32C235.014 298.559 235.383 298.236 235.91 298.236C236.145 298.236 236.391 298.283 236.637 298.4V297.768C236.408 297.668 236.145 297.627 235.887 297.627C234.938 297.627 234.305 298.236 234.305 299.396V300.141H233.057V300.738H234.305ZM241.166 297.715V306H245.719V305.297H241.916V297.715H241.166ZM250.939 304.77L250.986 306H251.584V302.584C251.584 300.867 250.775 300.053 249.334 300.053C248.303 300.053 247.57 300.428 247.002 301.254L247.547 301.658C247.969 301.002 248.531 300.686 249.293 300.686C250.359 300.686 250.91 301.219 250.916 302.625H249.316C247.611 302.625 246.773 303.299 246.773 304.371C246.773 305.443 247.553 306.088 248.766 306.088C249.709 306.088 250.471 305.643 250.939 304.77ZM248.9 305.473C247.992 305.473 247.5 305.027 247.5 304.336C247.5 303.627 248.033 303.176 249.275 303.176H250.916V303.551C250.922 304.365 250.213 305.473 248.9 305.473ZM253.611 306H254.32V304.688C254.672 305.555 255.457 306.088 256.459 306.088C258.041 306.088 258.967 304.764 258.967 303.07C258.967 301.371 258.041 300.053 256.453 300.053C255.451 300.053 254.672 300.586 254.32 301.453V297.715H253.611V306ZM256.295 300.68C257.543 300.68 258.217 301.723 258.217 303.07C258.217 304.418 257.543 305.461 256.295 305.461C255.053 305.461 254.262 304.43 254.262 303.064C254.262 301.711 255.053 300.68 256.295 300.68ZM265.717 303.07C265.717 301.354 264.562 300.053 262.904 300.053C261.246 300.053 260.092 301.359 260.092 303.07C260.092 304.787 261.246 306.088 262.904 306.088C264.562 306.088 265.717 304.781 265.717 303.07ZM264.967 303.07C264.967 304.43 264.188 305.461 262.904 305.461C261.615 305.461 260.842 304.424 260.842 303.07C260.842 301.711 261.621 300.68 262.904 300.68C264.188 300.68 264.967 301.717 264.967 303.07ZM267.322 300.141V306H268.025V302.977C268.025 301.418 268.957 300.75 269.801 300.75C270 300.75 270.158 300.779 270.322 300.838V300.111C270.182 300.076 270.023 300.053 269.818 300.053C269.062 300.053 268.377 300.486 268.025 301.424V300.141H267.322ZM277.23 306.088C278.83 306.088 279.861 305.186 279.861 303.938C279.861 300.879 275.572 301.793 275.572 299.584C275.572 298.84 276.182 298.283 277.107 298.283C277.875 298.283 278.432 298.611 278.83 299.332L279.469 299.021C278.941 298.066 278.203 297.627 277.113 297.627C275.812 297.627 274.84 298.518 274.84 299.602C274.84 302.408 279.117 301.477 279.117 303.967C279.117 304.828 278.443 305.426 277.277 305.426C276.088 305.426 275.309 304.805 275.045 303.645L274.318 303.85C274.676 305.279 275.719 306.088 277.23 306.088ZM283.354 306.088C283.646 306.088 283.939 306.035 284.109 305.977V305.332C283.893 305.414 283.664 305.455 283.418 305.455C282.779 305.455 282.434 305.121 282.434 304.254V300.738H284.086V300.141H282.434V298.254H281.73V300.141H280.758V300.738H281.725V304.295C281.725 305.484 282.299 306.088 283.354 306.088ZM289.271 304.77L289.318 306H289.916V302.584C289.916 300.867 289.107 300.053 287.666 300.053C286.635 300.053 285.902 300.428 285.334 301.254L285.879 301.658C286.301 301.002 286.863 300.686 287.625 300.686C288.691 300.686 289.242 301.219 289.248 302.625H287.648C285.943 302.625 285.105 303.299 285.105 304.371C285.105 305.443 285.885 306.088 287.098 306.088C288.041 306.088 288.803 305.643 289.271 304.77ZM287.232 305.473C286.324 305.473 285.832 305.027 285.832 304.336C285.832 303.627 286.365 303.176 287.607 303.176H289.248V303.551C289.254 304.365 288.545 305.473 287.232 305.473ZM293.736 306.088C294.029 306.088 294.322 306.035 294.492 305.977V305.332C294.275 305.414 294.047 305.455 293.801 305.455C293.162 305.455 292.816 305.121 292.816 304.254V300.738H294.469V300.141H292.816V298.254H292.113V300.141H291.141V300.738H292.107V304.295C292.107 305.484 292.682 306.088 293.736 306.088ZM296.297 298.676C296.566 298.676 296.789 298.453 296.789 298.184C296.789 297.92 296.566 297.691 296.297 297.691C296.021 297.691 295.805 297.92 295.805 298.184C295.805 298.453 296.021 298.676 296.297 298.676ZM295.939 300.141V306H296.648V300.141H295.939ZM300.551 306.088C301.852 306.088 302.66 305.432 302.66 304.395C302.66 302.086 299.174 303.123 299.174 301.535C299.174 301.02 299.625 300.656 300.434 300.656C301.16 300.656 301.652 300.984 301.934 301.57L302.52 301.26C302.121 300.492 301.406 300.053 300.439 300.053C299.215 300.053 298.477 300.703 298.477 301.576C298.477 303.867 301.951 302.66 301.951 304.471C301.951 305.068 301.459 305.479 300.568 305.479C299.713 305.479 299.133 305.08 298.816 304.312L298.213 304.594C298.582 305.52 299.355 306.088 300.551 306.088ZM306.076 306.088C306.369 306.088 306.662 306.035 306.832 305.977V305.332C306.615 305.414 306.387 305.455 306.141 305.455C305.502 305.455 305.156 305.121 305.156 304.254V300.738H306.809V300.141H305.156V298.254H304.453V300.141H303.48V300.738H304.447V304.295C304.447 305.484 305.021 306.088 306.076 306.088ZM308.637 298.676C308.906 298.676 309.129 298.453 309.129 298.184C309.129 297.92 308.906 297.691 308.637 297.691C308.361 297.691 308.145 297.92 308.145 298.184C308.145 298.453 308.361 298.676 308.637 298.676ZM308.279 300.141V306H308.988V300.141H308.279ZM313.23 306.088C314.344 306.088 315.193 305.502 315.551 304.482L314.889 304.236C314.643 304.986 314.051 305.438 313.26 305.438C311.988 305.438 311.355 304.359 311.355 303.07C311.355 301.6 312.129 300.703 313.23 300.703C313.998 300.703 314.59 301.137 314.883 301.898L315.557 301.641C315.117 300.586 314.314 300.053 313.236 300.053C311.631 300.053 310.611 301.301 310.611 303.07C310.611 304.811 311.584 306.088 313.23 306.088ZM318.867 306.088C320.168 306.088 320.977 305.432 320.977 304.395C320.977 302.086 317.49 303.123 317.49 301.535C317.49 301.02 317.941 300.656 318.75 300.656C319.477 300.656 319.969 300.984 320.25 301.57L320.836 301.26C320.438 300.492 319.723 300.053 318.756 300.053C317.531 300.053 316.793 300.703 316.793 301.576C316.793 303.867 320.268 302.66 320.268 304.471C320.268 305.068 319.775 305.479 318.885 305.479C318.029 305.479 317.449 305.08 317.133 304.312L316.529 304.594C316.898 305.52 317.672 306.088 318.867 306.088Z" fill="#6A6A6A"></path><path d="M302.361 139.591H303.301V145.042H304.402V139.457C313.077 138.812 318.663 133.709 318.663 126.324C318.663 119.449 313.479 116.656 307.303 113.675L304.402 112.279V98.6094H304.698C305.208 98.6094 305.799 98.6094 306.39 98.6631C306.954 98.7168 307.142 98.9585 307.544 99.5493L315.386 112.118H315.521V98.8511C311.438 97.8574 307.437 97.5083 304.402 97.5083V92.8623H303.301V97.562C294.681 97.9111 289.202 102.557 289.202 109.674C289.202 116.952 294.869 120.255 300.025 122.752L303.301 124.337V138.409C302.818 138.463 302.415 138.463 301.958 138.463C301.207 138.463 300.508 138.463 299.515 138.302C298.816 138.194 298.628 138.006 298.226 137.308L290.545 124.042H290.438V137.953C294.036 139 298.87 139.591 302.361 139.591ZM309.881 131.776C309.881 135.321 307.706 137.55 304.402 138.248V124.928C308.001 126.834 309.881 128.58 309.881 131.776ZM297.769 105.001C297.769 101.456 299.971 99.2002 303.301 98.7168V111.715C299.864 109.916 297.769 108.224 297.769 105.001ZM349.842 108.573C349.842 102.101 345.142 97.5083 335.877 97.5083C330.586 97.5083 325.296 99.0122 321.563 100.812L326.102 111.366H326.236L331.177 99.6567C331.392 99.1465 331.58 98.9585 332.037 98.8511C332.439 98.7168 332.977 98.6631 333.567 98.6631C336.978 98.6631 339.261 101.751 339.261 108.224C339.261 113.407 337.623 117.247 333.621 123.102C332.225 125.143 330.533 127.425 328.25 130.165L320.999 138.893V139H348.392L350.433 125.787H350.325L346.485 129.977C345.599 130.917 345.491 131.024 343.853 131.024H328.787L331.338 129.332C341.812 122.591 349.842 116.898 349.842 108.573ZM354.971 146.681C360.101 145.58 364.048 140.692 364.048 135.616C364.048 132.125 362.007 130.165 359.322 130.165C356.771 130.165 355.025 132.018 355.025 134.408C355.025 136.556 356.421 138.194 358.57 138.543C359.214 138.651 359.456 138.812 359.456 139.403C359.456 141.9 357.818 145.042 354.917 146.573L354.971 146.681ZM383.76 98.0991L367.002 128.526V128.58H382.579V133.763C382.579 134.408 382.471 134.703 381.88 135.16L377.691 138.893V139H396.919V138.893L392.784 135.106C392.247 134.569 392.139 134.408 392.139 133.763V128.58H399.874L400.975 116.307H400.867L394.878 126.593C394.395 127.372 394.18 127.425 393.348 127.425H392.139V98.0991H383.76ZM368.909 127.425L382.579 102.906V127.425H368.909ZM418.27 97.0518L402.667 103.443V103.551L408.064 105.538C408.602 105.699 408.655 105.995 408.655 106.693V133.709C408.655 134.408 408.655 134.623 408.064 135.106L403.418 138.893V139H423.506V138.893L418.887 135.106C418.27 134.623 418.27 134.408 418.27 133.709V97.0518ZM438.626 123.8C442.601 123.8 445.904 122.484 448.455 119.691C448.294 132.877 446.011 138.463 440.613 138.463H439.673C438.68 138.409 438.572 138.355 438.169 137.657L432.476 127.13H432.342L427.991 137.416C432.342 139 436.424 139.591 440.157 139.591C452.43 139.591 459.009 131.266 459.009 118.348C459.009 104.894 453.235 97.5083 442.063 97.5083C432.583 97.5083 426.46 103.094 426.46 111.527C426.46 119.745 432.53 123.8 438.626 123.8ZM443.299 121.249C438.116 121.249 436.128 116.307 436.128 110.265C436.128 102.745 438.814 98.6094 442.171 98.6094C446.092 98.6094 448.455 103.497 448.455 118.348V118.858C446.844 120.309 445.098 121.249 443.299 121.249Z" fill="#2B2B2B"></path><path d="M294.539 183.195C297.625 183.195 299.578 181.877 300.662 179.221L298.367 178.283C297.625 180.109 296.443 180.852 294.588 180.852C292.078 180.852 290.457 179.221 290.457 176.037C290.457 173.059 292.039 171.34 294.588 171.34C296.59 171.34 297.742 172.238 298.328 173.879L300.643 172.961C299.549 170.334 297.605 168.996 294.588 168.996C290.496 168.996 287.879 171.779 287.879 176.135C287.879 180.588 290.594 183.195 294.539 183.195ZM302.547 169.191V183H304.93V177.561C304.93 175.9 305.74 175.139 307.098 175.139C308.201 175.139 308.992 175.91 308.992 177.434V183H311.375V177.141C311.375 174.494 309.959 173.039 307.811 173.039C306.697 173.039 305.662 173.527 304.93 174.377V169.191H302.547ZM313.182 180.178C313.182 182.053 314.441 183.195 316.58 183.195C317.977 183.195 319.012 182.648 319.764 181.604L319.92 183H321.883V177.014C321.883 174.611 320.379 173.039 317.752 173.039C315.975 173.039 314.646 173.713 313.562 175.178L315.389 176.496C315.896 175.627 316.707 175.119 317.674 175.119C318.826 175.119 319.607 175.832 319.607 177.18H317.068C314.568 177.18 313.182 178.293 313.182 180.178ZM317.068 181.184C316.121 181.184 315.623 180.734 315.623 180.07C315.623 179.377 316.16 178.898 317.244 178.898H319.607C319.607 180.119 318.455 181.184 317.068 181.184ZM324.422 173.234V183H326.805V177.561C326.805 175.9 327.615 175.139 328.973 175.139C330.076 175.139 330.867 175.91 330.867 177.434V183H333.25V177.141C333.25 174.494 331.834 173.039 329.686 173.039C328.572 173.039 327.537 173.527 326.805 174.377V173.234H324.422ZM342.273 182.961C342.273 184.484 341.482 185.158 340.105 185.158C338.787 185.158 337.928 184.504 337.547 183.82L335.721 185.139C336.58 186.34 337.898 187.238 340.066 187.238C342.967 187.238 344.646 185.617 344.646 182.961L344.656 173.234H342.273V174.221C341.6 173.381 340.506 173.039 339.48 173.039C336.824 173.039 335.252 175.168 335.252 178.02C335.252 180.9 336.824 183 339.52 183C340.564 183 341.6 182.658 342.273 181.838V182.961ZM340.115 180.91C338.475 180.91 337.732 179.641 337.732 178.02C337.732 176.418 338.475 175.129 340.115 175.129C341.756 175.129 342.479 176.398 342.479 178.02C342.479 179.66 341.756 180.91 340.115 180.91ZM351.619 183.195C353.26 183.195 354.559 182.619 355.623 181.438L353.982 180.002C353.289 180.773 352.566 181.076 351.668 181.076C350.369 181.076 349.432 180.422 349.197 178.898H355.896C355.955 178.615 355.984 178.332 355.984 177.961C355.984 175.783 354.881 173.039 351.463 173.039C348.592 173.039 346.678 175.119 346.678 178.156C346.678 181.164 348.504 183.195 351.619 183.195ZM351.443 175.041C352.713 175.041 353.523 175.852 353.641 177.18H349.207C349.432 175.715 350.262 175.041 351.443 175.041ZM363.943 171.691C364.695 171.691 365.291 171.096 365.291 170.344C365.291 169.611 364.695 168.996 363.943 168.996C363.191 168.996 362.596 169.611 362.596 170.344C362.596 171.096 363.191 171.691 363.943 171.691ZM362.742 173.234V183H365.125V173.234H362.742ZM367.859 173.234V183H370.242V177.561C370.242 175.9 371.053 175.139 372.41 175.139C373.514 175.139 374.305 175.91 374.305 177.434V183H376.688V177.141C376.688 174.494 375.271 173.039 373.123 173.039C372.01 173.039 370.975 173.527 370.242 174.377V173.234H367.859ZM384.129 169.191V183H386.512V177.561C386.512 175.9 387.322 175.139 388.68 175.139C389.783 175.139 390.574 175.91 390.574 177.434V183H392.957V177.141C392.957 174.494 391.541 173.039 389.393 173.039C388.279 173.039 387.244 173.527 386.512 174.377V169.191H384.129ZM404.812 178.117C404.812 175.305 402.83 173.039 399.812 173.039C396.795 173.039 394.812 175.305 394.812 178.117C394.812 180.93 396.795 183.195 399.812 183.195C402.83 183.195 404.812 180.93 404.812 178.117ZM402.332 178.117C402.332 179.729 401.609 181.105 399.812 181.105C398.006 181.105 397.293 179.729 397.293 178.117C397.293 176.506 398.016 175.129 399.812 175.129C401.619 175.129 402.332 176.506 402.332 178.117ZM415.496 183V173.234H413.113V178.674C413.113 180.334 412.303 181.096 410.945 181.096C409.842 181.096 409.051 180.324 409.051 178.801V173.234H406.668V179.094C406.668 181.74 408.084 183.195 410.232 183.195C411.346 183.195 412.381 182.707 413.113 181.857V183H415.496ZM421.434 183.195C423.348 183.195 425.223 182.209 425.223 179.973C425.223 176.35 419.988 177.424 419.988 175.754C419.988 175.275 420.418 174.924 421.258 174.924C422.312 174.924 422.889 175.52 423.201 176.096L425.066 175.051C424.354 173.762 423.084 173.039 421.248 173.039C419.08 173.039 417.703 174.211 417.703 175.93C417.703 179.709 422.879 178.469 422.879 180.256C422.879 180.822 422.371 181.223 421.355 181.223C420.428 181.223 419.617 180.773 419.08 179.719L417.254 180.842C417.928 182.404 419.266 183.195 421.434 183.195ZM431.502 183.195C433.143 183.195 434.441 182.619 435.506 181.438L433.865 180.002C433.172 180.773 432.449 181.076 431.551 181.076C430.252 181.076 429.314 180.422 429.08 178.898H435.779C435.838 178.615 435.867 178.332 435.867 177.961C435.867 175.783 434.764 173.039 431.346 173.039C428.475 173.039 426.561 175.119 426.561 178.156C426.561 181.164 428.387 183.195 431.502 183.195ZM431.326 175.041C432.596 175.041 433.406 175.852 433.523 177.18H429.09C429.314 175.715 430.145 175.041 431.326 175.041ZM437.82 169.191V183H440.203V177.561C440.203 175.9 441.014 175.139 442.371 175.139C443.475 175.139 444.266 175.91 444.266 177.434V183H446.648V177.141C446.648 174.494 445.232 173.039 443.084 173.039C441.971 173.039 440.936 173.527 440.203 174.377V169.191H437.82ZM458.504 178.117C458.504 175.305 456.521 173.039 453.504 173.039C450.486 173.039 448.504 175.305 448.504 178.117C448.504 180.93 450.486 183.195 453.504 183.195C456.521 183.195 458.504 180.93 458.504 178.117ZM456.023 178.117C456.023 179.729 455.301 181.105 453.504 181.105C451.697 181.105 450.984 179.729 450.984 178.117C450.984 176.506 451.707 175.129 453.504 175.129C455.311 175.129 456.023 176.506 456.023 178.117ZM460.457 183H462.84V169.191H460.457V183ZM474.344 169.191H471.961V174.221C471.287 173.381 470.193 173.039 469.168 173.039C466.512 173.039 464.939 175.207 464.939 178.117C464.939 181.057 466.512 183.195 469.207 183.195C470.252 183.195 471.287 182.854 471.961 182.033V183H474.344V169.191ZM469.803 181.105C468.162 181.105 467.42 179.797 467.42 178.117C467.42 176.457 468.162 175.129 469.803 175.129C471.443 175.129 472.166 176.438 472.166 178.117C472.166 179.816 471.443 181.105 469.803 181.105ZM288.367 195.234V205H290.75V199.561C290.75 197.9 291.482 197.139 292.713 197.139C293.787 197.139 294.422 197.9 294.422 199.434V205H296.805V199.375C296.805 197.715 297.605 197.139 298.768 197.139C299.842 197.139 300.477 197.9 300.477 199.434V205H302.859V199.141C302.859 196.445 301.492 195.039 299.334 195.039C297.967 195.039 296.971 195.508 296.18 196.631C295.604 195.596 294.666 195.039 293.523 195.039C292.391 195.039 291.443 195.508 290.75 196.377V195.234H288.367ZM309.725 205.195C311.365 205.195 312.664 204.619 313.729 203.438L312.088 202.002C311.395 202.773 310.672 203.076 309.773 203.076C308.475 203.076 307.537 202.422 307.303 200.898H314.002C314.061 200.615 314.09 200.332 314.09 199.961C314.09 197.783 312.986 195.039 309.568 195.039C306.697 195.039 304.783 197.119 304.783 200.156C304.783 203.164 306.609 205.195 309.725 205.195ZM309.549 197.041C310.818 197.041 311.629 197.852 311.746 199.18H307.312C307.537 197.715 308.367 197.041 309.549 197.041ZM324.812 191.191H322.43V196.221C321.756 195.381 320.662 195.039 319.637 195.039C316.98 195.039 315.408 197.207 315.408 200.117C315.408 203.057 316.98 205.195 319.676 205.195C320.721 205.195 321.756 204.854 322.43 204.033V205H324.812V191.191ZM320.271 203.105C318.631 203.105 317.889 201.797 317.889 200.117C317.889 198.457 318.631 197.129 320.271 197.129C321.912 197.129 322.635 198.438 322.635 200.117C322.635 201.816 321.912 203.105 320.271 203.105ZM328.748 193.691C329.5 193.691 330.096 193.096 330.096 192.344C330.096 191.611 329.5 190.996 328.748 190.996C327.996 190.996 327.4 191.611 327.4 192.344C327.4 193.096 327.996 193.691 328.748 193.691ZM327.547 195.234V205H329.93V195.234H327.547ZM331.834 202.178C331.834 204.053 333.094 205.195 335.232 205.195C336.629 205.195 337.664 204.648 338.416 203.604L338.572 205H340.535V199.014C340.535 196.611 339.031 195.039 336.404 195.039C334.627 195.039 333.299 195.713 332.215 197.178L334.041 198.496C334.549 197.627 335.359 197.119 336.326 197.119C337.479 197.119 338.26 197.832 338.26 199.18H335.721C333.221 199.18 331.834 200.293 331.834 202.178ZM335.721 203.184C334.773 203.184 334.275 202.734 334.275 202.07C334.275 201.377 334.812 200.898 335.896 200.898H338.26C338.26 202.119 337.107 203.184 335.721 203.184ZM343.074 195.234V205H345.457V199.561C345.457 197.9 346.268 197.139 347.625 197.139C348.729 197.139 349.52 197.91 349.52 199.434V205H351.902V199.141C351.902 196.494 350.486 195.039 348.338 195.039C347.225 195.039 346.189 195.527 345.457 196.377V195.234H343.074ZM360.545 193.691C361.297 193.691 361.893 193.096 361.893 192.344C361.893 191.611 361.297 190.996 360.545 190.996C359.793 190.996 359.197 191.611 359.197 192.344C359.197 193.096 359.793 193.691 360.545 193.691ZM359.344 195.234V205H361.727V195.234H359.344ZM364.461 195.234V205H366.844V199.561C366.844 197.9 367.654 197.139 369.012 197.139C370.115 197.139 370.906 197.91 370.906 199.434V205H373.289V199.141C373.289 196.494 371.873 195.039 369.725 195.039C368.611 195.039 367.576 195.527 366.844 196.377V195.234H364.461ZM379.92 205.195C382.127 205.195 383.562 204.18 384.207 202.305L382.01 201.484C381.746 202.48 381.004 203.105 380.057 203.105C378.65 203.105 377.723 202.07 377.723 200.098C377.723 198.096 378.699 197.129 379.959 197.129C380.955 197.129 381.639 197.725 381.912 198.77L384.178 197.891C383.445 195.938 381.99 195.039 379.949 195.039C377.01 195.039 375.242 197.002 375.242 200.137C375.242 203.232 376.98 205.195 379.92 205.195ZM395.184 200.117C395.184 197.305 393.201 195.039 390.184 195.039C387.166 195.039 385.184 197.305 385.184 200.117C385.184 202.93 387.166 205.195 390.184 205.195C393.201 205.195 395.184 202.93 395.184 200.117ZM392.703 200.117C392.703 201.729 391.98 203.105 390.184 203.105C388.377 203.105 387.664 201.729 387.664 200.117C387.664 198.506 388.387 197.129 390.184 197.129C391.99 197.129 392.703 198.506 392.703 200.117ZM397.137 195.234V205H399.52V199.561C399.52 197.9 400.252 197.139 401.482 197.139C402.557 197.139 403.191 197.9 403.191 199.434V205H405.574V199.375C405.574 197.715 406.375 197.139 407.537 197.139C408.611 197.139 409.246 197.9 409.246 199.434V205H411.629V199.141C411.629 196.445 410.262 195.039 408.104 195.039C406.736 195.039 405.74 195.508 404.949 196.631C404.373 195.596 403.436 195.039 402.293 195.039C401.16 195.039 400.213 195.508 399.52 196.377V195.234H397.137ZM418.494 205.195C420.135 205.195 421.434 204.619 422.498 203.438L420.857 202.002C420.164 202.773 419.441 203.076 418.543 203.076C417.244 203.076 416.307 202.422 416.072 200.898H422.771C422.83 200.615 422.859 200.332 422.859 199.961C422.859 197.783 421.756 195.039 418.338 195.039C415.467 195.039 413.553 197.119 413.553 200.156C413.553 203.164 415.379 205.195 418.494 205.195ZM418.318 197.041C419.588 197.041 420.398 197.852 420.516 199.18H416.082C416.307 197.715 417.137 197.041 418.318 197.041ZM287.762 227H297.771V224.764H290.965C292.059 222.791 297.068 221.219 297.068 217.156C297.068 214.559 295.652 212.996 292.801 212.996C289.627 212.996 287.85 215.359 287.85 218.113H290.33C290.33 216.629 290.789 215.213 292.615 215.213C293.934 215.213 294.48 216.014 294.48 217.156C294.48 221.141 287.762 221.707 287.762 226.717V227ZM304.5 227.195C308.201 227.195 309.939 223.543 309.939 220.115C309.939 216.678 308.162 212.977 304.363 212.977C300.184 212.977 298.904 217.156 298.904 220.096C298.904 223.016 300.223 227.195 304.5 227.195ZM304.441 224.861C302.205 224.861 301.346 222.303 301.346 220.096C301.346 217.879 302.205 215.359 304.363 215.359C306.521 215.359 307.381 217.859 307.381 220.076C307.381 222.244 306.541 224.861 304.441 224.861ZM313.758 216.941V227H316.199V213.201H313.855C313.855 214.432 312.752 215.057 311.082 215.057V216.941H313.758ZM323.641 227.195C326.561 227.195 328.68 224.92 328.68 222.361C328.68 219.539 326.57 217.742 323.738 217.742H323.357L326.336 213.201H323.504L319.891 219.139C318.914 220.73 318.621 221.521 318.621 222.469C318.621 225.105 320.838 227.195 323.641 227.195ZM323.66 224.881C322.225 224.881 321.043 223.758 321.043 222.381C321.043 221.004 322.225 219.881 323.66 219.881C325.076 219.881 326.258 221.004 326.258 222.381C326.258 223.758 325.076 224.881 323.66 224.881ZM335.115 220.438V222.234H340.818V220.438H335.115ZM347.273 227H357.283V224.764H350.477C351.57 222.791 356.58 221.219 356.58 217.156C356.58 214.559 355.164 212.996 352.312 212.996C349.139 212.996 347.361 215.359 347.361 218.113H349.842C349.842 216.629 350.301 215.213 352.127 215.213C353.445 215.213 353.992 216.014 353.992 217.156C353.992 221.141 347.273 221.707 347.273 226.717V227ZM364.012 227.195C367.713 227.195 369.451 223.543 369.451 220.115C369.451 216.678 367.674 212.977 363.875 212.977C359.695 212.977 358.416 217.156 358.416 220.096C358.416 223.016 359.734 227.195 364.012 227.195ZM363.953 224.861C361.717 224.861 360.857 222.303 360.857 220.096C360.857 217.879 361.717 215.359 363.875 215.359C366.033 215.359 366.893 217.859 366.893 220.076C366.893 222.244 366.053 224.861 363.953 224.861ZM373.27 216.941V227H375.711V213.201H373.367C373.367 214.432 372.264 215.057 370.594 215.057V216.941H373.27ZM383.133 227.195C385.75 227.195 388.23 225.838 388.23 223.016C388.23 221.482 387.498 220.301 386.102 219.539C386.951 218.865 387.527 217.938 387.527 216.736C387.527 214.383 385.408 212.996 383.133 212.996C380.848 212.996 378.729 214.363 378.729 216.756C378.729 217.898 379.246 218.826 380.154 219.539C378.885 220.291 378.035 221.443 378.035 223.035C378.035 225.818 380.496 227.195 383.133 227.195ZM383.172 218.621C381.951 218.621 381.17 217.898 381.17 216.805C381.17 215.623 382.088 215.057 383.172 215.057C384.314 215.057 385.174 215.701 385.174 216.844C385.174 217.977 384.334 218.621 383.172 218.621ZM383.113 225.076C381.668 225.076 380.447 224.383 380.447 222.898C380.447 221.502 381.57 220.721 383.113 220.721C384.637 220.721 385.77 221.502 385.77 222.918C385.77 224.383 384.568 225.076 383.113 225.076Z" fill="#06757A"></path><path d="M289.338 241.133C289.338 238.364 290.124 236.519 291.177 235.247H289.68C288.668 236.532 288.025 238.412 288.025 241.167C288.025 243.922 288.668 245.802 289.68 247.087H291.177C290.117 245.809 289.338 243.936 289.338 241.133ZM292.824 236.334V246H294.492V239.226L298.539 246H300.275V236.334H298.607V243.102L294.567 236.334H292.824ZM301.882 244.024C301.882 245.337 302.764 246.137 304.261 246.137C305.238 246.137 305.963 245.754 306.489 245.022L306.599 246H307.973V241.81C307.973 240.128 306.92 239.027 305.081 239.027C303.837 239.027 302.907 239.499 302.148 240.524L303.427 241.447C303.782 240.839 304.35 240.483 305.026 240.483C305.833 240.483 306.38 240.982 306.38 241.926H304.603C302.853 241.926 301.882 242.705 301.882 244.024ZM304.603 244.729C303.939 244.729 303.591 244.414 303.591 243.949C303.591 243.464 303.967 243.129 304.726 243.129H306.38C306.38 243.983 305.573 244.729 304.603 244.729ZM312.184 246.137C312.655 246.137 313.161 246.027 313.414 245.932V244.421C313.188 244.53 312.812 244.667 312.464 244.667C312.026 244.667 311.691 244.476 311.691 243.819V240.531H313.414V239.164H311.691V236.341H310.064V239.164H308.937V240.531H310.037V244.113C310.037 245.357 310.837 246.137 312.184 246.137ZM315.69 238.084C316.217 238.084 316.634 237.667 316.634 237.141C316.634 236.628 316.217 236.197 315.69 236.197C315.164 236.197 314.747 236.628 314.747 237.141C314.747 237.667 315.164 238.084 315.69 238.084ZM314.85 239.164V246H316.518V239.164H314.85ZM324.885 242.582C324.885 240.613 323.497 239.027 321.385 239.027C319.272 239.027 317.885 240.613 317.885 242.582C317.885 244.551 319.272 246.137 321.385 246.137C323.497 246.137 324.885 244.551 324.885 242.582ZM323.148 242.582C323.148 243.71 322.643 244.674 321.385 244.674C320.12 244.674 319.621 243.71 319.621 242.582C319.621 241.454 320.127 240.49 321.385 240.49C322.649 240.49 323.148 241.454 323.148 242.582ZM326.252 239.164V246H327.92V242.192C327.92 241.03 328.487 240.497 329.438 240.497C330.21 240.497 330.764 241.037 330.764 242.104V246H332.432V241.898C332.432 240.046 331.44 239.027 329.937 239.027C329.157 239.027 328.433 239.369 327.92 239.964V239.164H326.252ZM333.696 244.024C333.696 245.337 334.578 246.137 336.075 246.137C337.053 246.137 337.777 245.754 338.304 245.022L338.413 246H339.787V241.81C339.787 240.128 338.734 239.027 336.896 239.027C335.651 239.027 334.722 239.499 333.963 240.524L335.241 241.447C335.597 240.839 336.164 240.483 336.841 240.483C337.647 240.483 338.194 240.982 338.194 241.926H336.417C334.667 241.926 333.696 242.705 333.696 244.024ZM336.417 244.729C335.754 244.729 335.405 244.414 335.405 243.949C335.405 243.464 335.781 243.129 336.54 243.129H338.194C338.194 243.983 337.388 244.729 336.417 244.729ZM341.564 246H343.232V236.334H341.564V246ZM347.929 244.024C347.929 245.337 348.811 246.137 350.308 246.137C351.285 246.137 352.01 245.754 352.536 245.022L352.646 246H354.02V241.81C354.02 240.128 352.967 239.027 351.128 239.027C349.884 239.027 348.954 239.499 348.195 240.524L349.474 241.447C349.829 240.839 350.396 240.483 351.073 240.483C351.88 240.483 352.427 240.982 352.427 241.926H350.649C348.899 241.926 347.929 242.705 347.929 244.024ZM350.649 244.729C349.986 244.729 349.638 244.414 349.638 243.949C349.638 243.464 350.014 243.129 350.772 243.129H352.427C352.427 243.983 351.62 244.729 350.649 244.729ZM354.737 239.164L357.52 246H358.894L361.683 239.164H359.871L358.21 243.847L356.556 239.164H354.737ZM365.565 246.137C366.714 246.137 367.623 245.733 368.368 244.906L367.22 243.901C366.734 244.441 366.229 244.653 365.6 244.653C364.69 244.653 364.034 244.195 363.87 243.129H368.56C368.601 242.931 368.621 242.732 368.621 242.473C368.621 240.948 367.849 239.027 365.456 239.027C363.446 239.027 362.106 240.483 362.106 242.609C362.106 244.715 363.385 246.137 365.565 246.137ZM365.442 240.429C366.331 240.429 366.898 240.996 366.98 241.926H363.877C364.034 240.9 364.615 240.429 365.442 240.429ZM369.988 239.164V246H371.602V243.115C371.602 241.7 372.347 240.654 373.488 240.654C373.844 240.654 374.049 240.716 374.206 240.777V239.123C374.056 239.075 373.81 239.027 373.447 239.027C372.654 239.027 371.984 239.52 371.615 240.395V239.164H369.988ZM374.849 244.024C374.849 245.337 375.73 246.137 377.228 246.137C378.205 246.137 378.93 245.754 379.456 245.022L379.565 246H380.939V241.81C380.939 240.128 379.887 239.027 378.048 239.027C376.804 239.027 375.874 239.499 375.115 240.524L376.394 241.447C376.749 240.839 377.316 240.483 377.993 240.483C378.8 240.483 379.347 240.982 379.347 241.926H377.569C375.819 241.926 374.849 242.705 374.849 244.024ZM377.569 244.729C376.906 244.729 376.558 244.414 376.558 243.949C376.558 243.464 376.934 243.129 377.692 243.129H379.347C379.347 243.983 378.54 244.729 377.569 244.729ZM387.188 245.973C387.188 247.039 386.634 247.511 385.67 247.511C384.747 247.511 384.146 247.053 383.879 246.574L382.601 247.497C383.202 248.338 384.125 248.967 385.643 248.967C387.673 248.967 388.849 247.832 388.849 245.973L388.855 239.164H387.188V239.854C386.716 239.267 385.95 239.027 385.232 239.027C383.373 239.027 382.272 240.518 382.272 242.514C382.272 244.53 383.373 246 385.26 246C385.991 246 386.716 245.761 387.188 245.187V245.973ZM385.677 244.537C384.528 244.537 384.009 243.648 384.009 242.514C384.009 241.393 384.528 240.49 385.677 240.49C386.825 240.49 387.331 241.379 387.331 242.514C387.331 243.662 386.825 244.537 385.677 244.537ZM393.729 246.137C394.878 246.137 395.787 245.733 396.532 244.906L395.384 243.901C394.898 244.441 394.393 244.653 393.764 244.653C392.854 244.653 392.198 244.195 392.034 243.129H396.724C396.765 242.931 396.785 242.732 396.785 242.473C396.785 240.948 396.013 239.027 393.62 239.027C391.61 239.027 390.271 240.483 390.271 242.609C390.271 244.715 391.549 246.137 393.729 246.137ZM393.606 240.429C394.495 240.429 395.062 240.996 395.145 241.926H392.041C392.198 240.9 392.779 240.429 393.606 240.429ZM403.936 247.682H405.166V246.096C406.82 245.884 407.853 244.858 407.853 243.464C407.853 241.96 407.128 241.174 405.166 240.347V237.804C405.521 237.975 405.774 238.303 405.973 238.774L407.579 238.351C407.148 237.182 406.294 236.457 405.166 236.252V234.659H403.936V236.231C402.438 236.437 401.447 237.462 401.447 238.809C401.447 240.189 402.158 240.955 403.936 241.748V244.578C403.225 244.394 402.726 243.86 402.589 242.896L400.866 243.334C401.126 244.858 402.261 245.911 403.936 246.103V247.682ZM403.149 238.727C403.149 238.241 403.443 237.879 403.936 237.735V239.889C403.361 239.581 403.149 239.232 403.149 238.727ZM406.075 243.498C406.075 244.031 405.788 244.435 405.166 244.585V242.213C405.815 242.575 406.075 242.979 406.075 243.498ZM412.31 246.137C414.593 246.137 415.96 244.872 415.96 243.026C415.96 241.864 415.529 241.112 414.579 240.661C415.188 240.169 415.434 239.608 415.434 238.788C415.434 237.305 414.21 236.197 412.323 236.197C410.655 236.197 409.22 237.271 409.22 239.164H410.854C410.867 238.262 411.455 237.715 412.337 237.715C413.157 237.715 413.738 238.118 413.738 238.959C413.738 239.766 413.342 240.148 412.467 240.148H411.489V241.604H412.433C413.595 241.604 414.183 242.145 414.183 243.047C414.183 244.1 413.355 244.592 412.357 244.592C411.202 244.592 410.498 244.011 410.498 242.951H408.789C408.789 245.091 410.409 246.137 412.31 246.137ZM419.809 245.296C419.809 244.462 419.248 243.99 418.688 243.99C418.141 243.99 417.696 244.428 417.696 244.988C417.696 245.549 418.1 246 418.681 246H418.688C418.688 246.144 418.394 246.54 417.826 246.738V247.757C418.763 247.415 419.809 246.67 419.809 245.296ZM425.059 246.137C427.103 246.137 428.586 244.544 428.586 242.753C428.586 240.777 427.109 239.52 425.127 239.52H424.86L426.945 236.341H424.963L422.434 240.497C421.75 241.611 421.545 242.165 421.545 242.828C421.545 244.674 423.097 246.137 425.059 246.137ZM425.072 244.517C424.067 244.517 423.24 243.73 423.24 242.767C423.24 241.803 424.067 241.017 425.072 241.017C426.063 241.017 426.891 241.803 426.891 242.767C426.891 243.73 426.063 244.517 425.072 244.517ZM431.266 245.993H433.248L435.777 241.837C436.461 240.723 436.666 240.169 436.666 239.506C436.666 237.66 435.114 236.197 433.152 236.197C431.108 236.197 429.625 237.79 429.625 239.581C429.625 241.557 431.102 242.814 433.084 242.814H433.351L431.266 245.993ZM433.139 241.317C432.147 241.317 431.32 240.531 431.32 239.567C431.32 238.604 432.147 237.817 433.139 237.817C434.144 237.817 434.971 238.604 434.971 239.567C434.971 240.531 434.144 241.317 433.139 241.317ZM439.715 238.959V246H441.424V236.341H439.783C439.783 237.202 439.011 237.64 437.842 237.64V238.959H439.715ZM444.808 241.201C444.808 243.97 444.021 245.815 442.969 247.087H444.466C445.478 245.802 446.12 243.922 446.12 241.167C446.12 238.412 445.478 236.532 444.466 235.247H442.969C444.028 236.525 444.808 238.398 444.808 241.201Z" fill="#06757A"></path><path d="M586 98.0991L569.242 128.526V128.58H584.818V133.763C584.818 134.408 584.71 134.703 584.12 135.16L579.93 138.893V139H599.159V138.893L595.023 135.106C594.486 134.569 594.378 134.408 594.378 133.763V128.58H602.113L603.214 116.307H603.106L597.118 126.593C596.634 127.372 596.419 127.425 595.587 127.425H594.378V98.0991H586ZM571.148 127.425L584.818 102.906V127.425H571.148ZM605.765 135.052C605.765 137.657 607.914 139.457 610.411 139.457C613.043 139.457 615.138 137.657 615.138 135.052C615.138 132.313 613.043 130.433 610.411 130.433C607.914 130.433 605.765 132.313 605.765 135.052ZM649.217 127.586C649.217 122 644.786 118.214 637.804 117.516V117.408C643.927 116.119 647.713 113.326 647.713 107.579C647.713 101.295 642.101 97.5083 633.856 97.5083C628.619 97.5083 623.248 99.0122 619.649 100.812L624.188 111.366H624.295L629.264 99.7104C629.532 99.0659 629.774 98.8511 630.365 98.7168C630.821 98.6631 631.117 98.6631 631.627 98.6631C635.011 98.6631 637.401 101.993 637.401 107.176C637.401 112.87 634.957 116.656 629.317 117.865V117.999C636.058 118.858 638.609 122.403 638.609 128.231C638.609 134.354 635.36 138.463 631.009 138.463H629.72C628.915 138.463 628.565 138.194 628.27 137.496L623.946 125.975H623.839L619.193 137.604C622.792 138.893 627.438 139.591 631.412 139.591C643.282 139.591 649.217 134.623 649.217 127.586ZM662.484 98.3677C664.632 98.3677 664.981 100.758 664.981 106.236C664.981 111.581 664.632 114.024 662.484 114.024C660.389 114.024 660.094 111.581 660.094 106.183C660.094 100.758 660.389 98.3677 662.484 98.3677ZM662.484 97.5083C656.791 97.5083 654.212 101 654.212 106.183C654.212 111.419 656.791 114.911 662.484 114.911C668.312 114.911 670.863 111.419 670.863 106.236C670.863 100.946 668.312 97.5083 662.484 97.5083ZM679.054 122.994C681.202 122.994 681.551 125.384 681.551 130.863C681.551 136.207 681.202 138.651 679.054 138.651C676.959 138.651 676.664 136.207 676.664 130.809C676.664 125.384 676.959 122.994 679.054 122.994ZM679.054 122.135C673.36 122.135 670.782 125.626 670.782 130.809C670.782 136.046 673.36 139.537 679.054 139.537C684.881 139.537 687.433 136.046 687.433 130.863C687.433 125.572 684.881 122.135 679.054 122.135ZM686.466 98.4482L684.613 97.1592L655.287 138.543L657.14 139.886L686.466 98.4482Z" fill="#2B2B2B"></path><path d="M575.719 183.195C579.42 183.195 581.021 180.988 581.021 177.512V169.191H578.541V177.336C578.541 179.602 577.975 180.861 575.748 180.861C573.531 180.861 572.936 179.602 572.936 177.336V169.191H570.465V177.629C570.465 181.008 572.018 183.195 575.719 183.195ZM583.863 173.234V183H586.246V177.561C586.246 175.9 587.057 175.139 588.414 175.139C589.518 175.139 590.309 175.91 590.309 177.434V183H592.691V177.141C592.691 174.494 591.275 173.039 589.127 173.039C588.014 173.039 586.979 173.527 586.246 174.377V173.234H583.863ZM599.557 183.195C601.197 183.195 602.496 182.619 603.561 181.438L601.92 180.002C601.227 180.773 600.504 181.076 599.605 181.076C598.307 181.076 597.369 180.422 597.135 178.898H603.834C603.893 178.615 603.922 178.332 603.922 177.961C603.922 175.783 602.818 173.039 599.4 173.039C596.529 173.039 594.615 175.119 594.615 178.156C594.615 181.164 596.441 183.195 599.557 183.195ZM599.381 175.041C600.65 175.041 601.461 175.852 601.578 177.18H597.145C597.369 175.715 598.199 175.041 599.381 175.041ZM605.875 173.234V183H608.258V177.561C608.258 175.9 608.99 175.139 610.221 175.139C611.295 175.139 611.93 175.9 611.93 177.434V183H614.312V177.375C614.312 175.715 615.113 175.139 616.275 175.139C617.35 175.139 617.984 175.9 617.984 177.434V183H620.367V177.141C620.367 174.445 619 173.039 616.842 173.039C615.475 173.039 614.479 173.508 613.688 174.631C613.111 173.596 612.174 173.039 611.031 173.039C609.898 173.039 608.951 173.508 608.258 174.377V173.234H605.875ZM623.004 187.043H625.387V182.014C626.061 182.854 627.154 183.195 628.18 183.195C630.836 183.195 632.408 181.027 632.408 178.117C632.408 175.178 630.836 173.039 628.141 173.039C627.096 173.039 626.061 173.381 625.387 174.201V173.234H623.004V187.043ZM627.545 175.129C629.186 175.129 629.928 176.438 629.928 178.117C629.928 179.777 629.186 181.105 627.545 181.105C625.904 181.105 625.182 179.797 625.182 178.117C625.182 176.418 625.904 175.129 627.545 175.129ZM634.508 183H636.891V169.191H634.508V183ZM648.844 178.117C648.844 175.305 646.861 173.039 643.844 173.039C640.826 173.039 638.844 175.305 638.844 178.117C638.844 180.93 640.826 183.195 643.844 183.195C646.861 183.195 648.844 180.93 648.844 178.117ZM646.363 178.117C646.363 179.729 645.641 181.105 643.844 181.105C642.037 181.105 641.324 179.729 641.324 178.117C641.324 176.506 642.047 175.129 643.844 175.129C645.65 175.129 646.363 176.506 646.363 178.117ZM651.402 187.189H653.99L659.566 173.234H657.057L654.469 179.777L652.096 173.234H649.371L653.229 182.805L651.402 187.189ZM660.895 173.234V183H663.277V177.561C663.277 175.9 664.01 175.139 665.24 175.139C666.314 175.139 666.949 175.9 666.949 177.434V183H669.332V177.375C669.332 175.715 670.133 175.139 671.295 175.139C672.369 175.139 673.004 175.9 673.004 177.434V183H675.387V177.141C675.387 174.445 674.02 173.039 671.861 173.039C670.494 173.039 669.498 173.508 668.707 174.631C668.131 173.596 667.193 173.039 666.051 173.039C664.918 173.039 663.971 173.508 663.277 174.377V173.234H660.895ZM682.252 183.195C683.893 183.195 685.191 182.619 686.256 181.438L684.615 180.002C683.922 180.773 683.199 181.076 682.301 181.076C681.002 181.076 680.064 180.422 679.83 178.898H686.529C686.588 178.615 686.617 178.332 686.617 177.961C686.617 175.783 685.514 173.039 682.096 173.039C679.225 173.039 677.311 175.119 677.311 178.156C677.311 181.164 679.137 183.195 682.252 183.195ZM682.076 175.041C683.346 175.041 684.156 175.852 684.273 177.18H679.84C680.064 175.715 680.895 175.041 682.076 175.041ZM688.57 173.234V183H690.953V177.561C690.953 175.9 691.764 175.139 693.121 175.139C694.225 175.139 695.016 175.91 695.016 177.434V183H697.398V177.141C697.398 174.494 695.982 173.039 693.834 173.039C692.721 173.039 691.686 173.527 690.953 174.377V173.234H688.57ZM703.551 183.195C704.225 183.195 704.947 183.039 705.309 182.902V180.744C704.986 180.9 704.449 181.096 703.951 181.096C703.326 181.096 702.848 180.822 702.848 179.885V175.188H705.309V173.234H702.848V169.201H700.523V173.234H698.912V175.188H700.484V180.305C700.484 182.082 701.627 183.195 703.551 183.195ZM712.164 173.234V183H714.469V178.879C714.469 176.857 715.533 175.363 717.164 175.363C717.672 175.363 717.965 175.451 718.189 175.539V173.176C717.975 173.107 717.623 173.039 717.105 173.039C715.973 173.039 715.016 173.742 714.488 174.992V173.234H712.164ZM719.107 180.178C719.107 182.053 720.367 183.195 722.506 183.195C723.902 183.195 724.938 182.648 725.689 181.604L725.846 183H727.809V177.014C727.809 174.611 726.305 173.039 723.678 173.039C721.9 173.039 720.572 173.713 719.488 175.178L721.314 176.496C721.822 175.627 722.633 175.119 723.6 175.119C724.752 175.119 725.533 175.832 725.533 177.18H722.994C720.494 177.18 719.107 178.293 719.107 180.178ZM722.994 181.184C722.047 181.184 721.549 180.734 721.549 180.07C721.549 179.377 722.086 178.898 723.17 178.898H725.533C725.533 180.119 724.381 181.184 722.994 181.184ZM733.824 183.195C734.498 183.195 735.221 183.039 735.582 182.902V180.744C735.26 180.9 734.723 181.096 734.225 181.096C733.6 181.096 733.121 180.822 733.121 179.885V175.188H735.582V173.234H733.121V169.201H730.797V173.234H729.186V175.188H730.758V180.305C730.758 182.082 731.9 183.195 733.824 183.195ZM741.861 183.195C743.502 183.195 744.801 182.619 745.865 181.438L744.225 180.002C743.531 180.773 742.809 181.076 741.91 181.076C740.611 181.076 739.674 180.422 739.439 178.898H746.139C746.197 178.615 746.227 178.332 746.227 177.961C746.227 175.783 745.123 173.039 741.705 173.039C738.834 173.039 736.92 175.119 736.92 178.156C736.92 181.164 738.746 183.195 741.861 183.195ZM741.686 175.041C742.955 175.041 743.766 175.852 743.883 177.18H739.449C739.674 175.715 740.504 175.041 741.686 175.041ZM569.537 202.178C569.537 204.053 570.797 205.195 572.936 205.195C574.332 205.195 575.367 204.648 576.119 203.604L576.275 205H578.238V199.014C578.238 196.611 576.734 195.039 574.107 195.039C572.33 195.039 571.002 195.713 569.918 197.178L571.744 198.496C572.252 197.627 573.062 197.119 574.029 197.119C575.182 197.119 575.963 197.832 575.963 199.18H573.424C570.924 199.18 569.537 200.293 569.537 202.178ZM573.424 203.184C572.477 203.184 571.979 202.734 571.979 202.07C571.979 201.377 572.516 200.898 573.6 200.898H575.963C575.963 202.119 574.811 203.184 573.424 203.184ZM583.98 205.195C585.895 205.195 587.77 204.209 587.77 201.973C587.77 198.35 582.535 199.424 582.535 197.754C582.535 197.275 582.965 196.924 583.805 196.924C584.859 196.924 585.436 197.52 585.748 198.096L587.613 197.051C586.9 195.762 585.631 195.039 583.795 195.039C581.627 195.039 580.25 196.211 580.25 197.93C580.25 201.709 585.426 200.469 585.426 202.256C585.426 202.822 584.918 203.223 583.902 203.223C582.975 203.223 582.164 202.773 581.627 201.719L579.801 202.842C580.475 204.404 581.812 205.195 583.98 205.195ZM603.844 200.117C603.844 197.305 601.861 195.039 598.844 195.039C595.826 195.039 593.844 197.305 593.844 200.117C593.844 202.93 595.826 205.195 598.844 205.195C601.861 205.195 603.844 202.93 603.844 200.117ZM601.363 200.117C601.363 201.729 600.641 203.105 598.844 203.105C597.037 203.105 596.324 201.729 596.324 200.117C596.324 198.506 597.047 197.129 598.844 197.129C600.65 197.129 601.363 198.506 601.363 200.117ZM606.559 197.188V205H608.941V197.188H611.217V195.234H608.941V194.18C608.941 193.418 609.527 193.115 610.006 193.115C610.494 193.115 610.914 193.242 611.217 193.389V191.299C610.699 191.094 610.201 190.996 609.586 190.996C608.004 190.996 606.559 192.08 606.559 194.297V195.234H604.771V197.188H606.559ZM621.041 205.195C624.02 205.195 625.689 203.418 625.689 200.088V191.191H623.209V200.088C623.209 202.285 622.486 202.949 621.031 202.949C619.762 202.949 618.912 202.051 618.814 200.42L616.373 200.703C616.549 203.291 618.326 205.195 621.041 205.195ZM627.74 202.178C627.74 204.053 629 205.195 631.139 205.195C632.535 205.195 633.57 204.648 634.322 203.604L634.479 205H636.441V199.014C636.441 196.611 634.938 195.039 632.311 195.039C630.533 195.039 629.205 195.713 628.121 197.178L629.947 198.496C630.455 197.627 631.266 197.119 632.232 197.119C633.385 197.119 634.166 197.832 634.166 199.18H631.627C629.127 199.18 627.74 200.293 627.74 202.178ZM631.627 203.184C630.68 203.184 630.182 202.734 630.182 202.07C630.182 201.377 630.719 200.898 631.803 200.898H634.166C634.166 202.119 633.014 203.184 631.627 203.184ZM638.98 195.234V205H641.363V199.561C641.363 197.9 642.174 197.139 643.531 197.139C644.635 197.139 645.426 197.91 645.426 199.434V205H647.809V199.141C647.809 196.494 646.393 195.039 644.244 195.039C643.131 195.039 642.096 195.527 641.363 196.377V195.234H638.98ZM651.979 205.195C652.799 205.195 653.443 204.531 653.443 203.73C653.443 202.91 652.779 202.295 651.979 202.295C651.178 202.295 650.543 202.93 650.543 203.73C650.543 204.531 651.158 205.195 651.979 205.195ZM660.484 205H670.494V202.764H663.688C664.781 200.791 669.791 199.219 669.791 195.156C669.791 192.559 668.375 190.996 665.523 190.996C662.35 190.996 660.572 193.359 660.572 196.113H663.053C663.053 194.629 663.512 193.213 665.338 193.213C666.656 193.213 667.203 194.014 667.203 195.156C667.203 199.141 660.484 199.707 660.484 204.717V205ZM677.223 205.195C680.924 205.195 682.662 201.543 682.662 198.115C682.662 194.678 680.885 190.977 677.086 190.977C672.906 190.977 671.627 195.156 671.627 198.096C671.627 201.016 672.945 205.195 677.223 205.195ZM677.164 202.861C674.928 202.861 674.068 200.303 674.068 198.096C674.068 195.879 674.928 193.359 677.086 193.359C679.244 193.359 680.104 195.859 680.104 198.076C680.104 200.244 679.264 202.861 677.164 202.861ZM683.688 205H693.697V202.764H686.891C687.984 200.791 692.994 199.219 692.994 195.156C692.994 192.559 691.578 190.996 688.727 190.996C685.553 190.996 683.775 193.359 683.775 196.113H686.256C686.256 194.629 686.715 193.213 688.541 193.213C689.859 193.213 690.406 194.014 690.406 195.156C690.406 199.141 683.688 199.707 683.688 204.717V205ZM698.082 194.941V205H700.523V191.201H698.18C698.18 192.432 697.076 193.057 695.406 193.057V194.941H698.082Z" fill="#06757A"></path><path d="M571.338 220.133C571.338 217.364 572.124 215.519 573.177 214.247H571.68C570.668 215.532 570.025 217.412 570.025 220.167C570.025 222.922 570.668 224.802 571.68 226.087H573.177C572.117 224.809 571.338 222.936 571.338 220.133ZM574.824 215.334V225H576.492V218.226L580.539 225H582.275V215.334H580.607V222.102L576.567 215.334H574.824ZM583.882 223.024C583.882 224.337 584.764 225.137 586.261 225.137C587.238 225.137 587.963 224.754 588.489 224.022L588.599 225H589.973V220.81C589.973 219.128 588.92 218.027 587.081 218.027C585.837 218.027 584.907 218.499 584.148 219.524L585.427 220.447C585.782 219.839 586.35 219.483 587.026 219.483C587.833 219.483 588.38 219.982 588.38 220.926H586.603C584.853 220.926 583.882 221.705 583.882 223.024ZM586.603 223.729C585.939 223.729 585.591 223.414 585.591 222.949C585.591 222.464 585.967 222.129 586.726 222.129H588.38C588.38 222.983 587.573 223.729 586.603 223.729ZM594.184 225.137C594.655 225.137 595.161 225.027 595.414 224.932V223.421C595.188 223.53 594.812 223.667 594.464 223.667C594.026 223.667 593.691 223.476 593.691 222.819V219.531H595.414V218.164H593.691V215.341H592.064V218.164H590.937V219.531H592.037V223.113C592.037 224.357 592.837 225.137 594.184 225.137ZM597.69 217.084C598.217 217.084 598.634 216.667 598.634 216.141C598.634 215.628 598.217 215.197 597.69 215.197C597.164 215.197 596.747 215.628 596.747 216.141C596.747 216.667 597.164 217.084 597.69 217.084ZM596.85 218.164V225H598.518V218.164H596.85ZM606.885 221.582C606.885 219.613 605.497 218.027 603.385 218.027C601.272 218.027 599.885 219.613 599.885 221.582C599.885 223.551 601.272 225.137 603.385 225.137C605.497 225.137 606.885 223.551 606.885 221.582ZM605.148 221.582C605.148 222.71 604.643 223.674 603.385 223.674C602.12 223.674 601.621 222.71 601.621 221.582C601.621 220.454 602.127 219.49 603.385 219.49C604.649 219.49 605.148 220.454 605.148 221.582ZM608.252 218.164V225H609.92V221.192C609.92 220.03 610.487 219.497 611.438 219.497C612.21 219.497 612.764 220.037 612.764 221.104V225H614.432V220.898C614.432 219.046 613.44 218.027 611.937 218.027C611.157 218.027 610.433 218.369 609.92 218.964V218.164H608.252ZM615.696 223.024C615.696 224.337 616.578 225.137 618.075 225.137C619.053 225.137 619.777 224.754 620.304 224.022L620.413 225H621.787V220.81C621.787 219.128 620.734 218.027 618.896 218.027C617.651 218.027 616.722 218.499 615.963 219.524L617.241 220.447C617.597 219.839 618.164 219.483 618.841 219.483C619.647 219.483 620.194 219.982 620.194 220.926H618.417C616.667 220.926 615.696 221.705 615.696 223.024ZM618.417 223.729C617.754 223.729 617.405 223.414 617.405 222.949C617.405 222.464 617.781 222.129 618.54 222.129H620.194C620.194 222.983 619.388 223.729 618.417 223.729ZM623.564 225H625.232V215.334H623.564V225ZM629.929 223.024C629.929 224.337 630.811 225.137 632.308 225.137C633.285 225.137 634.01 224.754 634.536 224.022L634.646 225H636.02V220.81C636.02 219.128 634.967 218.027 633.128 218.027C631.884 218.027 630.954 218.499 630.195 219.524L631.474 220.447C631.829 219.839 632.396 219.483 633.073 219.483C633.88 219.483 634.427 219.982 634.427 220.926H632.649C630.899 220.926 629.929 221.705 629.929 223.024ZM632.649 223.729C631.986 223.729 631.638 223.414 631.638 222.949C631.638 222.464 632.014 222.129 632.772 222.129H634.427C634.427 222.983 633.62 223.729 632.649 223.729ZM636.737 218.164L639.52 225H640.894L643.683 218.164H641.871L640.21 222.847L638.556 218.164H636.737ZM647.565 225.137C648.714 225.137 649.623 224.733 650.368 223.906L649.22 222.901C648.734 223.441 648.229 223.653 647.6 223.653C646.69 223.653 646.034 223.195 645.87 222.129H650.56C650.601 221.931 650.621 221.732 650.621 221.473C650.621 219.948 649.849 218.027 647.456 218.027C645.446 218.027 644.106 219.483 644.106 221.609C644.106 223.715 645.385 225.137 647.565 225.137ZM647.442 219.429C648.331 219.429 648.898 219.996 648.98 220.926H645.877C646.034 219.9 646.615 219.429 647.442 219.429ZM651.988 218.164V225H653.602V222.115C653.602 220.7 654.347 219.654 655.488 219.654C655.844 219.654 656.049 219.716 656.206 219.777V218.123C656.056 218.075 655.81 218.027 655.447 218.027C654.654 218.027 653.984 218.52 653.615 219.395V218.164H651.988ZM656.849 223.024C656.849 224.337 657.73 225.137 659.228 225.137C660.205 225.137 660.93 224.754 661.456 224.022L661.565 225H662.939V220.81C662.939 219.128 661.887 218.027 660.048 218.027C658.804 218.027 657.874 218.499 657.115 219.524L658.394 220.447C658.749 219.839 659.316 219.483 659.993 219.483C660.8 219.483 661.347 219.982 661.347 220.926H659.569C657.819 220.926 656.849 221.705 656.849 223.024ZM659.569 223.729C658.906 223.729 658.558 223.414 658.558 222.949C658.558 222.464 658.934 222.129 659.692 222.129H661.347C661.347 222.983 660.54 223.729 659.569 223.729ZM669.188 224.973C669.188 226.039 668.634 226.511 667.67 226.511C666.747 226.511 666.146 226.053 665.879 225.574L664.601 226.497C665.202 227.338 666.125 227.967 667.643 227.967C669.673 227.967 670.849 226.832 670.849 224.973L670.855 218.164H669.188V218.854C668.716 218.267 667.95 218.027 667.232 218.027C665.373 218.027 664.272 219.518 664.272 221.514C664.272 223.53 665.373 225 667.26 225C667.991 225 668.716 224.761 669.188 224.187V224.973ZM667.677 223.537C666.528 223.537 666.009 222.648 666.009 221.514C666.009 220.393 666.528 219.49 667.677 219.49C668.825 219.49 669.331 220.379 669.331 221.514C669.331 222.662 668.825 223.537 667.677 223.537ZM675.729 225.137C676.878 225.137 677.787 224.733 678.532 223.906L677.384 222.901C676.898 223.441 676.393 223.653 675.764 223.653C674.854 223.653 674.198 223.195 674.034 222.129H678.724C678.765 221.931 678.785 221.732 678.785 221.473C678.785 219.948 678.013 218.027 675.62 218.027C673.61 218.027 672.271 219.483 672.271 221.609C672.271 223.715 673.549 225.137 675.729 225.137ZM675.606 219.429C676.495 219.429 677.062 219.996 677.145 220.926H674.041C674.198 219.9 674.779 219.429 675.606 219.429ZM686.633 225.137C688.677 225.137 690.16 223.544 690.16 221.753C690.16 219.777 688.684 218.52 686.701 218.52H686.435L688.52 215.341H686.537L684.008 219.497C683.324 220.611 683.119 221.165 683.119 221.828C683.119 223.674 684.671 225.137 686.633 225.137ZM686.646 223.517C685.642 223.517 684.814 222.73 684.814 221.767C684.814 220.803 685.642 220.017 686.646 220.017C687.638 220.017 688.465 220.803 688.465 221.767C688.465 222.73 687.638 223.517 686.646 223.517ZM692.71 225.137C693.284 225.137 693.735 224.672 693.735 224.111C693.735 223.537 693.271 223.106 692.71 223.106C692.149 223.106 691.705 223.551 691.705 224.111C691.705 224.672 692.136 225.137 692.71 225.137ZM698.828 225.137C700.66 225.137 702.396 224.187 702.396 222.211C702.396 221.138 701.884 220.311 700.906 219.777C701.501 219.306 701.904 218.656 701.904 217.815C701.904 216.168 700.421 215.197 698.828 215.197C697.229 215.197 695.745 216.154 695.745 217.829C695.745 218.629 696.107 219.278 696.743 219.777C695.854 220.304 695.26 221.11 695.26 222.225C695.26 224.173 696.982 225.137 698.828 225.137ZM698.855 219.135C698.001 219.135 697.454 218.629 697.454 217.863C697.454 217.036 698.097 216.64 698.855 216.64C699.655 216.64 700.257 217.091 700.257 217.891C700.257 218.684 699.669 219.135 698.855 219.135ZM698.814 223.653C697.803 223.653 696.948 223.168 696.948 222.129C696.948 221.151 697.734 220.604 698.814 220.604C699.881 220.604 700.674 221.151 700.674 222.143C700.674 223.168 699.833 223.653 698.814 223.653ZM705.138 220.201C705.138 222.97 704.352 224.815 703.299 226.087H704.796C705.808 224.802 706.45 222.922 706.45 220.167C706.45 217.412 705.808 215.532 704.796 214.247H703.299C704.358 215.525 705.138 217.398 705.138 220.201Z" fill="#06757A"></path><path d="M50.1577 51.2051C53.2852 51.2051 55.0386 49.3389 55.0386 45.8423V36.501H52.4341V45.8423C52.4341 48.1494 51.6753 48.8467 50.1475 48.8467C48.8145 48.8467 47.9224 47.9033 47.8198 46.1909L45.2563 46.4883C45.4409 49.2056 47.3071 51.2051 50.1577 51.2051ZM64.5234 51.2051C69.3018 51.2051 71.4961 47.6982 71.4961 43.7505C71.4961 39.8027 69.3018 36.2959 64.5234 36.2959C59.7451 36.2959 57.5508 39.8027 57.5508 43.7505C57.5508 47.6982 59.7451 51.2051 64.5234 51.2051ZM64.5234 48.8467C61.4062 48.8467 60.2578 46.4575 60.2578 43.7505C60.2578 41.0435 61.4062 38.6543 64.5234 38.6543C67.6406 38.6543 68.7891 41.0435 68.7891 43.7505C68.7891 46.4575 67.6406 48.8467 64.5234 48.8467ZM74.2646 36.501V51H76.7666V40.8384L82.8369 51H85.4414V36.501H82.9395V46.6523L76.8794 36.501H74.2646ZM89.1328 36.501V51H98.7715V48.5903H91.7373V44.8477H98.2896V42.4893H91.7373V38.8594H98.7715V36.501H89.1328ZM105.98 51.2051C109.036 51.2051 111.045 49.4722 111.045 47.001C111.045 42.0278 104.052 43.0635 104.052 40.1206C104.052 39.1875 104.832 38.5518 105.949 38.5518C107.057 38.5518 107.744 39.1055 108.215 40.1616L110.625 39.5259C109.856 37.4443 108.195 36.2959 106 36.2959C103.334 36.2959 101.468 37.9263 101.468 40.2949C101.468 45.3398 108.482 44.3247 108.482 47.2778C108.482 48.2622 107.703 48.9492 106.093 48.9492C104.544 48.9492 103.345 48.1289 103.088 46.2935L100.504 46.9497C100.945 49.5234 103.006 51.2051 105.98 51.2051ZM113.558 36.501V51H119.013C122.089 51 123.935 49.2568 123.935 46.7241C123.935 45.1348 123.104 43.894 121.709 43.2275C122.745 42.5098 123.217 41.5869 123.217 40.2539C123.217 37.9878 121.422 36.501 118.623 36.501H113.558ZM118.808 42.356H116.162V38.8286H118.582C120.028 38.8286 120.807 39.5874 120.807 40.582C120.807 41.792 120.089 42.356 118.808 42.356ZM119.197 48.6621H116.162V44.5913H119.074C120.489 44.5913 121.361 45.3706 121.361 46.6113C121.361 47.9854 120.582 48.6621 119.197 48.6621ZM132.753 51.2051C137.531 51.2051 139.726 47.6982 139.726 43.7505C139.726 39.8027 137.531 36.2959 132.753 36.2959C127.975 36.2959 125.78 39.8027 125.78 43.7505C125.78 47.6982 127.975 51.2051 132.753 51.2051ZM132.753 48.8467C129.636 48.8467 128.487 46.4575 128.487 43.7505C128.487 41.0435 129.636 38.6543 132.753 38.6543C135.87 38.6543 137.019 41.0435 137.019 43.7505C137.019 46.4575 135.87 48.8467 132.753 48.8467ZM152.594 40.6846C152.594 38.1519 150.636 36.501 147.703 36.501H142.494V51H145.099V44.8784H146.975L150.277 51H153.261L149.508 44.6016C151.384 44.0171 152.594 42.5508 152.594 40.6846ZM147.519 42.561H145.119V38.8594H147.519C149.067 38.8594 149.928 39.5464 149.928 40.7051C149.928 41.8638 149.087 42.561 147.519 42.561ZM161.464 51.2051C166.242 51.2051 168.437 47.6982 168.437 43.7505C168.437 39.8027 166.242 36.2959 161.464 36.2959C156.686 36.2959 154.491 39.8027 154.491 43.7505C154.491 47.6982 156.686 51.2051 161.464 51.2051ZM161.464 48.8467C158.347 48.8467 157.198 46.4575 157.198 43.7505C157.198 41.0435 158.347 38.6543 161.464 38.6543C164.581 38.6543 165.729 41.0435 165.729 43.7505C165.729 46.4575 164.581 48.8467 161.464 48.8467ZM173.769 49.9438C173.769 48.6929 172.928 47.9854 172.087 47.9854C171.267 47.9854 170.6 48.6416 170.6 49.4824C170.6 50.3232 171.205 51 172.077 51H172.087C172.087 51.2153 171.646 51.8101 170.795 52.1074V53.6353C172.2 53.1226 173.769 52.0049 173.769 49.9438ZM188.339 36.501H186.453L180.68 51H183.428L184.627 47.8521H190.113L191.303 51H194.112L188.339 36.501ZM187.365 40.1821L189.365 45.627H185.386L187.365 40.1821ZM206.161 40.6846C206.161 38.1519 204.202 36.501 201.27 36.501H196.061V51H198.665V44.8784H200.542L203.843 51H206.827L203.074 44.6016C204.951 44.0171 206.161 42.5508 206.161 40.6846ZM201.085 42.561H198.686V38.8594H201.085C202.633 38.8594 203.495 39.5464 203.495 40.7051C203.495 41.8638 202.654 42.561 201.085 42.561ZM211.646 36.501H209.042V51H211.646V47.0728L214.548 44.1299L218.958 51H222.208L216.312 42.3457L222.085 36.501H218.701L211.646 43.8428V36.501ZM230.134 36.501H228.248L222.475 51H225.223L226.422 47.8521H231.908L233.098 51H235.907L230.134 36.501ZM229.16 40.1821L231.16 45.627H227.181L229.16 40.1821ZM237.855 36.501V51H240.357V40.8384L246.428 51H249.032V36.501H246.53V46.6523L240.47 36.501H237.855ZM256.815 51.2051C259.871 51.2051 261.88 49.4722 261.88 47.001C261.88 42.0278 254.887 43.0635 254.887 40.1206C254.887 39.1875 255.667 38.5518 256.784 38.5518C257.892 38.5518 258.579 39.1055 259.05 40.1616L261.46 39.5259C260.691 37.4443 259.03 36.2959 256.835 36.2959C254.169 36.2959 252.303 37.9263 252.303 40.2949C252.303 45.3398 259.317 44.3247 259.317 47.2778C259.317 48.2622 258.538 48.9492 256.928 48.9492C255.379 48.9492 254.18 48.1289 253.923 46.2935L251.339 46.9497C251.78 49.5234 253.841 51.2051 256.815 51.2051ZM270.166 36.501H268.279L262.506 51H265.254L266.454 47.8521H271.939L273.129 51H275.938L270.166 36.501ZM269.191 40.1821L271.191 45.627H267.212L269.191 40.1821ZM281.937 51.2051C284.993 51.2051 287.002 49.4722 287.002 47.001C287.002 42.0278 280.009 43.0635 280.009 40.1206C280.009 39.1875 280.789 38.5518 281.906 38.5518C283.014 38.5518 283.701 39.1055 284.172 40.1616L286.582 39.5259C285.813 37.4443 284.152 36.2959 281.958 36.2959C279.292 36.2959 277.425 37.9263 277.425 40.2949C277.425 45.3398 284.439 44.3247 284.439 47.2778C284.439 48.2622 283.66 48.9492 282.05 48.9492C280.501 48.9492 279.302 48.1289 279.045 46.2935L276.461 46.9497C276.902 49.5234 278.963 51.2051 281.937 51.2051ZM294.56 36.501V51H297.062V40.1514L300.702 51H303.122L306.762 40.1514V51H309.264V36.501H305.654L301.912 47.8931L298.169 36.501H294.56ZM312.955 36.501V51H322.594V48.5903H315.56V44.8477H322.112V42.4893H315.56V38.8594H322.594V36.501H312.955ZM328.613 38.8594V51H331.217V38.8594H335.76V36.501H324.07V38.8594H328.613ZM347.911 40.6846C347.911 38.1519 345.952 36.501 343.02 36.501H337.811V51H340.415V44.8784H342.292L345.593 51H348.577L344.824 44.6016C346.701 44.0171 347.911 42.5508 347.911 40.6846ZM342.835 42.561H340.436V38.8594H342.835C344.383 38.8594 345.245 39.5464 345.245 40.7051C345.245 41.8638 344.404 42.561 342.835 42.561ZM356.78 51.2051C361.559 51.2051 363.753 47.6982 363.753 43.7505C363.753 39.8027 361.559 36.2959 356.78 36.2959C352.002 36.2959 349.808 39.8027 349.808 43.7505C349.808 47.6982 352.002 51.2051 356.78 51.2051ZM356.78 48.8467C353.663 48.8467 352.515 46.4575 352.515 43.7505C352.515 41.0435 353.663 38.6543 356.78 38.6543C359.897 38.6543 361.046 41.0435 361.046 43.7505C361.046 46.4575 359.897 48.8467 356.78 48.8467ZM377.483 36.501H375.596L369.823 51H372.571L373.771 47.8521H379.257L380.446 51H383.256L377.483 36.501ZM376.509 40.1821L378.508 45.627H374.53L376.509 40.1821ZM395.304 40.6846C395.304 38.1519 393.346 36.501 390.413 36.501H385.204V51H387.809V44.8784H389.685L392.987 51H395.971L392.218 44.6016C394.094 44.0171 395.304 42.5508 395.304 40.6846ZM390.229 42.561H387.829V38.8594H390.229C391.777 38.8594 392.638 39.5464 392.638 40.7051C392.638 41.8638 391.797 42.561 390.229 42.561ZM398.186 36.501V51H407.824V48.5903H400.79V44.8477H407.342V42.4893H400.79V38.8594H407.824V36.501H398.186ZM416.858 36.501H414.971L409.198 51H411.946L413.146 47.8521H418.632L419.821 51H422.631L416.858 36.501ZM415.884 40.1821L417.883 45.627H413.905L415.884 40.1821ZM433.715 51.2051C436.771 51.2051 438.781 49.4722 438.781 47.001C438.781 42.0278 431.788 43.0635 431.788 40.1206C431.788 39.1875 432.567 38.5518 433.685 38.5518C434.792 38.5518 435.479 39.1055 435.951 40.1616L438.36 39.5259C437.591 37.4443 435.93 36.2959 433.736 36.2959C431.07 36.2959 429.204 37.9263 429.204 40.2949C429.204 45.3398 436.217 44.3247 436.217 47.2778C436.217 48.2622 435.438 48.9492 433.828 48.9492C432.28 48.9492 431.08 48.1289 430.824 46.2935L428.24 46.9497C428.681 49.5234 430.742 51.2051 433.715 51.2051ZM441.293 36.501V51H443.795V40.8384L449.865 51H452.47V36.501H449.968V46.6523L443.908 36.501H441.293ZM462.078 36.501H460.191L454.418 51H457.166L458.366 47.8521H463.852L465.041 51H467.851L462.078 36.501ZM461.104 40.1821L463.103 45.627H459.125L461.104 40.1821ZM469.799 36.501V51H472.403V45.1245H474.331C477.366 45.1245 479.54 43.5967 479.54 40.8281C479.54 38.0903 477.387 36.501 474.454 36.501H469.799ZM474.362 42.7251H472.403V38.9004H474.362C476.074 38.9004 476.854 39.6284 476.854 40.8589C476.854 42.0894 476.095 42.7251 474.362 42.7251ZM485.846 51.2051C488.902 51.2051 490.912 49.4722 490.912 47.001C490.912 42.0278 483.918 43.0635 483.918 40.1206C483.918 39.1875 484.698 38.5518 485.815 38.5518C486.923 38.5518 487.61 39.1055 488.082 40.1616L490.491 39.5259C489.722 37.4443 488.061 36.2959 485.867 36.2959C483.201 36.2959 481.334 37.9263 481.334 40.2949C481.334 45.3398 488.348 44.3247 488.348 47.2778C488.348 48.2622 487.569 48.9492 485.959 48.9492C484.411 48.9492 483.211 48.1289 482.955 46.2935L480.371 46.9497C480.812 49.5234 482.873 51.2051 485.846 51.2051ZM493.424 36.501V51H496.028V44.8887H502.375V51H504.98V36.501H502.375V42.5303H496.028V36.501H493.424ZM514.731 51.2051C519.51 51.2051 521.704 47.6982 521.704 43.7505C521.704 39.8027 519.51 36.2959 514.731 36.2959C509.953 36.2959 507.759 39.8027 507.759 43.7505C507.759 47.6982 509.953 51.2051 514.731 51.2051ZM514.731 48.8467C511.614 48.8467 510.466 46.4575 510.466 43.7505C510.466 41.0435 511.614 38.6543 514.731 38.6543C517.849 38.6543 518.997 41.0435 518.997 43.7505C518.997 46.4575 517.849 48.8467 514.731 48.8467ZM527.169 38.8594V51H529.774V38.8594H534.316V36.501H522.627V38.8594H527.169Z" fill="#06757A"></path></svg> 