<?xml version="1.0" encoding="utf-8"?>
<!-- Generator: Adobe Illustrator 23.1.1, SVG Export Plug-In . SVG Version: 6.00 Build 0)  -->
<svg version="1.2" baseProfile="tiny" id="Layer_1" xmlns="http://www.w3.org/2000/svg" xmlns:xlink="http://www.w3.org/1999/xlink"
	 x="0px" y="0px" viewBox="0 0 75 59" xml:space="preserve">
<g>
	<path fill="#61EDEA" d="M0,39.4c0-1.2,0.9-2.1,2.1-2.1h8.3c1.2,0,2.1,0.9,2.1,2.1V59H0V39.4z"/>
	<path fill="#61EDEA" d="M15.6,20.7c0-1.2,0.9-2.1,2.1-2.1H26c1.2,0,2.1,0.9,2.1,2.1V59H15.6V20.7z"/>
	<path fill="#61EDEA" d="M31.2,30.1c0-1.2,0.9-2.1,2.1-2.1h8.3c1.2,0,2.1,0.9,2.1,2.1V59H31.2V30.1z"/>
	<path fill="#61EDEA" d="M46.9,14.5c0-1.2,0.9-2.1,2.1-2.1h8.3c1.2,0,2.1,0.9,2.1,2.1V59H46.9V14.5z"/>
	<path fill="#61EDEA" d="M62.5,2.1c0-1.2,0.9-2.1,2.1-2.1h8.3C74.1,0,75,0.9,75,2.1V59H62.5V2.1z"/>
</g>
</svg>
