<svg width="436.8" height="384" viewBox="0 0 3279 2880" xmlns="http://www.w3.org/2000/svg" xmlns:xlink="http://www.w3.org/1999/xlink"><path fill="#fff" d="M0 0h3279v2880H0z"/><defs><path id="a" d="M3005.41 2848.33l-13.22 3.49-30.95-31.47-78.08-65.28-36.78-39.86-51.75-19.07-.82-.1-2.15-.51-1.33-.92-.93-.11-1.12-.92-.72-1.02-1.84-4.61-.72-1.34-1.33-2.35-1.85-3.59-1.02-.82-.31 1.64-.51 2.56-.72 4.72-.41 4.91-.1.93-.72 2.97-2.56 7.07-.51 1.95-.41 2.76.1 4-14.55-2.15-9.33-.51-2.46-.41-5.63-2.36-2.36-.92-8.5-3.69-3.38-1.74-.82-.62-8-5.23-2.56-1.64-1.64-.92-6.56-3.28-8.71-5.43-10.14-5.43-7.89-4.1-9.02-5.12-2.66-.82-6.46-1.54-3.38-1.44-1.84-1.02-2.67-2.05-2.56-2.56-3.79-5.23-1.13-1.33-.82-.31h-.82l-2.35.51-2.36.93-1.33 1.02-1.64 1.64-5.23 6.97-3.69 4.92-4.92 6.97-6.76 9.63-3.59 5.02-2.35 3.38-2.67 4.51-.51.62-1.64 2.25-.51.52-1.13.71-4.1 1.34-6.45 2.15-2.05 1.12-2.05 2.05-.82.93-1.54 1.02-1.02.31h-.82l-3.28-1.23-3.28-1.85-8.09-4.61-1.54-.71-2.26-.82-5.53-1.75-1.23-.61-8.09-3.69-3.69-1.44-2.67-1.02-2.25-.82-3.08-.82-1.84-.41-1.33-.31-1.23-.2-1.23-.21-2.26-.2-1.74-.31-.51-28.08V2653l.51-7.07.31-2.67.61-6.25.11-1.64.1-4.1-.82-13.22-.92-13.12-.1-1.84-.52-6.66 1.03-.72 1.84-1.54 1.13-1.23 1.74-1.23 1.13-1.33 1.33-1.13 2.66-2.05-1.23-16.19.62-2.05.61-2.05 1.75-5.63-.21-5.23v-.21l-.72-4.2-.51-6.35.62-4.41-.52-4.2.21-4-3.28-6.35h1.84l7.08-.31h2.35l1.03-1.84.51-.82.51-1.54 1.03-3.59.82-2.87.1-.51 5.94-6.76 1.85-11.07 8.5-1.85 2.66-1.43-.4-2.05-1.85-8.92-1.64-7.99-.72-3.69-.82-3.38-2.25-10.15-.51-1.84-.72-2.67-.61-.51-1.54-5.64-.1-.41-.52-1.84-2.46-7.99-.3-1.13-1.44-.62-1.23-4.4-.41-.31-.3-.1-.31-.11 1.02-.51h.82l-.2-.51-.31-.82-.2-1.13-.93-3.48-.2-.72-1.64-6.66-.72-3.59-.51-3.48-.72-4.82-.2-1.64-.11-1.43-.2-1.64-.1-.93.3-.71-.3-3.49-.52-8.91-.2-2.77.1-.92v-7.28l-.41-11.79-.31-11.06-.1-2.67-.51-7.99-.21-4-.4-3.28-.72-5.23-.72-4.2-.31-2.05-.51-2.46-2.25-9.73-2.57-8.61-1.22-3.59-1.64-4.81-.93-2.46-1.12-2.77-1.75-3.79-3.99-8.61-2.15-3.9-1.64-2.97-1.54-2.46-2.36-3.69-.2-.3-3.38-5.03-1.54-2.25-1.13-1.54-.61-.72-3.79-4.71-1.85-2.05-1.23-1.43-1.13-1.23-2.15-2.46-.3-.41-2.67-2.87-2.66-2.67-.52-.51-.51-.51-.82 1.74-6.35-6.05-7.28-7.07-1.53-1.64-9.63-8.71-.82-1.13-5.13-5.43-1.43-1.64-4-4.3-2.97-4.51-.31-2.87-.2-1.54-2.46-2.56-.41-.51-3.69-3.79-5.53-5.95-15.17-15.99-3.38-3.58-6.97-7.48-2.46-2.57-1.94-2.05-2.46-2.25-1.95-1.95-1.95-1.74-9.53-10.35-2.76-2.87-7.59-7.69-3.07-3.07-3.28-3.59-4.2-5.12-4.41-6.05-3.17-4.92-6.46-11.48-1.74-3.28-8.3-15.06-12.71-23.37-11.37-21.11-2.46-4.71-2.97-4.82-3.59-5.64-3.99-5.74-5.23-7.07-6.56-8.61-3.28-3.69-2.56-2.46-1.54-1.33-1.53-1.23-1.75-1.33-3.38-2.25-12.6-6.77-10.86-5.74-6.05-3.38-3.48-2.46-.82-.51-3.08-2.46-3.89-3.79-1.13-1.34-2.05-2.25-3.69-5.12-3.48-5.33-2.77-4.2-1.12-1.64-.82-1.23-.51-.82-3.49-4.41-2.15-2.67-3.18-3.89-7.48-8.71-7.17-8.51-1.74-1.74-2.87-1.95-1.64-.92-5.43-3.28-1.54-1.23-4.3-5.12-.62-.72-3.89-4.51-4.51-5.33-2.77-3.18-1.64-1.94-4.4-5.02-4.51-5.23-4.61-5.33-4.41-5.12-4.51-5.23-4.3-5.02-4.92-5.64-4.71-5.53-5.13-5.95-5.22-5.94-2.87-2.97-.51-.72-.41-.51-1.03-1.03-1.12-1.23-6.87-9.84-4.92-6.97-3.18-4.4-1.63-1.54-1.44-1.13-1.13-.82-1.43-.71-1.54-.82-1.13-.82-1.63-1.44-2.16-1.33-4.3-2.87-4.61-3.18-6.97-4.71-5.02-3.18-7.99-5.12-6.66-4.2-6.87-4.31-6.15-4-6.04-4.1-6.05-4.09-6.04-4.21-5.84-3.99-5.74-4-.92-.72-6.15-4.3-8.92-6.46-2.66-1.84-3.08-1.95-3.27-2.36-5.23-3.69-5.74-4.1-5.63-3.99-5.54-4.1-5.74-4.2-6.76-4.72-4.1-2.77-4.2-3.07-1.64-1.13-5.53-3.89-3.08-2.15-3.07-1.95-4.2-2.67-2.26-1.12-3.58-1.95-2.77-.92-2.25-.62-7.69-2.66-4.2-2.05-2.05-1.13-3.48-2.05-.41-.31-.82-.61-2.15-1.54-.62-.92-.51-.31-1.23-.72-.72-.1-1.02-.1-1.44-.1-2.66.41-1.23.61-.82.41-1.33-4.3-.82-2.05-3.79-7.48-1.95-3.9-1.13-2.15-3.18-6.76-.2-.41-1.54-2.98-6.86-13.01-3.28-6.25-1.64-2.97-5.74-10.77-9.22-17.52-.62-1.13-1.84-3.58-2.97-5.64-9.22-17.42-8.2-15.27-.51-1.13-7.18-13.53-1.12-1.95-4.72-8.91-2.56-5.02-2.15-4-6.87-13.12-1.02-2.05-6.25-11.78-.92-1.75-2.87-5.12-5.64-10.35-4.61-8.2-1.54-2.46-4.71-7.58-.62-1.03-3.17-5.53-3.28-5.84-1.54-2.77-3.58-6.46-.41-.71-.62-1.13-.2-.21-.62-1.12-.82-1.44-.72-1.33-5.94-10.66-1.02-1.74-3.49-6.46-.92-1.43-2.36-4.31-1.33-2.46-.92-1.74-1.85-3.38-.3-1.03-.11-.41v-1.43l-3.68-6.87-22.85-40.68-3.18-5.74-3.79-6.56-1.44-2.67-5.94-10.55-2.87-4.82-1.33-1.95-.92-1.33-1.03-1.54-1.02-1.33-4.61-5.84-4.21-4.71-3.58-4.21-3.69-3.68-5.53-5.23-5.95-5.13-6.76-5.12-7.48-5.33-5.64-4.1-7.37-5.43-2.67-1.74-4.3-2.97-2.46-1.64-3.69-2.77-1.02-.72-6.67-4.61-2.25-1.64-1.84-1.43-1.95-1.54-1.23-.82-2.66-1.85-2.57-1.84-1.53-1.13-9.12-6.66-1.34-.92-7.68-5.43-5.12-3.69-3.28-2.05-6.36-3.69-5.12-2.56-10.35-4.51-11.27-4.72-5.23-2.25-12.39-5.23-6.46-2.66-18.75-7.9-5.64-2.25-3.48-1.02-4.31-.62-3.68-.31h-9.64l-4.1-.2-3.79-.82-3.99-1.54-2.67-1.33-1.74-1.13-.92-.72-1.85-1.43-1.84-1.74-2.66-3.39-1.75-2.66-1.53-3.18-.31-.61-4.1-10.56-.72-1.12-4.71-12.1-1.23-3.58-1.54-4.1-2.87-6.36-.82-2.15-4.91-12.2-1.23-3.07-9.12-22.96-.21-.71-.31-.52-3.48-9.63-1.54-3.69-2.25-5.94-3.49-8.82-.51-1.12-2.76-7.18-.62-1.54-1.23-2.76-.92-2.26-.62-1.53-1.94-4.92-2.15-5.44-10.15-25.82-3.59-9.22-.2-.41-.1-.41-1.03-2.36-.71-2.26-6.46-17.83-.31-.92-5.63-16.3-5.74-16.7-10.45-30.13 1.33-.82 1.13-1.03 1.02-.92.51-.31 2.05-.3.72-.62 2.36-2.66.71-.11 2.57.62 1.63.51 1.13-.2 1.95-1.13 1.74-1.13 3.18-1.84 2.05-.62.41-.51.2-.31.21-.92v-1.54l.3-1.02.52-.41.82-.41.82 6.25 3.58-1.54 17.22-12.81 2.15-1.23 3.59-1.23 1.63-1.33.72.1.41-.2.21-.1.71-.82.11-3.39.61-2.35.51-.93.82-.71 2.77-1.64 2.46 3.69.31.41 15.88 25.93 28.38 45.7.72 1.34.62.81 1.84-2.04 1.54-1.64 3.99-4.31 3.18-3.07 1.43-1.03 2.57-.82 2.25-.2 2.36.2.61.1 2.56.82 1.03.62.92-1.74.72-1.13.51-.1 1.23-2.05.72-.72 1.43-.92 1.54-.21 2.15.11 1.74-.41 1.03-.72 7.99-8.2.92-1.74.21-.41 1.23-3.49 1.53 1.03.62.2.82.21 4.61-3.79 3.18-4.82 1.12-1.74 2.15-4.1 2.36-4.2 2.46-1.64.72-.82.92-1.03-1.74-1.02-1.33.92h-.82l-.52-.21-.51-.3-1.23-.31-1.33.31-.92.2-1.44-.2-.82.2-.51.51-1.23 1.85-3.18 1.43-.51.31-.92 1.23-1.02 1.74-.62.21-1.13-.11-.61.21-1.33 1.54-.62.41-.82.41-.82.71-.2.52-.21.82-1.02 1.64v.92l.92 1.33.1.72-.51.61-1.13.82-.3.52-4.21-5.74-7.99-3.69-2.05-.21 3.28-8.09.92-3.08.82-1.23 3.9-5.12 12.7-17.12 13.84-18.65.71-1.23.82-1.95.82-2.46.31-3.17-3.69 1.53-3.38 1.85-1.95 1.54-.51.41-1.33.92-1.23.61-1.95.52-2.15-.11.82-1.64h.82l1.54-.3.41-.31 1.02-1.54.82-.41.82-.41 1.74-1.43 1.64-1.75.41-1.43.51-1.23 1.85-1.74 1.84-.82 1.34-1.23 1.12-.21h1.75l.92.21 4.71 1.64 1.64-.1.82.51 1.02 1.43.41.21.82.1.72-.61.1-.82-.3-.62-1.13-.31-.62-.3-.1-.31v-.31l.21-.2.3-.11h.31l.41.11.92.61.52.31 1.02.41 1.33.1.93-.2 1.64-.93 2.45-.82 1.34.11 1.94-.31 2.05-1.13 1.33-1.54 1.03.82.92.21h1.85l.92-.62.31.31 18.03-13.22 7.48-5.23 6.76 8.61.21-20.29 14.45-7.07 7.58-7.38 5.74-8.4 6.56-9.84 8.09-11.48 5.53-6.05 4.72-6.04 6.56-6.15 4.81-5.13 6.66-7.27 7.48-6.77 3.28-2.76 4.41-4.31 3.28-3.69 3.58-4.3 4.92-5.64 9.02-8.5 2.97-2.05 2.25-5.33 14.55-16.4 2.26-6.66 1.54-4.72 4.09-14.55 5.44-4.82 6.76-3.07 3.59-5.74 9.32-10.86 2.77-.41 7.48.92 14.34-1.13 4.2-.41 1.34.21.82-.21h3.89l1.13.11 3.48 1.33 1.54 1.02 1.43.62 1.33 1.43 1.64.72 2.67 1.95 2.15.71.61-.1.72-.41.62-.1.51.2.51.93.31 1.12.82 2.26 1.13 1.23 2.76 2.15.92 1.03 1.13 1.74.31-.21 1.02 1.03 1.34.71.41.31.2.41.1.82-.1.51-.61 1.13-.11 1.23 1.03 5.13.2 1.23.72 2.86-.41 3.69.1.62 2.67 5.33.2 1.33v.72l-.2.92-.41.62-1.85.51.31 1.13-.31 1.63.21 13.33-.41 1.33-1.64 3.28-1.03 2.66-.92 3.08v1.23l.21 1.02 1.12 2.05 1.95 2.05.21.11 1.33.92.3-.21.21-.31 1.02.21 1.13.61.1.11 1.64-.41.72-1.13 3.79-9.22 2.26-2.05 16.08-19.68 1.03-1.33.61-.72-1.74-3.38-1.43-2.46-2.05-4.2-1.33-2.98-1.54-3.68-.92-2.87-.21-1.13-.31-1.13-.3-1.54-.21-2.05-.1-2.35-.21-1.13-.2-1.13-.41-2.25-.92-3.38-.82-2.05-.72-2.36-.41-1.23-.2-.72-.21-1.74-.2-5.53v-.62l.51-.1 8.71-.21 3.28-.2 4.4-.21 7.38-.3 11.27-.52.92-.2 41.71-2.05 2.56-.21 14.14.21 15.78-1.44 7.79-.2 1.43-.41 12.71-.21 1.95 2.16.71.92.82 1.33 1.34 1.95 1.64 2.05 2.45 2.97 1.23 1.64.72.82 2.05 2.56 3.07 3.79 4 4.82 8.61 10.56 1.84 2.15-.41 1.64-.1 1.74.1 1.95.31 2.15.41 1.95.72 3.38.31 1.23 1.43 4.51 2.05 5.63 25.62-17.73 20.69-16.91 12.2-16.6 3.48-4.71 1.64-2.26 6.25-8.4 5.84-1.23.52-.31.41-.41.71-.71.62-.62.82-.51-1.23-2.15.92-3.39 2.46-3.48 3.38.82 1.23 1.64 2.97 1.33 2.05 3.18 1.85 3.18v4.09l-2.77 2.36-.21 3.18 15.99 7.89 2.46.82 27.15-4 25.52 23.57 1.64 1.34 2.97 2.05 1.54-1.23.82-.41.61-.21.62-.31 1.02-.1 2.05-.1 5.84.2 11.99-.3 6.35 7.38 6.97 3.38 10.86 10.04 6.66 6.76.72 4.51 5.22-.41 4.1.11 4 .51 4.3.92 10.46 3.28 2.45.92 8.71 4.1 1.95 1.13 3.28 2.25 3.07 2.36 1.75 1.03 4.3 2.05 9.73 3.89 2.87 1.64 14.14 9.43 1.85.92 7.58 2.97 2.67 1.75 3.68 3.17 3.9 4 3.07 3.28 2.87 2.56 14.45 11.07 1.13 1.13.71 1.43 1.64 4.31.82 2.35.72.72 3.79 1.74 9.63 4 4.31 1.54 2.46.61 2.87.51h1.64l8.19 1.34 5.43.92 5.84 1.33 8.1 2.05 2.15.41h2.56l4.82-.51.51-.21 2.56-1.02 2.67-1.74 3.89-3.59 2.15-2.46 2.77-3.49 2.25-3.38.62-.92 1.43-2.05 1.54-1.74 1.85-1.33 1.74-.82 1.64-1.03 2.15-1.95 3.99-3.28 3.18-3.58 1.85-2.05 4.09-3.59 1.64-1.43 2.16-2.46.41-.52 2.56-3.79 1.53-2.05 1.23-2.66.72-2.26.21-1.84-.52-6.66-.2-1.03 1.02-1.43 1.34-2.67.82-1.02 2.15-1.95 2.46-1.43 1.64-.62.51-.1 1.84-.21 3.49.11 19.47 18.65 4.4 8.91 2.77 19.89 1.95 13.83 11.98 83.32-16.9 15.27-9.12-3.38-1.74 2.05-.93.72-.71.82-1.03 1.33-1.13 1.74-1.12 1.23-.72 1.03-.1.82-.52 1.84-.92 2.05-.2 1.64.1 1.54.72 2.25-6.05 5.02 7.17 20.5 2.57 7.38-2.98 50.63 1.75.1 4.81 1.33 1.44.31 5.33 1.54 3.38 1.23 1.43.92 1.33 1.23 1.34.2.61-.1 1.33.41 1.23 1.13 1.33-.21 2.87.82.62-.1.72.41 1.94 2.46.62.1 1.02-.41.31.1.92.82.82-.1.62.41h1.33l.82.41h.92l2.25.82 3.39.72 2.15 1.33 3.48 1.54 1.44.82.2 1.95.1 1.22 1.64 6.15-.51 14.97-.1 2.46-3.49.51-1.33.2-1.12.52-1.34 1.64-6.25 12.7-.2.62v.61l.2 3.9-3.17.82-4.21.31v6.35l-.2 4.92-.41 6.97-.51 10.45v4.41l-.31 4.3-.82 8.92-1.54 9.22-4.1 22.75-6.04 34.54-3.79 20.7 5.53 6.56 6.15 1.33 7.89 1.75h1.23l1.23-.21 1.02-1.13.72-1.23 2.15-4.71 4.41-.92 6.35-4.21 66.61-43.86 5.43-3.89 4.1 5.94 2.05 6.56 3.07 7.58 5.43 18.35 9.32 11.17 9.02 6.76 5.02 3.9 7.48 1.33 7.28-.21 15.57-11.17 11.69-14.14 8.71-9.63 4.71-2.15 3.69-.62 5.63.51 8.51 4 10.45 2.87 6.15 5.43 1.84 11.38-6.25 19.16-7.99 18.45-6.66 13.12-3.18 16.5-1.43 13.11 1.84 22.55-.71 21.32.61 13.53 1.84 10.14 1.03 11.07 3.59 7.99 17.01 24.29 13.93-1.23 13.12-11.68 5.63-6.87 1.85-1.94 3.99-3.49 7.48-6.87 6.25-3.48 11.28-.82 11.16-.41 9.53-5.64 1.34-2.66 7.68-3.08 8.3-1.64 7.89 1.13 7.58 8.92 8.41 10.66 3.48 8.61 1.74 4.71.72 5.84-2.46 10.66-4.51 14.14-1.33 10.56.31 13.73 1.12 6.15 3.8 4.71 6.14 4.92 15.48 9.23 22.44 16.5 10.86 10.86 5.43 7.38 1.84 4.71.52 8.82-.82 11.47.61 14.15-1.33 13.53-1.84 6.66-4.31 5.84-4.51 5.43-10.04 21.73-.51 5.02v5.23l3.07 5.22 5.02.82 5.84-1.74 2.98-1.85 1.02-.3.41 2.66 4.2 1.74 1.54.72.72.41 1.64 1.13.92 1.02.41.82.31 1.03v.72l-.11.71-1.33 2.77-.82 1.54-1.54 2.05-4.2 6.15-4.92 8.91-2.15 2.97-.61 1.23-2.05 4.72-.31 1.64-.2 1.23-.11 3.28-.1 1.02-.41 3.08-.61 2.66-.93 2.36-1.02 2.05-2.36 3.79-1.74 2.66-2.15 4.31-2.15 5.64-.62 3.07-.41 1.74-.31 3.08-2.35 14.24-.31 1.64-7.17 9.64-5.02 6.86-6.87 9.63-1.33 1.85-10.25 14.86-4.3 6.56-3.79 5.74-.92 1.43-1.85 2.67-.61.92-.52.72-.71.71-.93 1.13-.71.92-.62.62-.82.72-2.15 2.05-.61.51-2.46 1.74-2.16 1.33-1.63.93-2.57 1.33.72.41.92.51 1.23.61.31.11 2.36.82 1.23.3.2.11 1.33-.93 5.74-3.79 1.13-.82 1.13-.71.82-.62.41-.31 6.45 5.33.82.72 15.17-1.33 2.35.51 1.23.2.21 1.13.92 1.95.72 2.87.51.82.2 1.64.21.92 1.02 1.54 1.54 7.58-2.15-4.4-1.64-2.05-1.95-1.95-1.74-1.13-.92-.41-3.49-1.23-1.53 5.13-2.56 6.96-.11.31-.61 1.74-1.44 3.49-1.33 2.36-3.07 3.99-2.97 3.28-6.25 6.77-.52.82-6.45-7.9.61 3.39v1.33l-.2 1.54-2.26 8.71-.92 2.56-.61 1.02-.52.62-1.12.61-.72.11-.82-.21-1.64-.72-.61-.2h-.62l-.51.2-4.51 3.8-3.18 2.87-1.53.92-1.54 1.33-4.71 4.3-2.57 2.67-2.56 2.97-4.81 6.56-1.54 1.64-.92.51-2.26 2.77-1.12 2.25-1.03 3.08-2.05 2.66-1.13.93-1.12.41-1.13.1-2.15-.1-.82.1-1.44.31-.92.71-1.23 1.33-.51.82-.51.62 3.38 3.28.72.92 1.02 1.13 6.97 7.99.92 1.03 2.05 2.25 2.97 3.28 4.51 5.43 1.54 1.85.82.92.51.92.51 1.44.41 1.84.62 2.46.1.62.61-1.54 1.34-4.61.92-2.15 1.84-3.18.41-1.54 7.99-5.33 3.9 4.72 3.99 5.02.41.41.41.2 1.23-.2 2.77-1.64 3.48-2.87 4.92-4.51 5.33-5.02 6.46-6.15.61-.31.72.1 2.56.41.72-.1.82-.31 1.23-.92 6.76-6.66 7.79 9.63 1.95 2.46.51 5.74 3.79 41.2 9.73 18.75 9.23-3.79 28.69-11.68 31.56 17.42 12.7 7.07 13.12 7.18 4-2.05 45.59-23.27 3.28-3.69 1.95 4 2.05 3.69 1.13 1.74 3.17 3.69 10.56 10.87 6.15 6.35 1.02 1.33.51.92.21.52.2.61 2.46 10.25 1.23 5.33.41 1.13.82 1.84 1.33 1.44.93.51 5.73 1.84 1.54-1.74 1.03-1.64 2.76-3.48.92-.93.62-.41 1.13-.3 6.96-20.19 18.14 13.94 1.33 10.35-2.66-.31-1.23.2-.92.52-.72.61-4.41 4.72-2.76 2.35-1.54 1.23-1.33.62-5.13 2.56-12.09 6.66-23.05 2.87-23.88 10.25-19.16 5.94-9.94-1.94-1.33 2.56 3.69.41 2.87.82 1.43.61 1.54.82 1.95 1.33 1.43 1.13.72.62 2.76 2.25 2.46 1.74 2.16 1.13 2.45.82 3.18.62 2.05.2h3.07l3.59-.31 9.74-2.05 4.71-1.02 3.48-.92 7.89-1.95 2.87-.72 8.51-3.07 1.74-.21 1.95.1 7.68 1.75 2.36-.31 5.43-1.03 3.48-.3 1.33.3 4.92 2.16 3.28.71 5.84.62 1.75-.1 1.84-.31 1.74 2.05 3.08 4.82 5.22 7.89 2.97 4.2-4.2 2.36-2.36 1.23-2.04 1.43-1.44 1.33-4.61 5.95-2.15 3.28-3.08 4.81-.51 1.34-.61 2.25-.72 4.1-.21 1.74.11 2.05 1.33 10.76.72 5.13.1 2.35-.31 1.75-1.13 3.48-.51 3.28-.41 1.95-1.84 4.4-.51 1.54-.41 2.15-.11 1.44.11 2.15.3 7.89v3.08l.11 3.69 1.53 9.42.21 3.59-.41 3.08-.31 1.02-1.84 3.89-1.03 1.54-.92 1.23-3.08 3.18-.71.82-.41 1.23-.21 1.64-.1 6.86v.93l.61 3.38.93 3.48.41 1.54.82 3.69 1.53 5.94 1.64 3.9 1.64 2.77.52.92 3.07 3.58 1.23.21 1.23-.21 1.33-.61.92-1.13 1.23-2.05 1.23-3.38 1.03-1.74.92-.92.92-.41 2.05-.41.82.1.72.51.92.92 39.45-54.62 1.43-1.74 2.05-2.97 2.36-2.05 4.1-5.03.41-.92 10.14 12.2 2.67 3.17 5.94 6.15 4.1 6.15 5.02 8.1.41.72.31.51.41 1.13.51 1.84.1 1.54-.2 5.12-1.13 7.59-.51 1.12-.72 1.23-.72.82-5.22 6.36-2.87 3.69-4.61 5.84-1.95 1.84-5.63 4.41-6.46 4.2-9.53 6.35-11.99 9.02-5.33 3.39-.41.3-15.67 8.51-1.34 1.23-.3.41-.41.41-.41 1.02-.21 1.13v2.26l.21 5.43.51 18.75.1 7.28.31 3.07.61 2.36 1.03 2.05 2.35 3.28 1.54 2.05.41.61.41.82.21 1.03.61 2.36.41 2.45 1.23 4.31 1.74 4.51 4.1 8.3 1.95 4.92 1.33 3.07 1.64 3.59 4.2 7.69 2.15 3.28 1.03 1.64 1.64 2.56.51.72.72 1.63.3 2.16v1.23l-2.05 8.5-.1 1.85.31 1.84 1.54 4.92 2.56-.72 1.02.11 1.54.51 3.18 1.33 4.71 3.28 4.2 2.77 2.56 1.43 1.85.41 3.17.31 1.75.41 1.02.21 1.95.71 1.74 1.23 2.15.92 3.08.72h1.64l2.04 18.65 11.69 108.43 19.87 118.27-.2 11.78-7.38 8.2-14.34 15.68-9.74 6.05.21.92.61 3.18-17.42 21.83-12.5 24.29-4.61 13.01-4.51 27.06-2.15.92-1.54 1.23-2.05 2.46-1.12.82-4 1.33-1.95.1-3.48-.61-1.23.1-.82.41-3.48 2.87-1.34.51-5.02.62-1.02.31-.92.82-2.46 2.56-1.03 1.43-.82.62-.92.2-.72-.1-2.87-1.13.82 3.79.52 6.26 2.35 24.08.82 10.66.51 3.07 2.46 12.1.52 3.38-.11 2.56-.2 7.38v2.15l.61 6.97.11 2.77-.21 2.25-.31 1.13-.41 1.43-1.64 3.8-5.12 9.01-.61-3.69-2.57 3.39-5.63 8.5-1.23 1.95-1.64 3.48-.72 2.36-.61 2.56-41.61-18.14-3.79-1.84-17.42-7.38-16.7-7.58-4.1 8.71-17.01 28.08-19.67 50.52z" stroke-linejoin="round"/></defs><use xlink:href="#a" fill="#9dc8ca" stroke="#6bb4d2" stroke-width="5.76"/><defs><path id="b" d="M1979.39 2070.99l-7.17 7.18-4.72 4.3-4.1-4.41-1.53-1.64-1.23-1.12-4.2-6.25-1.34-2.26-.61-1.33-7.79-12.5-3.79-6.05-4.2-6.46-4.1-5.53-7.99-9.33-2.26-2.56.62-.61 3.58-1.13 18.45-15.48 1.33-5.12 7.79-3.79.72-.31 1.64-.92 10.65-8.61 3.28-2.87 5.02 7.58 1.33 1.95 2.77 4 4 5.63 7.58 11.17 6.35-5.32 3.08-2.57 2.66-2.15 1.03-.92 2.15-1.85 1.43-1.12 1.54-.52h1.43l2.87.52 2.15.2.93-.2.71.71 9.43 6.26 1.95.71 2.46.21 7.89.92 12.09-.41-4.51.72-2.36.71-3.07.82-5.74 2.36-3.07 1.54-3.18 1.95-3.59 2.56-4.61 3.79-3.07 3.18-6.05 7.79-3.99 4.92-3.79 4.2-2.46 2.87-6.36 6.66-18.03 17.93z" stroke-linejoin="round"/></defs><use xlink:href="#b" fill="#9dc8ca" stroke="#6bb4d2" stroke-width="5.76"/><defs><path id="c" d="M1126.54 1698.05l-7.27 13.63-2.67 4.72-.92 1.54-2.97-7.18-3.18-7.17-1.33-2.77-5.33-11.07-5.22-8.61-1.44-2.76-1.33-3.18-.51-2.36-.11-1.64v-2.05l1.03-8.71.2-3.48v-2.77l-.2-4.2-.1-.21-.82-6.45-.72-3.49-1.74-6.97-2.05-6.55-1.44-3.49-2.05-3.28-5.32-7.27-1.13-1.64-1.33-2.67-.62-1.33-1.95-5.64-1.33-3.79-2.25-5.74-1.13-2.15-2.56-4.61-1.95-3.9-1.23-2.97-.41-2.46-.1-1.33.1-3.08 2.46-29.1.1-1.44.41-3.48 1.44-9.33.41-3.58.31-3.08-.11-4.61.11-3.69.41-2.15 3.68-10.76 1.23-4.82.52-3.89.2-4.92.1-2.15.72-7.79.92-11.17.72-.52-.2-1.23v-1.84l-1.03-1.95-1.33-7.99-.82-1.95-.72-1.84-1.64-4.31-1.33-2.56-.61.31-.31.1h-.72l-1.02-.62-14.86-8.19-2.15-1.03-1.23-.51-2.77-.92-2.97-.52-2.46-.1-2.46-.41-1.84-.72-10.56-5.32-14.65-7.49-3.59-1.43-3.58-.72-2.16-.2-7.58.1-5.94.2-1.54.11-5.33.82-15.88 3.89-5.43.72h-12.4l-5.33.1-3.07.1-6.25.31h-3.49l-1.94-.2-2.46-.31-3.59-1.23-1.64-.62-3.79-1.64-1.74-.82-.82-.2-1.33-.31-1.64-.2-2.67.2-1.33.41-1.84.62-14.04 7.27-.72.31-4.61 2.15-4.92 1.74-12.4 3.39-1.53.3-11.89 3.59-4.2 1.13-7.48 1.84-2.26.31-6.25 1.44-3.58.92-.93.31-3.48 1.74-6.56 3.58-.82.41-2.35.93-3.28 2.35-2.05 1.44-1.54 1.23-1.13 2.15-11.88-12.91-1.95-2.15-4.82-4.21-6.86-.61-5.13 2.15-2.35 3.28-.72 1.23-.82 1.13-.51.92-.72 1.54-.51 1.43-.51.72-.52.61-.3.31-.41.21-.72.1-.62.1h-.41l-.61-.1-.51-.21-.51-.2-.62-.21-.72-.3-.71-.11-.41-.1h-.62l-.72.1-.61.11-.62.2-3.89-9.94-1.43-3.79-14.86-13.94-.62.72-3.79-3.28-.82 1.43-7.99-5.94 1.23-12.3 17.83-21.83 15.16-11.58 4.31-1.43-2.05-1.34-5.23-3.48-1.43-1.02-3.38-1.95-11.07-6.46-5.12-2.97-3.08-1.74-2.05-1.13-5.63-3.38-8.2-4.31-3.69-1.94-4.71-2.98-12.71-9.01-15.57-11.58-1.75-1.44-22.33-17.01-5.13-4.41-7.17-7.79-3.28-3.99-5.02-6.05-1.13-1.13-1.84-.92-.62-.21-2.56-.1-5.53 1.23-2.97.92-2.16 1.03-2.04 1.23-1.64 1.33-9.64 8.4-2.87 2.36-1.53 1.23-6.25 4.31-1.95 1.43-4.61 4.72-4.71 4.91-1.64 1.54-2.98 2.36-1.84 1.02-2.46 1.23-1.02.31h-1.13l-.82-.41-1.23-.82-1.54-1.43-3.38-3.8-1.02-1.43-.93-.1-1.12-.41-1.85.1-1.02-.21-2.77.11-2.36.3-2.35.72-4.2 1.74-5.43.11-.93-.82-.82.2-2.05.82-2.05 1.54-2.15 1.84-2.56 1.03-2.46.51h-.92l-.51-.31-1.95-3.28-.92-.71-.21.1-1.43 2.66-1.13 2.57-1.43 3.07-1.03 2.46-.82 1.64-.41 1.84-8.19-6.45-4.31-3.08-1.43-.92-2.56-1.23-6.26-2.25-1.84-.31-1.84.1-4.51.82-2.56.1-2.98-.61-7.27-2.05-5.23-.92-3.99-.41-7.38-.11-2.97.11 18.13-41.3.11-4.51.3-8.1v-1.95l.11-.61v-.82l.1-.82.1-.62.1-.51.11-.51.2-.62.31-.92.2-.51.21-.41.31-.51.51-.62.51-.61.51-.62.72-.72.61-.61 1.54-1.64 2.26-2.36.71-.92.72-.82.51-.92.41-.72.31-.82.31-.82.2-.72.21-.92.2-.82.11-.72.1-1.02.2-1.23-52.15-87.11-2.05-3.49-1.64 7.79-.21 1.95.31 8.92.72 10.24.3 2.77.52 2.87.82 2.56 2.25 5.02.72 2.77.82 6.46.72 17.73v1.02l.1 7.48.1 4.82v2.97l-.31 7.28-.3 4-.41 2.76-.93 3.18-1.33 3.07-.51 1.23-1.23-.3-6.35.71-12.92.93-5.22-6.87-2.46-2.46-51.23-9.74-2.36-.4-6.46-1.44-3.17-.72 2.46-5.94 40.27-97.46-1.03-.21-2.25-.61-4.2-1.44-4.62-1.43-4.61-1.44-10.65-2.97-.93-.2-.61-.11-1.43-.2h-1.23l-1.13.2-.92.21-1.03.41-.92.51-1.23.72-.92.72-1.03.71-1.23.82-1.23.72-1.02.51-1.03.41-1.12.31-1.34.31-1.63.3-1.13.31-1.03.31-1.12.51-.72.41-.82.62-.72.51-2.76-5.02-6.67-12.51-5.22-8.19-3.08-4.31-3.48-4.2-8.71-10.15-4.4-5.74-4.92-5.73-3.59-4.21-2.05-2.97-1.64-2.87-.82-2.05-.61-2.35-.41-2.98-.31-6.35-.21-1.85-.1-1.02-.41-1.64-8.2-24.8-1.74-6.36-.41-1.74-.3-2.97v-3.07l.1-.72 2.46-24.09.71-7.48.31-2.35v-7.79l-.1-4.1-.62-13.32-.1-.72-.61-3.18-.72-2.15-1.02-1.85-.31-.41-1.23-1.33-1.23-1.43-.51-1.23-.31-1.44-.21-6.76-.3-2.05-.62-1.85-3.28-7.07-1.53-3.17-1.03-2.16-1.13-2.76-.3-1.64.1-.93.2-.92.52-1.23.61-1.12-10.96-14.87-73.27-99.61-.1-3.28-.51-3.28-.93-6.45-1.74-8.92-.2-2.56.2-2.16-.82.21-1.94-.51-1.64-.82-.72-.92-2.15-3.59-1.95-4.61-.92-1.54-1.33-1.03-.52-.82.41-1.02-6.25-63.54-2.66-16.91-4.1-.1-6.46-2.15-3.58-2.67-1.85-3.38.93-1.03 1.74-2.76 1.84-3.59 7.18-15.58 2.04-4.1 1.95-3.48 4.1-6.05 1.64-2.97 1.13-2.66 2.46-7.08.92-1.53 2.05-2.36-6.36-15.07-4.3-11.17-.51-2.05-.62-3.38-1.23-9.94-.92-10.96-.1-3.8v-6.15l.1-2.15 1.23-13.94.72-7.99.2-2.87.52-9.63.71-11.48-.1-2.36-.61-2.15-1.13-1.64-1.33-1.23-5.64-3.59-3.69-2.15-2.97-1.23-5.94-1.95-1.23-.3-7.58-1.85-2.05-.3-4.31-.21-3.07-.41-2.77-.82-11.17-4.1-2.87-1.02-5.63-2.16-4.41-1.74-7.99-3.28-5.12-2.15-1.95-1.23-2.36-2.25-.51-.62-.31 7.38-1.43 11.79-.82 4.2-13.73 9.94-5.02-.31-10.87-2.56-5.22-.51-6.87.82 3.28-9.23 2.97-7.79 2.77-6.66 2.66-5.63.31-.52 3.38-5.22 4.2-5.74 1.34-1.44 1.64-1.23 1.53-.82 2.05-.82 1.33-.3 3.69-.62 2.46-.61 2.05-.82 2.15-1.23.41-.31 1.54-1.74 1.13-1.44.72-1.33.71-1.64.62-2.36.51-2.87.61-5.43.62-2.66.31-1.03 3.48-13.32 1.84-6.56 1.54-6.25 1.64-4.41.82-2.15.92-1.85 4.41-1.22 1.64-.52 2.15-.71 4.61-1.54 4.31-1.54 2.25-.82 3.79-1.13 84.23-28.08 14.04 17.02 3.79 4.81 2.36 2.46 1.53 1.13 1.75.41-.41 2.87-.52 1.64-.92 2.77-.1.51-1.33 3.17-.52 1.85v2.05l1.03 4.3.72 4.72.51 3.28.51 1.53.82 1.34 3.79 3.38.82.92.51.72.52 1.54.51 3.28 1.02 10.45.72 7.38.1 2.25.31 5.33 1.13.21 3.58 1.53 4.41 2.36 3.79-7.89 8.3-18.45.62-1.33 5.53-11.68-.82-.52 1.64-1.33.51-1.02.41-.82.72-1.54 3.28-7.28 5.53-12.4 3.69-8.09.1-.21 4.1-8.5-28.69-17.63-1.54-1.13-1.64-1.43 2.26-2.98 1.02-1.64 2.77-3.89 4.2-7.28 1.74-.71 2.05-1.13 4.41-1.44 34.84-10.65 5.74-1.13.61-.1 1.95-.72 12.91-4.31 8.61-2.66 17.21-8.1 24.29-7.68 24.08-7.69 67.83-23.16 1.23-.41 6.76-1.95 2.26-.92 9.01-3.89 23.37-7.9 6.86-3.27 4.1.3 23.36-7.58 26.95-8.92 24.08-8.09 1.03-1.44.61-.61 1.34-1.03.41-.2-.62-1.13-1.43-1.33-1.75-1.44-7.17-6.15-13.93-11.68-7.59-6.46-5.12-4.2-4-4.4-2.15-3.18-.51-.92-.31-.62-.82-2.77-.72-4.2-1.84-5.02-1.95-5.12-.2-1.64.2-.82.72-.62 2.56-1.54.51-.61.11-.62-.21-.61-.82-1.23-.61-1.54-1.54-1.23.82-1.53.41-1.75.2-1.84-.2-6.36.1-1.84.41-2.56.72-2.56 1.33-2.57 1.13-1.43 1.23-1.03 1.74-.51 2.87-.2 6.76.3 2.26-.2 4.4-.72 4.2-1.02 1.23-.52 1.23 3.49.72 1.02 1.44 1.54 7.89 6.25 3.79 3.18 1.84 1.23.62.72 2.56 4.1 1.23 1.23 4.3 3.07 5.33 3.59 6.76 4.4 1.33 1.34 1.75 2.15 4.91 8.71 2.36 4 .92.92 1.64 1.13 6.56 2.87 5.74 3.17.92 1.03 3.08 4.61 4.09 5.33 1.13 1.84.72 2.05.41 1.44.61 4.71 4.1-1.13 6.77-2.56 2.45-.71-.41.51-.51 1.02-4.92 9.02-1.02 1.95-3.89 6.35-.31.82-.62 2.15-.1.62v1.84l2.26 18.45.71 8.4.62 8.51 28.07 9.22 4.51-.3 6.05-1.23 19.57-5.84 28.59 4.1.2.3 4.92-6.76 6.76-9.33 19.99-27.67 4.71-6.45 11.89-6.46.2-.41.82-1.64-9.43-5.33-3.38-1.95-2.05-1.12-1.94-1.13-3.28-2.15-5.84-4.51-3.49-3.28-2.76-2.87-1.75-1.95-7.78-9.63-1.23-1.64 9.42-3.49 5.64-2.15 21.72-6.66 37.3-13.12 51.75-17.63 8.4-2.46 10.86-3.58 20.29-5.74 8.2-3.79 16.39-4.72 2.26-.71 1.74-.62 1.02-.41 1.03-.31 1.13-.41.82-.2.51-.1.82-1.13 2.15 2.05 1.95 1.64 4.61 9.94.72 3.07.71 3.08.62 2.66 1.23 5.95 1.23 6.96.71 4.31 1.23 5.53 1.13 5.54h1.23l.82 10.66 1.95 7.27-.82-.1.61 3.28-.61 2.46.51 7.17.82 3.38.82 3.8 1.23 5.33 1.43 11.88 2.87 9.53 5.43 2.87 4.61.11 5.54-1.34 3.28-4.4 3.58-6.56 5.02-5.33 4.92-2.97 1.13-.82 6.35-1.33 7.28-1.95 10.55-7.18 2.67-6.66 2.25-5.22 1.64-6.26 2.25-8.09 4.51-10.56 3.59-7.38 6.25-9.63 9.63-12.61 9.22-11.99 14.04-18.44 10.25-13.43 6.97-9.02 5.22-8.4 4.1-4.71 3.38-1.64h5.43l5.33 3.68 1.33 1.03 4.21 6.56 2.05 5.84 3.38 6.87 1.94 10.66.41 7.89.21 6.97-1.23 13.83-2.15 11.58-3.49 12.71-1.43 8.61-.82 10.14-.82 2.57-.62 3.58-.1 7.69 2.36 5.23 5.84 2.25 7.38-.31 3.79-.82 3.79-.82 6.56-1.53 5.43-1.34 7.27.52 8.82.51 8.09.92 5.53.51 9.23.62 11.58-.82 13.32-.62 3.58 1.03 7.48 1.02 11.99 1.64 9.22 1.44 7.69 1.12 5.94.72 4.51-.2 1.85-.21 6.25.1 3.89-2.25 5.12-.72h5.13l4.3.72 5.33.82 4.92 3.59 4.4 3.38.82.72 5.13 6.45.3 1.64 1.95 4.92 2.77 8.51-.41 8.91.1 6.97-1.13 8.71-.51 9.54-1.64 4.61-1.95 5.12-4.3 9.43-1.54 3.89-4.3 10.56-.72 2.56-2.35 10.25-1.75 3.79-4.61 11.07-1.43 4.61-2.26 7.18-2.56 9.42-4.51 7.59.62 4.82 1.74 4.81 1.03 3.38 1.02 3.28.51 5.54 2.26 5.53 1.94 3.9 3.49 4.71 3.07 2.36 3.69 2.46 4.3 1.84 6.36 2.15 6.66 4 5.74 2.05 3.99.72 4.1.82 8.3.3 19.88-2.25 6.35.1 6.36-.51 3.17-.41 2.97-.31 4.51-.51 8-2.87 5.43-3.48 6.04-4.72 3.59-6.86.61-2.36.93-2.77.92-3.89 2.25-6.05 3.79-14.86.72-6.25-2.25-10.04-7.18-11.38-2.97-6.87-1.54-5.02.93-12.6.41-1.44 3.38-11.07.51-5.43 3.69-8.91 1.84-3.39 3.18-5.12 2.77-3.79 2.46-3.28 3.48-3.69 2.56-2.46 3.08-1.85 9.12-5.12 5.73-1.54 5.95-.82 5.84.93 4.81 1.84 4.72 4.92 3.28 6.56 1.74 4 1.74 7.27 2.77 6.87 3.17 8.09-.51 6.46-2.25 7.28-2.15 6.15v1.94l.1 1.54.71 5.74 3.39 9.43.82 2.56 5.84 7.69 2.76 3.07 8.51 9.33 7.99 12.5 6.87 10.76 4.91 10.04v4.1l1.13 8-.1 3.99 1.13 3.9 3.48 5.43 1.13 1.33 14.24 9.64 6.05 3.48 6.45 3.38 5.54 2.36 6.76 2.25 3.07.82 6.36.62 12.5-.31 1.84-.61 8.61-3.9 7.17-4.4 3.69-5.74 1.43-2.46 2.77-5.33 2.15-5.13 2.67-5.84 1.53-4.61 2.98-4 4.2-5.94 5.02-2.87 5.74-1.23h1.02l3.69.61 4.71 5.33 5.95 8.41.61 1.23 1.23 2.87 1.03 2.15.61 1.54.41 2.35v2.05l-.1 2.57-.31 2.56-.61 2.66-1.03 2.67-2.87 2.25-1.74 4.1-6.25 8.81-17.63 19.78-1.94 1.54-1.03 2.15-13.01 13.02-5.53 8.5 2.66 2.77-9.73 22.24-3.18 8.61-3.89 4.3-1.23 2.36-.62 1.33-4.92 4.2-.82 5.44 5.13 9.01 3.79 4.92 9.32 8.1 7.38 6.25 7.07 1.33 10.35 4 4.71.21 6.36-1.95 10.14-.72 1.85-.2 4.61 1.23 1.94 3.48.72.21h.62l.61.2 1.54 1.33 1.74 1.75 6.15 9.12 1.94 6.04-.71 3.38-1.23 5.74-5.02 11.17-5.33 7.9-6.97 6.86-14.04 8.92-2.25 3.07-.21 12.4-3.99 11.07-7.59 11.58-7.89 10.25-3.17 6.97-8.71 17.63-4.92 4.2-2.67 2.66-3.48 3.69-1.54 2.46-1.94 1.23-7.28 7.07-2.77 2.87-4.61 5.74-1.23 2.36-.3.41-1.85 3.18-.51.82-.61 2.35-.82 3.69-.52 5.43-.51 5.95-.41 5.33-.51 6.04 1.02 6.26 1.23 6.76 1.03 6.25 1.64 9.33 4.1 10.14.2.31 6.87 9.53 1.23.31 2.05.51 2.15.82 3.38 1.23-.21 20.29-6.76-8.61-7.48 5.23-18.03 13.22-.31-.31-.92.62h-1.85l-.92-.21-1.03-.82-1.33 1.54-2.05 1.13-1.94.31-1.34-.11-2.45.82-1.64.93-.93.2-1.33-.1-1.02-.41-.52-.31-.92-.61-.41-.11h-.31l-.3.11-.21.2v.31l.1.31.62.3 1.13.31.3.62-.1.82-.72.61-.82-.1-.41-.21-1.02-1.43-.82-.51-1.64.1-4.71-1.64-.92-.21h-1.75l-1.12.21-1.34 1.23-1.84.82-1.85 1.74-.51 1.23-.41 1.43-1.64 1.75-1.74 1.43-.82.41-.82.41-1.02 1.54-.41.31-1.54.3h-.82l-.82 1.64 2.15.11 1.95-.52 1.23-.61 1.33-.92.51-.41 1.95-1.54 3.38-1.85 3.69-1.53-.31 3.17-.82 2.46-.82 1.95-.71 1.23-13.84 18.65-12.7 17.12-3.9 5.12-.82 1.23-.92 3.08-3.28 8.09 2.05.21 7.99 3.69 4.21 5.74.3-.52 1.13-.82.51-.61-.1-.72-.92-1.33v-.92l1.02-1.64.21-.82.2-.52.82-.71.82-.41.62-.41 1.33-1.54.61-.21 1.13.11.62-.21 1.02-1.74.92-1.23.51-.31 3.18-1.43 1.23-1.85.51-.51.82-.2 1.44.2.92-.2 1.33-.31 1.23.31.51.3.52.21h.82l1.33-.92 1.74 1.02-.92 1.03-.72.82-2.46 1.64-2.36 4.2-2.15 4.1-1.12 1.74-3.18 4.82-4.61 3.79-.82-.21-.62-.2-1.53-1.03-1.23 3.49-.21.41-.92 1.74-7.99 8.2-1.03.72-1.74.41-2.15-.11-1.54.21-1.43.92-.72.72-1.23 2.05-.51.1-.72 1.13-.92 1.74-1.03-.62-2.56-.82-.61-.1-2.36-.2-2.25.2-2.57.82-1.43 1.03-3.18 3.07-3.99 4.31-1.54 1.64-1.84 2.04-.62-.81-.72-1.34-28.38-45.7-15.88-25.93-.31-.41-2.46-3.69-2.77 1.64-.82.71-.51.93-.61 2.35-.11 3.39-.71.82-.21.1-.41.2-.72-.1-1.63 1.33-3.59 1.23-2.15 1.23-17.22 12.81-3.58 1.54-.82-6.25-.82.41-.52.41-.3 1.02v1.54l-.21.92-.2.31-.41.51-2.05.62-3.18 1.84-1.74 1.13-1.95 1.13-1.13.2-1.63-.51-2.57-.62-.71.11-2.36 2.66-.72.62-2.05.3-.51.31-1.02.92-1.13 1.03-1.33.82 10.45 30.13 5.74 16.7 5.63 16.3.31.92 6.46 17.83.71 2.26 1.03 2.36.1.41.2.41 3.59 9.22 10.15 25.82 2.15 5.44-.31 1.64-1.43 2.56-5.44 9.43-4.3 7.48-3.89 6.66-17.12 28.8-.82 1.33-1.84 3.28-1.84 3.59-1.03 2.97-4.81 16.81 1.43.82 9.02 5.43 5.22 3.17 25.93 15.27 10.86 7.08-2.15 3.58-1.13 2.05-.82 1.33-2.87 6.46-1.33 2.97-3.48-2.05-.93 12.92-.82 1.94-2.25 4.61-2.46 4.82-1.74 3.9-1.64 3.07-.51 1.44v.82l.2 1.53.62 1.44 1.33 2.25 2.35 3.79 3.28 2.98-1.84 2.46-3.69 4.61-2.05 2.76-6.86-8.71-3.49-4.71-5.33-8.1-1.12-1.74-2.87-4.71-.72-1.03-.31-.51-4.2-7.07-2.36-3.59-1.84-3.18-1.23 11.17-.1.82-.21 1.64-.3 2.98-.41 3.89-1.64 14.04-.31 3.69-.1 1.33-.11 4.1v1.95l-.1 4.82v3.07l8.4.31 1.03.51.72.92.82 1.33 3.38 6.67.92 2.46 1.02 2.46 1.44 2.66 1.13 1.13 1.23.51 2.97.1 4.3 32.28-.82 8.1-3.48 2.26-5.43 3.58-2.16 1.33-2.35.82h-1.44l-2.05-.3-9.01-2.77-1.44 4.3-1.13 2.77-2.35 3.9-8.71 12.29-2.46 3.49-3.49 5.84-3.07 5.64-2.87 5.33-.51.92-.41.82-.41.72-1.95 3.48-6.35 11.79-.31.51-2.97 5.43-.51 1.02-7.48 14.04-.31.62-5.02 9.33-1.64 2.76-.51 1.03-4.92 10.04-.62 1.44-15.47 28.9-1.33 2.66-.62 2.15-.3 1.13-1.44 6.76-1.23 3.59-.61 1.85-1.95 4.09-2.87 6.67-.72 1.74-1.53 3.59-1.33 2.05-1.13.92-.62.31-2.15.71-1.64 5.54-1.02 1.23-1.54 2.66-5.94 13.53-7.79 15.58-.51.92-2.87 5.43-11.38 23.06-8.91 17.63-.62 1.23-7.58 14.55-4.81 9.12-1.54 2.87-4.3 8.1-5.85 9.73-.61 1.13-.61.92-.82 1.23-1.64 2.46-2.36 3.59-.72 1.23-3.17 4.81-12.3 19.99-5.12 8.09-4.31 7.38-6.04 10.56-1.23 2.56-4 7.69-4.61 8.91-2.67 5.23-.2.51-.51 1.03-1.64 3.17-.41.82-.31.72-1.84 3.79-2.46 4.82-1.13 2.26-.51.82-.82 1.74-11.17 20.39-.31.51z" stroke-linejoin="round"/></defs><use xlink:href="#c" fill="#6bacaf" stroke="#097d9b" stroke-width="5.76"/><defs><path id="d" d="M2113.83 2787.56l-2.56.92h-1.95l-59.23-.92-111.89-6.97-111.8-7.07-75.21-4.71-19.16-1.23-17.52-1.13-23.98 11.68-2.15.21-3.49-.31-2.46-.21-4.3-.92-6.35-1.33-5.23-.72-8.09-.31-3.79-.41-6.97-.61-3.28-.51-6.87-1.23-4.1-.93-18.24-3.99-4.61-1.13-1.12-.82-.31-.72-.31-1.23.72-3.28.61-4.92-.2-2.15-.41-1.94-1.03-2.46-1.12-1.54-1.03-1.33-2.05-2.46-3.69 3.69-3.68 4.4-1.54 2.05-1.13-1.12-3.07-3.18-1.95-1.85-5.74-5.33-5.53-5.63-1.74-1.13-4.92-1.23-3.38-.51-6.46-1.95-2.15-.51h-.92l-1.13.1-2.36.82-2.25.41-1.23-.1-1.44-.41-1.63-.62-2.77-1.43-2.05-1.85-2.56-2.25-8.2-7.07-1.74-1.44-.51-.51-.21-.72-.41-2.05-.2-.3-4-4.31-2.15-2.77-2.77-5.43-.31-1.94-.61-2.87-.41-.72-2.05-2.46-3.69-4.3-6.86-8.72-2.26-2.87-1.54-1.74-1.23-1.12-2.86-2.36 3.79-5.13 1.12-1.74 1.03-1.74 1.02-1.64 2.16-4.2 1.33-2.67 1.12-2.35 4.92-10.05 9.12-19.16 3.08-5.64.61-1.13 2.56-3.89 1.34-1.64 5.02-5.12 1.12-1.03 3.79-3.69 5.03-4.82 1.43-1.53 1.64-1.64 3.59-4.1 3.38-4.92 1.94-2.97 4-5.43 1.64-2.26 18.24-24.19 3.18-4.3 1.12-1.43 1.03-1.44 3.17-4.2 5.74-7.58-4.2-4.1-11.27-10.05-8.4-7.38-5.43-5.33-.21-.41-23.16-59.54.62-.61.92-1.13.41-.62.51-1.02.41-1.23.31-4.61-.41-6.77-.2-2.97-.41-5.22-1.23-17.73-.11-2.77v-1.95l.21-1.02.2-.31-.41-1.03-.2-2.46-.31-6.86-.51-2.67-.1-.61.51-.21 1.02-.1 3.08-2.66 7.68-7.28 3.38-4.41-1.74-2.76-9.01-11.17-3.08-3.28-8.5-8.2-2.05-2.05-2.87 3.69-3.28 3.48-5.84-6.97-7.69-8.81 8.3-10.35-11.27-11.27-14.24-13.94-6.97-6.87-16.7-16.09-6.56 2.36-5.74-7.59-1.84-2.05-9.12-9.32-1.03-.82-.71-.41-12.51-4.61.31-1.23 1.33-3.69.41-.82.62-1.44 1.23-2.15 1.64-2.87 1.74-1.95 2.15-2.05 8.2-5.53 8.2-7.07 1.23-.31.61-.82.62-.61.51-1.13.61-.92 1.54-3.9.72-2.87.3-3.69.11-.82-.11-5.33-.51-6.45v-.51l-.2-5.03-.21-4.1-.2-3.27-.41-4.1-.21-1.64h-2.66l-4.41-.52-5.74-.82-13.73-1.94-6.15-.82-1.02-.21-9.12-1.33-2.97-.72-2.36-1.02-1.84-1.33-3.08-2.57-2.66-2.25-2.56-1.54-.41-.31-2.46-.92-2.36-.61-4.61-.72-2.36-.31-3.07-.31h-3.18l-1.02.11-1.13.2-2.56.82-5.02 2.46-.41.21-2.56 1.33-.62.31-3.07 1.64-4 2.05-5.12 2.86-2.05 1.44-2.87 2.56-.41.31-.31.31-1.53-2.36-41.4-25.31-45.09-27.67-20.49-44.07-1.23-3.08-10.15 18.04-4.91 7.69-5.43 7.38-3.8 5.22-2.66 4-1.84 2.97-.72 1.23-1.64 3.07-5.33 11.28-3.48 8.2-9.84-7.38-10.35 18.65-5.64-3.69-1.64-4.71-6.04-17.22-1.95-8.51-6.86 8.61-1.85-6.35-.2-.51-1.34-4.51v-1.34l-.1-.51-1.23-2.87-1.84-5.94-1.64-5.74 4-1.54.41-.2-.11-.62-.61-4.2-1.33-4.51-.11-1.84 1.95-1.34 2.25-1.53 9.23-6.46 15.57-10.76 1.95-1.33 1.02-.72 12.09-8.51 8-5.63 14.24-10.15 3.18-2.36 6.66-5.53 3.07-1.23-.51-1.33-.92-2.16-.62-1.94-.41-2.46.1-1.64.21-.92.51-1.34.82-1.33 2.15-2.56 5.43-6.56 1.23-2.05 1.23-2.87.82-2.97.41-1.64 1.95-9.63 1.54-7.79.2-1.13.72-4 .61-3.79 1.13-7.69.21-1.64.3-6.86-.1-1.64-.31-2.56-.51-2.46-.92-2.67-2.56-6.35-.41-2.77-.1-1.33.2-1.74 2.77-9.53 1.53-3.39 2.46-3.69.62-.82 3.48-3.38 5.13-4.61.82-.82 3.58-3.79 1.44-2.05.92-1.95 3.58-8.5 2.36-5.13 3.9-7.38 4.4-8.4 3.79-7.17 2.97-5.74 5.13-10.56 3.17-6.05 1.64-3.48 6.66-13.02 1.34-3.07 3.17-10.35 1.34-5.54.1-1.23v-1.02l-.21-2.56-1.23-5.33-.71-1.95-1.23-1.64-2.26-2.05-3.28-2.25-1.84-.92-4.1-1.44-1.33-.31-1.13-.1.1-1.64-9.42-1.74-6.36-1.13-18.34-2.05-2.87 2.97-.61.62-.41.61-.72.41-.92.41-1.23.93h-.92l-.93.3-1.33.21-2.36 1.02-2.86.82-1.95.72-.72.31-4 1.84-.41.21-4.61 2.56-1.02.72-1.54.71-2.56 2.16-3.89 3.38-2.97 2.97-2.87 2.77-.82.71-3.28 4.51-2.77 4.21-.72.51-.3.1-.72-.2-.82.2-.62.51-1.43.31-1.33.92-2.36 2.36-2.15 1.54-1.95 1.64-.92.3-2.97.52-5.95 3.17-2.86-3.38-3.8-4.61-2.76-3.59-1.23-1.33-2.15-2.15-1.54-1.03-1.44-.61-1.74-.51-6.25-1.13-10.65-2.56-5.33-1.85-10.05-4.1-.4-.2-1.75-.62-6.96-3.48-4.82-2.46-5.02-3.18-2.46-1.64-2.67-2.15 1.03-5.23 1.95-12.81.61-5.22.41-4.31.1-2.05-.3-4.1-1.03-4.3-1.54-4.61-.61-1.64-.51-1.64-5.23-14.15-.82-2.15-2.15-5.63.92-1.54 2.67-4.72 7.27-13.63.31-.51 11.17-20.39.82-1.74.51-.82 1.13-2.26 2.46-4.82 1.84-3.79.31-.72.41-.82 1.64-3.17.51-1.03.2-.51 2.67-5.23 4.61-8.91 4-7.69 1.23-2.56 6.04-10.56 4.31-7.38 5.12-8.09 12.3-19.99 3.17-4.81.72-1.23 2.36-3.59 1.64-2.46.82-1.23.61-.92.61-1.13 5.85-9.73 4.3-8.1 1.54-2.87 4.81-9.12 7.58-14.55.62-1.23 8.91-17.63 11.38-23.06 2.87-5.43.51-.92 7.79-15.58 5.94-13.53 1.54-2.66 1.02-1.23 1.64-5.54 2.15-.71.62-.31 1.13-.92 1.33-2.05 1.53-3.59.72-1.74 2.87-6.67 1.95-4.09.61-1.85 1.23-3.59 1.44-6.76.3-1.13.62-2.15 1.33-2.66 15.47-28.9.62-1.44 4.92-10.04.51-1.03 1.64-2.76 5.02-9.33.31-.62 7.48-14.04.51-1.02 2.97-5.43.31-.51 6.35-11.79 1.95-3.48.41-.72.41-.82.51-.92 2.87-5.33 3.07-5.64 3.49-5.84 2.46-3.49 8.71-12.29 2.35-3.9 1.13-2.77 1.44-4.3 9.01 2.77 2.05.3h1.44l2.35-.82 2.16-1.33 5.43-3.58 3.48-2.26.82-8.1-4.3-32.28-2.97-.1-1.23-.51-1.13-1.13-1.44-2.66-1.02-2.46-.92-2.46-3.38-6.67-.82-1.33-.72-.92-1.03-.51-8.4-.31v-3.07l.1-4.82v-1.95l.11-4.1.1-1.33.31-3.69 1.64-14.04.41-3.89.3-2.98.21-1.64.1-.82 1.23-11.17 1.84 3.18 2.36 3.59 4.2 7.07.31.51.72 1.03 2.87 4.71 1.12 1.74 5.33 8.1 3.49 4.71 6.86 8.71 2.05-2.76 3.69-4.61 1.84-2.46-3.28-2.98-2.35-3.79-1.33-2.25-.62-1.44-.2-1.53v-.82l.51-1.44 1.64-3.07 1.74-3.9 2.46-4.82 2.25-4.61.82-1.94.93-12.92 3.48 2.05 1.33-2.97 2.87-6.46.82-1.33 1.13-2.05 2.15-3.58-10.86-7.08-25.93-15.27-5.22-3.17-9.02-5.43-1.43-.82 4.81-16.81 1.03-2.97 1.84-3.59 1.84-3.28.82-1.33 17.12-28.8 3.89-6.66 4.3-7.48 5.44-9.43 1.43-2.56.31-1.64 1.94 4.92.62 1.53.92 2.26 1.23 2.76.62 1.54 2.76 7.18.51 1.12 3.49 8.82 2.25 5.94 1.54 3.69 3.48 9.63.31.52.21.71 9.12 22.96 1.23 3.07 4.91 12.2.82 2.15 2.87 6.36 1.54 4.1 1.23 3.58 4.71 12.1.72 1.12 4.1 10.56.31.61 1.53 3.18 1.75 2.66 2.66 3.39 1.84 1.74 1.85 1.43.92.72 1.74 1.13 2.67 1.33 3.99 1.54 3.79.82 4.1.2h9.64l3.68.31 4.31.62 3.48 1.02 5.64 2.25 18.75 7.9 6.46 2.66 12.39 5.23 5.23 2.25 11.27 4.72 10.35 4.51 5.12 2.56 6.36 3.69 3.28 2.05 5.12 3.69 7.68 5.43 1.34.92 9.12 6.66 1.53 1.13 2.57 1.84 2.66 1.85 1.23.82 1.95 1.54 1.84 1.43 2.25 1.64 6.67 4.61 1.02.72 3.69 2.77 2.46 1.64 4.3 2.97 2.67 1.74 7.37 5.43 5.64 4.1 7.48 5.33 6.76 5.12 5.95 5.13 5.53 5.23 3.69 3.68 3.58 4.21 4.21 4.71 4.61 5.84 1.02 1.33 1.03 1.54.92 1.33 1.33 1.95 2.87 4.82 5.94 10.55 1.44 2.67 3.79 6.56 3.18 5.74 22.85 40.68 3.68 6.87v1.43l.11.41.3 1.03 1.85 3.38.92 1.74 1.33 2.46 2.36 4.31.92 1.43 3.49 6.46 1.02 1.74 5.94 10.66.72 1.33.82 1.44.62 1.12.2.21.62 1.13.41.71 3.58 6.46 1.54 2.77 3.28 5.84 3.17 5.53.62 1.03 4.71 7.58 1.54 2.46 4.61 8.2 5.64 10.35 2.87 5.12.92 1.75 6.25 11.78 1.02 2.05 6.87 13.12 2.15 4 2.56 5.02 4.72 8.91 1.12 1.95 7.18 13.53.51 1.13 8.2 15.27 9.22 17.42 2.97 5.64 1.84 3.58.62 1.13 9.22 17.52 5.74 10.77 1.64 2.97 3.28 6.25 6.86 13.01 1.54 2.98.2.41 3.18 6.76 1.13 2.15 1.95 3.9 3.79 7.48.82 2.05 1.33 4.3.82-.41 1.23-.61 2.66-.41 1.44.1 1.02.1.72.1 1.23.72.51.31.62.92 2.15 1.54.82.61.41.31 3.48 2.05 2.05 1.13 4.2 2.05 7.69 2.66 2.25.62 2.77.92 3.58 1.95 2.26 1.12 4.2 2.67 3.07 1.95 3.08 2.15 5.53 3.89 1.64 1.13 4.2 3.07 4.1 2.77 6.76 4.72 5.74 4.2 5.54 4.1 5.63 3.99 5.74 4.1 5.23 3.69 3.27 2.36 3.08 1.95 2.66 1.84 8.92 6.46 6.15 4.3.92.72 5.74 4 5.84 3.99 6.04 4.21 6.05 4.09 6.04 4.1 6.15 4 6.87 4.31 6.66 4.2 7.99 5.12 5.02 3.18 6.97 4.71 4.61 3.18 4.3 2.87 2.16 1.33 1.63 1.44 1.13.82 1.54.82 1.43.71 1.13.82 1.44 1.13 1.63 1.54 3.18 4.4 4.92 6.97 6.87 9.84 1.12 1.23 1.03 1.03.41.51.51.72 2.87 2.97 5.22 5.94 5.13 5.95 4.71 5.53 4.92 5.64 4.3 5.02 4.51 5.23 4.41 5.12 4.61 5.33 4.51 5.23 4.4 5.02 1.64 1.94 2.77 3.18 4.51 5.33 3.89 4.51.62.72 4.3 5.12 1.54 1.23 5.43 3.28 1.64.92 2.87 1.95 1.74 1.74 7.17 8.51 7.48 8.71 3.18 3.89 2.15 2.67 3.49 4.41.51.82.82 1.23 1.12 1.64 2.77 4.2 3.48 5.33 3.69 5.12 2.05 2.25 1.13 1.34 3.89 3.79 3.08 2.46.82.51 3.48 2.46 6.05 3.38 10.86 5.74 12.6 6.77 3.38 2.25 1.75 1.33 1.53 1.23 1.54 1.33 2.56 2.46 3.28 3.69 6.56 8.61 5.23 7.07 3.99 5.74 3.59 5.64 2.97 4.82 2.46 4.71 11.37 21.11 12.71 23.37 8.3 15.06 1.74 3.28 6.46 11.48 3.17 4.92 4.41 6.05 4.2 5.12 3.28 3.59 3.07 3.07 7.59 7.69 2.76 2.87 9.53 10.35 1.95 1.74 1.95 1.95 2.46 2.25 1.94 2.05 2.46 2.57 6.97 7.48 3.38 3.58 15.17 15.99 5.53 5.95 3.69 3.79.41.51 2.46 2.56.2 1.54.31 2.87 2.97 4.51 4 4.3 1.43 1.64 5.13 5.43.82 1.13 9.63 8.71 1.53 1.64 7.28 7.07 6.35 6.05.82-1.74.51.51.52.51 2.66 2.67 2.67 2.87.3.41 2.15 2.46 1.13 1.23 1.23 1.43 1.85 2.05 3.79 4.71.61.72 1.13 1.54 1.54 2.25 3.38 5.03.2.3 2.36 3.69 1.54 2.46 1.64 2.97 2.15 3.9 3.99 8.61 1.75 3.79 1.12 2.77.93 2.46 1.64 4.81 1.22 3.59 2.57 8.61 2.25 9.73.51 2.46.31 2.05.72 4.2.72 5.23.4 3.28.21 4 .51 7.99.1 2.67.31 11.06.41 11.79v7.28l-.1.92.2 2.77.52 8.91.3 3.49-.3.71.1.93.2 1.64.11 1.43.2 1.64.72 4.82.51 3.48.72 3.59 1.64 6.66.2.72.93 3.48.2 1.13.31.82.2.51h-.82l-1.02.51.31.11.3.1.41.31 1.23 4.4 1.44.62.3 1.13 2.46 7.99.52 1.84.1.41 1.54 5.64.61.51.72 2.67.51 1.84 2.25 10.15.82 3.38.72 3.69 1.64 7.99 1.85 8.92.4 2.05-2.66 1.43-8.5 1.85-1.85 11.07-5.94 6.76-.1.51-.82 2.87-1.03 3.59-.51 1.54-.51.82-1.03 1.84h-2.35l-7.08.31h-1.84l3.28 6.35-.21 4 .52 4.2-.62 4.41.51 6.35.72 4.2v.21l.21 5.23-1.75 5.63-.61 2.05-.62 2.05 1.23 16.19-2.66 2.05-1.33 1.13-1.13 1.33-1.74 1.23-1.13 1.23-1.84 1.54-1.03.72.52 6.66.1 1.84.92 13.12.82 13.22-.1 4.1-.11 1.64-.61 6.25-.31 2.67-.51 7.07v9.94l.51 28.08-2.97-.41-3.89-.61-2.97-.41-2.36-.21-4.71-.31-1.03-.2 2.15-2.56 1.74-2.67 1.54-2.77 1.95-3.48 1.13-3.38.41-2.87.1-2.77-.31-3.07-.72-3.69.72-.62-1.23-1.64-2.05-6.35-2.15-5.33-1.54-2.77-.71-4.4-1.44-4.51-4.71-5.64-.11-5.64v-2.25l-2.15-.41-4.2-1.44-1.23 1.13-5.84 4.92-2.87 2.77-5.74 4.81-10.24 8.61-44.27 37.31-16.7 14.04-7.89.41-12.2 1.33-5.43 2.05-4.92 3.18-7.78 5.02-13.84 5.12-7.27-11.89-2.97-9.12-.82-7.79 2.05-8.6 3.38-6.56 3.69-7.18-.31-4.51-1.23-6.04 1.02-6.87 1.23-4.41 2.46-4.81.21-9.74-2.67-2.15-2.76.72-22.85 47.24-2.36 3.49-1.64 1.33-2.15.51-3.59-.31-110.77-19.67-111.48-16.91 1.74 2.97 1.33 4.3.41 1.85.51 1.43.72 1.54 1.03 1.43 2.56 5.33.72 1.23 1.74 2.46 1.23 1.33 1.43 1.95 1.64 3.49.62 1.02 1.33 3.49.61 1.43.51.82.41 2.15-.1.51-.31.93-1.53 2.46-2.26 2.35-1.84 1.44-2.87 1.43-2.66 2.05-1.44 1.64-1.64 1.64-.82.41-.1.72-.41 5.53.2 5.33-.1 1.54-.31 1.44-1.74 6.35-.41 2.15v1.74l.21 3.28.31 1.54 1.02 3.18 3.69 7.17.82 1.74.82 2.36.61 3.07.11 4.31-.41 3.18-.93 2.76-2.46 5.74-.3 1.54v1.13l.2 1.43.62 2.15.82 1.44 1.02 1.43 3.79 3.08 1.64 1.84.72 1.44.61 2.15.21 1.54v1.23l-.21 1.43-.82 2.46-3.99 9.02z" stroke-linejoin="round"/></defs><use xlink:href="#d" fill="#09757a" stroke="#00465f" stroke-width="5.76"/><defs><path id="e" d="M1967.5 2082.47l4.72-4.3 7.17-7.18 18.03-17.93 6.36-6.66 2.46-2.87 3.79-4.2 3.99-4.92 6.05-7.79 3.07-3.18 4.61-3.79 3.59-2.56 3.18-1.95 3.07-1.54 5.74-2.36 3.07-.82 2.36-.71 4.51-.72-12.09.41-7.89-.92-2.46-.21-1.95-.71-9.43-6.26-.71-.71-.93.2-2.15-.2-2.87-.52h-1.43l-1.54.52-1.43 1.12-2.15 1.85-1.03.92-2.66 2.15-3.08 2.57-6.35 5.32-7.58-11.17-4-5.63-2.77-4-1.33-1.95-5.02-7.58-3.28 2.87-10.65 8.61-1.64.92-.72.31-7.79 3.79-1.33 5.12-18.45 15.48-3.58 1.13-.62.61 2.26 2.56 7.99 9.33 4.1 5.53 4.2 6.46 3.79 6.05 7.79 12.5.61 1.33 1.34 2.26 4.2 6.25 1.23 1.12 1.53 1.64 4.1 4.41z" stroke-linejoin="round"/></defs><use xlink:href="#e" fill="#09757a" stroke="#00465f" stroke-width="5.76"/></svg>