<svg width="384" height="4.52in" viewBox="0 0 2880 3251" xmlns="http://www.w3.org/2000/svg" xmlns:xlink="http://www.w3.org/1999/xlink"><path fill="#fff" d="M0 0h2880v3251H0z"/><defs><path id="a" d="M508.23 1820.56l-.81-.51-2.75-2.23-.1-.21-.3-.2-.21-.1-.3-.1-.31-.1h-1.11L384.88 1823l-18.49.61-.81-.1-.61-.21-.51-.3-.31-.61-.2-.61-.3-6.3-1.83-46.02h-.41l-.31-.92-.6-.81-2.04-1.01-.81-1.33-1.12.41-1.42.51-1.52 1.73h-.82l-.81.4-1.93 1.12-2.64-1.63-1.83-.91h-.61l-1.12.71-.3.81.91 1.73 1.93.81 1.73.41v.51l1.32.61.51 1.01-1.22 3.05-1.52-.51-1.43-1.01-.4-.41-1.22 1.22-1.02.71-1.22-.3-.71 1.11.1 1.32.51 1.12-.41.82-1.01.2-.92-.71-.81.51-.41 1.11-.81.92h-.71l-.91-.21-.51-1.01-1.12-.31h-1.63l-.5-1.01v-1.32l-.11-.71-.1-.72.71-1.01-.81-1.63-1.73-.51-2.03-2.33-1.42-.61-.2-.1h-.31l-.91 1.52-.31 1.42-.81.41-.81-.71-.61-1.02-.51-.1-1.22.1-.81.61-.41 2.03-1.02 1.53-.61.4-2.03 1.53-.4.61.1 1.32.2 1.93-.41 1.22-.91 1.42-1.63 1.42-1.42.41-.71.3-.2 1.83-1.02.61-.81.81-.2.72-1.22 1.62-1.53-.61-1.32-1.62-1.52 1.22-2.04-.21-1.32.92-1.01.4-1.42-.91.4-1.63-.91-.1-.61.1-.92 1.43-.3.81-1.02 1.22-1.22 2.03-1.52 2.34-.61.81-2.03.71h-1.02l-.81 1.42-.41 1.42-.3 1.02.2.31.41.6-.71.92-1.12.71-.41.61-.41 1.73.72 1.01 1.01 1.22-.1.92-1.32-.41-1.32.81.61 1.22-.2 1.22-.72 1.32-1.32 1.83-1.42 1.32-1.62 2.64-3.87.82-.1 2.64-18.49.81-7.72.3-24.69 1.02-15.75.61-.2-2.13-.92-4.58-.71-4.06-.61-5.79-1.32-11.89-.81-8.63-1.43-21.44-.2-3.96-.71-17.27-.91-23.98-1.73-40.53-1.42-32.92-82.51 5.49-83.31 3.25-2.65-48.16 1.02-.61.81-1.22.31-1.83-.31-2.13v-2.03l.21-1.32.3-1.42v-.21l.61-2.64 6.81-5.59 6.81-6.09 3.45-2.14 1.73-1.42.4-2.74 1.94-3.46 1.62-3.25 1.52-4.06.31-3.96-.41-2.95.21-1.42.5-1.22.92-2.23 2.03-1.63 2.13-.51 1.63-1.01.81-2.44.41-1.42 1.42-1.43 2.03-.91 2.65-.1 2.43.1 1.83-.71.92-1.63 1.93-4.06 2.23-3.76.82-3.66-.31-2.74.41-2.74 1.73-1.73 1.01-1.42-.2-1.53-.92-1.62v-1.32l.92-.31 1.22-1.42 1.01-1.22.11-.2 1.32-1.22 1.72.51 2.14-.11 2.94-.3 1.83-.91 2.85-.92 2.33-.3 2.44-.31 2.44-1.22 3.66-.61 2.44-.1 1.42-.41 1.22-1.62 3.66-1.22h4.26l3.56-.1 3.35-.31 2.34-1.72 2.54-1.53 2.03-1.01 2.64-1.32 2.34-.92 1.93-1.42 1.53-1.32.4-.81 1.93-1.63 1.32-2.64.21-2.03.4-1.73 2.04-1.52 2.03-1.02 1.52-1.32 2.14-1.83 1.62-1.73 2.03-2.03 2.54-.91 5.19-.21 1.32-.1.91-2.23.2-2.54.41-2.54.71-2.24 1.53-2.23 2.74 1.01 1.93-.3 1.22-1.02 1.32-.2 1.93-.31.71-.81-1.32-2.13-1.42-1.73-.41-1.52 1.32-.92 2.03.1.72.21 1.52-.92 1.02 1.22.81.31 2.34.51 1.11.2 1.53.3 1.01 1.73 2.14 2.03 2.33.71 1.43 1.12 2.03.51 1.73-.41 2.03-.1 2.34.31h2.74l2.74.3 2.03-.51 1.73-.81 1.02-.51h1.42l.51.51.61.41 1.52-.11 1.73.92 1.12 1.22.2.91 1.02.61 2.23-1.72 1.02-.82 2.44.71 2.33.21 2.34-.1 1.02-.21 1.62.31 2.54-.1 1.32-1.43 1.73-.51 2.34.51 2.43.92 2.85-.71.81.71 2.34-.51 2.13-.1 1.83.51 2.03.71 1.83-1.02 2.64-.3 2.14.61 4.27-1.33 1.22-.3 2.43.51 2.85.51 1.73-.72 28.34 10.47.61 1.73 1.02-.61.61-1.02 1.32-.1 1.42.3.82 1.22 2.94.61 2.24.1.61-.4 1.83-1.83 1.32-.31 1.93-.1 1.11.21 1.33.3.81 1.12 1.83.71 3.15-.31 1.11-.61 1.33-.1 12.7.61 4.57 82.6 4.47 82.49 123.45-8.23h1.52l.41-1.01.3-.61.72-1.22 1.62-1.93 1.83-1.22 1.42-1.22 1.12-1.42.81-2.44 1.63-2.03 2.03-1.73 1.63-1.01 2.84-2.95 2.64-1.12 3.86-1.62 2.34-1.22 2.85-1.22 1.83-1.02 1.82-1.12 1.53-.5.91 24.79 11.28-.51 3.35-.21 26.22-.81 36.68-1.12 2.44-.1 10.46-.4h21.44l28.04-1.02 19.71-.71-2.03-45.21-.3-6.91-3.36-76.09-.5-8.94 5.89.3 11.58 15.65-.61-15.55-.4-6.6v-2.54l.2-1.02.41-1.32.71-1.72.3-1.12.1-.61-.1-.81-.3-.51-.71-.51-1.02-.71-.71-.31-1.12-.3-1.32-.2-1.63-.11-9.65.51-2.44.1-4.47.21-1.11.2-.72.31-.71.4-.81.61-.91.92-1.53 1.82-1.12 1.63-1.42 2.13-10.16-3.35-1.12-10.97 1.63-2.74 6.5.61 2.14-2.44 2.64-7.52 3.15-7.82-.31-6.1-5.38-3.66-.61-2.03-.1-4.87.71-2.14.2-4.37 3.76-3.96-2.95-4.37-2.94-4.26-4.58-6.71-4.87-7.72-3.76-5.89-13.92-21.64-2.95-4.57-.61-1.12-1.01-1.63-2.04-3.65 3.36-.21 11.07-.1 11.99-.2h9.45l3.86.1 3.46-.1 5.18-.1 12.19-.31 13.82-.3 16.76-.92 2.44-.1 5.79-1.42 5.49-2.75 16.16-8.22 8.73-19.31 12.09 4.07 20.83 3.45 8.54 1.22 11.58 1.63 11.08 3.45 12.19 9.55 8.13 9.55 3.86 4.57 5.49 12.19 1.32 2.75 1.62 4.57 3.25 7.21 7.42 6.71 5.18 1.72 7.11-1.52 14.53-6.3 18.09-8.84 9.55-7.42 15.55-14.02.91-1.11 18.9-24.28 20.12-20.42 15.14-18.8-.82-18.59 44.81-57.2 28.35-13.81 11.28-.11.51-.1.61-8.73.5.1 13.21 2.74 6.5 1.83 25.2 7.62 7.52 4.87 62.08 55.78 7.42 7.72 7.82 8.13 24.79 40.03 2.44 2.13 1.32-.1-.1-1.63-.2-1.52 1.63-3.15-6.81-9.96-1.43-16.96 1.22-1.02 1.93 1.63 13.62 10.97.81 3.45-.81 6.1 1.42 1.52 1.83-.61 1.73-3.05 1.93-2.03 2.84.92 2.24-.21 16.66 10.06 1.63 1.63.3 2.03-17.37 23.98-1.42.71-2.85-1.22-9.65-13.51-1.73-2.95-2.13-3.66-.82-.61-2.43 2.14-.31 2.13 3.25 2.95.21.2 1.52 2.84 1.32 2.44 24.39 27.84 1.62 1.93 9.86 5.38 18.08 12.3 16.97 3.04 5.18 11.59 1.63 3.75 13.31 29.47 8.84 24.79 4.67 19.4 2.24 6.1 3.66 13 1.01 6.09 1.32 8.34.31 1.52 1.12 3.56 2.03 6.7-4.68 8.03.92 9.95v7.01l.3 6 .51 2.94.41 2.03 1.72 8.13.21 1.83.51 1.52.61 2.34.5.51.31.2 3.66 6.71 1.52 3.35.1.71-.61.31-3.86 2.43-1.22.72-2.34 1.21v.61l.31.51.1.51.31 1.12.5 1.62 4.58 5.18 8.33 10.06-2.75 2.24-2.13 1.52-2.34 1.73-4.97 3.55-1.33.72-1.11 1.72-1.43.82-10.36 6.29-4.06 2.54-1.53.92-.3.2-1.93 1.12-2.24 1.22-3.35 2.13-.81.61-1.32.81-.72.41-3.65 2.03-4.78 2.95-2.44 1.52-3.25 1.93-1.32.71h-1.52l-7.32 4.68-1.93 1.11-6.5 3.87-1.73 1.01-13.11 7.82-4.57 2.65-3.66 2.43-3.66 2.54-4.77 2.85-5.79 3.35-2.75 1.42-8.84 5.39-.91.61-1.93 1.11-10.16 6.1-7.93 5.08-7.41.2-12.7.31-13.82.51h-3.46l-2.64.1-4.98.2h-1.32l-13.61.31-14.13.5h-.5l-1.83.1-3.36.21-9.65.3-10.67.41-19.71.81-.81.1-.92.41-1.11.61-18.6 9.65-14.12 7.32-5.39 2.94-13.71 7.11-7.01 3.66-1.83 1.02-1.22.71-2.95 1.32-1.32.51-1.83.61-13.71 5.08-12.09 4.57-.51.1-2.34.91-1.73.71-.91.31-1.12.2-1.02.21-12.19.3-2.03.1-16.56.51-11.38.3-9.86.41-12.09.51-7.82.2-3.66.31-1.52.61-1.43.5-2.03 1.12-2.54 2.14-4.37 3.35-2.44 1.32-1.32.41-1.01.3-3.76.41-15.14.5h-16.87l-8.13.31-1.22-.1-.71-.1h-.5l-1.63-.61-1.93-.71-1.12-.72-.3-.2-.92-.61-1.01-.81-1.43-1.63-.61-.71-.81-1.32-1.42-2.64-3.56-7.31-.61-1.12-.81-1.12-1.02-.91-.81-.61-1.02-.51-1.11-.41-1.02-.2-.71-.1-14.33.4-8.84.31-8.63.3-8.94.31-8.74.3-3.56.21-2.74-.11-1.63-.3-2.13-.31-3.96-1.01-1.93-.71-2.14-.71-3.55-1.53-2.85-1.32-1.22-.71-2.84-1.83-4.58-3.35-7.01-5.59-7.31-6.09-1.42-1.12-1.63-1.22-1.02-.71-.91-.61-1.73-.81-1.42-.41-1.93-.41-1.22-.1-1.83-.1h-2.34l-4.57.2-25.6.92-9.65.4-6.71.31-4.27.1-1.22-.1-1.62-.41-1.43-.51-1.82-.81-2.54-1.22-1.83-1.12-1.63-.71-1.52-.61-1.93-.71-1.73-.61-1.02-.2-1.11-.3-1.94-.31-1.52-.2h-1.73l-1.62.1-1.02.2-1.22.1-1.12.21-1.32.5-3.65 1.02-1.83.31h-1.63l-1.42-.21-1.52-.1-3.05-.51-2.95-.51-1.73-.1-1.52.1-1.12.31-1.73.41-1.32.5-.91.31-1.42.41-1.12.2-2.54.1-5.39.2.31 5.08.2 3.66-3.66-2.13 1.12 27.02 2.24 53.44 7.01 1.73.2 6.6-32.61 1.32-28.56 1.83-26.72 4.16-4.87.31-6.61.81-3.25.51z" stroke-linejoin="round"/></defs><use xlink:href="#a" fill="#cee3e4" stroke="#cef5f5" stroke-width="5.76"/><defs><path id="b" d="M868.72 1397.83l-7.11 1.52-5.18-1.72-7.42-6.71-3.25-7.21-1.62-4.57-1.32-2.75-5.49-12.19-3.86-4.57-8.13-9.55-12.19-9.55-11.08-3.45-11.58-1.63-8.54-1.22-20.83-3.45-12.09-4.07-11.27-8.63-4.58-7.22-3.15-10.87-2.54-18.89-8.13-21.74-.1-22.15 1.12-15.85-3.15-5.89.71-8.94-2.23-8.33 8.74-19 8.23-14.43 30.27-31.59 4.78-10.67 9.14-15.75 2.65-4.47 1.62-9.85-2.23-39.01-1.02-6-2.85-15.03-13.61-16.26-.81-.91 6.91-2.24-3.66-11.89-2.24-6.8-1.42-.61-37.7-26.21-52.12-35.97-43.89-19.3-2.85-13.11-1.42-6.9-.51-2.95 59.85-76.8 19.71-37.19 2.03-3.86 1.12-2.13 1.12-1.93 1.22-2.44-1.12-1.02-2.34-2.23-7.01-6.81-1.22-2.74-2.44-3.05-3.05-2.64-1.52-1.22-2.54-1.83-3.56-1.42-.71.1-3.05.51-6.4 1.42-12.9 4.17-10.87 3.35-3.56 2.23-9.75 6-3.25 3.15-6.3 3.86-7.32 4.06-13.21 4.98-7.82 1.32-3.96.81-5.39-.61-4.16.82-5.59-2.34-3.36-3.56-3.76-2.23-4.26-4.57-4.88-3.76-5.89-5.28-8.94-6.61-7.62-4.16-4.98-2.95-6.81-2.84-6.6-2.14-6.2-.51-3.97 1.02-3.86 1.73-4.57 1.83-7.11 4.67-5.39 3.05-16.46 2.84-4.57.81-2.74 1.02-3.05.81H462l-2.34.41-1.93.3-3.76.92-3.86.2-5.08.21-1.73-.51-2.23-1.32-2.03-.82-2.85-3.45-1.01-.81-.92-1.12-1.32-1.93-1.42-1.93-1.73-2.03-1.63-1.73-1.82-2.13-1.93-2.14-1.33-3.05-.2-.81-.3-2.13-.41-1.83-.51-2.74-.61-4.78-.71-4.67-.71-3.35-.91-4.37-.92-3.86-.3-2.44-.72-4.27-.3-3.66-.2-1.52-.21-1.42-.2-1.32.1-1.63.1-2.94.31-2.24.1-2.54.41-4.06.81-2.03.71-1.83.51-1.53 1.73-2.54.91-.81.1-.2.92-.61.81-.92.81-.61 1.02-.81.81-.61.71-.41 1.02-1.11.71-1.02 1.52-1.01 1.32-1.53 2.14-2.64 1.93-1.63 1.93-2.13.51-1.01.2-.61.51-1.83.3-1.73.71-2.84.82-3.87.4-2.13-.1-4.16-.1-3.97-.61-4.97-.91-3.56-1.12-2.13-.71-3.76-.71-1.32-.92-1.73-1.01-1.12-1.02-1.62-1.93-2.85-1.93-2.84-1.73-1.73-2.03-3.56-3.46-4.67-11.78-8.13-13.11-4.57-9.75-3.76-6.61-6.8-4.87-8.23-3.56-7.72-2.13-4.78-.31-4.88-7.31 1.22-12.1 1.43-47.14.3-.41-.3-.4-.11-.71-.1-1.12-.1-2.54.1-4.47.41-.51-8.84-.51-11.17-.41-8.44-.5-10.46v-1.73l-.1-.61-.11-3.35-.1-3.05v-.4l-.1-.51h3.15l4.17-.21 3.96-.2h3.05l2.84-.1 2.74-.1 2.95.1h2.24l1.83.1 2.03.1 2.64.1.81.82 3.36.61 2.54.5 2.94.82 3.35.91 10.98 3.56 13 4.26 14.23 5.29 4.37 1.62 2.44.82 1.01.3 7.11 2.44 1.12-1.63 2.95-6.7 3.55-6.4 5.19-7.11 11.99-14.53 1.52-1.22 3.05-4.07 1.12-4.67 1.11-8.02.41-8.34 1.83-10.56 8.03-22.45.3-5.18-1.22-5.59v-5.69l.92-2.34 5.89-1.93.2-2.54-1.62-1.32 5.48-6.81 4.07-4.97.2-6.3 5.18-3.36 1.83-2.64 8.54-.5 3.25-.21 66.96-2.74 27.33-2.64 17.07-.41h1.01l21.34-.51.61 6.81 21.44 58.92-.1 6.61.2 16.05 6.2-.2 3.96-.41 21.44-1.62 2.03-.21 6.3-.2 1.12-.1 3.66-.21 23.98-1.42 1.32 27.23 1.52 33.12.2 4.87.92 16.97.3 6.5 20.93-1.62 6.3-.41h1.53l1.62.1 1.63.1 2.94.41 1.63.31 3.15.6 2.64-5.38 1.42-3.25.82-1.83.3-.91.71-2.04.61-2.33.51-1.63.41-2.03.3-1.93.31-1.63.3-3.04.1-2.24v-2.33l-.71-14.84-.61-11.17-1.83-34.85L766 375.08l8.23-22.96.41-2.74.71-3.25 1.42-1.32 13.72-.1h4.67l66.25 14.22 34.04 2.54 12.09.41 2.13-3.15-2.74-8.74-2.14-8.63-.1-15.04 9.35-8.13 6.3-17.07v-.81l-.3-.3-.51-.11-1.32.21-.71-.31-.41-.5-.1-.61.3-.72.51-.71 1.42-1.32.1-.61-2.13-9.85 10.97-8.13 6.3-20.42 1.63-16.36-5.18-22.14-6-4.58.82-5.07-2.14-4.78-2.13-4.17-4.78-5.38-5.89-4.16-1.83-2.85-1.73-2.34-2.23-11.17 2.94-6.4 8.84-1.83-.1 3.15v1.52l.31 2.64.2 1.32.51 1.63.4.81.61 1.22.61 1.12.92 1.12 2.03 2.03 1.02.81 2.23 1.83 3.96 2.95 4.78 3.55 21.85 16.16 1.52 1.01 1.83 1.02 1.01.61 1.22.61 1.32.51 1.43.4 1.62.31 1.93.1h9.45l1.93-2.85 30.08-2.13 2.84 1.63.1-.11.51-.4.92-.21 1.32-.3 5.69-1.22 2.33-.61 1.53-.61 1.01-.51 1.33-.91 1.11-1.02.92-1.11 1.42-1.73.71-1.53.71-1.42.31-.91.2-.82.41-1.72.1-1.02.2-1.42 1.02-8.53 1.01-8.74.31-2.34.2-3.45 4.57.3 3.26-.1 1.32-.1 2.84-.2-1.01-17.07-.21-2.54-.51-6.1-1.32-21.54-.2-2.84-.1-2.23-.31-3.76-.5-3.76-.51-3.76-.71-3.66-.82-3.66-.91-3.65-1.12-3.56-1.12-3.56-1.22-3.25-1.52-3.76-1.73-3.55 11.08-1.42 1.93-1.32 3.15-1.22.1-.1.1-.61-1.93-36.27-.1-2.75 1.22-.1h12.29l12.3.1h2.03l.51 1.93.51 2.75.3 2.74.3 2.64.41 5.79.51 7.52.3 6.1.51 7.82.51 7.52.81 13.51.21 4.67.2 3.56.41 5.38.71 12.09.3 3.96.1 1.73.11.71.2 1.12.3 1.83.71 3.25.61 1.93.51 1.52 1.02 2.24.71 1.52.81 1.42.82 1.43 1.11 1.62 1.73 2.54.81.92 1.12 1.32 1.22 1.32 3.76 3.76 2.54 2.54 4.06 4.06 6.3 6.2 1.73 1.73 2.03 1.93.71.91 1.02 1.32.81.81 1.02 1.53.51.81 3.55-1.42 2.24-.92 1.01-.4 4.07-1.53.51-.2 1.42-.51 1.73-.51 2.43-.71 1.43-.2 1.52-.2 8.43-.71 6.51-.41 9.45-.31 5.38-.2 3.35-.1 3.56-.2 5.89-.41h3.46l3.66-.2.4-.11 2.44-.1 7.72-.3 14.74-.71 1.01-.1h.92l2.64-.11 7.72-.4 15.75-.71.91 22.14.92 14.63.4 8.23.11 1.63.2 4.98.91 19.71-42.98 2.74.21 36.67-33.02 2.34 3.35 50.8-34.95 1.52-6.51.2.21 9.25 2.33.81 3.97 1.42 4.37 1.93 5.08 2.14 11.17 4.67 2.24.92 7.82 3.65 3.25 1.73 3.46 1.63 4.98 2.54 1.93 1.21 1.52 1.02.81.81 1.32 1.43 1.22 1.52 2.14 2.95 1.72 2.54 3.15 4.97 6.3 8.33 3.56 4.07-1.02 1.73-.71.81-.51.3-.6.1-1.12.21-.92.2-1.01.41-.92.61-.61.81-.3.81-.2.61-.21.92-.1 1.01.2 8.03.31 7.41-2.95 8.84.2 3.15 1.02 18.59 28.35-2.43-.81 2.84-6.1 12.19-.81 2.44 3.86 66.54 2.23 59.74.21 1.93-.31 1.32-.1.41-.51.91-.71.82-.61.61-.71.4h-.1l-1.12.2-12.8.41h-.2l-.92.1-.81.41-.51.41-.41.81-.1.91-.1 2.85.3 17.57-19.71 1.22-39.11 1.73-.82-28.45-.1-4.98-.61-13.51-39.22 5.29-8.23.5.71 6.71 2.85 35.76h-11.38l-3.35.1h-.92l-2.64.1-6.2.31-2.44.1h-9.55l4.68 116.12 1.32 19.41v1.11l-.71-.4-.92-.31-1.32-.4-30.79-.11-1.11.11-.92-.51-.71-.51-.61-.71-.61-1.02-.2-1.12-.1-1.11v-.41l-12.6 7.11-2.24 2.85-19.4 1.52-3.26-.1-.5 13.41 1.01 24.28 4.07-.3 3.45-.21.92-.61.91-.4 4.77-.21 6.91-.3 1.93-.51 2.04-.3 4.57-.21h3.66l2.54.41h1.93l6.8-.2h3.26l2.64-.51 2.23-.71 1.22-.21 1.53-.1 6.7-.2 2.64.51 2.65.1 1.32-.2 2.03-.72 6.5 6.61v1.12l.1 2.03.21 7.11.2 4.06v1.83l.1 1.22-.1 1.42-.1.82-.21 1.11v.41l-.5 1.32-.71 1.42-.82 1.63-1.22 1.93-1.83 2.44-1.01 1.83-.41.71-.51 1.11-.5 1.53-.41 1.12-.2 1.62-.11.61-.1.81v3.76l.1 2.44-13.71.41-29.57 1.01-3.35.21-2.85.1-2.33-.1-8.13.61-3.05-.11-2.03.11h-4.88l-5.79.6-1.53 8.03 4.58 27.33 6.6 33.53 1.22.4 2.54.51 1.63.3 2.94.31 2.54.1 2.75.1 4.16-.2 13.21-.2 5.79-.11h1.73l6.5-.1h14.13l9.95-.2.1 5.38.21 2.85.1 1.73.3 2.03.21 1.72.1.92.2.71.51 3.05.31 2.74.3 2.54 9.96 1.32-.61-15.44 5.28-.2-3.66-5.29 4.78 1.12.71-.61.71 1.32.31 7.62.81 13.82.1 8.02v5.19l-.1 2.94-.41 5.69-.91 9.04-.51 3.46-.3 2.33-1.12 10.37-.51 4.26-.31 3.15-.6 3.86-.31 3.36-.1 1.52-.31 3.56-.1 1.62v8.33l.1.92.11 2.74 3.15 47.34.1.81v.82l.2 4.06v.92l.1.5.1 1.32.21 1.43.81 11.17.61 4.57.3 5.59v1.52l.21 2.24.3 3.05.41 4.26.4 9.66-.2 2.84-.2 2.64-.51 2.85-.51 1.93-.61 1.93-1.72 4.67-.51 1.02-2.34 5.79-4.06 8.02-3.76 8.74-.82 2.03-1.01 3.46-.51 2.03-1.02 4.27-.5 3.35-.41 3.76-.61 5.89-.1 5.38-.1 2.85v.71h-.61l-.1 1.63-.61 8.73-.51.1-11.28.11-28.35 13.81-44.81 57.2.82 18.59-15.14 18.8-20.12 20.42-18.9 24.28-.91 1.11-15.55 14.02-9.55 7.42-18.09 8.84-14.53 6.3z" stroke-linejoin="round"/></defs><use xlink:href="#b" fill="#cee3e4" stroke="#cef5f5" stroke-width="5.76"/><defs><path id="c" d="M1812.33 3204.57l-60.15 3.66-6.91-.71-24.99.91-15.34.41-24.8.61-5.28.1-26.92.51h-8.13l-12.4.4.2-1.62-1.11-11.68-11.18.4-.51-7.41-1.73-19.82 4.58-.3 7.72-.61 4.47-.2 7.42-.51-.11-1.63-.1-2.03-.5-8.84-2.24-36.67-.81-13.21-1.32-26.11-.92-14.12-1.42-24.08-79.56 1.63-74.78 2.44-29.36.3-1.22.2-1.32.1.2 1.12.1 1.63.71 6.6.51 5.28.51 3.87.51 5.28.91 7.52.61 6.29.51 4.47 1.12 10.57.81 7.21 1.22 11.08 1.22 11.58.71 6.4.71 6.1.71 7.51.41 3.36.71 7.01.1 1.11.51 5.69.71 5.39 1.63 12.59.91 6.61.61 4.37.71 3.96.61 3.76 2.24 12.49-6.81.41h-9.04l-3.26.41-5.08.3-18.59 1.12-21.54 1.42-.91-20.42-4.78-112.46-2.23-38.61-25.51.51-54.56 1.22-37.59.81-40.65 2.03-3.15.21.61-.61.61-.71.41-.72.3-.61.21-.5.1-.82v-.71l.1-1.01-.1-1.32-1.32-38.2-2.24-34.14-.2-2.44-.3-3.04-.41-3.15-.2-1.53-.21-1.73-.2-1.62-.1-1.83-1.42-27.94-.72-11.99-.4-8.23-.92-18.08-.81-18.69-7.62.3-2.13.41-13.21.1-37.8 1.12-19 .1-39.83.91-41.66.92-2.23-43.79-3.76-49.78-.41-5.38-100.89 2.43 10.77-78.53-23.68 1.22-20.01 1.22-15.85.81-7.72.31-6.1.1-2.24-37.69-1.42-22.05-7.62-119.78-78.64 4.17-3.05-46.23-2.54-40.33v-.91l.1-1.12.31-.61.4-.51.61-.3.71-.21 1.93-.4 57.82-2.24 55.07-3.25 1.42-.2.91-1.42-4.26-77.72-.21-3.05-.3-3.15-.2-5.38-1.12-23.17-.1-3.96-.51-2.24-.1-.71-.41-1.22-.41-1.52-1.11-2.44-1.32.81-.61.61-.92 1.12-1.32 2.95-.51 1.52-2.44 3.66-2.94 2.95-.61.91-2.03 1.93-1.63 1.83-1.32 1.93-1.02 1.93-.4 1.52-.1 1.93-.21 2.65-.3 1.01-1.02 1.32-2.54 1.12-21.84 6.7-11.69-3.45-11.18 6.4 3.66 9.75-6.4 9.96-2.03.41-1.52-1.22-3.15-10.87h-11.49l-1.52 1.83 1.42 8.83-.91 2.34-1.53 1.12-7.41.61-10.16 11.58-7.42-2.03-17.07 3.35-9.25 10.36-8.23-2.03-13.81 1.93-12.81 4.37-32-21.84-7.83 6.6-13.1-.61-8.54-8.23-24.28-13.51-13.41-1.83-1.83-4.77-.31-1.73-.81-1.93-1.63-.92-1.52-1.72-.61-.61-3.15-2.85-3.86-2.74-3.35-2.64-3.36-2.44-2.84-1.73-2.24-1.52-1.72-1.12-1.53-.91-1.52-.92h-.92l-1.22.21h-1.22l-2.33.3-1.53.41-3.96.61-24.49 1.93-3.45.2-2.34.41-1.52.2-2.34.31-2.44-.11-2.23.11-1.93-.51-.71-14.23-.72-14.42-1.01-21.54-.1-2.44 14.53-.4-.71-13.31 3.76-.21 35.25-1.11 10.26-.31 14.43-.51 18.8-.81 11.18-.2 9.65-.92 9.96-.2-1.73-32.31-.51-7.92-.3-4.88 6.9.1 5.29-.1 6.4-.2 11.58-.2-1.52-22.96-.41-7.01-.4-5.49-.82-13.21-.1-3.96-.3-3.25-.31-4.47-2.23-28.55-10.98.2-3.25.21-1.22-.21-.91-.61-3.66.21-12.19.3-4.07-.2-27.84.91-7.82.21-7.82.1-.21-6.91-2.13-38.4h9.04l22.46-.71 7.21-.21-.41-7.21-.4-10.87-.82-15.44-.6-12.8-.72-13.31-.71-16.26-.1-1.83-.1-2.33-.2-2.85-.41-10.05-5.49 3.04-94.08 2.24-18.09.51-86.26 3.15-1.53 3.65-.1.31-1.62 2.84-1.53 2.03-1.83 2.14-2.43 1.83-44.51 35.45-4.77 3.15-1.73 1.12-1.42.2-1.53.21-.81.1h-3.15l-3.45-.21-60.15 2.95-60.05 2.84-39.73 2.14-.51-11.48-1.93-32.82.1-2.84v-.81l.21-1.02.2-.81.2-.92.2-1.01.11-.82v-3.35l-3.15-69.89-.1-3.15-.21-4.27-.4-7.93-.51-13-1.63-40.03-.3-8.73-.21-7.12.21-4.36.61-6.61.91-7.72.1-2.44-76.71 3.56-81.69 4.06-7.72.51-.1-1.52-.11-1.32-3.75-57-.51-5.79-1.32-26.31-5.08-87.37 83.31-3.25 82.51-5.49 1.42 32.92 1.73 40.53.91 23.98.71 17.27.2 3.96 1.43 21.44.81 8.63 1.32 11.89.61 5.79.71 4.06.92 4.58.2 2.13 15.75-.61 24.69-1.02 7.72-.3 18.49-.81.1-2.64 3.87-.82 1.62-2.64 1.42-1.32 1.32-1.83.72-1.32.2-1.22-.61-1.22 1.32-.81 1.32.41.1-.92-1.01-1.22-.72-1.01.41-1.73.41-.61 1.12-.71.71-.92-.41-.6-.2-.31.3-1.02.41-1.42.81-1.42h1.02l2.03-.71.61-.81 1.52-2.34 1.22-2.03 1.02-1.22.3-.81.92-1.43.61-.1.91.1-.4 1.63 1.42.91 1.01-.4 1.32-.92 2.04.21 1.52-1.22 1.32 1.62 1.53.61 1.22-1.62.2-.72.81-.81 1.02-.61.2-1.83.71-.3 1.42-.41 1.63-1.42.91-1.42.41-1.22-.2-1.93-.1-1.32.4-.61 2.03-1.53.61-.4 1.02-1.53.41-2.03.81-.61 1.22-.1.51.1.61 1.02.81.71.81-.41.31-1.42.91-1.52h.31l.2.1 1.42.61 2.03 2.33 1.73.51.81 1.63-.71 1.01.1.72.11.71v1.32l.5 1.01h1.63l1.12.31.51 1.01.91.21h.71l.81-.92.41-1.11.81-.51.92.71 1.01-.2.41-.82-.51-1.12-.1-1.32.71-1.11 1.22.3 1.02-.71 1.22-1.22.4.41 1.43 1.01 1.52.51 1.22-3.05-.51-1.01-1.32-.61v-.51l-1.73-.41-1.93-.81-.91-1.73.3-.81 1.12-.71h.61l1.83.91 2.64 1.63 1.93-1.12.81-.4h.82l1.52-1.73 1.42-.51 1.12-.41.81 1.33 2.04 1.01.6.81.31.92h.41l1.83 46.02.3 6.3.2.61.31.61.51.3.61.21.81.1 18.49-.61 117.46-5.89h1.11l.31.1.3.1.21.1.3.2.1.21 2.75 2.23.81.51 3.25-.51 6.61-.81 4.87-.31 26.72-4.16 28.56-1.83 32.61-1.32-.2-6.6-7.01-1.73-2.24-53.44-1.12-27.02 3.66 2.13-.2-3.66-.31-5.08 5.39-.2 2.54-.1 1.12-.2 1.42-.41.91-.31 1.32-.5 1.73-.41 1.12-.31 1.52-.1 1.73.1 2.95.51 3.05.51 1.52.1 1.42.21h1.63l1.83-.31 3.65-1.02 1.32-.5 1.12-.21 1.22-.1 1.02-.2 1.62-.1h1.73l1.52.2 1.94.31 1.11.3 1.02.2 1.73.61 1.93.71 1.52.61 1.63.71 1.83 1.12 2.54 1.22 1.82.81 1.43.51 1.62.41 1.22.1 4.27-.1 6.71-.31 9.65-.4 25.6-.92 4.57-.2h2.34l1.83.1 1.22.1 1.93.41 1.42.41 1.73.81.91.61 1.02.71 1.63 1.22 1.42 1.12 7.31 6.09 7.01 5.59 4.58 3.35 2.84 1.83 1.22.71 2.85 1.32 3.55 1.53 2.14.71 1.93.71 3.96 1.01 2.13.31 1.63.3 2.74.11 3.56-.21 8.74-.3 8.94-.31 8.63-.3 8.84-.31 14.33-.4.71.1 1.02.2 1.11.41 1.02.51.81.61 1.02.91.81 1.12.61 1.12 3.56 7.31 1.42 2.64.81 1.32.61.71 1.43 1.63 1.01.81.92.61.3.2 1.12.72 1.93.71 1.63.61h.5l.71.1 1.22.1 8.13-.31h16.87l15.14-.5 3.76-.41 1.01-.3 1.32-.41 2.44-1.32 4.37-3.35 2.54-2.14 2.03-1.12 1.43-.5 1.52-.61 3.66-.31 7.82-.2 12.09-.51 9.86-.41 11.38-.3 16.56-.51 2.03-.1 12.19-.3 1.02-.21 1.12-.2.91-.31 1.73-.71 2.34-.91.51-.1 12.09-4.57 13.71-5.08 1.83-.61 1.32-.51 2.95-1.32 1.22-.71 1.83-1.02 7.01-3.66 13.71-7.11 5.39-2.94 14.12-7.32 18.6-9.65 1.11-.61.92-.41.81-.1 19.71-.81 10.67-.41 9.65-.3 3.36-.21 1.83-.1h.5l14.13-.5 13.61-.31h1.32l4.98-.2 2.64-.1h3.46l13.82-.51 12.7-.31 7.41-.2 7.93-5.08 10.16-6.1 1.93-1.11.91-.61 8.84-5.39 2.75-1.42 5.79-3.35 4.77-2.85 3.66-2.54 3.66-2.43 4.57-2.65 13.11-7.82 1.73-1.01 6.5-3.87 1.93-1.11 7.32-4.68h1.52l1.32-.71 3.25-1.93 2.44-1.52 4.78-2.95 3.65-2.03.72-.41 1.32-.81.81-.61 3.35-2.13 2.24-1.22 1.93-1.12.3-.2 1.53-.92 4.06-2.54 10.36-6.29 1.43-.82 1.11-1.72 1.33-.72 4.97-3.55 2.34-1.73 2.13-1.52 2.75-2.24 9.04 10.26-2.13 1.73-.61.31-5.49 4.26-2.84 1.83-4.78 3.15-.2.1 6.5 10.36 6.2-4.06 1.93-1.73 2.44-1.93 2.54-2.03 3.65-2.23 6.61 13.51 27.03 39.42.3.4.2.41 5.8 9.24 10.46 10.77 18.59 19.51.72.71 17.17 15.04 35.25 18.28 6.91 3.86 16.97-11.27 14.73-16.36 34.75-13 27.34 3.76 17.27 17.57-.1 43.38-2.85 51.41-.91 17.07 11.88 24.07 46.24 110.13 25.7 17.48 15.14-1.73 32.11-8.33 43.38-2.64h20.93l57.41.1 24.39-19.51 72.44-95.7-.51 8.94v16.36l.51 9.95 1.52 42.67 8.95 128.11 1.11 21.34-.1 18.49v2.33l.1 1.53v1.62l-3.35-.3-4.77.1-4.37.1-2.44.51-4.78 1.22-5.48 1.83-3.97 3.96-2.94 3.45-2.34 3.97-2.24 4.87-1.11 3.76-.31 3.35.92 11.28 1.62 31.7-.2 4.47-1.83 10.67-.61 3.25-.3 2.13 41.86-.81.2 3.35.2 4.47 4.07 82.9-1.73-.51-73.56-17.17-41.05-20.52-1.42-.71-6.71-3.05-8.84-3.96-10.97-5.28-4.98-2.64-3.56-2.34-2.74-2.34-2.24-3.86-1.32-3.15-.71-3.05-.51-5.58v-1.63l-.1-3.05-.2-3.65-.1-1.63h-6.1l-12.29.2-22.76.51-8.84.1-2.44-.1-2.54.1-13.72.31-13.82.4-27.43.51-1.52.1h-4.07l.1.31.11.51 1.93 9.24 5.28 23.17 1.22 7.01 4.57.1 2.44-.1 1.32.1 1.63.3 2.03.71 2.03.82 2.24 1.32 1.82 1.11 1.63 1.32.91.92 2.04 2.23 1.52 1.93 1.02 1.73.71 1.53 1.12 2.13 2.23 5.18 2.34 5.49.81 1.82 2.64 6.1 3.76 8.64 2.24 5.58.4.92 2.54 5.28.21.41.3.71.81 1.62.61.92.61 1.01 1.12 1.73 4.17 5.79 3.15 4.07 4.98 6.5 4.87 6.5 2.14 3.05 3.25 4.67 2.23 3.46 6.1 8.53 8.84 12.5 7.92 11.37 5.69 8.64 1.33 1.83 19.71 28.04 5.69 8.13 29.56 42.26 3.97 5.89 1.72 2.64-3.25-.1-37.08.81.3 5.9 71.63 67.66 27.94 28.44 6.2 8.54 9.25 15.03.91 1.53 15.85 25.19 12.6 16.87 2.75 4.57 1.11 1.22-5.69.3-3.04.1-12.5.51-18.19.51-8.74.1-45.52 1.63-44.91 1.42.31 4.37.1 2.23.2 2.44 4.07 80.77-.21 3.35 5.59 91.94 1.02 20.53.91 12.8.71 11.98.21 4.07.71 12.6.81 12.09.61 13.91.2 7.22.31 3.55.1 3.05.31 2.13.5 7.42.21 3.56.4 10.76.61 9.86.82 14.02 1.32 14.93.3 5.29.2 3.65 1.33 26.72 4.16 73.66 3.66 64.71.1 2.14-2.44.1-4.16.41-6.1.3-2.24.2-2.84.1h-4.88l-1.42-.1-6.91.1-3.76.21-4.57.3-26.42 1.22z" stroke-linejoin="round"/></defs><use xlink:href="#c" fill="#9dc8ca" stroke="#9dd7f0" stroke-width="5.76"/><defs><path id="d" d="M2725.56 2278.54l-2.03 1.93-9.55-.3-22.36-.61-37.89-12.39-4.98-4.68-2.75-1.83-3.04-3.25-4.27-4.57-3.56-3.76-3.55-3.45-3.05-4.27-2.24-1.83-1.83-.51-3.86-3.14-2.54-2.14-2.34-2.44-5.58-2.94-2.34-.71-2.03-1.02-3.66-.81-4.47-2.03-4.07-1.02-4.77-.71-4.98-.61-2.84 1.12-4.47.81-2.54.51-1.53.71-2.34 1.52-2.84 1.53-4.57 2.74-4.07 2.74-4.16 3.35-4.78 2.04-2.64.71-1.73.91-2.13.71-3.05.71-2.95.51-3.15.61-5.08.21-3.76.6-3.15.92-2.13 1.12-.51.4-1.52 1.02-1.12 1.42-2.03 2.13-2.85 2.95-2.74 1.83-3.45 2.23-.51.41-1.93.41-3.05.4-5.08-.4-4.67-.21-6.91-1.52-5.69-1.12-4.68-.51-5.99.72-6-.21-6.6-.91-5.49 1.01-4.98-.71-.4.31-2.14.4-3.45.51-2.85-.51-4.16-.4-6.1-1.22-6.09-1.73-2.85-.71-3.35-1.22-4.17-1.22-2.84-1.01-4.47-2.14-1.12-.61-1.12-1.11-1.42-1.32-2.03-2.24-2.34-1.52-2.34-1.83-3.05-2.64-.3-.41v-.91l.61-1.33-.51-1.62v-2.03l-.41-2.64-.81-1.83-.51-1.22-.61-2.44-1.22-4.17-1.42-3.55-1.12-3.25-1.21-3.66-1.22-3.56-8.13.51-3.05.31-3.25.4-.51-1.42-.3-1.42-.31-1.73-.1-1.52-.1-1.42-.1-3.36.2-4.26-.31-3.05-.3-1.22-1.02-2.34-.81-1.52-.61-.92-1.73-2.13-1.62-1.73-3.76-3.65-11.38-7.72-10.57-9.15-7.82-8.84-3.66-5.38-1.93-9.65-39.93-39.01-8.84-8.64-1.42-20.52.81-48.46-30.68-79.35-3.15-22.96-1.94-31.39-3.35-7.62-8.94-18.79-4.98-9.35-51.61-61.97-8.23-5.29-1.32-1.21-2.95-2.14-5.69-4.16-11.08-8.03-5.28-3.86-6.6-4.06-3.56-1.43-3.56-1.32-3.04-.5-2.44-.41-.82-.1-2.23.51-1.02.6-4.67 3.76-16.16 16.56-6.5.11-13.92 14.12-16.66 17.06-19.92 20.42-13.21 10.37-18.28 12.19-32.62 34.54-72.44 95.7-24.39 19.51-57.41-.1h-20.93l-43.38 2.64-32.11 8.33-15.14 1.73-25.7-17.48-46.24-110.13-11.88-24.07.91-17.07 2.85-51.41.1-43.38-17.27-17.57-.92-16.77-.3-5.79.5.1.41.21.81.5.51.31.92.71.3.2 1.12.82.91.81.61.51 1.53-3.36 1.62-2.84 24.9-38.71-1.12-.61-2.14-1.11-1.72-1.12-2.04-1.02-1.32-.51-1.11-.3-1.43-.2-1.42-.11-.91-.2-1.02-.1-1.52-.2-1.02-.41-1.22-.51-.61-.1-1.01-1.02-.51-.3-.31-.1-.61-.31-3.96-4.16-.51-.31-.51-.1-1.01-.2-6.3-.2-4.98.1h-.1l-4.07-.41-2.84.1-8.64.1-10.16.31-3.86-.1-8.43.1h-2.64l2.74-3.76-.1-8.94-.31-.71-.91-.51-.92-.2-7.11.5.1 7.22.11 6.2h-10.47v-6.1l-.1-7.42v-14.63l-.1-4.87v-5.9l-.21-5.68h-1.83l-5.28-.11-1.01-.1-1.83-.4-1.43-.31-1.32-.51-2.84-.91-4.27-1.42-.61-.31-3.66-1.01-2.84-.72-1.93-.5h-.71l-.82.1-.61.1-.81.1-1.02.31-.91.3-1.22.51-1.93 1.83-1.93 1.93-.3.3-4.27 4.07-4.07 4.06-2.84 2.54-1.12.2-.91.92-4.88-6.3-10.06-13.21-1.12-1.52-6.19-8.64-7.63-9.85-7.62-10.26-3.75-5.08-3.56-4.98-3.86-5.08-3.96-5.08 17.47-16.86 2.03-1.94 6.81-6.29 6.81-6.61 17.37-17.37 13.01-11.48 13-12.7 11.18-10.36 1.73-1.53 1.73-1.62 1.32-1.42 5.58-5.19 8.23-7.82 4.68-4.57 10.57-10.16 2.13-2.03 15.65-14.94 2.43-2.23.41-.41 7.11-6.9 10.57-10.06 6.5-6.4 3.46-3.05.91-.81 1.63-1.63 3.45-3.45 2.64-2.64.92-1.22 1.22-1.63 1.01-1.42 1.32-1.63 2.95-4.37.31-.3 1.11-2.13.71-1.22 1.22-2.03.61-1.53 2.44-5.28 1.42-3.35.51-1.12.41-1.73.81-3.25.92-2.95.61-2.54.5-1.82.92-4.37.2-1.12 1.22-5.79.31-1.22 1.52-6.2 1.42-5.79.1-.61 1.53-6.5 1.52-6.91 1.32-6.2.92-3.86.81-2.94 1.02-4.07.3-2.23v-1.53l-1.12-21.13-.91-12.49-.31-5.39-.3-3.15-.31-5.89-.5-8.23-.51-7.52-1.02-14.93-.81-14.53-.1-2.13-.81-12.8-.11-1.63-1.01-13.81-1.02-15.14-.1-2.44v-5.08l.1-2.44.1-1.73.31-3.15.51-2.74.5-2.23.21-1.83.4-1.32.61-2.44.61-2.03.41-1.63.41-.91.5-1.22.92-2.24.51-1.42 1.11-2.23 1.63-3.26 2.54-4.77 7.82-14.83 4.27-7.83.92-1.62 2.33-4.47.51-1.02 1.22-2.33 1.22-2.44 2.13-4.07 1.53-2.54.81-1.11 1.32-2.14 1.42-1.72 1.12-1.32.91-.82.61-.71.72-.61.81-.91.4-.51 1.22-1.02 1.43-1.11 1.32.1 1.42-.81 1.02-.82 1.32-.91 1.52-1.02.81-.3 1.83-.92 2.44-1.11.61-.11 4.88-2.33.81-.31 2.34-1.12 1.32-.3.71-.3.41-.11.91-.5 2.34-1.22.51-.31 2.03-1.22 1.12-.71 1.11-.81 2.04-1.63 1.93-1.62 1.11-1.02.61-.51 7.12-6.09 1.01-.81 1.02-.92 3.25-2.94 4.47-4.07 9.45-8.53.81-.71 1.02-.92 10.56-9.55.51-.51 1.63-1.52.51-.41.2-.3.3-.81.31-.31 2.74-2.34 6.71-6.29.51-.51 1.01-.41.61-.3.21-.21.71-.5.71-.72 4.27-3.65 1.72-1.73 7.52 10.97 1.12 1.73.51 1.02.5 1.82.61 4.88 13.62-.71.3 11.38.21 6.91.4 13.61.82 26.31.1 8.64.3 6.8.11.92.1 1.12-1.12 23.16-.71 1.83 2.33 23.87 3.76 38.2.41 7.62 1.22-.1 1.52-.1 70.42-4.47 1.52 24.38 33.12 1.22 15.55 12.9.1 2.34.1 4.47.21 3.15.3 4.98.1 2.74.31 5.08 1.01 21.94.21 8.44.1 3.35.2-11.79.31-3.04 14.32.5h22.66l7.93-.1h.81l1.73 43.59 27.53-1.32.2 2.84 19.41-.41v6.51l11.79 2.64 64.21 15.74 2.24-33.62-.41-.41-1.12-1.12-1.12-1.01-.91-1.02-.81-1.12-1.12-1.62-1.12-2.03-1.62-5.79-1.43-22.36 14.03-.6 78.23 69.28 9.35-10.46 11.58-2.64-.51 3.65-7.92-1.22-1.32.21-1.22.4-1.12.61-1.22 1.02-.81 1.32-.51 1.52-.3 1.83.3 2.85 1.32 5.99 1.53 7.62.4 2.24v2.03l-.4 1.12-.51 1.01-.82 1.32-1.11.92-2.85 2.03-8.33 4.77-1.32.92-1.63 1.62-1.32 1.73-.91 2.03-1.02 3.05-.3 1.32-.31 1.93-.1 1.12-.1 1.52.1.41-.1 1.52.1 1.12.31 2.54 1.42 8.94.41 5.49-.11 5.38-.71 4.88-.81 2.84-1.83 4.98-.61 2.54-.2 1.83.1 2.23.51 1.63.71 1.83 1.01 1.83 1.12 1.52 1.32 1.22 1.63 1.02 2.95 1.52 1.32.71 1.32.92.71.6.4.61.61 1.12.51 1.83.21 4.37h-5.29l-.61.1-.51.51-.71 1.01-.3 1.22-.1 1.12.61 10.97 2.84 52.32.1 6.51-.2 12.7.71 15.34 1.53 30.47.1 1.22.3 1.53.41 1.11.51 1.12 5.48 11.48.51 1.02.41 1.32.3 1.12.21 1.52.1 3.25h2.44l3.35.61 3.66 2.03 1.72 1.12 1.22 1.83.1 3.86-.61 2.13-2.03 2.64-1.72 1.02-2.24.81-5.28-.3.2 6.91 40.95-1.02 5.18-.1 16.66-.51 8.94-.3h.92l20.62-.61 3.15-.1 4.68-.11 11.38-.4 8.94-.31v-7.41l.3-1.63.92-1.52 3.55-3.86.82-1.63.4-1.42 2.03-22.96.21-1.53-.1-3.25.5-2.64.31-.91.51-.71.51-.61.5-.31.41-.3.41-.21h1.32l1.01.21 8.84.51-1.72 23.77-.31 4.27-.2 3.55-.21 3.05v4.47l-.3 4.57v5.18h1.83l2.44.1 7.31.31h1.02l3.15-.1 18.08-.61 17.58-.61 31.3-1.32 11.48-.41 17.27-.51 12.8-.4 12.5-.41 10.77-.71 15.04-.2 7.62-.21 11.17-.51 17.79-.5 16.05-.82 15.95-.1 6.71-.2 3.05.3 2.84.41 4.27.91 4.47 1.22 9.45 2.75 5.48 1.42-2.23 3.15-1.12 1.93-.91 3.25-1.32 4.88-1.83 3.96-2.44 2.84-1.53 2.24-.5 2.54-.11 2.03-.1 2.03.31.2 1.22 1.53 1.42 1.83 1.83 1.83 2.23 2.94 1.53 1.42 3.05 1.32 4.06.92 4.27 1.52 3.05.92 1.72 1.01 2.14 2.54.91 3.25v.82l.31 2.03-.61 2.03-.92 1.22-1.42.71-2.74.61-3.46.1-3.15.51-2.94.91-1.63.82-.2.4-1.53 1.83-.61 1.53-1.93 3.04-1.52 3.05-.41 2.85.1 1.62.61 3.46.41 3.45-.91 2.85-1.12 1.93-2.24 2.23-2.54 1.73-1.22.81-.71.61-.2.81.2 1.02 1.02 2.44 1.42 2.84 1.93 2.34 2.85 4.57 3.25 3.05 1.62 1.93 1.32 3.25 1.83 4.16 1.32 3.46-.3 3.66-.61 3.45-.41 3.35-1.83 2.24-1.11 1.62-1.12 2.03-1.73 4.17-1.32 4.88-.81 4.06.2 1.83.41 2.03.71 2.24 1.22 4.47-.31 3.04-.51 2.24-1.82 2.23-1.83 2.54-.41 2.44.41 2.85 1.01 1.62 2.34 2.95 1.63 2.84-.31 2.44-.2 1.83-.71 2.64-1.63 1.83-1.52.91-2.24.82-1.12 1.42-1.83 3.76-1.62 3.25-2.03 1.73-2.65.2-2.43-.91-2.04-.82-3.35-1.72-2.44-.11-5.48-.91h-2.85l-2.95.41-.5.5-1.73 1.63-1.12 1.12-.91 2.84-2.44 2.34.81 27.33-.1 11.17 2.24 26.32.4 10.05.51-.2 12.09-1.73 9.25-.51 1.72-.1 19.82 4.88 8.33 2.95 164.09 85.84.61.31.61.3 34.85 18.7 9.55 6.6 19.41 21.64 6.3 9.35 4.16 80.25-46.33-28.14-16.66-7.41-18.9-.41 3.56 53.95 4.87 81.47.51 13.21-.61 5.49-1.42 6.6-1.52 3.76-2.55 6.81-13.31-7.52-3.65-1.93-14.13-8.33-3.55-1.73-8.64-4.88-4.98-2.54-10.46-4.06-.41 2.24-.2 2.43v2.75l.3 4.77.51 7.52.71 7.11.31 2.44.3 1.73.51 1.72.71 1.93.81 2.14 2.34 5.38 2.34 6.71.51 1.72.3 1.63.3 2.34-.1 2.13-.3 2.95-.51 2.74 9.25 6.5.91.92.31.4.3.41.1.41.1.4v.51l-.1.51-.1.51-.2.5-.1.21-.21.2-.4.41-.41.3-.71.51-5.59 3.55z" stroke-linejoin="round"/></defs><use xlink:href="#d" fill="#6bacaf" stroke="#6bb4d2" stroke-width="5.76"/><defs><path id="e" d="M1432.74 1547.07l-8.03-10.57-1.12-1.42-.1-.2-.81-.81-1.32-1.22-1.33-.92-1.11-.51-1.02-.71-1.22-.81-.61-.3-.51-.31-.61-.3-1.01-.41-.71-.51-1.32-.71-.31 1.93-.3.71-1.22 2.44-.1.91-1.12 1.43-1.02-1.43-.4-.5-.72-1.02-1.32-1.83-1.83-2.33-.91-2.54-.71-1.63-.51.41-.41.3-1.11 1.22-7.62 7.31-4.98-6.19-3.36-4.07-3.55 4.07-2.14 3.05-1.52 2.84-7.21 7.01-.71-1.32-.21-.91-5.48-19.21-.51-1.93-1.32-5.18-2.44 1.93-4.17 3.25-1.12.92-.4.2-5.89 3.46-1.12-3.56-.31-1.52-1.32-8.34-1.01-6.09-3.66-13-2.24-6.1-4.67-19.4-8.84-24.79-13.31-29.47-1.63-3.75-5.18-11.59-16.97-3.04-18.08-12.3-9.86-5.38-1.62-1.93-24.39-27.84-1.32-2.44-1.52-2.84-.21-.2-3.25-2.95.31-2.13 2.43-2.14.82.61 2.13 3.66 1.73 2.95 9.65 13.51 2.85 1.22 1.42-.71 17.37-23.98-.3-2.03-1.63-1.63-16.66-10.06-2.24.21-2.84-.92-1.93 2.03-1.73 3.05-1.83.61-1.42-1.52.81-6.1-.81-3.45-13.62-10.97-1.93-1.63-1.22 1.02 1.43 16.96 6.81 9.96-1.63 3.15.2 1.52.1 1.63-1.32.1-2.44-2.13-24.79-40.03-7.82-8.13-7.42-7.72-62.08-55.78-7.52-4.87-25.2-7.62-6.5-1.83-13.21-2.74-.5-.1.1-1.63h.61v-.71l.1-2.85.1-5.38.61-5.89.41-3.76.5-3.35 1.02-4.27.51-2.03 1.01-3.46.82-2.03 3.76-8.74 4.06-8.02 2.34-5.79.51-1.02 1.72-4.67.61-1.93.51-1.93.51-2.85.2-2.64.2-2.84-.4-9.66-.41-4.26-.3-3.05-.21-2.24v-1.52l-.3-5.59-.61-4.57-.81-11.17-.21-1.43-.1-1.32-.1-.5v-.92l-.2-4.06v-.82l-.1-.81-3.15-47.34-.11-2.74-.1-.92v-8.33l.1-1.62.31-3.56.1-1.52.31-3.36.6-3.86.31-3.15.51-4.26 1.12-10.37.3-2.33.51-3.46.91-9.04.41-5.69.1-2.94v-5.19l-.1-8.02-.81-13.82-.31-7.62-.71-1.32-.71.61-4.78-1.12 3.66 5.29-5.28.2.61 15.44-9.96-1.32-.3-2.54-.31-2.74-.51-3.05-.2-.71-.1-.92-.21-1.72-.3-2.03-.1-1.73-.21-2.85-.1-5.38 8.94-.2h1.93l1.63-.11h5.39l1.11-.1 5.08-.1 4.98.1 8.94-.2h11.89l1.83-.1 5.08-.2 2.24-.21 4.36-.3 8.44-.82 3.25-.2 5.18-.4 6.61-.41 3.65-.31 12.91-1.32 2.44-.4 1.52-.1 4.67-.41 14.13-1.53 3.45-.2h3.05l17.88.1h17.68l12.4-.5 10.46-.41 10.16-.31 5.69-.3 3.25-.1.61-.1h.41l.51-.11 6.6-.2 2.95-.3 2.84-.21h1.93l4.58-.3 1.62-.1h1.22l3.76-.1 4.98-.21 2.95-.2 3.76-.2 5.58-.41 5.19-.31 6.6-.5 11.18-.71 7.21-.31h8.03l5.79-.3 4.88-.82 2.03-.4 1.83-.21 1.32-.1 2.34-.2-4.78-19.91-3.25 1.11-.2-7.62-.51-8.12-.41-7.62-2.03-31.6-.41-14.42-.71-2.34.2-1.93h-.71l-.3-1.83.1-4.37-.91-.2-1.83-.61-1.53-.51 4.88-19.3-1.42-8.54 2.03-2.84 1.42-1.12v-1.93l-1.22-1.83-2.03-1.62-.71-.71-.41-.92-.91-1.93v-.81l.3-.61.41.1.71-.1 1.32.61.71.71.82.81.71-.1.4-.81-.4-12.5-3.36-3.15-2.23-2.94-.1-4.98.2-2.95.3-1.52.11-1.63-.21-1.01-.3-.51-.31-.61-.5-.71-1.02-1.83-.41-4.98.1-.3.11-.21.2-.1h.2l1.93.81 2.14 1.73 7.52-3.15-.92-2.64 5.39-1.22 3.15-2.44-2.54-7.92.5-9.25.51-1.42 1.02-.91 1.42.3 1.83-1.01 2.34-1.63.91-1.32 2.85-1.63 3.45-1.52 10.77-.91 4.27-2.95.4-7.62-4.67-6.81-1.32-3.35-3.15-8.13-1.83-.71-11.48.82-9.15 8.83-7.41-4.97-11.69-2.65-.1-2.94-.1-2.85-.1-1.93-7.72-.61 3.55-11.07 8.64-26.62 1.62-4.77 9.25-.41 8.03-.61 1.83-.2 2.64.2-.31-1.73-1.93-38.91 40.24-1.93-.2-8.73-.51-8.23-.1-2.24v-.61l-.21-3.35-.91-19.51-.71-13.71-.21-4.88 13.52-.4 26.82-.82.81 19.1.41 9.96.2 2.13v3.97l14.23-1.12.4 16.56-5.18 4.06 28.76-4.57 12.9-2.54 3.05 3.35 3.76 3.66 3.35 2.34 2.03 1.52 2.54 1.73 4.58 3.35 3.76 3.25 4.47 3.15 4.47 3.05 2.94 2.13 3.66 2.64 2.95 2.14 1.52.91 1.42.92 2.04 1.11 1.62.92 1.32.71 2.14.91 20.62 8.33 2.03.61 1.83.51 1.63.51 14.53 6.09 2.13.92 4.88 1.93 1.62.61 4.27 1.83 5.49 2.44 13.31 5.99 6.4 3.15 2.54 1.22 2.74 1.22 5.59 2.64 7.62 3.66 1.22.5 2.03 1.02 1.63.81 1.12 28.04.4 11.69.71 19.81-.71 1.83.71 2.64-.2 1.42.81 11.78 40.75-.5-6.2 6.6 6.5 7.52.82 23.26.4 7.93.41-.1 2.95-.21 2.03-.51.2.61.41.51.3.31.51.2.51 5.69 2.44 3.76 3.15 4.67v6.3l-2.65.1-3.86.1-5.89.31.51 7.21-1.02 3.76 2.64 35.15-9.95 3.15-12.09-4.27-16.16.31-1.22.1v3.86l.31 10.67v2.74l.2 6.2.3 16.25.11 5.29-1.53 8.43v8.74l.2 2.43h-1.01l.1 3.36.71 11.07h-.4l-.11 4.98-.5-.31 1.62 3.76 3.05 1.32 1.83.61 2.34.71 2.13.72 1.73.6 1.52.21 1.73.3.51.1 1.21.31 2.04.41h.3l4.17.71 6.5 1.11 15.55 2.75 2.03.2-1.02 1.12-2.74 2.94-1.73 2.75-1.22 3.55-1.32 4.78-2.64 8.43-1.42 3.66-.21.91-2.64 8.64-.1.71-1.32 4.57-1.02 4.17-.71 1.72-.2 1.83-.92 4.37-1.62 2.03-.31 1.73h4.17l2.95-.1 2.74-.1h.2l1.12.1h1.52l1.53.1 1.12.2.4.1 3.25-.71 4.78-4.16 1.42-1.02.81.1 1.02.21.2.1 1.22.4 3.25 1.63 1.53.3 1.01.11h3.76l4.78-.51 8.64-.1 2.13-.21h4.57l.61.1.81-.1 2.34-.2h1.63l5.38-.1.71.3.51.21 1.12.5-7.82 3.05-.21 5.28-2.74 2.34-.31.31-.3.81-.2.3-.51.41-1.63 1.52-.51.51-10.56 9.55-1.02.92-.81.71-9.45 8.53-4.47 4.07-3.25 2.94-1.02.92-1.01.81-7.12 6.09-.61.51-1.11 1.02-1.93 1.62-2.04 1.63-1.11.81-1.12.71-2.03 1.22-.51.31-2.34 1.22-.91.5-.41.11-.71.3-1.32.3-2.34 1.12-.81.31-4.88 2.33-.61.11-2.44 1.11-1.83.92-.81.3-1.52 1.02-1.32.91-1.02.82-1.42.81-1.32-.1-1.43 1.11-1.22 1.02-.4.51-.81.91-.72.61-.61.71-.91.82-1.12 1.32-1.42 1.72-1.32 2.14-.81 1.11-1.53 2.54-2.13 4.07-1.22 2.44-1.22 2.33-.51 1.02-2.33 4.47-.92 1.62-4.27 7.83-7.82 14.83-2.54 4.77-1.63 3.26-1.11 2.23-.51 1.42-.92 2.24-.5 1.22-.41.91-.41 1.63-.61 2.03-.61 2.44-.4 1.32-.21 1.83-.5 2.23-.51 2.74-.31 3.15-.1 1.73-.1 2.44v5.08l.1 2.44 1.02 15.14 1.01 13.81.11 1.63.81 12.8.1 2.13.81 14.53 1.02 14.93.51 7.52.5 8.23.31 5.89.3 3.15.31 5.39.91 12.49 1.12 21.13v1.53l-.3 2.23-1.02 4.07-.81 2.94-.92 3.86-1.32 6.2-1.52 6.91-1.53 6.5-.1.61-1.42 5.79-1.52 6.2-.31 1.22-1.22 5.79-.2 1.12-.92 4.37-.5 1.82-.61 2.54-.92 2.95-.81 3.25-.41 1.73-.51 1.12-1.42 3.35-2.44 5.28-.61 1.53-1.22 2.03-.71 1.22-1.11 2.13-.31.3-2.95 4.37-1.32 1.63-1.01 1.42-1.22 1.63-.92 1.22-2.64 2.64-3.45 3.45-1.63 1.63-.91.81-3.46 3.05-6.5 6.4-10.57 10.06-7.11 6.9-.41.41-2.43 2.23-15.65 14.94-2.13 2.03-10.57 10.16-4.68 4.57-8.23 7.82-5.58 5.19-1.32 1.42-1.73 1.62-1.73 1.53-11.18 10.36-13 12.7-13.01 11.48-17.37 17.37-6.81 6.61-6.81 6.29-2.03 1.94-17.47 16.86z" stroke-linejoin="round"/></defs><use xlink:href="#e" fill="#09757a" stroke="#097d9b" stroke-width="5.76"/><defs><path id="f" d="M1539.01 1736.44l-14.73 16.36-16.97 11.27-6.91-3.86-35.25-18.28-17.17-15.04-.72-.71-18.59-19.51-10.46-10.77-5.8-9.24-.2-.41-.3-.4-27.03-39.42-6.61-13.51-3.65 2.23-2.54 2.03-2.44 1.93-1.93 1.73-6.2 4.06-6.5-10.36.2-.1 4.78-3.15 2.84-1.83 5.49-4.26.61-.31 2.13-1.73-9.04-10.26-8.33-10.06-4.58-5.18-.5-1.62-.31-1.12-.1-.51-.31-.51v-.61l2.34-1.21 1.22-.72 3.86-2.43.61-.31-.1-.71-1.52-3.35-3.66-6.71-.31-.2-.5-.51-.61-2.34-.51-1.52-.21-1.83-1.72-8.13-.41-2.03-.51-2.94-.3-6v-7.01l-.92-9.95 4.68-8.03-2.03-6.7 5.89-3.46.4-.2 1.12-.92 4.17-3.25 2.44-1.93 1.32 5.18.51 1.93 5.48 19.21.21.91.71 1.32 7.21-7.01 1.52-2.84 2.14-3.05 3.55-4.07 3.36 4.07 4.98 6.19 7.62-7.31 1.11-1.22.41-.3.51-.41.71 1.63.91 2.54 1.83 2.33 1.32 1.83.72 1.02.4.5 1.02 1.43 1.12-1.43.1-.91 1.22-2.44.3-.71.31-1.93 1.32.71.71.51 1.01.41.61.3.51.31.61.3 1.22.81 1.02.71 1.11.51 1.33.92 1.32 1.22.81.81.1.2 1.12 1.42 8.03 10.57 3.96 5.08 3.86 5.08 3.56 4.98 3.75 5.08 7.62 10.26 7.63 9.85 6.19 8.64 1.12 1.52 10.06 13.21 4.88 6.3.91-.92 1.12-.2 2.84-2.54 4.07-4.06 4.27-4.07.3-.3 1.93-1.93 1.93-1.83 1.22-.51.91-.3 1.02-.31.81-.1.61-.1.82-.1h.71l1.93.5 2.84.72 3.66 1.01.61.31 4.27 1.42 2.84.91 1.32.51 1.43.31 1.83.4 1.01.1 5.28.11h1.83l.21 5.68v5.9l.1 4.87v14.63l.1 7.42v6.1h10.47l-.11-6.2-.1-7.22 7.11-.5.92.2.91.51.31.71.1 8.94-2.74 3.76h2.64l8.43-.1 3.86.1 10.16-.31 8.64-.1 2.84-.1 4.07.41h.1l4.98-.1 6.3.2 1.01.2.51.1.51.31 3.96 4.16.61.31.31.1.51.3 1.01 1.02.61.1 1.22.51 1.02.41 1.52.2 1.02.1.91.2 1.42.11 1.43.2 1.11.3 1.32.51 2.04 1.02 1.72 1.12 2.14 1.11 1.12.61-24.9 38.71-1.62 2.84-1.53 3.36-.61-.51-.91-.81-1.12-.82-.3-.2-.92-.71-.51-.31-.81-.5-.41-.21-.5-.1.3 5.79.92 16.77-27.34-3.76-34.75 13z" stroke-linejoin="round"/></defs><use xlink:href="#f" fill="#004249" stroke="#00465f" stroke-width="5.76"/></svg>