<svg width="384" height="4.86in" viewBox="0 0 2880 3496" xmlns="http://www.w3.org/2000/svg" xmlns:xlink="http://www.w3.org/1999/xlink"><path fill="#fff" d="M0 0h2880v3496H0z"/><defs><path id="a" d="M1597.66 3457.54l-79.87 3.72-32.67.54-27.97-127.49h-1.53l-1.31-.33-1.96-.65-.99-4.37-2.4-9.29-.22-1.42v-1.31l.11-4.37-.11-3.06-.22-3.17-.22-.87-.43-1.75-.33-1.2v-1.09l.65-4.05.44-3.27.22-3.06.11-4.26-.11-3.72-.22-2.29-.87-6.12-.66-3.17-1.31-5.35-.22-1.42-.22-2.08-.32-5.46-.33-2.62-.11-1.64v-3.06l.55-5.24.1-1.21.55-1.85 2.19-5.47 2.62-6.55 1.31-3.93 2.18-6.56.66-1.97.44-1.74.11-.77.11-1.31-.11-1.97-.22-1.63-.44-1.97-.55-2.95-.43-3.82-.44-7.54-.11-3.94.11-2.95.55-6.66.11-3.82-.11-3.5-.22-4.15-.55-5.24-.33-4.92-.76-17.48-.33-12.78-.33-13.77v-8.63l-.11-1.31-.21-.55-.22-.32-.66-.66-.33-.22h-2.4l-6.34.22-29.06.76-9.72.44-.99-.22-.65-.54-.22-.99-.11-1.2-.65-26.65v-6.45l-.33-7.32-.77-29.17-.54-21.3-.22-7.65-.55-18.57-.33-11.37-.32-14.09-.11-1.2-.22-1.09-1.09-2.63-.88-2.18-.54-1.2-.55-1.42-.33-.99-.11-.32v-.55l-.11-2.4-.11-2.63-.11-7.1-.11-6.11-.1-3.61V2922l-.11-4.37v-2.18l-2.41.32-4.48.55-4.8.44-5.03.32-5.46.33-6.01.11-30.27.88-4.91.1h-2.41l-5.68.22-7.43.22h-.65l-18.36.44-31.24.87-3.83.11-45.89 1.2-2.29.11-1.31-48.61-.22-6.78v-3.06l-.11-6.11-1.31-45.45-.11-4.04-.11-.77-.44-.44-1.74-.11-60.64 1.64h-4.81l-.65-.22-.44-.32-.55-.44-.54-.66-.66-.98-.44-.87-.22-.77-.1-.76-.66-14.42-1.53-44.03-.11-1.86-.22-5.46-.11-11.25-.32-9.4v-2.51l-.33-11.25v-3.17l-.55-24.26-.22-5.02-.32-14.75-1.21-37.04-.11-7.43-.32-7.42-.22-8.31v-1.96l-.33-10.49-.11-.77-2.51-7.97-.44-2.08-.11-.98v-1.31l1.53-10.93 1.31-12.23.44-3.39.44-3.71 1.31-10.16.43-3.28.99-7.76 1.64-12.12 1.53-12.46-27.65 1.31-2.07.11-2.62.11-3.72.11-2.84.22h-3.28l-.43-.11-.44-.11-.44-.22-.43-.33 2.62-4.91 20.1-37.15 9.94-18.68 10.05-18.57 1.21-2.3 1.53-2.84 1.2-2.29 1.53-2.62 1.42-2.63 1.31-2.51 6.44-11.91 10.49-19.44 2.73-4.81 2.52-4.92 5.24-9.72 2.19-3.82.43-.88 4.48-8.41.77-1.31-2.3-1.53-2.18-1.42-1.2-1.2-.66-.99-1.2-2.18-.98-2.51-1.42-4.15-.99-2.19-.32-.44-.88-.65-2.4-1.64-2.62-1.42-4.7-2.95-3.72-2.19-3.38-1.63-3.72-1.64-3.06-1.1-1.75-.98-1.53-.87-1.2-1.1-.33-.32-1.09-1.42-.87-1.21-2.52-4.91-1.42-2.3-.98-1.53-.98-1.09-1.2-1.2-1.42-1.2-1.64-1.09-2.41-1.42-6.22-4.7-6.67-4.92-2.4-1.86-1.42-1.31-4.05-4.58-1.2-.99-1.2-.87-1.53-.88-6.55-2.84-11.04-5.02-10.05-4.81-11.69-5.9-2.3-.76-2.07-.66-.66-.11-6.33-.33h-5.36l-14.75.99-2.95.11h-1.85l-.77.76-.65.77-.44.43-.88.88-12.67 13.33-.87-1.64-.33.54-14.1 14.53-14.2 14.97-6.99 7.65-7.21 7.54-14.75 15.29-9.07 9.51-12.78 13.32-7.1 7.65-7.22 7.54-7.1 7.54-7.43 7.65-6.99 7.43-19.67 20.43.44-4.59v-5.79l-.22-7.54-.54-14.86-.22-7.65-.22-3.17-.11-.43-.22-.33-.98-.77-.98-.1-15.41.32-8.96.33-9.07.11-18.57.76-9.4.11-9.5.44-9.18.22-2.62-.11-.55-.11-.43-.22-.11-.22-.22-.76-.11-2.73-.44-6.78-.22-.98-.11-.44-.43-.54-.33-.33-.98-.11-3.83-.11-2.18.11-3.61.11-61.73 1.75-18.57.44-13.22.43-16.5.33-9.61.22-.66.11-1.09-1.42-.22-.22-1.86-2.08-.98-.98-2.08-1.86-2.29-1.53-2.3-1.31-3.82-1.53-1.09-.65-1.64-1.53-5.79-4.81-1.1-1.09-.54-.88-.66-1.09-.43-.65-.66-.44-1.53-1.2-1.31-1.2-.66-26.44-1.2-46.43-.54-17.7-.33-13.33-.88-38.89-1.31-54.52v-5.13l-.22-.88-.21-.76-.22-.22-.44-.44-.76-.22-1.21-.11-12.45.44-7.21.22-.11-2.84-.55-18.14-.43-15.29-.99-35.4-.33-15.4-.43-9.73-.22-11.58-.11-1.42-.33-1.74-.98-3.94-1.2-4.7-.22-1.53-.11-4.69-.44-18.47-.65-22.83-.66-17.92-.33-18.68-.11-6.55-.11-4.92-.21-7.43-.11-4.15-.11-1.64-.11-3.71v-2.84h1.64l2.18.11 2.19.1 2.07.33 2.19.33 2.07.44 2.08.54 1.75.44 1.53.55.11-.44.11-.33.11-.22.1-.22.11-.1.22-.33.11-.11h.11l.11-.11.11-.11h.22l.11-.11h.32l.44-.11h1.97l3.06-.11 9.18-.22 5.24-.11 13.22-.43 19.12-.44 18.14-.44 2.4-.11h1.31l.77-.21 1.31-.55.98-.55.76-.76.33-.44.66-1.31.76-1.42 9.84-22.61 10.27-23.27 3.38-7.87 3.28-7.76 6.12-15.73 4.48-8.96 10.16-19.66 1.42-3.06.33-.66.33-1.31.21-1.09-.11-1.75-.21-10.81-.44-13.99-.98-36.16 1.74-.44 1.31-.54 1.43-.66.43-.33.44-.43 1.53-2.3.65-.54.44-.22.44-.11 2.18-.11 5.03.11 27.2.11 8.53-.22 15.73.22h44.9l13.88.11h10.82l13.54.21 9.84-.1h22.07l19.77.1 4.92-.1.22.1.22.11.21.11.33.44.11.22h.55l.22-.22.76-.98 2.19-1.64 2.4-2.4 2.29-2.41.88-1.31.65-1.86.33-.98.33-.87 1.64.11 4.8.65 2.08 70.79 1.75 63.59 117.23 3.06 3.93.76 8.2 1.75 8.3 1.53 17.05 3.5 5.13.87.77.22.54.33.55.32.22.33.32.55 1.1 3.06 3.17 6.99 5.68 13.76 5.13 12.9 5.79 14.2 2.62 6.77 1.1 3.06 2.51 9.72.33.99.54.43 1.21.33.65.22.66.33 2.84 2.29 1.75 1.31.21.44.33.44v.54l-.11 1.53v1.97l.33 1.86 1.31 3.82.22.66.22 2.95 1.09 8.19 2.4 22.51.11.54.33.22.66.22h1.2l2.73-.22 2.3-.11 8.95-.44 10.71-.43 5.57-.22 3.83-.22.54-.11.33-.33.11-.22v-1.63l-.66-12.9-.1-4.37v-2.07l.1-.44.11-.33.22-.22.22-.21.66-.11 9.39-.22 13.55-.55 21.96-.87 10.16-.44 30.27-1.09 12.34-.33 15.63-.65 3.49-.33.77-.11.32-.11.44-.33 5.25-6.77 2.84-3.83 12.45-15.4 3.39-4.48.11 2.51 1.75-2.18.76-.88 11.91-15.4 9.4-11.8.87-.11 14.75-19.01.55.66 4.15-5.36 2.51-.21 1.2.11h10.49l3.93-.11 36.82-.99.77.11.54.11.44.11.22.11 10.05-13 19.67-25.13.65-.98.66-.66 2.62-3.27 8.96-11.58 3.5-4.38 1.85-2.84 1.21-1.63 1.09-1.53 1.2-2.19 2.73-3.49 4.04-5.03 9.62-12.35.98-1.2.66-.54 1.42-.66 2.07-2.84 12.13-15.51 6.23-7.65 6.01-8.08 6.01-7.65 16.6-21.2 6.01-7.54 8.74-11.25-.32-.22-.55-.32-.44-.33-1.42-1.2-4.7-4.05-4.91-4.15-4.7-4.04-6.34-5.57-2.4-1.86-5.68-4.81-1.42-1.31 1.75-2.18 2.51-2.3.11-.65.11-.44.11-.22 2.73-3.49 1.09-1.42 1.53-2.08.44-.76 2.95-4.48 1.31-1.86 1.2-1.53.11-.33.54-.87.55-1.2 1.09-1.31 2.08-2.63 31.47-40.2 24.14-30.81 13.66-17.59.98-1.31.66-.55.43-.43.55-.44.44-.55 1.31-1.42 1.2-1.42 1.53-1.74 1.09-1.21 1.53-1.74 1.42-1.53.88-.99 1.09-1.2 1.64-1.96 1.31-1.53 1.53-1.97 2.18-2.84 3.5-4.48 2.95-3.72 2.51-3.27 1.53-2.19.99-1.31.87-1.2 1.75-2.51 6.88-8.96 2.4-3.06-.43-1.09-.33-.55 5.46-6.99 4.92-6.23 8.52-10.71 24.26-30.91.32.11.88.43.65.33 19.89-25.89 3.17-4.26.76-.88 5.46-7.21 1.86-2.4-.98-.44-.66-.22 22.29-28.51 19.34-24.69 29.83-38.24.21-.22.22-.21 13.99-17.81 22.4-28.63.76-.98 7.54-9.94.76-.77-.76-.32-3.06-1.1 1.97-2.51.11-.22 1.53-1.64.43-.43.44-.55 1.75-2.18 1.75-2.08 1.85-2.08 1.64-1.85 2.3-2.52.43-.54 1.21-1.42 1.31-1.42.87-1.09 1.97-2.52 1.2-1.42 1.2-1.53 1.75-2.18 3.17-4.04 4.59-6.01 1.09-1.21.54-.76.77-.98.55-.66.43-.54.44-.77.55-.65.43-.66.33-.55.33-.65.65-1.09.55-.99.55-.98.54-.88.66-.87.22-.33.43-.54.44-.66.44-.44.44-.65.32-.44.22-.22.22-.22.33-.1.22-.11h.87l.33.21.22.22.22.11.1.22.11.33.11.54 1.31-1.85.44-.44.44.33-.11-.77.55-.65.65-.88.55-.76.54-.66-.11-.54-.32-1.97-.33-1.97-.11-.87-.11-.65v-1.42l.11-.88.11-.98.11-.55.22-.65.21-.66.33-.55.44-.98.55-.87 5.57-7.21 4.91-6.23 5.58-7.1 1.2-1.64 3.93-5.03 5.46-6.99 2.52-3.17 1.75-2.29 1.52-1.97.77-.87.98-1.31 1.2-1.64.66-.87 1.2-1.32.66-.87.54-.55.55-.54.44-.44.54-.33.44-.54.55-.44.65-.44.66-.43-1.42 1.42-.66.76-.65.87-.77 1.1-.65 1.31-.88 1.75-.76 1.74-.44 1.1-.22.87-.33.87-.43 1.1-.22.54-.44 1.31-.44 1.53-.43 1.42-.22 1.42-.22 1.53v1.42l2.19-2.84 7.53-9.61 1.42-1.75.55-.76 1.09-1.53.66-.77 6.99-8.96 1.2-1.63.99-1.32.32-.43 1.64-2.08 1.42-1.86 1.21-1.53.65-.87 1.2-1.53 1.2-.11h4.48l2.63-.11h1.74l2.19-.11 12.24-.32 11.25-.44h3.5l7.1-.33 3.28-.22 3.16-.11 2.63-.11 2.84-.11h1.53l5.02-.21 3.72-.11 11.03-.22 4.04-.11 8.42-.33h1.85l4.48-.22h1.21l3.82-.11 4.92-.21h1.96l1.1-.11 6.55-.22 4.7-.22 14.09-.44h.55l6.66-.33.88-.11h3.38l3.17.33.55.11h3.93l3.28-.11 2.51-.11 4.59-.11 7.32-.21 7.21-.22 7.21-.33 7.21-.33 7.22-.33 12.34-.43h.98l1.21-.11h1.31l6.66-.22 1.64-.11 1.53-.11 1.09-.11 1.75-.33 1.09-.21 2.3-.44 2.51-.55 2.41-.44 7.21-1.52 6.99-1.42 7.32-1.53 7.21-1.53 7.21-1.42 7.1-1.42 7.32-1.53 7.98-1.64 5.79-1.2 8.96-1.86 13.44-2.73 2.29-.44.55-.22 5.24-1.2.44-.11.22-.11.54-.11.33-.11.44-.22.33-.21.21-.22.22-.11.22-.11.77-.66-1.97-2.4-3.93-4.92 2.95-.87 3.49 3.39.99 1.2 3.16 3.6 9.62-2.73 9.94-2.51.77-.55.98-.43 6.01-1.31 8.52-1.86.87-.22 8.85-2.4 4.26-1.42 2.19-.77 5.68-2.07 1.97-.44 4.59-.77 1.42-.21 22.39-4.81 1.42-.11 1.97.22 3.17.65 2.84.33 2.62.11 55.61-2.19 5.14-.43 1.42-.11h1.64l14.09-.33 4.37-.44 7-1.96 2.62-.88 2.62-.98 4.37-2.19 6.23-3.93 12.02-13.76 1.2-.55 1.31-.44 14.53.22.98-.44 4.48-5.13 1.86-3.06-.66-.44-.87-.54-1.86-.55-1.96-1.31-.55-.22-3.5-3.06-4.26-4.15v-.33l.88-1.64v-.54l-.33-.33-1.31-1.09-3.06-1.97-3.17-2.07-8.3-7.76-7.43-6.34-.55-.43-13.87-13.99-2.19-1.86-1.09-.65-.33-.11h-.11l-.44.22-.32.33-.11.21.11 4.05v.98l-.22.33-.22.33-.55.21-.22.33.11 1.31.33 1.86v.77l-.11.43-.11 1.53.11.44.22.22.22.11.11-.22.33-1.09.11-.22.32-.11.44.33.33.32.11.44v.33l-.44 2.62-.33 1.53-.65 3.6-.44 1.53-1.2 3.06-.22.44-.33.33-.87.65-.66.55-.43.76-.11.44-.33 1.75-.33 1.86-.87 2.51-.99 4.7-.32.54-.22.22-.22.11-1.97.33-.11.22v.65l.11.44.22.22 1.09.76.22.22v.77l-.22.32-1.2 1.42-.22.22-.33-.11-.65-.32-.77-.22-2.29-.33-1.86-.22-.98-.11-.55.22-.65.22-.77.55-.76.54h-.44l-.98-1.97-.11-.32v-.33l.11-.44.65-.54 1.75-1.97 2.62-3.72 1.53-3.05.99-2.52.65-2.18 1.31-6.88.44-2.74.22-3.16.11-5.14-.11-5.35-.11-4.15-.22-4.37-.87-4.05-.55-1.74-.55-.88-.65-.54-1.53-1.21-7.1-5.02-4.37-3.5-.99-.98-5.02-4.26-2.19-1.75-1.75-1.09-3.16-1.42-2.95-1.2-.66-.11-1.53 1.09-.65.11h-.77l-.98-.44-3.61-1.2-8.74-2.84-5.46-1.64-.55-.22-.54-1.2-.22-.22-.11-.11-.55-.11h-4.26l-1.86-.11-2.07-.43-1.31-.22-3.17-.44-2.73-.11-7.98.11-2.29.11-7.76 1.31-1.97.44-1.53.55-2.29.43-2.08.44-3.93.65h-1.09l-.66-.21-.44-.33-.54-.11-1.53.55-4.37 2.07-5.03 2.3-.54.1-.11-6.88 32.77-10.16 39.01 4.7 11.47 5.9.87.44 17.81 8.95 6.45 2.74 3.17.65 2.51-.44 1.64-.87 2.08-1.09 3.38-2.19.77-1.09.98-1.31 1.75-14.2 1.42-2.08 1.97-.98 20.32-8.09 1.53-.22 1.09.44.98.66 9.4 6.22 5.24 10.38.66 1.42 16.93 17.05-.32 12.78-7.32 15.95 11.47 33.87 22.07 19.33 29.39 3.39 6.33-3.06 11.26-9.18 16.17-17.04 5.9-2.73 7.65-1.97 3.27.11 2.84 1.1 11.58 6.88 1.21.65 2.62 1.64 2.62 5.03 1.09 7.32-.32 2.4-1.53 2.62-14.53 14.64-12.46 10.6-2.19 3.39-.21 4.48 1.42 7.21.43.76 8.42 16.06 4.37 8.2 7.64 29.93-9.61 29.61-16.28 12.23-14.86 20.1-3.39 21.53 6.89 22.83 7.97 18.03 3.83 12.56 1.64 5.57 6.66 46.65 6.12 10.6-2.84 8.08-.66 1.86-.87 2.29-3.93 2.41-1.21.76.22.33.99.44 1.31.11 1.09-.33h.98l1.2.22 1.75.33 1.2.43 1.86 1.42 1.31 1.2 1.75 2.63 1.42 3.71.88 1.75 1.74 2.07 2.19 1.75 1.97 1.42-22.84 27.64v.66l-8.19 9.5 2.18 2.19 3.39 3.28 7.43 7.86-5.79 6.78-.99 1.2-5.57 6.33-1.53 1.64-5.68 6.67-2.18-3.06-6.34 7.86-1.31 1.53-.77.77-1.74 1.86-.55.54-.33.44-.44.44-.76.87-.77.87-3.71 4.81-1.75 2.4-8.85 11.37-4.15 5.13-8.63 10.6-1.64 2.07-3.82 3.72-.55.44-.33.32-1.42.88 2.41 5.13 5.9 12.89 3.38 6.89 5.79 12.01 7.32 12.13 2.19 4.48 1.53 3.39.22.43.21.55 1.64 3.93 3.17 6.99 4.37 9.84 8.09 18.35 1.31 2.73.54 1.31.33.77.55 1.2 1.97 4.26.98 2.08 1.2 2.62 1.75-2.08 5.02-5.79.99.77.54.54 1.75 2.63.99 1.09 1.31.76.43.22 1.64.55.44.22.87.43.88.66 2.4 2.73 1.64 2.4.76 1.31.55.99 2.3 6.01.87 1.85.66 1.1.54.65.77.66 1.09.54 3.93 1.64.88.88.65.87 1.31 3.39.44 1.74 2.08 6.45 1.09 3.39 2.07 8.41.11.33.22.11h.11l.66-.11 2.18-.99 1.86-1.09 3.5-1.97.87-.32 1.31-.33-.22 6.34-.11 4.15v.76l.88.55 2.84 1.64.76.22h.77l.76-.11 3.17-.33 3.06-.55 1.64-.54 1.2-.55.11-.11 2.18-1.31 1.21 10.16-2.08 2.84-1.09.98-.33.11-.76.11-5.25.11h-1.42l-1.53-.22-1.64-.33-1.2-.21h-3.61v.98l-.21 1.53-.44 1.53-.55 1.31-.65.87-.55.44-.44.33-1.96 1.2-2.95 1.64-.33.22-.44.54-.54.99-2.95 4.91-.66 1.1-.55.76-.43.87-.77 1.1-6.66 11.8-2.41 3.6-.87 1.2-1.42 1.53-.44.66-.98 1.75-.55 1.74-.21.88-.11 1.09-.11 1.09.11 2.08.43 2.84v.55l-.22.87-1.2 2.84-1.2 2.62-.44 1.31-.76 1.75-.11.66v2.73l.11 2.84-.22 1.42-.22.98-.33.77-.32.43-.33.33-2.95 1.86-.77.76-.76 1.31-1.42 2.63-.98 2.07-.44.77-2.3 3.06-1.63 2.84-.99 1.96-.76.99-.55.54-1.31.66-2.19.76-.87.44-1.97.87-1.09.55-1.31.87-2.18 1.53-.99.99-.98 1.09-.98 1.53 1.63 1.09 5.79 4.37 2.41 1.75-3.28 4.81-1.42 1.96-5.13 7.21-2.41 3.72 3.72-2.19 2.84-2.29 3.06-2.73 5.79-4.81.65-.11.33-.11.44.11.87.44 2.08 1.64 1.85 1.74.22.33v.55l-.11.65-.54 1.31-1.53 2.74-3.39 4.58-.87 1.21-7.87 11.03-.11.11v.66l.22.32.55.55 1.74 1.31 3.28 2.95.44.22.11.22 4.91-.11 8.64-.22 1.63-.11.99.87 5.35 4.81 2.51-2.84 8.31 7.1 2.18-3.06 2.41-3.27 4.26-6.01 4.15 3.82 4.59 3.71 8.74 7.54 4.04 3.39 1.97 1.64 5.9 4.81 1.64 1.31 1.2 1.09-1.86 3.17-.22.65-.11.77.11 1.53 1.1 7.1.54 3.17.33 2.18.33.88.32.21.77.88 8.52-11.8 5.79-8.19 5.79-8.42 1.86-2.51.76-1.2 2.08-2.84 6.12-8.41.76-2.52-.65-1.74v-.99l.22-2.07 3.38 6.77.55 3.5.66 1.09 1.85 3.82.66.98.54.99.77.98.76 1.09 2.08 2.63 2.84 3.38 1.64 1.97 1.97-1.97.76.99 1.97 2.18 2.62 3.17 2.08 2.51 2.62 3.06 1.75 2.08 1.31 1.42 2.07 2.4.88.98.43.55 1.53 1.64 2.19 2.51 1.75 1.86 3.93 4.37 2.29 2.29 5.25 5.47 2.29 2.4 1.42 1.42 2.3 2.4 5.9 5.79-.77 1.64 2.08 2.84-.88 1.42-7.21 10.05-19.44 26.88.11 10.49 40.75 24.47 3.17 1.86 2.18 1.53.98.65v1.53l.11 1.97.33 4.04.55 5.03.44 2.51.43 2.4 1.09 3.06 1.32 3.39.76 2.84.55 2.62.11.55.21 2.18.11 3.06v6.23l.22 6.22v4.59l-.22 1.2-.43.88-1.1 1.42-1.85 1.86-3.39 3.71-.22.55-.44.76-.32.98-.33 1.97-.55 3.82-.43 2.3-1.97 11.03-.11 1.21.11.98.33.76 3.71 7 5.46 10.05-.43.54-.55.88-6.55 8.85-6.56 8.95-7.87 10.82-1.2 1.64-3.71 5.02-1.1 1.42-2.4 3.39-4.48 6.34-1.53 2.07-1.75 2.41-2.95 4.26-4.91 6.88-3.17 4.37-2.19 3.06-1.85 2.51-3.28 4.59-5.14 7.21-2.18-1.75-6.78-5.79-2.95-2.51-6.22-5.13-4.26 6-4.16 5.69-2.07 2.73-.98 1.53-.55.87.11.55.22.43 3.49 6.34 3.5 7.21.76 1.53 1.1 2.08.76 1.63.66 1.32.43.87.22.33.22.22.33.43.44.33-2.3 3.17-.65.87-2.08 2.95-.98 1.42-2.52 3.5-1.31 1.86-2.95 3.93-1.75 2.51-4.15 5.68-1.64 2.3-1.09 1.31-.33.54-.65.77-.66.65-.65.77-1.53 1.53-2.41 2.18-1.96 1.53-1.42.99-1.97 1.2-1.2.65-1.86.88-2.18.98-1.42.44-2.84.87-.88.11-.87.22-2.63.44-8.08.43-15.41.66-6.22.22-7.65.33-9.72.43-6.34.22h-1.31l-2.73.11-2.84.11-3.17.22-4.7.11-8.41.32-6.23.22-6.67.33h-.98l-5.57.22h-.55l-.11 1.53v.76l-.32.88-.99 2.07-2.07 4.59-2.52 4.37-4.26 8.63-7.21 15.3-1.86 3.49-3.71 5.47-.88.87-.87.66-.65.32-.99.33-1.2.11-1.42-.22-3.61-1.09-.87-.33-.76-.22h-.99l-.22-.11-.65.11-.66.11-.54.33-.55.33-1.2.98-2.41 1.97-1.2.87-.11.11-.54.22-.55.22-.87.22h-.66l-.65-.11h-.22l-3.06-.88-.55-.11-4.91-1.09-.66-.11-1.53-.43-2.62-.88-3.17-1.31-3.17-.76-1.09.1-1.09.44-.77.33-1.75 1.64-19.99 23.27-3.39 3.28-1.96 2.29-.55.87-.22 1.86-.11 1.75v1.42l.44.98.11.22.65 1.42 1.64 1.64 3.94 3.17 1.96 2.4 1.75 2.73.87 1.86 1.1 2.29.87 3.72.44 1.75.33 3.38.21 3.28-.11 3.06-.32 1.31-.44 2.19-.76 2.29-1.86 2.73-1.2 1.2-1.64 1.86-1.86 1.53-1.42 1.2-2.84 2.3-1.31.98-.33.11-2.84 1.86-1.2.65-11.47 6.34-2.19 1.64-1.97 2.4-.87 1.64-1.2 1.97-.55 3.16-.44.88-.54.54-.98.55-1.75.55-1.2.54-.33.55-.22.65v.88l.22.87.87 1.86 1.42 2.19.99 2.29.32 1.31.11 1.42-.11 1.2-.76 2.84-.33 1.86-.11 2.62.11 2.19.44 2.07.43 1.31.55 1.1 1.31 1.96.44 1.1.55 1.53.32 1.85.33 1.09 1.86 3.28 2.51 4.59 14.42 4.04 7.54 21.53 30.48-7.43-.11 18.13-.65 11.8 5.57 6.88-.33.33-2.95 2.73-21.63 19.89-.55.43-13.65 12.46-2.3 2.29-15.18 13.88-15.41 14.09-.44.33-20.32 18.68-5.57 5.24-9.94 8.96-10.38 9.62-14.42 13.21-9.73 8.96-8.08 7.32-17.05 15.63-5.46 5.13-3.6 3.28-1.32 1.2-1.74 1.53-2.52 2.08-2.07 1.63-3.83 2.95-1.42.99-2.73 1.74-1.42.99-1.96 1.2-3.72 2.08-2.73 1.53-2.3 1.2-1.42.65-2.51 1.1-3.17 1.31-3.17 1.2-3.27 1.2-6.45 2.08-3.28.87-12.34 3.6-12.68 3.72-.43.11-11.58 3.28-9.51 2.73-3.17.98-9.5 2.84-3.61.98-4.81 1.42-3.49 1.1-13.22 3.82-5.47 1.64-6.11 1.97-6.12 1.74-4.26 1.21-9.07 2.73-2.19.65-19.88 5.79-47.64 13.99-3.17.87-2.29.66-20.98 6.11-32.88 9.73-5.03 1.53-21.85 6.33-26.88 7.87-3.6.98-3.39 1.1-39.77 11.58-5.13 1.53-11.59 3.38-3.27.99-19.67 5.79-39.77 11.58-19.88 5.79-19.89 5.9-1.2.32-3.39.99-48.29 14.09-4.59 1.31-19.44 5.79-24.15 6.99-9.72 2.84-2.3.66-36.27 10.6-31.14 9.06-17.04 5.03-9.4 2.73-8.74 2.51-3.82.99-3.83 1.2-3.71 1.2-1.21.33v4.48l.66 19.88.44 19.23.43 11.14.11 6.45 1.31 36.6v4.69l.11.22.11.11.22.11h4.04l.33.11.33.11.33.11.22.22.32.33.11.43.11.22.11.44v.54l.11 3.61.33 5.79 1.31 63.15.44 8.74.98 39.98.76 24.15.66 17.69.87 20.87.66 17.48.55 11.36.43 6.12.88 14.42.43 31.68.88 30.81.54 20.21.44 16.72 1.09 35.07.44 9.07.11 1.2.77 3.06.54 1.85.55 24.15.22 6.44.76 19.89.22 7.97.22 8.74.22 24.91.32 15.41v3.38l-14.85 3.28-44.91 9.94-18.46 2.73z" stroke-linejoin="round"/></defs><use xlink:href="#a" fill="#cee3e4" stroke="#cef5f5" stroke-width="5.76"/><defs><path id="b" d="M2366.06 1149.2l18.24-.33.44.33.98-.11h.55l3.71-.11h2.08l1.75-.11-2.95-2.95-.88-.87-1.74-1.86-2.19-2.51-3.39-4.04-2.4-3.17-1.86-2.4-4.8-5.9-1.86-1.75-.44.43-.65.66-1.53 1.53-.44.33-.44.33-.32.21-.33.22-.44.11-.55.11-.43.11.32 4.04v.88l-.1.65-.33.98-.11.55v1.97l.11 12.67z" stroke-linejoin="round"/></defs><use xlink:href="#b" fill="#cee3e4" stroke="#cef5f5" stroke-width="5.76"/><defs><path id="c" d="M2246.09 773.05l-2.18.22-7.98.22-2.07-.44-3.61-.22-3.17-.65h-1.42l-3.71-1.42-3.93-1.31-.44-.55-1.75-.87-1.42-.55-1.64-.87-3.17-1.86-1.09-.55-.98-.54-.88-.33-1.75-.66-1.74-.65-1.97-.55-.77-.11-.76-.11-.66-.11v.44l-2.84-.44-3.93-.21-7.1.11-13.88.43-5.79.22v-.33l-8.08.44h-.99l-3.49.11-4.92.22-.98.11-7.76.22-2.51.11-4.26.1h-1.64l-4.92.22-5.68.33-1.75.11h-.87l-1.64.11h-1.53l-1.86.11-2.95.11-.87.11-6.34.32-6.55.33h-.55l-4.26.22-4.26.22h-1.97l-4.37.22-2.62.11h-7.43l-1.53-.11h-1.75l-2.18-.11-2.08-.11h-.76l-2.63-.11-3.38-.22-3.28-.22-2.51-.11h-6.01l-3.94.22-.65.11-1.42.11-2.41.11h-1.85l-.33.11h-1.64l-2.08.11-2.07.11h-1.75l-1.2.11-1.09.11-1.75.32-6.67-.98-1.74-.44-.22-.32-.33-.55-1.09-.33-1.21-.43-.87-.44-1.09-.55-1.31-.76-1.2-.88-1.21-.87-1.2-.98-.76-.77-.22-.22-1.09-1.09-.99-1.2-.87-1.2-.77-1.21-.65-1.2-.77-1.31-.54-1.42-.55-1.31-.33-1.42-.43-1.42-.33-1.86-.33-2.07-.33-1.1-.33-.98-.1-.22-1.53-3.06.65 1.97.33 2.19-.66 6.88-.32-4.26-.44-5.03-.44-4.7-.54-5.68-.33-3.71.76-.88-.22-1.96-.76-19.56-.11-1.09v-1.09l-.44-11.8-1.2-8.85-.33-1.53-.21-.98-.33-1.21-.22-1.31-.22-.54-2.51-6.67-1.53-3.93-2.52-4.7h-.76l-.98-1.64-1.1-1.74-1.31-1.86-.76-.98-1.09-1.32-3.17-3.71-2.95-3.5-.44-.43-.76-.99-.77-.87-5.24-6.12-.88-1.2-2.07-2.29-2.95-3.5-1.53-1.86-7.43-8.74-10.6-12.56-1.64-1.97-.65-.76-.22-.22.43-.55.44-.43 1.64-1.86 1.31-1.64.33-.33-.11.66.76-1.1v-.21l1.97-2.84 8.2-11.91 2.94-4.26 1.75-2.63 2.08-2.51.87-.98.22-.22.22-.33 2.62-3.71 1.64-2.08 2.51-2.73 2.74-3.39 1.74-2.07.11-.44 4.37-5.13 1.1-1.31 1.96-2.41 1.2-1.31.55-.65.55-.66.22-.11.43-.33.66-.54.76-.55.44-.22.33-.11 6.22-2.73 6.34-2.73 8.41-3.93.66-.33.66-.22.43-.11.77-.11h6.12l-2.52-10.49-.11-.21-1.2-2.74-4.59-2.94-.32-5.9-.55-13.33-.11-1.86-.11-3.82 10.71-5.14.22 8.74 5.68-.22h1.2l2.73-.11h3.17l5.35-.32.44.11.22.1.22.22.22.22.1.44v1.31l.55 31.25.22 4.15h3.39l2.51-.11 6.77-.11 2.19-.11-.22-8.96-.44-10.71 19.12-.87.99 20.1 7.21-.11 7.43-.11 14.96-.43h1.53l.88-7.65-.33-6.77-.11-3.83v-.44l.22-.32.22-.22.33-.11h.65l3.83.22 1.2-.88 1.31-.43.98-.11h8.63l.33.11.11.32.11.22.22 5.03.76 7.1.22 7.43 5.46-.22 7.54-.11h.55l38.24-.87 17.04-.44 16.61-.33 10.16-.54 5.57-8.2 2.3-3.71.54-1.31.55-1.31.98-3.39 1.75-6.01 1.97-7.21 2.51-8.96 1.2-3.28.77-1.42 1.42-1.96.87-1.21 2.84-2.51 1.42-1.09 6.67-4.26v-1.2l.87 1.31.33.33.33.11h.54l.77.21.33.33.98 1.2 1.42 2.3 1.86 2.18 2.4 2.52 2.73 2.4 2.62 2.18 1.1.88.54.22 1.53 1.2.99.87.76.33 1.86.33.98.33 1.97.76 1.31.76 3.71 1.75 1.42.55.77.22 2.51.43 3.17.11 1.97-.11 2.51-.21 2.4-.55 3.39-.55-.22 3.5v.76l-.65 4.81-.99 6.01-1.31 6.45-2.95 17.26-1.09 5.46-3.06 16.71-.66 4.05-.98 6.22-2.18 11.69-2.52 13.88-6.12 32.34-1.2 7.43-1.31 3.71-.76 4.59-2.63 14.31-2.07 12.24-2.51 12.67-1.53 8.85-4.81 27.86-2.4 11.91-2.08 12.89-.44 1.75-1.31 6.66-.65 4.26-.77 3.93.11.66-.22.11-.54.54-.33.33-1.2.22-2.41 1.97 6.34 6.01 1.64 1.74.87 1.31.55.99.22 1.09.22 1.42v2.4h-1.21l-.98.11-2.08.11z" stroke-linejoin="round"/></defs><use xlink:href="#c" fill="#cee3e4" stroke="#cef5f5" stroke-width="5.76"/><defs><path id="d" d="M94.73 2457.69l-.66-.11-7.21.55-8.85-.44h-1.75l-.55-19.89-1.2-46.86-.11-3.61-.54-18.57-1.75-61.07-1.31-44.03-2.51-82.27-2.63-83.9-2.73-83.9-1.75-61.51-1.74-61.62v-1.2l-2.52-84.12-.11-4.26-1.74-53.32-1.21-35.39-.11-4.92-.11-3.39-.54-17.59-.77-25.12-.76-31.36-.33-11.25-.11-2.3-.11-7.97-.54-20.32-1.21-26.99-1.52-63.36-.11-3.5v-9.17l-.22-7.87-1.1-49.82-2.51-102.04-.44-20.1-.1-1.2v-3.61l-1.64-71.12-1.64-69.81-1.64-69.7-1.53-67.95-1.75-71.67-1.42-55.28-2.29-100.73-.66-20.21-1.64-77.02-.11-.77-.43-17.04-.11-3.39-.22-7.65 1.86-4.04.76-1.09 1.53-1.53.44-.22 1.09-.54 1.2-.33 1.75-.22 1.53.55.76 1.31.55 2.29.22 1.75.87 1.75 1.31 1.96.77.44 1.64-.22 1.2-.44.98-.43.55-.66.98-1.64.11-2.18v-2.84l.77-1.42-.33-1.31-.77-.77-.54-1.31-.11-.87.44-.99 1.2-.87 3.17-.98 1.42-1.21.87-1.09.66-2.4v-1.64l.32-.87.88-.66 2.51-.98 5.14-.66 2.29-.11 3.82.99.77.32 1.42.55.76 1.2.22 2.95 1.53 1.31 1.75.88 2.4 1.74 2.19 2.3 1.64 1.09 1.31.11 1.2-.33.55-.54.11-1.21.43-1.52 1.64-1.53 2.95-.77 1.31.33 1.64 1.2 2.4.11 2.41 1.97 1.09.43 1.86-.22 1.86-.43 1.63.22.99.32 1.42.66 1.31.98 2.95 1.42 3.93 2.08 1.1 1.64.32.54.33 1.97v3.06l.11 2.29-.22 1.42-.76.99-.77.54-1.53.55-1.75.22-.98.65-.55.77v2.07l-.21.55-.44.87-.88 1.31-.87.88-.87.65h-1.2l-1.53.11h-1.86l-1.2.22-.88.55-.33 1.09.11 1.09.99 1.97 1.31 1.64 2.29 2.18 3.83 3.5 1.2.98.54 1.1.88.98.65 1.42.99 1.09.98.66.87.76.88.44.98.55.11.1.33.33.11.88-.33.54-.11.33-.87.76-.77.99-1.09.87-.55.66-.32.76.21 1.09.55.55 1.53.11.98-.55 1.1-.54 2.84-1.64 2.73-1.53 1.64-.77 1.09-.32h1.2l1.2.43.88.99.22 1.96-.44 1.86-.55 1.53-.76 1.09-1.09 1.86-.44 1.2v.99l.44 1.52.76.66.76.22 1.53.33h1.32l1.31-.22 1.85-.11 1.1-.22.54.22.44.54.11.66v1.09l-.22 1.1-.22 1.2.11 1.2.77.55.76.21 1.2-.32 1.2-.77.55-.87.77-.33.87-.11.76.44.77.54.44.99.21.98v.76l-.1.99-.33.76-.33.44-.33.66-.76.76-.77.55-.54.65v.55l.65.76 1.31.88 1.2.65h.99l1.31-.22 1.31-.87 1.09-.77 1.1-.65 1.09-.55h2.07l1.42.11 1.53-.65.77-.99 1.09-.98 1.2-.87.44-.99.44-1.2.54-.54.77-.44.76-.22h.66l.54.22.99.65.87.44 1.09.11h1.1l1.09.44 1.2.22.98.65 1.75.55 1.64.43 1.75.77.87.11 1.1.11 3.38-.22 2.3-.33.76-.11.55.33.22.76-.22.77-.44 1.75.11 1.53.55.76.54.22h.88l3.28-1.31.87-.33.76.11.99.44.65.98.44 1.09-.22 1.42-1.2 2.52-.87 1.42-.33 1.42-.11 1.64.55 4.37-.11 1.96.32.55.77.76.87.33h1.2l.99-.44 1.42-.65 1.31-1.09 1.2-.77.87-.22 1.21.44.43.76.33 1.32.11 2.84.44 1.2.54.98 1.42.98 1.42.44 2.08.11 1.42.33.55.44.32.87-.43.98-.77.77-1.31.65-1.64.55-1.74.44-1.21.32-1.53.33-1.53-.11-.98-.11-.65.33-.33.98.11.55.11.33.98 1.09.87.55 1.53.65 1.53.11 1.2-.11.77-.33.65-.43 1.32-.77 2.95-.98 2.84-.33h1.85l1.1.33 1.09.55.65 1.31.77 4.15.55 1.09 1.2.87 1.85.77 1.75.55 1.75.1 1.42-.1 1.2-.66 1.31-.87 1.53-1.32 1.42-1.74.77-.99 1.09-.43 1.2.22 1.42.76.66 1.09v1.2l-1.31 3.94-.11.98v1.09l.76 1.1.77.21h.98l1.2-.76.88-1.2 1.53-2.19.76-.54.99-.22 1.31.54.98.88.66 1.09 1.09 3.72.87.98.88.33.87.11 1.09-.22.55-.88.76-2.62v-1.64l.22-1.09.44-.87.55-.55.87-.22 1.86-.11 1.2-.44.54-.76.66-1.64.87-.98.99-.55h.87l.99.33.65.65.66.77.54.65.55 1.21.65.54.66.44.76.33.88.22 1.31.11h1.09l1.53-1.32 1.09-.98 1.53-.76 1.32-.66.32-.11.88-.33.98-.54.44-.44.65-.44h.99l1.31.11 1.09.33.87.55.66.98.65 1.64.77 1.09 1.09 1.42.99.88.76.43.66.11 1.09-.11.98-.11.66-.11 1.2.11 1.31.44 1.42.55 1.2.54 1.09.44 1.1.87 1.42 1.32.87.98.77.76.98 1.64.44 1.31.76 1.53.55 1.09.76.88.88.33h.98l1.31-.44 1.2-.55 1.31-.76 1.86-.77 1.86-.54 1.64-.55 2.51.98 1.31-.21 1.2-1.1.55-3.93.44-1.42.87-1.75 1.2-1.2 2.84-1.64 1.1-.65.65-1.1.11-1.53-1.2-3.38v-1.2l.22-.99.54-1.31 6.23-6.88 7.21-8.63.55-1.09.33-1.53.87-1.21.87-.98 1.75-.87 1.53.11 3.39 1.85 2.07.11 1.64-1.09.99-.33.76.11 1.09.33.44.87 2.08 2.08 1.53.44h.87l.66-.66 1.64-1.53.43-1.31-.43-2.62-.77-2.3-1.75-1.96-2.4-1.53-.88-1.2-.1-1.42.43-1.32 1.75-1.42 3.82-1.96.55-.66.66-1.2v-1.64l-.55-1.96-.87-2.41v-1.42l.21-.65.66-.88 1.09-.65h1.31l1.97.87 2.29 2.3 2.74 4.8 1.2.55 5.02.44 2.52.32.98.99.98 4.8.99.88 2.07.11 1.64-.99 3.72-5.13 2.51-2.08 1.42-.98.65-1.42v-.98l-.21-1.1-.88-.98-1.75-.55-2.51-.43-1.31-1.42v-1.64l.87-1.42 1.53-1.09.88-.44 1.09.11 1.2.54 1.42 1.1 3.39 2.29 3.28-.22 2.95-.33 3.93-.54h.44l1.75-.33 1.53.33 2.29 1.86 1.31.54 2.84-.22 1.31-1.42.77-2.73v-4.26l1.2-1.64 2.18-.54 5.03 1.2 1.75.33 1.64-.44.54-.77.33-1.09-.55-1.42-1.74-1.09-3.28-2.62-.33-1.42.11-.66.11-1.09.55-1.31 1.09-.22 6.01-.22 4.7-.76 2.73.32 1.53.99 4.48 2.62 1.85.54 2.19-.43 3.39-1.42 2.73-2.41.87-3.06.33-1.31.76-.65 1.53-.11 4.26 2.95 1.1 1.09 3.93 1.31 2.29 1.09 1.64 2.52.66 1.2 1.2 1.42 2.4.11 1.64-.44 1.53.55.55 1.09-.11 1.2-1.2 1.64-2.3 1.75-1.09 1.42-.11 1.31-.22.98.88 1.1 1.53.54 2.51-.22 2.18-.65 6.01-2.62 4.37-2.19 1.32-.44 1.42-.1.98.87.33 1.09-1.31 2.19-.11 1.31.54 1.09 2.3.87 1.31.22 2.95.66 2.07.54.55.77 3.28 1.97 3.38.98 2.95.22 3.39 1.42 1.09 1.31.88 1.75-.11 2.07-.66 4.37-.65 1.64-.99 2.3v1.09l.11 1.09.66 1.75 1.97 1.2 2.29-.33 1.2.11.88.77 1.96 5.79 1.53 2.73 2.19 1.53 1.53.33 1.31.1 1.42-.32.76-.44.66-.87.33-4.26.32-4.16.66-1.2 1.64-1.42 1.97-.11 1.53.88 1.74 1.74 2.52.33 2.95-.11 2.73-.54 2.18-1.21 1.64-1.31v-.21l.22-1.86-.76-6.88.54-3.39 2.19-2.08 1.31-3.49 1.75-3.17 1.09-.88 1.42-.87 1.53-.55 2.29.11 2.41 1.31.76.44.55.66.33.76v1.31l-.44 1.64-.33 1.53-.55.98-.65 1.21-1.75.98-1.31.98-.98.77-.44 1.09-.33 1.31.66 1.64.76.76.98.33h1.97l1.86-.22 1.2-.43 1.31-.77.55-.54.54-1.21.44-1.31.88-1.31.87-.54 1.09-.22h.77l1.09.98 1.31 1.53 1.09.44 1.1.22 1.96-.22 1.2-.44 1.32-.55 1.74-.11 1.64.22 1.2-.32 1.64-1.53 1.2-1.21.66-1.09.44-1.42-.22-1.31-.55-.98-1.86-1.53-1.85-2.41-1.1-1.53-.1-1.85.1-1.64.88-1.31 1.31-.88 2.62-1.2 2.95-1.75 2.52-.98 1.74-.44 2.08-.22 1.97.11 1.85.22 1.53-.11 1.2-.43.33-.88-.11-1.42.22-2.62.44-1.42 1.53-1.64 2.4-1.97.88-.87.65-1.2.66-2.84.54-.88.99-.43.98.43 1.09 1.42.88 3.06.76 2.52 2.95 4.15 2.3 5.02 1.53 4.37v1.75l-.55 2.3-.44 1.74-.65 1.31-1.1 1.32-.21 1.63.21 2.41.22 2.07-.65 1.21-1.31.98-3.28.44-1.31.65-.44 1.09.44 1.1.87 1.09 1.09.44 1.64.21 1.75.11 1.97-.87 1.85-1.64 2.63-4.15 1.09-1.64.98-.66 1.75.33 2.62.22 3.06.44 1.86.22 1.42.11.87-.55.33-1.2.22-1.75-.22-3.06.44-.87.44-.77 1.09-.54 1.2-.33 1.09.22.88.65.87 1.2.55.77.87.98 1.2.44 1.53.33 1.31.32.88.44.65.33.77.76.43.99.11 1.2v1.2l-.21 1.2-.66.99-1.31.98-1.2 1.09-1.1.98-.43.77-.11.87.22.77v.11l.32.98.33.87.44.66.65.11.88-.11 1.31-.87.87-.44h.77l1.64.33.65-.11 1.86-.55.77-.11h.76l.66.11 1.2.55 1.85.43h.66l.87-.1.99-.33 4.15-1.75.87-.44.44-.43.33-.88.33-4.15-.22-2.84.43-2.95.44-2.51-.54-1.2-.66-.55-1.97-.22-3.71-.55-1.53-1.42-.44-.76-.76-1.2-.33-1.42.33-1.31.65-1.31 3.06-1.32 2.95-.21 4.92.32 3.49 1.31.22.11 1.64.99.98 1.53v.65l.11 2.08.66 5.24 1.64 3.06 1.75 2.3 2.29 1.42.33.1h.98l1.09-.21.88-1.1.44-2.18.43-2.84.22-1.09v-5.36l.55-4.15.43-2.51.55-3.39.33-.87 1.42-.66 1.97.22 1.85 1.64 1.75 3.17 1.31 3.17 1.31 1.31 1.97.32.87-.21.77-.66.87-.87.66-1.1.22-1.31-.33-1.64-.44-1.96-1.96-5.47-.55-4.91-.33-1.09-.54-.99-1.97-1.74-3.93-1.43-.88-.87-.22-.76.22-1.31.88-.99.87-.54 1.75-.22 3.82.76 4.15 1.2 2.08-.11 1.53-.54 2.62-.88 1.97.77.98 1.86v1.74l-.98 3.28.11 1.86.65.54.55.77 1.53.55 2.07-.77.88-1.09.98-1.75.44-1.42.22-3.17-.44-3.82.11-2.73.22-.88.65-.76 1.75-.98 3.06-.33 1.2-.77.33-1.09-.98-1.64-1.75-2.18-.88-4.59-1.31-1.2-.43-.77-.11-.65.43-1.1.66-.87 1.31-.98 1.42-.66h1.64l1.97.44 2.07.76 1.42.44 1.53-.11.99-.33.98-.54.44-1.1-.11-.87-.55-1.2-2.51-2.08-3.72-2.4-1.64-1.42-.54-.77-.44-1.2-.11-.76.22-.88.98-.65 1.1-.77 1.31-1.2 1.42-1.53 1.2-.76 1.64-1.31 1.2-.66 4.81-.98 1.85-.11 2.74.43 1.63.44 1.42.66 1.53 1.09.99 1.75-.11 1.96-.55 1.64v1.86l.44 2.08.22 1.53.65 1.74 1.31 1.31 1.21.99 1.31.11h1.85l2.63-.22 1.31.11.98.43.33 1.1.33 1.75-.33 1.96-1.2 2.19v.76l.11.77.65.76 1.42.55h1.09l1.21-.22 1.53-1.2 1.31-1.53 1.64-2.73 1.85-2.19 1.31-.65 3.61-2.08 1.42-1.31.66-1.42.65-1.75.33-2.51-.33-3.5.77-1.53 1.74-.87 2.3-.66 1.31.22.87.66 2.08 2.4 1.31 1.09 2.19 2.95 1.2.88 1.53.11 1.09-.44 1.97-2.84.76-.66h1.2l1.1.44 1.31 1.64.98.76 1.31.22 1.2-.33 2.52-3.27.32-3.06.22-.99.99-.76 1.96-.11 1.97.44 1.75-.22 1.96-.87 2.52-2.95.98-1.75.22-2.19-.33-2.07-.76-1.42-1.53-1.1-1.53-.65-3.06-1.31-.44-.77-.11-1.2.66-1.2 4.69-1.97 3.5-2.73.66-.44 4.91-3.49 1.53-.55 1.53.11 1.97.22 1.42.66.65.87 1.32 1.53.98.33 2.18.22 1.1.21.54.33.55.66.22.98 1.64 5.35.54.88 1.1.22h2.51l4.59-1.1 1.31.11 1.31.88 2.62 4.48 1.53 1.63 1.86.88 1.42.22 3.06-.33 2.29-.77 1.42-.43 1.53-.11.77-.66v-1.2l-.11-1.53-.33-3.49-.98-5.47.22-1.31.98-.98 1.09-.77h3.5l4.48 1.53 4.91 1.21 1.53.21 2.84.11 3.17-.98 3.17.55 2.19 2.62.54.98.88.98 2.51 1.32 2.73.98.87.87.33.55.33 1.2-.22 2.08-.11 2.18.33 1.09.44.66h1.09l1.2-.22 1.86-.33.76-.98 1.86-2.29.55-.99 1.31-.54 1.86.32.65.22 1.09.99.55 1.31v3.06l.11 1.63v1.21l.65 1.53.88.98 1.2.65 1.53.11 2.84-1.53.66-.54 2.4-1.53 1.97-1.86 1.85-1.2.66-.76 1.75-1.1 1.85-1.42.77-.43.76-1.1-.1-.87-.44-.55-1.31-.98-1.53-.77-1.09-1.74-.66-1.31.33-1.21 1.31-1.2.44.22 1.42-.11.87.11 1.97.22h1.96l1.42-.33 2.08-.87 2.84-1.75 1.75-2.29 2.29-2.08 1.53-.77 1.42-.65 1.75-.22 3.17.44 4.81 1.53 2.4.22h1.09l.99-.44 1.42-.33.87-.55 1.86-1.31 1.53-2.18 1.64-3.93 2.84-9.29 3.27-10.49 1.42-5.02-.1-2.19-.77-1.42-1.75-2.08-1.2-.76-.55-1.2.11-.98-.11-1.32.11-1.2.22-1.86-.11-1.85.11-1.86.11-1.64.55-1.31.54-.55.44-.54.44-.11 1.53.76 1.53 1.1 2.62 2.07 2.51 3.28.99.44 1.52.43.88-.22 1.2-.65.66-.77.76-1.74.55-1.86-.11-3.5-.66-8.63-.33-2.62 1.21-3.93.11-3.61.21-2.29.66-1.64 2.19-1.97 1.63-2.07 1.75-3.28-.22-2.08.11-1.2.11-1.31.66-2.07.33-.88 3.6-2.18 2.95-.33 1.86.44 1.53-.22 4.48-1.2 3.27.1 1.21-.1.87-.44.77-.88.54-.76.77-.55.98-.43 2.51-.22 3.39-.88.76.11h.66l.44-.22.98-1.52.44-1.43v-.21l-.22-2.3-.11-2.4.22-1.75.22-.44.43-.65.88-.66.76-.76.22-1.42-1.2-1.64-.22-.44-.65-1.53-.33-1.2v-.98l.76-1.1 3.28-1.85 2.19-1.42 2.29 1.2 1.86 2.95.22 2.4.98 2.62.76.88 2.19.65 3.17-.98 2.07-1.64.99-1.75.11-.11.32-1.85-.76-1.53-2.19-1.86-2.07-3.6-.77-1.97v-1.42l1.97-3.72 1.86-1.85-.22-1.86-1.2-1.42.21-.98.55-1.21 3.61-2.51.87-1.31.87-2.51-.1-3.93.21-2.08.33-1.97.88-2.07.21-1.2-.43-1.32-.66-.43-1.2-.22-.87-.44-2.19-.87-.76-.88-.11-.98-.22-.98.22-7.1.11-1.32.87-.98 1.2-.65 3.39.76h.87l1.2-1.42 1.75-3.6.99-1.32 1.09-.65 2.18.33 2.41-.66.87-.65.77-.99.11-1.2-.44-1.64-2.08-4.37-1.53-3.38-1.85-2.63-.77-.98-1.09-.44h-.99l-.76.22-2.4.88-2.19.65-.98-.44-.66-.87-1.31-4.04-.11-2.73-.76-3.06.22-1.75.54-.44.55-.54 1.31-.22 2.95.11 2.84-.55.87-.33 1.1-.54.65-.55.55-.87.54-5.25-.21-6.01-.11-1.2-.11-2.51.11-1.31v-.22l1.09-1.2 1.53-1.2 1.42-1.31.76-1.21.33-.87.44-1.2v-1.31l-2.4-2.73-3.28-3.72-2.3-3.39-2.51-5.9-1.2-1.74-1.09-.55-.88.11-.98 1.75-.66.65-.87.11-.55-.65-.43-1.75.11-2.3.87-5.35.55-2.73-.22-1.09-.55-.66-2.08-1.2-1.85-.22-.99-.76-.32-.33-.55-1.09-.22-1.1.33-1.74.87-2.52.88-1.31 2.84-3.27.76-.77.33-.66.22-.98v-.76l-.22-1.1-.55-1.09-1.74-2.4-.77-2.08.22-2.4 2.08-7.21 1.2-2.62 1.2-2.52.33-1.09v-1.09l-.99-3.61-.54-2.07-.44-3.28-.55-2.73-2.29-3.5-.44-1.53v-1.2l.55-.87.76-.66 1.21-.11 3.27.22 1.1-1.75v-.65l-.44-1.42-3.17-3.17-1.64-3.5-.44-1.64.88-1.74 1.53-1.86 1.2-1.53.44-.33.65-.43.77-.66.76-.33.55-.33.44-.21.32-.77.11-.65.33-4.7-.22-1.2-.11-.77-.22-.65-1.42-.99-.54-.65-.22-.77.22-1.2.54-.98.77-.66-.11-.87-.66-.66h-.76l-2.84.66-.88-.33-.21-.66-.22-1.09.11-.98.43-.66.22-.32 1.86-.88 1.09-.44 1.42-.87.33-.87-.33-.99-.65-.65-.44-1.31v-.99l.55-1.2 2.07-2.62 1.97-2.84.11-.44.11-.43-.33-1.1-2.19-2.73-.76-1.86-.55-2.51.11-.76.33-.66 1.75-2.95.65-1.86v-.87l-.65-1.97-.98-1.31.43-.65.55-.66 1.96-.98 1.53.33.55-.33.22-.33.33-.87.11-.88-.11-1.2-.33-1.97.11-.65.11-.55.33-.54 1.31-1.42 1.2-1.1 2.18-.65.44-.66.11-.54-.33-1.97-.11-1.53-.11-.76v-.55l.11-.55.22-.87.33-.98.22-.44.22-.33.32-.33.77-.43.22-.44.98-.76 1.42-1.75 2.08-1.75 2.07-1.31 3.5-1.75 2.84.22 2.73.98 4.48 3.28 1.97.65.98.77 1.31-.55.77-.65.65-.11 1.31-2.95.33-1.31 1.53-.77v-.54l.22-.66 2.18-.65.88.76 1.2 1.31.87 2.84.88 2.3-.44 2.51.66 1.2 1.64 1.2 1.63-1.64.33-1.31.44-1.64.55-1.53.54-.65h.66l1.42.22.65.65-.11 3.06.22 3.28-.11 1.2.99 3.39.32 1.09 2.19 2.4 2.73.99 1.64-.33 3.5-1.31 2.4-1.31.87-.99.88-.87.98-.98.87-.66.77-.11 1.53-.11.87.22.77.55.65.33.33.98-.33 1.42-1.42 2.4-1.09.99-1.42 1.31-.76.76-2.3.98-.33.44-.11.44.11.44.33 1.2.44.76.33.33.21.11.22.22 1.1.11 1.85.22.99-.44.65-.88 1.31-2.62 1.86-1.31 1.09-.22 1.75.55.77-.11.32-.11.33-.11.33-.33 1.64-2.62 1.42-.65 1.31.54v.11l.65 1.2-.1 1.42-.22 1.53 3.17-1.09.87-.33.55-.22 1.63-1.31 1.64-.76 1.86-.66 2.95 2.19 2.4 2.51 2.63 1.86 2.84-2.08 1.2-2.18.22-1.86.65-1.64 1.31-2.18 1.86-1.21.88-.98.21-.33 1.31-1.85.99-.88.54-.54.22-.11.55-.33.55-.55.32-.32.55-1.21.11-1.64-.55-3.16.11-1.42.22-1.75.22-1.09.44-.99.43-.98.33-.77.55-.54.76-.98 1.09-.66.66-.44 3.17-1.31 1.86-.54 2.51-.33 4.48-1.97 2.18-1.75.44-.22 1.75-.65 1.75-.11 1.2.11 1.09.55 1.2 1.2.44 1.09.22 1.2-.11 1.53.11.66-2.95 3.16-.88 2.19-.21.65-.33.55v.55l.22.65.32.77 1.42 1.09 5.47 3.17 1.53.33 1.53-.22 1.09-.55 2.62-2.07 1.64-.88.87-.11.66.33.66.66v.76l-.22 1.42-.66 1.53-1.86 2.62-.11.22-1.42 1.2-1.96 1.1h-2.73l-.88.1-.76.66-.33.22-.11.98-.11 1.75.22 1.64.66 1.42.21.44 2.63 2.29 2.73.98 1.53.33 1.09-.22 2.29-1.75 1.31-.54 1.53.54.77.77.33.76v2.84l.22.77.65.55.98.76.88.22 1.53.33.11.11h.65l.66-.22.87-.99 1.1-2.62.43-1.86.88-.65 2.29-.66 1.31.33.44.66.22.54v.99l-.77 1.85-.76 3.06-.11 2.3.11.32.76.99 2.41 1.2 1.85.55h2.19l2.07-.22.77-.77.55-1.31 1.2-1.53 2.18-1.53 1.2-1.09 2.08-.76 1.09-.88 1.1-1.2.32-1.64.44-.76 1.09-.11.99.43 1.09 1.21.54 1.2.44.22h.88l1.09-.22.54-.77-.21-1.85-1.1-3.28-1.31-2.73v-.55l.33-1.42 1.75-1.2 2.62-.22 1.75.33 2.18.11 2.41 1.42 1.2 1.31.11 1.09-.66 2.84.44 1.97 1.31.98 1.97.22h3.38l2.63 1.31 2.18 1.86 1.42 2.29.88 2.08.11 3.49.76 1.31.98 1.32 1.75 2.18 2.08 1.53.87.22 1.09.33 3.5-1.53 2.73-1.1 4.37-1.63 2.84-1.32 1.42-.32.66-.11h1.2l.66.22.43.54v1.31l-.54 2.73.11 3.28.54 2.62.99 1.1.1.11.22.32 2.19.44.98-.33 1.31-.87 2.08-1.75 2.29-1.53 2.19-.98 3.06-1.97.98-.76 2.62-2.41.33-1.31v-.98l-.98-.77-2.95-1.09-.66-1.31v-2.51l.44-1.86.98-3.39.88-2.29.11-.55.76-1.85-1.2-.66-1.31-.87-.22-1.21V202l.55-1.42 1.2-1.64.65-2.62.22-.65.77-1.42.87-.22.44.44 2.29 1.52 4.15 1.64 7.43.66 1.31.44 1.21.43 5.24.66.55.11 1.31-.44 1.31-1.31.33-.77-.33-1.09-1.64-3.17-1.31-1.63-.66-2.08.11-.98.11-.22.33-1.31.98-.44h.88l4.69 1.09.55.22h.22l1.2-.55.66-1.31-.22-1.31-.44-.87-1.09-1.09-2.08-.66-3.6-.44-4.7-.11-2.19-.43-.54-1.31.11-1.1v-.32l1.96-2.63 1.97-2.62.22-.33.33-.32.98-.99 1.2-.22h.98l6.45.22 2.84.88 2.08-.22.43-.11 1.21-.44.43-.43.66-.77 1.42-.87 3.28-.11 1.64-.33 1.09-.22.11-.11.22-.11.98-.65v-2.62l.44-.99 1.85-1.42.88-.33.87-.32 1.42.76 2.41 1.42 1.85.33 1.53.87 1.1 1.86.98.11.22-.11 1.2-.44 1.09-1.2 2.51-2.18 2.95-2.3 1.86-.22 1.09.55.33 1.53-.11 1.64-.22 2.51v.55l-.21 1.2.11 1.31.54 1.86.66 1.2 2.18 4.37 3.61.33.87.11 3.28.54 1.09.55.88.98.65.77.33.65.44.99.21 1.42.22.54.55.11.55-.11.54-.44.99-1.63 1.52-1.75.88-1.42.65-1.75 2.3-5.79.65-4.7.33-1.53.66-1.31.98-1.42.98-.55.99-.1.65.21 2.3 2.3.65.11h1.1l.65-.33.55-.66.33-1.2v-2.18l-.33-1.64-.33-.66-.33-1.2-.76-1.2-.66-.66-.87-1.42-.77-1.42-.98-1.53-.77-.98-2.07-1.97-1.2-1.42-1.53-2.07-4.05-6.56-.65-.98-.33-.98-.11-.88.22-.87.44-.77.54-.54 1.1-.66 1.31-.54 2.29-.44h2.19l1.42.11.87-.11.55.11.54.33.33.65.11.77.22 1.31v1.75l-.11.54-.11.55-.65.76-.99 1.2-1.09.99-.76.65-.44.66-.11.44-.11.54v1.75l.11.44.22.22.43.32.44.33.66.22h.32l.33-.11h.33l.55-.11.32-.11.22-.22.33-.32.22-.33.11-.44.22-.44.43-.43.55-.44.66-.44.32-.32.22-.33.33-.77.22-.87.11-.77-.11-.98-.11-.87v-.77l.22-.44.43-.43.44-.55.33-.98.87-2.51.88-1.97.54-1.86.33-.87.22-.44v-.33l.11-1.2v-.33l.11-.11.22-.32.11-.22v-2.19l-.22-1.42-.11-.65-.22-.55-.22-.44-.33-.21-.43-.11-.55.11-.66.21-.54.44-1.2 1.31-.77.88-.98.76-1.2.55-.33-1.31-.11-1.75-.22-3.06v-.11l.11-1.53v-1.2l.44-2.08.65-1.31.44-.76.98-.99.99-.65 1.2-.44 1.42-.22h1.86l1.85.33 1.31.33 1.53.54h.66l.76-.1.77-.22.98-.33.33-.11.77-.55.65-.54.44-.66.33-.44.1-.65v-.87l-.21-.66-.33-.66-1.2-1.42-.11-.21-.55-.66-.22-.44-.11-.32v-.99l.11-.76.11-.66.22-.54.33-.44.44-.33.32-.33.22-.43.11-.11.22-.22.44-.22h.54l.55.11.33.33.32.32.33.44.33.77.22.32.44.66.54.55.55.43.54.33.44.33.55.11.65.11.66.11 1.42.11h1.75l.54-.11.55-.11.44-.22.32-.33.22-.33.11-.43v-.88l.22-1.2.22-.87.33-.88.32-.54.44-.33.77-.44.65-.22.55-.11 1.75-.43.98-.11h1.09l.88.11.65.32.22.22.22.33.22.55.43.98.44 1.64-.11 1.86-.11 1.74v1.1l.11 1.53-.11.98.11 1.2.22 1.42.11.33.22.22.44.33.43.32.55.22.98.22h.66l.98-.22.66-.33.54-.43.22-.33.11-.33.11-.44-.11-.43-.11-.55-.11-.33-.43-.43-.33-.22-.33-.22-.11-.44-.11-.54-.11-1.42-.22-1.53-.11-3.28-.1-1.2v-.44l.21-.44.11-.43.22-.55v-.87l-.11-.66-.43-.87-.22-.55-.33-.33-.22-.76-.22-.77-.22-.33-.54-.54-.22-.55-.11-.33v-.32l.22-.44.33-.33.32-.22.44-.11h.98l.88.33 1.42.77.98.65.55.44.22.33.32.65.66 2.52.22.43.54.99.66.54h.55l.65-.22.44-.54.22-.55.11-1.09-.11-6.01.22-2.08.43-2.07 1.1-3.28.65-1.2 1.64-2.4.76-.99.55-.54.55-.22.43-.11h.55l.55.22.32.54.22.77 1.2 5.9.44 1.31.66.87.65.44.88.11.76-.11.55-.11.33-.44.54-1.09.55-1.31.76-3.06v-2.29l-.43-1.1-.44-.87-.44-.55-.54-.54-.55-.55-1.86-1.53-1.75-1.31-.54-.33-.44-.54-.44-.44-.32-.55-.22-.22-.44-.32-.55-.22-.65-.11h-.66l-.54.22-.66.33-.65.65-.44.87-.66.99-.43.22-.55.22h-.66l-.76-.33-.87-.66-1.1-1.42-.98-2.29-.33-1.75-.44-1.97v-1.31l.33-1.53.55-1.85.65-.99.77-1.09.98-1.2 1.53-1.31 1.53-.77 1.53-.87.11-.22 1.53-.77 1.2-.32 2.84-.66 2.41-.76 1.74-.44h.22l.33-.33.22-.44.11-.54.33-.22h.32l.55-.11.66-.33h.43l.66-.11.65.11 2.3-.87 1.42-.55 1.96-.33 1.64-.32 2.84-.44 1.75-.33 1.2-.54 1.1-.33 1.31-.11 1.2-.55.66-.43.76-.33.66-.11h.76l.55.11 1.09.22 1.31.11h1.86l.87-.11.77.22.76.32.33-.11.55.11.87.44.98.66.77.54.76.44.77.22.32-.11.44.22.99.43.65.55 1.31.98 1.2.77 1.42 1.42.99.87.76.55.44.33.44.32.32.55.33.76.55.77.87.87.88 1.1.43.87.44.87.11 1.42.22 1.32v.43l.33.44.32.76.22 1.42-.11 1.42v1.32l-.11.54-.32.44-.44 1.09.11 1.09.33 1.64.32 1.31.55 1.21.55.87.98 1.31.87.33 1.31.44 3.83-.55.76-.33.99-.44 1.53-.21.87-.55.87-.44 1.1-.22.65-.21.88-.33.87-.66 1.31-.87 2.08-1.31 1.53-.99 4.04-3.27.66-.99.21-.54.22-.66.11-.87.11-1.1-.11-.76-.22-.44-.43-.54-.55-.66-.55-.65-.65-.55-.66-.33-.87-1.2-.66-2.08-.22-1.09-.21-.54-.11-.66.11-1.75.32-1.64.22-.87v-.44l.55-.43.44-.44.21-1.09.44-.55.44-.22.22-.44v-.54l.11-.22.54-.33.66-.65.65-.88.44-.87.33-.55.65-.54.11-.22 1.53-.88.88-.11h2.51l.76.11.77.44.65.55.88 1.2.44.54.76.44.44.33.65.65.55.66.44.33.65.76.33.33.55.66.43.43h.11l.33.55v.65l.11.44.33.88.43.54.33.55.44.54.11.44-.11.66.11.98v.87l.11.66.54.76.44.88.44.33.11.54.21.66.11.54.44.33-.11.44-.11.33.77 1.09 1.64 1.31.32.22v.22l.22.22.33.21.66.77.21.54.11.22.44.44.33.11h.65l1.42 1.09.88.66.65.54.33.22.44.11.65.44.33.44.55.43.87.44.77.33h.32l.22.11.22.22.22.1h.33l.33.22.43.22h.55l.33.22.32.33.33.33h.44l.33.1.54.33.77.55.87.65.55.33h.44l.21.22-.1.33.21.22.33.32.33.22.33.22.65.66.88.76 2.07 2.62 1.42 1.97 1.31 2.4.66 1.31.44 1.97.32 2.95v1.53l-.11 1.53-.1 1.64-.55 2.4-1.2 2.95-.44.44-.22.55-.22.32-.32.33-.22.55-.33.43-.11.44v1.31l.22.99v.21l-.11.33-.44.22-.22.33v.54l.11.77-.11.98.11.99.33.98.33 1.2.22.87.33.88.32.54.44.55 1.09.98.44.44.44.33.54.33.44.43.55.33.43.22.44.11 1.42.65 1.53.44h1.75l1.2-.11.76-.11h.55l.44-.43.22-.33.11-.11.98-.22.33-.11.22-.22.65-.33 1.2-.43.33-.11.66-.22 1.09-1.31.76-.66.88-.65.76-1.2.99-1.1.65-.76.33-.77.55-.54.32-.77.33-.76.33-.33.33-.44.11-.54-.11-.22v-.11l.21-.55.33-.32.11-.33.11-.88.44-.32.22-.55v-.98l.22-.22.32-.33.22-.33.22-.65.11-.88.22-.54.33-1.1.21-1.2.22-.87.11-.77v-.87l-.11-.87-.11-1.53v-.88l.33-1.09.22-.87v-.88l.22-.98.33-.98.65-1.86.77-1.42.43-.66.44-.22.22-.43.33-.55.43-.55.44-.76.22-.33.33-.43.65-.55 1.2-.55.22-.32.22-.11.11-.11.33-.11.44-.22.65.11.87-.11 1.21-.22.22-.22.1-.33.22-.11 1.86.22.66.11.98.11.65.22.88.33.98.44.77.21.43.44.33.33.77.76.21.44.33.22.33.11.22.11h.33l.11.11.32.32.77.55.44.33.32.33.22.43.22.33.22.33V78l.55.44.65.55.33.33.22.43.87.77.33.43.55.44.54.55.33.33.55.21.43.33.33.11.55.11.54.11h.77l.98.11.87-.11.77-.22.76-.22.66-.54.55-.33.43-.33.44-.66.66-.65 1.09-1.97.76-1.42.44-.87.33-1.09.11-.55v-.98l-.11-.33.11-.55.11-.54.11-1.1-.11-1.2v-.54l-.22-.44-.33-.66-.55-1.64-.43-.65-.77-.87-.22-.33-.11-.44-.21-.55-.22-.43-.33-.22h-.44l-.22.11-.32-.11-.55-.33-.33-.55-.33-.32-.43-.11-.44-.44-.22-.65-.44-.44-1.85-.77h-.33l-.44.22-.43.33h-.55l-.55-.22-.54-.44-.55-.65-.44-.33-.43-.22h-.66l-.76.22h-1.42l-.44-.11-.44-.22-.11-.43-.22-.66-.21-1.2-.33-.66-.44-.65-.22-.77v-.76l.11-1.09.11-1.31.11-.77.11-.66.22-.32.43-.66.11-.33v-.21l.22-.33.55-.55.22-.33.22-.21.43-.22.55-.55 1.2-1.2.22-.22.44-.11.43-.11.44-.22.55-.32.43-.11h.11l.55-.22.55-.11.87-.22 2.4-.55 2.08-.32 2.29-.22.33-.11.55-.22.76-.33 1.75-.76h.66l.65-.11h.66l.54-.11.55-.11.55.11 1.2.22h.54l.44-.11h.22l.66.22.32.21.66.11.98.11.44-.11.44.11.32.22 1.86.22.88.11.76.33 1.53.43.98.44.44.33.66.11h.43l.44.11.33.22.43.43.66.22.66.22 1.31.33.54.33.77.43.43.22.33.33.33.44 1.09.76 2.3 2.51 1.64 2.08.65 1.42.22.22.33.11.22.11.11.32.43.22.33.33.33.66.22.65v.44l-.11.22-.11.32.11.22.11.33.32.44.11.33.22.32v.33l.22.22.22.33.11.32.11.55.33.22.21.33.22.22.11.32.11.66.44.22.11.22.11.76.21.22h.55l.22.44.11.65.22.22.22.33.21.44v1.2l.11.65.11.66.11.33v.54l-.11.66-.11.54.11.44v.77l-.22.65-.1.77.21.43.11.33-.11.33-.11.33.11.54v.99l-.11.21v.66l.22.55.11.43v.66l-.11.87-.11.88-.21.32v.55l.1.66v.98l-.21.44-.55.32-.11.33v1.75l-.22.66-.22.32-.11.66v4.7l-.21 1.09-.11.76-.22 1.1-.22.76v.77l.22 1.42.11.65.11.66.21.54-.1.33-.22.33-.22.87-.55 1.31-.76 3.28-.33 2.08-.11 2.29.22 1.53.22 1.2.33.88.32.76.44.44.33.33.22.54.21.33.44.33.77.22.65.32.44.33.87.22 1.53.44h1.1l.32.11.22.21 1.42.33.88.22.32.11.77.33.33.22h.54l.55.11.87.43 1.53.77.33.33.77.21.54.44.44.11h.44l.43.11.33.11.33.22.44.11.76.32.55.33.87.33.87.33.44.32.33.33.44.11.54.11 1.1.11 1.2.44.32.33.44.1.44.11.76.11h.66l.44.22 1.2.44.65.22.99.11.43.21.66.22.98.22.66.11.98.33 4.59 1.09.98.22.99.33h.43l.33.11.44.21.76.33.99.33.76.44.55.54.54.66.44.76.55 1.21.33.98.43.65v.66l-.11.44-.11.65v.66l-.11 1.2.11.87-.11.55v.76l-.32 1.1-.33.98-.77.77-.43.54-.99.66-2.18 1.42-1.31.98v.66h-.99l-.54.43-.44.33-.22.33-.43.22h-.33l-.33.11h-.33l-.43.11-.33.32-.99.44-1.53.44-1.53.43-.76.11-.98.11h-2.08l-.76.22-.66.33-.87.33-.66.43-.33.66-.11.44-.43.21v.33l.22.99.65.43.44.33 1.09.44.66.11h.54l.77.43.43.22.22.11.55-.11.98.11.66.22.65.33.88.54.76.55.66.55 1.64.87.98.55.33.11.33.21.32.33.55.66.44.43h.43l.33.22.11.22.44.22.11.33.22.33.21.21.66.33.33.11.43.22.44.33.77.22 1.2.54 1.42.44 1.2.33 1.53.43 1.2.33 1.31.33.99.22 1.2.22.76.11.66.21.65.11.44-.11.98-.11 1.86-.54.66-.11.65-.44.77-.54.76-.33.33-.33.44-.87.54-1.1.22-.32.11-.22.44-.22.54-.11.55.11.44-.11.65-.22.77-.33h.76l1.2-.11 1.42-.1h.88l.65.1.44.22.55.11.54.11.55.33 1.53.87.87.77.66.65.55.77.32-.11.44.33.55.54.54.33.44.33.11.44.44.32.54.11.55.22.44.22.43.22.66.44.65.43.22.33.44.22h.44l.43.11.33-.22.44.22.22.43-.11.33.22.44.43.33.44.11.66-.11.21.22.22.54.55.66.44.43.43.33.66.33.76.55.55.21.87.44.66.44.65.22.44.11.55.32.44.33 1.42.22.54.22.88.22.98.11.76.22h.55l1.53-.11h1.2l.66-.11h1.2l.65.22h1.32l.43-.22h.33l.77.11.32-.11.88-.11.43-.22.55-.22.33-.22.44-.11.21-.22.44-.43.66-.99.32-.54.33-.22-.76 4.48-.44 2.95-.11.44.44.54.65 2.19 1.86 6.66-1.31 4.59-3.61 12.24-10.7 32.88-.99 1.64-.98-.44-.33-.11-1.2-.22h-1.42l-56.7.88-3.94-6.78-19.99-31.46-.88-2.08-5.02-7.64-12.78-20.43-1.86-2.95-1.42.98-.33.44-1.42.11-12.56.22-14.75.54-7.76.11-12.02.55-3.82.11-4.81.21-2.08.11h-.76l-1.09.11-.99.11-.76.11-.55.11-.65.22-.44.11-.33.11-.33.11-.21.11-.88-4.48-.76-3.28-.11-.44-.33-1.53-.22-.87-.11-.55-.54-1.53-1.64-4.8-.33-1.21-.33-1.42-.44-1.63-1.2-6.45-.43-2.29-.44-2.08-.44-2.84-.11-.98-.11-.77-.22-1.75-.76-11.47-.44-3.6-.54-4.92-.11-.44-.11-.43-.11-.11-.11-.11-.11-.11-.22-.22-.33-.11h-.22l-.21-.11h-.88l-.54.11h-.33l-.33.11-.44.11-.32.11-.33.11-.11.11-.22.22-.11.11-.11.32-.11.33-.11.44.11.98.99 7.65.87 5.79.66 3.28.87 3.6.98 4.81 1.97 10.71.44 2.51.21 1.42.22 2.29.11 2.3.22.76.11.98.11 1.53.22 1.53.33 2.19.98 5.13.65 2.84-3.27.77-1.42.33-1.31.32h-.99l1.31 8.74.88 5.36 1.42 9.94 1.96 11.36-7.32.44-7.32.11-9.39.43-7.76-.1-2.18.1v18.03l.21 11.47.55 28.3.22 5.79v7.32l-.22 1.53-.44 1.85-.87 2.08-1.09 1.53-2.95 3.17-6.23 6.12-1.09 1.09-1.1 1.09.99.11 1.53.22 12.89 1.53-.22.33-.22.32-.11.77v1.09l.44 8.52.11 4.92.11 2.07.33 9.73.11 5.57 3.49-.11.22 7.21.44 1.97.11.87.11 5.9.11 3.93v.55l-2.95 1.42-.88-5.68h-.22l-.11.11-.11.11-1.63.98-.33.11-1.97 1.97-.87 2.18.43 2.19.99 1.2 1.42.33 3.17-.11.11.87v.22l.21 1.75.11 1.75.11 1.42.22 6.55.11 3.5.11 4.58.22 6.12.33 12.24.32 12.13.11 3.49.11 2.73v.55l.11 2.18.22 7.32.11 4.16.11 4.26-.11 4.15-.33 4.15-.11 2.95-.11 1.42-.22 1.53-.11 1.97v.87l-.1 2.29-.11 1.42.11 1.1v1.31l.21 1.96.11 1.97.22 1.75.11 1.75v2.29l.11 4.04 4.04-.22h.55l2.29-.11 7.87-.43 4.7-.22 8.74-.22 6.77-.55h2.3l10.81-.21h3.83l4.37-.11 5.57-.11h.98l1.97-.11v.76l.11 3.61v.76l-.11.66v.55l-.11.54-.22.44-.22.65-.11.33-.21.33-.22.33-.22.32-.33.44-.33.33-.33.33-.43.43-.11.11-.33.22-.55.33h-.21l-.33.11-.44.11-.54.11-.66.11-.44.11h-.65l-4.92.32-.55.11-.43.11-2.3.33-.54.11-.44.11-1.2.33-.55.11-1.31.54-.98.44h-.11l-2.95 1.64-1.2.87-2.08 1.86-3.93 4.59-10.27 12.67-2.95 4.37 1.74 3.17 1.75 3.28 5.14 9.06 2.84 5.03 2.62 4.92 6.23 10.59 6.77 10.82 2.08 3.06-30.59 10.92-7.43 2.62-2.84.99-1.64.54-3.39 1.31.55 17.49.54 16.82v1.09l.11 1.75.11 2.08.11 1.31h.77l6.88-.11 12.78-.22h.77l.43.11.44.22 1.2 1.2 1.97 1.31 1.42 1.09 2.08 1.42 1.96 1.75 4.04 3.82 1.1.99 1.42 1.31 2.51 2.73 1.75 1.75.44.33.43.1 1.64.22 1.97.33-.33 26.33 9.18 1.2 14.97 35.95v1.09l-2.08 1.09-.98.44-1.31.76-3.06 1.64-2.19 1.53-2.62 1.86-2.62 2.18-3.72 3.17-3.38 3.72-1.64 1.85-2.19 2.73-2.4 3.61-2.08 3.6-2.73 5.36-3.71 8.19-.22.55-5.14 10.92-.65 1.53-.77 1.31-.22.33-.65 1.09-1.09 1.53-1.86 2.19-1.75 1.64-2.73 1.85-2.62 1.31-1.1.33-.87.22-.77.22-3.93.44-1.42.11-.87.1-.77.66-.98.11v3.82l-.11 8.09v7.1l-.11 4.81v12.01l-7.54.11h-.22l-.22.11-.1.22v13.11l.1.33.11.22.22.11h.22l2.51-.11 5.25-.11.22 7.1v2.29l.11 3.5-8.2.33-1.2-.11-4.37.11-7.65.22-5.57.1-6.23.22h-.87l.43-4.15-2.84-2.29-1.96-.55-1.09-.33-1.53-.22-1.1-.1-4.91.32h-4.48l-1.75.22-1.86.44-1.53.33-1.31-.11-1.31-.44-.87-.55-.77-.65-.98-.98-.99-1.21-.76-.87-.98-.77-1.53-1.31-2.95-2.07-.44-.44-.87-1.53-.77-1.86-.44-.65-1.64-1.86-.98-1.64-1.09-2.18-.44-.66-.54-.65-.44-.33-1.86-.66-1.42-.76-1.97-1.42-.32-.11h-.44l-.55.33-.22.54v.44l.11 5.46.22 6.89.44 12.45.33 19.23v.54l-.11 2.95.11 6.56-.11 1.2 2.4-.55 10.38-.32 3.39-.11 1.42-.11h.87l3.5-.11 7.65-.11 9.28-.22 8.96-.44 1.31-.11 4.16-.43 4.26-.11.11 5.24.32 7.54.22 10.71v1.2l-.22.98-.54 1.2-.44.55-.44.44-.54.33-.44.21-.66.22-4.04.44-.76.22-.55.33-.66.54-.54.77-.33.76-.11.55-.11.65v1.31l.33 12.24v4.7l-15.3.43-.43.11-.22.22-.11.33-.11.76.33 12.57-18.36.44-13.44.32-.76.11-32.12.77-9.83.33-8.31.21h-3.6l.65 7.32h-.54l.1.99.11 1.31.22 2.62.22 1.53 1.86 9.07 4.37 20.1.33 1.64 1.2 5.68 5.02 24.8 1.53 7.86.88 4.92.33 1.64-31.03 5.79-11.26 1.97-11.69 2.29.11 1.31.11.88-6.44 1.2-11.04 2.07.22 2.3 14.09-2.62 3.61-.77 3.71-.65 2.63-.44 9.17-1.75 6.01-1.2 4.37-.88.11 2.3.22 9.18.11 4.91v.88l.44 18.24.11 2.95.1 4.48.11 4.48.11 5.9.33 8.85.11 5.35.87 33.21.22 7.76.77 31.57.22 7.98 21.96-.66 9.94-.22.22 1.32.11 1.2.22 1.64.21.32 1.31 1.1 5.25 7.86 5.57 7.87 6.34 9.5 1.09 1.75.44.87.33.99 1.2 4.15 1.42 4.37.65 2.29.22.66.44.65.11.55.65 3.5.33 1.74.11 2.95 27.97-.87h11.14l9.07-.22.22.44.33.44 1.2.87-1.86 1.42-2.29.98-.44.33-.22.33-.11.33.11 2.51.33 18.68-.11 2.08-.11.65-.22.22-.21.11h-.44v10.05l.33 6.23.43 11.25.11.44.11.22.22.11 9.61-.33h1.1l.22.11.21.43.44 5.79.22 1.97.11.98.22.44.22.22 1.2.87.65.44 3.17 1.86.55.33.76.11 5.03-.33 3.28-.22h2.18l.33.22.44.22.11.54.87 5.14.98 6.22.33 1.86.11 1.09-.44.77-.22 1.09-.98 1.53-.33.98-.21.99v.87l.43 1.64.77 1.09 1.53 10.49.87 5.68 2.08 1.97.43 2.29 17.7-.43h.88l.43.1.44.11 3.5 1.31 37.14 14.1 7.54 2.73 12.57 4.81 5.35 1.96 5.79 2.08.44.22 10.92 4.04.99.33.76.32.66.22.98.44-1.86 2.4-5.46 7.21-.76.88-3.17 4.26-19.89 25.89-.65-.33-.88-.43-.32-.11-24.26 30.91-8.52 10.71-4.92 6.23-5.46 6.99.33.55.43 1.09-2.4 3.06-6.88 8.96-1.75 2.51-.87 1.2-.99 1.31-1.53 2.19-2.51 3.27-2.95 3.72-3.5 4.48-2.18 2.84-1.53 1.97-1.31 1.53-1.64 1.96-1.09 1.2-.88.99-1.42 1.53-1.53 1.74-1.09 1.21-1.53 1.74-1.2 1.42-1.31 1.42-.44.55-.55.44-.43.43-.66.55-.98 1.31-13.66 17.59-24.14 30.81-31.47 40.2-2.08 2.63-1.09 1.31-.55 1.2-.54.87-.11.33-1.2 1.53-1.31 1.86-2.95 4.48-.44.76-1.53 2.08-1.09 1.42-2.73 3.49-.11.22-.11.44-.11.65-2.51 2.3-1.75 2.18 1.42 1.31 5.68 4.81 2.4 1.86 6.34 5.57 4.7 4.04 4.91 4.15 4.7 4.05 1.42 1.2.44.33.55.32.32.22-8.74 11.25-6.01 7.54-16.6 21.2-6.01 7.65-6.01 8.08-6.23 7.65-12.13 15.51-2.07 2.84-1.42.66-.66.54-.98 1.2-9.62 12.35-4.04 5.03-2.73 3.49-1.2 2.19-1.09 1.53-1.21 1.63-1.85 2.84-3.5 4.38-8.96 11.58-2.62 3.27-.66.66-.65.98-19.67 25.13-10.05 13-.22-.11-.44-.11-.54-.11-.77-.11-36.82.99-3.93.11h-10.49l-1.2-.11-2.51.21-4.15 5.36-.55-.66-14.75 19.01-.87.11-9.4 11.8-11.91 15.4-.76.88-1.75 2.18-.11-2.51-3.39 4.48-12.45 15.4-2.84 3.83-5.25 6.77-.44.33-.32.11-.77.11-3.49.33-15.63.65-12.34.33-30.27 1.09-10.16.44-21.96.87-13.55.55-9.39.22-.66.11-.22.21-.22.22-.11.33-.1.44v2.07l.1 4.37.66 12.9v1.63l-.11.22-.33.33-.54.11-3.83.22-5.57.22-10.71.43-8.95.44-2.3.11-2.73.22h-1.2l-.66-.22-.33-.22-.11-.54-2.4-22.51-1.09-8.19-.22-2.95-.22-.66-1.31-3.82-.33-1.86v-1.97l.11-1.53v-.54l-.33-.44-.21-.44-1.75-1.31-2.84-2.29-.66-.33-.65-.22-1.21-.33-.54-.43-.33-.99-2.51-9.72-1.1-3.06-2.62-6.77-5.79-14.2-5.13-12.9-5.68-13.76-3.17-6.99-1.1-3.06-.32-.55-.22-.33-.55-.32-.54-.33-.77-.22-5.13-.87-17.05-3.5-8.3-1.53-8.2-1.75-3.93-.76-117.23-3.06-1.75-63.59-2.08-70.79-4.8-.65-1.64-.11-.33.87-.33.98-.65 1.86-.88 1.31-2.29 2.41-2.4 2.4-2.19 1.64-.76.98-.22.22h-.55l-.11-.22-.33-.44-.21-.11-.22-.11-.22-.1-4.92.1-19.77-.1h-22.07l-9.84.1-13.54-.21h-10.82l-13.88-.11h-44.9l-15.73-.22-8.53.22-27.2-.11-5.03-.11-2.18.11-.44.11-.44.22-.65.54-1.53 2.3-.44.43-.43.33-1.43.66-1.31.54-1.74.44.98 36.16.44 13.99.21 10.81.11 1.75-.21 1.09-.33 1.31-.33.66-1.42 3.06-10.16 19.66-4.48 8.96-6.12 15.73-3.28 7.76-3.38 7.87-10.27 23.27-9.84 22.61-.76 1.42-.66 1.31-.33.44-.76.76-.98.55-1.31.55-.77.21h-1.31l-2.4.11-18.14.44-19.12.44-13.22.43-5.24.11-9.18.22-3.06.11h-1.97l-.44.11h-.32l-.11.11h-.22l-.11.11-.11.11h-.11l-.11.11-.22.33-.11.1-.1.22-.11.22-.11.33-.11.44-1.53-.55-1.75-.44-2.08-.54-2.07-.44-2.19-.33-2.07-.33-2.19-.1-2.18-.11h-1.64v2.84l.11 3.71.11 1.64.11 4.15.21 7.43.11 4.92.11 6.55.33 18.68.66 17.92.65 22.83.44 18.47.11 4.69.22 1.53 1.2 4.7.98 3.94.33 1.74.11 1.42.22 11.58.43 9.73.33 15.4.99 35.4.43 15.29.55 18.14.11 2.84 7.21-.22 12.45-.44 1.21.11.76.22.44.44.22.22.21.76.22.88v5.13l1.31 54.52.88 38.89.33 13.33.54 17.7 1.2 46.43.66 26.44 1.31 1.2 1.53 1.2.66.44.43.65.66 1.09.54.88 1.1 1.09 5.79 4.81 1.64 1.53 1.09.65 3.82 1.53 2.3 1.31 2.29 1.53 2.08 1.86.98.98 1.86 2.08.22.22 1.09 1.42-25.79.76-11.58.22h-1.31l-.54.33-.22.33-.11.54-.11.88.76 23.16.22 11.47.99 34.09.11 5.35-.99.76.22 6.56.22 8.63-1.64 3.71-46.11.99-17.48-.77-16.17.88-2.95.21-19.23.22-7.1.11-20.54.44-7.54.22-4.15.11h-4.48l-54.41 1.2-15.29 1.09-9.51.11-11.25.33-35.73.87-3.93.11-6.12.22h-5.35l-3.94.22-.43-.11-2.08-.11-8.3-.22-6.12.55-51.68 1.64-19.45.54h-1.53l-20.1.77-24.58.76-87.52 1.86-4.91.22z" stroke-linejoin="round"/></defs><use xlink:href="#d" fill="#9dc8ca" stroke="#9dd7f0" stroke-width="5.76"/><defs><path id="e" d="M1934.17 600.33l-1.64 1.64-.22-.33-1.53-1.75-1.42-1.64-.66-.87-.11-.11-.98-1.09-.54-.77-2.95-3.93-1.43-1.97-1.85-1.53-8.52-10.27-4.59-5.46-3.5-4.15-1.64-1.97-8.74-10.05-1.42-2.18-.76-.99-1.75-1.74-2.51-2.41-2.41-2.18-.65-.66-1.32-1.2-1.42-.98-.54-.44-.66-.44-.65-.54-.44-.33-1.86-.98-1.2-.66-3.28-1.86-2.29-1.2-3.39-1.75v-3.6l-1.53-.99-.76-.43-.55-.33-1.31-.76-1.31-.77-21.96-12.67-.33-.11-.44-.33-1.31-.76-7.21-4.7-9.5-7.54-.55-.33-4.81-4.59-.54-.32-1.75-1.75-.22.11-1.97-.77-2.29-2.29-.77.11-.21.11-.33-.22-.88-.88-3.82-3.82-2.4-2.29-1.42-1.31-.99-.88-.98-.65-1.75-1.21-.76-.65-1.42-1.2-.33-.33-2.51-2.51-1.97 1.42-.11-2.95-.44-.33-.54-.22-.44-.22-.66-.22-1.2-.32-1.64.1-2.73.11-3.93-.11-.44-.21-1.97.11-6.99.1-8.08.44-2.95.11-7.32.22-6.67.22-4.04.22-2.29.11-7.43.21-11.91.55-2.84.11-4.81.22-1.97.11h-.98l-5.57.11-4.37.11h-3.83l-10.81.21h-2.3l-6.77.55-8.74.22-4.7.22-7.87.43-2.29.11h-.55l-4.04.22-.11-4.04v-2.29l-.11-1.75-.22-1.75-.11-1.97-.21-1.96v-1.31l-.11-1.1.11-1.42.1-2.29v-.87l.11-1.97.22-1.53.11-1.42.11-2.95.33-4.15.11-4.15-.11-4.26-.11-4.16-.22-7.32-.11-2.18v-.55l-.11-2.73-.11-3.49-.32-12.13-.33-12.24-.22-6.12-.11-4.58-.11-3.5-.22-6.55-.11-1.42-.11-1.75-.21-1.75v-.22l-.11-.87-3.17.11-1.42-.33-.99-1.2-.43-2.19.87-2.18 1.97-1.97.33-.11 1.63-.98.11-.11.11-.11h.22l.88 5.68 2.95-1.42v-.55l-.11-3.93-.11-5.9-.11-.87-.44-1.97-.22-7.21-3.49.11-.11-5.57-.33-9.73-.11-2.07-.11-4.92-.44-8.52v-1.09l.11-.77.22-.32.22-.33-12.89-1.53-1.53-.22-.99-.11 1.1-1.09 1.09-1.09 6.23-6.12 2.95-3.17 1.09-1.53.87-2.08.44-1.85.22-1.53v-7.32l-.22-5.79-.55-28.3-.21-11.47v-18.03l2.18-.1 7.76.1 9.39-.43 7.32-.11 7.32-.44-1.96-11.36-1.42-9.94-.88-5.36-1.31-8.74h.99l1.31-.32 1.42-.33 3.27-.77-.65-2.84-.98-5.13-.33-2.19-.22-1.53-.11-1.53-.11-.98-.22-.76-.11-2.3-.22-2.29-.21-1.42-.44-2.51-1.97-10.71-.98-4.81-.87-3.6-.66-3.28-.87-5.79-.99-7.65-.11-.98.11-.44.11-.33.11-.32.11-.11.22-.22.11-.11.33-.11.32-.11.44-.11.33-.11h.33l.54-.11h.88l.21.11h.22l.33.11.22.22.11.11.11.11.11.11.11.43.11.44.54 4.92.44 3.6.76 11.47.22 1.75.11.77.11.98.44 2.84.44 2.08.43 2.29 1.2 6.45.44 1.63.33 1.42.33 1.21 1.64 4.8.54 1.53.11.55.22.87.33 1.53.11.44.76 3.28.88 4.48.21-.11.33-.11.33-.11.44-.11.65-.22.55-.11.76-.11.99-.11 1.09-.11h.76l2.08-.11 4.81-.21 3.82-.11 12.02-.55 7.76-.11 14.75-.54 12.56-.22 1.42-.11.33-.44 1.42-.98 1.86 2.95 12.78 20.43 5.02 7.64.88 2.08 19.99 31.46 3.94 6.78 56.7-.88h1.42l1.2.22.33.11.98.44.99-1.64 10.7-32.88 3.61-12.24 1.31-4.59-1.86-6.66-.65-2.19-.44-.54.11-.44.44-2.95.76-4.48 2.19-.33.43.11.33.44.44.22h.44l.54-.22.44.11.44-.11.43-.44 1.53-.87.66-.55 1.09.22.22.11.87.44.55-.11.33-.11h.43l.99-.22.65.11.99-.11.98.11h.98l1.31.22.77.32.76.22 1.21.22.1-.65-.43-.33-.22-.44v-1.97l.11-.43.11-.33.11-.22.22-.11.1-.33.11-.54.22-.22.22.33h1.2l.44-.22.33-.33 1.64.22-.11.87v.77l-.33.76-.44.88-.33 1.2-.21.65.11.44.21.22.33.11.33.11.76.33.55.54.66.33.43.44.44.65.33.88.11.54.11.55.32.33.55.76.33.55.54.43.44.11h1.53l.77-.11.21-.32.55-.22.66-.22.54-.44.33-.33.44-.1.43-.33.33-.55.22-.22h3.06l.55-.11h.54l.77.11 1.09.11-.11-.54.11-.33.33-.11.22-.11.32-.11.66.11.55.11.21.11h.44l.55.11.54.22.44-.11.33.22h.33l.54.1.66.11.87-.11h1.53l1.42-.54.88-.22.76.11.88-.22 1.09-.22h1.96l.33-.11.11-.43-.11-.77.22-.11h.33l.11.22.43.44.22.22.33.43.33.11.44.22.43.44.33.11h.33l.33.11.43.21.66.77.33.55.32.54.22 1.09.22 1.21.11.65-.22.44-.54.54-.77.66-.55.55.11.32-.43.11h-.44l-.33.22-.22.44-.32.44-.66.21-.33.33-.87.44-.88.55-.65.21-.55.22-.54.22-1.86.11-2.51.44-1.75.22-1.53.1-.99.11-.43-.11-.44.11-.22.22-.22.22-.32.33-.33.55-.22.54-.55.33-.54-.11-.33.22-.44.11-.22.43-.32.44-.22.44-.11.33-.11.54-.33.44-.22.22-.11.33v.32l.22.44.22.33.11.11.66 1.53.32.65.44.77.33.43.65 1.53 3.72 5.25.22.33v.54l.32.22.33.22v.22l.33.22.33.11.22.21.32-.11h.44l.11.22.77-.11.21.11.22-.22.11-.21v-.55l.33-.22v-.44l.44-.54.32-.55.66-1.2.55-.55.21-.11v-.32l.22-.33.33-.55.33-.87.11-.22h.22l.32-.22.33-.54.44-.55.22-.44.22-.43h.54l.22-.11.22-.44.65-.44 1.53-.87.55-.11.77-.22.65-.33.44.11.33-.11.32-.43.44-.11.77-.22.43.11.44.11 1.2.11.66-.11h1.85l2.63.76 1.85 1.09.44.11.33.22.11.44.22.33.87.43 1.09.33.55.22 1.42.11.65-.33.66-.33.44-.43.22-.33.32-.22.22-1.2v-.77l-.22-.22v-.87l.11-.98v-.88l.44-.87.33-.77.54-.65 1.21-.87.54-.55.77-.66.54-.32.88-.11.54-.44.99-.22.98-.11.98.11.66.22.98.33.77.65.65.44.55.66.22 1.2.11 1.64-.11 1.85-.11.99-.66 1.64-.22 1.09-.43 1.53-.33 1.2-.66 1.86-.32.87-.99 1.75-.33.76-.54.99-.44.87-.33.76v1.32l.11.98.11.87.66.99.65.87 1.1.77 1.2.65.87.33.66-.22.98-.22.55-.33.43-.65.22-.33.11-.76-.11-1.86-.22-1.31-.87-2.95.11-1.64.22-.98.33-1.32.32-1.63.66-1.75.55-1.31.54-3.39.44-1.31v-.66l.33-.32.32-.22.22-.44.11-.33.22-.22.22-.21.11-.44v-.55l.54-.76.55-.66.66-1.09.76-.66.87-.76.99-.55.98-.32.88-.22h.87l.44.11 1.53.76 1.2.55.98.32 1.42.44 1.09.44 1.32.44 1.31.54.87.22 1.09.55 1.42.98.77.55.76.21.99.88 1.2 1.2.33.33.21.65.33.44.22.77.22 1.31.33.65.32.44.11.33.66.54.44.22 1.2.77.87.32h.66l.65.22.55.22.66.33h.65l.55.22h.76l1.09.22 1.42-.11.55-.22.66-.55.43-.33.33-.43.22-.66.11-.98.11-.88-.33-.32-.22-1.53.11-.55.11-.33.44-.11.33-.32.1-.33v-.22l.22-.33.33-.11.55-.43.33-.33.65.22.66.32.54.66.44.33.44-.11.32.22.66.43.33.33.22.77.87.65.55.33 1.2.33.44.22.76.43.44.33.65.44.77.22.43.21.33.33.22.66.33.33.44.21.43.11.22.33.66.66.65.76.44.88.65.98.66.76.55.55.43.98.11.66-.32.65-.55 1.21-.22.98-.66 1.2-.43 1.2-.33.88-.22.43-.22.44v.44l.22.54 1.09 1.21.55.43h.77l.76-.43.66-.66.65-.76.66-1.1.76-2.4.44-.98.44-.66.76-.76.98-.99.88-.43 1.2-.55 1.64-.11h.65l.55.33.98.43 2.08 1.32 1.42 1.31 1.31 1.64.98 1.74.66 1.42.55 1.31.43 1.21.33 1.53.11 1.09-.22 1.96-.22 1.32.11.65.33.55h.44l.54-.33.55-.87.44-.99.32-1.42.11-.76.33-.66.55-.54.33-.66.76-.98.76-.77.88-.65 1.31-.66 1.31-.44 1.2-.32 3.61-.44h.65l.55-.33.44-.44.11-.32-.11-3.06-.11-.33 2.18-1.42.88-.55.32-1.31.77-.43h1.2l.55.43.33.66.76.87 1.09.66 1.64.54 1.09.22 1.53.11 1.31-.44.88-.54 1.31-1.42.22-.22 1.31-.77h1.31l1.97.33 1.53.33 1.31.44 1.31.98 2.07.44 1.75.65 1.42.66 1.75 1.2 1.53 1.09 1.31 1.1 1.86 1.31 1.75 1.2 1.64 1.42.98.87 1.09 1.31.99.88 1.74 1.53 1.21 1.42 1.2 1.31 1.53 2.4 2.29 2.73 1.64 2.63 2.29 2.29 1.1 1.53 1.75 2.95.87 2.95.44 2.51.32 1.2.11.99v1.96l-.22 1.53-.43 1.75 3.28 18.9 7.1 12.13 4.91 10.16.66 5.13-.22 3.5-1.97 22.72 1.1 12.57 2.4 9.61 5.68 6.45 7.87 7.21 2.07 1.74 4.05-.65 2.62-.77 1.75 2.08 3.71 1.86 36.17 6.77 16.93 16.28-.98 18.24-1.31 4.7-3.94 5.25-3.6 3.49-7.98 2.95-5.68.77-12.13 1.09-5.57 1.64-5.79 3.27-1.2 1.53-1.97 3.94-1.09 4.15.87 2.51 2.63 3.72 4.37 3.93 4.37.65 3.93-.21 2.29.1 2.19.22 2.95 2.19 26.88-10.05 4.58-1.64 2.84-.66 3.39-.11 3.93 1.1 1.64 1.2 20.76 21.52-5.02 4.81v1.2l-6.67 4.26-1.42 1.09-2.84 2.51-.87 1.21-1.42 1.96-.77 1.42-1.2 3.28-2.51 8.96-1.97 7.21-1.75 6.01-.98 3.39-.55 1.31-.54 1.31-2.3 3.71-5.57 8.2-10.16.54-16.61.33-17.04.44-38.24.87h-.55l-7.54.11-5.46.22-.22-7.43-.76-7.1-.22-5.03-.11-.22-.11-.32-.33-.11h-8.63l-.98.11-1.31.43-1.2.88-3.83-.22h-.65l-.33.11-.22.22-.22.32v.44l.11 3.83.33 6.77-.88 7.65h-1.53l-14.96.43-7.43.11-7.21.11-.99-20.1-19.12.87.44 10.71.22 8.96-2.19.11-6.77.11-2.51.11h-3.39l-.22-4.15-.55-31.25v-1.31l-.1-.44-.22-.22-.22-.22-.22-.1-.44-.11-5.35.32h-3.17l-2.73.11h-1.2l-5.68.22-.22-8.74-10.71 5.14.11 3.82.11 1.86.55 13.33.32 5.9 4.59 2.94 1.2 2.74.11.21 2.52 10.49h-6.12l-.77.11-.43.11-.66.22-.66.33-8.41 3.93-6.34 2.73-6.22 2.73-.33.11-.44.22-.76.55-.66.54-.43.33-.22.11-.55.66-.55.65-1.2 1.31-1.96 2.41-1.1 1.31-4.37 5.13-.11.44-1.74 2.07-2.74 3.39-2.51 2.73-1.64 2.08-2.62 3.71-.22.33-.22.22-.87.98-2.08 2.51-1.75 2.63-2.94 4.26-8.2 11.91-1.97 2.84v.21l-.76 1.1.11-.66-.33.33-1.31 1.64-1.64 1.86-.44.43-.43.55z" stroke-linejoin="round"/></defs><use xlink:href="#e" fill="#9dc8ca" stroke="#9dd7f0" stroke-width="5.76"/><defs><path id="f" d="M1777.82 1348.8l-22.29 28.51-.76-.32-.99-.33-10.92-4.04-.44-.22-5.79-2.08-5.35-1.96-12.57-4.81-7.54-2.73-37.14-14.1-3.5-1.31-.44-.11-.43-.1h-.88l-17.7.43-.43-2.29-2.08-1.97-.87-5.68-1.53-10.49-.77-1.09-.43-1.64v-.87l.21-.99.33-.98.98-1.53.22-1.09.44-.77-.11-1.09-.33-1.86-.98-6.22-.87-5.14-.11-.54-.44-.22-.33-.22h-2.18l-3.28.22-5.03.33-.76-.11-.55-.33-3.17-1.86-.65-.44-1.2-.87-.22-.22-.22-.44-.11-.98-.22-1.97-.44-5.79-.21-.43-.22-.11h-1.1l-9.61.33-.22-.11-.11-.22-.11-.44-.43-11.25-.33-6.23v-10.05h.44l.21-.11.22-.22.11-.65.11-2.08-.33-18.68-.11-2.51.11-.33.22-.33.44-.33 2.29-.98 1.86-1.42-1.2-.87-.33-.44-.22-.44-9.07.22h-11.14l-27.97.87-.11-2.95-.33-1.74-.65-3.5-.11-.55-.44-.65-.22-.66-.65-2.29-1.42-4.37-1.2-4.15-.33-.99-.44-.87-1.09-1.75-6.34-9.5-5.57-7.87-5.25-7.86-1.31-1.1-.21-.32-.22-1.64-.11-1.2-.22-1.32-9.94.22-21.96.66-.22-7.98-.77-31.57-.22-7.76-.87-33.21-.11-5.35-.33-8.85-.11-5.9-.11-4.48-.1-4.48-.11-2.95-.44-18.24v-.88l-.11-4.91-.22-9.18-.11-2.3-4.37.88-6.01 1.2-9.17 1.75-2.63.44-3.71.65-3.61.77-14.09 2.62-.22-2.3 11.04-2.07 6.44-1.2-.11-.88-.11-1.31 11.69-2.29 11.26-1.97 31.03-5.79-.33-1.64-.88-4.92-1.53-7.86-5.02-24.8-1.2-5.68-.33-1.64-4.37-20.1-1.86-9.07-.22-1.53-.22-2.62-.11-1.31-.1-.99h.54l-.65-7.32h3.6l8.31-.21 9.83-.33 32.12-.77.76-.11 13.44-.32 18.36-.44 16.17-.55h.76l12.35-.33 1.97-.21.76.43h2.4l1.97-.11h1.31l4.26.11 2.84-.11h2.19l3.39-.32h.43l1.97.11.11.87.11 1.75v5.9l.33.76.21 3.28 1.42-.11 4.16-.11 8.85-.33 12.23-.32h4.04l3.5.21h.66l.65.11.55.11.76.11 1.97.33 1.75.44 1.31.32 1.31.33 4.48 1.64.98.33 3.17 1.42 3.5 1.86 2.95 1.63 1.53.99 2.95 2.29 3.17 2.51.43-1.63.55-1.86.33-.77.98-2.84 1.31.55.66.22 1.64.33 5.35.43 6.88.55 2.62.22.77.22.76.32 2.08 1.1 2.18 1.2 3.28 1.53.88.22h1.85l.55-.22 1.2-.55 4.26-3.17.99-.98 1.53-1.31 3.71-2.84.55-.33.54-.44 3.28-2.29 1.31-1.09.77-.66.54-.65.55-.55.44-.66 1.2-1.85 4.04-7.43 1.42-2.51.66-.88 1.31-1.31.98-.87 1.31-.66 1.31-.65 1.75-.77 1.86-.76 9.39-3.28 2.41-.88 3.71-1.53 1.75-.76.66-.44 1.96-1.2 3.72-3.49.54-.55 2.95-2.51 4.48-3.83.33-.22.33-.11 1.64-.43 5.9-.88 2.29-.76 7.98-2.3 1.64-.54 2.95-.88 2.07-.76 2.52-1.2 1.63-.99.99-.76 1.31-1.42 1.31-1.97 1.31-2.18.98-1.2 1.1-1.31 1.53-1.21 2.4-2.07 7.43-6.34 1.86-1.42 5.57-4.26 1.31-.87 1.2-.77.22-.22.11-.11-.11-.21.33-.11h.22v-.22l3.49-1.97v-.22l.11-.22 1.31-1.2.99-.65.54-.33.55-.33 3.6-2.4 5.69-4.37 1.63-1.2 4.16-2.84 4.8-3.5 1.86-1.31.77-.66 2.07-.11 3.61.77 4.15 1.09 1.97.44 5.46 1.31 3.17.76 1.31.33 5.02 1.75 2.95.98 1.53.33h1.2l7-.44.98-.11 3.82-.1 2.08-.11 7.32-.44 7.1-.44 3.28-.11 4.15-.11.11.11.11.22 2.19 1.42.54.44.33.22.11.11.22.21.98-.54.77-.55.87-.43.55-.33.76-.22.55-.22.76-.11v-.11l.55-.43.65-.11h5.47l2.29-.11v-.33h1.09l1.97.11h.44l.11 2.51v5.03l.54 6.55.11.88.44 5.46.11 1.75.11 1.2.11 2.95.11 1.53.21 4.69.11 4.37.11 3.61.11 3.82.11 2.08.11 2.18.11 2.63.11 2.4.33 2.95.87 8.08.33 2.84.98 5.9v.33l.11.44.11.44v1.74l-.11.33-.11.22-.11.11-.22.33-.32.32-.33.11-.22.11-.33.22-.65.22-.33.11.55 3.71.1.55.44 2.19.33.54v.33l.98 5.68 1.1 9.18.54 4.04.44 6.99.76 16.72-.54.54.11 3.06v2.19l.11 1.42v.76l.1.99v.76l.11 5.03.11.98v1.86l.11 3.16.22 5.47v1.85l.22 4.81.22 7.98.11 1.53v1.31l-.11 2.07-.11 2.19-.22 1.75-.55 4.8-.32 1.86-.33 1.97-.44 2.07-.54 2.08-.66 2.84-.77 2.62-.87 2.62-.87 2.62-.22.33-.66 1.64-.22.55-1.09 2.51-1.2 2.51-.22.44-.98 1.97-1.31 2.29-1.31 2.19-.44.76-.88 1.31-.87 1.31-1.64 2.3-1.31 1.74-3.71 4.59-2.74 3.61-1.96 2.51-1.31 1.75-.88 1.09-1.2 1.53-.65.87-1.21 1.53-1.42 1.86-1.64 2.08-.32.43-.99 1.32-1.2 1.63-6.99 8.96-.66.77-1.09 1.53-.55.76-1.42 1.75-7.53 9.61-2.19 2.84v-1.42l.22-1.53.22-1.42.43-1.42.44-1.53.44-1.31.22-.54.43-1.1.33-.87.22-.87.44-1.1.76-1.74.88-1.75.65-1.31.77-1.1.65-.87.66-.76 1.42-1.42-.66.43-.65.44-.55.44-.44.54-.54.33-.44.44-.55.54-.54.55-.66.87-1.2 1.32-.66.87-1.2 1.64-.98 1.31-.77.87-1.52 1.97-1.75 2.29-2.52 3.17-5.46 6.99-3.93 5.03-1.2 1.64-5.58 7.1-4.91 6.23-5.57 7.21-.55.87-.44.98-.33.55-.21.66-.22.65-.11.55-.11.98-.11.88v1.42l.11.65.11.87.33 1.97.32 1.97.11.54-.54.66-.55.76-.65.88-.55.65.11.77-.44-.33-.44.44-1.31 1.85-.11-.54-.11-.33-.1-.22-.22-.11-.22-.22-.33-.21h-.87l-.22.11-.33.1-.22.22-.22.22-.32.44-.44.65-.44.44-.44.66-.43.54-.22.33-.66.87-.54.88-.55.98-.55.99-.65 1.09-.33.65-.33.55-.43.66-.55.65-.44.77-.43.54-.55.66-.77.98-.54.76-1.09 1.21-4.59 6.01-3.17 4.04-1.75 2.18-1.2 1.53-1.2 1.42-1.97 2.52-.87 1.09-1.31 1.42-1.21 1.42-.43.54-2.3 2.52-1.64 1.85-1.85 2.08-1.75 2.08-1.75 2.18-.44.55-.43.43-1.53 1.64-.11.22-1.97 2.51 3.06 1.1.76.32-.76.77-7.54 9.94-.76.98-22.4 28.63-13.99 17.81-.22.21-.21.22-29.83 38.24-19.34 24.69z" stroke-linejoin="round"/></defs><use xlink:href="#f" fill="#6bacaf" stroke="#6bb4d2" stroke-width="5.76"/><defs><path id="g" d="M1991.85 1086.27h-1.74l-2.63.11H1983l-1.2.11.88-1.09 1.31-1.75 1.96-2.51 2.74-3.61 3.71-4.59 1.31-1.74 1.64-2.3.87-1.31.88-1.31.44-.76 1.31-2.19 1.31-2.29.98-1.97.22-.44 1.2-2.51 1.09-2.51.22-.55.66-1.64.22-.33.87-2.62.87-2.62.77-2.62.66-2.84.54-2.08.44-2.07.33-1.97.32-1.86.55-4.8.22-1.75.11-2.19.11-2.07v-1.31l-.11-1.53-.22-7.98-.22-4.81v-1.85l-.22-5.47-.11-3.16v-1.86l-.11-.98-.11-5.03v-.76l-.1-.99v-.76l-.11-1.42v-2.19l-.11-3.06.54-.54-.76-16.72-.44-6.99-.54-4.04-1.1-9.18-.98-5.68v-.33l-.33-.54-.44-2.19-.1-.55.43-.11 1.31-.21 5.36-1.1 7.32-1.31 1.09-.43 7.65-1.42 3.82-.22 6.45-1.1 1.75-.21.32 3.93.11 2.4.11 3.72h.77l.32-8.09-.43-2.07.54-.77.77-.11 20.1-3.82 2.73.11 4.15-1.75 2.52-.55 2.62-.43 6.56-1.75 7.97-2.3 5.79-1.85 5.36-1.97 7.97-3.06v-.54l-3.5-.11v-.22l-3.71-.11.22-.44.33-2.95-.11-2.84-.44-7.97-.44-7.32v-.77l-.11-7.76-.21-7.97-1.21.11-.32-7.21-.11-7.87-.33-8.08-.33-7.87-.55-7.75-.32-8.2-.22-7.32-.33-7.86-.22-7.98-.22-7.54-.22-7.32-.43-.87.11-7.87-.22-4.04-.11-3.39v-.87l7.87-.44h5.57l4.04-.22h2.73l.44-.11-.66-1.09-.22-.43-.21-.55h.98l1.64-.11h.87l1.75-.11 5.68-.33 4.92-.22h1.64l4.26-.1 2.51-.11 7.76-.22.98-.11 4.92-.22 3.49-.11h.99l8.08-.44v.33l5.79-.22 13.88-.43 7.1-.11 3.93.21 2.84.44v-.44l.66.11.76.11.77.11 1.97.55 1.74.65 1.75.66.88.33.98.54 1.09.55 3.17 1.86 1.64.87 1.42.55 1.75.87.44.55 3.93 1.31 3.71 1.42h1.42l3.17.65 3.61.22 2.07.44 7.98-.22 2.18-.22 2.08-.11.98-.11h1.21v-2.4l-.22-1.42-.22-1.09-.55-.99-.87-1.31-1.64-1.74-6.34-6.01 2.41-1.97 1.2-.22.33-.33.54-.54.22-.11-.11-.66.77-3.93.65-4.26 1.31-6.66.44-1.75 2.08-12.89 2.4-11.91 4.81-27.86 1.53-8.85 2.51-12.67 2.07-12.24 2.63-14.31.76-4.59 1.31-3.71 1.2-7.43 6.12-32.34 2.52-13.88 2.18-11.69.98-6.22.66-4.05 3.06-16.71 1.09-5.46 2.95-17.26 1.31-6.45.99-6.01.65-4.81v-.76l.22-3.5-3.39.55-2.4.55-2.51.21-1.97.11-3.17-.11-2.51-.43-.77-.22-1.42-.55-3.71-1.75-1.31-.76-1.97-.76-.98-.33-1.86-.33-.76-.33-.99-.87-1.53-1.2-.54-.22-1.1-.88-2.62-2.18-2.73-2.4-2.4-2.52-1.86-2.18-1.42-2.3-.98-1.2-.33-.33-.77-.21h-.54l-.33-.11-.33-.33-.87-1.31 5.02-4.81 15.41 15.95 5.02 2.51 3.5.99 18.14 1.09 4.15.22 3.49.22 3.39.43 5.57 1.64 15.08 7.1 19.45 10.6 9.39 6.23 5.36 20.76 2.62 18.13 9.72 21.52 16.61 23.82 3.28 7.43 1.31 6.99.44 4.37-.33 2.73-.22 2.19-.98 4.8-3.39 6.45-16.17 20.1-7.1 22.51-2.41 5.35-5.35 5.79-3.82 4.04-3.72 3.06-3.49 1.86-8.74.87-6.34.22-2.95-.11-3.06-1.31-8.19-4.91-3.83-.88-3.06.77-2.29 1.42-.77 2.18-.54 4.48.98 7.43-.33 2.73-5.68 18.46-8.96 22.29-5.57 18.9-.98 3.28-.22 1.2-.11.22-.11.22-.22.54-.22.22-.98 1.53-17.15 23.93-.99 1.64-.87 2.62 2.18 5.46 3.28 3.06 3.17 1.42 3.71-2.29 17.05-13.99h2.51l5.79 1.31 5.9 2.62 1.97 3.17 3.39 12.13-.66 3.17-2.95 5.68-2.4 2.73-1.97 1.75-2.73.43-20.87 1.64-9.07 2.63-2.4 1.09-1.97 2.07-.98 1.97-1.09 2.73-.77 3.39-.33 4.91.66 3.17 1.86 4.59 1.85 2.73 2.84 2.73 10.71 8.53 1.75 1.31 1.42.54 32.89 13.88 1.42 1.2 1.96 2.62 2.41 3.93.43 1.75.22 3.83 1.64 3.38 2.84 4.59 1.97 2.84 3.17 1.97 1.31.54 2.4 1.21 5.9 2.4 3.61.66 3.71-.11 7.87-.88 24.14-4.15.99-.22.11 6.88.54-.1 5.03-2.3 4.37-2.07 1.53-.55.54.11.44.33.66.21h1.09l3.93-.65 2.08-.44 2.29-.43 1.53-.55 1.97-.44 7.76-1.31 2.29-.11 7.98-.11 2.73.11 3.17.44 1.31.22 2.07.43 1.86.11h4.26l.55.11.11.11.22.22.54 1.2.55.22 5.46 1.64 8.74 2.84 3.61 1.2.98.44h.77l.65-.11 1.53-1.09.66.11 2.95 1.2 3.16 1.42 1.75 1.09 2.19 1.75 5.02 4.26.99.98 4.37 3.5 7.1 5.02 1.53 1.21.65.54.55.88.55 1.74.87 4.05.22 4.37.11 4.15.11 5.35-.11 5.14-.22 3.16-.44 2.74-1.31 6.88-.65 2.18-.99 2.52-1.53 3.05-2.62 3.72-1.75 1.97-.65.54-.11.44v.33l.11.32.98 1.97h.44l.76-.54.77-.55.65-.22.55-.22.98.11 1.86.22 2.29.33.77.22.65.32.33.11.22-.22 1.2-1.42.22-.32v-.77l-.22-.22-1.09-.76-.22-.22-.11-.44v-.65l.11-.22 1.97-.33.22-.11.22-.22.32-.54.99-4.7.87-2.51.33-1.86.33-1.75.11-.44.43-.76.66-.55.87-.65.33-.33.22-.44 1.2-3.06.44-1.53.65-3.6.33-1.53.44-2.62v-.33l-.11-.44-.33-.32-.44-.33-.32.11-.11.22-.33 1.09-.11.22-.22-.11-.22-.22-.11-.44.11-1.53.11-.43v-.77l-.33-1.86-.11-1.31.22-.33.55-.21.22-.33.22-.33v-.98l-.11-4.05.11-.21.32-.33.44-.22h.11l.33.11 1.09.65 2.19 1.86 13.87 13.99.55.43 7.43 6.34 8.3 7.76 3.17 2.07 3.06 1.97 1.31 1.09.33.33v.54l-.88 1.64v.33l4.26 4.15 3.5 3.06.55.22 1.96 1.31 1.86.55.87.54.66.44-1.86 3.06-4.48 5.13-.98.44-14.53-.22-1.31.44-1.2.55-12.02 13.76-6.23 3.93-4.37 2.19-2.62.98-2.62.88-7 1.96-4.37.44-14.09.33h-1.64l-1.42.11-5.14.43-55.61 2.19-2.62-.11-2.84-.33-3.17-.65-1.97-.22-1.42.11-22.39 4.81-1.42.21-4.59.77-1.97.44-5.68 2.07-2.19.77-4.26 1.42-8.85 2.4-.87.22-8.52 1.86-6.01 1.31-.98.43-.77.55-9.94 2.51-9.62 2.73-3.16-3.6-.99-1.2-3.49-3.39-2.95.87 3.93 4.92 1.97 2.4-.77.66-.22.11-.22.11-.21.22-.33.21-.44.22-.33.11-.54.11-.22.11-.44.11-5.24 1.2-.55.22-2.29.44-13.44 2.73-8.96 1.86-5.79 1.2-7.98 1.64-7.32 1.53-7.1 1.42-7.21 1.42-7.21 1.53-7.32 1.53-6.99 1.42-7.21 1.52-2.41.44-2.51.55-2.3.44-1.09.21-1.75.33-1.09.11-1.53.11-1.64.11-6.66.22h-1.31l-1.21.11h-.98l-12.34.43-7.22.33-7.21.33-7.21.33-7.21.22-7.32.21-4.59.11-2.51.11-3.28.11h-3.93l-.55-.11-3.17-.33h-3.38l-.88.11-6.66.33h-.55l-14.09.44-4.7.22-6.55.22-1.1.11h-1.96l-4.92.21-3.82.11h-1.21l-4.48.22h-1.85l-8.42.33-4.04.11-11.03.22-3.72.11-5.02.21h-1.53l-2.84.11-2.63.11-3.16.11-3.28.22-7.1.33h-3.5l-11.25.44-12.24.32-2.19.11z" stroke-linejoin="round"/></defs><use xlink:href="#g" fill="#09757a" stroke="#097d9b" stroke-width="5.76"/><defs><path id="h" d="M1762.85 949.27l-4.26 3.17-1.2.55-.55.22h-1.85l-.88-.22-3.28-1.53-2.18-1.2-2.08-1.1-.76-.32-.77-.22-2.62-.22-6.88-.55-5.35-.43-1.64-.33-.66-.22-1.31-.55-.98 2.84-.33.77-.55 1.86-.43 1.63-3.17-2.51-2.95-2.29-1.53-.99-2.95-1.63-3.5-1.86-3.17-1.42-.98-.33-4.48-1.64-1.31-.33-1.31-.32-1.75-.44-1.97-.33-.76-.11-.55-.11-.65-.11h-.66l-3.5-.21h-4.04l-12.23.32-8.85.33-4.16.11-1.42.11-.21-3.28-.33-.76v-5.9l-.11-1.75-.11-.87-1.97-.11h-.43l-3.39.32h-2.19l-2.84.11-4.26-.11h-1.31l-1.97.11h-2.4l-.76-.43-1.97.21-12.35.33h-.76l-16.17.55-.33-12.57.11-.76.11-.33.22-.22.43-.11 15.3-.43v-4.7l-.33-12.24v-1.31l.11-.65.11-.55.33-.76.54-.77.66-.54.55-.33.76-.22 4.04-.44.66-.22.44-.21.54-.33.44-.44.44-.55.54-1.2.22-.98v-1.2l-.22-10.71-.32-7.54-.11-5.24-4.26.11-4.16.43-1.31.11-8.96.44-9.28.22-7.65.11-3.5.11h-.87l-1.42.11-3.39.11-10.38.32-2.4.55.11-1.2-.11-6.56.11-2.95v-.54l-.33-19.23-.44-12.45-.22-6.89-.11-5.46v-.44l.22-.54.55-.33h.44l.32.11 1.97 1.42 1.42.76 1.86.66.44.33.54.65.44.66 1.09 2.18.98 1.64 1.64 1.86.44.65.77 1.86.87 1.53.44.44 2.95 2.07 1.53 1.31.98.77.76.87.99 1.21.98.98.77.65.87.55 1.31.44 1.31.11 1.53-.33 1.86-.44 1.75-.22h4.48l4.91-.32 1.1.1 1.53.22 1.09.33 1.96.55 2.84 2.29-.43 4.15h.87l6.23-.22 5.57-.1 7.65-.22 4.37-.11 1.2.11 8.2-.33-.11-3.5v-2.29l-.22-7.1-5.25.11-2.51.11h-.22l-.22-.11-.11-.22-.1-.33v-13.11l.1-.22.22-.11h.22l7.54-.11v-12.01l.11-4.81v-7.1l.11-8.09v-3.82l.98-.11.77-.66.87-.1 1.42-.11 3.93-.44.77-.22.87-.22 1.1-.33 2.62-1.31 2.73-1.85 1.75-1.64 1.86-2.19 1.09-1.53.65-1.09.22-.33.77-1.31.65-1.53 5.14-10.92.22-.55 3.71-8.19 2.73-5.36 2.08-3.6 2.4-3.61 2.19-2.73 1.64-1.85 3.38-3.72 3.72-3.17 2.62-2.18 2.62-1.86 2.19-1.53 3.06-1.64 1.31-.76.98-.44 2.08-1.09v-1.09l-14.97-35.95-9.18-1.2.33-26.33-1.97-.33-1.64-.22-.43-.1-.44-.33-1.75-1.75-2.51-2.73-1.42-1.31-1.1-.99-4.04-3.82-1.96-1.75-2.08-1.42-1.42-1.09-1.97-1.31-1.2-1.2-.44-.22-.43-.11h-.77l-12.78.22-6.88.11h-.77l-.11-1.31-.11-2.08-.11-1.75v-1.09l-.54-16.82-.55-17.49 3.39-1.31 1.64-.54 2.84-.99 7.43-2.62 30.59-10.92-2.08-3.06-6.77-10.82-6.23-10.59-2.62-4.92-2.84-5.03-5.14-9.06-1.75-3.28-1.74-3.17 2.95-4.37 10.27-12.67 3.93-4.59 2.08-1.86 1.2-.87 2.95-1.64h.11l.98-.44 1.31-.54.55-.11 1.2-.33.44-.11.54-.11 2.3-.33.43-.11.55-.11 4.92-.32h.65l.44-.11.66-.11.54-.11.44-.11.33-.11h.21l.55-.33.33-.22.11-.11.43-.43.33-.33.33-.33.33-.44.22-.32.22-.33.21-.33.11-.33.22-.65.22-.44.11-.54v-.55l.11-.66v-.76l-.11-3.61v-.76l4.81-.22 2.84-.11 11.91-.55 7.43-.21 2.29-.11 4.04-.22 6.67-.22 7.32-.22 2.95-.11 8.08-.44 6.99-.1 1.97-.11.44.21 3.93.11 2.73-.11 1.64-.1 1.2.32.66.22.44.22.54.22.44.33.11 2.95 1.97-1.42 2.51 2.51.33.33 1.42 1.2.76.65 1.75 1.21.98.65.99.88 1.42 1.31 2.4 2.29 3.82 3.82.88.88.33.22.21-.11.77-.11 2.29 2.29 1.97.77.22-.11 1.75 1.75.54.32 4.81 4.59.55.33 9.5 7.54 7.21 4.7 1.31.76.44.33.33.11 21.96 12.67 1.31.77 1.31.76.55.33.76.43 1.53.99v3.6l3.39 1.75 2.29 1.2 3.28 1.86 1.2.66 1.86.98.44.33.65.54.66.44.54.44 1.42.98 1.32 1.2.65.66 2.41 2.18 2.51 2.41 1.75 1.74.76.99 1.42 2.18 8.74 10.05 1.64 1.97 3.5 4.15 4.59 5.46 8.52 10.27 1.85 1.53 1.43 1.97 2.95 3.93.54.77.98 1.09.11.11.66.87 1.42 1.64 1.53 1.75.22.33 1.64-1.64.22.22.65.76 1.64 1.97 10.6 12.56 7.43 8.74 1.53 1.86 2.95 3.5 2.07 2.29.88 1.2 5.24 6.12.77.87.76.99.44.43 2.95 3.5 3.17 3.71 1.09 1.32.76.98 1.31 1.86 1.1 1.74.98 1.64h.76l2.52 4.7 1.53 3.93 2.51 6.67.22.54.22 1.31.33 1.21.21.98.33 1.53 1.2 8.85.44 11.8v1.09l.11 1.09.76 19.56.22 1.96-.76.88.33 3.71.54 5.68.44 4.7.44 5.03.32 4.26v1.09l.44 7.1v.22l.22 6.88.11 1.86v3.17l.33 9.18.11 3.93.21 5.9.11 1.96.33 7.22.11 2.29.33 7.1v.55l.33 5.46.43 4.59.11 2.07.11 1.42.11 1.32.22 3.16.55 3.06.1 2.19v5.79l.11 1.31v.54l.22 5.47.33 7.43v1.42l-2.29.11h-5.47l-.65.11-.55.43v.11l-.76.11-.55.22-.76.22-.55.33-.87.43-.77.55-.98.54-.22-.21-.11-.11-.33-.22-.54-.44-2.19-1.42-.11-.22-.11-.11-4.15.11-3.28.11-7.1.44-7.32.44-2.08.11-3.82.1-.98.11-7 .44h-1.2l-1.53-.33-2.95-.98-5.02-1.75-1.31-.33-3.17-.76-5.46-1.31-1.97-.44-4.15-1.09-3.61-.77-2.07.11-.77.66-1.86 1.31-4.8 3.5-4.16 2.84-1.63 1.2-5.69 4.37-3.6 2.4-.55.33-.54.33-.99.65-1.31 1.2-.11.22v.22l-3.49 1.97v.22h-.22l-.33.11.11.21-.11.11-.22.22-1.2.77-1.31.87-5.57 4.26-1.86 1.42-7.43 6.34-2.4 2.07-1.53 1.21-1.1 1.31-.98 1.2-1.31 2.18-1.31 1.97-1.31 1.42-.99.76-1.63.99-2.52 1.2-2.07.76-2.95.88-1.64.54-7.98 2.3-2.29.76-5.9.88-1.64.43-.33.11-.33.22-4.48 3.83-2.95 2.51-.54.55-3.72 3.49-1.96 1.2-.66.44-1.75.76-3.71 1.53-2.41.88-9.39 3.28-1.86.76-1.75.77-1.31.65-1.31.66-.98.87-1.31 1.31-.66.88-1.42 2.51-4.04 7.43-1.2 1.85-.44.66-.55.55-.54.65-.77.66-1.31 1.09-3.28 2.29-.54.44-.55.33-3.71 2.84-1.53 1.31-.99.98z" stroke-linejoin="round"/></defs><use xlink:href="#h" fill="#09757a" stroke="#097d9b" stroke-width="5.76"/><defs><path id="i" d="M2040.91 935.62h-.22l-.11-3.72-.11-2.4-.32-3.93-1.75.21-6.45 1.1-3.82.22-7.65 1.42-1.09.43-7.32 1.31-5.36 1.1-1.31.21-.43.11-.55-3.71.33-.11.65-.22.33-.22.22-.11.33-.11.32-.32.22-.33.11-.11.11-.22.11-.33v-1.74l-.11-.44-.11-.44v-.33l-.98-5.9-.33-2.84-.87-8.08-.33-2.95-.11-2.4-.11-2.63-.11-2.18-.11-2.08-.11-3.82-.11-3.61-.11-4.37-.21-4.69-.11-1.53-.11-2.95-.11-1.2-.11-1.75-.44-5.46-.11-.88-.54-6.55v-5.03l-.11-2.51h-.44l-1.97-.11h-1.09v-1.09l-.33-7.43-.22-5.47v-.54l-.11-1.31v-5.79l-.1-2.19-.55-3.06-.22-3.16-.11-1.32-.11-1.42-.11-2.07-.43-4.59-.33-5.46v-.55l-.33-7.1-.11-2.29-.33-7.22-.11-1.96-.21-5.9-.11-3.93-.33-9.18v-3.17l-.11-1.86-.22-6.88v-.22l-.44-7.1v-1.09l.66-6.88-.33-2.19-.65-1.97 1.53 3.06.1.22.33.98.33 1.1.33 2.07.33 1.86.43 1.42.33 1.42.55 1.31.54 1.42.77 1.31.65 1.2.77 1.21.87 1.2.99 1.2 1.09 1.09.22.22.76.77 1.2.98 1.21.87 1.2.88 1.31.76 1.09.55.87.44 1.21.43 1.09.33.33.55.22.32 1.74.44 6.67.98 1.75-.32 1.09-.11 1.2-.11h1.75l2.07-.11 2.08-.11h1.64l.33-.11h1.85l2.41-.11 1.42-.11.65-.11 3.94-.22h6.01l2.51.11 3.28.22 3.38.22 2.63.11h.76l2.08.11 2.18.11h1.75l1.53.11h7.43l2.62-.11 4.37-.22h1.97l4.26-.22 4.26-.22h.55l6.55-.33 6.34-.32.87-.11 2.95-.11 1.86-.11h.55l.21.55.22.43.66 1.09-.44.11h-2.73l-4.04.22h-5.57l-7.87.44v.87l.11 3.39.22 4.04-.11 7.87.43.87.22 7.32.22 7.54.22 7.98.33 7.86.22 7.32.32 8.2.55 7.75.33 7.87.33 8.08.11 7.87.32 7.21 1.21-.11.21 7.97.11 7.76v.77l.44 7.32.44 7.97.11 2.84-.33 2.95-.22.44 3.71.11v.22l3.5.11v.54l-7.97 3.06-5.36 1.97-5.79 1.85-7.97 2.3-6.56 1.75-2.62.43-2.52.55-4.15 1.75-2.73-.11-20.1 3.82-.77.11-.54.77.43 2.07-.32 8.09h-.55z" stroke-linejoin="round"/></defs><use xlink:href="#i" fill="#004249" stroke="#00465f" stroke-width="5.76"/></svg>