<svg width="384" height="5.08in" viewBox="0 0 2880 3658" xmlns="http://www.w3.org/2000/svg" xmlns:xlink="http://www.w3.org/1999/xlink"><path fill="#fff" d="M0 0h2880v3658H0z"/><defs><path id="a" d="M187.45 2942.75l15.66-57.62 15.66-57.5 4.8-18.29 13.37-50.75 11.43-44.13-55.2-13.83-11.89-2.97-35.66-9.14-37.95-9.26-38.29-10.06 4.11-15.78 5.15-20.23.23-1.49 3.77-14.4 19.54-54.87 1.03-1.83 7.55-23.09 30.51-85.96 12.46-34.87.23-.8 7.43-20.46 20.92-56.47-52.12-12.92-48.01-12-53.95-13.49.46-4.23 4.34-15.43 3.43-12.69 1.49-5.95 18.63-70.76 1.26-4.91 1.25-4.46 12.92-48.92 46.75-174.1 89.49 20.69 39.09-115.69 6.4 4.81 63.78 16 8.23 2.17 13.72 4.12 5.26 1.37 12.57 1.6 14.4-56.02 13.49-52.24 1.48-5.71 31.89 8 35.32 8.92 35.32 8.91-21.49-65.5-20.91-65.73.34-1.37-22.98-5.71-8.22-2.06 14.74-56.82 14.86-56.01 1.37-.68-1.14-.23 16-57.16 5.71-20.35 10.29-36.58.69-2.51 4.8-18.41 1.37-5.37 8-30.64 7.2-27.09.46-2.05 2.86-10.64 4.11-15.2.57-2.29 1.49-5.71 5.14-20.12 2.52-10.06 2.62-9.94 1.15-4.92 1.6-6.4 24 6.29 1.49.45 1.6.35 2.17.57 17.6 4.57 3.09.8.34.34v.35l.11.45v.46l-.11.46-2.4 9.26-11.43 46.06 1.6.46 3.31.69 3.09.91 11.54 2.97 10.86 2.75 19.89 5.14 40.81 10.4 10.85 2.75 12.12 3.08 39.2 9.95 1.15.34 21.37 5.26 22.06 5.6 6.86 1.72 6.17 1.48 18.86 4.8 9.95 2.4 16.45 4.12 48.58 12.23 17.6 4.35 30.41 7.65 2.4.58 50.52 12.57 11.43 2.86 11.54 2.86 18.18 4.68 9.14 2.29 11.2 2.86 12.57 2.97 3.66.91 13.37 3.43 9.61 2.4 19.77 4.92 30.63 7.66 22.06 5.71h.57l15.43 3.78 13.15 3.31 5.71 1.37 21.26 5.49 21.26 5.14 2.74.8 2.06-7.43 9.6-33.26 9.49-33.27 2.86-10.06 6.51-23.2 1.72-5.83.23-.8 8.68 2.28 5.95 1.6 2.51.69 8.46 2.17 8.46 2.17 8.46 2.29 8.8 2.4 3.31.8 1.94.46 2.63.8 1.95.46.57.11.23.11 8.34 2.18 4 1.03 5.26 1.37 11.09 2.86 6.28 1.71 5.83 1.49 1.03.22 3.89.92 11.08 2.63 14.98 3.66 3.77.91 3.31.8 7.66 1.83 2.06.46 2.74.68 3.66.92 8.34 1.94 4.12 1.03 4.91 1.26 5.03 1.14 5.37 1.26 2.06.57.57.11.69.23 1.6.69 11.54 2.51 1.83.46.92.23 3.42.8.92.23 7.66 2.17 6.28 1.49 6.18 1.48 12.45 2.75 2.75.8 5.6 1.48 3.77 1.03 17.37 4.46 7.89 2.17 2.74.69 10.06 2.63 2.97.68 1.95.46 2.51.57 5.03.91 1.72.46.68.12 1.6.34.69.11.91.23 1.49.57 1.14.35.34.11.57.12 1.15.34.57.11.68.12 1.83.57.35.11 1.37.35 1.14.34 2.97.8 4.35 1.14 2.05.46 1.95.46 4.57 1.14 2.63.69 1.03.22 2.17.46 1.03.34.34.12 1.49.34 3.88.92 6.52 1.48v.46l4.23.91-1.38 4.12 9.26-.57.57.23.35.11.34.11h1.03l.46-.34.68-.34.46-.46.34-.11.34-.23h.58l.8.11 1.14.35h.57l2.52.45 1.25.46.8 1.94.57 1.26 4.8 10.75.8 1.71 4.01 9.37 6.51 14.64 1.71 3.65.69 1.15.46 1.26 1.94 4.68.23.57.46.69.34.91.69.92v.34l.22 1.03 1.03 1.94 2.06 4.58 1.6 3.31.34 1.14 4 8.69 3.32 8 8.11 18.52 3.89 8.69 4.46 9.72 4 9.26 4.46 9.48 8 18.64.23.45.22.35.12.34 4.57 10.52 2.29 5.26.34.68v.34l.34.69.12.46.11.23.23.57.8 1.71.34.69.12.34 1.37 2.97.91 2.06.35.92 2.17 4.68.34.8.57 1.15 1.83 4 1.83 3.88 1.14 2.75.57 1.25.46 1.03 1.26 2.86 2.51 5.49v.23l.23.34 10.52 23.66 1.14 2.75.57 1.14 1.14 2.4.23.46.69 1.37-.69 1.37-1.14 2.63-1.03 2.63-.8 2.28-.11.46-.92 2.75-.23.45 2.52 7.55 1.14 2.51.92 2.86.11.46.11.45.12.35v.23l.23.34.23.68.22.58 1.15 2.17 1.25 2.86 2.06 4.68 1.26 2.86 1.6 3.66 1.94 3.77 3.89 9.15.8 1.6 4.68 10.63 10.41 23.32.91.23 1.03.22.23.12 2.63.57 2.63.69.68.22.23.12.46.11.68.12 1.72.45 1.71.46.34.12.46.57 2.06 5.03 2.17 5.37.12 1.6.34.8 1.6 5.83 1.14 2.52 10.52 23.77 10.17 22.87.11.22.35.46h-.46l-1.03-.23-.34-.11-1.37-.34-2.18-.58-1.02-.11-1.15-.23-1.14-.23-1.26-.11h-.34l-3.77-.8-.46-.12-.57.8-.34.23.11 1.72-1.94 13.26-.57 1.03-.46 3.2-14.75 1.83-.91 1.82-.23-.8-.8-2.05-.46-1.15-1.82-5.03-.35-.68-4.57-12-1.37-3.78-2.17-5.6-.12-.23-.34-.91-.57-.23-2.97-.91-2.18-.58-4.11-1.25-.34.11-.35.23-.22.23-.46.46-.23.34-.23.34-.23.34-.23.46v.8l.23.46.35.34.68.46.46.11 1.83.46 1.14.34.91.23.8.23.81.46 1.02.57.8.57.69.57.91 1.15.46.91.57 1.03.69 1.6 1.37 3.66.46 1.03.34.91.23.8.11.23v.23l.12.46.11.57v1.14l.12.57-.12.69v.45l-.11.69-.12 1.26-.8 3.31-1.6 6.06-.45 1.72-.12.68-1.14 4.35-1.72 6.74-.45 1.6-.46 2.06-.57 2.17-1.83 7.43-8.92-2.51-10.4-2.52-12.91-3.2-19.21-4.92-.45 1.95-3.09 12.23-2.4 9.6 1.03.23 18.29 4.57 9.14 2.29.46.11.23.23.23.12.11.34v.23l.11.34v.34l-3.65 14.06-4.69 18.18-1.6-.46-13.03-2.63-.69-.8-1.37-.45-8.68-2.06-4.46-1.14-.34 1.14-2.29 8.8-5.26 20.12-3.2 12.8 24.35 6.06.91.34.69.35.91.68 1.72 1.15 2.05 1.25 1.15.58 1.6.57 8.68 1.48 6.98 1.15 1.6.34.22.11-3.88 14.75-2.86 12.23-2.29 8.57-8.8 33.38-.11.8-.34 1.03-9.95 38.64-2.97 11.55-1.6 6.05-1.83 7.32-5.37 20.92-28.12-6.97-9.6-2.4-9.37-2.29-3.43-.8-.69-.12-3.08 11.78-2.63 10.29-1.6 6.4-3.89 14.63-3.66 14.75-1.82 6.86-2.18 8.57-3.2 12.57 11.09 2.86 7.66 1.83 22.63 5.72 9.83 2.51-4 15.55-10.86 41.61-2.51-.69-5.72-1.37-9.71-2.52-10.52-2.62-19.32-4.92-3.42-.8-3.43 13.72-4.23 16.12-21.26-5.26-2.29 1.6-3.43 3.08-1.48 5.61-3.2 12.34-.8 3.32-6.98-1.6-17.03-4.35-1.6-.34-2.85 10.97-2.63 10.41-2.63 10.28-5.37 20.69-1.15 4.69-1.6 6.17-.91 3.32-.57 2.17-.57 2.29-2.18 8.68-1.48 5.83-.35 1.83-1.94 7.32-2.28 8.92-1.26 4.91-.46 1.6-.46 1.6-.22 1.03-.35 1.37-.34.92-3.77 14.74-7.55 29.72-2.05 7.78-1.03 4.11-1.15 4.12-1.82 7.77-2.4 8.92-3.09 12.57-4.46 17.38-1.6 6.06-3.77 14.06-10.74 42.86-4.92 18.98-9.83 38.18-14.63 57.16-14.86 56.92-14.86 56.93v.23l-.11.69-14.4 55.44-4.23 16.12-10.52 40.92-9.26 36.69-5.37 20.35-36.8-9.26-14.06-3.2.91-2.51 13.72-54.99-38.63-9.94-12.01-3.09.23-1.83 14.18-54.98-1.95-.8-50.06-12.46-50.06-12.46 14.51-55.67-2.4-.69-35.43-9.14-13.26-3.55-.34-.11-51.55-12.69-6.17-1.72-47.09-11.2-40.69-10.06-9.83-2.4-49.95-12.57 24.91 49.15 7.89 15.55 2.29 4.11-50.52-13.26-50.52-13.26 3.65-14.29 3.55-13.71 6.97-27.21v-.11l-50.41-12.46 14.4-56.59 14.98-57.73v-.22l2.74-8.69.46-1.72 19.54-74.64 7.55-28.01-51.55-13.03-25.83-6.75-10.29-2.63-4.23-1.02-10.63-2.4-25.72-6.18-26.06-6.51-14.97 56.81-8.57 32.12-7.43 29.95-13.95 52.36-14.74 56.7-51.44-12.69-50.97-12.58-52.24-13.14-51.43-12.92-13.95 52.24-.34 1.26-12.23 45.49-2.63 10.41-17.26 66.07-12.69 48.12-12.68-2.97-30.41-7.54-8.45-2.17h-.23l-.12.11v.11l-6.28 24.24-7.2 27.21-1.03 3.88-1.72 8.92-3.43 13.03-.57 1.83-3.08 11.54-1.95 7.43-4 16.01-50.63-12.8-51.67-12.92-51.66-13.03z" stroke-linejoin="round"/></defs><use xlink:href="#a" fill="#cee3e4" stroke="#cef5f5" stroke-width="5.76"/><defs><path id="b" d="M1833.36 1778.93h-7.09l-3.31-2.63-3.09-.91-1.71-.46-4.12-1.03-4.45-1.14-5.03-1.26-2.4-.57.11-.34.23-1.03.69-2.4 3.54-13.95 3.2-11.77 4.91-19.32 1.49-6.86v-1.83l4.57 1.14v-.11l-.11-.23-.12-.34v-.69l-.11-.46.11-2.74v-2.51l.12-.58v-.57l.11-.34.12-.34 1.03-3.78.11-.68.91-3.32.69-2.63.11-.91-.11-.8-.23-.69-.46-1.02-1.02-2.18-.12-.23 1.03-2.85.11-.35.35-1.25 1.71-6.52 1.49-5.49 1.03-4.11 1.02-4 1.03-4 .23-1.03.8-2.86.12-.46.11-.34.34-1.6 1.03-3.66.92-3.54 1.14-4.58.57-2.05.23-.57.34-1.26.46-1.37 2.17-7.78.23-.8.23-.68 2.4-9.61.34-1.37.92-3.2 1.03-4.23.91-3.08.34-.46.69-2.17.23-1.03.91-3.2v-.46l-.23-.34-.34-.23.11-.34.46-1.83 1.14-4.8.92-3.78.8-3.43.68-3.08.12-.57.8-3.55.46-1.83.45-1.83.23-1.14.34-1.03.35-1.37.91-3.54.92-3.55.34-1.37.69-2.4.8-3.31 1.82-7.09 1.03-3.66.8-3.09.12-.34.11-.46 1.37-5.48.57-2.29 1.72-6.86.68-2.17.12-.57.46-1.6 1.03-4.35.34-1.37.8-3.2v-.23l.23-1.03.45-2.17.23-1.03.46-1.71.11-.34.46-1.72.57-1.71.46-1.72.34-1.14.12-.23.34-1.6 1.83-7.09.8-3.43 1.03-3.65h.11l.69.11 2.97.8 9.26 2.4 12.8 3.2 12.8 3.32 12.92 3.2 11.77 2.97.8.23 7.31 1.83 5.61 1.48 12.68 3.2.46.23 9.26 2.4 2.28.46 1.15.34 1.14.35 1.37.34 9.95 2.63 2.74.68 9.03 2.29.91.23 1.37.34 1.72.57 1.71.35 1.26.22 6.74 1.72 9.15 2.29 3.2.91.46.11 12.8 3.21 12.8 3.31 1.83-6.97 1.94-7.32 12.8 3.32-1.83 7.08-1.83 7.21 3.09.68 6.52 1.83 2.85.8.46.11.46.12-.12.68-1.37 5.61-1.71 7.2-.12.68-.23 1.6-1.14 4.69-.23.57-.11.46-.34 1.14-.23.92-.23 1.14-.12.34-.22 1.03-.58 2.52-.34 1.14-.34 1.37-1.03 3.43-.23 1.03-.34 1.26-.46 1.6-1.26 4.46-.34 1.14-.23 1.03-.68 2.28-.8 2.63-.23.57-.23 1.03-.46 1.38-.23.91-.34 1.26-.46 1.48-.11.69-.12.23-.68 2.4-.23 1.03-.57 1.71-.23 1.15-.11.34-.12.46-.34 1.37-1.37 5.37-1.03 4.23-.34 1.37-.46 1.6-.69 2.74-.57 2.29-.46 2.06-.8 2.97-.11.69-.92 3.54-.91 3.54-.91 3.55-.92 3.54-.11.23-.35 1.6-.45 1.72-.23.91-.69 2.63-.91 3.66-2.06 8.23-1.48 6.17-.58 2.29-.45 1.94-.69 2.86-.69 2.28-.57 2.98-.23 1.02-.22.92-.8 2.74-.69 2.63-.34 1.6-.92 3.55-.91 3.43-.92 3.42-.91 3.55-1.03 3.66-.91 3.43-.12.57-.11.34-.92 3.54-.8 2.86-.22.92-.92 3.43-.91 3.2-.69 3.08-.23.57-.91 3.43-.8 3.43-.57 1.83-.12.57-.34 1.15-.23 1.03-.57 1.94-.23.57-.69 2.29-.34 1.25-.11.35-.35 1.37-1.25 5.37-.12.12-.57 2.4-1.14 4.8-.34 1.03-1.26 4.8-.35 1.14-2.28 8.69-1.14 4.46-.35.91 9.6 2.29.12.11.11.12.23.11 15.09 3.89-3.54 13.37-.12.34-.11.12-.12.11-.45.23-.8-.23-10.41-2.51-6.05-1.72-6.4-1.83-.8-.22-1.26 5.03-1.37 5.14-.35 1.14-.57 2.06-3.08 12-.8 2.98-.12.8-.57-.12-.23-.11-7.66-1.95-10.97-2.85-9.37-2.29-12-3.09-9.6-2.28-1.49-.57-18.86-4.92-.91-.23-5.03-1.26-1.72-.45-1.48-.35-1.6-.57-2.4-.57-.12.34-10.97-2.85-1.03-.23-1.14-.35-6.06-1.48-.23-.12.12-.34-8.69-2.17-3.32-.92-2.28-.57-9.37-2.4-5.61-1.48-1.14-.35-3.88-.91-5.26-1.37-6.75-1.72-2.63-.68-1.94-.46-.11.34-3.09-.8-3.43-.91-6.17-1.6-5.83-1.49z" stroke-linejoin="round"/></defs><use xlink:href="#b" fill="#cee3e4" stroke="#cef5f5" stroke-width="5.76"/><defs><path id="c" d="M1746.27 1390.38l-4.69-.91-1.6-.46.11-.34.46-2.06 1.14-4.34.46-1.6.23-1.26.23-.92v-2.05l-.12-.46-.11-.46-.12-8.34 1.72-7.32 2.74 1.14 4.57.8 5.03 1.15.35-.12.11-.11.11-.23.12-.23 1.6-6.4 1.03-4 .8-3.2 5.48 1.48.92.23.8.23.57.23.34.34.23.23.57.57h.12l.11.12.23.11 1.26.23 1.37 4.69.46 2.06 2.17 8.34 4.11 15.78 1.6 6.28.69 2.4 1.83 7.32.11.46-2.86-.8-.68-.23-.92-.23-.68-.23-2.29-.46-1.14-.23-1.94-.57-1.03-.34-6.4-1.6-9.49-2.17-.91-.23-2.4-.57-4.8-1.26-1.6-.46z" stroke-linejoin="round"/></defs><use xlink:href="#c" fill="#cee3e4" stroke="#cef5f5" stroke-width="5.76"/><defs><path id="d" d="M2540.65 2079.69l-.12.57-16.34-5.15-8.12-2.51-4-1.14-5.03-1.6-11.09-3.55-5.82-1.71-18.41-4.92-24.91-6.63-29.15-7.66-29.6-7.77.11-.46.11-.57 1.15-4.46 3.2-12.34 3.08-12.35 6.18-24.69.91-3.89.69-2.74.91-3.54.57-2.29.34-1.37 1.15-4.23 10.74-42.75 2.52-9.95.34-1.14.57-2.63.69-2.52.34-1.25.46-2.29 1.6-6.06 1.03-4.34 1.14-4.23.91-3.66.69-2.51.68-2.98.35-1.14.23-1.14 3.31-12.81 3.2-12.46 1.83-6.74 1.6-6.52.69-2.63 1.71-6.51 1.03-4.12 1.26-5.14 1.48-5.26.12-.69v-1.02l.34-1.72 1.26-4.91.8-3.09.57-2.06 2.06-7.89.91-3.43 1.03-3.88.57-2.4.23-.92 1.14-4.34 2.52-9.6.8.23.68-3.32.35-1.37.91-3.43.69-2.4-.23-.69 1.37-4.91 1.48-6.06 1.6-6.06 1.03-3.54.23-1.03 1.15-4.57 1.14-4.58 2.51-9.37 1.37-5.03 1.15-4.46 1.48-5.6.35-1.49.57-2.05.68-2.86 1.72-6.17 3.88-15.32.35-1.72 2.4-9.94 2.74-10.98 1.94-7.65.69-2.86 6.51-26.18 4.46-17.72 2.29-9.26.23-1.03.34-1.14.8-3.31 3.54-13.84 2.17-8.91.46-1.6.69-2.98 1.37-5.25.34-1.26.69-2.29 3.88-15.54.58-2.29 1.48-6.17.57-1.95.57-2.28.92-3.66.46-1.94.91-3.32.46-1.83 1.03-4.23.68-2.4.23-1.26.57-2.17.69-2.4.91-3.54 1.15-4.57.91-3.89.91-2.86.35-1.26.34-1.37-.11-1.14 1.37-4.57.11-.58.12-.34 1.82-6.97 2.06-8.35 2.4-9.48 3.2-12.69 2.29-8.58.68-2.63 1.15-4.8.8-2.85.57-2.18.23-1.03.68-2.74.57-1.94.58-2.4 1.14-4.23 1.37-5.6.34-.92 2.75-11.09.8.12 3.77 1.03 4.91 1.25 2.29.58 1.71.34 1.49.23 1.26.23 1.37.34 1.03.23 1.48.34 1.95.34 1.71.46 1.26.34-.57 2.52-.46 1.48-.11.69-.12.8v1.37l.12.92-.12 1.14-.11.91-.12.69-.11.69-.23.8-.34 1.37-.46 2.74-.23.92v1.48l.12.23 1.37 2.29 5.6 3.2 7.2 3.88 8.46 3.55 1.6.8.57.23 2.28 1.37 2.52 1.94.68.46 2.86 1.26 7.55 1.83 1.82.68 3.09 1.37 1.6.69 6.4-25.04 25.38 6.52 1.6-6.74.34-1.38 1.49-6.17.91-3.54 2.51-8.12.46-1.83 1.14.35 6.98 1.82 5.25 1.38 12.35 3.08 10.29 2.63 13.71 3.43.92.23.68.11 2.86.69 2.86.69 4.8 1.14.34-.12 1.49.35 38.51 9.83-.8 3.54-.68 2.52-1.26 5.03-2.17 8.57-2.4 9.15-1.49 5.83-2.28 8.8-1.26 4.91-1.37 5.26-.92 3.66 2.86.91 4.46 1.15 4.34.91 4.69 1.14 14.29 3.55 18.63 4.57 9.03 2.4 9.48 2.52.92.22 10.97 2.86 1.26.23 1.14.34 11.66 2.98 6.74 1.6-3.65 14.74-8.8 34.41-1.61 6.52-.45 1.83-5.03 20.46-2.06 8-6.17 24.23-1.03 3.55-.23 1.03-1.71 7.77-2.75 10.29-.68 2.63-1.94 8.11-6.98 28.47-.23.8-4.8 19.2v.23l-.57 1.72-6.4-2.41-12.11-3.65h-1.49l-1.37.34-7.2 4.11-1.72 1.15-2.74 3.88-5.14 3.32-4.35 2.74-1.71.69-2.63 1.37-5.14 1.83-2.4-.23-3.55-.46-1.14-.34-1.14-.69-.69-.8-.91-.8-.58-1.37-4.68-12.46-.57-.91-.8-1.14-.69-.58-.46-.34-1.6-1.26-1.37-.8-.57-.23-1.71-.45-5.6-.46-.8-.11-1.6-.46-5.15-1.72-2.63-.91-1.14-.46-1.49-.68-1.02-.69-1.49-1.03-3.43-2.86-.91-.8-1.72-.68-6.97-2.4-1.37-.46-.8-.11h-.92l-4.91.57-3.32.57-2.17.57-1.37.11h-.69l-.8-.11-2.17-.46-1.83-.57-1.14 4.46-.91 3.77-2.29 8.8-2.17 8.92-.46 1.94-.23.69-2.74 11.2-.69 2.29-1.25 5.14-.57 2.17-2.63 10.86-2.18 8.46-2.85 11.32-.8 2.97 4.68 1.15 8.23 2.17 12.69 3.31-.91 3.2-3.2 12.81-3.2 12.8-6.63 25.6-.69 2.52-2.51 10.29-3.43 12.8-6.18 25.61-1.25 5.03-.23.8-.34 1.03-5.38-1.6-15.43-5.26-5.25-1.95-10.18-3.54-11.08-3.77-2.98-1.15-3.88 15.78-4.23 16.46-7.77 30.41-2.75 10.4-4 16-50.86-13.83-6.52 25.49-.34 1.49-3.2 12.8-3.31 12.81-6.63 25.72-1.03 4 5.6 1.83 4.34 1.48 7.43 2.4 3.77 1.15 4 1.25 6.63 2.06 3.09 1.03 7.09 2.29 8.45 2.74-2.17 8.69-5.94 23.2-6.63 25.38-.11.46z" stroke-linejoin="round"/></defs><use xlink:href="#d" fill="#cee3e4" stroke="#cef5f5" stroke-width="5.76"/><defs><path id="e" d="M1395.82 3612.39l-8.68-1.03-8.69-2.4-48.01-12.92-65.03-16.23-6.17-1.6-12.92-3.09-6.86-1.71-2.63-.8-8.57-2.4 5.72-22.41 5.94-23.09 7.43-28.12 10.17-40.47 24.92 6.63 2.17.58 1.83.45 2.63.69 19.31 4.8 5.26 1.03 16.35 4.23 28.23 7.09 1.6.34 10.17-39.1 19.66-74.53 8.8-34.52 2.86-11.55 3.31-12.57 6.98-27.55 7.54-28.23 1.83-7.21 12.8-50.07 14.97-56.58-3.65-1.03-47.78-12.34-2.52-.35-10.63-2.97-1.71-.57-.34-.34-7.32-2.18-.8-.22h-.23l-.91-.23-11.09-2.63-.91.23-.92-.23-7.08-1.83-1.26-.34-5.26-1.38 6.75-27.55 7.88-29.49 5.37-20.35 9.26-36.69 10.52-40.92 4.23-16.12 14.4-55.44.11-.69v-.23l14.86-56.93 14.86-56.92 14.63-57.16 9.83-38.18 4.92-18.98 10.74-42.86 3.77-14.06 1.6-6.06 4.46-17.38 3.09-12.57 2.4-8.92 1.82-7.77 1.15-4.12 1.03-4.11 2.05-7.78 7.55-29.72 3.77-14.74.34-.92.35-1.37.22-1.03.46-1.6.46-1.6 1.26-4.91 2.28-8.92 1.94-7.32.35-1.83 1.48-5.83 2.18-8.68.57-2.29.57-2.17.91-3.32 1.6-6.17 1.15-4.69 5.37-20.69 2.63-10.28 2.63-10.41 2.85-10.97 1.6.34 17.03 4.35 6.98 1.6.8-3.32 3.2-12.34 1.48-5.61 3.43-3.08 2.29-1.6 21.26 5.26 4.23-16.12 3.43-13.72 3.42.8 19.32 4.92 10.52 2.62 9.71 2.52 5.72 1.37 2.51.69 10.86-41.61 4-15.55-9.83-2.51-22.63-5.72-7.66-1.83-11.09-2.86 3.2-12.57 2.18-8.57 1.82-6.86 3.66-14.75 3.89-14.63 1.6-6.4 2.63-10.29 3.08-11.78.69.12 3.43.8 9.37 2.29 9.6 2.4 28.12 6.97 5.37-20.92 1.83-7.32 1.6-6.05 2.97-11.55 9.95-38.64.34-1.03.11-.8 8.8-33.38 2.29-8.57 2.86-12.23 3.88-14.75-.22-.11-1.6-.34-6.98-1.15-8.68-1.48-1.6-.57-1.15-.58-2.05-1.25-1.72-1.15-.91-.68-.69-.35-.91-.34-24.35-6.06 3.2-12.8 5.26-20.12 2.29-8.8.34-1.14 4.46 1.14 8.68 2.06 1.37.45.69.8 13.03 2.63 1.6.46 4.69-18.18 3.65-14.06v-.34l-.11-.34v-.23l-.11-.34-.23-.12-.23-.23-.46-.11-9.14-2.29-18.29-4.57-1.03-.23 2.4-9.6 3.09-12.23.45-1.95 19.21 4.92 12.91 3.2 10.4 2.52 8.92 2.51 1.83-7.43.57-2.17.46-2.06.45-1.6 1.72-6.74 1.14-4.35.12-.68.45-1.72 1.6-6.06.8-3.31.12-1.26.11-.69v-.45l.12-.69-.12-.57v-1.14l-.11-.57-.12-.46v-.23l-.11-.23-.23-.8-.34-.91-.46-1.03-1.37-3.66-.69-1.6-.57-1.03-.46-.91-.91-1.15-.69-.57-.8-.57-1.02-.57-.81-.46-.8-.23-.91-.23-1.14-.34-1.83-.46-.46-.11-.68-.46-.35-.34-.23-.46v-.8l.23-.46.23-.34.23-.34.23-.34.46-.46.22-.23.35-.23.34-.11 4.11 1.25 2.18.58 2.97.91.57.23.34.91.12.23 2.17 5.6 1.37 3.78 4.57 12 .35.68 1.82 5.03.46 1.15.8 2.05.23.8.91-1.82 14.75-1.83.46-3.2.57-1.03 1.94-13.26-.11-1.72.34-.23.57-.8.46.12 3.77.8h.34l1.26.11 1.14.23 1.15.23 1.02.11 2.18.58 1.37.34.34.11 1.03.23h.46l-.35-.46-.11-.22-10.17-22.87-10.52-23.77-1.14-2.52-1.6-5.83-.34-.8-.12-1.6-2.17-5.37-2.06-5.03-.46-.57 1.15.34 1.6.46 2.06.45 1.02.23 2.63-10.17 1.15-4.23 3.65-14.06 4.12-16.23 1.6-6.06 1.37-5.6 1.26.34 2.4.57 5.03 1.26 4.45 1.14 4.12 1.03 1.71.46 3.09.91 3.31 2.63h7.09l5.83 1.49 6.17 1.6 3.43.91 3.09.8.11-.34 1.94.46 2.63.68 6.75 1.72 5.26 1.37 3.88.91 1.14.35 5.61 1.48 9.37 2.4 2.28.57 3.32.92 8.69 2.17-.12.34.23.12 6.06 1.48 1.14.35 1.03.23 10.97 2.85.12-.34 2.4.57 1.6.57 1.48.35 1.72.45 5.03 1.26.91.23 18.86 4.92 1.49.57 9.6 2.28 12 3.09 9.37 2.29 10.97 2.85 7.66 1.95.23.11.57.12.12-.8 1.48.45 3.66.92 5.94.91 7.66 1.6 6.74 1.03 6.41 1.49 1.71.45 4.34.69 9.95 1.71 2.17.46 1.6-.46 25.6 4.81 6.4 1.25 1.72.57-.12 1.03 5.83 1.03 11.78 2.29-.69 2.86-3.54 14.17-1.26 5.15-.12.34-.34 1.26-.57 2.17-.57 2.28v.8l-.12.8.12.58-1.72 6.74-1.82 7.2-.8 2.97-1.38 5.83.92-.45 4-3.43 2.51-1.83.57-.12 3.89-.22 2.74-2.06 1.15-.46 5.37-1.71 1.94-.92h.35l.68.34 1.03.92 1.6 1.94.34.46.46.23 1.49.11h1.6l1.94-.11 4.46-1.6.8-.12.68.23 1.03.8 9.49 8.58 4.46 4 .45.45 3.66 3.43.69.46 11.31 2.63-.8 1.49-1.14 2.17-1.14 1.71-1.38 1.72-1.25 1.37-1.26.91-1.37.8-1.94 1.15-2.06 1.14-2.17 1.14-1.6 1.26-1.38 1.14-1.02 1.03-2.52 3.2-2.74 4.23-.57.69-1.15 1.26-2.4 1.71-1.25.69-.8.23-1.15.22h-2.4l-1.6.35-2.28.91-.92.8-.68.92-.23.22-.35.8-1.71 3.78-.8 1.71-.57 1.49-.69 2.28-1.83 7.43-2.28 9.95 13.83 3.66.91.23 2.52.68 3.54.92 13.37 3.65 8.12 2.18 7.2 1.83 14.74 4 1.38.34.34.11.57.12 11.66 3.08 11.89 3.09 1.14.23 6.51 1.71 4 1.03.8.23 6.41 1.72 8.22 2.05 5.15 1.38 35.55 9.25 9.83 2.52-.12.69-.11.34 11.43 2.86 20.46 5.14 19.2 4.69 9.14 2.4 34.18 8.46 7.66 1.94 29.6 7.77 29.15 7.66 24.91 6.63 18.41 4.92-1.15 4.11-1.48 5.95-2.4 9.37-2.29 9.03-1.71 6.52-.92 3.66-2.17 8.68-2.4 9.38-.23 1.37-1.49 6.29-7.77 30.06-5.48 21.72-10.06 39.89-4.23 17.49-.69 1.95-9.71 38.41-3.55 13.83-.45 1.83-.35 1.6-.45 1.94-.69 2.74-1.6 5.95-17.72 68.82-2.97 11.66-5.14 19.66-.46 1.94-.34 1.6-1.6-.46-16.12-4.11-26.4-6.86-6.74-1.83 1.37-5.37 3.08-11.78-13.26-.23-4-.11-9.71.11h-2.74l-3.09-.45-5.26-.8-9.26-1.37-1.14-.12-3.43-.68-.57-.35h-.11l-.35-.45-.11.57-.46 1.6-1.48 6.4-19.44-5.15-9.71-2.51-21.83-5.6-6.86-1.83-2.74-.69-18.52-4.68-13.14-3.43-9.83-2.63-.46 2.06-.69 2.62-.11.58-1.37 5.37-3.2 12.12-1.6 6.4-.23.46-1.37 5.25-1.15 4.46-2.05 8-2.63 9.61-2.97 11.43-4.69 17.37-7.2 27.21-1.03.57.91.23-3.43 12.69-8.68 32.46-2.86 10.75-.46 1.71-8.8-2.06-10.06-2.62-20.34-5.03-7.66-1.95-2.51-.68-1.26-.46.68-2.29 11.09-42.64 3.2-12.91-19.43-4.8-7.2-1.72-11.66-2.86-11.77-3.08-3.54 12.91-.8 2.98-.12-.57-.34-.58-8.46-18.86-1.94-.34-.35.11-.57.12h-.68l-.57-.23-1.49-.34-12.92-3.32-9.48-2.4-1.03-.23-1.83-.57-1.72-.34-.57-.12h-.34l-.46.23-.34.69 1.37 2.97 3.32 6.97-1.03 3.2-1.26.92 11.09 24.8.57 1.38.69 2.74 2.51 7.09.69 1.83.57 1.6.34 1.14.57 1.71.34 1.03.23.8.23.8.12.46.22.91.8 2.52-.11.46v.34l-.11.23-.12.23-.11.11-.23.23-.23.23-.23.11h-.11l-1.37.46-.58-.11-.22.11-.8-.34-1.26-.35-4.12-1.25-18.51-5.03-12-3.09-2.52 9.6-2.63 10.41-2.51 9.94-5.49 21.26-1.71 6.29-16.01-4.12-9.83-2.51-24.8-6.4-1.37 5.49-.46 1.71-1.03 3.89-.8 3.08-1.14 4.35-3.66 13.6-.68 2.63-.23.8-2.29 9.03-3.43 12.92-3.77 14.4-.34 1.14-.34.92-10.29 39.44-10.17 38.86-.57 2.06-3.09 11.89-.23.68-.23.58-.45.8-.35.68-.23.34-.45.58-.23.34-.35.57-.22.57-6.98 27.89-.11.46-7.2 28.01-6.74 26.29-.46 1.6-7.32 28.81 51.21 12.8 50.75 13.49-3.55 12.92-11.43 44.24-50.97-13.49-12.46-2.98-38.06-9.83-2.63 9.72-12.57 47.55 26.97 6.63 12.34 3.09 11.78 2.97 49.72 12.81 1.14.34-.69 2.86-3.42 11.77-2.06 7.89-6.06 23.66-2.97 10.98-1.6-.35-9.72-2.51-5.37-1.49v-.11l-34.17-8.69-1.83-.46-49.04-12.69-1.03 4.23-14.28 53.84-7.89 31.1-6.63 26.06 16.12 4.23 9.37 2.4-6.06 22.29-4.57 19.21-1.49 5.71-17.37 67.1-25.49-6.4-2.17-.46-48.69-12.91-39.55-10.52-7.09-1.6-7.2-1.83-11.54 45.27-11.66 45.38-5.72 23.21 1.6.45 33.38 8.69 7.43 1.6v.46l1.71 25.72-2.51 21.6-3.2 12.24-7.32 28.8-7.08 27.67-25.61-6.18-5.82-1.25-22.64-5.95-14.63 57.5-7.54 28.35-6.63 24.81-1.26 3.2-1.71-.23-37.95-9.83-38.06-9.95-24.12-5.83-7.43 30.29-16 66.31-4.69 17.6-37.26-9.83z" stroke-linejoin="round"/></defs><use xlink:href="#e" fill="#9dc8ca" stroke="#9dd7f0" stroke-width="5.76"/><defs><path id="f" d="M1754.15 1583.57l-.34-.91-2.86-6.29-.23-.57-.11-.57v-1.6l-6.4-1.49-4-1.03-2.06-.57-1.26-.34-.68-.35-.35-.11-.91-.57-.8-.57-.8-.58-.57-.57-.69-.57-.57-.46-.34-.22-.57-.35-.46-.23-.57-.22-.69-.23-.91-.23-6.52-1.6.23-.8.34-1.72.23-1.37-3.08-.8-3.2-.8-.92 3.2-.11.69-5.26-1.26.69-2.97v-.8l-.23-.46h-.69l-2.4-.69-1.26-.34-1.6-.34-.11.57-.34 1.37-.46 2.06-2.63-.8-1.03-.23-1.48-.46v-2.51l.22-.92.12-.45-4.12-1.03-4.11-1.15-3.77-.91-3.89-1.03-3.54-.8-2.75-.68-.68-.23-.92-.23-7.08-1.72-6.29-2.74-.8-.57-.11.46-.69 3.2-.23.8-.23.45-.11.35-.12.11-.22.34-.12.12-.11.11-.46.23-.46.34-.34-1.14-1.6-3.31-2.06-4.58-1.03-1.94-.22-1.03v-.34l-.69-.92-.34-.91-.46-.69-.23-.57-1.94-4.68-.46-1.26-.69-1.15-1.71-3.65-6.51-14.64-4.01-9.37-.8-1.71-4.8-10.75-.57-1.26-.8-1.94 2.17.57 1.15.34.91.23 3.2.92 1.26.46.8.22 1.71.46 3.78.92 3.2.68 3.2.92 2.85.57.69.11 1.03.34.23.12h.34l2.63.69.34.11 1.6.34.57.23 1.72.34.8.23 2.86.8.45.12 3.09.68 3.2.8.68.12.46.11 1.95.57 1.02.23 2.29.57 1.49.35 1.6.45 1.6.35.68.23 4.46 1.14 3.2.68 2.51.69 1.72.46.68.11 1.03.23 2.52.69 2.74.57 4.12 1.03 1.48.34 2.52.69 1.6.57 5.14 1.25 2.63.69.34.11 1.03.35h1.03l.23.11 3.43.8 1.6.23.45.23 2.4.57 1.38.46 1.25.34.35.12h.34l4 1.02 4.8 1.26 2.74.69 1.03.34 3.89.91 1.71.46 2.17.57.8.12.46-.12 1.37.35 1.38.34.34-1.26.46-2.17.22-.57.23-.8v-.34l.12-.35.8-2.86.34-1.6.23-.8.57-2.05.11-.58.23-.8v-.34l.35-1.14.22-.69.23-1.25.35-1.15.34-1.48.23-.46.23-.92.11-.68.46-1.72 1.03-4.34.91-3.43 1.03-4 .8-3.32.91-3.54.92-3.66.8-3.08 1.03-4 .45-1.95.23-1.14.12-.34 1.14.45 1.03.69.57.11 2.17.12 2.52.57 1.25.23 2.18.46 3.42.91 2.52.34 2.28.8 1.72.57 1.26.23-.12 1.49h.12l.91-.23.92-.11.91-.12.91.12h.23l.57.11 1.15.23 9.26 2.51 1.48.35 12.8 3.2h.35l8.34 2.06 4.11 1.02 4.23 1.15 8.46 2.17 3.77 1.14.46.12h.23l.46.23.91.11.92.23.91.34.8.23h.11l.69.11.91.23.46.12.34.11h.12l.8.23 1.03.11 3.31.92 8.92 2.29-1.03 3.65-.8 3.43-1.83 7.09-.34 1.6-.12.23-.34 1.14-.46 1.72-.57 1.71-.46 1.72-.11.34-.46 1.71-.23 1.03-.45 2.17-.23 1.03v.23l-.8 3.2-.34 1.37-1.03 4.35-.46 1.6-.12.57-.68 2.17-1.72 6.86-.57 2.29-1.37 5.48-.11.46-.12.34-.8 3.09-1.03 3.66-1.82 7.09-.8 3.31-.69 2.4-.34 1.37-.92 3.55-.91 3.54-.35 1.37-.34 1.03-.23 1.14-.45 1.83-.46 1.83-.8 3.55-.12.57-.68 3.08-.8 3.43-.92 3.78-1.14 4.8-.46 1.83-.11.34.34.23.23.34-.68-.11-1.6-.46-7.21-1.83-.45-.46-1.49-.45-1.48-.35-2.29-.45-1.37-.46-.92-.46-.91-.57h-.12l-1.6-1.03-.8-.46-.11-.11-.57-.23-.57-.23-1.26-.34-.91-.23-.58-.11-.11-.12-.57-.11h-.12l-.8-.23-.91-.23-.46-.11h-.45l-.46-.12h-.57l-.58-.11-.45-.12h-.46l-2.51-.8-4-.91-1.03-.23-4.8-1.26-.58-.11-.91-.23-2.63-.57-.57-.23-5.03-1.37-.57-.12-.46-.23-1.26-.22-.57-.23-1.83-.35-2.74-.8-1.03-.22-2.17-.69-2.51-.57h-.23l-.35.11-.11.12-.11.11-3.32-.8-4.23-1.14-2.28-.57-2.52-.69-1.26-.46-1.94-.45-.68-.12-.12.46-.11.46-.23.45-.46.46-1.14.69-.92.57-2.05 1.25-3.43 1.95-.69.34z" stroke-linejoin="round"/></defs><use xlink:href="#f" fill="#9dc8ca" stroke="#9dd7f0" stroke-width="5.76"/><defs><path id="g" d="M1799.41 1465.6l-.57-.11h-.23l-.91-.12-.91.12-.92.11-.91.23h-.12l.12-1.49-1.26-.23-1.72-.57-2.28-.8-2.52-.34-3.42-.91-2.18-.46-1.25-.23-2.52-.57-2.17-.12-.57-.11-1.03-.69-1.14-.45.11-.46.34-1.37.23-1.03 1.26-4.57.34-1.38.12-.57.91-4.11.23-1.26.23-1.14.57-2.52 2.63-10.63 2.17-8.12 1.6-6.28 1.6-6.4.23-.92-1.94-7.77-.12-.57 3.77 1.03.23-.46 2.4-9.26.8-3.43.35-.92.8-3.2.68-2.51.69-2.86 1.37-5.6 1.94-7.2 1.83-7.2 1.72-7.09 1.71-6.52.23-.68.34-1.49.69-2.74.68-2.86.8-2.86 1.15-4.34 1.83-7.2 1.82-7.09 1.83-7.09 1.83-7.2 1.72-7.09.68-2.63.8-2.74.57-2.4.35.11h.34v.8l.23.46v.23l.23.23.11.11h.12l.11.23.46.46.34.23 1.6.46 2.86 1.02 19.89 4.46.45-.46.92-.45 1.83-.12.34-.57 1.83.57h.45l1.83.57h.69l2.86.58.8.34 2.63.91 5.02 1.15 3.66.8 1.83.11 4.12 1.14 2.74.69 1.83.46 1.14.23 6.63 1.83 7.54 1.94.8.23 3.66 1.03.69.11 8.11 2.29 4.92 1.37.8.23 5.37 1.48.46.12 1.48.34.23.11.46.12-.23.8 3.89 1.14 3.2 1.03 3.2.92 2.4.57 5.37 1.37 1.26.34 1.37.23 4.46 1.14 1.25.35 2.29.57 1.6.46 2.29.57 1.14.23 2.06.57 1.25.23 2.97.8 10.75 2.63 7.77 1.94.8.23 5.14 1.25-.11 1.03 5.37 1.37 5.37 1.38v.11l.35-1.14 5.14 1.37h.23l5.03 1.37.57.12 4.23 1.02.46.23.11-.11 1.83.46 2.29.57 1.82.45 5.03 1.26.35.23h.45l4.46 1.14 2.4.69 1.37.23 3.78 1.14 6.97 1.83 3.08.92 1.03.34h.34l3.78 1.03.8.23 1.83.45 1.37.46 3.77.91.11.12 2.18.46.68.11 5.03 1.26 7.09 1.94.57.12 3.77 1.14 6.17 1.6 1.83.57 1.6.57 2.52.46 8.8 2.29.8.22 3.88.92.23.11 3.2.8 5.37 1.49 4.35 1.14 1.71.46 6.4 1.71.23.12.46.23 5.37 1.37.8-.34 17.37 4.57.69.23.46.34.34.46.11.45.12.35-.12.57v.11l-1.14 4.46-1.48 5.37-.92 3.55-.46 2.06-1.37 5.37-1.48 5.71-2.06 7.55-1.94 7.77-2.52 9.72-.8 3.08-.11.46-.12.46-1.48 6.06-.92 3.54-1.03 3.66-.68 2.51-.34 1.26-.92 3.77-.91 3.66-1.03 3.89-.57 2.4-1.6 5.49-.12.45-1.14 4.35-.69 2.63-1.94 7.54-.91 3.43-.12.57-13.71-3.31-3.32-.8-5.03-1.37-3.31-.92-.12.23-.34 1.49-.46 1.71-.91 4-1.37 5.72-.23.68-1.26 5.72-2.86 10.29-.57 2.51-1.14 4.57v.12l-.8 3.2-1.14 4-.23 1.14-.69 2.4-1.03 3.89-.46 1.6-1.25 5.26-.46-.12-.46-.11-2.85-.8-6.52-1.83-3.09-.68 1.83-7.21 1.83-7.08-12.8-3.32-1.94 7.32-1.83 6.97-12.8-3.31-12.8-3.21-.46-.11-3.2-.91-9.15-2.29-6.74-1.72-1.26-.22-1.71-.35-1.72-.57-1.37-.34-.91-.23-9.03-2.29-2.74-.68-9.95-2.63-1.37-.34-1.14-.35-1.15-.34-2.28-.46-9.26-2.4-.46-.23-12.68-3.2-5.61-1.48-7.31-1.83-.8-.23-11.77-2.97-12.92-3.2-12.8-3.32-12.8-3.2-9.26-2.4-2.97-.8-.69-.11h-.11l-8.92-2.29-3.31-.92-1.03-.11-.8-.23h-.12l-.34-.11-.46-.12-.91-.23-.69-.11h-.11l-.8-.23-.91-.34-.92-.23-.91-.11-.46-.23h-.23l-.46-.12-3.77-1.14-8.46-2.17-4.23-1.15-4.11-1.02-8.34-2.06h-.35l-12.8-3.2-1.48-.35-9.26-2.51-1.15-.23z" stroke-linejoin="round"/></defs><use xlink:href="#g" fill="#9dc8ca" stroke="#9dd7f0" stroke-width="5.76"/><defs><path id="h" d="M1562.81 1346.6l-.57-.11-.45-.12-.46-.45-2.86-.92-13.14-3.2-.69-.23-1.03-.34-1.48-.34-1.15-.35-1.03-.34h-.57l-3.43-.91-1.94-.46-1.37-.23-1.14-.34-1.15-.23-4-1.15-6.4-1.6-6.86-1.71-2.74-.69-4.91-1.25-6.63-1.72-3.2-.8-10.29-2.74-1.71-.46 1.48-6.06.46-1.83.46-1.25 1.14-4.69.46-1.49 1.25-5.14.69-2.63 1.37-5.37.57-2.18 1.03-4.11.57-2.06 1.26-5.26 1.94-7.77.35-1.49 1.14-4.57.11-.46-.45-.22-.12-.35-.23-.45 1.83-7.43.34-1.49.92-3.66.34-1.37.34-1.37.46-1.95.8-2.85.8-2.52.34-.46.58-2.28.11-.57.34-1.15.46-.22 1.03-.23.91-.46 3.09.8 1.71.57.92.34 2.74 2.06 1.6 1.14.8.69.8.69.8.8.8.91.8 1.03.8 1.49 2.06 3.08.69 1.49-.46-1.26-1.49-3.89-1.71-4.91-.46-1.72 2.74 6.29.35.92 1.48 1.94.69 1.14.34.92.46 1.25.11.23.12.46.11.23.12.23v.23l.57.68.57 1.37.8 1.72.91 2.4.92 2.06 3.88 9.03 1.6 3.43.12.57 2.63.57 7.31 1.71.69.35.8.34 6.06 1.37 1.48.35-.11-.35-.34-.68-1.03-2.52-2.52-6.17-1.37-3.77-1.14-2.98-2.97-8v-.57l-1.03-2.4-4-9.83-3.09-8-2.97-7.78-1.26-2.97-1.26-3.2-.45-1.14-.12-.46-.34-.57-.23-.46-.46-.68-.22-.35-.46-.57-.46-.57-.46-.46-.68-.8-.57-.8-.23-.34-.23-.34-.23-.35-.23-.45-.34-.69-.12-.23-.11-.34-.23-.34-.34-.58-.34-.68-.12-.34-.11-.23-.35-.69-2.28-4.69-3.66-8.11-2.4-5.6.11-.23.23-.23.12-.34.23-.46v-.46l3.88-14.4 3.77-14.52 1.15-4.69 1.03-3.88 3.88-14.29.92-3.43 1.83-7.2 1.71-6.4.8-2.98 1.49-5.6 1.48-5.83 2.86-10.86v-.34l.23-.57 1.83-7.09.91-3.66 2.17-8.91.92-3.43 1.48-5.6 1.26-5.26 1.37-5.6 1.49-5.6.45-2.29.58-1.83.34-1.71.8-3.21.46-1.48.11-.69.23-.57.23-1.14 3.2-13.26 1.48-5.6 1.38-5.49 1.48-5.6-.46-.12-10.4-2.74-1.03-.23-.8-.23 1.38-5.6 12.11 3.09.57.23 1.03-4.35.46-.57.23-.57.46-2.06.91-4 .23-.68.57-2.75 1.37-5.03 1.83.46 3.77 1.03 3.2.91 9.72 2.63 1.83.46 4.11 1.03 9.15 2.17 5.02 1.14 1.26.35.34.11 5.49 1.37 1.37.34 3.55.92 3.88 1.03 2.75.8 8.91 2.28 5.14 1.38 7.78 1.94.57.11 5.71 1.49 2.06.57 13.72 3.43h.34l.46.12 8.57 2.17 1.03.23 1.83.45 1.02.23 2.41.57 1.02.23 3.09.8 6.17 1.49 5.37 1.37 5.83 1.49 3.66.8 10.63 2.63 12.46 3.08 3.31.8 4.46 1.14 5.03 1.26-.23.92-1.03 4.23-.57 2.28-.68 2.4-.8 2.75-1.03 3.77-1.37 5.6-1.03 3.77-.57 2.17-.23 1.15-1.49 5.71-1.71 6.52-1.49 5.71-2.06 8.12-.34 1.37-1.03 3.89-.8 3.09-1.94 7.2-1.14 4.34-.8 3.2-1.83 6.63-.57 2.06-.58 2.63-1.02 3.54-1.72 6.06-1.14 5.26-.12.57-1.03 3.77-1.25 4.58-.35 1.37-.57 1.94-.68 2.74-1.49 5.72-.68 2.74-.8 2.75-1.38 5.48-.34 1.03-.68 2.75-.12.68-.11.46v.57l.23.34.34.58-4.12-2.52 5.15 7.77 7.54 11.66 2.4 3.78 1.6 2.63-2.17-.46-5.37-1.03-3.89-.69-3.2-3.88-1.37-1.49-1.49-1.6-1.14 4.23.69.57-.35.34-.34.46-.34.57-.23.92-.34 1.14-1.26 5.49-.12.57-1.14 4.57-.46 1.83-1.94 7.2-1.83 7.09-1.94 7.09-1.83 7.2-1.83 7.2-.91 3.43-.92 3.66-1.03 3.43-.45 2.17-.35 1.14-.34.57-1.14 5.15-.69 2.86-1.6 6.4-3.77 14.06-3.54 13.94-3.89 14.75-.11.57-1.72 6.63-1.83 7.32-1.6 6.29-2.05 7.65-3.55 14.06-3.54 13.15-.23 1.26v.23l-3.2-.8-3.31-.8-3.2-.69-3.21-.8-3.2-.8-3.2-.8-3.08-.8-2.63-.57-.57-.23-3.32-.69-3.31-.8-3.2-.8-3.32-.8-3.08-.8-3.2-.8-3.2-.57-3.2-.91-5.15-1.26-4.91-1.14-5.83-1.49-.69-.11-3.54-.8-4.34-1.15-.92-.23-.46-.11h-.45l-2.52-.8-.8.34-.45-.11-5.83-1.49-2.52-.68-.46-.12-.8-.23-2.05-.45-.57-.12-.46-.11-2.75-.69z" stroke-linejoin="round"/></defs><use xlink:href="#h" fill="#9dc8ca" stroke="#9dd7f0" stroke-width="5.76"/><defs><path id="i" d="M1149.17 1363.41l-.58-.23.23-.8.35-1.15.45-2.17.69-2.4.46-1.83 1.48-6.4.92-3.2.8-3.43 1.02-4 .92-3.54.57-2.41.46-1.6 1.03-4.22.57-2.18.57-2.17.34-1.37 1.26-5.37 1.03-4 1.26-4.81 1.02-3.65 1.03-4.35 1.15-4.46 1.25-5.14 1.03-4.11 1.03-4.01.8-2.97.92-3.43 1.14-4.68.46-1.72.68-2.86 1.03-3.65.23-.8 1.14-4.81.69-2.63.68-2.4.35-1.25.57-2.52 11.54-45.49 2.29-9.38 1.25-4.68 1.03-4.23 1.72-6.86.91-3.43 1.83-7.09 1.14-4.8 1.49-5.83.34-1.26 2.75-10.97 2.05-8 2.18-8.35 4-16.23 1.02-3.89.69-2.97 1.37-5.37.92-3.32.45-2.06 1.38-5.48 2.51-9.95 5.6 1.49 10.63 2.97 6.52 1.72 15.08 3.88 13.38 3.09.45-1.6.57-2.52.8-3.43.23-.57.46-.46 2.06-9.03 2.17-8 1.26-5.6.34-1.03.23-1.26.11-.68.69-3.32.8-3.08.91-3.66.12-.23 1.25-5.14.69-2.63v-.46l.23-1.03v-.57l.57-2.86-14.06-3.54-4-1.14-.68-.23-4.81-1.15-1.48-.45-3.77-.92-14.63-3.66-3.78-1.03-3.54-.8 3.66-14.51 1.14-4.35.23-.68.11-.69 2.06-8.23.57-1.94 1.72-7.2.34-1.03 2.06-8.12 2.86-9.37.34-1.37.11-.58v-.22l2.52-10.41.57-3.08.57-2.4 1.49-5.61 1.25-5.25 3.78-14.75 3.65-14.17-1.94-3.89 1.14 1.26.69.45 4.91 1.49 4.58 1.03 2.28.68 1.37.23h.8l2.29-.45 2.17-.8 4.69-1.83 10.86-4 8-2.86 2.51-.92 1.6-.91 1.26-.8-.69-1.14-10.4-19.67-5.6-10.63-1.71-3.43-2.63-4.91-.46-.8-.46-.69-.45-.68 1.71-1.15-36-68.7-6.4-1.49-.92-1.71h-.57l-1.26-.34-3.88-.92-5.95-1.48-6.86-1.72-2.4-.57-2.28-.57-.8-.23-1.72-.34-.57-.23-9.71-2.29-2.06-.57-9.37-2.29-6.63-1.6-1.83-.45.8-3.2 10.06 1.25.34.35 3.43.8 4.23.91 2.17.57 2.06.46 1.25.34 4.46 1.15 3.32.8 1.71.45.34-1.48 1.15-4.35 1.25-5.03.23-1.03.57-2.05.35-1.15.45-1.94-4.57-1.37-1.03-.23.12-.23-.12-.34h-.22l-1.72-.46-2.86-.8-1.14-.46-.8-.45-.69-.57.58-1.15 1.03-2.28.11-.35.11-.34.8-3.09.69-2.74.91-4.23.23-.8.57-2.4.35-1.14.11-.57v-.69l-.23-.46.23-7.2-.68-.91-1.95-3.2-1.25-2.18-.58-1.03-2.85-4.91-.46-.8-.34-.57-.46-.57-.34-.46-.23-.34-.35-.46-.45-.46-.35-.46-.34-.34-.46-.46-.45-.34-.35-.34-.57-.46-.57-.11h-.68l-.12.11-.34.23-.23.23-.11.34-.35-.57-.11-.46v-.34l-.12-.34-.22-.35-.69-1.14-1.03-.69-2.74-1.6-.8-.68-.92-.8-1.03-1.15-.8-.8-.34-.57-.11-.23-.57-1.14-.46-.8-.34-.69-.35-.8-.23-1.14-.22-.8-.23-1.03-.23-1.03-.12-.91-.11-1.37-.23-2.97-.11-2.18-.12-1.14-.11-.91-.23-.92-.23-.91-.34-1.03-.57-1.26-.46-1.26-1.94-4.23-1.03-2.4-.69-1.6-.68-1.25-1.83-3.55-4.69-9.14-2.63-5.15-.34-.68-.46-.46-.34-.46-.34-.34-.58-.23-.8-.23-4.34-1.03-2.63-.68-18.86-4.8-20.69-5.26-9.48-2.52-1.37-.34-.35-.11h-.68l-.46.11-.34.11-.46.12-.91.46-4.35 2.17-1.25.57-.58.34-.45.35-.58.45-.57.35-.45.45-1.72 1.72-.8.8-.8.68-.57.46-.69.46-1.25.8-.8.46-1.26.68-1.03.57-.8.35-.91.34-1.03.46-1.26.34-1.49.34-1.02.12-1.03.11-1.15.11-2.4.23-2.4.12-1.83.11-1.82.23-2.06.23-1.94.34-1.15.12h-2.05l-1.03-.12-1.72-.23-1.14-.23-1.49-.45-1.48-.35-1.15-.45-1.48-.57-2.4-.92-1.15-.34-1.25-.46 1.6-.57 2.97.91 1.49.46 1.37.57 2.85.35 1.83.34h4.35l1.48-.46 1.15-.34 1.37-.12.8-.8h-.57l-.46-.11-.12-.23v-.11l.35-.12h.34l.23-.11v-.34l-.23-.23-.11-.12v-.23l.11-.45.34-.23.46-.23h1.6l.8.23.69-.12h.8l1.14.23.57.23.69.11h.57l.68-.11.8-.23 1.03-.34.69-.23.68-.11 1.26-.69.92-.69.8-.8.8-.91.91-.69 1.14-.68 3.32-1.49 1.71-1.26 1.03-.8 1.83-.91 1.49-.69.68-.34.92-.57.68-.34 1.03-.46.8-.12 1.83-.57 1.83-.68 1.26-.35 1.25-.8.8-.68.57-1.03.35-1.49v-1.6l-.12-.8-.11-.8-.34-.45-.35-.46-.45-.57v-.57l.22-.92.35-1.14.68-1.15 1.37-2.4 1.03-1.48.8-1.49 1.03-1.83 1.49-2.17 1.48-1.71 2.29-3.32 1.6-1.94.69-.92.68-1.25.8-1.26.8-1.83.8-1.37.69-.57.68-.35.8-.34.8-.34.8-.69.23-1.03.57-1.25.35-.81.8-.68.68.11.8-.68.8-.8.92-1.03.34-.23-.34-.91.11-.12.23-.57.11-.46.12-.68-.34-.58.11-.22-.11-.35-.12-.57-.8-.57-.46-.69-.22-.68.11-.92.34-1.48 1.26-1.37 12.57-10.98 1.38-1.26 2.62-2.51 4.12-3.89 1.37-1.03 4.57-3.31.8-.23 2.52-.8 4-.57 1.83-.12 1.25.23 2.75 1.03.57.23 2.63.46 2.74.8 1.26.57 1.48.91 1.95.92 1.71 1.03 1.03.91.69.34 1.25.23 1.83-.34 1.03.23.69.57.68.23h1.49l1.37.8 1.71 1.37 1.03 1.14.57 1.95.23 2.4.69 2.28.46 3.09.11 2.4.57 1.03.57 1.03 1.37 1.03.92.91.57 1.15.11 1.48-.34 2.86-.11 1.6.23.8.91 1.26 6.29 4.46 6.51 2.28 1.95-.23 2.51.46 2.17.46 4.12 1.03 4.68 1.25 4.35.92h3.65l8.69-.46 4.23-.57 1.83-.34 1.03.45 1.6.92 1.37.11.68-.23 2.98-.8 5.94-1.02 1.83-.58 1.26-.8 1.14-1.25 1.14-1.83.92-2.06 1.14-4.57 1.03-2.52 1.26-1.37 1.6-1.14.57-.8.45-1.26.69-.69 5.49-3.08 2.05-1.26 1.15-.34 1.14-.46 1.94-1.6 1.26-1.37 2.97-2.75 3.77-2.51 2.4-1.03 1.38-.91 2.85-1.26 3.09-1.26 1.48-.34 2.86.11 2.29.35 1.37.34 2.17 1.26 3.2 1.48 3.66 1.26 3.2 1.26 2.97.45 1.6-.11 1.37-.57.8-.46 1.03-.11.92-.23 2.05-.69 1.38-.57 1.6-.34 1.71-.12 2.06.35 3.77.22 2.4.58.57.45.23 1.26-.11 1.03-.35 1.14.12.8.8.35 3.43 1.14 1.02.11 1.15.46 1.14-.11 1.26.11 1.03.34 2.17 1.15.68.45 3.2 2.29 1.26 1.14 1.26 1.26 2.4 1.14 1.37.46 1.94.92.46.45 1.94.69.8.46.58-.12h1.02l.58-.23.68-.11.34-.23.46-.23.57-.34h1.83l.57-.12.35-.11.45-.34h.69l.57-.12.23.12h.46l.34-.12.34.23.12.23v.91l.11.35.23.34.11.34.12.35.11.57.12.34v.23l.23.23.22.23.12.23.23.11h.45l.35-.23.11-.23.23-.23.23-.11h.46l.22-.23.35-.11.23-.35.22-.23v-.22l.12-.23-.12-.23.12-.34.23-.46.34-.46.12-.34.34-.23.23-.23.11-.11.23-.46.23-.34.11-.23.23-.34.12-.23.11-.12.23-.23.23-.22.34-.46.23-.35.23-.34.34-.23.11-.23.23-.45.23-.57.12-.35v-.23l-.12-.34.12-.46.11-.22.23-.23.11-.12h.35l.22-.34.23-.34.23-.23.12-.23v-.69l.34-.11.11-.34.23-.46.12-.34.22-.35.12-.45v-.35l.11-.45.12-.46.23-.23v-.46l.11-.8.34-.45.23-.58.34-.45.23-.35.35-.68.34-.8.11-.57.12-.46.11-.8.12-.46.22-.57.12-.34.34-.23.34-.23v-.57l-.22-.23-.35-.23-.23-.11v-.35l.23-.34.35-.11.45-.35.46-.23.34-.34.46-.34.8-.12.69-.45.91-.46.46-.46.46-.45.68-.35.46-.34.34-.46.46-.57v-.57l-.12-.57-.11-.69.11-.46.35-.22.45-.58.35-.45.34-.35.23-.57.34-.11.57-.23.35-.34.45-.35.46-.57.69-.34.22-.23.35-.23.45-.23.58-.45.34-.35.46-.34.57-.46.46-.45.45-.23.46-.46.46-.34.34-.46.11-.34.12-.46v-.34l.23-.46.23-.12.11-.22.23-.35v-.34l-.23-.34h-.23l-.34-.23-.34-.12-.12-.22-.23-.23-.45-.12h-.23l-.23.23h-.34l-.35-.11-.11-.12-.23-.23-.23-.11-.34.23-.23.46-.12.45.12.35.46.34.34.11h.23l.46-.11.11.23v.34l-.34.23-.35.34-.57.35-.46.34-.34.57-.23.34-.45.35-.35.11-.34.11-.46.8-.34.58-.34.45-.57.46-.46.11-.57.12-.57-.23-.35-.23-.11-.46-.23-.45-.11-.35-.12-.68-.11-.34-.23-.23-.23-.35v-.34l-.23-.46-.46-.11-.57-.11-.34-.12-.23-.34-.11-.46-.23-.23-.12-.11h-.34l-.34.34-.8.92-.46.11-.23-.23v-.57l-.11-.57v-.23l.11-1.03.23-.46.46-.57.34-.46.57-.34.35-.34.45-.23.57-.34.69-.46.34-.46.46-.34.57-.34.34-.46 1.03-.57.69-.57.68-.35.92-.45.57-.46.69-.23.68-.46.34-.23.69-.11.34-.23h.35l.45-.11.58.11.45.12.35.34h.68l.12.23-.12.34-.34.23h-.69l-.57.11-.68.23-.58.12-.45.11-.23.23.11.46.46.11.57.11.46-.11.68-.34.58-.23h.45l.46.23.34-.12.35.12.34.34.46.23.57.23.68.34.46.23.46.57.23.34.45.69.35.46.34.45.23.12.34-.12.57-.11.46-.23h1.03l.46-.34.57-.34.45-.23.58-.23h.34l.34.11.46.23.57.23.34.23.46.11.57.46.23.23.23.23.34.45.23.46.46.69.11.45-.34.12-.69-.46-.45-.46-.23-.22-.35-.23h-.22l-.12.34-.11.34-.12.57.23.46.34.46.58.68.8.58.68.68.69.57.68.69.57.46.46.23.46.22.46.23.57.46.68.34.92.57.68.46.35.57.34.12.57.45.57.46.57.69.46.34.46.46.46.34.22.57.46.46.23.46.23.34.57.69.46.11.57.46.46.8.34.46.8.91.34.57.57.8.35.69.57 1.03.57.8.57.68.46.92.46.45.68.92.57.46.35.57.45.68.46.69.69.8.68.68.69.69.57.8.57.57.69.8.45.46.57.57.58.46.68.68.8.69.57.69.8.68.35.57.57.8.8.8.57.8.46.46.68.57.46.12.8.57.46.69.45.45.46.57.46.69.57.46.91.45 1.03.58.69.57.68.8.46.8.8 1.03.8.68.57.69 1.38 1.03 1.48 1.03.69.68.91.57 1.03.46.69.92.68.68.34.92.58.68 1.02 1.26.58 1.03.91 1.48.69 1.03.91 1.26.92 1.26.91 1.37.23.46.34.68.46 1.03.23 1.26.11 1.37v.8l.34 1.14.35 1.15.23 1.71.22 1.72.35 1.02.34 1.03.57.92.8.57.8.46.8.57.46.57.91.8.92.46 1.14.57.92.34 1.02.12 1.15-.23.45-.23.35-.8.57-.57h.46l.57.23.45.34.8.34.8-.11.46-.46.57-.69.8-.91 1.03-1.03 1.03-.68.92-.35 1.02-.34.92-.34.91-.35.92-.11 1.48-.34 1.49-.23 1.03-.12 1.14-.45 1.14-.35h.92l1.26.23 1.25.23 1.15-.11 1.37-.46.8-.46.8-.68 1.37-1.26.91-1.14.69-1.38.34-.68.8-1.03.92-1.14.8-.35 1.14-.8.91-.68 1.26-.69.92-.91.68-.58.46-.57 1.03-.45 1.14-.8.91-.58.8-.91.92-.69 1.14-.45 1.15-.8 1.25-.58 1.15-.45.91-.57.91-.46.92-.34.91-.12 1.26-.23 1.26-.11.91-.34.92-.12 1.25-.23.92-.34.91-.23.92-.23 1.14.12.91.8.46.8.46.8.91 1.03 1.03.8.8.45.8.46.46.46.57 1.14.57.57.34.92.58.68.45.57.23.69.35.69v.91l-.12.8-.46.46-.68-.12h-.46l-.57.46-.23.57-.23.8-.34.8-.46.8-.34.69-.34.8-.69.46-.57.68-.46.69-.23.91v.92l.23 1.14.34.69.35.8.23.68v.69l.11.91.46.69.34.23.46.34.45.46.46 1.03.34.91.23 1.03.23 1.37-1.71 2.97-5.6 11.78-2.06 4.23-5.94 12.34h-.58l.12 4 .23 1.6-.12.35-.91 1.14-.34.23h-.8l-.69-.57-1.03.34-.23.46-2.4-.46-1.03-2.06-1.37-.23-1.14 1.15-2.97-.23-.23.46-2.4 1.71-2.86.34-2.74-1.14-4.69 1.03-9.37 2.86-7.66.11-6.86 2.17-1.6 8.23-.68 3.66-.92 5.6-.45 1.95-.92 4 .46.34-2.06 10.06-.23 1.03-3.08 7.54-.35 6.63-.11 2.52.34 2.74.46.46h1.14l.57-.12 3.78-1.37 1.82-.23 2.18 1.03 3.88 3.55 1.03.8 1.94 1.14-.11.34-.8 1.72-.23.45-.23.69-.34.8-1.14 4-.12.57-.11.46-.23.69-.12.68-.8 2.75-5.37 20.8-.57 1.94-.23.35-.57 1.14-.23 1.14-3.54 13.72-.34 1.03-3.09 11.89-.11.8v.34l-1.49 6.06v.46l-.23.91-1.26 4.8-1.37 4.92-.8 2.97-1.37 4.8-.8 3.09-.8 2.97-1.14 4.23-1.72 6.4-.68 2.74-.92 3.09-.11.34-.23.8-.69 2.86-.57 2.17-.34 1.38-.23.57v.34l.12.23-.92.23-.8.11-2.06-.23-1.71-.68h-2.63l.57.23.57.34.57.57v.8l.12 2.17-.92 2.06 4.01 6.74-.23 1.03-.35.8-2.28 8.12-.57 2.29-.46 2.28-.12.46-.22.46-.12.23-.23.11-1.14 2.4v.23l-.11.34-2.29 9.15-.8 3.2-.23.57-.11.34-.23.23-1.14.92-.35.34h-1.03l-.34.57-.23.8v.8l1.03.11 3.43.69.57.23.34.34-.22.69-.12.8-.11.57v.57l.45 2.86.12.68v.46l-.12.57-.57 1.72-4-1.03h-.45l-.46-.11v2.74l-.12 1.37-.23 1.6-.34 1.6v.34l-1.48 5.83-.12.58-1.14 4.34-.12.46-2.4 8.91-.45.57-.35.46-.11.57-.11.46-1.26 4.69-.34 2.17-.12.57-.46.8-.91 3.77-.57 1.38-.34.8-2.98 12-.11.68-.23.8.46.12 5.14 1.37 1.94.46 5.83 1.48 6.29 1.6 5.37 1.49.57.11.23.12 3.32.57 4.8 1.03 10.4 2.86 2.06.45.45.12 4.69 1.26 6.63 1.82 1.94.46 2.63.57 5.6 1.49h.23l3.09.8 3.77.91 6.51 1.83 5.03 1.26.46.12 4 1.02 4.69 1.15 6.17 1.48 1.14.23-1.37 5.03-.57 2.75-.23.68-.91 4-.46 2.06-.23.57-.46.57-1.03 4.35-.57-.23-12.11-3.09-1.38 5.6.8.23 1.03.23 10.4 2.74.46.12-1.48 5.6-1.38 5.49-1.48 5.6-3.2 13.26-.23 1.14-.23.57-.11.69-.46 1.48-.8 3.21-.34 1.71-.58 1.83-.45 2.29-1.49 5.6-1.37 5.6-1.26 5.26-1.48 5.6-.92 3.43-2.17 8.91-.91 3.66-1.83 7.09-.23.57v.34l-2.86 10.86-1.48 5.83-1.49 5.6-.8 2.98-1.71 6.4-1.83 7.2-.92 3.43-3.88 14.29-1.03 3.88-1.15 4.69-3.77 14.52-3.88 14.4v.46l-.23.46-.12.34-.23.23-.11.23 2.4 5.6 3.66 8.11 2.28 4.69.35.69.11.23.12.34.34.68.34.58.23.34.11.34.12.23.34.69.23.45.23.35.23.34.23.34.57.8.68.8.46.46.46.57.46.57.22.35.46.68.23.46.34.57.12.46.45 1.14 1.26 3.2 1.26 2.97 2.97 7.78 3.09 8 4 9.83 1.03 2.4v.57l2.97 8 1.14 2.98 1.37 3.77 2.52 6.17 1.03 2.52.34.68.11.35-1.48-.35-6.06-1.37-.8-.34-.69-.35-7.31-1.71-2.63-.57-.12-.57-1.6-3.43-3.88-9.03-.92-2.06-.91-2.4-.8-1.72-.57-1.37-.57-.68v-.23l-.12-.23-.11-.23-.12-.46-.11-.23-.46-1.25-.34-.92-.69-1.14-1.48-1.94-.35-.92-2.74-6.29.46 1.72 1.71 4.91 1.49 3.89.46 1.26-.69-1.49-2.06-3.08-.8-1.49-.8-1.03-.8-.91-.8-.8-.8-.69-.8-.69-1.6-1.14-2.74-2.06-.92-.34-1.71-.57-3.09-.8-.91.46-1.03.23-.46.22-.34 1.15-.11.57-.58 2.28-.34.46-.8 2.52-.8 2.85-.46 1.95-.34 1.37-.34 1.37-.92 3.66-.34 1.49-1.83 7.43.23.45.12.35.45.22-.11.46-1.14 4.57-.35 1.49-1.94 7.77-1.26 5.26-.57 2.06-1.03 4.11-.57 2.18-1.37 5.37-.69 2.63-1.25 5.14-.46 1.49-1.14 4.69-.46 1.25-.46 1.83-1.48 6.06-.46-.11-.12.57-.22 1.26-1.38 4.91-1.25 5.03-.58 2.17-.8 2.86-2.4 9.49-1.14 3.77-.46 1.72-.34.91v.34l-2.4 9.15-.68 2.51-1.26 5.38-1.72 6.97-.45 1.83-.8 3.08-1.03 3.89-1.37 5.49-1.49 5.71-2.17 8.58-1.14 3.77-1.72 7.2-1.94 7.77v.58l-.8 3.42-.69 3.09-.68 2.86-.92-.23-1.83-.46-11.54-2.51-1.6-.69-.69-.23-.57-.11-2.06-.57-5.37-1.26-5.03-1.14-4.91-1.26-4.12-1.03-8.34-1.94-3.66-.92-2.74-.68-2.06-.46-7.66-1.83-3.31-.8-3.77-.91-14.98-3.66-11.08-2.63-3.89-.92-1.03-.22-5.83-1.49-6.28-1.71-11.09-2.86-5.26-1.37-4-1.03-8.34-2.18-.23-.11-.57-.11-1.95-.46-2.63-.8-1.94-.46-3.31-.8-8.8-2.4-8.46-2.29-8.46-2.17-8.46-2.17-2.51-.69-5.95-1.6-8.68-2.28-1.15-.34-12.57-3.09-12.46-3.2-24.34-6.06-.69-.23-25.03-6.29-24.8-6.05z" stroke-linejoin="round"/></defs><use xlink:href="#i" fill="#6bacaf" stroke="#6bb4d2" stroke-width="5.76"/><defs><path id="j" d="M589.21 1344.66l-10.86-2.75-11.54-2.97-3.09-.91-3.31-.69-1.6-.46 11.43-46.06 2.4-9.26.11-.46v-.46l-.11-.45v-.35l-.34-.34-3.09-.8-17.6-4.57-2.17-.57-1.6-.35-1.49-.45-24-6.29.68-2.29 13.83-56.13 14.41-56.81 6.17-24.12 7.08-27.55 1.49-5.6-1.03-.23-24.46-6.29-25.94-6.63.45-1.71 6.98-27.09 7.2-28.35 14.51-57.39 14.98-57.84 6.74-26.06 4.34-16.46 4-14.52-21.37-5.49-30.18-7.89 14.29-56.47 22.18 5.95 8.68 2.29 14.63 3.08 1.15-4.8 11.65 3.09 1.83-7.66 1.6-8 1.95-7.32-1.6-.34-4.12-1.15-4.8-1.25-.46-.35-8.57-2.28h-.69l1.49-5.49.23-1.03v-.68l-.34-.35-.46-.23-7.89-1.94-.68-.23-8.23-2.17 5.71-21.49-18.97-4.8.23-1.26 4.23-16.8 2.85-10.98 3.66-13.83.46-1.83 2.97-11.31 3.66-14.07 1.71-1.25 1.26-.57 2.29-.46 1.02-.23.69-.34 2.51-1.83 1.95-1.03 1.37-1.03.34-.34 2.63-3.32.57-.68 1.49-2.06.68-1.03 2.52-3.32 1.26-1.37.91-1.94 1.37-4.92 2.17-5.25 2.86-6.75 2.29-5.71 1.6-3.78 1.94-3.43 1.03-1.82 2.06-2.98 2.97-3.77.34-.34.34-.34.8-.35 1.6-.57 1.95-.23h3.43l1.48-.23 3.55-.57 8.45-2.28 4.23-1.03.46-.12.8-.57 1.49-1.26 1.94-1.14 9.71-4.8 3.32-1.37 1.03-.23.8-.12 1.14.23 1.03.23.69.34 1.82 1.03 2.18 1.38 2.28 1.14.8.34 2.06.46.91.11 5.26-.23.92.23 1.48.46 1.83.8 1.49.11 2.17.12 1.03.23.45.34.35.46.11.34.46 2.29.23.45.23.35.22.23.58.34 10.85 4.23 2.86.91.69.12 2.17-.46h4.23l3.66.69 1.71.22 1.49-.11.57.11.46.12 1.82 1.37 4.23 3.54 1.95 1.6.8.46 1.14.46.91.23.57.11 2.06.34 1.95.58 3.31.57 1.83.34 4.69.69 1.48-.35 4.23-1.03 2.86-.57 2.63-.45 6.51-.46 2.06.23 4-.23 4.46-.12 3.77-.22h3.2l1.26-.12 1.14-.34.8-.46 4.34-3.09.92-.68 2.4-2.06.57-.46.46-.45 2.17-2.52.8-1.26.23-.68.23-1.49-.35-4.34-.34-2.86-.34-2.29v-.68l.11-.69.46-1.25 1.83-7.32.23-.8.22-2.29.12-2.97-.46-1.71.92-4.58 1.02-2.74.46-.8.57-.91.69-.8.23-.23.34-1.03.23-1.26.23-1.03.57-1.14.91-1.37 1.26-2.86.23-.46.11-.11.23-.35.35-.45.45-.35.57-.57.46-.8 1.37-1.6.69-1.03.23-.34.23-.11.68-.69 1.94-1.49 1.38-1.14 2.85-1.94 5.38-2.63 1.48-1.03 5.49-2.63 3.66-1.6 5.6-1.37 2.74-.8 4.57-1.26h2.52l.91.12 1.37.11 1.95.34 1.25.23 1.49.46 1.83.68 1.03.46.8.46.91.57.69.57 2.74 2.17.69.46 1.14.69 2.74 1.6 1.26.57.91.34.92.34.8.12 2.4.57.45.11.46.23.34.23.23.35.35.34.23.57.57 1.14.45 1.49.46 1.6.57 2.63v.34l.12.34.91 1.38.12.45.11 1.26v1.94l.23 1.49.11 1.83v8.57l.12.46.23.34 2.97 4 .45.58.35.57.23.45.11.46.11.57v.69l-.11.57-.34 1.94-.35 1.83-.45 1.49-.12.8-.34.57-.69 1.37-.22.57-.23.69-.12.57.12.23.11.34.34.35.46.22 2.74 1.03.23.12.23.23.23.22.11.92.12.46.23.45.34.35 1.6 1.71 2.17 3.09 1.15 1.83.57.45.8.23 2.05.69 1.15.23.8.45.8.58 1.03 1.25.45.57.46.23.23.12.34-.12 1.15-.23.34-.11h.46l.34.23.34.23.34.34.12.46.46 2.51.34.92.8.68 1.6.92 2.06.91 3.31 2.52 2.52 2.17 5.37 4.8 1.03.91 1.37.92 1.14.34 1.72.35 5.14.68 1.94.34h1.26l1.83-.57 1.26-1.26 1.37-1.02 2.28-1.26 7.09-1.72 3.77-1.37 9.26-2.17 6.29-2.29 1.6-.8 1.48-.45 5.6-1.6 2.4-.46 1.83.11 1.03-.45.46-.23.91-1.26.46-.46.8-.23 1.6.12 1.71.23 2.18.8h1.14l1.94-.23 2.4.11 1.49.35 1.03.57.8 1.03.34.68.57 1.72.92 1.14 1.14.91 1.03 1.38 1.25.91.69.69.8 1.14.91 1.14.23.69.23 1.94.57 1.26.92.91.45.12.23-.12.46-.34.46-.46.23-.22h.57l.34.22 1.03.58 1.03.68 2.51 2.4 4 2.52 1.49 1.14.34.34.35.12.45.11 2.17-.23.92.12 1.26.57 2.74.8 2.97 1.14.92.23h.34l.11-.11.23-.46.34-.92.58-.8.34-.22h.57l.8.11 3.09 1.71 2.17 1.49 3.2 2.29 2.06.91 1.82.57 2.18 1.03 1.6.34 1.25-.22 1.49-.12.91.23 1.03.46 3.66 1.94 2.06 1.14 1.25.58.8.34 1.15.46 2.63.68 2.05 1.03 3.89 1.49 2.74 1.03 1.37.22 1.72.35.69.23h.8l.68.11.57-.23.69-.34.8-.69.8-.8.46-.23.34-.11.91-.12h.8l.35.23v.23l.11.12.23.23v.34l-.23.11h-.34l-.35.12v.11l.12.23.46.11h.57l-.8.8-1.37.12-1.15.34-1.48.46h-4.35l-1.83-.34-2.85-.35-1.37-.57-1.49-.46-2.97-.91-1.6.57 1.25.46 1.15.34 2.4.92 1.48.57 1.15.45 1.48.35 1.49.45 1.14.23 1.72.23 1.03.12h2.05l1.15-.12 1.94-.34 2.06-.23 1.82-.23 1.83-.11 2.4-.12 2.4-.23 1.15-.11 1.03-.11 1.02-.12 1.49-.34 1.26-.34 1.03-.46.91-.34.8-.35 1.03-.57 1.26-.68.8-.46 1.25-.8.69-.46.57-.46.8-.68.8-.8 1.72-1.72.45-.45.57-.35.58-.45.45-.35.58-.34 1.25-.57 4.35-2.17.91-.46.46-.12.34-.11.46-.11h.68l.35.11 1.37.34 9.48 2.52 20.69 5.26 18.86 4.8 2.63.68 4.34 1.03.8.23.58.23.34.34.34.46.46.46.34.68 2.63 5.15 4.69 9.14 1.83 3.55.68 1.25.69 1.6 1.03 2.4 1.94 4.23.46 1.26.57 1.26.34 1.03.23.91.23.92.11.91.12 1.14.11 2.18.23 2.97.11 1.37.12.91.23 1.03.23 1.03.22.8.23 1.14.35.8.34.69.46.8.57 1.14.11.23.34.57.8.8 1.03 1.15.92.8.8.68 2.74 1.6 1.03.69.69 1.14.22.35.12.34v.34l.11.46.35.57.11-.34.23-.23.34-.23.12-.11h.68l.57.11.57.46.35.34.45.34.46.46.34.34.35.46.45.46.35.46.23.34.34.46.46.57.34.57.46.8 2.85 4.91.58 1.03 1.25 2.18 1.95 3.2.68.91-.23 7.2.23.46v.69l-.11.57-.35 1.14-.57 2.4-.23.8-.91 4.23-.69 2.74-.8 3.09-.11.34-.11.35-1.03 2.28-.58 1.15.69.57.8.45 1.14.46 2.86.8 1.72.46h.22l.12.34-.12.23 1.03.23 4.57 1.37-.45 1.94-.35 1.15-.57 2.05-.23 1.03-1.25 5.03-1.15 4.35-.34 1.48-1.71-.45-3.32-.8-4.46-1.15-1.25-.34-2.06-.46-2.17-.57-4.23-.91-3.43-.8-.34-.35-10.06-1.25-.8 3.2 1.83.45 6.63 1.6 9.37 2.29 2.06.57 9.71 2.29.57.23 1.72.34.8.23 2.28.57 2.4.57 6.86 1.72 5.95 1.48 3.88.92 1.26.34h.57l.92 1.71 6.4 1.49 36 68.7-1.71 1.15.45.68.46.69.46.8 2.63 4.91 1.71 3.43 5.6 10.63 10.4 19.67.69 1.14-1.26.8-1.6.91-2.51.92-8 2.86-10.86 4-4.69 1.83-2.17.8-2.29.45h-.8l-1.37-.23-2.28-.68-4.58-1.03-4.91-1.49-.69-.45-1.14-1.26 1.94 3.89-3.65 14.17-3.78 14.75-1.25 5.25-1.49 5.61-.57 2.4-.57 3.08-2.52 10.41v.22l-.11.58-.34 1.37-2.86 9.37-2.06 8.12-.34 1.03-1.72 7.2-.57 1.94-2.06 8.23-.11.69-.23.68-1.14 4.35-3.66 14.51 3.54.8 3.78 1.03 14.63 3.66 3.77.92 1.48.45 4.81 1.15.68.23 4 1.14 14.06 3.54-.57 2.86v.57l-.23 1.03v.46l-.69 2.63-1.25 5.14-.12.23-.91 3.66-.8 3.08-.69 3.32-.11.68-.23 1.26-.34 1.03-1.26 5.6-2.17 8-2.06 9.03-.46.46-.23.57-.8 3.43-.57 2.52-.45 1.6-13.38-3.09-15.08-3.88-6.52-1.72-10.63-2.97-5.6-1.49-2.51 9.95-1.38 5.48-.45 2.06-.92 3.32-1.37 5.37-.69 2.97-1.02 3.89-4 16.23-2.18 8.35-2.05 8-2.75 10.97-.34 1.26-1.49 5.83-1.14 4.8-1.83 7.09-.91 3.43-1.72 6.86-1.03 4.23-1.25 4.68-2.29 9.38-11.54 45.49-.57 2.52-.35 1.25-.68 2.4-.69 2.63-1.14 4.81-.23.8-1.03 3.65-.68 2.86-.46 1.72-1.14 4.68-.92 3.43-.8 2.97-1.03 4.01-1.03 4.11-1.25 5.14-1.15 4.46-1.03 4.35-1.02 3.65-1.26 4.81-1.03 4-1.26 5.37-.34 1.37-.57 2.17-.57 2.18-1.03 4.22-.46 1.6-.57 2.41-.92 3.54-1.02 4-.8 3.43-.92 3.2-1.48 6.4-.46 1.83-.69 2.4-.45 2.17-.35 1.15-.23.8.58.23 24.8 6.05 25.03 6.29.69.23 24.34 6.06 12.46 3.2 12.57 3.09 1.15.34-.23.8-1.72 5.83-6.51 23.2-2.86 10.06-9.49 33.27-9.6 33.26-2.06 7.43-2.74-.8-21.26-5.14-21.26-5.49-5.71-1.37-13.15-3.31-15.43-3.78h-.57l-22.06-5.71-30.63-7.66-19.77-4.92-9.61-2.4-13.37-3.43-3.66-.91-12.57-2.97-11.2-2.86-9.14-2.29-18.18-4.68-11.54-2.86-11.43-2.86-50.52-12.57-2.4-.58-30.41-7.65-17.6-4.35-48.58-12.23-16.45-4.12-9.95-2.4-18.86-4.8-6.17-1.48-6.86-1.72-22.06-5.6-21.37-5.26-1.15-.34-39.2-9.95-12.12-3.08-10.85-2.75-40.81-10.4-19.89-5.14z" stroke-linejoin="round"/></defs><use xlink:href="#j" fill="#6bacaf" stroke="#6bb4d2" stroke-width="5.76"/><defs><path id="k" d="M1607.73 1483.32l1.38-4.12-4.23-.91v-.46l-6.52-1.48-3.88-.92-1.49-.34-.34-.12-1.03-.34-2.17-.46-1.03-.22-2.63-.69-4.57-1.14-1.95-.46-2.05-.46-4.35-1.14-2.97-.8-1.14-.34-1.37-.35-.35-.11-1.83-.57-.68-.12-.57-.11-1.15-.34-.57-.12-.34-.11-1.14-.35-1.49-.57-.91-.23-.69-.11-1.6-.34-.68-.12-1.72-.46-5.03-.91-2.51-.57-1.95-.46-2.97-.68-10.06-2.63-2.74-.69-7.89-2.17-17.37-4.46-3.77-1.03-5.6-1.48-2.75-.8-12.45-2.75-6.18-1.48-6.28-1.49-7.66-2.17-.92-.23-3.42-.8.68-2.86.69-3.09.8-3.42v-.58l1.94-7.77 1.72-7.2 1.14-3.77 2.17-8.58 1.49-5.71 1.37-5.49 1.03-3.89.8-3.08.45-1.83 1.72-6.97 1.26-5.38.68-2.51 2.4-9.15v-.34l.34-.91.46-1.72 1.14-3.77 2.4-9.49.8-2.86.58-2.17 1.25-5.03 1.38-4.91.22-1.26.12-.57.46.11 1.71.46 10.29 2.74 3.2.8 6.63 1.72 4.91 1.25 2.74.69 6.86 1.71 6.4 1.6 4 1.15 1.15.23 1.14.34 1.37.23 1.94.46 3.43.91h.57l1.03.34 1.15.35 1.48.34 1.03.34.69.23 13.14 3.2 2.86.92.46.45.45.12.57.11 2.75.69.46.11.57.12 2.05.45.8.23.46.12 2.52.68 5.83 1.49.45.11.8-.34 2.52.8h.45l.46.11.92.23 4.34 1.15 3.54.8.69.11 5.83 1.49 4.91 1.14 5.15 1.26 3.2.91 3.2.57 3.2.8 3.08.8 3.32.8 3.2.8 3.31.8 3.32.69.57.23 2.63.57 3.08.8 3.2.8 3.2.8 3.21.8 3.2.69 3.31.8 3.2.8 3.2.8 3.2.68 3.2.8 3.2.69 2.97.68 1.26.35 2.4.57.23.11 5.03 1.15.8.23.57.22 1.14.23 2.18.23.91.23 5.26 1.14 5.37 1.26 7.77 1.94 2.52.69 7.31 1.94 3.66.92 2.63.68 1.71.35 1.95.45 5.71 1.38 2.74.8 1.6.34.46.11 1.26.23 1.6.46 4.69.91 1.6.46 4.8 1.26 2.4.57.91.23 9.49 2.17 6.4 1.6 1.03.34 1.94.57 1.14.23 2.29.46.68.23.92.23.68.23 2.86.8.12.57 1.94 7.77-.23.92-1.6 6.4-1.6 6.28-2.17 8.12-2.63 10.63-.57 2.52-.23 1.14-.23 1.26-.91 4.11-.12.57-.34 1.38-1.26 4.57-.23 1.03-.34 1.37-.11.46-.12.34-.23 1.14-.45 1.95-1.03 4-.8 3.08-.92 3.66-.91 3.54-.8 3.32-1.03 4-.91 3.43-1.03 4.34-.46 1.72-.11.68-.23.92-.23.46-.34 1.48-.35 1.15-.23 1.25-.22.69-.35 1.14v.34l-.23.8-.11.58-.57 2.05-.23.8-.34 1.6-.8 2.86-.12.35v.34l-.23.8-.22.57-.46 2.17-.34 1.26-1.38-.34-1.37-.35-.46.12-.8-.12-2.17-.57-1.71-.46-3.89-.91-1.03-.34-2.74-.69-4.8-1.26-4-1.02h-.34l-.35-.12-1.25-.34-1.38-.46-2.4-.57-.45-.23-1.6-.23-3.43-.8-.23-.11h-1.03l-1.03-.35-.34-.11-2.63-.69-5.14-1.25-1.6-.57-2.52-.69-1.48-.34-4.12-1.03-2.74-.57-2.52-.69-1.03-.23-.68-.11-1.72-.46-2.51-.69-3.2-.68-4.46-1.14-.68-.23-1.6-.35-1.6-.45-1.49-.35-2.29-.57-1.02-.23-1.95-.57-.46-.11-.68-.12-3.2-.8-3.09-.68-.45-.12-2.86-.8-.8-.23-1.72-.34-.57-.23-1.6-.34-.34-.11-2.63-.69h-.34l-.23-.12-1.03-.34-.69-.11-2.85-.57-3.2-.92-3.2-.68-3.78-.92-1.71-.46-.8-.22-1.26-.46-3.2-.92-.91-.23-1.15-.34-2.17-.57-1.25-.46-2.52-.45h-.57l-1.14-.35-.8-.11h-.58l-.34.23-.34.11-.46.46-.68.34-.46.34h-1.03l-.34-.11-.35-.11-.57-.23-9.26.57z" stroke-linejoin="round"/></defs><use xlink:href="#k" fill="#6bacaf" stroke="#6bb4d2" stroke-width="5.76"/><defs><path id="l" d="M2337.08 2024.82l-19.2-4.69-20.46-5.14-11.43-2.86.11-.34.12-.69-9.83-2.52-35.55-9.25-5.15-1.38-8.22-2.05-6.41-1.72-.8-.23-4-1.03-6.51-1.71-1.14-.23-11.89-3.09-11.66-3.08-.57-.12-.34-.11-1.38-.34-14.74-4-7.2-1.83-8.12-2.18-13.37-3.65-3.54-.92-2.52-.68-.91-.23-13.83-3.66 2.28-9.95 1.83-7.43.69-2.28.57-1.49.8-1.71 1.71-3.78.35-.8.23-.22.68-.92.92-.8 2.28-.91 1.6-.35h2.4l1.15-.22.8-.23 1.25-.69 2.4-1.71 1.15-1.26.57-.69 2.74-4.23 2.52-3.2 1.02-1.03 1.38-1.14 1.6-1.26 2.17-1.14 2.06-1.14 1.94-1.15 1.37-.8 1.26-.91 1.25-1.37 1.38-1.72 1.14-1.71 1.14-2.17.8-1.49-11.31-2.63-.69-.46-3.66-3.43-.45-.45-4.46-4-9.49-8.58-1.03-.8-.68-.23-.8.12-4.46 1.6-1.94.11h-1.6l-1.49-.11-.46-.23-.34-.46-1.6-1.94-1.03-.92-.68-.34h-.35l-1.94.92-5.37 1.71-1.15.46-2.74 2.06-3.89.22-.57.12-2.51 1.83-4 3.43-.92.45 1.38-5.83.8-2.97 1.82-7.2 1.72-6.74-.12-.58.12-.8v-.8l.57-2.28.57-2.17.34-1.26.12-.34 1.26-5.15 3.54-14.17.69-2.86-11.78-2.29-5.83-1.03.12-1.03-1.72-.57-6.4-1.25-25.6-4.81-1.6.46-2.17-.46-9.95-1.71-4.34-.69-1.71-.45-6.41-1.49-6.74-1.03-7.66-1.6-5.94-.91-3.66-.92-1.48-.45.8-2.98 3.08-12 .57-2.06.35-1.14 1.37-5.14 1.26-5.03.8.22 6.4 1.83 6.05 1.72 10.41 2.51.8.23.45-.23.12-.11.11-.12.12-.34 3.54-13.37-15.09-3.89-.23-.11-.11-.12-.12-.11-9.6-2.29.35-.91 1.14-4.46 2.28-8.69.35-1.14 1.26-4.8.34-1.03 1.14-4.8.57-2.4.12-.12 1.25-5.37.35-1.37.11-.35.34-1.25.69-2.29.23-.57.57-1.94.23-1.03.34-1.15.12-.57.57-1.83.8-3.43.91-3.43.23-.57.69-3.08.91-3.2.92-3.43.22-.92.8-2.86.92-3.54.11-.34.12-.57.91-3.43 1.03-3.66.91-3.55.92-3.42.91-3.43.92-3.55.34-1.6.69-2.63.8-2.74.22-.92.23-1.02.57-2.98.69-2.28.69-2.86.45-1.94.58-2.29 1.48-6.17 2.06-8.23.91-3.66.69-2.63.23-.91.45-1.72.35-1.6.11-.23.92-3.54.91-3.55.91-3.54.92-3.54.11-.69.8-2.97.46-2.06.57-2.29.69-2.74.46-1.6.34-1.37 1.03-4.23 1.37-5.37.34-1.37.12-.46.11-.34.23-1.15.57-1.71.23-1.03.68-2.4.12-.23.11-.69.46-1.48.34-1.26.23-.91.46-1.38.23-1.03.23-.57.8-2.63.68-2.28.23-1.03.34-1.14 1.26-4.46.46-1.6.34-1.26.23-1.03 1.03-3.43.34-1.37.34-1.14.58-2.52.22-1.03.12-.34.23-1.14.23-.92.34-1.14.11-.46.23-.57 1.14-4.69.23-1.6.12-.68 1.71-7.2 1.37-5.61.12-.68 1.25-5.26.46-1.6 1.03-3.89.69-2.4.23-1.14 1.14-4 .8-3.2v-.12l1.14-4.57.57-2.51 2.86-10.29 1.26-5.72.23-.68 1.37-5.72.91-4 .46-1.71.34-1.49.12-.23 3.31.92 5.03 1.37 3.32.8 13.71 3.31.12-.57.91-3.43 1.94-7.54.69-2.63 1.14-4.35.12-.45 1.6-5.49.57-2.4 1.03-3.89.91-3.66.92-3.77.34-1.26.68-2.51 1.03-3.66.92-3.54 1.48-6.06.12-.46.11-.46.8-3.08 2.52-9.72 1.94-7.77 2.06-7.55 1.48-5.71 1.37-5.37.46-2.06.92-3.55 1.48-5.37 1.14-4.46v-.11l.12-.57-.12-.35-.11-.45 2.63-8.8.57-2.06.8-2.75-25.15-7.88-.45-.12-.35-.11 3.66-14.29 3.77-14.4.69-2.52.46-1.94.34-.8.11-.35.46-1.37.23-.57.23-.68.34-.69.57-1.03.69-1.37 1.26-1.94.34-.46.46.11.45.23 2.18.46 20.91 5.49 2.63-9.84 2.29-8.68.57-2.06.11-.46.12-.23.23-.11 2.05-.69h.57l2.4-.91 5.38-2.4 1.71-.57.69-.12 1.03-.34 4.57-1.72 2.86-1.94.57-.34.34-.12.34-.11 2.52-2.4.68-.92 2.75-3.65 1.71-3.09.91-2.06.69-2.28 1.49-5.15.23-1.03.11-.45h.46l5.71 1.71 5.37 1.37 2.63.69 8 2.17 4.23 1.26 3.66 1.14 1.94.46 10.29 2.74.46.12 1.25.45 7.55 1.95.46.11.34.23-.46.11-1.14 4.35-.34 1.03-.12.68-1.03 3.55-.57 2.05-1.48 5.49-.23 1.26-.12.46-1.71 6.85-.57 2.06-.8 3.09-.69 2.51-.23 1.15-.11.45-.12.8-2.97 12.69-1.14 4.12-1.14 4.34-.12.12v.22l.34.12 12.12 2.97.91.23 2.98.69 1.37.45 1.94.57 1.49.35 2.85.68 2.18.57 3.42.92 2.63.68 2.4.58 1.03.23.92.34 2.17.34.46.12h.11l.23-.12h.11l.12-.11 2.74 1.03 8.12 3.08.45-1.6.69-2.51v-.46l.11-.69 1.37-5.03 1.6-6.51 1.72-6.17 1.71-6.41 1.6-6.51 1.6-6.4 1.72-6.29 1.71-6.4 1.49-6.18.11-.57.12-.57.8-3.43.34-1.37.34-1.49.35-1.37.45-1.48.46-2.06.8-2.86.34-1.6.8-2.86.46-2.05.69-2.75.91-3.88 1.03-4.12.57-2.4 1.72-6.4.45-1.95.69-2.74.46-1.71.57-2.4 1.03-4.01 2.85.69 2.18.57 2.97.8 3.31.8 1.6.35 1.6.45 1.83.46 2.74.69 3.2.8 2.29.57 2.06.45 4.46 1.26 2.74.69.23.11.23.23.57.46 1.14.57 1.49.46 2.74.57 1.26.46 4 1.02 2.28.58.69.23.11.34-1.83 6.74v.57l.58.8.45.58.35.57 1.14 1.71-1.03 2.63-9.49 35.9 2.06-.58 4.8-1.14 14.17-3.09 1.61-.57 1.6-.91 1.94-1.26 1.26-1.14 1.14-.8.91-.12 1.15.23.8.23.45-.91 1.83-5.26.46-1.49.57-2.17 1.94-7.77 2.63-10.06 1.6-5.95 13.15 3.32 4.57 1.14 2.51.69 4.92 1.25.11.8-.11.35-1.26 4.91-2.86-.68-2.4-.57-2.17 8.57-3.77 14.29-.91 3.88-.35 1.26 2.97.12h.92l.91.11.46 1.03.57 3.54-.8-.57-.8-.23-.57.92-2.51 3.88-.58 4.8-.45 6.98-1.03 3.88-.57 2.18-.92 3.77-.11.34-1.37 5.15-2.75-.69-2.4-.69-1.37 5.95-2.28 8.46-1.03 3.88-.23.92-1.94-.12-1.03 1.15-2.98 1.25.23-1.14.12-.34.11-.46v-.57l-.23-.23-.11-.11-.23-.12-9.26-2.28-4.46-1.26h-.34l-.23.11-.23.12-.22.23-.12.22-.23.35-.23 1.03-1.94-1.38-2.17-.57-7.89-3.65h-1.03l.58-2.63-5.15-1.95-.68-2.05-2.98-.81-.22-.11-.23-.23-1.72.57.57-3.43-1.71.12-1.49 5.6-6.05 24.01-1.6-.35-.8 3.09-1.26 4.91-1.03 4.35-.46 1.83-.23 1.03-.11.45-1.6 6.52-1.14 4.91-1.03 4.81-.12.68.92-.23 8.68 2.4.23-.11.23-.12h.46l3.31.81 5.03 1.37 7.2 1.94 2.98.8 8.45 2.17 4 1.03 2.98.8 7.08-.46 1.37-5.25.8-3.43.8-2.4.58-2.29 3.08-1.49v-.34l.12-.34.34-1.15 1.83-7.2.46-1.83.22-.8.23-.45.23-.23.46-.46.68-.57-.22-.69-.23-.57v-1.26l.11-.8.34-1.25 1.49-5.83 1.26-4.69.11-.34.12-.35.22-.11.12-.23h.23l.45.12 14.86 3.77.8.34.69.23.46.23.34.34.46.34.45.35.35.45.23.35.22.34.8-.46.35-.23.57-.22.46-.12.45-.11h.35l.57.11.45.12 1.72.34.23-1.15.23-.8 19.88 4.92 1.83.57.35.12.22.34.23.57.12-.57.91-3.2.12-.46 1.14-5.14 1.94-6.75 1.49-5.94.23-.69.91-3.31 2.52-10.75.45.12 2.52.68 1.03.34 1.37.35 7.08 1.6 2.52.68 8.23 2.06 3.77 1.03 8.57 2.29 9.6 2.4 6.18 1.71-1.15 5.72v.23l-1.03 2.51-.22.69-.23 1.14-.57 2.29 2.51.8 5.6 2.17 1.83.46 6.29 2.28.57.23 1.48 1.14 1.26 1.15 5.03 5.71 1.26 1.37 3.2 3.55 3.08 3.66 5.26 5.83 1.83 1.71 5.94 6.4-.34.92-1.37 5.6-1.14 4.23-.58 2.4-.57 1.94-.68 2.74-.23 1.03-.57 2.18-.8 2.85-1.15 4.8-.68 2.63-2.29 8.58-3.2 12.69-2.4 9.48-2.06 8.35-1.82 6.97-.12.34-.11.58-1.37 4.57.11 1.14-.34 1.37-.35 1.26-.91 2.86-.91 3.89-1.15 4.57-.91 3.54-.69 2.4-.57 2.17-.23 1.26-.68 2.4-1.03 4.23-.46 1.83-.91 3.32-.46 1.94-.92 3.66-.57 2.28-.57 1.95-1.48 6.17-.58 2.29-3.88 15.54-.69 2.29-.34 1.26-1.37 5.25-.69 2.98-.46 1.6-2.17 8.91-3.54 13.84-.8 3.31-.34 1.14-.23 1.03-2.29 9.26-4.46 17.72-6.51 26.18-.69 2.86-1.94 7.65-2.74 10.98-2.4 9.94-.35 1.72-3.88 15.32-1.72 6.17-.68 2.86-.57 2.05-.35 1.49-1.48 5.6-1.15 4.46-1.37 5.03-2.51 9.37-1.14 4.58-1.15 4.57-.23 1.03-1.03 3.54-1.6 6.06-1.48 6.06-1.37 4.91.23.69-.69 2.4-.91 3.43-.35 1.37-.68 3.32-.8-.23-2.52 9.6-1.14 4.34-.23.92-.57 2.4-1.03 3.88-.91 3.43-2.06 7.89-.57 2.06-.8 3.09-1.26 4.91-.34 1.72v1.02l-.12.69-1.48 5.26-1.26 5.14-1.03 4.12-1.71 6.51-.69 2.63-1.6 6.52-1.83 6.74-3.2 12.46-3.31 12.81-.23 1.14-.35 1.14-.68 2.98-.69 2.51-.91 3.66-1.14 4.23-1.03 4.34-1.6 6.06-.46 2.29-.34 1.25-.69 2.52-.57 2.63-.34 1.14-2.52 9.95-10.74 42.75-1.15 4.23-.34 1.37-.57 2.29-.91 3.54-.69 2.74-.91 3.89-6.18 24.69-3.08 12.35-3.2 12.34-1.15 4.46-.11.57-.11.46-7.66-1.94-34.18-8.46-9.14-2.4z" stroke-linejoin="round"/></defs><use xlink:href="#l" fill="#6bacaf" stroke="#6bb4d2" stroke-width="5.76"/><defs><path id="m" d="M1659.74 1369.81v-.23l.23-1.26 3.54-13.15 3.55-14.06 2.05-7.65 1.6-6.29 1.83-7.32 1.72-6.63.11-.57 3.89-14.75 3.54-13.94 3.77-14.06 1.6-6.4.69-2.86 1.14-5.15.34-.57.35-1.14.45-2.17 1.03-3.43.92-3.66.91-3.43 1.83-7.2 1.83-7.2 1.94-7.09 1.83-7.09 1.94-7.2.46-1.83 1.14-4.57.12-.57 1.26-5.49.34-1.14.23-.92.34-.57.34-.46.35-.34-.69-.57 1.14-4.23 1.49 1.6 1.37 1.49 3.2 3.88 3.89.69 5.37 1.03 2.17.46-1.6-2.63-2.4-3.78-7.54-11.66-5.15-7.77 4.12 2.52-.34-.58-.23-.34v-.57l.11-.46.12-.68.68-2.75.34-1.03 1.38-5.48.8-2.75.68-2.74 1.49-5.72.68-2.74.57-1.94.35-1.37 1.25-4.58 1.03-3.77.12-.57 1.14-5.26 1.72-6.06 1.02-3.54.58-2.63.57-2.06 1.83-6.63.8-3.2 1.14-4.34 1.94-7.2.8-3.09 1.03-3.89.34-1.37 2.06-8.12 1.49-5.71 1.71-6.52 1.49-5.71.23-1.15.57-2.17 1.03-3.77 1.37-5.6 1.03-3.77.8-2.75.68-2.4.57-2.28 1.03-4.23.23-.92 9.03 2.29 3.66.91 1.6.46 5.26 1.26 5.48 1.37.23-.69.12-.34 1.14-4.34.57-2.52.91-3.66 2.29-8.57 1.14-4.34 1.15-4.35-.69-.45.11-.12.12-.23.46-2.06 1.25-4.68 1.83-7.09.69-2.29.91-3.42.12-.58v-.34l-.12-.23.92-.34 1.71-6.86.12-.57.22-.8.46-1.37 1.14-4.12 1.03-3.2.8-2.86 2.06-7.88 1.94-7.43 3.32-12.69.34-1.6 1.83-6.75 1.83-6.86.23-.68 1.94-8 .23-1.15.57-2.17.8-3.31.92-3.43 2.74-10.41.8-3.65.68-2.29 3.55-13.95.68-2.28 1.38-5.38.22-.91 1.72-6.63 1.94-7.66.46-1.6.57-2.4 1.71-6.4.46-1.83.34-1.49.69-2.4.8-3.08.57-2.52.46-1.49.34-1.48.12-.57.22-.57v-.12l.46-2.17.12-.57.8-2.86.11-.69.23-.8 1.03-3.65.34-1.49.34-1.49.12-.34.34-.11.69.34 15.2 3.89 12.34 3.2 7.78 1.83.91.11 12.57 3.09 1.37.34.58.11.34.12-.12.68-2.28 8.46.34-.23.69-.57 1.6-6.06.11-.11.23-.23h.57l4.69 1.03 4.34.69 3.32.68 3.08.46 2.63.46 1.6.34 1.6.34.69.12 2.74.68 3.2.69.46.11 3.43.92 3.54.91-.23 1.03 2.06.8 3.43-.91 5.37 1.71 1.71.12.12-.69 1.37.23-.11.46v.34l-1.38 5.26-.91 3.31-.8 2.86-.8 3.2-1.14 3.89-.35 1.37-2.62 9.94-1.15 4.81-1.14 4.34-.46 1.6-1.26 4.57-1.71 6.52-.11.57-.58 2.4-1.25 4.8-.69 2.52-1.14 4.57-.92 3.54-.11.34-2.52 9.72-.8 2.97-.8 3.2-.34 1.26-.57 1.83-1.83 7.09-.91 3.54-2.4 9.38-.46 1.48-.23.69v.23l-.23.8-.8 3.08-.91 3.32-.57 2.28-.92 3.43-.68 2.63-.35 1.49-.45 1.71-.8 2.86-1.03 4.23-.57 1.94-.92 3.78-.57 2.28-3.31 12.58-1.49 5.37-1.03 4.34-.34 1.03-.12.46-.68 2.63-.69 2.51-1.6 6.4-1.26 4.69-1.25 4.8-1.37 5.6-.92 2.98-.34 1.25-.92 3.55-.11.8-.69 2.63-.8 2.85-.45 1.26v.57l-.57 2.18-1.38 4.91-.11.46-1.03 4.34-.23.8-.11.46-.8 2.97-1.37 5.72-.69 2.4-.46 1.6-.23 1.03-.57 2.05-2.97 11.66-.11.35-3.66 14.29-3.43 12.91-.34 1.26-.12.57-3.54 13.49-.46 1.95-1.48 5.71-.69 2.63-1.03 4-.23.69-.91 3.54-1.6 6.06-1.03 3.89-2.17 8.68-1.49 5.15-.23.91-1.02 4.12-.23.91-1.6 6.06-.8 3.09-1.72 6.4-1.94 7.54-.12 1.03-2.74 10.86-.8 2.52-.57 2.51-1.94 7.32-.23.68-.46 1.95-.34 1.14-.23 1.14-.46 1.49-.8 3.31-.46 1.95-1.02 4.11-.92 2.97-.46 2.18-.22.8-1.03 4.23-.12.34-.57 2.06-.8 3.2-1.37 5.03-.11.57-5.15 20-.8 2.98-.11.34-.12.57-.57 2.4-.8 2.74-.68 2.63-1.72 7.09-1.83 7.2-1.83 7.09-1.82 7.09-1.83 7.2-1.15 4.34-.8 2.86-.68 2.86-.69 2.74-.34 1.49-.23.68-1.71 6.52-1.72 7.09-1.83 7.2-1.94 7.2-1.37 5.6-.69 2.86-.68 2.51-.8 3.2-.35.92-.8 3.43-2.4 9.26-.23.46-3.77-1.03-.11-.46-1.83-7.32-.69-2.4-1.6-6.28-4.11-15.78-2.17-8.34-.46-2.06-1.37-4.69-1.26-.23-.23-.11-.11-.12h-.12l-.57-.57-.23-.23-.34-.34-.57-.23-.8-.23-.92-.23-5.48-1.48-.8 3.2-1.03 4-1.6 6.4-.12.23-.11.23-.11.11-.35.12-5.03-1.15-4.57-.8-2.74-1.14-1.72 7.32.12 8.34.11.46.12.46v2.05l-.23.92-.23 1.26-.46 1.6-1.14 4.34-.46 2.06-.11.34-1.26-.23-.46-.11-1.6-.34-2.74-.8-5.71-1.38-1.95-.45-1.71-.35-2.63-.68-3.66-.92-7.31-1.94-2.52-.69-7.77-1.94-5.37-1.26-5.26-1.14-.91-.23-2.18-.23-1.14-.23-.57-.22-.8-.23-5.03-1.15-.23-.11-2.4-.57-1.26-.35-2.97-.68-3.2-.69-3.2-.8-3.2-.68-3.2-.8z" stroke-linejoin="round"/></defs><use xlink:href="#m" fill="#09757a" stroke="#097d9b" stroke-width="5.76"/><defs><path id="n" d="M2042.3 1103.46l-.46-.12-.91-.45-.92-.46-.68-.34-3.32-.92-.11-.11-3.32-.8-.45-.12-1.49.12-1.26-.12-1.37-.57-.91-.57-.57-.23-9.26-2.51-.34-.12-9.03-2.28-6.52-1.6h-.11l-.57-.12-9.61-2.28.46-1.26-12.57-3.09-.34-.11-.35-.12-2.05-.45-1.83-.58-1.49-.34-9.83-2.51-10.06-2.52-1.14-.34-7.66-1.94-1.26-.35-3.2-.8-1.94-.46-1.83-.45-.8-.12-.11-.11-4-.92-1.37-.34-2.18-.57-.34-.11h-.23l-4.34-1.15-3.54-.91-2.29-.57-1.6-.46-.34-.12-1.49-.22-1.37-.35-.92-.23-.57-.22-1.03-.35-1.6-.34-.45-.11-.57-.12-.58-.23-1.02-.23-.92-.22-.34-.12-1.72-.34-1.71-.46-1.03-.34h-.34l-.69-.23h-.34l-1.26-.46-.8-.11-1.6-.34-.46-.23-1.82-.35-.23-.11-.35-.12-5.03-1.25-.57-.12-3.31-.91-6.06-1.49.11-.45-.57-.46-.57.11.23-.8 1.03-4.34.11-.46 1.38-4.91.57-2.18v-.57l.45-1.26.8-2.85.69-2.63.11-.8.92-3.55.34-1.25.92-2.98 1.37-5.6 1.25-4.8 1.26-4.69 1.6-6.4.69-2.51.68-2.63.12-.46.34-1.03 1.03-4.34 1.49-5.37 3.31-12.58.57-2.28.92-3.78.57-1.94 1.03-4.23.8-2.86.45-1.71.35-1.49.68-2.63.92-3.43.57-2.28.91-3.32.8-3.08.23-.8v-.23l.23-.69.46-1.48 2.4-9.38.91-3.54 1.83-7.09.57-1.83.34-1.26.8-3.2.8-2.97 2.52-9.72.11-.34.92-3.54 1.14-4.57.69-2.52 1.25-4.8.58-2.4.11-.57 1.71-6.52 1.26-4.57.46-1.6 1.14-4.34 1.15-4.81 2.62-9.94.35-1.37 1.14-3.89.8-3.2.8-2.86.91-3.31 1.38-5.26v-.34l.11-.46.69.11.57.12 7.54 1.14 2.74.34 2.4.46.92.23 1.83.34 3.2.92 4 1.14 3.31.8.46.11 1.49.23.34.12 1.71.45.69.12.34.11.57.12 1.72.45 1.6.46 2.4.57 1.83.46 8.91 2.29 2.06.57.57.11.57.23 1.6.57 9.72 3.32 7.43 2.4 13.94 3.66 6.4 1.48 8.35 1.95.57.22 1.37.23.34.12.69.23 6.97 1.71 20 5.03.35 1.71.11-.11.23-.11h.8l6.74 1.71 1.15.23 7.08 1.83.8.23.8.34.46.11.57.46 1.6 1.26.57.23.58.11.34-.11.23-.12.23-.11.11-.12v-.11h.11v-.11l.69-.58.34-.68.8.23.57-.69.23-.57 5.26 1.37 3.66.92 13.14 3.31 5.83 1.49 6.97 1.71.46.12.46.11 4.23 1.14 4.8 1.15 3.88 1.03.58.11.68.11-.23.92-.11.68-.23.69-.11.23.57-.12h.57l14.74 4.23 1.95.35 3.2.57 4.68.8 4.58.68 3.42.58.23.11h.12l.11.12.12.22.57-1.37 1.94.34 3.43.69 8.23 1.83 2.86.8.23-.69.22-.45 3.55.91.8.12 1.14.34 2.06.34 3.08.8 5.49 1.37 13.83 3.55 1.14.34 2.63.69 1.83.45.92.23 5.37 1.26 2.85.69 4.81 1.25.91.12.57.23 1.03.22 29.83 7.89 4.12 1.14 1.6.35-.12.57-.11.69-.69 2.17-.23 1.03-.68 2.85-1.03 3.89-.23.8-.46 1.94-.34 1.38-.11.68-.58 2.52-.45 2.4-1.37 5.83-.69 2.74-.11.69-.69 2.97-.23.68-.11.8-.12.46-.11.46-.34 1.14-.8 3.43-.23.92-1.37 5.14-1.26 5.49-.46 1.83-.23 1.02-1.03 3.55-.11.23-.8 3.43-3.43 13.94-1.71 6.98-1.72 6.74v.23l-.11.57-.69 2.86-.46 1.71-.8 3.2-1.02 4.23-.58 2.52-.22 1.14-.35 1.49v.45l-.23 1.26-.11 1.03v1.14l-.11 1.15v1.14l-.12 1.14v.8l.12.92.11.8v1.26l.23 1.94.11.91.23.92.23 1.26.69 2.62.34 1.26 1.03 3.55.23.91.22 1.26.12.45.11.46.12.69.11.91.23 1.15.11 1.48v2.29l-.11 1.26v1.02l-.23 1.26-.11.92-.57 2.63-1.49 6.17-5.26 18.17-.68 2.52-.46 1.26-6.52-1.72-37.37-9.83-2.06-.57-2.29-.57-1.25-.23-.35 1.14-.57 2.4-4.11 14.75-1.6 5.94.11.46v.34l-.23.69v1.03l.23.34.12.46-.12.46-.23.68-.22.34h-.46l-.23.46-.12.23v.11l-.45 1.38-.35.45-2.05 7.66-.12.46-.11.46-4.12 15.2-.22.91 5.71 1.38 1.94.45 1.49.35v.57l.11.34.12.23.11.11.12.23-.57-.11-.92-.23-.46-.11-2.17-.58-5.83-1.6h-.23l-6.63-1.71-.34 1.03-.23.23-.34.23-.23-.12-.46-.23-1.25-.8-1.03-.23-2.52-.68.23-1.03-.57-.23-4.69-1.14-6.97-1.83-4.23-1.15-4.34-1.14-.57-.11-2.74-.69-3.09-.8-4.8-1.26-5.37-1.48-6.52-1.6-6.28-1.72-5.95-1.6-6.63-1.6-6.06-1.6-3.08-.8-3.43-.91-5.72-1.49-6.51-1.71h-.34l-.46-.12-6.4-1.6-6.17-1.6-3.43-.91-.35.68-.11.23h-.57l-5.6-1.37-1.03.11h-1.03l-1.03-.22-1.03-.35-1.25-.68-1.15-.46-2.74-.69-3.09-.8h-3.31l-.23-.11z" stroke-linejoin="round"/></defs><use xlink:href="#n" fill="#09757a" stroke="#097d9b" stroke-width="5.76"/><defs><path id="o" d="M1843.31 1294.93l-19.89-4.46-2.86-1.02-1.6-.46-.34-.23-.46-.46-.11-.23h-.12l-.11-.11-.23-.23v-.23l-.23-.46v-.8h-.34l-.35-.11.12-.57.11-.34.8-2.98 5.15-20 .11-.57 1.37-5.03.8-3.2.57-2.06.12-.34 1.03-4.23.22-.8.46-2.18.92-2.97 1.02-4.11.46-1.95.8-3.31.46-1.49.23-1.14.34-1.14.46-1.95.23-.68 1.94-7.32.57-2.51.8-2.52 2.74-10.86.12-1.03 1.94-7.54 1.72-6.4.8-3.09 1.6-6.06.23-.91 1.02-4.12.23-.91 1.49-5.15 2.17-8.68 1.03-3.89 1.6-6.06.91-3.54.23-.69 1.03-4 .69-2.63 1.48-5.71.46-1.95 3.54-13.49.12-.57.34-1.26 3.43-12.91 3.66-14.29.11-.35 2.97-11.66.57-2.05.23-1.03.46-1.6.69-2.4 1.37-5.72.8-2.97.11-.46.57-.11.57.46-.11.45 6.06 1.49 3.31.91.57.12 5.03 1.25.35.12.23.11 1.82.35.46.23 1.6.34.8.11 1.26.46h.34l.69.23h.34l1.03.34 1.71.46 1.72.34.34.12.92.22 1.02.23.58.23.57.12.45.11 1.6.34 1.03.35.57.22.92.23 1.37.35 1.49.22.34.12 1.6.46 2.29.57 3.54.91 4.34 1.15h.23l.34.11 2.18.57 1.37.34 4 .92.11.11.8.12 1.83.45 1.94.46 3.2.8 1.26.35 7.66 1.94 1.14.34 10.06 2.52 9.83 2.51 1.49.34 1.83.58 2.05.45.35.12.34.11 12.57 3.09-.46 1.26 9.61 2.28.57.12h.11l6.52 1.6 9.03 2.28.34.12 9.26 2.51.57.23.91.57 1.37.57 1.26.12 1.49-.12.45.12 3.32.8.11.11 3.32.92.68.34.92.46.91.45.46.12.23.11h3.31l3.09.8 2.74.69 1.15.46 1.25.68 1.03.35 1.03.22h1.03l1.03-.11 5.6 1.37h.57l.11-.23.35-.68 3.43.91 6.17 1.6 6.4 1.6.46.12h.34l6.51 1.71 5.72 1.49 3.43.91 3.08.8 6.06 1.6 6.63 1.6 5.95 1.6 6.28 1.72 6.52 1.6 5.37 1.48 4.8 1.26 3.09.8 2.74.69.57.11 4.34 1.14 4.23 1.15 6.97 1.83 4.69 1.14.57.23-.23 1.03 2.52.68 1.03.23 1.25.8.46.23.23.12.34-.23.23-.23.34-1.03 6.63 1.71h.23l5.83 1.6 2.17.58.46.11.92.23.57.11-.12-.23-.11-.11-.12-.23-.11-.34v-.57l.23.11 1.71.46 2.06.68.8.12.34.11.35.12.34.11 1.71.34.57.12.58.23.57.11.45.12 1.61.34.45.11.92.35 1.48.34.23.11 1.72.46.45.8.23.57-.91 3.2-.92 3.55-.45.45v.23l-.12.12-1.14 4.23-1.14 4.68-.8 3.2-.58 2.4-1.48 5.95-.8 2.97-.57 2.63-.8 2.97-.69 2.63-.8 3.09-1.49 5.71-2.05 8.46-.92 3.55-.68 2.85-2.4 9.72-1.38 5.26-1.82 7.2-1.38 5.6-1.37 5.72-1.03 3.77-.45 1.94-1.6 6.4-.8 3.32-.12.46 6.4 1.94 6.75 1.72.8.22.91.23 2.63.8 6.17 1.72.46.23-.11.45-.23 1.03-1.49 5.15-.69 2.28-.91 2.06-1.71 3.09-2.75 3.65-.68.92-2.52 2.4-.34.11-.34.12-.57.34-2.86 1.94-4.57 1.72-1.03.34-.69.12-1.71.57-5.38 2.4-2.4.91h-.57l-2.05.69-.23.11-.12.23-.11.46-.57 2.06-2.29 8.68-2.63 9.84-20.91-5.49-2.18-.46-.45-.23-.46-.11-.34.46-1.26 1.94-.69 1.37-.57 1.03-.34.69-.23.68-.23.57-.46 1.37-.11.35-.34.8-.46 1.94-.69 2.52-3.77 14.4-3.66 14.29.35.11.45.12 25.15 7.88-.8 2.75-.57 2.06-2.63 8.8-.34-.46-.46-.34-.69-.23-17.37-4.57-.8.34-5.37-1.37-.46-.23-.23-.12-6.4-1.71-1.71-.46-4.35-1.14-5.37-1.49-3.2-.8-.23-.11-3.88-.92-.8-.22-8.8-2.29-2.52-.46-1.6-.57-1.83-.57-6.17-1.6-3.77-1.14-.57-.12-7.09-1.94-5.03-1.26-.68-.11-2.18-.46-.11-.12-3.77-.91-1.37-.46-1.83-.45-.8-.23-3.78-1.03h-.34l-1.03-.34-3.08-.92-6.97-1.83-3.78-1.14-1.37-.23-2.4-.69-4.46-1.14h-.45l-.35-.23-5.03-1.26-1.82-.45-2.29-.57-1.83-.46-.11.11-.46-.23-4.23-1.02-.57-.12-5.03-1.37h-.23l-5.14-1.37-.35 1.14v-.11l-5.37-1.38-5.37-1.37.11-1.03-5.14-1.25-.8-.23-7.77-1.94-10.75-2.63-2.97-.8-1.25-.23-2.06-.57-1.14-.23-2.29-.57-1.6-.46-2.29-.57-1.25-.35-4.46-1.14-1.37-.23-1.26-.34-5.37-1.37-2.4-.57-3.2-.92-3.2-1.03-3.89-1.14.23-.8-.46-.12-.23-.11-1.48-.34-.46-.12-5.37-1.48-.8-.23-4.92-1.37-8.11-2.29-.69-.11-3.66-1.03-.8-.23-7.54-1.94-6.63-1.83-1.14-.23-1.83-.46-2.74-.69-4.12-1.14-1.83-.11-3.66-.8-5.02-1.15-2.63-.91-.8-.34-2.86-.58h-.69l-1.83-.57h-.45l-1.83-.57-.34.57-1.83.12-.92.45-.45.46z" stroke-linejoin="round"/></defs><use xlink:href="#o" fill="#09757a" stroke="#097d9b" stroke-width="5.76"/><defs><path id="p" d="M2026.53 659.7l-1.15 1.48-.45-.45-.57-.58-2.75-2.62-1.37-1.38-.69-.68-.91-.92-.91-.68-.92-.69-1.03-.57-1.37-.69-.8-.22-.68-.23-1.15-.35-.91-.11-.69-.11-1.83-.12-1.94-.11-2.74-.23-1.26-.12-.8-.11-1.03-.23-1.83-.57h-.11l.34-1.6.12-.92-.12-.57-.11-.57-.35-.46-.57-.57-.8-.45v-.8l-.11-.81-.12-1.14v-.8l.23-1.03.57-1.03.58-.68.45-.34.92-.69 1.03-1.26.34-.46.68-1.71 1.03-2.86.69-1.6 1.03-1.6 1.48-1.71.8-.69 2.06-1.26 1.94-.57h.8l1.95.46 1.48.68 1.03.81 2.06 2.17.8.45.68.23.92.23 1.03-.11 2.4-.46.8-.34.46-.35.57-.57.45-.57.35-.8.34-1.26.23-1.48.34-1.49.23-.57 1.14-1.14 1.03-.46.69-.23 1.14-.57 1.49-1.03 1.37-1.6.68-1.14.69-1.72.23-1.26.46-2.4.34-1.14.68-1.03.46-.46 1.26-1.02.57-.23.57-.12h.57l.92.23.68.57 2.06 2.52 2.17 3.08 1.03 1.26.57.35.8.22 1.37.12h1.03l.92-.34.68-.35.57-.46.8-.8.58-.68.57-1.14.23-1.38-.12-2.85-.34-1.95-.12-1.37.8-3.66v-1.6l-.22-1.48 2.05-1.38 1.15-.91.57-.46.91-1.14.23-.69.57-1.48.23-.92.34-1.94v-.8l-.11-.91-1.49-5.95.23-.8.23-.8.92-1.49 1.37-1.71.57-.57.68-.46 3.55-9.26.23-.46.34-.57.11-.57.8-2.06.8-1.6.92-1.71 1.03-1.49 1.14-1.83.91-1.71 5.38-12.23.68-1.83.46-1.49.34-1.71.92-5.72.34-1.48.57-1.26 2.97-5.49.57-1.14.12-1.26-.34-1.26-2.52-2.97-39.55 35.55-24.46-17.37 1.15-.12 1.14-.34 1.94-.91 2.06-1.49 1.94-1.26 3.32-1.94 2.86-1.49 1.25-1.14 1.26-1.03 1.03-1.26.68-.91.69-1.03.34-.91.46-1.38.57-2.05.23-1.95 2.4-2.85 1.49-1.95 1.94-2.86 1.49-2.74 2.4-4.34 1.02-2.29 1.83-4.92 1.37-4.68 1.38-5.6.68-4.92-25.49 28.12-.57 1.72-3.88 1.37-3.55-.8-.57-.12-1.14-.22-.46-.46-1.37-1.37-.23-.23-.11-.23-.23-.23-.23-.23-.34-.23-.46-.34-.46-.23-1.26-.46-2.51-.8-1.6-.57-1.14-1.83 1.14-5.37.46-1.94.23-.57.22-.46.12-.34.23-.23.23-.35.45-.45.23-.23.12-.12.11-.22.11-.8.69-.23 2.17-1.49 2.63-1.49 7.09-4.34 1.14-.68 1.83-.81.91-.22 2.29-.58 2.29-.22h4l.22-.12.35-.34 2.05-3.54.8-1.38 3.55-9.37.46-1.26.22-1.6.23-2.63.12-1.48.11-.69-.91-.23-3.89-.68-4.57-1.03-4.12-1.03 18.63-71.9.92-2.4 1.37-2.4 3.2-3.89.92-1.6 1.02-1.6.69-1.26 2.06-3.66 3.2-5.71.91-.8.57-.35.92-.23 1.94.23 1.14-.45.23-.12v.12l6.4-2.18 1.03-.34 1.6-.91 1.72-1.15 14.28-10.28 4.58-2.98 5.83-4 2.05-1.71 13.83-9.72 7.66-4.91 3.66-2.98 2.28-2.51 1.26-1.6 5.26-7.55 2.74-2.85 1.49-1.26 1.94-1.14 2.29-1.03 1.14-.35 1.14-.91 1.83-1.6 1.72-1.94 6.17-5.83.91-.69 1.38-.91 1.48-.58 1.37-.23h1.37l1.83.46 6.4 2.17 2.86 1.38 2.63 1.6.91.91 4 5.72.69.8.69.34 1.25.46.8.11 2.4-.46 2.63-1.37 1.6-1.14 1.6-1.6 1.03-1.94 1.03-2.75 1.72-5.03 1.37-5.37.45-2.17.46-4.23.46-1.49.34-1.03.34-.68.58-.46 1.37-.69 1.83-.8.91-.45 1.26-.35 2.06-.23h2.62l16.46 2.75 1.6.46 1.95.11 1.83-.23 1.48-.23 1.49-.23 1.14.12 4.57 1.03 3.09-.23 7.08-1.14 2.29-.8 2.17-1.38.8-.8 1.26-1.71.91-.69 1.95-.8 2.17-.34 5.71-.8 4.35-.23 1.6-.11 3.54-1.03 1.72-.8 1.48-.92 1.26-1.03.68-.57 2.29-2.17 4-4.34 2.52-2.4 2.51-1.72 4.46-2.63 1.6-1.14 4.34-2.97 1.26-1.15 3.88-4.57 1.49-1.94 1.6-2.4 1.26-2.4 1.37-3.2 1.49-4.12 1.71-4.8v-.34l1.26-4.35 1.14-5.48.11-1.03.23-3.66.35-1.37.57-1.37.8-1.26.68-1.14.8-.92 2.75-2.74 1.14-1.26 1.49-1.83 1.71-3.2.57-1.6.8-2.97.69-4.92.57-3.77.57-3.66 1.94-14.29-.11-1.83-.34-1.48-.46-1.37-.92-1.83-.91-1.6-.91-1.26-1.49-1.72-2.86-2.97-.57-.8-.34-.68-.23-1.72.46-1.83.45-1.25 1.03-2.52 5.26-11.09 1.14-2.06 2.63-4.23.35-.45.45-.35.46-.11.57.11.8.69.57.69 1.6.23.8-.12.69-.34 7.66-4.35 4.68-1.83 7.2-1.71.23-.11 1.15-.69 1.48-1.03 2.74-1.48 4.58-1.61.8-.22h1.03l1.25-.23 1.72-.57.91-.35 1.14-.45 1.15-.35 5.37-2.51 1.83-1.15 1.83-1.48 1.94-2.17 1.03-1.37 4.23-5.61 2.4-3.65 4.8-6.41 3.08-3.54 5.15-3.77 5.6-2.29 3.31-1.03 3.32.69 2.17 2.17 2.63 2.17 3.89 1.95 2.97.68 3.77-.23.34-.11 2.29-1.03 4.91-2.74 9.49-5.49 1.26-.8 1.25-1.14 1.15-1.03 2.4-2.52.91-1.14.8-1.03 1.6-3.09.69-1.71.57-1.71.46-2.41.11-.8v-.8l-.11-1.02h.11v-.12l1.72-4.91 12.45 1.37 3.89.23 4.23-.12.57-1.94 11.43.68-1.83 1.38-.8.57-2.06 1.48-.45.46-1.6 1.26-1.72 1.48-.57.58-1.94 2.17-1.03 1.14-.8 1.03-.92 1.26-1.02 1.6-1.49 2.51-.46.8-.45.92-.46 1.03-.46 1.02-.46 1.15-.34.8-.46 1.48-.45 1.49-.57 2.06-.69 2.28-.91 4.01v.11l-.8 2.97-.81 3.09-.57 2.4-.91 3.54-.34 1.26-.35 1.49-.68 2.62-.57 2.52-.69 2.86-.8 2.97-.8 3.31-.46 1.61-.8 3.31-.8 2.97-.68 3.09-.35 1.37-.68 2.74-.92 3.43-1.83 7.43-1.48 5.61-1.03 4.45-1.03 4-.46 1.95-3.65 14.29-1.37 5.37-.69 2.86-.69 2.63-.34 1.6-.34 1.14-.35 1.49-.34 1.14-.23.8-.45 1.14-.46 1.37-1.03 2.29-.23.69-.34.57-.23.68-.34.58-.46.8-.46.91-.57.91-.46.69-.57 1.03-4.91 7.43-2.63 3.77-6.29 9.6-4.68 7.09-3.09 4.92-1.49 2.51-1.48 2.63-1.14 2.52-1.03 2.62-.46 1.26-.46 1.49-.68 2.51-.69 2.75.8.68-.23 1.72-.45 1.94-.69 2.17-.69 1.95-.68 1.94-.8 1.94-.57 1.15-.8 1.48-1.03 2.06-1.03 1.71-1.14 1.83-.92 1.37-.8.46-1.14 1.6-2.17 3.77-1.72 2.52-4 7.54 2.86 26.75.46 2.4 3.77 9.61-4.23 29.15-2.86-.58-.91-.34-.46.12-3.31-.8-7.43-1.72-.35-.11.8 2.97-3.31 1.71-8.57 4.12-2.29.34-15.09 2.4-.91.34-2.4.12-3.55-.57-2.74-.92-4.11-.34-4.92-1.03-3.43-.91-4-1.72-1.48 6.63-1.26 2.75-1.37 2.17-7.43 28.8-2.4 10.52-3.32 14.63-1.37 5.49-6.86 25.15.35.11 12.8 2.86 8.23 1.83 1.37.23 1.26.34 1.6.34-.23 1.15-1.15 4.34-1.02 4.12-1.49 5.48-1.83 6.98-.8 2.85-1.14 3.89-.34 1.26-.92 3.66-.68 2.17v.11l-1.15 3.32-.68 2.51-.23.92-.92 2.97-2.05 6.86-1.15 3.88h.12l1.6 1.03 2.17.8 4.91 1.15 6.52 1.48 6.86 1.37 6.97 1.49 8 1.83 7.32 1.6 1.02.23 4.69 1.14-.91.57-.58.23-.45.23-6.63 28.92.91.23-.91 3.43-4.12 16.58-1.83 6.97-.34 1.03-.57-.12-.8-.11-10.97-2.63-4.35-1.03-11.31-2.63-8.35-2.17-13.37-3.09-.23 1.03-5.14 18.63-.46-.22-.34 1.48-.12.8-.22.92-.23.57-.23.68-.23.8-.34.8-.23.58-.34.68-.35.57-.23.46-.8.92-.11.11-.69.8-.68.91-.8.69-.92.69-.8.68-1.02.46-.69.46-.23.11-.23.12-.91.45-.57.12-.46.11-.92.23-3.54.69-1.37.34-.8.23h-.23l-.34.11-.92-4 .35-.11.11-.12 1.03-.11.91-.23 1.03-.23 2.52-.69 1.71-.34.69-.23.46-.23.57-.34.8-.34.34-.34.34-.23.35-.35.11-.22v-.58l-.11-.11-.23-.23-2.75-1.94 1.49-2.4 1.83-2.86 2.97 2.17.23.12h.34v-.12l.12-.11.22-.35.23-1.03 1.37-5.25.46-2.06.8-2.4.8.23.12-.46 1.83-10.06.68-1.37-2.06-.57h-.45l-.23-.12-2.17-.45-1.83-.46-7.09-1.72-.34-.11-2.29-.57-2.97-.57-1.6-.46-.69-.12-1.82-.45-.58-.12-1.94-.45-7.2-1.49.11-.46.12-.45-9.83-2.18-1.83-.45-1.14-.23-.35-.12-.34-.11-1.37-.34-2.17-.58-.69.23-13.03-3.43-1.14-.34-8-2.06-5.6-1.48-10.06-2.63-1.03-.23-1.03-.34h-.34l-.46.11-.34.23-.12.23-.22.45-.35.92-5.14-.46 4.46-6.97 1.83-7.43 1.25-18.41-8.11 31.1-2.29-.57-.57-.35-.46-1.48-1.48-.92-14.86-3.43-4.35-.8-1.48-.91-.23-.34-.57-.8v-.12l.11-.11.23-.92-.11-.34-.12-.23-.91-.57-.69-.69-.91-.45-1.14-.35.68-2.63 4-22.06-.23-.68-2.28-.46-3.2-.92-11.55-2.28-2.74-.69-.69 1.14-2.63 3.43-.34.58-.11.68-.46.8-1.94 2.29-9.83 11.66-.46.57-5.49 6.4-2.05 2.17-2.18 2.52-2.17 2.4-1.71 2.28-.57.69-2.06 2.86-6.52 9.83-1.48 2.06-.23.34-.34.34-.23.46-.46.46-.68.68-.69.23-.57.69-.12.11-2.51 2.17-6.52 5.03-1.6 1.26-3.77 2.74-3.77 2.75-2.17 1.37-1.72.91-2.17.92-1.83.57-1.37.34-1.6.23-2.51.23-2.17.11-1.72.35-.8.23-.68.11-1.6.57-1.26.57-1.03.35-1.83.91-1.71.69-.92.34-.34.23-.8.11-.8.12-.8.11h-1.83l-1.26-.11-2.51-.46-2.06 5.94-1.49 4.69-1.14 4.23-2.63 8.57-2.4 7.78-1.37 4.8-.68 2.06-.35 1.02-.23 1.03-.45 1.03-.69 1.72-.91 2.28-.58 1.26-.11.34-.34.69-.8 1.6-.35.69-.45.91-.69 1.37-.68 1.03-.8 1.37-1.15 1.95-.91 1.48-1.72 2.52-1.25 1.6-1.15 1.48-2.17 2.63-2.28 2.86-2.75 3.54-3.2 3.89-1.37 1.72-2.51 3.2-2.18 2.63-.68 1.14-1.37 1.83z" stroke-linejoin="round"/></defs><use xlink:href="#p" fill="#09757a" stroke="#097d9b" stroke-width="5.76"/><defs><path id="q" d="M1881.94 830.82l2.28-8.46.12-.68-.34-.12-.58-.11-1.37-.34-12.57-3.09-.91-.11-7.78-1.83-12.34-3.2-15.2-3.89-.69-.34-.34.11-.12.34-17.48-4.34-3.78-.8-5.94-1.37-22.74-5.83.11-.46-.69-.23.23-.46.57-2.4.92-3.42.68-3.32.23-.57 1.26-5.15.46-2.4.34-1.6.11-.8.12-.57v-.68l.11-.8v-5.26l-.11-1.03-.12-.34v-.92l.12-.91v-.35l.11-.57 1.03.12.69.11.91.23 1.26.11 1.83.35.8.11 1.6.23 2.06.46 1.02.23 1.38.34 2.05.57.92.23 1.83.57 2.97.8 1.94.46 1.03.23.69.22h.8l1.02-.11.8.11.58.12 1.25.23 1.72.45.8.23.68-6.28-1.71-.46-6.06-1.94 1.37-4.46.23-1.03.34-.69.35-.57.45-.46.58-.57.8-.57.34.57.46.69.68.68.69.69.8.69.34.22.8.46.57.23.69.34.8.23 1.6.46 7.66 1.94.23.12.22.11v.69l-.68 2.63-.57 2.74-1.6 5.94-.69 2.86-1.49 5.6-.91 3.55-1.94 7.54-.8 3.2 2.63.69 1.71.46.69.11.91-3.32 1.26-5.37.34-1.14 1.26-5.15 1.26-4.57 2.74.8.57.23 1.71.57 1.15.35 1.14.22.69-.22.8.22.45.12.46-1.14 1.14-3.66.23-1.26.69-2.86.34-2.4h.46l1.83-.11.8-.12 1.03-.45.68-.46.8-.57 10.52-9.95 1.14-.91 1.26-1.03.91-.69.46-.34 1.71-1.72.46-.34.8-.57.69-.46.11.12.34.91.92 1.26.57.69.69.68.8.8.91.46 2.4.91 10.06 2.29 12.46 3.2 10.06 2.51 1.25.23h3.55l1.02-.23 1.49-.22 1.26-.35 1.94-.57 2.4-1.14 5.49-2.4.91-.34 1.15-.35 2.05-.57 1.83-.11 1.26-.23.68.11 1.49.12.57.11 3.77.8.69.12.8-.35 1.94.23.46-1.94.23-1.03.34-1.6.23-.92v-.34l.11-.8.12-.69v-.57l.11-.91v-.57l-1.6.45 1.49-1.25.34-.35 2.29-2.17 1.25-1.14.23-.23.12-.23.45-.11.58-.35 2.97-2.62.46-.35 2.28-1.94-1.48 6.29-.12.8-.23.8-.8 3.65-.23.92-.22.91v.35l-.58 2.4-.45 2.63-.46 2.85-.23 1.15-1.14 5.6-.23 1.37-.12.91-.45 2.06-.35 1.95v.11l-.22 1.26h.11l.11.23.12.22.11-.22.23-.12h.34l-1.25 5.95-.12.34-.11.68v.12l10.63 2.51.23.12.23.23v.23l.11.22v.23l-.11.46-2.75 5.37-.68 1.37-2.75 5.38-1.6 2.97-1.71 3.54-2.52 5.15-3.54 7.08-.34.58-.69 1.25-.91 1.83-.23.69-2.97 5.26-.12.68h-.23l-.8.57-.45 1.72-.23 1.49-.12.34-.11.23-.11.68-.69-.11-1.37-.23-.12.69-1.71-.12-5.37-1.71-3.43.91-2.06-.8.23-1.03-3.54-.91-3.43-.92-.46-.11-3.2-.69-2.74-.68-.69-.12-1.6-.34-1.6-.34-2.63-.46-3.08-.46-3.32-.68-4.34-.69-4.69-1.03h-.57l-.23.23-.11.11-1.6 6.06-.69.57-.34.23z" stroke-linejoin="round"/></defs><use xlink:href="#q" fill="#004249" stroke="#00465f" stroke-width="5.76"/><defs><path id="r" d="M1493.09 963.77l-.23-.12-.57-.11-5.37-1.49-6.29-1.6-5.83-1.48-1.94-.46-5.14-1.37-.46-.12.23-.8.11-.68 2.98-12 .34-.8.57-1.38.91-3.77.46-.8.12-.57.34-2.17 1.26-4.69.11-.46.11-.57.35-.46.45-.57 2.4-8.91.12-.46 1.14-4.34.12-.58 1.48-5.83v-.34l.34-1.6.23-1.6.12-1.37v-2.74l.46.11h.45l4 1.03.57-1.72.12-.57v-.46l-.12-.68-.45-2.86v-.57l.11-.57.12-.8.22-.69-.34-.34-.57-.23-3.43-.69-1.03-.11v-.8l.23-.8.34-.57h1.03l.35-.34 1.14-.92.23-.23.11-.34.23-.57.8-3.2 2.29-9.15.11-.34v-.23l1.14-2.4.23-.11.12-.23.22-.46.12-.46.46-2.28.57-2.29 2.28-8.12.35-.8.23-1.03-4.01-6.74.92-2.06-.12-2.17v-.8l-.57-.57-.57-.34-.57-.23h2.63l1.71.68 2.06.23.8-.11.92-.23-.12-.23v-.34l.23-.57.34-1.38.57-2.17.69-2.86.23-.8.11-.34.92-3.09.68-2.74 1.72-6.4 1.14-4.23.8-2.97.8-3.09 1.37-4.8.8-2.97 1.37-4.92 1.26-4.8.23-.91v-.46l1.49-6.06v-.34l.11-.8 3.09-11.89.34-1.03 3.54-13.72.23-1.14.57-1.14.23-.35.57-1.94 5.37-20.8.8-2.75.12-.68.23-.69.11-.46.12-.57 1.14-4 .34-.8.23-.69.23-.45.8-1.72.11-.34-1.94-1.14-1.03-.8-3.88-3.55-2.18-1.03-1.82.23-3.78 1.37-.57.12h-1.14l-.46-.46-.34-2.74.11-2.52.35-6.63 3.08-7.54.23-1.03 2.06-10.06-.46-.34.92-4 .45-1.95.92-5.6.68-3.66 1.6-8.23 6.86-2.17 7.66-.11 9.37-2.86 4.69-1.03 2.74 1.14 2.86-.34 2.4-1.71.23-.46 2.97.23 1.14-1.15 1.37.23 1.03 2.06 2.4.46.23-.46 1.03-.34.69.57h.8l.34-.23.91-1.14.12-.35-.23-1.6-.12-4h.58l5.94-12.34 2.06-4.23 5.6-11.78 1.71-2.97.23.92.23 1.14.11.8.35.91.45 1.26.23-1.03.23-2.06.34.69v.69l.12.68.34.57.46.69.57.91.57 1.15.34.68.35.92.57.34.68.69.23.68.57.57.8.58.8.34.8.68.8.23.69.46 1.14.34.46.23 1.03.12.8.22.69.12.57-.23.68-.34.69-.12h1.48l.69-.11.34-.12.69-.45 1.03-.35.68-.11.69-.11.57-.23.46-.23.45-.34.8-.35.69-.23.23-.11.57-.11.69-.35.57-.23.57-.34.69-.34.8-.34.68-.46.57-.23.46-.23.57-.34.23-.35.34-.11.46-.57.57-.34.69-.58 2.17-2.85.91-.92 1.03-.8 1.6-.46.69-.22.91-.46.8-1.03.57-1.14.46-.23v-.34l-.11-.35v-.68l-.35-.58.23-.91.46-.57.57-.57.23-.46v-.69l-.34-.34v-.46l.11-.34.34-.57.35-.46 1.25-.57.69-.46.34-.45.57-1.15.35-.68 1.14-.8.92-.8 1.02-1.26.23-.23.35-.91.45-1.49 2.29-5.14.8-2.63.23-.8.34-1.6.23-2.29.23-2.29.23-.8.57-1.48v-.46l.11-.46.12-.34.11-.34v-.46l.11-.34v-.23l-.22-.46.11-.34.11-.46.46-.68.34-.23.58-.46.57-.12 2.06-2.05.45-.92.69-1.03 1.26-.8.91-.68 1.37-.57 2.29-.69.91-.57h.92l.57-.23 1.48-.46.92-.11h1.71l.92-.34.91-.23h.69l.68.11.69.12.57.34.57.11.46.23.46.69-.12.8.23.45.46.35 1.03.34.68.34 1.6.35h2.52l.91-.12h.69l.57-.11.23.11.34.12h1.26l.45-.23.35-.12.8-.11h.45l.35-.11.45-.23.69-.35.69-.34.45-.23h.46l.34-.11.35-.12.22-.23.23-.22.35-.23h.23l.22-.12h.8l.46.12.34.11h.35l1.03.34 1.02.35.58.23.91.45.46.23.34.12h.34l.46-.35.11-.34v-.34l-.11-.35v-1.25l.11-.23.23-.23.23-.23.23-.11.23-.12.34.12.34.34.35.34.34.12.34.11.46.23.46.34.34.12.34.23.46.11.46.23.23.11.45.23.23.23.23.23.23.23v.8l.11.23.46.23.34.22.35.35.11.34.12.34v.57l-.12.35-.11.34v.34l.11.46.23.34.11.23v1.6l.12.23v.34l.23.58.11.57v2.74l.23.46-.11.68.11.69v.69l-.11.45.11.57v.58l-.11.45.11.35.23.34.11.23v.34l.12.23.23.57.11.34.11.35v.45l.12.46.11.46v.57l.12.34.11.57v.69l.12.69.11.34v1.14l.11.35v.45l.12.8.23.69v.57l.11.57.12.57v.23l.22.23.12.46.23.45.11.46v1.83l-.11.34.11.58.12.45.11.57v.69l-.23.91v.46l-.11.46-.12.23-.23.34-.34.12-.34-.12h-.46l-.34.23-.57.23-.23.11-.23.35-.11.34-.12.57-.11.57-.12.57.23.57.12.58-.12.34-.11.46.11.57v.8l.34.91.23.57.12.35.23.57.22.34.35.46.23.34.11.34-.11.46-.12.57-.11.69-.35.8-.11.34.11.23h.23l.46-.11.34-.12h.35l.22.12.35.34.34.69.34.45.35.46.34.8.46.57.11.8.23.57.34.58.46.68.11.46.23.8.12.23-.12.8-.11.8-.23 1.6.11.8v.57l.12.91-.23.58-.23.68-.23.92-.11.8-.23.34-.12.91v.35l.12.34.34.57.57.57.57.57.58.58.8.68.57 1.03.23.34.45.8.35.46.11.12.23.11.11.11.12.12.11.23v.23l.12.11.11.11.23.12h.11l.12.23.23.23.11.22.23.23.11.23.23.12v.11l.12.23v.23l.11.23.23.22v.23l.11.23.69.57.34.23.35.23.45.23.35.34.57.46v.11l.11.23.12.12h.34l.23.34.68.57.35.34h.45v.12l.12.23.11.11.34.12.35.11h.11l.12.23h.22l.23.11.35.12.23.11.22-.11h.23l.23.11h.34l.12.12.34.22.12.12.22.11.23.69.8.68.69.58.46.11.11.23.23.23.23.11.34.35.57.34.57.46.35.45.57.23.23.23.57.46.11.11.12.23.22.34.35.23h.23l.11.12.11.22v.23l.35.46.23.23.22.11.23.12v.23h.23l.12.11.45.34h.23l.23.12.23.11.11.12h.12l.23.11.11.23.12.23.22-.12h.35l.34.12.23.11.57.35.34.34.12.11.11.12h.12l.11.11.23.12.34.22.34.23.23.35.35.11.22.34.12.12.23.45.11.23h.34l.23.12v.23l.23.22.34.23.35.23.23.12.45.34.12.34.23.23h.22l.12.12.11.34.23.34.34.12.46.45.23.23.23.23.34.46.23.34.34.23.23.34.12.12h.22l.46.11.12.34.8.69.34.34.69.69.68.8.34.34.58.34.22.12.35.57.11.34.12.46.11.23.34.34.46.46.23.34.23.23.34.11.23.12.34.34.34.46.46.34h.34l.23.23.46.46.34.34.46.23.69.8.34.46v.34l.11.69v.91l-.11 1.03v.8l.11.8.23.34.46.69.46.34h.11l.11.23.23.11.12.12.57.68.57.35.46.45.68.69.46.46.23.23.11.34.12.23.11.11.12.23.23.11h.34l.11.23.23.23.46.23.34.46.34.23.12.23.23.22.23.35.22.45h.58l.34-.11.34-.11h.23l.34.22.23.23.23.23v.34l.11.23.12.23.34.12.12.11.11.11.11.12h.23l.12.11.34.12.23-.12.11-.23.12.12.11.11.34.12.35.11.23.12.45.11.12.23.11.23.23.11.46.23.23.11h.34l.34.35.35.11.45.12.35.23.45.22.23.35.23.34.23.23.34.11h1.03l.23-.23h.34l.23.12h.69l.8.23h.45l.46.11.46.12.45-.12.35-.11.68-.23.8-.34.8-.35.46-.34.34-.23.35-.11.34-.23.46-.69.45-.57.35-.69.68.35h1.26l.46-.12.57-.23.57-.22.8-.12.69.12.34.11.57.23.34.23.46.11.8-.34 1.14-.69.8-.34 1.38-.34 2.17-.23 1.25-.12 1.6.12 1.03.11h.69l.8-.11.8-.23.23.57.11.57.23.35.23.34.34.34.57.23h.92l.91.11.57.23.58.23h.45l.92-.57.8-.57.68-.46.69-.46.57-.34.8-.34.69-.46.22-.11.35-.12.45-.11.23-.23.46-.34.23-.46.23-.69v-.91l-.23-.34-.12-.69v-2.4l.23-.91.12-.58.34-.34.57-.34h.69l.57-.12.69-.23.68-.22.8-.23.69-.12.45-.11.8-.23.92-.23.8-.34 1.03-.69 1.14-.68.69-.23.45-.12.8-.22.57-.12h.46l.35.12.45.34.35.11.45-.11.23-.23.12-.34v-.23l.11-.57.34-.57.92-.58.68-.68.69-.69.91-1.03.69-.45.34-.46.46-.23.34-.57.46-.8.46-.92.34-.91.11-.46.57-.11.46-.12.8.23.69.12.45.11.58.34.45.23.46.23.34.11.23-.11.35-.34.11-.35.23-.45.23-.46.34-.46.11-.34v-.23l.12-.46v-.34l.11-.46.35-.22.34-.69.34-.69.23-.8.46-.91.34-.92.11-.57.12-.68.23-.69.23-1.26.34-1.14.34-1.14.34-1.15.58-.91 3.77-15.66.11-.92.23-.45.23-.57.11-.8.35-1.03.34-1.38.57-1.82.34-.92.35-.8.45-.46.46-.34.23-.46.46-.45.23-.46.45-.8.23-.46.57-.46.46-.45.69-.35.57-.22.57-.12.23-.46.34-.68.23-.57.46-1.03.34-.46.46-.8.45-.8.46-.57.34-.34.35-.69.22-.8.23-.57.35-.46.57-.57.68-.46.46-.34.57-.34.46-.58.34-.68.23-.92-.11-.57-.12-.45.23-.8.46-.69.46-.57.45-.8.35-1.37.57-1.03.34-.92.34-.91.35-1.14.34-.69.34-.69.23-.57.23-.57 1.6-.34 3.09-.8 9.14-3.09.91 1.03.69.57 4 .23 2.06.11.57-.11 4.34-.34 4.57-1.15 1.38-.68 3.42-1.83 3.78-3.66 3.77-2.97 1.71-1.26 3.66-3.2 3.77-3.66 2.17-2.97 2.52-8.69.46-1.83 1.94-2.74 4.91-6.06 1.38-2.06 1.25-1.6.92.69.8.11 1.94-.91.69-.69.34-.8.34-.91 1.26-1.49.46-.91.91-1.6 2.63-2.75 3.66-3.65 3.31-4.58 3.09-4.57 4.34-4.11.34-.46.58-.46.34-.23 1.6-.91.91-.69h.35l1.25-.8.46-.11.34-.35h.57l1.49-.68 2.29-.92 3.77-2.17.23-.11 2.17-.23 3.54-.34 2.4-.23h2.06l.34.34.12.8v1.14l-.46 1.95-1.6 8-2.29 11.55v26.86l.23 3.89.23 6.28-1.71 7.55-1.83 8.8-1.83 8.8-2.74 12.12-4 18.06-.92 3.89-.11.57v.34l-.58 2.4 1.61.34 2.05.46-.45 2.63-.35 1.94-2.28 1.15-2.63.34-.8 8.23-.35 19.43-3.65 15.21-1.6 2.97-2.63 9.37v2.29l-.35.57-.11.57-.23.69-.34.91-.46 1.72-.34 1.71-.23.8v.46l-.8 3.66-.23 1.25-.23 1.49-.11.12-.12.8-1.48 5.83-.12.68-.34 1.49-.68 3.2-.35 1.48-.23 1.03-.34 1.49-2.28 1.94-.46.35-2.97 2.62-.58.35-.45.11-.12.23-.23.23-1.25 1.14-2.29 2.17-.34.35-1.49 1.25 1.6-.45v.57l-.11.91v.57l-.12.69-.11.8v.34l-.23.92-.34 1.6-.23 1.03-.46 1.94-1.94-.23-.8.35-.69-.12-3.77-.8-.57-.11-1.49-.12-.68-.11-1.26.23-1.83.11-2.05.57-1.15.35-.91.34-5.49 2.4-2.4 1.14-1.94.57-1.26.35-1.49.22-1.02.23h-3.55l-1.25-.23-10.06-2.51-12.46-3.2-10.06-2.29-2.4-.91-.91-.46-.8-.8-.69-.68-.57-.69-.92-1.26-.34-.91-.11-.12-.69.46-.8.57-.46.34-1.71 1.72-.46.34-.91.69-1.26 1.03-1.14.91-10.52 9.95-.8.57-.68.46-1.03.45-.8.12-1.83.11h-.46l-.34 2.4-.69 2.86-.23 1.26-1.14 3.66-.46 1.14-.45-.12-.8-.22-.69.22-1.14-.22-1.15-.35-1.71-.57-.57-.23-2.74-.8-1.26 4.57-1.26 5.15-.34 1.14-1.26 5.37-.91 3.32-.69-.11-1.71-.46-2.63-.69.8-3.2 1.94-7.54.91-3.55 1.49-5.6.69-2.86 1.6-5.94.57-2.74.68-2.63v-.69l-.22-.11-.23-.12-7.66-1.94-1.6-.46-.8-.23-.69-.34-.57-.23-.8-.46-.34-.22-.8-.69-.69-.69-.68-.68-.46-.69-.34-.57-.8.57-.58.57-.45.46-.35.57-.34.69-.23 1.03-1.37 4.46 6.06 1.94 1.71.46-.68 6.28-.8-.23-1.72-.45-1.25-.23-.58-.12-.8-.11-1.02.11h-.8l-.69-.22-1.03-.23-1.94-.46-2.97-.8-1.83-.57-.92-.23-2.05-.57-1.38-.34-1.02-.23-2.06-.46-1.6-.23-.8-.11-1.83-.35-1.26-.11-.91-.23-.69-.11-1.03-.12-.11.57v.35l-.12.91v.92l.12.34.11 1.03v5.26l-.11.8v.68l-.12.57-.11.8-.34 1.6-.46 2.4-1.26 5.15-.23.57-.68 3.32-.92 3.42-.57 2.4-.23.46.69.23-.11.46 22.74 5.83 5.94 1.37 3.78.8 17.48 4.34-.34 1.49-.34 1.49-1.03 3.65-.23.8-.11.69-.8 2.86-.12.57-.46 2.17v.12l-.22.57-.12.57-.34 1.48-.46 1.49-.57 2.52-.8 3.08-.69 2.4-.34 1.49-.46 1.83-1.71 6.4-.57 2.4-.46 1.6-1.94 7.66-1.72 6.63-.22.91-1.38 5.38-.68 2.28-3.55 13.95-.68 2.29-.8 3.65-2.74 10.41-.92 3.43-.8 3.31-.57 2.17-.23 1.15-1.94 8-.23.68-1.83 6.86-1.83 6.75-.34 1.6-3.32 12.69-1.94 7.43-2.06 7.88-.8 2.86-1.03 3.2-1.14 4.12-.46 1.37-.22.8-.12.57-1.71 6.86-.92.34.12.23v.34l-.12.58-.91 3.42-.69 2.29-1.83 7.09-1.25 4.68-.46 2.06-.12.23-.11.12.69.45-1.15 4.35-1.14 4.34-2.29 8.57-.91 3.66-.57 2.52-1.14 4.34-.12.34-.23.69-5.48-1.37-5.26-1.26-1.6-.46-3.66-.91-9.03-2.29-5.03-1.26-4.46-1.14-3.31-.8-12.46-3.08-10.63-2.63-3.66-.8-5.83-1.49-5.37-1.37-6.17-1.49-3.09-.8-1.02-.23-2.41-.57-1.02-.23-1.83-.45-1.03-.23-8.57-2.17-.46-.12h-.34l-13.72-3.43-2.06-.57-5.71-1.49-.57-.11-7.78-1.94-5.14-1.38-8.91-2.28-2.75-.8-3.88-1.03-3.55-.92-1.37-.34-5.49-1.37-.34-.11-1.26-.35-5.02-1.14-9.15-2.17-4.11-1.03-1.83-.46-9.72-2.63-3.2-.91-3.77-1.03-1.83-.46-1.14-.23-6.17-1.48-4.69-1.15-4-1.02-.46-.12-5.03-1.26-6.51-1.83-3.77-.91-3.09-.8h-.23l-5.6-1.49-2.63-.57-1.94-.46-6.63-1.82-4.69-1.26-.45-.12-2.06-.45-10.4-2.86-4.8-1.03-3.32-.57z" stroke-linejoin="round"/></defs><use xlink:href="#r" fill="#004249" stroke="#00465f" stroke-width="5.76"/><defs><path id="s" d="M2087.33 873.58v.11h-.11v.11l-.11.12-.23.11-.23.12-.34.11-.58-.11-.57-.23-1.6-1.26-.57-.46-.46-.11-.8-.34-.8-.23-7.08-1.83-1.15-.23-6.74-1.71h-.8l-.23.11-.11.11-.35-1.71-20-5.03-6.97-1.71-.69-.23-.34-.12-1.37-.23-.57-.22-8.35-1.95-6.4-1.48-13.94-3.66-7.43-2.4-9.72-3.32-1.6-.57-.57-.23-.57-.11-2.06-.57-8.91-2.29-1.83-.46-2.4-.57-1.6-.46-1.72-.45-.57-.12-.34-.11-.69-.12-1.71-.45-.34-.12-1.49-.23-.46-.11-3.31-.8-4-1.14-3.2-.92-1.83-.34-.92-.23-2.4-.46-2.74-.34-7.54-1.14-.57-.12.11-.68.11-.23.12-.34.23-1.49.45-1.72.8-.57h.23l.12-.68 2.97-5.26.23-.69.91-1.83.69-1.25.34-.58 3.54-7.08 2.52-5.15 1.71-3.54 1.6-2.97 2.75-5.38.68-1.37 2.75-5.37.11-.46v-.23l-.11-.22v-.23l-.23-.23-.23-.12-10.63-2.51v-.12l.11-.68.12-.34 1.25-5.95h-.34l-.23.12-.11.22-.12-.22-.11-.23h-.11l.22-1.26v-.11l.35-1.95.45-2.06.12-.91.23-1.37 1.14-5.6.23-1.15.46-2.85.45-2.63.58-2.4v-.35l.22-.91.23-.92.8-3.65.23-.8.12-.8 1.48-6.29.34-1.49.23-1.03.35-1.48.68-3.2.34-1.49.12-.68 1.48-5.83.12-.8.11-.12.23-1.49.23-1.25.8-3.66v-.46l.23-.8.34-1.71.46-1.72.34-.91.23-.69.11-.57.35-.57v-2.29l2.63-9.37 1.6-2.97 3.65-15.21.35-19.43.8-8.23 2.63-.34 2.28-1.15.35-1.94.45-2.63-2.05-.46-1.61-.34.58-2.4v-.34l.11-.57.92-3.89 4-18.06 2.74-12.12 1.83-8.8 1.83-8.8 1.71-7.55-.23-6.28-.23-3.89v-26.86l2.29-11.55 1.6-8 .46-1.95v-1.14l-.12-.8 1.49.12h2.97l1.49.11.34.23.11.57.69-.46.23-.11.34-.23.12-.11h.34l.11-.12h.23l.12.12 1.02.11.92-.11h.46l.91-4.58.69-3.08.45-1.83.69-3.09.34-2.06 1.37-6.28 1.49-6.52.91-3.89.69-3.08.46-2.4.57-2.52.57-2.17.23-1.03.57-2.29 3.2-3.65 1.94-1.6 17.83-21.15 4.12 1.03 4.57 1.03 3.89.68.91.23-.11.69-.12 1.48-.23 2.63-.22 1.6-.46 1.26-3.55 9.37-.8 1.38-2.05 3.54-.35.34-.22.12h-4l-2.29.22-2.29.58-.91.22-1.83.81-1.14.68-7.09 4.34-2.63 1.49-2.17 1.49-.69.23-.11.8-.11.22-.12.12-.23.23-.45.45-.23.35-.23.23-.12.34-.22.46-.23.57-.46 1.94-1.14 5.37 1.14 1.83 1.6.57 2.51.8 1.26.46.46.23.46.34.34.23.23.23.23.23.11.23.23.23 1.37 1.37.46.46 1.14.22.57.12 3.55.8 3.88-1.37.57-1.72 25.49-28.12-.68 4.92-1.38 5.6-1.37 4.68-1.83 4.92-1.02 2.29-2.4 4.34-1.49 2.74-1.94 2.86-1.49 1.95-2.4 2.85-.23 1.95-.57 2.05-.46 1.38-.34.91-.69 1.03-.68.91-1.03 1.26-1.26 1.03-1.25 1.14-2.86 1.49-3.32 1.94-1.94 1.26-2.06 1.49-1.94.91-1.14.34-1.15.12 24.46 17.37 39.55-35.55 2.52 2.97.34 1.26-.12 1.26-.57 1.14-2.97 5.49-.57 1.26-.34 1.48-.92 5.72-.34 1.71-.46 1.49-.68 1.83-5.38 12.23-.91 1.71-1.14 1.83-1.03 1.49-.92 1.71-.8 1.6-.8 2.06-.11.57-.34.57-.23.46-3.55 9.26-.68.46-.57.57-1.37 1.71-.92 1.49-.23.8-.23.8 1.49 5.95.11.91v.8l-.34 1.94-.23.92-.57 1.48-.23.69-.91 1.14-.57.46-1.15.91-2.05 1.38.22 1.48v1.6l-.8 3.66.12 1.37.34 1.95.12 2.85-.23 1.38-.57 1.14-.58.68-.8.8-.57.46-.68.35-.92.34h-1.03l-1.37-.12-.8-.22-.57-.35-1.03-1.26-2.17-3.08-2.06-2.52-.68-.57-.92-.23h-.57l-.57.12-.57.23-1.26 1.02-.46.46-.68 1.03-.34 1.14-.46 2.4-.23 1.26-.69 1.72-.68 1.14-1.37 1.6-1.49 1.03-1.14.57-.69.23-1.03.46-1.14 1.14-.23.57-.34 1.49-.23 1.48-.34 1.26-.35.8-.45.57-.57.57-.46.35-.8.34-2.4.46-1.03.11-.92-.23-.68-.23-.8-.45-2.06-2.17-1.03-.81-1.48-.68-1.95-.46h-.8l-1.94.57-2.06 1.26-.8.69-1.48 1.71-1.03 1.6-.69 1.6-1.03 2.86-.68 1.71-.34.46-1.03 1.26-.92.69-.45.34-.58.68-.57 1.03-.23 1.03v.8l.12 1.14.11.81v.8l.8.45.57.57.35.46.11.57.12.57-.12.92-.34 1.6h.11l1.83.57 1.03.23.8.11 1.26.12 2.74.23 1.94.11 1.83.12.69.11.91.11 1.15.35.68.23.8.22 1.37.69 1.03.57.92.69.91.68.91.92.69.68 1.37 1.38 2.75 2.62.57.58.45.45 1.15-1.48 1.37-1.83.68-1.14 2.18-2.63 2.51-3.2 1.37-1.72 3.2-3.89 2.75-3.54 2.28-2.86 2.17-2.63 1.15-1.48 1.25-1.6 1.72-2.52.91-1.48 1.15-1.95.8-1.37.68-1.03.69-1.37.45-.91.35-.69.8-1.6.34-.69.11-.34.58-1.26.91-2.28.69-1.72.45-1.03.23-1.03.35-1.02.68-2.06 1.37-4.8 2.4-7.78 2.63-8.57 1.14-4.23 1.49-4.69 2.06-5.94 2.51.46 1.26.11h1.83l.8-.11.8-.12.8-.11.34-.23.92-.34 1.71-.69 1.83-.91 1.03-.35 1.26-.57 1.6-.57.68-.11.8-.23 1.72-.35 2.17-.11 2.51-.23 1.6-.23 1.37-.34 1.83-.57 2.17-.92 1.72-.91 2.17-1.37 3.77-2.75 3.77-2.74 1.6-1.26 6.52-5.03 2.51-2.17.12-.11.57-.69.69-.23.68-.68.46-.46.23-.46.34-.34.23-.34 1.48-2.06 6.52-9.83 2.06-2.86.57-.69 1.71-2.28 2.17-2.4 2.18-2.52 2.05-2.17 5.49-6.4.46-.57 9.83-11.66 1.94-2.29.46-.8.11-.68.34-.58 2.63-3.43.69-1.14 2.74.69 11.55 2.28 3.2.92 2.28.46.23.68-4 22.06-.68 2.63 1.14.35.91.45.69.69.91.57.12.23.11.34-.23.92-.11.11v.12l.57.8.23.34 1.48.91 4.35.8 14.86 3.43 1.48.92.46 1.48.57.35 2.29.57 8.11-31.1-1.25 18.41-1.83 7.43-4.46 6.97 5.14.46.35-.92.22-.45.12-.23.34-.23.46-.11h.34l1.03.34 1.03.23 10.06 2.63 5.6 1.48 8 2.06 1.14.34 13.03 3.43.69-.23 2.17.58 1.37.34.34.11.35.12 1.14.23 1.83.45 9.83 2.18-.12.45-.11.46 7.2 1.49 1.94.45.58.12 1.82.45.69.12 1.6.46 2.97.57 2.29.57.34.11 7.09 1.72 1.83.46 2.17.45.23.12h.45l2.06.57-.68 1.37-1.83 10.06-.12.46-.8-.23-.8 2.4-.46 2.06-1.37 5.25-.23 1.03-.22.35-.12.11v.12h-.34l-.23-.12-2.97-2.17-1.83 2.86-1.49 2.4 2.75 1.94.23.23.11.11v.58l-.11.22-.35.35-.34.23-.34.34-.8.34-.57.34-.46.23-.69.23-1.71.34-2.52.69-1.03.23-.91.23-1.03.11-.11.12-.35.11.92 4 .34-.11h.23l.8-.23 1.37-.34 3.54-.69.92-.23.46-.11.57-.12.91-.45.23-.12.23-.11.69-.46 1.02-.46.8-.68.92-.69.8-.69.68-.91.69-.8.11-.11.8-.92.23-.46.35-.57.34-.68.23-.58.34-.8.23-.8.23-.68.23-.57.22-.92.12-.8.34-1.48.46.22 5.14-18.63.23-1.03 13.37 3.09 8.35 2.17 11.31 2.63 4.35 1.03 10.97 2.63.8.11.57.12-2.74 11.31-4.23 16.12-1.49 6.29-4.68 19.2-1.03 3.43v.35l-.12.45-.68 2.52-6.63 26.29-.46.8-2.86 10.52-4 17.26-1.02-.23-6.63-1.71-1.49-.35-4.69-1.14-.91-.34h-.57l-8.8-2.06-1.72-.34-.11.45v.46l-.12.8-6.63 27.32 19.89 5.03-.68 2.63.57.69-3.2 11.31-1.83 7.43-.23 1.26-.23.46-.34.11h-.23l-2.17-.34-2.06-.69-.34-.11-.34-.12v-.11l-5.26-1.14-2.52-.57-3.43-1.03h-.11l-.11-.23-3.43-.92-2.63-.34h-.57l-.8-.11-.92-.35-1.71-.34-.69-.23-3.2-.8-8.23.8-1.6-.34-1.37-.46-.11-.11h-.12l-.11-.23-3.78-1.14-.45 2.62-.35 1.38-.57 2.17-2.51 10.29 1.48.34 1.95.46 1.25-4.92.8-3.2.12-.69.23-.34.11-.11h.12l.11-.12h.57l1.72.57.34.12h.11l.12.11.11.12.12.11v.8l-1.03 3.55 9.03 2.17 1.03-3.89.34-.68.11-.23h.46l1.03.11.34.12.35.11 2.85.69.35.45v.57l-.46 1.83-.12.46-.11.57 5.6 1.72.11-1.72V746l.12-.34.11-.34.12-.23.11-.12.12-.11.22-.11.23-.12.46.12.46.11 3.31.91 9.49 2.29.69.12 1.02-4.12 3.66.91 2.97.8 1.26.23-.69 2.75-.57 2.85-.68 2.75-1.15 4.8-.68 2.51-.23.58-1.26 5.14-3.2 12-3.31 14.06-1.26 4.8.11.46-1.02 4.35-22.29-5.83-1.83-.46-1.49-.34-2.97-.69-2.17-.57-.8-.12-2.06-.57h-1.48l-2.52-.68-.34.11-.23.11-.23.23-1.03 3.89 3.09.8.23.11.23.12.11.11v.57l-1.14 4.58-1.37 5.37-1.26 5.49-1.26 4.68-.23.23-.11.23-.23.12h-.23l-.34-.12-3.32-.8-8.57-2.17-2.86-.8h-.8l-.23.11-.11.12-.11.11-.46.46-.57 2.06-2.4 10.17-.46 1.71-.69 2.75-2.28 8.57-1.49 5.37-.34 1.6-.23.92-.46 1.6-4.23 16.23-.11.8-.23.92-.8 3.65-.11.92-.12 1.26h.8l6.86 3.2.46-.12h1.14l.57-.45 4 1.14 8.12 2.63 4.46.68 2.74-.45 2.4.68 5.83 2.29 1.03.23 2.63.68 10.28 2.52-.45 1.6-.23 1.03-2.86 11.89-.23.91-1.71 6.86-.69 2.4-.91 3.66-1.6-.35-4.12-1.14-29.83-7.89-1.03-.22-.57-.23-.91-.12-4.81-1.25-2.85-.69-5.37-1.26-.92-.23-1.83-.45-2.63-.69-1.14-.34-13.83-3.55-5.49-1.37-3.08-.8-2.06-.34-1.14-.34-.8-.12-3.55-.91-.22.45-.23.69-2.86-.8-8.23-1.83-3.43-.69-1.94-.34-.57 1.37-.12-.22-.11-.12h-.12l-.23-.11-3.42-.58-4.58-.68-4.68-.8-3.2-.57-1.95-.35-14.74-4.23h-.57l-.57.12.11-.23.23-.69.11-.68.23-.92-.68-.11-.58-.11-3.88-1.03-4.8-1.15-4.23-1.14-.46-.11-.46-.12-6.97-1.71-5.83-1.49-13.14-3.31-3.66-.92-5.26-1.37-.23.57-.57.69-.8-.23-.34.68-.69.58z" stroke-linejoin="round"/></defs><use xlink:href="#s" fill="#004249" stroke="#00465f" stroke-width="5.76"/><defs><path id="t" d="M1785.36 1826.71l-2.06-.45-1.6-.46-1.15-.34-.34-.12-1.71-.46-1.72-.45-.68-.12-.46-.11-.23-.12-.68-.22-2.63-.69-2.63-.57-.23-.12-1.03-.22-.91-.23-10.41-23.32-4.68-10.63-.8-1.6-3.89-9.15-1.94-3.77-1.6-3.66-1.26-2.86-2.06-4.68-1.25-2.86-1.15-2.17-.22-.58-.23-.68-.23-.34v-.23l-.12-.35-.11-.45-.11-.46-.92-2.86-1.14-2.51-2.52-7.55.23-.45.92-2.75.11-.46.8-2.28 1.03-2.63 1.14-2.63.69-1.37-.69-1.37-.23-.46-1.14-2.4-.57-1.14-1.14-2.75-10.52-23.66-.23-.34v-.23l-2.51-5.49-1.26-2.86-.46-1.03-.57-1.25-1.14-2.75-1.83-3.88-1.83-4-.57-1.15-.34-.8-2.17-4.68-.35-.92-.91-2.06-1.37-2.97-.12-.34-.34-.69-.8-1.71-.23-.57-.11-.23-.12-.46-.34-.69v-.34l-.34-.68-2.29-5.26-4.57-10.52-.12-.34-.22-.35-.23-.45-8-18.64-4.46-9.48-4-9.26-4.46-9.72-3.89-8.69-8.11-18.52-3.32-8-4-8.69.46-.34.46-.23.11-.11.12-.12.22-.34.12-.11.11-.35.23-.45.23-.8.69-3.2.11-.46.8.57 6.29 2.74 7.08 1.72.92.23.68.23 2.75.68 3.54.8 3.89 1.03 3.77.91 4.11 1.15 4.12 1.03-.12.45-.22.92v2.51l1.48.46 1.03.23 2.63.8.46-2.06.34-1.37.11-.57 1.6.34 1.26.34 2.4.69h.69l.23.46v.8l-.69 2.97 5.26 1.26.11-.69.92-3.2 3.2.8 3.08.8-.23 1.37-.34 1.72-.23.8 6.52 1.6.91.23.69.23.57.22.46.23.57.35.34.22.57.46.69.57.57.57.8.58.8.57.91.57.35.11.68.35 1.26.34 2.06.57 4 1.03 6.4 1.49v1.6l.11.57.23.57 2.86 6.29.34.91.69-.34 3.43-1.95 2.05-1.25.92-.57 1.14-.69.46-.46.23-.45.11-.46.12-.46.68.12 1.94.45 1.26.46 2.52.69 2.28.57 4.23 1.14 3.32.8.11-.11.11-.12.35-.11h.23l2.51.57 2.17.69 1.03.22 2.74.8 1.83.35.57.23 1.26.22.46.23.57.12 5.03 1.37.57.23 2.63.57.91.23.58.11 4.8 1.26 1.03.23 4 .91 2.51.8h.46l.45.12.58.11h.57l.46.12h.45l.46.11.91.23.8.23h.12l.57.11.11.12.58.11.91.23 1.26.34.57.23.57.23.11.11.8.46 1.6 1.03h.12l.91.57.92.46 1.37.46 2.29.45 1.48.35 1.49.45.45.46 7.21 1.83 1.6.46.68.11v.46l-.91 3.2-.23 1.03-.69 2.17-.34.46-.91 3.08-1.03 4.23-.92 3.2-.34 1.37-2.4 9.61-.23.68-.23.8-2.17 7.78-.46 1.37-.34 1.26-.23.57-.57 2.05-1.14 4.58-.92 3.54-1.03 3.66-.34 1.6-.11.34-.12.46-.8 2.86-.23 1.03-1.03 4-1.02 4-1.03 4.11-1.49 5.49-1.71 6.52-.35 1.25-.11.35-1.03 2.85.12.23 1.02 2.18.46 1.02.23.69.11.8-.11.91-.69 2.63-.91 3.32-.11.68-1.03 3.78-.12.34-.11.34v.57l-.12.58v2.51l-.11 2.74.11.46v.69l.12.34.11.23v.11l-4.57-1.14v1.83l-1.49 6.86-4.91 19.32-3.2 11.77-3.54 13.95-.69 2.4-.23 1.03-.11.34-1.26-.34-1.37 5.6-1.6 6.06-4.12 16.23-3.65 14.06-1.15 4.23-2.63 10.17-1.02-.23z" stroke-linejoin="round"/></defs><use xlink:href="#t" fill="#004249" stroke="#00465f" stroke-width="5.76"/></svg>