<svg width="384" height="5.04in" viewBox="0 0 2880 3630" xmlns="http://www.w3.org/2000/svg" xmlns:xlink="http://www.w3.org/1999/xlink"><path fill="#fff" d="M0 0h2880v3630H0z"/><defs><path id="a" d="M1654.24 3129.29l-1.25.56-2.61-13.38-1.36-7.37-3.97-27.23-12.25-71.81-1.25-7.48-6.47-40.27-3.4-20.65-1.36-.23-11.57-1.58-11.69 12.25-3.85-2.38-21.9-17.02-.79 4.2-2.04 6.58-3.64 10.21-4.65 13.27 2.84 12.36 1.81 7.94 4.54 20.19.34 2.73v2.04l-2.38 6.81-36.87-.68-13.5-14.3-7.94-3.29-21.21-8.73 1.7-20.99-.91.91-.91.45-1.36.12-1.81-.34-2.16-.57-2.04-.8-1.82-.79-1.13-.57-2.27-1.36-2.15-1.81-2.95-3.18-1.48-2.38-1.25-2.61-1.58-5.1-1.25-3.07-.68-1.25-1.48-1.58-1.13-.68-1.14-.46-1.93.23-1.13.45-1.7.91-2.95.45-6.13.12-5.33-.46-3.4-.56-4.54-.68-1.02-.34-.57-.46-.45-1.25-.34-1.24-.8-.8-1.36-.79-9.3-3.86 5.9-11.46 6.46-64.77-17.81-13.04 2.5-1.03 3.52-1.24 10.66-4.2 3.18-1.25 2.72-1.25 7.26-2.95 3.18-1.24 3.63-1.36 3.74-1.25 5.45-1.82 4.08-1.24 4.88-1.48 3.97-1.36 3.06-.91 3.06-1.02 4.09-1.25 12.25-3.63 2.72-.9 2.61-.91 2.16-.8-.34-1.47 8.62-3.52 8.17-3.29 13.38-5.1 5.79-2.16 2.49-.9 2.27-.91 2.16-1.02 2.95-1.25 1.36-.57 2.95-1.25 2.72-1.24 2.95-1.48 6.13-2.15 3.63-.91 2.15-.57 4.2-.57 1.36-.34 1.36-.22 1.25-.23 2.04-.34 6.13-1.13 6.35-1.03-1.25-3.74-.34-2.38v-.8l-.22-.68-.57-1.58-.57-1.14-1.13-1.25-.68-.22-1.25-.57-3.29-1.47-3.63-1.14-5.56-1.59-4.08-2.15-.68-.57-3.63-2.61-8.74-7.71-3.18-3.29 1.59-1.48 11.01-5.67 1.13-1.47 1.48-4.09 4.08-19.28.23-2.38-.57-3.29-1.59-4.43-.34-2.72.23-1.7.79-1.82 1.82-1.7 2.61-1.25h3.29l2.83.57 5.33 1.02 3.75.12 3.06-.69 2.16-1.13 2.61-2.27 3.74-4.08 4.99-7.38 5.9-7.94 6.24-10.66 6.01-11.46 4.2-7.37 4.76-6.81 4.54-4.76 3.74-4.65.57-.8 2.16-4.31 1.25-4.53-11.58-14.64-23.25-30.63-22.01-28.13-13.27-17.69-8.51-11.23-25.98-32.79-16.34-21.44-35.84-45.71-.34-.91.11-1.36.45-.91 4.09-4.31 50.93-48.89 44.13-44.47 17.25-16.9 50.14-48.67 17.58-15.54 41.41-39.47-1.25-1.59-4.2-4.88-7.14-9.19-5.68-6.58-9.75-12.93-4.2-5.44-4.76-6.24-1.93-2.04-6.47-8.85-1.93-2.38-4.53-6.13-3.86-5.1-1.59-2.16-6.35-7.83-1.59-2.27-1.25-1.58-6.24-7.83-6.35-8.06-7.6-10.32-6.81-8.85-1.13-1.36-1.14-1.59-7.14-8.96-4.2-5.44-2.5-3.06-3.74-4.88-8.17-10.55-3.52-4.54-6.24-8.17-7.6-9.87-15.08-19.28-3.41 2.84-1.7.34-5.56 5.44-10.43 10.32-7.95 7.49-8.96 8.51-17.35 16.22-17.13 16.56-13.16 12.48-2.27 2.15-.91.91-1.36 1.25-.34.34-2.5 2.38-2.38 2.27-4.77 4.54-3.17 2.95-3.52 3.51-13.95 13.16-.23.23-3.06 2.95-17.47 16.45-16.79 16.56-17.36 16.34-18.04 15.88-12.82 12.36-1.36 1.25-.34.23-.45.45-.68.34h-.8l-.79-.34-.79-.23-.91-.56-.46-.69-.9-1.13-1.25-1.59-2.04-3.17-13.73-17.25-8.51-11.45-31.65-40.27 7.38-6.81 9.98-9.87 6.12-5.9 11.01-10.21 7.15-7.14 5.44-5.11 4.88-4.42 6.58-6.36 10.55-10.09 3.86-3.74 5.21-4.88 8.06-7.72 11.91-11.45 5.67-5.45 4.09-3.97 12.59-11.91 4.99-4.76 12.25-11.91 17.25-16.34 17.35-16.34 17.25-15.65 15.54-14.75 9.19-8.84 2.49-2.5 1.93-1.93.68-.68 3.29-2.95 2.84-2.72 1.59-1.36 1.36-1.36-3.07-7.72-7.94-19.05-10.66-25.07-.45-.91-5.11-11.35-5.22-11.45-1.81.68-1.7.57-2.05-4.77-2.27-5.22-3.29-7.37-13.15-29.84-7.26-17.12-9.65-22.24 1.82-1.13 1.59-1.02 1.81-1.02 3.29-2.5 8.74-7.03 19.62-15.88 16.34-13.39 4.76-3.86 4.77-3.74 10.32-8.28 10.44-8.51 19.4 29.84 10.32 15.88 33.12 52.29 3.98 6.35 6.69 10.44 12.82 20.08 24.73 38.79 20.65 31.54 9.18 13.95 1.82 3.07 12.48 19.17 5.67 9.53 4.99 8.39 6.58 10.21.8 1.02.56-1.82 1.82-5.78.91-3.06.79 1.24.91 1.48 1.13 1.7.46-1.13-.34-2.27 1.13 1.7 2.61 4.2 1.25 2.15 2.83 5.33 2.5 5.11 2.61 4.88 2.95 5.89v1.93l4.08-4.99 7.03-8.51 11.01-4.87 5.9-2.5 18.15-7.71 2.38-1.02 19.97-7.95 23.59-9.86 20.88-8.63 4.08-1.92 16.34-6.7 20.53-8.05-8.85-13.61-.57-.91-.79-1.36-3.74-5.67-3.18-5.45-2.61-4.2-1.02-1.81-4.08-5.67 13.84-12.14 3.97-3.52 9.98-7.71 2.84 3.86 2.95 3.85 1.24 1.48 1.48 1.25 1.25 1.02 1.47 1.24 5.79 3.41 2.95.9 2.38.23h1.47l1.48-.23 3.06-1.13 7.15-2.95 15.54-21.55 3.86 6.01 1.36 2.16 7.71 12.02 4.43 7.03 4.42 6.7 5.79 9.07 4.42 6.69 4.09 6.47 2.83 4.54 9.87 15.31 3.63 5.79 4.09 6.35 1.58 2.49 7.83 12.26 1.48 2.49 1.58 2.38 4.66 7.38 8.5 13.04 9.65 15.2 11.57 17.93 6.12 9.75 6.13 9.64 2.15 3.18 1.93 3.18 1.14 1.81.57 1.02 3.51 5.45 5.11 7.6 3.51 5.33.68 1.13 5.45 8.4 5.67 8.73 4.65 7.26 6.36 9.87 8.39 13.05 20.99 33.01 1.93 2.95 2.15 3.29 1.59 2.49 7.37 11.46 7.83 12.48 6.81 10.66 7.83 12.02 9.75 15.43 6.24 9.98 6.13 9.76 11.68 18.6 10.55 16.34 1.7 2.83 1.25 1.93 1.14 1.93.68 1.14.68 1.58.91 1.93.68 1.93 2.15 7.83 5.11 19.74 1.24 4.65 1.93 7.48 2.38 8.51 2.5 9.3.91 3.18 1.36 4.76.91 3.29.56 2.27.57 2.39 3.18 13.04 1.02 3.97 1.02 4.2 1.13 3.4.23.57 1.82 3.86.34.79 1.7 3.18 2.61 4.19 2.27 3.18 1.13 1.59 4.88 6.46 2.49 3.07 8.97 10.89 10.32 64.77 5.79 9.19 54.79 18.6 2.04-3.18.57.69.57.68.56.79.57.79 13.16 16.45.57.57 5.22 6.01-24.85 30.29-7.49 8.85-8.73 6.8-.68 1.14-.46 1.13-.34 1.14-3.4 4.42-.79 1.02-1.14 1.14-8.96 8.84-21.89 21.44-26.78 18.61-6.8 6.58.45-2.5.34-1.93.91-1.36.22-1.93v-2.38l-.11-1.36-.45-1.36-1.02-2.16-1.37-2.04-1.02-1.36-2.38.79-1.13-1.47-2.73 2.5-2.04 2.04-1.81 1.93-1.14 1.13-1.47 1.7-1.25 1.7-1.7 2.27-1.59 2.27-1.81 2.61-4.43 7.6-8.17 14.52-1.24 2.27-1.71 2.72-2.04 3.18-.68 1.25-.79 1.13-2.05 2.95-1.24 1.93-3.75 4.76-4.08 4.77-3.97 4.19-2.95 3.07-1.59 1.58-.34-.79-1.81 1.13-2.39 1.59-3.29 2.61-1.24 1.02-1.03.68-.68-1.02-.56-1.02-.23-.34-2.95-4.31-32.1-50.25-6.92-10.89-6.36-9.87-16.67-25.98-20.42-32.89-19.74-29.61-3.86 3.17-7.15 6.47-1.47 2.16-4.43 9.3-1.58 2.49-3.41 3.29-9.07 8.96-3.41 2.05-9.87 5.55-3.17 2.27-2.73 2.61 7.49 19.97.91 1.36-4.65 4.08 11.91 15.54 9.76 12.59 10.32 14.75 1.47 1.82 2.16 1.47 2.5 1.02 1.36 1.14 1.24 1.47 6.92 11.46 7.27 11 3.51 5.33 2.16 3.63-9.65 8.28-25.52 3.97-34.6-32.67 2.5 3.63 7.6 13.28 8.28 13.72 7.6 10.55 2.04 3.63-12.48 8.06-1.7-3.75-15.2 10.55-14.98-23.37-10.21 9.31-2.04 1.47 5.67 7.6.91 2.61v1.36l-.45 1.36-1.93 2.16-6.92 5.44-1.7.23-2.73-3.97-1.47-1.7-1.82-.8h-.9l-14.64 17.13-2.72-6.24-2.15-4.65-1.48-3.51-3.29-7.26-.11-.34-2.61-5.9-2.27-5.22-1.36-2.95-.46-1.02-.11-.23-1.13-2.95-1.14-2.83-1.36-3.52-1.47-4.31-.69-2.16-.9-3.17-.46-1.48-1.36-4.76-.68-2.38-.34-1.36-.45.9-.91 2.16-1.02 2.38-.23.68-.91 2.5-.56 1.59-.46 1.13-.45 1.02-.57.79-1.02 1.14-1.02 1.25-1.13 1.13-.91.91-.91.79-1.7 1.02-.8.46-1.13.45-3.29.91-4.2.79-9.19 1.02-2.95.46-1.92.56-1.59.8-1.7 1.13-1.37 1.36-2.26 2.5-1.48 1.81-3.63 4.43-1.25 1.59-1.7 1.7-1.81 1.36-1.36 1.13-1.71 1.25-1.7.91-3.29 1.36-5.67 2.27-2.84 1.25-1.92 1.13-1.71 1.59-1.02 1.59-.91 1.47-.56 1.59-.46 1.7-.22 1.48-.12.68-.56 2.04-.68 1.13-.91 1.03-1.48 1.02-1.93 1.02-1.7.68-1.93.45-2.15.57-1.48.45-.56.34-.68.34-1.93 1.82-2.61 3.74-1.93 3.63-2.38 4.54-1.93 3.63-1.82 2.61-2.26 1.93-5.11 2.83-7.83 9.42-2.38 3.29-3.52 4.53-7.94 8.51-2.95 3.29-3.06 3.18-2.16 2.95-1.92 4.65-2.95 9.07-4.88 15.32-2.95 12.02-6.81 5.67-1.7.8-1.47 1.59-3.41 10.43-1.7 2.16-1.59 1.02-2.04.79-9.42 1.48-10.21 4.08-7.71 3.97-4.31 3.06-7.26 6.92-5.9 4.77-12.02 5.56-1.93 1.47-1.82 1.36-2.61 2.95-1.25 2.04-4.76 9.65-1.93 3.06-2.04 2.61-1.7.23-1.7-.57-7.94-6.47-3.86-1.93-2.5-.34-4.2 2.16-2.26 2.49-1.59 2.95-1.02 3.29-1.25 3.97-.23 3.07.34 2.15 1.25 1.36 6.69 1.48 2.95 1.02 1.14 1.13 1.47 2.95 1.25 3.41.34 2.72-.68 6.35.45 2.04 2.05 1.14h2.94l2.39.22 3.29 1.25 2.83 2.38 2.16 3.41.91 2.49v2.5l-.34 1.93-1.93 3.51-2.27 3.07-1.59 2.72-.91 1.47-.79 2.84v3.29l.45 2.04-.11 2.72-1.48 4.65-2.04 5.22-2.95 5.45-2.27 3.63-2.95 3.29-5.21 3.51-6.58 3.52-1.93 2.04-1.93 3.75-.57 2.94.12 2.73.56 2.72 1.48 2.38 6.35 5.11 2.84 1.36 1.36 1.13.79 1.93-.23 3.74-2.04 11.57-.45 4.66.23 4.08.56 2.84 2.39 5.1 1.7 4.76.45 3.29-.45 2.61-2.05 7.26.35 2.73 1.58 1.92 2.16 2.05 3.63 6.46.45 2.27-.22 3.06-.8 2.27-1.02 1.48-2.61 1.81-1.25.57-2.83 1.36-3.07 2.04-1.81 1.48-1.02 2.61-.57 2.26.34 3.52.8 2.72 1.13 2.5 1.36 2.04 1.48 1.14.9.22-8.73 1.48z" stroke-linejoin="round"/></defs><use xlink:href="#a" fill="#9dc8ca" stroke="#6bb4d2" stroke-width="5.76"/><defs><path id="b" d="M2330.59 2480.76l-2.04 3.18-54.79-18.6-5.79-9.19-10.32-64.77-8.97-10.89-2.49-3.07-4.88-6.46-1.13-1.59-2.27-3.18-2.61-4.19-1.7-3.18-.34-.79-1.82-3.86-.23-.57-1.13-3.4-1.02-4.2-1.02-3.97-3.18-13.04-.57-2.39-.56-2.27-.91-3.29-1.36-4.76-.91-3.18-2.5-9.3-2.38-8.51-1.93-7.48-1.24-4.65-5.11-19.74-2.15-7.83-.68-1.93-.91-1.93-.68-1.58-.68-1.14-1.14-1.93-1.25-1.93-1.7-2.83-10.55-16.34-11.68-18.6-6.13-9.76-6.24-9.98-9.75-15.43-7.83-12.02-6.81-10.66-7.83-12.48-7.37-11.46-1.59-2.49-2.15-3.29-1.93-2.95-20.99-33.01-8.39-13.05-6.36-9.87-4.65-7.26-5.67-8.73-5.45-8.4-.68-1.13-3.51-5.33-5.11-7.6-3.51-5.45-.57-1.02-1.14-1.81-1.93-3.18-2.15-3.18-6.13-9.64-6.12-9.75-11.57-17.93-9.65-15.2-8.5-13.04-4.66-7.38-1.58-2.38-1.48-2.49-7.83-12.26-1.58-2.49-4.09-6.35-3.63-5.79-9.87-15.31-2.83-4.54-4.09-6.47-4.42-6.69-5.79-9.07-4.42-6.7-4.43-7.03-7.71-12.02-1.36-2.16-3.86-6.01-13.61-21.44-17.81-27.68-.91-1.36-.8-1.36-1.81-2.95-6.69-10.44-5.79-8.96-10.55-16.56-12.25-17.93-11.12-18.15-10.32-17.12-9.19-14.86-26.09-39.25-18.15-28.59-2.27-3.86-16.11-25.07-11.46-17.92-6.24-9.76-1.36-2.26 4.88-.46 7.26-.79 18.38-1.82 9.75-1.02 5.79-.68 7.94-.79 7.94-.91 3.18-.34 5.1-.45 4.2-.34.22-1.25.46-1.7.57-2.61.56-1.93 2.05-6.69.11-.57 2.27-7.03 1.59-5.22 1.47-4.99 2.04-7.04 3.75-13.5 1.02-3.4 3.29-11.57.68-2.5 3.51-12.36.23-1.59 4.2-13.95 8.28-29.38 8.51-29.27-18.61-56.26 45.49 9.18 5.34-6.01 7.48-8.85-29.61-25.63-9.52-12.14-6.47-7.83 1.13-1.47 8.74-11.12 26.32 21.89 21.1 18.38 1.13 1.02.91.91 16.45-19.17 21.67-25.64 7.03-8.28 7.26-7.83-1.59-1.81-1.24-.91-2.95-1.36-8.06-6.92-4.08-1.81-9.76-3.41-4.08-1.02-3.75-2.38-6.46-9.42-1.7-2.15-1.82-.68-.34-1.14.23-2.04-.12-1.93-.11-1.7-1.25-1.47-1.81-1.02-2.27-1.25-2.72-1.82-2.05-1.36-.56-2.61 1.13-3.97.8-3.17.22-2.16.23-5.33-.23-3.74-.68-3.41-.79-1.93-3.07-5.55-2.72-3.18-1.02-2.61-.91-2.83-1.02-3.75.91-4.08v-4.77l-1.36-2.49.45-4.54-.22-5.56-1.37-2.61-3.29-2.61-3.06-2.72-5.56-3.97-7.6-7.15-5.9-5.78-1.7-.57-2.27-.11h-4.76l-2.5-.91-3.06-1.93-1.25-1.36-1.25-.57-2.38-.11-1.02.11-2.16-1.02-1.13-2.04-1.7-4.08-2.38-2.5-4.66-1.81-4.42.11-6.92-.34 1.47-5.67 4.66-13.39 2.49-5.67 1.48-3.18 9.75-19.17 5.22-11.91 4.54-10.21 9.07-19.51-92.34-47.64-15.43-7.72-12.25-6.23-1.25-.69-1.93-2.04 13.39-30.4 13.05 6.58 5.56-12.59 9.18-19.06-10.77-5.22-2.27-.79 11.34-27.68 2.95-4.54-7.49-10.77-2.6-3.75-2.73-3.97-9.53-13.84-8.84-12.59-5.79-8.28-2.27-3.4-5.67-12.59-7.15-12.48-1.25-2.72-.68-2.5-.34-2.16v-1.92l.23-2.16.57-2.49 1.58-4.32.8-2.38.45-1.59.68-2.6.34-2.39v-2.15l-.45-2.27-1.02-2.95-1.82-4.88-3.51-9.07-.57-2.5-.11-2.15.22-2.5.57-3.29 3.63-21.55 1.48-10.32 2.04-5.11 1.47-3.29 2.04-3.63 3.75-5.56 4.76-6.8 1.93-2.73 6.69-9.07 1.71-2.38 11.68-17.02 9.98-13.84 8.06-11.46 10.32 8.29 19.17 10.32 49.69 24.27 42.66 5.56 10.09 8.74 3.29-6.81 1.59-3.06 2.04-4.43 7.15-18.71h9.42l3.06.11 18.26 3.74 20.99 4.43 21.1 4.65 16.56 3.97 15.55 3.06 2.61.68 16.67 3.86 10.21 2.72 2.61.68 2.84-10.89 1.59-5.9 1.13-4.65 1.25-4.76 2.27-8.74 1.13-4.42 5.22-19.85 6.01-23.26 2.84-10.89 2.49-9.87 2.27-9.07 2.16-8.28 6.69-25.64.91-4.65 1.25-5.79 1.13-5.44.91-5.22.57-4.2.34-7.14.11-5.33-.68-37.78-.57-24.84-.57-13.95-.56-13.28-.34-9.18-.23-2.95-.68-4.43-.57-2.38-1.02-3.4-.57-1.7-1.92-3.86-4.09-7.15-2.49-4.42-3.18-5.45-2.16-4.19 8.17-6.02.12-.11 5.1-3.74 11.46-8.28 28.02-20.2 18.15-13.04 52.3-37.66 10.43-7.49 6.92-5.1 7.26-5.22 3.07-2.39 3.63-2.49 5.56-4.08 9.87-7.15 10.89-8.05 10.21-7.15 34.26-25.18 4.99-3.63 6.92-5 5.44-3.97 22.92-17.92 15.31-12.7 10.44-8.17 1.82-1.36 8.73-6.7 2.61-1.92 8.62-6.36 11.91-8.39 12.14-8.06 21.1-13.95 11.57-7.6 5.68-3.52 3.4-1.81 7.26-4.2 2.16 2.16 1.58 2.15.91 1.7.57 1.59-.11.68-.12.91-.23.34-5.44 3.97-2.61 1.93-1.25 1.7-1.36 2.5-2.04 5.9-.57 2.61.12 1.24.79 30.06.34 6.7.57 8.73 7.94 26.32-.57 4.31-.68 3.06-4.76 12.82-.91 3.86-.46 3.29-.22 5.78-.91 12.71-1.25 5.56-1.25 2.26-3.51 5.45-3.86 8.28-.57 1.93-1.81 16.67-3.07 17.36-1.92 6.01-2.61 3.75-.34 1.24-.12 1.37.68 2.72 2.61 2.95.46 1.81.11 2.95-1.7 8.4-3.29 11.57.34 6.12.45 2.84-.68 9.64.12 6.58.9 3.74 2.16 3.86.79 1.93-.22 1.93-1.25 3.97-3.75 11.57-.45 2.27v2.83l.91 5.33-.34 3.52-5.11 28.02v1.81l.57 2.73 2.27 7.48.68 10.33 1.36 9.53-.11 1.92-.46 1.03-.68.45h-2.83l-1.93.68-.34.68-.12 1.36.57 2.16 1.82 4.53 2.83 9.19 2.39 5.22 1.36 1.7.9.57 1.14 1.36.79 1.7-.11.68-2.16 2.84-3.4 7.26-1.36 5.56-.57 10.21-.34 1.36-1.13 1.93-4.09 5.21-1.47 3.63-1.14 2.05-6.58 9.41-2.04 4.31-1.02 1.02-3.29 1.93-1.13 1.93-1.7 3.4-16 29.95-1.7 3.97-.57 2.5-1.25 3.74-2.38 4.54-1.13 4.99-2.39 9.75-.45 3.75-.79 3.97-5.56 18.49-1.59 2.95-3.63 11.91-3.18 10.55-6.01 26.2-3.06 16.45.22 2.61 1.25 4.54 4.88 10.66.23 2.27-.12 1.47-1.02 3.97-.79 2.39-2.27 4.08-3.06 2.95-1.25 2.61-2.27 8.17.23 2.72.45.57 1.02.45h.91l1.02-.34 1.36-.34 3.29-1.82 3.18-2.15 3.17-2.61 3.97-2.38 7.72-3.41 4.42-2.38 4.54-3.29 3.52-1.47 7.94-1.7 17.81-1.48 2.72.34 1.93 1.14 1.13 2.83 1.14 2.04 1.59 1.48 2.04.45 4.08-.79.68.11.57.68-.34 1.14-1.36.56-10.55 2.16-.91 1.13-.23 3.86.57 1.25.23.79 1.36 3.86 1.25 1.36 1.36.45 2.84-.11 3.17-.68 8.4-1.02.68.57-.12.68-.34.56-14.29 3.52-3.4 3.4-1.02 2.05-1.93 2.49-3.97 2.16-2.84.68-.79.56-.68 1.14-.91.79-3.63 1.59-2.04 1.36-3.07.46-1.93-.68-4.99.45-3.06.79-2.72 1.14-2.16.22-4.54 1.14-4.08.79-1.7 1.25-1.02 1.36-.46 1.14-.22 1.24.68 2.5-.34 1.25-.57.68-2.38 1.81-.91 1.25-3.29 7.03-4.31 6.02-2.38 6.58-.57 2.38-.34 3.51 1.13 19.06 1.25 14.3.46 5.89.68 2.39 2.04 12.36 1.7 8.28 1.7 13.39 2.27 7.71-.11 3.52-1.7 6.69 3.29 24.5 2.6 7.72 1.59 3.4 2.38 3.97 1.71 3.97.22 1.82-.34 2.26-1.81 6.02-1.14 6.35-1.47 4.76-6.92 7.72-1.02 2.38-.57 2.04v1.14l.57.79 2.27.34.9-.34 1.14-.91 2.61-2.95 2.72-2.27 3.29-1.7 5.79-1.81 3.29-.23 1.47.68.34.57-.23 1.36-1.02 1.93-1.24 1.47-1.25.68-1.93-1.13-2.16-.11-1.7.45-2.61 1.93-1.02 1.25-2.15 5.21-1.25 2.27-1.36 1.25-4.88 2.95-3.86.57-4.2.11-5.1-1.47-5.79-2.16-4.76-3.4-2.04-2.04-3.63-8.29-3.29-10.89-1.14-.68-8.73-2.49-11.01-2.38-17.01-5.45-7.15-1.36-7.49-.68-3.74.23-5.45 1.58-4.65-.22-.57 1.59.12 1.58 9.87 5.11 1.81.45 12.25 1.02 18.5 3.29 10.09 3.18 3.97 2.95 4.31 5.22 2.05 5.78 3.74 5.56 5.67 5.22 8.62 5.44 8.63 2.95 11.34 1.14 3.18.68 2.61 3.4 1.02 3.06.11 4.99-1.25 6.02-4.31 26.88.46 1.14.9.22.68-.11 1.48-1.48 7.26-24.04 12.36-39.25 1.82-3.41 2.15.12 1.14 2.38.68 3.63 2.04 2.61 2.72.45 2.39-.91 2.27-1.36 2.38-.45 2.83.68 2.39 1.13 1.47 2.84-.45 4.08-1.02 4.88-.34 4.09.79 5.55 1.7 3.86.68 3.4.12 7.83.79 7.71 1.59 3.75 3.29 5.22 3.85 4.42 2.39 1.93 1.25 1.93.22 4.42.91 4.43.79 1.58.91.34.8-.22.68.34.11.9-1.48 3.75.46 1.81 1.59 1.25 1.7.68 1.93.57.11.79 2.84 12.25 3.06.23 1.93-.34 1.7 1.14 1.59 1.02 1.25.9.9.91.34 1.14.34.56 1.82 5.79.34 11.8 1.13 8.73 1.25 7.6 1.14 5.22.9 2.04 1.14 1.36.57.8 5.33 4.31 2.04 2.72 1.93 3.06 1.02 3.86v3.74l-.11 6.24 1.58 6.01.46 1.7 2.04 3.41 3.74 1.47 4.77.57 5.22-1.47 8.28-3.86.68.11 1.02.23 3.06 1.93 1.93 3.17 1.59 3.75 1.93 1.93 3.63 2.15 6.35 4.88 6.35 4.54 5.11 1.58 4.2-.11 3.17-.79 3.63-1.82 5.56-4.54 1.25.12 1.02.11 1.13.34.57 2.04.34 3.52.23 2.27 1.59 3.63 2.04 2.27 3.4 4.76 3.97 1.25 2.61 1.13 2.04 2.84 2.5 5.67 2.61 4.31 2.04 4.54 2.16 2.16 2.61.79 2.26 1.7 2.39 6.24 1.13 5.79 1.59 3.74 3.52 4.99 2.95 2.04 4.53 1.36 4.99.57 7.04-.34 5.1.11 1.93 1.02 1.82 2.27 1.02 1.14 2.83 2.27 1.93.56 1.25-.34 1.48-.22 4.99-3.07h1.81l5.45 2.39 2.15-.12 2.27-1.47 3.29-3.41 2.84-2.26 2.95-.69 2.61.35 3.85 2.38 5.22 2.49 3.63 1.25 3.07.68 2.83-1.02 5.56-6.47 3.97-3.85 3.97-2.61 3.63-1.36 3.63.79 2.5 1.14.34.45 2.38 4.2 2.72 7.94 1.25 9.41-.34 3.52-2.72 9.98-.46 3.97.12 11.69.79 2.83.11.46 2.39 4.99.11 2.38-.79 2.95-1.25 2.27-2.38 2.83-1.14 2.05-1.93 6.69-6.46 13.04-1.25 2.04-1.14 1.82-5.78 5.33-1.14 2.72-1.36 4.09-.68 1.81-1.47 2.61-1.93 2.72-1.7 2.95-9.87 9.08-6.58 8.51-1.25 2.83-1.93 2.38-5.67 3.86-14.52 8.62-.57.46-2.38 3.29-2.04 3.29-3.75 3.17-9.98 5.45-4.76 1.24-7.15 1.82-6.35 1.13-11.92-1.81-2.26-1.14-10.33-4.65-6.24-4.99-4.42-4.88-2.04-4.08-1.02-3.17-.12-2.61.91-3.63 2.15-4.54 19.4-16.9 8.17-7.6 13.5-11.8 1.36-2.04.23-1.48-1.02-2.49-7.83-9.42-2.72-3.29-1.93-.57-.57-.22-1.36.79-21.67 18.83-3.97 3.52-19.96 17.13-.91 1.02-1.36 3.06-1.48 1.93-2.61 1.7-3.63.91-4.08.57-.91.11-4.2 1.02-16.78 10.44-2.05 2.04-2.04 2.49-2.04 3.41-11.12 15.42-2.83 9.31-2.5 10.77-2.16 11.46-.79 3.18-1.59 2.61-1.36.79-3.86 1.02-1.7 3.18-1.25 3.85-.79 5.22-1.02 13.5.11 3.18.57 2.49 1.02 2.73.68 1.13 1.02 1.02 1.25.68 2.5 2.61 1.7.79 4.2-1.13.9.34.57 1.25 1.36 5.78 1.36 3.86 1.36 8.96 4.66 12.03 4.99 5.21 7.94 6.7 6.01 3.74 1.93.57 2.04-1.7.68-1.82v-2.38l-3.4-4.42-8.51-8.74-2.95-5.67-2.95-9.98-1.36-11.12.34-3.74 1.47-4.88 1.59-1.36 2.73-.46 16.1.12 5.56-.68 2.05-2.27 1.02-2.73 1.58-7.48.46-26.66.45-3.18 1.7-5.1 2.5-3.18 5.56-4.31 2.83-1.7 4.43.45 5.22 1.48 3.85 2.49 8.97 3.29 4.87 1.48 3.29 1.59 3.86 1.02 6.24.91 10.55-.12 13.16-.57 6.47-1.36 3.51.34 5.68 1.37 3.74-1.25 3.06-1.7 3.97-3.41 6.92-4.08 6.92-3.52 3.75-.91 3.4.8 1.36 1.13.91 1.82-.46 2.15-2.83 8.06-.34 1.36.45 3.06.57 1.48 3.52 1.7 2.72 1.81 4.31 2.84 3.4 4.08 26.89 40.27 2.38 2.27 3.63 2.95 30.18 21.33 23.82 16.11 7.94 6.46 20.42 18.15 12.03 11.69 6.92 7.37 2.27 2.72 1.24 1.48 4.09 6.58 3.63 7.71 2.27 7.94.34 2.04 1.36 7.26.34 8.74.11 11.68-1.81 12.02-.8 6.81-.11 13.39-5.11 11.79-1.7 6.36-6.92 22 3.29 12.37-2.38 4.88-3.97 9.86-3.63 2.27-7.94-1.81-1.25-.23-7.71-1.93-10.67-2.61-4.99-1.02-28.93 4.99-4.76-1.24-9.76.22-10.09 3.75-15.89 13.84-2.27 8.62-3.74 9.53-2.61 11.45-3.17 8.85 3.74 14.64v2.04l1.13 5.22 2.84 7.37 6.24 16.9.34 10.21.34 1.47.34 2.84.11 2.84-.56 3.74-2.5 5.45-4.42 17.24-4.65 3.29-12.14 1.25-7.04-.8-1.36-2.72-8.28-1.93-21.44-.68-15.09 4.65-19.74 24.5-3.63 6.92-8.73 11.46-15.66 20.19-9.19 3.86-4.54 3.4-1.24.34-.8-1.02.12-4.08-.91-.57-1.25.23-7.6 8.62-4.76 14.52-.57 1.93-6.35 20.76-6.81 24.27-6.58-.11-2.61 2.38-2.38 1.7-1.59 1.14-.57.9-2.15 4.31-1.93 5.45-2.38 7.26-.8 2.72-.34 1.36-.11 1.14-.12 2.04.12 1.25.68 4.99.11 2.38-1.02 4.42-8.51 15.43-11.34 18.83-8.06 19.06-5.67 13.39-3.52 8.28 4.54 2.72.57.79.34.8.11 1.13-.45 1.59-.34 1.13-1.02 2.27-1.25 2.16-2.95 4.31-.34.68-1.81 2.61-.46.68-.91 1.81-.79 2.5-.23 1.36-.22 2.84.11 18.49.45 17.92.8 32.33.68 18.49.45 5.45 1.25 7.6 2.72 10.43 1.82 6.92 2.15 5.79 4.2 9.64 4.77 11.12 13.5 27.33 25.97 46.85.46.46.45.57 2.38 2.04 1.48 1.13 2.95 1.36 2.49.68.57.12h.68l2.27-.12 2.5-.68 2.27-1.24 2.15-1.59 2.16-2.61.34-.57.34-.57 1.24-3.06 3.75-10.21 8.17-22.8 4.08-9.64 1.25-2.27 1.81-2.61 3.63-3.29.68 1.93 1.82 1.02 1.59 2.16 2.38 2.49 3.06 2.95 4.31 3.74 2.5 1.93 4.88 3.41 4.19 3.06 1.37 1.02 2.95 2.04 2.26 1.48 3.07 2.15 2.49 2.04 1.82 1.93.68 2.84 2.49 4.31 1.03 1.81 1.24 2.5.57 1.47 1.14 2.95.68 3.18.45 3.17.34 3.29-1.81.35-1.71.22h-.68l-5.22.91-3.85.91-3.18 1.02-3.06 1.47-1.36.91-6.81 5.1-1.25 1.14-1.13 1.02-.8.79-.9 1.03-.8 1.02-1.13 1.47-1.82 2.38-2.61 3.63-1.13 1.59-.34-.91-.46-.9-.9-1.37-1.25-.79-1.25-.34-1.59-.34h-2.61l-4.08.68-4.2.79-8.73 1.71-3.97.45-3.18.45h-3.74l-1.71-.22-2.04-.57-1.7-.91-1.7-1.36-1.7-1.81-1.7-2.39-2.39-3.74-4.31-7.37-10.55-12.94 3.18 5.56 2.27 4.09 4.76 8.73 4.77 8.62 4.65 8.62 4.65 8.63 4.65 8.62 2.27 4.19 5.45 9.76-12.03-12.14-7.26-2.95-1.59 2.38-1.81-1.02-5.22-2.15-10.89-4.2-9.19-3.52-24.62-9.41-7.83-2.95-8.05-2.95-3.63-1.25-4.77-1.7-5.44-1.93-2.95-1.02-16.11-5.9-27.11-10.21-10.78-4.08-2.04-.79-12.48-4.54-1.14-.46-.11 3.75-2.15 5.9-2.39 6.58-.9 2.15-2.39 6.35-5.21 13.62-3.07 7.26-7.94 16.44-1.7 3.18-1.7 3.18-3.07 5.22-.45.9-5.44 8.85-8.51 13.39-1.02 1.58-13.39 21.56-7.83 12.82-6.46 10.43-.8 1.36-2.04 3.63-.57-.79-.56-.79-.57-.68-.57-.69z" stroke-linejoin="round"/></defs><use xlink:href="#b" fill="#9dc8ca" stroke="#6bb4d2" stroke-width="5.76"/><defs><path id="c" d="M2811.25 1482.63l-3.4-2.5-5.11-4.88-3.17-2.49-11.35-3.4-14.4-3.75-16-7.6-7.15-4.99-10.32-8.17-4.2-4.19-13.84-14.07-7.48-8.85-4.43-6.69-4.31-7.83-.68-2.83-.11-4.31 1.81-9.19 2.27-7.72 4.88-10.66 6.24-12.14 3.17-3.51 2.39-1.71 3.51-1.02 4.43-.11 7.03 1.13 6.47 1.48 15.88 3.4 4.31 1.25h3.74l3.52-1.13 4.08-2.39 6.81-2.27 1.93-1.24h2.16l2.26.45 1.82 1.13 1.93 2.61.11 2.95-.23 5.33 1.48 22.92.34 13.72-.45 3.86v4.2l.34 3.52 1.24 2.49 1.82 2.61 1.93 2.16 1.59 2.83 1.36 3.06 1.02 3.18.45 3.97.23 5.56-.45 4.31.79 6.01 1.93 6.81 3.74 10.09 1.93 6.58 1.36 3.52.68 2.72v1.14l-.45 1.59-1.59 2.15-1.82.91h-2.04z" stroke-linejoin="round"/></defs><use xlink:href="#c" fill="#9dc8ca" stroke="#6bb4d2" stroke-width="5.76"/><defs><path id="d" d="M446.97 3529.04l-2.38 2.61-2.05 2.5-1.7 5.78-2.04 17.36-1.25 4.31-2.27 1.59-2.95-1.48-33.35-25.52-5.33-1.7-1.36.11-2.72.57-19.29 7.71-6.58 1.25-10.32.34-6.24.68-10.78 1.59h-2.83l-2.61-.57-3.41-2.27-2.83-2.83-7.38-4.54-6.24-2.04-4.31-5.34-1.59-3.85-1.7-5.22-.79-5.45-1.36-2.15-1.59-1.93-2.95-2.61-6.69-4.31-2.73-2.49-2.49-2.73-3.97-4.53-4.99-6.58-6.92-7.26-16.23-12.71-34.37-19.17-8.17-7.15-1.7-.68-5.22-.56-6.24-.34-1.36-.23-1.13-.68-1.25-1.14-.8-1.13-.68-1.14-.34-1.36-.56-1.02-.91-1.36-.8-1.02-6.58-4.76-13.38 7.03-1.25.34-1.81-.23-2.5-1.02-4.88-4.88-1.36-1.02-4.54-1.13-13.16-.68-1.25-.46-2.26-4.76-6.7-16-14.06-25.18-2.95-5.33-1.82-2.61-4.2-2.72-5.44-2.38-3.97-1.59-5.79-4.09-4.2-2.04-1.13-.22-2.15-.34-16.34-1.03-8.51-2.95-19.06-7.6-7.37-4.65-4.43-2.95 6.92-8.39 18.5-16.33-1.71-1.37-3.51-2.61-9.08-8.05.68-1.93-.79-21.78-.91-18.26.34-6.47 1.25-8.62.45-2.83 2.16-10.21 1.93-8.28 1.02-3.41.79-3.06 1.7-6.69 5.22-20.99 5.9-15.43 7.03-12.36 2.39-1.82 4.99-4.08 2.95-.45h.79l1.02-.12 3.41-.68 2.95.46 3.06.68 1.36.11h2.95l2.5-.68 1.81-1.25 3.97-5.9 1.93-7.82 1.81-9.19-.22-8.74 2.83-7.94 4.31-7.83 1.93-8.05 3.86-6.24 5.67-4.65 4.54-2.5 9.08-2.04 9.75-1.47 3.06-.46 3.29-2.6 11.35-14.52 10.1-13.62 4.87-5.67 15.77-18.49 8.51-9.98 6.01-7.38 3.07-4.42 3.4-5.78 3.97-4.54 8.17-7.38 26.32-22 1.36-1.93 1.36-1.7 1.25-1.93.91-2.38.9-4.09 1.36-4.99 1.14-5.1.91-2.04 1.47-1.93 1.14-1.02 2.38-1.02 3.06-1.14 4.54-1.36.34-.11-4.88-8.28-2.72-4.77 9.19-6.92 9.53-6.92 5.21-3.63.8 1.25.45.79.68.57.91.68 1.59.91 2.27.34 2.38-.34 2.5-.57 4.08-1.93 3.29-1.59 4.76-4.87 7.72-5.56 7.94-4.54 17.92-9.19 10.1-6.8 6.92-7.6 4.08-7.94 1.93-8.51-1.7-5.79-2.72-6.46.34-4.77 2.15-12.93 2.61-7.71.91-11.57.34-6.92 1.48-7.94 2.49-7.38 2.95-6.58 7.38-12.82 10.09-16.9 6.24-16.79 4.65-10.32 10.67-15.88 5.33-7.71 3.17-5.9 1.14-5.22 2.38-7.49 7.03-21.32 3.86-11.35 1.48-5.44 1.81-5.11 2.72-9.07 1.71-6.81 1.36-4.99.68-4.31.45-4.88-.57-4.31-1.13-4.65-1.25-5.45-1.93-6.23-5.9-14.75-1.47-5.11-1.13-4.42-.57-2.95-.46-4.65-.22-5.9-.12-4.88.68-8.28.69-7.6 1.02-7.37 2.15-8.51 2.84-5.1 2.38-4.09 2.5-3.86 2.15-2.83 2.38-3.29 1.48-2.72 1.93-4.65.68-3.97.22-4.43v-5.56l-.11-4.65-.23-5.33-.68-5.1-.11-.68-.45-1.59-.46-1.59-.34-1.25v-1.47l-1.13-7.49.11-6.01.23-4.09 1.25-4.76 1.47-4.42 1.14-3.18 1.24-3.29 1.02-3.52.91-4.31 2.84-16.9.22-4.99 1.59-6.92 2.27-6.01 2.38-5.9 2.39-5.33 2.83-4.77 1.82-3.85 1.81-6.7.8-6.24.34-6.69.11-7.49-.68-6.46-1.47-10.89-2.16-13.27.11-1.93-1.59-12.03v-7.37l-.79-6.81-.23-2.72-1.13-5.78-1.13-6.7-.69-10.09v-8.51l.57-10.1 4.88-14.4 6.47-16.91 1.36-2.83 1.81-2.84 3.29-6.24 3.75-6.8 7.26-14.52.45-.91 3.06-6.35 1.02-1.14 1.37-3.4 2.49-8.05 6.01-15.55 6.47-12.59 3.29-5.78 2.95-4.09 1.59-1.02 2.15-1.36 3.29-1.13 4.54-1.36 4.77-1.71 3.97-1.13 3.17-1.59 2.27-2.95 2.61-4.76 2.04-3.29 2.38-3.86 2.16-3.63 1.48-4.2 1.7-2.49 2.95-2.16 4.42-1.58 4.54-.57 8.96 1.36 10.55.34 31.31-.23 6.35.34 3.07.23 2.15.11 3.86 1.36 3.86 1.71 2.72 1.02 3.06.56 2.38-.56 2.73-.23 3.06-2.95 2.38-4.76 4.88-13.96 1.82-3.74 2.15-2.84 5.22-5.89 3.18-6.7 1.58-4.76.46-4.2-.8-4.76-.68-3.63-1.36-3.18-2.27-3.18-1.81-2.26-2.61-2.84-3.06-2.5-5.11-2.26-4.88-2.05-3.97-3.29-5.67-3.17-3.86-2.84-4.53-5.22-1.48-4.42-2.72-7.49-3.52-14.74-.23-1.93.12-2.5.34-2.49 1.25-3.07 1.7-3.17 1.47-2.05 1.93-2.15 2.38-1.25 3.07.68 3.17 1.93 2.61 1.25 2.38 1.93 2.27.68 2.73-.68 2.49-1.14 3.4-.56 2.61-.23h1.82l1.59-.8 3.29-2.83 5.9-5.11 3.74-3.63 3.74-4.19 6.47-7.26 2.95.22 6.24.57 1.81-.34h.23l3.52-3.4 3.06-8.85.79-12.48-1.47-18.49-.11-.68-7.26-22.01.11-2.27-1.02-2.83-3.52-4.31-2.27-3.4-2.49-2.5-2.39-1.48-2.04-.79-1.47-1.47-1.14-2.16-1.02-2.15-.79-2.16-.23-3.18-.34-1.81-4.31 8.17-.79.56-29.16 23.14-4.88 3.86-.34-.79-.56-.8-.57-.56-.46-.46-.45-.45-.45-.34-.57-.46-.57-.22-.68-.23-1.02-.11h-4.42v-20.87l.11-3.98v-2.26l.57-8.63.11-2.49.34-7.49.34-3.51v-1.82l.11-1.25.23-1.13.68-2.84 1.25-3.51.45-1.14.68-1.36 1.93-2.95 1.14-1.7.68-1.13 2.49-3.07 1.59-.68.8-.79.56-.57 1.59-1.81.68-1.14 1.02-1.7.68-1.36.68-1.7.57-1.48.8-2.49.79-3.07.34-3.17.11-3.29-.11-3.18-.45-3.18-.68-2.49v-2.04l-.12-1.7-.34-1.71-.45-1.02-3.18-8.28 7.15-3.85 5.56-3.18 2.27-1.25 2.72-1.81 3.63-2.84 3.63-3.29 3.18-3.52 3.29-3.85 3.29-4.09 15.54-19.17 6.58-8.39 1.02-1.25 1.81-1.93.8-.79.91-.91 5.67 7.03v-1.7l.34-9.3.34-1.36 1.13-3.74 2.72-9.42.46-8.17 1.02-8.85-.11-9.98-.23-9.75.34-11.12.23-3.86 1.13-4.88 1.02-3.85 1.36-2.72 1.71-2.61 3.28-3.41 1.71-1.02 2.72-1.36 2.95-.34 5.33.11 9.19 1.71 9.08.22 8.5-2.38 5.11-1.7 2.95-2.04 1.81-1.59 2.39-1.93 2.26-2.61 2.05-3.06 2.15-4.77 1.48-3.51 1.02-3.63 1.02-3.07 2.83-4.19 1.93-.91 2.16-1.02 2.72-.34 2.95.68 3.97 1.59 6.01 3.4 2.5.91 2.15-.12 1.71-.68 2.04-1.24 3.4-1.71 3.52-.56 3.4.56 2.5 1.48 4.65 2.15 2.49.46 1.93.45 1.59.91 1.25.11 2.84-.34 3.29-1.36 2.83-1.59 2.72-2.15 16-15.66 2.95-3.06 2.72-3.52 3.41-3.63 2.72-2.26 1.7-1.71 2.04-2.26 5.33-6.13 1.25-2.04 1.36-1.93 2.61-4.99 1.48-3.18.45-1.81.79-4.54 1.03-5.45 1.47-8.16.45-4.43.46-1.7.79-1.25.8-1.24 1.24-1.25 1.59-1.14 1.82-1.58 1.36-.57 3.63-2.38 9.41-7.94 1.48-2.05 2.27-5.44 1.81-3.29 2.05-2.16 1.58-5.1.91-4.2 1.93-4.99 2.72-6.81 3.52-4.87 2.27-2.61 4.08-4.31 3.86-1.82 2.27-.34 3.29-.23 2.27.23h2.61l1.81.68.45 1.14.34 1.92-.56 1.71.11 2.15 1.14 2.16 2.38 1.47 2.38 1.59 4.54 3.4 6.58 1.82 6.92 1.36 1.13.11 1.36-.68 4.31-4.08.69-.68 1.02-1.02 3.06-2.5 1.93-2.04 1.36-2.72 1.93-3.29 2.49-3.63 3.75-3.41 1.24-1.02.69-1.93-.91-2.83-1.7-2.72-4.09-5.22-1.59-2.5-.45-1.02.57-2.72 1.47-3.29 1.7-1.25 1.93-.34 2.27.68 4.99 1.82 8.4 4.31 4.54 1.47 4.19 1.14 4.43 2.83 6.12 1.82 2.95-.57 5.56-2.72 2.04-1.7 2.5-.68 2.84-.34 2.72.11 1.93-.57 1.13-.79 8.28-7.72 3.75-1.13 2.61.34 2.6 1.7 1.82 2.04 2.16 1.25 1.58.79.57.12 2.27-.12 2.38-1.02 2.04-3.4.8-1.81.79-2.05 1.02-2.61 2.5-9.41 1.25-2.04 2.61-2.95 2.6-2.84 7.83-3.85 3.52-2.73 2.27-1.36 2.27-2.61 2.83-4.65.46-2.61 1.02-6.92 1.25-3.4 1.47-3.63 3.18-4.76 2.27-2.39 2.95-2.83 2.83-2.73.91-.45 4.2-2.95 2.15-.79 1.14-.57 3.06-.34 4.08-.68 2.61-1.13 3.07-2.05 4.99-5.1 4.31-2.61 4.54-.91 5.78-3.17 1.7-3.29 1.25-3.18 2.38-2.95 2.61-1.81 3.75-.57 1.13.45.79.23h2.61l2.27-.8 2.73-1.58 2.38-2.84 1.47-2.38 1.59-1.48 1.93-1.81 2.49-2.04 2.39.9.56 1.37 3.63 7.6 2.5 4.87 1.02 1.93 3.86 7.15 5.33 10.78 3.4 6.8 6.02 11.46 4.42 8.51 6.13 11.91 2.49 4.76 6.92 13.39 4.31 8.62 2.27 4.88 2.04 4.31 1.14 2.38 1.93 3.86 2.83 5.78 4.99 9.98.23.46 6.47 12.59 1.25 2.5 10.09 20.98 1.7 3.74-2.49 3.18-4.65 6.01-1.25 1.59-1.93 2.61-1.47 1.93-1.37 1.81-1.02 1.59-1.81 2.84-2.61 4.54-1.25 2.26-1.36.91-6.35 11.23-14.86 26.77-6.02 10.78-13.38 24.05-11.23 19.85-13.5 24.5-16.68 30.29-2.38 4.08-3.18 5.56-2.15 3.52-2.5-1.02-6.01-1.93-16.22-3.06-11.46-2.16-6.02-2.15-3.85-1.48-9.08-4.31-3.63-1.47-2.72-1.37-2.5-.9-1.24-.46-5.79-1.36-.68-.11h-4.65l-4.54.23-3.18.34-1.24.34-2.61.68-4.09 1.59-4.19 1.81-9.19-1.81-10.44-6.02-11.34 18.61-7.04 11.79-7.6 13.05-7.94 14.52-14.63 25.75-1.03.91-16.33-46.63-11.23-6.57-1.02-.57-5.9-5.33-7.83-4.77 6.13-10.43 2.72-5.11-2.5-1.7-8.62-6.47-24.84-15.42-3.07-1.93-6.12-3.97-13.39-8.51-9.75-6.35-.46-1.25-2.38-2.16-1.82-1.81-1.58-1.93-1.37-2.15-1.36-2.61-1.7-3.86-1.13-2.61-9.76 5.67-5.1 2.95-5 2.84-29.94 17.01-29.73 17.47-1.59.91-12.25 7.03 1.14 2.61 1.02 2.27 1.13 2.84.91 2.95.57 2.83.22 2.72-.11 3.52-.34 4.54.11 2.83.46 2.61.57 2.61.9 2.39 1.14 2.26 1.47 2.05 1.82 1.92 2.27 1.93 2.72 1.82 3.63 2.49-3.52 9.76-10.09 29.49-1.14 4.09-1.36 3.74 18.38 7.71 3.06 2.39-17.58 21.55-14.98 18.49-7.48 8.39-6.36 9.65-3.97 8.28-34.49-21.67-54.45-34.37-4.2 3.17-3.85 3.52-4.99 3.86-4.77 3.29-3.97 2.04-3.97 2.04-2.84 1.82-.34.22-7.37 5.34-3.63 2.6-2.38 1.37-.12.34-1.81 2.38-1.7 3.63-1.14 2.83-.79 2.39-.46 3.17-.11 2.72-.79 2.95 1.47 3.18 1.36 5.1.23 2.84-.34 2.95.23 2.84 1.81.79.57.23 5.44 2.49.57.34.46.23 3.74 2.04 3.74 2.38 3.07 2.39 2.38 2.15 3.63 4.09 5.1 6.23 6.02 8.17 10.32 13.84 7.03 8.96 3.97 4.88 3.07 3.29 3.97 3.63 6.12 5.11 3.41 3.28 3.4 3.98 1.81 2.15 3.75 4.88 3.17 3.85 3.07 3.18 2.83 2.5 2.73 2.04 2.95 1.81 3.29 1.48 3.4 1.13 2.04.57 3.29.68 2.72.68.8.11 2.38.46 2.72.57-3.17 10.09-.34 1.14-1.48 4.53-3.06 11.46-1.25 5.45-.11.34-.46 2.49-.11 2.16.23 1.13 1.02 2.16 1.13 1.13.8.57 1.47.45.34 4.09 1.25 2.49 5.9 4.88 2.61 1.81 1.7 1.93 1.02 2.04.23 1.37.11 1.7-1.47 5.56-5.11 4.65-5.9 3.63-1.25 3.63-.34 8.62 1.25 9.07-.23 5.9-1.58 13.27-2.16 15.77-.91 11.8 41.3-8.4 79.29-65.11 2.95 2.72 4.77 4.66 3.74 4.42 3.18 4.2 2.61 4.08 2.15 3.74 2.16 3.86 1.02 1.93.68 1.81.91 2.16 1.24 3.97 1.14 4.2v.56l.34 1.93.34 3.07.34 3.4.45 6.24.34 3.74.57 5.45.34 2.95.34 3.17.34 2.72.34 1.82.46 2.49.45 2.95.68 2.84.57 3.18.79 3.17.68 2.5.8 2.61.79 2.72.8 2.5.9 2.72 1.02 2.83 1.59 3.86 1.48 3.52.9 2.27 1.93 3.74 1.36 2.83 1.59 2.84 2.84 5.45 8.62 14.97 10.1 17.58 11.23 19.85 10.21 18.15 2.49 4.43.91 1.47 1.14 2.04.68 1.14 1.13 2.04 1.02 1.59 1.7 2.95 1.82 2.83 8.73 13.73.46.79 2.61 3.63 3.4 4.54 2.84 3.4 4.99 5.56 2.61 2.73 1.93 1.81.68.57 1.81 1.59 4.31 3.74.57.45 3.06 2.39 3.63 2.49 3.07 2.04 2.04 1.25 1.7 1.14 1.25.68 2.72 1.58 6.58 3.86 7.26 4.08 5.45 3.41.79.57 1.25.9 3.51 2.73 5.45 4.42 4.31 3.74 4.08 3.52 3.29 2.95 1.25 1.13 1.59 1.36.34.34 1.93 1.82 1.93 2.04 1.81 1.93 2.04 2.27 2.5 2.83 2.04 2.5 1.7 2.16 1.25 1.7 1.36 1.81 2.61 3.52.8 1.13.68 1.14 1.59 2.49 2.94 4.99 1.93 3.29 3.07 5.68 3.85 7.14 1.59 2.84 2.38 4.31 3.52 6.69 5.33 10.1 2.04 3.97 5.9 11 2.39 4.43 15.88 29.94 16.11 30.06 11.91 22.12 1.36.91 5.45 9.64 4.87 8.85 4.77 8.74 1.7 3.4 1.59 3.18 3.51-3.41 3.29-3.29 5.79-5.67 4.08-3.97 1.37-1.36 17.92-16.79 20.53-19.85 11.91-11.46 7.15-6.8 21.33-20.54 1.02-.9 17.81-17.13 15.77-15.2 3.63-1.48-.91-1.02 18.61-17.92 4.42-4.31 25.75-24.51-19.74-24.95-13.27-17.7-9.19-12.14-21.78-29.49-21.33-27.22-34.14-42.66 8.39-7.82 31.65 40.27 8.51 11.45 13.73 17.25 2.04 3.17 1.25 1.59.9 1.13.46.69.91.56.79.23.79.34h.8l.68-.34.45-.45.34-.23 1.36-1.25 12.82-12.36 18.04-15.88 17.36-16.34 16.79-16.56 17.47-16.45 3.06-2.95.23-.23 13.95-13.16 3.52-3.51 3.17-2.95 4.77-4.54 2.38-2.27 2.5-2.38.34-.34 1.36-1.25.91-.91 2.27-2.15 13.16-12.48 17.13-16.56 17.35-16.22 8.96-8.51 7.95-7.49 10.43-10.32 5.56-5.44 1.7-.34 3.41-2.84 15.08 19.28 7.6 9.87 6.24 8.17 3.52 4.54 8.17 10.55 3.74 4.88 2.5 3.06 4.2 5.44 7.14 8.96 1.14 1.59 1.13 1.36 6.81 8.85 7.6 10.32 6.35 8.06 6.24 7.83 1.25 1.58 1.59 2.27 6.35 7.83 1.59 2.16 3.86 5.1 4.53 6.13 1.93 2.38 6.47 8.85 1.93 2.04 4.76 6.24 4.2 5.44 9.75 12.93 5.68 6.58 7.14 9.19 4.2 4.88 1.25 1.59-41.41 39.47-17.58 15.54-50.14 48.67-17.25 16.9-44.13 44.47-50.93 48.89-4.09 4.31-.45.91-.11 1.36.34.91 35.84 45.71 16.34 21.44 25.98 32.79 8.51 11.23 13.27 17.69 22.01 28.13 23.25 30.63 11.58 14.64-1.25 4.53-2.16 4.31-.57.8-3.74 4.65-4.54 4.76-4.76 6.81-4.2 7.37-6.01 11.46-6.24 10.66-5.9 7.94-4.99 7.38-3.74 4.08-2.61 2.27-2.16 1.13-3.06.69-3.75-.12-5.33-1.02-2.83-.57h-3.29l-2.61 1.25-1.82 1.7-.79 1.82-.23 1.7.34 2.72 1.59 4.43.57 3.29-.23 2.38-4.08 19.28-1.48 4.09-1.13 1.47-11.01 5.67-1.59 1.48 3.18 3.29 8.74 7.71 3.63 2.61.68.57 4.08 2.15 5.56 1.59 3.63 1.14 3.29 1.47 1.25.57.68.22 1.13 1.25.57 1.14.57 1.58.22.68v.8l.34 2.38 1.25 3.74-6.35 1.03-6.13 1.13-2.04.34-1.25.23-1.36.22-1.36.34-4.2.57-2.15.57-3.63.91-6.13 2.15-2.95 1.48-2.72 1.24-2.95 1.25-1.36.57-2.95 1.25-2.16 1.02-2.27.91-2.49.9-5.79 2.16-13.38 5.1-8.17 3.29-8.62 3.52.34 1.47-2.16.8-2.61.91-2.72.9-12.25 3.63-4.09 1.25-3.06 1.02-3.06.91-3.97 1.36-4.88 1.48-4.08 1.24-5.45 1.82-3.74 1.25-3.63 1.36-3.18 1.24-7.26 2.95-2.72 1.25-3.18 1.25-10.66 4.2-3.52 1.24-2.5 1.03-.9.22-2.84 1.14-7.26 2.72-5.33 2.27-4.99 2.04-6.58 2.38-2.84 1.02-3.18 1.25-.45 7.6-.91 3.29-1.7-4.2-1.7-4.65-4.99 1.7-1.14.46-3.51.91-1.36.22-.23.12-11.8 2.15-27.23 4.77-1.36.34-2.61.34-9.41 1.81-4.54.91-2.38.45-1.7-.68-2.95.57-4.88.91-22.46 4.08-6.13 1.13-5.56 1.03-3.97.68-2.38.45-12.82 2.16-30.74-12.82-186.62-117.52-.91-5.11-1.81 3.4-1.48 2.84-.79 1.47-.68 1.14-.68.91-.91 1.47-1.25 1.7-1.13 1.48-1.25 1.59-2.38 2.72-2.38 2.38-2.61 2.38-1.36 1.14-2.5 1.81-1.59 1.25-1.36.91-2.38 1.47-3.75 2.5-1.7-2.73-1.59-2.72-2.95-1.02-4.87-1.93-1.59-1.02 5.78-5.56 1.82-2.15 2.04-2.72 1.93-3.18 3.29-6.47 1.02-6.92.23-1.02 1.36-5.78-10.55-5.11-2.61-2.15-.57-1.7-1.7-8.4-.79-2.83-.91-1.48-2.27-1.93-5.33-2.61-14.18-5.33-37.1-20.76-6.92 9.53-13.73 18.72-24.95 60.57-7.04 8.17-1.58 1.7-1.82 3.86-24.39-5.22-8.74-2.15.23 2.15.23 1.7 1.93 14.75-41.64 125.24-5.67 16.67-.23.57-4.19 8.62-2.73 12.48-15.88 32.78-15.77 32.78-46.85 97.9-3.63 7.72 27.68 7.6 1.82 7.6 2.72 11 10.89 38.91-1.48 6.92-2.04 6.69-4.88 15.54-13.72 23.82-5.9 15.54-25.64 38.35-10.32 15.99-23.03 39.02-12.37 17.02-4.54 8.85-24.95 48.21-17.7 31.99-34.94 60.91 63.19 47.31 3.85 2.83-.22 1.02-.68 2.5-.91 1.93-1.02 1.7-1.48 1.36-1.58 1.25-1.93 1.02-2.05.68-2.94.68h-.91l-.91.11h-1.02l-.68-.11h-.23l-.91-.11-2.38-.57-3.86-1.36-11-4.54-1.36-.57-15.09-6.46-6.47-2.61-2.04-.68-.68-.12-.68-.11h-.57l-.68.11-.68.23-1.02.57-.57.57-4.08-6.7-5.9-8.28-17.92-22.8-4.65-5.56-1.02-4.31-.8-4.31.34-3.17.8-4.09.34-2.27-.8-3.17-1.59-2.5-1.47-1.7-2.04-1.13-5.9-1.48-2.04.45-3.97 2.27-1.48 1.93-1.47 1.59-4.88 2.38-5.11 2.16-7.26 2.15-3.29-.22-3.29-.91-3.29-1.7-2.61-2.73-2.15-1.92-2.84-1.14-2.95-.23-6.01.23-7.26 1.7-2.84 1.36-.56.68-3.18 6.58-3.74 6.58-.57.57z" stroke-linejoin="round"/></defs><use xlink:href="#d" fill="#6bacaf" stroke="#097d9b" stroke-width="5.76"/><defs><path id="e" d="M1724.69 1970.52v-1.93l-2.95-5.89-2.61-4.88-2.5-5.11-2.83-5.33-1.25-2.15-2.61-4.2-1.13-1.7.34 2.27-.46 1.13-1.13-1.7-.91-1.48-.79-1.24-.91 3.06-1.82 5.78-.56 1.82-.8-1.02-6.58-10.21-4.99-8.39-5.67-9.53-12.48-19.17-1.82-3.07-9.18-13.95-20.65-31.54-24.73-38.79-12.82-20.08-6.69-10.44-3.98-6.35-33.12-52.29-10.32-15.88-19.4-29.84-10.44 8.51-10.32 8.28-4.77 3.74-4.76 3.86-16.34 13.39-19.62 15.88-8.74 7.03-3.29 2.5-1.81 1.02-12.71-31.43-8.51-20.3-8.28-19.4-12.93-30.17-4.99-11.46-8.97-20.53-3.74-8.62-3.74-8.51-.8-2.16-2.04-4.76-.34-.68-1.36-3.4-1.14-2.73-5.1-11.57-6.69-15.77-6.58-14.86-2.5-5.78-4.99-12.59-2.61-6.24-1.81-4.09-2.5-5.78-2.72-6.35-2.39-5.45-2.83-6.69-6.35-14.41-1.71-3.97-1.7-3.97-2.72 1.14-4.88-1.14-2.95-5.1-.91-1.7-6.24-11.01-1.02-2.04-3.51-7.49 4.65-6.01 2.49-3.18-1.7-3.74-10.09-20.98-1.25-2.5-6.47-12.59-.23-.46-4.99-9.98-2.83-5.78-1.93-3.86-1.14-2.38-2.04-4.31-2.27-4.88-4.31-8.62-6.92-13.39-2.49-4.76-6.13-11.91-4.42-8.51-6.02-11.46-3.4-6.8-5.33-10.78-3.86-7.15-1.02-1.93-2.5-4.87-3.63-7.6-.56-1.37-2.39-.9 1.59-.91 4.54-1.7h2.27l1.93.45 2.15 1.7 2.05 1.36.45.23 2.04.91h1.7l1.14-.68 2.83-2.5 2.5-1.81 2.38-1.59 1.59-.57 1.82-.68 2.72-.57 3.85-4.53 13.39-3.75 4.09.12 1.36.68.56 4.08.68 4.09 1.59 4.87 1.14-1.24 2.38-1.48 12.59-11.46 2.38-.45 5.34-2.72 2.49-.68 1.25-1.59.68-1.36 7.49-8.96 2.38-2.05 1.36-2.49.91-4.43-.68-3.85-.8-3.18-.79-3.06-.45-2.95-.23-4.2.34-2.49 1.02-2.84 3.4-5.22 1.82-2.04 1.02-2.61.57-4.31.68-3.06 3.17-4.88 8.29-6.24 7.48.34 1.36.45 1.59.91 1.14.68 1.93 1.93 1.81 3.18 1.02 3.06.91 2.5 2.61 4.76 1.13 1.25 1.93-.23 2.5-1.7 1.7-1.82 3.4-5.1 2.84-2.95 3.86-5.1 2.6-3.97 1.71-3.75 4.87-12.36 3.63-8.74 2.73-6.58 3.51-7.14 2.73-3.52 3.51-.91 3.29.91 2.61 2.72 1.59 4.43 1.02 13.61.46 2.27 1.58 1.13 3.18-.11 2.5-.23 1.81-.79 1.02-.57 1.14-1.02.79-1.02 1.02-1.48.68-1.7.46-1.7.34-2.27.34-1.59.45-2.72-.11-1.36-.23-1.25-.11-.56-.23-.34.11-.91.46-1.02.68-.57 1.13-.34 1.36-.34 1.36.11 1.71.46 1.58.79 1.59.91 1.59 1.7 1.48 1.59 1.36 1.47 9.3-18.94 1.25-.34 3.29-2.72.9-.57.91-.46.34-.11 1.48-.23 1.47-.11 1.7.34 1.93.68 1.7.91 2.16 1.59 4.42 2.95 1.93 1.36 1.82.79 1.02.8 1.59 1.24 1.58 1.25 1.14 1.48.79.79 1.36.91 1.48.57 1.7.22 2.04-.22 2.27.11 2.16-.34 1.36-.68 1.02-1.02.79-1.25.8-1.36.45-1.48.34-1.25v-1.81l-.34-2.72.12-2.16.22-1.81.46-1.82.34-1.36.9-2.04.8-1.14 1.02-1.02 1.81-.79h.68l1.03-.11 1.58.45 1.25 1.02 1.14.68 2.26.91 2.05.91 2.04 1.02 2.72.79 1.7.34h1.59l3.18-.45 1.47-.46 1.7-.22 2.73.56 2.38.57 1.81 1.25.91 1.25.57 1.36.11 2.15.12 2.84v2.5l-.34 1.81-.8 2.72-.34 1.82-.34 2.15-.68 1.59-.45.91-1.14 2.49-.45 1.82-.34 1.7.22 2.27.23 2.04.46 1.59 1.36 1.13 1.24 1.03 1.59.79 1.82 1.25 2.49 1.81 2.5 1.93 2.04 1.02 1.48.8 1.47 1.02 2.27 1.47 1.59.68 1.93.91 2.04.34 1.93.11 2.04-.45 1.93-.91 1.7-.79 1.13-1.02.68-1.25.34-2.72.57-3.97.57-3.41.68-3.17.79-1.82.68-.68 1.48-.68 1.59-.11h.22l1.25.11 1.02.57 1.25.79 1.25.34 1.59.12 1.47-.23 1.14-.34h1.13l1.25.45 1.02.8 1.02 1.02.8.9.22.35.91 1.58.68 1.82.11 1.02.23.79.79.91 1.03.57 1.13.34h1.25l1.25-.23 1.24-.23 1.37-.68 1.58-1.24 1.36-1.59 1.37-2.04 1.02-1.37 1.36-1.47.79-1.47.68-2.05.34-1.81.23-2.04.23-2.39.11-1.92-.23-1.37-.45-1.7-1.02-2.27-1.14-3.17-1.13-2.38-.91-1.71-.79-1.24-.57-1.25-.68-1.02-.11-.34-.12-.68.12-1.14.45-1.25.79-1.13.91-.91 1.14-1.25.22-.22 1.14-.8 1.7-1.36 1.47-.9.35-.23 1.81-1.14 1.36-.56 1.02-.57 1.36-.11h1.71l2.38.45 1.36.68 1.7 1.36 1.7 1.48 1.59 1.58 1.36 1.25 1.48 1.02 1.58.46 1.59-.12h.23l2.72-.9 1.7-1.25 1.82-1.14 7.37-4.87 7.15-5 2.72-1.7 1.93-.9 1.14-.68 2.72-1.14 1.47-1.13 1.48-1.59 2.04-1.7 2.04-1.02 2.04-.91 2.05-1.36 1.81-1.36 2.38-1.82 1.36-1.59 1.37-1.7.79-1.81.79-3.41.68-1.58.8-1.25 1.25-1.36 1.36-1.03 2.15-1.24 1.93-.8 1.7-.11 1.59.34.91.45 1.36 1.02.91 1.71.34 1.58v1.71l.23 2.38.34 1.7.11 1.81-.34 2.5-.23 1.82.12 1.92.11.23.68 1.7.57.68.34.46 1.13.79 1.02.34 1.25.11.57-.11.91-.11 2.04-.46 2.72-1.02 1.7-.34 2.61.12 3.06 1.13 3.86 1.59 9.98 4.88 2.95.56 4.77.23 4.65 1.02 3.06 1.25 4.99 2.04 4.54 1.48h1.7l1.82.22 2.72.34 2.04.57 1.36.68 1.93 2.04 2.05 2.5 1.47 3.74.57 2.27 1.59 6.47 1.81 3.51 1.82 2.38 1.92 1.14 3.52.91 1.14.45 1.02.34 1.81.57 2.95.34 2.5.57 11.79-.8 5.56-1.81 3.29-2.39 2.73-4.87 1.58-3.41 2.61-6.24 1.02-4.53.91-1.93 2.38-4.09 4.09-3.06 4.65-1.02 1.81.34 2.16.23 3.18-.91 3.4-.68 6.92.34 4.42-.11 4.66 1.81 2.38 2.5 1.7 4.08 1.13 2.04 2.16 1.02 1.02-.11 2.38.11 1.25.57 1.25 1.36 3.06 1.93 2.5.91h4.76l2.27.11 1.7.57 5.9 5.78 7.6 7.15 5.56 3.97 3.06 2.72 3.29 2.61 1.37 2.61.22 5.56-.45 4.54 1.36 2.49v4.77l-.91 4.08 1.02 3.75.91 2.83 1.02 2.61 2.72 3.18 3.07 5.55.79 1.93.68 3.41.23 3.74-.23 5.33-.22 2.16-.8 3.17-1.13 3.97.56 2.61 2.05 1.36 2.72 1.82 2.27 1.25 1.81 1.02 1.25 1.47.11 1.7.12 1.93-.23 2.04.34 1.14 1.82.68 1.7 2.15 6.46 9.42 3.75 2.38 4.08 1.02 9.76 3.41 4.08 1.81 8.06 6.92 2.95 1.36 1.24.91 1.59 1.81-7.26 7.83-7.03 8.28-21.67 25.64-16.45 19.17-.91-.91-1.13-1.02-21.1-18.38-26.32-21.89-8.74 11.12-1.13 1.47 6.47 7.83 9.52 12.14 29.61 25.63-7.48 8.85-5.34 6.01-45.49-9.18 18.61 56.26-8.51 29.27-8.28 29.38-4.2 13.95-.23 1.59-3.51 12.36-.68 2.5-3.29 11.57-1.02 3.4-3.75 13.5-2.04 7.04-1.47 4.99-1.59 5.22-2.27 7.03-.11.57-2.05 6.69-.56 1.93-.57 2.61-.46 1.7-.22 1.25-4.2.34-5.1.45-3.18.34-7.94.91-7.94.79-5.79.68-9.75 1.02-18.38 1.82-7.26.79-4.88.46 1.36 2.26 6.24 9.76 11.46 17.92 16.11 25.07 2.27 3.86 18.15 28.59 26.09 39.25 9.19 14.86 10.32 17.12 11.12 18.15 12.25 17.93 10.55 16.56 5.79 8.96 6.69 10.44 1.81 2.95.8 1.36.91 1.36 17.81 27.68 13.61 21.44-15.54 21.55-7.15 2.95-3.06 1.13-1.48.23h-1.47l-2.38-.23-2.95-.9-5.79-3.41-1.47-1.24-1.25-1.02-1.48-1.25-1.24-1.48-2.95-3.85-2.84-3.86-9.98 7.71-3.97 3.52-13.84 12.14 4.08 5.67 1.02 1.81 2.61 4.2 3.18 5.45 3.74 5.67.79 1.36.57.91 8.85 13.61-20.53 8.05-16.34 6.7-4.08 1.92-20.88 8.63-23.59 9.86-19.97 7.95-2.38 1.02-18.15 7.71-5.9 2.5-11.01 4.87-7.03 8.51-4.08 4.99z" stroke-linejoin="round"/></defs><use xlink:href="#e" fill="#09757a" stroke="#00465f" stroke-width="5.76"/></svg>