<svg width="384" height="518.4" viewBox="0 0 2880 3885" xmlns="http://www.w3.org/2000/svg" xmlns:xlink="http://www.w3.org/1999/xlink"><path fill="#fff" d="M0 0h2880v3885H0z"/><defs><path id="a" d="M1506.89 1906.2l1.21 12.14-10.32.97-9.83.85-.97-12.26-4.13.36-5.46.49-2.19.24-1.33-13.35-1.21-10.69-1.22-10.44-1.21-10.68 8.62-.85 8.62-.73 8.61-.73-1.21-10.56-.48-4.74-.49-5.46-.97-8.01-.49-4.74 8.38-.85 10.2-.97-.73-8.13-.12-.24v-.25l-.12-.12-.13-.12-.12-.12v-.12h-.24l-.61-9.96-.85-7.28-1.21-11.05-1.09-9.35 4-1.7 8.74-3.52 2.92-1.21.12 3.64v8.74l.24 1.94.24 2.55.73 4.01.73 3.4.24 2.06.25 3.16 10.07 1.58 15.54 2.3-.24 3.65.6 7.28.61 5.22.12 4.61v1.46l-1.7 5.83-.36 1.82-.24 3.16.12 1.33v.12l1.21 11.29 1.46 11.54 1.33 3.52.25 1.09.12 1.34-.24.97-.37.73-1.21 1.82-.49 2.18-.24 1.22v1.21l.24 3.04.85 8.25 1.34 12.38-9.71.98-6.2.6-1.7.25-2.54.24-6.92.73-4.37.36-3.16.37-6.31.72-4.98.49z" stroke-linejoin="round"/></defs><use xlink:href="#a" fill="#cee3e4" stroke="#cef5f5" stroke-width="5.76"/><defs><path id="b" d="M1583.98 1898.31l-7.65.73-3.77.48h-.48l-.73.12h-.85l-1.58.25-2.06.12-5.83.6-5.7.61h-.97l-1.58.24-1.34-12.38-.85-8.25-.24-3.04v-1.21l.24-1.22.49-2.18 1.21-1.82.37-.73.24-.97-.12-1.34-.25-1.09-1.33-3.52-1.46-11.54-1.21-11.29v-.12l-.12-1.33.24-3.16.36-1.82 1.7-5.83v-1.46l-.12-4.61-.61-5.22-.6-7.28.24-3.65-15.54-2.3-10.07-1.58-.25-3.16-.24-2.06-.73-3.4-.73-4.01-.24-2.55-.24-1.94v-8.74l-.12-3.64-.12-2.31-.13-2.55-.72-9.47-.13-.61-.24-2.06-1.94-9.83 34.23-2.55 6.56-.37 7.28-.6 3.4-.37 4.86-.24 3.15-.49-1.82-14.69-.36-1.21-1.09-4.01-.61-1.82-.73-1.82-.73-1.46-2.43-3.64-2.18-2.91-1.22-1.34-2.67-2.18-2.06-1.58-.49-.37-3.39-2.67-8.02-5.95-2.91-1.57-1.7-.73-1.58-.49-1.33-.36-2.07-.25-4 .13-7.77.72-17.24 1.46-.61-5.1-.73-3.88-1.21-4.01-.85-2.18-1.82-4.01-2.06-4.01 4.73.73 4.86.85 1.7.24 10.31 2.19 6.32 1.7 2.55.85.24.24 8.38 3.16 3.76 1.82 4.37 2.18 6.19 3.28.24.12 6.32 3.77 2.91 1.82.97.61 10.2 7.64 6.43 5.35.97.85 4.01 3.64 3.76 3.4 5.95 6.43 2.43 2.55 2.43 3.16-2.19 2.67-2.31 2.31-1.7 1.09-1.94.97.25 2.31v1.82l-.25 1.45-.24.49-1.34 2.91-.48 1.46v.97l.24 1.7v.12l.49 1.1.36.6.37.25 8.25 2.67 1.21.48.73.49.25.36.12.12.97 1.34.12.36.12 1.34-.24 1.82-.49 1.21-.36.73-1.34 1.34-.97.48-2.79.37h-1.09l-3.52-.73-1.46-.24-2.06.36-1.82.61-3.4 1.94.48 1.46.24 1.09.49 4.61-1.21.73-.61.37-.61.72-.6.85-.37.97-.61 2.55-.12 1.22v3.64l.25 1.7.12.73.24.36 4.98 7.53 2.06 2.67.61 1.58.36 1.09.24 1.34.13 1.45.24 3.04v1.34l.12 3.76 1.21 2.31.61 1.09-6.31-1.09-8.98-1.34-6.32-1.09v2.18l-.24 5.59v2.3l12.63-1.09 9.83-.97.61 5.1.6 5.95.49 4.13.6 7.77.13.97.85 7.89.36 4-11.05 2.55.97 8.75.61 5.94.12 1.34.25 1.7.6 6.43.25 1.7.36 3.89.24 1.94.97 9.11-1.94.24-7.4.73z" stroke-linejoin="round"/></defs><use xlink:href="#b" fill="#cee3e4" stroke="#cef5f5" stroke-width="5.76"/><defs><path id="c" d="M819.91 3831.46l-61.67 5.83-8.74.36-64.34 6.8-5.71.49-9.71.85-14.08 1.21-.24-2.79-.12-2.67-1.1-25.74-.24-2.55-.12-2.43-.85-6.31-.12-2.19-.37-4.37-.12-8.98v-5.1l-.12-3.89-.36-3.88-.37-1.58v-9.95l-.73-14.33-.24-3.28-1.58-22.7-.36-9.23-.85-15.78-.73-8.74-70.04 6.19h-2.8l-4.37.48h-1.82l-1.21-.12-1.09-.36-1.34-.61-1.34-.61-.72-.36-1.34-.12-3.16.24-1.45.24-.61.49-.85.85-.61.85-.85 1.34-1.09 1.33-3.28 2.91-1.57.98-1.34.48-1.33.24h-1.22l-1.58-.85-1.82-.97-2.55-1.33-2.18-.85-1.82-.49-1.82-.24-3.4.24-3.52.12-4.01.25-4.86.12-7.4.73-7.53.6-4.37.25-2.3.12-10.93.97-9.59 1.94-4.86.49h-2.06l-6.55.6-5.83 21.49-4.13 17.36-1.7 7.17-.24 1.82-.73-.12-6.19-3.77-7.65-9.59-5.22-4.61-5.1-2.91-3.76-3.28-.12-3.4 2.67-6.92-.85-3.28-9.59-15.3-1.58-5.22-5.83-10.92-2.06-5.1-2.55-11.05-3.88-6.68-5.35-3.64-5.7-9.84-1.09-10.56 6.67-17.48-.12-9.96 3.4-12.26 2.67-7.16 3.4-17.6-1.21-7.53-4.37-5.71-7.05-4.49-44.79-20.15-10.93-7.29-11.77-11.41.97-.85 1.09-.85 2.31-1.33 2.31-.13 2.42.73 4.25 2.43 7.53 4.25 13.35 7.65 15.91 8.5 3.88 1.45 19.3 5.59 5.83 1.58h3.64l5.1-.97 2.55-.73 1.82-.97 1.46-1.58 7.28-11.05 1.46-1.46 17.84-12.26 6.31-3.64 1.34-.61 8.38-.97 2.3-.61 2.43-2.06 3.04-4.25 2.42-3.52 3.89-9.23.97-2.91 1.58-5.1-5.59-56.33-2.79-28.41-8.25-59.98-1.95-13.84-.48-3.4-.12-21.36v-9.72l.12-3.03-.73-6.68-1.34-12.87-9.22-95.54-6.44-60.47-.24-1.94h-.48l-9.59-92.39-9.47-91.78-7.53-73.69-.73.24-3.88 2.18-2.07-1.33-.97-.49-.6-.24-4.62-.49-1.33-.12-3.77-.73-4.97-.6-9.35-.97-4.37-.49-5.95-1.34-1.58-.6-1.7-.97-11.89-9.96-3.16-2.18-1.34-.37-2.3-.85-4.74-.61h-1.09l-2.31-.24-11.16-.73-14.33 4.13-3.88.61-3.04.12-2.43-.49-2.42-.85-2.07-1.45-2.3-2.55-4.98-6.44-.97-1.09-4.98-6.07-2.43-3.52-.36-.24-2.43-1.46-2.91-.61h-.61l-1.21.25-.25-.98-.12-.72.24-.61.37-.37.61-.24 7.76-4.73.85-1.1.49-.6.61-1.22.24-.97.12-2.06v-1.34l.12-.6v-.49l.12-.49.25-.48.48-.97.37-.73 12.14-24.89 2.55-5.83.24-2.18-.61-4.01.85-4 2.55-7.9-.12-6.92-1.46-11.17-1.94-4.12-1.09-7.05v-3.39l.97-3.53 14.32-1.33 3.89-20.88 2.67-10.32 1.94-9.84.85-6.07-.49-6.07 1.58-3.76.73-5.1-25.49-75.51 1.33-8.14-1.57-1.09-1.95-1.21-6.8-4.01-.97-.61-8.37-5.1-2.79-1.7-.73-.24-1.34-1.34-1.82-1.57-1.09-1.34-.73-1.09-.61-1.09-.48-1.1-.49-1.33-.24-.73-.37-1.7-.36-2.55-.61-3.04-.6-3.27-1.58-8.62-.61-3.89-.36-2.06-.12-1.58-1.1-5.83-.36-2.3-.24-1.7-.25-2.19v-2.43l.12-2.79.13-2.79.12-2.31.24-3.76.24-2.55.25-1.58 1.94-7.89.85-3.89.48-3.15.25-1.95.36-4.73-.12-6.07-1.21-9.11-.61-8.25-.49-6.92-1.45-13.84-.61-6.56-.37-4.25v-.73l-.12-.97v-.24l-.12-1.7-.36-1.34-.49-1.45-.48-1.09-.25-.49-.85-1.09-1.33-1.7-.49-.37-.85-.6-2.91-1.83-3.4-2.06-3.16-2.18-1.94-1.58-1.45-1.46-1.1-1.58-1.33-1.7-.97-1.7-.73-1.58-.85-2.79-.61-2.79-2.79-11.41-.73-2.79-.48-1.95 2.06-.24 15.05-1.09 46.01-4.98 13.72-1.09 5.22-.85 7.89-.61 9.35.61 19.06-2.43-.61-5.71-4.98-48.44-15.05-141.68-14.93-140.83 97.6-7.77 114.23-9.71 11.9 5.46 3.88 1.94.49.37 1.46.48 12.02 7.89h4.61l1.33.13h.49l1.21.12 2.43.12h7.04l15.06-.85 3.39-.24 1.83-.25 1.45-.12 1.58-.24 3.16-.61 4.97-1.21 10.2-2.79 3.89-1.1 4.24-.97 7.9-1.58 3.03-.36 3.52-.12 2.43.12 7.16.24h3.64l11.17-.61 2.31-.48 11.53-3.16 1.94-.36 2.92-.49 2.55-.24 2.54.12 1.7.37 6.56 1.82 6.68 1.82 4.61.73 4.13.24 6.8-.24 1.45-.13h1.94l6.56-.48 10.8-.97 4.74-.73.48-.12 1.58-.37 2.67-.85 2.07-.97 4-2.67 8.74-6.92 4.25-2.55 5.34-2.79 9.96-4.86 3.52-1.7 2.06-.85 1.7-.36 2.43-.49 14.93-1.33 6.56-.61 10.32-.61 11.04-.85 10.81-.72 1.45-.25 1.82-.12 2.31-.24 1.58-.12 2.67-.12 14.32-1.22 21.25-1.82.48-.12h.73l15.91-1.34 5.09-.36 1.22-.12 4.25-.37 9.59-.85 2.67-.24 6.19-.48h.49l.6-.13 8.38-.72 4.49-.37 2.43-.24 12.5-.97 12.14-.97 2.67-.25 5.22-.36 1.82-.12 18.46-1.58 12.26-1.09 9.83-.97 2.67-.25 3.4-.24 1.09-.12 1.09-.12 7.65-.73 7.89-.73h.37l2.91-.24 1.7-.12 1.7-.25 5.22-.36 3.88-.36 4.37-.37 1.34-.12 1.7-.12.97-.12 1.7-.12 1.09-.13 6.19-.48 9.23-.73 3.4-.24 6.55-.85.61.24 1.58-.12h.61l3.15-.12h.97l8.99-.61h.48l3.16-.36.73-.13.85-.12 3.15-.36.97-.12h.85l2.55-.37 1.95-.12 4.37-.61 4.49-.48 7.77-.73 5.1-.48 2.67-.49h.12l.24-.24 5.34-.25 2.55-.12 7.16-.6 15.18-1.1 10.2-.85 4.24-.36 2.31-.24 19.3-1.95 9.84-.6 12.01-1.1 6.2-.6 3.52-.25 1.7-.24 12.26-.97 8.49-.73 4.5-.61.85-.12 5.22 7.41 1.82 2.43 1.82-2.8.24-.85.24-2.79.37-1.09.6-1.09.73-.85 1.34-1.22 11.65-.97 10.93-1.09 7.65-.61 4.73-.48 7.77-.73 6.56-.49 2.79-.12 4.61-.36 3.76-.37 7.04-.85 2.8-.12 7.4-.48-.24-4.13 8.74-.49 4.13-.36 5.22-.49 8.49-.97 1.22-.12 8.98-.85 4.74-.36 4.49-.49 1.94 18.7.85 9.59.61 6.31 2.06 21.49-3.03.24-6.68.49 1.21 13.47.37 2.31.12.73.24.73.37.6.97 1.34 1.09.73.85.48.61.25h.72l2.31.97.85.61.73.48.61.85.36.73.49 1.21.24 2.31.24 1.21v.61l.73 9.84 1.46 14.81.12.73.73 8.62.6 6.31.37 3.03.24 3.28.73 7.29.85 8.49.36 1.7.37 1.34.48 1.94 1.58 4.98 2.79 8.86 2.07 7.04.36.85.24 1.1 2.8 9.47.72 2.55 3.04 9.59-5.46.12-7.04 1.94.12 5.1.12 1.7-.24 1.09-.37.37.12.72v.25l.37.24 1.33.49.37.36.36.36.73 1.46.73 2.19.24 1.21-.12 1.82-.12 2.43v1.82l.48 1.21.25.85v1.1l-.13.6-.6 1.34-.73 1.21-.37.61-.48 2.67.12.85.12.49 3.4 4.97.61.98.24 2.42v.85l.36.49 1.7.61.98.36 1.94 1.46 1.21 1.45.37 1.22v.97l-.25.73-.6.97-.37.36-1.58 1.1-.48.97-1.58 6.07v1.21l.12 1.7.24 1.58.37 1.46.24.48 2.31 3.16.73 1.94v3.64l-.13 2.07.37 2.43.97 5.82.24 2.43-.12.49-.36 1.58v.85l.24 9.71.24 1.94.49 1.58 1.46 3.52 8.98-.85 6.68-.73 1.94-.24-.73 7.28v5.71l.49 7.16.12 1.7 1.09 13.84.73 7.16.6 4.86.25 2.67.97 9.11.73 6.55 1.57 14.09.98 9.22.72 6.92.25 2.92 1.94 18.33.73 8.01 1.09 11.78.36 3.03.25 1.58.12 1.22.73 7.28.48 4.49.12.85 3.04 26.11 1.09 8.61 1.09 10.08.98 7.53.85 7.28.12 1.34 1.45 11.65.85 7.05 1.82 14.93 2.19 19.91.61 7.65.12 2.3.24 5.35.12 5.22-.12 4.61v4.86l-.24 7.04-.37 6.07-.24 3.4-.36 6.19-.73 5.95-.49 2.67-1.09 4.01-1.21 3.52-1.46 3.52-3.89 8.37-.72 1.46-3.77 8.38-.97 1.45-1.46 2.19-4.12 4.73-2.43 2.55-2.79 3.4-1.58 2.07-2.43 4.13-1.09 2.06-1.22 2.67-.6 1.21-.61 1.1-2.31 4.12-3.15 4.5-6.56 8.62-1.82 2.3-8.5 10.81-8.25 11.17-1.46 2.3-1.33 2.43-1.1 2.55-1.45 3.89-.61 1.82-2.55 8.13-.97 3.28-3.52 10.08-.97 3.4-.12 1.09-.49 2.79-.36 4.13v1.7l.12 2.31.36 2.18.49 2.79.85 2.92 1.33 4.13 1.1 2.67 13.59 35.08 3.64 9.23.61 1.94.12.97.12 1.1-.36 1.57-1.34 3.65-.6 1.33-.49 1.22-.73 1.57-.6 1.58-.37 1.22v1.45l.25.73.24.73.61.73.84.97 5.22 4.37 3.4 2.55 1.1.97 1.94 2.19 1.7 2.42 1.21 2.07.37 1.09-1.1-8.5-.12-2.18 14.57 16.39 2.19 2.67 4 4.98 2.91 4.12 3.89 6.07 3.88 7.05 1.58 3.03 2.07 4.61 1.33 3.04.97 2.79 1.22 3.52 2.06 7.29 1.58 6.67 1.21 6.44.61 4.85 1.21 12.75 4.13 38.12 3.28 32.66.97 10.08 2.18 20.15 3.28 33.39.97 8.74 2.92 30.11 2.3 19.79 1.95 19.79 2.06 19.67.85 9.95 1.21 11.41 1.46 14.57 2.43 22.95 2.18 21.61 4.98 47.22 2.06 14.57 1.7 8.74 1.22 6.32 2.18 10.07 2.31 10.08 5.22 20.16 4.98 20.15 4.61 17.72.61 2.8 1.45 9.22.73 5.59.61 9.71.24 4.86-.36 10.32-.49 6.07-.36 3.88-5.1 40.79-1.21 10.08-.61 7.28v1.95l-.12.97-.37 4.61-.24 5.59-.24 10.32v6.07l.12 11.41.61 13.11.12 1.46.6 9.95-1.09-.48-1.7-.37-2.79-.48-1.34.12-1.57.36-1.22.85-4.37 3.65-2.18 1.82-2.92 2.06-1.33.24-3.77.25.25 1.7.24 1.82.36.85.61.85 2.79 2.91.97 1.21.49.98.73 1.57.24 1.34v.61l-.24.97-.37 1.21-.12.24-.36.85-.97 1.22-.37.48-1.21.49h-.73l-2.55-.36-2.3.12-8.38 5.58-2.79 5.83-2.31.12-1.46 5.22-.48 2.55-.49 2.67v.61l-.48 5.58-.12 2.67.12 3.28.73 6.68.48 3.16 5.83 29.86.6 3.4.49 5.71.12 2.67-.36 5.95-.37 2.79-.6 3.28-3.52 15.05-.61 3.04-.24 1.33-.49 3.64-.36 3.16-.49-1.09-.36-1.22-.12-1.45-.37-4.13-.12-2.55-.85-10.32-.97-12.02-1.22-9.95-.72-9.84-3.65-39.09-.72-5.71-.13-.73-.48-3.52-1.09-5.34-.37-1.94 2.43-.24.61-.25 1.33-.97 1.1-.85.48-.48 1.21-1.95.49-.48 1.58-.73.61-.49.48-.6.12-.73-.12-1.09.12-1.7 1.09-2.07.49-.6.85-2.67.24-.49.37-.36.36-.25 1.46-.24-.61-7.89.37-1.7v-1.34l-.25-2.06-1.45.24h-2.19l-5.34-.24-2.19-.36-3.88-1.22-1.58 1.09-.73.73-.73.97.13 1.34v3.64l.24 3.4v.97l.12 1.34.61 6.43-4.98.37-5.1.48-4.73.37-4.98.36-10.56.61-16.63 1.21-3.16.37-2.79.36-4.25 1.09-5.71 2.43-2.3.97-2.07.97-2.18.61-6.31.73-9.84.85-23.43 2.06-15.66 1.58-3.52.61-2.06.48-1.09.37-.73.48-.61.61-.36.85-.37 1.09-.12 1.46-.12 1.94.12 7.29.37 5.22v1.7l-.25 1.82-.48 2.3-.85 2.19-.61 1.21-.73 1.34-.85.97-1.09.97-1.09.85-1.1.49-2.3.48-10.32 1.46-.97.36-.61.25-.73.85-1.09 1.7-10.93 19.54-.97 1.46-1.09 1.09-.73.24-.6.25-3.16.24-20.88 2.06-1.34.61-.97.73-.97.97-2.18 2.55-1.46 1.82-1.09.73-2.07 1.09-4.61 1.82-7.4 3.28-7.41 2.79-8.13 2.31-18.58 4.37-1.45.24-1.58.49-2.19.61-1.58.48-1.57.97-2.31 1.34-3.4 2.55-1.33.97-.98.49-3.88 1.7-1.46.72-4 2.43-1.34.49-1.09.36-4.74-.12-1.94-.12-1.21.24-.97.24-1.1.49-3.88 3.28-1.58 1.45-1.33.85-1.34.61-1.7.85-.61.37-.72.6-.73.97-1.22 1.46-1.21 1.21-.97.73-.73.25-.97.12-6.19.6-5.95.37-2.55.12-.97.24-.61.37-.48-5.71-2.19-16.75V3657l.73-4.13.12-1.94v-4.98l-.36-5.1-.12-2.55.24-1.82.48-2.55 3.4-10.44.25-.85v-2.67l-.37-3.28-.36-1.7-.37-2.18-.73-6.32-1.33-9.34-.36-2.43-.85-3.52-1.34-5.34-1.34-4.25-.6-1.46-.73-1.46-.97-1.45-1.09-1.34-2.55-2.91-4.98-5.83-.97-.85-2.31-2.67-1.46-2.07-1.21-1.94-.61-.97-1.94-4.98-.61-1.94-1.45-4.86-.97-2.67-.49-1.21-1.46-1.94-5.58-6.32-2.43-2.55-1.09-1.33-.73-1.22-.85-1.94-7.89-19.18-3.64-6.07-1.94-3.4-.61-.85-.61-.49-.6-.36-1.34-.61-10.08-3.64-2.79-1.09-2.67-.73h-4l-9.47.12-1.82.12-23.31 2.31-.97-.12-.85-.37-.73-.48-21.73-18.09-2.31-1.7-9.1-7.77-.85-.85-.85-.97-.85-1.46-1.58-3.03-2.91-6.68-.49-1.58-.24-1.94-.25-10.93-.97-14.45-.12-.97-.24-.85-2.19-4.61-3.52-6.92-4.61-8.38-5.34-8.98-4.98-5.95-2.91-3.52-8.38-10.93-7.4-9.47-6.32-8.01-7.64-9.59-.25.24-1.82.36-19.66 2.31-9.96 1.09-53.78 5.1-12.86 1.46-3.04.49-1.33.24-1.34.48-2.06 1.1-7.77 4.73-6.19 2.67-4.13 2.8-1.7.84-3.16.98-6.43 1.57-27.07 6.2-1.1.12 1.1 10.07.48 7.65 2.43 20.52.73 4.86.73 2.91.36 1.09 1.7 3.65.37 1.21.36 1.46-.12 1.21-.37 1.21-1.57 2.31-.85 1.58-2.19 8.13-1.82 5.47-1.7 4.85-.73 2.67-.24 1.22-.12 1.45.12 1.95 1.09 12.38v1.46l-.24 1.58-1.21 2.3-12.02 19.43-.37.85-.48 1.09-.25.85-.72 3.76-.49 3.4-2.91 30.84-.49 7.53-.36 3.15-.61 2.07-.61 1.45-.97 1.34-.97.61-1.33.73-1.83.36-9.59.61-15.05 1.7-27.56 2.79-14.32 1.46-6.56.6 3.65 5.59 3.88 7.16.49 1.34.72 1.82.37 1.45.85 4.37 1.94 11.66.49 1.94.6 1.7 1.1 1.94 2.91 4.74 4.37 5.71 3.64 5.09.49.85.36 1.34v.36l-.12 1.46-1.34 3.76-3.27 7.65-1.58 3.04-.73 1.21-6.31 8.38-.73 1.09-.24.97-.37 1.46v1.09l.12 1.46 1.34 6.68 2.79 11.77 1.09 5.22.73 4.01.37 2.06 1.21 7.17 1.09 8.13.49 1.46.61.85 2.06 2.18 1.46.97 1.33.73 2.43.73 1.58.12 2.06-.12 3.04.37 1.09.24.97.73.73.73 1.09 1.33 1.58 2.43.61.97.85 1.46.24.6.36 1.34.73 4.13.85 7.65.49 5.7.36 7.29.24 6.8v.24l.61.61.49.24.36.12 1.46.12 3.27-.24.85.12 6.32 2.55 3.27 1.09 6.32 2.55 3.03 1.58 5.34 3.76 5.59 4.25 8.01 6.68 3.03 2.31 2.8 2.3 3.88 4.13 1.46 1.82 1.94 4.86 3.04 5.46 1.09 2.43 1.82 5.46 1.33 2.55 2.55 4.01 4.13 5.34 1.46 1.7.85 1.09.24.73 1.34 4.37.72 1.82 1.7 2.43-.48.85-.49.61-.73.6-.6.37-2.55.24-.85.24-1.09.73-1.58 1.46-1.46.85-.85.36-2.79.49z" stroke-linejoin="round"/></defs><use xlink:href="#c" fill="#9dc8ca" stroke="#9dd7f0" stroke-width="5.76"/><defs><path id="d" d="M1890.86 3730.21l-4.12.48-13.11.97-14.21 1.34-11.29.85-2.06-.97-46.25 4.49v-2.31l-.37-1.94-.6-1.09-.97-1.58-6.8-8.38-.61-.85-.73-1.33-.97-2.43-.36-1.21-.61-7.41-1.09-7.41v-1.09l.12-1.09.24-.49.61-1.09.73-1.09 1.33-1.34 2.43-2.79 1.7-3.16.97-1.33.73-.73 1.09-.24h.97l1.46-.25.61-.12.48-.73.37-.97.85-3.76.85-2.07.72-1.21 2.92-3.52 2.3-3.4 1.1-1.82 6.19-11.29.97-5.83.24-.97.37-.61.48-.73 2.43-3.39 1.94-2.68 2.19-4.12 4.37-9.59.73-2.31.24-1.46 2.43-7.04.6-1.58 1.22-3.03 1.09-2.07 1.7-3.15 1.09-1.58 8.38-7.04 3.15-4.98.13-5.71-2.31-7.28-2.19-10.93-.85-.48-1.94-.97-.85-.61-4.85-4.01-3.77-3.28-6.19-6.55-2.79-3.28-1.94-2.67-1.58-2.43-4.98-8.98-3.15-5.1-2.92-5.22-1.33-2.07-3.52-6.07-3.65 1.22-14.93 11.17.37 5.7-.25 3.28-.48 1.58-.37.61-1.21 1.45-3.4 3.64-1.21.85-.73.25-3.4.36h-2.31l-2.79.37-.61.24-.85.36-.6.49-.37.61-1.33 2.18-1.94 3.16-1.58 2.79-3.04 5.83-3.03 5.34-3.52 5.58-1.82 3.16 2.79 1.46 2.55.97 2.06.97 11.53 5.71 2.55 1.57 1.34 1.34 3.64 4.86 2.19 3.64 2.06 4.25 4.49 8.74 2.19 4 1.82 2.55 3.28 3.65 6.55 6.8 5.22 6.79.61 1.34 1.21 2.91.24 1.22.37 1.82-.12 3.52-.49 1.58-1.09 2.06-8.98 13.6-8.87 12.02-4.12 5.1-5.71 7.52-5.22 6.44-4.98 5.58-4.61 4.62-4.01 3.76-4 4.13-5.46 6.92-7.29 9.95-3.15 4.5-4.98 7.16-31.2 3.03-3.52-5.09-1.58-2.43-1.7-2.43-3.76-5.22-5.71-7.53-5.82-7.65-15.79-20.52-8.01-9.59-12.5-15.54-2.55-3.03-2.19-2.31-.97-1.09-6.43-7.77-6.92-8.5-3.52-4.73-3.4-4.13-2.19-2.55-1.82.85-26.22 17.85-14.32 7.89-1.22.72-1.09-10.19-4.01-41.16-.72-10.44-4.01-41.89-2.19-20.76-1.09-10.44-.73-8.62-.6-9.95-.12-1.46-.61-13.11-.12-11.41v-6.07l.24-10.32.24-5.59.37-4.61.12-.97v-1.95l.61-7.28 1.21-10.08 5.1-40.79.36-3.88.49-6.07.36-10.32-.24-4.86-.61-9.71-.73-5.59-1.45-9.22-.61-2.8-4.61-17.72-4.98-20.15-5.22-20.16-2.31-10.08-2.18-10.07-1.22-6.32-1.7-8.74-2.06-14.57-4.98-47.22-2.18-21.61-2.43-22.95-1.46-14.57-1.21-11.41-.85-9.95-2.06-19.67-1.95-19.79-2.3-19.79-2.92-30.11-.97-8.74-3.28-33.39-2.18-20.15-.97-10.08-3.28-32.66-4.13-38.12-1.21-12.75-.61-4.85-1.21-6.44-1.58-6.67-2.06-7.29-1.22-3.52-.97-2.79-1.33-3.04-2.07-4.61-1.58-3.03-3.88-7.05-3.89-6.07-2.91-4.12-4-4.98-2.19-2.67-14.57-16.39.12 2.18 1.1 8.5-.37-1.09-1.21-2.07-1.7-2.42-1.94-2.19-1.1-.97-3.4-2.55-5.22-4.37-.84-.97-.61-.73-.24-.73-.25-.73v-1.45l.37-1.22.6-1.58.73-1.57.49-1.22.6-1.33 1.34-3.65.36-1.57-.12-1.1-.12-.97-.61-1.94-3.64-9.23-13.59-35.08-1.1-2.67-1.33-4.13-.85-2.92-.49-2.79-.36-2.18-.12-2.31v-1.7l.36-4.13.49-2.79.12-1.09.97-3.4 3.52-10.08.97-3.28 2.55-8.13.61-1.82 1.45-3.89 1.1-2.55 1.33-2.43 1.46-2.3 8.25-11.17 8.5-10.81 1.82-2.3 6.56-8.62 3.15-4.5 2.31-4.12.61-1.1.6-1.21 1.22-2.67 1.09-2.06 2.43-4.13 1.58-2.07 2.79-3.4 2.43-2.55 4.12-4.73 1.46-2.19.97-1.45 3.77-8.38.72-1.46 3.89-8.37 1.46-3.52 1.21-3.52 1.09-4.01.49-2.67.73-5.95.36-6.19.24-3.4.37-6.07.24-7.04v-4.86l.12-4.61-.12-5.22-.24-5.35-.12-2.3-.61-7.65-2.19-19.91-1.82-14.93-.85-7.05-1.45-11.65-.12-1.34-.85-7.28-.98-7.53-1.09-10.08-1.09-8.61-3.04-26.11-.12-.85-.48-4.49-.73-7.28-.12-1.22-.25-1.58-.36-3.03-1.09-11.78-.73-8.01-1.94-18.33-.25-2.92-.72-6.92-.98-9.22-1.57-14.09-.73-6.55-.97-9.11-.25-2.67-.6-4.86-.73-7.16-1.09-13.84-.12-1.7-.49-7.16v-5.71l.73-7.28-1.94.24-6.68.73-8.98.85-1.46-3.52-.49-1.58-.24-1.94-.24-9.71v-.85l.36-1.58.12-.49-.24-2.43-.97-5.82-.37-2.43.13-2.07v-3.64l-.73-1.94-2.31-3.16-.24-.48-.37-1.46-.24-1.58-.12-1.7v-1.21l1.58-6.07.48-.97 1.58-1.1.37-.36.6-.97.25-.73v-.97l-.37-1.22-1.21-1.45-1.94-1.46-.98-.36-1.7-.61-.36-.49v-.85l-.24-2.42-.61-.98-3.4-4.97-.12-.49-.12-.85.48-2.67.37-.61.73-1.21.6-1.34.13-.6v-1.1l-.25-.85-.48-1.21v-1.82l.12-2.43.12-1.82-.24-1.21-.73-2.19-.73-1.46-.36-.36-.37-.36-1.33-.49-.37-.24v-.25l-.12-.72.37-.37.24-1.09-.12-1.7-.12-5.1 7.04-1.94 5.46-.12-3.04-9.59-.72-2.55-2.8-9.47-.24-1.1-.36-.85-2.07-7.04-2.79-8.86-1.58-4.98-.48-1.94-.37-1.34-.36-1.7-.85-8.49-.73-7.29-.24-3.28-.37-3.03-.6-6.31-.73-8.62-.12-.73-1.46-14.81-.73-9.84v-.61l-.24-1.21-.24-2.31-.49-1.21-.36-.73-.61-.85-.73-.48-.85-.61-2.31-.97h-.72l-.61-.25-.85-.48-1.09-.73-.97-1.34-.37-.6-.24-.73-.12-.73-.37-2.31-1.21-13.47 6.68-.49 3.03-.24-2.06-21.49-.61-6.31-.85-9.59-1.94-18.7 9.47-.73 9.47-.97 9.22-.85 4.86-.48 2.43-.13 1.33-.12.85.12.49.25 2.18.97 2.07.85.72.12h.73l3.52-.37 2.79-.24 2.19-.24 5.46-.49 4.13-.36.97 12.26 9.83-.85 10.32-.97-1.21-12.14 4.98-.49 6.31-.72 3.16-.37 4.37-.36 6.92-.73 2.54-.24 1.7-.25 6.2-.6 9.71-.98 1.58-.24h.97l5.7-.61 5.83-.6 2.06-.12 1.58-.25h.85l.73-.12h.48l3.77-.48 7.65-.73 7.4-.73 1.94-.24 8.14-.73.85-.12 2.3-.25 2.31-.24 4.49-.48 1.58-.13 4.98-.48 3.64-.37 8.01-.72 8.01-.85 2.19-.13 7.4-.72 7.17-.61 1.57-.12 5.35-.61 4.97-.48 6.92-.73 4.37-.49.61.24.61.25 4.97-.49 3.04-.24 2.43-.24 4.85-.49h.61l.36-.12h.85l3.28-.37 2.06-.24 2.19-.24.85-.61 3.16-.36 3.64-.37h.48l2.31-.24 2.43-.24 8.86-.97 16.63-1.46.49-.12h.6l10.32-1.09 4.49-.49 4.86-.61 6.55-.48 7.77-.97 3.16-.25 3.76-.36h.85l4.01-.61.85-.12 11.77-1.09 11.29-.97 3.65-.37 4.37-.48 4.12-.49 4.98-.48 4.49-.61 1.34-.12 10.8-.97 2.55-.25 3.16-.24 5.22-.73 5.58-.48 5.59-.61 1.21-.24 2.19-.25 1.94-.12 3.15-.61 1.95-.6.6-.24 1.82-.98 1.22-.6 9.47-6.07 6.19-4.37 1.46-1.34 6.43-5.71 2.43-1.94 2.43-1.7 1.45-.73 3.04-1.21 3.4-.85 2.79-.61 5.34-1.21 11.53-2.19 9.35-1.7 20.88-4.37 1.09-.24 2.19-.36 10.8-1.95 1.82-.24h1.7l10.81.49 2.18.12.61.12 1.33.24 1.58.49 1.46.6 1.21.73 1.34.73 1.09.85 10.68 9.35 2.07 1.7 3.76 2.31 2.31.72 1.45.25h4.37l.25-.12 5.22-.73 2.42-.25 1.22.13 2.67.48 2.55.61 7.28 1.33 5.1 1.1 4.49.85 14.45 2.18 2.91.49 4.62.85 4.85.6 1.7.25 5.1.48 4.98.37h1.94l3.4-.25 2.55-.36 4.85-1.21 4.74-1.58 5.1-1.34 7.89-2.3 2.79-.85 4.25-1.1 12.38-3.4 3.28-.97 3.52-1.45 1.46-.73 1.21-.97 2.79-2.55 2.07-1.58 3.64-2.67 1.09-.61 3.03-1.21 8.87-2.31 1.57-.36 1.58-.25 2.8.12 2.67.37 2.18.36 2.91.73.37.24 2.43.97 1.82 1.1 1.09.6 2.43 1.7 5.46 4.13 2.31 1.34 2.3.97 1.58.36 1.34.12 3.15-.24 2.31-.48 9.35-3.04 5.34-1.46 4.49-1.33 3.04-.85 5.94-1.34 3.04-.36 2.79-.24h2.43l5.22.36 11.05 1.7 11.53 1.7 6.68 1.09 12.26 1.94 4.49.85 1.82.61 2.55 1.09 3.4 1.7 1.45.98 1.7 1.33 2.67 2.55 2.07 2.06 2.55 3.04 5.34 7.04 9.1 11.53 1.46 2.31.61.97.6 1.22.98 1.7.6 1.57 3.16 9.6.73 1.94.73 1.58 1.57 2.67.97 1.33 1.34 1.58 3.16 3.52 1.45 1.7 2.07 3.16 1.82 3.28 5.95 12.14 1.21 2.79.36 1.21.61 2.8.12.97.61 3.64.36 1.7.73 1.94 1.22 2.91.85 1.46 1.09 1.7 1.21 1.34 2.07 2.06 1.82 1.58 1.7 1.21 2.79 1.58 2.55.85 3.15.73 2.68.36 2.67.13 4.61-.13 2.67-.48 2.18-.73 2.07-.85 2.06-1.09 2.31-1.58 2.18-1.82 1.58-1.7 1.82-2.07 1.7-2.42 1.46-1.95 9.23-11.89 1.09-1.22 2.91-2.43 1.34-1.09 3.15-1.94 3.16-1.22 1.7-.48 1.94-.49 1.94-.24h4.5l4.49.73 1.94.48 1.82.73 1.82.85 2.07 1.22 3.88 2.55 12.38 8.37 5.22 3.4 4.01 2.43 2.79 1.34 3.04 1.21 1.69.61 4.13.73 1.22.12 3.4.12 3.27-.24 4.25-.49 2.79-.24 5.71-.73 5.1-.49 4.61-.6 4.13-.49 5.22-.85 2.67-.61 6.31-2.06.37-.12 11.29-3.64 1.33-.73 12.87-7.04 4.37-1.95 1.58-.6.6-.12.85-.25 3.04-.6 4.01-.49 3.39-.12 3.04.12 4.13.24 6.67.37 9.11.12 2.91-.24 4.86-.73 8.62-1.7 3.15-.73 2.19-.49 3.4-.48.97-.12 4.25-.25 4.37-.12 3.03.24 3.04.25 5.82.6 1.83.13 3.39.36 4.5.49 2.67.24 3.76.36h4.98l2.43-.12 3.27-.36 3.89-.61 3.15-.49h6.07l2.07.37 3.4.73 4.25 1.21 8.49 2.31 6.44 1.46 2.67.48 2.43.24h8.74l4.37-.24 3.4-.24 2.3-.37 1.82-.36 2.31-.85 2.91-1.34 1.58-.85 1.34-.85 1.82-1.33 7.04-5.71 4-3.4 1.7-1.45 1.83-1.1 1.82-.97 1.7-.73 1.57-.48 1.95-.37 1.57-.24 2.19-.12 3.16.24 8.01.61 4.73.24 3.4.25 3.16.24h4.13l1.09 9.1 1.45 13.48 1.58 14.2.25 1.83.36 2.42 2.06 18.94.37 4.01 3.64 34.6.12 3.16-2.18 8.13-1.7 7.29-.25 1.57.61 1.22 1.21.97 1.7.12 3.77-.24 1.09.36 2.43 1.58.97 1.82 3.03 11.66 2.19 6.92 1.21 2.18 2.31 3.4 1.58 1.58 2.18 3.03.61 1.7-.24 4.74.36 7.04-2.06 8.74-.12 2.19.72 3.64 2.31 6.31.85 2.92.24 2.18.12 1.46-.85 3.03-2.91 7.53-4 9.11-3.16 5.58-8.74 10.93-1.7 1.7-2.43 5.22-.85 1.82-.97 3.64-1.21 5.83.24 3.16.97 2.42 1.82 8.62.73 1.82 1.09 1.83 3.64 3.15.13 2.67 1.57 4.01.49 2.43-.12 3.03-1.46 3.28-4.49 6.19-13.48 7.65-12.01 6.07-1.22.61-10.56 4.61-.85 11.41-1.94 6.2-3.16 3.52-10.07 6.19.24 3.4 5.22 7.65 1.21 3.4.12 5.82-2.3 4.49-2.55 2.68-3.64 4-2.31 2.43-1.46 1.34-6.92 1.7-.85.24-.36.36v.49l1.82 14.81.12 1.46v2.06l-.85 5.46-.48 2.07-.73 1.58-.85 1.57-2.31 2.67-.97.85-5.58 3.53-1.7 1.7-.61.85-.73 1.09-.6 1.33-.13.61-2.91-1.82-12.5-10.44-5.59-3.77-4.49-1.09h-1.58l-2.3.24-1.46.61-3.76 2.31-3.16 3.4-1.46 2.06-1.45 3.77-.61 3.03-.49 3.64-.6 3.16-.25 3.03.25 17.73.24 7.41-.12 3.03-.12 1.34-.61 1.94-1.21 3.16-.73 1.57-1.46 2.19-1.33 1.58-2.43 2.91-1.7 1.58-.37.36-.73.37-3.88 1.33-1.34.85-.97.73-.6.97-.37 1.1-.24.97-.73 6.19-.85 1.82-.61.85-.48.48-.97.73-2.55 1.34-2.31.85-.6.48-2.07 1.7-1.58 1.95-.48.97-.49 1.45-.97 5.83-.12.97-.24 1.22-.37.73-.6.85-.61.48-1.82.97-1.46.97-.61.61-.36.73-.36.85-.25 1.09-.73 6.07-.36 5.34-.12 1.22-.37.85-1.09.97-2.06 1.46-2.67 2.3-3.77 3.28-1.33 1.09-1.09.49-4.13.73-2.79.24-2.92.49-7.04 1.7-2.67.85-1.94.85-1.34.72-.48.85-.24 1.1v4.25l-.13.97-.36 1.45-.73 1.34-.61.85-1.21.48-1.21.49-8.14 1.58-2.67 1.09-2.3 1.09-4.86 1.7-3.4.25-2.67-.13-6.19.25-3.52.12-4.13.24-1.46.12-8.61-1.09h-1.7l-1.95.12-2.79.37-1.82.48-1.7.24-11.17-.12-3.28 1.1-1.57.36-12.14 4.13-3.4 1.94-.97.49-.73.12h-.61l-.97-.25-1.7-.6-1.21-.61-1.1-.61-.97-.97-8.37-8.86-2.07-1.7-5.95-4.37-3.39-3.16-1.22.73-1.33 1.34-.37.85-1.09 4.37-.85 2.06-.49.85-2.06 2.55-1.58 1.09-.97-.12-.61-.36-1.94-4.86-.73-.73-.6-.36-.85-.12-.85-.12-.61.48-1.58 1.34-.48.85-2.31 4.37-.49 1.09-.72 1.21-.98.85-3.52 2.67-.6.61-1.34 1.46-1.7 1.94-9.47 8.62-1.33 1.46-.97 1.21-.85 1.22-3.04 7.52-.61.97-.6.49-1.46.49-1.21-.13-2.31-.24-1.09.12-.97.25-.73.72-1.09 1.83-.37.85-.24 1.45-.37 1.22-.6.72h-.49l-.36-.24-.37-.85-.36-1.21-.49-1.09-.36-.25-.73-.24-1.7.36-.73.13-.6-.13-.49-.36-.48-.61-.49-.85-.36-.48-.49-.25-.85-.24h-1.34l-1.33.61-5.34 3.4-1.22 1.33-.97 1.22-.36 1.09-.24 1.09v1.1l.12 1.21.24.97.49 1.09.72.97 1.95 1.7.48.73v1.1l.49.36h.36l.61-.24.36-.37.49-.24.36.12.25.37.24 1.57v1.58l.24.61.37.61.48.36.37-.12.36-.24.12-.49.49-.61 1.09-.6.36-.25h.37l.24.61v1.09l.12.37h.61l.36-.49.61-.61.49-.24h.72l.61.49.49.12 1.21-.37h.49l.36.25.24.24.12.49.13.97-.13.48-.24.85-.24.73.12.37.24.12h.37l.36-.12 1.7-1.22.36-1.09.25-1.94.24-.49.49-.36h.24l1.09.97.49.36h.36l.24-.24.13-.24v-.98l.24-.85.36-.97 1.22-1.45h.85l.72.73.61.36.49.12h.48l.49-.24 1.21-1.7 1.09-2.92.61-1.7.49-.36.48-.49 1.22-.12 1.21.37 3.76 1.94 8.14 5.46 5.1 4.37 1.57 1.46 1.22 1.7 6.19 12.51 9.95 20.27 2.07 3.52 11.89 17.36.61 1.22.49 1.21.48 2.67 2.55 20.76 1.46 10.56.85 2.68 1.21 3.39 1.46 2.68 14.93 23.91 1.46 2.43 2.18 2.19.85.36.85.12.85-.12 1.09-.24 1.1-.97.6-.73.49-.85.49-1.09.6-2.43v-.97l.12-2.43v-1.7l.13-1.34.24-1.09 1.45-3.28 1.34-1.94.85-1.82 1.46-3.89.6-1.33.73-.61.61-.24 1.09-.37.61-.36.61-.61.97-1.94 2.06-2.43.73-1.94.48-.85.98-1.09 1.33-1.22 1.21-.48.61.12.37.48.12.85-.12.98-1.7 5.22-.97 2.42-1.7 2.67-1.1 2.68-.36 2.06.24 2.55.97 5.95 1.58 12.62.73 3.28 1.33 4.49.49 1.34 1.09 1.82.37.85.48 1.82.37.73.73.97 2.18 2.19 3.16 2.55 1.45.72 1.58.37 1.94.36 3.16.25h6.19l5.46-.85 1.83-.73.48-.49.61-.97.24-.73.49-.48.48-.25.73-.24h.97l.73.24.61.49.48.73.85 1.7.73 2.18.49.73.72.61.98.36 2.18.25 1.09-.13 3.04-.97 8.74-3.03.97-.73.49-.49 1.09-1.57.6-.61.98-.61.48-.24.73.12h1.7l.97-.49 4.13-2.42.61-.25 1.21-.36 2.18-.37.49-.36 1.7-1.58 1.94-.97 1.09-.97.73-.24.73-.12.49.12.48.12.73.24.36.61.85 1.82 1.22 1.21.48.61.25.85.36 1.46.49.85.48.48.61.49.97.48 2.19.37 8.25.85h1.94l.73-.24 2.19-1.1 1.33-.48 1.7-.37 3.89-.12 3.27.37 2.8.36 3.88.97h1.34l.6-.36.49-.49 2.3-2.55 1.22-1.7 2.18-4.25.49-.48.48-.12.49.24.49.61.36 1.21.12.49.24 1.21v1.33l-.24 1.46-.73 2.92-.12 1.21.12 3.4.25 2.06.24.73.36.49.49.12.61.12 3.76-.12 2.91-.49.85-.12h.37l.36.49.24.48v.49l-1.21 2.3-.49 2.19-.24 1.09.12.61.12.97.98 1.22.97.97 4.73 3.64 1.82 1.09 7.16 4.25 2.8 2.06 4.97 4.13 2.67 1.7 2.67 17.61.98 6.79 3.27 32.18-4.73-4.01-5.46-5.22-.85-.61-.73-.36-.49-.12-1.21.36-.61.73-.61 1.09-1.82 6.07-.36.61-.73.12-.36-.85-.37-1.58-.24-1.82-.12-2.3-.49-5.71-1.58-10.32-.24-1.82-.36-1.09-.49-.85-.97-.73-.85-.49-.97.25-.73.6-2.55 1.94-2.43.98-8.49 2.18-.97.24-.25.37-.12.61.24 4.61-.24 1.21-.24.49-.12.12-.97-.24-1.22-.97-.6-1.1-2.19-4.12-.85-1.22-1.09-1.21-.49-.85-.6-1.1-.98-2.3-.6-.73-.61-.61-2.19-.85-1.82-1.09-.24.24v.49l.49 4.13 1.21 15.17-.12 3.16-.49 5.34v3.64l.37 1.95.73 3.64.12 2.18v4.13l.6 14.81.37 7.53.36 2.55.25.85.72.97 1.22.61 1.82.36.48.12.61 1.1.24.85.13.85-.25.84-.85 2.19-.73.97-.36 1.22-.12 1.94.24 3.4.49 2.79.73 2.43 2.79 7.04.12.73-.24.73-.49.24-.73.12-1.09-.24-2.06-.85-1.7-.25-2.07.25-1.45.36-1.46.85-1.21.73-1.7 1.58-1.7 1.82-1.22 1.82-1.09 2.06-1.58 3.89-.6 1.7-6.68 18.45-4.01 8.74-4.25 7.41-2.67 4.01-12.02 11.89-18.08 16.64-1.34 1.09-1.33 1.58-.73.97-5.1 9.47-.49 1.21-.12.73v1.34l.24 1.33.85 2.19 4.37 9.1 1.1 1.58.6.73.73.49.85.24 1.82.36 1.22.12.85-.12.73-.24.97-.49 3.52-2.06 1.33-.73.97-.36.61.24.36.49.37.97.24 1.21.12.85-.12 1.09-.48.98-1.34 1.45-4.73 3.77-.61 1.21-.49 1.09-.36 1.46-.12.97.12 1.09.36.61.49.85 1.7 2.19.85 1.69.12.61-.12.85-.49.85-.24.61-.12.85.24 1.58 1.22 13.47.36 3.04v2.06l-.12.37-.37.36-.6.24-3.4.85-.97.49-1.34.73-2.79 2.43-1.34 1.33-1.21 1.46-1.46 2.43-1.57 3.4-.73 2.3-.37 3.64v1.34l.25 1.09.36 1.22.61 1.33 1.7 2.19 5.09 4.97 1.1.73.85.85 5.34 6.68 1.46 1.7.48.24 1.09.12 6.19-1.21 1.22-.49h.61l.48.13.73.85.36 1.33v.61l-.36.61-1.58 1.33-1.09 1.09-1.94 2.8-.49.85-.48 1.57-.73 4.37-.49 2.31-.36.85-.73 1.34-1.34.97-.48.6-.61 1.22-.24.85-.37 2.31v1.33l.73 8.38v2.18l-.24 2.07-.61 2.55-.48 1.7-.25 1.21-.12.85.25 1.21 2.91 9.96.12.61-.12.36-.24.36-.37.25-.73.12-1.09.12-1.09-.24-.85-.25-.73-.48-.97-1.21-.49-.37h-.24l-.24.12-.12.49v1.21l-.25.61-.24.36-.61.12-.72-.12-1.34-1.09-.49-.12-.6.12-1.09.97-1.1 1.46-.85.36-.73.12-.6-.12-.37-.24-.36-.73-.36-.73-.13-1.21-39.21 12.87-29.38 3.28-39.69-2.55-.97-.12-8.86-1.83-1.22-.12-.48.12-.37.25-.48.36-.37.61-1.58 3.64-.72.85-.61.49-.85.24-5.1.36 1.7 3.65-.24 3.15.36 4.62.97.85.85.85.73.97 1.21 2.18.61 1.58.49 1.94.24 1.34.12 2.18-.12 1.22-.24 1.58-.73 2.3-2.43 5.71-4.61 10.08-.97 2.79-.49 2.43-1.21 9.83-1.1 10.2v2.55l.25 1.94.48 1.82.25.85 1.21 1.94 3.76 4.98 2.19 3.16.85 1.82.97 2.79.85 3.16.24 2.55-.12 2.3-.49 2.19-3.03 9.1-1.09 3.89-.37 1.46-.24 2.06.12 2.06.24 1.22 1.1 3.76 3.4 9.84.72 1.7 2.19 4.73 2.18 4.13.73 1.7.25.85.12 1.21.12 2.43-.12 1.09-.12 1.09-.49 1.34-.49 1.34-3.15 6.79-1.09 2.31-.25.73-.12.36-.36 1.58-.12 1.58.24 1.82.73 2.43.85 1.82.6.85.85.85 2.19 1.7 5.95 4.13 2.79 2.3 3.03 3.16 1.58 1.82 2.92 4.25.97 1.82 2.42 4.86.98 2.55.6 2.06.49 1.82.48 2.43.61 4.49.24 2.92.37 8.37-1.58.13-19.79 2.3-2.06.61-1.09.24-2.07.12h-6.43l-1.94.13-1.34.48-.97.49-1.7 1.33-1.21 1.46-.85 1.7-.37.97-1.58 7.65-3.27 16.15-1.1 5.22-.73 1.7-.48.72-.61.85-.97.85-.85.49-.85.48-.73.13-.85.24-24.4 1.21h-1.94l-1.21.25-.73.24-1.7 1.21-.73.73-.97 1.22-.37.85-.6 2.06-2.92 18.94-.36 2.43-.24 1.33-.61 1.7-.49 1.22-5.34 7.89-.48 1.09-2.31 6.19-2.91 6.92-1.09 2.07-.98 1.45-1.57 2.43-.49.85-.49 1.09-2.67 9.11-.85 2.55-1.21 2.91-9.47 19.18-5.7 13.24-.73 1.45-.49.73-1.21 1.34-.97.73-.97.48-.98.37-.97.12h-1.82l-.85-.37-12.14-4.61-.97-.24h-1.94l-1.34.36-1.94.85-.48.24-.25.25-1.57 1.7-.85 1.45-8.26-6.8-4.01-3.88-4.49-3.4-.97-1.21-.61-.85-.97-2.31-.48-1.46-.85-4.49-.37-1.21-.72-1.34-.37-.48-1.33-.73-5.59-1.95-23.67-6.43-2.43-.85-1.33-.85-2.19-1.7-4.73-3.64-2.19-2.19-1.09-1.45-2.31-4.01-1.45-1.09-.85-.37-2.31-.6h-1.82l-3.89 1.21-1.33.24-4.13.37-1.58.12-1.21-.12-.97-.37-.85-.36-.85-.85-.97-.97-3.77-5.1-4.73-5.95-1.46-1.82-1.45-2.07-2.55-4.12-3.28-5.95-.85-.97-.73-.73-1.09-.73-1.58-.73-.61-.24-1.7-.12h-1.7l-2.67.24-3.76-.12-1.94-.37-1.82-.72-2.19-.85-10.2-4.5-13.11-5.58-.6-.12-2.43-.12-1.09.24-1.34.49-1.09.85-1.22 1.33-.85 1.09-2.42 4.98-1.58 2.67-.85 1.22-.97.97-1.22.73-.97.24-1.7.36-1.21.12-1.09-.12-.73-.24-3.52-1.46-.85-.36-1.22-.97-1.33-1.46-3.16-4.49-6.31-8.38-.73-.73-2.06-1.7-4.25-2.18-1.7-1.09-1.94-1.7-1.58-1.83-11.05-17.48.85-.48.73-.73.36-.49.12-.48.13-1.1-.25-2.18-.85-3.4-1.57-5.22-5.47-9.35-21.85-21.61-3.64-1.58-2.19 1.94-1.82 3.4-5.1 15.18-2.06 3.16-1.94 3.15.24.85.37.85.48.61.73.61.73.48.97.25 2.55.24.36.24.25.49.24.72.12 1.83-.24.85-.25.72-.48.61-.49.37-.6.12h-.49l-3.03-1.22-4.01-1.7-1.58-.36h-1.46l-2.18.48-3.4 1.95-1.09.85-4.01 2.3-2.67 1.95-4.25 4.37-.97 1.33-.73 1.22-.36.97-.73 3.15-.12.98v.85l.24.97.73 2.55.73 1.21 3.28 3.88.72.49 1.46.73 1.09.24 2.07.12.48.12.12.25.49 1.58.12.97.24 1.21.13.97.6 1.58 1.7 3.52 2.19 3.64 2.43 4.37 1.57 4.01.61.85 1.34 1.46.85.73.72.48.85.24h.97l.85-.24.85-.61 4.98 48.57h-.61l-2.67-1.7-1.21-1.1-1.58-.85-.36-.12-.25.25-.36.6-.12 1.1v2.67l.24 2.18v2.07l-.12.85-.49 2.18-1.21 3.76-.48 1.95-.37 2.43v.84l.12.61.37.49 1.57.6.49.49.73 1.09.36.25 1.46.97 1.21.48h1.22l.73-.36 2.67-1.94.6-.49 4.5 43.1.6 6.19 1.34 11.78-.73.97-2.31 4.98-.6.48h-.49l-.36-.12-.61-.73-1.09-1.58-.97-1.09-.61-.48-.73-.13-.85.13-.85.24-1.58.97-.85.12-2.79-.97-2.67-.61h-1.09l-.97.25-3.52 1.09-6.2 2.31-1.09.6-.61.61-.36.85-.61 1.7-.36 1.7-.61 4.37-.85 9.95v2.92l.25 1.33.36 1.22 1.33 2.91 1.34 2.43 1.09 1.58.85.85 1.58 1.33.97.85 5.46 5.83 2.43 2.55.85 1.09 1.7 2.19 1.7 1.58 1.22 1.33.24.49.24.6v.73l-.12.25-.12.24-.49-.12-.6-.25-1.95-1.57-3.64-3.04-3.4-2.31-.85-.6-.73-.37-2.67-.97-1.94-.36-.61.24-.36.24-.24.49-1.1 10.44-.72 6.19-.37 1.46-.6.85-.61.36h-.61l-.48-.48-.37-.73-.48-1.22-.25-1.45-.12-1.95.12-1.45.25-.85.12-.49-.37-2.79.12-2.19-.24-2.91.12-1.82-.12-3.28-.24-1.58-1.7-3.76-.73-1.21-.97-1.22-.61-.36-1.45-.37-1.46.37-.85.36-3.64 3.52-1.34 1.46-1.94 2.67-.73.61h-.73l-1.21-1.22-.85-.72-.61-.25h-.48l-4.25 1.22-.97.72-.97 1.1-.98 1.45-2.91 2.8-1.7 1.21-2.79 1.34-.85.85-.73.97-1.33 2.18-.61 1.46-1.82 5.22-.61 6.43.37 2.68.48 1.94 2.79 4.85.12.73.13.61-.13.73-.6 1.58-1.34 3.15-1.09.73h-1.58l-.48-.24-.37-.24-1.33-1.1-.37-.48-.48-1.22-.73-2.55-.49-.36-.48-.12-.49.12-3.03 1.33-2.43.85-7.29 4.13-6.19 4.13-5.46 3.52-4.86 3.76-2.79 2.31-6.55 4.86-10.08 7.77-2.67 1.7-11.9 8.98-1.82 1.94-1.82 2.67-.36.73-.12.85v1.34l.24.85.36.61 1.34 1.09 4.61 1.58 4.86 1.21 3.4.97 1.21.12 1.21.25 1.34.48.61.37h2.06l1.94-.13.37.13.24.24.12 1.21-.48.61-.98.61-1.57.73-1.58.24-1.58.36-10.08.61-2.3.24-2.31-.24-1.82-.24-1.21-.49-3.04-2.31-1.09-.36-.61-.12-3.4.73-.73.36-1.09.85-.61.97-.24.61-.12.97v.85l.36 1.09 2.55 5.71.37 1.21.12 1.1-.12.72-.24.98-.37.48-.48.12-.49-.24-.61-.49-2.79-3.52-3.64-5.46-1.58-1.82-2.67-2.06-2.06-.73h-1.34l-1.21.12-.73-.12-.37-.49v-.85l-3.76.24-2.3-.72-3.04-.25-2.91-.12-2.67-.36-2.07.24-2.67-.36.24.48.25.85v.73l-.12.97-5.22 7.29-1.34 1.69-1.58 1.58-1.33 1.1-1.7 1.21-3.04 2.19-1.33 1.09-.73.97-1.34 2.43-.24.73-.85 1.45-2.31 4.01-2.18 3.52-2.79 3.04-1.34 1.21-1.33 1.58-.61 1.09-.85 1.94-1.21 2.31-.61.97-3.4 4.61-2.43 4.01-.73 1.09-1.58 1.22z" stroke-linejoin="round"/></defs><use xlink:href="#d" fill="#6bacaf" stroke="#6bb4d2" stroke-width="5.76"/><defs><path id="e" d="M2515.81 1941.65l-4.25.49-3.27.24-3.4-.12-1.22-.12-4.13-.73-1.69-.61-3.04-1.21-2.79-1.34-4.01-2.43-5.22-3.4-12.38-8.37-3.88-2.55-2.07-1.22-1.82-.85-1.82-.73-1.94-.48-4.49-.73h-4.5l-1.94.24-1.94.49-1.7.48-3.16 1.22-3.15 1.94-1.34 1.09-2.91 2.43-1.09 1.22-9.23 11.89-1.46 1.95-1.7 2.42-1.82 2.07-1.58 1.7-2.18 1.82-2.31 1.58-2.06 1.09-2.07.85-2.18.73-2.67.48-4.61.13-2.67-.13-2.68-.36-3.15-.73-2.55-.85-2.79-1.58-1.7-1.21-1.82-1.58-2.07-2.06-1.21-1.34-1.09-1.7-.85-1.46-1.22-2.91-.73-1.94-.36-1.7-.61-3.64-.12-.97-.61-2.8-.36-1.21-1.21-2.79-5.95-12.14-1.82-3.28-2.07-3.16-1.45-1.7-3.16-3.52-1.34-1.58-.97-1.33-1.57-2.67-.73-1.58-.73-1.94-3.16-9.6-.6-1.57-.98-1.7-.6-1.22-.61-.97-1.46-2.31-9.1-11.53-5.34-7.04-2.55-3.04-2.07-2.06-2.67-2.55-1.7-1.33-1.45-.98-3.4-1.7-2.55-1.09-1.82-.61-4.49-.85-12.26-1.94-6.68-1.09-11.53-1.7-11.05-1.7-5.22-.36h-2.43l-2.79.24-3.04.36-5.94 1.34-3.04.85-4.49 1.33-5.34 1.46-9.35 3.04-2.31.48-3.15.24-1.34-.12-1.58-.36-2.3-.97-2.31-1.34-5.46-4.13-2.43-1.7-1.09-.6-1.82-1.1-2.43-.97-.37-.24-2.91-.73-2.18-.36-2.67-.37-2.8-.12-1.58.25-1.57.36-8.87 2.31-3.03 1.21-1.09.61-3.64 2.67-2.07 1.58-2.79 2.55-1.21.97-1.46.73-3.52 1.45-3.28.97-12.38 3.4-4.25 1.1-2.79.85-7.89 2.3-5.1 1.34-4.74 1.58-4.85 1.21-2.55.36-3.4.25h-1.94l-4.98-.37-5.1-.48-1.7-.25-4.85-.6-4.62-.85-2.91-.49-14.45-2.18-4.49-.85-5.1-1.1-7.28-1.33-2.55-.61-2.67-.48-1.22-.13-2.42.25-5.22.73-.25.12h-4.37l-1.45-.25-2.31-.72-3.76-2.31-2.07-1.7-10.68-9.35-1.09-.85-1.34-.73-1.21-.73-1.46-.6-1.58-.49-1.33-.24-.61-.12-2.18-.12-10.81-.49h-1.7l-1.82.24-10.8 1.95-2.19.36-1.09.24-20.88 4.37-9.35 1.7-11.53 2.19-5.34 1.21-2.79.61-3.4.85-3.04 1.21-1.45.73-2.43 1.7-2.43 1.94-6.43 5.71-1.46 1.34-6.19 4.37-9.47 6.07-1.22.6-1.82.98-.6.24-1.95.6-3.15.61-1.94.12-2.19.25-1.21.24-5.59.61-5.58.48-5.22.73-3.16.24-2.55.25-10.8.97-1.34.12-4.49.61-4.98.48-4.12.49-4.37.48-3.65.37-11.29.97-11.77 1.09-.85.12-4.01.61h-.85l-3.76.36-3.16.25-7.77.97-6.55.48-4.86.61-4.49.49-10.32 1.09h-.6l-.49.12-16.63 1.46-8.86.97-2.43.24-2.31.24h-.48l-3.64.37-3.16.36-.85.61-2.19.24-2.06.24-3.28.37h-.85l-.36.12h-.61l-4.85.49-2.43.24-3.04.24-4.97.49-.61-.25-.61-.24-4.37.49-6.92.73-4.97.48-5.35.61-1.57.12-7.17.61-7.4.72-2.19.13-8.01.85-8.01.72-3.64.37-4.98.48-1.58.13-4.49.48-2.31.24-2.3.25-.85.12-8.14.73-.97-9.11-.24-1.94-.36-3.89-.25-1.7-.6-6.43-.25-1.7-.12-1.34-.61-5.94-.97-8.75 11.05-2.55-.36-4-.85-7.89-.13-.97-.6-7.77-.49-4.13-.6-5.95-.61-5.1-9.83.97-12.63 1.09v-2.3l.24-5.59v-2.18l6.32 1.09 8.98 1.34 6.31 1.09-.61-1.09-1.21-2.31-.12-3.76v-1.34l-.24-3.04-.13-1.45-.24-1.34-.36-1.09-.61-1.58-2.06-2.67-4.98-7.53-.24-.36-.12-.73-.25-1.7v-3.64l.12-1.22.61-2.55.37-.97.6-.85.61-.72.61-.37 1.21-.73-.49-4.61-.24-1.09-.48-1.46 3.4-1.94 1.82-.61 2.06-.36 1.46.24 3.52.73h1.09l2.79-.37.97-.48 1.34-1.34.36-.73.49-1.21.24-1.82-.12-1.34-.12-.36-.97-1.34-.12-.12-.25-.36-.73-.49-1.21-.48-8.25-2.67-.37-.25-.36-.6-.49-1.1v-.12l-.24-1.7v-.97l.48-1.46 1.34-2.91.24-.49.25-1.45v-1.82l-.25-2.31 1.94-.97 1.7-1.09 2.31-2.31 2.19-2.67-2.43-3.16-2.43-2.55-5.95-6.43-3.76-3.4-4.01-3.64-.97-.85-6.43-5.35-10.2-7.64-.97-.61-2.91-1.82-6.32-3.77-.24-.12-6.19-3.28-4.37-2.18-3.76-1.82-8.38-3.16-.24-.24-2.55-.85-6.32-1.7-10.31-2.19-1.7-.24-4.86-.85-4.73-.73 2.06 4.01 1.82 4.01.85 2.18 1.21 4.01.73 3.88.61 5.1 17.24-1.46 7.77-.72 4-.13 2.07.25 1.33.36 1.58.49 1.7.73 2.91 1.57 8.02 5.95 3.39 2.67.49.37 2.06 1.58 2.67 2.18 1.22 1.34 2.18 2.91 2.43 3.64.73 1.46.73 1.82.61 1.82 1.09 4.01.36 1.21 1.82 14.69-3.15.49-4.86.24-3.4.37-7.28.6-6.56.37-34.23 2.55 1.94 9.83.24 2.06.13.61.72 9.47.13 2.55.12 2.31-2.92 1.21-8.74 3.52-4 1.7 1.09 9.35 1.21 11.05.85 7.28.61 9.96h.24v.12l.12.12.13.12.12.12v.25l.12.24.73 8.13-10.2.97-8.38.85.49 4.74.97 8.01.49 5.46.48 4.74 1.21 10.56-8.61.73-8.62.73-8.62.85 1.21 10.68 1.22 10.44 1.21 10.69 1.33 13.35-2.79.24-3.52.37h-.73l-.72-.12-2.07-.85-2.18-.97-.49-.25-.85-.12-1.33.12-2.43.13-4.86.48-9.22.85-9.47.97-9.47.73-.97-10.68-1.1-10.44-.85-10.45-.97-10.56-.24-2.91-.73-7.29-.36-3.52-.61-6.8-1.21-12.74-.49-4.5-.48-4.85-.73-8.01-.97-11.66-.85-8.13-.85-8.87-.25-3.15-.24-2.67-.36-3.89-.85-9.71-1.22-12.99-.24-1.94-.24-3.4-.37-2.07-.48-2.79-.37-2.06-.36-2.55-.61-3.04-.97-4.37-.97-4.13-4.73-18.94-.37-1.33-.97-4.37-2.06-8.02-.25-1.82-1.09-6.67-.48-2.67-.13-.85-.12-.73-.24-4.13.12-1.21-.97-.73v-.73l.24-2.55.12-1.22 1.83-14.44.6-.73.12-.97.85-4.98.98-6.92.6-3.76v-.37l.24-3.28.13-2.67.12-8.37-.25-4.13-.12-1.46-.6-6.8-.37-2.67-.97-4.61-.85-4.01-1.09-4-.85-3.04-2.31-6.43-5.58-15.06-1.82-4.61-2.07-5.22-4.49-11.9-.61-1.7-2.06-7.28-.73-3.28-.6-3.52-.61-3.4-.73-6.44-.36-7.04v-.12l-.49-17.73-.24-20.15-.24-6.55-.25-3.28-.24-4.13-.36-4.61-.61-5.1-.12-.61-.37-2.06-.97-7.17-.36-1.45-.61-2.8-.97-3.88-.49-1.94-1.82-7.89-8.49-27.81-4.13-13.59-2.43-7.05-3.76-11.29-.97-2.91-2.92-9.23-12.38-39.94-2.06-6.31-4.25-13.36-.49-1.82-2.18-6.8-5.59-17.12-.36-1.45-2.31-7.41-.73-2.18-4.25-14.69-1.09-3.77-2.06-8.01-1.46-7.28-1.09-7.05-.24-2.3-.61-5.34-.85-13-.12-3.88v-7.53l.36-.85-.12-4.97.12-3.4.12-2.8.25-14.57.24-2.79 1.82-7.65 5.71-13.96.36-1.94v-2.43l3.03-8.38 4.98-13.84 4.74-14.69 7.52-20.27.73-2.31 7.28-21 .98-3.28 6.79-17.48 4.5-11.66 3.88-11.89 5.34-16.27 4.13-12.14 1.09-3.04.12-.36 5.1-14.33 4.49-12.38 3.4-8.5 6.44-18.7 2.79-8.98.24-.49 8.5-24.28 1.21-4 1.82-7.53 1.7-9.47.49-3.28.36-6.31.25-7.29v-3.52l-.25-7.04-.48-7.04-2.43-16.88-1.82-16.02-4.01-30.84-1.33-9.47-2.92-21-2.42-20.88-2.43-17.97-1.46-13.36-.36-5.46-.12-7.65.12-5.22.48-6.55.37-3.04.85-5.83 1.33-7.65.24-1.21.98-4.49.6-2.31 1.95-8.25 4.37-15.18 2.18-6.92 2.19-7.89 4.85-18.46 2.07-6.79 1.69-6.56.13-.49.85-4.49 1.21-9.59.24-5.22v-4.98l-.24-2.67-.73-6.68-.73-4.37-.85-4.12-6.19-22.71-.12-.48-1.7-7.17-1.82-10.8-.97-11.05.12-6.68.61-9.83 1.09-10.44 4.01-40.43 1.33-12.63 1.82-14.69.85-5.58 1.09-5.1.85-3.76 1.46-6.32h1.22l.97-.24.6-.48.37-.49.36-.61 2.55-7.77.37-.73 7.28-14.69 2.55-9.83v-11.65l1.09-4.5.37-2.42.48-4.25.61-6.32 2.55-20.03 1.33-13.35v-.85l.12-5.95-.24-5.95-.61-5.59-.72-4.73-.85-4.61-1.58-6.07-2.43-6.68-.73-1.94-3.76-8.5-3.28-6.8-10.68-23.8-3.4-7.89-1.58-4.13-2.31-6.8-1.45-4.61-1.46-7.16-1.33-8.62-.85-6.92-.49-7.77.24-9.11.73-7.4 1.21-8.87 1.34-6.07 1.82-5.94 1.34-4.74 2.42-.36.98-.37.72-.61.37-.6.48-1.22 1.82-5.82 1.34-3.89.73-.97 1.09-1.09 1.46-.97 6.43-2.67 6.07-1.7.97-.25 1.1.12 1.09.37 8.62 4.37 1.58.97 1.94 1.21 1.7 1.22 1.82 1.58 1.33.97 5.47 3.76 2.79 1.58 3.64 1.46 7.28 2.91 1.95.61 1.94.48 1.82-.36 1.33-.37 1.58-.72 1.58-1.1 3.4-2.18 4.61-2.19 1.95-.85 1.94-.6h1.45l1.83.24 1.82.61 1.21.97.97 1.45.61 1.46.12 1.94-.12 1.58-.37 1.09-.48 1.83v.97l.12 1.09 3.52 7.28 1.34 1.95 1.33 1.45 1.34.97.6.13 1.1.12 15.41-1.58h1.34l1.58.36 4.61 1.7 8.86 4.13 1.46.85.97.61.97.85.61.73.85 1.21 7.28 12.14 4.13 6.07 1.33 1.46 1.22 1.21 1.58 1.22 2.42 1.45 2.31 1.09 1.82.85 1.46 1.22 1.21 1.58 5.22 7.04 1.95 2.31 1.45 2.06 1.46 1.94 1.46 2.07 1.09 1.45 1.21 1.22 1.46 1.21 4.73 3.64.85.97.97.98 1.34 1.57.49 1.1.36.97.24.73.24.48.49.49 2.55 1.09 2.18.85.85.36.98.37 1.45.61 4.86 1.94 1.33.6 1.58.49 1.46.24 1.33.25 2.07.24 7.89 3.28 2.91 1.45 16.88 9.96 10.8 6.43 1.21-1.45 2.43-2.43 5.46-5.34 9.96-9.35 3.16-3.4 2.3-1.94 2.07-2.19 2.67-2.91.97-1.46.97-1.7.36-.85.61-1.94 1.09-5.46.85-2.92.37-1.09 1.57-2.79 2.43-3.89 4.01-6.55 1.46-2.31 1.45-1.82 2.07-1.94 5.46-3.53.73-.6 1.58-2.43 1.21-2.31v.61l.61 2.55.48 2.06 1.58 1.7 1.21 1.34 1.22 1.21 1.58 1.94 1.45 1.46.61.37 1.7.6 5.34 1.1 1.82.72 1.46.73 1.7 1.22 5.83 5.7 2.79 2.92 4.12 4 3.77 3.04 1.33.85 3.16 1.09 2.43.49 6.19.97 2.55.73 2.91 1.45 1.94 1.34 2.19 1.7.97.85 1.09 1.45 2.92 4.13 1.7 2.19 1.7 1.58 3.64 2.42 2.43 1.22 1.57.48 1.22.25 5.46.85 1.46.48 1.45.73 2.19 1.94 2.31 2.43 1.09.85 1.09.97 1.58.85 2.43.85 2.3.12 4.62-.24 6.31-.61h1.82l1.09.25 2.19.85.97.6 2.06 1.58 1.46 1.22 1.46 1.7.85 1.09 2.42 5.22 1.95 4.85 2.18 5.1 1.09 1.7 1.7 1.82 1.22 1.1 1.21.85 1.09.6 4.86 2.07 3.76 1.45 3.64 1.58 3.52 1.22 1.83.36 3.76.61 2.06.12h5.47l2.06-.24 2.79-.49 2.43-.97 4.73-2.55 4.74-2.43 1.21-.48 2.07-.37 1.21.12 2.79.85 1.34.85 6.19 4.25 1.7.73 1.09.12h.61l1.33-.36.61-.37 4.01-4.37 3.76-3.27 2.43-1.7 2.3-1.46 1.46-.61 1.82-.24 3.4.48 4.49 1.46 3.64 1.58 6.8 3.76 5.1 3.4.85.49 1.94.85 2.67.61 2.19-.13 2.67-.36 1.94-.12 1.7.12 1.34.36 2.79 1.46 6.55 2.91 7.53 3.28-2.18 10.93-10.32 16.27-2.67 2.55-3.04.36-7.16-2.06-2.19 1.21-12.01 46.86-13.24 6.92-1.21 3.04.24 48.2-26.22 34.72 5.59 5.58 2.06 1.83 2.31 2.18 2.18 2.92 11.65 10.68 2.31 1.94 1.22 1.22.48.72.61 1.7.36 1.46 1.09 4.74.37 2.79.61 7.04.85 4.01.72 2.42.49 1.22.48.73 2.07 2.06 1.82 1.58 18.21 12.38 11.53 7.65.49.49.48.97.37 1.7.36 5.58.37 10.08v3.28l-.37 2.06-1.09 2.91-.85 2.8-.49 4.97-.12 3.65.12 1.33.37 1.82.36.97.37.73 1.45 1.46 2.07 2.43 1.09 1.82.36.36.61.37 1.46.24 2.42-.12 3.16-.12-.85.97-.97 1.21-17 25.62-5.46 9.1-2.67 4.01-.85 1.21-1.58 1.58-.85.37-1.21.6-2.43.85-4.13.85-3.15.37-8.74.12-25.74.85-18.82-2.19h-1.82l-1.33.37-1.22.36-5.22 3.16-6.67 4.61-3.16 2.43-3.03 2.55-12.63 10.44-20.03 16.88-4.37-.97-4.73-1.22-6.07-1.33 1.82 14.32 1.21 12.63 2.07 20.15.97 8.38 1.21 38.61 9.35 54.51 8.98 82.67 9.35 84.75 1.58-2.67 4.37-18.22 8.25-9.83 2.55-5.46 6.8-12.87 13.84-49.54 1.94-7.52 1.7-5.71 13.48-9.1 7.4-5.83 5.58-.61.61-.24.61-.37.24-.36.49-2.91.6-2.19.98-1.94.6-2.07.49-2.18 1.09-5.71.61-1.82.73-1.45.48-2.43.49-2.31.48-1.7.85-1.7 2.31-3.76 1.46-1.7 2.42-1.7 3.16-1.09 4.61-1.34 3.89-.85h1.45l4.62.49 2.67.12.73-.12.6-.37.37-.36 1.33-2.8.61-.36 4.61-2.18.61-.73 1.34-2.07.85-1.45 1.09-3.04.6-.85.61-.36.37-.73.12-.49.24.49.12.61.12.48.12.49.37.24.97.49.97.24h.49l.48.24.49.24.24.37.36.85.25.73.6 1.57.25.85v.37l.48 1.09.25.49.48.36 1.58-.36.48-.25 1.34-3.52 1.7-1.09 1.58-.97.73-.37 1.57-.6.73-.37 1.95-.12h3.03l.97.25.85.12 1.94.12.97.24.85.24 1.7.49.85.24 1.7.49.97.24.73.36.73.37.85.36.49.37.36.85.24.85.37 3.03.6 4.98.37 3.4.48 3.76.37 2.67.24 1.95.12 2.42.61 1.1.85.97.85.24h4.49l1.09.73 1.22.49 1.09 1.21 1.58.85.85.36 2.06.12 3.28-.24 3.03.12 1.95-.12 3.4-.12 2.42-.12 1.1-.12 1.57.6.85.49.49.24.36.37.25 3.76v.61l.36 4.61.85 10.81 2.43 27.07.97 12.26 2.43 22.1 3.03 30.59 1.22 13.48.12.73.24 1.21.12.49.24.12.37.36.48.25 1.46.12 1.82.48.49.37.73.72.97 1.34.48 2.55.73 4.49.37.73.85.85 1.09.73 4.25 1.09 1.57 1.46.73 1.7.37 2.3.12.98.24.36.61.85.48.36.73.49 1.22.49 4.37.24.73.73.12.97v2.91l.36 1.22 7.89 11.65 7.65 11.29-2.31 4.98-2.3 5.58-7.41 16.39-1.7 4.13-.97 2.19-2.55 4.49-4.37 9.95-3.88 8.5-.25.73-.24 1.82.12 4.01.37 3.76.36 9.11.12 17.48.49 8.38.6 5.34.37 3.64-.24 5.71.24 2.55.85 7.4.73 5.95.36 1.34.37.6.84.85.98.61 1.57.61 21.61 7.16 1.7 1.09 1.22 1.7 1.82 3.89 4 7.28 5.34 11.66 1.34 2.18.73.97 2.55-4.25 1.94-3.03 1.09-1.21 1.34-1.1 1.21-.73 1.58-.48 2.55-.49 3.16-.24 9.22.61h.73l1.34.12h2.54l4.13-.12 5.34-.37 15.54-1.94 2.79-.48 2.55-.73 5.22-1.1 1.58-.24 1.09-.12 2.55.61 1.58.24 4.49.36 4.01.13 2.06.12 1.95.36.97.24h.36l6.92 1.22 2.67.73 3.04 1.21 2.18.85 1.46.36 11.41-1.09h.97l5.95-.73 2.55-.12h1.7l1.09.12 3.89.97h1.09l1.45-.24 2.19-.73 1.94-1.33 4.98-2.92 3.16-2.06 2.18-1.58.85-.61 2.79-2.67 2.19-2.3 8.37-9.35 2.67-2.43.85-.73 1.22-.73 2.18-1.09.85-.24 1.82-.37 5.59-.6 22.09-1.7 26.95-2.43 27.2-1.34.72-.24.73-.36.85-.85.49-.61.48-.73.25-1.21.36-2.07v-3.76l.24-3.52.12-1.7.37-2.79.12-.73.73-1.7.97-1.46.61-.6.72-.61.98-.61 1.57-.85.85-.24.73-.24h.97l.85.12h.49l4 .73 1.1.12h1.7l.6.12.61.12h.49l1.82-.24.97-.37.48-.48 1.1-1.46.48-.97.24-.61.61-2.55 1.09-5.22.37-1.21.85-1.82.36-.49 1.34-1.33 3.03-2.19 2.92-1.34 1.7-.24 4.37-.36.6-.24.73-.37 1.46-.97 1.33-1.34 4.74-4.97 1.82-2.19 1.58-2.55.48-.97.85-2.31.49-1.82.12-1.09-.12-1.58-.37-1.82-1.45-4.73-1.7-5.35-.25-1.94v-.85l.25-1.33.36-1.34 2.43-5.1.97-1.82.97-1.58.97-.85.73-.6.85-.25.85-.12 1.09.12 1.58 1.1 1.22.84 2.18.85 1.34-.12 1.09-.6.97-.61.85-1.09.97-1.1.73-1.09.97-2.18.36-1.34.25-1.46.24-1.33.61-1.34.97-1.33.85-.61 1.21-.49 1.7-.12h7.89l1.94-.24 1.22-.24 2.18-.85 1.1-.37 1.09-.12h.85l1.21.37.97.48 1.34.85 1.46.73.97.61 1.45.6 1.22.25 5.22.48 2.18.12 2.67.25 2.31.24 1.46.24.97.12.97.37 1.7.73 1.21.73.73.72.49.85.48.97.37.85.36 1.34.24 1.34.61 3.39.85 4.5.36 1.82.49 2.18.49 1.58.48 1.09.49.85.6.85.73.73.85.61 1.09.48 1.1.37h2.3l1.82-.12 1.46-.12 2.91-.85 4.5-1.82 1.82-.73 1.45-.37 3.28-.85 1.09 5.22.98 5.47.36 3.27.24 2.68v1.09l-.24 2.18-.24 1.34-.37 1.21-1.82 5.22-1.21 3.16-1.22 2.67-4.85 9.11-.24.85-.13.97v2.3l.25 2.07.48 1.82.85 2.55.85 1.7.49.85.85.97.48.36.97.61.85.61.49.85.36 1.21.37 5.46v.98l-.37 1.09-.24.48-2.79 3.53-.24.48-.13.85.25.85.24.61.61.73.85 8.01 7.64 69.32 33.39-3.28 16.63 145.21 16.63 145.2 13.72 94.21 11.65 80.13-.24 16.75 17.36 138.28 14.32 132.58.37 4.13-.97.12-3.4.48-2.19.49-3.15.73-8.62 1.7-4.86.73-2.91.24-9.11-.12-6.67-.37-4.13-.24-3.04-.12-3.39.12-4.01.49-3.04.6-.85.25-.6.12-1.58.6-4.37 1.95-12.87 7.04-1.33.73-11.29 3.64-.37.12-6.31 2.06-2.67.61-5.22.85-4.13.49-4.61.6-5.1.49-5.71.73-2.79.24z" stroke-linejoin="round"/></defs><use xlink:href="#e" fill="#09757a" stroke="#097d9b" stroke-width="5.76"/><defs><path id="f" d="M747.31 1994.1l-.48.12-4.74.73-10.8.97-6.56.48h-1.94l-1.45.13-6.8.24-4.13-.24-4.61-.73-6.68-1.82-6.56-1.82-1.7-.37-2.54-.12-2.55.24-2.92.49-1.94.36-11.53 3.16-2.31.48-11.17.61h-3.64l-7.16-.24-2.43-.12-3.52.12-3.03.36-7.9 1.58-4.24.97-3.89 1.1-10.2 2.79-4.97 1.21-3.16.61-1.58.24-1.45.12-1.83.25-3.39.24-15.06.85h-7.04l-2.43-.12-1.21-.12h-.49l-1.33-.13h-4.61l-12.02-7.89-1.46-.48-.49-.37-3.88-1.94-11.9-5.46-114.23 9.71-97.6 7.77-3.16-41.76-.97-6.07-2.19-18.22-.72-6.79-2.19-3.16-4.49-6.56-1.34-1.94-.36-.48-.49-.61-.36-.49-.36-.48-.61-.73-.73-.85-.24-.37-.61-.48-.36-.37-.73-.6-.85-.61-.37-.24-.36-.12-3.4-1.22-.48-.12-.37-.12-3.03-1.09-1.82-.61-1.46-.61-.61-.24-1.46-.49-1.21-.72-6.07-2.92-1.7-.85-7.28-3.64-5.71-2.55-3.28-1.82-.85-.49-4.97 1.22-.37-.97-.73-1.7-.24-.61v-.49l.24-.97-1.33-1.09-1.46-1.46-1.45-1.7-2.43-3.4-2.07-2.91-2.91-3.64-2.18-3.04-1.22-1.58-1.09-1.82-.24-.85-.37-1.09-.6-2.43-.73-5.46-.49-2.67-.12-.73-.12-1.09-.24-.61-.98-.85-.72-.36-.97-.12h-.98l-11.89.85-6.68.48h-.73l-10.92 1.34-6.68.6-4.13.49-3.28.73-4.61 1.09-4.49 1.34-2.79.97-3.4 1.09-2.55.73-2.55.48h-8.38l-6.79-.12h-13.24l-5.82-.36-1.95-21.25-1.57-13.6-.73-2.91-.37-.61-.36-.72-2.19-1.34-9.34-3.4-3.28-1.7-4.61-3.88-4.25-6.07-1.1-2.43-2.79-8.5-2.55-5.71-4.61-11.77-.12-.25-2.43-7.04-1.94-4.49-2.55-11.53-1.58-5.22-1.09-2.43-4.62-4.62-2.91-3.27-2.18-3.16-3.16-5.71-5.95-12.38-.12-.24-2.18-3.77-1.58-2.55-5.1-8.01-1.34-2.79-4.12-10.08-1.58-2.3-3.04-3.16-1.94-3.76-.73-2.68-1.21-6.79-1.82-15.3-.61-1.58-.85-1.46-3.76-4.85-3.28-6.92-.73-1.7-1.46-3.16 3.16-1.7 2.43-1.46 4.98-3.64 2.06-1.94 2.79-1.34h2.06l3.65.61 3.52-.12 4.25-.97 2.06-.24 1.94-.25 7.89-.24 23.43-2.19 3.4-.48 1.22-.24.6-.13 1.22-1.45.36-2.43-5.1-43.22v-3.4l.49-2.79.85-3.16 2.06-3.52 2.06-2.55 2.43-1.7 4.86-1.09 10.2-3.16 24.03-6.31 9.35-1.82 3.64-.49 1.46-1.33 13.72-16.52 6.92-8.74 4.73-5.22 18.94-17.84 1.7-.61 2.67-.12 11.41-.37 1.7-.36 8.86-6.19 3.04-2.31 5.09-2.55 3.52-.97 22.83-4.49 2.3-.24.13-.73v-.49l-.73-5.34-.85-6.43-.12-1.58.12-1.34.48-2.06.25-.73 1.33-5.71 20.03-1.82 15.05-1.45 8.38-.73 10.44-1.1 32.78-3.03 16.63-1.7 10.07-.73 16.64-1.58 39.21-3.15 7.52-.49 4.74-.49.97-.24-2.55-25.13-3.28-28.04-4-40.68-2.43-18.93-1.09-9.84-.98-9.83-1.82-17.12-.48-7.41-1.22-10.92-2.3-25.01-1.7-14.94-1.46-15.05-1.21-9.83-.97-10.08-1.7-14.93-.13-1.7-.12-.49-.6-4.01-.25-3.88-1.09-9.47-1.33-10.2-.98-10.08-2.3-20.39-1.34-10.08-1.94-19.18-1.33-13.11-2.19-18.94 2.31-.12 14.56-1.58 12.51-.97 6.67-.61 2.19-.24 1.58 2.06 1.45 1.82 2.68 3.77 4.49 5.95 3.03 3.52 2.55 2.18 2.43 1.82 5.1 3.16 7.52 4.25 4.25 2.55 12.63 7.52 3.88 2.43 2.31 1.58 10.68 8.01 4.37 2.92 4.13 1.94 4.73 1.94 3.89 1.1 5.34.97 1.58.12 7.77 40.67 2.91 37.64 17-1.7 1.94 34.6 2.55.85.61 5.46 1.57 14.81 1.1 10.81.48 4.85.49 4.49.36 3.04 1.82-.12 2.31-.12 8.13-.61 4.25-.36.85-.13 5.59-.36 7.52-.61 6.31-.36 3.28-.37 16.63-1.45 2.8-.25 6.43-.24 2.31-.36.85 3.88 1.94 5.95.61 2.31.24 1.7.36 4.37 1.22 11.17 2.42 22.22.85 11.04 1.46 15.79.12 1.82.37 3.28.12.6 1.21 11.29.73 5.22.85 6.2.61 8.74v.48l.73 6.32.48 4 .73 5.95 1.94 18.82.49 5.22 3.64-1.58.24-.24v-.73l-1.21-4.61v-1.1l.6-.6 7.65-4.62 6.68-3.76.61-.24 2.67-.49 6.43-.73 4.98-.36h1.33l1.22-.24.73-.49.6-.49.61-1.09 1.21-1.82 2.55-4.37.49-.61.24-.24.37-.36.85-1.7.97-1.1.97-1.33.12-.24.24-.61.25-1.58.48-.97.85-2.79.24-.85.12-1.22.13-.12.12-.24.6-.49 2.07-.6h1.46l1.57.36h.85l1.82-.36 2.07-.73 1.09-.25h1.82l.24-.12.49-.36.12-.37.24-.72-.12-.85-.36-1.46-.24-1.34-.13-1.45-.24-4.01-.36-3.52-.49-5.22-.85-6.44-.24-2.18.61-1.58.72-1.82 5.83-3.28 1.7 10.44 2.06 16.64.49 4.61.12.48.12.73.61 2.31v.12l.49 3.16.24 4.25.12 3.4-5.34-6.92 3.4 54.26 4.97 26.71 3.4 8.14 8.5 2.79 2.43.73 2.55.48 8.98.61 9.23.85 3.28.37 3.76 1.33.85.24 4.73 1.22.61.12 1.09.24 2.31.61 5.95 1.33 16.02 4.01-1.33-12.75-.85-9.71v-.48l-.73-9.23-2.92-24.65-1.45-13.96-.24-1.33-5.71-18.34-.24-1.33-2.07-26.1-.48-1.83-.61-1.69-.85-1.7-.36-1.1-.73-1.09-1.22-2.06-.36-.49-.73-.97-1.82-2.19-1.7-1.82-3.16-2.18-5.34-3.28-3.76-4.01-2.18-2.42-.73-1.7-2.31-6.68-2.06-5.59-3.65-7.04-8.13-13.84-2.06-1.21-3.16-2.43-.73-.61-2.18-1.94-.85-.85-1.46-2.67-3.16-9.23-1.82-4.37-2.18-5.1-.73-1.58-.49-2.67 1.22.97.85.73 1.58 1.46 4.61 3.76 1.94 1.46 4.98 4.13 3.52 2.91 2.67 2.19 4.01 3.28 10.44 8.61-.61-1.45-3.76-7.41-2.19-3.52-3.64-5.7-5.58-6.68 9.83-.37.73-.97 1.7-.6.24-.37v-.73l.24-.6.37-.25 2.3.37.37-.12.12-.73.24-.37 1.46-.73.73-.36.24-.12.12.12.12.24.37.49h.48l.24-.24.25-1.22.24-.24.49-.12.12-.24.12-.37v-.73l.12-1.45-.12-.49-.37-.49-.12-1.09.25-.24.48-.12.61-.37.73-.6.97-.25 1.45-.36 4.98-.12 1.58.12h.85l.85-.24.61-.73 1.45-2.43 1.46-1.09 2.43-1.1 2.55-.85 2.06-.48h.36l2.55.24.85-.36.97-.85.49-.37 11.65 4.62.37.12 14.2 5.58.37 2.31.24 1.7.24.73.37.97.6.97 1.1 1.46 1.7 1.45.97 1.34.12.24.24.49.24 3.28.37 3.76.97-.12 9.1-.61.12 1.46 7.29-2.43 4.49-1.21-2.19-16.52-3.76-39.57-6.92-51.72 1.46-.25 10.56-1.21 10.93-.97 11.89-.97 19.06-1.09 10.56-1.1 6.19-.36-1.33-12.02-.85-7.89-1.82-19.91-2.55-22.22-1.58-14.69 18.57-1.21 5.35-.61 12.01-1.46 7.77-.73 8.99-.12 3.64-.36-.24-1.82-.98-3.52-.36-.73-.24-1.22.12-2.06-.24-.73-.85-1.21-.61-1.22-.24-.85v-.73l.85-1.82.36-.73.37-.24h.6l1.09.61 1.95 1.33.48.13.37-.25.24-.48.12-.85v-2.19l.37-1.21.24-.61 1.21-1.33.97-.98 1.95-1.21 3.39-1.33 2.19-.25.85-.36.61-.61.36-.61.85-3.15.61-1.46.6-.85.49-.36.61-.12.97.12 2.55-1.1h1.09l.85-.36.61-.36 3.27-.73h1.1l.97.24 1.21-.24.49-.37.73-.6h.48l2.43.36h.97l1.21-.24.85-.37.73-.48.97-.73.85-1.34 3.04-4.97.61-.73.36-.25.49-.6.48-1.22.97-1.33.24-.73.13-.97.12-1.46-.12-2.79-.73-2.31v-.48l.36-.49.49-.36.97-1.34 1.58-1.09.24-.37.36-1.21.13-1.7v-.85l-.13-.24-.48-1.58-.12-.85.24-.49.61-.24.48-.85.37-.61.85-.12.6-.24 1.1-2.79.97-1.46.85-2.06.73-1.22 1.57-2.18.61-.85.36-.12.49-.12.85.12 1.46 1.09.48.12h.37l.36-.24.49-.85.24-.61.24-1.21.61-2.07 10.44-.97-3.28-22.22 1.34-5.58-12.26-116.19-5.71 2.31-1.46.36-1.94 1.1-.97.73-2.79 3.03-1.34 1.82-1.7 2.55-2.43 3.04-1.33 1.33-1.46 1.34-1.21 1.33-1.34 2.07-.85.85-.6.6-6.92 5.22-2.67 2.31-1.95 1.46-4.37 2.43-2.55 2.18-.72.37h-.49l-.73-.13h-2.67l-1.21.13-2.07.85-2.79 1.57-3.15 2.19-1.1 1.09-1.21 2.19-.85 1.82-1.09 2.91-1.22 2.31-.36-4.49-.97-7.53-.49-5.71-4.61-38.85-3.28-29.38-1.09-8.86-3.28-29.02-.61-6.31v-.73l.25-.97.36-.61.73-.24 17.48-.97 2.18-.24 3.28.12.49.12.85.49 1.33 1.7.85 1.57.25.25.24.12 1.09.12 1.46-.36 1.33-.61.85-.85.37-.49.85-1.94.85-2.55.85-4.49.6-3.4.85-2.67 1.1-2.67.24-2.07v-1.57l-.12-2.43-.25-1.22.37-.12.97-.48.61-.61 1.09-.85 1.09-.36.73-.13 2.43-.24 3.52 1.58 3.16 1.82 8.01 4.98 1.7-.12 1.09-.37.73-.48.6-.85.49-.97.12-1.22.12-2.67-.73-2.91-.24-2.92.24-1.09.85-1.21 6.8-5.95 2.19-1.7 1.09-.73 4.73-1.7 2.07-.12 2.18.73 4.62 2.42 1.33 1.1.61.6 1.21 1.58 2.07 3.28 1.45 1.94 1.58 3.04.73 1.46.49 2.06.24 1.33.97 3.16.61 1.46.97.61.73.24 2.06-.12 1.82-.73 1.34-.73 1.21-1.46.85-1.82 4.13-9.71.73-.73.48-.24.85-.12 1.21.12.49.24.97.73.49.85.48 1.58.12 1.21-.24 2.07-1.94 6.19-.37 1.45-.12 1.22.12 1.82.25 1.58.73 3.28 1.7 5.09.24 1.22.73 4.73v.97l-.12 1.46-.37 1.58-.61 1.58-1.57 3.03-4.5 7.65-.6 2.07.12 1.33-.97 9.35-.85 6.07-2.07 12.38-1.21 5.35-.24 2.3v2.92l.24 4.49.24 1.45.49 1.46 1.09.85.12-.85 4.74-1.82 12.38-3.76 1.33-.49 1.1-.61 1.7-1.09.85-.73 1.57-2.3.37-1.1.36-1.21.61-3.64.36-4.25.25-2.07.73-10.8.48-2.91.61-2.07.36-.97.73-1.21.36-.49 1.46-.97.73-.37.85-.36 2.31-.36h1.33l2.55.24 1.21.48 1.22 1.1 1.33 1.58.49.36.61.24.48.12 11.9-1.45 5.46-.49 4.25-.36 1.58-.49 9.47-1.82 8.86-1.33 3.03-.25 3.53-.48 2.3-.49.97-.48.85-.61.37-.37.97-1.82 2.79-6.19-2.18-1.09-2.68-1.94-2.3-1.82-1.94-1.95-4.37-4.61-5.83-7.41-3.16-3.88-1.21-1.82-.85-1.95-.24-1.21-.25-1.7.12-1.58v-.73l-.48-12.14-.49-11.17v-.72l.25-1.22.36-1.45.73-2.07.97-2.79 2.06-4.01 1.46-2.18 1.7-2.19 1.82-2.18 5.83-8.26.6-1.82.25-1.09v-2.31l-.61-7.89-1.58-15.66-.61-6.68-.72-7.04-.25-2.31-3.4-28.89-.36-3.04-.12-.73v-1.7l.73-2.06.48-1.58.49-2.43.12-1.09-.24-2.06-.49-2.31-.61-2.18-1.57-6.92-.73-2.68-2.92-8.25-.72-2.79-.49-2.8.12-4.49-.24-4.49-.49-2.91-.36-1.95-.97-2.55-.97-1.82-.37-1.21-.12-1.46.12-4.37.61-9.59.49-4.13v-2.79l-.25-3.89-.6-3.88-.25-2.19-.85-8.49v-.73l.12-.49.73-.6.73-.13 5.46-.36 3.89-.97 4-1.34 1.95-.73 1.45-.36 2.92-.49 4.37-.12 5.46-.48 2.19-.12-.37-2.19-1.46-15.42-.6-4.13-.24-2.67-1.1-5.95-.36-3.15-.24-2.92-.13-4.73v-6.8l-.24-6.19-.12-1.7-.24-1.21-.37-1.22-1.09-2.91-.36-1.1-.37-3.39.12-1.95 1.7-6.8.37-1.57.36-2.8v-1.94l-.36-2.31 5.7-4.49 38.73-29.86 4.98-2.43 70.41-46.62 7.89-5.22 37.99-25.13-3.88-87.66-.12-1.09.12-.37.73-1.09.48-.85 1.09-.61.49-.12 1.21-.12h2.31l.73-.24.73-.49 1.21-.85 2.67-2.79.85-.36 1.46-.25.48-.24 1.34-1.94.24-.49.25-3.15.12-.49 1.21-1.82.49-.85.97-3.16.6-2.18.85-2.31 2.55-5.95.37-1.45-.12-.98-1.1-3.52-.24-.97v-2.79l1.94-8.13.25-.73 1.09-1.7 8.25-8.26 2.19-2.06-2.91-3.77-1.58-2.18-1.46-2.79-.97-2.43-4.74-10.68-3.15-5.47-1.46-1.94-2.18-3.28-.85-1.58-.25-.85-.85-4.97-.36-1.34-.73-1.7-.73-1.46-.36-.48-.85-.73-3.76-2.67-6.07-3.4-3.52-2.55-2.8-2.55-1.33-.85-2.79-.73-1.46-.24h-1.94l-.85-.12-2.67-1.09h-.85l-2.8.48-2.18.24-1.34-.12-2.79-.36h-2.43l-2.55.12-3.88.12-4.01-.24-8.37-.37-.85-.24-.85-.48-.85-.61-.49-.49-1.21-1.58-.61-.48-6.8-4.98-2.06-1.82-1.46-1.21-7.52-4.86-1.95-1.09-5.7-2.92-1.22-.36h-3.15l-8.5.97-2.43.12-.48-.12-.73-.61-.49-.73-.36-1.21-2.79-26.83-.73-13.96-.24-1.22-.49-.72-.97-.61-.85-.24-.85.12-5.58.6-3.28-.24-1.34-.36-1.94-.85-2.43-1.58-.73-.24-1.21-.25-1.58-.24-2.06-.36-.97-.37-2.55-.12 3.52-.48 5.46-.37 17.24-1.33 12.26-.13 21.37-2.79 68.1-5.22 11.53-.73-.61 1.1-.24.36-.12.73-.12.73v.73l.12.48.24.12.37.25.36.24.24.24.61.36.12.25.12.48.37 1.46.12.12h.36l.37-.36.6-1.1.61-.72h.37l.85.48 1.82 2.43 1.21 2.31.12.97-.12 2.67.61.85 1.09.48 1.7.49h.97l1.09-.24.73.12.12.12.37 1.58.12.97v.49l-.24.48v.37l.12.72 2.55 2.8.6.48 4.98 2.31 3.64 1.94.49.49.36.48.12.85.13.73.36.49.49.36.6.12 1.09-.24 2.07.36 1.09.37 1.94 1.45 3.04 2.67 2.18 2.55 1.34 1.95.36.24h.61l2.06-.24 4.25-1.58 1.94-1.09 4.01-1.46.97-.12h1.46l1.58.36.73.49.72.73 1.22 1.57 1.33 1.83.25.24.36.12 2.79-3.04 2.31-3.88.48-.49.49-.36 2.18-.85.73-.36.97-.85.85-.85 1.58-1.22 1.34-.48-1.82 5.22-4.37 11.53-1.34 4.74-1.82 5.94-1.34 6.07-1.21 8.87-.73 7.4-.24 9.11.49 7.77.85 6.92 1.33 8.62 1.46 7.16 1.45 4.61 2.31 6.8 1.58 4.13 3.4 7.89 10.68 23.8 3.28 6.8 3.76 8.5.73 1.94 2.43 6.68 1.58 6.07.85 4.61.72 4.73.61 5.59.24 5.95-.12 5.95v.85l-1.33 13.35-2.55 20.03-.61 6.32-.48 4.25-.37 2.42-1.09 4.5v11.65l-2.55 9.83-7.28 14.69-.37.73-2.55 7.77-.36.61-.37.49-.6.48-.97.24h-1.22l-1.46 6.32-.85 3.76-1.09 5.1-.85 5.58-1.82 14.69-1.33 12.63-4.01 40.43-1.09 10.44-.61 9.83-.12 6.68.97 11.05 1.82 10.8 1.7 7.17.12.48 6.19 22.71.85 4.12.73 4.37.73 6.68.24 2.67v4.98l-.24 5.22-1.21 9.59-.85 4.49-.13.49-1.69 6.56-2.07 6.79-4.85 18.46-2.19 7.89-2.18 6.92-4.37 15.18-1.95 8.25-.6 2.31-.98 4.49-.24 1.21-1.33 7.65-.85 5.83-.37 3.04-.48 6.55-.12 5.22.12 7.65.36 5.46 1.46 13.36 2.43 17.97 2.42 20.88 2.92 21 1.33 9.47 4.01 30.84 1.82 16.02 2.43 16.88.48 7.04.25 7.04v3.52l-.25 7.29-.36 6.31-.49 3.28-1.7 9.47-1.82 7.53-1.21 4-8.5 24.28-.24.49-2.79 8.98-6.44 18.7-3.4 8.5-4.49 12.38-5.1 14.33-.12.36-1.09 3.04-4.13 12.14-5.34 16.27-3.88 11.89-4.5 11.66-6.79 17.48-.98 3.28-7.28 21-.73 2.31-7.52 20.27-4.74 14.69-4.98 13.84-3.03 8.38v2.43l-.36 1.94-5.71 13.96-1.82 7.65-.24 2.79-.25 14.57-.12 2.8-.12 3.4.12 4.97-.36.85v7.53l.12 3.88.85 13 .61 5.34.24 2.3 1.09 7.05 1.46 7.28 2.06 8.01 1.09 3.77 4.25 14.69.73 2.18 2.31 7.41.36 1.45 5.59 17.12 2.18 6.8.49 1.82 4.25 13.36 2.06 6.31 12.38 39.94 2.92 9.23.97 2.91 3.76 11.29 2.43 7.05 4.13 13.59 8.49 27.81 1.82 7.89.49 1.94.97 3.88.61 2.8.36 1.45.97 7.17.37 2.06.12.61.61 5.1.36 4.61.24 4.13.25 3.28.24 6.55.24 20.15.49 17.73v.12l.36 7.04.73 6.44.61 3.4.6 3.52.73 3.28 2.06 7.28.61 1.7 4.49 11.9 2.07 5.22 1.82 4.61 5.58 15.06 2.31 6.43.85 3.04 1.09 4 .85 4.01.97 4.61.37 2.67.6 6.8.12 1.46.25 4.13-.12 8.37-.13 2.67-.24 3.28v.37l-.6 3.76-.98 6.92-.85 4.98-.12.97-.6.73-1.83 14.44-.12 1.22-.24 2.55v.73l.97.73-.12 1.21.24 4.13.12.73.13.85.48 2.67 1.09 6.67.25 1.82 2.06 8.02.97 4.37.37 1.33 4.73 18.94.97 4.13.97 4.37.61 3.04.36 2.55.37 2.06.48 2.79.37 2.07.24 3.4.24 1.94 1.22 12.99.85 9.71.36 3.89.24 2.67.25 3.15.85 8.87.85 8.13.97 11.66.73 8.01.48 4.85.49 4.5 1.21 12.74.61 6.8.36 3.52.73 7.29.24 2.91.97 10.56.85 10.45 1.1 10.44.97 10.68-4.49.49-4.74.36-8.98.85-1.22.12-8.49.97-5.22.49-4.13.36-8.74.49.24 4.13-7.4.48-2.8.12-7.04.85-3.76.37-4.61.36-2.79.12-6.56.49-7.77.73-4.73.48-7.65.61-10.93 1.09-11.65.97-1.34 1.22-.73.85-.6 1.09-.37 1.09-.24 2.79-.24.85-1.82 2.8-1.82-2.43-5.22-7.41-.85.12-4.5.61-8.49.73-12.26.97-1.7.24-3.52.25-6.2.6-12.01 1.1-9.84.6-19.3 1.95-2.31.24-4.24.36-10.2.85-15.18 1.1-7.16.6-2.55.12-5.34.25-.24.24h-.12l-2.67.49-5.1.48-7.77.73-4.49.48-4.37.61-1.95.12-2.55.37h-.85l-.97.12-3.15.36-.85.12-.73.13-3.16.36h-.48l-8.99.61h-.97l-3.15.12h-.61l-1.58.12-.61-.24-6.55.85-3.4.24-9.23.73-6.19.48-1.09.13-1.7.12-.97.12-1.7.12-1.34.12-4.37.37-3.88.36-5.22.36-1.7.25-1.7.12-2.91.24h-.37l-7.89.73-7.65.73-1.09.12-1.09.12-3.4.24-2.67.25-9.83.97-12.26 1.09-18.46 1.58-1.82.12-5.22.36-2.67.25-12.14.97-12.5.97-2.43.24-4.49.37-8.38.72-.6.13h-.49l-6.19.48-2.67.24-9.59.85-4.25.37-1.22.12-5.09.36-15.91 1.34h-.73l-.48.12-21.25 1.82-14.32 1.22-2.67.12-1.58.12-2.31.24-1.82.12-1.45.25-10.81.72-11.04.85-10.32.61-6.56.61-14.93 1.33-2.43.49-1.7.36-2.06.85-3.52 1.7-9.96 4.86-5.34 2.79-4.25 2.55-8.74 6.92-4 2.67-2.07.97-2.67.85-1.58.37z" stroke-linejoin="round"/></defs><use xlink:href="#f" fill="#004249" stroke="#00465f" stroke-width="5.76"/></svg>