<svg width="384" height="7.07in" viewBox="0 0 2880 5090" xmlns="http://www.w3.org/2000/svg" xmlns:xlink="http://www.w3.org/1999/xlink"><path fill="#fff" d="M0 0h2880v5090H0z"/><defs><path id="a" d="M914.61 3141.17l-2.7.95-3.82.95-4.61.48-4.45.16-9.07-.95-16.07-2.39-22.9-2.86-4.14-.32h-6.04l-3.02.64-2.39.63-21.31 6.21-16.23 4.93-6.36 1.75-14.32 3.34-46.44 10.34-2.71.31-3.34 1.12-3.34 1.11-5.09 2.23-3.34 1.59-1.75.95-1.59.8-4.13 2.22-3.66 1.91-3.5 1.28-3.5 1.27-3.18.79-4.93.96-6.21 1.43-2.38.48-3.03.63-2.38.48-8.11 1.75-2.71.48-3.02.47-3.02.64-4.93.48-7 .48-10.5.63-10.66.32h-15.11l-3.02-.32-2.55-.48.96-12.24 2.23-25.77 1.43-14 .63-8.75.96-9.38.48-4.62.31-3.18.16-2.54.16-2.07v-12.25l-.16-2.38-.63-10.34-.64-8.75-.8-9.23-1.27-16.22-2.54-29.59-4.14-44.37-4.29-39.93-5.25-48.04-1.59-15.9-.16-1.59v-1.91l-.16-1.75v-2.23l.16-3.18.16-3.5.16-4.61.47-5.73 1.43-26.72 1.12-20.36 1.43-20.84v-7.95l.64-12.25.79-11.45.64-10.82.79-16.7 2.87-48.2.79-11.29.48-8.11 1.11-13.68.64-11.61 2.07-29.59 1.11-10.5 1.59-18.13 7.32-80.32.63-7.64.8-5.73 67.6 10.5 14-123.91-10.82-4.29-11.13-1.75-45.34-7.32 2.07-20.68.32-13.04.16-13.04.16-8.91.32-30.86.31-6.52.16-28v-46.44l-.16-16.07-.15-11.77-.48-21.79v-5.09l-.16-4.29.16-4.14v-3.34l.16-3.02-.16-1.91.16-2.86.47-5.73 1.44-12.73.63-4.61 1.43-10.34 23.86 4.62 49.79 9.38 2.23-49.95 1.91-38.01 1.59-40.08-15.27-2.39-23.7-3.82-5.89-.79.8-4.78 2.7-16.06 2.39-13.52 2.38-14.48 2.23-13.68 1.11-9.7.16-8.27-.48-7.95-1.11-8.91-1.91-10.5-3.34-14.79-14-58.85-9.06-36.43-6.52-24.49-1.59-6.37-6.84-25.29-6.21-22.74 26.09-3.19 103.07-12.88 1.27-67.12.8-.16 3.02-1.12 2.86-2.86 1.12-2.54-.32-17.66-1.91-10.66-3.66-10.5-3.5-12.08-2.06-9.23-1.12-12.41-.79-8.11v-13.2l1.43-10.98 5.25-20.83 1.27-3.5 3.34-4.93 5.41 3.65 5.25 6.53 6.2 11.13 4.77 10.66 6.52 17.33 12.25 24.18 9.07 13.68 1.43 3.66 7.16 17.02 8.43 18.45 11.13 24.02 14.8 29.9 4.61 6.21 7.95 7.63 4.93 2.87 4.78 1.9 4.13 1.75 7.48 2.07 8.43.8 19.4.16 6.37-.16-.32-12.41-1.12-30.38 1.12-9.39 9.54-52.01 5.73-30.38 2.38-13.36.64-5.25-.16-19.09.8-10.5.79-35.63 1.59-47.56.64-3.34 1.11-1.59 1.91-.79 15.11-.8 17.5-1.91 33.88-3.18 33.56-3.18 23.22-2.23 5.09 4.46 4.78 1.59-2.39-14.48-15.75 1.12-16.06 1.27-23.23 2.07-8.74 1.11-17.34 1.43-7.32.48-5.57-.32-4.77-.95-4.77-1.59-4.45-2.39-4.3-2.7-4.13-3.18-3.5-3.5-3.18-3.98-3.66-5.73-14.64-26.24-22.43-40.4-36.58-66.49-2.7-4.46-3.82-4.45-3.82-3.34-3.98-3.02-4.29-2.39-4.45-1.75-4.78-1.43-4.61-.64h-4.77l-4.61.64-4.62 1.27-4.45 1.91-3.98 2.55-3.81 3.02-3.34 3.34-2.71 3.66-2.38 4.13-2.07 4.46-1.43 4.77-.8 4.93-.32 4.93.16 5.25 1.12 9.07.79 7.15-.16 5.09-.63 5.25-1.12 5.25-1.75 4.93-2.22 4.78-2.87 4.45-3.18 3.98-3.66 3.65-3.97 3.03-4.46 2.54-4.61 1.75-4.93 1.27-2.23.32-4.13.16-3.34-.16-2.87-.48-6.68-1.11-25.77-5.41-11.29-2.22-9.23-2.39-2.22-2.07-4.62-.95-4.77-.96-9.38-2.06-2.23-.48-19.56-4.3-3.5-.79-3.98-.8-5.25-1.27-2.07-.32-4.29-.95-13.52-3.34 2.7-23.07 5.57-44.69 2.7-19.73 4.62-29.9 2.06-12.88 3.82-25.14.32-1.9 5.09-32.93 1.75-15.27.48-9.7V1018l-.48-10.66-.64-13.2-.79-12.41-.48-9.86 26.25-13.84 28.63-14.63 13.68-7 33.72-17.02 94.64-48.19 61.24-30.07 4.14-2.07 1.9.32 3.19.48 6.68.32 4.93.32h13.2l4.14-.16 2.38-.64 1.27-.64 1.59-.95 1.12-.64 1.75-1.11 2.07-1.75 2.06-2.23 2.39-1.9 1.59-1.28 1.91-.79 3.5-1.12 3.02-.63 6.2-.32 5.09-.32h7.8l3.82.48 2.22.32 2.55.63 7.47 2.39 2.39.95 3.02.32h3.5l4.77-.32 2.39-.47 3.66-.8 4.45-1.59 5.41-1.75 4.45-1.43 2.55-.8 1.59-.47 1.43-.16 1.75-.16.95.16.96.32.79.63.64 1.12 6.52-4.94 11.93 4.3 13.52 1.91h5.25l2.07.32 1.43.16 2.07-.32 14.95-4.62 2.7 15.59 23.07 111.98.95 4.46.48 4.61-3.34.16-1.27.16-3.18.95-1.12 2.23.96 6.36 13.36 66.65 7 37.38-10.5 1.59-5.25.32-4.93.31 2.7 9.23 1.59 5.57 3.82 14.63 2.71 13.04.47 3.19 1.59 9.86 1.28 13.2.79 13.04.16 12.41-.16 14.32-.79 15.27-1.28 16.38-2.06 18.45-3.35 21.95-5.56 32.77-2.87 14.95-1.43 7.32-1.91 11.77 1.44 3.81-2.71 12.41-.63 6.36-1.28 8.59-3.66 22.43-1.75 18.29-.47 23.86 3.5 39.93 1.75 11.77.16.79 4.13 20.2 7.8 27.52.47 2.55-1.75.47-3.81.96-11.46 2.86-11.29 2.71 2.39 5.72 1.27 2.71 1.59 2.38 1.91 1.91 2.54 2.23 3.82 1.75 2.7 1.75 3.03 2.54 1.27 1.12 1.91 1.74 1.59 1.75 1.59 1.91 1.27 1.91 2.07 3.66 3.02 5.57 1.75 4.29 2.86 8.27 1.91 5.89 2.07 5.88 1.43 3.5 2.07 3.18.95.96 1.28 1.27 1.75 1.43 1.43 1.12 2.86 1.59 1.43-.32 5.73 18.29 17.5 92.1 12.4 80.48.16 1.44 8.75 109.11 5.09 40.25 8.11 31.01 4.46 12.09 6.84 11.45 1.43 19.57-7-8.27-1.59 3.66-1.91 64.73-7.16 21-10.97 14.47-20.05 22.43-8.11 7.32-7.16 6.36-6.68 4.93 2.87 1.12 4.61 2.38 5.73 3.34 10.34 5.89 26.08 15.11 16.54 9.38-20.67 47.09-3.34 7.31-10.66 22.75-1.59 3.5-2.23 4.61-.95 2.23-3.18 7.47-2.71 7.8-1.91 7.95-1.11 4.61-9.55 35.79-9.54 35.95-3.18 11.29-1.59 6.21-1.11 6.04-.48 6.21.32 6.2.95 6.36.8 5.41-42.95 3.02h-1.27l-1.12-.16-1.43-.32-1.27-.47-1.27-.8-1.12-.79-1.11-1.43-.95-1.59-.64-1.28-.48-1.11-3.82 46.6-20.04 78.58-8.27 1.43-11.13 6.52-39.77 3.19-3.02 17.65-4.93 26.56-5.57 30.7-3.18 16.39-1.91 6.52-2.86 7.79-4.77 12.41-1.75 6.36-1.12 6.05-1.11 10.02-3.5 41.99-5.09 73.17-3.66 53.92-2.23 30.54-1.27 13.04-.63 5.41-1.6 10.34-12.24 61.56-9.71 48.83-1.59 8.27-3.5 18.29-1.75 10.18-.63 7.48v6.2l.48 6.53.95 8.9.32 3.66 2.86 4.45.96 5.73 1.11 6.2-4.93.96-3.02.79-2.71.8-3.5 1.59-10.18 4.14-20.68 8.43z" stroke-linejoin="round"/></defs><use xlink:href="#a" fill="#9dc8ca" stroke="#9dd7f0" stroke-width="5.76"/><defs><path id="b" d="M1706.75 5039.42l-6.05.79-1.43-13.68-8.9-68.71-1.28-11.45-.63-5.73-4.3-33.88-2.7-23.06-.64-5.41h-3.5l-3.34-.32-6.68-.95-37.86-9.39-.63-18.93-14.32-2.07-20.52-3.49-.31-.16-32.45-6.05-4.3 3.34-31.02-7.63-22.74-3.03-1.59-.15-13.05-2.71-52.8-10.97-26.89-3.03-31.49-3.34-12.41-1.27-7-.79-2.06-.16-2.87-.32-2.38-.16-71.74-7.79-134.25-38.82-22.75-.31-18.61-6.05-27.36-2.07-5.4-.95-140.3-27.52-24.49-2.7-2.23-1.75-2.39-1.27-2.22-.48h-5.73l-21 .48-31.33-5.89-6.36-1.43-33.41-.48-30.22-4.93-62.19-11.93-9.55-1.91-5.25-.79-66.17-11.93-70.94-12.89-94.48-17.02-17.02-3.02-24.02-4.29-1.43-.32-26.09-4.61-3.34-.64-1.75-.32-2.54-.48-9.55-1.75-303.81-52.17-11.13-111.82 6.84-310.81 314.94-74.12 10.66.16 10.02-.48 2.23.32 2.7 2.23.32-3.03.8-.95 25.29-2.07 15.43-2.54 3.02-1.75.79-.8.96-2.07.79-3.65 1.12-26.41-.48-13.36-.64-13.68-2.54-23.7-5.25-42.31v-5.57l2.07-13.99-1.28-9.55-6.84-30.22 5.25-2.7 4.62-2.39 7.15 38.17 7 41.2 4.62 34.68.47 4.45 30.7-7.47 23.7-1.6-.47-3.65-3.82-28.48-.48-3.18-3.5-27.67-2.23-17.34 25.14-1.12 22.74-1.27 2.23-.16 2.86-.47 5.09-1.44 10.18 1.91 17.18-.47 29.43 1.43.16 1.75 1.91 6.04 17.97 25.77 43.58 61.56 4.78 7.63 8.43-1.27 46.44-4.77-26.4-50.58-3.02-8.28-1.28-8.27-19.72-.32-3.5-27.51-.48-.64-1.27-3.18-4.61-42.47-2.23-19.41 46.92-3.34 3.66-.63 2.39-.8 9.54 21.32 3.5 7.63 2.71 5.57 7.31 15.43 4.14 9.38.63 1.59 1.91 3.98 3.98 9.7 6.04 18.29 3.03 8.75 1.75 5.41 4.77 14.79 24.97-2.86 2.7-.32 6.05-.16 7.79-19.24 47.56 13.04-1.11-4.29-9.7-22.43 31.17-12.73-7.95-15.9-1.43-3.66-13.04-33.25 9.54-6.68 3.82-3.18 5.88-7 2.07-.31 4.77 2.86.48-10.5 3.5-15.59 16.22-31.17 54.08-12.73.8 6.36 2.7 24.18 1.75 15.27 3.03 26.41 25.45-1.59 11.13-.48 2.7 25.92 20.05-8.43 13.36-5.4 7.31-1.91 6.05-.16 12.56.32 18.77 1.11 14.8 1.75-.16 34.04 7.63-.96 4.93-1.27 9.71-4.77 7.15-6.2.96-1.12 4.13-6.84 12.25-30.54.8-2.38 1.43-1.59 1.43-1.75 1.59-1.27 1.91-1.28 1.91-1.11 2.07-.95 1.59-.64 2.07-.64 1.9-.47 2.55-.16 3.18-.32-.95-40.56-.32-17.82.16-4.93.16-12.72.16-4.46.63-5.41 1.43-13.2 1.75-10.97.8-4.78.32-1.74 2.06-8.59 2.39-8.28 1.27-3.49.96-2.39 2.06-4.61 5.09-10.34 5.57-10.02 2.23-3.66.48-.8 2.22-.95 3.66-5.89 11.61-17.81 8.27-13.52 5.09-9.07 4.3-9.07 3.82-9.38 1.75-4.45 1.11-3.34 4.61-15.27 2.23-8.28.64-3.18 2.38-11.61.64-4.13-1.12-3.34.32-2.71.32-2.07 3.82.48.63-3.5 1.6-11.93.95-13.84.48-13.83.16-16.39 1.11-6.84.32-3.18.32-4.13.31-3.98.96-7 1.43-6.84 2.07-6.52 2.22-5.25 2.39-3.98 2.7-3.5 2.71-2.54 3.66-2.39 2.22-.95 1.59-.64 1.59-.47 1.75 3.34 3.19-.8 3.65-.64 3.98-.63 3.98-.64h4.61l2.39.32 2.7.48 2.07.79 3.5 1.75 3.97 1.75 4.46 2.07 5.72 2.38 7.32 2.87 9.86 3.82 8.59 2.86 11.77 3.02 7.8 1.27 8.75.96-.96 1.43-1.91 2.86-1.75 2.23-5.56 10.02-2.71 6.2-3.82 8.75-2.54 4.62-4.3 9.7-5.09 14.95-4.77 20.52-.16 1.75-1.59 11.77-.47 19.4 1.27 18.62 2.22 14.47 3.35 31.65 1.11 26.25-.32 12.56-2.7 22.91-5.41 26.72-3.98 13.05-9.06 34.99-1.91 8.27-1.75 11.45-1.59 16.54-.48 22.11.48 14.64 14.31 99.73 2.07 18.13-.64 21.32-7.31 104.82-2.23 35.95-2.07 22.74-3.02 40.41-.48 25.13 6.68-11.14 4.14-9.54 2.54-1.59 4.3-.48 4.45 2.55 5.57 1.75 12.72-8.75 11.93-6.05 15.59-5.56 17.82-20.04 6.68-16.39 1.11-36.74 7.16-58.7 5.25-54.87 5.41-67.45 1.59-32.13 3.02-14.95 5.57-29.11 13.84-75.55 2.86-9.07 2.23-3.34 2.86-1.75 3.18-1.11 1.11 6.04 14.96 47.09 3.81 17.17 1.91 16.55.16 11.45v4.14l.16 16.06.95 5.09 1.91 3.34 2.87 2.55 5.09 2.22 5.09.96 4.45.47 13.36 2.55 7 .64 7.95-.96 6.21-2.54 6.84-4.93 3.5-3.82 6.84-9.7 20.36-31.02 6.04-5.57 3.82-1.75 6.52-1.27h1.43l6.04 1.11 2.87 1.12 4.45 2.7 9.23 9.23 5.41 3.02 9.54 1.91 4.45.95 7 2.7 19.41 12.09-33.25 63.47 37.07 24.18-7.32 13.36-4.14 9.38-3.82 12.89-9.22 38.49-11.29 46.76-10.03 40.88-1.27 10.34-.32 10.5 1.12 16.07 11.77 53.76 3.66 17.02-50.43-.8 3.66 91.15.16 25.61 37.54.31 9.38 18.61 8.28 54.09 6.2 31.17 3.18 16.23 4.77 40.4-2.22 5.72-3.82 9.39-4.61 12.09-10.34 22.58-6.53 15.59-5.72 16.7-2.71 8.59-3.81 14.32-1.91 8.11-3.34 19.09-.96 7.47-1.11 17.5-.48 16.23.64 19.88 2.7 22.74 16.55 137.59 2.38 19.57 6.21-.96 3.81-.63 3.18-.32 6.05 1.43.79 7.8.32 3.34.64 5.4 12.88 27.52 3.82 6.05 2.7 6.99.64 5.89 3.82-.8 3.5-.31 3.02.63 2.7.96 2.39 1.91 1.43 2.7 1.91 3.66 1.59 8.59.8 6.68-1.28 61.56-.63 9.06-1.43 5.73-2.23 6.68-1.43 1.59-5.57 4.29-2.23.8-6.2 1.91z" stroke-linejoin="round"/></defs><use xlink:href="#b" fill="#9dc8ca" stroke="#9dd7f0" stroke-width="5.76"/><defs><path id="c" d="M722.94 3942.52l1.28 8.27 3.02 8.28 26.4 50.58-46.44 4.77-8.43 1.27-4.78-7.63-43.58-61.56-17.97-25.77-1.91-6.04-.16-1.75-29.43-1.43-17.18.47-10.18-1.91-5.09 1.44-2.86.47-2.23.16-22.74 1.27-25.14 1.12 2.23 17.34 3.5 27.67.48 3.18 3.82 28.48.47 3.65-23.7 1.6-30.7 7.47-.47-4.45-4.62-34.68-7-41.2-7.15-38.17-4.62 2.39-5.25 2.7 6.84 30.22 1.28 9.55-2.07 13.99v5.57l5.25 42.31 2.54 23.7.64 13.68.48 13.36-1.12 26.41-.79 3.65-.96 2.07-.79.8-3.02 1.75-15.43 2.54-25.29 2.07-.8.95-.32 3.03-2.7-2.23-2.23-.32-10.02.48-10.66-.16-314.94 74.12-16.23-603-14.15-334.35-9.87-575.97 2.55-378.25 3.34-478.94 3.34-478.93 5.57 2.38 54.08-30.7 279.47-151.42 25.93-14.16 4.93-2.7 20.68-11.3 7.48-4.29 17.02-9.23 1.59-.79 23.06-13.52-.16-.96-20.04-74.6-1.59-9.7 1.11-57.1 2.39-21.32 11.61-33.24 3.82.47 10.02 1.12-1.59 108.32 41.67 11.61-.79-11.93-.96-13.52 8.91 2.86 12.57 3.19 6.52.31 11.61-3.02 12.72-4.45 5.25-3.18 11.93-13.52 3.34-2.87 4.93-2.7 4.93-.64 11.93.96 6.84.47 20.05 4.3 10.34 3.34 10.18 2.86.79 11.93.48 9.86.79 12.41.64 13.2.48 10.66v14.16l-.48 9.7-1.75 15.27-5.09 32.93-.32 1.9-3.82 25.14-2.06 12.88-4.62 29.9-2.7 19.73-5.57 44.69-2.7 23.07 13.52 3.34 4.29.95 2.07.32 5.25 1.27 3.98.8 3.5.79 19.56 4.3 2.23.48 9.38 2.06 4.77.96 4.62.95 2.22 2.07 9.23 2.39 11.29 2.22 25.77 5.41 6.68 1.11 2.87.48 3.34.16 4.13-.16 2.23-.32 4.93-1.27 4.61-1.75 4.46-2.54 3.97-3.03 3.66-3.65 3.18-3.98 2.87-4.45 2.22-4.78 1.75-4.93 1.12-5.25.63-5.25.16-5.09-.79-7.15-1.12-9.07-.16-5.25.32-4.93.8-4.93 1.43-4.77 2.07-4.46 2.38-4.13 2.71-3.66 3.34-3.34 3.81-3.02 3.98-2.55 4.45-1.91 4.62-1.27 4.61-.64h4.77l4.61.64 4.78 1.43 4.45 1.75 4.29 2.39 3.98 3.02 3.82 3.34 3.82 4.45 2.7 4.46 36.58 66.49 22.43 40.4 14.64 26.24 3.66 5.73 3.18 3.98 3.5 3.5 4.13 3.18 4.3 2.7 4.45 2.39 4.77 1.59 4.77.95 5.57.32 7.32-.48 17.34-1.43 8.74-1.11 23.23-2.07 16.06-1.27 15.75-1.12 2.39 14.48-4.78-1.59-5.09-4.46-23.22 2.23-33.56 3.18-33.88 3.18-17.5 1.91-15.11.8-1.91.79-1.11 1.59-.64 3.34-1.59 47.56-.79 35.63-.8 10.5.16 19.09-.64 5.25-2.38 13.36-5.73 30.38-9.54 52.01-1.12 9.39 1.12 30.38.32 12.41-6.37.16-19.4-.16-8.43-.8-7.48-2.07-4.13-1.75-4.78-1.9-4.93-2.87-7.95-7.63-4.61-6.21-14.8-29.9-11.13-24.02-8.43-18.45-7.16-17.02-1.43-3.66-9.07-13.68-12.25-24.18-6.52-17.33-4.77-10.66-6.2-11.13-5.25-6.53-5.41-3.65-3.34 4.93-1.27 3.5-5.25 20.83-1.43 10.98v13.2l.79 8.11 1.12 12.41 2.06 9.23 3.5 12.08 3.66 10.5 1.91 10.66.32 17.66-1.12 2.54-2.86 2.86-3.02 1.12-.8.16-1.27 67.12-103.07 12.88-26.09 3.19 6.21 22.74 6.84 25.29 1.59 6.37 6.52 24.49 9.06 36.43 14 58.85 3.34 14.79 1.91 10.5 1.11 8.91.48 7.95-.16 8.27-1.11 9.7-2.23 13.68-2.38 14.48-2.39 13.52-2.7 16.06-.8 4.78 5.89.79 23.7 3.82 15.27 2.39-1.59 40.08-1.91 38.01-2.23 49.95-49.79-9.38-23.86-4.62-1.43 10.34-.63 4.61-1.44 12.73-.47 5.73-.16 2.86.16 1.91-.16 3.02v3.34l-.16 4.14.16 4.29v5.09l.48 21.79.15 11.77.16 16.07v46.44l-.16 28-.31 6.52-.32 30.86-.16 8.91-.16 13.04-.32 13.04-2.07 20.68 45.34 7.32 11.13 1.75 10.82 4.29-14 123.91-67.6-10.5-.8 5.73-.63 7.64-7.32 80.32-1.59 18.13-1.11 10.5-2.07 29.59-.64 11.61-1.11 13.68-.48 8.11-.79 11.29-2.87 48.2-.79 16.7-.64 10.82-.79 11.45-.64 12.25v7.95l-1.43 20.84-1.12 20.36-1.43 26.72-.47 5.73-.16 4.61-.16 3.5-.16 3.18v2.23l.16 1.75v1.91l.16 1.59 1.59 15.9 5.25 48.04 4.29 39.93 4.14 44.37 2.54 29.59 1.27 16.22.8 9.23.64 8.75.63 10.34.16 2.38v12.25l-.16 2.07-.16 2.54-.31 3.18-.48 4.62-.96 9.38-.63 8.75-1.43 14-2.23 25.77-.96 12.24 2.55.48 3.02.32h15.11l10.66-.32 10.5-.63 7-.48 4.93-.48 3.02-.64 3.02-.47 2.71-.48 8.11-1.75 2.38-.48 3.03-.63 2.38-.48 6.21-1.43 4.93-.96 3.18-.79 3.5-1.27 3.5-1.28 3.66-1.91 4.13-2.22 1.59-.8 1.75-.95 3.34-1.59 5.09-2.23 3.34-1.11 3.34-1.12 2.71-.31 46.44-10.34 14.32-3.34 6.36-1.75 16.23-4.93 21.31-6.21 2.39-.63 3.02-.64h6.04l4.14.32 22.9 2.86 16.07 2.39 9.07.95 4.45-.16 4.61-.48 3.82-.95 2.7-.95 20.68-8.43 10.18-4.14 3.5-1.59 2.71-.8 3.02-.79 4.93-.96-1.11-6.2-.96-5.73-2.86-4.45-.32-3.66-.95-8.9-.48-6.53v-6.2l.63-7.48 1.75-10.18 3.5-18.29 1.59-8.27 9.71-48.83 12.24-61.56 1.6-10.34.63-5.41 1.27-13.04 2.23-30.54 3.66-53.92 5.09-73.17 3.5-41.99 1.11-10.02 1.12-6.05 1.75-6.36 4.77-12.41 2.86-7.79 1.91-6.52 3.18-16.39 5.57-30.7 4.93-26.56 3.02-17.65 39.77-3.19 11.13-6.52 8.27-1.43 20.04-78.58 3.82-46.6.48 1.11.64 1.28.95 1.59 1.11 1.43 1.12.79 1.27.8 1.27.47 1.43.32 1.12.16h1.27l42.95-3.02-.8-5.41-.95-6.36-.32-6.2.48-6.21 1.11-6.04 1.59-6.21 3.18-11.29 9.54-35.95 9.55-35.79 1.11-4.61 1.91-7.95 2.71-7.8 3.18-7.47.95-2.23 2.23-4.61 1.59-3.5 10.66-22.75 3.34-7.31 20.67-47.09-16.54-9.38-26.08-15.11-10.34-5.89-5.73-3.34-4.61-2.38-2.87-1.12 6.68-4.93 7.16-6.36 8.11-7.32 20.05-22.43 10.97-14.47 7.16-21 1.91-64.73 1.59-3.66 7 8.27-1.43-19.57 2.7 10.34 19.41 37.38 13.2 58.54 3.66-2.39 3.81-2.54.8-.64 2.23-1.27 4.13-1.75 8.11-2.87 1.91-.63 8.75-2.71 6.36-2.22 5.41-1.59 4.46-1.28 29.1-7.31 29.75-7.64 23.86-6.04 3.02-.32 8.27-.48 8.11.32 8.59.8 3.82.63 3.34.64 7 1.75 10.18 2.86 5.41 2.39 7.16 3.5 8.27 4.61 23.54 14.95 7 3.66 4.77 2.39 7.16 3.18 5.41 1.91 3.18.63 7 .48h6.68l3.34-.32 4.45-.48 3.66-1.27 1.11-.48 1.28-.63 5.88-3.18 3.66-2.07 17.34-2.86 22.74-6.84 5.25 1.75 9.86 4.77 8.91 4.77 2.23 1.27 2.23.96 3.81.79 4.3.32 5.56-.48 8.75-1.11 5.41-.16 4.61.64 4.14 1.11 4.14 1.91 4.29 2.54 4.45 3.34 5.25 4.94 4.14 4.13 10.02 10.98 3.18 3.34 13.52 9.54 13.68 7.16 2.86 2.38 10.66 8.59 44.54 30.54 89.39 48.04 7.48 3.98 47.56 38.49 16.54 19.41 14.16 16.54 34.04 58.85 17.34 48.67 1.27 4.14 3.02 13.84 2.07-8.59 5.09-23.22 1.59-15.91 1.75-10.82.79-6.36 10.02-36.11 14.16-42.47 2.55-4.61 3.18 3.18 16.7 17.34 2.54 9.54 5.41 7.48 2.87 2.86 3.49 4.14 3.03 4.29 2.06 3.98 2.07 4.77 1.12 4.93.79 5.25.16 6.52-.16 10.66.16 6.36.8 5.73 1.59 5.57 2.06 5.56 2.71 5.25 3.66 6.05 4.29 6.04 4.93 5.73 5.25 5.25 5.57 4.77 7 5.09 12.25 7.95 7.63 4.93 3.98 3.02 2.54 2.87 1.59 3.02 1.12 2.86.15 23.07v3.81l1.44 7.48.95-1.11 4.77-7-.32 3.18-.47 3.98-.64 3.18-1.27 8.11-1.75 8.59-1.91 5.88-1.91 5.89-1.59 4.61-2.07 5.41-3.34 6.68-6.04 12.73-1.75 4.45-1.75 4.45-1.59 4.78-.96 3.34-.79 2.54-.8 4.14-.63 3.81-1.28 7-.47 3.5-.64 4.93-.16 3.34-.32 3.98-.31 3.66-.32 3.98-.32 6.99-.16 5.09-.32 5.41-.16 5.09-.16 5.09-.15 6.52-.16 5.73-.32 9.23-.16 6.04-.16 4.45-1.59 15.27-.64 5.09-.63 4.78-1.59 8.74-1.44 7.64-1.43 7-3.66 14.95-6.04 19.09-12.73 33.4-1.74 4.77-12.25 30.38-4.93 11.93-6.21 14.48-1.27 3.82-1.11 3.65-.64 3.03-.48 2.7-.31 3.02-.16 2.39-.16 2.07-.16 2.7v2.54l.16 2.07.32 3.02.47 3.34 2.39 18.77-4.61-21.63-2.23-5.25-3.5-1.27-3.66-.64-1.27 3.19-.96 2.54-.79 2.39-.8 1.59-1.75 5.72-19.08-74.92-10.66-49.15-7.16-54.08-3.66-60.28 1.12-30.22 2.86-85.58-.16-11.45-2.7-.48-6.05-.48-5.88-.79-5.25-.48-1.59 18.77-4.14 23.86-18.29 81.44-6.84 35.63-3.34 22.43-4.61 24.02-17.02 89.23-17.5 75.24 1.43 6.52-2.7 12.25-7.32 31.33-3.66 16.86-5.25 25.61-10.02-1.91-24.18-1.11-7.79 34.83-2.86 15.12-2.39 12.08-3.5 16.07 33.09 10.5-3.19 14.31-2.06 10.34-1.28 7.64-.15 2.06v1.28l.15 1.11.32 1.27.8 2.07-27.68 16.38-12.25 7-3.81 2.23-1.6.95-5.72 3.19-5.73 2.38-6.04 1.75-6.36.96-3.66.31-6.68.48-6.21.16-10.34.64-8.27.16-5.56.15-10.66.48-8.75.32-12.73.32-9.22.48-3.98.31-2.07.32-2.38.48-2.07.48-1.59.47-1.27.64-2.07 1.27-2.07 1.43-1.11.96-2.07 1.59-3.82 3.97-4.13 4.3-3.98 4.77-3.66 3.98-4.29 4.77-3.5 4.14-1.43 1.74-1.75 2.39-1.91 2.39-2.39 3.81-1.11 1.91-1.59 2.71-1.43 2.54-1.12 2.55-1.75 3.18-2.54 5.09-3.02 6.2-.64 1.27-1.27 2.23-2.55 4.93-1.43 2.23-2.23 3.5-1.59 2.38-2.7 3.5-2.86 3.66-5.09 5.73-15.91 18.13-16.22 17.98 1.9 5.72 1.91 2.39 1.91 2.7.8.8 2.54-.16 2.71 2.7 13.04-9.22 10.66 17.97-.64.16-4.61 2.07-26.09 18.61-3.18 2.54-2.07 2.71-4.77 14.79-3.02 14.47-4.14 32.77-.32 1.75-.79 3.66-.96 3.98-.79 5.09-.64 3.81-.63 3.34h-4.3l-6.52.48-5.09.48-4.61-.16-.8-4.14-8.75-40.88-5.88-6.04-2.07-2.54-2.39-1.6-10.65 9.55-2.23 1.75-12.72 10.02-12.09 8.91-3.98 2.7-7.64 5.09-11.29 7-10.97 6.52-10.66 5.89-4.93 2.38-5.73 2.39-7 2.86-10.97 4.14-13.36 3.66-9.71 2.06-12.24 1.91-8.28.48-4.77.16-10.18.16-5.72-.16-8.75-.96-7.8-1.27-11.77-3.02-8.59-2.86-9.86-3.82-7.32-2.87-5.72-2.38-4.46-2.07-3.97-1.75-3.5-1.75-2.07-.79-2.7-.48-2.39-.32h-4.61l-3.98.64-3.98.63-3.65.64-3.19.8-1.75-3.34-1.59.47-1.59.64-2.22.95-3.66 2.39-2.71 2.54-2.7 3.5-2.39 3.98-2.22 5.25-2.07 6.52-1.43 6.84-.96 7-.31 3.98-.32 4.13-.32 3.18-1.11 6.84-.16 16.39-.48 13.83-.95 13.84-1.6 11.93-.63 3.5-3.82-.48-.32 2.07-.32 2.71 1.12 3.34-.64 4.13-2.38 11.61-.64 3.18-2.23 8.28-4.61 15.27-1.11 3.34-1.75 4.45-3.82 9.38-4.3 9.07-5.09 9.07-8.27 13.52-11.61 17.81-3.66 5.89-2.22.95-.48.8-2.23 3.66-5.57 10.02-5.09 10.34-2.06 4.61-.96 2.39-1.27 3.49-2.39 8.28-2.06 8.59-.32 1.74-.8 4.78-1.75 10.97-1.43 13.2-.63 5.41-.16 4.46-.16 12.72-.16 4.93.32 17.82.95 40.56-3.18.32-2.55.16-1.9.47-2.07.64-1.59.64-2.07.95-1.91 1.11-1.91 1.28-1.59 1.27-1.43 1.75-1.43 1.59-.8 2.38-12.25 30.54-4.13 6.84-.96 1.12-7.15 6.2-9.71 4.77-4.93 1.27-7.63.96.16-34.04-14.8-1.75-18.77-1.11-12.56-.32-6.05.16-7.31 1.91-13.36 5.4-20.05 8.43-2.7-25.92-11.13.48-25.45 1.59-3.03-26.41-1.75-15.27-2.7-24.18-.8-6.36-54.08 12.73-16.22 31.17-3.5 15.59-.48 10.5-4.77-2.86-2.07.31-5.88 7-3.82 3.18-9.54 6.68 13.04 33.25 1.43 3.66 7.95 15.9-31.17 12.73 9.7 22.43 1.11 4.29-47.56-13.04-7.79 19.24-6.05.16-2.7.32-24.97 2.86-4.77-14.79-1.75-5.41-3.03-8.75-6.04-18.29-3.98-9.7-1.91-3.98-.63-1.59-4.14-9.38-7.31-15.43-2.71-5.57-3.5-7.63-9.54-21.32-2.39.8-3.66.63-46.92 3.34 2.23 19.41 4.61 42.47 1.27 3.18.48.64 3.5 27.51 19.72.32z" stroke-linejoin="round"/></defs><use xlink:href="#c" fill="#6bacaf" stroke="#6bb4d2" stroke-width="5.76"/><defs><path id="d" d="M2414.9 4981.04l-22.27.96-13.36.31-5.09.32-4.93.32-2.87-.16-2.86.16h-23.38l-18.29-3.5-4.3-.79-3.82-.8-2.54-.79-4.45-1.28-7.16-2.7-3.98-1.75-8.11-4.45-2.55-1.28-7.95-4.77-7.63-5.25-7.16-5.72-3.82-2.71-3.18-3.02-2.55-2.23-1.75-1.43-.95 1.59-1.11 1.27-2.23 1.6-4.61 1.9-19.89 8.27-15.42 6.05-5.09 2.23-7 2.54-14.48-2.38-2.23-1.28-14.63-8.27-21.63-7.16-17.82-3.97-37.85-9.23-11.14-2.07-35.95-6.68-76.03-13.68-79.37-14.31-47.08-8.27-28.48-4.93-32.13-5.73-33.88-6.2-5.88-1.28-41.84-8.11-9.38-1.59-6.05-1.43-3.18.32-3.81.63-6.21.96-2.38-19.57-16.55-137.59-2.7-22.74-.64-19.88.48-16.23 1.11-17.5.96-7.47 3.34-19.09 1.91-8.11 3.81-14.32 2.71-8.59 5.72-16.7 6.53-15.59 10.34-22.58 4.61-12.09 3.82-9.39 2.22-5.72-4.77-40.4-3.18-16.23-6.2-31.17-8.28-54.09-9.38-18.61-37.54-.31-.16-25.61-3.66-91.15 50.43.8-3.66-17.02-11.77-53.76-1.12-16.07.32-10.5 1.27-10.34 10.03-40.88 11.29-46.76 9.22-38.49 3.82-12.89 4.14-9.38 7.32-13.36-37.07-24.18 33.25-63.47-19.41-12.09-7-2.7-4.45-.95-9.54-1.91-5.41-3.02-9.23-9.23-4.45-2.7-2.87-1.12-6.04-1.11h-1.43l-6.52 1.27-3.82 1.75-6.04 5.57-20.36 31.02-6.84 9.7-3.5 3.82-6.84 4.93-6.21 2.54-7.95.96-7-.64-13.36-2.55-4.45-.47-5.09-.96-5.09-2.22-2.87-2.55-1.91-3.34-.95-5.09-.16-16.06v-4.14l-.16-11.45-1.91-16.55-3.81-17.17-14.96-47.09-1.11-6.04-3.18 1.11-2.86 1.75-2.23 3.34-2.86 9.07-13.84 75.55-5.57 29.11-3.02 14.95-1.59 32.13-5.41 67.45-5.25 54.87-7.16 58.7-1.11 36.74-6.68 16.39-17.82 20.04-15.59 5.56-11.93 6.05-12.72 8.75-5.57-1.75-4.45-2.55-4.3.48-2.54 1.59-4.14 9.54-6.68 11.14.48-25.13 3.02-40.41 2.07-22.74 2.23-35.95 7.31-104.82.64-21.32-2.07-18.13-14.31-99.73-.48-14.64.48-22.11 1.59-16.54 1.75-11.45 1.91-8.27 9.06-34.99 3.98-13.05 5.41-26.72 2.7-22.91.32-12.56-1.11-26.25-3.35-31.65-2.22-14.47-1.27-18.62.47-19.4 1.59-11.77.16-1.75 4.77-20.52 5.09-14.95 4.3-9.7 2.54-4.62 3.82-8.75 2.71-6.2 5.56-10.02 1.75-2.23 1.91-2.86.96-1.43 5.72.16 10.18-.16 4.77-.16 8.28-.48 12.24-1.91 9.71-2.06 13.36-3.66 10.97-4.14 7-2.86 5.73-2.39 4.93-2.38 10.66-5.89 10.97-6.52 11.29-7 7.64-5.09 3.98-2.7 12.09-8.91 12.72-10.02 2.23-1.75 10.65-9.55 2.39 1.6 2.07 2.54 5.88 6.04 8.75 40.88.8 4.14 4.61.16 5.09-.48 6.52-.48h4.3l.63-3.34.64-3.81.79-5.09.96-3.98.79-3.66.32-1.75 4.14-32.77 3.02-14.47 4.77-14.79 2.07-2.71 3.18-2.54 26.09-18.61 4.61-2.07.64-.16-10.66-17.97-13.04 9.22-2.71-2.7-2.54.16-.8-.8-1.91-2.7-1.91-2.39-1.9-5.72 16.22-17.98 15.91-18.13 5.09-5.73 2.86-3.66 2.7-3.5 1.59-2.38 2.23-3.5 1.43-2.23 2.55-4.93 1.27-2.23.64-1.27 3.02-6.2 2.54-5.09 1.75-3.18 1.12-2.55 1.43-2.54 1.59-2.71 1.11-1.91 2.39-3.81 1.91-2.39 1.75-2.39 1.43-1.74 3.5-4.14 4.29-4.77 3.66-3.98 3.98-4.77 4.13-4.3 3.82-3.97 2.07-1.59 1.11-.96 2.07-1.43 2.07-1.27 1.27-.64 1.59-.47 2.07-.48 2.38-.48 2.07-.32 3.98-.31 9.22-.48 12.73-.32 8.75-.32 10.66-.48 5.56-.15 8.27-.16 10.34-.64 6.21-.16 6.68-.48 3.66-.31 6.36-.96 6.04-1.75 5.73-2.38 5.72-3.19 1.6-.95 3.81-2.23 12.25-7 27.68-16.38-.8-2.07-.32-1.27-.15-1.11v-1.28l.15-2.06 1.28-7.64 2.06-10.34 3.19-14.31-33.09-10.5 3.5-16.07 2.39-12.08 2.86-15.12 7.79-34.83 24.18 1.11 10.02 1.91 5.25-25.61 3.66-16.86 7.32-31.33 2.7-12.25-1.43-6.52 17.5-75.24 17.02-89.23 4.61-24.02 3.34-22.43 6.84-35.63 18.29-81.44 4.14-23.86 1.59-18.77 5.25.48 5.88.79 6.05.48 2.7.48.16 11.45-2.86 85.58-1.12 30.22 3.66 60.28 7.16 54.08 10.66 49.15 19.08 74.92 1.75-5.72.8-1.59.79-2.39.96-2.54 1.27-3.19 3.66.64 3.5 1.27 2.23 5.25 4.61 21.63 2.54 15.75.8 5.41 1.91 12.88.79 5.73.96 6.36.63 6.05 1.12 10.5 1.43 14.63 1.11 12.72 2.23 24.66.48 11.77.63 5.73 1.43 15.9 1.75 16.23 3.34 21.79 1.75 9.86.16 2.23.64 7.15.64 6.37 5.88 46.28.95 8.27 3.5 36.11 4.14 46.29 1.75 18.13.64 7 .47 4.3.32 1.75 1.59.31 1.27.16 4.62.64 8.59 1.27 8.59 1.27 77.46 9.87 40.24 5.25 15.43 1.59 11.45 1.11 24.98 2.23 16.54.95 10.02.64 17.5.63 9.22.32 28.95.32h27.2l16.7-.32-.31 1.91-.96 3.98-1.27 6.84-1.59 8.74-4.45 28.16-2.71 14.31-2.23 12.57-1.59 10.66-1.43 13.68-.32 2.86-.31 3.66-1.75 11.77-1.44 7.63 49.79 12.57 14.95 3.66 7.16 1.91 3.82.31 20.68 7.48 25.29 8.59 1.43 1.11.48 2.07-4.62 24.5-2.22 13.36-.16 5.72 3.5 36.59 21.15-2.07 8.59.16 3.02 1.27 3.19 3.03 3.34 5.56-4.14 19.57 24.81 9.22 9.55 3.66 17.34 7.16 13.04 6.04 7-4.45.16 11.61v1.75l2.22 2.7.96.32-3.66 18.77 1.43 2.55-7 38.81 6.52 13.68 17.98-13.52 11.93 1.91 7.47 1.11-5.56 6.84-47.56 57.9-7.48 2.07-2.7-.8-2.71-1.91v15.91l-14.63 10.34-.8.47 17.98 55.36 2.22 9.22 3.5 10.5v12.25l-.15 9.23-.32 10.81-.32 7.16-.16 4.45-.16 3.82-.79 8.91-.64 8.75-.64 5.4-.79 6.84-1.59 11.46-1.43 12.24-2.07 12.89-1.91 13.84-2.07 12.24-2.23 12.09-5.4 26.41-.96 5.41-.95 18.29-.32 3.66-.8 7.31-.63 3.98-1.91 16.22-1.75 11.93-1.75 9.23-.8 4.61-17.49 41.2-6.21 12.88-2.38 9.07-1.75 6.52-1.27 5.25 1.9 1.27 1.75 1.12 1.44 1.11-7.32 27.2-12.09 50.9-2.39 11.45 7.32 20.84 2.07 6.04.32 4.62.79 10.65 1.12 13.05-3.34 37.7 15.9 17.97-17.02 17.02-5.09 12.41-23.22 12.56-3.82 1.91-2.23 1.27-5.09-.32-4.45-.31-16.22 43.42-8.43 27.2-5.89 38.65 9.7 3.18 3.5 1.12 2.55.79 3.81 1.28 9.87 3.18 7.79 26.4-3.02 30.06-19.25 13.21-1.59 2.38-9.54 9.07-3.18 2.86-1.12.16-2.38.16-4.62-.16-2.54.8-10.34 21.95-2.07-.8-4.29 18.77-.48 4.3-.95 13.04v11.29l1.11 3.98 4.61 8.43-1.43 7.95-5.41 6.36-1.43 11.3-2.39 11.93-1.27 7.31-1.59 7.64v5.41l1.43 6.36 2.07 8.11.64 14.16.79 12.72 1.43 28.95-9.06 9.86-3.82 4.14-3.66 3.82-8.43 14v11.77l-4.29-1.75-4.3-1.59-12.25-3.82-11.45-3.82-5.09-2.07-6.52 12.89-8.11 14.15 10.5 8.91 5.4 3.98 14.32 13.84-10.02 6.36 6.04 21-1.27 7.79-.16.32-1.27 7.63z" stroke-linejoin="round"/></defs><use xlink:href="#d" fill="#09757a" stroke="#097d9b" stroke-width="5.76"/><defs><path id="e" d="M2178.05 2500.46l-.47 3.66-1.44-7.48v-3.81l-.15-23.07-1.12-2.86-1.59-3.02-2.54-2.87-3.98-3.02-7.63-4.93-12.25-7.95-7-5.09-5.57-4.77-5.25-5.25-4.93-5.73-4.29-6.04-3.66-6.05-2.71-5.25-2.06-5.56-1.59-5.57-.8-5.73-.16-6.36.16-10.66-.16-6.52-.79-5.25-1.12-4.93-2.07-4.77-2.06-3.98-3.03-4.29-3.49-4.14-2.87-2.86-5.41-7.48-2.54-9.54-16.7-17.34-3.18-3.18-2.55 4.61-14.16 42.47-10.02 36.11-.79 6.36-1.75 10.82-1.59 15.91-5.09 23.22-2.07 8.59-3.02-13.84-1.27-4.14-17.34-48.67-34.04-58.85-14.16-16.54-16.54-19.41-47.56-38.49-7.48-3.98-89.39-48.04-44.54-30.54-10.66-8.59-2.86-2.38-13.68-7.16-13.52-9.54-3.18-3.34-10.02-10.98-4.14-4.13-5.25-4.94-4.45-3.34-4.29-2.54-4.14-1.91-4.14-1.11-4.61-.64-5.41.16-8.75 1.11-5.56.48-4.3-.32-3.81-.79-2.23-.96-2.23-1.27-8.91-4.77-9.86-4.77-5.25-1.75-22.74 6.84-17.34 2.86-3.66 2.07-5.88 3.18-1.28.63-1.11.48-3.66 1.27-4.45.48-3.34.32h-6.68l-7-.48-3.18-.63-5.41-1.91-7.16-3.18-4.77-2.39-7-3.66-23.54-14.95-8.27-4.61-7.16-3.5-5.41-2.39-10.18-2.86-7-1.75-3.34-.64-3.82-.63-8.59-.8-8.11-.32-8.27.48-3.02.32-23.86 6.04-29.75 7.64-29.1 7.31-4.46 1.28-5.41 1.59-6.36 2.22-8.75 2.71-1.91.63-8.11 2.87-4.13 1.75-2.23 1.27-.8.64-3.81 2.54-3.66 2.39-13.2-58.54-19.41-37.38-2.7-10.34-6.84-11.45-4.46-12.09-8.11-31.01-5.09-40.25-8.75-109.11-.16-1.44-12.4-80.48-17.5-92.1-5.73-18.29-1.43.32-2.86-1.59-1.43-1.12-1.75-1.43-1.28-1.27-.95-.96-2.07-3.18-1.43-3.5-2.07-5.88-1.91-5.89-2.86-8.27-1.75-4.29-3.02-5.57-2.07-3.66-1.27-1.91-1.59-1.91-1.59-1.75-1.91-1.74-1.27-1.12-3.03-2.54-2.7-1.75-3.82-1.75-2.54-2.23-1.91-1.91-1.59-2.38-1.27-2.71-2.39-5.72 11.29-2.71 11.46-2.86 3.81-.96 1.75-.47-.47-2.55-7.8-27.52-4.13-20.2-.16-.79-1.75-11.77-3.5-39.93.47-23.86 1.75-18.29 3.66-22.43 1.28-8.59.63-6.36 2.71-12.41-1.44-3.81 1.91-11.77 1.43-7.32 2.87-14.95 5.56-32.77 3.35-21.95 2.06-18.45 1.28-16.38.79-15.27.16-14.32-.16-12.41-.79-13.04-1.28-13.2-1.59-9.86-.47-3.19-2.71-13.04-3.82-14.63-1.59-5.57-2.7-9.23 4.93-.31 5.25-.32 10.5-1.59-7-37.38-13.36-66.65-.96-6.36 1.12-2.23 3.18-.95 1.27-.16 3.34-.16-.48-4.61-.95-4.46-23.07-111.98-2.7-15.59-5.09-27.83-4.93-41.04-.32-6.2 19.25-9.55-3.98-35.79.8-2.22.95-1.12 4.93-.47 19.09-1.28 3.5 28.32 1.11 7.95 2.39 19.41 8.27-1.12 7.16-2.7 11.93.79-2.71-21.95-1.11-6.84-1.59-7.95 11.61-5.89 191.51-93.84 146.98-79.22 3.5-3.65-4.62-16.23-1.9-5.57-2.07-4.93-2.07-4.77-2.55-5.25-3.18-6.68-3.18-6.84-2.86-5.72-2.39-5.57-3.66-9.54-1.59-4.78-1.75-6.2-1.43-5.57-1.27-5.25-2.23-13.83-5.56-59.97-.64-4.14-1.11-4.45-1.28-4.14-1.75-4.61 9.55-4.29 1.91-.64 6.04-2.55 24.18-10.02 3.98-1.59 10.33-4.45 3.82-1.59 3.34-1.75 2.39 19.88 1.43 10.34 1.75 15.43 1.59 14 .48 5.25 1.59 20.36 1.43 18.77.79 17.33.8 20.68.48 12.89v15.43l-.16 18.29 3.5-3.5 53.28 1.75 80.81-66.33 68.87-2.71 89.24-54.24 4.77-19.08 5.72-19.73 4.94-13.99 6.68-18.3 2.22-5.56 9.07-22.91.8-2.07 5.24-13.04 4.62-12.41.79-1.91 3.5-9.06 2.23-5.89 3.82-10.18 6.36-16.22 5.41-12.89 5.25-13.04 5.09-12.56 5.56-13.21 6.53-17.65 6.36-17.82 5.09-13.84 4.77-16.7 1.59-5.57 2.55-9.22 2.22-8.91 3.66-16.06 7.32.79 11.45 1.43 17.34 1.91 17.97 1.75 7.48.8 2.7.16 4.46.95 4.61.48 12.09 2.54 6.52 1.43 6.36 1.6 7 2.06 2.55.96 8.11 3.02 7.16 2.86 4.29 2.07 5.89 2.7 6.2 3.5 4.45 2.23 2.71 1.59 2.86 1.59 6.52 4.14 7.32 4.93 11.61 8.11 12.09 8.43 9.7 6.68 6.36 4.46-5.09 23.38-8.11 35.31-2.07 7.32-1.9 6.36-6.05 15.27-5.73 8.91-4.45 10.97-.79 4.46 20.83-2.55 14-7.16 22.43-11.45 13.52 23.38 11.13-6.04 9.39 7.47 15.43 12.89 5.25 4.13 10.34 6.84 1.75.48 1.74-.32 1.12-.32.95-.95 13.68-17.97 4.61-5.41 7.96-9.23 8.59-9.38-8.75-15.11-4.3-7-2.86-4.46-2.7-4.13-3.34-3.98-2.87-3.18-4.29-4.77 6.68-3.18 13.84-8.43 31.49-14.64L2350 143l7.32 1.43 21.15-10.02 1.44-8.75 2.7.79 7.63 2.23 11.14-4.77 33.4-16.07 18.45-8.43 24.18-9.54 20.04-10.5 55.52-25.93 8.11-3.18-7.64 31.18-1.75 7.79-2.54 9.71-2.86 11.13-1.91 7.95-8.75 30.7 47.72 76.51 4.45 10.02 5.73 13.52 1.75 4.62 2.54 4.13 6.52 6.36 7.96 12.57 3.65 11.29 4.78 7 29.42 40.72 3.34 5.57 36.91 59.33 21.31 34.52-3.5 26.08-.48 7 1.12 5.57 2.7 6.04 5.57 7.16 4.29 6.36 2.71 6.84 78.73 13.68 6.05 62.51 2.54 2.07-2.22 7.32-1.12 3.66-.31 1.59.15 1.59.32 1.11.64 1.12 7.95 7.47 7.48 7.64 5.25 5.09 4.77 3.81-.8 2.07-3.65 7.48-3.98 6.2-3.5 5.09-4.77 8.59-2.39 6.68-1.11 3.34-1.12 5.09-.79 5.09v10.34l.64 6.2 2.06 14.32 3.66 28.31 1.43 3.5 1.12 3.66 1.11 6.05.8 6.2.79 8.27 1.11 22.9.16 3.66.32 4.62-.48 5.24-1.27 12.09-.32 3.98-.16 6.68v7.64l.64 7.15 2.55 24.82 1.59 17.65 1.43 9.39 1.11 4.29 2.07 5.25 3.34 7.16 7.48 13.68 1.59 3.02 1.43 3.98.95 3.66.64 3.5 3.5 25.29.16 8.59-.32 7.95-.32 3.98-.32 3.49-1.27 11.93-1.27 11.78-26.25-8.91-9.38-2.87h-2.87l-3.81 1.44-3.18 3.18-25.14 91.94-1.75 3.18-2.86 2.7-4.29 1.59h-3.5l-20.52-5.57-19.41-6.04-14 34.2 13.21 5.25 8.27 5.88 5.56 6.05 8.28 11.93 1.75 5.09 15.11-10.82 4.77-1.59 4.13-.64 1.91.16 7.16.96 3.5 1.27 23.7 7-2.07 4.61-1.43 3.66-3.5 11.61-12.09 41.83-3.34 10.98-7.16 23.86-2.54 10.18-.64 2.7-.63 2.39-.16 1.43-.32 3.02-.32 7-.16 6.52v16.07l-.32 24.65-.63 10.18-.16 1.28-1.75 15.58-1.75 17.98-3.18 39.6-4.61-1.27-18.14-4.61-.63 11.45-.64 22.11-.16 8.75-.64 8.27-.63 3.66-.64 3.98-1.43 17.33-2.23 28.32-.95 16.86-.32 17.65-.63 4.3-2.23 15.43-.48 9.86.8 6.36 3.34 3.34 1.91 2.55 1.59 3.97-.16 6.21-.64 7.31-.32 3.5-.16 3.03.16 2.06.64 1.59 3.34 6.21.95 1.75.16 1.43.48 7.32.8 2.7.47.95 1.91 2.71 2.71 3.02 1.11 1.27 1.11 1.43 1.27 1.75.8 3.03.48 2.22.16 2.87v3.5l-.16 1.75v2.7l-.16 3.82.32 2.54.47 1.75.96 1.43-4.46 4.3-6.36 4.93-2.54 2.38-2.55 2.71-2.07 3.34-2.86 6.04-1.91 4.93-2.38 5.73-1.28 5.25-1.27 5.57-1.11 8.43-3.66 25.92-1.59 14.48-1.12 11.29-1.11 13.36-.48 84.94 2.55.64 3.5.79 3.02.8 13.36 3.02 2.07.48-.32 28.79-.95 22.75-3.18 36.74-2.55-2.07-9.86-2.23-7.48 55.84 3.5 22.58.8 3.18.63 4.78.48 2.38.32.8-1.11 6.84.31.95 1.28 1.43.63 48.52 5.09 7.79-6.04 2.55 4.45 6.2-3.34.16-2.7.16-2.71.16-6.68.15h-8.11l-6.52.16-48.67-.47-11.93-.16-17.34-.16-7.16-.16-4.29-.32-3.34-.16-4.14-.16-4.77-.16-3.82-.15-3.98-.16-3.34-.32-4.13-.32-4.46-.32-7.95-1.11-5.25-.48-3.97-.79-11.62-2.55-10.34-2.54-5.56-1.59-6.21-1.91-11.77-3.98-10.81-4.45-8.27-3.66-12.57-6.36-5.57-3.19-9.86-5.56-58.22-35.63-7.31-4.62-25.45-15.43-10.18-6.83-21.32-14.48-1.43 3.18-5.73 12.09-.63 1.43-14.16 28.16-2.38 6.04-10.03 22.11-15.27 30.86-9.38 19.72-5.25 10.34-4.93 10.02-2.39 4.77-10.34 18.93-2.7 4.3-6.52 9.06-7.32 15.27-4.29 9.07-10.5 21.79-4.61 8.91-4.3 8.75-8.91 17.34-4.93 12.24-1.91 5.57-1.11 3.18-1.27 3.98-1.27 4.93-1.6 6.2-1.27 7.48-1.59 8.11-1.91 9.39-.95 3.81-.64 5.25-3.18 22.11-1.27 10.82-2.86-9.7-2.39-4.78-1.27 12.57-.96 12.57-.95 18.29-.48 11.93-.32 3.18-.32 6.52-.15 4.77v4.61l-.16 7.8-.32 4.61-.48 9.07-.95 14-1.12 19.72-.16 2.39-.31 6.2-1.28 14.63z" stroke-linejoin="round"/></defs><use xlink:href="#e" fill="#004249" stroke="#00465f" stroke-width="5.76"/></svg>