<svg width="398.4" height="384" viewBox="0 0 2990 2880" xmlns="http://www.w3.org/2000/svg" xmlns:xlink="http://www.w3.org/1999/xlink"><path fill="#fff" d="M0 0h2990v2880H0z"/><defs><path id="a" d="M1687.67 1301.53l-1.12.09-6.17.66-1.87.19-.09-.94v-1.03l-.94-13.45-1.3-7.94-1.87-7.66-4.4-12.43-4.11-14.02-3.92-8.69-.84-3.36-.56-3.74-.84-7.19-.28-20.56.28-12.42-.75-11.78-.75-4.01-1.4-2.81-7.66-8.12-2.15-5.33-2.71-18.59-1.5.09h-1.86l-8.88.65-2.9.28-1.68.19-2.05.19-3.46.37-2.34.19-20.46 2.05-8.6.75-2.61.19-24.02 1.96-13.64 1.12-10.56.94-10.18.74-11.12 1.03 2.15 17.47 1.31 13.18.18 1.77.47 1.59-15.88 1.87-5.98.65-4.3.47-20.37 2.43-1.12.19-7.2-33.64-28.12 3.46-7.29.65-4.58.56-6.54.47-21.96 2.99-34.2 4.3-21.02 2.24-12.05 1.49-18.97 2.43-3.27.38-7.38.93-3.55.47-4.95.56 1.96 1.31 7.94 4.86 3.36 1.96 6.92 3.55 5.32 2.33 11.4 4.49 3.65 1.03 1.96.46 13.27 3.37 9.34 1.49 5.42.56 4.39.47h.94l1.87.09-.75 10.28-1.22 7.48 2.25.28 24.66-3.46 19.25-1.68 11.4-1.22 2.15 19.25 1.68 12.52 4.11 35.51.28 2.05-6.72-2.61 7 5.41.56 4.58-1.49-.18-.84-.19-1.87-.66-1.4-.28-1.96-.18-4.3-.1-6.17-.28-10.65-.09-2.71-.09-11.31-.47-7.19-.19-1.03-.09-3.64-1.12-1.31-.47-2.43-.93-9.16-3.74-2.89-1.59-7.76-4.48-2.34-1.5-117.63-7.85-.66-5.42-1.96-19.8-.84-7.85-.37-2.99-12.24-5.61-8.97-4.86-3.84-2.33-3.17-2.34-11.31-8.5-6.91-4.77-12.52-8.41-3.83-2.52-12.8-8.31-10.19-6.73-2.9-2.06-2.8-2.33-2.9-2.52-2.43-2.43-3.64-3.93-2.24-2.89-2.24-2.71-2.15-2.99-7.29-9.44-1.78-2.24-1.77-1.97-1.59-1.49-1.5-1.22-3.36-2.33-1.87-1.03-2.05-29.15-.1-1.12-.09-1.78.84-11.58-.37-.1-.75-.46-.47-.38-.28-.65-1.4-4.21-.75-1.12-1.4-1.4-2.71-2.24-2.99-2.06-2.24-1.86-2.34-2.34-2.89-3.36-2.71-3.65-.94-1.77-3.92-9.72-4.86-11.96-1.96-3.83-1.78-2.8.09-1.41 2.99-.46 6.27-.94 7.28-1.12 16.82-2.61 1.4-.38 38.03-9.71 64.57-7.01 1.77-.47 7.95-1.03 10.18-.84 4.77-.56 12.42-.93 7.29-.94 4.21-.56 5.51-.56 8.31-.93 4.68-.47 6.72-.65 6.82-.66 10.19-1.31 41.39-4.11 3.74-.46 27.56-3.18 10.38-1.31 6.91-.75-10.47-11.4-4.01-4.01-3.18-2.53-4.11-2.61-7.2-4.58-2.24-1.87-1.03-.93-.65-.94-.75-1.68-.47-1.77-.37-1.69-.75-4.39-2.24-15.41-.75-2.9-5.51-15.42-.65-2.15-.94-2.89-.46-1.97-.47-2.98-2.15-16.26-1.31-10.47-1.31-11.58-1.68-12.06-1.21-11.49-.66-7.01v-2.42l.1-.85.28-.74 3.92-6.45 7.48-.93 14.66-1.59 15.52-1.78 26.63-2.99 11.39-1.4 11.59-1.21 11.49-1.59 34.39-3.18 8.22-1.03-3.74-29.05-2.33-20.93-3.55-30 1.68-.18 87.08-10.84 4.86-.66.1-1.86v-2.43l-.29-1.97-.56-2.33-.93-2.62-.19-.65-.18-3.55-.1-1.68-.37-2.62-1.22-3.64-.28-1.78.19-1.77.28-1.78-.09-1.4-.56-2.15-.94-3.83-.65-3.55-1.4-11.49-.1-2.71.28-5.05.47-2.8.28-1.22 1.96-4.85 2.81-6.36.46-1.31.19-1.3-.09-1.5-.56-2.99-1.22-7.75-.37-4.02-.1-2.15v-5.33l-.93-7.75.19-2.62-.94-8.41v-2.43l.19-2.24.93-7.01 1.03-5.32v-1.78l-.28-.74-3.36-3.74-.56-1.03-.66-2.15-.09-2.9-.37-7.94.09-1.68-.47-3.55-.37-1.96-1.4-4.02-.28-1.21-.19-1.31.28-7.01v-5.79l-.28-2.62-1.5-5.23-1.77-4.02-1.22-2.99-1.12-2.05-.46-1.22-.38-1.68-.09-1.21v-1.13l.19-1.21 1.21-3.74-.09-.75-.28-1.12-1.12-2.05-2.43-4.67-3.74-7.76-.47-1.68-.84-4.39-2.52-2.9-.75-1.12-1.68-3.83-.75-1.03-2.8-2.05-1.22-.94 1.69-.47 7.47-2.14 2.62-.66 1.12-.37 2.52-.56 16.82-1.96 2.34-.28.93-.1 3.74-.47 25.88-2.71 38.03-4.29 12.52-1.22 20.55-2.24 45.32-4.95 5.98-.56 5.89-.75-3.83-9.53-4.11-10.84-8.51-21.77-3.36-8.69-4.48-12.42-1.13-3.65-.37-1.31-.56-3.92-5.42-43.35-1.59-10.75-4.67-36.53-61.01 5.79-61.77 5.23-7.1-67.74-1.4-14.01-11.59 1.4-7.75-82.88 20.09-1.68 28.22-2.89 9.15-.84 20.84-2.06 4.3-.28 1.96-.28 15.88-2.06 10.94-1.02 10.27-.94 10.1-1.12 10.74-1.31 13.27-1.4 21.68-1.96 22.05-2.62 19.43-1.96 47.75-5.04 11.02-1.31 25.51-2.71 4.02 33.35 1.96 17.01 8.69 71.48 4.96 41.76 2.33-.19 1.31-.09 11.68-1.68 11.3-1.22 11.59-1.12 12.05-1.49 21.31-1.96 15.42-1.69 17.65-1.96 22.9-2.15 8.5-1.03 14.48-1.68 12.9-1.21 11.68-1.31 7.38-.84 17.1-1.68 8.5-1.03 1.4 10.74.75 4.21 1.12 8.88.28 2.52.37 6.72.75 7.67 2.06 17 2.89 23.45 4.4 32.52 1.21 10.65-28.5 2.8-34.66 3.55-9.07 1.22.56 4.67 1.97 16.35 1.4 10.56 3.27 24.48 3.92 34.1 3.37 28.59v1.4l-.19 1.5-.37.75-.38.37-.65.56-.84.37-.94.28-6.72.38-7.29.75-18.78 1.96-2.62.56-3.36 1.03-2.25 1.21-1.96 1.31-2.15 1.59-2.05 1.77-1.5 1.78-1.87 2.89-3.36 5.42-1.31 2.53-2.71 7.84-.93 2.62-1.4 2.24-.66.75-.75.56-1.12.56-11.49 4.39-15.98 6.17-1.49.47.65 1.49 3.08 8.88 10.84 31.49 4.02 12.33 1.87 5.7 2.62 9.34 2.8 9.16 2.52 8.78 6.36 20.84 7.19 24.38 2.15 7.66.84 3.83 3.64 30.09 3.74 31.86 22.43-2.62 12.05-1.02 11.68-1.22 11.68-1.49 9.25-1.03 48.4-5.05 14.11-1.3 15.79-1.5 4.77-.47 10.83-.84 10.66-1.21 11.77-1.59 22.42-2.15 14.02-1.31 3.55 30.18 1.22 10.84 5.04 37.65-11.96 17.76-16.26 24.01-11.4 17-3.17 4.4-2.25 3.55-2.24 3.08-5.32 7.1-2.9 3.55-3.46 3.93-4.02 4.39-5.41 5.88-6.83.84-31.39 3.37-17.38 1.87-.47.09-1.03.09-16.16 1.78-6.45.65-5.14.47-8.69.93-9.25 1.03-1.77.19-2.24.19-1.59.18-6.64.75-6.82.75 4.58-6.64.75-.93 1.77-5.23 8.79-.56-1.69-13.37 4.68-24.29-.66-.65-.28-.84-.46-2.06-.38-2.33-.28-1.13-.56-1.02-.75-.75-4.2-1.78-5.89-3.64-.47-.19-3.83-1.77-.37-.28-26.72 15.79 1.49 12.61 2.24 18.78 1.5 12.24 10 3.27 2.71-.28 4.67 5.33-8.41.74-7.66.94-13.46 1.4-11.12 17.57-.56.74-.65 1.41-.28 1.58v.75l.37 2.24v.28l-.56.66-.19.37-.18 1.22v1.49l-.75 1.12v.19l.28.37v.47l-.28.28.09.37.28.56v.28l-.56.1v.19l.1.46-.1.28-.56.38v.46l-.56.56-.09.38v.56l.19.19.65.28.19.28-.28.56-.38.37-.75.37-.28.19-.46.75-.56.47-.94 1.4-.28.18-1.77-.18h-2.43l-.94.56h-1.87l-4.01.46-2.71.66-.38-1.31-.28-.19-.18-.09-.75.75h-.38l-.56-.19-2.05-.47-.56-.09-1.03-.56-.56-.09-.09.09-.28.19-.1.37.19.65.28.38.28 1.03-.19.93-.28.28-.28.09h-1.03l-.18.28-.1.47.38 4.11v.94l-.1.46-.09.94.09.75.66 2.8-1.59 2.43-2.62 3.36-1.77 3.37-2.62 6.44-1.21 3.18-.19.84-.28.84-4.48 10.09-.28 1.22.09.74.09.84v.94l-.09.65-.28.38-.28.28-.84.18-1.4-.46h-.75l-2.71.46-2.9.19-1.21.37-.47-.09-.28-.09-.37-.38-1.5-2.33-1.68-2.34-.28-.18-1.31.28-1.03.09-4.67-.75-1.12-.09-.19.19-.56 1.58.84 2.43.38 1.59.65 4.3-22.89 4.86-.1.37v.56l.19.47.47.75v.28l-.37 1.31-.38 1.96-.84 1.77-.09.56.28 1.87-.1.19-.28.09-.09.19v.19l.65.74v.66l.38.84-.1.19-1.3 1.12-.38.74-.37 1.59v.38l.19 1.21.46.56v.37l-.09.47-.28.38-.65.28-.29.28-.18.56-.19.18-.93.75-.47.09-.37.38-.28.56-.38.37-.84.28-.47-.09-.37-.56-1.12-1.78-.19-.09-.09.19-.1.65.47 3.55-.18.56-.19.19-.75.19-.37.46-.28 1.22-.28.28-1.41.75-.56.46-1.58.38-.38.46-.28.47-1.59.19-.93-.1h-.37l-.38.19-1.96 1.87-.47.28-2.33.75-.75.28-1.68 1.03-3.18 1.12-1.31.65-2.52.84-.84.1-1.03.37-.37.37-.94 1.22-.46.37-1.22.66-.47.37-1.3 1.49 2.33 2.71.66.56h.18l1.22-1.3h.56l.37.18.19.38.09.37v2.8l.38 1.69v.74l-1.03 2.62-.19.56-.09.75-.19.28h-.37l-.84.28-.47.28-.38.46-1.3 1.03-1.31.75-.28.37-.38.75-2.8 1.96-.65.66-1.03 1.49-.65.66-.66.46-2.33.94-.19.18-.1.38.38.93v.56l-.19.19-.47.09-.18-.28-.47-.74-.56-.28-.47.09-.37-.09-.37-.28-.94-1.69-.47-.37-4.29 9.44-1.03-.19-.56.84-.47.93-.75 3.93v1.4l.84 4.11.1 2.15-.1.37-.37.47-.28.84v1.31l-.84-.19-.75-.09-.93.19-1.69.65-1.68 1.12-1.31 1.31-1.02 1.31-5.33 9.34-.75.94-2.24.93-3.36 1.78-.75.65-.75 1.31-.28.28-.56.28-1.31.19-1.03.56-1.4 1.12-.37.09-.84.47-.47.65-.09.75-.19.37-.37.28-.56.28-.66-.18-.46-.56h-.28l-.47.28h-.47l-.09-.1-.1-.28.47-.74-.09-.47-.19-.1-.65.38-.47.19-.65.18-1.5.38-.84.65-.65.65-.19.38-.47.46-2.99.47-.56-.09-2.52.37-.66.47-.37.37-.47 1.03-.09.94.75 4.95.09.93-.09.28-.28.28-1.78.66-.47.09-1.12-.09-.74-.1-.47-.09-1.12.37-.84.56-.66-.09-.46-.93-.94-1.22-.47-.65-.56-.38-.46-.28-3.65-2.8-.65-.19-1.5-.18-3.08.09-2.99.19-1.4.28-1.59.84-.28.37-.37 1.03-.75.93-3.93 2.99-.84 1.41-.56 1.58-.84 1.78-.19.47-.46 5.79v1.12l-.19 1.03-.84 1.4-1.4 1.59-.28.28-1.5.09-2.61 1.87-.38.47-.37 1.31-.19.93.19 1.4 1.59 6.73.28 1.31-.1 2.24-1.02.09-.66-.09-.56-.28-.37-.28-3.37-4.02-.28-.19-.84.1-3.64 2.52-2.43.19-.94.46-1.96 1.59-.84 1.31-.56 1.12-.09.56-.28.94-.38.93-1.77 2.71-.19.47-.09.75-.1 1.58-.37 2.06-.75 2.43-.09.47.09.84.28.93 1.31 3.93.37.93.29.19.65.28.37.09.56.75.38.84.37 1.49v1.69l-.56 1.21-.84 1.21-.84.94-1.68 1.4-.28.56-2.9 3.18-1.12 1.03-3.74 3.08-6.82 3.18-.19-.28-.37-.29-.47-.09-.56.09-1.49.94-.66.56-.37.47-1.03 2.61-.37.66-.47.37-2.71 1.31-1.96.84-2.15 1.49-.75.29-1.12.18h-1.4l-.65.1-.38.28-.09.18-.1.56v.47l.1.28.28.09-4.39 2.81-3.83 2.43.37 1.12 7.47 8.87-12.14 1.5.28 2.71 1.68 14.57.65 5.42.84 5.98.94 4.58.19 1.03.65 3.08 1.31 5.42z" stroke-linejoin="round"/></defs><use xlink:href="#a" fill="#cee3e4" stroke="#cef5f5" stroke-width="5.76"/><defs><path id="b" d="M1128.35 1753.19l-.84.28-.65.19h-1.59l-.75-.1-.65-.28-.66-.28-.84-.46-.93-.85-2.34-2.24-1.21-1.12-2.15-1.96-.28-.28-.47-.37-.75-.57-1.03-.65-1.12-.47-1.02-.37-.85-.28-2.05-.65-1.12-.38-1.03-.47-1.12-.46-.56-.38-.66.28-5.04-2.05-1.96-7.2-.66-2.33-.18-.47-.1-.47-1.03-3.45-.93-2.99-1.87-6.64-.65-2.15-2.34-8.03-7.29-25.6-1.12-3.93-1.03-3.73-.37-1.41-.47-1.49-1.77-6.45-1.12-3.92 2.89-.28 4.11-.38 3.09-.46 8.22-1.22 3.55-.65 8.78-1.12 15.61-1.87 11.58-1.5 8.04-7 13.45-11.78 4.68-5.14 1.49-2.05 5.51-6.73-4.39-44.57 2.34-2.99 2.05-6.26 1.78-3.36 1.87-5.14 3.27-8.13 11.58-26.72-4.57.37-7.1 1.22-4.02.28-4.39-3.27-5.52-4.39-4.11-.84-.75-.1-.84-.18.28-.47.19-.47-.09-1.59-1.12-10.37-.28-3.36-1.31-13.08-1.22-10.56-.09-.75-.66-5.23-.56-5.14-.28-2.33-.37-3.65-.65-6.16-.19-2.15-.75-8.23-4.2.38-19.06 1.96-8.04.75-3.83.47-.37-3.93-.47-3.64-.19-1.68-.28-2.25-.47-5.14-1.21-11.21-.09-.65-.38-3.74-1.12-10.56-3.18-30.92-7.56 1.12-.85.37-1.58 1.12-1.31-2.05-.47-.28-.56-.19-.65-.09-.84.09-.38-1.96-.28-.28-.37-.19-7.57 1.03-2.9.47-10.28 1.58-.37.1-.19.18-.46.84-.28.1-.94.18-.37-2.8-.19-.37-.56-4.67.37-.38.19-.74.09-1.13-.37-2.24-1.31-7.66-.46-2.06-.38-1.12-1.96-2.89-.19-.66-.18-.46-.56-2.81-.38-2.61-9.06-4.3h-.84l-2.43-10.09 51.11-4.21-1.4-13.36-3.18-27.84-.84-7.94-.47-4.86-1.87-16.45-1.31-11.21-3.17-28.5-.94-8.68-1.3-11.22-1.69-15.88-2.71-25.13-2.24-20.19-.93-8.97-1.5-1.12-1.96-2.05-2.34-2.9-1.4-2.15-1.12-2.05-.93-2.06-.75-1.87-.47-1.87-.56-2.33-.19-1.31-.37-3.46-.37-5.79-.56-11.68v-5.51l.28-2.15.84-5.05 1.31-4.39.93-2.33.84-4.39 1.68-14.11.19-1.5.75-6.35 1.02-.38-.09 1.41 1.78 2.8 1.96 3.83 4.86 11.96 3.92 9.72.94 1.77 2.71 3.65 2.89 3.36 2.34 2.34 2.24 1.86 2.99 2.06 2.71 2.24 1.4 1.4.75 1.12 1.4 4.21.28.65.47.38.75.46.37.1-.84 11.58.09 1.78.1 1.12 2.05 29.15 1.87 1.03 3.36 2.33 1.5 1.22 1.59 1.49 1.77 1.97 1.78 2.24 7.29 9.44 2.15 2.99 2.24 2.71 2.24 2.89 3.64 3.93 2.43 2.43 2.9 2.52 2.8 2.33 2.9 2.06 10.19 6.73 12.8 8.31 3.83 2.52 12.52 8.41 6.91 4.77 11.31 8.5 3.17 2.34 3.84 2.33 8.97 4.86 12.24 5.61.37 2.99.84 7.85 1.96 19.8.66 5.42 117.63 7.85 2.34 1.5 7.76 4.48 2.89 1.59 9.16 3.74 2.43.93 1.31.47 3.64 1.12 1.03.09 7.19.19 12.24 11.59 5.42-.85h.56l.38.1.28.37.09.38.66 4.48.28 1.03.65 1.21.09 1.31-1.49 2.34-.84 1.59-.56 1.77-.19 1.31.09 2.43.75 5.6.47 4.58v1.5l-.1.84-.65 2.05-.37.66-2.15 2.61-.94 1.59-.46 1.31 1.02.37 21.4 6.73 13.36 4.3 4.39 1.4 3.55 1.03.85.19.56.09.56-.19 2.99 5.7 2.24 4.11 1.4 2.71 1.59 2.99.75 1.5 3.27 5.98 1.12 2.24 3.36 6.63 2.06 3.74 1.21 2.52.28 1.59 2.25 16.26.65 5.79-8.41 1.03 2.06 16.07 2.99 19.99 1.3.1 7.57.65 1.68.1h.19l2.71.28 7.1.56 2.15.18 7.85.66 3.64.37 2.15.09 5.42.47 3.93.28 1.96.1.84.09h3.18l-.28 1.4-.28.65-.47.85-.56.93-.66.65-1.49 1.69-5.51 6.44-3.93.66-8.31 1.4-.85.09-5.88.94-10 1.4-5.79.74-5.14.75-5.89.66 12.15 11.86 5.04 5.05 7.67-.84-2.62 3.55-.28.37-1.12 1.12-2.71 1.96-2.62 1.97-.56.46-.56.56-.65.85-2.62 3.45-.47.47-1.77-.56-1.03.09-1.31.56-4.02 2.43-.09.19-.28.19-6.35 4.39-2.53 1.77-1.49 1.12-2.43 2.43-4.86 1.78-2.24 2.15-2.62 1.02-2.24 1.03-1.4.66-2.43 1.4-8.78 4.95-9.07 5.05-8.03 4.48-1.5.84-2.33 1.31-5.05 2.8-2.24 1.31.37 1.31.28 1.68v.28l-.09.75-.09.56.09.65.75 6.26.09 1.68.56 4.77 4.2-.65 4.58-.85.94.1.18.18.28.19.29.38.28.74.18 2.43.19.75.47 1.03-.28.84-.1 1.31.19 1.68.19.65.37.56.93.66-.37 1.4-.37 2.43-.38 1.77-.37 1.12-.84 1.97-1.59 2.8-6.54 11.4-.75 1.21-2.71 3.27-1.77 1.59-2.06 1.5-4.86 3.64-5.79 4.02-2.15 1.96-1.68 1.96-1.03 1.87-.47.94-1.96 5.69-.37.66-1.03 1.4 1.4 3.83.09 1.03-.09 1.31-.09.84-1.4 2.33-2.43 3.09-.66.65-.46.47 2.52.93 3.55 1.78-2.24 3.45-1.78 2.53-2.05 2.8-2.81 3.46-2.99 3.08-1.59 1.59-1.86 1.77-1.5 1.31-1.87 1.5-2.33 1.87-2.25 1.68-3.36 2.15-2.34 1.4-2.24 1.12-1.59.84-1.03.47-2.99 1.31-4.48 1.77-2.52.75-6.08 1.59-3.36.56-3.92.46-4.96.28h-5.79l-17.29-1.49-13.73-.93-14.39-1.03-11.77-.84-15.7-1.12-10.84-.75-6.26-.47-3.36-.28-2.99 3.27.46 4.02.38 3.08 1.96 11.87 1.77 12.8.19.65.19.47.28.09.47.1h.65l.56-.38.93-.74.75-.75.75-.47.75-.09 2.99-.66 4.58-1.21 5.79-1.31.84 9.9v.85l.28 2.05-41.21 11.03-18.78 5.04-8.97 2.43-.84-6.54-.18-1.77v-.85l.09-1.58-2.24.28-1.78.28-1.49.09-1.41.19-.93.46-.75.1-1.77.18-1.68.19-1.59.09-1.5.19h-1.59l-1.58-.19-1.5.1-1.87.18-1.68.1-1.59.19-1.59.18-1.4.19-1.68.19-1.12.09-4.39.47.46 4.48.1 1.4.84 8.32.56 5.04-2.52 1.12-.85.29-.74.37-5.89 2.43-5.42 1.4z" stroke-linejoin="round"/></defs><use xlink:href="#b" fill="#cee3e4" stroke="#cef5f5" stroke-width="5.76"/><defs><path id="c" d="M2147.38 2497.02l-1.03.93-.56.37-.84.38-.75.18-1.58.19h-.85l-2.05-.09-1.12-.28h-5.14l-10.09-.38-2.53-.37-1.3-.28-2.81-24.11-5.14-44-3.27-28.22-16.25-137.72-15.33-129.03-4.2-36.35-3.55-8.32-.66-31.76-4.86-39.99-4.57-32.05-1.69-12.15-3.17-23.35-1.87-13.37-.66-5.04h.47l11.4-1.12 2.15-.38 5.98-.65.28-3.08.37-1.69.56-1.96.66-1.77.56-1.22.75-1.31 1.58-2.33 1.78-1.96 4.67-3.93 2.62-1.68 10.65-4.86 2.62-2.15 1.58-1.31.85-.93.93-1.21.84-1.41 1.12-2.61.38-1.12.37-2.06.56-6.91.09-3.18v-7.57l-.09-5.7.19-17.56.09-2.34-1.31 1.96-1.49 2.15-6.64-6.07-3.92-3.46-5.89-4.76-2.24-2.24-2.15-1.69-1.49-.93-1.59-.75-1.68-.37-1.87-.1-10.66.85-1.86-.19-2.15-.66-1.87-1.12-.28-.18-1.12-.84-1.22-1.31-1.12-1.68-1.4-3.18-.65-2.9v-1.87l.18-2.71 1.12-4.48.38-2.99.18-2.43-.37-5.7-2.24-19.99-.47-4.02-.19-1.31-.93-9.06 14.86-1.5 9.25-1.31 1.4-.37.75-.37.93-.75 4.2-5.14-10.93-10.37-4.86-4.67-5.42-5.33-.46-.56-.75-.84-.56-.47-.47-.56-1.12-1.12-.65-.65-.56-.47-.75-.56-.84-.47-1.31-.65-1.03-.28-1.96-.19h-1.5l-2.15.19-6.82 1.03-1.12.09-8.5 1.03h-.56l-1.22-10.93-.09-.38-.28-2.99-.47-4.48-1.68-16.63-1.4-11.87-1.31-11.68-1.31-10.56-1.58-13.08-.47-3.83-.1-.93-.09-.94-1.12-9.9-.56-5.14-1.31.93-32.61 6.45-2.43.47-.18-1.03-.38-3.18-.18-.65-.57-1.5-1.12-1.68-4.01-5.23-3.46-4.48-9.44-11.87-4.3 1.03-11.77 1.02-1.31.28-.37.66-42.98 8.78-.47.84-.65.84-3.46.56-.19-1.3-.09-1.03-8.6-1.78-1.4-.28-.75-.09-4.76-1.31-5.05-1.87-1.77-.65-5.05-2.9-2.24-1.59-4.3-3.64-3.08-3.27-2.34-2.71.09-1.49-.37-1.78-8.88-23.83-.56-.84-.84-1.02-.84-.28-.09-1.13-.75-8.31-.75-6.45-.28-3.64-.65-5.7-.66-4.67-.18-.94-.47-1.96.47-.19 14.2-2.05 2.43-.38-1.12-9.71-.19-1.59v-1.22l.19-.28-1.59-.56-16.07-7.28-7.48-17.1-1.77.09-6.08.37h-2.8l-1.87-8.97-1.4-12.89-.28-1.68-.19-2.15-.09-1.21-1.49-14.86-1.03-10.93-4.11-2.34-3.09-1.77-8.87-5.7-14.02-8.32-6.63-4.11-11.78-7.1-34.1-17.01-1.5-1.12-2.89-1.87-1.22-.56-.93-.46-1.68-.75-3.09-1.31-.37.66-1.5 2.42-.74-.65-1.03-.56-1.03-.56-1.68-.47-1.12-.18-1.78.09-1.31.19-2.7.65-.85.28-1.21.37-1.12.19-1.22-.19-.56-.28 1.59 9.72.28.75.19.37.56.19 3.27-.47 4.48-1.31 9.25-2.61.38 1.77 1.03 7.76.18 1.31.38 2.8.18 2.05.47 5.52.84 7.75.94 8.04.37 4.57.19.94.18 2.15-6.16-1.68-1.69.28-3.45-.66-4.02-4.2-26.44-28.22-1.59-1.68-4.3-7.1-.84-1.4 1.68-.28-4.67-7.95-.47-2.24-.28-1.87-1.49.19.37-4.02 2.06-4.86 4.29-9.53.75-2.52-1.03-5.6-1.58-4.02-4.4-4.02-9.71-14.01.18-1.97.1-.74 13.83-16.08-.38-5.41.28-3.55-.93-7.29-.19-1.68 1.87-.19 6.17-.66 1.12-.09-1.31-5.42-.65-3.08-.19-1.03-.94-4.58-.84-5.98-.65-5.42-1.68-14.57-.28-2.71 12.14-1.5-7.47-8.87-.37-1.12 3.83-2.43 4.39-2.81-.28-.09-.1-.28v-.47l.1-.56.09-.18.38-.28.65-.1h1.4l1.12-.18.75-.29 2.15-1.49 1.96-.84 2.71-1.31.47-.37.37-.66 1.03-2.61.37-.47.66-.56 1.49-.94.56-.09.47.09.37.29.19.28 6.82-3.18 3.74-3.08 1.12-1.03 2.9-3.18.28-.56 1.68-1.4.84-.94.84-1.21.56-1.21v-1.69l-.37-1.49-.38-.84-.56-.75-.37-.09-.65-.28-.29-.19-.37-.93-1.31-3.93-.28-.93-.09-.84.09-.47.75-2.43.37-2.06.1-1.58.09-.75.19-.47 1.77-2.71.38-.93.28-.94.09-.56.56-1.12.84-1.31 1.96-1.59.94-.46 2.43-.19 3.64-2.52.84-.1.28.19 3.37 4.02.37.28.56.28.66.09 1.02-.09.1-2.24-.28-1.31-1.59-6.73-.19-1.4.19-.93.37-1.31.38-.47 2.61-1.87 1.5-.09.28-.28 1.4-1.59.84-1.4.19-1.03v-1.12l.46-5.79.19-.47.84-1.78.56-1.58.84-1.41 3.93-2.99.75-.93.37-1.03.28-.37 1.59-.84 1.4-.28 2.99-.19 3.08-.09 1.5.18.65.19 3.65 2.8.46.28.56.38.47.65.94 1.22.46.93.66.09.84-.56 1.12-.37.47.09.74.1 1.12.09.47-.09 1.78-.66.28-.28.09-.28-.09-.93-.75-4.95.09-.94.47-1.03.37-.37.66-.47 2.52-.37.56.09 2.99-.47.47-.46.19-.38.65-.65.84-.65 1.5-.38.65-.18.47-.19.65-.38.19.1.09.47-.47.74.1.28.09.1h.47l.47-.28h.28l.46.56.66.18.56-.28.37-.28.19-.37.09-.75.47-.65.84-.47.37-.09 1.4-1.12 1.03-.56 1.31-.19.56-.28.28-.28.75-1.31.75-.65 3.36-1.78 2.24-.93.75-.94 5.33-9.34 1.02-1.31 1.31-1.31 1.68-1.12 1.69-.65.93-.19.75.09.84.19v-1.31l.28-.84.37-.47.1-.37-.1-2.15-.84-4.11v-1.4l.75-3.93.47-.93.56-.84 1.03.19 4.29-9.44.47.37.94 1.69.37.28.37.09.47-.09.56.28.47.74.18.28.47-.09.19-.19v-.56l-.38-.93.1-.38.19-.18 2.33-.94.66-.46.65-.66 1.03-1.49.65-.66 2.8-1.96.38-.75.28-.37 1.31-.75 1.3-1.03.38-.46.47-.28.84-.28h.37l.19-.28.09-.75.19-.56 1.03-2.62v-.74l-.38-1.69v-2.8l-.09-.37-.19-.38-.37-.18h-.56l-1.22 1.3h-.18l-.66-.56-2.33-2.71 1.3-1.49.47-.37 1.22-.66.46-.37.94-1.22.37-.37 1.03-.37.84-.1 2.52-.84 1.31-.65 3.18-1.12 1.68-1.03.75-.28 2.33-.75.47-.28 1.96-1.87.38-.19h.37l.93.1 1.59-.19.28-.47.38-.46 1.58-.38.56-.46 1.41-.75.28-.28.28-1.22.37-.46.75-.19.19-.19.18-.56-.47-3.55.1-.65.09-.19.19.09 1.12 1.78.37.56.47.09.84-.28.38-.37.28-.56.37-.38.47-.09.93-.75.19-.18.18-.56.29-.28.65-.28.28-.38.09-.47v-.37l-.46-.56-.19-1.21v-.38l.37-1.59.38-.74 1.3-1.12.1-.19-.38-.84v-.66l-.65-.74v-.19l.09-.19.28-.09.1-.19-.28-1.87.09-.56.84-1.77.38-1.96.37-1.31v-.28l-.47-.75-.19-.47v-.56l.1-.37 22.89-4.86-.65-4.3-.38-1.59-.84-2.43.56-1.58.19-.19 1.12.09 4.67.75 1.03-.09 1.31-.28.28.18 1.68 2.34 1.5 2.33.37.38.28.09.47.09 1.21-.37 2.9-.19 2.71-.46h.75l1.4.46.84-.18.28-.28.28-.38.09-.65v-.94l-.09-.84-.09-.74.28-1.22 4.48-10.09.28-.84.19-.84 1.21-3.18 2.62-6.44 1.77-3.37 2.62-3.36 1.59-2.43-.66-2.8-.09-.75.09-.94.1-.46v-.94l-.38-4.11.1-.47.18-.28h1.03l.28-.09.28-.28.19-.93-.28-1.03-.28-.38-.19-.65.1-.37.28-.19.09-.09.56.09 1.03.56.56.09 2.05.47.56.19h.38l.75-.75.18.09.28.19.38 1.31 2.71-.66 4.01-.46h1.87l.94-.56h2.43l1.77.18.28-.18.94-1.4.56-.47.46-.75.28-.19.75-.37.38-.37.28-.56-.19-.28-.65-.28-.19-.19v-.56l.09-.38.56-.56v-.46l.56-.38.1-.28-.1-.46v-.19l.56-.1v-.28l-.28-.56-.09-.37.28-.28v-.47l-.28-.37v-.19l.75-1.12v-1.49l.18-1.22.19-.37.56-.66v-.28l-.37-2.24v-.75l.28-1.58.65-1.41.56-.74 11.12-17.57 13.46-1.4 7.66-.94 8.41-.74-4.67-5.33-2.71.28-10-3.27-1.5-12.24-2.24-18.78-1.49-12.61 26.72-15.79.37.28 3.83 1.77.47.19 5.89 3.64 4.2 1.78.75.75.56 1.02.28 1.13.38 2.33.46 2.06.28.84.66.65-4.68 24.29 1.69 13.37-8.79.56-1.77 5.23-.75.93-4.58 6.64 6.82-.75 6.64-.75 1.59-.18 2.24-.19 1.77-.19 9.25-1.03 8.69-.93 5.14-.47 6.45-.65 16.16-1.78 1.03-.09.47-.09 17.38-1.87 31.39-3.37 6.83-.84 5.41-5.88 4.02-4.39 3.46-3.93 2.9-3.55 5.32-7.1 2.24-3.08 2.25-3.55 3.17-4.4 11.4-17 16.26-24.01 11.96-17.76 1.96 15.05 1.87 17.1 2.15 15.51 1.03 7.66 3.64 30.74 1.5-.1 1.4-.18 14.76-1.78 12.06-1.12 23.45-2.43 29.06-3.36 6.45-.56 11.58-1.4 8.6-.85 25.6-3.08 7.75-.84 5.98-.75 21.78-2.43 12.7-1.49 7.38-.84 3-.38 24.2-2.71 1.58-.28 10-1.02 8.6-.94 26.25-2.99 11.59-1.21 17.29-2.15 12.89-1.5 3.74-.46 9.15-1.22 18.79-2.43.65 1.78 4.11 8.13 3.27 7 .66 1.5 3.55 9.81 3.83 11.49 3.45 9.53 4.02 10.93-68.96 6.92-7.47 2.61v.66l-.19.65-1.02.84-.28.19h-.29l-.18-.19-.19-.84-.09-.37-.38-.1h-.37l-.47.28-.09.29.19.93.28.56.37.28.19.28.09.65v1.22l-.19.84-.18.75.28 1.77-.28.1-.56-.19-1.12-.65-1.69-2.06-1.02-.84-.57-1.22-.09-.46-.19-.19h-.37l-.56.47-1.78 2.61-1.12 2.81h-.28l-.65-.47-.47-.19-.47.1-.09.09v.56l.47.65.37.66.56.47.56.28 2.06.65.28.37v.75l-.56.09-2.06-.09h-.28l-.18.19-.85 1.59-.09.56.09.56.57.28.74-.1.56-.18.84-.19.38.37.37 1.41.47.74.75 1.03 1.21 2.43.19 1.12-.1.38-.18.28-.84.46-.38.1-1.49-.19h-.56l-.47.28-.09.19v.28l.09.46.37.47.66.47.09.47-1.68 6.26V969l-.19.09h-.28l-.28-.18 2.81 21.77 6.91 55.78 11.68-1.5 7.76-.93 61.85-7.29 15.79-1.78 8.04-1.02.93 5.32.19 1.78.19.93 2.42 20.93 4.77 37.94 1.78 15.41 1.86 16.54 1.59 12.71 1.12 8.59 1.59 13.08 1.5 11.68 2.24 19.25-9.72 1.03-71.85 8.78-4.11.56-25.7 3.27-41.58 5.14-20.37 2.52-27.75 3.37-11.12 1.3-5.7.66 5.42 46.72 2.53 23.63.65 6.83 2.62 22.51.93 9.25 2.43 23.17.84 5.14 1.03 9.25.56 4.21 1.59 10.28-8.97.93-3.65.37-10.46 1.12-.47.38-.37.75-.19 1.86-.09 1.41-2.25.28-26.53 2.99 1.4 13.64.75 5.42 2.15 18.5 2.24 19.8.19 1.31-.56 12.24.37.1h.56l3.92 39.52.38 5.04 2.89 44.29.85 17.47-1.41.1-4.39-1.41-.75-.56-1.02-.93-.56-1.12-.19-1.78-.19-.56-.46-.93-1.13-.94-.84 1.41-.28 1.12.1 1.21-.19.75-.37.56-1.13 3.55-.37 2.71-.75 1.77-.46.57-.85.18-2.98 1.5-1.87.74-1.22 1.22-.65.93-1.68 3.37-1.41 1.49-.46.66-.19.56-.19 5.04.1.84-.1 1.4-.37.75-1.22.84-.28.56-2.14 4.58-.19.47 10.37-2.52 11.31-2.34 7.19-1.31 10-1.4 9.25-.93 9.81-.94 12.24-.18 4.58-.1 14.95-.18 7.38.46 36.44-.09 32.98.47 10.28.28 5.7-.1 12.15-.56 11.4-.28 3.18-.28 8.78-.93 14.76-1.68 6.07-.75.1.75 4.48 27.37-12.61 1.4-15.98 1.97-44.66 5.23 1.31 10.28 1.4 11.02 1.31 10.84 6.54 56.71 4.48 35.13 1.22 11.03 3.73 29.99 1.78 15.79 1.4 10.19 2.06 15.97 3.92 32.24.93 8.5 48.03-5.79 31.96-3.83 63.35-7.76 3.36-.47.56 3.93 5.24 39.24 2.89 20.84 1.31 10.18 4.95 37.19 1.59 13.64 11.31-1.78 24.48-3.17 7.94-.94 12.71-1.4 8.87-1.21 7.29-.94-4.67-37.56-3.36-27.65-4.21-33.45-3.27-25.6 145.76-17.57 3.83 30.27 4.02 33.36 2.9 22.89 2.8 21.96 3.83 32.88 3.37 27.38 3.17 25.7 1.4 12.24 7.95 66.43.28 2.52-1.96 1.12-8.41 4.49-10.94 5.69-10.09 5.24-2.24.84-1.31.28-20.55 2.52-4.86.65-7.01.94-8.32 1.12h-.28l-8.31 1.03-4.02.56-11.12 1.4-21.68 3.18-22.61 2.52.47 4.3 1.31 10.65-5.89 7.29 6.63-.94 1.59 12.52 2.52 21.96 7.11 61.57 5.23 46.35 4.95 42.32-5.79.56-10.75 1.4-9.53 1.4-10.65 1.22-2.24.37-33.83 3.93-28.31 3.73-11.77 1.5-11.68 1.31-16.26 2.05-18.03 2.15-17.29 2.15-42.33 5.05-.74-6.17-1.78-16.16-5.23-44.29-.75-6.54-2.62-22.89-.37-4.02-.28-2.62-6.91-61.2-4.96-42.32-16.16 2.05-20.46 2.25-1.5-13.74-8.31-66.24-.28-2.53-1.13-9.53-.37-3.08-.75-6.91-2.15-18.5-1.49-12.8-1.96-17.94-1.78-13.64-18.03 2.14-33.83 3.65-15.04 1.87-12.89 1.49-30.09 3.27-3.46-28.4-1.59-13.27-14.01 1.4-26.45 3.46-10.27.84-40.84 4.58-1.49.47-.65.65-.19.19-.38.84-.28 1.77 5.14 50.08.28 4.49v.37l-.09 1.12-.75 1.68-11.12 15.7-5.14 6.73-.28.19-1.68 1.12-4.2.84-18.13 2.24-25.6 2.9-11.59 1.02-5.04.57 1.4 12.33 2.15 17.94 1.87 15.04.18 1.12 2.53 20.93.65 6.17 2.15 18.78 2.05 14.95 2.06 17.1 1.68 10.83 2.62 20.93 1.12 9.16 4.86-.56 27.38-3.08h.84l.74.28.75.37.94.56.93.75 2.34 2.8 6.82 9.72 4.3 4.67 1.58 1.77 10.84 11.12 9.16 9.91 5.42 5.6 4.11 4.86 3.18 4.3 2.05 3.18 1.31 2.05 6.54 10.19 1.31 1.58.65.66 1.03.56.94.28 1.02.09 2.43-.09 16.82-1.78 3.83 33.73 1.68 13.08-34.75 5.14-32.52 3.37 1.96 20.18-24.01 2.33.09-1.58-.19-1.03-.84-2.52-.46-3.55.09-.94.47-.93 2.99-4.21.74-.65.85-.38.93-.65 1.21-1.4.75-1.5.56-1.77.66-2.15.74-4.86-.09-.47-.28-.56-.28-.28-.37-.18-1.03.18-.37.38-1.41 1.87-.65.56-2.71 1.3-1.59.19-3.74-.09-1.96-.28h-.28l-4.39-1.22-3.55-1.21-3.36-2.06-1.22-.84-2.15-2.43-3.08-4.39-2.9-3.55-1.77-1.68-.94-.56-2.71-1.78-2.05-.37-1.31-.66-1.5-.28-2.24-.09-1.59-.75-1.12-.84-1.4-.18-2.71-.19-3.55-1.12-2.34-.28-2.99.65-2.99.47-5.88 1.96-1.03.75-.75.93-1.31 2.15-2.05 3.93-1.03 3.64-.93 4.86-.28 2.89.37 3.37-.09 2.05-.38 1.22.1.75.37.84 2.15.09 1.03 1.22.28 2.33v1.4l-.56 1.4-.56 1.31-1.03 2.9-.19 2.15-.65 1.96-1.5 1.96-5.42 5.33-2.71 2.24-2.71 1.78-1.4 1.12-1.59.37-1.4.47-2.24 1.31-1.78.84-1.12.74-1.49 2.06-.75.37-.65.56-.66 1.31-1.96 1.22-1.31.65-2.05.65-2.34 1.13-2.15.28-1.49-.1-1.41.28-.74.84-.94.66-1.96.37-2.71 1.12-5.23 2.99-3.74 2.24-3.83 2.99-2.43 2.15-1.5 1.87-.93 1.4-.75 1.59-3.36 9.63-.94 2.71-.37 1.58-.19 1.31.1.84.09.66.37.46 1.22 1.13.37.46.19.75v.65l-.09.94-.66 1.4-.37 1.12-.37 1.96-.29.75-2.52 3.74-.84 1.03-.93.65-1.12.37-1.22.28-.56.56-4.2 6.73-1.13 2.34-.74 2.52-.47 1.31-2.06 4.02-2.89 3.55-.75.56-.56.74-.47.75-.75 2.43-.84 1.59-.18.65-.19.75.09 1.96.47 2.34.47.84.56.09 1.96-.28 1.03.28-6.73 1.97z" stroke-linejoin="round"/></defs><use xlink:href="#c" fill="#9dc8ca" stroke="#9dd7f0" stroke-width="5.76"/><defs><path id="d" d="M623.23 2845.43l-19.72 2.24-23.45 2.9-12.52 1.21-.56-5.42-3.74-36.44-4.11-37.37-.47-3.27-1.21-11.96-4.67-40.08-3.55-29.43-.38-.66-.75-.37-19.9-5.7-4.02-1.5-4.01-1.77-3.27-1.59-3.09-1.87-1.21-1.21-1.03-1.5-.19-.46-.84-2.53-.46-2.15-.66-4.85-2.24-22.24.93-.84 1.87-2.06 2.62-3.36 2.43-3.93 3.45-7 2.99-4.86 1.69-2.15 1.21-1.31.56-.65 2.52-2.34 3.56-2.62 3.55-1.96 2.8-1.12 1.49-.65 3.46-1.03 8.5-1.21 11.96-1.03 14.21-1.59 21.49-2.43 37.19-3.83-11.5-4.77.1-.28v-.37l-.66-1.59v-1.03l.19-.46.09-.56-.28-.56-.09-1.03.09-.38.47-.56 1.12-.84 2.34-1.21.56-.1.37.1.28.09 1.03.56.93.56.47-.18 1.31-1.97.93-1.02 1.03-.47.19-.38 1.4-.46h.37l.56.09.84.84 4.4 2.15.74.09.28-.28.19-.46.09-.47.28-.19.57-.09.09-.94.09-.28.28-.37 1.87-1.49 1.5-1.59 1.77-2.15 1.78-2.99.84-1.78 17.75-2.15.84-2.05 1.68-2.06.75-.84.66-.37.56-.28 5.88-.84 9.53-1.03 3.37-.56 3.64 10.65.37 1.31.56 4.2 1.41 13.92-24.76 2.71-16.08 1.87-9.99 1.03 3.83 34.38.46 2.71.75 3.74.84 1.31 5.05 4.48 1.68 1.59 4.49 7.01 2.14 3.92.38 1.78.37 2.9 2.24 9.81 82.42.09 15.13-.65-3.17-30.28-1.5-14.85-4.02-40.27-5.23.56-11.96 1.31-14.29 19.99-1.59-2.99-1.31-1.77-1.4-1.13-1.96-1.02-4.96-1.87-2.99-1.22-.74-.74-.28-.56-.29-.66-.56-4.67 10.56-1.12-.28-2.52-4.95-46.63-1.03-10.84 6.36-.37 2.24-.19 4.67.47-.37 5.89 10.74 5.04-.47-5.04v-2.15l.1-.94.75-4.2 1.77-5.51 1.5-3.74.56-.75.74-1.03.66-.46 12.99-8.51.18-.18.19-.75-.37-5.51-26.07 2.8-6.17.65-12.05 1.59 3.92-7.57 2.06 1.22.74 1.03.38.18.56.1.65-.19.66-.75.18-.65.1-.75-.47-1.96-.19-2.71v-.75l.94-1.87.18-.93v-.84l.1-.47.28-.37 1.03-.19.84-1.59v-.46l-.19-.38-.28.1-.56.65-.37.37-.94-.09-2.05-1.59-.47-.09-.38.09-.28.19-.74 1.68-.38.37-.28-.18-.18-.28-.28-.84-.38-2.34-.09-.47-.38-.37-.28-1.96-.28-.66-.37-.18h-.37l-.56.09-2.62 1.12-.94.65-.46.75-.47-.09-.47-.19-.46-.37-.84-.1-.29-.46.1-.38.19-.46 2.52-3.27.75-.75.74-1.31.56-1.68.19-1.12 1.5-1.87 3.73-3.83 1.22-.94.75-.28.37-.09.28.09.56.47 2.06 2.06.74 1.21.47 1.03.75 2.71 1.03 2.15.37.37.47.47.28-.1.28-.28.18-.37v-.84l-.28-.47-1.02-1.21-.19-.75-.19-1.68-.28-1.22-.56-.74-1.77-1.31-1.31-1.4-.38-.66v-.74l.1-.29 1.03-1.3 2.8-2.81 2.33-1.86.84-.66 2.34-2.8.56-.94.38-.93.18-.93.28-5.33v-4.95l-.18-1.96-.66-4.3-1.59-7.85-2.43-10.93-.46-1.5-2.71-7.01-.47-1.77-.47-5.79-.09-10.84.37-1.5.47-.84.65-.65.28-.09.28.09.38 1.12.84.56 3.36 1.4h1.03l.47.1.47-.19.28-.38.09-.18v-.84l-.19-.75-.18-.47-.85-1.49-1.02-2.53-1.31-6.72-.56-2.15-.1-1.4v-1.03l-.37-1.4-.28-.47-.09-.93-.47-.38-.19.19-.28.37-.18.19-.1-.09-.18-.28-.19.09-.09.19.28 1.21.28.47v.47l-.1.46-.37.38-1.68 1.02-.75.38-1.5.18-1.12.47-.93.1-.94-.19-3.92-1.31-4.49-1.21-2.05-.28-1.96.28-.56.18-1.31 1.31-.94.56-1.49.56-1.22 1.03-.56.84-.74 2.52-.47 2.99-.19.47-.28.47-.37.28-.84 1.12-.56 1.12-.38.56-1.87.94-1.21 1.12-.66.37-1.02.09-.47-.09-.75-.19-1.31-1.21-1.4-2.8-4.01-6.17-1.41-1.78-1.12-.93-3.45-3.92-.94-.85-2.24-.56-1.59.1-1.87.84-1.68.93-2.62 2.81-.74 1.12-.29 2.33-.65 1.22-.28.84-.37 4.67-.28 1.49-.75 4.58-.84.56-1.96.75-.85.37h-.93l-3.64-.09-2.43-.28-1.4-.56-.56.09-.66.38-.37.37-.19.66-.19 1.3-.18 4.39v1.97l-.19.74-.37.56-1.41.38-.65-.09-.93-.38-1.03-.93-.84-1.03-2.81-2.71-2.24-2.52-1.21-2.25-5.24-4.76-1.02-.65-.47-.1-.37.1-.19.46.09.75-.09.37-.28.19-.84-.19-.19.28-.84 1.78-.65.47 4.67-9.44-4.58-2.62-3.18-3.64-1.21-9.62-1.87-16.82-30.28 2.99-2.7.46-1.03.38-.66.47-.84.84-.46.74-.66 1.5-.19.84v.93l4.49 38.87.93 10.47 1.12 11.02.19 2.53-.19 2.14-.46 1.41-.94 1.68-1.21 1.49-1.12.94-4.39 3.08-6.82 4.67-1.41.75-2.52.56-11.96 1.21-3.08.28-4.58.38-3.37.37-10.46 1.03-33.26 3.46-7.76.93-3.46.47-45.41 5.04-21.67 2.53-17.01 1.77-.28-2.52-4.77-45.41-.18-1.68-2.25-21.96-.93-8.13-.56-5.14-5.42.66-7.38.93-63.82 7.29-1.31.19-.09-1.4-.28-1.5-1.03-10.84-7.85-61.01-.46-2.99-11.31-115.3-.28-3.36-2.06-8.22-2.89-11.21-2.71-22.8-1.12-8.88-6.64-60.45-.37-4.3-5.51-51.29-5.14-48.22-16.73-157.34-.65-6.16-1.97-20.37-6.63-62.23-1.12.28-6.54.56-64.94 5.89-1.49-14.2-1.03-10.47-1.4-12.52-.47-4.48-1.12-10.37-3.18-29.62-2.34-22.61-6.54-60.08-41.48 4.11-2.24.28 5.6-20.84 1.87-6.54.84-2.52.84-2.43 5.23-13.36 3.18-8.5 7.76-20.65 1.12-3.55 1.31-4.3 4.48-13.08.37-1.31 2.25-6.35.65-1.78 1.68-4.58 3.55-11.39 3.93-11.31.84-2.43 4.67-12.05.94-2.34 1.4-2.71 2.05-3.45 2.34-3.55 2.24-3.84 1.59-2.8 2.06-3.27 2.33-3.64 1.78-2.62 4.01-5.32 3.74-4.3 19.44-22.99 2.15-.74-1.03-11.59-3.37-38.87-3.36-33.26-.28-1.22-11.49-117.07-1.4-16.07-2.43-27-8.41-92.69-3.74-36.25-5.61-32.51-5.98-57.09-4.39-41.95-4.86-45.6-9.53-90.91-7.01-65.97-.28-2.14-20.37 2.43-.93.18L74 651.14l-36.53 2.8-.38-1.49-3.36-33.26-.28-2.53-.47-3.45-1.59-15.42-2.14-20 35.69-3.64 12.24-1.31 53.17-2.89 4.39-.47-7.48-84.47-2.33-26.44-10.47-106.42.37-.47.1-.28.28-.56v-1.49l-.19-1.4-.93-7.48 2.05-.37 30.18-3.65 12.8-1.3 22.9-2.9 13.73-1.4 25.98-3.08 9.43-1.13 2.71-.09 1.22.09 2.8.56.38-1.4 2.71-5.79 5.7-15.04 2.14-5.98 17.1-1.96 11.96-1.69 11.68-1.02 16.54-1.69 8.5-.84 10.38-1.4 11.68-1.12 11.58-1.4 9.16-.84h1.03l12.98-1.31 12.99-1.49 20.84-2.99 12.99-1.59 6.82-.47 3.45-.28 23.55-2.43 34.85-3.92 23.55-2.9 15.98-1.78 31.11-3.92 23.45-3.18 23.27-2.99 11.68-1.58 7.66-1.03 15.79-1.87 11.5-1.59 11.58-1.68 9.72-1.31 7.1-1.12 4.67-.84 8.79-1.12 13.54-2.15 52.52-7.38 11.96-1.4 11.58-1.59 11.5-1.5 23.82-3.74 35.69-5.88 8.41-1.5 7.67-1.3 16.44-2.34 1.12-.19 1.22-.18-.75-8.51-20-149.58-2.15-18.6-.46-1.59 1.21-.18 3.55-.75 1.31-.19 39.81-4.86 2.05-.37 5.7-.56 24.39-2.99.47 3.83 2.89 23.36 4.11 32.23 1.03 8.69 2.8 23.36 2.62 21.59 2.71 21.58 86.8-31.77 28.97-24.85 46.06-4.86 5.8-.75 7.19-1.12 4.11-1.03 26.07-7.29 5.33 8.23.93 1.68 1.03 2.43.47 1.21 16.35 42.33 6.26 15.98 1.68 4.01 2.62 5.14 2.15 4.39-11.31 1.12-13.08 1.5-28.03 2.52-10.56 1.12-12.8 1.22-4.02.46-8.88 1.03-25.32 2.71-12.61 1.4-12.15 1.5-30.83 3.27-7.95.84-12.52 1.21-24.57 2.9-11.87 1.68-10.37 1.78 4.21 35.5 5.14 42.14 3.92 32.24 3.92 31.95 2.81 23.36 11.96-1.31 22.89-2.9 17.29-2.05 17.75-2.15 14.67-1.31 9.06-.84 12.24-1.31 12.34-1.49 23.92-2.71 26.63-3.09 12.8-1.21 37.84-4.3 25.32-2.52 22.15-2.43 23.35-2.71-3.73-31.49-1.97-16.53-.09-.38-.28-1.96-.93-10-2.62-20.83-5.51-48.4-4.49-35.32 21.31-2.43 12.24-1.49 34.76-3.93 4.67-.37 3.83-.38 8.69-1.12 9.72-1.02 12.61-1.59 35.79-4.21.84-.56.37-.56.37-.93 11.78-2.43 2.71-.38 1.4-.18 20.46.65 1.03-.28.84-.56.56.37 14.58-1.49 11.49-.84 28.5-2.24 14.95-1.31 9.72-.94 17.19-1.59 7.75 82.88 11.59-1.4 1.4 14.01 7.1 67.74 61.77-5.23 61.01-5.79 4.67 36.53 1.59 10.75 5.42 43.35.56 3.92.37 1.31 1.13 3.65 4.48 12.42 3.36 8.69 8.51 21.77 4.11 10.84 3.83 9.53-5.89.75-5.98.56-45.32 4.95-20.55 2.24-12.52 1.22-38.03 4.29-25.88 2.71-3.74.47-.93.1-2.34.28-16.82 1.96-2.52.56-1.12.37-2.62.66-7.47 2.14-1.69.47 1.22.94 2.8 2.05.75 1.03 1.68 3.83.75 1.12 2.52 2.9.84 4.39.47 1.68 3.74 7.76 2.43 4.67 1.12 2.05.28 1.12.09.75-1.21 3.74-.19 1.21v1.13l.09 1.21.38 1.68.46 1.22 1.12 2.05 1.22 2.99 1.77 4.02 1.5 5.23.28 2.62v5.79l-.28 7.01.19 1.31.28 1.21 1.4 4.02.37 1.96.47 3.55-.09 1.68.37 7.94.09 2.9.66 2.15.56 1.03 3.36 3.74.28.74v1.78l-1.03 5.32-.93 7.01-.19 2.24v2.43l.94 8.41-.19 2.62.93 7.75v5.33l.1 2.15.37 4.02 1.22 7.75.56 2.99.09 1.5-.19 1.3-.46 1.31-2.81 6.36-1.96 4.85-.28 1.22-.47 2.8-.28 5.05.1 2.71 1.4 11.49.65 3.55.94 3.83.56 2.15.09 1.4-.28 1.78-.19 1.77.28 1.78 1.22 3.64.37 2.62.1 1.68.18 3.55.19.65.93 2.62.56 2.33.29 1.97v2.43l-.1 1.86-4.86.66-87.08 10.84-1.68.18 3.55 30 2.33 20.93 3.74 29.05-8.22 1.03-34.39 3.18-11.49 1.59-11.59 1.21-11.39 1.4-26.63 2.99-15.52 1.78-14.66 1.59-7.48.93-3.92 6.45-.28.74-.1.85v2.42l.66 7.01 1.21 11.49 1.68 12.06 1.31 11.58 1.31 10.47 2.15 16.26.47 2.98.46 1.97.94 2.89.65 2.15 5.51 15.42.75 2.9 2.24 15.41.75 4.39.37 1.69.47 1.77.75 1.68.65.94 1.03.93 2.24 1.87 7.2 4.58 4.11 2.61 3.18 2.53 4.01 4.01 10.47 11.4-6.91.75-10.38 1.31-27.56 3.18-3.74.46-41.39 4.11-10.19 1.31-6.82.66-6.72.65-4.68.47-8.31.93-5.51.56-4.21.56-7.29.94-12.42.93-4.77.56-10.18.84-7.95 1.03-1.77.47-64.57 7.01-38.03 9.71-1.4.38-16.82 2.61-7.28 1.12-6.27.94-2.99.46-1.02.38-.75 6.35-.19 1.5-1.68 14.11-.84 4.39-.93 2.33-1.31 4.39-.84 5.05-.28 2.15v5.51l.56 11.68.37 5.79.37 3.46.19 1.31.56 2.33.47 1.87.75 1.87.93 2.06 1.12 2.05 1.4 2.15 2.34 2.9 1.96 2.05 1.5 1.12.93 8.97 2.24 20.19 2.71 25.13 1.69 15.88 1.3 11.22.94 8.68 3.17 28.5 1.31 11.21 1.87 16.45.47 4.86.84 7.94 3.18 27.84 1.4 13.36-51.11 4.21 2.43 10.09h.84l9.06 4.3.38 2.61.56 2.81.18.46.19.66 1.96 2.89.38 1.12.46 2.06 1.31 7.66.37 2.24-.09 1.13-.19.74-.37.38.56 4.67.19.37.37 2.8.94-.18.28-.1.46-.84.19-.18.37-.1 10.28-1.58 2.9-.47 7.57-1.03.37.19.28.28.38 1.96.84-.09.65.09.56.19.47.28 1.31 2.05 1.58-1.12.85-.37 7.56-1.12 3.18 30.92 1.12 10.56.38 3.74.09.65 1.21 11.21.47 5.14.28 2.25.19 1.68.47 3.64.37 3.93 3.83-.47 8.04-.75 19.06-1.96 4.2-.38.75 8.23.19 2.15.65 6.16.37 3.65.28 2.33.56 5.14.66 5.23.09.75 1.22 10.56 1.31 13.08.28 3.36 1.12 10.37.09 1.59-.19.47-.28.47.84.18.75.1 4.11.84 5.52 4.39 4.39 3.27 4.02-.28 7.1-1.22 4.57-.37-11.58 26.72-3.27 8.13-1.87 5.14-1.78 3.36-2.05 6.26-2.34 2.99 4.39 44.57-5.51 6.73-1.49 2.05-4.68 5.14-13.45 11.78-8.04 7-11.58 1.5-15.61 1.87-8.78 1.12-3.55.65-8.22 1.22-3.09.46-4.11.38-2.89.28 1.12 3.92 1.77 6.45.47 1.49.37 1.41 1.03 3.73 1.12 3.93 7.29 25.6 2.34 8.03.65 2.15 1.87 6.64.93 2.99 1.03 3.45.1.47.18.47.66 2.33 1.96 7.2 5.04 2.05.66-.28.56.38 1.12.46 1.03.47 1.12.38 2.05.65.85.28 1.02.37 1.12.47 1.03.65.75.57.47.37.28.28 2.15 1.96 1.21 1.12 2.34 2.24.93.85.84.46.66.28.65.28.75.1h1.59l.65-.19.84-.28 5.42-1.4 5.89-2.43.74-.37.85-.29 2.52-1.12 1.12 11.87.47 4.95.93 9.91.37 2.43.66 5.41.65 5.52 3.27 23.07 4.58 40.84.56 7.19.75 6.91.65 2.43 1.03 2.62.38 1.03 1.3 3.83-.28 3.74-.46 8.87-.28 5.98.93 7.66 16.45 21.77 5.41 7.48 9.16 11.86 4.58 6.17 2.06 2.9 2.52 3.73 1.31 2.06 2.05 3.18 2.71 4.57 1.22 2.15 1.49 2.71 1.78 3.37 1.77 3.64 2.06 4.3 1.87 4.2 1.77 4.02 7.2 17.1 4.39 10.18.93 2.25-57.27 7.28.93 8.88 1.4 12.24.38 3.08 1.21 10.37.09 1.78.1 1.03-.19 2.15-.65 3.92-1.22 5.89-1.21 8.31-.38 3.74-.09 5.04.47 3.09.46 1.87 1.59 4.86.94 2.33 1.12 2.71 1.12 2.71 3.27 7.19.84 2.9.37 1.96.47 3.09.37 2.24.66 6.91.37 1.97 1.59 14.1 2.62 22.52.56 5.23 1.77 16.26.19 1.5.28 1.96 2.34 21.3 3.36 29.34 1.49 13.36 7.48 66.43 1.12 9.63 2.06 18.03.56 4.67.74 6.54 1.78 16.82 2.8 24.2 1.03 8.59 1.4 11.96 2.43 20.65 3.37 30.09 5.23 46.34.19 1.31.65 5.88v.57l.09.56 4.21 34.75.84 7.01.93 11.12 1.59 12.15.94 6.82 5.23 47.09 1.03 9.53 3.64 30.18-29.25 3.45-16.35 1.5-23.45 2.61-21.02 2.62-33.83 3.83-5.23.66-14.2 1.4-42.05 4.39-17.66 1.77-15.42 1.69-5.14.46-15.6 1.59-10.84.94-10.74 1.21-16.17 1.68-10.84.94-2.43.37.56 5.89 7.57 66.89 1.03 9.91-2.24.19-21.49 2.61-16.17 1.68-64.94 7.29-10.46 1.03-8.88 1.12-6.54.75-12.89 1.21-26.07 2.9-12.99 1.68-9.62.93-9.91 1.13-14.76 1.21-10.09 1.12-12.62 1.87-27.19 2.9-5.51.74-11.12 1.13-8.41 1.12-2.15.28-8.41.65-10.65 1.12-17.85 2.06-14.57 1.4z" stroke-linejoin="round"/></defs><use xlink:href="#d" fill="#6bacaf" stroke="#6bb4d2" stroke-width="5.76"/><defs><path id="e" d="M1837.07 1977.43l-1.21.19-.47-3.09-.28-2.14-.74-6.26-.57-3.56-.37-3.55-.47-2.99v-.65l-.46.09-.66-.18-.28.18-.84.1-7.19.46-5.52.47-6.54 1.31-.84.09h-.47l-.74-.28-.84-.46-2.81-2.06-.37-.28-1.4 1.4-.66.47-.84.56-2.8 1.4-.84.19-3.55.65-1.5.19-3.27.37-7.66.84-5.51.56-3.93.47-4.57.47-7.95.75-14.29 1.49-7.38.65-4.21.38-14.01 1.59-3.65.37-3.83.47-1.59.18-2.61.28-7.39.94-16.07 1.77-1.96.19-15.6 1.59-7.95.93-6.72.75-3.93.37-8.41.75-7.47.56-2.34.28-3.74.38-7.38.84-6.82.75-.84-6.08-.84-1.21-2.62-22.43-1.3-11.96-.84-5.88-.29-2.99-.84-7.57-.56-4.95-1.02-10-.47-4.2-1.22-10.75-.74-8.22-.19-2.06-1.03-10.27-1.03-10.28-1.49-13.27-.47-3.64-.93-9.07-2.34-20.83-.84-7.66-.28-2.34-1.22-10-1.21-10.93-1.21-10.18-1.13-10.28-1.12-10.28-1.12-10.28-.19-1.87-.93-8.5-2.15-19.25-.56-5.6-.19-1.59-.46-3.92-.47-1.12-.93-8.04v-.56l-.75-7.76-1.03-11.49-.56-6.35-.37-4.21-1.31-12.8-2.53-21.21-.46-4.11-.66-6.54-1.02-10.18-.38-3.65-.75-6.72-1.02-10.28 7.94-6.54-1.22.09-7.1 2.71-.74-6.44-.19-2.25-.28-1.87-1.22-10.93 3.18-4.39-4.3-6.63-.46-4.58-1.03-9.25 17.56-.94 5.05-.46.75-.1 5.6-.56 1.87-.18 5.79-.56 12.71-1.22 12.71-1.4 7.1-.75.94-.09 7.66-.75 1.4-.09 15.14-1.59 3.17-2.71 9.35-8.32 3.73-3.17 6.92-5.8 2.71-2.33 6.16-5.42 14.21-12.71.84-.56.28-.28 1.4-.65-.75-.75-5.14-4.76-1.77-1.5-1.96-1.68-.94-.75-2.8-2.15-2.99-1.87 3.74-3.36-5.7-8.04 10.55-9.53-1.68-2.24 8.6-5.51 10.84.09 3.45.66 1.69-.28 6.16 1.68-.18-2.15-.19-.94-.37-4.57-.94-8.04-.84-7.75-.47-5.52-.18-2.05-.38-2.8-.18-1.31-1.03-7.76-.38-1.77-9.25 2.61-4.48 1.31-3.27.47-.56-.19-.19-.37-.28-.75-1.59-9.72.56.28 1.22.19 1.12-.19 1.21-.37.85-.28 2.7-.65 1.31-.19 1.78-.09 1.12.18 1.68.47 1.03.56 1.03.56.74.65 1.5-2.42.37-.66 3.09 1.31 1.68.75.93.46 1.22.56 2.89 1.87 1.5 1.12 34.1 17.01 11.78 7.1 6.63 4.11 14.02 8.32 8.87 5.7 3.09 1.77 4.11 2.34 1.03 10.93 1.49 14.86.09 1.21.19 2.15.28 1.68 1.4 12.89 1.87 8.97h2.8l6.08-.37 1.77-.09 7.48 17.1 16.07 7.28 1.59.56-.19.28v1.22l.19 1.59 1.12 9.71-2.43.38-14.2 2.05-.47.19.47 1.96.18.94.66 4.67.65 5.7.28 3.64.75 6.45.75 8.31.09 1.13.84.28.84 1.02.56.84 8.88 23.83.37 1.78-.09 1.49 2.34 2.71 3.08 3.27 4.3 3.64 2.24 1.59 5.05 2.9 1.77.65 5.05 1.87 4.76 1.31.75.09 1.4.28 8.6 1.78.09 1.03.19 1.3 3.46-.56.65-.84.47-.84 42.98-8.78.37-.66 1.31-.28 11.77-1.02 4.3-1.03 9.44 11.87 3.46 4.48 4.01 5.23 1.12 1.68.57 1.5.18.65.38 3.18.18 1.03 2.43-.47 32.61-6.45 1.31-.93.56 5.14 1.12 9.9.09.94.1.93.47 3.83 1.58 13.08 1.31 10.56 1.31 11.68 1.4 11.87 1.68 16.63.47 4.48.28 2.99.09.38 1.22 10.93h.56l8.5-1.03 1.12-.09 6.82-1.03 2.15-.19h1.5l1.96.19 1.03.28 1.31.65.84.47.75.56.56.47.65.65 1.12 1.12.47.56.56.47.75.84.46.56 5.42 5.33 4.86 4.67 10.93 10.37-4.2 5.14-.93.75-.75.37-1.4.37-9.25 1.31-14.86 1.5.93 9.06.19 1.31.47 4.02 2.24 19.99.37 5.7-.18 2.43-.38 2.99-1.12 4.48-.18 2.71v1.87l.65 2.9 1.4 3.18 1.12 1.68 1.22 1.31 1.12.84.28.18 1.87 1.12 2.15.66 1.86.19 10.66-.85 1.87.1 1.68.37 1.59.75 1.49.93 2.15 1.69 2.24 2.24 5.89 4.76 3.92 3.46 6.64 6.07 1.49-2.15 1.31-1.96-.09 2.34-.19 17.56.09 5.7v7.57l-.09 3.18-.56 6.91-.37 2.06-.38 1.12-1.12 2.61-.84 1.41-.93 1.21-.85.93-1.58 1.31-2.62 2.15-10.65 4.86-2.62 1.68-4.67 3.93-1.78 1.96-1.58 2.33-.75 1.31-.56 1.22-.66 1.77-.56 1.96-.37 1.69-.28 3.08-5.98.65-2.15.38-11.4 1.12h-.47l-.46.09-2.43.28-12.99 1.4-20.74 2.15h-.47l-17.85 1.96-6.72.57-11.87 1.21-2.8.37-16.26 1.69-16.17 1.77-2.8.28-11.59 1.22-7.28.84-16.08 1.77-1.3-.37-9.16.93h-.66l-2.52-.18-2.61-.56-2.71-1.03-3.18-1.4-2.71-1.22-.09.38-.1.46-1.49 4.11-.28.66-.38.56-.56.37-.46.19-1.03.37-6.26.75-4.77.56-2.05.19-8.97.84h-5.61v1.12l-1.12.75-.28.28h-.75l-6.07 4.39-2.71 2.99-.66 1.12-.37 1.12-.37 1.22-.1 1.12-.09.93.37 4.21 2.25 1.58.18 1.87-.18.38-.28.46-.85.47z" stroke-linejoin="round"/></defs><use xlink:href="#e" fill="#6bacaf" stroke="#6bb4d2" stroke-width="5.76"/><defs><path id="f" d="M1604.88 2021.44l-18.12-3.37-5.98-13.08-4.49-3.27-4.76-18.87-1.97.19-16.35 1.58-19.25 2.34-11.77 1.22-12.43 1.4-10.56 1.02-9.25 1.03-2.8.28-6.17.66-3.55.37-17.66 1.96-12.42 1.22-11.22 1.03-6.44.37-7.29.84-29.99 2.62-1.87-10.09-.94-7.48-.93-11.96-2.62 2.71-1.96 1.96-6.07 5.52-8.41 7.66-6.36 6.35-1.49 1.4-3.93 4.58-3.55 3.74-1.77 1.87-2.15 2.43-13.64 12.89-1.03-2.34-2.43-5.04-.65-1.68-.47-2.06-.09-2.71-62.89 13.46-3.64.37-8.51-5.14-10.09.19-10.09 1.02-5.7.85-.93-2.25-4.39-10.18-7.2-17.1-1.77-4.02-1.87-4.2-2.06-4.3-1.77-3.64-1.78-3.37-1.49-2.71-1.22-2.15-2.71-4.57-2.05-3.18-1.31-2.06-2.52-3.73-2.06-2.9-4.58-6.17-9.16-11.86-5.41-7.48-16.45-21.77-.93-7.66.28-5.98.46-8.87.28-3.74-1.3-3.83-.38-1.03-1.03-2.62-.65-2.43-.75-6.91-.56-7.19-4.58-40.84-3.27-23.07-.65-5.52-.66-5.41-.37-2.43-.93-9.91-.47-4.95-1.12-11.87-.56-5.04-.84-8.32-.1-1.4-.46-4.48 4.39-.47 1.12-.09 1.68-.19 1.4-.19 1.59-.18 1.59-.19 1.68-.1 1.87-.18 1.5-.1 1.58.19h1.59l1.5-.19 1.59-.09 1.68-.19 1.77-.18.75-.1.93-.46 1.41-.19 1.49-.09 1.78-.28 2.24-.28-.09 1.58v.85l.18 1.77.84 6.54 8.97-2.43 18.78-5.04 41.21-11.03-.28-2.05v-.85l-.84-9.9-5.79 1.31-4.58 1.21-2.99.66-.75.09-.75.47-.75.75-.93.74-.56.38h-.65l-.47-.1-.28-.09-.19-.47-.19-.65-1.77-12.8-1.96-11.87-.38-3.08-.46-4.02 2.99-3.27 3.36.28 6.26.47 10.84.75 15.7 1.12 11.77.84 14.39 1.03 13.73.93 17.29 1.49h5.79l4.96-.28 3.92-.46 3.36-.56 6.08-1.59 2.52-.75 4.48-1.77 2.99-1.31 1.03-.47 1.59-.84 2.24-1.12 2.34-1.4 3.36-2.15 2.25-1.68 2.33-1.87 1.87-1.5 1.5-1.31 1.86-1.77 1.59-1.59 2.99-3.08 2.81-3.46 2.05-2.8 1.78-2.53 2.24-3.45-3.55-1.78-2.52-.93.46-.47.66-.65 2.43-3.09 1.4-2.33.09-.84.09-1.31-.09-1.03-1.4-3.83 1.03-1.4.37-.66 1.96-5.69.47-.94 1.03-1.87 1.68-1.96 2.15-1.96 5.79-4.02 4.86-3.64 2.06-1.5 1.77-1.59 2.71-3.27.75-1.21 6.54-11.4 1.59-2.8.84-1.97.37-1.12.38-1.77.37-2.43.37-1.4-.93-.66-.37-.56-.19-.65-.19-1.68.1-1.31.28-.84-.47-1.03-.19-.75-.18-2.43-.28-.74-.29-.38-.28-.19-.18-.18-.94-.1-4.58.85-4.2.65-.56-4.77-.09-1.68-.75-6.26-.09-.65.09-.56.09-.75v-.28l-.28-1.68-.37-1.31 2.24-1.31 5.05-2.8 2.33-1.31 1.5-.84 8.03-4.48 9.07-5.05 8.78-4.95 2.43-1.4 1.4-.66 2.24-1.03 2.62-1.02 2.24-2.15 4.86-1.78 2.43-2.43 1.49-1.12 2.53-1.77 6.35-4.39.28-.19.09-.19 4.02-2.43 1.31-.56 1.03-.09 1.77.56.47-.47 2.62-3.45.65-.85.56-.56.56-.46 2.62-1.97 2.71-1.96 1.12-1.12.28-.37 2.62-3.55.74-.1 2.25-.28-.38 6.08-2.99 7.56-2.99 7.2-.18.56-.1.47-.18.74-.1.84-.09.75.09.66.19 1.02.09.66.28.65.38.84 5.79 9.91 1.68 2.8.47.84.37.75.19.56.19.47.09.56.09.65v.65l-.09.66-.75 6.54 9.63-1.5 5.51-.84 6.82-.18.09.93 9.81-1.21 3.74-.47 9.25-1.03 7.01-.84 7.47-.65 5.24-.75 1.03 9.25.46 4.58 4.3 6.63-3.18 4.39 1.22 10.93.28 1.87.19 2.25.74 6.44 7.1-2.71 1.22-.09-7.94 6.54 1.02 10.28.75 6.72.38 3.65 1.02 10.18.66 6.54.46 4.11 2.53 21.21 1.31 12.8.37 4.21.56 6.35 1.03 11.49.75 7.76v.56l.93 8.04.47 1.12.46 3.92.19 1.59.56 5.6 2.15 19.25.93 8.5.19 1.87 1.12 10.28 1.12 10.28 1.13 10.28 1.21 10.18 1.21 10.93 1.22 10 .28 2.34.84 7.66 2.34 20.83.93 9.07.47 3.64 1.49 13.27 1.03 10.28 1.03 10.27.19 2.06.74 8.22 1.22 10.75.47 4.2 1.02 10 .56 4.95.84 7.57.29 2.99.84 5.88 1.3 11.96 2.62 22.43.84 1.21.84 6.08-.37.09h-.47l-.47.09.19 1.31 1.31 10.84.28 2.05.19 1.5.09.75-4.3.56-.47.28-.09.56v.75l.75 3.73.19 1.87v1.12l-.47 3.37-.28 4.39-.19.65-.47.75-1.4 2.52-1.31.47-.65.19-.65.37-.28.75-.1.65v.94l.28 2.24z" stroke-linejoin="round"/></defs><use xlink:href="#f" fill="#09757a" stroke="#097d9b" stroke-width="5.76"/><defs><path id="g" d="M1661.69 1523.81l-3.17 2.71-15.14 1.59-1.4.09-7.66.75-.94.09-7.1.75-12.71 1.4-12.71 1.22-5.79.56-1.87.18-5.6.56-.75.1-5.05.46-17.56.94-5.24.75-7.47.65-7.01.84-9.25 1.03-3.74.47-9.81 1.21-.09-.93-6.82.18-5.51.84-9.63 1.5.75-6.54.09-.66v-.65l-.09-.65-.09-.56-.19-.47-.19-.56-.37-.75-.47-.84-1.68-2.8-5.79-9.91-.38-.84-.28-.65-.09-.66-.19-1.02-.09-.66.09-.75.1-.84.18-.74.1-.47.18-.56 2.99-7.2 2.99-7.56.38-6.08-2.25.28-.74.1-7.67.84-5.04-5.05-12.15-11.86 5.89-.66 5.14-.75 5.79-.74 10-1.4 5.88-.94.85-.09 8.31-1.4 3.93-.66 5.51-6.44 1.49-1.69.66-.65.56-.93.47-.85.28-.65.28-1.4h-3.18l-.84-.09-1.96-.1-3.93-.28-5.42-.47-2.15-.09-3.64-.37-7.85-.66-2.15-.18-7.1-.56-2.71-.28h-.19l-1.68-.1-7.57-.65-1.3-.1-2.99-19.99-2.06-16.07 8.41-1.03-.65-5.79-2.25-16.26-.28-1.59-1.21-2.52-2.06-3.74-3.36-6.63-1.12-2.24-3.27-5.98-.75-1.5-1.59-2.99-1.4-2.71-2.24-4.11-2.99-5.7-.56.19-.56-.09-.85-.19-3.55-1.03-4.39-1.4-13.36-4.3-21.4-6.73-1.02-.37.46-1.31.94-1.59 2.15-2.61.37-.66.65-2.05.1-.84v-1.5l-.47-4.58-.75-5.6-.09-2.43.19-1.31.56-1.77.84-1.59 1.49-2.34-.09-1.31-.65-1.21-.28-1.03-.66-4.48-.09-.38-.28-.37-.38-.1h-.56l-5.42.85-12.24-11.59 11.31.47 2.71.09 10.65.09 6.17.28 4.3.1 1.96.18 1.4.28 1.87.66.84.19 1.49.18-.56-4.58-7-5.41 6.72 2.61-.28-2.05-4.11-35.51-1.68-12.52-2.15-19.25-11.4 1.22-19.25 1.68-24.66 3.46-2.25-.28 1.22-7.48.75-10.28-1.87-.09h-.94l-4.39-.47-5.42-.56-9.34-1.49-13.27-3.37-1.96-.46-3.65-1.03-11.4-4.49-5.32-2.33-6.92-3.55-3.36-1.96-7.94-4.86-1.96-1.31 4.95-.56 3.55-.47 7.38-.93 3.27-.38 18.97-2.43 12.05-1.49 21.02-2.24 34.2-4.3 21.96-2.99 6.54-.47 4.58-.56 7.29-.65 28.12-3.46 7.2 33.64 1.12-.19 20.37-2.43 4.3-.47 5.98-.65 15.88-1.87-.47-1.59-.18-1.77-1.31-13.18-2.15-17.47 11.12-1.03 10.18-.74 10.56-.94 13.64-1.12 24.02-1.96 2.61-.19 8.6-.75 20.46-2.05 2.34-.19 3.46-.37 2.05-.19 1.68-.19 2.9-.28 8.88-.65h1.86l1.5-.09 2.71 18.59 2.15 5.33 7.66 8.12 1.4 2.81.75 4.01.75 11.78-.28 12.42.28 20.56.84 7.19.56 3.74.84 3.36 3.92 8.69 4.11 14.02 4.4 12.43 1.87 7.66 1.3 7.94.94 13.45v1.03l.09.94.19 1.68.93 7.29-.28 3.55.38 5.41-13.83 16.08-.1.74-.18 1.97 9.71 14.01 4.4 4.02 1.58 4.02 1.03 5.6-.75 2.52-4.29 9.53-2.06 4.86-.37 4.02 1.49-.19.28 1.87.47 2.24 4.67 7.95-1.68.28.84 1.4 4.3 7.1 1.59 1.68 26.44 28.22 4.02 4.2-10.84-.09-8.6 5.51 1.68 2.24-10.55 9.53 5.7 8.04-3.74 3.36 2.99 1.87 2.8 2.15.94.75 1.96 1.68 1.77 1.5 5.14 4.76.75.75-1.4.65-.28.28-.84.56-14.21 12.71-6.16 5.42-2.71 2.33-6.92 5.8-3.73 3.17-9.35 8.32z" stroke-linejoin="round"/></defs><use xlink:href="#g" fill="#004249" stroke="#00465f" stroke-width="5.76"/></svg>