<svg width="384" height="5.17in" viewBox="0 0 2880 3720" xmlns="http://www.w3.org/2000/svg" xmlns:xlink="http://www.w3.org/1999/xlink"><path fill="#fff" d="M0 0h2880v3720H0z"/><defs><path id="a" d="M2538.24 3650.13l-1.17.93-1.28.93-2.44 1.28-4.18 1.98-3.02 1.39-2.1 1.4-2.09 1.51-1.86 1.74-1.74 1.98-1.4 2.09-2.32 4.19-2.68 4.88-2.55 4.88-2.56 4.3-1.28-.46-1.28-.58-1.74-.82-2.44-1.39-3.72-2.09-2.56-1.51-2.79-1.52-3.84-2.21-5.34-3.13-4.77-2.68-4.07-2.32-3.37-2.1-1.74-1.16-3.03-1.63-3.02-1.85-2.32-1.52-2.09-1.16-1.05-.7-1.16-.81-1.17-.7-.58-.58-.46-.46-.58-.82-.47-.93-.46-1.28-.82-2.09-.69-1.51-1.05-2.21-1.28-2.21-1.05-1.74-1.62-2.09-1.98-2.44-2.09-2.33-1.63-1.63-2.44-1.97-1.74-1.28-2.1-1.28-2.9-1.63-3.03-1.51-2.79-1.28-2.55-1.28-2.33-1.04-1.62-.93-2.33-1.05-1.63-.93-1.62-1.05-1.98-1.16-2.21-1.51-1.74-1.16-2.68-1.75-1.74-.93-3.14-1.86-2.32-1.39-15-8.37-6.51-3.95-4.18-2.44-4.42-2.68-4.19-2.32-7.32-3.84-4.65-2.21-4.53-2.09-3.26-1.28-4.53-1.74-5.81-1.86-6.75-2.1-5-1.39-4.18-1.16-3.02-.93-2.21-.7-2.09-.47-1.4-.11-10.11.93-6.16.11-3.26-.35-3.72-1.04-3.25-1.63-.35-.46-11.16-9.19-3.95-3.49-2.44 2.79-24.07 2.68-23.25 2.21-15.23 1.97-7.2 2.1-16.39 4.41-9.19 2.68-7.44 2.21-30.57 8.95-48.36 12.09-24.53 5.58-9.18 1.97-15.11 3.38-48.94 11.62-33.6 7.21-18.01.23-13.6-.58h-1.75l-6.39-.81-2.91-1.17-22.09-11.74-25.57-14.76-16.74-8.37-11.27-5.93-2.68-1.16-27.78-8.14-14.07-4.42 5.47-27.2 1.74-9.65 2.56-14.3 1.86-15.81.23-3.95.81-12.79-.11-15.69-.47-8.26-1.62-14.99-1.4-7.56-3.25-19.18-7.79-38.6-3.37-16.97-8.61-39.52-6.97-35.69-3.49-17.55-17.67-81.96-.93-4.3-1.63-2.68-.81-1.39-1.05-1.16-.93-1.28-1.04-1.05-1.4-1.28-1.62-1.28-1.4-.81-1.74-.93-1.4-.7-1.39-.46-.58-.24-.82-.11-3.37-.58-4.3 1.39-13.02 4.88-7.09 2.68-11.04 4.3-4.07 1.63-5 2.09-5.81 2.32-1.98.82-1.98.7 2.33-15.7 3.49-24.88 1.51-9.88 2.09-15.11 1.28-10-.58-.46-1.86-1.51-1.86-1.4-1.16-.46-1.63-.35 3.83-28.95.59-10.23-1.05-5.69-2.67-4.42-12.33-12.32-17.2-15.58-8.37-8.14-5.81-6.86-6.98-11.04-7.55-12.67-5.12-11.39-2.56-12.21-.93-3.14-.81-2.91-.81-2.2-.93-2.21-1.17-2.56.12-3.72v-.58l-2.32-21.39-3.03-6.16-4.53-10.23.58-5.58.12-2.79.23-2.21v-2.09l-.12-1.63-.23-1.63-.23-1.4-.47-1.86-.69-1.85-.7-1.4-1.28-2.21-.81-1.16-1.63-1.86-1.63-1.51-2.32-1.63-1.98-1.05-2.33-.58-2.9-.46-2.68-.23-2.44-.35-2.09-.35-3.25-.7-2.33-.47-4.3-.34-4.42-.35-5.11-.82-4.07-.46-3.26-.23-2.55-.35-2.21-.35-3.84-.93-3.14-.58-3.02-.93-3.14-1.16-2.55-.94-2.33-.81-3.02-1.04-3.49-1.05-2.44-.58-1.86-.35-1.98-.23-1.97-.24-1.86-.11-1.75-.12-1.74.12h-3.49l-1.74-.24-1.86-.23-1.98-.46-1.86-.7-2.32-1.16-2.56-1.51-3.25-2.45-3.96-3.02-1.62-1.28-1.52-1.04-1.27-.82-1.52-.69-1.04-.35-1.16-.47-1.75-.46-2.09-.35-2.09-.23-3.72-.24h-4.54l-3.83.12-3.02.12-3.84.35.35-.82.7-1.51.46-1.63.7-1.74.81-2.44 1.51-3.26 1.4-3.02 1.97-3.84 1.28-2.44 1.05-1.86 1.51-2.79 1.86-2.9 1.98-3.03 1.97-2.44 2.56-2.79 2.56-2.9 4.18-4.77 2.33-2.67 1.86-2.44 1.62-2.1 1.75-3.02 3.02-5.7 2.09-3.72 1.17-2.9.81-2.33 1.28-4.3 1.16-5.11 1.28-5.58 1.05-4.54 2.09-7.79 1.63-6.27 1.27-4.89 1.17-4.53.93-2.91.93-2.32 1.16-2.68 1.16-2.2 1.86-3.26 1.86-3.02 3.02-4.54 2.33-3.6 2.67-4.3 2.33-3.84 1.86-2.67 1.97-2.79 2.1-2.56 2.32-2.44 2.91-2.32 3.14-2.21 1.27-1.16.93-1.17.59-.93.58-1.28.23-.81.23-.93-1.16-.12-1.98-.23-4.65-.11h-1.97l-3.37.46-2.56.35-1.75.46-2.2.47-3.26.81-3.72 1.05-4.42 1.16-4.65 1.16-9.64 2.56-3.61.93-4.42 1.16-8.6 2.21-6.16 1.63-8.6 2.09-4.42 1.16-1.74.47-3.26.93-9.3 2.79-8.02 2.33-5.46 1.51-3.84 1.04-5.11 1.28-4.65 1.05-3.37.58-3.84.35-3.84.35-4.3.11h-3.83l-3.49-.11-3.49-.24-3.48-.34-3.96-.47-9.88-1.28-2.21-.35-6.39-.93-7.32-1.16-3.38-.47-1.97-.23-4.07-.46-2.56-.12-1.97-.11h-1.51l-1.63.11-1.86.23-3.26.58-2.44.59-2.67.69-2.21.59-2.21.81-7.44 2.67-4.3 1.51-4.77 1.75-3.83 1.28-1.75.58-1.04.46-1.05.47-1.39.58-1.28.58-1.86.46-2.21.59-2.21.46-1.74.35-2.44.23-2.21.12h-2.1l-1.86-.12h-1.51l-1.62-.23-.93-4.77-4.77-24.64-8.02 1.05-8.37-24.42 4.65-2.56-5.93-14.64-13.02-7.21-15.92-3.37-15.58-3.26 24.29-11.5 36.74-60.92 8.37-3.25 7.55-1.17 10.7 1.17 5.11.23 8.72-2.44 6.74-4.42 7.33-5.47 3.25-1.62 2.33-.47 6.74 1.4 1.05-2.91-29.53-32.2-42.66-93.7-15.81-34.64-26.62 18.13-59.87 28.37-3.95 5.93-8.02 17.44-3.61 10.23-1.16 3.95-.81 4.3 11.27 25.34-5 19.77-8.02 15.46-19.64-4.42-9.65-4.07-17.55-11.28 6.62-9.53 8.95-12.79 6.86-10.34 23.95-34.06 24.41-36.16 39.76-56.73 13.48-19.64 5.7-8.26 7.2-10.46 12.44-17.9 1.63-2.33 18.25-26.62 1.51-2.09.35-.58.47-.93 2.78-3.84 16.74-23.71 6.86-10 13.84-19.88 3.72-5.12 12.67-19.99 8.37-11.74 12.09-17.67 16.97-24.41 13.83-19.88 2.79-4.19 10.46-16.04 4.77-7.79 5.93-10.58 3.83-7.21 4.07-10.69 5.23-16.39 2.45-8.02 1.62-7.56 1.63-6.97 6.04-37.32 1.4-8.25.35-1.86.35-1.86 8.13-48.01 1.05-6.51 1.74-11.51 2.33-14.77 1.28-8.48 11.27-68.82 1.17-7.56 1.04-6.16 2.91-17.09 2.56-15 1.86.47 2.09.58 4.53 1.74 3.37 1.52 1.63.92 2.67 1.98 1.63 1.4.93.81 1.98 1.98 1.74 2.21 1.05 1.39 1.63 2.56.58 1.16 1.28 2.79 1.04 2.79.93 4.07 1.16 9.18.47 5.82.35 4.41.11 1.75.82 7.09.46 6.04.12 1.86.23 3.49.82 7.21.81 10.23.35 3.72.81 8.83.12 2.33 1.39 15.34.47 5.47.93 9.18.35 2.67.35 1.75.69 1.63.35 1.04.47.81.46.59.47.58.58.35.81.46 1.16.58 1.28.58 1.86.7 2.21-1.28.7-4.88.58-4.77 1.28-8.13 2.67-13.26.7-3.13 1.51-6.63 1.63-5.81.81-3.61.58-2.56 3.84-17.08 3.25-15.12 2.21-9.99.35-1.86 1.51-6.75 1.28-4.76.82-3.61 3.83-17.2 3.6-16.63 1.63-2.55.7-1.17.46-.92.59-.82.81-1.05.58-.81.58-.58.93-.81 3.14-1.98 9.77-.93 2.67-.23 5.93-1.05 2.56-.81 5.11-1.51 3.14-1.28 3.02-1.16 1.05-.35 3.14-1.4 5.11-2.44 3.72-2.09 1.74-1.05.82-.58 3.6-2.32 3.49-2.45.58-.34 5.58-4.42.7-.58 4.3-3.96 2.44-2.2 19.3-20.81 2.44-2.68 2.9 1.17 1.98 1.27 1.51.93 1.4.93 1.28.82 1.27.58 1.98.93 2.56 1.39 2.55 1.4 1.52.93 1.51 1.05.93.69.93.47.81.35.58.23 1.16.23h1.05l1.05.12 1.04-.23 1.4-.35 1.04-.35.93-.35 1.05-.23.81-.58.82-.59.58-.69.81-1.17.93-1.27.82-1.17.69-1.04.82-1.17.58-.58.93-1.04 1.05-.7 1.16-.58 1.04-.23 1.17-.12 1.28.23 1.04.35 1.28.81.93.7.81.93.47.7.35.93.35.93.11.7.12.81.35 3.6.23 2.21.12.93.34 1.28.47 1.51.46 1.4.59 1.51.93 1.63.69.93.58.58.7.46.7.24h.81l.93-.24 1.4-.58 4.88-2.56 1.16-1.16 1.4-1.28 1.16-1.16 5.46-2.67 1.17-.7 1.16-.35h1.86l.93.47.93.69.7.7.58.58 3.25 4.19 1.86 1.51 1.05.93.7.58.69.35.47.11h.46l.58-.23.82-.23.46-.47.58-.58.35-.58.47-1.39.35-1.28 2.09-9.3.35-1.17.46-1.16.58-1.04.7-.93.82-.82.81-.58.81-.35.93-.35 1.05-.11 1.28.11 1.04.24 1.28.35 1.05.46 1.39.7 2.21 1.28 2.1 1.16.93.7 1.04.69 3.26 3.37.58.7.46.35.47.23 2.67.35.82.24.69.34.7.47.58.46.93 1.17.58.69.7.93 1.05.93.46.58 2.79 4.31 1.4 2.2.81 1.63.81 1.51 1.4 3.14 1.28 3.37.58 1.86.23 1.63.23 1.4.12 1.27.12 1.75.11 1.51.23.93.35.81.47.93 2.44 4.54 1.28 2.79.46.81.35.93.23 1.05.12.93.12.81v1.63l-.12 1.63-.46 2.79-.12 1.04-.12.7-.23.58-1.86 4.07-.35.93-.11.7v1.62l.23.94.35.93.35.69.46.82 1.51 1.86 2.09 2.32 1.05 1.16.58.82.7.93.35.81.46.82.12.69.46 1.28 1.28 5.93.47 1.51.46 1.86.58 1.28.59 1.51.81 1.86 3.84 8.6 2.55 6.28 2.21 5 1.51 3.37.24.82.23 1.16.11.93-.23 3.14-.23 1.51-.23.81-.35.7-.47.35-.46.35-1.86 1.16-4.77 3.6-.7.58-.58.7-.58.93-.7.93-1.97 3.49-2.91 5-1.63 2.67-.23.7-.23 1.05-.12 1.04-.11 1.28v6.98l-.12 1.27-.12.7-.11.47-.35.46-.35.35-.58.35-3.37 1.51-1.16.7-1.05.7-.7.69-.81.24-.58.11-1.63.47-1.28.46-.46.12-.59.35-1.16.23-1.16.35-.58.35-.23.35-.12.46-.12.46-.23.24-.58.35-.58.34-.58.47-.47.58-.46.7-.23.58-.12.58-.12.7-.11.58.23.7.23.58.35.7.47.93 1.62 2.32 2.09 2.91.47.69.46.7.47.93.35.93.23 1.16.23.94v1.85l-.11.47-.12.47-.12.46-.34.47-.35.34-.7.58-1.86 1.4-2.67 2.09-1.05.82-.7.69-1.28 1.75-.58.69-.35.82-.23.81-.35 1.63-.23.81-.35.59-.35.58-.35.35-.46.46-.35.35-.58.23-.47.12-.58.11h-1.04l-.7-.11-.47-.12-1.16-.23-1.74-.7-.82-.11-.81.11-.7.23-.58.24-.46.34-.35.35-.35.47-.35.35-.35.7-.35.92-5.58 14.42-4.88 11.39-5.7 15.11-1.74 4.54-12.09 33.13-.7 3.14-.23 3.49-1.86 5.11-1.63 2.09-1.04 1.4-.58 1.16.11 2.44.58 2.21 2.79 4.77 1.17 1.62 2.32 4.77 1.98 5 3.6 9.53 1.4 3.14 2.09 3.95 7.09 18.37 6.04 14.07 2.68 6.86 2.21 5.81 4.3 9.3 2.9 6.28 3.49 6.51 1.4 1.97 6.16 6.28 7.9 10.35 4.07 6.51 5.35 8.02 1.04 2.32.59 2.91.58 3.6-.47 3.49-1.51 2.44-2.21 1.16-2.32.47-1.17-.58-1.39-1.28-1.05-.47-1.74.24-4.19 1.39-8.36 11.98-2.56 3.25-2.56 3.84-1.05 2.21-.11 1.85.23 2.33 1.4 6.28.34 1.63-.23 1.97-1.51 2.33-2.56 1.04-6.04.12-2.68.23-3.72.93-3.13 3.26-1.63 3.72.35 3.02 1.51 4.18-.58 4.19-.82 3.25-1.74 1.52-2.33.81-2.2-.58-3.72-3.84-5.23-3.95-3.84-1.05-4.3 3.96-2.33 6.51 2.91 11.39 2.44 3.83 6.05 8.84 1.39 4.77-4.3 4.88-1.98 1.62-3.72 4.19-5.46 4.19-23.02 14.06-3.48 1.98-2.56 2.32-3.61 2.1-11.85 4.18-7.91 4.07-11.04 10.46-.93.58h-.58l-.82-.46-1.62-1.05-3.37 6.39 1.04.7 3.37 1.98 2.79 1.86 3.61 2.56 4.88 3.37 3.95 3.02 3.14 2.67 2.21 1.86 1.28 1.17 2.79 2.32.46.47 4.07 3.83 3.37 3.37 3.37 3.37 3.37 3.49 4.65 5.35 3.03 3.6 4.76 5.93 2.68 3.61 1.62 2.09 3.96 5.81 1.86 2.91 2.09 3.25 1.28 2.09 2.79 4.66 1.04 1.86 3.49 6.5 2.67 5.24.7 1.39 2.56 5.35 60.21-28.83 9.54-18.14 19.41-12.55 16.27-35.92.93-2.79 1.98-4.19 1.98.23h1.86l1.39.24 1.4.23 1.97.93 1.4.93 1.74 1.39 1.75 1.28 1.27 1.51 1.4 1.98.58 3.14v1.74l-.35 2.79.82 1.98.69 1.28 1.4 1.63 2.21.69h1.62l1.63.35 2.91.7 3.25 2.91 1.28 2.09 1.51 2.32.58 1.4.7 2.09-.46 3.14.58 4.3 2.09 3.95 5.11 6.28 3.26 3.84 4.07 5.35 4.53 4.53 3.14.11 9.65-3.13 5.69.46 6.4 1.4 3.6.69 2.56-.11 5-4.77 2.9-1.04 3.37-.12 3.49 2.21 2.79 2.32 7.33 8.84 4.76 4.65 1.75.69 2.79-.23 2.32-.93 3.49-1.39 2.67-.35 3.26 1.39 3.25 2.79 5.46 3.96 4.54 3.83 5.23 4.42 2.44-.12 5.81-1.27 3.37-1.87h2.1l2.44 1.28 2.56 3.49 2.79 5.47 1.51 3.13 2.2.93 2.45.24 2.44-2.68 1.28-.46 8.83-3.02 5.35-2.56 1.16.11 1.28 1.17 1.63 1.97 1.16 1.28 1.05-.11h2.79l1.62.46 2.1 1.28.69 1.98.82 1.04 1.86.47 2.32-.47 2.21-.11 1.28.23 1.86 1.04 1.16 1.75.81 3.25 2.21 3.14 2.33 2.21 2.9-.12 1.86-.46 7.79-1.63 3.84 1.4 3.02 1.16 2.09 1.28 1.63 3.25-.46 3.49.69 2.21 1.86 1.51 5.7-.46 4.65-2.56 4.65-4.77 5.58-7.44 2.44-5.46.81-4.3 1.75-3.26 2.56-.93 3.37-.7 3.48 1.05 4.19 4.88 2.21 3.03 2.32.81 2.44-.47h.7l4.07-1.16 1.86-.46 2.56.35 2.79-.7 3.72-5.12 4.41-3.48 3.26-.24 4.42 1.63 4.99 1.86 4.89 4.07 6.39 8.25 2.91 3.49 4.65 2.32 8.6 2.21 11.62-.93 10 .7 5.23-2.09 6.51-3.84 6.98-2.32 6.97-1.98 9.3-4.18 5-2.44 2.91-1.52 2.09-3.25 1.28-4.65 2.79-3.02 3.83-2.68 6.28-1.62 2.67 1.04 2.21-1.51 2.91-4.88 1.86-3.61 2.09-2.09 3.6-1.28 1.63-.93 1.75-3.25.11-2.44.93-2.21 2.21-1.98 2.33-1.04h3.37l4.41 1.62 4.54 1.51 3.37 3.14 3.37 4.42 1.28 5.23.23 4.77 1.63 4.88 9.3 7.56 11.62 16.27 6.4 12.44 3.95 6.74 1.39 3.26 1.86 6.16.35 7.44.23 5.58 2.21 9.3 3.03 10.46 8.37 16.39 5.23 11.05 5.46 7.78 3.49 3.72 7.55 5.58 3.96 1.87 3.72.34 6.62.35 7.91-1.39 4.88-.35 14.06-1.63 5.7.47 3.37-.24 3.61.47 5.81 1.04 6.62.59 9.07-.82 3.14.58 2.56.35.81 1.86-.7 3.84v3.6l.7 2.79 1.16.7 3.14-.7 1.4 1.75.81 3.72.93 4.41 5.58 2.33 10 2.91 3.14 2.55 1.39 4.07 1.75 8.14 2.09 2.32 4.07.24 2.79 2.9 1.51 4.89 7.67 17.9 2.67 11.85 1.75 3.61 4.3 7.32 2.32 3.96.82 2.32-1.28 5.93.58 10.81.46 3.37 2.91 7.79 1.16 7.56 2.1 6.04 1.86 4.19 1.74.81 2.32.47.82 2.67.46 2.9v3.49l2.44 4.19 4.65 7.21 7.33 8.83 7.9 5.35 16.16 3.83 5.11.7 5.82.7 14.06 3.25 16.39 1.05-16.5 28.95 1.97 3.37 1.05 4.53.12 3.14-3.14 15.11-4.77 19.88-.35 1.86-16.51 37.32-1.16 1.74-1.97 1.75-5 2.9-2.79 2.68-1.98 3.02-3.37 6.62-1.28 3.38-.58 2.55-.35 2.79.12 3.61 2.9 10.11v3.02l-4.53 10.93 2.67 5.7 2.45 5.46 1.27 2.44 1.52 2.56 1.04 1.86 1.4 1.97 1.28 1.52 1.27 1.51 1.52 1.62 1.62 1.52 2.68 2.32.46.35 2.56 1.98 4.18 3.02 7.21 4.88 15.58 10.46 6.51 4.42 15.69 10.7 2.09 1.39 3.37 2.33 16.51 11.39 5.23 3.14 4.65 2.67 6.98 3.61 8.72 4.41 5.23 2.56-3.03 2.09 15.58 4.54 2.79 1.97 1.16 2.68v1.16l.24 18.13-1.05 8.37-1.86 3.03-3.26 3.83-3.71 3.49-2.68 1.74-.81 2.68-.23 5.23 2.44 17.2 1.86 8.14 2.32 5.93 1.4 5 .23 4.42-.93 3.37-3.37 3.14-4.42 8.02-1.86 2.21-1.74.69 8.48 2.68-1.62 167.4 26.5 35.22 46.96 62.31 92.3 117.65-3.83 1.04-2.91.82-5.46 1.39-4.07 1.05-4.3.93-9.42 1.63-15.23 2.55-3.48.7-5.35 1.05-5.81 1.28-2.91.92-2.21.94-1.98 1.04-4.76 3.49-3.95 2.79-2.1.93-1.97.58-2.1.46-4.53.7-3.02.47-21.97 2.79-4.3.58-5.93 1.28-4.3.81-3.26.23h-3.83l-7.44-.11-6.98.11-6.39.35-5.93.58-5.58.82-5.23.81-3.49.7-2.09.35-1.74.46-1.63.58-1.4.59-1.74 1.04-1.98 1.4-3.14 2.32-3.83 2.79-7.91 5.81-1.86 1.4-2.2 1.28-2.1 1.16-2.09 1.05-15.34 7.67-3.26 1.74-9.53 5.35-11.97 7.09-2.21 1.16-1.28.58-1.51.47-2.68.46-1.97.24-1.4.11-4.76.47-5.12.58-4.07.46-2.79.59-2.21.46-2.09.7-2.09.81-1.63.82-1.39.81-1.4 1.16-1.28 1.17-1.16 1.16-.93 1.28-1.28 1.86-.81 1.16-1.16 1.98-.93 1.85-1.28 3.38-1.17 4.41-.81 3.61-1.98 8.37-1.04 4.18-2.44 8.84-1.28 4.18-.82 2.56-.93 2.79-.81 2.44-.46 1.74-.59 1.98-.34 1.98-.47 2.44-.46 2.67-.59 3.26-.23 2.09-.35 2.09-.35 1.51-.46 1.4-.7 1.39-.81 1.4-1.16 1.39z" stroke-linejoin="round"/></defs><use xlink:href="#a" fill="#9dc8ca" stroke="#6bb4d2" stroke-width="5.76"/><defs><path id="b" d="M1717.19 2410.91l-2.56-5.35-.7-1.39-2.67-5.24-3.49-6.5-1.04-1.86-2.79-4.66-1.28-2.09-2.09-3.25-1.86-2.91-3.96-5.81-1.62-2.09-2.68-3.61-4.76-5.93-3.03-3.6-4.65-5.35-3.37-3.49-3.37-3.37-3.37-3.37-4.07-3.83-.46-.47-2.79-2.32-1.28-1.17-2.21-1.86-3.14-2.67-3.95-3.02-4.88-3.37-3.61-2.56-2.79-1.86-3.37-1.98-1.04-.7 3.37-6.39 1.62 1.05.82.46h.58l.93-.58 11.04-10.46 7.91-4.07 11.85-4.18 3.61-2.1 2.56-2.32 3.48-1.98 23.02-14.06 5.46-4.19 3.72-4.19 1.98-1.62 4.3-4.88-1.39-4.77-6.05-8.84-2.44-3.83-2.91-11.39 2.33-6.51 4.3-3.96 3.84 1.05 5.23 3.95 3.72 3.84 2.2.58 2.33-.81 1.74-1.52.82-3.25.58-4.19-1.51-4.18-.35-3.02 1.63-3.72 3.13-3.26 3.72-.93 2.68-.23 6.04-.12 2.56-1.04 1.51-2.33.23-1.97-.34-1.63-1.4-6.28-.23-2.33.11-1.85 1.05-2.21 2.56-3.84 2.56-3.25 8.36-11.98 4.19-1.39 1.74-.24 1.05.47 1.39 1.28 1.17.58 2.32-.47 2.21-1.16 1.51-2.44.47-3.49-.58-3.6-.59-2.91-1.04-2.32-5.35-8.02-4.07-6.51-7.9-10.35-6.16-6.28-1.4-1.97-3.49-6.51-2.9-6.28-4.3-9.3-2.21-5.81-2.68-6.86-6.04-14.07-7.09-18.37-2.09-3.95-1.4-3.14-3.6-9.53-1.98-5-2.32-4.77-1.17-1.62-2.79-4.77-.58-2.21-.11-2.44.58-1.16 1.04-1.4 1.63-2.09 1.86-5.11.23-3.49.7-3.14 12.09-33.13 1.74-4.54 5.7-15.11 4.88-11.39 5.58-14.42.35-.92.35-.7.35-.35.35-.47.35-.35.46-.34.58-.24.7-.23.81-.11.82.11 1.74.7 1.16.23.47.12.7.11h1.04l.58-.11.47-.12.58-.23.35-.35.46-.46.35-.35.35-.58.35-.59.23-.81.35-1.63.23-.81.35-.82.58-.69 1.28-1.75.7-.69 1.05-.82 2.67-2.09 1.86-1.4.7-.58.35-.34.34-.47.12-.46.12-.47.11-.47v-1.85l-.23-.94-.23-1.16-.35-.93-.47-.93-.46-.7-.47-.69-2.09-2.91-1.62-2.32-.47-.93-.35-.7-.23-.58-.23-.7.11-.58.12-.7.12-.58.23-.58.46-.7.47-.58.58-.47.58-.34.58-.35.23-.24.12-.46.12-.46.23-.35.58-.35 1.16-.35 1.16-.23.59-.35.46-.12 1.28-.46 1.63-.47.58-.11.81-.24.7-.69 1.05-.7 1.16-.7 3.37-1.51.58-.35.35-.35.35-.46.11-.47.12-.7.12-1.27v-6.98l.11-1.28.12-1.04.23-1.05.23-.7 1.63-2.67 2.91-5 1.97-3.49.7-.93.58-.93.58-.7.7-.58 4.77-3.6 1.86-1.16.46-.35.47-.35.35-.7.23-.81.23-1.51.23-3.14-.11-.93-.23-1.16-.24-.82-1.51-3.37-2.21-5-2.55-6.28-3.84-8.6-.81-1.86-.59-1.51-.58-1.28-.46-1.86-.47-1.51-1.28-5.93-.46-1.28-.12-.69-.46-.82-.35-.81-.7-.93-.58-.82-1.05-1.16-2.09-2.32-1.51-1.86-.46-.82-.35-.69-.35-.93-.23-.94v-1.62l.11-.7.35-.93 1.86-4.07.23-.58.12-.7.12-1.04.46-2.79.12-1.63v-1.63l-.12-.81-.12-.93-.23-1.05-.35-.93-.46-.81-1.28-2.79-2.44-4.54-.47-.93-.35-.81-.23-.93-.11-1.51-.12-1.75-.12-1.27-.23-1.4-.23-1.63-.58-1.86-1.28-3.37-1.4-3.14-.81-1.51-.81-1.63-1.4-2.2-2.79-4.31-.46-.58-1.05-.93-.7-.93-.58-.69-.93-1.17-.58-.46-.7-.47-.69-.34-.82-.24-2.67-.35-.47-.23-.46-.35-.58-.7-3.26-3.37-1.04-.69-.93-.7-2.1-1.16-2.21-1.28-1.39-.7-1.05-.46-1.28-.35-1.04-.24-1.28-.11-1.05.11-.93.35-.81.35-.81.58-.82.82-.7.93-.58 1.04-.46 1.16-.35 1.17-2.09 9.3-.35 1.28-.47 1.39-.35.58-.58.58-.46.47-.82.23-.58.23h-.46l-.47-.11-.69-.35-.7-.58-1.05-.93-1.86-1.51-3.25-4.19-.58-.58-.7-.7-.93-.69-.93-.47h-1.86l-1.16.35-1.17.7-5.46 2.67-1.16 1.16-1.4 1.28-1.16 1.16-4.88 2.56-1.4.58-.93.24h-.81l-.7-.24-.7-.46-.58-.58-.69-.93-.93-1.63-.59-1.51-.46-1.4-.47-1.51-.34-1.28-.12-.93-.23-2.21-.35-3.6-.12-.81-.11-.7-.35-.93-.35-.93-.47-.7-.81-.93-.93-.7-1.28-.81-1.04-.35-1.28-.23-1.17.12-1.04.23-1.16.58-1.05.7-.93 1.04-.58.58-.82 1.17-.69 1.04-.82 1.17-.93 1.27-.81 1.17-.58.69-.82.59-.81.58-1.05.23-.93.35-1.04.35-1.4.35-1.04.23-1.05-.12h-1.05l-1.16-.23-.58-.23-.81-.35-.93-.47-.93-.69-1.51-1.05-1.52-.93-2.55-1.4-2.56-1.39-1.98-.93-1.27-.58-1.28-.82-1.4-.93-1.51-.93-1.98-1.27-2.9-1.17-.93-.46-1.75-.58-1.86-.12-1.86.12h-3.13l-1.63-.12h-1.63l-1.74.23-1.75.58-1.16.59-1.74 1.16-1.51.93-1.17.69-1.04.47-1.4.23-1.86.35-1.04-.11-.93-.35-1.28-.7-1.63-.7-.93-.58-1.28-.58-1.28-1.05-1.28-1.39-1.16-1.86-.81-1.63-.58-1.39-.58-1.63-.47-1.63-.35-1.51-.35-1.4-.46-1.62-.35-2.21-.47-1.86-.69-2.33-.7-1.62-.81-2.33-.93-2.32-.82-1.86-.7-.94-.81-1.39-1.05-1.86-.69-1.63-.47-1.28-.35-1.39-.11-1.05v-1.97l.58-2.33 1.51-3.02 2.56-3.84 1.62-4.18.47-3.61-.58-5.69-.82-3.37-1.62-3.37-1.17-1.98-.93-1.16-.81-1.05-.46-.81-.47-.93-.35-1.4-.35-2.67-.23-2.1-.23-2.44-.35-1.62-.81-1.98-1.05-1.4-.93-.93-1.63-1.04-4.53-1.28-7.09-1.05-5.35-.93-2.91-1.27-2.55-2.21-2.44-3.49-2.56-4.07-10.58-15.58-2.21-3.14-2.21-2.44-3.02-2.09-4.42-3.02 2.33-3.26 4.65-6.51 3.83-4.88.7-1.05 9.3-11.04 6.16-6.74 15-14.42 4.18-3.49 10.58-7.9 7.91-5.46 5.23-3.26 5.23-2.67 22.08-12.09 8.49-4.77 6.05-3.49 5.11-3.25 7.21-4.77 5.46-4.07 5.12-4.07 5.69-4.64 4.65-4.42 6.05-6.63 5.69-7.21 5.7-8.25 2.67-4.3 2.91-5.35 2.21-4.53 2.21-4.77 1.97-4.88 1.63-4.54 1.39-4.06 1.4-4.42.93-3.72 1.16-4.65 1.16-4.88.82-5.12.81-5.69.47-4.42.58-5.93.35-6.86v-6.51l-.24-6.16-.69-5.47-.82-5.34-1.39-8.14-1.4-6.51-5.81-26.97-1.39-7.9-1.05-6.98-.23-3.25-.24-3.61-.34-5.46-.12-5.23v-4.89l.35-5.81.35-6.74.93-6.74.93-5.93 1.62-7.33 1.52-5.34 1.62-5.35 1.98-5.81 2.67-6.63 3.26-7.09 3.02-6.05 2.91-5.23 3.72-5.93 2.55-3.6 2.56-3.37 3.14-3.84 1.74-2.09 1.51-1.74 4.89-5.35 4.18-4.3 3.14-3.02 5-4.66 5.46-4.88 12.67-11.27 15.46-14.07 5.82-5.12 10.11-8.37 6.39-5.69 6.86-6.28 7.44-6.51 16.51-14.65 3.49-3.25 10.81-8.6 6.51-4.77 7.67-5.23 5.7-3.26 8.6-4.65 7.9-3.48 10.58-4.42 10.11-3.72 9.88-2.68 10.58-2.2 13.95-2.21 7.33-.58 6.51-.35 9.06-.12 11.74.35 18.72 1.28 4.18.35 7.56.35h8.14l3.37.11 8.25-.81 2.56-.23 5-.58 5.81-.94 3.6-.69 11.63-2.33 6.39-1.74 6.51-1.86 10.23-3.49 8.95-3.72 7.21-3.02 6.63-3.37 12.43-7.09 5-3.03 9.54-6.39 8.13-5.81 6.74-5.12 7.44-5.93 1.17-.93 7.09-6.27 3.6-3.26 6.16-4.42 11.51-9.18 6.86-5 3.84-1.63 5.11-1.74 6.05-.7 14.41 1.16 6.63.93 4.53 1.17 8.49 3.37 4.3 2.56 8.6 5.81 7.79 5.58 27.78 19.99 24.88 17.32 39.29 26.63 10.81 7.55 23.83 17.44 5 3.49 1.28 1.86 7.32 13.95 7.91 14.53 1.04 1.74 2.21 2.1 2.56 1.62 5.81 3.26 1.86 1.39 15.46 17.32 6.63 8.03 4.53 5.92 4.88 5 .35.93-4.76 13.84v1.62l14.99 2.33 9.07 13.6 8.02 15.35 4.77 13.13 2.55 5.81 14.88 5.82 6.05 7.44 1.51 1.51-3.84-3.49-1.16-1.28-1.16-.81-1.17-.58-1.16-.24h-1.16l-1.16.24-1.17.58-1.04.7-.93 1.04-.82 1.51-.34.93-.24 1.28-.11 1.28.23 1.28.46 1.16.7 1.16.93 1.05 1.51 1.28 2.79 1.97 2.79 1.87 2.1 1.16 1.86.93 1.39.23 3.72.58 3.6 1.16 3.72 1.28.7-.23 5 7.56 3.6 5.46 2.1 2.79 2.67 4.07 2.79 4.18 2.21-.58 3.14 4.54 5.58 8.37 6.62 9.65 4.65 6.97 2.33 3.37 2.9 4.53 6.4 10 3.72 5.7.93 1.28 1.86 2.79 1.51 2.32 2.21 3.26.69.93 2.91 4.18 2.33 3.37 1.04 1.51 2.79 4.19 1.05 1.39 3.49 5.12 1.97 2.67 1.05 1.4 1.74 2.32 1.51 1.86 1.51 1.75 1.4 1.63 2.79 2.9 2.9 2.79-1.39 5.23 2.21 3.14 2.09 3.02 4.77 6.86 3.02 4.3 1.28 1.98 2.67 4.3 7.56 11.51 3.14 4.65 3.95 6.05 1.51 2.2 3.37 4.89 6.28 9.18.7 1.05 13.95 19.41 13.6 19.41 2.9 4.3 15.23 21.86 1.51 2.09 2.56 3.37 3.14 3.72 3.02 3.37 3.26 3.14 3.37 2.91 3.37 2.67 1.63 1.05 3.02 1.98 4.18 2.55 7.09 3.72 16.74 8.72 4.3 2.1 7.91 2.2 3.02.7.23 2.79-3.6 9.77-2.21 3.83-1.74 2.91-.12 1.39-.23 2.21.58 4.3 2.79 11.28-1.28.35-1.63.7-1.16.58-.7.46-1.27.82-1.86 1.16-1.4.93-1.74 1.05-1.17.69-1.39.93-1.51.93-1.86 1.28-2.21 1.28-2.44 1.63-2.09 1.51-1.75 1.16-.7.47-6.16 4.88-11.74 8.49-4.65 3.37-5.58 4.07-7.44 5.34-3.14 2.1-2.44 1.62-2.9 1.86-4.19 2.56-3.37 2.09-2.67 1.51-1.86 1.05-3.26 1.74-.46.24-1.86 1.04-2.68 1.4-1.04.46-1.51.7-1.98.93.47.93 2.09 4.53 1.74 4.65 1.51 4.77 1.51 5.23 1.86 8.72 1.98 9.65.58 3.72.23 3.83.12 3.84v3.84l-.23 3.72-.58 4.53-.82 5.35-4.3 18.48-.35 2.79-.11 2.79.23 3.03.46 3.37.93 3.95 1.05 4.76 2.56 9.3 3.49 10.7 2.78 8.95 2.21 9.07.7 2.91.35 1.62-13.6 4.3-22.09 8.26-22.08 8.25-2.21.47-2.91-.47-9.42-4.53-14.99-5.35-2.21-1.16-4.77-3.84-4.99-2.91-2.68-1.04-4.42-.93-30.68-7.79-.47-19.41.23-5.7 1.51-17.79.12-5.92-.46-10.35-16.16 1.05-71.03 99.85 4.65 5.58.47 1.63-.35.93-.47.58-.93.35-29.06-6.16-26.74-58.36-33.82 2.33 8.25 48.01-44.52 54.17-60.1-77.54 18.71-20.11-.11-.46-139.38-18.37 3.14-40.81h-.24l-23.48 28.37-3.37-.35-21.39-2.79-11.97-5-1.63 3.84-3.6 8.37-6.4 14.65-3.83 8.6-4.88 11.04-5.12 11.4-3.95 8.6-6.74 14.41-5.12 10.7-1.63 3.25-5.46 11.39-5.7 11.4-5.46 10.69-3.14 6.16-5.11 9.77-2.44 4.76-5.82 11.05-4.41 7.9-4.3 7.68-3.84 6.85-3.14 5.7-5.81 10.35-8.72 14.76-6.16 10.35-5.12 8.48-5.69 9.54-10.81 18.36-6.63 11.51-6.86 12.09-5.93 10.81-2.67 4.77-4.3 8.25-4.07 7.79-4.07 7.79-5.11 9.88-4.65 9.53-3.14 6.28-4.07 8.72-2.67 5.47-2.44 5.23-1.4 3.13-2.91 6.05-2.09 4.65-1.74 3.84-2.68 6.04-2.2 4.77-2.1 4.76-1.74 3.96-3.14 7.09-3.49 8.37-2.67 6.39-2.09 5-3.03 7.44-3.02 7.56-1.39 3.25-1.86 5-3.84 9.42-2.44 6.51-3.02 8.13-1.86 5-1.86 5-1.86 5.12-2.09 5.81-1.4 4.07-2.56 7.09-2.32 6.74-1.75 5-1.97 5.81-2.79 8.37-1.75 5.23-.93 3.03-1.62 5-1.17 3.13-.34 1.51-2.33 7.1-3.14 9.99-1.28 4.07-2.2 7.09 1.16 1.98 1.16 1.28 9.42 7.56 11.16 31.03 1.16 3.03 7.67 19.41.81 7.09-5.11-6.28-2.09-3.95-.58-4.3.46-3.14-.7-2.09-.58-1.4-1.51-2.32-1.28-2.09-3.25-2.91-2.91-.7-1.63-.35h-1.62l-2.21-.69-1.4-1.63-.69-1.28-.82-1.98.35-2.79v-1.74l-.58-3.14-1.4-1.98-1.27-1.51-1.75-1.28-1.74-1.39-1.4-.93-1.97-.93-1.4-.23-1.39-.24h-1.86l-1.98-.23-1.98 4.19-.93 2.79-16.27 35.92-19.41 12.55-9.54 18.14-60.21 28.83z" stroke-linejoin="round"/></defs><use xlink:href="#b" fill="#9dc8ca" stroke="#6bb4d2" stroke-width="5.76"/><defs><path id="c" d="M1544.33 1548.33l-.7 1.05-3.83 4.88-4.65 6.51-2.33 3.26-3.95-1.98-4.07-3.95-4.18-5.58-2.56-4.3-1.63-4.65-.23-3.61v-1.51l.93-3.83.12-1.63-.24-1.75-.35-1.51-2.32-4.41-.93-3.14-.47-2.56-.46-3.02-.7-1.51-1.39-1.75-1.51-1.04-1.86-1.75-2.91-1.97-3.26-2.44-5.23-2.1-6.04-1.51-3.14-1.04-2.79-1.28-1.86-.93-2.21-1.52-3.49-3.13-4.53-4.54-3.14-2.21-3.95-1.86-4.3-1.86-5.23-2.67-4.42-1.74-6.04-1.86-11.05-3.03-3.25-.69-5.7-.93-4.76-.82-4.42-.11h-3.49l-1.86.23-2.21.81-1.39.93-1.98 1.17-1.74.69-2.21.35-2.33-.11-2.09-.35-1.39-.35-.93-.82-.59-.69-1.27-3.26-2.1-3.02-1.28-1.51-9.06-5.47-4.65-2.55-4.3-1.86-2.79-.93-2.21-.24-2.68-.34-3.25.46-9.18 6.16-2.45 1.75-2.09 1.39-.93.7-1.51.46-2.67.7-4.42.12-4.3-.7-6.74-2.09-4.54-3.49-2.55-1.51-1.98-1.05-2.21-1.05-2.79-1.04-2.56-.58-3.13-.47-2.68-.46-3.72-.82-3.49-1.51-1.16-.23-1.39-.23-2.44-.82-1.86-.34-1.05.23-1.28.58-1.05.58-1.74.58-3.02 1.16-1.86.58-2.68.47-2.44.23h-2.79l-3.48-.58-4.3-1.86-5.35-4.18-1.16-1.17-1.28-.81-1.4-.35-1.74.35-1.16.35h-.59l-.58-.23-.46-.24-1.75-1.74-1.51-1.05-1.51-.46-1.39-.12-1.51.23-3.96 1.87-5 3.13-3.13 1.28-2.68.93-2.67.47-3.95.69-20.7 3.84-5.46 1.63-3.6.35-2.09.23-3.14-.47-5.93-.58h-6.98l-1.62 1.05-1.28 1.86-1.4 3.6-2.09 2.79-2.09 1.4-5.47 3.14-3.48 1.39-3.26.58-2.79.24-2.56-.24-3.37-2.21-1.74-1.04-10.93-5.23-5.35-1.4-10.46-1.97-18.25-2.68-8.48-1.39-7.68-1.28-34.29-4.42-15.69-2.79-6.74-2.56-3.26-1.86-1.63-.93-3.14-2.55-1.51-2.1-2.09-4.41-2.79-8.72-2.09-4.19-2.44-3.02-1.63-1.86-1.63-1.51-2.09-.58-1.74-.23-3.96.11-5.34.12-5.47-.93-6.27-1.4-4.65-2.21-2.33-1.39-3.6-2.56-2.68-1.97-4.18-3.96-3.26-3.14-3.25-3.48-1.51-1.75-1.75-1.86-4.41-5.34-5.23-5.7-2.33-1.98-2.79-1.39-2.21-1.51-3.02-3.37-8.72-9.42-57.19-69.4-40.8-46.73-43.48-40.69-8.72-5.23-15.11-8.95-14.53-17.56-14.53-17.55-20.58-50.34-4.88-20.81-1.74-7.9-5.12-7.44-5-3.14-35.57 2.79-12.67 1.16-9.53 13.6-38.6 59.17-53 42.55-68.71 51.03-35.8 33.37-39.99 12.9-7.32-2.32-60.57-18.6-9.18 2.9-25.57-2.9-18.25 4.07-28.14 11.04-13.95-35.81-20.8-26.73-33.95-48.6-.93-1.16-.93-.81-8.72-12.67 1.4-6.16 1.16-3.96.82-3.14 1.39-4.53 1.51-5.11 1.16-3.61 1.17-3.6 1.74-4.42 1.63-3.83 1.28-3.03 1.86-3.72 2.09-4.07 1.98-3.48 1.86-2.91 1.62-2.44 1.51-2.44 1.86-2.44 2.44-3.14 2.21-2.44 2.68-3.03 2.21-2.2 1.62-1.63 1.63-1.4 2.09-1.86 2.56-2.09 2.67-2.09 2.68-1.98 3.14-2.09 4.07-2.79 6.85-4.53 7.21-4.77 8.72-5.81 7.44-5 5.35-3.84 1.97-1.51 5.93-4.3 8.25-6.63 4.65-3.72 1.28-1.04.82-.7 2.67-2.44-.7-1.05-.23-1.39v-3.49l1.28-2.33.23-4.41.47-6.86.11-1.86.35-7.09.47-3.72.58-3.84.58-3.6.7-3.26.23-1.63-1.63-.35-2.9-.58-2.56-.46-2.91-.35-1.97-.23-2.91-.35-3.37-.35-4.77-.47-4.07-.46-3.95-.35-5.11-.35-5-.46-3.84-.35-2.9-.23-2.91-.12-1.63-.12h-1.39l-1.63.12-1.05.12-1.16.11-.93.23-1.39.35-2.44.59-1.63.46-2.09.7-1.4.58-1.63.7-1.28.58-1.16.58-1.86.93-2.67 1.39-5.81 3.14-4.77 2.68-1.98.93-2.21 1.04-1.16.35-1.86.7-1.39.35-1.75.46-1.39.24h-2.91l-1.04-.12-1.05-.35-1.74-.47-1.4-.46-1.51-.81-2.67-1.28-3.14-1.51-3.84-2.1-2.21-1.16-2.32-1.28-2.56-1.51-1.05-.7-.81-.58-3.14-1.97-1.28-.93-1.28-.93-.69-.7-.58-.58-1.28-1.51-.82-1.17-.81-1.27-1.51-2.8-3.26-5.81-7.78-15.46-5.7-12.09-1.51-2.79-2.91-4.3-3.14-3.02-5.93-3.72-11.04-6.4-4.65-2.9-3.49-2.91-2.2-3.37-1.98-4.65-11.97-35.46-10.23-29.76-1.28-4.41-1.51-4.65-.82-2.56-.69-1.98-.7-2.09-.7-1.51-.81-1.51-.7-1.4-.7-1.16-.93-1.16-.93-1.16-3.25-3.49-4.07-4.3-4.07-4.31-6.28-6.74-4.65-5.11-1.51-1.75-1.28-1.62-1.04-1.51-.82-1.28-.69-1.51-.82-1.52-.7-1.74-.58-1.51-.46-1.98-.47-1.51-.46-1.74-.58-2.79-1.98-9.07-2.21-9.76 7.79-.24 5.81-.11 4.07-.24 3.72.12 8.95.23 4.88.24h1.05l3.14.11 12.2.12 6.98-.23 4.42.11 9.88-.35 8.72-.35 5.58-.23 6.16-.23h6.51l1.74-.12 3.6.47 6.63.7 5.23.34 1.16.24 15 2.32 13.14 2.21 2.9.47 6.05 1.51 3.37 1.04 5.93 3.03 3.72 1.62 1.62.82 4.77 2.09 1.98.93.93 1.16 1.27.58 5.12 2.21 8.25 3.84 1.63.93.81.46 1.52.7 1.04.47 1.16.58.7.46.93.58.58.47.47.46.35.7.23.58.35.93.23 1.4.12 2.79v3.37l.11 1.39.23 2.09.47 1.98.7 1.98.93 1.86 1.16 1.74 1.39 1.63 1.4 1.39 1.74 1.17.93.46 1.17.47 1.16.34 1.51.35 1.16.12 7.21 1.05 8.14 1.16.81.11 10.93 1.87 8.02 1.27 9.3 1.63 4.88.93 17.55 3.26 2.33.81 2.44 1.05 2.09 1.28 1.98 1.39 1.86 1.63 1.63 1.86 1.51 1.97.46.7 1.16 2.21 1.4 3.14 11.39 28.13 1.4 3.6.46 1.52.58 2.55.35 2.56.12 2.56-.23 2.56-.24 1.97-.69 2.56-.7 2.32-.93 2.1 6.04.23 1.51.35 3.37.58 4.07 3.26 1.98-4.77 2.67-6.05 1.86-4.53 3.84-8.83 5.7-12.91 4.53-10.81 2.91-6.63 3.48-8.02 2.68-6.39 2.44-5.23 1.51-4.07 1.16-2.91.81-1.97.93-2.44.93-2.1 2.56-5.93 1.75-3.95 3.25-7.67 3.37-7.67 2.21-5.24 1.86-4.41 1.86-4.19 1.86-4.18 2.09-5.12.7-1.86 3.26-7.32 2.09-5.12 2.79-6.97 2.79-6.98 2.79-7.09 2.79-6.97 3.95-10.93 6.04-15.69 2.45-5.47 2.55-6.74 4.42-11.63 7.32-19.41 5.47-14.65 7.32-19.29 1.98-5.58 3.37-9.3-4.54-2.1-2.32 6.28-2.91 7.79-5.92 15.46-3.96 10.46-3.02 8.14-1.51 4.07-2.21 5.7-1.98 5.58-3.37 9.06-2.67 6.75-1.86 5.11-.47 1.16-2.44 6.75-1.74 4.41-1.74 4.42-1.28 3.61-.58 1.62-3.14 8.61-1.63 3.83-1.63 4.3-1.63 4.19-2.55 6.62-4.54 11.05-1.86 4.42-3.48 8.6-4.19 9.99-2.44 5.47-1.86 4.18-2.56 5.93-2.79 6.75-2.67 6.16-3.26 7.55-2.32 5.23-3.37 7.1-1.51 2.09-1.05 1.28-1.04 1.16-16.05.46-2.67.12-8.49.35-5.69.46-3.14.12-1.74-.12-.7-.23-1.51-.46-2.1-1.17-2.2-1.27-.59-.35-.58-.47-.35-.35-.46-.35-.23-1.86-.47-2.32-.11-2.09.11-1.17.35-.81.47-.7.69-.35 1.05-.46.7-.12 1.97-.46-11.85-2.33-.59-.11 2.21 1.16.93.7.82.93.58 1.16.35 1.16.11 1.28-.11 1.63-.35 1.97-.47 1.4-.35.81-1.04.47-.35.35-1.4-.12-.93.12-1.97-.24-2.09-.35-1.98-.69-2.56-1.17-2.21-1.16-5.58-3.14-4.99-2.79-5-2.79-3.96-1.97-3.48-1.4-1.75-.58-.69-.23-2.21-.47-3.61-.58-.69-.23-1.05-.58-1.05-.7-1.74-1.04-.35-.82.23-1.86.24-2.32.46-2.79 1.05-3.72 1.28-4.07 1.39-3.84 1.4-3.14 1.39-2.44 1.05-1.63 1.86-2.79 6.04-9.53 3.02-4.3 1.86-2.79 3.03-4.65 1.86-3.37 1.74-2.91.93-1.86 1.28-2.55.93-2.33.81-1.98.35-1.39.35-1.16.35-1.28.35-2.09.46-2.21.58-2.56.35-3.02.47-2.79.46-2.91.47-2.91 4.88-31.85.58-3.83 1.16-4.31 15.35-31.73 2.79-3.14 1.16-.47.93-.46.81-1.16.24-.7.11-.7-.23-1.28 1.28-.23 1.04-.23 8.96 1.04 28.83 1.98v-17.55l9.88.34 2.2.7 2.1 1.05 11.16 11.27 8.95-11.27-.93-1.16-1.28-2.1-1.05-2.55-1.04-2.91-1.17-2.21-1.27-1.86-1.4-1.28-1.98-1.97-1.86-1.05-2.55-1.05-2.68-.58-7.32-.58-9.76-.23-25.35-1.28-1.97.12-1.05.58-.46 1.28-.12 2.09.12 13.48-6.05-.23-3.14-.93-2.32-1.39-17.67-13.49-4.77-4.07-2.32-2.79-1.05-1.62-3.14-3.84-.58-.7h-1.05l-1.04.58-10 7.44-13.37-23.6-3.95-7.32-9.88-18.02-.7-1.86-.58-2.32.35-.82-.12-1.39-.46-1.4-.93-1.04.7-2.21.46-1.16.47-1.28 5.34-20.58-2.55-1.05-6.86-2.67 2.21-10.69.11-1.52-.58-1.16-.7-1.28-24.41-33.13-3.02-4.18-1.05-1.28-1.04-.35-10.12-4.07 3.72-11.04 3.03 1.39 2.44 1.05 2.09.81 2.67 1.05 2.1.69 2.67.7 2.09.58 1.98.47 3.83.93 5.35 1.39 2.33.59 2.67.69 3.14.93 2.44.93 2.32.82 2.91.81 11.74 2.91 2.21.58.23-2.44.35-1.98.35-2.91-.58-1.74.81-4.18.47-3.96.58-5.81-.12-1.98-.23-2.67-.23-1.51-.35-2.21-.93-5.58-.35-2.79-.23-1.86-.12-2.56-.35-3.83-.11-1.63v-3.61l-.12-.69v-26.51l-.12-17.32-.11-7.56-.23-18.25-.12-3.6-.12-6.86.12-19.41-.12-4.54.12-7.2-.12-9.42.24-18.14v-9.29l-.12-2.33.23-1.63 1.05-8.83.35-3.14.35-3.02.23-2.21v-2.33l.11-2.67-.11-3.37v-2.1l-.12-2.32-.35-3.6-.46-3.49-2.56-20-3.25-25.57-.12-1.63-.58-3.84-.35-2.78-.23-2.21-.12-2.56-.35-3.14-1.16-20.46v-1.51l-.58-11.39-.7-13.49-.46-9.65-.35-4.42 2.67-.34 2.09-.35.93-.23.93-.24 1.17-.46 1.27-.47 1.17-.58 1.04-.58.82-.58 1.16-1.05 1.16-1.39 1.63-1.75 1.63-2.09 1.28-1.16.93-1.05 1.16-1.16 1.63-1.16 3.25-2.09 7.9-5.58 3.14-2.91 1.4-1.86 1.04-1.86 1.05-2.09.47-1.63 18.13 13.6 2.09 11.04 3.49 1.63 5.46 2.44 5.23 2.21 28.72 34.41 41.15 36.97 8.83 5.58 13.95 8.83 27.09 31.74 1.51 1.74 5 5 6.86 6.4 3.83 1.51 2.44 1.16 1.98 1.05 2.56 1.62 2.09 1.63 2.09 1.51 1.28.93.93.35.7.12.81-.12 1.63-.93 1.98-.93.93-.12h.93l1.16.35 1.16.47 2.33 1.05 3.48 1.39.93.47.7.69 1.05 1.16.81 1.17 1.74 2.44.93 1.04 1.63.7 2.33.47 2.9.35 5.12.93 11.85 2.79 2.91 2.79 2.79.81 20.58 15.46 22.2-10.93 11.62-5.69 18.25-14.3 22.09 7.32 13.72 5.12 4.42 2.55 2.32 3.14-5 41.16 1.05.69 3.6 2.91 1.51 1.28-3.95 18.6-2.32 10.69.23 1.4 38.94-5.7 29.29-4.18 4.77 36.5 12.09 33.95 1.4-.35 20.92-28.14.93.12.35 14.53 4.88 6.86 4.42-.81 24.53-4.77 3.48-.35h8.14l54.87-8.37 3.6-.46.35-4.77 5.58 1.28 18.37 16.27-1.63 10.58 10.93 18.25 5.11 14.53 1.98 2.56 3.02 10.58.58 4.07-.7 14.07-.58 10.34.93 3.72.12 10-8.02 32.55-2.67 16.97.34.58 9.65 18.37 2.44 2.67 2.44 5.24 1.4 2.79 2.56 2.44.69-.58 1.05-.58 1.05-.24h1.28l1.27.24 2.68.92.81.24 3.02 1.28 1.52.69 29.29 12.21 10.93 4.88 2.21-5.81 7.09-18.95.93-2.32 1.27-3.26 3.03-7.44 2.67-6.74 6.86-17.32 5.35-13.72 1.74-4.77 1.63-4.41 4.88-11.98 1.4-3.95 1.62-4.42 1.17-3.14 2.79-6.97 1.97-5.12 2.09-5.34 3.37-7.91 4.54-11.04 4.42-10.93 4.88-11.97 5.23-12.79 5.23-13.37 6.16-15.34 2.56-6.63 5.81-14.53 5-13.37 1.05-2.79 3.37 1.98 2.55 1.51 1.28 1.86 24.18 36.15 25.34 40.46 9.42 15.11 3.49 6.16 7.9 11.86 6.74 13.48 3.84 6.98 3.02 5.58 4.42 9.99 14.07 29.88 1.74 3.72 4.65 9.18 3.95 6.51 2.91 3.49 2.09 1.98 2.67 1.16 2.45.7 3.13 1.04 6.63 3.37 2.33 1.05 1.86 1.28 1.39 1.05 1.28 1.16 2.32 2.32 2.79 3.49 3.61 3.72 7.55 7.21 1.86 1.74 9.42 8.61 2.21 2.09 1.16 1.16 1.28.93 1.16.81 1.75.59 1.85.46 2.56.7 3.14.69 1.98.35 1.16.24 1.16.23.93-.12 1.05-.35 1.74-.93 2.33-1.16 1.51-.46 1.39-.24h1.4l2.21.12 2.09.47 7.9 3.13 4.89 2.91 1.97 1.28 2.91 2.44 1.86 2.67 1.74 4.19 1.63 4.3 18.25 17.79 4.88 4.65-1.16 5.11-33.01 29.41.93 25.93 13.6 6.97 5 2.68 10.57 5.46 6.17 5.11 14.87 6.4 2.68-1.98-.47-4.18 6.98-3.38 1.04-8.48-3.13-6.05-14.88-18.6-8.61-10.69 5.7-10.46 7.9-4.19 7.21 1.63 8.6 1.39 11.75 12.56 16.39 12.55 8.13 6.16 3.96 7.91 2.55 30.46 59.29 22.67 11.27 16.27 12.56 9.65 2.67 8.02-1.39 33.02 3.02 46.03 10.35-.58 9.3 4.19 6.16-1.4 19.87-8.6 24.65-6.28 11.62-7.79 30.81-12.2 10.93-5.58 5.46-.24.81 5.93.35 1.4.23.93.35 1.16.35.93.47 1.16.46.93.7 1.16 3.95 6.4.58 1.28.35.81.93 2.56 12.44-1.75 2.56-.23 1.39-.12 1.16-.11h1.52l1.04.11 1.16.12 1.17.12 1.04.23 4.07.7 2.33.58 2.09.81 2.32 1.05 1.63.7 1.51.93 2.33 1.39 2.56 1.75 2.9 2.2 1.75 1.52 2.2 2.2 2.91 3.14 2.56 3.02 1.28 1.63 7.2 8.6 3.72 4.19 2.44 2.79 3.38 3.02 2.09 1.86 2.67 2.21 1.16.93 2.91.23 11.62 5.82 2.21.46 1.05.23.46.12.35.12h.7l.35-.12.35-.23.46-.47.7-.81 1.05-1.16 3.02-8.14 2.67-7.44 1.4-3.84 4.07-11.39 1.51-4.19 2.21-5.92 2.67-8.49.93-2.79.7-2.56 1.39-5.11 1.28-5 .7-2.91.81-4.3.7-3.25.47-3.14 1.16-7.79 3.48 1.16 3.61.93-6.16 17.44-8.26 23.48-5.69 16.74-3.72 11.63-1.75 4.76-1.04 3.37-2.09 5.12-1.86 3.95-1.28 3.61-1.05 2.79-2.09 6.04-4.65 13.83 11.97-11.51 4.19-3.95 3.37 7.21 10.34 22.09 5.7 11.97 20.46 43.83 8.83 16.39 12.79 24.88 4.77 11.27 2.9 11.16 1.63 10.81-.12 12.79v6.63l-.81 8.95-.58 4.88-1.05 5.23-1.28 5.93-.58 3.49-6.39 5.69-10.11 8.37-5.82 5.12-15.46 14.07-12.67 11.27-5.46 4.88-5 4.66-3.14 3.02-4.18 4.3-4.89 5.35-1.51 1.74-1.74 2.09-3.14 3.84-2.56 3.37-2.55 3.6-3.72 5.93-2.91 5.23-3.02 6.05-3.26 7.09-2.67 6.63-1.98 5.81-1.62 5.35-1.52 5.34-1.62 7.33-.93 5.93-.93 6.74-.35 6.74-.35 5.81v4.89l.12 5.23.34 5.46.24 3.61.23 3.25 1.05 6.98 1.39 7.9 5.81 26.97 1.4 6.51 1.39 8.14.82 5.34.69 5.47.24 6.16v6.51l-.35 6.86-.58 5.93-.47 4.42-.81 5.69-.82 5.12-1.16 4.88-1.16 4.65-.93 3.72-1.4 4.42-1.39 4.06-1.63 4.54-1.97 4.88-2.21 4.77-2.21 4.53-2.91 5.35-2.67 4.3-5.7 8.25-5.69 7.21-6.05 6.63-4.65 4.42-5.69 4.64-5.12 4.07-5.46 4.07-7.21 4.77-5.11 3.25-6.05 3.49-8.49 4.77-22.08 12.09-5.23 2.67-5.23 3.26-7.91 5.46-10.58 7.9-4.18 3.49-15 14.42-6.16 6.74-9.3 11.04z" stroke-linejoin="round"/></defs><use xlink:href="#c" fill="#6bacaf" stroke="#097d9b" stroke-width="5.76"/><defs><path id="d" d="M1015.88 2640.62l-4.07-1.05-13.72-3.72-10-2.44-11.16-2.67-4.76-1.4-7.09-2.32-11.98-5-14.18-4.3-7.44-2.44-5.81-1.98-3.02-.58.34-5.58 1.86-2.56 2.91-28.36 1.63-13.26 1.04-10.23.35-3.25 1.98-18.83.46-4.54.7-6.51.93-9.18.47-5.23 1.62-15.35.47-3.83 1.05-12.09 4.65-5.12-1.98-21.04 2.09-7.32 1.05-20.93 1.63-8.14 1.16-6.51.93-4.76.81-5.93 1.05-5.93 3.49-16.51 2.44-8.37 2.9-11.16.24-6.39 2.9-9.65 1.86-8.72.12-4.88-.12-2.09-.46-3.72-.93-3.49-1.4-3.72-5-8.49-1.74-2.09-4.3-3.95-3.49-2.33-4.88-3.02-17.44-10-20.92-17.09-26.97-24.06-8.02-14.18-1.4-4.65-12.79 2.67-3.6 1.16-6.28 1.28-5.11.93-2.21.12-2.09-.47-2.44-1.27-8.72-5.58-22.55-16.98-.47-.46-12.44-9.3-8.02-4.89-1.63-1.62-7.55-6.63-.58-.46-17.56-11.28-5.11-2.91-5.23-2.09-3.14-.93-2.44-.46-3.26-.93-2.55-.47-2.44-.23-2.33-.12-2.32-.11-67.31 236.33-4.19 17.09-7.9 31.5-1.05 3.96-6.27 24.87-39.3 156.59-7.2 16.05-5.7 17.32-6.51-2.91-16.85-8.48-3.26-3.84-2.09-2.44-11.28-14.53-15.81-19.3-1.86-1.75-1.86-1.16-1.86-.58-10.69-1.39-4.42-1.28-4.07-2.09-4.53-3.14-3.95-2.21-6.63-3.03-6.86-2.9-4.88-1.63-10.58-1.74-5.81-1.86-1.51-4.65-1.63-4.3-12.09-20.46-12.21-19.07-15.22-24.41-9.42-15.35-4.53-8.13-.47-.93-1.63-2.79-.11-.24-2.33-3.72-.93-3.02-2.79-8.02-1.39-5.12-.93-4.53-.93-7.21-.35-4.06h-9.42l6.05 39.4.7 4.54 3.72 23.6-53.83 9.88-27.31 13.6 7.09 17.09-12.56-10.35-19.53-5.58-.46-3.49.11-1.74.59-1.4.81-1.51.93-2.32v-4.19l-.47-3.6-.69-3.02-.12-.58-6.04-.82-3.49-.93-1.63-.46-5.81-1.98-3.26-.81-7.55-2.56-2.44-1.39-2.91-.59-3.37-.93 15.93-60.21 16.39-60.34 41.61-151.24 7.56-27.78 15.57-58.59 22.79-84.4 13.48-50.22 16.39-60.91 42.09-154.15-13.26-13.95 14.88-24.42 1.98-2.9-1.98-1.98-1.86-1.97-1.74-1.75-1.86-1.86-3.37-3.37-3.72-3.14-2.68-2.09-1.16-.93-2.9-2.09-3.96-2.68-2.9-1.97-2.56-1.75.81-3.25-128.45-114.16.23-6.51 1.52-48.48 3.02-96.37.23-6.39 4.3 1.39 79.51 24.19 34.53-20.12 32.78 8.37-33.13-31.04 24.06-25.92 32.9-35.22 8.49-8.95-11.86-16.28 21.51-21.27 11.97 13.83 17.44-16.51 13.02-12.78 17.2-15.47 11.04-9.88 6.28-5.69 10.7-9.77 13.94-12.9 27.67-75.22 29.99-81.6-1.04-6.51-1.51-5.47.93-.46 8.48-29.76 35.57-2.79 5 3.14 5.12 7.44 1.74 7.9 4.88 20.81 20.58 50.34 14.53 17.55 14.53 17.56 15.11 8.95 8.72 5.23 43.48 40.69 40.8 46.73 57.19 69.4 8.72 9.42 3.02 3.37 2.21 1.51 2.79 1.39 2.33 1.98 5.23 5.7 4.41 5.34 1.75 1.86 1.51 1.75 3.25 3.48 3.26 3.14 4.18 3.96 2.68 1.97 3.6 2.56 2.33 1.39 4.65 2.21 6.27 1.4 5.47.93 5.34-.12 3.96-.11 1.74.23 2.09.58 1.63 1.51 1.63 1.86 2.44 3.02 2.09 4.19 2.79 8.72 2.09 4.41 1.51 2.1 3.14 2.55 1.63.93 3.26 1.86 6.74 2.56 15.69 2.79 34.29 4.42 7.68 1.28 8.48 1.39 18.25 2.68 10.46 1.97 5.35 1.4 10.93 5.23 1.74 1.04 3.37 2.21 2.56.24 2.79-.24 3.26-.58 3.48-1.39 5.47-3.14 2.09-1.4 2.09-2.79 1.4-3.6 1.28-1.86 1.62-1.05h6.98l5.93.58 3.14.47 2.09-.23 3.6-.35 5.46-1.63 20.7-3.84 3.95-.69 2.67-.47 2.68-.93 3.13-1.28 5-3.13 3.96-1.87 1.51-.23 1.39.12 1.51.46 1.51 1.05 1.75 1.74.46.24.58.23h.59l1.16-.35 1.74-.35 1.4.35 1.28.81 1.16 1.17 5.35 4.18 4.3 1.86 3.48.58h2.79l2.44-.23 2.68-.47 1.86-.58 3.02-1.16 1.74-.58 1.05-.58 1.28-.58 1.05-.23 1.86.34 2.44.82 1.39.23 1.16.23 3.49 1.51 3.72.82 2.68.46 3.13.47 2.56.58 2.79 1.04 2.21 1.05 1.98 1.05 2.55 1.51 4.54 3.49 6.74 2.09 4.3.7 4.42-.12 2.67-.7 1.51-.46.93-.7 2.09-1.39 2.45-1.75 9.18-6.16 3.25-.46 2.68.34 2.21.24 2.79.93 4.3 1.86 4.65 2.55 9.06 5.47 1.28 1.51 2.1 3.02 1.27 3.26.59.69.93.82 1.39.35 2.09.35 2.33.11 2.21-.35 1.74-.69 1.98-1.17 1.39-.93 2.21-.81 1.86-.23h3.49l4.42.11 4.76.82 5.7.93 3.25.69 11.05 3.03 6.04 1.86 4.42 1.74 5.23 2.67 4.3 1.86 3.95 1.86 3.14 2.21 4.53 4.54 3.49 3.13 2.21 1.52 1.86.93 2.79 1.28 3.14 1.04 6.04 1.51 5.23 2.1 3.26 2.44 2.91 1.97 1.86 1.75 1.51 1.04 1.39 1.75.7 1.51.46 3.02.47 2.56.93 3.14 2.32 4.41.35 1.51.24 1.75-.12 1.63-.93 3.83v1.51l.23 3.61 1.63 4.65 2.56 4.3 4.18 5.58 4.07 3.95 3.95 1.98 4.42 3.02 3.02 2.09 2.21 2.44 2.21 3.14 10.58 15.58 2.56 4.07 2.44 3.49 2.55 2.21 2.91 1.27 5.35.93 7.09 1.05 4.53 1.28 1.63 1.04.93.93 1.05 1.4.81 1.98.35 1.62.23 2.44.23 2.1.35 2.67.35 1.4.47.93.46.81.81 1.05.93 1.16 1.17 1.98 1.62 3.37.82 3.37.58 5.69-.47 3.61-1.62 4.18-2.56 3.84-1.51 3.02-.58 2.33v1.97l.11 1.05.35 1.39.47 1.28.69 1.63 1.05 1.86.81 1.39.7.94.82 1.86.93 2.32.81 2.33.7 1.62.69 2.33.47 1.86.35 2.21.46 1.62.35 1.4.35 1.51.47 1.63.58 1.63.58 1.39.81 1.63 1.16 1.86 1.28 1.39 1.28 1.05 1.28.58.93.58 1.63.7 1.28.7.93.35 1.04.11 1.86-.35 1.4-.23 1.04-.47 1.17-.69 1.51-.93 1.74-1.16 1.16-.59 1.75-.58 1.74-.23h1.63l1.63.12h3.13l1.86-.12 1.86.12 1.75.58.93.46-2.44 2.68-19.3 20.81-2.44 2.2-4.3 3.96-.7.58-5.58 4.42-.58.34-3.49 2.45-3.6 2.32-.82.58-1.74 1.05-3.72 2.09-5.11 2.44-3.14 1.4-1.05.35-3.02 1.16-3.14 1.28-5.11 1.51-2.56.81-5.93 1.05-2.67.23-9.77.93-3.14 1.98-.93.81-.58.58-.58.81-.81 1.05-.59.82-.46.92-.7 1.17-1.63 2.55-3.6 16.63-3.83 17.2-.82 3.61-1.28 4.76-1.51 6.75-.35 1.86-2.21 9.99-3.25 15.12-3.84 17.08-.58 2.56-.81 3.61-1.63 5.81-1.51 6.63-.7 3.13-2.67 13.26-1.28 8.13-.58 4.77-.7 4.88-2.21 1.28-1.86-.7-1.28-.58-1.16-.58-.81-.46-.58-.35-.47-.58-.46-.59-.47-.81-.35-1.04-.69-1.63-.35-1.75-.35-2.67-.93-9.18-.47-5.47-1.39-15.34-.12-2.33-.81-8.83-.35-3.72-.81-10.23-.82-7.21-.23-3.49-.12-1.86-.46-6.04-.82-7.09-.11-1.75-.35-4.41-.47-5.82-1.16-9.18-.93-4.07-1.04-2.79-1.28-2.79-.58-1.16-1.63-2.56-1.05-1.39-1.74-2.21-1.98-1.98-.93-.81-1.63-1.4-2.67-1.98-1.63-.92-3.37-1.52-4.53-1.74-2.09-.58-1.86-.47-2.56 15-2.91 17.09-1.04 6.16-1.17 7.56-11.27 68.82-1.28 8.48-2.33 14.77-1.74 11.51-1.05 6.51-8.13 48.01-.35 1.86-.35 1.86-1.4 8.25-6.04 37.32-1.63 6.97-1.62 7.56-2.45 8.02-5.23 16.39-4.07 10.69-3.83 7.21-5.93 10.58-4.77 7.79-10.46 16.04-2.79 4.19-13.83 19.88-16.97 24.41-12.09 17.67-8.37 11.74-12.67 19.99-3.72 5.12-13.84 19.88-6.86 10-16.74 23.71-2.78 3.84-.47.93-.35.58-1.51 2.09-18.25 26.62-1.63 2.33-12.44 17.9-7.2 10.46-5.7 8.26-13.48 19.64-39.76 56.73-24.41 36.16-23.95 34.06-6.86 10.34-8.95 12.79-6.62 9.53-19.42 27.44-10.34 15.34-5 6.63-9.07 13.72-9.53 16.74-2.44 5.23-2.79 6.04-2.91-3.37-1.74 3.95-3.84 8.96-3.14 6.97-2.32 5.46-1.63 3.96-2.09.58-2.09 3.72z" stroke-linejoin="round"/></defs><use xlink:href="#d" fill="#09757a" stroke="#00465f" stroke-width="5.76"/></svg>