<svg width="4.84in" height="384" viewBox="0 0 3486 2880" xmlns="http://www.w3.org/2000/svg" xmlns:xlink="http://www.w3.org/1999/xlink"><path fill="#fff" d="M0 0h3486v2880H0z"/><defs><path id="a" d="M1579.38 1686.13l-20.92-5.01-4.36-.98-6.53-1.53-3.71-.76-1.96-.55-1.41-.32-1.2-.55-1.42-.43-1.31-.66-.98-.43-1.2-.66-1.08-.65-.44-.22-.87-.54-.87-.66-1.2-.87-1.53-1.2-1.3-1.19-1.31-1.2-2.51-2.51-4.25-4.9-3.05-3.48-1.19-1.31-1.31-.98-.76-.55-.77-.54-.98-.44-.54-.22-.76-.21-1.31-.44-2.51-.54-.98-.22-2.61-.65.87-3.6.44-1.63 1.63-6.65.33-1.63.43-1.75.76-2.94.98-3.59 1.75-5.88.76-2.73.55-2.28 3.7-13.95 1.2-3.81 1.2-4.14 2.94-8.82.65-2.29.33-1.09 1.96-7.19 2.29-8.28 2.07-7.95.65-2.4.44-1.63.1-.54.98-3.82 1.31-5.01.22-.54 3.38-12.86 2.72-10.34.87-3.16 2.51-9.37 3.05-11.44.11-.76.54-1.96.65-2.29.22-1.09 3.27-12.2 2.51-9.48.76-2.72.65-2.18.77-2.94.21-.98.55-1.96 2.18-8.39 5.77-22.11 1.63-6.32 1.75-7.08 5.01-19.39.65-2.5 1.2-4.69.11-.54 6.1-23.86 3.49-13.61 1.52-6.21 2.83-9.48.44-1.42.98-2.83 4.57-12.42 2.29-8.28 1.75-5.99 1.85-7.4.54-2.18 2.18-7.52 2.72-7.62 3.93-11.33 1.63-6.76 4.14-15.25 2.61-10.45 1.2-4.36 1.75-7.84.87-3.71.54-3.92.33-4.25.65-7.62.76-12.31 2.51-9.26 3.49-14.71.43-1.96 3.81-13.94 7.96-29.85 1.2-4.46 1.74-6.76 2.5-9.58 1.86-7.3.32-1.31.66-2.94 4.14-16.45.32-1.41 2.07-7.95 4.25-17 1.64-6.86-.44-.98-3.81-7.41-22.44-47.93 3.59 3.49 1.96.98 5.99 3.92 1.09.76 1.85 1.31 12.53 33.01 1.2 3.37-1.09 4.58.55.98.43.98 3.16 6.64 1.85 4.25 4.36 9.15 10.02 21.57 2.29 5.01 3.38 7.08 1.85 1.09.98 2.51 5.23 11.32-.33 1.2 1.31 2.51 7.52 16.01 1.41 2.83 1.85 4.03 2.07 4.36 1.09 2.4 1.64 4.03 1.63 3.48 5.88 13.07 4.14 8.72 2.07 4.68 2.07 4.36.33.54 4.68 9.26 1.09 2.29 2.51 5.12 2.07 4.58 5.01 10.56.65 1.31 3.93 8.5 9.36 20.04 4.69 10.13 2.5 5.12 7.96 16.88.43.98.33.88.98 2.39-.98.76-1.74 1.31-1.64 1.09-1.2 1.31-.76.87-.87.98-1.74 2.61-.88 1.64-8.82 13.4-4.03 5.66-1.09 1.63 1.96 3.16 3.16 4.69 1.74 2.83 2.07 3.16 1.2 2.07 1.2 2.07.98 1.85.65 1.31 1.53 3.27.76 1.52 5.01 10.89 3.05 6.32.88 2.07.76 1.74.43.77.44.98 1.09 2.39 4.03 8.61.98 1.96 9.59 20.59 1.41 2.94.33.76 5.34 11.33.43.98 4.91 10.46 1.19 2.28 2.94 6.54 2.29 4.68 2.73 5.67.54 1.2.65 1.41 1.09 2.62.87 2.83.88 2.72.76 2.83.54 2.18.22 1.53.55 3.92.21 1.09.33 3.16.22 1.96v.65l-.11.77.11 2.61v4.25l-.11 1.3v.66l-.11 1.63v.55l-.11.54-.65 5.56-.76 7.84-.44 4.36-.22 2.39-.22 2.51-.32 2.72v.33l-.11 1.09-.33 2.61-.54 5.01-.11 2.84-.11 2.17-.22 1.86 2.4-.55 8.93.11 8.17.98 5.77.87 3.27.44v-1.74l.11-3.16.55-20.16.43-18.3 2.29-1.41 2.29-1.42 4.46-2.72 2.51-1.53-.22-.43-.22-.55-.1-.54h-.88l-.76-.11-.76-.22-.66-.22-.65-.43-.65-.44-.87-.65-.88-.87-1.19-1.64-1.2-2.18-.76-2.5-2.18-9.7-1.09-4.24 2.39-.88.22-.21.22-.22.44-.22.54-.43 9.04-6 5.99 12.31 5.67 11.55.65 1.42 1.09 2.07 3.49 6.53 1.41 2.72 2.18 3.38.76 1.31.55.98 1.31 2.4.98 2.07.98 2.07.98 2.28.76 1.85.76 1.86.11.54.33.76.43 1.31.33.87.44 1.31.54 1.63.44 1.53.11.32.65 2.73.54 2.5.55 2.51.33 1.52.32 1.86.55 3.92.32 1.52.11 1.42.33 1.74.11 2.29 2.18.11 4.46.32 6 1.2 5.77 3.49 3.7 1.85 4.14 1.2h2.62l2.5 1.63 5.89 1.96 7.73 4.47.33.33 7.95 7.73 9.04 11.98 13.18 14.16.98.87 3.38 3.27 4.03 4.58 1.42 1.85.22.22 3.05 3.7 3.48 5.01 4.9 9.7 1.09 1.85 4.91 8.49 3.37 4.47 3.05 2.94 3.6 1.85 7.84 1.42 5.99.65 21.9-.54h6.32l9.8.87 5.23.55 3.49 1.08 3.26.88 10.03 3.05 24.73 7.51 5.01 2.94 2.61.55 2.62 1.41 9.15 5.56 16.56 7.19 11.65 4.03 7.41 2.5 4.14 2.18 5.88 4.36 4.03 2.72.55 1.53.54-.22 1.53 2.18-.98 2.94-.33 3.49v.21l-.65 2.84-3.05 12.09-.33 2.28-.65 2.84-.33 2.94.43 4.68 1.53 2.4 3.27 1.96 5.44.65 4.25.22 3.82-.76 5.01-.44 4.79-1.52 5.99-1.09 3.38-.22 2.83 1.74 2.29.33 1.85.98 2.18 5.88 4.25 6.87 4.25 3.15.21.22 6.54 2.07 4.9 2.07.33.11.11.11-.11.33-.33 1.19.44.11-.55 2.18-1.3 4.69-.33 1.09-.22.98v.21l-.22.66-.1.87-.22.87-.44 1.52-.43 1.75-1.42 4.79-.44 1.53-.65 2.94-.65 1.96-2.51 9.04-2.29 8.06-2.18 7.73-.87 3.16-1.2 3.92-1.08 4.14-1.53 5.56-1.31 4.79-.32 1.31-.33 1.09-1.63 6.32-.77 3.16-.43 1.63-.66-.22-.65-.22-2.07-.65-1.85-.44-3.49-1.09-.87-.87-.87-.21-.65-.22-4.14-1.09-2.95-.87-3.37-.77-6.21-1.74-8.06-2.18-17.22-4.46-16.01-4.14-1.74-.55-8.94-2.39-1.63-.44-13.29-3.59-4.47-1.09-1.96-.55-9.04-2.39-7.52-2.07-6.1-1.64-3.26-.76-3.38-.87-2.83-.76-4.58-1.09-3.16-.77-8.93-2.18-2.29-.54-1.09-.22-4.57-1.3-5.34-1.42-6.21-1.74-.76-.11-6.1-1.75-14.82-4.03-1.96-.54-6.86-1.96-1.09.33-1.96-.66-1.96-.54-6.43-1.85-2.07-.55-3.71-.98-1.85-.54-8.06-2.18-5.23-1.53-8.17-2.29-3.59-.98-5.23-1.41-6.21-1.74-6.21-1.75-2.94-.76-.87-.98-1.86-.55-2.28-.54-3.16-.76-3.92-.98-3.05-.77-3.82-1.08-3.27-.77-1.74-.43h-.33l-.43-.22-2.72-.65-2.51-.66-2.51-.87-2.07-.43-.54-.22-1.63-.44-.88-.22-2.94-.87-2.07-.65-1.74-.55-.87-.32-1.09-.44-1.2-.54-2.29-1.2-1.3-.55-.88-.21-.98-.33-1.41-.44-2.29-.65-2.29-.54-2.39-.66-2.18-.54-13.29-3.6-8.17-2.29-1.31-.43-1.31-.33-2.29-.65-1.08-.33-3.6-1.09-5.23-1.3-3.38-.88-25.6-7.08-18.84-5.12-6.87-1.74-1.85-.54-.76.43-.54.22-.44.22-.33.11h-.43l-.55-.11-.43-.11-.55-.11-9.37-2.18-5.88-1.52-3.38-.98-5.01-1.31-3.92-1.09-5.45-1.42-6.97-1.85-5.66-1.31h-1.96l-1.31.66-4.36 2.61-2.18.44-2.39.98-8.94-2.51-6.1-1.74-.98.11-.87-.22h-1.31l-3.26-1.31-3.16.44-7.3.65-4.14.44-3.38.33-1.74.1-6.21.66-9.26.98-4.47.54-8.6.98-6.1.66-10.46 1.09-2.73.11h-.54l-.65-.11h-.77l-.98-.11-.87-.11-.87-.22-1.09-.22-1.31-.32-3.05-.77-13.83-3.26-2.51-.55-7.73-1.85-1.96-.44-3.6-.87-2.72-.65-2.07-.44-2.07-.43-1.74-.33-4.69-.98-1.31-.22-1.41-.32-4.9-1.2z" stroke-linejoin="round"/></defs><use xlink:href="#a" fill="#cee3e4" stroke="#cef5f5" stroke-width="5.76"/><defs><path id="b" d="M1048.09 2851.79l-15.04-4.03-37.8-10.24-5.44-1.53-2.62-.98-2.29-.76-2.07-1.09-2.5-1.31-3.81-2.28-.98-.66-4.69-3.05-9.48-5.99-19.06-12.09-16.34-10.57-2.62-1.63-23.64-15.03-3.26-1.96-2.51-1.53-1.2-.54-1.2-.66-1.41-.65-3.16-1.42-3.38-1.41-3.48-1.31-3.6-1.2-3.59-1.2-3.71-.98-3.59-.87-3.71-.76-3.81-.55-3.7-.54-3.82-.33-3.81-.21-3.7-.11h-3.82l-3.81.21-3.81.22-3.81.44-3.82.54-3.7.66-6.1 1.3-5.99 1.42-12.09 2.83-10.03 2.18-.21-1.2-.11-1.31-.11-.98v-.87l-.11-1.3v-1.2l.11-1.31.11-1.42.11-1.85.1-1.63 1.2-13.62-.98-10.13-.98-8.6-.76-7.74-.55-4.9-1.19-6.21-2.07-3.05-1.31-2.61-.33-4.47 1.42-9.48.76-5.33 5.01-14.6 2.4-6.54 2.4-9.69-.88-7.84-2.07-11.33-4.9-5.23-4.79-5.34-5.01-2.29-3.6-2.28-.43-3.38.65-5.77.98-17.11.65-29.84-1.3-4.14-2.29-4.14-9.04-7.84-7.52-3.93-13.83-5.66-5.34-2.94-2.07-4.69-2.94-9.15-3.38-14.05-1.42-4.9-2.61.76.22-8.71 1.74-6.54 2.29-4.68.11-3.92-.98-3.71-3.05-3.15-5.34-.99-4.36-1.63-1.74-4.36.11-1.96v-.98l.11-1.3.54-3.6 1.2-3.7 1.2-3.27 1.41-2.72 3.71-6.76 8.28-8.49 3.59-2.73 11.66-10.67 2.61-5.56.55-3.27-1.09-3.81-1.53-2.29-1.96-2.28-5.88-2.94-6.32-3.82-7.52 1.64-3.92-1.09-3.7-8.5-.55-1.74-1.2-3.49-2.07-5.34-4.9-4.46-6.75-.87-6.43 2.18-3.7 1.41-8.5 3.16-8.93-2.18-12.09-8.71-2.95-6.1-.21-3.82-.22-3.05 1.96-7.29 7.62-10.46 9.05-7.08 11.43-7.84 3.38-5.34 3.05-7.84-1.63-5.89-12.2-5.88-10.24-4.68-10.68-7.08-3.81-6.87.98-4.14.43-1.74 8.5-4.36 8.28-4.13 6.32-7.19 2.72-5.23 2.73-5.12-.77-7.74-3.05-6.31-.54-.22-6.76-2.51-6.64 2.62-4.9 1.09-3.92-4.25-.11-9.37.54-12.85-3.81-6.43-.66-6.75 2.62-2.18 5.23-.98 2.5-1.75.55-1.63.54-1.53.33-.76 1.63-3.59.11-2.83-1.3-3.16-3.27-3.05-4.36-4.25-5.88-5.88-1.53-1.53-5.44-7.84-3.38-12.31-1.2-2.62-4.03-4.57-4.14-4.58-6.54-6.86-4.14-5.55-.11-8.17 4.14-7.96 2.51-11.22 1.53-4.68 6.53-20.8 4.14-16.24.55-12.41-6-4.03-11.54-2.07-13.73 2.28-3.81-6.64-.87-10.89 2.39-13.08 5.67-8.71.65-6.64-12.74-14.38-3.82-4.36-8.93-4.68-9.15-2.18-2.83.65-3.27 1.42-6.32-.66-4.25-3.26-3.38-4.91-.54-2.07-2.29-7.4-2.61-6.76-4.69-2.61-4.9-2.72-5.99-1.53-4.79 1.53-8.06 3.59-8.61 2.83-17.98-2.5-8.38-4.58-7.41-5.66-6.32-7.52-3.59-5.01-4.04-2.18-6.42 2.72-10.46 13.29-4.58 13.4.55 9.37 2.18 8.61 4.03 8.6-2.4 4.36-5.34 2.72-7.84-3.7-10.35-17.76-5.34-5.12-2.39-.21-3.93-7.41-13.5-3.16-12.2-6.75-9.7-22.01-5.12-16.01-19.39-12.2-4.25-.33-9.04 1.42-24.4 3.27-13.18-6-8.5-22.54-2.18-13.62-9.91-17.1-1.86-3.49-2.61 1.2-1.09-.22-7.19-8.82-3.16-10.89v-5.89l-.11-3.7-.11-5.77.77-4.14.1-2.73 1.09-1.19 3.49-8.83 5.34-8.06 5.88-5.99 7.52-7.08 6.1-4.68 5.12-2.94 1.74-1.42 2.83-.87 1.86.22 4.03-2.4 6.1 1.63 2.94 1.75 3.81 2.61.87 10.13 3.27 9.04 3.6 7.3 3.26 4.68 4.14 2.73 5.56-.76 5.99-8.72 2.51-12.31v-12.31l-1.53-8.06-5.77-7.84-4.14-6.43-5.12-5.23-2.62-5.12-2.39-3.81.98-6.64 2.94-8.72 7.08-1.2 11.33-1.96 15.14-4.46 11.33-5.01 4.9-6.76 5.67-6.97.11-2.29-1.64-1.74-6.53-5.01-5.34-7.3-1.2-8.17.76-9.15 2.18-5.77 5.34-5.12.22-.11.98-.76 2.83-2.07 1.31-4.58-1.09-10.13-3.82-9.69-3.26-4.58-6.1-3.05-7.63.22-5.01-2.29-3.6-5.12-.87-5.99 1.31-6.53 4.9-14.93 5.23-10.13 2.4-13.72-1.2-11.88-2.62-5.66-4.79-2.83-11.22-.66-9.48-4.14-3.81-6.97v-1.63l-.11-3.92-.11-.55.22-3.16.22-5.99 1.85-5.66-1.31-.76-.76-.44 2.72-5.23 3.71-4.79 5.77-2.62 1.2-.32 5.45-1.09 4.03.22 5.01 1.19 9.15-.11h.44l7.08 1.31 8.71 3.81 5.34 2.07 3.27-1.19 3.37-3.16.55-4.36-2.62-5.23-1.63-6.53-3.05-4.58-5.23-3.16-5.99-.98-6.43-.22-3.37 1.31-2.73 1.09-7.84 4.9-.98.65-.55.44-1.41.98-5.56 3.81-10.46 2.4-4.46.44h-.77l-.1-3.27-3.27-1.2-2.4-4.58-1.31-6.1-1.85-.32v-8.93l2.29-7.3 2.18-3.6 1.96-3.16 7.84-3.48 8.72-2.18 7.3-5.12 3.7-5.12 1.85-5.66 1.09-5.89-.65-4.68-6.1-14.71-1.09-8.38 1.2-3.6 3.81-1.85 2.61-.55 3.82.55 9.8 5.88 5.56 3.92 4.24.55 1.42-.76h.22l1.42-1.31 1.85-1.53 1.96-1.52 1.52-1.85 1.42-1.64 5.12-6.97 3.16-4.79 2.72-5.67 2.62-6.97 2.72-7.62.76-5.56-.98-5.88v-4.14l-.32-.76-.66-.33-.87-.98-.98-3.05-1.09-4.14-1.2-2.18-.87-1.09-1.42-.76-1.41-.44h-.66l-.32.55-.22.87-.22.65h-.43l-3.05-2.07-1.97-1.41-3.15-1.53-3.49-1.09-2.61-.87h-.66l-1.52-.22-3.16.11-2.07.22-2.18-.22-1.74-.11-4.8-1.52-.54-.44-.22-.21-2.51-.98-5.99-2.18-3.92-1.53-2.83-1.63-3.16-1.96-1.53-1.85-.1-.22-1.53-1.74-1.96-1.86-.55-1.74-1.19-1.63-1.53-3.49-.87-2.72v-2.18l-.11-1.96-.87-1.85-.11-1.75-.54-1.09-1.42-3.26-.22-1.09-.65-5.12.43-4.36.98-3.16 1.31-6.1.33-1.42.76-4.24 1.74-4.58 3.38-6.1.55-1.41.65-1.64.87-1.96 1.74-2.72 1.31-2.73 1.09-1.85.65-1.41.55-1.86.65-2.39.11-1.53.22-2.28v-3.16l.11-3.05-.22-3.82-.11-3.48-.54-1.74-.87-1.64-1.42-3.81-.87-2.94-1.42-1.96-.87-2.18-1.85-3.71-1.75-4.03-.32-2.17v-1.75l.11-1.52-.11-1.64-.33-1.85.44-2.18.11-1.41.1-1.09v-.76l-.21-1.09.21-.55v-.33l.44-.1 1.09-.22 1.2-.11 1.52-.11.66-.11 1.52-.11 2.18.44 2.4.65 1.41.76 1.09-.1.66-.55 1.41-.11 1.42.22 1.42.33 1.63-.44 2.18-.98 2.83-.87 2.29-1.31 1.09-.76.76-1.31.22-1.2-.66-.76-1.3.33-.66-.76.11-.55.33-.98-.11-.33h-.22l-.32.33-.33.11-.55-.44-.65-1.63-1.42-1.63-3.37-2.18-3.05-1.53-2.07-.98-1.85-.54-5.89-1.31-6.75-.76-1.09-.11-1.42-.22-2.18-1.09-2.28-.87-1.75-1.2-1.41-.33-1.42-.54-4.9-2.94-1.64-1.63-.76-1.2-1.96-3.49-1.41-2.07-1.42-2.61v-.66l.33-.76.21-.65-.43-.66-.98-3.16-1.09-2.83-.44-3.7-.87-1.96-1.42-4.36-.65-2.4-.22-2.5.11-1.53.22-.76 1.63-2.83 1.42-1.53 2.18-1.3 3.81-1.09 1.64.33 1.19.43 1.09.22 1.2-.33.76.22 1.2-.22 1.64-.76 2.5-1.85 1.31-1.53.76-1.74.22-1.2v-.98l-.22-1.09-1.85-2.18-3.16-2.5-1.31-1.31-.87-1.09-1.2-1.85-.43-.33-1.31-.22-1.31-.54-1.09-1.09-.98-2.07-.65-2.07-.76-1.74-.33-3.71v-.98l.87-3.48.87-1.53 1.2-1.41 1.2-.87 1.74-1.96 1.31-1.09 1.31-1.42.87-1.52.65-1.53.22-.76v-.98l-.54-1.42-.11-.87-1.09-4.9-.22-1.96-.11-2.62.65-3.48-.65-2.51-.65-1.52-.44-3.6.11-1.31-.98-2.28-1.85-5.34-.87-1.85-.11-2.29-.44-.54-1.41-1.75-.55-1.09-.33-.65-1.96-1.42-1.74-.98-1.96-.87-1.31-.43-20.04-4.36-6.32-.87h-3.38l-7.73-.76-2.18-.44-2.29-.65-.22-.11-1.96-.98-9.37-4.14-.98-.44-3.37-.65-4.36-.33-1.96.11-6.86 1.09-2.84.98-2.61.98-4.58 2.29-1.74.87-2.51 1.52-.54.44-2.72 2.4-3.27 3.81-4.8 6.21-2.5 2.83-3.05 2.4-4.03 2.5-1.31.66-3.38.54-2.72.33-2.07-.66h-1.96l-2.18.44-3.59-.11-1.75.44-1.41.65-1.2 1.2-.87 1.41-.66 1.42-.43 1.52-.33 3.38v1.2l.98 1.42 2.29 2.39 1.63.44.44-.11.22.22v2.07l.32 1.52v1.2l.22 1.42-.11 1.52-.43 2.29-1.42 4.79-1.2 2.18-1.41 1.74-3.05 4.69-1.2 3.48-.44 2.29-.32 1.31-.55.87-.22 1.09-1.41 3.92-1.42 3.27-2.94 4.68-3.49 5.23-1.09.54-4.03.55-2.61.87-1.85.11-3.71-.11-2.72-.33-1.96-.21-1.64-.55-1.3-.33-1.86-1.3-1.96-2.4-1.96-2.83-1.74-3.6-1.74-4.24-.44-2.94-.54-2.4-.44-.76.55-2.18.21-.98v-3.05l.55-2.84.98-2.39.43-1.2v-.76l-.32-.44-.66-2.39.22-.98.44-.22.32.22.44 1.74.33.11.21-2.18-.21-1.2-.11-1.09.43-2.18 2.29-7.51.66-1.53.54-1.09 1.52-3.48.33-.77.76-2.18 1.31-5.11.76-4.69-.1-3.05.1-3.16-.98-8.06-.54-3.05-.98-4.36-.22-1.19-.54-1.09-.22-1.31-.22-1.53-.11-2.39-.87-3.27-.54-4.03-.22-1.31-.11-2.07-.33-1.09-1.63-7.84-2.83-12.09v-.65l-.11-1.09-.44-.55-.65-.98-.77-1.09-.65-.87-2.18-2.72-1.41-1.09-2.84-1.64-.21-.1-6.98-1.09-.98.32-2.83 1.64-2.18.87-5.88.54-17-.22-6.1.44-6.97-1.52-7.51-5.78-4.47-6.97-5.34-11.44-1.63-7.73-.44-4.9.33-3.82 1.63-5.99 1.53-4.35 2.83-6.54 3.81-7.62 2.51-5.45 3.05-4.9 3.92-4.36 6.86-3.16 6.87-4.79 16.66-9.59 1.2-.65 2.83-3.38 2.73-3.27 3.81-3.81 3.38-3.16.87-.76 1.85-2.51.55-1.63.98-2.18.43-5.01-.32-2.61-.44-1.42-.76-.22-3.49-1.63-1.74-2.4-3.6-3.37-3.05-1.75-4.35-1.2-3.49-1.08-2.83-1.42-3.27-3.27-6.97-7.3-8.94-9.91-3.16-3.27-6.1-4.35-7.29-3.82-6-2.83-3.16-1.31-3.92-2.39-4.9-3.6-5.77-3.92-11.77-11.87-3.7-5.45-2.29-4.25-2.07-5.88-.76-3.16v-.33l-2.29-3.05-1.63-3.81-1.64-4.9-.54-5.01.98-4.36 1.52-5.44.55-4.14.76-4.25 1.2-5.67v-4.79l1.2-5.99.98-4.58 2.29-5.55 5.33-11.77 1.31-3.59.76-3.59.44-3.71.11-6.86-.11-1.42-.55-5.12-.43-3.05.11-3.16-.66-3.05-.21-.98v-1.74l-.22-2.4-.11-.98 3.7-1.19 4.25-1.42.11 2.61 2.29 1.96 1.85.44 1.96.55 2.07.32 1.85.44 1.85.98 2.4 1.2 1.85.65 2.51 1.85.98.76 1.2 1.42 2.18-.11 1.52.76 1.31 1.64 1.2.87 1.96 1.42 1.3.98 2.07 1.19 3.71 2.62 1.63.65.98.98 1.42.55.76.98.76 1.09.22.76.22.76.22.98.22 2.94.32 1.09 1.09 1.53v1.09l1.2.65-1.09 1.31.98 1.2.65 1.96 1.64 1.09 1.52 1.63.88.65 1.19.77 1.31.65.65.33 3.6.54 1.74.33 1.42.22h2.5l2.18.43 1.42.76 1.96.66 3.05-.11 2.18-.87 4.25-2.07 3.48-2.07 2.07-.44 2.29-1.85 2.4-2.4.65-1.41 1.42-3.27.11-1.53.76-2.61.44-2.72v-2.62l.54-2.61-.54-4.9.1-3.27v-1.53l.77-2.18.43-1.85.87-2.72.44-1.85 1.2-2.18 1.2-1.31.87-1.96.76-.98.65-1.85 1.75-4.58.65-1.85.55-1.2 1.08-2.17.66-.77.98-.98.54-.65 1.09-.22 1.09-.22.98-.11 3.27.33 1.85.65 2.73-.1 3.37-.55h.33l3.92-.65 5.88-.87 4.69-.55 2.29.11h1.63l1.63.55 1.09.32 1.09.33 1.09.33.87.21.88.33.43.11 1.31.43 3.81 1.97.55 1.74 2.5.11 2.18.54 3.16-1.31 1.42-.87 1.19-.65.77-.44 1.41-1.52 2.18-2.29 1.74-1.09 1.53-.87 1.52-.98 1.09-.76.88-.76.76-.88 1.96-2.39 1.96-3.71.22-1.85.54-2.94-.11-2.29-.11-1.74-.54-1.63.54-2.18-.21-1.64-.98-2.07-.98-3.48-.55-4.47.33-1.74.22-1.09.21-1.31.22-1.52.33-.87.65-1.64.11-1.52.22-2.29-.44-1.96-.32-.98-.11-3.27-.22-2.83v-1.53l.11-1.96.22-4.24.11-4.14.54-4.47.87-3.16 1.31-1.09 1.09-.11 1.31-.22 1.41-.87 1.85-.98 1.96-2.18 1.31-.98.55-2.5v-2.62l-.66-1.09-.76-1.63-.44-1.96-.65-2.61-.54-1.96-.22-2.4-.11-.65.65-2.62 1.2-1.09 1.2-1.2.98-2.18v-1.63l-.11-1.2v-3.37l.76-3.05.11-2.62-.22-3.05.11-2.94-.76-3.27.87-2.72.11-2.29-.22-4.68-.11-1.2v-2.51l1.09-2.07h.88l.32.66.66 1.52-.22 1.42-.33 2.29.11 3.37.54 2.94.99 2.62 2.17 1.41 4.47-.76 1.09-.54 2.61-1.2 1.53-.76 2.4-1.64 1.52-.98 1.42-1.74.98-.98 1.09-1.31 1.74-3.05 1.2-.65.65-1.42.76-1.52.77-1.75.76-.76.87-.98.87-.87.55-.44 1.09-1.41.98-1.2.76-.33.76-.32.76-.22.99.11 2.17.32 1.97 1.2 2.39.66 1.42-.98 1.63-1.09 1.74-1.86 2.29-2.72 3.49-4.25 2.07-2.28 1.31-1.75 2.5-3.37 1.85-2.29 1.75-2.51.98-.65.87-.76h1.63l.11 2.28-.87 2.95 1.09 3.05.33.87 1.52 2.18 3.05 1.85 2.18.43 1.42.22 1.09.11 1.19.22 2.07.32 2.4.44 2.07 1.74 2.83 1.96 2.29.66.44 1.09.54 3.26 1.31 2.84 1.3 2.94 1.97 2.18.21 1.3 1.2.55 1.09.22 3.05.32 1.85-.32 1.96-.44 1.75-.44 1.41-.32 2.07-.22 1.53-.33h3.05l1.2.77h1.96l3.05-.66 2.39-.87 1.75-.76.98-1.31.65-.98.66-.98.43-.54.55-1.42.87-1.96.65-1.53 1.42-3.15.76-1.86.65-1.85.88-2.29.98-1.85.54-.87 6.54-8.5 6.31-7.62 1.86-2.29 2.18-1.96.54-.22 2.61-.32 2.51-.11 2.29-.33 1.52-.87 1.64-.98 1.52-2.94.22-1.53.33-1.74.21-1.09.11-3.05-.54-2.72-.98-2.62-.44-.76-1.09-2.18-.54-1.63-.98-2.73-.98-2.28-.33-1.09-.43-2.83v-4.25l.54-1.85.44-1.09.87-1.2 1.41-1.85 1.31-1.31 1.74-.76 1.86-.77.98-.21 1.19-.33v2.07l-.43 1.85-.44 1.09-.32 1.52-.33 1.2-.22 1.2.55 2.51.43 1.96.44 1.41 1.2 1.86.87 1.3 3.59 2.29 3.16-.33 1.85-.21 4.03-1.97 1.2-1.19 1.75-1.86 2.94-2.61 1.96-3.16 1.74-2.07 1.42-.11.98-1.52.22-2.07v-1.31l-.11-1.2.65-1.41.44-1.09 1.96-1.09 1.41 1.41.87 1.2.66 1.31 1.74 1.63 2.07.66h4.03l1.53-.44 1.52-.54.98-.44 1.31-.54 1.52-.66 2.07.33 1.2 1.63.77 2.29-.22 1.85-.44 2.29-.54 1.85-.44 1.53-1.52 3.16-2.07 3.16-1.2 1.3-1.09 1.2-1.74.11-1.53-1.2-2.18-.33-1.74.55-1.42.65-2.18.66-1.96 1.52-1.52 1.64-.98 1.08-.77 1.86-.98 2.07-.98 4.68.22 1.52.33 2.62.22 2.72.32 2.18 1.42 3.16 1.09 3.05.54 1.53.55 3.81.65 2.72.66 2.07.76 2.51 1.74 2.17 2.4 1.42 2.5.65 3.16-.32 2.94-.66 2.07-.65 1.96-1.52.77-.55 1.2-2.07.54-.76.33-2.51.76-3.92 1.2-1.31 1.2-1.19 2.17-.77 1.2-.54 1.2-.65 1.85-1.31 1.09.76 1.09-.54 1.31-.44 1.42-1.96.43-1.85.44-1.42.32-2.5.11-.98-.65-2.07-.76-2.4-.22-2.61.43-1.09.44-1.2.65-1.53 2.51-2.72 3.27-2.4 2.94.11.76.11 2.4 1.2 2.29.44.76.1 2.18-.32 1.74.32 1.74 1.09.44 1.75.22.87.11.43-.33 2.4-.98 1.09-.98 1.2-1.2 2.07.11 1.85.43 3.27.44 3.26 1.2 1.97 1.74 2.72 1.74 2.29.11.54.33.87.87 2.62.65 2.61.11 1.96-.11 2.29v4.68l-.65 5.34-.76 3.81.33 2.94 1.19 2.18 1.09.44 1.09.22.44-.11.43-.22 1.53-.87 1.63-2.72 1.53-1.64h1.74l.55.11.98 1.63v3.27l-1.2 3.81-.55.66-1.41 1.85-.87 1.2-.44 1.09-.44.65-.43 2.72v.88l.33 1.74v.98l1.3 1.2.77.76 1.74.22.65.11 2.62-.44 3.26-2.18 3.16-3.05 2.4-2.5 2.61-.87.77-.11 1.2.11.98.1.43.11.44.44.54.43.87.77.77 1.52v1.42l-1.2 1.31-1.74.32-1.31 1.64-1.31 1.52-.87 1.53-1.31 2.5-.98 4.79.22 1.64.54 2.61.55 2.73.54 2.61.33 1.63.98.77.65.54 1.09.33 1.42.65 1.52.33 1.31.22 2.4-.66 2.72-3.27 2.18-2.94 2.07-3.81.87-1.74.98-.66.22-.1.98.1.87.22 1.31.33 1.42 2.4 1.19 2.17 1.86 2.18.98 1.75.87 1.52 3.48 2.07 2.95 1.85 1.52 1.85 1.53 1.2 1.09.44 3.15.54 2.95.66 2.83.32 1.31.11 1.96-.43 1.3-.44.77-.76.54-.66.22-.54.11-1.42-.33-1.19-.44-2.07-.54-1.42.11-2.4-.44-7.4-.76-.66-.98-.87-2.83-1.52-1.53-.98-.87-.55-.87-.65-.22-1.2-.22-.87.22-.33 1.2-1.2.87-.87 2.51-1.2 3.16.98h3.16l1.85-.21 1.2-.22 1.74 1.41 1.09 1.42.87.65 1.52.98 1.64-.21 1.2-.11 1.09-.66 1.52-.76.55-.22 1.41-.32.66-.33.76-.33 1.96-1.85 1.96-.98 2.62-2.72 1.41-2.18.55-1.09.21-4.47v-2.5l-.11-1.64.77-2.94-.33-2.83-.65-2.5-2.18-1.97-1.2-.32-1.74-.55-1.96-.65-1.2-.76-.33-1.2-.33-1.09.77-.87.98-1.31 2.07-2.29 1.2-1.52-.66-2.83.76-3.49.11-.65 1.2-2.18.87-1.53 1.2-1.96.87-1.2.87-1.3v-2.73l-.21-.65-.66-1.96-.32-.55-.44-.65-.98-1.2-2.61-2.07-2.84-2.07-3.05-2.28-1.3-1.42-.77-.98-.65-1.96-.55-1.53v-1.41l.11-3.27.11-1.31.33-2.18.87-2.5 1.63-4.14 1.64-1.96.76-1.09.98-.98 2.83-1.85 1.2.11 1.42.11.87.65.87.76 1.74 1.31 3.16 1.96.88.22 1.74.87 2.18.22 1.85.21h1.42l2.07-.21 2.61.32 1.85.33.66.11 1.08.54 1.97.98 4.35 2.18 3.49 1.31 2.29.11 1.74-.44 1.96-.54 1.74-1.64 1.2-1.09 1.64-1.74 1.09-1.2.87-.76.21-1.63.44-2.94.11-1.42.11-1.63.11-.98.76-1.31.87-1.31.55-2.94.21-1.74-.65-1.85-.33-1.09-.65-1.31-.76-1.63-.11-2.84v-.98l.54-.98.33-.76.54-1.09.55-1.31 2.07-3.26.22-2.51.11-1.42-.88-1.74-.43-1.09-1.85-.11-1.42-.11-1.42.11-1.3.11-1.75.22-1.3.76-1.64 1.2-.98.76-1.85 1.75-2.61 1.96h-2.51l-1.31-1.09-.54-.44-.66-.65-.65-1.74-.43-1.2-.44-1.31-.33-1.63-.43-2.07-.33-2.07-.33-1.75.44-1.63.11-.98.43-1.42 2.62-4.35 2.83-2.73 2.94-.98 2.94-1.96 3.49-4.25 2.4-2.39.98-1.09.98-1.42 1.2-1.41 2.39-1.75 1.74-1.09 1.97-1.09 1.08.33 1.42.33 1.64 1.2.65.54.65 1.74-.54.33-.87.76-.77.55-.76 1.63-.54.98-.88 1.96-.98 1.96-.98 1.53.11 5.66.66 1.2 1.3 2.4 1.64 6.64 1.41 1.31.77.54 2.72 2.84 2.4 2.61 1.74 2.07 1.52 2.18.11 3.05 1.42 3.05.65.76 1.31 1.2.98.98 3.16 4.9 3.81 5.45 1.53 2.39 2.07 4.58 3.59 5.23 4.14 5.66 2.07 3.82.87 2.06 1.09 2.4 2.29 4.03 2.4 2.51 1.74 1.63 1.63 1.31 1.53.32 2.51.33 7.29.66 3.16.21 3.49-.11 4.03-.1 2.29-.11 5.66-1.2 2.73-.55 5.88-1.41 3.16-1.2 1.74-1.85.22-1.85-2.07-2.4-1.53-.65-.98-.55-1.85-1.09-1.85-1.09-1.74-.54-2.18-1.31-1.96-1.74-2.84-2.4-1.96-2.4-1.09-2.28-.21-1.85v-2.84l.65-.87.76-.87.44-.54 2.18-1.64 2.83-2.39 2.83-2.73.76-2.61.66-1.85.87-4.14.76-2.4 1.85-.87 1.53.43.54.11.77.87 1.09 1.2 2.72 2.4 2.18.11 2.18.87 1.63 1.96 1.96 1.42 2.73.98 1.41.43 1.42.44 3.16-.11 2.39-.98 2.84.43 2.83.55.54.22 1.75-.44.43.11.87.22 2.73.54.54-.11.98-.1 1.85-.22 3.05-.66 2.07-.65.66-.44 3.92-2.72 1.63-2.18 1.2-1.52.11-2.18.98-1.74.87-1.31.44-.87 1.31-2.07.76-.98.65-.87.66-.88.65-1.74.33-.76-.55-2.51-2.07-.98h-1.63l-1.42.11h-.98l-2.18-.22-2.94-1.19-2.94-1.86-4.69-4.24-.76-1.09-1.2-1.75-.32-.54-1.09-3.05.32-1.31.22-1.74.22-.76.54-2.29 1.97-2.07 1.19-.87.77-.44 1.74-.43 1.2.87.11.65.87 2.62 1.41 2.07.55.1.87.33 1.74.55 2.18.32 1.2.22 2.83-1.63 1.86-2.07.98-1.2.43-.65.76-1.31.77-1.2.54-2.72-.76-2.62-.87-2.18-.33-.87-.44-1.2-.32-.76.22-2.61.21-2.73v-1.41l.11-.66-1.09-2.61-.87-2.18-.54-1.63.21-2.73.77-1.63.76-1.52 1.74-2.4 2.51-.87 1.2.98.98 1.41.65.44 1.2.54 1.42.55 1.3.33 1.31.21 1.74.33 1.2-.22 1.31-.32.98-.77.76-.65 1.09-.87 2.18-2.51.65-1.74.77-1.63.54-.88.54-.98 1.53-1.41 1.09-.98.65-.77.77-1.08.76-2.18.11-.66-.66-2.07-.87-2.17-1.31-2.4-1.19-2.07-.66-.98-.43-1.64-.33-1.3-.44-1.31-.32-1.96-.33-1.85v-1.09l.11-.87.11-1.75.11-1.3.87-4.03.65-2.84.87-3.48.22-2.29.11-.87.87-.54.77-.55.65-.33.87.11 1.63.44 1.64 1.52 4.79 3.38 2.07.87 1.31.76 2.94.22 2.61-.87 2.84-.54.65-.66.98-.87.98-3.48-.11-2.07-1.2-.88-1.74-.43-1.52-1.64-.44-.87-.76-1.41V194l.22-1.3.1-1.42 1.86-2.07 2.18-2.07 1.3-.87 1.75-1.09 1.41-1.63 1.74-1.75 1.31-1.63 1.31-1.42 1.74-2.94 2.29-2.94 1.85-1.2 1.2-.65 1.63-.76.77.11h.87l.54.43 1.2.98-.33 1.09-2.39-.11-1.09 1.75-.11.43-.76 5.56 1.09 3.16 1.09 1.52.76.55 1.41.87 2.84.76h3.16l4.24-.87 2.07-.33 4.03-.54 3.6-.11 1.74.54 3.27.98 2.94.87 1.53.77.76.43.22 1.31.22 1.63.76 3.38 1.63 3.27 1.64 1.74 1.41 1.53 1.31 1.19 1.31 1.31 2.72 1.09 1.2.33 1.31 1.63.98 2.07.76 2.72 1.52 2.73 2.62 2.18.76.32 1.64.55 1.96.32 2.07.55.76-.33 2.29-.87 1.41-1.31 1.31-1.52 1.42-1.85.76-1.85.87-1.97.33-1.63.43-1.74-.11-.66-.32-1.63.65-2.61.76-1.2 2.4-3.71.54-1.63.77-.65.43-.44.44-.33.87 2.07 1.53 2.73 2.06 2.18 2.29.76h.87l3.27-.11 2.4-.11 2.61-1.2 2.73-1.31 1.74-.1 2.18-1.86 1.85-.43 1.42-1.42 2.07-.54 1.52-2.07.76-2.07.55-1.53-.22-1.3-.33-1.2-.32-1.31-.44-.44-.76-.98-.76-.54-.88-.65-.43-.11-.55-.22-.54-.22-.33-1.2-.11-.65.22-.87.55-1.42 1.85-1.85 2.18-1.31 2.94-1.63 2.83-1.31 1.42-.32 1.52-.33.55.22 1.85.54 2.29 1.53 2.61 1.74 1.42 1.96 1.41 1.63 4.91 5.01 2.94 2.4 2.5 1.2 1.09.22h.87l1.75-.98 1.74-2.29.11-3.6.87-3.15.87-1.75 1.09-1.85 1.42-2.07 2.07-1.31.98-1.09 1.74-1.63 1.31-1.96.98-1.09.87-.87.98-.55.76-.43 1.42-.65 1.74-.33.66.22.87.43.76.33.33.76.54 1.42-.54 2.83.11.76.32 1.2.33 1.42.54 2.18.33 1.19.11 2.18-1.53 2.18-.87 1.85v2.62l.33 1.3.22 1.2 1.96.98 2.39-1.2 1.53-3.7 1.52-3.05.77-.44.87-.65.76-.54 1.85.32h.77l.98.44.76.33.65.32.87 1.96-.1.77-.11 1.85-.33 3.81-.33 2.07.33 2.07.44 2.07.54 1.2 1.42 2.39 1.74 1.75 1.63 1.63 1.09.65 1.42.88 1.74.98 3.27.54 6.86-1.31 2.29-1.19 3.92-2.4 1.31-.76 2.51-3.16 2.17-6.43.88-.87.87-.98.87-.98.76-.55 1.42-.98.76-.54 1.63-.11 1.31-.11 1.31 1.09 1.63 1.42.76.87.99 1.41 1.96 2.4.65 1.2 1.85 3.7.11.98.33 2.94.43 1.75.33 1.3.44 1.75.65.87.44.87.98 1.31 1.52 1.41 1.2 1.75 1.96.76 2.4-1.42 1.63-2.72 1.53-2.07 1.41-1.85 1.64-1.53 3.48-4.35 2.29-1.75.98-.76.33-.11 1.2-.22 1.19-.43 1.2.22.66.21.98 1.75.87.76 1.41.98 1.64.65 1.74.55 2.29-.22 1.52-.11 1.53-.33 3.59-.87 1.75-.54 2.18-.55 1.08-.22.99-.1h2.94l1.74 2.28 1.09 5.01.87 1.09 1.85 2.51 1.75 2.29 1.41.76 1.2.87 3.7 1.31 3.82-.11 6.53-.44 3.49-.98 2.83-1.52 2.4-1.96 3.7-3.05 1.42-3.27-.44-2.29-.43-.33-1.09-.43-2.4.76-1.2.44-.76.32-.55-.87-.76-1.09-.32-1.09-.11-.76-.22-1.09.87-2.29.76-1.74.98-1.09 2.29-2.29 3.16-1.96 2.83-1.74 2.4-.54 2.4-.44.87.22 2.72.98 1.42.22 3.26.21 4.8-.65 3.48-1.09 4.25-1.96 3.38-.98 4.58-3.16 2.28-1.52 2.18-2.29 2.94-3.16 2.4-2.61 1.42-1.64 2.07-1.63 1.08-.87 3.27-1.42 2.29-.44 2.07-.98.65 1.31.22.44 2.83 6.1 6.54 13.61 4.68 10.57 3.6 7.52 2.94 6.1 2.51 5.33 3.48 7.41 1.09 2.4 1.42 3.05.54 1.41 1.96 4.14 1.09 2.29 3.27 7.19 2.83 5.88 2.29 4.9 3.16 6.65 3.05 6.75 5.45 11.77 2.61 5.77 1.42 2.61.76 1.75.65 1.41 1.64 3.38 3.38 7.3 2.72 5.66 4.25 9.15 2.61 5.88-1.09 3.38.11.98-.11.87-.11 1.09-.65 2.51-1.42 5.44-.21.66-.66 2.72-1.2 4.25-6.75 26.36-1.31 4.79-1.2 4.69-.65 2.72-.43 1.42-2.84 11-1.2 4.68-.65 2.51-1.31 4.79-1.19 4.69-1.31 5.11-.66 2.51-1.74 6.75-3.05 11.33-.43 1.64-.99 3.7-1.41 5.66-.76 2.62-5.67 21.79-1.09 4.13-.87 3.6-.76 2.83-2.73 10.35-.21 1.2-1.42 5.01-4.14 16.23-2.07 7.52-2.72 10.56-1.42 5.45-3.7 13.72-1.31 4.91-.22.98 11.22 2.07 26.8 7.51 2.51.76 5.01 1.42 4.57 1.2 11.33 3.16 5.78 1.63 2.72.76 2.61.77 6 1.74 6.21 1.96 5.33 1.52 11.22 2.84 4.14 1.09 4.58 1.09 13.94 3.48 3.38.87 21.24 5.56 5.78 1.52 3.27.77 2.17.54 18.09 4.79.11.11 14.48 3.81.55.22.44.22.32.22.44.43.43.55.33.54.22.44.43.87 1.75 3.7 1.2 2.62 1.63 3.59 1.63-.98-.32-.76-2.07-4.47-6.21-13.29-8.28-18.19-3.27-6.97-4.47-9.26-3.26-6.21 2.5.88 1.85 1.41 1.31-.54.65-.22h.77l1.96.22.65.21.98.33 9.81 2.72 1.63.44 3.49 14.38 4.79 20.48.76 2.94 1.09 4.57.98 4.03.55 2.07.65 2.95 1.2 5.01 1.41 4.9 1.53 4.79 1.63 4.79 1.86 4.8 2.5 5.77 18.63 40.09 5.34 11.54 2.18 4.58 5.99 12.52 3.59 7.19 3.05 5.45 2.73 4.68 2.5 4.36 1.42 2.4 1.63 4.25 1.64 3.48 2.17 4.8 1.31 3.15 3.27 7.96.98 2.28 1.2 2.84 1.63 3.37 1.86 3.92 1.3 2.95 1.53 3.15-4.03 1.09 1.41 2.84.11.32.22.55 4.47 9.36 1.19 3.06 3.27 6.2 4.8 9.92 4.79 9.15 26.8 59.8 11.65 25.82 8.5 17.75 4.79 9.7 6.21 13.5 6.98 14.27 10.02 21.24 2.72 5.67-1.96-.98-3.59-3.49 22.44 47.93 3.81 7.41.44.98-1.64 6.86-4.25 17-2.07 7.95-.32 1.41-4.14 16.45-.66 2.94-.32 1.31-1.86 7.3-2.5 9.58-1.74 6.76-1.2 4.46-7.96 29.85-3.81 13.94-.43 1.96-3.49 14.71-2.51 9.26-.76 12.31-.65 7.62-.33 4.25-.54 3.92-.87 3.71-1.75 7.84-1.2 4.36-2.61 10.45-4.14 15.25-1.63 6.76-3.93 11.33-2.72 7.62-2.18 7.52-.54 2.18-1.85 7.4-1.75 5.99-2.29 8.28-4.57 12.42-.98 2.83-.44 1.42-2.83 9.48-1.52 6.21-3.49 13.61-6.1 23.86-.11.54-1.2 4.69-.65 2.5-5.01 19.39-1.75 7.08-1.63 6.32-5.77 22.11-2.18 8.39-.55 1.96-.21.98-.77 2.94-.65 2.18-.76 2.72-2.51 9.48-3.27 12.2-.22 1.09-.65 2.29-.54 1.96-.11.76-3.05 11.44-2.51 9.37-.87 3.16-2.72 10.34-3.38 12.86-.22.54-1.31 5.01-.98 3.82-.1.54-.44 1.63-.65 2.4-2.07 7.95-2.29 8.28-1.96 7.19-.33 1.09-.65 2.29-2.94 8.82-1.2 4.14-1.2 3.81-3.7 13.95-.55 2.28-.76 2.73-1.75 5.88-.98 3.59-.76 2.94-.43 1.75-.33 1.63-1.63 6.65-.44 1.63-.87 3.6 2.61.65.98.22 2.51.54 1.31.44.76.21.54.22.98.44.77.54.76.55 1.31.98 1.19 1.31 3.05 3.48 4.25 4.9 2.51 2.51 1.31 1.2 1.3 1.19 1.53 1.2 1.2.87.87.66.87.54.44.22 1.08.65 1.2.66.98.43 1.31.66 1.42.43 1.2.55 1.41.32 1.96.55 3.71.76 6.53 1.53 4.36.98 20.92 5.01 4.9 1.2 1.41.32 1.31.22 4.69.98 1.74.33 2.07.43 2.07.44 2.72.65 3.6.87 1.96.44 7.73 1.85 2.51.55 13.83 3.26 3.05.77 1.31.32 1.09.22.87.22.87.11.98.11h.77l.65.11h.54l2.73-.11 10.46-1.09 6.1-.66 8.6-.98 4.47-.54 9.26-.98 6.21-.66 1.74-.1 3.38-.33 4.14-.44 7.3-.65 3.16-.44 3.26 1.31h1.31l.87.22.98-.11 6.1 1.74 8.94 2.51 2.39-.98 2.18-.44 4.36-2.61 1.31-.66h1.96l5.66 1.31 6.97 1.85 5.45 1.42 3.92 1.09 5.01 1.31 3.38.98 5.88 1.52 9.37 2.18.55.11.43.11.55.11h.43l.33-.11.44-.22.54-.22.76-.43 1.85.54 6.87 1.74 18.84 5.12 25.6 7.08 3.38.88 5.23 1.3 3.6 1.09 1.08.33 2.29.65 1.31.33 1.31.43 8.17 2.29 13.29 3.6 2.18.54 2.39.66 2.29.54 2.29.65 1.41.44.98.33.88.21 1.3.55 2.29 1.2 1.2.54 1.09.44.87.32 1.74.55 2.07.65 2.94.87.98 2.07.66 1.53 1.63 3.48 3.16 6.98 2.83 6.64 2.07 4.36.98 2.29.33.76.33.98.11.32.11.33.1.44.11.43v.33l.11.44v.32l-.11.44-.11.54-.1.55-.11.76-.55 1.85-1.85 7.19-2.07 8.06-.22.44-3.59 14.05-1.09 4.25-1.2 4.68-1.09 5.23-1.31 5.34-4.25 16.23-3.26 12.42-.44 1.63-.54 1.74-.44 1.75-.98 3.37-.98 3.82-2.18 8.27-2.4 9.26-3.16 12.09-1.63 6.32-5.77-1.63-2.18-.55-2.4-.65-1.63-.44-8.39-2.39-8.39-2.29-3.92-1.09-.76-.22-.66-.21-.54-.11-.65-.22-1.75-.55-3.16-.87-5.99-1.63-2.07-.55-12.2-3.37-9.48-2.4-.98 3.6-2.07 7.95-3.37 11.44-2.95 10.34-11.11 41.51-1.09 3.81 1.53.43 2.18.55-21.46 73.2-3.27 4.14-11.98 43.35-8.72 31.7-.98 3.05-.22.76.66.33.76.33 10.35 5.66 31.59 17.21 16.34 8.83 4.25 2.5 1.31 1.09-.66 2.29-16.34 58.82-4.47 16.67-22.98 85.18-2.94-1.09-1.85-.33-2.07-1.41-8.07-7.3-1.96-.87-51.31-14.27-.32 1.41-1.53 5.56-2.83 10.02-2.18 7.74-2.18 7.95-2.29 8.49-2.17 8.07-1.2 4.13-2.18 8.28-1.09-.32-1.74-.44-11.12-3.05-54.25-14.81-2.17-.55-.66 2.4-17.76 69.06-2.06 8.06-.99 3.92-4.35 17.1-6.32 24.4-1.09 4.36-.87 3.05-.11.65-1.2 3.49-1.31 3.49-.98 2.28-1.63 3.71-2.4 4.9-3.05 6.64-.54 1.2-3.38-.87-21.13-5.99-20.37-5.56-18.96-5.33-8.17-2.07-63.95-17.54-1.63-.33-6.43-1.74-19.5-5.45-19.61-5.33-25.6-7.08-19.17-5.45-31.48-8.82-17.87-5.23-1.2-.44-.43-.22-.44-.21-2.29 4.46-1.19 2.4-1.09 2.29-1.09 2.39-.98 2.51-2.29 8.28-6.97 25.16-9.15 33.55-2.51 9.59 4.14 1.52 21.13 8.5 1.2.43.55.22.54.11.66.11.54.11h2.51l.54-.11h.44l.43-.11.33-.11.43-.11.44-.22 10.89-4.03 8.72-3.37.98-.33 1.09-.44.54-.21.44-.11.22-.11h.98l.65.11 1.2.32 4.03 1.2 6.21 1.74.54.11h.77l.43-.11h.33l.43-.21.44-.22.44-.33.43-.22.44-.32.32-.33.44-.54.22-.55 5.55-9.69 8.5-15.25 2.29-4.03.54-.88.22-.32.22-.33.33-.33.21-.21.44-.66.54-.65.33-.44.44-.43.21-.33.33-.22.33-.32.54-.44.66-.54.54-.33.33-.33.33-.22 1.52-1.19.22 1.09 1.09 7.29 1.09 5.01 4.14 25.82 2.18 13.94.54 5.56 1.09 6.86.98 6.54.33 3.37-1.96 6.98-2.84 11.11-.98 5.01-.98 3.05-2.07 5.34-2.72 6.2-2.51 1.09-3.48.88-4.8.98-4.9 1.3-4.9 1.96-.44 3.38-.21.87-.33.76-.76.11-2.62.11-17.32-4.9-52.4-14.71-7.41-2.06-12.52-3.6-2.51-.65-4.36 16.45-10.56 38.67-6.76 24.61-1.09 4.36-19.71 71.46-.55 2.29-1.31-.33-33.77-9.15-16.88-4.47-16.89-4.68-33.77-9.15-33.66-9.15-3.7-1.09-37.04-9.59-1.09 4.25-.87 3.92-.55 3.27.98 3.27.98 2.07 1.42 1.52 3.27 1.75 1.52.87 1.85.54 1.97.22h3.26l3.05-.76 3.49-1.42 1.96-.76 2.62-.11 2.28-.87 3.27-1.53 2.94-1.3 3.16-.44 3.81.11 4.14.55 4.91 1.08 2.94 2.07 3.48 3.38 1.86 3.27 2.17 3.38 1.53 4.46.43 4.58.22 3.7-.76 3.49-1.96 5.77-2.4 5.34-2.39 3.92-2.4 3.48-1.74 3.38-2.94 9.04-1.09 3.05-.55 2.73-.22 2.94.11 3.7.33 4.03-.55 3.81-.43 3.27-.87 2.72-1.53 1.75-5.23 5.34-2.28 2.83-1.42 4.35-1.09 3.05-.33 3.6-.32 2.83-.88 2.94-.65 2.94-.11 2.4.11 2.51-.33 3.92-1.3 3.48-1.75 3.71-1.74 2.94-1.42 5.34-1.63 4.03-.44.87-.43 1.41-.55 1.64-.43 1.52-.44 1.96-.32 1.85-.11.88-.11 1.09-.11.43-.33.65-.22.44-.32.33z" stroke-linejoin="round"/></defs><use xlink:href="#b" fill="#cee3e4" stroke="#cef5f5" stroke-width="5.76"/><defs><path id="c" d="M1965.12 1332.87l-4.35-1.2-4.91-1.31-3.26-.87-2.95-.76 2.4-8.93 2.83-11.22.66-1.42 4.46-17.65.88-3.16 1.08-3.59 1.86-7.19.87-3.7.43-1.96 2.84-10.57 2.39-9.15 1.31.44 7.95 2.17 2.18.66.76-4.69 1.96-7.4 2.07-7.63 4.91-18.52-4.69-1.2-6.75-1.74.98-3.81-.22-1.96 2.72-5.01-12.63-3.6-6.65-1.96-14.81-4.03-15.25-4.36-1.86-.54-.65-.22-2.83-.87-1.96 7.19-1.2 4.68-1.31 5.23 1.31.33 3.16.76 2.07.55 4.68 1.19 6.54.66 3.48.98-1.74 7.08-1.74 6.64-16.89-4.57-2.94-.76-.54-.22-.66-.11 1.09-4.03-1.63-.44-1.31-2.28-.54-.11-.66.22-.54.32-.98 1.2-.44.33-.11.11-.54.21h-.87l-.77-.21-5.77-.44.87-3.16.76-2.83.88-2.94-2.07-.66-2.4-.65-4.03-1.2-5.56-1.63-1.52-.44-1.53-.54-1.3-.44-2.73-.76-4.46-1.42-5.34-1.63-7.85-2.29-4.24-1.3-4.47-1.31-6.54-1.96-2.18-.66-1.74 6.76-3.38 13.07-2.5 9.69-3.81 14.49-.88 3.38-.43 1.74-.55 2.62-.11.65-.98 4.25-3.15 12.2-2.51 9.26-3.38 13.61-2.83 10.68-1.31 4.46-9.69-2.83-5.34-1.52-4.58-1.31-7.84-2.4-1.74-.54-.87-.66-.66-.43-.76-.33-.76-.22-1.64-.54-.76-.33-.87-.21-4.03-.99h-.87l-.44-.1-.43-.11h-.44l-1.42-.44-.98-.33-.43-.21-.66-.22-.54-.55-1.53-1.41-1.3-1.2-.55.33-.54.32-2.18 1.42-1.09.76-.98-2.39-.33-.88-.43-.98-7.96-16.88-2.5-5.12-4.69-10.13-9.36-20.04-3.93-8.5-.65-1.31-5.01-10.56-2.07-4.58-2.51-5.12-1.09-2.29-4.68-9.26-.33-.54-2.07-4.36-2.07-4.68-4.14-8.72-5.88-13.07-1.63-3.48-1.64-4.03-1.09-2.4-2.07-4.36-1.85-4.03-1.41-2.83-7.52-16.01-1.31-2.51.33-1.2-5.23-11.32-.98-2.51-1.85-1.09-3.38-7.08-2.29-5.01-10.02-21.57-4.36-9.15-1.85-4.25-3.16-6.64-.43-.98-.55-.98 1.09-4.58-1.2-3.37-12.53-33.01-1.85-1.31-1.09-.76-5.99-3.92-2.72-5.67-10.02-21.24-6.98-14.27-6.21-13.5-4.79-9.7-8.5-17.75-11.65-25.82-26.8-59.8-4.79-9.15-4.8-9.92-3.27-6.2-1.19-3.06-4.47-9.36-.22-.55 3.71-1.74 3.59-1.74 2.72-1.31 2.73-1.2 3.92-1.74 9.48-3.92 3.7-1.64.44-.32.65-.22.87-.11 2.62-.87 3.26-.55 1.2-.21 1.31.21 9.15 1.64 7.19 1.2 1.74.21 16.34 2.84 36.28 6.53 1.74.44 3.82.32 4.03-.32 3.92-.55 2.29-.54 3.16-.87 3.48-1.31 2.94-1.42.66-.32 15.25-11.77 2.29-1.74 2.72-2.18 3.27-2.4 2.72-1.52 2.72-1.09 2.73-.76 2.94-.77.33-.1-.33-.44.54-.11 1.96-.22 1.53-.11h1.96l1.96.22 1.96.22 1.85.44 1.96.43 1.75.65 1.09.55 3.7 1.42 1.2.65.54.98 3.38 1.52 1.09.44 1.2.44 1.31.43 1.41.55 1.31.43 1.09.33 1.52.43 1.2.33 3.05.87 1.2.33 17.65 5.23.33.11 10.13 2.94 16.88 5.01 1.42.43 2.94.88 6.64 1.96.77.21.65.11.98.22 6.76 1.53 2.72.76 1.31.33.98.21 1.74.55 1.31.33 10.45 3.05 3.16.98 3.27.98 2.83.76 5.23 1.63 9.59 2.73 4.79 1.41 11.66 3.38.98.33.98.21 2.4.66 1.74.54 5.23 1.53 5.88 1.63.55.11 10.67 3.16 5.56 1.63 2.83.87 6.21 1.86 8.39 2.39 3.92 1.2 5.12 1.53 7.41 2.17 1.3.44 1.2.33 12.75 3.59 2.4.65 5.22 1.53 11.77 3.49 1.09.32 8.93 2.62 3.49 1.09 2.94.87 1.42.43 1.74.44 3.16.98 4.9 1.31 8.82 2.5.77.22 6.42 1.85 4.47 1.31 5.56 1.52.32.11 5.23 1.53 3.71 1.09 8.49 2.5 13.29 3.92 6.65 1.86 11.22 3.26 3.27.87.54.11 4.03 1.31 5.01 1.53 2.73.76 3.48.98 2.73.76 8.93 2.62 17.97 5.12 4.58 1.19 11.87 3.38 4.91 1.42 3.92 1.09-2.73 10.45-3.26 12.42-.44 1.74-.22 1.09-.43 1.53-1.96 7.3-.99 3.81-.87 3.38-.76 3.05-.33 1.19-.98 3.93-.98 4.14-4.25 16.33-.1.55-1.97 7.52-2.61 10.13-1.09 4.03-1.42 6.1-2.61 11.65-.87 3.38-.33 1.41-.76 2.84-.44 1.96-.76 2.94-.43 1.52-.66 2.84-.98 3.48-.33 1.31-1.63 6.64-.54 1.96-.66 2.18-3.81 15.04-.98 3.92-6.1 23.53-2.18 8.71-2.07 7.73-1.42 5.12-.43 1.96-2.51 9.92-.54 1.63-.22 1.09-1.96 7.3-.33 1.31-1.09 4.03-.32 1.41-.22.66-1.53 5.44-1.74 5.88-2.29 7.74-2.61 10.56-2.4 9.37-6.43 24.4-1.3 5.34-1.75 6.75-1.74 6.76-.44 1.52-.43 1.31-.22 1.09-.22.87-1.09 4.14-1.74 6.54-2.72 9.91-1.42 5.66-1.31 5.01-1.09 4.25-2.39 9.26-1.31 5.01-.22.87-.87 3.27-.33 1.09-1.63 6.1-2.18 8.61-.76 2.61-.55 2.29-.21.76-3.49 13.62-1.63 6.31-1.2 4.91-1.09 4.57-.55 1.85-.21 1.31-.44 1.74-2.4.33-8.82 1.2-4.79.65-4.91.76-2.17.33-1.31.33-.76.22-1.09.32-1.86.66-2.07.98-1.41.65-1.96.87-1.2.44-.76.22-1.53.21-1.41.11h-5.45l-1.74-.11-1.64-.21-.76-.22-.65-.22-7.19-1.96-4.47-1.2-4.03-1.09-.98-.22-3.6-1.09-1.41-.43-.87-.11-.66-.22h-.65l-.87.11h-.66l-6.21 17.65z" stroke-linejoin="round"/></defs><use xlink:href="#c" fill="#9dc8ca" stroke="#9dd7f0" stroke-width="5.76"/><defs><path id="d" d="M2235.62 1731.77l-.33.98-.11-.11-.33-.11-4.9-2.07-6.54-2.07-.21-.22-4.25-3.15-4.25-6.87-2.18-5.88-1.85-.98-2.29-.33-2.83-1.74-3.38.22-5.99 1.09-4.79 1.52-5.01.44-3.82.76-4.25-.22-5.44-.65-3.27-1.96-1.53-2.4-.43-4.68.33-2.94.65-2.84.33-2.28 3.05-12.09.65-2.84v-.21l.33-3.49.98-2.94-1.53-2.18-.54.22-.55-1.53-4.03-2.72-5.88-4.36-4.14-2.18-7.41-2.5-11.65-4.03-16.56-7.19-9.15-5.56-2.62-1.41-2.61-.55-5.01-2.94-24.73-7.51-10.03-3.05-3.26-.88-3.49-1.08-5.23-.55-9.8-.87h-6.32l-21.9.54-5.99-.65-7.84-1.42-3.6-1.85-3.05-2.94-3.37-4.47-4.91-8.49-1.09-1.85-4.9-9.7-3.48-5.01-3.05-3.7-.22-.22-1.42-1.85-4.03-4.58-3.38-3.27-.98-.87-13.18-14.16-9.04-11.98-7.95-7.73-.33-.33-7.73-4.47-5.89-1.96-2.5-1.63h-2.62l-4.14-1.2-3.7-1.85-5.77-3.49-6-1.2-4.46-.32-2.18-.11-.11-2.29-.33-1.74-.11-1.42-.32-1.52-.55-3.92-.32-1.86-.33-1.52-.55-2.51-.54-2.5-.65-2.73-.11-.32-.44-1.53-.54-1.63-.44-1.31-.33-.87-.43-1.31-.33-.76-.11-.54-.76-1.86-.76-1.85-.98-2.28-.98-2.07-.98-2.07-1.31-2.4-.55-.98-.76-1.31-2.18-3.38-1.41-2.72-3.49-6.53-1.09-2.07-.65-1.42-5.67-11.55-5.99-12.31-9.04 6-.54.43-.44.22-.22.22-.22.21-2.39.88 1.09 4.24 2.18 9.7.76 2.5 1.2 2.18 1.19 1.64.88.87.87.65.65.44.65.43.66.22.76.22.76.11h.88l.1.54.22.55.22.43-2.51 1.53-4.46 2.72-2.29 1.42-2.29 1.41-.43 18.3-.55 20.16-.11 3.16v1.74l-3.27-.44-5.77-.87-8.17-.98-8.93-.11-2.4.55.22-1.86.11-2.17.11-2.84.54-5.01.33-2.61.11-1.09v-.33l.32-2.72.22-2.51.22-2.39.44-4.36.76-7.84.65-5.56.11-.54v-.55l.11-1.63v-.66l.11-1.3v-4.25l-.11-2.61.11-.77v-.65l-.22-1.96-.33-3.16-.21-1.09-.55-3.92-.22-1.53-.54-2.18-.76-2.83-.88-2.72-.87-2.83-1.09-2.62-.65-1.41-.54-1.2-2.73-5.67-2.29-4.68-2.94-6.54-1.19-2.28-4.91-10.46-.43-.98-5.34-11.33-.33-.76-1.41-2.94-9.59-20.59-.98-1.96-4.03-8.61-1.09-2.39-.44-.98-.43-.77-.76-1.74-.88-2.07-3.05-6.32-5.01-10.89-.76-1.52-1.53-3.27-.65-1.31-.98-1.85-1.2-2.07-1.2-2.07-2.07-3.16-1.74-2.83-3.16-4.69-1.96-3.16 1.09-1.63 4.03-5.66 8.82-13.4.88-1.64 1.74-2.61.87-.98.76-.87 1.2-1.31 1.64-1.09 1.74-1.31.98-.76 1.09-.76 2.18-1.42.54-.32.55-.33 1.3 1.2 1.53 1.41.54.55.66.22.43.21.98.33 1.42.44h.44l.43.11.44.1h.87l4.03.99.87.21.76.33 1.64.54.76.22.76.33.66.43.87.66 1.74.54 7.84 2.4 4.58 1.31 5.34 1.52 9.69 2.83 1.31-4.46 2.83-10.68 3.38-13.61 2.51-9.26 3.15-12.2.98-4.25.11-.65.55-2.62.43-1.74.88-3.38 3.81-14.49 2.5-9.69 3.38-13.07 1.74-6.76 2.18.66 6.54 1.96 4.47 1.31 4.24 1.3 7.85 2.29 5.34 1.63 4.46 1.42 2.73.76 1.3.44 1.53.54 1.52.44 5.56 1.63 4.03 1.2 2.4.65 2.07.66-.88 2.94-.76 2.83-.87 3.16 5.77.44.77.21h.87l.54-.21.11-.11.44-.33.98-1.2.54-.32.66-.22.54.11 1.31 2.28 1.63.44-1.09 4.03.66.11.54.22 2.94.76 16.89 4.57 1.74-6.64 1.74-7.08-3.48-.98-6.54-.66-4.68-1.19-2.07-.55-3.16-.76-1.31-.33 1.31-5.23 1.2-4.68 1.96-7.19 2.83.87.65.22 1.86.54 15.25 4.36 14.81 4.03 6.65 1.96 12.63 3.6-2.72 5.01.22 1.96-.98 3.81 6.75 1.74 4.69 1.2-4.91 18.52-2.07 7.63-1.96 7.4-.76 4.69-2.18-.66-7.95-2.17-1.31-.44-2.39 9.15-2.84 10.57-.43 1.96-.87 3.7-1.86 7.19-1.08 3.59-.88 3.16-4.46 17.65-.66 1.42-2.83 11.22-2.4 8.93 2.95.76 3.26.87 4.91 1.31 4.35 1.2 6.21-17.65h.66l.87-.11h.65l.66.22.87.11 1.41.43 3.6 1.09.98.22 4.03 1.09 4.47 1.2 7.19 1.96.65.22.76.22 1.64.21 1.74.11h5.45l1.41-.11 1.53-.21.76-.22 1.2-.44 1.96-.87 1.41-.65 2.07-.98 1.86-.66 1.09-.32.76-.22 1.31-.33 2.17-.33 4.91-.76 4.79-.65 8.82-1.2 2.4-.33 2.4-.32.98-.11 1.96-.33 11.87-1.74 2.18-.33 1.85-.33 15.36-2.17 1.86-.11v.54l-.44 1.64-1.42 6.42-.65 2.83-1.63 7.41 2.39.22 3.16.22 2.94.43 2.62.77.65.21 5.88.77 2.4-.66 2.83-1.41 4.03-2.62 3.71-1.2h3.27l4.03-.54 3.05-.98 3.48-.44 5.34-.11 1.63-.32 1.53-.22 1.52-.33.99-.76.87-.76 1.19-.44 1.53.11 2.94-.98.44-.43.87-1.09 1.52-.66 1.2-1.09.76-1.41 1.75-2.29 3.05-1.63 1.2-.55 2.07-.11h.32l1.75.55.76.32 1.31.44h1.19l.98-.33 1.31.11 2.51.55 1.74.32 1.42-.43 2.61-.55 1.63-.11 1.53.66 1.31.98 1.3.65.33.11 1.64.44 3.37.54.87-.11.88-.11.98.11 3.37-.98 2.18.11 1.96 1.31 2.29-.33h1.2l1.63-.11 2.18-.43 2.07-.22 1.85.11 1.75.32 1.41-.54 1.31-.11 2.18 1.09 5.77 4.9 1.64 1.74 4.03 4.58 2.5 3.16 4.47 4.79 3.59 3.49 3.16 2.72 1.75 2.29 1.74 3.27 1.74 3.59 1.74 4.47 1.09 4.24.88 6.21.43.77 1.2 2.17 1.96 2.4 1.53 1.53 5.33 5.99.77.76.98.76 1.41 2.4 2.4 2.61 1.74.77 2.4.1 2.4-.43 1.85-.55 3.05-1.09 3.7-2.5 2.83-2.29 1.64-1.85.65-1.53.76-2.61 1.09-2.51 1.86-3.48 5.66-6.43 2.07-1.85 6.32-4.03.65-.22 5.01-2.29 2.4-1.63 1.2-1.09.11-.11 1.2-1.41 1.41-.98 1.64-1.42.87-1.2 2.61-2.18 1.64-1.09 1.74-.43 1.74-.11 1.74.33h1.2l1.53.76 1.41.54 1.2.87.55.22.43.33-2.18 15.47 2.18 1.96 1.64.11.11.32.21.33.11.11.11.11.55.43.11.11.21.33v.76l-.54 1.96-.76 2.84-1.53 5.44-2.61 10.57-.22 1.2v.54l.11 1.2-.11.76-.44 1.85-.54 1.96.98.22 10.13 2.62 7.3 1.85 6.21 1.63 6.21 1.64 6.75 1.74 12.64 3.27 11.87 3.05 6.76 1.85-1.75 6.75-1.52 5.99-3.16 11.88-3.16 12.31-1.09 4.14-1.2 4.68-5.77 22.44-2.62 10.46-5.01 19.06-.65 2.5-2.51 10.13-1.41 5.34.76 1.42-.87.98-.65.65-.44 1.64-9.26 37.03-.76 2.94-.11.66-1.2 4.14-.11.87-.76 2.61-.22.98-.65 2.73-.22.87-.65 2.61-.11.66-1.09 3.81-.11.65-.87 3.27-.22.87-.65 2.72-.11.55-.77 3.05-.21.87-.88 3.27-.43 1.85-.55 1.74v.66l-.65 2.39-.22.87-.76 2.95-.11.65-.76 2.61-.22.98-.54 2.07-.22 1.2-.66 2.4-.32 1.52-.55 1.75v.54l-.87 3.05-.11.87-.65 2.4-.22.87-.54 2.07-.33 1.2-.76 2.94-.11.65-.66 2.4-.1.65-.55 2.18-.43 1.64-.66 2.39v.66l-.65 2.39-.11.55-.87 3.26-.22.88-.65 2.39-.22.98-.44 1.85-.11.55-.87 3.05-.87 5.01.22 1.2.11 1.31.11.43.11.65.21.88.11.43v.44l-1.31.32 1.97 16.02-10.68 16.88-81.16 21.79-.43-.22z" stroke-linejoin="round"/></defs><use xlink:href="#d" fill="#6bacaf" stroke="#6bb4d2" stroke-width="5.76"/><defs><path id="e" d="M2307.08 1346.7l-1.2 1.09-2.4 1.63-5.01 2.29-.65.22-6.32 4.03-2.07 1.85-5.66 6.43-1.86 3.48-1.09 2.51-.76 2.61-.65 1.53-1.64 1.85-2.83 2.29-3.7 2.5-3.05 1.09-1.85.55-2.4.43-2.4-.1-1.74-.77-2.4-2.61-1.41-2.4-.98-.76-.77-.76-5.33-5.99-1.53-1.53-1.96-2.4-1.2-2.17-.43-.77-.88-6.21-1.09-4.24-1.74-4.47-1.74-3.59-1.74-3.27-1.75-2.29-3.16-2.72-3.59-3.49-4.47-4.79-2.5-3.16-4.03-4.58-1.64-1.74-5.77-4.9-2.18-1.09-1.31.11-1.41.54-1.75-.32-1.85-.11-2.07.22-2.18.43-1.63.11h-1.2l-2.29.33-1.96-1.31-2.18-.11-3.37.98-.98-.11-.88.11-.87.11-3.37-.54-1.64-.44-.33-.11-1.3-.65-1.31-.98-1.53-.66-1.63.11-2.61.55-1.42.43-1.74-.32-2.51-.55-1.31-.11-.98.33h-1.19l-1.31-.44-.76-.32-1.75-.55h-.32l-2.07.11-1.2.55-3.05 1.63-1.75 2.29-.76 1.41-1.2 1.09-1.52.66-.87 1.09-.44.43-2.94.98-1.53-.11-1.19.44-.87.76-.99.76-1.52.33-1.53.22-1.63.32-5.34.11-3.48.44-3.05.98-4.03.54h-3.27l-3.71 1.2-4.03 2.62-2.83 1.41-2.4.66-5.88-.77-.65-.21-2.62-.77-2.94-.43-3.16-.22-2.39-.22 1.63-7.41.65-2.83 1.42-6.42.44-1.64v-.54l-1.86.11-15.36 2.17-1.85.33-2.18.33-11.87 1.74-1.96.33-.98.11-2.4.32.44-1.74.21-1.31.55-1.85 1.09-4.57 1.2-4.91 1.63-6.31 3.49-13.62.21-.76.55-2.29.76-2.61 2.18-8.61 1.63-6.1.33-1.09.87-3.27.22-.87 1.31-5.01 2.39-9.26 1.09-4.25 1.31-5.01 1.42-5.66 2.72-9.91 1.74-6.54 1.09-4.14.22-.87.22-1.09.43-1.31.44-1.52 1.74-6.76 1.75-6.75 1.3-5.34 6.43-24.4 2.4-9.37 2.61-10.56 2.29-7.74 1.74-5.88 1.53-5.44.22-.66.32-1.41 1.09-4.03.33-1.31 1.96-7.3.22-1.09.54-1.63 2.51-9.92.43-1.96 1.42-5.12 2.07-7.73 2.18-8.71 6.1-23.53.98-3.92 3.81-15.04.66-2.18.54-1.96 1.63-6.64.33-1.31.98-3.48.66-2.84.43-1.52.76-2.94.44-1.96.76-2.84.33-1.41.87-3.38 2.61-11.65 1.42-6.1 1.09-4.03 2.61-10.13 1.97-7.52.1-.55 4.25-16.33.98-4.14.98-3.93.33-1.19.76-3.05.87-3.38.99-3.81 1.96-7.3.43-1.53.22-1.09.44-1.74 3.26-12.42 2.73-10.45.76-2.62.44-1.96 2.5-9.59.65-2.94 2.51-9.26 3.27-12.52 2.61-10.57 2.29-8.93 1.2-4.58.87-3.37 1.09-4.25.65-2.4.66-2.83.54-2.5 1.42.32 9.15 2.29 2.29.54 4.24 1.09 2.07.55.88.22 2.28.65 13.4 3.49 2.29.54.55.11 7.62 1.96 2.51.65 2.39.66.55.11 5.55 1.41 1.64.55 2.61.65 1.75.44 1.08.21 3.06.77 10.34 2.83 5.02 1.2 2.83.76 1.63.43 4.9 1.2 2.73.77 7.62 1.85 2.4.65 7.08 1.96 5.56 1.42 5.44 1.52 2.29.55 4.14.98 8.82 2.29.98.32-.76 2.29-.65 2.18-.44 1.31-.21.87-.55 2.28-1.85 7.3-3.92 15.36-3.27 12.53-.66 2.18-6.97 28.43-.65 2.39-.22.98-.22.77 2.18.76 5.45 1.63 3.38.98 1.3.33 1.86.55 5.44 1.52 2.62.76 1.63.44 1.74.43 6.1 1.64 3.38.98 6.32 1.63 3.49.98 2.94.77 3.48.98 4.47 1.19 5.01 1.31 4.14 1.2 2.61.76 1.97.55 5.55 1.41 3.27.87 3.81 1.09 6.54 1.64 4.79.76 10.57 3.16 16.99 4.79.66.76 4.9 1.09.98.11 5.56.98.87.11.87.33.98.33 1.09.98.87-.66 1.63.44.88 1.31 1.19-.22h.77l2.72.76 3.27.87 10.35 2.94 4.57 1.09 2.62.44 2.39.32 2.18.44 1.64.54 1.09.88 1.52.65.65.33.33-.11.22-.22h.54l.77-.11h.98l.65.22.98.33 3.81 1.19 2.94.98 2.73.88 2.94.98 2.61.76 1.86.43 2.5.66 1.85.43.44.11.76-.22 6.86 1.75 6.98 1.74 1.96.54 13.72 3.49 8.07 2.07 4.35 1.09 3.6.98 6.32 1.63 8.71 2.18 8.61 2.29 1.2.54 3.81.88 2.94.76-.98 3.48-1.31 5.23-3.38 12.86-15.03 57.19 30.39 8.27 1.86.44.87.22.98.32-.76 2.29 1.41 70.37 1.2 46.84.44 32.03.43 11.11-.65.11-.76.1-.22.11-.87.11.32 6.76v13.29l-.11 5.01-.21 6.21-.22 5.01-.55 7.95-.43 6.97-.76 8.93-.55 8.17-.43 6.32-.22 2.4-3.6-.44-1.74-.44-2.94-.98-1.31-.98-.65-.65-.44-.44-.76-.54-2.83-.33-.66-.32-.32-.66-.22-.87-.44-.76-.54-.55-.76-.32-1.09.11-1.2.21-1.42.55h-1.63l-4.25-.22-2.18-.44-2.94-.76-.66.33-.76.43-1.52 1.42-2.84 2.18-1.96-.11-1.3.87-2.73 2.83-5.12 6.65-1.74 2.61-.44 1.31-.1.87-.66 1.85-1.31 1.86-1.74 1.41-5.12 4.69-2.18.76-5.01 1.96-3.7 1.09h-.55l-.98-.11-2.28-.55-1.97-.54-1.52.11-4.47 1.09h-1.74l-3.49-.87-1.85-.33-2.72-.76-4.25-1.53-1.09-.32-2.72-.77-.33-.11-.22-.1-.43-.11-.44-.11-.65-.33-.77-.22-1.3-.32-.98-.55-3.49-.54-2.5.11-2.95-.98-1.74-.77-6.75-1.74-2.18-.76-2.62-.55-2.07-.65-2.39-.33-2.4-.87-1.2-.22-1.41-.76-2.95-1.85-2.07-.65-4.57-1.64-2.07-.87-3.38-1.09-2.72-.44-1.53.33-5.01.55-1.96.43-1.31.76-1.41 1.31-.55.98-1.09 1.74-1.3 3.05-.77 2.18-.21 2.18.11 1.85 1.96 6.76 1.09 5.77 1.19 5.77.33 1.96.22 2.07-.22.98-.33 1.86-.54 1.19-.87.55-1.09.76-3.38 1.74-8.6 4.47-2.73.87-1.3.33-1.64.44-2.61.87h-2.29l-1.53-.44-1.63-1.09-2.4-4.14-4.68-5.34-2.83-2.83-.98-1.74-.11-.76-.44-1.53-1.96-2.18-3.27-2.28-1.63-.88-2.94-1.96-2.4-1.41-1.31-.98-.65-.22-1.96-.44-1.96.33-3.38 1.96-1.63-.11-.66-.98-1.2-1.2-2.28-1.09-1.86.11-4.24-.98-2.62-1.52-.76-.22-2.18-.33-6.43-.32-2.83-.55-2.94-.43-1.42-.33-.43-.33-.55-.22-1.2-.87-1.41-.54-1.53-.76h-1.2l-1.74-.33-1.74.11-1.74.43-1.64 1.09-2.61 2.18-.87 1.2-1.64 1.42-1.41.98-1.2 1.41-.11.11z" stroke-linejoin="round"/></defs><use xlink:href="#e" fill="#6bacaf" stroke="#6bb4d2" stroke-width="5.76"/><defs><path id="f" d="M1542.88 783.64l-.11-.32-1.41-2.84 4.03-1.09-1.53-3.15-1.3-2.95-1.86-3.92-1.63-3.37-1.2-2.84-.98-2.28-3.27-7.96-1.31-3.15-2.17-4.8-1.64-3.48-1.63-4.25-1.42-2.4-2.5-4.36-2.73-4.68-3.05-5.45-3.59-7.19-5.99-12.52-2.18-4.58-5.34-11.54-18.63-40.09-2.5-5.77-1.86-4.8-1.63-4.79-1.53-4.79-1.41-4.9-1.2-5.01-.65-2.95-.55-2.07-.98-4.03-1.09-4.57-.76-2.94-4.79-20.48-3.49-14.38 2.4.65-1.2-4.9-1.09-4.25-.87-3.16-.98-3.15-1.31-4.03-1.31-3.6-1.63-3.92-1.2-3.38-2.51-5.66-.43-.87-.22-.44-3.05-6.86-.33-.76 2.95.21-.77-1.63-.76-1.63-.54-1.09-.44-.77-9.37-20.8-2.83-6.32-.22-1.09-.54-2.5-.11-2.07-.11-1.64.11-2.07.11-1.3.43-2.4.33-.87v-.44l.33-.76.54-1.63 4.9-18.31 1.96-7.4 1.75-6.32.21-.87 1.09-4.14.22-1.31.33-1.09.76-3.48 2.18-7.74 1.09-4.46.76-2.62 2.72-11.11 1.2-4.46 5.78-22.55 3.7-15.47.33-.76 1.2-4.36 3.59-14.16 1.96-7.41.44-1.63.54-.66 5.45-21.24 8.71-34.31 5.89-23.31-2.73.22-3.05.32-6.21 1.2-11.22 1.74-2.94-.54-5.88-1.96-14.27-4.36-7.85-2.61-4.24-.98-3.38-1.64-9.15-6.21-28.76-19.06-1.53-.98-5.66-.98-11.11-6.1-5.45-12.85-5.66-13.4-18.2-43.03-5.01-17.76-1.63-4.03-33.77-36.92-11.01 26.58-7.95 18.95.44 3.38-6.1-3.49-2.84-3.48v-.33l-.98-2.72-.21-1.86-2.84-4.68-1.09-2.72-.43-1.09-.44-2.51-.43-1.96.22-2.72.1-1.09.44-1.64.54-1.96 1.31-5.33.44-2.29.22-1.42.21-2.18-.21-3.48-.22-1.31.87-8.39.87-4.03-.22-2.83-.21-2.61-.44-2.51-1.09-3.05-.54-3.38.21-2.61v-1.2l.44-2.29.22-1.19.87-2.07.65-1.42.11-.33.65-1.2.66-.87 1.09-1.63.87-2.61.54-2.29 1.53-3.16 1.52-1.09 1.09-.87.87-.33.99-.43 1.19-.55.44-.11h3.92l1.53.66 1.52.54.65.76 1.64 1.75 1.63 2.39v.22l1.2 2.29.33 1.85.22 1.42v2.72l1.09 2.72 1.41 1.53.76 2.28.55 1.09 1.09 2.73 1.96 2.61 2.29 1.53 1.52.65 1.53.65.98.87 1.2.88 2.17 1.52.66.44h.54l2.94.21.11-.1.44-.44.43-.54.55-.55.54-.65.55-.55.76-2.83-.22-2.4.77-.87.54-.65.33-.33.22-.22.65-.32.54-.22.22-.11.11-.11.22-.11 1.09-.43 1.09.43 1.41.55.55.43.65.44.98.87 1.31-.11h3.38l1.3-.11h1.2l1.74.11 1.75.33.54.65 1.2 1.64.33.54.98 1.85 1.09.76.43.44.77.65.98.66 1.19.65 1.86 1.09 1.52.98 1.31.87.98.66 1.52.87.44 1.3.65 2.4.22 1.2.44 1.52.11 1.2.11.76.1 1.09-.32.22-.87.76-.44-.1-.76-.22-.55-.22-.43-.11-2.07-1.31-2.94.11-2.18 1.64-.55 1.09-.43.87-.44.87-.87 1.52-1.31 2.62-.65 1.52-1.31 3.71-.54 4.79-.33 1.96-.22.76-.43 1.75.65.43 1.74.87 1.96-.98 2.07-2.5 2.95-1.96h.76l1.3-.11h.99l1.3-.22h.98l1.31.54.11.33.11.55.11.98-.87 1.09-1.31 1.41.11.76.32 1.96.44 1.97.33 1.19.76 2.07.11.33-.11 1.2-.22 1.52.11 1.42 1.74.44 2.18-.44 2.4-.33.65 1.2.44 1.09.43 1.31.44 1.41.65 1.42.87 1.31 2.51.65 2.18.22 1.52-.44 2.4.11.55.33.65.54.54.33.11.54.22.77.11.43-.22.44-.65.76-.55.76-.65.33-.65.44-.55.21-.87.44-1.31.33-.98.43-1.09.55-1.3.65-1.75 2.18-.32 1.31-.44 1.19-.65 1.86-.77 1.74-.11 1.2-.1 1.09-.33 1.85v.76l.11 1.42.32 6.42.66 1.86.54 1.63 1.09 1.2 1.2 1.2 2.62 1.3.98.55 2.39.11 2.07.11 2.18.1 2.07.22 1.96-1.85-.11-.76-.11-1.85-.21-1.2-.33-1.64-.33-.65-.98-1.85-.54-1.53.32-2.28 1.09-.77 1.09-.87.98.11.55.11h.76l.87.65.44.44.65.54.44.44 3.81 1.09 1.96.43 2.29.22 1.52-.11 1.64-.32 1.63-.33 3.16-1.09.87-.33 2.83-1.74 1.64-.33 1.74-.54 3.38-.98 1.74-.65 1.09-.44 2.07-2.18 3.05-3.27 1.85-2.18.77-1.08.76-1.42.87-1.53 1.2-2.28 1.63-4.14 1.42-3.49 1.09-2.29 1.52-3.15 1.2-2.51.55-1.09.98-.65 2.17-1.64 2.51-2.39 1.85-2.62 1.2-1.96.87-1.31 1.64-3.81 1.41-4.68.98-1.96.55-1.09 1.2-.76.98-.55.76-.43.87-.33 1.74-.66.77-.32 1.96.87.98.44.54.32.87.66 3.27 2.39 3.71 2.83 3.59 2.62 1.96.87 1.64.65h.65l1.52-.11h1.09l1.09-.65.87-.43.98-1.09.99-1.31 1.3-1.42.98-1.09.66-.87.76-.32.87-.55 1.09-.44 1.53.22 1.63.22 1.31 1.2 1.19 1.41.44 1.09.33 1.42.32.87.22.98v.87l.11.33-.22.98-.43 1.31-.77 3.59-.21.98-.33 1.96-.11 1.53.65 2.07.66 2.07.33 1.52 1.63 1.75 3.27-2.4 3.05-3.16 2.83-.76 2.07.76 1.42.54 1.3 1.09 1.2 1.09.44.33.43 1.63.66 2.07v1.09l-.11 1.64-.11 1.52-.44 1.85-.76 2.95-.22 3.05v.76l.22 1.74.22 2.61.43 1.2.33.87.22.88.43 1.09 1.2 1.63.87 1.42 2.62 2.94 5.34 4.14 3.05 2.17.76.11 2.18.33 1.2.22 2.07-.55 1.41-.32 1.31-.98.98-.88 1.2-2.72 2.18-2.72 3.59-2.83 1.31-.44 1.31-.65 1.2.11h.98l1.19.1.55.22 1.63.76.77.44.98.87 1.63 1.75.87 1.08 2.4 3.27 2.39 3.16 2.07 2.62 1.42 1.85 1.31.43 1.41.44.77.11 3.37.43h1.75l2.39.11 2.4.22.76.11 1.96-1.74.98-.88 1.42-.98 1.53-1.63 1.41-1.42 1.2-.65 4.03-1.85 2.29-.65 4.9-1.64 1.31-.43 1.74-.22 1.74.65 1.31.66 1.85.87 1.64.87.87.54 1.74-.11.87.11 2.29-1.41.76-.66.87-.76 1.31-1.31.98-1.41.55-1.64.43-1.3-.22-2.07-.65-1.31-.76-1.31-.87-1.96-.98-3.27.11-1.19.21-1.53.22-1.2.76-3.27.88-3.7-.44-2.72.44-3.49.76-1.52 3.05-6.87 2.07-4.14 1.74-3.15 1.2-2.4.33-.98 1.41-1.85 1.85-.87.88.43.98.44.21.54.33.66.44.76 3.05 3.16 3.16 3.16 1.19 1.3 1.75 1.53 1.96.87.87 1.52.76 1.2.66.98.76.98.87.55 1.09.76 1.2.76 1.41.11 1.42.11h.33l1.96-1.31.43-1.19.77-2.29-.33-1.96-.76-2.73.54-2.17-.11-2.51-.54-2.07-1.09-1.85-1.09-1.64-.44-.43-1.74-.55-1.74-.32-1.09-.22-.98-1.2-.44-.76-.33-.33v-.65l-.1-.98v-.76l.43-1.31.44-1.09.65-1.85.22-.55.43-.98.33-.43.55-.55.32-.33.22-.21 1.09.11.98.21 1.42 1.75 1.52 2.83 1.42 1.63 2.39.98 2.62 1.42 1.31.22 1.85.22 2.18.32 1.85.11 2.5.11 1.75-.65 1.41-.44 1.09-1.09 1.86-1.52 4.13-3.27 2.29-2.62 1.31-2.61.65-1.2.98-1.74 1.09-1.85.22-2.29.33-3.27 1.2-6.43.87-1.96.32-.21h.22l.98-.22.98 1.2.66.65 1.09 1.85 1.96 1.53 2.39 1.3 1.31.88 1.42.76 3.81 1.52 2.72.77 2.51.1 1.52-.54 1.31-.33 2.07-1.41 1.64-.98.76-1.09.76-1.75.11-1.63.22-1.63.11-.98 1.74-2.73.54-.87 1.09-1.09.44-.54.43.21.33.22.33.22.11.44.11.76.11.65v.55l-.22.54-.98 2.51-.77 1.96-.65 2.61 1.31 1.96 1.2.87.32 1.42 1.09 2.4 2.18.43 1.85-.22 1.2-.87 1.2-.65 1.42-.54 1.19-.44 1.31.22.76.22.77.43 1.09.65.65.88.76.98.98.98 1.2 1.96 3.92 3.37 3.71 5.12 1.74 2.07.98 1.09.87.87.22.88v.65l-.22.65-.22.77-.54.54-.65.65-.77.55-4.46.87-3.16 1.74-2.29.44-2.07 1.31-1.31 1.08-.54.77-.76 1.41-.66 1.42-1.74 2.83-.87 1.42-.66 1.41-.98 2.29-.65 1.31-.11.87-.11 1.31-.11 1.2 2.18.1 1.42-.21 2.61 1.52 2.4.98 1.2.44 1.74.32 1.2.11 2.94-.11 2.94-.21.98.76.76.54.22.77.22 1.09-.22.54-.22.76-.43 1.09-.55.66-.43.54-.44.54-.98 1.2-1.85 1.64-1.31 2.18-1.96.98-1.52 2.17-.55 1.31-.65 1.31-.66 1.31-.65 1.3-.33.98-.54 1.2-.76 1.96-.55 1.42-.54 2.5-.22 4.58.22.98.43 1.2.33 1.96.65 2.39 1.53 2.73 1.41 2.07 1.42.98 1.09.11 1.31.11h.65l1.31-.33 1.2-.44.76-.21 1.74-1.42 3.38-3.16 1.63-1.09.55-.33h1.41l1.31-.1 5.12-.22 2.18-.87 1.96-.55 1.85-.11 1.09.55 1.2.43 1.31.44 1.41.65 1.09.66.77.76.65.65.76 1.53.22.76.33 1.31.43 1.41-.32 2.29-.55 2.61.33 2.4-.33 1.53.33 1.96-.22 2.83.33 2.83-.22 4.14.11 2.61-.98 3.82.22 1.74.21 2.4.44 2.39.43 2.18.44 1.42.44 2.29.11.76.98 1.74 1.3 1.42.77.87.98.43.65.33 1.2.76 1.63 1.09 1.42.44 1.63.43 1.75.55.76-.11 1.09-.11 1.63-1.85.98-1.96.22-.98.54-1.96-.65-2.51.87-2.61.22-.66.54-1.74.22-2.5-.54-3.38-2.07-2.83-.44-2.84-.11-2.61-.11-.65v-.98l.44-.88.44-.87.32-.76.77-.65.65-.44.43-.43 1.42-.44 1.2-.44 3.59.77.98.32.88.44 1.09.54.87.66.76.65 1.42 1.09 1.41 1.2.66 1.74.65 1.64.22 2.07.32 1.63.77 2.4.43 1.08.76 3.05.66 4.14.76 3.6 1.96 2.94 1.64 2.83 1.85 1.85 1.96 1.09 1.09.55.65.32.87.33.55.22.65.76.87.98 1.09.44 1.09.32 1.31-.1 1.31-.11.87-.44.98-.33 1.09-1.74.43-.76.77-.87.87-1.2.76-1.85.22-.55-.11-2.94.22-1.74 1.52-2.18 1.31-1.42 1.52-3.92.77-2.39.65-4.25.65-2.73 1.42-3.26 1.63-2.18 1.2-1.09.98-.87 1.64-1.42 1.63-.43 1.85-.33 2.4-.11.65.44 2.29 1.19 1.42.66 2.39.43.88.22 1.3.33 1.31.43 3.81 1.42 2.29.65 1.63.98 1.42.66 1.31 1.63 1.2 1.31.65.98.87 1.09 2.07 4.36 1.09 2.17.55.77.21.32.77 1.09 1.08 1.42 2.07 1.74 1.42.66.65.32.88.44.65.54 1.09.98.65.55.33.32 1.09 1.42 1.42 1.85 2.39 3.38.98 1.52.76 1.2 1.42 1.53 1.85 1.41 1.42.98.33.33.98.11.98.11 2.5-1.2.87-.11 1.96-.65h.99l2.06-.22 3.27-.98 1.85-.76 3.38-1.53 4.9-2.39 1.53-.99 1.63-1.52.66-.65 1.52-2.29 1.85-2.94 1.53-2.62 2.29-3.26.43-.99.66-.98.54-1.08 1.85-4.04.77-1.19 1.19-1.75.98-3.16.33-3.37.55-1.53.65-1.96.76-1.2.66-.87 1.96-1.63 1.19-1.31 1.2-1.63 1.42-2.51.76-1.74.66-1.2.87-1.09.32-.43.22-.22.22-.33.65-.11.77-.11 1.3 1.09.87.33.66.22 1.41-.44 1.42-.11 1.09-.32 1.52-.55 2.18-.65h2.29l2.4.32h1.31l1.74-1.08 1.09-.33 1.63-.44 1.2-.43 2.07-.77 1.63-.65 1.31-.54 1.53-.98.54-.22 1.2-1.31.65-.76.66-1.42.32-.87v-1.2l.11-1.09-.98-3.05-.43-.65-.77-.76-.87-1.2-.87-1.09v-1.31l-.11-2.07.22-2.61.65-1.64.87-2.17 1.75-5.12.32-.77 1.42-1.74 1.74.11 1.53-1.2 1.09-.76 2.07-.55 2.29-1.85 2.39-1.74.87-.65 2.73-2.84 1.09-1.85.65-1.09.98-1.41.98-1.53 1.31-2.29 1.63-1.85 1.2-2.29.98-1.96.76-1.3 1.53-3.27 1.74-2.51 1.53-2.07 2.5-2.72 2.18-3.27 2.07-1.96.76-.65 1.53-1.2 1.09-.33 2.18-.54 2.61-.65 2.29-.33 3.59-.66 3.05-1.52 4.25-.98 1.42-.22.76-.11 2.18-.65 1.85-.55 2.51-.54 2.29.22h.21l1.2.11 3.38 1.41 2.4 1.42 2.61 1.85 1.42.65 2.72 1.31.76.55.87.54.98.76.66.44.98 2.18 2.94 2.61.76 1.42.66 1.31.1.98.11.87.11.32-.65.88-.65.65-.33.54-3.16.33-2.07-.76-3.05-.87-3.27-.55-3.49-2.29-.54.11-2.4.22-1.09.33-2.17.76-1.53.98-.65.65-1.2 1.31-1.31 1.2v3.59h-1.09l-.76-1.09-.65.66-1.09 1.31-1.86 2.5-2.39 2.51-.66 2.07.98 1.63 1.53 1.2 3.16.87 2.4.54 1.85-2.07.32-2.17-1.19-2.29.1-.55.55-1.74.87-2.4 1.74.33.77.87.43.55 2.07 1.2 1.09-.11h1.64l.54.32.54.44.55.22.11.54.11.55.11.65-.33.33-.44.87-.54.65-1.42.44-1.63 1.2-1.2 1.96.44 3.05.54 2.18-.54 2.72 1.52 2.39.76.66 1.86 1.74 1.96 1.42 2.39 1.63.44.98.43.98.66 2.94-.33 1.2-.33 1.09-.65.65-.76.77-.44.54-.98.55-1.41.87-.98-.11-1.42-.11-1.09-.33-2.18-.76-1.09.76-.98.66-1.41 1.3-.98-.76-1.64.65-1.52 1.53-1.2 2.18-.76 3.05-.22 1.63-.55 2.29.33 1.63.65 1.64.22.65 1.31.76 2.94-1.09 2.18-1.3 1.09-.22 1.2-.11 1.19.76 1.42.87.44.66.87 1.09.87 1.41.76 1.09.55.98.32 2.84 1.75 2.83 3.26 1.09 1.64.43.98.44 1.74.87h3.27l2.51 1.09 2.94.43 1.63-.21 1.2-.11 2.83-1.31 1.2-1.31 1.09-1.19.65-.88.77-1.09.76-1.19 1.52-3.6.55-3.81.54-2.18.66-1.2.87-1.3 1.2-.99 1.09-.87 3.05-1.41 2.94-1.09 2.39-.76 2.07-1.53 2.4-1.52 1.74-.77 1.2-.65 1.96-.76.87-.33.98.44.66.21 1.2.55.54.32.76.55.22.87.44 1.2.32 1.2.44 1.09.65 1.74 1.96 3.05.88.11.76.22.43.21.66.11.32.11 1.42.22.87.11 3.38-.98.98-.65 3.49-2.07 1.41-1.09 1.53-1.2.98-1.2.76-2.07 1.74-1.63.98-.88 1.31-.43.55-.22.43-.11.65.22 1.97.87 1.52-.87 1.96.22 1.2 1.09 1.31-1.2 4.35-.65 1.86-.99 1.85-.54 1.96-1.31 2.4-2.28 1.85-1.64 2.18-2.18 1.3-1.3.55-.55.76-.76.98-.76.98-.88.55-.43.21-.11 1.2-.76 1.42-2.18.76-1.74.55-2.51-.77-1.85-.65-1.2-1.09-1.96.11-1.63-.76-.55-.77-.98-.98-1.09-.21-.98-.22-.65.11-.55.21-1.09.22-.98-.11-1.41-.11-1.2.66-1.96 2.4-2.18 1.41-1.74 1.53-1.53 1.19-1.2 1.53-1.52 1.63-1.96 1.64-1.2 1.2-.76 1.19-1.09 1.42-1.31 1.31-1.42 1.52.77 1.31-1.85 1.42-1.53 1.74-.76 1.42-.44.98-1.74 2.28-1.63 1.31-.44 1.31-.55 1.2-.54.76-.33 1.85-.76.22-.11 2.5-1.74 3.05-.87 3.49-1.53 3.92.44 3.16-.11 2.4.11 1.31.43 1.19.44 1.75 1.96-.22 2.4-.11 1.52-.33 1.53-.21 1.74-.11 1.42v1.3l.21.87-.21 1.86-.11 1.85.22.98.32 1.52.33 1.42.65 1.74 1.31 1.75 1.09 1.19.87.98.33.44.87.87.98.87.54.55 1.09.98 1.31 1.3 1.31 1.42 1.41.65 1.2.77 2.4 1.52 1.52 1.53.55.65 2.5 1.96.66 1.64.43 1.19.44 2.4.87 1.74.33 2.29 1.52 1.74 2.07 1.42 2.51 3.59.98 1.2 1.85 1.96 1.09 1.53 1.74 1.96 1.31 1.31 1.09.98.98.11 1.96.32 1.31-1.41 2.18-1.96.76.1.87-.1 1.09-.11 2.51 1.85 1.3.98 2.29.65.55.11 1.09-.11.98-.11.98-.21.98-.33h.54l1.64-.55 2.83.77 2.39.65 1.31.65 1.2.66 1.42 1.52 1.19 1.09.88 1.85.65 1.31v1.31l.11.76-.11.76.11 1.2-.98 3.16-1.53 4.03-1.09 4.25.11 3.16-.76.43-3.59 5.34-4.91 25.16-19.06 97.6-19.5 63.84-13.51 44.33-.22.76 3.82.99 3.48.87 5.45 1.52 7.41 2.07 13.5 3.49-3.59 2.28-3.7-1.08-8.17-2.07-6.87-1.86-8.93-2.5-.76-.11h-.33l-2.4-.44-.76 2.62-9.37 47.93 11.99 2.83-23.54 92.37-.32 1.42-24.73 89.43 1.09.33 15.58 4.24 1.63.44.44.11 1.74.44 1.63.32.55.11 1.09.22 17.32 4.68 17.32 4.9 1.63.44-1.3 4.79-.77-.21-6.31-1.64-31.92-11.11-.55 2.61-1.85 7.19-1.31 5.01-.65 2.73-.98 4.03-1.09 4.57-1.53 6.1-1.3 5.45-.55 2.07-.76 3.16-6.97 28.54-1.85 7.41-5.01 19.6-.33 1.53-1.96 7.84.22.76-1.31 4.69-.22 1.09-.33 1.63-.11.55-.1.54v.54l.1.33v.33l-.1.33-.11.32-.22.44-.33.22-.11.43-.76 1.85-.22.77-.32 1.41-.22.76-.33 1.42v.11l-.33.22-1.63 6.86-1.42 5.23-2.72 11.65-1.63 6.87-.55 2.18-.54 2.5-.66 2.83-.65 2.4-1.09 4.25-.87 3.37-1.2 4.58-2.29 8.93-2.61 10.57-3.27 12.52-2.51 9.26-.65 2.94-2.5 9.59-.44 1.96-.76 2.62-3.92-1.09-4.91-1.42-11.87-3.38-4.58-1.19-17.97-5.12-8.93-2.62-2.73-.76-3.48-.98-2.73-.76-5.01-1.53-4.03-1.31-.54-.11-3.27-.87-11.22-3.26-6.65-1.86-13.29-3.92-8.49-2.5-3.71-1.09-5.23-1.53-.32-.11-5.56-1.52-4.47-1.31-6.42-1.85-.77-.22-8.82-2.5-4.9-1.31-3.16-.98-1.74-.44-1.42-.43-2.94-.87-3.49-1.09-8.93-2.62-1.09-.32-11.77-3.49-5.22-1.53-2.4-.65-12.75-3.59-1.2-.33-1.3-.44-7.41-2.17-5.12-1.53-3.92-1.2-8.39-2.39-6.21-1.86-2.83-.87-5.56-1.63-10.67-3.16-.55-.11-5.88-1.63-5.23-1.53-1.74-.54-2.4-.66-.98-.21-.98-.33-11.66-3.38-4.79-1.41-9.59-2.73-5.23-1.63-2.83-.76-3.27-.98-3.16-.98-10.45-3.05-1.31-.33-1.74-.55-.98-.21-1.31-.33-2.72-.76-6.76-1.53-.98-.22-.65-.11-.77-.21-6.64-1.96-2.94-.88-1.42-.43-16.88-5.01-10.13-2.94-.33-.11-17.65-5.23-1.2-.33-3.05-.87-1.2-.33-1.52-.43-1.09-.33-1.31-.43-1.41-.55-1.31-.43-1.2-.44-1.09-.44-3.38-1.52-.54-.98-1.2-.65-3.7-1.42-1.09-.55-1.75-.65-1.96-.43-1.85-.44-1.96-.22-1.96-.22h-1.96l-1.53.11-1.96.22-.54.11.33.44-.33.1-2.94.77-2.73.76-2.72 1.09-2.72 1.52-3.27 2.4-2.72 2.18-2.29 1.74-15.25 11.77-.66.32-2.94 1.42-3.48 1.31-3.16.87-2.29.54-3.92.55-4.03.32-3.82-.32-1.74-.44-36.28-6.53-16.34-2.84-1.74-.21-7.19-1.2-9.15-1.64-1.31-.21-1.2.21-3.26.55-2.62.87-.87.11-.65.22-.44.32-3.7 1.64-9.48 3.92-3.92 1.74-2.73 1.2-2.72 1.31-3.59 1.74-3.71 1.74z" stroke-linejoin="round"/></defs><use xlink:href="#f" fill="#09757a" stroke="#097d9b" stroke-width="5.76"/><defs><path id="g" d="M2296.08 1764.01l-6.65 2.4-8.71 6.32-4.36 5.23-2.62 7.73-.98 1.63-2.83 1.86-4.25-.77-3.16-1.96-1.85-.32-4.47-2.18-1.96-.11-1.74-1.53-5.88-8.28-1.85-5.99-.98-15.47-.11-.87.32-1.96-.54-3.16-.98-2.28-.11-.22-.11-.44-1.2-2.83-.65-1.2v-.22l.11-.87-.66-1.3-.32-.55-.11-.33-.44-.65-.65-.65-.44-.11-.54.11-.55.11-.54-.33-.55-.22-.43-.22-.44-.11.33-1.19.11-.33.33-.98.43.22 81.16-21.79 10.68-16.88-1.97-16.02 1.31-.32v-.44l-.11-.43-.21-.88-.11-.65-.11-.43-.11-1.31-.22-1.2.87-5.01.87-3.05.11-.55.44-1.85.22-.98.65-2.39.22-.88.87-3.26.11-.55.65-2.39v-.66l.66-2.39.43-1.64.55-2.18.1-.65.66-2.4.11-.65.76-2.94.33-1.2.54-2.07.22-.87.65-2.4.11-.87.87-3.05v-.54l.55-1.75.32-1.52.66-2.4.22-1.2.54-2.07.22-.98.76-2.61.11-.65.76-2.95.22-.87.65-2.39v-.66l.55-1.74.43-1.85.88-3.27.21-.87.77-3.05.11-.55.65-2.72.22-.87.87-3.27.11-.65 1.09-3.81.11-.66.65-2.61.22-.87.65-2.73.22-.98.76-2.61.11-.87 1.2-4.14.11-.66.76-2.94 9.26-37.03.44-1.64.65-.65.87-.98-.76-1.42 1.41-5.34 2.51-10.13.65-2.5 5.01-19.06 2.62-10.46 5.77-22.44 1.2-4.68 1.09-4.14 3.16-12.31 3.16-11.88 1.52-5.99 1.75-6.75-6.76-1.85-11.87-3.05-12.64-3.27-6.75-1.74-6.21-1.64-6.21-1.63-7.3-1.85-10.13-2.62-.98-.22.54-1.96.44-1.85.11-.76-.11-1.2v-.54l.22-1.2 2.61-10.57 1.53-5.44.76-2.84.54-1.96v-.76l-.21-.33-.11-.11-.55-.43-.11-.11-.11-.11-.21-.33-.11-.32-1.64-.11-2.18-1.96 2.18-15.47 1.42.33 2.94.43 2.83.55 6.43.32 2.18.33.76.22 2.62 1.52 4.24.98 1.86-.11 2.28 1.09 1.2 1.2.66.98 1.63.11 3.38-1.96 1.96-.33 1.96.44.65.22 1.31.98 2.4 1.41 2.94 1.96 1.63.88 3.27 2.28 1.96 2.18.44 1.53.11.76.98 1.74 2.83 2.83 4.68 5.34 2.4 4.14 1.63 1.09 1.53.44h2.29l2.61-.87 1.64-.44 1.3-.33 2.73-.87 8.6-4.47 3.38-1.74 1.09-.76.87-.55.54-1.19.33-1.86.22-.98-.22-2.07-.33-1.96-1.19-5.77-1.09-5.77-1.96-6.76-.11-1.85.21-2.18.77-2.18 1.3-3.05 1.09-1.74.55-.98 1.41-1.31 1.31-.76 1.96-.43 5.01-.55 1.53-.33 2.72.44 3.38 1.09 2.07.87 4.57 1.64 2.07.65 2.95 1.85 1.41.76 1.2.22 2.4.87 2.39.33 2.07.65 2.62.55 2.18.76 6.75 1.74 1.74.77 2.95.98 2.5-.11 3.49.54.98.55 1.3.32.77.22.65.33.44.11.43.11.22.1.33.11 2.72.77 1.09.32 4.25 1.53 2.72.76 1.85.33 3.49.87h1.74l4.47-1.09 1.52-.11 1.97.54 2.28.55.98.11h.55l3.7-1.09 5.01-1.96 2.18-.76 5.12-4.69 1.74-1.41 1.31-1.86.66-1.85.1-.87.44-1.31 1.74-2.61 5.12-6.65 2.73-2.83 1.3-.87 1.96.11 2.84-2.18 1.52-1.42.76-.43.66-.33 2.94.76 2.18.44 4.25.22h1.63l1.42-.55 1.2-.21 1.09-.11.76.32.54.55.44.76.22.87.32.66.66.32 2.83.33.76.54.44.44.65.65 1.31.98 2.94.98 1.74.44 3.6.44.22-2.4.43-6.32.55-8.17.76-8.93.43-6.97.55-7.95.22-5.01.21-6.21.11-5.01v-13.29l-.32-6.76.87-.11.22-.11.76-.1.65-.11-.43-11.11-.44-32.03-1.2-46.84-1.41-70.37.76-2.29-.98-.32-.87-.22-1.86-.44-30.39-8.27 15.03-57.19 3.38-12.86 1.31-5.23.98-3.48-2.94-.76-3.81-.88-1.2-.54-8.61-2.29-8.71-2.18-6.32-1.63-3.6-.98-4.35-1.09-8.07-2.07-13.72-3.49-1.96-.54-6.98-1.74-6.86-1.75-.76.22-.44-.11-1.85-.43-2.5-.66-1.86-.43-2.61-.76-2.94-.98-2.73-.88-2.94-.98-3.81-1.19-.98-.33-.65-.22h-.98l-.77.11h-.54l-.22.22-.33.11-.65-.33-1.52-.65-1.09-.88-1.64-.54-2.18-.44-2.39-.32-2.62-.44-4.57-1.09-10.35-2.94-3.27-.87-2.72-.76h-.77l-1.19.22-.88-1.31-1.63-.44-.87.66-1.09-.98-.98-.33-.87-.33-.87-.11-5.56-.98-.98-.11-4.9-1.09-.66-.76-16.99-4.79-10.57-3.16-4.79-.76-6.54-1.64-3.81-1.09-3.27-.87-5.55-1.41-1.97-.55-2.61-.76-4.14-1.2-5.01-1.31-4.47-1.19-3.48-.98-2.94-.77-3.49-.98-6.32-1.63-3.38-.98-6.1-1.64-1.74-.43-1.63-.44-2.62-.76-5.44-1.52-1.86-.55-1.3-.33-3.38-.98-5.45-1.63-2.18-.76.22-.77.22-.98.65-2.39 6.97-28.43.66-2.18 3.27-12.53 3.92-15.36 1.85-7.3.55-2.28.21-.87.44-1.31.65-2.18.76-2.29-.98-.32-8.82-2.29-4.14-.98-2.29-.55-5.44-1.52-5.56-1.42-7.08-1.96-2.4-.65-7.62-1.85-2.73-.77-4.9-1.2-1.63-.43-2.83-.76-5.02-1.2-10.34-2.83-3.06-.77-1.08-.21-1.75-.44-2.61-.65-1.64-.55-5.55-1.41-.55-.11-2.39-.66-2.51-.65-7.62-1.96-.55-.11-2.29-.54-13.4-3.49-2.28-.65-.88-.22-2.07-.55-4.24-1.09-2.29-.54-9.15-2.29-1.42-.32.55-2.18 1.63-6.87 2.72-11.65 1.42-5.23 1.63-6.86.33-.22v-.11l.33-1.42.22-.76.32-1.41.22-.77.76-1.85.11-.43.33-.22.22-.44.11-.32.1-.33v-.33l-.1-.33v-.54l.1-.54.11-.55.33-1.63.22-1.09 1.31-4.69-.22-.76 1.96-7.84.33-1.53 5.01-19.6 1.85-7.41 6.97-28.54.76-3.16.55-2.07 1.3-5.45 1.53-6.1 1.09-4.57.98-4.03.65-2.73 1.31-5.01 1.85-7.19.55-2.61 31.92 11.11 6.31 1.64.77.21 1.3-4.79-1.63-.44-17.32-4.9-17.32-4.68-1.09-.22-.55-.11-1.63-.32-1.74-.44-.44-.11-1.63-.44-15.58-4.24-1.09-.33 24.73-89.43.32-1.42 23.54-92.37-11.99-2.83 9.37-47.93.76-2.62 2.4.44h.33l.76.11 8.93 2.5 6.87 1.86 8.17 2.07 3.7 1.08 3.59-2.28-13.5-3.49-7.41-2.07-5.45-1.52.76-.55 1.86-1.41 5.12-3.82 6.1-4.57 1.52-1.2.98-.87 1.53-1.09 1.2-.76.98-.44 1.09-.33 2.28-.32 2.29-.33 5.12-.87.65-.11.66.11.54.11 5.99 2.29 2.29.87.44.32.54.55 4.69 5.34.54.65.76.44.66.21 7.73.33 8.83.54.98.11.98.33.98.76 1.41 1.53 9.81 10.56 1.09 1.2 1.3 1.53.88 1.3 1.09 1.97 3.59 6.53.98 1.85.55.77.65.87.54.87.66.87 5.34 5.77 3.15 3.38 1.09 1.2.66 1.09.54 1.09.87 2.18 2.18 4.79 1.42 3.38.76 1.63.66.98 1.96 1.74 3.05 1.96 4.9 3.16 1.41.87 2.4 1.53 1.64.98 1.19.98.88.87.87 1.31.54 1.2 1.74 4.79 1.53 3.92.76 2.07 5.56 14.05 4.25 11.44 1.41 3.7.77 1.31.87 1.2.87 1.2.43.65.33.55 2.62 3.37.98 1.09-.88 3.92-.43.55-.22.43-.98 3.92.44.11.32.11-1.2 4.47-7.29 28.1-.77 3.05-.11.44-4.68 18.3-1.31 4.9-.22.87-.98 3.49-.21 1.2-1.2 4.68-1.85 6.97-.55 2.29-.65-.11-.11.54-1.74 6.76-1.75 6.43-.87 3.26-1.85 7.08-1.53 5.78-6.42 24.94.65.22 2.18.54 2.07.55 1.63.54.22.11 1.53.44 1.19.32.44.11 1.63.44.33.11 1.42.33h.11l1.41.21h.22l1.85.22 1.64.22 1.74.22 1.74.32 1.75.22 1.63.22 1.85.33 1.64.21.87.11.54.22h.66l1.52.33.87.22.66.21 1.85.33 1.63.44 1.53.32h.11l1.85.33 1.63.33.76.11.88.32 1.74.44 1.74.43 1.53.44 2.94.87 8.5 2.72 11.32 3.27-4.57 17.1-.76 3.38-.22 1.31.22 1.52.32 1.42.66 1.41.76 1.09 1.52 1.64.33.32.76.33 1.75.66 1.09.21h1.63l14.71-2.39 3.16-.33 9.26-1.53 24.07-3.7 1.64-.11 2.5.55 4.79 1.96 1.31.65 1.64.76.54-2.17 4.79-19.39-4.9-1.31-5.88-1.53-3.16-.87-11.44-3.05 8.5-6.1 8.17-5.77 1.2-7.52 2.39-8.93h5.89l8.17.11 1.19-4.79 3.82-15.04 1.85 20.92-1.42 8.06v.87l-.11 2.94-.54 5.01 6.97 1.85 2.72.77 32.25 8.49 1.96.66-.65 2.39-.33 1.09-1.31 4.9-1.19 4.91-.88 3.16-.32 1.3-4.8 18.96-2.94 11.33-.98 3.7-.11.65-.11.55v.43l.11.44.11.33.33.32.22.33.32.33 5.89 4.46.32.22.33.22.65.54.22.33.11.22v.54l7.19 1.85 8.06 2.4 1.85.44.33.1.44.11 1.52.44-.22-3.16-.21-5.56-.11-2.5v-3.05l.11-1.42v-1.09l.1-1.19.11-.98.11-1.53.22-1.52.65-4.14.88-5.34.87-6.21 1.85-13.18 1.2-11 66.88 18.3.98-4.03.66-2.4 1.2-4.36 3.48-11.33.22-.76 1.63-6.53 2.51-9.48.44-1.96 1.96-7.41.11-.65.32-.98 4.8-18.96.1-.43.11-.33.55-2.5 1.96-8.28 2.51-8.94 2.39-9.04 1.42.44.54.11 32.79 8.71 24.84 6.54 2.72.65 6.87 1.85 38.89 10.46-20.05 78.65-20.15 78.54 24.95 6.75L2846.1 810l4.69 1.2-3.6 13.51-7.41 27.78-15.14 56.86-15.14 56.86-.87 3.81-30.4 112.31 5.34 12.09 6.32 14.38 1.2 2.94.98 3.05.22 1.31-.22 1.3-.33 1.42-.87 2.07-1.96 4.03-2.07 3.7-1.31 1.86-1.63.87 31.48 8.06 45.54 11.76 45.64 11.66 27.02 7.08 42.7 11.22 15.91-58.61 15.9-58.6 56.76 14.81 56.75 14.93 3.82.98 22.87 6.1-7.19 27.12-.87 3.05-5.66 21.79-1.42 4.9-2.72 10.46-3.16 12.41-.22.98-.22.99-1.41 6.75-1.2 5.99-1.42 6.32-.54 2.07-.55 2.07-1.2 4.03-1.19 3.7-.55 1.85-.11.66-.76 2.5 1.85.55.87.21 30.07 7.74 1.96.54 52.4 13.73 52.4 13.72 33.12 8.94 8.28 2.28 72.44 19.72 26.47 7.19 21.79 6.21 30.28 8.49 1.96.55-35.84 39.54-29.74 35.29-2.18 2.51-6.64 20.81-42.92 132.67-13.29 71.68-1.2 6.42-13.62 30.94-2.5 11.77-3.05 14.27-1.64 4.03 29.2 15.25 3.37 4.35-12.41 46.95-2.07 8.39-22.66 3.81-1.09.22-.98.44-.87.54-.77.44-1.09.98-.65.76-.65.65-.66.87-3.27 4.36-8.93-2.61-5.34 20.48-22.22 86.27-8.5 32.57-14.59-3.81-22.01-5.67-10.46-2.72-6.32-1.64-41.39-10.67-.87-.33-.88-.54-.54-.33-.44-.44-.98-1.3-1.09-1.42-.98-1.31-.43-.87-.44-1.3-.11-1.31v-1.53l.55-1.74.11-.65.43-1.75.11-.43.66-2.51v-.54l.65-2.18.11-.65.65-2.51v-.43l.66-2.29v-.22l.54-2.18.11-.54.65-2.51.11-.54.66-2.29v-.44l.76-2.72v-.33l.54-1.96v-.32l.66-2.51.1-.44.66-2.72.11-.22.65-2.39v-.55l.44-1.63.11-.55.65-2.5.11-.55.43-1.74.33-1.2v-.54l.33-2.51-4.14-.76-18.63-3.81-3.92-.55-5.12-.54-4.47.65-3.48 13.62-11.22 44.99-2.18-.66-26.58-7.08-1.2.44-7.52-3.16-23.31-10.02-3.81-2.83-3.49-3.71-22.33-6.1-12.31-3.48-2.94-.77-11.88-3.16-23.2-6.2-.33 1.85-.22 1.96-.32 2.83-.33 3.49-.22 1.96-.33 5.99-.43 5.77-.33 4.9-.54 6.21-.33 5.99-.11.87v.88l-.32 1.74-.22 1.96-.22 1.31-.11 1.52-.11 1.85-.33 4.36-.21 3.49-.22 2.61v1.2l-.55 7.08-.21 2.29-.88 11.33-.21 2.17-.22 2.73-.22 2.5-.11 1.75-2.5 1.41-4.25.76-7.63-1.09-2.18-.21-3.37-.11-4.14-3.38-1.53-7.73-4.14-5.45-4.9-1.63-.87-1.09-1.53.98-2.94-1.53-2.94-1.52-1.85-.98-5.88 1.41-2.95.88h-1.3l-3.38.43-1.96 1.42-1.96 2.72-.11 1.96.65 2.4.33 1.3 1.2 2.73-.87 1.96-1.09 1.31-.76.87-.66.21-.76.33h-3.05l-1.53.11-1.96.87-1.41 1.31-2.29.65-7.84-3.16-4.47-1.3-4.47-.55-7.84-11.44-.98-11v-11.22l.11-1.2.11-2.5.11-1.09.43-1.63.76-1.75.55-1.85 1.2-1.31 1.74-5.66 1.63-4.79 2.62-3.49 4.79-4.68 2.73-1.09 1.52-2.18 1.63-4.14-.43-5.12-2.29-7.52-2.18-5.33-.22-3.27.22-4.9.22-3.82.87-7.19-.33-5.33 1.31-5.34-.32-4.14-1.53-3.49-2.61-4.13-2.29-2.95-.44-4.03-1.85-11.11-.33-5.23v-.98l3.49-17.53-.87-8.39-.55-2.4-1.09-1.85-2.28-2.18-2.51-.87-4.9.33-1.64.43-1.63.44-2.18.65-.65.22-2.29.65-5.99 4.8-4.03 3.7-3.82 5.01-8.71 19.28-1.31 1.96-2.18 1.2-1.41 1.09-1.64.33-5.12-.44-1.74.11-1.63.44-1.53.1h-1.96l-3.49-.32-1.3.54h-2.51l-3.05-.98-1.96-1.41-1.85-2.4-1.42-5.12-1.09-1.96-1.41-2.62-4.58-9.36-3.16-3.71-5.77-3.37-2.62-.33-2.83 1.63-3.27 2.29-1.74 1.09-1.85.76-1.2.76-.65 1.86.11 4.24-.44.77-1.31 3.37-8.28 14.6-4.14 3.92-6.64 3.05-7.63 2.29-3.59.33-3.92-.77-3.6-.98-2.83-2.17-2.51-2.29-1.96-3.16-2.18-3.7-2.72-5.67-5.66-12.85-2.95-2.73-3.59-1.52-2.62 1.09-3.37 2.39-5.12 5.12-2.62 3.05-1.74 3.38-1.85 9.59-1.2 9.15.54 3.92v2.61l-.65 1.96-2.29 2.94-11.22 6.98-5.77 2.39-9.15 1.64-4.69.11-2.61-.66-3.49-4.25-.65-2.5-1.2-2.51-1.52-.43-2.29.43-5.67 2.73-3.7 3.7-3.27 2.07-2.18.98-2.28-.65-1.53-1.42-.65-1.31-4.25-3.92-3.38-4.68-1.41-3.92-.44-2.51v-2.29l.54-5.01.88-3.16 1.19-1.63 1.42-.33.65-.98.77-2.39.11-2.29v-.66l-.11-1.63-.11-2.29v-.54l-.44-3.49-.87-2.07-2.07-.65-10.78-.44h-2.07l-1.31-.11-3.81-.1-11.12-.33-4.14.65-1.74 1.42-1.52 2.29-.98 1.63-1.86.98h-1.85l-5.34-1.2-1.96-.43-.76-.11-.11 1.41-1.31-.76h-.76l-.87.55h-2.18l-2.29-.55-2.94-.54-1.74.21-.87-.1-1.2-.11-1.74.43-2.07 1.2-1.42.33-1.85.11-.87.11-5.23.98-1.85-.11-.55-.44-.11-.54-1.2-.66-.98-.65-1.09-.44-.87-.11-1.2.33-.87.76-1.3.77-1.31 1.19-1.74 2.29-.88 1.31-.65 1.2-.98.87-1.74 2.72-2.07 4.69-.44 1.63-.11 1.74.11 1.64-.22 1.96-.65 1.41-.44.44-1.09.11-.32.43-.33 1.64-.43.54-.88.55-1.52 1.2-2.62.76-1.74.33-3.92-.22-3.05-.77-1.63-.65-1.31-.87-1.53-2.61-.43-.33-.77-.22-1.74-.22-4.57-1.2-3.27-.98-3.92-1.96-3.16-2.07-3.05-2.28-2.4-.77-1.96-.87-1.42-.11-2.28.44-1.31.65-.76.66h-1.09l-2.73-.44h-2.72l-2.18.11-1.52-.65-.66-.66-.65-.11h-.87l-.87-.11-.44-.54-.76-.11-1.53.11-1.63-.11-1.31.33-1.31.54-.98 1.09-.87 1.74-4.03 4.47-3.05 4.9-1.96 2.51-1.09 1.63-.87 1.42-.22.43-1.52 1.64-.55.76-.22.98-.32 1.85-.22 3.38.22 1.96.43.44v.76l-1.63 6.86-.44.65-.54.11-.33.33-.22.65-.87 1.09-1.31 1.75-2.07 1.41-1.74.66h-2.61l-5.23-.55-8.61-1.96-2.07-.44-5.23-1.74-3.05-1.31-2.39-.87-6.43-1.09-1.96-.43-3.27-1.09-.54-.11-2.18-1.53-2.29-.76-5.12-.76-1.74.11-1.97-.22-1.96-.44-1.96-.21-2.28-.55-1.53-.65-1.96-.65-3.38-1.75-2.29-1.2-6.42-5.33-2.62-2.07-3.27-3.49-1.3-1.85-1.53-3.49-3.27-5.12-1.63-1.74-.87-.87-1.64-.98-2.39-.44-.44-.21-3.16-1.42-2.39-1.31-1.86-.43-1.96-.22-1.96.11-2.72.32-.65.22z" stroke-linejoin="round"/></defs><use xlink:href="#g" fill="#004249" stroke="#00465f" stroke-width="5.76"/></svg>