<svg width="384" height="4.04in" viewBox="0 0 2880 2909" xmlns="http://www.w3.org/2000/svg" xmlns:xlink="http://www.w3.org/1999/xlink"><path fill="#fff" d="M0 0h2880v2909H0z"/><defs><path id="a" d="M1619.26 2499.92l-8.63-12.18-10.28-14.45-.27-1.19-1.36-2.63-5.37-7.18-.63.72-1.82-2.36-1.91-2.82-1.27-1.45-13.18-18.46-10.09-14.09-5.46-7.45-3-4.27-1.91-2.73-.54-.73-2.82 2.37-.91.9-3.18 3.73-8.73 10-1.36 1.37-3.27 2.99-1.46 1.46-6 7.27-.54.46-.64.09-.45-.09-.55-.55-1.09-1.64-1.55-2.09-1.81-2-1.09-1-1.55-1.18-35.91-10.63-6.81 7.18-2.55 2.63-2.09 2.09-1.27 1.46v-3.09l-.55-6.91-2.45-14.82 1.72-.45 1.64-.46 2-.36-2.54-14.91.54-.45 1.73-2 1-1.91-.09-2-1.37-2.91-.72-1.55-3.37-2-1.27-1.82-1.64-6.81-1.45-7.28 5.45-2.54.19-.36-.1-.55-.45-.55-2.64-2.09-.36-8.63.18-.09.27-.37-.09-.45-.36-.64-.55-1.36-.81-2.55v-1.45l-.28-.37-.9-.81-.1-.37v-.54l.19-.82v-.64l-.19-.54-.63-.73-.09-.54v-.37l.27-1.18v-.36l-.18-.28.36-5.36-2.54 2.82-.37.45-1.36 2.09-.73 1.46-.63 1.45-.46 1.28-.27 1.27-.37 2.09-.09 2.54.09 1.19.1 1.18-5.1-1-17.27-13.64-3.27-2.09-2.91-1.73-.36-2.45-.09-2.27.27-1.28.45-1 10.91-12.81-3.27-8.64-10-31.45.64-.73 2.27-2.46 2.55-2.9 2.9-3.19 1.19-1.36.81-.91.73-.82 1.09-1.27 1.91-2 2.46-2.82 1.45-1.54 1.09-1.28 3.64-4.09 1.54.46.46.09 3.27.54 3 .37 1.64.18 7.99 1.09.91-5.64-15.54-8.63.45-4.18.19-1.46 1.54-14.18.36-3.45 1.28-11.55 1.18-11.54.36-2.37.18-.45 3.73.27 6.18.82 5 .45 9.09 1.37.64.18-.82 6.82.46-.09h.45l.36-.09 3.19-.28.54-.09 4.91-.63 1.73-.28 5.27-.72.36-.1h.37l.63-.18 1.55-.27.82-.36 1.45-.91 1.18-1.18 3.09 11.72 8.37-9.63 1.27-1.46 10.18 12 9.36 11.09 2.64 3.09 4.45 5.09 8.09 9.55 1 1.18 3 3.55 2.73 3.54 2.36 3.27 4.37 5.82 2.63 3.55 4.46 6 2.82 3.72 6.54 8.55 1.46 1.73 2.09 2.45 7.54 8.09 6.36 6.82-3.54 4.27 6.45 6.91 6.28 6.64 3.9-3.73 5.73 6.27.18.28.37.36 1.63 1.82 1.37 1.45 3.91 4.18 2.63 2.82 3.46 3.64 4.18 4.54 2.36 2.55 1 1.09 6.46 6.82 4.72 5.09 4.64 5.09 4.91 5.36 3.54 3.82 1.28 1.27 5.36 5.73 3.73 4.09.81.82 4.64 4.91 5.18 5.63 5.91 6.37.82.82 2.63 2.9 1.82 2 9.64 10.28 9.72 10.45-6.72 7.64-2.82 3.18-.55-.46-4-2.72-1.36-.73-.73-.18-1.72.18-.82.18-.64.27-.36.37-.73.91-1.45 2.82-1.28 2.81-4.27 8.55-4 8.45-1.27 2.91-.36.64-.28.36-2.36 2.18-2 2.28-4.45-4.73-4.37-4.55-.36.55-.37.54-.72 1.55-.64 1.09-2.36 5.73-.37.73-2.45 4.63-.82 1.55-2.18 3.72-1.64 2.64-1.36 2-.55-.55-.36-.45-7.82 8.09-4 4.82-8.54 9.27-4.27 4.55-3.46 3.91-.27.27-.27.27-.64.64-1.64 1.45-1.27 1z" stroke-linejoin="round"/></defs><use xlink:href="#a" fill="#9dc8ca" stroke="#9dd7f0" stroke-width="5.76"/><defs><path id="b" d="M1428.36 2337.84l.19.72-.64-.09-6.09-6.09-.18-.18-4.73-4.73-3.09-3-6.27-6.18-6.73-6.73-4.64-4.54-4.09-4-12.72-12.73-27.46-27.09-9.63-9.45-4.18-4.18-5.82-5.82-5.18-5.27-1-.91-5-5-1.82-1.73-1.64-1.64-.36-.36-4.91 5.73-2.91 3.45-.63.82-2.28 2.64-3.72 4.36-.82.36-.36.09-.46-.09v.64l-.27.73-.82 1.27-10 11.09-1.64 1.82-7.27-8.64 2.27-2.73-9.36-9.63-5.27 5.54-1.82-2.27-5.36 6.64-9.82-10.55-12.36-13.27-21.18-23-18.64-18.45-5.45 2.72-6.09 2.55-6 2.18-4.37 1.46-5.9 1.54-3.37.73-3.36.72-6.18.91-5.73.64-5.36.36 2.09-2.9 2.27-3.28-.64-.09-2 2 2.28-3.27 1-1.46 2.91-3.9 1.72-2 1.46-1.73 3.45-3.37 1.91-1.72 2.09-1.73 3.73-2.73 2.27-1.63 35.73-22.64-1.19-1.82-.09-.09-3.18-3.91-3.09-3.91-4-5 1.09-.54 2-.64.64-.45 1.45-1.46.46-.63.45-.28.36-.09h.55l1.18.28h.73l.36-.19.37-.27.45-.54.18-.46.09-.63v-.64l-.18-2.55v-.81l.27-.73 1.37-1.46.82-.81.72-.46 1.46-.36h.82l2.81.82.82-.1 1.09-.09 1.91.09.55.1.54-.1.28-.18.36-.36.82-1.73.36-.45.36-.28h.37l.45.1.28.18.54.27.55.09.27-.18.18-.27.64-.28.18-.27.27-.27.27-.18h.28l.45-.28.27-.27.28-.36.27-.55.73-3.54 6.54 8 4.09-4.19.55-.9 2-2.28.18-.09h.55l.45.27 1.64 1.82 4.9 5.46.55.54 1 1 3.91-2.45 5.18-3.37 3.64-2.36 2.72-1.73.28-.18 3.81-2.45.73-.46-.45-1.27-1.64-4.91-1.82-5.54-1-2.91-2.91-7-.54-1.28-1.27-2.63-1.28-2.46-.18-.45-.18-.27-.09-.28.27-.63.27-.64.28.55.27.63.27.46 4.91-1.64.36-.54.19-.46v-.54l-2.73-10.55.18-2.27 1.18-1.27 9.46-.1 2.18-1 9.45-10.72 2.18-.55 3.28 2.82 1.81-.36 1.55-1.64 1.73-7.27 5.54-1 1.82-1.46.64-2.91-1.55-10.72.82-2.18 8.18-5.82 3.18 2.45 6.37.82 8.36 1.64 27.18 13.27 24.27-6.46-5.82-21.54 4.18-21.91.37-.36.54-.46.55-1 1.18-1.45.55-.91.72-.73.37-.18.54.09.46.37.72.36 2.19 1.18 1.09.82 1.9 1.18.37.09h.45l.46-.18.45.09.55.36 2.09.64 4.27.46.82.18 1.82.91.54.45.55.18.45.09-3.72-23.45-3.19-5.18-.45-.27-2.46-2.19-4.81-4.81-1.28-1.28-2.27-2.45-.82-.82-.54-.27-1.18 5.54-.28.82-.45.82-.46.64-.54.63.27-.63v-1.82l.18-2.55-2-2.18-.54-.45-1.18-.55-.64-.36-.09-.19-.09-.36-.73-5.36v-1.82l.09-.55.18-.45.73-1.73.36-.36.37-.18 1.82-.19.54-.18 1.82-1.09.82-.27 1.91-.27.54-.19.64-.27 1-.91.73-.91.27-.45.18-.73.18-.72v-2.37l-.18-2.54-.36-5.91-1-6.91-.18-4.64.09-1.63.09-.91.63-2.28.09-.63-.09-.64-.18-.18-.54-.09-2.19.54h-.54l-.18-.27v-.36l.09-.37 2.36-5.54.37-1 .09-3.27.27-.46.27-.45.46-.28.72-.18 5.91-.36.64-.18 1-.73 1-1.55.36-.45 2.46-1.09.45-.46.36-.45.28-.64.09-.81-.18-1-.19-.82-.27-.55-.09-.36.18-.18 1.46-.28.27-.09.73-.72.63-.37.82-.27 2-.46.46-.18 1.81-2.18-3.81-3.36-17.82-15.27-8.64-7.64-8.72-7.45-16-13.91-15.18-13.18-21.64-18.73-.73-.64-16.9-14.72-8.09-6.91-6.55-5.82-12.36-10.64-4.46-3.82-5.45-4.81-6.36-5.55-1.73-1.36-6.09-5.37-1.09-.91-.91-.72-7.91-6.82-1.27-1.18-10.09-8.73-8.09-7-2.09-1.64-2.09-1.45-2.73-1.73-2.27-1.36-2.46-1.18-4.73-1.91-4.63-1.46-2.64-.72-12.45-2.55.27-1.63.27-.91.46-1 .82-1.46.72-.91 3.28-4.82.54-.45.55-.27.63-.28 1.91-.36.37-.18.27-.73v-.36l-.27-.46-2-1.09-.82-.72-.18-.37v-1.18l.27-2.91.91-3.36.36-.73.27-.55.28-.27.63-.63 1.09-1 1.46-1.28.45-.18.55-.18.54.27 1.73 1.46 1 .54 1 .27h1.09l1.27-.45 1.46-.55.91-.36 2.82 2.64 9.99 9.18 2.1 3.18.36 1.09 1.36 1.18 1 .82 1.55 1.64 6.18 5.73.64.54 3.81 3.46 8 7.27 2 1.82 2.37-2.64 1.63-1.91.09-2.82 5.73-5.72 1.73-2 3.91-2.28 3.72-.27 1.55-.09 3.91-.36 8-.73 3.18-.27-.09-1.19 10.72-1 16.09-1.18 4.91-.45 31-2.55 4.36-.54 1.37-.19 7.45-.63 5.37-.27 3.54-.28 9.73.73 7.18 1.45.82.19 3.72.81 2.19 1.37 2.72.45 1.64.91 7.54 3.64 4.55 2.73 7.27 5.63-.27-1.27 2 1.64 2.45 2.36 1.73 1.63 2.82 2.64-.37.46 9 8.9.28-.63.63.54 14.09 13.73 1.64 1.55.64.63 1.72 1.64 2.55 2.54.73.64-.37.45-.27.28 2.27 2.36 23.09 21.73 2.46 2.54 7.18 7 9.18 8.91 4.54 4.64 7.28 7.09 8.54 8.91 29.09 34.91 14.64 18.18-.28.81 5.18 6.28 1.55 1.27 6.27 7.55 2.09 3.27 2.27 2.72 2.55 2.91 1.45 1.73.28.36.72-.63.19.36.27.37-.64.45.28.36 1 1.09.63.73 2.73 1.82-1.55-.55 1.91 2.19 4.91 5.36 5.91 6.36 12.18 12.64 1 1.09.64.64.63.72.73.73.64.64 1.36 1.36 1.64 1.73 1.82 1.91.63.63 2.27 2.37 2.19 2.45 2.18 2.55 2.27 2.82 2.27 3.09 2.46 3.36 2.54 3.91.55.91 2.27 3.82 1.55 2.63.27.55.63 1 .28.54-1.82 2.28-.27.27-.28.36-.09.27h-.45l-.73-.09 1.36 1.46 5.82 6.27 1 1.18 1.09 1.27.91 1.46.18.36.46.73 2.27 3.73.64.82.82 1.27 3.9 7.73 4.82 8.54 5.27 9.55 6.19 10.54-8.55 5.82-.09.09-.09.09v.09l.09.09 1.64 2.73-1.37 1.09-.72.73v.91l.18.27.18.45.27.19.82.54.73 1.09.54.27 1.55.82 1 .82-5.36 1.82-12.19 13.82-4.81 5.45-9.73 11-2.64 3 .37.09.45-.09.64-.45.36-.09.55.09.72.72 2.55 2.64 1.82 1.82 4.45 4.63.64.73.27.46.27.91.09 1v.18h1.37l.72.27.37.36 1.27 1.55 3 3.27.09.18v.82l-2-.18-5-.09-.09.54h-.27l-6.46-.27-5-.09-7.45-.18-3.27-.18-3.09-.09h-2.27l-5.82-.73-1.64-.18-6.91-.28-3.54-.18.18 1.37-.09 1.27-.37.82-.9 1.45-1.1 1.09-3.9 4.64-5.37 6.36-3.45 4.64-4.55 6.18-5.18 7.18-3.18 4.55-1.64 2.36-1 1.82-.72 1.63-1.09 2.46-1 1.45-1.19 1.28-2.36 2.63-3.18 3.73-3.09 3.54-4.37 4.91-3.9 4.37-4.09 4.63-1.1 1.19-4.36 4.9-6.45 7.46-6.64 7.45-6.18 7.09-.36.37-5.19 5.91-.27.27-.27.27-1.27 1.46-8.37 9.63-3.09-11.72-1.18 1.18-1.45.91-.82.36-1.55.27-.63.18h-.37l-.36.1-5.27.72-1.73.28-4.91.63-.54.09-3.19.28-.36.09h-.45l-.46.09.82-6.82-.64-.18-9.09-1.37-5-.45-6.18-.82-3.73-.27-.18.45-.36 2.37-1.18 11.54-1.28 11.55-.36 3.45-1.54 14.18-.19 1.46-.45 4.18 15.54 8.63-.91 5.64-7.99-1.09-1.64-.18-3-.37-3.27-.54-.46-.09-1.54-.46-3.64 4.09-1.09 1.28-1.45 1.54-2.46 2.82-1.91 2-1.09 1.27-.73.82-.81.91-1.19 1.36-2.9 3.19-2.55 2.9-2.27 2.46-.64.73-.73.81-.91 1-6.99 7.91-5.28 5.73-16.45 18.27 8.64 8.46 6.72 6.72 6.37 6.28 3 3 4.9 4.81 6.09 6.19z" stroke-linejoin="round"/></defs><use xlink:href="#b" fill="#9dc8ca" stroke="#9dd7f0" stroke-width="5.76"/><defs><path id="c" d="M1298.01 2195.2l1.09-.72.36-.09-1.81-5.09-1.82-5.91-2.55-7.55-2.18-6.91-1.45-4.45-.28-.91-9.72-29.73-.64.46 4.18 12.91 3.64 11.09 1.73 5.54.36 1 1.36 4.36 1.73 6 2.54 9.37 2.46 7.63 1 3z" stroke-linejoin="round"/></defs><use xlink:href="#c" fill="#9dc8ca" stroke="#9dd7f0" stroke-width="5.76"/><defs><path id="d" d="M1150.56 2837l-.63 2.82-.37 1.73-.45 1.82-.64 1.9-.45 2.1-.18 1.45-.28 2.82-1.36 3.91-1 2.27-1.18 2.18-2.36 3-1.37 2.09-2.18 2.82-2.91 2.36-2.82 2.91-2.27 1.46-2.91 1.18-2.36 1-2.82.91-2.27.54-2.64 1-4.36 1.19-3.09-.19-2.91.28-3.27-.28-2.91-.72-2.46-.46-2.36-.82-2.46-.09-2.54-1.27-2.27-1-1.91-1.27-2.37-3.09-4.72-3-.73-.37-.55-.45-.54-.46-.73-.81-1.36-1.37-3-3.45-2.73-3.37-2.54-4.45-.19-.36-.18-.64-.45-2.55-.18-.81-.09-.73v-.64l-.1-.63-.18-.46-.27-.54-1-3.37-.18-.36-.27-.27-.28-.37-.36-.36-.91-4.73-1.45-4.63-.91-2.91-.82-3.46-4.27-10.45-5.28-9-5.09-9.46-.45-.81-.82-1.09-.73-1.19-1.18-1.36-1-1.27-1.18-1-.64-.91-.91-1-.9-.82-1-.82-1.28-1.36-1-1.46-1-1.63-1.09-1.18-1-.91-1.54-1.64-1.09-1.45-1.09-1.19-1-1.09-1.1-1.18-.81-.73-.73-1-.73-.72-.73-.28-.9-1.09-.91-.91-.91-1.18-.91-1-1.46-1.18-1.54-1.64-.82-.81-1.18-1.46-1.36-1.54-1.46-1.28-1-1-.91-1-.54-1-.73-.72-1.64-1.73-1.09-1.27-1.09-1.64-.91-1-1.09-1.36-1.73-1.73-1.45-1.27-1.73-2.37-1.18-1.36-1.18-1.55-.55-1.18-.63-1.63-.46-1.82-.54-1.18-.37-1-.18-1.09-.36-2.64v-3.55l.45-2.63.18-3 .64-1.91 1.46-3.91 1.45-4.27.45-1.28.55-1.63.55-2.46.72-2.18.37-1.63.09-1.28-.28-1.45-.27-1.46-.73-1.72-.54-1.37-1-2.18-1-1.73-1-1.36-.82-1.36-1-1-1.36-1-1.28-.82-1.09-1-1.45-.91-1.27-.64-1.64-.36h-1.18l-1.46.09-1.54-.09-1.27-.18-2.19-.73-2.27-.73-1.09-.63-1.36-.82-1.46-.46-1.54.1-1.18-.19h-.46l-.91.09-1.18.19-1.45.54-1.09.09h-1.19l-.81-.27h-1.46l-1.45.09h-1l-1.28.18-1.18.09-1.54.09-1.37-.27-1.72-.18-1.73-.18h-1.55l-1.54-.09-2.09-.28-1.09-.18-1.55-.45-1.63-.91-1.73-.55-1.09-.18-1.28-.63-1.18-1-.36-.55-.55-.55-.63-.09-1.64-.27-1.27-.36-1.91-.28h-1.09l-1.27-.18-1.37-.54-1-.28-.91-.54-.91-1-1.45-1-1.18-.73-1.27-1.09-1.09-.91-.91-1.09-1.19-1.09-1.09-.91-.63-.82-.64-1-.91-1-.82-.72-1.18-1.46-.82-.91-.91-1.36-.72-1.55-1.28-1.63-.72-1.55-1.28-2.18-.9-1.64-.55-1.81-.64-1.82-.72-2.55-.55-2-.63-1.82-1-1.54-.82-1.18-1-2-1.09-1.73-.82-.73-1.09-1.27-.91-1.27-.09-.09-.73-1-.55-1.55-.72-2-1.18-1.82-.73-1.54-.82-1.37-.91-1.45-.82-1.46-.72-1.18-.64-.91-1.18-1.81-.91-1.55-.46-.55-.9-1-1.1-1.09-1.54-1.63-.91-.73-1.09-.73-1.36-.91-1.55-.9-1.45-.64-2.09-.82-1.1-1-3.18-.09-5.09.64-14.09 6.18-11.91 6.72-6.45 2.37-1.73.18-6.27 3.45-4.09 1-8.45 1.46h-3.91l-4.28.18-6.18.46-6.45 2-1.18.18-1.18.09-1.19.73-1 .36-.91.36h-1.45l-1.09-.09-1.36.37-1.19.09-1.09-.09-1.09-.19-1.09-.09h-1.09l-1.27-.63-1.55-.73-1.91-.73-1.72-1-1.09-.54-1.19-1.09-1.63-.91-1.28-.91-1.45-.82-1.64-1.18-1.18-1-.72-1.18-1.1-.91-1-1.09-.54-1.1-.55-1.18-.81-1.09-.73-.73-1.18-1.81-1.28-1.55-.72-1.09-.64-1.27-.45-1.46-.73-.81-.73-1-.45-1.46-.19-1.45-.09-1.28-.18-1.91.18-1.45.37-2.55.54-4.45.82-7.09.55-2.36 2-5.46 1.72-3.82.64-1.09.36-1.54 6.09-16.91 1.91-3.91 1.09-3.55 2.82-8.27 1.82-9.91.36-1.82.09-1.72-.27-1.82-.45-2-.09-1.82.18-2.09.45-1.36-.27-1.91-.45-2.91-.73-4.27-.27-2.91-.64-2.64-.55-2.09-.72-1.82-1.09-1.73-1-1.54-1.37-1.18-2.18-.91-2.18-1-2.36-.46-1.64-.36h-1.46l-1.54.73-1.46.45-1.45.73-.82.91-.82 1.54-1.09 1.73-.54 1.91-.64 1.36-.82 1.46-.45 1.54-.82 1.64-.27 1.64-.64 1.91-.45 1.36-.28 1.18-.36 1.27-.82 1-.72 1.82-.91 1.55-.82 3-1 1.91-.64 1.72-.54 2-.64 1.18-.73 1.91-1.27 2.19-.64 1.45-1.27 1.18-.82 1.37-1 1.36-.91.91-.72 1.36-.91.91-1.09 1.46-1.46 1.45-1.45 1.18-1.27 1.18-1.1.64-1.09.82-1.09 1.09-1.27.82-1.09 1.27-1.55 1-1 .82-1.45 1.09-1.45 1-1.37 1-5.63 1.45-.64-.36-3.55.45-8.27 2.37-5.91 2.45-2.63-.36-5.55-2.82-10.82 1.91-8.45-2-8.82-3.55-4.81-4.27-3.19-2.91-2.45-3.36-2.64-4.64-1.91-4.91.09-4.54-.63-1.73-1-5.36 1.82-5.55 5-17.09 3.81-9.91.82-5.09 1.37-3.63-.19-4-.9-3.19-.91-3.63-2.55-3.91-2.45-3.73-4.46-9.36-7-9-2.45-2.46-.73-.54-.91-.46-3.63-.63-4.64 1.45-5.36 3.09-13.55 5.19-8.91 1.27-7.09.27-10.09-.54-10.45-3.55-6-1.55-5.09-1.36-11.55-2.91-13.18-2.73-13.91-2.54-8.18-.55-23.54-1.45-6.18.09-15.82-.73-18.45-1.72-14.27.36-11.28 2.36-6.36.64-1.82.18-3.45.46-3.82.72-9 1.55-1.45-.37-2.19-.63-2.72-1.55-2.73-2.09-2-2.82-3-7.09-6.18-7.36-3.27-4.27-3.55-2.64-1.18-.82-6.18-3.81-5.73-2.55-8-3.18-9.45-1.82-13 .64-9.91 2.72-13.64 5.73-12.99 7.55-3.55 4.18-4.18 4.27-3.64 2.45-3.18.46-2.54-1-1.64-1.55-2-2.72-1.45-3.73-1.46-7.27-1.64-13.82-1.9-7.55-1.46-6-2.36-8.27-2.91-3.73-4.55-4.45-4.91-2.82-4.81-2.09-5.18-.64-5.64.1-4.18.54-6.18.82-8.19 1.54-7.36.37-12.72 1.73-7.1.09-7.72-1.28-9.27-3-7.37-3.63-11.45-5.91-10.55-5.46-14.27-7.18-4-2-4.54-.82-7.09.37-6.91 1.09-11 2-9.55 1.54-7.27.64-5.18 1.73-3.36.18-2.64.18-3.73-.36-3.63-1.37-3.91-2.18-2.91-2.72-.45-.73-2-3-.55-5.46.82-3 .73-2.81 2.54-4.82 4.45-5.64 6.64-5.73 6.27-4.72 7.28-5.64 4.18-5 2.54-4.18 2.37-5.09 1.27-3.82.27-.64 1.36-9.27.73-10 .09-2.36.09-3.09.73-3.91 1.46-3.36 2.18-2.64 2.82-2.73 1.45-1.36 5.36-2.27 2.46-1.09 1.27-.46 2-.73 3.45-1.91 7.09-2.9 5.82-3.28 4.73-3.36 5.91-4.73 5.09-4.54 5.73-5.64 4.09-4.36 4.27-5.91 2.82-4.55 2.81-4.72 1.73-3.64 2.27-5.91 2.1-5.54 3.45-11.64 1.82-10 .09-7.36v-5.37l-.18-9.63-.37-11.46-.82-12-.18-11-.09-10.63v-10.37l-.54-6.18-.64-8.09-1.82-15.18-1.27-10.09-1.55-14.36-.18-11.19v-5.63l.37-7.36.45-3.46.55-4 1.18-6.18 2-7.64 2.91-9.18 3.27-9.09 2-6.18.18-.36 2.46-2.82.27-.18 3.27-1.73 2.45-.55 4.73-.36 5.82-.36 8.27 3.45 9.55 5 9.63 2.27 9-.09 10.46-4.73 5.72-3.81 6.55-5.18 9-6.55 5.54-4.73 3.73-5 .82-5.54 1.36-6.18 1-6.82-1.36-13.27 3.36-2.1 17.36-11.09 20.55-11.36.45-.27 42.64-23.73 18.63-10.36 27.45-15.27 21.09-11.73 42.82-23.73 13.45-7.36 24.46-13.45 13.81-7.64 37.36-20.55 80-44.45 5.18-2.91 7.55-4.18 6.54-3.64 21.54-11.54-1.72-5.91-.64-2.36-2.27-5.46-1.64-3.09-1.63-2.73-1.55-2.18-3.27-5.45-1.09-1.46-1.91-2.81-2.09-3.19-1-1.72-1.09-1.64-1.37-1.45-1.81-1.82-7.37-6.46-1.18-.81-1.45-1.37-1.1-1.73-.27-.45-.63-.82-2-1.82-1.55-1.27-2.64-2.27-.81-.55-5.19-3-3.09-2-1.27-.72-1.27-.46-1.36-.18-1.91.09-1.73.18-.73.09-3.54.82-1.18.55-1.46-.09-.73-.19-1.27-1-1.73-.81-2.91-.37h-3.45l-4.45-.27-11.37-.27-2.18-.28h-2.63l-1 .09-.55.37-.73.45-1.45 1.73-.55.45-1.18.46-.54.09-4.73-.64-1.91-.36-2-.64-1.64-1-3.36-2.45-4.73-3.46-5.45-4.81-2.55-2.82-2.54-2.91 75.27-42.82 43.45-24.09-.46-.72-1.27-2.28-5.36-10.27-2.64-5-4.27-7.64-17.45-32.63-2-3.64-3-6.09-.46-.72-.63-.55-.37-.18-.45-.18-23.55-44.55-7.63-17.54-14.09-26.18-3.18-5.91-22.82-42.27-25.18-44.91-26.36-46-23.37-43.27-14.45-25-2.91-5.18-5.09-9.18-1.64-2.82-3.18-5.82.64-.27.82-.55 1-.82 5.36-5.45.36-.82.28-.82.27-1.45.09-2 .09-2.82.82-7.27.64-5.46.63-3.72.46-2.37.82-2.45.72-2.09 1.18-2.91.82-2.64.64-2.63.36-2.73.37-6.09.09-1.73-.28-6-.09-8.36.19-1.37.18-1 1.36-4.45 1.91-6.09 1-3.09.64-1.27.9-1.19 9.37-9.45 2.36-2.36 8.09-10.37 1.37-2 3.45-5.45 2.18-3.18 3-4 1.18-1.37 1.37-1.09 1.45-1.18 2.36-1.45 4.28-1.55 2.45-1 2.64-1.55.82-.81 3.09-3.64 1.18-1.09.82 8.82.63 3.09 1.91 5.36 2.18 7.55 1.09 3.27 1.28 4.36 1.45 4.18.64 1.19 1.36 2.36 2.18 2.64 3.46 4.09 1 1.27 1.09 1.82 2.27 3.09 1.73 2.54 2 3.37 2.09 4.27 6.36 12.82 1.64 3.36 10.36 21.46 6.55 12.81 1.9 3.73 2.37 4.36 2.45 5.09 1 1.55.82 1.27 2 1.91 1 .64 1.36.82 11.09 5.45 9 4.36 4.64 2.37 1.64 1.09 1.09.82.91.91.9 1.18 1.37 2.45 1.36 2 1.18 1.64 1.64 2 3 3.27 1.91 1.91 1.82 1.45 1.27 1 1.82 1 1.63.64 1.82.64 1.73.45 2.63.46 9.19.45 6.36.64 2.45.36 1.46.36 3.45 1.64 4.55 2.55 4.45 2.72 8.73 6.37 1.73 1.36.9-.82 1.28-2.18 1.63-2.91 2.19-3.82 2.45-6.45.55-1 .81-1 .91-.46.64-.63.64-1.64.63-.82.46-.36.63-.27 2-1 .91-.82.09-.27-.09-.55-1.09-2.36-.82-.91-.54-1.18-.46-1.28-.18-.72v-2.55l.18-.45.37-.46.63-.54.46-1 .09-.37-.09-.45-.19-.46-.54-.36-1.27-.73-1.46-.54-1.18-.28-.36-.27-.28-.36-.45-2.64-.45-1.36-.1-1.91-.18-.73-.27-1-.09-1.18-.18-.73-.18-.72-.55-1.55-.91-1.64.18-.54 1.09-.64 1.37-.91-9.91-20.09-7.82-15.36-1.36-2.36-1.64-2.37-.91-1.18 1.37-.64h.63l.82.55 14.18 10.73 4.27 3.45 1.55-1.45.64-.91 8.72 6.82 6.55 5 6.18 4.63 2.73 2 14.54 11.27 3.82 3.28 1.82 1.82 1.45 1.45 1.73 2.09 2.91 3.82 1.27 1.91 2.45 4.27 1.09 2.18 2.82 5.64 15.18 30.91 3.91 7.72 7.46 15.28.81 1.45 2.91 6.09 3.37 7.82 3.18 7.63 4.18 9.73 9 20.73 13.18 31.54 1.27 3.37 1 2.81 2 6.46 1.46 5.82 2 10.45 1.72 9.55.46 3.09h-.18l-2.09 1.09-1.55.54h-.45l-1.91-.27-1.09.09-5.73 1.91-7.27 2-.18.09-8.82-13.36-3.91-5.82-2-3.09-6 4-6.73 4.54 6.28 8.28 2.36 3.18 5.18 6.45 2.82 2.73 1.36 1.09 6.73 3.73 10.18 5.45 3.09 1.73 1.55.82 1.9 1.54.55.64.55.55.9 1.63.55 1.46.45 2.63v.73l-.09 2.09-.27 2.55-.27 1.27-1.91 7.36-2.18 7.64-4.64 15.09-4.45 15-1.09 5.18-.55 3.64-.18 2.54v2.46l.27 6.09.64 8.45.36 2 .27 1.36.46 1.46.73 1.54 2.27 4.37 1 1.91.27.45 3.82 4.55 5.18 6.09.73.82 3.36 3.18.82.63 4.54 2.91 2.37 1.28 2.45 1.09 2.55 1.36 6.45 3.45 6.18 3.19 5.37 3 4.36 2.45 4.64 2.45 18.9 10.19 5.55 3.09 11.82 6.36.91-1.18.63-.82.27-.09h.55l8 4.09.27.09h.73l.45-.27.55-.46.36-.63 2.28-5.18 4.45-11 .36-.64 1-.82 1-.73 4.37-2.72 6-3.91 4.09-2.64 7.63-5.09 8-5.54 6.09 5.81 6.37 5.82 5.09 4.91 1.81 1.64.55.45.73.64 2.18-4.73.73-1.54.27-.55 1.73-3.73 5.27 3.55 5.73 4.18.81.73.19.27.45-.64.45-.45h.46l.27.18 13.18 13.09 19.18 14.09 14.91 9.73 42.18 29.09 53.18 48.82 17.91 14.72 3.91 2.18 6.63 3.82 1.09.73.37.36.27.19v1.27l.54.09.82.45 1.91 1.64 3.46 3.18 5.54 4.91-2.91 4-1.18 1.45-.55.73 6.19 5.55 8.54 7.82 11 10.09 7.55 7.09 12.27 11.54-.91.36-1.46.55-1.27.45h-1.09l-1-.27-1-.54-1.73-1.46-.54-.27-.55.18-.45.18-1.46 1.28-1.09 1-.63.63-.28.27-.27.55-.36.73-.91 3.36-.27 2.91v1.18l.18.37.82.72 2 1.09.27.46v.36l-.27.73-.37.18-1.91.36-.63.28-.55.27-.54.45-3.28 4.82-.72.91-.82 1.46-.46 1-.27.91-.27 1.63 12.45 2.55 2.64.72 4.63 1.46 4.73 1.91 2.46 1.18 2.27 1.36 2.73 1.73 2.09 1.45 2.09 1.64 8.09 7 10.09 8.73 1.27 1.18 7.91 6.82.91.72 1.09.91 6.09 5.37 1.73 1.36 6.36 5.55 5.45 4.81 4.46 3.82 12.36 10.64 6.55 5.82 8.09 6.91 16.9 14.72.73.64 21.64 18.73 15.18 13.18 16 13.91 8.72 7.45 8.64 7.64 17.82 15.27 3.81 3.36-1.81 2.18-.46.18-2 .46-.82.27-.63.37-.73.72-.27.09-1.46.28-.18.18.09.36.27.55.19.82.18 1-.09.81-.28.64-.36.45-.45.46-2.46 1.09-.36.45-1 1.55-1 .73-.64.18-5.91.36-.72.18-.46.28-.27.45-.27.46-.09 3.27-.37 1-2.36 5.54-.09.37v.36l.18.27h.54l2.19-.54.54.09.18.18.09.64-.09.63-.63 2.28-.09.91-.09 1.63.18 4.64 1 6.91.36 5.91.18 2.54v2.37l-.18.72-.18.73-.27.45-.73.91-1 .91-.64.27-.54.19-1.91.27-.82.27-1.82 1.09-.54.18-1.82.19-.37.18-.36.36-.73 1.73-.18.45-.09.55v1.82l.73 5.36.09.36.09.19.64.36 1.18.55.54.45 2 2.18-.18 2.55v1.82l-.27.63.54-.63.46-.64.45-.82.28-.82 1.18-5.54.54.27.82.82 2.27 2.45 1.28 1.28 4.81 4.81 2.46 2.19.45.27 3.19 5.18 3.72 23.45-.45-.09-.55-.18-.54-.45-1.82-.91-.82-.18-4.27-.46-2.09-.64-.55-.36-.45-.09-.46.18h-.45l-.37-.09-1.9-1.18-1.09-.82-2.19-1.18-.72-.36-.46-.37-.54-.09-.37.18-.72.73-.55.91-1.18 1.45-.55 1-.54.46-.37.36-4.18 21.91 5.82 21.54-24.27 6.46-27.18-13.27-8.36-1.64-6.37-.82-3.18-2.45-8.18 5.82-.82 2.18 1.55 10.72-.64 2.91-1.82 1.46-5.54 1-1.73 7.27-1.55 1.64-1.81.36-3.28-2.82-2.18.55-9.45 10.72-2.18 1-9.46.1-1.18 1.27-.18 2.27 2.73 10.55v.54l-.19.46-.36.54-4.91 1.64-.27-.46-.27-.63-.28-.55-.27.64-.27.63.09.28.18.27.18.45 1.28 2.46 1.27 2.63.54 1.28 2.91 7 1 2.91 1.82 5.54 1.64 4.91.45 1.27-.73.46-3.81 2.45-.28.18-2.72 1.73-3.64 2.36-5.18 3.37-3.91 2.45-1-1-.55-.54-4.9-5.46-1.64-1.82-.45-.27h-.55l-.18.09-2 2.28-.55.9-4.09 4.19-6.54-8-.73 3.54-.27.55-.28.36-.27.27-.45.28h-.28l-.27.18-.27.27-.18.27-.64.28-.18.27-.27.18-.55-.09-.54-.27-.28-.18-.45-.1h-.37l-.36.28-.36.45-.82 1.73-.36.36-.28.18-.54.1-.55-.1-1.91-.09-1.09.09-.82.1-2.81-.82h-.82l-1.46.36-.72.46-.82.81-1.37 1.46-.27.73v.81l.18 2.55v.64l-.09.63-.18.46-.45.54-.37.27-.36.19h-.73l-1.18-.28h-.55l-.36.09-.45.28-.46.63-1.45 1.46-.64.45-2 .64-1.09.54 4 5 3.09 3.91 3.18 3.91.09.09 1.19 1.82-35.73 22.64-2.27 1.63-3.73 2.73-2.09 1.73-1.91 1.72-3.45 3.37-1.46 1.73-1.72 2-2.91 3.9-1 1.46-2.28 3.27 2-2 .64.09-2.27 3.28-2.09 2.9 5.36-.36 5.73-.64 6.18-.91 3.36-.72 3.37-.73 5.9-1.54 4.37-1.46 6-2.18 6.09-2.55 5.45-2.72 18.64 18.45 21.18 23 12.36 13.27 9.82 10.55 5.36-6.64 1.82 2.27 5.27-5.54 9.36 9.63-2.27 2.73 7.27 8.64 1.64-1.82 10-11.09.82-1.27.27-.73v-.64l.46.09.36-.09.82-.36 3.72-4.36 2.28-2.64.63-.82 2.91-3.45 4.91-5.73.36.36 1.64 1.64 1.82 1.73 5 5 1 .91 5.18 5.27 5.82 5.82 4.18 4.18 9.63 9.45 27.46 27.09 12.72 12.73 4.09 4 4.64 4.54 6.73 6.73 6.27 6.18 3.09 3 4.73 4.73.18.18 6.09 6.09.64.09-.19-.72-6.09-6.19-4.9-4.81-3-3-6.37-6.28-6.72-6.72-8.64-8.46 16.45-18.27 5.28-5.73 6.99-7.91.91-1 .73-.81 10 31.45 3.27 8.64-10.91 12.81-.45 1-.27 1.28.09 2.27.36 2.45 2.91 1.73 3.27 2.09 17.27 13.64 5.1 1-.1-1.18-.09-1.19.09-2.54.37-2.09.27-1.27.46-1.28.63-1.45.73-1.46 1.36-2.09.37-.45 2.54-2.82-.36 5.36.18.28v.36l-.27 1.18v.37l.09.54.63.73.19.54v.64l-.19.82v.54l.1.37.9.81.28.37v1.45l.81 2.55.55 1.36.36.64.09.45-.27.37-.18.09.36 8.63 2.64 2.09.45.55.1.55-.19.36-5.45 2.54 1.45 7.28 1.64 6.81 1.27 1.82 3.37 2 .72 1.55 1.37 2.91.09 2-1 1.91-1.73 2-.54.45 2.54 14.91-2 .36-1.64.46-1.72.45 2.45 14.82.55 6.91v3.09l1.27-1.46 2.09-2.09 2.55-2.63.54 1.63-1.18 8.73-.36 4.91-.64 3.27-.27 2-.46 1.37-.36.18-2.91 17.63-.18 9.19.91 7.63.72 3.73 2 6.54 1.46 4.73-4.09 3.73.36 1.91 9.64 31.09-1.46 2.27-.91 2.45-.27 2.73-2.91 31-.54 8.45-.09 2.55-.19 1.27-.09 1.46-.54 7-1.64 20.09-.18 1.72v3.28l.27 1.45.28 1.18.27 1.19.91 3.18.82 2.09 1.27 2.54-1.64 1.28-1.36 1.18-6 4.36-2.27 1.73-.55.45-.27.64.09.54.27.73 2.46 3.73.54 1.09-25.54 23.36-2.37 2.09-1.09 1-2.18 2-28.45 25.82-2.55 2.36-2.09 1.73-3.09 4.64-.54-3.46-2.19-5.09-3-2.27-4.27-1.45-4.09-2.82-12-2.82-4.72 1.27-5.46-.82-4.36-1.36-12.46-7.54-9.63-6.1-6.82-4.18-5.54-3.27-2.37-1.45-7.09-4.55-3.63-2.64-5.28-4-1.27-1.09-6.73-6.45-13.63-13.91.09 2.09-.09.64-.27 1.27-.46 2.36-.36 1.73-.73 1.91-.27.64-.37.45-.45.46-1.46.72-.9.28-1.19.09-.45-.19-.82-.36-.64-.64-.99-.81-1.28-.37h-.82l-.54.09-.36.28-.37.36-.27.45-.55 1.1v1.18l1 3 .37.63 1.18 1.82 1.09 2.91 1.36 2.46.37 1.72.27 1.82 1 5.36.18 1.09v1.55l-.64 3.55-.27 2.36-.09.36-.27.09h-.37l-.63-.09h-.46l-.54.28-.27.45-1.55 2.82v.09l-.09.45-.09.64-.09.55-.27.54-.55.91-.91 1-.91 1-.45.36-1.18.64-.64.55-.36.18h-.64l-1-.46-1-.18-1.36-.09-.28-1.64v-.36l.18-.64.19-.18.36-.27.91-.27.73-.09 1.63-.82.73-.55.73-.82.27-.36v-2.18l-.55-1.73-1.36-4.18-.64-1.36-.81-1.55-.55-.82-.54-.54-.55-.19h-.45l-.55.19-.45.27-.28.36-3 6.91-2.81 4.82-.28-.73-.36-.45-.55-.09-1.27.27-1.27.36-1.82.82-1.45.46-.91.45-1.55 1.09-.18.46.09.54.46.55.27.54.09.64-.36 2.73-.28 1.45-.72 1.55-.37 1.18-.09 1.63-.64 1.46-.36.45-.54.37-.46.18-.45.09h-.37l-.91-.55-.45-.36-3.27-3.09-1.19-1.55-4.09-4.45-.36-.36-.82-.37-.82-.09-.72.09-.28.18-.27.37-.18 1-.55 2.91-.27.72v.37l.18.45.28.27.27.73v.82l-.18.27-.28.37-.36.18-.45.18h-.73l-2.09-.73-.82-.18-1.82.09-2.09.37-1 .36-.45.18-.28.27-.18.37v.91l.82 1.63.55 1.28 1.9 5.18.28.45.63.82.73.64 1 .63 1.27.64.37.36.18.82v.36l-.36 1.19-.19.36-.54.55-1.37.72-1.18.37h-.27l-1.09-.73-.46-.18-1.27-.09-1.09.09-.63.18-.82.45-.82.73-2.27 2.64-.46.82-.63 1.54-.55 2.09-.27.82-.46.91-.91 1.09-.45.09h-1.27l-1 .55h-1l-.91-.19h-1.37l-.54.46-.36.54-.1.46-.09.63.73 2.73.18.73.73 1.27.36.46.37.36.72.09.37-.09.54-.27.64-.91.82-2.27.27-.28.55-.18.45.09.27.18.91.73.91.73.64.63.45.55.09.45.28 1.46v1.36l-.1.37-.27.36-.27.18-.55.18-.63.09-5.82-.18-1.46.18-.63.19-.18.18-.28.45-.09 1 .46 1.18.27.55 1.27 1.73.37.45.72.18 1.09.19.73.27.18.18.19.18.36 3-.09.82-.18.73-.55.63-.82.82-.82.46-.9.18-.28.09-1.09 1.09h-1.63l-.46.09-.63.36-.37.09-.91.1-.72.09-5.1 2.18-1.27.73-.27.45-.18.82v.45l.27.64 1.09 1.91.64 1.91 1 5.09.27.91.55 1.18 1.9 2.54.28.46.27.82v1l-.27 1.18-.55 1.09-.27.27-.82.37-1.09.18-.73-.18-1.27-.64-.82-.36-1.09-.19h-.54l-1.28.19-.54.18-.46.18-.91.55-1.18.27-2-.09-2.09.36-.73-.91-.9-.82-.55-.81-1.09-.82-.73-1-.73-1.28-1.09-.9-.54-.46-.64-.82-1.09-1.82-1-1.36-.91-1-.63-1.27-.91-1.09-.82-1-.82-.91-.45-.82-.46-1.18-.73-.82-.63-.64-.73-.72-.73-.73-.45-.73-.64-.45-.72-.73-.82-.82-.46-.63-.36-.73-.27-.55-.55-1-.27-.81-.27-.73-.37-.82-.45-.82-.46-1-.45-.82-.46-1.27-.36-.82-.64-1-.63-1-.55-1.09-.63-1.73-.73-1.18-.55-1.18-1.18-1.45-1.27-1.28-1.73-1.09-1.73-1.36-1.9-1.18-1.55-.73-1.73-1-1.81-.55-1.82-.27-1.91-.09-1.82.18-2.91.64-2.82.91-2.09.91-2 1-2 1.91-1.36 1.36-1.27 1.55-1.19 2.45-.45 1.45-.91 2.46-.45 2v2l.36 2.82.36 2.63.73 3.46.64 2.82 1.45 3.45 1.46 2.91 1.18 2.64.91 2.36 1.36 3 1.46 2.64 1 3 1.45 3.54 1.27 2.91 1.64 2.91 1.27 3.09 1.36 2.82 1.73 3.09.82 2 1.18 2.27 1.09 2.18 1 2.09 1.37 2.19 1.27 2.99 1.63 2.82 1.37 2.55 1.09 2.36.45 1.37.37 1.81.45 2.91.55 2.37.54 2.72.09 3 .09 2.37-.09 2.54v2z" stroke-linejoin="round"/></defs><use xlink:href="#d" fill="#6bacaf" stroke="#6bb4d2" stroke-width="5.76"/><defs><path id="e" d="M1299.46 2194.39l-.36.09-1.09.72-1-3-2.46-7.63-2.54-9.37-1.73-6-1.36-4.36-.36-1-1.73-5.54-3.64-11.09-4.18-12.91.64-.46 9.72 29.73.28.91 1.45 4.45 2.18 6.91 2.55 7.55 1.82 5.91 1.81 5.09z" stroke-linejoin="round"/></defs><use xlink:href="#e" fill="#6bacaf" stroke="#6bb4d2" stroke-width="5.76"/><defs><path id="f" d="M1720.62 2420.02l-.18.27-.37-.37-2.18-2.27-5.73-6.09-9.72-10.45-9.64-10.28-1.82-2-2.63-2.9-.82-.82-5.91-6.37-5.18-5.63-4.64-4.91-.81-.82-3.73-4.09-5.36-5.73-1.28-1.27-3.54-3.82-4.91-5.36-4.64-5.09-4.72-5.09-6.46-6.82-1-1.09-2.36-2.55-4.18-4.54-3.46-3.64-2.63-2.82-3.91-4.18-1.37-1.45-1.63-1.82-.37-.36-.18-.28-5.73-6.27-3.9 3.73-6.28-6.64-6.45-6.91 3.54-4.27-6.36-6.82-7.54-8.09-2.09-2.45-1.46-1.73-6.54-8.55-2.82-3.72-4.46-6-2.63-3.55-4.37-5.82-2.36-3.27-2.73-3.54-3-3.55-1-1.18-8.09-9.55-4.45-5.09-2.64-3.09-9.36-11.09-10.18-12 .27-.27.27-.27 5.19-5.91.36-.37 6.18-7.09 6.64-7.45 6.45-7.46 4.36-4.9 1.1-1.19 4.09-4.63 3.9-4.37 4.37-4.91 3.09-3.54 3.18-3.73 2.36-2.63 1.19-1.28 1-1.45 1.09-2.46.72-1.63 1-1.82 1.64-2.36 3.18-4.55 5.18-7.18 4.55-6.18 3.45-4.64 5.37-6.36 3.9-4.64 1.1-1.09.9-1.45.37-.82.09-1.27-.18-1.37 3.54.18 6.91.28 1.64.18 5.82.73h2.27l3.09.09 3.27.18 7.45.18 5 .09 6.46.27h.27l.09-.54 5 .09 2 .18v-.82l-.09-.18-3-3.27-1.27-1.55-.37-.36-.72-.27h-1.37v-.18l-.09-1-.27-.91-.27-.46-.64-.73-4.45-4.63-1.82-1.82-2.55-2.64-.72-.72-.55-.09-.36.09-.64.45-.45.09-.37-.09 2.64-3 9.73-11 4.81-5.45 12.19-13.82 5.36-1.82-1-.82-1.55-.82-.54-.27-.73-1.09-.82-.54-.27-.19-.18-.45-.18-.27v-.91l.72-.73 1.37-1.09-1.64-2.73-.09-.09v-.09l.09-.09.09-.09 8.55-5.82-6.19-10.54-5.27-9.55-4.82-8.54-3.9-7.73-.82-1.27-.64-.82-2.27-3.73-.46-.73-.18-.36-.91-1.46-1.09-1.27-1-1.18-5.82-6.27-1.36-1.46.73.09h.45l.09-.27.28-.36.27-.27 1.82-2.28.82-.72.72-.73.37-.55 1.36-1.63.45-.28.28-.18h.72l.28.09.45.46.64.82.63.45.64 1.45 2.55 7.46 2.54 6.54.55 1.28.63 1.36 1 1.91 1.28 2.36 4.54 8 6.09 10.73.27.36 5.46 9.64 1.45 2.73 1.91 3.27 4.09 7 3.09 5.18 4.64 7.82 5.09 8.36 4.45 7.27 2.46 3.64 3 4.36 5.09 7.28 3 3.63 1.73 2.18 1.72 1.91 2.46 2.46 1.63 2 1.46 2.36.54 1 .91 2.27.55 1.64.09.46.18.63 3.73.09.91-1.18 1.18.18 1.82.09 1.18.09h.91l2.81.28 4.73.45-.18 1.18-.09 1.09-.82 2-2.54 8.09 7.09 5 15.27 10.37 8.72-1.18 12.09-4.46 5.28-6.63 2-.64.36-4.27h1.18l2.28.18h4.81l7.18-.09h5.09l5.1-.09h1.45l1.64-.09 7.63-.1h3.27l1.91-.09v-.18l-.45-.73 4.64-.09h2.63l.73-.09 1.54.09h1.46l1.27.19 1.18.27 2.37.82 1.27.54 2.27 1.37 1.82 1.45 1 1 1.54 1.73 2.46-2.46-1.55-1.72-2.54-2.46-.64-.82-.27-.54-.45-1.09-.37-1.55-.09-1.18.09-1.09.09-.64.28-.91.63-1.18.46-.63 3.9-4.28-3.54-4.54 2.27-2 8.18-8.09.82-.82 3.82-3.73 2.73-2.64.27-.18.36-.45 4.28-4.27 7.18-7.82 2.91-3.18 5.27-5.91 5.36-6.28 3-3.36 1.91-2.09 5-5.45 7.27-8.19 2.18-2.36 1.82-2.09 7.36-8.45 1.91-2.19 1.64-1.72 3.73-4.46 1.82-2.54 6.81-9.73 6.37-9.09 2.36-3.18 2.73-3.37 1-1.09 7.09-8.27 6-6.91 4.27-5.18 7.54-9.09 17.19 18.82 8.9-11.18 25.82 28.27 7.18 7.91-2.27 2.91 48.54 52.08-29 33.37 24.73 45.09 2.54-4.82 14.19 17.54 10.18 11.09-23.91 27-1-1.09-18.45 19.64-1.28 1.36-.18-.09h-.73l-.18.09-.54.46-.91.81-1.91 2-3 3.37-2.91 1.63-7 6.37-.45.91-.91 1.45-1.64 2.73-2 2.91-3.18 4.18-3.09 3.64-4.37 5-4.54 5.27-8.64 9.73-8.09 8.99-.54.73-4 4.46-5.09 5.81-6 6.37-1.18 1.45-.46.55-.27.45-3.36 3.46-1.91 1.91-2.37 2.9-3.09 3.37-2.18 2-1.82 1.45-3.72 3.09-1.1.73-.72.64-1 .72-2.73 1.91-7.82 6.73-7 5.36-2.63 2.37-.82.63-4.36 3.28-4.55 3.45-2.09 1.55-5.64 4.91-1.27 1-1.64 1.45-2.09 1.64-4.72 3.54-1.55 1.36-6.45 4.82h-.55l-2.72 2.09-1.37 1-1 .82-.63.46-1.28 1-.82.63-.81.64-6.28 5-2.72 2.18-.91.73-.73.63-.36.28-1.55 1.36-.54.36-4.73 4-1.64-2-.63-.81-.73-1.09-.36-.73-.19-.46-1.09-3.54-.45-1.91-.91-3-.36-1.18-2.19-8.18-.81-2.46-.82-1.91-.91-1.91-2.46-4.54-1.36-2.27-1.36-2.37-1.28-2.18-1.81 1.91-.82.73-28.18 30.81-10 10.37-8.55-9.82-.36-2.27-16.82-18.09-2.54 2.9-.64 1.28-.27.45-.46.37-.27.18-.82.36-.45.36-2.36 3.1-.55.54-.73.36-.09 1.28-5.27 2.63-1.18 1.37-7.27 8.27-10.46 11.36-4.72 5.55-4.73 5.54-6.64 7.73-13.18 14.64 4.82 5.18 5 5.54-18.91 21.28-.64.63-6.36 7-.27.37z" stroke-linejoin="round"/></defs><use xlink:href="#f" fill="#09757a" stroke="#097d9b" stroke-width="5.76"/><defs><path id="g" d="M1790.61 2088.3h-1.09l-1.18-.09-1-.09-.82-.09-1.27-.19-1.36-.27-1.28-.27-4.81-1.27-4.55-1.37-2-.54.09-.73.37-.82v-.09l.36-.82.36-.54.82-1.28 4.73-5 1.18-1.27-2.54-2.63-4.1-4.28-1.45-1.63-2.64-2.64-.81-.91-2.64-2.36-.91-.64-.45-.36-2.82-1.73-1.46-.64-3-1-2 2.82.64-2.09 1.09-2.73 1.18-4.27.46-.36 1.36-4.73 1.46.91 2.45-6.09-1.73-1.09 1.18-2.64 1.55-5.91.45-1.91-.36-1.72-.73-1.55-.18-.82.37-1.36 1.45-2.82.18.73v1.54l-.27 1.19-.37 1.18v.82l.19.45.36.45.55.46.54.27h4.46l1.27.18.63.46.46.54.36.55.28.82-.19 2.36.09 1 .28.82.27.45.91.73h.64l.81-.09.46-.18.63-.37.73-.54.55-.64.45-.82.36-.63.1-.64v-1.18l-.19-.55-.18-.36-.73-.73-1.18-.81-.36-.46-.18-.54-.09-.46.18-.54 1.36-2.46.27-.27.46-.18.64-.09.36.18.36.27.37.36.45 1.46.55 1.82.72 1.36.91.91.55.36.73.18 1.09-.18.54-.36.55-.36.36-.91.36-1.28.37-.72.63-.55.1 18.18v6.64l2.54 3.09 6.91 9 .82 1.18 1.09.18 13 2.28 8.09 7.54.09 1.91.27 1.09-.09.36-.18.46-.36.36-1.64.73-.64.45-.63.46-1 .27-.28.46-.18.45-.09.55.09.45.27.36.28.09h.36l1.46-.54.63-.09.64.09.36.18.27.46.1.27-2.28.36-1.63-.18-1.19-.36-1.27-.55-4.63-2.09-.64-.54-.73-.28-1.63-.09 1.09 2.09v.37l-.09.27h-.1l-.36.18-1.18.09-12.27.27.63 3.64.37 2.55v2.27h-4.37z" stroke-linejoin="round"/></defs><use xlink:href="#g" fill="#09757a" stroke="#097d9b" stroke-width="5.76"/><defs><path id="h" d="M2772.19 2245.38l-.09.73-.27.64-.91 1.63-.55.82-2.09 2.64-.64.54-1.45 1.1-.73.45-1 .27-1.18.37-2.45.54-1.28.46-1.63 1-.64.45-2.36 2.45-2.46 2.46-1.54 1.64-2.46 2.9-.91.91-.72.73-3.19 1.64-.81.63-.91.91-.91 1.28-.27.63-3.73-.63-4.73-1.37-1.27-.63-.36-.37-.28-.36-.09-.91.09-.55.09-.36.46-.73.36-.36 1.82-.18 1.45-.18.46-.19.64-.72.18-.46.36-1.18v-1.36l-.18-.82-.55-.91-.54-.82-1.27-1.45-1.82-1.19-3-1.18-1.73-.82-.45-.36-.19-.36-.09-.64v-.73l.19-.45.36-.55 5.09-3.9.27-.37.46-.63 1-1.28 2.81-4 .37-.63.54-1.55.91-4 1.28-3 1.63-3.54.91-1.37.09-.63.09-.46-.09-.64-.73-1.18-1.36-2.63-.18-.91-2.73 1.09-1.18 3.45-.55 2.09-1.36 2.91-1.82 1.64-1.91-.18-1.36-2.18-.09-2.73-.73-1.73.37-.73 2.18-1.27.18-1.63-1.55-.37-4.18 1.64-1.72-.91-.64-1.46-2.09-1 .36-3.81 1-2.55.55-2.82-.82-1.27-.55-.18-1.54.54-.46.73-.18 2.73-.73 2.27-4.18 2.36-1.72-.18-3.19-2-1.72.37-.64 1.45-1.18.18-.91-.54.18-3.18 1.37-2.55 1.9-1.27 1.64-.73 2.09.36.64.73.54 1.46.46.18.27-.37.18-.91.09-.54.09-.73.19-.45.36-1.37 1-1 1.36-1.18 3.09-3.36 1.37-2.37.54-1.9-16.18 4.72-3.09 1.91-1.09.91-.64.46-2.09 1.09-5.63 2.09-1.46.45-.72.09-1.1.09h-2l-4.81-.91-2.55-.72-1.09-.28-.82-.36-1.18-.82-2.18-1.36-3.27-3.46-1.91-1.72-1.09-.73-.64-.09h-1l-.82.27-1.18.55-1.27.91-6.55 5.09-11.45 7.18-9.27 6.09-4.73 2.45-.82.64-.54.46-.91.9-7 7.37-4.55-7.55-.18 7.18-.27 1-.18.37-1.09 1.45-6.82 7.64-9.55 11.18-1 1.18-1-1.82-.72-1-5.37-6.18-7.36-7.63-7.73-7.82-8-7.82-3.27-3.36-3.91-4.37-5.09-6-.73-1.27-.45-.91-.82-1.64-.54-.54-1.28-1.09-.45-.37-1.09-.63-4.18-3.27-1-.91-.73-.73-1.46-2.18-4.63-5.18-5.27-5.64-6.73-7.64-1.18-1.36-2-2.55-.91-1-.64-.18-.27.09-.64.64-1.18 2.27-.82.91-.63.73-6.73 6.64-4.73 4.72-4.18 4.73-7.36 8.82-8.36 9.63-.46.46-.45.09h-.28l-1-.73-19.99-21.91-7.19-7.81-11.72-13-10-11-6.46-6.91-5.81-6.37-3-3.45-1.55-1.73-3.73-3.54-3.36-3.09-4.45-5-5.19-5.73-1.36-1.46-.18-.18-.36-.09-1.19.09-.72.37-.46.36-4.91 6-1.45 1.82-1-2-.18-.55-.18-1.09-.19-3.45-.36-1.46-.64-1.27-1-3 .73-.45.73-.28 5.09-1 1.36-.36 1.37-.55.72-.45.64-.46 3-2.72 3.54-3.91 3.82-3.82 3.27-3.54.82-1.46.28-.73v-.36l-.19-.55-.54-.72-4.27-4.09-6-5.82-3.37-3.18-2.09-2.18-2.45-2.55-.64-.55-.54-.36-.55-.18-1-.18h-1.45l-1.55.09-1.82.45-1.82.82-.63.36-.64.64-.82.91-.63.91-.18.82-.64 3-.36 1.27-.46.82-.18.36-.36.36-.46.37-.54.36-2.64-2.54.45-.91 1.46-5.09.27-1.09v-2.09l-.27-.55-1-1.27-.46-.55-.63-.45-1.55-1.18-3.72-3.64 1-2.18.81-2.46v-.27l-.09-.55-.18-.18-1.54-.09h-.19l-.18-.18-.45-.82-.46-.54-1.36-.82-1.09-1.09-.64-.46-2.54-1.27-.55-.36-.82-.46-.54-.27-.64-.46-.45-.63-.37-.09h-.27l-.82-.28-.63-.27-.46-.36-.09-.27-.27-.55-.18-.91-.19-1.63-.54-1.19-.27-1 .72-.09.46-.09.45-.09h.82l1.36.09 2 .37 2.82 1.09.64.09.54-.28.19-.27 2.45-7.09 4.82-12.09 2.91-6.64.72-2.27.1-.91v-.54l-.28-1.73-.36-1.45-.91-2.64-.45-.91-.55-.55-.73-.36-.54-.09h-.46l-12.09-13.73-3.54 4-2.55 3-.18.18-.45.1-.46-.1-.18-.18-.46-.54-4.81-5.09-1-.91-13.82-14.37-.82-.72-2.36-1.55-1.64-1.18-4-4.45.82-.91-.45-1.19-.19-.36-1-.54-7.54-2.1-2-.54-11-3-5.45-1.64-4.91-1.36-2-.45-13.64-4-3.09-.91-1.82-.82-2.18-1.27-1-.64-2-1.46-2.54-2.09-3.09-3-10.37-10.45-3.54-3.64-3-3-5.64-6-7.91-8.81-3.09-3.1-1.27-1.27-4.55-4.36-6.45-5.73-9.18-7.82-2-1.81-1.36-1.19-.37-.18h-.91l-.45.18-.64.55-3.63 4-6.55 7.27-3.64 4-7.09 7.91-2.81 3.18-1 1.18-1.82 1.91-9.46 10.82-2.36 2.46-6.91 7.63-2.36 2.73-8 9.09-5.09 5.73-.91 1-1.09 1.18-5.64 6-4.45 4.36-1 .73-.91.45-2.73.82-3.82.73-16.54 2.82-8.27 1.09h-.55l-.45-.28-1-.81-.27-.28-.46-.91-.18-.9-.55-4.28-.27-1.91-.18-.54-.73-1.37-1.54-1.72-1.19-1.18-8.27-8.91-13.72-15.46-4.37-4.82-7.18-8.45-2.27-2.82-23.91 35.09-2.09 2.55-25.82-28.27-8.9 11.18-17.19-18.82-7.54 9.09-4.27 5.18-6 6.91-7.09 8.27-1 1.09-2.73 3.37-2.36 3.18-6.37 9.09-6.81 9.73-1.82 2.54-3.73 4.46-1.64 1.72-1.91 2.19-7.36 8.45-1.82 2.09-2.18 2.36-7.27 8.19-5 5.45-1.91 2.09-3 3.36-5.36 6.28-5.27 5.91-2.91 3.18-7.18 7.82-4.28 4.27-.36.45-.27.18-2.73 2.64-3.82 3.73-.82.82-8.18 8.09-2.27 2 3.54 4.54-3.9 4.28-.46.63-.63 1.18-.28.91-.09.64-.09 1.09.09 1.18.37 1.55.45 1.09.27.54.64.82 2.54 2.46 1.55 1.72-2.46 2.46-1.54-1.73-1-1-1.82-1.45-2.27-1.37-1.27-.54-2.37-.82-1.18-.27-1.27-.19h-1.46l-1.54-.09-.73.09h-2.63l-4.64.09.45.73v.18l-1.91.09h-3.27l-7.63.1-1.64.09h-1.45l-5.1.09h-5.09l-7.18.09h-4.81l-2.28-.18h-1.18l-.36 4.27-2 .64-5.28 6.63-12.09 4.46-8.72 1.18-15.27-10.37-7.09-5 2.54-8.09.82-2 .09-1.09.18-1.18-4.73-.45-2.81-.28h-.91l-1.18-.09-1.82-.09-1.18-.18-.91 1.18-3.73-.09-.18-.63-.09-.46-.55-1.64-.91-2.27-.54-1-1.46-2.36-1.63-2-2.46-2.46-1.72-1.91-1.73-2.18-3-3.63-5.09-7.28-3-4.36-2.46-3.64-4.45-7.27-5.09-8.36-4.64-7.82-3.09-5.18-4.09-7-1.91-3.27-1.45-2.73-5.46-9.64-.27-.36-6.09-10.73-4.54-8-1.28-2.36-1-1.91-.63-1.36-.55-1.28-2.54-6.54-2.55-7.46-.64-1.45-.63-.45-.64-.82-.45-.46-.28-.09h-.72l-.28.18-.45.28-1.36 1.63-.37.55-.72.73-.82.72-.28-.54-.63-1-.27-.55-1.55-2.63-2.27-3.82-.55-.91-2.54-3.91-2.46-3.36-2.27-3.09-2.27-2.82-2.18-2.55-2.19-2.45-2.27-2.37-.63-.63-1.82-1.91-1.64-1.73-1.36-1.36-.64-.64-.73-.73-.63-.72-.64-.64-1-1.09-12.18-12.64-5.91-6.36-4.91-5.36-1.91-2.19 1.55.55-2.73-1.82-.63-.73-1-1.09-.28-.36.64-.45-.27-.37-.19-.36-.72.63-.28-.36-1.45-1.73-2.55-2.91-2.27-2.72-2.09-3.27-6.27-7.55-1.55-1.27-5.18-6.28.28-.81-14.64-18.18-29.09-34.91-8.54-8.91-7.28-7.09-4.54-4.64-9.18-8.91-7.18-7-2.46-2.54-23.09-21.73-2.27-2.36.27-.28.37-.45-.73-.64-2.55-2.54-1.72-1.64-.64-.63-1.64-1.55-14.09-13.73-.63-.54-.28.63-9-8.9.37-.46-2.82-2.64-1.73-1.63-2.45-2.36-2-1.64.27 1.27-7.27-5.63-4.55-2.73-7.54-3.64-1.64-.91-2.72-.45-2.19-1.37-3.72-.81-.82-.19-7.18-1.45-9.73-.73-3.54.28-5.37.27-7.45.63-1.37.19-4.36.54-31 2.55-4.91.45-16.09 1.18-10.72 1 .09 1.19-3.18.27-8 .73-3.91.36-1.55.09-3.72.27-3.91 2.28-1.73 2-5.73 5.72-.09 2.82-1.63 1.91-2.37 2.64-2-1.82-8-7.27-3.81-3.46-.64-.54-6.18-5.73-1.55-1.64-1-.82-1.36-1.18-.36-1.09-2.1-3.18-9.99-9.18-2.82-2.64-12.27-11.54-7.55-7.09-11-10.09-8.54-7.82-6.19-5.55.55-.73 1.18-1.45 2.91-4-5.54-4.91-3.46-3.18-1.91-1.64-.82-.45-.54-.09v-1.27l-.27-.19-.37-.36-1.09-.73-6.63-3.82-3.91-2.18-17.91-14.72-53.18-48.82-42.18-29.09-14.91-9.73-19.18-14.09-13.18-13.09-.27-.18h-.46l-.45.45-.45.64-.19-.27-.81-.73-5.73-4.18-5.27-3.55 10.63-24 3.27-7.45 2.37-5.18 1.54-3.46 2.09-4.54.19-.27 2-4 2.9-4.64 32.37-53 5.09-8.27 4.54-7.27 5.46-9.91.81-1.46 1.64-3.36.82-1.82-1.27-1.09-48.36-49.27-31.82-32.82-.73.64-.73.36-3.27-3.54-3-2.73-.63-.55-.55-.54-1-1.09-2.09-2.27-2-1.82-1.55-.91-1.09-.64-.18-.09-1-.91-1.45-1.45-1.27-1.46-2.64-3.36-3.27-3.82-1.73-1.82-3.36-3.36-4.28-3.91-1.81-1.45-17-16.55-3.55-3.45-1.18-1 .91-.91-58.27-55.09-23.45-21.73-4.09-3.91-33.46-32.54-.91-1-25.27-4.18-.91-1.91-19.18-39.91-22.72-23.09-3-2.09-25-24.46-21.09-20.63-38.27-37.09-.64.09-.81.27-.37.28-.45.63-.64 1.55-.27.54-.37.37-.54.27-1.91-.09-.27.18-.18.36v1.64l-.19 1-.36.73-.45.54-.37.28-1.18.27-.36.36-.19.46v.63l.19.91 1.09 3.27.54 2.1.09.72v1.55l-1.09 4.09-1.27 3.27-.09 1.18.09.37-.09.45-.18.36-.37.28-4 2.09-1.81.73-.55.45-.36.55-.28.72-.72 2.18-.09.73v.64l.09.63.63 1.46.55 2.82.36 1.36.37.82.36.64 1.64 2.36.45 1 .09.64-.09.81-.27 1-.37 3.09v4.46l-.27.73-.36.54-.37.27-.36.46-.09.45.09 1.64.46 1.36.72 1.09.28.64v.55l-.19.81-.27.55-1.73 1.91-.63.91-.09 1.09.09.45.27.37.55.09.81.09.46.36.18.37.18.45.09 1.18-.18.55-.36.36-.55.36-.54.28-.55.45-.27.55v.72l.18.64v1.64l.09.36.18.18.46.09.63-.09.46-.18.36-.09.46.09.54.27.36.28.28.54v.82l-.28.45-.36.46-.45.27-.91.27-.18.28-.19.72.19.82.09.64-.18 1.63-.1.55-.27.45-.36.28-.18.36-.09.55.09.54.27.46.36.45.73.36 1.27.37.73.09.82-.09 1.09-.64.45-.09.55.09.63.18.28.19.45.54.09.55v.45l.18.64.19.45.27.46.73 1v.54l-.09.55-.28.27-.45.09-.82.09-2.09.27-1.18.37-.82.36-.64.55-.36.45-.45.82-.91 1.36-.82 1.19-.64 1.54-25.27-19.09-18.09-13.91-6-4.45-2.18-1.82-2.09-1.82-1.46-1.36-2.27-2.37-2.45-2.91-2.73-3.72-1.18-1.73-1.37-2.36-4.18-7.82-9.27-18.27-.54-.64-.73-1.45-16.91-33.09-18.82-36.91 2-1.46 1.55-1.27 1.82-1.91 1.36-1.73.64-1.27.81-1.45 5-12.37 9.55-23.72.54-1.46.73-1.36.73-1.18-1.46-2.37-.45-.63-.55-.37-.54-.18-.73.09-.73.19-1.81.54-.73.18-7.64-8.72-18.63-14.46-14.91-11.54-55.54-47.64-21.18-18.18-.46-.45-22.63-19.64-10.55-9.09-21.54-18.45-4.45-3.82-15.64-13.46-7.45-6.27-2.91.18-7.18-.18-3.37-.18-6.91-5.91-3.91-3.64 1.37-1.54.73-1.27 1-.1.45-.27 1.73-1.54.54-.73.46-.36.45-.19h.37l1.09.37.54.09.36-.09.37-.55.36-.63 1.73-4.19 1.27-2.81.27-.19.19-.18v-.18l-.09-.36-.46-1.09-.36-.46-1.18-1.18-.19-.27.09-.55.55-.36.18-.27v-.46l-.09-.27-.64-.91-.09-.46v-.45l.37-1.18.45-1 .82-.82.18-.27.18-1 .19-.55.36-.45.64-.82.27-.36.09-.46.18-.36.27-.28.46-.18.36-.27 1.09-1.18.18-.37.1-.54-.19-1 .09-.46.46-.72.09-.55v-1.09l.09-.91.73-1.18.63-.55.19-.36.27-2v-.73l-.18-.81.09-.46.54-1.09.09-.45-.27-1.09v-.37l.18-.18.82-.09 2.46-.27.63-.37.64-.45.45-.46.55-.27.63-.27.55-.27.36-.46.55-.91.27-1 .09-1.36.18-.37.28-.36.27-.09h.27l.28-.27.18-.37.45-2.09.27-.36.46-.36 1.36-.37.37.09.36.37.64.27h.63l.28.09.72.73 1.09.54.09.37-.09.45-.27.46v.45l.46.45.63 1.1.91.81v.28l-.18.54v.37l.18.9-.09.28-.18.09-.18.18-.09.18.09.18.18.19 1.27.27 3.55.09.45-.09.55-.55.36-.27.45-.18h.46l.36.09.64.73h.36l.27-.09.19-.46.27-.54.54-.64.64-.91.27-.36.73-.46.36-.36.91-.37h.28l1.72.37.28.18.18.27.09.73v.27l-.37.55v.18l.37.36.54.09h.37l.82-.18.54-.09.27-.45.55-.18.18-.28.27-2.18.09-.45 1.1-1.73.09-.36v-.73l.27-.27.45-.19.82-.09.27-.63 2.37-2.19.73-.54h1.72l1.09-.27.55-.46 1.09-.54.82-.09.54.09.37.09.54.45.64.09 1.27-.18.27.09.28.18.27.82.27.37.09.63.09.82.55 2.36.18.55.55.73.81.72.55.37 1.27.18 1.09.45 1.91.19h.82l1.45-.19 1.91-.54 1.19-.46 7.27-1.18.73-.18.54-.27h.46l.54.09.27.36.19 1 .18.27.91.1 1.63-.28.37.09.72.46.46.63.27 1.19.27.36.28.09 1.36.36.64.1.63.18.82.54 1.36.73.73.27.55.09.45.28.36.54.19.46.63.63 1.09.46 1.82.54 3.55.73h1l.54-.18.55-.64.18-.82.64-.72.9-.37h.64l1.73.18.91-.09 1.63-.72 2-1.28 1.91-.81 1.64-.91.63-.28 3.46-.72 2.09-.64 1-.73 3.18-3 2.91-3.09.64-.82.81-.63 2-1.09 2-.91 3-1.18 2.91-2.28 1.91-1.63 3.18-1.82 1.09-.73.91-.45 1.28-.28h1.45l3.09.28 3.27.36 1.19.55h1.27l.73-.19 1.63-.63.91-.18h1.46l1.36-.19.91-.45.45-.36.37-.64.63-1.82 1.46-1.82.72-.72.37-.82v-.82l-.28-.73-.45-.82-1.18-1.54-.46-.82-.27-1.09-.27-3.36-.55-1.73-.36-.82-.27-.36-1.55-.82-1.63-.27-.73-.46-.64-1-.27-.73v-.45l.27-.64.91-1.27 1.27-1 .37-.64.18-.72.36-.64.82-.54 1-.37 2.64-.63.91-.1 2.81-.09.91-.18.73.09.55.28.45.36.18.09.82.36h1.45l1-.09h.82l1.37.46 6.72 3.91 1 .45.82.27 1-.09.91-.36 1.36-.73 1.09-.45.91-.28 1.64-1.36.73-.64 1.54-.63 2.91-.91 1.46-.18h1.18l1.54-.09 1.28-.46 1.9-1 1.91-1.27 2.09-2.09.55-.82 2.73-4.45 1.36-1.64.82-.91.63-.27 1.55-.09.82-.18.63-.28 2.82-2.54.82-.46.82-.09h1.27l.73-.18 1.54-1.09 1.46-.73 1.45-.63 2.91-1.55 1.46-.91 1.81-.91 1.19-1.09.81-.91.73-.54 1.46-.55.63-.45 1.64-1.19 1.27-1.09.91-1 .73-1.45.72-1.36.46-.73 1.36-1.46.55-.9.63-.73.64-.46.64-.18 1.27-.18 1.18-.36.82-.64.73-.82.81-.73 1.28-.81 1.72-.55 1.37-1.27.82-.09.81.09.46.27 1 .64.82.45.91.09.91-.18.63-.36.64-.91 2.63-3.18.73-.64 1.27-.64 1.46-.63 2.63-1.55 1.1-.09 1.09.09.81.09h.82l.64-.18.91-.64 1.45-1.45 2.18-1.73.82-.72.82-1.28 1.36-2.72 2.37-4.09 1.54-2.37 1.18-1.54.91-.73.82-.36 3.91-1.28.91-.45.64-.64.27-.45 1.27.27 3.64 1.09 10 2.91 2 .91 1.63 1 2.09 1.54 1.28 1.1 1.72 1.72.91 1.09 1.82 2.91.55 1.09 10.81 21.37 4 7.54 7.37 15 4.9 9.55 2.19 5.36 1.18 2.64 1 3 .27 1.63.09 1.09.37 3.09.09 2.09 3.54.73.73.09h1.18l1.64-.27 3-.73 1-.36.81-.36 2.46-1 1-.28 3.64-.18 2-.27 3.45-.91.36-.09.73-.09 1.73-.09 1 .18 1.54.54 2.46 1.09 1.27.37 1.36.18 4.73.91 1.73.09 2.72-.18 2.46.18 4.36.82 2.46.54 1 .09 14.45 2.64 3.64.46 2.18.54 6.54 1.09 4.18.64.1.45.09.82v.64l.09 1.36.09.55.82 2.45.63 2.64 1.91.72 4.09 1.09 3.73.73.82 2.27.54.91.55.91 3.54 4.91 1.37 2 .27.73.27.91.64 1.63.64 1.1.9 1.54 3.64 5.09 3.36 4.27.55.82.27.46.37 1.18 1.27 5.36.91 4.18 1 3.46.45 1.27.18.82.19 2.45.09 2.82.18 2.09-.09 1.37-.09 1-.64 2.45v.45l-.09 3.19v4.09l.27 4.91.09.91.91 3.45.27 1.45.1 1v4.55l-.19 3-.18 1.82.37-.09.54.09 1.09.36.18-.09.19-.27.27-2.37.54-1.09 1.46-2.82.27-.99.18-1.1.09-2.09.09-.63.37-.73.36-.73 1.55-1.18 1.27-1.73 1.09-2.09 3.45-5.82 2.91-3.72 1.46-1.82 1.09-1.46.54-.81.46-1.09.09-.82v-1.46l-.18-1.27-.37-2.27-.45-1.82-.82-1.45-1.27-2.19-.27-.45-.73-2.46-.09-1.9.18-2.91-.18-1.37-.55-2.91-.45-1.91-.55-1.18-.63-1.18-.64-1.45-.55-2.73-.18-8.27v-3.55l.37-2.09.45-1.36.73-1.18.82-.64 1.63-1.18.55-.28.54-.18 1.19-.63 1.81-1.82 1.91-2.91.73-.64.36-.54.09-.55v-1.82l-.18-1.27v-1.91l.09-.72.18-.55.37-.27.73-.18h1.18l1.36-.28.64-.54.91-1.82.81-2 .46-2 .73-2.36.72-1.91.73-1.28 1-1.27 2.64-3 1.36-1.18.73-.27.82-.73 1-1.36 2.63-4.19 1.09-1.27.73-.54 1.18-.55 1-.45 1.09-.91 1.55-1.73 1-1.64.82-1.45 1.72-5.18.91-3.37 1-2.18 1.09-1.91.73-.54.64-.28 2.18-.54 1.73-1.09.45-.27h.55l.45.09 1.27.63.55.18 3.82.28 14.18 40.27 26.81 24.45 57.64 54.09v.09l-1.28 3.28-.36.72-.36.37-.55-.09-.36-.37-.37-.45-.36-.28-.55-.18-1 .09-.81.46-.91 1.09-1.18 1.64-.28.63-.54 1.37-.55.9-.63.82-1 .91-.82 1 .36.18.18.28.09.45v.82l-.09 1-.09 1.36v3.27l.27.46.55.64.55.09h.72l.55-.28.63-.63.28-.18.27.09.27.36.64 1.82.36.36.37.27h.81l.37-.27 1.91-1.63 3.54-2.19.55-.54.54-1 1.91-4.73.37-.36.27-.27.73-.19h1.81l.46-.09.36-.27.18-.36.28-.64v-1.36l-.55-1.64-.18-1v-.27l.27-.91.18-.46 4.18 1.28 2 .36h.91l1.19-.18 1.27-.18 1.91-1 2.09-1.55 1.73-1.54.9-.82 1.1-.55 1.36.37.63.36 4.46 5.73.54.63.91.55h.64l.73-.18.54-.55.18-.36.1-.91-.28-1.91-.45-1.64-.46-.91-1.27-1.63-1.45-1.55-2.09-1.82-1.64-1.63-.36-.64-.28-.82-.18-1.09v-3.63l.73-1.46 1-1.18 6.27-5.27 4.46-2.37 1.99-.09 1 .18 3 1.28 4.1 1.36 6.09 1.09 1.18-.63 1-1.1.54-.72.55-1.18.36-1.28.09-1.54-.18-2-.64-1.55-2.63-4.36h.45l1.09-.37 1.09-.81v-.37l-.18-.27h-.27l-1.09.09-1.46.09-.18-.18-.09-.27v-.64l.18-.45.28-.46.27-.27.82-.55.27-.27.36-1 .09-.36.73-.91.27-.27.46-.1h.45l.09.1.1.36.09.27.18.64.18.36.18.18.46.09h.36l.18.19v.36l-.09.45-.45.82-.09.46.36.54.18.18.55.28h1.54l.46-.18.81-.73.37-.27.54-.1.55.28.64.09.45-.18.91-.55h.27l.18.09.55.73.18.36.36.28.28.09h.36l1.18-.46 1.73-.18.82-.27 1-.18.18-.1.45-.45 1.91-3.18.55-.73.36-.09h.46l.72.27 1.09.64.46.09.27-.09.18-.27.09-.73-.18-1.27-.27-1.09-1.18-1.55-.91-1-1.18-.82-1.91-.91-1.82-.27-.91-.18-.45-.18-.37-.28-.18-.45-.36-1.55-.55-1.18-.63-1.18-.19-.54v-1.46l.19-.73.45-.91 1-1.18.64-1 .54-1 2-2.36.55-.82.36-.64v-1.45l-.45-2.27v-.55l.09-1.27 63.18 28.45 29.54 11.91 10.91 4.37 7.54 4.09 51.18 23 52.27 24.36 51.72 23.72 49.27 22.1 2.09.9 8.46-19.72 3.09-7.18 5-11.82 4.36-10.18 9.18-21.64 2.91-6.54 2.46-6 2.81-6.55 1.73-4.09 1.27-2.82 5.28-16.45 1-3.27 2.54-8.19.27-1 10.46-33.72.73-2.46 2-6.45 1.9-5.82.73-1.82 1.09-2.72 1.37-2.73 2.45-4.09 2.73-4.64 2.18-3.64 13.82-22.72 3-4.91 3.09-4.91 2.72-4.09 1 1 20.46 21.91 5.09 5.63 13.91 14.91 2.63 3 3.46 3.64 13.36 14.36 4.09 4.37 5.27 5.36 3.64 4 10 10.54 2.73 3.09 21.45 23.19 4.54 5 2.28 2.27.63.63.82.91 5.55 6.09 7.18 7.55 1.09 1.18 5.63 6.36 7.28 7.64 7.36 7.55.82.91 1.36 2.18 1.18 2.36.91 2.27 3.18 6.28.73 1.45 1.64 2.09.54.64 16.27 17.36 9.37 10.09 14.72 15.82 1 1.18 2-3 .64-2-1.09-4v-2.82l1.18-2.72 1.18-3.55v-2.82l-1.54-1.82-.91-1.72 1.36-2.37 1.82-2.45 2.36-2.55 1-.72.91-.82 1.55-1 7-4.09 2.82-1.37.72-.63.82-.91.82-1 .45-.82.55-1.27.82-2.73 1.27-3.27.64-1 .72-1 5.73-6.18 5.91-7.37 1.09-1.36 3.09-4.09 2.91-4.46.54-1 2.1-3.09.54-.63 1.73-1.18.63-.28.64-.27 2.55-1.36 2.45-1.37 1.45-.45 2.64-.09 2.64.09 2.91.09 6-.73 3-.82 1.36-.91 1.54-.72 6.46-3.91 1.82-1.64 4.18-5.18 1-1 .82-.73 8.09-5.27 1.91-.73 1.36-.36 5.54-2.36.91-.46 1.91-1.36 2.82-2.73 4.82-4.82 5.72-5 3.28-2.45 1.72-.91 1.19-.55 1.81-.45 2.37-1 1.27-.64 1.27-.91 1.82-1.09 5.82-4.54 2.64-2.55.36.28.27.54v.64l-.27.63-.73.82-.09.36v.46l.27.54.46.37.82.18h1.36l1.45-.27.46-.46.18-.36.09-1 .09-.36.18-.37.46-.18.63-.18.55-.27h.27l.28.27.18.45v1l.27.55.45.18.55-.09.73-.55.91-.9.27-.37.64-.27 1.63-.46 1.55.28 1 1 .45 1.27.46 2v1.27l.18 1.09.27.91.46.55.81.45h.64l1-1.18.45-.27.82-.18h1.37l.9.09 1.19.63 4.63 5.64.82.82 1 .54 1.55 1.18 1.09.55.81.18h.82l1.55-.27.82-.36.36-.37.45-.45 1.64-2.37.73-1.63.27-1.91.18-.82.37-.64.45-.18.82-.09h.82l1.82.18 1.72.37.46.18 1.27 1.63.54.19h.55l.36-.09.28-.19.27-.36.18-.73.27-.45.28-.18h1.18l1-.73.63-.36.73-.28 1.73-1.27 1.09-1.09.64-.46 1.27-.18.64-.09.36-.09 2.45-1.73v-.27l-.09-.18-.09-.18v-.37l.27-.36.46-.18h.82l1 .18h.81l1-.18 1.1-.64.54-.45.82-.27.82.09.63.45 1.46 2.27.45.55.09.45v.37l-.18.54-.36.64-.18.54v.55l.09.54.36.64.73.82.27.18.64.09h.63l.91-.27.64-.27 1.54-.28.55-.27 1.73-1.27.36-.37.09-.36.09-1.09.18-.64.28-.45.45-.36.64-.19h.91l.91-.18 1.54-.09.82-.36h.91l1.91.63 1.27.64.82.82.82 1.63.27.28.54.18.46-.09.82-.55.18-.27-.09-.36-.28-.73-.45-.82-.09-.54.09-.55.27-.36 2.46-.64.72.09.55-.18 1.27-1 .82-.45.64-.28h2l-.18-7.09-.64-.27-.36-.18-.28-.46-.82-1.82-1.18-3-.63-1.09-.37-.72-.63-.91-.91-1-5.46-4.82-5.54-5.27-1.82-1.64-4.91-4.36-9.09-8.55-6.64-6.18-1.81-2-3.37-3.45-2.18-1.91-2.27-2.09-8.82-8.82-5.73-5.09-3.9-3.46-6.09-5.82-9.46-9.27-8.73-9.45-19.45-19.91-11.54-11.73-8.09-7.82-8.28-7.72-8.18-7.82-10-9.91-15.36-15.27-11.82-11.91-2.09-1.91-.45-.18-1-.18-.91.09-.73.27-.63.64-17 20.27-9.18 10.45-1.19 1.19-.91.81-.27.09-.45.19h-.64l-.64-.28-.54-.54-7-7.82-5.09-5.45-9.46-10.09-14.72-15.46-6.82-7.45-2.27-2.28-.64-.54-.63-.36-.55-.1h-.18l-.46.28-7.27 7.72-13.09 14.37-14.72 16-.82.72-.64.28h-.27l-.55-.09-.72-.28-.64-.45-5.55-5.91-7.27-8-3.45-3.64-4-4.18-2.82-3.09-1.36-1.54-1.73-1.55-3.64-2.82-2-1.45-1.36-1 1.91-4.82 1.18-3.55.73-2.81 1.45-8.46 2.09-13.45.73-4.73 6.91-40.18.54-3.27.37-1.28.54-1.36.91-2 .91-1.73 1.27-2.09 4.09-5.63 4-5.18 9.37-12.1 16.81-22.09 7.09-9.27 7.64-9.54 3.09-4 4.46 4.45 5.18 4.09 3.72 2.28.55.54.18.27.46.73.45 1 .18.91-.09 2.45-.45 2.82v1.37l.09 2.72.36 2.46.46 1.18.81 1.54 1.09 1.46.82 1.18.55 1 .27 1 .82 2.18.73 1.64 1.63 2.64.55 1.09.45 1.09.46 1.72.45 1.19.82 1.54.73.82 1.45 1.36 4.18 3.28 4.91 4.09 8 6.36 3.46 2.91 4.63 4.36 1.09.82 4.37 3.18 2 1.46 2.36 1.63 4.64 3.09 7.45 4.46 1.64.91 1.09.45h2.09l1.27-.18 1.55-.27.72-.37 1.37-1.09 2.36-2.27 1.73-1.45 1.36-1 .64-.55 1-1.55 1.18-2.27 1.09-1.63 1.27-1.46 3.09-2.73 1.46-.9 2.18-.91 1.82-1 1.45-.55 1.82-.45 1.91-.64 1.73-.73 1.45-.45 2-.09 3 .09 2.18.27 1.27.09 4.19-.45h2.27l2.18.27 2.82.64 1.27.72 2.73 2.46 1.09 1.09 1.91 2.73 3 6.09 2.45 4.54 2.46 3.64.27.63-.09.91-.37 1.64-.54 1.45-1.46 2.73-1.27 2.18-.73 1.82 2.28 1.27 4.36 2.91 2.45 1.73 1.46.82 3.27 2.54 1 1 2 2.55 2.36 3.27.55.64.64.45 1.81 1.09.73.55 2.46 2.27.72.55.64.27.73.27h.72l2.37-.18.45.09.27.27.37.37.18.54.36.55.37.36.27.09.82-.09.73-.36.45-.09h.45l.64.18.27.18.37.46.36.27.46.18.45.09.45-.09 2.37-1.54.54-.46.73-.64 1.09-.45.82-.09.91.09.45.09.64.64.54.72.28.19.54.09.37-.18.72-.55 1.19-.82h.54l.46.09.81.37 1 .91.64.45.91.27.91.18 1.09.1 1.45-.19.64-.27 1.09-.82.45-.63v-.64l-.18-1.18v-.91l.09-.64.46-.82.36-.27.37-.27-.46-.55-.36-.91v-.36l.09-.36.45-1.46.09-.63.19-3.46-.1-1.09-.27-1.64-.18-1.99-.18-1-1.09-3.1-1-2.36-1.55-2.54-.18-1.1v-1.63l-.09-.46-.55-.81-.9-1.28-.91-1.54-.28-.73-1-1.18-.72-1.64-.55-1.63-.27-.55-.37-.36h-1l-.54.09-2.36-.09-.91-.28-.64-.27-.91-.27-.54-.37-.37-.36-.27-.54-.09-.91.18-2 .27-2.37v-.63l-.27-.64-.36-1-.46-.82-.27-.63-.18-.55v-.73l.18-1 1-2.36.45-1.55.19-2.18-.1-2.36.1-.73.27-.63.91-1.73.18-2.27.18-.55.18-.27.18-.18 1.1-.19.54-.18.82-.63.36-.46.18-.54.1-.55-.28-1.64v-.45l.37-.91.09-.64v-.63l-.64-2.37v-1l.46-1.9v-.64l-.1-.82-.18-.91-.27-.82-.18-.54-.09-.55v-2.09l-.09-.82-.28-1.36-.54-.82-.91-.73-.27-.36-.19-.36-.09-.46.09-.36.1-.36 1.81-2.91.37-1 .27-.55.27-.27.37-.27.27-.1h.36l1 .37h.73l.45-.09.37-.37.63-.72 1.37-2.28.36-1v-.36l-.18-.36-.18-.55-.55-.36-1.27-.64-.36-.45-.28-.46v-.72l.09-.64.55-1.18.36-.37.37-.18 1-.09.82-.27 1-.55.36-.45.09-.82v-.27l-.09-.46-.27-.27-1.09-.18-.28-.09-.18-.18-.09-.46.36-1.82.46-5.18v-.91l.09-1.18.36-.82 1.37-1.45.81-.73.46-.82.73-1.18.63-.64.18-.27.19-.45v-1.19l-.28-1.36.09-1.82-.09-1.54.37-.82.18-.36.82-.55.18-.45.09-.64-.27-.64-.28-.45-.09-.64-.18-1.45-.09-.46-.27-.36-.18-.27-.37-.09h-.45l-.37-.19-.36-.45v-.91l.36-.82 1.46-2.27.91-1.27 2-1.73.27-.36.18-.28v-.36l-.09-.45-.18-.37-.73-.63-.27-.37-.09-.36v-.46l.18-.36.18-.27 1.55-.64.72-.45.28-.46.18-.45v-.55l-.27-.45-.46-.55-.09-.36.09-.55.18-.45.19-1.37.27-.27.27-.18 1.18.09.73-.09 1-.27.36-.37.09-.27-.09-.73-.27-.27-.36-.36-1-.46-.37-.27-.09-.18v-.37l.09-.81.28-.28.36-.27.18-.45.27-1.09.28-.46.27-.27.91-.46.27-.45v-.18l-.36-1.09v-.37l.36-.54.46-.55.09-.18v-.18l-.09-.36-.46-.37-.09-.27-.18-2.55.18-.54.18-.18.55-.09.36-.28.18-.27v-.36l-.45-1.28v-1.18l-.09-.36-.18-.46-.19-.27-.36-.18-.73-.36-1-.55-.63-.45-.46-.82-.72-2.18-.37-.73-.18-.55v-.54l.27-.73.46-.73v-.54l-.09-.46-.82-1.36-.37-1-.27-1.73-.36-.63-.46-.64-.45-.45-.46-.64-.18-.55-.18-1.72-.45-1-1.91-1.37-.46-.54-.18-.55-.09-2.82-.27-1.27-.18-.54-.28-.55-.91-.73-1.36-.54-.36-.37-.91-1.36-.37-.45 6.28-5.37 4.63-4.36 2.46 2.73 4.45 4.63 12.73 13.18 18.09 18.46 3 3 15.09 15.91 4.91 5.36 5.63 6.09 10.73 11.45 7.09 7.73 3.64 3.73 2.63 2.73 4.91 4.9 3.55 3.55.72.82 6.73 6.73 11.18 11.54 3.73 3.73 6.91 7.27 3.54 3.73.55.91.27 1.09.09.72-.09.64-.64 1.09-2.91 3.46-4.72 5.27-.37.54-.54 1.37-.09.54v1.28l.09 1.09.18 1.09.36 1.18.91 1.82 1.09 1.45 3.09 3.18 3.73 3.64 7.36 7.54 3.1 3.37 1.63 2.36 1.46 2.55.27.72.18 2-.18 4.28v1.91l-.09.63.18 1.64.36 1.54.82 1.91 1.18 2.28 1.46 2.27 4.72 6.73 2.64 3.54 2.73 3.73.91 1.09.54.45 5.18 4.64 5.91-6.18 2-2.27 1.18-1.37.82-.82 6.91-7.27-3-10.36-4.36-15.27-5.55-18.46-1-2.45-1.54-2.73-1.82-3.09-.64-1.09-.09-.55-.09-.72.09-.55.27-.27.91-1.09 4.37-5.19.27-.54.09-.36v-.37l-.18-.54-.27-.46-12.82-13.54-5.64-6.09-14.63-15.55-.46-.63-.18-.55v-.55l.09-.54.09-.27.37-.64.54-.36.73-.37 8.27-3.63 13.27-5.91.73-.46.36-.45 13.91 11.36 19.36 15.64 10.64 21.72 2.45 20 3.37 15.18 25-26.63 2.72-2.91 3.28-3.73 3.54-3.72 4.09-4.73 1.46-1.55 12.54-13.63 1.82-2.09 1.73-2.37.81-1.18.55-.91.91-1.36 1.64-3.64 2.72-6.09 2.64-5.36 3.18-7.37 4.82-10.99 4.18-9.55 2.36-5 .55.18h.27l1.09-.36 11.09-7 6.37-3.91 21.27-12.45 11.18-5.73 6.36-3.18 2.36-1.37 6.55-3 2.45-1.27 8.82-4.36.27-.28.1-.27v-.36l-.19-.55-5.54-6.72-8.46-9.46-.63-1.09-.18-.73v-1.09l.09-1 .36-.91 1-2.18 1.64-3.27 2.27-4.09 1.82-2.55 1.54-1.91 1.55-1.72 4.91-4.64.82-.55.81-.45 1.28-.55 1.81-.54 5.91-1.46 3.09-.9 2-1 1.91-1.37 1.09-.82 2.28-2 5.27-5 .82-.63.91-.55.72-.27 1.37-.36 8.45-.82 7.45-.73 5.64-.45 9.73-.19 7.81-.36 9-.73 2.91-.18 2.09-.09 1.73.36 3 1.19h.91l2.45-.46 1.64-.45 1.46-.55 1.54-.82.91-.72 3.54-3.19 5.1-4.36 2-1.36 2.18-1.37 3.54-1.72.64-.28 4.82-.81 2-.1.91.1 2.18.81 2.18 1.19 2.45.9 5.55 1.64 1.63.64 2.46 1.54.91.64 1.45 1.27 1.46 1.73 2.18 2.73 1.36 1.81.73.64.82.36 1.36.37 6.09.73 2.64.18 3.18-.09 2.18-.19 2.55-.63 4.09-1.46 7.36-1.81 1.55-.73 6.18-3.82 2.72-2 .64-.27.73-.46 3.63-1.54 6.09-2.09 4.28-1.73 2.27-.82 9.27-3.36 8.73-3.27 9-3.28 9-3.54 4.63-1.82 2.37-.91 1.27-.73.91-.54.27-.28.27-.36.09-.27.1-.27h.45l.55.09.54.09.64.09.72.09h2.91l.55.09.54.09.64.18.73.18 2.63.82.46.18.63.19.82.36 3 1 .55.18.45.18.64.28.45.09.46.09.45.09.46.09h.81l.37-.09h.45l.64-.18.54-.09.55-.19 4.82-1.63.45-.18.18-.19 3.19-.36h4.36l2.54.18 5.19-.18 2.63-.36 4.18-.55h3l1.37.55 1 1.09.45.09 2 1 2.55 1.27 6.09 2.91 4.18 1.64 4.54 1.72 4.37 1.28 5.18 1.09 6.18 2.09 6.45 1.27 3.46.82 5.82 1.36 3.63.82 10.64 5h.09l.73.36.18 2.19-2.09 1.27-3 .36-4.27-1.45h-2.55l-1 .36-1.18 2.55-.09 1.63-.55 7.28-.27.54-.27.55-.19 2.72 1.37 3 3.73 3.64-.19 2.45-.54.73-14.55.09-.18 1.73 2.73 2.91 4.18 3.91 4.09 1.63 1 1.46.36 4.64.82 2.54v1.73l-1.18 2-2.91.91-2.18 2-1.54 2.72-1.64 1-5.27.55-5.55-1.36-1.54.72-1.19 1.91-.54 1.82-.36 4.91.54 1.54v6.28l-.54 2.72-1.37 2.19-3 2.54-4.63 2.46-2.37 2-2 5-1.91 4.72-3 5.37-.91 2-.27 2 .46 1.18 1.36.72 4.91.73 2.36 1.09v3.55l-3.54 10.82-.73 4.09 1 3.09 2.73 3.36.82 2.18-.55 2.91-1.18 2.09-1.18 1.09-1.37 3.09-.63 3-.37 6.46.46 2 .91 2.18 1.63 1.46 2.37.18 6.27-1.64 2.91.18 2.36 2.82-.18 3.82.09 5.45 3 1.55 2.27 1.91 2.82 1.27 3.09.45 4.09-.36 3.18.73 1.91.82.82.91.27 1.72-.63 1.18-1.28 1.82-.09 2.09.28 1.37.54 2.09.91 1.63 3.27 1 2.46-.63 3.63.18 2.46-.27.82-1.18 1.54-2.46 2-2 1.82-.64.82.46 1.18 1.45.54 1.28.19 1.63.18 4.18.09 6.91-.82 1-1.73.18-1.54 1.1-.37 1.54-.36 1.36-.54 2.37-.55 1.54-.73 1.91-.18 1.46.73 3.72.63.91 1.55.37 2-.18 3.18-1.1.82.1.27.72.09.73-.63 1-1.73.91-3.82.54-1.63 1.1-.91 1 .18 2.99 1.09 2.28.91 4.27.63 1.55 1.37 1.27.63.27-.09.73-.36 1.18.91 1.45 2.27.55.18 1.64-.27 1.81-.27 2.55.09 1.18.82 1.09.72 2.37.91 3.18 1.46 5.72.54.82h1.09l.73-1.18.91-1.18 1.18-1 2.09-.36 1.73-1 .73-.37 1.18.64-.27 1.54-1.19 4.09-1.54 3.82-.55 1.82-.09 1v1.55l1.09.36 2.82-.09 2.73-1 2.73-1.82 1.9-.09 1.1.27 1 1.64-.19 2.64-1.18 2.81-1.54 2.55-1.64 2.18-1.82 1.09-.82 2.09 1.1 1.55 3.45 1.09 7.09.27 3 .64 1.54 1.63.64 1.37-.18 1.27-2 1.45-5.09.55-3.18.27-1.73-.63-1.55-1.73-1.27-.64-1 .18-1.91 3.73-1.36 4.37-.45 2.9.45 1.37.64 1.09 1.27.64 1.27.9.18 3 .19 3.64.36 2.18.73 1.64h1.45l2.09-1.55 1.82-2.27 2.45-3.73 1-1.91.73-.9 1.27-.1 2.19 3.19 1.36 3.18 2.27.91 3.55.72 1.91.46 3 2.54 1.72 2.64.18 1.18.1-.09.72.27.55 1.28.18 1.18-.64 2.27-.18 3.46-.27.36-.18.09.27 2.27 1.09 1.09 3.09 1.19 1.64-.55 1.45.27 1.09 1.28 1 1.81 1.64.82 2.45 1.91.19.91 3.9 8.45.19 3.37-.73 1.82-.82 1.09v.81l.45 4 .64 6.19-.45 2.72-1.37 4.55-1.09 2.73-1.82 2.9-3 3-2.09.64-3.27.46-3.82 1.27-2.91 1.73-1 2.81-.54 1.46-1.27 2.82-.37 4.18.18 3.54 1.73 3.46 1.46 2.36 1.18 3.09-.18 2.27-.46 2.64v.27l-.36 7.19.63.9.73.91.37 1.73.81 3.27-.54.73 1.36 1.45 2 2.1 2 3.09.36.54 2 .91 1.91-.18 4.55-6 1.18-1.09 2.91-.18.18 1.81.46.73.36 6.27 1.18 2.28.18.27.64 1.09 1 1.91.36.55v1.81l-1.18 2.28-.36.63v4.46l1.27 1 .45.27 2.64.36 2.36-1.81 1.55-5.37 1.73-2 2.72-1.45 2.73-.64 2.82-.64 1 .19.91 2.18-1.37 5.18-1.54 2-2.73 2.27-1.73 1.82-.27 3.45 1.46 2.64 2.72 2.18 3.19 3.55 1.9 1.09h.19l2.18.36.45-.54.55-2.18.63-.73 5.64-3.18 2.91-4.55.18-.18 1.27-1 3.28-.73 1.45.82 2.55 2.55.54.9v4.28l-.18.91-.36 5.36 1.81 1.45 5.09 3.64 1.37 2.09-.18 1.82-1 1.64-3.73 3-1.18 1.63-.73 1.46 1.18.91 2.37.72.54.18 7.27-1.09 2.18.55 2.37.82 1 .36 1.09 1.27.09 2.19-.45 1.81-1.73 1.37-5.46 2.72-1.81 2.19-.19 3 1 1.45 2.91 1.82 4 1.82 6.82.45.64.73.72 3.82 2.19 2.45 1.81.36 3.19-.9 1.36 1.27 1.91 2.54 3.91 2.09.91.37 5.63 2.54 1.73 2.09.64 2.73.18.91 1.18 1.46 1.63.18 2.28-1.64 1.82.18.81 1.91.19 4 1.18 3.37.18 2.36-.91 2.18-2 .18-2.82-1.09h-1.72v1.64l.99 1.63 3.73 3.55 1.37 3.18 1.36.91 2.36.36.46.37v1.45l-.46 1.46-2.91 3-4.91 1.63v2.73l.91 2.27.46 1.09 3.73-1.09 5.36.18 1 .37 3.36.73 3.73 2.18.91 1.72 1.82.55 1.18 1.82.36 3.45-1.73 1.91h-5.27l-2.18 1.27-.45.55-.19.18-1.36 1.46-.91 2v.81l-.18 2.37 1.55 2.91.18 1.63-.73 1.28-1.64 1.18-2.72 2.54-1.55 2-.18 3 1.91 4 3.54 3 4.18 1.82 4.55.91.55.18h.27l1.45.36 5.37-.36 1.36.82v2.54l-.73 1.46-.27 1.64 1.36 1.54 2.46 1.27.91.91v2.73l-1.19 1.27-2.27 1.37-5.18.36-1.27-.64-2.82-1.27h-1.55l-1.81 1.09-.28.73-1.09 2.63.46 1.82 2.09 2.37 6.36 3 1.37.91.18 1.81-.64 1.28-5.09 1.54v1.64l.55 1.36.27.64-3.55.91-.82.18-.18.09-.72.82-.37 3 1.55 1.82 3.36 1.45v1.09l-1.82 1.27-1.72 1.91-2 4.73-3.73 2.64-1.73 2-.36 2.72 1.54 3.19 1 .54.37 2.73.18 2.82-.27.36-.46 1.09v8.82l.46 1.27-.19 7.55-.45.91-.36 4.09.63 2.18.73 6.45 1.45 5.73 1 3.82 9.19 10.36 1.63 3.55.37 1.81-.73 2-.46 3.19 1.19.9 1 2.55-.73 2.91-.55.09-2.45.09-1.91-.91-4-4.36-1.18-1-3.27.73-.28 4.81.46 2.55.36.45v.91l1.36 2 .46.73 2.91 1.82 3.27.36.64.09 5-1.36 4.81-.73 1.19-.18 3.54 1.18 1.82 1.46v3.45l-.64.73-2.45 1.73-6.18.9-3.28 2.19-5.36 4.91-2.09 4.45v3.91l.64.45 1.27 1.18.27.19 2.55.18 2.54-2.91.55-1.73 2-3.09 3.09-2.73 3.54-1.63h3.55l2.82 2 2.54 3.91 1.73 3.27 1.36 3-.18 2.09v.64l-.54.91-.64 1.27-2.73 1.82-1.54 1.91v2.36l1.54 1.64 4.37.36-.19.73-.18.81-.91 1.37-1.27 1.91-.09 1.27-.09 2.54.54 1.73 2.19 1.46 3.63.18h.27l1.73-1 .09.09 1.73.36 1.82 1.09 1.18.55h.18v3.64l-2.73 8.18-1 1.91-1.09 1.63-1 1.55-.63 1.09-.64 1.27-4.91 12.36-2.45 3.28-2.09 2.54-4.73 4.46-6.09 4.27-1.82 1.45-.82.91-1.09 1.19-5.27 8.81-.91 1.55-.36.91-.37 1.27-.09 1.36.28.91.54.82.91.82.73.09 1-.09 1.45-.82 1-.91 1.09-.45.64-.09.64-.09.54.18.45.72.28 1.28.36 2.27v2.18l-.18 2.46-.73 1.54-.72 1-1.37 3.73-.54.82-.73.72-2.18 1.28-1.46.72-1.63.73-.82.82-.46.91v1l.09.91.19 1.09.36 1.45.36 1.18 1.73 4.55.18.91v.82l-.45.82-.73.54h-.36l-.37-.36-.45-.64-.55-.82-.91-.63-.72-.28h-1l-.82.37-1.64 1.36-1.63 1.36-.37.64-.27.73-.09.27-.27 2.09-.91 7.73-.18 1.18 1.36.45.82.19.63.09.46.09 2.63 1.54 3.19 2 3.09 1.82 1.82.64 1.72.54h1.18l2.19.19.54.09.64.27.91.91.27.54.09.55-.36.54-.55.46-.36.54-.18.73-.1.73-.27 1.18-.27.64-.91 1-.36.54-.18.55.09.36.81 1.37.82.9.91.37 1.27-.18h.82l1 .18 2.55 1 2.82.63.63.37.64.91.36.91v.54l-.73 1.27-.72 1.1-.91.81-.64.46-.63.72-.64.46-.55.36-.63.18h-.55l-.73-.54-.81-.18-1-.09-1.46.09-1.54.27-1 .18-.82.27-1.18.55-.46.45-.54.55-.37 1.09-1.91 5-.18 1.36-.09 1.46-.27 1.45v1.46l.18 1.36.82 1.37.73.63.72.27h1.64l1.18-.54.73-.73.63-.18 1 .09.46.18.27.37.46.91v.72l-.19 1.28-.54 3.36-.18.91-.64 1-.27.45-.37.37-1.27.54-1.09.09-.82-.18-.45-.18-.55-.27-1.81-1.91-.55-.46-.27-.18h-.37l-.18.09-.27.18-.91.82-1.55 1.46-.72 1-.64 1.27-.36 1.09v1.54l.27.91.36.91.55.73 1.09.91 1.73 1.18.72.64.55.63.18.82-.09.64-.45.54-.64.09-.64.37-1 .09-.81.09-.64.36-.91.64-.64.18h-.63l-1.28-.18-1.09-.18-.63.27-1.09.46-.73-.1h-.82l-.73-.18-.63-.45-.27-.55-.73-1.63-.64-.46h-.73l-.54.27-.27.46-.09.64-.28 1.09-.09.72.18 1.28v1.09l-.27.72-.27.73-.09.82v1.27l.18 1.46.54 1.45.46 1 .27 1 .18.73v.54l-.36.55-.55.45-.54.19-.82.18h-.91l-1.09-.37-1.09-.63-.64-.55-.27-.82-.18-.9-.27-1.73-.64-3.18-.73-3.91-.27-1.09-.36-.64-.46-.64-1-.36-2.36.09-1.64 6-.54 1.09-.46.46-.63.45-.37.09-.72.09h-.73l-.73.28-.54.45-.64 1-.27.82-.19.82-.09.81.09.64.19.64.27.91.09.81-.09.73.09 1v1.09l-.18.64-.46.45-.81.37-1 .36-.46.27-.45.37-.09.09-.28.45-.09.46v.36l.18.36.28.46.63.82.73.72.27.46.37.82.09.45-.09.27-.64.64-1.09.55-.64.09-.63.09-.82.09-.55-.09-.54-.18-.37-.28-2.09-2-.45-.36-.91-.27-.73-.09-.36.09h-.36l-.55.18-.73.36-.82.73-.72.82-.46 1-.36.36-.46.27-.45.09-.91.1-.91-.28-.72-.18-.46.09-.45.09-.91.55-.64.36h-1.09l-.45-.36-.37-.46-.27-.54-.55-1-.36-.27-.55.09-.45.36-.55 1.64-.09 1.18v1.36l.37 1.18.45 1.19.37 1.81.36 1.46.45 1.27.37 1 .18.73v.45l-.18.55-.28.27-.27.18-.82.37-1.36.54-.45.27-.55.37-.27.18-.18.45-.19.64v.64l-.18 1.36v1.18l.37 2.27.45 2 .45 1.64.37.91.27.64.27.54.46.55.45.45.18.27.37.64.27.36h.27l.91.1 1.09.18.91.27.55.09.82-.09.72-.09h.55l.54.09.55.27.54.46.37.45.27.55.09 1.18v.73l-.18.63-.27.73-.37.55-.27.27-.54.73-.73.72-1.36.64-1 .36-.82.28-.55.09-.45.27-.37.27-.36.46-.18.72-.09.64.09.82.09.45.27.46.37.27.36.18.91.18.63-.09 1-.18 1.91-.18h2.18l1.73.27.73.37.64.45.36.36.36.46.28.27.63.27.82.19 1.82.45 1.36.45.82.28.45.27.28.36.18.46v.72l-.09.19v1.09l.18 2v2.09l.09.63.09.55.27.73.46.36.27.27.55.28.72.54.46.55.36.63.09.82.55 5.64v1.09l.18.73.27.54.73 1.09.73.82 1.27 1.91 1.55 2.18.72 1.18.46.82 2.18 2.27 1.09 1.28 1.45 1.54.64.82.36.73 1 2 1.19 2.45 1.18 2.37.63.72.91.55 1.55.63 1.63.1 1.82.09 1.73.36 1.73.36.36.19.27.36.19.64-.1.81-.27.73-1 1.46-.36.63-.27.55v.63l.27.64.63.64.73.27 2.36.27h1l.64.27.36.37.37.54.27.73.36 1.09.64 1.64.55.54.54.37 1.09.27 1.28.18 1.18.09.45.18.64.46 1 1.18.82.55 1 .63.81.09.46-.18.36-.36.09-.55v-.45l.09-.91.1-1.18.45-2.73.36-1.09.46-.64.45-.36.46-.27.81-.37 1.19-.18h.18l.82.09.81.46.55.72.45.82.28.55.18.63v.82l-2.46 6v1.27l.28 1.55.54 1 .73.64.73.54.82.27 1.18.19 1.54-.19.55.28.45.54v.55l-.09.45-.54 1.27-1.19 2.64-1.09 2.27-.27.73-.18.82-.09.73v.63l.18 1.46.36 2.36.55 2.55.82 3.63.45 2 .37 1.27.36 1.28.64 1.45.81 1.55 1.09 1.54h.64l.45-.18 2.19-2.64 1-1.18.91-.82 1.09-.36 1.27-.18.45.09.37.27.45.37.37.54 1.36 2.18 1.09 2.64.45 1.27.55 2.18.27 1.19-.27.81-.09 1 .18.55.36.36 1.91 1.55.28.45.09.46-.19.63-.09 1v.55l.19.55.27.63.45.55.73.63.55.55.36.45.36.55.55 1.18.45 1 .64 1.18.64 1 .63.64.82.73 1.27.81 1.28.46 1.54.36 1.27.27.55.19.36.18.64.54.45.82.37.82.09.82-.09.73-.73 2.45-.73 3-.18.64-.18.45-.64.55-.63.18-.82.09h-.64l-.45-.09-1-.55-1.18-.72-1-.37-.73-.09-.91.09-.64.37-.63.54-1.09 1-1.19 1.73-.27.73-.36 1-.18 1.27.09 1.54-.37 2.64.09.91.37 1.18.54.91.55.54 1.63.1.73.09h.73l.54.09.46.18.45.27.46.73.36.91.18.82-.09.81-.27 1.1-.36.81-.09 1 .09.55.18.64.36.36.46.27 6.54 2.91 1.18.18.64-.09 1-.36 1-.73.73-.82.45-.82.18-.45v-1.09l-.18-1.09-.64-1.27-.63-.64-1-.55-2.64-.91-.91-.36-.54-.36-.55-.64-.63-2.09-.55-1.27-.27-1.37-.09-1.09.09-.81.36-1 .55-.73.54-.46 1.09-.36 1.09-.18 2.91.27 1.28.36 1.54.82.64.91.82 1.64.63 1.27.64.82.54 1 .55.54.91.91.18.55.27 1.18v.64l-.82 1.63-.45.82-.18.73-.18.82.18 1.18 1 3.18 2.09 5.18 1 2.09 1.09 1.82 1.27 1.82 2.37 3.73 3.09 5.18.18.45.27.55-.36 1.27-.37.55-.45.27-.73-.09h-.45l-1.09-.55-.82-.45h-.91l-.55.36-.27.36-.18.55-.09 1.18.09 1.55.18.45.18.55.37.63.72.91.46.37.45.36.91.18.37.09.27.46.18.45v.55l-.09.63-.27.55-.19.18-.27.09-.45.09h-1.18l-.55.18-.18.1-.37.27-.45.45-.27.55-.37.91-.27 1.18-.09.91v1.36l-.18 2.09v.46l.09.82 1.09 4.54.09.46-.09.36-.09.45-.64 1-.54 1-.27.82-.28 1.09-.36.64-.82 1.09-1.45 1.54-.64.91-.55.73-.9.91-.55.64-.45.72-.46.82-.27.82v.64l.18 1 .27.81.46.55.63.55.55.27.45-.09h.19l.63-.28.73-.63.64-.55.81-.72.73-.1.73.1.91.45.91.91.72.64.82.36.64.36.45.28.73.81.45 1.19.46 1.36.54 1.73.09.91-.09.81-.18.64-.27.82-.46.82-.81 1-1.28 1.54-.72.73-.91.45-.73.46-1 .36-2.09.18-1.09.28-.55.27-.63.54-.55.82-.27.73-.18.82-.09 1.45.09 1.18.09 1.19 1.09 4.18.18.82.27.9v.73l-.27 1-.27.73-.73 1.27-.54.82-1 .73-.82 1-.73.82-.73.36-.72.09-.64-.18-.55-.37-.81-1.09-1.28-1.45-.54-.55-.82-.54-.82-.37-.82-.09-.63-.09-.46.18-.45.19-.46.45-.27.64-.09.91.09.36.18.64.28.72.27 1.46.73 1.45.63 1.09.18.82.09.82-.18.91-.36 1.09-.73 1-.54.91-.73.63-.91.55-1.18.45-1.55.37-1.36.09-1.09-.09-1.09-.27-1.18-.37-1.1-.18-1.54-.18-.91.09-1.09.27-1.64.73-1.27.91-1.27 1.09-.64 1-.63.82-.37.72-.27.82-.18 1.46-.09 1.45-.28 1.27-.36.82-.27.73.09 1 .09.82.27.63.46.55.63.36 1 .19.91-.19.82-.27.73-.45 1.36-1.91.91-.64.55-.27.81-.09.82.18.64.36.27.46.09.63-.09.64-.55 1.36-.63 1.19-1.55 1.81-1.09 1.09-1.72 1.46-1.64 1.18-1 .46-.91.54-.73.46-.54.63-.46.64-.27.91.09 1v.18l.09.63.27.73.37.55.63.63 1 .46 1 .18h2.19l.63.18.55.37 1.54 1.81.46.37.63.27.73.09.36.18.46.37.09 1.36-.09.64-.09.45-.18.55-.28.18-.27.27-.63.82-.55 1.36-.36 1.28-.55.9v.73l.09.18.27.55-1.72 1-3.73.27-4.45 2-1.73 2.73-.46 4.45-.36 7.73-.54 2.36-.46.37.09 3.63.27 4.46.91 2.09v1.73l.73 1.27.82 3.18 1.27 2.64 7.36 7.81.73.64-.09.64.27.91.46.91.36.45.37.36.54.28.64.27 1.18.36.91.37.91.63.81.73.73.73.73 1.09.82 1.45.72 1.18.91 1.19 1.19 1.18 1.63 1.54 2.37 1.91 3.81 2.64 1.55.73.73.54.9.82.37.54.09.55v.55l-.18.54-.37.46-.63.45-2.09 1.09-.55.36-.54.46-1.19 1.18-.63.64-.82.82-1.45.9-1.28 1.19-.36.54-.27.73v.91l.27.63.36.55.37.36.91.64 1.09.82 3.27 2 .63.54.46.55.45.73.46 1.09.09.82.09 1.27-.27 4.45.18.91.09.82.36.91.46.73.54.63.82.64 1.37.82 1.36.91 1.54 1 4.37 2.18 1.09.36 2.54.27.91.28 1.28.63.9.73.46.55 2.64 7.54.27 1.64-.09 1.09-.28.91-2.09 5.18-.36.91-.09.54.09.37.36.54.46.18 4.63.55.82.09.55.18.36.37.18.63v.37l-.18.36-.36 1.09-.73 1.18-1.18 1-1.27.91-1 1-.37.82v1.27l.18.64.73 1.82 1.37 1.91 2.54 2.81.64.37.63.27h2.46l1.54-.36.73-.37.45-.09.46.09.64.46.27.45.09.82-.18.55-.28.45-.18.18-.72.55-1.19.54-1.91.64-.72.18h-1.64l-1 .09-1.18.27-1.27.46-.73.54-.45.55-.37.55-.36.9-.18.55v.55l.09.63.36.82 2.73 5.09.45.91.18.91.1.91.09 1 .18 1.63.09 1.28-.09.72-.09.64-.37.64-.27.27-.36.27-3.82 1.27-.46.28-.45.45-.27.91-.18.64-.64 6.18v.73l.09.54.18.64.55 1.18 2.18 4.09.36.91.18 1v1.91l-.18 1-1.09 4.09-.09 1.09v2.64l.18 1 .55 2.91.09 1.72-.09 1.28-.46 1.36-.91 2.45-.09.73-.27 2.09-.09 1.09-.18 1-.09.82-.37.73-2.91 5.54-.63 1-.18.64-.28.73-.36 1.72-.36 2.37-.19.54-.18.55-.45.54-.82.64-1.36.73-1.46.45-1 .09-.82.37-.36.27-.36.54-2.09 3.37-.28.82v.91l.28 1.09.63 1.91.18.72v1l-.18 2-.09 5v1l-.09.46-.27.54-.82 1.09-1.09 1-1.46 1.18-2.72 2.19-1.37.63-1.27.55-4.27 1.82-.82.27-.45.18h-.37l-2.45.09-1.37.18-.63.19-.73.27-1.27.91-.27.45-.28.37-.27.54-.18.55-.09.72v.55l.18 2.27.09.73-.09.73-.18.63-.28.46-.45.54-.82.82-.72.55-1.55.63-.18.18-.46.46-.36.63-.09.55-.18 1.45-.18.64-.28.46-.54.54-.37.55-.36.54-.09.46-.09.91.09.81.45 1 1.37 2.46.72 1.45.46 1.37.27.81.09.55-.09.73-.18.54-.45.46-.46.27-.64.09-1-.09-1.9-.45-1.28-.82-.72-.46-.64-.72-.36-.55-1-1.73-.73-.72-.64-.46-.73-.27h-1.27l-.54.18-.55.27-.45.37-.46.45-.82 1-2.18 2.73-.36.63-.18.82-.09.64.18.54.27.73.36.46.64.36.73.18 1.09.18.36.19.55.36.27.45.18.46v.54l-.09 1.09-.18 1-.09 1.28-.18.27-.09.09-.37.27-1.72.64-1.91 1.09-1.73 1.27-1 .91-.73.82-.54.73-.09.36-.1.64v.63l.46 1 .54 1.09.37 1.28.45 1.82.37 1.72.27 1.64v.64l-.09.63-.55 1.73-.36 1.27-.73 2-.54 7.09-.19.55-.36.45-.36.37-.64.18h-.64l-.9-.09h-2.37l-.36.18-.27.27-.37.55-.09.54v.46l.09.63.09.46.19.72v.46l-.19.54-.18.37-.27.27-.36.27h-.73l-.55-.09-.54-.27-1.82-1.18-1.46-.73-1-.64-.63-.18-.82-.18-.73.09-.72.27-.46.28-.36.45-1.55 2-.72 1.46-.37.72-.18.82v.64l.09.63.18.55.37.82.45.63.64.55 3.54 2.91.73.73.36.45.18.55.1.72.09 1-.09.73-.19.73-.18.63-.36.64-.64.73-.63.45-.55.46-.64.36-.81.36-1.19.28h-1.54l-.55-.18-1-.19-.45-.18-.36-.18-.46-.36-.54-.64-1.19-1.36-.81-.64-1.28-.91-1.45-.73-1.37-.36-2.27-.36-1.63-.09h-.64l-.73.09-1.18.45-.64.46-.36.27-.27.36-.37.64-.18.63-.09.46.27 2.27.28.64.91 1.18.72 1 .28.45.18.46.54 1.64 1.73 6.27.09.72v.46l-.18.73-.18 1.09-.18.82v.63l.18.64.27.63.36.55 1.91 1.36.82.55.91.64.64.72.36.73.36 1.09.19.73v.63l-.19.37-.27.36-.45.37-.46.36-.82.09h-.72l-4.64-1.45-.54-.1-.46-.09-.45.09-.37.28-.18.45-.09.73.18 1 .37.73.63.91 1.27 1.54.91 1 .46 1.18.27 1 .27.91-.09.91-.36 1.09-.64 1.36-1.18 1.73-.27.55-.18.63-.09.73v.64l.18 1.36.27.82.36.73 2.09 3.63.91.82.55.36.54.19.64-.09.55-.19 3-2.63.63-.55.73-.45.73-.28.63-.18.46.37.36.36.18.36.64 2.46 1.36 7 .28 1.54.18 1.28-.09.91-.19.63-.27.37-.45.36-.64.18h-.45l-.46-.09-.63-.36-.73-1.09-1.37-1.37-.72-.27h-1.18l-.73.18-.55.27-.72.82-.19.64-.09 1 .18 1.09-.09.54-.18.46-.36.36h-.46l-.27-.27-.27-1.09-.18-.55-.37-.45-.45-.46-.64-.45-1-.64-.72-.18h-.73l-.46.27-.45.46-.36.82-.1 1v1l.28 1.54.72 3.18.37.91.45.82.55.46.63.36 4.19 1.82 1.45.54 1.45.28.46.09.27.36.37.82.81 2.27.46.82.45.73 1 .72.91.55 2.64 1.91.36.45.09.64-.18.73-.36.27-2 1.09-1 .45-.55.28-.36.54-.18.55.18.82 1.18 3 .09.54.09.73-.09.64-.18.36-.27.27-.37.18-.45-.09-.37-.27-1.18-.73-.72-.36-.55-.27h-.64l-.81.18-.55.36-.64.55-.91 1.36-.45 1.18-.73 1.46-.36 1-.27 1.18-.19.82.1.72.27.82.27.55.36.27.46.18h.64l.72.27.37.1.45.36 1.18 1.36.64.64.54.45.91.19h.82l.64.18.54.27.37.45 1.27 1.73 1.36 2.09.28.64.18.64.27 1.72.18 1.18.64 1.64.36.73.55.82 2.72 3 .19.45.18.55.18 1v.81l-.36.64-.73 1.09-.46.46-.27.36-.36.82-.18.54-.09.55v.82l.09 1.18.45 2.45.46 1.82 1.45 5.27 1.27 4.09.28 1.1.63 3 .46 2 .09 1.18.45 4.81v.91l-.18 1.46-.18 1.09-.09.64-.18.36-.19.09-.18.09h-.27l-.64.09-.63.09-.28.28-.27.36-.09.54v.64l.09.73.82 1.63.18.82.09 1-.09 2.55-.18 1.73-.73 4.54-.18.46-1.27 3.36-.09.64v.54l.18 3.45.09.91.27.73.18.55.82 1.27 1.55 1.73.45.72.46.82.45 1 .18.91.18.91.1 1-.28 1.27-.27 1.37-1.09 2.91-.36 1-.46.9-.09.64v.46l.27 1.36.55 3.36.36 3.64.09 1.63-.09 1.37-.36 4.27.09 2.46.09.81.27 1.09.28.64.45.46.27.27.82.63.36.46.19.54.45 1.46.82 2 .09.54.09 1.1.09.81.27.82.64 1.18 1.09 1.28.37.63.18.73.18 1.27.18 1.37.18.72.37.73.36.82.73 1.54 1.45 2.73.27.64.28.82 1.27 4.54.09.91v.73l-.09.91-.36 1.81-.1.82-.18 1.18.09 1.1.37 3.63 1.18 6.46.54 2.09.28.72.36.82.55.82.63.82 2 1.91.82.91.55.63 2.18 4.28 1.91 4.54.09.46.09.54v.73l-.18.54-.46 1-1.09 1.28-.54.54-1.09.73-.46.45-.36.73-1.91 3.82v1.18l.18.36.18.19.37.27.54.09h.55l.81-.27 2.19-1.37.36-.18 2.09-.82 1.09-.18.55-.09.54-.27.46-.27 1.36-1.46.45-.27.64-.09.55.09.45.36.18.27 1.37 3.55-.19 1.27-.18 1.09.09.82.37 1 1.63 3.55.28 1.18.09 1.09.09 1.09-.09.55-.09.72-1.82 3.55-.18.36-.55.37-.73.45-.18.18-.18.18v1l.36.55.28.36.27.28 3 1.54.73.64.45.63.46.91.18.73v1.64l-.37 1.27-2.09 4.54-1.63 3.82-.09.64.09 1.18.36 3.09.18.91.09.64-.09.54-.45 4.18v.55l.09.64.36 1.18.27.54.37.37.27.18.55.18 1.81.55 2.73 1.18.36.09.28.27.45.73.46.91.18.91v.72l-.18.55-.19.82-1 1.54-.81 1-1.37 1.64-.54.45-.91.73-1.46.91-1.9 1.54-2.28 1.91-.54.64-.18.45-.1.64h-.45l-.45-.09-.91.64-4.19 4-1.18 1.54-1.91 4.46-.63.91-.82.81-2.64 2.37-.45.54-.36.82-.28.82v.73l.18 2.18.82 3.45.91 2.91.09 1v5.36l-.09.91-.82 2.91-.45 1.18-.46 1-.81 1.28-.55.54-2.36 2.28-1.37 1.18-3 2.27-1.09 1.09-1.91 2.36-.45.64-.55 1.45-.18 2.64v1.82l.18.64.37.63 1.82 2.55.27.63.18 1.09v.91l-.18 1.73-.27 1-.37 1.18-.18.82-.27 1.91-.37.55-2.9 3.63-.37.55-.63 1.72-.28 1.46v2.73l.28 1.36.9 3.45.37.73 1.18 1.73.64.82.72.54 2.19 2.82.9 1.82.64.82.46.72.36.82v1.27z" stroke-linejoin="round"/></defs><use xlink:href="#h" fill="#004249" stroke="#00465f" stroke-width="5.76"/><defs><path id="i" d="M1787.34 2088.12l1 .09 1.18.09h5.46v-2.27l-.37-2.55-.63-3.64 12.27-.27 1.18-.09.36-.18h.1l.09-.27v-.37l-1.09-2.09 1.63.09.73.28.64.54 4.63 2.09 1.27.55 1.19.36 1.63.18 2.28-.36-.1-.27-.27-.46-.36-.18-.64-.09-.63.09-1.46.54h-.36l-.28-.09-.27-.36-.09-.45.09-.55.18-.45.28-.46 1-.27.63-.46.64-.45 1.64-.73.36-.36.18-.46.09-.36-.27-1.09-.09-1.91-8.09-7.54-13-2.28-1.09-.18-.82-1.18-6.91-9-2.54-3.09v-6.64l-.1-18.18-.63.55-.37.72-.36 1.28-.36.91-.55.36-.54.36-1.09.18-.73-.18-.55-.36-.91-.91-.72-1.36-.55-1.82-.45-1.46-.37-.36-.36-.27-.36-.18-.64.09-.46.18-.27.27-1.36 2.46-.18.54.09.46.18.54.36.46 1.18.81.73.73.18.36.19.55v1.18l-.1.64-.36.63-.45.82-.55.64-.73.54-.63.37-.46.18-.81.09h-.64l-.91-.73-.27-.45-.28-.82-.09-1 .19-2.36-.28-.82-.36-.55-.46-.54-.63-.46-1.27-.18h-4.46l-.54-.27-.55-.46-.36-.45-.19-.45v-.82l.37-1.18.27-1.19v-1.54l-.18-.73-1.45 2.82-.37 1.36.18.82.73 1.55.36 1.72-.45 1.91-1.55 5.91-1.18 2.64 1.73 1.09-2.45 6.09-1.46-.91-1.36 4.73-.46.36-1.18 4.27-1.09 2.73-.64 2.09 2-2.82 3 1 1.46.64 2.82 1.73.45.36.91.64 2.64 2.36.81.91 2.64 2.64 1.45 1.63 4.1 4.28 2.54 2.63-1.18 1.27-4.73 5-.82 1.28-.36.54-.36.82v.09l-.37.82-.09.73 2 .54 4.55 1.37 4.81 1.27 1.28.27 1.36.27 1.27.19.82.09z" stroke-linejoin="round"/></defs><use xlink:href="#i" fill="#004249" stroke="#00465f" stroke-width="5.76"/></svg>