<svg width="4.83in" height="384" viewBox="0 0 3475 2880" xmlns="http://www.w3.org/2000/svg" xmlns:xlink="http://www.w3.org/1999/xlink"><path fill="#fff" d="M0 0h3475v2880H0z"/><defs><path id="a" d="M1058.35 2088.4l-1.95-.65-1.19-.32-7.39-2.39-15.53-4.78-5.64-1.85-6.41-1.95-7.6-2.39-2.61-.76-3.15-.98-.76.22-5.75-1.85-29.76-9.99-22.26-7.38-9.88-3.26-13.9-4.67-5.98-1.96-22.04-7.38-7.06-2.39-24.76-8.15-16.29-5.53-24.54-8.15-24-8.04-4.99-1.62-16.29-5.54-9.23-2.94-8.91-3.04-13.79-4.56-12.38-4.12-14.55-5-6.3-2.39-3.58-1.41-2.39-1.09-3.15-1.41-4.56-1.95-4.35-2.18-3.58-1.84-3.91-1.96-4.34-2.28-4.78-2.71-3.26-1.96-3.69-2.17-3.58-2.28-3.15-2.06-1.96-1.31-2.82-1.95-2.93-2.07-2.5-1.73-4.02-2.94-5.1-3.9-1.74-1.42-5.32-3.8-8.36-6.3-10.21-7.82-27.91-20.96-27.69-20.96-21.18-15.85-15.85-12.17-22.7-17.15-11.07-8.48-8.26-6.19-12.59-9.44-6.41-4.78-8.36-6.41-10.32-7.6-5.97-4.67-3.69-2.83-22.92-17.26-8.69-6.41-3.58-2.5-.87-.11-1.3-.76-13.14-9.66-3.15-2.28-4.78-3.7-15.74-11.62-1.42-.97-14.33-10.86-10.75-8.37-9.99-7.82-7.82-6.08 1.19-.97.55-.44.43-.76.54-.98.22-.97.11-1.31-.22-1.52L321 1673l-1.63-11.94-8.03-2.83 2.39-6.4 4.23-11.73 1.74-.33 67.44-11.18 15.96-2.28 30.51-4.89 12.28-1.85 10.96-1.52 4.89-.87.44-.11.43-.1 8.25-1.42 11.08-1.84 18.46-2.93 26.61-4.35 18.67-2.82 3.37-.76 12.92-2.07 16.94-2.71 4.78-.76 55.28-9.12 39.63-6.41 5.21-.87 16.73-2.71 40.5-6.2 27.37-4.77 4.89-.87 9.01-1.2 15.2-2.17 14.34-1.95 9.34-1.31 5.97-.97 14.88-2.39 14.87-2.28 14.55-1.96 8.48-1.09 7.6-1.3 2.6-.32 12.71-2.07 14.22-2.17 14.99-2.39 13.47-2.17 16.72-2.5 3.37-.32 2.06 9.23v.32l2.28 9.78 1.41 5.97 1.2 5.43 1.41 5.43 2.6 10.86 5.98 25.41.86 4.02 2.72 11.84.43 2.28 3.37 13.9.98 4.13 2.5 10.64.43 1.74.65 2.82 4.89 21.29 3.47 14.66 1.85 7.71 3.26 13.79.32 1.74 4.24 17.7 3.04 13.25.76 3.37 3.91 16.61 2.28 9.99 2.28 10.1 2.17 9.13 2.72 11.4.97 4.24 3.8 15.74 3.91 16.29.98 4.13 3.8 16.51 1.41 6.19 2.28 9.45 1.2 4.88 1.08 4.67 3.7 15.86 2.49 10.86.33 1.3.76 2.72 1.95 8.14 2.07 8.91 1.08 5.75.55 2.83.97 5.43v.54l.33 1.74.76 5.54.54 4.99.11 1.2 1.63 15.53.33 2.17 6.08 4.67-5.43 5.32 2.5 22.15.43 8.26v2.71l-.22 5.65-.43 6.08-1.2 8.47-.76 4.02-5.43 19.55-2.93 10.21-.98 3.36z" stroke-linejoin="round"/></defs><use xlink:href="#a" fill="#cee3e4" stroke="#cef5f5" stroke-width="5.76"/><defs><path id="b" d="M1885.51 2356.22l.11.97.22 2.39-.11 1.63-.22 1.3-.32 1.09-.22.54-.43.98-7.61-2.39-17.15-5.65-11.73-4.12-20.74-6.95-103.38-34.43-36.71-12.16-15.42-5.22-14.12-4.77-10.31-3.37-9.67-3.15-7.82-2.61-8.36-2.93-19.65-6.52-9.34-3.14-19.12-6.19-20.41-6.85-16.94-5.64-32.04-10.65-97.84-32.58-9.66-3.26-9.13-2.93-12.27-4.12-21.17-7.28-3.59-1.3-13.79-4.46-9.23-3.04-17.59-5.97-12.92-4.34-11.62-3.7-6.84-2.28-1.85-.54-9.56-3.37-17.59-5.64-5.54-1.96-6.73-2.17-12.81-4.35-16.18-5.43-10.97-3.69-9.67-3.15-13.25-4.56-3.91-1.19-13.46-4.56-9.45-3.05-8.47-2.71-1.63-.65-.43-.65-6.08-2.28-12.93-4.78-7.92-2.83-.65-.21-7.39-2.39-8.47-2.72-10.42-3.47-3.7-1.2-13.68-4.67-7.28-2.5.98-3.36 2.93-10.21 5.43-19.55.76-4.02 1.2-8.47.43-6.08.22-5.65v-2.71l-.43-8.26-2.5-22.15 5.43-5.32-6.08-4.67-.33-2.17-1.63-15.53-.11-1.2-.54-4.99-.76-5.54-.33-1.74v-.54l-.97-5.43-.55-2.83-1.08-5.75-2.07-8.91-1.95-8.14-.76-2.72-.33-1.3-2.49-10.86-3.7-15.86-1.08-4.67-1.2-4.88-2.28-9.45-1.41-6.19-3.8-16.51-.98-4.13-3.91-16.29-3.8-15.74-.97-4.24-2.72-11.4-2.17-9.13-2.28-10.1-2.28-9.99-3.91-16.61-.76-3.37-3.04-13.25-4.24-17.7-.32-1.74-3.26-13.79-1.85-7.71-3.47-14.66-4.89-21.29-.65-2.82-.43-1.74-2.5-10.64-.98-4.13-3.37-13.9-.43-2.28-2.72-11.84-.86-4.02-5.98-25.41-2.6-10.86-1.41-5.43-1.2-5.43-1.41-5.97-2.28-9.78v-.32l-2.06-9.23 5.21-.66 3.36-.21 4.13-.22 13.03-.87 26.39-1.63 5.1-.65 5.76-.87 18.46-2.82 8.58-1.41 43.55-6.85.76-.1 1.52-.22 6.19-1.09 9.34-1.52 5.64-.87 10.64-1.73 9.23-1.42 2.07-.43 7.49-1.09 4.02-.65 15.96-2.71 14.23-2.39 15.31-2.5 9.88-1.41 13.36-1.96 1.41-.32 3.37-.44 16.61-2.71 4.56-.76 7.5-1.09 8.68-1.3 11.51-1.63 14.23-2.28 14.01-2.39 14.44-2.39 6.84-1.19 7.17-.98.98 1.19-.33-1.3 14.44-2.06 1.74-.33 12.6-2.06 12.49-2.07 3.26-.54 2.38.98 1.2.21 2.28.11 7.17-1.08 1.41-.22 13.03-1.95 6.41-1.09 6.29-1.09 16.62-2.71 16.29-2.72 14.22-2.39 13.69-2.28h1.41l.98.11 1.52.22 1.3.54 3.37 1.74 1.52.43 8.14-.97.76-.11 17.27-2.61 14.55-2.28 13.9-2.06 17.05-2.61 17.59-2.82 12.27-1.85 16.29-2.61 14.12-2.28 15.2-2.38 14.88-2.29 13.25-2.06 19-2.93 10.75-1.63 14.55-2.28 14.55-2.28 1.31-.22 1.08.11 1.09.22.43.54 1.09 1.41.43.76.66 2.5 6.62 42.46 3.37 22.05 7.38 45.29.87 5.75 10.97 68.2 2.6 16.19 5.43 34.2.98 5.98 11.95 71.67 2.93 16.08 2.5 15.96.76 3.15.21.87 2.07 13.36 2.71 16.83 15.53 91.44.87 5.43 2.28 13.25 1.3 5.54.65 3.04.44 2.72 2.71 16.94 2.28 13.9.11.76 3.15 18.03 4.67 27.15 6.3 36.38 2.06 11.62 5.76 12.82.65 5.64 3.47 6.84.77 7.93-.11 5.54 2.49 3.48 3.04 2.39 6.09 4.88 1.52-.87-1.09 2.83-1.09 3.04-.97 2.93-.98 3.58-.87 3.91-.65 3.05-.33 2.38-.43 2.61-.33 2.82-.21 2.61-.11 1.96-.11 2.71v2.61l.11 3.69.11 2.39.1 1.08.11 1.2.11 1.63.33 1.74.32 1.84 1.09 6.74.11 1.19 1.52 9.23 2.6 15.1 2.5 15.74 2.5 15.1 2.61 15.42 2.49 15.31 2.61 15.64 2.39 15.42.65 3.48 1.96 11.62 2.49 15.53 2.07 12.16.54 3.48 2.71 16.18 1.42 8.91.21 1.52z" stroke-linejoin="round"/></defs><use xlink:href="#b" fill="#cee3e4" stroke="#cef5f5" stroke-width="5.76"/><defs><path id="c" d="M2408.5 2098.4l-9.12 1.41-.54-3.15-.55-1.63-.32-.98-2.07-4.99-47.45 7.92-1.3.33-2.39 1.3-3.26 2.5-.44-.65-.65-.11h-.32l-23.46 3.91-21.18 3.69-17.7 2.83-.21-2.83-12.17-64.83-9.12-63.86 45.72-7.49 11.51-1.96 1.85-.54.43-.65v-.55l-.87-4.77-1.08-7.93-2.72-15.97-2.39-15.85-2.71-16.18-2.28-15.97-2.72-16.51-3.69-24.54-.65-2.06-.33-.44-1.84.11-60.49 9.99-19.44 3.59-17.26 2.71-5.76 1.2-27.47 4.34-10.65 1.95-10.96 1.63-21.18 3.91-3.37 6.63-7.38 3.26-.87.1-10.53 1.63-14.34 3.04-14.55 2.72-14.88 2.39-.54.22-2.5.54-12.81 1.95-13.58 1.42-12.27 2.17-2.28.54-1.41.54-4.34 2.72-2.83 2.06-5.97 2.39-1.19.98-.44.87-7.6-2.07-3.58-2.93-1.96-4.45-.65-1.85.98-.21 16.18-2.39.98-.87.21-.98-.65-5-.76.87h-1.19l-1.2-1.3-.97-2.5-21.07-64.94-2.39 1.95.43-6.84v-3.04l-2.06.54-.43.33-.33.65-.22.65.11 1.85-.11 1.09-.32.54-1.2.32-1.08-.21-.33-.44-.87-2.5-.32-.32-.55-.22-13.03-.54-.97-.33-1.74-1.19-1.52-1.96-.44-.54-.87-.54-1.19-.44-1.09-.11-1.41.22-1.52.87-1.08 1.2-1.31.86-1.41.44-7.93-.44-1.41.11-1.41.44-1.63.65-7.49-43.55-5.87.87-.97.76-4.35 1.19-2.6.65h-.87v-.76l-.11-.54-.22-.76-.76-.43-.32-2.39-2.72-14.01-2.17-11.51-.33-1.96-.97.11-.65.11.32 1.74 2.61 11.94 2.93 13.79.32 2.18-.32.11-.22.21-.11.22-.21.76v.65l.32.76.44.33.65.11h.54l.87 12.7 1.09 4.46.97 3.8.55 2.82 1.3 10.64-.11 3.91v3.69l-.43 11.52.1 4.45 1.74 13.14 1.31 7.06.65 2.06 1.08 2.07 2.93 4.23 2.83 3.26 10.64 9.67 9.01 9.01 1.74 1.3 6.63 2.5 1.52.87 1.41 1.41 2.28 3.26 5.32 6.62 2.17 3.48-9.66 1.74-35.08 5.64-10.32 2.07-.76-.76-1.3-.44-3.15.22-14.66 2.71-65.48 10.43-1.74.33-1.63.32-1.3-5.54-2.28-13.25-.87-5.43-15.53-91.44-2.71-16.83-2.07-13.36-.21-.87-.76-3.15-2.5-15.96-2.93-16.08-11.95-71.67-.98-5.98-5.43-34.2-2.6-16.19-10.97-68.2-.87-5.75-7.38-45.29-3.37-22.05-6.62-42.46-.66-2.5-.43-.76-1.09-1.41-.43-.54-1.09-.22-1.08-.11-1.31.22-14.55 2.28-14.55 2.28 4.35-11.4.76-.33.76-.43.97-.87 1.09-1.2 1.3-1.73 1.2-2.07.54-.87 4.13-8.14.54-1.2.54-.97 1.63.54 1.63.43 5 1.2 2.28.43 2.49.33 2.18.22 1.84.1 2.82-12.49-6.95-56.47-3.47-.11h-.87l-2.93-18.02-2.06-13.36-2.28-14.23-2.83-17.81-2.71-14.99-1.2-7.49-.32-1.95-2.72-16.19-.22-2.71.55-4.56.87.87 10.75 11.18 14.98 14.77 3.8 3.91.98 1.09 8.91 9.23 7.71 7.06 2.39 1.63 1.41.76 10.86 3.47 22.8 7.6 13.14 4.78 49.63 17.7-.33 3.48-.54.76 3.37 1.52 1.3.76 1.95 1.85 1.2 1.41.65 1.74 1.63 7.92.54 4.67 3.91-.54 6.52 1.96 4.56 5.1-1.31 6.19-.97 1.41-.55 4.02v2.17l.22.65-5.65 4.35-1.08.87-.54.11-1.52.21-.33 1.2 5.21-.55 8.8-1.62 4.88-.44 10.86-.54 2.07-.11 3.04 15.53.32 2.5 5.22-1.85 2.28-.87 2.06-.76 7.28-3.04 4.34-1.84 1.09-.44 10.53-4.13 8.8-3.47 2.6-.98.87-.22 1.74-.32 1.41-.44 2.06-.32 1.09-.22 1.95-.22 4.13-.32v-.55l-.22-1.62-.21-1.52-.22-1.63-.33-1.63-.21-1.31-.11-1.08-.11-.87v-2.17l.22-1.09.32-1.3.54-1.52.55-1.31.76-1.41 1.63-3.36 1.08-2.07 29.76 12.82.11.76 1.19 5.1 3.8 2.07 3.15 1.84 5.1 3.15 1.63.22 2.61.32 3.69 1.96 5.1 5.86 6.52 7.39 10.21-1.41 12.16-1.96 14.66-2.6 7.28-1.2 13.57-2.17 7.17-1.2 14.01-2.28 6.19-.97 12.38-2.07 10.1-1.74 13.57-2.28 2.06-.43 5.11-.87 5.32-.65 4.34 1.19 2.28.11 2.17-.32 2.94-.65 12.38-2.18 5.32-3.8-.87-4.99-.54-1.96 18.02-3.26 15.31-2.71 3.04-.44 17.16-2.82 21.94-3.58 21.61-3.48 4.02-.65 8.36-1.19 8.47-1.53 4.34-.43 1.52-.43 1.52-.22 8.04-1.41 5.65-.87 3.36-.76 17.81-2.83 9.01-1.41 12.28-2.06 21.17-3.58 20.96-3.15 4.02-.66 5.54-.65 10.64-1.84 5.64-1.09 4.13-.43 9.67-1.63 3.47-.65 16.51-2.83 7.06-1.41 3.04-.54 1.08-.11 1.41.22.87-.11 1.31-.65 3.04-.55h3.36l.55-.11 9.01-1.95 9.88-1.74 1.96-.32 10.86-1.85 9.33-1.41.77-4.78-.98-4.56-.87-6.63-.65-3.91 21.17-3.8 6.63-1.41 14.33-2.28 20.96-3.58-.76-6.63-1.41-8.25-4.13-27.7-7.27-47.35-1.42-8.25-.86-6.84-5.22-34.86-4.34-27.37-2.61-16.83-6.62-44.31v-1.74l-19.98 3.58-1.74-2.93-1.19-6.3-7.93-44.85-2.17-11.08 20.96-3.58-4.78-26.5-6.74-35.51-5.32-30.19-5.97-31.82-5.43-29.76-4.45-22.81-1.52-9.23 21.07-3.69 10.64-1.85 6.51-1.41 3.04-1.08 14.77-6.85 3.8-1.08 2.72-.22 23.89-4.13 9.12-1.52 20.74-3.8 20.85-3.36 21.29-3.59 7.71-1.19 13.24-2.18.66 4.57 4.01 24.21 2.94 16.51 3.69 22.81 10.21 62.23 5.53 31.16 5.11 31.17 4.67 28.13 4.23 27.26 1.09 6.95-21.07 3.15.44 2.82 20.74-3.25.76 1.08 3.36 21.29 7.17 40.51 10.64 62.33 3.15 17.92.22 1.85-.11 1.08-.22.76-.65.55-.65.43-19 3.04.97 4.24.22 1.63.54 3.36.33 1.52.54 1.63.66 1.31.32.54.44.65.86 1.09.44.32 1.52 1.2.98.65 3.15 1.95 1.3.76.76-.32.98-.11h.76l.76.22.65.32.54.55.33.76.21.97.22.76 1.09.66 1.41.76 2.06 1.19 1.41 1.09 1.31 1.19 1.08 1.2.76 1.19.55 1.3.54 1.52.22 1.42.1 1.19 1.52 9.12 5.87 33.23 1.85 12.17 1.19 7.06.22 1.41.11.76 2.49-.33 18.79-3.15 17.48-2.82 3.48-.54 21.28-3.26.33-.11 20.85-3.47 20.85-3.26 21.28-3.26 21.18-3.48 21.17-3.25 20.85-3.26 21.51-3.26 20.95-3.15 21.18-3.15-.11-.76 21.07-3.26 19-2.82 2.17-.33 7.61-1.3 9.88-1.52 3.8-.54 17.05-2.72 4.02-.65 21.17-2.93 21.07-3.37 4.56-.54-.98-3.8-12.49-69.4-5.86-32.69-2.5-16.18-1.41-7.6-1.52-8.69-.76-4.45-2.06-11.95-1.63-10.64-2.93-16.29-4.89-29.65-2.17-11.95-.33-1.95-.32-1.41-3.48-18.25-1.08-6.95-4.13-26.28-2.5-16.62-5.65-32.9-5.32-33.13-.54-3.69 2.17-.54 2.5-.76 2.5-.98 4.78-1.08 10.2-1.42 39.86-7.38 1.63-.87 41.15-7.49 1.31-.33 3.04 3.15.65 1.3.76 2.28-.11 10 5.54 31.27 1.63 7.06 1.3 7.6.98 3.8 1.74 4.67.43 1.63.54 1.2.22.98v.86l-.22 1.42.22 1.73.65 3.59 1.63 11.73 1.3 4.45.55 2.17 1.19 9.56 11.84 68.53 9.01 57.88 5.1 31.39 1.09 4.56.98 6.62v1.63l-.11 7.28.65 4.56 4.13 19.11 3.47 18.57 5 32.91.43 5 2.28 14.55 2.5 12.7 5.1 28.02.33 3.7 5.43 31.71 5.97 31.82 3.04 26.39.55 6.3 2.28 13.25 1.41 7.27 1.74 11.51 1.84 14.34.44 3.04.86 2.06.98 2.94.33 4.01-.33 2.83-.11 2.17.44 2.39 1.52 4.34 1.95 8.8.55 1.09 1.52 2.49.21.55.11.65v.43l-.22.55-.32.1h-.33l-1.63-.43-.54-.11-1.74.11-2.39-.33-5.75.87-10.86 1.41-2.28.98-2.06.44-11.08 2.06-4.45.11-4.78-.54-23.57 3.69-13.9 2.17-10.31.65-3.04.22-1.52.22-3.7.43-4.45.22 1.52 10.42-.76.44-1.95 1.19-.98.76-.65.98h-2.06l-3.7.87-7.82 1.74-2.17.43-4.99.54-3.04.55-11.51 2.17-9.56 1.3-20.63 3.69-6.52 1.2-14.55 2.17-5.86.87-6.52 1.3-9.56 1.63-6.29 1.09-12.38 1.84-4.35.66-13.9 2.49-4.88.76-8.47 1.31-13.14 1.84-5.98.87-13.14 2.28-1.19.11h-3.37l-6.08.44-6.62 1.19-5.65.76-17.7 2.28-7.82 1.09-17.05 2.5-2.71.32-18.47 2.93-19.43 3.04-6.3.98-19.11 3.48-19.01 2.82-19.76 3.37-19.44 4.12-3.8.98-17.48 3.15-2.5.22-3.04-.11-2.5 1.19-5 1.63-4.56 1.09-.97.32-3.37.33-5.21 1.09-5.32.65-6.41 1.3-6.73.76-5.87 1.41-2.17.22-2.28.22-1.74-1.63-.65-.22h-.76l-.65.44-.33 1.08.11.98-4.56 3.04-.33-.65-.32-.54-.65-.98-3.04.65-38.77 6.41-10.86 1.52-2.72.54-6.73 1.74-6.51 1.19-10.97 1.41-11.51 2.29-28.45 4.34-4.35 1.09-20.41 2.71-1.96.43-13.57 2.39-14.55 2.18-2.72-2.61-8.69-9.99-.43.65-.44.65-.21.65v.87l1.52 8.69.65 2.28-2.06.22-22.27 4.02-37.13 5.86 4.66 28.24 2.5 16.5 10.32 65.17.32 3.36.55 5.43-.11.65-.44.33 1.85 2.71 8.04 11.84 1.73 9.34.66 4.78 1.73 11.29 1.2 6.96.43 3.25.44 4.89.32 2.06.76 4.67 1.52 11.08 4.13 22.37 1.3 10.65 2.93 19.11 1.74 10.53 3.48 18.9 6.95 39.97-30.95 6.08-25.85 4.88-1.19.55-.44.54-.21.65.32 2.39.22 2.72 1.74 9.01 1.41 9.45.98 6.84 1.3 6.84 2.28 9.23 1.52 12.06.11 1.95-.11.87-.43.76-.76.44-1.42.43-28.34 5.21-9.45 2.18-8.9 1.3-2.5.87-1.63.87-1.08.87-.98 1.41-.44 1.3-.1 1.52.1 1.63 1.63 8.8 1.31 7.6 2.49 16.51 3.7 21.72 1.73 10.53 5.76 33.88 1.84 12.17.55 2.5.43 1.41.65 1.3.76 2.39 2.28 12.71-11.94 1.41-4.34.54-12.71 2.17-23.24 4.46z" stroke-linejoin="round"/></defs><use xlink:href="#c" fill="#9dc8ca" stroke="#9dd7f0" stroke-width="5.76"/><defs><path id="d" d="M2167.31 1355.24l-2.17.32-2.28-.11-4.34-1.19-5.32.65-5.11.87-2.06.43-13.57 2.28-10.1 1.74-12.38 2.07-6.19.97-14.01 2.28-7.17 1.2-13.57 2.17-7.28 1.2-14.66 2.6-12.16 1.96-10.21 1.41-6.52-7.39-5.1-5.86-3.69-1.96-2.61-.32-1.63-.22-5.1-3.15-3.15-1.84-3.8-2.07-1.19-5.1-.11-.76-29.76-12.82-1.08 2.07-1.63 3.36-.76 1.41-.55 1.31-.54 1.52-.32 1.3-.22 1.09v2.17l.11.87.11 1.08.21 1.31.33 1.63.22 1.63.21 1.52.22 1.62v.55l-4.13.32-1.95.22-1.09.22-2.06.32-1.41.44-1.74.32-.87.22-2.6.98-8.8 3.47-10.53 4.13-1.09.44-4.34 1.84-7.28 3.04-2.06.76-2.28.87-5.22 1.85-.32-2.5-3.04-15.53-2.07.11-10.86.54-4.88.44-8.8 1.62-5.21.55.33-1.2 1.52-.21.54-.11 1.08-.87 5.65-4.35-.22-.65v-2.17l.55-4.02.97-1.41 1.31-6.19-4.56-5.1-6.52-1.96-3.91.54-.54-4.67-1.63-7.92-.65-1.74-1.2-1.41-1.95-1.85-1.3-.76-3.37-1.52.54-.76.33-3.48-49.63-17.7-13.14-4.78-22.8-7.6-10.86-3.47-1.41-.76-2.39-1.63-7.71-7.06-8.91-9.23-.98-1.09-3.8-3.91-14.98-14.77-10.75-11.18-.87-.87.32-.22 4.56-3.15-.86-2.17-4.24-11.19-7.6-40.18-.98-5.54-.22-1.19-7.49-47.57-1.84-11.62-9.89-62.34-9.77-62.44-8.25-51.37-.65-3.91.65-4.78-3.04-2.06-1.74-1.52-1.63-1.52-4.56-5.76 2.28-2.82-.44-1.63-5.43-31.61-10.64-65.27-11.18-69.28-1.74-11.3-2.71-15.96-2.5-16.18-5.76-32.69-.76-3.91-4.88-29.76-5.54-31.28-3.15-18.78-5.32-33.45-.98-6.09-.54-4.12-14.88-88.84-4.67-26.71-.11-1.09-.98-5.43-4.77-32.36-1.85-12.93-2.17-14.55-2.61-17.05-2.39-15.75-1.95-13.79-2.72-17.48-2.39-16.08-2.82-19.11-3.15-20.85-2.5-16.73-2.49-17.27-2.83-18.67-1.52-8.91-1.52-9.23-.76-4.89 38.12-6.51 4.12-.87 17.92-3.8 21.94-4.13 22.26-4.56 36.49-5.76 37.35-5.97 11.51-1.85 1.85 1.85 2.39-.22 26.82 7.93 13.25-1.74 4.02-.87-.11-1.08-.33-.55-1.62-1.41-.44-.87-.43-1.63-.65-4.01-.44-4.46 20.96-2.6 21.61-4.35 42.46-6.84 20.52-3.58 22.05-4.35 21.39-3.91 23.35-3.47 18.57-2.93 21.39-4.13 21.29-3.91 20.95-3.58 22.05-3.37 36.49-6.08 35.18-5.98 8.47-1.41 35.29-5.97 17.92-2.5 43.87-7.38 19.99-3.15 19.98-3.48 5.86-.76 19.55-2.17 3.36-.76 6.95-1.74 1.96-.32 1.08.1.87.87.55.98.54 1.63 2.17 13.68 5.87 32.69 12.92 76.46.22.32.65.22h1.08l3.15-.87 2.93-.54 2.39-.54 82.75-13.14 21.07-3.59 21.17-3.36 10.32-1.53 9.56-2.06 4.99-1.08 18.57-4.24 3.48-1.19 1.95 11.29.87 5.32 3.58 20.96 3.91 22.81.44 2.28 1.08 6.41 1.31 7.6 5.32 30.84 1.41 7.93.22 1.52.21 1.09.44 2.93 1.19 6.62 1.96-.32 2.5-.55 3.25-.76 19.12-3.26 20.63-3.47 20.31-3.37 19.65-3.36 20.85-3.48 10.1-1.74 13.25-2.17 21.07-3.91 22.37-3.8 20.95-3.47 20.09-3.59 20.53-3.26 20.85-3.58 21.61-3.26 21.39-3.36 21.39-3.26 15.43-2.17 5.1-.98 7.49-1.41 12.92-2.07 21.4-3.47 21.28-3.48 20.85-3.26 21.5-3.36 19.88-3.37 4.45-.87 7.17 42.46 5.1 32.91 2.82 16.51 2.07 14.88 15.53 97.2 8.25 48.32 8.79 53.65 2.83 17.81 2.5 16.62 3.58 21.83 1.41 5.54 1.3 6.29 4.46 31.83 2.6 16.5 3.59 24.33 6.62 40.18 2.17 12.17 3.91 21.72 2.39 16.5 8.25 49.42 6.74 42.46.97 6.52 2.61 12.7.54 3.69 5.32 33.13 5.65 32.9 2.5 16.62 4.13 26.28 1.08 6.95 3.48 18.25.32 1.41.33 1.95 2.17 11.95 4.89 29.65 2.93 16.29 1.63 10.64 2.06 11.95.76 4.45 1.52 8.69 1.41 7.6 2.5 16.18 5.86 32.69 12.49 69.4.98 3.8-4.56.54-21.07 3.37-21.17 2.93-4.02.65-17.05 2.72-3.8.54-9.88 1.52-7.61 1.3-2.17.33-19 2.82-21.07 3.26.11.76-21.18 3.15-20.95 3.15-21.51 3.26-20.85 3.26-21.17 3.25-21.18 3.48-21.28 3.26-20.85 3.26-20.85 3.47-.33.11-21.28 3.26-3.48.54-17.48 2.82-18.79 3.15-2.49.33-.11-.76-.22-1.41-1.19-7.06-1.85-12.17-5.87-33.23-1.52-9.12-.1-1.19-.22-1.42-.54-1.52-.55-1.3-.76-1.19-1.08-1.2-1.31-1.19-1.41-1.09-2.06-1.19-1.41-.76-1.09-.66-.22-.76-.21-.97-.33-.76-.54-.55-.65-.32-.76-.22h-.76l-.98.11-.76.32-1.3-.76-3.15-1.95-.98-.65-1.52-1.2-.44-.32-.86-1.09-.44-.65-.32-.54-.66-1.31-.54-1.63-.33-1.52-.54-3.36-.22-1.63-.97-4.24 19-3.04.65-.43.65-.55.22-.76.11-1.08-.22-1.85-3.15-17.92-10.64-62.33-7.17-40.51-3.36-21.29-.76-1.08-20.74 3.25-.44-2.82 21.07-3.15-1.09-6.95-4.23-27.26-4.67-28.13-5.11-31.17-5.53-31.16-10.21-62.23-3.69-22.81-2.94-16.51-4.01-24.21-.66-4.57-13.24 2.18-7.71 1.19-21.29 3.59-20.85 3.36-20.74 3.8-9.12 1.52-23.89 4.13-2.72.22-3.8 1.08-14.77 6.85-3.04 1.08-6.51 1.41-10.64 1.85-21.07 3.69 1.52 9.23 4.45 22.81 5.43 29.76 5.97 31.82 5.32 30.19 6.74 35.51 4.78 26.5-20.96 3.58 2.17 11.08 7.93 44.85 1.19 6.3 1.74 2.93 19.98-3.58v1.74l6.62 44.31 2.61 16.83 4.34 27.37 5.22 34.86.86 6.84 1.42 8.25 7.27 47.35 4.13 27.7 1.41 8.25.76 6.63-20.96 3.58-14.33 2.28-6.63 1.41-21.17 3.8.65 3.91.87 6.63.98 4.56-.77 4.78-9.33 1.41-10.86 1.85-1.96.32-9.88 1.74-9.01 1.95-.55.11h-3.36l-3.04.55-1.31.65-.87.11-1.41-.22-1.08.11-3.04.54-7.06 1.41-16.51 2.83-3.47.65-9.67 1.63-4.13.43-5.64 1.09-10.64 1.84-5.54.65-4.02.66-20.96 3.15-21.17 3.58-12.28 2.06-9.01 1.41-17.81 2.83-3.36.76-5.65.87-8.04 1.41-1.52.22-1.52.43-4.34.43-8.47 1.53-8.36 1.19-4.02.65-21.61 3.48-21.94 3.58-17.16 2.82-3.04.44-15.31 2.71-18.02 3.26.54 1.96.87 4.99-5.32 3.8-12.38 2.18-2.94.65z" stroke-linejoin="round"/></defs><use xlink:href="#d" fill="#6bacaf" stroke="#6bb4d2" stroke-width="5.76"/><defs><path id="e" d="M3413.54 2694.62l27.25 157.25-4.34-.65-12.71-1.74-37.57-5.21-10.42-1.52-24.98-3.37-49.52-6.84-38.44-5.43-41.92-5.86-13.03-1.74-9.23-1.41-8.69-1.31-4.56-.65-59.94-8.36-57.88-7.93-20.75-2.93-121.29-17.05-35.19-4.78-23.45-3.37-10.32-1.41-10.86-1.41-10.75-1.52-4.35-.54-11.18-1.63-5.32-.76-5.21-.65-4.78-.66-3.04-.54-2.72-.32-3.15-.44-17.7-2.5-29.1-4.01-56.14-7.82-46.26-6.52-19.12-2.61-32.47-4.56-11.07-1.52-6.84-.98-12.82-1.84-11.62-1.63-29.1-4.13-23.02-3.15-26.07-3.69-9.88-1.41-21.17-2.93-5-.87-4.99-.98-4.67-1.19-5.11-1.52-4.88-1.63-3.81-1.52-.97-.33-4.67-2.06-4.67-2.18-4.56-2.38-4.35-2.61-4.45-2.72-4.23-2.93-4.24-3.15-3.58-3.04-2.61-2.28-3.15-2.71-4.88-4.89-1.53-1.41-2.93-3.37-2.28-2.61-2.06-2.49-1.41-1.74-1.63-2.06-5.21-7.61-2.39-3.8-6.08-9.56-11.3-17.81-10.42-16.29-11.62-18.35-4.56-7.06-3.7-5.86-7.16-11.3-2.61-3.69-.87-1.19-1.3-1.53-.98-1.08-.76-.87-1.19-1.19-.98-.98-.98-.87-1.08-.87-1.09-.87-1.3-1.08-1.31-.98-1.84-1.31-2.72-1.73-3.36-2.17-21.4-13.91-18.13-11.72-1.2-.76-1.3-.87-1.52-.98-3.58-2.28-4.35-2.83-4.01-2.49-16.95-10.86-8.79-5.65-13.58-8.8-27.47-17.7-12.49-8.04-6.84-4.45-4.99-2.82-.76-.44-4.02-2.17-2.39-1.08-2.5-1.2-4.89-2.17-5.53-2.06-13.69-4.57-1.52-.43-1.84-.65-3.7-1.31-12.81-4.23-10.42-3.48-13.47-4.56-5.65-1.84-3.26-1.2-4.23-1.3-5-1.74-12.92-4.23-1.74-.55-12.48-4.12 2.17-6.3 2.06-6.95.54-2.18.11-1.41-.21-1.19-.44-1.2-.54-.76-.98-.76-1.41-.76-13.58-4.78-20.63-6.51-5.75 19.76-2.94-1.08-4.77-1.52-.76-.22-.76-.33-50.39-16.72-5.76-1.96-9.66-3.14-3.69-1.2.43-.98.22-.54.32-1.09.22-1.3.11-1.63-.22-2.39-.11-.97-.21-1.52-1.42-8.91-2.71-16.18-.54-3.48-2.07-12.16-2.49-15.53-1.96-11.62-.65-3.48-2.39-15.42-2.61-15.64-2.49-15.31-2.61-15.42-2.5-15.1-2.5-15.74-2.6-15.1-1.52-9.23-.11-1.19-1.09-6.74-.32-1.84-.33-1.74-.11-1.63-.11-1.2-.1-1.08-.11-2.39-.11-3.69v-2.61l.11-2.71.11-1.96.21-2.61.33-2.82.43-2.61.33-2.38.65-3.05.87-3.91.98-3.58.97-2.93 1.09-3.04 1.09-2.83-1.52.87-6.09-4.88-3.04-2.39-2.49-3.48.11-5.54-.77-7.93-3.47-6.84-.65-5.64-5.76-12.82-2.06-11.62-6.3-36.38-4.67-27.15-3.15-18.03-.11-.76-2.28-13.9-2.71-16.94-.44-2.72-.65-3.04 1.63-.32 1.74-.33 65.48-10.43 14.66-2.71 3.15-.22 1.3.44.76.76 10.32-2.07 35.08-5.64 9.66-1.74-2.17-3.48-5.32-6.62-2.28-3.26-1.41-1.41-1.52-.87-6.63-2.5-1.74-1.3-9.01-9.01-10.64-9.67-2.83-3.26-2.93-4.23-1.08-2.07-.65-2.06-1.31-7.06-1.74-13.14-.1-4.45.43-11.52v-3.69l.11-3.91-1.3-10.64-.55-2.82-.97-3.8-1.09-4.46-.87-12.7h-.54l-.65-.11-.44-.33-.32-.76v-.65l.21-.76.11-.22.22-.21.32-.11-.32-2.18-2.93-13.79-2.61-11.94-.32-1.74.65-.11.97-.11.33 1.96 2.17 11.51 2.72 14.01.32 2.39.76.43.22.76.11.54v.76h.87l2.6-.65 4.35-1.19.97-.76 5.87-.87 7.49 43.55 1.63-.65 1.41-.44 1.41-.11 7.93.44 1.41-.44 1.31-.86 1.08-1.2 1.52-.87 1.41-.22 1.09.11 1.19.44.87.54.44.54 1.52 1.96 1.74 1.19.97.33 13.03.54.55.22.32.32.87 2.5.33.44 1.08.21 1.2-.32.32-.54.11-1.09-.11-1.85.22-.65.33-.65.43-.33 2.06-.54v3.04l-.43 6.84 2.39-1.95 21.07 64.94.97 2.5 1.2 1.3h1.19l.76-.87.65 5-.21.98-.98.87-16.18 2.39-.98.21.65 1.85 1.96 4.45 3.58 2.93 7.6 2.07.44-.87 1.19-.98 5.97-2.39 2.83-2.06 4.34-2.72 1.41-.54 2.28-.54 12.27-2.17 13.58-1.42 12.81-1.95 2.5-.54.54-.22 14.88-2.39 14.55-2.72 14.34-3.04 10.53-1.63.87-.1 7.38-3.26 3.37-6.63 21.18-3.91 10.96-1.63 10.65-1.95 27.47-4.34 5.76-1.2 17.26-2.71 19.44-3.59 60.49-9.99 1.84-.11.33.44.65 2.06 3.69 24.54 2.72 16.51 2.28 15.97 2.71 16.18 2.39 15.85 2.72 15.97 1.08 7.93.87 4.77v.55l-.43.65-1.85.54-11.51 1.96-45.72 7.49 9.12 63.86 12.17 64.83.21 2.83 17.7-2.83 21.18-3.69 23.46-3.91h.32l.65.11.44.65 3.26-2.5 2.39-1.3 1.3-.33 47.45-7.92 2.07 4.99.32.98.55 1.63.54 3.15 9.12-1.41 23.24-4.46 12.71-2.17 4.34-.54 11.94-1.41-2.28-12.71-.76-2.39-.65-1.3-.43-1.41-.55-2.5-1.84-12.17-5.76-33.88-1.73-10.53-3.7-21.72-2.49-16.51-1.31-7.6-1.63-8.8-.1-1.63.1-1.52.44-1.3.98-1.41 1.08-.87 1.63-.87 2.5-.87 8.9-1.3 9.45-2.18 28.34-5.21 1.42-.43.76-.44.43-.76.11-.87-.11-1.95-1.52-12.06-2.28-9.23-1.3-6.84-.98-6.84-1.41-9.45-1.74-9.01-.22-2.72-.32-2.39.21-.65.44-.54 1.19-.55 25.85-4.88 30.95-6.08-6.95-39.97-3.48-18.9-1.74-10.53-2.93-19.11-1.3-10.65-4.13-22.37-1.52-11.08-.76-4.67-.32-2.06-.44-4.89-.43-3.25-1.2-6.96-1.73-11.29-.66-4.78-1.73-9.34-8.04-11.84-1.85-2.71.44-.33.11-.65-.55-5.43-.32-3.36-10.32-65.17-2.5-16.5-4.66-28.24 37.13-5.86 22.27-4.02 2.06-.22-.65-2.28-1.52-8.69v-.87l.21-.65.44-.65.43-.65 8.69 9.99 2.72 2.61 14.55-2.18 13.57-2.39 1.96-.43 20.41-2.71 4.35-1.09 28.45-4.34 11.51-2.29 10.97-1.41 6.51-1.19 6.73-1.74 2.72-.54 10.86-1.52 38.77-6.41 3.04-.65.65.98.32.54.33.65 4.56-3.04-.11-.98.33-1.08.65-.44h.76l.65.22 1.74 1.63 2.28-.22 2.17-.22 5.87-1.41 6.73-.76 6.41-1.3 5.32-.65 5.21-1.09 3.37-.33.97-.32 4.56-1.09 5-1.63 2.5-1.19 3.04.11 2.5-.22 17.48-3.15 3.8-.98 19.44-4.12 19.76-3.37 19.01-2.82 19.11-3.48 6.3-.98 19.43-3.04 18.47-2.93 2.71-.32 17.05-2.5 7.82-1.09 17.7-2.28 5.65-.76 6.62-1.19 6.08-.44h3.37l1.19-.11 13.14-2.28 5.98-.87 13.14-1.84 8.47-1.31 4.88-.76 13.9-2.49 4.35-.66 12.38-1.84 6.29-1.09 9.56-1.63 6.52-1.3 5.86-.87 14.55-2.17 6.52-1.2 20.63-3.69 9.56-1.3 11.51-2.17 3.04-.55 4.99-.54 2.17-.43 7.82-1.74 3.7-.87h2.06l.65-.98.98-.76 1.95-1.19.76-.44 1.31 7.39.32 1.84 15.53 94.27 6.41 38.34 34.64 209.38 23.13 140.1 22.48 135.64.65 4.02 12.49 75.58 18.24 110.13 12.6 76.34 13.25 79.72 18.02 109.14 3.15 17.16 11.73 70.16 11.29 71.46 4.57 23.13z" stroke-linejoin="round"/></defs><use xlink:href="#e" fill="#09757a" stroke="#097d9b" stroke-width="5.76"/><defs><path id="f" d="M319.7 1690.16l-7.71-5.97-6.41-4.67-14.33-10.86-7.82-6.19-1.3-.98-4.24-3.15-8.69-6.51-4.88-3.59-15.1-11.29-15.96-11.84-1.85-1.3-1.3-.98-6.08-6.95-9.99-8.04-3.59-2.71-4.01-3.15-3.8-3.04-2.28-1.63-1.52-1.3-1.42-1.2-7.27-5.1-5.21-3.7-2.29-1.52-9.23-6.62-3.69-2.82-7.6-6.63-1.3-1.08-1.2-.87-6.19-5.11-4.45-3.36-25.52-19.23-27.69-21.72-2.61 2.17-29.86-22.58-11.62-8.48-4.67-3.58-4.56-3.37-6.19-4.56-.43-4.78 6.51-15.85-8.36-14.45 2.61-1.62 4.88-2.28 1.96-.77 2.93-.76 59.94-10.64 40.51-7.49 10.32-1.3 19.54-3.05 1.41-.32 32.26-5.76 48.1-8.36 6.08-1.19 4.13-.87 4.24-1.09 3.69-1.41 2.39-1.3 2.39-1.85 1.52-1.09 3.69-3.47 1.95-2.07 2.39-3.58 2.28-4.67.98-2.39.87-4.45 2.82-29.43 1.31-16.73.32-2.82 3.15-32.8 1.09-8.03 1.19-5.76.54-1.63 3.59-7.6 3.04-4.45 2.06-2.5 3.91-3.91 3.04-2.5 4.24-2.71 5.32-3.26 6.51-3.8 4.67-2.83 8.58-4.99 6.84-3.8 4.02-2.18 1.85-.97 5.54-2.61.97-.54 1.31-.44 4.45-1.84 4.45-1.63 5.1-1.52 1.2-.33 1.3-.32 5.22-1.2 5.32-.98 3.15-.54 2.06-.32 19.55-2.94 17.8-2.71 4.46-.65 29.53-4.35 18.57-2.82 48.76-7.28 51.58-7.71 2.83 15.86 14.44-2.5 18.14-2.93 14.66-1.96 13.79-1.84 14.98-2.5 14.01-2.07 5.21-.86 5.11-1.85 2.82-1.19 4.02-2.18 4.56-2.93 1.3-.22.44.22 1.08.87 3.05 3.69 3.8-8.58.21-1.3 1.96-11.19.43-27.15.55-.76 1.84-2.28 1.41-1.52 1.31-1.19 1.19-.98 1.41-.76 1.63-.65 2.17-.65 14.99-2.5 3.47-.54 15.42-2.28 15.53-2.39 7.71-1.31 7.71-1.41 1.31-.33 2.71-.76 2.07-.54 1.19-.43 1.41-.55 3.04-1.3 2.93-1.41 2.83-1.52 2.71-1.74 2.72-2.06 4.67-3.91 2.82-2.83 2.28-2.6 2.17-2.83 1.96-2.82 1.84-3.04 1.63-3.15 1.52-3.26 1.31-3.26 1.08-3.47.98-3.48.76-3.47.65-3.59.43-4.01.11-1.09.11-.87.22-.76.32-.43.66-.22-.44-2.61-.22-1.95-.1-2.39-.11-5.97-.22-3.26-.11-.98 5.76-.54 17.48-1.31 7.71-.86 10.64-1.09 14.77-2.06 13.9-2.39 1.41-.33 24.98-3.91 21.07-3.58 4.88-.76 11.08-1.85 5.86-.98 5.33-.86 2.71-.87 6.73-4.56 5-.98 1.19-.22 2.28-.54 1.2-.22.98-.22 12.27-2.49 9.66 3.58 7.17-1.09 8.25-.21 3.59.1 5.97.87 6.51 1.74 2.39.54 6.52 2.72 8.14 4.56 12.17 7.49 33.12 20.2 8.68-4.67 5-6.3 35.84-16.39.76-.11.21-1.74.55-2.17 1.41-3.04 1.3-1.52 1.96-3.91 4.66-3.37 2.07-2.17 11.18-12.82 6.41-3.15 12.92-6.29 12.06-3.15.76 2.82 8.14-.98 5.65-.11 29.43 1.2 10.42.22 2.61-.11 1.08-.44.44-.22.98.44 10.31 4.99-.21-1.3-.44-7.71-.22-4.56-1.08-7.71-2.5-3.8-.87-8.04-6.41-42.14-1.52-9.55-4.23-1.2-.54-2.6.97-5.54-2.39-8.69.33-4.89-1.95-10.53 1.41-5.11 1.84-14.66-.43-1.63-7.28.66-.97-6.74-1.85-6.41-1.41-5.86-1.74-11.4-3.26-22.38 9.12 1.2-1.84-13.14-2.17-15.64-2.07-15.31-2.17-15.64-2.17-15.21-6.62-19.65-1.09.11-2.17.21-7.6 1.2-15.1 2.5-8.58 1.41-12.81 2.17-32.36 5.32-10.64 1.74-11.19 1.85-16.4 2.6h-1.08l-.76-.65-.87-1.95-3.15-16.95-2.28-11.73-.98-4.67-1.85-10.53-1.08-5.86-1.96-9.56-1.41-6.95-6.19-33.99-2.06-10.54-.76-3.91-2.72-14.55-2.82-15.31-2.61-13.58-1.41-7.27-1.19-7.72-1.52-8.9-1.2-6.08-1.63-7.6-1.62-8.15-1.52-7.28-4.67-25.41-2.5-13.47-1.74-9.99-1.95-11.18-1.42-8.47-1.19-7.71-2.28-14.23-3.15-18.14-3.15-16.72-2.06-11.51-1.96-11.41-.11-.54-4.45-27.91-2.82-16.4-2.61-15.31-3.26-18.9-2.71-16.07-1.3-7.17-1.96-11.08-1.19-7.06 24.87-4.23 12.48-2.17 12.27-2.07 19.12-3.25 12.92-2.18 15.09-2.49 12.82-2.29 10.21-1.73 20.09-3.26 18.02-3.04 9.45-1.63 4.45-.76 34.75-5.97 27.8-4.78 16.51-3.15 6.95-1.2 7.17-1.19 6.29-.98 9.67-1.63 4.78-.76 9.45-1.52 9.01-1.52 3.15-.54 7.82-1.2 2.93-.54 14.44-2.39 40.4-6.84 9.01-1.52 4.89-.76 5.65-.87 4.01-.65 5.22-.87 4.56-.76 5.53-.87 5-.76 10.32-1.63 4.34-.65 7.6-1.3 4.89-.76 2.17-.33 10.97-1.95 3.36-.55 7.39-1.3 1.95-.33 5.98-.86 3.47-.55.76 4.89 1.52 9.23 1.52 8.91 2.83 18.67 2.49 17.27 2.5 16.73 3.15 20.85 2.82 19.11 2.39 16.08 2.72 17.48 1.95 13.79 2.39 15.75 2.61 17.05 2.17 14.55 1.85 12.93 4.77 32.36.98 5.43.11 1.09 4.67 26.71 14.88 88.84.54 4.12.98 6.09 5.32 33.45 3.15 18.78 5.54 31.28 4.88 29.76.76 3.91 5.76 32.69 2.5 16.18 2.71 15.96 1.74 11.3 11.18 69.28 10.64 65.27 5.43 31.61.44 1.63-2.28 2.82 4.56 5.76 1.63 1.52 1.74 1.52 3.04 2.06-.65 4.78.65 3.91 8.25 51.37 9.77 62.44 9.89 62.34 1.84 11.62 7.49 47.57.22 1.19.98 5.54 7.6 40.18 4.24 11.19.86 2.17-4.56 3.15-.32.22-.55 4.56.22 2.71 2.72 16.19.32 1.95 1.2 7.49 2.71 14.99 2.83 17.81 2.28 14.23 2.06 13.36 2.93 18.02h.87l3.47.11 6.95 56.47-2.82 12.49-1.84-.1-2.18-.22-2.49-.33-2.28-.43-5-1.2-1.63-.43-1.63-.54-.54.97-.54 1.2-4.13 8.14-.54.87-1.2 2.07-1.3 1.73-1.09 1.2-.97.87-.76.43-.76.33-4.35 11.4-10.75 1.63-19 2.93-13.25 2.06-14.88 2.29-15.2 2.38-14.12 2.28-16.29 2.61-12.27 1.85-17.59 2.82-17.05 2.61-13.9 2.06-14.55 2.28-17.27 2.61-.76.11-8.14.97-1.52-.43-3.37-1.74-1.3-.54-1.52-.22-.98-.11h-1.41l-13.69 2.28-14.22 2.39-16.29 2.72-16.62 2.71-6.29 1.09-6.41 1.09-13.03 1.95-1.41.22-7.17 1.08-2.28-.11-1.2-.21-2.38-.98-3.26.54-12.49 2.07-12.6 2.06-1.74.33-14.44 2.06.33 1.3-.98-1.19-7.17.98-6.84 1.19-14.44 2.39-14.01 2.39-14.23 2.28-11.51 1.63-8.68 1.3-7.5 1.09-4.56.76-16.61 2.71-3.37.44-1.41.32-13.36 1.96-9.88 1.41-15.31 2.5-14.23 2.39-15.96 2.71-4.02.65-7.49 1.09-2.07.43-9.23 1.42-10.64 1.73-5.64.87-9.34 1.52-6.19 1.09-1.52.22-.76.1-43.55 6.85-8.58 1.41-18.46 2.82-5.76.87-5.1.65-26.39 1.63-13.03.87-4.13.22-3.36.21-5.21.66-3.37.32-16.72 2.5-13.47 2.17-14.99 2.39-14.22 2.17-12.71 2.07-2.6.32-7.6 1.3-8.48 1.09-14.55 1.96-14.87 2.28-14.88 2.39-5.97.97-9.34 1.31-14.34 1.95-15.2 2.17-9.01 1.2-4.89.87-27.37 4.77-40.5 6.2-16.73 2.71-5.21.87-39.63 6.41-55.28 9.12-4.78.76-16.94 2.71-12.92 2.07-3.37.76-18.67 2.82-26.61 4.35-18.46 2.93-11.08 1.84-8.25 1.42-.43.1-.44.11-4.89.87-10.96 1.52-12.28 1.85-30.51 4.89-15.96 2.28-67.44 11.18-1.74.33-4.23 11.73-2.39 6.4 8.03 2.83L321 1673l1.52 10.21.22 1.52-.11 1.31-.22.97-.54.98-.43.76-.55.44-1.19.97z" stroke-linejoin="round"/></defs><use xlink:href="#f" fill="#004249" stroke="#00465f" stroke-width="5.76"/></svg>