<svg width="384" height="4.03in" viewBox="0 0 2880 2900" xmlns="http://www.w3.org/2000/svg" xmlns:xlink="http://www.w3.org/1999/xlink"><path fill="#fff" d="M0 0h2880v2900H0z"/><defs><path id="a" d="M891.4 2853.42l.09.45-.09.73-.27.9-.45 1.18-.46 1.09-.72 1.09-.36.54-.55.73-1.27-1.09-.99-.82-1.63-1.72-1-1-1.72-1.9-3.99-4.62-2.35-2.72-2.9-3.35-2.63-2.99-2.09-2.27-.63-.72-.64-.73-.36-.36-.27-.27-1.72-2-1.81-2.08-1.54-1.63-2.72-3.08-3.63-3.99-.45-.55-9.24-10.6-1.45-1.54-5.62-6.34-2.18-2.54-.99-1.09-5.08-5.8-5.25-5.98-2.27-2.54-9.79-11.05-7.15-8.07-2.63-2.9-1.36-1.54-1.45-1.72-1.18-1.27-1.27-1.63-2.63-2.9-1.36-1.36-1.54-1.72-.09-.09-1.17-1.09-1.27-1.27-1.09-1-1-.9-.72-.55-.82-.63-1.54-1.18-2.08-1.36-2-1.27-.54-.27-1.63-.91-1.45-.63-1.09-.45-2.17-.73-1.27-.45-.27-.09-1.63-.46-1.36-.27-2-.54-3.35-.82-.54-.18-4.99-1.27-5.8-1.36-8.06-1.99-2.09-.54-4.26-1.09-2.08-.54-3.17-.91-8.34-2.18-4.44-1.26-1.18-.37 1.27-1.36 2.63-2.71.63-.55.82-.63 1.72-1.63.91-.82.27-.36 1.36-1.27 1.63-1.81 2.72-3.18 1.36-1.63 1.63-1.9.27-.36.73-1 1.45-1.81 2.99-3.99 2.9-4.26 2.44-3.8.82-1.27 1.81-3.18.18-.36 1.63-3.08 1.54-2.99 1.36-2.9 1.45-2.99 1-2.27 1.09-2.99.81-2.35.91-2.36.54-1.72.27-.73.37-1.08.54-1.91 1.9-5.62 2.27-7.43.54-1.9 2.27-7.34 1.54-4.71 1.18-3.81 1.36-4.35 1.08-3.44 2.54-8.61 1.9-6.26 3.36-11.05 6.25-20.03 2.81-9.52 1.99-6.16 1.72-5.16.37-1.45.72-2.45.27-.91 1-3.08 1.45-4.62 1.36-4.26.99-2.63.64-1.63.54-1.63 1.27-3.26 1-2.27 1-2.35.36-.82.54-1.18.73-1.81.9-1.72 3.36-6.62 1.26-2.17 1-1.82.73-1.36 1.63-2.89 1.99-3.54 3.9-6.98 3.98-6.98.73-1.17 1.99-3.63 3.08-5.44.64-1.26 2.17-3.72 1.36-2.36 4.53-7.97 1.27-2.18 1-1.81 2.54-4.44.99-1.81 1.09-2 1.18-2.08 1.09-1.99 2.35-4.44 1.09-2.36 1.18-2.45.54-1.18 1.09-2.53.81-1.82.64-1.54 1.09-2.72.72-1.72 1.72-4.71 1.72-4.98.73-2.09 5.16-16.4 2.09-7.07 2.26-7.7 1.18-3.9 5.71-18.85 1.81-5.71 1.36-4.44.45-1.63 1.82-5.8 1.99-6.62 2.63-9.6 1.99-7.53 1.27-5.43.36-1.45.73-2.72 3.89-17.95 3-13.5.72-4.26.82-.9.09-.37.63-2.63.82-3.53.36-1.18.27-1.36.73-2.9.63-2.08.36-.82.46-1.63.54-1.45.27-.9.09-.55v-1.27l.18-.36.18-.36.46-1.27.27-.82.45-.99.36-1 .73-1.63.27-.64 1.18-2.8.27-.55 1-1.99.54-1 4.44-8.16.82-1.17.9-1.36 1.27-1.82 2-2.9 1.81-2.71.81-1.18.73-1.09 1.45-2.08.63-.91 2.54-3.54 2.27-3.26.9-1.27 1.18-1.63 1-1.27 2.17-2.62 5.53-6.62 3.53-3.81 6.17-6.43 5.07-5.35 1-1.09 4.35-4.44 4.26-4.44.99-1.08 3.26-3.54 3.63-3.8 2.26-2.36L988 2144.1l5.89-6.17 5.89-6.25 3.35-3.44 8.43-8.88 1.09-1 1.36-1.27 1.36-1.27 1.36-1.09 2.53-2.08 1.36-1.09 1.54-1.09 1.36-.99 2.27-1.54 4.98-3.17 5.08-2.99 3.44-2 7.07-4.17 2.35-1.45 2.27-1.54 3.17-2.17 2.54-2 .63-.54 1.72-1.45 2.27-2.08 1.36-1.27 1.36-1.36 1.18-1.27 1.17-1.27 2.9-3.35 2.9-3.72 3.54-3.9 2.35-3.17.82-1.18.63-.9 1.09-1.36.27-.36 2.18-2.63 2.45-3.17 4.71-6.08.81-1.26.82-.91 2.44-2.72 1.36-1.9 4.44-5.44.73-.91 1.72-2.08 1.81-2.27 2.36-2.9 5.98-7.34.82-.81.45-.64.91-1.08 1.72-2.18 2.26-2.63 1.63-2.08 3.08-3.54 1.82-2.53.72-.82 1.81-1.9.55-.64 2.26-2.63 1.36-1.54 2.45-2.9 2.54-2.99.72-.72 2.09-2.36 1.63-1.9.36-.27.63-.91 2.27-2.54 1.9-2.26 1.09-1.27 5.25-5.89 1.55-1.81 3.08-3.45 5.8-6.43 5.98-6.53 2.35-2.53 6.53-7.07.99-1.27 8.34-8.88 6.53-6.89 2.71-2.9 5.98-6.16 5.99-6.17 6.07-6.25 2.35-2.26 2.36-2.36 9.79-9.97.81-.82 6.71-6.79 1.08-1.09 2.45-2.45 2.18-2.26 4.25-4.35 5.35-5.35 7.16-7.25 4.26-4.17 1.54-1.54 1.36-1.36.72-.63 1.36-1.36.64-.73 1.17-1.17 1.55-1.55 1.54-1.63 2.17-2.26 3.81-4.08 7.25-7.61 2.35-2.54 1.91-2.18 1.72-1.9 2.08-2.81.73-1.09.27-.45 1.63-2.45.27-.54 1.72-3.17 4.35-7.98 1.72-3.17 3.27-5.98.81-1.54.73-1.18 1.08-2.17 1-1.82 2.63-5.07 1.09-2.18 1.08-2.71.55-1.09.36-1.09.54-1.54.37-1.18.36-1.27.18-.9.27-1.82.18-.9.09-1 .09-.72v-.73l.09-2.72v-8.61l.19-2.72.09-2.99.18-3.71.09-3.99.09-2.08v-4.9l.18-2.35.18-1.82.27-2.08.37-1.63.81-4.35.82-4.08.18-.91.45-2.44 1.36-6.53.63-2.99.82-3.99.36-1.99.27-1.72.1-1.27.18-1.54v-5.71l1.45-1.63 11.78-1.18.54-.09.91.27.81.64 2.27 3.71 3.98 5.35 3.63 4.62 7.61 9.52.45.72 1.54 2.36 4.9 8.61 1.09 1.9 1.9 3.53 1.09 2.09 4.07 8.52 2.27 5.43 2.81 6.89v.64l-.09.54.09.73.36 1.99.18.91.55 2.17 2.99 5.35 2.17 3.62 3.81 5.53 3.8 4.53 2.9 2.99 1.36 1.54 1.09 1.45 1.27 1.45 1.99 2.18v1.72l-8.88 3.17-2.17.64-2 .72-4.08 2.27-2.62.99-3.45.82.64 2.17.18 1.91.18 1.72.36 2.54.27 3.35.19 2.45.18 1.72.36 1.72.45 1.36.64 1.36.81 1.27.82.99 1.27 1.82 1.27 1.63.72.9.54.73.55.82.36.54.54 1.18 1.09 2.26.27.55-.9.54-1.91 1.18-.27.18-.45.27-1.63 1.18-1.36.82-2.63 2.08-2.63 2.08-2.53 2.18-2.45 2.36-2.45 2.62-1.63 1.73-1.27 1.35-2.17 2.72-1 1.36-.18.18-1.18 1.73-1.09 1.54-.54.72-1.18 1.99-1.18 1.82-.54.99-1.27 2.18-.81 1.72-1.91 3.63-1.54-.64-1.18-1-.45-.45-.36-.81-.09-1 .45-1 .55-1.63.09-.72-.19-.91-1.99-2.36-1.27-1.17-.72-.37-1 .18-1.63.55-4.08 1.36-.9.18h-.91l-3.17-.55-1.18-.36-1.09-.63-3.53-2.99-.73-.36-.81.09-2.36 1.99-.9.54-.64.37-.54.36-.18.81v.91l3.08 9.15.63 1.36 1 1.72.18 1.27.09.27.27 1.09.91 2.9.09.46 3.44 11.41.46.09 10.42 1.73.72.18.64.09 1.08.27-.54 2.54-.36 3.08-.18.72v.1l-.09.99-.19 1.63-.09 1.09-.18 1.27-.18 2.81-.09 4.53v5.26l.18 2.35.09 1.54.18 2.09.18 2.44.46 2.72.36 2.63.27 1.54 1.18 5.44.36 1.63.37 1.45.45 1.63.45 1.45.27 1 .46 1.09.45 1.45.18.63.27.63.55 1.55.54 1.45.54 1.54 2.45 6.97 1.54 4.35 1.36 3.99 1.9 5.53 1 2.99 1.72 4.99 2.27 6.16.63 1.72 1.81 5.44 1.91 5.43 1.27 3.72 1.26 3.35 1.36 3.72.82 2.63 1.54 4.26.63 1.81.46 1.18.09.36.18.36.45-.36.27-.27 1-.55 2.54-1.63 1.45-.99 1.36-.91.54-.36 1.45-1 1.9-1.54 1.72-1.72 1-1 4.53-5.35 2.9-3.53 2.18-2.63-2-1.09-1.63-.9-4.89-2.9-5.17-2.45-9.24-6.71-8.61-4.07-1.09-.18-1.08-11.7.18-.81.36-.82.73-.63.81-.27 1.72-.37 7.52-.99 1.09-.09 1.09-.18 1.99-.19 2-.27 9.06-.99 12.32-1.55 9.52-1.17h1.63l2.26-.37 2.99-.27 6.17-.81v1.54l.18 2.54.27 2.9v.54l.09.72.27 1.73.18 1.45.18.9.09.46.19 1.35.63 3.18.63 2.72.28.72-2.45.45-4.89.91-2.9.54-2 .55-1.54.54-1.09.36-1.26.64-1 .45-1.09.64-.72.54-.82.63-.72.64-1 1.18-5.26 6.07-3.44 4.26.27.09.18.18.09.27.19.54 1.17 7.8 1.09 6.52-2.99.37-.09-.28-8.7 2.45-1.99 4.62-1.54 1.36-2.18 1-3.26 1.36-3.35 1.09 2.26 6.43 3.81 10.88-1.45-1.09-3.08-8.79-1-2.9-.27-.91-.55-1.54-.72-2.08-1.45-1.91-.45-.45-.55-.18-.36-.09h-.36l-.36-.09-1 .09-1 .99-.81.82-.73.82-.81.9-.64.73-.81 1.27-.82 1.36-1.72 2.99-1.45 2.62-1.9 3.81-.37.72-1.45 3-4.35 8.88-3.26 6.61-2.72 5.44-.36.82-.91 1.72-.9 1.81-1.36 2.45-1.18 1.81-1.9 2.63-1.27 1.72-2.45 2.9-1.81 2.17-1.09 1.27-6.07 7.43-3.62 4.35-.27.28-2.54 2.99-1.72 2.26-2.63 3.72-.64.9-1.45 2.63-2.62 4.62-2.72 4.9-2.18 4.17-1.72 3.26-1.72 3.26-2.18 4.35-.54 1-1.81 3.62-.73 1.36-2.99 5.98-.72 1.36-.73 1.36-1.99 4.08-1.72 3.26-4.8 9.43-1.64 2.9-1.63 2.72-2.99 4.71-2.99 4.17-2.17 2.9-5.71 7.25-3.72 4.44-1.63 1.99-1.81 2.27-1.99 2.35-4.08 4.63-.82.99-3.17 3.36-.18.27-2.36 2.45-11.41 12.5-4.35 4.8-2.81 2.91-1.72 1.9-.09.09-1.09 1.18-.55.63-.81 1-2.54 2.72-2.45 2.9-1.35 1.72-.55.72-1.54 2.09-.27.45-1.18 1.81-2.54 4.26-2.62 4.81-.37.81-1.54 2.81-.45.82-1.9 3.44-2.18 4.17-.72 1.27-2.45 4.62-.36.54-.45.55-1.45 2.26-1.09 1.36-.46.64-.63.72-2.08 2.36-.82.72-1.81 1.72-2.36 2.36-1.36 1.18-2.62 2.54-2.72 2.53-1.27 1.27-1.81 1.91-1.73 2.17-.99 1.27-.55.91-.45.72-3.62 6.71-1.54 2.63-.91 1.81-1 1.99-.45.91-.54 1-.46.9-.27.64-.36.72-.82 1.72-1.27 3.08-.81 1.82-.55 1.45-.27.72-.36 1-.63 1.72-.46 1.63-.81 2.36-.46 1.54-.45 1.63-.36 1.63-1.45 6.07-.36 1.91-.55 2.26-.72 4.08-.73 3.62-.27 1.27-.18 1.18-.63 3.81-.64 3.53-.36 2-.09.72-.27.82-.37 1.36-.45 1.45-.54 1.63-.64 1.08-1.27 2-1.54 2.17-1.36 1.82-1.45 1.35-1.35 1.27-3.18 2.81-.45.46-4.08 3.71-5.89 5.35-3.08 2.81-2.17 2.17-2.09 2.18-2.08 2.17-1.81 1.72-1.82 2-3.89 4.26-.27.27-4.54 5.44-2.17 2.53-2.36 3-1.36 1.81-.18.36-2.08 2.9-1.45 2.09-1.99 2.99-.1.18-.9 1.45-.82 1.36-2.62 4.89-.64 1.36-2.9 5.98-.91 2.09-.54 1.26-.72 1.82-1.63 4.44-1.55 4.62-1.35 4.17-.37 1.27-.63 2.17-.91 3.17-2.53 8.7-.55 1.73-.54 1.99-.73 2.9-.54 2.9-.09.45-.36 2.27-.37 2.9-.09.81-.09 1.45-.18 1-.18 2.27-.18 3.62-.27 3.17-.18 3.9-.55 6.71-1.72 23.01-.36 5.44-.55 6.25-.63 8.25-.18 2.27-.27 2.81-.18 3.17-.1 1.45-.27 3.99-.18 1.9-.36 4.89-1.09 14.96-.18 2.17-.27 3.26-1.54 21.94-.09.54-.46 7.88-.09 1.91-.18 2.9-.09.72-.09 2.63-.18 2.63-.27 2.44-.09.82-.18 1-.19.81-.36 1.81-.45 1.91-1.18 3.8-1.81 4.99-.64 1.81-1.08 3.08-3.36 9.16-7.7 21.29-1.36 3.63-1.08 2.63-.37.9-1.08 2.54-1.82 3.99-1.72 3.44-.72 1.27-.46.91-.54 1.36-2.36 4.71-1.45 2.9-3.44 6.98-4.08 8.15-2.9 5.89-.9 1.72-1 2-1 1.99-.81 1.72-1.27 2.54-1.72 3.54-2.54 5.16-1.63 3.17-.91 1.82-1.72 3.44-.72 1.63-1.18 2.36-.64-.27-.63-.37-1.54 3.17-.64 1.27-.54 1.09-.91 1.72-.81 1.72-1.27 2.45-1 2.09-1.54 3.17-1.18.09-.81.09-1.09.09-1.27.09-.72.09-3.08.36-2.9.37-7.52.63-1.18-6.34-1.18-4.9-2.08-6.34-.37-3.08v-14.5l-.27-2.18-.27-.81-.54-1.36-1.18-1.45-1.72-1.45-3.63-2.09-13.59 5.44.63 5.71.37 1.09.36.9.9 2.36.19.63v.64l-.19 1.9-1.17 3.26-.55.46-.63.27-.64.27h-3.62l-2.81.18-1.72.36-.36-1.26-.82-1.27-.54-.46-1.63-.63-2.99-.54-3.54-1.27-1.81-.82-2.72-1.54-3.08-2.08-1.9-.28-1.54.1-1.09.27-.64.36-.09.63.28 4.35-1.73 5.8-5.98-2.26.18.54-.09.82-.45 6.7-8.43-.81-.36 6.25-.27.18-.18.46.72 7.52.27 2.9.28.45 1.45.27 8.42-.99.73-.46.27-.45 1.36-.27-2.27 11.51-1.26.27h-1.82l-6.25-.09-.81.18-.64.54-.91 1-.09 1.9.19 1.36.54 3.72-.09 2.08-.36 1.54-1.36 3.18-1.36 3.35-.37 1.72.1 2.27.27 1.17.81 2.09 2.72 4.17.55.81.81 2 .09.36-.09.27-1.54.45-4.35.82-6.61.72h-2.63l-5.53-.54-2.54-.36z" stroke-linejoin="round"/></defs><use xlink:href="#a" fill="#cee3e4" stroke="#cef5f5" stroke-width="5.76"/><defs><path id="b" d="M683.71 2782.91l-3.36 7.71-1.08 3.26-1.45 4.62-1.45 5.89-.91 4.62-.36 2.45-.09 2.45.27 5.43.91 7.98.72 6.98.55 6.25-.19 4.17-.81 3.53-2 3.54-4.07 5.16-3.81 2.99-3.9 2.45-4.07 2.45-6.35 3.08-5.52 2.36-3.72.9-1.99.45-3.81-5.52-1.99-2.54-2.45-4.26-2.36-6.16-1.99-7.25-2.17-14.68-.64-4.44-2.72-11.33 5.53-5.17 3.9-3.71 8.24-7.89 2.72-2.63 10.33-9.78 7.07-6.71 23.02 3.35z" stroke-linejoin="round"/></defs><use xlink:href="#b" fill="#cee3e4" stroke="#cef5f5" stroke-width="5.76"/><defs><path id="c" d="M1777.73 2272.69l-3.62.46-.73.09-2.99.27-2.45.36-1.81.18-4.8.46-2.9.36-8.79.91-14.05 1.44-16.4 1.82-22.2 2.35-3.35.37 1.45-6.71-1.72-8.07-2.81-13.14-.64-2.81-.18-1.35-.18-2.09v-1l-.18-1.45-.09-1.81-3.08-24.11-.27-1.81-2.18-17.13-.36-2.99-1.45-11.14-3.81-33.26-8.52.99-6.43.82-6.98.54-6.34-3.62-.73-.64-.36-1.08-.72-6.26-2-19.75.09-1.27.46-1.09.45-.27.54-.27.19-.09.81-.18 3.54-.37 4.07-.45 1.27-.45.73-.37.54-.36.54-.72.46-.64.18-.63.27-1v-3.17l-2.36-.09-21.38.09.09-8.07v-8.61l-1.81-.54-3.54-1.36.18.55-.09.54-.27.36-.36.27-1.18.18-17.4-3.26-4.89-1.09-6.25-2.08-1-.73-.54-.36-.46-.72-.27-1.09v-3.35l-.09-5.17-.18-.63-.54-.73-.55-.36-.9-.18-8.16.81-13.96 1.63-13.5 1.55-.54.09-1.45.63-.54.36-.73.64-.63.63-1.36 1.63-1-.9-.54.18h-.46l-.54-.09.18-1.18.36-2.54.64-2.72.36-.45.36-1.81 2.36-10.42-3.26-.46-13.23.18-.55-.09-.27-.18-.27-.09-.18-.18-.73-.45-.72.72-2.81-.9-.45.54-.46.36-.36.18-.54.18-5.44-.18-2.08.09-2.81.18-2.72.19h-1.27l-.27-.09-.64-.19-1.27-.81-5.7-5.17-5.8 7.25-.37.37-.18.18-.54.27-.55.18h-.72l-.63-.18-.28-.18-.27-.09-.63-.46-.64-.54-.54-.45-7.25-8.43-10.78-12.05-2.36-2.72-6.34-7.07-3.27-4.08-4.71-4.35-3.71-4.26-3.45-6.16-5.98-12.42-5.8-13.86-5.07-11.06-.64-2.17-.18-1.55-.63-3.26-.18-1.9.09-2.63.45-2.35.45-1 5.71-9.7 3.45-5.16-2.72-16.5.45-3.08.18-2.9 1.54-37.25 1 1.09.45.45.37.55.36.72 2.63 5.62.81 1.27.36.45 7.71-6.79 2.99-7.62 2.99-7.79.63-2.17 1.09-7.71 2.36.37-.73 4.71 37.61 5.44 7.7 1.81 1.72-6.8.09-.36 3.35-4.17v-4.35l.46-5.53 1.54-11.78 3.17-19.3 1.27-7.98 21.84 3.72 12.41 8.24 1.09 1.09 3.26 3.08 3.81 3.72 12.32 14.32 4.98 5.8 1.73-.55 1.45.09 1.72 1.45 3.08 4.63 2.99 3.62 1.9 3.17.91 2.9-.18 1.27-.73.64-2.53 1.81-.19 1 .37 1.35.9 1 4.08 5.17 13.14 15.04 10.42 6.89 11.42 4.26 13.5 8.15 18.85 23.39-5.98 1.63-1.36.54-.82.64-.45 1.17-.09 2.99 3.62 1.45 6.44 2.63 29.63 6.71-5.8.09 5.8 1.36 1.36.27 30.08 1.81 4.81 1.63.81-.72 3.99-2.63 5.8-5.89 2.26-1.9 7.71-4.44 1.27-1.18 2.99-.55 15.76 4.63.73 1.17 7.97 11.69.64 1.27 3.35 6.26 1.81-1.18.46-.18.81 1.45 4.44 8.52 12.23 24.19 3.54 7.07 2.35 4.26.37.45.18.19h.45l.45-.09 8.34-4.72 5.17-2.17 11.32 21.48 5.26 5.98 13.86 11.05.64 5.98.54 5.8 2.54 23.48-.09.54-.18.73-.27.36-.73 1.81-.63.63-.55.46-1.18.36-3.35.45-8.52.55-5.61.27-5.44.63-3.99-.09-.54.09-3.26-.63h-1.18l-1 .36-.72.36-1.45.82-.82 1-.18.45-.36 1.18-.37 1.54 2 7.61.63 3.17 2.36 24.2.9 7.7 1.27 7.62 1.91 12.77.9 12.06-.09 1.9-.18 2.72 2.18 2.9 2.26 2.72 8.07 7.34 2.26 2.35 12.14 19.4 11.78 7.7 4.9.09 1.54 1.9-3.36 3.54-.54.63-2.26 2.36-4.35 4.44-1.91 1.99-1.9 1.91-1.27 1.27-1.45 1.36-3.89 3.53-3.45 2.99-3.62 2.81-3.9 2.81-2.72 1.99-3.35 2-1.27.72-2.54 1.36-4.17 2.18-4.71 1.99-1.9.81-1.27.55-3.99 1.45-5.25 1.63-3.72.91-2.81.63-1.45.36-1.17.18-2.09.37-2.63.36-.72.18-2.63.27-1.18.18-1.08.09-4.08.55-6.35.81-.81.09-4.08.55-5.89.81z" stroke-linejoin="round"/></defs><use xlink:href="#c" fill="#cee3e4" stroke="#cef5f5" stroke-width="5.76"/><defs><path id="d" d="M1053.43 2754.09l-.73-2.44-1.81-6.08-1-3.89-.81-3.36-.46-2.89-.45-3.27-.27-1.81.09-.91-.18-.9-.73-1.54-.63-.82-.36-.27.72-1.27 1.72-3.44 1.82-3.99 1.08-2.54.37-.9 1.08-2.63 1.36-3.63 7.7-21.29 3.36-9.16 1.08-3.08.64-1.81 1.81-4.99 1.18-3.8.45-1.91.36-1.81.19-.81.18-1 .09-.82.27-2.44.18-2.63.09-2.63.09-.72.18-2.9.09-1.91.46-7.88.09-.54 1.54-21.94.27-3.26.18-2.17 1.09-14.96.36-4.89.18-1.9.27-3.99.1-1.45.18-3.17.27-2.81.18-2.27.63-8.25.55-6.25.36-5.44 1.72-23.01.55-6.71.18-3.9.27-3.17.18-3.62.18-2.27.18-1 .09-1.45.09-.81.37-2.9.36-2.27.09-.45.54-2.9.73-2.9.54-1.99.55-1.73 2.53-8.7.91-3.17.63-2.17.37-1.27 1.35-4.17 1.55-4.62 1.63-4.44.72-1.82.54-1.26.91-2.09 2.9-5.98.64-1.36 2.62-4.89.82-1.36.9-1.45.1-.18 1.99-2.99 1.45-2.09 2.08-2.9.18-.36 1.36-1.81 2.36-3 2.17-2.53 4.54-5.44.27-.27 3.89-4.26 1.82-2 1.81-1.72 2.08-2.17 2.09-2.18 2.17-2.17 3.08-2.81 5.89-5.35 4.08-3.71.45-.46 3.18-2.81 1.35-1.27 1.45-1.35 1.36-1.82 1.54-2.17 1.27-2 .64-1.08.54-1.63.45-1.45.37-1.36.27-.82.09-.72.36-2 .64-3.53.63-3.81.18-1.18.27-1.27.73-3.62.72-4.08.55-2.26.36-1.91 1.45-6.07.36-1.63.45-1.63.46-1.54.81-2.36.46-1.63.63-1.72.36-1 .27-.72.55-1.45.81-1.82 1.27-3.08.82-1.72.36-.72.27-.64.46-.9.54-1 .45-.91 1-1.99.91-1.81 1.54-2.63 3.62-6.71.45-.72.55-.91.99-1.27 1.73-2.17 1.81-1.91 1.27-1.27 2.72-2.53 2.62-2.54 1.36-1.18 2.36-2.36 1.81-1.72.82-.72 2.08-2.36.63-.72.46-.64 1.09-1.36 1.45-2.26.45-.55.36-.54 2.45-4.62.72-1.27 2.18-4.17 1.9-3.44.45-.82 1.54-2.81.37-.81 2.62-4.81 2.54-4.26 1.18-1.81.27-.45 1.54-2.09.55-.72 1.35-1.72 2.45-2.9 2.54-2.72.81-1 .55-.63 1.09-1.18.09-.09 1.72-1.9 2.81-2.91 4.35-4.8 11.41-12.5 2.36-2.45.18-.27 3.17-3.36.82-.99 4.08-4.63 1.99-2.35 1.81-2.27 1.63-1.99 3.72-4.44 5.71-7.25 2.17-2.9 2.99-4.17 2.99-4.71 1.63-2.72 1.64-2.9 4.8-9.43 1.72-3.26 1.99-4.08.73-1.36.72-1.36 2.99-5.98.73-1.36 1.81-3.62.54-1 2.18-4.35 1.72-3.26 1.72-3.26 2.18-4.17 2.72-4.9 2.62-4.62 1.45-2.63.64-.9 2.63-3.72 1.72-2.26 2.54-2.99.27-.28 3.62-4.35 6.07-7.43 1.09-1.27 1.81-2.17 2.45-2.9 1.27-1.72 1.9-2.63 1.18-1.81 1.36-2.45.9-1.81.91-1.72.36-.82 2.72-5.44 3.26-6.61 4.35-8.88 1.45-3 .37-.72 1.9-3.81 1.45-2.62 1.72-2.99.82-1.36.81-1.27.64-.73.81-.9.73-.82.81-.82 1-.99 1-.09.36.09h.36l.36.09.55.18.45.45 1.45 1.91.72 2.08.55 1.54.27.91 1 2.9 3.08 8.79 1.45 1.09-3.81-10.88-2.26-6.43 3.35-1.09 3.26-1.36 2.18-1 1.54-1.36 1.99-4.62 8.7-2.45.09.28 2.99-.37-1.09-6.52-1.17-7.8-.19-.54-.09-.27-.18-.18-.27-.09 3.44-4.26 5.26-6.07 1-1.18.72-.64.82-.63.72-.54 1.09-.64 1-.45 1.26-.64 1.09-.36 1.54-.54 2-.55 2.9-.54 4.89-.91 2.45-.45-.28-.72-.63-2.72-.63-3.18-.19-1.35-.09-.46-.18-.9-.18-1.45-.27-1.73-.09-.72v-.54l-.27-2.9-.18-2.54v-1.54l-6.17.81-2.99.27-2.26.37h-1.63l-9.52 1.17-12.32 1.55-9.06.99-2 .27-1.99.19-1.09.18-1.09.09-7.52.99-1.72.37-.81.27-.73.63-.36.82-.18.81 1.08 11.7 1.09.18 8.61 4.07 9.24 6.71 5.17 2.45 4.89 2.9 1.63.9 2 1.09-2.18 2.63-2.9 3.53-4.53 5.35-1 1-1.72 1.72-1.9 1.54-1.45 1-.54.36-1.36.91-1.45.99-2.54 1.63-1 .55-.27.27-.45.36-.18-.36-.09-.36-.46-1.18-.63-1.81-1.54-4.26-.82-2.63-1.36-3.72-1.26-3.35-1.27-3.72-1.91-5.43-1.81-5.44-.63-1.72-2.27-6.16-1.72-4.99-1-2.99-1.9-5.53-1.36-3.99-1.54-4.35-2.45-6.97-.54-1.54-.54-1.45-.55-1.55-.27-.63-.18-.63-.45-1.45-.46-1.09-.27-1-.45-1.45-.45-1.63-.37-1.45-.36-1.63-1.18-5.44-.27-1.54-.36-2.63-.46-2.72-.18-2.44-.18-2.09-.09-1.54-.18-2.35v-5.26l.09-4.53.18-2.81.18-1.27.09-1.09.19-1.63.09-.99v-.1l.18-.72.36-3.08.54-2.54-1.08-.27-.64-.09-.72-.18-10.42-1.73-.46-.09-3.44-11.41-.09-.46-.91-2.9-.27-1.09-.09-.27-.18-1.27-1-1.72-.63-1.36-3.08-9.15v-.91l.18-.81.54-.36.64-.37.9-.54 2.36-1.99.81-.09.73.36 3.53 2.99 1.09.63 1.18.36 3.17.55h.91l.9-.18 4.08-1.36 1.63-.55 1-.18.72.37 1.27 1.17 1.99 2.36.19.91-.09.72-.55 1.63-.45 1 .09 1 .36.81.45.45 1.18 1 1.54.64 1.91-3.63.81-1.72 1.27-2.18.54-.99 1.18-1.82 1.18-1.99.54-.72 1.09-1.54 1.18-1.73.18-.18 1-1.36 2.17-2.72 1.27-1.35 1.63-1.73 2.45-2.62 2.45-2.36 2.53-2.18 2.63-2.08 2.63-2.08 1.36-.82 1.63-1.18.45-.27.27-.18 1.91-1.18.9-.54-.27-.55-1.09-2.26-.54-1.18-.36-.54-.55-.82-.54-.73-.72-.9-1.27-1.63-1.27-1.82-.82-.99-.81-1.27-.64-1.36-.45-1.36-.36-1.72-.18-1.72-.19-2.45-.27-3.35-.36-2.54-.18-1.72-.18-1.91-.64-2.17 3.45-.82 2.62-.99 4.08-2.27 2-.72 2.17-.64 8.88-3.17v-1.72l-1.99-2.18-1.27-1.45-1.09-1.45-1.36-1.54-2.9-2.99-3.8-4.53-3.81-5.53-2.17-3.62-2.99-5.35-.55-2.17-.18-.91-.36-1.99-.09-.73.09-.54v-.64l-2.81-6.89-2.27-5.43-4.07-8.52-1.09-2.09-1.9-3.53-1.09-1.9-4.9-8.61-1.54-2.36-.45-.72-7.61-9.52-3.63-4.62-3.98-5.35-2.27-3.71-.81-.64-.91-.27-.54.09-11.78 1.18-.37-1.72-.09-1.09.82-3.08-.82-1.18-.18-.27-2.44-4.26-.73-2.45-.91-2.45-.63-1.36-.45-1.26-.28-.64-1.26-2.44-1.27-2.36-1.54-2.81-1.63-2.81-1.18-1.99-1.72-3.18 2.53-1.26 1.82-.73 4.16-2.17.28-.55.09-.36.09-.36v-1l-.09-1.27-1.36-13.14-.73-6.8v-1.45l.09-.99-.99.36-.46.09-.81.18-.64.09-1.17.18-1.91.18-2.35.28-2.09.18-2.99.36-1.27.18-2.17.27-.27-1.08-.91-3.99-1.81-7.07-1.91-8.16-.63-2.9-.63-2.81-.46-2.53-.09-1.45-.09-.82-.09-.72.82-2.54.36-.36.45-.64.82-.54.72-.64.73-.54 1.45-1 3.71-.18 1.27-.09h.91l.72-.09 7.34-.54-.54-4.08-.82-5.8-.27-3.17-.18-1.73-7.88.91-1.63.54-2.45.28-5.62 1.72.27-1.36.64-2.9.45-1.18.72-1.81.82-1.9 1-2.63-.73-.18-.63-.37-.64-.36-.45-.36-.45-.46-.27-.45-3.09-4.17-4.16-5.52-1.18-1.64-6.98-8.7-4.98-6.16-3.54-4.35-4.71-5.53-4.62-5.07-2.63-2.81-1.81-1.99-1.36-1.45-2.45-2.63-2.44-2.72-2.63-2.36-5.17-4.53-7.43-6.25-1.08-.82-.91-.54-7.88-2.99-3.45-1.45-1.81-.73-4.89-1.81-1.18-.54-1.45-.91-1-.72-1.18-1.09-.81-.73-.82-1.09-.9-1.17-6.53-9.34-.9-1.27-.55-.72-2.63-3.63-1.9-2.81-1.99-3.26-1.63-2.9-.18-.36-1.36-2.63-2.09-4.08-1.63-2.72-4.8-8.24-1.81-2.99-3.45-6.44-.45-.72-.73-1.18-4.16-7.43-2.63-4.44-.46-.82-1.45-2.63-1.63-2.72-2.35-3.98-1.91-3.27-2.53-4.16-3.26-5.08-1.55-2.63-2.26-3.62-2.27-3.35-3.17-4.72-2.63-4.08-1.72-2.71-2.99-4.72-1.09-1.54-.9-1.18-2.27-2.8-1.99-2.36-3.35-3.72-.64-.81-2.72-3.17-.54-.73-1.18-1.54-3.08-4.62-3.26-5.44-.45-.91-.55-1.17-.36-.91-2.54-5.8-1.18-2.63-2.08-4.8-1.27-3.17-2.9-7.34-2.81-7.25-1.18-2.99-.9-1.82-.64-1.08-.63-.91-.73-.73-.99-.9-1.09-.73-1.54-.81-2.45-1.18-1.45-.82-1.36-.9-1.26-1.09-1.91-1.63-1.72-1.9-1.72-2-1.63-2.08-1.54-2.09-1-1.18-.81-.9-1-.73-.64-.45-1.81-.81-5.16-1.18-1.54-.37-10.79-2.08-1.18-.27-7.79-1.63-3.71-.82h-.55l-.81-.18-.27-.27-.19-.09-1.26-.27-9.25-2-1.45-.36-3.35-.73-2.81-.63-2.17-.54-2.27-.37-1.99-.36-3.72-.54-1.63-.18-.91-.09-20.2-4.26-2-.37-2.53-.45-4.9-1.09-2.9-.63-.81-.18-.28-9.16-3.17-36.15 39.78-15.14 1.09-.45 1.09-1.45 1.45 1.27 3.44 2.53 2.54 1.91 1.63 1.18 1 .72.81.54 5.17-2.17 18.76 10.69 2.17-1.36 3.63-2.17.72 6.52 4.08 1.82.81-2.09.91-2.17.27-.55.55-.45.72-.45 1.09-.37 1.18-.36 4.16-.45 1.18-.27 1.18-.46 1.27-.81 1.45-1.36.91-1 .45.36 1.09.18h1.63l13.77-1.17 1-.09.63-.18.73-.19 1.08-.63.28-.36.45-.91.09-.81-.54-5.99-.19-1.08-.09-.73-.18-.54-.27-.46-.45-.54-.18-.27-.37-.36-.72-.19-.54.28-5.89 5.71-.64.45-.63.18-1.72.27-3.18.18-1.36-.09-1.72-.45-.63-.09-.55.27-4.8-3.53-2.81-2 .46-.54.18-.64-.09-.72-.09-1.18-.09-.72-.19-1.54 14.14-1.27 3.9-.09-.28-4.9-1.17-10.15-1.09-4.8h.54l.18 1.63.64 2.9 1.09 2.9.72 1 1.27 1.36 6.07 5.07.82.91.72.72 1.09 1.45 1 2.36.63 1.81 1.9 6.71.18 1.09-.27 1.08-.36 2.63-1 4.71-.81 3.45-.27 2.17-.55 4.81-.54 3.35-.27 2.08-1 4.72-.36 1.36-.46 1.63-.36 1.45-.36 1.45-.18.63-.09.36-.27.64-.19.54-.36.64-.27.36-.27.45-.27.45-.28.46-.18.54-.63 1.45-.73 1.91-.81 5.7-.36 3-.09 2.17-.37 1.81-.63 1.36-.91 1-1.63.91-.72.27-1 .45-1.09.72-.81.82-1 1.63-1.36.91.91.36 4.07 1.72 3.18 1.45 4.98 1.91 2.63.81 2.35.73 1.09.36 1.81.09h5.35l3.26-.54 10.6-2.45 4.17-.73 3.99-.09 4.17.64 3.71.72 4.81 1.91 2.72 1.54 3.44 2.44 1.81 1.63.91.82 3.08 3.44 1.18 1.45 1.08 1.54 2.81 6.8.91 1.36 2.45 4.08.99 1.54 1 1.18 2.26 2.54 2.54 2.44 5.53 5.26 2.17 2.54 2.54 3.35 1.72 2.17 1.63-.09 7.43-.18h2l1.45.09 1.72.18h1.27l1.81-.27.54-.09.46-.27.54-.27.18-.18.37-.37.63-.54.45-.54-.9-1.18-.55-.82-.54-.9-.36-.55-.37-.72-.27-.46-.18-.54.54-.18.28-.18.36-.09.45-.09h1.27l7.7-.55 12.87-1.72 1.63-.18h1.81l1.36.36.37.09.9.46 1.36.9 1.27 1.18.63.82.46.63.54 1.45 1.45-1.54 1.54-1.99.45-.82.37-1 3.71 1.54 1.36.64 2.36 1.09 15.49 6.88 4.44 1.91 8.61 3.98.46.1 1.17.54.46.18 3.44 1.54.91.36 2.99 1.36 1.27.46 1.08.45.37.18 1.17.45.55.18 3.08 1.27 2.35 1.09 3.54 1.36.81.36.91-.09 2.63 1.09 2.99 1.36 2.26 1 .91.45 3.62 1.54 3.09 1.36 1.63.72 1.81.73.54.81 2.18 1 .9.45 3.08 1.64 2.09 1.08 2.17 1.27 5.8 3.63 6.98 4.71 1.27.91 1.18.9 2.99 2.27 1.54 1.27 1.63 1.36 1.18.99 2.81 2.63.36.27 1 .18 6.97 6.44 1.91 1.81 6.7 6.25.91.91.99.82 1.73 1.63 1.45 1.45 6.61 6.16 4.17 3.99 1.99 1.9 1.91 1.72 6.34 6.07 1.18 1.18.99.91 1.91 1.72.63.63 1.36 1.27.73.73.72.63.54.46 2.27 2.26 1.81 1.54 5.71 5.53 1.36 1.18.54.54.82.82.27.27.36.27 2 1.9 1.27 1.18 1.17 1.18 1.09 1.09 1.9 1.81 1.73 1.45 3.71 3.44 1.18 1.09 8.16 7.8 3.35 3.17 7.16 6.7 2.53 2.45 1.64 1.54 4.07 3.81 1.63 1.45 3.9 3.71.82.82 2.62 2.35 2.72 2.54 1.91 1.91.9.81 7.07 6.62 1.9 1.72 4.53 4.35.37.36.36.82 1.27 1.45 7.43 7.16 1.81 1.81 1 1.09.63-.91.36-.45 2.54 2.53 1.27 1.09 1.18 1.18 1.09 1.09-.91.18-1 .09 1.54 1.45.46.36 3.17 2.99 2.63 2.54 1.26 1.09 3.54 3.35 1.72 1.54 4.53 4.17 2.45 2.27 1.08.99 5.71 5.35 1.09.27.36.27 3.99 3.9 3.81 3.81 3.08 3.35.45.45.36.46 3.99 4.8 1.27 1.72 1.63 2.09.82 1.26 2.35 3.36 3.26 5.25 4.72 8.25 1.08 1.9.64 1.18.81 1.54 1 1.72 2.81 5.17.91 1.63.81 1.54.64 1.09.54 1 1.99 3.44.46.81-.09 1 .09.36 2.9 5.26.63.09-.36-.54-.37-1.36-.09-.36-.18-.46-.09-.45-.36-1.09 2.45 4.44.9 1.36.37.55 1.45 2.53.09.28.45.72 1.09 1.99.81 1.36.36.82.37.63 1.27 2.45 1.63 2.81 2.53 4.62.46.82 1.08 1.9 1.45 5.53.73-1.45 2.36 4.35.27.45 2.35 4.44.64 1.18 2.35 4.08 1.73 3.08v1.45l1.35 2.54.64 1.27 1.36 2.35 2.54 4.71 1.17 1.91.55.99 5.25 9.34 4.71 8.43 1.09.72 1.54 2.54 2.9 4.44 3.99 7.7 2.99 5.26.18 1.72.36.73.73 1.36.63 1.08.46 1.09.72 1.36.73 1.18.81 1.63 2.09 3.9 1.35 2.53 3.54 6.44.27.45.45.91 1.27 2.26 12.69 22.75 1.9 3.35 2.45 4.53 3.08 5.44 3.71 6.71 1.09 2.17 4.71 8.25 6.98 12.78 5.53 9.79 13.23 23.83 1.45 2.72 1.9 3.44.64 1.18 3.53 6.34 1.18 2.18.36.72.36.64.37.63.54.91 1.99 3.62 1.54 3 2.54 4.34.64 1.27 1.72 2.99.63 1.18 2.18 3.9.45.82 1.54 2.9 8.07 14.68 5.61 9.96.82 1.64 1 1.63 3.17 5.8.54.99 1.27 2.18.82 1.54 5.7 10.15 4.08 6.98.82 1.54.63 1 .64.36.63.81.73 1 2.44 3.99-.09 1.63 1.36 2.08 2.08 2.72.82 1.27.18.09.82.36 2.17 2.72 6.16 7.52.46.46 7.25 8.25 1.45 1.63.54.72.63.64.91.99 2.18 2.54 1.54 1.72.81.91 2.72 2.99 8.61 9.51 4.62 5.17 1.18 1.27 4.98 5.62 1.81 1.99 7.25 8.16 5.71 6.43 2.18 2.45 1.99 2.26 1.09 1.18 5.16 5.8 6.62 7.43.81.82 2.09 2.45 2.17 2.44 2.54 2.9 1.9 2.09 1.54 1.63 1.18 1.36 3.99 4.44 1.09 1.18.81.9 11.96 13.32 4.26 4.9.55-.64 11.41 12.87 2.81 2.9 4.62 5.17 1.73 1.72 3.53 3.9 22.56 26.37 2.99 2.63h.64l-.45 1.27 1.63 1.81 2.81 3.17.99 1 .82.99.9 1 4.9 5.53 2.17 2.36 3.17 3.44 1.73 1.99.45.46 1.72 1.99-1.63 1.81-15.95 13.05-3.44 3.08-4.53 3.81-.64.45-1.54 1.27-3.17 2.9-6.8 6.07-2.99 2.63-1.99 1.72-6.34 6.44-10.51 11.33-.91.63-.63 1.09-3.72 3.26-1.18 1.63-.45.46-1.27 1.44-2.99 3.36-3.08 3.53-1.81 1.72-.28.37-.99 1.08-1.54-1.9-4.9-.09-11.78-7.7-12.14-19.4-2.26-2.35-8.07-7.34-2.26-2.72-2.18-2.9.18-2.72.09-1.9-.9-12.06-1.91-12.77-1.27-7.62-.9-7.7-2.36-24.2-.63-3.17-2-7.61.37-1.54.36-1.18.18-.45.82-1 1.45-.82.72-.36 1-.36h1.18l3.26.63.54-.09 3.99.09 5.44-.63 5.61-.27 8.52-.55 3.35-.45 1.18-.36.55-.46.63-.63.73-1.81.27-.36.18-.73.09-.54-2.54-23.48-.54-5.8-.64-5.98-13.86-11.05-5.26-5.98-11.32-21.48-5.17 2.17-8.34 4.72-.45.09h-.45l-.18-.19-.37-.45-2.35-4.26-3.54-7.07-12.23-24.19-4.44-8.52-.81-1.45-.46.18-1.81 1.18-3.35-6.26-.64-1.27-7.97-11.69-.73-1.17-15.76-4.63-2.99.55-1.27 1.18-7.71 4.44-2.26 1.9-5.8 5.89-3.99 2.63-.81.72-4.81-1.63-30.08-1.81-1.36-.27-5.8-1.36 5.8-.09-29.63-6.71-6.44-2.63-3.62-1.45.09-2.99.45-1.17.82-.64 1.36-.54 5.98-1.63-18.85-23.39-13.5-8.15-11.42-4.26-10.42-6.89-13.14-15.04-4.08-5.17-.9-1-.37-1.35.19-1 2.53-1.81.73-.64.18-1.27-.91-2.9-1.9-3.17-2.99-3.62-3.08-4.63-1.72-1.45-1.45-.09-1.73.55-4.98-5.8-12.32-14.32-3.81-3.72-3.26-3.08-1.09-1.09-12.41-8.24-21.84-3.72-1.27 7.98-3.17 19.3-1.54 11.78-.46 5.53v4.35l-3.35 4.17-.09.36-1.72 6.8-7.7-1.81-37.61-5.44.73-4.71-2.36-.37-1.09 7.71-.63 2.17-2.99 7.79-2.99 7.62-7.71 6.79-.36-.45-.81-1.27-2.63-5.62-.36-.72-.37-.55-.45-.45-1-1.09-1.54 37.25-.18 2.9-.45 3.08 2.72 16.5-3.45 5.16-5.71 9.7-.45 1-.45 2.35-.09 2.63.18 1.9.63 3.26.18 1.55.64 2.17 5.07 11.06 5.8 13.86 5.98 12.42 3.45 6.16 3.71 4.26 4.71 4.35 3.27 4.08 6.34 7.07 2.36 2.72 10.78 12.05 7.25 8.43.54.45.64.54.63.46.27.09.28.18.63.18h.72l.55-.18.54-.27.18-.18.37-.37 5.8-7.25 5.7 5.17 1.27.81.64.19.27.09h1.27l2.72-.19 2.81-.18 2.08-.09 5.44.18.54-.18.36-.18.46-.36.45-.54 2.81.9.72-.72.73.45.18.18.27.09.27.18.55.09 13.23-.18 3.26.46-2.36 10.42-.36 1.81-.36.45-.64 2.72-.36 2.54-.18 1.18.54.09h.46l.54-.18 1 .9-1.18.37-1.27.36-4.17.99-1.27.82-1.36.91-.99.63-2.18 1.45-4.44 2.99-.81.55-1.27.81-.73.55-1.17.54-.19.54-.45.46-.81.72-1.73 1.63-14.4-11.24-.64.91-.27.63-.27.82-.37 1.63-1.72 6.98-.45 1.9-.27 1.18-.09.36-.09.73-.09.9v.91l.09 1 .09 1.18.9 6.25 1.45 10.97.55 3.17-.27.72-.46.64-.72.27-1 .36-8.52.73-10.51 1.36-6.52.81-2.36.36-9.24 1.18.45 4.53.54 5.53.73 6.8.45 4.08.55 4.44.72 5.34.82 5.8 1.81 14.23.72 6.53.82 7.7.36 2.63.73 6.89.54 4.98.45 4.35-1.36.09-1.54.18-1.63.18-2.08.18-3.08.46-1.18.09-1.63.27 1.63 3.72.54 1.35.73 1.55 1.45 3.53.45 1.09.45 1.27.82 1.9.18.54.27.55 3.17 7.61.73 1.72 1.99 4.71-.45 1.45-1.99 4.44-1.18 2.45-.91 2.18-.45 1.26-.27.64-.91 2.81-.45 1.54-.55 1.72-.99 3.81-.27 1.63-1.45 6.61-.91 4.35-.54 2.99-.37 1.36-.36 1.09-.45 1.09-.55 1.18-.63 1.08-1 1.82-1.9 3.35-1.81 3.17h-.09l-1 1.72-1.99 3.18-.73 1.17-.63 1.09-.73 1.18-1.08 1.81-1 1.72-.64 1.18-.54 1.09-1.09 2.27-.63 1.54-1.18 3.17-.27.63-.73 2.27-.72 1.99-.45 1.36-.46 1.63-.36 1.54-.91 4.17-.63 2.99-1 4.8-1.9 8.07-.63 2.45-1.18 4.17-1.45 4.62-.91 2.44-1.18 2.81-1.17 2.9-1.73 4.08-.63 1.63-1.45.64-.45.27-1.63.54-.91.28-1.09.27-1.09.18h-1.9l-1.63-.18-2.54-.27-4.89-.46-2.18-.18-1.81-.09h-.99l-1.18.09-1 .27-.91.18-1.26.55-1.27.81-1.09.91-.82.91-.81.99-1.09 1.63-1 1.82-1.45 2.72.1.36.18.72.09.64v.72l.36 3.54.27 4.35.18 2.44 1.18 12.96.18 2.18-1.36.09-3.17.45-2.72.27-4.26.55-.99.09-.91-.09-.63-.27-.55-.37-.54-.63-.45-.64-.37-.81-.18-.91-.18-.99-.18-1.54-.36-3.18-.27-3.62-2.72.27-2.99.45-2.81.37-1.72.27-.46.09-.81.09h-2.09l-.36-.09-.45.09h-.27l-.28.09-.63.27-.54.55-.64.63-.63.91-.64 1.17-.63 1.36-.55 1.36-.27 1.18-.27 1.54-.18 1.63-.18 1.72-.09 1.45-.09 1.91-.09 2.08-.09 1v1.81l-.19 3.44-.18 3.09-.18 1.72-.27 1.9-.45 2.09-.09.45-.28.54-.45 1.18.36.27.09.27.1.28.09.36.18 1.63.27 2.27 1-.09 1.81-.1 1.45.19 2.35.72.64.36.81.82 4.72 6.25 1.72 2.45 2.81-.91 2.9-1.27 2.72 6.26.09 2.26 2.08 12.69.36 2.9v1.36l-.18 10.06 1.27 6.25.45 4.71.55 5.8 2.26 7.07-4.8.55-5.08.72 6.26 14.14 3.89-.27 2.54-.27-.63 3.71-.64 6.34.09 1.36-.45 4.99-.09 8.43-.09 1.9-1.27 6.34v4.99l1.27 4.08-1.81.99-2.09 5.17-1.27 2.81-.72 1-5.8 1.44-.73.28-.45.54-.54 1.18-.46 1.72-.18 1.45-.18 3.99-13.59 3.99 1 11.23.63 1.45.63 1.18 1.45 1.09.64.45.63 8.52-.9.09-2.81.36-4.35.64-7.43.9-8.07 1-7.34.91-6.16.72-.54-4.26-.18-1.18-.37-2.08-.27-1.9-.9-5.89-.37-1.54-.18-.73-.18-.63-.18-.73-.36-.72-.55-1.36-2.9-6.53-1.63-3.62-3.8-8.25-1.09-1.99-.91-1.45-76.66 18.3-.45 5.89.09 3.36.36 3.71.45 1.63.64 1.09.54.54.73.37-.55.45-.27.09-.54.36-1.18 2.27-.27 3.44-.46 1.63.19 3.81-.55 1.72-.72 1.54-.55.73-1.17.99-1.18.28-1.82 3.08-2.62 1.63-7.07 4.08-1.9.72-.55 2.27-2.81.09-.45-.18-1.09.45-1.45.27-2.08.18-2.9-.72-.82-.18-2.08-1-4.26-.45-1.63-.18-2.45.36-.18.36-3.44.82-2.45.72-4.53 1-2.99.63-1.18.91-1.18.72-1.63.73 1.63 4.35.82 2.08 1.72 4.44.18.64 1.9 5.35.55 1.54 1.09 3.26 1.08 2.81.73 2.26.45 1.27.36 1.45.37 1.91.27 1.54.45 2.53.27 1.82.55 2.44.27 1.45.54.64.27.9.19 1.36.36 1.63.18 1.18-.18.55 1.09 5.71-1-.73-.55-.36-.81-.64-.82-.54-.9-.45-1.81-1-.64-.36-1.27-.55-1.72-.63-2.54-.82-.9-.18-1.09-.09h-1.99l-.91.18-.82.37-1.81.63-1.72.82-1.63.72-1.18.54-2.17 1.18-2.45 1.27-11.6 6.25-4.98 2.81-1.91 1-1.72 1-1.63.72-2.54.91-2.35.72-1.45.37-2 .45-1.26.27-1.09.18-1.54.18-1.63.18-2.72.1-2.99.09-9.88.18-4.26.09-.81.09-1.18.18-.73.09-.9.27-.82.18-.91.37-.99.36-1 .45-3.17 1.72-7.07 4.08-1.9 1.09-2.63 1.54-1 .54-.99.64-2.99 1.72-13.69 7.88-.72.46-1.81.99-1.82 1.18-2.35 1.36-2.36 1.36-3.44 1.99-1.9 1.18-3.63 2.18-8.34 4.62-1.08.54z" stroke-linejoin="round"/></defs><use xlink:href="#d" fill="#9dc8ca" stroke="#9dd7f0" stroke-width="5.76"/><defs><path id="e" d="M707.45 2765.97l-23.74 16.94-23.02-3.35 2.81-2.72 1.45-1.36 11.24-10.42 1.27-1.18 1.45-1.36.9-.9 3.17-2.99 1-.91 1.27-1.18 1.54-1.36-.36-.45 7.16-6.8 1.81-1.99.63-.64 8.07-8.52.63.82-.27-2.99-.18-2.45-.82-4.26-.63-1.9-.91-2.18-.9-1.54-1.64-2.17-1.45-1.45-1.9-1.99-4.17-4.99-4.26-4.98-3.62-3.54-6.34-6.88-3.9-3.72-.73-.73-.27-.36-.45-.63-.09-.37-.45-1.17.9.09h1.36l.91-.09h.54l1.63-.37 1.72-.45.91-.27-1.54-5.17-.91-3.17-.81-2.99-1.72-5.71-1.54-5.35-1-3.71-1.18-4.44-.9-3.08-1.09-3.63-3.99-13.41-2.36-8.25-.9-3.17-1.63-6.7-1.36-4.72-3.9-13.32-2.9-9.88-.72-2.54-1.18-3.89-.36-1.18-.46-1.36-.54-1.81-.45-1.27-1.45-3.99-2.36-7.43-3.17-9.7-1.09-3.71-.54-2.18-1.09-4.17-.63-2.35-.46-2.18-.81-3.71-2.27-.36-16.58-5.35-.73-3.17-1.54-5.35-1.63-5.71-3.44-11.06-4.35-7.07-1.9-5.52-.55-3.17.55-14.96 2.08-5.89 1.18-4.17 1.18-7.25.9-5.34 1.09-6.71 1.18-8.34.63-5.98.18-4.89.28-4.53.09-5.99-.28-4.71-.36-3.35-.45-3.08-.45-2.9-.82-2.81-1.27-2.9-1.63-3.54-3.08-6.07-4.71-9.15-2.27-4.17-.27-.45-.36-.73-5.44-11.33-4.53-9.42-6.62-12.51-1.99-6.79-.45-3.09-.55-2.8v-8.25l1.09-7.8 1.09-2.81 5.71-6.61 1.36-2.18.54-.99.18-1.63-.36-2-.73-1.9-1.81-2.18-22.65-27.09-.82-1.18-4.89-6.98-2.81-5.16-1.27-3.54-3.08-8.52-1-4.26 1.63-6.61.1-1.81-.19-1.91-.27-1.36-.36-1.36-.45-1.27-.46-1.26-.63-1.91-.54-1.63-.64-2.17-.45-1.45-.55-1.45-.54-1.36-.63-1.73-.82-1.63-.81-1.45-.73-1.36-.63-1.17-.82-.82-.82-.36-1.26-.27-.64-.46-.63-.9-.55-1.27-.54-1.63-.45-1.63-.64-2.63-.63-2.72-.45-2.09-.46-1.63-.99-3.08-1-2.81-1-2.63-1.36-3.53-1.54-3.81-.81-1.81-4.53-9.97-2.36-5.16-2.36-4.99-2.99-6.7-2.26-8.88.27-5.08-.63.72-.64.1-.81-.19-1.18-.54-.82-.36-20.02-9.7-.46-.09-.18.18-.09.09.09.18.09.19.55.45.36.45.27.45.18.37.09.54.09 1-.18 2.08-.09.64-.18 1.08-.18.55-.18.18-.28.18-.27.18-.36.09h-.72l-3.45-.09h-1.99l-.45.09-1.27.27-.55.19-5.62 1.99-.36.09-.45.09h-.45l-.28-.18-.18-.18-.09-.37-.54-4.89-.09-1.36.09-.54.09-.55.54-1.35.64-1.91.27-.72.09-.55v-.54l-.09-1.36-.18-1.99-.09-.82-.09-.36-.18-.27-.09-.28-.28-.36-.54-.54-1.81-1.63-.55-.64-.45-.54-.18-.55-.18-.54-.18-.81-.91-7.25-.36-2.72-.09-1.09v-1.99l-.09-2.72v-1.18l-.37-3.08-.36-2.99 1.18-.27 3.26-.55 3.63-.81 1.81-.37 2.17-.54 2.54-.82 1.54-.54 1.09-.45 2.26-.82 1.91-.81 1.81-.82 2.9-1.45 1.72-.91 1.72-.99 3.63-2.09 2.81-1.72-.82-3.17-.36-1.81-.73-2.72-.99-2.72-1.54-5.62.36-1.54v-1.45l-.27-7.25-.37-1.63-.63-2.18-1.81-3.44-4.44-11.06-9.97-18.39-1.72-3.9-16.86-32.44-2.08-7.07v-.37l-3.44-19.03 4.8-28.36-10.97-4.26-8.15-.09-.55-.46-2.62-3.35-.91-1.45-.36-1.36-.46-2.35-.54-.73-.54-.36h-.46l-.72.09-.73-.45-.63-1.45-3.26 3.71-2.18 1.54-1.81.82-1.99.63-4.08.82-2.27.45-2.44.36-4.9 1-2.35.63-2.27.73-1.81.72-2.17 1.18-2.27 1.36-6.98 4.9-.45.27-1.45 1.18-.91-1.45-.81-1.45-.55-.64-.45-.63-.54-.55-.46-.36-.54-.45-.63-.36-.82-.37-.91-.36-.63-.18-.54-.09-.91-.18-1.09-.18-3.71-.37-3.45-.27-5.25-.45-3.17-.36-3.27-.28-3.08-.27-1.17-.09-3.9-.36-2.99-.27-1.81-.09-2.81-.28-2.81-.18-2.09-.18-3.26-.27-2.35-.09-2.81-.18h-2.18l-.81-.09-.55-.09-.81-.18-.73-.37-.81-.36-.73-.27-.54-.36-.91-.64-.81-.72-.64-.55-.54-.54-1.91-1.81-1.26-1.45-.82-.64-.82-.9-1.26-1.27-1.63-1.54-.55-.73-.9-.81-.64-.64-.27-.27-.45-.36-.46-.18-.54-.37-.45-.18-.73-.18-.72-.18-1-.27-.91-.09-.99-.18-2.72-.09-2.63-.19-1.54-.09-1.99-.09-1.73-.18-1.45-.18-3.89-.45-4.26-.64-1.99-.27-.91-.18-.82-.09-.63-.18-.82-.27-6.97 55.01 1.72 2.9 1.45 13.14-47.49-10.33 3.09-20.67 14.68-88.18-.91-1.08-1.63-1.72-2.63-2.91-2.45-2.8-5.89-6.71-.9-1-1.18-1.36-1.36-1.54-1.18-1.63-.63-.81-.46-.55-.36-.45-1.09-1.54-.36.9-.27 1.64-1.36 3.35-7.25 11.6-45.4 15.5-1.81.18-1.45.54-3.62 1.18-1.27.36-.46.18-5.34 1.63-5.44 1.36-10.87 2.54-5.44 1.27-5.62 1.18-8.61 1.45-7.52 1.45-.91.27-3.71.81-1.9.55-.82.18-2.63.63-.09-.72.09-.73-.72.19.54-2.09-1.27-2.26 3.9-20.58 3.17-29.63 1.81-16.31-2.62-6.89-20.03-53.11-6.98-17.85 7.61-86.18.18-1.36.1.81 23.92 11.15 21.29 9.97 10.97-1.63 12.23-2.36-1.9-27.64 4.62-1.27 13.96-4.44 2.71-.91.55-.18.9-.27 7.25-2.26.55-.19 2.53-.81.37-.09.45-.09 1.36-.37 4.17-1.17 5.07-1.54 2-.64-.1-.81-.18-.91-1.08-5.35-.28-1.27-1.45-3.8-1.17-7.8-.37-2.72-6.61-25.37-50.29 16.31-1.54-1.9-2.72-.18-2.54.09-16.58 10.33-2.09-2.45-3.44-3.08-3.26-3.08-12.87-10.51-3.53-3.54-1.18-1.9-.27-2.17-.1-.55.1-.45.09-.45.27-.73.36-.81.18-.91-.09-.82-.36-1.36-.45-2.08-.28-1.72-.18-1.36-.27-3.08-.18-3.9-.18-1.63-.09-1.09-.09-.81v-2.45l.09-.54.09-.73.09-.63v-.55l-.09-.63-.09-.55v-.99l-.27-.73-.28-.72v-.73l-.09-1.18-.09-1.54-.27-1.17-.45-1.36-.37-1.55-.09-1.17.09-1.54.19-3.27.18-4.07-.09-3.36-.37-2.99-.9-5.25-.45-3.81-1.55-.27-8.24-1.54-3.9-.73-3.35-.72-4.89-.82-2.54-.36-.91-.09-2.26-.18-.82-.09h-3.99l-1.81-.09-2.44.09-2.27.18-2.81.09-.72.09-2.81.09h-3.72l-2.54-.09-3.17-.09-2.26-.18-1.27-.18-.91-.28 60.26-29.36 70.59 22.48 25.56-11.51 17.03-7.62 9.07 10.88 8.6 8.61 10.61 19.57 9.42 17.31 2.08 3.99 5.35 7.25.73 2.09 2.35 6.34 1.63 4.08 1.54 4.53 1.27 3.35.55 1.63 1.72 5.08.36 1.54 1.09-.82 2.26-1.9.55-.45 1.27-1.09.72-.54.63-.55 1.36-1.09.19-.18.45-.36 1.63-1.45.63-.54 2.27-1.91 1.72-1.45 1.99-1.72 1.45-1.36 1.09-.9 1.18-1 1.27-.91.72-.54.73-.36.54-.37.91-.36 1.09-.45.81-.27.82-.18 1.17-.28 1.73-.09 1.63.09 1.45.09 2.44.09 2.99.19 2.18.09h1.18l1.18.09 1.72-.09 1.63-.09 1.27-.19.45-.09 1.27-.36h.09l1-.36 1.17-.36 1.09-.46 1.27-.45.27-.18 1.18-.55 1.27-.63.09-.09 1.09-.63 1.72-1.18 1.54-1.18 1.63-1.36 1.09-.91 1.08-.99 1.18-.91 1.18-1 1.18-1.08 1.18-1 1.45-1.18 2.17-1.9 2.63-2.36.91-.63.72-.64 1.09-.72.99-.55 1-.63 1.36-.72 3.99-2 3.71-1.81 2.63-1.27 1.72-.82 1.63-.81 1.18-.64 1.18-.63 1.45-1 1.63-1.36.82-.81.72-1 .82-1.27.9-1.54 2.36-4.53 2.17-4.26 2.63-5.07 2.27-4.44.9-1.82.91-1.54.72-1.18.55-.72.45-.64.73-.72.99-.82.91-.81.54-.36.18-.18.82-.55.27-.18.27-.18.91-.45 1.45-.64 1.9-.63.91-.37 4.08-1.36 3.17-1.08 3.44-1.09 4.53-1.72 2.54-.82.82-.36.9-.36.73-.37.81-.36.82-.63.99-.64.91-.72 1.27-1.27 1.72-1.99h10.6l15.77-4.81 1 4.72 15.04 2.17 3.08 44.32-.72 14.13 42.59 27.1-1.18-1.81-1.63-3.26-2.36-5.17-1.09-2.45-.09-.36-.18-.54-.36-1-.18-.82-.27-.99-.37-2.9-.27-1.36-.27-.82-.18-.54-1.54-4.08-.55-1.54-.36-1.18-.27-1.09-.45-2.17-.37-1.99-.45-2.36v-1l-.09-.99.09-1.18.18-1.72.55-2.54.72-4.08.18-1.18.09-.81-.09-.64-.09-.9-.09-.55-.36-.9-.36-.91-.64-1.18-1.36-2.45-.81-1.45-8.88-14.95-1.36-2.45-1.27-2.17-1.09-1.81-2.99-4.99-1.18-1.9-1.18-1.72-6.25-7.34-2.53-2.9-3.63-3.63-3.17-3.17-1-1.09-1.18-1.18-.9-.81-.82-.82-1.18-1.08-.45-.46 3.35-26.37-.81-2.36 2.45-2.53 3.44-3.36 1.45-1.36 2.26-2.44 1.18-1.18.55-.63 1.81-2 2.99-3.35 3.26-3.54 1.54-1.81 1.18-1.18 1.27-1.36 1.09-.9.63-.55.72-.54.82-.45.72-.37.55-.18.36-.27 1-.36.81-.36.91-.19 1-.18.99-.18 1.18-.18 3.81-.27 6.61-.36 1 1.17.63.82 1.09 1.36 3.9 6.62.63 1.08 1.63 3.36.64 1.9.36 2.27.09 1.9-.27 2.17-.45.18.27 1.36.18 1.91.54 1.72 1.45 1.45 2.27 1.36 1.54 1.81 2.26 4.62 1.18.09h.91l.81-.09 1.09-.18 1.63-.27 2.27-.54-.64-2.27-.45-2.27-.09-1.26v-2.45l.18-1.36.27-1.54.36-1.81.37-1.27.36-1.09.45-1.09.64-1.27.63-1.08.64-.91.63-.82.72-.9.82-.91 1.18-.99 2.54-2.45 3.89-3.63 1.63-1.54 1.54-1.81 1-1.27 1.09-1.81.72-1.36.64-1.54.54-1.63.45-1.63.73-3.63.54-2.26.46-1.91.27-1.27.9-3.53 1.45-5.44 1-5.25.45-3.27.46-3.8.09-1.36v-.82l.09-1.27-.09-.63-.09-.73-.28-1.08-.45-1.64-1.27-3.71-.63-1.63-.64-1.63-.54-1-.36-.82-.27-.63-.46-.72-.63-.82 1.63-4.35 2.08-5.62 1.36-3.99.91-2.53 1.09-3.09 2.08-5.61 1.27-3.09 1.9-3.98 4.08 2.08 2.45 1.09 4.26 2.81 13.59 10.42 11.42 8.43 4.07 3.53 3.09 3.36 3.89 4.62 5.53 7.88.82 2.54.27 39.15 1.54 15.95 2.08 22.02-1.9 4.44-4.8 11.33-.37-1.9-.18-.64-.09-.54-.36-.73-.36-1.08-.64-1-.99-1.09-1-.63-1-.46-1.27-.36-1.08-.09-1.09-.09h-1.54l-.82.09-1.54-.45-7.25-8.25-3.98 22.93-1.55.27-.36.27-.45.27-.45.28-.73.18-6.79 1.9 12.23 16.13 1.18 12.06.27 2.35.27-.09h1.09l.45.18.36.27.37 1.27.18 1 .27.91.72.9.37.27h.9l1.45-1.54.64-.54h.9l1.09.54 2.63 1.18 2.44 1.54 2 1.82.45.63.09.81-.09.64-.54.63-6.35 6.26-.54.27.18 1.45.09.72.36.46.37.36 1.99.72 4.53.91 1.54.54.91.64.81 1 .82 1.08 4.62 4.99 4.71 5.25.46.73v1.54l-.18 1.18h5.43l.91 13.41.27 3.17 4.98-1.18 1.09-.36.91-.63.72-.91 1.54-1.72.64-1 4.26-7.7 1.72-3.81.81-3.53.19-.45 3.62-12.24.09-.27 1.54-4.08 1.18-2.81 3.44 1.45 2 .64 2.99-.19 6.16-.36 15.4-1.81 2.45-.27 12.87-1.27 5.43-.64-1.26-11.41-.09-.91-1.18-9.97-.91-7.52-.36-3.35-.64-4.63-.72-6.52-.27-2.9-.73-9.06 9.7.09.36-3.27 5.26-.54-3.17-4.62-.73-1.27-.82-1.45-.81-2.08-.91-2.36-.99-3.72 2.71-.99 3.09-.37h1.26l2.27.55 3.35 1.54 3.45 1.27 2.81.36h1.45l3.62-.63 1.27-.37 1-.45 1.26-.73 3.08-2.17 2.9-1.9 1.45-1.36 1.09-1.27.82-1.36.81-1.72.64-1.72.18-3.45-.18-2.9-.27-.99-.73-1.55-4.44-7.25 3.72-3.35 2.26-2.45 1.09-1.54 1.36-2.26 1.18-2.81 1.45-5.26.9-5.71.55-1.36 2.26-2.53 1.54-2.09 1.45-2.9.91-1.72.72-1.36.36-1.81v-.36l-.72-1.18v-.27h.09l.36.18.55.27 3.17 1.45 1.45.63 1.27.55 1.27.54 1.35.64 2.09.9-7.07 2.27-2.9 16.67-.36 3.63v2.72l1.81 4.26.36 7.88 1.09 10.96v.46l.64 3.8.36 2.45.09.64-.64 5.52.09 1.54.19 1.27.63 2 .73 1.27.72.99 3.26 3.45.73.45.81.18h1.45l.82-.18 6.34-1.09 9.33 1.18 2.45-1.45 4.8 4.98h4.26l5.98-.99 1.45-.18 4.63-1 2.9-.18 3.71-.45 4.89-.73 1.82-.18 4.98-.54 3.9-.37 7.06-.36 10.34-23.93 1.81-3.35 1.81 13.05.27 5.89.27 3.63.37 1.36.36.81.54.27 2.36-.09 4.08-.54 1.17.27.73.09 1.18.73 1.27 1.54 9.33 14.04.45.28.36.27 1 .27h2.36l.63-.18 2.63-1.99 2.72-2.63 1.36-2.09 4.53-6.79 1.9-2.72 1.18-1.27 1.18-.91 1.45-.81 1.63-.73 1.99-.27 1.91-.45 2.44-.27 7.79-1.27 2.9-.37 1.36-.18 1.09-.09.73.09.45.09 1.81.46 1.72-2.54.91-1.18 1.18-1.45 1.18-1.54 1.26-1.9 1.45-2.27.19-.45.18-.55v-3.71l.18-2.09.27-1.54.27-1.36.45-1.36.37-.72.45-.82.36-.63.55-.72.45-.55 1.27-1.18 4.98-4.17 3.81-3.17.99-.9 5.35-4.72.27-.45 1-.09 15.59-2.27 2.81 18.94 1.9 21.3-15.59 24.74-3.89 5.35 89.53-10.15 81.91-9.61.37-5.07-2.36-9.34 5.35-.36.09-13.14-.09-7.52-3.27-6.25-10.96-54.47-4.71-12.23-22.11-20.12 5.16 1.18 1.81.81.64.45 1 .73.81.9 1 1.18 1.54 2.09 1.63 2.08 1.72 2 1.72 1.9 1.91 1.63 1.26 1.09 1.36.9 1.45.82 2.45 1.18 1.54.81 1.09.73.99.9.73.73.63.91.64 1.08.9 1.82 1.18 2.99 2.81 7.25 2.9 7.34 1.27 3.17 2.08 4.8 1.18 2.63 2.54 5.8.36.91.55 1.17.45.91 3.26 5.44 3.08 4.62 1.18 1.54.54.73 2.72 3.17.64.81 3.35 3.72 1.99 2.36 2.27 2.8.9 1.18 1.09 1.54 2.99 4.72 1.72 2.71 2.63 4.08 3.17 4.72 2.27 3.35 2.26 3.62 1.55 2.63 3.26 5.08 2.53 4.16 1.91 3.27 2.35 3.98 1.63 2.72 1.45 2.63.46.82 2.63 4.44 4.16 7.43.73 1.18.45.72 3.45 6.44 1.81 2.99 4.8 8.24 1.63 2.72 2.09 4.08 1.36 2.63.18.36 1.63 2.9 1.99 3.26 1.9 2.81 2.63 3.63.55.72.9 1.27 6.53 9.34.9 1.17.82 1.09.81.73 1.18 1.09 1 .72 1.45.91 1.18.54 4.89 1.81 1.81.73 3.45 1.45 7.88 2.99.91.54 1.08.82 7.43 6.25 5.17 4.53 2.63 2.36 2.44 2.72 2.45 2.63 1.36 1.45 1.81 1.99 2.63 2.81 4.62 5.07 4.71 5.53 3.54 4.35 4.98 6.16 6.98 8.7 1.18 1.64 4.16 5.52 3.09 4.17.27.45.45.46.45.36.64.36.63.37.73.18-1 2.63-.82 1.9-.72 1.81-.45 1.18-.64 2.9-.27 1.36 5.62-1.72 2.45-.28 1.63-.54 7.88-.91.18 1.73.27 3.17.82 5.8.54 4.08-7.34.54-.72.09h-.91l-1.27.09-3.71.18-1.45 1-.73.54-.72.64-.82.54-.45.64-.36.36-.82 2.54.09.72.09.82.09 1.45.46 2.53.63 2.81.63 2.9 1.91 8.16 1.81 7.07.91 3.99.27 1.08 2.17-.27 1.27-.18 2.99-.36 2.09-.18 2.35-.28 1.91-.18 1.17-.18.64-.09.81-.18.46-.09.99-.36-.09.99v1.45l.73 6.8 1.36 13.14.09 1.27v1l-.09.36-.09.36-.28.55-4.16 2.17-1.82.73-2.53 1.26 1.72 3.18 1.18 1.99 1.63 2.81 1.54 2.81 1.27 2.36 1.26 2.44.28.64.45 1.26.63 1.36.91 2.45.73 2.45 2.44 4.26.18.27.82 1.18-.82 3.08.09 1.09.37 1.72-1.45 1.63v5.71l-.18 1.54-.1 1.27-.27 1.72-.36 1.99-.82 3.99-.63 2.99-1.36 6.53-.45 2.44-.18.91-.82 4.08-.81 4.35-.37 1.63-.27 2.08-.18 1.82-.18 2.35v4.9l-.09 2.08-.09 3.99-.18 3.71-.09 2.99-.19 2.72v8.61l-.09 2.72v.73l-.09.72-.09 1-.18.9-.27 1.82-.18.9-.36 1.27-.37 1.18-.54 1.54-.36 1.09-.55 1.09-1.08 2.71-1.09 2.18-2.63 5.07-1 1.82-1.08 2.17-.73 1.18-.81 1.54-3.27 5.98-1.72 3.17-4.35 7.98-1.72 3.17-.27.54-1.63 2.45-.27.45-.73 1.09-2.08 2.81-1.72 1.9-1.91 2.18-2.35 2.54-7.25 7.61-3.81 4.08-2.17 2.26-1.54 1.63-1.55 1.55-1.17 1.17-.64.73-1.36 1.36-.72.63-1.36 1.36-1.54 1.54-4.26 4.17-7.16 7.25-5.35 5.35-4.25 4.35-2.18 2.26-2.45 2.45-1.08 1.09-6.71 6.79-.81.82-9.79 9.97-2.36 2.36-2.35 2.26-6.07 6.25-5.99 6.17-5.98 6.16-2.71 2.9-6.53 6.89-8.34 8.88-.99 1.27-6.53 7.07-2.35 2.53-5.98 6.53-5.8 6.43-3.08 3.45-1.55 1.81-5.25 5.89-1.09 1.27-1.9 2.26-2.27 2.54-.63.91-.36.27-1.63 1.9-2.09 2.36-.72.72-2.54 2.99-2.45 2.9-1.36 1.54-2.26 2.63-.55.64-1.81 1.9-.72.82-1.82 2.53-3.08 3.54-1.63 2.08-2.26 2.63-1.72 2.18-.91 1.08-.45.64-.82.81-5.98 7.34-2.36 2.9-1.81 2.27-1.72 2.08-.73.91-4.44 5.44-1.36 1.9-2.44 2.72-.82.91-.81 1.26-4.71 6.08-2.45 3.17-2.18 2.63-.27.36-1.09 1.36-.63.9-.82 1.18-2.35 3.17-3.54 3.9-2.9 3.72-2.9 3.35-1.17 1.27-1.18 1.27-1.36 1.36-1.36 1.27-2.27 2.08-1.72 1.45-.63.54-2.54 2-3.17 2.17-2.27 1.54-2.35 1.45-7.07 4.17-3.44 2-5.08 2.99-4.98 3.17-2.27 1.54-1.36.99-1.54 1.09-1.36 1.09-2.53 2.08-1.36 1.09-1.36 1.27-1.36 1.27-1.09 1-8.43 8.88-3.35 3.44-5.89 6.25-5.89 6.17-11.24 11.96-2.26 2.36-3.63 3.8-3.26 3.54-.99 1.08-4.26 4.44-4.35 4.44-1 1.09-5.07 5.35-6.17 6.43-3.53 3.81-5.53 6.62-2.17 2.62-1 1.27-1.18 1.63-.9 1.27-2.27 3.26-2.54 3.54-.63.91-1.45 2.08-.73 1.09-.81 1.18-1.81 2.71-2 2.9-1.27 1.82-.9 1.36-.82 1.17-4.44 8.16-.54 1-1 1.99-.27.55-1.18 2.8-.27.64-.73 1.63-.36 1-.45.99-.27.82-.46 1.27-.18.36-.18.36v1.27l-.09.55-.27.9-.54 1.45-.46 1.63-.36.82-.63 2.08-.73 2.9-.27 1.36-.36 1.18-.82 3.53-.63 2.63-.09.37-.82.9-.72 4.26-3 13.5-3.89 17.95-.73 2.72-.36 1.45-1.27 5.43-1.99 7.53-2.63 9.6-1.99 6.62-1.82 5.8-.45 1.63-1.36 4.44-1.81 5.71-5.71 18.85-1.18 3.9-2.26 7.7-2.09 7.07-5.16 16.4-.73 2.09-1.72 4.98-1.72 4.71-.72 1.72-1.09 2.72-.64 1.54-.81 1.82-1.09 2.53-.54 1.18-1.18 2.45-1.09 2.36-2.35 4.44-1.09 1.99-1.18 2.08-1.09 2-.99 1.81-2.54 4.44-1 1.81-1.27 2.18-4.53 7.97-1.36 2.36-2.17 3.72-.64 1.26-3.08 5.44-1.99 3.63-.73 1.17-3.98 6.98-3.9 6.98-1.99 3.54-1.63 2.89-.73 1.36-1 1.82-1.26 2.17-3.36 6.62-.9 1.72-.73 1.81-.54 1.18-.36.82-1 2.35-1 2.27-1.27 3.26-.54 1.63-.64 1.63-.99 2.63-1.36 4.26-1.45 4.62-1 3.08-.27.91-.72 2.45-.37 1.45-1.72 5.16-1.99 6.16-2.81 9.52-6.25 20.03-3.36 11.05-1.9 6.26-2.54 8.61-1.08 3.44-1.36 4.35-1.18 3.81-1.54 4.71-2.27 7.34-.54 1.9-2.27 7.43-1.9 5.62-.54 1.91-.37 1.08-.27.73-.54 1.72-.91 2.36-.81 2.35-1.09 2.99-1 2.27-1.45 2.99-1.36 2.9-1.54 2.99-1.63 3.08-.18.36-1.81 3.18-.82 1.27-2.44 3.8-2.9 4.26-2.99 3.99-1.45 1.81-.73 1-.27.36-1.63 1.9-1.36 1.63-2.72 3.18-1.63 1.81-1.36 1.27-.27.36-.91.82-1.72 1.63-.82.63-.63.55-2.63 2.71-1.27 1.36-.72.73-.73.81-2.08 2-2.18 2.26-1.26 1.09-1.18 1.09-.91.9-.9.82-3.27 3.08-.72.64-1.72 1.54-1 .9-1.09 1.09.64-.18.9-.36.73-.09h.54l.45.27.28.27.27.27.18.45.18 1.09.36 2.18.28 1.81.27 2.27.18 1.81v.54l-.18.45-.09.37-.28.45-.45.54-.45.37-.55.63-.18.27-.36.55.36.09h.09l.91.72.09.18.73 1.09.54 1.09.27.72.27.73.18.81.28.73.18 1-.09.45.36 2.45z" stroke-linejoin="round"/></defs><use xlink:href="#e" fill="#9dc8ca" stroke="#9dd7f0" stroke-width="5.76"/><defs><path id="f" d="M406.51 1861.26l-.18.63.09.36.63 1.82.09.99-.09.64-.36.63v.73l.27 1.08 1.18 1.91.82 2.26 3.53 6.26.82.9 1.72 2.18.54 1.63 1.54 2.63.55.45.63.27 1.45-.18.82-.36.99-.73 1.9-1.81.37-.18h.45l.45.27.46.45.9 1.91.64 1.08.45.46 1.45 1.9 1.09 2.45.9 2.35.18 1.82.46.81.63.46h.82l.45-.19.82-.63 3.71-5.08.45-1.26.1-1.45v-1.36l-.28-1.45-2.81-4.08-.72-.82-5.62-4.8-2.45-.63h-.54l-2.72-1.55h-.54l-.91.19-.36-.09-.18-.37-.18-.63-.27-1.63-.46-.46-.72-.36h-1.36l-.64-.18-1.17-1.18-.28-.72-.63-2.45-2.17-2.9-2.09-1.81-2.36-1.45-.63-.09-.54.18-1.09 1.18z" stroke-linejoin="round"/></defs><use xlink:href="#f" fill="#9dc8ca" stroke="#9dd7f0" stroke-width="5.76"/><defs><path id="g" d="M1468.73 1360.64l-2.45 1.36-8.25-8.88-11.78-12.32-.54-.55-2.63-2.81-4.08-4.35-1.63-1.9-5.98-6.34-7.79-8.43-4.8-5.17-9.7-10.15-10.6-10.96-4.9-5.17-5.07-5.34-9.97-10.16-1.09.82-.72.63-.36.28-.28.18-.81.63-.82.55-4.07 3.26-5.62 4.26-1.81 1.45-6.98 6.52-6.8 6.35-12.59 12.59-16.04 20.39-7.89 9.7-.81-.18-2.54-1.09-.36-.09-1.91-1.18-4.62-1.81-.99-.45-.55-.55-.45-.54-.18-.36-.18-.45-.28-1.27-.09.45-.18.45-.18.46-.45.54-.45.27-.28.27-.36.09-.27.09h-1l-.72-.18-3.08-1.27-.55-.18-1.17-.45-.37-.18-1.08-.45-1.27-.46-2.99-1.36-.91-.36-3.44-1.54-.46-.18-1.17-.54-.46-.1-8.61-3.98-4.44-1.91-15.49-6.88-2.36-1.09-1.36-.64-3.71-1.54-.37 1-.45.82-1.54 1.99-1.45 1.54-.54-1.45-.46-.63-.63-.82-1.27-1.18-1.36-.9-.9-.46-.37-.09-1.36-.36h-1.81l-1.63.18-12.87 1.72-7.7.55h-1.27l-.45.09-.36.09-.28.18-.54.18.18.54.27.46.37.72.36.55.54.9.55.82.9 1.18-.45.54-.63.54-.37.37-.18.18-.54.27-.46.27-.54.09-1.81.27h-1.27l-1.72-.18-1.45-.09h-2l-7.43.18-1.63.09-1.72-2.17-2.54-3.35-2.17-2.54-5.53-5.26-2.54-2.44-2.26-2.54-1-1.18-.99-1.54-2.45-4.08-.91-1.36-2.81-6.8-1.08-1.54-1.18-1.45-3.08-3.44-.91-.82-1.81-1.63-3.44-2.44-2.72-1.54-4.81-1.91-3.71-.72-4.17-.64-3.99.09-4.17.73-10.6 2.45-3.26.54h-5.35l-1.81-.09-1.09-.36-2.35-.73-2.63-.81-4.98-1.91-3.18-1.45-4.07-1.72-.91-.36 1.36-.91 1-1.63.81-.82 1.09-.72 1-.45.72-.27 1.63-.91.91-1 .63-1.36.37-1.81.09-2.17.36-3 .81-5.7.73-1.91.63-1.45.18-.54.28-.46.27-.45.27-.45.27-.36.36-.64.19-.54.27-.64.09-.36.18-.63.36-1.45.36-1.45.46-1.63.36-1.36 1-4.72.27-2.08.54-3.35.55-4.81.27-2.17.81-3.45 1-4.71.36-2.63.27-1.08-.18-1.09-1.9-6.71-.63-1.81-1-2.36-1.09-1.45-.72-.72-.82-.91-6.07-5.07-1.27-1.36-.72-1-1.09-2.9-.64-2.9-.18-1.63h-.54l1.09 4.8 1.17 10.15.28 4.9-3.9.09-14.14 1.27.19 1.54.09.72.09 1.18.09.72-.18.64-.46.54 2.81 2 4.8 3.53.55-.27.63.09 1.72.45 1.36.09 3.18-.18 1.72-.27.63-.18.64-.45 5.89-5.71.54-.28.72.19.37.36.18.27.45.54.27.46.18.54.09.73.19 1.08.54 5.99-.09.81-.45.91-.28.36-1.08.63-.73.19-.63.18-1 .09-13.77 1.17h-1.63l-1.09-.18-.45-.36-.91 1-1.45 1.36-1.27.81-1.18.46-1.18.27-4.16.45-1.18.36-1.09.37-.72.45-.55.45-.27.55-.91 2.17-.81 2.09-4.08-1.82-.72-6.52-3.63 2.17-2.17 1.36-18.76-10.69-5.17 2.17-.81-.54-1-.72-1.63-1.18-2.54-1.91-3.44-2.53-1.45-1.27 1.99-2.63 3.08-3.63 2.36-2.62 1.27-1.18 3.35-2.45 3.17-2.35 5.89-4.35 9.52-6.98 3.35-2.63.54-13.78.46-9.69.27-10.79.09-2.44.36-5.17.36-1.27.73-1.81 1.09-2.45.54-.99 1.36-1.36 1.09-.64 9.33-1.36 5.71-.36 1.63-.18-.36-1.27-.36-2.18-1.09-3.17-.09-.99.27-.73.45-.82 1.72-1.81 2.36-2.08.91-.64 1.27-.45.81.09 1.18.36 42.68 33.53 10.69 8.43.82-.54 2.35-1.18 2.45-.63 2.99-1.72 2.54-1.73 3.44-4.89 1.63-1.99 6.07-9.25 2.27-2.54 3.44-2.8 3.08-2.36 2.9-2.45 1-1.09.54-.81.55-1.45-1.18-1.18-2.63-2.9-2.63-2.99-2.53-3.08-2.45-3.26-2.36-3.45-2.8-4.17-2.54-4.44-3.54-5.98-3.62-6.34-2.81-27.55.09-1.27 1.09-15.04.9-12.69.19-2.99.36-4.35.54-6.98.73-9.52.9-13.59.18-2.27.1-.63v-.91l-.28-4.07.18-2.99.28-5.71.18-4.26v-3.72l-.09-3.26-.18-2.99-.37-3.17-.81-5.35-1.18-6.71-2.81-16.04-2.26-13.32-.37-2.45-.18-1.08-.36-1.73-.27-1.17-.09-.55-.09-.9-.19-.82-.18-2.27-.18-2.17-.18-2.27.09-4.8.36-4.35.46-3.35.72-4.26 1.27-7.07.63-4.26.37-3.26.18-2.81v-2.27l-.09-2.63-.27-3.08-.55-3.71-.81-5.98-.27-2.27v-1.81l-.19-2.18-.9-4.17-1.09-4.35-1-3.89-1.17-4.44-3.18-11.33-4.26-14.86-4.34-15.95-.19-.37-1.17 1.27-.91 1.18-.91 1.54-.72 1.18-.82 1.9-1.45 1.54-.81.37-.91.27-2.35-.18-1.27.63-.82.54-.36.55-1.36 2.63-2.54 3.89-3.89 3.45-2.54 2.08-1.72.73-2.18.63-3.35 1.36-2.81 2.45-2.54 2.26-1.36 2.45-.09 1 .73 1.81.09.54-.27.73-1.27.81h-2.54l-.82.37-.54.63-.54 1.45-1 1.18-1 1.09-1.36.45-.45.09-1.99-.63-.91.18-.54.18-1 .45-.81.27-.37-.27-.36-.18-.63-.18-.55.09-.63.45-.18.91.18 1.9-.27 1.99-.46 1.64-.45 1.17-.63.37h-.91l-1.27-.27-3.8.63-1.45.72-.37-2.99-1.27-10.78-1.99-21.3-1.09-11.96-.9-7.07-.46-3.99-.81-4.17-.55-2.17-.9-2.72-.91-1.9-2.72-4.17-.27-1.36 2.09-1.36 2.71-1.54 1.09-.36 1-.46 1.54-.36 1-.27 1.81-.27 2.45-.09 6.79-.27 1.54-.28 1.72-.36 1.09-.27 1.81-.73 1.54-.63 2.72-1.36 15.5-9.33 6.79-4.08 8.16-4.81 1.27-.63 1.09-.63 1.54-.73 1.72-.72 1.99-.64 1.81-.27 1.18-.09h1l1.54.09 10.15.82 9.6.63h.64l1-.54h1.35l1.45.18 7.07.72 1.09.09.63.09h.91l7.16-.36 11.69-.81 7.25-.55 13.41-1.27 2.45-.18 3.53-.18 8.25-.63-.55-2.63-.81-4.17-.73-3.99-1.09-6.25-1.26-6.25-2-11.24-.9-4.62-.73-3.9-.18-1.45-.18-.73-.45-2.53-.91-4.63-1-5.07-1.17-6.43-.19-.64-.09-.81-.54-2.99-.73-3.63-.36-1.63-.72-4.08-.55-2.9-.54-3.08-2.18-11.51-.09-.63-.18-.82-.81-4.44-.64-3.53-2.26-12.6-.64-3.08-.9-4.63-.73-3.26-.54-2.35-.36-1.54-.46-1.27-.99-3.08-.55-1.36-.18-.55-.72-1.9-1-1.9 5.07 1.45 19.94 6.07 22.47 6.8 6.35 3.53 3.17.18 3.44-.63 2.81-.73 5.26-.9 2.08-.28 2.63-.54 2.08-.63 2.72-1 3.08-1.72 1.27-1.82 1.54-4.8.91-1.18.99-1.63 1-.36.82-.54 1.36-.37 4.8.82-3.72-5.44-.54-2.63-.36-1.72-.64-2.26-.99-3.63-.55-3.72-1.81-8.33-.27-1.18-.55-1.9-2.35-10.43-1.45-4.35-1.09-1.99-1.18-3.62-3.26-15.14-.18-1.36-.18-2.72v-1.99l-.55-6.07-.54-4.44-.91-6.8-1.54-6.8-.18-1.27-.45-5.98-1.18-10.24-2.99-29-.09-1.27.18-1.08.55-1.64 8.7-22.38 2.53-5.62.91-1 1.45-1.45 1.36-.99 4.98-2.9 16.49-13.14 4.99-5.26.72-.81.91-.91.18-.36.09-.37.09-.36v-1.54l-.18-3.44 2.18 1.27 3.35 1.99 1.09.72.36.28 1.09.81 1.08 1 .91.81.81.82 6.44 5.98 3.44 3.26 5.17 4.9 2.08 1.99 4.26 4.26 11.69 11.24 2.72 2.44 1.18 1.18.9.91 1 1 1.36 1.45.9.81 1.18 1.18 1.09 1.09 1.63 1.54 4.89 4.71 6.53 6.25 1.99 2 2.72 2.53.54.55.64.54.54.46 1.27 1.08 1.18.82.91.63.81.55.91.54 1.08.45 2 .82 1.81.72 1.45.55 1.72.54 1.72.55 1.18.36.55.18.18-2.18 1.9-5.25 3.9-10.88 2.99-8.24 1.27-3.81 2.53-7.16 2.27-6.25 2.63-6.44.63-1.36 1.54-3.08 3.54-6.61.81-.18-.09-1.18 4.71-7.71.46-.72 2.08-3.63 1.18-2.62 1.08-2.63 1-3.26.27-1.36.55-1.63 1.27-6.44.09-5.98-.09-1.54-.09-1.72-.91-7.34-1.09.18-6.16.9-1.36.19-2.17-.19-1-.45-.91-.81-.72-1.27-1.63-2.9-.91-1.18-1.27-.73-2.63.09-6.52.64-5.71.63-1.27.46-.9.63-.73.73-1.09 2.71-1.36 4.35-.18.37-.54 1.17-.27.28-1.18.72-.64.27-5.52.55-4.81 2.35-12.86-3.53-.82.36-.72-.09-1.18-.27-7.34-4.8-1.09 2.17-1.9 2.9-1.54 1.99-.91.82-1 .27-2.26.36-2.18-.18-.99-.36-.55-.36-1.08-1.09-.73-1.09-1-3.26-.09-1 .09-1.26.19-1.09 2.35-5.17 10.6-17.76 1.36-2.27 4.72-4.8 1.26-.82 2.45-1.44.36-.28 3.45-2.08-2.63-3.63-7.25-10.15 2.9-3.44 1.54-1 2.27-.81 3.08-.64h3.08l13.95-1.27 4.44-7.88 1.09-1.81 2.81-5.17-1.18-8.97 7.16-.72 3.17-.46 1.63-.18.82.82.9.9.73.64.63.54 1.82 1.18 1.72 1.09 3.26 1.9 2.17 1.18 1.91.99.99.46 1.91.54 1.9.45 1.99.28.28.09h.54l-.27-13.69-.09-3.71-.18-3.81-.09-2.63-6.8.18h-.82l-.72.09-.73.19-.72.18-3.45 1.08-1.44.55-.64.18-.54.27-.46.45-.54.64-1.72 2.17-7.89.73-1.72-2-1.9-2.08-1.27-1.36-1-1-.99-.99-1.63-1.63-1.72-1.63-2.81-2.81-2.45-2.27-3.99-3.81-3.99-3.44-.99-.91-1-.99-.54-.64-.82-.99-1.27-2.18-.9-1.54-.64-1-1.18.46-.36.18-1.63.54-1.72.45-1.81.28-1.82.27-1.9.27-.09-1.27.09-.63.18-.64.37-1.27.72-2.26.18-.55.36-.72.46-1.27v-1.27l-.91-8.52-.18-4.35.27-1.99 2.27-.63 5.62-.64 13.41-.82 5.98-1.44 1.36-.73.72-.72.18-1-1.45-14.32-1.08-9.52.27-2.53-.27-3.18-2.18-15.49-.36-2.63 14.95-.45 4.44-.09h.45l.73-.09-1-5.99-.45-7.88.54-.09h.64l3.53-.36 20.84-2.18 32.99-3.35-.73-7.8.82-.09 1.27-.18.99-.09 16.68-1.45 9.51-1.45 3.81-.36 1.09 8.7 8.42-.91 6.07-.63 37.61-3.72 27.55-2.99 9.97-1.09 14.77-1.63 20.11-2.26 78.39-8.97 7.34 5.61 1.81-1.54 1.27-.99 1.36-.91.27-.09.63-.36 1.36-.64 1.18-.45.36-.18 1.27-.27 1.91-.36 1.54-.19 1.81-.18 5.07-.36 6.71-.27 3.08-.09 1.09-.91.72-.9.55-.73.36-.82.36 3.18 2.99-.19 3.26-.18 1.27-.09h1.36l1.45.09 1.54.18 1.36.37 1 .36 1.27.45 1.17.55 3.08 1.45.82.36 2.54 1.36 2.99 1.81.63.36 5.71 3.18 13.14 6.88-.09-2.72-1.81-17.49-.64-1.36 11.69-1.17 7.07 1.08 15.86-.99 9.24-1.73 71.95-7.61 42.59-1.54 17.31-2.54 24.01-3.71 34.89-3.54h.91l65.33-7.25 3.81-.36 8.15-.99-4.71 12.05-3.71 2.08-.37.09-.45.18-.36.19-.45.09-.37.09h-.36l-1.9.18v.63l-.09.46-.18.45-.09.45-.19.45-.27.46-.18.36-.27.54-.27.37-.36.36-.46.36-.45.36-.54.28-.55.27-.72.27-2 .82-.27.09-.27.18-.27.18-.91.63-1.36 1-.18.18-.09.27-.36.55-.36.81-.46 1-.45 1.18-.36.63-.09.36-.09.37-.1.36-.09.82-.09.54-.09 1-.45 2.17-.09.36-.09.27-.09.37-.55.81-.36.64-.81 1.09-.28.27-.45.27.18.27.18.27.09.36.91 3.45.09.36.09.45v1.91l-.09.45-.09.54-.09.37-.18.27-.09.36-.18.45-.91 2.36 6.16 2.54 1.45.63 1.09.36 1-.09 1.27-.54 1.81-1.36 1.18-1.45 3.44-5.07 1.72-3.18.27-1.54.18-1.81.28-1.18.36-1.54 1.54-2.72 14.77-11.78.36-.27.27.18.64-.09.54-.27 1.09-.91.72-.63.64-.36 25.37-18.4-.72-3.9 29.36-2.99 4.62-.36-.64-3.9-.9-2.9-.82-1.18-.9-.99-.64-5.17-1.81-4.71 5.62-1.27.72-.27 2.18-1.27.99-.82 3.63-2.17 1-.36h.9l.82.09 1.18.63.99.64 1.9 1.63 3.36 16.58.45-.63 35.16-4.26 17.49-2.63.45.72 1.18 2 .91 1.72.54 1 .27.45.27.36.37.73 1.08 1.9.19.45 1.72 3.54 2.08 4.89 2.72 6.07 3.26 6.98 2.27 5.17-17.67 14.23-.64.54-6.79 5.44-1.18.18-.64.36-.18.64-.36 4.89-.18 1.72.09 1.72.27 1.27.36.73.55.72.9.73 1.18.72 2.99 1.09-2.99 14.59.18 2.45.28 2.17.36.27.18.09h.45l2-.27 19.84-2.54 10.42-1.08 4.35-3.81 11.6-9.97 1.36-1.18-.27-1.81.81 1 .73.91.9 1.26.82 1.27.72 1.36.37.64.9 1.9.46 1 .63 1.63.73 1.9.81 1.99.64 1.45 1.08 2.72.64 1.54.36.73 4.8 9.61 5.98 9.33 2.54 3.72-2.63 1.54-3.53 1.81-.82.45-2.44 1.27-1.45.72-3.9 2.09-3.62 1.81-5.17 2.72.18.54.36.73-7.79 4.08-6.52 3.53-.73.36-4.35 2.27-1.99 1-1.36.72-2.09 1.27-2.99 1.9-2.26 1.64-1.99 1.54-.73.72-1.63 1.45-1.81 1.54-1.63 1.63-3.27 3.17-1.45 1.36-3.17 2.99-2.9 3-1.36 1.54-.09.09-1.81 1.99-1.81 2.17-2.9 3.54-4.71 5.98-2.9 3.63-2.36 2.62-.54.64-1.18 1.09-.55.45-.27.27-1.08.91-1 .72-1.9 1.36-1.36.82-.91.54-.72.36-.73.37-.91.36-1.63.72-.72.27-3.63 1.55-4.89 2.08-3.72 1.63-2.99 1.18-1.63.63-5.98 2.54-1.99.91-1.54.63-2.63 1.09-2.63 1.09-.99.45-2.9 1.18-1 .45-1.09.45-2.81 1.27-1.63.82-1.9 1.18-1.36.9-1.54 1.18-1.18 1.18-.54.54-.82.82-1.9 2.17-2.99 3.45-4.44 4.8-2.54 2.99-2.08 2.36-1.63 1.72-.64.72-1.54 1.73-1.09 1.17-.9.82-1.91 1.72-3.08 2.63-5.52 4.44-4.44 3.53-2.54 2-7.7 6.16-1.09.91-1.54 1.36-.82.72-.45.45-1.18 1.09-1.18 1.27-1.81 1.81-2.99 3.27-1.18 1.27-1.81 2.08-2.08 2.36-1 1.08-4.62 4.9-3.81 4.26-1.9 2.08-9.24 10.15-4.63 5.08-5.25 5.89-10.69 11.96-2.09 2.35-.45.55-.91 1.27-.63 1.09-.64.9-.72 1.36-.45 1.09-.64 1.18-.45 1.08-.36.82-.1.36-.45 1.18-.27.91-.09.27-.27 1.18-.37 1.36-.27 1.26-.27 1.45-.18 1.09-.27 2.72-.09 1.54-.18 2.9-.09 1.27-.1 1.9-.18 2.54-.18 3.63-.27 4.16-.09 2.09-.27 3.35v1.09l-.18 1.27-.18 2.17-.46 3.36-.54 3.17-.64 2.81-.9 3.89-1.18 4.81-.54 2.08-.64 2.72-1.45 5.53-1.99 8.34-.64 2.26-1.45 5.8-.72 2.81-.36 1.54-.64 2.54-.27 1-.36 1.36-.27 1.36-.64 2.44-.27 1.09-.72 2.9-.64 2.26-1 3.72-.54 1.72-1.09 3.08-.54 1.36-.36.91-.64 1.27-.9 1.63-1 1.72-4.53 7.7-2.09 3.36-.63 1.18-2.36 3.98-.99 1.82v.09l-.36.63-2.18 3.72-3.26 5.43-1.45 2.54-.55.91-3.89 6.43-.64 1-.45.81-1.99 3.72-.82 1.45-1.18 2.08-.72 1.36-1.09 2.09-.27.63-.63 1.45-.82 1.72-.63 1.27-1.64 3.63-2.08 4.08-3.17 7.07-1.45 2.8-3.99 8.34-1.18 2.72-1.54 3.17-.72 1.45-3.45 6.89-2.53 5.07-.55 1.18-1.36 2.63-.27.64-.45.81-1.09 2.09-.9 1.81-.55 1.18-.63 1.08-.64 1.18-.63 1-1.45 2.26-.64 1-.72 1-.54.72-.19.28-.81.99-.73 1-.72.81-.18.28-2.36 2.62-.9 1-.82.82-.91.99-.72.82-.91.91-.81.99-.91.91-.9 1-1.36 1.54-1.18 1.17-1.54 1.73-1.72 1.81-3.45 3.71-3.35 3.63-.09.18-1.09 1.09-.72.72-2.09 2-2.08 1.81-2 1.54-2.08 1.54-2.45 1.54-11.78 7.07-1.63 1-5.98 3.53-7.34 4.44-2.9 1.72-3.17 1.82-2.81 1.45-1.9.99-1.36.64-2.36.99-1.45.64-1.99.81-1.72.64-3.81 1.36-2.35.81-3.9 1.27-1.45.55-5.08 1.63-4.71 1.63-1.18.45-.63.18-.36.18-.55.37-.9.54-1.81 1.18-2.09 1.45-2.26 1.54-3.36 2.26-1.9 1.36-1 .73-5.16 3.72-4.08 3.08-6.89 5.61-9.06 7.35-1 .81-4.25 3.44-1 .82-.64.54-4.53 3.72-2.62 2.36-2.09 1.99-1.9 2.08-1.81 2.18-.09.09-1.73 2.81-2.26 3.62-.82 1.36-4.8 7.43-.82 1.46-4.89 11.69-3.53 10.33-1 2.81-4.08 10.06-.99-.19-.91-.18-.91 2-.72 1.72-.27.63-.28.55-1.54 3.44-3.26 7.7-1.9 4.26-1.99 3.9-1.09 1.9-2 3.72-.99 1.9-.27.36-1.18 2.18-1.27 2.17-1 1.73-.63 1.08-.82 1.54-.27.46-1 1.99-1.26 2.45-1.18 2.26-1.63 2.99-.46 1-.45.82-.18.45-.18.45-.36.91-.37.91-.63 1.81-.64 1.99-.54.55-.54 1.26.9.73-.09.45-.45 3.17-1 5.53-.99 6.07-.46 2.54-.63 3.35-.64 2.91-1.17 4.8-1.27 4.8-.09.27-.46 1.63-.36 1.09-1.09 3.81-2.71 8.61-.64 2.08-.91 2.9-.18.55-.09.45-.18.54-1.54 5.53-1.36 4.71-.18.64-.45 1.81-1 3.99-1.72 6.16-.09.27-.27 1-.37 1.09-1.26 4.35-2.09 6.79-.91 2.54-1.17 3.08-.82 2.27-.45 1.18-.45.99-.37.82-1.27 3.35-.72 1.63-1.18 2.81-1.54 3.72-1.9 4.71-1.54 3.9-1.72 3.89-1.09 2.63-.64 1.45-3.26 7.8-1.99 4.71-1.63 4.17-1.18 2.81-1.18 2.9-3.62 8.7-.46 1.08-.45.91-2.27 5.62-.72 1.63-2.08 5.17-.46.99-.36.82-.82 1.81-.99 2.08-1.91 3.9-2.44 4.81-1.09 1.99-2.08 3.62-.46.82-.63 1-1.63 2.72-1.09 1.72-2.17 3.26-2.18 3.17-1.99 2.81-.91 1.27-2.26 3.17v.09l-.73 1-1 1.18-.54.72-.45.55-.91 1.17-.81 1-.55.73-1.81 2.17-.82.91-1.63 1.72-1.63 1.54-1.27 1.18-.54.45-1.09.82-.63.45-.37.27-1.26.82-1.82 1.18-1.45.81-.45.27-1.27.55-.99.54-2.09.91-1 .36-1.99.63-1.09.37-.9.18-.55.09-2.44.54-2.09.27-1.81.09-1.99.28h-.73l-.9.09h-.64l-.63.09-6.16.54-2.81.18-10.33.82-2.27.18-6.61.54-4.45.37-1.63.18-13.86 1.17-2.45.19-3.17.27-3.9.36-3.62.36-4.44.46-6.07.81-2.72.36-2.63.37-1.36.27-2.53.27-2.09.27-8.88 1-2.54.27-1.08.09-1.45.18-1.09.18-3.45.37-.81.09-5.26.45-3.17.36-1.9.18-.91.09h-2.63l-1.81-.27-1.81-.36-.63.82-.46.9-.36.55-.45.9-.64 1.18-1.18 1.9-.18.46-1.36 2.62-5.07 8.16-2.81 4.44-1.9 2.18-2.81 5.34-3.81 6.53-1.99 3.8-1.36 2.9-2.27 5.17-3.89 11.69-1.72 4.35-.73 1.99-.54 1.27-1 .91-6.98 14.05-2.26 6.07 1.45.63-4.26 12.78-1.99 5.62-2.81 6.98-1.18 3.08.72.54 2.27 1.81 3.62 2.54 2.45 1.72 2.45 2.18 9.06 7.07.54.45 2.54 1.81 1.72 1.18 1 .91 2.44 1.9.91.82 2.36 2.08.36.27.27 2.09-1.72-.91-1-.81-1.54-.91-.9 9.24-.1 1.36-.09 1.81-1.17 5.53-5.26-4.8-.72 9.88 6.61 8.79 4.26 6.25 8.79 42.78 21.2-3.27 3.54-.09-2.36 2.63-.9 1-15.14 15.04 9.79 7.16.18 5.62 5.44 3.54.72.45-3.8 1.54-3.9 2.36-6.89 3.89v1.09l-.81-.45-4.08 2.62-2.08 1.36z" stroke-linejoin="round"/></defs><use xlink:href="#g" fill="#6bacaf" stroke="#6bb4d2" stroke-width="5.76"/><defs><path id="h" d="M1410.73 383.62l.73.54.63.45 8.16 5.62 1.35.82 2.63.72 1.36.09 1.36-.18.73-.27.99-.45 1.82-1.73.72-.81.36-.91.37-.72 2.35-5.89 10.69-10.43-2.44-7.06-5.08.63-2.35.27-3.36-.18-2.53-.54-5.71-2.36-.64-.18-.72-.36.63 1.09-1.36 3.8-1.63 4.35-1.9 3.17-1.09.55.27 1.27-4.16 7.61-1.09 1-1.09.09z" stroke-linejoin="round"/></defs><use xlink:href="#h" fill="#6bacaf" stroke="#6bb4d2" stroke-width="5.76"/><defs><path id="i" d="M1689.92 1600.08l-2.44.9-2.72.82-2.72.72-2.9.55-2.81.45-1.27.09-1.63.18-7.16.63-5.8.55-1.27.18-2.26.18-4.44.45-7.07.64-2.27.18-1.99.18-5.44.55-2.72.27-4.07.36h-.91l-1.27.18-2.53.27-2.72.27-2.9.37-7.98.81-3.26.27-3.62.37-1.18.09-7.16.72-.64.09h-.45l-.63.09-.46.37-1.45.18-1.45.18-.36-.82-.81-1.36-1.09-1.99-.45-.72-.09-.28-1.45-2.53-.37-.55-.9-1.36-2.45-4.44.36 1.09.09.45.18.46.09.36.37 1.36.36.54-.63-.09-2.9-5.26-.09-.36.09-1-.46-.81-1.99-3.44-.54-1-.64-1.09-.81-1.54-.91-1.63-2.81-5.17-1-1.72-.81-1.54-.64-1.18-1.08-1.9-4.72-8.25-3.26-5.25-2.35-3.36-.82-1.26-1.63-2.09-1.27-1.72-3.99-4.8-.36-.46-.45-.45-3.08-3.35-3.81-3.81-3.99-3.9-.36-.27-1.09-.27-5.71-5.35-1.08-.99-2.45-2.27-4.53-4.17-1.72-1.54-3.54-3.35-1.26-1.09-2.63-2.54-3.17-2.99-.46-.36-1.54-1.45 1-.09.91-.18-1.09-1.09-1.18-1.18-1.27-1.09-2.54-2.53-.36.45-.63.91-1-1.09-1.81-1.81-7.43-7.16-1.27-1.45-.36-.82-.37-.36-4.53-4.35-1.9-1.72-7.07-6.62-.9-.81-1.91-1.91-2.72-2.54-2.62-2.35-.82-.82-3.9-3.71-1.63-1.45-4.07-3.81-1.64-1.54-2.53-2.45-7.16-6.7-3.35-3.17-8.16-7.8-1.18-1.09-3.71-3.44-1.73-1.45-1.9-1.81-1.09-1.09-1.17-1.18-1.27-1.18-2-1.9-.36-.27-.27-.27-.82-.82-.54-.54-1.36-1.18-5.71-5.53-1.81-1.54-2.27-2.26-.54-.46-.72-.63-.73-.73-1.36-1.27-.63-.63-1.91-1.72-.99-.91-1.18-1.18-6.34-6.07-1.91-1.72-1.99-1.9-4.17-3.99-6.61-6.16-1.45-1.45-1.73-1.63-.99-.82-.91-.91-6.7-6.25-1.91-1.81-6.97-6.44-1-.18-.36-.27-2.81-2.63-1.18-.99-1.63-1.36-1.54-1.27-2.99-2.27-1.18-.9-1.27-.91-6.98-4.71-5.8-3.63-2.17-1.27-2.09-1.08-3.08-1.64-.9-.45-2.18-1-.54-.81-1.81-.73-1.63-.72-3.09-1.36-3.62-1.54-.91-.45-2.26-1-2.99-1.36-2.63-1.09-.91.09-.81-.36-3.54-1.36-2.35-1.09.72.18h1l.27-.09.36-.09.28-.27.45-.27.45-.54.18-.46.18-.45.09-.45.28 1.27.18.45.18.36.45.54.55.55.99.45 4.62 1.81 1.91 1.18.36.09 2.54 1.09.81.18 7.89-9.7 16.04-20.39 12.59-12.59 6.8-6.35 6.98-6.52 1.81-1.45 5.62-4.26 4.07-3.26.82-.55.81-.63.28-.18.36-.28.72-.63 1.09-.82 9.97 10.16 5.07 5.34 4.9 5.17 10.6 10.96 9.7 10.15 4.8 5.17 7.79 8.43 5.98 6.34 1.63 1.9 4.08 4.35 2.63 2.81.54.55 11.78 12.32 8.25 8.88 2.45-1.36 2.08-1.36 4.08-2.62.81.45v-1.09l6.89-3.89 3.9-2.36 3.8-1.54-.72-.45-5.44-3.54-.18-5.62-9.79-7.16 15.14-15.04.9-1 2.36-2.63-3.54.09-21.2 3.27-8.79-42.78-4.26-6.25-6.61-8.79.72-9.88 5.26 4.8 1.17-5.53.09-1.81.1-1.36.9-9.24 1.54.91 1 .81 1.72.91-.27-2.09-.36-.27-2.36-2.08-.91-.82-2.44-1.9-1-.91-1.72-1.18-2.54-1.81-.54-.45-9.06-7.07-2.45-2.18-2.45-1.72-3.62-2.54-2.27-1.81-.72-.54 1.18-3.08 2.81-6.98 1.99-5.62 4.26-12.78-1.45-.63 2.26-6.07 6.98-14.05 1-.91.54-1.27.73-1.99 1.72-4.35 3.89-11.69 2.27-5.17 1.36-2.9 1.99-3.8 3.81-6.53 2.81-5.34 1.9-2.18 2.81-4.44 5.07-8.16 1.36-2.62.18-.46 1.18-1.9.64-1.18.45-.9.36-.55.46-.9.63-.82 1.81.36 1.81.27h2.63l.91-.09 1.9-.18 3.17-.36 5.26-.45.81-.09 3.45-.37 1.09-.18 1.45-.18 1.08-.09 2.54-.27 8.88-1 2.09-.27 2.53-.27 1.36-.27 2.63-.37 2.72-.36 6.07-.81 4.44-.46 3.62-.36 3.9-.36 3.17-.27 2.45-.19 13.86-1.17 1.63-.18 4.45-.37 6.61-.54 2.27-.18 10.33-.82 2.81-.18 6.16-.54.63-.09h.64l.9-.09h.73l1.99-.28 1.81-.09 2.09-.27 2.44-.54.55-.09.9-.18 1.09-.37 1.99-.63 1-.36 2.09-.91.99-.54 1.27-.55.45-.27 1.45-.81 1.82-1.18 1.26-.82.37-.27.63-.45 1.09-.82.54-.45 1.27-1.18 1.63-1.54 1.63-1.72.82-.91 1.81-2.17.55-.73.81-1 .91-1.17.45-.55.54-.72 1-1.18.73-1v-.09l2.26-3.17.91-1.27 1.99-2.81 2.18-3.17 2.17-3.26 1.09-1.72 1.63-2.72.63-1 .46-.82 2.08-3.62 1.09-1.99 2.44-4.81 1.91-3.9.99-2.08.82-1.81.36-.82.46-.99 2.08-5.17.72-1.63 2.27-5.62.45-.91.46-1.08 3.62-8.7 1.18-2.9 1.18-2.81 1.63-4.17 1.99-4.71 3.26-7.8.64-1.45 1.09-2.63 1.72-3.89 1.54-3.9 1.9-4.71 1.54-3.72 1.18-2.81.72-1.63 1.27-3.35.37-.82.45-.99.45-1.18.82-2.27 1.17-3.08.91-2.54 2.09-6.79 1.26-4.35.37-1.09.27-1 .09-.27 1.72-6.16 1-3.99.45-1.81.18-.64 1.36-4.71 1.54-5.53.18-.54.09-.45.18-.55.91-2.9.64-2.08 2.71-8.61 1.09-3.81.36-1.09.46-1.63.09-.27 1.27-4.8 1.17-4.8.64-2.91.63-3.35.46-2.54.99-6.07 1-5.53.45-3.17.09-.45-.9-.73.54-1.26.54-.55.64-1.99.63-1.81.37-.91.36-.91.18-.45.18-.45.45-.82.46-1 1.63-2.99 1.18-2.26 1.26-2.45 1-1.99.27-.46.82-1.54.63-1.08 1-1.73 1.27-2.17 1.18-2.18.27-.36.99-1.9 2-3.72 1.09-1.9 1.99-3.9 1.9-4.26 3.26-7.7 1.54-3.44.28-.55.27-.63.72-1.72.91-2 .91.18.99.19 4.08-10.06 1-2.81 3.53-10.33 4.89-11.69.82-1.46 4.8-7.43.82-1.36 2.26-3.62 1.73-2.81.09-.09 1.81-2.18 1.9-2.08 2.09-1.99 2.62-2.36 4.53-3.72.64-.54 1-.82 4.25-3.44 1-.81 9.06-7.35 6.89-5.61 4.08-3.08 5.16-3.72 1-.73 1.9-1.36 3.36-2.26 2.26-1.54 2.09-1.45 1.81-1.18.9-.54.55-.37.36-.18.63-.18 1.18-.45 4.71-1.63 5.08-1.63 1.45-.55 3.9-1.27 2.35-.81 3.81-1.36 1.72-.64 1.99-.81 1.45-.64 2.36-.99 1.36-.64 1.9-.99 2.81-1.45 3.17-1.82 2.9-1.72 7.34-4.44 5.98-3.53 1.63-1 11.78-7.07 2.45-1.54 2.08-1.54 2-1.54 2.08-1.81 2.09-2 .72-.72 1.09-1.09.09-.18 3.35-3.63 3.45-3.71 1.72-1.81 1.54-1.73 1.18-1.17 1.36-1.54.9-1 .91-.91.81-.99.91-.91.72-.82.91-.99.82-.82.9-1 2.36-2.62.18-.28.72-.81.73-1 .81-.99.19-.28.54-.72.72-1 .64-1 1.45-2.26.63-1 .64-1.18.63-1.08.55-1.18.9-1.81 1.09-2.09.45-.81.27-.64 1.36-2.63.55-1.18 2.53-5.07 3.45-6.89.72-1.45 1.54-3.17 1.18-2.72 3.99-8.34 1.45-2.8 3.17-7.07 2.08-4.08 1.64-3.63.63-1.27.82-1.72.63-1.45.27-.63 1.09-2.09.72-1.36 1.18-2.08.82-1.45 1.99-3.72.45-.81.64-1 3.89-6.43.55-.91 1.45-2.54 3.26-5.43 2.18-3.72.36-.63v-.09l.99-1.82 2.36-3.98.63-1.18 2.09-3.36 4.53-7.7 1-1.72.9-1.63.64-1.27.36-.91.54-1.36 1.09-3.08.54-1.72 1-3.72.64-2.26.72-2.9.27-1.09.64-2.44.27-1.36.36-1.36.27-1 .64-2.54.36-1.54.72-2.81 1.45-5.8.64-2.26 1.99-8.34 1.45-5.53.64-2.72.54-2.08 1.18-4.81.9-3.89.64-2.81.54-3.17.46-3.36.18-2.17.18-1.27v-1.09l.27-3.35.09-2.09.27-4.16.18-3.63.18-2.54.1-1.9.09-1.27.18-2.9.09-1.54.27-2.72.18-1.09.27-1.45.27-1.26.37-1.36.27-1.18.09-.27.27-.91.45-1.18.1-.36.36-.82.45-1.08.64-1.18.45-1.09.72-1.36.64-.9.63-1.09.91-1.27.45-.55 2.09-2.35 10.69-11.96 5.25-5.89 4.63-5.08 9.24-10.15 1.9-2.08 3.81-4.26 4.62-4.9 1-1.08 2.08-2.36 1.81-2.08 1.18-1.27 2.99-3.27 1.81-1.81 1.18-1.27 1.18-1.09.45-.45.82-.72 1.54-1.36 1.09-.91 7.7-6.16 2.54-2 4.44-3.53 5.52-4.44 3.08-2.63 1.91-1.72.9-.82 1.09-1.17 1.54-1.73.64-.72 1.63-1.72 2.08-2.36 2.54-2.99 4.44-4.8 2.99-3.45 1.9-2.17.82-.82.54-.54 1.18-1.18 1.54-1.18 1.36-.9 1.9-1.18 1.63-.82 2.81-1.27 1.09-.45 1-.45 2.9-1.18.99-.45 2.63-1.09 2.63-1.09 1.54-.63 1.99-.91 5.98-2.54 1.63-.63 2.99-1.18 3.72-1.63 4.89-2.08 3.63-1.55.72-.27 1.63-.72.91-.36.73-.37.72-.36.91-.54 1.36-.82 1.9-1.36 1-.72 1.08-.91.27-.27.55-.45 1.18-1.09.54-.64 2.36-2.62 2.9-3.63 4.71-5.98 2.9-3.54 1.81-2.17 1.81-1.99.09-.09 1.36-1.54 2.9-3 .36.46 1 .99 1.27 1 1 .64 1.17.63 1.55.63.63.46.54.54.64.82 1.36 2.17 1.36 2 1.08 1.35.55.64.9 1.09 1.18.99 1.45 1.45.82.64 1.08.36 1.09-.09 4.9-1.09 2.35-.54-3.71 46.31-2.45 22.02-3.26 16.4-.27 1.54-6.17 32.36-.72 2.9-4.53 7.43-.18 1.36-.28.9-.45.91-.45.82-.91 1.08-1.36 1.45-2.17 2.18-1 1.09-.72.99-.73 1.27-.63 1.27-.46 1.36-.27 1.27-.18 1.18-.09 1.27.09 1.26.18 1.36.36 1.54.64 1.82.81 2.26.19.45.45 1 .54 1 .46.63.63.64.82.45.9.45 1.18.46 2.36.63 1.81.45.99.28 1 .45.91.54.63.55.45.54.37.73.27.72.18.82v1.72l-.18.72-.27.64-.46.72-.36.36 5.26 20.4 4.08 16.04 3.26 12.77-1.45 2.63-.27.46.36.18 5.25 1.63 2.36-1.81 5.44.9 2.81 3.17 9.06 10.34 3.08 2.8 1.45 5.26-14.86 13.78-8.34 7.88-4.35 4.08v.36l-1.54.09-.63.36-.82.55-.63.54-.37.64-.18.63-.09.63-.09.73v.91l.36 1.54.55 1.36.81 1.81 1.36 1.9 1.45 2.36.91 1.36.27 2.35v1l-.09.91-.27.9-.36.91-7.34 13.32-.37 1.09-.09.9v.82l.73 4.26 1.81 13.41.63 4.26.19 1.09.72 1.54.63.81.91.55 2.72 1.27 1.09.45 1.17.18h1.09l.64-.09.99.09.37 2.09.27.9.36.82.45.9.64.82.72.73.73.63.72.36.64.27.72.09 1.27.09v1.64l.09.36v.54l.18 1.45.64 4.72.18 1.26.36 2.27.36 1.9.09.91 2.45 2.08 1.27 1.36.81.73.73.63 3.26 3.08 3.17 3.08 1.09 1.09 1.27 1.18 1.18 1 1.72 1.36 1.81 1.17 1.81 1.18 1.91 1 1.9.91.54.27 3.08 1.08 2.36.73.82.18.99.27.82.09.81.19 1.09.18h.54l1 .09 1.45.09 1.81.09 4.72-.27 13.41-1.18 2.53-.18 16.68-1.27 1.36-.18.72-.09 1.36-.18.73-.1.54 2.54-.09.82v.99l-.27 3.99-.36 4.8-.28 3.54-.27 1.99-.27 2.45 1.36.36 1.36.55 1.36.63.72.45 1.27.91 1.99 1.18 1.55.63 1.17.73 1.18.81 1.63 1.36 2.09 1.63 1.9 1.45 1.81 1.27 1.45.64 1.18.09 1.09.18.9-.18 2.27-1.18 3.71-1.9 3.81-1.82 3.26-.9 2.72-.64 1.27-.09 1.54-.18.91-.18 1.81-.63 1.18-.55 1.72-.81 1.45-1 1.81-1.36 1.27 5.44 1.81 18.85.18.54.27.18-2.9 4.26-1.26 4.44.99 5.53 3.08 4.26.37 1.81.36.73.72.9 1.54 1.36.55.91.63 2.45-.27 1.17-.45 1.27-.37 1.45-.18 1 .09.73.46 1.35.63.91.73.45 2.08 1.36-3.53 6.71-.28.91-4.07-1.18.54 7.7.27 4.44 8.88-2.36 10.51-6.25 2.27-1.27.72-.27 5.71-2.99 1.09-.72.73-.73.18-.72-.18-1.36 6.61-3.81.91.91 1.08.27.91.27 1.27-.09h1.54l1.9-1.27 1.27-1.18 1.36-.54 1.81-.36.82-.18 1.18-.28h1.72l.63.28 1 .36 1 1.08h.36l.27-.36-.36-.72-.18-1.18.18-2.63 1.9 1.9 2.54 1.36 1.63.64 1.36.36 1.45-.09 1.9-.36.36-.36.73-2.09.72-1.63 2.45-1 .64 2.99.36 1.18.81 2.09.64 1.08 1.08 1.82.64.72 1 .73.72.27.73.09.81.18.91.18-1.27.54 1.27 3.54.63 1.36.91 1.54.45.72.54.46.73.27 3.17.18 4.44.27 2.72.36 1.54.28 1.18.54.72.54 1 1.09.91 2.18.09 1.45-.09 1.63-.37.9-1.63 3.54-.54 1.54-.36 1.45-.46 5.07-.09.91.37 1.81-6.17 20.66.37 11.88 2.44 1.63.91.36h.27l-1.36 4.26-.72 3.26v1.54l.36 3.17 19.03 9.88 1.54.82 7.07-6.25 3.26-2.81 2.08-.55 1.36.64-1.17.09-1.36.45-.91.45-.54.64-.55.81-.09.37v.9l44.31 7.16 10.06 5.53 6.35 3.44.45.28-.82 1.26-.18.82-.36 1.27.09 2.26 1 4.81.9 2.99 1.72 3.8 1.27 1.36 1.63 1.18 3.54-.54 5.89-2.9 12.05-5.08 3.72-.99.81-.09.45-.1h.28l.9.1 2.54.54 2.72.72 1.09.46.63.18.72.45.19.36v.82l-.19.27-.72.45-.63.37-1.09.9-.45.55-.37.81-.27 1.36-.72 3.99-1.18 3.08-.91 3.08-.27 1.45-.09.64.18.72.36 1.09.55 1.18 1.27 2.99 1.72 2.99 1.27 2.72 1.45 2.44.54.64.45.54 1.54 1.27.64.45.63.37.64.27.63.18 3.44.36 1.82-.09 1.63-.36h.63l.45.18.37.18.45.36.54.73.37.63 2.35 5.26 4.53 9.06 4.17 7.89.45.72.37.55-1.18.63-1.45.91-2.36 1.45-1.99 1.27-3.81 2.26-2.17 1.18-1.99 1-.28.09-.9.45-2.36 1-2.54.99-5.8 2-3.71 1.36-1.99.72-2.09.64-4.44 1.35-1.99.64-.82.27-2.26.73-6.07 1.9-4.72 1.54-6.25 1.99-.72.28-.37.18-1.27.45-.63.18-2.72.82-1.54.45-3.08 1-6.07 1.9-2.27.72-2.08.73-1.18.36-.45.18-.64.28-.9.36-.91.45-1.09.55-.09.09-1.36.81-.9.55-1 .63-.36.27-.64.36-.99.82-1.09.81-1.09 1-.99.82-.55.54-.45.45-.54.55-.73.81-.63.64-.46.54-.72.82-.36.36-.37.54-.81 1.09-.09.09-.64 1-.72 1-.64 1.08-.63 1.09-.54 1-.64 1.18-.63 1.45-.73 1.72-.54 1.54-.55 1.36v.09l-1.35 3.8-.28 1-.81 2.18-.91 2.53-1 3.09-.45 1.35-1.72 4.99-1.27 3.71-1.63 4.99-1.9 5.53-1.27 3.71-1.54 3.81-1 2.26-1.54 2.72-2.72 4.35-1.45 2.18-.09.18-.63.81-.91 1-.72.91-.82.9-1.09 1.18-.99.91-.55.54-.9.82-.37.36-.54.45-1.54 1.09-1.36 1-1.18.81-1.36.82-1.36.82-.99.54-1.27.72-1.09.55-1.45.63-.54.18-2.18 1.09-4.26 1.9-3.53 1.64-1.27.63-.72.36-.82.45-1.27.73-1.09.72-.36.19-.99.72-.82.64-1.09.72-.9.73-1 .81-1 .91-.81.72-.91.91-1.18 1.18-.81.99-1.45 1.73-1.18 1.45-1.72 2.53-1.36 2.09-1.27 2.35-1.18 2.36-1.54 3.35-1.18 2.81-1.54 3.08-.99 2.63-.73 1.63-.27.55-.54 1.17-1 2.09-1.36 3.17-1.45 3.35-.91 2.09-.63 1.36-.91 1.9-.81 1.9-2.9 6.53-1.45 3.26-.46.91-1.54 2.9-1.72 3.35-1.36 2.36-1.27 1.99-2.17 3.17-1.18 1.72-.9 1.27-.73.91-1 1.18-2.35 2.81-2.63 2.81-1.54 1.45-2.72 2.63-.91.81-.63.54-1.09.91-.63.54-2.45 1.91-2.99 2.08-1.72 1.27-2.72 1.81-3.62 2.45-.46.27-1.9 1.36-2.72 1.81-2.08 1.54-2.18 1.82-1.36.99-5.16 4.35-.09.09-2.81 2.72-1.09 1.09-.54.64-.91 1.08-1.54 1.72-.91 1.18-1.81 2.45-1.54 2.26-1.54 1.91-1.54 1.72-2.54 3.08-2.17 2.45-1.81 1.9-1.54 1.81-1 1.09-.64.64-4.44 4.71-1.26 1.18-1.27 1.26-2.18 2.09-.63.54-1.27 1.27-3.17 3.17-.91.91-1.36 1.45-3.26 3.26-.09.18-8.07 8.43-6.79 6.98-5.35 5.44-1.09.99-1.81 1.82-1.45 1.45-.36.27-2.54 2.45-1.9 1.72-4.89 4.71-2.09 1.63-1.54 1.27-3.26 2.36-1.81 1.08-2.63 1.64-2.81 1.45-2.81 1.44-1.18.46-.45.09-.73.27-1.17.36-2.72.82-2.36.63-2.17.64-1.91.36-2.08.36-2.45.27-1.26.19-1.55.09h-1.08l-1.36.09h-3.26l-2.54-.18-3.17-.37-2.99-.63-.91-.18-1.36-.27-1.18-.28-3.8-.81-.46-.09-3.17-.82-1.27-.36-1.63-.36-.45-.18-2.36-.55-2.99-.72-1.27-.27-1.45-.28-3.44-.54-3.44-.36-1.63-.09-1.82-.18h-5.8l-1.08.09-7.43.54-13.78 1.45-3.71.36-4.17.36-2.54.28-30.08 2.9-8.7.81-4.53.46-2.99.27-8.07.72-3.26.36-3.53.37-1.91.18-4.8.36-2.99.36-2.63.18-4.26.46-6.88.63-1.45.18-19.22 1.82-3.08.27-2.62.27-4.08.36-1.54.27-1.63.37-1.36.36-1.09.27-1.18.36-1.09.37-1.17.45-1.09.36-1.09.54-.72.37-1.45.72-.64.36-1.18.73-1.99 1.27-2.36 1.81-2.71 1.99-2.18 1.64-10.42 7.79-.36.18-1.27.91-.73.54-7.34 5.53-4.71 3.53-3.71 2.81-2.54 1.82-1.81 1.36-3.27 2.44-1.54 1.18-1.36 1-4.44 3.26-2.26 1.63-3.81 2.9-5.89 4.44-1.99 1.54-2.81 2-1.27.9-1.99 1.36-1.9 1.27-2.18 1.45-3.08 1.81-2.08 1.18-.82.54-1.9.82-1.72.82-.55.27-1.63.72-.63.27-3.99 1.54-2.09.82-2.44.73-3.45.99-5.89 1.45-5.43 1.18-5.26 1.18-5.34 1.09-3.81.9-3.08.64-2.9.72-3.9.82-1.18.27-1.9.36-1 .18-1.17-.45-1.73.36-3.44.82-1.63.36-1.81.36-1.72.37-1.54.36-1.82.36-1.63.36-.81.18-.82.19-10.78 2.35-1.82.46-3.26.81-2.72.82-2.26.9-2.09.91-1.81.9-1.72 1-1.72 1.09-1.63 1.18-1.91 1.54-1.81 1.63-1.81 1.72-1.45 1.54-2.08 2.63-1.36 1.9-2 2.99-1.27 2.18-.81 1.81-1.54 3.35-.09.28-.73 1.72-.81 1.99-.82 1.81-.72 1.64-.28.72-.27.64-.9 2.26-.64 1.45-1.63 3.9-1.27 3.26-1.08 2.54-1 2.35-.91 2.27-.36.82-.36.99-.73 1.81-.72 1.64-.55 1.45-.9 1.99-.82 2.08-.99 2.27-1.36 3.26-.91 2.27-1.36 3.17-1 2.45-2.17 5.07-1.81 4.44-1.63 3.99-1.09 2.63-1 2.26-1.63 3.72-.18.36-.64 1.54-.36 1-.54 1.09-1.09 2.72-1 2.62-.63 1.54-.45 1.27-2.45 5.35-1.09 2.36-2.72 5.52-.81 1.82-1.09 1.99-1.45 2.63-.81 1.45-.91 1.63-2.54 4.44.64.54-2.63 4.35-.82 1.18-2.72 3.17-2.26 4.35-1.54 2.27-7.34 11.06-1 1.45-1.99-.19-1.36 2.45-.91 1.45-1.27 2.09-.72 1.17-.91 1.45-.9 1.09-1 1.45 1.54.09-4.08 6.16-.99 1.27-2.72 3.9-.27.45-.55.73-.99.45-1.45 2.18-2.99 4.53-.55.81-1.27 2-1.63 2.35-.54.91-1.18 1.63-.91 1.27-.99 1.54-1.36 2.27-1.63 2.44-2.09 3.08-.63.91-2.81 4.08-1.99 2.9-.91 1.45-.54.81-.55.82-1.09 1.63-1.26 1.9-2.81 4.26-.91 1.36-1.81 2.63-1.45 2.27-.73.99-2.35 3.54-.46.72-.72 1.09-1.63 2.54-1.45 2.08-1.09 1.63-1.54 2.27-1.81 2.72-.91 1.27-1.27 1.99-1.08 1.63-.46.73-4.08 6.07-2.99 4.53-.54.81-1.54 2.45-1.09 1.54-1.45 2.18-.63.81-1.81 2.36-1.18 1.45-1.36 1.72-.36.36-.37.37-.9.9-.73.64-9.87 7.43-.46.27-.54.36-1.27.73-1.18.54-1.45.73-1.9.81-1 .46z" stroke-linejoin="round"/></defs><use xlink:href="#i" fill="#09757a" stroke="#097d9b" stroke-width="5.76"/><defs><path id="j" d="M2072.15 1665.14l-1.82.55-2.44.54-1.81.36-2.09.28-2.17.09h-2l-1.45-.09-1.81-.19-1.81-.09-1.9-.27-11.69-1.27-13.87-1.45-11.6-1.36-1.9-.27-2.45-.27-5.16-.54-2.18-.19-5.34-.54-2.45-.36-1.18-.18-4.35-.64-4.89-.63-1.9-.27-2.9-.73-2.54-.72-1.18-.37-.54-.27-2.36-.9-2.27-1.09-1.99-1.18-1.18-.63-.45-.28-3.44-1.99-2.09-1.27-1.54-.9-1.72-1-.72-.36-2.81-1.36-1.27-.55-.73-.27-3.44-1.54-3.53-1.54-.55-.18-.54-.27-.82-.37-3.35-1.45-2.99-1.35-2.54-1.09-3.35-1.36-1.45-.64-1.9-.81-4.26-1.72-2.54-1.18-1.18-.45-1.9-.82-.73-.36-.81-.27-.73-.37-7.61-3.26-1.63-.63-2.08-.73-2.54-1-6.89-2.99-2.99-1.36-2.08-.9-4.53-1.91-5.44-2.35-5.71-2.45-1.99-.81-3.54-1.45-3.62-1.64-4.9-2.17-3.08-1.36-3.26-1.09-.27-.09-4.08-1.63-.63-.18-3.45-1.45-3.08-1.36-.45.09-.63-.27-.91-.27-2.36-1.09-.27-.09-.54-.36-.82-.37-.27-.36-.91-.36-2.08-.91-2.9-1.27-.81-.36-2.18-.9-2.54-1-5.52-2.36-1.91-.72-1.9-.82-3.9-1.72-1.99-.73-1.63-.72-1.81-.73-.64-.27-.36-.18-1.72-.63-2.54-1.09-2.08-.91-1.54-.63-.64-.27-3.44-1.36.18-2.18.09-2.08v-1.18l.63-22.84.09-2.17.19-5.62.18-6.8.27-8.52.09-1.72v-1.09l-.18 1.63-1 14.23-.63 1.18-.28 4.53-.18 2.45-.27 4.62-.72 20.3-.09 1.9-.28 2.81-1.26-.36-.91-.18-.54-.09-1.18-.09-.64-.09h-3.62l-.45.09-1.73.09-8.97 1-5.62.54h-1.08l-9.43.73-9.51.72-5.62.45-5.26.64-5.43.81-.46.09-1.81.46-.81.18-1.45.36-.55.18-.9.27-3.45 1-7.16 2.18-1.99.54-2.36.27h-.81l1.36-1.72 1.18-1.45 1.81-2.36.63-.81 1.45-2.18 1.09-1.54 1.54-2.45.54-.81 2.99-4.53 4.08-6.07.46-.73 1.08-1.63 1.27-1.99.91-1.27 1.81-2.72 1.54-2.27 1.09-1.63 1.45-2.08 1.63-2.54.72-1.09.46-.72 2.35-3.54.73-.99 1.45-2.27 1.81-2.63.91-1.36 2.81-4.26 1.26-1.9 1.09-1.63.55-.82.54-.81.91-1.45 1.99-2.9 2.81-4.08.63-.91 2.09-3.08 1.63-2.44 1.36-2.27.99-1.54.91-1.27 1.18-1.63.54-.91 1.63-2.35 1.27-2 .55-.81 2.99-4.53 1.45-2.18.99-.45.55-.73.27-.45 2.72-3.9.99-1.27 4.08-6.16-1.54-.09 1-1.45.9-1.09.91-1.45.72-1.17 1.27-2.09.91-1.45 1.36-2.45 1.99.19 1-1.45 7.34-11.06 1.54-2.27 2.26-4.35 2.72-3.17.82-1.18 2.63-4.35-.64-.54 2.54-4.44.91-1.63.81-1.45 1.45-2.63 1.09-1.99.81-1.82 2.72-5.52 1.09-2.36 2.45-5.35.45-1.27.63-1.54 1-2.62 1.09-2.72.54-1.09.36-1 .64-1.54.18-.36 1.63-3.72 1-2.26 1.09-2.63 1.63-3.99 1.81-4.44 2.17-5.07 1-2.45 1.36-3.17.91-2.27 1.36-3.26.99-2.27.82-2.08.9-1.99.55-1.45.72-1.64.73-1.81.36-.99.36-.82.91-2.27 1-2.35 1.08-2.54 1.27-3.26 1.63-3.9.64-1.45.9-2.26.27-.64.28-.72.72-1.64.82-1.81.81-1.99.73-1.72.09-.28 1.54-3.35.81-1.81 1.27-2.18 2-2.99 1.36-1.9 2.08-2.63 1.45-1.54 1.81-1.72 1.81-1.63 1.91-1.54 1.63-1.18 1.72-1.09 1.72-1 1.81-.9 2.09-.91 2.26-.9 2.72-.82 3.26-.81 1.82-.46 10.78-2.35.82-.19.81-.18 1.63-.36 1.82-.36 1.54-.36 1.72-.37 1.81-.36 1.63-.36 3.44-.82 1.73-.36 1.17.45 1-.18 1.9-.36 1.18-.27 3.9-.82 2.9-.72 3.08-.64 3.81-.9 5.34-1.09 5.26-1.18 5.43-1.18 5.89-1.45 3.45-.99 2.44-.73 2.09-.82 3.99-1.54.63-.27 1.63-.72.55-.27 1.72-.82 1.9-.82.82-.54 2.08-1.18 3.08-1.81 2.18-1.45 1.9-1.27 1.99-1.36 1.27-.9 2.81-2 1.99-1.54 5.89-4.44 3.81-2.9 2.26-1.63 4.44-3.26 1.36-1 1.54-1.18 3.27-2.44 1.81-1.36 2.54-1.82 3.71-2.81 4.71-3.53 7.34-5.53.73-.54 1.27-.91.36-.18 10.42-7.79 2.18-1.64 2.71-1.99 2.36-1.81 1.99-1.27 1.18-.73.64-.36 1.45-.72.72-.37 1.09-.54 1.09-.36 1.17-.45 1.09-.37 1.18-.36 1.09-.27 1.36-.36 1.63-.37 1.54-.27 4.08-.36 2.62-.27 3.08-.27 19.22-1.82 1.45-.18 6.88-.63 4.26-.46 2.63-.18 2.99-.36 4.8-.36 1.91-.18 3.53-.37 3.26-.36 8.07-.72 2.99-.27 4.53-.46 8.7-.81 30.08-2.9 2.54-.28 4.17-.36 3.71-.36 13.78-1.45 7.43-.54 1.08-.09h5.8l1.82.18 1.63.09 3.44.36 3.44.54 1.45.28 1.27.27 2.99.72 2.36.55.45.18 1.63.36 1.27.36 3.17.82.46.09 3.8.81 1.18.28 1.36.27.91.18 2.99.63 3.17.37 2.54.18h3.26l1.36-.09h1.08l1.55-.09 1.26-.19 2.45-.27 2.08-.36 1.91-.36 2.17-.64 2.36-.63 2.72-.82 1.17-.36.73-.27.45-.09 1.18-.46 2.81-1.44 2.81-1.45 2.63-1.64 1.81-1.08 3.26-2.36 1.54-1.27 2.09-1.63 4.89-4.71 1.9-1.72 2.54-2.45.36-.27 1.45-1.45 1.81-1.82 1.09-.99 5.35-5.44 6.79-6.98 8.07-8.43.09-.18 3.26-3.26 1.36-1.45.91-.91 3.17-3.17 1.27-1.27.63-.54 2.18-2.09 1.27-1.26 1.26-1.18 4.44-4.71.64-.64 1-1.09 1.54-1.81 1.81-1.9 2.17-2.45 2.54-3.08 1.54-1.72 1.54-1.91 1.54-2.26 1.81-2.45.91-1.18 1.54-1.72.91-1.08.54-.64 1.09-1.09 2.81-2.72.09-.09 5.16-4.35 1.36-.99 2.18-1.82 2.08-1.54 2.72-1.81 1.9-1.36.46-.27 3.62-2.45 2.72-1.81 1.72-1.27 2.99-2.08 2.45-1.91.63-.54 1.09-.91.63-.54.91-.81 2.72-2.63 1.54-1.45 2.63-2.81 2.35-2.81 1-1.18.73-.91.9-1.27 1.18-1.72 2.17-3.17 1.27-1.99 1.36-2.36 1.72-3.35 1.54-2.9.46-.91 1.45-3.26 2.9-6.53.81-1.9.91-1.9.63-1.36.91-2.09 1.45-3.35 1.36-3.17 1-2.09.54-1.17.27-.55.73-1.63.99-2.63 1.54-3.08 1.18-2.81 1.54-3.35 1.18-2.36 1.27-2.35 1.36-2.09 1.72-2.53 1.18-1.45 1.45-1.73.81-.99 1.18-1.18.91-.91.81-.72 1-.91 1-.81.9-.73 1.09-.72.82-.64.99-.72.36-.19 1.09-.72 1.27-.73.82-.45.72-.36 1.27-.63 3.53-1.64 4.26-1.9 2.18-1.09.54-.18 1.45-.63 1.09-.55 1.27-.72.99-.54 1.36-.82 1.36-.82 1.18-.81 1.36-1 1.54-1.09.54-.45.37-.36.9-.82.55-.54.99-.91 1.09-1.18.82-.9.72-.91.91-1 .63-.81.09-.18 1.45-2.18 2.72-4.35 1.54-2.72 1-2.26 1.54-3.81 1.27-3.71 1.9-5.53 1.63-4.99 1.27-3.71 1.72-4.99.45-1.35 1-3.09.91-2.53.81-2.18.28-1 1.35-3.8v-.09l.55-1.36.54-1.54.73-1.72.63-1.45.64-1.18.54-1 .63-1.09.64-1.08.72-1 .64-1 .09-.09.81-1.09.37-.54.36-.36.72-.82.46-.54.63-.64.73-.81.54-.55.45-.45.55-.54.99-.82 1.09-1 1.09-.81.99-.82.64-.36.36-.27 1-.63.9-.55 1.36-.81.09-.09 1.09-.55.91-.45.9-.36.64-.28.45-.18 1.18-.36 2.08-.73 2.27-.72 6.07-1.9 3.08-1 1.54-.45 2.72-.82.63-.18 1.27-.45.37-.18.72-.28 6.25-1.99 4.72-1.54 6.07-1.9 2.26-.73.82-.27 1.99-.64 4.44-1.35 2.09-.64 1.99-.72 3.71-1.36 5.8-2 2.54-.99 2.36-1 .9-.45.28-.09 1.99-1 2.17-1.18 3.81-2.26 1.99-1.27 2.36-1.45 1.45-.91 1.18-.63 2.53 5.16 3.99 7.25 2.81 3.63 2.08 3.08 1.27 1.9 1.27 2.27.91 2.26.27 1.81.27 1.91.46 3.8.72 2.72.91 1.09.9.91 1.72.9 4.9 1.91 1.18.18 2.44-.64 4.9 1 4.07 2.08 6.71 3.18 6.16 3.8 3.63 2.36 6.34 3.71 4.17 2.99 1.63 1.91.54 1.36v2.08l-1.18 1.36-1.45 1.54-1.72 2.18-.9 1.27-.28.9-.36.73-2.17 2.08-2 2.54-1.81 1.9-1.54 1.27-1.99.91-1.63.99-.64 1.18-.18 1.45.27 1.18.55 1.18.45.54.36.64.73.54 1.81.91 1.63.27 4.98 1.36.91.27 11.96 6.07 1.27.82 1.09.63.9 1.36 1 1.81.09.27 1.81 3.81.37.73 2.99 4.89 1.99 1.72 4.8-.54 3.9-.55 3.26-.72 9.52-2.09 1.9-1.08 4.89-2.63 5.53 3.17 3.53 1.81 6.98 2.72 3.72 1.09 8.24 1.63 24.83 12.78 4.81 3.26 5.52 4.71 4.17 3.99 7.34 8.7 7.98 12.33 1.81 3.53 1.18 3.08 1.08 3.72.73 6.07-.09 3.53-1 6.26-.54 1.54-.64 2.81-.27 1.54-.09 1.81.18 2.17.27 2.45.64 2.27 1.45 16.58 1.18 13.6.45 5.52.45 4.54.18 6.52v7.98l.64 16.76-1.91 18.58-2.08 5.98-7.61 22.84-2.45 6.79-4.98 12.51-6.07 2.18-8.16.72h-3.53l-5.17 1.18-6.7 2.54-7.07 3.98-4.8 4.26-4.45 6.17-3.17 7.7-.72 6.61.18 5.44.91 4.53 2.26 5.17 3.99 6.07 2.72 4.17 4.26 5.44 3.62 4.26 2.08 4.98 2.81 9.24.82 6.71.27 5.98.27 7.43-.18 6.07-1.27 4.45-1.9 3.53-2.54 3.9-4.17 5.62-14.68 25.19-12.86 21.66-6.98 15.77-2.99 6.16-3.26 5.98-3.17 5.08-5.17 7.52-4.62 5.71-2 2.17-9.24 9.25-11.51 11.51-9.69 9.69-6.53 6.62-5.89 6.7-10.69 14.23-6.62 10.79-7.06 13.68-7.71 15.14-4.71 9.51-8.97 17.76-2.63 5.44-9.69 15.68-2.72 4.44-1.9-1.54-2.63-2.27-.55-.45-5.98-6.25-.54-.55-.45-.72-.55-1-.54-1.27-.91-1.99-.54-1.36-.82-2.36-.81-1.81-.64-1.18-.54-.99-1.18-1.64-1.36-1.63-1.27-.36-1.26-1.27-1.09-.99-1.36-1-1.27-.91-1.27-.72-1.27-.73-1.27-.63-1.08-.27-.91-.28-1-.27-1.36-.27-1.45-.18-1.35-.27-1.91-.18-1.08-.28-1.36-.45-1-.36-1-.45-1.36-.82-1.08-.63-1.36-1-.91-.82-.91-.72-.81-.82-.91-.9-.99-1.27-1.18-1.63-1.91-2.9-1.9-2.99-2.45-3.36-.99-1.63-1-1.36-.54-.99-1-1.73-.81-1.72-.64-1.45-.81-2.26-.37-1.18-.81-3.17-.27-1.54-.37-1.64-.27-1.9-.36-1.9-.45-2.9-1.09-5.62-.36-2.27-.91-4.26-.54-2.62-.37-1.45-.45-1.91-.09-.45-.73-3.26-.72-3.27-1-4.8-.36-1.72-.36-1.99-.64-3.36-.54-3.53-1.36-8.52-.18-1.54-.27-2.27-.09-1.27-.55-4.89-.54-5.07-.36-3.27-1.36-12.23-.55-4.26-1.08-9.88-.46-4.35-.63-6.25-.27-3.35-.18-2.18-.09-1.9-.55-5.35-.36-3.99-.18-1.9-.18-1.36-.27-1.99-.19-1.27-.54-4.62-.72-6.35-.82-6.43-.27-2.72-.46-3.26-.36-3.54-.36-2.72-.36-3.17-.18-1.54-.18-.82-.55-3.53-.45-3.08-.45-3.99-.19-1.45-.27-1.45-.36-1.09-.54-1.26-.55-1.36-.72-1.27-.46-.91-.63-.81-.54.18-1 .45-1.36.54-.36.19-.46.18-1.99 1.08-.63.28-1.18.63-.27.18-1.45.82-1.36.9-1.54.91-1.09.72-.18.09-1.27.91-1.63 1.09-1.27.91-.27.27-1.18.9-1.27 1.09-.54.45-.82.73-2.17 1.9-6.44 6.25-1.45.55-.45.09h-.36l-.45-.18-.55-.27-.36-.46-.64-.9.46 3.89.09 1.09-1.18 1.18-.54.54-1.54 1.18-3.9 3.08-.27.18-.55.37-.72.54-.27.18-1.18.73-.64.36-2.17 1.27-2.27 1.18-.81.36-1.81.81-1.73.64-2.71 1-2.72.81-2.72.73-8.97 2.17-17.31 4.35-.82.18-.9.27-5.53 1.36-.81.27-2.36.55-.54.18-1.73.45-1.63.46-3.8 1.27-1.09.45-1.99.81-.46.19-.9.45-1.73.81-1.26.64-2.18 1.18-2.17 1.08-5.8 3.09-3.54 1.9-4.35 2.26-4.07 2.18-2.27 1.36-1.99 1.27-1.36 1.08-1.91 1.54-1.99 2-1.9 1.9-1.63 1.9-1.82 2.27-1.99 2.81-1 1.54-.81 1.63-.18.36-1.82 3.9-.72 1.45-1.36 2.99-.18.55-5.17 11.6-3.26 7.25-1.09 2.44-.9 1.72-1 1.64-1.18 1.63-1.26 1.54-.73.72-.82.82-.45.45-.45.36-.55.46-.54.36-.72.54-1 .64-3.26 1.9-1.72 1-2.63 1.54-2.27 1.36-1.99 1.27-.55.45-.63.36-.72.64-.64.54-1.36 1.27-.99.91-1.18 1.26-1.18 1.18-.64.73-.54.63-4.98 6.62-7.89 10.33-1.9 2.45-4.62 6.25-.36.45-.91 1-1.36 1.18-1.45 1.17-1.45 1.09-1.54.91-1.36.63-1.45.55-1.54.36-2.08.36-6.26 1-12.68 1.72-1.81.36-1.82.46-1.54.45-.9.27-.82.27-1.63.64-.63.27-.73.27-.81.36-.82.46-.63.27-.91.54-.91.46-.36.18-1.36.81-.91.64-.9.54-1.45 1.09-1 .72-1.18.82-1.45 1.18-.81.63-.82.64-.99.9-.64.64-.72.63-.91 1-.81.9-.82 1-1.54 1.72-2.18 2.54-1.08 1.27-1 1.18-.91 1.17-.99 1.18-4.35 4.99-3.26 3.8-3.36 3.99-3.8 4.53-3.81 4.62-3.17 3.9-.73.91-1.08 1.08-.91.91-1.09 1.09-.72.63-.91.73-.72.54-.73.54-.81.46-1.09.81-.91.46-.99.63-.91.45-1.09.46-1.99.99-1.18.46-2.45.81-2.26.64-2.36.45-2.44.36-2.36.27-3.72.37-5.61.63-5.62.55-1.72.27-1.73.18-1.81.18-1.63.18-1.99.36-2 .46-1.9.72-1.9.82-1.9.99-1.73 1.09-1.72 1.18-1.72 1.27-2.27 1.81-2.71 2.09-2.36 1.81-3.81 2.99-.99.72-1 .82-.81.63.36 1v.82l-.27.81-1.54 1-3.81 3.08-.82.09-1.36-.27.28 1.45-5.8 4.8-9.79 8.07-2.9 2.08-1.36.55-.54-.82-.82.72-.72.73-2 2.18-1.99 2.35-1.9 2.36-.09.27-1.63 2.27-1.64 2.53-.72 1.36-.54.82-.37.72-.27.55-1.45 2.9-.54 1.27-.82 1.81-.63 1.72-.64 1.63-.36.91-.36.99-.27.73-.18 1-.37 1.17-.09 1 .09 1.99.09.82.09.91.19.81.09.64.09.54.45 1.72.09.36.45 1.18.91 2.54-1.45.45-2.9 1.09-2.72.82-.09.09-1.45.45-.91.36-.54.27-.09.1-.72.45-.82.63-1.09 1-.99 1.18-1.18 1.63-1.81 2.45-1.91 2.17-1.63 1.99-1.54 1.73-1 .99-1.36 1.27-1.45 1.18-1.45 1-1.63.9-1.36.64-1.17.54-1.63.73-5.71 2.08-1.45.45z" stroke-linejoin="round"/></defs><use xlink:href="#j" fill="#09757a" stroke="#097d9b" stroke-width="5.76"/><defs><path id="k" d="M2017.59 2215.06l-.99-1.18-1.09-1.09-1.09-1.27-.72-.81-4.35-4.81-1.18-1.36-.81-.81-1.91-2.09-1.45-1.72h-.09l-4.71-5.35-4.08-4.53-1.09-1.26-4.16-4.63-9.79-11.05-7.79-8.7-1.63-1.82-1.55-1.63-1.63-1.9-3.35-3.72-3.81-4.26-1.08-1.17-.91-1-1.72-1.99-.45-.46-1.73-1.99-3.17-3.44-2.17-2.36-4.9-5.53-.9-1-.82-.99-.99-1-2.81-3.17-1.63-1.81.45-1.27h-.64l-2.99-2.63-22.56-26.37-3.53-3.9-1.73-1.72-4.62-5.17-2.81-2.9-11.41-12.87-.55.64-4.26-4.9-11.96-13.32-.81-.9-1.09-1.18-3.99-4.44-1.18-1.36-1.54-1.63-1.9-2.09-2.54-2.9-2.17-2.44-2.09-2.45-.81-.82-6.62-7.43-5.16-5.8-1.09-1.18-1.99-2.26-2.18-2.45-5.71-6.43-7.25-8.16-1.81-1.99-4.98-5.62-1.18-1.27-4.62-5.17-8.61-9.51-2.72-2.99-.81-.91-1.54-1.72-2.18-2.54-.91-.99-.63-.64-.54-.72-1.45-1.63-7.25-8.25-.46-.46-6.16-7.52-2.17-2.72-.82-.36-.18-.09-.82-1.27-2.08-2.72-1.36-2.08.09-1.63-2.44-3.99-.73-1-.63-.81-.64-.36-.63-1-.82-1.54-4.08-6.98-5.7-10.15-.82-1.54-1.27-2.18-.54-.99-3.17-5.8-1-1.63-.82-1.64-5.61-9.96-8.07-14.68-1.54-2.9-.45-.82-2.18-3.9-.63-1.18-1.72-2.99-.64-1.27-2.54-4.34-1.54-3-1.99-3.62-.54-.91-.37-.63-.36-.64-.36-.72-1.18-2.18-3.53-6.34-.64-1.18-1.9-3.44-1.45-2.72-13.23-23.83-5.53-9.79-6.98-12.78-4.71-8.25-1.09-2.17-3.71-6.71-3.08-5.44-2.45-4.53-1.9-3.35-12.69-22.75-1.27-2.26-.45-.91-.27-.45-3.54-6.44-1.35-2.53-2.09-3.9-.81-1.63-.73-1.18-.72-1.36-.46-1.09-.63-1.08-.73-1.36-.36-.73-.18-1.72-2.99-5.26-3.99-7.7-2.9-4.44-1.54-2.54-1.09-.72-4.71-8.43-5.25-9.34-.55-.99-1.17-1.91-2.54-4.71-1.36-2.35-.64-1.27-1.35-2.54v-1.45l-1.73-3.08-2.35-4.08-.64-1.18-2.35-4.44-.27-.45-2.36-4.35-.73 1.45-1.45-5.53-1.08-1.9-.46-.82-2.53-4.62-1.63-2.81-1.27-2.45-.37-.63 1.45-.18 1.45-.18.46-.37.63-.09h.45l.64-.09 7.16-.72 1.18-.09 3.62-.37 3.26-.27 7.98-.81 2.9-.37 2.72-.27 2.53-.27 1.27-.18h.91l4.07-.36 2.72-.27 5.44-.55 1.99-.18 2.27-.18 7.07-.64 4.44-.45 2.26-.18 1.27-.18 5.8-.55 7.16-.63 1.63-.18 1.27-.09 2.81-.45 2.9-.55 2.72-.72 2.72-.82 2.44-.9 1-.46 1.9-.81 1.45-.73 1.18-.54 1.27-.73.54-.36.46-.27 9.87-7.43.73-.64.9-.9.37-.37.36-.36h.81l2.36-.27 1.99-.54 7.16-2.18 3.45-1 .9-.27.55-.18 1.45-.36.81-.18 1.81-.46.46-.09 5.43-.81 5.26-.64 5.62-.45 9.51-.72 9.43-.73h1.08l5.62-.54 8.97-1 1.73-.09.45-.09h3.62l.64.09 1.18.09.54.09.91.18 1.26.36.28-2.81.09-1.9.72-20.3.27-4.62.18-2.45.28-4.53.63-1.18 1-14.23.18-1.63v1.09l-.09 1.72-.27 8.52-.18 6.8-.19 5.62-.09 2.17-.63 22.84v1.18l-.09 2.08-.18 2.18 3.44 1.36.64.27 1.54.63 2.08.91 2.54 1.09 1.72.63.36.18.64.27 1.81.73 1.63.72 1.99.73 3.9 1.72 1.9.82 1.91.72 5.52 2.36 2.54 1 2.18.9.81.36 2.9 1.27 2.08.91.91.36.27.36.82.37.54.36.27.09 2.36 1.09.91.27.63.27.45-.09 3.08 1.36 3.45 1.45.63.18 4.08 1.63.27.09 3.26 1.09 3.08 1.36 4.9 2.17 3.62 1.64 3.54 1.45 1.99.81 5.71 2.45 5.44 2.35 4.53 1.91 2.08.9 2.99 1.36 6.89 2.99 2.54 1 2.08.73 1.63.63 7.61 3.26.73.37.81.27.73.36 1.9.82 1.18.45 2.54 1.18 4.26 1.72 1.9.81 1.45.64 3.35 1.36 2.54 1.09 2.99 1.35 3.35 1.45.82.37.54.27.55.18 3.53 1.54 3.44 1.54.73.27 1.27.55 2.81 1.36.72.36 1.72 1 1.54.9 2.09 1.27 3.44 1.99.45.28 1.18.63 1.99 1.18 2.27 1.09 2.36.9.54.27 1.18.37 2.54.72 2.9.73 1.9.27 4.89.63 4.35.64 1.18.18 2.45.36 5.34.54 2.18.19 5.16.54 2.45.27 1.9.27 11.6 1.36 13.87 1.45 11.69 1.27 1.9.27 1.81.09 1.81.19 1.45.09h2l2.17-.09 2.09-.28 1.81-.36 2.44-.54 1.82-.55 1.45-.45 5.71-2.08 1.63-.73 1.17-.54 1.36-.64 1.63-.9 1.45-1 1.45-1.18 1.36-1.27 1-.99 1.54-1.73 1.63-1.99 1.91-2.17 1.81-2.45 1.18-1.63.99-1.18 1.09-1 .82-.63.72-.45.09-.1.54-.27.91-.36 1.45-.45.09-.09 2.72-.82 2.9-1.09 1.45-.45-.91-2.54-.45-1.18-.09-.36-.45-1.72-.09-.54-.09-.64-.19-.81-.09-.91-.09-.82-.09-1.99.09-1 .37-1.17.18-1 .27-.73.36-.99.36-.91.64-1.63.63-1.72.82-1.81.54-1.27 1.45-2.9.27-.55.37-.72.54-.82.72-1.36 1.64-2.53 1.63-2.27.09-.27 1.9-2.36 1.99-2.35 2-2.18.72-.73.82-.72.54.82 1.36-.55 2.9-2.08 9.79-8.07 5.8-4.8-.28-1.45 1.36.27.82-.09 3.81-3.08 1.54-1 .27-.81v-.82l-.36-1 .81-.63 1-.82.99-.72 3.81-2.99 2.36-1.81 2.71-2.09 2.27-1.81 1.72-1.27 1.72-1.18 1.73-1.09 1.9-.99 1.9-.82 1.9-.72 2-.46 1.99-.36 1.63-.18 1.81-.18 1.73-.18 1.72-.27 5.62-.55 5.61-.63 3.72-.37 2.36-.27 2.44-.36 2.36-.45 2.26-.64 2.45-.81 1.18-.46 1.99-.99 1.09-.46.91-.45.99-.63.91-.46 1.09-.81.81-.46.73-.54.72-.54.91-.73.72-.63 1.09-1.09.91-.91 1.08-1.08.73-.91 3.17-3.9 3.81-4.62 3.8-4.53 3.36-3.99 3.26-3.8 4.35-4.99.99-1.18.91-1.17 1-1.18 1.08-1.27 2.18-2.54 1.54-1.72.82-1 .81-.9.91-1 .72-.63.64-.64.99-.9.82-.64.81-.63 1.45-1.18 1.18-.82 1-.72 1.45-1.09.9-.54.91-.64 1.36-.81.36-.18.91-.46.91-.54.63-.27.82-.46.81-.36.73-.27.63-.27 1.63-.64.82-.27.9-.27 1.54-.45 1.82-.46 1.81-.36 12.68-1.72 6.26-1 2.08-.36 1.54-.36 1.45-.55 1.36-.63 1.54-.91 1.45-1.09 1.45-1.17 1.36-1.18.91-1 .36-.45 4.62-6.25 1.9-2.45 7.89-10.33 4.98-6.62.54-.63.64-.73 1.18-1.18 1.18-1.26.99-.91 1.36-1.27.64-.54.72-.64.63-.36.55-.45 1.99-1.27 2.27-1.36 2.63-1.54 1.72-1 3.26-1.9 1-.64.72-.54.54-.36.55-.46.45-.36.45-.45.82-.82.73-.72 1.26-1.54 1.18-1.63 1-1.64.9-1.72 1.09-2.44 3.26-7.25 5.17-11.6.18-.55 1.36-2.99.72-1.45 1.82-3.9.18-.36.81-1.63 1-1.54 1.99-2.81 1.82-2.27 1.63-1.9 1.9-1.9 1.99-2 1.91-1.54 1.36-1.08 1.99-1.27 2.27-1.36 4.07-2.18 4.35-2.26 3.54-1.9 5.8-3.09 2.17-1.08 2.18-1.18 1.26-.64 1.73-.81.9-.45.46-.19 1.99-.81 1.09-.45 3.8-1.27 1.63-.46 1.73-.45.54-.18 2.36-.55.81-.27 5.53-1.36.9-.27.82-.18 17.31-4.35 8.97-2.17 2.72-.73 2.72-.81 2.71-1 1.73-.64 1.81-.81.81-.36 2.27-1.18 2.17-1.27.64-.36 1.18-.73.27-.18.72-.54.55-.37.27-.18 3.9-3.08 1.54-1.18.54-.54 1.18-1.18-.09-1.09-.46-3.89.64.9.36.46.55.27.45.18h.36l.45-.09 1.45-.55 6.44-6.25 2.17-1.9.82-.73.54-.45 1.27-1.09 1.18-.9.27-.27 1.27-.91 1.63-1.09 1.27-.91.18-.09 1.09-.72 1.54-.91 1.36-.9 1.45-.82.27-.18 1.18-.63.63-.28 1.99-1.08.46-.18.36-.19 1.36-.54 1-.45.54-.18.63.81.46.91.72 1.27.55 1.36.54 1.26.36 1.09.27 1.45.19 1.45.45 3.99.45 3.08.55 3.53.18.82.18 1.54.36 3.17.36 2.72.36 3.54.46 3.26.27 2.72.82 6.43.72 6.35.54 4.62.19 1.27.27 1.99.18 1.36.18 1.9.36 3.99.55 5.35.09 1.9.18 2.18.27 3.35.63 6.25.46 4.35 1.08 9.88.55 4.26 1.36 12.23.36 3.27.54 5.07.55 4.89.09 1.27.27 2.27.18 1.54 1.36 8.52.54 3.53.64 3.36.36 1.99.36 1.72 1 4.8.72 3.27.73 3.26.09.45.45 1.91.37 1.45.54 2.62.91 4.26.36 2.27 1.09 5.62.45 2.9.36 1.9.27 1.9.37 1.64.27 1.54.81 3.17.37 1.18.81 2.26.64 1.45.81 1.72 1 1.73.54.99 1 1.36.99 1.63 2.45 3.36 1.9 2.99 1.91 2.9 1.18 1.63.99 1.27.91.9.81.82.91.72.91.82 1.36 1 1.08.63 1.36.82 1 .45 1 .36 1.36.45 1.08.28 1.91.18 1.35.27 1.45.18 1.36.27 1 .27.91.28 1.08.27 1.27.63 1.27.73 1.27.72 1.27.91 1.36 1 1.09.99 1.26 1.27 1.27.36 1.36 1.63 1.18 1.64.54.99.64 1.18.81 1.81.82 2.36.54 1.36.91 1.99.54 1.27.55 1 .45.72.54.55 5.98 6.25.55.45 2.63 2.27 1.9 1.54-11.69 19.03-3.26 4.71-11.96 16.32-10.88 15.13-4.71 6.53-4.44 8.51-6.53 12.78-7.97 15.77-3.17 5.26-6.25 10.24-4.44 7.43-6.26 10.33-7.16 11.6-3.8 5.44-4.71 6.07-4.63 5.35-3.62 3.89-4.62 4.72-4.53 3.98-4.9 4.17-5.34 4.08-7.52 4.98-33.98 30.27-5.71 5.08-5.17 4.53-3.71 3.81-3.09 3.53-2.53 3.17-2.36 3.54-1.99 2.99-2 3.17-2.35 2.36-4.08 4.07-4.44 3.54-2.81 2.26-5.16 3.54-7.34 4.17-3.9 1.9-4.35 1.99-5.17 1.54-4.89 2.18-2.81 1.54-4.53 3.17-3.8 3.45-3.63 4.16-1.09 1.45-3.62 5.8-1.18 2.54-.82 2.45-.99 4.44-.36 1.54-.19 3.44.1 3.36-.28 3.44-.36 2.99-.36 3.17-2.18 20.12-1.45 4.9-1.36 3.62-3.17 6.62-2.63 4.35-2.99 4.07-2.71 3.27-2.36 2.35-4.17 4.35-4.44 4.53-6.98 7.53-7.43 9.15-10.33 12.78-2.35 2.81-4.17 5.34-4.08 6.98-2.81 6.71-1.63 5.71-1.18 7.25-.45 6.61-.18 7.71.18 3.53.45 3.63.46 2.44 1.35 3.99 1.36 3.26 20.76 27.55 26.73 37.52-3.72 2.45-3.35 2.26-3.63 2.54-4.16 2.72-5.08 3.26-4.26 2.81-4.62 3.17-3.17 1.91-.91.54-.81.63-3.45 2.45-1.72 1.27-.54.45-.36.37-.37.45-.18.45-.45 1.09-.73 1.72-1.45-.54-.18-.46-.27-.45-.36-.36-2.27-2.45-3.53-2.35-.36-.18-1.63-1.27-1.18-1-1.63-1.27-1.54-1.18-1.73-1.36-2.71-2.17-2.99-2.18-2.72-1.81-1-.63-1-.55-1.17-.72-.28-.09-1.72-.91-1.81-.82-1.81-.63-1.81-.45-2-.36-.18-.1-1.99-.18-2.18-.18h-.72l-.91-.09-1.18.91-2.26.18-.37.09-1.9.27-.72.18-1.54.27-2.45.73-1.99.54-1.27.28-1.72.27-.73.18h-1.54l-.63.09-1.73-.09-2.9-.36-2.62-.37-1.82-.09-1.72.09-1.36.09-.18-2.08-.27-1.54-.18-1.36-.09-.73v-1.26l.09-2.09.36-2.45.36-1.45-.09-2.26-.36-1.36-.45-1.36-1-1.72-.81-.73-2.18-1.36-2.26-.45h-1.27l-1.54.18-.64.27-.81.46-.28.27-.36.36-4.26 5.8-2.26 1.81-1.36.82-.27.09-.73.09-2.17.36-2.54-.27-3.44-1.27-1.73-1.08-.36-.28-.36-.45-.18-.27-2.45-6.62-.81-.99-1.54-1.18-2.63-1.27-4.08-1-4.53-1.27-1.81-1.08-2.81-2.09 12.14-22.2 37.42-38.25 16.86-21.2 22.11-30.36 4.44-35.8-.54-.54-5.08-4.44-2.9-1.63-3.26-1.54-4.62-4.08-15.86-5.17-2.54-.72v-1.27l-.81.54-1 .27h-.91l-.99.09-1 .19-.81.45-.73.72-.91.55-.81.54-.73.64-.81.72-.82.45-.9.46-.91.27-1 .09-.9-.27-2.72-1.36-.73.18-.9.45-1.63 1.18-1.54 1.27-1.45 1.45-.64.81-.09 1.09-.27 1-.36 1-.55.9-.81.55-2.9.27-.91.27-.81.63-.64.73-.36 1.09-.45.9-.55.91-.63.72-.82.64-.81.54-.91.46-.9.27-1 .18-1 .09-.9.18-1 .27-.82.55-.54.81-.63.82-.73.72-.82.64-2.71 1.27-.55.36.73 8.61 1.08 8.97-1.99 8.34-4.98.99-.27.09-1.18.19-2.45.18-5.8.54-.81.09-1.64.18-5.7.64-1.54.18-.82.09-2.81.63-4.98 1.27-9.61 3.08-1 .28-.45.18-.54.27-.37-1.09-.18-.72-.45-1.09.27-.18.27-.28.09-.18.1-.27.09-.45v-.73l-.19-.72-.09-.45-.18-.37-.45-.81 12.41-1.36.37-.09h.63l.91.09-.36-3.81-3.63-7.97-5.8 1.18.09 1.63-.09.72-1.09 1.27-2.26 1.45-5.98.91-2.27-.28-1.45-.45-1.36-.72-2.17-2.81-3.99-4.17-.81-.73-.82-.63-.91-.18-1.63-.18-1.09.27-2.17 1.63-3.62 2.72 3.71 8.61.18.36 1.45 3.35.45 1.09 1.82 4.35 1.08 2.36 1.27 2.81 1.73 4.17.54 1.35.54 1.64.27 1.17.46 1.82.27.99.18 1 .09.73.64 4.07.54 3.72.63 5.53.46 3.98.18 1 .36 3.17.73 5.17.18 2.08.09.46.18 2.9.09 2.26.27 4.35.18 1.91.18 1.9.28 2.08.45 2.36 1.27 4.8.72 2.18.18.72.27.82.64 2.08 1.72 5.53.27 1 1.36 4.35 1 2.9 1.09 3.53.54 2.09.36 1.08.73 2.18.54 1.63.54 1.45 1 1.9 1.09 1.91-.91.45-.9.54.81 1.09.64.82.36-.19.36-.36.64.82.9.99 6.89 6.35 1.09.63-1.09 2.63-.36.91-1.09 1.99-1.18 1.9-2.08 1.91-4.26 2.99-1.36 1.09-.82.9-.81 1.18-.91 1.45-1.36 1.72-.72.91-1.27 1.27-1.18 1.17-1.09 1.18-1.08-1.54-.82-1.09-1-.99-.72-.73-1.18-.81-1.18-.64-1.09-.54-1.63-.64-1.45-.63-1.81-.63-1.45-.55-.81-.27-1.18-.36-.64-.27-.27-.19-.36-.9-.73-.73-1.63-1.99-.72.27-.45.18-.37-.45-2.53 1.54-.64.36-.72.46-1.36.72-1.09.54-1.36.64-1.63.54-2.63.73-1.9.45-1 .36-.9.18-.73.19-.82.27-.99.36-1.27.63-1.63.91-1.63.82-1.63.9-1.27.73-1 .72-.72.64-.82.81-.91.82-.81 1-.64.72-.63.91-.91 1.36-1.45 2.44-.9 1.82v1.35l-.73 1.55-.36.54-.18.36-1.36 1.99-.63.91-.37.45-.36.46-1.45 1.72-1.72 1.9-.91-.99-.9-1.27-.28-.28-.63-.72-.82-.82-.72-.63-1.09-1.09-.45-.36-1.45-1.54-1.36-1.54-1-1.18-1.54-1.9-.54-.64-.27-.36-.91-1.27-1.45-2.26-1.72-2.72-1.99-3.45-1.73-3.26-.54-.91-4.62-5.79-4.62-8.71-4.71-8.79-20.67-35.88-5.79-10.15-6.35-10.88-1.18-1.9-.63-1.09-1.99.82-2.18.9-8.06 2.99-1 .19-.73.18-.45.09h-.27l-1.36.45-1 1-7.25 1.54-7.43 1.63-1.63.45-1.63.55-1.54.72-1 .45-.45.37-.63.36-.64.54-.99.82-1.09.9-.73.73-.99 1.09-1.63 1.9-1.64 2.17-2.53 3.27-1.36 1.72-1.91 2.45-.27.36-1.36 1.72-.99 1.18 1.63 1.72 1.54 1.36 1.18 1 .54.36.54.36.28.18 1.08.55.82.45.9.63 2.81 3.09.09.09.19.09.18.45.36 2.18.18.81.36 2.63v.54l.09 2.72v1.63l-.63.82-2.08 18.3 3.08 4.08.09.09.9 1.45 1.18 2.27 7.98-1.99-.19-2.18-.45-3.17-.36-3.72-.91-7.52 9.25-1.81-.19-2.09-.27-2.81.18-.9.37-.82.45-.54.63-.36.73-.18 7.34-.91 3.62-.45 2.36-.1h1.63l.91.19.72.45.45.72 12.87.28 2 2.62 1.08 1.91.91 2.08 1.81 7.07 1 2.72 1.09 2.08 1.17 1.63.73.91 2.9 3.17.9 2.18.19.81.36 2.45-1 4.44-1.09 3.17-.63-.18-1.9-.27-2.09-.18-2.26.54-2.36.91-2.17 1.99-.64 1-1.81 2.72-2.99 6.16-1.54 5.17-3.26 4.8-1.18 1.36-.82.91 2 2.8.54.64.63.91.55.72 1.45 1.9.72 1 .73.82.9.9.64.55 1.36 1.17 1.36.91.99.54 1 .46.91.36.72.27 1 .18 1.36.18h5.53v-.81l.45.09h2.17l4.44.09 4.53.09h1.82l1.9.09h4.53l2.27-1 2.99-1.81 1.36.18 1.72.27.63.1.82-1.64 1.36.46.45-.18.09.09.27.18.18.18.82 1.63-1.45.63-.73.37-.81.27-2.27.72-1.27.37-.18.09-6.52 3.35-4.35-.36v1.36l-.64 1.63-2.35 3.44-.54.73-.55.45-.72.36-.18.27-1 1.09-9.34 10.24-1.63 1.82-7.88 9.06.72.81.37.46 1.27 1.45.72.72.36.36-7.79 8.61-.09.09-4.71 5.17-1.36 1.27-1 1.18-1 1.45z" stroke-linejoin="round"/></defs><use xlink:href="#k" fill="#004249" stroke="#00465f" stroke-width="5.76"/></svg>