<svg width="384" height="4.99in" viewBox="0 0 2880 3593" xmlns="http://www.w3.org/2000/svg" xmlns:xlink="http://www.w3.org/1999/xlink"><path fill="#fff" d="M0 0h2880v3593H0z"/><defs><path id="a" d="M1619.5 2129.86l-11.23-.9-1.35.34-.33-1.57-.23-1.35-.33-1.23-23.02-144.28-5.51-33.35-.11-.9-7.75-48.84-6.96-43.46-1.23.23-6.4.9-2.03.33-1.91.23-3.36.67-1.01.23-.9.11-9.55 1.68-1.12.12.56 2.47 7.64 38.28v1.35l-.56 2.02v1.01l6.62 35.93 1.35 7.64 1.46 4.6.78 3.71 1.69 10.66-.11.68-.34 1.57-.45.9-.79.78-3.7 1.8-1.12.79-.9 1.12-1.13 1.57-.78 2.02-3.37 12.47-1.24 3.14-6.28 11.34-.9 1.68-1.69 1.8-1.12.9-1.8 1.12-2.8 1.46-5.51 2.47-4.15 1.69-.56-10.67-1.69-3.71-.78-1.57-.57-2.69.9-5.95 1.58-9.77-13.37-62.43-.45-2.81-3.37-22.01-.33-2.02-1.35-4.49-.67-2.58-2.81-18.3-2.47.45-13.7 2.58-11.01 2.36-10.1 1.91-15.05 2.58-5.28.9-13.92 2.69-5.84 1.01-6.51 1.35-12.47 2.36-3.26.78-5.16 1.69-44.47 16.39-86.13 30.43-8.87 4.38-12.35 5.05-7.19 2.7-6.74 2.35-6.73 2.25-4.83 1.46-16.4 4.6-10.33 3.26-3.37 1.23-1.57.34-.9.11h-1.01l-4.94-14.71-2.7-6.51-1.68 1.12-2.02-.33-1.35 1.12h-1.57l-2.47 1.68-2.81 1.69-1.12 2.02 1.68 3.03 2.7.23.11 2.02.45.9 2.47.11 4.04-.79 1.46.45.11.34-.22.33-7.64 1.13-1.57.78-.56 1.24.23 2.24 1.34 1.91-.33 1.91-1.35 2.13.67 3.49-.9 2.47-2.13 2.13-2.36-1.46-2.58.34-2.02 2.24-2.58 4.72-3.04 4.49-1.12 3.14-4.04 6.63-.79 3.14-2.02 3.03v.34l-.34 2.02.45 2.7-2.02.11-1.68-1.01-3.15-3.15-2.47-.45-1.46 1.58-.11 2.47-2.47 5.5-1.01 2.81.56 2.69 1.8.34 1.12 1.46 2.13.67.45.9.45 4.04-.11.9.56 4.15-2.13 2.02-.9 3.04-2.7 2.24-27.17-167.52-19.88-122.61-19.99-122.61-19.87-122.62-19.88-122.72-14.26-88.03-3.03-18.41-1.12-6.74-12.69-78.15-12.35-76.01-4.38-27.17-15.61-96.68-15.72-96.56 71.64-10.55 2.02-.34-29.64-181.78-24.04-149.9 57.27-10.1 46.72-8.31 2.02-.23 9.21-1.68 4.49-1.12 9.32-3.37 3.48-1.01 3.26-.56 5.95-.68.45.23 2.81-.23 4.71-.34 5.84-.44 1.57-.23 2.92-.45 4.72-.9 8.98 38.29 29.2 124.97 111.39-28.07 1.02-.34 9.2 22.12 35.04 83.76 10.78 25.83 3.59 8.53 5.06 12.24 6.17 14.71 21.45 51.09 4.94 11.68 8.65 20.65 17.18 42.78 2.36 5.84.9 2.25 14.26 35.37 3.81 2.47 4.05 5.16 6.51 7.86 4.49 5.62 8.87 11 102.53-11.79 44.8-5.17 28.86-7.52 11.23-2.92 8.2-1.23 16.17-2.58 9.43.78 23.47-11 12.24-1.69 2.13 9.21 1.24-.22 2.13-.79.79.11 7.07-1.23 20.1-3.6 47.62-8.64-1.69-11.12 1.13-1.34.89 4.94.23 2.02.67 4.04 1.13 6.51 2.69 16.06 1.24 7.18.67 3.6.45 2.47.56 3.81 1.24 6.74 1.23 8.09.23 1.23 1.12 7.07.56 2.81.11 1.35.23 1.12 1.34 8.53.9 4.94v.45l.56 3.37.45 2.7.56 3.14.23 1.24.34 2.58.45 2.58.67 4.27.34 1.68 1.23 7.52 1.57 1.91 1.35 7.3.67 4.16.79 5.16 1.69 9.32 1.57 9.32 1.46 8.65 3.03 18.07.45 2.25.11.9 1.46 8.42 3.14 19.65 1.24 7.07 1.8 11.23 1.46 8.42.22 3.26 1.01 8.19 4.04 24.93 4.05 21.67v2.47l1.91 9.88 2.13 14.04.34 2.35 4.82 29.53.34 1.8.79 4.49.56 3.37.67 3.7.56 3.37.45 2.81 4.94 27.73 4.72 27.06.23 1.35 1.12 6.4 3.59 20.55 2.14 11.56.89 5.62 1.24 6.73 2.13 12.02.23 1.46.33 1.68.68 4.16.67 3.59.34 2.25.34 1.79.11.68.78 4.37.45 2.25 1.13 6.51 1.23 6.74 1.12 6.96 1.24 6.85.22 1.01.12.9.11.78.11.79.67 3.93 1.13 6.96.78 4.49.56 3.15.23 1.57.34 2.02 1.12 6.74.67 4.6.45 2.58.34 1.8 1.23 7.63 2.59 15.16.33 2.14.12.78.45 2.7.67 4.38.34 2.35.78 4.61.45 2.92.34 2.58 1.01 6.74.22 1.34.34 2.25v.34l.34 1.9.45 2.36.33 1.91.34 2.02.45 2.02.22 1.58.45 2.69.9 4.94.79 3.71.45 3.03 1.01 5.39.33 1.68 1.13 6.06.56 3.37.9 5.06 1.23 6.62.45 2.58 2.7 15.27.78 4.27.68 3.93 1.34 6.96.34 2.13 1.35 8.42.9 5.28.33 2.02.12.68.11.78.33 2.02 1.13 6.97.33 1.68.12 1.01.33 1.57.9 5.5.23 1.24.78 4.49.79 5.17.78 4.71.45 2.58.79 4.38.79 4.94.33 2.47.34 1.57.9 5.84.67 4.16.23.9.67 3.81.67 4.16.23 1.57v.56l.22 2.36v.22l.12 1.8-.12 1.68v.12l-.22 1.46-.34 1.57-.22.9-.23.56-.56 1.23-.45 1.24-1.46 3.25-.67 1.46-.45 1.24-.11.34-.56 2.02-.34 2.13-.11 1.35-.12 1.12v2.92l.23 1.8.22 1.46.45 2.92.23 1.57.56 3.59.78 5.05.68 3.6.22 2.02 1.69 9.65 1.23 7.19.11.67.12.9 1.46 9.88 2.13 12.69.23 1.57 1.12 6.63.33 1.79.57 3.48.56 3.48.22 1.69 3.26 20.55 1.35 8.19 1.34 8.54.9 5.72 1.24 7.41.22 2.02.68 4.16.33 1.68.68 4.61 1.46 8.64.89 6.18 1.02 5.84.78 4.82.79 5.06.22 1.23.79 5.05 1.79 10.56.34 1.46-36.04 13.58-44.81 9.77-23.92 4.83-19.31-1.46-18.19 5.28-14.49 6.51-1.24-4.15-8.08-55.58-8.65 1.57-4.83 1.12-.67-.34-7.3 1.24-1.57.34-10.33 1.91-4.38.78-5.95.9-12.69 2.36-16.28 2.92-1.02.22-25.26 4.83-9.55 1.8-5.16 1.01-5.73 1.12-9.32 1.68 1.91 11.57.67 3.82 1.35 8.08.67 3.93 1.24 6.96 1.46 8.87 2.81 18.53 3.14 19.42.11.45.34 1.91 3.37 21.11.34 2.02-1.91.79-35.38 11.23-2.47.78-1.34.45-5.62 1.12z" stroke-linejoin="round"/></defs><use xlink:href="#a" fill="#9dc8ca" stroke="#9dd7f0" stroke-width="5.76"/><defs><path id="b" d="M1951.89 1980.87l-12.24 2.35-.78-4.82-1.02-5.84-.89-6.18-1.46-8.64-.68-4.61-.33-1.68-.68-4.16-.22-2.02-1.24-7.41-.9-5.72-1.34-8.54-1.35-8.19-3.26-20.55-.22-1.69-.56-3.48-.57-3.48-.33-1.79-1.12-6.63-.23-1.57-2.13-12.69-1.46-9.88-.12-.9-.11-.67-1.23-7.19-1.69-9.65-.22-2.02-.68-3.6-.78-5.05-.56-3.59-.23-1.57-.45-2.92-.22-1.46-.23-1.8v-2.92l.12-1.12.11-1.35.34-2.13.56-2.02.11-.34.45-1.24.67-1.46 1.46-3.25.45-1.24.56-1.23.23-.56.22-.9.34-1.57.22-1.46v-.12l.12-1.68-.12-1.8v-.22l-.22-2.36v-.56l-.23-1.57-.67-4.16-.67-3.81-.23-.9-.67-4.16-.9-5.84-.34-1.57-.33-2.47-.79-4.94-.79-4.38-.45-2.58-.78-4.71-.79-5.17-.78-4.49-.23-1.24-.9-5.5-.33-1.57-.12-1.01-.33-1.68-1.13-6.97-.33-2.02-.11-.78-.12-.68-.33-2.02-.9-5.28-1.35-8.42-.34-2.13-1.34-6.96-.68-3.93-.78-4.27-2.7-15.27-.45-2.58-1.23-6.62-.9-5.06-.56-3.37-1.13-6.06-.33-1.68-1.01-5.39-.45-3.03-.79-3.71-.9-4.94-.45-2.69-.22-1.58-.45-2.02-.34-2.02-.33-1.91-.45-2.36-.34-1.9v-.34l-.34-2.25-.22-1.34-1.01-6.74-.34-2.58-.45-2.92-.78-4.61-.34-2.35-.67-4.38-.45-2.7-.12-.78-.33-2.14-2.59-15.16-1.23-7.63-.34-1.8-.45-2.58-.67-4.6-1.12-6.74-.34-2.02-.23-1.57-.56-3.15-.78-4.49-1.13-6.96-.67-3.93-.11-.79-.11-.78-.12-.9-.22-1.01-1.24-6.85-1.12-6.96-1.23-6.74-1.13-6.51-.45-2.25-.78-4.37-.11-.68-.34-1.79-.34-2.25-.67-3.59-.68-4.16-.33-1.68-.23-1.46-2.13-12.02-1.24-6.73-.89-5.62-2.14-11.56-3.59-20.55-1.12-6.4-.23-1.35-4.72-27.06-4.94-27.73-.45-2.81-.56-3.37-.67-3.7-.56-3.37-.79-4.49-.34-1.8-4.82-29.53-.34-2.35-2.13-14.04-1.91-9.88v-2.47l-4.05-21.67-4.04-24.93-1.01-8.19-.22-3.26-1.46-8.42-1.8-11.23-1.24-7.07-3.14-19.65-1.46-8.42-.11-.9-.45-2.25-3.03-18.07-1.46-8.65-1.57-9.32-1.69-9.32-.79-5.16-.67-4.16-1.35-7.3-1.57-1.91-1.23-7.52-.34-1.68-.67-4.27-.45-2.58-.34-2.58-.23-1.24-.56-3.14-.45-2.7-.56-3.37v-.45l-.9-4.94-1.34-8.53-.23-1.12-.11-1.35-.56-2.81-1.12-7.07-.23-1.23-1.23-8.09-1.24-6.74-.56-3.81-.45-2.47-.67-3.6-1.24-7.18-2.69-16.06-1.13-6.51-.67-4.04 2.02-.23 1.12.34 30.21 11.68 57.94-3.26-.33-2.02 18.64-1.69 40.2 41.1.34.34 8.08-1.13 9.21-1.34.45-.12 3.03-.67-2.02-2.58-13.59-17.18-6.4-9.32-3.48-5.61-5.05-7.98-4.16-7.41-5.39-10.33-26.28-51.53-7.29-14.26-6.63-13.59 7.19.56 10.66 21 .34.78.34.23.34.34.56.22.67-.11 3.82-.68.56-.22.34-.56.11-.34.11-.56 5.17-.9 3.93-.11 8.98-1.46 6.29-1.24 2.81 7.08 6.73-1.69 4.5 7.64 3.48 4.72 8.53 11.22 1.69 2.47 1.23-1.12 2.36 3.03 1.57-1.68 4.49-5.17 3.15-6.73 5.16-.23 2.25-.22 7.07 9.88 1.69 4.04.67 2.25.23 2.58.11 1.23.11 2.36.23.45 1.34 3.03 5.51 3.48 2.47 2.36.44.45 2.03 1.91 1.68 3.25.79 1.35 9.65 15.5 1.01 2.47.57 1.01 7.18 13.02 28.97 48.06 2.03 4.27.89 1.68-.78 1.57-1.57 1.35-2.03 1.12-4.04-4.6-.67-.68-.34-.11-.34.11-4.26 2.25-.23.45v.45l1.24 1.68 2.92 6.63.22.33.56.12.79-.23 2.13-.9 2.14-1.46 3.7-3.25 1.01-.56 1.24.67 16.84 23.58 2.25 3.14 7.3 9.32 14.15 22.79.33.68 22.57 36.27 2.36 6.73 1.57 4.83-.44 3.82-1.8 4.6-2.58 3.03.11 4.05.34 3.25 2.24 5.39 9.32-8.53 3.48 1.68 2.02 3.37 34.25 53.56v.45l-.33.22-3.37.34-.34.22v.56l3.15 21.68 14.37 26.27 18.53 36.94 16.84 9.43 22.68 13.92 7.08 11.46 7.3 12.8-1.35 17.85 8.76 22.46 9.99 13.81.12.45-1.8 4.04.11.56.45.34 2.92-1.58.34-.11 5.61 10.22 9.44 10.89 3.93 2.13 3.14 2.25 2.81 5.61 10.55 11.23 2.02-.11 1.8.34 1.91 1.9 4.27 8.43 3.59 7.52 16.73 25.71 7.19 13.7 3.26 5.39 5.61 8.64.34.57 1.01 2.8 5.72 8.76 5.51 7.07.78 1.8 2.59 3.48 1.01 2.7 2.24 4.82 2.47 4.16 1.13 1.8 1.12 1.79 2.02 2.14 1.23.89 2.25 3.48 3.59 1.58 1.35 3.7 1.35 1.8.56.22 2.36.9 1.01.34 1.23.11h4.5l2.13-.11 2.36-.11 2.36-.23 1.01-.11 1.23-.34 1.13-.45 1.01-.45 1.79-1.01 2.47-1.34 1.69-1.01 1.91-1.02 2.47-1.23.67-.34.67-.11.57-.11.78.11.23.23.45.22.33.45.34.78.45.68.34.56.67 1.57v.79l-.34.67-.45.45-1.12.56-7.19 3.71-1.46.67-1.12.45-1.01.34-1.12.33-1.57.23-1.13.22-1.12.34-1.01.34-.9.45-.79.44-.67.79-.67.79-.79 1.12-1.01 1.8-1.24 1.9-.33.45-.23.34-.33.11h-.34l-.45-.22-.45-.34h-.45l-.33.11-.34.34-.45 1.24-.56 1.34-.34 1.24v.78l.34.79.33.79 2.25 4.15 16.06 26.39.67 1.12 5.73 16.95-4.16 8.43.79 3.48 4.6 5.5 11.8 11.9 4.94 4.38 10.1 19.54 11.34 20.88 1.35 16.06 3.93 8.19 3.93 7.19 1.69 14.37 7.86 14.26 3.7 7.19 8.99 15.27 10.1 15.15 8.99 15.39 12.46 22.57 7.3 11.67-6.06.12-1.35.56-1.24.45-2.8.56-8.2 1.68-2.02.23-15.05 2.35-21 3.37-8.31 1.46-1.8.23-6.62 1.12-8.2 1.23-8.64 1.35-10.67 1.8-17.63 3.25-1.69-1.01-18.97-17.29-1.58-1.57-.45-.9v6.4l-31.1-28.29-4.16-4.49-3.37-5.06-4.15-7.63-3.59-7.86-2.47-6.85-1.24-5.61-29.53 3.93-1.13 1.23 1.69 1.46 3.26 2.81 9.99 8.87 4.38 3.81 2.36 2.03 2.92 2.58.22.22 1.8 1.57 1.46 1.24-7.75 10.22-4.27 5.39h-.11l-1.12 1.68-1.46 1.57-4.49 3.48-4.38 2.59-.45.22-5.17 1.8-2.13.56-9.1 2.02-20.32 4.38-1.57.45-.79-.11-61.54 13.58-9.21 2.14-1.23.22-18.64 4.27h-3.48l-3.26-.56-6.51-1.8-2.7-.56-1.57.11-1.57.22-5.28.9-29.98 6.51-2.02 1.02-.34.44-.56.79-.45 1.35 5.61 30.87-4.49.57-7.41-34.02-2.81-10.67-29.31 4.15-6.73-40.64-79.73 11.67.9 5.73 22.79-3.7.68.11.33.22.56.68 1.01 6.06-.22.78-.34.34-.67.34-2.47.45-36.5 6.17-35.82 6.07-6.4.89 13.25 76.36 2.92 16.73z" stroke-linejoin="round"/></defs><use xlink:href="#b" fill="#9dc8ca" stroke="#9dd7f0" stroke-width="5.76"/><defs><path id="c" d="M927.66 3522.15l.11.79.45 1.01.11 1.91-.11 1.57-.45 2.24-.11 2.47.11 1.8-.34.9.45 2.92-.67 1.57-.45 1.57v1.01l-2.36.23-1.12-.23-2.47-.22-2.7-.56v.22l-.56.79-.78.67-1.35.22-.67-.33-.68-.11-1.46.11-9.21 1.46-32.79 5.61-8.31 1.35-8.42 1.23-16.28 3.04-16.73 2.47-3.37-5.51-.79-1.23-.56-1.8-.11-1.23-.45-1.46-2.13-3.37-2.92-5.73-2.25-3.81-2.13-3.6-7.53-9.43-.45-.9-.33-1.91-.11-1.23-2.14-12.58-.34-2.92-.78-10.55-.34-2.36-.45-1.68-1.01-3.48-2.24-7.75-1.01-5.61-.57-7.42-1.01-3.81-.45-1.24-2.92-4.6-6.62-12.46-2.13-4.72-2.81-7.07-1.01-1.91-3.26-4.61-2.69-3.37-1.46-1.45-1.58-1.02-1.01-.78-1.01-1.01-.78-1.01-.9-1.8-.34-1.12-.11-1.12v-1.24l.9-5.84.33-4.26-.44-3.71-.57-2.02-1.34-4.16-1.46-4.94-1.58-6.06-1.9-6.29-1.69-4.26-.56-1.46-1.35-3.15-2.69-5.72-1.13-2.92-.89-4.16-2.47-15.94-1.02-3.82-.56-1.46-.9-1.68-2.24-5.28-.9-2.47-.45-1.57-1.68-7.41-1.13-3.03-2.02-4.38-2.47-5.39-4.6-10-1.35-3.25-.9-1.69-8.42-12.8-1.12-2.13-1.24-3.14-2.69-5.84-1.13-2.81-1.01-4.71-1.01-6.29-.22-2.02v-1.13l.22-.67.79-1.68 5.28-9.44 2.92-4.15 1.46-1.91 5.84-9.21 5.72-10.1 1.69-3.37.9-2.13.78-2.14 1.12-3.93 2.36-10.78.45-1.57.56-1.23.68-1.13.9-.78 1.23-.9 1.8-.79.9-.67.67-.67.45-.9 1.01-2.02 1.8-5.39 1.57-3.03 3.37-5.84 1.34-2.02 7.86-10.44 4.5-4.95.78-3.59.23-1.91.11-1.23-.11-1.69-.34-1.91-.34-4.04-.11-5.5-.56-7.75-.56-5.72-2.58-17.52-2.03-9.54-.89-2.36-3.82-7.07-.68-2.03-.56-2.24-.45-3.14.23-3.49.45-1.9.78-2.25.9-2.47.9-2.02 1.01-1.57 1.01-1.35 1.24-1.24 1.91-1.68 2.8-2.13 3.26-2.7 2.13-2.8.9-1.69 1.24-2.92 1.23-3.37 3.26-11.11 4.94-12.8 3.37-7.41 1.68-4.05.45-1.23.56-1.35 2.59-8.98.33-2.47.45-4.94v-2.81l-.11-2.58-.34-3.26-1.01-13.25-1.46-12.23-2.69-17.75-1.13-9.43-.33-5.95-.23-10.55-.11-6.85.23-3.48.89-7.19.9-4.38.34-2.8.9-10.33 1.46-9.66.11-2.92-.67-18.53.33-6.62.56-5.28 1.13-7.63 1.46-7.3.78-3.14.79-2.36 1.57-4.16 4.72-9.54 3.03-5.17 3.7-4.94 6.18-7.07 1.8-2.47 2.47-3.82 1.12-2.36.45-1.34.22-1.24.12-1.79-.23-1.8-.9-3.48-1.34-6.51-4.16-1.58-2.47-.33h-.9l-.56.33-.45.45v1.01l-.22.79-.34.45-.67.22-.45-.11-.56-.56-2.7-3.48-1.91-1.8-2.36-1.68-1.34-.56-1.58-.23-1.23-.22-.45-.34-1.57-1.68-.34-.56-.22-.79v-.67l1.01-3.15 1.01-1.46 2.02-5.16.11-.45-.11-.56-.34-.9-.45-1.01-.78-.68-.23-.22-.67.11-.45.23-.34.56-.33.33h-.45l-.79-.33-1.23-2.14-.23-.89.11-1.35v-.45l-.45-.56-.89-.79-.34-.33-.23-.68-.22-.9.34-3.03-.12-1.23-.33-.56-.56-.57-1.58-1.12-.33-.67.33-.9-.11-2.02.9-2.92.11-1.12.34-1.24-.23-4.38-.11-.78-.78-2.03v-.56l.22-2.02.22-1.34.45-.9 1.24-2.36.11-.67v-3.04l.45-1.23.67-1.24.57-.67 1.23-1.24.68-.44 1.79-.57 2.7-1.23 1.34-1.01 1.69-.79.9-.67.45-.9v-.67l-.68-4.27v-.56l-.11-1.69-.22-.44-1.24-1.13-1.57-1.01-1.01-.22-2.47-1.24-1.01-.11-.79.11-2.81-1.46-3.03-.78h-.67l-.34.22-.67 1.01-.34.23-1.46.11-.67-.23-1.8-1.23-.34-.34-.22-.33-.23-1.58-.11-.56-.22-.33-1.69-.79-.33-.45-.23-.9v-1.79l-.45-2.81-1.35-5.84-.45-2.36-.11-1.35.11-.78.45-1.12.68-1.01 1.12-1.02.9-.56 1.01-.22 1.01-.11 1.46.22 2.02.56 1.46 1.01 1.8 1.57.78.45.68.45.9.23 1.01.67 1.57 1.35.67.78.68 1.02.33.33.9.11.68-.11.44.11 1.46.9 1.13.9 1.34.9 1.02.45 3.14.56.45.22 1.35.9 1.23 1.24.9.67 4.94 2.47.9.79.9 1.12 1.12.9 1.01.34 2.25.33.45.34.89.9.57 1.01 1.46 1.79 2.58 1.91 1.68.68h.56l2.25-.23 2.02-.11 6.07-6.51-.57-1.24-.56-1.68-.11-2.14.11-5.95-.22-1.46-.45-.33h-.45l-.56.33-.9.68-1.01.56-.9 1.12-1.01 3.15-.34.56-.67.33h-.56l-.79-.56-1.12-.11h-.45l-1.01.45-.45.34-.34.45-.11.44-.11.79-.34.45h-.22l-.45-.34v-.33l.33-2.36-.11-1.46.34-1.12.11-1.01-.34-1.35-.33-.45-.45-.23h-.34l-1.91.34-1.23.11-1.24-.22-.45-.11-.33-.34-1.69-2.47-.78-3.03-.57-.56-1.46-.56-.78-.12-1.8.23-1.35.56-1.46.34h-.44l-.68-.23-.45-.34-.22-.56.22-.56.68-.56 1.91-2.69 1.9-1.8.9-.79.79-.9.22-.78.45-2.02.34-1.13 2.81-5.5.67-.78.34-.23h.33l.68.11.22-.11.68-.45.78-1.01.23-.78.11-1.01-.34-2.59-.33-.67-.79-.9-4.72-6.51-1.01-2.36-.33-.45-.45-.11-1.69-1.12-.56-.56-.67-1.35-.79-.9-.45-1.01-.45-1.91-.67-2.36-.79-1.12-.78-2.47v-1.12l.56-4.49.11-.9-.9-5.39-.45-5.28-.45-2.47-.33-1.12-1.13-2.58-.11-.79.68-5.17.44-4.49.68-1.12 1.23-1.68.79-.79.67-.45 3.82-.78 1.46-.79.56-.45 1.57-.67.79-.12 1.12-.56.57-.67v-1.01l-.57-3.82-.33-1.23v-1.13l.33-.33.79-.23.67-.11h1.24l.56-.11 1.01-.34 2.36-2.36 1.01-1.57.9-1.01.78-.56.9-.23 1.01-.11h1.35l1.46.23 2.81 1.46 1.91.56.67.33.79.57 1.34 1.79 1.13.79 2.69.56 4.16 1.46h.9l.56-.45.67-.67 1.46-.12.56.23.79.78 1.01.12 1.12-.34h.68l.67.22 1.35-.11.89-.45.57-.56.22-.67-.11-.68-.23-1.12-.45-.9.12-.45.45-.89v-.45l-.34-1.24.22-.67.23-.34 2.69-2.36 2.36-2.24 4.38-4.04 2.81-1.35.34-.45.22-1.91 1.35-4.27.67-1.79.68-.56.67-.45 1.01-.23 1.46-.11 1.01-.22 1.24-.68 1.57-1.79 1.46-.45h3.14l.45-.12.45-.33.79-2.81.67-1.35 1.23-1.91 1.35-2.69 1.24-1.35 1.12-1.01 1.12-.56 4.5-1.91 1.68-.34 4.27.23 1.46-.23h1.91l1.34.34 1.24.56.67.45.9.23.9-.23 1.35-.56 1.68-1.91.56-.9 1.01-1.23.79-.68 1.68-1.12 5.95-2.02 3.82-.9 3.93.34 3.82-.34 5.62.56 4.15 1.35h4.72l5.39.67 3.03.9 2.58 1.01h1.8l1.01-.33 2.13-.79 1.57-1.12 1.13-.34.78-.11h2.36l1.01-.11 2.14-.9 1.79-1.24 2.36-.9 1.35-.22 3.93-.11 1.91-.56 2.13.11.79-.23.67-.45.9-.11.67.34 2.36 1.23 1.12.12 1.02-.12.78-.22.45-.56 1.01-1.12.79-1.69.56-1.91.56-.9.56-.67 1.46-.56 1.35-.11 1.01.22 3.93 1.01 1.01-.11 1.12-.67.45-.68 1.24-1.91 1.57-2.13 7.97-7.52.9-.56h1.46l.9.33.56.45 1.91 2.58.67.57 1.46.33 1.01-.11 1.01-.56 1.69-2.25 1.23-.67 1.46-.56.79-.56 3.48-3.48 5.62-6.63 14.03-7.52 15.05-5.39 19.2-13.59 26.17-12.24 22.34-16.61 11.23-5.62 1.46-.33.79-.45-2.02-1.13-8.65-4.6-5.61-3.14-108.03-58.5.67-2.25-5.27-.9-1.46-.22-5.96-.79-1.79-.22-1.8-.23-2.25-.22-2.58-.22-1.91-.12-2.24-.11-2.47-.11-2.7-.11-1.46-.12-1.57.12-2.02-.12-2.81.12h-1.35l-2.58.11-2.13.11-2.02.11-2.7.23-2.47.22-2.47.23-1.46.22-2.47.34-1.01.11-.79.11-2.02.34-2.69.45-5.84.9-9.66 1.68-12.58 2.13-13.47 2.14-18.08 3.03-29.87 4.94-29.87 4.94-8.42 1.35-18.08 3.03-22.01 3.59-34.59 5.62-38.07 6.28-36.27 6.07-12.46 2.02-38.74 6.29-26.73 4.49-1.68.33v.68l.11.45v.45l.11 1.12-3.03 1.23-2.81 1.01-8.76 1.46-6.74 1.01-10.44 1.58-6.18-1.13 7.08 46.04 3.37 20.1.22 2.58-.22 20.21-4.61.67-7.74 1.13h-1.69l-1.35-.11-1.34-.23-6.63-2.13h-1.35l-2.24.33-1.57.45-1.58.79-.89.56-1.69 1.57-.9.45-1.01.34-23.92 4.27-2.47.56-2.24.78-1.8.68-1.57.89v.57l-1.35.11-1.91.11-3.37.45-8.42 1.23-22.79 3.6-5.73.9-17.3 2.92-17.29 2.8-17.18 3.03-17.07 2.59-34.58 5.5-17.63 3.25-6.74 1.01-1.35.23-.9-4.83-3.48-22.23-2.25-11.68-2.02-12.12-6.73-35.37-1.35-.68-.79-.11-2.24-.22-5.17 1.01-2.69.22-17.19 2.81-29.08 5.05-14.37 2.36 2.24 15.49 2.7 16.29.11 1.57v1.23l-.22.56-.68.9-.78.56-3.26 1.01-2.36.68-18.3 2.58-168.78-10.11-6.96-.33 1.79-.34-.33-2.13-14.49 2.36-.11-1.02-.11-.67-.23-1.12-1.46-5.17-4.71-27.51-2.25-11.79-4.15-23.8-2.25-12.01-.45-2.92.45-2.81.45-1.12v-1.01l-.11-.34-1.01-.79 9.2-1.68 16.06-2.36 2.81-1.01 1.01.79.56.9 2.02 4.15.9.9 1.35.22 1.46.45 2.47.23 4.27-.12 7.3-.44 2.8-.68 1.35-.56 1.68-1.57 1.46-1.57 1.24-1.35 1.35-1.8.56-1.23 7.19-4.16 26.38-4.15 14.49-2.36 14.37-2.58 28.86-4.49 28.64-5.17 14.26-2.24 34.47-5.73.57.9 1.01.78.78-.33 1.24-.68 1.34-1.46 18.42-2.8 15.83-2.02 17.97-3.15 11.79-2.13 15.27-2.36 30.77-5.61 27.63-4.72 18.3-2.92 15.05-2.69 46.26-7.41 3.93-.56 1.01-.12 9.1-1.46 31.44-5.39 15.72-2.47 28.64-4.26 8.53-.79 8.99-1.46 29.87-4.38 15.16-2.36 16.39-2.58 32.23-5.72 12.13-2.59 21.22-4.15 16.84-3.03 20.89-3.48 28.97-4.61 16.62-2.8 29.2-3.71-8.2-51.87-1.01-9.21-5.05-31.89-7.19-49.07-2.25-14.25-3.03-20.55-.78-5.5-1.8-1.91-2.69-.68-.79-.11-1.24.23-7.74 1.57-43.35 7.3-29.87 4.71-15.16 2.47-46.38 7.19-29.75 4.94-14.83 2.92-14.82 2.69-24.03 3.82-4.94.56-27.85 3.82-6.29 1.23-.67-.11-.56-.45-.23-.9-.34-6.84-.89-7.98-1.13-11.67-1.01-7.98-1.46-11.79-2.13-12.35-1.57-11.11-3.6-23.02-3.37-23.02-2.47-17.51-1.01-7.19-1.79-13.25-1.46-11.23-2.25-15.94-2.25.45-7.41-51.88-2.8-18.07-1.69-12.47-3.48-27.17-3.82-30.09-1.79-13.59-4.83-30.99-.34-1.79-.56-3.71-.11-1.91v-2.47l-.23-1.68-.56-2.58-.34-2.02-1.68-13.48-.67-4.38-.34-5.61-1.12-4.15-.23-1.91-.11-3.82-1.01-2.58v-1.58l.11-1.79-.11-1.91-.45-1.46-.45-1.46-.22-1.46-.12-1.46.23-2.69-1.13-7.75-3.36-20.21-.34-2.81-1.46-11.68-4.16-31.55-4.15-37.72-.23-1.13-1.01-3.59-.67-1.35-1.8-2.24-1.12-1.13-1.57-1.01-6.18-2.69-11.79-4.6-5.95-15.16-.9-5.5.79-4.61 1.23-2.36 2.02-1.9 10.11-1.69 6.51-.67 3.48-.56 2.25-1.01 2.02-3.82 1.01-4.94.34-10.56.67-17.29-1.34-8.31-2.36-6.51-2.36-4.94-4.6-10.33-1.24-6.17-2.81-8.65-1.91-5.84-.67-4.27.11-4.04.34-2.92-.67-2.47-1.58-2.36-3.59-4.37-2.36-3.93-.9-2.25-.33-1.35.22-2.35-.22-1.24-1.13-1.57-3.37-3.03-1.57-2.14-.67-1.68-.34-1.8.34-2.8-.79-7.42-.33-4.49-.12-6.28-.45-2.47-2.02-4.61-.67-2.58-.11-2.25-.9-6.51-.56-2.47 26.72 17.41 1.58.22 2.13-.67 2.02-1.91 1.35-2.81.45-4.27 1.23-3.93 1.01-1.23 1.57-1.01 2.7.22 2.36 1.01 2.13 1.91 2.81 3.37 2.13 2.13 2.92 1.24h2.02l4.83-.9 4.94-.79 13.03 1.91 3.93-.11 4.04-1.35 2.81-1.68 7.3-5.73 1.57-1.57 3.71-4.71 2.47-2.47 3.14-2.7 2.47-2.92 1.24-1.8.67-4.49.79-3.25 1.34-2.59 1.35-.89.23-.12 2.92-.89 5.27-.45 3.6.9 4.04 3.14 2.92 1.68 2.92.79 4.27 1.57 7.07 4.72 4.72 2.35 2.02-.11 1.79-1.01.79-1.46.34-2.24-.79-3.26-3.59-8.2v-1.68l1.23-1.68 3.37-1.35 3.93.45 4.72 1.57 4.27 2.81 4.71 2.8 5.84 2.25 6.96 1.68 7.42 1.58 4.37 1.45 5.62 2.36 7.86 3.93 4.15 2.58 2.48 2.48 3.59 4.26 3.7 4.72 2.14 2.02 2.47.9h4.49l8.87-2.81 4.49-.67 6.18.33 4.49-.11 1.69 6.06.78 1.46 1.8 2.7 2.81 3.48 1.34 1.12 3.15 1.69 1.68.33 2.02.12 1.46-.23 1.57-.56 9.33-5.28 2.13-.67 1.12-.11 1.57.22 2.03 1.12 2.47 1.58 1.23.33 1.35.11 1.23-.33 1.69-.68 4.38-2.92 1.68-.78 1.91-.56 1.91-.23 1.24.12 5.16 1.12 6.29.9 1.46-.23 1.8-.34h1.57l2.13.23 1.46.45 1.46.78 1.01.9 1.01 1.35.68 1.46 1.68 4.27.56 1.12 1.46 2.24 5.5 4.5 2.25 2.24 2.36 2.02 1.35.9 1.46.34 4.49.45 2.24.67 2.25 1.24 3.37 2.58 5.28 4.94 3.7 3.37 1.01 1.12.79 1.12 1.12 1.01 1.91.9 1.68.11 1.02-.33 1.34-.9 2.7-4.27 1.12-1.46 1.01-.78 1.69-.57 1.34-.11 1.58.34 1.46.9 1.34 1.23 3.48 4.16 1.69 1.46 1.12.78 2.25.9.9.11 2.02-.22 13.81-4.04 11-2.7 4.16-1.01 8.65-1.8 2.47-.67 1.46-.56 2.02-1.24 12.57-8.3 5.73-1.8.34-.11 3.82-2.02 7.52-3.15 6.18-.33 6.51.22 16.06.79 13.7 2.69 16.73 4.72 15.27 2.69 15.72 2.02 10.78 2.14 23.58-.23 19.88 122.72 19.87 122.62 19.99 122.61 19.88 122.61 27.17 167.52 2.7-2.24.9-3.04 2.13-2.02-.56-4.15.11-.9-.45-4.04-.45-.9-2.13-.67-1.12-1.46-1.8-.34-.56-2.69 1.01-2.81 2.47-5.5.11-2.47 1.46-1.58 2.47.45 3.15 3.15 1.68 1.01 2.02-.11-.45-2.7.34-2.02v-.34l2.02-3.03.79-3.14 4.04-6.63 1.12-3.14 3.04-4.49 2.58-4.72 2.02-2.24 2.58-.34 2.36 1.46 2.13-2.13.9-2.47-.67-3.49 1.35-2.13.33-1.91-1.34-1.91-.23-2.24.56-1.24 1.57-.78 7.64-1.13.22-.33-.11-.34-1.46-.45-4.04.79-2.47-.11-.45-.9-.11-2.02-2.7-.23-1.68-3.03 1.12-2.02 2.81-1.69 2.47-1.68h1.57l1.35-1.12 2.02.33 1.68-1.12 2.7 6.51 4.94 14.71h1.01l.9-.11 1.57-.34 3.37-1.23 10.33-3.26 16.4-4.6 4.83-1.46 6.73-2.25 6.74-2.35 7.19-2.7 12.35-5.05 8.87-4.38 86.13-30.43 44.47-16.39 5.16-1.69 3.26-.78 12.47-2.36 6.51-1.35 5.84-1.01 13.92-2.69 5.28-.9 15.05-2.58 10.1-1.91 11.01-2.36 13.7-2.58 2.47-.45 2.81 18.3.67 2.58 1.35 4.49.33 2.02 3.37 22.01.45 2.81 13.37 62.43-1.58 9.77-.9 5.95.57 2.69.78 1.57 1.69 3.71.56 10.67 4.15-1.69 5.51-2.47 2.8-1.46 1.8-1.12 1.12-.9 1.69-1.8.9-1.68 6.28-11.34 1.24-3.14 3.37-12.47.78-2.02 1.13-1.57.9-1.12 1.12-.79 3.7-1.8.79-.78.45-.9.34-1.57.11-.68-1.69-10.66-.78-3.71-1.46-4.6-1.35-7.64-6.62-35.93v-1.01l.56-2.02v-1.35l-7.64-38.28-.56-2.47 1.12-.12 9.55-1.68.9-.11 1.01-.23 3.36-.67 1.91-.23 2.03-.33 6.4-.9 1.23-.23 6.96 43.46 7.75 48.84.11.9 5.51 33.35 23.02 144.28.33 1.23.23 1.35.33 1.57 1.35-.34 11.23.9 5.62-1.12 1.34-.45 2.47-.78 35.38-11.23 1.91-.79-.34-2.02-3.37-21.11-.34-1.91-.11-.45-3.14-19.42-2.81-18.53-1.46-8.87-1.24-6.96-.67-3.93-1.35-8.08-.67-3.82-1.91-11.57 9.32-1.68 5.73-1.12 5.16-1.01 9.55-1.8 25.26-4.83 1.02-.22 16.28-2.92 12.69-2.36 5.95-.9 4.38-.78 10.33-1.91 1.57-.34 7.3-1.24.67.34 4.83-1.12 8.65-1.57 8.08 55.58 1.24 4.15 14.49-6.51 18.19-5.28 19.31 1.46 23.92-4.83 44.81-9.77 36.04-13.58-.34-1.46-1.79-10.56-.79-5.05-.22-1.23-.79-5.06 12.24-2.35 18.19-2.7 20.22-3.03h.56l.45.11.45.11 1.57 1.01 8.08 27.74-44.58 7.3 8.2 44.12.11 1.01.23 1.24 3.14 22.01 4.6-.79 2.7-.45 1.91-.34 1.68-.22 1.35.56 10.78-1.91 10.11-1.68 2.13-.34 2.58-.34 6.74-1.23 3.82-.56 6.51-1.01 4.05-.68 5.72-1.01 3.03-.45 6.4-1.12 3.49-.56 10.44-1.8 25.15-4.04 11.79-1.91 3.04-.56 3.25-.56.79-.11 5.61-1.13 1.8-1.01 7.75-1.68 6.06-1.57 5.84-1.46 1.24-.11 1.01-.12 1.34.12h1.24l.79.22h.45l1.12.34 1.12.33 1.01.45.45.23 1.35.78.78.68.45.45.57.56.67.67.78 1.01.45.56.45.68.34.67.34.56.22.56.23.68.33.78.23.68.22.78.11.79 1.02 5.84.67 4.04 1.01 6.17.56 3.49.34 2.02.45 3.03 1.57 9.21.22 1.68 1.01 6.51-.67 1.46-.56 1.12.11.9.9 4.94.56 3.03.11.45.68 3.15-.45 3.59 3.59 17.97.9.89.79 1.13.78 4.71 3.82 21.78 1.24 7.19 1.46 7.19 1.57 7.18.11 1.01.56 2.59.56 2.92.11.67.45 3.14.68 3.93.56 2.81-.45 1.01.11.56h1.01l.12.56.11.56.78 4.27.68 4.49.33 1.91.68 2.92.33 2.02-.22 1.01.11.68 1.35 1.01.56.67.56.45.56.22.68.12 1.01.22 2.58-.67 1.24-.23 1.12-.22 1.01-.11h1.57l.68.11.56.11.78.45 1.46 1.01.57-.56.89-.79 1.01-.67 1.13-.45.33-.11 1.46-.34 1.13-.22 2.13-.34 2.13-.34 2.14-.33 2.36-.45 2.24-.34 1.8-.34.34-.11 2.02-.34.78-.22 1.57-.45.12-.11 1.34-.56.9-.45 1.69-.79.22-.22 2.02-.9 1.91-.9 1.24-.45.78-.22h.79l-1.35-9.77 42.11 1.91-3.48-21 13.81-1.46 47.28-7.19 9.77-1.12 10.67-1.68.89 4.15 2.7 16.96 1.01 5.61 1.35 8.98 2.24 14.94.45.56 1.01 6.96.68 4.27.22 2.02.34 2.24.45 3.15.9 4.49.45 2.58.11 1.46.22.79.34 1.23.67 2.25.34 1.46.45 1.79.45 1.91.56 1.8.34 1.57.56 2.36.45 2.36 2.58 18.07.67 4.27-.45 1.23 1.24 7.53 2.13 13.13 1.46 9.55 2.02 13.02 1.58 10 1.01 6.4.22 1.12 1.46 10.1 1.69 11.12 1.34 8.76.34 2.47 1.01 5.95 1.57 11.45 1.69 10.22 1.23 8.31.9 5.95 1.01 6.4.34 3.03.11.79 1.24 8.3 1.34 8.88 1.13 7.29.78 5.39 1.13 6.96 1.23 8.09 3.93 25.94.68 3.93 2.47 16.5.89 2.02 3.26 18.75.79 5.73 1.23 7.41 3.48 22.79 3.03 21.22 1.35 9.77.34 2.02.22 1.46.57 2.36 2.24 11.12 1.35 6.85 4.49 24.59.67 3.7.79 4.04 1.35 7.98.67 4.37.56 2.59 3.03 15.94v.23l.9 4.49.23 1.46 2.02 14.03 1.23 9.32 4.72 32 5.05 33.46.23 1.57-.68.11-.67.12-7.75 1.12-3.14.56-4.04.67-1.01.12-1.13.11-1.79.34-1.02.22-.44.11-6.41 1.13-9.76 1.34-3.82.68-1.46.22-1.91.34-.56.11-5.17.67-1.35.34-9.09 1.69-3.26.67-1.57.34-3.93.78-1.46.34-4.27.67-2.24.45-10.78 1.69-5.84.78-4.83.68-1.35.22-6.29.9-3.14.34-.68.11-2.92.33-6.73.9-2.7.34-7.41.45-4.04.67-25.49 3.82-8.09 1.35-2.92.45-13.81 2.13-7.52 1.12-1.8.34.9 1.01-1.57.22-25.38 3.93-4.72.45-6.96 1.01-8.42 1.24-2.14.34-6.17 1.01-5.84.89-51.66 7.19-22.46 2.92-16.84 2.58-2.36.34-.78-.11-.79.33-2.58.34-.56.11-3.37.79h-.45l-.56.11-.23-.11h-.22l-.34-.23-.34-.22-.22-.45-1.24-2.25-.22-.44-.23-.57-.33-.33-.34-.23-.56-.11h-.45l-1.35.23-.22 5.95-6.29 1.57-17.07 2.92-16.39 6.17-7.08-1.91-10.33 1.91-6.74 1.24-33.69 6.4-12.24 2.36-19.42 3.59-23.02 4.38-.11-.56-7.42-45.7-6.17-40.42-.45-2.81.11-2.36-87.36 14.71-44.81 7.41-17.29 2.81-21.68 3.59-31.66-27.28-54.13 41.65-12.13-8.53-2.13.56-55.02 17.52-9.1 2.92-2.47.11-4.49.9-6.18 1.01-72.43 11.45-6.06 1.01-20.89 3.82-65.13 9.88-9.32 1.35-71.42 11.11-48.62 7.41-9.66.56-31.21 4.94-1.02.23-1.34-.23-1.69 1.91-1.01 2.25-.34 2.58-1.57-6.06-.9 1.23-1.34 1.24-4.94 3.03-13.37 8.42-16.5 10.89-12.92 8.54-28.41 18.63-26.61 17.3-13.48 8.42-26.5 17.18-6.62 4.04 3.25 20.77 8.54 57.94 7.3 48.5 1.68 11.9 3.59 23.47 3.26 22.68 5.05 35.82 3.6 22.46 6.73 47.27.45 1.46.79 1.23.67.9.79.9 1.12.56-.78 2.24-.12.68-.11 2.13v2.58l.23 2.14 1.79 12.8.9 7.75 4.04 25.37 2.03 15.83 1.23 7.3 2.92 20.32.9 5.73 1.8 12.13 1.79 10.21.9 7.75.9 5.39 1.01 9.1 1.01 4.37 1.68 8.99.79 6.96v1.35l.45 4.15.56 1.91.11.56-.11 2.13-1.01.57-113.98 18.97-100.5 16.73z" stroke-linejoin="round"/></defs><use xlink:href="#c" fill="#6bacaf" stroke="#6bb4d2" stroke-width="5.76"/><defs><path id="d" d="M1949.87 1010.98l-3.03.67-.45.12-9.21 1.34-8.08 1.13-.34-.34-40.2-41.1-18.64 1.69.33 2.02-57.94 3.26-30.21-11.68-1.12-.34-2.02.23-.23-2.02-.89-4.94-1.13 1.34 1.69 11.12-47.62 8.64-20.1 3.6-7.07 1.23-.79-.11-2.13.79-1.24.22-2.13-9.21-12.24 1.69-23.47 11-9.43-.78-16.17 2.58-8.2 1.23-11.23 2.92-28.86 7.52-44.8 5.17-102.53 11.79-8.87-11-4.49-5.62-6.51-7.86-4.05-5.16-3.81-2.47-14.26-35.37-.9-2.25-2.36-5.84-17.18-42.78-8.65-20.65-4.94-11.68-21.45-51.09-6.17-14.71-5.06-12.24-3.59-8.53-10.78-25.83-35.04-83.76-9.2-22.12-1.02.34-111.39 28.07-29.2-124.97-8.98-38.29-4.72.9-2.92.45-1.57.23-5.84.44-4.71.34-2.81.23-.45-.23-5.95.68-3.26.56-3.48 1.01-9.32 3.37-4.49 1.12-9.21 1.68-2.02.23-46.72 8.31-57.27 10.1-33.91-3.03.23 1.68-27.74 4.38-.79.11-14.93 1.58-5.95 1.01-2.36.56-.9.34-15.5 2.47-8.19 1.23-9.1 1.01-4.83-.34 4.83-1.57-1.68-10.66-2.81-15.72-3.26-19.88-10.89-62.65-7.86-25.94-10.44-61.98-2.59-16.16-3.14-19.2-1.01-2.14h-.23l-1.91-.56-3.81 1.24-15.72 4.37-26.28 6.07-15.83-16.84-6.97 1.12-20.55 3.93-22.12 3.93-.22-1.46 18.97-3.37 7.3-1.35 62.55-11.45 11.01-2.02 4.82-.9 1.8-.22 2.47-.57-2.58-23.01-8.65-77.48-.11-1.68-3.82-33.8 24.26-4.04 4.38-1.01 6.17-2.25 5.06-1.79 5.95-3.15 4.49-2.69 8.42-6.06 4.04-3.82 3.82-3.93 5.84-6.74 2.81-3.59.45-.56.22-.34 9.88-12.35 3.15-3.82.9-1.12 4.6-5.39 4.38-4.04 8.31-6.29 1.24-.79 3.93-2.35 1.46-.34 9.09-6.29 7.75-4.38 5.95-3.25.34-.12 7.75-3.25 3.14-1.13 3.71-1.23 2.8-.79 3.26-.67 2.58-.45 5.73-.67 4.15-.79 2.03-.22L985.15 64l38.41-4.38h1.12l1.12-.34 5.06-.44 16.28-2.36 29.2-3.82 9.32-.79 3.37-.22 5.61.45 4.94.67 6.74 1.01 4.94.79 3.82.34 3.7.11h.9l2.02-.11 6.07-.57 10.33-.89 1.68-.45 5.17-.79 2.13-.34 5.62-.67 9.43-1.23 6.62-.9 2.47-.23 18.42-2.36 11.01-1.46 38.74-4.82 22.23-2.81 1.01-.11 12.02-1.46 6.06-.45 2.02.11h2.25l5.84.45 5.95.67 1.12.68 2.25.45 3.37.78 5.39 1.69 4.83 1.79 3.7 1.69 6.4 3.25 6.52 3.04 3.59 1.34 4.04 1.24 4.04 1.12 4.38.9 1.91.45.79.22h1.79l7.98.23h6.17l3.82-.34 13.48-2.13 14.71-2.59 3.48-.33 3.48.11 3.03.34 4.72 1.01 10.22 3.59 7.63 2.58 1.8.79 2.13.56 2.25.34 1.91.11h1.01l3.14-.23 1.69-.22 2.47-.56 1.35-.45 2.02-.9 6.62-3.82 1.01-.67 13.48 27.4 8.64 17.06 35.15 70.07 50.09 98.8 43.68 83.77 3.93 8.19 6.85 13.81 8.76 17.74 12.24 28.3 2.13 4.27 2.47 4.71 2.25 3.93 2.02 3.59 1.46 2.59 4.04 7.74.34.68 13.25 26.72 41.32 86.57 36.5-8.31 1.01 1.8 3.25 5.16v.11l2.92 4.72 9.66 15.83 1.12-.78-9.65-15.84-2.92-4.71-4.27-7.08-7.19-12.01-.67-1.23-1.24-2.25-1.01-1.91-.67-1.35-.9-1.79-1.46-3.03-6.51-14.38-4.38-9.65-.9-1.69-3.37-6.85-.78-1.46-3.37-6.17-6.74-12.02-3.82-6.84-5.5-9.89-.79-1.34-4.94-8.99-1.68-3.25-1.24-2.13-2.69-4.95-1.91-3.48-.79-1.57-1.23-2.36 9.21-5.5.56-.33.56-.12.56-.11h.56l1.01.23 6.4-1.8-2.24 12.46.45 1.01-.57 8.99 1.58 6.17 7.75 11.9 5.72 12.47 8.87 9.65 8.43 1.69 5.72 4.94 4.72 7.63 1.12 6.63.45 6.62.56 5.17 8.54 6.06 5.84 5.28 14.15-2.02 4.04 5.16-4.61 11-.89 11.91 3.81 16.39.68 4.49 1.34 2.58 3.71 3.03.56 2.14 5.84 1.23 6.51-4.15 2.14 4.26 3.82 7.42-2.47 4.15-.9 9.09 4.49 11.57 8.42 10.44 4.72 2.58 2.58-1.9 3.82 1.46 5.39 15.27.56 19.64-.9 4.05 1.69 3.37 4.37 6.96 10.56 13.69 4.27 3.6 4.94 2.92 4.04 3.59 4.61 2.69 4.49 1.35 6.4.79 4.71-1.12 3.37-.23 2.7-.34 2.13-.22 2.13-.45 1.91-.56 1.69-.56 2.02-.68 2.58-1.12 1.46-.67 1.13-.45.56-.11.78-.12.79.12.34.22.33.56.56 1.8.68 2.13.56 1.69.11.67-.11.45-.23.45-.44.22-.68.23-1.23.45-1.35.45-2.36.78-1.8.79-1.79.78-1.35.56-1.35.79-1.12 1.01-1.24 1.46-1.46 1.91-1.34 1.91-1.24 1.91-1.01 1.46-4.04 6.51-7.86 20.77-.23 4.38 1.46 3.37 2.81 7.18 2.02.12 1.24 1.12.22.9.34 1.57-.45 1.91 2.92 7.86 4.72 9.43 2.91 5.05 4.16 6.74 1.68.22 1.8 1.46 1.01 2.7-.67 2.81 1.57 2.91 3.59 5.06 5.28 12.69 3.26 2.58 1.23 3.25-.22 2.36 2.24 4.83 1.24 2.58.45 1.01.78 1.57 3.26 7.19.79 1.8.56 1.23 6.74 14.37 13.02 22.12 4.72-3.48 7.3 8.65 1.68 5.16 6.63 5.06-3.15 6.73-4.49 5.17-1.57 1.68-2.36-3.03-1.23 1.12-1.69-2.47-8.53-11.22-3.48-4.72-4.5-7.64-6.73 1.69-2.81-7.08-6.29 1.24-8.98 1.46-3.93.11-5.17.9-.11.56-.11.34-.34.56-.56.22-3.82.68-.67.11-.56-.22-.34-.34-.34-.23-.34-.78-10.66-21-7.19-.56 6.63 13.59 7.29 14.26 26.28 51.53 5.39 10.33 4.16 7.41 5.05 7.98 3.48 5.61 6.4 9.32 13.59 17.18 2.02 2.58z" stroke-linejoin="round"/></defs><use xlink:href="#d" fill="#09757a" stroke="#097d9b" stroke-width="5.76"/><defs><path id="e" d="M1934.04 697.38l-1.01.9-3.37 1.23-3.82.9-3.14.79-2.03.45-1.68.78-1.57.56-1.57.68-1.69 1.23-1.8.45-2.13.34-1.8.45-1.46.33h-.78l-.34-.22-.34-.34-.33-.45-.23-.56-.33-1.23-.79-2.14-.45-1.46-.11-.56v-.33l.11-.34.23-.45.44-.34.57-.33.89-.34.9-.45.9-.45.79-.45 1.23-.78 1.24-.45 1.68-.79 1.24-.56 1.46-.45 1.34-.34 1.35-.33 1.91-.68 2.58-1.01 1.46-.67.9-.34.9-.22 1.12-.34 2.25-.67.67-.23h1.24l.56.34.56.22.45.56.34.57.33.67.34 1.12.67 1.91.34 1.57.23.68-.12.56-.11.45-.22.56z" stroke-linejoin="round"/></defs><use xlink:href="#e" fill="#09757a" stroke="#097d9b" stroke-width="5.76"/><defs><path id="f" d="M2580.06 2788.39l-3.37.56-4.82.79-16.06 2.47-4.27.67-.56.12-.56.11-.11-.79v-.45l-.12-1.12-18.64-21.56-.56-3.93-1.57-8.08-.56-3.82-18.19-1.01-18.65 7.3.45 3.37 1.35 7.97 1.69 6.85-.45 1.23-.23.45-1.35 3.93-1.57 3.03-.9 1.24-4.82 5.95-.68.9-.56.9-.34 1.01-.33 1.01-.12 1.01v1.23l.12 1.8v.9l.11.78-6.63 1.13-5.72.78-2.25.34-5.39.79-2.25.22-4.04.56-7.86 1.12-2.02.23-4.49.67-.23-1.57-5.05-33.46-4.72-32-1.23-9.32-2.02-14.03-.23-1.46-.9-4.49v-.23l-3.03-15.94-.56-2.59-.67-4.37-1.35-7.98-.79-4.04-.67-3.7-4.49-24.59-1.35-6.85-2.24-11.12-.57-2.36-.22-1.46-.34-2.02-1.35-9.77-3.03-21.22-3.48-22.79-1.23-7.41-.79-5.73-3.26-18.75-.89-2.02-2.47-16.5-.68-3.93-3.93-25.94-1.23-8.09-1.13-6.96-.78-5.39-1.13-7.29-1.34-8.88-1.24-8.3-.11-.79-.34-3.03-1.01-6.4-.9-5.95-1.23-8.31-1.69-10.22-1.57-11.45-1.01-5.95-.34-2.47-1.34-8.76-1.69-11.12-1.46-10.1-.22-1.12-1.01-6.4-1.58-10-2.02-13.02-1.46-9.55-2.13-13.13-1.24-7.53.45-1.23-.67-4.27-2.58-18.07-.45-2.36-.56-2.36-.34-1.57-.56-1.8-.45-1.91-.45-1.79-.34-1.46-.67-2.25-.34-1.23-.22-.79-.11-1.46-.45-2.58-.9-4.49-.45-3.15-.34-2.24-.22-2.02-.68-4.27-1.01-6.96-.45-.56-2.24-14.94-1.35-8.98-1.01-5.61-2.7-16.96-.89-4.15-10.67 1.68-9.77 1.12-47.28 7.19-13.81 1.46 3.48 21-42.11-1.91 1.35 9.77h-.79l-.78.22-1.24.45-1.91.9-2.02.9-.22.22-1.69.79-.9.45-1.34.56-.12.11-1.57.45-.78.22-2.02.34-.34.11-1.8.34-2.24.34-2.36.45-2.14.33-2.13.34-2.13.34-1.13.22-1.46.34-.33.11-1.13.45-1.01.67-.89.79-.57.56-1.46-1.01-.78-.45-.56-.11-.68-.11h-1.57l-1.01.11-1.12.22-1.24.23-2.58.67-1.01-.22-.68-.12-.56-.22-.56-.45-.56-.67-1.35-1.01-.11-.68.22-1.01-.33-2.02-.68-2.92-.33-1.91-.68-4.49-.78-4.27-.11-.56-.12-.56h-1.01l-.11-.56.45-1.01-.56-2.81-.68-3.93-.45-3.14-.11-.67-.56-2.92-.56-2.59-.11-1.01-1.57-7.18-1.46-7.19-1.24-7.19-3.82-21.78-.78-4.71-.79-1.13-.9-.89-3.59-17.97.45-3.59-.68-3.15-.11-.45-.56-3.03-.9-4.94-.11-.9.56-1.12.67-1.46-1.01-6.51-.22-1.68-1.57-9.21-.45-3.03-.34-2.02-.56-3.49-1.01-6.17-.67-4.04-1.02-5.84-.11-.79-.22-.78-.23-.68-.33-.78-.23-.68-.22-.56-.34-.56-.34-.67-.45-.68-.45-.56-.78-1.01-.67-.67-.57-.56-.45-.45-.78-.68-1.35-.78-.45-.23-1.01-.45-1.12-.33-1.12-.34h-.45l-.79-.22h-1.24l-1.34-.12-1.01.12-1.24.11-5.84 1.46-6.06 1.57-7.75 1.68-1.8 1.01-5.61 1.13-.79.11-3.25.56-3.04.56-11.79 1.91-25.15 4.04-10.44 1.8-3.49.56-6.4 1.12-3.03.45-5.72 1.01-4.05.68-6.51 1.01-3.82.56-6.74 1.23-2.58.34-2.13.34-10.11 1.68-10.78 1.91-1.35-.56-1.68.22-1.91.34-2.7.45-4.6.79-3.14-22.01-.23-1.24-.11-1.01-8.2-44.12 44.58-7.3-8.08-27.74-1.57-1.01-.45-.11-.45-.11h-.56l-20.22 3.03-18.19 2.7-2.92-16.73-13.25-76.36 6.4-.89 35.82-6.07 36.5-6.17 2.47-.45.67-.34.34-.34.22-.78-1.01-6.06-.56-.68-.33-.22-.68-.11-22.79 3.7-.9-5.73 79.73-11.67 6.73 40.64 29.31-4.15 2.81 10.67 7.41 34.02 4.49-.57-5.61-30.87.45-1.35.56-.79.34-.44 2.02-1.02 29.98-6.51 5.28-.9 1.57-.22 1.57-.11 2.7.56 6.51 1.8 3.26.56h3.48l18.64-4.27 1.23-.22 9.21-2.14 61.54-13.58.79.11 1.57-.45 20.32-4.38 9.1-2.02 2.13-.56 5.17-1.8.45-.22 4.38-2.59 4.49-3.48 1.46-1.57 1.12-1.68h.11l4.27-5.39 7.75-10.22-1.46-1.24-1.8-1.57-.22-.22-2.92-2.58-2.36-2.03-4.38-3.81-9.99-8.87-3.26-2.81-1.69-1.46 1.13-1.23 29.53-3.93 1.24 5.61 2.47 6.85 3.59 7.86 4.15 7.63 3.37 5.06 4.16 4.49 31.1 28.29v-6.4l.45.9 1.58 1.57 18.97 17.29 1.69 1.01 17.63-3.25 10.67-1.8 8.64-1.35 8.2-1.23 6.62-1.12 1.8-.23 8.31-1.46 21-3.37 15.05-2.35 2.02-.23 8.2-1.68 2.8-.56 1.24-.45 1.35-.56 6.06-.12 53.9 83.2 9.32 1.01 22.46 38.85-6.62 5.17 5.5 8.98 6.85-5.28 5.39 8.87-7.19 4.94 6.18 10.33 7.41-4.94 3.25 5.39-6.4 5.62 34.03 54.45 14.71 18.19 9.66 13.03 7.3 8.98 17.29 21.45 7.07 8.64 11.46 11.9 4.38 2.81 1.91 1.24 3.7-.45 10.22-5.17 2.92-2.02 40.2-27.73 1.91-1.01.67.11.45.22.34.23.34.45 2.13 3.14.67 1.46.34.79.11.56-.11.56-.11.56-.23.67-.11.9-.11.68.11 1.01.23 1.91.11 1.57.11 1.68v1.46l-.11 3.93-2.81 2.25-1.8-1.24-1.45-1.79-1.58-1.69-1.34-1.35-2.59.34-4.94 1.8-7.63 5.27-2.36 1.46-2.14 1.46-2.58 1.69-2.81 1.46-3.14 1.01-2.25 1.12-2.24 1.35-1.01 1.79-.23 1.46v1.8l.45 2.47.23 1.8.22 1.34.23 1.46-.57 3.04 1.46 4.71 1.01 1.24 1.13 1.12 1.46.9 1.57 2.02.67 2.24.9 3.04.9 2.8 1.24 1.69 1.9 2.24 1.13.79 6.4-2.13 3.14-1.46 1.91-1.69.67-1.35-.44-1.57-.68-.78-1.12-.45h-1.35l-1.35.11-1.79 1.35-1.01.11-1.35-.45-.79-1.01-.33-1.35.11-1.79.22-.45 1.01-.9 7.3-2.02h2.02l2.92.33 3.15 2.81 2.02 2.36-2.7 12.01-.67 3.15.11 8.98-.22 4.6.22 8.2.56 8.53-9.43 19.32 28.97 57.82 48.29 54.34-5.73 1.01-1.23-.56-.68.23-.56.11-.56.11-17.85 2.25-1.01.22-1.24.12-1.24.33-.33.23-2.36.56-3.48.9-.68.22-.56.23-.56.11-.67.22-.56.11.78.68.79.78.9.79.9.79 2.13 1.57 3.26 16.28-10.67 1.68 2.58 3.48 10.67 17.41 3.48 5.27 15.95 25.27 8.64 13.7-5.16.89-4.16-.11-.9.68-.9.33-6.73.9-2.02.34-10.56 1.46-10.78 1.68-10.78 1.57-10.67 1.46-1.35.23-.56.22-8.76 1.24-12.24 1.57-9.43 1.23-11.23 1.58.68 3.03.11 2.24 2.58 17.52.11.56 3.15 21.78 3.25 23.58 3.6 23.92 2.8 19.31 1.69 12.58 1.8 12.8.11 1.23 3.82 25.6 1.68 11.01 1.01 7.85v.57h-.22l-21.79 3.14-6.4.9-40.31 4.38-10.45 3.48-6.4 2.13-19.31 6.4-35.37 4.16-4.16.67-12.46 2.36-12.36 3.48-1.34.11.33 2.25.57 3.59.33 2.47.45 2.69 1.46 10.78.23 1.13.11 1.12 1.57 14.15.22 1.34.12 1.01.22 1.35 1.01 7.07.9 6.07.22 1.12.79 5.5.23 2.36 1.46 10.11.11.89.11.57.11 3.7v.45l-.11.79-.22.89-.68.68-1.46.67-4.94.79-1.12.11-2.14.34-1.9.45-1.24.11-2.92.78-1.01.12-1.01.33h-.34l-4.04 1.13-2.81.67-3.25.67-2.59.45z" stroke-linejoin="round"/></defs><use xlink:href="#f" fill="#004249" stroke="#00465f" stroke-width="5.76"/></svg>