<svg width="384" height="5.87in" viewBox="0 0 2880 4229" xmlns="http://www.w3.org/2000/svg" xmlns:xlink="http://www.w3.org/1999/xlink"><path fill="#fff" d="M0 0h2880v4229H0z"/><defs><path id="a" d="M1399.76 2000.18l-2.12-1.85-2.38-2.11-1.06-1.06-1.32-1.32-9.51-8.19-5.16-4.5-9.12-7.93-7-6.07-4.36-3.84-16.92-15.33-1.98-1.71-6.48-6.88-1.19-1.32-1.72-1.98-3.3-3.7-4.49-4.76-2.12-2.38-1.45-1.58-2.12-2.25-3.96-4.36-2.51-2.64-4.36-4.76-1.33-1.59-.79-.66-.26-.4-2.25-2.37-3.96-4.37-.93-1.05-4.23-4.5-1.32-1.45-1.85-2.11-.79-.8-6.74-7.27-4.1-4.49-.79-.79-2.38-2.64-2.91-3.18-1.06-1.05-3.3-2.91-3.84-4.23-2.37-2.91h6.47l1.72-.26 3.7-.4-1.06-10.17-.79-7.41h-1.98l-3.57-1.05-8.99-2.65-2.91-.79-8.98-2.64-1.72-.4-5.16-1.58-3.96-1.06h-.4l-12.68 1.45-2.91.27-3.04.26-5.69.66-7.26.66-2.65.27-4.76.39-.52-5.02-.66-5.42-.53-5.02-.53-5.29-.66-5.94-.53-4.76-1.06-10.04-.79-6.22v-.39l-.66-6.08-6.21.53-5.29.53-4.23.53-4.76.39-4.76.53-4.75.4-.53.13-1.32-.27-2.78.14-2.78-.14-1.85-.39-7.79-2.25-.66-.13-1.06-.27-.53-.13-.66-.13-1.45-.26h-.8l-1.45-.14h-1.85l-6.48.66-1.58.14h-2.38l-3.31.13-.53-.13-1.71.13-5.16.4-3.7-78.64-4.62-55.5.39-42.82-1.19-129.51.53-2.12 3.57.27v-7.14l.53-5.95.92-5.02.93-4.1 1.45-4.09 3.17-5.16 1.72-2.91 1.46-3.83 2.24-3.96 1.72-3.57 1.72-2.78 1.98-3.56 1.06-1.85-7.4-2.38 4.36-11.63-.4-2.12-1.72-14.14 20.36-45.99 1.19-9.25 2.64-17.05.66-4.89.27-1.45.52-8.72 5.16-30.53-.66-.93 1.06-1.45.26-.79.26-.27 1.06-4.89 1.32-4.49.8-1.85 1.19-5.82.52-3.7 6.35-9.12 5.28-7.26 5.29-5.29 1.98-.79 2.78-2.65 8.19-5.15 5.03-3.96 5.55-4.5 2.24-2.24 3.04-2.78 9.12-7.27 2.91-1.58 1.98-1.59 6.08-5.29 3.97-2.77 5.28-3.83 7.54-3.44 5.68-2.25 8.59-2.24 3.57-1.19 2.38-.8 2.25-.79 4.89-.4 2.11.53-1.85 9.91-9.65 54.32-2.77 16.39-1.19 7.27-.66 6.08-.53 5.68-1.72 25.64-.79 12.29-.8 11.36-2.51 37.54-.53 3.83-.79 6.21-1.06 6.34-.92 5.95-1.46 9.91-1.05 8.72-1.72 13.22-.79 8.72-.8 10.05-.39 7-.14 2.78-.79 11.76-1.45 18.9-.53 5.94-.79 10.31-.27 4.36-.26.93 2.51 1.19 7.27 3.3 6.08 2.78.92.39 6.87 3.17 3.18 1.59 1.05.66 1.19.66 3.17 1.98 1.86 1.33.13.13 4.23 3.17.92.92 3.04 2.65 10.05 11.49 2.51 2.78 2.38 2.51 1.19 1.19 1.85 1.72 4.23 3.17.79.66 1.98 1.32 1.32.8 7.27 4.49 1.19.79 3.31 1.98 2.11 1.06 5.68 2.91 13.62 7.53 3.04 1.72 5.55 3.04 4.23 2.38.66.39-1.19.93-.53.53-.66.66-.53.79.79.53 8.99 5.68 9.78 6.21 2.25 1.59 3.83 2.38 1.98 1.32 2.91 1.98 5.42 4.36 2.51 2.38.13.14 2.38 2.37 2.38 3.31 2.51 3.57 2.51 4.23.53 1.18 1.85 3.57 1.45 3.7.93 2.78.79 2.77.66 2.78.66 3.3.4 3.04.13 1.32.13 1.19 1.85.66 2.65 29.21.66 7.14 2.77 29.6 1.33 15.59.92 8.6 1.32 13.08.27 2.77 1.45 14.41 1.59 13.74 1.85 16.92.53 4.76 1.19 10.04.26 2.91 1.06 9.91.26 1.19v.13l1.32 11.5 1.59 13.21.13 1.33-1.32 3.3 1.45 12.29 1.06 9.52.4 3.83 1.58 13.87.4 3.97 1.06 7.93.66 7 1.06 8.59 1.45 11.9.4 2.64-5.42.53-8.99.92 2.38 22.34-2.91 19.82-7.66 18.64-9.12 9.11z" stroke-linejoin="round"/></defs><use xlink:href="#a" fill="#9dc8ca" stroke="#6bb4d2" stroke-width="5.76"/><defs><path id="b" d="M1917.44 4171.51l-85.64 8.33-6.08 1.06-3.83.26-13.61 1.06h-.27l-29.6 2.77-24.59 2.65 4.23-32.38 16.26-140.49 24.85-2.37 23.13-2.25 45.73-4.89 39.25-3.17 35.81-3.17-.26-.93-1.72-19.16-5.95-63.57-1.71-20.35-.66-5.29-.53-7-.66-5.29-4.5-48.23-20.09 1.71-25.5 2.25-28.68 2.51-47.98 5.02-5.68-26.16-9.25-42.82-3.18-14.41-15.19 1.46-35.43 3.83-26.3 2.77-13.48 1.33-.66.13-3.04-32.78-.66-7.4-3.57-36.61-.53-8.19-.52.13-20.89 1.72-7.4.4-3.3.26-3.97.13-31.72 2.38-5.28.53h-1.85l-10.97.79-8.46.53-10.57.93-16.52 1.06-27.23 2.24h-.66l-12.29 1.06-13.22 1.45-4.76.4-4.49.53-18.9 1.72-8.86 1.05-34.23 3.18-32.77 3.17-20.09 1.98-30.53 3.44-.66.13-24.45 2.77-8.46.93-24.19 2.51-17.31 1.72-28.81 2.77-3.31.27-9.12.92-2.38.27-.92-6.22-.93-5.02-3.43-19.16-1.85-10.31-.8-5.02-.66-5.02-.39-5.02-.13-5.29.13-5.02.39-5.16.53-5.15 1.32-9.25.66-6.08.4-5.15.27-5.16v-10.31l-.4-6.6-1.45-23.26-1.06-8.86-1.59-9.51-.66-3.84-1.19-5.41-1.45-5.95-1.46-6.08-1.05-4.76-.93-4.89-.66-4.89-.66-5.68-6.48-67.8-1.58-16.65-.13-1.19-.4-4.49-24.32 2.38-7.4.79-18.37 1.72-11.63 1.19-2.51.26h-1.19l-2.25-.39-2.25-.53-6.34-2.51-2.78-.66h-2.77l-1.06.13-3.96.26-17.32 1.59-29.73 2.77-19.3 1.72-1.19.27-.26-1.33-.4-3.7-.53-6.21-1.19-10.17-.66-5.95-2.91-27.89-.39-4.36-2.38-24.84-1.46-14.67-1.05-10.84-3.44-35.15-3.57-35.68-1.58-16.26-6.22.66-27.62 2.91-29.87 3.04-10.44 1.06-16.12 1.71-13.35 1.46-40.84 4.23-4.63.39-89.6 8.86-61.2 5.94-36.21 3.44-74.8 7.14-7.67.79-27.36 2.51 7.01 78.63 6.47 73.35 6.48 73.21 1.19 13.75 4.76 47.44.13 1.72 4.63 46.12 3.83 37.8.26 3.44.53 3.83 1.85 17.58 3.04 29.2.13 1.85 1.19 10.18 1.98 18.9 2.65 25.24 1.19 12.16-42.56 3.7-35.16 3.04-3.03.39-25.25 1.99-11.89 1.05-14.41 1.19-26.56 2.25-15.6 1.58-26.43 1.99-17.18 1.72-6.08.52-20.22 1.85-8.6.93-14.93 1.32-23.53 2.25-45.59 3.7-3.04-33.17-.4-3.57-.26-3.7-.4-3.04-1.72-17.98-.13-1.98-1.45-16.78-2.25-24.05-3.83-43.35-1.99-20.75-.26-2.11 1.72-.14 22.86-2.11 61.2-5.55 20.22-1.59 7-.66-2.25-24.18-1.19-12.69-1.98-20.35-5.68-61.45-3.04-30.14-1.06-12.68-1.72-16.65-1.98-21.02-5.68-60.26-4.23-42.29-.66-8.06-.27-2.78-.39-1.05-.8-1.99-2.37-4.62-.4-1.59h-.79l-4.1.53-29.74 2.51-58.55 5.02-15.2 1.32-4.75.4-.93-11.89-1.45-14.94-.66-8.45-1.72-17.71-2.51-30-.66-7.14-2.91-29.6-.66-7.54-.66-6.74-.27-2.51-1.85-21.41-.79-6.87-.26-3.96 19.29-1.46 8.06-.79 10.31-.79-.26-2.51-5.55-60.53-1.85-20.09-2.25-23.52-1.19-13.48-2.91-32.64-.39-2.78-1.19-12.29-.14-1.72 12.43-1.19 12.95-1.19 38.59-3.43 51.68-4.76 19.29-1.85 14.01-1.19-2.38-26.17-6.07-64.89-.8-10.57-2.38-24.84-4.09-43.62-1.85-18.63-.8-7.14-5.55-58.28-1.85-18.5-1.19-13.21-1.85-18.51-1.58-14.27-1.72-18.5-.4-1.85-1.32-12.56-1.59-12.29-.39-3.3-4.1-39.78-1.72-19.03-.26-2.64-8.06-80.49-3.57.27-8.73.53-8.72.79-52.47 4.63-34.89 3.17-25.51 2.24-14.4 1.19-11.9 1.19-13.61 1.19-63.97 6.08-45.2 4.36-6.61.66-7.53-78.37-6.08-62.9-1.59-17.71-5.81-61.59-3.44-32.9-2.11-22.07-2.91-31.46-.26-5.55-3.7-38.06-2.12-19.29-1.19-17.84-2.64-24.98-2.25-22.86 10.31-7.93 11.37-9.12 22.6-16.52 12.82-7.4 7.4-3.17 7.66-.4 5.95-.4 15.86 2.25 6.34 1.98 14.81 6.87 14.67 10.58 7.53 6.6 4.36 3.57 3.97 3.17 14.01 10.44 9.25 5.42 24.98 13.09 6.6 2.9 49.04 12.29 12.16 2.38 12.42-.39 15.86-.93.93.53 1.32.13 1.85.13h.26l-.26-8.45 2.91.13 3.7.66 5.41.66 5.95 1.06 5.42.79 6.87 1.32 6.21 1.72 5.69 2.25 5.81 2.51 4.89 2.91 5.42 2.77 3.7 2.64 4.23 3.18 5.42 3.17 5.55 2.11 3.17.93 4.89 1.85 4.89 1.45 6.74 2.25 5.03 2.11 3.43 1.06 6.48 1.06 5.15 1.19h5.42l6.87.52 4.37.4 4.49-.53 6.87-.79 5.69-1.06 4.75-1.06 7.01-1.71 5.02-1.46 6.87-2.64 5.69-2.38 4.75-2.38 6.08-1.98 6.48-1.19 6.08-1.06 7.27-1.45 7.66-.4 4.63-.39 3.3-.4 10.44-3.83 2.91-.93 5.55-1.98 8.46-3.04 8.33-2.25 6.74-2.24 5.68-1.72 5.29-1.32 7.66-1.06h4.36l4.63-.66 4.23.53 7.67 1.58 5.02 1.46 5.15 1.85 7.4 2.64 8.99 3.7 5.55 2.91 5.16 2.91 6.6 4.09 7.01 3.97 6.21 5.15.79.79 4.36 3.57 4.1 3.97 4.23 4.09 4.49 4.89 6.48 8.2 6.34 9.91 4.5 6.08 5.68 7.8 4.76 4.49 6.87 4.62 4.63 2.78 4.23 2.25 6.21 3.04 8.06 2.38 7.8 1.18 5.95.93 5.02 1.32 8.06.93 8.33.26 8.98-.26 7.8-.66 10.18-1.06 5.68-.53 5.02-1.59 4.23-1.85 5.03-1.85 3.96-.66 3.04-1.05-.13-6.08 16.91-19.43 18.77-14.67 16.39-10.18 3.17-1.45 13.62-7.66 9.91-3.84 4.89-1.05 5.15-1.46 2.38-1.32 3.17-2.51 1.19-1.59 1.46-2.24 4.75-6.61.53 12.42-5.15 2.91-1.19.92-8.06 4.76-1.59.79-.26 6.35 8.06-4.5 2.25-1.32 1.19-.66 2.77-1.72 6.21-5.55 3.97-2.9 15.72-8.99 13.75-23.39 24.58-17.18 4.23 8.85 9.39 10.84 7.13-5.68 1.59-1.33 8.46-7.26 7.79-6.74.14-.14 2.64-2.51 1.85-1.85.26 1.46.8 6.34 2.77 1.98-1.19 3.17-1.19 4.23-1.58 8.46-.4 7.8.66 7 1.46 8.46 3.3 9.52 2.91 5.94 2.77 4.63 7.14 9.38 12.69 12.56 16.65 17.97 1.59-1.72 1.98-1.98 1.19-.79 2.25-1.85 2.24-1.59 8.33-4.49 9.25-5.03 1.72-.92 4.62-2.51 2.25-1.32.93-.4.53-.26 3.83-2.91 1.06-1.32 1.05.26 1.06.13 2.64-.52h.66l.93-.27 1.32-.4 2.12-.26 1.18.13 3.84.8 1.45.52 3.83.93 3.57.66h.93l1.58.13 8.33-.66.93-.13 1.05-.13 3.97-.4 7.27-.79 3.57-.4 1.45-.13 5.15-.66 10.44-1.06 4.1-.53 6.48-.79 10.04-.93 3.17-.39 7.8-.8 10.31-1.18 9.52-1.06 14.67-1.46 19.03-2.24 2.51-.27 17.71-1.98 10.44-1.06 7.14-.79 5.02-.53 1.32-.13 1.72-.26 21.28-2.38 8.59-.93h.4l8.98-.92 6.21-.53 18.77-1.98 3.17-.27 27.63-3.04.52.4 3.57-.27 4.36-.52.14.52.26 2.91 3.97 33.57.52 5.68.93 8.2 1.06 10.17 2.24 25.11 1.46 13.75.39 4.22.4 3.57.13 1.19.53 6.35.27 2.51.13 1.58.26 3.17 1.06 10.58.53 5.42.92 7.13.8 5.55.39 3.83.27 3.18 5.42-.4 2.77-.26 5.82-.66 6.6-.8 44.15-5.02 12.29-1.45 21.81-2.65 1.32-.39.66-.27 1.32-1.05.66-.93.79-1.19.8-1.72.26-.53.4-.79 1.06-2.25 7 6.35 3.04 2.77 2.51 2.38 2.64 2.38 2.65 2.38 4.36 3.96 9.65 8.86 1.45 1.19 8.86 8.32 1.58 1.46 3.04 2.91 6.48 6.07.66.53 5.15 5.03 9.52 8.98 15.33 14.54 7.14 6.87 18.1 17.31 1.59 12.43 7.4 55.37 20.49-1.98 2.51-.53 3.17-1.06 3.57-1.72 15.86-10.3 15.33 14.8 7.66 8.45 7.67 8.2 5.68 6.21 9.12 10.04 7.54 8.2 2.64 2.9 7.4 8.2 22.07 24.05.4.4 32.64 36.08 3.04 3.3 17.18 18.77-.13.66.13 1.32 1.99 18.1v.53l8.72 82.47 1.98 20.22 4.1 42.68.13 2.38 1.19 2.25 1.19 11.76-1.06 6.08 2.65.93 1.32.13 1.72.13h2.11l13.35-1.32 11.76-1.19 34.76-3.17 49.17-3.97 24.84-2.38.8-.26.79-.26.66-.27 4.76 5.16 6.61 7.13 58.94 64.76 10.97 11.89 5.29 5.95 4.62 4.89 5.03 5.55 1.19 1.32 2.11 2.25 1.59 1.85 4.89 5.42 13.61 14.8 22.07 24.45 18.37 19.95 20.35 21.81 3.44 3.83 32.38 35.29.4.53.79.79 61.59 68.98 1.98 2.38 4.76 5.42 1.06 1.06-5.03 5.81-1.45 1.72-3.83 5.42-33.31 51.28-3.17 4.62-3.96 4.76-3.57 4.1-9.52 10.96-1.45 1.33-.93.39 2.91-.26 9.25-.93 16.92-1.71 3.3-.27 32.25-3.17 13.75-1.32 12.42-1.32 4.23-.4 11.37-1.06 14.53-1.19 15.2-1.32 57.63 63.83 6.21 7.01 39.65 43.87 3.7 4.5 5.02 6.34 20.62 26.56-7.27.8-69.65 6.6-5.55.53-30 2.91-17.05 1.72-12.03 1.32-43.48 4.49-3.84.53-4.09.93-1.72.53-1.98.79-2.38 1.32-7.54 4.63-2.77 1.58-1.85.79-5.68 2.25-6.08 2.12-4.5 1.45-1.98.53-2.78.39-3.56.4-9.26.93-7.53.79-6.74.66-9.52.92-4.36.4-4.36.4-1.85.26h-.92l-18.24 1.85-2.38.13-9.52.93.66 7.4.14 1.32 2.9 31.19 4.76 32.51h15.86l20.49.53 1.05 12.55.4 3.7 2.51 26.83 1.85 22.6.79 7.14.67 7.13 3.3 31.72 1.45 15.07.53 4.36 3.31 32.64 5.28 57.22 2.51 27.63.27 4.36 1.85 20.75.66 5.41 1.98 22.21 2.65 26.96 2.24 23.65.93 8.72 4.36 44.14 1.06 10.05.13 2.38-1.32.26-22.87 1.98-2.51.14-15.2 1.45-17.31 1.32-7.67.79-8.06.66-15.33 1.46-3.04.13-5.29.53-11.36 1.06-1.99.26-11.49.93-25.64 2.51.66 7.27 1.45 15.06 1.32 14.01.8 9.12 3.7 37.66 1.98 20.09 2.38 22.73.66 7.4 1.32 14.14 2.11 20.75-1.98.4-5.15.39-8.72.8-3.04.26-4.63.4-1.72.13-16.92 1.59-9.78.79-3.96.53h-1.98l-17.45 1.72-4.1.26-8.59.93-3.3.13-4.63.53-53.26 4.62-2.91.27 3.7 43.08 2.12 21.54.53 6.21 2.77 30.13 1.06 8.99 5.29 58.41-10.31.93-10.05 1.06-40.04 3.7-8.86.92-5.68.53-7.01.79-5.41.53-3.18.13-3.17-.79-3.3-.13-5.95 1.06-12.56 2.24z" stroke-linejoin="round"/></defs><use xlink:href="#b" fill="#9dc8ca" stroke="#6bb4d2" stroke-width="5.76"/><defs><path id="c" d="M2531.09 3429.32v3.7l-4.1.27-2.38.39-5.42.4-3.7.4-4.23.39-8.33.8-8.72.66-19.43 1.85-8.85.79-16.39 1.45-30 3.18-17.45-15.33-62.38-50.75-47.05-39.78-.79-.53-4.5.13-13.87 12.82.13 1.72.26 3.17.14 2.91-.14 1.72.14 1.71.13 1.06.39.93.53.53.66.52 1.19.66 1.06.53 1.85.66 2.25.66-19.56 12.56-20.49-.53h-15.86l-4.76-32.51-2.9-31.19-.14-1.32-.66-7.4 9.52-.93 2.38-.13 18.24-1.85h.92l1.85-.26 4.36-.4 4.36-.4 9.52-.92 6.74-.66 7.53-.79 9.26-.93 3.56-.4 2.78-.39 1.98-.53 4.5-1.45 6.08-2.12 5.68-2.25 1.85-.79 2.77-1.58 7.54-4.63 2.38-1.32 1.98-.79 1.72-.53 4.09-.93 3.84-.53 43.48-4.49 12.03-1.32 17.05-1.72 30-2.91 5.55-.53 69.65-6.6 7.27-.8-20.62-26.56-5.02-6.34-3.7-4.5-39.65-43.87-6.21-7.01-57.63-63.83-15.2 1.32-14.53 1.19-11.37 1.06-4.23.4-12.42 1.32-13.75 1.32-32.25 3.17-3.3.27-16.92 1.71-9.25.93-2.91.26.93-.39 1.45-1.33 9.52-10.96 3.57-4.1 3.96-4.76 3.17-4.62 33.31-51.28 3.83-5.42 1.45-1.72 5.03-5.81-1.06-1.06-4.76-5.42-1.98-2.38-61.59-68.98-.79-.79-.4-.53-32.38-35.29-3.44-3.83-20.35-21.81-18.37-19.95-22.07-24.45-13.61-14.8-4.89-5.42-1.59-1.85-2.11-2.25-1.19-1.32-5.03-5.55-4.62-4.89-5.29-5.95-10.97-11.89-58.94-64.76-6.61-7.13-4.76-5.16-.66.27-.79.26-.8.26-24.84 2.38-49.17 3.97-34.76 3.17-11.76 1.19-13.35 1.32h-2.11l-1.72-.13-1.32-.13-2.65-.93 1.06-6.08-1.19-11.76-1.19-2.25-.13-2.38-4.1-42.68-1.98-20.22-8.72-82.47v-.53l-1.99-18.1-.13-1.32.13-.66-17.18-18.77-3.04-3.3-32.64-36.08-.4-.4-22.07-24.05-7.4-8.2-2.64-2.9-7.54-8.2-9.12-10.04-5.68-6.21-7.67-8.2-7.66-8.45-15.33-14.8-15.86 10.3-3.57 1.72-3.17 1.06-2.51.53-20.49 1.98-7.4-55.37-1.59-12.43-18.1-17.31-7.14-6.87-15.33-14.54-9.52-8.98-5.15-5.03-.66-.53-6.48-6.07-3.04-2.91-1.58-1.46-8.86-8.32-1.45-1.19-9.65-8.86-4.36-3.96-2.65-2.38-2.64-2.38-2.51-2.38-3.04-2.77-7-6.35-1.06 2.25-.4.79-.26.53-.8 1.72-.79 1.19-.66.93-1.32 1.05-.66.27-1.32.39-21.81 2.65-12.29 1.45-44.15 5.02-6.6.8-5.82.66-2.77.26-5.42.4-.27-3.18-.39-3.83-.8-5.55-.92-7.13-.53-5.42-1.06-10.58-.26-3.17-.13-1.58-.27-2.51-.53-6.35-.13-1.19-.4-3.57-.39-4.22-1.46-13.75-2.24-25.11-1.06-10.17-.93-8.2-.52-5.68-3.97-33.57-.26-2.91-.14-.52-4.36.52-3.57.27-.52-.4-27.63 3.04-3.17.27-18.77 1.98-6.21.53-8.98.92h-.4l-8.59.93-21.28 2.38-1.72.26-1.32.13-5.02.53-7.14.79-10.44 1.06-17.71 1.98-2.51.27-19.03 2.24-14.67 1.46-9.52 1.06-10.31 1.18-7.8.8-3.17.39-10.04.93-6.48.79-4.1.53-10.44 1.06-5.15.66-1.45.13-3.57.4-7.27.79-3.97.4-1.05.13-.93.13-8.33.66-1.58-.13h-.93l-3.57-.66-3.83-.93-1.45-.52-3.84-.8-1.18-.13-2.12.26-1.32.4-.93.27h-.66l-2.64.52-1.06-.13-1.05-.26-1.06 1.32-3.83 2.91-.53.26-.93.4-2.25 1.32-4.62 2.51-1.72.92-9.25 5.03-8.33 4.49-2.24 1.59-2.25 1.85-1.19.79-1.98 1.98-1.59 1.72-16.65-17.97-12.69-12.56-7.14-9.38-2.77-4.63-2.91-5.94-3.3-9.52-1.46-8.46-.66-7 .4-7.8 1.58-8.46 1.19-4.23 1.19-3.17-2.77-1.98-.8-6.34-.26-1.46-1.85 1.85-2.64 2.51-.14.14-7.79 6.74-8.46 7.26-1.59 1.33-7.13 5.68-9.39-10.84-4.23-8.85-24.58 17.18-13.75 23.39-15.72 8.99-3.97 2.9-6.21 5.55-2.77 1.72-1.19.66-2.25 1.32-8.06 4.5.26-6.35 1.59-.79 8.06-4.76 1.19-.92 5.15-2.91-.53-12.42 2.38-3.31 3.18-3.43 3.56-1.45 7.67-3.57 4.36-2.78 2.25-2.11 1.58-2.12.53-1.58v-.8l-.26-.66.26-1.32.4-1.06 1.19-1.98 1.85-2.77 3.43-4.5 4.1-4.36 3.04-4.09 2.78-2.78 3.7-2.38 4.23-2.64 2.9-1.32 3.84-1.46 3.96-1.58 3.84-1.72 3.83-1.59 2.91-2.51 2.51-3.43 2.11-2.91 3.04-5.42 1.98-3.7 1.85-4.63 1.59-3.43 1.32-2.78 1.98-3.43 2.12-3.31 1.72-2.9 1.85-3.18 1.32-3.56 1.06-3.31 1.58-4.36 1.72-4.63 1.98-4.22 2.12-3.57 1.45-2.91 1.59-4.1 1.98-5.41 2.51-6.22 3.17-6.87 2.51-4.89 3.44-5.55.93-1.32 10.57-20.75 4.1-7.8.79-3.96.26-.79-.26-1.85v-.53l.39-2.25 1.19-5.02 6.35-19.69 5.42 1.85 6.74 3.04-1.85 6.87h.92l2.38 1.32 1.32.4 7.54 4.76 8.06 30.39 1.58-7-.52-13.88.79 4.23.4 3.17.52 6.34.4.27 9.12-.93.13.66.79 7.14.8 8.33.39 4.49 2.52-.26 6.21-.53h.92l1.06 10.04.79 7.53.66 6.74.8 7.93 9.38-1.05 14.41-1.59 12.55-1.32 7.8-.93 6.87-.66-1.58-12.42-1.99-17.18-.53-4.23-.26-2.38-.4-2.91-4.89-40.3-.66-5.82 2.91-.39 4.36-.27 3.44-.53 4.23-.53 8.46-1.05 1.58-.27h.4l.53-.13 4.49-.53 6.87-.66 1.59-.13 4.63-.66 8.32-.4 11.24-1.19 2.37 2.91 3.84 4.23 3.3 2.91 1.06 1.05 2.91 3.18 2.38 2.64.79.79 4.1 4.49 6.74 7.27.79.8 1.85 2.11 1.32 1.45 4.23 4.5.93 1.05 3.96 4.37 2.25 2.37.26.4.79.66 1.33 1.59 4.36 4.76 2.51 2.64 3.96 4.36 2.12 2.25 1.45 1.58 2.12 2.38 4.49 4.76 3.3 3.7 1.72 1.98 1.19 1.32 6.48 6.88 1.98 1.71 16.92 15.33 4.36 3.84 7 6.07 9.12 7.93 5.16 4.5 9.51 8.19 1.32 1.32 1.06 1.06 2.38 2.11 2.12 1.85 9.12-9.11 7.66-18.64 2.91-19.82-2.38-22.34 8.99-.92 5.42-.53-.4-2.64-1.45-11.9-1.06-8.59-.66-7-1.06-7.93-.4-3.97-1.58-13.87-.4-3.83-1.06-9.52-1.45-12.29 1.32-3.3-.13-1.33-1.59-13.21-1.32-11.5v-.13l-.26-1.19-1.06-9.91-.26-2.91-1.19-10.04-.53-4.76-1.85-16.92-1.59-13.74-1.45-14.41-.27-2.77-1.32-13.08-.92-8.6-1.33-15.59-2.77-29.6-.66-7.14-2.65-29.21-1.85-.66-.13-1.19-.13-1.32-.4-3.04-.66-3.3-.66-2.78-.79-2.77-.93-2.78-1.45-3.7-1.85-3.57-.53-1.18-2.51-4.23-2.51-3.57-2.38-3.31-2.38-2.37-.13-.14-2.51-2.38-5.42-4.36-2.91-1.98-1.98-1.32-3.83-2.38-2.25-1.59-9.78-6.21-8.99-5.68-.79-.53.53-.79.66-.66.53-.53 1.19-.93-.66-.39-4.23-2.38-5.55-3.04-3.04-1.72-13.62-7.53-5.68-2.91-2.11-1.06-3.31-1.98-1.19-.79-7.27-4.49-1.32-.8-1.98-1.32-.79-.66-4.23-3.17-1.85-1.72-1.19-1.19-2.38-2.51-2.51-2.78-10.05-11.49-3.04-2.65-.92-.92-4.23-3.17-.13-.13-1.86-1.33-3.17-1.98-1.19-.66-1.05-.66-3.18-1.59-6.87-3.17-.92-.39-6.08-2.78-7.27-3.3-2.51-1.19.26-.93.27-4.36.79-10.31.53-5.94 1.45-18.9.79-11.76.14-2.78.39-7 .8-10.05.79-8.72 1.72-13.22 1.05-8.72 1.46-9.91.92-5.95 1.06-6.34.79-6.21.53-3.83 2.51-37.54.8-11.36.79-12.29 1.72-25.64.53-5.68.66-6.08 1.19-7.27 2.77-16.39 9.65-54.32 1.85-9.91 4.1-.39 4.62 1.19 1.99.52 4.62 2.25.79.4 3.18 1.05 7.13 2.78 8.59 2.91 11.5 2.77 3.57.53 9.38 2.64 10.05 4.63 7.4 4.49 3.57 2.65 6.21 4.09 8.33 6.35 7.53 4.89 7 3.7 8.07 2.77h1.98l2.51-.13 6.21-1.06 6.35-1.72 1.98-1.05.92-.53 1.99 1.72 2.9-3.04 2.91-1.06 8.06-3.44 6.35-3.7 4.89-3.17 5.94-4.62 3.97-3.97 8.33-5.42 11.76-9.12 11.63-10.04 2.91-2.11 8.46-1.19.13-.14.53-.52-.66-4.89 5.28-5.03 3.83-3.43 3.18-2.25 4.89-5.15 5.42-8.46 1.32-3.04 1.05-4.63.93-6.34.53-3.83.26-2.25 1.59-8.46 1.72-12.95 1.19-11.23 1.19-6.74 1.98-10.18 2.77-9.91 5.42-17.31 1.85-5.02.8-1.46 2.11-4.75 1.85-5.55 2.91-8.86 2.51-6.87 16.78-29.6 22.6-33.57 27.1-34.89 46.12-55.11.93-1.06 6.21-6.74 29.47-32.11 47.05-42.95 24.85-25.51 27.36-30 15.2-12.95 18.63-13.48 14.54-10.84 11.23-6.74 3.97-1.19h9.52l1.85 7.41.26-.14 8.46-3.83 5.15-2.91 15.6-19.29 36.21-35.55 1.72-2.25 9.12-10.84 5.55-6.21 11.9-14.93 8.45-15.46 6.22-9.12 7.26-9.38 8.99-9.39 23.53-17.84 3.96-2.64 24.19-16.65 26.17-16.65 4.49-2.25 1.85 3.3 1.19 2.12 2.11 3.56.93 1.59.4.66 3.43-2.51 6.48-4.76 1.19-.92 3.7-2.78 2.38-1.85 9.91-7.27 2.38-4.36-4.1-9.25-2.38-5.68 1.85-.93 4.63-3.83 2.38-.4.26-2.51 3.44-5.94 1.19-3.97.79-7.66-1.72-24.32-2.11-15.73.79-4.89 3.31-11.89 1.98-5.95 6.21-10.17 9.78-16.26 2.38-3.17 5.95-16.65 11.49-16.79 3.57-5.94 8.2-17.71 6.61-17.58 3.04-9.38 4.89-13.88 4.09-8.46 3.7-6.74 5.69-7.4 9.78-8.19 6.6-3.83 13.35-3.44 39.92-3.17 5.94 1.06 16.66 4.75 23.26 8.73 7 1.19 6.88-.14 11.76 1.72.53-1.58 27.22-9.12 2.51-.53.4 1.06 3.57-2.52 5.55-6.21 10.31-7.93 20.75-21.01 8.19-9.25 7.93-5.42 10.84-3.96 5.42-4.23 16.78-13.88 7.54-4.76 10.83-4.22 10.05-5.82 10.84-10.57 10.97-12.29 3.56-5.42 4.1-11.1.93-3.44 2.51-7 1.45-6.35 7.53-18.1 11.64-1.06.39 4.63 3.44 41.63.53 15.72 4.62 24.72 1.32 14.53 1.06 8.99 2.38 23.26.13 1.72.13 1.45 2.38 23.52.53 4.5.27 3.7.92 7.53.4 3.7.13 2.38 2.51 23.26 2.12 21.81 2.77 24.18.66 7.4 1.19 11.1v.53l.53 5.02.93 9.91 1.19 9.52 3.96 39.38.53 6.35 4.1 38.72 1.32 14.4 1.32 11.1.53 6.88 2.51 23.39.53 6.74.92 8.32 1.72 16.13 1.32 13.61 1.19 11.89.53 6.74.4 4.23.66 4.23.39 4.76.8 7.8 5.15 49.82 1.85 20.09 2.51 22.86.8 8.85 2.11 19.83 1.72 16.78 1.32 13.48.27 2.64 1.98 19.43 3.43 32.91.4 3.04 1.19 13.21.93 7.8.52 5.15.4 3.97.79 8.72 2.78 25.9 3.7 34.63 1.19 11.1.26 2.91.27 2.51 6.08 60.92.26 3.17.53 5.03.66 5.68.66 7.27 3.04 27.88 2.12 21.41 2.11 21.28 1.19 10.57 2.78 26.56 4.62 44.28.93 9.64.13 1.19v.8l.79 7.53 5.82 57.09.66 6.21 1.06 10.71 3.17 31.58 1.72 16.79 1.45 13.87 1.32 15.07.79 6.08 1.06 10.44 1.19 12.82.13 1.72.4 2.64 1.98 19.95 1.59 17.18 1.72 16.92.26 2.25v.26l.13 2.25 1.06 9.12 5.15 51.54 2.25 23.13 1.06 9.64 3.3 33.17 3.84 37.54v.66l2.64 24.97 1.32 13.22 1.06 9.91.39 5.55.66 4.5.8 10.04.53 3.44 1.85 19.55 1.32 11.9 1.06 11.5 2.51 24.05 1.58 16.65 1.19 10.97v1.85l.27 1.85 1.05 10.84.93 8.59 2.11 22.33.53 5.42.66 8.06v1.19l.53 4.1 1.32 14.53 9.12 91.99.27 1.18.53 7.41 1.45 15.33 1.19 10.57.66 8.06.92 8.06.4 4.76.4 3.83.39 4.23.67 5.15.66 5.69 1.45 14.53.79 8.46.66 6.48.4 4.89 1.45 14.67 1.59 19.42 1.32 12.43.79 9.25.4 3.7 1.06 11.1 13.74 147.09 8.86 95.68-17.58 2.25-6.21.92-4.49.53-33.97 4.49-7.4 1.06-5.16.53 1.19 13.22.8 7.66.92 9.91.93 8.86.39 4.36 1.72 18.37.79 8.85.27 1.19.26 3.44.53 5.15 1.98 21.68v1.98l17.71 6.87 2.38.79 19.56 7.54 9.25 3.56 18.64 7.14 10.97 4.23 2.51 33.83 8.19 76.78 12.43 143.92 7.93 49.16 3.3 59.87.13.53.8 11.23.53 5.02.52 5.82 2.25 23.66.4 4.62 1.19 10.71 1.98 21.41v.66l3.17 31.85.53 5.15 1.32 12.69 1.72 19.16 1.19 12.16 1.19 12.02.66 7.4 1.59 15.07.39 5.15.93 8.73.53 5.15 2.77 27.62.66 7.14.13 2.11.27 1.19 2.38 26.7.66 5.94.53 6.48.66 6.34.53 5.82.92 8.99 1.59 16.65 1.32 13.87.4 5.69 1.85 17.71 1.32 12.55 1.32 14.4 1.72 16.52.53 6.08h-.27l-25.24 1.85-8.33.27h-.39l-16.39 1.06-4.36.39-1.72.27h-2.65l-7.13.79h-2.38l-26.17 2.11-5.29.4-45.33 2.91-4.49.53-4.63.39-23.13 2.65-13.08 1.32-9.12 1.05-6.48.67-19.29 1.85-34.23 3.3-2.65.13-13.74 1.19-19.96 1.59-5.42.26-.66 1.85-.66 1.98-1.32 3.31-.4.66-.26.53-.4.39-.66.66-4.49 3.31-2.12 1.72 2.65 3.96 7.79 12.56 4.23 6.87 3.44 5.81 3.83 5.95-1.58 1.06-1.33 1.05-.92.8-.53.66-.4.79-.39.79-.27 1.33-.92 5.15-.4 2.77-.26 1.19-.4.93-.79 1.32-.93.79-.92.66-.93.27-.79.13h-.93l-.92-.13-13.75-3.57-3.56-.66-1.46-.4h-.66l-.4-.13-.66.13-.79.14-2.25.66-1.32.26-37.8-5.42 1.85 1.19.93 5.55.92 4.63v3.43l1.59 7.54 5.95 9.38 4.89 5.42 9.51 14.14 3.84 6.34 1.19 2.78.26 5.68 5.29 10.57 7 14.28 3.04 8.06 1.19 4.49-.92 5.02z" stroke-linejoin="round"/></defs><use xlink:href="#c" fill="#6bacaf" stroke="#097d9b" stroke-width="5.76"/><defs><path id="d" d="M2180.98 2319.47l1.06-.13 7.66-.66 17.71-1.45 21.28-2.78-2.38-23.79 19.7-2.51-.93-.66-10.44-8.32-2.25-1.99-.79-.79-.79-1.06-1.99.66-1.05.14-.66-1.59-.53-.26v.26l-6.08.66-.27-2.77-.79-7.01-.13-1.45v-.53l.13-1.59-.13-1.32-.79-7.13-.27-.53-.39-.4-.53-.26h-.27l-9.25-.8-.13.4-.27.13-.39.27-7.54.92h-.66l-1.32-12.29v-1.85l-.13-1.45-1.06-10.18-.53-5.81 3.84-.27.53 5.68 12.81-1.05 2.91-.27-3.7-34.49-3.04.26-21.28 2.91-3.17.8-1.45.39-.93.4-39.51 7.27-5.82-14.14-.4-1.06-68.19 26.17-4.76-1.46-14.01-3.96 1.85 19.29 1.85 16.79 1.06 6.34 1.45 12.82 12.29-1.85 1.46.92 84.05-.52 1.32 4.62v1.45l-.13 1.06 1.19 12.42 8.99-.66.79-.13 6.61-.53.26 3.17.4 3.7.66 2.25.53 1.46.66 1.71.66 2.51 1.98 8.46 1.59 7.4 1.85 8.06z" stroke-linejoin="round"/></defs><use xlink:href="#d" fill="#6bacaf" stroke="#097d9b" stroke-width="5.76"/><defs><path id="e" d="M1165.56 1957.37l-9.38 1.05-.8-7.93-.66-6.74-.79-7.53-1.06-10.04h-.92l-6.21.53-2.52.26-.39-4.49-.8-8.33-.79-7.14-.13-.66-9.12.93-.4-.27-.52-6.34-.4-3.17-.79-4.23.52 13.88-1.58 7-8.06-30.39-7.54-4.76-1.32-.4-2.38-1.32h-.92l1.85-6.87-6.74-3.04-.14-2.12-.39-3.04 4.23-10.04.26-.66.53-1.59 6.74-17.31-.13-8.85-3.57-35.95v-.53l-.53-4.62 5.16-.4 1.71-.13.53.13 3.31-.13h2.38l1.58-.14 6.48-.66h1.85l1.45.14h.8l1.45.26.66.13.53.13 1.06.27.66.13 7.79 2.25 1.85.39 2.78.14 2.78-.14 1.32.27.53-.13 4.75-.4 4.76-.53 4.76-.39 4.23-.53 5.29-.53 6.21-.53.66 6.08v.39l.79 6.22 1.06 10.04.53 4.76.66 5.94.53 5.29.53 5.02.66 5.42.52 5.02 4.76-.39 2.65-.27 7.26-.66 5.69-.66 3.04-.26 2.91-.27 12.68-1.45h.4l3.96 1.06 5.16 1.58 1.72.4 8.98 2.64 2.91.79 8.99 2.65 3.57 1.05h1.98l.79 7.41 1.06 10.17-3.7.4-1.72.26h-6.47l-11.24 1.19-8.32.4-4.63.66-1.59.13-6.87.66-4.49.53-.53.13h-.4l-1.58.27-8.46 1.05-4.23.53-3.44.53-4.36.27-2.91.39.66 5.82 4.89 40.3.4 2.91.26 2.38.53 4.23 1.99 17.18 1.58 12.42-6.87.66-7.8.93-12.55 1.32-14.41 1.59z" stroke-linejoin="round"/></defs><use xlink:href="#e" fill="#09757a" stroke="#00465f" stroke-width="5.76"/></svg>