<svg width="4.64in" height="384" viewBox="0 0 3339 2880" xmlns="http://www.w3.org/2000/svg" xmlns:xlink="http://www.w3.org/1999/xlink"><path fill="#fff" d="M0 0h3339v2880H0z"/><defs><path id="a" d="M777.15 1958.02l-1.56.2-5.74-3.96-.31-.21-8.04-17.22-13.88-21.07-8.14 4.38-11.26 6.05-9.4 7.62-9.28 7.41-12 11.79-5.32 3.65-2.61 1.46-.52-3.96-.53-3.14-.2-1.14-.94-6.89-.53-3.65-.1-.63-.42-3.34-.52-4.27-.73-5.12-.21-1.15v-.41l.21-.63-.83-5.42-.53-2.72-2.5-15.86-1.56-9.7-1.78-10.85-3.13.62-7.41 1.25-8.34 1.78-2.2.31-7.72-48.52-6.78-41.94-.83-5.43-10.13 1.56-8.45 1.36-1.46.31-10.02 1.57-10.12 1.67-4.07.73-1.14.21-1.46.31-1.36.31-1.78.42-2.19.52-2.92.94-5.01 1.46-6.15 1.88-25.57 8.24-1.14-1.35-1.26-1.05-.83-.73-.73-1.14-.73-1.99-1.05-1.56-.83-1.15-2.3-2.82-1.67-1.67-.2-.1-.21-.11-.21-.31-.52-.62-.21-.53v-.2l.1-.42.42-.42.42-.42 2.4-.73 2.08-.62 1.99-1.57 1.56-1.35.84-.94 1.35-2.51 1.05-2.4 2.4-5.84 1.98-4.7 1.35-3.96 1.36-3.65 1.15-4.6 1.98-6.99.21-2.19v-1.77l-.31-2.19-1.05-2.82-2.92-3.96-2.71-2.93-.63-.83-1.56-1.98-.52-.84-.11-.31.11-.94 1.14-2.3.32-.41.21-.94-.11-.94-.31-1.36-.42-.73-.42-1.25-2.5-3.97-.94-1.14-2.71-6.89-.11-.73-.21-.52-.31-.52-2.4-2.72-1.88-2.71-.52-.94-.42-.73-1.87-4.59-.32-2.61-1.35-2.09-1.67-2.08-2.09-1.78-1.98-1.04-1.57-.42-1.35-.21-1.46.21-1.57.11-.83.21-1.05 1.14-.52 1.46-.63 2.72.63 3.34.94 3.44.42 3.13-.21 1.67-1.98 2.61-.84.21-1.04.21-2.61-1.05-1.15-.94-1.98-1.25-1.78-1.56-2.5-1.67-1.36-1.57-.1-1.04.21-1.15.62-1.15 3.55-4.9.11-.21.1-.21.1-.42v-.52l-.1-.42-.52-.83-1.04-1.67-1.36-1.57-1.04-1.04-1.26-.83-2.81-2.2-12.53-7.61-3.75-3.13-6.16-3.45-2.92-1.67-2.82-1.25-3.23-.83-5.74-1.46-2.09-.94-1.35-.94-.73-.84-.84-1.04-.94-1.67-.62-.83-.73-1.67-10.54-15.34-.63-1.46-.21-.63-.1-.83-.11-.94-.52-1.67-.42-1.15-.1-.52-.52-.84-.31-.52-.53-.73-1.14-.21-1.99-.83-1.98-1.25-1.56-.94-.94-.42-2.93-2.3 1.67-.94 1.88-.73 1.98-.62 2.09-.42 1.98-.21 2.09-.1 1.98.1 2.61.21 3.86.63 2.3.21h2.09l1.98-.11h.62l1.46-.21 1.26-.1-4.91-30.26-2.71-17.95-2.19-13.25-1.57-3.76 1.57-.52 1.36-.31 2.5-.63 2.19-.62 1.57-.32 1.46-.73 2.81-.73 1.78-.41 2.4-1.15 3.02.41 3.66 2.2 3.54 3.65 2.82 4.28 1.57 2.08 1.87 1.99 1.67.83 1.05.42 1.35.1 1.15-.31.94-.73.63-.63.62-1.88.32-1.77-.11-1.15-.94-1.67-1.67-1.98-1.15-1.15-.2-.41-.84-1.26-.21-1.04-.21-1.15.11-2.08.31-1.88.21-1.26.21-.62.21-.52.73-.73.52-.32h.31l.32.32 1.67 1.46 1.04 1.35 1.77 2.3.63 1.25.94 1.05.62.52.94.62 2.09.21.31-.1 2.09-.42.63-.52.52-.42.41-.31.21-.42.32-.52.62-1.04v-2.51l-.83-3.23-1.05-1.99-1.14-3.02-1.26-2.19-1.25-.84-1.46-.94-2.92-1.15-2.19-.83-1.36-.21-2.08-.1-2.3-.42-3.44-.1-3.24-.32-3.65-.1-2.71-.94-2.72.21h-2.4l-3.54-.21-1.26-.42-1.46-.62h-.73l-1.15.1h-1.35l-3.34-.83-.73-.53-1.04-1.04-.53-.73-1.04-1.67-.42-.73-.21-.84.21-1.04.94-1.88 1.67-2.29 1.25-1.57 1.36-1.56 1.67-1.78 2.5-3.23 2.2-2.71 2.92-2.51 1.46-1.46 1.15-1.77 1.35-2.82.73-2.09.32-.73.62-1.46.31-.73 1.05-2.92.21-1.67-.21-.94-.63-.63-.42-.41-.93-.63-.53-.31-.83-.63-1.88-1.15-1.25-.1-.73-.31-1.05-.42-1.04-.63-2.09-1.25-1.56-1.35-1.15-1.47-1.88-2.29-1.35-1.98-1.05-1.46-.83-1.26-.63-2.81-1.04-1.67-.42-.94-.52-1.78-.83-1.77-.74-1.98-1.14-1.88-1.15-1.36-2.19-1.67-1.46-1.04-1.15-.73-1.15-1.25-.52-1.26-.52-2.19-.73-4.07-.63-3.75-.73-1.88-.94-2.5-.52-1.88-.31-1.57 15.44-2.4 1.77-2.5 7.52-1.25 16.07-2.4 21.07-3.34 9.81-1.57 1.78-.21 4.9-.83-.1-.42-.94-5.74-.21-1.25-2.82-18.68-2.3-14.61-1.46-9.91-1.25-8.35-1.67-11.16-1.04-6.47-.63-4.7-2.08-13.87 9.8-1.36.42-.1 19.41-2.72 7.83-1.15 11.99-1.77 11.48-1.77 4.8-.73 1.67-.21 1.25-.11 3.24-.41 12.31-1.36-.1-1.04-.21-1.26-.84-4.8-.41-2.5-.32-2.19-.52-2.92-.21-1.67-.21-1.15 1.88 1.46.63.42 1.15 1.04 2.4 1.78.52.41 4.07 2.92 4.07 2.82.62.52 1.05.63 2.92 1.98 1.04.52 1.88 1.26 3.34-.63 2.92-.52 2.19-.84 6.47-2.61 4.38-1.77.11-.1.1-.11 4.49-2.29 35.37-3.55 4.38-.73 10.23-1.67 10.54-1.98 29.94-5.12 11.9-1.98 5.43-.83.62-.11h7.62l1.15-.1.41-.42.94.21 1.05-.21 1.04-.1.83-.11 1.47-.21.41 2.19.73 3.34.21 1.46.11.53.1.52.1.62.11.42.21.63.1 1.04.42 1.46.31 1.57.52 2.5 1.47 6.47.41 1.88.32 1.98.73 4.07.2 1.36 1.36 8.14 2.3 13.87 1.46 8.98.31 2.08 1.46 9.19.11.2.31 2.2.42 2.6 2.08 13.05.11.62.1.73.11.73.2.94.11 1.05 1.56 9.49.53 2.82.83 5.32.73 4.7 1.98 12.31.84 5.53.21 1.04.1.73.52 3.03 1.26 8.35.31 1.98 2.61 17.95 1.14 8.24.94 6.99.21 1.25 1.67-.31h1.36l.73-.1h.73l.83.1h1.05l3.34.31 1.87.21h.94l.84.11h1.46l.52-.11.63-.1.73-.11 3.55-.52 10.43-1.67 10.54-1.67-.84-5.63 10.54-1.67.84 5.42 10.33-1.67 10.22-1.67 10.54-1.56 3.86-.73 6.89-1.04 10.54-1.67 6.05-1.05 3.96-.62 5.43-.94 5.32-.84 9.91-1.56 3.45-.52 6.68-1.05 2.6-.41 7.83-1.15 1.36-.21 4.69-.94 4.18-.73 3.75-.52 1.15-.11 4.59-1.25 1.25-.31 5.22-.84 2.61-.52-.11-1.25-.73-4.07 4.91-.73.42-.21 4.27 4.91.84-.11 1.88-.42 6.36-1.14.94-.11-.83-5.22 3.44-.41 5.74-1.15.94 5.22 2.71-.53 6.47-1.04 9.5-1.67 6.26-1.15 2.71-.41-.73-5.12 4.59-.83 4.8-.84.31 2.4.52 2.93 3.34-.63.63-.1 6.47-1.15 2.29-.42 2.72-.42 1.46-.31 3.86-.63 10.43-1.67 1.25-.31 1.67-.31 3.45-.63 2.71-.42 2.71-.41 2.3-.42 3.03-.52 2.6-.42 2.82-.52 3.13-.63 2.3-.41 3.96-.53-.83-5.11 3.34-.31h1.77l1.67-.32 1.04-.52 2.61-.62 4.91-.84 5.32-.42.21 1.36.52 3.55 3.34-.52 7.2-1.05 10.33-2.19-.84-5.11 5.11-.83 5.33-.63.41 2.71.21.94.32 1.15 5.21-.94 3.45-.52 1.98-.32 3.02-.62 2.09-.31 5.22-.84 1.98-.42h.31l2.51-.41.73-.11 1.35-.31 3.55-.52 3.13-.52 2.09-.32 1.56-.41 1.47-.21.52-.11 1.77-.31-.73-5.01 5.01-.94 5.43-.94.83 5.12.73 5.21 1.04 5.95.63 4.49.73 4.69.31 2.4.53 3.13.41 2.92.84 4.7 1.04 7.2.52 3.34 1.98 13.25.84 5.22.42 2.92 3.96 24.52.73 4.7.11.93.83 5.43 3.55 21.5.21 1.04.42 2.92.41 2.4 5.01 29.53 3.24 19.93 1.98 11.37-5.53.84-3.97.83-10.22 1.78-2.61.41-11.9 2.09-10.43 1.67-9.91 1.77-9.92 1.67-9.39 1.57-5.11 1.04-4.9.63-5.12.94-3.96.62-1.15.21-5.22.84-5.11.94-9.49 1.56-10.54 1.77-1.26.11-6.99 1.25-13.56 2.4-10.33 1.57-6.16 1.04-4.38.83-3.03.53-1.35.31-.63.1-4.38.63-.84.1-9.91 1.67-8.76 1.57-8.66 1.46-8.87 1.46-9.08 1.46-9.08 1.57-9.08 1.46-4.38.73-5.01.94.94 5.32.73 4.38 1.04 6.89 1.99 11.06.73 4.48.73 4.28 1.77 10.75 2.72 16.17.93 5.43.42 2.09 1.25 8.55 1.05 6.47.41 2.82.94 5.74.21 1.25.73 4.59.63 4.28 2.09 12.31 3.33 20.45.63 4.28.31 4.7.21 3.54.42 3.34 1.88 12.84 1.46 9.28 1.36 7.73.93 6.05-3.44.62-3.23.21-2.3.32-5.22.93-5.21.94-5.22.84-5.32.83-10.65 1.67-10.74 1.46-5.32.94-5.33.84-5.21.83-5.32.63-11.17 1.88-10.22 1.14-5.22.94-5.12.84-10.53 1.88-5.22.94-5.32.73-10.75 1.77-5.63 1.15-4.91.52-8.55 2.29-1.67 1.05-1.57-.11h-2.4l-1.98.11-2.61.31 3.96 28.9.53 2.82.62 2.92 2.19 11.38.11.52.1.83 1.46 11.06 1.57 17.85.31 2.61.11 1.66.73 4.7 1.14 7.3-.73.11-1.04.21-1.46.21-.84.1-1.14.21-4.07.73-17.12 2.61-6.26 1.04-3.33.52-5.95 1.05-6.47 1.04-1.78.31-2.29.32-6.37 1.04-3.54.52-3.86.52-.73.11-2.4.41-3.66.53-1.98.41-1.46.21-2.5.42-3.45.63z" stroke-linejoin="round"/></defs><use xlink:href="#a" fill="#cee3e4" stroke="#cef5f5" stroke-width="5.76"/><defs><path id="b" d="M1863.58 2518.34l-1.04.53-1.05.2-1.04-.2-1.25-.84-2.3-.73-33.6-17.74-1.46-.94-1.77-1.67-2.09-1.98-.94-.31-1.04-.63-.42.21h-.52l-.73-.52h-1.36l-1.25.1-1.36.11-1.04-.63-1.98 5.01-1.36 3.55-2.71-1.25-1.46-.63-1.05-.31h-2.29l-1.04-1.05-12-6.68-3.34.21-.63.21-.42.94-.21.52-.52-.1-1.14-.31-.84-1.26-2.92-.21-2.92.42-5.43-.42-5.32.11-2.19.1-3.13-.73-4.49-.83-17.74-2.61-.41.52-.53-.31-.94-.21-2.19.31-9.49-.73-2.51-.31h-1.56l-1.04-.11-.84-.41-.83-.21-2.51-.21-2.61-.21-2.81-.21-1.05-.1-.62-.11-.73-.2-.32-.53-.52-.31h-.62l-.94.1-.63-.31-.31-.52-.32-.31-.52-.11h-.62l-1.88-.1-2.82-.31-1.46-.32-1.67-.42-1.46-.31-1.57-.31-6.26-.42-4.48-.62-6.47-1.78-3.86-1.15-8.35-3.34-.42.53-1.04-.11-1.78-.21-1.56-.52-1.88-.42-1.35-.2-1.15.2-2.4-1.46-1.05-1.04-2.29-.83-.84-.21-1.46-.32-1.14-.41-.94-.32-2.82-1.14-1.57-.94-1.56-.84-.63-.42-.52-.2-.94.1-.52-.21-.63-.31-.41-.31-.32-.53v-.94l-.73-.2-.83-.42-.84.31-.31.31-.52.42-.31.42-.42.63-.63.1-.42.21-.62.1-.63-.41-.41-.11-.63-.1h-.73l-1.46-.11-.73-.31-1.25-.84-1.36-.62-1.36-.21-1.15-.31-.93-.42-.94-.21-.21-.21 3.13-6.78-8.35-8.35-17.95-36.1-.41-.52-.63-.94-3.23-5.74-30.89-46.54 2.82-1.98 1.25-.94 2.4-1.77 1.15-.94.62-.52 3.13-2.51-.73-1.04-.41-.73-.53-.73-2.92-3.34-6.47-7.31-1.98-2.19-.83-.94-.94-1.04-1.15-1.36-2.19-2.5-5.53-6.26.41-.21 3.97-1.46.52-.63 1.25-3.23-.94-.84-1.77-1.87 5.11-10.65 2.19-5.32 1.47-4.07.62-2.71.73-3.34.21-.84.31-1.98.21-2.29.11-.84v-6.15l.31-16.6v-4.59l-.21-1.56-.42-2.4-.21-1.46-.31-1.78-.42-1.77-.31-1.46-.42-1.46-.31-1.05-1.67-4.06 1.78-3.34-6.37-13.05-15.23-48.83 1.98-16.17 7.2-5.01-.63-5.11-1.35-9.29 4.69-5.84 1.36-1.67-8.77-27.86-.94-2.72-1.56-.21-10.44-19.09-12.73-18.16-6.99-10.53-5.21-8.25-22.96-35.89-1.67-2.3-4.38-6.05-3.55-5.74 70.33-26.19 8.24-3.02 9.29-3.45.83-.31 2.09-.73 42.47-15.55 14.08-4.9 9.81-3.13 49.88-18.79.52-.1 1.57-.63 4.9-1.77 9.81-3.34 6.89-2.61 4.17-1.67 21.91-8.45 1.98-.62 4.07-1.15 1.67-.84-.52-.73-.42-.62-.94-1.46 1.88-.53 9.71-3.96 1.04 1.67.94 1.35 12.42-4.48 18.26-6.89 1.77-.62 22.54-8.46.62-.1 1.05 1.25.83 1.15.94-3.55.63-2.5.73-2.92 1.15-5.64 3.23-13.04 7.3-23.17 4.7-15.44 3.03-10.02 1.14-3.75 1.57-5.32.73-2.2 3.65-.52-.21 2.19-.52 3.03-2.09 7.83-.1.73-.1.62v.63l.1.42.21.52.21.41 29.84 46.12.52.84 8.24 12.73 3.34 5.32 3.45 5.22 14.6-11.79-4.27-6.68-7.41-11.48 20.14-7.09.94 2.29 1.98 3.03 6.26 9.28.83 1.05.53.41 5.84 9.08 11.68 18.05.63 1.15 8.24 12.73.32.52 3.44 5.22 2.92 4.49.32.52 2.4 3.76 1.56 2.29 21.39 33.08 5.22-4.18 5.63-4.48.32.62 2.92 4.39 11.89 18.36.52.52 1.99 3.45 1.25 1.98-1.78 1.67-1.56 1.35-.21.21-2.71 2.09-.94.94-1.25 1.46-.63.73-.94 1.46 2.09.11 1.88 3.23.41.63 1.26 2.19.52.83-.94.63-1.98 3.55 2.4-1.88 3.65-1.57 3.13-1.25 6.47-2.82 5.95 8.98-5.12 4.59.94 1.46 6.05 9.08 14.51 22.74 7.61 11.69-7.61 6.78-4.07 3.97-1.78 1.77-1.25 1.36-.83 1.04-.73 2.92-1.99 5.85-6.46 14.29-1.57 2.4-2.09 2.09-.1.52-.11.52-.31.52-1.25 2.09-1.36 2.09 3.34 1.35.73.42.94.63.63.62 4.8 5.53 2.5 2.82 2.09 2.71 8.35-19.51 5.11-11.27.31-.52 2.71-5.11 5.64-9.29 4.28-7.2-.11-.83.21-.73.42-.63 1.67-3.44 2.5-4.07.94-1.36.42-.31h.52l2.3-4.18 9.18 8.46 11.06 10.22-7.51 9.08-17.95 51.55-15.65 42.88-31.31 58.64-46.43 109.46-1.56 6.68-8.35 36.1-43.1-5.74-.62 4.91-1.77 9.18-8.77 46.33-1.46 8.14-10.64 58.22-.73 1.98-1.36.52-1.04.94-2.93 11.79-.41 2.3-.73 3.44-.53 1.25-1.04 1.67-.31 1.78.62 2.29-.1 2.19-.21 2.4-.52 1.78-1.04 1.67-.94 1.15-1.15 1.14z" stroke-linejoin="round"/></defs><use xlink:href="#b" fill="#cee3e4" stroke="#cef5f5" stroke-width="5.76"/><defs><path id="c" d="M1465.82 1990.57l-.63-1.04-1.35-2.4-26.5-38.09-43.72-63.23-11.59 7.2-.1.1-12.52 8.14-.32-1.98-.52-3.65-.1-.42-.21-.94-.21-.73-.31-.62-.21-.84-.42-1.46-.31-1.46-.11-.94-.2-1.04-.32-2.3-.73-4.8-.31-1.56-.21-1.46-1.15-6.68-.83-4.39-.21-.83-.1-.52-.11-.73-.73-4.91-.52-3.13-.31-2.08-3.34-21.81-2.4-14.4-1.15-7.1-3.34-20.55-.63-4.07-1.67-10.23-.41-2.92.41-.1 6.79-1.15 2.19-.52 1.56-.32 1.05-.31 1.14-.21.94-.31 1.57-.73 2.5-.84 1.78-.73 1.87-.83 1.88-.94 1.46-.94 2.4-1.46 1.99-1.36 1.56-1.14 1.36-1.15 3.34-2.92 1.67-1.57 1.77-1.88 1.36-1.56 1.25-1.67 1.67-1.98.73-1.15 1.04-1.25.84-1.36.94-1.36 1.46-2.61 1.14-2.19.84-1.46.63-1.56.52-1.25.73-1.88.94-2.92.83-3.03.84-2.82.52-2.4.42-1.98.31-2.3.42-2.4.2-2.19.11-2.4.21-4.07v-11.89l-.42-10.23-.1-10.33v-5.32l-.11-5.53v-.83l-.1-1.57-.42-4.9-.31-3.34-.32-2.4-.31-4.28-.21-4.17-.21-9.08-.31-13.36-.21-8.24-.42-17.84-.62-15.45.1-1.67-1.67-8.97 4.8-.83 2.09-.42 3.55-.52 3.54-.63 1.99-.31 3.13-.52 3.55-.63 2.29-.42 2.19-.31 3.97-.63 1.77-.31 1.15-.21 1.04-.21 3.03-.52 2.09-.31 1.87-.32 1.46-.2 5.74-1.05 3.34-.52 5.85-1.04 2.81-.42 6.37-1.04 2.29-.42 4.39-.73 3.23-.63 3.23-.52 1.78-.21 9.7-1.25 7.72-.63 4.7-.52 9.08-.94 9.08-.94 10.53-1.14 1.57-.21 17.01-1.78 3.96-.41 7.72-.84 5.33-.62 10.22-1.05 1.25-.1 5.22-.63 3.13-.31 2.4-.31 11.27-1.26 3.44-.31 2.09-.21 5.63-.62 1.05-.21 1.25-.11.83-.21.74-.2.83-.53 1.98-1.56 6.58-5.01.94-.94 6.99-5.22 8.55-6.57 7.62-5.95 8.66-6.57 8.66-6.68 1.77-1.36 4.39-3.33 4.48-3.45 4.7-3.65 4.59-3.55 4.7-3.55 3.02-2.29.21-.21 1.25-.83.42-.32.52-.31.52-.21.32-.1.52-.63.73-.21.73-.1 1.15-.32 1.77-.2.52-.21.84-.21.52-.21 1.04-.52.42-.32.52-.31.84-.83.83-.84.42-.73.42-.52.41-.94.63 1.67v.63l.1.73.11 1.14.1 1.05.21 1.35.1 1.05.32 2.29v.42l.42 2.3 1.35 8.97 1.15 6.57.52 3.76 3.44 20.97.11 1.15 4.17 25.88.32 1.77.93 5.64 1.15 6.88.73 4.49.32 1.57.31 1.46.21.52.21.73.31.73.31.73.21.63.63 1.04.52.83 2.09 3.03 3.96 5.95 1.88 2.61.94 1.35 1.25 1.78.21.31 3.02 4.69 1.47 2.3 1.14 1.77.53.73 3.13 4.8 2.4 3.86 3.02 4.7 13.57 20.87 6.67 10.33 2.3 3.44.52.84.42.41.73.74-4.28 3.75 6.47 9.91 3.44 5.33 12.84 19.82.83-.63 4.59-3.54 3.66 5.53 3.44 5.32 5.22 8.03.73.42.94 1.36.83 2.5.31 1.15.21.73.52.83.94 1.67 1.05 1.57.94 1.56.73 1.26.73.94 1.25 2.08 2.09 2.92.41.63 1.88 2.61.21 1.15h.63l1.14 1.56 1.67 2.3 1.46 1.98.73.31.53.84.2.42.94 1.35 1.88 2.92 3.03 4.7 2.4 3.65 1.67 2.61.41.73.11.1.83 1.05.63.52.94.42v.52l.1.42.11.62.21.73.31.73.73 1.05 6.99 10.95 3.55 5.32 1.15 2.19.83 1.78 1.25 1.46.94 1.36-2.08.1-.11.73v1.57l.11.52.1.41.21.32.62 1.25 4.8 7.2 9.29 14.5 4.28 6.37 6.99 12.1 1.25.73 1.57.84 1.67.83 1.98.63 1.36.42 1.46.41.94.11 1.46.1 1.77.11 1.88-.21 1.15-.21 1.25-.21 2.19-1.04.42.94-14.19 4.8-20.14 7.09 7.41 11.48 4.27 6.68-14.6 11.79-3.45-5.22-3.34-5.32-8.24-12.73-.52-.84-29.84-46.12-.21-.41-.21-.52-.1-.42v-.63l.1-.62.1-.73 2.09-7.83.52-3.03.21-2.19-3.65.52-.73 2.2-1.57 5.32-1.14 3.75-3.03 10.02-4.7 15.44-7.3 23.17-3.23 13.04-1.15 5.64-.73 2.92-.63 2.5-.94 3.55-.83-1.15-1.05-1.25-.62.1-22.54 8.46-1.77.62-18.26 6.89-12.42 4.48-.94-1.35-1.04-1.67-9.71 3.96-1.88.53.94 1.46.42.62.52.73-1.67.84-4.07 1.15-1.98.62-21.91 8.45-4.17 1.67-6.89 2.61-9.81 3.34-4.9 1.77-1.57.63-.52.1-49.88 18.79-9.81 3.13-14.08 4.9-42.47 15.55-2.09.73-.83.31-9.29 3.45-8.24 3.02-70.33 26.19z" stroke-linejoin="round"/></defs><use xlink:href="#c" fill="#cee3e4" stroke="#cef5f5" stroke-width="5.76"/><defs><path id="d" d="M2548.7 642.86l-4.28 3.45-1.56-1.36-3.13-2.82-3.03-2.81-1.98-1.88-5.95-5.32-2.29-2.09-1.88-1.67-1.88-1.67-1.88-1.77-2.19-1.88-1.15-1.15-2.61-2.3-2.08-1.87-1.88-1.99-1.57-1.56-1.04-1.04-1.15-1.26-1.77-1.77-2.09-2.09-1.04-1.04-2.51-2.61-1.14-1.25-.73-.84-.84-.94-.52-.73-.31-.41-1.67-2.09-1.67-2.3-2.09-2.71-1.57-2.09-1.46-1.98-2.5-3.34-1.57-2.08-1.67-2.19-1.46-1.99-2.4-3.13-1.67-2.29-1.77-2.3-1.56-1.98-1.99-2.71-1.77-2.2-1.57-2.08-1.77-2.3-1.46-1.98-1.77-2.3-1.67-2.29-1.57-2.19-1.67-2.19-.31-.42-.42-.52-1.46-1.67-.63-.73-1.25-1.36-1.77-2.09-2.92-2.92-8.25-8.87-7.72-8.03-1.15-1.57-.73-1.35-.41-1.05-.21-.52.83-.21 3.24-.52 2.29-.42 9.71-1.56 12.52-2.4 8.87-1.67 3.54-.63 10.65-1.98 10.33-1.88 10.85-2.08 4.59-.74 2.19-.31.42-.1 1.98-.32.84-.2v-.32l.1-1.04-.21-1.36-.1-.62-.42-2.72-1.25-8.14-.31-.73-.32-1.46-.21-1.14-1.98-12.11-2.5-14.92-.94-6.05-3.34-20.66-2.4-14.19-1.67-9.6-1.77-10.75-2.2-12.73-2.4-14.5-1.56-9.29-1.36-7.3-1.46-8.56-1.25-7.51-3.23-18.37-.84-5.01-.73-4.48-.21-1.25-1.88-10.86-1.25-7.51-.42-2.71-3.34-20.14-1.35-8.77-3.13-18.46-.73-4.7-2.61-15.76-.31-1.77-.53-2.61-.52-3.13-1.25-7.3-1.36-8.66-3.86-23.27-.31-2.4-.21-1.36v-1.25l.11-1.25.31-1.25.21-.94.1-.21.84-2.72-.73-.41-.73-.42-.63-.63-.52-.73-.42-.83-.42-1.04-.31-1.36-.94-6.78-.21-1.05-3.02-17.53-.63-3.96-.1-3.86 3.96-.73 4.07-.73 5.22-.84 9.39-1.77 3.44-.52 4.91-.73.52-.11 3.75-.73 1.88-.42 3.45-.62.62-.11 2.4-.41 3.45-.73 4.69-.94h.42l1.56-.32.94-.21 7.51-1.25 9.19-1.56 1.67-.32.52-.1 9.6-1.67 7.82-1.36 2.19-.41.63-.11 5.84-.94 4.28-.83h.52l4.28-.73 2.3-.42 3.02-.52.42-.11 3.65-.62 6.58-1.04.41-.11 2.09-.31 7.2-1.36.73-.1.42-.11 9.08-1.56 1.35-.21 1.46-.21 1.67-.31 6.99-1.26.42-.1 6.58-1.15 3.65-.62 3.75-.73 13.67-2.3 3.65-.63 1.26-.2 13.25-2.4 5.84-1.05.42-.1 3.44-.63 1.78-.31 5.94-1.04 4.6-.84 5-.83.42-.11 1.04-.21 3.45-.62 5.95-1.05 5.42-.94 4.8-.93 6.05-1.05 4.49-.83 8.45-1.46.52-.11 1.57-.31 5.11-.84 3.44-.52 5.01-.94 1.67-.41 1.57-.32 1.15-.21 2.71-.52 2.19-.52 1.46-.31 6.68-1.57.52-.21 4.9-1.14 4.7-1.05 5.01-1.04 1.25-.21 2.61-.52 5.22-.94 6.26-1.04.62-.11 9.08-1.56 2.19-.32 9.6-1.67 2.09-.31 9.91-1.67 10.12-1.67.63-.1 8.76-1.46 7.72-1.25 3.55-.53.52-.1 6.79-1.15.73-.1 4.9-.73 4.59-.84 3.65-.52.73-.21 5.01-.83 4.59-.63 8.04-1.36 2.61-.52 1.46-.21 5.32-.83 1.04-.21 3.24-.52 7.09-1.15 2.72-.52h.52l4.17-.73 4.28-.73 3.44-.63 3.24-.62 3.65-.63 1.46-.21 3.03-.42 3.75-.62 7.2-1.25.63-.11 6.36-.94.53-.1 2.71-.42 6.26-.73 11.48-1.25 1.25-.21 3.44-.42 3.65-.52 6.27-.83.41-.11h.42l4.8-.83 5.22-.94-.84 1.67-1.04 2.5-2.19 5.01-1.88 4.59-1.04 2.5-.84 1.88-.21.63-.52 1.36-.94 2.5-.83 1.98-1.05 2.92-1.46 3.97-1.67 4.69-1.67 5.12-1.04 3.13-1.57 4.59-1.66 5.11-.42 1.46-.52 1.36-1.57 4.9-2.82 8.46-1.14 3.54-2.3 7.1-2.09 6.47-.83 2.61-1.57 6.05-1.14 4.07-1.67 6.36-.53 1.67-2.29 6.89-2.19 6.68-2.19 6.99-1.99 5.84-2.08 6.16-2.19 6.57-2.09 6.16-2.09 6.68-1.15 3.44-3.13 9.39-3.23 9.81-.63 1.67-.41 1.25-2.4 6.78-1.67 5.22-1.46 4.17-1.88 5.95-1.25 3.65-1.67 4.8-1.57 4.91-.52 1.77v2.09l-1.67 3.86-.1.31-.21.52-.73 1.78-.73 2.29-1.26 3.13-1.67 5.95-4.59 13.67-1.25 3.65-2.71 7.62-2.61 7.51-1.36 4.07-2.92 9.18-.21.42-.73 1.98-1.67 5.12-.94 3.02-.1.42-1.04 3.23-.73 2.3-1.57 4.59-.31.94-1.57 5.32-4.59 14.19-.42 1.25-2.92 8.66-2.92 8.87-.83 2.61-2.2 6.58-.73 2.29-1.14 3.44-3.45 10.33-3.75 11.69-3.76 11.17-.31 1.04-1.67 4.59-.52 1.77-.32.94-.94 2.72-.94 3.02-1.77 4.59-1.25 3.97-.42 1.36-.21.73-.31 1.04-.94 3.23-.42 1.26-.31.94-.83-.32-.32-.1h-.31l-6.16.94-21.49 3.34-32.87 5.11-2.19.42-.73.2-.63.32-.73.42-15.44 11.26-21.39 15.76-21.39 15.65-22.44 16.18-21.49 15.86-21.6 15.65-22.02 15.96-9.8 7.2-.84.63-2.71 1.98-2.4 1.57-.63.31-.42.1-.41-.1-.52-.11-8.35 6.68-3.86 3.55-25.67 18.99-20.14 14.5-6.57 4.7-13.36 9.7z" stroke-linejoin="round"/></defs><use xlink:href="#d" fill="#cee3e4" stroke="#cef5f5" stroke-width="5.76"/><defs><path id="e" d="M2472.63 1140.48l-3.02-8.14-1.05-2.4-.62-1.46-.63-1.36-.21-2.19-.52-1.04-2.61-3.97-2.19-3.44-1.15-1.98-.83-1.36-.84-1.25-.93-1.67-.84-1.25-1.67-2.92-1.15-1.88-1.56-2.71-6.78-11.27 3.34-2.4 4.9-3.66-7.93-12.83-7.83-12.83-3.23 2.5-5.01 3.55-4.9-7.93-2.09-3.55-1.15-1.98-.52-.94-6.26-10.54-5.53-9.08-5.64-9.18-5.53-9.08-6.47-10.64-4.17-6.89-2.09-3.44-.73-1.36-1.98-3.23-1.46-2.3-1.77-2.82-3.86-3.75-3.86-4.38-6.68-1.88 1.35-2.09-.83-6.26-3.24-23.27-4.17.73-4.17.63-1.36-10.23-.73-5.32.1-5.43 8.56-1.25-.83-5.11-5.95-36.1-4.38-26.92-.73-4.8-1.78-10.54-.83-5.64-.84-5.21 3.03-.63 8.87-1.46 4.69-.73.11-4.38v-9.6l-3.97.73-11.89 1.77-1.57-9.6-.73-4.59-.1-1.25-10.96 1.67 3.76 23.16.83 3.44v1.57l-.1.52-.21.52-8.56 1.57-8.55 1.15-3.24.73-5.11.73-8.87 1.46-8.14 1.56-4.9.73-3.66.84-1.77-12.84-6.99-55.51-3.34-27.13 2.3-.31 1.46-.31 1.46 4.9 1.15 2.82 2.19 3.86 2.5 3.44 2.92 3.45 2.3 2.08 3.02 2.3 3.34 2.19 4.18 1.98 3.13 1.15 3.02.94 1.88.42.94.21.84.1.93.21 1.05.1 1.04.11 1.78.1h2.19l1.04-.1 3.34-.42 2.09-.31 8.97-1.78 6.16-1.15 16.69-3.13 25.77-4.8 40.7-7.72 15.23-2.4 3.03-.41 111.75-20.25 1.57.11 1.04.1 1.25.21 1.25.21.63.1.62.11 1.05.21.83.21 1.46.41 3.86 1.25.94.42 1.36.63 1.46.62 1.04.53.84.52 1.25.62 1.15.63.63.52 3.13 2.3 1.87 1.46.53.52 1.04.94 2.4 2.29 5.53-20.86.73-2.93.31-1.04.42-1.56 3.03-10.75.41-1.78.73-2.6.32-1.15 1.04-3.76.52-1.67-.42-.31-4.69-4.17-1.78-1.57-1.56-1.46-2.71-2.4-2.3-1.98-2.09-1.88-2.5-2.3-3.23-3.02-2.2-1.88-1.04-.94-1.25-1.15-3.55-3.13-2.82-2.5-.83-.73-2.19-1.99-1.88-1.67-1.98-1.77-1.26-1.04-7.3-6.58-2.19-1.98-2.82-2.5 4.28-3.45 13.36-9.7 6.57-4.7 20.14-14.5 25.67-18.99 3.86-3.55 8.35-6.68.52.11.41.1.42-.1.63-.31 2.4-1.57 2.71-1.98.84-.63 9.8-7.2 22.02-15.96 21.6-15.65 21.49-15.86 22.44-16.18 21.39-15.65 21.39-15.76 15.44-11.26.73-.42.63-.32.73-.2 2.19-.42 32.87-5.11 21.49-3.34 6.16-.94h.31l.32.1.83.32-1.36 4.17-2.08 6.26-.11.31-.52 1.57-.73 1.46-.1.21-.32.62.21 1.57.94 5.42.94 5.64.94 5.42 1.77 10.96.52 2.71.42 2.93.94 5.53 1.15 6.88 1.15 6.37.41 2.92.94 5.43.32 1.66.94 5.74.52 3.34 1.25 7.2 1.77 10.54 1.78 10.44 1.77 10.43 2.19 13.25 1.78 10.33.83 5.53.94 5.22.83 5.32.84 4.8 1.36 8.14.73 4.17.31 1.78.73 4.27.83 5.01.32 1.46.31 2.4.1.53.21.41.11.42.21.52-2.72 1.67.21 1.05.21.62.1.52.21.94.42 1.46.31.84.63 1.15.42.83 1.25 2.19.63.94.93 1.46 2.4 3.97 10.23 16.8 9.18 15.23 2.19 3.65 1.46 2.3 5.53 9.08 5.95 9.8 6.26 10.33 1.26 2.09 2.08 3.44 1.05 1.99.73 1.67.62 1.46.52 1.04.42.73 2.71 4.59 5.33 9.08 3.13 5.11-4.18 3.13-2.29 1.67-3.55 2.61-8.87 6.68-4.28 3.23-3.34 2.4-1.56 1.15-2.3 1.67-3.86 2.92-3.23 2.4-2.4 1.78-2.19 1.56-7.41 5.64-7.31 5.42-1.98 1.46-2.71 1.99-3.55 2.71-2.71 1.98-.73.52-1.88 1.46-2.92 2.09-8.56 6.37-8.45 6.36-8.56 6.37-8.45 6.36-8.45 6.16-4.91 3.75-3.44 2.51-2.82 2.08-3.13 2.3-2.29 1.67-.63.52-1.46 1.04-1.04.73-1.05.53-1.46.62-3.13 1.05-3.13 1.04-3.86 1.25-9.39 3.03-5.42 1.67-.42.21-.84.41-.41.32-1.88 1.35-2.4 1.78-2.61 1.87-10.12 7.52-7.83 5.84-3.44 2.61-7.2 5.32-7.72 5.74-2.3 1.67-6.05 4.59-3.55 2.61-3.55 2.71-3.54 2.82-2.61-4.07-4.49 3.44-1.77 1.36-2.61 2.09 2.4 4.07-5.95 4.48-3.76 2.92-3.75 3.03-3.86 3.03-1.25 1.14-2.51 1.99-3.75 3.13-3.87 3.13-3.86 3.13-3.86 3.13-4.28 3.44-2.29-3.65-4.38 3.03-3.86 3.44-4.07 2.92-4.59 3.55 2.5 4.17-9.18 6.78-2.09 1.57-2.71 2.19-4.38 3.55-4.39 3.44-3.96 3.24-3.86 3.23-1.15 1.04-2.09 1.78-1.15 1.15-1.46 1.56-.62.73-.42.42-.31.42-.32.41-.41.63-.42.52-.42.42-.52.52-.94.84-3.96 3.02-4.28 3.44-3.97 3.03-3.75 3.03-3.86 3.02-19.62-30.05-4.28 3.24-3.44 2.71-3.86 3.44-3.86 3.24-3.66 3.02 19.62 29.95-3.55 3.03-3.86 3.02-3.96 3.24-3.76 3.02-3.96 3.13-3.76 3.13-3.97 3.13-3.75 3.13-3.97 3.24-3.75 3.02-3.86 3.24-3.76 3.03-3.86 3.23-3.86 3.13-4.38 3.23-4.28 3.14-4.07 3.02-.31.31-11.8-19.3-.1-.21-.21-.1h-.31l-.42.1-.52.31-2.82 2.2 2.3 3.96-1.36 4.49-.31 1.25-.11.42-.1.31.1.21v.42l7.2 12.2-4.07 3.13-4.17 3.14-4.07 3.13-.62.52-1.99 1.35-.73.63-4.69 3.23-1.99 6.79-2.08 7.82-1.05 3.55z" stroke-linejoin="round"/></defs><use xlink:href="#e" fill="#cee3e4" stroke="#cef5f5" stroke-width="5.76"/><defs><path id="f" d="M1461.75 2851.83l-.83-.84-.73-.83-.63-.63-.73-.73-.63-.73-.73-.73-.73-.63-.73-.83-.62-.73-1.57-2.09-1.15-1.67-.52-.62-.52-.73-1.04-1.36-.52-.73-1.57-2.09-1.98-2.81-.73-1.15-1.99-3.03-.52-.73-.62-.73-.63-.73-.52-.63-.42-.62-.62-.63-.53-.73-.31-.31-.42-.42-.62-.62-.63-.53-.62-.62-.94-.84-.63-.52-.1-.1-.73-.63-.63-.42-.73-.62-.11-.11-.73-.52-1.25-.83-1.46-1.05-4.28-3.13-1.56-1.15-.94-.73-1.04-.73-.63-.41-.63-.53-.73-.52-.94-.73-.94-.73-1.87-1.46-1.36-1.15-.83-.73-.74-.62-.73-.63-.52-.52-.83-.73-.84-.73-.73-.73-.62-.63-.63-.73-.73-.62-.52-.73-.52-.63-.63-.84-.42-.83-.31-.42-.21-.42-.1-.1-.32-.73-.2-.42-.32-.52-.31-.83-.1-.53-.42-1.35-.42-1.78-.31-1.87-.11-1.05-.62-3.65-.11-.73-.1-.63-.11-.62-.2-.63-.11-.73-.31-.94-.11-.73-.52-1.56-1.04-2.51-.31-.83-.53-.94-.94-1.98-.41-.94-.63-1.05-.52-1.04-.31-.52-.84-1.57-.73-1.25-.83-1.67-.84-1.56-3.02-6.06-.32-.62-.41-.73-.42-.94-.84-1.57-2.29-4.27-.73-1.05-.73-.94-.52-.62-.84-.94-.52-.52-.42-.32-.42-.31-.94-.63-.83-.62-.63-.31-.83-.53-.21-.1-.83-.31-1.88-.63-.94-.21-2.4-.42-3.44-.62-1.36-.21-1.15-.11.11-.62v-.84l1.87.53 13.36-21.5 4.38-11.27 4.91-12.94 2.6-6.88 6.79-20.04 1.88-5.01 3.44-9.49 2.09-5.01 1.98-5.53 2.19-5.11 1.98-5.43 2.19-5.11 1.88-5.43 2.09-5.32 2.08-5.63 4.28-14.4.32-1.67.31-2.92.63-2.82 4.9-14.4-.21-1.04 5.53-14.2 2.09-5.32 1.67-4.28.21-.62.2-.52.32-.52.31-.53v-.62l-.21-1.88.31-.94.53-.83-1.26-1.15-7.61-7.62-7.41-7.72-.94-1.88-2.4-1.98-6.57-7.62-.53-.52-1.25-1.46-1.04.52-1.25-1.25-1.99-1.98-2.5-2.93-1.36-1.67-1.35-1.87-1.67-2.4-1.46-2.3-.21-.31-1.15-1.98-.31-.74-.32-.62-.93-1.88-2.2-4.69-.31.83-.31-.52-4.49-9.81-3.34-8.24.11-.52-.73-1.47-2.4-4.27-2.61-5.22-1.46-2.82-.63-1.15-1.56-3.34-1.47-2.6-.93-1.57-.84-1.36-1.36-1.87-1.35-1.57-2.82-2.82-2.61-2.6-2.71-2.72-4.8-4.69-5.01-4.91-2.4-2.4-1.15-1.35-1.77-1.99-.52-.73-.52-.83-.42-.63-.52-.94-.21-.62-.42-.84-.52-1.35-1.77-4.28 7.82-3.45 7.1-3.65 4.27-3.13 5.43-4.17 7.3-4.28 5.95-3.03 2.61-1.35 8.66-4.59 9.81-5.43 8.03-4.49 2.93-2.5 4.8-6.36.73-1.57 2.19-3.97.94-2.71.94-3.44 1.98-13.98.1-1.88.42-1.98.31-1.47.32-1.46.1-1.35.42-1.46.83-1.15 1.36-1.98-1.15-2.19 35.06-18.27 3.76-1.04 4.48.31 4.39.94 2.19 1.88 2.08 3.03 4.91 5.95-.84 1.87.11.11v.21l.62 2.4 1.46 4.17.32 2.4.41 1.77.63 2.2.84 1.87 1.14 2.4 1.26 1.78 1.14 1.88.73 2.19 1.46 1.35 1.78 1.15 2.29 2.71.32 1.78 1.04.31 4.07 2.71 2.71.21 2.51-.62 3.34-3.45 6.15-2.4 5.43-4.9 5.22-8.45 23.16 31.09 30.89 46.54 3.23 5.74.63.94.41.52 17.95 36.1 8.35 8.35-3.13 6.78-3.65 7.31-4.18 14.6-9.7 24.52-2.71 5.33-.74 1.87-8.34 23.59h-.52l-.21.41-1.26 2.93-1.46 3.75.42 2.51-3.96 7.72-3.55 4.48.31 4.49-5.22 13.36-.93.83-1.05.84-10.54 27.02-10.43 28.49-11.06 28.27-8.04 20.56-2.92 7.62.21 1.56-8.76 22.44-1.78 4.48-2.4 4.49-10.33 27.03-7.2 18.99-4.17 10.64-14.5 37.98-10.75 28.28-.21.83.1.94-.52 2.3z" stroke-linejoin="round"/></defs><use xlink:href="#f" fill="#9dc8ca" stroke="#9dd7f0" stroke-width="5.76"/><defs><path id="g" d="M805.33 1471.25l-3.55.52-.73.11-.63.1-.52.11h-1.46l-.84-.11h-.94l-1.87-.21-3.34-.31h-1.05l-.83-.1h-.73l-.73.1h-1.36l-1.67.31-.21-1.25-.94-6.99-1.14-8.24-2.61-17.95-.31-1.98-1.26-8.35-.52-3.03-.1-.73-.21-1.04-.84-5.53-1.98-12.31-.73-4.7-.83-5.32-.53-2.82-1.56-9.49-.11-1.05-.2-.94-.11-.73-.1-.73-.11-.62-2.08-13.05-.42-2.6-.31-2.2-.11-.2-1.46-9.19-.31-2.08-1.46-8.98-2.3-13.87-1.36-8.14-.2-1.36-.73-4.07-.32-1.98-.41-1.88-1.47-6.47-.52-2.5-.31-1.57-.42-1.46-.1-1.04-.21-.63-.11-.42-.1-.62-.1-.52-.11-.53-.21-1.46-.73-3.34-.41-2.19-1.47.21-.83.11-1.04.1-1.05.21-.1-.42-.11-.62-.41-1.67 2.08-.32h.42l.52-.1 1.46-.21 1.36-.21 1.36-.31.83-.11.63-.1 1.15-.1.41-.11-.73-1.15-.52-1.04-.42-.84-.41-1.25-.84-2.61-.31-.93-.42-1.67-.21-1.47-.31-1.35-.94-6.16-.31-1.98-.21-.94-.11-.63-.1-.73-.21-.73-.63-1.77-.41-2.09-.11-.41-.52-2.51-.73-3.23-.31-1.46-.32-1.26-.2-.94-.11-.41-.21-.94-.21-.63-.1-.52-.21-.73-.52-2.09-.94-3.65-.42-1.56-.21-1.05-.2-.94-.21-.62-.11-.73-.31-1.26-.1-1.25-1.15-7.09-1.15-6.58-.52-4.07-.52-4.48-.21-1.67-.84-8.87-.31-2.19-.1-.94-.21-1.05-.32-1.56-.41-2.3-.11-.73-.21-.62-1.87-7.62-.32-1.77-.21-.84-1.35-8.14-1.46-8.14-2.51-12-.31-1.87-.31-1.88-2.72-15.86-5.21-31.31-3.66-21.91-3.96-24.31-.63-3.96-.31-1.88-.21-.73-1.15-6.89-1.14-6.68-.94-6.99-.53-3.96-.31-1.47-.21-1.14-.31-1.99-.42-2.29-.31-3.03-.11-1.04-.1-1.67.1-1.46v-.84l.11-.62-.21-1.15-.1-1.36-.53-3.13-2.19-13.35-.94-5.95-1.67-9.29-2.81-14.92-4.18-24-.21-1.46-.41-3.96-.21-1.57-.21-1.46-.31-2.82-.63-3.54-.52-3.45-.31-2.81-.32-2.09 2.92-.52 3.55-.52 7.62-1.36 1.36-.21 9.28-1.56 5.64-.94 3.02-.53.73-.1 10.23-1.67 10.43-1.77 9.39-1.57 8.35-1.36 4.38-.83.84-.1 1.36-.21 1.77-.32 2.5-.62 1.67-.31 5.01-1.05 5.11-.83 4.07-.73 3.76-.53 1.88-.41 3.65-.63 6.37-1.15 2.81-.52 2.51-.31 7.93-.94 7.2-1.25 3.13-.52 1.56-.21 1.05-.21 2.71-.42 2.09-.42 1.56-.21 2.51-.41 1.87-.32 1.88-.31 2.71-.42 1.36-.2 1.15-.21.42-.11 2.4-.31 1.87-.42.53-.1 3.75-.73 6.37-1.25 10.74-1.88 7.83-1.46 2.92-.53 3.03-.52 2.09-.41 4.48-.84 5.22-.94 5.32-1.04 5.32-.94 5.32-.94 2.09-.42 2.61-.52 6.47-1.25 1.98-.31 3.55-.73 1.46-.21 2.92-.53 2.82-.41.21-.11 1.77-.41 4.91-.94 5.63-1.05 4.49-.83 1.98-.31 4.59-.84 2.61-.52 2.4-.42 6.05-1.15 9.39-1.77 9.6-1.77 9.08-1.67 2.4-.42 6.47-1.15 4.59-.94 1.04-.31 3.34-.63 2.92-.41 6.37-.94 9.28-1.46 9.19-1.57 9.28-1.46 9.08-1.46 10.12-1.67 8.87-1.57 8.98-1.46 5-.83 3.97-.63.42 2.61.41 2.4 1.46 8.66 1.78 10.12.94 5.53 1.67 9.29.52 3.44.94 5.64.42 2.08.62 3.24.73 4.49.73 4.69.21 1.78.42 1.98.94 5.74 1.35 7.3.94 5.84.94 5.43.32 1.98.52 3.13.94 5.43.94 5.53 1.46 8.35 1.46 9.49 1.14 6.78 1.99 11.38.1 1.15 1.78 10.43.83 5.11.63 3.45.62 3.75 1.05 6.05 1.35 8.35.73 4.18.63 4.8 3.55 19.2.83 4.8 3.76 23.16 3.02 17.74 3.03 17.84 1.04 6.16 2.61 16.17 2.61 15.76.73 3.96.31 2.51.21 1.04.21 1.25.31 2.4.73 4.28 2.61 15.96 2.09 13.05 2.61 16.17.52 3.34.52 3.34.11.73.2 1.15 1.26 8.76.41 1.98.11.73.21.84.94 5.84 3.34 21.08 3.96 24.94 3.55 21.7.62 3.34.32 1.98.62 4.07.32 1.78.2 1.46.21 1.56.73 3.97.94 5.84.84 5.74.62 3.96.53 3.76.41 3.03 1.05 6.99 1.14 6.57.84 5.32.63 3.97.52 3.13.73 4.59.31 2.61.83 5.01 1.15 7.61.63 4.07.83 5.12.53 3.02-5.43.94-5.01.94.73 5.01-1.77.31-.52.11-1.47.21-1.56.41-2.09.32-3.13.52-3.55.52-1.35.31-.73.11-2.51.41h-.31l-1.98.42-5.22.84-2.09.31-3.02.62-1.98.32-3.45.52-5.21.94-.32-1.15-.21-.94-.41-2.71-5.33.63-5.11.83.84 5.11-10.33 2.19-7.2 1.05-3.34.52-.52-3.55-.21-1.36-5.32.42-4.91.84-2.61.62-1.04.52-1.67.32h-1.77l-3.34.31.83 5.11-3.96.53-2.3.41-3.13.63-2.82.52-2.6.42-3.03.52-2.3.42-2.71.41-2.71.42-3.45.63-1.67.31-1.25.31-10.43 1.67-3.86.63-1.46.31-2.72.42-2.29.42-6.47 1.15-.63.1-3.34.63-.52-2.93-.31-2.4-4.8.84-4.59.83.73 5.12-2.71.41-6.26 1.15-9.5 1.67-6.47 1.04-2.71.53-.94-5.22-5.74 1.15-3.44.41.83 5.22-.94.11-6.36 1.14-1.88.42-.84.11-4.27-4.91-.42.21-4.91.73.73 4.07.11 1.25-2.61.52-5.22.84-1.25.31-4.59 1.25-1.15.11-3.75.52-4.18.73-4.69.94-1.36.21-7.83 1.15-2.6.41-6.68 1.05-3.45.52-9.91 1.56-5.32.84-5.43.94-3.96.62-6.05 1.05-10.54 1.67-6.89 1.04-3.86.73-10.54 1.56-10.22 1.67-10.33 1.67-.84-5.42-10.54 1.67.84 5.63-10.54 1.67-10.43 1.67z" stroke-linejoin="round"/></defs><use xlink:href="#g" fill="#9dc8ca" stroke="#9dd7f0" stroke-width="5.76"/><defs><path id="h" d="M1241.9 1592.6l-9.39 1.67-1.98-11.37-3.24-19.93-5.01-29.53-.41-2.4-.42-2.92-.21-1.04-3.55-21.5-.83-5.43-.11-.93-.73-4.7-3.96-24.52-.42-2.92-.84-5.22-1.98-13.25-.52-3.34-1.04-7.2-.84-4.7-.41-2.92-.53-3.13-.31-2.4-.73-4.69-.63-4.49-1.04-5.95-.73-5.21-.83-5.12-.53-3.02-.83-5.12-.63-4.07-1.15-7.61-.83-5.01-.31-2.61-.73-4.59-.52-3.13-.63-3.97-.84-5.32-1.14-6.57-1.05-6.99-.41-3.03-.53-3.76-.62-3.96-.84-5.74-.94-5.84-.73-3.97-.21-1.56-.2-1.46-.32-1.78-.62-4.07-.32-1.98-.62-3.34-3.55-21.7-3.96-24.94-3.34-21.08-.94-5.84-.21-.84-.11-.73-.41-1.98-1.26-8.76-.2-1.15h1.14l3.45-.11h4.8l3.54-1.04.84-.1 4.59-.84 4.7-.83 2.4-.52 1.98-.21 3.23-.63 5.22-.94.63-.1 4.59-.84 4.59-.83 3.86-.63.83-.21 3.86-.62.63-.11 4.49-.83 4.07-.63.52-.1 8.66-1.57.52-.1 4.28-.32 4.8-.93 4.49-.84 4.07-1.04 4.27-.52 4.07-.94 4.28-.73 4.17-.73 4.39-.63 3.96-.84 4.38-.73 3.97-.73 4.69-.83 4.6-.84 5-.83 4.8-.83 4.8-.84 4.39-.83 4.48-.73 4.28-.74 4.49-.73 8.03-1.35 5.85-1.05 2.92-.2.73-.11.73-.1 1.35-.21 1.15-.21 1.67-.21.84 2.09.94 2.5.94 2.51.93 2.81.63 2.19v.21l.1.42.53 4.38.62 2.51.52 2.29.32 1.99 3.13-.53 5.32-.62-4.07-24.94.94-.21 4.17-.31 5.12-.84 2.5-.52 5.01-.73 4.59-1.15 4.69-.83 4.6-.73 4.8-.84 4.59-.73 4.8-.62 3.65-.52.73-.11.21-3.65.62 4.07.63 3.65 3.13-2.3 7.3-6.05.53-.41 13.35-10.54 1.05-.84 5.21-3.86 8.04-6.36 16.07-12.32 14.81-11.58 3.45 5.53 3.02 5.01 3.03 5.01 2.82 4.49 2.5 4.06 1.98 3.24 2.51 4.17 2.4 3.97 2.6 3.96 2.51 4.07 2.4 4.07 2.61 4.07 2.5 4.07 2.61 4.28 2.5 4.07 2.51 4.17 2.71 4.18 2.4 4.07 2.61 4.17 2.5 4.17 2.61 4.07 2.51 4.18 2.61 4.07 2.5 4.17 15.96 25.77 12.32 20.04 11.48 18.47 12.31 20.03 2.81-2.09 2.4 4.18 2.51 3.96 2.5 4.07 2.61 4.07 2.51 4.07 2.4 4.07 2.5 3.96 2.71 4.18 2.61 4.38 2.71 4.38 2.72 4.39 2.71 4.27 2.71 4.39 2.61 4.27 2.72 4.39 2.6 4.27 2.72 4.39 2.61 4.28 2.81 4.48 2.82 4.49 2.82 4.69 2.81 4.49 2.72 4.38 2.71 4.49 2.71 4.28 2.82 4.69 2.61 4.39 2.82 4.48 2.5 4.28 2.92 4.49-4.07 2.82-.31.31-.31.42-2.19.62 1.35.63 10.02 4.48 1.25.63 1.15.42 1.04.42 1.67.83 1.78.73 3.02 1.36.31.1 1.57.73 2.4.94 1.04.42 1.78.83.94.42 3.65 1.77 4.69 2.09.53.21-.94.73-.94.73-1.67 1.36-.73.73-.84.83-1.35 1.36-.21.21-.94 1.15-.42.62-.52.84-.31.73-.11.1-.21.52v.94l.11.42-.52.31-.32.21-.41.94-.42.52-.42.73-.83.84-.84.83-.52.31-.42.32-1.04.52-.52.21-.84.21-.52.21-1.77.2-1.15.32-.73.1-.73.21-.52.63-.32.1-.52.21-.52.31-.42.32-1.25.83-.21.21-3.02 2.29-4.7 3.55-4.59 3.55-4.7 3.65-4.48 3.45-4.39 3.33-1.77 1.36-8.66 6.68-8.66 6.57-7.62 5.95-8.55 6.57-6.99 5.22-.94.94-6.58 5.01-1.98 1.56-.83.53-.74.2-.83.21-1.25.11-1.05.21-5.63.62-2.09.21-3.44.31-11.27 1.26-2.4.31-3.13.31-5.22.63-1.25.1-10.22 1.05-5.33.62-7.72.84-3.96.41-17.01 1.78-1.57.21-10.53 1.14-9.08.94-9.08.94-4.7.52-7.72.63-9.7 1.25-1.78.21-3.23.52-3.23.63-4.39.73-2.29.42-6.37 1.04-2.81.42-5.85 1.04-3.34.52-5.74 1.05-1.46.2-1.87.32-2.09.31-3.03.52-1.04.21-1.15.21-1.77.31-3.97.63-2.19.31-2.29.42-3.55.63-3.13.52-1.99.31-3.54.63-3.55.52-2.09.42-4.8.83-2.61.31-3.75.63-8.56 1.56-8.66 1.36-5.01.84-3.55.62-8.55 1.46-4.49.73-7.09 1.25-7.72 1.36-2.4.31-10.02 1.78-9.91 1.67-.94.21-4.07.52-5.01.83-9.5 1.67-9.91 1.67-9.91 1.67-15.65 2.61-9.5 1.67-9.39 1.46-1.46.31z" stroke-linejoin="round"/></defs><use xlink:href="#h" fill="#9dc8ca" stroke="#9dd7f0" stroke-width="5.76"/><defs><path id="i" d="M2589.5 720.5l-5.53 20.86-2.4-2.29-1.04-.94-.53-.52-1.87-1.46-3.13-2.3-.63-.52-1.15-.63-1.25-.62-.84-.52-1.04-.53-1.46-.62-1.36-.63-.94-.42-3.86-1.25-1.46-.41-.83-.21-1.05-.21-.62-.11-.63-.1-1.25-.21-1.25-.21-1.04-.1-1.57-.11-111.75 20.25-3.03.41-15.23 2.4-40.7 7.72-25.77 4.8-16.69 3.13-6.16 1.15-8.97 1.78-2.09.31-3.34.42-1.04.1h-2.19l-1.78-.1-1.04-.11-1.05-.1-.93-.21-.84-.1-.94-.21-1.88-.42-3.02-.94-3.13-1.15-4.18-1.98-3.34-2.19-3.02-2.3-2.3-2.08-2.92-3.45-2.5-3.44-2.19-3.86-1.15-2.82-1.46-4.9-1.46.31-2.3.31-21.39 3.55-.94-.42-.94.42-.31.31-.21.21-.31.32-.21.2-.42.63-.42 1.04-.31 1.05-.42 1.56-.62-1.98-.32-1.04-.31-.63-.42-.73.42-1.25 2.71-7.62.21-.42 11.69-36 4.17-12.93 1.88-5.64.63-2.19 9.18-27.76 14.61-44.55 14.08-43.72 7.83-23.69 4.9-.73 20.14-3.44 3.65-.63 2.4-.41-.2-.94-.94-5.85-7.62-46.85-1.04-6.47-.63-4.07-1.67-9.91-1.56-10.01-.73-4.6-1.05-5.84-4.8.84-1.35.2-21.92 3.76-6.47 1.15-1.14.21-5.95 1.04-12.11 2.09-9.6 1.67-9.18 1.56-9.18 1.67-21.29 3.55-10.64 1.98-3.65.63-2.09.31-6.05 1.15-4.9.83-.84.21-5.84.94-1.57.21-4.27.83-5.54.94-9.28 1.46-5.32.94-.94-5.11-2.51-15.34-3.65.63 2.51 15.34.93 5.11-1.66.42-3.55.62-4.7.84-4.69.83-4.59.63-4.49.94-4.59.73-9.18 1.56-2.3.42-2.09.31-2.92.53-1.88.31-8.87 1.46-8.66 1.56-8.76 1.47-2.19.31-2.19.42-4.28.73-1.67.2-15.65 2.61-6.06.94-11.16 1.88-1.46.21-5.32.94-4.7.73-4.48.83-1.05.11-3.75.62-.94.21-3.55.63-4.7.83-4.59.84-4.69.73-4.49.83-1.36.21-3.23.52-3.24.53-1.25.2-4.17.63-.94.21-3.34.52-4.28.73-3.13.42-1.15.21-4.17.73-4.38.62-.84.21-3.34.42-7.3 1.25-3.44.52-.52.11-2.93.42h-.41l-.84.1h-.83l-.63.1h-.63l-.41.11-2.51.31-3.86.73h-.42l-4.17.63-4.17.73h-.63l-.83-5.22-.84-4.9-2.71-16.28-.94-6.16-2.5.42-1.88.31 1.04 6.26 1.15 8.04-4.28.73 3.13 18.26-3.44.52-.94.11-3.13.52-1.25.21-1.26.2-3.23.53-4.38.62-.94.21-3.45.52-1.87.21-2.4.42-3.13.52-1.36.21-2.19.31-2.09.31-2.09.42-2.6.42-1.57.31-3.23.42-.94.21-3.45.42-.83.2-3.76.53-.73.1-4.07.63-.83.1-3.34.52-1.15.21-3.76.52-.93.11-2.72.42-1.04.31-.73.21-3.24 1.25-4.17 1.56-3.86 1.46v-1.25l-.1-1.25-4.28.42-.11 3.65-.83.31-3.34 1.26-.42-2.3-.21-1.25-.1-.94-.94-5.32-1.46-8.45-3.44-20.35-3.03-18.58-1.67-10.12-4.59-26.6-.21-1.36-.63-3.76-.62-4.17-.11-.73-.21-1.25-4.06-25.88-4.91-30.89-2.61-17-1.46-8.56-.31-2.4-.31-1.88-.32-1.67-.62-4.17-.21-1.46-4.18-24.84-5.32-32.03-.83-5.22-1.36-7.82-.52-1.67-.21-1.05-.21-1.67-.52-3.96-.21-1.04-1.25-5.01-.31-1.78.73-.1h.41l2.09-.21 3.24-.21 6.88-.52 7.1-1.15.42-.1.31-.11.21-.21.21-.41.1-.32v-.31l-.1-.31-.11-.42-.21-.21-.21-.21-1.35-.21 5.74-.83 2.92-.52 2.09-.31 1.35-.21 1.88-.32 3.23-.62.94-.11 1.46-.21 6.89-1.14 1.57-.21 6.36-.94 1.78-.31 12.93-2.09 1.15-.11 9.29-1.46 1.67-.31 3.23-.52 3.76-.52 1.77-.32 2.3-.31 1.77-.31 4.49-.73 1.56-.21 3.03-.42 3.23-.52 5.95-.94 2.72-.42 6.46-1.04 2.2-.21 7.09-1.15 1.46-.21.42-.1 6.57-.94.42-.1h.42l1.35-.32 4.6-.62 3.23-.52 2.5-.32 2.4-.41 4.18-.63 9.39-1.46.83-.11 3.76-.62 5.01-.94 3.65-.63 1.67-.31 3.96-.73 1.36-.21 1.25-.21 1.46-.31 8.98-1.46 2.4-.52 4.07-.73 2.92-.42 3.55-.73 3.34-.52 6.78-1.15 3.96-.73 6.37-1.15 4.48-.73 9.19-1.56 1.88-.42 2.92-.52 5.01-.84 4.38-.73.41-.1 3.45-.63 2.09-.31 3.23-.52.42-.11 6.78-1.25 2.61-.42 1.98-.42 5.95-.93 2.82-.53 1.35-.2 5.64-1.05 6.88-1.15 1.78-.31.52-.1 5.01-.94.94-.11 3.02-.52.63-.1 2.19-.42 1.56-.21 4.8-.94 1.26-.21 3.96-.73 3.03-.52 1.98-.31 2.71-.63 1.88-.31 5.74-1.04 5.22-1.05 1.46-.31 2.61-.42.52-.1 1.88-.42 13.14-2.3 5.01-.83.94-.1 1.78-.32 2.29-.42 7.72-1.35 3.03-.42 2.29-.42 3.34-.62 5.22-.73 11.9-1.67 4.8-.73 6.88-1.15 3.45-.52.52-.11 2.08-.31 2.09-.42 5.84-.94 11.38-1.87 4.9-1.05 5.43-.94 4.17-.73 2.09-.31 3.23-.52h.32l6.78-1.15 3.65-.63.42-.1 4.59-.83 4.9-.84.63-.1 5.22-.94 2.6-.42 2.3-.42 1.04-.21 3.97-.73 4.07-.73.73-.21.94-.1 2.4-.42 4.38-.83 1.15-.21.62-.11 1.36-.2 2.5-.42 4.07-.84 2.2-.31 9.91-1.77 2.71-.52 5.22-.94 2.92-.53 5.22-1.04 1.77-.42.84-.1 3.44-.73 7.2-1.25 1.35-.21.42-.11 8.14-1.35.63-.11 2.81-.52 2.2-.42 2.92-.52 1.88-.31.93-.21 1.57-.31 7.62-1.25 1.98-.42 1.15-.21 2.08-.31 1.88-.42 2.72-.52 8.45-1.67 9.07-1.88 2.72-.52 3.86-.84 3.13-.62 9.08-1.88 2.61-.63 3.96-.83 5.32-1.15 2.19-.42 6.58-1.35.52-.11.42-.1.1 3.86.63 3.96 3.02 17.53.21 1.05.94 6.78.31 1.36.42 1.04.42.83.52.73.63.63.73.42.73.41-.84 2.72-.1.21-.21.94-.31 1.25-.11 1.25v1.25l.21 1.36.31 2.4 3.86 23.27 1.36 8.66 1.25 7.3.52 3.13.53 2.61.31 1.77 2.61 15.76.73 4.7 3.13 18.46 1.35 8.77 3.34 20.14.42 2.71 1.25 7.51 1.88 10.86.21 1.25.73 4.48.84 5.01 3.23 18.37 1.25 7.51 1.46 8.56 1.36 7.3 1.56 9.29 2.4 14.5 2.2 12.73 1.77 10.75 1.67 9.6 2.4 14.19 3.34 20.66.94 6.05 2.5 14.92 1.98 12.11.21 1.14.32 1.46.31.73 1.25 8.14.42 2.72.1.62.21 1.36-.1 1.04v.32l-.84.2-1.98.32-.42.1-2.19.31-4.59.74-10.85 2.08-10.33 1.88-10.65 1.98-3.54.63-8.87 1.67-12.52 2.4-9.71 1.56-2.29.42-3.24.52-.83.21.21.52.41 1.05.73 1.35 1.15 1.57 7.72 8.03 8.25 8.87 2.92 2.92 1.77 2.09 1.25 1.36.63.73 1.46 1.67.42.52.31.42 1.67 2.19 1.57 2.19 1.67 2.29 1.77 2.3 1.46 1.98 1.77 2.3 1.57 2.08 1.77 2.2 1.99 2.71 1.56 1.98 1.77 2.3 1.67 2.29 2.4 3.13 1.46 1.99 1.67 2.19 1.57 2.08 2.5 3.34 1.46 1.98 1.57 2.09 2.09 2.71 1.67 2.3 1.67 2.09.31.41.52.73.84.94.73.84 1.14 1.25 2.51 2.61 1.04 1.04 2.09 2.09 1.77 1.77 1.15 1.26 1.04 1.04 1.57 1.56 1.88 1.99 2.08 1.87 2.61 2.3 1.15 1.15 2.19 1.88 1.88 1.77 1.88 1.67 1.88 1.67 2.29 2.09 5.95 5.32 1.98 1.88 3.03 2.81 3.13 2.82 1.56 1.36 2.82 2.5 2.19 1.98 7.3 6.58 1.26 1.04 1.98 1.77 1.88 1.67 2.19 1.99.83.73 2.82 2.5 3.55 3.13 1.25 1.15 1.04.94 2.2 1.88 3.23 3.02 2.5 2.3 2.09 1.88 2.3 1.98 2.71 2.4 1.56 1.46 1.78 1.57 4.69 4.17.42.31-.52 1.67-1.04 3.76-.32 1.15-.73 2.6-.41 1.78-3.03 10.75-.42 1.56-.31 1.04-.73 2.93z" stroke-linejoin="round"/></defs><use xlink:href="#i" fill="#9dc8ca" stroke="#9dd7f0" stroke-width="5.76"/><defs><path id="j" d="M1370.66 1180.34l4.07 24.94-5.32.62-3.13.53-.32-1.99-.52-2.29-.62-2.51-.53-4.38-.1-.42v-.21l-.63-2.19-.93-2.81-.94-2.51-.94-2.5-.84-2.09-1.67.21-1.15.21-1.35.21-.73.1-.73.11-2.92.2-5.85 1.05-8.03 1.35-4.49.73-4.28.74-4.48.73-4.39.83-4.8.84-4.8.83-5 .83-4.6.84-4.69.83-3.97.73-4.38.73-3.96.84-4.39.63-4.17.73-4.28.73-4.07.94-4.27.52-4.07 1.04-4.49.84-4.8.93-4.28.32-.52.1-8.66 1.57-.52.1-4.07.63-4.49.83-.63.11-3.86.62-.83.21-3.86.63-4.59.83-4.59.84-.63.1-5.22.94-3.23.63-1.98.21-2.4.52-4.7.83-4.59.84-.84.1-3.54 1.04h-4.8l-3.45.11h-1.14l-.11-.73-.52-3.34-.52-3.34-2.61-16.17-2.09-13.05-2.61-15.96-.73-4.28-.31-2.4-.21-1.25-.21-1.04-.31-2.51-.73-3.96-2.61-15.76-2.61-16.17-1.04-6.16-3.03-17.84-3.02-17.74-3.76-23.16-.83-4.8-3.55-19.2-.63-4.8-.73-4.18-1.35-8.35-1.05-6.05-.62-3.75-.63-3.45-.83-5.11-1.78-10.43-.1-1.15-1.99-11.38-1.14-6.78-1.46-9.49-1.46-8.35-.94-5.53-.94-5.43-.52-3.13-.32-1.98-.94-5.43-.94-5.84-1.35-7.3-.94-5.74-.42-1.98-.21-1.78-.73-4.69-.73-4.49-.62-3.24-.42-2.08-.94-5.64-.52-3.44-1.67-9.29-.94-5.53-1.78-10.12-1.46-8.66-.41-2.4-.42-2.61-.84-5.42-.2-1.15.83.83.42-.1 3.75-.63 4.39-.52 4.59-.83 4.59-.73.52 3.96.21 1.57 8.76-1.36h.53l8.76-1.56 1.25-.21 1.78-.32 1.77-.21 1.88-.31 3.44-.62.73-.11 8.66-1.46-.83-5.11 4.69-.73 4.6-.73.83 5.11 9.29-1.57-.84-5.11 4.7-.94 4.59-.73.83 5.22 3.66-.63 5.53-.83 9.28-1.36 3.65-.52 5.74-.94 4.18-.62 2.61-.42 1.14-.21 1.46-.21-.83-4.9 4.38-.63 5.11-.83.73 5 7.83-1.14 2.4-.42 3.13-.42 3.03-.42 4.17-.62 2.61-.42 1.98-.31 3.13-.42 2.61-.42 1.25-.21 2.19-.41h.42l2.19-.42 3.86-.63.42-.1 3.76-.52 1.67-.32 2.4-.31 1.46-.21 2.61-.41 4.27-.63 3.13-.42 5.33-.83 4.8-.63 3.54-.52 6.37-1.04 2.61-.42 2.5-.42 6.68-.94-.84-5.11 4.6-.63 4.69-.73.84 5.12 5.63-.94 3.55-.42-.84-5.11 4.91-.73 3.54-.63.84 5.22 1.77-.32 2.93-.52 4.9-.83.52-.11 2.82-.41 5.11-.84 1.46-.31 6.89-1.15 2.5-.42 5.85-.94 3.54-.62 4.91-.73 5.32-.94 3.03-.52 2.5-.42 4.9-.84.94-.2 1.26-.21 2.92-.42 4.27-.73 1.05-.21.83-.1 3.55-.63 2.92-.52 3.24-.52 3.65-.53 1.46-.31 5.32-.83 3.13-.63 6.89-1.15 1.46-.31-2.4-4.7 4.69-.73 4.91-.93.52 2.6.21.63.1.73.42 1.04 1.57-.31.83-.1 2.09-.42 4.9-.84 1.98-.41 3.76-.53 5.43-.93 1.04-.21-1.98-3.24-.52-1.35 6.99-1.15 3.54-.63 1.67-.42.94 4.91 4.07-.73 4.91-.73 1.46-.31-.84-5.33 5.32-.94 4.91-.83.94 5.43 9.49-1.78 8.35-1.25 8.03-1.46 6.37-1.04 1.56-.32.74-.1 1.35-.32 1.46-.2 1.25-.21.63-.11 2.4 4.91 3.44 7.09 2.4 13.25.94 5.01 5.32-1.98.84 5.11 5.74 33.18 2.71 16.18.42 1.25.83 1.57 19.2-14.72 12 19.41 1.98 6.16 3.45 3.02 2.08 4.28 2.3 4.38 2.5 4.18 2.51 4.07 2.5 4.07 2.72 4.27 2.6 4.39 1.57 2.4 1.04 1.77 2.61 4.17 1.67 2.61 1.78.84 1.66.42 1.05.83 1.15 1.15 1.56.31-.31.52-.63.94-.31.84-.42.83-.31 1.04-.42 1.26 3.24.94.31.2-.11 3.66.73 1.25.42.1 6.37 10.54 8.14 12.94.2.31 1.57 2.82.94 2.5 1.46 4.49.31.94.21.52 1.57 8.35.52 3.44 1.77 5.22 1.15 2.61 1.57 3.44-.63.63v.31l-.42.42-5.22 3.86-4.38 3.34-4.38 3.13-13.88 10.33-.83-1.25-3.65 2.81-14.82 11.27-16.49 12.73-8.55 6.79-26.82 20.45.63.94-3.66 2.71-4.27 3.34-13.67 10.33-21.39 16.38-22.23 17.22-4.8 3.86.84 1.25-4.28 3.13-16.7 12.52-14.81 11.58-16.07 12.32-8.04 6.36-5.21 3.86-1.05.84-13.35 10.54-.53.41-7.3 6.05-3.13 2.3-.63-3.65-.62-4.07-.21 3.65-.73.11-3.65.52-4.8.62-4.59.73-4.8.84-4.6.73-4.69.83-4.59 1.15-5.01.73-2.5.52-5.12.84-4.17.31-.94.21z" stroke-linejoin="round"/></defs><use xlink:href="#j" fill="#9dc8ca" stroke="#9dd7f0" stroke-width="5.76"/><defs><path id="k" d="M109.87 1004.73l-1.46-8.45-1.77-11.27-.94-7.2-.31-3.55-1.78-10.75-3.34-21.07-4.07-26.3-1.04-6.36-1.04-6.06-4.18-24.93-1.35-7.83-3.97-24.42-2.08-12.1-3.13-18.57-3.87-23.69-3.86-23.58-1.46-8.45-2.4-15.55-1.77-10.96-.31-1.46-.53-2.71v-1.15l.21-1.04-6.26-2.82-.94-.42-.94-.41 4.18-.53 1.77-1.56.32-.52.2-.42v-.94l-.73-4.59-1.87-11.69-.63-3.65v-.1l-1.25-8.56-.11-.42-.73-4.69-1.15-7.52-.52-3.96-.94-5.74-.62-4.07-.42-3.13-.21-1.04-.73-5.12-.62-3.86-.11-1.04-.73-4.28-.63-4.28-.31-2.19-2.09-13.04-2.29-15.13-.52-3.44-.21-.94-.11-.73-.31-2.4-.21-.84-3.34-21.28-.31-2.4-1.88-12.52-3.44-21.5-.73-4.07-.31-1.98-1.15-.52-.94-.42-.31.73-.11-1.04-.52-2.51 2.71-.62 3.97-.84 3.96-.62 3.34-.53 5.53-.83 3.24-.52 2.08-.42 4.91-.63 1.77-.2 4.28-.63 3.96-.63 3.45-.52 2.4-.31 8.14-1.25 2.4-.42h.31l1.88-.11 6.88-1.14h.53l3.65-.63 3.44-.63.42-.2 2.09-.42 3.86-.73 1.25-.21 1.46-.21 2.61-.52h.42l.62-.11 13.15-2.19 6.57-1.25 2.19-.42.94-.2 7.52-1.36 8.86-1.57 1.78-.41 10.85-1.88 9.18-1.67 6.89-1.57 1.98-.41 1.67-.42 3.44-.73 6.27-1.25 6.78-.84 10.85-1.46 1.46-.21 3.44-.52 1.36-.31 1.04-.21 1.67-.21 1.15-.21 2.19-.42 2.4-.41 2.92-.53 3.76-.52 5.95-1.15 3.75-.62 1.99-.31 6.15-1.15 2.92-.63 2.61-.62 2.3-.11.73-.21 2.61-.41 1.46-.42 1.56-.21 3.24-.52 4.69-.73 1.57-.32 1.98-.41.52-.11.52-.1 4.28-.84 5.53-.83 3.45-.63 1.04-.1 1.15-.21 3.13-.52 1.46-.32 5.84-1.04 4.7-.83 6.57-1.15 2.51-.31 5.63-1.05 3.86-.62 6.16-1.15 4.17-.84 2.5-.52h1.26l1.14-.21 2.3-.41 6.05-1.05-.21 1.88 20.56-3.76 6.89-1.25 3.44-.31 3.96-.84 13.36-2.29 3.55-.63 15.23-2.81 3.03-.53 5.63-.94 17.43-3.02 10.22-1.78 7.2-1.25 1.46-.21 2.51-.62 3.13-.52 1.36-.32 4.38-.52 2.5-.42 5.43-.93 1.98-.21 3.13-.53 4.49-.83 4.8-.73 3.86-.84 1.35-.1 3.55-.63 1.25-.2h.53l17.11-3.03 10.12-1.67 6.26-1.04 1.36-.21 5.94-1.05 1.36-.2 2.71-.53 2.09-.31 4.9-.83 3.24-.53 4.38-.73 1.98-.31 5.01-.83 7.72-1.36 5.43-.94 1.77-.31 2.82-.42.52-.1 6.79-1.26 3.75-.52 6.26-1.04.32 1.67v1.46l.1 1.04.1.84.32 2.29.31 1.99.63 4.38.31 1.88.52 3.86.63 3.34.62 3.23.73 4.17 1.15 6.47.94 6.06.63 3.86 3.86 23.58 1.25 6.78 1.98 12.83.11 1.15.1.94.11.94v.84l.1.93v7.2l.21 1.78v1.15l.42 2.81 1.25 9.08 3.86 22.96.21.83 3.96 23.69.84 5.21.73 3.87 1.04 4.48.21 1.46.42 2.51.94 5.84.62 3.65.21 1.57 3.44 21.18.53 3.44 3.23 19.31 3.23 17.63 1.26 6.68 1.46 7.51 1.67 10.12.31 2.82.1.63.11 1.67.73 7.2 2.3 14.5 2.5 15.76.21 1.46.31 1.56.11.63.1.73.21.73.21.62.31 1.15.94 2.61.31 1.15.11.31.52 1.88.52 2.71.63 4.07.73 5.01.41 2.82.11 2.71v.63l.21 4.17.21 3.24.31 2.81.62 4.28.53 3.34.31 1.98.21 1.36.21 1.36.21 1.35.1 1.05.63 3.86.31-1.05.21-.41.21-.42.31-.21.42-.11.31-.1.83-.1.84 6.67.52 4.07.63 4.59.83 6.68.21 1.67.63 4.28.94 6.68.2 1.88.42 2.71.73 4.59.73 5.43 2.3 14.08 1.04 6.05 2.82 16.6.31 1.98.84 4.69-2.19.42-6.79 1.04-7.72 1.26-4.07.83-1.98.31-1.98.32-4.91.83-2.5.32h-.84l-3.54.62-2.93.63-2.08.31-2.61.42-9.39 1.67-.63.1-2.92.63-7.51 1.25-10.54 1.88-6.99 1.15-.73.52-1.57.62-.83.53-6.16-3.14-6.99-3.54-.63-.21-3.75-1.88-5.64-2.82-.94-.41-.73-.32-.73-.21-1.46-.31-1.67-.31-1.88-.21h-1.87l-1.78.21-1.46.21-2.19.41-7.3 1.36-3.13.73-4.8 1.25-2.61 1.26-1.36.73-1.67 1.14-1.15 1.05-2.5 2.71-1.25 2.5-.94 3.13-.31.84.31 1.98-1.25 3.34-1.99-.94-5.73-2.5-1.78-.84-1.46-.62-.83-.32-1.46-.62-3.87-1.78-2.71-1.14-.31.73-.21.94-1.04 3.02-.11.84 1.15 6.47.21 1.04-.73.1-7.31 1.26-1.56.2-7.31 1.26-.73.1-8.97 1.46-9.39 1.57-9.6 1.67-9.5 1.46-4.79.83-4.7.84-9.81 1.56-9.6 1.57-3.96-24.21-9.19 1.46 3.97 24.31-4.59.73-4.7.73-6.78 1.15-6.78 1.15-4.8.83h-.42l-5.11.84-5.43.94-4.48.73-2.3.73-8.14 1.46-.83.21-6.79 1.56-2.81.52-2.82.42-3.44.31-4.7.42-5.11.84-5.32.73-5.01.73-5.32.83-5.22.84-5.43.52-10.74 1.46-.73.1h-.94l-1.67-.52-.52-.42-.21-.41-1.57-.84-1.88-.73-2.61-.94-2.6-.52-1.99-.21-3.34.63-4.27 3.34v-2.19l-1.46.2-3.55.11-5.43.1-12.42.42-.1-4.8.42-5.53-.21-.94-.31-1.56-3.03-9.29-.42-1.67h-7.2l-1.35-.21-.52-.1 1.35 2.29 1.46 4.07.73 1.98 1.57 4.49.62 3.97-.31 3.75-.31.63-1.78 3.44-1.77 2.4-1.46 1.88-.73 1.25-1.77 2.72-1.99.73-6.47.83-10.33 2.09v-5.32l-2.71-.32-1.15-.1-2.19-.11-3.44-1.25-2.3-.62-2.5-1.15-.42-.21h-.52l-.63.31-.31.52-.31 1.05-.32 1.67-.31 1.98-1.25 1.57-1.15 1.46-.52 1.56.21.73-1.98.73-.53-.21-3.54.42-10.33 1.67.2 1.98-2.5.84-.94.31-7.82 1.25-11.48 2.09-11.38 1.98-7.4 1.36-3.86.73-2.4.42-5.12 1.04-5.01.94-12.2 2.4-5.85 1.04-7.41 1.36z" stroke-linejoin="round"/></defs><use xlink:href="#k" fill="#6bacaf" stroke="#6bb4d2" stroke-width="5.76"/><defs><path id="l" d="M691.38 908.21l-1.56.31-.84-4.69-.31-1.98-2.82-16.6-1.04-6.05-2.3-14.08-.73-5.43-.73-4.59-.42-2.71-.2-1.88-.94-6.68-.63-4.28-.21-1.67-.83-6.68-.63-4.59-.52-4.07-.84-6.67-.83.1-.31.1-.42.11-.31.21-.21.42-.21.41-.31 1.05-.63-3.86-.1-1.05-.21-1.35-.21-1.36-.21-1.36-.31-1.98-.53-3.34-.62-4.28-.31-2.81-.21-3.24-.21-4.17v-.63l-.11-2.71-.41-2.82-.73-5.01-.63-4.07-.52-2.71-.52-1.88-.11-.31-.31-1.15-.94-2.61-.31-1.15-.21-.62-.21-.73-.1-.73-.11-.63-.31-1.56-.21-1.46-2.5-15.76-2.3-14.5-.73-7.2-.11-1.67-.1-.63-.31-2.82-1.67-10.12-1.46-7.51-1.26-6.68-3.23-17.63-3.23-19.31-.53-3.44-3.44-21.18-.21-1.57-.62-3.65-.94-5.84-.42-2.51-.21-1.46-1.04-4.48-.73-3.87-.84-5.21-3.96-23.69-.21-.83-3.86-22.96-1.25-9.08-.42-2.81v-1.15l-.21-1.78v-7.2l-.1-.93v-.84l-.11-.94-.1-.94-.11-1.15-1.98-12.83-1.25-6.78-3.86-23.58-.63-3.86-.94-6.06-1.15-6.47-.73-4.17-.62-3.23-.63-3.34-.52-3.86-.31-1.88-.63-4.38-.31-1.99-.32-2.29-.1-.84-.1-1.04v-1.46l-.32-1.67 2.3-.52.73-.11 1.36-.21 3.02-.52 5.64-.94 8.76-1.46 1.67-.31 1.88-.31 1.98-.42 1.98-.21 4.91-1.04 10.33-1.78 10.64-1.98 3.76-.63 2.08-.2 3.55-.63 10.33-1.77 2.51-.42 3.02-.52 4.59-.63 9.29-1.88 20.45-3.44 7.1-1.36 8.87-1.56 1.35-.21 2.19-.42 1.46-.31 1.26-.11 1.25-.2 3.13-.63.73-.1 1.04-.11 2.51-.52 3.75-.63 6.99-1.14 3.45-.63 7.72-1.67.73-.21 1.04-.21 4.59-1.15 4.7-1.04 6.99-1.67 5.63-1.04 6.37-1.25 1.36-.32 9.7-1.56 1.36-.21 2.29-.42 5.74-.94 1.98-.31 3.03-.52 7.09-1.05 2.4-.41 8.98-1.46 7.3-1.26 1.98-.41 10.96-1.78 2.4-.41 8.35-1.36 10.12-1.77 3.65-.53.94-.21 2.19-.41 3.34-.52 1.88-.32 1.77-.21 2.3-.41 4.17-.84 10.02-1.77h.83l2.4-.42 7.41-1.25 2.51-.42 6.67-1.04 1.78-.32 10.33-1.66 9.39-1.67 2.5-.32 9.08-1.56 10.12-1.78 5.01-.83 4.18-.73 5-.84 5.12-.83 3.44-.52 4.9-.84 5.12-.94 4.17-.73 4.9-.62.11.94.1 1.14.73 5.43.42 2.19 1.67 10.75.94 5.63.52 2.72.52 3.33 1.88 11.17.84 5.22 2.29 14.4 4.28 26.29.52 3.44.52 3.13.53 2.82.83 5.01.63 4.28.94 5.42.62 3.34 2.4 15.76 1.15 6.47.52 2.5 1.15 6.58 2.5 15.65 1.25 7.72.63 3.44 1.04 5.74.11.73.1.94.73 4.28.11.83.1.73.84 4.39.41 2.61.11.83.62 3.65.53 3.13.73 4.39.41 3.33 1.05 6.47.21 1.05 1.04 6.78.31 2.4 1.05 7.2 1.46 8.76 1.35 8.35.94 6.26 3.13 18.89.73 5.22.73 4.17 1.15 7.09.73 4.07 1.36 8.46 3.65 22.22.31 2.3.32 1.67.62 4.38 1.57 9.08.73 4.27.73 4.18.73 4.49.83 5.32.84 4.38.21 1.98.73 4.7.52 3.13 1.15 5.53.52 2.92 2.09 12.94.83 4.59.63 3.34.41 3.02.73 3.45 4.28 25.25 4.18 25.46.2 1.15.84 5.42-3.97.63-5 .83-8.98 1.46-8.87 1.57-10.12 1.67-9.08 1.46-9.28 1.46-9.19 1.57-9.28 1.46-6.37.94-2.92.41-3.34.63-1.04.31-4.59.94-6.47 1.15-2.4.42-9.08 1.67-9.6 1.77-9.39 1.77-6.05 1.15-2.4.42-2.61.52-4.59.84-1.98.31-4.49.83-5.63 1.05-4.91.94-1.77.41-.21.11-2.82.41-2.92.53-1.46.21-3.55.73-1.98.31-6.47 1.25-2.61.52-2.09.42-5.32.94-5.32.94-5.32 1.04-5.22.94-4.48.84-2.09.41-3.03.52-2.92.53-7.83 1.46-10.74 1.88-6.37 1.25-3.75.73-.53.1-1.87.42-2.4.31-.42.11-1.15.21-1.36.2-2.71.42-1.88.31-1.87.32-2.51.41-1.56.21-2.09.42-2.71.42-1.05.21-1.56.21-3.13.52-7.2 1.25-7.93.94-2.51.31-2.81.52-6.37 1.15-3.65.63-1.88.41-3.76.53-4.07.73-5.11.83-5.01 1.05-1.67.31-2.5.62-1.77.32-1.36.21-.84.1-4.38.83-8.35 1.36-9.39 1.57-10.43 1.77-10.23 1.67-.73.1-3.02.53-5.64.94-9.28 1.56-1.36.21-7.62 1.36-3.55.52-2.92.52-2.92.52z" stroke-linejoin="round"/></defs><use xlink:href="#l" fill="#6bacaf" stroke="#6bb4d2" stroke-width="5.76"/><defs><path id="m" d="M1720.63 1456.02l-.31.31-.53-.21-4.69-2.09-3.65-1.77-.94-.42-1.78-.83-1.04-.42-2.4-.94-1.57-.73-.31-.1-3.02-1.36-1.78-.73-1.67-.83-1.04-.42-1.15-.42-1.25-.63-10.02-4.48-1.35-.63 2.19-.62.31-.42.31-.31 4.07-2.82-2.92-4.49-2.5-4.28-2.82-4.48-2.61-4.39-2.82-4.69-2.71-4.28-2.71-4.49-2.72-4.38-2.81-4.49-2.82-4.69-2.82-4.49-2.81-4.48-2.61-4.28-2.72-4.39-2.6-4.27-2.72-4.39-2.61-4.27-2.71-4.39-2.71-4.27-2.72-4.39-2.71-4.38-2.61-4.38-2.71-4.18-2.5-3.96-2.4-4.07-2.51-4.07-2.61-4.07-2.5-4.07-2.51-3.96-2.4-4.18-2.81 2.09-12.31-20.03-11.48-18.47-12.32-20.04-15.96-25.77-2.5-4.17-2.61-4.07-2.51-4.18-2.61-4.07-2.5-4.17-2.61-4.17-2.4-4.07-2.71-4.18-2.51-4.17-2.5-4.07-2.61-4.28-2.5-4.07-2.61-4.07-2.4-4.07-2.51-4.07-2.6-3.96-2.4-3.97-2.51-4.17-1.98-3.24-2.5-4.06-2.82-4.49-3.03-5.01-3.02-5.01-3.45-5.53 16.7-12.52 4.28-3.13-.84-1.25 4.8-3.86 22.23-17.22 21.39-16.38 13.67-10.33 4.27-3.34 3.66-2.71-.63-.94 26.82-20.45 8.55-6.79 16.49-12.73 14.82-11.27 3.65-2.81.83 1.25 13.88-10.33 4.38-3.13 4.38-3.34 5.22-3.86.42-.42v-.31l2.09 2.5 1.77 2.19 3.34 4.91-6.47 4.8 3.03 5.01 3.13 5.01 2.81 4.9 7.2-5.22 2.4 4.18 2.3 4.17 1.88 3.03.52 1.04-1.67 1.25.42.63 2.08 3.34.84 1.35 1.15 1.78.62 1.04 1.36-1.04.52-.21h.94l.62.21.74.94.41.62-2.92 1.78-.42.31-.73.1-.31-.21.21.32 11.69 5.21 2.29 3.66 3.55 5.94 1.25-.94 2.19-1.77 11.58-8.76 1.26 2.29 2.5 4.59 3.03 4.7 2.92 5.11 1.56 2.4 3.45 5.64 2.92 4.69 3.13 4.91 3.23 5.21 3.24 5.32 2.92 4.7 2.82 4.49.73 1.04 2.71 4.49 2.09 3.34.94 1.04.2.21.32.21.62.21.53-.11.73.11.41-.11 2.93-1.98.93 1.46.42.52.84 1.04.62.63.52.42.63.42.63.41.62.42.84.31 1.04.42.84.31 4.9 1.67.73.32 2.71 1.35-2.71 2.09-1.88 1.36-2.71 1.98-.94.73-2.5 1.77-1.05.73 1.05 1.78 3.33 5.21 3.24 5.33 3.34 5.42 3.34 5.22 3.34 5.32 3.33 5.32 3.24 5.22 3.55 5.84 2.61 4.49 3.13 4.9 3.02 5.01 3.13 5.01 1.98 2.92 9.81 15.97.84 1.56 1.67 2.71 2.29 3.55 2.19 3.55.21.42 2.4 3.96 2.4 3.97 2.51 3.75-23.58 18.16 2.4 3.65 2.92 4.49 23.37-17.84 2.82 4.38 3.96 6.68-23.48 17.63 4.28 6.99 12.11-9.39 4.07 6.89 3.96 6.78 3.76 6.26 5.01 8.03 8.87-6.88 6.15 9.7 6.37 10.64 2.5 3.66.31.73 4.8 8.45.84 1.56.94 1.67 1.56 2.61.32.52-5.22 4.07-2.3 1.78-1.14 1.04-4.18 3.13-2.19 1.67-1.98 1.57-3.65 2.71-4.91 3.86-5.42 4.17-2.93 2.51-3.33 2.5-.63.52-2.61 1.78-.63.83-2.19 2.92-.21.42-.31-.42-.31-.52-.21-.52-8.77 6.47-4.9 3.76-3.96 2.6-2.72 2.09-2.08 1.57-5.22 4.07-14.82 10.85-6.15 5.11-1.78 1.36-10.12 7.61-10.43 8.04-3.86 2.19-.21 1.36-14.61 10.85-3.65 2.92-15.03 11.37-.52.42-5.95 4.59-25.56 19.41-.32.31-.41.21-.52.42-3.76 2.92-.42.31-.31.32z" stroke-linejoin="round"/></defs><use xlink:href="#m" fill="#6bacaf" stroke="#6bb4d2" stroke-width="5.76"/><defs><path id="n" d="M3045.06 1303.88l-3.13-4.69-3.96-6.16-6.37-10.33-3.13-5.42-2.29-3.97-1.46-2.5-1.15-2.09-1.04-1.98-1.78-2.61-1.25-1.46-1.04-.84-.94-.52-.94-.52-1.05-.21-1.04-.42-1.46.11h-2.09l-1.04.1h-.94l-.94.31-.73.42-.21.94.32.63.52.41.73.42.94.11.52.21.73.1.62.1.94.42.84.52.83.63.63.94.31.83.94 1.46 1.05 1.67 1.35 2.3 4.49 7.2-4.07 1.77-3.34-.31-1.98-.52-1.88-.84-1.67-.94-1.46-1.04-1.15-1.04-.94-1.26-.31-1.56-.21-2.3-.31-21.39-6.89-12.41-19.51-34.96 8.45-6.36 1.67-1.26.42-.31 3.02-2.19 5.85-4.38.94-.63 1.04-.73 10.75-8.14-1.26-2.19-1.35-2.29-1.15-1.88-.63-.84-1.98-3.13-1.46-2.29-.52-.94-1.98-3.34-1.78-2.82-2.19-3.55-.62-1.14-1.57-2.51-1.57-2.61-.83-1.67-.42-.83-.41-1.05-.32-1.25-.31-1.14-.11-.84-.1-.83v-.53l-19.72-29.11-6.05 2.09-6.37 2.29-7.09 2.61-.84.32-.83.31-4.38 1.67-1.88.73-1.78.73-1.46.83-.31.32-3.86-5.64-17.53-22.01-1.98-2.4 4.17-3.24-13.77-21.91-11.38-20.24-4.07-8.98-1.04-1.35 14.5-11.06 17.53-12.94 2.3-1.78 7.62-5.84-3.24-5.53-5.84-9.6-4.91-8.24-2.71-4.49-22.43-37.35-3.03-4.91-6.68 1.36-2.29.41-6.37 1.26-1.77.41-1.15.42-1.04.42-.73.31-.52.21-1.67.73-.53.21-.62.31-.63.32-.52.31-.73.31-1.56.94-1.05.73-.73.42-2.09 1.67-.83.62-.73.63-.63.63-.62.62-.52.52-.73.63-.63.73-.73.73-.73.84-5.43 6.26-2.19-1.05-4.38-2.5 1.15-.52.62-.42.84-.63.62-.83 16.18-12.21 5.53-6.57 13.98-11.27.52-.21-2.4-3.97-1.46-2.4-.42-.62-.31-.52-.42-.42-1.04-1.36-1.98-2.4-3.45-3.75-8.45-9.5-1.56-1.67-.63-.73-1.77-1.88-.42-.41-.73-.63-.63-.63-1.56-1.14-1.25-.94-.74-.42-.52-.31-.62-.42-.84-.42-.52-.31-.63-.31-.31-.11-.94-.42-2.71-1.04-4.07-1.67-4.9-1.88-2.3-.94-1.88-.73-3.23-1.46-1.57-.62-8.14-3.13-2.71-1.05-6.16-2.29 1.05-.53 1.04-.73 1.46-1.04.63-.52 2.29-1.67 3.13-2.3 2.82-2.08 3.44-2.51 4.91-3.75 8.45-6.16 8.45-6.36 8.56-6.37 8.45-6.36 8.56-6.37 2.92-2.09 1.88-1.46.73-.52 2.71-1.98 3.55-2.71 2.71-1.99 1.98-1.46 7.31-5.42 7.41-5.64 2.19-1.56 2.4-1.78 3.23-2.4 3.86-2.92 2.3-1.67 1.56-1.15 3.34-2.4 4.28-3.23 8.87-6.68 3.55-2.61 2.29-1.67 4.18-3.13 3.44-2.71 2.61-1.98 1.67-1.25 7.3-5.53 7.2-5.22 3.13-2.4 3.97-2.92 1.77-1.26 3.65-2.81 3.55-2.72 3.34-2.6 2.19-1.67 2.92 4.9 15.24 24.83 18.15 29.74 10.23 16.59 8.66 14.19-3.34 2.82-3.76 2.92 16.07 26.3 1.15 1.88 1.56 2.5 2.72 4.38 8.66 13.88 3.75-2.82.42-.31 2.09-1.57 7.82 15.86 17.33 28.7 10.64 17.84 2.61 4.49.52-.31.83-.63.94-.73.52.83 2.4 3.76-2.81 2.19 13.35 21.6 15.86 25.25 2.3-1.67 3.76-2.81 3.65-2.82 6.47 11.06 2.71 4.38-5.64 4.8-1.25 2.19-.52-.62-1.15.94-4.69-3.45 1.88 6.78.2.53 3.76-1.47-1.36 1.15 17.95 27.13 27.03 44.87 16.9 27.44 12.52 20.45.42.63 18.47 30.05 3.02 3.24 2.09 2.4-5.84 5.73 1.67 2.82 5.42 8.98 3.45 5.53.52 1.25.1 1.25v2.3l15.45 25.56-5.85 4.9-4.07 2.72-.73.73-.73.52-2.61 2.09-1.14.73-1.99 1.25-4.48-.52-36.32 14.4-3.54.52-13.67 3.44-9.81 3.13-24 6.68-4.7-1.46-3.23 1.67-.83-.21-5.95-9.29h-.11l-.21.11-.1.31 4.9 7.93-.62.84-2.51.1-2.29 2.92.83.52 4.49.11.63.83-.11.73-.62.42-1.36.52-1.57.31-1.04.21-1.67.32-1.36.1-1.77-.63-2.92 1.47-2.4-3.66-1.15.94 2.09 3.86-.94.73-9.08 3.03-.73.1-.52-.1-.21-.73.21-1.57-2.4 1.15-2.3 2.61-3.23 1.15-7.62 1.98-4.07 1.04-5.01 1.26-2.29.62-16.59 4.18-2.92 1.14-13.15 3.55-9.08 2.51-.73.73-1.04.31-4.49 1.25-10.02 2.92z" stroke-linejoin="round"/></defs><use xlink:href="#n" fill="#6bacaf" stroke="#6bb4d2" stroke-width="5.76"/><defs><path id="o" d="M3056.85 865.43l-1.56-2.5-1.15-1.88-16.07-26.3 3.76-2.92 3.34-2.82-8.66-14.19-10.23-16.59-18.15-29.74-15.24-24.83-2.92-4.9-2.19 1.67-3.34 2.6-3.55 2.72-3.65 2.81-1.77 1.26-3.97 2.92-3.13 2.4-7.2 5.22-7.3 5.53-1.67 1.25-2.61 1.98-3.44 2.71-3.13-5.11-5.33-9.08-2.71-4.59-.42-.73-.52-1.04-.62-1.46-.73-1.67-1.05-1.99-2.08-3.44-1.26-2.09-6.26-10.33-5.95-9.8-5.53-9.08-1.46-2.3-2.19-3.65-9.18-15.23-10.23-16.8-2.4-3.97-.93-1.46-.63-.94-1.25-2.19-.42-.83-.63-1.15-.31-.84-.42-1.46-.21-.94-.1-.52-.21-.62-.21-1.05 2.72-1.67-.21-.52-.11-.42-.21-.41-.1-.53-.31-2.4-.32-1.46-.83-5.01-.73-4.27-.31-1.78-.73-4.17-1.36-8.14-.84-4.8-.83-5.32-.94-5.22-.83-5.53-1.78-10.33-2.19-13.25-1.77-10.43-1.78-10.44-1.77-10.54-1.25-7.2-.52-3.34-.94-5.74-.32-1.66-.94-5.43-.41-2.92-1.15-6.37-1.15-6.88-.94-5.53-.42-2.93-.52-2.71-1.77-10.96-.94-5.42-.94-5.64-.94-5.42-.21-1.57.32-.62.1-.21.73-1.46.52-1.57.11-.31 2.08-6.26 1.36-4.17.31-.94.42-1.26.94-3.23.31-1.04.21-.73.42-1.36 1.25-3.97 1.77-4.59.94-3.02.94-2.72.32-.94.52-1.77 1.67-4.59.31-1.04 3.76-11.17 3.75-11.69 3.45-10.33 1.14-3.44.73-2.29 2.2-6.58.83-2.61 2.92-8.87 2.92-8.66.42-1.25 4.59-14.19 1.57-5.32.31-.94 1.57-4.59.73-2.3 1.04-3.23.1-.42.94-3.02 1.67-5.12.73-1.98.21-.42 2.92-9.18 1.36-4.07 2.61-7.51 2.71-7.62 1.25-3.65 4.59-13.67 1.67-5.95 1.26-3.13.73-2.29.73-1.78.21-.52.1-.31 1.67-3.86v-2.09l.52-1.77 1.57-4.91 1.67-4.8 1.25-3.65 1.88-5.95 1.77.84 4.28 1.98 4.07 1.88 9.6 4.28 19.09 8.55 19.72 8.87 19.93 8.87 26.4 11.9 3.44 1.46 28.18 12.62 28.48 12.73 19.93 8.98 20.66 9.18 18.58 8.35h1.56l2.4.41-.62 1.88-6.06 17.32-.31.84 1.36.62 3.54 1.78-1.56 4.38-1.04 2.92-.84 2.19-1.56 4.28-2.61 7.51 2.71 1.36 2.09.94 8.34 3.65 8.25 3.76 4.38 1.98 3.76 1.77 5.32 2.3 4.38 1.98 5.32 2.3 5.43 2.4 5.11 2.29 5.43 2.4 4.48 1.99 2.93 1.25 3.33 1.46 8.77 3.96.31.21.21.21.31.31.32.42 3.86 6.47.1.11 1.88 2.81 1.36 2.19 4.69 7.62 5.74 9.18 5.84 9.71.73.94 7.31-5.43 7.72 3.34-3.34 10.12-6.78-3.13h-.84l-.2.1-.53.21 1.05 1.78 4.69 7.41 4.38 6.99 6.79 11.06 1.77 2.81 1.57 2.4 1.14 1.99 8.35 13.04 3.97 6.26 10.64 17.11 3.76 6.06-2.72 16.79-2.29 14.2-1.05 6.26-2.19 13.56-1.98 11.79-1.46 6.89-4.17 21.08-2.4 14.4-.42 2.08-1.04 6.58-1.88 11.37-.94 5.63-.73 4.59-.32 1.15-.31 1.88-.1.73-.11.42-.31 1.04-.21.94-.31 1.15-.73 2.09-2.72 9.07-.83 2.72-.52 1.87-2.09 6.89-1.46 4.8-4.07 13.25-.52 1.88-1.36 4.49-.41 1.46-.94 2.71-.32.84-.41.94-.42.83-1.04 2.09-.11.62-.21.84-.94 1.15-.62.83-.52.63-.42.41-.42.42-.31.31-.32.32-.31.31-.52.52-.73.52-3.86 3.13-2.09 1.78-1.46 1.15-6.16 5-1.46 1.15-2.19 1.78-3.55 2.92-2.6 2.08-5.33 4.18-.93.73-1.47 1.25-8.86 7.2-8.87 7.41-1.05.94-.83.62-4.49 3.97-4.59 3.76-2.71 2.29-4.39 3.65-1.77 1.36-3.76 2.92-4.06 3.13-7.73 5.95-3.65 2.71-4.17 3.03-1.88 1.25-5.84 4.17-5.85 3.97-2.08 1.25-1.67 1.04-1.46.84-2.61 1.46-2.3 1.36-2.5 1.25-5.64 3.03-1.56.83-1.25.63-2.61 1.35-.32.63-1.04.62-.31.21-1.15.32-.42.2-1.56.74-8.35 3.65-.63.41-1.35.21-6.68 2.82-8.97 3.76-1.67.73-3.55 1.46-5.43 2.4-3.75 1.56-2.72 1.15-6.88 2.82-3.03 1.25-5.63 2.4-4.28 1.67-.94.31-3.24 1.36z" stroke-linejoin="round"/></defs><use xlink:href="#o" fill="#6bacaf" stroke="#6bb4d2" stroke-width="5.76"/><defs><path id="p" d="M1126.6 832.46l-.21-1.57-.52-3.96-4.59.73-4.59.83-4.39.52-3.75.63-.42.1-.83-.83-4.18-25.46-4.28-25.25-.73-3.45-.41-3.02-.63-3.34-.83-4.59-2.09-12.94-.52-2.92-1.15-5.53-.52-3.13-.73-4.7-.21-1.98-.84-4.38-.83-5.32-.73-4.49-.73-4.18-.73-4.27-1.57-9.08-.62-4.38-.32-1.67-.31-2.3-3.65-22.22-1.36-8.46-.73-4.07-1.15-7.09-.73-4.17-.73-5.22-3.13-18.89-.94-6.26-1.35-8.35-1.46-8.76-1.05-7.2-.31-2.4-1.04-6.78-.21-1.05-1.05-6.47-.41-3.33-.73-4.39-.53-3.13-.62-3.65-.11-.83-.41-2.61-.84-4.39-.1-.73-.11-.83-.73-4.28-.1-.94-.11-.73-1.04-5.74-.63-3.44-1.25-7.72-2.5-15.65-1.15-6.58-.52-2.5-1.15-6.47-2.4-15.76-.62-3.34-.94-5.42-.63-4.28-.83-5.01-.53-2.82-.52-3.13-.52-3.44-4.28-26.29-2.29-14.4-.84-5.22-1.88-11.17-.52-3.33-.52-2.72-.94-5.63-1.67-10.75-.42-2.19-.73-5.43-.1-1.14-.11-.94-.2-1.78 1.67-.31 8.24-1.36 3.13-.73 6.26-1.14 1.25-.21 1.15-.21 7.41-1.46 6.68-1.26 1.25-.2 6.36-1.15.52-.11 1.57-.2.42-.11 5.74-.94 3.75-.62 5.22-.94 4.7-.73 6.15-1.26 1.25-.2 1.05-.21.83-.11 1.98-.31 4.07-.73 1.57-.21.83-.21.84-.1 5.42-1.05 3.13-.52 3.66-.62 1.77-.32 4.07-.73 7.72-1.25 1.46-.21 1.46-.21 3.34-.52 3.13-.52 1.67-.31 2.3-.32 1.04-.2 1.04-.11 2.51-.52 2.82-.42 2.19-.42.62-.1 2.19-.31 2.82-.42 2.4-.42 2.82-.52 3.13-.63 1.88-.31 10.64-1.88.94-.1 6.78-1.15 6.89-1.15 1.77-.21 5.74-1.04 5.01-.83 1.36-.21 1.04-.21 5.74-.94 6.78-1.57 4.49-.73 4.38-.83 3.03-.52 1.35-.21 1.46-.11 2.93-.52 4.48-.73 1.67-.31 2.71-.31 3.87-.73 4.79-.84 5.01-.94 5.64-.52 2.19-.42.73-.1h.42l.41-.11.63-.1 5.11-.83 2.51-.53 3.86-.62 1.56-.21 4.07-.73 4.18-.73 4.07-.63 2.19-.42 6.15-1.04 2.51-.42 1.35-.1 3.76-.63 12.63-1.67-1.46 1.15 8.97-1.35 6.26-.94 3.13-.63 2.61-.21.73 1.98.94 5.64 1.04 6.57 1.04 6.37 1.88 12.1 4.8 29.95 5.32 32.97-9.49 1.67 2.5 20.24 18.99-3.23 12.73 75.86 8.14-1.46 7.93-1.47 2.72 8.14-3.24.73-3.65.53-1.15.62-.73.63-.42.94-.31 1.25 1.15 6.68 1.88 10.12 1.25 7.41.62 4.07.53 2.29 1.04 8.45.73 4.39 1.15 1.98.42 1.46.2 1.77-.1 1.36-.31 1.15.1 2.19.42 2.82 1.35 7.09.94 6.99.84 4.38.94 5.01.52 3.55-7.1 1.46 3.86 23.38 3.66 22.12 4.07 23.68.62 4.07 1.78 10.54.1.42.1.41.11.32.21.21.21.21.31.1.42.1.41.21.42.42.11.1.2.21.32.42.31.31.31.42.11.42.21.42.1.41.11.42v1.04l-.11.63-.21.52-.21.42-.2.31-.32.52-.21.32v.31l-.1.31.1.52 2.3-.41 1.36-.21 9.91-1.78 9.6-1.56 9.81-1.67 10.64-1.77 12-1.99 10.43-1.87 5.32-.84 1.57-.31 2.5-.42.94-.21.94 5.53-5.11.73.94 4.49 3.65 21.6 5.32 31.41 4.38 25.66-5.32.94.84 5.33-1.46.31-4.91.73-4.07.73-.94-4.91-1.67.42-3.54.63-6.99 1.15.52 1.35 1.98 3.24-1.04.21-5.43.93-3.76.53-1.98.41-4.9.84-2.09.42-.83.1-1.57.31-.42-1.04-.1-.73-.21-.63-.52-2.6-4.91.93-4.69.73 2.4 4.7-1.46.31-6.89 1.15-3.13.63-5.32.83-1.46.31-3.65.53-3.24.52-2.92.52-3.55.63-.83.1-1.05.21-4.27.73-2.92.42-1.26.21-.94.2-4.9.84-2.5.42-3.03.52-5.32.94-4.91.73-3.54.62-5.85.94-2.5.42-6.89 1.15-1.46.31-5.11.84-2.82.41-.52.11-4.9.83-2.93.52-1.77.32-.84-5.22-3.54.63-4.91.73.84 5.11-3.55.42-5.63.94-.84-5.12-4.69.73-4.6.63.84 5.11-6.68.94-2.5.42-2.61.42-6.37 1.04-3.54.52-4.8.63-5.33.83-3.13.42-4.27.63-2.61.41-1.46.21-2.4.31-1.67.32-3.76.52-.42.1-3.86.63-2.19.42h-.42l-2.19.41-1.25.21-2.61.42-3.13.42-1.98.31-2.61.42-4.17.62-3.03.42-3.13.42-2.4.42-7.83 1.14-.73-5-5.11.83-4.38.63.83 4.9-1.46.21-1.14.21-2.61.42-4.18.62-5.74.94-3.65.52-9.28 1.36-5.53.83-3.66.63-.83-5.22-4.59.73-4.7.94.84 5.11-9.29 1.57-.83-5.11-4.6.73-4.69.73.83 5.11-8.66 1.46-.73.11-3.44.62-1.88.31-1.77.21-1.78.32-1.25.21-8.76 1.56h-.53l-8.76 1.36z" stroke-linejoin="round"/></defs><use xlink:href="#p" fill="#09757a" stroke="#097d9b" stroke-width="5.76"/><defs><path id="q" d="M261.49 1365.34l-1.47.63-.41-1.15-.73-1.88-3.24-16.59-2.08-12.31-3.97-18.26-2.92-13.46-.11-.84-2.5-18.88-1.46-5.22-.21-1.15-.21-1.56 1.78-5.01-7-34.75 1.88-3.02-3.86-2.4-1.98-10.65.21-22.64v-4.8l-.94-4.49-.84-4.38-.2-7.41.52-15.75-7.41-12.21.42-4.91-3.24-21.28-1.77-11.17-7.72-.41-.73-5.22-1.46-9.71-.63-4.17-.63-3.96-.31-1.88-.63-3.45-.31-2.29-2.09-13.46-.52-3.03-.62-4.07-.73-4.8-.42-2.81-.63-4.28-1.56-9.71-.21-1.46-.21-1.56-.52-3.03-.11-.73-.62-3.55-.94-6.78-.84-5.32-.1-.63-.1-.52-.11-.42-1.88-11.89-1.14-7.62-.53-2.82-.21-1.25-.2-1.98 10.33-1.67 3.54-.42.53.21 1.98-.73-.21-.73.52-1.56 1.15-1.46 1.25-1.57.31-1.98.32-1.67.31-1.05.31-.52.63-.31h.52l.42.21 2.5 1.15 2.3.62 3.44 1.25 2.19.11 1.15.1 2.71.32v5.32l10.33-2.09 6.47-.83 1.99-.73 1.77-2.72.73-1.25 1.46-1.88 1.77-2.4 1.78-3.44.31-.63.31-3.75-.62-3.97-1.57-4.49-.73-1.98-1.46-4.07-1.35-2.29.52.1 1.35.21h7.2l.42 1.67 3.03 9.29.31 1.56.21.94-.42 5.53.1 4.8 12.42-.42 5.43-.1 3.55-.11 1.46-.2v2.19l4.27-3.34 3.34-.63 1.99.21 2.6.52 2.61.94 1.88.73 1.57.84.21.41.52.42 1.67.52h.94l.73-.1 10.74-1.46 5.43-.52 5.22-.84 5.32-.83 5.01-.73 5.32-.73 5.11-.84 4.7-.42 3.44-.31 2.82-.42 2.81-.52 6.79-1.56.83-.21 8.14-1.46 2.3-.73 4.48-.73 5.43-.94 5.11-.84h.42l4.8-.83 6.78-1.15 6.78-1.15 4.7-.73 4.59-.73-3.97-24.31 9.19-1.46 3.96 24.21 9.6-1.57 9.81-1.56 4.7-.84 4.79-.83 9.5-1.46 9.6-1.67 9.39-1.57 8.97-1.46.73-.1 7.31-1.26 1.56-.2 7.31-1.26.73-.1-.21-1.04-1.15-6.47.11-.84 1.04-3.02.21-.94.31-.73 2.71 1.14 3.87 1.78 1.46.62.83.32 1.46.62 1.78.84 5.73 2.5 1.99.94 1.25-3.34-.31-1.98.31-.84.94-3.13 1.25-2.5 2.5-2.71 1.15-1.05 1.67-1.14 1.36-.73 2.61-1.26 4.8-1.25 3.13-.73 7.3-1.36 2.19-.41 1.46-.21 1.78-.21h1.87l1.88.21 1.67.31 1.46.31.73.21.73.32.94.41 5.64 2.82 3.75 1.88.63.21 6.99 3.54 6.16 3.14.83-.53 1.57-.62.73-.52 6.99-1.15 10.54-1.88 7.51-1.25 2.92-.63.63-.1 9.39-1.67 2.61-.42 2.08-.31 2.93-.63 3.54-.62h.84l2.5-.32 4.91-.83 1.98-.32 1.98-.31 4.07-.83 7.72-1.26 6.79-1.04 2.19-.42 1.56-.31 2.92-.52.32 2.09.31 2.81.52 3.45.63 3.54.31 2.82.21 1.46.21 1.57.41 3.96.21 1.46 4.18 24 2.81 14.92 1.67 9.29.94 5.95 2.19 13.35.53 3.13.1 1.36.21 1.15-.11.62v.84l-.1 1.46.1 1.67.11 1.04.31 3.03.42 2.29.31 1.99.21 1.14.31 1.47.53 3.96.94 6.99 1.14 6.68 1.15 6.89.21.73.31 1.88.63 3.96 3.96 24.31 3.66 21.91 5.21 31.31 2.72 15.86.31 1.88.31 1.87 2.51 12 1.46 8.14 1.35 8.14.21.84.32 1.77 1.87 7.62.21.62.11.73.41 2.3.32 1.56.21 1.05.1.94.31 2.19.84 8.87.21 1.67.52 4.48.52 4.07 1.15 6.58 1.15 7.09.1 1.25.31 1.26.11.73.21.62.2.94.21 1.05.42 1.56.94 3.65.52 2.09.21.73.1.52.21.63.21.94.11.41.2.94.32 1.26.31 1.46.73 3.23.52 2.51.11.41.41 2.09.63 1.77.21.73.1.73.11.63.21.94.31 1.98.94 6.16.31 1.35.21 1.47.42 1.67.31.93.84 2.61.41 1.25.42.84.52 1.04.73 1.15-.41.11-1.15.1-.63.1-.83.11-1.36.31-1.36.21-1.46.21-.52.1h-.42l-2.08.32.41 1.67.11.62.1.42-.94-.21-.41.42-1.15.1h-7.62l-.62.11-5.43.83-11.9 1.98-29.94 5.12-10.54 1.98-10.23 1.67-4.38.73-35.37 3.55-4.49 2.29-.1.11-.11.1-4.38 1.77-6.47 2.61-2.19.84-2.92.52-3.34.63-1.88-1.26-1.04-.52-2.92-1.98-1.05-.63-.62-.52-4.07-2.82-4.07-2.92-.52-.41-2.4-1.78-1.15-1.04-.63-.42-1.88-1.46.21 1.15.21 1.67.52 2.92.32 2.19.41 2.5.84 4.8.21 1.26.1 1.04-12.31 1.36-3.24.41-1.25.11-1.67.21-4.8.73-11.48 1.77-11.99 1.77-7.83 1.15-19.41 2.72-.42.1-9.8 1.36-25.88 5.32-41.22 4.8-1.04.1-12 2.09-3.13.52-22.33 3.76-18.47 3.02-1.77.32-.52.2-46.65 8.35-69.38 12z" stroke-linejoin="round"/></defs><use xlink:href="#q" fill="#09757a" stroke="#097d9b" stroke-width="5.76"/><defs><path id="r" d="M1866.08 1771.45l-6.36.83-3.55-5.32-6.99-10.95-.73-1.05-.31-.73-.21-.73-.11-.62-.1-.42v-.52l-.94-.42-.63-.52-.83-1.05-.11-.1-.41-.73-1.67-2.61-2.4-3.65-3.03-4.7-1.88-2.92-.94-1.35-.2-.42-.53-.84-.73-.31-1.46-1.98-1.67-2.3-1.14-1.56h-.63l-.21-1.15-1.88-2.61-.41-.63-2.09-2.92-1.25-2.08-.73-.94-.73-1.26-.94-1.56-1.05-1.57-.94-1.67-.52-.83-.21-.73-.31-1.15-.83-2.5-.94-1.36-.73-.42-5.22-8.03-3.44-5.32-3.66-5.53-4.59 3.54-.83.63-12.84-19.82-3.44-5.33-6.47-9.91 4.28-3.75-.73-.74-.42-.41-.52-.84-2.3-3.44-6.67-10.33-13.57-20.87-3.02-4.7-2.4-3.86-3.13-4.8-.53-.73-1.14-1.77-1.47-2.3-3.02-4.69-.21-.31-1.25-1.78-.94-1.35-1.88-2.61-3.96-5.95-2.09-3.03-.52-.83-.63-1.04-.21-.63-.31-.73-.31-.73-.21-.73-.21-.52-.31-1.46-.32-1.57-.73-4.49-1.15-6.88-.93-5.64-.32-1.77-4.17-25.88-.11-1.15-3.44-20.97-.52-3.76-1.15-6.57-1.35-8.97-.42-2.3v-.42l-.32-2.29-.1-1.05-.21-1.35-.1-1.05-.11-1.14-.1-.73v-.63l-.63-1.67.32-.21.52-.31-.11-.42v-.94l.21-.52.11-.1.31-.73.52-.84.42-.62.94-1.15.21-.21 1.35-1.36.84-.83.73-.73 1.67-1.36.94-.73.94-.73.31-.31.31-.32.42-.31 3.76-2.92.52-.42.41-.21.32-.31 25.56-19.41 5.95-4.59.52-.42 15.03-11.37 3.65-2.92 14.61-10.85.21-1.36 3.86-2.19 10.43-8.04 10.12-7.61 1.78-1.36 6.15-5.11 14.82-10.85 5.22-4.07 2.08-1.57 2.72-2.09 3.96-2.6 4.9-3.76 8.77-6.47.21.52.31.52.31.42.21-.42 2.19-2.92.63-.83 2.61-1.78.63-.52 3.33-2.5 2.93-2.51 5.42-4.17 4.91-3.86 3.65-2.71 1.98-1.57 2.19-1.67 4.18-3.13 1.14-1.04 2.3-1.78 5.22-4.07 2.81-2.19 3.34-2.61 1.05-.83 1.04 2.4-1.04.73-2.82 2.19-2.51 1.98.84 1.46.31.63v5.11l.11 6.26v11.69l.1.52-.1 5.53 5 .21 4.6.31 9.39.53h1.04l-.1 12.31 2.4-1.67.73-.52.52-.11.31.11.21.21 8.97 17.11 1.78 3.34 10.95 20.14-.94 3.65-1.35 3.75-.63 1.15-1.04 1.57-2.3 2.29 5.12 9.5 1.46 2.61 3.75 6.88 1.98 3.55 1.36 2.51 1.88 3.54.94 1.78.62 1.25 2.3 4.38 3.86 7.1 2.61 4.8 7.2 13.25 2.29 4.38 2.51 4.49.83.62.42.32.21.1h.52l.21-.1.52-.32 1.05-.73 1.77-1.25.52-.42.42-.1 1.88-.42 2.71-1.77 1.98-1.25.11.52.31.62.21.42.52.52-1.77 1.15 6.78 11.58 10.64 13.25-3.96 2.61-8.98 5.74 6.79 12.63.62 1.25 9.29-6.57 5.22 9.7 5 9.29 5.01 9.18 6.47 11.89 8.66 16.07 11.17 20.98 5.63 10.22 4.8-3.23.84 1.77 5.42 10.12 1.25 2.51.21.41v1.05l-.21.52 3.97 1.77 3.44 1.46 1.88.94 2.09.94 6.68 2.92 1.46.73-2.2 2.3-2.92 1.77-.62.21-5.22.84-1.25.52-7.62 5.22-5.11 3.44-3.76-6.89-1.35-2.5-5.12 3.23-8.03 5.12-3.86 2.6-3.86 2.61-3.86 2.51-3.76 2.5-2.4 1.88-3.97 2.61-5-9.39-4.8-8.98-.32-.62-6.05 3.96-3.55 2.3-5.32 3.55-2.61 1.67-2.08 1.35-.94.63.31.62 3.86 7.1 5.64 10.33.41.73-5.01 3.44-5.32 3.55-5.32 3.55-4.07 2.61-10.22-18.99-3.86 2.61-1.05.73-1.98 1.46-1.04.83 10.12 18.58-4.07 2.71-5.22 3.34-5.11 3.44-9.91-18.16-5.43 3.13 10.02 18.58-5.12 3.34-5.32.94-1.15 1.04-9.49 1.67-1.98 8.35-6.26 3.75-1.78 1.15-2.29-1.88-2.93-2.81-3.65-3.45-1.77-1.67-1.25-1.35-.63-.73-.52-.53-.42-.52-.31-.42-.42-.52-.52-.73-.52-.73-.42-.62-.42-.42-.41-.63-2.93 1.99-.73.52-.73.52-.73.42-3.44 2.29 1.36 1.57.52.73 1.15 1.46.93 1.04 2.09 2.3 1.57 1.98.94.94 1.25 1.67 4.07 5.01.41.52.74.94-3.66 2.61-3.23 1.98-3.76 2.61-4.8-8.14-5.95-10.44-3.13 1.99-.62.41-.42.32 2.71 4.59 1.46 2.5.94 1.78 2.72 4.48 1.25 1.88 1.15 1.98.41.63.42.52-4.17 2.71-5.01 3.13-4.8 3.24-3.86 2.4-10.44-16.9-3.23 2.92 5.43 9.39 4.48 7.2-3.75 2.4-3.76 2.4-3.44 2.29-3.03 1.88-5.95 3.97-5.53 3.54 2.92 4.18-.41.42-.21.2-.42.11-.42.1-4.07.63z" stroke-linejoin="round"/></defs><use xlink:href="#r" fill="#09757a" stroke="#097d9b" stroke-width="5.76"/><defs><path id="s" d="M2186 1338.21l-.73-1.15-1.04-1.98-.94-1.77-2.82-5.95-7.51-15.96-5.95-12.73-1.25-2.72-2.92-6.26-1.67-3.65-.32-.52-1.14-2.51-1.46-3.23-7.52-16.38-.94-2.09-3.75-8.24-2.61-5.53-1.25-2.72-.52-1.04-.42-.83-.31-.73-1.05 1.46-1.35 1.67-2.82-1.15-4.49-.73-3.96-2.51-2.09 6.06-3.76-6.26-8.14-13.15-11.16-18.16-1.04-1.88-6.58-10.85-.94-1.56-.73-1.15-5.21-8.56-3.03-4.8-1.15-1.46-3.23 2.4-.84.63-.73.42-2.92-4.91-.73-1.25-1.98-3.13-3.24-5.11-1.88-3.03-1.14-1.88-3.66-5.95-3.02-4.9-2.71-4.49-.73-1.14-2.82-4.49-2.61-4.28-.84-1.46-3.13-5.01-.41-.73-2.72-4.59-2.92-4.49-.31-.52-2.71-4.38-2.72-4.38-.31-.53-2.61-4.17-2.82-4.59-.31-.63-2.82-4.59-3.02-5.01-3.13-4.9-1.57-2.5-1.56-2.4-3.03-5.12-3.13-5.01-3.13-5-2.82-4.49-.52-.94-1.35-2.09-.94-1.67-.32-.52-2.71-4.38-2.61-4.28-3.02-4.9-.63-1.05-3.03-4.9-3.02-5.01-2.82-4.69-2.71-4.39-2.92-4.69-2.82-4.8-3.44-5.53-4.28-6.99-3.13-5.12-2.92-4.9-3.34-5.22-.94-1.56-1.05-1.78-4.07-6.78-4.17-6.68-1.15-1.98-3.86-6.36-.31-.53-3.34-5.32-3.03-4.9-2.81-4.59-.84-1.26-.62-.83-.21-.21-.73-1.15-2.51-1.14-1.04-1.15-1.15-1.15-.94-1.15-.94-1.35-3.02-4.8-2.92-4.7-3.24-5.32-2.82-4.7-3.34-5.42-2.92-4.7-1.77-3.02-1.46-2.51 1.67-1.25.42-.42 3.75-3.75 14.4-10.75 12.84-7.93-3.34-5.32-.63-1.15-5.95-9.71 10.33-8.55 1.36-1.04 1.98-1.05 1.78-.83 1.35-.52 11.79 17.11 2.51 3.65 22.85 31.82 2.29 3.14 18.58 25.66 1.56 2.09 1.78 2.5 1.77 2.51 4.07 5.84 12 14.82 3.96 5.74 5.12 7.51 6.78 8.97 6.68 9.08 14.5-18.68 4.59-5.73 2.09-2.82 3.03-3.65 2.81 4.48 8.25 13.36 4.17 6.78 3.44 5.32 6.89 11.06 4.38 7.1 12.31 19.93 1.88 2.92.21.42.52.83.73 1.15 1.57 2.5 13.56 21.81 1.26 1.99 3.75 6.05 1.25 2.08.53.94.62 1.46.94 1.46 1.15.94 1.15 1.67 3.86-12.83 3.54-9.39 1.47-3.97 5.94-15.23 2.82-10.23 6.68-24.62v-.32l.1-1.25 1.46-1.46.32-.52.73-.42.21-.31-.94-1.57 1.56-5.11.63-1.88 3.55-6.78 9.18-28.28 3.55-11.47 8.24-27.97 3.13-8.35-.73-1.14-1.25-2.19-.32-.74-.52-.83-3.86-6.16-.1-1.14-1.36-2.2 2.19-1.77 2.09-2.71 4.49-5.43 21.18-69.8 1.25-4.07.62 6.26 1.26 6.68-.21 10.12.52 8.03.52-1.77 20.56-67.3 3.65-15.66.1-6.57.42.73.31.63.32 1.04.62 1.98.42-1.56.31-1.05.42-1.04.42-.63.21-.2.31-.32.21-.21.31-.31.94-.42.94.42 21.39-3.55 3.34 27.13 6.99 55.51 1.77 12.84 3.66-.84 4.9-.73 8.14-1.56 8.87-1.46 5.11-.73 3.24-.73 8.55-1.15 8.56-1.57.21-.52.1-.52v-1.57l-.83-3.44-3.76-23.16 10.96-1.67.1 1.25.73 4.59 1.57 9.6 11.89-1.77 3.97-.73v9.6l-.11 4.38-4.69.73-8.87 1.46-3.03.63.84 5.21.83 5.64 1.78 10.54.73 4.8 4.38 26.92 5.95 36.1.83 5.11-8.56 1.25-.1 5.43.73 5.32 1.36 10.23 4.17-.63 4.17-.73 3.24 23.27.83 6.26-1.35 2.09 6.68 1.88 3.86 4.38 3.86 3.75 1.77 2.82 1.46 2.3 1.98 3.23.73 1.36 2.09 3.44 4.17 6.89 6.47 10.64 5.53 9.08 5.64 9.18 5.53 9.08 6.26 10.54.52.94 1.15 1.98 2.09 3.55 4.9 7.93 5.01-3.55 3.23-2.5 7.83 12.83 7.93 12.83-4.9 3.66-3.34 2.4 6.78 11.27 1.56 2.71 1.15 1.88 1.67 2.92.84 1.25.93 1.67.84 1.25.83 1.36 1.15 1.98 2.19 3.44 2.61 3.97.52 1.04.21 2.19.63 1.36.62 1.46-4.9 3.76-7.1 5.11-3.86 2.71-3.86 2.72-3.75 2.81-4.07 3.03-3.34 2.71-6.78 5.32-4.91 3.55-3.44 2.61-2.19 1.67-12.52 9.29-3.34 2.61-.63.52-2.4 1.67-1.36 1.04-5.21 4.17-15.65 11.59-5.74 4.27-2.92 2.3-.84.63-2.61 1.87-2.5 1.99-16.7 12-8.76 6.57-4.38 3.23-3.86 2.93-3.76 2.92-3.55 3.02-3.76 2.82-3.86 2.82-4.17 2.71-3.76 2.92-8.45 6.68-3.86 2.92-4.07 3.03-8.35 6.26-3.54 2.61-3.55 2.71-5.22 3.86-3.44 2.71-1.98-3.23-.42-.83-3.03-5.01-3.55 2.71 2.51 4.17-2.09 1.57-.21-.11-.31-.31-6.99 4.91.52 1.04.84 3.02.73 2.61-4.28 3.03-4.28 3.76-.42.41-.31.42-.31.42-.73.21-.73.41-6.16 4.39-5.63 4.17-1.88 1.36-.63.41-1.15.63-.73.42-1.04.41-.52.21-6.58 3.03-1.25.63-1.46.93-.94.53-.94-1.46-23.27 16.17-.1.52-.1.31-.11.32-.1.21-.11.31-.1.21-.32.31-.41.31-.52.42-.84.63.52 1.46-.31.21-1.88 1.35z" stroke-linejoin="round"/></defs><use xlink:href="#s" fill="#09757a" stroke="#097d9b" stroke-width="5.76"/><defs><path id="t" d="M2707.3 1451.01l-.73.94-.21.94-.62.94-1.05 1.14-.93.84-.74 1.04-.93 1.05-.84 1.04-.63.73-1.14 1.25-.73.84-.84.73-.62.41-.73.84-.63.83-.52.52-.52.84-.84 1.04-.42 1.05-.52.83-.73.73-.83.84-.94.94-.63.83-.52.63-.73.73-.73.73-.94.73-1.15 1.15-1.04 1.25-1.67 1.25-1.46 1.15-1.67 1.77-1.67-2.5-1.25-.63-3.86-5.63-1.99-3.45-4.17-5.74-1.25-1.87-1.78-2.51-1.77-2.82 2.19-1.87 8.14-7.1 1.46-1.15.52-.41.63-.73-3.86-5.95-6.78-11.17-6.06 4.8-6.36 4.59-1.46-2.61-11.17-18.26 2.72-2.29 3.54-2.71-12.62-20.87-6.37 4.8-11.27-18.58-1.46-2.19-5.63-9.28-3.03-5.43-.52-1.67-1.88-3.76-1.67-2.92-1.87-3.13-3.13-4.69-.94-1.78-1.36-.73-9.29-15.02-.83-1.25-17.11-28.39 7.09-5.32-16.8-27.75-7.2 5.21-.41-1.56-.21-.21-5.12-9.81-4.07-7.2-2.71-4.8-.42-.94-.41-.94 2.92-2.29 2.29-1.78-3.13-4.9-2.61-4.8-10.33-17.22-.83-1.25-4.8 3.76-9.6-15.76-10.96-18.26-.52-.83-4.59-7.72-7.93-12.94-2.4-3.97 4.91-3.55-5.74-9.7-4.07-6.37-.21-.52-.21-1.14-.21-.73-.31-.42-1.36-2.09-1.15-1.77 1.99-6.79 4.69-3.23.73-.63 1.99-1.35.62-.52 4.07-3.13 4.17-3.14 4.07-3.13-7.2-12.2v-.42l-.1-.21.1-.31.11-.42.31-1.25 1.36-4.49-2.3-3.96 2.82-2.2.52-.31.42-.1h.31l.21.1.1.21 11.8 19.3.31-.31 4.07-3.02 4.28-3.14 4.38-3.23 3.86-3.13 3.86-3.23 3.76-3.03 3.86-3.24 3.75-3.02 3.97-3.24 3.75-3.13 3.97-3.13 3.76-3.13 3.96-3.13 3.76-3.02 3.96-3.24 3.86-3.02 3.55-3.03-19.62-29.95 3.66-3.02 3.86-3.24 3.86-3.44 3.44-2.71 4.28-3.24 19.62 30.05 3.86-3.02 3.75-3.03 3.97-3.03 4.28-3.44 3.96-3.02.94-.84.52-.52.42-.42.42-.52.41-.63.32-.41.31-.42.42-.42.62-.73 1.46-1.56 1.15-1.15 2.09-1.78 1.15-1.04 3.86-3.23 3.96-3.24 4.39-3.44 4.38-3.55 2.71-2.19 2.09-1.57 9.18-6.78-2.5-4.17 4.59-3.55 4.07-2.92 3.86-3.44 4.38-3.03 2.29 3.65 4.28-3.44 3.86-3.13 3.86-3.13 3.87-3.13 3.75-3.13 2.51-1.99 1.25-1.14 3.86-3.03 3.75-3.03 3.76-2.92 5.95-4.48-2.4-4.07 2.61-2.09 1.77-1.36 4.49-3.44 2.61 4.07 3.54-2.82 3.55-2.71 3.55-2.61 6.05-4.59 2.3-1.67 7.72-5.74 7.2-5.32 3.44-2.61 7.83-5.84 10.12-7.52 2.61-1.87 2.4-1.78 1.88-1.35.41-.32.84-.41.42-.21 5.42-1.67 9.39-3.03 3.86-1.25 3.13-1.04 3.13-1.05 1.46-.62 6.16 2.29 2.71 1.05 8.14 3.13 1.57.62 3.23 1.46 1.88.73 2.3.94 4.9 1.88 4.07 1.67 2.71 1.04.94.42.31.11.63.31.52.31.84.42.62.42.52.31.74.42 1.25.94 1.56 1.14.63.63.73.63.42.41 1.77 1.88.63.73 1.56 1.67 8.45 9.5 3.45 3.75 1.98 2.4 1.04 1.36.42.42.31.52.42.62 1.46 2.4 2.4 3.97-.52.21-13.98 11.27-5.53 6.57-16.18 12.21-.62.83-.84.63-.62.42-1.15.52 4.38 2.5 2.19 1.05 5.43-6.26.73-.84.73-.73.63-.73.73-.63.52-.52.62-.62.63-.63.73-.63.83-.62 2.09-1.67.73-.42 1.05-.73 1.56-.94.73-.31.52-.31.63-.32.62-.31.53-.21 1.67-.73.52-.21.73-.31 1.04-.42 1.15-.42 1.77-.41 6.37-1.26 2.29-.41 6.68-1.36 3.03 4.91 22.43 37.35 2.71 4.49 4.91 8.24 5.84 9.6 3.24 5.53-7.62 5.84-2.3 1.78-17.53 12.94-14.5 11.06 1.04 1.35 4.07 8.98 11.38 20.24 13.77 21.91-4.17 3.24 1.98 2.4 17.53 22.01 3.86 5.64.31-.32 1.46-.83 1.78-.73 1.88-.73 4.38-1.67.83-.31.84-.32 7.09-2.61 6.37-2.29 6.05-2.09 19.72 29.11v.53l.1.83.11.84.31 1.14.32 1.25.41 1.05.42.83.83 1.67 1.57 2.61 1.57 2.51.62 1.14 2.19 3.55 1.78 2.82 1.98 3.34.52.94 1.46 2.29 1.98 3.13.63.84 1.15 1.88 1.35 2.29 1.26 2.19-10.75 8.14-1.04.73-.94.63-5.85 4.38-3.02 2.19-.42.31-1.67 1.26-8.45 6.36 19.51 34.96 6.89 12.41.31 21.39.21 2.3.31 1.56.94 1.26 1.15 1.04 1.46 1.04 1.67.94 1.88.84 1.98.52 3.34.31 4.07-1.77-4.49-7.2-1.35-2.3-1.05-1.67-.94-1.46-.31-.83-.63-.94-.83-.63-.84-.52-.94-.42-.62-.1-.73-.1-.52-.21-.94-.11-.73-.42-.52-.41-.32-.63.21-.94.73-.42.94-.31h.94l1.04-.1h2.09l1.46-.11 1.04.42 1.05.21.94.52.94.52 1.04.84 1.25 1.46 1.78 2.61 1.04 1.98 1.15 2.09 1.46 2.5 2.29 3.97 3.13 5.42 6.37 10.33 3.96 6.16 3.13 4.69 10.02-2.92 4.49-1.25 1.04-.31.73-.73 13.15 22.43-9.81.94-93.6 9.08-11.79-20.14-.94-3.44.84-1.05-2.61 1.15-3.86.52-1.88-.21-.42.21-.52-.21-1.04-.31-1.15-.63-6.26 1.88-8.03 1.15-5.12-8.45-2.29-3.76-8.04-12.52-.62-.31-.52-.32-.74.11-1.14.62-1.46.73-2.51 1.15-2.08.94-2.3 1.15-1.57.63-.83.62 12.21 19.93-5.95.31-12.42-18.88-.62-.73-1.05.31-.94-.52-1.25-1.67-1.15-1.88-.93 1.04-.63.84-.94.73-1.04.73-.84-.83-1.04-1.15-3.65 3.02 4.38 7.2 3.76 5.74 2.08 3.45 1.25 2.19.63 1.14.42 1.47-.63.73-1.25 1.14-1.46.63-.94.63-1.15-.32-.83-.73-.94-.83-.84.21-1.04.83-1.04.63-1.46.83-2.09 1.25-1.57.84-2.5 1.67-.52-.11-.32-.62-.52-.63-.94-1.46-1.14.84.31 1.04.52.52.52.84.73.93.42 1.15-.31.84v.62l.41.53-12.1 7.4-4.8.63-1.36 1.25-1.35.94-1.36 1.25-1.67 1.15-1.25.63-1.67.31-1.88 1.98-.52.63.63.94-3.34 2.08-1.67 1.05-3.76 2.19-2.71 1.15-1.46.83-1.67 1.04-2.92 2.3-1.99 1.36-1.14 1.14-1.05 1.15-.31.63h-1.88l-.42.62-.2.74-.42.41-.42.42-.73.42-.63.1-.62-.1-.52-.21-.63.1-.31.63-.63.31h-.83l-1.15-.21-.73.21-.63.52-.73.73-.41.94-.84.63-1.25.83-2.09.84-1.15.73-.62.42-2.3 1.35-2.61-3.96-5.32-8.25-9.91-15.13-3.65-5.53-.32-.41-.52-.52-.62-.42-.63-.31-.94-.32-.42-.1-.52.1h-.52l-.63.11-.41.1-.42.21-.42.31-.42.42-.41.42-.32.41-.41.84-.21.42-.11.41-.1.53-.1.52v.52l.1.73.1.73.11.42.31.62 4.49 6.68 8.55 13.25 7.52 11.69-.21.73-.73.94-1.88.83-3.76 1.67-3.44 1.88-1.25.73-1.36.52-1.35.21-1.15.52-1.57.63-1.15.52-.62.21-1.05.31-.62.21-.52-.73-.32-.62-.41-.53-.42.11-.31.42.2.62.63.63.11.62-.21.53-.84.52-1.25.52h-.52l-.52-.52-.53-1.05-.41-.52h-.32l-.2.52.2.63.42.63.42.41.1.63-.62.52-.94.52-2.51 1.26-1.46.83-1.04.52-.94.73-.52.42v1.25l-.31.84-.63.52-.31.21-.63.21-.42-.21-.21-.52.21-.42.42-.32-.31-.62-.32-.31-.73-.32-1.25-.31-1.04-.31-.94-.42h-.84l-.73.73-.62.73-.42.52-.52.73.1.73.32.63.41.52.21.42-.52.62-.42.11-.62.31-.84 1.04-.52.84-.62.83-.94.63-.94 1.15-.63.83-.73.73-.52.42h-.42l-.31-.42-.21-.31-.1-.31-.11-.42-.31-.63-.52.11-.73.42-.63.52-.73.83-.52.84-.32.73-.31.94-.42 1.35-.1 1.15-.1 1.15-.11 1.04-.52.52-.52.63-.63.73-.83.94-.63.73-.52.31-.52-.42-.42-.93-.31-.53-.21-.41-.31-.32-.42-.52-.63.21-.73.63-.52.41-.52.32-.21.62v.32l-.63.41-.73.42-.83.73-1.05.84-1.04.73-1.04.73-.63.52-.21.42.21.52.31.73.63 1.04.11.52-.11.53-.63.62-.73.42h-.62l-.42-.21-.42-.52-.41-.73-.32-.52-.62-.21-.42.21-.42.41-.31.53-.52.52-.73.41-1.36.53-.42.52-.31.73.1 1.25.11 1.15.1.73v.83l.21.73.42.63.52.73.11.83-.11.84-.31.73-.42.63-.52.31-.21.52-.21.42-.52.31-.63.42-.52.62-.83 1.26-1.46 1.98-.63.94-4.8 5.74-.83.83-.94.73-.53.73-.2.63-.73 1.04-1.26 1.25-.73.84-.73.94z" stroke-linejoin="round"/></defs><use xlink:href="#t" fill="#09757a" stroke="#097d9b" stroke-width="5.76"/><defs><path id="u" d="M2176.4 1731.9l-2.29.42-4.39-1.88-5.73-6.57-3.34-4.07-3.13-4.38-6.06 3.96-11.89 7.83-5.01-9.39-2.5-4.7-2.51-4.69-3.13-5.43-1.88-.21 1.78-3.76-1.78-.94-2.08 1.05-3.13 1.46-6.06 2.92-.62-1.15-.63-1.04-.52-.94-.73-1.36-1.04-2.08-.53-.94-4.69-8.87-3.55-6.37-1.67-3.34 5.22-3.33 2.29-1.57-2.4-4.38v-.31l10.33-6.89.11-.21-2.4-4.7 3.65-2.29-2.5-4.7-2.51-4.69-5.11-9.39-3.97-6.89 2.2-2.3-1.46-.73-6.68-2.92-2.09-.94-1.88-.94-3.44-1.46-3.97-1.77.21-.52v-1.05l-.21-.41-1.25-2.51-5.42-10.12-.84-1.77-4.8 3.23-5.63-10.22-11.17-20.98-8.66-16.07-6.47-11.89-5.01-9.18-5-9.29-5.22-9.7-9.29 6.57-.62-1.25-6.79-12.63 8.98-5.74 3.96-2.61-10.64-13.25-6.78-11.58 1.77-1.15-.52-.52-.21-.42-.31-.62-.11-.52 3.55-2.4 2.92-1.88 7.62-5.01 3.86-2.5 5.63-3.76 1.36-.94 1.98-1.25 2.4-1.67.73-.42 1.26-.83.62-.42 1.04-.73 1.26-.84.52-.31 1.46-.94 4.07-2.71 2.09-1.46.83-.52 1.04-.73.73-.42.53-.31.62-.42 1.78-1.25 1.77-1.15 1.88-1.15 4.07-2.71 3.65-2.4 3.23-2.09 5.12-3.44 2.08-1.36 3.97-2.71 3.86-2.61 5.63-3.65.42-.32 1.98-1.35-5.84-11.06 6.57-5.74 7.73-6.47 3.23-2.61 1.15 1.67.73 1.04.83 1.26.63 1.25.21.21 1.25 2.4 1.46 2.6.52 1.05 1.25-.73-1.46-2.72-1.25-2.19-1.98-3.02 15.34-13.46 1.46 2.5 3.96 6.57.94-.83 1.15-.83 2.71-2.61.73-.63 5.01-5.11 1.67-1.46 1.78-1.88 3.54-3.34 1.36-1.46 3.13-3.03 1.57-1.46 2.6-2.4 2.2-1.77 5.32-4.07 2.4-1.77 1.67-1.26 1.56-1.14 4.91-3.55 6.36-4.8 4.28-3.24 1.77-1.35 3.34-2.51 1.88-1.35.31-.21 3.13-2.51.94-.62 1.36-.94v.94l.21.52.31.31.52.52-.83.63-1.46 1.04 1.35 3.03-.62-.42-.63-.21-.52-.1-.52.1-.63.21-1.04.73-1.88 1.46 1.04 1.67 1.57 2.72 2.92 4.69 5.11 8.56 7.72 12.62.73 1.15 6.58 10.85 5.11 8.45 1.67 2.72 7.83 12.94.83 1.35 3.13 5.11 4.7 7.62 3.02 5.11.63.94 2.19 3.66 9.91 16.17 5.22 8.66.73 1.15 1.04 1.67.53.94 12.83 21.07 2.92 4.8 2.51 4.18 4.59 7.61.83 1.26 1.46 2.4 2.3 3.86.31.41 1.77 3.03 3.97 6.37 2.4 4.06 1.36 2.4.31.63 1.46 3.03 1.15 2.61.94 2.4.94 2.6.62 2.2.52 1.77.32 1.15.94 3.34.1.83.84 2.61 2.19 9.91.31.94.42 1.67.52 1.98.31 1.05.11.52.62 2.19.31.83.53 1.67.83 2.4.52 1.26.42 1.14.84 1.88.2.63.11 1.98-.31 5.63-1.57 1.26-1.67 1.04-1.56 1.25-1.67 1.15.83 1.46.63 1.15.83 1.46.63 1.04 2.08 3.76-1.04.73-3.96 2.61-.42.31-.21.73-.31 1.15-.32 1.46-.31 1.04-.83 1.26-1.26 1.04-1.46 1.36-1.46.52-.83.1-.73.11-.52-.42-.63-.52-.94-.73-.73-.32-.73-.1-.63.1-.73.42-4.28 4.7-.93.94-.73.62-11.59 10.02-9.7 8.87-1.04.94-3.97 3.55-2.09 1.77-3.96 3.55-12.73 10.95-3.65 3.45-.73.52-6.26 5.42-7.2 6.06-4.18 3.75-.94.73-4.69 4.59 1.98.94-.83.84-.73.62-.74.53-5.21 3.33-3.65 1.99-9.19 6.36-1.04.73-1.25.84-2.51 1.56-1.46.94-5.42 3.34-3.86 2.5-4.39 2.93.32.83.41 2.19.21 1.36-.52 1.15-.52.62 2.71 4.8-2.5 1.67-1.25.94-.53.11.73.52.94 1.14 1.57 2.2.73.73.52 1.14 1.88 3.86.63.94 2.4 3.45-.94.21-1.46.31-2.09.42-.94.1-1.46.31-1.36.21z" stroke-linejoin="round"/></defs><use xlink:href="#u" fill="#004249" stroke="#00465f" stroke-width="5.76"/><defs><path id="v" d="M2494.34 1736.49l-7.72-10.85-19.93-25.67-.94-1.46-.94-1.67-1.88-3.02-1.04-1.67-3.55-5.95-2.3-2.82-18.67 13.78-2.82 2.08-4.28 3.24-2.4 1.88-15.65 14.81-3.44-5.32-1.88-3.03-.94-1.56 9.18-7.62.73-.52-1.36-2.4 6.16-5.63-4.38-7.31-16.38 13.78-.32-1.47-2.19 2.2-1.25.41.83-.94.74-1.04.62-1.15.52-.94.52-1.04.32-.94.62-1.77.21-.84-.52.21-.42.21-.52.1h-.42l-.31-.1-.31-.1-.84-.32-.62-.21-.94-.41.1-.84.11-1.56v-1.36l-.21-1.36-.21-.93-.31-1.05-.53-1.25-.31-.63-.42-.83-.83-1.46-.84-1.57-.83-1.25-3.55 1.15-2.4-3.55-1.88-2.61-9.28-15.55-2.19-3.65-1.15-1.77 2.71-2.19.31-.32.32-.31-4.8-7.51-.21-.31-1.04-1.78-.63-1.04-1.67-2.51-3.86-6.15-1.77-2.92-.63-.94-.31-.52-1.46-2.2-.21-.41-1.57-2.3-.31-.42-.52-.73-.73-.94-.73-.93-.21-.21-1.78-2.19-.2-.21-.32-.32-1.77-1.87-2.4-2.4-2.3-2.09-.52-.42-.42-.31-5.94-5.01-1.88-1.57-.63-.62-.62-.52-1.78-1.57-.52-.42-.63-.52-1.25-1.15-2.4-2.08-3.23-3.24-1.05-1.04-.31-.31-1.88-2.4-1.88-2.4-2.08-3.13-.42-.73-2.3-4.49-1.46-2.92-.2-.63-.84-1.88-.42-1.14-.52-1.26-.83-2.4-.53-1.67-.31-.83-.62-2.19-.11-.52-.31-1.05-.52-1.98-.42-1.67-.31-.94-2.19-9.91-.84-2.61-.1-.83-.94-3.34-.32-1.15-.52-1.77-.62-2.2-.94-2.6-.94-2.4-1.15-2.61-1.46-3.03-.31-.63-1.36-2.4-2.4-4.06-3.97-6.37-1.77-3.03-.31-.41-2.3-3.86-1.46-2.4-.83-1.26-4.59-7.61-2.51-4.18-2.92-4.8-12.83-21.07-.53-.94-1.04-1.67-.73-1.15-5.22-8.66-9.91-16.17-2.19-3.66-.63-.94-3.02-5.11-4.7-7.62-3.13-5.11-.83-1.35-7.83-12.94-1.67-2.72-5.11-8.45-6.58-10.85-.73-1.15-7.72-12.62-5.11-8.56-2.92-4.69-1.57-2.72-1.04-1.67 1.88-1.46 1.04-.73.63-.21.52-.1.52.1.63.21.62.42-1.35-3.03 1.46-1.04.83-.63-.52-.52-.31-.31-.21-.52v-.94l-1.36.94-.94.62-3.13 2.51-.52-1.46.84-.63.52-.42.41-.31.32-.31.1-.21.11-.31.1-.21.11-.32.1-.31.1-.52 23.27-16.17.94 1.46.94-.53 1.46-.93 1.25-.63 6.58-3.03.52-.21 1.04-.41.73-.42 1.15-.63.63-.41 1.88-1.36 5.63-4.17 6.16-4.39.73-.41.73-.21.31-.42.31-.42.42-.41 4.28-3.76 4.28-3.03-.73-2.61-.84-3.02-.52-1.04 6.99-4.91.31.31.21.11 2.09-1.57-2.51-4.17 3.55-2.71 3.03 5.01.42.83 1.98 3.23 3.44-2.71 5.22-3.86 3.55-2.71 3.54-2.61 8.35-6.26 4.07-3.03 3.86-2.92 8.45-6.68 3.76-2.92 4.17-2.71 3.86-2.82 3.76-2.82 3.55-3.02 3.76-2.92 3.86-2.93 4.38-3.23 8.76-6.57 16.7-12 2.5-1.99 2.61-1.87.84-.63 2.92-2.3 5.74-4.27 15.65-11.59 5.21-4.17 1.36-1.04 2.4-1.67.63-.52 3.34-2.61 12.52-9.29 2.19-1.67 3.44-2.61 4.91-3.55 6.78-5.32 3.34-2.71 4.07-3.03 3.75-2.81 3.86-2.72 3.86-2.71 7.1-5.11 4.9-3.76 1.05 2.4 3.02 8.14 1.05-3.55 2.08-7.82 1.15 1.77 1.36 2.09.31.42.21.73.21 1.14.21.52 4.07 6.37 5.74 9.7-4.91 3.55 2.4 3.97 7.93 12.94 4.59 7.72.52.83 10.96 18.26 9.6 15.76 4.8-3.76.83 1.25 10.33 17.22 2.61 4.8 3.13 4.9-2.29 1.78-2.92 2.29.41.94.42.94 2.71 4.8 4.07 7.2 5.12 9.81.21.21.41 1.56 7.2-5.21 16.8 27.75-7.09 5.32 17.11 28.39.83 1.25 9.29 15.02 1.36.73.94 1.78 3.13 4.69 1.87 3.13 1.67 2.92 1.88 3.76.52 1.67 3.03 5.43 5.63 9.28 1.46 2.19 11.27 18.58 6.37-4.8 12.62 20.87-3.54 2.71-2.72 2.29 11.17 18.26 1.46 2.61 6.36-4.59 6.06-4.8 6.78 11.17 3.86 5.95-.63.73-.52.41-1.46 1.15-8.14 7.1-2.19 1.87 1.77 2.82 1.78 2.51 1.25 1.87 4.17 5.74 1.99 3.45 3.86 5.63 1.25.63 1.67 2.5 1.67-1.77 1.46-1.15 1.67-1.25 1.04-1.25 1.15-1.15.94-.73.73-.73.73-.73.52-.63.63-.83.94-.94.83-.84.73-.73.52-.83.42-1.05.84-1.04.52-.84.52-.52.63-.83.73-.84.62-.41.84-.73.73-.84 1.14-1.25.63-.73.84-1.04.93-1.05.74-1.04.93-.84 1.05-1.14.62-.94.21-.94.73-.94.73-.94.73-.84 1.26-1.25.73-1.04.2-.63.53-.73.94-.73.83-.83 4.8-5.74.63-.94 1.46-1.98.83-1.26.52-.62.63-.42.52-.31.21-.42.21-.52.52-.31.42-.63.31-.73.11-.84-.11-.83-.52-.73-.42-.63-.21-.73v-.83l-.1-.73-.11-1.15-.1-1.25.31-.73.42-.52 1.36-.53.73-.41.52-.52.31-.53.42-.41.42-.21.62.21.32.52.41.73.42.52.42.21h.62l.73-.42.63-.62.11-.53-.11-.52-.63-1.04-.31-.73-.21-.52.21-.42.63-.52 1.04-.73 1.04-.73 1.05-.84.83-.73.73-.42.63-.41v-.32l.21-.62.52-.32.52-.41.73-.63.63-.21.42.52.31.32.21.41.31.53.42.93.52.42.52-.31.63-.73.83-.94.63-.73.52-.63.52-.52.11-1.04.1-1.15.1-1.15.42-1.35.31-.94.32-.73.52-.84.73-.83.63-.52.73-.42.52-.11.31.63.11.42.1.31.21.31.31.42h.42l.52-.42.73-.73.63-.83.94-1.15.94-.63.62-.83.52-.84.84-1.04.62-.31.42-.11.52-.62-.21-.42-.41-.52-.32-.63-.1-.73.52-.73.42-.52.62-.73.73-.73h.84l.94.42 1.04.31 1.25.31.73.32.32.31.31.62-.42.32-.21.42.21.52.42.21.63-.21.31-.21.63-.52.31-.84v-1.25l.52-.42.94-.73 1.04-.52 1.46-.83 2.51-1.26.94-.52.62-.52-.1-.63-.42-.41-.42-.63-.2-.63.2-.52h.32l.41.52.53 1.05.52.52h.52l1.25-.52.84-.52.21-.53-.11-.62-.63-.63-.2-.62.31-.42.42-.11.41.53.32.62.52.73.62-.21 1.05-.31.62-.21 1.15-.52 1.57-.63 1.15-.52 1.35-.21 1.36-.52 1.25-.73 3.44-1.88 3.76-1.67 1.88-.83.73-.94.21-.73-7.52-11.69-8.55-13.25-4.49-6.68-.31-.62-.11-.42-.1-.73-.1-.73v-.52l.1-.52.1-.53.11-.41.21-.42.41-.84.32-.41.41-.42.42-.42.42-.31.42-.21.41-.1.63-.11h.52l.52-.1.42.1.94.32.63.31.62.42.52.52.32.41 3.65 5.53 9.91 15.13 5.32 8.25 2.61 3.96 2.3-1.35.62-.42 1.15-.73 2.09-.84 1.25-.83.84-.63.41-.94.73-.73.63-.52.73-.21 1.15.21h.83l.63-.31.31-.63.63-.1.52.21.62.1.63-.1.73-.42.42-.42.42-.41.2-.74.42-.62h1.88l.31-.63 1.05-1.15 1.14-1.14 1.99-1.36 2.92-2.3 1.67-1.04 1.46-.83 2.71-1.15 3.76-2.19 1.67-1.05 3.34-2.08-.63-.94.52-.63 1.88-1.98 1.67-.31 1.25-.63 1.67-1.15 1.36-1.25 1.35-.94 1.36-1.25 4.8-.63 12.1-7.4-.41-.53v-.62l.31-.84-.42-1.15-.73-.93-.52-.84-.52-.52-.31-1.04 1.14-.84.94 1.46.52.63.32.62.52.11 2.5-1.67 1.57-.84 2.09-1.25 1.46-.83 1.04-.63 1.04-.83.84-.21.94.83.83.73 1.15.32.94-.63 1.46-.63 1.25-1.14.63-.73-.42-1.47-.63-1.14-1.25-2.19-2.08-3.45-3.76-5.74-4.38-7.2 3.65-3.02 1.04 1.15.84.83 1.04-.73.94-.73.63-.84.93-1.04 1.15 1.88 1.25 1.67.94.52 1.05-.31.62.73 12.42 18.88 5.95-.31-12.21-19.93.83-.62 1.57-.63 2.3-1.15 2.08-.94 2.51-1.15 1.46-.73 1.14-.62.74-.11.52.32.62.31 8.04 12.52 2.29 3.76 5.12 8.45 8.03-1.15 6.26-1.88 1.15.63 1.04.31.52.21.42-.21 1.88.21 3.86-.52 2.61-1.15-.84 1.05.94 3.44 11.79 20.14 93.6-9.08 9.81-.94-13.15-22.43 9.08-2.51 13.15-3.55 2.92-1.14 16.59-4.18 2.29-.62 5.01-1.26 4.07-1.04 7.62-1.98 3.23-1.15 2.3-2.61 2.4-1.15-.21 1.57.21.73.52.1.73-.1 9.08-3.03.94-.73-2.09-3.86 1.15-.94 2.4 3.66 2.92-1.47 1.77.63 1.36-.1 1.67-.32 1.04-.21 1.57-.31 1.36-.52.62-.42.11-.73-.63-.83-4.49-.11-.83-.52 2.29-2.92 2.51-.1.62-.84-4.9-7.93.1-.31.21-.11h.11l5.95 9.29.83.21 3.23-1.67 4.7 1.46 24-6.68 9.81-3.13 13.67-3.44 3.54-.52 17.01 28.48-5.84 3.76-80.45 29.21 9.18 68.77-25.87 26.29-22.44 22.85-11.69 12.84-39.33 43.61-13.88 15.24-119.06 64.59-90.88 49.35-28.17 15.24-63.55 17.94-28.17 7.93-11.79 3.34-30.78 8.66-75.97 21.39-40.38 11.38-2.5 1.46-37.36 20.14-19.61 10.74z" stroke-linejoin="round"/></defs><use xlink:href="#v" fill="#004249" stroke="#00465f" stroke-width="5.76"/><defs><path id="w" d="M2023.96 2074.88l-8.35 19.51-2.09-2.71-2.5-2.82-4.8-5.53-.63-.62-.94-.63-.73-.42-3.34-1.35 1.36-2.09 1.25-2.09.31-.52.11-.52.1-.52 2.09-2.09 1.57-2.4 6.46-14.29 1.99-5.85.73-2.92.83-1.04 1.25-1.36 1.78-1.77 4.07-3.97 7.61-6.78-7.61-11.69-14.51-22.74-6.05-9.08-.94-1.46 5.12-4.59-5.95-8.98-6.47 2.82-3.13 1.25-3.65 1.57-2.4 1.88 1.98-3.55.94-.63-.52-.83-1.26-2.19-.41-.63-1.88-3.23-2.09-.11.94-1.46.63-.73 1.25-1.46.94-.94 2.71-2.09.21-.21 1.56-1.35 1.78-1.67-1.25-1.98-1.99-3.45-.52-.52-11.89-18.36-2.92-4.39-.32-.62-5.63 4.48-5.22 4.18-21.39-33.08-1.56-2.29-2.4-3.76-.32-.52-2.92-4.49-3.44-5.22-.32-.52-8.24-12.73-.63-1.15-11.68-18.05-5.84-9.08-.53-.41-.83-1.05-6.26-9.28-1.98-3.03-.94-2.29 14.19-4.8-.42-.94-2.19 1.04-1.25.21-1.15.21-1.88.21-1.77-.11-1.46-.1-.94-.11-1.46-.41-1.36-.42-1.98-.63-1.67-.83-1.57-.84-1.25-.73-6.99-12.1-4.28-6.37-9.29-14.5-4.8-7.2-.62-1.25-.21-.32-.1-.41-.11-.52v-1.57l.11-.73 2.08-.1-.94-1.36-1.25-1.46-.83-1.78-1.15-2.19 6.36-.83 4.07-.63.42-.1.42-.11.21-.2.41-.42-2.92-4.18 5.53-3.54 5.95-3.97 3.03-1.88 3.44-2.29 3.76-2.4 3.75-2.4-4.48-7.2-5.43-9.39 3.23-2.92 10.44 16.9 3.86-2.4 4.8-3.24 5.01-3.13 4.17-2.71-.42-.52-.41-.63-1.15-1.98-1.25-1.88-2.72-4.48-.94-1.78-1.46-2.5-2.71-4.59.42-.32.62-.41 3.13-1.99 5.95 10.44 4.8 8.14 3.76-2.61 3.23-1.98 3.66-2.61-.74-.94-.41-.52-4.07-5.01-1.25-1.67-.94-.94-1.57-1.98-2.09-2.3-.93-1.04-1.15-1.46-.52-.73-1.36-1.57 3.44-2.29.73-.42.73-.52.73-.52 2.93-1.99.41.63.42.42.42.62.52.73.52.73.42.52.31.42.42.52.52.53.63.73 1.25 1.35 1.77 1.67 3.65 3.45 2.93 2.81 2.29 1.88 1.78-1.15 6.26-3.75 1.98-8.35 9.49-1.67 1.15-1.04 5.32-.94 5.12-3.34-10.02-18.58 5.43-3.13 9.91 18.16 5.11-3.44 5.22-3.34 4.07-2.71-10.12-18.58 1.04-.83 1.98-1.46 1.05-.73 3.86-2.61 10.22 18.99 4.07-2.61 5.32-3.55 5.32-3.55 5.01-3.44-.41-.73-5.64-10.33-3.86-7.1-.31-.62.94-.63 2.08-1.35 2.61-1.67 5.32-3.55 3.55-2.3 6.05-3.96.32.62 4.8 8.98 5 9.39 3.97-2.61 2.4-1.88 3.76-2.5 3.86-2.51 3.86-2.61 3.86-2.6 8.03-5.12 5.12-3.23 1.35 2.5 3.76 6.89 5.11-3.44 7.62-5.22 1.25-.52 5.22-.84.62-.21 2.92-1.77 3.97 6.89 5.11 9.39 2.51 4.69 2.5 4.7-3.65 2.29 2.4 4.7-.11.21-10.33 6.89v.31l2.4 4.38-2.29 1.57-5.22 3.33 1.67 3.34 3.55 6.37 4.69 8.87.53.94 1.04 2.08.73 1.36.52.94.63 1.04.62 1.15 6.06-2.92 3.13-1.46 2.08-1.05 1.78.94-1.78 3.76 1.88.21 3.13 5.43 2.51 4.69 2.5 4.7 5.01 9.39 2.61 4.69 1.77 3.34 1.57 2.61 1.04 1.67 4.17 6.05.63.73 2.71 3.86 3.55 5.01 3.34 4.8 3.65 5.32 3.24 4.39 3.44 5 5.22 7.72 1.67 2.51-9.19 8.03 2.82 3.97 4.07 5.74 10.96-9.6 1.14 1.15 1.57 3.86 2.61 6.36 3.75 5.22 3.86 5.95.42.52 10.02 14.61-5.64 4.48-12.1 9.81-2.71 2.19-1.67 1.36-1.57 1.15-1.56 1.14-1.15.74-1.46 1.04-1.04.62-1.57.94-1.67 1.26-1.88 1.35-1.77 1.36-5.11 3.86-.53 1.25-3.02 2.3-.94.62-1.15.52-1.04.32 1.36 1.04-1.05 3.55-.31 1.25 2.61 13.57.73-.21.52.83 8.97 17.22 3.97 7.41 1.98 4.17-74.4 88.28-35.89 40.48-11.06-10.22-9.18-8.46-2.3 4.18h-.52l-.42.31-.94 1.36-2.5 4.07-1.67 3.44-.42.63-.21.73.11.83-4.28 7.2-5.64 9.29-2.71 5.11-.31.52-5.11 11.27z" stroke-linejoin="round"/></defs><use xlink:href="#w" fill="#004249" stroke="#00465f" stroke-width="5.76"/><defs><path id="x" d="M2188.61 1910.85l-7.2 5.01-1.98-4.17-3.97-7.41-8.97-17.22-.52-.83-.73.21-2.61-13.57.31-1.25 1.05-3.55-1.36-1.04 1.04-.32 1.15-.52.94-.62 3.02-2.3.53-1.25 5.11-3.86 1.77-1.36 1.88-1.35 1.67-1.26 1.57-.94 1.04-.62 1.46-1.04 1.15-.74 1.56-1.14 1.57-1.15 1.67-1.36 2.71-2.19 12.1-9.81 5.64-4.48-10.02-14.61-.42-.52-3.86-5.95-3.75-5.22-2.61-6.36-1.57-3.86-1.14-1.15-10.96 9.6-4.07-5.74-2.82-3.97 9.19-8.03-1.67-2.51-5.22-7.72-3.44-5-3.24-4.39-3.65-5.32-3.34-4.8-3.55-5.01-2.71-3.86-.63-.73-4.17-6.05-1.04-1.67-1.57-2.61-1.77-3.34-2.61-4.69 11.89-7.83 6.06-3.96 3.13 4.38 3.34 4.07 5.73 6.57 4.39 1.88 2.29-.42 1.36-.21 1.46-.31.94-.1 2.09-.42 1.46-.31.94-.21-2.4-3.45-.63-.94-1.88-3.86-.52-1.14-.73-.73-1.57-2.2-.94-1.14-.73-.52.53-.11 1.25-.94 2.5-1.67-2.71-4.8.52-.62.52-1.15-.21-1.36-.41-2.19-.32-.83 4.39-2.93 3.86-2.5 5.42-3.34 1.46-.94 2.51-1.56 1.25-.84 1.04-.73 9.19-6.36 3.65-1.99 5.21-3.33.74-.53.73-.62.83-.84-1.98-.94 4.69-4.59.94-.73 4.18-3.75 7.2-6.06 6.26-5.42.73-.52 3.65-3.45 12.73-10.95 3.96-3.55 2.09-1.77 3.97-3.55 1.04-.94 9.7-8.87 11.59-10.02.73-.62.93-.94 4.28-4.7.73-.42.63-.1.73.1.73.32.94.73.63.52.52.42.73-.11.83-.1 1.46-.52 1.46-1.36 1.26-1.04.83-1.26.31-1.04.32-1.46.31-1.15.21-.73.42-.31 3.96-2.61 1.04-.73-2.08-3.76-.63-1.04-.83-1.46-.63-1.15-.83-1.46 1.67-1.15 1.56-1.25 1.67-1.04 1.57-1.26.31-5.63-.11-1.98 1.46 2.92 2.3 4.49.42.73 2.08 3.13 1.88 2.4 1.88 2.4.31.31 1.05 1.04 3.23 3.24 2.4 2.08 1.25 1.15.63.52.52.42 1.78 1.57.62.52.63.62 1.88 1.57 5.94 5.01.42.31.52.42 2.3 2.09 2.4 2.4 1.77 1.87.32.32.2.21 1.78 2.19.21.21.73.93.73.94.52.73.31.42 1.57 2.3.21.41 1.46 2.2.31.52.63.94 1.77 2.92 3.86 6.15 1.67 2.51.63 1.04 1.04 1.78.21.31 4.8 7.51-.32.31-.31.32-2.71 2.19 1.15 1.77 2.19 3.65 9.28 15.55 1.88 2.61 2.4 3.55 3.55-1.15.83 1.25.84 1.57.83 1.46.42.83.31.63.53 1.25.31 1.05.21.93.21 1.36v1.36l-.11 1.56-.1.84.94.41.62.21.84.32.31.1.31.1h.42l.52-.1.42-.21.52-.21-.21.84-.62 1.77-.32.94-.52 1.04-.52.94-.62 1.15-.74 1.04-.83.94 1.25-.41 2.19-2.2.32 1.47 16.38-13.78 4.38 7.31-6.16 5.63 1.36 2.4-.73.52-9.18 7.62.94 1.56 1.88 3.03 3.44 5.32 15.65-14.81 2.4-1.88 4.28-3.24 2.82-2.08 18.67-13.78 2.3 2.82 3.55 5.95 1.04 1.67 1.88 3.02.94 1.67.94 1.46 19.93 25.67 7.72 10.85-109.46 59.58-2.29 1.26-3.03 3.13-3.86 4.07-.94.94-.31.41-.73.42-.84.42-75.44 41.11-34.75 20.14-34.53 20.14-8.46 4.59-17.94 10.22-13.15 7.93z" stroke-linejoin="round"/></defs><use xlink:href="#x" fill="#004249" stroke="#00465f" stroke-width="5.76"/><defs><path id="y" d="M1999.96 1475.84l-1.88.42-.42.1-.52.42-1.77 1.25-1.05.73-.52.32-.21.1h-.52l-.21-.1-.42-.32-.83-.62-2.51-4.49-2.29-4.38-7.2-13.25-2.61-4.8-3.86-7.1-2.3-4.38-.62-1.25-.94-1.78-1.88-3.54-1.36-2.51-1.98-3.55-3.75-6.88-1.46-2.61-5.12-9.5 2.3-2.29 1.04-1.57.63-1.15 1.35-3.75.94-3.65-10.95-20.14-1.78-3.34-8.97-17.11-.21-.21-.31-.11-.52.11-.73.52-2.4 1.67.1-12.31h-1.04l-9.39-.53-4.6-.31-5-.21.1-5.53-.1-.52V1326l-.11-6.26v-5.11l-.31-.63-.84-1.46 2.51-1.98 2.82-2.19 1.04-.73-1.04-2.4-1.05.83-3.34 2.61-2.81 2.19-.32-.52-1.56-2.61-.94-1.67-.84-1.56-4.8-8.45-.31-.73-2.5-3.66-6.37-10.64-6.15-9.7-8.87 6.88-5.01-8.03-3.76-6.26-3.96-6.78-4.07-6.89-12.11 9.39-4.28-6.99 23.48-17.63-3.96-6.68-2.82-4.38-23.37 17.84-2.92-4.49-2.4-3.65 23.58-18.16-2.51-3.75-2.4-3.97-2.4-3.96-.21-.42-2.19-3.55-2.29-3.55-1.67-2.71-.84-1.56-9.81-15.97-1.98-2.92-3.13-5.01-3.02-5.01-3.13-4.9-2.61-4.49-3.55-5.84-3.24-5.22-3.33-5.32-3.34-5.32-3.34-5.22-3.34-5.42-3.24-5.33-3.33-5.21-1.05-1.78 1.05-.73 2.5-1.77.94-.73 2.71-1.98 1.88-1.36 2.71-2.09-2.71-1.35-.73-.32-4.9-1.67-.84-.31-1.04-.42-.84-.31-.62-.42-.63-.41-.63-.42-.52-.42-.62-.63-.84-1.04-.42-.52-.93-1.46-2.93 1.98-.41.11-.73-.11-.53.11-.62-.21-.32-.21-.2-.21-.94-1.04-2.09-3.34-2.71-4.49-.73-1.04-2.82-4.49-2.92-4.7-3.24-5.32-3.23-5.21-3.13-4.91-2.92-4.69-3.45-5.64-1.56-2.4-2.92-5.11-3.03-4.7-2.5-4.59-1.26-2.29 18.47-14.3 3.97-3.13 4.8-4.59 18.88-14.3 23.06-17.63 17.43-13.25 1.04 1.67 2.19 3.65 6.89-5.22 7.1-5.32-.73-1.15-2.72-4.27 16.91-12.84 23.47-18.36 15.24-11.69 1.46-1.25 2.61-1.98 2.19-1.78 1.46 2.51 1.77 3.02 2.92 4.7 3.34 5.42 2.82 4.7 3.24 5.32 2.92 4.7 3.02 4.8.94 1.35.94 1.15 1.15 1.15 1.04 1.15 2.51 1.14.73 1.15.21.21.62.83.84 1.26 2.81 4.59 3.03 4.9 3.34 5.32.31.53 3.86 6.36 1.15 1.98 4.17 6.68 4.07 6.78 1.05 1.78.94 1.56 3.34 5.22 2.92 4.9 3.13 5.12 4.28 6.99 3.44 5.53 2.82 4.8 2.92 4.69 2.71 4.39 2.82 4.69 3.02 5.01 3.03 4.9.63 1.05 3.02 4.9 2.61 4.28 2.71 4.38.32.52.94 1.67 1.35 2.09.52.94 2.82 4.49 3.13 5 3.13 5.01 3.03 5.12 1.56 2.4 1.57 2.5 3.13 4.9 3.02 5.01 2.82 4.59.31.63 2.82 4.59 2.61 4.17.31.53 2.72 4.38 2.71 4.38.31.52 2.92 4.49 2.72 4.59.41.73 3.13 5.01.84 1.46 2.61 4.28 2.82 4.49.73 1.14 2.71 4.49 3.02 4.9 3.66 5.95 1.14 1.88 1.88 3.03 3.24 5.11 1.98 3.13.73 1.25 2.92 4.91.73-.42.84-.63 3.23-2.4 1.15 1.46 3.03 4.8 5.21 8.56.73 1.15.94 1.56 6.58 10.85 1.04 1.88 11.16 18.16 8.14 13.15 3.76 6.26 2.09-6.06 3.96 2.51 4.49.73 2.82 1.15 1.35-1.67 1.05-1.46.31.73.42.83.52 1.04 1.25 2.72 2.61 5.53 3.75 8.24.94 2.09 7.52 16.38 1.46 3.23 1.14 2.51.32.52 1.67 3.65 2.92 6.26 1.25 2.72 5.95 12.73 7.51 15.96 2.82 5.95.94 1.77 1.04 1.98.73 1.15-3.34 2.51-1.77 1.35-4.28 3.24-6.36 4.8-4.91 3.55-1.56 1.14-1.67 1.26-2.4 1.77-5.32 4.07-2.2 1.77-2.6 2.4-1.57 1.46-3.13 3.03-1.36 1.46-3.54 3.34-1.78 1.88-1.67 1.46-5.01 5.11-.73.63-2.71 2.61-1.15.83-.94.83-3.96-6.57-1.46-2.5-15.34 13.46 1.98 3.02 1.25 2.19 1.46 2.72-1.25.73-.52-1.05-1.46-2.6-1.25-2.4-.21-.21-.63-1.25-.83-1.26-.73-1.04-1.15-1.67-3.23 2.61-7.73 6.47-6.57 5.74 5.84 11.06-1.98 1.35-.42.32-5.63 3.65-3.86 2.61-3.97 2.71-2.08 1.36-5.12 3.44-3.23 2.09-3.65 2.4-4.07 2.71-1.88 1.15-1.77 1.15-1.78 1.25-.62.42-.53.31-.73.42-1.04.73-.83.52-2.09 1.46-4.07 2.71-1.46.94-.52.31-1.26.84-1.04.73-.62.42-1.26.83-.73.42-2.4 1.67-1.98 1.25-1.36.94-5.63 3.76-3.86 2.5-7.62 5.01-2.92 1.88-3.55 2.4-1.98 1.25-2.71 1.77z" stroke-linejoin="round"/></defs><use xlink:href="#y" fill="#004249" stroke="#00465f" stroke-width="5.76"/></svg>