<svg width="422.4" height="384" viewBox="0 0 3168 2880" xmlns="http://www.w3.org/2000/svg" xmlns:xlink="http://www.w3.org/1999/xlink"><path fill="#fff" d="M0 0h3168v2880H0z"/><defs><path id="a" d="M1449.86 1287.13l-1.39 1.48-.59-.89-.7-.79-.79-1.19-1.09-1.48-4.16-5.65-4.35-5.74-3.07-4.06-4.26-5.94-4.35-5.84-3.87-5.25-9.6-12.57-.2-.3-2.57-3.46-.79-.99-2.28-3.07-2.28-3.07-7.82-10.3-6.73-9.01-9.9-13.17-7.92-10.59-2.67-3.57-5.35-7.13-4.06-5.44-4.35-5.84-5.35-7.13-5.64-7.33-5.05-7.42-3.27-4.95-3.46-5.85-1.98-3.66-2.97-5.94-2.18-4.55-1.98-4.46-1.98-4.65-1.78-4.85-2.48-7.03-.4-1.29-.49-1.78-.59-1.79-.5-1.88-1.39-5.34-1.88-8.02-.49-2.78-1.88-7.82-1.59-7.23-1.88-8.11-2.27-10.5-2.38-10.69-.79-4.16-2.58-11.29-1.58-7.72-1.09-4.46-1.78-9.1-1.29-6.74-.49-2.47-.89-3.27-.7-3.56-1.38-6.14-2.77-12.68-.8-3.76-1.48-6.83-.3-1.39-1.78-8.31-1.39-6.44-.1-.49-.19-.8-.2-.79-.1-.69-.2-1.19-1.29-6.63-.39-1.29-1.19-5.64-.59-2.28-3.87-17.23-1.08-5.05-.8-3.86-.59-2.28-.5-2.27-.59-2.58-1.68-7.62-.89-4.26-1.19-5.25-.6-2.67-8.31-38.71-3.17-14.56-2.47-10.1-2.28-8.71-2.18-7.33-2.28-6.93-2.67-7.22-1.19-2.97-8.02-21-4.95-12.27-1.58-4.06-6.93-17.63-5.15-13.06-6.53-16.84-10.89-27.42-.79-1.88-.99-2.68-7.03-17.92-6.24-15.74-1.29-3.17-1.58-4.06-.69-1.78-5.35-13.66-.2-.6-.69-1.68 1.38-1.58.9-.8 2.57-2.67 1.68-1.68 1.29-1.29 3.07-3.37 1.29-1.38 6.23-6.54 7.23-7.23 1.39-1.38 1.48-1.59 4.56-4.85 3.86-4.06 1.09 2.08 2.57-2.77 3.86-3.86 6.73-6.73 2.38-2.38 2.47-2.28 4.85-4.45 6.54-6.04 3.36-2.97 4.46-4.16 3.76-3.37 3.57-3.17 6.03-5.34 2.88-2.68 3.16-2.97 3.07-2.87.3-.29 5.34-4.76 3.47-3.26.99-.99 1.88-1.69 3.57-3.07 1.48-1.38 10.69-8.72 4.16-3.36 2.67-2.28 1.98-1.68 9.01 11.09 6.54-13.77 6.83-17.32 10.59-9.41 1.29-1.09 6.43-5.74 4.46-3.86 8.41-7.62 6.63-5.85 5.85-5.34.89-.79 2.97-2.68 1.88-1.78 3.66-3.27.6-.59 4.95-4.46 1.88-1.58 5.44-4.75.89-.8.89-.69.79-.59.5-.4 3.66-3.07 1.98 8.81.8 2.68.79 2.37 1.28 3.67 1.19 2.77 1.49 3.27 1.58 3.56 5.15 4.95 11.98 12.08 1.48 1.78 6.93 7.03 7.72 7.92.9.99 8.02 9.61 7.92 9.4 10.19 10.2 5.05 5.05 51.18-51.39 23.86-27.32 1.79.39 1.88-.19 1.48-.6 1.39-.89 1.98-2.08 1.58-3.17 3.17-3.76 3.56-1.88 3.76-.59 3.77.19 1.28.6 1.89 2.18 2.67 5.84.39 2.77 3.17 2.18 10.4 8.61 5.94 7.72 15.34 19.81-3.07-16.84-1.48-8.11-2.77-15.05 2.07-4.36 4.56-10.4 13.76-4.35 7.03-5.84 2.77-.99 7.23 3.96 3.36-2.58 1.69.1.1-3.27-4.46-7.62 2.97.4.4-5.35 28.31-46.83 37.22-20.7 5.25-2.87 11.19-7.72 14.35-4.16.5.3 2.87 4.55 2.87 7.03 1.59 3.67.49 1.18 1.98 4.96 1.98 4.75.49 1.19 1.69-1.09-9.41-22.48 7.53-6.43 6.33-3.96 2.97.19 1.59-.99 26.93-16.53 6.13-3.76 2.78-1.69 3.76-2.77 2.08-1.58 25.54-18.72 15.34-14.25 28.61-17.92.9 1.68.69.79.69.4.79.1.79-.2.7-.5.1-.39 51.67-26.24 18.02-9.01 12.77-7.62 57.03-41.19 30.98-17.23 65.44 75.45 74.75 86.13-1.39 2.38-1.58 1.68-3.66 2.87-.6.7-1.29 1.68-3.46 5.35-4.36 5.54 17.92 21.49 52.67 63.76 10.2 16.04 24.55 38.71 4.26-7.82 1.78-3.07.89-1.68.1-.2.59-.79.6-1.19 1.28-1.78.99-1.29 1.29-1.68 1.78-1.79 1.69-1.68 1.68-1.58 4.16-4.06 3.96-3.76 7.92-7.33 2.17-1.98 4.66-4.16 8.31-7.43 5.75-4.85 10.99-8.61 4.55-3.57 1.88-1.48 5.25-4.06 2.37-1.88 1.29-.99 2.08-1.78 2.67-2.38 1.59-1.58.69-.8.79-.89.59-.69 2.18-2.87 1.09-1.68.69-1.29 1.29-1.88 1.39-1.88 1.78-1.98 1.78-1.89 1.49-1.18 3.46-3.57 1.09-.89 2.77-1.98.8-.49 4.15-1.29 3.57-.6 8.12-.69h4.95l2.67.4 13.17 3.07 1.88.59.89.3.49.2 2.97.49 2.97 1.39 6.44 4.25 1.38 1.09 1.09 1.19 1.78 1.19 1.29 1.19 1.59 1.78 1.18 1.39 1.19 1.58 1.88 2.08 1.49 1.29 1.18.79 1.09.69 1.29.6 2.08.89 1.98.69 2.28.4 1.09.19 2.47.4 5.84.69 3.76.4 2.78.4 2.57.19 2.97.2 2.48.1 2.17-.1 2.58-.1 2.47-.29 3.47-.5 2.77-.69 2.67-.89 2.48-.7 3.26-1.18 4.06-1.19 5.45-1.39 3.27-.59 4.55-.8 2.77-.29 1.49-.1 1.48-.2 1.39.1 1.28.1 1.19.2.99.29 1.19.5.89.49.89.7 1.09 1.09.69.79 2.78 3.76.89-.1h.99l1.09.3 1.28.39 1.29.6 1.09.49 1.09.6 1.19.69 1.09.69.79.6.79.59.79.79.79 1.09.6 1.19.39 1.09.3 1.19.2 1.38.1 1.39.1 1.29.1 1.58-.1 2.87v1.29l-.5 3.17-.69 2.28-1.29 3.46-1.48 2.58-1.29 2.17-1.09 1.79-1.68 2.27-1.79 6.93-2.67 16.64-1.98 16.93-.2 8.22-.79 8.71-2.57 14.16-.6 7.13.6 6.53 1.78 5.55 1.19 1.88 3.07 1.38 7.92 2.77 1.19.2 6.03 1.19 3.17-.2 3.07-.19 9.9-2.28 3.66-.7 2.58 1.89 2.47 1.78 3.47 3.27-1.69 30.89-.29 46.43-.2 31.49 15.25 6.23-1.69 1.59-2.17 1.78-3.47 3.57-29.9-8.02 9.7-35.85-15.94 2.18-100.88-19.3-62.76 256.33-22.97-18.22-4.45 31.19-3.07-2.18-.8-.39h-.99l-3.86.79h-1.58l-3.66-.69-3.27-.3-4.95-1.19-1.59.1-1.58.4-5.94 2.47-1.98.6-5.25.19-5.04-.79-15.45-2.47-2.18-1.39-.79-.69-.59-.3h-1.49l-2.57 1.19-.7.1-4.75-.89-1.38-.89-4.66-3.57-4.35-4.65-1.78-2.97-2.28-2.77-2.38-1.69-.99-.29-2.08.29-1.08-.1-1.59-.39-10.99-4.36-6.43-3.96-.8-.1-1.48.3-1.19-.1-1.09-.3-1.88-1.19-1.68-1.38-1.09-1.19-.79-.4-2.58-.49-2.17-.2-1.79-.1-3.06.1-11.29 1.88-10-.1-1.88.3-6.83 2.77-.89.2-3.77 1.09-9.1 1.58-3.67.2-3.07-.3-4.05-.79h-1.98l-1.09.3-1.19.69-3.07 2.58-4.65 4.55-.7.4-2.47 3.96-1.29 1.78-1.68 3.17-1.88 4.65-.89 1.78-1.09 1.39-1.98 1.98-1.88 1.39-7.03 3.66-8.32 3.47-6.14 2.97-7.32 3.66-1.69.69-1.78.89-1.38.7-1.88.99-1.88 1.09-1.69.99-2.08 1.18-3.07 1.69-1.88.89-2.08.99-3.36.79-2.58 1.88-1.68.3-.79 1.09-.79 1.68-6.73 3.86-2.18 1.19-4.36 2.48-15.05 8.41-3.16 1.68-8.32 4.26-5.84 2.97-9.11 4.46-8.32 3.96-1.78.89-8.22 4.06-5.84 2.57-2.37.99-5.05 2.08-2.97 1.19-7.23 3.17-1.09.49-9.01 4.26 7.53 18.42-2.28 5.44-14.45 6.73.39 1.29-1.98 1.09-8.21-23.37-.8-2.07-9.6 4.65-1.19.59-.89.4-6.53 3.07-5.55 2.77-1.18.59h-.1l-5.45 3.07-.2.1-1.58.89-.79.6-4.26 3.17-2.67 2.17-1.29 1.09-3.76 3.47-.4.4-2.47 2.17-1.29 1.39-3.56 3.46-8.91 9.21-.99.99-1.19 1.19-2.08 2.08-5.45 5.45-1.97 1.88-1.98-2.68-1.49-1.68-1.19-1.68-1.38-1.88-1.19-1.69-1.39-1.88-1.19-1.48-1.48-1.69-1.29-1.48-1.48-1.68-.7-.99-.59-.9-.4-.49-.59-.89-1.29-1.78-.69-.99-1.49-1.19-.79-.7-1.48-2.67-.7.89-.59.7-1.19-24.16.1-.4 1.49-7.92-11.68-20.5 1.08-1.18.99-.89.99-.99.3-.2 1.49-1.49.79-.79.79-.79 2.28-2.18 1.98-1.98 1.28-1.19 1.29-1.38.5-.7.69-.89.99-1.38 1.29-2.08.99-1.69.69-1.48 1.09-2.48.89-2.57.39-1.19.3-1.39.5-2.17.1-.99.09-.8.2-2.27.3-2.28.3-2.97.19-2.97.2-2.58v-.29l.2-2.08.1-1.98.4-2.38.49-1.68.89-2.97 1.09-3.07 1.19-2.97.3-.69 1.09-2.18 1.48-2.77 1.78-2.68 1.98-3.07-1.68-1.78-1.49-1.48-1.58-1.69-1.39-1.09-1.28-.79-.3-.1-.79-.39-.5.49-.19.59-.3.9-.2 1.09-.2.89-.29 1.09-5.95 9.01-.19.49-12.48 14.16-5.84 6.73-.69 7.13-.6 6.04 1.19.49 1.88.7 10.99 4.26-2.27 5.54-.3.79-2.57 6.14-1.79-2.47-4.65 4.45-4.16 3.86 3.96 5.84-.69.7-.89.89-7.13 6.83-6.53 6.24-8.12 7.92-4.85 4.75-7.13 6.83-3.86 3.57-.69.79-.6.59-1.09.99-2.57 2.48-2.97 2.87-2.18 2.18-5.64 5.44-1.49 1.39-.99 1.09-9.9 9.8-1.88 1.78-.59.7-1.59 1.58-1.68 1.58-3.96 3.77-2.67 2.57-2.58 2.48-4.06 3.96-5.04 4.85-3.77 3.46-1.09 1.19-3.06 2.87-4.86 4.66-3.56 3.56-4.55 4.55-5.75 5.85-2.47 2.47-2.48 2.48-4.06 3.96-1.08 1.09-5.05 4.95-4.75 4.45-2.97 2.87-2.58 2.38-1.78 1.78-4.06 3.86-9.21 9.01-3.36 3.37-1.69 1.29-2.97 3.07-11.58 11.18-2.47-2.97-1.19 1.09-.6.7-.69 1.18-.49 1.09-.7 1.49-.69 1.48-.59.8-8.62 8.21-10 9.81-.99.69-1.09.49-1.28.5-.79.2-.8.39-.89.7-1.98 1.58-1.28 1.19-.6.69-.49.59-.3.5-.4.69-.69 1.49-.3.59-.69 1.19-.39.59-.6.6-.79.79-6.34 6.24-18.71 18.31-.89.9-.89.69-.69.49-.89.5-2.58 1.19-.89.49-.89.6-1.68 1.28-.99 1.09-.89 1.09-.5.69-.3.6-1.09 2.57-.39.6-1.09 1.38-48.61 47.23-1.78 1.68-1.09.8-.79.39-1.98.89-.79.4-1.19.79-.99.79-1.68 1.39.49.69 1.88 2.58-15.54 14.95-3.07 2.97-6.63 6.33-1.69 1.59-1.88 1.78-1.48 1.49-3.47 3.46-9.6 9.51-1.98 1.88-.79.79-8.02 7.82-2.58 2.58-3.56 3.46-4.75 4.56-2.48 2.47-1.98 1.88-2.57 2.28-1.29 1.29-2.47 2.37-3.37 3.27-1.78 1.98-1.78 2.08-1.39 2.08-.89 1.19-1.29 2.57-1.19 2.67-.59 1.29-.4.99-.29.89-.7 2.08-.99 2.87-.89 2.87-.79 2.48-.3.89-.09.3-.6 1.68-.49 1.39-.5 1.38-.59 1.49-.79 1.48-.8 1.59-.69 1.28-1.48 2.68-1.88 2.57-1.59 2.28-1.19 1.48-.79.9-1.38 1.68z" stroke-linejoin="round"/></defs><use xlink:href="#a" fill="#9dc8ca" stroke="#6bb4d2" stroke-width="5.76"/><defs><path id="b" d="M46.03 1225.05l1.69-3.47 3.26-9.7 2.68-7.92 7.82-22.97 8.41-22.28 2.78-9.11 2.97-11.09 4.75-20.79 4.35-22.08 1.39-6.83 7.52-37.52 8.72-37.82 3.76-29.01 2.57-31.69 1.69-18.71.89-5.94-.2-14.06.3-4.26.39-4.75.4-.79.39-1.29.3-1.48-1.58-2.88-.7-2.47.2-1.49.69-2.97-.09-2.08.79-3.36-.4-2.68-.1-2.47.2-.69 1.29-1.59.99-1.09.29-.59 1.19-.5 2.58-3.96.29-.79-.1-.59-1.48-.79-.5.09-.69.3-1.19-.3-.1-.69.7-2.57.59-8.32.1-6.63-1.78-7.83-.79-1.08-3.57-3.37-2.37-.79-.8-.6-.29-2.57-.1-10.1.79-3.17.5-.2 2.57-.19.59-1.19.4-2.38-.2-1.48-.59-1.98-.7-.99-.69-.9-2.47-4.35-1.49-9.31-.49-5.05.09-2.28.8-1.38 1.48-.6 2.08-1.09.1-1.78-2.77-4.25-1.49-2.88-.49-1.48-.6-31.88-.59-9.8-.49-2.68v-1.68l.19-.99.5-.89h.59l2.28.49 4.26-1.18 1.09-1.09.89-1.79.59-2.27.1-2.58-1.78-9.3-4.46-8.02-3.46-2.28-2.18-1.98.3-5.94-.9-12.58-.39-18.91-.3-5.64.4-2.08 1.38-.89 3.17-.2 7.13-3.96 1.39-2.18.39-2.18-1.58-5.14-2.58-6.54-.29-6.44-2.18-13.16-1.58-6.04-3.47-7.43-3.27-7.33-.89-7.72-1.78-4.65-2.87-2.08-2.38-1.78-1.88-4.66-1.98-5.94-.39-1.38.1-1.79.89-1.98 1.68-1.88.79-1.68.2-2.48-1.09-5.54-1.68-4.16.89-3.76.69-5.64v-1.89l-2.18-2.07-2.77-1.49-2.77-.3-2.08-.59-1.48-1.09-1.19-2.18-.7-2.67-2.37-11.39-1.88-15.15.39-1.18 1.09.49 1.69-.79 1.78-2.97 1.48-3.86.1-1.09-.49-1.29-1.19-1.29-3.37-1.98-4.16-.99-.99-2.08-3.46-13.46-3.17-7.43-1.78-5.15.2-2.17.69-2.18 1.29-.1 1.68 1.19 1.19 1.48 1.48.2 1.49-1.58.59-2.68.89-6.93.5-4.75-.99-4.95-.99-2.28-2.77-2.77-1.49-.2-1.58-1.29-.2-2.37.4-1.29.79-2.18 1.09-1.28.69-1.29-.1-1.88-.59-.7-.99-.99-4.66-2.67-1.78-.39-1.48-.99-1.39-1.69-.69-2.77.59-2.97 1.09-3.07 1.09-2.18 1.29-1.68.19-1.49-.59-.89-2.28-1.09-7.22-1.88-.4-1.38-.2-2.88 1.49-3.36 1.09-.69 2.07.79 3.37 1.58 5.15 3.07 1.78.4.89-2.08-.99-1.19-1.78-1.88-1.29-1.98v-1.98l.6-2.18 2.57-1.98 2.28-1.19.99-1.38 1.58-1.19 1.09-1.09v-2.58l-.99-2.37-5.54-2.68-2.78-1.58-2.57-1.88-1.88-1.68-1.39-1.69-1.28-2.57-.6-3.37-.89-4.06-.59-4.35-1.69-5.35-2.57-4.46-.69-2.47.29-2.28.6-1.68 3.56-3.37 2.28-1.98 1.88-3.27 1.68-3.36.8-3.76-.6-3.87-1.19-2.77-1.58-3.56-2.97-7.23-.59-1.68-1.89-2.87-1.28-1.29-2.28-1.59-2.47-1.28-9.01-5.05 2.97-.1 2.27-.99 3.47-1.98 3.66-2.87 1.98-1.78 16.24-14.86 3.86-3.56 8.71-8.91 35.74-32.28 24.35-20.1 11.79-8.41 24.25-9.31 8.91-3.17 17.92-.1 11.68 2.28 15.45 4.95 19.7 11.19 28.9 28.22 12.97 12.67 50.49 47.33-3.17 15.34-.39 4.66v.59l-.4 3.07.2 1.39.89 1.28 1.98 2.58 2.87 2.47.3 1.39-.5 2.57-1.18 3.07-10.79 25.35-15.25 28.51-2.57 5.75-.5 3.86.1 3.07.89 4.35 1.49 4.16.89 2.18.39.59.99 1.29 2.58.99 3.76-.2 16.73-3.96 9.8-2.77 7.72-1.58 6.14-2.97 6.34-4.36 14.15-13.07 10.99-10h.3l.89-.1 1.78.59 3.86 4.96 12.28 9.4 2.08 2.28.99 2.47.59 4.46-.39 5.74-.7 2.48.3 1.28 2.18 2.18 3.66 1.09 2.38-.2 2.77-1.09 4.16-3.66.69-.49 4.56-6.84 12.67-18.51 4.55-8.52 1.98-1.08 2.18-.8 2.18.99 2.08 3.27 1.88 4.16 2.37 3.96 4.85 4.65 3.96 3.86 2.58 3.17 5.05 1.59 1.38 5.34 9.9 22.87-1.09 5.05-.69 7.03-.1.99.5 6.84 5.64 4.75 5.25 4.06 6.23 3.76 12.58 8.22 4.85 2.37 5.94-5.54 1.48-1.49 6.93-6.63.79.3 2.08 1.09 25.74 11.48 32.77 13.67 45.84 17.32 6.04.99 19.3 1.69 23.96-.1 14.06.59 17.42 1.39 20 .69 27.62-2.28 5.75-1.09 5.74-1.38 5.14-2.18 3.97-2.18 5.04-3.07 2.97-2.08 3.87-2.97 4.05-3.86 9.71-9.41 1.09-1.08 5.04-3.67 18.72-14.06 19.3-19.3 26.43-23.47 24.26-22.97.89-.79 11.48-10.3-4.65-6.14-2.18-2.67 7.03-6.54 3.17-2.87 4.55-4.16 2.38-2.07 3.07-2.78 8.31-7.42 3.57-3.27 4.35-3.86.2-1.29 2.58-19.7.59-3.57 1.19-10.19.29-1.89 8.22-63.26.7-4.36.29-1.98 1.59-12.28 1.18-11.68.7-4.16.59-7.03 1.19-11.28.3-5.45-.1-5.54.1-1.89-.3-3.96-.5-6.23-.49-4.46-.1-1.09-.3-1.88-1.09-6.34-.49-2.57-.79-3.66 8.51-.9-4.06-5.34-4.95-7.03-.2-3.07 5.94-9.51 8.22-10.69.89-1.19-.49-1.78 4.55-5.05 7.23-8.22 4.45-4.75 6.93-7.42 8.12-8.22 3.27-3.37 6.53-5.54 7.23-4.76 1.78-1.08 1.09-.3 6.63-1.88 20 .1 7.13-1.98 10.2-.1 9.5 11.38 2.97-1.09 8.12 41.09 2.28 11.29 2.07 11.39 3.87 19.5.69 3.27 6.63 34.16 1.29 6.53.89 4.75 1.58 8.62 1.19 7.82 1.09 7.82.79 7.13 7.82-8.32 18.22-18.61 9.01-6.14 10-5.94 9.8-3.17 12.87-2.97 2.37-.2 4.46-.39 14.65-1.29 22.08.89 21.38-.1 10.89 3.86 6.93 2.38 9.8 5.94 7.23 4.46 1.09.59 19.7 15.15 6.04 5.84 8.12 7.82 1.98 1.88 5.34 7.13 7.23 9.51 1.58 2.08.4.49 4.55 7.53.6.99.39.89 3.27 6.93 1.98 5.54 3.47 9.61.19.69 3.27 11.98 17.23 42.38 6.04 21.58 3.06 10.99 5.75 16.83.39.99 1.88 5.45 1.29 3.66 1.98 5.55.79 2.37-3.66 3.07-.5.4-.79.59-.89.69-.89.8-5.44 4.75-1.88 1.58-4.95 4.46-.6.59-3.66 3.27-1.88 1.78-2.97 2.68-.89.79-5.85 5.34-6.63 5.85-8.41 7.62-4.46 3.86-6.43 5.74-1.29 1.09-10.59 9.41-6.83 17.32-6.54 13.77-9.01-11.09-1.98 1.68-2.67 2.28-4.16 3.36-10.69 8.72-1.48 1.38-3.57 3.07-1.88 1.69-.99.99-3.47 3.26-5.34 4.76-.3.29-3.07 2.87-3.16 2.97-2.88 2.68-6.03 5.34-3.57 3.17-3.76 3.37-4.46 4.16-3.36 2.97-6.54 6.04-4.85 4.45-2.47 2.28-2.38 2.38-6.73 6.73-3.86 3.86-2.57 2.77-1.09-2.08-3.86 4.06-4.56 4.85-1.48 1.59-1.39 1.38-7.23 7.23-6.23 6.54-1.29 1.38-3.07 3.37-1.29 1.29-1.68 1.68-2.57 2.67-.9.8-1.38 1.58-2.48 2.28-1.48 1.48-.69.69-3.37 3.17-4.26 3.96-2.57 2.38-2.18 1.98-2.28 2.18-4.35 4.16-20.3 19.5-5.05 4.75-5.84 5.85-7.12 6.63-3.87 3.46-2.67 2.48-3.17 2.77-6.14 5.15-3.86 3.17-3.66 2.77-3.46 2.67-3.27 2.38-2.77 1.98-4.46 2.97-1.09.79-2.57 1.69-5.94 3.86-6.73 4.16-2.48 1.48-2.37 1.49-2.88 1.68-2.37 1.49-2.97 1.68-2.57 1.48-.99.5-3.07 1.78-5.75 2.97-6.04 3.07-.49.3-7.42 3.86-4.16 1.68-3.27 1.59-2.77 1.38-1.88.89-1.98.8-8.22 3.86-3.37 1.48-9.99 4.46-5.85 2.77-3.96 1.88-4.45 2.08-3.96 1.98-3.47 1.68-8.11 3.86-3.07 1.79-1.29.59-1.48.89-3.27 1.69-4.46 2.47-5.64 3.27-5.94 3.46-5.64 3.37-3.67 2.28-8.31 4.95-8.62 5.05-.89.49-2.07 1.29-3.07 1.88-.8.5-3.07 1.88-3.86 2.37-3.66 2.28-3.96 2.47-7.42 4.46-32.67 19.9-8.22 4.75-63.96 38.52-2.87 1.78-8.41 5.05-4.06 2.48-10.2 6.04-14.15 8.61-3.86 2.28-7.13 4.35-5.65 3.07-1.48.89-1.29.7-1.29.79-1.28.79-1.39.79-7.13 4.36-9.9 6.14-14.94 8.91-5.05 3.07-.9.49-4.35 2.78-3.86 2.37-5.15 3.17-5.54 3.27-3.37 1.98-2.18 1.19-2.08 1.08-4.55 2.18-6.83 3.07-2.97 1.29-2.48.89-2.57.99-2.28.79-4.35 1.59-2.38.79-1.68.69-3.47 1.29-.99.3-3.76 1.38-1.09.3-4.75 1.48-2.67.6-2.58.69-1.58.4-6.14 1.48-1.58.4-8.72 2.08-1.38.39-.3.1-2.97.7-3.66.89-6.64 1.48-6.73 1.29-5.54.89-1.09.3-3.37.49-2.27.2-16.44.1-.69-.1-24.26-1.48-12.67-.7-5.94-.39-31.58-2.08h-.3l-6.93-.3-6.13-.1-6.14.1-6.14.3-6.14.59-6.14.69-6.13.99-6.04 1.19-6.14 1.29-6.04 1.48-5.94 1.79-5.94 1.98-5.84 2.18-5.84 2.27-5.84 2.58-5.74 2.67-5.55 2.97-5.64 3.07-5.45 3.37-5.54 3.56-6.63 4.55-44.65 31.09-13.27 9.21-24.85 17.33-4.06 2.87-14.55 10-14.45 10.1-6.04 4.65-5.45 4.36-5.34 4.65-5.25 4.75-5.64 5.45-5.05 5.35-14.95 16.14-2.77 3.06 2.57.3-9.8 10.6-11.19 12.27-9.3 10-5.94 6.54-5.55 6.14-4.65 5.05-5.94 6.53-5.64 6.14-6.93 7.33-6.54 6.63-4.65 4.65-5.74 5.45-9.6 8.61-7.63 6.64-9.21 7.62z" stroke-linejoin="round"/></defs><use xlink:href="#b" fill="#9dc8ca" stroke="#6bb4d2" stroke-width="5.76"/><defs><path id="c" d="M2019.4 2847.92l-4.65-2.87-1.29-4.46-.39-1.28 1.58-2.58.1-.79 1.29-1.39-3.77-3.26-4.25-3.77-.7-.59-.59-.49-1.58-.99-.6-.4-.99-.3h-.89l-.89.2-.89.3-.5.69-.49.4-.4.59-.89 1.39-1.09 2.18-.99-1.19-1.88-2.18-.49-.79-.5-.89-.59-1.19-.5-.79-.39-.7-.7-1.48-.49-1.39-.3-1.58-.3-2.08-.09-1.88.09-1.49v-2.08l.2-2.18.4-1.68.2-1.68.1-.99 2.87-1.88.39-.99.89-2.18-.19-1.78-.6-2.68-1.78-2.57-1.78-1.49-1.19-.79-.99-.4-1.29-.79-8.02 2.38-1.98.89-5.94 2.87-9.7 3.86-3.07 3.96-3.07 1.98-9.1 5.15-7.13 1.88-2.87-.39-1.88-6.14 3.86-13.76 5.74-11.29 21.38-2.77 2.18-9.71-1.58-5.24 1.58-11.39 3.47-4.46 1.38-8.11 2.77-3.67 3.57-4.95.2-4.26 1.18-4.35-1.98-5.55-4.85-2.37-2.37-1.29-7.23-1.39-3.76.2-5.64.79 3.76 1.79 6.33 8.81-2.37-.2.19.1h-.39l-3.76-.2-4.16.1-5.45-1.58-6.23-1.49-5.94-2.67-3.77-2.08-2.67-2.28-1.58-5.15.59-8.51 1.49-2.58 1.58-1.58.69-2.87.2-2.58.2-2.17 1.48-4.66-.89-5.94-5.34-2.87-8.71-3.66-5.35 1.88-7.43 2.87-3.36-1.09-3.66-2.08-3.67-2.77-3.56-3.27-2.48-2.67-1.78-2.28-1.48-2.87-1.29-3.27-1.19-5.74-.49-7.33.29-7.92.4-7.82-.1-3.46-5.74-5.25-5.25-3.37-4.55-2.77-4.06-1.29-6.44-3.96-2.17-.39-6.74-4.26-2.77-3.86-.2-3.77-.69-3.36-.49-2.68v-2.77l.29-2.47.4-2.18 1.09-4.36 1.58-4.06 2.87-6.43 2.58-5.55 1.98-4.25 1.18-3.37.99-5.25-.09-5.64-.6-4.46-.59-2.47-1.39-2.87-1.48-1.49-1.98-1.09-3.76-1.19-3.47-.39-3.56.2-4.56 1.48-4.26 2.58-3.95 3.86-3.47 4.65-3.76 6.14-2.58 4.75-.09-.2-5.35-1.28-3.96-1.29-3.07-.89-1.09-.6-1.48-1.09-1.59-.59-1.78-.3-1.78-.79-1.29-.79-1.78-1.19-1.58-1.98-.7-2.57-.1-1.79-.49-2.37.2-3.37.19-2.87.3-2.08.5-1.68-.1-.1.79-1.39 1.19-1.28 1.58-1.29 2.48-1.59 2.57-1.48 2.28-1.68 2.08-1.69 2.07-2.18 1.69-2.37 1.28-2.18 1.39-1.19 3.47-1.88 4.75-5.25 1.58-2.47 1.49-2.77.69-3.07 1.09-7.03.69-3.77.4-3.36-.5-3.47-3.26-5.54-.7-1.78-2.97-10-.89-2.18-3.36-5.35-2.88-2.37-2.67-1.59-2.08-.79-1.28.3-5.94 1.68-9.11 3.66-4.66 1.39-5.04.2-4.66-.7-6.63-2.47-6.24-2.38-3.96-3.07-2.18-2.37-.69-2.18-.3-1.88.7-3.86 1.78-5.65 1.19-3.26 1.48-1.99 1.78-1.88 6.34-10.59 1.29-5.54v-2.78l-.89-3.26-1.49-2.78-6.63-13.96-.79 1.19-1.39.99-1.88.89-7.92.79-6.24 1.39-3.76 1.98-3.07 2.28-7.62 8.51-3.17 6.24-4.06 9.41-6.43 18.71-7.03 9.9-7.23 6.63-8.32 3.37-30.88 5.05-16.34 1.98-5.34-.89-1.79-1.98-2.47-1.98-2.87-3.37-3.07-1.78-1.39-.1-1.68.5-2.67 1.58-1.88.89-3.27 2.97-3.37 5.55-4.25 2.57-4.76.69-12.37 1.29-17.03-1.39-24.25-5.05-3.57-.99-2.18-2.07-1.18-1.39-8.52-1.68-4.26-1.59-7.22-7.03-7.13-8.61-5.54-7.33-2.18-4.26-.99-.39h-1.59l-1.08.39-.8.1-.69-.49-.59-.3-5.94 1.98-12.58-13.76-5.44-4.65-5.05-4.36-9.6-6.83-4.46-2.28-5.05-1.98-5.44-1.68-8.22-.3-6.14.3-10.69 2.37-6.73 2.68-3.76 2.27-16.34 12.87-17.82 18.22-16.93 15.45-6.04 3.96-7.03 3.66-5.44 2.58-8.42 1.78-9.99.39-5.05.2-9.01-1.58-6.73-1.88-18.82-9.21-9-4.56-5.05-4.25-8.91-9.71-5.55-7.72-9.9-10.69-18.21-18.71-29.7-16.94-50.1-27.72-34.55-9.3-71.18-11.99-33.56-4.35-42.57-5.15-11.78-1.29-2.97-.89-4.55-1.48-5.15-2.48-5.65-4.16-9.99-6.43-8.72-3.96-19.9-10.4-13.46-5.44-49.8-17.73-9.2-3.26-67.62-9.81-38.71-3.86-32.27-3.07-11.29-.49-60.88-2.48-41.68-17.23-8.91-3.66-7.03-2.47-.5-.7-3.56-4.06-.4-5.24.6-22.88 1.58-11.88 7.23-36.14.1-10.79-5.84-10.39-3.37-7.13-1.19-5.74-.79-4.06 2.87-7.83 6.24-9.01 10.89-15.44 4.55-10.99 5.74-15.35 4.16-17.82 2.28-9.9 2.97-22.18-.1-18.02-.59-28.91 8.9-63.86 5.65-25.74 1.58-5.75 6.44-1.98 2.27-2.17.2-2.78-1.09-3.86-2.77-6.43-.69-3.87v-3.86l.89-5.05-1.49-1.98-1.88-3.66-1.58-9.11-.99-1.98-.1-1.98 1.09-3.86.99-.4 1.88-.1 8.32-2.37 4.05-2.38 3.77-2.28 5.34-.39 14.65-.4h2.18l5.55 1.29.49.1 3.17.69 1.98.5 16.73 3.86 45.94 8.32 11.88 2.47 37.72 7.72 23.06 4.95 14.75 5.65 13.57 9.01 6.33 5.84 10.7 10.2 10.39 17.32 5.84 23.37 1.58 17.43-.89 17.72-5.94 40.3-5.94 35.34V2010l.1 1.29.6 13.26 2.17 18.02 4.36 20.8 4.36 15.54 5.94 11.39 6.33 8.51 3.07 1.98 2.18 1.49 12.18 6.04 13.86 1.28 8.71-3.66 4.95-4.75 7.23-8.71 7.92-14.16 6.33-14.66 4.16-14.75 7.13-21.58 4.35-12.28 4.76-2.57 6.63-1.69 15.25-1.58 9.6 1.38 16.63 7.53 7.13 4.55 5.15 4.56 10.59 11.58 2.57 4.26 3.47 6.63 1.68 5.65 1.58 7.32.9 12.87.69 6.04 1.19 4.95 1.68 3.87 2.57 4.25 3.87 3.17 4.05 1.88 9.01.89 5.55-.99 5.74-2.17 3.86-2.78 7.52-7.42 4.06-5.25 4.56-6.73 1.38-2.08 3.86-6.44 4.56-9.21 7.32-16.93 8.52-17.22 3.76-6.14 4.06-5.94 5.84-6.83 6.24-4.66 8.02-4.95 8.02-4.06 4.15-2.87 3.17-4.26 2.18-3.96 2.77-11.58.4-5.55.89-18.51-3.17-17.53-1.49-6.33-.59-10.2 1.58-8.02 1.89-5.45 2.97-3.46 3.76-2.77 5.84-1.98 5.15.39 5.74.5 10.89 2.28 5.54 1.68 3.17.3 4.36-.4 4.65-1.68 2.47-1.49 5.45-4.36 4.46-3.46.59-1.78 1.09-.6 1.68-4.06.79-3.46.3-4.06-.59-5.64-3.07-12.58-7.33-21.19-2.18-2.97-2.37-2.08-3.57-2.27-5.94-3.47-4.15-.4-3.07-.49-6.24.79-2.77.5-7.23 4.35-2.18 2.58-1.48 1.58-4.75 1.39-8.02-.5-2.78-1.68-2.27-2.38-2.87-3.76-1.49-3.17-.79-4.06.2-8.51.79-4.66 1.58-6.33 2.28-4.46 4.75-6.43 3.37-4.36 1.68-2.57.4-1.79-.3-2.77-2.08-4.95-1.09-1.48-2.18-1.19-3.36-.99-2.68-.2-1.88.69-4.45 1.09-2.48.1-1.98-.3-2.27-1.08-.99-.7-.99-.99-1.69-2.18-.1-18.02 2.08-7.92 1.09-2.67 2.38-4.85 5.05-6.54 5.44-5.94 14.95-8.02 2.48-.49 7.92 1.68 4.95-.2 2.97-.79 2.27-1.09 2.48-2.18.99-1.78 1.19-4.06.49-5.05.3-10.19.89-8.62.69-6.14 1.88-7.23 1.49-6.83.1-1.68 13.07-3.17 5.34-1.09 12.48-1.88 32.27-16.04 43.66-22.08 9.21 24.76 31.28 80.09 15.44 40.4.7-1.39 4.95-10 15.84-26.53 1.18-.79 7.03-11.29 7.13-10.4 3.57-5.24 10.59-18.62 4.16-6.43 10.99-18.12 1.98-3.76 1.28-2.58 5.35-12.18 2.67-6.23 2.38-5.65 3.46-8.91 1.59-4.16 3.07-7.13v-1.48l.09-2.77 1.09-1.29 1.29-1.39 1.78-1.68 1.59-1.58 2.17-2.28 2.48-2.77 9.5-9.51 5.75-5.94 5.04-4.75 4.46-4.26 5.84-5.64 3.57-3.17 4.45-4.46 7.42-7.52 3.37-3.57 1.49-1.48 3.16-3.17 1.79-1.68 1.68-1.78 1.58-1.49.5-.4.39-.49 2.97-2.87 5.05-5.25 4.06-3.96 2.58-2.57 5.84-5.85 2.87-2.77 1.19-1.19 1.18-1.08 1.39-1.19.79-.6 3.27-2.37 4.95-3.86 3.17-2.18 1.58-.99.89-.6 1.59-1.28 2.97-2.38 3.66-3.37 1.19-1.09 2.37-2.47.5-.5.49-.49 1.19-1.19 1.09-1.19 1.19-1.38-.89-.99-.8-.89-.89-1.09-4.06-4.86-1.38-1.68-23.27-28.22-2.37-2.87-2.48-2.87-8.61-10.59-7.23-8.72-2.67-3.26-6.14-7.43-4.65-5.64-13.76-16.64-15.45-18.61-2.67-3.27-2.57-3.17-4.36-5.24-3.86-4.76-2.28-2.67-8.61-11.29-1.39-1.88-13.36-17.62-2.97-3.76-.5-.8-3.46-4.35-.59-.69-1.39-1.89 1.39-1.48 1.38-1.68.79-.9 1.19-1.48 1.59-2.28 1.88-2.57 1.48-2.68.69-1.28.8-1.59.79-1.48.59-1.49.5-1.38.49-1.39.6-1.68.09-.3.3-.89.79-2.48.89-2.87.99-2.87.7-2.08.29-.89.4-.99.59-1.29 1.19-2.67 1.29-2.57.89-1.19 1.39-2.08 1.78-2.08 1.78-1.98 3.37-3.27 2.47-2.37 1.29-1.29 2.57-2.28 1.98-1.88 2.48-2.47 4.75-4.56 3.56-3.46 2.58-2.58 8.02-7.82.79-.79 1.98-1.88 9.6-9.51 3.47-3.46 1.48-1.49 1.88-1.78 1.69-1.59 6.63-6.33 3.07-2.97 15.54-14.95-1.88-2.58-.49-.69 1.68-1.39.99-.79 1.19-.79.79-.4 1.98-.89.79-.39 1.09-.8 1.78-1.68 48.61-47.23 1.09-1.38.39-.6 1.09-2.57.3-.6.5-.69.89-1.09.99-1.09 1.68-1.28.89-.6.89-.49 2.58-1.19.89-.5.69-.49.89-.69.89-.9 18.71-18.31 6.34-6.24.79-.79.6-.6.39-.59.69-1.19.3-.59.69-1.49.4-.69.3-.5.49-.59.6-.69 1.28-1.19 1.98-1.58.89-.7.8-.39.79-.2 1.28-.5 1.09-.49.99-.69 10-9.81 8.62-8.21.59-.8.69-1.48.7-1.49.49-1.09.69-1.18.6-.7 1.19-1.09 2.47 2.97 11.58-11.18 2.97-3.07 1.69-1.29 3.36-3.37 9.21-9.01 4.06-3.86 1.78-1.78 2.58-2.38 2.97-2.87 4.75-4.45 5.05-4.95 1.08-1.09 4.06-3.96 2.48-2.48 2.47-2.47 5.75-5.85 4.55-4.55 3.56-3.56 4.86-4.66 3.06-2.87 1.09-1.19 3.77-3.46 5.04-4.85 4.06-3.96 2.58-2.48 2.67-2.57 3.96-3.77 1.68-1.58 1.59-1.58.59-.7 1.88-1.78 9.9-9.8.99-1.09 1.49-1.39 5.64-5.44 2.18-2.18 2.97-2.87 2.57-2.48 1.09-.99.6-.59.69-.79 3.86-3.57 7.13-6.83 4.85-4.75 8.12-7.92 6.53-6.24 7.13-6.83.89-.89.69-.7-3.96-5.84 4.16-3.86 4.65-4.45 1.79 2.47 2.57-6.14.3-.79 2.27-5.54-10.99-4.26-1.88-.7-1.19-.49.6-6.04.69-7.13 5.84-6.73 12.48-14.16.19-.49 5.95-9.01.29-1.09.2-.89.2-1.09.3-.9.19-.59.5-.49.79.39.3.1 1.28.79 1.39 1.09 1.58 1.69 1.49 1.48 1.68 1.78-1.98 3.07-1.78 2.68-1.48 2.77-1.09 2.18-.3.69-1.19 2.97-1.09 3.07-.89 2.97-.49 1.68-.4 2.38-.1 1.98-.2 2.08v.29l-.2 2.58-.19 2.97-.3 2.97-.3 2.28-.2 2.27-.09.8-.1.99-.5 2.17-.3 1.39-.39 1.19-.89 2.57-1.09 2.48-.69 1.48-.99 1.69-1.29 2.08-.99 1.38-.69.89-.5.7-1.29 1.38-1.28 1.19-1.98 1.98-2.28 2.18-.79.79-.79.79-1.49 1.49-.3.2-.99.99-.99.89-1.08 1.18 11.68 20.5-1.49 7.92-.1.4 1.19 24.16.59-.7.7-.89 1.48 2.67.79.7 1.49 1.19.69.99 1.29 1.78.59.89.4.49.59.9.7.99 1.48 1.68 1.29 1.48 1.48 1.69 1.19 1.48 1.39 1.88 1.19 1.69 1.38 1.88 1.19 1.68 1.49 1.68 1.98 2.68 1.97-1.88 5.45-5.45 2.08-2.08 1.19-1.19.99-.99 8.91-9.21 3.56-3.46 1.29-1.39 2.47-2.17.4-.4 3.76-3.47 1.29-1.09 2.67-2.17 4.26-3.17.79-.6 1.58-.89.2-.1 5.45-3.07h.1l1.18-.59 5.55-2.77 6.53-3.07.89-.4 1.19-.59 9.6-4.65.8 2.07 8.21 23.37 1.98-1.09-.39-1.29 14.45-6.73 2.28-5.44-7.53-18.42 9.01-4.26 1.09-.49 7.23-3.17 2.97-1.19 5.05-2.08 2.37-.99 5.84-2.57 8.22-4.06 1.78-.89 8.32-3.96 9.11-4.46 5.84-2.97 8.32-4.26 3.16-1.68 15.05-8.41 4.36-2.48 2.18-1.19 6.73-3.86.79-1.68.79-1.09 1.68-.3 2.58-1.88 3.36-.79 2.08-.99 2.38 7.52 9.7 32.08 1.39 4.75 1.78 5.75 4.75 15.54 3.66 12.08 1.29 3.96.6 1.98.79 1.98.59 1.59 2.28 5.64.59 1.19.79 1.58-1.58.69-2.08 1.39-8.61 4.36-2.38 1.38-5.34 3.67-2.68 1.38-2.18 1.29-.29 1.68-2.58 16.14-3.26 20.3-2.87 17.23-2.08 12.47-1.49 7.53-3.17 19.11-2.67 16.83-8.41 50.29-.89 4.95-4.06 24.86-2.48 15.44-2.97 17.43-3.86 22.77-8.32 50.3-1.98 12.57-.39 1.58-1.88 11.19-.3 2.28-4.95 29.21-2.08 11.98-2.57 16.73-3.27 18.52-.69 4.06-1.98 12.37-3.76 21.59-.4 2.47-.5 3.27-.29 1.29-.2 1.38-.59 3.96-.4 2.77v.5l-1.09-.2-3.66-.79-1.19-.1-12.97-1.29-5.54-.49-2.18 15.34 5.34.4 14.66 1.09h1.28l1.39.2 1.48-.1-.09 1.58-.3 1.49-4.46 27.32-.89 4.86-1.38 10.39-.6 7.33-.2 9.9 1.39 22.18.99 12.28.89 10.09.69 9.01 1.19 14.95.89 12.58.3 3.96.1 2.57.2 1.29v1.19l.39 5.05 1.39 14.45 1.58 21.19 1.49 18.91.3 4.26.79 11.78 1.28 15.55.5 6.14 1.29 14.65 1.18 17.72 1.59 17.92 1.38 17.73 1.29 17.82 1.78 22.08 1.69 23.46 2.67-.49 3.17-.5 3.66-.69 3.27-.79 3.36-1.09 3.37-1.29 5.94-2.28 3.27-1.09 3.26-.89 4.56-.69.19 2.08.2 2.08-1.28.39-32.08 14.66 3.47 46.43 2.57 35.75 2.08 26.93 6.14 8.51 19.4-.1 13.96.5 3.76-.1h2.08l-.69 7.42-.6 8.02-.59 7.13-.3 2.58-.1 2.08h5.94l.4.1h9.7l1.19.59-.99.79-.5.1-9.99.2-5.15.1h-.8l-1.78-.1-.89.1h-7.03l-2.97-.1h-10.59l-16.24-.6 6.34 86.84 2.87 37.12 1.78 16.84 1.49 18.51 5.24 55.45 2.18 17.82 3.47 35.44 1.38 17.33 1.49 14.95 1.98 19.11.2 2.67 2.87 31.29.1 1.09.1 1.19.29 7.03-6.73-3.86.99 9.5 1.58 18.62 1.29 18.81 1.29 16.53.99 14.36.49 6.63 2.38 30.4 1.09 11.88 4.95 70.59 3.46 42.08 4.85 62.28 1 16.44.29 2.77 1.59 17.52 3.86 50.2 2.67-.49 24.95 52.27-16.34 2.77-1.38-.49-1.49.3-1.48.19.1 1.59 2.07 23.96 1.09 18.02 1.79 22.18.19 2.18.3 3.06-2.87-.29-24.45 10.99-.6.29-20 7.93-13.56 5.34-4.65 1.88-11.09 4.36-3.66 1.39-2.87-3.47-.3.2-2.67.89-2.28.59-1.39.4-1.88.89-2.47.59-2.77 1.09-1.49.6-3.07.79-4.75 1.58-4.36 1.49-1.28.3-1.59.59-2.57.79-1.39.5-4.85 1.68z" stroke-linejoin="round"/></defs><use xlink:href="#c" fill="#6bacaf" stroke="#097d9b" stroke-width="5.76"/><defs><path id="d" d="M1482.43 2431.49l.99 4.45.69 1.98-.2 2.77-1.48 7.53-3.37 11.48-12.97 36.93-1.58 3.17-3.57 1.98-1.28 1.29-1.29 2.47-.99 3.67-1.09 5.54 1.68 1.49 1.49 1.09.99 1.28 1.38 2.78-.39 1.88-1.98 7.32-2.48 5.85-1.09 4.55-.69 1.98-1.38 1.49-2.18 1.48-2.28.5-11.98 4.75-4.06-.6h-3.26l-5.65-2.77-21.88-9.8-20.49-10.59-8.02-3.87-4.75-3.26-4.75-4.16-3.37-4.65-2.57-2.98-2.68-1.78-2.57-.59h-4.95l-4.46.39-2.37-1.58-8.61-7.13-7.53-5.54-5.44-6.04-3.17-4.46-2.28-2.87-1.58-3.56.2-1.09.39-1.49.5-.79.69-.49 1.68-1.79.7-1.28.59-.4 1.98-.1 5.94 1.19 2.57.69 1.39-.49 1.88-.1 8.51-3.27 2.18-1.09 14.95-3.86 4.75-1.98 18.52-11.29 12.07-8.61 14.95-12.97 11.88-9.01 6.54-3.66 6.24-2.68 3.76-1.68 5.64-.79 4.26-.7 3.07.5 7.22 1.78 10.1 3.57 4.75 2.17 4.26 3.27 2.77 3.86 4.16 6.54.4 2.18z" stroke-linejoin="round"/></defs><use xlink:href="#d" fill="#6bacaf" stroke="#097d9b" stroke-width="5.76"/><defs><path id="e" d="M1535.09 2549.6l-2.97 1.98-6.03 1.39-8.02.79-26.64 1.29-6.92.1-4.26-1.19-3.86-2.57-8.42-3.67-1.09-1.58-.49-1.09-.2-2.28.69-3.66 3.27-9.51 1.98-7.52 4.46-6.83 17.12-21.69 1.39-4.06-1.59-7.62-.59-12.47 1.09-8.52.69-3.56 1.49-3.17 1.78-1.98 1.78-1.29 2.48 1.09 1.58 1.49 1.88 2.07 1.39 1.98 4.85 3.17 8.61 6.83 5.35 2.48 13.46 4.36 14.65 3.66 8.81 3.47 1.98.59 2.58 1.48-.1 3.96-2.18 5.95-9.3 18.61-3.67 6.83-.99 2.77-2.47 6.44-9.61 14.65-3.96 6.83z" stroke-linejoin="round"/></defs><use xlink:href="#e" fill="#6bacaf" stroke="#097d9b" stroke-width="5.76"/><defs><path id="f" d="M1746.06 2613.07l-1.98 4.95-.89 1.39-1.78 1.38-1.49 1.19-1.68.2h-1.58l-2.87-.5-5.84-2.08-2.18-.49-2.67-.69-1.69-.9-1.78-1.48-2.38-1.29-3.26-2.08-4.85-3.56-6.14-5.25-.89-.69-16.44-11.78-4.75-4.36-3.66-1.58-6.14-3.27-10.99-6.54-5.74-3.86-7.13-4.45-3.96-1.39-71.28-9.01-5.35-.1-11.18-2.18-3.96-3.66.3-.69.39-1.39 1.49-3.66 2.87-4.36 8.21-14.85 15.35-34.65 2.97-3.77 2.28-2.47 2.07-.99 9.51-1.19 10.1-2.28 25.54-4.06 43.96-7.52 16.73-3.96 9.1-2.38 8.72-5.74 8.11-6.34 4.36-5.15 4.36-7.82 4.95-10.89 1.08-6.04 2.68-9.5 4.65-8.22 4.65-3.57 8.32-5.74 3.46-.59 2.88.59 1.98.4 2.17 3.27.5 2.47-.89 3.17-4.36 8.51-2.18 6.93-3.56 12.78-.1 6.43 1.09 3.96 3.76 3.86 24.85 13.87 2.87 2.08.6 4.75-18.32 65.74-2.87 10.89-18.41 64.46-1.69 5.74z" stroke-linejoin="round"/></defs><use xlink:href="#f" fill="#6bacaf" stroke="#097d9b" stroke-width="5.76"/><defs><path id="g" d="M2145.43 2851.78l-2.38-29.5-.69-10.89-.1-4.86-.3-3.06-.19-2.18-1.79-22.18-1.09-18.02-2.07-23.96-.1-1.59 1.48-.19 1.49-.3 1.38.49 16.34-2.77-24.95-52.27-2.67.49-3.86-50.2-1.59-17.52-.29-2.77-1-16.44-4.85-62.28-3.46-42.08-4.95-70.59-1.09-11.88-2.38-30.4-.49-6.63-.99-14.36-1.29-16.53-1.29-18.81-1.58-18.62-.99-9.5 6.73 3.86-.29-7.03-.1-1.19-.1-1.09-2.87-31.29-.2-2.67-1.98-19.11-1.49-14.95-1.38-17.33-3.47-35.44-2.18-17.82-5.24-55.45-1.49-18.51-1.78-16.84-2.87-37.12-6.34-86.84 16.24.6h10.59l2.97.1h7.03l.89-.1 1.78.1h.8l5.15-.1 9.99-.2.5-.1.99-.79-1.19-.59h-9.7l-.4-.1h-5.94l.1-2.08.3-2.58.59-7.13.6-8.02.69-7.42h-2.08l-3.76.1-13.96-.5-19.4.1-6.14-8.51-2.08-26.93-2.57-35.75-3.47-46.43 32.08-14.66 1.28-.39-.2-2.08-.19-2.08-4.56.69-3.26.89-3.27 1.09-5.94 2.28-3.37 1.29-3.36 1.09-3.27.79-3.66.69-3.17.5-2.67.49-1.69-23.46-1.78-22.08-1.29-17.82-1.38-17.73-1.59-17.92-1.18-17.72-1.29-14.65-.5-6.14-1.28-15.55-.79-11.78-.3-4.26-1.49-18.91-1.58-21.19-1.39-14.45-.39-5.05v-1.19l-.2-1.29-.1-2.57-.3-3.96-.89-12.58-1.19-14.95-.69-9.01-.89-10.09-.99-12.28-1.39-22.18.2-9.9.6-7.33 1.38-10.39.89-4.86 4.46-27.32.3-1.49.09-1.58-1.48.1-1.39-.2h-1.28l-14.66-1.09-5.34-.4 2.18-15.34 5.54.49 12.97 1.29 1.19.1 3.66.79 1.09.2v-.5l.4-2.77.59-3.96.2-1.38.29-1.29.5-3.27.4-2.47 3.76-21.59 1.98-12.37.69-4.06 3.27-18.52 2.57-16.73 2.08-11.98 4.95-29.21.3-2.28 1.88-11.19.39-1.58 1.98-12.57 8.32-50.3 3.86-22.77 2.97-17.43 2.48-15.44 4.06-24.86.89-4.95 8.41-50.29 2.67-16.83 3.17-19.11 1.49-7.53 2.08-12.47 2.87-17.23 3.26-20.3 2.58-16.14.29-1.68 2.18-1.29 2.68-1.38 5.34-3.67 2.38-1.38 8.61-4.36 2.08-1.39 1.58-.69-.79-1.58-.59-1.19-2.28-5.64-.59-1.59-.79-1.98-.6-1.98-1.29-3.96-3.66-12.08-4.75-15.54-1.78-5.75-1.39-4.75-9.7-32.08-2.38-7.52 1.88-.89 3.07-1.69 2.08-1.18 1.69-.99 1.88-1.09 1.88-.99 1.38-.7 1.78-.89 1.69-.69 7.32-3.66 6.14-2.97 8.32-3.47 7.03-3.66 1.88-1.39 1.98-1.98 1.09-1.39.89-1.78 1.88-4.65 1.68-3.17 1.29-1.78 2.47-3.96.7-.4 4.65-4.55 3.07-2.58 1.19-.69 1.09-.3h1.98l4.05.79 3.07.3 3.67-.2 9.1-1.58 3.77-1.09.89-.2 6.83-2.77 1.88-.3 10 .1 11.29-1.88 3.06-.1 1.79.1 2.17.2 2.58.49.79.4 1.09 1.19 1.68 1.38 1.88 1.19 1.09.3 1.19.1 1.48-.3.8.1 6.43 3.96 10.99 4.36 1.59.39 1.08.1 2.08-.29.99.29 2.38 1.69 2.28 2.77 1.78 2.97 4.35 4.65 4.66 3.57 1.38.89 4.75.89.7-.1 2.57-1.19h1.49l.59.3.79.69 2.18 1.39 15.45 2.47 5.04.79 5.25-.19 1.98-.6 5.94-2.47 1.58-.4 1.59-.1 4.95 1.19 3.27.3 3.66.69h1.58l3.86-.79h.99l.8.39 3.07 2.18 4.45-31.19 22.97 18.22 62.76-256.33 100.88 19.3 15.94-2.18-9.7 35.85 29.9 8.02 3.47-3.57 2.17-1.78 1.69-1.59-15.25-6.23.2-31.49.29-46.43 1.69-30.89 1.58-1.69 1.78-1.19 2.18-1.48 1.69-1.29 2.67-2.18 2.27-1.68 1.69-1.48 1.98-1.89 1.38-1.38 1.19-1.39.89-1.09 1.69-2.47 3.86-6.14 5.24-8.22 3.57-5.54 5.15-8.32 2.08-3.07 1.48-2.57 1.48-2.28 1.09-1.39.99-1.28 1.09-1.29.89-.89.9-.79.89-.9 2.57-1.98 1.58-1.09.99-.59.99-.59.9-.4.59-.3 2.47-1.09 1.39-.49 1.49-.5 2.37-.79 2.38-.59 3.36-.99 1.39-.5 1.68-.59 1.59-.69 1.18-.6 1.09-.49 1.59-.89 2.77-1.19 2.18-1.49 1.09-.99 2.47-2.37 1.59-1.59 3.06-3.17 1.49-1.38 2.38-2.08.89-.79 1.58-1.09 1.29-.89 1.48-1.09 2.18-1.19 2.38-1.19 1.28-.49 1.49-.6 1.48-.49 2.48-.7 2.77-.59 1.98-.3 2.18-.2h2.37l2.58.1 2.08.3 1.38.2 1.78.39 2.38.7 1.88.59 2.87 1.29 1.79.89 1.97 1.09 3.87 2.28 2.07 1.28 3.96 2.48 1.98 1.29 3.37 2.37 1.59 1.39 2.27 1.88.89.89.89.89.8.2 1.98 2.18 2.08 2.28 1.68 1.98 3.66 4.65 1.88 2.67.79 1.29.89 1.48.7 1.19 1.78 3.27 3.76 7.33-.1.99.99 1.98 3.57 7.42 8.02 17.03 5.44 11.78 3.17 6.64 1.88 3.86.79 1.68 1.19 2.38 1.29 1.88 1.58 2.18 1.19 1.29 1.19 1.18 1.28 1.19.9.69 1.78 1.39 2.27 1.39 2.68 1.58 2.87 1.78 3.86 2.28 4.55 2.87 3.67 2.28 4.05 2.38 3.57 2.27 3.27 1.88 2.08 1.09 1.98 1.09 2.57.99 2.08.79 1.38.5 1.69.4 1.78.39 1.78.2h3.07l1.39-.1 2.97-.2 2.27-.29 6.93-.9 7.23-.89 2.38 1.19 77.51-2.77 14.16 8.61.2 2.18 2.57 4.95 6.04 8.32.99-.99h.5l3.16 8.12 4.06 11.88 1.39 3.96.2.89-.3 1.98 11.68 22.97 6.54 14.75 3.56 8.22.4.99 9.4 16.83 6.54 14.95 5.54 14.26 7.52 9.8 6.74 4.36 15.24 7.33 16.24 6.13-3.37 10.99-.69 4.06-.1 4.46.89 4.16 5.84 13.36 3.86 7.53 2.77 2.97 4.16 2.97 10.3 7.72 6.93 7.33 5.84 7.42 3.96 7.03 3.76 9.01 5.55 17.13.69 2.97 2.27 9.61 1 10.29-10.5 2.58-3.17-2.28-6.14 2.38-.19-.89-.5-.7-.69-.59-1.49-.69-1.88-.4-.49-.3-.79-.29h-.4l-.49-1.19-.6-.6-.49-.29-1.59-.2-1.38.2h-.2l-2.28.39-4.95 1.69-1.68.49-4.36 1.98-1.09.5-1.38-.1-.6-.2-.69-.4-2.08-1.28-.69-.1-.6.19-1.48 1.09-.89.2-1.39.1-4.55-.49-1.29.09-6.63 2.28h-1.19l-.59-.29-4.46-2.88v-.39l-.3-.5-7.12-8.22-5.35-6.53-5.25-4.95-.49-1.09-1.09-1.29-6.63 3.27-2.38.79-.3 2.87-.69 5.75-.5 1.78-.59 1.39-.69 1.08-.89.6h-1.49l-1.58-.1-1.19.1-.89.49-2.18 2.97-8.41 10.7-2.28.69-3.56.3-5.45 8.51-3.66 1.19-3.76 2.77-5.25 1.98-9.6 8.42-4.26 2.67-1.39 3.96-1.19 4.85.1 3.96-.2 6.34-1.38 5.45.49 8.21-.49 6.54.1 5.34-1.09 13.47v5.84l-6.14 13.76-3.76 11.09-1.68 7.92-.7 3.47-1.68 14.65-1.09 9.61-1.68.89-3.47 2.08-3.86 2.37-3.46 2.38-5.65 3.37-4.15 3.26-2.48 2.08-3.17 3.47-4.06 3.86-3.36 2.77-3.07 1.78-4.95 2.08-2.18.3h-.3l-6.23-.2-1.69.2-2.57.89-1.58.89-9.9-28.61-18.71 9.8-20.1 8.42-1.59-1.69-.69-.39-1.29-.3-2.37-.89-1.19-.6-1.09-.69-.99-.99-1.78-2.47-1.49-1.49-1.09-.59-.98-.2-1-.1-3.56.59-1.58-.39-.7-.2-4.05-2.77-4.06-2.38-1.79-.69-35.14-20.2h-3.47l-23.66-10.4-7.13.2-5.84-.69-7.12-2.18-11.29-3.56-22.67-13.86-51.28 148.02-18.61 72.97-.1.29-.1.6-7.63 10.19.8 1.39 25.24-9.01 19.01 10.79 9.5 5.25 14.75 34.46 3.96 33.26 2.18 18.22v8.42l19.9 3.86 35.15 62.77 34.55-13.17 99.59-37.72 17.43 95.74-3.57 14.26-26.23 104.95-2.78 11.29 13.86 67.03 20.4 98.61 5.25 21.29-.6 2.57-1.88 1.19-3.37.2-12.27.89-8.52 17.23-33.66 68.61-21.08 44.26 5.84 1.19 1.68.69 10 6.83 3.07 1.49 5.54 1.48 1.39.79 1.88 1.59 6.73 7.62 3.86 4.06 8.42 9.31.59.69 1.88 2.57 1.09 1.29 1.68 1.19 1.89.5 2.17-.1 3.27-.6 1.49.3 2.08 1.78.89 1.68 1.48 3.27.5 2.58.29 2.57-.29 5.05.19.99.3.99.69.5 1.19.49 2.28.5 11.58 1.78 1.59.69 6.63 3.56 10 4.16 1.28 1.09 1.29 1.59 1.09.59.69.1 1.39-.3 1.98-1.09 1.68-.69 1.39-.1 1.58.3 1.79.59 1.78.99 1.48 1.29.79.69.8 3.07 1.28 3.27.5 1.78.2 2.18.39 1.98.6 1.39 2.57 3.16.4.9 1.08.79 2.38 2.47 2.48 3.07.89 1.88.69 5.15v1.29l2.57.2.4-.2 1.29-1.49.79-.69 2.08-1.09 1.19-.49 3.16-.5h1.49l4.06.79 2.37.2 1.79.89 1.28.1 1.98-.59.8-.7.49-.59.49.4 2.58 1.38 1.58 1.59 2.28 3.46 1.98 2.87 2.38 1.98 2.27 1.49 2.08.3 3.07.09 2.48-.09 2.07.19 1.29-.1 4.56-2.07.79-.1.49.19.6.7v1.09l-.5 3.56v1.49l.5 2.08.59 2.57 1.19 2.28.69.99 3.47 4.45 1.68 1.98.69 1.39.3 2.38v1.78l.1 2.47.3 1.49.79 1.88 1.28 1.78 1.49.79 2.97.99 4.36.7 4.15 2.77 4.76 2.57 4.15 1.49 3.07 1.29.8 1.68.49 1.78.4.4.49 1.38.3 3.27-.1 1.49-.5 2.67-.59 2.47.1.89.49.8.2.19.6-.09.59-.3 5.74-5.84 1.69-.89 3.86-1.19 2.47 6.73-31.18 141.39-2.38 15.44-12.28 40.4-6.43 21.09-28.31 71.88-2.38 8.61-39.01 139.9 35.15 10.4 18.51 5.54-22.87 50.5-.3-.89-.49-2.68-1.78-6.93-.5-3.26v-2.58l.6-2.57-.3-2.87-.79-1.29-1.39-1.39-1.68-.49h-1.58l-1.89.3-2.77.89-3.07 1.58-4.25 2.77-1.59 1.39-.69 1.58-.5 2.18-.99 2.68-.59.99-1.58.09-1.88-.49-1.09-.5h-1.09l-2.97 1.29-2.58 1.78-1.68.99-1.58.5-2.18.2h-1.78l-3.77-.5-1.18.3-.7.69-.59 1.09-.99 5.55-1.19 2.77-1.29 1.88-1.58 1.78-1.98 2.58-1.29 2.57-2.27 5.74-1.19 1.09-1.88.99-1.98.5-2.68.29-3.26-.19-2.68-.7-1.68-.79-.99-.89-.59-1.29-.2-.99.3-4.55-.5-1.29-1.29-1.19-1.09-2.28-.29-1.48v-1.58l-.6-3.07-1.98-7.53.2-3.76.69-1.58 1.29-1.79 1.09-2.27.79-2.08 1.59-5.85.59-1.28-.4-1.98-.19-1.69-.3-1.48-.59-1.49-.6-.79-2.08-1.58-1.38-.4-1.19-.69-.79-.79-.6-2.58-.29-2.18-.5-1.48-.49-.89-.1-.1-1.79-.5-.98.1-1.09 3.27-1.49 3.76-2.67 5.94-2.97 5.15-1.59 1.59-.79 1.08-.3 1.39-1.28 3.07-1.59 2.38-2.87 3.46-1.19.99-2.47 1.59-4.55 3.76-1.88 2.57-.8 1.39-.79 3.86-2.28 6.73-1.18 3.27-1.09 1.88-1.59 1.88-1.68 2.48-.69 1.78-.1 1.29-.4 1.68-.99 2.08-.89 2.47-.3 1.79.1 1.78.4 1.29.69 1.18 2.58 2.28 2.77 1.98.39.89-.49.89-.99 1.39-4.85 2.87-3.17 2.28-.69.79-.99 2.48-1.39 2.87-.3 1.09 6.84 1.78 1.88 3.37 1.68 2.87v2.37l-1.19 2.58-3.66.99-3.07.1-2.28.89-3.36 4.95-3.87 2.97-7.32-.5h-3.27l-1.98 2.08-1.38 2.08-1.98 1.49-2.58 1.09-4.45 7.52-9.51 15.84-7.62 8.52-9.5 5.34-11.98 4.76-10.1 2.07-5.64 1.59-3.27 2.08-7.72 7.52-6.14 13.96-6.34 9.61-10.29 8.51-7.43 1.78-2.87-.39-2.08-.2-1.98-1.48-1.98-4.46-1.58-3.56-1.39-1.09-2.47-.5-2.28-.1-2.67 1.29-2.18 3.07-2.97 6.63-3.47 4.06-2.17 1.78-6.83 4.95-5.75 5.15-4.16 4.95-1.68 1.39-1.38 3.07-2.08 5.54-2.87 3.17-4.36 3.27-5.74 5.94-2.48 1.19-4.35.2h-.3l-8.91 3.46-7.03 2.08-6.93 2.48-4.95.49-3.36-.79-.5-.3-4.85-3.07-4.65-3.07-1.79-1.38-4.65-2.68-3.07-2.67-2.87-2.28-4.75-2.27-2.58-2.78-2.47-1.88-3.47-.69-3.86 1.19-7.82 1.28-7.32.4-4.26 1.29-8.51.69-10.6.69-7.32 1.09-6.74 4.85-7.42 12.38-5.44 7.62-4.36 3.87-3.57 1.78-3.46 1.29-2.77 1.08-5.05.1h-4.85l-2.97-.19-3.47-.5-1.48-.4-2.08-.39-.99-.1-2.28-1.09-5.64-2.48-7.82-1.98-2.58-1.08-.89-.5-.89-.1-3.17-.79h-5.14l-8.42 1.88-2.57-.4-2.28-.19-3.07.49-2.28 1.19-3.06 2.47-2.18.7-2.28-.5-1.78-.89-3.57-.79-10.19 1.29-1.39.59-5.05 3.07-1.78 1.29-.99 1.48-1.19 1.88-1.68 2.18-.99 1.09-1.58 1.09-3.07 1.19-.99.2-1.19.19-1.78.1-2.18-.39-7.23.29-1.88.6-6.83 3.56-5.74 1.09-3.27 1.49-2.18.19h-2.97l-5.34-.29h-1.49l-4.85.49-3.37-.2-2.57-.89-5.54.6-1.29-.1h-2.28l-3.17.3-.89.09-2.17.2-3.47-.1-5.45.3-1.28.1-5.84.49-6.14 1.39-4.75.5-6.44.29-2.57.99-1.39.4 1.29 5.25-5.25-.8v-3.36l-1.38.3h-1.29l-7.13 2.07-3.37.5-3.76.89-2.87-.3-29.5 8.52-4.06 3.86.4 2.77-1.59.3-2.27.59-.99.4-.5-.4-.1-.29-12.67 5.84-3.07 1.09-3.37-.6h-.79l-1.09.5.3 2.57.3 1.69.59 3.76.79 5.94.6 3.76.79 8.12.1 2.28.1 2.47-.2 2.38-.4 2.77-7.72 1.19-4.85.99h-1.29l-2.67-.2v-1.48l-1.19-3.77-.29-2.27-.1-.99-.1-6.34-.5-2.87-.99-2.58-.39-.59-.99-.4-2.58.1-1.18.2-4.36 1.49-1.88.89-7.92 3.56-3.47 1.09-.29.5-.4 1.48-.1 1.19.2 2.37.2.8.29 1.28.8 1.98 2.37 4.76-1.28 8.51-.4 4.26.1 2.38.2 2.07.69 5.05.49 1.49.99.3 2.18-.1 6.63-1.19.1 1.78-.59 1.09-.4 2.28-4.95.79-9.7 1.78-.79-12.47-1.78-28.52-13.47 4.75-.59.4-.5 1.29v1.68l.9 11.19.59 9.11.2.69 1.48 1.49 6.14 5.14.79.1.6 6.24-11.09 1.88z" stroke-linejoin="round"/></defs><use xlink:href="#g" fill="#09757a" stroke="#00465f" stroke-width="5.76"/></svg>