<svg width="384" height="4.78in" viewBox="0 0 2880 3438" xmlns="http://www.w3.org/2000/svg" xmlns:xlink="http://www.w3.org/1999/xlink"><path fill="#fff" d="M0 0h2880v3438H0z"/><defs><path id="a" d="M826.99 2476.43l-1.29-1.82-7.63-6.99-12.79-12.03-6.01-5.59-18.59-13.1-4.3-2.26-2.26-.32-1.18.54-2.58 2.57-1.61-.21-10.42-5.37-7.09-4.08-10.1-5.05-4.94-3.33-3.23-3.12-3.65-4.62-11.39-17.19-4.83-8.81-2.47-8.38-11.29-54.26-4.29-17.94-3.55-12.89-2.69-5.59-5.8-10.2-2.68-3.23-19.77-25.67-3.33-4.95-.54-2.04-.97-3.33-.21-3.11 9.45-27.4.65-5.16-1.29-5.37-16.76-28.47-2.9-6.45-2.48-7.2-.96-3-2.26-10.86-.21-15.25-2.15-9.67-2.9-9.78-4.84-9.24-13.11-15.25-6.55-9.03-4.94-8.06-3.98-9.24-13.64-34.27-3.98-12.57-3.44-15.68-7.52-60.92.32-7.2.76-5.59 1.18-4.08 2.25-3.76.97-.64 2.8-1.83 2.9-.86 5.15.43 2.15-.11 12.14-.53 4.52.21 4.83.86 20.84 5.37 1.94-.86.54-2.15 8.27-6.34 7.41-8.27 1.18 1.51.76.96.64.76 3.12-1.72 3.54-6.24 4.3-8.38 2.47-5.37 5.8-10.53 1.4-2.47.54-2.15.75-3.86 1.4-4.09 1.29-4.83.75-3.12 1.18-2.36 2.69-3.98 2.04-2.04 2.36-2.04 1.83-.54 2.36-.53h3.22l3.01-.22 2.26-.21 2.26-.86 2.36-1.08 2.58-2.04 1.82-2.25 1.4-.97h1.72l1.4-.11 1.07-.54.86-1.18-.11-1.61-.1-1.72.32-2.15.54-2.36 3-3.44.86-.96-9.13-9.57-14.93-15.36-13.76-15.04-18.48-19.88-1.29-1.72-15.36-19.01-6.45-7.95-29.97-36.75 8.16-9.24 1.72-2.04 1.18-1.82 1.4-2.26 2.47-3.76 3.12-5.59 3.01-6.55 3-7.52 1.4-3.76 5.37-17.41 3.55-11.82 1.93-4.19 2.37-4.08 2.36-3.44 4.08-5.69 2.26-2.79 1.83-2.04 4.4-4.09 2.04-1.39 2.47-1.4 2.58-.86 2.69-.86 18.26-4.19 5.91-1.4 2.47-.53 20.53-4.95 4.51-1.18 8.81-2.36 6.98-1.94 13.97-4.08 9.67-2.68 9.02-2.58 5.38-1.94 3.33-1.18 2.25-.86 2.47-1.07 3.01-1.4 3.23-1.5 4.51-2.58 2.79-1.72 2.04-1.4 4.95-4.08 6.77-6.34 9.24-8.81 12.03-11.49 6.02-5.81 4.94-4.51 5.37-6.01 7.09-8.49 2.58-3.76 9.88-12.04 5.16-5.26 2.8-2.47 2.14-1.61 3.34-2.26 6.33-4.19 7.2-4.62 11.5-6.66 12.46-6.98 5.27-2.58 6.23-2.69 75.85-26.32 17.73-6.12 19.23-7.09 7.85-2.37 2.79 9.35 20.52-7.41 9.99-3.98 38.58-16.22 40.72-16.87 17.3-8.6 14.39-6.76 7.09-3.55 29.55-14.29 41.9-20.41 26.86-13.11 32.24-12.78 21.7-8.28 5.26-2.15 27.4-10.95 3.44-1.4 28.8-11.28 9.02-3.65 70.27-26.76 8.92-3.43 2.04-.33 2.68-.21 3.33-.32 14.29-.65 2.9-.11.33-.1 10.96-.22 4.62.11 3.97.54 4.62.96 5.37 1.51 2.15.75 3.33 1.4 3.76 1.82 4.19 2.47 4.95 3.44 4.72 3.98 3.87 3.97 2.8 3.12 2.79 3.65 3.97 6.02 14.83 25.57 5.7 9.45 3.65 5.59 4.73 7.2 2.15 2.79 9.99 14.18 56.3 78.75 6.12 8.81 5.05 7.95 3.87 6.45 4.3 7.74 3.86 7.3 3.12 6.66.32.65 1.61 3.65.54 1.07 1.94 4.62 2.04 5.27 9.77 25.68 14.51-40.29 11.39.21-.11 5.37.32 5.7 1.29 5.16 1.72 4.08 2.69 3.65 2.15 2.47 5.37 5.91 9.35 16.76 5.8 11.5 12.25 18.91 12.14 19.98 6.77 10.21 3.97 6.55 9.24 18.16 12.25 27.29 5.37 13.53 2.58 8.81 3.76 6.13 3.98 3.11 5.69 2.37 4.3 1.29 6.02.42 11.92.97h7.52l4.09 1.4 4.62 3.01 4.29 3.65 3.98 3.97 1.72 1.72 6.01 7.95 12.25 24.61 3.44 9.02 2.15 7.52 2.79 12.47 1.4 6.87.54 1.72 6.66 20.95 2.36 10.1 1.72 4.62 1.61 2.9 9.46 10.64 4.3 4.29 10.96 19.34 14.39 34.81 2.15 3.87 4.19 2.79-3.54 2.8-18.91 14.07-12.9 9.78-15.15 11.49-5.48-4.83-6.98-6.34-5.59-5.59-3.54-4.19-2.04-2.57-.33-.33-2.04-3.01-1.82-2.9-5.27-8.59-5.26-8.81-3.01-4.94-3.98-6.99-3.86-6.44-3.12-5.37-3.33-5.91-3.22-5.91-1.19-2.26-8.16-15.79-4.19-8.06-4.84-9.67-.21-.43-1.4-2.9-2.15-5.69-1.72-4.52-1.39-4.72-3.01-11.39-2.9-11.18-2.69-9.99-.75-3.01-1.83-5.69-2.36-5.91-1.08-2.58-.96-2.79-.22-.54-.75-1.5-1.72-3.65-2.47-5.05-2.79-5.81-2.8-5.8-4.19-8.49-4.08-8.48-5.69-11.82-6.24-13.11-62.31 20.84-2.37-6.98v-4.08l.33-2.15.75-1.93 3.76-4.62 2.58-3.98 1.29-3.97.1-3.01-.53-3.23-1.4-3.11-4.19-5.27-3.55-2.47-3.65-.96-2.15-.11-4.3 1.61-18.91 16.87-2.36 1.07h-1.18l-1.94-.75-3.97-3.76-6.88-9.02-2.58-2.15-2.04-.33-3.22.54-4.51 2.47-6.23 4.73-.43.32-13.65 17.3-4.83 6.12-6.24 7.52-15.9 12.04-31.16 22.45 2.05 17.84 1.82 8.7 16.55 26.86 2.47 27.29 2.69 7.09 7.95 20.95 18.8 48.77.64 1.62.33 2.79-.86 1.18-24.93 11.5-26.86 11.6-27.29 12.57-9.24-28.15-36.75 13.11-19.34-50.28-6.01 13.32-10.86 4.3h-10.63l-4.73-14.61-27.4 11.82-27.72 11.81-27.93 12.25-27.51 12.03-14.93 6.67-13.11 5.69-17.41 7.41-10.42 4.52 4.19 10.2 21.17 9.24 14.29 35.99-41.48 10.32-.96-2.9-9.24-17.09-1.94-1.72-1.29-.53-3 .64-13.22 6.13-.86 1.5.54 2.9 3.54 6.12 8.81 13.11.86.75-2.57 2.26-14.83 6.77-24.82 11.6-9.67 4.62-3.22-3.87-4.52-6.01-4.83-6.45-6.23-8.49-4.73-6.44-4.19-6.34-1.29-2.04-8.38-13.32 24.07-11.29-10.43-29.43 5.05-2.58 22.57-7.63-22.67-57.91-8.17-22.02-7.95 1.18-9.45 3.01-11.61 5.15-20.95 10-5.91 3.33-1.61-3.23-18.91-30.51-2.04-3.76-1.51 1.07-4.08.97-10.1-2.9-11.07 7.95-28.25 19.12-3.33 4.09.75 6.34 11.49 33.52.43 1.72.11 1.82v2.26l-.96 2.15-2.26 4.4 24.71-11.92 27.94-13.33 1.39 11.93 29.55 13.75-47.28 71.23-31.15 46.85-34.28-29.76-14.93-15.15-7.09 6.77-15.69 14.82-19.02-24.71-10.31-11.6-9.35-9.67-7.31-6.66-7.09 7.2-5.48 5.58-3.54 3.66-26.97 27.28-2.36 2.48-3.66 3.76-5.37 5.58-8.81 8.49-5.26 3.98-10.1 5.9-24.72 14.4-6.12 3.65-13.75 7.63-5.8 3.65-1.51 1.19 15.58 31.15 3.65 7.42 10.32 18.48 8.06 12.35 10.1 14.08 19.77 27.82 8.27 11.61 10.64 12.89 17.29 19.77 4.62 3.86.33.22 4.4 3.87 4.94 5.26-86.49 139.35-11.6 18.15-9.89 15.37-17.08 28.68-10.74 14.83-24.61 30.3 31.27-4.3-10.85 26.64-10.32 12.68-.86 1.72-3.11 6.34-5.48 13.64z" stroke-linejoin="round"/></defs><use xlink:href="#a" fill="#9dc8ca" stroke="#6bb4d2" stroke-width="5.76"/><defs><path id="b" d="M650.67 1895.84l-7.41 8.27-8.27 6.34-2.69-20.09-3.44-12.25-2.58-5.69-1.93-2.79-5.27-13.11-1.82-2.47-1.83-1.4-5.59-1.82-1.5-.97-3.98-6.45-4.4-4.08-4.84-2.58-8.27-2.04-1.82-1.61-5.27-7.2-2.58-2.15-2.25-1.29-1.83-.21-4.19 1.29-1.29 1.07-2.26.32-1.07-.86-1.29-2.47-5.8-16.65-9.35-17.4-2.04-2.91-3.33-2.9-6.34-6.55-20.85-9.02-17.08-14.51-2.9-2.36-12.89-10.42-8.92-5.16-4.51-2.69-12.57-3.76-10.43-2.25-5.8.96-4.62 1.94-.96.96-1.29 3.12-1.29.64-13.65-3.86-2.79.32-20.63 9.24-6.55 1.72-5.38-1.08-3.86-1.5-15.37-11.17-4.08-4.09-5.48-7.09-2.9-4.51-2.26-2.79-4.08-3.44-8.49-12.57-10.85-13-1.83-4.19-.21-3.44 1.39-5.16-.32-1.61-.97-1.93-12.67-14.51-4.3-3.65-3.55-1.83-6.55-1.93-2.47-1.83-6.77-8.7-7.74-4.51-3.01-2.69-5.26-6.12-1.72-1.61-3.97-2.37-1.83-1.93-3.55-5.48-2.47-2.15-4.08-1.07-1.18-.75-5.91-1.19-7.31.65-2.9-1.72-7.84-1.4-14.29-.53-2.04 1.18-.86 1.5-1.4.32-1.5-.43-1.19-.75-1.93-2.68-6.55-5.81-12.9-7.09-6.98-5.26-4.3-3.12-9.88-9.02-3.01-3.33-4.51-12.68-.22-.86-1.72-9.02-1.18-15.15-.11-8.27 1.18-7.42 5.48-9.24.65-3.97-.32-6.66-.65-3.44-1.72-5.37-5.91-11.39-11.82-21.92-6.01-13.43-2.69-3.76-4.62-9.45-6.98-11.82-3.98-4.51-1.93-1.62-3.87-1.93-1.29-1.29-7.3-11.28-2.48-.75-18.15 8.59-4.3.33-2.79-.97-25.25-12.25-2.58-3.87-1.72-6.12-6.34-34.06-3.55-17.51-6.98-38.03.11-4.09 1.61-1.5 3.87-.86 14.18 2.69 2.79-.43.97-1.94 1.18-4.19.11-19.34-.97-7.95 1.08-4.94 1.72-1.83 5.37-3.11 7.3-5.27 4.3-7.19 19.56-55.44 6.12-23.75 8.7-38.78 2.58-9.67 1.94-3.65 2.36-2.69 12.46-5.16 11.18-3.43 22.99-5.48 14.61-5.59 29.87-10.42 15.9-7.41 5.7-2.69 9.34-7.63 11.18-14.82 7.2-10 6.77-13.53 16.22-32.66 14.18-36.1 13.43-46.42 2.58-9.88 9.35-35.35 5.48-26.86 3.97-23.2.11-3.98-4.19-18.37-.86-6.55v-6.13l2.69-30.3v-5.37l-1.4-15.47-3.54-24.92-1.83-5.27-.65-1.5-2.68-5.59-9.35-16.76-2.26-2.9-3.86-2.79-7.52-3.55-11.82-5.69-4.95-3.44-3.22-3.55-4.4-10.1-3.98-21.7-5.91-31.59-4.62-19.12-4.83-12.46-5.05-9.13-3.76-5.81-6.13-6.33-41.15-27.51-29.65-20.95-25.47-19.66-11.17-10.53-3.44-6.34-2.79-8.27-12.14-54.36-10.1-31.27-10.86-31.8-2.9-13.21-1.29-12.57.33-7.1 1.07-7.41 1.51-5.48 28.15-31.15 5.26-8.38 5.26-9.67 13.01-23.96 5.05-9.35 1.39-6.98-.75-6.45-2.58-9.24.22-2.04 2.25-5.16.97-5.58-.22-3.33-4.19-21.92-1.93-13.11-2.04-8.81-5.7-16.87-1.28-5.48-.86-11.28.86-8.16 3-6.99 1.29-2.79 3.55-4.83 3.01-1.83 1.82-.43 2.26-.54 2.47.11 3.12 1.07 4.19 1.51 3.76 1.29 11.71 6.87 11.28 7.95 5.48 5.16 17.73 21.49 13.97 13.21 20.84 13.97 19.02 15.15 5.8 6.98 8.06 13.32 5.05 11.61 9.24 24.71 5.15 7.95 8.06 7.09 36.32 18.16 11.17 3.44 6.45 1.18 7.73.21 5.48-.43 13.54-4.19 8.6-2.15 6.77-.1 4.4 2.47 8.06 9.56 4.73 4.3 4.83 3.43 6.77 1.94 16.12.54 14.39-1.4 27.19-8.81 17.3-7.31 3 .43 3.12 2.04 4.4 5.16 2.58 1.29 4.09.86 7.73.21 6.23 1.29 4.09 1.51 8.59 8.49 13.65 16.33 14.18 12.46 14.29 11.6 8.59 6.02 9.78 4.08 19.34 9.89 6.34 4.19 8.81 10.74 11.6 20.2 7.74 18.15 3.01 11.39 4.08 10.53 3.44 4.84 3.55 2.57 21.48 11.39 10.64 10.1 2.9 3.12 3.12 2.04 4.83 1.18 12.14.22 18.59-.54 26.32 4.08 15.26-2.25 10.96-2.48 7.63-3.11 3.65 2.47 3.23.32 1.93-.64 2.26-1.51 2.14-.1 1.51.53 3.44 2.37 1.93.53 5.7-1.07h6.76l3.12-.75 15.79-9.99 3.55-1.62h3.01l2.15.76 4.08.1 5.59-1.72 9.45-5.47 11.82-8.28 2.47-.43 4.73.22 3.22-.32 3.12-.97 2.25.21 2.58 1.51 15.69 19.01 3.22 4.95 3.66 7.73 1.39 2.47 1.4 1.51 2.26 1.29 8.27 2.25 2.79 1.29 1.83 1.51 1.4 2.9 3.22 9.67 3.54 7.62 3.44 5.38 5.7 8.27 5.91 5.16.86 3 .1 1.94-.96 4.94.96 7.09.76 1.72 2.04 1.83 3.01 1.93 16.43 10.85 7.96 7.52 2.68 5.05.97 5.16-.32 3.33.1 7.52.86 2.58 3.23 3.54 7.95 7.09 12.14 6.77 12.35 1.29 2.9-.11 14.72-.85 8.17-2.05 5.91-2.79 44.7-29.65 9.45-4.84 5.7-1.61 7.84-.21 10.31 2.57 24.07 7.96 14.5 4.4 14.4 2.58 10.96 3.44 8.17 3.76 5.15 1.61 6.13.32 7.3-.64 4.73 1.39 17.84 9.99 8.06 2.8 8.27.54 6.02 1.71 9.02 5.59 19.23 18.05 5.59 6.02 6.34 7.95 9.35 10.74 7.09 5.8 10.74 5.59 9.13 5.69 9.03 9.24 7.95 8.92 24.82 23.42 3.55 4.51 2.25 7.63 3.01 8.38 4.51 5.59 15.04 14.72 10.64 6.66 3.44 1.4 4.94 2.79 2.47 3.01 1.51 4.19-.65 3.54v3.12l.97 2.79 10.64 20.52 7.09 11.18 5.26 10.2 7.52 21.81 3.66 9.13 4.51 9.24 4.73 5.16 6.01 3.65 8.81 3.44 7.85.97 1.93.86 1.72 2.26.54 2.14-.33 1.72-1.5 1.72-9.24 3.22-6.12 3.77-4.84 3.86-6.77 9.89-2.79 5.48-3.01 8.59-.43 7.84 1.29 6.02 2.69 5.27 10.74 11.49 4.94 4.19 10.1 6.66 3.44 3.12.54.96 2.25 3.77 9.67 25.67 5.59 16.55 6.13 18.37 4.62 7.84 4.51 5.37 13.11 12.36 18.05 17.08 3.33 4.94 3.97 8.71 2.47 6.87 2.47 5.27 4.3 6.44 16.01 21.28 7.84 8.81 1.29 2.79.54 3.22-.86 2.04-.21 2.26.96 1.83 5.48 4.19 5.81 6.23 3 3.76.43 2.68-.21 3.12-1.4 4.19.32 3.22 1.19 3.76 2.14 3.44 4.62 4.08 1.72 2.91.54 2.25-.21 3.12-1.51 6.01.11 6.45 1.72 10.21.11 4.72-2.8 8.92-.96 5.05-.11 2.04v2.9l1.39 4.62 5.91 8.81 3.87 11.18 2.47 9.77.22 3.98-1.18 15.68-.76 3.98-5.69 8.7-1.29.75-1.07.11-1.51-2.26-.75-2.47-1.07-1.18-1.62-.11-2.25 1.51-2.8 2.79-2.14 1.51-3.44 1.29-1.4 1.93-.11 3.11 2.15 7.63 2.15 10.32.65 9.13.96 2.58 4.73 7.41 4.3 8.7 5.05 8.71 7.52 10.2 4.08 6.45 3.01 6.34 3.01 4.72 18.48 24.29 11.92 18.69 3.12 3.76 1.61 2.79 2.9 6.45 2.26 3.97 3.22 3.76 5.59 4.84 15.15 10.31 17.4 10.1 3.23 2.47 1.39 1.83.97 2.36.54 3.01-11.39-.21-14.51 40.29-9.77-25.68-2.04-5.27-1.94-4.62-.54-1.07-1.61-3.65-.32-.65-3.12-6.66-3.86-7.3-4.3-7.74-3.87-6.45-5.05-7.95-6.12-8.81-56.3-78.75-9.99-14.18-2.15-2.79-4.73-7.2-3.65-5.59-5.7-9.45-14.83-25.57-3.97-6.02-2.79-3.65-2.8-3.12-3.87-3.97-4.72-3.98-4.95-3.44-4.19-2.47-3.76-1.82-3.33-1.4-2.15-.75-5.37-1.51-4.62-.96-3.97-.54-4.62-.11-10.96.22-.33.1-2.9.11-14.29.65-3.33.32-2.68.21-2.04.33-8.92 3.43-70.27 26.76-9.02 3.65-28.8 11.28-3.44 1.4-27.4 10.95-5.26 2.15-21.7 8.28-32.24 12.78-26.86 13.11-41.9 20.41-29.55 14.29-7.09 3.55-14.39 6.76-17.3 8.6-40.72 16.87-38.58 16.22-9.99 3.98-20.52 7.41-2.79-9.35-7.85 2.37-19.23 7.09-17.73 6.12-75.85 26.32-6.23 2.69-5.27 2.58-12.46 6.98-11.5 6.66-7.2 4.62-6.33 4.19-3.34 2.26-2.14 1.61-2.8 2.47-5.16 5.26-9.88 12.04-2.58 3.76-7.09 8.49-5.37 6.01-4.94 4.51-6.02 5.81-12.03 11.49-9.24 8.81-6.77 6.34-4.95 4.08-2.04 1.4-2.79 1.72-4.51 2.58-3.23 1.5-3.01 1.4-2.47 1.07-2.25.86-3.33 1.18-5.38 1.94-9.02 2.58-9.67 2.68-13.97 4.08-6.98 1.94-8.81 2.36-4.51 1.18-20.53 4.95-2.47.53-5.91 1.4-18.26 4.19-2.69.86-2.58.86-2.47 1.4-2.04 1.39-4.4 4.09-1.83 2.04-2.26 2.79-4.08 5.69-2.36 3.44-2.37 4.08-1.93 4.19-3.55 11.82-5.37 17.41-1.4 3.76-3 7.52-3.01 6.55-3.12 5.59-2.47 3.76-1.4 2.26-1.18 1.82-1.72 2.04-8.16 9.24 29.97 36.75 6.45 7.95 15.36 19.01 1.29 1.72 18.48 19.88 13.76 15.04 14.93 15.36 9.13 9.57-.86.96-3 3.44-.54 2.36-.32 2.15.1 1.72.11 1.61-.86 1.18-1.07.54-1.4.11h-1.72l-1.4.97-1.82 2.25-2.58 2.04-2.36 1.08-2.26.86-2.26.21-3.01.22h-3.22l-2.36.53-1.83.54-2.36 2.04-2.04 2.04-2.69 3.98-1.18 2.36-.75 3.12-1.29 4.83-1.4 4.09-.75 3.86-.54 2.15-1.4 2.47-5.8 10.53-2.47 5.37-4.3 8.38-3.54 6.24-3.12 1.72-.64-.76-.76-.96-1.18-1.51z" stroke-linejoin="round"/></defs><use xlink:href="#b" fill="#9dc8ca" stroke="#6bb4d2" stroke-width="5.76"/><defs><path id="c" d="M1470.57 2943.57l-14.83-6.98-43.41-17.51-54.04-32.66.75-3.76 2.69-12.25-27.72-10.32-48.67-18.37-11.39-.32-8.71-5.48.11-1.18-6.44-3.65-.65-3.12-5.69-.43-13.97-7.74-55.87-30.94-94.55-52.64-107.44-59.74 12.46-11.28 5.26-6.87.65-2.47.21-4.95-1.39-13.96-4.62-15.05-.86-12.14-1.61-10.42-1.62-4.51-2.57-5.26-6.88-7.42-3.22-5.05-.54-2.04-1.94-6.12-6.23-28.26-2.68-5.8-3.44-3.12-2.9-1.39-2.9.11-2.8-1.62-9.02-8.59-11.39-9.89-5.69-3-4.2-.65-4.19.32-4.4 1.72-4.19 3.55-5.05 7.95-6.77 8.49-2.36.75-2.8-.32-10.42-8.28-9.45-6.34-9.35-7.84-7.63-5.26-8.17-2.9-7.73-5.05-5.27-5.91-8.05-11.18 5.48-13.64 3.11-6.34.86-1.72 10.32-12.68 10.85-26.64-31.27 4.3 24.61-30.3 10.74-14.83 17.08-28.68 9.89-15.37 11.6-18.15 86.49-139.35-4.94-5.26-4.4-3.87-.33-.22-4.62-3.86-17.29-19.77-10.64-12.89-8.27-11.61-19.77-27.82-10.1-14.08-8.06-12.35-10.32-18.48-3.65-7.42-15.58-31.15 1.51-1.19 5.8-3.65 13.75-7.63 6.12-3.65 24.72-14.4 10.1-5.9 5.26-3.98 8.81-8.49 5.37-5.58 3.66-3.76 2.36-2.48 26.97-27.28 3.54-3.66 5.48-5.58 7.09-7.2 7.31 6.66 9.35 9.67 10.31 11.6 19.02 24.71 15.69-14.82 7.09-6.77 14.93 15.15 34.28 29.76 31.15-46.85 47.28-71.23-29.55-13.75-1.39-11.93-27.94 13.33-24.71 11.92 2.26-4.4.96-2.15v-2.26l-.11-1.82-.43-1.72-11.49-33.52-.75-6.34 3.33-4.09 28.25-19.12 11.07-7.95 10.1 2.9 4.08-.97 1.51-1.07 2.04 3.76 18.91 30.51 1.61 3.23 5.91-3.33 20.95-10 11.61-5.15 9.45-3.01 7.95-1.18 8.17 22.02 22.67 57.91-22.57 7.63-5.05 2.58 10.43 29.43-24.07 11.29 8.38 13.32 1.29 2.04 4.19 6.34 4.73 6.44 6.23 8.49 4.83 6.45 4.52 6.01 3.22 3.87 9.67-4.62 24.82-11.6 14.83-6.77 2.57-2.26-.86-.75-8.81-13.11-3.54-6.12-.54-2.9.86-1.5 13.22-6.13 3-.64 1.29.53 1.94 1.72 9.24 17.09.96 2.9 41.48-10.32-14.29-35.99-21.17-9.24-4.19-10.2 10.42-4.52 17.41-7.41 13.11-5.69 14.93-6.67 27.51-12.03 27.93-12.25 27.72-11.81 27.4-11.82 4.73 14.61h10.63l10.86-4.3 6.01-13.32 19.34 50.28 36.75-13.11 9.24 28.15 27.29-12.57 26.86-11.6 24.93-11.5.86-1.18-.33-2.79-.64-1.62-18.8-48.77-7.95-20.95-2.69-7.09-2.47-27.29-16.55-26.86-1.82-8.7-2.05-17.84 31.16-22.45 15.9-12.04 6.24-7.52 4.83-6.12 13.65-17.3.43-.32 6.23-4.73 4.51-2.47 3.22-.54 2.04.33 2.58 2.15 6.88 9.02 3.97 3.76 1.94.75h1.18l2.36-1.07 18.91-16.87 4.3-1.61 2.15.11 3.65.96 3.55 2.47 4.19 5.27 1.4 3.11.53 3.23-.1 3.01-1.29 3.97-2.58 3.98-3.76 4.62-.75 1.93-.33 2.15v4.08l2.37 6.98 62.31-20.84 6.24 13.11 5.69 11.82 4.08 8.48 4.19 8.49 2.8 5.8 2.79 5.81 2.47 5.05 1.72 3.65.75 1.5.22.54.96 2.79 1.08 2.58 2.36 5.91 1.83 5.69.75 3.01 2.69 9.99 2.9 11.18 3.01 11.39 1.39 4.72 1.72 4.52 2.15 5.69 1.4 2.9.21.43 4.84 9.67 4.19 8.06 8.16 15.79 1.19 2.26 3.22 5.91 3.33 5.91 3.12 5.37 3.86 6.44 3.98 6.99 3.01 4.94 5.26 8.81 5.27 8.59 1.82 2.9 2.04 3.01.33.33 2.04 2.57 3.54 4.19 5.59 5.59 6.98 6.34 5.48 4.83 3.98 3.76 2.47 2.15 2.26 1.72 3.33 2.04 4.62 2.58 7.73 3.87 4.73 2.36 3.44 1.08 4.62 1.29 4.08.75 5.37.64 2.8.43 3.33.54 3.22.86 3.44 1.29 2.47.97 1.93.75 3.98 2.04 2.15 1.18 9.45 6.45 3.01 2.79 4.09 4.08 2.14 2.05 4.95 4.94 2.36 2.58 10.64 11.49 6.34 6.56 10.63 9.99 9.46 8.7 13.11 12.14 19.66 18.05 19.34 17.94 9.34 8.81 6.77 4.62 10.21 2.26-.11-14.94.22-4.08.86-5.91.96-4.51.65-2.79 2.04-6.02 2.04 1.72 2.69 2.47 2.68-2.79 3.76-3.12 4.73-2.69 5.8-5.47 2.37-1.51h2.15l2.04 1.72 1.29 1.61 2.36 9.99 1.94 4.95 7.52 8.7 3.33 4.73 2.04 1.18 7.2.96 6.12-1.29 1.61.76 1.72.75 1.61 1.4.76 2.68.64 10.64 1.72 6.87 1.83 4.84 5.05 7.84.86 3.55-.97 7.62-1.83 2.91-1.93 1.28-2.15.54-1.4 3.23.32 3 1.08 2.69 3.54 3.87 10 9.24 7.52-2.04 14.29-1.29 11.39 1.72 16.01 3.43 9.88.22 6.12-1.4 18.91-8.92 5.38-.86 2.36 7.63 2.26 10.75.75 13-.43 5.48-1.83 10.52-3.65 11.07-3.12 6.12-5.69 8.49-7.84 8.06-5.48 4.19-9.78 6.23-33.2 20.2-14.29 8.81-1.93.97-1.83.86-1.83.96-11.17-23.31-1.61 1.29-3.98-8.06-8.7-18.16-16.12-33.41-10.31-22.56-2.8-6.23-7.52-19.77-1.18-3.76v-3.76l-2.58-5.7-3.11-1.72-1.4-.53-.86-.22-.86-.1-1.18.21-1.08.32-1.07.75-.86.65-.75 1.18-.54 1.18-.43 1.61-.11 1.19-.1 1.18.64 6.98 2.69 5.27 3.01 5.69 7.19 13.86 1.4 3.22.86 2.9.75 3.44.54 2.69.43 5.69v2.69l-.22 2.58-.53 3.43-.86 3.44-1.18 3.87-1.62 3.65-1.61 2.47-1.29 2.05-2.79 3.33-3.22 2.9-2.69 1.93-1.4.75 2.15 24.82-20.84 4.94-.75.11-52.44 31.91-10.2-22.78-20.2 10.1-6.02 3.76-5.37 3.65-6.98 5.16-5.27 4.51-8.38 8.49-4.94 5.48-15.26 19.66-6.66 9.56-4.41 5.91-4.4 5.91-3.98 5.37-7.41 9.24-11.71 13.76-10.96 11.92-36.42 39.32-2.15 2.47-.75 4.09-.86 1.29-1.18 1.07-5.7 6.34-6.77 7.73-23.1 25.57-1.29-1.71-.86-1.29-.86-1.29-9.67-11.71-1.18-1.29-4.19-4.94-11.71-13.22-13.32 14.83-16.87 22.77-33.95 41.69-14.29 25.68 17.62 18.15 3.11 2.58-6.44 6.45-19.99 22.24-27.29 29.01-48.45 54.14-70.49 78.33-34.7 39-1.29 1.61-8.92 10.96-9.99 13.21-17.73 24.71-2.58 4.08-15.68 19.99-17.52 24.39-17.08 24.28-.75 1.72-4.09 6.44-4.83 7.63-3.87 7.31-1.39 2.79-1.4 2.9-3.22 8.17-4.19 14.07-2.26 7.31-.32 1.39-1.4 4.84-5.16 18.05-1.93 6.12-5.16 16.33-.97 3.12-.86 3.33-1.5-1.08-1.29-3.01-.97 3.55-.75 2.47-.64 2.04z" stroke-linejoin="round"/></defs><use xlink:href="#c" fill="#6bacaf" stroke="#097d9b" stroke-width="5.76"/><defs><path id="d" d="M2410.69 3370.42l-6.34 29.98-2.9.32-3.33.43-4.62.11-24.28.32-25.68.21-11.6.11-7.42.22-8.7.32-8.7.54-14.08 1.39-34.49-16.11-2.15-.97-3.01-1.29-9.77-5.8 8.59-2.69 7.42-1.72-.22-.1-1.07-.43-10.53-4.3-4.3-2.04-11.39-3.98-14.61-.96-10.21-6.34-74.03-41.37-140.32-84.66-3.54-2.15-6.66-3.76-8.06-5.48-6.77-6.87-5.27-5.05-12.35 1.07-32.13-27.72-7.52-7.41-27.29-13.21-6.87-3.23-11.82-5.8-3.01-1.61-10.96-6.12-13.65-3.23-43.51-26.1-39.32-20.53-43.41-22.99-41.9-22.34-33.85-13.22-26.11-19.12-30.3-15.9-30.29-16.01-40.83-22.56-31.81-22.67.86-3.33.97-3.12 5.16-16.33 1.93-6.12 5.16-18.05 1.4-4.84.32-1.39 2.26-7.31 4.19-14.07 3.22-8.17 1.4-2.9 1.39-2.79 3.87-7.31 4.83-7.63 4.09-6.44.75-1.72 17.08-24.28 17.52-24.39 15.68-19.99 2.58-4.08 17.73-24.71 9.99-13.21 8.92-10.96 1.29-1.61 34.7-39 70.49-78.33 48.45-54.14 27.29-29.01 19.99-22.24 6.44-6.45-3.11-2.58-17.62-18.15 14.29-25.68 33.95-41.69 16.87-22.77 13.32-14.83 11.71 13.22 4.19 4.94 1.18 1.29 9.67 11.71.86 1.29.86 1.29 1.29 1.71 23.1-25.57 6.77-7.73 5.7-6.34 1.18-1.07.86-1.29.75-4.09 2.15-2.47 36.42-39.32 10.96-11.92 11.71-13.76 7.41-9.24 3.98-5.37 4.4-5.91 4.41-5.91 6.66-9.56 15.26-19.66 4.94-5.48 8.38-8.49 5.27-4.51 6.98-5.16 5.37-3.65 6.02-3.76 20.2-10.1 10.2 22.78 3.98 10.42 3.55 10.74 33.95-12.57 1.93-.21 1.72.64 1.83 2.37 7.41 22.13.43 3.33-.43 1.61-.86.97-1.72 1.07-33.52 12.36 15.15 45.98 10.64-4.3 2.15-.32 12.67 3.76 2.26-.32 34.49-14.83 40.4-17.62 29.44-13.1 4.4-2.05 2.58-1.28 1.83-.86 3.44 7.3-1.72.86 22.24 42.65 14.5 31.91-.43 4.52 6.99 12.78 1.39 2.58 8.6 19.23 9.77 29.65 4.95 18.59 5.37 12.14 6.88 22.99 3 12.03 18.91 91.86 8.71 42.12 2.79 11.6 3.65 17.3 8.49 54.26-5.26.75 13.21 95.62.75 3.65 19.77 83.8-4.08-1.07-8.7-3.01-3.44-1.18-4.73-1.18-1.18-.22-3.44-.64-4.4-.97-4.62-.75-4.19-.43-4.84-.33-4.4-.1-5.38.21-6.44.22-5.59.32-5.48.75-5.69.75-6.77 1.19-5.59 1.18-4.94 1.18-4.94 1.29-4.52 1.18-4.4 1.4-4.08 1.39-32.77 12.36-15.8 5.91-2.36.96 2.9 2.26 6.02 4.73.64.96 4.73 4.19 2.9 3.12 3.97 3.76 11.61 11.71 2.15-.86 26.11-9.24 18.05-5.15 19.98-3.12 21.6-1.07 8.38.21 9.56.11.54.11 11.92 1.5 8.38 1.72 8.17 2.15 22.13 6.77 7.52 2.47 6.23 2.15 14.94 1.71 2.58.54 5.05 1.18 33.63-.32-3.33-4.19 6.12-4.62 15.04 4.08 11.71 2.8 11.93 2.25 11.82 1.72 11.92 1.29 5.16.32 5.37.11 3.55.11h9.78l9.13-.43 2.69-.22 9.13-.75 7.52-1.18 9.35-1.29 3.65-.86 1.72-.43 19.12-5.16 6.34-1.71 12.25-4.19 1.51-.43 9.34-3.76 7.2-3.23 4.41-2.15 3.65-2.04 5.05-2.58 5.05-2.79 4.83-2.9 5.05-3.22 4.95-3.23 3.33-2.25 2.04-1.51 2.25-1.61 7.85-6.12 7.95-6.56 5.16-4.4 6.01-5.37 3.12-3.23 5.05-5.05 13-9.45 1.93 2.58 8.49-5.37 2.58-3.23 3.12-4.08 3.54-5.05 1.94-2.47 1.39-2.04 9.78 6.12-2.36 3.44-3.23 4.94-6.55 9.57-3.76 5.37-2.8 4.08-2.9 4.3-4.08 6.66-1.61 2.25-1.83 2.58-2.68 3.44-3.66 4.94-4.62 5.59-5.8 6.66-2.47 2.47-3.33 3.12-4.73 4.51-4.19 3.55-4.3 3.43-3.76 2.9-4.08 2.91-2.58 1.93-4.4 3.11-6.24 3.55 6.67 6.12 2.79 2.48 2.36 1.93 5.91 4.62 4.3 3.11 2.69 2.05 2.9 1.82 2.15 1.29 2.25 1.08 1.4.53 2.36.97 2.8.75 2.15.32 2.47.11h2.04l3.33-.43 4.19-1.07 4.3-1.29 31.69-9.35-27.61 107.87 5.8 94.01-9.45 20.19-12.9 12.68-3.22 2.8-4.51 3.76-4.62 3.54-4.73 3.44-4.83 3.54-6.88 4.3-8.7 5.37-8.71 4.3-2.36 1.08-7.31 3-22.45 9.35-4.84 2.04-27.07 11.07-2.8 1.18-9.45 3.87-9.78 4.62-12.57 6.23-.21.11-8.38 4.62-7.63 4.72-6.13 3.98-6.87 4.51-4.19 2.9-4.62 3.55-8.81 6.55-13.11 10.85-14.51 12.25-20.3 16.65-6.66 4.95-2.15 1.71-1.62 1.29-1.93 1.62-3.76 2.47-3.65 2.47-1.83 1.07-3.87 2.58-6.23 3.76-5.26 3.12-4.95 2.9-3.43 1.82-3.33 1.72-3.66 1.83-5.59 2.79-6.01 2.8-6.66 2.79-5.81 2.26-4.62 1.82-5.15 1.83-4.94 1.82-6.13 1.83-10.1 2.9-22.35 4.94-5.15.97-1.94.43-1.29.11-3.65.54-7.31.75-8.27 1.07z" stroke-linejoin="round"/></defs><use xlink:href="#d" fill="#09757a" stroke="#00465f" stroke-width="5.76"/></svg>