<svg width="9.04in" height="384" viewBox="0 0 6511 2880" xmlns="http://www.w3.org/2000/svg" xmlns:xlink="http://www.w3.org/1999/xlink"><path fill="#fff" d="M0 0h6511v2880H0z"/><defs><path id="a" d="M3233.73 2821.8l-3.26 2.04-4.07 1.22-38.86 1.42-19.53-.2-83.22 1.83-28.69.41-39.88 1.42 2.65-28.89.2-11.6-.41-6.92-1.01-6.31-2.65-10.79-1.63-4.68-3.66-8.75-5.29-9.97-4.27-6.71-2.24-2.85-2.65-2.85-9.36-9.16-6.71-5.9-9.97-6.51-5.29-2.44-5.49-2.24-10.18-2.65-5.9-.81h-11.6l-7.32.61-.41-35.61-.81-35.2-.82-55.56-.2-15.87.2-18.52-.4-47.21-.41-8.14-1.02-30.11-.61-34.8-.4-83.23-.21-15.46.21-17.71.61-12.41-.21-36.42-.61-15.26v-3.26l.21-1.43.2-1.42.2-1.63-.2-1.83v-1.63l-.2-2.24v-1.83l-.41-25.23-.2-14.85-.21-1.43-.41-1.22-.4-.61-.82-.61-1.42-.2h-2.03l-2.85-.21-1.83.21-.21-161.98 4.89-.41 1.01-1.22.82-1.22.4-3.26.41-4.07-.81-15.67-.61-5.69-.61-8.35 20.14-6.71-.81-35.41-5.3-26.25v-4.27l-.2-3.87-.41-4.68-13.83-136.74.61-2.24-.41-2.45-.2-2.84-.2-4.28-.21-4.88v-14.25l-.2-24.21v-32.56l-.41-17.3-.41-32.76v-18.11l-.2-5.7v-10.58l-.2-8.54v-9.16l-.21-8.55v-37.85l-1.01-43.34-15.26 1.63-6.11.61-5.69.61-3.06.2-3.46.21-5.49.61-5.9.2-9.77.61h-25.23l-26.45.2.21-2.44-.21-2.85-.2-3.25-.2-1.63-.21-1.63-.61-1.42-1.22-3.06-.41-1.22-.2-1.22v-1.42l.2-5.7-.2-3.05-2.24-17.91-.2-1.83-.41-1.63-.61-1.42-.81-.61-1.02-.61-1.22-.41H2792l-3.66.2-2.65-.2-3.46-.2-2.64-.41-3.06-.21-3.25-.2-3.26-.2h-10.37l35.2-54.94v5.69l1.22 11.4 1.63 6.1 3.25 5.09 3.26 2.65 4.07 2.23 5.29 1.63 27.06-.81 50.86.81 23.4-1.63 49.04-7.52h3.87l2.23.2 1.22.61 5.9 5.7 3.26 1.62 1.83.21 7.12-1.02 27.47-6.1 16.08-2.45-.82-6.71 1.02-10.79 5.09-10.98 1.83-5.7-.21-13.23-2.24-13.02-6.51-14.25-17.7-31.13-9.56-15.06-22.79-27.67-12.61-13.43.61-1.63 2.03-7.33v-5.49l-1.83-5.29-3.46-3.06-3.05-6.71-4.27-5.49-2.04-14.25-.41-2.44-.4-16.28 1.22-12.62-1.43-8.34-8.54-5.7-7.94.41-10.58 3.26-10.37 4.27-5.29 4.88-9.16-1.22-8.95-4.48-10.79-9.76-8.14-5.7-21.36-28.9-7.53-8.95-5.49-17.91-24.42-14.44.41-6.92-1.02-16.49-3.86-23.6-7.13-24.01-1.01-1.63-3.87-7.53-4.27-4.07-76.51-85.26-6.71-12.21-1.22-2.24-6.51-5.9-4.28-4.07-6.3-2.65-4.68-4.88-5.29-2.65-5.7.41-6.1-.41-2.24 1.02h-1.43l-1.83.21h-4.07l-2.64-7.94-1.63-5.49-2.44-7.33-1.02-1.43-1.02-2.23-1.01-1.22-1.22-1.43-1.63-2.03-1.22-1.22-1.63-1.23-1.63-1.01-1.63-.82-4.47-2.03-9.97-4.48-4.68-2.03-6.51-3.06-5.7-2.84-3.87-1.84-4.27-2.23-3.87-2.45 2.24-3.66 1.83-4.48 4.48-6.71 3.46-4.48 20.96-17.91 5.08-3.66 7.94-4.68 4.47-1.42 15.88-1.02 1.83-.61 8.95-2.24 22.38-10.58 36.01-23 15.06-11.19 13.43-7.32 9.16 1.01 13.02 4.69 4.47 2.44 11.6 9.36 1.83 2.44 2.24 4.07 6.51 13.84 2.65 3.86 1.42 1.22 2.24 1.02 2.44.61 3.26-.61 7.93-2.85 28.9-13.22 23.8-8.96 8.55-4.68 5.08-3.86 5.7-2.45 5.09-1.01 3.66-.41 8.95-2.24 10.38-2.03 25.23-8.14 15.67-7.33 20.34-12.21 11.19-2.03 6.11-2.65 39.67 1.83 24.42-2.03 23.6-1.22 5.7 2.85 5.7 2.84 8.95-2.84 12.82-4.89 3.46-1.02 11.6-4.47 15.05-5.9 12.82-6.11 10.99-5.7 18.11-11.39 9.15-6.31 1.22-2.04 4.89-3.05 2.85-1.42 2.84-1.22 4.89-2.65 11.39-5.29 11.4-5.49 1.22-.61 4.47-2.24 4.48-2.24 8.75-4.07 13.02-6.1 8.55-3.87 7.12-3.26 10.78-4.27 10.38-3.87 11.39-4.47 3.87-1.43 4.88-2.24 5.09-2.23 3.86-1.84 4.48-2.23 3.05-1.84 7.12-3.86 6.11-3.46 5.49-3.26 9.97-5.49 8.34-4.48 9.36-5.29 6.31-3.66 8.34-4.48 9.57-4.88 8.34-4.07 16.07-7.94 36.22-17.7 31.94-15.47 8.75-4.68 8.14-4.88 6.72-4.48 6.51-4.68 8.34-6.31 6.31-4.68 7.32-5.69 9.97-7.33 18.11-13.63 2.44-1.84 9.57-7.12 10.37-7.93h1.43l1.01-.21 1.43-.4 2.03-.41 3.26-1.02 3.86-1.02 1.43-.2 1.63-.2 3.66-.21 6.71.21h3.06l3.66.4 2.64.61 2.24.41 2.24.82 1.83 1.01 1.43.82 2.64 1.42 1.02.61 3.86 2.04 3.26 2.23 3.05 2.24 3.26 2.85 16.27 13.03 9.77 7.93 6.31 5.29 6.51 5.7 5.29 4.27 5.29 4.07 3.25 2.44 3.26 2.65 3.87 3.26 5.49 4.68 9.77 8.14 31.13 26.04 28.08 23.61 5.9 5.08 3.46 2.45 2.44 81.6-.41 15.05v4.48l.2 13.84-.2 13.84 12.41-1.02 3.46-.2 2.85-.21 2.24-.41 37.23-1.62 2.65 135.52-11.8.61-45.17-14.65 6.51 115.18-1.43 29.5 73.66-2.44 156.06-1.02-.2 9.36.4 26.86-13.83-.2-2.04 16.08.61 6.51 4.07 9.97 7.33 13.23 3.86 5.49 13.84 38.87-13.43.81-103.36.2-17.09 9.16 2.23 133.29-119.84 29.5 1.02 24.42v30.73l1.22 31.34.2 54.53.21 36.83.2 5.91.61 39.47.41 18.93 3.25-.21 2.24 1.23 1.42.2 11.6.2h7.53l1.22-.2 2.04-1.22 27.87-.82 17.91-.4 16.48-.21-61.45 39.07-9.77 98.9-18.92 82.82 1.63 1.22.41 1.22.4 1.43.61 45.78v7.73l1.02 38.26.81 41.92.41 22.99v7.53l.41 16.28.2 23 .21 11.19v5.9l.2 5.09v3.66l.2 11.6.21 12.21.2 8.95.2 4.68.21 3.87v3.87l.2 8.34v3.05l.2 7.12.21 14.45.4 18.31.21 9.98v11.39l.2 12.82 1.02 37.85.61 23.4v10.38l.2 7.53.2 6.92v27.67l.41 56.57.21 2.65.81 37.24v13.83l.2 14.25v3.25l.21 7.13v10.17l.2 7.94.41 19.74v3.86l-.21 10.18 1.43 3.66v2.44l.2 22.39-.81 2.23 1.42 55.15 1.83 108.05.21 8.55v1.83l.2 9.16.2 11.6 1.02 55.75v23l.2 27.27.61 36.62.21 14.04.81 62.48.2 4.27v7.53l.21 2.85.2 3.86-6.51.21h-8.14l-7.53.4h-.4l-6.31.61-5.09.41-6.1.61-6.92.21-13.43.2h-12.61l-59.21.61-33.37.61-13.23.2h-4.47l-18.52-.4-11.19-.41h-4.27l-14.45.2-9.77.21h-1.01l-30.12.4-10.98.21h-11.4l-63.07.61-12.21.2-11.19.2-10.99.21h-11.19l-30.32.61-5.49.2-6.1.21-15.06.2-17.7.2.2 5.09-2.64-.2-3.46-.61-5.7-1.43-4.88-1.02-1.43-.2h-1.42l-5.7-.2-122.08 2.03z" stroke-linejoin="round"/></defs><use xlink:href="#a" fill="#9dc8ca" stroke="#9dd7f0" stroke-width="5.76"/><defs><path id="b" d="M4867.38 2530l-10.58.61-3.26-2.04h-.61l-16.07.41-21.37.2-.2-22.79v-13.63l-.41-27.47-.2-14.65-1.02-39.07-.4-11.6v-14.04l-.21-5.3-.2-6.91-.2-4.68-.21-4.89-.61-5.09-.4-5.29-1.23-2.23-.2-4.28-.41-10.99-.61-29.91v-5.09l1.02-2.44v-2.44l-.2-15.87.2-18.32-.2-6.71-.21-3.26-.4-22.18-.21-4.48v-2.03l-1.42-2.44-.41-24.22V2192l-.81-37.24-.2-6.92-.21-24.62-.2-12.41-.21-18.32-.2-2.64v-12.82l-.2-4.89-.21-11.39-.61-15.87-.2-12.62 1.02-2.04v-7.32l.2-7.73v-4.89l-.41-17.5-.61-26.25-.2-4.88-.41-14.45-1.22-1.83-.4-33.98-.21-5.3-.2-16.27 1.22-2.04.2-2.44v-27.88l.41-2.64-2.03-7.94v-3.46l-.21-7.33-.4-27.26-.21-8.55 1.63-2.85v-1.02l.2-3.46v-3.86l.21-11.4v-11.39l-.41-17.71-.61-24.01v-6.51l-.61-20.55-.41-7.94-.2-2.44-.21-5.9-1.83-3.05v-3.26l-.61-17.09-.4-9.36-.21-20.56-.2-18.72-.61-37.44-.61-33.98-1.02-52.1-.2-6.92-.41-18.92 1.02-2.24v-37.85l-.41-16.68-.81-16.69-.41-7.53-.2-3.46-.41-1.42-.41-8.14-.2-12.62v-16.89l-.2-9.77v-9.15l-1.22-44.57-.21-14.04-.81-40.49-.61-34.19-.21-28.69-.2-20.76v-33.78l-.41-32.15v-35.2l-.2-8.35v-35.2l-.61-52.91-.2-22.79-.21-29.71-.81-44.77-.41-8.95-.61-49.24-.81-45.38v-24.01l-.82-54.74v-18.32l65.72-.61h9.57l23.4-.61 54.32-1.42 61.04-.82 19.74-.2 2.44.2 2.65.21 12-.21 32.96-.2 18.31-.2 10.79-.21 2.64-.2 19.33-.2 11.4-.21 19.12-.2 6.31-.2 20.75-.82h1.84l27.46-.4h2.24l8.96-.21 16.27-.41 19.33.21h7.94l2.44-.21h1.22l11.39-.2 51.28-1.22 28.28-.61 13.63-.2 13.23-.21 28.89-.61 30.52-.61 16.89-.2 29.3-.61 13.83-.21 39.48-.81 10.78-.2 6.92-.21h1.83l25.23-.4 21.16-.21 27.27-.4 10.98-.21 9.57-.2 22.38-.41 19.33-.2 22.58-.41 6.72-.2 15.26-.21 13.63-.2 14.04-.2 28.08-.41 4.07.2 30.11-1.01 1.63-.21 41.3-.4 31.54.61h10.99l16.07.4 1.83-.2h53.72l22.79-1.22h30.72l3.26.2 5.49-.2 1.83-1.02 3.26-1.63 17.9-.2h35.81l22.18-.61 30.93-1.02h16.89l9.76-.2 17.7-2.04 4.89-1.22 6.51-.4h4.07l86.47 5.49 12.41-1.02 8.35-.4h8.54l57.79-.82 19.94-.2 31.53-1.22-21.16 8.14-9.97 3.86-18.31 7.53-5.7 2.24-23.19 8.95-23.4 9.57-17.91 6.71-23.8 9.16-4.48 1.43-6.1 2.03-3.87 1.22-4.27 1.22-4.68 1.22-11.6 2.85-3.05.41-4.88.81-10.18 1.43-15.87 2.03-11.8 1.63-11.39 1.42-11.4 1.63-11.39 1.43-2.04.2-9.36 1.22-11.59 2.24-8.96 1.83-1.22.2-7.53 2.04-5.49 1.63-5.9 1.83-6.92 2.44-6.1 2.24-5.09 1.83-14.44 5.29-4.48 1.83-3.66 1.63-1.22.61-1.02.41-2.04.81-8.13 3.46-8.14 3.66-4.07 1.84-13.84 5.69-7.12 2.65-1.83.81-8.75 3.67-6.92 3.25-1.83.61-8.75 3.66-8.54 4.07-8.75 4.07-8.14 3.87-9.97 4.88-8.14 4.28-8.75 4.47-8.95 5.3-8.35 4.88-8.74 5.29-8.55 5.9-5.7 4.07-5.29 3.87-14.44 10.17-4.68 3.66-3.26 2.65 1.83 1.83.21 1.83.2 3.87-23.6 15.46-12.01 10.59-6.51 11.19-9.77 8.54-4.27 3.87-9.76 8.75-14.45 12.82-14.45 13.02-9.76 8.96-8.35 8.34-.2.41-7.53 9.15-6.31 8.35-9.35 14.65-9.57 16.89-2.24 3.87-3.25 5.9-2.65 3.66-3.05 5.9-3.66 7.12-6.11 10.58-15.05 25.64-10.79 18.52-8.95 15.67-1.42 2.44-4.68 9.16-4.07 8.75-6.72 16.28-1.42 3.66-3.87 10.99-3.05 10.17-.41.82-2.84 10.58-3.06 12.21-1.42 6.31-3.05 11.6-9.97 42.73-7.53 31.74-5.09 20.15-1.63 6.71-1.22 4.89-1.83 10.17-1.83 10.99-.61 3.26-2.44 18.11-.41 3.46-1.22 10.78-2.85 24.42-.61 5.5-3.46 24.82-3.66 24.22-.61 3.86-1.02 6.31-.2 2.65-1.02 5.08-1.42 8.35-1.43 8.75-7.32 38.46-5.09 26.65-1.22 6.72-.2 1.42-.82 4.48-3.25 20.35-1.02 7.94-1.02 7.73-1.22 10.78-.4 4.68-.41 4.89-.41 3.66-1.22 12.21-.81 11.6-.82 15.87v.61l-1.01 20.35-.41 15.47-.61 19.94-.41 12.21-.2 5.9-.61 12.21-.61 16.07-.61 11.6-1.43 21.98L5584 1784l-.21 4.48-.4 5.08-.41 6.11-.61 7.73-1.02 18.11-1.83 28.69-.2 3.67-2.04 27.67-1.02 17.71-2.03 29.3v2.64l-1.22 20.35-.2 4.68-.61 11.4-.21 3.25-.2 1.84-.61 9.36-1.43 21.36-.2 4.28-.61 6.3-.81 10.79-.41 3.66-1.43 25.03-.81 10.99-2.03 30.52-3.06 50.27-1.01 15.46-.41 4.88-6.51 101.14-1.43 21.57-1.62 17.91-1.83 15.87-2.04 14.45-2.44 13.43-2.44 12.61-2.85 11.81-1.43 5.08-6.1 21.57-1.83 5.7-1.22 3.46-2.44 6.92-1.22 3.25-8.35 21.37-1.22 2.85-1.62 3.66-2.65 5.9-3.66 7.33-4.89 9.56-4.88 9.36-5.29 8.96-5.29 8.54-6.31 10.18-7.93-.2h-38.86l-4.89.2-6.51.41-6.92.4-10.78.82-7.33.61-4.06.2-4.07.2h-3.46l-4.68.41-13.02 1.83-1.63 1.02-6.92.2-50.26 1.43h-2.24l-7.32.2-7.73.21-7.33.2-7.32.2-14.86.21-4.47.2-25.84.41-27.06.61-14.04.4-9.77.41-5.09.2-8.34.21-15.87.2-37.23.61-13.64.21h-1.22l-2.85-1.63h-5.49l-11.19.2h-29.5l-18.31 1.02-27.27 1.63-2.44 1.62-4.68.21-35.4.81-18.52.61-7.53.41-22.38.61-7.12.41h-38.66z" stroke-linejoin="round"/></defs><use xlink:href="#b" fill="#9dc8ca" stroke="#9dd7f0" stroke-width="5.76"/><defs><path id="c" d="M64.7 2732.47l-1.01-28.9.4-52.29 106.01-183.35 15.06-26.45 59.21-91.17 89.73-153.83 57.58-94.42 53.71-96.25 7.73-22.19 43.55-122.9 16.48-68.78-2.24-183.96 9.97-181.72 1.02-23.8 1.63-42.74 2.64-17.9 9.97-58.2 4.88-38.67 39.07-184.36 4.07-11.6 19.74-51.28 56.15-152.82-1.42-19.94 16.48-81.19 7.93-33.78 5.7-24.83 4.27-29.1 1.02-49.45-8.14-94.21-.81-6.11-1.22-5.49 3.86-18.11 1.02-2.85 23.4-60.03 10.17-30.52 11.6-21.37 18.72-26.45 46.8-51.49 11.6-14.44 42.93-47.62 61.24-53.11 49.45-20.35 40.28-16.48 4.48-1.83 8.75-3.67 76.91-28.89 4.27-1.63 42.53-17.91 99.09-28.89 132.66-22.39 89.32-1.83 92.78-2.64 22.59.4 1.83.21 6.71.4 51.89 4.48 10.78.81 15.06 3.26 69.79 12.01 27.47 8.75 42.32 14.24 59.21 32.76 13.83 9.77 74.47 53.31 104.99 80.59 216.49 155.46 1.63.82 288.32 163.6 56.36 23.61 50.66 15.46 156.47 35.21 53.71 12 97.26 7.33 10.99 3.25 14.24 7.53 9.77 1.02-6.11 2.65-11.19 2.03-20.34 12.21-15.67 7.33-25.23 8.14-10.38 2.03-8.95 2.24-3.66.41-5.09 1.01-5.7 2.45-5.08 3.86-8.55 4.68-23.8 8.96-28.9 13.22-7.93 2.85-3.26.61-2.44-.61-2.24-1.02-1.42-1.22-2.65-3.86-6.51-13.84-2.24-4.07-1.83-2.44-11.6-9.36-4.47-2.44-13.02-4.69-9.16-1.01-13.43 7.32-15.06 11.19-36.01 23-22.38 10.58-8.95 2.24-1.83.61-15.88 1.02-4.47 1.42-7.94 4.68-5.08 3.66-20.96 17.91-3.46 4.48-4.48 6.71-5.49-3.66-25.23-18.11-21.16-13.43-38.46-25.84-26.45-16.89-40.49-27.07-13.43-10.78-9.36-6.31-18.72-11.8-20.14-13.03-21.97-12.61-19.33-9.16-14.25-5.29-40.49-13.23-77.72-27.27-77.32-25.02-76.1-26.25.41 22.99.41 25.23 1.01 51.49.41 56.77-4.68.2h-6.31l-7.32.21h-13.23l-13.63.2-31.94.41-22.38.4-4.89.21-15.87-.41-17.09 21.98-8.14 12.21 3.87 4.27 2.24 3.66 2.23 5.29 1.02 3.67.61 5.69.41 18.11 16.48-.81 8.14-.2 9.36 45.17 3.25.41 5.29 1.02 14.25 5.9 5.29 1.02 9.36.2.4 8.14 2.04 21.37-.21 5.69-2.84-.2-6.92-1.22-4.07-1.22-1.63-.61-5.49-3.67-4.68-3.66-1.43-.81-3.46-1.43-4.88-.81-19.94.61 1.63 43.95v4.28l.41 20.75-.61 3.87.2 9.36.41 16.89-.21 4.07.21 10.17v2.65l.2 12.82.61 32.76.41 24.83.61 32.35.81 58 .81 58.19.41 27.88 1.02 21.57v3.67l-16.69.2-12.61.41-16.07.61-25.23-.21-26.66.82h-2.64l-20.55.61v5.08l.61 51.69.81 64.71.2 47.21.21 2.24.2 28.28.2 20.15.21 11.19.61 45.58.4 16.89v24.22l-.2 8.75-.2 3.05-.21 8.96v22.58l.41 19.94.2 2.45.41 6.71.61 9.57.82 7.52 1.01 6.52.41 2.85 1.02 4.07 1.22 6.51.4 4.27.41 4.27.21 3.46.2 3.06.2 3.45.21 17.1.2 31.34.2 17.09v27.27l.21 11.39v5.9l.2 17.91-.2 7.12-.21 2.65-.4 2.85-.61 3.05-.62 3.46-1.01 4.07-.82 4.27-.4 3.66-.21 3.87v10.79l.21 9.97.2 13.63.2 18.92v5.7l.61 22.79.21 8.35.2 3.66-1.42 3.26-.21 3.05-.4 15.87v20.55l.4 20.96.21 4.48v3.87l.61 26.45 1.62 2.64v2.45l1.63 127.58.21 35.41 1.62 103.38v4.27l-90.54-16.89-5.9 9.97-2.85 3.46-2.85 2.85-2.03 1.42-2.85.21-13.84.81-1.22-1.22-.81-.2-41.51 1.01-30.93.21-50.66.2-21.16.2-57.79.61-20.34-.2h-4.07l-3.26.41-4.27-.41h-3.26l-65.92 1.02-52.9.2h-35.2l-12.62.2-54.93.62-8.96.4-8.13.21-18.93-.21-17.9-.2-16.08.61-68.97.2h-6.31l-22.59.21-21.16.2h-14.24l-6.92.2h-48.22l-52.49.82-6.92.2h-8.14l-16.28.41-56.97 1.63-56.56 1.01-50.26.61v-6.51l-356.68 36.83-2.24.21-96.24 2.44-14.24 23.81-19.94 35.81-20.35 34.59-82.4 143.67-23 35-31.13 45.99-12.2 19.74-22.18 29.71-10.79 12.41z" stroke-linejoin="round"/></defs><use xlink:href="#c" fill="#6bacaf" stroke="#6bb4d2" stroke-width="5.76"/><defs><path id="d" d="M2435.52 2850.7l-12.21 1.22-95.42-2.85-88.31.2h-30.52l-477.74 1.43-.61-45.18-.82-55.75v-34.6l-.81-70.4.2-35.21-.41-29.91-.2-40.09.2-27.27 12.01.61 32.35-.2 2.44-.41 1.43-.81.61-.61.61-1.22.2-2.85.81-32.36.41-51.28.82-85.87 19.32.2 38.26-1.22h5.08l.61-13.02v-19.53l-1.62-103.38-.21-35.41-1.63-127.58v-2.45l-1.62-2.64-.61-26.45v-3.87l-.21-4.48-.4-20.96v-20.55l.4-15.87.21-3.05 1.42-3.26-.2-3.66-.21-8.35-.61-22.79v-5.7l-.2-18.92-.2-13.63-.21-9.97v-10.79l.21-3.87.4-3.66.82-4.27 1.01-4.07.62-3.46.61-3.05.4-2.85.21-2.65.2-7.12-.2-17.91v-5.9l-.21-11.39v-27.27l-.2-17.09-.2-31.34-.21-17.1-.2-3.45-.2-3.06-.21-3.46-.41-4.27-.4-4.27-1.22-6.51-1.02-4.07-.41-2.85-1.01-6.52-.82-7.52-.61-9.57-.41-6.71-.2-2.45-.41-19.94v-22.58l.21-8.96.2-3.05.2-8.75v-24.22l-.4-16.89-.61-45.58-.21-11.19-.2-20.15-.2-28.28-.21-2.24-.2-47.21-.81-64.71-.61-51.69v-5.08l20.55-.61h2.64l26.66-.82 25.23.21 16.07-.61 12.61-.41 16.69-.2v-3.67l-1.02-21.57-.41-27.88-.81-58.19-.81-58-.61-32.35-.41-24.83-.61-32.76-.2-12.82v-2.65l-.21-10.17.21-4.07-.41-16.89-.2-9.36.61-3.87-.41-20.75v-4.28l-1.63-43.95 19.94-.61 4.88.81 3.46 1.43 1.43.81 4.68 3.66 5.49 3.67 1.63.61 4.07 1.22 6.92 1.22 2.84.2.21-5.69-2.04-21.37-.4-8.14-9.36-.2-5.29-1.02-14.25-5.9-5.29-1.02-3.25-.41-9.36-45.17-8.14.2-16.48.81-.41-18.11-.61-5.69-1.02-3.67-2.23-5.29-2.24-3.66-3.87-4.27 8.14-12.21 17.09-21.98 15.87.41 4.89-.21 22.38-.4 31.94-.41 13.63-.2h13.23l7.32-.21h6.31l4.68-.2-.41-56.77-1.01-51.49-.41-25.23-.41-22.99 76.1 26.25 77.32 25.02 77.72 27.27 40.49 13.23 14.25 5.29 19.33 9.16 21.97 12.61 20.14 13.03 18.72 11.8 9.36 6.31 13.43 10.78 40.49 27.07 26.45 16.89 38.46 25.84 21.16 13.43 25.23 18.11 5.49 3.66-1.83 4.48-2.24 3.66 3.87 2.45 4.27 2.23 3.87 1.84 5.7 2.84 6.51 3.06 4.68 2.03 9.97 4.48 4.47 2.03 1.63.82 1.63 1.01 1.63 1.23 1.22 1.22 1.63 2.03 1.22 1.43 1.01 1.22 1.02 2.23 1.02 1.43 2.44 7.33 1.63 5.49 2.64 7.94h4.07l1.83-.21h1.43l2.24-1.02 6.1.41 5.7-.41 5.29 2.65 4.68 4.88 6.3 2.65 4.28 4.07 6.51 5.9 1.22 2.24 6.71 12.21 76.51 85.26 4.27 4.07 3.87 7.53 1.01 1.63 7.13 24.01 3.86 23.6 1.02 16.49-.41 6.92 24.42 14.44 5.49 17.91 7.53 8.95 21.36 28.9 8.14 5.7 10.79 9.76 8.95 4.48 9.16 1.22 5.29-4.88 10.37-4.27 10.58-3.26 7.94-.41 8.54 5.7 1.43 8.34-1.22 12.62.4 16.28.41 2.44 2.04 14.25 4.27 5.49 3.05 6.71 3.46 3.06 1.83 5.29v5.49l-2.03 7.33-.61 1.63 12.61 13.43 22.79 27.67 9.56 15.06 17.7 31.13 6.51 14.25 2.24 13.02.21 13.23-1.83 5.7-5.09 10.98-1.02 10.79.82 6.71-16.08 2.45-27.47 6.1-7.12 1.02-1.83-.21-3.26-1.62-5.9-5.7-1.22-.61-2.23-.2h-3.87l-49.04 7.52-23.4 1.63-50.86-.81-27.06.81-5.29-1.63-4.07-2.23-3.26-2.65-3.25-5.09-1.63-6.1-1.22-11.4v-5.69l-35.2 54.94h10.37l3.26.2 3.25.2 3.06.21 2.64.41 3.46.2 2.65.2 3.66-.2h1.83l1.22.41 1.02.61.81.61.61 1.42.41 1.63.2 1.83 2.24 17.91.2 3.05-.2 5.7v1.42l.2 1.22.41 1.22 1.22 3.06.61 1.42.21 1.63.2 1.63.2 3.25.21 2.85-.21 2.44 26.45-.2h25.23l9.77-.61 5.9-.2 5.49-.61 3.46-.21 3.06-.2 5.69-.61 6.11-.61 15.26-1.63 1.01 43.34v37.85l.21 8.55v9.16l.2 8.54v10.58l.2 5.7v18.11l.41 32.76.41 17.3v32.56l.2 24.21v14.25l.21 4.88.2 4.28.2 2.84.41 2.45-.61 2.24 13.83 136.74.41 4.68.2 3.87v4.27l5.3 26.25.81 35.41-20.14 6.71.61 8.35.61 5.69.81 15.67-.41 4.07-.4 3.26-.82 1.22-1.01 1.22-4.89.41.21 161.98 1.83-.21 2.85.21h2.03l1.42.2.82.61.4.61.41 1.22.21 1.43.2 14.85.41 25.23v1.83l.2 2.24v1.63l.2 1.83-.2 1.63-.2 1.42-.21 1.43v3.26l.61 15.26.21 36.42-.61 12.41-.21 17.71.21 15.46.4 83.23.61 34.8 1.02 30.11.41 8.14.4 47.21-.2 18.52.2 15.87.82 55.56.81 35.2.41 35.61 7.32-.61h11.6l5.9.81 10.18 2.65 5.49 2.24 5.29 2.44 9.97 6.51 6.71 5.9 9.36 9.16 2.65 2.85 2.24 2.85 4.27 6.71 5.29 9.97 3.66 8.75 1.63 4.68 2.65 10.79 1.01 6.31.41 6.92-.2 11.6-2.65 28.89-21.77-1.02-18.31-.4-47.41-1.22-44.76 2.44-146.3-2.44-102.95.4-4.07-.81-7.53-7.73-12.21 10.78-35.61 2.44h-10.98l-77.73 2.85-16.28 1.02-34.79 14.45z" stroke-linejoin="round"/></defs><use xlink:href="#d" fill="#09757a" stroke="#097d9b" stroke-width="5.76"/><defs><path id="e" d="M4473.67 2803.49h-33.37l-26.05.61h-15.46l-23.8.2-21.98.21-6.51.2h-14.24l-6.72.2-31.13.41-4.68.2h-2.44l-20.75.21-19.74.2h-7.12l-6.72.2-6.51.21h-5.08l-23.61.4-33.77.82h-17.09l-11.19.2-11.19-.2-15.88.4h-9.56l-18.31.41-27.88.41-61.24.81-24.21.41h-4.68l-7.12.2h-3.26l-36.22.41-20.95.41-21.37.2h-5.09l-4.88.2h-4.68l-.2-3.86-.21-2.85v-7.53l-.2-4.27-.81-62.48-.21-14.04-.61-36.62-.2-27.27v-23l-1.02-55.75-.2-11.6-.2-9.16v-1.83l-.21-8.55-1.83-108.05-1.42-55.15.81-2.23-.2-22.39v-2.44l-1.43-3.66.21-10.18v-3.86l-.41-19.74-.2-7.94v-10.17l-.21-7.13v-3.25l-.2-14.25v-13.83l-.81-37.24-.21-2.65-.41-56.57v-27.67l-.2-6.92-.2-7.53v-10.38l-.61-23.4-1.02-37.85-.2-12.82v-11.39l-.21-9.98-.4-18.31-.21-14.45-.2-7.12v-3.05l-.2-8.34v-3.87l-.21-3.87-.2-4.68-.2-8.95-.21-12.21-.2-11.6v-3.66l-.2-5.09v-5.9l-.21-11.19-.2-23-.41-16.28v-7.53l-.41-22.99-.81-41.92-1.02-38.26v-7.73l-.61-45.78-.4-1.43-.41-1.22-1.63-1.22 18.92-82.82 9.77-98.9 61.45-39.07-16.48.21-17.91.4-27.87.82-2.04 1.22-1.22.2h-7.53l-11.6-.2-1.42-.2-2.24-1.23-3.25.21-.41-18.93-.61-39.47-.2-5.91-.21-36.83-.2-54.53-1.22-31.34v-30.73l-1.02-24.42 119.84-29.5-2.23-133.29 17.09-9.16 103.36-.2 13.43-.81-13.84-38.87-3.86-5.49-7.33-13.23-4.07-9.97-.61-6.51 2.04-16.08 13.83.2-.4-26.86.2-9.36-156.06 1.02-73.66 2.44 1.43-29.5-6.51-115.18 45.17 14.65 11.8-.61-2.65-135.52 44.36-1.43 121.27-3.86 15.87-.41 31.53-.41 4.68-.2 26.66-.61 146.5-2.65 25.43-.4 80.17-.82 2.64-6.51 85.05-21.77 4.48.2 17.9-3.26 22.79-1.83 6.92-.61 14.65-2.64-1.83-3.87-1.63-4.88-2.04-8.75-.61-3.87.41-3.05 1.83-2.24 1.83-1.42 2.04-1.84 2.03-.81 1.83-1.83 2.24-.2 7.33 3.25 12 6.72 12.01 5.49 47.81 16.28h3.26l6.31-1.22 12.61 1.63 4.88 1.42 5.09 3.05 6.1 4.28 1.22 1.42.21 11.6.81 4.07v2.24l30.12-.82 65.51-1.01 21.77-.21v18.32l.82 54.74v24.01l.81 45.38.61 49.24.41 8.95.81 44.77.21 29.71.2 22.79.61 52.91v35.2l.2 8.35v35.2l.41 32.15v33.78l.2 20.76.21 28.69.61 34.19.81 40.49.21 14.04 1.22 44.57v9.15l.2 9.77v16.89l.2 12.62.41 8.14.41 1.42.2 3.46.41 7.53.81 16.69.41 16.68v37.85l-1.02 2.24.41 18.92.2 6.92 1.02 52.1.61 33.98.61 37.44.2 18.72.21 20.56.4 9.36.61 17.09v3.26l1.83 3.05.21 5.9.2 2.44.41 7.94.61 20.55v6.51l.61 24.01.41 17.71v11.39l-.21 11.4v3.86l-.2 3.46v1.02l-1.63 2.85.21 8.55.4 27.26.21 7.33v3.46l2.03 7.94-.41 2.64v27.88l-.2 2.44-1.22 2.04.2 16.27.21 5.3.4 33.98 1.22 1.83.41 14.45.2 4.88.61 26.25.41 17.5v4.89l-.2 7.73v7.32l-1.02 2.04.2 12.62.61 15.87.21 11.39.2 4.89v12.82l.2 2.64.21 18.32.2 12.41.21 24.62.2 6.92.81 37.24v4.88l.41 24.22 1.42 2.44v2.03l.21 4.48.4 22.18.21 3.26.2 6.71-.2 18.32.2 15.87v2.44l-1.02 2.44v5.09l.61 29.91.41 10.99.2 4.28 1.23 2.23.4 5.29.61 5.09.21 4.89.2 4.68.2 6.91.21 5.3v14.04l.4 11.6 1.02 39.07.2 14.65.41 27.47v13.63l.2 22.79.21 4.28-.21 4.88v17.3l.41 17.09.82 43.34.2 13.64.2 13.63.41 21.77.2 5.09.21 8.14.2 12.41.81 24.63.21 14.65.2 12.61.81 55.76h-3.86l-9.97.2h-10.38l-2.85.21-83.42.81-51.27.61-5.9.21-29.71.4-16.48.21-12.21.2-25.43.61-16.28.2-42.32.82-7.53.2-20.55.2-8.34.21z" stroke-linejoin="round"/></defs><use xlink:href="#e" fill="#004249" stroke="#00465f" stroke-width="5.76"/></svg>