<?xml version="1.0" standalone="no"?>
<!DOCTYPE svg PUBLIC "-//W3C//DTD SVG 1.1//EN" "http://www.w3.org/Graphics/SVG/1.1/DTD/svg11.dtd" >
<svg xmlns="http://www.w3.org/2000/svg" xmlns:xlink="http://www.w3.org/1999/xlink" version="1.1">
<metadata>
Created by FontForge 20170731 at Mon Feb  3 20:31:36 2020
 By Aleksey,,,
Copyright 2019 by GoDaddy LLC. All rights reserved.
</metadata>
<defs>
<font id="GDSherpa-Semibold" horiz-adv-x="1158" >
  <font-face 
    font-family="GD Sherpa Semibold"
    font-weight="695"
    font-stretch="normal"
    units-per-em="2048"
    panose-1="0 0 0 0 0 0 0 0 0 0"
    ascent="1644"
    descent="-404"
    x-height="1000"
    cap-height="1414"
    bbox="-341 -539 2796 2238"
    underline-thickness="82"
    underline-position="-328"
    unicode-range="U+0020-FB04"
  />
<missing-glyph horiz-adv-x="1142" 
d="M159 956h824v-956h-824v956zM897 85v786h-652v-786h652z" />
    <glyph glyph-name="f_t" unicode="ft" horiz-adv-x="1287" 
d="M220 1000v86q0 81 28 145.5t77.5 109t119.5 68t152 23.5q99 0 189.5 -36t164.5 -99v-297h262v-163h-262v-525q0 -86 36.5 -120.5t96.5 -34.5q36 0 71.5 10t58.5 21l1 -180q-25 -9 -71 -17.5t-92 -8.5q-142 0 -220.5 78.5t-78.5 217.5v559h-336v-837h-197v837h-178v163
h178zM417 1000h337v207q-39 27 -78 39.5t-83 12.5q-80 0 -128 -44.5t-48 -129.5v-85z" />
    <glyph glyph-name="f_f_i" unicode="ffi" horiz-adv-x="1698" 
d="M220 0v837h-182v163h182v32q0 87 25.5 161t75.5 127t126.5 82.5t177.5 29.5q88 0 156.5 -21t128.5 -64q50 41 120.5 63t159.5 22q104 0 183.5 -26.5t147.5 -85.5l-104 -150q-48 46 -105 65.5t-126 19.5q-101 0 -154 -52.5t-53 -170.5v-32h563v-1000h-197v837h-366v-837
h-197v837h-365v-837h-197zM417 1000h364v28q0 47 7 90t20 80q-40 30 -84.5 43.5t-98.5 13.5q-101 0 -154.5 -55t-53.5 -164v-36z" />
    <glyph glyph-name="fi" unicode="fi" horiz-adv-x="1088" 
d="M221 1000v28q0 90 23.5 164.5t72 127.5t123.5 82.5t176 29.5q100 0 176 -27t143 -85l-105 -150q-47 45 -99.5 65t-117.5 20q-99 0 -147.5 -53.5t-48.5 -169.5v-32h516v-1000h-198v837h-318v-837h-197v837h-182v163h183z" />
    <glyph glyph-name="fl" unicode="fl" horiz-adv-x="1094" 
d="M938 1293v-1293h-197v1206q-41 27 -81.5 40t-86.5 13q-80 0 -128 -44.5t-48 -129.5v-85h183v-163h-183v-837h-197v837h-158v163h158v86q0 81 28 145.5t78 109t120.5 68t153.5 23.5q100 0 188.5 -36t169.5 -103z" />
    <glyph glyph-name="f_f_l" unicode="ffl" horiz-adv-x="1716" 
d="M205 0v837h-167v163h169v68q0 82 26.5 149.5t75.5 115t121.5 73.5t163.5 26q89 0 163 -22.5t146 -75.5q53 46 129 72t171 26q113 0 204 -38.5t154 -99.5v-1294h-198v1222q-34 22 -77 35t-93 13q-104 0 -157 -46.5t-53 -142.5v-81h211v-163h-211v-837h-197v837h-383v-837
h-198zM403 1000h384v64q0 40 7 76.5t21 69.5q-49 31 -98 45.5t-102 14.5q-107 0 -159.5 -50t-52.5 -137v-83z" />
    <glyph glyph-name=".notdef" horiz-adv-x="1142" 
d="M159 956h824v-956h-824v956zM897 85v786h-652v-786h652z" />
    <glyph glyph-name=".null" horiz-adv-x="0" 
 />
    <glyph glyph-name="nonmarkingreturn" horiz-adv-x="682" 
 />
    <glyph glyph-name="space" unicode=" " horiz-adv-x="505" 
 />
    <glyph glyph-name="exclam" unicode="!" horiz-adv-x="632" 
d="M240 416l-22 1011h196l-23 -1011h-151zM314 -18q-52 0 -88 37.5t-36 88.5t36.5 87.5t87.5 36.5t88.5 -36t37.5 -88q0 -51 -37 -88.5t-89 -37.5z" />
    <glyph glyph-name="quotedbl" unicode="&#x22;" horiz-adv-x="937" 
d="M402 1301q0 -33 -7 -68.5t-15 -79.5t-15 -101t-7 -133h-133q0 76 -7.5 133t-16 101t-16 79.5t-7.5 68.5q0 46 33 79t80 33q46 0 78.5 -33t32.5 -79zM758 1301q0 -33 -7 -68.5t-15 -79.5t-15 -101t-7 -133h-132q0 76 -7.5 133t-16 101t-16 79.5t-7.5 68.5q0 46 33 79
t79 33t78.5 -33t32.5 -79z" />
    <glyph glyph-name="numbersign" unicode="#" horiz-adv-x="1398" 
d="M244 0l92 428h-244v126h271l69 319h-245v127h272l89 414h152l-89 -414h299l89 414h152l-89 -414h244v-127h-271l-68 -319h244v-126h-271l-92 -428h-153l92 428h-298l-92 -428h-153zM516 554h298l69 319h-299z" />
    <glyph glyph-name="dollar" unicode="$" horiz-adv-x="1143" 
d="M503 -251v237q-179 18 -296.5 123t-151.5 272l203 53q20 -116 84.5 -183t160.5 -85v487q-88 38 -156 78.5t-113 88.5t-68 108t-23 138q0 71 26.5 133.5t73.5 110t113.5 78.5t146.5 40v237h146v-239q121 -17 210 -88t141 -192l-188 -58q-29 63 -69 102.5t-94 55.5v-429
q98 -41 173 -84t124.5 -95.5t75 -119.5t25.5 -156q0 -75 -27.5 -140.5t-79 -114.5t-125.5 -80.5t-166 -40.5v-237h-146zM345 1075q0 -73 40.5 -120.5t117.5 -84.5v381q-73 -14 -115.5 -62t-42.5 -114zM838 359q0 85 -48.5 140.5t-140.5 99.5v-435q93 14 141 66.5t48 128.5z
" />
    <glyph glyph-name="percent" unicode="%" horiz-adv-x="1547" 
d="M291 -14l787 1456h167l-786 -1456h-168zM372 848q-59 0 -110 22t-88.5 60.5t-59.5 90.5t-22 112q0 59 22 111t60 90.5t89 61t109 22.5q59 0 110.5 -22t89 -60.5t59 -90.5t21.5 -112q0 -59 -22 -111t-59.5 -90.5t-88.5 -61t-110 -22.5zM372 981q64 0 105.5 43t41.5 109
t-42 109t-105 43t-104.5 -43t-41.5 -109q0 -67 42 -109.5t104 -42.5zM1175 -4q-59 0 -110.5 22t-89 60t-59.5 90t-22 112q0 59 22 111.5t60 90.5t89.5 60.5t109.5 22.5q59 0 110.5 -22t89 -60.5t59 -90.5t21.5 -112q0 -59 -22 -111t-59.5 -90t-88.5 -60.5t-110 -22.5z
M1175 128q63 0 105 43t42 109t-42 109t-105 43t-105 -43t-42 -109t42 -109t105 -43z" />
    <glyph glyph-name="ampersand" unicode="&#x26;" horiz-adv-x="1403" 
d="M1115 0l-165 186q-116 -113 -221 -158.5t-236 -45.5q-84 0 -154 25.5t-119 71.5t-76 111t-27 143q0 126 74 231.5t244 201.5q-34 38 -65 76t-54 78.5t-36.5 86t-13.5 97.5q0 70 29 130.5t80.5 104t122.5 68.5t153 25q76 0 141.5 -23t112.5 -64.5t74 -99t27 -126.5
q0 -118 -70.5 -207.5t-226.5 -182.5l252 -285q48 57 103.5 129t119.5 159l136 -116q-70 -90 -131.5 -164.5t-114.5 -135.5l279 -316h-238zM452 1110q0 -77 43.5 -137t103.5 -124q107 58 165.5 121.5t58.5 138.5q0 70 -49 118.5t-131 48.5q-84 0 -137.5 -45.5t-53.5 -120.5z
M306 342q0 -87 54.5 -138.5t156.5 -51.5q85 0 160 35.5t163 122.5l-295 333q-132 -71 -185.5 -142.5t-53.5 -158.5z" />
    <glyph glyph-name="quotesingle" unicode="'" horiz-adv-x="580" 
d="M402 1301q0 -33 -7 -68.5t-15 -79.5t-15 -101t-7 -133h-133q0 76 -7.5 133t-16 101t-16 79.5t-7.5 68.5q0 46 33 79t80 33q46 0 78.5 -33t32.5 -79z" />
    <glyph glyph-name="parenleft" unicode="(" horiz-adv-x="646" 
d="M308 710q0 -276 75 -489t200 -365h-177q-118 149 -187 361t-69 489q0 278 69 490t187 361h177q-125 -151 -200 -361.5t-75 -485.5z" />
    <glyph glyph-name="parenright" unicode=")" horiz-adv-x="646" 
d="M338 703q0 276 -75 489t-200 365h177q118 -149 187 -361t69 -489q0 -278 -69 -490t-187 -361h-177q125 151 200 361.5t75 485.5z" />
    <glyph glyph-name="asterisk" unicode="*" horiz-adv-x="915" 
d="M544 1432l-30 -226l216 93l49 -152l-233 -36l167 -176l-140 -96l-116 225l-115 -225l-140 96l168 176l-233 36l48 152l217 -93l-31 226h173z" />
    <glyph glyph-name="plus" unicode="+" horiz-adv-x="1300" 
d="M571 206v424h-417v150h417v422h158v-422h417v-150h-417v-424h-158z" />
    <glyph glyph-name="comma" unicode="," horiz-adv-x="654" 
d="M453 76q0 -64 -20.5 -115t-54.5 -89t-79 -65.5t-92 -45.5v129q55 20 81.5 52t26.5 54h-2q-54 0 -88 36.5t-34 87.5t36 87t87 36q27 0 52 -11t44.5 -32t31 -52.5t11.5 -71.5z" />
    <glyph glyph-name="hyphen" unicode="-" horiz-adv-x="872" 
d="M153 655h566v-153h-566v153z" />
    <glyph glyph-name="period" unicode="." horiz-adv-x="604" 
d="M301 -18q-52 0 -88 37.5t-36 88.5t36.5 87t87.5 36t88.5 -35.5t37.5 -87.5q0 -51 -37 -88.5t-89 -37.5z" />
    <glyph glyph-name="slash" unicode="/" horiz-adv-x="858" 
d="M916 1534l-813 -2046h-158l814 2046h157z" />
    <glyph glyph-name="zero" unicode="0" horiz-adv-x="1171" 
d="M592 -18q-158 0 -264.5 71t-169 178t-89 235t-26.5 241t25.5 241.5t87.5 236t166.5 178.5t260.5 71q146 0 250 -66.5t170 -171t97 -234.5t31 -256t-30.5 -256t-95 -233.5t-167.5 -169t-246 -65.5zM588 176q92 0 155.5 49.5t102.5 126t56.5 171.5t17.5 185
q0 91 -17.5 185.5t-57 170t-104.5 124t-158 48.5t-158 -48.5t-104.5 -124t-57 -170.5t-17.5 -186t17.5 -185.5t57.5 -171t105.5 -125.5t161.5 -49z" />
    <glyph glyph-name="one" unicode="1" horiz-adv-x="889" 
d="M443 1059h-283v157q157 0 224 43.5t67 153.5h195v-1413h-203v1059z" />
    <glyph glyph-name="two" unicode="2" horiz-adv-x="1171" 
d="M78 0v27q0 164 111.5 281.5t245 222.5t245 218t111.5 267q0 104 -55 168t-172 64q-75 0 -126.5 -26t-83 -70t-45.5 -103t-14 -125h-205q0 105 32.5 198t94.5 161.5t153.5 108.5t207.5 40q208 0 317 -110t109 -306q0 -154 -88 -274t-201 -216.5t-222.5 -178.5t-152.5 -161
h748v-186h-1010z" />
    <glyph glyph-name="three" unicode="3" horiz-adv-x="1171" 
d="M566 -18q-105 0 -197.5 29t-160.5 85.5t-107.5 141.5t-39.5 197h202q0 -128 83.5 -198.5t224.5 -70.5q65 0 120.5 16.5t96 48t64 79t23.5 109.5q0 64 -24 110t-65 75t-98 43t-123 14h-103v174h106q109 0 174 48t65 158q0 101 -66 155t-172 54q-111 0 -180 -63.5
t-70 -171.5h-194q0 98 35 176t95 131t141 81.5t172 28.5q98 0 179.5 -28t139 -77t89.5 -117t32 -148q0 -103 -44 -172t-125 -117q121 -43 183 -130.5t62 -223.5q0 -98 -36.5 -179t-103.5 -138t-163 -88.5t-215 -31.5z" />
    <glyph glyph-name="four" unicode="4" horiz-adv-x="1171" 
d="M697 0v334h-679v123l701 956h177v-892h228v-187h-228v-334h-199zM283 521h414v580z" />
    <glyph glyph-name="five" unicode="5" horiz-adv-x="1171" 
d="M579 -18q-102 0 -186 30t-147 84.5t-105.5 132.5t-63.5 172l196 53q27 -137 104 -213t202 -76q64 0 119 23t94 64t61.5 98.5t22.5 126.5q0 67 -21 122.5t-59 94.5t-91.5 60.5t-116.5 21.5q-85 0 -155 -33t-128 -108l-179 47l132 732h747v-189h-585l-65 -354
q66 46 134.5 66t140.5 20q96 0 179.5 -34.5t144.5 -97t96.5 -150.5t35.5 -194t-38.5 -198t-105.5 -158.5t-160.5 -104.5t-202.5 -38z" />
    <glyph glyph-name="six" unicode="6" horiz-adv-x="1171" 
d="M588 -18q-104 0 -195.5 37.5t-159 101.5t-106.5 151t-39 186q0 72 25.5 141.5t86.5 170.5l388 643h234l-315 -497q18 9 51.5 13t54.5 3q101 -3 188 -38t150.5 -96t100 -146t36.5 -186q0 -97 -38 -185t-104.5 -154t-158.5 -105.5t-199 -39.5zM589 174q61 0 115.5 23
t95 62.5t64 92.5t23.5 113t-23.5 113t-64 92t-95 62t-115.5 23t-116 -23t-95.5 -62t-64.5 -92t-24 -113t24 -113.5t64.5 -92.5t95 -62t116.5 -23z" />
    <glyph glyph-name="seven" unicode="7" horiz-adv-x="1171" 
d="M852 1225h-770v188h1016v-110l-672 -1303h-226z" />
    <glyph glyph-name="eight" unicode="8" horiz-adv-x="1171" 
d="M585 -18q-96 0 -187 26t-160.5 78.5t-112 131.5t-42.5 184q0 127 66 219.5t173 143.5q-77 49 -120 124.5t-43 170.5q0 88 36 158t95.5 117t136.5 72t159 25q84 0 162 -26t136.5 -74t93.5 -117.5t35 -156.5q0 -96 -45.5 -171.5t-119.5 -121.5q113 -52 176 -145.5
t63 -216.5q0 -106 -42.5 -185.5t-112 -131.5t-160.5 -78t-187 -26zM590 839q49 0 91 14.5t72.5 41.5t47.5 66t17 87q0 50 -17.5 89.5t-47.5 66.5t-72.5 41.5t-91.5 14.5q-45 0 -86.5 -13t-72.5 -38.5t-50 -64t-19 -89.5q0 -97 62.5 -156.5t166.5 -59.5zM584 158
q60 0 114.5 15.5t95.5 47.5t65 80t24 112q0 60 -22.5 108t-62.5 80.5t-95 50t-119 17.5q-65 0 -120.5 -17.5t-95.5 -50t-62.5 -80t-22.5 -107.5q0 -65 24.5 -113t66 -79.5t96 -47.5t114.5 -16z" />
    <glyph glyph-name="nine" unicode="9" horiz-adv-x="1171" 
d="M355 1l314 497q-17 -10 -50.5 -14t-55.5 -2q-100 3 -187.5 38t-150.5 96t-99.5 146t-36.5 186q0 97 38 185t104.5 154t158.5 105.5t199 39.5q104 0 195.5 -37.5t159 -101.5t106.5 -151t39 -186q0 -72 -25.5 -141.5t-86.5 -170.5l-388 -643h-234zM588 658q61 0 116 23
t95.5 62.5t64.5 92.5t24 113t-24 113t-64.5 92t-95 62t-116.5 23q-61 0 -115.5 -23t-95 -62t-64 -92t-23.5 -113t23.5 -113t64 -92.5t95 -62.5t115.5 -23z" />
    <glyph glyph-name="colon" unicode=":" horiz-adv-x="664" 
d="M328 769q-52 0 -88 37.5t-36 88.5t36.5 87t87.5 36t88.5 -35.5t37.5 -87.5q0 -51 -37 -88.5t-89 -37.5zM328 -18q-52 0 -88 37.5t-36 88.5t36.5 87.5t87.5 36.5t88.5 -36t37.5 -88q0 -51 -37 -88.5t-89 -37.5z" />
    <glyph glyph-name="semicolon" unicode=";" horiz-adv-x="660" 
d="M314 769q-52 0 -88 37.5t-36 88.5t36.5 87t87.5 36t88.5 -35.5t37.5 -87.5q0 -51 -37 -88.5t-89 -37.5zM453 76q0 -64 -20.5 -115t-54.5 -89t-79 -65.5t-92 -45.5v129q55 20 81.5 52t26.5 54h-2q-54 0 -88 36.5t-34 87.5t36 87t87 36q27 0 52 -11t44.5 -32t31 -52.5
t11.5 -71.5z" />
    <glyph glyph-name="less" unicode="&#x3c;" horiz-adv-x="1300" 
d="M1156 1047l-823 -345l823 -345l-69 -137l-933 411v142l933 411z" />
    <glyph glyph-name="equal" unicode="=" horiz-adv-x="1300" 
d="M1146 825h-992v150h992v-150zM1146 436h-992v150h992v-150z" />
    <glyph glyph-name="greater" unicode="&#x3e;" horiz-adv-x="1300" 
d="M144 357l823 345l-823 345l69 137l933 -411v-142l-933 -411z" />
    <glyph glyph-name="question" unicode="?" horiz-adv-x="1015" 
d="M394 557q0 119 58.5 175.5t128.5 94.5t128.5 82.5t58.5 139.5q0 105 -66.5 161.5t-188.5 56.5q-132 0 -197 -66.5t-65 -184.5h-175q0 98 32 175.5t89.5 130.5t139 81.5t180.5 28.5q105 0 186.5 -27.5t136 -76.5t83 -117.5t28.5 -149.5q0 -140 -59.5 -210.5t-130.5 -112.5
t-130.5 -77.5t-59.5 -105.5v-143h-177v145zM481 -18q-52 0 -88 37.5t-36 88.5t36.5 87.5t87.5 36.5t88.5 -36t37.5 -88q0 -51 -37 -88.5t-89 -37.5z" />
    <glyph glyph-name="at" unicode="@" horiz-adv-x="2045" 
d="M906 -380q-200 0 -347.5 61.5t-243.5 170.5t-143 260t-47 328q0 209 72.5 391.5t199 315t301 209t376.5 76.5q195 0 352.5 -63.5t267 -176t168.5 -268t59 -337.5q0 -144 -35 -264.5t-96.5 -206.5t-148 -134.5t-188.5 -48.5q-119 0 -184 66t-66 202q-64 -78 -146.5 -118
t-182.5 -40q-84 0 -147.5 29t-105 79t-62.5 118t-21 145q0 119 41.5 232t113 199.5t169 139.5t207.5 53q91 0 154 -37t97 -106l22 100h167q-8 -36 -33 -141.5t-51.5 -228t-47.5 -238t-21 -171.5q0 -69 29 -103.5t86 -34.5q63 0 115.5 43t90 112.5t58 159.5t20.5 184
q0 162 -49.5 292.5t-139.5 221.5t-219 140.5t-286 49.5q-168 0 -310.5 -64.5t-245 -177t-160.5 -266.5t-58 -330q0 -168 46.5 -294.5t130 -209.5t201.5 -124.5t260 -41.5q91 0 170 15.5t161 41.5l48 -148q-96 -31 -187 -46.5t-211 -15.5zM902 203q85 0 150 45.5t109 114
t66.5 150t22.5 153.5q0 97 -44 156t-137 59q-76 0 -142 -40.5t-113 -105t-74 -147t-27 -165.5q0 -107 46.5 -163.5t142.5 -56.5z" />
    <glyph glyph-name="A" unicode="A" horiz-adv-x="1315" 
d="M734 1414l548 -1414h-223l-118 320h-571l-119 -320h-218l547 1414h154zM655 1125l-226 -628h452z" />
    <glyph glyph-name="B" unicode="B" horiz-adv-x="1280" 
d="M199 1414h468q99 0 180 -24.5t137.5 -71t88 -114.5t31.5 -153q0 -99 -40.5 -173.5t-121.5 -123.5q110 -43 171 -134t61 -210q0 -93 -32.5 -169t-92.5 -129.5t-148 -82.5t-198 -29h-504v1414zM694 823q99 0 158.5 52t59.5 152q0 92 -64 147t-185 55h-258v-406h289z
M715 186q123 0 188.5 58t65.5 174q0 104 -66 165.5t-180 61.5h-318v-459h310z" />
    <glyph glyph-name="C" unicode="C" horiz-adv-x="1455" 
d="M771 -18q-151 0 -275 50t-210 143t-133 227.5t-47 301.5q0 165 46.5 300t132.5 229.5t211.5 146.5t281.5 52q224 0 372.5 -100t229.5 -296l-193 -76q-49 137 -148.5 207.5t-260.5 70.5q-108 0 -193.5 -36t-144 -103.5t-89.5 -165.5t-31 -221q0 -125 30 -225t87.5 -168.5
t143 -105.5t194.5 -37q151 0 253.5 67.5t162.5 214.5l191 -78q-83 -198 -234 -298t-377 -100z" />
    <glyph glyph-name="D" unicode="D" horiz-adv-x="1438" 
d="M199 1414h396q180 0 318.5 -47.5t231 -137t140.5 -221.5t48 -300t-49 -300.5t-142.5 -222.5t-232.5 -137.5t-317 -47.5h-393v1414zM593 189q120 0 217.5 29t165.5 91t105 161t37 237q0 268 -125 393t-400 125h-188v-1036h188z" />
    <glyph glyph-name="E" unicode="E" horiz-adv-x="1259" 
d="M199 1414h933v-187h-727v-420h667v-186h-667v-430h727v-191h-933v1414z" />
    <glyph glyph-name="F" unicode="F" horiz-adv-x="1246" 
d="M199 1414h968v-187h-762v-424h670v-187h-670v-616h-206v1414z" />
    <glyph glyph-name="G" unicode="G" horiz-adv-x="1546" 
d="M760 -18q-150 0 -271.5 50t-206 143.5t-130.5 228.5t-46 303q0 163 46 297.5t132 229t211.5 146.5t282.5 52q215 0 366 -97t232 -289l-191 -77q-54 143 -156 211t-252 68q-107 0 -192.5 -36.5t-144 -105t-89.5 -167.5t-31 -224q0 -118 27.5 -218.5t83.5 -173t142 -114
t202 -41.5q101 0 181 33t134.5 88.5t84.5 129t31 153.5h-337v172h531v-744h-164l-17 221q-69 -119 -187.5 -179t-271.5 -60z" />
    <glyph glyph-name="H" unicode="H" horiz-adv-x="1479" 
d="M199 1414h206v-609h669v609h206v-1414h-206v619h-669v-619h-206v1414z" />
    <glyph glyph-name="I" unicode="I" horiz-adv-x="603" 
d="M199 1414h206v-1414h-206v1414z" />
    <glyph glyph-name="J" unicode="J" horiz-adv-x="1147" 
d="M511 -18q-101 0 -184.5 33.5t-143.5 93t-95.5 141.5t-42.5 179l203 23q8 -133 78 -208t185 -75q131 0 194.5 77.5t63.5 260.5v907h206v-906q0 -253 -119 -389.5t-345 -136.5z" />
    <glyph glyph-name="K" unicode="K" horiz-adv-x="1470" 
d="M405 1414v-767l737 767h268l-553 -563l573 -851h-257l-455 709l-313 -319v-390h-206v1414h206z" />
    <glyph glyph-name="L" unicode="L" horiz-adv-x="1092" 
d="M199 1414h206v-1219h621v-195h-827v1414z" />
    <glyph glyph-name="M" unicode="M" horiz-adv-x="1788" 
d="M199 1414h286l410 -1171l409 1171h286v-1414h-198v1131l-402 -1131h-193l-401 1131v-1131h-197v1414z" />
    <glyph glyph-name="N" unicode="N" horiz-adv-x="1442" 
d="M199 1414h207l640 -1068v1068h197v-1414h-206l-641 1069v-1069h-197v1414z" />
    <glyph glyph-name="O" unicode="O" horiz-adv-x="1544" 
d="M772 -18q-170 0 -296 59.5t-207.5 158.5t-122 231t-40.5 276t40.5 276t122 231t207.5 158.5t296 59.5t296 -59.5t207.5 -158.5t122 -231t40.5 -276t-40.5 -276t-122 -231t-207.5 -158.5t-296 -59.5zM772 168q121 0 207 44t140.5 117.5t79.5 172t25 205.5t-25 205.5
t-79.5 172t-140.5 117.5t-207 44t-207 -44t-140.5 -117.5t-79.5 -172t-25 -205.5t25 -205.5t79.5 -172t140.5 -117.5t207 -44z" />
    <glyph glyph-name="P" unicode="P" horiz-adv-x="1174" 
d="M199 1414h428q107 0 197 -28t154.5 -80.5t100.5 -129.5t36 -174q0 -99 -36.5 -176t-101.5 -129t-157 -79t-202 -27h-213v-591h-206v1414zM620 780q143 0 213 56t70 163q0 106 -71 166t-212 60h-215v-445h215z" />
    <glyph glyph-name="Q" unicode="Q" horiz-adv-x="1530" 
d="M765 -18q-170 0 -296 59.5t-207.5 158.5t-122 231t-40.5 276t40.5 276t122 231t207.5 158.5t296 59.5t296 -59.5t207.5 -158.5t122 -231t40.5 -276q0 -149 -40 -276.5t-115 -220.5l196 -198l-136 -122l-194 197q-76 -51 -171.5 -78t-205.5 -27zM765 168q72 0 132 15
t107 43l-215 218l137 119l207 -209q43 69 63.5 160t20.5 193q0 107 -25 205.5t-79.5 172t-140.5 117.5t-207 44t-207 -44t-140.5 -117.5t-79.5 -172t-25 -205.5t25 -205.5t79.5 -172t140.5 -117.5t207 -44z" />
    <glyph glyph-name="R" unicode="R" horiz-adv-x="1262" 
d="M1138 1013q0 -137 -80.5 -237t-219.5 -140l365 -636h-235l-330 612h-233v-612h-206v1414h467q106 0 193.5 -28.5t149 -80.5t95.5 -126.5t34 -165.5zM655 795q134 0 204 57.5t70 158.5t-72.5 158.5t-203.5 57.5h-247v-432h249z" />
    <glyph glyph-name="S" unicode="S" horiz-adv-x="1142" 
d="M583 -18q-104 0 -191.5 28t-154 80t-111 126.5t-63.5 167.5l204 54q24 -140 111.5 -208.5t214.5 -68.5q129 0 196.5 55t67.5 141q0 127 -110 185t-241 112.5t-241 140t-110 267.5q0 80 31.5 148t87.5 117t133.5 77t169.5 28q151 0 261.5 -73t170.5 -213l-187 -58
q-40 82 -101 123.5t-148 41.5q-95 0 -154.5 -50.5t-59.5 -128.5q0 -120 110 -174.5t240.5 -108t240.5 -141.5t110 -274q0 -86 -34 -159t-96 -125t-150.5 -81t-196.5 -29z" />
    <glyph glyph-name="T" unicode="T" horiz-adv-x="1199" 
d="M496 1227h-464v187h1134v-187h-464v-1227h-206v1227z" />
    <glyph glyph-name="U" unicode="U" horiz-adv-x="1389" 
d="M692 -18q-135 0 -234 39.5t-163 111.5t-95 176.5t-31 232.5v872h205v-850q0 -187 71.5 -288t250.5 -101q90 0 151 26t98.5 75.5t53.5 122.5t16 167v848h206v-861q0 -132 -31.5 -238t-96.5 -179.5t-165 -113.5t-236 -40z" />
    <glyph glyph-name="V" unicode="V" horiz-adv-x="1346" 
d="M33 1414h227l419 -1089l411 1089h223l-559 -1414h-156z" />
    <glyph glyph-name="W" unicode="W" horiz-adv-x="1989" 
d="M45 1414h214l319 -1114l336 1091h162l335 -1091l319 1114h214l-418 -1414h-208l-324 1046l-323 -1046h-208z" />
    <glyph glyph-name="X" unicode="X" horiz-adv-x="1321" 
d="M527 706l-480 708h250l371 -573l371 573h235l-479 -706l484 -708h-250l-375 574l-374 -574h-236z" />
    <glyph glyph-name="Y" unicode="Y" horiz-adv-x="1320" 
d="M554 547l-534 867h251l389 -669l391 669h249l-532 -867v-547h-214v547z" />
    <glyph glyph-name="Z" unicode="Z" horiz-adv-x="1298" 
d="M80 152l835 1073h-793v189h1077v-152l-835 -1073h843v-189h-1127v152z" />
    <glyph glyph-name="bracketleft" unicode="[" horiz-adv-x="733" 
d="M226 1557h408v-132h-247v-1439h247v-134h-408v1705z" />
    <glyph glyph-name="backslash" unicode="\" horiz-adv-x="858" 
d="M-58 1534h157l814 -2046h-158z" />
    <glyph glyph-name="bracketright" unicode="]" horiz-adv-x="733" 
d="M100 -14h247v1439h-247v132h407v-1705h-407v134z" />
    <glyph glyph-name="asciicircum" unicode="^" horiz-adv-x="1030" 
d="M513 1483l383 -678h-196l-187 355l-187 -355h-195z" />
    <glyph glyph-name="underscore" unicode="_" horiz-adv-x="1264" 
d="M217 0h831v-150h-831v150z" />
    <glyph glyph-name="grave" unicode="`" horiz-adv-x="615" 
d="M436 1128h-147l-288 301h214z" />
    <glyph glyph-name="a" unicode="a" horiz-adv-x="1071" 
d="M69 285q0 141 105.5 222t306.5 81h265q0 132 -61 194.5t-168 62.5q-82 0 -147.5 -39t-109.5 -111l-152 109q79 110 181 162t236 52q194 0 301.5 -109.5t107.5 -306.5v-602h-164l-13 168q-58 -91 -144.5 -138.5t-198.5 -47.5q-160 0 -252.5 81t-92.5 222zM454 150
q65 0 119 24t92 62t59.5 86t21.5 97v25h-257q-111 0 -164 -41.5t-53 -108.5q0 -65 46.5 -104.5t135.5 -39.5z" />
    <glyph glyph-name="b" unicode="b" horiz-adv-x="1184" 
d="M156 0v1414h197v-560q49 81 132 122.5t181 41.5q102 0 183 -39.5t136.5 -108.5t85 -164t29.5 -206q0 -110 -29.5 -205.5t-84.5 -164.5t-135.5 -108.5t-181.5 -39.5q-97 0 -182 42t-134 124v-148h-197zM618 844q-69 0 -122 -26.5t-88.5 -72t-53.5 -109t-18 -136.5t18 -136
t53.5 -109t88.5 -72.5t122 -26.5t121 26.5t86.5 73t51.5 109.5t17 135t-17 135.5t-51.5 109.5t-86.5 72.5t-121 26.5z" />
    <glyph glyph-name="c" unicode="c" horiz-adv-x="1026" 
d="M548 -18q-109 0 -196.5 37.5t-147 105t-91.5 163t-32 211.5q0 117 32.5 213t93 164t147.5 105t196 37q149 0 256 -70.5t163 -213.5l-188 -73q-27 87 -86.5 134.5t-143.5 47.5q-57 0 -105.5 -22t-83.5 -65t-55 -107.5t-20 -147.5q0 -78 18.5 -141.5t53 -108.5t85 -69.5
t114.5 -24.5q84 0 144.5 48.5t85.5 132.5l183 -69q-49 -138 -157 -212.5t-266 -74.5z" />
    <glyph glyph-name="d" unicode="d" horiz-adv-x="1184" 
d="M1029 1414v-1414h-198v146q-49 -81 -132 -122.5t-181 -41.5q-102 0 -183 39.5t-136.5 108.5t-85 164t-29.5 206q0 110 29.5 205.5t84.5 164.5t135.5 108.5t181.5 39.5q97 0 182 -42t134 -123v561h198zM566 156q69 0 122 26.5t88.5 72t53.5 109t18 136.5t-18 136
t-53.5 109t-88.5 72.5t-122 26.5t-121 -26.5t-86 -73t-51 -109.5t-17 -135t17 -135.5t51 -109.5t86 -72.5t121 -26.5z" />
    <glyph glyph-name="e" unicode="e" horiz-adv-x="1078" 
d="M570 -18q-114 0 -205 37t-154 104t-97 162t-34 211t34.5 212.5t96.5 165t149.5 106.5t193.5 38q119 0 204.5 -43t139 -111.5t79 -155.5t25.5 -175q0 -26 -2 -48.5t-6 -43.5h-707q15 -145 92 -213.5t195 -68.5q78 0 140.5 27t119.5 90l137 -120q-83 -89 -180.5 -131.5
t-220.5 -42.5zM551 851q-101 0 -173 -66t-89 -199h518q-5 122 -73.5 193.5t-182.5 71.5z" />
    <glyph glyph-name="f" unicode="f" horiz-adv-x="686" 
d="M226 837h-194v163h194v108q0 81 23.5 142t63.5 101t94 60.5t114 20.5q42 0 79.5 -7t73.5 -21v-174q-27 13 -58.5 20.5t-65.5 7.5q-49 0 -87.5 -32.5t-38.5 -105.5v-120h250v-163h-250v-837h-198v837z" />
    <glyph glyph-name="g" unicode="g" horiz-adv-x="1192" 
d="M838 25v140q-49 -82 -133 -124.5t-180 -42.5q-102 0 -184 39t-139 107t-87.5 161.5t-30.5 202.5q0 108 30.5 201.5t87 162t138 107.5t182.5 39q47 0 93.5 -10.5t87.5 -32t75.5 -53t59.5 -73.5v151h198l-1 -975q0 -104 -32.5 -189t-92.5 -144.5t-147 -91.5t-195 -32
q-80 0 -147 17.5t-121 48t-96.5 72.5t-73.5 92l151 110q17 -34 44 -64.5t64 -53t83 -36t100 -13.5q122 0 194 73t72 211zM573 173q69 0 122 25.5t88.5 70.5t53.5 106.5t18 132.5t-18 132.5t-53.5 106t-88.5 70.5t-122 26t-122 -26t-89 -71t-54.5 -106.5t-18.5 -131.5
t18.5 -131.5t54.5 -106.5t89 -71t122 -26z" />
    <glyph glyph-name="h" unicode="h" 
d="M156 1414h197v-553q51 75 131 116t172 41q81 0 147.5 -26.5t112.5 -77.5t71.5 -126t25.5 -172v-616h-198v591q0 125 -59 189t-157 64q-113 0 -179.5 -68.5t-66.5 -202.5v-573h-197v1414z" />
    <glyph glyph-name="i" unicode="i" horiz-adv-x="509" 
d="M255 1193q-49 0 -83.5 34t-34.5 83q0 48 34.5 83t83.5 35t83 -35t34 -83q0 -49 -34 -83t-83 -34zM156 1000h197v-1000h-197v1000z" />
    <glyph glyph-name="j" unicode="j" horiz-adv-x="519" 
d="M265 1193q-49 0 -83 34t-34 83q0 48 34 83t83 35t83.5 -35t34.5 -83q0 -49 -34.5 -83t-83.5 -34zM84 -432q-46 0 -93 10.5t-75 21.5v178q37 -15 70.5 -22t61.5 -7q56 0 87 35t31 105v1111h197v-1109q0 -155 -75 -239t-204 -84z" />
    <glyph glyph-name="k" unicode="k" horiz-adv-x="1099" 
d="M1045 1000l-379 -391l410 -609h-234l-309 483l-180 -186v-297h-197v1414h197v-879l434 465h258z" />
    <glyph glyph-name="l" unicode="l" horiz-adv-x="509" 
d="M156 0v1414h197v-1414h-197z" />
    <glyph glyph-name="m" unicode="m" horiz-adv-x="1756" 
d="M156 1000h197v-139q50 76 125.5 116.5t168.5 40.5q96 0 169.5 -45.5t115.5 -131.5q60 93 140.5 135t186.5 42q81 0 146 -26t111 -76.5t70.5 -126t24.5 -173.5v-616h-198v591q0 125 -53 189t-148 64q-102 0 -166 -62t-64 -196v-586h-198v591q0 125 -52.5 189t-148.5 64
q-106 0 -168 -68.5t-62 -202.5v-573h-197v1000z" />
    <glyph glyph-name="n" unicode="n" 
d="M156 1000h197v-139q51 75 131 116t172 41q81 0 147.5 -26.5t112.5 -77.5t71.5 -126t25.5 -172v-616h-198v591q0 125 -59 189t-157 64q-113 0 -179.5 -68.5t-66.5 -202.5v-573h-197v1000z" />
    <glyph glyph-name="o" unicode="o" horiz-adv-x="1145" 
d="M1072 500q0 -108 -36 -203t-101.5 -164.5t-158 -110t-204.5 -40.5t-204.5 40.5t-158 110t-101.5 164.5t-36 203t36 203t101.5 164.5t158 110t204.5 40.5t204.5 -40.5t158 -110t101.5 -164.5t36 -203zM866 500q0 71 -18 134t-54.5 109.5t-92 73.5t-129.5 27t-129 -27
t-91.5 -73.5t-54.5 -109.5t-18 -134t18 -134t54 -109.5t91.5 -73.5t129.5 -27t129.5 27t92 73.5t54.5 109.5t18 134z" />
    <glyph glyph-name="p" unicode="p" horiz-adv-x="1184" 
d="M156 -414v1414h197v-146q49 81 132 122.5t181 41.5q102 0 183 -39.5t136.5 -108.5t85 -164t29.5 -206q0 -110 -29.5 -205.5t-84.5 -164.5t-135.5 -108.5t-181.5 -39.5q-97 0 -182 42t-134 124v-562h-197zM618 844q-69 0 -122 -26.5t-88.5 -72t-53.5 -109t-18 -136.5
t18 -136t53.5 -109t88.5 -72.5t122 -26.5t121 26.5t86.5 73t51.5 109.5t17 135t-17 135.5t-51.5 109.5t-86.5 72.5t-121 26.5z" />
    <glyph glyph-name="q" unicode="q" horiz-adv-x="1184" 
d="M1029 1000v-1414h-198v560q-49 -81 -132 -122.5t-181 -41.5q-102 0 -183 39.5t-136.5 108.5t-85 164t-29.5 206q0 110 29.5 205.5t84.5 164.5t135.5 108.5t181.5 39.5q97 0 182 -42t134 -123v147h198zM566 156q69 0 122 26.5t88.5 72t53.5 109t18 136.5t-18 136
t-53.5 109t-88.5 72.5t-122 26.5t-121 -26.5t-86 -73t-51 -109.5t-17 -135t17 -135.5t51 -109.5t86 -72.5t121 -26.5z" />
    <glyph glyph-name="r" unicode="r" horiz-adv-x="791" 
d="M156 1000h193v-194q43 104 117.5 158t164.5 54q34 0 59.5 -4t42.5 -8v-198q-19 7 -42 12t-57 5q-59 0 -111.5 -25.5t-91.5 -72.5t-61.5 -115.5t-22.5 -153.5v-458h-191v1000z" />
    <glyph glyph-name="s" unicode="s" horiz-adv-x="931" 
d="M474 -18q-160 0 -263.5 63.5t-153.5 182.5l155 90q41 -87 107 -129t151 -42q92 0 139 35.5t47 90.5q0 86 -86.5 115t-190 57.5t-190 87t-86.5 203.5q0 62 24.5 114t70 89t111 58t146.5 21q134 0 229 -53.5t149 -152.5l-157 -86q-28 55 -82 94t-139 39q-78 0 -120 -31
t-42 -79q0 -78 87.5 -105t191.5 -57t191.5 -89.5t87.5 -201.5q0 -78 -30 -137t-81 -98t-120 -59t-146 -20z" />
    <glyph glyph-name="t" unicode="t" horiz-adv-x="728" 
d="M496 -18q-143 0 -221.5 79t-78.5 221v555h-163v163h165v379h194v-379h263v-163h-263v-526q0 -87 36.5 -121t97.5 -34q35 0 70 10t60 21v-179q-25 -10 -69.5 -18t-90.5 -8z" />
    <glyph glyph-name="u" unicode="u" 
d="M1003 0h-198v139q-51 -75 -131 -116t-172 -41q-81 0 -147 26.5t-112 77.5t-71.5 126t-25.5 172v616h197v-591q0 -125 59.5 -189t156.5 -64q113 0 179.5 68.5t66.5 203.5v572h198v-1000z" />
    <glyph glyph-name="v" unicode="v" horiz-adv-x="1003" 
d="M12 1000h216l274 -745l275 745h214l-408 -1000h-164z" />
    <glyph glyph-name="w" unicode="w" horiz-adv-x="1475" 
d="M28 1000h211l192 -699l221 699h172l221 -699l191 699h211l-304 -1000h-181l-228 722l-225 -722h-181z" />
    <glyph glyph-name="x" unicode="x" horiz-adv-x="1014" 
d="M376 497l-350 503h240l243 -370l244 370h236l-351 -497l351 -503h-241l-243 370l-244 -370h-235z" />
    <glyph glyph-name="y" unicode="y" horiz-adv-x="1028" 
d="M235 -429l181 440l-408 989h225l284 -738l286 738h209l-562 -1429h-215z" />
    <glyph glyph-name="z" unicode="z" horiz-adv-x="992" 
d="M896 866l-572 -699h600v-167h-856v134l573 700h-553v166h808v-134z" />
    <glyph glyph-name="braceleft" unicode="{" horiz-adv-x="720" 
d="M490 -148q-126 0 -184 64.5t-58 186.5v390q0 72 -32 101t-95 44v135q63 20 95 49t32 96v388q0 123 58 187t184 64q25 0 63 -1.5t60 -3.5v-132q-29 4 -58.5 7t-47.5 3q-53 0 -72.5 -22.5t-19.5 -70.5v-420q0 -90 -35.5 -134t-98.5 -77v-1q32 -14 57.5 -31t42.5 -40.5
t25.5 -57.5t8.5 -83v-421q0 -47 19.5 -70t72.5 -23q18 0 47.5 3t58.5 8v-133q-22 -2 -60 -3.5t-63 -1.5z" />
    <glyph glyph-name="bar" unicode="|" horiz-adv-x="631" 
d="M242 1534h147v-2046h-147v2046z" />
    <glyph glyph-name="braceright" unicode="}" horiz-adv-x="751" 
d="M230 -148q-25 0 -63 1.5t-60 3.5v133q29 -5 59 -8t48 -3q52 0 71.5 23t19.5 70v420q0 90 36 134t98 77v1q-32 14 -57 31t-42 40.5t-26 57.5t-9 83v421q0 48 -19.5 70.5t-71.5 22.5q-18 0 -48 -3t-59 -7v132q22 2 60 3.5t63 1.5q127 0 185 -64t58 -187v-389
q0 -72 31.5 -101t94.5 -44v-135q-63 -21 -94.5 -50t-31.5 -95v-389q0 -122 -58 -186.5t-185 -64.5z" />
    <glyph glyph-name="asciitilde" unicode="~" horiz-adv-x="1191" 
d="M175 399q0 130 61.5 200.5t179.5 70.5q68 0 117 -23t87.5 -50.5t71.5 -50.5t70 -23q52 0 72 34.5t20 101.5h146q0 -133 -62 -205.5t-180 -72.5q-66 0 -114 23t-86 50.5t-72 50.5t-74 23q-52 0 -71.5 -32t-19.5 -97h-146z" />
    <glyph glyph-name="exclamdown" unicode="&#xa1;" horiz-adv-x="632" 
d="M315 1018q53 0 90 -37.5t37 -88.5q0 -52 -38 -88t-89 -36t-87 36.5t-36 87.5t35.5 88.5t87.5 37.5zM391 598l23 -1012h-196l22 1012h151z" />
    <glyph glyph-name="cent" unicode="&#xa2;" horiz-adv-x="1121" 
d="M485 -251v238q-92 12 -165.5 54t-123.5 108t-76.5 155t-26.5 195t27 195.5t77.5 156t123.5 108.5t164 54v235h145v-234q123 -15 212.5 -84.5t139.5 -195.5l-188 -73q-22 69 -63.5 114t-100.5 61v-674q62 15 106 61t64 115l183 -69q-43 -122 -132.5 -194.5t-220.5 -88.5
v-237h-145zM299 501q0 -131 48 -218.5t138 -115.5v667q-84 -25 -135 -109t-51 -224z" />
    <glyph glyph-name="sterling" unicode="&#xa3;" horiz-adv-x="1229" 
d="M153 148q22 9 65.5 34.5t87 64.5t76.5 91t33 114q0 51 -15.5 100.5t-25.5 70.5h-216v164h165q-17 57 -31 116t-14 131q0 91 30.5 166.5t85.5 128.5t132.5 82t170.5 29q153 0 258.5 -79t154.5 -225l-169 -60q-35 101 -95 149.5t-148 48.5q-108 0 -171.5 -64t-63.5 -180
q0 -60 14 -121.5t35 -121.5h469v-164h-419q9 -20 24 -72t15 -112q0 -89 -44.5 -155t-134.5 -117h733v-167h-1002v148z" />
    <glyph glyph-name="currency" unicode="&#xa4;" horiz-adv-x="1374" 
d="M204 258l105 103q-45 59 -67.5 129t-22.5 141.5t23 142t67 130.5l-103 100l106 110l104 -105q60 44 130 67t141.5 23.5t141.5 -22t129 -67.5l104 103l108 -106l-105 -102q45 -60 68 -130.5t23 -142.5t-23 -142.5t-68 -130.5l105 -101l-106 -110l-106 106
q-59 -45 -129.5 -67.5t-142 -22.5t-142 22.5t-130.5 67.5l-104 -106zM459 408q47 -47 106.5 -71t120.5 -24t120 24t106 71q46 47 69.5 105.5t23.5 119t-23.5 119t-69.5 104.5q-47 46 -106 69.5t-120 23.5t-119.5 -23.5t-105.5 -70.5q-46 -46 -69 -104.5t-23.5 -119t22 -119
t68.5 -104.5z" />
    <glyph glyph-name="yen" unicode="&#xa5;" horiz-adv-x="1369" 
d="M596 213h-393v152h393v141h-393v153h320l-480 754h210l431 -704l432 704h209l-480 -755h321v-152h-394v-141h394v-152h-394v-213h-176v213z" />
    <glyph glyph-name="brokenbar" unicode="&#xa6;" horiz-adv-x="631" 
d="M242 1409h147v-744h-147v744zM242 352h147v-727h-147v727z" />
    <glyph glyph-name="section" unicode="&#xa7;" horiz-adv-x="1143" 
d="M986 274q0 -75 -33 -130.5t-88 -91t-127 -53t-148 -17.5t-147.5 16.5t-130.5 51.5t-102.5 90t-62.5 131l185 56q31 -101 96 -144.5t172 -43.5q99 0 158 35t59 101q0 84 -98.5 115.5t-216 63t-216 91t-98.5 197.5q0 56 22 104t78 98q-54 41 -75.5 87.5t-21.5 101.5
q0 71 31 126.5t83 94t121.5 58.5t144.5 20q134 0 231.5 -53.5t143.5 -131.5l-158 -92q-28 60 -84.5 93.5t-141.5 33.5q-101 0 -151.5 -40t-50.5 -98q0 -80 98.5 -111t215.5 -63.5t215.5 -94.5t98.5 -204q0 -56 -21.5 -102.5t-78.5 -96.5q56 -47 77 -93t21 -105zM737 538
q40 19 62 52.5t22 74.5q0 54 -35 87.5t-90.5 56t-124 39.5t-134.5 39q-44 -24 -63 -63t-19 -73q0 -51 36 -83t91.5 -53.5t123.5 -38.5t131 -38z" />
    <glyph glyph-name="dieresis" unicode="&#xa8;" horiz-adv-x="721" 
d="M176 1192q-47 0 -79 32.5t-32 78.5q0 45 32 77.5t79 32.5q46 0 78 -32.5t32 -77.5q0 -46 -32 -78.5t-78 -32.5zM544 1192q-46 0 -78 32.5t-32 78.5q0 45 32 77.5t78 32.5t78.5 -32.5t32.5 -77.5q0 -46 -32.5 -78.5t-78.5 -32.5z" />
    <glyph glyph-name="copyright" unicode="&#xa9;" horiz-adv-x="1739" 
d="M870 -39q-159 0 -299.5 59t-244 159.5t-164 237t-60.5 290.5q0 153 60.5 289.5t164 237t244 159.5t299.5 59q158 0 298.5 -59t244 -159.5t164 -237t60.5 -289.5q0 -154 -60.5 -290.5t-164 -237t-244 -159.5t-298.5 -59zM870 111q125 0 237.5 47.5t196.5 128.5t133 190
t49 230t-49 229.5t-133 189.5t-196.5 128.5t-237.5 47.5q-126 0 -238.5 -47.5t-196.5 -128.5t-133 -189.5t-49 -229.5t49 -230t133 -190t196.5 -128.5t238.5 -47.5zM889 252q-97 0 -171 36.5t-124 98t-75.5 144t-25.5 174.5q0 88 24.5 170.5t74 145t123.5 100.5t173 38
q127 0 215.5 -63.5t142.5 -182.5l-144 -61q-35 78 -87 115t-127 37q-62 0 -108 -24t-75.5 -64.5t-44 -95.5t-14.5 -115q0 -61 14 -115.5t43.5 -94.5t75.5 -63.5t108 -23.5q81 0 130.5 38.5t80.5 112.5l145 -60q-52 -122 -140.5 -184.5t-213.5 -62.5z" />
    <glyph glyph-name="ordfeminine" unicode="&#xaa;" horiz-adv-x="983" 
d="M655 826q-44 -61 -105 -90t-140 -29q-107 0 -175 61t-68 154q0 56 21 96.5t59.5 67t92 39.5t117.5 13h192q-1 93 -44 137t-127 44q-57 0 -105 -27t-87 -84l-97 67q60 82 131 119.5t171 37.5q129 0 203 -76.5t74 -223.5v-412h-110zM433 824q50 0 90 17.5t68 46t43 65
t15 73.5v4h-187q-82 0 -122.5 -27.5t-40.5 -77.5q0 -43 37 -72t97 -29z" />
    <glyph glyph-name="guillemotleft" unicode="&#xab;" horiz-adv-x="962" 
d="M39 510l414 350v-173l-212 -177l212 -175v-173zM399 510l415 350v-173l-212 -177l212 -175v-173z" />
    <glyph glyph-name="logicalnot" unicode="&#xac;" horiz-adv-x="1313" 
d="M886 621h-740v176h930v-506h-190v330z" />
    <glyph glyph-name="registered" unicode="&#xae;" horiz-adv-x="1739" 
d="M870 -37q-159 0 -299.5 58.5t-244 159.5t-164 237t-60.5 290t60.5 290t164 237t244 159.5t299.5 58.5q158 0 298.5 -58.5t244 -159.5t164 -237t60.5 -290t-60.5 -290t-164 -237t-244 -159.5t-298.5 -58.5zM870 107q127 0 240.5 48t198.5 129.5t134.5 191t49.5 232.5
t-49.5 232.5t-134.5 191t-198.5 129.5t-240.5 48t-241 -48t-198.5 -129.5t-134 -191t-49.5 -232.5t49.5 -232.5t134 -191t198.5 -129.5t241 -48zM617 281v844h295q137 0 212 -67.5t75 -183.5q0 -74 -36 -136t-120 -92l213 -365h-170l-190 343h-131v-343h-148zM914 762
q77 0 110.5 28t33.5 84q0 58 -33.5 85t-111.5 27h-155v-224h156z" />
    <glyph glyph-name="macron" unicode="&#xaf;" horiz-adv-x="803" 
d="M127 1211v147h547v-147h-547z" />
    <glyph glyph-name="degree" unicode="&#xb0;" horiz-adv-x="915" 
d="M458 850q-59 0 -112.5 23t-93 62t-62.5 92.5t-23 113.5t23 113t62.5 92.5t93 62.5t112.5 23q60 0 113 -23t92 -62.5t62 -92.5t23 -113t-23 -113.5t-62 -92.5t-92 -62t-113 -23zM458 984q66 0 111.5 46t45.5 111t-45.5 111t-111.5 46q-65 0 -111 -46t-46 -111t46 -111
t111 -46z" />
    <glyph glyph-name="plusminus" unicode="&#xb1;" horiz-adv-x="1300" 
d="M571 238v392h-417v150h417v422h158v-422h417v-150h-417v-392h-158zM1146 0h-992v150h992v-150z" />
    <glyph glyph-name="acute" unicode="&#xb4;" horiz-adv-x="614" 
d="M180 1128l221 301h214l-288 -301h-147z" />
    <glyph glyph-name="uni00B5" unicode="&#xb5;" horiz-adv-x="1169" 
d="M156 -265v1265h197v-584q0 -126 59.5 -192t158.5 -66q113 0 179 68t66 202v572h197v-1000h-197v139q-52 -75 -131.5 -116t-171.5 -41q-54 0 -99.5 16.5t-79.5 50.5l-15 -314h-163z" />
    <glyph glyph-name="paragraph" unicode="&#xb6;" horiz-adv-x="1259" 
d="M544 623q-87 0 -169 26.5t-144.5 77t-100.5 124.5t-38 167t38 167t100.5 124.5t144.5 77t169 26.5h139v-1659h-139v869zM876 1413h140v-1659h-140v1659z" />
    <glyph glyph-name="periodcentered" unicode="&#xb7;" horiz-adv-x="645" 
d="M322 564q-60 0 -101 42t-41 101q0 60 41 100.5t101 40.5q58 0 100.5 -40.5t42.5 -100.5q0 -59 -41.5 -101t-101.5 -42z" />
    <glyph glyph-name="cedilla" unicode="&#xb8;" horiz-adv-x="597" 
d="M289 -519q-63 0 -119.5 36t-80.5 92l112 48q9 -25 34 -42t56 -17q41 0 67 25t26 65q0 55 -41.5 86t-128.5 31h-49l70 195h122l-38 -111q93 -10 142.5 -63t49.5 -136q0 -45 -16.5 -83.5t-46 -66t-70 -43.5t-89.5 -16z" />
    <glyph glyph-name="ordmasculine" unicode="&#xba;" horiz-adv-x="995" 
d="M497 1432q78 0 143.5 -28t112 -77t72.5 -114.5t26 -140.5q0 -74 -26 -139.5t-72.5 -114t-112 -77t-143.5 -28.5t-143 28t-112 77t-73 114.5t-26 140.5q0 74 26 139.5t73 114t112 77t143 28.5zM497 1313q-54 0 -94 -18.5t-66.5 -51t-39.5 -76.5t-13 -94t13 -94.5
t39.5 -76.5t66.5 -51t94 -19t94.5 18.5t66.5 51t39 76.5t13 94t-13 94.5t-39 76.5t-66.5 51t-94.5 19z" />
    <glyph glyph-name="guillemotright" unicode="&#xbb;" horiz-adv-x="963" 
d="M147 335l212 175l-212 177v173l414 -350l-414 -348v173zM507 335l212 175l-212 177v173l415 -350l-415 -348v173z" />
    <glyph glyph-name="questiondown" unicode="&#xbf;" horiz-adv-x="1018" 
d="M515 768q-52 0 -87.5 37t-35.5 88t36 87.5t87 36.5t89 -35.5t38 -88.5q0 -51 -37 -88t-90 -37zM527 -432q-91 0 -171.5 25t-140.5 74t-94.5 122t-34.5 167q0 135 54.5 204.5t119.5 110t119.5 72.5t54.5 93v152h168v-154q0 -119 -54 -173.5t-117.5 -91t-117.5 -79
t-54 -137.5q0 -111 71.5 -165.5t188.5 -54.5q115 0 186.5 61.5t72.5 174.5h174q-1 -94 -34 -168.5t-89.5 -126t-134.5 -79t-167 -27.5z" />
    <glyph glyph-name="Agrave" unicode="&#xc0;" horiz-adv-x="1315" 
d="M734 1414l548 -1414h-223l-118 320h-571l-119 -320h-218l547 1414h154zM655 1125l-226 -628h452zM750 1543h-147l-288 301h214z" />
    <glyph glyph-name="Aacute" unicode="&#xc1;" horiz-adv-x="1315" 
d="M734 1414l548 -1414h-223l-118 320h-571l-119 -320h-218l547 1414h154zM655 1125l-226 -628h452zM564 1543l221 301h214l-288 -301h-147z" />
    <glyph glyph-name="Acircumflex" unicode="&#xc2;" horiz-adv-x="1315" 
d="M734 1414l548 -1414h-223l-118 320h-571l-119 -320h-218l547 1414h154zM655 1125l-226 -628h452zM345 1554l310 339l312 -339h-157l-155 165l-152 -165h-158z" />
    <glyph glyph-name="Atilde" unicode="&#xc3;" horiz-adv-x="1315" 
d="M734 1414l548 -1414h-223l-118 320h-571l-119 -320h-218l547 1414h154zM655 1125l-226 -628h452zM447 1582h-125q0 129 50.5 198.5t142.5 69.5q56 0 95 -24t69.5 -52.5t57 -52.5t55.5 -24q31 0 50 37t19 104h126q0 -129 -50.5 -199.5t-140.5 -70.5q-56 0 -96 24t-70 52.5
t-56.5 52.5t-55.5 24q-33 0 -52 -36.5t-19 -102.5z" />
    <glyph glyph-name="Adieresis" unicode="&#xc4;" horiz-adv-x="1315" 
d="M734 1414l548 -1414h-223l-118 320h-571l-119 -320h-218l547 1414h154zM655 1125l-226 -628h452zM472 1607q-47 0 -79 32.5t-32 78.5q0 45 32 77.5t79 32.5q46 0 78 -32.5t32 -77.5q0 -46 -32 -78.5t-78 -32.5zM840 1607q-46 0 -78 32.5t-32 78.5q0 45 32 77.5t78 32.5
t78.5 -32.5t32.5 -77.5q0 -46 -32.5 -78.5t-78.5 -32.5z" />
    <glyph glyph-name="Aring" unicode="&#xc5;" horiz-adv-x="1315" 
d="M1059 0l-118 320h-571l-119 -320h-218l517 1335q-49 27 -79.5 76t-30.5 109q0 44 17 83.5t45.5 68.5t68 46t83.5 17t83.5 -16.5t69 -45.5t47 -68.5t17.5 -84.5q0 -60 -29.5 -108t-77.5 -74l518 -1338h-223zM654 1412q47 0 78 31.5t31 78.5q0 44 -29.5 74.5t-79.5 30.5
q-46 0 -76 -30.5t-30 -74.5q0 -48 30.5 -79t75.5 -31zM655 1125l-226 -628h452z" />
    <glyph glyph-name="AE" unicode="&#xc6;" horiz-adv-x="1812" 
d="M-37 0l756 1414h969v-187h-653v-420h593v-186h-593v-430h653v-191h-860v321h-473l-167 -321h-225zM826 1225l-382 -728h384v728h-2z" />
    <glyph glyph-name="Ccedilla" unicode="&#xc7;" horiz-adv-x="1455" 
d="M771 -18q-151 0 -275 50t-210 143t-133 227.5t-47 301.5q0 165 46.5 300t132.5 229.5t211.5 146.5t281.5 52q224 0 372.5 -100t229.5 -296l-193 -76q-49 137 -148.5 207.5t-260.5 70.5q-108 0 -193.5 -36t-144 -103.5t-89.5 -165.5t-31 -221q0 -125 30 -225t87.5 -168.5
t143 -105.5t194.5 -37q151 0 253.5 67.5t162.5 214.5l191 -78q-83 -198 -234 -298t-377 -100zM752 -519q-63 0 -119.5 36t-80.5 92l112 48q9 -25 34 -42t56 -17q41 0 67 25t26 65q0 55 -41.5 86t-128.5 31h-49l70 195h122l-38 -111q93 -10 142.5 -63t49.5 -136
q0 -45 -16.5 -83.5t-46 -66t-70 -43.5t-89.5 -16z" />
    <glyph glyph-name="Egrave" unicode="&#xc8;" horiz-adv-x="1259" 
d="M199 1414h933v-187h-727v-420h667v-186h-667v-430h727v-191h-933v1414zM759 1538h-147l-288 301h214z" />
    <glyph glyph-name="Eacute" unicode="&#xc9;" horiz-adv-x="1259" 
d="M199 1414h933v-187h-727v-420h667v-186h-667v-430h727v-191h-933v1414zM573 1538l221 301h214l-288 -301h-147z" />
    <glyph glyph-name="Ecircumflex" unicode="&#xca;" horiz-adv-x="1259" 
d="M199 1414h933v-187h-727v-420h667v-186h-667v-430h727v-191h-933v1414zM354 1549l310 339l312 -339h-157l-155 165l-152 -165h-158z" />
    <glyph glyph-name="Edieresis" unicode="&#xcb;" horiz-adv-x="1259" 
d="M199 1414h933v-187h-727v-420h667v-186h-667v-430h727v-191h-933v1414zM481 1602q-47 0 -79 32.5t-32 78.5q0 45 32 77.5t79 32.5q46 0 78 -32.5t32 -77.5q0 -46 -32 -78.5t-78 -32.5zM849 1602q-46 0 -78 32.5t-32 78.5q0 45 32 77.5t78 32.5t78.5 -32.5t32.5 -77.5
q0 -46 -32.5 -78.5t-78.5 -32.5z" />
    <glyph glyph-name="Igrave" unicode="&#xcc;" horiz-adv-x="603" 
d="M199 1414h206v-1414h-206v1414zM396 1538h-147l-288 301h214z" />
    <glyph glyph-name="Iacute" unicode="&#xcd;" horiz-adv-x="603" 
d="M199 1414h206v-1414h-206v1414zM210 1538l221 301h214l-288 -301h-147z" />
    <glyph glyph-name="Icircumflex" unicode="&#xce;" horiz-adv-x="603" 
d="M199 1414h206v-1414h-206v1414zM-9 1549l310 339l312 -339h-157l-155 165l-152 -165h-158z" />
    <glyph glyph-name="Idieresis" unicode="&#xcf;" horiz-adv-x="603" 
d="M199 1414h206v-1414h-206v1414zM118 1602q-47 0 -79 32.5t-32 78.5q0 45 32 77.5t79 32.5q46 0 78 -32.5t32 -77.5q0 -46 -32 -78.5t-78 -32.5zM486 1602q-46 0 -78 32.5t-32 78.5q0 45 32 77.5t78 32.5t78.5 -32.5t32.5 -77.5q0 -46 -32.5 -78.5t-78.5 -32.5z" />
    <glyph glyph-name="Eth" unicode="&#xd0;" horiz-adv-x="1449" 
d="M216 1414h396q180 0 318.5 -47.5t231 -137t140.5 -221.5t48 -300t-49 -300.5t-142.5 -222.5t-232.5 -137.5t-317 -47.5h-393v637h-125v148h125v629zM610 189q120 0 217.5 29t165.5 91t105 161t37 237q0 268 -125 393t-400 125h-188v-440h368v-148h-368v-448h188z" />
    <glyph glyph-name="Ntilde" unicode="&#xd1;" horiz-adv-x="1442" 
d="M199 1414h207l640 -1068v1068h197v-1414h-206l-641 1069v-1069h-197v1414zM512 1572h-125q0 129 50.5 198.5t142.5 69.5q56 0 95 -24t69.5 -52.5t57 -52.5t55.5 -24q31 0 50 37t19 104h126q0 -129 -50.5 -199.5t-140.5 -70.5q-56 0 -96 24t-70 52.5t-56.5 52.5t-55.5 24
q-33 0 -52 -36.5t-19 -102.5z" />
    <glyph glyph-name="Ograve" unicode="&#xd2;" horiz-adv-x="1544" 
d="M772 -18q-170 0 -296 59.5t-207.5 158.5t-122 231t-40.5 276t40.5 276t122 231t207.5 158.5t296 59.5t296 -59.5t207.5 -158.5t122 -231t40.5 -276t-40.5 -276t-122 -231t-207.5 -158.5t-296 -59.5zM772 168q121 0 207 44t140.5 117.5t79.5 172t25 205.5t-25 205.5
t-79.5 172t-140.5 117.5t-207 44t-207 -44t-140.5 -117.5t-79.5 -172t-25 -205.5t25 -205.5t79.5 -172t140.5 -117.5t207 -44zM866 1543h-147l-288 301h214z" />
    <glyph glyph-name="Oacute" unicode="&#xd3;" horiz-adv-x="1544" 
d="M772 -18q-170 0 -296 59.5t-207.5 158.5t-122 231t-40.5 276t40.5 276t122 231t207.5 158.5t296 59.5t296 -59.5t207.5 -158.5t122 -231t40.5 -276t-40.5 -276t-122 -231t-207.5 -158.5t-296 -59.5zM772 168q121 0 207 44t140.5 117.5t79.5 172t25 205.5t-25 205.5
t-79.5 172t-140.5 117.5t-207 44t-207 -44t-140.5 -117.5t-79.5 -172t-25 -205.5t25 -205.5t79.5 -172t140.5 -117.5t207 -44zM680 1543l221 301h214l-288 -301h-147z" />
    <glyph glyph-name="Ocircumflex" unicode="&#xd4;" horiz-adv-x="1544" 
d="M772 -18q-170 0 -296 59.5t-207.5 158.5t-122 231t-40.5 276t40.5 276t122 231t207.5 158.5t296 59.5t296 -59.5t207.5 -158.5t122 -231t40.5 -276t-40.5 -276t-122 -231t-207.5 -158.5t-296 -59.5zM772 168q121 0 207 44t140.5 117.5t79.5 172t25 205.5t-25 205.5
t-79.5 172t-140.5 117.5t-207 44t-207 -44t-140.5 -117.5t-79.5 -172t-25 -205.5t25 -205.5t79.5 -172t140.5 -117.5t207 -44zM461 1554l310 339l312 -339h-157l-155 165l-152 -165h-158z" />
    <glyph glyph-name="Otilde" unicode="&#xd5;" horiz-adv-x="1544" 
d="M772 -18q-170 0 -296 59.5t-207.5 158.5t-122 231t-40.5 276t40.5 276t122 231t207.5 158.5t296 59.5t296 -59.5t207.5 -158.5t122 -231t40.5 -276t-40.5 -276t-122 -231t-207.5 -158.5t-296 -59.5zM772 168q121 0 207 44t140.5 117.5t79.5 172t25 205.5t-25 205.5
t-79.5 172t-140.5 117.5t-207 44t-207 -44t-140.5 -117.5t-79.5 -172t-25 -205.5t25 -205.5t79.5 -172t140.5 -117.5t207 -44zM563 1582h-125q0 129 50.5 198.5t142.5 69.5q56 0 95 -24t69.5 -52.5t57 -52.5t55.5 -24q31 0 50 37t19 104h126q0 -129 -50.5 -199.5
t-140.5 -70.5q-56 0 -96 24t-70 52.5t-56.5 52.5t-55.5 24q-33 0 -52 -36.5t-19 -102.5z" />
    <glyph glyph-name="Odieresis" unicode="&#xd6;" horiz-adv-x="1544" 
d="M772 -18q-170 0 -296 59.5t-207.5 158.5t-122 231t-40.5 276t40.5 276t122 231t207.5 158.5t296 59.5t296 -59.5t207.5 -158.5t122 -231t40.5 -276t-40.5 -276t-122 -231t-207.5 -158.5t-296 -59.5zM772 168q121 0 207 44t140.5 117.5t79.5 172t25 205.5t-25 205.5
t-79.5 172t-140.5 117.5t-207 44t-207 -44t-140.5 -117.5t-79.5 -172t-25 -205.5t25 -205.5t79.5 -172t140.5 -117.5t207 -44zM588 1607q-47 0 -79 32.5t-32 78.5q0 45 32 77.5t79 32.5q46 0 78 -32.5t32 -77.5q0 -46 -32 -78.5t-78 -32.5zM956 1607q-46 0 -78 32.5
t-32 78.5q0 45 32 77.5t78 32.5t78.5 -32.5t32.5 -77.5q0 -46 -32.5 -78.5t-78.5 -32.5z" />
    <glyph glyph-name="multiply" unicode="&#xd7;" horiz-adv-x="1300" 
d="M298 247l-102 102l351 359l-351 360l107 107l350 -358l349 358l102 -101l-351 -360l351 -359l-107 -108l-350 358z" />
    <glyph glyph-name="Oslash" unicode="&#xd8;" horiz-adv-x="1533" 
d="M258 0l77 126q-60 50 -104.5 115t-73.5 139.5t-43.5 157.5t-14.5 169q0 144 40.5 276t122.5 231t208 158.5t296 59.5q94 0 175.5 -19t148.5 -53l33 54h150l-77 -125q60 -50 105 -115t74.5 -139.5t44 -157.5t14.5 -170q0 -144 -40.5 -276t-122.5 -231t-208.5 -158.5
t-296.5 -59.5q-95 0 -176.5 19.5t-148.5 53.5l-34 -55h-149zM316 707q0 -127 29.5 -233.5t93.5 -178.5l553 904q-46 24 -102.5 37t-123.5 13q-121 0 -206.5 -44t-139.5 -118t-79 -172.5t-25 -207.5zM766 165q121 0 207 44t140 118t79 172.5t25 207.5q0 128 -30 234.5
t-94 178.5l-554 -904q46 -25 102.5 -38t124.5 -13z" />
    <glyph glyph-name="Ugrave" unicode="&#xd9;" horiz-adv-x="1389" 
d="M692 -18q-135 0 -234 39.5t-163 111.5t-95 176.5t-31 232.5v872h205v-850q0 -187 71.5 -288t250.5 -101q90 0 151 26t98.5 75.5t53.5 122.5t16 167v848h206v-861q0 -132 -31.5 -238t-96.5 -179.5t-165 -113.5t-236 -40zM788 1533h-147l-288 301h214z" />
    <glyph glyph-name="Uacute" unicode="&#xda;" horiz-adv-x="1389" 
d="M692 -18q-135 0 -234 39.5t-163 111.5t-95 176.5t-31 232.5v872h205v-850q0 -187 71.5 -288t250.5 -101q90 0 151 26t98.5 75.5t53.5 122.5t16 167v848h206v-861q0 -132 -31.5 -238t-96.5 -179.5t-165 -113.5t-236 -40zM602 1533l221 301h214l-288 -301h-147z" />
    <glyph glyph-name="Ucircumflex" unicode="&#xdb;" horiz-adv-x="1389" 
d="M692 -18q-135 0 -234 39.5t-163 111.5t-95 176.5t-31 232.5v872h205v-850q0 -187 71.5 -288t250.5 -101q90 0 151 26t98.5 75.5t53.5 122.5t16 167v848h206v-861q0 -132 -31.5 -238t-96.5 -179.5t-165 -113.5t-236 -40zM383 1544l310 339l312 -339h-157l-155 165
l-152 -165h-158z" />
    <glyph glyph-name="Udieresis" unicode="&#xdc;" horiz-adv-x="1389" 
d="M692 -18q-135 0 -234 39.5t-163 111.5t-95 176.5t-31 232.5v872h205v-850q0 -187 71.5 -288t250.5 -101q90 0 151 26t98.5 75.5t53.5 122.5t16 167v848h206v-861q0 -132 -31.5 -238t-96.5 -179.5t-165 -113.5t-236 -40zM510 1597q-47 0 -79 32.5t-32 78.5q0 45 32 77.5
t79 32.5q46 0 78 -32.5t32 -77.5q0 -46 -32 -78.5t-78 -32.5zM878 1597q-46 0 -78 32.5t-32 78.5q0 45 32 77.5t78 32.5t78.5 -32.5t32.5 -77.5q0 -46 -32.5 -78.5t-78.5 -32.5z" />
    <glyph glyph-name="Yacute" unicode="&#xdd;" horiz-adv-x="1320" 
d="M554 547l-534 867h251l389 -669l391 669h249l-532 -867v-547h-214v547zM568 1533l221 301h214l-288 -301h-147z" />
    <glyph glyph-name="Thorn" unicode="&#xde;" horiz-adv-x="1172" 
d="M405 0h-206v1414h206v-264h217q108 0 199 -27.5t155.5 -79.5t101 -128t36.5 -172q0 -98 -36.5 -174t-101 -127.5t-156 -78t-200.5 -26.5h-215v-337zM620 528q146 0 215.5 54t69.5 158q0 103 -70.5 161t-214.5 58h-215v-431h215z" />
    <glyph glyph-name="germandbls" unicode="&#xdf;" horiz-adv-x="1130" 
d="M721 -18q-63 0 -122.5 11.5t-112.5 33.5l51 156q46 -19 90.5 -27.5t89.5 -8.5q73 0 109.5 31.5t36.5 82.5q0 60 -52.5 102.5t-114.5 86.5t-114.5 102t-52.5 150q0 76 37 126t80.5 90.5t80.5 83t37 104.5q0 31 -11.5 59.5t-34.5 49.5t-58 34t-81 13q-110 0 -165 -71
t-55 -205v-986h-203v978q0 112 32.5 197.5t91 142t139 85.5t176.5 29q86 0 156 -22t119 -61.5t75.5 -96.5t26.5 -126q0 -87 -38 -145.5t-84 -102t-84 -79.5t-38 -80q0 -49 51.5 -87.5t113.5 -84t113.5 -107t51.5 -157.5q0 -68 -24 -123.5t-68 -95t-106.5 -61t-138.5 -21.5z
" />
    <glyph glyph-name="agrave" unicode="&#xe0;" horiz-adv-x="1071" 
d="M69 285q0 141 105.5 222t306.5 81h265q0 132 -61 194.5t-168 62.5q-82 0 -147.5 -39t-109.5 -111l-152 109q79 110 181 162t236 52q194 0 301.5 -109.5t107.5 -306.5v-602h-164l-13 168q-58 -91 -144.5 -138.5t-198.5 -47.5q-160 0 -252.5 81t-92.5 222zM454 150
q65 0 119 24t92 62t59.5 86t21.5 97v25h-257q-111 0 -164 -41.5t-53 -108.5q0 -65 46.5 -104.5t135.5 -39.5zM595 1133h-147l-288 301h214z" />
    <glyph glyph-name="aacute" unicode="&#xe1;" horiz-adv-x="1071" 
d="M69 285q0 141 105.5 222t306.5 81h265q0 132 -61 194.5t-168 62.5q-82 0 -147.5 -39t-109.5 -111l-152 109q79 110 181 162t236 52q194 0 301.5 -109.5t107.5 -306.5v-602h-164l-13 168q-58 -91 -144.5 -138.5t-198.5 -47.5q-160 0 -252.5 81t-92.5 222zM454 150
q65 0 119 24t92 62t59.5 86t21.5 97v25h-257q-111 0 -164 -41.5t-53 -108.5q0 -65 46.5 -104.5t135.5 -39.5zM409 1133l221 301h214l-288 -301h-147z" />
    <glyph glyph-name="acircumflex" unicode="&#xe2;" horiz-adv-x="1071" 
d="M69 285q0 141 105.5 222t306.5 81h265q0 132 -61 194.5t-168 62.5q-82 0 -147.5 -39t-109.5 -111l-152 109q79 110 181 162t236 52q194 0 301.5 -109.5t107.5 -306.5v-602h-164l-13 168q-58 -91 -144.5 -138.5t-198.5 -47.5q-160 0 -252.5 81t-92.5 222zM454 150
q65 0 119 24t92 62t59.5 86t21.5 97v25h-257q-111 0 -164 -41.5t-53 -108.5q0 -65 46.5 -104.5t135.5 -39.5zM190 1144l310 339l312 -339h-157l-155 165l-152 -165h-158z" />
    <glyph glyph-name="atilde" unicode="&#xe3;" horiz-adv-x="1071" 
d="M69 285q0 141 105.5 222t306.5 81h265q0 132 -61 194.5t-168 62.5q-82 0 -147.5 -39t-109.5 -111l-152 109q79 110 181 162t236 52q194 0 301.5 -109.5t107.5 -306.5v-602h-164l-13 168q-58 -91 -144.5 -138.5t-198.5 -47.5q-160 0 -252.5 81t-92.5 222zM454 150
q65 0 119 24t92 62t59.5 86t21.5 97v25h-257q-111 0 -164 -41.5t-53 -108.5q0 -65 46.5 -104.5t135.5 -39.5zM292 1172h-125q0 129 50.5 198.5t142.5 69.5q56 0 95 -24t69.5 -52.5t57 -52.5t55.5 -24q31 0 50 37t19 104h126q0 -129 -50.5 -199.5t-140.5 -70.5q-56 0 -96 24
t-70 52.5t-56.5 52.5t-55.5 24q-33 0 -52 -36.5t-19 -102.5z" />
    <glyph glyph-name="adieresis" unicode="&#xe4;" horiz-adv-x="1071" 
d="M69 285q0 141 105.5 222t306.5 81h265q0 132 -61 194.5t-168 62.5q-82 0 -147.5 -39t-109.5 -111l-152 109q79 110 181 162t236 52q194 0 301.5 -109.5t107.5 -306.5v-602h-164l-13 168q-58 -91 -144.5 -138.5t-198.5 -47.5q-160 0 -252.5 81t-92.5 222zM454 150
q65 0 119 24t92 62t59.5 86t21.5 97v25h-257q-111 0 -164 -41.5t-53 -108.5q0 -65 46.5 -104.5t135.5 -39.5zM317 1197q-47 0 -79 32.5t-32 78.5q0 45 32 77.5t79 32.5q46 0 78 -32.5t32 -77.5q0 -46 -32 -78.5t-78 -32.5zM685 1197q-46 0 -78 32.5t-32 78.5q0 45 32 77.5
t78 32.5t78.5 -32.5t32.5 -77.5q0 -46 -32.5 -78.5t-78.5 -32.5z" />
    <glyph glyph-name="aring" unicode="&#xe5;" horiz-adv-x="1071" 
d="M69 285q0 141 105.5 222t306.5 81h265q0 132 -61 194.5t-168 62.5q-82 0 -147.5 -39t-109.5 -111l-152 109q79 110 181 162t236 52q194 0 301.5 -109.5t107.5 -306.5v-602h-164l-13 168q-58 -91 -144.5 -138.5t-198.5 -47.5q-160 0 -252.5 81t-92.5 222zM454 150
q65 0 119 24t92 62t59.5 86t21.5 97v25h-257q-111 0 -164 -41.5t-53 -108.5q0 -65 46.5 -104.5t135.5 -39.5zM500 1088q-45 0 -84.5 17.5t-68.5 46.5t-45.5 68.5t-16.5 82.5q0 44 17 83.5t46 69t68.5 46.5t83.5 17t84 -17t69.5 -45.5t46.5 -68t17 -84.5t-17 -84.5t-46 -68.5
t-69 -46t-85 -17zM500 1409q-46 0 -75 -30t-29 -73q0 -47 30.5 -77.5t73.5 -30.5q47 0 77 31t30 77q0 44 -29 73.5t-78 29.5z" />
    <glyph glyph-name="ae" unicode="&#xe6;" horiz-adv-x="1705" 
d="M414 -18q-160 0 -252.5 81t-92.5 222t105.5 222t306.5 81h264q0 132 -60.5 194.5t-167.5 62.5q-82 0 -147.5 -39t-109.5 -111l-152 109q79 110 181 162t236 52q114 0 195 -43t127 -127q57 80 141 125t193 45q119 0 205 -43t139.5 -111.5t79 -155.5t25.5 -175
q0 -25 -2 -47t-6 -42h-707q13 -146 90.5 -215.5t195.5 -69.5q78 0 140.5 27t120.5 90l136 -120q-82 -89 -179.5 -131.5t-221.5 -42.5q-125 0 -224 55t-157 151q-57 -99 -160 -152.5t-242 -53.5zM1178 851q-104 0 -174 -67t-87 -196h517q-6 121 -74 192t-182 71zM454 150
q60 0 111.5 23t89.5 60t61.5 85t29.5 97q0 7 -0.5 14.5t-0.5 14.5h-256q-111 0 -164 -41.5t-53 -108.5q0 -65 46.5 -104.5t135.5 -39.5z" />
    <glyph glyph-name="ccedilla" unicode="&#xe7;" horiz-adv-x="1026" 
d="M548 -18q-109 0 -196.5 37.5t-147 105t-91.5 163t-32 211.5q0 117 32.5 213t93 164t147.5 105t196 37q149 0 256 -70.5t163 -213.5l-188 -73q-27 87 -86.5 134.5t-143.5 47.5q-57 0 -105.5 -22t-83.5 -65t-55 -107.5t-20 -147.5q0 -78 18.5 -141.5t53 -108.5t85 -69.5
t114.5 -24.5q84 0 144.5 48.5t85.5 132.5l183 -69q-49 -138 -157 -212.5t-266 -74.5zM523 -519q-63 0 -119.5 36t-80.5 92l112 48q9 -25 34 -42t56 -17q41 0 67 25t26 65q0 55 -41.5 86t-128.5 31h-49l70 195h122l-38 -111q93 -10 142.5 -63t49.5 -136q0 -45 -16.5 -83.5
t-46 -66t-70 -43.5t-89.5 -16z" />
    <glyph glyph-name="egrave" unicode="&#xe8;" horiz-adv-x="1078" 
d="M570 -18q-114 0 -205 37t-154 104t-97 162t-34 211t34.5 212.5t96.5 165t149.5 106.5t193.5 38q119 0 204.5 -43t139 -111.5t79 -155.5t25.5 -175q0 -26 -2 -48.5t-6 -43.5h-707q15 -145 92 -213.5t195 -68.5q78 0 140.5 27t119.5 90l137 -120q-83 -89 -180.5 -131.5
t-220.5 -42.5zM551 851q-101 0 -173 -66t-89 -199h518q-5 122 -73.5 193.5t-182.5 71.5zM635 1133h-147l-288 301h214z" />
    <glyph glyph-name="eacute" unicode="&#xe9;" horiz-adv-x="1078" 
d="M570 -18q-114 0 -205 37t-154 104t-97 162t-34 211t34.5 212.5t96.5 165t149.5 106.5t193.5 38q119 0 204.5 -43t139 -111.5t79 -155.5t25.5 -175q0 -26 -2 -48.5t-6 -43.5h-707q15 -145 92 -213.5t195 -68.5q78 0 140.5 27t119.5 90l137 -120q-83 -89 -180.5 -131.5
t-220.5 -42.5zM551 851q-101 0 -173 -66t-89 -199h518q-5 122 -73.5 193.5t-182.5 71.5zM449 1133l221 301h214l-288 -301h-147z" />
    <glyph glyph-name="ecircumflex" unicode="&#xea;" horiz-adv-x="1078" 
d="M570 -18q-114 0 -205 37t-154 104t-97 162t-34 211t34.5 212.5t96.5 165t149.5 106.5t193.5 38q119 0 204.5 -43t139 -111.5t79 -155.5t25.5 -175q0 -26 -2 -48.5t-6 -43.5h-707q15 -145 92 -213.5t195 -68.5q78 0 140.5 27t119.5 90l137 -120q-83 -89 -180.5 -131.5
t-220.5 -42.5zM551 851q-101 0 -173 -66t-89 -199h518q-5 122 -73.5 193.5t-182.5 71.5zM230 1144l310 339l312 -339h-157l-155 165l-152 -165h-158z" />
    <glyph glyph-name="edieresis" unicode="&#xeb;" horiz-adv-x="1078" 
d="M570 -18q-114 0 -205 37t-154 104t-97 162t-34 211t34.5 212.5t96.5 165t149.5 106.5t193.5 38q119 0 204.5 -43t139 -111.5t79 -155.5t25.5 -175q0 -26 -2 -48.5t-6 -43.5h-707q15 -145 92 -213.5t195 -68.5q78 0 140.5 27t119.5 90l137 -120q-83 -89 -180.5 -131.5
t-220.5 -42.5zM551 851q-101 0 -173 -66t-89 -199h518q-5 122 -73.5 193.5t-182.5 71.5zM357 1197q-47 0 -79 32.5t-32 78.5q0 45 32 77.5t79 32.5q46 0 78 -32.5t32 -77.5q0 -46 -32 -78.5t-78 -32.5zM725 1197q-46 0 -78 32.5t-32 78.5q0 45 32 77.5t78 32.5t78.5 -32.5
t32.5 -77.5q0 -46 -32.5 -78.5t-78.5 -32.5z" />
    <glyph glyph-name="igrave" unicode="&#xec;" horiz-adv-x="509" 
d="M156 1000h197v-1000h-197v1000zM348 1128h-147l-288 301h214z" />
    <glyph glyph-name="iacute" unicode="&#xed;" horiz-adv-x="509" 
d="M156 1000h197v-1000h-197v1000zM162 1128l221 301h214l-288 -301h-147z" />
    <glyph glyph-name="icircumflex" unicode="&#xee;" horiz-adv-x="509" 
d="M156 1000h197v-1000h-197v1000zM-57 1139l310 339l312 -339h-157l-155 165l-152 -165h-158z" />
    <glyph glyph-name="idieresis" unicode="&#xef;" horiz-adv-x="509" 
d="M156 1000h197v-1000h-197v1000zM70 1192q-47 0 -79 32.5t-32 78.5q0 45 32 77.5t79 32.5q46 0 78 -32.5t32 -77.5q0 -46 -32 -78.5t-78 -32.5zM438 1192q-46 0 -78 32.5t-32 78.5q0 45 32 77.5t78 32.5t78.5 -32.5t32.5 -77.5q0 -46 -32.5 -78.5t-78.5 -32.5z" />
    <glyph glyph-name="eth" unicode="&#xf0;" horiz-adv-x="1167" 
d="M372 1022l-93 95l165 154q-34 19 -72 37t-78 35l71 148q52 -28 101 -56.5t93 -56.5l131 122l93 -96l-113 -105q209 -161 305.5 -350.5t96.5 -422.5q0 -125 -35 -226t-99 -171.5t-155.5 -108.5t-203.5 -38q-121 0 -217 42t-161 112t-99.5 163t-34.5 193q0 101 34.5 191
t97 156.5t151.5 105t197 38.5q79 0 144.5 -22.5t130.5 -72.5q-49 96 -113.5 172t-148.5 137zM569 166q71 0 127.5 26.5t95.5 71t60 104t21 125.5q0 67 -21.5 127t-61 104t-96 70t-125.5 26q-70 0 -126.5 -26.5t-95 -71.5t-59.5 -104.5t-21 -125.5q0 -65 21 -124.5t59.5 -104
t95 -71t126.5 -26.5z" />
    <glyph glyph-name="ntilde" unicode="&#xf1;" 
d="M156 1000h197v-139q51 75 131 116t172 41q81 0 147.5 -26.5t112.5 -77.5t71.5 -126t25.5 -172v-616h-198v591q0 125 -59 189t-157 64q-113 0 -179.5 -68.5t-66.5 -202.5v-573h-197v1000zM356 1172h-125q0 129 50.5 198.5t142.5 69.5q56 0 95 -24t69.5 -52.5t57 -52.5
t55.5 -24q31 0 50 37t19 104h126q0 -129 -50.5 -199.5t-140.5 -70.5q-56 0 -96 24t-70 52.5t-56.5 52.5t-55.5 24q-33 0 -52 -36.5t-19 -102.5z" />
    <glyph glyph-name="ograve" unicode="&#xf2;" horiz-adv-x="1145" 
d="M1072 500q0 -108 -36 -203t-101.5 -164.5t-158 -110t-204.5 -40.5t-204.5 40.5t-158 110t-101.5 164.5t-36 203t36 203t101.5 164.5t158 110t204.5 40.5t204.5 -40.5t158 -110t101.5 -164.5t36 -203zM866 500q0 71 -18 134t-54.5 109.5t-92 73.5t-129.5 27t-129 -27
t-91.5 -73.5t-54.5 -109.5t-18 -134t18 -134t54 -109.5t91.5 -73.5t129.5 -27t129.5 27t92 73.5t54.5 109.5t18 134zM666 1133h-147l-288 301h214z" />
    <glyph glyph-name="oacute" unicode="&#xf3;" horiz-adv-x="1145" 
d="M1072 500q0 -108 -36 -203t-101.5 -164.5t-158 -110t-204.5 -40.5t-204.5 40.5t-158 110t-101.5 164.5t-36 203t36 203t101.5 164.5t158 110t204.5 40.5t204.5 -40.5t158 -110t101.5 -164.5t36 -203zM866 500q0 71 -18 134t-54.5 109.5t-92 73.5t-129.5 27t-129 -27
t-91.5 -73.5t-54.5 -109.5t-18 -134t18 -134t54 -109.5t91.5 -73.5t129.5 -27t129.5 27t92 73.5t54.5 109.5t18 134zM480 1133l221 301h214l-288 -301h-147z" />
    <glyph glyph-name="ocircumflex" unicode="&#xf4;" horiz-adv-x="1145" 
d="M1072 500q0 -108 -36 -203t-101.5 -164.5t-158 -110t-204.5 -40.5t-204.5 40.5t-158 110t-101.5 164.5t-36 203t36 203t101.5 164.5t158 110t204.5 40.5t204.5 -40.5t158 -110t101.5 -164.5t36 -203zM866 500q0 71 -18 134t-54.5 109.5t-92 73.5t-129.5 27t-129 -27
t-91.5 -73.5t-54.5 -109.5t-18 -134t18 -134t54 -109.5t91.5 -73.5t129.5 -27t129.5 27t92 73.5t54.5 109.5t18 134zM261 1144l310 339l312 -339h-157l-155 165l-152 -165h-158z" />
    <glyph glyph-name="otilde" unicode="&#xf5;" horiz-adv-x="1145" 
d="M1072 500q0 -108 -36 -203t-101.5 -164.5t-158 -110t-204.5 -40.5t-204.5 40.5t-158 110t-101.5 164.5t-36 203t36 203t101.5 164.5t158 110t204.5 40.5t204.5 -40.5t158 -110t101.5 -164.5t36 -203zM866 500q0 71 -18 134t-54.5 109.5t-92 73.5t-129.5 27t-129 -27
t-91.5 -73.5t-54.5 -109.5t-18 -134t18 -134t54 -109.5t91.5 -73.5t129.5 -27t129.5 27t92 73.5t54.5 109.5t18 134zM363 1172h-125q0 129 50.5 198.5t142.5 69.5q56 0 95 -24t69.5 -52.5t57 -52.5t55.5 -24q31 0 50 37t19 104h126q0 -129 -50.5 -199.5t-140.5 -70.5
q-56 0 -96 24t-70 52.5t-56.5 52.5t-55.5 24q-33 0 -52 -36.5t-19 -102.5z" />
    <glyph glyph-name="odieresis" unicode="&#xf6;" horiz-adv-x="1145" 
d="M1072 500q0 -108 -36 -203t-101.5 -164.5t-158 -110t-204.5 -40.5t-204.5 40.5t-158 110t-101.5 164.5t-36 203t36 203t101.5 164.5t158 110t204.5 40.5t204.5 -40.5t158 -110t101.5 -164.5t36 -203zM866 500q0 71 -18 134t-54.5 109.5t-92 73.5t-129.5 27t-129 -27
t-91.5 -73.5t-54.5 -109.5t-18 -134t18 -134t54 -109.5t91.5 -73.5t129.5 -27t129.5 27t92 73.5t54.5 109.5t18 134zM388 1197q-47 0 -79 32.5t-32 78.5q0 45 32 77.5t79 32.5q46 0 78 -32.5t32 -77.5q0 -46 -32 -78.5t-78 -32.5zM756 1197q-46 0 -78 32.5t-32 78.5
q0 45 32 77.5t78 32.5t78.5 -32.5t32.5 -77.5q0 -46 -32.5 -78.5t-78.5 -32.5z" />
    <glyph glyph-name="divide" unicode="&#xf7;" horiz-adv-x="1300" 
d="M650 1210q52 0 87 -36t35 -87t-35.5 -87.5t-86.5 -36.5q-52 0 -87 36.5t-35 87.5t35.5 87t86.5 36zM1146 630h-992v150h992v-150zM650 448q52 0 87 -36.5t35 -87.5t-35.5 -87.5t-86.5 -36.5q-52 0 -87 36.5t-35 87.5t35.5 87.5t86.5 36.5z" />
    <glyph glyph-name="oslash" unicode="&#xf8;" horiz-adv-x="1145" 
d="M215 0l50 82q-90 70 -141.5 179.5t-51.5 238.5q0 108 36 203t101.5 164.5t158 110t204.5 40.5q65 0 123.5 -14t109.5 -40l22 36h106l-52 -84q90 -70 140.5 -179t50.5 -237q0 -108 -36 -203t-101.5 -164.5t-158 -110t-204.5 -40.5q-64 0 -122 13.5t-108 38.5l-21 -34h-106
zM279 500q0 -79 20.5 -146.5t62.5 -113.5l352 575q-30 15 -65.5 23.5t-76.5 8.5q-74 0 -129 -27.5t-91.5 -74t-54.5 -110t-18 -135.5zM866 500q0 78 -20.5 144.5t-60.5 113.5l-351 -574q28 -15 63 -23t75 -8q74 0 129.5 27.5t92 74t54.5 110t18 135.5z" />
    <glyph glyph-name="ugrave" unicode="&#xf9;" 
d="M1003 0h-198v139q-51 -75 -131 -116t-172 -41q-81 0 -147 26.5t-112 77.5t-71.5 126t-25.5 172v616h197v-591q0 -125 59.5 -189t156.5 -64q113 0 179.5 68.5t66.5 203.5v572h198v-1000zM668 1123h-147l-288 301h214z" />
    <glyph glyph-name="uacute" unicode="&#xfa;" 
d="M1003 0h-198v139q-51 -75 -131 -116t-172 -41q-81 0 -147 26.5t-112 77.5t-71.5 126t-25.5 172v616h197v-591q0 -125 59.5 -189t156.5 -64q113 0 179.5 68.5t66.5 203.5v572h198v-1000zM482 1123l221 301h214l-288 -301h-147z" />
    <glyph glyph-name="ucircumflex" unicode="&#xfb;" 
d="M1003 0h-198v139q-51 -75 -131 -116t-172 -41q-81 0 -147 26.5t-112 77.5t-71.5 126t-25.5 172v616h197v-591q0 -125 59.5 -189t156.5 -64q113 0 179.5 68.5t66.5 203.5v572h198v-1000zM263 1134l310 339l312 -339h-157l-155 165l-152 -165h-158z" />
    <glyph glyph-name="udieresis" unicode="&#xfc;" 
d="M1003 0h-198v139q-51 -75 -131 -116t-172 -41q-81 0 -147 26.5t-112 77.5t-71.5 126t-25.5 172v616h197v-591q0 -125 59.5 -189t156.5 -64q113 0 179.5 68.5t66.5 203.5v572h198v-1000zM390 1187q-47 0 -79 32.5t-32 78.5q0 45 32 77.5t79 32.5q46 0 78 -32.5t32 -77.5
q0 -46 -32 -78.5t-78 -32.5zM758 1187q-46 0 -78 32.5t-32 78.5q0 45 32 77.5t78 32.5t78.5 -32.5t32.5 -77.5q0 -46 -32.5 -78.5t-78.5 -32.5z" />
    <glyph glyph-name="yacute" unicode="&#xfd;" horiz-adv-x="1028" 
d="M235 -429l181 440l-408 989h225l284 -738l286 738h209l-562 -1429h-215zM426 1123l221 301h214l-288 -301h-147z" />
    <glyph glyph-name="thorn" unicode="&#xfe;" horiz-adv-x="1184" 
d="M156 -414v1828h197v-560q49 81 132 122.5t181 41.5q102 0 183 -39.5t136.5 -108.5t85 -164t29.5 -206q0 -110 -29.5 -205.5t-84.5 -164.5t-135.5 -108.5t-181.5 -39.5q-97 0 -182 42t-134 124v-562h-197zM618 844q-69 0 -122 -26.5t-88.5 -72t-53.5 -109t-18 -136.5
t18 -136t53.5 -109t88.5 -72.5t122 -26.5t121 26.5t86.5 73t51.5 109.5t17 135t-17 135.5t-51.5 109.5t-86.5 72.5t-121 26.5z" />
    <glyph glyph-name="ydieresis" unicode="&#xff;" horiz-adv-x="1028" 
d="M235 -429l181 440l-408 989h225l284 -738l286 738h209l-562 -1429h-215zM334 1187q-47 0 -79 32.5t-32 78.5q0 45 32 77.5t79 32.5q46 0 78 -32.5t32 -77.5q0 -46 -32 -78.5t-78 -32.5zM702 1187q-46 0 -78 32.5t-32 78.5q0 45 32 77.5t78 32.5t78.5 -32.5t32.5 -77.5
q0 -46 -32.5 -78.5t-78.5 -32.5z" />
    <glyph glyph-name="Amacron" unicode="&#x100;" horiz-adv-x="1315" 
d="M734 1414l548 -1414h-223l-118 320h-571l-119 -320h-218l547 1414h154zM655 1125l-226 -628h452zM383 1626v147h547v-147h-547z" />
    <glyph glyph-name="amacron" unicode="&#x101;" horiz-adv-x="1071" 
d="M69 285q0 141 105.5 222t306.5 81h265q0 132 -61 194.5t-168 62.5q-82 0 -147.5 -39t-109.5 -111l-152 109q79 110 181 162t236 52q194 0 301.5 -109.5t107.5 -306.5v-602h-164l-13 168q-58 -91 -144.5 -138.5t-198.5 -47.5q-160 0 -252.5 81t-92.5 222zM454 150
q65 0 119 24t92 62t59.5 86t21.5 97v25h-257q-111 0 -164 -41.5t-53 -108.5q0 -65 46.5 -104.5t135.5 -39.5zM228 1216v147h547v-147h-547z" />
    <glyph glyph-name="Abreve" unicode="&#x102;" horiz-adv-x="1315" 
d="M734 1414l548 -1414h-223l-118 320h-571l-119 -320h-218l547 1414h154zM655 1125l-226 -628h452zM657 1557q-160 0 -236 75.5t-76 203.5h140q0 -78 48.5 -121.5t123.5 -43.5q77 0 123.5 45t46.5 120h140q0 -134 -79 -206.5t-231 -72.5z" />
    <glyph glyph-name="abreve" unicode="&#x103;" horiz-adv-x="1071" 
d="M69 285q0 141 105.5 222t306.5 81h265q0 132 -61 194.5t-168 62.5q-82 0 -147.5 -39t-109.5 -111l-152 109q79 110 181 162t236 52q194 0 301.5 -109.5t107.5 -306.5v-602h-164l-13 168q-58 -91 -144.5 -138.5t-198.5 -47.5q-160 0 -252.5 81t-92.5 222zM454 150
q65 0 119 24t92 62t59.5 86t21.5 97v25h-257q-111 0 -164 -41.5t-53 -108.5q0 -65 46.5 -104.5t135.5 -39.5zM502 1147q-160 0 -236 75.5t-76 203.5h140q0 -78 48.5 -121.5t123.5 -43.5q77 0 123.5 45t46.5 120h140q0 -134 -79 -206.5t-231 -72.5z" />
    <glyph glyph-name="Aogonek" unicode="&#x104;" horiz-adv-x="1315" 
d="M1150 -432q-103 0 -162 55.5t-59 145.5q0 67 34.5 128.5t94.5 104.5l-117 318h-571l-119 -320h-218l547 1414h154l548 -1414q-101 -37 -152 -90.5t-51 -116.5q0 -46 26 -72t72 -26q39 0 68 18t51 49l88 -81q-39 -54 -97 -83.5t-137 -29.5zM655 1125l-226 -628h452z" />
    <glyph glyph-name="aogonek" unicode="&#x105;" horiz-adv-x="1071" 
d="M573 -243q0 87 56 146.5t141 105.5l-13 159q-58 -91 -144.5 -138.5t-198.5 -47.5q-160 0 -252.5 81t-92.5 222t105.5 222t306.5 81h265q0 132 -61 194.5t-168 62.5q-82 0 -147.5 -39t-109.5 -111l-152 109q79 110 181 162t236 52q194 0 301.5 -109.5t107.5 -306.5v-602
q-37 -10 -76.5 -29t-71.5 -46t-53 -61t-21 -73q0 -51 28 -75t67 -24q35 0 62.5 17t51.5 50l100 -71q-36 -54 -93 -87t-133 -33q-101 0 -161.5 52t-60.5 137zM454 150q65 0 119 24t92 62t59.5 86t21.5 97v25h-257q-111 0 -164 -41.5t-53 -108.5q0 -65 46.5 -104.5
t135.5 -39.5z" />
    <glyph glyph-name="Cacute" unicode="&#x106;" horiz-adv-x="1455" 
d="M771 -18q-151 0 -275 50t-210 143t-133 227.5t-47 301.5q0 165 46.5 300t132.5 229.5t211.5 146.5t281.5 52q224 0 372.5 -100t229.5 -296l-193 -76q-49 137 -148.5 207.5t-260.5 70.5q-108 0 -193.5 -36t-144 -103.5t-89.5 -165.5t-31 -221q0 -125 30 -225t87.5 -168.5
t143 -105.5t194.5 -37q151 0 253.5 67.5t162.5 214.5l191 -78q-83 -198 -234 -298t-377 -100zM663 1543l221 301h214l-288 -301h-147z" />
    <glyph glyph-name="cacute" unicode="&#x107;" horiz-adv-x="1026" 
d="M548 -18q-109 0 -196.5 37.5t-147 105t-91.5 163t-32 211.5q0 117 32.5 213t93 164t147.5 105t196 37q149 0 256 -70.5t163 -213.5l-188 -73q-27 87 -86.5 134.5t-143.5 47.5q-57 0 -105.5 -22t-83.5 -65t-55 -107.5t-20 -147.5q0 -78 18.5 -141.5t53 -108.5t85 -69.5
t114.5 -24.5q84 0 144.5 48.5t85.5 132.5l183 -69q-49 -138 -157 -212.5t-266 -74.5zM434 1133l221 301h214l-288 -301h-147z" />
    <glyph glyph-name="Ccircumflex" unicode="&#x108;" horiz-adv-x="1455" 
d="M771 -18q-151 0 -275 50t-210 143t-133 227.5t-47 301.5q0 165 46.5 300t132.5 229.5t211.5 146.5t281.5 52q224 0 372.5 -100t229.5 -296l-193 -76q-49 137 -148.5 207.5t-260.5 70.5q-108 0 -193.5 -36t-144 -103.5t-89.5 -165.5t-31 -221q0 -125 30 -225t87.5 -168.5
t143 -105.5t194.5 -37q151 0 253.5 67.5t162.5 214.5l191 -78q-83 -198 -234 -298t-377 -100zM444 1554l310 339l312 -339h-157l-155 165l-152 -165h-158z" />
    <glyph glyph-name="ccircumflex" unicode="&#x109;" horiz-adv-x="1026" 
d="M548 -18q-109 0 -196.5 37.5t-147 105t-91.5 163t-32 211.5q0 117 32.5 213t93 164t147.5 105t196 37q149 0 256 -70.5t163 -213.5l-188 -73q-27 87 -86.5 134.5t-143.5 47.5q-57 0 -105.5 -22t-83.5 -65t-55 -107.5t-20 -147.5q0 -78 18.5 -141.5t53 -108.5t85 -69.5
t114.5 -24.5q84 0 144.5 48.5t85.5 132.5l183 -69q-49 -138 -157 -212.5t-266 -74.5zM215 1144l310 339l312 -339h-157l-155 165l-152 -165h-158z" />
    <glyph glyph-name="Cdotaccent" unicode="&#x10a;" horiz-adv-x="1455" 
d="M771 -18q-151 0 -275 50t-210 143t-133 227.5t-47 301.5q0 165 46.5 300t132.5 229.5t211.5 146.5t281.5 52q224 0 372.5 -100t229.5 -296l-193 -76q-49 137 -148.5 207.5t-260.5 70.5q-108 0 -193.5 -36t-144 -103.5t-89.5 -165.5t-31 -221q0 -125 30 -225t87.5 -168.5
t143 -105.5t194.5 -37q151 0 253.5 67.5t162.5 214.5l191 -78q-83 -198 -234 -298t-377 -100zM755 1597q-49 0 -83.5 34.5t-34.5 83.5q0 48 34.5 83t83.5 35t83.5 -35t34.5 -83q0 -49 -34.5 -83.5t-83.5 -34.5z" />
    <glyph glyph-name="cdotaccent" unicode="&#x10b;" horiz-adv-x="1026" 
d="M548 -18q-109 0 -196.5 37.5t-147 105t-91.5 163t-32 211.5q0 117 32.5 213t93 164t147.5 105t196 37q149 0 256 -70.5t163 -213.5l-188 -73q-27 87 -86.5 134.5t-143.5 47.5q-57 0 -105.5 -22t-83.5 -65t-55 -107.5t-20 -147.5q0 -78 18.5 -141.5t53 -108.5t85 -69.5
t114.5 -24.5q84 0 144.5 48.5t85.5 132.5l183 -69q-49 -138 -157 -212.5t-266 -74.5zM526 1187q-49 0 -83.5 34.5t-34.5 83.5q0 48 34.5 83t83.5 35t83.5 -35t34.5 -83q0 -49 -34.5 -83.5t-83.5 -34.5z" />
    <glyph glyph-name="Ccaron" unicode="&#x10c;" horiz-adv-x="1455" 
d="M771 -18q-151 0 -275 50t-210 143t-133 227.5t-47 301.5q0 165 46.5 300t132.5 229.5t211.5 146.5t281.5 52q224 0 372.5 -100t229.5 -296l-193 -76q-49 137 -148.5 207.5t-260.5 70.5q-108 0 -193.5 -36t-144 -103.5t-89.5 -165.5t-31 -221q0 -125 30 -225t87.5 -168.5
t143 -105.5t194.5 -37q151 0 253.5 67.5t162.5 214.5l191 -78q-83 -198 -234 -298t-377 -100zM754 1535l-310 322h158l152 -157l155 157h157z" />
    <glyph glyph-name="ccaron" unicode="&#x10d;" horiz-adv-x="1026" 
d="M548 -18q-109 0 -196.5 37.5t-147 105t-91.5 163t-32 211.5q0 117 32.5 213t93 164t147.5 105t196 37q149 0 256 -70.5t163 -213.5l-188 -73q-27 87 -86.5 134.5t-143.5 47.5q-57 0 -105.5 -22t-83.5 -65t-55 -107.5t-20 -147.5q0 -78 18.5 -141.5t53 -108.5t85 -69.5
t114.5 -24.5q84 0 144.5 48.5t85.5 132.5l183 -69q-49 -138 -157 -212.5t-266 -74.5zM525 1125l-310 322h158l152 -157l155 157h157z" />
    <glyph glyph-name="Dcaron" unicode="&#x10e;" horiz-adv-x="1438" 
d="M199 1414h396q180 0 318.5 -47.5t231 -137t140.5 -221.5t48 -300t-49 -300.5t-142.5 -222.5t-232.5 -137.5t-317 -47.5h-393v1414zM593 189q120 0 217.5 29t165.5 91t105 161t37 237q0 268 -125 393t-400 125h-188v-1036h188zM711 1530l-310 322h158l152 -157l155 157
h157z" />
    <glyph glyph-name="dcaron" unicode="&#x10f;" horiz-adv-x="1184" 
d="M1029 1414v-1414h-198v146q-49 -81 -132 -122.5t-181 -41.5q-102 0 -183 39.5t-136.5 108.5t-85 164t-29.5 206q0 110 29.5 205.5t84.5 164.5t135.5 108.5t181.5 39.5q97 0 182 -42t134 -123v561h198zM566 156q69 0 122 26.5t88.5 72t53.5 109t18 136.5t-18 136
t-53.5 109t-88.5 72.5t-122 26.5t-121 -26.5t-86 -73t-51 -109.5t-17 -135t17 -135.5t51 -109.5t86 -72.5t121 -26.5zM1102 974l35 440h207l-124 -440h-118z" />
    <glyph glyph-name="Dcroat" unicode="&#x110;" horiz-adv-x="1449" 
d="M216 1414h396q180 0 318.5 -47.5t231 -137t140.5 -221.5t48 -300t-49 -300.5t-142.5 -222.5t-232.5 -137.5t-317 -47.5h-393v637h-125v148h125v629zM610 189q120 0 217.5 29t165.5 91t105 161t37 237q0 268 -125 393t-400 125h-188v-440h368v-148h-368v-448h188z" />
    <glyph glyph-name="dcroat" unicode="&#x111;" horiz-adv-x="1177" 
d="M1150 1153h-121v-1153h-198v146q-49 -81 -132 -122.5t-181 -41.5q-102 0 -183 39.5t-136.5 108.5t-85 164t-29.5 206q0 110 29.5 205.5t84.5 164.5t135.5 108.5t181.5 39.5q97 0 182 -42t134 -123v300h-309v134h309v127h198v-127h121v-134zM566 156q69 0 122 26.5
t88.5 72t53.5 109t18 136.5t-18 136t-53.5 109t-88.5 72.5t-122 26.5t-121 -26.5t-86 -73t-51 -109.5t-17 -135t17 -135.5t51 -109.5t86 -72.5t121 -26.5z" />
    <glyph glyph-name="Emacron" unicode="&#x112;" horiz-adv-x="1259" 
d="M199 1414h933v-187h-727v-420h667v-186h-667v-430h727v-191h-933v1414zM392 1621v147h547v-147h-547z" />
    <glyph glyph-name="emacron" unicode="&#x113;" horiz-adv-x="1078" 
d="M570 -18q-114 0 -205 37t-154 104t-97 162t-34 211t34.5 212.5t96.5 165t149.5 106.5t193.5 38q119 0 204.5 -43t139 -111.5t79 -155.5t25.5 -175q0 -26 -2 -48.5t-6 -43.5h-707q15 -145 92 -213.5t195 -68.5q78 0 140.5 27t119.5 90l137 -120q-83 -89 -180.5 -131.5
t-220.5 -42.5zM551 851q-101 0 -173 -66t-89 -199h518q-5 122 -73.5 193.5t-182.5 71.5zM267 1216v147h547v-147h-547z" />
    <glyph glyph-name="Ebreve" unicode="&#x114;" horiz-adv-x="1259" 
d="M199 1414h933v-187h-727v-420h667v-186h-667v-430h727v-191h-933v1414zM666 1552q-160 0 -236 75.5t-76 203.5h140q0 -78 48.5 -121.5t123.5 -43.5q77 0 123.5 45t46.5 120h140q0 -134 -79 -206.5t-231 -72.5z" />
    <glyph glyph-name="ebreve" unicode="&#x115;" horiz-adv-x="1078" 
d="M570 -18q-114 0 -205 37t-154 104t-97 162t-34 211t34.5 212.5t96.5 165t149.5 106.5t193.5 38q119 0 204.5 -43t139 -111.5t79 -155.5t25.5 -175q0 -26 -2 -48.5t-6 -43.5h-707q15 -145 92 -213.5t195 -68.5q78 0 140.5 27t119.5 90l137 -120q-83 -89 -180.5 -131.5
t-220.5 -42.5zM551 851q-101 0 -173 -66t-89 -199h518q-5 122 -73.5 193.5t-182.5 71.5zM542 1147q-160 0 -236 75.5t-76 203.5h140q0 -78 48.5 -121.5t123.5 -43.5q77 0 123.5 45t46.5 120h140q0 -134 -79 -206.5t-231 -72.5z" />
    <glyph glyph-name="Edotaccent" unicode="&#x116;" horiz-adv-x="1259" 
d="M199 1414h933v-187h-727v-420h667v-186h-667v-430h727v-191h-933v1414zM665 1592q-49 0 -83.5 34.5t-34.5 83.5q0 48 34.5 83t83.5 35t83.5 -35t34.5 -83q0 -49 -34.5 -83.5t-83.5 -34.5z" />
    <glyph glyph-name="edotaccent" unicode="&#x117;" horiz-adv-x="1078" 
d="M570 -18q-114 0 -205 37t-154 104t-97 162t-34 211t34.5 212.5t96.5 165t149.5 106.5t193.5 38q119 0 204.5 -43t139 -111.5t79 -155.5t25.5 -175q0 -26 -2 -48.5t-6 -43.5h-707q15 -145 92 -213.5t195 -68.5q78 0 140.5 27t119.5 90l137 -120q-83 -89 -180.5 -131.5
t-220.5 -42.5zM551 851q-101 0 -173 -66t-89 -199h518q-5 122 -73.5 193.5t-182.5 71.5zM541 1187q-49 0 -83.5 34.5t-34.5 83.5q0 48 34.5 83t83.5 35t83.5 -35t34.5 -83q0 -49 -34.5 -83.5t-83.5 -34.5z" />
    <glyph glyph-name="Eogonek" unicode="&#x118;" horiz-adv-x="1259" 
d="M970 -431q-104 0 -163.5 56t-59.5 146q0 69 32 128.5t88 100.5h-668v1414h933v-187h-727v-420h667v-186h-667v-430h727v-191q-59 -4 -103 -24t-73 -48.5t-43.5 -64t-14.5 -69.5q0 -46 27.5 -71.5t73.5 -25.5q40 0 69.5 18t53.5 49l88 -83q-39 -52 -99 -82t-141 -30z" />
    <glyph glyph-name="eogonek" unicode="&#x119;" horiz-adv-x="1078" 
d="M570 -18q-114 0 -205 37t-154 104t-97 162t-34 211t34.5 212.5t96.5 165t149.5 106.5t193.5 38q119 0 204.5 -43t139 -111.5t79 -155.5t25.5 -175q0 -26 -2 -48.5t-6 -43.5h-707q15 -145 92 -213.5t195 -68.5q78 0 140.5 27t119.5 90l137 -120q-53 -59 -106.5 -101
t-96 -80.5t-69 -81t-26.5 -100.5q0 -52 29 -76.5t69 -24.5q36 0 64 16.5t52 50.5l101 -71q-37 -54 -94.5 -87t-134.5 -33q-103 0 -164 54t-61 144q0 59 24.5 112.5t75.5 107.5q-15 -2 -31.5 -3t-32.5 -1zM551 851q-101 0 -173 -66t-89 -199h518q-5 122 -73.5 193.5
t-182.5 71.5z" />
    <glyph glyph-name="Ecaron" unicode="&#x11a;" horiz-adv-x="1259" 
d="M199 1414h933v-187h-727v-420h667v-186h-667v-430h727v-191h-933v1414zM664 1530l-310 322h158l152 -157l155 157h157z" />
    <glyph glyph-name="ecaron" unicode="&#x11b;" horiz-adv-x="1078" 
d="M570 -18q-114 0 -205 37t-154 104t-97 162t-34 211t34.5 212.5t96.5 165t149.5 106.5t193.5 38q119 0 204.5 -43t139 -111.5t79 -155.5t25.5 -175q0 -26 -2 -48.5t-6 -43.5h-707q15 -145 92 -213.5t195 -68.5q78 0 140.5 27t119.5 90l137 -120q-83 -89 -180.5 -131.5
t-220.5 -42.5zM551 851q-101 0 -173 -66t-89 -199h518q-5 122 -73.5 193.5t-182.5 71.5zM540 1125l-310 322h158l152 -157l155 157h157z" />
    <glyph glyph-name="Gcircumflex" unicode="&#x11c;" horiz-adv-x="1546" 
d="M760 -18q-150 0 -271.5 50t-206 143.5t-130.5 228.5t-46 303q0 163 46 297.5t132 229t211.5 146.5t282.5 52q215 0 366 -97t232 -289l-191 -77q-54 143 -156 211t-252 68q-107 0 -192.5 -36.5t-144 -105t-89.5 -167.5t-31 -224q0 -118 27.5 -218.5t83.5 -173t142 -114
t202 -41.5q101 0 181 33t134.5 88.5t84.5 129t31 153.5h-337v172h531v-744h-164l-17 221q-69 -119 -187.5 -179t-271.5 -60zM442 1554l310 339l312 -339h-157l-155 165l-152 -165h-158z" />
    <glyph glyph-name="Gbreve" unicode="&#x11e;" horiz-adv-x="1546" 
d="M760 -18q-150 0 -271.5 50t-206 143.5t-130.5 228.5t-46 303q0 163 46 297.5t132 229t211.5 146.5t282.5 52q215 0 366 -97t232 -289l-191 -77q-54 143 -156 211t-252 68q-107 0 -192.5 -36.5t-144 -105t-89.5 -167.5t-31 -224q0 -118 27.5 -218.5t83.5 -173t142 -114
t202 -41.5q101 0 181 33t134.5 88.5t84.5 129t31 153.5h-337v172h531v-744h-164l-17 221q-69 -119 -187.5 -179t-271.5 -60zM754 1557q-160 0 -236 75.5t-76 203.5h140q0 -78 48.5 -121.5t123.5 -43.5q77 0 123.5 45t46.5 120h140q0 -134 -79 -206.5t-231 -72.5z" />
    <glyph glyph-name="gbreve" unicode="&#x11f;" horiz-adv-x="1192" 
d="M838 25v140q-49 -82 -133 -124.5t-180 -42.5q-102 0 -184 39t-139 107t-87.5 161.5t-30.5 202.5q0 108 30.5 201.5t87 162t138 107.5t182.5 39q47 0 93.5 -10.5t87.5 -32t75.5 -53t59.5 -73.5v151h198l-1 -975q0 -104 -32.5 -189t-92.5 -144.5t-147 -91.5t-195 -32
q-80 0 -147 17.5t-121 48t-96.5 72.5t-73.5 92l151 110q17 -34 44 -64.5t64 -53t83 -36t100 -13.5q122 0 194 73t72 211zM573 173q69 0 122 25.5t88.5 70.5t53.5 106.5t18 132.5t-18 132.5t-53.5 106t-88.5 70.5t-122 26t-122 -26t-89 -71t-54.5 -106.5t-18.5 -131.5
t18.5 -131.5t54.5 -106.5t89 -71t122 -26zM561 1147q-160 0 -236 75.5t-76 203.5h140q0 -78 48.5 -121.5t123.5 -43.5q77 0 123.5 45t46.5 120h140q0 -134 -79 -206.5t-231 -72.5z" />
    <glyph glyph-name="Gdotaccent" unicode="&#x120;" horiz-adv-x="1546" 
d="M760 -18q-150 0 -271.5 50t-206 143.5t-130.5 228.5t-46 303q0 163 46 297.5t132 229t211.5 146.5t282.5 52q215 0 366 -97t232 -289l-191 -77q-54 143 -156 211t-252 68q-107 0 -192.5 -36.5t-144 -105t-89.5 -167.5t-31 -224q0 -118 27.5 -218.5t83.5 -173t142 -114
t202 -41.5q101 0 181 33t134.5 88.5t84.5 129t31 153.5h-337v172h531v-744h-164l-17 221q-69 -119 -187.5 -179t-271.5 -60zM753 1597q-49 0 -83.5 34.5t-34.5 83.5q0 48 34.5 83t83.5 35t83.5 -35t34.5 -83q0 -49 -34.5 -83.5t-83.5 -34.5z" />
    <glyph glyph-name="gdotaccent" unicode="&#x121;" horiz-adv-x="1192" 
d="M838 25v140q-49 -82 -133 -124.5t-180 -42.5q-102 0 -184 39t-139 107t-87.5 161.5t-30.5 202.5q0 108 30.5 201.5t87 162t138 107.5t182.5 39q47 0 93.5 -10.5t87.5 -32t75.5 -53t59.5 -73.5v151h198l-1 -975q0 -104 -32.5 -189t-92.5 -144.5t-147 -91.5t-195 -32
q-80 0 -147 17.5t-121 48t-96.5 72.5t-73.5 92l151 110q17 -34 44 -64.5t64 -53t83 -36t100 -13.5q122 0 194 73t72 211zM573 173q69 0 122 25.5t88.5 70.5t53.5 106.5t18 132.5t-18 132.5t-53.5 106t-88.5 70.5t-122 26t-122 -26t-89 -71t-54.5 -106.5t-18.5 -131.5
t18.5 -131.5t54.5 -106.5t89 -71t122 -26zM560 1187q-49 0 -83.5 34.5t-34.5 83.5q0 48 34.5 83t83.5 35t83.5 -35t34.5 -83q0 -49 -34.5 -83.5t-83.5 -34.5z" />
    <glyph glyph-name="Gcommaaccent" unicode="&#x122;" horiz-adv-x="1546" 
d="M760 -18q-150 0 -271.5 50t-206 143.5t-130.5 228.5t-46 303q0 163 46 297.5t132 229t211.5 146.5t282.5 52q215 0 366 -97t232 -289l-191 -77q-54 143 -156 211t-252 68q-107 0 -192.5 -36.5t-144 -105t-89.5 -167.5t-31 -224q0 -118 27.5 -218.5t83.5 -173t142 -114
t202 -41.5q101 0 181 33t134.5 88.5t84.5 129t31 153.5h-337v172h531v-744h-164l-17 221q-69 -119 -187.5 -179t-271.5 -60zM884 -255q0 -57 -20.5 -102.5t-53.5 -79.5t-76.5 -59t-89.5 -43v127q50 19 75 43.5t25 40.5h-3q-51 0 -85 32.5t-34 78.5q0 47 35.5 80t86.5 33
q58 0 99 -39.5t41 -111.5z" />
    <glyph glyph-name="gcommaaccent" unicode="&#x123;" horiz-adv-x="1192" 
d="M838 25v140q-49 -82 -133 -124.5t-180 -42.5q-102 0 -184 39t-139 107t-87.5 161.5t-30.5 202.5q0 108 30.5 201.5t87 162t138 107.5t182.5 39q47 0 93.5 -10.5t87.5 -32t75.5 -53t59.5 -73.5v151h198l-1 -975q0 -104 -32.5 -189t-92.5 -144.5t-147 -91.5t-195 -32
q-80 0 -147 17.5t-121 48t-96.5 72.5t-73.5 92l151 110q17 -34 44 -64.5t64 -53t83 -36t100 -13.5q122 0 194 73t72 211zM573 173q69 0 122 25.5t88.5 70.5t53.5 106.5t18 132.5t-18 132.5t-53.5 106t-88.5 70.5t-122 26t-122 -26t-89 -71t-54.5 -106.5t-18.5 -131.5
t18.5 -131.5t54.5 -106.5t89 -71t122 -26zM444 1334q0 88 58 149t151 77v-109q-46 -7 -66 -24t-20 -37q45 0 74.5 -29.5t29.5 -71.5q0 -43 -30 -71.5t-76 -28.5q-53 0 -87 38.5t-34 106.5z" />
    <glyph glyph-name="Hcircumflex" unicode="&#x124;" horiz-adv-x="1479" 
d="M199 1414h206v-609h669v609h206v-1414h-206v619h-669v-619h-206v1414zM428 1544l310 339l312 -339h-157l-155 165l-152 -165h-158z" />
    <glyph glyph-name="hcircumflex" unicode="&#x125;" 
d="M156 1414h197v-553q51 75 131 116t172 41q81 0 147.5 -26.5t112.5 -77.5t71.5 -126t25.5 -172v-616h-198v591q0 125 -59 189t-157 64q-113 0 -179.5 -68.5t-66.5 -202.5v-573h-197v1414zM279 1549l310 339l312 -339h-157l-155 165l-152 -165h-158z" />
    <glyph glyph-name="Hbar" unicode="&#x126;" horiz-adv-x="1484" 
d="M202 1414h206v-245h669v245h206v-245h122v-127h-122v-1042h-206v619h-669v-619h-206v1042h-123v127h123v245zM408 805h669v237h-669v-237z" />
    <glyph glyph-name="hbar" unicode="&#x127;" horiz-adv-x="1163" 
d="M626 1132h-268v-271q51 75 131 116t172 41q81 0 147.5 -26.5t112.5 -77.5t71.5 -126t25.5 -172v-616h-198v591q0 125 -59 189t-157 64q-113 0 -179.5 -68.5t-66.5 -202.5v-573h-197v1132h-139v134h139v148h197v-148h268v-134z" />
    <glyph glyph-name="Itilde" unicode="&#x128;" horiz-adv-x="603" 
d="M199 1414h206v-1414h-206v1414zM93 1577h-125q0 129 50.5 198.5t142.5 69.5q56 0 95 -24t69.5 -52.5t57 -52.5t55.5 -24q31 0 50 37t19 104h126q0 -129 -50.5 -199.5t-140.5 -70.5q-56 0 -96 24t-70 52.5t-56.5 52.5t-55.5 24q-33 0 -52 -36.5t-19 -102.5z" />
    <glyph glyph-name="itilde" unicode="&#x129;" horiz-adv-x="509" 
d="M156 1000h197v-1000h-197v1000zM45 1167h-125q0 129 50.5 198.5t142.5 69.5q56 0 95 -24t69.5 -52.5t57 -52.5t55.5 -24q31 0 50 37t19 104h126q0 -129 -50.5 -199.5t-140.5 -70.5q-56 0 -96 24t-70 52.5t-56.5 52.5t-55.5 24q-33 0 -52 -36.5t-19 -102.5z" />
    <glyph glyph-name="Imacron" unicode="&#x12a;" horiz-adv-x="603" 
d="M199 1414h206v-1414h-206v1414zM28 1621v147h547v-147h-547z" />
    <glyph glyph-name="imacron" unicode="&#x12b;" horiz-adv-x="509" 
d="M156 1000h197v-1000h-197v1000zM-19 1211v147h547v-147h-547z" />
    <glyph glyph-name="Ibreve" unicode="&#x12c;" horiz-adv-x="603" 
d="M199 1414h206v-1414h-206v1414zM303 1552q-160 0 -236 75.5t-76 203.5h140q0 -78 48.5 -121.5t123.5 -43.5q77 0 123.5 45t46.5 120h140q0 -134 -79 -206.5t-231 -72.5z" />
    <glyph glyph-name="ibreve" unicode="&#x12d;" horiz-adv-x="509" 
d="M156 1000h197v-1000h-197v1000zM255 1142q-160 0 -236 75.5t-76 203.5h140q0 -78 48.5 -121.5t123.5 -43.5q77 0 123.5 45t46.5 120h140q0 -134 -79 -206.5t-231 -72.5z" />
    <glyph glyph-name="Iogonek" unicode="&#x12e;" horiz-adv-x="603" 
d="M304 -432q-107 0 -168 57t-61 145q0 72 32 130.5t92 99.5v1414h206v-1414q-84 -29 -131.5 -84t-47.5 -122q0 -46 26.5 -72t71.5 -26q40 0 71.5 16.5t56.5 50.5l89 -83q-40 -54 -99.5 -83t-137.5 -29z" />
    <glyph glyph-name="iogonek" unicode="&#x12f;" horiz-adv-x="509" 
d="M255 1196q-47 0 -79.5 33t-32.5 80q0 46 32.5 79t79.5 33q46 0 79 -33t33 -79q0 -47 -33 -80t-79 -33zM156 0v1000h197v-1000q-89 -30 -143.5 -88.5t-54.5 -118.5q0 -52 29 -76.5t69 -24.5q37 0 65 16.5t52 50.5l100 -71q-37 -54 -94.5 -87t-135.5 -33
q-104 0 -163.5 55.5t-59.5 147.5q0 72 36.5 129t102.5 100z" />
    <glyph glyph-name="Idotaccent" unicode="&#x130;" horiz-adv-x="603" 
d="M199 1414h206v-1414h-206v1414zM302 1592q-49 0 -83.5 34.5t-34.5 83.5q0 48 34.5 83t83.5 35t83.5 -35t34.5 -83q0 -49 -34.5 -83.5t-83.5 -34.5z" />
    <glyph glyph-name="dotlessi" unicode="&#x131;" horiz-adv-x="509" 
d="M156 1000h197v-1000h-197v1000z" />
    <glyph glyph-name="IJ" unicode="&#x132;" horiz-adv-x="1751" 
d="M199 1414h206v-1414h-206v1414zM1116 -18q-101 0 -184.5 33.5t-143.5 93t-95.5 141.5t-42.5 179l203 23q8 -133 78 -208t185 -75q131 0 194.5 77.5t63.5 260.5v907h206v-906q0 -253 -119 -389.5t-345 -136.5z" />
    <glyph glyph-name="ij" unicode="&#x133;" horiz-adv-x="969" 
d="M255 1193q-49 0 -83.5 34t-34.5 83q0 48 34.5 83t83.5 35t83 -35t34 -83q0 -49 -34 -83t-83 -34zM156 1000h197v-1000h-197v1000zM716 1193q-49 0 -83 34t-34 83q0 48 34 83t83 35t83.5 -35t34.5 -83q0 -49 -34.5 -83t-83.5 -34zM535 -432q-46 0 -93 10.5t-75 21.5v178
q37 -15 70.5 -22t61.5 -7q56 0 87 35t31 105v1111h197v-1109q0 -155 -75 -239t-204 -84z" />
    <glyph glyph-name="Jcircumflex" unicode="&#x134;" horiz-adv-x="1147" 
d="M511 -18q-101 0 -184.5 33.5t-143.5 93t-95.5 141.5t-42.5 179l203 23q8 -133 78 -208t185 -75q131 0 194.5 77.5t63.5 260.5v907h206v-906q0 -253 -119 -389.5t-345 -136.5zM564 1549l310 339l312 -339h-157l-155 165l-152 -165h-158z" />
    <glyph glyph-name="jcircumflex" unicode="&#x135;" horiz-adv-x="519" 
d="M84 -435q-46 0 -93 11t-75 21v178q37 -14 70.5 -21.5t61.5 -7.5q56 0 87 35t31 105v1114h197v-1112q0 -154 -75 -238.5t-204 -84.5zM-43 1139l310 339l312 -339h-157l-155 165l-152 -165h-158z" />
    <glyph glyph-name="Kcommaaccent" unicode="&#x136;" horiz-adv-x="1470" 
d="M405 1414v-767l737 767h268l-553 -563l573 -851h-257l-455 709l-313 -319v-390h-206v1414h206zM884 -255q0 -57 -20.5 -102.5t-53.5 -79.5t-76.5 -59t-89.5 -43v127q50 19 75 43.5t25 40.5h-3q-51 0 -85 32.5t-34 78.5q0 47 35.5 80t86.5 33q58 0 99 -39.5t41 -111.5z
" />
    <glyph glyph-name="kcommaaccent" unicode="&#x137;" horiz-adv-x="1099" 
d="M1045 1000l-379 -391l410 -609h-234l-309 483l-180 -186v-297h-197v1414h197v-879l434 465h258zM719 -255q0 -57 -20.5 -102.5t-53.5 -79.5t-76.5 -59t-89.5 -43v127q50 19 75 43.5t25 40.5h-3q-51 0 -85 32.5t-34 78.5q0 47 35.5 80t86.5 33q58 0 99 -39.5t41 -111.5z
" />
    <glyph glyph-name="kgreenlandic" unicode="&#x138;" horiz-adv-x="1099" 
d="M353 1000v-465l434 465h258l-379 -391l410 -609h-234l-309 483l-180 -186v-297h-197v1000h197z" />
    <glyph glyph-name="Lacute" unicode="&#x139;" horiz-adv-x="1092" 
d="M199 1414h206v-1219h621v-195h-827v1414zM225 1538l221 301h214l-288 -301h-147z" />
    <glyph glyph-name="lacute" unicode="&#x13a;" horiz-adv-x="509" 
d="M156 0v1414h197v-1414h-197zM162 1538l221 301h214l-288 -301h-147z" />
    <glyph glyph-name="Lcommaaccent" unicode="&#x13b;" horiz-adv-x="1092" 
d="M199 1414h206v-1219h621v-195h-827v1414zM755 -255q0 -57 -20.5 -102.5t-53.5 -79.5t-76.5 -59t-89.5 -43v127q50 19 75 43.5t25 40.5h-3q-51 0 -85 32.5t-34 78.5q0 47 35.5 80t86.5 33q58 0 99 -39.5t41 -111.5z" />
    <glyph glyph-name="lcommaaccent" unicode="&#x13c;" horiz-adv-x="509" 
d="M156 0v1414h197v-1414h-197zM386 -255q0 -57 -20.5 -102.5t-53.5 -79.5t-76.5 -59t-89.5 -43v127q50 19 75 43.5t25 40.5h-3q-51 0 -85 32.5t-34 78.5q0 47 35.5 80t86.5 33q58 0 99 -39.5t41 -111.5z" />
    <glyph glyph-name="Lcaron" unicode="&#x13d;" horiz-adv-x="1070" 
d="M199 1414h206v-1219h621v-195h-827v1414zM627 974l35 440h207l-124 -440h-118z" />
    <glyph glyph-name="lcaron" unicode="&#x13e;" horiz-adv-x="509" 
d="M156 0v1414h197v-1414h-197zM427 974l35 440h207l-124 -440h-118z" />
    <glyph glyph-name="Ldot" unicode="&#x13f;" horiz-adv-x="1070" 
d="M199 1414h206v-1219h621v-195h-827v1414zM836 678q-49 0 -83.5 34.5t-34.5 83.5q0 48 34.5 83t83.5 35t83.5 -35t34.5 -83q0 -49 -34.5 -83.5t-83.5 -34.5z" />
    <glyph glyph-name="ldot" unicode="&#x140;" horiz-adv-x="608" 
d="M156 0v1414h197v-1414h-197zM560 589q-49 0 -83.5 34.5t-34.5 83.5q0 48 34.5 83t83.5 35t83.5 -35t34.5 -83q0 -49 -34.5 -83.5t-83.5 -34.5z" />
    <glyph glyph-name="Lslash" unicode="&#x141;" horiz-adv-x="1092" 
d="M750 846l-324 -139v-512h621v-195h-827v618l-143 -61v185l143 61v611h206v-522l324 139v-185z" />
    <glyph glyph-name="lslash" unicode="&#x142;" horiz-adv-x="515" 
d="M159 0v624l-85 -51v189l85 51v601h197v-482l84 50v-190l-84 -50v-742h-197z" />
    <glyph glyph-name="Nacute" unicode="&#x143;" horiz-adv-x="1442" 
d="M199 1414h207l640 -1068v1068h197v-1414h-206l-641 1069v-1069h-197v1414zM629 1533l221 301h214l-288 -301h-147z" />
    <glyph glyph-name="nacute" unicode="&#x144;" 
d="M156 1000h197v-139q51 75 131 116t172 41q81 0 147.5 -26.5t112.5 -77.5t71.5 -126t25.5 -172v-616h-198v591q0 125 -59 189t-157 64q-113 0 -179.5 -68.5t-66.5 -202.5v-573h-197v1000zM526 1133l221 301h214l-288 -301h-147z" />
    <glyph glyph-name="Ncommaaccent" unicode="&#x145;" horiz-adv-x="1442" 
d="M199 1414h207l640 -1068v1068h197v-1414h-206l-641 1069v-1069h-197v1414zM852 -255q0 -57 -20.5 -102.5t-53.5 -79.5t-76.5 -59t-89.5 -43v127q50 19 75 43.5t25 40.5h-3q-51 0 -85 32.5t-34 78.5q0 47 35.5 80t86.5 33q58 0 99 -39.5t41 -111.5z" />
    <glyph glyph-name="ncommaaccent" unicode="&#x146;" 
d="M156 1000h197v-139q51 75 131 116t172 41q81 0 147.5 -26.5t112.5 -77.5t71.5 -126t25.5 -172v-616h-198v591q0 125 -59 189t-157 64q-113 0 -179.5 -68.5t-66.5 -202.5v-573h-197v1000zM714 -255q0 -57 -20.5 -102.5t-53.5 -79.5t-76.5 -59t-89.5 -43v127q50 19 75 43.5
t25 40.5h-3q-51 0 -85 32.5t-34 78.5q0 47 35.5 80t86.5 33q58 0 99 -39.5t41 -111.5z" />
    <glyph glyph-name="Ncaron" unicode="&#x147;" horiz-adv-x="1442" 
d="M199 1414h207l640 -1068v1068h197v-1414h-206l-641 1069v-1069h-197v1414zM720 1525l-310 322h158l152 -157l155 157h157z" />
    <glyph glyph-name="ncaron" unicode="&#x148;" 
d="M156 1000h197v-139q51 75 131 116t172 41q81 0 147.5 -26.5t112.5 -77.5t71.5 -126t25.5 -172v-616h-198v591q0 125 -59 189t-157 64q-113 0 -179.5 -68.5t-66.5 -202.5v-573h-197v1000zM617 1125l-310 322h158l152 -157l155 157h157z" />
    <glyph glyph-name="napostrophe" unicode="&#x149;" 
d="M156 1000h197v-139q51 75 131 116t172 41q81 0 147.5 -26.5t112.5 -77.5t71.5 -126t25.5 -172v-616h-198v591q0 125 -59 189t-157 64q-113 0 -179.5 -68.5t-66.5 -202.5v-573h-197v1000zM258 1365q0 -64 -20.5 -115t-54.5 -89t-79 -65.5t-92 -45.5v129q55 20 81.5 52
t26.5 54h-2q-54 0 -88 36.5t-34 87.5t36 87t87 36q27 0 52 -11t44.5 -32t31 -52.5t11.5 -71.5z" />
    <glyph glyph-name="Eng" unicode="&#x14a;" horiz-adv-x="1442" 
d="M824 -359v131h48q89 0 142 37t53 90q0 36 -13 64.5t-42 77.5l-616 1028v-1069h-197v1414h207l640 -1068v1068h197v-1426q0 -71 -15.5 -134t-51.5 -110t-96 -74.5t-148 -28.5h-108z" />
    <glyph glyph-name="eng" unicode="&#x14b;" 
d="M815 -114v705q0 125 -59 189t-157 64q-113 0 -179.5 -68.5t-66.5 -202.5v-573h-197v1000h197v-139q51 75 131 116t172 41q81 0 147.5 -26.5t112.5 -77.5t71.5 -126t25.5 -172v-728q0 -154 -75 -238.5t-205 -84.5q-46 0 -92.5 11t-75.5 21v178q37 -14 71 -21.5t62 -7.5
q55 0 86 35t31 105z" />
    <glyph glyph-name="Omacron" unicode="&#x14c;" horiz-adv-x="1544" 
d="M772 -18q-170 0 -296 59.5t-207.5 158.5t-122 231t-40.5 276t40.5 276t122 231t207.5 158.5t296 59.5t296 -59.5t207.5 -158.5t122 -231t40.5 -276t-40.5 -276t-122 -231t-207.5 -158.5t-296 -59.5zM772 168q121 0 207 44t140.5 117.5t79.5 172t25 205.5t-25 205.5
t-79.5 172t-140.5 117.5t-207 44t-207 -44t-140.5 -117.5t-79.5 -172t-25 -205.5t25 -205.5t79.5 -172t140.5 -117.5t207 -44zM499 1626v147h547v-147h-547z" />
    <glyph glyph-name="omacron" unicode="&#x14d;" horiz-adv-x="1145" 
d="M1072 500q0 -108 -36 -203t-101.5 -164.5t-158 -110t-204.5 -40.5t-204.5 40.5t-158 110t-101.5 164.5t-36 203t36 203t101.5 164.5t158 110t204.5 40.5t204.5 -40.5t158 -110t101.5 -164.5t36 -203zM866 500q0 71 -18 134t-54.5 109.5t-92 73.5t-129.5 27t-129 -27
t-91.5 -73.5t-54.5 -109.5t-18 -134t18 -134t54 -109.5t91.5 -73.5t129.5 -27t129.5 27t92 73.5t54.5 109.5t18 134zM299 1216v147h547v-147h-547z" />
    <glyph glyph-name="Obreve" unicode="&#x14e;" horiz-adv-x="1544" 
d="M772 -18q-170 0 -296 59.5t-207.5 158.5t-122 231t-40.5 276t40.5 276t122 231t207.5 158.5t296 59.5t296 -59.5t207.5 -158.5t122 -231t40.5 -276t-40.5 -276t-122 -231t-207.5 -158.5t-296 -59.5zM772 168q121 0 207 44t140.5 117.5t79.5 172t25 205.5t-25 205.5
t-79.5 172t-140.5 117.5t-207 44t-207 -44t-140.5 -117.5t-79.5 -172t-25 -205.5t25 -205.5t79.5 -172t140.5 -117.5t207 -44zM773 1557q-160 0 -236 75.5t-76 203.5h140q0 -78 48.5 -121.5t123.5 -43.5q77 0 123.5 45t46.5 120h140q0 -134 -79 -206.5t-231 -72.5z" />
    <glyph glyph-name="obreve" unicode="&#x14f;" horiz-adv-x="1145" 
d="M1072 500q0 -108 -36 -203t-101.5 -164.5t-158 -110t-204.5 -40.5t-204.5 40.5t-158 110t-101.5 164.5t-36 203t36 203t101.5 164.5t158 110t204.5 40.5t204.5 -40.5t158 -110t101.5 -164.5t36 -203zM866 500q0 71 -18 134t-54.5 109.5t-92 73.5t-129.5 27t-129 -27
t-91.5 -73.5t-54.5 -109.5t-18 -134t18 -134t54 -109.5t91.5 -73.5t129.5 -27t129.5 27t92 73.5t54.5 109.5t18 134zM573 1147q-160 0 -236 75.5t-76 203.5h140q0 -78 48.5 -121.5t123.5 -43.5q77 0 123.5 45t46.5 120h140q0 -134 -79 -206.5t-231 -72.5z" />
    <glyph glyph-name="Ohungarumlaut" unicode="&#x150;" horiz-adv-x="1544" 
d="M772 -18q-170 0 -296 59.5t-207.5 158.5t-122 231t-40.5 276t40.5 276t122 231t207.5 158.5t296 59.5t296 -59.5t207.5 -158.5t122 -231t40.5 -276t-40.5 -276t-122 -231t-207.5 -158.5t-296 -59.5zM772 168q121 0 207 44t140.5 117.5t79.5 172t25 205.5t-25 205.5
t-79.5 172t-140.5 117.5t-207 44t-207 -44t-140.5 -117.5t-79.5 -172t-25 -205.5t25 -205.5t79.5 -172t140.5 -117.5t207 -44zM860 1546l219 320h213l-286 -320h-146zM527 1546l220 320h185l-259 -320h-146z" />
    <glyph glyph-name="ohungarumlaut" unicode="&#x151;" horiz-adv-x="1145" 
d="M1072 500q0 -108 -36 -203t-101.5 -164.5t-158 -110t-204.5 -40.5t-204.5 40.5t-158 110t-101.5 164.5t-36 203t36 203t101.5 164.5t158 110t204.5 40.5t204.5 -40.5t158 -110t101.5 -164.5t36 -203zM866 500q0 71 -18 134t-54.5 109.5t-92 73.5t-129.5 27t-129 -27
t-91.5 -73.5t-54.5 -109.5t-18 -134t18 -134t54 -109.5t91.5 -73.5t129.5 -27t129.5 27t92 73.5t54.5 109.5t18 134zM660 1136l219 320h213l-286 -320h-146zM327 1136l220 320h185l-259 -320h-146z" />
    <glyph glyph-name="OE" unicode="&#x152;" horiz-adv-x="2276" 
d="M1225 0v205q-79 -104 -190.5 -163.5t-268.5 -59.5q-170 0 -296 59.5t-208 158.5t-122.5 231t-40.5 276t40.5 276t122.5 231t208 158.5t296 59.5q157 0 269 -58.5t190 -161.5v202h924v-187h-718v-419h658v-187h-658v-430h718v-191h-924zM765 168q120 0 205 44t138.5 117.5
t78.5 172t25 205.5t-25 205.5t-78.5 172t-138.5 117.5t-205 44q-121 0 -207 -44t-140.5 -117.5t-79.5 -172t-25 -205.5t25 -205.5t79.5 -172t140.5 -117.5t207 -44z" />
    <glyph glyph-name="oe" unicode="&#x153;" horiz-adv-x="1857" 
d="M1751 156q-83 -89 -180.5 -131.5t-220.5 -42.5q-137 0 -235.5 56t-155.5 152q-63 -96 -162.5 -152t-224.5 -56q-113 0 -205.5 41t-157.5 111t-101 165t-36 202t36 201.5t101.5 164.5t158 110.5t204.5 40.5q131 0 229 -55t161 -162q57 102 149 159.5t223 57.5
q119 0 204.5 -43t139 -111.5t79 -155.5t25.5 -175q0 -28 -2 -53.5t-6 -38.5h-707q14 -143 90 -211.5t195 -68.5q77 0 141 26t121 89zM1331 851q-102 0 -173.5 -66t-88.5 -199h518q-5 122 -74 193.5t-182 71.5zM572 153q74 0 129.5 28t92 75t54.5 110.5t18 134.5t-18 134
t-54.5 110t-92 74.5t-129.5 27.5t-129 -27.5t-91.5 -74.5t-54.5 -110t-18 -134t18 -134.5t54.5 -110.5t91.5 -75t129 -28z" />
    <glyph glyph-name="Racute" unicode="&#x154;" horiz-adv-x="1262" 
d="M1138 1013q0 -137 -80.5 -237t-219.5 -140l365 -636h-235l-330 612h-233v-612h-206v1414h467q106 0 193.5 -28.5t149 -80.5t95.5 -126.5t34 -165.5zM655 795q134 0 204 57.5t70 158.5t-72.5 158.5t-203.5 57.5h-247v-432h249zM554 1538l221 301h214l-288 -301h-147z" />
    <glyph glyph-name="racute" unicode="&#x155;" horiz-adv-x="791" 
d="M156 1000h193v-194q43 104 117.5 158t164.5 54q34 0 59.5 -4t42.5 -8v-198q-19 7 -42 12t-57 5q-59 0 -111.5 -25.5t-91.5 -72.5t-61.5 -115.5t-22.5 -153.5v-458h-191v1000zM352 1128l221 301h214l-288 -301h-147z" />
    <glyph glyph-name="Rcommaaccent" unicode="&#x156;" horiz-adv-x="1262" 
d="M1138 1013q0 -137 -80.5 -237t-219.5 -140l365 -636h-235l-330 612h-233v-612h-206v1414h467q106 0 193.5 -28.5t149 -80.5t95.5 -126.5t34 -165.5zM655 795q134 0 204 57.5t70 158.5t-72.5 158.5t-203.5 57.5h-247v-432h249zM778 -255q0 -57 -20.5 -102.5t-53.5 -79.5
t-76.5 -59t-89.5 -43v127q50 19 75 43.5t25 40.5h-3q-51 0 -85 32.5t-34 78.5q0 47 35.5 80t86.5 33q58 0 99 -39.5t41 -111.5z" />
    <glyph glyph-name="rcommaaccent" unicode="&#x157;" horiz-adv-x="791" 
d="M156 1000h193v-194q43 104 117.5 158t164.5 54q34 0 59.5 -4t42.5 -8v-198q-19 7 -42 12t-57 5q-59 0 -111.5 -25.5t-91.5 -72.5t-61.5 -115.5t-22.5 -153.5v-458h-191v1000zM391 -255q0 -57 -20.5 -102.5t-53.5 -79.5t-76.5 -59t-89.5 -43v127q50 19 75 43.5t25 40.5h-3
q-51 0 -85 32.5t-34 78.5q0 47 35.5 80t86.5 33q58 0 99 -39.5t41 -111.5z" />
    <glyph glyph-name="Rcaron" unicode="&#x158;" horiz-adv-x="1262" 
d="M1138 1013q0 -137 -80.5 -237t-219.5 -140l365 -636h-235l-330 612h-233v-612h-206v1414h467q106 0 193.5 -28.5t149 -80.5t95.5 -126.5t34 -165.5zM655 795q134 0 204 57.5t70 158.5t-72.5 158.5t-203.5 57.5h-247v-432h249zM645 1530l-310 322h158l152 -157l155 157
h157z" />
    <glyph glyph-name="rcaron" unicode="&#x159;" horiz-adv-x="791" 
d="M156 1000h193v-194q43 104 117.5 158t164.5 54q34 0 59.5 -4t42.5 -8v-198q-19 7 -42 12t-57 5q-59 0 -111.5 -25.5t-91.5 -72.5t-61.5 -115.5t-22.5 -153.5v-458h-191v1000zM443 1120l-310 322h158l152 -157l155 157h157z" />
    <glyph glyph-name="Sacute" unicode="&#x15a;" horiz-adv-x="1142" 
d="M583 -18q-104 0 -191.5 28t-154 80t-111 126.5t-63.5 167.5l204 54q24 -140 111.5 -208.5t214.5 -68.5q129 0 196.5 55t67.5 141q0 127 -110 185t-241 112.5t-241 140t-110 267.5q0 80 31.5 148t87.5 117t133.5 77t169.5 28q151 0 261.5 -73t170.5 -213l-187 -58
q-40 82 -101 123.5t-148 41.5q-95 0 -154.5 -50.5t-59.5 -128.5q0 -120 110 -174.5t240.5 -108t240.5 -141.5t110 -274q0 -86 -34 -159t-96 -125t-150.5 -81t-196.5 -29zM477 1543l221 301h214l-288 -301h-147z" />
    <glyph glyph-name="sacute" unicode="&#x15b;" horiz-adv-x="931" 
d="M474 -18q-160 0 -263.5 63.5t-153.5 182.5l155 90q41 -87 107 -129t151 -42q92 0 139 35.5t47 90.5q0 86 -86.5 115t-190 57.5t-190 87t-86.5 203.5q0 62 24.5 114t70 89t111 58t146.5 21q134 0 229 -53.5t149 -152.5l-157 -86q-28 55 -82 94t-139 39q-78 0 -120 -31
t-42 -79q0 -78 87.5 -105t191.5 -57t191.5 -89.5t87.5 -201.5q0 -78 -30 -137t-81 -98t-120 -59t-146 -20zM362 1133l221 301h214l-288 -301h-147z" />
    <glyph glyph-name="Scircumflex" unicode="&#x15c;" horiz-adv-x="1142" 
d="M583 -18q-104 0 -191.5 28t-154 80t-111 126.5t-63.5 167.5l204 54q24 -140 111.5 -208.5t214.5 -68.5q129 0 196.5 55t67.5 141q0 127 -110 185t-241 112.5t-241 140t-110 267.5q0 80 31.5 148t87.5 117t133.5 77t169.5 28q151 0 261.5 -73t170.5 -213l-187 -58
q-40 82 -101 123.5t-148 41.5q-95 0 -154.5 -50.5t-59.5 -128.5q0 -120 110 -174.5t240.5 -108t240.5 -141.5t110 -274q0 -86 -34 -159t-96 -125t-150.5 -81t-196.5 -29zM258 1554l310 339l312 -339h-157l-155 165l-152 -165h-158z" />
    <glyph glyph-name="scircumflex" unicode="&#x15d;" horiz-adv-x="931" 
d="M474 -18q-160 0 -263.5 63.5t-153.5 182.5l155 90q41 -87 107 -129t151 -42q92 0 139 35.5t47 90.5q0 86 -86.5 115t-190 57.5t-190 87t-86.5 203.5q0 62 24.5 114t70 89t111 58t146.5 21q134 0 229 -53.5t149 -152.5l-157 -86q-28 55 -82 94t-139 39q-78 0 -120 -31
t-42 -79q0 -78 87.5 -105t191.5 -57t191.5 -89.5t87.5 -201.5q0 -78 -30 -137t-81 -98t-120 -59t-146 -20zM143 1144l310 339l312 -339h-157l-155 165l-152 -165h-158z" />
    <glyph glyph-name="Scedilla" unicode="&#x15e;" horiz-adv-x="1142" 
d="M583 -18q-104 0 -191.5 28t-154 80t-111 126.5t-63.5 167.5l204 54q24 -140 111.5 -208.5t214.5 -68.5q129 0 196.5 55t67.5 141q0 127 -110 185t-241 112.5t-241 140t-110 267.5q0 80 31.5 148t87.5 117t133.5 77t169.5 28q151 0 261.5 -73t170.5 -213l-187 -58
q-40 82 -101 123.5t-148 41.5q-95 0 -154.5 -50.5t-59.5 -128.5q0 -120 110 -174.5t240.5 -108t240.5 -141.5t110 -274q0 -86 -34 -159t-96 -125t-150.5 -81t-196.5 -29zM567 -519q-63 0 -119.5 36t-80.5 92l112 48q9 -25 34 -42t56 -17q41 0 67 25t26 65q0 55 -41.5 86
t-128.5 31h-49l70 195h122l-38 -111q93 -10 142.5 -63t49.5 -136q0 -45 -16.5 -83.5t-46 -66t-70 -43.5t-89.5 -16z" />
    <glyph glyph-name="scedilla" unicode="&#x15f;" horiz-adv-x="931" 
d="M474 -18q-160 0 -263.5 63.5t-153.5 182.5l155 90q41 -87 107 -129t151 -42q92 0 139 35.5t47 90.5q0 86 -86.5 115t-190 57.5t-190 87t-86.5 203.5q0 62 24.5 114t70 89t111 58t146.5 21q134 0 229 -53.5t149 -152.5l-157 -86q-28 55 -82 94t-139 39q-78 0 -120 -31
t-42 -79q0 -78 87.5 -105t191.5 -57t191.5 -89.5t87.5 -201.5q0 -78 -30 -137t-81 -98t-120 -59t-146 -20zM452 -519q-63 0 -119.5 36t-80.5 92l112 48q9 -25 34 -42t56 -17q41 0 67 25t26 65q0 55 -41.5 86t-128.5 31h-49l70 195h122l-38 -111q93 -10 142.5 -63t49.5 -136
q0 -45 -16.5 -83.5t-46 -66t-70 -43.5t-89.5 -16z" />
    <glyph glyph-name="Scaron" unicode="&#x160;" horiz-adv-x="1142" 
d="M583 -18q-104 0 -191.5 28t-154 80t-111 126.5t-63.5 167.5l204 54q24 -140 111.5 -208.5t214.5 -68.5q129 0 196.5 55t67.5 141q0 127 -110 185t-241 112.5t-241 140t-110 267.5q0 80 31.5 148t87.5 117t133.5 77t169.5 28q151 0 261.5 -73t170.5 -213l-187 -58
q-40 82 -101 123.5t-148 41.5q-95 0 -154.5 -50.5t-59.5 -128.5q0 -120 110 -174.5t240.5 -108t240.5 -141.5t110 -274q0 -86 -34 -159t-96 -125t-150.5 -81t-196.5 -29zM568 1535l-310 322h158l152 -157l155 157h157z" />
    <glyph glyph-name="scaron" unicode="&#x161;" horiz-adv-x="931" 
d="M474 -18q-160 0 -263.5 63.5t-153.5 182.5l155 90q41 -87 107 -129t151 -42q92 0 139 35.5t47 90.5q0 86 -86.5 115t-190 57.5t-190 87t-86.5 203.5q0 62 24.5 114t70 89t111 58t146.5 21q134 0 229 -53.5t149 -152.5l-157 -86q-28 55 -82 94t-139 39q-78 0 -120 -31
t-42 -79q0 -78 87.5 -105t191.5 -57t191.5 -89.5t87.5 -201.5q0 -78 -30 -137t-81 -98t-120 -59t-146 -20zM453 1125l-310 322h158l152 -157l155 157h157z" />
    <glyph glyph-name="Tcedilla" unicode="&#x162;" horiz-adv-x="1199" 
d="M496 1227h-464v187h1134v-187h-464v-1227h-206v1227zM597 -519q-63 0 -119.5 36t-80.5 92l112 48q9 -25 34 -42t56 -17q41 0 67 25t26 65q0 55 -41.5 86t-128.5 31h-49l70 195h122l-38 -111q93 -10 142.5 -63t49.5 -136q0 -45 -16.5 -83.5t-46 -66t-70 -43.5t-89.5 -16z
" />
    <glyph glyph-name="tcedilla" unicode="&#x163;" horiz-adv-x="728" 
d="M496 -18q-143 0 -221.5 79t-78.5 221v555h-163v163h165v379h194v-379h263v-163h-263v-526q0 -87 36.5 -121t97.5 -34q35 0 70 10t60 21v-179q-25 -10 -69.5 -18t-90.5 -8zM432 -519q-63 0 -119.5 36t-80.5 92l112 48q9 -25 34 -42t56 -17q41 0 67 25t26 65q0 55 -41.5 86
t-128.5 31h-49l70 195h122l-38 -111q93 -10 142.5 -63t49.5 -136q0 -45 -16.5 -83.5t-46 -66t-70 -43.5t-89.5 -16z" />
    <glyph glyph-name="Tcaron" unicode="&#x164;" horiz-adv-x="1199" 
d="M496 1227h-464v187h1134v-187h-464v-1227h-206v1227zM598 1530l-310 322h158l152 -157l155 157h157z" />
    <glyph glyph-name="tcaron" unicode="&#x165;" horiz-adv-x="730" 
d="M496 -18q-143 0 -221.5 79t-78.5 221v555h-163v163h165v379h194v-379h263v-163h-263v-526q0 -87 36.5 -121t97.5 -34q35 0 70 10t60 21v-179q-25 -10 -69.5 -18t-90.5 -8zM540 1092l35 440h207l-124 -440h-118z" />
    <glyph glyph-name="Tbar" unicode="&#x166;" horiz-adv-x="1199" 
d="M229 774h267v453h-464v187h1134v-187h-464v-453h268v-148h-268v-626h-206v626h-267v148z" />
    <glyph glyph-name="tbar" unicode="&#x167;" horiz-adv-x="732" 
d="M497 -18q-143 0 -221.5 79t-78.5 221v240h-164v166h164v149h-163v163h165v379h194v-379h263v-163h-263v-149h263v-166h-263v-211q0 -87 36.5 -121t97.5 -34q35 0 70 10t60 21v-179q-25 -10 -69.5 -18t-90.5 -8z" />
    <glyph glyph-name="Utilde" unicode="&#x168;" horiz-adv-x="1389" 
d="M692 -18q-135 0 -234 39.5t-163 111.5t-95 176.5t-31 232.5v872h205v-850q0 -187 71.5 -288t250.5 -101q90 0 151 26t98.5 75.5t53.5 122.5t16 167v848h206v-861q0 -132 -31.5 -238t-96.5 -179.5t-165 -113.5t-236 -40zM485 1572h-125q0 129 50.5 198.5t142.5 69.5
q56 0 95 -24t69.5 -52.5t57 -52.5t55.5 -24q31 0 50 37t19 104h126q0 -129 -50.5 -199.5t-140.5 -70.5q-56 0 -96 24t-70 52.5t-56.5 52.5t-55.5 24q-33 0 -52 -36.5t-19 -102.5z" />
    <glyph glyph-name="utilde" unicode="&#x169;" 
d="M1003 0h-198v139q-51 -75 -131 -116t-172 -41q-81 0 -147 26.5t-112 77.5t-71.5 126t-25.5 172v616h197v-591q0 -125 59.5 -189t156.5 -64q113 0 179.5 68.5t66.5 203.5v572h198v-1000zM365 1162h-125q0 129 50.5 198.5t142.5 69.5q56 0 95 -24t69.5 -52.5t57 -52.5
t55.5 -24q31 0 50 37t19 104h126q0 -129 -50.5 -199.5t-140.5 -70.5q-56 0 -96 24t-70 52.5t-56.5 52.5t-55.5 24q-33 0 -52 -36.5t-19 -102.5z" />
    <glyph glyph-name="Umacron" unicode="&#x16a;" horiz-adv-x="1389" 
d="M692 -18q-135 0 -234 39.5t-163 111.5t-95 176.5t-31 232.5v872h205v-850q0 -187 71.5 -288t250.5 -101q90 0 151 26t98.5 75.5t53.5 122.5t16 167v848h206v-861q0 -132 -31.5 -238t-96.5 -179.5t-165 -113.5t-236 -40zM421 1616v147h547v-147h-547z" />
    <glyph glyph-name="umacron" unicode="&#x16b;" 
d="M1003 0h-198v139q-51 -75 -131 -116t-172 -41q-81 0 -147 26.5t-112 77.5t-71.5 126t-25.5 172v616h197v-591q0 -125 59.5 -189t156.5 -64q113 0 179.5 68.5t66.5 203.5v572h198v-1000zM301 1206v147h547v-147h-547z" />
    <glyph glyph-name="Ubreve" unicode="&#x16c;" horiz-adv-x="1389" 
d="M692 -18q-135 0 -234 39.5t-163 111.5t-95 176.5t-31 232.5v872h205v-850q0 -187 71.5 -288t250.5 -101q90 0 151 26t98.5 75.5t53.5 122.5t16 167v848h206v-861q0 -132 -31.5 -238t-96.5 -179.5t-165 -113.5t-236 -40zM695 1547q-160 0 -236 75.5t-76 203.5h140
q0 -78 48.5 -121.5t123.5 -43.5q77 0 123.5 45t46.5 120h140q0 -134 -79 -206.5t-231 -72.5z" />
    <glyph glyph-name="ubreve" unicode="&#x16d;" 
d="M1003 0h-198v139q-51 -75 -131 -116t-172 -41q-81 0 -147 26.5t-112 77.5t-71.5 126t-25.5 172v616h197v-591q0 -125 59.5 -189t156.5 -64q113 0 179.5 68.5t66.5 203.5v572h198v-1000zM575 1137q-160 0 -236 75.5t-76 203.5h140q0 -78 48.5 -121.5t123.5 -43.5
q77 0 123.5 45t46.5 120h140q0 -134 -79 -206.5t-231 -72.5z" />
    <glyph glyph-name="Uring" unicode="&#x16e;" horiz-adv-x="1389" 
d="M692 -18q-135 0 -234 39.5t-163 111.5t-95 176.5t-31 232.5v872h205v-850q0 -187 71.5 -288t250.5 -101q90 0 151 26t98.5 75.5t53.5 122.5t16 167v848h206v-861q0 -132 -31.5 -238t-96.5 -179.5t-165 -113.5t-236 -40zM693 1488q-45 0 -84.5 17.5t-68.5 46.5t-45.5 68.5
t-16.5 82.5q0 44 17 83.5t46 69t68.5 46.5t83.5 17t84 -17t69.5 -45.5t46.5 -68t17 -84.5t-17 -84.5t-46 -68.5t-69 -46t-85 -17zM693 1809q-46 0 -75 -30t-29 -73q0 -47 30.5 -77.5t73.5 -30.5q47 0 77 31t30 77q0 44 -29 73.5t-78 29.5z" />
    <glyph glyph-name="uring" unicode="&#x16f;" 
d="M1003 0h-198v139q-51 -75 -131 -116t-172 -41q-81 0 -147 26.5t-112 77.5t-71.5 126t-25.5 172v616h197v-591q0 -125 59.5 -189t156.5 -64q113 0 179.5 68.5t66.5 203.5v572h198v-1000zM573 1078q-45 0 -84.5 17.5t-68.5 46.5t-45.5 68.5t-16.5 82.5q0 44 17 83.5t46 69
t68.5 46.5t83.5 17t84 -17t69.5 -45.5t46.5 -68t17 -84.5t-17 -84.5t-46 -68.5t-69 -46t-85 -17zM573 1399q-46 0 -75 -30t-29 -73q0 -47 30.5 -77.5t73.5 -30.5q47 0 77 31t30 77q0 44 -29 73.5t-78 29.5z" />
    <glyph glyph-name="Uhungarumlaut" unicode="&#x170;" horiz-adv-x="1389" 
d="M692 -18q-135 0 -234 39.5t-163 111.5t-95 176.5t-31 232.5v872h205v-850q0 -187 71.5 -288t250.5 -101q90 0 151 26t98.5 75.5t53.5 122.5t16 167v848h206v-861q0 -132 -31.5 -238t-96.5 -179.5t-165 -113.5t-236 -40zM782 1536l219 320h213l-286 -320h-146zM449 1536
l220 320h185l-259 -320h-146z" />
    <glyph glyph-name="uhungarumlaut" unicode="&#x171;" 
d="M1003 0h-198v139q-51 -75 -131 -116t-172 -41q-81 0 -147 26.5t-112 77.5t-71.5 126t-25.5 172v616h197v-591q0 -125 59.5 -189t156.5 -64q113 0 179.5 68.5t66.5 203.5v572h198v-1000zM662 1126l219 320h213l-286 -320h-146zM329 1126l220 320h185l-259 -320h-146z" />
    <glyph glyph-name="Uogonek" unicode="&#x172;" horiz-adv-x="1389" 
d="M911 -432q-105 0 -166 56.5t-61 147.5q0 55 19 108t59 105q-16 -1 -33 -2t-35 -1q-135 0 -235 39.5t-164 112t-95 177t-31 232.5v871h205v-850q0 -93 16.5 -166t53.5 -122.5t98.5 -75t151.5 -25.5t151.5 26t99 75.5t54 122.5t16.5 167v848h206v-861q0 -153 -36.5 -258
t-117.5 -186q-28 -28 -62 -54.5t-69 -61.5q-49 -49 -75 -97t-26 -99q0 -49 28.5 -75t75.5 -26q40 0 68.5 17.5t53.5 49.5l89 -83q-40 -54 -99.5 -83t-139.5 -29z" />
    <glyph glyph-name="uogonek" unicode="&#x173;" 
d="M1003 0q-37 -10 -77 -29t-72.5 -46t-54 -61t-21.5 -73q0 -51 28 -75t67 -24q36 0 63.5 17t50.5 50l101 -71q-37 -54 -93.5 -87t-132.5 -33q-104 0 -163 54.5t-59 144.5q0 80 45.5 138.5t119.5 102.5v131q-51 -75 -131 -116t-172 -41q-81 0 -147 26.5t-112 77.5t-71.5 126
t-25.5 172v616h197v-591q0 -125 59.5 -189t156.5 -64q113 0 179.5 68.5t66.5 203.5v572h198v-1000z" />
    <glyph glyph-name="Wcircumflex" unicode="&#x174;" horiz-adv-x="1989" 
d="M45 1414h214l319 -1114l336 1091h162l335 -1091l319 1114h214l-418 -1414h-208l-324 1046l-323 -1046h-208zM683 1549l310 339l312 -339h-157l-155 165l-152 -165h-158z" />
    <glyph glyph-name="wcircumflex" unicode="&#x175;" horiz-adv-x="1475" 
d="M28 1000h211l192 -699l221 699h172l221 -699l191 699h211l-304 -1000h-181l-228 722l-225 -722h-181zM426 1139l310 339l312 -339h-157l-155 165l-152 -165h-158z" />
    <glyph glyph-name="Ycircumflex" unicode="&#x176;" horiz-adv-x="1320" 
d="M554 547l-534 867h251l389 -669l391 669h249l-532 -867v-547h-214v547zM349 1544l310 339l312 -339h-157l-155 165l-152 -165h-158z" />
    <glyph glyph-name="ycircumflex" unicode="&#x177;" horiz-adv-x="1028" 
d="M235 -429l181 440l-408 989h225l284 -738l286 738h209l-562 -1429h-215zM207 1134l310 339l312 -339h-157l-155 165l-152 -165h-158z" />
    <glyph glyph-name="Ydieresis" unicode="&#x178;" horiz-adv-x="1320" 
d="M554 547l-534 867h251l389 -669l391 669h249l-532 -867v-547h-214v547zM476 1597q-47 0 -79 32.5t-32 78.5q0 45 32 77.5t79 32.5q46 0 78 -32.5t32 -77.5q0 -46 -32 -78.5t-78 -32.5zM844 1597q-46 0 -78 32.5t-32 78.5q0 45 32 77.5t78 32.5t78.5 -32.5t32.5 -77.5
q0 -46 -32.5 -78.5t-78.5 -32.5z" />
    <glyph glyph-name="Zacute" unicode="&#x179;" horiz-adv-x="1298" 
d="M80 152l835 1073h-793v189h1077v-152l-835 -1073h843v-189h-1127v152zM551 1538l221 301h214l-288 -301h-147z" />
    <glyph glyph-name="zacute" unicode="&#x17a;" horiz-adv-x="992" 
d="M896 866l-572 -699h600v-167h-856v134l573 700h-553v166h808v-134zM403 1128l221 301h214l-288 -301h-147z" />
    <glyph glyph-name="Zdotaccent" unicode="&#x17b;" horiz-adv-x="1298" 
d="M80 152l835 1073h-793v189h1077v-152l-835 -1073h843v-189h-1127v152zM643 1592q-49 0 -83.5 34.5t-34.5 83.5q0 48 34.5 83t83.5 35t83.5 -35t34.5 -83q0 -49 -34.5 -83.5t-83.5 -34.5z" />
    <glyph glyph-name="zdotaccent" unicode="&#x17c;" horiz-adv-x="992" 
d="M896 866l-572 -699h600v-167h-856v134l573 700h-553v166h808v-134zM495 1182q-49 0 -83.5 34.5t-34.5 83.5q0 48 34.5 83t83.5 35t83.5 -35t34.5 -83q0 -49 -34.5 -83.5t-83.5 -34.5z" />
    <glyph glyph-name="Zcaron" unicode="&#x17d;" horiz-adv-x="1298" 
d="M80 152l835 1073h-793v189h1077v-152l-835 -1073h843v-189h-1127v152zM642 1530l-310 322h158l152 -157l155 157h157z" />
    <glyph glyph-name="zcaron" unicode="&#x17e;" horiz-adv-x="992" 
d="M896 866l-572 -699h600v-167h-856v134l573 700h-553v166h808v-134zM494 1120l-310 322h158l152 -157l155 157h157z" />
    <glyph glyph-name="florin" unicode="&#x192;" horiz-adv-x="1036" 
d="M119 -442v164q73 0 124 14.5t82.5 48t45.5 89.5t14 138v607h-259v161h259v336q0 69 23 127.5t64 100.5t98 65.5t124 23.5q69 0 128 -25t116 -74l-109 -126q-36 31 -63.5 45t-64.5 14q-47 0 -83 -36.5t-36 -114.5v-336h282v-161h-282v-609q0 -221 -117.5 -336.5
t-345.5 -115.5z" />
    <glyph glyph-name="uni01C4" unicode="&#x1c4;" horiz-adv-x="2698" 
d="M199 1414h396q180 0 318.5 -47.5t231 -137t140.5 -221.5t48 -300t-49 -300.5t-142.5 -222.5t-232.5 -137.5t-317 -47.5h-393v1414zM593 189q120 0 217.5 29t165.5 91t105 161t37 237q0 268 -125 393t-400 125h-188v-1036h188zM1492 152l835 1073h-793v189h1077v-152
l-835 -1073h843v-189h-1127v152zM2047 1530l-310 322h158l152 -157l155 157h157z" />
    <glyph glyph-name="uni01C5" unicode="&#x1c5;" horiz-adv-x="2424" 
d="M199 1414h396q180 0 318.5 -47.5t231 -137t140.5 -221.5t48 -300t-49 -300.5t-142.5 -222.5t-232.5 -137.5t-317 -47.5h-393v1414zM593 189q120 0 217.5 29t165.5 91t105 161t37 237q0 268 -125 393t-400 125h-188v-1036h188zM2329 866l-572 -699h600v-167h-856v134
l573 700h-553v166h808v-134zM1920 1120l-310 322h158l152 -157l155 157h157z" />
    <glyph glyph-name="uni01C6" unicode="&#x1c6;" horiz-adv-x="2171" 
d="M1029 1414v-1414h-198v146q-49 -81 -132 -122.5t-181 -41.5q-102 0 -183 39.5t-136.5 108.5t-85 164t-29.5 206q0 110 29.5 205.5t84.5 164.5t135.5 108.5t181.5 39.5q97 0 182 -42t134 -123v561h198zM566 156q69 0 122 26.5t88.5 72t53.5 109t18 136.5t-18 136
t-53.5 109t-88.5 72.5t-122 26.5t-121 -26.5t-86 -73t-51 -109.5t-17 -135t17 -135.5t51 -109.5t86 -72.5t121 -26.5zM2076 866l-572 -699h600v-167h-856v134l573 700h-553v166h808v-134zM1667 1120l-310 322h158l152 -157l155 157h157z" />
    <glyph glyph-name="uni01C7" unicode="&#x1c7;" horiz-adv-x="2250" 
d="M199 1414h206v-1219h621v-195h-827v1414zM1614 -18q-101 0 -184.5 33.5t-143.5 93t-95.5 141.5t-42.5 179l203 23q8 -133 78 -208t185 -75q131 0 194.5 77.5t63.5 260.5v907h206v-906q0 -253 -119 -389.5t-345 -136.5z" />
    <glyph glyph-name="uni01C8" unicode="&#x1c8;" horiz-adv-x="1596" 
d="M199 1414h206v-1219h621v-195h-827v1414zM1342 1193q-49 0 -83 34t-34 83q0 48 34 83t83 35t83.5 -35t34.5 -83q0 -49 -34.5 -83t-83.5 -34zM1161 -432q-46 0 -93 10.5t-75 21.5v178q37 -15 70.5 -22t61.5 -7q56 0 87 35t31 105v1111h197v-1109q0 -155 -75 -239t-204 -84
z" />
    <glyph glyph-name="uni01C9" unicode="&#x1c9;" horiz-adv-x="971" 
d="M156 0v1414h197v-1414h-197zM716 1193q-49 0 -83 34t-34 83q0 48 34 83t83 35t83.5 -35t34.5 -83q0 -49 -34.5 -83t-83.5 -34zM535 -432q-46 0 -93 10.5t-75 21.5v178q37 -15 70.5 -22t61.5 -7q56 0 87 35t31 105v1111h197v-1109q0 -155 -75 -239t-204 -84z" />
    <glyph glyph-name="uni01CA" unicode="&#x1ca;" horiz-adv-x="2589" 
d="M199 1414h207l640 -1068v1068h197v-1414h-206l-641 1069v-1069h-197v1414zM1954 -18q-101 0 -184.5 33.5t-143.5 93t-95.5 141.5t-42.5 179l203 23q8 -133 78 -208t185 -75q131 0 194.5 77.5t63.5 260.5v907h206v-906q0 -253 -119 -389.5t-345 -136.5z" />
    <glyph glyph-name="uni01CB" unicode="&#x1cb;" horiz-adv-x="1894" 
d="M199 1414h207l640 -1068v1068h197v-1414h-206l-641 1069v-1069h-197v1414zM1640 1193q-49 0 -83 34t-34 83q0 48 34 83t83 35t83.5 -35t34.5 -83q0 -49 -34.5 -83t-83.5 -34zM1459 -432q-46 0 -93 10.5t-75 21.5v178q37 -15 70.5 -22t61.5 -7q56 0 87 35t31 105v1111h197
v-1109q0 -155 -75 -239t-204 -84z" />
    <glyph glyph-name="uni01CC" unicode="&#x1cc;" horiz-adv-x="1667" 
d="M156 1000h197v-139q51 75 131 116t172 41q81 0 147.5 -26.5t112.5 -77.5t71.5 -126t25.5 -172v-616h-198v591q0 125 -59 189t-157 64q-113 0 -179.5 -68.5t-66.5 -202.5v-573h-197v1000zM1411 1193q-49 0 -83 34t-34 83q0 48 34 83t83 35t83.5 -35t34.5 -83
q0 -49 -34.5 -83t-83.5 -34zM1230 -432q-46 0 -93 10.5t-75 21.5v178q37 -15 70.5 -22t61.5 -7q56 0 87 35t31 105v1111h197v-1109q0 -155 -75 -239t-204 -84z" />
    <glyph glyph-name="Acaron" unicode="&#x1cd;" horiz-adv-x="1315" 
d="M734 1414l548 -1414h-223l-118 320h-571l-119 -320h-218l547 1414h154zM655 1125l-226 -628h452zM655 1535l-310 322h158l152 -157l155 157h157z" />
    <glyph glyph-name="acaron" unicode="&#x1ce;" horiz-adv-x="1071" 
d="M69 285q0 141 105.5 222t306.5 81h265q0 132 -61 194.5t-168 62.5q-82 0 -147.5 -39t-109.5 -111l-152 109q79 110 181 162t236 52q194 0 301.5 -109.5t107.5 -306.5v-602h-164l-13 168q-58 -91 -144.5 -138.5t-198.5 -47.5q-160 0 -252.5 81t-92.5 222zM454 150
q65 0 119 24t92 62t59.5 86t21.5 97v25h-257q-111 0 -164 -41.5t-53 -108.5q0 -65 46.5 -104.5t135.5 -39.5zM500 1125l-310 322h158l152 -157l155 157h157z" />
    <glyph glyph-name="Icaron" unicode="&#x1cf;" horiz-adv-x="603" 
d="M199 1414h206v-1414h-206v1414zM301 1530l-310 322h158l152 -157l155 157h157z" />
    <glyph glyph-name="icaron" unicode="&#x1d0;" horiz-adv-x="509" 
d="M156 1000h197v-1000h-197v1000zM253 1120l-310 322h158l152 -157l155 157h157z" />
    <glyph glyph-name="Ocaron" unicode="&#x1d1;" horiz-adv-x="1544" 
d="M772 -18q-170 0 -296 59.5t-207.5 158.5t-122 231t-40.5 276t40.5 276t122 231t207.5 158.5t296 59.5t296 -59.5t207.5 -158.5t122 -231t40.5 -276t-40.5 -276t-122 -231t-207.5 -158.5t-296 -59.5zM772 168q121 0 207 44t140.5 117.5t79.5 172t25 205.5t-25 205.5
t-79.5 172t-140.5 117.5t-207 44t-207 -44t-140.5 -117.5t-79.5 -172t-25 -205.5t25 -205.5t79.5 -172t140.5 -117.5t207 -44zM771 1535l-310 322h158l152 -157l155 157h157z" />
    <glyph glyph-name="ocaron" unicode="&#x1d2;" horiz-adv-x="1145" 
d="M1072 500q0 -108 -36 -203t-101.5 -164.5t-158 -110t-204.5 -40.5t-204.5 40.5t-158 110t-101.5 164.5t-36 203t36 203t101.5 164.5t158 110t204.5 40.5t204.5 -40.5t158 -110t101.5 -164.5t36 -203zM866 500q0 71 -18 134t-54.5 109.5t-92 73.5t-129.5 27t-129 -27
t-91.5 -73.5t-54.5 -109.5t-18 -134t18 -134t54 -109.5t91.5 -73.5t129.5 -27t129.5 27t92 73.5t54.5 109.5t18 134zM571 1125l-310 322h158l152 -157l155 157h157z" />
    <glyph glyph-name="Ucaron" unicode="&#x1d3;" horiz-adv-x="1389" 
d="M692 -18q-135 0 -234 39.5t-163 111.5t-95 176.5t-31 232.5v872h205v-850q0 -187 71.5 -288t250.5 -101q90 0 151 26t98.5 75.5t53.5 122.5t16 167v848h206v-861q0 -132 -31.5 -238t-96.5 -179.5t-165 -113.5t-236 -40zM693 1525l-310 322h158l152 -157l155 157h157z" />
    <glyph glyph-name="ucaron" unicode="&#x1d4;" 
d="M1003 0h-198v139q-51 -75 -131 -116t-172 -41q-81 0 -147 26.5t-112 77.5t-71.5 126t-25.5 172v616h197v-591q0 -125 59.5 -189t156.5 -64q113 0 179.5 68.5t66.5 203.5v572h198v-1000zM573 1115l-310 322h158l152 -157l155 157h157z" />
    <glyph glyph-name="uni01D5" unicode="&#x1d5;" horiz-adv-x="1389" 
d="M692 -18q-135 0 -234 39.5t-163 111.5t-95 176.5t-31 232.5v872h205v-850q0 -187 71.5 -288t250.5 -101q90 0 151 26t98.5 75.5t53.5 122.5t16 167v848h206v-861q0 -132 -31.5 -238t-96.5 -179.5t-165 -113.5t-236 -40zM510 1597q-47 0 -79 32.5t-32 78.5q0 45 32 77.5
t79 32.5q46 0 78 -32.5t32 -77.5q0 -46 -32 -78.5t-78 -32.5zM878 1597q-46 0 -78 32.5t-32 78.5q0 45 32 77.5t78 32.5t78.5 -32.5t32.5 -77.5q0 -46 -32.5 -78.5t-78.5 -32.5zM421 2000v147h547v-147h-547z" />
    <glyph glyph-name="uni01D6" unicode="&#x1d6;" 
d="M1003 0h-198v139q-51 -75 -131 -116t-172 -41q-81 0 -147 26.5t-112 77.5t-71.5 126t-25.5 172v616h197v-591q0 -125 59.5 -189t156.5 -64q113 0 179.5 68.5t66.5 203.5v572h198v-1000zM390 1187q-47 0 -79 32.5t-32 78.5q0 45 32 77.5t79 32.5q46 0 78 -32.5t32 -77.5
q0 -46 -32 -78.5t-78 -32.5zM758 1187q-46 0 -78 32.5t-32 78.5q0 45 32 77.5t78 32.5t78.5 -32.5t32.5 -77.5q0 -46 -32.5 -78.5t-78.5 -32.5zM294 1584v147h547v-147h-547z" />
    <glyph glyph-name="uni01D7" unicode="&#x1d7;" horiz-adv-x="1389" 
d="M692 -18q-135 0 -234 39.5t-163 111.5t-95 176.5t-31 232.5v872h205v-850q0 -187 71.5 -288t250.5 -101q90 0 151 26t98.5 75.5t53.5 122.5t16 167v848h206v-861q0 -132 -31.5 -238t-96.5 -179.5t-165 -113.5t-236 -40zM510 1597q-47 0 -79 32.5t-32 78.5q0 45 32 77.5
t79 32.5q46 0 78 -32.5t32 -77.5q0 -46 -32 -78.5t-78 -32.5zM878 1597q-46 0 -78 32.5t-32 78.5q0 45 32 77.5t78 32.5t78.5 -32.5t32.5 -77.5q0 -46 -32.5 -78.5t-78.5 -32.5zM602 1937l221 301h214l-288 -301h-147z" />
    <glyph glyph-name="uni01D8" unicode="&#x1d8;" 
d="M1003 0h-198v139q-51 -75 -131 -116t-172 -41q-81 0 -147 26.5t-112 77.5t-71.5 126t-25.5 172v616h197v-591q0 -125 59.5 -189t156.5 -64q113 0 179.5 68.5t66.5 203.5v572h198v-1000zM390 1187q-47 0 -79 32.5t-32 78.5q0 45 32 77.5t79 32.5q46 0 78 -32.5t32 -77.5
q0 -46 -32 -78.5t-78 -32.5zM758 1187q-46 0 -78 32.5t-32 78.5q0 45 32 77.5t78 32.5t78.5 -32.5t32.5 -77.5q0 -46 -32.5 -78.5t-78.5 -32.5zM494 1512l221 301h214l-288 -301h-147z" />
    <glyph glyph-name="uni01D9" unicode="&#x1d9;" horiz-adv-x="1389" 
d="M692 -18q-135 0 -234 39.5t-163 111.5t-95 176.5t-31 232.5v872h205v-850q0 -187 71.5 -288t250.5 -101q90 0 151 26t98.5 75.5t53.5 122.5t16 167v848h206v-861q0 -132 -31.5 -238t-96.5 -179.5t-165 -113.5t-236 -40zM510 1597q-47 0 -79 32.5t-32 78.5q0 45 32 77.5
t79 32.5q46 0 78 -32.5t32 -77.5q0 -46 -32 -78.5t-78 -32.5zM878 1597q-46 0 -78 32.5t-32 78.5q0 45 32 77.5t78 32.5t78.5 -32.5t32.5 -77.5q0 -46 -32.5 -78.5t-78.5 -32.5zM693 1916l-310 322h158l152 -157l155 157h157z" />
    <glyph glyph-name="uni01DA" unicode="&#x1da;" 
d="M1003 0h-198v139q-51 -75 -131 -116t-172 -41q-81 0 -147 26.5t-112 77.5t-71.5 126t-25.5 172v616h197v-591q0 -125 59.5 -189t156.5 -64q113 0 179.5 68.5t66.5 203.5v572h198v-1000zM390 1187q-47 0 -79 32.5t-32 78.5q0 45 32 77.5t79 32.5q46 0 78 -32.5t32 -77.5
q0 -46 -32 -78.5t-78 -32.5zM758 1187q-46 0 -78 32.5t-32 78.5q0 45 32 77.5t78 32.5t78.5 -32.5t32.5 -77.5q0 -46 -32.5 -78.5t-78.5 -32.5zM573 1504l-310 322h158l152 -157l155 157h157z" />
    <glyph glyph-name="uni01DB" unicode="&#x1db;" horiz-adv-x="1389" 
d="M692 -18q-135 0 -234 39.5t-163 111.5t-95 176.5t-31 232.5v872h205v-850q0 -187 71.5 -288t250.5 -101q90 0 151 26t98.5 75.5t53.5 122.5t16 167v848h206v-861q0 -132 -31.5 -238t-96.5 -179.5t-165 -113.5t-236 -40zM510 1597q-47 0 -79 32.5t-32 78.5q0 45 32 77.5
t79 32.5q46 0 78 -32.5t32 -77.5q0 -46 -32 -78.5t-78 -32.5zM878 1597q-46 0 -78 32.5t-32 78.5q0 45 32 77.5t78 32.5t78.5 -32.5t32.5 -77.5q0 -46 -32.5 -78.5t-78.5 -32.5zM766 1937h-147l-288 301h214z" />
    <glyph glyph-name="uni01DC" unicode="&#x1dc;" 
d="M1003 0h-198v139q-51 -75 -131 -116t-172 -41q-81 0 -147 26.5t-112 77.5t-71.5 126t-25.5 172v616h197v-591q0 -125 59.5 -189t156.5 -64q113 0 179.5 68.5t66.5 203.5v572h198v-1000zM390 1187q-47 0 -79 32.5t-32 78.5q0 45 32 77.5t79 32.5q46 0 78 -32.5t32 -77.5
q0 -46 -32 -78.5t-78 -32.5zM758 1187q-46 0 -78 32.5t-32 78.5q0 45 32 77.5t78 32.5t78.5 -32.5t32.5 -77.5q0 -46 -32.5 -78.5t-78.5 -32.5zM647 1512h-147l-288 301h214z" />
    <glyph glyph-name="uni01EB" unicode="&#x1eb;" horiz-adv-x="1145" 
d="M883 -312q-37 -54 -94 -87t-137 -33q-101 0 -161.5 55t-60.5 148q0 63 30.5 115.5t83.5 96.5q-106 5 -193 47t-149 111t-96 161.5t-34 197.5q0 108 36 203t101.5 164.5t158 110t204.5 40.5t204.5 -40.5t158 -110t101.5 -164.5t36 -203q0 -111 -38 -208.5t-104 -163.5
q-38 -38 -79.5 -65.5t-81.5 -51t-77.5 -47t-67.5 -54.5q-24 -24 -40 -52.5t-16 -64.5q0 -52 28 -76.5t70 -24.5q37 0 64.5 16.5t51.5 50.5zM866 500q0 71 -18 134t-54.5 109.5t-92 73.5t-129.5 27t-129 -27t-91.5 -73.5t-54.5 -109.5t-18 -134t18 -134t54 -109.5t91.5 -73.5
t129.5 -27t129.5 27t92 73.5t54.5 109.5t18 134z" />
    <glyph glyph-name="uni01F1" unicode="&#x1f1;" horiz-adv-x="2699" 
d="M199 1414h396q180 0 318.5 -47.5t231 -137t140.5 -221.5t48 -300t-49 -300.5t-142.5 -222.5t-232.5 -137.5t-317 -47.5h-393v1414zM593 189q120 0 217.5 29t165.5 91t105 161t37 237q0 268 -125 393t-400 125h-188v-1036h188zM1493 152l835 1073h-793v189h1077v-152
l-835 -1073h843v-189h-1127v152z" />
    <glyph glyph-name="uni01F2" unicode="&#x1f2;" horiz-adv-x="2424" 
d="M199 1414h396q180 0 318.5 -47.5t231 -137t140.5 -221.5t48 -300t-49 -300.5t-142.5 -222.5t-232.5 -137.5t-317 -47.5h-393v1414zM593 189q120 0 217.5 29t165.5 91t105 161t37 237q0 268 -125 393t-400 125h-188v-1036h188zM2329 866l-572 -699h600v-167h-856v134
l573 700h-553v166h808v-134z" />
    <glyph glyph-name="uni01F3" unicode="&#x1f3;" horiz-adv-x="2171" 
d="M1029 1414v-1414h-198v146q-49 -81 -132 -122.5t-181 -41.5q-102 0 -183 39.5t-136.5 108.5t-85 164t-29.5 206q0 110 29.5 205.5t84.5 164.5t135.5 108.5t181.5 39.5q97 0 182 -42t134 -123v561h198zM566 156q69 0 122 26.5t88.5 72t53.5 109t18 136.5t-18 136
t-53.5 109t-88.5 72.5t-122 26.5t-121 -26.5t-86 -73t-51 -109.5t-17 -135t17 -135.5t51 -109.5t86 -72.5t121 -26.5zM2076 866l-572 -699h600v-167h-856v134l573 700h-553v166h808v-134z" />
    <glyph glyph-name="Aringacute" unicode="&#x1fa;" horiz-adv-x="1315" 
d="M1059 0l-118 320h-571l-119 -320h-218l517 1335q-49 27 -79.5 76t-30.5 109q0 44 17 83.5t45.5 68.5t68 46t83.5 17t83.5 -16.5t69 -45.5t47 -68.5t17.5 -84.5q0 -60 -29.5 -108t-77.5 -74l518 -1338h-223zM654 1412q47 0 78 31.5t31 78.5q0 44 -29.5 74.5t-79.5 30.5
q-46 0 -76 -30.5t-30 -74.5q0 -48 30.5 -79t75.5 -31zM655 1125l-226 -628h452zM567 1800l221 301h214l-288 -301h-147z" />
    <glyph glyph-name="aringacute" unicode="&#x1fb;" horiz-adv-x="1071" 
d="M69 285q0 141 105.5 222t306.5 81h265q0 132 -61 194.5t-168 62.5q-82 0 -147.5 -39t-109.5 -111l-152 109q79 110 181 162t236 52q194 0 301.5 -109.5t107.5 -306.5v-602h-164l-13 168q-58 -91 -144.5 -138.5t-198.5 -47.5q-160 0 -252.5 81t-92.5 222zM454 150
q65 0 119 24t92 62t59.5 86t21.5 97v25h-257q-111 0 -164 -41.5t-53 -108.5q0 -65 46.5 -104.5t135.5 -39.5zM541 1595h-146l222 288h211zM501 1088q-45 0 -84 17.5t-68 46.5t-45.5 68.5t-16.5 82.5q0 44 17 83.5t45.5 69t68 46.5t83.5 17t83.5 -17t69 -46t47 -68.5
t17.5 -84.5t-17 -84.5t-46 -68t-69 -45.5t-85 -17zM610 1306q0 44 -29.5 74.5t-79.5 30.5q-46 0 -76 -30.5t-30 -74.5q0 -48 31 -79t75 -31q47 0 78 31.5t31 78.5z" />
    <glyph glyph-name="AEacute" unicode="&#x1fc;" horiz-adv-x="1812" 
d="M-37 0l756 1414h969v-187h-653v-420h593v-186h-593v-430h653v-191h-860v321h-473l-167 -321h-225zM826 1225l-382 -728h384v728h-2zM1015 1538l221 301h214l-288 -301h-147z" />
    <glyph glyph-name="aeacute" unicode="&#x1fd;" horiz-adv-x="1705" 
d="M414 -18q-160 0 -252.5 81t-92.5 222t105.5 222t306.5 81h264q0 132 -60.5 194.5t-167.5 62.5q-82 0 -147.5 -39t-109.5 -111l-152 109q79 110 181 162t236 52q114 0 195 -43t127 -127q57 80 141 125t193 45q119 0 205 -43t139.5 -111.5t79 -155.5t25.5 -175
q0 -25 -2 -47t-6 -42h-707q13 -146 90.5 -215.5t195.5 -69.5q78 0 140.5 27t120.5 90l136 -120q-82 -89 -179.5 -131.5t-221.5 -42.5q-125 0 -224 55t-157 151q-57 -99 -160 -152.5t-242 -53.5zM1178 851q-104 0 -174 -67t-87 -196h517q-6 121 -74 192t-182 71zM454 150
q60 0 111.5 23t89.5 60t61.5 85t29.5 97q0 7 -0.5 14.5t-0.5 14.5h-256q-111 0 -164 -41.5t-53 -108.5q0 -65 46.5 -104.5t135.5 -39.5zM757 1128l221 301h214l-288 -301h-147z" />
    <glyph glyph-name="Oslashacute" unicode="&#x1fe;" horiz-adv-x="1533" 
d="M258 0l77 126q-60 50 -104.5 115t-73.5 139.5t-43.5 157.5t-14.5 169q0 144 40.5 276t122.5 231t208 158.5t296 59.5q94 0 175.5 -19t148.5 -53l33 54h150l-77 -125q60 -50 105 -115t74.5 -139.5t44 -157.5t14.5 -170q0 -144 -40.5 -276t-122.5 -231t-208.5 -158.5
t-296.5 -59.5q-95 0 -176.5 19.5t-148.5 53.5l-34 -55h-149zM316 707q0 -127 29.5 -233.5t93.5 -178.5l553 904q-46 24 -102.5 37t-123.5 13q-121 0 -206.5 -44t-139.5 -118t-79 -172.5t-25 -207.5zM766 165q121 0 207 44t140 118t79 172.5t25 207.5q0 128 -30 234.5
t-94 178.5l-554 -904q46 -25 102.5 -38t124.5 -13zM674 1543l221 301h214l-288 -301h-147z" />
    <glyph glyph-name="oslashacute" unicode="&#x1ff;" horiz-adv-x="1145" 
d="M215 0l50 82q-90 70 -141.5 179.5t-51.5 238.5q0 108 36 203t101.5 164.5t158 110t204.5 40.5q65 0 123.5 -14t109.5 -40l22 36h106l-52 -84q90 -70 140.5 -179t50.5 -237q0 -108 -36 -203t-101.5 -164.5t-158 -110t-204.5 -40.5q-64 0 -122 13.5t-108 38.5l-21 -34h-106
zM279 500q0 -79 20.5 -146.5t62.5 -113.5l352 575q-30 15 -65.5 23.5t-76.5 8.5q-74 0 -129 -27.5t-91.5 -74t-54.5 -110t-18 -135.5zM866 500q0 78 -20.5 144.5t-60.5 113.5l-351 -574q28 -15 63 -23t75 -8q74 0 129.5 27.5t92 74t54.5 110t18 135.5zM480 1133l221 301h214
l-288 -301h-147z" />
    <glyph glyph-name="Scommaaccent" unicode="&#x218;" horiz-adv-x="1142" 
d="M583 -18q-104 0 -191.5 28t-154 80t-111 126.5t-63.5 167.5l204 54q24 -140 111.5 -208.5t214.5 -68.5q129 0 196.5 55t67.5 141q0 127 -110 185t-241 112.5t-241 140t-110 267.5q0 80 31.5 148t87.5 117t133.5 77t169.5 28q151 0 261.5 -73t170.5 -213l-187 -58
q-40 82 -101 123.5t-148 41.5q-95 0 -154.5 -50.5t-59.5 -128.5q0 -120 110 -174.5t240.5 -108t240.5 -141.5t110 -274q0 -86 -34 -159t-96 -125t-150.5 -81t-196.5 -29zM701 -255q0 -57 -20.5 -102.5t-53.5 -79.5t-76.5 -59t-89.5 -43v127q50 19 75 43.5t25 40.5h-3
q-51 0 -85 32.5t-34 78.5q0 47 35.5 80t86.5 33q58 0 99 -39.5t41 -111.5z" />
    <glyph glyph-name="scommaaccent" unicode="&#x219;" horiz-adv-x="931" 
d="M474 -18q-160 0 -263.5 63.5t-153.5 182.5l155 90q41 -87 107 -129t151 -42q92 0 139 35.5t47 90.5q0 86 -86.5 115t-190 57.5t-190 87t-86.5 203.5q0 62 24.5 114t70 89t111 58t146.5 21q134 0 229 -53.5t149 -152.5l-157 -86q-28 55 -82 94t-139 39q-78 0 -120 -31
t-42 -79q0 -78 87.5 -105t191.5 -57t191.5 -89.5t87.5 -201.5q0 -78 -30 -137t-81 -98t-120 -59t-146 -20zM586 -255q0 -57 -20.5 -102.5t-53.5 -79.5t-76.5 -59t-89.5 -43v127q50 19 75 43.5t25 40.5h-3q-51 0 -85 32.5t-34 78.5q0 47 35.5 80t86.5 33q58 0 99 -39.5
t41 -111.5z" />
    <glyph glyph-name="Tcommaaccent" unicode="&#x21a;" horiz-adv-x="1199" 
d="M496 1227h-464v187h1134v-187h-464v-1227h-206v1227zM731 -255q0 -57 -20.5 -102.5t-53.5 -79.5t-76.5 -59t-89.5 -43v127q50 19 75 43.5t25 40.5h-3q-51 0 -85 32.5t-34 78.5q0 47 35.5 80t86.5 33q58 0 99 -39.5t41 -111.5z" />
    <glyph glyph-name="tcommaaccent" unicode="&#x21b;" horiz-adv-x="728" 
d="M496 -18q-143 0 -221.5 79t-78.5 221v555h-163v163h165v379h194v-379h263v-163h-263v-526q0 -87 36.5 -121t97.5 -34q35 0 70 10t60 21v-179q-25 -10 -69.5 -18t-90.5 -8zM566 -255q0 -57 -20.5 -102.5t-53.5 -79.5t-76.5 -59t-89.5 -43v127q50 19 75 43.5t25 40.5h-3
q-51 0 -85 32.5t-34 78.5q0 47 35.5 80t86.5 33q58 0 99 -39.5t41 -111.5z" />
    <glyph glyph-name="dotlessj" unicode="&#x237;" horiz-adv-x="519" 
d="M84 -435q-46 0 -93 11t-75 21v178q37 -14 70.5 -21.5t61.5 -7.5q56 0 87 35t31 105v1114h197v-1112q0 -154 -75 -238.5t-204 -84.5z" />
    <glyph glyph-name="uni0259" unicode="&#x259;" horiz-adv-x="1078" 
d="M524 1018q103 0 190.5 -34.5t150 -100t98 -161.5t35.5 -217q0 -103 -30.5 -198t-90 -167t-149 -115t-207.5 -43t-203 43t-139 111.5t-79 155.5t-25 175q0 24 2 47t6 45h707q-14 142 -88 211t-190 69q-78 0 -140.5 -27.5t-119.5 -87.5l-136 120q86 90 185 132t223 42z
M527 149q101 0 172.5 66t88.5 199h-517q5 -122 73.5 -193.5t182.5 -71.5z" />
    <glyph glyph-name="circumflex" unicode="&#x2c6;" horiz-adv-x="801" 
d="M89 1139l310 339l312 -339h-157l-155 165l-152 -165h-158z" />
    <glyph glyph-name="caron" unicode="&#x2c7;" horiz-adv-x="801" 
d="M399 1120l-310 322h158l152 -157l155 157h157z" />
    <glyph glyph-name="breve" unicode="&#x2d8;" horiz-adv-x="802" 
d="M402 1142q-160 0 -236 75.5t-76 203.5h140q0 -78 48.5 -121.5t123.5 -43.5q77 0 123.5 45t46.5 120h140q0 -134 -79 -206.5t-231 -72.5z" />
    <glyph glyph-name="dotaccent" unicode="&#x2d9;" horiz-adv-x="402" 
d="M201 1182q-49 0 -83.5 34.5t-34.5 83.5q0 48 34.5 83t83.5 35t83.5 -35t34.5 -83q0 -49 -34.5 -83.5t-83.5 -34.5z" />
    <glyph glyph-name="ring" unicode="&#x2da;" horiz-adv-x="609" 
d="M305 1083q-45 0 -84.5 17.5t-68.5 46.5t-45.5 68.5t-16.5 82.5q0 44 17 83.5t46 69t68.5 46.5t83.5 17t84 -17t69.5 -45.5t46.5 -68t17 -84.5t-17 -84.5t-46 -68.5t-69 -46t-85 -17zM305 1404q-46 0 -75 -30t-29 -73q0 -47 30.5 -77.5t73.5 -30.5q47 0 77 31t30 77
q0 44 -29 73.5t-78 29.5z" />
    <glyph glyph-name="ogonek" unicode="&#x2db;" horiz-adv-x="627" 
d="M303 -453q-97 0 -155 53t-58 146q0 59 27 105t61.5 78.5t68.5 51t47 21.5l155 -2q-21 -6 -59.5 -24.5t-76 -47.5t-65 -69t-27.5 -89q0 -52 28.5 -76t69.5 -24q37 0 65 17t52 50l101 -69q-37 -55 -95 -88t-139 -33z" />
    <glyph glyph-name="tilde" unicode="&#x2dc;" horiz-adv-x="842" 
d="M212 1167h-125q0 129 50.5 198.5t142.5 69.5q56 0 95 -24t69.5 -52.5t57 -52.5t55.5 -24q31 0 50 37t19 104h126q0 -129 -50.5 -199.5t-140.5 -70.5q-56 0 -96 24t-70 52.5t-56.5 52.5t-55.5 24q-33 0 -52 -36.5t-19 -102.5z" />
    <glyph glyph-name="hungarumlaut" unicode="&#x2dd;" horiz-adv-x="944" 
d="M524 1131l219 320h213l-286 -320h-146zM191 1131l220 320h185l-259 -320h-146z" />
    <glyph glyph-name="uni03BC" unicode="&#x3bc;" horiz-adv-x="1169" 
d="M156 -265v1265h197v-584q0 -126 59.5 -192t158.5 -66q113 0 179 68t66 202v572h197v-1000h-197v139q-52 -75 -131.5 -116t-171.5 -41q-54 0 -99.5 16.5t-79.5 50.5l-15 -314h-163z" />
    <glyph glyph-name="pi" unicode="&#x3c0;" horiz-adv-x="1033" 
d="M861 -18q-110 0 -171 79t-61 222v551h-278v-834h-171v834h-91v165h804v-165h-93v-528q0 -53 5.5 -87.5t15 -53.5t22.5 -26t28 -7q10 0 23.5 3t29.5 12l53 -134q-27 -16 -56.5 -23.5t-59.5 -7.5z" />
    <glyph glyph-name="Ndotaccent" unicode="&#x1e44;" horiz-adv-x="1442" 
d="M199 1414h207l640 -1068v1068h197v-1414h-206l-641 1069v-1069h-197v1414zM721 1587q-49 0 -83.5 34.5t-34.5 83.5q0 48 34.5 83t83.5 35t83.5 -35t34.5 -83q0 -49 -34.5 -83.5t-83.5 -34.5z" />
    <glyph glyph-name="ndotaccent" unicode="&#x1e45;" 
d="M156 1000h197v-139q51 75 131 116t172 41q81 0 147.5 -26.5t112.5 -77.5t71.5 -126t25.5 -172v-616h-198v591q0 125 -59 189t-157 64q-113 0 -179.5 -68.5t-66.5 -202.5v-573h-197v1000zM618 1187q-49 0 -83.5 34.5t-34.5 83.5q0 48 34.5 83t83.5 35t83.5 -35t34.5 -83
q0 -49 -34.5 -83.5t-83.5 -34.5z" />
    <glyph glyph-name="Wgrave" unicode="&#x1e80;" horiz-adv-x="1989" 
d="M45 1414h214l319 -1114l336 1091h162l335 -1091l319 1114h214l-418 -1414h-208l-324 1046l-323 -1046h-208zM1088 1538h-147l-288 301h214z" />
    <glyph glyph-name="wgrave" unicode="&#x1e81;" horiz-adv-x="1475" 
d="M28 1000h211l192 -699l221 699h172l221 -699l191 699h211l-304 -1000h-181l-228 722l-225 -722h-181zM831 1128h-147l-288 301h214z" />
    <glyph glyph-name="Wacute" unicode="&#x1e82;" horiz-adv-x="1989" 
d="M45 1414h214l319 -1114l336 1091h162l335 -1091l319 1114h214l-418 -1414h-208l-324 1046l-323 -1046h-208zM902 1538l221 301h214l-288 -301h-147z" />
    <glyph glyph-name="wacute" unicode="&#x1e83;" horiz-adv-x="1475" 
d="M28 1000h211l192 -699l221 699h172l221 -699l191 699h211l-304 -1000h-181l-228 722l-225 -722h-181zM645 1128l221 301h214l-288 -301h-147z" />
    <glyph glyph-name="Wdieresis" unicode="&#x1e84;" horiz-adv-x="1989" 
d="M45 1414h214l319 -1114l336 1091h162l335 -1091l319 1114h214l-418 -1414h-208l-324 1046l-323 -1046h-208zM810 1602q-47 0 -79 32.5t-32 78.5q0 45 32 77.5t79 32.5q46 0 78 -32.5t32 -77.5q0 -46 -32 -78.5t-78 -32.5zM1178 1602q-46 0 -78 32.5t-32 78.5
q0 45 32 77.5t78 32.5t78.5 -32.5t32.5 -77.5q0 -46 -32.5 -78.5t-78.5 -32.5z" />
    <glyph glyph-name="wdieresis" unicode="&#x1e85;" horiz-adv-x="1475" 
d="M28 1000h211l192 -699l221 699h172l221 -699l191 699h211l-304 -1000h-181l-228 722l-225 -722h-181zM553 1192q-47 0 -79 32.5t-32 78.5q0 45 32 77.5t79 32.5q46 0 78 -32.5t32 -77.5q0 -46 -32 -78.5t-78 -32.5zM921 1192q-46 0 -78 32.5t-32 78.5q0 45 32 77.5
t78 32.5t78.5 -32.5t32.5 -77.5q0 -46 -32.5 -78.5t-78.5 -32.5z" />
    <glyph glyph-name="Zcircumflex" unicode="&#x1e90;" horiz-adv-x="1298" 
d="M80 152l835 1073h-793v189h1077v-152l-835 -1073h843v-189h-1127v152zM332 1549l310 339l312 -339h-157l-155 165l-152 -165h-158z" />
    <glyph glyph-name="zcircumflex" unicode="&#x1e91;" horiz-adv-x="992" 
d="M896 866l-572 -699h600v-167h-856v134l573 700h-553v166h808v-134zM184 1139l310 339l312 -339h-157l-155 165l-152 -165h-158z" />
    <glyph glyph-name="uni1EA4" unicode="&#x1ea4;" horiz-adv-x="1315" 
d="M734 1414l548 -1414h-223l-118 320h-571l-119 -320h-218l547 1414h154zM655 1125l-226 -628h452zM347 1554l310 339l312 -339h-157l-155 165l-152 -165h-158zM573 1936l221 301h214l-288 -301h-147z" />
    <glyph glyph-name="uni1EA5" unicode="&#x1ea5;" horiz-adv-x="1071" 
d="M69 285q0 141 105.5 222t306.5 81h265q0 132 -61 194.5t-168 62.5q-82 0 -147.5 -39t-109.5 -111l-152 109q79 110 181 162t236 52q194 0 301.5 -109.5t107.5 -306.5v-602h-164l-13 168q-58 -91 -144.5 -138.5t-198.5 -47.5q-160 0 -252.5 81t-92.5 222zM454 150
q65 0 119 24t92 62t59.5 86t21.5 97v25h-257q-111 0 -164 -41.5t-53 -108.5q0 -65 46.5 -104.5t135.5 -39.5zM189 1144l310 339l312 -339h-157l-155 165l-152 -165h-158zM419 1518l221 301h214l-288 -301h-147z" />
    <glyph glyph-name="uni1EA6" unicode="&#x1ea6;" horiz-adv-x="1315" 
d="M734 1414l548 -1414h-223l-118 320h-571l-119 -320h-218l547 1414h154zM655 1125l-226 -628h452zM733 1937h-147l-288 301h214zM347 1554l310 339l312 -339h-157l-155 165l-152 -165h-158z" />
    <glyph glyph-name="uni1EA7" unicode="&#x1ea7;" horiz-adv-x="1071" 
d="M69 285q0 141 105.5 222t306.5 81h265q0 132 -61 194.5t-168 62.5q-82 0 -147.5 -39t-109.5 -111l-152 109q79 110 181 162t236 52q194 0 301.5 -109.5t107.5 -306.5v-602h-164l-13 168q-58 -91 -144.5 -138.5t-198.5 -47.5q-160 0 -252.5 81t-92.5 222zM454 150
q65 0 119 24t92 62t59.5 86t21.5 97v25h-257q-111 0 -164 -41.5t-53 -108.5q0 -65 46.5 -104.5t135.5 -39.5zM189 1144l310 339l312 -339h-157l-155 165l-152 -165h-158zM576 1518h-147l-288 301h214z" />
    <glyph glyph-name="uni1EAA" unicode="&#x1eaa;" horiz-adv-x="1315" 
d="M449 1958h-125q0 129 50.5 198.5t142.5 69.5q56 0 95 -24t69.5 -52.5t57 -52.5t55.5 -24q31 0 50 37t19 104h126q0 -129 -50.5 -199.5t-140.5 -70.5q-56 0 -96 24t-70 52.5t-56.5 52.5t-55.5 24q-33 0 -52 -36.5t-19 -102.5zM734 1415l548 -1414h-223l-118 320h-571
l-119 -320h-218l547 1414h154zM655 1126l-226 -628h452zM347 1554l310 339l312 -339h-157l-155 165l-152 -165h-158z" />
    <glyph glyph-name="uni1EAB" unicode="&#x1eab;" horiz-adv-x="1071" 
d="M69 285q0 141 105.5 222t306.5 81h265q0 132 -61 194.5t-168 62.5q-82 0 -147.5 -39t-109.5 -111l-152 109q79 110 181 162t236 52q194 0 301.5 -109.5t107.5 -306.5v-602h-164l-13 168q-58 -91 -144.5 -138.5t-198.5 -47.5q-160 0 -252.5 81t-92.5 222zM454 150
q65 0 119 24t92 62t59.5 86t21.5 97v25h-257q-111 0 -164 -41.5t-53 -108.5q0 -65 46.5 -104.5t135.5 -39.5zM189 1144l310 339l312 -339h-157l-155 165l-152 -165h-158zM304 1545h-125q0 129 50.5 198.5t142.5 69.5q56 0 95 -24t69.5 -52.5t57 -52.5t55.5 -24q31 0 50 37
t19 104h126q0 -129 -50.5 -199.5t-140.5 -70.5q-56 0 -96 24t-70 52.5t-56.5 52.5t-55.5 24q-33 0 -52 -36.5t-19 -102.5z" />
    <glyph glyph-name="uni1EAE" unicode="&#x1eae;" horiz-adv-x="1315" 
d="M734 1414l548 -1414h-223l-118 320h-571l-119 -320h-218l547 1414h154zM655 1125l-226 -628h452zM659 1557q-160 0 -236 75.5t-76 203.5h140q0 -78 48.5 -121.5t123.5 -43.5q77 0 123.5 45t46.5 120h140q0 -134 -79 -206.5t-231 -72.5zM566 1936l221 301h214l-288 -301
h-147z" />
    <glyph glyph-name="uni1EAF" unicode="&#x1eaf;" horiz-adv-x="1071" 
d="M69 285q0 141 105.5 222t306.5 81h265q0 132 -61 194.5t-168 62.5q-82 0 -147.5 -39t-109.5 -111l-152 109q79 110 181 162t236 52q194 0 301.5 -109.5t107.5 -306.5v-602h-164l-13 168q-58 -91 -144.5 -138.5t-198.5 -47.5q-160 0 -252.5 81t-92.5 222zM454 150
q65 0 119 24t92 62t59.5 86t21.5 97v25h-257q-111 0 -164 -41.5t-53 -108.5q0 -65 46.5 -104.5t135.5 -39.5zM501 1147q-160 0 -236 75.5t-76 203.5h140q0 -78 48.5 -121.5t123.5 -43.5q77 0 123.5 45t46.5 120h140q0 -134 -79 -206.5t-231 -72.5zM422 1526l221 301h214
l-288 -301h-147z" />
    <glyph glyph-name="uni1EB0" unicode="&#x1eb0;" horiz-adv-x="1315" 
d="M734 1414l548 -1414h-223l-118 320h-571l-119 -320h-218l547 1414h154zM655 1125l-226 -628h452zM659 1557q-160 0 -236 75.5t-76 203.5h140q0 -78 48.5 -121.5t123.5 -43.5q77 0 123.5 45t46.5 120h140q0 -134 -79 -206.5t-231 -72.5zM751 1937h-147l-288 301h214z" />
    <glyph glyph-name="uni1EB1" unicode="&#x1eb1;" horiz-adv-x="1071" 
d="M69 285q0 141 105.5 222t306.5 81h265q0 132 -61 194.5t-168 62.5q-82 0 -147.5 -39t-109.5 -111l-152 109q79 110 181 162t236 52q194 0 301.5 -109.5t107.5 -306.5v-602h-164l-13 168q-58 -91 -144.5 -138.5t-198.5 -47.5q-160 0 -252.5 81t-92.5 222zM454 150
q65 0 119 24t92 62t59.5 86t21.5 97v25h-257q-111 0 -164 -41.5t-53 -108.5q0 -65 46.5 -104.5t135.5 -39.5zM501 1147q-160 0 -236 75.5t-76 203.5h140q0 -78 48.5 -121.5t123.5 -43.5q77 0 123.5 45t46.5 120h140q0 -134 -79 -206.5t-231 -72.5zM608 1526h-147l-288 301
h214z" />
    <glyph glyph-name="uni1EB4" unicode="&#x1eb4;" horiz-adv-x="1315" 
d="M734 1414l548 -1414h-223l-118 320h-571l-119 -320h-218l547 1414h154zM655 1125l-226 -628h452zM659 1557q-160 0 -236 75.5t-76 203.5h140q0 -78 48.5 -121.5t123.5 -43.5q77 0 123.5 45t46.5 120h140q0 -134 -79 -206.5t-231 -72.5zM464 1970h-125q0 129 50.5 198.5
t142.5 69.5q56 0 95 -24t69.5 -52.5t57 -52.5t55.5 -24q31 0 50 37t19 104h126q0 -129 -50.5 -199.5t-140.5 -70.5q-56 0 -96 24t-70 52.5t-56.5 52.5t-55.5 24q-33 0 -52 -36.5t-19 -102.5z" />
    <glyph glyph-name="uni1EB5" unicode="&#x1eb5;" horiz-adv-x="1071" 
d="M69 285q0 141 105.5 222t306.5 81h265q0 132 -61 194.5t-168 62.5q-82 0 -147.5 -39t-109.5 -111l-152 109q79 110 181 162t236 52q194 0 301.5 -109.5t107.5 -306.5v-602h-164l-13 168q-58 -91 -144.5 -138.5t-198.5 -47.5q-160 0 -252.5 81t-92.5 222zM454 150
q65 0 119 24t92 62t59.5 86t21.5 97v25h-257q-111 0 -164 -41.5t-53 -108.5q0 -65 46.5 -104.5t135.5 -39.5zM501 1147q-160 0 -236 75.5t-76 203.5h140q0 -78 48.5 -121.5t123.5 -43.5q77 0 123.5 45t46.5 120h140q0 -134 -79 -206.5t-231 -72.5zM308 1548h-125
q0 129 50.5 198.5t142.5 69.5q56 0 95 -24t69.5 -52.5t57 -52.5t55.5 -24q31 0 50 37t19 104h126q0 -129 -50.5 -199.5t-140.5 -70.5q-56 0 -96 24t-70 52.5t-56.5 52.5t-55.5 24q-33 0 -52 -36.5t-19 -102.5z" />
    <glyph glyph-name="Etilde" unicode="&#x1ebc;" horiz-adv-x="1259" 
d="M199 1414h933v-187h-727v-420h667v-186h-667v-430h727v-191h-933v1414zM456 1577h-125q0 129 50.5 198.5t142.5 69.5q56 0 95 -24t69.5 -52.5t57 -52.5t55.5 -24q31 0 50 37t19 104h126q0 -129 -50.5 -199.5t-140.5 -70.5q-56 0 -96 24t-70 52.5t-56.5 52.5t-55.5 24
q-33 0 -52 -36.5t-19 -102.5z" />
    <glyph glyph-name="etilde" unicode="&#x1ebd;" horiz-adv-x="1078" 
d="M570 -18q-114 0 -205 37t-154 104t-97 162t-34 211t34.5 212.5t96.5 165t149.5 106.5t193.5 38q119 0 204.5 -43t139 -111.5t79 -155.5t25.5 -175q0 -26 -2 -48.5t-6 -43.5h-707q15 -145 92 -213.5t195 -68.5q78 0 140.5 27t119.5 90l137 -120q-83 -89 -180.5 -131.5
t-220.5 -42.5zM551 851q-101 0 -173 -66t-89 -199h518q-5 122 -73.5 193.5t-182.5 71.5zM332 1172h-125q0 129 50.5 198.5t142.5 69.5q56 0 95 -24t69.5 -52.5t57 -52.5t55.5 -24q31 0 50 37t19 104h126q0 -129 -50.5 -199.5t-140.5 -70.5q-56 0 -96 24t-70 52.5t-56.5 52.5
t-55.5 24q-33 0 -52 -36.5t-19 -102.5z" />
    <glyph glyph-name="uni1EBE" unicode="&#x1ebe;" horiz-adv-x="1259" 
d="M199 1414h933v-187h-727v-420h667v-186h-667v-430h727v-191h-933v1414zM355 1549l310 339l312 -339h-157l-155 165l-152 -165h-158zM576 1936l221 301h214l-288 -301h-147z" />
    <glyph glyph-name="uni1EBF" unicode="&#x1ebf;" horiz-adv-x="1078" 
d="M570 -18q-114 0 -205 37t-154 104t-97 162t-34 211t34.5 212.5t96.5 165t149.5 106.5t193.5 38q119 0 204.5 -43t139 -111.5t79 -155.5t25.5 -175q0 -26 -2 -48.5t-6 -43.5h-707q15 -145 92 -213.5t195 -68.5q78 0 140.5 27t119.5 90l137 -120q-83 -89 -180.5 -131.5
t-220.5 -42.5zM551 851q-101 0 -173 -66t-89 -199h518q-5 122 -73.5 193.5t-182.5 71.5zM224 1144l310 339l312 -339h-157l-155 165l-152 -165h-158zM434 1525l221 301h214l-288 -301h-147z" />
    <glyph glyph-name="uni1EC0" unicode="&#x1ec0;" horiz-adv-x="1259" 
d="M199 1414h933v-187h-727v-420h667v-186h-667v-430h727v-191h-933v1414zM355 1549l310 339l312 -339h-157l-155 165l-152 -165h-158zM743 1936h-147l-288 301h214z" />
    <glyph glyph-name="uni1EC1" unicode="&#x1ec1;" horiz-adv-x="1078" 
d="M570 -18q-114 0 -205 37t-154 104t-97 162t-34 211t34.5 212.5t96.5 165t149.5 106.5t193.5 38q119 0 204.5 -43t139 -111.5t79 -155.5t25.5 -175q0 -26 -2 -48.5t-6 -43.5h-707q15 -145 92 -213.5t195 -68.5q78 0 140.5 27t119.5 90l137 -120q-83 -89 -180.5 -131.5
t-220.5 -42.5zM551 851q-101 0 -173 -66t-89 -199h518q-5 122 -73.5 193.5t-182.5 71.5zM224 1144l310 339l312 -339h-157l-155 165l-152 -165h-158zM617 1525h-147l-288 301h214z" />
    <glyph glyph-name="uni1EC4" unicode="&#x1ec4;" horiz-adv-x="1259" 
d="M199 1414h933v-187h-727v-420h667v-186h-667v-430h727v-191h-933v1414zM355 1549l310 339l312 -339h-157l-155 165l-152 -165h-158zM457 1958h-125q0 129 50.5 198.5t142.5 69.5q56 0 95 -24t69.5 -52.5t57 -52.5t55.5 -24q31 0 50 37t19 104h126q0 -129 -50.5 -199.5
t-140.5 -70.5q-56 0 -96 24t-70 52.5t-56.5 52.5t-55.5 24q-33 0 -52 -36.5t-19 -102.5z" />
    <glyph glyph-name="uni1EC5" unicode="&#x1ec5;" horiz-adv-x="1078" 
d="M570 -18q-114 0 -205 37t-154 104t-97 162t-34 211t34.5 212.5t96.5 165t149.5 106.5t193.5 38q119 0 204.5 -43t139 -111.5t79 -155.5t25.5 -175q0 -26 -2 -48.5t-6 -43.5h-707q15 -145 92 -213.5t195 -68.5q78 0 140.5 27t119.5 90l137 -120q-83 -89 -180.5 -131.5
t-220.5 -42.5zM551 851q-101 0 -173 -66t-89 -199h518q-5 122 -73.5 193.5t-182.5 71.5zM224 1144l310 339l312 -339h-157l-155 165l-152 -165h-158zM332 1540h-125q0 129 50.5 198.5t142.5 69.5q56 0 95 -24t69.5 -52.5t57 -52.5t55.5 -24q31 0 50 37t19 104h126
q0 -129 -50.5 -199.5t-140.5 -70.5q-56 0 -96 24t-70 52.5t-56.5 52.5t-55.5 24q-33 0 -52 -36.5t-19 -102.5z" />
    <glyph glyph-name="uni1ED0" unicode="&#x1ed0;" horiz-adv-x="1530" 
d="M772 -18q-170 0 -296 59.5t-207.5 158.5t-122 231t-40.5 276t40.5 276t122 231t207.5 158.5t296 59.5t296 -59.5t207.5 -158.5t122 -231t40.5 -276t-40.5 -276t-122 -231t-207.5 -158.5t-296 -59.5zM772 168q121 0 207 44t140.5 117.5t79.5 172t25 205.5t-25 205.5
t-79.5 172t-140.5 117.5t-207 44t-207 -44t-140.5 -117.5t-79.5 -172t-25 -205.5t25 -205.5t79.5 -172t140.5 -117.5t207 -44zM459 1554l310 339l312 -339h-157l-155 165l-152 -165h-158zM683 1936l221 301h214l-288 -301h-147z" />
    <glyph glyph-name="uni1ED1" unicode="&#x1ed1;" horiz-adv-x="1145" 
d="M1072 500q0 -108 -36 -203t-101.5 -164.5t-158 -110t-204.5 -40.5t-204.5 40.5t-158 110t-101.5 164.5t-36 203t36 203t101.5 164.5t158 110t204.5 40.5t204.5 -40.5t158 -110t101.5 -164.5t36 -203zM866 500q0 71 -18 134t-54.5 109.5t-92 73.5t-129.5 27t-129 -27
t-91.5 -73.5t-54.5 -109.5t-18 -134t18 -134t54 -109.5t91.5 -73.5t129.5 -27t129.5 27t92 73.5t54.5 109.5t18 134zM256 1144l310 339l312 -339h-157l-155 165l-152 -165h-158zM484 1524l221 301h214l-288 -301h-147z" />
    <glyph glyph-name="uni1ED2" unicode="&#x1ed2;" horiz-adv-x="1530" 
d="M772 -18q-170 0 -296 59.5t-207.5 158.5t-122 231t-40.5 276t40.5 276t122 231t207.5 158.5t296 59.5t296 -59.5t207.5 -158.5t122 -231t40.5 -276t-40.5 -276t-122 -231t-207.5 -158.5t-296 -59.5zM772 168q121 0 207 44t140.5 117.5t79.5 172t25 205.5t-25 205.5
t-79.5 172t-140.5 117.5t-207 44t-207 -44t-140.5 -117.5t-79.5 -172t-25 -205.5t25 -205.5t79.5 -172t140.5 -117.5t207 -44zM459 1554l310 339l312 -339h-157l-155 165l-152 -165h-158zM849 1936h-147l-288 301h214z" />
    <glyph glyph-name="uni1ED3" unicode="&#x1ed3;" horiz-adv-x="1145" 
d="M1072 500q0 -108 -36 -203t-101.5 -164.5t-158 -110t-204.5 -40.5t-204.5 40.5t-158 110t-101.5 164.5t-36 203t36 203t101.5 164.5t158 110t204.5 40.5t204.5 -40.5t158 -110t101.5 -164.5t36 -203zM866 500q0 71 -18 134t-54.5 109.5t-92 73.5t-129.5 27t-129 -27
t-91.5 -73.5t-54.5 -109.5t-18 -134t18 -134t54 -109.5t91.5 -73.5t129.5 -27t129.5 27t92 73.5t54.5 109.5t18 134zM256 1144l310 339l312 -339h-157l-155 165l-152 -165h-158zM658 1524h-147l-288 301h214z" />
    <glyph glyph-name="uni1ED6" unicode="&#x1ed6;" horiz-adv-x="1530" 
d="M772 -18q-170 0 -296 59.5t-207.5 158.5t-122 231t-40.5 276t40.5 276t122 231t207.5 158.5t296 59.5t296 -59.5t207.5 -158.5t122 -231t40.5 -276t-40.5 -276t-122 -231t-207.5 -158.5t-296 -59.5zM772 168q121 0 207 44t140.5 117.5t79.5 172t25 205.5t-25 205.5
t-79.5 172t-140.5 117.5t-207 44t-207 -44t-140.5 -117.5t-79.5 -172t-25 -205.5t25 -205.5t79.5 -172t140.5 -117.5t207 -44zM459 1554l310 339l312 -339h-157l-155 165l-152 -165h-158zM569 1969h-125q0 129 50.5 198.5t142.5 69.5q56 0 95 -24t69.5 -52.5t57 -52.5
t55.5 -24q31 0 50 37t19 104h126q0 -129 -50.5 -199.5t-140.5 -70.5q-56 0 -96 24t-70 52.5t-56.5 52.5t-55.5 24q-33 0 -52 -36.5t-19 -102.5z" />
    <glyph glyph-name="uni1ED7" unicode="&#x1ed7;" horiz-adv-x="1145" 
d="M1072 500q0 -108 -36 -203t-101.5 -164.5t-158 -110t-204.5 -40.5t-204.5 40.5t-158 110t-101.5 164.5t-36 203t36 203t101.5 164.5t158 110t204.5 40.5t204.5 -40.5t158 -110t101.5 -164.5t36 -203zM866 500q0 71 -18 134t-54.5 109.5t-92 73.5t-129.5 27t-129 -27
t-91.5 -73.5t-54.5 -109.5t-18 -134t18 -134t54 -109.5t91.5 -73.5t129.5 -27t129.5 27t92 73.5t54.5 109.5t18 134zM256 1144l310 339l312 -339h-157l-155 165l-152 -165h-158zM367 1554h-125q0 129 50.5 198.5t142.5 69.5q56 0 95 -24t69.5 -52.5t57 -52.5t55.5 -24
q31 0 50 37t19 104h126q0 -129 -50.5 -199.5t-140.5 -70.5q-56 0 -96 24t-70 52.5t-56.5 52.5t-55.5 24q-33 0 -52 -36.5t-19 -102.5z" />
    <glyph glyph-name="Ygrave" unicode="&#x1ef2;" horiz-adv-x="1320" 
d="M554 547l-534 867h251l389 -669l391 669h249l-532 -867v-547h-214v547zM754 1533h-147l-288 301h214z" />
    <glyph glyph-name="ygrave" unicode="&#x1ef3;" horiz-adv-x="1028" 
d="M235 -429l181 440l-408 989h225l284 -738l286 738h209l-562 -1429h-215zM612 1123h-147l-288 301h214z" />
    <glyph glyph-name="Ytilde" unicode="&#x1ef8;" horiz-adv-x="1320" 
d="M554 547l-534 867h251l389 -669l391 669h249l-532 -867v-547h-214v547zM451 1572h-125q0 129 50.5 198.5t142.5 69.5q56 0 95 -24t69.5 -52.5t57 -52.5t55.5 -24q31 0 50 37t19 104h126q0 -129 -50.5 -199.5t-140.5 -70.5q-56 0 -96 24t-70 52.5t-56.5 52.5t-55.5 24
q-33 0 -52 -36.5t-19 -102.5z" />
    <glyph glyph-name="ytilde" unicode="&#x1ef9;" horiz-adv-x="1028" 
d="M235 -429l181 440l-408 989h225l284 -738l286 738h209l-562 -1429h-215zM309 1162h-125q0 129 50.5 198.5t142.5 69.5q56 0 95 -24t69.5 -52.5t57 -52.5t55.5 -24q31 0 50 37t19 104h126q0 -129 -50.5 -199.5t-140.5 -70.5q-56 0 -96 24t-70 52.5t-56.5 52.5t-55.5 24
q-33 0 -52 -36.5t-19 -102.5z" />
    <glyph glyph-name="endash" unicode="&#x2013;" horiz-adv-x="1056" 
d="M153 655h750v-150h-750v150z" />
    <glyph glyph-name="emdash" unicode="&#x2014;" horiz-adv-x="2130" 
d="M41 655h2048v-150h-2048v150z" />
    <glyph glyph-name="uni2015" unicode="&#x2015;" horiz-adv-x="1548" 
d="M153 655h1241v-150h-1241v150z" />
    <glyph glyph-name="quoteleft" unicode="&#x2018;" horiz-adv-x="579" 
d="M164 1104q0 64 20.5 115t54.5 89t79 65.5t92 45.5v-129q-55 -20 -81.5 -52t-26.5 -54h2q54 0 88 -36.5t34 -87.5t-36 -87t-87 -36q-27 0 -52 11t-44.5 32t-31 52.5t-11.5 71.5z" />
    <glyph glyph-name="quoteright" unicode="&#x2019;" horiz-adv-x="579" 
d="M416 1248q0 -64 -20.5 -115t-54.5 -89t-79 -65.5t-92 -45.5v129q55 20 81.5 52t26.5 54h-2q-54 0 -88 36.5t-34 87.5t36 87t87 36q27 0 52 -11t44.5 -32t31 -52.5t11.5 -71.5z" />
    <glyph glyph-name="quotesinglbase" unicode="&#x201a;" horiz-adv-x="579" 
d="M416 76q0 -64 -20.5 -115t-54.5 -89t-79 -65.5t-92 -45.5v129q55 20 81.5 52t26.5 54h-2q-54 0 -88 36.5t-34 87.5t36 87t87 36q27 0 52 -11t44.5 -32t31 -52.5t11.5 -71.5z" />
    <glyph glyph-name="quotedblleft" unicode="&#x201c;" horiz-adv-x="909" 
d="M164 1104q0 64 20.5 115t54.5 89t79 65.5t92 45.5v-129q-55 -20 -81.5 -52t-26.5 -54h2q54 0 88 -36.5t34 -87.5t-36 -87t-87 -36q-27 0 -52 11t-44.5 32t-31 52.5t-11.5 71.5zM494 1104q0 64 20.5 115t54.5 89t79 65.5t92 45.5v-129q-55 -20 -81.5 -52t-26.5 -54h2
q54 0 88 -36.5t34 -87.5t-36 -87t-87 -36q-27 0 -52 11t-44.5 32t-31 52.5t-11.5 71.5z" />
    <glyph glyph-name="quotedblright" unicode="&#x201d;" horiz-adv-x="909" 
d="M746 1248q0 -64 -20.5 -115t-54.5 -89t-79 -65.5t-92 -45.5v129q55 20 81.5 52t26.5 54h-2q-54 0 -88 36.5t-34 87.5t36 87t87 36q27 0 52 -11t44.5 -32t31 -52.5t11.5 -71.5zM416 1248q0 -64 -20.5 -115t-54.5 -89t-79 -65.5t-92 -45.5v129q55 20 81.5 52t26.5 54h-2
q-54 0 -88 36.5t-34 87.5t36 87t87 36q27 0 52 -11t44.5 -32t31 -52.5t11.5 -71.5z" />
    <glyph glyph-name="quotedblbase" unicode="&#x201e;" horiz-adv-x="909" 
d="M416 76q0 -64 -20.5 -115t-54.5 -89t-79 -65.5t-92 -45.5v129q55 20 81.5 52t26.5 54h-2q-54 0 -88 36.5t-34 87.5t36 87t87 36q27 0 52 -11t44.5 -32t31 -52.5t11.5 -71.5zM746 76q0 -64 -20.5 -115t-54.5 -89t-79 -65.5t-92 -45.5v129q55 20 81.5 52t26.5 54h-2
q-54 0 -88 36.5t-34 87.5t36 87t87 36q27 0 52 -11t44.5 -32t31 -52.5t11.5 -71.5z" />
    <glyph glyph-name="dagger" unicode="&#x2020;" horiz-adv-x="808" 
d="M315 841h-234v180h234v392h179v-392h233v-180h-233v-1046h-179v1046z" />
    <glyph glyph-name="daggerdbl" unicode="&#x2021;" horiz-adv-x="841" 
d="M331 187h-233v179h233v475h-233v180h233v392h179v-392h233v-180h-233v-475h233v-179h-233v-392h-179v392z" />
    <glyph glyph-name="bullet" unicode="&#x2022;" horiz-adv-x="797" 
d="M399 244q-49 0 -92.5 18.5t-75.5 50.5t-51 75.5t-19 92.5t19 92.5t51 75.5t75.5 51t92.5 19t92.5 -19t75.5 -51t50.5 -75.5t18.5 -92.5t-18.5 -92.5t-50.5 -75.5t-75.5 -50.5t-92.5 -18.5z" />
    <glyph glyph-name="ellipsis" unicode="&#x2026;" horiz-adv-x="1466" 
d="M301 -18q-52 0 -88 37.5t-36 88.5t36.5 87.5t87.5 36.5t88.5 -36t37.5 -88q0 -51 -37 -88.5t-89 -37.5zM732 -18q-52 0 -88 37.5t-36 88.5t36.5 87.5t87.5 36.5t88.5 -36t37.5 -88q0 -51 -37 -88.5t-89 -37.5zM1164 -18q-53 0 -89 37.5t-36 88.5t37 87.5t88 36.5t88 -36
t37 -88q0 -51 -36.5 -88.5t-88.5 -37.5z" />
    <glyph glyph-name="perthousand" unicode="&#x2030;" horiz-adv-x="2217" 
d="M1078 1442h167l-786 -1456h-168zM372 848q-59 0 -110 22t-88.5 60.5t-59.5 90.5t-22 112q0 59 22 111t60 90.5t89 61t109 22.5q59 0 110.5 -22t89 -60.5t59 -90.5t21.5 -112q0 -59 -22 -111t-59.5 -90.5t-88.5 -61t-110 -22.5zM372 981q64 0 105.5 43t41.5 109t-42 109
t-105 43t-104.5 -43t-41.5 -109q0 -67 42 -109.5t104 -42.5zM1175 -4q-59 0 -110.5 22t-89 60t-59.5 90t-22 112q0 59 22 111.5t60 90.5t89.5 60.5t109.5 22.5q59 0 110.5 -22t89 -60.5t59 -90.5t21.5 -112q0 -59 -22 -111t-59.5 -90t-88.5 -60.5t-110 -22.5zM1845 -4
q-59 0 -110 22t-88.5 60t-59.5 90t-22 112q0 59 22 111.5t60 90.5t89 60.5t109 22.5q59 0 110.5 -22t89 -60.5t59 -90.5t21.5 -112q0 -59 -22 -111t-59.5 -90t-88.5 -60.5t-110 -22.5zM1175 128q63 0 105 43t42 109t-42 109t-105 43t-105 -43t-42 -109t42 -109t105 -43z
M1845 128q64 0 105.5 43t41.5 109t-41.5 109t-105.5 43q-63 0 -104.5 -43t-41.5 -109t42 -109t104 -43z" />
    <glyph glyph-name="uni2031" unicode="&#x2031;" horiz-adv-x="2807" 
d="M1078 1442h167l-786 -1456h-168zM372 848q-59 0 -110 22t-88.5 60.5t-59.5 90.5t-22 112q0 59 22 111t60 90.5t89 61t109 22.5q59 0 110.5 -22t89 -60.5t59 -90.5t21.5 -112q0 -59 -22 -111t-59.5 -90.5t-88.5 -61t-110 -22.5zM372 981q64 0 105.5 43t41.5 109t-42 109
t-105 43t-104.5 -43t-41.5 -109q0 -67 42 -109.5t104 -42.5zM1175 -4q-59 0 -110.5 22t-89 60t-59.5 90t-22 112q0 59 22 111.5t60 90.5t89.5 60.5t109.5 22.5q59 0 110.5 -22t89 -60.5t59 -90.5t21.5 -112q0 -59 -22 -111t-59.5 -90t-88.5 -60.5t-110 -22.5zM1845 -4
q-59 0 -110 22t-88.5 60t-59.5 90t-22 112q0 59 22 111.5t60 90.5t89 60.5t109 22.5q59 0 110.5 -22t89 -60.5t59 -90.5t21.5 -112q0 -59 -22 -111t-59.5 -90t-88.5 -60.5t-110 -22.5zM2516 -4q-59 0 -110.5 22t-89 60t-59.5 90t-22 112q0 59 22 111.5t60 90.5t89.5 60.5
t109.5 22.5q59 0 110.5 -22t89 -60.5t59 -90.5t21.5 -112q0 -59 -22 -111t-59.5 -90t-88.5 -60.5t-110 -22.5zM1175 128q63 0 105 43t42 109t-42 109t-105 43t-105 -43t-42 -109t42 -109t105 -43zM1845 128q64 0 105.5 43t41.5 109t-41.5 109t-105.5 43q-63 0 -104.5 -43
t-41.5 -109t42 -109t104 -43zM2516 128q63 0 105 43t42 109t-42 109t-105 43t-104.5 -43t-41.5 -109t41.5 -109t104.5 -43z" />
    <glyph glyph-name="guilsinglleft" unicode="&#x2039;" horiz-adv-x="602" 
d="M39 510l414 350v-173l-212 -177l212 -175v-173z" />
    <glyph glyph-name="guilsinglright" unicode="&#x203a;" horiz-adv-x="603" 
d="M147 335l212 175l-212 177v173l414 -350l-414 -348v173z" />
    <glyph glyph-name="fraction" unicode="&#x2044;" horiz-adv-x="678" 
d="M641 1414h183l-786 -1414h-184z" />
    <glyph glyph-name="Euro" unicode="&#x20ac;" horiz-adv-x="1300" 
d="M802 -18q-105 0 -191 33.5t-150.5 96t-107.5 153.5t-63 204h-171l66 148h87q-2 22 -3 44.5t-1 45.5q0 25 1.5 51t3.5 51h-154l66 151h104q25 109 70.5 197t110 148.5t148 93.5t183.5 33q119 0 219 -51.5t171 -148.5l-127 -100q-47 63 -116 93t-149 30q-128 0 -209.5 -78
t-115.5 -217h520l-66 -148h-477q-2 -25 -3.5 -47t-1.5 -45q0 -25 1.5 -50t3.5 -47h543l-66 -147h-453q28 -152 112.5 -234t218.5 -82q78 0 141.5 30t110.5 93l120 -118q-69 -89 -166 -136t-210 -47z" />
    <glyph glyph-name="uni20B1" unicode="&#x20b1;" horiz-adv-x="1371" 
d="M1278 963h-96q-7 -88 -46 -156t-102.5 -114t-150 -70t-188.5 -24h-216v-599h-205v963h-125v90h125v360h421q100 0 185.5 -24t148.5 -69.5t103 -113t49 -153.5h97v-90zM479 1053h495q-16 80 -86 124t-193 44h-216v-168zM695 792q130 0 199.5 44t81.5 127h-497v-171h216z
" />
    <glyph glyph-name="uni20B3" unicode="&#x20b3;" horiz-adv-x="1421" 
d="M1338 0h-222l-111 315h-585l-112 -315h-225l122 315h-121v134h174l81 210h-255v134h309l239 620h159l239 -620h307v-134h-254l81 -210h173v-134h-120zM585 793h255l-129 364zM963 449l-75 210h-351l-73 -210h499z" />
    <glyph glyph-name="uni20B4" unicode="&#x20b4;" horiz-adv-x="1330" 
d="M660 -18q-112 0 -201.5 31t-151 86.5t-94.5 132t-33 167.5q0 106 43.5 177.5t110.5 120.5t149 83t157 65h-411v118h611q18 22 28.5 47.5t10.5 56.5q0 80 -57 130.5t-150 50.5q-82 0 -147.5 -41t-107.5 -120l-171 105q72 125 184.5 182.5t252.5 57.5q85 0 159 -26.5
t128.5 -74t85.5 -114.5t31 -148q0 -107 -44.5 -172.5t-113 -107t-151.5 -67.5t-159 -54h475v-118h-664q-19 -25 -30 -58t-11 -74q0 -115 71.5 -181t202.5 -66q62 0 115.5 18t93.5 52.5t66.5 84.5t34.5 114l204 -51q-15 -93 -60.5 -168.5t-113.5 -128.5t-156 -81.5
t-187 -28.5z" />
    <glyph glyph-name="uni20B8" unicode="&#x20b8;" horiz-adv-x="1409" 
d="M139 1413h1132v-183h-1132v183zM602 907h-463v183h1132v-183h-463v-907h-206v907z" />
    <glyph glyph-name="uni20BD" unicode="&#x20bd;" horiz-adv-x="1364" 
d="M333 284h-179v160h179v171h-179v177h179v621h420q107 0 197.5 -27.5t155.5 -79.5t101 -129t36 -175q0 -97 -36 -170t-100.5 -121t-155 -72t-198.5 -24h-216v-171h330v-160h-330v-284h-204v284zM753 792q146 0 216 54.5t70 155.5q0 103 -71 161t-215 58h-216v-429h216z
" />
    <glyph glyph-name="uni2116" unicode="&#x2116;" horiz-adv-x="2374" 
d="M199 1413h208l639 -1074v1074h198v-1413h-209l-638 1076v-1076h-198v1413zM1856 325q-93 0 -170 34.5t-131 93t-84 137.5t-30 167t30 166t84 136t131 92t170 34q92 0 169 -34t131.5 -92t84.5 -136t30 -166t-30 -167t-84.5 -137.5t-131.5 -93t-169 -34.5zM1856 465
q62 0 108 23.5t76.5 63.5t46 93t15.5 112q0 58 -15.5 110.5t-46 91.5t-76.5 62t-108 23t-108 -23t-76.5 -62t-46 -91.5t-15.5 -110.5q0 -59 15.5 -112t46 -93t76.5 -63.5t108 -23.5zM1450 150h794v-150h-794v150z" />
    <glyph glyph-name="trademark" unicode="&#x2122;" horiz-adv-x="1329" 
d="M234 878v415h-149v121h431v-121h-149v-415h-133zM607 878v536h141l143 -352l142 352h139v-536h-122v287l-118 -287h-84l-119 287v-287h-122z" />
    <glyph glyph-name="uni2126" unicode="&#x2126;" horiz-adv-x="1656" 
d="M150 0v165h245q-118 104 -176.5 251t-58.5 319q0 141 45 268.5t130.5 222t210 150.5t282.5 56t282.5 -56t210 -150.5t130.5 -222t45 -268.5q0 -173 -59 -319.5t-178 -250.5h247v-165h-564v138q183 95 260 237.5t77 338.5q0 120 -30 218.5t-87 168t-141.5 107.5t-192.5 38
t-192.5 -38t-141.5 -107.5t-87 -168t-30 -218.5q0 -196 77 -338.5t259 -237.5v-138h-563z" />
    <glyph glyph-name="arrowleft" unicode="&#x2190;" horiz-adv-x="2249" 
d="M1102 273l-10 -190l-1000 556l1000 548l10 -191l-551 -278l1595 -1v-164h-1588z" />
    <glyph glyph-name="arrowright" unicode="&#x2192;" horiz-adv-x="2249" 
d="M1146 273l544 280h-1588v164l1595 1l-551 278l11 191l1000 -548l-1000 -556z" />
    <glyph glyph-name="partialdiff" unicode="&#x2202;" horiz-adv-x="1313" 
d="M574 -12q-106 0 -190 34t-142 94.5t-89 145t-31 184.5q0 125 44.5 229.5t118.5 178t172 114.5t205 41q99 0 176.5 -40t134.5 -107q0 96 -22.5 174t-64 132.5t-100 84t-130.5 29.5q-36 0 -74.5 -7.5t-74 -27t-66.5 -53.5t-52 -86l-146 45q52 130 165.5 202.5t264.5 72.5
q128 0 221 -50.5t152 -139.5t87.5 -213t28.5 -268q0 -164 -38.5 -305.5t-112.5 -244t-184.5 -161t-252.5 -58.5zM585 158q82 0 151.5 32.5t119 86.5t77.5 124t28 144q0 137 -72 219.5t-203 82.5q-92 0 -163.5 -34t-119 -89.5t-72.5 -127.5t-25 -148q0 -71 22.5 -125.5
t60 -91t88.5 -55t108 -18.5z" />
    <glyph glyph-name="uni2206" unicode="&#x2206;" horiz-adv-x="1322" 
d="M660 1479l590 -1479h-1178zM1007 167l-347 905l-345 -905h692z" />
    <glyph glyph-name="product" unicode="&#x220f;" horiz-adv-x="1345" 
d="M256 1246h-92v167h1018v-167h-92v-1246h-167v1246h-501v-1246h-166v1246z" />
    <glyph glyph-name="summation" unicode="&#x2211;" horiz-adv-x="1289" 
d="M91 -315l581 816l-570 814v99h1059v-170h-775l520 -744l-536 -744h808v-170h-1087v99z" />
    <glyph glyph-name="minus" unicode="&#x2212;" horiz-adv-x="1300" 
d="M1146 630h-992v150h992v-150z" />
    <glyph glyph-name="radical" unicode="&#x221a;" horiz-adv-x="1220" 
d="M231 548h-155v166h274l166 -482l474 1195l155 -59l-638 -1565z" />
    <glyph glyph-name="infinity" unicode="&#x221e;" horiz-adv-x="1940" 
d="M555 329q-91 0 -165 28.5t-125.5 78.5t-79.5 119.5t-28 150.5t28.5 151t80.5 120.5t127 79t167 28.5q71 0 131 -19.5t110.5 -52t93.5 -76t81 -90.5q37 47 80 90t93 75.5t109 52t128 19.5q91 0 165 -28t125.5 -78t79.5 -119.5t28 -150.5t-28.5 -151t-81 -120.5t-127.5 -79
t-167 -28.5q-71 0 -130 20t-108 53t-91.5 77t-80.5 92q-37 -48 -80 -92t-93.5 -77t-110.5 -53t-131 -20zM334 708q0 -50 18 -90.5t48.5 -68.5t71 -43.5t86.5 -15.5q51 0 95 16t82.5 43.5t73.5 65t68 79.5q-35 46 -70 88t-73.5 74t-81.5 50.5t-94 18.5q-46 0 -86.5 -15.5
t-71 -43.5t-48.5 -68t-18 -90zM1383 924q-51 0 -95 -15.5t-82 -42.5t-72 -63.5t-65 -77.5q35 -47 70 -90t72.5 -75.5t80 -51.5t91.5 -19q46 0 86.5 15.5t71 43t48.5 68t18 89.5q0 50 -18 91t-48.5 69t-71 43.5t-86.5 15.5z" />
    <glyph glyph-name="integral" unicode="&#x222b;" horiz-adv-x="929" 
d="M548 983v-971q0 -109 -33.5 -192.5t-95.5 -139t-151.5 -84t-200.5 -28.5v166q170 0 242 64.5t72 218.5v971q0 109 33.5 192.5t95.5 139t151.5 84t200.5 28.5v-167q-170 0 -242 -64t-72 -218z" />
    <glyph glyph-name="approxequal" unicode="&#x2248;" horiz-adv-x="1300" 
d="M834 795q-49 0 -101 9t-103 20.5t-101 20.5t-94 9q-58 0 -116 -16.5t-124 -52.5l-68 133q81 43 160 64t161 21q50 0 103 -9t104 -20.5t100.5 -20.5t91.5 -9q59 0 116.5 16.5t123.5 52.5l68 -133q-81 -43 -160 -64t-161 -21zM852 406q-49 0 -101 9t-103 20.5t-101 20.5
t-94 9q-58 0 -116 -16t-124 -53l-68 134q81 43 160 64t161 21q50 0 103 -9t104 -20.5t100.5 -20.5t91.5 -9q59 0 116.5 16t123.5 53l68 -134q-81 -43 -160 -64t-161 -21z" />
    <glyph glyph-name="notequal" unicode="&#x2260;" horiz-adv-x="1300" 
d="M172 0l246 436h-264v150h349l135 239h-484v150h568l248 439h158l-248 -439h266v-150h-350l-135 -239h485v-150h-570l-246 -436h-158z" />
    <glyph glyph-name="lessequal" unicode="&#x2264;" horiz-adv-x="1300" 
d="M1146 0h-992v150h992v-150zM1156 1047l-823 -345l823 -345l-69 -137l-933 411v142l933 411z" />
    <glyph glyph-name="greaterequal" unicode="&#x2265;" horiz-adv-x="1300" 
d="M1146 0h-992v150h992v-150zM144 357l823 345l-823 345l69 137l933 -411v-142l-933 -411z" />
    <glyph glyph-name="lozenge" unicode="&#x25ca;" horiz-adv-x="1123" 
d="M472 0l-386 714l386 713h178l386 -713l-386 -714h-178zM283 714l278 -540l278 540l-278 539z" />
    <glyph glyph-name="J.acute" unicode="&#xe100;" horiz-adv-x="1147" 
d="M511 -18q-101 0 -184.5 33.5t-143.5 93t-95.5 141.5t-42.5 179l203 23q8 -133 78 -208t185 -75q131 0 194.5 77.5t63.5 260.5v907h206v-906q0 -253 -119 -389.5t-345 -136.5zM783 1538l221 301h214l-288 -301h-147z" />
    <glyph glyph-name="gcircumflex" unicode="&#xe104;" horiz-adv-x="1192" 
d="M838 25v140q-49 -82 -133 -124.5t-180 -42.5q-102 0 -184 39t-139 107t-87.5 161.5t-30.5 202.5q0 108 30.5 201.5t87 162t138 107.5t182.5 39q47 0 93.5 -10.5t87.5 -32t75.5 -53t59.5 -73.5v151h198l-1 -975q0 -104 -32.5 -189t-92.5 -144.5t-147 -91.5t-195 -32
q-80 0 -147 17.5t-121 48t-96.5 72.5t-73.5 92l151 110q17 -34 44 -64.5t64 -53t83 -36t100 -13.5q122 0 194 73t72 211zM573 173q69 0 122 25.5t88.5 70.5t53.5 106.5t18 132.5t-18 132.5t-53.5 106t-88.5 70.5t-122 26t-122 -26t-89 -71t-54.5 -106.5t-18.5 -131.5
t18.5 -131.5t54.5 -106.5t89 -71t122 -26zM249 1144l310 339l312 -339h-157l-155 165l-152 -165h-158z" />
    <glyph glyph-name="idotaccent" unicode="&#xe105;" horiz-adv-x="509" 
d="M156 1000h197v-1000h-197v1000zM254 1182q-49 0 -83.5 34.5t-34.5 83.5q0 48 34.5 83t83.5 35t83.5 -35t34.5 -83q0 -49 -34.5 -83.5t-83.5 -34.5z" />
    <glyph glyph-name="i.loclTRK" unicode="&#xe106;" horiz-adv-x="509" 
d="M156 1000h197v-1000h-197v1000zM254 1182q-49 0 -83.5 34.5t-34.5 83.5q0 48 34.5 83t83.5 35t83.5 -35t34.5 -83q0 -49 -34.5 -83.5t-83.5 -34.5z" />
    <glyph glyph-name="j.acute" unicode="&#xe107;" horiz-adv-x="519" 
d="M84 -435q-46 0 -93 11t-75 21v178q37 -14 70.5 -21.5t61.5 -7.5q56 0 87 35t31 105v1114h197v-1112q0 -154 -75 -238.5t-204 -84.5zM176 1128l221 301h214l-288 -301h-147z" />
    <glyph glyph-name="caron.vert" unicode="&#xe108;" horiz-adv-x="493" orientation="v" 
d="M161 976l35 440h207l-124 -440h-118z" />
    <glyph glyph-name="ringacute" unicode="&#xe109;" horiz-adv-x="608" 
d="M344 1590h-146l222 288h211zM304 1083q-45 0 -84 17.5t-68 46.5t-45.5 68.5t-16.5 82.5q0 44 17 83.5t45.5 69t68 46.5t83.5 17t83.5 -17t69 -46t47 -68.5t17.5 -84.5t-17 -84.5t-46 -68t-69 -45.5t-85 -17zM413 1301q0 44 -29.5 74.5t-79.5 30.5q-46 0 -76 -30.5
t-30 -74.5q0 -48 31 -79t75 -31q47 0 78 31.5t31 78.5z" />
    <glyph glyph-name="commaturnedabove" unicode="&#xe10a;" horiz-adv-x="409" 
d="M90 1329q0 88 58 149t151 77v-109q-46 -7 -66 -24t-20 -37q45 0 74.5 -29.5t29.5 -71.5q0 -43 -30 -71.5t-76 -28.5q-53 0 -87 38.5t-34 106.5z" />
    <glyph glyph-name="commaaccent" unicode="&#xf6c3;" horiz-adv-x="442" 
d="M352 -255q0 -57 -20.5 -102.5t-53.5 -79.5t-76.5 -59t-89.5 -43v127q50 19 75 43.5t25 40.5h-3q-51 0 -85 32.5t-34 78.5q0 47 35.5 80t86.5 33q58 0 99 -39.5t41 -111.5z" />
    <glyph glyph-name="horn" horiz-adv-x="511" 
d="M90 597v108q91 0 129.5 50t38.5 135v110h163v-104q0 -140 -79.5 -219.5t-251.5 -79.5z" />
    <glyph glyph-name="gravecmb" horiz-adv-x="0" 
d="M94 1128h-147l-288 301h214z" />
    <glyph glyph-name="acutecmb" horiz-adv-x="0" 
d="M-92 1128l221 301h214l-288 -301h-147z" />
    <glyph glyph-name="hungarumlautcmb" horiz-adv-x="0" 
d="M88 1131l219 320h213l-286 -320h-146zM-245 1131l220 320h185l-259 -320h-146z" />
    <glyph glyph-name="caroncmb.vert" horiz-adv-x="0" orientation="v" 
d="M-73 976l35 440h207l-124 -440h-118z" />
    <glyph glyph-name="circumflexcmb" horiz-adv-x="0" 
d="M-311 1139l310 339l312 -339h-157l-155 165l-152 -165h-158z" />
    <glyph glyph-name="caroncmb" horiz-adv-x="0" 
d="M-1 1120l-310 322h158l152 -157l155 157h157z" />
    <glyph glyph-name="brevecmb" horiz-adv-x="0" 
d="M1 1142q-160 0 -236 75.5t-76 203.5h140q0 -78 48.5 -121.5t123.5 -43.5q77 0 123.5 45t46.5 120h140q0 -134 -79 -206.5t-231 -72.5z" />
    <glyph glyph-name="tildecmb" horiz-adv-x="0" 
d="M-209 1167h-125q0 129 50.5 198.5t142.5 69.5q56 0 95 -24t69.5 -52.5t57 -52.5t55.5 -24q31 0 50 37t19 104h126q0 -129 -50.5 -199.5t-140.5 -70.5q-56 0 -96 24t-70 52.5t-56.5 52.5t-55.5 24q-33 0 -52 -36.5t-19 -102.5z" />
    <glyph glyph-name="ringcmb" horiz-adv-x="0" 
d="M0 1083q-45 0 -84.5 17.5t-68.5 46.5t-45.5 68.5t-16.5 82.5q0 44 17 83.5t46 69t68.5 46.5t83.5 17t84 -17t69.5 -45.5t46.5 -68t17 -84.5t-17 -84.5t-46 -68.5t-69 -46t-85 -17zM0 1404q-46 0 -75 -30t-29 -73q0 -47 30.5 -77.5t73.5 -30.5q47 0 77 31t30 77
q0 44 -29 73.5t-78 29.5z" />
    <glyph glyph-name="ringacutecmb" horiz-adv-x="0" 
d="M40 1590h-146l222 288h211zM0 1083q-45 0 -84 17.5t-68 46.5t-45.5 68.5t-16.5 82.5q0 44 17 83.5t45.5 69t68 46.5t83.5 17t83.5 -17t69 -46t47 -68.5t17.5 -84.5t-17 -84.5t-46 -68t-69 -45.5t-85 -17zM109 1301q0 44 -29.5 74.5t-79.5 30.5q-46 0 -76 -30.5t-30 -74.5
q0 -48 31 -79t75 -31q47 0 78 31.5t31 78.5z" />
    <glyph glyph-name="dotaccentcmb" horiz-adv-x="0" 
d="M0 1182q-49 0 -83.5 34.5t-34.5 83.5q0 48 34.5 83t83.5 35t83.5 -35t34.5 -83q0 -49 -34.5 -83.5t-83.5 -34.5z" />
    <glyph glyph-name="dieresiscmb" horiz-adv-x="0" 
d="M-184 1192q-47 0 -79 32.5t-32 78.5q0 45 32 77.5t79 32.5q46 0 78 -32.5t32 -77.5q0 -46 -32 -78.5t-78 -32.5zM184 1192q-46 0 -78 32.5t-32 78.5q0 45 32 77.5t78 32.5t78.5 -32.5t32.5 -77.5q0 -46 -32.5 -78.5t-78.5 -32.5z" />
    <glyph glyph-name="macroncmb" horiz-adv-x="0" 
d="M-274 1211v147h547v-147h-547z" />
    <glyph glyph-name="commaturnedabovecmb" horiz-adv-x="0" 
d="M-117 1329q0 88 58 149t151 77v-109q-46 -7 -66 -24t-20 -37q45 0 74.5 -29.5t29.5 -71.5q0 -43 -30 -71.5t-76 -28.5q-53 0 -87 38.5t-34 106.5z" />
    <glyph glyph-name="commaaccentcmb" horiz-adv-x="0" 
d="M134 -255q0 -57 -20.5 -102.5t-53.5 -79.5t-76.5 -59t-89.5 -43v127q50 19 75 43.5t25 40.5h-3q-51 0 -85 32.5t-34 78.5q0 47 35.5 80t86.5 33q58 0 99 -39.5t41 -111.5z" />
    <glyph glyph-name="cedillacmb" horiz-adv-x="0" 
d="M-2 -519q-63 0 -119.5 36t-80.5 92l112 48q9 -25 34 -42t56 -17q41 0 67 25t26 65q0 55 -41.5 86t-128.5 31h-49l70 195h122l-38 -111q93 -10 142.5 -63t49.5 -136q0 -45 -16.5 -83.5t-46 -66t-70 -43.5t-89.5 -16z" />
    <glyph glyph-name="ogonekcmb" horiz-adv-x="0" 
d="M-16 -453q-97 0 -155 53t-58 146q0 59 27 105t61.5 78.5t68.5 51t47 21.5l155 -2q-21 -6 -59.5 -24.5t-76 -47.5t-65 -69t-27.5 -89q0 -52 28.5 -76t69.5 -24q37 0 65 17t52 50l101 -69q-37 -55 -95 -88t-139 -33z" />
    <glyph glyph-name="horncmb" horiz-adv-x="0" 
d="M0 597v108q91 0 129.5 50t38.5 135v110h163v-104q0 -140 -79.5 -219.5t-251.5 -79.5z" />
    <glyph glyph-name="softhyphen" horiz-adv-x="872" 
d="M153 655h566v-153h-566v153z" />
    </font>
</defs>
</svg>
